<svg xmlns="http://www.w3.org/2000/svg" width="2500" height="2500" viewBox="0 0 192.756 192.756"><g fill-rule="evenodd" clip-rule="evenodd"><path fill="#fff" d="M0 0h192.756v192.756H0V0z"/><path fill="#747778" d="M2.835 62.97h187.086v62.336H2.835V62.97z"/><path d="M93.085 107.771l3.281-9.235c1.038 2.053 10.76 6.453 11.079 2.094.104-1.421-4.536-2.442-6.15-2.738-2.51-.46-4.382-1.417-5.7-2.912-1.318-1.495-1.977-3.357-1.977-5.589 0-7.649 6.531-11.711 13.903-11.711 1.916 0 3.792.244 5.638.729s3.182 1.217 5.058 2.201l-3.103 8.429c-1.148-.819-2.304-1.45-3.467-1.886-1.155-.428-2.279-.646-3.373-.646-.83 0-1.474.135-1.932.406-.457.271-.682.653-.682 1.134 0 .909 1.659 1.712 4.979 2.396.527.12.938.21 1.225.271 2.288.496 4.087 1.518 5.405 3.058a8.093 8.093 0 0 1 1.054 1.561c2.05-5.263 7.962-8.504 13.309-8.376 5.388.129 10.734 2.953 13.102 7.951 2.815-8.11 11.408-9.136 18.799-6.49V96.7c-1.769-1.109-4.994-1.741-6.773.023-1.293 1.283-1.248 3.244.1 4.488 1.581 1.46 4.893 1.072 6.674.028v8.371c-5.408 2.544-10.357 2.466-15.162-1.644-2.585-2.211-3.374-4.065-3.923-6.924h-15.707c-.175.941.221 2.144.711 2.812.739 1.007 2.385 1.354 3.351.593.396-.312.988-.594 1.213-1.187h10.369c-2.932 6.212-6.497 8.198-12.994 8.344-5.335.12-10.29-2.821-12.682-7.173a7.575 7.575 0 0 1-.294-.592c-.659 1.611-1.71 3.031-3.153 4.258-2.659 2.261-6.118 3.388-10.375 3.388-5.261-.003-7.496-1.339-11.803-3.714zm35.428-11.803l5.659.023c-.051-.927-.307-1.614-.757-2.058-.46-.444-1.141-.662-2.034-.662-.8 0-1.446.233-1.932.693-.493.469-.808 1.139-.936 2.004zm-52.894.003c1.726 0 3.134 1.449 3.134 3.226s-1.408 3.226-3.134 3.226-3.134-1.449-3.134-3.226 1.408-3.226 3.134-3.226zm2.708 14.723v-2.412c-3.692 3.623-8.856 3.798-12.324 1.007-5.72-4.604-5.957-13.191-1.697-18.878 3.296-4.399 10.582-4.739 13.866-.456V87.66H88.97v23.035H78.327v-.001zm-47.004-14.1l3.904-18.947h21.352v9.572H42.512l-.234 2.758c2.638-.733 7.452-2.481 12.784 1.797 6.155 4.939 3.459 12.426-.414 15.679-5.896 4.952-18.153 4.625-24.993.987l1.26-7.928c3.369 1.406 15.182 3.622 15.502-1.47.28-4.47-12.452-2.935-15.094-2.448zm44.274-19.173l5.943 7.087-4.125 2.794-7.241-6.338 5.423-3.543z" fill="#fff"/><path d="M62.895 62.97h66.929v11.745c-8.385-3.426-22.742-3.908-32.11-.045-6.887 2.84-20.61 3.229-34.818-4.524V62.97h-.001zM62.895 116.431h66.928v13.355H62.895v-13.355z" fill="#d35b2f"/></g></svg>