<svg xmlns="http://www.w3.org/2000/svg" width="2500" height="775" viewBox="0 0 57.494 17.829"><path d="M55.694 6.909a1.1 1.1 0 0 0 1.099-1.104 1.1 1.1 0 1 0-1.099 1.104z"/><path d="M57.486 13.801c-.114-1.418-2.105-2.813-2.105-2.813-.411-.298-.15-.319-.15-.319.272-.18.719-.55.975-1.168 0 0 .48-1.052-.709-1.784 0 0-1.533-.755-1.899.915 0 0-.092.503-.046.687 0 0 .161.823-.732.687 0 0-.754-.023-.777-.824 0 0-.022-.709.801-.892 0 0 .778-.252.663-1.076 0 0-.091-.732-1.121-.526 0 0-.869.253-.982-.456 0 0-.161-.596.755-.596 0 0 .319 0 .731.39 0 0 .435.365.915-.138 0 0 .572-.755-.32-1.396 0 0-1.738-1.121-3.362-.137 0 0-1.054.64-.961 1.898 0 0-.023 1.052.983 1.578 0 0-.661.71-.375 1.813-.094.277-.244.108-.244.108-.982-.824-2.034-4.827-2.034-4.827-.138-.252-1.602-.138-1.602-.138-.755.069-1.235-.915-1.235-.915-.663-.8-1.692.022-1.692.022s-.824.642.411 1.672c0 0 .366.182.504.479.823 3.614.091 3.592.091 3.592-1.144.457-2.607-5.353-2.607-5.353h-2.06c.549 1.875 1.51 4.621 1.51 4.621.32 1.098-.479.982-.479.982-1.464.183-2.7-5.559-2.7-5.559l-2.063.026s.21 1.167.617 2.599a6.409 6.409 0 0 0-.319-.563s-1.396-2.471-3.227-2.149c0 0-.961.114-1.577.983 0 0-.139.229-.161-.068-.138-1.922-.687-1.693-.687-1.693-.571-.16-.961 1.464-.961 1.464-.162.498-.404.534-.592.465-.518-.685-1.22-1.104-1.993-1.104-1.564 0-2.835 1.719-2.88 3.864-.6-1.277-1.9-1.785-1.9-1.785.046-.297-.114-1.716-.114-1.716-.069-.938-1.281-.938-1.281-.938-1.282-.021-1.442 1.075-1.442 1.075-.021.595.206 1.762.206 1.762-.234.454-1.01.562-1.54.579-.117-2.349-1.367-2.285-1.367-2.285-1.367-.136-1.772 1.144-1.772 1.144-.401 1.43 1.167 2.045 1.167 2.045.175.086.273.293.318.44.319 1.07-.056 1.346-.056 1.346-1.201.743-2.002-2.344-2.002-2.344C14.922-.99 11.091.04 11.091.04c-2.86.8 1.086 9.036 1.086 9.036-.286 1.371-.915.457-.915.457-.743-1.144-3.431-7.893-3.431-7.893C6.628.917 5.007.716 5.007.716 1.667.396.386 3.575.386 3.575c-1.51 4.347 1.899 7.617 1.899 7.617 2.928 2.562 6.337-.389 6.337-.389 2.013 2.951 4.392-.046 4.392-.046s.889 1.574 2.652 1.519c1.662-.231 2.017-2.213 2.074-3.473.398.022.879-.013.879-.013-.252 3.522 2.722 3.317 2.722 3.317 2.008-.017 2.547-1.453 2.692-2.241.446 1.399 1.459 2.379 2.638 2.379 1.592 0 2.883-1.783 2.883-3.98 0-.125-.005-.248-.013-.369.104-.1.238-.115.333.255l1.281 4.755H6.415a1.829 1.829 0 1 0 0 3.659h25.728l.34 1.263h2.311l-.337-1.263h20.772c0 .001 2.417.027 2.257-2.764z"/><path d="M54.832 12.907H33.479l-.311-1.164s2.036.687 3.043-.618c0 0 .711-.989.498-2.55.669 1.829 1.623 3.569 2.842 3.603 0 0 1.235.069 1.967-1.235 0 0 1.075 1.305 2.402 1.144 0 0 3.021-.526 1.258-5.468.298-.138.572.046.572.046.961 2.654 1.258 3.867 1.258 3.867.55 2.059 2.311 1.531 2.311 1.531.628-.116.896-.733 1.012-1.242.451.637 1.555 1.63 3.747.763-.001-.001 1.189 1.32.754 1.323zM4.298 3.507s1.098-.367 1.624 1.029l1.167 3.18s.526 1.418-.686 1.716c0 0-1.602.436-2.54-2.241 0 0-1.052-3.043.435-3.684zM12.053 2.546s-.228.229.206 1.441c0 0 .275.869.617.731 0 0 .252-.092-.114-1.144 0 .002-.388-1.462-.709-1.028zM20.357 8.289s.618-.183.755.709c0 0 .069.709-.068 1.007 0 0 .96.411.892-.938 0 0-.046-1.12-.938-1.304 0-.001-.641-.116-.641.526zM26.031 7.556s-.16 2.333.823 2.356c0 0 .939.137.87-1.921 0 .001-.847-.39-1.693-.435zM34.059 8.132c-.293-.889-.929-1.477-1.421-1.314-.491.162-.652 1.013-.36 1.901.293.888.929 1.476 1.421 1.314.49-.161.652-1.014.36-1.901zM17.722 16.135c.172.004.351 0 .511-.056.33-.113.605-.367.678-.706.077-.362-.058-.696-.42-.752l.002-.008c.302-.08.56-.327.624-.629.12-.563-.278-.757-.777-.757h-1.039l-.618 2.907h1.039v.001zM20.661 14.053c-.664 0-1.101.443-1.235 1.071-.133.628.115 1.071.78 1.071.664 0 1.1-.443 1.234-1.071.133-.627-.115-1.071-.779-1.071zM22.258 14.115l.092-.432.408-.121-.117.553.47-.014-.062.286-.466-.004-.277 1.305c-.031.145.068.214.204.214a.997.997 0 0 0 .207-.024l-.062.294c-.09.004-.179.024-.269.024a1.33 1.33 0 0 1-.253-.021c-.057-.012-.152-.044-.197-.133-.048-.096-.066-.105-.009-.375l.273-1.284-.347.004.061-.286.344.014zM23.599 14.115l.091-.432.409-.121-.118.553.47-.014-.061.286-.466-.004-.277 1.305c-.031.145.067.214.204.214a.997.997 0 0 0 .207-.024l-.063.294c-.089.004-.178.024-.267.024a1.33 1.33 0 0 1-.253-.021c-.058-.012-.151-.044-.197-.133-.048-.096-.066-.105-.009-.375l.273-1.284-.347.004.06-.286.344.014zM24.314 16.135l.617-2.907h.383l-.618 2.907h-.382zM27.111 15.198l.04-.19c.119-.559-.086-.941-.687-.954-.64 0-1.044.495-1.17 1.087-.125.597.034 1.056.683 1.056.483 0 .886-.229 1.044-.688h-.403c-.107.294-.281.41-.578.41-.391 0-.458-.366-.354-.72h1.425v-.001zM29.248 14.387h-.008c-.066-.241-.3-.334-.559-.334-.628 0-1.016.524-1.133 1.071-.111.519.01 1.071.61 1.071.294 0 .582-.101.778-.384h.009l-.005.021-.053.303h.392c.017-.117.029-.237.056-.358l.541-2.549h-.382l-.246 1.159zM31.898 13.228h.404l.144 2.392h.008l1.196-2.392h.5l.14 2.411h.007l1.162-2.411h.402l-1.479 2.907h-.447l-.14-2.483h-.008l-1.245 2.483h-.435l-.209-2.907zM36.404 14.886c-.479 0-1.019.166-1.139.733-.084.395.232.576.582.576a.822.822 0 0 0 .705-.363h.008c-.016.093-.025.182-.037.274-.006.049.066.028.102.028h.258c.024-.169.056-.339.075-.427l.205-.966c.12-.564-.265-.689-.679-.689-.398 0-.778.157-.893.601h.403c.048-.211.254-.322.446-.322.406 0 .383.205.309.555h-.345zM37.993 14.115l.093-.432.408-.121-.118.553.47-.014-.061.286-.466-.004-.278 1.305c-.03.145.066.214.204.214a.997.997 0 0 0 .207-.024l-.062.294c-.09.004-.178.024-.267.024-.093 0-.165-.005-.253-.021-.058-.012-.152-.044-.198-.133-.048-.096-.066-.105-.009-.375l.272-1.284-.347.004.062-.286.343.014zM40.755 15.198l.04-.19c.119-.559-.086-.941-.687-.954-.641 0-1.044.495-1.169 1.087-.127.597.032 1.056.682 1.056.481 0 .886-.229 1.044-.688h-.403c-.106.294-.28.41-.578.41-.391 0-.458-.366-.354-.72h1.425v-.001zM41.518 16.135h-.383l.431-2.021h.382l-.083.39h.008c.116-.278.403-.419.681-.419.049 0 .088.004.133.004l-.078.363c-.048-.021-.107-.021-.16-.021-.486.017-.625.273-.717.7l-.214 1.004zM55.694 6.714a.908.908 0 1 1 0 0z" fill="#fff"/><path d="M55.63 5.876c.071.007.138 0 .188.054.058.062.058.163.072.275.008.076.029.158.044.23h.258c-.045-.116-.059-.252-.076-.375-.021-.14-.041-.219-.22-.254v-.005c.173-.036.264-.153.264-.301 0-.293-.246-.357-.483-.357h-.419v1.294h.202v-.56h.17v-.001z"/><path d="M55.46 5.675v-.331h.243c.16 0 .205.05.205.147 0 .099-.045.178-.234.184h-.214z" fill="#fff"/><path d="M17.63 13.575h.499c.385-.013.641.056.56.438-.082.382-.366.451-.746.439h-.5l.187-.877zM17.37 14.798h.673c.309 0 .538.137.461.495-.076.358-.362.495-.672.495h-.672l.21-.99zM19.829 15.125c.091-.432.317-.793.773-.793.455 0 .526.361.435.793-.092.431-.318.793-.773.793-.454-.001-.526-.363-.435-.793zM25.742 14.931c.07-.33.317-.6.634-.6.372 0 .469.262.388.6h-1.022zM27.953 15.121c.08-.378.282-.801.741-.801.435 0 .479.434.401.801-.08.378-.28.809-.744.809-.43-.001-.479-.431-.398-.809zM36.693 15.152c-.071.375-.238.766-.69.766-.225 0-.372-.125-.318-.374.062-.294.391-.379.626-.392h.382zM39.386 14.931c.07-.33.317-.6.636-.6.369 0 .468.262.388.6h-1.024z"/></svg>