<svg xmlns="http://www.w3.org/2000/svg" width="2500" height="2500" viewBox="0 0 192.756 192.756"><g fill-rule="evenodd" clip-rule="evenodd"><path fill="#fff" d="M0 0h192.756v192.756H0V0z"/><path d="M113.895 81.467c-.9 5.691-4.379 10.335-9.055 12.929a17.12 17.12 0 0 1-6.186 2.167 16.677 16.677 0 0 1-13.453-2.792 16.671 16.671 0 0 1-6.825-12.069 17.988 17.988 0 0 1-.034-5.865l.042-.257a17.495 17.495 0 0 0-.071 4.439 16.639 16.639 0 0 1 3.191-9.588l.144-.194c-3.073 4.359-3.698 9.728-2.139 14.449.333.812.726 1.596 1.175 2.345-3.569-7.356-1.469-16.434 5.376-21.408l.203-.145c-7.296 5.463-8.874 15.792-3.499 23.19a16.727 16.727 0 0 0 1.642 1.935 16.521 16.521 0 0 1-3.366-5.889l-.072-.229a16.044 16.044 0 0 0 5.127 7.337 15.952 15.952 0 0 0 10.851 4.237c8.842 0 16.01-7.168 16.01-16.011 0-3.789-1.314-7.27-3.516-10.011-3.912-5.601-11.125-8.278-17.971-6.163l.228-.076c6.055-1.968 12.424-.266 16.698 3.878-5.332-6.65-14.924-8.252-22.162-3.521l.206-.141c7.876-5.312 18.566-3.234 23.878 4.642a17.212 17.212 0 0 1 2 3.995c-1.945-5.969-7.051-10.676-13.641-11.817l.258.039c9.818 1.557 16.515 10.776 14.961 20.594z" fill="#b1b2af"/><path d="M105.326 89.123c-.07 0-.105.051-.105.152 0 .076.035.114.105.114.047 0 .07-.038.07-.114 0-.076-.023-.127-.07-.152zm.918.266c.023-.025-.012-.038-.105-.038h-.6c-.094 0-.131.012-.105.038.045.051.176.075.387.075.212 0 .353-.025.423-.075zm-31.448-7.668c0-2.353.965-4.517 2.895-6.491.471-.481 1-.835 1.588-1.063l3.247-1.367c1.318-.531 2.447-.797 3.388-.797.376 0 .894.089 1.553.266.659.152 1.165.228 1.518.228h.105c.683-.81 1.224-1.354 1.624-1.632a3.43 3.43 0 0 1 2.117-.721c1.2 0 2.212.366 3.035 1.1.447-.177.823-.266 1.129-.266.917 0 1.964.708 3.142 2.125h.07v.038l.035-.038h.035l.459-.493c.047-.051.164-.189.352-.417l1.588-1.937 2.648-2.847c.047-.05.152-.151.318-.303.609-.506 1.08-.937 1.41-1.291.117-.127.342-.304.672-.532.328-.253.564-.456.705-.608.281-.151.4-.228.352-.228.707-.43 1.096-.646 1.166-.646h.281c0 .405-.07.76-.211 1.063-.141.303-.281.62-.424.949h.318c.164 0 .328.012.494.038.422.101.693.253.811.456a18.08 18.08 0 0 1-.811.797c-.377.354-.648.62-.812.797-.07.152-.188.316-.354.494a70.565 70.565 0 0 1-1.164 1.746c-.4.683-.623 1.341-.67 1.974l-7.129 14.006h.318c1.15 0 2.428-.644 3.83-1.933l.301-.382 3.141-3.948a2.45 2.45 0 0 0 .213-.304c.422-.658.811-1.227 1.164-1.708.188-.354.295-.582.318-.683h-1.166l.035-.266c0-.152.035-.228.105-.228h1.377l1.836-3.264c.377-.203.693-.292.953-.266.117 0 .305-.013.564-.038h.564v.19a7.59 7.59 0 0 0-.318.532 36.933 36.933 0 0 0-.953 1.632c-.305.481-.459.785-.459.912 0 .202.084.303.248.303h3.316c.072 0 .119.076.143.228l.035.266h-3.848l-.141.228-.211.342a15.16 15.16 0 0 1-.354.683c-.752 1.341-1.211 2.189-1.377 2.543l-.281.607c-.143.329-.236.544-.283.646l-3.105 5.2c-.164.278-.248.531-.248.759 0 .405.225.607.672.607s.883-.151 1.305-.456c.541-.354 1.107-.885 1.695-1.594.518-.607 1.023-1.214 1.518-1.822.164-.202.328-.303.494-.303 0 .253-.131.557-.389.911l-.318.417a1.381 1.381 0 0 0-.246.494l-.602.531c-.211.177-.527.456-.951.835-.424.355-.73.62-.918.797l-.635.532c-.588.505-1.225.758-1.906.758-1.035 0-1.553-.569-1.553-1.708 0-.607.105-1.214.316-1.821.236-.759.637-1.607 1.201-2.543l1.482-2.354c-.33.355-.602.671-.812.95a70.917 70.917 0 0 1-1.264 1.583.607.607 0 0 1-.115.163 7.723 7.723 0 0 1-.338.379c-.178.209-.336.386-.471.532l-.213.228h-.141c-1.041.782-2.26 1.263-3.672 1.442l-.107.152-.564 1.859a6.574 6.574 0 0 0-.6.229c-.281.101-.506.151-.67.151-.07 0-.105-.013-.105-.038-.33 0-.494-.038-.494-.113v-.114l-.459-.266.953-1.973a38.429 38.429 0 0 1-2.224-.608c-.07-.076-.177-.114-.318-.114a47.205 47.205 0 0 1-1.623-.759h-.106a.544.544 0 0 0-.353.114 83.205 83.205 0 0 1-2.259 1.747c-2.165 1.568-4.553 2.354-7.165 2.354-2.541 0-4.646-.583-6.317-1.747-1.948-1.366-2.925-3.327-2.925-5.883zM86.09 88.25c-.047 0-.071.038-.071.114 0 .075.024.114.071.114.047 0 .07-.039.07-.114.001-.076-.023-.114-.07-.114zm-8.894-7.06c0 1.847.659 3.492 1.977 4.934 1.341 1.417 2.87 2.126 4.587 2.126 1.388 0 2.882-.481 4.482-1.442a14.5 14.5 0 0 0 3.706-3.151l-1.589-1.86a.262.262 0 0 0-.105-.038c-.094 0-.446.19-1.059.569l-.706.418a3.008 3.008 0 0 1-.564.303c-.142.025-.706.152-1.694.379-.659.177-1.2.38-1.624.607-1.012.583-2.012.873-3 .873-.071 0-.177.013-.317.039-.141 0-.283-.013-.424-.039-.353-.05-.529-.164-.529-.341v-.037c0-.025.036-.076.106-.152 1.812.126 3.199-.203 4.164-.987-.636-.253-1.106-.417-1.411-.494-1.601-.885-2.4-2.151-2.4-3.796 0-.961.271-1.809.812-2.543.565-.733 1.294-1.101 2.188-1.101.541 0 1 .178 1.376.531.377.329.564.772.564 1.329 0 .759-.506 1.341-1.517 1.746-.988.405-1.482.936-1.482 1.594 0 .582.294 1.076.882 1.48a2.728 2.728 0 0 0 1.624.532c.471 0 .882-.494 1.235-1.48.282-.81.424-1.544.424-2.202 0-2.683-1.447-4.023-4.341-4.023-1.106 0-1.977.177-2.612.531-.776.431-1.435 1.24-1.976 2.43-.517 1.164-.777 2.253-.777 3.265zm15.247 2.847c-2.188 2.05-4.188 3.455-6 4.213h.212c1.106 0 2.294-.379 3.564-1.139a10.466 10.466 0 0 0 2.894-2.468c0-.024-.012-.05-.035-.076l-.07-.038a5.855 5.855 0 0 0-.565-.492zm.917.835c-1.718 1.468-3.224 2.543-4.518 3.226h.07c.495 0 1.283-.43 2.365-1.291.918-.708 1.612-1.353 2.083-1.935zm-15.352 2.354a.152.152 0 0 0 .038-.005.538.538 0 0 0-.002.042c0 .076.035.114.106.114.047 0 .071-.038.071-.114s-.023-.126-.071-.151a.105.105 0 0 0-.036.005c0-.081-.035-.119-.105-.119-.047 0-.07.038-.07.114-.001.075.022.114.069.114zm-2.4-4.062c0 .986.306 1.809.917 2.467l.354.38c.329.379.588.658.776.835l.142.152h.105c-1.247-1.468-2.011-2.834-2.294-4.1v.266zm18.563 1.48c.141.305.73.607 1.765.911.965.304 1.636.456 2.013.456h.176c.094 0 .152-.038.176-.114.117-.455.199-.797.248-1.024.141-.633.211-.962.211-.987v-.493c-1.012-.431-1.74-.797-2.188-1.101l-.212-.114-2.189 2.466zm-.352-.379c-.07 0-.106.05-.106.151 0 .076.036.114.106.114.047 0 .07-.038.07-.114 0-.076-.023-.126-.07-.151zm-1.059-.684c0 .127.082.253.247.38.188.126.341.189.459.189.117 0 .27-.114.458-.341l.353-.532-.353.266c.776-1.215 1.164-2.05 1.164-2.505v-.228c-.564.607-.87.949-.917 1.024a24.69 24.69 0 0 1-1.411 1.708v.039zm-1.941-2.353c0 .152.06.316.177.494.494.684.894 1.164 1.2 1.443h.106a.452.452 0 0 0 .212-.039c.211-.303.412-.556.6-.759l1.377-1.708a1.17 1.17 0 0 0 .105-.152c.071-.101.118-.165.141-.19v-.077c0-.354-.118-.783-.353-1.29-.236-.531-.354-.987-.354-1.366v-.266l.354 1.139v-.38c0-.075-.024-.202-.071-.38a3.384 3.384 0 0 1-.035-.379v-.835a15.506 15.506 0 0 1-.035-.835c0-.177.012-.456.035-.834v-.835c-.118.278-.2.481-.247.607v-.228c0-.987.388-1.898 1.165-2.732-.424-.253-.964-.38-1.623-.38-1.083 0-2.117.583-3.105 1.747-.071.076-.106.202-.106.379v.114c.683.658 1.141 1.214 1.376 1.669.306.582.459 1.303.459 2.164 0 1.062-.235 2.011-.706 2.847 0 .025-.118.189-.354.493-.212.303-.318.493-.318.569zm9.318-4.631l-.354.418c-.213.228-.318.379-.318.455v5.694c.023-.102.084-.266.176-.494.33-.886.578-1.556.742-2.012.07-.152.105-.354.105-.607.023.025.049.038.07.038.049 0 .084-.025.107-.076.117-.379.176-.721.176-1.025v-.417c-.141.481-.223.848-.246 1.101-.142-1.646-.294-2.67-.458-3.075zm-13.342 6.301c-.07 0-.105.051-.105.152 0 .076.035.114.105.114.048 0 .071-.039.071-.114s-.023-.127-.071-.152zm1.942-.607l-1.482.607h.106c.682 0 1.14-.203 1.376-.607zm-1.376-3.379c0 1.316-.389 2.568-1.165 3.758h.424c.988 0 1.882-.544 2.682-1.632.165-.228.247-.392.247-.493v-.114c0-.076-.083-.253-.247-.532-.141-.303-.212-.493-.212-.569-.4-1.139-.6-2.302-.6-3.492 0-.228.024-.557.07-.987.047-.43.071-.759.071-.987 0-.303-.518-.557-1.552-.759-.753-.151-1.389-.228-1.906-.228h-.706c-.259 0-.518.013-.776.038-.682.051-1.153.202-1.412.456 1.576.329 2.788.885 3.635 1.67.964.911 1.447 2.201 1.447 3.871zm1.623 3.112c-.071 0-.106.052-.106.152 0 .076.035.114.106.114.047 0 .07-.038.07-.114.001-.075-.023-.126-.07-.152zm7.94-.72c.047.127.166.253.353.38.447.329 1 .493 1.658.493h.072c.07-.304.105-.607.105-.911v-2.012c0-.329-.035-.683-.105-1.063l-.248.266-1.835 2.847zm1.625-4.973c-.072.076-.119.114-.143.114a12.54 12.54 0 0 1-.529.721 200.251 200.251 0 0 1-1.764 2.277c-.165.203-.247.367-.247.494v.114c.447-.405.977-1 1.587-1.785.73-.961 1.096-1.581 1.096-1.859v-.076zm-8.894-.038c0 1.696.153 2.821.458 3.378.118-.228.235-.518.353-.873v-1.101c0-1.29-.235-2.239-.706-2.847l-.105.38v1.063zm5.081 0c0 .43.071.974.212 1.632.165.784.365 1.252.6 1.404.024-.05.083-.126.177-.228l.141-.152c.094-.101.259-.303.494-.607l1.941-2.505v-.227c0-.38-.223-.924-.67-1.632-.518-.759-.907-1.139-1.166-1.139-.353 0-.635.126-.847.379-.587.709-.882 1.734-.882 3.075zm-.246 2.278c-.047-.025-.071 0-.071.076 0 .05.024.063.071.038.047 0 .07-.013.07-.038 0-.051-.023-.076-.07-.076zm6.811-3.53c0 .329.047.759.141 1.29.117.658.188 1.076.213 1.253 2.047-4.277 4.117-7.833 6.211-10.666-.023 0-.047-.013-.07-.038h-.105c-.236 0-.33.139-.283.417a7.216 7.216 0 0 0-1.871 1.404c-1.223 1.214-2.635 3.264-4.234 6.149v.191h-.002zm-3.918-2.316c.801 1.341 1.26 2.138 1.377 2.392.234-.152.354-.342.354-.569 0-.329-.189-.708-.564-1.139-.377-.456-.73-.684-1.061-.684h-.106zm-2.999.873c-.047 0-.071.026-.071.077 0 .05.024.075.071.075.047-.025.071-.051.071-.075 0-.026-.024-.051-.071-.077zm-11.187-.873c-.495 0-1.142.253-1.941.76h.035c.612 0 1.294-.253 2.047-.76h-.141zm25.832-6.035c-.988 1.442-1.682 2.669-2.082 3.682.188-.178.424-.481.705-.911.307-.455.566-.772.777-.948h.141l1.377-1.595v-.114c0-.101-.236-.152-.707-.152h-.105c-.047 0-.082.013-.106.038zm-4.623 2.695c-.047 0-.07.05-.07.152 0 .076.023.114.07.114s.07-.039.07-.114c.001-.076-.023-.127-.07-.152zm1.619-1.591c-.07.076-.174.162-.312.262a1.361 1.361 0 0 0-.283.228l-.035.038a.17.17 0 0 1-.047.066 1.13 1.13 0 0 0 .4-.294l.277-.3zm3.393-3.002c-.119 0-.295.063-.529.19a8.454 8.454 0 0 0-1.73 1.442l1.412-.494.176-.19a4.01 4.01 0 0 0 .354-.455c.166-.202.295-.355.389-.456 0-.025-.012-.038-.035-.038h-.037v.001zM78.114 87.116c-.001.058-.024.093-.068.104.007-.056.03-.091.068-.104zm15.811-10.519c.047.051.071.14.071.266 0 .101-.023.177-.071.228-.047.05-.071-.025-.071-.228 0-.228.023-.317.071-.266zm0-1.746c.047.051.071.152.071.304s-.023.253-.071.304-.071-.038-.071-.266c0-.279.023-.393.071-.342zM17.542 117.252h4.185v-.525c-.904-.189-1.367-.547-1.367-1.094 0-.21.105-.631.315-1.199l.904-2.396h4.626l1.115 2.859c.126.315.168.61.168.862 0 .589-.421.841-1.388.968v.525h5.235v-.525c-1.114-.085-1.661-.694-2.166-1.977l-4.206-10.872-.399-.146-1.262 1.851a6.097 6.097 0 0 1-.357 1.346l-2.881 7.254c-.631 1.599-1.24 2.418-2.523 2.545v.524h.001zm4.269-5.846l2.124-5.425 2.082 5.425h-4.206zM41.775 115.695l.294-2.271h-.484c-.946 2.271-2.481 3.406-4.563 3.406-3.091 0-5.152-2.376-5.152-6.287 0-4.059 1.767-6.287 4.815-6.287 2.271 0 3.911 1.304 4.521 3.638l.317.106.273-2.671c-1.346-1.072-2.986-1.619-4.92-1.619-1.724 0-3.217.484-4.269 1.262-1.956 1.451-2.881 3.28-2.881 5.678 0 4.037 2.818 6.708 7.087 6.708 1.85-.001 3.596-.589 4.962-1.663zM54.354 115.695l.294-2.271h-.483c-.947 2.271-2.481 3.406-4.563 3.406-3.091 0-5.151-2.376-5.151-6.287 0-4.059 1.766-6.287 4.815-6.287 2.271 0 3.911 1.304 4.521 3.638l.315.106.273-2.671c-1.346-1.072-2.986-1.619-4.92-1.619-1.724 0-3.217.484-4.269 1.262-1.956 1.451-2.881 3.28-2.881 5.678 0 4.037 2.817 6.708 7.086 6.708 1.851-.001 3.596-.589 4.963-1.663z"/><path d="M54.631 117.252h11.355l.673-3.175-.441-.043c-1.009 2.062-1.788 2.629-3.617 2.629h-2.565c-1.535 0-1.598-.294-1.598-1.367v-4.037c0-.567.21-.757.736-.757h1.746c1.241 0 1.766.589 1.892 2.04h.526v-4.563h-.526c-.189 1.346-.694 1.893-1.892 1.893h-1.746c-.525 0-.736-.189-.736-.757v-3.344c0-1.072.063-1.366 1.598-1.366h1.829c1.283 0 2.187.609 3.007 1.955l.463-.042-.463-2.502h-10.24v.547c1.851.062 1.956.547 1.956 2.207v7.928c0 1.661-.105 2.166-1.956 2.229v.525h-.001zM66.716 113.341l.462 3.448c1.136.399 2.292.589 3.47.589 3.049 0 4.941-1.619 4.941-3.932 0-.968-.336-1.788-.988-2.397-.841-.799-1.85-1.136-2.817-1.577-2.019-.926-3.07-1.725-3.07-3.028 0-1.24 1.052-2.165 2.649-2.165 1.514 0 2.355.883 2.986 2.901l.358-.042-.021-2.943a8.739 8.739 0 0 0-2.902-.484c-2.923 0-4.605 1.388-4.605 3.533 0 1.745 1.094 2.586 3.322 3.638.989.462 1.977.777 2.755 1.577a2.54 2.54 0 0 1 .715 1.808c0 1.515-1.073 2.545-2.818 2.545-1.809 0-3.175-1.178-3.996-3.512l-.441.041zM76.264 113.341l.463 3.448c1.135.399 2.292.589 3.469.589 3.049 0 4.941-1.619 4.941-3.932 0-.968-.336-1.788-.988-2.397-.841-.799-1.85-1.136-2.817-1.577-2.019-.926-3.07-1.725-3.07-3.028 0-1.24 1.051-2.165 2.649-2.165 1.514 0 2.355.883 2.986 2.901l.358-.042-.021-2.943a8.739 8.739 0 0 0-2.902-.484c-2.923 0-4.605 1.388-4.605 3.533 0 1.745 1.093 2.586 3.322 3.638.988.462 1.976.777 2.754 1.577.462.483.715 1.094.715 1.808 0 1.515-1.072 2.545-2.817 2.545-1.809 0-3.176-1.178-3.996-3.512l-.441.041zM95.083 114.497v-8.453c0-1.198.315-1.492 1.808-1.492 2.125 0 3.154.651 3.511 2.438h.443v-3.638h-.422c-.566.609-1.346.652-2.439.652h-6.412c-1.388 0-2.292 0-2.944-.652h-.441l-.904 3.638h.462c.757-1.787 1.788-2.46 3.722-2.46 1.472 0 1.767.315 1.767 1.598v8.369c0 1.661-.105 2.166-1.956 2.229v.525h5.762v-.525c-1.852-.063-1.957-.568-1.957-2.229z"/><path d="M104.043 114.497v-3.616c.631 0 1.156-.021 1.619-.084.652 1.071 1.113 1.829 1.43 2.333l1.135 1.809c.547.862 1.031 1.661 1.684 2.313h2.67v-.525c-1.031 0-1.473-.547-2.039-1.431l-1.957-2.985c-.463-.715-.84-1.367-1.346-1.83 2.104-.525 3.154-1.598 3.154-3.195 0-2.188-1.85-3.47-5.361-3.47h-4.795v.547c1.852.062 1.955.547 1.955 2.207v7.928c0 1.661-.104 2.166-1.955 2.229v.525h5.762v-.525c-1.851-.064-1.956-.569-1.956-2.23zm0-4.121v-4.857c0-.988.252-1.24 1.387-1.24 1.809 0 3.092 1.346 3.092 3.175 0 2.124-1.324 2.923-4.248 2.923l-.231-.001z"/><path d="M109.357 117.252h4.184v-.525c-.902-.189-1.365-.547-1.365-1.094 0-.21.105-.631.314-1.199l.904-2.396h4.627l1.113 2.859c.127.315.17.61.17.862 0 .589-.422.841-1.389.968v.525h5.236v-.525c-1.115-.085-1.662-.694-2.166-1.977l-4.205-10.872-.4-.146-1.262 1.851a6.043 6.043 0 0 1-.357 1.346l-2.881 7.254c-.631 1.599-1.24 2.418-2.523 2.545v.524zm4.268-5.846l2.125-5.425 2.082 5.425h-4.207z"/><path d="M121.689 117.252h6.496c2.02 0 3.617-.273 5.131-1.282 1.871-1.262 2.84-2.986 2.84-5.068 0-4.163-3.365-7.086-8.643-7.086h-5.824v.547c1.85.062 1.955.547 1.955 2.207v7.928c0 1.661-.105 2.166-1.955 2.229v.525zm3.805-10.683c0-1.703.127-2.207 2.123-2.207 4.102 0 6.498 2.481 6.498 6.519 0 3.722-2.061 5.888-5.781 5.888-1.178 0-1.979-.105-2.377-.379-.463-.315-.463-.904-.463-1.893v-7.928z"/><path d="M135.965 117.252h5.762v-.525c-1.85-.063-1.955-.568-1.955-2.229v-7.928c0-1.66.105-2.145 1.955-2.207v-.547h-5.762v.547c1.852.062 1.955.547 1.955 2.207v7.928c0 1.661-.104 2.166-1.955 2.229v.525z"/><path d="M144.393 103.815h-3.365v.547c2.02.021 2.123.483 2.123 2.207v7.928c0 1.577-.062 2.103-1.701 2.229v.525h4.289v-.525c-1.852-.063-1.955-.568-1.955-2.229v-8.558l10.387 11.312h.463v-10.683c0-1.66.105-2.165 1.977-2.207v-.547h-4.562v.547c1.85.062 1.934.547 1.934 2.207v7.654l-9.59-10.407zM166.908 114.034v.526c0 1.619-.777 2.271-2.986 2.271-3.32 0-5.613-2.334-5.613-5.95 0-1.956.652-3.701 1.85-5.026.969-1.051 2.25-1.598 3.85-1.598 2.207 0 3.637 1.24 4.625 3.806l.336.063.021-2.818c-1.262-1.071-2.922-1.598-4.982-1.598-2.797 0-5.068 1.052-6.373 2.797a6.928 6.928 0 0 0-1.408 4.248c0 4.016 2.924 6.603 7.633 6.603 1.873 0 3.471-.442 4.754-1.325v-1.998c0-1.576.062-2.103 1.703-2.229v-.525h-5.363v.525c1.848.062 1.953.568 1.953 2.228zM169.41 103.913l-.039.588h.088c.033-.345.168-.5.453-.5h.066v1.407c0 .108-.061.169-.148.176l-.102.007v.088h.818v-.088l-.102-.007c-.088-.007-.148-.067-.148-.176v-1.407h.068c.283 0 .42.155.453.5h.08l-.033-.588h-1.454zm1.557 0v.088l.102.006c.088.008.154.068.154.177v1.225c0 .108-.061.169-.148.176l-.107.007v.088h.648v-.088l-.102-.007c-.088-.007-.154-.067-.154-.176v-1.306l.574 1.583h.047l.59-1.583v1.306c0 .108-.061.169-.148.176l-.104.007v.088h.779v-.088l-.096-.007c-.094-.007-.154-.067-.154-.176v-1.231c0-.108.061-.17.154-.176l.096-.007v-.081h-.574l-.488 1.319-.467-1.319h-.602v-.001z"/><path fill="#b1b2af" d="M8.504 119.131h136.234v.304H8.504v-.304zM13.031 124.908h-.772v-3.938h.772v3.938zM24.273 121.678h-.778v3.23h-.773v-3.23h-.767v-.708h2.318v.708zM36.434 124.908h-.852l-.451-1.017h-1.484l-.462 1.017h-.852l1.738-3.938h.603l1.76 3.938zm-1.613-1.724l-.446-1.197-.445 1.197h.891zM47.371 124.908h-2.047v-3.938h.772v3.23h1.275v.708zM58.697 120.97l-1.376 2.485v1.453h-.773v-1.453l-1.371-2.485h.852l.908 1.815.908-1.815h.852z"/><path d="M151.613 117.356c-.334-.503-.934-.75-1.533-.75-.203 0-.424.027-.617.071-.836.176-1.576.731-2.061 1.428-.574.802-.883 1.586-.883 2.582 0 1.507.988 2.546 2.521 2.546.51 0 1.27-.132 1.674-.449.484-.379.793-.898 1.021-1.454l-.344-.149c-.053.123-.105.247-.166.361-.379.767-1.076 1.304-1.957 1.304-.457 0-.961-.167-1.26-.528-.316-.388-.406-.863-.406-1.357 0-.281.035-.581.09-.854.211-1.216.934-3.119 2.422-3.119 1.287 0 1.473 1.295 1.498 2.3h.344l.494-2.467h-.309l-.528.535zM152.57 121.56c0 .414.096.837.359 1.163.336.414.74.511 1.252.511.643 0 1.199-.291 1.604-.774.406-.485.705-1.129.705-1.771 0-.414-.133-.829-.396-1.146-.326-.397-.705-.547-1.207-.547-.617 0-1.207.344-1.611.793-.46.502-.706 1.083-.706 1.771zm2.272-2.256c.67 0 .838.484.838 1.066 0 .784-.467 2.572-1.48 2.572-.643 0-.846-.405-.846-.986 0-.793.466-2.652 1.488-2.652zM157.062 123.102h.793c.043-.159.078-.309.113-.468.143-.607.361-1.26.645-1.814.256-.502.828-1.393 1.463-1.393.271 0 .369.177.369.424 0 .264-.098.599-.168.854l-.219.775-.238.758c-.098.29-.193.581-.301.863h.793c.072-.265.123-.538.203-.802.186-.591.344-1.181.645-1.719.236-.423.836-1.137 1.365-1.137.229 0 .379.159.379.379 0 .177-.088.414-.15.591l-.113.37-.301.873c-.07.202-.229.669-.229.88 0 .405.221.696.643.696.67 0 1.234-.774 1.551-1.286l-.246-.159c-.246.361-.502.723-.855.979a.368.368 0 0 1-.291.026c-.088-.035-.096-.079-.096-.167 0-.115.053-.265.088-.37l.07-.212.422-1.322c.098-.29.195-.572.195-.881 0-.476-.248-.846-.758-.846-.793 0-1.279.617-1.744 1.172.025-.15.043-.309.008-.458-.062-.467-.352-.714-.82-.714-.758 0-1.172.67-1.604 1.189l.266-1.189-1.551.105-.062.309h.141c.168 0 .326-.009.484.027a.245.245 0 0 1 .098.096c.115.15-.07.652-.123.82l-.865 2.751zM165.93 124.907l.062-.308-.09.009c-.141 0-.271 0-.412-.018-.027-.009-.062-.018-.09-.026-.018-.026-.043-.035-.061-.053-.062-.097 0-.273.025-.379l.467-1.569c.178.468.662.67 1.137.67.635 0 1.252-.396 1.613-.898.379-.537.635-1.233.635-1.895.008-.819-.432-1.445-1.26-1.445-.512 0-.961.309-1.297.679-.043.062-.096.114-.141.167l.168-.846-1.498.105-.061.309h.131c.344.018.652.009.572.459-.033.123-.053.237-.088.361l-1.137 3.947c-.018.088-.035.176-.078.256-.018.035-.045.061-.07.088-.15.097-.354.053-.529.079l-.062.308h2.064zm1.779-5.489c.477 0 .705.361.705.802 0 .282-.053.564-.131.838-.195.704-.574 1.779-1.455 1.779-.52 0-.766-.378-.766-.863 0-.414.229-1.154.414-1.524.239-.485.635-1.032 1.233-1.032zM170.615 121.947c0-.484.158-1.04.352-1.48.221-.511.592-1.013 1.189-1.013.477 0 .688.378.688.802 0 .493-.166 1.092-.352 1.551-.193.484-.52 1.039-1.102 1.03-.536 0-.775-.388-.775-.89zm2.459-2.061c-.088-.538-.564-.891-1.084-.891-1.314 0-2.168 1.675-2.168 2.829 0 .784.467 1.409 1.295 1.409.529 0 1.004-.255 1.312-.679.01.142.035.291.088.406a.585.585 0 0 0 .168.211c.062.044.203.062.354.062.598 0 1.021-.679 1.312-1.189l.07-.149-.256-.141c-.15.308-.537 1.057-.926 1.057-.018 0-.096-.026-.105-.044-.025-.026-.035-.07-.043-.105a1.571 1.571 0 0 1 .078-.573c.273-1.005.592-1.982.908-2.961h-.713l-.29.758zM175.291 122.229l-.123.388a12.32 12.32 0 0 1-.176.484h.801c.035-.123.055-.247.09-.37.193-.688.379-1.401.713-2.036.168-.316.389-.616.67-.854.256-.211.494-.387.758-.387.193 0 .369.097.387.229.027.221-.088.547-.148.74l-.441 1.339c-.088.247-.193.547-.193.819 0 .371.238.652.625.652.678 0 1.26-.774 1.578-1.295l-.248-.15c-.201.309-.703 1.022-1.074 1.022-.133 0-.186-.079-.186-.211 0-.168.141-.485.193-.652l.424-1.304c.098-.291.176-.485.176-.793 0-.512-.307-.855-.828-.855-.713 0-1.26.679-1.674 1.181l.256-1.181-1.533.105-.062.309.186.009c.133 0 .273-.018.396.036.105.018.15.132.15.229 0 .176-.098.449-.141.625l-.088.336-.488 1.585zM180.494 120.537c.062-.149.15-.3.213-.449.053-.088.096-.193.166-.273.045-.07.105-.141.193-.141.09 0 .143.062.178.141.396 1.066.59 2.194.801 3.305a5.126 5.126 0 0 1-.686.942c-.168.194-.547.529-.83.494-.096-.026-.105-.026-.141-.123.035-.106.035-.133.035-.212a.455.455 0 0 0-.131-.309.557.557 0 0 0-.15-.088.486.486 0 0 0-.449.088.587.587 0 0 0-.141.396c0 .291.412.599.748.599 1.021 0 1.561-.89 2.07-1.682.572-.882 1.076-1.833 1.543-2.776.15-.291.432-.872.309-1.198a.392.392 0 0 0-.354-.256.458.458 0 0 0-.309.124.414.414 0 0 0-.105.281c0 .114.018.229.027.335.025.317.053.512-.088.916-.195.529-.539 1.014-.775 1.525-.072-.273-.133-.547-.203-.82-.141-.616-.283-1.277-.52-1.867-.098-.247-.23-.494-.529-.494-.547 0-.969.987-1.137 1.419l.265.123z"/></g></svg>