<svg height="563" viewBox=".5 .318 180.675 40.497" width="2500" xmlns="http://www.w3.org/2000/svg"><g fill="#00529c"><path clip-rule="evenodd" d="m10.81 4.606 3.266 5.565h-6.533l3.096-5.679h.085zm4.601 7.781 2.812 4.714h7.327l-9.94-16.33h-6.079l-9.031 16.33h3.266l2.584-4.714zm-4.034 24.252-2.357-1.022 9.77-1.191c.17.283.341.539.54.795zm26.213 0 2.357-1.078-9.713-1.164c-.085.313-.341.568-.511.824zm-1.419.172-2.954.994-4.203-1.277-.37-.113c.142-.115.256-.229.37-.369.17-.143.312-.342.483-.484zm7.81-2.754-2.698 1.25-10.792-1.25.256-.768zm.965-.369 3.521-2.244h-19.084c0 .797-.114 1.479-.369 2.074-.739 1.902-2.584 2.811-4.431 2.781-1.817-.057-3.663-.992-4.487-2.727a5.004 5.004 0 0 1 -.454-2.129h-19.142l3.494 2.244 14.626-.766c.283 1.049.794 1.959 1.476 2.639 1.165 1.223 2.84 1.904 4.487 1.904 1.619.029 3.267-.566 4.431-1.875.625-.682 1.107-1.563 1.391-2.613zm-15.932 5.791.369.684-.369.172-.994.453-1.136-2.244a7.648 7.648 0 0 1 -2.301.426 7.27 7.27 0 0 1 -2.499-.342l-.966 2.16c-.313.027-.739 0-1.022-.197a.748.748 0 0 1 -.34-.428l.34-.568.824-1.479c-.256-.168-.483-.281-.71-.51l.682-.822c1.164.711 2.442 1.107 3.691 1.107 1.25.029 2.499-.371 3.664-1.193l.768.227.312.115c-.113.084-.199.17-.312.256-.228.225-.426.453-.795.652zm0-11.614c.738.881 1.277 1.961 1.562 3.209h-1.221a6.699 6.699 0 0 0 -.34-1.078c-.824-2.158-2.5-3.693-4.431-4.973-.255-.141-.482-.311-.738-.453.256.086.483.172.738.258 1.76.707 3.322 1.674 4.43 3.037zm-3.295 8.008a2.941 2.941 0 0 0 1.165-.51l-1.932-3.834 2.017-.967-1.704-1.477-.682.315-2.925 1.332.852 1.932 1.392-.623zm-5.282.541c-.114-.086-.228-.199-.341-.285a3.555 3.555 0 0 1 -.568-.596l-6.669 1.26 2.839.953zm-1.817-2.357c-.114-.254-.199-.51-.285-.768l-13.348.768 2.698 1.307z" fill-rule="evenodd"/><path d="m102.304 28.237-1.153 4.242c-.14.171-.361.313-.563.419-.307.167-.615.257-.9.257-.28 0-.53-.114-.647-.285-.082-.142-.165-.365-.053-.761l1.04-3.872h-1.068l-1.009 3.735c-.085.337-.225.926.082 1.376.171.255.536.536 1.29.536.312 0 .622-.054 1.019-.225.247-.147.527-.31.754-.482l-.167.595h.954l1.494-5.535zm6.839.641a1.967 1.967 0 0 0 -.621-.533c-.359-.193-.755-.225-1.098-.225-.364 0-.814.032-1.316.338-.367.256-.815.645-.98 1.294-.15.478-.09.84.082 1.067.193.256.53.39.816.476l.53.173c.279.058.562.058.73.276a.587.587 0 0 1 .114.536c-.085.253-.25.42-.394.535-.195.17-.535.314-1.01.314-.308 0-.563-.063-.815-.203-.222-.168-.393-.31-.48-.446l-.705.649c.509.667 1.132.756 1.745.756.42 0 1.265-.055 1.968-.59.391-.335.674-.762.789-1.126.056-.287.112-.701-.028-.96-.2-.39-.647-.556-.903-.617l-.392-.111c-.502-.113-.73-.17-.844-.311-.109-.08-.196-.25-.109-.587.051-.139.17-.367.388-.536.281-.17.54-.197.735-.197.251 0 .478.06.675.197.169.112.307.254.421.397zm5.764 0a1.52 1.52 0 0 0 -.616-.533c-.337-.193-.736-.225-1.07-.225-.387 0-.813.032-1.32.338-.368.256-.817.645-1.015 1.294-.104.478-.052.84.115 1.067.198.256.567.39.814.476l.504.173c.281.058.567.058.761.276.086.116.17.258.086.536-.086.253-.251.42-.367.535-.198.17-.531.314-1.011.314-.31 0-.56-.063-.843-.203a2.538 2.538 0 0 1 -.479-.446l-.703.649c.541.667 1.156.756 1.77.756.427 0 1.266-.055 1.97-.59.393-.335.675-.762.759-1.126.085-.287.11-.701-.028-.96-.169-.39-.62-.556-.898-.617l-.396-.111c-.481-.113-.7-.17-.817-.311-.108-.08-.192-.25-.108-.587.055-.139.138-.367.393-.536a1.27 1.27 0 0 1 .7-.197c.285 0 .507.06.705.197.17.112.307.254.421.397zm2.063-.641-.202.727h.647l-1.289 4.808h1.064l1.49-5.535zm.674-1.827c-.09.391.14.7.509.7.392 0 .752-.309.865-.7.11-.369-.113-.678-.507-.678-.358 0-.755.31-.867.678m9.764 7.361 1.181-4.357c.372-.31.932-.563 1.436-.563.365 0 .565.138.645.307.17.256.087.675.027.845l-1.01 3.768h1.07l1.01-3.682c.115-.453.166-.985-.084-1.434-.226-.364-.644-.535-1.238-.535-.36 0-.98.084-1.658.535l.114-.419h-1.719l-.193.728h.646l-1.29 4.807zm-35.154-7.981-2.164 7.982h1.207l.936-3.51h.81l1.124 3.51h1.458l-1.29-3.572c.592-.061 1.38-.338 1.854-.701.53-.395.932-.956 1.065-1.545.17-.567.09-1.153-.244-1.544-.453-.565-1.352-.62-2.001-.62h-.756zm1.999 3.564h-1.771l.705-2.64h1.602c.17 0 .7 0 .981.282.168.17.31.45.193.9-.11.421-.338.76-.67 1.04-.366.28-.76.395-1.04.418m27.952 1.186c-1.121.112-2.052.561-2.36 1.715-.028.135-.057.25-.057.362v.196c.029.62.449 1.07 1.378 1.07.334 0 .67-.054 1.04-.202.032 0 .057-.02.11-.05.367-.169.644-.452.733-.536h.056l-.195.676h.958l.982-3.57c.141-.565.278-1.126-.031-1.546-.256-.395-.898-.535-1.402-.535-.481 0-.901.058-1.212.14-.98.251-1.348.844-1.378 1.376l.987.058c.079-.28.197-.478.391-.62.227-.163.564-.223.985-.223.227 0 .504.027.617.224.172.198.114.48.061.734l-.201.701h-.786c-.228 0-.476 0-.676.03m0 2.526a1.43 1.43 0 0 1 -.507.089c-.222 0-.503-.026-.669-.256-.142-.198-.172-.395-.087-.675.056-.222.167-.449.447-.672.167-.115.395-.256.816-.308.14-.034.31-.06.509-.06h.789l-.313 1.177a2.219 2.219 0 0 1 -.537.51c-.164.09-.308.17-.448.195m25.67-4.829-.194.727h.647l-1.3 4.808h1.07l1.49-5.535zm.987-1.827c-.087.391.138.7.507.7.362 0 .756-.309.867-.7.115-.369-.11-.678-.505-.678-.362 0-.763.31-.869.678m3.088 1.827-1.487 5.535h1.07l.844-3.18c.138-.363.277-.728.476-1.008.337-.538.726-.62.955-.62.141 0 .309.026.421.14.079.085.113.25.113.45l.956-.28c.193-.56 0-.873-.334-1.037a1.313 1.313 0 0 0 -.567-.116c-.618 0-1.231.336-1.658.925l.222-.81zm5.908-2.559-1.769 6.578c-.136.504-.394 1.516.875 1.516h.616l.196-.73h-.305c-.535 0-.396-.453-.37-.562l1.828-6.802zm2.89 2.559-.188.727h.65l-1.33 4.808h1.097l1.492-5.535zm.987-1.827c-.087.391.142.7.507.7.396 0 .76-.309.87-.7.086-.369-.141-.678-.501-.678-.398 0-.762.31-.876.678m2.943 7.361 1.15-4.357c.392-.31.957-.563 1.46-.563.366 0 .567.138.648.307.196.256.058.675.029.845l-1.01 3.768h1.066l1.009-3.682c.114-.453.17-.985-.084-1.434-.218-.364-.647-.535-1.234-.535-.393 0-.958.084-1.658.535l.113-.419h-1.714l-.198.728h.643l-1.289 4.807zm16.497-4.893c-.22-.335-.5-.504-.59-.533-.366-.193-.724-.225-1.066-.225-.397 0-.816.032-1.318.338-.396.256-.845.645-1.012 1.294-.147.478-.058.84.107 1.067.17.256.537.39.79.476l.535.173c.277.058.565.058.724.276.12.116.174.258.12.536-.082.253-.25.42-.396.535-.171.17-.507.314-1.011.314-.316 0-.538-.063-.818-.203-.223-.168-.387-.31-.474-.446l-.704.649c.505.667 1.127.756 1.743.756.451 0 1.264-.055 1.967-.59.396-.335.67-.762.787-1.126.085-.287.116-.701-.022-.96-.174-.39-.654-.556-.902-.617l-.397-.111c-.472-.113-.702-.17-.842-.311-.087-.08-.195-.25-.113-.587.057-.139.135-.367.396-.536.275-.17.559-.197.73-.197.281 0 .474.06.698.197.143.112.281.254.396.397zm-42.784 4.893h1.207l1.21-1.94h3.062l.14 1.94h1.38l-.759-7.981h-.983zm2.98-2.868 2.163-3.399h.024l.259 3.4zm30.398.341h3.34l.086-.367c.224-.738.446-1.49.058-2.109-.34-.53-1.012-.647-1.494-.647-.71 0-1.393.253-1.937.73-.733.648-1.037 1.517-1.206 2.25-.169.59-.34 1.488.11 2.137.421.558 1.184.647 1.714.647.432 0 .83-.062 1.24-.203a5.19 5.19 0 0 0 .755-.335l-.163-.647a3.503 3.503 0 0 1 -.735.26c-.264.046-.51.105-.79.105-.418 0-.785-.14-.978-.389-.31-.367-.17-.932-.084-1.207zm.165-.734.057-.248c.116-.287.252-.736.616-1.046.236-.233.601-.364.93-.364.282 0 .56.084.704.253.25.34.136.816.03 1.181l-.06.224zm-128.804-13.374v-2.485h-9.806v-4.681h8.817v-2.46h-8.817v-4.257h9.292v-2.458h-15.824v16.341zm9.56 0v-13.883h3.84c1.169 0 2.25.088 3.235.747.717.508 1.166 1.235 1.166 2.136 0 .751-.265 1.527-1.254 2.153-1.292.84-3.535.956-4.948.784l-.805-.095 6.506 8.158h7.55l-6.176-6.81c1.107-.122 2.883-.56 3.958-1.253 1.287-.873 1.948-2.16 1.948-3.365 0-1.345-.726-2.811-2.367-3.774-1.95-1.108-4.617-1.139-7.077-1.139h-12.138v16.341zm52.76 0v-6.897h8.815v-2.46h-8.815v-4.526h9.534v-2.458h-16.062v16.341zm18.47-16.341h-6.568v16.34h16.194v-2.485h-9.627zm36.604 2.459h7.045v13.883h6.566v-13.883h7.04v-2.46h-20.65zm-13.907-2.936c-3.058 0-7.347.691-10.225 2.753-2.283 1.62-3.358 3.935-3.358 5.906 0 1.953 1.075 4.263 3.358 5.88 2.878 2.035 7.167 2.728 10.225 2.728 3.055 0 7.37-.693 10.246-2.727 2.28-1.618 3.332-3.928 3.332-5.88 0-1.972-1.051-4.287-3.332-5.907-2.876-2.062-7.19-2.725-10.246-2.753m0 15.289c-1.622 0-3.542-.36-4.952-2.131-1.168-1.436-1.378-3.09-1.378-4.499 0-1.466.21-3.088 1.378-4.526 1.41-1.8 3.33-2.157 4.952-2.157 1.643 0 3.539.356 4.97 2.157 1.171 1.438 1.383 3.06 1.383 4.526 0 1.408-.212 3.063-1.382 4.499-1.432 1.77-3.328 2.131-4.971 2.131m-63.542-15.289c-3.055 0-7.342.691-10.218 2.753-2.285 1.62-3.365 3.935-3.365 5.906 0 1.953 1.08 4.263 3.365 5.88 2.876 2.035 7.163 2.728 10.218 2.728 3.054 0 7.375-.693 10.255-2.727 2.276-1.618 3.328-3.928 3.328-5.88 0-1.972-1.052-4.287-3.328-5.907-2.88-2.061-7.2-2.725-10.255-2.753m0 15.289c-1.62 0-3.54-.36-4.945-2.131-1.168-1.436-1.382-3.09-1.382-4.499 0-1.466.214-3.088 1.382-4.526 1.406-1.8 3.326-2.157 4.945-2.157 1.644 0 3.54.356 4.976 2.157 1.17 1.438 1.38 3.06 1.38 4.526 0 1.408-.21 3.063-1.38 4.499-1.436 1.77-3.332 2.131-4.976 2.131m-79.308 1.529 2.579-4.746h9.087l2.785 4.746h7.342l-9.948-16.34h-6.088l-9.024 16.339zm3.777-6.958 3.088-5.694h.093l3.354 5.694z"/></g></svg>