<svg xmlns="http://www.w3.org/2000/svg" width="2500" height="2500" viewBox="0 0 192.756 192.756"><path fill-rule="evenodd" clip-rule="evenodd" fill="#fff" d="M0 0h192.756v192.756H0V0z"/><path fill-rule="evenodd" clip-rule="evenodd" fill="#2e388b" d="M8.721 58.853h49.946v79.973H8.721V58.853zM77.469 45.811l-4.647 11.327h2.71l1.065-2.71h3.485l.872 2.71h3.582l-4.259-11.327h-2.808zm-.29 6.874c.387-1.355.774-2.42 1.258-4.066a80.737 80.737 0 0 0 1.065 4.066h-2.323zM88.796 49.103h-3.195v8.035h3.292v-4.744c0-1.065.29-1.549 1.161-1.549.678 0 .969.678.969 1.162v5.131h3.292v-4.744c0-1.065.29-1.549 1.162-1.549.581 0 .968.581.968 1.162v5.131h3.195V51.91c.098-2.033-.969-3.098-3.001-3.001-1.258 0-2.227.484-2.71 1.065-.484-.871-1.452-1.065-2.227-1.065-1.258 0-2.42.388-2.807 1.065h-.097v-.871h-.002zM109.416 53.459c.291-2.808-1.16-4.55-3.775-4.55-3.098 0-4.549 2.033-4.549 4.066 0 2.323 2.033 4.356 4.355 4.356 1.064 0 2.42-.097 3.969-.872l-.871-1.646c-.58.291-1.258.581-2.129.581-.969 0-1.936-.581-1.936-1.936h4.936v.001zm-4.84-1.355c-.096-1.258.291-1.936.969-1.936.773 0 1.258.581 1.162 1.936h-2.131zM114.064 49.103h-3.293v8.035h3.293v-3.485c0-1.646.871-1.937 1.645-1.937.484 0 .678.097.871.097l.969-2.323c-.387-.387-.871-.581-1.549-.581-1.162 0-1.549 1.259-1.646 1.549l-.289.678v-2.033h-.001zM118.324 49.103v8.035h3.193v-8.035h-3.193zm1.549-.582c.871 0 1.742-.678 1.742-1.646 0-.968-.871-1.646-1.742-1.646s-1.646.774-1.646 1.646c0 .969.775 1.646 1.646 1.646zM129.553 55.008c-.289.097-.773.291-1.258.291-.773 0-1.936-.484-1.936-2.13 0-1.549.871-2.227 1.936-2.227.387 0 .871.097 1.355.291l.871-1.646c-.773-.484-1.84-.678-2.613-.678-2.711 0-4.938 1.646-4.938 4.356 0 2.42 2.033 4.066 4.744 4.066.871 0 1.742-.194 2.613-.581l-.774-1.742zM136.428 52.491c.096 2.227-.775 2.904-1.26 2.904a.869.869 0 0 1-.871-.871c0-.774.484-1.452 1.162-1.646l.969-.387zm-.098 3.776c0 .291 0 .678.098.871h3.389c-.195-.581-.291-1.258-.291-1.936v-3.001c0-2.711-1.936-3.292-3.873-3.292-1.064 0-2.227.194-3.582 1.065l.871 1.453c.582-.484 1.26-.872 2.131-.872.58 0 1.162.387 1.355.774l-1.84.484c-2.227.581-3.195 1.355-3.195 3.098 0 1.452 1.162 2.42 2.324 2.42.773 0 1.549-.484 2.129-.872l.484-.192zM142.527 49.974l1.645-2.808c.775-1.355.193-1.936-.387-1.936-.871 0-1.258.678-1.549 1.646l-.775 2.71 1.066.388zM151.336 49.393a7.926 7.926 0 0 0-2.711-.484c-1.936 0-3.098 1.162-3.098 2.42 0 .872.387 1.549 1.355 2.13.775.581 1.549.968 1.549 1.452s-.291.677-.773.677c-.582 0-1.26-.387-1.744-.677l-.678 1.646c.873.581 2.033.774 3.002.774 2.227 0 3.389-1.646 3.389-2.42 0-.194.193-1.258-1.162-2.227-.871-.581-1.646-.968-1.646-1.549 0-.387.098-.581.582-.581.289 0 .678.097 1.258.291l.677-1.452zM80.567 65.173h-6.874V76.5h3.389v-4.26h3.388v-2.129h-3.388v-2.808h3.485v-2.13zM86.182 76.694c2.808 0 4.647-1.839 4.647-4.356 0-2.614-2.227-4.066-4.647-4.066-2.323 0-4.647 1.452-4.647 4.066 0 2.516 1.936 4.356 4.647 4.356zm0-7.068c1.065 0 1.355 1.549 1.355 2.711 0 1.258-.291 2.904-1.355 2.904s-1.355-1.646-1.355-2.904c0-1.162.29-2.711 1.355-2.711zM95.573 68.465h-3.292V76.5h3.292v-3.485c0-1.646.871-1.937 1.548-1.937.582 0 .775.097.969.097l.969-2.323c-.389-.387-.871-.581-1.549-.581-1.163 0-1.549 1.259-1.743 1.549l-.194.678v-2.033zM107.578 72.821c.289-2.808-1.162-4.55-3.777-4.55-3 0-4.549 2.033-4.549 4.066 0 2.323 2.129 4.356 4.453 4.356.969 0 2.324-.097 3.873-.872l-.871-1.646c-.582.291-1.26.581-2.131.581-.969 0-1.936-.581-1.936-1.936h4.938v.001zm-4.842-1.355c-.096-1.258.291-1.936.969-1.936.775 0 1.258.581 1.162 1.936h-2.131zM114.645 68.755a7.512 7.512 0 0 0-2.711-.484c-1.84 0-3 1.162-3 2.42 0 .872.387 1.549 1.258 2.13.775.581 1.549.968 1.549 1.452s-.291.677-.773.677c-.484 0-1.26-.387-1.744-.677l-.678 1.646c.871.581 2.131.774 3.098.774 2.229 0 3.293-1.646 3.293-2.42 0-.194.193-1.258-1.064-2.227-.969-.581-1.744-.968-1.744-1.549 0-.387.193-.581.678-.581.195 0 .678.097 1.162.291l.676-1.452zM122.195 74.757c-.289.097-.58.193-.871.193-.484 0-1.162-.387-1.162-1.936v-3.098h2.131v-1.452h-2.131v-2.42l-3.193.484v1.937h-1.162v1.452h1.162v4.163c0 1.646.773 2.614 2.807 2.614.871 0 1.936-.194 2.809-.484l-.39-1.453zM135.363 73.983c-.484.484-1.066.581-1.551.581-.676 0-1.549-.484-1.549-1.452 0-.872.195-1.259.484-1.549l2.616 2.42zm5.42-5.809h-5.033l-.678 1.355h1.451c.678.968.484 1.839.389 2.42l-2.615-2.42c-.967-.968-1.355-1.259-1.355-1.839 0-.291.291-.581.582-.581.387 0 .773.193 1.162.484l.871-1.839a4.662 4.662 0 0 0-2.615-.774c-1.838 0-3.098 1.162-3.098 2.614 0 1.065.678 1.84 1.066 2.324-.969.484-1.84 1.549-1.84 3.098 0 1.452 1.064 3.679 4.26 3.679 1.838 0 2.807-.678 3.582-1.355l1.451 1.355 2.131-1.452-2.033-1.839c.58-.968.871-2.808.387-3.873h1.258l.677-1.357zM77.663 89.86v1.937h.581c2.904 0 4.647-2.033 4.647-3.969 0-2.227-1.743-3.292-4.55-3.292h-4.647v11.327h3.389v-9.197h.968c.774 0 1.549.291 1.549 1.356 0 1.258-1.065 1.646-1.549 1.742l-.388.096zM88.796 91.215c.097 2.227-.678 2.904-1.259 2.904a.867.867 0 0 1-.871-.871c0-.774.484-1.452 1.161-1.646l.969-.387zm-.097 3.776c0 .29.097.678.097.871h3.388a6.229 6.229 0 0 1-.291-1.936v-3.001c0-2.711-1.936-3.292-3.873-3.292-1.065 0-2.227.194-3.582 1.065l.871 1.452c.581-.484 1.258-.871 2.13-.871.581 0 1.161.387 1.355.774l-1.84.484c-2.227.581-3.195 1.355-3.195 3.098 0 1.453 1.259 2.421 2.324 2.421.774 0 1.549-.485 2.13-.872l.486-.193zM98.283 89.279c.775 0 1.26.968 1.26 2.517s-.484 2.614-1.355 2.614-1.259-1.258-1.259-2.517c-.001-1.549.387-2.614 1.354-2.614zm-1.355-1.452h-3.195v12.101h3.195v-4.937c.582.581 1.355 1.065 2.226 1.065 2.615 0 3.873-2.324 3.873-4.26 0-3.001-1.742-4.163-3.582-4.163-1.064 0-1.936.484-2.517 1.065v-.871zM112.225 92.183c.291-2.807-1.162-4.55-3.775-4.55-3.002 0-4.551 2.033-4.551 4.066 0 2.323 2.131 4.357 4.453 4.357.969 0 2.324-.098 3.873-.872l-.871-1.646c-.582.29-1.26.581-2.131.581-.967 0-1.936-.581-1.936-1.937h4.938v.001zm-4.84-1.355c-.098-1.258.289-1.936.967-1.936.775 0 1.26.581 1.162 1.936h-2.129zM116.871 87.827h-3.195v8.035h3.195v-3.485c0-1.646.871-1.937 1.646-1.937.484 0 .678.097.871.097l1.064-2.323c-.484-.387-.969-.581-1.646-.581-1.16 0-1.549 1.259-1.645 1.549l-.291.678v-2.033h.001zM77.663 110.287v2.033h.581c2.904 0 4.647-2.129 4.647-3.969 0-2.227-1.743-3.293-4.55-3.293h-4.647v11.328h3.389v-9.197h.968c.774 0 1.549.291 1.549 1.355 0 1.162-1.065 1.646-1.549 1.742h-.388v.001zM91.991 112.707c.291-2.807-1.162-4.646-3.775-4.646-3.098 0-4.55 2.131-4.55 4.066 0 2.42 2.033 4.453 4.356 4.453 1.065 0 2.42-.193 3.969-.871l-.871-1.646c-.581.291-1.259.582-2.13.582-.968 0-1.937-.582-1.937-1.938h4.938zm-4.841-1.355c-.097-1.355.291-1.936.968-1.936.774 0 1.258.58 1.161 1.936H87.15zM97.605 116.58c2.711 0 4.646-1.84 4.646-4.357 0-2.613-2.322-4.162-4.646-4.162-2.42 0-4.646 1.549-4.646 4.162 0 2.517 1.839 4.357 4.646 4.357zm0-7.066c.969 0 1.355 1.451 1.355 2.709 0 1.26-.291 2.904-1.355 2.904-1.162 0-1.355-1.645-1.355-2.904 0-1.258.291-2.709 1.355-2.709zM108.256 109.803c.773 0 1.258.969 1.258 2.518s-.484 2.613-1.355 2.613-1.258-1.258-1.258-2.613c-.001-1.452.484-2.518 1.355-2.518zm-1.356-1.549h-3.195v12.102h3.195v-4.938c.58.678 1.355 1.162 2.322 1.162 2.518 0 3.777-2.42 3.777-4.26 0-3.002-1.744-4.26-3.584-4.26-1.064 0-1.936.484-2.516 1.064v-.87h.001zM117.646 116.387v-11.908h-3.195v11.908h3.195zM127.424 112.707c.291-2.807-1.162-4.646-3.775-4.646-3.002 0-4.453 2.131-4.453 4.066 0 2.42 2.033 4.453 4.355 4.453.969 0 2.324-.193 3.873-.871l-.871-1.646a4.274 4.274 0 0 1-2.131.582c-.871 0-1.838-.582-1.838-1.938h4.84zm-4.84-1.355c-.098-1.355.387-1.936 1.064-1.936s1.162.58 1.064 1.936h-2.128zM131.393 106.414h.291c.193 0 .387 0 .387.389 0 .193-.096.387-.289.387h-.389v-.776zm0 1.453h.193l.582 1.451 1.451-.096-.871-1.549c.389-.193.678-.484.678-1.066 0-.58-.484-.967-1.451-.967h-1.938v3.582h1.355v-1.355h.001zm-3.194-.291c0 1.84 1.549 3.389 3.484 3.389 1.84 0 3.389-1.549 3.389-3.389 0-1.838-1.549-3.389-3.389-3.389-1.935.001-3.484 1.551-3.484 3.389zm.774 0a2.707 2.707 0 0 1 2.711-2.711c1.453 0 2.613 1.26 2.613 2.711 0 1.453-1.16 2.711-2.613 2.711a2.706 2.706 0 0 1-2.711-2.711zM76.114 125.971c.193-.773.581-.773.968-.773v-.195h-2.808v.195c.291 0 .871.096.678.678l-1.646 6.098c-.193.775-.581.775-.871.775v.193h2.71v-.193c-.291 0-.871-.098-.678-.678l1.647-6.1zM80.664 132.941l.291-1.064c.387-1.26 1.936-3.68 2.807-3.68.291 0 .387.193.194.678l-.872 3.195c-.29.967.387 1.162.775.967.581-.193.871-.678 1.162-1.064.194-.291.194-.484 0-.291-.097.098-.387.678-.774.775-.484.193-.291-.484-.194-.775.774-2.516.871-3.193.871-3.291 0-.58-.387-.773-.677-.773-.484 0-1.162.096-2.614 2.322.097-.58.291-1.258.291-1.549 0-.58-.387-.773-.678-.773-.484 0-1.259.096-2.614 2.322l.484-1.742c.097-.193.097-.387.097-.58l-1.742.289v.195c.581 0 .774 0 .581.58l-1.162 4.26h.871l.291-1.064c.387-1.26 1.936-3.68 2.807-3.68.291 0 .387.193.194.678l-1.259 4.066h.87v-.001zM86.667 132.844c.193.389.774.291 1.258.193 1.258-.193 2.614-1.355 3.098-3.193.193-.582.097-1.453-.387-1.938-.388-.387-1.162-.289-1.356-.289-.774.193-1.258.871-1.549 1.162l.097-.582c.097-.193.097-.387.097-.58l-1.743.289v.195c.581 0 .774 0 .678.58l-1.646 6.195c0 .389-.484.389-.678.389v.193h2.42v-.193c-.387 0-.871.096-.678-.68l.389-1.741zm3.291-4.065c.193.387 0 1.549-.291 2.227-.581 1.16-1.259 1.742-2.033 1.936-.29 0-.968 0-.774-.775.193-.678.581-2.516.871-3 .291-.484.774-.969 1.355-.969s.775.193.872.581zM92.668 132.941c.678-1.936.871-3.098 2.033-4.357.193-.193.29-.289.484-.193.194.098.291.582.775.291.483-.291.29-.775.097-.969-.194-.193-.484-.193-.872 0-.387.389-1.162 1.355-1.743 2.324l.484-1.84c.097-.193.097-.387.097-.58l-1.743.289v.195c.678 0 .774 0 .678.58-.194 1.162-.774 2.904-1.162 4.26h.872zM101.381 129.359c0-.775-.58-1.742-1.645-1.742-2.324 0-3.679 2.711-3.679 3.871 0 .775.678 1.646 1.646 1.646 1.742.001 3.678-1.839 3.678-3.775zm-4.356 2.323c0-1.064 1.064-3.871 2.518-3.871.58 0 .871.484.871 1.162 0 1.451-.969 3.871-2.42 3.871-.389 0-.969-.289-.969-1.162zM103.801 133.135c1.162-1.258 2.422-3.002 2.906-3.969.193-.484.289-.678.096-1.162-.096-.387-.387-.387-.58-.387-.484.096-.484.484-.387.58l.387.484c.193.291.096.387 0 .678-.193.773-1.355 2.227-1.84 2.711 0-1.549-.291-3.486-.678-4.453l-1.646.289v.291c.389-.096.873-.193.969.291.291.967.58 3.291.484 4.646h.289v.001zM109.707 128.197c0-.193.098-.387.098-.58l-1.742.289v.195c.58 0 .773 0 .58.58l-.871 3.389c-.291.967.291 1.162.773.967.582-.193.871-.678 1.162-1.064.193-.291.193-.484 0-.291-.193.098-.387.678-.773.775-.582.193-.291-.484-.195-.775l.968-3.485zm-.484-2.613c0 .387.193.58.582.58.289 0 .58-.193.58-.58 0-.291-.291-.582-.58-.582-.389 0-.582.291-.582.582zM111.643 132.941l.291-1.064c.387-1.26 2.033-3.68 2.809-3.68.289 0 .387.193.289.678l-.871 3.195c-.289.967.291 1.162.678.967.678-.193.969-.678 1.26-1.064.193-.291.193-.484 0-.291-.193.098-.389.678-.775.775-.58.193-.291-.484-.193-.775.678-2.516.775-3 .775-3.291 0-.58-.389-.773-.678-.773-.484 0-1.162.096-2.711 2.516l.58-1.936c0-.193.098-.387.098-.58l-1.744.289v.195c.582 0 .775 0 .582.58l-1.26 4.26h.87v-.001zM122.195 128.102l-.773-.098c-.193-.098-.871-.58-1.742-.387-1.162.387-1.646.967-1.84 1.451-.484 1.355.678 1.84.967 2.033-.289.098-.676.387-.967.775-.098.289.096.58.291.678l-1.066.773c-.193.098-.678.775-.096 1.453.387.58.678.58 1.064.678 1.064.096 2.033 0 2.613-.484.484-.484.775-1.549.389-2.033-.389-.291-.969-.582-1.162-.678l-1.162-.387c-.387-.195.291-.678.387-.678.387 0 .678 0 1.162-.193 1.162-.389 1.646-1.453 1.451-2.422l.582-.096-.098-.385zm-2.42-.196c.678-.193.969.098 1.064.484.098.871-.289 1.938-.773 2.324s-1.162.291-1.355-.193c-.193-.677.193-2.419 1.064-2.615zm.291 5.422c.387.291.58.775.291 1.258-.582 1.066-2.033.68-2.227.582-.873-.387-.969-1.258-.678-1.742.289-.389.482-.484.871-.775.775.29 1.357.386 1.743.677zM127.037 125.002l-.484 1.84h.193c.58-1.064 1.258-1.451 1.549-1.451h1.355l-1.646 6.291c-.193.775-.289 1.066-1.355 1.066v.193h3.389v-.193c-.387 0-1.064-.098-.871-.775l1.646-6.582h1.064c1.162 0 .969 1.258.871 1.451h.193l.484-1.84h-6.388zM137.395 129.359c0-.775-.482-1.742-1.549-1.742-2.42 0-3.775 2.711-3.775 3.871 0 .775.678 1.646 1.742 1.646 1.646.001 3.582-1.839 3.582-3.775zm-4.356 2.323c0-1.064 1.064-3.871 2.518-3.871.58 0 .967.484.967 1.162 0 1.451-1.064 3.871-2.516 3.871-.389 0-.969-.289-.969-1.162zM141.752 132.941l.291-1.064c.387-1.26 1.936-3.68 2.807-3.68.291 0 .387.193.193.678l-.871 3.195c-.291.967.291 1.162.775.967.58-.193.871-.678 1.162-1.064.193-.291.193-.484 0-.291-.195.098-.389.678-.775.775-.58.193-.291-.484-.193-.775.678-2.516.871-3.193.871-3.291 0-.58-.387-.773-.678-.773-.484 0-1.258.096-2.613 2.322.096-.58.289-1.258.289-1.549 0-.58-.387-.773-.678-.773-.58 0-1.258.096-2.613 2.322l.484-1.742c0-.193.098-.387.098-.58l-1.84.289v.195c.678 0 .871 0 .678.58l-1.162 4.26h.871l.291-1.064c.387-1.26 1.84-3.68 2.711-3.68.289 0 .387.193.289.678l-1.258 4.066h.871v-.001zM152.207 129.359c0-.775-.58-1.742-1.645-1.742-2.324 0-3.68 2.711-3.68 3.871 0 .775.678 1.646 1.646 1.646 1.646.001 3.679-1.839 3.679-3.775zm-4.355 2.323c0-1.064 1.064-3.871 2.518-3.871.58 0 .871.484.871 1.162 0 1.451-1.066 3.871-2.422 3.871-.387 0-.967-.289-.967-1.162zM153.756 132.941c.678-1.936.871-3.098 2.033-4.357.193-.193.291-.289.484-.193.193.098.291.582.775.291.482-.291.289-.775.096-.969s-.484-.193-.871 0c-.484.389-1.162 1.355-1.742 2.324l.484-1.84c.096-.193.096-.387.096-.58l-1.742.289v.195c.678 0 .775 0 .678.58-.193 1.162-.773 2.904-1.162 4.26h.871zM158.404 132.941c.676-1.936.967-3.098 2.129-4.357.098-.193.193-.289.484-.193.098.098.291.582.773.291.484-.291.291-.775 0-.969-.096-.193-.482-.193-.773 0-.484.389-1.162 1.355-1.742 2.324l.484-1.84c0-.193.096-.387.096-.58l-1.742.289v.195c.58 0 .773 0 .678.58-.193 1.162-.871 2.904-1.162 4.26h.775zM167.311 129.359c0-.775-.484-1.742-1.549-1.742-2.42 0-3.775 2.711-3.775 3.871 0 .775.678 1.646 1.742 1.646 1.644.001 3.582-1.839 3.582-3.775zm-4.358 2.323c0-1.064 1.064-3.871 2.518-3.871.58 0 .969.484.969 1.162 0 1.451-1.066 3.871-2.518 3.871-.387 0-.969-.289-.969-1.162zM167.891 128.004v.193l.678-.096c.193 0 .193.193.291.871.193 1.064.291 2.516.291 4.162h.289l2.42-4.066.389 4.066h.193l2.033-2.518c.773-.967 1.162-1.645 1.162-2.42 0-.387-.291-.58-.678-.58-.195 0-.389.096-.389.387 0 .193.484.58.484.775 0 .096 0 .193-.096.387-.195.871-1.453 2.322-1.938 2.807l-.484-4.355h-.193l-2.322 3.775h-.098c0-1.064-.193-2.711-.387-3.582-.098-.193-.098-.291-.193-.193l-1.452.387zM176.797 127.424c.484-.098 1.066-.775 1.355-1.355.195-.484.195-1.066-.193-1.26-.096-.096-.58-.096-.773.098-.195.096-.291.58 0 .871.289.193.387.484.193.871-.193.291-.389.484-.582.58-.193 0-.193.195 0 .195zM184.252 127.617h-.193c0 .193-.291.193-.484.193-.484-.193-.871-.291-1.451-.098-1.355.389-1.066 1.453-.678 2.033l.871 1.26c.289.58.387.967.193 1.354 0 .098-.484.873-1.355.291-.387-.193-.484-.387-.678-1.451h-.193l-.291 1.936h.193c.098-.291.484-.098.678-.098.484.098 1.26.195 1.742-.096.969-.484 1.066-1.355.873-1.742-.195-.389-.775-1.355-1.26-2.033-.387-.582-.193-1.453.678-1.26.871.195.871.873.969 1.355l.096.098.29-1.742zM75.436 143.59c1.162 0 2.033-.096 2.033.582l-.097.58h.193l.871-2.807h-.29c-.194.58-.581 1.16-1.162 1.16h-1.452l.774-2.904c.097-.289.291-.289.388-.289h1.258c1.162 0 1.549.193 1.549.773v.678h.193l.387-1.84h-5.712v.195c.387 0 .871.096.774.678l-1.743 6.098c-.193.775-.484.775-.871.775v.193h6.099l.774-2.033h-.291c-.29.678-1.064 1.646-2.614 1.646h-1.355c-.484 0-.678-.098-.581-.582l.875-2.903zM81.245 147.463l.291-1.064c.387-1.26 2.033-3.68 2.808-3.68.291 0 .387.193.291.678l-.872 3.195c-.291.969.291 1.162.678.969.677-.195.968-.678 1.258-1.066.194-.289.194-.482 0-.289-.194.096-.387.678-.775.773-.581.193-.29-.484-.193-.773.678-2.518.774-3.002.774-3.293 0-.58-.387-.773-.678-.773-.484 0-1.162.096-2.71 2.518l.581-1.938c0-.193.097-.387.097-.58l-1.743.291v.193c.581 0 .774 0 .581.58l-1.258 4.26h.87v-.001zM88.215 147.656c1.162-1.258 2.42-3 2.904-3.969.193-.484.291-.678.097-1.162-.097-.387-.387-.387-.581-.387-.484.096-.484.484-.388.58l.388.484c.193.291.097.387 0 .678-.291.775-1.356 2.227-1.839 2.711 0-1.549-.388-3.486-.678-4.453l-1.646.291v.289c.291-.096.774-.193.968.291.29.969.581 3.291.484 4.646h.291v.001zM94.121 142.719c0-.193.097-.387.097-.58l-1.839.291v.193c.678 0 .872 0 .678.58l-.871 3.389c-.291.969.291 1.162.678.969.677-.195.968-.678 1.258-1.066.194-.289.194-.482 0-.289-.193.096-.387.678-.774.773-.581.193-.291-.484-.194-.773l.967-3.487zm-.484-2.614c0 .387.194.58.581.58.291 0 .484-.193.484-.58 0-.291-.193-.582-.484-.582-.387 0-.581.291-.581.582zM96.057 147.463c.678-1.936.871-3.098 2.033-4.357.193-.193.291-.289.58-.193.098.098.291.582.775.291.387-.291.193-.773 0-.969-.098-.193-.484-.193-.775 0-.482.389-1.16 1.355-1.742 2.324l.484-1.84c0-.193.098-.387 0-.58l-1.743.291v.193c.678 0 .872 0 .774.58-.29 1.162-.871 2.904-1.258 4.26h.872zM104.77 143.881c0-.775-.484-1.742-1.549-1.742-2.42 0-3.775 2.711-3.775 3.873 0 .773.678 1.645 1.742 1.645 1.646-.001 3.582-1.841 3.582-3.776zm-4.356 2.324c0-1.066 1.064-3.873 2.613-3.873.484 0 .871.484.871 1.162 0 1.451-1.064 3.871-2.518 3.871-.386 0-.966-.289-.966-1.16zM106.416 147.463l.291-1.064c.289-1.26 1.936-3.68 2.807-3.68.291 0 .387.193.193.678l-.871 3.195c-.291.969.291 1.162.775.969.58-.195.871-.678 1.16-1.066.195-.289.195-.482 0-.289-.193.096-.387.678-.773.773-.582.193-.291-.484-.193-.773.773-2.518.871-3.002.871-3.293 0-.58-.484-.773-.775-.773-.484 0-1.162.096-2.711 2.518l.582-1.938c.096-.193.096-.387.096-.58l-1.742.291v.193c.582 0 .775 0 .582.58l-1.162 4.26h.87v-.001zM115.227 147.463l.289-1.064c.389-1.26 1.938-3.68 2.809-3.68.289 0 .387.193.193.678l-.871 3.195c-.291.969.289 1.162.773.969.582-.195.871-.678 1.162-1.066.193-.289.193-.482 0-.289-.193.096-.387.678-.775.773-.58.193-.289-.484-.193-.773.678-2.518.871-3.195.871-3.293 0-.58-.387-.773-.678-.773-.482 0-1.258.096-2.613 2.322.098-.58.291-1.258.291-1.549 0-.58-.387-.773-.678-.773-.58 0-1.258.096-2.613 2.322l.482-1.742c0-.193.098-.387.098-.58l-1.84.291v.193c.678 0 .871 0 .678.58l-1.162 4.26h.871l.291-1.064c.389-1.26 1.84-3.68 2.711-3.68.291 0 .387.193.291.678l-1.26 4.066h.873v-.001zM123.939 146.592c-.291.193-.582.387-.871.484-.291.096-.775.096-1.26-.193-.291-.291-.387-.969-.193-1.646a9.506 9.506 0 0 0 2.033-.58c.58-.291 1.064-.678 1.258-1.355.291-.775-.193-1.162-.967-1.162-1.355 0-3.195 1.549-3.486 3.389-.096.967.291 1.742.775 1.936.678.291 1.258.193 1.451.098.775-.195 1.646-1.066 1.742-1.162.098-.098 0-.193-.096-.098l-.386.289zm-2.228-1.647c.195-.678.389-1.16.969-1.84.193-.289.582-.58.775-.676.387-.098.678 0 .678.482 0 .679-.582 1.745-2.422 2.034zM126.553 147.463l.291-1.064c.387-1.26 1.936-3.68 2.807-3.68.291 0 .387.193.291.678l-.969 3.195c-.193.969.387 1.162.775.969.58-.195.967-.678 1.258-1.066.193-.289.098-.482-.096-.289-.098.096-.389.678-.68.773-.58.193-.289-.484-.193-.773.678-2.518.775-3.002.775-3.293 0-.58-.387-.773-.678-.773-.484 0-1.26.096-2.711 2.518h-.098l.678-1.938c0-.193.098-.387 0-.58l-1.742.291v.193c.678 0 .871 0 .678.58l-1.258 4.26h.872v-.001zM134.975 142.234h-.871l.291-1.16c.096-.291-.098-.291-.291-.098-.871 1.064-1.064 1.162-1.645 1.355-.098.098-.291.193-.291.291h.871l-1.064 3.969c-.291.969.387 1.162.773.969.582-.195.871-.678 1.162-1.066.193-.289.193-.482 0-.289-.098.096-.387.678-.773.773-.484.193-.291-.484-.195-.773l.969-3.582h1.064v-.389zM139.139 139.523l-.484 1.84h.193c.58-1.064 1.258-1.451 1.549-1.451h1.355l-1.646 6.293c-.193.773-.289 1.064-1.355 1.064v.193h3.486v-.193c-.484 0-1.162-.098-.969-.775l1.646-6.582h1.064c1.258 0 .969 1.258.871 1.451h.193l.484-1.84h-6.387zM149.496 143.881c0-.775-.484-1.742-1.549-1.742-2.42 0-3.775 2.711-3.775 3.873 0 .773.678 1.645 1.742 1.645 1.647-.001 3.582-1.841 3.582-3.776zm-4.355 2.324c0-1.066 1.064-3.873 2.613-3.873.484 0 .871.484.871 1.162 0 1.451-1.064 3.871-2.516 3.871-.388 0-.968-.289-.968-1.16zM156.178 139.814c0-.193.096-.291.096-.484l-1.742.193v.195c.58 0 .773 0 .58.58l-.58 2.613h-.098c0-.289-.193-1.064-1.258-.678-.969.291-1.84 1.26-2.227 1.744-.484.678-.775 1.549-.775 1.742-.193.773.098 1.549.775 1.84.387.193.58 0 .871 0 .969-.291 1.355-.969 1.84-1.646h.096l-.193.678c-.289.969.291 1.162.678.969.678-.195.969-.678 1.26-1.066.193-.289.193-.482 0-.289-.195.096-.389.678-.775.773-.58.193-.291-.484-.193-.773l1.645-6.391zm-2.033 4.26c-.291 1.064-1.162 2.613-1.84 2.809-.387.193-1.064.289-1.162-.582-.096-1.549 1.162-3.484 2.131-3.871.482-.098.871 0 .967.387.193.386-.001.968-.096 1.257zM161.695 142.139l-.871.096-.193.678c-.098-.482-.389-.773-.871-.773-1.453 0-3.582 2.227-3.582 4.066 0 .967.676 1.451 1.16 1.451.389 0 1.355-.096 2.422-1.742-.291.773-.291.969-.291 1.162 0 .387.291.58.58.58.193 0 .775-.193 1.453-1.162.096-.193.096-.193.096-.289v-.098c-.096 0-.193.098-.289.291-.291.484-.484.678-.775.678-.096 0-.193-.098-.193-.193 0-.098.193-.484.193-.678l1.161-4.067zm-1.453 1.935c-.289 1.064-1.258 2.613-1.838 2.809-.389.193-1.162.289-1.162-.582-.193-1.549 1.162-3.484 2.129-3.871.484-.098.871 0 .969.387s0 .968-.098 1.257zM162.664 149.109c-.291-.098-.678-.098-.873.193-.096.096-.096.387.098.58.098.193.58.193.871.098.387-.193.969-.775 1.064-.871.775-.871 1.744-2.324 2.711-4.26.193-.389.582-1.355.582-1.549.096-.389.096-1.066-.389-1.162-.482-.098-.678.193-.678.387-.096.193.291.484.484.58.193.195.098.389.098.582-.098.969-1.162 2.518-1.355 2.711-.291-1.453-.582-2.613-1.162-4.066 0-.193 0-.193-.291-.193l-1.549.291v.193c.291 0 .871-.291 1.26.678.387.871.871 2.516.967 4.355a6.31 6.31 0 0 1-1.451 1.742l-.387-.289zM62.753 49.199c1.743 0 3.195-1.452 3.195-3.292 0-1.743-1.452-3.195-3.195-3.195-1.742 0-3.194 1.452-3.194 3.195 0 1.84 1.452 3.292 3.194 3.292zm0-.484c-1.452 0-2.71-1.259-2.71-2.808 0-1.452 1.258-2.711 2.71-2.711 1.453 0 2.711 1.259 2.711 2.711 0 1.55-1.258 2.808-2.711 2.808zm-1.064-1.549c0 .194-.097.194-.291.291h-.097v.194h1.452v-.194l-.193-.097c-.193 0-.193 0-.193-.194v-1.162c.678 0 .484.097.871.872.194.387.29.774.581.774h.581v-.194c-.29 0-.387-.387-.581-.774-.097-.291-.291-.678-.678-.774.484-.097.871-.388.871-.968s-.387-.774-1.162-.774h-1.549v.194h.097c.291 0 .291 0 .291.193v2.613zm.678-1.355v-1.162c0-.097-.097-.29.097-.29h.193c.484 0 .775.193.775.678 0 .677-.387.774-.968.774h-.097zM62.753 139.912c1.743 0 3.195-1.453 3.195-3.293 0-1.742-1.452-3.193-3.195-3.193-1.742 0-3.194 1.451-3.194 3.193 0 1.84 1.452 3.293 3.194 3.293zm0-.484c-1.452 0-2.71-1.258-2.71-2.809 0-1.451 1.258-2.807 2.71-2.807 1.453 0 2.711 1.355 2.711 2.807 0 1.551-1.258 2.809-2.711 2.809zm-1.064-1.549c0 .193-.097.193-.291.193h-.097v.193h1.452v-.193h-.193c-.193 0-.193-.098-.193-.291v-1.064c.678 0 .484.098.871.775.194.387.29.773.581.773h.581v-.193c-.29 0-.387-.387-.581-.678-.097-.291-.291-.775-.678-.775.484-.096.871-.387.871-.967 0-.582-.387-.871-1.162-.871h-1.549v.193h.097c.291 0 .291.096.291.291v2.614zm.678-1.356v-1.162c0-.096-.097-.387.097-.387h.193c.484 0 .775.291.775.773 0 .582-.387.775-.968.775h-.097v.001zM173.119 144.85c1.742 0 3.195-1.453 3.195-3.195 0-1.84-1.453-3.291-3.195-3.291s-3.195 1.451-3.195 3.291c0 1.741 1.453 3.195 3.195 3.195zm0-.389c-1.453 0-2.711-1.355-2.711-2.807 0-1.549 1.258-2.807 2.711-2.807 1.451 0 2.711 1.258 2.711 2.807 0 1.451-1.26 2.807-2.711 2.807zm-1.064-1.645c0 .289-.098.289-.291.289h-.098v.195h1.453v-.195h-.193c-.193 0-.193-.096-.193-.289v-1.066c.678-.096.482.098.871.775.193.387.289.775.58.775h.58v-.195c-.289 0-.387-.387-.58-.676-.098-.389-.291-.775-.678-.873.484-.096.871-.387.871-.871 0-.58-.387-.871-1.162-.871h-1.549v.193h.098c.291 0 .291 0 .291.291v2.518zm.677-1.355v-1.064c0-.195-.098-.389.096-.389h.193c.484 0 .775.193.775.678 0 .678-.387.775-.969.775h-.095zM11.744 43.422l-1.198 4.43h2.466l-1.268-4.43zm-.652-.575h1.358l2.615 8.514h-.987l-.827-2.713H10.29l-.787 2.713h-.988l2.577-8.514zM24.575 43.606h-3.642v2.814h2.764v.772h-2.764v4.169h-.961v-8.514h4.603v.759zM30.237 49.021c0 .459.169.872.505 1.234a1.62 1.62 0 0 0 1.232.545c.578 0 1.147-.261 1.708-.784a15.058 15.058 0 0 1-2.082-2.812c-.436.27-.773.545-1.01.821a1.487 1.487 0 0 0-.353.996zm4.792-1.806l.84.137c-.18 1.018-.487 1.86-.923 2.528.225.22.425.381.603.492.178.108.405.193.679.253v.761a1.588 1.588 0 0 1-.652-.053 2.449 2.449 0 0 1-.434-.172 4.891 4.891 0 0 1-.445-.257l-.418-.278c-.78.6-1.541.898-2.279.898-.7 0-1.305-.213-1.81-.643-.504-.43-.776-.964-.818-1.61 0-.609.155-1.13.466-1.563.31-.436.763-.83 1.361-1.187a9.642 9.642 0 0 1-.456-1.099 3.076 3.076 0 0 1-.156-.966c0-.299.076-.581.225-.849a1.716 1.716 0 0 1 1.508-.883c.295 0 .576.07.834.211.26.141.469.33.629.568.158.237.249.496.271.776 0 .514-.149.966-.444 1.354-.296.388-.708.757-1.234 1.11a11.325 11.325 0 0 0 1.906 2.491c.338-.511.587-1.183.747-2.019zm-3.053-1.145c.801-.492 1.201-1.064 1.201-1.715 0-.251-.072-.479-.214-.682a.683.683 0 0 0-.587-.303.77.77 0 0 0-.638.301 1.254 1.254 0 0 0-.271.695c0 .576.169 1.144.509 1.704zM42.386 46.767h.947c.776 0 1.407-.104 1.896-.309.49-.206.734-.616.734-1.234 0-.475-.131-.832-.394-1.07a1.867 1.867 0 0 0-.969-.452 8.579 8.579 0 0 0-1.388-.096h-.827v3.161h.001zm-.961-3.92h1.721c.561 0 1.029.021 1.408.061.38.042.734.137 1.061.288.387.162.702.419.944.778.243.356.365.732.365 1.128 0 .317-.062.626-.185.925s-.301.562-.536.79a2.195 2.195 0 0 1-.829.5c-.46.139-1.137.209-2.028.209h-.96v3.835h-.96v-8.514h-.001zM54.612 43.422l-1.199 4.43h2.466l-1.267-4.43zm-.651-.575h1.358l2.615 8.514h-.987l-.827-2.713h-2.962l-.787 2.713h-.987l2.577-8.514z"/><path fill-rule="evenodd" clip-rule="evenodd" fill="#2e388b" stroke="#fff" stroke-width=".672" stroke-miterlimit="2.613" d="M51.372 106.648l-34.965.01L33.939 64.51l17.433 42.138z"/><path fill-rule="evenodd" clip-rule="evenodd" fill="#2e388b" stroke="#fff" stroke-width=".672" stroke-miterlimit="2.613" d="M50.096 109.84l-32.306.01 16.199-38.945 16.107 38.935z"/><path fill-rule="evenodd" clip-rule="evenodd" fill="#2e388b" stroke="#fff" stroke-width=".672" stroke-miterlimit="2.613" d="M48.819 113.031l-29.647.008L34.038 77.3l14.781 35.731z"/><path d="M34.347 130.518v2.785c3.184 0 7.194-3.801 7.276-8.273 0-3.785-3.427-7.35-7.282-7.35-3.884 0-6.82 3.217-6.82 6.922 0 3.26 2.659 6.541 6.826 5.928 2.374-.348 4.348-2.512 4.348-5.131 0-2.418-1.719-4.418-4.238-4.418-2.101 0-3.731 1.578-3.731 3.512 0 1.936 1.63 3.512 3.731 3.512v-7.037m-3.738-2.204v5.607m7.976-5.066v5.994M27.56 113.078v11.523m14.102-11.523v11.523" fill="none" stroke="#fff" stroke-width=".672" stroke-miterlimit="2.613"/></svg>