<svg xmlns="http://www.w3.org/2000/svg" width="2500" height="2500" viewBox="0 0 192.756 192.756"><path fill="#fff" d="M0 192.756h192.756V0H0v192.756z"/><path d="M177.828 102.93h11.736v-5.365h-8.447l6.301-9.001c2.215-3.22 3.324-7.755-2.389-7.755h-9.797v4.742h7.373l-6.82 9.902c-1.004 1.385-1.73 2.423-1.73 3.773 0 2.354.9 3.704 3.773 3.704zM139.979 77.851v17.013c0 5.799.578 8.459 6.344 8.459h2.18v-4.422h-1.666c-1.891 0-2.402-2.147-2.402-3.588v-8.074h4.293v-5.415h-4.293v-3.973h-4.456zM111.031 77.345h-5.053v13.849c0 5.192-2.646 6.438-6.514 6.438-3.357 0-5.568-2.146-5.568-5.711 0-5.609 5.41-7.686 9.673-5.055l.039-5.435c-8.488-2.978-15.239 2.354-15.239 10.49 0 6.681 4.382 11.424 11.054 11.424 4.658 0 8.686-2.459 10.58-6.404 1.027-2.112 1.027-4.328 1.027-6.855V77.345h.001zM20.529 102.93h5.094v-9.244c0-2.527 0-4.777-1.003-6.924-1.853-3.947-5.79-6.405-10.382-6.405-6.522 0-11.386 4.743-11.386 11.46 0 6.611 4.747 11.425 11.386 11.425.81 0 3.01-.277 4.361-.554l-.077-5.574c-1.622.483-2.895.796-3.899.796-3.82 0-6.097-2.389-6.097-6.093 0-3.705 2.354-6.059 5.557-6.059 4.014 0 6.446 2.285 6.446 6.786v10.386zM131.729 102.93h5.094v-9.244c0-2.527 0-4.777-1.004-6.924-1.852-3.947-5.789-6.405-10.381-6.405-6.523 0-11.385 4.743-11.385 11.46 0 6.611 4.746 11.425 11.385 11.425.811 0 3.01-.277 4.361-.554l-.076-5.574c-1.621.483-2.896.796-3.898.796-3.822 0-6.098-2.389-6.098-6.093 0-3.705 2.354-6.059 5.557-6.059 4.014 0 6.445 2.285 6.445 6.786v10.386zM62.681 91.852c0 3.115 1.147 5.886 3.327 8.136 2.141 2.146 4.97 3.358 7.99 3.358 3.06 0 5.926-1.178 8.029-3.358 2.179-2.215 3.326-5.054 3.326-8.136 0-3.081-1.147-5.92-3.326-8.136-2.103-2.181-4.97-3.359-8.029-3.359-3.02 0-5.849 1.212-7.99 3.359-2.18 2.25-3.327 5.02-3.327 8.136zm5.277-.035c0-3.774 2.752-6.683 6.04-6.683 3.289 0 6.117 2.908 6.117 6.683 0 3.739-2.829 6.646-6.117 6.646-3.288.001-6.04-2.907-6.04-6.646zM43.813 107.257c-1.904 1.316-5.019 1.524-7.858 1.108v4.986c2.666.414 5.262.276 7.583-.485 4.154-1.454 7.235-5.055 7.235-11.183 0-3.565.416-11.736-1.073-14.957-1.835-3.912-5.747-6.404-10.317-6.404-6.542 0-11.425 4.777-11.425 11.494 0 6.611 4.778 11.425 11.425 11.425.762 0 3.012-.312 4.327-.554l-.033-5.574c-1.663.483-2.943.796-3.947.796-3.808 0-6.058-2.424-6.058-6.128s2.319-6.058 5.573-6.058c3.982 0 6.405 2.284 6.405 6.82v5.747c-.002 2.667.691 7.202-1.837 8.967zM171.043 80.842h-1.904c-7.479 0-11.91 4.64-11.91 11.01 0 6.474 4.432 11.113 11.91 11.113h1.904v-5.158h-1.904c-4.293 0-6.855-2.39-6.855-5.885 0-3.497 2.562-5.955 6.855-5.955h1.904v-5.125zM58.458 102.93h-5.055V91.055c0-5.885 2.043-9.936 9.071-10.628v4.535c-2.527.554-4.016 2.216-4.016 5.747v12.221zM58.7 112.797h.519v-2.527c0-.797-.138-1.42-.45-1.904-.554-.9-1.488-1.419-2.562-1.419-1.73 0-3.011 1.246-3.011 2.977 0 .831.276 1.559.83 2.112.554.589 1.351.866 2.216.866.762 0 1.454-.243 2.077-.763v-.657c-.623.657-1.315.969-2.077.969-1.419 0-2.527-1.038-2.527-2.527 0-1.454 1.108-2.526 2.527-2.526 1.454 0 2.458 1.039 2.458 2.839v2.56zm4.328 0h.52v-2.909h1.662c1.004 0 1.523.521 1.523 1.559v1.351h.519v-1.522c0-1.039-.588-1.662-1.73-1.802.346-.208.623-.519.935-.969l.97-1.454h-.588l-.97 1.351c-.519.727-.9 1.039-1.73 1.039h-.588v-5.159h-.52v8.515h-.003zM74.66 107.5v-.45h-.45c-.866 0-1.558.104-2.216.52-.865.554-1.315 1.42-1.315 2.354 0 1.697 1.28 2.874 3.531 2.874h.45v-.449h-.554c-1.731 0-2.873-1.005-2.873-2.425 0-1.385 1.107-2.423 2.873-2.423h.554v-.001zm3.254-2.078c0 .208.173.381.381.381s.381-.173.381-.381c0-.172-.173-.346-.381-.346-.242 0-.381.174-.381.346zm.104 7.375h.519v-5.746h-.519v5.746zm4.57-2.874c0-1.419 1.108-2.526 2.493-2.526s2.492 1.107 2.492 2.526c0 1.42-1.106 2.527-2.492 2.527s-2.493-1.107-2.493-2.527zm-.554 0c0 .831.312 1.559.9 2.147a3.098 3.098 0 0 0 2.147.831c.831 0 1.558-.277 2.146-.831.589-.589.9-1.316.9-2.147 0-.796-.311-1.522-.9-2.111a3.06 3.06 0 0 0-2.146-.865c-.796 0-1.558.311-2.147.865-.588.588-.9 1.315-.9 2.111zm8.794-2.873l2.077 5.298c.138.414.312.554.658.554s.519-.14.658-.554l2.077-5.298h-.554l-1.938 5.055c-.069.173-.139.276-.242.276-.104 0-.139-.104-.208-.276l-1.973-5.055h-.555zm13.709 5.747h.52v-2.527c0-.797-.104-1.42-.416-1.904a3.061 3.061 0 0 0-2.631-1.419c-1.695 0-3.012 1.246-3.012 2.977 0 .831.312 1.559.865 2.112.553.589 1.316.866 2.182.866.797 0 1.488-.243 2.076-.763v-.657c-.588.657-1.279.969-2.076.969-1.42 0-2.492-1.038-2.492-2.527 0-1.454 1.107-2.526 2.492-2.526 1.453 0 2.492 1.039 2.492 2.839v2.56zm-3.254-6.404h.484l1.662-2.112h-.83l-1.316 2.112zm13.156 5.955v.449h2.215c1.559 0 2.354-.449 2.354-1.454 0-.762-.555-1.28-1.627-1.593l-1.211-.311c-.797-.208-1.213-.521-1.213-1.004 0-.589.416-.901 1.178-.901h2.424v-.484h-2.215c-1.248 0-1.904.52-1.904 1.351 0 .727.484 1.212 1.488 1.487l1.176.277c.936.243 1.385.624 1.385 1.212 0 .589-.518.971-1.453.971h-2.597zm8.516 3.046v-5.158c0-1.8 1.039-2.839 2.492-2.839 1.42 0 2.494 1.072 2.494 2.526 0 1.489-1.074 2.527-2.494 2.527-.795 0-1.488-.312-2.076-.969v.657c.588.52 1.314.763 2.076.763.865 0 1.627-.277 2.182-.866a2.922 2.922 0 0 0 .865-2.112c0-1.73-1.279-2.977-3.012-2.977a3.063 3.063 0 0 0-2.631 1.419c-.312.484-.416 1.107-.416 1.904v5.124h.52v.001zm9.174-5.471c0-1.419 1.107-2.526 2.492-2.526s2.494 1.107 2.494 2.526c0 1.42-1.109 2.527-2.494 2.527s-2.492-1.107-2.492-2.527zm-.553 0c0 .831.311 1.559.9 2.147.553.554 1.314.831 2.145.831.797 0 1.559-.277 2.148-.831.588-.589.865-1.316.865-2.147 0-.796-.277-1.522-.865-2.111a3.131 3.131 0 0 0-2.148-.865c-.83 0-1.592.311-2.145.865-.589.588-.9 1.315-.9 2.111zm9.588 2.874h.52v-8.516h-.52v8.516zm10.076-2.804h-.555c-.104 1.488-1.143 2.457-2.457 2.457a2.517 2.517 0 0 1-2.527-2.527 2.517 2.517 0 0 1 2.527-2.526c.762 0 1.418.311 1.869.899l-3.74 2.39.244.381 4.223-2.666c-.623-.969-1.488-1.454-2.562-1.454-.865 0-1.627.311-2.182.865-.588.589-.934 1.315-.934 2.111 0 .831.346 1.559.934 2.147.555.554 1.316.831 2.148.831 1.627 0 2.909-1.143 3.012-2.908zm7.235-2.493v-.45h-.449c-.865 0-1.592.104-2.215.52-.867.554-1.316 1.42-1.316 2.354 0 1.697 1.246 2.874 3.531 2.874h.449v-.449h-.553c-1.73 0-2.908-1.005-2.908-2.425 0-1.385 1.143-2.423 2.908-2.423h.553v-.001zm-2.838-3.22l1.314 2.112h.832l1.281-2.112h-.52l-1.178 1.662-1.211-1.662h-.518zm6.611 8.517v-3.393c0-1.212.832-2.008 1.939-2.008 1.143 0 1.939.796 1.939 2.008v3.393h.52v-3.255c0-1.627-1.039-2.596-2.459-2.596-1.418 0-2.457.969-2.457 2.596v3.255h.518zm8.346-2.874c0-1.419 1.105-2.526 2.49-2.526 1.387 0 2.494 1.107 2.494 2.526 0 1.42-1.107 2.527-2.494 2.527-1.385 0-2.49-1.107-2.49-2.527zm-.555 0c0 .831.311 1.559.9 2.147.588.554 1.35.831 2.145.831.832 0 1.559-.277 2.148-.831a2.959 2.959 0 0 0 .898-2.147c0-.796-.311-1.522-.898-2.111a3.067 3.067 0 0 0-2.148-.865c-.795 0-1.557.311-2.145.865-.589.588-.9 1.315-.9 2.111zm9.209 2.425v.449h2.215c1.559 0 2.354-.449 2.354-1.454 0-.762-.553-1.28-1.627-1.593l-1.211-.311c-.797-.208-1.211-.521-1.211-1.004 0-.589.414-.901 1.176-.901h2.424v-.484h-2.215c-1.248 0-1.904.52-1.904 1.351 0 .727.484 1.212 1.488 1.487l1.176.277c.936.243 1.385.624 1.385 1.212 0 .589-.518.971-1.453.971h-2.597zm7.996-6.926v5.367c0 1.35.797 2.008 2.389 2.008h.277v-.449h-.346c-1.246 0-1.766-.485-1.766-1.594v-3.22h2.111v-.484h-2.111v-1.628h-.554z" fill-rule="evenodd" clip-rule="evenodd" fill="#166e55"/></svg>