<svg xmlns="http://www.w3.org/2000/svg" width="2500" height="1837" viewBox="0 0 65.445 48.088"><path d="M2.923 24.861L23.837 0h13.492L15.364 25.998c-2.145 2.574-2.66 6.949-.064 9.438H3.588C-.359 32.84.155 28.164 2.923 24.861z" fill="#2360a5"/><path d="M60.152 35.436H48.44c2.574-2.488 2.059-6.885-.086-9.438 0 0-13.729-16.538-14.95-18.018L40.095.086 60.817 24.84c2.724 3.324 3.282 8-.665 10.596z" fill="#00acec"/><path d="M42.948 28.68c-1.629 1.801-4.183 2.445-6.005 2.445-3.132 0-4.483 2.359-4.591 2.83-.064.279 0 .688-.407.688-.365 0-.322-.43-.386-.688-.129-.471-1.459-2.83-4.59-2.83-1.824 0-4.376-.645-6.006-2.445-1.245-1.352-1.781-3.154-1.609-5.342 1.995-.45 4.119-.257 5.383-.15 3.647.3 6.135 3.388 7.208 6.693 1.158-3.348 3.518-6.372 7.229-6.693 1.266-.107 3.39-.3 5.384.15.171 2.187-.365 3.99-1.61 5.342z" fill="#2360a5"/><path d="M34.883 22.094c-.899 1.695-2.102 3.218-2.938 4.976-.794-1.736-2.017-3.303-2.939-4.976-.45-.858-2.467-5.341 2.939-10.983 5.427 5.642 3.389 10.125 2.938 10.983z" fill="#2360a5"/><path d="M62.669 40.26c0-.787.639-1.367 1.392-1.367.746 0 1.385.58 1.385 1.367 0 .793-.639 1.373-1.385 1.373-.753 0-1.392-.58-1.392-1.373z" fill="#00acec"/><path d="M64.061 41.404c.619 0 1.108-.486 1.108-1.145 0-.65-.489-1.139-1.108-1.139-.627 0-1.115.488-1.115 1.139-.001.659.488 1.145 1.115 1.145z" fill="#fff"/><path d="M63.771 41.053h-.24v-1.58h.603c.372 0 .558.137.558.449 0 .283-.178.406-.41.436l.45.695h-.269l-.416-.684h-.275v.684h-.001z" fill="#00acec"/><path d="M64.058 40.164c.202 0 .384-.014.384-.256 0-.195-.178-.232-.346-.232h-.324v.488h.286z" fill="#fff"/><path d="M11.601 47.855H6.693c-1.245.021-.916-.74-.824-.832.093-.092.176-.369.155-.596l-.206-1.242c-.092-.494-.102-.873-.657-.873h-.705c-1.052 0-1.397-.387-1.626-.752l-.933 2.537c-.037.096-.176.526-.001.803.369.586.184.959-1.14.986-1.069.02-.739-.516-.585-1.039l2.895-7.555c.133-.389.154-.525.062-.74-.093-.215-.277-.658.338-.658.843.021 1.434-.027 1.859 0 .651.039 1.02.271 1.253 1.244.235.98 1.479 6.438 1.633 7.084.153.643.361.709.792.678.529-.035.469-.832.518-1.207.077-1.002.03-4.621 0-5.617 0-.215 0-.367-.154-.49a.38.38 0 0 1 .062-.617l1.709-.939c.338-.186.555.031.555.338-.031.863-.092 6.16 0 7.426 0 .367.035.932.267.996.298.081.533 1.065-.359 1.065z" fill="#00acec"/><path d="M2.964 43.203h1.662c.731 0 .781-.4.689-.83l-.407-1.869c-.176-.789-.776-.412-.96.084l-.984 2.615z" fill="#fff"/><path d="M57.368 47.545c-.832.566-1.147.482-1.886.506-.414.014-.952-.018-1.278-.562a2.511 2.511 0 0 1-.245-.557l-.802-3.635c-.153-.709-.492-.74-.8-.74a.618.618 0 0 0-.616.617v2.619c0 .367.015.887.246.953.215.062.554 1.109-.339 1.109h-1.91c-.893 0-.554-1.047-.339-1.109.231-.066.247-.586.247-.953v-3.205c.004-.27-.077-.5-.247-.709-.154-.186-.37-.861.431-.924.586-.061 1.88-.092 2.003.555.062.184.339.184.462.061.717-.715 2.538-1.273 2.958.709.338 1.602.739 3.697 1.108 4.312.091.242.3.602.744.588-.245-.445-.303-.955-.127-1.172.246-.309.77-.432 1.016.092s.895.863 1.664.832.955-.34 1.018-.586c.061-.246.061-.615-.42-.787-1.187-.51-2.275-.975-2.285-.979-.94-.457-1.032-1.91-.53-2.855.714-1.346 3.737-1.135 4.59-.615.554.34.37 1.232.062 1.818a.873.873 0 0 1-1.141.369c-.215-.094-.215-.617-.123-.832.093-.215.245-.828-.585-.895-1.011-.078-1.382 1.191-.647 1.541l2.526 1.201c.801.432.801 1.973.186 2.834-.561.783-1.927 1.012-3.313.914-.648-.046-1.142-.056-1.628-.515zM45.549 40.771c3.234.338 2.896 2.217 3.05 3.727.339 3.357-.739 3.449-2.865 3.572-3.912.154-3.513-2.277-3.513-4.127-.03-3.634 2.466-3.203 3.328-3.172z" fill="#00acec"/><path d="M45.456 41.818c-.585-.031-1.171.031-1.108 2.248.03 1.109-.094 3.15 1.324 3.111 1.108-.031.831-1.695.831-2.588s0-2.71-1.047-2.771z" fill="#fff"/><path d="M39.079 40.709c1.494 0 2.919.359 1.941 2.219a.873.873 0 0 1-1.141.369c-.216-.094-.216-.617-.123-.832s.246-.895-.585-.895c-.818 0-1.558 1.113-.646 1.541l2.525 1.201c.802.432.802 1.973.186 2.834-.792 1.109-4.024 1.176-4.806.523-.556-.461-.771-1.355-.524-1.662.247-.309.77-.432 1.018.092.246.523.893.863 1.662.832.771-.031.955-.34 1.018-.586.061-.246.061-.615-.432-.801l-2.156-.924c-1.049-.369-1.172-1.91-.647-2.896.524-.984 1.971-1.015 2.71-1.015zM28.944 45.543c0 .367.015 1.137.246 1.203.215.062.554 1.109-.339 1.109h-1.91c-.893 0-.554-1.047-.339-1.109.231-.066.247-.836.247-1.203v-3.246c-.062-.246-.153-.479-.369-.602-.169-.098-.37-.555.215-.678s1.755-.541 2.063.107c.141.225.248.49.278.754.269-.312.459-.482 1.08-.754.34-.15 1.524-.17 1.524-.17.523 0 1.77-.646 2.355-1.418.216-.307.74-.414.74.264v.539c0 .641.286.615.846.615.369 0 .602 1.109.047 1.109h-.416c-.293 0-.477.092-.477.646v3.326c-.027.396.091.717.43.924.369.186.371.879-.122.879-.493.061-2.68.602-2.712-1.188v-3.693c.032-.248-.307-.709-.955-.709-.554 0-2.433.092-2.433 1.785v1.51h.001zM22.628 45.299c-.893.277-.339 2.156.832 1.91s1.201-1.447 1.201-2.125c.648-.186 1.048.246 1.017.77-.092 1.447-1.324 2.064-2.618 2.064-2.865 0-3.081-1.664-3.112-3.482-.031-1.816.308-3.604 3.019-3.727 2.711-.123 2.834 2.033 2.865 2.588.031.555-.092 1.016-.493 1.23-.4.217-2.002.586-2.711.772z" fill="#00acec"/><path d="M23.029 41.541c-.616.061-.955.754-.893 2.232 0 .369.46.508.708.479.247-.031 1.017.029 1.017-.832 0-.863.061-2.002-.832-1.879z" fill="#fff"/><path d="M13.201 45.793l-.02-5.557c-.127-.195-.506-.531-.072-.82l1.633-.955c.339-.186.555.029.555.338v2.311c0 .186.268.266.493.199.37-.105.401-.107.801-.262.401-.154 1.201-.275 1.54.309 1.265 2.082 2.039 6.5-1.558 6.5h-3.279c-.893 0-.617-1.016-.339-1.109.228-.077.246-.587.246-.954z" fill="#00acec"/><path d="M15.297 43.326v2.342c0 .523.123 1.264.8 1.264.678 0 1.079-.539 1.079-1.525 0-.984-.462-2.326-.771-2.787-.308-.464-1.108-.341-1.108.706z" fill="#fff"/></svg>