<svg xmlns="http://www.w3.org/2000/svg" width="2500" height="2500" viewBox="0 0 192.756 192.741"><path fill="#35599c" d="M0 192.741h192.756V0H0v192.741z"/><path d="M173.492 115.19h-.281v.704h.281c.211 0 .352-.07.422-.07.07-.071.141-.141.141-.282 0-.14-.07-.211-.141-.281s-.211-.071-.422-.071zm.07-.281c.281 0 .562.07.703.141.141.141.211.281.211.422 0 .212-.07.281-.141.423-.07.069-.211.141-.352.21l.492.915h-.492l-.422-.915h-.352v.915h-.422v-2.11h.775v-.001zm1.618 1.126c0 .21-.07.421-.141.632s-.211.353-.352.493a1.53 1.53 0 0 1-.562.351 1.396 1.396 0 0 1-.633.142c-.211 0-.422-.07-.562-.142a1.5 1.5 0 0 1-.562-.351 2.174 2.174 0 0 1-.352-.493c-.07-.211-.143-.422-.143-.632 0-.211.072-.422.143-.633.07-.212.211-.423.352-.563s.352-.281.562-.352.352-.07.633-.07c.211 0 .422 0 .633.07s.352.211.492.352c.141.211.281.352.352.563.069.211.14.422.14.633zm-1.618-1.899c.211 0 .492.07.703.141s.422.211.633.422c.141.141.281.352.352.633.141.211.141.422.141.704 0 .21 0 .492-.141.703-.07.211-.211.422-.352.633l-.633.421c-.281.071-.492.141-.703.141-.281 0-.492-.069-.773-.141-.213-.14-.422-.281-.562-.421-.211-.211-.354-.422-.422-.633-.143-.211-.143-.493-.143-.703 0-.282 0-.493.143-.704.068-.281.211-.492.422-.633.141-.211.35-.352.562-.422.211-.071.492-.141.773-.141zM31.501 74.893h15.402l13.854 42.618H50.278c-3.165 0-4.29-1.406-4.993-3.516l-1.828-5.768H28.336l-3.164 9.283h-7.877l12.659-37.694c.633-2.25.914-2.743-.985-4.923h2.532zm103.028 42.618h-11.674c-2.391 0-4.148-1.476-4.641-3.234l-5.627-22.364c-.844-3.446-.984-4.008-4.57-4.008h-7.947v9.212h7.947v4.712h-7.947v10.198h9.916c1.266 0 2.461-.281 3.375-1.125l-2.109 6.609H87.763V86.638c-.07-1.97-.844-3.094-2.04-4.22h33.968c3.375 0 4.219 2.04 5.064 5.486l5.836 20.184 5.697-21.38c.42-1.617.703-2.602-.633-4.29h5.766c1.127 0 2.182 1.758 1.195 5.486l-8.087 29.607zm9.075-35.093c1.195 1.126 2.039 2.25 2.039 4.22v30.873h23.277l2.109-6.609c-.914.844-2.18 1.125-3.375 1.125h-9.635v-10.198h7.947v-4.712h-7.947v-9.212h5.205c1.266 0 2.25 0 3.375.915v-6.4c-9.634-.002-13.361-.002-22.995-.002zm-83.902 0c1.196 1.126 2.04 2.25 2.04 4.22v30.873h22.224l2.109-6.609c-.914.844-2.109 1.125-3.375 1.125h-8.087V82.418H59.702zm-23.7 2.954l-5.486 16.456h10.831l-5.345-16.456z" fill-rule="evenodd" clip-rule="evenodd" fill="#edca4b"/></svg>