<svg xmlns="http://www.w3.org/2000/svg" width="2500" height="2500" viewBox="0 0 192.756 192.756"><path fill-rule="evenodd" clip-rule="evenodd" d="M0 0h192.756v192.756H0V0z"/><path fill-rule="evenodd" clip-rule="evenodd" fill="#fff" d="M20.427 97.436l12.47-6.005v1.616l-12.47 6.004v-1.615zM20.427 92.239l-4.272 1.963-1.616-.808 5.888-2.887v1.732zM20.427 99.398l12.47-5.889v1.616l-12.47 6.004v-1.731zM20.427 90.161l-6.119 3.002-1.732-.924 7.851-3.81v1.732zM20.427 101.477l12.47-6.121v1.732l-12.47 6.119v-1.73zM20.427 88.083l-8.082 3.925-1.616-.924 9.698-4.619v1.618zM20.312 97.436l-6.12-3.003v-.23l6.12 2.886v5.658l-6.12-3.002v.346l6.12 3.117v-1.73l-6.12-3.002v-.348l6.12 3.002V99.4l-6.12-2.887v-.463l6.12 3.002v-1.616zm-6.12-3.004l-6.12-3.001v1.617l6.12 3.001v.463l-6.12-3.003v1.617l6.12 3.001v.348l-6.12-3.003v1.616l6.12 3.002v-.346l-6.12-3.117v-5.543l6.12 3.118v.23z"/><path d="M20.312 97.436L8.073 91.431v1.617l12.239 6.003v-1.615zm0 1.962l-12.239-5.89v1.501l12.239 6.119v-1.73zm0 2.079L8.073 95.472v1.616l12.239 6.119v-1.73zM8.073 91.084v5.543l12.239 6.119v-5.658L8.073 91.084z" fill="none" stroke="#fff" stroke-width=".161" stroke-miterlimit="2.613"/><path fill-rule="evenodd" clip-rule="evenodd" fill="#fff" d="M20.427 92.239l4.041 1.963-.231.115-3.81-1.847v-5.658l9.468 4.734.462-.231-9.93-4.965v1.733l8.314 4.041-.462.23-7.852-3.925v1.732l6.12 3.002-.346.231-5.774-2.887v1.732zM141.895 100.205v-.346c.809-.115 1.617-.461 2.193-1.039.693-.693 1.039-1.502 1.039-2.541s-.346-1.962-1.154-2.771c-.576-.693-1.27-1.039-2.078-1.154v-.462c1.154.115 2.078.462 2.771 1.155.924.808 1.385 1.731 1.385 3.001 0 .578-.115 1.154-.346 1.502a3.155 3.155 0 0 1-1.039 1.385c-.809.809-1.732 1.155-2.771 1.27zm15.125-8.197v.347h-.922v8.774c0 .232.115.463.23.578.23 0 .461.115.809.115v.23h-2.771v-.23h.924v-8.544l-2.426 6.005-2.539-5.774v7.044c0 .461.115.809.346 1.039.23.115.463.23.809.23v.23h-2.541v-.23h.924v-8.313c0-.461-.115-.808-.23-.923-.23-.231-.578-.231-.924-.231v-.347h1.848l2.541 5.543 2.193-5.543h1.729zm7.738 10.045h-5.082v-.23h1.039v-8.775c0-.347-.115-.578-.23-.578-.115-.115-.461-.115-.809-.115v-.347h5.082v-.577h.23v3.348h-.23V93.74c0-.115 0-.231-.117-.346 0-.346-.23-.578-.576-.693-.115-.115-.463-.231-.924-.346h-1.502v2.424h1.387v-1.501h.23v3.695h-.23v-.346c0-.463-.115-.809-.232-1.04-.115-.231-.461-.462-.924-.462h-.23v6.697h1.154l.578-.115c.115 0 .346-.115.693-.23.23-.232.461-.463.576-.809 0-.115.117-.23.117-.463v-1.27h.23v3.695h-.23v-.577zm9.236.578h-.23l-4.273-8.429v6.351c0 .461.115.809.348 1.039.23.115.461.23.922.23v.23h-2.539v-.23h.809v-8.313c0-.461-.115-.808-.348-.923-.115-.231-.461-.231-.807-.231v-.347h1.5l4.156 8.314v-6.813c0-.346-.115-.577-.23-.808s-.461-.346-.809-.346v-.347h2.311v.347h-.809v10.276h-.001zm9.352-11.085v3.926h-.23v-.462c0-.461 0-.808-.115-1.155a2.18 2.18 0 0 0-.23-.923c-.232-.231-.348-.346-.693-.462-.23-.115-.693-.115-1.385-.115v8.544c0 .346 0 .578.115.693s.461.23.924.23h.346v.23h-3.232v-.23h.924v-9.468c-.693 0-1.156 0-1.387.115-.23 0-.346.231-.576.462 0 .116-.115.231-.115.346-.117.231-.117.347-.232.577v1.617h-.346v-3.926h.346v.462h5.658v-.462h.228v.001zm-41.451.347v.462c-.23-.116-.461-.116-.693-.116-.461 0-.922.116-1.385.231-.346.231-.809.462-1.039.693v5.773c.346.348.693.463 1.154.693.463.23.924.346 1.387.346.23 0 .461 0 .576-.115v.346c-.23.117-.461.117-.693.117-.346 0-.807-.117-1.154-.117-.461-.115-.924-.23-1.27-.461v1.154c0 .346 0 .578.115.693s.463.23.809.23h.461v.23h-3.232v-.23h.924v-8.775c0-.347-.115-.578-.23-.578-.115-.115-.463-.115-.809-.115v-.347h1.963v.578c.346-.231.809-.347 1.27-.578.463-.115.924-.115 1.387-.115l.459.001zm-13.278 10.392v-.348h.115c1.385 0 2.539-.461 3.463-1.385s1.502-1.963 1.502-3.35c0-1.27-.578-2.54-1.502-3.579-1.039-.924-2.193-1.501-3.578-1.501v-.347h.115c1.615 0 2.887.462 4.041 1.501 1.154.924 1.732 2.194 1.732 3.695 0 1.387-.578 2.771-1.732 3.811-1.269 1.04-2.656 1.503-4.156 1.503zm0-10.508v.347h-.232c-1.27 0-2.424.462-3.348 1.385-1.039.923-1.5 2.079-1.5 3.464 0 1.27.576 2.426 1.5 3.465s2.193 1.5 3.58 1.5v.348h-.115c-1.617 0-3.002-.463-4.158-1.502-1.039-.924-1.615-2.078-1.615-3.58 0-1.5.576-2.771 1.73-3.81 1.271-1.04 2.541-1.617 4.158-1.617zM77.12 102.053v-.576l.231.115h.461l1.155.115c1.27 0 2.425-.463 3.349-1.27 1.039-.809 1.616-1.848 1.616-3.234 0-1.385-.462-2.54-1.501-3.463s-2.194-1.385-3.695-1.385h-.693l-.462.115h-.347s0 .116-.115.116v4.387h2.31v-.23h-.924v-8.775h.924v-.348h-2.31v4.388h2.079c.346 0 .808.116 1.155.116.346 0 .692.115.923.231.693.115 1.27.461 1.732.923a6.086 6.086 0 0 1 1.386 1.617c.115.346.231.577.346.923v.461c.116.232.116.348.116.578 0 1.385-.693 2.656-1.848 3.695-.577.576-1.27.924-2.078 1.154-.693.23-1.616.346-2.425.346H77.12v.001zm15.588 0h-5.081v-.23h1.039v-8.775c0-.347-.115-.578-.231-.578-.115-.115-.462-.115-.808-.115v-.347h5.081v-.577h.231v3.348h-.231V93.74c0-.115 0-.231-.116-.346 0-.346-.231-.578-.577-.693-.116-.115-.462-.231-.924-.346H89.59v2.424h1.386v-1.501h.231v3.695h-.231v-.346c0-.463-.116-.809-.231-1.04-.116-.231-.462-.462-.924-.462h-.231v6.697h1.155l.577-.115c.115 0 .347-.115.693-.23.231-.232.461-.463.577-.809 0-.115.116-.23.116-.463v-1.27h.231v3.695h-.231v-.577zm10.622-9.699l-2.656 10.161h-.346l-3.117-9.238c-.115-.23-.231-.462-.347-.577-.115-.115-.23-.231-.461-.346h-.693v-.347h3.232v.347h-1.154l2.887 8.429 1.732-6.697v-.578l.115-.461a.887.887 0 0 0-.23-.578c-.23-.115-.461-.115-.809-.115h-.115v-.347h2.887v.347h-.925zm8.313 9.699h-4.965v-.23h1.041v-8.775c0-.347-.117-.578-.232-.578-.23-.115-.461-.115-.924-.115v-.347h5.08v-.577h.348v3.348h-.348V93.74v-.346c-.115-.346-.346-.578-.576-.693s-.463-.231-.924-.346h-1.617v2.424h1.387v-1.501h.346v3.695h-.346v-.346c0-.463 0-.809-.117-1.04-.23-.231-.576-.462-1.037-.462h-.232v6.697h1.154l.578-.115c.23 0 .461-.115.693-.23.346-.232.461-.463.576-.809.115-.115.115-.23.115-.463v-1.27h.348v3.695h-.348v-.577zm5.082-9.699v9.468h.346c.346 0 .693-.115.924-.115.346 0 .693-.115 1.039-.346.23-.232.346-.348.461-.578.117-.346.117-.578.117-.924v-2.193h.23v4.965h-.23v-.578h-4.734v-.23h.924v-8.775c0-.347 0-.578-.232-.578-.115-.115-.346-.115-.807-.115v-.347h2.887v.347h-.925v-.001zm-74.821 1.501h-1.271v-.346h1.154l-1.154-3.118v-1.27l.577-1.501h2.771l3.349 9.122h.692v.23h-6.119v-.23h1.154l-1.153-2.887zM77.12 87.62v4.388h-2.31v.347c.462 0 .693 0 .809.115.231 0 .231.231.231.578v8.775h-.924v.23h2.193v-.576l-.346-.115v-8.661c.116-.115.231-.115.346-.115v4.387h-3.694v-.23h.923V88.66l-2.887 8.313h-.577l-2.887-8.313v6.812c0 .577.116.808.231 1.04.231.115.462.23.809.23h.23v.23h-2.655v-.23c.577 0 .924-.463.924-1.271v-7.505h-.924v-.346h5.08l1.271 3.811 1.385-3.811h2.772zm-23.555 9.122v-8.775h-.924v-.347h6.005v.347h-.924v8.775c.577-.115 1.27-.23 1.732-.463.577-.23 1.039-.692 1.385-1.154.347-.577.578-1.386.693-2.31h.346v4.157h-9.237v-.23h.924zm-12.932-2.887h-1.27l-.578 1.732c-.115.231-.115.461-.115.577 0 .231 0 .348.115.348.116.115.231.23.347.23h.577v.23h-2.54v-.23c.346 0 .577-.115.693-.347.231-.231.347-.462.461-.693l2.31-6.581v1.27-.115l-1.039 3.233h1.039v.346z"/><path d="M20.427 84.964l12.47 6.12-12.47 6.119v-1.385l9.583-4.734-9.583-4.734v-1.386zm-12.585 6.12l12.585-6.12v1.386l-9.583 4.734 9.583 4.734v1.385L7.842 91.084z" fill-rule="evenodd" clip-rule="evenodd" fill="#fff"/><path d="M7.842 91.084l12.585-6.12 12.47 6.12-12.47 6.004-12.585-6.004zm3.002 0l9.583-4.734 9.583 4.734-9.583 4.734-9.583-4.734z" fill="none" stroke="#000" stroke-width=".345" stroke-miterlimit="2.613"/></svg>