<svg height="766" viewBox="22.462 22.515 881.081 242.117" width="2500" xmlns="http://www.w3.org/2000/svg"><path d="m469.753 35.945h393.453c22.304 0 40.337 18.08 40.337 40.384v147.966c0 22.304-18.033 40.337-40.337 40.337h-786.934c-22.29 0-40.356-18.033-40.356-40.337v-147.965c0-22.304 18.066-40.384 40.356-40.384" fill="#626262" fill-rule="evenodd"/><path d="m456.276 24.888h388.754c23.585 0 42.71 19.124 42.71 42.71v138.474c0 23.633-19.125 42.758-42.71 42.758h-777.466c-23.6 0-42.73-19.125-42.73-42.758v-138.475c0-23.585 19.13-42.71 42.73-42.71" fill="#38518e" fill-rule="evenodd"/><g fill="#fff"><path d="m843.655 156.481h1.566v-4.981h3.416c.617 0 1.092.095 1.377.237.522.237.759.76.806 1.518l.095 1.899c.048.474.048.759.095.901 0 .19.048.333.095.427h1.946v-.284c-.238-.095-.427-.332-.522-.712a4.154 4.154 0 0 1 -.095-.95l-.095-1.565c0-.665-.143-1.187-.332-1.471-.238-.285-.57-.522-1.044-.712a3.426 3.426 0 0 0 1.233-1.092c.285-.427.428-.996.428-1.66 0-1.33-.57-2.231-1.614-2.753-.57-.237-1.281-.38-2.135-.38h-5.22zm1.566-6.264v-3.938h3.701c.522 0 .902.047 1.234.237.57.285.854.854.854 1.66 0 .76-.19 1.282-.617 1.567s-.949.474-1.708.474zm-665.834-81.75-89.145 90.622h24.133l89.145-90.622zm47.117 0-89.31 90.622h24.134l89.31-90.622zm46.953 0-89.145 90.622h24.133l89.31-90.622zm47.117 0-89.145 90.622h24.133l89.145-90.622zm47.117 0-89.309 90.622h24.133l89.31-90.622zm254.347 90.672h22.683v-90.735h-22.683zm-147.966-90.735h-22.684v90.782h72.654v-19.978h-49.97zm359.902 19.03v-19.03h-54.432c-8.684-.095-11.674.475-16.894 2.42-5.505 1.994-9.633 6.075-11.484 11.437-1.614 3.891-2.515 8.115-2.515 17.037v59.888h85.325v-19.978h-62.642v-17.228h54.48v-18.175h-54.48v-16.371zm-409.92-18.46c-4.509.854-10.868 2.99-17.417 9.586-9.823 9.87-8.494 8.921-79.155 80.579h29.185l66.105-66.39.048 66.39h22.683v-90.735l-15.755-.047s-2.847.047-5.694.617m297.403 58.607s-22.969-29.28-31.368-40.337c-5.173-6.739-12.244-18.745-30.514-18.745-3.132-.142-5.363-.142-9.396-.095v90.735h21.83v-59.746l46.078 59.793h5.648v-.047h19.551v-90.735h-21.83zm-124.855-25.483c-.095 2.752-.522 7.26-10.25 7.26h-34.738v-21.023h34.737c9.729.048 10.156 4.414 10.25 7.261zm-8.59-33.694h-59.414v90.735h23.016v-30.087h36.398c20.074-.19 29.517-8.4 29.517-24.772v-11.816c0-15.328-9.443-23.917-29.517-24.06"/><path d="m839.81 150.644c0-4.603 3.75-8.352 8.353-8.352 4.556 0 8.304 3.75 8.304 8.352s-3.748 8.305-8.304 8.305c-4.603 0-8.352-3.701-8.352-8.305zm-.426 0a8.76 8.76 0 0 0 8.779 8.78c4.84 0 8.779-3.94 8.779-8.78s-3.939-8.779-8.78-8.779a8.76 8.76 0 0 0 -8.778 8.78"/><path d="m839.81 150.644c0-4.603 3.75-8.352 8.353-8.352 4.556 0 8.304 3.75 8.304 8.352s-3.748 8.305-8.304 8.305c-4.603 0-8.352-3.701-8.352-8.305zm-.426 0a8.76 8.76 0 0 0 8.779 8.78c4.84 0 8.779-3.94 8.779-8.78s-3.939-8.779-8.78-8.779a8.76 8.76 0 0 0 -8.778 8.78m-597.184 32.506h9.045l6.715 21.355h.076l6.714-21.355h9.06v28.189h-5.41v-23.253h-.095l-7.602 23.253h-5.42l-7.593-23.253-.076.047v23.206h-5.414zm36.735 17.939c0 5.979 3.986 10.724 10.867 10.724s10.915-4.745 10.915-10.724c0-6.881-4.746-11.058-10.915-11.058-6.122 0-10.867 4.177-10.867 11.058zm5.647-.665c0-3.084 1.709-6.169 5.22-6.169 3.56 0 5.268 2.99 5.268 6.17 0 3.463-1.14 7.212-5.268 7.212s-5.22-3.749-5.22-7.213m21.165 10.915h5.268v-2.563h.095c1.566 2.23 4.08 3.037 6.359 3.037 6.359 0 8.732-5.22 8.732-10.914 0-5.742-2.373-10.868-8.732-10.868-2.848 0-4.746 1.187-6.217 3.18h-.095v-12.149h-5.41zm5.458-10.44c0-2.943 1.376-6.644 4.84-6.644 3.512 0 4.508 3.844 4.508 6.644 0 2.847-.996 6.738-4.603 6.738-3.559 0-4.745-3.796-4.745-6.738m20.168-19.315h5.41v5.173h-5.41zm0 8.97h5.41v20.785h-5.41zm12.054 20.785h5.41v-30.277h-5.41zm28.995-5.552c-2.04 1.091-4.27 2.088-6.928 2.088-3.322 0-5.695-1.899-5.932-5.268h14.379c0-7.26-2.183-12.576-9.871-12.576-6.454 0-9.681 4.983-9.681 11.01 0 6.834 4.034 10.772 10.867 10.772 2.943 0 5.173-.569 7.166-1.66zm-12.86-6.881c.237-2.8 1.803-4.888 4.84-4.888 2.99 0 4.224 2.278 4.366 4.888zm32.791-15.756h9.017l6.739 21.355h.047l6.739-21.355h9.016v28.189h-5.41v-23.253h-.047l-7.593 23.253h-5.41l-7.64-23.253-.048.047v23.206h-5.41zm55.523 22.637c-1.993 1.091-4.27 2.088-6.88 2.088-3.37 0-5.695-1.899-5.933-5.268h14.38c0-7.26-2.184-12.576-9.919-12.576-6.454 0-9.633 4.983-9.633 11.01 0 6.834 3.986 10.772 10.867 10.772 2.895 0 5.173-.569 7.118-1.66zm-12.813-6.881c.238-2.8 1.756-4.888 4.793-4.888s4.224 2.278 4.414 4.888zm33.694 12.433h5.22v-30.277h-5.41v11.912h-.048c-1.66-1.993-3.511-2.943-6.216-2.943-6.407 0-8.732 5.126-8.732 10.868 0 5.694 2.325 10.914 8.732 10.914 2.515 0 4.745-.806 6.359-2.8h.095zm-9.539-10.44c0-2.8.95-6.644 4.46-6.644s4.841 3.701 4.841 6.644-1.139 6.738-4.745 6.738c-3.56 0-4.556-3.891-4.556-6.738m22.494-19.315h5.41v5.173h-5.41zm0 8.97h5.41v20.785h-5.41zm13.43 5.742c1.803-1.377 4.081-2.278 6.406-2.278 3.18 0 4.698 1.139 4.698 4.46h-2.99c-2.277 0-4.935.19-6.975 1.234-2.088.997-3.56 2.8-3.56 5.932 0 3.987 3.56 6.17 7.261 6.17 2.468 0 5.173-1.282 6.407-3.607h.095c.047.664.047 2.04.237 3.132h4.746c-.095-1.614-.19-3.085-.238-4.65-.047-1.52-.047-3.085-.047-5.22v-2.658c0-6.17-2.61-8.78-8.97-8.78-2.325 0-5.172.617-7.26 1.566zm2.752 9.016c0-3.18 3.56-3.607 5.98-3.607h2.372c0 1.661-.237 3.133-1.139 4.319-.854 1.139-2.135 1.85-3.796 1.85-1.946 0-3.417-.806-3.417-2.562m47.883-16.989c-1.756-.76-3.75-1.234-5.695-1.234s-4.46.854-4.46 3.939c0 4.888 12.385 2.847 12.385 12.29 0 6.17-4.888 8.495-10.63 8.495-3.037 0-4.413-.38-7.213-1.091l.522-5.078c1.946 1.044 4.176 1.756 6.359 1.756s5.03-1.091 5.03-3.654c0-5.362-12.338-3.132-12.338-12.48 0-6.312 4.888-8.638 9.823-8.638 2.42 0 4.698.333 6.786 1.044zm6.453 12.766c0 5.979 4.034 10.724 10.868 10.724 6.929 0 10.915-4.745 10.915-10.724 0-6.881-4.746-11.058-10.915-11.058-6.122 0-10.867 4.177-10.867 11.058zm5.648-.665c0-3.084 1.708-6.169 5.22-6.169 3.56 0 5.268 2.99 5.268 6.17 0 3.463-1.092 7.212-5.268 7.212-4.129 0-5.22-3.749-5.22-7.213m20.88 10.915h5.458v-30.277h-5.458zm31.084 0h-5.126v-2.847h-.094c-1.661 2.04-3.987 3.321-6.834 3.321-4.935 0-7.07-3.464-7.07-8.162v-13.098h5.409v11.105c0 2.515.047 5.98 3.512 5.98 3.938 0 4.745-4.272 4.745-6.93v-10.155h5.458zm9.206-16.847h-3.986v-3.939h3.986v-4.176l5.41-1.755v5.931h4.84v3.94h-4.84v9.68c0 1.803.522 3.464 2.562 3.464.997 0 1.899-.19 2.468-.57l.143 4.272c-1.092.332-2.373.474-3.987.474-4.223 0-6.596-2.61-6.596-6.738zm16.514 16.847h5.41v-20.786h-5.41zm0-24.582h5.41v-5.173h-5.41zm10.203 14.332c0 5.979 3.987 10.724 10.82 10.724 6.929 0 10.915-4.745 10.915-10.724 0-6.881-4.698-11.058-10.915-11.058-6.122 0-10.82 4.177-10.82 11.058zm5.648-.665c0-3.084 1.66-6.169 5.172-6.169 3.56 0 5.268 2.99 5.268 6.17 0 3.463-1.092 7.212-5.268 7.212-4.081 0-5.172-3.749-5.172-7.213m21.165-9.871h5.125v2.8h.095c1.66-2.372 3.986-3.322 6.786-3.322 4.935 0 7.07 3.512 7.07 8.163v13.145h-5.41v-11.105c0-2.562-.047-5.979-3.51-5.979-3.892 0-4.746 4.223-4.746 6.881v10.203h-5.41zm39.056 4.366c-1.661-.57-2.848-.901-4.84-.901-1.472 0-3.228.522-3.228 2.278 0 3.321 9.444 1.233 9.444 8.731 0 4.84-4.319 6.786-8.732 6.786-2.04 0-4.176-.332-6.122-.901l.285-4.414c1.708.855 3.512 1.377 5.362 1.377 1.377 0 3.56-.522 3.56-2.563 0-4.081-9.444-1.281-9.444-8.78 0-4.507 3.939-6.5 8.162-6.5 2.563 0 4.224.427 5.932.806z"/></g><path d="m456.276 22.515h388.754c24.866 0 45.082 20.168 45.082 45.082v138.475c0 24.914-20.216 45.13-45.082 45.13h-777.466c-24.91 0-45.102-20.216-45.102-45.13v-138.475c0-24.914 20.192-45.082 45.102-45.082z" fill="none" stroke="#fff" stroke-miterlimit="10" stroke-width="9.49108"/></svg>