<svg xmlns="http://www.w3.org/2000/svg" width="2500" height="2500" viewBox="0 0 192.756 192.756"><path fill="#fff" d="M0 192.756h192.756V0H0v192.756z"/><path d="M19.989 94.652H2.967a21.827 21.827 0 0 1-.08-3.934l17.102 3.613v.321z" fill-rule="evenodd" clip-rule="evenodd" fill="#649945"/><path d="M31.55 92.645l14.532-5.46c.161 1.124.402 2.248.481 3.453L31.71 92.966c-.079-.08-.079-.161-.16-.321z" fill-rule="evenodd" clip-rule="evenodd" fill="#cf432a"/><path d="M20.31 92.565L3.208 88.47c.241-1.445.803-3.533 1.446-4.817l15.736 8.591c0 .16-.08.24-.08.321zM29.784 89.915l9.554-13.729c1.124.963 2.409 2.248 3.131 3.452L30.024 90.076c-.081-.081-.16-.161-.24-.161zM21.434 90.557L6.099 80.843c.803-1.446 3.211-4.095 4.416-5.059l11.16 14.532c-.081.081-.161.081-.241.241zM26.974 88.55l.482-17.663c1.926.241 4.656.883 6.182 1.686L27.295 88.63c-.08 0-.161-.08-.321-.08zM23.843 88.871l-9.876-15.415c2.489-1.365 5.379-2.248 7.868-2.569l2.329 17.904c-.08 0-.241 0-.321.08zM4.413 100.031s-.321-.723-.644-1.686c-.24-.883-.481-2.008-.481-2.008 5.54-.722 14.292-.722 20.232-.722.001.001-11.56 1.043-19.107 4.416zM16.777 112.154s-1.365-.4-3.051-1.363c-1.525-.885-2.97-2.088-2.97-2.088 3.372-4.256 14.291-12.605 24.568-13.087 0 0-10.598 3.693-18.547 16.538z" fill-rule="evenodd" clip-rule="evenodd" fill="#649945"/><path d="M30.507 112.877s-2.57.723-5.781.723c-3.051 0-4.496-.482-4.496-.482.642-2.168 7.948-14.852 16.7-17.501 0-.001-6.745 7.145-6.423 17.26zM8.427 106.535s-.642-.643-1.766-2.248c-1.044-1.445-1.445-2.408-1.445-2.408 2.729-1.768 12.444-6.263 26.254-6.263 0 0-11.963 2.087-23.043 10.919z" fill-rule="evenodd" clip-rule="evenodd" fill="#649945"/><path d="M32.754 121.549l12.285-25.933h6.905l-1.365 25.933h-5.46l.482-5.219h-5.139l-2.087 5.219h-5.621zm14.292-20.475l-4.898 11.482h3.774l1.124-11.482zM51.863 121.549l4.978-19.832h5.379l-.321 1.447c.482-.322 2.329-1.848 4.818-1.848 2.408 0 2.89 1.605 3.051 2.088.562-.322 3.05-2.088 5.218-2.088 3.694 0 2.972 2.889 2.73 3.854l-4.095 16.379h-5.379l3.854-15.656c.16-.402 0-.963-1.044-.963-.803 0-1.445.561-1.686.723l-4.014 15.896h-5.299l3.853-15.656c.081-.16.322-1.043-1.043-1.043-.482 0-1.365.482-1.606.721l-3.934 15.979h-5.46v-.001zM82.453 121.871c-5.058 0-6.503-1.928-5.54-5.861l2.248-8.912c.803-3.051 3.533-5.781 8.35-5.781 6.102 0 5.942 4.174 5.701 5.137l-1.526 6.104h-8.751l-1.044 4.174c-.241 1.045 0 1.848 1.204 1.848 1.124 0 2.008-.803 2.248-1.766l.482-2.008h5.139l-.482 1.926c-.642 2.006-2.73 5.139-8.029 5.139zm2.088-15.656l-.723 2.969h3.452l.723-2.969c.08-.402.321-1.447-1.204-1.447-1.205 0-2.088.642-2.248 1.447zM91.365 121.549l4.898-19.832h5.139l-.482 1.928c2.168-1.525 3.693-2.328 6.824-2.328l-.963 3.773c-.643-.08-1.364-.24-2.088-.24-4.015 0-4.656 2.568-4.978 3.854l-3.211 12.846h-5.139v-.001zM109.751 121.871c-5.059 0-6.503-1.928-5.54-5.861l2.248-8.912c.803-3.051 3.532-5.781 8.351-5.781 6.102 0 5.941 4.174 5.7 5.137l-1.526 6.104h-8.751l-1.044 4.174c-.24 1.045 0 1.848 1.204 1.848 1.125 0 2.008-.803 2.249-1.766l.481-2.008h5.139l-.482 1.926c-.642 2.006-2.73 5.139-8.029 5.139zm2.088-15.656l-.723 2.969h3.453l.722-2.969c.08-.402.321-1.447-1.204-1.447-1.204 0-2.088.642-2.248 1.447zM118.742 121.549l4.979-19.832h5.299l-.4 1.525c.642-.48 2.327-1.926 4.736-1.926 3.935 0 3.131 3.291 2.65 5.219l-3.694 15.014h-5.46l3.533-14.051c.402-1.686.643-2.488-.562-2.488-.642 0-1.283.4-1.766.643l-3.934 15.896h-5.381z" fill-rule="evenodd" clip-rule="evenodd"/><path d="M140.1 115.367c-.963 4.014-.08 6.422 4.496 6.422 4.095 0 5.701-2.088 6.343-4.816l.723-2.891h-3.372l-.401 1.766c-.562 2.168-1.605 3.131-2.971 3.131-1.124 0-1.926-.561-1.204-3.611l3.051-12.605c.723-3.131 1.365-4.496 3.212-4.496 1.525 0 1.846 1.043 1.445 2.729l-.401 1.768h3.372l.643-2.57c.642-2.889-.562-4.737-4.096-4.737-4.896 0-6.824 3.213-7.708 6.825l-3.132 13.085zM153.026 121.549h3.533l6.182-25.853h-3.532l-6.183 25.853zM169.084 98.748h1.847c2.409 0 2.569.32 1.686 4.254-.963 3.934-1.284 4.336-3.772 4.336h-1.847l2.086-8.59zm-9.072 22.801h3.613l2.648-11.24h2.329c4.897 0 6.102-1.365 7.547-7.307s.884-7.306-4.015-7.306h-5.941l-6.181 25.853zM174.544 117.133c-.803 3.211 1.124 4.656 4.416 4.656 4.255 0 6.423-2.328 7.386-6.422.723-3.133.402-4.336-2.248-8.029-2.489-3.371-2.569-4.496-2.168-6.264.482-2.006 1.365-2.809 2.81-2.809 1.446 0 1.848.883 1.446 2.328l-.481 2.088h3.372l.642-2.49c.402-1.766.161-2.729-.321-3.291-.642-.724-1.846-1.446-3.772-1.446-3.935 0-6.344 1.848-7.388 6.102-.803 3.453.562 5.541 2.329 7.869 2.811 3.691 2.811 4.416 2.248 6.584-.401 1.686-1.205 2.969-3.051 2.969-1.446 0-1.847-1.123-1.446-2.809l.563-2.088h-3.613l-.724 3.052z" fill-rule="evenodd" clip-rule="evenodd" fill="#cf432a"/></svg>