<svg xmlns="http://www.w3.org/2000/svg" width="2500" height="2500" viewBox="0 0 192.756 192.756"><path fill="#fff" d="M0 192.756h192.756V0H0v192.756z"/><path d="M9.739 103.02h174.512V49.275H9.739v53.745z"/><path d="M162.321 94.988c-26.871-9.266-40.461-11.119-72.275-2.78-30.578 8.03-56.215 4.942-80.307-3.397V76.147C36.92 86.958 57.923 92.517 90.972 86.34c33.049-6.177 45.714-2.471 71.349 8.648zM137.921 72.75c-22.856-8.958-34.285-10.811-61.465-2.78-25.946 8.031-46.022 4.633-66.717-3.089V55.762c31.196 10.501 39.536 14.517 67.643 8.648 27.798-6.177 38.609-2.162 60.229 8.34h.31z" fill-rule="evenodd" clip-rule="evenodd" fill="#fff"/><path d="M34.449 120.316h.309c-15.444 15.443-17.606 15.135-19.15 15.443-1.235.309-1.544-1.236-1.544-1.545-.001-3.704 2.162-8.339 20.385-13.898zm-4.015 10.194v.307c-.927 1.855-2.78 6.178-2.78 8.65 0 2.162 1.235 4.014 3.706 4.014 3.707 0 14.208-8.338 17.297-12.045l-.618-2.781c-3.088 2.162-7.721 6.178-10.81 6.178-1.236 0-2.471-.617-2.471-1.852 0-3.707 6.795-8.959 6.795-11.43 0-1.854-.926-2.779-2.162-3.396.618 0 2.471-.928 2.471-1.854 0-.928-1.234-3.707-4.941-3.707-8.957.309-28.725 10.193-28.416 19.768 0 4.016 4.633 8.957 6.486 8.957s6.795-4.014 8.34-4.941l7.103-5.868z" fill-rule="evenodd" clip-rule="evenodd"/><path d="M72.44 136.686c-1.853 1.854-4.633 4.943-7.414 4.943-1.853 0-3.087-1.545-3.396-3.398 0-2.162 1.853-5.559 6.795-13.281.309 0 .618-.617.618-.928 0-.309-.309-.617-.618-.617-.618 0-2.471 1.854-3.089 2.471-4.015 4.016-8.339 8.648-11.737 13.281-.927.928-2.162 2.162-3.397 2.162-3.706 0-4.634-6.176-4.634-8.957 0-7.412 8.031-17.605 12.664-16.988 1.236 0 3.398 0 3.398 1.545s-2.162 4.016-3.089 4.941c-1.235 1.854-3.089 3.09-4.015 4.943-.927.926-2.471 2.162-2.471 3.707 0 .307.309.926.617.926.309 0 1.236-1.236 1.545-1.236 3.706-4.016 17.605-17.605 22.547-17.605 2.163 0 3.089 1.545 3.089 3.398 0 3.396-5.251 9.574-7.104 12.662l.309.311 16.988-13.592c.618-.617 2.78-2.16 3.706-2.16.618 0 1.236 1.852 1.545 2.16.309.928 1.235 1.854 1.235 3.09 0 1.234-1.544 3.088-2.162 4.016-6.177 6.486-6.486 7.721-6.795 9.574 0 .928.926 2.162 1.853 1.854 1.853-.309 2.471-.309 12.046-6.795l.309 3.398c-3.396 3.088-14.517 12.045-18.84 12.045-2.471 0-4.015-2.162-4.015-4.324 0-4.016 3.706-9.266 5.868-12.664h-.31L72.44 136.686z" fill-rule="evenodd" clip-rule="evenodd"/><path d="M124.331 117.846c.616-.928 3.088-4.324 4.324-4.324.617 0 3.705.617 3.705 1.543 0 1.236-1.234 3.09-1.853 4.016-1.544 2.471-6.795 11.43-6.795 14.209 0 .926.309 1.543 1.234 1.543 2.162 0 5.869-4.322 7.723-5.559-.618-2.781-.618-4.324 3.397-9.576 1.235-1.543 4.324-5.25 6.486-5.25 1.853 0 2.471 2.471 2.471 3.707 0 4.324-2.779 7.721-5.251 10.811.927.617 1.546 1.234 2.78 1.234 1.853 0 4.633-2.471 6.177-3.396v3.396c-2.162 2.162-4.941 4.324-8.339 4.324-2.162 0-3.089-.309-4.633-1.234-3.398 2.471-9.266 9.266-13.591 9.266-1.235 0-1.854-.617-2.779-1.236-.927-1.234-1.853-1.852-1.236-9.266-3.088 2.779-8.029 9.576-12.046 9.266-4.015-.309-8.029-4.014-8.029-10.191.309-5.869 2.779-8.959 6.485-12.973 6.486-6.486 8.031-6.795 9.575-6.795 3.398.309 4.633 1.234 4.633 2.471 0 4.016-10.192 12.354-13.282 14.824 0 .311-.616 2.781-.616 4.326 0 .617.308 1.543.926 1.543 1.236 0 6.486-4.633 7.413-5.559l11.121-11.12z" fill-rule="evenodd" clip-rule="evenodd"/><path d="M169.734 120.316c-15.135 15.443-17.605 15.135-19.149 15.443-1.236.309-1.545-1.236-1.545-1.545 0-3.704 2.162-8.339 20.694-13.898zm-4.323 10.194l.308.307c-1.235 1.855-3.088 6.178-3.088 8.65 0 2.162 1.234 4.014 3.706 4.014 3.707 0 14.208-8.338 17.605-12.045l-.618-2.781c-3.396 2.162-7.722 6.178-11.118 6.178-1.236 0-2.472-.617-2.472-1.852 0-3.707 6.795-8.959 6.795-11.43 0-1.854-.617-2.779-2.161-3.396.617 0 2.779-.928 2.779-1.854 0-.928-1.545-3.707-5.251-3.707-8.648.309-28.725 10.193-28.416 19.768 0 4.016 4.634 8.957 6.795 8.957 1.854 0 6.486-4.014 8.031-4.941l7.105-5.868z" fill-rule="evenodd" clip-rule="evenodd"/></svg>