<svg xmlns="http://www.w3.org/2000/svg" width="2500" height="2500" viewBox="0 0 192.756 192.756"><path fill="#fff" d="M0 192.756h192.756V0H0v192.756z"/><path d="M44.486 119.051c-.513 0-1.048 0-1.048-.621v-5.969c0-2.033-1.113-2.803-2.653-2.803-1.305 0-2.396.941-3.338 1.582v-1.389l-.235-.193c-.471.193-.984.492-1.476.662-.557.193-1.284.451-1.947.621v.514c.256.064.492.15.748.215.471.129.514.256.514.621v6.096c0 .393-.173.553-.441.617-.446-.098-.753-.359-.948-.83-.278-.643-.535-1.434-.792-2.203l-3.937-11.297c-.063-.172-.129-.365-.193-.535-.043-.064-.085-.064-.15-.064-.064 0-.107.021-.171.043a10.92 10.92 0 0 1-1.947.92c-.128.812-.513 1.883-.791 2.674l-3.424 9.928c-.321.898-1.027 1.412-1.861 1.412h-.128v.643c.77-.043 1.54-.086 2.31-.086.856 0 1.733.043 2.589.086v-.643h-.235c-.706 0-1.604-.107-1.604-.771 0-.385.257-.939.471-1.668l.685-2.246h4.856l.835 2.502c.235.686.428 1.264.428 1.541 0 .557-.835.643-1.327.643h-.235v.643c1.091-.043 2.161-.086 3.208-.086.527 0 1.038.01 1.54.027v.059c.218-.012.437-.023.658-.033.252.01.504.021.755.033v-.064c.381-.014.765-.021 1.154-.021.813 0 1.626.043 2.439.086v-.643h-.321c-.535 0-1.027 0-1.027-.535v-6.525c.471-.299 1.263-.727 1.969-.727.963 0 1.626.492 1.626 1.818v5.391c0 .578-.621.578-1.049.578h-.214v.643c.856-.043 1.691-.086 2.546-.086.813 0 1.605.043 2.418.086v-.643h-.257v-.003zM25.671 76.913c-3.171 0-5.414 2.378-5.414 5.482 0 .751.128 1.455.364 2.093-.683 1.505-1.978 2.465-3.78 2.465-3.806 0-5.518-3.443-5.518-6.847 0-3.544 1.732-6.182 5.034-6.182 3.021 0 3.947 1.631 4.511 3.604l.604-.081c-.141-1.147-.161-2.275-.161-3.403-1.893-.282-2.658-1.007-5.014-1.007-4.148 0-7.793 2.639-7.793 7.189 0 5.115 3.363 7.612 7.893 7.612 1.853 0 4.703-1.821 4.765-2.276.936 1.423 2.536 2.314 4.509 2.314 3.058 0 5.459-2.515 5.459-5.618 0-3.216-2.174-5.345-5.459-5.345z" fill-rule="evenodd" clip-rule="evenodd"/><path d="M30.223 86.857h.158c.657 0 1.178 0 1.178-.702v-6.456c0-.385-.045-.521-.544-.657-.271-.068-.521-.158-.792-.227v-.543c.702-.181 1.472-.453 2.061-.657.521-.181 1.065-.499 1.563-.702l.249.204v1.473c.974-.634 2.288-1.676 3.511-1.676 1.246 0 2.22.543 2.672 1.699 1.157-.725 2.471-1.699 3.67-1.699 1.631 0 2.832.974 2.832 2.967v6.275c0 .612.408.702 1.019.725h.295v.657a46.739 46.739 0 0 0-2.537-.091c-.906 0-1.79.045-2.674.091v-.68h.318c.589 0 1.042-.09 1.042-.679v-5.664c0-1.336-.612-1.902-1.744-1.902-.68 0-1.542.385-2.062.679v6.841c0 .635.43.725 1.042.725h.294v.68a46.703 46.703 0 0 0-2.537-.091c-.906 0-1.789.045-2.695.091v-.68h.272c.611 0 1.086-.09 1.086-.725v-5.618c0-1.336-.612-1.902-1.744-1.902-.703 0-1.563.43-2.062.838v6.682c0 .703.612.725 1.133.725h.272v.68c-.884-.046-1.745-.091-2.605-.091-.929 0-1.835.045-2.673.091v-.681h.002z" fill-rule="evenodd" clip-rule="evenodd"/><path d="M55.934 85.022c-.906 1.609-2.446 2.855-4.349 2.855-2.854 0-4.396-2.651-4.396-5.256 0-2.877 1.926-5.708 5.006-5.708 2.334 0 3.558 1.744 3.558 4.009l-.272.25h-6.116c0 2.333 1.065 4.644 3.511 4.644 1.088 0 1.971-.408 2.696-1.223l.362.429zM63.437 86.291c0 .566.521.566 1.087.566h.34v.68a48.446 48.446 0 0 0-2.583-.091c-.928 0-1.835.045-2.718.091v-.68c.725 0 1.336 0 1.336-.725V75.461c0-.521-.067-.725-.588-.928l-.748-.295v-.544c1.019-.249 2.514-.815 3.625-1.359l.249.204v6.05c.996-.68 2.152-1.676 3.533-1.676 1.631 0 2.809.815 2.809 2.967v6.32c0 .657.567.657 1.11.657h.272v.68c-.861-.046-1.699-.091-2.56-.091-.906 0-1.789.045-2.695.091v-.68h.226c.453 0 1.11 0 1.11-.611v-5.709c0-1.404-.702-1.925-1.721-1.925-.748 0-1.586.453-2.084.77v6.909z" fill-rule="evenodd" clip-rule="evenodd"/><path d="M75.992 76.913c3.285 0 5.459 2.129 5.459 5.347 0 3.103-2.401 5.618-5.459 5.618-3.194 0-5.414-2.334-5.414-5.482 0-3.105 2.243-5.483 5.414-5.483z" fill-rule="evenodd" clip-rule="evenodd"/><path d="M81.186 86.857h.158c.657 0 1.178 0 1.178-.702v-6.456c0-.385-.045-.521-.544-.657-.271-.068-.521-.158-.792-.227v-.543c.702-.181 1.472-.453 2.061-.657.521-.181 1.065-.499 1.563-.702l.249.204v1.473c.974-.634 2.288-1.676 3.511-1.676 1.246 0 2.22.543 2.673 1.699 1.156-.725 2.47-1.699 3.67-1.699 1.631 0 2.832.974 2.832 2.967v6.275c0 .612.408.702 1.019.725h.294v.657a46.666 46.666 0 0 0-2.536-.091c-.906 0-1.79.045-2.673.091v-.68h.317c.589 0 1.042-.09 1.042-.679v-5.664c0-1.336-.612-1.902-1.745-1.902-.679 0-1.54.385-2.062.679v6.841c0 .635.43.725 1.042.725h.295v.68a46.776 46.776 0 0 0-2.538-.091c-.906 0-1.789.045-2.695.091v-.68h.272c.611 0 1.087-.09 1.087-.725v-5.618c0-1.336-.612-1.902-1.744-1.902-.703 0-1.563.43-2.062.838v6.682c0 .703.612.725 1.133.725h.272v.68c-.884-.046-1.745-.091-2.605-.091-.929 0-1.835.045-2.673.091v-.681h.001zM107.35 85.022c-.906 1.609-2.446 2.855-4.349 2.855-2.854 0-4.396-2.651-4.396-5.256 0-2.877 1.927-5.708 5.007-5.708 2.333 0 3.557 1.744 3.557 4.009l-.272.25h-6.115c0 2.333 1.064 4.644 3.511 4.644 1.087 0 1.971-.408 2.695-1.223l.362.429zM31.553 92.518c-3.172 0-5.414 2.379-5.414 5.482 0 1.289.372 2.441 1.031 3.354a2.135 2.135 0 0 1-1.145.293c-.634 0-1.2-.271-1.2-1.223V94.15h2.695v-1.269h-2.695v-2.424l-.272-.136c-1.02 1.314-2.402 2.628-3.625 3.285v.544h1.359v6.975c0 1.27.567 2.357 2.288 2.357 1.225 0 2.145-.674 2.951-1.691.96 1.055 2.36 1.691 4.027 1.691 3.058 0 5.459-2.514 5.459-5.617 0-3.217-2.175-5.347-5.459-5.347zM46.751 101.941c-1.133.998-1.835 1.541-3.398 1.541-2.198 0-4.01-2.129-4.01-4.803 0-3.579 2.741-6.162 5.55-6.162.861 0 1.654.182 2.628.635.113-.068.43-.34.747-.589.295-.227.589-.453.771-.453.204 0 .317.158.317.385-.046.566-.046 1.064-.068 1.563v12.935c0 .68.589.68 1.086.68h.25v.68a56.94 56.94 0 0 0-2.831-.092c-.906 0-1.835.045-2.741.092v-.68h.453c.657 0 1.246 0 1.246-.703v-5.029zM77.326 91.842c-.771 0-1.382-.612-1.382-1.405 0-.748.612-1.382 1.382-1.382.77 0 1.382.634 1.382 1.382 0 .793-.612 1.405-1.382 1.405zM94.273 92.972c-.703 0-1.405-.046-2.107-.091v.679h.294c.566 0 1.064.069 1.064.521 0 .363-.113.771-.295 1.247L91.44 99.95h-.045l-1.994-5.233c-.113-.295-.226-.612-.226-.816 0-.34.634-.34.974-.34h.204v-.679c-.839.045-1.677.091-2.515.091-.388 0-.772-.01-1.155-.024v-.067h-2.696v-2.424l-.272-.136c-1.019 1.314-2.401 2.628-3.624 3.285v.544h1.359v6.975c0 1.27.565 2.357 2.288 2.357 1.291 0 2.242-.748 3.081-1.857l-.295-.385c-.43.271-.77.406-1.336.406-.635 0-1.201-.271-1.201-1.223V94.15h2.382c.093.169.186.378.291.634l3.421 8.564-1.156 2.785a1.858 1.858 0 0 0-1.132-.34c-.725 0-1.223.611-1.223 1.246 0 .77.543 1.314 1.291 1.314.815 0 1.382-.68 1.721-1.496l4.623-11.28c.657-1.609.906-2.017 1.313-2.017h.385v-.679c-.52.045-1.088.091-1.63.091zM94.034 103.289c-.761 0-1.431-.652-1.431-1.449 0-.762.67-1.451 1.431-1.451.762 0 1.45.689 1.45 1.451 0 .797-.671 1.449-1.45 1.449z" fill-rule="evenodd" clip-rule="evenodd"/><path d="M50.469 105.33l-.016-.283c.834-.205 3.252-.758 3.252-.758v14.355l1.241-.129v.557c-.257.043-.985.213-1.712.428-.749.234-1.477.428-1.733.514l-.171-.129v-1.326c-1.07.941-1.733 1.455-3.231 1.455-2.075 0-3.787-2.012-3.787-4.535 0-3.381 2.589-5.82 5.242-5.82.749 0 1.262.107 1.754.342v-4.428c-.062-.11-.839-.243-.839-.243zM63.182 117.318c-.856 1.52-2.311 2.695-4.108 2.695-2.696 0-4.151-2.504-4.151-4.963 0-2.719 1.819-5.393 4.729-5.393 2.203 0 3.359 1.648 3.359 3.787l-.257.236h-5.777c0 2.203 1.006 4.385 3.317 4.385 1.026 0 1.861-.385 2.545-1.156l.343.409zM67.741 118.537c0 .514.578.514 1.583.514h.321v.643c-1.005-.021-2.011-.086-3.017-.086-.898 0-1.775.064-2.674.086v-.643h.214c.727 0 1.177-.086 1.177-.578v-5.861c0-.729-.128-.941-.664-1.027-.235-.043-.449-.086-.684-.129v-.514c1.134-.213 2.289-.705 3.509-1.283l.235.129v1.496h.043c.385-.619 1.348-1.625 2.46-1.625.728 0 1.369.363 1.369 1.283 0 .814-.534 1.283-1.198 1.283-.834 0-.834-.834-1.497-.834-.514 0-1.177.408-1.177 1.479v5.667zM76.938 112.59c-.106-1.221-.556-2.141-1.925-2.141-.728 0-1.455.449-1.455 1.285 0 2.354 4.428 1.818 4.428 5.113 0 2.332-1.86 3.166-3.637 3.166-1.027 0-1.797-.299-2.524-.557l-.193-2.396.599-.127c.129 1.176.835 2.309 2.098 2.309.833 0 1.604-.471 1.604-1.432 0-2.076-4.3-1.734-4.3-5.051 0-1.904 1.455-3.102 3.423-3.102.963 0 1.712.213 2.525.535-.021.492-.064.984-.064 1.477 0 .277 0 .555.021.812l-.6.109zM88.042 117.318c-.856 1.52-2.311 2.695-4.108 2.695-2.696 0-4.151-2.504-4.151-4.963 0-2.719 1.819-5.393 4.728-5.393 2.204 0 3.359 1.648 3.359 3.787l-.256.236h-5.777c0 2.203 1.006 4.385 3.315 4.385 1.027 0 1.862-.385 2.546-1.156l.344.409zM88.085 119.051h.15c.621 0 1.113 0 1.113-.664v-6.096c0-.365-.043-.492-.514-.621-.256-.064-.492-.15-.75-.215v-.514c.665-.17 1.391-.428 1.947-.621.493-.17 1.006-.469 1.477-.662l.235.193v1.389c.941-.641 2.032-1.582 3.337-1.582 1.54 0 2.653.77 2.653 2.803v5.969c0 .621.534.621 1.049.621h.257v.643c-.813-.043-1.605-.086-2.418-.086-.856 0-1.69.043-2.546.086v-.643h.214c.428 0 1.048 0 1.048-.578v-5.391c0-1.326-.663-1.818-1.625-1.818-.707 0-1.498.428-1.969.727v6.525c0 .535.492.535 1.027.535h.321v.643a46.208 46.208 0 0 0-2.439-.086c-.877 0-1.733.043-2.568.086v-.643h.001zM101.464 119.846c-.762 0-1.432-.654-1.432-1.451 0-.76.67-1.449 1.432-1.449.761 0 1.449.689 1.449 1.449 0 .796-.669 1.451-1.449 1.451zM176.196 70.484l-3.261.349c-.128-1.285-.2-2.116-.2-2.363 0-.649-.01-.812-.263-1.089-.103-.114-1.195-.106-1.195-.106-21.762 1.243-53.774-.486-54.096-.504-.872 0-1.458 1.19-1.458 1.19-.512 19.466-5.112 51.279-5.158 51.576-.143.934-.064 1.85-.021 1.854 0 0 1.885.096 3.343.135.122.428.264 1.266.011 2.447 0 0 54.747-.631 70.354 2.012 0-.001-7.804-11.579-8.056-55.501z" fill-rule="evenodd" clip-rule="evenodd"/><path d="M117.161 67.148c.32.018 32.355 1.748 54.139.504 0 0 .64-.048.862.079.196.112.195.433.195.739 0 2.117 5.231 46.952 6.298 52.516l-.004-.035c0-.039.012-.057.012-.057-.002.002-.198.27-1.723.371-.387.027-65.998-.234-65.998-.234-.002-.002-.193-.199-.004-1.436.046-.299 4.65-32.138 5.163-51.625l-.02.08c.005-.008.462-.902 1.08-.902z" fill-rule="evenodd" clip-rule="evenodd" fill="#fff"/><path d="M177.002 119.311c-2.233-10.607-6.431-49.447-6.473-49.838l-.062-.582-.585.021c-13.917.497-51.189-.245-51.564-.252l-.621-.013-.021.62c-.372 10.609-5.294 49.328-5.344 49.718l-.081.637.639.068c7.127.75 61.203.396 63.501.381l.771-.006-.16-.754z" fill-rule="evenodd" clip-rule="evenodd"/><path d="M113.662 118.492c.637-5.045 4.755-37.935 5.246-48.563 4.86.093 37.089.685 50.434.259.522 4.793 4.154 37.8 6.274 48.628-6.568.039-53.316.301-61.954-.324z" fill-rule="evenodd" clip-rule="evenodd" fill="#fff"/><path fill-rule="evenodd" clip-rule="evenodd" d="M118.304 85.586h51.978l3.02 23.158h-57.516l2.518-23.158z"/><path d="M146.571 106.316s11.281-8.299 12.967-9.596c1.686-1.295 7.434-4.667 7.434-6.699s-2.809-2.233-2.809-2.233H125.02s-2.637.075-2.705 2.401c-.059 2.03 5.455 5.235 7.142 6.531 1.686 1.297 12.966 9.596 12.966 9.596s1.883 1.342 4.148 0z" fill-rule="evenodd" clip-rule="evenodd" fill="#fff"/><path d="M144.481 88.04h-19.088s-2.727.105-2.727 2.077c0 1.971 5.58 5.244 7.216 6.502 1.636 1.26 12.585 9.312 12.585 9.312s1.406.84 2.035.547l-.021-18.438zM79.682 102.463c-.566 0-1.087 0-1.087-.566v-9.173l-.25-.205c-.498.205-1.042.521-1.563.703-.589.204-1.359.476-2.061.657v.543c.272.068.521.159.793.227.498.136.543.272.543.657v6.457c0 .609-.395.689-.931.699-.563-.01-1.019-.102-1.019-.723V88.701h-3.47v.502s.687.121.933.821v11.713c0 .643-.48.715-1.094.725.115-.127.23-.264.346-.408l-.294-.43c-.136.137-.431.295-.635.295-.634 0-.702-.703-.702-1.678v-4.665c0-1.995-1.064-3.059-3.058-3.059-.453 0-.861.023-1.359.318-.861.521-1.699.951-2.447 1.336-.702.362-1.246 1.042-1.246 1.926 0 .34.182.521.431.521.34 0 1.563-.295 1.608-.906.091-1.292.431-1.632 1.744-1.632 1.02 0 1.79.522 1.79 1.858v1.27l-2.809.994c-1.608.59-3.058 1.135-3.058 2.922 0 .367.065.691.182.975h-.329c-.475 0-.611-.227-.611-.836v-6.548c0-.702.022-1.405.113-2.061l-.227-.137c-1.064.454-2.944.612-4.1.68v.544l1.133.362c.454.159.545.249.545.725v5.866c-.521.43-1.292.951-2.131.951-1.042 0-1.676-.521-1.676-1.857v-5.073c0-.702.068-1.405.113-2.061l-.226-.137c-1.088.386-2.538.612-3.852.68v.544l.952.272c.408.113.476.249.476.589v6.208c0 1.562.747 2.672 2.764 2.672 1.312 0 2.604-.975 3.579-1.812v1.631l.226.182c1.103-.451 2.407-.633 3.58-.834.452.543 1.161.834 1.958.834 1.45 0 2.469-.814 3.466-1.812.091 1.064.634 1.812 1.722 1.812.771 0 1.303-.297 1.79-.77v.43c.838-.045 1.767-.09 2.695-.09.606 0 1.2.021 1.792.049v.041c.269-.014.542-.014.813 0v-.039a40.967 40.967 0 0 1 1.905-.051c.861 0 1.722.045 2.583.09v-.68h-.34z" fill-rule="evenodd" clip-rule="evenodd"/><path d="M23.021 82.463c0 1.925.588 4.598 2.786 4.598 2.107 0 2.56-2.197 2.56-4.259 0-1.653-.544-5.051-2.741-5.051-2.401 0-2.605 2.854-2.605 4.712zM51.993 80.492c1.223 0 1.404-.023 1.404-.838 0-.884-.565-1.903-1.585-1.903-1.382 0-2.153 1.314-2.402 2.741h2.583zM73.342 82.463c0 1.925.589 4.598 2.786 4.598 2.106 0 2.56-2.197 2.56-4.259 0-1.653-.544-5.051-2.741-5.051-2.402 0-2.605 2.854-2.605 4.712zM103.409 80.492c1.223 0 1.403-.023 1.403-.838 0-.884-.565-1.903-1.585-1.903-1.382 0-2.152 1.314-2.402 2.741h2.584zM28.901 98.068c0 1.926.589 4.6 2.787 4.6 2.106 0 2.56-2.197 2.56-4.26 0-1.652-.543-5.051-2.741-5.051-2.402 0-2.606 2.854-2.606 4.711zM46.751 94.988c-.408-.838-1.337-1.45-2.243-1.45-2.039 0-2.628 2.197-2.628 4.009 0 2.447 1.224 4.373 3.013 4.373.725 0 1.473-.387 1.858-.68v-6.252zM66.654 98c-1.246.408-3.33.84-3.33 2.447 0 .975.498 1.473 1.382 1.473 1.042 0 1.699-.861 1.948-1.201V98zM26.922 107.025h-.042l-1.99 6.121h4.001l-1.969-6.121zM51.309 111.99c-.385-.791-1.262-1.369-2.118-1.369-1.925 0-2.481 2.074-2.481 3.787 0 2.311 1.156 4.129 2.846 4.129.685 0 1.39-.363 1.754-.643v-5.904h-.001zM59.459 113.037c1.155 0 1.327-.02 1.327-.789 0-.834-.535-1.799-1.498-1.799-1.305 0-2.033 1.242-2.268 2.588h2.439zM84.318 113.037c1.155 0 1.326-.02 1.326-.789 0-.834-.535-1.799-1.498-1.799-1.304 0-2.032 1.242-2.267 2.588h2.439z" fill-rule="evenodd" clip-rule="evenodd" fill="#fff"/><path d="M130.25 82.417c-.295-.065-.513-.238-.643-.55-.184-.425-.354-.948-.523-1.458 0 0-2.646-7.586-2.732-7.826-.027-.043-.056-.043-.099-.043-.042 0-.07.015-.113.029-.27.169-.835.452-1.288.608-.085.538-.339 1.246-.522 1.769l-2.266 6.567c-.212.595-.679.934-1.23.934h-.085v.425c.509-.027 1.019-.057 1.528-.057.566 0 1.146.029 1.712.057v-.425h-.155c-.468 0-1.062-.07-1.062-.509 0-.255.171-.623.312-1.104l.453-1.486h3.213l.552 1.656c.155.453.283.834.283 1.019 0 .368-.553.424-.878.424h-.155v.425c.721-.027 1.429-.057 2.122-.057.349 0 .686.008 1.019.019v.038l.559-.021v-.434h-.002zM130.065 81.049l.444.017v-.032c.217-.007.437-.012.657-.012.464 0 .927.022 1.391.044v-.33h-.183c-.306 0-.586 0-.586-.275v-3.357c.269-.154.72-.374 1.123-.374.548 0 .926.253.926.935v2.774c0 .297-.354.297-.597.297h-.123v.33c.487-.022.964-.044 1.451-.044.463 0 .916.022 1.379.044v-.33h-.147c-.292 0-.597 0-.597-.319v-3.071c0-1.046-.635-1.442-1.513-1.442-.743 0-1.366.484-1.902.815v-.716l-.135-.099c-.268.099-.561.253-.841.341-.316.099-.731.232-1.109.32v.264c.146.033.28.077.427.11.268.066.293.132.293.319v3.137c0 .201-.205.283-.358.317v.337zM139.715 73.677l-.009-.146c.475-.104 1.854-.389 1.854-.389v7.384l.708-.066v.286c-.146.022-.562.11-.976.22-.428.121-.842.22-.988.264l-.098-.066v-.682c-.609.484-.987.748-1.841.748-1.184 0-2.159-1.034-2.159-2.333 0-1.739 1.476-2.994 2.987-2.994.427 0 .721.055 1.001.176v-2.278c-.036-.056-.479-.124-.479-.124zM147.087 79.907c-.488.782-1.317 1.387-2.342 1.387-1.535 0-2.365-1.288-2.365-2.554 0-1.398 1.037-2.774 2.695-2.774 1.256 0 1.915.848 1.915 1.948l-.146.121h-3.293c0 1.135.573 2.257 1.89 2.257.586 0 1.062-.198 1.451-.595l.195.21zM149.935 80.472c0 .264.33.264.903.264h.183v.33c-.572-.011-1.146-.044-1.72-.044-.512 0-1.012.033-1.524.044v-.33h.122c.414 0 .671-.044.671-.297v-3.016c0-.375-.074-.484-.379-.528l-.39-.066v-.264c.646-.11 1.305-.364 2-.661l.134.066v.771h.025c.219-.319.768-.837 1.401-.837.415 0 .781.188.781.661 0 .418-.305.66-.683.66-.477 0-.477-.429-.854-.429-.293 0-.671.208-.671.759v2.917h.001zM155.747 77.412c-.062-.627-.317-1.101-1.098-1.101-.415 0-.83.232-.83.661 0 1.211 2.525.935 2.525 2.63 0 1.2-1.061 1.629-2.073 1.629-.586 0-1.024-.154-1.438-.286l-.11-1.232.341-.066c.073.606.477 1.189 1.195 1.189.476 0 .915-.242.915-.737 0-1.068-2.451-.892-2.451-2.598 0-.979.829-1.596 1.951-1.596.549 0 .976.11 1.439.275-.013.253-.036.507-.036.76 0 .143 0 .286.012.418l-.342.054zM161.95 79.844c-.488.782-1.317 1.387-2.343 1.387-1.536 0-2.366-1.288-2.366-2.553 0-1.398 1.037-2.774 2.696-2.774 1.256 0 1.914.848 1.914 1.948l-.146.121h-3.293c0 1.134.572 2.257 1.89 2.257.586 0 1.062-.198 1.452-.595l.196.209zM162.29 80.736h.084c.354 0 .636 0 .636-.341v-3.137c0-.187-.025-.253-.293-.319-.147-.033-.281-.077-.427-.11v-.264c.378-.088.793-.221 1.109-.32.28-.088.573-.242.842-.341l.134.099v.716c.536-.331 1.159-.815 1.902-.815.878 0 1.513.396 1.513 1.442v3.071c0 .319.305.319.598.319h.146v.33c-.463-.022-.914-.044-1.379-.044-.487 0-.963.022-1.45.044v-.33h.122c.243 0 .597 0 .597-.297v-2.774c0-.682-.378-.935-.927-.935-.402 0-.854.22-1.122.374v3.357c0 .275.28.275.586.275h.183v.33c-.464-.022-.927-.044-1.391-.044-.5 0-.987.022-1.463.044v-.33z" fill-rule="evenodd" clip-rule="evenodd"/><path fill-rule="evenodd" clip-rule="evenodd" fill="#fff" d="M125.148 74.598h-.027l-1.316 4.047h2.646l-1.303-4.047zM140.194 77.104c-.22-.407-.72-.704-1.207-.704-1.099 0-1.416 1.067-1.416 1.948 0 1.188.659 2.124 1.622 2.124.392 0 .794-.188 1.001-.33v-3.038zM144.966 77.706c.658 0 .756-.011.756-.407 0-.429-.305-.925-.854-.925-.744 0-1.159.639-1.293 1.332h1.391zM159.827 77.643c.658 0 .757-.011.757-.407 0-.429-.306-.925-.854-.925-.744 0-1.158.639-1.292 1.332h1.389z"/><path d="M152.208 94.98l-1.758 3.659h-.452l-3.355-6.947c-.267-.544-.44-1.042-1.159-1.042h-.199v-.347c.506 0 1.278.046 1.918.046.559 0 1.251-.046 1.677-.046v.347h-.119c-.307 0-.573.046-.573.278 0 .149.12.498.453 1.204l2.184 4.491 1.078-2.28-1.665-3.369c-.133-.278-.466-.324-.812-.324v-.347c.626 0 1.252.046 1.877.046.493 0 .972-.046 1.465-.046.426 0 .852.046 1.278.046.399 0 .799-.046 1.198-.046v.347h-.187c-.666 0-.826.231-1.158.891l-.786 1.598 1.639 3.392 2.05-4.91c.08-.195.2-.485.2-.636 0-.266-.24-.336-.799-.336h-.16v-.347c.439 0 .879.046 1.318.046.399 0 .785-.046 1.186-.046v.347h-.16c-.4 0-.626.405-.786.764l-3.142 7.225h-.467l-1.784-3.658z" fill-rule="evenodd" clip-rule="evenodd"/><path d="M153.3 91.495c.093-.22.173-.37.173-.485 0-.301-.306-.359-.746-.359-.358 0-.652.058-.652.301 0 .174.106.336.214.557l.506 1.042h.025l.48-1.056zM135.952 96.546c-.133.394-.293.694-.293.903 0 .359.559.416.999.416h.146v.348a37.616 37.616 0 0 0-1.611-.045c-.479 0-.959.021-1.438.045v-.348h.08c.519 0 .959-.277 1.158-.764 0 0 3.319-7.767 3.572-7.906.04-.011.141 0 .181 0s2.851 7.003 2.851 7.003c.16.416.32.846.493 1.191.159.336.438.475.879.475h.079v.348c-.6-.023-1.198-.045-1.837-.045-.652 0-1.318.021-1.997.045v-.348h.146c.307 0 .825-.045.825-.346 0-.152-.12-.465-.266-.834l-.521-1.356h-3.021l-.425 1.218z" fill-rule="evenodd" clip-rule="evenodd" fill="#fff"/><path fill-rule="evenodd" clip-rule="evenodd" d="M138.085 92.408h-.027l-.987 2.263h2.05l-1.036-2.263zM122.2 112.545c.045-.105.126-.297.126-.408s-.076-.146-.166-.166c-.076-.016-.142.004-.142-.086 0-.086.08-.111.146-.111.109 0 .221.021.342.021s.241-.021.356-.021c.077 0 .168.025.168.121s-.071.061-.147.076c-.216.045-.221.125-.307.312 0 0-1.041 2.422-1.133 2.621-.029.057-.08.082-.146.082-.111 0-.136-.086-.171-.172l-.494-1.123-.583 1.082c-.061.107-.086.213-.222.213-.105 0-.142-.121-.176-.203l-1.072-2.379a2.03 2.03 0 0 0-.191-.354c-.051-.064-.096-.07-.176-.08-.076-.012-.157-.012-.157-.105 0-.096.102-.092.172-.092.222 0 .434.021.654.021.161 0 .321-.021.488-.021.07 0 .166.012.166.102 0 .08-.056.092-.121.096-.056.004-.101.02-.101.096 0 .045.056.166.07.201l.78 1.756.222-.377c.035-.061.102-.162.102-.232 0-.033-.006-.039-.021-.074l-.453-1.041c-.031-.066-.071-.162-.11-.229-.047-.064-.087-.074-.162-.1-.056-.021-.096-.035-.096-.096 0-.102.09-.102.166-.102h1.857c.066 0 .161 0 .161.111 0 .074-.056.082-.115.086a.208.208 0 0 0-.136.07.992.992 0 0 0-.161.232l-.177.291c-.04.076-.125.211-.125.297 0 .041.01.057.024.096l.453.986.608-1.397zM124.144 114.23c0 .115-.015.297.021.402.024.076.181.072.271.086.056.01.121.041.121.105 0 .086-.091.096-.155.096-.213 0-.424-.01-.636-.01-.211 0-.412.01-.624.01-.064 0-.151-.01-.151-.096 0-.064.062-.096.121-.105.071-.01.228-.014.252-.086.035-.105.035-.287.035-.402v-.74c0-.211.016-.328-.221-.357-.071-.004-.151 0-.151-.084 0-.092.161-.107.216-.121.217-.057.493-.176.649-.342.031-.037.076-.092.182-.092.08 0 .07.131.07.182v1.554zM123.319 111.936c0-.242.226-.387.446-.387.228 0 .443.135.443.381 0 .258-.211.414-.453.414-.24 0-.436-.156-.436-.408zM125.764 112.896c.08 0 .332-.342.825-.342.227 0 .453.061.635.207.211.17.206.381.206.629v.84c0 .121-.02.307.05.402.052.064.162.072.237.086.055.01.121.041.121.111 0 .086-.091.09-.156.09-.181 0-.353-.01-.534-.01-.23 0-.463.01-.693.01-.057 0-.116-.016-.116-.09 0-.066.045-.096.101-.111.075-.021.161-.035.211-.111.051-.074.035-.281.035-.377v-.74c0-.131-.015-.322-.085-.438a.405.405 0 0 0-.343-.182.624.624 0 0 0-.377.146c-.137.115-.116.221-.116.393v.82c0 .096-.015.303.035.377.051.076.136.09.212.111.055.016.1.045.1.111 0 .074-.06.09-.115.09-.231 0-.463-.01-.694-.01-.181 0-.353.01-.533.01-.065 0-.157-.004-.157-.09 0-.07.066-.102.121-.111.076-.014.187-.021.237-.086.069-.096.05-.281.05-.402v-.74c0-.211.016-.328-.221-.357-.071-.004-.151 0-.151-.084 0-.092.161-.107.216-.121.217-.057.493-.176.65-.342a.21.21 0 0 1 .181-.092c.08 0 .07.131.07.182v.221h-.002zM130.475 114.32c0 .051-.024.201.062.201.095 0 .166-.186.261-.186.075 0 .071.076.071.127-.016.166.01.154-.137.205l-.679.232c-.046.016-.152.055-.202.055-.075 0-.09-.055-.1-.119l-.012-.107c0-.014-.004-.061-.029-.061-.055 0-.292.287-.725.287-.649 0-1.077-.523-1.077-1.152 0-.734.604-1.248 1.318-1.248.102 0 .201.01.297.041.025.01.111.035.166.035v-.449c0-.191.046-.352-.186-.352-.065 0-.182-.01-.182-.102 0-.111.212-.111.282-.125.236-.035.468-.117.68-.221a.162.162 0 0 1 .086-.027c.1 0 .104.141.104.213v2.753h.002zM130.928 113.758c0-.734.73-1.203 1.425-1.203.337 0 .669.09.937.291.276.207.463.529.463.871 0 .76-.71 1.238-1.44 1.238-.726 0-1.385-.443-1.385-1.197zM135.362 114.76c-.061.115-.065.195-.207.195-.11 0-.131-.105-.176-.195l-.715-1.531a1.761 1.761 0 0 0-.181-.332c-.066-.076-.116-.08-.211-.09-.062-.006-.142-.021-.142-.107 0-.094.105-.09.176-.09.459 0 .911.01 1.369.01s.911-.01 1.369-.01c.07 0 .142.01.142.096 0 .08-.076.092-.137.096-.075.01-.21.016-.21.121 0 .07.049.182.079.246l.327.68c.005.016.055.152.091.152.04 0 .08-.121.096-.152l.247-.578c.034-.086.086-.201.086-.297 0-.127-.127-.152-.232-.166-.07-.01-.156-.01-.156-.107 0-.094.131-.09.196-.09.121 0 .242.01.368.01.12 0 .24-.01.361-.01.056 0 .151 0 .151.086 0 .08-.085.096-.151.111-.115.023-.171.023-.23.125-.041.07-.081.162-.111.236l-.695 1.592c-.049.109-.069.195-.205.195-.121 0-.146-.1-.191-.195l-.483-1.002c-.006-.01-.046-.111-.07-.111-.03 0-.075.102-.081.111l-.474 1.001z"/><path d="M135.729 113.512c.016-.031.061-.117.061-.152a.78.78 0 0 0-.092-.207c-.145-.24-.124-.336-.427-.336-.07 0-.302-.01-.302.102 0 .064.055.189.08.25l.333.734c.009.012.05.127.08.127.02 0 .03-.029.034-.045l.233-.473z" fill-rule="evenodd" clip-rule="evenodd" fill="#fff"/><path d="M138.13 114.332c.006-.08 0-.178.111-.178.222 0 .16.625.815.625.191 0 .493-.09.493-.316s-.227-.318-.413-.379c-.377-.115-1.007-.293-1.007-.77 0-.504.563-.76 1.012-.76.201 0 .493.041.695.09.136.031.146.055.146.197v.121c-.015.07-.005.225-.11.225-.071 0-.137-.074-.171-.119-.161-.213-.228-.342-.524-.342-.171 0-.407.059-.407.271 0 .176.227.246.367.285l.277.088c.361.109.72.285.72.709a.812.812 0 0 1-.378.668c-.222.156-.522.207-.795.207-.222 0-.514-.035-.71-.146-.126-.07-.136-.129-.131-.266l.01-.21zM142.64 113.508c.284 0 .52.213.52.469s-.235.469-.52.469-.52-.213-.52-.469.235-.469.52-.469zM144.374 112.459c0-.297.035-.438-.286-.488-.065-.012-.161-.004-.161-.09 0-.082.05-.107.121-.107.211 0 .433.021.644.021.363 0 .726-.021 1.082-.021.263 0 .534.016.761.166a.814.814 0 0 1 .393.715c0 .242-.106.488-.268.67-.19.211-.447.303-.729.303-.151 0-.246-.025-.387-.066a1.443 1.443 0 0 0-.277-.07c-.091 0-.061.07-.061.137v.625c0 .297-.021.416.297.467.065.01.161.025.161.117 0 .074-.056.094-.12.094-.262 0-.515-.02-.775-.02-.242 0-.483.02-.725.02-.071 0-.121-.02-.121-.094 0-.082.076-.107.136-.117.332-.057.316-.141.316-.467v-1.795h-.001zM149.167 114.215c0 .076-.026.312.115.312.056 0 .08-.02.125-.051.03-.014.082-.059.121-.059.041 0 .065.033.065.068 0 .072-.08.152-.13.193-.157.129-.344.23-.555.23-.195 0-.291-.07-.371-.242-.012-.016-.041-.115-.086-.115-.061 0-.373.402-.871.402-.297 0-.523-.195-.523-.492 0-.219.096-.363.271-.488.136-.102.408-.223.578-.273.178-.049.358-.141.479-.23.036-.031.056-.035.056-.051v-.166c0-.17.035-.523-.227-.523-.181 0-.297.166-.362.318-.05.119-.081.189-.217.244a1.036 1.036 0 0 1-.412.111c-.076 0-.156-.029-.156-.115 0-.16.221-.387.342-.469.272-.189.614-.266.941-.266.207 0 .468.035.645.141.16.102.172.256.172.422v1.099z" fill-rule="evenodd" clip-rule="evenodd"/><path d="M148.441 113.883c0-.016.011-.211-.056-.211-.05 0-.312.166-.362.195-.146.092-.267.201-.267.385 0 .154.101.291.271.291.131 0 .298-.08.363-.191a.505.505 0 0 0 .05-.227v-.242h.001z" fill-rule="evenodd" clip-rule="evenodd" fill="#fff"/><path d="M150.636 113.889c0 .186-.021.68.246.68.166 0 .277-.146.352-.146.036 0 .062.029.062.07 0 .066-.102.166-.142.205a.986.986 0 0 1-.653.258c-.166 0-.363-.074-.463-.211-.116-.156-.146-.373-.146-.559v-1.053c0-.039-.005-.17-.016-.211-.01-.051-.07-.066-.12-.066-.066 0-.228.027-.228-.055 0-.074.106-.115.161-.137.272-.109.524-.291.67-.547.035-.066.086-.168.172-.168.105 0 .085.117.085.188v.348c0 .141.03.135.161.135h.262c.105 0 .182-.023.182.102 0 .141-.036.135-.172.135h-.246c-.166 0-.166-.004-.166.197v.835h-.001zM152.487 114.23c0 .115-.016.297.02.402.025.076.182.072.271.086.057.01.121.041.121.105 0 .086-.09.096-.156.096-.211 0-.423-.01-.634-.01s-.413.01-.624.01c-.065 0-.15-.01-.15-.096 0-.064.06-.096.121-.105.07-.01.226-.014.251-.086.035-.105.035-.287.035-.402v-.74c0-.211.016-.328-.222-.357-.071-.004-.15 0-.15-.084 0-.092.16-.107.216-.121.217-.057.494-.176.649-.342a.21.21 0 0 1 .182-.092c.081 0 .07.131.07.182v1.554zM151.661 111.936c0-.242.227-.387.448-.387.228 0 .443.135.443.381 0 .258-.212.414-.453.414-.242 0-.438-.156-.438-.408zM152.93 113.758c0-.734.73-1.203 1.424-1.203.337 0 .669.09.937.291.276.207.463.529.463.871 0 .76-.709 1.238-1.439 1.238-.726 0-1.385-.443-1.385-1.197zM157.771 112.469c0-.256.016-.432-.271-.412-.075.004-.187.035-.187-.082 0-.23 1.364-.281 1.585-.281.483 0 .932.07 1.35.332.438.277.71.715.71 1.238 0 1.037-1.003 1.666-1.953 1.666-.423 0-.846-.02-1.269-.02-.091 0-.191.02-.287.02-.065 0-.12-.029-.12-.111 0-.08.074-.084.141-.1.322-.076.302-.156.302-.494v-1.756h-.001zM161.183 113.758c0-.734.73-1.203 1.424-1.203.338 0 .67.09.937.291.276.207.463.529.463.871 0 .76-.709 1.238-1.439 1.238-.726 0-1.385-.443-1.385-1.197zM164.202 113.758c0-.734.729-1.203 1.425-1.203.337 0 .669.09.936.291.277.207.463.529.463.871 0 .76-.71 1.238-1.438 1.238-.727 0-1.386-.443-1.386-1.197zM168.364 112.938c.086 0 .298-.383.711-.383.211 0 .427.156.427.383a.416.416 0 0 1-.418.408c-.322 0-.357-.293-.509-.293-.25 0-.211.523-.211.68v.498c0 .115-.015.297.021.402.025.076.181.072.272.086.055.01.121.041.121.105 0 .086-.092.096-.156.096-.212 0-.424-.01-.636-.01-.211 0-.411.01-.624.01-.064 0-.15-.01-.15-.096 0-.064.061-.096.121-.105.07-.01.226-.014.252-.086.035-.105.035-.287.035-.402v-.74c0-.211.015-.328-.223-.357-.069-.004-.149 0-.149-.084 0-.092.161-.107.216-.121.216-.057.493-.176.648-.342a.212.212 0 0 1 .182-.092c.081 0 .07.131.07.182v.261zM169.593 114.332c.005-.08 0-.178.111-.178.221 0 .161.625.814.625.192 0 .494-.09.494-.316s-.227-.318-.413-.379c-.378-.115-1.007-.293-1.007-.77 0-.504.564-.76 1.012-.76.201 0 .493.041.694.09.136.031.146.055.146.197v.121c-.015.07-.005.225-.109.225-.071 0-.136-.074-.171-.119-.161-.213-.228-.342-.524-.342-.171 0-.408.059-.408.271 0 .176.228.246.368.285l.277.088c.362.109.72.285.72.709 0 .275-.152.514-.378.668-.221.156-.524.207-.795.207-.222 0-.515-.035-.71-.146-.126-.07-.136-.129-.131-.266l.01-.21z" fill-rule="evenodd" clip-rule="evenodd"/><path d="M121.098 112.389c.045-.08.1-.182.1-.277 0-.137-.15-.141-.256-.141-.091 0-.207.016-.207.125 0 .066.035.127.062.182l.166.354.135-.243zM129.689 113.4c0-.131.016-.352-.055-.463a.382.382 0 0 0-.317-.186c-.463 0-.604.541-.604.914 0 .408.216.906.684.906.081 0 .217-.014.292-.08V113.4zM132.945 113.838c0-.23-.05-.529-.154-.734-.091-.182-.268-.377-.489-.377-.434 0-.563.557-.563.896 0 .371.161 1.16.665 1.16.442 0 .541-.613.541-.945zM145.205 113.088c0 .061-.005.156.03.182.065.049.191.07.277.07.397 0 .568-.338.568-.695 0-.332-.227-.674-.595-.674-.12 0-.23.035-.261.15-.036.137-.021.293-.021.434v.533h.002zM154.948 113.838c0-.23-.051-.529-.156-.734-.092-.182-.268-.377-.488-.377-.434 0-.564.557-.564.896 0 .371.161 1.16.664 1.16.443 0 .544-.613.544-.945zM158.601 114.105c0 .336-.02.633.398.633.332 0 .639-.201.819-.473.187-.266.263-.643.263-.967 0-.668-.368-1.383-1.113-1.383-.362 0-.367.08-.367.422v1.768zM163.2 113.838c0-.23-.05-.529-.155-.734-.09-.182-.268-.377-.488-.377-.433 0-.563.557-.563.896 0 .371.16 1.16.663 1.16.444 0 .543-.613.543-.945zM166.221 113.838c0-.23-.051-.529-.156-.734-.091-.182-.267-.377-.487-.377-.434 0-.564.557-.564.896 0 .371.161 1.16.664 1.16.442 0 .543-.613.543-.945z" fill-rule="evenodd" clip-rule="evenodd" fill="#fff"/></svg>