<svg xmlns="http://www.w3.org/2000/svg" width="2500" height="2500" viewBox="0 0 192.756 192.756"><g fill-rule="evenodd" clip-rule="evenodd"><path fill="#fff" d="M0 0h192.756v192.756H0V0z"/><path d="M100.834 111.52h.01l1.912-.008h23.389v-1.818-.482-.344H109.065c-1.912.039-2.982-.123-3.682-.855-.846-.91-.977-1.387-.902-3.393v-3.549h21.664v-.117-.252-1.855-.258-.137h-21.67V90.54h21.695v-.213-.485-1.932H98.377V108.981c0 1.328.945 2.369 2.186 2.51l-.047.029h.318zM62.181 111.508V91.107a10499.57 10499.57 0 0 0 14.062 11.907s5.032 4.422 5.154 4.527l.004-.004s.044.047.066.066c.078.066 3.065 2.574 3.069 2.576 1.386 1.184 1.993 1.291 3.359 1.301l4.617.006v-.986h.007l-.007-.01V87.829h-3.09v18.325l-11.795-9.959-3.533-3.071-1.683-1.479c-3.111-2.55-3.111-2.55-3.102-2.548-1.41-1.188-2.024-1.25-3.364-1.25l-6.874.003v.425-.002 23.241c.102 0 .301 0 .536-.004l2.574-.002zM11.595 111.625c.109 0 .111-.178.157-.178.226-.324 17.018-24.762 19.245-28.003l8.872 15.821.085.156-.215.008H24.056v2.59h17.151l.22.002c.706 1.242 3.277 5.758 3.281 5.77l1.489 2.57-.05-.121c.613.91 1.093 1.291 2.497 1.291l6.771-.002c-2.105-3.562-15.186-25.723-15.186-25.723l-.547-.895-1.597-2.505c-.586-.871-1.113-1.289-2.521-1.289l-5.711.004c-.145.219-.399.6-.435.645a72509.599 72509.599 0 0 0-20.913 29.859h.004l-.004.014h3.08a.05.05 0 0 0 .01-.014zM184.252 87.846h-3.145c-.199.403-8.506 17.416-10.33 21.16l-4.41-9.186-3.885-8.067c-.959-1.785-1.246-2.319-1.332-2.516.004.021.016.054.016.054-.65-.967-1.229-1.434-2.76-1.434 0 0-1.049.002-2.744.002-.906-.008-1.723-.012-2.047-.012.244.512 2.434 5.129 3.377 7.12l-8.736 14.554-.1-.18-9.383-17.78-1.344-2.531.045.104c-.543-.803-.98-1.289-2.494-1.289l-5.248.002c1.594 3.098 10.592 20.626 10.592 20.626s.949 1.742.949 1.746c.592.887 1.09 1.283 2.451 1.283h5.676c.814 0 1.148-.035 1.139-.035 0 0 .133-.076.25-.303l6.85-11.779.793-1.34.334.652c.195.418.514 1.08.514 1.08s4.08 8.51 4.08 8.514c.01.012.969 1.77.969 1.775.57.854 1.121 1.324 2.324 1.404.018 0 .029.014.051.014.055.004.086.018.15.018h1.289l4.625.031 11.484-23.687z" fill="#255398"/></g></svg>