<svg xmlns="http://www.w3.org/2000/svg" width="2500" height="2500" viewBox="0 0 192.756 192.756"><path d="M0 192.756h192.756V0H0v192.756z"/><path d="M122.632 116.867h16.482l.49-.037.53-.074.453-.115.908-.377c1.419-.686 2.453-2.137 2.607-3.705.183-1.342-.421-2.922-1.474-3.781l-.718-.566-.87-.414-.454-.152-.983-.189H122.63v-6.805c10.405-.002 28.671-4.23 29.6 11.229.034 6.207-5.663 11.053-11.681 11.076l11.681 16.783h-9.828l-11.19-16.18h-8.581v-6.693h.001zm65.436 22.871l-24.383-39.088h-8.43v39.088h18.75v-7.295h-10.32V114.07l15.953 25.668h8.43zm-183.003 0l24.874-39.088h8.581v39.088H19.43v-7.295h10.509V114.07l-16.293 25.668H5.065zm85.094-29.373v29.373h29.222v-7.295H98.362v-8.885h21.019v-6.691H98.362v-6.502h-8.203zm-48.35-9.715v39.088h8.241v-25.855l16.105 25.855h8.051v-29.373h-8.051v15.953L50.202 100.65h-8.393zm24.346 0h32.396v6.73H86.303v32.357h-8.241V107.38H66.155v-6.73zm53.226 0h-17.692v6.73h17.692v-6.73zm-17.693 0h17.692-17.692zm44.117-21.358c1.014-.963 4.084-4.044 4.423-5.822.255-1.301-.638-2.005-1.474-2.872-5.77-5.098-12.549-8.93-20.111-10.547l-.492-1.323-2.117-.152-1.397-.039-1.966.114-.644-1.248c5.112-.699 11.04-1.09 16.104.114l-.113.756-.265.756-.378.718-.492.718c4.45 2.267 9.025 5.054 12.815 8.317h.983l.907-.077 1.361-.34.452-.151c-3.427-4.447-8.966-8.377-13.57-11.454l-3.591-5.217c-9.168-2.404-19.607-3.951-29.033-2.193l-1.625-1.625 1.512-.378 1.663-.265-4.99-2.533c-1.812 4.109-3.19 9.089-1.134 13.383l5.217-2.458-.794 1.853c-13.022 5.409-10.458 22.248 3.667 23.286 5.479.146 13.201 2.042 18.108 4.423 2.971 1.361 6.371 4.274 9.525 4.537 1.515.13 3.402-1.108 4.083-2.42l.228-.68.15-.719.038-.907-.038-1.058-.15-.189-.114-.114h-.189c-2.218.551-3.21-1.041-5.858-.831-4.095.411-5.34 1.509-9.111-.719-2.892-1.97-4.479-6.322-1.89-9.186.946-1.052 2.3-1.637 3.705-1.701 4.604-.396 5.688 2.357 9.677 4.159 2.885 1.405 6.917-.693 6.918 4.084zm-2.722 2.382s.453-.416.643-.756c.189-.303.491-.719.567-1.096.075-.416.151-.908-.228-1.286-.34-.417-.794-.718-1.55-.907-.718-.189-2.457-.227-3.364-.416-.907-.228-2.116-.869-2.91-1.135-.832-.265-1.06-.303-1.777-.265-.718.076-1.739.53-2.306 1.097-.567.529-.681 1.512-.643 2.23.037.681.643 1.474 1.285 1.777.643.34 1.588-.038 2.495-.038.869 0 1.21-.189 2.117-.038.944.151 2.873.756 3.742.907.87.153 1.929-.074 1.929-.074zm-9.375-7.447c-1.625.453-2.57 1.096-3.176 2.268-.604 1.096-.907 2.911-.188 4.687-2.987-1.209-2.836-2.759-2.873-4.007-.076-1.209.907-2.874 1.928-3.326 1.058-.454 2.759-.719 4.309.378zm-54.474 1.285c6.616-5.981 13.388-11.477 20.981-16.18-.963-2.619-1.281-5.472-.983-8.241-6.102 1.44-20.621 6.685-23.06 13.269-1.848 4.393-1.251 8.537 3.062 11.152zm29.146 15.764c-3.402-2.495-6.464-4.575-9.375-6.313-2.911-1.739-5.822-3.062-7.976-3.97-2.344-.982-7.107-2.57-4.915-6.351 2.193-3.742 6.011-6.729 9.905-9.564-2.042 5.368-1.021 10.132 2.079 13.27 6.426 6.389 15.499 2.873 25.97 6.616-2.684.491-5.292 1.285-7.938 2.343a46.792 46.792 0 0 0-7.75 3.969zm-11.568-5.104c-.227-.264-2.042-1.172-5.52-2.759-3.44-1.588-10.585-3.743-15.045-6.729-4.385-2.986-6.842-6.956-8.695-11.719-4.423 2.079-8.354 5.103-11.983 9.186-3.592 4.083-6.918 9.035-9.716 15.121 3.97 0 8.09.114 13.949-.983 5.86-1.134 15.197-3.854 21.435-4.195 6.238-.341 11.19.415 15.575 2.078zm47.746-3.326c1.492-1.517 9.192-7.495 7.295-10.547l1.324-1.097.907-.945.718-.983.492-.869v-.265l-.114-.453-.113-.416-.566-.68-3.743-3.63-2.57-2.268-2.532-2.003-3.668-2.571-.982-.643-3.818-5.897c-7.145-1.702-14.055-3.032-21.434-2.949-5.088.014-8.381-2.975-12.702-5.292l-.983 1.777-.868 1.814-.719 1.777-.567 1.815c-11.111 2.556-21.621 7.821-30.621 14.78l-.756-1.436c-11.832 3.359-24.183 19.721-30.62 29.297 5.618.611 12.012.596 17.616.114 9.374-.962 18.254-4.35 27.823-4.801 9.414-.846 17.372 1.892 24.534 8.014 4.414-3.325 8.993-5.752 14.365-7.069 7.706-1.619 6.313.217 13.646 3.364 1.96.809 3.88.902 5.708-.302 3.399-2.254 2.934-3.681 2.948-7.636z" fill-rule="evenodd" clip-rule="evenodd" fill="#fff"/></svg>