<svg xmlns="http://www.w3.org/2000/svg" width="2500" height="2500" viewBox="0 0 192.756 192.756"><g fill-rule="evenodd" clip-rule="evenodd"><path fill="#fff" d="M0 0h192.756v192.756H0V0z"/><path d="M38.83 97.658c1.075-.99 1.488-2.809 2.479-4.131l-.413-.827 3.223-2.975c-.248-.33-.744-.578-1.322-.578l-1.074.991-.248-.496 4.545-4.71-.744-.661c.992-1.983 3.388-3.553 3.966-5.619-.661-.909-1.239.991-1.9.082.743-1.9 2.562-2.23 4.131-3.057-.744-.744-2.066.744-2.809-.166 3.636-2.727 7.437-5.784 11.403-7.602.166-.248.744-.496.579-.909-.909.496-2.066.165-2.892.909.578-1.157 2.644-2.148 3.057-3.388-1.57.331-2.975 1.487-4.545 1.487 1.818-3.057 5.124-5.288 8.842-5.123 1.818-.413 3.471-1.074 5.206-1.653.413-.331 0-.909-.413-.909-.496.165-.579-.414-.744-.661 1.157-1.818 3.471-.083 5.041-1.487 1.57-.248 3.057.083 4.379-.579-.165-.661-.743-1.239.248-1.652.826-.579 1.24.661 2.066 0-.083-.661-.579-1.157-1.157-1.57l.826-.413 9.42.496c0-.248.331-.331.413-.496l4.297 1.487c.909-.083.827-1.074.992-1.487 2.727 1.157 5.702 2.066 7.768 4.38 1.32.248 2.146 1.983 3.387.743 1.652.331 2.479 1.983 3.801 3.058.166-.413.578-.248.91-.331.578.414.66 1.322 1.486 1.322l.414-.826c2.148 1.57 3.883 3.553 4.793 5.95.826.413.908-.579 1.074-.992 3.223 2.231 1.156 5.867 6.609 7.933.744-.578 1.488-.578 2.48-.331.99.166 1.568 1.405 2.727 1.157l.164-.826c3.141.331 6.611.826 9.338 2.479h1.156c2.893 2.562 4.711 5.619 7.271 8.346-.66 2.313 2.562.909 2.48 2.892 1.734.909 1.238 2.893 3.057 3.553 3.057 2.066 6.363 3.636 9.172 5.702 4.131.908 8.098 2.396 12.23 2.809 1.57-.99.082-2.727.164-3.8.744.826 2.479 1.156 2.562 2.644.412-.166.578-.412.66-.662l1.24.496c3.223 1.818 1.9 6.033 2.561 9.09.332 2.562-1.734 4.049-1.816 6.445.66 3.555-3.719 4.215-4.215 6.859h-.248V118.4c-1.322.66-2.314.246-3.553-.248l-.744.742c-3.305-1.486-5.783-5.783-10.082-4.131-.164.908-.826 1.818-.578 2.727l1.654 1.404c1.156 1.654 4.627 2.066 4.379 5.123-.662.744.496 1.57-.496 2.066-.496-.082-.082-.908-.908-.578-.166.578-.662.578-1.158.744-.248.992-1.156 2.066-1.816 2.479-.744-.66 0-1.486 0-2.23l-3.471-.084c.66-.99.164-1.652 0-2.643-.91-.414-1.984-.414-3.141-.166-1.156.412-.744-1.24-1.818-.578-.578-.248-1.652-.662-2.561-.33-.414.248-.992.164-1.406.164-.164-.826-.742-1.238-1.404-.99-1.9.082-2.561-1.322-4.461-.166.66.744 2.148.248 2.975.992.742-.496 1.322.33 2.064.412-.164 1.57-2.23.578-3.223 1.074-1.816.744-3.387-1.57-4.875-.166-.496.248-.908.91-1.652.91-.578-.496.744-1.818-.66-1.9 0-.248.164-.496.164-.744-1.734-1.156-3.967-1.074-5.867-1.488-.412 1.406 2.148.166 1.57 1.57-.992-.248-2.479 1.406-2.893-.248-.412 0-.66.166-.908.248v-1.238c-.992-.578-2.066.412-2.893-.332.992-1.734 2.811.414 4.215-.742l2.396-.166v.082c-2.066-.66-3.719.084-5.785-.578l-.33-1.074c-1.404-.248-3.057 1.736-3.967 0-.248.248-.826.084-1.238.084-.332-.414-.662-.496-1.074-.248-.248.412-.744.494-1.158.578-.578-.992 1.158-.578.91-1.57-1.158-.826-2.396.992-3.059-.33-.99-.662-2.809 1.486-2.809-.414-1.57.414-.91-1.734-2.562-.992-.742-.908.084-1.404.332-2.23-1.322.166-2.811 1.736-4.215 1.322-.744-1.486 1.24-1.486 1.322-2.809-1.158.164-2.23 1.156-3.305.66 1.652-.744.412-2.727 2.146-3.305.414-.744 1.488-1.322 1.324-2.314-.744.91-1.984.578-2.811.578.33-1.074 2.066-1.156 2.066-2.312-.332-.166-.496.164-.744.248-.578-1.322 1.074-2.232 1.156-3.471-.33 0-.66.082-.908.412a1.433 1.433 0 0 1-.248-1.156l1.156-.908c-.826-.414-1.238 1.238-1.9 1.486.908 1.404-.496 2.562-.496 3.967-.248.992-1.404.908-2.148 1.322l-.248-.414c-.826.744-2.396.248-2.727 1.57 1.404.744 2.975-2.479 3.553.082-1.32.496-2.891.91-4.049 1.406l2.562 1.156-1.404 1.652c0 .496.742 0 .99.414-1.652.33-3.139 1.238-5.123.826-.164.164-.412.33-.33.578 1.9 1.238 4.627.166 6.611.908-.496 1.322-2.148 1.57-3.307 2.066-.99-.166-1.156 1.156-1.652 1.734-.496 1.57 1.322.992 1.322 2.314-.33.744-1.074.414-1.322 1.074.084.082.496.414.578.744.414-.166.992-.496 1.488-.166.496 1.24-1.652 1.488-1.074 2.811.744-.248 1.404-.662 2.066-1.074.33.742-.496 1.404-.414 2.23.744.33 1.24 1.24 1.156 1.9-1.238.992-.164 3.057-1.322 4.215l1.074 3.057c-1.156.166-1.816.496-2.643 1.488-.662.578-1.074 1.652-1.818 1.982-1.322-1.734-2.562 1.322-4.215.414-1.57-.414-3.47-1.074-5.288-1.158-.083 0-.166-.164-.331-.164 2.562-.248 4.875.412 7.271-.58.166-.908.826-2.146 0-2.975-.248-.164-.494-.33-.33-.578 1.488-1.074 3.305-2.396 3.801-4.297-1.156-2.064-7.437-.908-4.545-4.627v-.908l-1.074-.084c-.661-2.148 1.158-3.057 2.562-3.965h.082c.166.66-.826 1.486-.248 2.148-.082.33-.496.742-.164 1.074 1.32-.166 1.816-1.57 2.479-2.396-.662-.662.248-1.488-.578-1.9h-1.98c.084-1.736.414-3.637-.66-5.289-.082-.248.166-.662-.082-.91-.414-.082-.414.332-.662.496 0 1.074.662 1.818.662 2.977-1.074-.58-1.654-2.314-2.232-3.555-.496-.164-.909-.164-1.487 0-.496-1.238-.166-3.635-.248-4.793-1.322.58-.579 2.48-1.157 3.637-1.901-2.23.909-4.215.413-6.445h-.331c-.413 1.734-1.735 3.141-1.735 5.123l-.744-1.156c-.661.248.083 1.404-.578 1.818-.496-.91-.496-2.15 0-3.225l-.331-.246-.827.742c0-2.809 1.57-5.453 1.488-8.346h-.331c-.496 2.645-1.57 5.041-2.149 7.604-1.322-1.24.496-2.977.083-4.711l-.083-1.156-1.074.494c-.249-.742-.083-1.734-.744-1.898l-.331 3.801c-.909-.084-1.157-1.654-1.404-2.562-.248-.826-.248-1.982-1.074-2.314-.414 1.654 1.157 3.389.165 4.877-.579-1.24-.496-2.645-1.157-3.801a.666.666 0 0 0-.744.246c-.248-.494-.248-.99-.413-1.486-1.405.412-2.727.826-3.801 1.982l-.331 1.57h.744c.413.992-1.405 2.066-.165 3.059-.248.494-.414.99-.661 1.404-1.487-.662-1.901 1.734-3.058 2.561.166 1.406-2.066 1.818-2.975 2.893-.413.33-1.735-.082-1.983.66v.496l.991.166c-.991 1.652-2.975 2.148-3.718 3.967-.992.494-1.24 1.816-2.479 1.486-.248 2.975-3.388 2.314-5.123 3.223-2.231.578-4.132 0-6.197.992l.165.66c1.983-.164 4.379.414 5.701-1.074 1.075-.082 2.479-1.074 3.719-.33 1.57-.082 3.058.662 4.792.662-.826.578-2.065.99-2.644 1.9.661.908 1.157-.662 1.818.248 2.81.246 2.066-3.555 4.875-3.307 1.487-2.891 4.875-3.553 7.85-3.967 1.24-.164 3.388-1.156 4.214.248.992.496 2.396-.164 3.553.248.165-.33.496-.248.826-.248.414.91 1.653 1.406 2.066 1.736-.827 1.074-1.405-.744-2.396-.082-1.074.908.661 3.553-1.653 3.469-1.157-.082-1.901.91-2.975.248-.248.414-.083.91-.166 1.406l-1.157.082c.331 1.488-1.735.248-1.322 1.652.248.33.743.578.743 1.074-1.239.248-2.644.578-3.966.248-.909-.66-.909-2.314-.496-3.223.744-.496 1.405-1.818 2.231-1.652.331-.662-.331-1.488-.992-1.9-.248.082-.496-.082-.578.164-.248.496.331.744.578.992-1.074.248-1.652.826-2.644 1.156 0 .248 0 .414.166.496-.579.414-1.735.166-1.487 1.322-1.653-.66-.414 1.736-2.066 1.158-.165 1.156-.743 1.486-1.569 2.146-.331 1.902-2.231 0-2.396 1.818-1.901-.082-3.471-.826-5.124-1.57-4.544-.66-9.007 1.158-13.634.084-2.148-1.9.413-4.627.166-6.859.992-1.156 1.818-2.645.992-4.131-.248-1.488-1.653-2.148-2.727-3.059l-2.644-3.223c.909-.66 4.049.826 3.388-1.486-.248-.248-.496-.496-.909-.414-.082.414.827.828.166 1.158-.413-.33-1.487 0-1.653-.826-.578-.58-1.322.412-1.735-.662l-.578.662c-1.735-.828-.165-3.307-1.9-3.719-1.653.412-3.388.248-5.289.496-2.149-.414-5.124-2.645-6.859-.332.661.826-.661.826-.496 1.57.661.992 1.57 2.232 2.81 2.48l1.817-.248c.248-1.158.083-2.396-.744-3.223 1.405 0 3.14.578 4.214 1.652-.331 1.074-.661 2.148-1.487 3.057-.331-.578.578-1.074.496-1.734-.248-.662.414-.992 0-1.488-1.074.66-1.157 2.148-2.479 2.645-.165.33-.496.496-.33.826.33.166.496.412.743.66-1.157 1.074-2.479.414-3.718 0-.827-1.238-3.388-1.32-2.81-3.305-.331.166-.166-.578-.496-.082-.413-.992.083-2.562-.413-3.141 1.57-.412 1.239-3.057 3.471-3.223 2.396-.33 4.792-.33 7.023.908-.661.662-2.066-.082-2.975.58.661.744 1.983.496 2.81.496.661-.662.661.578 1.322.412.992-.164 2.231-.248 2.644-1.074l-1.157-.082c.909-.248.661-1.322.744-1.818.909-1.57 1.983-2.975 2.314-4.793l-.827-.164c-.413-.744 1.57-2.149-.165-2.314-.245.749-.906 2.319-2.228 1.739z" fill="#d6d8d9"/><path d="M86.839 48.824l.744.661c-.744.579-3.553-.744-3.14 1.157l-10.577.413c.083.248-.083.579.165.744-.579.578-1.57.083-2.231.496v.496c1.652.744 3.223-.744 4.71.331-1.239.413-3.636-.413-3.636 1.322-.083.744-1.074-.331-.744.744-2.562.744-5.206 1.487-7.768 2.231.331.744 1.57 1.322 2.479 1.653-.744 0-1.239.744-1.653 1.074-5.454-.909-9.172 3.801-12.229 7.52l.248.248c1.405-.661 3.057-1.157 4.379-1.322-1.983 2.313-5.371 2.479-7.354 4.545 1.075.413 1.818-1.074 2.81-1.157.744-.248 1.57-.826 2.231-.744-1.57 1.488-3.801 2.231-5.289 3.966-2.148.661-3.305 2.644-4.132 4.545 1.405 1.157-1.239 2.313-.578 3.471.413 0 .661-.413 1.074-.579l.083.166c-1.9 3.223-5.371 5.784-7.271 8.924l1.322 1.157c-1.322 1.404-1.57 3.636-2.479 5.371-.496.662 0 1.404.826 1.404 1.075-.99 1.488-2.809 2.479-4.131l-.413-.827 3.223-2.975c-.248-.33-.744-.578-1.322-.578l-1.074.991-.248-.496 4.545-4.71-.744-.661c.992-1.983 3.388-3.553 3.966-5.619-.661-.909-1.239.991-1.9.082.743-1.9 2.562-2.23 4.131-3.057-.744-.744-2.066.744-2.809-.166 3.636-2.727 7.437-5.784 11.403-7.602.166-.248.744-.496.579-.909-.909.496-2.066.165-2.892.909.578-1.157 2.644-2.148 3.057-3.388-1.57.331-2.975 1.487-4.545 1.487 1.818-3.057 5.124-5.288 8.842-5.123 1.818-.413 3.471-1.074 5.206-1.653.413-.331 0-.909-.413-.909-.496.165-.579-.414-.744-.661 1.157-1.818 3.471-.083 5.041-1.487 1.57-.248 3.057.083 4.379-.579-.165-.661-.743-1.239.248-1.652.826-.579 1.24.661 2.066 0-.083-.661-.579-1.157-1.157-1.57l.826-.413 9.42.496c0-.166.331-.331.413-.496l4.297 1.487c.909-.083.827-1.074.992-1.487 2.727 1.157 5.702 2.066 7.768 4.38 1.32.248 2.146 1.983 3.387.743 1.652.331 2.479 1.983 3.801 3.058.166-.413.578-.248.91-.331.578.414.66 1.322 1.486 1.322l.414-.826c2.148 1.57 3.883 3.553 4.793 5.95.826.413.908-.579 1.074-.992 1.734 1.983 2.064 4.627 4.049 6.61-.826.992-2.562.083-3.555 0-.99-.578-2.064-.909-3.305-1.156l-.33 1.404c-.33 0-.744-.165-1.156-.083-.166.331-.084 1.24-.744.826-.578-.496-1.156-1.322-1.736-2.065-.33 0-.578.083-.742.331-.166.496.33.743.164 1.157-1.404-.661-3.305 0-4.957 0v.496l5.289.496c.082-.331.164-1.074.826-.826 1.982.578-.332 3.057 2.23 2.727.578-.166.578-1.157 1.322-.744.496.248.578-.248.744-.496h1.486c.248-.331 0-.744-.248-1.075 1.488 0 2.811.909 4.133 1.57l1.32 1.652c.414-.248.414-1.157 0-1.405-.164-.248-.33-.331-.33-.661.578-.33 1.9-.496 2.148-.826.744-.578 1.488-.578 2.48-.331.99.166 1.568 1.405 2.727 1.157l.164-.826c3.141.331 6.611.826 9.338 2.479h1.156c2.893 2.562 4.711 5.619 7.271 8.346-.66 2.313 2.562.909 2.48 2.892 1.734.909 1.238 2.893 3.057 3.553 3.057 2.066 6.363 3.636 9.172 5.784 4.131.826 8.098 2.314 12.23 2.727 1.57-.99.082-2.727.164-3.8.744.826 2.479 1.156 2.562 2.644 1.238-.412.248-1.818.33-2.81-.414 0-.66.496-1.156.248-.578-.496-.496-1.818-1.652-1.57-.91.661-1.654-.744-2.645.165.496 1.157 2.561 1.9 1.816 3.8-6.279-.082-11.814-2.644-16.525-6.775h-.744l-6.279-4.793c.744-1.57-.91-2.975-.33-4.545-.414-.165-.332-.826-.91-.743.084.496-.66.661-.742 1.156-.744-.33-.248-1.652-.992-1.9-.332.744.164 1.735-.496 2.396-1.818-3.966-5.785-6.858-8.924-9.833-1.406 1.652-3.223-.744-4.793-1.074-1.24.496-1.57-.992-2.232-1.735-.908-1.57-2.064-4.214-4.213-4.132-1.652-.744-3.059-2.066-4.959-2.231-.33-.248-.66-.992-1.238-.827-.578-.248-.414.414-.826.661.164.826.082 1.57-.662 2.149-.908-1.074-1.156-2.81-2.148-3.801l-.412 1.157c-1.158-1.074-2.232-2.809-3.389-3.966-1.074-1.074-2.727-1.487-3.967-1.735-.496-.413-1.074-.826-1.568-.661 0 .248 0 .414-.248.496-1.406-1.157-2.893-2.727-4.793-2.479l-.414.414c-2.148-.744-3.967-2.396-5.867-3.802-1.074.248-1.983-.743-2.892-.991l-7.024-1.983c-.329.412-1.238-.084-.99.743z" fill="#0c0e0f"/><path d="M79.815 60.888c.083.248-.166.248-.248.413-2.231-.413-4.545-.744-6.032 1.653.331 1.57 2.81.496 4.131.826.331.083.083-.331.166-.496l-2.893-.496c0-.496.496-.826.827-.992 2.892-.165 5.536.496 7.933 1.901l.413-1.157c1.818-.166 3.718.33 5.702.413-3.223-.495-6.528-2.065-9.999-2.065z" fill="#0c0e0f"/><path d="M123.115 66.011h.412c1.652 1.653 3.307 3.966 5.289 4.793-.082-1.488-2.893-2.231-1.488-3.801-.082-.331-.412-.661-.908-.826-.248.248.166.826-.412.991-1.654-.413-2.396-2.396-3.637-3.223-.414.661 0 1.57.744 2.066z" fill="#d6d8d9"/><path d="M68.33 68.077c-2.479-.248-1.157 3.636-3.966 2.645-1.818 0-3.305 1.239-4.379 2.313.33 1.57-2.148 2.231-3.306 3.388-1.57 1.322-4.875.166-5.371 2.975.413.248.413.744.992.496 1.735-2.562 4.875-2.892 7.685-3.471.083-.496-.496-.579-.744-.744 1.239-1.735 3.636-1.322 5.454-2.148v-.496c-1.57-.496-2.893.991-3.884.165.083-.413.413-.743.744-1.074.992.496 1.735-1.157 2.81-.578 1.322-.579 3.636.248 4.214-1.322-.248 0-.578.165-.744-.165.579-1.157 1.818-.166 2.81-.744.661-.165 1.9-.165 1.735-1.157-.909-.166-1.818.579-2.562.331.744-.826 2.066-1.239 3.058-1.9l4.462-.165c.331-.496-.33-.827-.826-.827-2.976.66-6.695-.497-8.182 2.478z" fill="#0c0e0f"/><path d="M130.387 71.877l2.561.579c-.412-.579-.99-1.735-1.816-2.396-.332.248-.744.744-1.158.165.084-.826-.578-1.405-1.156-2.066.08 1.405 1.817 2.149 1.569 3.718zM134.354 72.622c.164.165.494.413.742.248-.164-.248-.494-.083-.742-.248z" fill="#d6d8d9"/><path d="M104.027 73.035l1.486 1.322c-.66.909-1.322-.826-2.064.083-1.9-.248-4.215.083-5.785-.909-.496-.166-1.24.083-.744.496.166.414.578.414.826.744-.909 1.322-4.131-.744-3.553 1.818-.083.496-.992.083-.744.826 1.405.992 3.718.826 4.296 2.809-.412 3.141 2.232 5.206 4.545 6.693.33-.248.496-.248.91 0 .33 1.818 2.23 2.727 3.223 3.967-1.074.909.578 1.157.742 1.9-.66.413-1.404.578-2.23.496l-1.486 1.57c.826 0 1.568.083 2.23.414-1.24 1.157-3.141 1.899-3.141 3.718l1.652-.742c.248.164.084.494.166.742l-1.074.578c.908.496-.496 1.406.744 1.57l-.414.496.414.578c-.496.33-1.406.578-1.24 1.322 1.818.662 2.809-1.57 4.379-2.064-1.57-1.074 1.074-2.396-.66-3.059.248-.496.414-.908.33-1.486-.412-.332-1.074 0-1.486-.248.246-1.075 1.734-.248 1.816-1.488.496-.083.414-.496.414-.909l-1.074-.413c.496-.826 1.652-.331 2.23-.413.084.826 1.736 1.487.578 2.313 1.818 2.48 5.867-.165 7.355 2.81.164 0 .33 0 .412-.166.084-1.24-2.064-.66-1.652-2.148-.496.166-.744-.496-.826-.744-.908-.413-1.818.662-2.479-.33l.66-.909c-.742-.826-1.238-2.148-2.561-2.314h-.33c-.414-.413.164-.744.164-1.157-.826-.413-2.148-.331-2.396-1.487 1.652-3.636-2.975-2.313-4.379-3.636-1.24-1.818-3.967-2.231-4.215-4.627 1.652-.579-.742-1.405.166-2.396-.826-.661-2.066-1.157-1.404-2.396.66-.414 1.734.744 2.148-.331.578-.248 1.9 1.24 2.064-.083-.248-.165-.494-.165-.66-.413 1.322-.909 2.645.248 3.801.082 1.074.992 2.066-1.239 3.223.166 0-.992 1.24-.826 1.404-1.653-2.064.496-3.719-.743-5.453-1.239l-.328.247zM131.791 74.687c.414 1.653 1.404 3.223 1.818 4.958h.33c.082-.248-.082-.496.166-.578.908.661.33 2.892 2.148 2.644-.248-1.983-1.158-3.966-1.984-5.867h-.33c-.248.827.662 1.405 0 2.149-1.074-.992-1.322-2.562-2.148-3.306zM136.418 77.745c-.164 0-.248-.083-.248-.165.826 1.156.58 3.47 1.9 4.379.166-.909-.99-1.735-.164-2.562 2.396.661 1.322 3.636 2.645 5.206 1.074.331.742 2.396 2.312 2.479.33 1.405 1.984.909 2.645 1.9.082-2.562-2.893-3.801-1.156-6.528.082-.413.412-.744.248-1.239-.166-.496-.744-.166-1.158-.248-.248 1.074.084 2.066-.412 3.058-.662-1.487.412-3.884-1.24-4.628 0-.248.084-.413-.082-.496l-.578 1.157c.248-1.487-.91-1.239-1.322-2.479-.826.413.496 1.404-.578 1.487-.496-.827-.826-2.727-1.9-2.396-.166-.248-.414-.331-.744-.248l-.168 1.323zM130.387 77.745c0 .165.164.496-.084.579-.412-.083-.412-.744-.908-.579-.248.579.744 1.157-.248 1.652.084.579.826 1.157 1.24 1.405.164-.496 1.404-.331 1.652-1.157l.992 1.157c.164-1.157-1.158-2.396-1.736-3.636-.33.083-.908.001-.908.579z" fill="#0c0e0f"/><path d="M110.637 77.58c.744.826 1.984.248 2.645 1.074l-5.289.413c-.082 1.239 1.902.496 2.232 1.735l.826.165c.33.578-.992.496-.578 1.322l1.486.248c-.082.248-.164.496-.164.743.99.083 1.322.992 1.982 1.653.992.248 1.488-1.322 2.561-.661-.66.414-1.156 1.901-2.312 1.405-.082.909 1.322.578 1.404 1.239.908.166 1.404-1.487 2.562-1.157.248-.826-.992-.578-.744-1.487.578-.248.908-1.157 1.734-.992.166 1.074 1.406.579 1.488 1.653.166 0 .412-.248.412-.413-.082-1.074-1.074-1.735-1.156-2.81-.33-.413.082-.661-.082-1.074-.992-.248-.578-1.653-1.074-2.313-.166 1.322-1.57.826-2.396.413-.578-1.074-1.322-.248-2.148-.743-.993-.083-2.149-.992-3.389-.413zM76.841 79.397c.166 0 .083.248.083.414 1.074-.083.991-1.405 1.157-2.231-.827.165-.579 1.321-1.24 1.817zM75.684 80.058v2.066h.165c.496-1.322.496-2.975.661-4.379-.826.248-.661 1.57-.826 2.313zM68.165 79.893c.661.413 1.322-.992 2.065-.083 0 .992-1.157 1.57-1.157 2.644 1.24-.744 1.983-3.471 4.379-2.231l.414.827c.496-.248.744-.992.413-1.57-.413-.661-.991 0-1.404 0l-2.396-.083.578-1.487c-1.24.083-2.397.991-2.892 1.983zM79.402 81.793c1.157-.744 2.975-2.148 2.81-3.636-.496 1.488-2.892 2.149-2.81 3.636zM128.238 81.793v.496c.66.661.412-.744 1.156-.331.414-.991-.744-2.148-1.156-3.057l-.414-.166c-.248 1.323 1.653 1.654.414 3.058zM78.246 81.215c.826-.083 1.404-.992 1.818-1.818l-.248-.661c-.331.909-1.818 1.322-1.57 2.479zM102.043 79.067c.248.744 1.652.33 2.562.413-.91-.331-1.652-.579-2.562-.413zM82.459 80.967h-.991c-.331 1.735 1.405-.165 1.652 1.322.909-1.074 3.058-.331 3.223-1.735l-.743-.331c.248-.661 1.239-.413.826-1.156-1.239.578-2.975.33-3.967 1.9zM49.985 84.025c-1.57 1.404-3.966 2.644-3.966 4.958 1.074 0 .578-1.322 1.322-1.735 1.322-2.479 4.545-2.975 6.114-5.123-.991.248-1.652 1.487-2.727 1.157 1.074-2.479 3.884-2.065 5.536-3.47l-.164-.745c-2.479.744-5.784 2.148-6.115 4.958zM102.787 80.306c.662.744 1.818.578 2.562 1.405.494.248 1.57-.083 1.652.744.496-.331 1.57.661 1.818-.331-.662-.744-2.066.992-1.984-.909-.826 0-1.734-.083-1.9-.992-.744.083-1.57-.165-2.148.083z" fill="#0c0e0f"/><path fill="#0c0e0f" d="M83.699 80.802l.826-.165h-.66l-.166.165zM140.963 81.958c.166.083.33-.165.414-.248l-.084-.661c-.412.166-.33.579-.33.909zM88.327 84.025c.083.33-.083.743.33.909l2.645-3.14-.165-.413c-.992.577-1.654 2.065-2.81 2.644zM89.979 84.272c.165.248.165.579.413.744.661-.496.909.826 1.488.661.248-1.074 1.983-1.652 1.57-2.644l-1.983 1.735-.166-.165c.413-1.074 2.314-1.487 2.148-2.892-1.404.496-1.982 2.148-3.47 2.561zM85.269 83.611c1.405.166 2.81 0 3.719-1.157v-.496l-1.405.579-.248-.744c-.496.827-2.066.745-2.066 1.818zM128.238 84.272c-.166-.248.33-1.405-.414-1.57-.744.579.414.992.414 1.57zM81.633 85.347c.083.166.331.083.413.083 0-1.404 2.314-.661 2.231-1.983-.908.578-2.479.495-2.644 1.9zM146.004 87.413h.412l-.412-1.735c.744-.248 1.156 2.727 1.652.744.33-.744-.412-.496-.66-.744-.662-.661-.992-2.727-2.396-1.487l1.404 3.222zM79.733 85.347v.413c.165-.909 1.735-.909 1.735-1.9-.661.165-1.653.826-1.735 1.487zM97.004 84.025v-.166l-.993.166v.165l.993-.165zM133.361 84.768c-.166.661-.826 1.487-.414 2.066 1.736-.661 3.719-.909 5.537-.165.578.331.578 1.157 1.156 1.157.414-1.9-2.396-1.652-2.645-3.553l-.99.744-.744-.826c-.577.081-1.156 1.486-1.9.577zM94.689 84.521v.248l.992-.496c-.248.33-.661.165-.992.248zM70.478 87.661c.413.082.661-.248.992-.083.248.248.166.661.661.661l.083-.083c.083 1.24 1.818.579 1.322 1.983.248 0 .743.166.909.496-.083.33-.248.826 0 1.157.248.165.579-.166.496-.496-1.074-.909-.661-3.058-2.396-3.471l-.413-.992c-.827-.083-.827-1.405-1.818-1.818-.496.661-1.074.083-1.57-.248.082 1.158 1.403 1.736 1.734 2.894zM82.79 87.082c.744-.166.909-1.24 1.075-1.735-.414.578-.992 1.074-1.075 1.735zM94.937 86.09c.414.744 1.405-.413 1.983.413l-.331 1.322c.331-.496.826-1.157 1.57-1.405.826.413-.33.909-.33 1.405.742.331 1.404 0 1.982-.248.166-1.157-1.24-.909-1.24-2.148-1.155-.33-2.229.826-3.634.661zM68.578 86.503c.083.083.165.166.248.166.33-.083.165-.414.248-.579l-1.24-.331c-.331.331.496.496.744.744zM44.697 93.445c-.661.661-.496 1.818-.744 2.479 1.239.082.744-1.24 1.735-1.487l.331.331c-1.074 1.817-2.645 3.717-2.645 5.868.826.082.744-1.322 1.322-1.818.331-.826 1.487-.91 1.487-1.9l-1.652 1.156v-.66c1.405-1.488 2.148-3.141 3.305-4.711l-1.24.579c-.165-1.487 1.983-2.396 2.066-3.636-1.322.579-2.479 1.818-3.388 2.727-.083-1.653 1.9-2.81 2.975-3.966.826-.744 2.313-1.322 2.479-2.645-2.395 2.064-5.701 4.13-6.031 7.683zM116.504 87.413c.496.496.826-.331 1.322-.331l-.164-.579c-.414.166-.91.331-1.158.91z"/><path d="M131.791 87.826c1.652-.248 2.811 2.066 4.627.909.662-.083 1.57 0 2.232.413.164.413.33 1.322.99.744-.578-1.24-1.982-2.314-3.057-3.058-1.899-.165-2.974 1.488-4.792.992zM83.369 88.9c.661-.165.578-1.322.744-1.653-.414.496-.662.992-.744 1.653z" fill="#0c0e0f"/><path fill="#fff" d="M136.666 88.487h.248v-.992h-.248v.992z"/><path d="M84.278 89.726h.248l.166-1.322c.081.578-.745.744-.414 1.322zM132.205 91.544v.082c1.322-.991 1.156 1.487 2.643 1.074 1.736.496 1.818-2.065 3.637-1.652v-.413c-1.074-.496-2.066.909-2.975.413l-.662.744-.494-.909c-.166.165-.248.413-.578.33.412-.826-.992-.744-.744-1.817-.827.578.659 2.065-.827 2.148zM76.345 91.544h.165v-.661c-.248.165-.165.413-.165.661zM143.607 91.792c.082.661-.826 1.653.166 2.066-.084-.661.743-1.818-.166-2.066zM78.246 92.784l-.579-.992.166.992h.413zM77.998 96.006c.661.662.413 1.24-.331 1.818-.083.166.166.248.331.414.826-.662 1.57-1.736 1.818-2.728l-.496-.248c.909-1.157-.579-2.066-.496-3.223-.578 1.406.744 3.224-.826 3.967zM130.635 92.701l.66.413c-.082.248-.412.414-.248.744.744.991 2.314 1.239 3.637.909.578-.248.826-.744 1.156-1.24-1.074-.331-1.982 1.322-3.223.744l-.412-.578c.66-1.075-1.322-.248-.744-1.488-.414-.082-.662.248-.826.496zM144.186 94.602c.084.166.248.166.414.166l.66-1.818c-.66.164-.908.99-1.074 1.652zM145.26 96.75c.33.166.496-.33.744-.414l.412.744c-1.072 1.074-1.568 2.396-1.9 3.801.744.332.332-.578.828-.742l.66 1.322c.66-1.074.992-2.893 1.24-4.049-.992-.744.164-1.902.412-2.645.248-.248.662-.414.496-.744-.826.083-1.322 1.24-1.736 1.901-.412-.909.414-1.653.58-2.479-.992.661-1.818 2.148-1.736 3.305zM149.309 96.254c.91.166.662-.826 1.074-1.239l-.164-.413c-.662.247-.91.908-.91 1.652zM94.937 96.75c-.413-.496.248-.992-.083-1.57-.579.826-.579 1.57-.166 2.478.909-.496 1.901-1.569 2.975-2.148.248-.082.414-.496.414-.743-1.157.33-2.148 1.157-3.14 1.983zM92.954 96.668c.909 0 .413-1.158.992-1.653-.166.578-1.405 1.074-.992 1.653zM92.21 96.916h.083l.166-1.901c-.332.495-.662 1.239-.249 1.901zM153.275 95.263c.496 1.487-1.488 2.479-1.156 3.884.412-1.322 1.734-2.396 1.9-3.884h-.744z" fill="#0c0e0f"/><path d="M180.627 97.658c3.223 1.818 1.9 6.033 2.561 9.09.332 2.562-1.734 4.049-1.816 6.445.66 3.555-3.719 4.215-4.215 6.859h-.248V118.4c-1.322.66-2.314.246-3.553-.166-.496-1.652-1.322-3.389-1.57-4.959 1.404.662 1.074 2.811 2.562 3.473.494-.166.66-.662.66-1.24-.744.578-.992-.33-1.404-.744v-2.314l-.496.58c-.744-1.322.082-2.729-.744-3.967-.082-2.893.992-5.371 2.23-7.686-.99-.248-1.404.91-2.148 1.404v.58h.166c-.082 2.064-1.57 3.965-1.488 6.279l-.082.166-.496-2.811c-.826.91-.164 2.811-.578 3.719-.744-1.488-.412-3.801-.33-5.289-.744 1.9-.908 4.627-.082 6.693-1.736.578-1.818-1.322-2.314-2.479l-.166-1.24h-.494c.082 1.158.494 2.314.33 3.471-.744-.908-.662 0-1.488 0-.744-1.404-.826-3.057-1.404-4.545-.412.248.082 1.322-.412 1.488v2.066c-2.148-1.074.246-2.729-1.406-4.133.91 1.9-1.652 2.562-.082 4.545-.248.496-.908.33-1.24.084l-.578-.992c-.248.248 0 1.486-.744.992-.164-.332-.412-.662-.66-.992l-.248 1.238-.826-.494c-.33.33.082.494-.33.908l-.992-.908c-.082.412.248 1.156-.412 1.238-.91-.248-2.066.662-2.562-.496-1.322-2.809-.496-5.619-.082-8.346-.166-.496-.166-.992-.662-1.322-2.479 0-2.809 2.645-3.883 4.297-1.074 2.727-2.148 5.537-1.9 8.924-.414.084-.992.166-.744.828-.082.33-.414.082-.578.164-.084-.164-.33-.248-.33-.412h-.248l.164 1.156c-1.322.082-.496 2.727-2.066 1.9-.412.248.084.826-.412.992-.496 0-.33-.662-.992-.414-.248.414 0 .91.332 1.156.66-.99 1.568.166 2.23-.99.992 1.074 1.652-.744 2.645-.662 4.627.248 8.428-.578 12.395 1.24.826.412 1.734-.166 2.561.412.578.496-.66.828 0 1.322.992.58 2.066 1.24 3.059 1.736.33-.082.412-.578.164-.826-.66-.496-1.568-.662-2.064-1.488l1.322-.164c-.496-1.24-2.314-1.158-3.555-1.736-.248-.164-.082-.496-.082-.744.908-.908 1.652-.164 2.811 0 1.156 1.654 4.627 2.066 4.379 5.123-.662.744.496 1.57-.496 2.066-.496-.082-.082-.908-.908-.578-.166.578-.662.578-1.158.744-.248.992-1.156 2.066-1.816 2.479-.744-.66 0-1.486 0-2.23l-3.471-.084c.66-.99.164-1.652 0-2.643-.91-.414-1.984-.414-3.141-.166-1.156.412-.744-1.24-1.818-.578-.578-.248-1.652-.662-2.561-.33-.414.248-.992.164-1.406.164-.164-.826-.742-1.238-1.404-.99-1.9.082-2.561-1.322-4.461-.166.66.744 2.148.248 2.975.992.742-.496 1.322.33 2.064.412-.164 1.57-2.23.578-3.223 1.074-1.816.744-3.387-1.57-4.875-.166-.496.248-.908.91-1.652.91-.578-.496.744-1.818-.66-1.9 0-.248.164-.496.164-.744-1.734-1.156-3.967-1.074-5.867-1.488-.412 1.406 2.148.166 1.57 1.57-.992-.248-2.479 1.406-2.893-.248-.412 0-.66.166-.908.248v-1.238c-.992-.578-2.066.412-2.893-.332.992-1.734 2.811.414 4.215-.742l2.396-.166v-.496c-2.066-.744-3.719.662-5.785 0l-.33-1.074c-1.404-.248-3.057 1.736-3.967 0-.248.248-.826.084-1.238.084-.332-.414-.662-.496-1.074-.166-.248.33-.744.412-1.158.496-.578-.992 1.158-.496.91-1.57-1.158-.826-2.396.992-3.059-.33-.99-.662-2.809 1.486-2.809-.414-1.57.414-.91-1.734-2.562-.992-.742-.908.084-1.404.332-2.23-1.322.166-2.811 1.736-4.215 1.322-.744-1.486 1.24-1.486 1.322-2.809-1.158.164-2.23 1.156-3.305.66 1.652-.744.412-2.727 2.146-3.305.414-.744 1.488-1.322 1.324-2.314-.744.91-1.984.578-2.811.578.33-1.074 2.066-1.156 2.066-2.312-.332-.166-.496.164-.744.248-.578-1.322 1.074-2.232 1.156-3.471-.33 0-.66.082-.908.412a1.433 1.433 0 0 1-.248-1.156l1.156-.908c-.826-.414-1.238 1.238-1.9 1.486.908 1.404-.496 2.562-.496 3.967-.248.992-1.404.908-2.148 1.322l-.248-.414c-.826.744-2.396.248-2.727 1.57 1.404.744 2.975-2.479 3.553.082-1.32.496-2.891.91-4.049 1.406l2.562 1.156-1.404 1.652c0 .496.742 0 .99.414-1.652.33-3.139 1.238-5.123.826-.164.164-.412.33-.33.578 1.9 1.238 4.627.166 6.611.908-.496 1.322-2.148 1.57-3.307 2.066-.99-.166-1.156 1.156-1.652 1.734-.496 1.57 1.322.992 1.322 2.314-.33.744-1.074.414-1.322 1.074.084.082.496.414.578.744.414-.166.992-.496 1.488-.166.496 1.24-1.652 1.488-1.074 2.811.744-.248 1.404-.662 2.066-1.074.33.742-.496 1.404-.414 2.23.744.33 1.24 1.24 1.156 1.9-1.238.992-.164 3.057-1.322 4.215l1.074 3.057c-1.156.166-1.816.496-2.643 1.488-.662.578-1.074 1.652-1.818 1.982-1.322-1.734-2.562 1.322-4.215.414-1.57-.414-3.47-1.074-5.288-1.158-.083 0-.166-.164-.331-.164 2.562-.248 4.875.412 7.271-.58.166-.908.826-2.146 0-2.975-.248-.164-.494-.33-.33-.578 1.488-1.074 3.305-2.396 3.801-4.297-1.156-2.064-7.437-.908-4.545-4.627v-.908l-1.074-.084c-.661-2.148 1.158-3.057 2.562-3.965h.082c.166.66-.826 1.486-.248 2.148-.082.33-.496.742-.164 1.074 1.32-.166 1.816-1.57 2.479-2.396-.662-.662.248-1.488-.578-1.9H98.82c.084-1.736.414-3.637-.66-5.289-.082-.248.166-.662-.082-.91-.414-.082-.414.332-.662.496 0 1.074.662 1.818.662 2.977-1.074-.58-1.654-2.314-2.232-3.555-.496-.164-.826-1.156-1.487-.578-.496-1.238-.166-3.057-.248-4.215-1.322.58-.579 2.48-1.157 3.637-1.901-2.23.909-4.215.413-6.445h-.331c-.413 1.734-1.735 3.141-1.735 5.123l-.744-1.156c-.661.248.083 1.404-.578 1.818-.496-.91-.496-2.15 0-3.225l-.331-.246-.827.742c0-2.809 1.57-5.453 1.488-8.346h-.331c-.496 2.645-1.57 5.041-2.149 7.604-1.322-1.24.496-2.977.083-4.711l-.083-1.156-1.074.494c-.249-.742-.083-1.734-.744-1.898l-.331 3.801c-.909-.084-1.157-1.654-1.404-2.562-.248-.826-.248-1.982-1.074-2.314-.414 1.654 1.157 3.389.165 4.877-.579-1.24-.496-2.645-1.157-3.801a.666.666 0 0 0-.744.246c-.248-.494-.248-.99-.413-1.486-1.405.412-2.727.826-3.801 1.982l-.331 1.57h.744c.413.992-1.405 2.066-.165 3.059-.248.494-.414.99-.661 1.404-1.487-.662-2.479 1.734-3.718 2.561.165 1.406-1.983 1.818-2.893 2.893-.413.33-1.157-.082-1.404.66v.496l.991.166c-.991 1.652-2.975 2.148-3.718 4.049-.992.412-1.24 1.734-2.479 1.404-.248 2.975-3.388 1.736-5.123 2.645-2.231.578-4.132.578-6.197 1.57l.165.66c1.983-.164 4.379.414 5.701-1.074 1.075-.082 2.479-1.074 3.719-.33 1.57-.082 3.058.662 4.792.662-.826.578-2.065.99-2.644 1.9.661.908 1.157-.662 1.818.248 2.81.246 2.066-3.555 4.875-3.307 1.487-2.891 4.875-3.553 7.85-3.967 1.24-.164 3.388-1.156 4.214.248.992.496 2.396-.164 3.553.248.165-.33.496-.248.826-.248.414.91 1.653 1.406 2.066 1.736-.827 1.074-1.405-.744-2.396-.082-1.074.908.661 3.553-1.653 3.469-1.157-.082-1.901.91-2.975.248-.248.414-.083.91-.166 1.406l-1.157.082c.331 1.488-1.735.248-1.322 1.652.248.33.743.578.743 1.074-1.239.248-2.644.578-3.966.248-.909-.66-.909-2.314-.496-3.223.744-.496 1.405-1.818 2.231-1.652.331-.662-.331-1.488-.992-1.9-.248.082-.496-.082-.578.164-.248.496.331.744.578.992-1.074.248-1.652.826-2.644 1.156 0 .248 0 .414.166.496-.579.414-1.735.166-1.487 1.322-1.653-.66-.414 1.736-2.066 1.158-.165 1.156-.743 1.486-1.569 2.146-.331 1.902-2.231 0-2.396 1.818-1.901-.082-3.471-.826-5.124-1.57-4.544-.66-9.007 1.158-13.634.084-2.148-1.9.413-4.627.166-6.859.992-1.156 1.818-2.645.992-4.131-.248-1.488-1.653-2.148-2.727-3.059l-2.644-3.223c.909-.66 4.049.826 3.388-1.486-.248-.248-.496-.496-.909-.414-.082.414.827.828.166 1.158-.413-.33-1.487 0-1.653-.826-.578-.58-1.322.412-1.735-.662l-.578.662c-1.735-.828-.165-3.307-1.9-3.637-1.653.33-3.388.166-5.289.414-2.149-.414-5.124-2.645-6.859-.332.661.826-.661.826-.496 1.57.661.992 1.57 2.232 2.81 2.48l1.817-.248c.248-1.158.083-2.396-.744-3.223 1.405 0 3.14.578 4.214 1.652-.331 1.074-.661 2.148-1.487 3.057-.331-.578.578-1.074.496-1.734-.248-.662.414-.992 0-1.488-1.074.66-1.157 2.148-2.479 2.645-.165.33-.496.496-.33.826.33.166.496.412.743.66-1.157 1.074-2.479.414-3.718 0-.827-1.238-3.388-1.32-2.81-3.305l.744.33c.166-1.074-.744-2.312-.413-3.553h-.413l.083 3.223c-.331.166-.166-.578-.496-.082-.413-.992.083-2.562-.413-3.141 1.57-.412 1.239-3.057 3.471-3.223 2.396-.33 4.792-.33 7.023.908-.661.662-2.066-.082-2.975.58.661.744 1.983.496 2.81.496.661-.662.661.578 1.322.412.992-.164 2.231-.248 2.644-1.074l-1.157-.082c.909-.248.661-1.322.744-1.818.909-1.57 1.983-2.975 2.314-4.793l-.827-.164c-.413-.744 1.57-2.149-.165-2.314-.496 1.488-1.9 2.893-2.396 4.463.826.494 0 1.074-.413 1.404-.826 0-1.239.742-1.405 1.404-3.057-.248-7.023-2.066-9.585.496-1.157.99-1.9 2.396-2.148 3.967-4.131 1.816-9.667-.662-13.965 1.568-.743.744-1.652 2.066-2.644 2.48v.412c.744.248 1.653-.248 2.479-.248 1.818.166 3.801.084 5.289 1.158 3.553.494 6.28-1.24 9.337-1.9 1.652 2.146 4.214 4.295 7.023 4.131 1.735-.082 3.141-1.404 3.967-2.811.743-1.072.496-2.975 1.074-3.801.744.414 1.487-.082 2.231-.164 1.57 3.801 5.288 6.031 7.602 9.42-.826 2.645-5.371 2.645-4.132 6.279.248 1.818 4.214 1.652 2.645 3.967.248.744.083 1.652.165 2.479 1.074.826 2.314 1.24 3.636 1.488 3.801-.58 8.098.082 11.569-1.24 1.735.166 3.47.66 4.462 2.396-2.148 1.322-3.636 3.635-4.462 5.949.083.908.744 1.156 1.322 1.652-.33 1.158-.991 2.562-.248 3.801 2.645 0 5.454-1.486 7.438-3.553 2.313 0 4.214-.33 6.445-.248.248.496.496.662.909.91 1.983-2.148 5.536-.578 7.602-2.562 4.214.826 8.594.082 12.478 1.818l2.645-.166.246.496c.662-.992 1.654.744 2.066-.66.744-.91 1.322-2.645 2.645-3.059 2.066-.248 4.627-.164 6.693.414l5.205-4.463c-.082-1.652.166-3.223-.908-4.627l.166-6.279c1.074-.744 2.312.248 3.553-.332l2.727-.826.414.826c.99.248 1.9-1.404 2.643 0 1.322.58 3.059.248 4.215.992-.412 1.322-1.9.992-2.893 1.57 0 .744.992.744 1.488 1.156 2.561-.99 5.701-.99 7.52-3.223 1.404.33 2.975.496 4.215 1.404.246.744-.826.828-.496 1.488 1.322-.082 3.223.412 4.131-.992.33.332-.166 1.322.744.992.744-1.24 1.9-.578 2.893-.578l.33 1.074c.99-.33 1.818-2.232 2.893-.91.66.084.66-1.486 1.486-.742.248.412 0 1.734.826 1.156.248-.33.414-.744.744-.992.248.992.992 0 1.404.248.332.166.662-1.156 1.158-.248.082.578-1.076.826-.496 1.488 1.156-1.322 2.561 1.322 2.809-1.24.33.084.744 0 .908.33-.082.58-.826.992-.742 1.654 1.156.082 2.23.908 3.553.412.992.826-.744 1.652.248 2.479 1.818.248 2.479-2.064 3.635-2.809.744.496-.082.908.166 1.486 1.652.662 1.156-1.568 2.066-2.148.33.084.66.496.99.58.414-1.074-.826-2.066.332-2.977-.414-.66-1.736-1.404-1.074-2.146-.248-1.24-1.818-1.984-2.562-2.811-1.074-1.24-2.561-1.322-3.967-1.57-.248-.908.414-1.818.578-2.727 4.299-1.652 6.777 2.645 10.082 4.131 0 .744-1.57.91-.578 1.736.66-.166 1.156-.826 1.9-.578.66.33-.082 1.322.66 1.486.662-.082 1.158-.578 1.654-1.156.494-.082.33.578.742.578.91-1.818 2.811-2.561 4.133-4.213 1.57-1.57.496-4.133 2.064-5.619.992-3.885 2.148-9.668-.908-13.057-.744-.91-1.156-1.404-2.148-2.148-.168.424-.002 1.25.494 1.746z" fill="#0c0e0f"/><path d="M96.259 97.906c.165.166.165.332.165.496.91 0 1.074-1.074 1.654-1.486v-.496c-.662.412-1.158 1.238-1.819 1.486zM150.219 96.916c-.496.908-.91 1.734-.91 2.809.744.992 1.488-.082 1.818-.744-.248-.908.578-1.486.248-2.23-.33.247-.826.411-1.156.165zM97.416 100.387c.166 0 .248-.166.33-.084.248.332.084.992.084 1.488.496 0 .742-.496.66-.91v-.99h-.33c-.33-1.322 2.064-1.984 1.818-3.141-.91 1.074-3.306 2.066-2.562 3.637zM153.523 100.387c.744 0 .412-1.406 1.24-1.57.412.578-.084 1.074-.166 1.57.744-.414 1.24-1.488 1.322-2.48-.33-.082-.414.166-.578.332-1.487-3.885-1.405 1.404-1.818 2.148zM147.408 101.129h.496c-.082-1.486 1.156-2.561 1.156-4.049-.742 1.158-1.568 2.727-1.652 4.049zM77.502 100.139c1.239-.414 2.396-1.984 3.553-2.727l-.165-.332-3.388 2.479v.58zM99.979 99.973c.412 1.074-1.406 1.488-.744 2.809.496.166 2.148-.494 1.734.91-.082.082.084.164.166.248 1.24-.578-.082-2.811 1.156-3.637.166-.082.166-.33.166-.412-1.322.164-.908 1.57-1.652 2.312-.58.248-.662-.99-.414-1.486.992-.826 1.322-2.148.578-3.223-.164.908-1.735 1.404-.99 2.479zM135.096 99.146c.166.248.414.082.662.082v-1.57c-.496.084-.496.992-.662 1.488zM156.828 99.891c.578-.414.578-1.158.91-1.818l-.91-.248c-.248.577-.248 1.404 0 2.066zM136.584 98.568c-.166 1.156.992.908 1.57 1.57.412-.414.578-.91.496-1.488l-.332-.248-.412.414c-.084-.578-.992-1.158-1.322-.248zM142.451 98.816c-.33.496-.414 1.156-.826 1.486l-.248-1.734c-.496.908-.744 2.066-.826 3.305l1.074.744c.66-.578.164-1.736.908-2.23.66.742-.66 2.064.66 2.23.084-1.488.248-2.893.744-4.215-.496.166-1.074.578-1.486.414zM110.967 99.146v.412c.662.166.91-.578.828-.99-.496-.166-.828.164-.828.578zM145.508 100.139l.578-1.323-.578.909v.414zM139.393 100.717c.662.082.496-.744.744-1.158l-.164-.742c-.248.495-.827 1.322-.58 1.9zM45.275 101.129c.165.578.909.166 1.157.496.413-.496.413-1.074.661-1.652-.496.248-.331.826-.744.908-.413-.578.083-1.156.083-1.734-.578.412-.578 1.404-1.157 1.982zM158.15 99.559c-.33.744-.826 1.57-.66 2.314l1.074-1.57c.578.496-.414 1.074-.33 1.736.66 0 .66-.91 1.156-1.158l.496.744c.248-.578-.414-1.486-.58-2.23-.329.744-.66-.083-1.156.164zM118.652 100.387c1.156.082 1.652 1.32 2.396 1.816.082.578.908 1.158 1.488.744.33-.082.496-.414.412-.744-.578-.248-.66 0-1.156-.33l.412-1.156c-1.156-.496-1.816-1.984-3.223-.826-.163.082-.329.33-.329.496zM79.154 102.039c.248-.166.744.248.909.578-.166 1.486-2.479 2.148-1.818 3.389.083.742-.744 1.404-.413 2.064.743.33.413-.578.826-.744 1.074 0 1.735 1.24 2.81.414-.248-1.322-2.81-2.975-.661-3.967l-.331-3.387c-.413.495-.908 1.157-1.322 1.653zM175.504 107.244l-.744.496c.33.166.992.578.496.908a1.122 1.122 0 0 0-.496.91h.33l.166.99c.412-.496.908-1.238 1.322-1.734 0 1.156-1.158 2.23-.744 3.801-.33.166-.248.496-.33.908.744.166.412.662.496.992.412-.082.742.082.99.414l.58-.578c.578-2.148 2.148-4.051 1.652-6.445.496-.91.826-2.148.578-3.225-.578-1.238-.496-2.891-1.158-4.047-1.652 1.653-2.808 3.966-3.138 6.61z" fill="#0c0e0f"/><path d="M180.379 101.129c.33 2.314 1.156 4.463.992 6.941-1.652 1.074-1.818 3.141-2.148 4.959v.742c.496 0 .742-.578 1.156-.908-1.322-.744.248-1.9-.166-3.057.496-.992 1.736-.662 1.818-1.9.248-2.314-.496-4.711-1.074-6.859l-.578.082zM82.377 105.84l-.661-3.307.33 2.893.331.414zM102.291 104.682l-.578.166c.744.578-.248 3.305 1.736 2.479.246-.66-.992-1.404 0-1.734 1.404.166 2.23-1.488 3.057-2.396-1.074-.908-1.9.992-2.893 1.486-.248.247-1.074.495-1.322-.001z" fill="#0c0e0f"/><path d="M149.641 116.994c0 .58-.084 1.488.742 1.322l.744-.082c-1.074-1.9-.992-4.131-1.818-6.115 1.57-.496.662 2.066 1.9 2.232 0-.414-.494-.828-.082-1.322 1.404.082.826 1.734 1.57 2.479 1.734.578 1.322 3.139 3.223 2.479-1.818-.66-2.645-2.727-3.637-4.215-.164-3.471-1.156-7.271 0-10.41-3.222 3.47-4.875 9.087-2.642 13.632z" fill="#fff"/><path d="M164.514 105.758h.33l.166-2.232c-.414.662-.826 1.404-.496 2.232zM120.801 105.014c-.082.33 0 .826.414.744l.082 1.238c.248 0 .33.248.496.33-.248.496-.826.826-.578 1.488.742.33 1.238-1.24 2.148-.414-.248.826.33 1.652 1.074 2.148.99-1.238 2.148-2.396 3.387-3.553-.082-.164.084-.496-.164-.496l-1.736 1.158c-.248-.414.248-1.158.084-1.488-.414-.082-1.074.992-1.24 0l-1.24.578c-.248-.248-.082-.742-.164-.99.66-.496 1.816-.248 1.816-1.322-.578-.248-1.156.164-1.816.246l-.248-.908c-.827.415-1.737.415-2.315 1.241zM167.654 106.914c.66-.826-.58-1.818-.166-2.975-.414.991-.578 2.067.166 2.975zM113.529 105.426c.744.166 1.24-.578 1.652-.908v-.414c-.742 0-1.156.826-1.652 1.322zM105.35 106.252c.494.248 1.074-.246 1.074-.66l-.166-.91c-.33.662-1.24.662-.908 1.57zM84.691 107.41h.744c-.166-.248-.909-1.736-1.735-2.314-.083.662.495 1.652.991 2.314zM132.617 106.584c-.082-.084-.412-.248-.33-.414-.662.414-.992 1.488-1.652 2.23-.332.414-1.652.91-1.074 1.736.082.248.33.082.578.082.496-.33.248-.992.908-1.322 1.158.662.826-1.156 1.736-1.57.578-.494 1.57-1.074 1.486-1.9l-1.652 1.158zM134.518 107.244c.166 0 .33 0 .496-.248l.248.33c-.082.084-.248.166-.166.332.332-.414.662-1.158.662-1.818l-.496-.248c-.414.414-.66.992-.744 1.652zM51.308 108.648c1.239-.66.165 1.57 1.652.992-.083.412.166 1.322.744.744.166-.992.166-2.479-.661-2.975l-.826.742.248-2.146c-.91.495-1.075 1.653-1.157 2.643zM159.721 106.17c-.166 1.074.082 2.479.578 3.223.248-1.075-.412-2.315-.578-3.223zM126.172 109.393c-.412.414 0 .908.414.992 1.9.744 2.479-1.736 3.717-2.645.332-.744-.66-.33-.742-.826-1.653.248-1.819 2.397-3.389 2.479zM74.279 110.137c.992.082 1.488-1.074 1.818-1.736l-1.818 1.736zM76.51 110.219l.331.33c.083-.248-.414-1.486.496-1.652l-.083-.412c-.413.577-.827 1.074-.744 1.734zM54.117 110.219v.91c.248.248.744-.084.826-.414l.166-.166c.331.58-.166 2.066 1.157 1.488 0 .578.496 1.074 1.074 1.156.579-.33.579-1.074.579-1.816-.579.246-.992-.91-1.487-.084-.413-.33-.496-.826-.413-1.322-.331-.164-.496.166-.744.248-.413-.33-.083-.496-.166-.992-.579-.165-.662.744-.992.992zM62.545 111.707c1.487 0-.661 1.322.909 1.486-.248.166-.083.496-.166.744.909.166 1.405-.826 1.818-1.322 0-.578-.413-1.238-1.074-.744-.165.248-.578.084-.826.166.083-.826.744-1.652 1.157-2.479-.908.331-1.653 1.239-1.818 2.149z" fill="#0c0e0f"/><path d="M17.015 109.559c.826.908 2.479.99 3.058 2.148.909-.166 1.983-.166 2.644-.826-1.901-.496-3.801-.91-5.702-1.322z" fill="#d6d8d9"/><path d="M76.841 112.863c-1.074.578-1.901 1.734-2.975 2.066-.579 1.57-2.81 1.156-4.049 2.064-.744-.412-1.405.248-1.652.744 2.313.33 4.71-1.074 7.023-1.652 2.396-2.148 5.867-1.734 8.759-2.811.579.332.248.91.331 1.406 2.975 0 5.702.412 8.346 1.322-.826-.91-.496-2.893-2.313-2.48-2.81-2.809-6.611-4.461-10.577-3.139-1.158.828-2.15 1.24-2.893 2.48z" fill="#fff"/><path d="M13.958 109.971c1.157 1.158 2.231 2.645 4.379 2.066-1.074-1.322-2.727-1.984-4.379-2.066zM171.455 112.615c.412-.248-.084-.744-.166-1.238l.166 1.238z" fill="#d6d8d9"/><path d="M141.129 111.871c0 .744-1.24.91-.578 1.9-.992.248-.826.992-1.322 1.652.248.496.66 1.158.248 1.736-.248-.166-.248-.496-.414-.744h-.412c-.332.91 1.074 1.57 0 2.314.248.248-.084.908.578.744.99-1.57 1.9-3.885 3.801-4.381.33-.908 1.734-1.322 1.9-2.23-.908.248-.578-.908-1.156-.992-.826.414.33.744.164 1.158-.33.66-1.156.494-1.652 1.156-.992-.826.248-2.396-.992-2.809l-.165.496z" fill="#0c0e0f"/><path fill="#fff" d="M177.074 113.523l.742-2.146-.742 1.238v.908z"/><path d="M142.533 111.871c-.166.414-.166.992.248 1.322.33-.33.578-1.238-.248-1.322z" fill="#0c0e0f"/><path d="M160.877 112.863c-.248-.248-.66-.578-.99-.248l-.496.414 2.975-.166c-.001-.66-1.241-.66-1.489 0zM163.77 113.029h.33c0-.166-.082-.414-.33-.414v.414zM166.91 112.863l-2.396.166c2.561-.248 4.215 1.652 6.527 1.734-.248-.578-.908-1.24-.744-1.9-.66 1.323-2.313 0-3.387 0z" fill="#d6d8d9"/><path d="M57.753 114.02c.496.414.165 1.9 1.157 1.24.165-.248.413-.414.331-.744h-.414l-.248-1.486c-.496-.001-.661.659-.826.99zM63.95 115.424l.413.828c.992-.744 2.892-.496 3.223-2.232l-1.074.496-.166-1.24c-.826.662-2.313.992-2.396 2.148zM54.2 114.186c.413.496.331 1.486 1.157.908.331-.412.992-1.074.331-1.57-.58-.083-1.323.165-1.488.662z" fill="#0c0e0f"/><path d="M159.307 115.838c1.406 0 .496 1.736.084 2.396-.248.082-.248.412-.248.66l.412.166c.414-1.486 2.148-2.893 1.488-4.297-.826-.081-1.652.167-1.736 1.075zM153.275 118.316l.166-.082-1.9-3.305c.164 1.323.082 3.471 1.734 3.387z" fill="#fff"/><path d="M54.861 116.004c-.166.578.165.99.496 1.238-.166.414-.744.496-.496 1.074l-1.405 1.9c.248.496.661.248 1.075.332l.331-.332-.661-.412c.743-.496 2.148-.662 2.065-1.9 1.157-.166.413-1.074 1.074-1.652l-.661-1.322c-.579.412-1.323.494-1.818 1.074z" fill="#0c0e0f"/><path d="M80.559 115.508c.496 1.074 2.066.496 2.975 1.074l.992-.33c-1.157.082-2.313-.166-3.223-.828l-.744.084zM74.197 117.986c1.487-.578 4.214-.744 5.867-2.314-2.48-.248-3.802 1.818-5.867 2.314z" fill="#d6d8d9"/><path d="M93.367 117.574c.992 1.32 2.644 1.072 3.801 1.9.082-.332.33-.496.248-.828-1.57 0-2.562-1.652-3.966-2.23-.248.332 0 .826-.083 1.158zM157.49 118.316l.248.084.908-1.406c-.66 0-.744.826-1.156 1.322z" fill="#fff"/><path d="M103.035 118.234v.412c1.156-.082 1.982 0 3.057 0 .744.496-.082 1.158-.412 1.736 1.074 0 1.156-1.652 2.312-.992.496-.412 1.076-.496 1.488-.99.578.33.826 1.156 1.156 1.652.578 0 .992-1.158 1.654-.248.246.99-1.076.99-1.24 1.734 1.734-.082 3.139-1.074 5.041-.33.66.33.908-.414 1.322-.66-.414-.496-1.488.164-1.984-.496.082-.91 1.24-1.406 1.488-2.066-1.24-.082-2.479 2.975-3.801 1.652-.826-.248-.248-1.486-.332-1.734-.826-.414-2.23.742-2.727-.414-2.396-.908-4.215 1.984-6.857.496l-.165.248zM87.914 117.986c.661.414 1.487.414 1.9 1.156.248-.248.083-.826.578-.826h.496v-1.156c-.248 1.486-2.148.66-2.974.826zM70.974 118.895c.165.828 1.157-.248 1.735-.494-.661-.001-1.239.163-1.735.494zM92.045 118.73l-.083.165.413.414.083-.166-.413-.413zM66.099 119.639c.992.084 2.313-.744 3.718-.496-1.405.414-2.81-.743-3.718.496zM93.45 121.539h-.496c.496.91.496 2.396 1.983 2.314.331-.662-.496-1.24-.413-1.982l1.322-1.076c-.331-.742-1.239-.33-1.735-.908.248.248.248 1.488-.661 1.652zM90.723 119.887c-.083.578.165.908.744.744.413-.414-.414-.578-.744-.744zM123.527 120.961l-.742-.33v.33h.742z" fill="#d6d8d9"/><path d="M155.92 121.375h1.156l-.082-.248c-.33.33-.826-.084-1.074.248zM157.738 122.283c.66.578 1.238-.578 2.148-.166-.332-.412-1.488-.412-1.9 0-.084.084-.166.248-.248.166zM104.77 122.613l.58-.33h-.248l-.332.33z" fill="#0c0e0f"/><path d="M106.092 123.109c-.248.33-.082.826-.164 1.156.33.248.578.496 1.074.332l.164-.084c.332.166.248.496.248.826-.99.826-.494 1.984-.412 3.141 1.074-1.322.66-3.801 2.561-3.967.496-.578 1.074-.99 1.24-1.652-1.488-.744-2.645.992-4.131.992-.496-.082 0-.744-.58-.744z" fill="#d6d8d9"/><path d="M99.234 124.514c.66 1.158-1.404 1.322-.908 2.48.578-.166.99-.58 1.486-.91.33.496.082 1.322-.578 1.322h-.166v.414c.578.164 1.322-.248 1.57-.826-1.24-1.074 1.24-1.074.166-2.232 0-.744 1.9-1.322.908-2.148-1.073.083-1.569 1.404-2.478 1.9z" fill="#0c0e0f"/><path d="M88.327 122.613c.083 1.158 1.239 2.396 1.653 3.637-.083.248-.496.578-.166.826.496.412 1.487.33 1.322 1.156 1.074-1.156 1.322 1.074 2.231.496.579 0 1.157.744 1.735.908v.414c1.074-.908.992 1.156 1.901.414.578.33.33.578.164 1.072-2.479 3.307-4.875-1.404-7.188-2.312-.909-1.24-2.892-2.23-2.892-3.885-1.074-.826-1.487.414-2.645 0-.165.332-.165.826-.165 1.322.909.496.496 1.406 1.652 1.488.248.744.413 1.818 1.405 1.982.909-.082 1.487.414 1.653 1.24.744.164 1.487-.496 1.9.412 0 .58-.496.91-1.074.91-1.322-.248-3.223 0-3.801-1.322l-.083.164c.744 1.902 3.388 1.158 5.123 1.158.496.248.166.744.248 1.156.331.248 1.487-.496 1.9.496l-.165.826c.331-.166.413.082.579.33.083.332 0 .744-.414.826-3.636-.082-7.023-.826-10.081-2.23l-.661-.826.661-.414c-1.9-.826-.496-3.883-2.313-3.139-.248-.248-.496-.084-.744-.084-.166 1.074.992 2.148.992 3.223.578-.164 1.157.332.991.828 3.058 3.221 7.768 2.975 12.064 3.553.992-.91 2.396 0 3.305-.91.248-1.238-1.405-1.074-1.57-1.982l1.57-1.074-.248-.33c.248-.248.91 0 .662-.578l-.084-.166c.084 0 .166-.166.332-.082.248.248 1.156.33 1.404-.166l.908-1.156c-2.561-1.322-5.536-1.488-7.437-3.801-.744.082-.909-.58-1.405-.91v-.578c-1.236-.991-1.65-2.396-3.219-2.892z" fill="#fff"/><path d="M160.135 122.861l1.074.166c-.166.082-.662-.662-1.074-.166zM60.479 127.242c.414.742 1.405.33 1.24 1.32l.826-.082c-.248 1.404 1.074.744 1.487 1.57.579.082.909-.33 1.322-.744.248-.578-.496-.33-.661-.578-.331-.578-.744-1.322-1.405-1.486.083-.58.992-.58.413-1.158-1.156-.248-2.56.33-3.222 1.158z" fill="#0c0e0f"/><path d="M112.125 127.406c-.082 1.24 0 2.811.992 3.637-.084.66.412 1.568-.414 1.9-.33.164-.578-.248-.578-.414v-.908c-.33.33-.91.33-1.322.33l-.496-.908c-.908.578-.992 1.652-1.57 2.561.91.248.578-1.404 1.57-1.404l.496 1.074c.412-.082.578-.578.992-.578 1.238.496-.662 1.404.578 1.9-.248.66-1.158 1.074-1.736 1.57.992 1.404 1.654-.662 2.48-.992l2.23-2.479c-.414-.248-1.322.744-1.488-.33.91-2.645-2.23-2.48-1.568-4.959h-.166z" fill="#d6d8d9"/><path d="M81.633 127.82c.331.412.413.908.992.908l.579-1.156c-.496.082-.992.412-1.571.248z" fill="#0c0e0f"/><path d="M73.536 130.629c.248.496.991.33 1.404.166l1.983 1.404.165-.082c.331.248.331 1.074.992.826 0-.166 0-.332.166-.414.165-.082.33.166.413.33-.165.332-.496.662-.579 1.158.744.412 2.231.164 2.066 1.238-.496.744-1.735-.082-1.9.248.744.662.248 2.645 2.231 2.314.331.164.331.66.083.908 1.983-.412 3.966-1.156 6.115-.66-3.305-1.404-7.933-3.719-8.098-7.934-1.487.496-2.975.496-4.379-.248-.662-.162-.332.498-.662.746zM69.569 130.629v.414c.414.082.909-.414.744-.662-.248-.082-.496 0-.744.248zM70.478 132.695c.496-.496 1.735-.91 1.9-1.322-.743.248-1.652.578-1.9 1.322zM66.677 132.529l2.396 1.074-.744-1.486c-.661.082-1.074.33-1.652.412zM109.811 135.918l.248.248 1.156-1.818c-.494.412-1.901.412-1.404 1.57z" fill="#d6d8d9"/><path d="M64.694 137.074c-.661.826-1.074 1.736-1.405 2.645 1.735-.66 3.801-1.488 5.784-.744-1.157 2.645-6.032-.082-5.123 4.131 1.157-.578 2.727-1.32 3.883-1.734.992-.496 1.735-1.074 2.645-1.652 2.065-.496 5.206 1.074 6.115-1.322.331-.166.661-.33.909-.414-.661-.082-2.562-.742-2.562.58-.496.248-.826.66-1.404.578-.661-.744-1.983-.414-3.058-1.074l.744-1.404-2.066 1.568c-.496-.742.744-1.816 1.074-2.312l-3.14 2.479-.579-.908c-.331.164-.579.494-.992.494-.743-.494.083-.99.083-1.486l2.562-1.736c-.331-.164-.496-.412-.909-.33-.495 1.155-1.735 1.733-2.561 2.641z" fill="#fff"/><path d="M99.482 136.496c.908.412 1.57-.414 2.23-.908l-.164-.744c-.661.578-2.066.412-2.066 1.652z" fill="#0c0e0f"/><path d="M68.33 135.918v.248l.496-.578c-.083.164-.331.248-.496.33z" fill="#fff"/><path d="M99.482 137.652c.742 1.818 2.066-.826 3.387-.578.332-.166.332-.744 0-.908-1.238.082-2.23.99-3.387 1.486zM74.031 137.652c.579 0 .413-.826.909-1.156-.248.33-.909.66-.909 1.156z" fill="#0c0e0f"/><path d="M77.833 139.719c.578.082 1.405-.496 1.9-.908-.826 0-1.322.412-1.9.908z" fill="#d6d8d9"/><path fill="#fff" d="M134.436 88.569h.248v-.908h-.248v.908z"/><path d="M121.875 130.217c1.488 0 2.811-1.158 2.811-2.811 0-1.57-1.322-2.727-2.811-2.727-1.57 0-2.809 1.156-2.809 2.727 0 1.653 1.239 2.811 2.809 2.811zm-2.23-2.811c0-1.322.992-2.312 2.23-2.312 1.24 0 2.23.99 2.23 2.312s-.99 2.314-2.23 2.314c-1.238.001-2.23-.991-2.23-2.314zm1.652.248h.578l.826 1.404h.496l-.908-1.404c.496-.082.826-.33.826-.908 0-.662-.33-.91-1.074-.91h-1.24v3.223h.496v-1.405zm0-.412v-.992h.66c.332 0 .662.082.662.496 0 .496-.33.496-.744.496h-.578z" fill="#0c0e0f"/></g></svg>