<svg xmlns="http://www.w3.org/2000/svg" width="2500" height="2500" viewBox="0 0 192.756 192.756"><path fill="#fff" d="M0 192.756h192.756V0H0v192.756z"/><path d="M102.666 63.826c-1.227 0-2.146-.613-3.375-.92-.307-.307-.92-.307-1.533-.307 0 .614.92.92 1.227 1.534h-.307c-1.227-.307-2.453-.92-3.987-.92 0 .613 1.227.92 1.227 1.533-1.534 0-2.76-.92-4.294-.613.307.613.92.613 1.227 1.227-1.227 0-2.147-.614-3.681-.614.307.614.92.614 1.227 1.227-1.227 0-2.454-.307-3.374-.307h-.307c0 .614.614.614.921.92h-2.454c0 .307.92.307.92.614-1.227.614-2.454 0-3.681.307.307 0 .614.307.921.613h-3.681c.307.307.613.307.613.614l-3.987.306h.614c-1.227.614-2.761 0-3.988.614.307 0 .614 0 .614.307-1.227.613-2.454.919-3.681.613-.308.307 0 .92-.613.613-.614.307-1.841-.307-1.841.614-.613.306-1.227 0-1.84.306l.307.307c-.614.307-1.227.614-1.841 0-.613.307 0 .614-.306.92-.614 0-1.534-.306-1.841 0 0 .307-.306.614-.306.614-.307 0-.92-.307-1.534 0 0 .306-.307.613-.613.306-.614.307-1.227.614-1.534.921-1.227.306-1.84.92-3.067.92-5.828 1.533-11.962 5.214-15.643 10.121-2.147 1.227-2.453 4.908-6.134 4.294-1.227-.306-1.84-1.227-2.76-2.147 0-.613 0-1.227.613-1.227.92-.306 1.227.307 1.534.614 0 .92 0 2.147 1.227 2.147.92.307 1.533-.307 1.84-.614.92-.92.613-2.147.307-2.76-.614-1.533-2.454-3.067-4.601-3.067-2.146 0-4.294.92-5.214 2.76-.614 1.534-.92 3.988.306 5.521 2.148 2.454 5.215 3.067 7.975 3.988 2.454 1.533 1.227 4.907 3.681 6.748-.307 3.373 3.68 5.215 4.6 8.281 1.534 1.84 4.294 3.681 3.374 6.441-1.533 1.533-1.84 3.68-.613 5.521 1.533 1.226 3.067 3.68 5.214 2.76 2.454-.614 4.908-.92 7.361 0 .92 0 2.454 0 3.374-.614 3.987-1.533 7.055-4.907 10.428-6.747 3.681-1.534 6.135-4.908 10.735-3.988 2.147 1.534 3.988 3.988 7.055 3.682.306 0 .92-.307.92-.613-.307-.92-1.227-1.228-1.227-1.841-1.227-1.228-2.147-3.067-1.227-4.294 0-.307 0-.92.307-1.227 1.227.613 2.761 0 3.374 1.227 1.227 2.146 3.374 4.601 4.601 7.055 0 .613-1.227.613-.614 1.227-.306 0-.92.307-1.227.307.307.921-1.533.307-.92 1.227-1.227.307-2.147-.306-3.374-.306-1.227-.308-2.76.306-3.68-.308-.614-.613-1.841 0-2.761-.307l.307-.307c-.307-.307-.92 0-1.227 0-.307 0-.307.307-.307.613.921 0 0 .92 1.227 1.228 0 .306-.92.306-1.227.306-.306-.613-1.533 0-1.533-.92-.307.307-1.534 0-1.84.614.92.306 1.84.92 2.76.92.307.308.92.308.307.613.92.613 2.147-.613 2.76.307.92 0 1.534-.612 2.454-.612-.614.919.92.306.92 1.226.613 0 1.227-.307 1.84 0 0 .307.614.307.921.614.613.306 1.226-.308 1.533.306 0 .614.307.921.92 1.227 1.227.614 2.147-.612 3.375-.306.613-.307.919-.614 1.226-.921 0-.306-.307-.613.307-.92 1.533-.613 2.453-1.533 3.373-2.147 0-.306 0-.92.615-.92.92-.306 1.227-.92 2.146-.92h.307c-.307.92-1.227.92-1.533 1.84-.92 1.228-2.455 1.841-3.066 3.067-.922.921-2.455 1.227-2.762 2.454-1.226.921-3.067 2.146-4.907 1.533-2.761-.92-4.601-2.761-6.748-4.293-3.374-.921-7.667-.614-9.508-3.375-.613-.307-1.227-.612-1.84-.92.92 0 1.84.308 3.067.613-1.534-.92-3.067-1.227-4.602-2.146-.612 0-1.227.307-1.533.613-.307 1.228 1.533 1.533 2.453 1.84 2.147.921 3.681 2.454 5.521 3.681 2.454.307 5.214.307 7.055 1.841 3.067 1.534 6.134 4.907 10.429 2.76 3.375-1.533 5.214-4.906 7.974-7.668.92-.306 1.227-.92 1.84-.92 3.682-1.84 8.281-2.146 11.043-5.521 2.146-2.147 4.293-4.294 4.906-7.361-2.146-1.84-2.453-4.601-2.453-7.361-2.146-2.76-2.76-6.44-.613-9.508 0 0 .613 0 .613.613-.92 1.227-1.533 3.374-.613 4.601.307.307.307.613.613.92-.613 2.147 1.533 3.374 1.227 5.215 0 .613.613 1.227 1.227 1.533 0-.307-.307-.307 0-.613.613.613 1.227 1.227 1.535 2.147-.309 0-.615.306-.309.306.92.614 1.84 1.228 2.455 1.228-.307-.307-.615-.613-.615-.92.615 0 1.229.613 1.842.613.613.613.92.921 1.533.921.307-.308-.92-.614-.307-1.228.92.307 1.533.92 2.453 1.228l.307-.308c.92.308 1.84.92 3.068.613-.307-.306-1.229-.306-1.535-.613 2.148-.613 3.375 1.228 5.828.92.613 0 1.842.308 2.146 1.228-1.533.613-3.373-.307-4.6-.614-.613.614-1.533-.306-2.146 0-3.682 0-7.361 0-9.201 2.454v.613c-1.535.307-1.842 1.841-3.068 3.067-.307.613-.92 1.228-1.84 1.841 0 .613-.92.92-1.533 1.533.307 0 .613-.307.613 0-2.148 2.453-6.135 2.453-7.668 4.907-1.533 1.228-2.453 3.067-4.602 2.76-.307 0-.307-.306-.307-.306.613 0 1.227 0 1.84-.307l-.305-.308c.92-.307.613-1.533 1.533-1.84 0-.92 1.533-.612 1.533-1.84-.92.306-2.146.306-3.375.92-.613-.307-.92.308-1.227.613-2.453 0-3.373 2.146-5.213 3.374v.612c2.76 0 6.133 2.148 8.281 0 1.227-.92 1.533-1.84 2.453-2.76 2.146-2.76 7.055-2.146 8.588-5.214 2.453-2.454 3.68-5.521 6.441-7.668 2.146-1.533 5.521-.92 7.975-.92.307 0 .613.307.613.307l-.613.307c3.986.307 7.975 0 11.654 0 2.148-.92 4.295-.613 6.135.307 3.986-.613 5.828 2.76 9.814 2.146 1.533-.612 1.84-1.533 3.375-1.84 0-1.227-.307-2.453-1.535-3.066.309-1.534-2.453-1.841-1.84-3.374 1.533 1.227 2.76 2.454 3.682 3.987 1.227.92 2.76 1.227 4.295 1.227 1.84-.613 2.451-2.147 3.373-3.067 1.84-3.374 5.215-4.907 9.201-5.827.307 0 .92-.308.92-.921-.307-.92-.613-2.146-1.84-2.454-1.84 0-2.762 1.228-4.295 2.147-1.533.307-3.068.92-4.6.92-3.068.921-4.295 3.067-6.135 4.908-.307-.613 0-1.228.307-1.534 1.533-2.146 3.988-4.294 7.055-4.294 1.533 0 3.066-.306 3.986-1.227.307-.613-.307-.613-.307-.613-1.227-.613-2.146.92-3.066 1.227-1.533.613-3.988-.307-5.215 1.841h-.307c-.307-.613 0-.921.307-1.228 1.84-.92 4.295-.306 5.828-1.84-.307-.308-.613-.613-.922-.613-1.531.306-2.76 1.533-4.6 1.227 1.229-.613 2.76-.613 3.682-1.533 0-.614-.613-.308-.922-.614-1.84 0-3.373 1.227-5.213 1.534-.613.307-1.227 1.534-1.84.92 0-.92.92-1.228 1.533-1.533 1.533 0 2.146-.614 3.373-1.228-.305-.919-1.533-1.533-2.453-1.84-3.68-3.067-8.281-4.907-11.961-7.974-3.375-2.761-5.828-6.748-9.51-9.202-3.066-2.76-5.826-5.214-9.508-7.361 0 0-.307.307-.613.307-.92-.613-1.533-1.227-2.453-1.534-.307 0 0 .307 0 .614-.92 0-1.535-.614-2.455-.92l-.92-.614c0 .614-.613.614-.92.307-1.227-.613-2.146-1.534-3.68-1.841-.307.614.613.921 1.227 1.229 2.76 1.533 5.828 3.373 7.668 5.827 0 .307-.307.307-.307.613-1.227-.306-1.533-.92-2.148-1.533-3.986-3.681-9.201-6.135-13.494-9.202-.613-.613-.92.307-1.84 0-.307.307-.307.614-.615.919.615 1.227 1.842 1.841 2.455 3.068 0 .613-.92 0-1.227 0h-.307c.307.92-.922 1.84.613 2.147.613.307 1.227.613 1.533.92-.613.307-1.533-.307-2.146 0-.307.92-1.227 2.147-.307 3.067.613.307 1.533.307 1.533.92-.307.307-.92.307-.92.614-.307.92.307 1.226.307 2.147.92 0 1.84.306 2.76.306-.92.307-1.227.614-.92 1.228 1.533 2.146 3.986 1.841 6.135 1.534.307 0 .613.613.92.92s.92.92.613 1.534c-1.227.92-2.455.306-3.682.92-.305-.307-.613-.307-.613-.614-1.533-.92-3.68-1.533-4.293-3.374-.92-.308-.613-1.533-.613-2.147-.92 0-1.533.307-2.146-.306 0-.921-1.227-2.454.305-3.068 0 0 .309.307.309 0 0-.306-.309-.306-.613-.306-1.535-.92-.92-2.761-.92-3.987.305-.614.613 0 1.225-.307-.305-.307-.92-.307-1.225-.614.305-.613.613-1.533 0-2.147.613-.307 1.225 0 1.84 0 .307-.307-.307-.92-.307-.92-.613-.307-.613-.613-.92-.92-1.535-.919-3.068-1.533-4.908-2.146h-.613c.307.307 1.533.613.613 1.533-1.533-.306-3.373-1.533-5.215-1.84l.92 1.227c-1.227 0-2.453-.613-3.986-.92l-1.535-.307c.002.303.924.61.924 1.223zM125.668 65.053v.308c1.535.306 2.762 1.533 4.295 1.226.922.307 1.533.614 2.146 1.229-.613-.921-1.533-1.841-2.453-3.068-.307-.613-.92-1.227-1.84-1.227-1.226-.001-1.226.918-2.148 1.532z" fill-rule="evenodd" clip-rule="evenodd" fill="#0c0e0f"/><path d="M123.521 68.427c.615.613.92 1.227 2.146 1.84 0 .614-.611.614 0 1.227 0 .307-.307.613-.307.92.307.307 1.229.307.615.92v.614c-.309.306-.615.306-.309.613.309.614 0 1.534.922 2.147-.307.307.307.307.613.614.613.306 1.533-.614 2.146.306h1.227c.309 0 0-.306.309-.613.92.307 1.531.613 2.145.613.307-.92-1.225-2.146-1.84-3.374-1.84-2.147-3.68-3.987-5.521-5.214-.611-.306-1.531-.92-2.453-1.226l.307.613zM101.131 68.734c-2.146-.614-4.292-1.227-5.826 0-1.228-.307-2.454 0-3.681.306 0 .307.307.921.92.921.614-.307 2.147.919 2.147-.307.614-.307 1.84.92 2.454-.307 1.227 0 2.76-.307 3.986.307.613.307 1.229-.614 2.148-.307.613.614 1.533.307 2.146.307 0-.307-.307-.307 0-.614 1.227.307 2.146 1.841 3.066.614.615-.614.92.307 1.535.307.92 0 1.84.306 2.76 0 .613 0 1.533.306 1.84-.307.307-.614-1.227-.614-1.84-.92-.613-.307-.92.613-1.84.306-1.227-.613-2.455-.92-3.682-1.226-.307.306-.613.92-1.227.613-.92-.307-1.84-.92-2.76-.613-.918.306-1.224 1.533-2.146.92zM87.637 70.574c-.921.613-1.841.307-2.454.613.307.307.613.614.92.614.613-.307 2.147 0 2.147-.92h1.533c.307.307.614.307.921.307.307-.613 1.533 0 1.228-.92-.92-1.227-2.761-.306-4.294 0v.306h-.001zM80.275 71.494c-.92-.307-1.533-.307-2.453-.307l-.307.307c.307 0 .614.307.92.613-.306.307-.92 0-.92.614-.92 0-1.84-.614-2.761-.307l.307.307c-.613.307-1.84.307-2.76.307l-1.228.306.307.307c1.227 0 2.76 0 3.987.307l.307-.307 5.521-.307c-.307-.306-.614-.306-.921-.306l-.613-.614h5.214c0-.613-.92-.92-1.533-1.227-1.226.001-1.84.92-3.067.307zM69.54 74.254c-.306.614-1.226.614-1.84.921h3.374c.613-.307 1.228 0 1.84-.614h1.84c-1.533-.92-3.68-.307-5.214-.307zM64.019 76.095h3.374c0-.307-.613-.307-.613-.307-.92 0-1.84-.307-2.761.307zM47.15 80.696c-.307-.614-.92 0-1.227.306-.306.614-1.533.92-1.533 2.147-.307.307-.307 1.227-.307 1.841h.307c.306-1.227 1.227-2.147 2.146-3.374.307 0 .307.306.613.306.92-.613 1.227-1.84 1.84-2.76-.919.306-1.225.92-1.839 1.534zM140.699 80.696c0 1.533.613 3.067 2.146 3.987.92.613 2.453.307 3.066 1.533.307.307.92 1.227.92 1.841 0 .306.307.306.307.613-.307.307-.613 0-1.227 0-1.227-.613.307-1.534-.92-1.84-1.227-.307-2.453-.307-3.68-.307 2.453 0 2.76 2.146 4.906 2.454.307.613 1.227-.614 1.535.306-1.535.614-3.068.307-4.602-.306v.306c1.533 1.534 4.293 0 6.441.614.611-.614 1.84-.307 2.76 0 0-.307-.613-.614-1.227-.614-1.227-.306-2.762-.306-3.066-1.533-.615-1.534-1.535-3.067-3.682-3.374-.307-.307-.613-.307-1.227-.613-.613-.92-1.84-1.534-1.533-2.761.003-.306-.612-.613-.917-.306z" fill-rule="evenodd" clip-rule="evenodd" fill="#fff"/><path d="M139.777 83.149c.307.614.615 1.227 1.227 1.227.309 0 .309-.307 0-.307 0-.613-.305-1.533-.92-1.84-.613 0-.307.614-.307.92zM138.551 83.456c.307.613 0 1.227.92 1.227 0-.614 0-.92-.613-1.534-.307 0-.307 0-.307.307zM41.016 86.523c-.613 1.534-.613 3.987.307 5.521.613-1.534-.92-3.374.306-4.601.307-.307.614 0 .92.307.614-.614 0-1.227.307-2.147 0-.613.92-1.227.614-2.147-1.227.613-1.841 2.147-2.454 3.067z" fill-rule="evenodd" clip-rule="evenodd" fill="#fff"/><path d="M26.6 88.057c-.307 1.533 1.227 2.76 1.841 3.987 1.226.613 2.453 1.227 3.987 1.534 1.533.613 3.987.92 4.6 2.76.614 1.84.921 3.987 2.454 5.521 0 3.066 2.454 5.521 5.214 7.668l-.613.307c.613.92 1.84 1.533 2.454 2.453 1.228 1.534 2.147 4.294.613 6.441-.307 1.533-.307 2.761.614 3.988 1.226.919 3.373 1.226 5.214.919 1.227-1.227 3.067-.307 4.907 0 .614 0 1.227.307 1.84 0v-.307c.307-.307.921-.307.614-.92 0 0-.307 0-.307-.307 0-.308.307-.308.307-.308 2.454-.613 4.601-1.226 6.134-2.76 1.227-.92 2.454-1.533 3.681-2.454.92-.306 1.533-1.227 2.76-1.533-.612-.307-1.227 0-1.84 0-.613.307-.92.92-1.84.92-1.227 1.534-3.374 2.147-5.215 2.761-1.226.307-2.453 1.227-3.987 1.227-.307.614-1.533 0-2.454 0h-1.84c.307 0 .307 0 .307.307h-.307v.308c.614.306 2.147.306 2.454 1.226.307.308 1.227-.306.92.614-1.534.92-3.374-.307-5.214.308-.613.306-1.227.306-1.841.306-.613-.306-.92-1.228-1.84-1.228-2.76-2.453 1.534-5.214-.613-8.281-.307-1.227-.92-2.453-1.84-3.373-1.534-1.533-3.374-2.453-4.294-4.295-.307-.612-.921-1.533-.307-2.146-.614-.613-.92-1.533-1.534-2.454-.613-.613-1.226-1.84-1.226-2.76l.306-.308c.614 0 .614.614 1.227.614h.307c-.307 0 0 0 0 0 1.227 0 1.533 1.228 2.453 1.533 0 .307.614.307.921.307-.307-.612-.307-1.227-.307-1.84l.307-.307c-.307-.613-.921-1.228-1.227-1.841h-.307c0 .307.613.613 0 .921-.92 0-1.534-.921-2.454-.921-1.533-1.227-.306-2.76-1.533-3.987-.307-1.227-.307-2.453-.307-3.68-.614.306-.307 1.227-.614 1.84-1.227.613-.613 2.146-1.84 2.761-1.227.613-1.533-.921-3.067-.307-2.147-.919-4.602-1.534-5.827-3.374-.921-1.227-.921-3.067.306-3.987.307-.307.614-.614.614-.92-1.534.306-2.148 1.84-2.761 3.067zM99.598 86.523c-.307 0-.613.613-1.227.92v-.92c-1.227.613-2.453 1.84-2.76 3.066 0 2.147.307 4.908-1.227 6.441 2.454-.92 1.534-3.067 2.454-4.601 0-.613 0-1.226.613-1.533v.307c.307 1.84-.92 3.067-.613 4.6.613-.306.306-.92.613-1.533 1.84-1.227.307-3.374 1.84-4.908.613-.613 1.229-1.533 1.533-2.147-.611-.305-.611.308-1.226.308zM63.099 86.523c.307.92.92 1.534 1.841 2.146h.306c0-.92-1.227-1.84-1.84-2.454-.307.001-.307.308-.307.308z" fill-rule="evenodd" clip-rule="evenodd" fill="#fff"/><path d="M31.814 86.216c.921.307 1.534.92 1.841 1.534.613-.307.306-.614 0-.92-.307-.307-.92-.614-1.841-.614zM66.473 87.443c.307 3.681 4.908 4.294 7.055 7.055 2.453 1.84 3.374 4.907 2.76 7.975-.613 1.533-.92 3.681-3.375 3.987-.612.307-.919.613-1.533.307 0-.613 1.533-.921.306-1.533 1.534-1.534 2.761-3.067 3.067-5.214-.306-.614-.306-1.534-.92-2.147 0 .92.614 1.84-.306 2.76 0 .921-.307 1.841-1.227 2.454-.307.613 0 .92-.614 1.533-.92.307-1.533.614-2.453.921.306.306.613.613.306.92-.919.613-1.84.613-2.76 1.228 0 .306.613.306.613.612-1.227.921-2.76 1.228-4.294 1.228-.306 0 0-.307 0-.614-.92 0-1.533.614-2.453.308 0-.308.613-.308.613-.613-1.534.306-3.067.92-4.601.306-.92-.306-1.84-.92-2.453-1.226.307.92.92 1.533 1.533 2.146.92.92 2.454 0 3.374.92.307 0 .613 0 .613.307-.306.613-1.533.92-1.84 1.227-.919.614-2.76 0-2.76.92-.92.614-1.534.92-2.147 1.534.307.307 1.227-.614 1.84 0 1.227-1.228 2.147-2.147 3.681-2.454h.92c2.147-1.533 5.214-1.533 7.668-3.066 1.227-.308 2.147-.921 3.374-1.228 3.067-.92 6.134-2.147 8.588-3.374 2.453-2.76 6.747-1.84 9.814-3.68 1.534-1.228 3.374-1.841 4.908-2.762 2.454-.306 5.213-.306 6.749 1.228 1.533.92 4.906 1.227 4.906 3.681-.307.307-.613.307-.92.307-.613 1.533 1.227 2.761 1.84 4.295.92 1.533 2.146 2.76 2.762 4.6h-.307c-1.842-2.453-3.068-5.214-4.908-7.361-.613-.613-1.227-1.227-2.148-.613-.305.921-2.453-.613-2.453 1.228-.307.306-.613-.307-1.227 0l-.92.92c-.306-.307-.919-.307-1.534 0-.613 0-.613.613-.92.92 1.227.308 1.227 1.533 1.227 2.454.307.307.613 0 .613.307 0 .613.92.92.614 1.84.307 0 .613 0 .613.307l.307 1.227c.307.308.307 0 .613 0s-.307.921.613.921c.307.307 0 .613.307.92 0 0 .307 0 .307.307 0 .92.92 1.228.92 2.147-.305.307-1.227 0-1.84 0-.613-.307-1.227-.92-1.533-1.841-.307 0 0-.307-.307-.613-1.227-1.841-2.454-3.374-3.681-5.521-.306-.921-.613-1.841.307-2.761-.307-.307 0-.92-.307-1.228-.613-.306-1.533.614-1.227-.306 0 0 .307-.307.307-.614-.92 0-.92-.613-.92-1.227l.613-.92c-.92 0 0-.613-.306-1.227.613-.308 0-.921.613-1.228.614-.613 1.84-.613 2.147-1.227-1.84.307-3.68.921-4.294 2.761.307 0 .307.307.307.613-.307.307-.614.613-.614.92.614.307 0 .613.307.92-.614.307-.614.613-.307.921 1.227.307 0 1.84 1.534 1.533.307.307.613.613.307.613 0 .308-.307.613-.614 0-1.227 0-2.147-.613-3.68-1.227l-.921-.92c.307.612 0 .92.307 1.533.614.307.92.921 1.84.921.614.612 1.841.612 2.148 1.226 1.84.614 2.453 2.147 3.067 3.374 1.228 1.84 2.453 3.988 3.987 5.828 1.84.613 3.68 1.227 5.828.613.92-.307.613-1.533.613-2.453-.613-2.148-1.533-3.988-1.227-6.135 0-.307.307-.613.613-.307.92.92 1.533 2.146 2.453 3.067.613.612 1.227 1.226 1.227 2.146h-.307c-.613-.613-1.227-1.534-1.84-2.146h-.613c-.613.612.307 1.533.307 2.453.307.307.307.613.307.921 1.227 0 2.146.613 3.066.306 1.229-.613.615-2.146.92-3.067.309-1.227.309-1.84.309-2.76-1.533-2.146-3.375-3.987-4.295-6.135-.613-.92.613-.92.92-1.227-.613-2.147-2.146-4.601-4.906-4.601 0-.614-.92-.307-1.227-.92-1.842-.921-4.602-1.228-6.749-.614-.92.92-2.147 2.147-3.681 1.841-.92.921-1.84 1.533-3.066 1.227-1.533-2.147-2.147-4.6-1.533-6.747 0-.307.307-.307 0-.614-.614 0-.92.92-1.227 1.534-.92 1.227-.307 3.374 0 4.907-.307.307-.613.307-.92 0-1.227-.613-.92-2.147-1.534-3.374-.306 0-.306.307-.306.613v2.761h-.614c-.307-.613-.92-1.533-.92-2.147l-.307-.307c0 .614-.613.921-.306 1.534l-.307.307c-.92-.92-.92-2.454-.307-3.681v-.307c-.613 0-.92.307-.92.614s-.308.92-.613 1.227h-.307c-1.228-.919-1.534-2.146-3.067-2.76-.92-2.147-4.294-2.76-5.521-4.907-.307-.617-.614-1.23-1.534-1.537z" fill-rule="evenodd" clip-rule="evenodd" fill="#fff"/><path fill-rule="evenodd" clip-rule="evenodd" fill="#0c0e0f" d="M99.291 88.057h-.307.307zM13.411 88.977l2.761.92 1.84.613c-2.147.92-3.987-.306-6.134-.306-1.227.306-2.761.306-3.374 1.226v.307c2.76 0 4.907 1.227 6.748 2.454 1.84.92 3.987.613 5.827-.307-1.227-.306-2.76 0-3.68-.306-2.147-.614-3.988-1.841-6.441-2.148 0 0-.307 0-.307-.306.307-.614 1.533-.307 2.454-.307 1.533.613 2.76 1.84 4.294 2.146 2.147 0 3.987.92 6.134.307.92 0 2.147-.307 3.067-.614-1.533-2.76-4.907-3.374-7.361-4.294-2.147-.305-4.294-.612-5.828.615z"/><path d="M142.232 90.51c.307 0 .92.307 1.227 0 0-.613-.92-.306-1.227-.613l-2.148-.92c0 .92 1.535 1.227 2.148 1.533zM139.471 89.59c-.307.614.307.92.613 1.228-.307.307-1.533-.613-1.227.613 0 0 0 .307.307.307.307-.307 1.535 0 1.535-.613h.92c.307-.92-1.227-.92-1.842-1.534h-.306v-.001zM153.887 94.191c-.92 3.066-3.682 5.521-3.986 8.895-.307-.92.305-.307.613-.613.613-.92.92-1.533 1.84-2.453.613.612 0 1.533-.307 2.146.613 1.227-.613 1.533-1.227 1.84 0 .307-.615 0-.92.307 0-.307-.307-.613-.307-1.227-.309.613-.309 1.227-.309 1.84.309.308.615.614 1.535.614 2.76-.307 3.066-3.067 4.602-4.908.611 0 .918.308 1.531.613h.615c.305-1.226-1.535-1.226-1.535-2.453.615.307 1.229.92 1.535 1.228 0 0 .305.612.613.306.307-1.227-.92-2.453-1.842-3.067.309-2.146-.307-3.987-1.533-5.521l-.307-.613c-.611.919-.611 2.146-.611 3.066zM17.706 91.737l-.307.307c1.533.308 3.987.613 5.827 0 0-.307-.306-.307-.613-.307-1.534.307-3.374 0-4.907 0zM160.941 92.964l1.227.614c0-.921-1.227-.614-1.84-.921 0 0 .613 0 .613.307z" fill-rule="evenodd" clip-rule="evenodd" fill="#fff"/><path d="M159.715 92.964s.307 0 .613.307c0 1.533 2.146.92 2.762 1.84.611.307.918.92 1.531 1.227.309-.613-1.227-1.227-1.227-1.534h.613c-.307-.613-1.227-.92-1.533-1.226l-.307.306c-.919-.306-1.532-.613-2.452-.92zM167.996 95.111c-.307-.92-1.533-1.533-2.76-1.84.92.307 1.534 1.533 2.76 1.84zM87.33 95.111c-.307.92-.307 2.146.307 2.761h.613c0-1.534.307-2.761.613-4.294-.92 0-1.226.92-1.533 1.533zM164.621 93.884c.309.614.92.92 1.535 1.227 0 .307.307.307.613.307v-.307c-.613-.307-1.228-1.227-2.148-1.227z" fill-rule="evenodd" clip-rule="evenodd" fill="#fff"/><path d="M153.887 95.725c0 1.533-1.227 2.76-.92 3.987.613.308.307-.613.613-.92.307-1.534.92-3.067.92-3.988-.307.307-.307.614-.613.921z" fill-rule="evenodd" clip-rule="evenodd" fill="#0c0e0f"/><path d="M151.127 96.031v.307c.307 0 .92.307 1.227-.307h-1.227zM140.084 99.099c0 .613-.92 1.533-.307 2.454 1.535 1.84 4.908.613 6.748 2.146.307.92 1.229 2.146 2.76 2.761 1.229.307 2.148.307 3.682 0 .92.613 1.533 1.84 2.762 1.84 1.533.308 3.066-.92 3.68.308 1.533-.614 2.146 2.453 3.066.306-.92-.306-.613-1.533-2.146-.92-.613-.306 0-1.227-.92-1.227-1.227.307-2.76 1.841-4.602.921-.92-.308-.613-1.228-1.533-1.534-1.84.307-3.68.613-5.213-.92-1.229-.614-.307-2.454-2.148-3.067-1.533-.613-3.373 0-4.908-.613-.305-.308 0-.921 0-1.533 2.148-2.147 6.441-2.454 9.201-1.534h.309c.307-.308-.309-.613-.613-.92-2.762-.614-6.135-.308-8.588.92l-1.23.612z" fill-rule="evenodd" clip-rule="evenodd" fill="#fff"/><path d="M142.232 100.939c0 .613 1.227.306 1.84.306.307 0 .307-.613 0-.92-.306-.613-1.226 0-1.84.614zM144.992 100.939l-.307.306c.307.614.92 0 1.533.308v-1.228c-.613-.305-.919.307-1.226.614zM158.795 100.632c-1.227 2.147-2.455 3.681-3.988 5.521-.307.307.307.613.307.613.615.613 1.227.307 1.535 0 1.533-1.841 2.76-3.681 2.453-6.135h-.307v.001zM146.832 101.553c.307.613.922.307 1.229.92.611-.307.305-1.228.305-1.533-.305 0-.92 0-1.227.306l-.307.307zM170.449 105.233c-.307.307-.92.92-.307 1.533.307.307.615.307.92 0 0-.613.615-.613.92-.921.615-.612 1.842-1.227 1.535-2.146 0-.307.613-.92 1.531-1.227 1.229-.613 3.068.307 4.602-.307-3.066-.921-6.133.307-8.281 1.84l-.92 1.228zM159.408 102.473c-.307 1.227 1.227 1.227 1.84 1.533 1.533.613 3.682 2.147 5.215.92v-.307c-2.762.614-5.215-.92-6.748-2.453-.307 0 0 .307-.307.307zM159.102 104.926c.307.614.92.92 1.533.92.307-.306.613-.92 0-1.227-.307 0-.613-.307-1.227-.613 0 .306-.306.613-.306.92zM136.404 106.767c.307.613 1.533.613 2.146.921h.613c-.919-.308-1.839-.921-2.759-.921zM147.139 108.3c-.92.308-1.84.613-2.76.308 0 .613-.613.306-1.227.306-.613-.306-1.533-.613-2.148-.92-.305.92.922.92 1.229 1.228 2.453 1.533 4.906-.613 7.668.307.92 0 2.453.613 3.68.92.92-.307 2.148-.307 2.76.307 1.842.613 3.988 2.147 6.135 1.227-1.84.307-2.76-.613-4.293-.92-1.533-.613-2.453-1.533-4.295-1.533-1.227-.307-1.84-1.228-3.066-.92-.615-.614-1.227 0-1.84-.308-.617-.002-1.537-.922-1.843-.002zM167.076 107.993c.307.614.92.92 1.533.92 0 0 .307 0 .307-.306-.613 0-1.227-.614-1.84-.614zM81.502 109.221v.307c.307 0 .614-.307.92-.307 1.227-.308 2.454.307 3.681.613.307-.613-.307-.921-.92-1.227-1.227-.614-3.067-.307-3.681.614zM83.036 110.447c.307.307.92 0 1.533.307l.921.92c-1.227.307-2.147.92-3.374 1.228 2.147.612 3.374 2.453 5.214 3.374h.92c-.307-.308-.613-.921-.92-1.534-.614-1.228-1.227-2.454-.92-3.681.307-.307-.307-.613-.92-.92-.614 0-2.147-.307-2.454.306zM78.129 111.674c.92.307 1.84 0 2.453-.613l-2.453.613z" fill-rule="evenodd" clip-rule="evenodd" fill="#fff"/><path d="M81.809 112.287s-.307 0 0 0 .92-.613 1.84-.92h.307c-.92-.306-1.84.307-2.147.92zM74.754 112.594c-.306.308-.306.613-.613.613-1.228-.306-.92.92-1.84 1.228.612.307 1.533 0 1.84-.308.613-.92 2.147-.613 2.454-1.84.307.307.307 0 .612 0-.612 0-1.839 0-2.453.307z" fill-rule="evenodd" clip-rule="evenodd" fill="#fff"/><path d="M91.011 114.435c-.307 0-.307 0-.307.307.613.307 0 1.534 1.228 1.227v.308c-.614.306-.92 1.227-.614 1.84 1.227 0 2.147-.92 2.761-1.534-.307-1.533-1.227-2.454-1.841-3.68-1.227.304-.001 1.224-1.227 1.532zM84.263 112.901c.306.92.613 1.226 1.227 1.84.306.307.92.613 1.227.613-.92-.613-1.533-1.228-1.84-2.147-.308 0-.308-.306-.614-.306zM75.675 116.889c.306.613 1.533.613 1.84 1.533-.92 0-2.147-1.227-3.067-.92.306.613 1.227.613 1.533.92.921.613 1.534.613 2.454.92l.307-.307-2.761-2.146h-.306zM73.834 117.809v.306-.306zM81.196 119.955c.613 0 1.226-.307 1.226-.613-.306 0-.92.306-1.226.613z" fill-rule="evenodd" clip-rule="evenodd" fill="#0c0e0f"/></svg>