<svg xmlns="http://www.w3.org/2000/svg" width="2500" height="2500" viewBox="0 0 192.756 192.756"><path fill="#fff" d="M0 192.756h192.756V0H0v192.756z"/><path d="M127.798 98.469l-3.533-.799a17.08 17.08 0 0 0-.42-.094c-1.423-.311-2.1-.578-2.1-1.245 0-.329.101-.584.317-.8.511-.51 1.534-.691 2.256-.691 2.763 0 5.501.989 8.621 3.113l.825.561.357-.932 4.219-11.003.236-.615-.563-.343c-4.291-2.609-8.883-3.877-14.038-3.877-9.42 0-19.433 5.852-19.433 16.696 0 6.307 4.441 10.859 11.884 12.18l3.132.57.427.082c1.694.311 2.403.594 2.403 1.537 0 1.449-2.371 1.775-3.202 1.775-2.924 0-6.041-1.27-9.265-3.77l-.795-.623-.833-.656-.39.986-4.442 11.268-.082-38.61-.001-.788H84.904l-.236.337-30.08 42.989-.869 1.242h18.503l.229-.391 2.913-4.969h13.033v5.359h15.076l-.002-.791-.005-2.521.027.014c4.975 2.518 11.289 4.021 16.892 4.021 6.089 0 11.624-2.043 15.185-5.605 2.78-2.779 4.248-6.418 4.248-10.523-.001-6.895-4.045-11.297-12.02-13.084zm-39.246 1l.009 10.346h-5.902l5.893-10.346z" fill-rule="evenodd" clip-rule="evenodd" fill="#6cb35e"/><path d="M34.3 91.322c5.417.094 5.315-6.274 9.31-5.646-1.304-.974-2.284-1.438-3.953-1.832-1.925.069-4.07 3.009-5.357 7.478zM33.105 91.217c1.086-3.973 2.605-7.044 4.567-7.737-2.724-.229-4.705.212-6.876 1.412-.546 1.846-.738 5.616 2.309 6.325z" fill-rule="evenodd" clip-rule="evenodd" fill="#aa0064"/><path d="M24.556 93.501c.574-3.416 2.295-5.934 4.944-7.75-.357 1.716-.212 3.395.619 4.688a4.14 4.14 0 0 0 2.69 1.845c-.214.879-.593 2.769-.593 2.769-6.773-.93-7.66-1.552-7.66-1.552zM27.228 103.439c-2.102-2.443-3.142-5.367-2.846-8.759 0 0 .44.419 7.695 1.443 0 0-.091 1.533-.129 2.443-1.141-.066-2.339.266-3.209 1.121-.976.959-1.377 2.2-1.511 3.752z" fill-rule="evenodd" clip-rule="evenodd" fill="#aa0064"/><path d="M34.042 107.695c-2.309-.494-4.187-1.547-5.783-3.092.037-2.041.612-5.057 3.648-4.938-.044 3.527.507 6.023 1.989 7.814.059.074.089.148.146.216zM41.001 107.102c-1.588.631-2.691.889-4.479.801-.529-.082-1.235-.428-1.668-1.018-1.087-1.48-1.734-3.766-1.709-7.055 5.542 1.037 3.91 6.988 7.856 7.272z" fill-rule="evenodd" clip-rule="evenodd" fill="#aa0064"/><path d="M48.663 97.867c-.678 3.896-2.873 6.797-6.124 8.51-2.101.012-2.734-.615-3.585-2.678-.976-2.367-2.112-4.275-5.832-5.006l.089-2.439c8.877 1.553 15.452 1.613 15.452 1.613zM48.81 96.83s-6.589 0-15.459-1.595c0 0 .414-1.928.644-2.821 3.868.161 5.589-2.098 7.031-3.914 1.389-1.747 2.223-2.153 4.074-1.626 2.82 2.58 4.006 5.929 3.71 9.956z" fill-rule="evenodd" clip-rule="evenodd" fill="#aa0064"/><path d="M13.839 119.17c-6.64-7.439-12.853-22.359-2.637-34.674 6.135-7.395 14.873-9.384 21.691-7.724 8.591 2.092 11.384 6.873 11.384 6.873-9.659-5.449-17.913-.058-20.796 5.988-3.387 7.097-.83 15.125 5.259 19.349 10.513 7.295 21.384 1.381 25.283-4.303 9.303-13.565 2.906-27.488-6.028-34.021-4.169-3.048-9.313-4.609-13.203-4.828-6.943-.168-13.684 2.021-19.27 6.31C9.056 77.107 4.909 84.294 3.848 92.378c-1.062 8.085 1.088 16.099 6.054 22.565a30.819 30.819 0 0 0 3.937 4.227zm16.063 8.307c-8.283-1.086-15.506-5.451-20.594-12.078-5.088-6.625-7.291-14.836-6.203-23.118C4.958 78.17 15.999 67.475 29.412 65.43c2.403-.539 6.569-.386 8.756-.099 21.568 2.832 28.422 23.335 26.895 34.962-2.514 19.145-21.225 29.014-35.161 27.184z" fill-rule="evenodd" clip-rule="evenodd" fill="#6cb35e"/><path d="M74.23 120.41l-2.914 4.971H56.752L85.726 83.97h16.076l.088 41.411H89.976v-5.361H74.458l-.228.39zm15.122-9.015h.79v-.791L90.13 97.49l-.001-.787c0-.002-.789-.002-.789-.002h-1.03l-.227.399-8.142 14.295h9.411zM120.385 126.1c-5.051 0-10.92-1.355-15.527-3.545l4.128-10.469c3.5 2.707 6.93 4.078 10.201 4.078 1.253 0 2.948-.357 3.948-1.357a2.774 2.774 0 0 0 .834-1.998c0-2.41-2.314-2.836-3.696-3.092l-.418-.078-3.148-.572c-3.185-.566-10.584-2.73-10.584-10.627 0-3.81 1.395-7.219 4.033-9.858 3.293-3.292 8.459-5.258 13.82-5.258 4.631 0 8.772 1.098 12.646 3.326l-3.628 9.462c-3.031-1.908-5.88-2.851-8.676-2.851-2.067 0-4.153.95-4.153 3.071 0 2.058 2.093 2.515 3.343 2.788l.399.088c.01.004 3.545.803 3.545.803 7.259 1.627 10.787 5.402 10.787 11.543 0 9.995-9.256 14.546-17.854 14.546z" fill-rule="evenodd" clip-rule="evenodd" fill="#aa0064"/><path fill-rule="evenodd" clip-rule="evenodd" fill="#6cb35e" d="M189.051 125.682l-18.425-26.215 11.681-17.053h-16.861l-.233.352-8.255 12.408.016-11.97.001-.79h-16.804v44.568h16.804l-.001-.791-.01-7.117 4.542-6.142 9.185 13.701.237.351.423-.002 18.57-.06-.87-1.24z"/><path fill-rule="evenodd" clip-rule="evenodd" fill="#aa0064" d="M162.193 111.121l-.624-.932-.666.903-5.365 7.254-.155.209v.261l.01 6.586h-13.642V83.993h13.642l-.018 13.798-.003 2.619 10.921-16.417h13.017l-10.296 15.032-.31.452 18.183 25.875-15.118.048-9.576-14.279z"/></svg>