<svg xmlns="http://www.w3.org/2000/svg" width="2500" height="2500" viewBox="0 0 192.756 192.756"><path fill="#fff" d="M0 192.756h192.756V0H0v192.756z"/><path fill-rule="evenodd" clip-rule="evenodd" d="M8.504 92.071h89.088l-.058 27.404H8.504V92.071zM29.201 82.474c2.023 0 2.428-.925 2.37-2.89-1.099-.058-2.544-.347-2.717-1.619 0-.231 0-.462.115-.636l4.336-5.203c.289-.347.463-.81.463-1.272 0-.983-.752-1.908-1.735-1.908-.636 0-1.04.463-1.387.925.52.116 1.619.347 1.619 1.099 0 1.271-1.446 2.37-2.371 3.006-.058-.752-.173-1.503-.173-2.197 0-1.33.404-3.353 2.081-3.353 1.041 0 1.966.867 2.659 1.619l.347-.405h.405l-1.214-2.312.751-.232c-.173-.578-.346-1.156-.346-1.734 0-1.041.578-2.139 1.04-3.064.52-.058 1.041-.173 1.561-.173 1.156 0 2.255.52 3.295.925l-.404 1.502c-.347-.288-.81-.521-1.272-.521-.347 0-.751.232-.751.636 0 .521 1.041.81 1.444.983l.29.289v.463l-.579.404v.289l2.718 1.272.462 1.561.463.578c1.387-1.156 3.179-2.312 5.029-2.312.636 0 1.214.636 1.156 1.272 0 .404-.231.867-.462 1.271l9.02-.057c-.347-.347-.637-.81-.694-1.33 0-.636.867-1.156 1.387-1.156 1.85 0 3.643 1.156 5.03 2.254l.694-.578-.405-.347c.694-1.561 1.792-2.139 3.469-2.601-.752-.116-.867-.521-.867-1.214.925 0 1.445-.116 1.907-.925l-.115-.52c-.405.173-.81.288-1.272.288-.578 0-1.156-.404-1.156-.982 0-1.156 1.561-1.388 2.37-1.388.867 0 1.792.116 2.659.174.405 1.098.925 2.254.925 3.411 0 .462-.115.925-.173 1.387h.347l-.463 2.602.521.058c.693-.636 1.503-1.33 2.485-1.33 2.313 0 2.024 4.047 1.908 5.492h-.289c-.925-.636-2.139-1.734-2.139-2.948 0-.752.925-.925 1.503-.925v-.521c-.521-.231-1.041-.462-1.619-.462-.867 0-1.387.983-1.387 1.734 0 .636.29 1.272.694 1.734l3.469 3.7c.346.405.52.983.52 1.446 0 1.33-.867 1.676-2.081 1.734-.405.405-.694.809-.694 1.388 0 1.503 1.676 1.734 2.833 1.849 0 .925.057 1.851.115 2.776.116 1.329-.578 3.411-2.197 3.411-.52 0-1.502-.405-1.502-1.041 0-.578.866-1.041 1.329-1.272l-.578-2.544c-2.66-.636-3.18-2.022-3.122-4.683l-3.7 1.561.289 3.7c.116 1.503-2.601 4.163-4.104 4.163-.694 0-1.677-.405-1.677-1.214s1.098-1.099 1.734-1.214l1.214-.983-1.04-3.18a1.68 1.68 0 0 1-.116-.578c0-2.601 3.295-3.7 5.319-4.22l-2.428-1.503c-1.388 1.33-3.064 3.989-5.203 3.989h-.81l-.751 4.625H46.197l-.925-4.394.463-.462c-.231.057-.578.173-.81.173-2.254-.116-4.162-2.37-5.376-3.989l-2.313 1.33c.694.231 5.492 2.601 5.145 3.815l-1.04 3.238c-.058.289.578 1.676.809 1.792l1.735.867a.527.527 0 0 1 .231.463c-.058.809-.925 1.445-1.677 1.445-1.792 0-4.104-2.544-4.104-4.278 0-.752.578-1.503.578-2.313 0-1.676-2.428-2.543-3.7-3.006l.058-1.272-.289.231c0 .579.057 1.157.057 1.735 0 2.428-.924 3.469-3.179 4.047l-.463 2.428c.405.289 1.272.751 1.272 1.329 0 .636-1.04.983-1.561.983-1.619 0-2.312-1.561-2.312-3.006 0-.23.058-.405.058-.636l.347-2.543z"/><path d="M59.436 85.076c-.231 1.098-.636 1.965-1.387 2.833l-.752.809h-9.019l-.925-.521-.693-1.387c-.289-.578-.463-1.098-.521-1.734h13.297zM46.833 63.628v-.521l.116-.115h.173l.289-.174.52-.115h.116l.347-.174h.347l.347-.115h.808v.115l.059.174.058.115v.463l-.289.289h-.116l-.289.116h-.116l-.347.115h-.346l-.347.116h-.232l-.346.115h-.347l-.405-.404zM48.104 65.015v-.636l.117-.115h.115l.116-.058.173-.058h.116l.347-.116h.347l.115.058.174.058h.115l.057.116v.635l-.288.29h-.058l-.347.115h-.751l-.231-.173-.117-.116zM48.51 66.345c.578-.983 1.445-1.272 2.601-1.272 2.024 0 4.047.578 6.013.983l-.232.694-1.503-.405-6.128.52c-.231 0-.578-.405-.751-.52zM51.054 62.934v-.636l.114-.116h.174l.346-.057h2.14l.347.057h.173l.116.116v.116l.057.115v.347l-.057.116-.116.173-.173.174h-2.717l-.404-.405zM51.631 68.542v-.405c.278.03.142-.159.694-.116l.174-.404.173-.116h.289l.116.116v.115l.289.289h.115l.347.116h.174l.058.173-.058.116v.058l-.116.173-.116.116v.983h-.404l-.347-.116h-.463l-.347.116h-.173v-.694l-.116-.231-.289-.289zM51.805 64.495l-.058-.174v-.231l.404-.404h1.33l.173.173.116.173v.694h-.116l-.346.173-.173.058h-.694l-.29-.115h-.231l-.057-.116v-.116l-.058-.115zM55.562 63.339v-.81l.116-.115h.174l.347-.116.347.116h.23l.348.115h.115l.289.174h.231l.52.115.348.174h.115l.115.115v.289l-.057.174-.058.116-.115.173-.174.173h-.347l-.347-.115h-.346l-.289-.116h-.232l-.346-.115h-.116l-.52-.174-.116-.058h-.116l-.116-.115zM55.678 64.899v-.462l.289-.289h.116l.174-.058.056-.058h.117l.058.058.173.058h.578l.174.231h.231v.81h-.116l-.115.057-.174.058-.115.058h-.116l-.116.058h-.116l-.057-.058-.173-.058h-.116l-.347-.115h-.116l-.289-.29zM110.368 92.88l-.983 1.793v14.163c0 2.602.578 6.303 3.874 6.303 3.063 0 3.584-3.182 3.584-5.666V94.21l-.751-1.33h8.324l-.867 1.561v15.032c0 6.244-3.354 11.041-9.943 11.041-7.573 0-10.811-4.684-10.811-11.908V94.441l-.636-1.561h8.209zM130.023 102.535l.926 1.271c.982-.752 2.139-1.676 3.469-1.676.347 0 .636.057.925.289l-.116 5.088c-.578-.176-1.214-.289-1.792-.232-1.387.057-2.544 2.139-2.544 3.41v7.459l.81 1.85h-6.764l.578-1.85V105.08c0-.406-.752-1.678-.694-1.795l5.202-.75zM136.325 106.641l6.129-9.193.692-.057v5.086h3.527v4.105h-3.295v6.186c0 1.387.115 2.832 1.792 2.949.578.057 1.214.057 1.85 0v2.832c0 1.504-1.966 1.85-3.122 1.85-3.469 0-6.243-1.734-6.243-5.434v-7.227l-1.33-1.097zM147.31 103.113l.059-.289 7.283-.059-.115.984.463 1.098 2.312 5.607 1.852-5.607c.114-.289.173-.637.114-.984a4.071 4.071 0 0 0-.347-1.098h6.995l-.867 1.098-.116.695-6.821 17.285c-1.271 3.236-3.642 5.955-6.302 8.094l-1.503-5.896c1.272-.115 2.197-.578 2.833-1.734l.751-1.445.694-2.082-3.931-9.422-1.215-2.545-2.139-3.7zM172.285 102.246l.577.867.867-.867a10.483 10.483 0 0 1 1.851-.348c5.203-.404 8.672 4.914 8.672 9.598 0 4.451-3.411 9.135-8.21 9.076l-3.295-.059v10.117h-6.59.925v-25.09c0-.926-.175-1.791-.464-2.658l5.667-.636z" fill-rule="evenodd" clip-rule="evenodd"/><path fill-rule="evenodd" clip-rule="evenodd" fill="#fff" d="M9.833 118.201h86.371V93.863l-.347-.405H9.833v24.743zM36.947 72.184c-1.214-.463-1.908-.983-2.428-2.139l-.694 2.37-3.758 3.989c-.288.347-.635.81-.635 1.272 0 .578.521 1.041 1.098 1.041.925 0 5.203-5.377 6.417-6.533zM42.208 73.687l1.735 2.775 2.196 2.602.694 4.393h11.563c.75 0 .809-2.37.75-2.891l-.405-4.74-5.954-.116-3.643-.173c-2.14-.058-2.949.867-2.891 2.948-.347-.462-.752-.982-.752-1.56 0-3.471 3.296-3.238 5.955-2.66l-5.261.058.694-3.122.752-.405-.579-.173c-1.503 1.272-3.006 2.255-4.855 2.832v.232h.001zM57.644 86.059h-9.828v.635c.058.463.52 1.041 1.04 1.041h7.343c.693 0 1.676-.347 1.618-1.214-.001-.115-.115-.289-.173-.462z"/><path fill-rule="evenodd" clip-rule="evenodd" fill="#fff" d="M47.643 73.109h10.173l-.288-1.446h-9.192l-.693 1.446z"/><path d="M51.054 74.554l3.873.173 3.064-.115c1.965-.058 2.197 1.562 2.081 3.237 1.734-.693 2.255-2.775 3.411-4.162l-.578-.578c-1.735-.174-3.295-1.272-4.625-2.313.462.405 1.387 1.099 1.387 1.735 0 1.271-1.503 1.792-2.543 1.85-.752 0-1.561-.058-2.313-.116-1.272-.116-2.544.116-3.757.289zM68.975 72.415h.463c.404.521 4.856 6.533 5.839 6.533.578 0 1.098-.578 1.098-1.099 0-.636-4.278-5.435-5.088-7.168h-.289l-2.023 1.734zM172.747 108.605v4.914c0 1.271 1.156 2.254 2.369 2.197 2.197-.117 3.123-2.545 3.123-4.451 0-2.314-.983-4.742-3.643-4.742-1.213 0-1.849.926-1.849 2.082z" fill-rule="evenodd" clip-rule="evenodd" fill="#fff"/><path fill-rule="evenodd" clip-rule="evenodd" d="M94.644 95.019v21.68l-83.309-.058V94.904l83.309.115zM49.319 81.607v-4.162h1.156v1.329h1.619V77.56h1.214v1.272H55.1v-1.387h1.157v4.162H55.1v-1.619h-1.85v1.561l-1.156.058.057-1.561h-1.676v1.561h-1.156z"/><path fill-rule="evenodd" clip-rule="evenodd" fill="#fff" d="M14.574 111.67h2.717l.982-1.734h5.551l.809 1.734h6.186L25.79 99.529h-6.186l-5.03 12.141zM31.396 108.779v2.658c2.197.232 4.452.752 6.706.867 2.776.174 5.955-1.445 5.955-4.566 0-2.717-2.254-4.914-4.972-4.914-.693 0-1.445.115-2.139.115-.578 0-1.734-.289-1.561-1.041.29-.924 2.775-.982 3.469-.867 1.214.115 2.37.463 3.526.811v-2.197c-3.295-1.85-11.157-1.156-11.157 3.641 0 6.939 7.747 3.064 8.556 5.32.405 1.156-1.387 1.387-2.081 1.33-2.196-.118-4.22-.407-6.302-1.157zM43.827 100.512v1.215h3.931v10.117h6.012v-10.117h3.701v-2.082H43.827v.867zM58.511 111.844h5.955v-4.453h1.04l2.717 4.453h5.781l-3.121-5.494c1.329-.809 2.775-1.906 2.775-3.643 0-2.658-3.238-3.062-5.203-3.062h-9.944v12.199zM74.988 111.844h2.601l.752-1.563h5.318l.867 1.563 6.186.056-4.857-12.255h-6.127l-4.74 12.199z"/><path fill-rule="evenodd" clip-rule="evenodd" d="M19.026 107.738l2.196-4.799 2.024 4.799h-4.22zM64.466 104.096v-2.08h1.85c.809 0 1.618.52 1.618 1.387s-.809 1.678-1.676 1.678h-1.792v-.985zM79.208 108.143l1.965-4.684 1.908 4.684h-3.873z"/></svg>