<svg xmlns="http://www.w3.org/2000/svg" width="2500" height="2500" viewBox="0 0 192.756 192.756"><g fill-rule="evenodd" clip-rule="evenodd"><path fill="#fff" d="M0 0h192.756v192.756H0V0z"/><path d="M8.504 100.055l7.151-13.142h3.892l1.219 13.142h-3.811l-.063-1.733H13.08l-.829 1.733H8.504z"/><path fill="#fff" d="M16.674 90.874l-2.246 4.709h2.417l-.171-4.709z"/><path d="M21.868 86.913h10.705l-.779 3.449h-3.439l-2.187 9.693H22.34l2.188-9.693h-3.439l.779-3.449zM30.189 100.055l2.966-13.142h3.827l-1 4.435h3.617l1.001-4.435h3.827l-2.966 13.142h-3.828l1.15-5.093h-3.617l-1.149 5.093h-3.828zM42.564 100.055l2.966-13.142h3.828l-2.274 10.075h5.255l-.692 3.067h-9.083zM52.395 100.055l2.966-13.142h11.252l-.693 3.066h-7.423l-.424 1.88h6.548l-.693 3.067H57.38l-.465 2.062h7.651l-.692 3.067H52.395zM67.09 86.913h10.704l-.778 3.449h-3.438l-2.188 9.693h-3.828l2.188-9.693h-3.439l.779-3.449zM75.308 100.055l2.966-13.142h3.829l-2.967 13.142h-3.828zM90.245 91.933c.195-1.369-.39-2.154-1.59-2.154-1.346 0-2.449 1.296-3.022 3.833-.417 1.844-.451 3.578 1.496 3.578 1.232 0 2.035-.967 2.465-2.227h3.682c-1.107 3.395-3.726 5.44-6.807 5.44-3.86 0-5.594-2.666-4.63-6.937.959-4.253 4.12-6.9 7.38-6.9 3.568 0 5.114 1.989 4.661 5.367h-3.635zM115.744 97.82l.75-3.322h5.289l-.75 3.322h-5.289zM122.805 100.055l2.965-13.142h6.227c3.357 0 4.588 1.734 3.979 4.436-.639 2.829-2.533 4.618-5.891 4.618h-2.529l-.924 4.088h-3.827z"/><path d="M130.436 92.9c.891 0 1.631-.401 1.887-1.533.275-1.223-.92-1.388-1.73-1.388h-1.088l-1.258 2.921h2.189z" fill="#fff"/><path d="M139.734 95.474l-1.033 4.581h-3.828l2.965-13.142h6.264c3.893 0 4.906 1.187 4.33 3.742-.344 1.515-1.23 2.792-2.688 3.212 1.117.511 1.789.84 1.191 3.486-.387 1.717-.568 2.301-.113 2.301l-.092.4h-3.877c-.031-.291.062-1.131.326-2.299.387-1.717.254-2.282-1.529-2.282h-1.916v.001z"/><path d="M140.385 92.589h2.258c1.184 0 1.891-.329 2.096-1.241.211-.931-.34-1.369-1.232-1.369h-2.531l-.591 2.61z" fill="#fff"/><path d="M147.568 100.055l2.967-13.142h10.877l-.691 3.066h-7.051l-.424 1.88h6.174l-.691 3.067h-6.174l-.467 2.062h7.277l-.691 3.067h-11.106zM168.369 90.728c.041-.457-.117-.73-.367-.895-.252-.165-.592-.237-.984-.237-.887 0-1.344.274-1.457.749-.469 1.972 6.885.749 5.75 5.531-.725 3.048-3.447 4.527-6.824 4.527-3.24 0-4.875-2.025-4.396-4.399h3.855c-.027.475.129.821.418 1.04.271.219.672.328 1.064.328 1.006 0 1.754-.346 1.9-.967.473-1.99-6.914-.621-5.723-5.64.664-2.793 3.248-4.198 6.318-4.198 3.412 0 4.521 1.861 4.266 4.162h-3.82v-.001zM180.396 90.728c.039-.457-.117-.73-.369-.895-.25-.165-.592-.237-.982-.237-.889 0-1.346.274-1.457.749-.469 1.972 6.883.749 5.748 5.531-.723 3.048-3.445 4.527-6.822 4.527-3.242 0-4.875-2.025-4.398-4.399h3.855c-.027.475.129.821.418 1.04.273.219.674.328 1.066.328 1.006 0 1.754-.346 1.9-.967.473-1.99-6.914-.621-5.723-5.64.662-2.793 3.248-4.198 6.318-4.198 3.412 0 4.521 1.861 4.266 4.162h-3.82v-.001zM102.652 94.419h9.938l2.842-2.893h-14.684l1.904 2.893zM107.518 101.801l.394.599h8.557l-.395-.599h-8.556zM111.764 95.26l.336-.342h-9.147l-1.566 1.596h11.205l-.828-1.254zM106.662 100.504l.461.699h8.557l-.459-.699h-8.559zM116.797 102.898h-8.557l.362.549h8.556l-.361-.549zM95.118 102.898l-.539.549h9.146l.539-.549h-9.146zM115.822 91.127l4.164-4.239h-9.146l-2.748 2.798-1.844-2.798h-8.557l2.793 4.239h15.338zM117.85 104.494h-8.559l.264.399h8.556l-.261-.399zM110.146 105.791l.264.398h8.557l-.264-.398h-8.557zM104.754 102.4l.588-.599h-9.147l-.588.599h9.147zM114.365 99.207H98.742l-.783.799h16.932l-.526-.799zM105.93 101.203l.685-.699h-9.146l-.686.699h9.147zM112.984 97.113h-12.185l-1.469 1.496h14.641l-.987-1.496z"/></g></svg>