<svg xmlns="http://www.w3.org/2000/svg" width="2500" height="2500" viewBox="0 0 192.756 192.756"><g fill-rule="evenodd" clip-rule="evenodd"><path fill="#fff" d="M0 0h192.756v192.756H0V0z"/><path d="M8.73 95.698H2.834l5.321-15.099h6.04l5.465 15.099h-5.896l-.431-1.869H9.162l-.432 1.869zm3.596-5.465l-.575-2.732c-.288-.575-.288-1.294-.432-1.87h-.144l-1.007 4.602h2.158zM44.25 80.599v8.916c0 4.458-2.732 6.471-7.046 6.471-4.17 0-7.047-2.013-7.047-6.471v-8.916h5.608v8.484c0 1.15 0 2.157 1.438 2.157 1.582 0 1.582-1.007 1.582-2.157v-8.484h5.465zM57.048 90.233l.287.288c1.007.719 2.301 1.438 3.452 1.438.575 0 1.438-.288 1.438-1.007 0-.575-.719-.719-1.15-.863l-1.15-.144c-2.157-.431-4.027-1.582-4.027-4.026 0-3.595 3.308-5.608 6.615-5.608 1.726 0 3.308.431 4.89 1.294l-1.582 3.883c-.863-.575-2.013-1.15-3.163-1.15-.432 0-1.151.287-1.151.862 0 .576.719.576 1.006.719l1.295.288c2.301.575 4.026 1.726 4.026 4.314 0 3.739-3.308 5.464-6.615 5.464-1.869 0-4.026-.575-5.752-1.438l1.581-4.314zM130.1 80.599h5.32l4.891 8.34h.143c-.143-1.294-.432-2.588-.432-3.883v-4.458h5.32v15.099h-5.32l-4.889-7.909h-.145c.145 1.007.432 2.013.432 3.02v4.89h-5.32V80.599zM157.135 80.599h10.209v4.026h-4.602v1.582h4.172v3.882h-4.172v1.438h4.746v4.171h-10.353V80.599zM178.273 80.599h11.649v4.889l-3.164-.144v10.354h-5.465V85.344l-3.02.144v-4.889z" fill="#345aa2"/><path d="M86.096 68.375c4.746-1.007 13.804-.575 18.408 0 6.471.575 13.229.287 14.379 4.313 1.15 3.596 2.877 19.845 1.869 23.44-.861 3.02.576 10.354-11.359 11.072-13.374.863-15.531 3.021-23.44 2.014-7.909-.863-9.779-4.457-9.348-13.374.288-7.046.863-10.21.144-15.962-.288-2.587-.144-9.921 9.347-11.503zm-1.725 27.466c.431 4.747.863 7.334 6.184 7.766 5.177.432 9.346-.719 15.243-.719s6.902-2.301 7.91-4.891c1.006-2.732.861-12.798.861-17.112 0-4.17-1.725-5.033-5.752-5.752-8.195-1.582-18.981.863-21.713 2.157-4.459 1.871-3.165 13.95-2.733 18.551zM83.652 112.379c3.595-.719 26.747-.863 29.624-.576 5.033.721 6.184-.143 8.34 2.877s5.32 6.615 5.896 7.766c.719 1.438 3.594 6.902-4.602 7.189-8.197.145-31.637 0-38.827.863s-16.25-1.869-12.655-7.479c3.739-5.607 9.491-10.066 12.224-10.64zm-.288 3.738c-1.438 1.295-3.163 3.164-4.602 4.746-2.732 2.877-1.726 4.457 1.582 5.176 3.308.721 11.073 0 18.837.289 7.766.287 22.865.287 23.584-2.014 1.006-2.877-2.445-8.197-7.189-9.635-4.602-1.438-24.303-.576-26.316-.576-2.013.145-4.458.721-5.896 2.014z" fill="#e0e16c"/><path d="M88.972 117.268c.719-.143.863-1.438 1.438-1.438.575-.145 1.294-.432 1.15 1.295 2.013.287 3.164.287 4.602.143.575-.574.719-2.012 2.013-1.869.432 0 .719.719.574 1.727 1.008-.145 4.027 0 4.602-.289.576-.432 0-1.293 1.008-1.438 1.006 0 1.725.287 1.725 1.295 1.582.574 3.164.432 3.74.287 0-.432 0-1.15.574-1.15.719 0 .432.863.863 1.295.863.143 3.02-.432 3.738 0 .576.432.145 1.15-.432 1.15-.719 0-2.301-.145-2.588.287-.287.287 2.014 4.025 1.438 4.602-.574.719-1.438.863-1.725-.287s-1.582-4.314-1.869-4.314h-3.74l-.574 2.732 3.02.143s1.582.432-.719 1.008c-1.295.287-1.727-.145-2.301 0-.576 0-.432 1.582-1.295 1.869-.719.145-1.869.574-1.725-1.582-.719-.145-4.314.287-5.896 0 .144-.145-.144 1.869-1.87 1.438-1.726-.287-.431-.719-1.15-1.293-.575-.432-4.313.143-5.033-.145-.288.576-1.438 1.869-2.157 1.582-.575-.145-.575-.863-.288-1.295s-1.869-.287-1.582-1.438c.288-.863 1.726-1.15 2.732-1.006.575.143 1.006-.863.719-1.15-.144-.289-3.452.574-2.732-1.295.433-1.439 3.021-.864 3.74-.864zm1.151 3.308c.288.287 4.314 0 4.314 0l.576-1.295-4.602.145c-.288.142-.72.861-.288 1.15zm7.477 0c.721.287 4.891.574 5.178.432.145-.432.574-1.727.432-2.158-.432-.143-4.602 0-5.033.145-.288.142-.288 1.005-.577 1.581z" fill="#e0e16c"/><path d="M101.195 93.972c1.869-.144 3.883-1.15 4.457-1.726 1.15-1.007 4.746 0-1.293 3.451-9.491 5.751-13.949-.719-12.799-6.902 0-.288-1.294-1.294-1.294-1.582.288-1.15 1.725.144 1.87-.144 2.876-6.04 13.516-8.628 14.092-3.164.574 5.177-5.033 7.766-9.778 6.902 0 1.44 2.3 3.309 4.745 3.165zm1.869-7.046c.576-.719.719-2.732-1.869-3.02-4.314-.431-4.889 4.314-4.889 4.314 1.151.575 4.745 1.15 6.758-1.294zM107.666 97.855c-.719-.576-.719-1.582.145-2.445.863-1.007 2.156-1.294 2.875-.719.721.432.576 1.583-.143 2.446-.863.861-2.158 1.15-2.877.718z" fill="#345aa2"/></g></svg>