<svg xmlns="http://www.w3.org/2000/svg" width="2500" height="2500" viewBox="0 0 192.756 192.756"><path fill="#fff" d="M0 192.756h192.756V0H0v192.756z"/><path d="M45.346 65.705c2.24 3.983 3.423 8.713 3.423 13.194 0 14.998-12.26 27.257-27.321 27.257-4.481 0-9.148-1.119-12.944-3.359 2.8.746 5.85 1.369 8.837 1.369 16.181 0 29.374-13.194 29.374-29.375 0-3.111-.56-6.41-1.369-9.086zM90.466 106.904c-2.801.809-5.975 1.307-8.9 1.307-15.434 0-28.005-12.571-28.005-27.943 0-5.188 1.523-10.374 4.236-14.75h-1.313c-4.003 4.876-6.346 11.037-6.346 17.426 0 15.062 12.26 27.32 27.321 27.32 4.479 0 9.148-1.182 13.007-3.36z" fill-rule="evenodd" clip-rule="evenodd"/><path d="M71.422 119.102c-4.854-8.338-14.251-13.566-24.022-13.566-15.434 0-28.005 12.57-28.005 27.943 0 .434.02.936.053 1.43h-.16c-.345-1.857-.578-3.701-.578-5.475 0-15.062 12.26-27.322 27.321-27.322 11.077-.001 21.158 6.783 25.391 16.99zM100.36 84.251l3.174 7.904h2.614L95.817 67.572h-2.863L82.686 92.155H85.3l3.174-7.904h11.886zm-.684-1.618H89.159l2.676-6.784c.809-2.116 1.68-4.294 2.489-6.659h.187c.871 2.427 1.742 4.543 2.551 6.784l2.614 6.659zM108.513 78.899v9.21c0 1.556.311 2.552.872 3.236.622.748 1.742 1.121 2.987 1.121.996 0 1.929-.249 2.737-.685.747-.373 1.369-.871 1.992-1.431h.124l-.062 1.867h2.239V78.961h-2.239v9.709a8.11 8.11 0 0 1-2.055 1.618c-.684.312-1.431.561-2.053.561-.934 0-1.494-.374-1.805-.747-.498-.622-.561-1.556-.561-2.614v-8.526l-2.176-.063zM122.702 78.899h-1.369v1.493h1.369v7.842c0 3.049 1.121 4.232 3.111 4.232.935 0 1.618-.311 2.179-.623l-.373-1.431c-.312.187-.747.436-1.308.436-.933 0-1.431-1.058-1.431-3.299V80.33h2.303v-1.494h-2.303v-2.862h-2.24l.062 2.925zM143.053 85.496c0-4.729-2.801-6.908-6.908-6.908-4.106 0-6.907 2.178-6.907 6.908 0 4.231 2.239 6.97 6.907 6.97 4.605 0 6.908-2.739 6.908-6.908v-.062zm-6.908 5.538c-2.8 0-4.604-1.929-4.604-5.538 0-3.858 2.178-5.477 4.604-5.477s4.605 1.618 4.605 5.477c0 3.485-1.805 5.538-4.605 5.538zM153.508 79.957h-.062c-.747-.872-1.867-1.369-3.175-1.369-3.485 0-5.165 2.551-5.165 6.97 0 4.481 1.93 6.845 5.041 6.845 1.618 0 2.613-.684 3.236-1.244h.062v.684c0 2.116-.249 3.423-.747 4.232-.561.747-1.37 1.12-2.179 1.12-.747 0-1.369-.186-1.805-.561-.498-.373-.809-.871-.995-1.618l-2.303.249c.498 1.183 1.245 1.992 1.991 2.49.934.623 2.054.871 3.174.871 1.681 0 3.05-.561 3.859-1.617.87-1.184 1.244-2.677 1.244-5.416V78.899h-2.24l.064 1.058zm-6.099 5.663c0-3.361.871-5.415 3.299-5.415 1.244 0 2.178.685 2.8 1.557v7.467c-.685.872-1.556 1.619-2.862 1.619-1.993 0-3.237-1.992-3.237-5.228zM170.187 85.869c0-2.365-.56-4.294-1.742-5.601-1.121-1.12-2.489-1.68-4.17-1.68-1.929 0-3.361.56-4.419 1.618-1.182 1.183-1.741 2.987-1.741 5.228 0 2.552.56 4.294 1.68 5.415 1.119 1.12 2.737 1.618 4.48 1.618 1.867 0 3.112-.498 4.045-1.121.934-.684 1.557-1.493 1.867-2.302l-2.303-.187c-.746 1.494-1.929 2.303-3.547 2.303-1.867 0-3.796-1.245-3.921-5.29h9.771v-.001zm-9.771-1.12c.187-3.423 1.805-4.855 3.858-4.855 1.93 0 3.424 1.868 3.672 4.855h-7.53zM184.252 92.155v-9.149c0-1.556-.312-2.551-.935-3.298-.622-.747-1.68-1.058-2.986-1.058-.935 0-1.805.186-2.614.56-.871.435-1.68.934-2.489 1.556h-.062v-1.805h-2.241v13.256h2.241v-9.646c.622-.685 1.618-1.37 2.302-1.681.747-.373 1.432-.56 2.116-.56.996 0 1.556.311 1.93.747.435.622.56 1.556.56 2.614v8.526l2.178-.062z" fill-rule="evenodd" clip-rule="evenodd"/></svg>