<svg xmlns="http://www.w3.org/2000/svg" width="2500" height="2500" viewBox="0 0 192.756 192.756"><g fill-rule="evenodd" clip-rule="evenodd"><path fill="#fff" d="M0 0h192.756v192.756H0V0z"/><path d="M78.207 84.07h-2.913l-9.649 18.752h3.277s2.185-4.279 2.276-4.461h11.014c.091.182 2.275 4.461 2.275 4.461h3.368L78.298 84.07h-.091zm-1.912 4.097l.364-.729s0-.091.091-.273v.182c0 .091.273.546.273.546l.182.455 3.732 7.464h-8.465c.182-.455 3.732-7.373 3.732-7.373l.091-.272zM100.145 89.805h-2.912s-4.734 9.375-5.007 10.013c-.273-.639-5.006-10.013-5.006-10.013h-3.095l6.554 13.017h3.004l6.737-13.017h-.275zM108.064 89.44h-.092c-4.916.091-8.375 3.004-8.375 7.101 0 4.096 3.277 6.736 8.467 6.736 4.277 0 8.465-2.186 8.465-6.919 0-1.82-.547-3.368-1.82-4.551-1.457-1.547-3.914-2.367-6.645-2.367zm.182 11.378c-3.459 0-5.826-1.729-5.826-4.46 0-2.184 1.73-4.46 5.461-4.46 1.912-.091 3.551.455 4.643 1.547.729.729 1.184 1.729 1.184 2.913-.001 2.913-2.731 4.46-5.462 4.46zM131.73 98.453l-.092.182c-.363.545-.637 1-1.455 1.455-1.002.547-2.367.91-3.643.91-3.367 0-5.734-1.82-5.734-4.551 0-3.186 3.004-4.733 5.734-4.733 1.912 0 3.096.728 3.551 1.001.82.546 1.184 1.092 1.365 1.457l.092.182 2.73-.728-.092-.273c-.363-.546-.91-1.639-2.457-2.64-1.82-1.093-4.006-1.275-5.189-1.275-5.188 0-8.646 2.731-8.646 6.827 0 3.004 1.547 5.371 4.369 6.371 1.184.455 2.549.639 4.188.639 1.729 0 4.277-.273 6.281-1.912.818-.637 1.092-1.184 1.547-2.002l.182-.184-.273-.09-2.458-.636zM151.119 96.632c-.092-4.278-3.369-7.282-8.012-7.282-4.732 0-7.918 2.822-7.918 6.918 0 4.824 4.004 7.01 8.01 7.01 1.184 0 3.459-.273 5.463-1.549 1.273-.91 1.729-1.729 2.184-2.639l.092-.182-2.732-.82v.182c-.363.639-.727 1.184-1.547 1.73-.818.547-2.002.91-3.186.91-1.82 0-3.551-.729-4.461-1.912-.637-.729-.818-1.547-.91-2.184h13.018v-.182h-.001zm-12.836-2.003c.365-1.001 1.549-3.095 5.008-3.095 3.186 0 4.277 2.094 4.643 3.095h-9.651zM160.949 89.44c-1.365 0-2.549.182-3.641.637-.91.273-1.365.638-1.82 1.093v-1.365h-2.822v13.017h2.822v-6.19c0-1.274 0-3.186 2.275-4.188a6.867 6.867 0 0 1 2.73-.546c1.002 0 2.367.091 3.459 1.001 1.092.819 1.092 2.002 1.092 3.095v6.828h2.822v-7.01c0-1.274 0-2.731-1.092-4.096-1.182-1.456-3.276-2.276-5.825-2.276zM178.881 92.081v-2.275h-6.189v-6.008h-2.822v15.474c0 1.82.092 3.732 3.643 3.732.91 0 4.369-.092 5.188-.182h.182v-2.549l-.182.09c-.637.092-3.822.184-4.459.184-1.549 0-1.549-.729-1.639-2.004v-.09s.09-5.372.09-6.373l6.188.001zM182.887 102.275l.637-1.639h.547v2.186h-.365V101l-.727 1.822h-.273l-.638-1.822v1.822h-.455v-2.186h.637l.637 1.639zm-1.639-1.365h-.637v1.912h-.455v-1.912h-.637v-.273h1.729v.273z" fill="#cb4545"/><path fill="#2b2c2d" d="M70.925 113.471h-1.912v5.644h-1.274v-5.644h-1.821v-1.182h5.007v1.182zM72.655 112.289v2.547c.455-.363.91-.637 1.547-.637s1.092.184 1.365.455c.364.455.364.91.364 1.457v3.004h-1.092v-2.641c0-.455 0-.545-.091-.637 0-.182-.183-.545-.82-.545a1.25 1.25 0 0 0-1.183.818c-.091.182-.091.273-.091.818v2.186h-1.093v-6.826h1.094v.001zM78.207 116.111c.091-.637.546-1.002 1.092-1.002s1.001.273 1.092 1.002h-2.184zm2.549 1.366c-.182.182-.455.637-1.274.637-.728 0-1.183-.363-1.365-1.184h3.55c0-.455-.092-1.273-.456-1.82-.091-.182-.637-.91-1.912-.91-1.365 0-2.367.91-2.367 2.549 0 1.73 1.184 2.549 2.458 2.549 1.001 0 1.729-.455 2.367-1.273l-1.001-.548zM87.674 113.381c.364 0 .819 0 1.183.273.091.182.364.363.364.91 0 .271-.091 1-.91 1.184h-1.639v-2.367h1.002zm-2.276 5.734h1.274v-2.275h1.001c.455 0 .819 0 1.183-.092 1.184-.273 1.639-1.273 1.639-2.184 0-1.365-.91-1.912-1.639-2.186-.364-.09-.728-.09-1.183-.09h-2.276v6.827h.001zM94.591 116.658c0 .818-.455 1.547-1.274 1.547-.728 0-1.274-.547-1.274-1.547 0-.91.456-1.457 1.184-1.457.818 0 1.273.637 1.364 1.457zm1.184.09c0-1.639-1.184-2.549-2.548-2.549-1.366 0-2.458 1.002-2.458 2.549 0 1.457 1.001 2.549 2.549 2.549 1.456 0 2.457-1.092 2.457-2.549zM101.965 114.291h1.275l-1.457 4.824H100.6l-.911-3.095-.91 3.095h-1.091l-1.458-4.824h1.274l.82 3.277.91-3.277h1.002l.91 3.277.819-3.277zM104.969 116.111c.092-.637.547-1.002 1.184-1.002.455 0 .91.273 1.092 1.002h-2.276zm2.549 1.366c-.092.182-.455.637-1.273.637-.729 0-1.184-.363-1.367-1.184h3.643c-.092-.455-.184-1.273-.547-1.82-.092-.182-.637-.91-1.912-.91-1.365 0-2.367.91-2.367 2.549 0 1.73 1.184 2.549 2.459 2.549 1.002 0 1.729-.455 2.367-1.273l-1.003-.548zM110.521 114.291v.729c.182-.273.455-.82 1.547-.82v1.184c-.273 0-.729 0-1.092.273-.455.363-.455.91-.455 1.73v1.729h-1.092v-4.824h1.092v-.001zM118.896 116.658c0 .818-.365 1.547-1.275 1.547-.637 0-1.273-.547-1.273-1.547 0-.91.545-1.457 1.273-1.457.82 0 1.275.637 1.275 1.457zm1.184.09c0-1.639-1.094-2.549-2.459-2.549-1.457 0-2.457 1.002-2.457 2.549 0 1.457 1 2.549 2.457 2.549 1.547 0 2.459-1.092 2.459-2.549zM122.355 115.109v4.006h-1.184v-4.006h-.729v-.818h.729v-.547c0-.637 0-1.455 1.639-1.455.182 0 .363 0 .637.09v.91h-.365c-.363 0-.545.092-.637.273 0 .092-.09.182-.09.363v.365h1.092v.818h-1.092v.001zM128.908 113.381c1.002 0 1.092 0 1.365.182.273.092.365.363.365.637 0 .365-.184.547-.455.729-.184.092-.547.092-.82.092H128.18v-1.639h.728v-.001zm-2.002 5.734h2.639c.729 0 1.094 0 1.549-.182.818-.273 1.182-.91 1.182-1.73 0-1.092-.637-1.639-1.455-1.82.363 0 .637-.182.91-.455.182-.273.273-.637.273-.91 0-.729-.547-1.365-1.184-1.547-.365-.092-.637-.182-1.547-.182h-2.367v6.826zm2.457-3.095c.455 0 1.184 0 1.457.547.182.182.182.363.182.547 0 .273-.182.545-.363.727-.273.184-.455.184-1.275.184h-1.184v-2.004h1.183v-.001zM134.369 116.111c.092-.637.547-1.002 1.184-1.002.455 0 .91.273 1.002 1.002h-2.186zm2.549 1.366c-.182.182-.455.637-1.273.637-.729 0-1.184-.363-1.365-1.184h3.551c0-.455-.092-1.273-.457-1.82-.09-.182-.637-.91-1.91-.91-1.365 0-2.367.91-2.367 2.549 0 1.73 1.184 2.549 2.457 2.549 1.002 0 1.73-.455 2.367-1.273l-1.003-.548zM138.83 112.379h1.092v1.184h-1.092v-1.184zm0 1.912h1.092v4.824h-1.092v-4.824zM141.197 114.291h1.184v.545l.363-.363c.273-.182.729-.273 1.092-.273.547 0 1.002.184 1.275.547s.273.91.273 1.547v2.822h-1.094v-2.457c0-.365 0-.547-.09-.729-.092-.455-.365-.637-.729-.637-.455 0-.729.182-.91.545-.182.365-.182.82-.182 1.184v2.094h-1.184v-4.825h.002zM149.936 116.566c0 .91-.547 1.273-1.184 1.273-.729 0-1.184-.453-1.184-1.273 0-1.002.547-1.365 1.184-1.365.728 0 1.184.547 1.184 1.365zm-.092-2.275v.545c-.09-.182-.455-.637-1.365-.637-.818 0-2.094.547-2.094 2.367 0 1.547.91 2.275 2.094 2.275.637 0 1.184-.273 1.365-.545 0 .637 0 .91-.09 1.182-.182.092-.365.365-1.002.365-.729 0-.91-.365-1.002-.637h-1.273c.182.818.547 1.547 2.275 1.547 1.092 0 1.73-.365 2.002-.729.273-.455.273-.818.273-1.729v-4.006h-1.183v.002zM159.492 113.471h-1.91v5.644h-1.275v-5.644h-1.821v-1.182h5.006v1.182zM161.223 112.289v2.547c.363-.363.91-.637 1.547-.637.639 0 1.092.184 1.365.455.365.455.365.91.365 1.457v3.004h-1.092v-2.641c0-.455 0-.545-.092-.637-.092-.182-.182-.545-.818-.545-.729 0-1.094.545-1.184.818-.092.182-.092.273-.092.818v2.186h-1.092v-6.826h1.093v.001zM166.684 116.111c.182-.637.639-1.002 1.184-1.002.547 0 1.002.273 1.092 1.002h-2.276zm2.64 1.366c-.182.182-.455.637-1.275.637-.727 0-1.184-.363-1.365-1.184h3.551c0-.455-.092-1.273-.455-1.82-.092-.182-.637-.91-1.912-.91-1.365 0-2.367.91-2.367 2.549 0 1.73 1.184 2.549 2.459 2.549 1 0 1.729-.455 2.367-1.273l-1.003-.548zM172.328 114.291v.729c.09-.273.455-.82 1.547-.82v1.184c-.273 0-.729 0-1.092.273-.455.363-.455.91-.455 1.73v1.729h-1.184v-4.824h1.184v-.001zM175.422 116.111c.092-.637.547-1.002 1.184-1.002.455 0 .91.273 1.002 1.002h-2.186zm2.549 1.366c-.182.182-.455.637-1.273.637-.729 0-1.184-.363-1.365-1.184h3.549c0-.455-.09-1.273-.455-1.82-.09-.182-.637-.91-1.91-.91-1.365 0-2.367.91-2.367 2.549 0 1.73 1.184 2.549 2.457 2.549 1.002 0 1.73-.455 2.367-1.273l-1.003-.548zM183.068 118.66l.547-1.639h.637v2.186h-.363v-1.82l-.729 1.82h-.273l-.729-1.82v1.82h-.363v-2.186h.637l.636 1.639zm-1.638-1.365h-.729v1.912h-.363v-1.912h-.729v-.273h1.82v.273h.001z"/><path d="M55.906 98.453c-15.383-8.011-31.95-7.101-38.231 2.365 2.276 2.732 5.28 5.189 8.739 7.191 11.378 6.555 24.031 5.916 28.309-1.457 1.365-2.364 1.729-5.187 1.183-8.099zM13.488 82.432c-2.002 3.368-1.82 7.646.091 11.924 6.099.638 11.47-1.092 13.927-5.279 2.002-3.55 1.457-8.192-1.092-12.652-5.735-.092-10.56 2.001-12.926 6.007zM54.996 94.72c-2.094-5.006-6.645-10.104-12.926-13.745-4.551-2.64-9.375-4.096-13.745-4.46 1.457 5.097 5.826 10.468 12.198 14.109 4.915 2.822 10.012 4.187 14.473 4.096z" fill="#8e857d"/><path d="M14.853 98.635c-.182-.637-.637-1.092-1.365-1.365-1.365-.547-3.368.09-4.369 1.455-.546.639-.729 1.457-.546 2.094a1.798 1.798 0 0 0 1.274 1.275c1.457.545 3.368-.092 4.46-1.365.455-.729.728-1.458.546-2.094z" fill="#cb4545"/></g></svg>