<svg xmlns="http://www.w3.org/2000/svg" width="2500" height="2500" viewBox="0 0 192.756 192.756"><g fill-rule="evenodd" clip-rule="evenodd"><path fill="#fff" d="M0 0h192.756v192.756H0V0z"/><path d="M33.231 88.833h2.953s4.92 0 4.92-5.577c0-5.576-4.92-5.248-4.92-5.248h-2.953v10.825zm0 26.899h3.28s5.249 0 5.249-6.561c0-6.232-5.249-6.232-5.249-6.232h-3.28v12.793zm9.841 16.403H11.581V61.606h32.804s21.322.656 21.322 15.746c0 13.122-8.201 17.386-8.201 17.386s10.826 3.608 10.826 16.075c-.001 22.632-25.26 21.322-25.26 21.322zM158.869 96.05c0-4.92-.328-18.042-8.529-18.042s-8.529 13.121-8.529 18.042c0 4.593.328 17.714 8.529 17.714s8.529-13.121 8.529-17.714zm14.434 22.307h6.561v13.121h-31.82s-29.195 2.951-29.195-35.101c0-22.963 13.123-36.412 31.164-36.412 18.043 0 31.164 13.449 31.164 36.741-.001 13.778-7.874 21.651-7.874 21.651z" fill="#bc445e"/><path d="M96.542 116.389c-1.312-1.641-2.296-3.281-3.608-4.594-.984-1.311-2.296-2.623-3.28-3.607-.984.328-3.937 1.969-3.937 5.576 0 3.938 2.296 4.92 5.249 4.92 2.296 0 4.92-1.967 5.576-2.295zM93.59 90.474s-2.952-2.296-2.952-5.249c0-1.969.983-3.28 2.952-3.28 1.968 0 3.607.984 3.607 3.28 0 3.28-3.607 5.249-3.607 5.249zm12.465 41.005l-1.967-2.953c-4.266 2.625-9.186 4.266-14.763 4.266-14.105 0-19.682-8.201-19.682-16.402 0-12.139 8.529-16.402 10.825-17.387-2.296-2.295-5.577-6.888-5.577-13.449 0-10.497 8.857-16.074 18.042-16.074 9.186 0 18.699 6.561 18.699 16.074 0 9.841-9.514 15.09-9.514 15.09.984.984 3.279 3.281 5.576 6.232l3.281-2.951 9.512 10.496-4.264 3.938c3.279 6.232 7.545 13.121 7.545 13.121h-17.713v-.001z" fill="#bc445e"/></g></svg>