<svg xmlns="http://www.w3.org/2000/svg" width="2500" height="2500" viewBox="0 0 192.756 192.756"><g fill-rule="evenodd" clip-rule="evenodd"><path fill="#fff" d="M0 0h192.756v192.756H0V0z"/><path fill="#cccde7" stroke="#353690" stroke-width="1.593" stroke-miterlimit="2.613" d="M55.592 105.889l35.459-25.031-.084-44.029 34.263 26.714 40.967-13.687-14.285 41.541 25.402 35.57-43.089-1.041-25.268 35.67-12.347-42.184-41.018-13.523z"/><path d="M163.633 144.74c-.064-.658-.34-1.359-1.02-1.359-1.123 0-1.123 1.207-1.123 2.537 0 1.398.078 2.551 1.15 2.551.73 0 .979-.686 1.045-1.357l2.156.521c-.248.904-.719 2.672-3.279 2.672-2.549 0-3.582-2.082-3.582-4.305 0-2.316 1.033-4.346 3.582-4.346 2.26 0 3.031 1.59 3.135 2.523l-2.064.563zM168.859 145.986c0-1.26.209-2.494 1.307-2.494 1.176 0 1.307 1.234 1.307 2.494 0 1.248-.131 2.482-1.307 2.482-1.098.001-1.307-1.234-1.307-2.482zm-2.507 0c0 2.387 1.215 4.318 3.814 4.318 2.602 0 3.816-1.932 3.816-4.318 0-2.398-1.215-4.332-3.816-4.332-2.6 0-3.814 1.934-3.814 4.332zM175.105 141.846h2.457v1.111c.822-.945 1.541-1.303 2.299-1.303 1.111 0 1.646.59 1.895 1.303.654-.59 1.373-1.303 2.562-1.303 1.945 0 1.945 1.645 1.945 2.619v5.84h-2.455v-5.059c0-.617-.041-1.289-.758-1.289-.262 0-.498.055-1.137.768v5.58h-2.457v-5.059c0-.617-.039-1.289-.758-1.289-.262 0-.496.055-1.137.768v5.58h-2.457v-8.267h.001zM155.23 149.152c0-.607.484-1.1 1.078-1.1.596 0 1.078.492 1.078 1.1a1.09 1.09 0 0 1-1.078 1.102 1.09 1.09 0 0 1-1.078-1.102zM100.832 101.717l1.414-2.307c.252-.416.605-1.023.787-1.562h.098c.094.373.355.969.689 1.562l1.293 2.307h-4.281zm5.455-5.886h-6.078l-6.574 9.839h4.824l1.188-2.018h6.52l1.027 2.018h5.068l-5.975-9.839zM113.449 95.831h6.027l4.232 4.794c.531.596 1.086 1.342 1.492 2.115h.223c-.141-.457-.203-1.176-.189-2.086l.074-4.824h4.479l-.152 9.839h-6.053l-4.426-5.004c-.652-.732-1.133-1.561-1.227-1.906h-.172c.041.512.109.939.1 1.521l-.082 5.389h-4.48l.154-9.838zM137.211 97.848h1.551c3.174 0 4.459 1.258 4.434 2.902-.027 1.811-1.104 2.902-4.572 2.902h-1.502l.089-5.804zm-4.943 7.822h6.84c5.316 0 9.105-1.604 9.158-4.988.049-3.193-3.297-4.851-8.66-4.851h-7.186l-.152 9.839z" fill="#353690"/><path d="M57.24 103.92h8.503v13.293h10.195V103.92h8.504v33.531h-8.504V123.1H65.743v14.352H57.24V103.92zm96.051 10.344h-8.715c-.227 0-.678-.133-1.32-.268-.678-.09-1.584-.223-2.791-.223-1.35 0-3.264-.266-4.975.57h-13.902c-.225 0-.703-.213-1.346-.348-.678-.09-1.584-.223-2.791-.223-3.131 0-9.168 1.207-9.168 8.492 0 5.32 3.17 6.795 4.867 7.689-1.131.625-2.301 1.654-2.301 3.934 0 1.699.641 2.369 1.246 2.816-1.133.715-4.453 2.234-4.453 6.705 0 4.291 4.188 6.84 10.262 6.84 6.414 0 11.846-2.012 11.846-8.494 0-3.844-2.338-5.9-5.092-6.75l-7.32-2.146c-.98-.268-1.094-.67-1.094-1.16 0-.404.264-.627.453-.805a11.03 11.03 0 0 0 1.924.178c4.264 0 8.639-2.994 8.639-7.643 0-2.416-.564-3.756-1.395-4.605l6.254.004-.082.123c-.371.975-.74 1.939-.74 3.314 0 5.32 3.17 6.795 4.867 7.689-1.133.625-2.301 1.654-2.301 3.934 0 1.699.641 2.369 1.244 2.816-1.133.715-4.451 2.234-4.451 6.705 0 4.291 4.188 6.84 10.262 6.84 6.412 0 11.846-2.012 11.846-8.494 0-3.844-2.34-5.9-5.094-6.75l-7.318-2.146c-.98-.268-1.094-.67-1.094-1.16 0-.404.264-.627.451-.805.529.088 1.133.178 1.926.178 4.262 0 8.639-2.994 8.639-7.643 0-2.416-.566-3.756-1.396-4.605h4.414v-4.559h-.001zm-33.16 26.152c2.264.67 2.867.982 2.867 2.502 0 1.162-1.096 2.236-3.887 2.236-3.811 0-5.32-.762-5.32-2.996 0-1.789 1.133-2.727 1.623-3.174l4.717 1.432zm-2.377-14.709c-1.887 0-3.207-1.43-3.207-3.219 0-2.502 1.471-3.352 3.32-3.352 2.15 0 3.131 1.387 3.131 3.264 0 2.145-1.434 3.307-3.244 3.307zm25.389 14.709c2.264.67 2.867.982 2.867 2.502 0 1.162-1.094 2.236-3.885 2.236-3.811 0-5.32-.762-5.32-2.996 0-1.789 1.133-2.727 1.623-3.174l4.715 1.432zm-2.377-14.709c-1.885 0-3.205-1.43-3.205-3.219 0-2.502 1.471-3.352 3.318-3.352 2.15 0 3.131 1.387 3.131 3.264 0 2.145-1.432 3.307-3.244 3.307zm14.375-18.379h7.092v29.943h-7.092v-29.943zm16.416 15.568c0-1.426.377-4.547 3.697-4.547 3.018 0 3.357 3.084 3.434 4.547h-7.131zm3.433-9.402c-7.018 0-10.676 5.51-10.676 12.254 0 4.201 1.66 12.062 10.676 12.062 4.641 0 7.658-1.58 9.695-5.973l-5.998-2.004c-.49 1.078-1.283 2.812-3.584 2.812-3.547 0-3.547-3.469-3.547-5.01h14.111v-1.85c.001-8.631-4.716-12.291-10.677-12.291zm-79.728 18.768c-1.32 0-2.264-.926-2.264-2.273 0-1.928 1.396-3.123 3.584-3.123.716 0 1.622.078 2.452.154v3.354c-.942.808-2.187 1.888-3.772 1.888zm10.752-8.785c0-5.859-2.037-9.982-9.431-9.982-7.772 0-9.394 5.049-9.733 6.127l6.299 1.85c.265-1.502 1.02-3.121 3.094-3.121 2.226 0 2.792 1.311 2.792 3.545v.732a28.34 28.34 0 0 0-2.679-.154c-5.356 0-10.223 2.545-10.223 8.324 0 2.775 1.433 7.014 6.489 7.014 2.679 0 4.867-2.004 6.414-3.545h.113c0 .848.113 2.004.15 3.006h6.867c-.115-1.078-.152-2.697-.152-4.084v-9.712z" fill="#fff" stroke="#353690" stroke-width="1.593" stroke-miterlimit="2.613"/><path d="M124.174 54.991c0 2.143-1.701 3.88-3.799 3.88s-3.799-1.737-3.799-3.88 1.701-3.881 3.799-3.881 3.799 1.738 3.799 3.881zM14.649 67.522v-6.116h4.426c2.342 0 3.383.62 3.383 3.058 0 2.127-1.258 3.058-3.383 3.058h-4.426zM6.492 86.755h12.756c3.21 0 12.104 0 12.104-8.465 0-5.895-3.991-7.357-6.551-7.712v-.221c1.562-.399 5.684-1.374 5.684-7.269 0-7.888-8.244-7.888-10.934-7.888H6.492v31.555zm8.157-6.204v-6.825h4.599c2.516 0 3.948.709 3.948 3.412 0 2.083-1.432 3.413-3.601 3.413h-4.946zm27.184.742c-1.321 0-2.264-.926-2.264-2.273 0-1.927 1.396-3.122 3.583-3.122.717 0 1.622.077 2.452.154v3.353c-.942.809-2.187 1.888-3.771 1.888zm10.751-8.786c0-5.858-2.037-9.981-9.432-9.981-7.771 0-9.394 5.048-9.733 6.127l6.301 1.85c.264-1.503 1.019-3.122 3.093-3.122 2.226 0 2.792 1.311 2.792 3.545v.732a27.988 27.988 0 0 0-2.678-.154c-5.357 0-10.224 2.543-10.224 8.324 0 2.774 1.434 7.014 6.489 7.014 2.678 0 4.867-2.004 6.413-3.545h.113c0 .848.113 2.004.15 3.006h6.867c-.114-1.08-.151-2.698-.151-4.085v-9.711zm3.176-9.442h7.092v3.738h.076c1.434-2.929 4.603-4.008 6.111-4.008.415 0 .868.039 1.283.116v6.513c-.416-.193-1.057-.346-2.302-.346-2.226 0-3.999.963-5.168 2.581v14.645H55.76V63.065zm21.876 8.451c0-2.504 1.472-3.354 3.32-3.354 2.15 0 3.131 1.387 3.131 3.265 0 2.146-1.434 3.309-3.245 3.309-1.885 0-3.206-1.431-3.206-3.22zm15.732-8.227h-8.714c-.227 0-.68-.134-1.321-.269-.679-.089-1.585-.224-2.792-.224-3.131 0-9.167 1.208-9.167 8.497 0 5.321 3.168 6.796 4.867 7.691-1.132.626-2.301 1.654-2.301 3.935 0 1.699.642 2.37 1.245 2.817-1.132.716-4.452 2.236-4.452 6.707 0 4.293 4.187 6.842 10.261 6.842 6.414 0 11.846-2.012 11.846-8.497 0-3.845-2.339-5.902-5.093-6.752l-7.318-2.146c-.981-.268-1.094-.67-1.094-1.163 0-.402.264-.626.452-.805.529.09 1.132.179 1.924.179 4.263 0 8.639-2.997 8.639-7.647 0-2.414-.565-3.756-1.396-4.605h4.414v-4.56zM83.22 89.448c2.263.67 2.867.983 2.867 2.503 0 1.163-1.094 2.236-3.886 2.236-3.811 0-5.319-.76-5.319-2.996 0-1.789 1.131-2.728 1.622-3.175l4.716 1.432zm19.655-8.155c-1.32 0-2.264-.926-2.264-2.273 0-1.927 1.396-3.122 3.584-3.122.717 0 1.623.077 2.453.154v3.353c-.943.809-2.187 1.888-3.773 1.888zm10.752-8.786c0-5.858-2.037-9.981-9.432-9.981-7.771 0-9.393 5.048-9.733 6.127l6.301 1.85c.264-1.503 1.018-3.122 3.092-3.122 2.227 0 2.793 1.311 2.793 3.545v.732a28.013 28.013 0 0 0-2.68-.154c-5.357 0-10.223 2.543-10.223 8.324 0 2.774 1.434 7.014 6.489 7.014 2.68 0 4.867-2.004 6.414-3.545h.113c0 .848.113 2.004.15 3.006h6.865c-.111-1.08-.15-2.698-.15-4.085v-9.711h.001zm3.361-9.442h7.094v23.238h-7.094V63.065zm24.073 8.941c0-1.965-.453-3.545-2.188-3.545-1.359 0-2.793 1.387-3.811 2.351v15.492h-7.094V63.065h7.094v3.122c2.527-2.158 4.375-3.661 7.469-3.661 5.621 0 5.621 4.625 5.621 7.36v16.417h-7.092V72.006h.001z" fill="#d9af5b" stroke="#353690" stroke-width="1.593" stroke-miterlimit="2.613"/></g></svg>