<svg xmlns="http://www.w3.org/2000/svg" width="2500" height="1122" viewBox="0 0 50.828 22.814"><path d="M30.209 11.896c-.882.091-1.787.18-2.706.259-5.664.486-10.385.807-14.564.96.009.053-.105-.4-.105-.4 2.679-.251 2.748-.251 6.748-.612 3.477-.313 6.695-.655 9.621-1.027a1.574 1.574 0 0 1-.1-.137l1.96-.614v-.468s-.234-.468-.351-.673l1.164-.649c.234-.064-1.369-3.242-1.369-3.242l.702-1.199-1.082-3.13.819-.964 1.55 3.89-.408.701c10.576-.746 18.777-.21 18.74 1.649-.038 1.889-7.941 4.236-19.471 5.533.12.16.196.415-.119.746l-.556.585s.146.761.176.936.175 1.111-1.521 1.433c-1.697.322-3.861-.292-4.739-.848l.322-.585s1.901.673 2.896.702c.79.023 2.252-.146 2.106-1.111-.146-.965.088-1.316.497-1.608 0-.001-.085-.046-.21-.127zm1.782-1.189C42.198 9.262 48.208 7.55 48.432 6.505c.247-1.15-6.488-1.551-16.299-.938l1.153 2.624s.352.618-.526.849c-.87.229-.847.217-.878.204l.205.995c-.001-.001.088.239-.096.468" fill="#ecb73b"/><path d="M21.033 10.561C8.046 12.245.32 11.679.007 9.5c-.271-1.887 7.38-4.376 20.368-6.061 2.892-.375 5.655-.656 8.196-.853l-.817.866a98.167 98.167 0 0 0-4.205.479C9.304 5.903 1.883 7.958 2.396 9.363c.445 1.216 6.789 1.974 18.86.409l-.223.789" fill="#ecb73b"/><path d="M8.797 8.821l-.164-.277c3.49-1.083 9.907-2.32 16.192-3.242l-.291.884C20.6 6.64 13.292 7.92 8.797 8.821" fill="#ecb73b"/><path d="M8.372 15.165h6.54c2.648 0 4.452.616 4.089 1.911-.267.95-1.332 1.479-3 1.759l-.006.021c1.837.205 2.664.745 2.406 1.662-.506 1.802-3.606 2.18-6.153 2.18H6.259l2.113-7.533zm2.076 6.109h1.121c1.386 0 2.862-.108 3.077-.874.229-.82-1.236-.896-2.54-.896h-1.161l-.497 1.77zm.878-3.13h1.06c1.243 0 2.572-.162 2.75-.799.194-.69-1.01-.755-2.273-.755h-1.1l-.437 1.554M22.697 20.44c-.014.777 1.001 1.079 2.759 1.079.979 0 2.13-.119 3.294-.432l-.377 1.371c-1.226.249-2.574.356-3.912.356-3.435 0-5.752-1.09-5.241-2.947.511-1.856 3.144-2.936 6.379-2.936 3.854 0 4.846 1.479 4.386 3.151l-.098.356h-7.19zm4.257-1.101c.178-.648-.235-1.176-1.673-1.176-1.298 0-2.063.528-2.321 1.176h3.994M32.241 15.161h3.595l-2.124 7.536h-3.595l2.124-7.536M36.763 15.161h3.595l-2.133 7.545H34.63l2.133-7.545" fill="#3b4095"/></svg>