<svg xmlns="http://www.w3.org/2000/svg" width="2500" height="2500" viewBox="0 0 192.756 192.756"><g fill-rule="evenodd" clip-rule="evenodd"><path fill="#fff" d="M0 0h192.756v192.756H0V0z"/><path d="M24.255 10.361h140.047v50.925L24.255 97.08V10.361zM164.303 108.4v38.146H24.255v-2.014L164.303 108.4z" fill="#cc262d"/><path d="M35.692 162.664h-8.209v5.15h7.106v4.02h-7.106v9.771h-3.086v-22.959h11.295v4.018zm20.236 7.467c0 3.832-.722 6.836-2.159 8.998-1.429 2.176-3.302 3.268-5.604 3.268-2.309 0-4.182-1.092-5.607-3.268-1.437-2.158-2.155-5.158-2.155-8.998 0-3.754.719-6.715 2.155-8.867 1.426-2.178 3.299-3.268 5.607-3.268 2.302 0 4.175 1.09 5.604 3.268 1.437 2.156 2.159 5.117 2.159 8.867zm-3.086.062c0-2.998-.469-5.129-1.4-6.383-.935-1.238-2.03-1.861-3.276-1.861-1.25 0-2.346.623-3.28 1.861-.931 1.254-1.396 3.389-1.396 6.387 0 2.994.465 5.125 1.396 6.379.935 1.238 2.031 1.859 3.28 1.859 1.246 0 2.342-.621 3.276-1.859.931-1.254 1.4-3.385 1.4-6.379v-.004zm23.487-.062c0 3.832-.722 6.836-2.158 8.998-1.43 2.176-3.302 3.268-5.604 3.268-2.309 0-4.182-1.092-5.607-3.268-1.437-2.158-2.155-5.158-2.155-8.998 0-3.754.719-6.715 2.155-8.867 1.426-2.178 3.298-3.268 5.607-3.268 2.302 0 4.174 1.09 5.604 3.268 1.435 2.156 2.158 5.117 2.158 8.867zm-3.086.062c0-2.998-.469-5.129-1.4-6.383-.935-1.238-2.031-1.861-3.277-1.861-1.25 0-2.346.623-3.28 1.861-.931 1.254-1.396 3.389-1.396 6.387 0 2.994.466 5.125 1.396 6.379.935 1.238 2.031 1.859 3.28 1.859 1.246 0 2.342-.621 3.277-1.859.931-1.254 1.4-3.385 1.4-6.379v-.004zm20.698-7.529h-5.032v18.941h-3.053v-18.941H80.86v-4.018h13.081v4.018zm17.93 11.84c0 .623-.051 1.209-.146 1.738-.297 1.658-.85 2.92-1.652 3.777-.961 1.057-2.438 1.586-4.424 1.586H99.37v-22.959h6.199c.951 0 1.832.184 2.623.545.732.381 1.32.873 1.756 1.461.443.635.754 1.32.93 2.045.17.707.258 1.432.258 2.156 0 1.113-.209 2.127-.623 3.023-.26.576-.553 1.047-.869 1.408.029.02.146.113.346.273 1.25 1.232 1.881 2.884 1.881 4.947zm-3.789-9.291c0-.545-.092-1.037-.275-1.469-.184-.438-.455-.717-.807-.842-.494-.156-1.188-.238-2.066-.238h-2.518v4.975h2.766c.865 0 1.455-.07 1.756-.211.763-.295 1.144-1.039 1.144-2.215zm.633 9.408c0-.686-.113-1.246-.332-1.674-.246-.43-.568-.729-.957-.9-.422-.217-1.1-.33-2.031-.33h-2.979v5.877h3.232c.352 0 .586-.012.695-.035 1.58-.18 2.371-1.156 2.371-2.934v-.004h.001zm22.699 6.988l-3.391-.004-1.777-6.535h-5.607l-1.652 6.535h-3.307l6.246-22.959h2.859l6.629 22.963zm-8.025-17.211c-.037.242-.172.771-.408 1.588l-1.369 5.305h3.594l-1.285-4.906c-.023-.098-.104-.391-.229-.869-.128-.479-.231-.852-.303-1.118zm23.427 17.211l-10.537-.004v-22.959h3.045v18.947h7.492v4.016zm16.131 0l-10.537-.004v-22.959h3.045v18.947h7.492v4.016z" fill="#463c92"/><path d="M32.925 16.479h6.338c3.103 0 5.971.29 8.601.854 2.63.564 4.875 1.662 6.724 3.263 1.859 1.608 2.911 3.834 3.156 6.67 0 4.954-1.938 8.247-5.795 9.863 1.806.137 3.524.739 5.137 1.775 1.614 1.045 2.919 2.432 3.901 4.14.982 1.715 1.481 3.598 1.481 5.641 0 2.546-.78 4.734-2.34 6.548-1.561 1.814-3.699 3.187-6.409 4.102-2.709.915-5.734 1.379-9.057 1.379H32.925V16.479zm6.339 4.924v14.673h2.893c6.435 0 9.662-2.447 9.662-7.333 0-1.921-.597-3.628-1.789-5.107-1.192-1.487-3.91-2.233-8.136-2.233h-2.63zm0 19.011v15.375h5.12c7.469 0 11.397-2.409 11.748-7.219 0-2.851-1.175-4.932-3.524-6.22-2.35-1.288-5.208-1.936-8.557-1.936h-4.787zM75.38 16.479h9.101c5.97 0 10.23.808 12.755 2.409 3.699 2.287 5.682 5.618 5.928 9.97 0 1.692-.309 3.262-.922 4.71-.613 1.449-1.48 2.737-2.586 3.842s-2.41 2.013-3.884 2.699a16.277 16.277 0 0 1-4.813 1.372l16.052 19.232h-7.627L84.349 42.052h-2.63v18.661H75.38V16.479zm6.339 4.924v16.083c3.55 0 6.435-.221 8.635-.663 2.201-.442 3.884-1.273 5.041-2.47s1.771-2.919 1.841-5.152c0-2.234-1.017-4.093-3.051-5.572-2.034-1.479-5.497-2.226-10.38-2.226h-2.086zm73.156 30.65v6.495c-4.172 2.073-8.607 3.11-13.289 3.11-3.516 0-6.891-.595-10.117-1.769s-6.094-2.851-8.584-5c-2.49-2.157-4.443-4.688-5.848-7.569-1.402-2.882-2.104-5.991-2.104-9.3.377-5.298 2.096-9.642 5.146-13.011 3.051-3.377 6.602-5.809 10.617-7.272 4.023-1.463 7.705-2.203 11.02-2.203 2.771 0 5.172.236 7.18.709s4.006 1.197 5.979 2.172v6.441c-3.943-2.927-8.477-4.399-13.578-4.399-2.701 0-5.27.488-7.707 1.457s-4.586 2.294-6.436 3.963c-1.857 1.669-3.305 3.56-4.33 5.663-1.035 2.104-1.553 4.269-1.553 6.479 0 2.66.527 5.138 1.578 7.417a17.766 17.766 0 0 0 4.393 5.93 20.355 20.355 0 0 0 6.453 3.857 22.265 22.265 0 0 0 7.602 1.395c4.875.002 9.406-1.523 13.578-4.565z" fill="#fff"/><path d="M41.463 99.471l85.463-24.625a33.656 33.656 0 0 0-2.174 3.843L41.463 99.471zM41.938 106.387l81.196-23.333a48.315 48.315 0 0 0-.809 3.788l-80.387 19.545zM42.415 113.303l79.679-21.909c.01 1.231.084 2.461.316 3.618l-79.995 18.291zM42.901 120.369l80.105-22.623c.219 1.219.615 2.438 1.133 3.656l-81.238 18.967zM43.389 127.475l82.117-23.189a23.75 23.75 0 0 0 2.043 3.227l-84.16 19.962zM43.877 134.566l85.893-24.35a27.39 27.39 0 0 0 3.057 2.816l-88.95 21.534zM150.658 66.956h.002c6.537 0 12.473 2.666 16.773 6.966 4.299 4.3 6.965 10.235 6.965 16.772v.001c0 6.539-2.666 12.474-6.967 16.773-4.299 4.301-10.234 6.967-16.771 6.967h-.002c-6.537 0-12.473-2.666-16.773-6.967-4.299-4.301-6.965-10.234-6.967-16.772v-.002c.002-6.538 2.668-12.473 6.967-16.773 4.301-4.299 10.236-6.965 16.773-6.965z" fill="#463c92"/><path d="M163.395 75.234l-6.494.191-2.809 7.355 4.955 7.62 8.158.644 2.404-5.753a20.046 20.046 0 0 0-6.214-10.057zm-23.102-2.299l-1.867 6.767 5.916 4.71 8.68-1.925 2.824-7.393-4.674-4.794a19.344 19.344 0 0 0-.934-.022h-.002c-3.615 0-7.011.968-9.943 2.657zm-9.533 21.908l5.527 3.827 6.412-4.291.729-9.285-5.818-4.632-6.086 2.759a19.86 19.86 0 0 0-1.291 7.061v.001a19.772 19.772 0 0 0 .527 4.56zm17.654 15.36l5.709-3.656-2.268-7.865-8.822-3.201-6.076 4.068 1.324 6.754a19.892 19.892 0 0 0 10.133 3.9zm20.326-12.328l-1.771-5.737-7.979-.63-6.033 7.011 2.256 7.824 6.385.387a20.099 20.099 0 0 0 2.773-2.314 20.071 20.071 0 0 0 4.369-6.541zm-4.017-24.893l-.283 1.705a21.135 21.135 0 0 1 6.098 9.804l2.018.467a22.655 22.655 0 0 0-5.904-10.255 23.003 23.003 0 0 0-1.929-1.721zm-26.202-1.377l1.143.417a20.962 20.962 0 0 1 10.572-2.85h.002c.318 0 .635.008.951.021l.961-1.084c-.494-.033-.99-.05-1.49-.05h-.002a22.509 22.509 0 0 0-12.137 3.546zm-9.91 24.214l.969-1.182a21.046 21.046 0 0 1-.453-4.354v-.001c0-2.66.498-5.208 1.402-7.556l-.527-1.271a22.475 22.475 0 0 0-1.979 9.24v.002c0 1.761.204 3.475.588 5.122zm20.578 17.464l-1.316-2.023a21.004 21.004 0 0 1-10.246-4.066l-1.973.426a22.559 22.559 0 0 0 13.535 5.663zm22.78-14.963l-2.393.414a21.212 21.212 0 0 1-4.424 6.463 21.494 21.494 0 0 1-2.672 2.266l.166 2.418a22.746 22.746 0 0 0 4.004-3.193 22.73 22.73 0 0 0 5.319-8.368z" fill="#fff"/></g></svg>