<svg xmlns="http://www.w3.org/2000/svg" width="2500" height="2500" viewBox="0 0 48.189 48.189"><path fill="#543b92" d="M0 0h48.189v48.189H0V0z"/><path d="M16.121 24.218a5.336 5.336 0 0 1-5.327 5.327 5.335 5.335 0 0 1-5.326-5.327 5.324 5.324 0 0 1 5.326-5.326 5.324 5.324 0 0 1 5.327 5.326z" fill="#86c19b"/><path fill="#fff" d="M17.487 26.794h1.402l1.069-5.151h-1.402l-1.069 5.151zM19.835 26.794h1.332l.368-1.77c.105-.578.421-1.051.981-1.051.386-.018.525.21.525.438 0 .192-.052.385-.087.578l-.368 1.805h1.366l.351-1.805c.088-.403.105-.543.105-.806 0-.753-.421-1.332-1.192-1.332-.701 0-1.104.298-1.489.718l.087-.631h-1.227a9.198 9.198 0 0 1-.158 1.016l-.594 2.84zM25.231 26.794h1.332l.613-2.909h.963l.21-.946h-.981l.052-.228c.087-.42.281-.613.613-.613.14 0 .28.052.42.105l.245-.911c-.28-.087-.666-.123-.998-.123-.841 0-1.402.491-1.56 1.296l-.105.473h-.806l-.21.946h.841l-.629 2.91zM31.311 24.568c0 .858-.385 1.384-.999 1.384-.456 0-.736-.35-.736-.859 0-.613.403-1.313 1.052-1.313.508 0 .683.386.683.788zm1.384 0c0-.963-.701-1.717-2.015-1.717-1.489 0-2.471.929-2.471 2.277 0 .964.578 1.752 1.997 1.752 1.438.001 2.489-.699 2.489-2.312zM33.711 22.939c-.035.351-.105.683-.175 1.016l-.596 2.839h1.332l.385-1.77c.087-.578.42-1.051.981-1.051.245 0 .438.018.613.158l.298-1.174a1.59 1.59 0 0 0-.561-.105c-.543 0-.964.438-1.191.894l.14-.806h-1.226v-.001zM36.217 26.794h1.332l.368-1.77c.105-.42.245-1.051.806-1.051.298 0 .42.14.42.386 0 .157-.035.368-.07.561l-.385 1.875h1.332l.368-1.77c.088-.42.245-1.051.789-1.051.315 0 .438.14.438.386 0 .157-.035.368-.088.561l-.385 1.875h1.331l.403-1.928c.053-.28.087-.613.087-.858 0-.858-.613-1.156-1.191-1.156-.561 0-1.051.298-1.384.788-.087-.525-.543-.788-.999-.788-.543 0-1.034.298-1.367.788l.14-.701h-1.174a17.04 17.04 0 0 1-.175 1.016l-.596 2.837zM17.627 28.861h.35c.403 0 .754-.123.754-.631 0-.525-.351-.648-.754-.648h-.35v1.279zm.263-1.086h.14c.21 0 .42.175.42.456s-.21.438-.42.438h-.14v-.894zM19.064 28.861h.753v-.193h-.49v-.367h.455v-.211h-.455v-.315h.49v-.193h-.753v1.279zM20.431 27.775h.088c.122 0 .245.052.245.21 0 .14-.123.192-.245.192h-.088v-.402zm-.263 1.086h.263v-.491h.105c.281 0 .491-.105.491-.403 0-.315-.263-.386-.543-.386h-.315v1.28h-.001zM21.307 28.861h.771v-.193h-.509v-1.086h-.262v1.279zM22.271 28.213c0 .403.228.684.631.684.42 0 .63-.281.63-.684 0-.386-.228-.648-.63-.648-.404-.001-.631.262-.631.648zm.28 0c0-.228.105-.456.351-.456.263 0 .368.228.368.456 0 .245-.105.473-.368.473-.264 0-.351-.228-.351-.473zM24.215 28.861h.263v-.508l.456-.771h-.263l-.316.543-.297-.543h-.316l.473.771v.508zM25.179 28.861h.262v-1.279h-.262v1.279zM25.81 28.861h.245v-.964l.49.964h.316v-1.279h-.246v.964l-.49-.964h-.315v1.279zM28.28 27.617a1.206 1.206 0 0 0-.386-.053c-.438 0-.701.245-.701.684 0 .438.281.648.701.648.14 0 .28-.035.42-.07v-.701h-.526v.21h.281v.333c-.053.017-.105.017-.175.017-.263 0-.438-.192-.438-.455s.175-.473.473-.473c.105 0 .228.018.333.07l.018-.21zM29.278 28.861h.264v-1.279h-.264v1.279zM29.909 28.861h.246v-.964l.491.964h.315v-1.279h-.246v.964l-.49-.964h-.316v1.279zM31.592 28.861h.262v-1.086h.368v-.193h-.998v.193h.368v1.086zM32.485 28.861h.753v-.193h-.49v-.367h.455v-.211h-.455v-.315h.49v-.193h-.753v1.279zM33.606 28.861h.754v-.193h-.491v-1.086h-.263v1.279zM34.64 28.861h.754v-.193h-.509v-1.086h-.245v1.279zM35.639 28.861h.262v-1.279h-.262v1.279zM37.286 27.617a1.166 1.166 0 0 0-.368-.053c-.438 0-.701.245-.701.684 0 .438.28.648.701.648.14 0 .28-.035.42-.07v-.701h-.526v.21h.28v.333c-.052.017-.105.017-.175.017-.28 0-.438-.192-.438-.455s.158-.473.474-.473c.087 0 .228.018.315.07l.018-.21zM37.706 28.861h.753v-.193h-.49v-.367h.456v-.211h-.456v-.315h.49v-.193h-.753v1.279zM38.827 28.861h.246v-.964l.49.964h.316v-1.279h-.245v.964l-.491-.964h-.316v1.279zM41.193 28.633a.667.667 0 0 1-.28.052c-.281 0-.438-.192-.438-.455s.157-.473.42-.473c.105 0 .193.018.28.07l.018-.21c-.087-.053-.193-.053-.28-.053-.438 0-.718.245-.718.684 0 .438.298.648.718.648.087 0 .193-.035.298-.053l-.018-.21zM41.491 28.861h.771v-.193h-.509v-.367h.456v-.211h-.456v-.315h.509v-.193h-.771v1.279z"/><path d="M6.887 26.794h2.996c1.069 0 2.12-.123 2.12-1.419 0-.526-.455-1.086-1.174-1.174v-.018c.701-.175 1.069-.561 1.069-1.262 0-.981-.876-1.261-1.77-1.261H6.887v5.134zm1.857-2.103h.543c.368 0 .736.07.736.525 0 .386-.403.525-.753.525h-.526v-1.05zm0-2.067h.543c.351 0 .684.123.684.508s-.386.49-.718.49h-.509v-.998zM12.634 21.66v5.134h1.98V21.66h-1.98z"/></svg>