<svg xmlns="http://www.w3.org/2000/svg" width="2500" height="2500" viewBox="0 0 192.756 192.756"><g fill-rule="evenodd" clip-rule="evenodd"><path fill="#fff" d="M0 0h192.756v192.756H0V0z"/><path d="M146.752 56.126c.807-.056 1.641-.111 2.475-.167.5.723 1.14 1.501 1.501 2.363.278.723.306 1.446.362 2.224l.194 2.28-2.169 1.057c-.973.445-2.002.723-2.975 1.057a24.303 24.303 0 0 1-.807 3.476c-.306.806-.611 1.584-1.001 2.363-.306.583-.611 1.14-1.001 1.696l-.807 1.057c-.472.5-.944.973-1.501 1.418l-1.195.778-.667.333-.724.25-.723.222-.778.139-.778.056h-.807l-.806-.083-.779-.167-.973-.25-.861-.306-.835-.361-.778-.417-.723-.501-.667-.556-.584-.667-.501-.723-.361-.75-.277-.806-.111-.584-.862-.028c-.89-.083-1.863-.278-2.586-.834-.694 1.362-1.307 2.78-2.112 4.115a55.287 55.287 0 0 1-1.529 2.252h-1.474l-.473.167c-.417-.083-.778-.195-1.196-.223-.723-.027-1.445-.027-2.168-.056l-2.753-.055c-.5.222-1.028.389-1.585.556a17.52 17.52 0 0 1-3.364.5c-.417 0-.806-.027-1.195-.055l1.585 2.613a10.275 10.275 0 0 1 1.307 4.226c.084 1.474-.111 2.892-.444 4.31a17.998 17.998 0 0 1-.778 2.141 17.042 17.042 0 0 1-1.057 1.975c-.445.611-.862 1.195-1.363 1.779-.5.556-1 1.057-1.557 1.584a27.03 27.03 0 0 1-1.779 1.334c-.639.418-1.279.751-1.946 1.085-.694.306-1.362.583-2.085.806l-1.474.361c-.778.111-1.529.195-2.308.223a21.825 21.825 0 0 1-7.257-1.501c-.556-.25-1.084-.528-1.64-.807a17.126 17.126 0 0 1-2.419-1.807c-.417-.445-.834-.862-1.223-1.334a17.174 17.174 0 0 1-1.585-2.558c-.667-1.418-1.835-2.475-2.169-4.004-1.529-9.009 5.978-16.015-2.085 1.14a21.613 21.613 0 0 1-1.251 2.085c-.5.639-1.001 1.223-1.557 1.807a22.547 22.547 0 0 1-1.751 1.474c-.64.417-1.251.807-1.918 1.195-.667.306-1.334.612-2.03.89a24.89 24.89 0 0 1-2.808.807c-.723.139-1.418.25-2.141.361l-1.446.111c-1.974.084-3.976.027-5.922-.361a14.06 14.06 0 0 1-3.142-1.112c-.918-.5-1.752-1.084-2.586-1.751-2.225-1.863-4.031-4.254-5.366-6.84-.611-1.168-1.028-2.391-1.39-3.67a52.896 52.896 0 0 1-.667-3.031c-.306-1.557-.445-3.03-.25-4.643.139-1.196.417-2.391.64-3.586 1.946 0 3.893.028 5.811-.056l.445-.028 3.252-4.17.695-1.057 2.197-3.392c-.278-.083-.557-.167-.834-.222-.778-.223-1.584-.612-2.168-1.168a3.46 3.46 0 0 1-.778-1.029l-.89-1.807c.695-1.001 1.362-2.03 2.113-2.975a24.576 24.576 0 0 1 2.809-2.836l2.697-1.891a29.532 29.532 0 0 1 3.42-1.613l4.087-1.223.806-.195c2.336-.055 4.643-.194 6.979.139.528.111 1.057.222 1.585.389.723.278 1.362.584 2.058 1.001.473.334.917.695 1.362 1.112.417.445.778.89 1.14 1.362.473.695.862 1.39 1.251 2.141.222.472.417.945.639 1.417.139-.222.306-.445.5-.639a9.132 9.132 0 0 1 1.362-1.168 11.685 11.685 0 0 1 1.641-.862l1.251-.417 1.278-.223 1.251-.027 1.196.194 1.14.361 1.028.612.473.361.445.417.389.473.362.528.278.528.195.584h.028a11.888 11.888 0 0 1 2.196-.695c.584-.111 1.14-.195 1.752-.223.64-.028 1.223 0 1.862.083l1.252.25c.639.195 1.223.445 1.834.751l1.141.75.75.667c.334-.612.751-1.057 1.224-1.613a32.612 32.612 0 0 0 1.724-.723c1.641-.779 3.281-1.752 4.449-3.17l1.084-1.39h1.501l1.585-.389c.557.556 1.251 1.168 1.724 1.835.39.556.668 1.224.974 1.808-.528 1.14-1.057 2.224-1.585 3.336l.083.028.111.25c1.057-.056 2.113-.111 3.142-.167l4.921-.361.529.223c.472-.223.945-.362 1.445-.501.5-.083.945-.111 1.445-.111l1.057.195 1.001.417.89.611c.361.361.695.723 1.029 1.112l.083.167c.445-.39.89-.723 1.335-1.085l.89-.583c.611-.195 1.195-.362 1.779-.612s1.14-.417 1.807-.445h1.446l.194.195c.945-.223 1.891-.417 2.836-.64 1.275-.274 2.554-.552 3.833-.663z" fill="#fff22d"/><path d="M72.993 86.338c-2.836 6.534-10.231 8.229-16.793 7.396-3.864-.5-6.645-3.448-8.619-6.506-.667-1.001-1.001-1.501-1.529-2.808-.445 0-1.835-.306-1.863-.306-8.369-1.891-14.597-2.058-21.686-7.34-1.335-1.001-1.224-1.112-1.78-1.779.278-.056 1.585.584 1.78.667 7.896 2.781 14.541 4.449 22.854 5.227-.445-1.946-.973-3.419-.556-5.394 1.112 0 2.224 0 3.336-.056-.306 2.058-.389 3.754.278 5.728 6.117 0 12.873 1.112 19.24 1.056.5-.862.583-.75 1.029-2.446.973-3.67 1.362-9.593-3.281-10.538a3.085 3.085 0 0 0-.389-.5l1.001-3.169.389-.39c2.947-.361 5.95-3.419 6.45-6.284 0-4.031-3.42-3.892-6.45-3.753-4.449 1.14-5.672 2.057-9.092 5.477-.945 0-.945 0-3.059-.556-.556-.278-.556-.278-.667-.5 3.002-4.504 7.451-6.673 12.539-7.757 6.784-.195 9.147-.5 11.733 5.978 0 5.199-.194 5.728-4.087 9.62-.5.222-.917.445-1.418.667 0 .167 0 .333-.056.556 4.504 3.893 3.336 8.146 2.335 13.624 4.921-.028 5.867.139 7.618 0-.056-3.17 6.395-7.479 9.592-.584 1.89 0 3.753-.334 5.644-.528-1.112-1.78-2.752-3.865-4.087-5.644-4.06-4.254-7.006-7.562-2.892-12.428 2.669-3.197 8.063-5.811 11.788-2.058.695 1.084.891 1.668.891 2.892-1.141 2.53-1.252 3.142-4.227 2.836-2.363-.89-2.502-2.141-.723-4.115-3.059-.195-5.7 1.835-3.948 4.893 4.56 5.422 4.56 5.422 7.896 9.592.11.195 1.89 2.669 2.252 3.865l46.569-4.754c.111-.278.278-.556.445-.89 0-1.557 0-3.114-.056-4.754-.556 0-1.168-.056-1.808-.111-.723-.389-.723-.389-.945-.723-.11-1.39-.11-1.39 0-1.835.278-.39.278-.39 1.058-.89.75-.167.75-.167 1.417-.167l.834.333.724.723c.444 1.001.444 1.001.89 2.502.111 1.418.223 2.864.334 4.31 3.78.056 8.646-1.223 12.428-1.167 4.337.028 7.562-.612 10.343 3.281.278 1.001.389 2.947.556 3.503 0 11.316-13.123 12.707-21.77 13.234-.445.167-.445.167-1.835.167l-.278-.278c-1.057-8.286-1.057-8.286-1.612-11.344-.111-.39-.278-.779-.445-1.168-1.057 0-2.141.056-3.253.111l-42.622 4.032c-.139 6.145-6.423 11.622-12.566 10.871-6.646-.807-9.259-3.81-11.261-9.62-5.059-.029-7.311-.001-8.59-.001zm82.853 4.726l-.333-.167c-.557-2.669-.557-2.669-.835-5.728 0-1.39 0-2.78.057-4.226 3.614-.445 3.614-.445 14.096-1.279h2.892l1.835.834c.445.5.89 1.001 1.391 1.557 0 7.174-8.953 7.896-14.486 8.897-1.503.001-3.06.057-4.617.112zM49.889 84.697c4.727.528 10.093 1.335 15.319 1.418-.584 1.057-1.307 1.613-2.975 2.336-1.696.723-6.756 1.112-8.813 0-1.669-.918-2.753-2.28-3.531-3.754zm35.031 1.557c7.507-.306 6.256.028 14.096-.584-2.947 7.146-9.063 8.981-14.096 1.446v-.862z"/><path d="M156.545 80.295c0-.167 0-.389-.056-.612.167-.167.39-.333.612-.556.389.277.389.277.5.723a3.516 3.516 0 0 0-.5.445h-.556zm2.391-.278a2.75 2.75 0 0 0-.389-.167v-.445c.167-.167.334-.333.5-.556.445 0 .445 0 .834.334 0 .167 0 .333.056.5-.389.279-.389.279-1.001.334zm2.335-.111l-.556-.556c.166-.222.333-.445.556-.667.167 0 .334 0 .556-.056.278.278.278.278.334.945-.39.279-.39.279-.89.334zm2.391-.167c-.111-.111-.277-.222-.444-.334 0-.167 0-.333-.056-.556l.5-.5c.39 0 .39 0 .834.278l.167.501-.556.556c-.111 0-.278 0-.445.055zm2.225-.278c-.111-.111-.223-.223-.389-.333v-.39c.166-.111.333-.278.5-.445.167 0 .334 0 .556-.055.167.111.334.222.557.389l-.667.834h-.557zm-8.063-.277c-.223-.167-.223-.167-.223-.612l.5-.5c.39 0 .39 0 .834.333a5.66 5.66 0 0 1-.556.667c-.166 0-.332.056-.555.112zm10.399 0l-.334-.334c.111-.556.111-.556.334-.778h.556c.278.278.278.278.5.945-.222.167-.222.167-1.056.167zm2.39 0a2.362 2.362 0 0 0-.39-.334c.056-.389.056-.389.39-.778h.389c.278.222.557.445.862.723-.056.111-.167.223-.306.39l-.945-.001zm-10.454-.223l-.556-.557c.167-.222.333-.444.556-.667.111 0 .278 0 .445-.056.389.334.389.334.444.779-.223.222-.5.445-.778.667.001-.055-.055-.11-.111-.166zm2.224-.167c-.277-.333-.277-.333-.333-.778.167-.167.333-.39.501-.612.166 0 .333.056.556.111.111.167.223.333.39.5-.223.223-.445.5-.668.778l-.446.001zm-5.56-.39c0-.055-.056-.166-.111-.277.167-.223.333-.445.556-.723.167 0 .334 0 .557-.056-.223.667-.223.667-.557 1.056h-.445zm8.063.112a5.846 5.846 0 0 1-.667-.556c.166-.223.333-.445.556-.723h.556c.278.278.278.278.445.778a3.51 3.51 0 0 1-.445.5l-.445.001zm7.145-.112c-.223-.166-.473-.389-.751-.611 0-.111-.056-.278-.11-.445.166 0 .333.056.583.111l.667.834c0 .056-.055.111-.11.223-.056 0-.167-.056-.279-.112zm-4.921-.166c-.278-.223-.278-.223-.334-.779.111-.111.278-.222.445-.389.222.111.5.222.778.389-.111.445-.111.445-.334.667-.166.001-.333.057-.555.112zm2.391 0c-.223-.223-.444-.445-.723-.667l.444-.445h.557c.223.167.444.333.667.556-.111.167-.223.334-.39.557l-.555-.001zm-10.454-.167c-.277-.278-.277-.278-.333-.723.5-.389.5-.389.89-.389.111.111.277.223.444.333-.167.223-.333.445-.556.667-.111.001-.278.057-.445.112zm2.224-.278c-.445-.333-.445-.333-.5-.723.055-.111.11-.223.222-.334.334 0 .667 0 1.001-.056.167.223.167.223.167.667l-.445.445-.445.001zm2.391-.222a2.98 2.98 0 0 0-.444-.333c0-.111 0-.278-.056-.445.111-.111.223-.222.334-.389.723 0 .723 0 1.056.222v.445c-.222.222-.5.445-.778.667-.001-.056-.056-.112-.112-.167zm2.336-.167l-.5-.333c0-.445 0-.445.222-.778h.724c.166.111.333.278.556.444a5.863 5.863 0 0 1-.556.667h-.446zm4.615 0c-.611-.5-.611-.5-.723-.89.223.056.444.111.723.167.111.111.223.278.389.445-.11.056-.222.166-.389.278zm-2.39-.167l-.501-.334c0-.389 0-.389.223-.778h.723c.111.167.223.333.39.5-.056.167-.167.334-.278.501-.169 0-.336.056-.557.111z" fill="#fff"/><path d="M175.297 79.879c-.166-.056-.333-.167-.556-.278-.556-.667-1.168-1.334-1.779-2.058-1.446-.917-2.586-1.529-4.171-2.001-2.224 0-3.059.167-5.838.278-2.28.278-4.644.556-6.979.834-.444-.278-.444-.278-1.557-.556 0-.223-.056-.445-.111-.723 4.06-.445 8.119-1.001 12.262-1.334 4.31-.334 6.589-.306 9.563 2.836.223.723.223.723.223 2.502a5.09 5.09 0 0 1-.278.445 3.84 3.84 0 0 0-.779.055zm-21.436 13.456c-.223-.723-.223-.723-1.613-11.177-.166-.445-.333-.89-.556-1.39-.667-.667-.667-.667-1.668-1.224-.111-.445-.111-.445-.111-1.946.89-.556.89-.556 1.501-1.112.278-.556.278-.556.445-1.279v-3.893c-.056-.557-.167-1.168-.278-1.779-.167-.223-.333-.501-.5-.779-.835 0-.835 0-.89.167.611.223.611.223.834.445v.556c-.334.223-.334.223-1.168.223-.557-.39-.557-.39-.778-.778v-1.224c.333-.445.333-.445.89-.723.389 0 .834 0 1.279-.056.556.278.556.278 1.111.945.445 1.334.445 1.334.724 2.892.277 3.447.277 3.447.556 4.56.167.223.334.445.556.723.445.278.89.556 1.391.834v1.779c-1.112.834-1.112.834-1.501 1.39.11 4.06.389 8.063.667 10.009.277.723.277.723.556 1.001.945.167.945.167 3.726.055 9.147-1.084 15.903-1.612 16.766-11.065.333-.278.333-.278.89-.389.361 11.844-13.457 12.15-21.992 13.234l-.837.001zM174.479 120.741c-.25.417-.5.806-.778 1.195-.444.64-.945 1.251-1.418 1.862-.556.528-1.112 1.001-1.696 1.502-.694.5-1.39.973-2.141 1.418-.556.277-1.084.5-1.695.723-.584.194-1.141.334-1.752.417s-1.168.111-1.808.083a12.44 12.44 0 0 1-1.724-.277c-.584-.14-1.111-.334-1.668-.557a17.472 17.472 0 0 1-1.752-.917c-.027.194-.027.417-.055.611a7.273 7.273 0 0 1-.612 2.002 7.583 7.583 0 0 1-.723 1.112 8.682 8.682 0 0 1-.945.807l-2.336 1.028c-.667.167-1.334.306-2.001.473l-.64.167c-.584 0-1.196 0-1.779-.028-1.085-.056-1.919-.25-2.864-.806-.083-.056-.167-.14-.25-.195-.056.14-.111.25-.167.39-.361.695-.751 1.279-1.279 1.835-.778.807-1.695 1.445-2.613 2.113l-1.028.75c-.611 0-1.251 0-1.863.028-1.057.056-2.029 0-3.058-.278a6.504 6.504 0 0 1-1.808-.917 7.201 7.201 0 0 1-.861-.751c-.557-.751-1.113-1.529-1.696-2.308-.084.667-.167 1.362-.251 2.029l-.945 1.141a12.34 12.34 0 0 1-3.253 2.613l-.694.361c-.974.39-1.835.611-2.892.695-.501 0-.945-.028-1.446-.111l-.973-.278a8.753 8.753 0 0 1-1.418-.75l-.028-.028-.973.667a17.6 17.6 0 0 1-2.836 1.335c-.611.194-1.195.334-1.808.473a19.189 19.189 0 0 1-3.086.223 19.58 19.58 0 0 1-1.835-.251c-.64-.11-1.224-.277-1.808-.473a12.203 12.203 0 0 1-1.724-.778 16.403 16.403 0 0 1-1.64-1.001c-.251-.194-.473-.389-.723-.584a5.193 5.193 0 0 1-.612.974c-.528.64-1.084 1.112-1.835 1.501-.611.307-1.224.473-1.891.64h-1.251c-1.223-.083-2.336-.25-3.531-.695a10.432 10.432 0 0 1-1.084-.583 8.06 8.06 0 0 1-1.529-1.391c-.473-.611-.806-1.224-1.112-1.946.139.584.278 1.14.334 1.724l.028.584c-.139.528-.278.973-.5 1.445-.111.278-.25.557-.39.835l-1.056.89c-.362.223-.723.417-1.14.611-.834.306-1.612.445-2.53.473-1.974 0-3.948-.473-5.672-1.474l-.695-.417c-.333-.473-.667-.89-1.001-1.334-.806.834-1.779 1.501-2.697 2.224-.556.083-1.112.194-1.668.278-1.029.111-1.974.111-3.003-.111l-.695-.194c-1.028-.417-1.974-1.057-2.669-1.975-1.334.501-2.641.834-4.087.945a15.406 15.406 0 0 1-3.003-.194 28.876 28.876 0 0 1-2.669-.64l-1.529-1.001-1.112-.945-.306-.361c-.361.25-.695.473-1.112.695l-1.307.473-1.362.194-1.334-.083-2.113-.751-1.112-.751-1.501-1.751a8.815 8.815 0 0 1-1.529.945c-.417.194-.834.333-1.251.5-1.39 0-2.78.056-4.17-.167a8.615 8.615 0 0 1-1.863-.611l-.75-.501-1.501-1.835-1.863.361h-2.058l-1.334-.194-1.279-.39-1.224-.556-1.14-.695-1.001-.861c-.5-.501-.89-1.001-1.307-1.529a16.508 16.508 0 0 1-1.029-1.779c-.306-.64-.528-1.279-.75-1.974a21.479 21.479 0 0 1-.528-2.336c.027-3.364.167-6.729.389-10.065.278-4.031.612-8.034.89-12.066-.083-1.001-.361-2.029-.612-3.003-.333-1.334-.611-2.641-.723-4.031-.056-.473-.056-.973-.056-1.446.111-.472.25-.89.445-1.334.139-.361.306-.75.445-1.14l1.418-.862c.945-.5 1.807-.862 2.864-1.028l.723-.056c1.084 0 1.974.194 2.975.639 1.418.695 2.641 1.724 3.726 2.892.584.695 1.001 1.334 1.362 2.168l.445 2.253c.028.527 0 1.056 0 1.584 1.001-.75 2.03-1.362 3.197-1.807a11.061 11.061 0 0 1 2.836-.529c.5 0 1 .028 1.501.083l1.112.139c.361.307.75.584 1.112.891a8.04 8.04 0 0 1 .667-.752 10.8 10.8 0 0 1 2.335-1.667c1.974-1.029 4.115-1.612 6.339-1.89l1.529-.195c.473.361.973.723 1.446 1.112.584.473 1.001.945 1.335 1.612l.389.778a46.811 46.811 0 0 1-.167 2.781 5.465 5.465 0 0 1 1.585-.724l.557-.139.611-.056.611.027 2.03.362 1.167 2.613.333 1.251.167 1.224c.028.611 0 1.195-.083 1.807-.111.584-.25 1.112-.445 1.669-.223.5-.445.973-.723 1.474a16.994 16.994 0 0 1-1.863 2.391c-.028 0-.028.028-.056.056 1.251-.306 2.503-.528 3.809-.584.695-.027 1.334 0 2.03.056a15.73 15.73 0 0 1 2.53.528c.5.167.973.361 1.473.557 1.196.527 2.28 1.167 3.364 1.891l.779.527c.027.028.056.057.056.084l1.084-.751c2.28-1.501 5.088-2.502 7.868-2.085 0-.557.028-1.084.139-1.613.139-.834.445-1.473.862-2.168l.667-.807c.389-.334.75-.611 1.167-.89a8.75 8.75 0 0 1 1.279-.556 9.015 9.015 0 0 1 1.307-.25c.445-.028.862 0 1.334.027l.89.194c.5.167.917.361 1.362.612l.834.667.361.417.333.473.278.5.223.557.139.528.111.556.084 1.668-.529.612 2.752.667 1.029.974.973 1.195.751 1.251.528 1.334.139.557.028-.139.194-.724.277-.75.334-.695.39-.695.973-1.307 1.224-1.195 1.418-1.112 1.224-.778c.806-.167 1.612-.362 2.446-.528 1.501-.278 2.947-.417 4.477-.25l.834.139a9.404 9.404 0 0 1 2.919 1.279c.556.389 1.029.778 1.502 1.251.389.444.75.89 1.084 1.362 0-1.696-.083-3.393-.334-5.061l-.194-.334-1.835-3.058.083-1.391.223-1.167.473-1.057.611-.891 1.112-1.028 1.168-.723 3.086-1.001 3.364-.361h1.557c.668.667 1.335 1.223 1.779 2.058.307.667.445 1.39.584 2.112v6.784c.361-.222.751-.444 1.112-.64 1.251-.667 2.447-1.111 3.893-1.168.361 0 .695.028 1.057.057 1.14.222 2.113.667 3.114 1.223a70.946 70.946 0 0 1 1.668-1.39c-.473-.473-.751-1.112-1.001-1.724l-.139-.584-.084-1.141c.028-.527.111-.973.223-1.501.139-.473.306-.89.501-1.335a9.602 9.602 0 0 1 1.278-1.862 9.802 9.802 0 0 1 1.391-1.251l.833-.501c.501-.25.946-.417 1.475-.556l1.334-.195h.807l.778.056.778.167.778.278.724.417.667.528.556.64.445.723.277.751.168.723.027.723-.027.667-.251 1.252-.473 1.14c-.25.501-.556.974-.89 1.418.056.083.111.167.167.223l.417-.835c.473-.917 1.001-1.724 1.557-2.558a23.577 23.577 0 0 1 1.891-2.141 23.489 23.489 0 0 1 2.196-1.862c.474-.307.945-.584 1.419-.835a11.596 11.596 0 0 1 2.057-.778 11.03 11.03 0 0 1 1.641-.277c.584 0 1.112 0 1.668.055.584.084 1.084.195 1.641.361.556.195 1.057.39 1.557.64.89.445 1.668.945 2.447 1.529l1.223 1.029.974 1.445.611 1.251.417 1.307c.14.668.25 1.308.306 1.975 0 .667 0 1.279-.083 1.946-.083.64-.223 1.195-.389 1.835l-.418 1.168c-.584 1.251-1.223 2.391-2.113 3.447.474.417.974.834 1.418 1.279l.974.945c0 .473-.056.973.027 1.445l.251 1.335c-.334.528-.668 1.084-1.029 1.64z" fill="#fff22d"/><path d="M35.697 129.885c-.167 0-.333 0-.556-.056-5.95 2.976-10.899.14-11.9-6.283 0-7.341.807-14.597 1.279-21.882-.194-2.975-1.39-5.032-1.39-8.09.056-.223.167-.445.278-.723 2.335-1.501 3.865-1.14 5.894.667 2.308 2.03 1.891 2.808 1.891 5.783-.556 5.422-.556 5.422-1.668 19.24v4.838c.361 2.558 2.085 3.837 4.504 2.447 3.197-5.228 2.446-13.068 2.446-18.99-.222-1.807-.834-3.197-.834-5.005.056-.223.167-.444.278-.723 1.724-1.474 3.503-2.252 5.783-1.919.278.223.556.473.834.751 2.697 8.063-2.196 20.686-1.223 30.278.389.556.834 1.111 1.279 1.668.111.667.111.667 0 1.112-.612.444-.612.444-1.334.723-3.671.001-5.005.168-5.561-3.836zm11.343 3.392c-.25-5.783.918-11.733.278-17.405l-.334-.334c-1.557 0-3.002.223-3.002-1.751 1.084-2.113 2.808-2.253 3.893-4.171.445-4.06.89-6.228-1.557-9.175 0-.278-.056-.557-.111-.862 1.196-2.363 5.394-3.447 7.868-3.726.724.556.724.556.89.89-.111 3.197-.946 6.784-.556 9.814.223 0 .5 0 .778.056 1.919-1.501 3.809-6.006 6.006-5.449 2.308 4.588-1.502 7.757-5.005 10.287-1.223.528-2.169.973-3.169 1.779-.806 5.144-2.002 11.845-.834 16.988.389.945.834 1.891 1.279 2.892v.723c-1.586 2.669-5.2 2.196-6.424-.556zm16.543-5.727c3.754-2.169 3.754-2.169 5.144-2.726.111 0 .223 0 .389.057 0 .945 0 1.945.056 2.946-.528 3.865-1.446 5.366-5.645 6.062-4.309 0-2.196-4.56.056-6.339zm5.144 8.229h-.723c-3.364 1.668-5.7 2.113-9.314 1.001-5.421-3.003-3.225-8.813.946-11.733 7.702-3.28 7.702-3.28 8.536-3.837 1.918-2.892-1.168-5.644-4.31-4.06.278 1.946.278 1.946.278 3.17l-.557.557-1.001.333c-5.199-.25-6.589-3.698-2.113-6.7 5.338-1.752 8.619-1.613 13.262 1.695.389.445.778.891 1.279 1.391.111.611.333 1.224.556 1.891-.111 6.562-.39 9.342-.5 13.234.75 4.143 2.224 3.337-1.167 5.895-2.837.555-4.171-.001-5.172-2.837zm12.344 2.558c-.167-.222-.333-.444-.556-.723-1.584-4.755-.056-11.928-.056-17.127-.778-1.335-1.863-1.474-2.502-3.059.111-.834.111-.834.389-1.39 1.891-1.418 5.588-2.836 7.646-1.168.111.278.278.556.445.89.444 2.225.444 2.225.667 2.391.278 0 .556-.056.834-.11 2.752-2.753 4.837-4.171 8.924-2.947 4.143 3.614 1.808 11.594 2.113 16.904.64 1.474 1.335 1.39 2.113 2.502v.557c-.723 1.418-.807 2.002-2.447 2.446-3.976 0-5.004-1.168-5.811-4.671-.111-4.171-.111-4.171 0-12.233-.111-.167-.278-.39-.445-.611-6.033 0-5.95 8.813-5.95 12.733.556 2.502 1.279 4.727 1.279 5.282-.056.223-.167.445-.278.668-1.388 1.39-4.891.64-6.365-.334zm6.923-25.662c0-2.113 0-2.113.111-2.78.528-2.614 4.894-2.753 4.894 0-.556.667-.556.667-1.724 1.724-1.251.332-1.89 1.528-3.281 1.056zm16.154 21.158c-1.752-3.17.639-6.062 4.114-5.005.278.39.278.39.39.945.139 2.086 0 3.17 2.168 3.837 2.613 0 5.311-.694 3.142-3.948-1.445-1.111-2.975-2.225-4.476-3.336-4.227-2.725-7.729-8.646-.334-13.207 3.253-.695 6.395-1.501 8.925 1.391 4.727 5.422-3.837 8.258-5.227 4.421-.528-1.419 3.058-3.448.11-3.837-3.613-.501-4.17 1.946-2.363 4.281 2.447 1.724 4.894 2.669 6.812 4.949 3.059 3.614 3.92 6.756.611 11.01-4.335 3.253-10.341 2.809-13.872-1.501zm26.914-11.622c-2.836-1.278 1.251-6.479 3.447-5.728 3.058 1.001-.556 7.035-3.447 5.728zm-9.593 13.012v-1.111c.334-.612.724-1.279 1.112-1.946.334-1.279.723-2.559 1.112-3.893.111-6.45 1.307-14.819.167-21.048-.612-1-1.224-2.001-1.835-3.058 0-3.086 4.81-3.67 7.201-3.67.277.277.277.277.5 1.334 0 4.448 0 8.897-.056 13.374.223-.056.445-.111.667-.223 1.168-1.195 2.336-2.419 3.504-3.643 1.529-.807 3.253-2.196 5.115-1.557 6.2 2.141 3.309 8.146.945 12.095-.667.389-1.278 1.111-2.113 1.779 0 .277.057.556.111.834 1.669 3.336 1.669 3.336 1.891 3.559h1.001c.945-.39 2.086-1.14 2.697.056 0 2.919-1.224 3.559-3.531 5.227-1.474 0-2.975.334-4.171-.834a406.414 406.414 0 0 0-4.448-6.005c-.556-.89-1.111-1.835-1.668-2.78-.222 0-.444 0-.723-.056-.223 7.229-.223 7.229-.5 9.342-1.418 1.779-4.726 4.143-6.978 2.224zm25.635-8.508c0-3.726-.056-7.451-.111-11.232-.277-1.862-.277-1.862-.556-2.696-1.558-1.224-1.558-1.224-1.946-1.779 0-.39.056-.835.111-1.279 1.807-1.529 4.337-3.726 6.895-2.447l.834 1.168c.223 1.168.223 1.168.334 3.67 0 3.837-.223 7.729.278 11.539.056.11.167.277.278.444 1.001.557 1.668 1.112 1.945 1.502 0 3.225-1.918 2.919-4.615 3.67-2.558-.002-2.919.054-3.447-2.56zm.111-21.77c-3.336-.89-.751-5.645 1.946-6.033 6.145-.834 2.392 7.201-1.946 6.033zm15.319 6.729c-.111-.111-.111-.111-.111-1.668.306-2.753-.056-8.286 4.115-6.896.556.723.556.723.89 1.501 0 2.475-.64 4.477-2.613 6.117-.945.556-.945.556-1.446 1.001-.279 0-.557 0-.835-.055zm-5.449 9.814c-3.447-5.978-1.835-14.264 2.725-18.99 3.837-4.003 7.368-4.337 11.622-.611 3.447 4.56.611 10.26-3.893 12.929-4.171 1.668-4.171 1.668-5.172 2.225-.055.11-.167.222-.277.333 0 2.976.139 4.087 3.503 3.726.334-.166.723-.333 1.112-.556 1.111-1.391 2.224-2.502 3.059-3.614.11-.056.222-.167.389-.278h1.001c.389.334.778.668 1.195 1.057 0 .278.056.557.111.834-1.14 1.779-1.14 1.779-2.252 3.17-4.838 4.613-8.258 3.835-13.123-.225z" fill="#cc2229"/><path d="M87.831 85.092c0-.055-.056-.111-.111-.222 18.211-1.307 37.757-2.78 55.912-4.81.445 0 .891 0 1.391.056-.167.222-.167.222-.557.389l-47.543 4.199c-3.004.11-6.006.221-9.092.388z"/><path d="M46.376 81.812c-9.203-.528-15.597-2.419-23.104-5.061 6.256 4.504 19.323 6.506 21.965 6.867 6.756.945 14.708 2.225 21.714 2.197 27.858.945 55.439-2.947 83.159-5.421a.78.78 0 0 1 .167-.223c-.167-.167-.167-.167-.89-.389-.167-1.39-.139-.945-.084-2.28.807-.278.807-.278.862-.501-.223-.056-.444-.056-.667-.056l-42.455 4.115c-7.869.89-15.848 1.307-23.716 1.835-12.484.334-24.523-.361-36.951-1.083z" fill="#fff"/><path d="M54.912 83.646v-.445c12.428 1.029 25.217 1.029 37.646.056l52.464-4.56c-.056.445-.056.445-.278.611-29.917 2.614-59.666 7.452-89.832 4.338z"/><path d="M89.221 81.95c-.139.028-.25.056-.25.083-1.307 0-2.335.167-4.282.25.361-.889 1.029-1.334 2.308-1.501 1.056.167 1.362.584 2.224 1.168zM50.756 77.255l.167-.668c1.448-1.895 2.953-3.788 4.457-5.738 4.457-6.796 4.457-6.796 6.685-10.417 1.114-2.228 1.114-2.228 1.448-2.674 1.449-.223 1.449-.223 5.181-.334l.167.167c-4.401 6.574-4.68 7.298-5.794 8.969-2.507 5.292-2.674 5.404-3.788 7.911-.278.501-.557 1.003-.835 1.56-1.17.111-2.34.279-3.51.446-2.953.723-2.953.723-4.178.778zM134.459 73.42c-8.126-1.876-2.709-9.168 1.667-12.085 1.875-.625 1.875-.834 2.292-.834.416.417.833 1.042 1.25 1.459 0 .208-1.667 1.25-3.542 2.917-1.251 2.292-2.709 5.209.208 6.25 3.751 1.25 5.418-8.334 4.584-10.417.208 0 .208-.209.417-.209 4.792-1.042 4.792-1.042 6.251-1.25.208.417.208.417.208 1.875-.833.417-1.667.625-4.792 1.667 0 4.584-2.709 11.877-8.543 10.627zm-16.461-.417h-3.333v-.625c1.458-3.125 2.083-5.834 2.917-9.167-1.042 0-1.042 0-1.459-.208l.625-1.25c2.292-.208 4.376-.417 6.668-.417 0 .625 0 1.25.208 1.875h.417c2.5-1.875 4.584-4.167 6.459-.833 0 2.5-1.042 4.167-3.542 5.209-2.709 0-1.25-1.458-2.501-2.5-.625 0-.625 0-1.25.208-.416.417-.833.625-1.25 1.042-1.25 2.083-2.083 4.792-3.542 6.667l-.417-.001zm-13.126.417c-3.334-1.876 0-6.459.417-9.585h-1.459c0-.208 0-.208-.208-.208.416-.625.833-1.25 1.042-1.667 1.666-.208 1.666-.208 1.875-.417.625-1.667.625-1.667.833-2.083 2.5-1.042 5.417-2.5 6.876-4.792h.625l.208.209c-2.292 4.583-2.292 4.792-2.708 5.417v.833c.833 0 1.875 0 2.708.208.209.208.209.208 0 1.042 0 .208-.208.417-.208.625-3.334.208-3.334.208-3.542.417-1.042 2.292-2.084 4.167-1.667 6.875.208 0 .417 0 .834.208 1.041-.208 1.041-.208 1.875-.625 0 .833.208 1.458.208 2.292-2.083 1.251-5.209 1.876-7.709 1.251zM85.286 61.335c-3.531.333-3.281-3.059-.778-4.504 4.754-2.752 8.313 1.668 4.17 3.892-.723.417-1.724.445-3.392.612zm-4.448 13.234c-2.225.055-3.67-.306-3.448-2.836 1.112-2.947 1.112-2.947 2.447-5.895-.223-.056-.556-.111-.89-.223v-.444c.667-.89 1.223-1.78 1.891-2.725 2.141 0 4.115.362 6.395.278 0 .056.056.111.111.223-1.585 2.53-2.586 4.838-3.837 7.507 0 .39-.056.834-.111 1.279 1.279.639 2.447-.445 3.67-.556.056.5.111 1 .223 1.501-.056.112-.167.278-.278.445-.445.222-.945.445-1.445.723-3.616.723-3.616.723-4.728.723z"/><path d="M51.74 47.166h89.275c26.886 0 48.906 21.993 48.906 48.906v.611c0 26.887-22.021 48.906-48.906 48.906H51.74c-26.885 0-48.905-22.02-48.905-48.906v-.611c0-26.913 22.02-48.906 48.905-48.906zm.918.251h87.412c26.33 0 47.877 21.881 47.877 48.656v.611c0 26.747-21.547 48.629-47.877 48.629H52.658c-26.302 0-47.85-21.882-47.85-48.629v-.611c.001-26.775 21.548-48.656 47.85-48.656z"/><path d="M45.49 81.129l.722 3.309 3.698.25-1.362-3.253-3.058-.306zM82.217 82.337a20.907 20.907 0 0 0-.64 3.809l3.309.028c-.139-1.195 0-2.475.306-3.642l-2.975-.195z"/></g></svg>