<svg xmlns="http://www.w3.org/2000/svg" width="2500" height="2500" viewBox="0 0 192.756 192.756"><g fill-rule="evenodd" clip-rule="evenodd"><path fill="#fff" d="M0 0h192.756v192.756H0V0z"/><path d="M92.774 29.311l-1.526-8.655a7.659 7.659 0 0 0-.71 3.234c0 2.12.855 4.038 2.236 5.421z" fill="#0097d5"/><path d="M94.388 30.544l-2.046-11.602a7.626 7.626 0 0 0-1.13 1.793l1.501 8.513a7.54 7.54 0 0 0 1.675 1.296z" fill="#1a9dd8"/><path d="M95.898 31.196l-2.362-13.393c-.455.348-.87.747-1.236 1.189l2.033 11.521a7.466 7.466 0 0 0 1.565.683z" fill="#38a1da"/><path d="M97.344 31.486l-2.548-14.464c-.463.227-.9.501-1.304.815l2.353 13.342c.481.153.983.256 1.499.307z" fill="#4ca5db"/><path d="M98.742 31.496l-2.639-14.969c-.472.13-.926.305-1.356.52l2.546 14.434a7.6 7.6 0 0 0 1.449.015z" fill="#5dacde"/><path d="M100.096 31.253l-2.639-14.968a7.438 7.438 0 0 0-1.403.254l2.637 14.96c.483-.037.952-.12 1.405-.246z" fill="#6cb2e0"/><path d="M101.402 30.755l-2.549-14.459a7.602 7.602 0 0 0-1.447-.007l2.641 14.977a7.283 7.283 0 0 0 1.355-.511z" fill="#7ab6e2"/><path d="M102.66 29.974l-2.359-13.385a7.417 7.417 0 0 0-1.498-.297l2.555 14.487c.46-.224.898-.495 1.302-.805z" fill="#89bee6"/><path d="M103.855 28.832l-2.043-11.587a7.508 7.508 0 0 0-1.566-.672l2.371 13.436a7.62 7.62 0 0 0 1.238-1.177z" fill="#96c4e7"/><path d="M104.947 27.112l-1.521-8.632a7.656 7.656 0 0 0-1.67-1.267l2.057 11.668a7.602 7.602 0 0 0 1.134-1.769z" fill="#a6cdec"/><path d="M103.365 18.42l1.545 8.772c.477-.999.742-2.12.742-3.302a7.65 7.65 0 0 0-2.287-5.47z" fill="#b4d3ed"/><path d="M118.727 35.008l-1.525-8.645a7.68 7.68 0 0 0-.707 3.229 7.644 7.644 0 0 0 2.232 5.416z" fill="#0097d5"/><path d="M120.34 36.242l-2.045-11.597a7.734 7.734 0 0 0-1.131 1.796l1.5 8.503a7.532 7.532 0 0 0 1.676 1.298z" fill="#1a9dd8"/><path d="M121.852 36.896l-2.361-13.391a7.649 7.649 0 0 0-1.236 1.19l2.031 11.517a7.448 7.448 0 0 0 1.566.684z" fill="#38a1da"/><path d="M123.299 37.187l-2.551-14.462a7.46 7.46 0 0 0-1.301.815l2.352 13.34c.48.151.982.256 1.5.307z" fill="#4ca5db"/><path d="M124.697 37.197l-2.639-14.969c-.473.13-.926.305-1.355.519l2.545 14.435a7.637 7.637 0 0 0 1.449.015z" fill="#5dacde"/><path d="M126.051 36.955l-2.639-14.968c-.48.041-.951.127-1.402.254l2.639 14.96a8.67 8.67 0 0 0 .402-.043l.617-.108c.129-.029.256-.061.383-.095z" fill="#6cb2e0"/><path d="M127.359 36.457l-2.549-14.46a7.603 7.603 0 0 0-1.447-.006l2.641 14.977a7.426 7.426 0 0 0 1.355-.511z" fill="#7ab6e2"/><path d="M128.617 35.674l-2.359-13.384a7.487 7.487 0 0 0-1.498-.298l2.555 14.487a7.434 7.434 0 0 0 1.302-.805z" fill="#89bee6"/><path d="M129.814 34.531l-2.045-11.585a7.575 7.575 0 0 0-1.562-.672l2.367 13.434a7.673 7.673 0 0 0 1.24-1.177z" fill="#96c4e7"/><path d="M130.906 32.81l-1.521-8.626a7.582 7.582 0 0 0-1.67-1.268l2.057 11.665a7.635 7.635 0 0 0 1.134-1.771z" fill="#a6cdec"/><path d="M129.324 24.124l1.545 8.765a7.656 7.656 0 0 0 .742-3.298 7.643 7.643 0 0 0-2.287-5.467z" fill="#b4d3ed"/><path d="M140.521 49.309l-1.523-8.643a7.679 7.679 0 0 0-.707 3.228c0 2.117.854 4.032 2.23 5.415z" fill="#0097d5"/><path d="M142.135 50.544L140.09 38.95a7.712 7.712 0 0 0-1.129 1.797l1.498 8.498a7.582 7.582 0 0 0 1.676 1.299z" fill="#1a9dd8"/><path d="M143.646 51.198l-2.361-13.389A7.695 7.695 0 0 0 140.049 39l2.029 11.513c.49.286 1.016.516 1.568.685z" fill="#38a1da"/><path d="M145.094 51.489l-2.551-14.461a7.62 7.62 0 0 0-1.303.816l2.352 13.338c.482.151.984.256 1.502.307z" fill="#4ca5db"/><path d="M146.49 51.5l-2.639-14.968c-.471.13-.926.306-1.355.521l2.545 14.432a7.704 7.704 0 0 0 1.449.015z" fill="#5dacde"/><path d="M147.844 51.259l-2.639-14.969a7.443 7.443 0 0 0-1.402.255l2.639 14.958c.17-.013.336-.032.504-.057l.432-.076c.155-.032.311-.069.466-.111z" fill="#6cb2e0"/><path d="M149.152 50.761l-2.55-14.461a7.491 7.491 0 0 0-1.447-.006l2.641 14.978a7.464 7.464 0 0 0 1.356-.511z" fill="#7ab6e2"/><path d="M150.41 49.98l-2.361-13.389a7.415 7.415 0 0 0-1.498-.296l2.555 14.49a7.45 7.45 0 0 0 1.304-.805z" fill="#89bee6"/><path d="M151.604 48.839l-2.043-11.593a7.505 7.505 0 0 0-1.566-.671l2.371 13.439c.454-.343.87-.738 1.238-1.175z" fill="#96c4e7"/><path d="M152.697 47.123l-1.523-8.644a7.62 7.62 0 0 0-1.67-1.266l2.059 11.676a7.583 7.583 0 0 0 1.134-1.766z" fill="#a6cdec"/><path d="M153.303 42.636l-.035-.197a7.641 7.641 0 0 0-2.154-4.02l1.547 8.783a7.64 7.64 0 0 0 .746-3.308 8.028 8.028 0 0 0-.104-1.258z" fill="#b4d3ed"/><path d="M156.578 71.217l-1.525-8.651a7.639 7.639 0 0 0-.711 3.232c0 2.119.855 4.035 2.236 5.419z" fill="#0097d5"/><path d="M158.191 72.451l-2.047-11.6a7.628 7.628 0 0 0-1.129 1.794l1.498 8.507a7.647 7.647 0 0 0 1.678 1.299z" fill="#1a9dd8"/><path d="M159.701 73.103l-2.361-13.392a7.649 7.649 0 0 0-1.236 1.19l2.031 11.518a7.426 7.426 0 0 0 1.566.684z" fill="#38a1da"/><path d="M161.146 73.394l-2.549-14.462a7.558 7.558 0 0 0-1.303.816l2.352 13.34c.483.15.985.254 1.5.306z" fill="#4ca5db"/><path d="M162.547 73.403l-2.641-14.968a7.435 7.435 0 0 0-1.355.519l2.545 14.434a7.647 7.647 0 0 0 1.451.015z" fill="#5dacde"/><path d="M163.898 73.162l-2.639-14.968a7.523 7.523 0 0 0-1.402.254l2.637 14.959a7.44 7.44 0 0 0 1.404-.245z" fill="#6cb2e0"/><path d="M165.207 72.665l-2.551-14.462a7.516 7.516 0 0 0-1.447-.005l2.641 14.977a7.574 7.574 0 0 0 1.357-.51z" fill="#7ab6e2"/><path d="M166.465 71.883l-2.359-13.387a7.462 7.462 0 0 0-1.5-.296l2.555 14.488a7.65 7.65 0 0 0 1.304-.805z" fill="#89bee6"/><path d="M167.66 70.741l-2.045-11.589a7.545 7.545 0 0 0-1.564-.672l2.369 13.438c.455-.344.871-.74 1.24-1.177z" fill="#96c4e7"/><path d="M168.752 69.023l-1.523-8.639a7.573 7.573 0 0 0-1.67-1.266l2.059 11.673a7.607 7.607 0 0 0 1.134-1.768z" fill="#a6cdec"/><path d="M167.168 60.325l1.547 8.778a7.66 7.66 0 0 0 .744-3.305 7.646 7.646 0 0 0-2.291-5.473z" fill="#b4d3ed"/><path d="M163.617 96.82l-1.525-8.649a7.655 7.655 0 0 0-.709 3.23 7.64 7.64 0 0 0 2.234 5.419z" fill="#0097d5"/><path d="M165.23 98.056l-2.047-11.6a7.714 7.714 0 0 0-1.129 1.794l1.5 8.507a7.589 7.589 0 0 0 1.676 1.299z" fill="#1a9dd8"/><path d="M166.74 98.708l-2.361-13.393a7.688 7.688 0 0 0-1.236 1.19l2.031 11.518c.49.285 1.015.515 1.566.685z" fill="#38a1da"/><path d="M168.188 98.998l-2.549-14.463c-.463.227-.9.502-1.305.816l2.354 13.339c.48.153.982.257 1.5.308z" fill="#4ca5db"/><path d="M169.586 99.008l-2.641-14.969a7.47 7.47 0 0 0-1.354.519l2.543 14.436a7.675 7.675 0 0 0 1.452.014z" fill="#5dacde"/><path d="M170.938 98.767l-2.639-14.97a7.472 7.472 0 0 0-1.402.255l2.639 14.961a7.53 7.53 0 0 0 1.402-.246z" fill="#6cb2e0"/><path d="M172.246 98.269l-2.549-14.461a7.275 7.275 0 0 0-1.449-.006l2.643 14.978c.47-.128.925-.3 1.355-.511z" fill="#7ab6e2"/><path d="M173.504 97.487L171.145 84.1a7.534 7.534 0 0 0-1.5-.297l2.555 14.489a7.51 7.51 0 0 0 1.304-.805z" fill="#89bee6"/><path d="M174.699 96.345l-2.045-11.591a7.596 7.596 0 0 0-1.564-.671l2.369 13.439c.457-.344.871-.74 1.24-1.177z" fill="#96c4e7"/><path d="M175.791 94.627l-1.523-8.64a7.616 7.616 0 0 0-1.67-1.265l2.059 11.672a7.622 7.622 0 0 0 1.134-1.767z" fill="#a6cdec"/><path d="M174.207 85.929l1.547 8.778c.477-1 .744-2.122.744-3.306a7.645 7.645 0 0 0-2.291-5.472z" fill="#b4d3ed"/><path d="M66.921 33.409l-1.525-8.647a7.658 7.658 0 0 0-.708 3.23 7.641 7.641 0 0 0 2.233 5.417z" fill="#0097d5"/><path d="M68.534 34.643l-2.045-11.597a7.634 7.634 0 0 0-1.129 1.795l1.5 8.505a7.569 7.569 0 0 0 1.674 1.297z" fill="#1a9dd8"/><path d="M70.044 35.295l-2.36-13.39a7.696 7.696 0 0 0-1.237 1.19l2.031 11.516a7.47 7.47 0 0 0 1.566.684z" fill="#38a1da"/><path d="M71.492 35.586l-2.549-14.461a7.566 7.566 0 0 0-1.304.816l2.352 13.338a7.39 7.39 0 0 0 1.501.307z" fill="#4ca5db"/><path d="M72.89 35.597l-2.64-14.968c-.472.13-.924.305-1.354.52l2.544 14.433a7.674 7.674 0 0 0 1.45.015z" fill="#5dacde"/><path d="M74.243 35.355l-2.64-14.969c-.481.041-.95.127-1.401.255L72.841 35.6c.481-.037.95-.12 1.402-.245z" fill="#6cb2e0"/><path d="M75.55 34.858l-2.549-14.462a7.543 7.543 0 0 0-1.448-.005l2.641 14.978a7.436 7.436 0 0 0 1.356-.511z" fill="#7ab6e2"/><path d="M76.808 34.077l-2.36-13.389a7.509 7.509 0 0 0-1.499-.296l2.555 14.49c.462-.224.9-.495 1.304-.805z" fill="#89bee6"/><path d="M78.004 32.935l-2.045-11.592a7.433 7.433 0 0 0-1.564-.67l2.369 13.439a7.632 7.632 0 0 0 1.24-1.177z" fill="#96c4e7"/><path d="M79.096 31.219l-1.524-8.643a7.556 7.556 0 0 0-1.669-1.265l2.058 11.675a7.659 7.659 0 0 0 1.135-1.767z" fill="#a6cdec"/><path d="M79.69 26.67l-.011-.061a7.638 7.638 0 0 0-2.169-4.092l1.549 8.782a7.68 7.68 0 0 0 .631-4.629z" fill="#b4d3ed"/><path d="M44.143 46.412l-1.525-8.649a7.66 7.66 0 0 0-.708 3.231 7.642 7.642 0 0 0 2.233 5.418z" fill="#0097d5"/><path d="M45.756 47.646l-2.044-11.599a7.638 7.638 0 0 0-1.13 1.795l1.5 8.506a7.58 7.58 0 0 0 1.674 1.298z" fill="#1a9dd8"/><path d="M47.268 48.299l-2.362-13.392a7.649 7.649 0 0 0-1.237 1.189l2.03 11.517a7.45 7.45 0 0 0 1.569.686z" fill="#38a1da"/><path d="M48.714 48.589l-2.551-14.462a7.544 7.544 0 0 0-1.302.815l2.351 13.34c.482.152.985.255 1.502.307z" fill="#4ca5db"/><path d="M50.112 48.599l-2.64-14.968c-.472.13-.924.304-1.354.519l2.544 14.434a7.637 7.637 0 0 0 1.45.015z" fill="#5dacde"/><path d="M51.464 48.357l-2.639-14.968a7.458 7.458 0 0 0-1.402.255l2.639 14.959a7.53 7.53 0 0 0 1.402-.246z" fill="#6cb2e0"/><path d="M52.772 47.86L50.223 33.4a7.568 7.568 0 0 0-1.448-.005l2.642 14.976a7.557 7.557 0 0 0 1.355-.511z" fill="#7ab6e2"/><path d="M54.031 47.078l-2.36-13.387a7.495 7.495 0 0 0-1.499-.296l2.554 14.488c.462-.224.9-.494 1.305-.805z" fill="#89bee6"/><path d="M55.225 45.937l-2.044-11.589a7.422 7.422 0 0 0-1.565-.671l2.369 13.438a7.683 7.683 0 0 0 1.24-1.178z" fill="#96c4e7"/><path d="M56.318 44.218l-1.522-8.636a7.601 7.601 0 0 0-1.67-1.267l2.058 11.671a7.628 7.628 0 0 0 1.134-1.768z" fill="#a6cdec"/><path d="M54.733 35.521l1.548 8.777c.476-1 .744-2.121.744-3.305a7.65 7.65 0 0 0-2.292-5.472z" fill="#b4d3ed"/><path d="M27.1 66.765l-1.522-8.631a7.679 7.679 0 0 0-.704 3.221c0 2.114.851 4.028 2.226 5.41z" fill="#0097d5"/><path d="M28.716 68.004l-2.044-11.59a7.656 7.656 0 0 0-1.13 1.798l1.497 8.49a7.614 7.614 0 0 0 1.677 1.302z" fill="#1a9dd8"/><path d="M30.226 68.658l-2.359-13.386c-.456.349-.871.75-1.237 1.192l2.03 11.508c.49.285 1.014.516 1.566.686z" fill="#38a1da"/><path d="M31.674 68.95l-2.549-14.461a7.586 7.586 0 0 0-1.303.817l2.352 13.335c.482.152.983.257 1.5.309z" fill="#4ca5db"/><path d="M33.073 68.96l-2.64-14.968c-.471.13-.924.305-1.354.521l2.545 14.432a7.695 7.695 0 0 0 1.449.015z" fill="#5dacde"/><path d="M34.427 68.719l-2.64-14.969c-.481.041-.95.127-1.401.255l2.637 14.959c.482-.037.952-.12 1.404-.245z" fill="#6cb2e0"/><path d="M35.735 68.222L33.186 53.76a7.507 7.507 0 0 0-1.448-.006l2.641 14.977a7.384 7.384 0 0 0 1.356-.509z" fill="#7ab6e2"/><path d="M36.994 67.44l-2.36-13.388a7.506 7.506 0 0 0-1.5-.297l2.555 14.49a7.58 7.58 0 0 0 1.305-.805z" fill="#89bee6"/><path d="M38.189 66.298l-2.043-11.59a7.508 7.508 0 0 0-1.566-.672l2.37 13.438a7.54 7.54 0 0 0 1.239-1.176z" fill="#96c4e7"/><path d="M39.283 64.579l-1.523-8.637a7.568 7.568 0 0 0-1.669-1.266l2.058 11.672a7.722 7.722 0 0 0 1.134-1.769z" fill="#a6cdec"/><path d="M37.7 55.884l1.547 8.774a7.67 7.67 0 0 0 .743-3.304 7.643 7.643 0 0 0-2.29-5.47z" fill="#b4d3ed"/><path d="M18.485 91.529l-1.523-8.634a7.666 7.666 0 0 0-.705 3.223c0 2.115.851 4.028 2.228 5.411z" fill="#0097d5"/><path d="M20.099 92.767l-2.043-11.59a7.662 7.662 0 0 0-1.13 1.799l1.497 8.49a7.545 7.545 0 0 0 1.676 1.301z" fill="#1a9dd8"/><path d="M21.61 93.421l-2.36-13.385c-.455.349-.87.749-1.236 1.191l2.029 11.508c.49.286 1.015.516 1.567.686z" fill="#38a1da"/><path d="M23.057 93.713l-2.55-14.46a7.678 7.678 0 0 0-1.302.817l2.351 13.334c.482.153.984.257 1.501.309z" fill="#4ca5db"/><path d="M24.455 93.724l-2.64-14.967c-.471.13-.924.305-1.354.52l2.545 14.43a7.468 7.468 0 0 0 1.449.017z" fill="#5dacde"/><path d="M25.808 93.483l-2.639-14.969a7.484 7.484 0 0 0-1.403.256l2.639 14.959c.165-.013.33-.032.492-.056l.459-.081c.153-.031.303-.068.452-.109z" fill="#6cb2e0"/><path d="M27.117 92.986l-2.551-14.463a7.616 7.616 0 0 0-1.446-.005l2.64 14.978a7.425 7.425 0 0 0 1.357-.51z" fill="#7ab6e2"/><path d="M28.375 92.206l-2.361-13.392a7.48 7.48 0 0 0-1.499-.295l2.554 14.491c.463-.224.9-.494 1.306-.804z" fill="#89bee6"/><path d="M29.569 91.066l-2.046-11.599a7.497 7.497 0 0 0-1.563-.669l2.37 13.443c.455-.343.87-.738 1.239-1.175z" fill="#96c4e7"/><path d="M30.663 89.352l-1.526-8.653a7.62 7.62 0 0 0-1.67-1.264l2.06 11.681a7.687 7.687 0 0 0 1.136-1.764z" fill="#a6cdec"/><path d="M31.295 85.026l-.09-.513a7.634 7.634 0 0 0-2.13-3.875l1.551 8.793a7.66 7.66 0 0 0 .669-4.405z" fill="#b4d3ed"/><path d="M19.169 118.284l-1.519-8.615a7.67 7.67 0 0 0-.7 3.212c0 2.11.848 4.021 2.219 5.403z" fill="#0097d5"/><path d="M20.785 119.526l-2.041-11.581a7.63 7.63 0 0 0-1.129 1.803l1.494 8.474c.493.509 1.057.95 1.676 1.304z" fill="#1a9dd8"/><path d="M22.297 120.183l-2.359-13.38c-.456.35-.87.75-1.236 1.192l2.028 11.5a7.47 7.47 0 0 0 1.567.688z" fill="#38a1da"/><path d="M23.746 120.476l-2.55-14.457a7.684 7.684 0 0 0-1.302.818l2.35 13.329c.481.152.984.258 1.502.31z" fill="#4ca5db"/><path d="M25.145 120.487l-2.639-14.967a7.42 7.42 0 0 0-1.354.521l2.543 14.428a7.57 7.57 0 0 0 1.45.018z" fill="#5dacde"/><path d="M26.498 120.247l-2.639-14.97a7.459 7.459 0 0 0-1.402.256l2.637 14.959c.185-.015.367-.036.547-.063l.345-.061c.173-.035.344-.075.512-.121z" fill="#6cb2e0"/><path d="M27.807 119.751l-2.55-14.465a7.728 7.728 0 0 0-.749-.038c-.235 0-.469.013-.699.033l2.641 14.979a7.394 7.394 0 0 0 1.357-.509z" fill="#7ab6e2"/><path d="M29.066 118.971l-2.362-13.395a7.555 7.555 0 0 0-1.498-.295l2.554 14.493a7.518 7.518 0 0 0 1.306-.803z" fill="#89bee6"/><path d="M30.262 117.831l-2.046-11.601a7.497 7.497 0 0 0-1.563-.669l2.37 13.443c.455-.342.87-.737 1.239-1.173z" fill="#96c4e7"/><path d="M31.355 116.117l-1.526-8.656a7.639 7.639 0 0 0-1.67-1.263l2.06 11.683a7.6 7.6 0 0 0 1.136-1.764z" fill="#a6cdec"/><path d="M31.991 111.8l-.094-.533a7.631 7.631 0 0 0-2.128-3.864l1.551 8.792a7.66 7.66 0 0 0 .671-4.395z" fill="#b4d3ed"/><path d="M28.888 142.761l-1.524-8.645a7.642 7.642 0 0 0-.708 3.228c0 2.118.854 4.033 2.232 5.417z" fill="#0097d5"/><path d="M30.501 143.995l-2.045-11.596a7.64 7.64 0 0 0-1.129 1.796l1.5 8.502a7.52 7.52 0 0 0 1.674 1.298z" fill="#1a9dd8"/><path d="M32.012 144.648l-2.36-13.39c-.455.35-.871.748-1.237 1.19l2.03 11.515c.49.286 1.015.516 1.567.685z" fill="#38a1da"/><path d="M33.458 144.939l-2.549-14.462a7.695 7.695 0 0 0-1.304.817l2.353 13.337c.481.152.983.257 1.5.308z" fill="#4ca5db"/><path d="M34.857 144.949l-2.64-14.968c-.472.13-.925.306-1.355.521l2.544 14.432a7.693 7.693 0 0 0 1.451.015z" fill="#5dacde"/><path d="M36.21 144.708l-2.64-14.968c-.48.04-.95.127-1.401.255l2.637 14.959c.142-.011.282-.026.422-.045l.586-.104a7.15 7.15 0 0 0 .396-.097z" fill="#6cb2e0"/><path d="M37.518 144.212l-2.55-14.463a7.816 7.816 0 0 0-.754-.038c-.234 0-.466.013-.694.033l2.642 14.978a7.564 7.564 0 0 0 1.356-.51z" fill="#7ab6e2"/><path d="M38.775 143.432l-2.36-13.391a7.504 7.504 0 0 0-1.5-.296l2.556 14.489a7.52 7.52 0 0 0 1.304-.802z" fill="#89bee6"/><path d="M39.971 142.289l-2.044-11.593a7.52 7.52 0 0 0-1.565-.671l2.37 13.44a7.576 7.576 0 0 0 1.239-1.176z" fill="#96c4e7"/><path d="M41.063 140.573l-1.524-8.645a7.634 7.634 0 0 0-1.669-1.265l2.058 11.677a7.626 7.626 0 0 0 1.135-1.767z" fill="#a6cdec"/><path d="M41.684 136.175l-.066-.372a7.637 7.637 0 0 0-2.14-3.935l1.549 8.784a7.672 7.672 0 0 0 .745-3.309c0-.397-.03-.786-.088-1.168z" fill="#b4d3ed"/><path d="M46.917 162.424l-1.525-8.652a7.654 7.654 0 0 0-.71 3.233 7.64 7.64 0 0 0 2.235 5.419z" fill="#0097d5"/><path d="M48.531 163.658l-2.046-11.601a7.658 7.658 0 0 0-1.13 1.793l1.501 8.511a7.551 7.551 0 0 0 1.675 1.297z" fill="#1a9dd8"/><path d="M50.041 164.311l-2.361-13.392a7.6 7.6 0 0 0-1.237 1.188l2.031 11.52c.49.284 1.016.515 1.567.684z" fill="#38a1da"/><path d="M51.487 164.601l-2.549-14.463a7.561 7.561 0 0 0-1.304.815l2.354 13.341c.48.151.982.256 1.499.307z" fill="#4ca5db"/><path d="M52.885 164.61l-2.639-14.969c-.472.13-.925.306-1.355.521l2.546 14.433a7.372 7.372 0 0 0 1.448.015z" fill="#5dacde"/><path d="M54.239 164.368l-2.64-14.968c-.481.041-.95.127-1.401.255l2.637 14.96a7.485 7.485 0 0 0 1.404-.247z" fill="#6cb2e0"/><path d="M55.546 163.871l-2.55-14.46a7.26 7.26 0 0 0-1.447-.006l2.642 14.977a7.454 7.454 0 0 0 1.355-.511z" fill="#7ab6e2"/><path d="M56.804 163.09l-2.359-13.387a7.506 7.506 0 0 0-1.5-.297l2.555 14.488a7.605 7.605 0 0 0 1.304-.804z" fill="#89bee6"/><path d="M57.999 161.948l-2.043-11.59a7.53 7.53 0 0 0-1.566-.672l2.371 13.438a7.739 7.739 0 0 0 1.238-1.176z" fill="#96c4e7"/><path d="M59.091 160.229l-1.523-8.637a7.682 7.682 0 0 0-1.669-1.267l2.058 11.672a7.607 7.607 0 0 0 1.134-1.768z" fill="#a6cdec"/><path d="M57.507 151.533l1.547 8.776c.476-1 .744-2.121.744-3.305a7.646 7.646 0 0 0-2.291-5.471z" fill="#b4d3ed"/><path d="M70.887 174.287l-1.526-8.658a7.655 7.655 0 0 0-.712 3.237c0 2.119.856 4.038 2.238 5.421z" fill="#0097d5"/><path d="M72.501 175.521l-2.046-11.605a7.609 7.609 0 0 0-1.131 1.793l1.502 8.519a7.702 7.702 0 0 0 1.675 1.293z" fill="#1a9dd8"/><path d="M74.013 176.172l-2.363-13.395c-.455.348-.87.746-1.236 1.188l2.031 11.524a7.461 7.461 0 0 0 1.568.683z" fill="#38a1da"/><path d="M75.46 176.462l-2.551-14.465c-.462.227-.898.5-1.302.813l2.353 13.345c.481.152.983.255 1.5.307z" fill="#4ca5db"/><path d="M76.857 176.471l-2.639-14.97c-.472.13-.925.305-1.356.519l2.546 14.437a7.551 7.551 0 0 0 1.449.014z" fill="#5dacde"/><path d="M78.211 176.228l-2.638-14.967c-.481.04-.951.126-1.402.253l2.638 14.962c.481-.039.95-.122 1.402-.248z" fill="#6cb2e0"/><path d="M79.52 175.729l-2.549-14.456a7.687 7.687 0 0 0-1.448-.008l2.641 14.976c.472-.128.925-.3 1.356-.512z" fill="#7ab6e2"/><path d="M80.779 174.945l-2.36-13.38a7.497 7.497 0 0 0-1.499-.298l2.553 14.484a7.495 7.495 0 0 0 1.306-.806z" fill="#89bee6"/><path d="M81.974 173.8l-2.042-11.575a7.578 7.578 0 0 0-1.564-.675l2.367 13.43c.455-.345.87-.742 1.239-1.18z" fill="#96c4e7"/><path d="M83.065 172.077l-1.518-8.612a7.58 7.58 0 0 0-1.672-1.272l2.057 11.657a7.665 7.665 0 0 0 1.133-1.773z" fill="#a6cdec"/><path d="M81.486 163.405l1.543 8.749a7.67 7.67 0 0 0 .736-3.288 7.64 7.64 0 0 0-2.279-5.461z" fill="#b4d3ed"/><path d="M56.986 96.398h1.386c4.272 0 8.891.233 8.891 5.947 0 5.713-3.926 6.295-8.487 6.295h-1.79V96.398zM48.5 115.521h13.335c7.909 0 13.913-3.847 13.913-12.476 0-4.839-2.308-10.085-7.448-11.019 2.713-1.749 3.811-5.364 3.811-8.512 0-8.744-4.964-11.952-13.046-11.952H48.5v43.959zm8.486-37.078h1.097c3.58 0 6.12 1.167 6.12 5.654 0 4.547-2.02 5.772-6.177 5.772h-1.039V78.443h-.001zM88.893 71.563h-8.486v43.958H100.9v-7.462H88.893V71.563zM103.596 115.521h8.486V71.563h-8.486v43.958zM142.727 75.294c-2.654-2.973-8.023-4.897-11.891-4.897-7.332 0-12.701 5.889-12.701 13.177 0 6.82 4.1 9.677 9.699 12.01 3.404 1.341 7.562 2.623 7.562 7.17 0 3.382-2.135 6.354-5.6 6.354-3.639 0-6.697-3.031-7.852-6.413l-5.484 5.423c3.002 5.072 7.389 8.57 13.395 8.57 8.889 0 14.314-6.239 14.314-15.042 0-14.75-17.262-11.66-17.262-19.063 0-2.857 2.6-4.955 5.312-4.955 2.828 0 4.908 1.398 6.523 3.614l3.985-5.948z" fill="#0092af"/><path fill="#0097d5" d="M53.417 120.995h3.204v-1.371h-7.834v1.371h3.169v11.883h1.461v-11.883zM63.49 129.047c.139-2.461-1.252-4.659-3.882-4.659-2.559 0-3.968 2.022-3.968 4.466 0 2.372 1.565 4.253 4.002 4.253 1.672 0 2.995-.843 3.778-2.32l-1.183-.685c-.541.983-1.306 1.704-2.49 1.704-1.584 0-2.663-1.229-2.681-2.759h6.424zm-6.354-1.196c.175-1.195 1.288-2.161 2.49-2.161 1.218 0 2.21.966 2.403 2.161h-4.893zM71.47 125.215a4.376 4.376 0 0 0-2.524-.827c-2.402 0-4.37 1.899-4.37 4.36 0 2.495 1.88 4.358 4.352 4.358.975 0 1.793-.299 2.594-.843v-1.881h-.035c-.68.896-1.498 1.423-2.664 1.423-1.705 0-2.82-1.423-2.82-3.058 0-1.653 1.202-3.059 2.889-3.059 1.097 0 1.897.562 2.542 1.388h.035v-1.861h.001zM73.672 118.376v14.502h1.392v-3.92c0-1.476.122-3.269 2.036-3.269 1.619 0 1.723 1.194 1.723 2.53v4.658h1.393v-4.903c0-1.935-.522-3.587-2.785-3.587-1.01 0-1.758.439-2.333 1.23l-.035-.035v-7.207h-1.391v.001zM84.248 124.617h-1.393v8.261h1.393v-3.92c0-1.476.122-3.269 2.037-3.269 1.618 0 1.723 1.194 1.723 2.53v4.658H89.4v-4.903c0-1.935-.521-3.587-2.785-3.587-1.009 0-1.758.439-2.332 1.23h-.034v-1h-.001zM95.606 133.106c2.384 0 4.298-1.917 4.298-4.342 0-2.426-1.896-4.377-4.298-4.377s-4.299 1.951-4.299 4.377c0 2.425 1.914 4.342 4.299 4.342zm0-7.417c1.722 0 2.908 1.388 2.908 3.059 0 1.687-1.186 3.058-2.908 3.058-1.723 0-2.907-1.371-2.907-3.058 0-1.671 1.184-3.059 2.907-3.059zM101.775 132.878h1.393v-14.502h-1.393v14.502zM109.32 133.106c2.385 0 4.301-1.917 4.301-4.342 0-2.426-1.898-4.377-4.301-4.377-2.4 0-4.299 1.951-4.299 4.377 0 2.425 1.915 4.342 4.299 4.342zm0-7.417c1.723 0 2.906 1.388 2.906 3.059 0 1.687-1.184 3.058-2.906 3.058s-2.906-1.371-2.906-3.058c0-1.671 1.184-3.059 2.906-3.059zM118.832 125.689c1.723 0 2.75 1.336 2.75 2.987 0 1.67-.939 3.129-2.732 3.129-1.74 0-2.682-1.53-2.682-3.146 0-1.547 1.045-2.97 2.664-2.97zm4.072-1.072h-1.393v1.178h-.035a3.393 3.393 0 0 0-2.785-1.407c-2.42 0-3.949 2.074-3.949 4.395 0 2.303 1.514 4.324 3.898 4.324 1.098 0 2.176-.51 2.836-1.371h.035v.985c0 1.862-.471 3.463-2.629 3.463-1.496 0-2.594-.968-2.611-2.497h-1.391c.053 2.339 1.74 3.797 4.02 3.797 1.219 0 2.402-.475 3.168-1.458.836-1.091.836-2.233.836-3.552v-7.857zM125.875 132.878h1.393v-8.262h-1.393v8.262zm.695-12.374c-.539 0-.99.456-.99 1.002a.995.995 0 0 0 .99 1.001.997.997 0 0 0 .994-1.001c0-.546-.453-1.002-.994-1.002zM137.287 129.047c.139-2.461-1.252-4.659-3.881-4.659-2.559 0-3.969 2.022-3.969 4.466 0 2.372 1.566 4.253 4.004 4.253 1.67 0 2.992-.843 3.775-2.32l-1.182-.685c-.541.983-1.307 1.704-2.49 1.704-1.584 0-2.664-1.229-2.68-2.759h6.423zm-6.353-1.196c.174-1.195 1.289-2.161 2.49-2.161 1.219 0 2.209.966 2.402 2.161h-4.892zM143.666 125.917c-.365-.86-1.236-1.529-2.176-1.529-1.324 0-2.438.949-2.438 2.338 0 2.603 3.691 1.97 3.691 3.815 0 .755-.574 1.265-1.324 1.265-.922 0-1.322-.545-1.67-1.318l-1.236.528c.436 1.3 1.514 2.091 2.889 2.091 1.514 0 2.768-1.125 2.768-2.688 0-1.389-.939-1.97-1.896-2.374-.957-.403-1.896-.685-1.896-1.44 0-.528.521-.914 1.01-.914.504 0 .922.403 1.113.843l1.165-.617zM52.792 137.156h-.886v8.038h3.083v-.833h-2.197v-7.205zM55.884 145.194h.887v-8.038h-.887v8.038zM57.799 145.194h.908l1.024-5.438h.02l2.556 5.767 2.565-5.767h.021l1.024 5.438h.907l-1.615-8.497-2.902 6.747-2.893-6.747-1.615 8.497zM67.851 145.194h.886v-8.038h-.886v8.038zM72.458 137.986H74.4v-.83h-4.75v.83h1.921v7.208h.887v-7.208zM75.302 145.194h4.128v-.833h-3.241v-3.155h3.145v-.83h-3.145v-2.39h3.241v-.83h-4.128v8.038zM80.934 145.194h1.479c1.246 0 2.195-.162 3.145-1.014.877-.789 1.299-1.823 1.299-2.996 0-1.193-.412-2.271-1.32-3.059-.939-.811-1.911-.97-3.103-.97h-1.499v8.039h-.001zm.887-.833v-6.375h.644c.939 0 1.742.129 2.471.779.686.607 1.034 1.492 1.034 2.409 0 .895-.337 1.736-.992 2.355-.729.692-1.541.831-2.513.831h-.644v.001z"/></g></svg>