<svg xmlns="http://www.w3.org/2000/svg" width="2500" height="2500" viewBox="0 0 192.756 192.756"><g fill-rule="evenodd" clip-rule="evenodd"><path fill="#fff" d="M0 0h192.756v192.756H0V0z"/><path d="M176.938 77.828l7.314 5.088v26.818l-7.314 5.194H15.924l-7.42-5.088V82.916l7.42-5.088h161.014z"/><path fill="#fff" d="M176.514 79.312l6.254 4.346v25.44l-6.254 4.345H16.242l-6.254-4.451V83.764l6.254-4.452h160.272z"/><path d="M171.037 111.113a3.357 3.357 0 0 0 3.357-3.357V85.002a3.357 3.357 0 0 0-3.357-3.358H21.508a3.357 3.357 0 0 0-3.358 3.358v22.754a3.357 3.357 0 0 0 3.358 3.357h149.529z"/><path fill="#fff" d="M124.68 86.732h11.236v4.346h-6.467v3.18h6.467v4.346h-6.467v4.029h6.467v4.346H124.68V86.732zM139.627 86.732v4.346h4.133v15.901h4.769V91.078h4.135v-4.346h-13.037zM156.162 86.732v4.346h4.135v15.901h4.769V91.078h4.133v-4.346h-13.037zM41.046 86.732h4.77v15.901h6.254v4.346H41.046V86.732zM86.838 106.99c5.567 0 10.081-4.568 10.081-10.135 0-5.568-4.514-10.134-10.081-10.134H78.57v20.257l8.268.012z"/><path d="M86.308 102.611c3.208 0 5.809-2.549 5.809-5.756 0-3.208-2.601-5.756-5.809-5.756H83.34v11.534l2.968-.022z"/><path d="M64.472 107.311c5.774 0 10.456-4.682 10.456-10.455 0-5.775-4.682-10.457-10.456-10.457s-10.456 4.682-10.456 10.457c0 5.773 4.682 10.455 10.456 10.455z" fill="#fff"/><path d="M64.472 102.59a5.734 5.734 0 1 0 0-11.469 5.734 5.734 0 0 0 0 11.469z"/><path d="M115.352 99.875a5.734 5.734 0 1 1-.445-6.659l5.41-.011c-1.453-4.03-5.311-6.806-9.84-6.806-5.775 0-10.457 4.682-10.457 10.457 0 5.773 4.682 10.455 10.457 10.455 5.773 0 10.455-4.682 10.455-10.455 0-.373-.02-.742-.057-1.104h-11.672v4.125l6.149-.002zM23.344 86.732v20.247h7.367c2.385 0 7.102-1.379 7.049-6.201 0-1.75-.424-3.18-3.339-4.611 1.06-.848 2.173-2.12 2.173-4.558 0-2.438-1.378-4.876-4.452-4.876h-8.798v-.001z" fill="#fff"/><path d="M30.393 94.264c.869 0 1.574-.686 1.574-1.596s-.705-1.596-1.574-1.596h-2.279v3.186l2.279.006zM30.473 102.643c1.014 0 2.208-.906 2.208-2.023 0-1.119-.822-2.025-1.837-2.025h-2.729v4.039l2.358.009z"/></g></svg>