<svg height="-698" viewBox="20.5 268.6 600 106.7" width="2500" xmlns="http://www.w3.org/2000/svg"><path d="m322 334.2c-2 .7-4.3 1.2-6.5 1.2l18.6 23.7h-12.1l-22-29.4h-.2v29.3h-9.7v-63.5h20.6c6.3 0 13.1.9 17.7 5.3 4.2 3.8 6.1 9.5 6.1 15 .1 8.7-3.8 15.4-12.5 18.4m-11.9-30.1h-10.3v24.3h6.7c8.6 0 18.4-2.3 18.4-12.4 0-8.2-7-11.9-14.8-11.9m31.7 54.9v-63.4h35.9v8.5h-26.2v18.7h26.2v8.4h-26.2v19.3h26.2v8.5zm106.9 0v-53.6h-.3l-22.4 53.6h-5.9l-22.5-53.6h-.1v53.6h-9.8v-63.4h15.3l20 48.6 20.1-48.6h15.3v63.4zm20.4 0v-63.4h36v8.5h-26.2v18.7h26.2v8.4h-26.2v19.3h26.2v8.5zm92.3-9.2c-7.3 6.9-16 9.2-26 9.2h-21.3v-63.5h21.6c10.7 0 20.8 3.1 27.2 11.7 4.3 5.7 6.8 13.1 6.8 20.2.1 7.4-2.7 17.1-8.3 22.4m-3.3-32c-4-9.2-12.2-13.7-22.4-13.7h-11.8v46.5h11.6c15.1 0 24.6-8.4 24.6-23.1 0-3.3-.8-6.6-2-9.7m41.9 18.3v22.9h-9.8v-22.9l-20.7-40.5h10.9l14.7 29.7 14.6-29.7h10.8z" fill="#c8c9ca"/><path d="m123.1 355.2h-13v-67.7h13v25c2.1-2.5 6.7-4.9 11.7-4.9 13.5 0 21.1 11.1 21.1 24.4s-7.6 24.3-21.1 24.3c-5 0-9.6-2.4-11.7-4.9zm0-15.6c1.5 3.2 4.9 5.4 8.8 5.4 7 0 11.1-5.6 11.1-13 0-7.5-4.2-13.1-11.1-13.1-3.7 0-7.3 2.3-8.8 5.4zm89.4-32c9.6 0 15.3 6.7 15.3 17.2v30.4h-12.9v-27.7c0-5-2.2-8.3-6.7-8.3-3.3 0-6.4 2.1-7.2 6.1v30h-13v-27.7c0-5-2.1-8.3-6.5-8.3-3.3 0-6.5 2.1-7.3 6.1v30h-12.9v-46.6h12.9v3.9c2.3-2.9 6.6-4.9 11.8-4.9 5.5 0 9.9 2.5 12.5 5.9 3-3.5 7.5-6.1 14-6.1m42.9 0c11.7 0 19.1 6.9 20.4 16.8h-12.7c-.7-3.5-3.5-5.7-7.7-5.7-5.9 0-9.6 5.4-9.6 13.3 0 7.8 3.6 13.2 9.6 13.2 4.2 0 7-2.2 7.7-5.7h12.7c-1.3 10-8.7 16.8-20.4 16.8-13.2 0-22.4-9.9-22.4-24.3 0-14.5 9.2-24.4 22.4-24.4" fill="#434142"/><path d="m29.3 375.3c-4.4 0-8.8-3.4-8.8-9.8v-15.1c0-6 3.9-12.8 9-15.9l21.1-12.5-21.1-12.5c-5.1-3.1-9-9.9-9-15.8v-15.3c0-6.5 4.4-9.8 8.8-9.8 1.9 0 3.8.6 5.6 1.7l47.7 28.4c3.3 2 5.2 5 5.2 8.3s-1.9 6.4-5.2 8.3l-11.4 6.8 11.4 6.8c3.3 2 5.2 5 5.2 8.3s-1.9 6.4-5.2 8.3l-47.7 28.3c-1.9.9-3.8 1.5-5.6 1.5m31.6-47.3-26 15.4c-2 1.2-3.9 4.6-3.9 6.9v13.5l45.1-26.8zm-29.9-48.1v13.6c0 2.3 1.9 5.7 3.9 6.9l26 15.4 15.2-9z" fill="#e84908"/></svg>