<svg xmlns="http://www.w3.org/2000/svg" width="2500" height="768" viewBox="0 0 64.575 19.83"><path d="M0 17.299h2.021v.643h-.645v1.822H.644v-1.822H0zM2.332 19.764v-2.465h.732v.821h.688v-.821h.711v2.465h-.711v-.955h-.688v.955zM4.93 19.764v-2.465h1.799v.555H5.64v.355h.933v.578H5.64v.399h1.133v.578zM8.149 17.299h.733v1.465c-.004.244.039.453.333.444.267.008.344-.176.333-.444v-1.465h.733v1.377c.005.798-.325 1.144-1.066 1.154-.682-.011-1.064-.302-1.066-1.154v-1.377zM10.726 19.764v-2.465h.732v1.887h1v.578zM12.369 17.299h2.043v.643h-.666v1.822h-.733v-1.822h-.644zM14.723 17.299h.733v2.465h-.733zM15.877 19.764v-2.465h.889l.377 1.532.399-1.532h.867v2.465h-.644v-1.155l.044-.444-.399 1.599h-.511l-.4-1.599.022.377.022.378v.844zM18.631 19.764l.799-2.465h.733l.799 2.465h-.71l-.089-.333h-.733l-.089.333z"/><path fill="#fff" d="M19.786 18.031l-.223.889h.467z"/><path d="M20.807 17.299h2.043v.643h-.666v1.822h-.711v-1.822h-.666zM23.183 19.764v-2.465h1.799v.555h-1.088v.355h.933v.578h-.933v.399h1.132v.578zM26.403 19.764v-2.465h.955c.723-.01 1.166.36 1.177 1.177-.011.923-.476 1.279-1.177 1.288h-.955z"/><path d="M27.114 19.186h.155c.343-.007.528-.206.533-.666-.005-.519-.156-.656-.556-.667h-.133v1.333z" fill="#fff"/><path d="M29.512 18.897v.866h-.733v-2.465h1.044c.74-.01.984.213.977.688.007.288-.107.528-.355.6.224.103.365.164.355.666.01.316 0 .426.089.422v.089h-.733c-.024-.064-.042-.222-.044-.444.002-.318-.047-.424-.377-.422h-.223z"/><path d="M29.512 18.364h.288c.215-.01.335-.072.333-.244.002-.173-.122-.256-.288-.267h-.333v.511z" fill="#fff"/><path d="M31.222 17.299h.733v2.465h-.733zM32.243 17.299h.733l.399 1.621.4-1.621h.733l-.777 2.465h-.733zM34.819 17.299h.733v2.465h-.733zM37.461 18.631l-.022-.555v-.777h.689v2.465h-.667l-.799-1.355.023.555v.8h-.689v-2.465h.666zM40.704 19.764h-.466l-.022-.244c-.128.156-.328.3-.667.311-.577-.011-1.084-.418-1.088-1.288.003-.777.447-1.317 1.155-1.31.543-.007.971.3 1.066.911h-.688c-.06-.206-.192-.316-.377-.311-.289-.005-.425.283-.422.71-.003.356.096.675.466.667.144.008.332-.104.377-.267h-.333v-.533h.999v1.354zM41.88 19.764v-2.465h1.822v.555h-1.089v.355h.911v.578h-.911v.399h1.133v.578zM44.723 19.764h-.822l.8-1.288-.711-1.177h.8l.333.621.311-.621h.821l-.755 1.177.755 1.288h-.821l-.355-.711zM46.455 19.764v-2.465h1.066c.64-.01.948.315.955.821-.007.532-.291.867-.933.866h-.355v.777h-.733z"/><path d="M47.477 18.409c.176.003.299-.072.289-.289.01-.225-.224-.256-.377-.267h-.2v.556h.288z" fill="#fff"/><path d="M48.742 19.764v-2.465h1.799v.555h-1.088v.355h.933v.578h-.933v.399h1.132v.578zM51.651 18.897v.866h-.733v-2.465h1.044c.739-.01.982.213.977.688.005.288-.108.528-.377.6.244.103.386.164.377.666.009.316 0 .426.088.422v.089h-.732c-.025-.064-.043-.222-.044-.444.001-.318-.048-.424-.377-.422h-.223z"/><path d="M51.651 18.364h.267c.235-.01.355-.072.355-.244 0-.173-.123-.256-.289-.267h-.333v.511z" fill="#fff"/><path d="M53.361 17.299h.733v2.465h-.733zM54.56 19.764v-2.465h1.799v.555h-1.066v.355h.911v.578h-.911v.399h1.11v.578zM58.224 18.631l-.022-.555v-.777h.689v2.465h-.667l-.799-1.355.022.555v.8h-.688v-2.465h.688zM60.711 18.231c-.022-.257-.167-.405-.399-.4-.251-.005-.405.238-.4.71-.005.35.062.675.422.667.244.008.355-.173.377-.4h.71c-.07.627-.48 1.011-1.066 1.021-.732-.011-1.176-.511-1.177-1.31 0-.799.487-1.295 1.11-1.288.674-.007 1.053.366 1.11 1h-.687zM61.733 19.764v-2.465h1.821v.555h-1.088v.355h.91v.578h-.91v.399h1.132v.578zM63.909 19.053h.666v.711h-.666zM57.469 0a6.966 6.966 0 0 0-6.973 6.973c-.005 3.848 3.116 6.968 6.973 6.973 3.843-.004 6.964-3.125 6.973-6.973C64.433 3.121 61.312 0 57.469 0z"/><path d="M57.469.2a6.779 6.779 0 0 0-6.773 6.772 6.753 6.753 0 0 0 6.773 6.751c3.729.011 6.757-3.018 6.751-6.751A6.764 6.764 0 0 0 57.469.2z" fill="#fff"/><path d="M57.469 13.413c3.563-.001 6.453-2.891 6.462-6.462a6.456 6.456 0 0 0-6.462-6.44 6.455 6.455 0 0 0-6.462 6.44c.008 3.57 2.898 6.46 6.462 6.462z"/><path d="M57.469 11.081a4.136 4.136 0 0 1-4.13-4.13 4.12 4.12 0 0 1 4.13-4.108 4.122 4.122 0 0 1 4.13 4.108 4.138 4.138 0 0 1-4.13 4.13z" fill="#fff"/><path d="M53.605 6.951a3.853 3.853 0 0 1 3.864-3.842v7.706a3.87 3.87 0 0 0 3.864-3.864h-7.728z"/><path d="M53.539 4.752l-1.288-1.11.822-.977c.169-.206.409-.37.644-.178.064.059.094.078.178.244a.344.344 0 0 1 0 .244.452.452 0 0 1 .555.044c.2.208.169.445-.022.688l-.889 1.045zM57.691 2.554l.444-1.177v1.177h.334V.866h-.511l-.466 1.199-.445-1.199h-.532v1.688h.355V1.377l.444 1.177zM62.266 3.265l-.644.91.977-.488.266.333-1.554.754L61 4.397l.622-.911-1.022.422-.31-.377 1.065-1.377.267.333-.666.867 1.021-.445z" fill="#fff"/><path d="M53.605 4.219l.533-.622c.058-.08.048-.208-.044-.289-.097-.078-.229-.058-.289.022l-.533.622.333.267zM53.073 3.753l.488-.577c.055-.077.055-.187-.044-.267-.077-.067-.208-.07-.267 0l-.488.6.311.244z"/></svg>