<svg xmlns="http://www.w3.org/2000/svg" width="2500" height="2496" viewBox="0 0 193.069 192.756"><path fill-rule="evenodd" clip-rule="evenodd" fill="#fff" d="M.157 0h192.756v192.756H.157V0z"/><path d="M159.805 127.559v-.121.121zm0 0c-.928 3.709-3.016 6.703-6.495 9.096-3.479 2.514-7.423 3.592-11.83 3.711m-.001-.001H50.431m0 0c-4.408 0-8.235-1.197-11.715-3.592-3.364-2.393-5.567-5.385-6.611-8.977m-.001.001l-.232-.238H16.91m0 0c-3.827 0-7.075-1.916-9.743-5.627-2.783-3.949-4.175-8.498-4.175-14.004m0 0v-2.154m0-.001c0-5.506 1.392-10.054 4.175-14.003 1.276-1.795 2.784-3.231 4.408-4.189 1.74-1.077 3.479-1.556 5.335-1.556m0-.001h33.056l.232-.239V63.164h5.22l1.044.358m0 0c3.595-.12 6.843-.598 9.627-1.795 1.739-.599 3.943-1.795 6.727-3.591 2.667-1.796 4.871-3.112 6.611-3.71 2.9-1.197 6.147-1.676 9.859-1.676m0 0H103.9m-.001 0c3.712 0 6.959.479 9.858 1.676m.001 0l6.728 3.71m-.001 0c2.668 1.795 4.987 2.992 6.611 3.591 2.899 1.197 6.031 1.675 9.743 1.795m.001 0l1.044-.358h5.219l-.115 22.861h33.172m-.001-.001c3.712 0 7.075 1.916 9.858 5.746 2.668 3.95 4.06 8.498 4.06 14.003m0 0v2.154m0 .001c0 5.506-1.392 10.055-4.06 14.004-2.783 3.711-6.146 5.627-9.858 5.627m0 0h-16.354" fill="none" stroke="#cc2229" stroke-width="5.985" stroke-linecap="round" stroke-linejoin="round" stroke-miterlimit="2.613"/><path d="M89.286 52.391c-3.711 0-6.959.598-9.859 1.795-1.74.599-3.943 1.795-6.727 3.591-2.667 1.795-4.988 3.112-6.611 3.711-2.9 1.077-6.032 1.676-9.743 1.676v4.788c3.711 0 6.843-.479 9.743-1.676 1.739-.599 3.943-1.795 6.611-3.591 2.784-1.795 4.987-2.992 6.727-3.71 2.9-1.077 6.147-1.676 9.859-1.795v-4.789z" fill-rule="evenodd" clip-rule="evenodd" fill="#fff"/><path d="M79.427 54.186c-1.74.599-3.943 1.795-6.727 3.591-2.668 1.795-4.988 3.112-6.611 3.711-2.9 1.077-6.032 1.676-9.743 1.676m0 0v4.788m0-.001c3.711 0 6.843-.479 9.743-1.676 1.739-.599 3.943-1.795 6.611-3.591 2.784-1.795 4.987-2.992 6.727-3.71 2.9-1.077 6.147-1.676 9.859-1.795m0 0v-4.788m0 0c-3.711 0-6.959.598-9.859 1.795" fill="none" stroke="#000" stroke-width="2.813" stroke-linecap="round" stroke-linejoin="round" stroke-miterlimit="2.613"/><path fill-rule="evenodd" clip-rule="evenodd" fill="#fff" d="M55.418 62.804h-5.336v26.931h5.336V62.804z"/><path fill="none" stroke="#000" stroke-width="2.813" stroke-linecap="round" stroke-linejoin="round" stroke-miterlimit="2.613" d="M50.082 62.804v26.931h5.335V62.804h-5.335z"/><path fill-rule="evenodd" clip-rule="evenodd" fill="#fff" d="M90.098 52.391v37.344h5.219V52.391h-5.219z"/><path fill="none" stroke="#000" stroke-width="2.813" stroke-linecap="round" stroke-linejoin="round" stroke-miterlimit="2.613" d="M90.098 89.735h5.219V52.391h-5.219v37.344z"/><path fill-rule="evenodd" clip-rule="evenodd" fill="#c23c40" d="M56.346 70.105v2.514h32.94v-2.514h-32.94zM56.346 73.936v2.633h32.94v-2.633h-32.94zM56.346 77.885v2.634h32.94v-2.634h-32.94zM56.346 81.835v2.514h32.94v-2.514h-32.94zM84.762 58.375c-3.364.838-5.683 1.795-6.959 2.514h11.482v-2.514h-4.523zM75.367 62.206l-4.291 2.513h18.21v-2.513H75.367zM68.756 66.155c-3.596 1.556-6.496 2.394-8.815 2.394l29.344.239v-2.633H68.756z"/><path d="M136.724 63.164c-3.596 0-6.843-.599-9.627-1.676-1.624-.599-3.943-1.916-6.611-3.711-2.783-1.795-4.987-2.992-6.728-3.591-2.899-1.197-6.146-1.795-9.858-1.795v4.788c3.712.119 6.959.718 9.858 1.795 1.625.718 3.944 1.916 6.728 3.71 2.668 1.796 4.872 2.993 6.611 3.591 2.784 1.197 6.031 1.676 9.627 1.676v-4.787z" fill-rule="evenodd" clip-rule="evenodd" fill="#fff"/><path d="M136.724 63.164v4.788m0-.001c-3.596 0-6.843-.479-9.627-1.676-1.739-.599-3.943-1.795-6.611-3.591-2.783-1.795-5.103-2.992-6.728-3.71-2.899-1.077-6.146-1.676-9.858-1.795m-.001 0v-4.788m0 0c3.712 0 6.959.598 9.858 1.795 1.74.599 3.944 1.795 6.728 3.591 2.668 1.795 4.987 3.112 6.611 3.711 2.784 1.077 6.031 1.676 9.627 1.676" fill="none" stroke="#000" stroke-width="2.813" stroke-linecap="round" stroke-linejoin="round" stroke-miterlimit="2.613"/><path fill-rule="evenodd" clip-rule="evenodd" fill="#fff" d="M143.103 62.804h-5.335v26.931h5.335V62.804z"/><path fill="none" stroke="#000" stroke-width="2.813" stroke-linecap="round" stroke-linejoin="round" stroke-miterlimit="2.613" d="M143.103 62.804v26.931h-5.335V62.804h5.335z"/><path fill-rule="evenodd" clip-rule="evenodd" fill="#fff" d="M103.088 52.391h-5.22v37.344h5.22V52.391z"/><path fill="none" stroke="#000" stroke-width="2.813" stroke-linecap="round" stroke-linejoin="round" stroke-miterlimit="2.613" d="M103.088 52.391v37.344h-5.22V52.391h5.22z"/><path fill-rule="evenodd" clip-rule="evenodd" fill="#c23c40" d="M136.84 72.619v-2.514h-32.941v2.514h32.941zM136.84 76.569v-2.633h-32.941v2.633h32.941zM136.84 80.519v-2.634h-32.941v2.634h32.941zM136.84 84.349v-2.514h-32.941v2.514h32.941zM108.423 58.375H103.9v2.514h11.366c-1.276-.718-3.595-1.676-6.843-2.514zM122.109 64.719c-1.392-.838-2.783-1.676-4.291-2.514h-13.919v2.514h18.21zM133.244 68.549c-2.319 0-5.219-.838-8.814-2.394H103.9v2.633l29.344-.239zM154.701 91.77c-3.711-3.112-8.119-4.668-13.222-4.668H50.431c-5.104 0-9.627 1.556-13.223 4.668-1.74 1.556-3.132 3.231-4.06 5.146-.928 2.035-1.508 4.07-1.508 6.225v20.707c0 4.549 1.855 8.258 5.567 11.49 3.595 3.111 8.119 4.668 13.223 4.668h91.049c5.103 0 9.511-1.557 13.222-4.668 3.712-3.232 5.567-6.941 5.567-11.49v-20.707c.001-4.428-1.855-8.259-5.567-11.371z"/><path d="M141.479 87.102H50.431m0 0c-5.104 0-9.627 1.556-13.223 4.668-1.74 1.556-3.132 3.231-4.06 5.146-.928 2.035-1.508 4.07-1.508 6.225m.001 0v20.707m0 0c0 4.549 1.855 8.258 5.567 11.49 3.595 3.111 8.119 4.668 13.223 4.668m0 0h91.049m-.001 0c5.103 0 9.511-1.557 13.222-4.668 3.712-3.232 5.567-6.941 5.567-11.49m.001 0v-20.707m0 0c0-4.428-1.855-8.259-5.567-11.371-3.711-3.112-8.119-4.668-13.222-4.668" fill="none" stroke="#000" stroke-width="2.813" stroke-linecap="round" stroke-linejoin="round" stroke-miterlimit="2.613"/><path d="M129.068 130.311c0-.359-.115-.359-.464-.119l-1.392.238h-2.899l-1.276-.238-.464-.119-.348 2.633.116.238.116-.238.812-1.197c.464-.479.812-.719 1.16-.719v4.668c0 .479-.232.719-.812.719l-.231.119.231.121h4.291l.117-.121c0-.119 0-.119-.232-.119-.465 0-.696-.359-.696-.838v-4.549c.349 0 .696.24 1.16.6l.696 1.316.231.238.116-.357-.232-2.276zM68.292 130.67l-.232-.119h-3.828l-.348.119.232.119c.232 0 .463.121.58.24v3.83c0 .598.232.957.696 1.197l2.319.479 1.972-.359c.348-.24.58-.838.58-1.557v-1.436c0-.598.116-1.197.463-1.676l.696-.719.232-.119c0-.119-.117-.119-.232-.119h-2.667c-.116 0-.232 0-.232.119l.232.119c.812 0 1.16.838 1.276 2.275v1.795c0 .359-.116.719-.348.957-.348.359-.58.479-1.044.479l-1.043-.359-.232-.717v-3.83c0-.479.232-.6.696-.6l.232-.118zM92.649 130.43l-1.508-.119c-.928 0-1.856.24-2.552.838-.928.6-1.392 1.438-1.392 2.395 0 2.035 1.275 2.992 3.827 2.992l2.552-.359.696.119c.231.121.348.121.231-.119l-.116-1.197c0-.838.232-1.197.696-1.197l.348-.119c0-.119-.116-.24-.348-.24H91.14l-.232.121.232.238c.464 0 .695.359.695.959 0 1.076-.231 1.555-.812 1.555l-.58-.119-.232-1.197v-2.514c0-1.316.348-1.914 1.044-1.914.58 0 1.044.119 1.392.598.464.359.696.838.928 1.316l.232.24c.116 0 .116-.119.116-.24l-.232-2.273-.116-.24-.232.121c-.114.236-.346.355-.694.355zM76.295 131.508c0-.598.232-.838.696-.838l.232-.119h-4.407l.348.119c.348 0 .464.24.464.957v3.471c0 .719-.232 1.078-.58 1.078l-.231.119.231.121h3.944l.232-.121-.232-.119c-.464 0-.696-.359-.696-.957v-3.711h-.001zM119.674 129.951c0 .24-.348.479-.928.479l-1.276-.119c-2.087 0-3.132.6-3.132 2.035-.115.598.232 1.197.928 1.676l2.088.598c.58.121.812.359.812.838.116.479-.232.838-1.16.838-.348 0-.928-.238-1.623-.717l-1.045-1.316-.115.119.348 2.393.116.121.231-.24c.116-.119.348-.238.812-.238l1.739.119c.928 0 1.74-.119 2.32-.6.695-.357 1.044-.957 1.044-1.436s-.116-.957-.464-1.197c-.349-.359-.812-.598-1.393-.838l-1.508-.479c-.464-.119-.695-.359-.695-.838 0-.359.348-.598.812-.598s.928.119 1.276.479l1.044.838.348.238v-.238l-.348-1.916-.116-.238c.001-.001-.115.118-.115.237zM108.888 133.303h.348c.695 0 1.044.359 1.044 1.316l.231.121.116-.121v-2.752l-.116-.24-.231.24c0 .838-.349 1.197-1.044 1.076h-.348v-1.316c0-.598.231-.957.695-.957.58 0 .928.119 1.16.479l1.275 1.676.116-.238-.464-2.395-.116-.24c0-.119-.116 0-.231.121l-1.624.357h-4.06l-.232.121.232.119c.348 0 .464.119.58.24l.116.717v3.592l-.116.598c-.116.24-.349.359-.696.359-.116 0-.232 0-.232.119l.232.121h4.06c1.044 0 1.624.119 1.855.357.232.24.349.24.349-.119l.579-2.514-.115-.119-.232.119-1.044 1.316c-.58.479-1.044.719-1.392.719s-.58-.24-.695-.719v-2.153zM103.436 132.586l-.58-2.635c-.116-.119-.231 0-.348.121l-1.508.358h-4.06l-.231.121.231.119c.349 0 .464.119.58.24v4.906c0 .24-.231.359-.58.359l-.231.119.231.121h3.943c.928 0 1.624.119 1.855.357.232.24.232.24.349-.119l.58-2.514v-.119l-.349.119c-.928 1.438-1.739 2.035-2.436 2.035-.464 0-.58-.24-.58-.719v-2.154h.232c.695 0 1.044.359 1.044 1.316l.231.121.116-.121v-2.752l-.116-.24-.231.24c0 .838-.464 1.197-1.044 1.076h-.232v-1.316c0-.598.232-.957.58-.957.464 0 .812.119 1.16.479l1.044 1.438.231.238.119-.237zM85.342 130.311c0-.238 0-.359-.116-.238l-.232.119-1.392.238h-2.899l-1.74-.357-.464 2.633.116.238.231-.238.696-1.197 1.16-.719v4.668l-.232.6-.58.119c-.116 0-.231 0-.231.119 0 .121.115.121.231.121h4.292l.232-.121c0-.119 0-.119-.232-.119-.58 0-.812-.359-.812-.838v-4.549c.464 0 .812.24 1.16.6.232.479.58.838.812 1.316l.116.238c.232 0 .232-.119.232-.357l-.348-2.276zM58.202 128.516c-.464 0-.812.119-1.044.359l-.58 1.076.58 1.078c.232.238.58.479 1.044.479.463 0 .812-.24 1.16-.479.232-.359.464-.6.464-1.078 0-.359-.232-.717-.464-1.076a1.917 1.917 0 0 0-1.16-.359zM41.963 132.227l1.74.359 5.22-.838 5.915-1.797-13.455-.359c-.696 0-1.16.121-1.276.48-.116.238.116.598.464 1.076l1.392 1.079zM51.358 135.338c1.275-.479 2.667-1.795 4.292-4.07l-8.235 2.154c-.696 0-.928.24-.812.6.116.119.464.359 1.16.719 1.391.597 2.668.837 3.595.597zM56.81 131.867l-3.132 3.949c-.348.24-.348.359-.116.6l1.044.238c1.16.119 2.088-.119 2.899-.598.348-.359.348-1.078.232-2.035-.232-.957-.464-1.675-.927-2.154zM134.288 128.994c-.348-.238-.696-.479-1.16-.479s-.812.24-1.044.479c-.348.359-.58.598-.58 1.078 0 .357.232.717.58 1.076.232.24.58.359 1.044.359l1.16-.359c.232-.359.464-.719.464-1.076 0-.48-.231-.718-.464-1.078zM147.627 132.705l1.739-.479 1.392-1.078c.465-.359.465-.719.465-1.076-.116-.24-.58-.48-1.276-.359l-13.454.238 6.031 1.797 5.103.957zM143.566 134.74l1.044-.719c.116-.24-.116-.479-.695-.6-3.363-.717-6.147-1.436-8.119-2.154 1.508 2.395 2.899 3.711 4.176 4.07.927.36 2.203.12 3.594-.597zM137.651 135.936l-3.131-4.068c-.465.598-.696 1.316-.929 2.273-.115.957 0 1.676.349 1.916.695.598 1.624.838 2.783.717l1.044-.357c.233-.122.233-.36-.116-.481z" fill-rule="evenodd" clip-rule="evenodd" fill="#fff"/><path d="M185.902 91.531c-2.668-3.95-6.031-5.865-9.859-5.865H16.91c-1.856 0-3.595.599-5.335 1.556-1.74 1.077-3.132 2.394-4.523 4.309-2.668 3.83-4.06 8.377-4.06 13.883v2.275c0 5.385 1.392 9.934 4.06 13.764 2.667 3.83 6.031 5.746 9.858 5.746h159.133c3.828 0 7.191-1.916 9.859-5.746 2.783-3.83 4.175-8.379 4.175-13.764v-2.275c0-5.506-1.391-10.053-4.175-13.883z" fill-rule="evenodd" clip-rule="evenodd"/><path d="M176.043 85.666H16.91m0 0c-1.856 0-3.595.599-5.335 1.556-1.74 1.077-3.132 2.394-4.523 4.309-2.668 3.83-4.06 8.377-4.06 13.883m0 0v2.275m0 0c0 5.385 1.392 9.934 4.06 13.764 2.667 3.83 6.031 5.746 9.858 5.746m0 0h159.133m0 0c3.828 0 7.191-1.916 9.858-5.746 2.784-3.83 4.176-8.379 4.176-13.764m0 0v-2.275m0 0c0-5.506-1.392-10.053-4.176-13.883-2.667-3.95-6.03-5.865-9.858-5.865" fill="none" stroke="#000" stroke-width="2.813" stroke-linecap="round" stroke-linejoin="round" stroke-miterlimit="2.613"/><path d="M185.322 92.249c-2.668-3.591-5.8-5.506-9.396-5.506H16.91c-3.595 0-6.727 1.915-9.395 5.506-2.552 3.71-3.944 8.14-3.944 13.286v2.033c0 5.148 1.392 9.576 3.944 13.168 2.667 3.709 5.799 5.504 9.395 5.504h159.017c3.596 0 6.728-1.795 9.396-5.504 2.551-3.592 3.827-8.02 3.827-13.168v-2.033c-.001-5.267-1.277-9.576-3.828-13.286z" fill-rule="evenodd" clip-rule="evenodd" fill="#fff"/><path d="M96.245 89.256l-1.508-.479h-2.32c-2.087.358-3.131 1.077-3.131 2.274v7.899c0 1.557.812 3.232 2.32 5.266l3.828 4.789c.463.957.463 1.795.116 2.393-.232.48-.812.719-1.508.84l-1.972-.24c-.58-.24-.928-.6-.928-1.078v-2.873h-1.856v15.441l1.74-.119 1.276-.479c.58.598 1.74.838 3.595.479 1.74-.24 2.668-.719 2.668-1.438v-10.652c0-.717-1.044-2.393-3.131-4.787-2.088-2.514-3.132-3.949-3.132-4.43-.464-.598-.464-1.195-.232-1.674.348-.48.812-.719 1.508-.84l1.74.121c.58.238.928.598.928 1.197v2.633h2.319V88.897l-2.32.359zM78.267 88.897l-2.319.359-1.392-.479h-2.319c-2.204.358-3.248 1.077-3.248 2.274v7.899c0 1.557.812 3.232 2.319 5.266l3.828 4.789c.464.957.58 1.795.232 2.393-.348.48-.812.719-1.624.84l-1.856-.24c-.696-.24-.928-.6-.928-1.078v-2.873h-1.972v15.441l1.855-.119 1.276-.479c.58.598 1.624.838 3.364.479 1.855-.24 2.783-.719 2.783-1.438v-10.652c0-.717-1.043-2.393-3.015-4.787-2.088-2.514-3.132-3.949-3.132-4.43-.463-.598-.58-1.195-.232-1.674.232-.48.696-.719 1.392-.84l1.74.121c.58.238.928.598.928 1.197v2.633h2.319V88.897h.001zM176.854 88.897h-6.146v11.011l2.319.6v11.012h-2.319l-3.827-22.623h-6.264v11.011l1.972.6v11.371l-1.972.598v11.011h6.264v-11.011l-1.973-.598v-11.611h1.973l3.827 23.22h4.291v-22.98l1.855-.6V88.897zM126.285 88.897h-6.147v10.652l1.972.719v11.611l-1.972.598v11.012h12.294v-15.201h-2.203v3.951c0 .357-1.044.479-2.9.479-1.971 0-3.015-.121-3.015-.479v-11.971l1.972-.719V88.897h-.001zM110.511 88.897h-3.132l-4.291 22.982-1.857.598v11.011h6.148v-11.011l-1.972-.598.813-2.873h4.987l1.159 2.873-1.855.598v11.011h5.8v-11.011l-1.973-.598-3.827-22.982zM59.361 94.643h3.828c.58.718.232 1.556-.812 2.393l-3.016 2.156 1.972.357c2.088-1.316 3.363-2.154 3.943-2.514.696-.717 1.044-1.435 1.044-2.393v-6.104h-6.959v6.105zM57.505 91.052c0-.838-.812-1.436-2.551-1.795l-9.859-.359v10.294l1.856.717v12.33l-1.856.598v10.652c8.235.24 12.411-.479 12.411-2.514v-12.928c0-.357-.116-.717-.464-.836-.348-.359-1.276-.719-2.667-1.078 1.392-.359 2.32-.598 2.667-.957.348-.121.464-.6.464-1.078V91.052h-.001zM29.553 91.052c0-.838-.812-1.436-2.436-1.795l-9.859-.359v10.294l1.856.717v12.33l-1.856.598v10.652c8.235.24 12.294-.479 12.294-2.514v-12.928c0-.357-.116-.717-.348-.836-.464-.359-1.276-.719-2.668-1.078l2.668-.957c.232-.121.348-.6.348-1.078V91.052h.001z" fill-rule="evenodd" clip-rule="evenodd"/><path d="M27.349 101.225c0-.479-.348-.717-.928-.957l-1.972-.359-2.088.359c-.58.24-.928.479-.928.957v3.473c0 .838 1.044 1.076 3.016.957l1.972-.479c.58-.24.928-.479.928-.719v-3.232zM27.349 108.287c.232-.24.116-.598-.464-.957l-2.087-.6-2.204-.119c-.812.119-1.16.359-1.16.719v4.908c0 .479 1.044.717 3.016.717 1.856 0 2.9-.238 2.9-.717v-3.951h-.001zM110.511 100.508h-3.132l-1.159 7.539h4.987l-.696-7.539zM52.634 106.73l-2.319-.119c-.696.119-1.044.359-1.044.719v4.908c0 .479 1.044.717 2.899.717 1.972 0 2.9-.238 2.9-.717v-3.951c.348-.24.116-.598-.348-.957a8.86 8.86 0 0 0-2.088-.6zM55.07 104.457v-3.232c0-.479-.232-.717-.928-.957l-1.972-.359-1.972.359c-.58.24-.928.479-.928.957v3.473c0 .838 1.044 1.076 2.899.957l1.972-.479c.697-.24.929-.479.929-.719z" fill-rule="evenodd" clip-rule="evenodd" fill="#fff"/><path d="M156.441 89.136l-3.479-.479-3.479.479c-1.16.479-1.624 1.077-1.624 1.796v30.761c0 .479.464.957 1.624 1.316l3.479.479 3.479-.479c1.044-.359 1.508-.838 1.508-1.316V90.932c0-.719-.464-1.316-1.508-1.796zM140.203 88.658l-3.479.479c-1.044.479-1.624 1.077-1.624 1.796v30.761c0 .479.58.957 1.624 1.316l3.479.479 3.479-.479c1.044-.359 1.508-.838 1.508-1.316V90.932c0-.719-.464-1.316-1.508-1.796l-3.479-.478zM42.311 90.932c0-.719-.463-1.316-1.508-1.796l-3.479-.479-3.48.479c-1.043.479-1.507 1.077-1.507 1.796v30.761c0 .479.464.957 1.507 1.316l3.48.479 3.479-.479c1.044-.359 1.508-.838 1.508-1.316V90.932z" fill-rule="evenodd" clip-rule="evenodd"/><path d="M40.456 111.879v-10.654c0-.357-.348-.479-1.043-.717l-2.088-.24c-1.972 0-3.016.24-3.016.957v10.295c0 .598 1.044.957 3.016 1.076l2.088-.119 1.043-.598zM156.094 111.879v-10.654c0-.357-.348-.479-1.044-.717l-2.088-.24c-2.088 0-3.132.24-3.132.957v10.295c0 .598 1.044.957 3.132 1.076l2.088-.119 1.044-.598zM143.335 111.879v-10.654c0-.357-.348-.479-1.044-.717l-2.088-.24c-1.972 0-3.016.24-3.016.957v10.295c0 .598 1.044.957 3.016 1.076l2.088-.119 1.044-.598z" fill-rule="evenodd" clip-rule="evenodd" fill="#fff"/></svg>