<svg xmlns="http://www.w3.org/2000/svg" width="2500" height="2500" viewBox="0 0 192.756 192.756"><g fill-rule="evenodd" clip-rule="evenodd"><path fill="#fff" d="M0 0h192.756v192.756H0V0z"/><path d="M180.609 112.246h-.777v-.371l2.229-2.652h.281v1.734h1.91v1.289h-1.91v2.193c0 .477.072.76.178.885.105.141.371.229.654.229.141 0 .371-.035.477-.035.178-.053.371-.158.602-.266v1.434c-.283.07-.602.176-.83.229a6.68 6.68 0 0 1-.867.072c-.689 0-1.184-.195-1.467-.584-.301-.391-.479-1.078-.479-1.998v-2.159h-.001zM173.662 116.861v-5.904h1.715v.76c.246-.301.529-.531.812-.637.283-.16.672-.23 1.061-.23.549 0 1.08.195 1.396.566.301.389.496.99.496 1.715v3.73h-1.75v-3.465c0-.371-.072-.707-.213-.92a.739.739 0 0 0-.584-.301c-.229 0-.477.07-.689.23-.211.141-.406.424-.529.725v3.73h-1.715v.001zM172.529 116.189c-.371.266-.795.496-1.184.602-.443.123-.92.195-1.379.195-.92 0-1.697-.266-2.193-.832-.531-.514-.83-1.326-.83-2.281 0-.92.299-1.662.812-2.191.477-.531 1.221-.832 2.086-.832.867 0 1.574.301 2.068.867.514.619.762 1.449.762 2.492v.053h-3.908v.037c0 .459.141.83.406 1.061.301.246.742.389 1.221.389.389 0 .742-.07 1.043-.143.371-.141.725-.354 1.096-.582v1.165zM156.793 116.861v-5.904h1.752v.76c.246-.301.529-.531.812-.637.301-.16.689-.23 1.061-.23s.742.107.99.266c.283.195.496.479.637.832.336-.391.689-.691.973-.832a2.68 2.68 0 0 1 1.131-.266c.619 0 1.115.195 1.396.566.318.389.531.99.531 1.715v3.73h-1.785v-3.465c0-.406-.072-.76-.16-.92-.176-.176-.389-.301-.619-.301-.229 0-.494.07-.654.23-.211.141-.441.424-.582.725v3.73h-1.697v-3.465c0-.406-.055-.76-.16-.92a.863.863 0 0 0-.672-.301c-.193 0-.477.07-.637.23-.211.141-.424.424-.564.725v3.73h-1.753v.002zM155.697 116.189c-.354.266-.777.496-1.203.602a4.795 4.795 0 0 1-1.361.195c-.936 0-1.678-.266-2.191-.832-.531-.514-.812-1.326-.812-2.281 0-.92.281-1.662.777-2.191.512-.531 1.219-.832 2.104-.832.85 0 1.539.301 2.068.867.496.619.742 1.449.742 2.492v.053h-3.906v.037c0 .459.141.83.441 1.061.283.246.725.389 1.203.389.389 0 .742-.07 1.043-.143a6.067 6.067 0 0 0 1.096-.582v1.165h-.001zM145.336 114.916c-.512-.123-.848-.371-1.078-.654-.23-.299-.371-.777-.371-1.236 0-.654.266-1.186.725-1.539.514-.336 1.256-.529 2.211-.529h2.775v1.219h-.777c.07.16.158.301.229.461.035.158.07.389.07.564 0 .531-.158.938-.459 1.238-.266.318-.777.584-1.361.654a2 2 0 0 1-.512.07c-.443.035-.709.195-.709.441 0 .178.354.336.938.406.23 0 .443.037.584.037.584.07 1.061.318 1.361.602.301.299.477.707.477 1.166 0 .619-.246 1.148-.777 1.484-.477.301-1.238.479-2.209.479-.867 0-1.592-.143-2.088-.441-.494-.338-.76-.744-.76-1.291 0-.336.141-.637.354-.885.23-.213.637-.441 1.078-.584-.211-.053-.389-.176-.441-.301a1.01 1.01 0 0 1-.141-.459c0-.213.07-.424.193-.529.143-.16.389-.266.689-.336v-.037h-.001zM140.934 116.312a1.6 1.6 0 0 1-.83.514c-.266.088-.584.16-.885.16-.531 0-.955-.16-1.221-.373-.246-.301-.406-.76-.406-1.289 0-.461.23-.85.602-1.15s1.326-.689 2.705-1.113v-.035-.125c0-.264-.123-.494-.266-.6-.193-.16-.529-.23-.883-.23-.283 0-.637.07-.938.23-.336.141-.672.424-.938.725v-1.469a3.696 3.696 0 0 1 1.096-.512 4.571 4.571 0 0 1 1.361-.195c.779 0 1.379.195 1.734.496.336.301.564.865.564 1.555v2.389c0 .105.035.229.035.264 0 .053.125.088.195.088h.193c.09 0 .23-.088.373-.123v1.008c-.318.16-.637.301-.85.336a2.048 2.048 0 0 1-.689.125c-.283 0-.531-.072-.654-.16-.156-.072-.298-.25-.298-.516zM131.191 116.861v-5.904h1.715v.76c.283-.301.566-.531.832-.637.318-.16.707-.23 1.061-.23.566 0 1.078.195 1.379.566.336.389.514.99.514 1.715v3.73h-1.752v-3.465a2.51 2.51 0 0 0-.176-.92.785.785 0 0 0-.619-.301c-.213 0-.477.07-.672.23-.23.141-.389.424-.566.725v3.73h-1.716v.001zM127.992 116.312c-.248.266-.514.443-.814.514-.301.088-.619.16-.9.16-.531 0-.99-.16-1.221-.373-.248-.301-.389-.76-.389-1.289 0-.461.211-.85.547-1.15.408-.301 1.344-.689 2.705-1.113v-.035-.125c0-.264-.105-.494-.264-.6-.143-.16-.479-.23-.85-.23-.283 0-.637.07-.92.23-.336.141-.707.424-.971.725v-1.469a3.684 3.684 0 0 1 1.096-.512 4.624 4.624 0 0 1 1.396-.195c.76 0 1.344.195 1.697.496.371.301.602.865.602 1.555v2.389c0 .105.035.229.035.264 0 .053.088.088.158.088h.213c.07 0 .23-.088.371-.123v1.008c-.336.16-.654.301-.867.336a1.927 1.927 0 0 1-.707.125c-.264 0-.459-.072-.637-.16-.139-.072-.28-.25-.28-.516zM114.695 116.861v-8.699h1.803l2.6 3.52 2.617-3.52h1.855v8.699h-2.013v-5.34l-2.459 3.167-2.405-3.167v5.34h-1.998zM107.977 116.861v-8.699h1.857v8.699h-1.857zM106.828 116.189c-.389.266-.85.496-1.273.602a5.258 5.258 0 0 1-1.396.195c-.973 0-1.805-.266-2.299-.832-.566-.514-.885-1.326-.885-2.281 0-.92.318-1.662.85-2.191.512-.531 1.273-.832 2.174-.832.902 0 1.645.301 2.176.867.512.619.795 1.449.795 2.492v.053h-4.119v.037c0 .459.158.83.459 1.061.301.246.76.389 1.273.389.406 0 .76-.07 1.096-.143.389-.141.762-.354 1.15-.582v1.165h-.001zM97.723 117.021l-2.247-6.064h1.61l1.06 3.182 1.026-3.182h1.574l-2.07 6.029-.953.035zM92.294 116.312c-.23.266-.478.443-.761.514-.283.088-.548.16-.831.16-.495 0-.884-.16-1.132-.373-.229-.301-.354-.76-.354-1.289 0-.461.194-.85.513-1.15.389-.301 1.255-.689 2.493-1.113v-.035-.125c0-.264-.106-.494-.23-.6-.159-.16-.46-.23-.796-.23-.265 0-.619.07-.849.23-.318.141-.636.424-.919.725v-1.469a4.004 4.004 0 0 1 1.026-.512 4.054 4.054 0 0 1 1.273-.195c.725 0 1.273.195 1.591.496.354.301.531.865.531 1.555v2.389c0 .105.036.229.036.264 0 .053.088.088.177.088h.194c.07 0 .177-.088.336-.123v1.008c-.301.16-.619.301-.796.336a1.703 1.703 0 0 1-.636.125 1.18 1.18 0 0 1-.619-.16c-.124-.072-.247-.25-.247-.516zM84.355 116.861v-5.904h1.786v1.59c.301-.6.583-1.061.849-1.291.265-.246.583-.406.884-.406.142 0 .371.035.513.107.142.088.372.193.637.354l-.495 1.68c-.159-.125-.372-.23-.513-.301a.662.662 0 0 0-.442-.143c-.318 0-.654.178-.919.479a3.074 3.074 0 0 0-.513 1.309v2.527h-1.787v-.001zM79.599 116.861v-7.107h-2.811v-1.592h7.885v1.592h-2.811v7.107h-2.263zM182.484 100.859a5.852 5.852 0 0 1-1.168.566 5.008 5.008 0 0 1-1.361.195c-.938 0-1.68-.283-2.156-.797-.531-.547-.832-1.361-.832-2.334 0-.9.301-1.625.797-2.156.477-.548 1.184-.867 2.068-.867.848 0 1.557.318 2.051.902.496.619.742 1.449.742 2.492v.055h-3.889v.035c0 .441.158.83.459 1.061.283.23.707.371 1.168.371.371 0 .725-.07 1.043-.141a5.328 5.328 0 0 0 1.078-.566v1.184zM174.139 101.002c-.195.23-.441.371-.707.477-.248.072-.514.143-.76.143-.727 0-1.291-.318-1.734-.85-.424-.529-.654-1.309-.654-2.227 0-.92.23-1.68.654-2.211.443-.601 1.008-.902 1.734-.902.246 0 .512.071.742.159.248.071.441.266.654.442V92.78h1.627v8.733h-1.592l.036-.511zM167.402 93.682c0-.23.105-.495.23-.689a.977.977 0 0 1 .725-.318c.193 0 .494.106.619.283.193.194.301.459.301.76 0 .248-.107.495-.248.654-.178.177-.479.301-.672.301a1.09 1.09 0 0 1-.689-.266 1.112 1.112 0 0 1-.266-.689v-.036zM167.438 101.514v-5.923h1.75v5.923h-1.75zM159.906 101.656l-2.547-6.065h1.821l1.238 3.182 1.238-3.182h.938l1.289 3.182 1.185-3.182h1.821l-2.545 6.03h-.85l-1.396-3.307-1.344 3.307-.848.035zM154.867 101.002c-.178.23-.496.371-.744.477a3.068 3.068 0 0 1-.812.143c-.76 0-1.396-.318-1.873-.85-.426-.529-.709-1.309-.709-2.227 0-.92.283-1.68.709-2.211a2.293 2.293 0 0 1 1.873-.902c.248 0 .584.071.777.159.248.071.531.266.707.442V92.78h1.77v8.733h-1.734l.036-.511zM148.094 101.514V92.78h1.734v8.734h-1.734zM143.037 101.514v-5.922h1.734v1.627c.264-.619.564-1.079.83-1.309.266-.283.619-.442.867-.442.141 0 .354.036.494.124.143.071.389.194.619.354l-.477 1.68c-.178-.125-.355-.23-.496-.301s-.283-.105-.389-.105c-.354 0-.654.141-.92.459-.266.301-.459.742-.529 1.309v2.527h-1.733v-.001zM136.125 98.545c0-.867.266-1.627.83-2.176.531-.583 1.309-.902 2.123-.902.9 0 1.643.318 2.191.867.566.584.832 1.344.832 2.264 0 .865-.266 1.645-.832 2.174-.549.531-1.291.85-2.191.85-.814 0-1.592-.318-2.105-.85-.582-.529-.848-1.309-.848-2.174v-.053zM126.205 101.621l-3.836-8.841h2.44l1.857 4.72 1.82-4.72h1.522l1.82 4.72 1.84-4.72h2.457l-3.766 8.806h-.99l-2.123-5.446-2.103 5.446-.938.035zM113.139 101.16v-1.289c.318.141.654.301.938.371s.584.141.742.141c.266 0 .514-.035.654-.07a.362.362 0 0 0 .213-.336.504.504 0 0 0-.158-.336 4.38 4.38 0 0 0-.744-.389s-.105-.07-.158-.07c-1.061-.479-1.592-1.098-1.592-1.822 0-.529.195-1.025.584-1.326.354-.371.883-.566 1.502-.566.391 0 .707.036.973.124.301.071.672.23.938.407v1.291c-.336-.195-.689-.371-.973-.459-.266-.072-.547-.16-.76-.16-.23 0-.406.053-.479.123-.105.072-.158.23-.158.336 0 .195.318.461.92.744.211.07.406.176.564.246.389.16.707.426.885.654.213.248.301.584.301.973 0 .602-.213 1.078-.566 1.361-.389.318-1.008.514-1.715.514-.371 0-.725-.035-1.008-.07a3.72 3.72 0 0 1-.902-.355v-.037h-.001zM108.242 101.514v-5.922h1.768v1.627c.266-.619.549-1.079.812-1.309.283-.283.619-.442.885-.442.143 0 .371.036.496.124.141.071.389.194.619.354l-.479 1.68a3.033 3.033 0 0 0-.494-.301.943.943 0 0 0-.408-.105c-.336 0-.654.141-.918.459a2.397 2.397 0 0 0-.514 1.309v2.527h-1.767v-.001zM107.129 100.859a5.852 5.852 0 0 1-1.168.566 5.043 5.043 0 0 1-1.379.195c-.938 0-1.68-.283-2.193-.797-.512-.547-.812-1.361-.812-2.334 0-.9.301-1.625.777-2.156.514-.548 1.238-.867 2.105-.867.848 0 1.555.318 2.068.902.494.619.742 1.449.742 2.492v.055h-3.908v.035c0 .441.16.83.443 1.061.301.23.707.371 1.219.371.336 0 .725-.07 1.043-.141a4.769 4.769 0 0 0 1.062-.566v1.184h.001zM94.451 101.656l-2.475-6.065h1.785l1.22 3.182 1.238-3.182h.885l1.308 3.182 1.184-3.182h1.785l-2.51 6.03h-.867l-1.343-3.307-1.344 3.307-.866.035zM85.84 98.545c0-.867.3-1.627.813-2.176a3.006 3.006 0 0 1 2.175-.902c.901 0 1.662.318 2.245.867.566.584.849 1.344.849 2.264 0 .865-.283 1.645-.849 2.174-.583.531-1.344.85-2.245.85a3.03 3.03 0 0 1-2.14-.85c-.548-.529-.849-1.309-.849-2.174v-.053h.001zM78.291 101.514V92.78h3.006c1.079 0 1.909.212 2.422.601.548.371.831.955.831 1.68 0 .371-.088.725-.283 1.007-.159.301-.459.566-.813.725.566.16 1.008.461 1.273.797.283.389.442.865.442 1.467 0 .814-.283 1.467-.796 1.84-.53.371-1.361.617-2.422.617h-3.66zM18.228 91.419c.442 0 .778.336.778.778a.778.778 0 1 1-1.555 0c0-.442.336-.778.777-.778zM21.34 89.739c.424 0 .778.336.778.778 0 .424-.354.795-.778.795a.788.788 0 0 1-.778-.795c0-.442.336-.778.778-.778zM60.397 79.378a.77.77 0 0 1 .795.795.778.778 0 0 1-.795.778.785.785 0 0 1-.778-.778.778.778 0 0 1 .778-.795zM63.721 80.174c.442 0 .796.336.796.778a.788.788 0 0 1-.796.777.773.773 0 0 1-.778-.777c0-.442.336-.778.778-.778zM66.939 81.854c.459 0 .795.335.795.778 0 .424-.336.76-.795.76a.77.77 0 0 1-.778-.76c0-.443.354-.778.778-.778zM69.061 84.859c.442 0 .778.336.778.778a.777.777 0 1 1-1.556 0c0-.442.336-.778.778-.778zM68.832 88.183c.441 0 .777.354.777.778 0 .459-.336.795-.777.795a.777.777 0 0 1-.778-.795.784.784 0 0 1 .778-.778zM67.169 91.101c.442 0 .778.336.778.76 0 .46-.336.796-.778.796-.425 0-.761-.336-.761-.796a.756.756 0 0 1 .761-.76zM64.941 93.77c.442 0 .795.354.795.778 0 .46-.354.796-.795.796a.778.778 0 0 1-.778-.796.786.786 0 0 1 .778-.778zM62.501 96.104c.442 0 .778.336.778.797a.773.773 0 0 1-.778.777.774.774 0 0 1-.778-.777c0-.462.336-.797.778-.797zM59.708 97.908c.459 0 .795.336.795.777 0 .424-.336.76-.795.76a.755.755 0 0 1-.76-.76c0-.441.336-.777.76-.777zM21.234 110.674a.77.77 0 0 1 .761.777.759.759 0 0 1-.761.777c-.459 0-.795-.336-.795-.777a.776.776 0 0 1 .795-.777zM17.999 110.461c.442 0 .778.354.778.777a.778.778 0 0 1-.778.797.79.79 0 0 1-.778-.797c0-.424.353-.777.778-.777zM14.551 109.789c.459 0 .795.354.795.777a.771.771 0 0 1-.795.797c-.424 0-.76-.336-.76-.797a.77.77 0 0 1 .76-.777zM11.245 108.004c.442 0 .795.354.795.777a.777.777 0 0 1-.795.777.763.763 0 0 1-.778-.777.772.772 0 0 1 .778-.777zM9.282 104.98c.442 0 .796.354.796.795 0 .443-.354.777-.796.777s-.778-.334-.778-.777c0-.441.336-.795.778-.795zM9.583 101.656c.459 0 .795.336.795.777 0 .443-.336.779-.795.779a.773.773 0 0 1-.778-.779.772.772 0 0 1 .778-.777zM11.138 98.527c.424 0 .778.354.778.777a.774.774 0 0 1-.778.777.763.763 0 0 1-.778-.777c0-.423.336-.777.778-.777zM13.366 95.875c.442 0 .778.354.778.778a.763.763 0 0 1-.778.777.777.777 0 0 1-.795-.777c0-.424.353-.778.795-.778zM15.7 93.735a.77.77 0 0 1 .76.778c0 .459-.336.795-.76.795-.442 0-.778-.336-.778-.795 0-.425.336-.778.778-.778z"/><path d="M14.604 118.471h8.222V74.056h-8.222v-2.263h27.918c5.127 0 9.548 1.149 12.324 3.182 3.059 2.069 4.667 5.022 4.667 8.664 0 2.953-1.396 5.445-3.73 7.267-2.316 1.821-6.029 3.43-10.68 3.872v.689c5.34.478 9.53 1.822 12.324 3.642 2.793 2.051 4.19 5.004 4.19 8.434 0 4.086-1.856 7.516-5.339 9.779-3.519 2.279-8.398 3.641-14.216 3.641H14.604v-2.492z"/><path d="M32.532 94.106h5.463c4.385 0 7.408-.69 8.504-1.804 1.362-1.149 2.21-4.12 2.21-8.204 0-4.562-.849-7.515-1.927-8.434-1.114-.919-4.403-1.609-9.336-1.609h-4.915v20.051h.001zM32.532 118.471h7.673c4.084 0 7.108-.689 8.222-1.82 1.079-1.361 1.928-4.562 1.928-9.336 0-4.332-.849-7.516-2.21-8.895-1.645-1.361-4.65-2.263-9.035-2.263h-6.578v22.314z" fill="#fff"/><path d="M33.858 83.48a.79.79 0 0 1 .796.778.778.778 0 0 1-.796.777.773.773 0 0 1-.777-.777c0-.425.353-.778.777-.778zM36.953 82.49c.442 0 .778.354.778.778a.763.763 0 0 1-.778.778.778.778 0 0 1-.796-.778c0-.425.353-.778.796-.778zM40.064 81.482c.442 0 .778.354.778.778a.763.763 0 0 1-.778.778.763.763 0 0 1-.778-.778c0-.424.336-.778.778-.778zM43.494 80.581c.442 0 .778.354.778.777 0 .46-.336.796-.778.796a.788.788 0 0 1 0-1.573zM46.889 80.032c.424 0 .778.336.778.795a.77.77 0 0 1-.778.76.758.758 0 0 1-.778-.76c0-.459.336-.795.778-.795zM48.392 104.574c.442 0 .778.336.778.777a.778.778 0 1 1-1.556 0c0-.441.336-.777.778-.777zM44.856 105.793a.77.77 0 0 1 .76.777.769.769 0 0 1-.76.779.789.789 0 0 1-.795-.779c0-.424.353-.777.795-.777zM41.726 106.889c.46 0 .796.354.796.779a.771.771 0 0 1-.796.795c-.424 0-.76-.336-.76-.795a.77.77 0 0 1 .76-.779zM38.544 108.127a.77.77 0 0 1 .778.76.778.778 0 0 1-.778.797.772.772 0 0 1-.796-.797c0-.424.336-.76.796-.76zM35.078 108.887c.442 0 .778.355.778.797s-.336.777-.778.777c-.424 0-.778-.336-.778-.777s.354-.797.778-.797z"/><path d="M50.107 79.396c.442 0 .778.336.778.795a.774.774 0 0 1-.778.778.785.785 0 0 1-.778-.778c0-.459.354-.795.778-.795zM53.661 79.06c.442 0 .778.336.778.795 0 .424-.336.76-.778.76s-.796-.336-.796-.76c0-.459.354-.795.796-.795zM56.985 79.06c.424 0 .76.336.76.795 0 .424-.336.76-.76.76-.46 0-.796-.336-.796-.76 0-.459.336-.795.796-.795zM31.348 109.684c.442 0 .778.354.778.777 0 .441-.336.777-.778.777s-.796-.336-.796-.777c0-.424.354-.777.796-.777zM24.682 110.674c.459 0 .795.354.795.777 0 .441-.336.777-.795.777a.774.774 0 0 1-.778-.777c0-.424.354-.777.778-.777zM28.042 110.23c.424 0 .778.336.778.797a.785.785 0 0 1-.778.777.778.778 0 0 1-.796-.777c0-.461.336-.797.796-.797zM168.764 113.326h2.139c-.035-.373-.158-.689-.336-.885a.82.82 0 0 0-.689-.336c-.318 0-.6.105-.777.301-.16.231-.302.547-.337.92zM151.914 113.326h2.174a1.837 1.837 0 0 0-.336-.885.898.898 0 0 0-.707-.336c-.301 0-.602.105-.777.301a1.784 1.784 0 0 0-.354.92zM146.521 112.105c-.283 0-.584.105-.707.266-.195.176-.283.459-.283.725 0 .301.088.602.248.742.158.16.459.266.742.266.301 0 .529-.105.725-.266.176-.141.283-.441.283-.742 0-.266-.107-.549-.283-.689a.969.969 0 0 0-.725-.302zM145.213 117.977c0 .229.123.424.354.494.213.123.512.193.955.193.424 0 .76-.07.973-.158a.57.57 0 0 0 .354-.529.585.585 0 0 0-.318-.531c-.23-.123-.584-.195-.973-.195-.441 0-.742.072-.973.195-.213.123-.371.301-.371.494v.037h-.001zM140.898 115.43v-1.432c-.637.211-1.061.441-1.238.619a.738.738 0 0 0-.299.582c0 .195.07.406.158.479.105.07.266.141.459.141.09 0 .248-.035.389-.07.143-.035.373-.143.531-.283v-.036zM127.92 115.43v-1.432c-.617.211-1.043.441-1.219.619a.787.787 0 0 0-.301.582c0 .195.088.406.158.479.107.07.283.141.461.141.123 0 .246-.035.424-.07.123-.035.336-.143.477-.283v-.036zM102.85 113.326h2.281a1.703 1.703 0 0 0-.355-.885.918.918 0 0 0-.742-.336c-.318 0-.617.105-.777.301a1.683 1.683 0 0 0-.407.92zM92.223 115.43v-1.432c-.566.211-.973.441-1.114.619a.753.753 0 0 0-.265.582c0 .195.053.406.141.479.088.07.248.141.424.141.088 0 .194-.035.372-.07.124-.035.318-.143.442-.283v-.036zM178.736 97.979h2.156a1.966 1.966 0 0 0-.318-.885c-.211-.229-.424-.336-.707-.336a1.17 1.17 0 0 0-.795.301c-.16.23-.283.531-.336.92zM154.795 99.781v-2.492a1.012 1.012 0 0 0-.459-.266 1.036 1.036 0 0 0-.459-.105c-.443 0-.814.141-1.008.406a2.122 2.122 0 0 0-.371 1.221c0 .477.158.883.371 1.166.193.301.564.461.955.461.158 0 .336-.055.477-.09s.389-.141.494-.248v-.053zM137.91 98.545c0 .512.088.918.318 1.201.178.301.531.461.885.461s.672-.16.9-.426c.213-.318.354-.725.354-1.184 0-.514-.141-.92-.354-1.238-.229-.301-.547-.441-.9-.441s-.689.141-.85.441c-.23.318-.354.725-.354 1.238v-.052h.001zM103.361 97.979h2.158a1.99 1.99 0 0 0-.318-.885c-.178-.229-.426-.336-.725-.336-.283 0-.549.107-.762.301-.157.23-.318.531-.353.92zM87.626 98.545c0 .512.124.918.318 1.201.23.301.584.461.938.461s.689-.16.884-.426c.248-.318.372-.725.372-1.184 0-.514-.124-.92-.372-1.238-.194-.301-.53-.441-.884-.441s-.672.141-.902.441a2.333 2.333 0 0 0-.354 1.238v-.052zM81.42 96.264c.336 0 .619-.089.813-.195a.998.998 0 0 0 .283-.707c0-.336-.124-.619-.283-.761-.195-.159-.513-.265-.849-.265h-1.061v1.928h1.097zM80.324 99.906h1.202c.478 0 .902-.072 1.132-.23.212-.141.354-.424.354-.76 0-.371-.142-.672-.354-.832a2.428 2.428 0 0 0-1.132-.266h-1.202v2.088zM174.068 99.781v-2.492a1.103 1.103 0 0 0-.406-.266 1.247 1.247 0 0 0-.479-.105c-.389 0-.725.141-.938.406a2.44 2.44 0 0 0-.336 1.221c0 .477.16.883.336 1.166.213.301.549.461.902.461.141 0 .318-.055.477-.09.125-.035.318-.141.443-.248v-.053h.001z" fill="#fff"/></g></svg>