<svg xmlns="http://www.w3.org/2000/svg" width="2500" height="2500" viewBox="0 0 192.756 192.756"><path fill-rule="evenodd" clip-rule="evenodd" fill="#fff" d="M0 0h192.756v192.756H0V0z"/><path d="M2.835 91.208h13.21v1.148H2.835v-1.148zm172.891 0h14.195v1.148h-14.195v-1.148z"/><path d="M32.375 88.747v.246c2.461.41 4.349 1.231 5.333 2.462.821.985 1.395 2.461 1.395 4.021v.657c0 .821-.164 1.642-.574 2.216-.41.82-.985 1.641-1.641 2.051-1.231 1.066-3.282 1.641-5.744 1.641h-3.036V99.99h1.066c.411 0 .821-.41.985-.41.41-.41.656-1.23.656-2.051V92.85c0-1.231-.41-2.051-.82-2.216-.246 0-.656-.41-.821-.41-.246 0-.656-.246-1.066-.246v-2.051c.821 0 1.477-.164 1.887-.575.41-.246.82-.984.82-1.805v-3.938c0-1.641-1.066-2.872-2.708-2.872v-1.969h2.461c2.626 0 4.924.575 6.154 1.805 1.231 1.231 2.051 2.872 2.051 4.513 0 1.231-.656 2.625-1.641 3.856-1.23 1.231-2.872 2.051-4.759 2.051v-.246h.002zm-5.662-11.98v25.272h-9.437s-.41-.164-.574-.164c0 0-.246-.41-.246-.656 0-.41.246-.82.246-.82.164 0 .574-.41.82-.41.164 0 .574-.41.574-.41s.247-.41.247-.82V80.213c0-.41-.247-1.067-.247-1.067s-.41-.41-.82-.41-.574-.164-.574-.164-.246-.41-.246-.574l.246-.82c0-.247.41-.411.82-.411h9.191zm18.79 21.991l-.246-18.791c0-.574-.41-1.231-.821-1.231-.164 0-.574-.328-.574-.328s-.246-.41-.246-.656c0 0 .246-.41.246-.574 0-.247.41-.411.821-.411h9.19v22.237c0 .164.164.574.164.574s.411.41.656.41c.165 0 .575.41.575.41s.164.41.164.656c0 .41-.411.984-.985.984h-9.765c-.247 0-.657-.164-.821-.164 0 0-.246-.41-.246-.656v-.164c0-.246.246-.656.246-.656l.574-.41c.247 0 .657-.164.657-.164s.164-.41.164-.82l.247-.246zm9.766-21.991h1.805c1.477 0 2.872.164 3.692.575.821.246 1.642.656 2.052 1.066.574.328 1.23.985 1.641 1.395.574.985.984 2.461.984 3.692 0 1.395-.574 2.872-1.641 3.856-.984 1.231-2.625 2.051-4.267 2.462 3.856.41 5.908 2.215 5.908 4.677v3.857l.247.246c.164 0 .574-.246.574-.41.246-.41.656-.656.82-.656.246 0 .657.246.821.41 0 .246.246.656.246.82 0 .656-.657 1.477-1.641 2.297-1.231.82-2.708 1.396-3.938 1.396-3.036 0-4.841-1.396-5.251-4.268v-4.268c0-.82-.247-1.641-.657-2.051-.164-.656-.82-1.066-1.395-1.066v-2.052h.82c.164 0 .574-.41.574-.41.41-.41.657-1.231.657-1.969v-4.759c0-.82-.247-1.395-.657-1.805s-.984-.821-1.395-.821v-2.214h.001zm26.503-.411c.656 0 1.477.164 2.297.41.821.164 1.642.575 2.216.821 1.231.82 2.462 1.805 3.282 3.036.41.41.82 1.23.984 1.805.411.657.821 1.478.821 2.052.41 1.641.821 3.282.821 4.923 0 2.052-.411 4.268-1.231 6.072-.821 2.052-2.051 3.693-3.693 4.923-.82.656-1.805 1.23-2.625 1.477-.82.328-2.051.576-2.872.576v-1.807c.246 0 .656-.41 1.066-.82s.574-.82.574-1.23V80.377c0-.821-.574-1.641-1.641-1.969v-2.052h.001zm-1.395 0l-.246 2.051c-1.23.328-1.805 1.148-1.805 2.216v17.15c0 .82.165 1.395.165 1.805.246.41.82.82 1.641 1.066v1.807c-.984 0-2.215-.248-3.036-.412-.82-.41-2.051-.984-2.872-1.395-1.641-1.23-2.872-3.117-3.446-4.923-.82-1.806-1.23-4.103-1.23-6.154 0-3.2.984-6.482 2.872-8.944.82-1.231 2.051-2.462 3.282-3.036 1.229-.82 3.034-1.231 4.675-1.231zM97.69 98.758l-.164-18.545.164-.246c0-.164-.164-.574-.164-.821 0 0-.41-.41-.656-.41-.164 0-.574-.164-.574-.164-.246 0-.41-.41-.41-.82 0-.164.164-.574.164-.574.246-.247.656-.411 1.066-.411h9.19c.41 0 .984.164 1.23.411.164 0 .411.41.411.574v.246c0 .164-.411.574-.657.574l-.82.41c-.164 0-.41.574-.41.985v19.447c0 .164.41.41.41.41l.82.574c.41 0 .657.41.657.82 0 0-.247.41-.411.41-.246.246-.656.41-.82.41H96.87c-.574 0-.984-.41-.984-.82v-.164c0-.246.164-.656.164-.656l.656-.41c.164 0 .574-.41.574-.41.246 0 .41-.41.41-.574v-.246zm15.755-14.689l5.498 15.099c0 .246.41.656.82.82.41.246.821.656.821 1.066s-.247.82-.411.82c-.246 0-.656.164-1.066.164h-9.19c-.738 0-1.148-.41-1.148-.82v-.82l.574-.164c.246-.246.574-.656.574-.656l.246-.164-.246-.246-2.626-8.124v-.821-.656c0-.165.246-.575.246-.821l4.678-6.482c.41-.82.574-1.477.574-1.641 0-.411-.164-1.067-.164-1.067-.246-.164-.82-.574-1.23-.82-.411-.164-.821-.574-.821-.738 0-.656.41-1.231.985-1.231h6.317c1.231 0 1.888.411 1.888 1.231l-.246.41c0 .164-.41.574-.574.574l-1.806.985c-.656.246-1.477 1.067-2.051 1.887l-1.642 2.215zm23.222 16.329v2.053h-.984c-2.052 0-4.268-.412-6.154-1.232-2.051-.984-3.446-2.461-3.446-4.102V79.803c0-.41-.41-.821-.984-1.067-.411-.164-.821-.574-.821-.984 0-.41.41-.985.985-.985h9.765s.41.164.656.164c.41.247.574.657.574 1.067 0 .164-.41.574-.574.574l-.82.41-.246.411-.164.41v17.725c0 .82.164 1.477.574 1.887s1.065.983 1.639.983zm1.478.247c1.23-.246 2.461-1.066 3.2-1.887.82-.984 1.23-2.462 1.23-4.103V82.018c0-.82-.41-1.805-.984-2.625l-.574-.657c-.411 0-.821-.328-.821-.328s-.246-.41-.246-.656c0-.41.41-.985 1.067-.985h4.841c.82 0 1.478.411 1.478.985 0 .41-.41.82-.821.984-.41.246-1.066.657-1.066.657 0 .164-.41.82-.574 1.395 0 .41-.246 1.066-.246 1.23v13.047c0 .821-.164 1.888-.411 2.708-.41.82-.984 1.641-1.395 2.461-1.066 1.395-2.626 2.379-4.677 2.379v-1.968h-.001zm23.057-24.289c.574 0 1.395.164 1.805.164l1.642.657c.41.164.984.41.984.41.246 0 .656-.246.656-.41l.575-.411c0-.246.41-.41.656-.41.164 0 .574.164.574.164.246.246.41.657.41 1.067v6.072c0 .821-.41 1.641-1.23 1.641-.575 0-.985-.574-.985-1.231 0-.574-.41-1.395-.82-2.215s-.984-1.641-1.642-2.298c-.82-.574-1.805-1.148-2.625-1.395v-1.805zm-2.708 24.289v1.807h-1.97c-.41 0-1.23-.412-1.641-.576-.41-.246-1.066-.41-1.23-.41-.411 0-.821.164-1.067.574-.164.164-.574.412-.82.412-.164 0-.575-.248-.575-.248-.246-.164-.41-.574-.41-.738v-7.22c0-.329.164-.739.41-.984 0-.165.411-.411.575-.411.656 0 1.23.411 1.23 1.066l.657 2.216c.41.821.984 1.806 1.641 2.626.82.82 1.969 1.641 3.2 2.051v-.165zm1.231-24.289v2.051c-.82.164-1.641.574-2.051.985-.411.41-.574 1.231-.574 1.805 0 .656.41 1.477.984 2.051.41.41 1.23 1.067 2.297 1.477 1.806.41 3.693 1.23 5.088 2.215 1.23.821 2.462 2.051 2.872 3.282.574 1.231.984 2.461.984 3.692 0 1.395-.41 2.791-1.23 4.021s-2.052 2.461-3.282 3.281c-1.396.82-3.2 1.232-4.842 1.232v-1.807c2.052-.656 3.282-1.887 3.282-3.117 0-.82-.656-1.806-1.477-2.462-.984-.82-2.626-1.559-4.514-1.969-1.969-.411-3.609-1.641-4.841-3.282-.41-.821-1.067-1.641-1.231-2.462-.246-.82-.41-1.805-.41-2.625 0-1.231.41-2.708.985-3.938.656-1.231 1.641-2.216 2.872-3.036.82-.41 1.641-.821 2.215-.985.822-.244 2.052-.409 2.873-.409z" fill-rule="evenodd" clip-rule="evenodd" fill="#cc2229"/><path d="M86.613 103.6l-2.051.738-.575.082-2.461.82c-1.231 2.625-2.051 4.678-2.297 6.072 0 .246-.164.656-.164.656s-.246.164-.41.164c-.411 0-.657-.246-.657-.82s.082-1.066.246-1.643c0-.244.247-.574.247-.82.164-.246.41-.82.574-1.23.41-.82.82-1.559.82-1.969-.574 0-1.066.328-1.066.41-.164 0-.328-.246-.328-.492 0-.328.164-.574.41-.738l.328-.082c.082 0 .41-.328.492-.328h.41c.164 0 .411-.246.411-.246l.328-.41.411-.574.657-1.314.574-1.148.656-1.066c.41-.82.984-1.641 1.231-2.379.328-.492.574-1.231.738-1.478.247-.574.657-.984.903-.984 0 0 .328.164.328.328 0 0 .082.246.082.41v.246c0 .247-.082.657-.246.986-.164.246-.41.82-.657 1.23-.328.82-.984 1.887-1.641 3.117-.738 1.148-1.23 2.053-1.559 2.627.328 0 1.148-.41 2.215-.658.657-.164 1.395-.41 1.641-.41.41-.164.82-.328 1.066-.328l.985-1.641.821-1.312 1.477-2.625.328-.329v-.246l.247-.247c.164-.164.41-.328.574-.328.246 0 .575.328.575.739 0 .246-.165.493-.329.821l-.41.656-.821 1.395c-.41.82-.82 1.477-1.066 1.887-.328.41-.738.82-.738.984H89.322c.574 0 .984.164.984.41 0 .41-.41.658-.984.658l-.493.164h-.574c-.574 1.066-1.395 2.461-1.887 3.938-.574 1.395-1.148 2.791-1.395 3.775 0 .492-.246.82-.574.82-.247 0-.657-.41-.821-.984 0-.246.328-.82.328-1.066 0-.33.246-.822.41-1.232 0-.328.247-.738.411-.984.082-.41.41-.984.657-1.395l1.229-2.627zm6.319 5.25h-.164c-.246.656-.657 1.232-.902 1.479-.329.328-.821.574-1.313.574-.656 0-1.066-.574-1.066-1.477 0-.822.246-1.807.82-2.955.574-1.066 1.395-2.051 2.216-2.543.574-.328 1.066-.574 1.477-.574.739 0 1.149.41 1.149 1.066 0 0-.165.328-.165.574 0 0 .165.246.165.41 0 0-.165.246-.165.41l-.246.656-.165.328s-.164.082-.164.246c-.247.82-.492 1.559-.492 2.051V109.917s.246.328.492.41c.329 0 .41.328.41.41v.164c0 .246-.246.41-.657.41H93.751l-.246-.164-.328-.246c-.082-.164-.246-.41-.246-.574 0-.246-.164-.492-.164-.658v-.41l.164-.246v-.163h.001zm1.395-3.856c-.165-.246-.575-.41-.821-.41-.41 0-1.148.41-1.641 1.23-.41.574-.821 1.23-.985 1.641-.164.574-.328 1.148-.328 1.559 0 .246.164.492.328.492h.165c.411 0 1.066-.656 1.641-1.723l.246-.574.246-.574c.164-.246.41-.574.41-.574v-.082s.164-.328.164-.41c.165-.328.41-.41.575-.41v-.165zm5.579 1.641c-1.066.656-2.051 1.969-2.872 3.447-.164.246-.41.656-.41.656-.164 0-.41.164-.574.164 0 0-.246-.164-.41-.164V110.328c0-.41.164-.822.328-.902l.656-1.396c.246-.574.574-.984.574-1.148.41-.82.903-1.641 1.231-2.051.082-.246.41-.492.656-.492 0 0 .328.082.328.246l.082.246v.328c0 .082-.246.492-.574.82-.246.41-.41.82-.41.82l-.082.082c.246-.246.984-.902 1.805-1.641.656-.656 1.313-1.066 1.642-1.066.246 0 .492.246.492.656 0 0-.082.328-.246.41l-.574.82-.411.574-.656 1.148c-.164.246-.41.82-.41 1.066 0 .164-.164.41-.164.656 0 .33-.082.576-.082.74 0 .246.082.656.082.902.164.328.328.574.328.738 0 .082-.164.246-.41.246-.328 0-.738-.164-.902-.41-.082-.246-.246-.984-.246-1.477v-.41c0-.986.574-2.053 1.23-3.037v-.161h-.001zm6.073 2.215c-.41.656-.984 1.396-1.231 1.643a2.21 2.21 0 0 1-1.23.41c-.328 0-.738-.164-.82-.41-.164-.246-.328-.822-.328-1.396 0-.656.164-1.477.41-2.215.328-.82.984-1.477 1.559-2.051.493-.656 1.313-1.066 2.052-1.066.246 0 .656.164.984.246l2.298-4.35c.246-.574.656-1.23.984-1.805.41-.656.82-1.066.903-1.066.164 0 .41.082.41.082 0 .164.164.41.164.574s-.164.41-.164.41l-.082.41-.164.246-.411.574-.164.164v.246l-.41.574-.246.574-.41.492c0 .328-.246.738-.574 1.148-.246.41-.492.904-.82 1.479-.246.656-.82 1.641-1.066 2.461-.247.82-.575 1.641-.575 2.215l-.164.574c0 .656.329 1.232.575 1.314l.328.164V110.901l-.164.164c0 .082-.247.246-.41.246-.411 0-.821-.41-.985-.82 0-.164-.164-.41-.164-.656-.003-.329-.085-.739-.085-.985zm1.066-3.856c-.246 0-.574-.164-.82-.164-.41 0-.984.328-1.23.738-.411.41-.821 1.066-1.067 1.641-.164.246-.41.656-.41.984 0 .246-.164.492-.164.656 0 .41.164.656.41.656h.164c.246 0 .82-.492 1.478-1.477.164-.246.41-.574.41-.738 0-.082.246-.41.246-.41l.164-.246.164-.41.082-.246.164-.41.409-.574zm3.036 3.692v.164c0 .576.41.986 1.066.986.575 0 1.149-.33 1.56-.576.492-.41 1.066-1.066 1.642-1.641l.082-.164.328-.246.246-.164.164.164.082.246v.164c-.082.246-.492.82-1.066 1.395-.575.492-1.231 1.068-2.052 1.479-.164.164-.41.246-.657.246-.328 0-.738.164-.984.164-.574 0-.984-.164-1.23-.41s-.41-.822-.41-1.396c0-.492.246-1.312.574-2.051.246-.656.82-1.395 1.066-1.641 1.067-1.066 2.052-1.805 2.708-1.805.574 0 .821.41.821.984 0 .41-.247.984-.493 1.477-.328.574-.82.984-1.148 1.23-.821.738-1.643 1.313-2.299 1.395zm.246-1.067c.41 0 1.148-.574 1.806-1.148.41-.492.82-.902.82-1.23v-.082c0-.164-.164-.328-.246-.328-.328 0-.738.328-.984.738-.821.82-1.396 1.641-1.478 2.215l.082-.165zm8.37-2.625c.328-.164.738-.574.984-.82s.82-.82 1.067-1.232c.328-.246.82-.82 1.148-1.23.246-.574.656-1.066.902-1.641.574-.984 1.148-1.805 1.148-2.051v-.328c0-.082-.164-.246-.328-.246 0 0-.246.164-.492.41-.574.574-1.23 1.641-2.051 3.035-.821 1.395-1.806 2.873-2.38 4.268v-.165h.002zm-.821 2.051c-.245.574-.656 1.395-.82 2.215 0 .166.164.246.328.246.247 0 .657-.08.821-.41.081-.082.41-.492.656-.82l.574-.984c.082-.246.41-.41.492-.41l.328.164v.246s-.164.328-.164.492c-.984 1.887-2.216 3.119-3.282 3.119-.41 0-.82-.41-.82-.984l.164-.904c.246-1.148.82-2.543 1.312-3.773.329-.492.739-1.312.985-1.887.246-.576.82-1.396 1.066-1.889.738-1.148 1.56-2.379 2.216-3.199s1.395-1.477 1.805-1.806c.246-.246.574-.41.821-.41.246 0 .574.164.574.328.082.082.246.493.246.821 0 .246-.164.656-.164.902-.493 1.395-1.478 2.953-2.708 4.266-.574.822-1.395 1.643-1.97 2.381-.656.656-1.477 1.477-2.297 2.051l-.163.245zm4.924.164l-.082.082c0-.082-.164-.41-.164-.492 0-.328-.164-.574-.164-.738 0-.246.164-.82.328-1.066.082-.246.492-.82.902-1.066.739-.574 1.724-.986 2.626-.986.984 0 1.56.412 1.56 1.232 0 .574-.328 1.23-.821 1.641-.574.41-1.395.82-1.969.82h-.246c-.247 0-.41-.164-.41-.41 0-.164.163-.41.246-.41 0 0 .164-.164.328-.164.082 0 .41-.082.492-.082.328 0 .738-.328.82-.41.164 0 .328-.328.328-.574s-.328-.574-.574-.574c-.574 0-1.23.328-1.641.574-.575.41-.821 1.066-.821 1.641 0 .246.082.656.246.984.328.246.575.82.738 1.066.247.41.411.82.411 1.15 0 .492-.328 1.066-.738 1.312-.411.328-.985.574-1.478.574-.738 0-1.23-.246-1.559-.574-.246-.41-.493-1.068-.493-1.643 0-.82.247-1.477.821-1.805v-.082h.082c.328 0 .41.082.41.246l-.082.164v.164c-.164.246-.328.82-.328 1.23v.412c0 .08.328.41.41.492.164.164.41.328.738.328.246 0 .656-.164.82-.164.082-.164.246-.412.246-.656 0-.33-.164-.576-.246-.74l-.328-.656-.082-.164-.164-.082-.164-.328v-.246h.002zm15.509 1.887c-1.067.822-2.298 1.396-3.282 1.396-.492 0-.902-.246-1.231-.574-.246-.412-.656-1.232-.656-2.053 0-.246.164-.82.164-1.066 0-.41.246-.984.411-1.395.246-.82.656-1.641 1.23-2.463.492-.984 1.23-1.805 1.641-2.297a13.71 13.71 0 0 1 1.478-1.723c.574-.492 1.23-1.23 1.805-1.723 1.231-1.149 2.462-1.642 3.446-1.642.492 0 1.066.246 1.231.657.246.246.41.821.41 1.396v.082c0 .574-.164 1.148-.41 1.723-.165.246-.41.656-.41.82-.165.246-.411.492-.739.82-1.23 1.312-2.133 2.135-2.707 2.135h-.329s-.246-.248-.246-.412c0-.246.246-.492.575-.82a8.26 8.26 0 0 0 3.281-4.102c0-.164.165-.41.165-.656 0-.164-.165-.41-.165-.41-.164-.165-.41-.329-.574-.329-.246 0-.656.164-.902.411-1.148.574-2.38 1.641-3.61 3.035-.82.984-1.806 2.051-2.462 3.199-.246.494-.656 1.068-.984 1.479-.246.574-.492 1.066-.656 1.641s-.246 1.066-.246 1.641v.41c.082.574.492.984 1.066.984h.574c.082 0 .41-.246.492-.246.328-.164.738-.41.984-.574.247-.246.657-.574.821-.574.164-.082.246-.246.246-.246l.574-.41.41-.328v-.082l.246-.164.164-.164.164-.246c.082 0 .411-.164.411-.164.164 0 .246.164.246.164 0 .164.164.41.164.574 0 .246-.164.656-.41 1.066-.411.574-1.149 1.561-1.806 2.873-.574 1.148-1.067 2.215-1.642 3.281-.164.574-.41 1.148-.41 1.395-.164.576-.574.986-.82.986s-.656-.246-.656-.74c0-.492.246-1.312.492-2.051 0-.082.328-.492.574-.902s.574-.984.656-1.395c.574-1.067 1.15-1.887 1.232-2.217zm6.318-2.215c1.23-1.23 2.379-2.051 2.872-2.297l.328-.164c.082 0 .41.164.41.164l.082.246c0 .328-.246.738-.492 1.148-.41.41-.738.82-.738 1.066l.328-.41.656-.656a40.61 40.61 0 0 0 1.559-1.148c.082-.082.41-.41.492-.41.328 0 .575-.082.739-.082.246 0 .491.246.491.492 0 .164-.245.41-.491.738-1.396 1.312-2.216 2.707-2.216 3.527 0 .41.164.822.246 1.15.328.082.41.41.41.656 0 .164-.246.41-.656.41-.328 0-.738-.164-.82-.41-.164-.246-.328-.984-.328-1.477 0-.412.164-.986.328-1.396.246-.574.656-1.148 1.066-1.641l-.082-.164c-.902.82-1.97 2.051-2.954 3.611-.082.246-.41.656-.41.82 0 .082-.246.246-.492.246-.328 0-.41-.41-.41-.656.082-.576.82-1.807 1.641-3.447l-.164-.164c-.574.574-1.066 1.23-1.477 1.805-.575.574-1.149 1.396-1.396 2.217 0 .41-.41.656-.656.656-.164 0-.328-.164-.328-.41v-.246c0-.574.328-1.561.82-2.627.41-.984.984-2.051 1.56-2.871.492-.82.902-1.23 1.23-1.23.082 0 .246.246.246.492 0 0-.164.164-.164.41 0 .164-.246.41-.41.738l-.492.82-.328.494zm10.421-2.133c.574-.574 1.23-.82 1.641-.82.328 0 .738.082.902.41.247.246.411.656.411.902 0 .738-.328 1.559-.739 2.379-.41.82-1.066 1.641-1.805 2.299-.246.328-.656.738-.902.738-.328.082-.821.246-1.149.246-.41 0-.82-.164-1.066-.41l-.246.574c0 .082-.164.246-.328.246h-.082l-.329-.164c-.081 0-.245-.246-.245-.41 0-.082.164-.41.245-.656.329-.576.985-1.807 1.806-3.611l1.396-2.543.82-1.807c.656-1.23 1.312-2.625 1.805-3.691.41-.82.903-1.395 1.313-1.641.164 0 .41.082.41.246.164.164.328.41.328.574l-.164.246-1.642 2.871c-.164.328-.574.82-.984 1.559-.246.492-.656 1.068-.656 1.232-.33.411-.576.903-.74 1.231zm-2.134 4.512c0 .246.41.576.656.576.247 0 .574-.166.657-.33.328-.08.574-.492.82-.82.984-1.23 1.559-2.297 1.559-3.035 0-.246-.164-.492-.41-.492-.574 0-.984.246-1.23.656l-.574.574c-.164.246-.41.656-.657 1.066-.328.574-.738 1.23-.984 1.971l.163-.166zm13.95-5.66l-2.052.738-.574.082-2.462.82c-1.231 2.625-2.052 4.678-2.298 6.072 0 .246-.164.656-.164.656s-.246.164-.41.164c-.41 0-.656-.246-.656-.82s.164-1.066.246-1.643c0-.244.328-.574.328-.82.082-.246.41-.82.492-1.23.41-.82.82-1.559.82-1.969-.492 0-1.066.328-1.066.41-.164 0-.246-.246-.246-.492 0-.328.082-.574.41-.738l.246-.082c.164 0 .41-.328.575-.328h.41c.081 0 .41-.246.41-.246l.246-.41.41-.574.656-1.314.574-1.148.656-1.066c.41-.82.985-1.641 1.231-2.379.328-.492.574-1.231.738-1.478.246-.574.656-.984.984-.984 0 0 .246.164.246.328 0 0 .164.246.164.41v.246c0 .247-.164.657-.328.986-.082.246-.41.82-.656 1.23-.246.82-.984 1.887-1.642 3.117-.738 1.148-1.23 2.053-1.559 2.627.328 0 1.148-.41 2.216-.658.738-.164 1.395-.41 1.641-.41.411-.164.821-.328 1.149-.328l.902-1.641.82-1.312 1.559-2.625.246-.329v-.246l.247-.247c.164-.164.41-.328.574-.328.246 0 .574.328.574.739 0 .246-.164.493-.328.821l-.41.656-.82 1.395c-.411.82-.821 1.477-1.067 1.887s-.656.82-.656.984H169.65c.492 0 .902.164.902.41 0 .41-.41.658-.902.658l-.574.164h-.574c-.492 1.066-1.312 2.461-1.888 3.938a61.35 61.35 0 0 0-1.395 3.775c0 .492-.246.82-.574.82-.246 0-.657-.41-.821-.984 0-.246.328-.82.328-1.066 0-.33.247-.822.411-1.232 0-.328.246-.738.41-.984.082-.41.41-.984.656-1.395l1.235-2.627z" fill-rule="evenodd" clip-rule="evenodd"/></svg>