<svg xmlns="http://www.w3.org/2000/svg" width="2500" height="2500" viewBox="0 0 192.756 192.756"><g fill-rule="evenodd" clip-rule="evenodd"><path fill="#fff" d="M0 0h192.756v192.756H0V0z"/><path d="M2.834 27.634h187.088v137.487H2.834V27.634z"/><path fill="#cc2229" d="M137.754 86.998h20.301v30.324h-20.301V86.998z"/><path fill="#fff" d="M89.008 122.188h7.985V95.314h3.991v26.874h7.985V48.707h-7.985v25.298h-3.991V48.707h-7.985v73.481z"/><path d="M35.943 134.631l2.191 1.752 23.444-31.77 11.613 38.125 1.533-1.096-3.286-49.957 3.286-11.612 28.485-14.68.875-1.314-.438-.876-18.843 5.477-13.365 1.972h-.116c2.749-.994 4.717-3.568 4.717-6.573 0-3.862-3.248-7.012-7.23-7.012s-7.23 3.15-7.23 7.012c0 2.99 1.947 5.553 4.675 6.558l-4.018-.423-7.669-4.382-5.697-3.725-11.393-7.888-1.095 1.095 11.394 13.147 9.859 9.859-.219 5.478-3.068 8.326-1.095 4.163-9.422 20.377-7.888 17.967z" fill="#cc2229"/><path d="M34.325 84.664c0 .65.216 1.17.651 1.56.435.393 1.006.589 1.72.589.722 0 1.3-.196 1.732-.589.429-.39.645-.91.645-1.56 0-.656-.216-1.176-.645-1.565-.432-.39-1.01-.584-1.732-.584-.713 0-1.285.194-1.72.584-.435.389-.651.909-.651 1.565zm-4.631 4.849V76.896h4.631v3.706a6.716 6.716 0 0 1 1.788-.783 7.9 7.9 0 0 1 2.065-.257c1.76 0 3.162.459 4.202 1.378 1.04.921 1.559 2.161 1.559 3.723 0 1.542-.516 2.776-1.547 3.703s-2.411 1.392-4.143 1.392a7.976 7.976 0 0 1-2.241-.3 6.141 6.141 0 0 1-1.865-.901l-.034.956h-4.415zM45.794 89.513v-9.705h4.594l.056.745a3.425 3.425 0 0 1 1.247-.742 5.009 5.009 0 0 1 1.63-.249c1.192 0 2.068.303 2.627.91s.836 1.563.836 2.871v.847h-4.097v-.066c0-.491-.09-.858-.271-1.098-.183-.24-.457-.358-.824-.358-.393 0-.673.139-.837.413-.167.277-.25.751-.25 1.421v5.012h-4.711v-.001z" fill="#fff"/><path d="M62.654 84.664c0 .667.216 1.196.646 1.592.432.396 1.012.592 1.744.592.729 0 1.309-.196 1.741-.592.429-.396.646-.925.646-1.592 0-.67-.216-1.205-.646-1.595-.433-.393-1.013-.589-1.741-.589-.732 0-1.312.196-1.744.589-.43.39-.646.924-.646 1.595zm-4.894 0c0-1.646.636-2.923 1.908-3.83 1.272-.904 3.069-1.358 5.39-1.358 2.328 0 4.125.451 5.388 1.355 1.263.901 1.896 2.181 1.896 3.833 0 1.646-.633 2.923-1.896 3.824-1.263.904-3.06 1.355-5.388 1.355-2.321 0-4.118-.451-5.39-1.355-1.272-.901-1.908-2.178-1.908-3.824z"/><path d="M75.235 89.513v-9.705h4.631v1.008a7.219 7.219 0 0 1 1.936-.904 7.736 7.736 0 0 1 2.161-.292c1.519 0 2.63.361 3.334 1.083.701.722 1.053 1.869 1.053 3.437v5.373h-4.631v-4.561c0-.722-.124-1.219-.371-1.494s-.679-.41-1.294-.41c-.682 0-1.216.153-1.605.457-.389.306-.583.725-.583 1.262v4.746h-4.631z" fill="#fff"/><path d="M90.628 89.513l4.813-5.092-4.353-4.613h5.798l1.26 1.819c.131.191.234.355.311.491.074.136.131.26.168.373.055-.13.123-.266.203-.408.08-.141.182-.289.303-.439l1.383-1.837h5.689l-4.387 4.596 4.775 5.109h-5.971l-1.453-1.973a5.723 5.723 0 0 1-.359-.537 2.62 2.62 0 0 1-.166-.384 4.426 4.426 0 0 1-.213.462 2.19 2.19 0 0 1-.232.35l-1.589 2.082h-5.98v.001zM127.754 97.992c.123-2.525.49-16.552-8.461-16.552-5.354 0-8.582 5.75-8.582 14.081 0 7.364 2.492 14.143 8.379 14.143 4.74 0 7.766-3.986 8.297-9.037h-6.049c-.082 1.021-.572 2.258-1.922 2.258-2.043 0-2.371-3.334-2.371-4.893h10.709zm-10.586-5.266c.041-1.236.369-4.515 2.248-4.515 1.717 0 2.248 2.58 2.248 4.515h-4.496z" fill="#cc2229"/><path d="M130.018 103.254h6.656v-13.01c0-7.521 1.98-8.334 2.893-8.334.396 0 .951.203 1.465.949V69.577c-2.535-.339-3.961 3.117-4.557 5.218v-4.27h-6.457v32.729z" fill="#fff"/><path d="M148.107 115.209c5.152.314 8.203-5.141 8.203-13.621 0-7.069-2.18-13.562-8.203-13.562-6.021 0-8.201 6.493-8.201 13.562 0 8.43 3.051 13.936 8.242 13.621h-.041zm0-6.605c-1.98 0-2.297-4.031-2.297-7.016 0-6.127 1.387-6.964 2.297-6.964.912 0 2.299.837 2.299 6.964 0 2.984-.316 7.016-2.299 7.016z"/><path d="M158.846 101.301c1.861 2.453 3.684 3.246 5.982 3.246 2.615 0 6.973-.793 6.973-10.692 0-4.028-.674-7.813-4.002-8.973-1.109-.366-2.297-.427-2.297-2.503 0-.854.277-2.197 1.584-2.197.99 0 1.863.732 2.654 1.587l2.021-6.47c-2.576-2.625-5.072-2.808-5.785-2.808-5.586 0-6.537 6.531-6.537 10.56 0 4.822 1.467 7.08 2.854 8.057 2.693 1.953 3.248.61 3.248 3.174 0 1.648-1.229 1.709-1.506 1.709-1.109 0-2.297-.977-3.051-2.075l-2.138 7.385z" fill="#fff"/></g></svg>