<svg xmlns="http://www.w3.org/2000/svg" width="2500" height="460" viewBox="0 0 91.574 16.846"><path d="M45.787 0C20.5 0 0 3.771 0 8.423s20.5 8.423 45.787 8.423c20.003 0 37.01-2.359 43.244-5.648.271-.143.521-.287.749-.433 1.167-.744 1.794-1.529 1.794-2.342C91.574 3.771 71.074 0 45.787 0z" fill="#bfbfbf"/><path fill="#404040" d="M32.042 10.734l-2.138 2.067h-2.036l2.138-2.067zM31.373 12.043l.618-.617h1.527l-.644.617zM34.944 12.801l2.138-2.067h-2.138l-2.138 2.067zM8.523 9.797l2.139-1.68-.357-.407 1.425-.458 2.546-2.24-12.37 2.291z"/><path d="M14.785 4.605s.204.407-.102.712l-5.04 4.378s-1.018.917-2.037.967h9.214s2.138.153 3.818-1.425c0 0 1.324-.967.204-1.782 0 0 2.036-.102 3.105-1.17 0 0 1.527-1.68-1.527-1.68h-7.635z"/><path d="M17.025 8.83c.831-.939-.133-1.391-.762-1.574l-3.361 2.796c3.003.255 4.123-1.222 4.123-1.222zM18.959 5.012l-2.16 1.798 1.091.035c1.578.051 2.342-1.018 2.342-1.018.662-1.069-1.273-.815-1.273-.815z" fill="#bfbfbf"/><path d="M35.911 10.205h-5.549c.987-.747 5.854-4.938 5.854-4.938.306-.305.102-.712.102-.712h5.905s3.869-.051 2.8 2.24c0-.001-2.393 3.257-9.112 3.41z"/><path d="M12.749 11.426h2.749s1.477 1.273 3.513 1.425c0 0 .161 0 .152.11 0 0 .026.068-.144.06 0 0-3.454-.186-6.27-1.595zM18.993 4.181h3.461l1.663-.543s1.544-.492 2.953-.56c0 0 .153.017.119-.102 0 0 .017-.068-.187-.068 0 0-2.358-.085-4.242.424 0 0-2.749.747-3.767.849z" fill="#404040"/><path d="M25.628 4.63s.441.263.068.535l-3.801 3.326s-.814.781.204 1.392c0 0 .407.237 1.73.204h6.21s-.61-.339-.169-.747l5.498-4.709h-3.631L26.51 8.932s-.271.34-1.018.272c0 0-.781-.136-.034-.713l4.514-3.86h-4.344z"/><path d="M35.249 9.441l4.836-3.971s.449-.322.868-.29c.334.025.687.313.506.901 0 0-1.679 2.902-6.21 3.36z" fill="#bfbfbf"/><path d="M41.664 10.23l5.752-4.658s.509-.28.204-.789h3.156l.662 2.749 2.851-2.215s.305-.254.051-.534h4.124l-6.669 5.447h-2.901l-.764-2.316-2.901 2.316h-3.565zM59.557 5.317s.306-.254.051-.534h4.123l-6.465 5.447h-3.563l5.854-4.913z"/><path d="M61.415 10.765s-.567-.008-.957.434l-.798.76h4.895c.051.339-.136.401-.136.401h-5.413l-.356.441h6.584c1.272-.102 1.544-1.183 1.544-1.183H61.88l.43-.42h4.678a12.485 12.485 0 0 1-.537-.433h-5.036zM69.971 10.765c.176.151.355.296.534.433H89.03c.271-.143.521-.287.749-.433H69.971z" fill="#404040"/><path d="M67.439 8.117C80.03 3.943 82.575 5.776 82.575 5.776c-.883-4.378-12.184-.136-12.184-.136-1.355.424-2.86 1.006-4.057 1.496l2.792-2.353h-4.301c.254.28-.051.534-.051.534l-5.676 4.913h3.563l1.844-1.553a12.215 12.215 0 0 0 2.481 2.521c1.968 1.497 4.992 2.86 9.208 2.316-2.478-.34-4.854-1.765-4.854-1.765a6.91 6.91 0 0 1-.836-.552 11.006 11.006 0 0 1-.534-.433c-1.349-1.159-2.531-2.647-2.531-2.647z"/><path d="M19.137 10.734s.458 1.507 1.196 1.991h.891l2.316-1.247s.356 1.069.764 1.247h.891l4.021-1.991h-1.018l-2.494 1.202-.509-1.202h-1.324L21.58 11.91l-.636-1.176h-1.807zM38.151 12.368l1.222-1.069h4.993l.581-.534h-6.898l-1.552 1.451s-.866.585.331.585h5.905l.47-.433h-5.052z" fill="#404040"/><path fill="#404040" d="M39.576 11.961l.331-.306h2.622l-.28.306zM46.245 12.368l1.222-1.069h4.993l.581-.534h-6.897l-1.553 1.451s-.865.585.331.585h5.905l.47-.433h-5.052z"/><path fill="#404040" d="M47.67 11.961l.331-.306h2.622l-.28.306zM54.721 12.368l1.782-1.604h-1.884l-1.552 1.451s-.866.585.331.585h4.556l.471-.433h-3.704z"/></svg>