<svg xmlns="http://www.w3.org/2000/svg" width="2500" height="942" viewBox="0 0 55.367 20.86"><path d="M0 20.571h4.4c2.44 0 3.434-1.441 3.434-4.206v-3.621c0-2.046-.982-2.69-2.363-2.978 1.511-.634 2.277-1.525 2.277-3.081v-2.48C7.748 1.441 6.753 0 4.313 0H0v20.571zM47.245 12.725V8.696c0-3.776-.818-4.649-3.233-4.649-2.416 0-3.535.874-3.535 4.649v7.844c0 2.943.985 4.32 3.233 4.32 2.249 0 3.234-.665 3.234-3.608v-3.315h-2.416v3.386c0 1.088-.279 1.472-.707 1.472-.408 0-.706-.384-.706-1.472v-4.597h4.13z"/><path d="M3.152 2.343h.8c.711 0 .928.499.928 3.033 0 2.617-.216 3.033-.928 3.033h-.8V2.343zM3.152 11.24h.734c.907 0 1.08.307 1.08 3.41-.043 3.026-.173 3.41-1.08 3.41h-.734v-6.82z" fill="#fff"/><path d="M21.298 9.982V6.938c0-.672-.181-1.087-.805-1.087-.58 0-.7.432-.7 1.683 0 3.512 3.902 2.833 3.902 7.844 0 5.063-.911 5.306-3.215 5.306-2.249 0-3.215-.725-3.215-3.732v-2.887h2.527v3.074c0 1.438.279 1.573.688 1.573.241 0 .727.041.727-1.471 0-.539.021-.734.021-1.117 0-3.664-3.962-2.857-3.962-8.367 0-2.655 1.022-3.831 3.215-3.831 1.951 0 3.233.727 3.233 3.511v2.546h-2.416zM32.765 4.062h2.528V5.98h.037c.298-1.247 1.041-2.085 1.989-2.085 1.151 0 1.988.35 1.988 3.133V20.57h-2.64V7.288c0-.954-.204-1.11-.594-1.11-.465 0-.669.22-.669 1.43v12.963h-2.639V4.062zM15.926 20.599h-2.528V18.68h-.037c-.297 1.248-1.041 2.085-1.988 2.085-1.152 0-1.988-.148-1.988-2.933V4.088h2.639v13.284c0 .955.204 1.11.594 1.11.464 0 .669-.22.669-1.431V4.088h2.638v16.511zM24.917.062h2.528V5.98h.037c.297-1.247 1.04-2.085 1.988-2.085 1.152 0 1.988-.166 1.988 2.618v14.058h-2.64V7.288c0-1.033-.204-1.148-.594-1.148-.465 0-.669.142-.669 1.468v12.963h-2.639V.062z"/><path d="M43.115 10.571V7.407c0-1.056.279-1.323.706-1.323s.707.267.707 1.323v3.164h-1.413z" fill="#fff"/><path d="M52.728.519h2.639v20.053h-2.639zM48.653.519h2.639v20.053h-2.639z"/></svg>