<svg xmlns="http://www.w3.org/2000/svg" width="2500" height="2500" viewBox="0 0 192.756 192.756"><g fill-rule="evenodd" clip-rule="evenodd"><path fill="#fff" d="M0 0h192.756v192.756H0V0z"/><path d="M172.762 98.755c0 42.932-34.805 77.744-77.743 77.744-42.941 0-77.749-34.812-77.749-77.744 0-42.939 34.807-77.744 77.749-77.744 42.938 0 77.743 34.805 77.743 77.744z" fill="#b5b6b8" stroke="#b5b6b8" stroke-width=".846" stroke-miterlimit="2.613"/><path d="M175.486 93.991c0 42.939-34.811 77.743-77.75 77.743-42.938 0-77.745-34.804-77.745-77.743 0-42.928 34.808-77.733 77.745-77.733 42.94 0 77.75 34.805 77.75 77.733z" fill="#fff" stroke="#000" stroke-width=".846" stroke-miterlimit="2.613"/><path d="M62.527 56.977l.308 9.681h-1.547c-.396-2.335-.734-3.261-1.564-4.548-1.267-2.004-3.148-3.09-5.184-3.09-4.532 0-7.435 5.133-7.435 13.058 0 8.055 3.148 13.181 8.141 13.181 2.07 0 3.797-.915 5.146-2.63.96-1.208 1.394-2.124 2.135-4.544l1.42.505-1.919 9.049c-1.229-.54-1.817-.707-2.711-.707-.338 0-.646.041-.96.075-.246.051-1.014.167-2.309.461-1.328.253-2.558.42-3.698.42-7.806 0-13.045-6.088-13.045-15.222 0-9.267 5.672-16.062 13.291-16.062 1.571 0 3.145.293 4.621.836 2.534.919 2.715.96 2.995.96.461 0 .68-.293.868-1.421h1.447v-.002zM76.001 68.948c0-.83-.034-1.461-.16-1.881-.154-.621-.796-1.124-1.414-1.124-1.021 0-1.824 1.089-1.824 2.418 0 .505.126.966.369 1.841l-5.942 3.25c-.28-.915-.372-1.42-.372-2.042 0-3.797 4.685-7.427 9.527-7.427 4.378 0 6.689 2.503 6.689 7.092v10.722c0 1.543.311 2.417.833 2.417.4 0 .741-.252 1.233-.789l.803 1.168c-.649.916-1.141 1.537-1.543 1.875-.898.748-2.346 1.25-3.702 1.25-.707 0-1.42-.126-2.063-.376-1.294-.413-1.728-.918-2.342-2.674-.341.461-.615.841-.806 1.008-1.137 1.328-2.684 2.042-4.438 2.042-3.671 0-5.331-1.916-5.331-6.174 0-1.629.366-3.001 1.014-3.964.925-1.328 1.974-2 6.324-3.917 1.571-.673 1.97-.915 3.145-1.506v-3.209zm0 4.883c-1.574.833-2.097 1.209-2.684 2.168-.614 1-.895 2.295-.895 4.292 0 2.755.496 3.964 1.663 3.964.093 0 .219 0 .308-.041.68-.167 1.141-.293 1.294-.42a3.96 3.96 0 0 0 .314-.495v-9.468zM99.186 62.313c0-1.789-.027-2.042-.369-2.421-.334-.413-.799-.748-1.449-1.041-.307-.126-.678-.287-1.112-.454v-1.335c3.517-.546 4.532-.881 9.036-2.8l.895.546v25.569c0 2.461.492 3.462 1.666 3.462.254 0 .553-.044.957-.212v1.714l-8.637 2.377-.986-.581v-2.756c-1.943 2.674-3.146 3.377-5.516 3.377-4.416 0-7.499-4.459-7.499-10.971 0-7.502 4.016-12.887 9.65-12.887 1.266 0 1.854.127 3.364.748v-2.335zm0 5.806c-1.016-1.714-1.602-2.219-2.712-2.219-2.127 0-3.395 3.008-3.395 8.099 0 6.133 1.359 9.841 3.637 9.841.897 0 1.393-.253 2.469-1.461v-14.26h.001zM122.494 62.313c0-1.789-.027-2.042-.369-2.421-.334-.413-.799-.748-1.447-1.041-.307-.126-.684-.287-1.113-.454v-1.335c3.518-.546 4.543-.881 9.043-2.8l.887.546v25.569c0 2.461.5 3.462 1.668 3.462.246 0 .559-.044.955-.212v1.714l-8.625 2.377-.998-.581v-2.756c-1.939 2.674-3.141 3.377-5.518 3.377-4.406 0-7.486-4.459-7.486-10.971 0-7.502 4.002-12.887 9.645-12.887 1.27 0 1.857.127 3.359.748v-2.335h-.001zm0 5.806c-1.01-1.714-1.598-2.219-2.711-2.219-2.123 0-3.381 3.008-3.381 8.099 0 6.133 1.346 9.841 3.633 9.841.895 0 1.381-.253 2.459-1.461v-14.26zM130.826 64.564c2.773.338 4.863.461 6.223.461 1.42 0 3.49-.123 6.291-.461v2.134c-1.545 0-2.092.369-2.092 1.42 0 .243.062.536.123.748.062.25.309.83.711 1.749l2.861 6.966 2.281-6.464c.588-1.543.648-1.881.648-2.294 0-1.461-.703-2.083-2.309-2.083h-.43v-2.175c1.688.212 2.957.338 3.818.338.805 0 2.035-.126 3.701-.338v2.134c-.955.202-1.387.413-1.844 1-.465.663-1.121 2.042-1.707 3.797l-7.486 21.146c-1.051 2.916-2.771 4.838-4.412 4.838-1.516 0-2.676-1.461-2.676-3.216 0-2.336 1.201-3.544 3.482-3.544.273 0 .547 0 .861.082h.402c.895 0 1.57-.663 1.699-1.749l.09-.83-7.068-17.316c-.826-2.042-1.072-2.503-1.543-3.168-.424-.673-.793-.875-1.627-1.042v-2.133h.003zM38.196 122.131c2.124 0 2.838-.788 2.992-3.209l.895-19.354v-.331c0-2.209-.587-2.879-2.438-2.879V94.19c2.25.293 3.979.461 5.092.461 1.048 0 2.649-.167 4.746-.461l5.119 17.23 5.392-17.23c2.036.249 3.583.42 4.597.42 1.048 0 2.65-.171 4.75-.42v2.168h-.157c-1.725 0-2.25.796-2.25 3.626v.414l.652 17.65c.089 3.335.642 4.042 3.046 4.083v2.134c-2.93-.334-5.081-.46-6.567-.46-1.475 0-3.726.126-6.692.46v-2.134c2.533 0 3.087-.662 3.087-3.671v-.412l-.618-17.23-7.643 23.574-1.175-.041-7.246-23.533-.833 18.104v.338c0 2.209.618 2.871 2.841 2.871v2.134c-1.701-.167-2.93-.334-3.797-.334-.833 0-2.062.167-3.791.334v-2.134h-.002zM82.008 106.075c0-.832-.027-1.461-.154-1.881-.153-.621-.795-1.117-1.417-1.117-1.014 0-1.82 1.083-1.82 2.418 0 .498.126.953.373 1.834l-5.952 3.25c-.28-.915-.372-1.41-.372-2.042 0-3.797 4.688-7.427 9.534-7.427 4.378 0 6.687 2.504 6.687 7.093v10.719c0 1.547.307 2.421.83 2.421.406 0 .741-.253 1.24-.789l.795 1.168c-.642.914-1.137 1.536-1.537 1.871-.894.758-2.342 1.253-3.701 1.253-.71 0-1.417-.126-2.063-.372-1.301-.417-1.728-.922-2.342-2.67-.341.454-.622.832-.802 1-1.141 1.335-2.688 2.042-4.443 2.042-3.671 0-5.334-1.915-5.334-6.174 0-1.622.369-3.001 1.021-3.957.922-1.339 1.97-2.009 6.314-3.927 1.574-.67 1.977-.915 3.145-1.503v-3.21h-.002zm0 4.883c-1.571.834-2.097 1.209-2.677 2.169-.622 1-.895 2.291-.895 4.292 0 2.756.489 3.964 1.663 3.964.092 0 .219 0 .311-.04.676-.168 1.137-.294 1.291-.414.038-.047.153-.208.307-.502v-9.469zM93.731 117.713c.154 1 .373 1.714.553 2.209.615 1.547 2.25 2.796 3.61 2.796 1.109 0 2.006-.996 2.006-2.164 0-1.086-.623-2.22-1.883-3.381l-1.571-1.417c-2.933-2.715-4.043-4.968-4.043-8.093 0-4.049 2.589-6.761 6.447-6.761 2.062 0 3.266.376 6.16 1.796v5.631h-1.418c-.209-1-.426-1.881-.672-2.588-.525-1.547-1.572-2.589-2.621-2.589-1.021 0-1.664.882-1.664 2.091 0 1.331.77 2.379 3.637 4.924 2.807 2.499 3.764 4.295 3.764 7.252 0 4.258-2.807 7.468-6.604 7.468a8.71 8.71 0 0 1-2.777-.461l-.953-.246a2.629 2.629 0 0 0-.741-.123c-.461 0-.676.168-.922.789h-1.547l-.27-7.133h1.509zM107.141 103.077c2.467-1.092 3.395-1.714 4.932-3.261 1.543-1.588 2.035-2.376 2.896-4.797h1.146v6.679h5.547l-.547 2.421h-5v13.594c0 2.294.588 3.336 1.844 3.336 1.08 0 2.193-1.042 3.184-2.916l1.018 1.208c-.561 1.162-1.045 2.042-1.551 2.667-1.256 1.756-3.537 2.838-5.977 2.838-3.365 0-5.512-2.128-5.512-5.505v-15.222h-1.98v-1.042z"/><path d="M139.787 111.293l-.219.748h-11.281c.176 2.674.271 3.377.736 5.132.738 2.749 2.336 4.463 4.16 4.463.717 0 1.455-.208 2.096-.628 1.203-.707 1.885-1.499 3.148-3.671l1.045 1.335c-.457.796-.887 1.544-1.291 2.131-1.85 2.79-4.412 4.169-7.615 4.169-5.613 0-9.281-4.545-9.281-11.51 0-7.219 3.969-12.352 9.645-12.352 3.83 0 6.754 2.422 7.525 6.133.342 1.588.561 2.548.744 2.875.027.082.15.208.396.42l.192.755zm-11.535-1.049h4.473c-.094-4.797-.805-7.252-2.068-7.252-.826 0-1.543 1.042-1.906 2.581-.288 1.462-.37 2.176-.499 4.671zM140.217 103.825c3.572-.505 4.529-.748 9.037-2.756l.922.502v6.127l1.877-4.166c.834-1.756 1.545-2.548 2.404-2.548.52 0 1.176.253 1.912.587l2.834 1.581-2.219 6.468-2.623-1.503c-.703-.419-1.256-.621-1.686-.621-.623 0-1.115.454-1.613 1.335l-.887 1.707v7.51c0 3.127.963 4.083 4.098 4.083v2.134c-3.135-.334-5.512-.46-7.09-.46-1.51 0-3.824.126-6.912.46v-2.134c2.254-.123 2.904-1.082 2.904-4.46v-8.632c0-2.465-.219-2.752-1.852-3.339-.219-.127-.58-.253-1.107-.457v-1.418h.001zM78.969 43.656c1.782 0 3.09 1.097 3.09 2.629 0 1.53-1.308 2.629-3.09 2.629-1.786 0-3.101-1.1-3.101-2.629.001-1.532 1.315-2.629 3.101-2.629zM78.002 47c.028.7.048 1.608.967 1.608.908 0 .936-.909.963-1.608v-1.434c-.027-.693-.055-1.602-.963-1.602-.919 0-.939.908-.967 1.602V47zM82.759 48.522c.615 0 .622-.273.622-.68v-3.278c0-.393-.161-.519-.622-.519v-.255h2.571v1.048h.031c.181-.413.594-1.182 1.257-1.182.614 0 .768.403.768.854 0 .396-.188.761-.721.761-.522 0-.481-.42-.802-.42-.208 0-.475.406-.475.567v2.404c0 .492.154.7.86.7v.252h-3.49v-.252h.001zM87.697 48.522c.615 0 .628-.273.628-.68v-3.278c0-.393-.167-.519-.628-.519v-.255h2.636v4.053c0 .406.014.68.495.68v.252h-3.131v-.253zm1.629-7.321c.642 0 1.069.314 1.069.84 0 .516-.427.83-1.069.83-.639 0-1.065-.314-1.065-.83 0-.525.427-.84 1.065-.84zM97.367 44.425h-.914c.348.307.536.707.536 1.134 0 1.055-1.167 1.734-2.629 1.734-.707 0-1.076.082-1.076.39 0 .324.355.44.909.44.294 0 .475-.021.922-.021 1.086 0 2.241.267 2.241 1.468 0 1.387-1.609 1.807-3.009 1.807-.861 0-2.671-.085-2.671-1.093 0-.468.428-.707.95-.809v-.021c-.495-.157-.816-.567-.816-1 0-.673.648-.994 1.335-1.294-.929-.342-1.561-.868-1.561-1.708 0-1.168 1.353-1.796 2.804-1.796.434 0 1.038.103 1.427.202h1.553v.567h-.001zm-2.58 5.217c-.502 0-1.117 0-1.608-.072-.188.171-.307.386-.307.618 0 .663.901.816 1.533.816.601 0 2.028-.14 2.028-.867 0-.236-.17-.496-.918-.496h-.728v.001zm-.516-5.678c-.68 0-.68.854-.68 1.434 0 .622.034 1.516.721 1.516.666 0 .68-.707.68-1.516 0-.427 0-1.434-.721-1.434zM97.689 48.522c.615 0 .629-.273.629-.68v-3.278c0-.393-.168-.519-.629-.519v-.255h2.629v4.053c0 .406.014.68.506.68v.252h-3.135v-.253zm1.627-7.321c.646 0 1.066.314 1.066.84 0 .516-.42.83-1.066.83-.641 0-1.066-.314-1.066-.83 0-.525.426-.84 1.066-.84zM101.307 48.522c.615 0 .629-.273.629-.68v-3.278c0-.393-.17-.519-.629-.519v-.255h2.637v.655h.018c.258-.362.832-.789 1.746-.789 1.094 0 1.693.495 1.693 1.396v2.79c0 .406.014.68.629.68v.252h-3.121v-.252c.484 0 .498-.273.498-.68v-2.383c0-.669-.027-1.069-.6-1.069-.404 0-.863.341-.863.648v2.804c0 .406.014.68.494.68v.252h-3.131v-.252zM113.916 47.843c0 .185 0 .43.309.43a.476.476 0 0 0 .252-.065v.26c-.396.256-.902.447-1.365.447-.568 0-.971-.226-1.162-.666-.512.365-1.174.666-1.871.666-.889 0-1.447-.365-1.447-1.093 0-1.195 2.117-1.762 3.285-2.062v-.908c0-.642-.273-.888-.826-.888-.41 0-.807.16-.807.427 0 .287.342.301.342.741 0 .434-.443.714-.963.714-.541 0-.861-.352-.861-.769 0-1.072 1.523-1.421 2.582-1.421 1.428 0 2.533.267 2.533 1.615v2.572h-.001zm-2-1.704c-.662.146-1.291.529-1.291 1.181 0 .301.109.768.572.768.383 0 .719-.147.719-.607v-1.342zM114.818 48.522c.615 0 .629-.273.629-.68v-5.675c0-.386-.164-.512-.629-.512v-.259h2.629v6.446c0 .406.014.68.498.68v.252h-3.127v-.252zM72.618 136.322h-.915c.348.308.546.707.546 1.134 0 1.062-1.178 1.734-2.64 1.734-.703 0-1.075.082-1.075.396 0 .313.355.434.908.434.3 0 .478-.021.925-.021 1.083 0 2.237.267 2.237 1.468 0 1.394-1.608 1.807-3.009 1.807-.86 0-2.67-.086-2.67-1.086 0-.475.427-.714.953-.819v-.021c-.499-.153-.82-.566-.82-.99 0-.68.656-.994 1.335-1.294-.922-.353-1.554-.874-1.554-1.714 0-1.168 1.346-1.8 2.8-1.8.434 0 1.042.105 1.424.205h1.554v.567h.001zm-2.582 5.218c-.502 0-1.117 0-1.608-.072-.188.168-.307.387-.307.615 0 .665.901.819 1.533.819.601 0 2.029-.14 2.029-.867 0-.239-.171-.495-.919-.495h-.728zm-.516-5.679c-.679 0-.679.851-.679 1.431 0 .625.041 1.52.72 1.52.666 0 .68-.707.68-1.52 0-.423 0-1.431-.721-1.431zM76.353 135.551c1.783 0 3.091 1.099 3.091 2.629 0 1.533-1.308 2.633-3.091 2.633-1.786 0-3.093-1.1-3.093-2.633 0-1.531 1.307-2.629 3.093-2.629zm-.966 3.352c.028.69.055 1.599.966 1.599.909 0 .936-.908.963-1.599v-1.434c-.027-.7-.055-1.608-.963-1.608-.911 0-.938.908-.966 1.608v1.434zM80.086 140.42c.618 0 .631-.267.631-.68v-5.679c0-.383-.16-.516-.631-.516v-.252h2.636v6.446c0 .413.007.68.499.68v.26h-3.135v-.259zM83.708 140.42c.615 0 .735-.1.735-.96v-3.165h-.735v-.499h.735v-.983c0-1.134 1.014-1.714 2.294-1.714.84 0 1.827.335 1.827 1.147 0 .396-.338.663-.745.663-.502 0-.775-.26-.775-.629 0-.44.259-.434.259-.659 0-.105-.126-.208-.307-.208-.553 0-.553.546-.553 1.355v1.027h1.076v.499h-1.076v3.165c0 .827.348.96 1.076.96v.26h-3.812v-.259h.001zM91.194 135.916c.922-.56 1.823-1.342 2.404-2.076h.328v1.956h1.086v.499h-1.086v3.459c0 .267.058.379.287.379.174 0 .359-.133.574-.461l.273.126c-.414.711-.901 1.015-1.841 1.015-.495 0-1.291-.153-1.291-1.072v-3.445h-.734v-.38zM95.473 140.42c.614 0 .628-.267.628-.68v-3.278c0-.386-.167-.519-.628-.519v-.249h2.582v1.048h.02c.182-.42.596-1.191 1.258-1.191.617 0 .777.406.777.854 0 .399-.195.765-.719.765-.533 0-.492-.42-.814-.42-.201 0-.475.406-.475.566v2.404c0 .488.154.7.861.7v.26h-3.49v-.26zM103.83 135.551c1.781 0 3.094 1.099 3.094 2.629 0 1.533-1.312 2.633-3.094 2.633-1.783 0-3.098-1.1-3.098-2.633 0-1.531 1.315-2.629 3.098-2.629zm-.963 3.352c.025.69.053 1.599.963 1.599.908 0 .936-.908.963-1.599v-1.434c-.027-.7-.055-1.608-.963-1.608-.91 0-.938.908-.963 1.608v1.434zM107.564 140.42c.615 0 .629-.267.629-.68v-5.679c0-.383-.164-.516-.629-.516v-.252h2.637v6.446c0 .413.006.68.492.68v.26h-3.129v-.259zM111.131 140.42c.613 0 .627-.267.627-.68v-5.679c0-.383-.156-.516-.627-.516v-.252h2.635v6.446c0 .413.014.68.506.68v.26h-3.141v-.259zM117.004 138.036c0 .97.471 1.902 1.693 1.902.758 0 1.168-.331 1.557-.785l.273.14c-.342.771-1.229 1.52-2.664 1.52-1.953 0-2.881-1.205-2.881-2.694 0-1.447 1.105-2.567 2.949-2.567.998 0 1.98.484 2.35 1.28.186.42.219.707.219 1.205h-3.496v-.001zm1.666-.379v-.516c0-.785-.074-1.28-.738-1.28-.785 0-.9.803-.941 1.796h1.679zM127.098 135.943c-.396 0-.512.219-.711.687l-1.926 4.637c-.463 1.096-.791 2.008-2.199 2.008-.613 0-1.188-.287-1.188-.84 0-.434.287-.728.832-.728.615 0 .773.294.828.707.006.167.047.229.184.242.273.024.561-.201.738-.642l.383-.946-2.281-4.425c-.191-.387-.342-.7-.744-.7v-.249h3.414v.249c-.418 0-.602.078-.602.301 0 .119.049.293.158.519l.969 2.141h.027l.779-1.96c.115-.294.17-.495.17-.635 0-.314-.266-.365-.643-.365v-.249h1.811v.248h.001z"/></g></svg>