<svg xmlns="http://www.w3.org/2000/svg" width="2500" height="2500" viewBox="0 0 192.756 192.756"><g fill-rule="evenodd" clip-rule="evenodd"><path fill="#fff" d="M0 0h192.756v192.756H0V0z"/><path d="M127.25 78.804c1.834.214 3.637 1.62 4.311 3.393.244.764.457 1.559.367 2.445l-.031 24.665c-.215 1.955-1.803 3.852-3.699 4.432l-1.283.244H13.216c-1.864-.213-3.698-1.619-4.371-3.393-.275-.703-.367-1.436-.336-2.262l.032-24.878c.213-1.926 1.742-3.79 3.606-4.401a9.106 9.106 0 0 1 1.314-.275l113.789.03z"/><path d="M126.945 81.524c.979.122 1.986 1.009 2.199 1.956l.092 1.101-.029 24.451c-.154.887-.918 1.865-1.834 2.139l-.947.123-112.934-.031c-1.009-.121-1.987-1.008-2.201-1.955l-.092-1.1.031-24.482c.122-.734.611-1.467 1.314-1.895.367-.184.764-.275 1.192-.336l113.209.029z" fill="#fff"/><path d="M40.143 94.346H36.75l-.764-1.651h-4.584c-.275.52-.52 1.085-.733 1.666h-3.423l4.584-9.688h3.393l4.92 9.673zM122.605 94.33l-3.392.031-.766-1.666h-4.552l-.764 1.666h-3.395l4.555-9.689h3.424l4.89 9.658zM64.38 86.415h-5.578V88.6h6.25l-1.589 1.604h-4.661v4.157h-3.071v-9.658h10.331l-1.682 1.712zM44.483 92.756h4.891l-1.315 1.697h-6.632v-9.659h3.056v7.962zM74.588 84.978c.979.122 2.079.611 2.354 1.65.397 1.651.153 3.576.183 5.349-.092.826-.311 1.554-1.136 1.982-.733.336-1.656.407-2.624.494-5.298-.036-6.514.086-7.06-2.079-.184-1.559-.092-3.27-.062-4.89.092-.795.367-1.589 1.131-2.078.489-.275 1.07-.397 1.682-.459l5.532.031zM100.553 91.702v-6.755h2.43v9.322h-3.729c-1.559-2.231-3.01-4.493-4.569-6.693v6.693h-2.46v-9.322h3.79l4.538 6.755zM53.377 94.361h-2.75v-9.292h2.75v9.292zM108.393 94.361h-2.721v-9.292h2.721v9.292zM148.369 86.75h-5.592v2.186h6.266l-1.621 1.635h-4.645V93c2.383.031 4.828 0 7.273 0l-1.498 1.696h-8.801v-9.627h10.299l-1.681 1.681zM163.621 86.75h-5.607v2.186h6.25l-1.621 1.635h-4.629v4.096h-3.041v-9.598h10.33l-1.682 1.681zM88.282 85.146c.646 0 1.283.504 1.528 1.146.336 1.192.489 2.934-.214 4.004a2.23 2.23 0 0 1-.917.489c.428.153.886.306 1.1.764.367.856.214 1.926.245 2.904h-2.537c0-1.131.143-2.955-.795-3.072h-3.576l1.008-1.666h2.873c.25 0 .428-.305.52-.489.031-.489.214-1.131-.122-1.528l-.428-.229h-4.493v6.984h-2.537v-9.307h8.345zM58.115 97.83c.611.092 1.284.504 1.528 1.146.336 1.191.489 2.934-.214 4.004a2.239 2.239 0 0 1-.917.488c.428.152.887.305 1.1.764.367.855.214 1.926.245 2.904H57.32c0-1.131.143-2.955-.795-3.072H52.95l1.008-1.666h2.873c.275-.029.428-.305.52-.488.03-.488.213-1.131-.123-1.527l-.428-.23h-4.493v6.984H49.77V97.83h8.345z"/><path d="M73.641 87.346c.336.062.673.291.825.627.275 1.069.275 2.506 0 3.576-.234.626-1.049.678-1.991.678-1.274 0-2.522.127-3.266-.341-.733-.703-.428-1.895-.489-2.903 0-.581.091-1.223.672-1.498l.489-.138h3.76v-.001z" fill="#fff"/><path d="M70.371 97.662c.978.121 2.078.611 2.353 1.65.397 1.65.153 3.576.184 5.348-.092.826-.311 1.555-1.136 1.982-.733.336-1.656.406-2.624.494-5.297-.035-6.514.086-7.06-2.078-.184-1.559-.092-3.271-.062-4.891.092-.795.367-1.59 1.131-2.078.489-.275 1.07-.398 1.681-.459l5.533.032z"/><path d="M69.423 100.045c.336.062.673.275.825.611.275 1.07.275 2.508 0 3.576-.234.627-.973.551-1.915.602-1.279.082-2.333.072-3.342-.266-.733-.703-.428-1.895-.489-2.902 0-.582.092-1.223.673-1.498l.489-.152 3.759.029zM32.197 90.632l1.345-3.24 1.497 3.24h-2.842zM114.658 90.632l1.344-3.24 1.498 3.24h-2.842z" fill="#fff"/><path d="M102.279 107.053h-3.392l-.764-1.658h-4.554l-.764 1.658h-3.392l4.553-9.682h3.423l4.89 9.682z"/><path fill="#fff" d="M94.333 103.332l1.345-3.24 1.498 3.24h-2.843z"/><path d="M164.447 106.73h-3.392l-.795-1.687h-4.555l-.764 1.687h-3.361l4.553-9.679h3.424l4.89 9.679zM184.252 106.73h-3.393l-.763-1.687h-4.616l-.734 1.687h-3.361l4.554-9.679h3.422l4.891 9.679zM172.301 99.404h-2.994v7.197h-2.873v-7.197h-4.646c.49-.766 1.07-1.559 1.65-2.324h10.576l-1.713 2.324zM103.318 97.387c1.07 2.293 2.141 4.615 3.209 6.938l2.873-6.893h13.725l-1.65 1.666h-5.609v2.217h6.221l-1.59 1.604h-4.631v2.445h7.26l-1.529 1.713h-8.803v-9.645l-4.553 9.645h-3.424l-4.891-9.689h3.392v-.001zM148.188 97.432c.787 0 1.559.322 2.016 1.055.855 1.65.617 3.902.459 5.838-.121.734-.396 1.498-1.1 1.957-.551.305-1.219.428-1.834.428h-7.977v-9.277h8.436v-.001zM47.54 99.771h-6.495v5.287h7.87l-1.803 2.088h-7.029c-.744 0-1.788-.682-1.788-2.186v-4.701c0-.801.32-1.682 1.115-2.109.55-.336 1.228-.459 1.864-.459h7.702l-1.436 2.08zM35.589 107.096h-2.72v-9.342h2.72v9.342zM77.064 97.754l1.925 6.785c.856-2.201 1.498-4.523 2.323-6.785h2.598l2.261 6.785c.672-2.232 1.314-4.523 1.956-6.785h2.689l-2.903 9.291h-3.179l-2.139-6.143-2.109 6.174h-3.179l-2.934-9.322h2.691zM21.286 97.783c.947 1.988 1.864 4.004 2.812 5.99l2.812-5.99h3.79v9.266h-2.43v-5.873l-3.225 5.873H23.15c-1.07-1.957-2.17-3.885-3.24-5.873v5.873h-2.415v-9.266h3.791z"/><path d="M147.209 99.725c.25 0 .631.117.795.504.295.734.305 2.537-.031 3.607-.107.438-.463.529-.855.504h-4.891v-4.615h4.982zM156.5 102.98l1.314-3.24 1.498 3.24H156.5zM176.305 102.98l1.345-3.24 1.467 3.24h-2.812z" fill="#fff"/><path d="M26.145 86.995H19.65v5.288h7.871l-1.803 2.122h-7.03c-.718 0-1.788-1.031-1.788-1.846v-5.074c0-1 .321-1.681 1.116-2.109.55-.336 1.192-.397 1.864-.458h7.702l-1.437 2.077z"/></g></svg>