<svg xmlns="http://www.w3.org/2000/svg" width="2500" height="2500" viewBox="0 0 192.756 192.756"><g fill-rule="evenodd" clip-rule="evenodd"><path fill="#fff" d="M0 0h192.756v192.756H0V0z"/><path d="M183.471 46.002H8.504v75.603h32.221v35.059h54.091c22.458 0 60.145-7.443 61.122-35.059h28.314V46.002h-.781z" fill="#fff" stroke="#fff" stroke-width=".894" stroke-miterlimit="2.613"/><path d="M112.781 120.82H84.466v-13.318h5.272c8.787 0 23.043 2.547 23.043 13.318zM9.48 46.982h173.991v73.838h-28.51c0-29.183-41.789-34.862-60.145-34.862H41.505v34.862H9.48V46.982zm26.558 20.957c-2.733 1.371-4.491 2.154-7.03 2.154-4.101 0-7.03-2.351-7.03-5.876s2.929-6.071 7.03-6.071c2.539 0 4.687.979 6.834 2.154v-4.505c-1.952-.979-4.491-1.567-7.03-1.567-7.616 0-11.716 4.897-11.716 9.989 0 5.093 3.71 9.989 11.326 9.989 2.733 0 4.882-.588 7.615-1.959v-4.308h.001zm28.706-13.515h-5.663L51.27 74.01h5.077l1.367-3.917h8.788l1.562 3.917h5.272l-8.592-19.586zm.39 12.34H59.08l2.929-7.638 3.125 7.638zm43.546-12.34h-4.881v11.948l-10.35-11.948h-4.491V74.01h4.882V61.475l10.74 12.535h4.1V54.424zm29.293 0h-5.664l-7.811 19.586h5.076l1.562-3.917h8.592l1.562 3.917h5.273l-8.59-19.586zm.39 12.34h-6.055l2.93-7.638 3.125 7.638zm38.664 3.525h-9.959V54.424h-4.883V74.01h14.842v-3.721zM84.466 120.82H41.505v34.863h53.311c18.356 0 60.145-5.875 60.145-34.863h-42.18c0 10.773-14.256 13.318-23.042 13.318h-5.272V120.82h-.001z" fill="#2e70b2"/></g></svg>