<svg xmlns="http://www.w3.org/2000/svg" width="2500" height="2500" viewBox="0 0 192.756 192.756"><g fill-rule="evenodd" clip-rule="evenodd"><path fill="#fff" d="M0 0h192.756v192.756H0V0z"/><path d="M48.919 166.336h59.339c-10.221 3.777-18.464 5.998-29.349 5.998-10.663-.223-19.819-1.982-29.99-5.998zM2.941 92.841h98.313v5.999s-98.218 0-98.22-.018c-.386-3.637-.093-5.981-.093-5.981zM3.534 86.843c.222-1.999.444-4.221.889-5.998h96.849v5.998H3.534zM6.083 74.848c.667-2 1.227-4.221 2.116-6.22h93.073v6.22H6.083zM10.864 62.629c.889-1.999 2-4.221 3.333-5.998h87.057v5.998h-90.39zM18.195 50.634c1.777-2 3.332-4.221 5.332-5.998h77.745v5.998H18.195zM129.07 153.043a41.228 41.228 0 0 1-7.611 5.998l-85.047.223c-2.666-1.777-5.79-4-8.236-6.221H129.07zM13.492 135.049s92.631.064 92.58 0c-1.949-2.406-3.543-6.064-3.543-6.064l-92.332-.154c.889 1.997 1.962 4.22 3.295 6.218zM7.7 123.053h93.117v-6.219H5.533c.82 3.002 1.278 4.221 2.167 6.219zM4.2 111.057l97.071-.221v-5.998H3.312c.222 1.998.443 4.221.888 6.219zM29.792 38.638h71.48V32.64H37.874c-2.666 1.777-5.639 3.777-8.082 5.998zM101.254 26.417H49.863c9.108-3.776 18.979-5.995 28.756-5.995 7.775 0 14.283.876 22.635 3.638v2.357zM121.734 48.415h-2.463c-.775.821-1.75 1.332-2.881 1.332-2.045 0-3.779-1.843-3.779-3.872 0-2.137 1.672-3.949 3.764-3.949 1.146 0 2.293.557 3.004 1.425h2.416c-.883-2.153-3.145-3.485-5.436-3.485-3.191 0-5.871 2.695-5.871 5.933 0 3.268 2.648 6.009 5.934 6.009 2.215-.001 4.445-1.318 5.312-3.393zm5.832-8.379l-4.771 11.446h2.34l1.27-2.958h4.059l1.238 2.958h2.34l-4.818-11.446h-1.658zm2.059 6.427h-2.445l1.223-3.469 1.222 3.469zm6.383 5.02h2.121v-4.337h.42c1.131 0 2.461.062 3.406-.697.898-.712 1.363-1.796 1.363-2.927a3.49 3.49 0 0 0-1.518-2.881c-.961-.65-1.998-.604-3.098-.604h-2.695v11.446h.001zm2.51-6.397h-.389v-2.989h.389c.465 0 1.115-.031 1.58.093.635.17 1.1.667 1.1 1.363 0 .667-.42 1.208-1.039 1.41-.513.154-1.116.123-1.641.123zm6.904-5.05v11.446h2.121V40.036h-2.121zm6.033 2.06v9.386h2.121v-9.386h2.139v-2.06h-6.365v2.06h2.105zm8.756-2.06l-4.77 11.446h2.338l1.27-2.958h4.059l1.24 2.958h2.338l-4.816-11.446h-1.659zm2.06 6.427h-2.447l1.223-3.469 1.224 3.469zm6.375-6.427v11.446h5.621v-2.06h-3.5v-9.387h-2.121v.001zM110.684 58.473v11.672h2.922c1.121-.032 2.305-.095 3.236-.774.9-.679 1.422-1.643 1.422-2.779 0-1.327-.711-2.417-1.99-2.828.854-.41 1.279-1.311 1.279-2.227 0-1.09-.68-2.132-1.643-2.622-.979-.489-2.053-.442-3.111-.442h-2.115zm3.062 9.571h-.9v-2.985h.949c.521 0 1.041-.016 1.531.236.506.285.773.632.773 1.201 0 .49-.174.869-.568 1.137-.568.379-1.152.411-1.785.411zm-.488-5.086h-.412v-2.385h.396c.457 0 1.01-.079 1.422.111.426.174.725.553.725 1.026 0 .442-.252.885-.662 1.074s-1.012.174-1.469.174zm10.957-4.482l-4.865 11.672h2.387l1.295-3.017h4.137l1.264 3.017h2.385l-4.912-11.672h-1.691zm2.101 6.554h-2.496l1.248-3.538 1.248 3.538zm6.155-6.554v11.672h2.164V61.65l4.896 8.497h2.4V58.476h-2.164v8.529l-4.863-8.529h-2.433zm12.496 0v11.672h2.162V65.03l3.635 5.117h2.59l-4.406-5.938 4.406-5.733h-2.59l-3.635 5.054v-5.054h-2.162zM122.449 82.718c0-3.42-2.736-6.156-6.125-6.156s-6.125 2.736-6.125 6.156c0 3.404 2.785 6.108 6.125 6.108s6.125-2.703 6.125-6.108zm-10.07-.048c0-2.211 1.75-3.993 3.945-3.993s3.945 1.782 3.945 3.993c0 2.18-1.799 4.041-3.945 4.041-2.148 0-3.945-1.861-3.945-4.041zm12.189-5.902v11.755h2.18v-4.82h3.627v-2.115h-3.627v-2.705h3.803v-2.116h-5.983v.001zm12.696 0v11.755h5.775v-2.115h-3.596v-9.64h-2.179zm11.062 0l-4.9 11.755h2.402l1.305-3.038h4.168l1.273 3.038h2.402l-4.949-11.755h-1.701zm2.115 6.602h-2.514l1.258-3.563 1.256 3.563zm6.547-4.487v9.64h2.18v-9.64h2.195v-2.116h-6.539v2.116h2.164zm5.004-2.115l4.566 11.755h1.797l4.549-11.755h-2.289l-3.166 8.94-3.166-8.94h-2.291zm12.627-.008v11.756h2.18V76.76h-2.18zm8.652.008l-4.898 11.755h2.402l1.303-3.038h4.168l1.273 3.038h2.402l-4.947-11.755h-1.703zm2.118 6.602l-1.258-3.563-1.256 3.563h2.514zM124.645 140.691c-11.484 0-20.752-9.268-20.752-20.549 0-11.484 9.268-20.752 20.752-20.752s20.752 9.268 20.752 20.752c-.001 11.282-9.268 20.549-20.752 20.549zM113.631 141.084l-96.165.117c1.819 2.479 3.173 4.289 4.95 6.066h112.582a67.13 67.13 0 0 0 4.916-6.221l-4.141.043c-4.074 2.064-6.141 2.301-10.629 2.771-4.482.001-7.675-.766-11.513-2.776z"/></g></svg>