<svg xmlns="http://www.w3.org/2000/svg" width="2500" height="1505" viewBox="0 0 86.793 52.244"><path d="M18.567 47.083c-.123-.442-.359-1.274-1.634-1.274-.74 0-1.83.493-1.83 2.58 0 1.326.524 2.519 1.83 2.519.853 0 1.449-.483 1.634-1.388h1.542c-.308 1.604-1.356 2.724-3.207 2.724-1.963 0-3.372-1.326-3.372-3.875 0-2.58 1.491-3.896 3.392-3.896 2.21 0 3.104 1.521 3.187 2.611h-1.542zM25.551 50.445c-.38 1.315-1.47 1.747-2.405 1.747-1.542 0-2.724-.74-2.724-2.991 0-.658.226-2.765 2.622-2.765 1.079 0 2.569.514 2.569 3.012v.257h-3.752c.041.411.124 1.336 1.285 1.336.401 0 .812-.205.925-.596h1.48z"/><path d="M24.133 48.77c-.083-.884-.648-1.151-1.11-1.151-.679 0-1.039.432-1.121 1.151h2.231z" fill="#fff"/><path d="M25.841 46.58h1.377v.945h.021c.298-.555.627-1.089 1.501-1.089.093 0 .185.01.277.021v1.459c-.123-.021-.277-.021-.411-.021-1.12 0-1.326.699-1.326 1.306v2.848h-1.438V46.58zM30.748 46.58h.895v1.028h-.895v2.971c0 .319.011.442.597.442.092 0 .195-.01.298-.021v1.09c-.227.01-.452.021-.679.021h-.185c-1.244 0-1.471-.473-1.471-1.182V45.1h1.439v1.48zM36.671 50.979c0 .647.144.792.319.854v.216h-1.553a2.382 2.382 0 0 1-.133-.648c-.329.339-.792.792-1.768.792-.822 0-1.665-.462-1.665-1.593 0-1.069.678-1.614 1.593-1.748l1.296-.195c.226-.031.503-.123.503-.432 0-.606-.576-.637-.946-.637-.72 0-.843.442-.884.761h-1.388c.164-1.676 1.326-1.912 2.446-1.912.771 0 2.179.236 2.179 1.583v2.959z"/><path d="M35.263 49.386c-.144.113-.38.206-.977.298-.535.092-.977.226-.977.822 0 .503.391.658.668.658.637 0 1.285-.411 1.285-1.08v-.698z" fill="#fff"/><path d="M37.38 46.58h1.438v5.469H37.38zM37.38 44.596h1.438v1.337H37.38zM44.523 52.049h-1.439v-3.32c0-.401-.021-1.08-.936-1.08-.637 0-1.13.432-1.13 1.264v3.136h-1.439V46.58h1.377v.802h.021c.195-.329.607-.946 1.646-.946 1.068 0 1.901.627 1.901 1.83v3.783z"/><path d="M46.575 52.049h-1.542v-6.075h-2.231v-1.306h6.003v1.306h-2.23z"/><path d="M52.065 50.445c-.381 1.315-1.471 1.747-2.406 1.747-1.542 0-2.724-.74-2.724-2.991 0-.658.227-2.765 2.621-2.765 1.08 0 2.57.514 2.57 3.012v.257h-3.752c.041.411.123 1.336 1.285 1.336.401 0 .812-.205.925-.596h1.481z"/><path d="M50.646 48.77c-.082-.884-.647-1.151-1.11-1.151-.678 0-1.038.432-1.12 1.151h2.23z" fill="#fff"/><path d="M57.667 50.445c-.38 1.315-1.47 1.747-2.405 1.747-1.542 0-2.724-.74-2.724-2.991 0-.658.226-2.765 2.621-2.765 1.079 0 2.57.514 2.57 3.012v.257h-3.752c.042.411.124 1.336 1.285 1.336.401 0 .812-.205.926-.596h1.479z"/><path d="M56.249 48.77c-.082-.884-.647-1.151-1.11-1.151-.679 0-1.038.432-1.12 1.151h2.23z" fill="#fff"/><path d="M63.366 52.049h-1.408v-.689h-.021c-.35.617-.987.833-1.583.833-1.624 0-2.303-1.439-2.303-2.94 0-1.891 1.069-2.816 2.271-2.816.926 0 1.357.503 1.583.853h.021v-2.621h1.439v7.38z"/><path d="M60.713 51.01c.915 0 1.275-.76 1.275-1.573 0-.874-.247-1.758-1.234-1.758-.915 0-1.223.812-1.223 1.676.001.648.258 1.655 1.182 1.655z" fill="#fff"/><path d="M69.89 49.596H67v-2.99h2.89v-2.049h-5.107v7.256h5.107z"/><path d="M70.292 44.557v2.452h-2.888v2.184h2.888v2.62h2.151v-7.256zM72.364 13.746h8.208v8.856h-8.208z"/><path fill="#fff" d="M72.796 14.178h7.344v7.992h-7.344z"/><path d="M71.932 13.746h-8.208v3.537h.432v-3.105H71.5v7.992h-4.185v.432h4.617zM63.292 17.283v-3.537h-8.208v3.537h.432v-3.105h7.344v3.105zM72.364 23.142h8.208v8.856h-8.208z"/><path fill="#fff" d="M72.796 23.574h7.344v7.992h-7.344z"/><path d="M67.315 31.566v.432h4.617v-8.856h-4.617v.432H71.5v7.992zM72.364 32.538h8.208v8.856h-8.208z"/><path fill="#fff" d="M72.796 32.97h7.344v7.992h-7.344z"/><path d="M63.724 41.394h8.208v-8.856h-4.617v.432H71.5v7.992h-7.344v-3.807h-.432zM55.084 41.394h8.208v-4.239h-.432v3.807h-7.344v-3.807h-.432z"/><path d="M81.862 12.99C81.36 5.693 75.277 0 67.936 0c-7.347 0-13.423 5.69-13.925 12.99h-.007v4.293h.432v-3.861h27v28.835h-27v-5.103h-.432v5.535h27.863l-.005-29.699z"/><path d="M67.936.432c7.104 0 12.991 5.501 13.492 12.558h-.79c-.499-6.606-6.06-11.768-12.702-11.768-6.663 0-12.2 5.153-12.7 11.768h-.792C54.945 5.931 60.827.432 67.936.432z" fill="#fff"/><path d="M67.936 9.775a4.197 4.197 0 0 0-4.069 3.215h-.34a4.492 4.492 0 0 1 4.409-3.547 4.492 4.492 0 0 1 4.41 3.547h-.34a4.198 4.198 0 0 0-4.07-3.215z"/><path d="M71.561 12.99h-7.25a3.767 3.767 0 0 1 3.625-2.783 3.766 3.766 0 0 1 3.625 2.783z" fill="#fff"/><path d="M71.398 10.415a4.448 4.448 0 0 0-.189-.175l5.194-5.194c.074.07.146.142.219.213l-5.224 5.156z"/><path d="M70.871 9.968a4.927 4.927 0 0 0-2.215-.9v-7.39a12.288 12.288 0 0 1 7.428 3.077l-5.213 5.213z" fill="#fff"/><path d="M68.224 9.024c-.096-.005-.191-.013-.288-.013-.061 0-.12.006-.18.008V1.658c.06-.001.119-.004.18-.004.097 0 .192.004.288.007v7.363z"/><path d="M67.324 9.053a4.93 4.93 0 0 0-2.362.946l-5.216-5.216a12.275 12.275 0 0 1 7.578-3.114v7.384z" fill="#fff"/><path d="M59.428 5.075l5.2 5.199c-.064.058-.128.115-.188.175l-5.23-5.16c.072-.072.144-.143.218-.214z"/><path d="M58.912 5.602l5.234 5.166a4.95 4.95 0 0 0-1.061 2.223h-7.416a12.23 12.23 0 0 1 3.243-7.389zM71.693 10.73l5.229-5.161a12.233 12.233 0 0 1 3.282 7.42h-7.417a4.928 4.928 0 0 0-1.094-2.259z" fill="#fff"/><path d="M38.131 9.814c.208 0 .389-.123.445.076.187.668.248.779.248.797s-.051.047-.084.047c-.04 0-.057-.006-.079-.041-.271-.51-.541-.703-.952-.703h-.688c-.096 0-.136.064-.136.369v2.262c0 .252.006.633.017.926.005.158.04.258.485.258.157 0 .157.035.157.1 0 .053 0 .076-.045.076h-1.786c-.045 0-.045-.023-.045-.076 0-.064 0-.1.157-.1.445 0 .479-.1.485-.258.011-.293.017-.674.017-.926v-2.262c0-.369-.057-.369-.248-.369h-.614c-.417 0-.699.357-.919.703-.022.035-.045.035-.096.035s-.079-.023-.079-.041.028-.041.271-.785c.022-.064.226-.088.457-.088h3.032z"/><path d="M39.893 11.959s.006 1.295.018 1.588c.005.158.039.258.484.258.158 0 .158.035.158.1 0 .053 0 .076-.045.076h-1.786c-.045 0-.045-.023-.045-.076 0-.064 0-.1.157-.1.445 0 .479-.1.485-.258.011-.293.011-2.918.005-3.188-.005-.346-.101-.393-.592-.393-.062 0-.062-.047-.062-.1 0-.035.012-.076.051-.076h1.786c.04 0 .051.041.051.076 0 .053 0 .1-.062.1-.49 0-.586.047-.592.393-.006.27-.012 1.424-.012 1.424h2.237s-.005-1.154-.011-1.424c-.006-.346-.102-.393-.592-.393-.062 0-.062-.047-.062-.1 0-.035.012-.076.051-.076h1.787c.039 0 .051.041.051.076 0 .053 0 .1-.062.1-.49 0-.586.047-.592.393-.005.27-.005 2.895.006 3.188.006.158.039.258.484.258.158 0 .158.035.158.1 0 .053 0 .076-.045.076h-1.787c-.045 0-.045-.023-.045-.076 0-.064 0-.1.158-.1.445 0 .479-.1.484-.258.012-.293.017-1.588.017-1.588h-2.236zM44.424 13.969c-.828 0-.851.012-.891.012-.045 0-.045-.023-.045-.076 0-.064 0-.1.118-.1.445 0 .479-.1.485-.258.011-.293.017-.674.017-.926v-1.436c0-.416-.006-.557-.012-.826-.005-.346-.102-.393-.552-.393-.062 0-.062-.047-.062-.1 0-.035.012-.076.051-.076.045 0 3.095 0 3.106.047.146.539.046.676.001.651-.144-.081-.081.046-.577-.388a.58.58 0 0 0-.389-.135c-.146 0-.631.023-.845.035-.129.006-.164.123-.164.451v1.348h.918c.608 0 .519-.258.53-.322.068-.434.084-.434.124-.434.068 0 .107.006.107.041 0 0 .028 1.43.028 1.576 0 .041-.04.047-.073.047-.067 0-.079-.023-.085-.064-.084-.633-.051-.668-.598-.668h-.951v1.512c0 .229.067.305.276.305h1.341c.215 0 .379-.319.498-.478.022-.023.039-.035.073-.035.056 0 .09.006.09.041 0 .018-.131.647-.193.647h-2.326zM20.79 24.531c-.055.134-.149.329-.324.329-.23 0-.244-.299-.406-.896-1.689-6.061-2.054-7.867-2.297-8.763-.203-.761-.379-.761-1.284-.761-.081 0-.108-.06-.108-.224 0-.224.027-.224.163-.224h3.716c.122 0 .122.164.122.254 0 .075 0 .194-.136.194-.743 0-1.054 0-1.054.418 0 .433.108.836 1.243 5.464.46 1.866.635 2.284.729 2.284.203 0 .487-.985 2.487-5.195.202-.418.243-.612.243-.776 0-.149-.027-.343-.217-1.06-.297-1.135-.513-1.135-1.445-1.135-.081 0-.108-.119-.108-.224 0-.09.041-.224.067-.224h3.96c.108 0 .148.044.148.179 0 .104 0 .269-.121.269-.798 0-1.136 0-1.136.522 0 .418.216 1.344 1.662 6.569.203.702.257 1.06.365 1.06.081 0 1.567-4.18 2.229-6.285.095-.313.271-.836.271-1.194 0-.597-.338-.672-.852-.672-.419 0-.459 0-.459-.239 0-.089.054-.209.121-.209h3.203c.162 0 .176.134.176.224 0 .119-.027.224-.122.224-.582 0-1.163 0-1.622 1.284-1.203 3.358-2.514 6.732-3.136 8.688-.095.283-.202.448-.283.448-.176 0-.23-.045-.284-.224-.743-2.225-1.419-4.673-2.027-6.808-.081-.283-.081-.358-.162-.358-.067 0-.162.239-.567 1.12l-2.755 5.941z"/><path d="M31.041 18.597c-.009-.582-.161-.661-.938-.661-.098 0-.098-.079-.098-.168 0-.06.018-.128.08-.128.071 0 .849.04 1.412.04.572 0 1.35-.04 1.421-.04.062 0 .081.069.081.128 0 .089 0 .168-.099.168-.777 0-.93.079-.938.661-.009.454-.009 4.877.009 5.371.009.267.062.435.769.435.25 0 .25.059.25.167 0 .089 0 .128-.071.128h-2.833c-.071 0-.071-.04-.071-.128 0-.108 0-.167.25-.167.706 0 .76-.168.769-.435.015-.494.015-4.917.007-5.371zM33.462 17.936c-.08 0-.08-.06-.08-.158 0-.118.026-.138.098-.138.054 0 .688.04.849.04.134 0 .652-.04.795-.04.027 0 .044.03.072.059 1.045 1.304 2.458 3.169 4.46 5.44.044-.918.089-2.666.089-3.634 0-1.51-.34-1.569-1.117-1.569-.098 0-.116-.06-.116-.139 0-.099.027-.158.099-.158.143 0 1.046.04 1.296.04.196 0 1.117-.04 1.171-.04s.071.069.071.128c0 .138-.036.168-.08.168-.725 0-.876.099-.992.819-.054.346-.161 4.986-.161 5.924 0 .128-.045.138-.134.138-.081 0-.831-1.046-4.961-5.954-.009.849-.026 1.698-.026 2.547 0 1.461.036 2.3.036 2.508 0 .326.206.484.697.484.456 0 .456.049.456.148 0 .119-.018.148-.089.148h-2.378c-.089 0-.089-.069-.089-.188 0-.089.295-.108.402-.108.214 0 .572-.05.608-.435.009-.188.107-2.054.107-4.917 0-.178 0-.375-.019-.424-.062-.178-.545-.691-.732-.691h-.332zM42.517 19.989c0-.701-.009-.938-.018-1.392-.009-.582-.161-.661-.805-.661-.098 0-.098-.079-.098-.168 0-.06.018-.128.081-.128.071 0 .849.04 1.412.04.465 0 .867-.04 1.135-.04 1.358 0 2.029.099 2.789.662.84.622 1.188 1.797 1.188 2.705 0 1.086-.349 2.014-.965 2.656a3.593 3.593 0 0 1-2.511 1.037c-.232 0-.572-.02-1.636-.02-1.313 0-1.35.02-1.412.02-.071 0-.071-.04-.071-.128 0-.108 0-.167.25-.167.42 0 .626-.168.635-.435.018-.494.026-1.136.026-1.56v-2.421z"/><path d="M43.402 23.938c0 .346.269.464.84.464 1.609 0 2.941-1.225 2.896-3.327-.036-1.57-.697-2.38-1.171-2.706-.501-.355-1.108-.434-1.681-.434-.885 0-.885.059-.885.74v5.263z" fill="#fff"/><path d="M52.634 24.817c-2.404 0-3.307-2.113-3.307-3.436 0-2.379 1.6-3.831 3.307-3.831 1.895 0 3.316 1.254 3.316 3.781.001 1.373-.903 3.486-3.316 3.486z"/><path d="M52.634 17.807c-2.082 0-2.243 2.577-2.243 3.386 0 1.362.599 3.367 2.243 3.367 2.109 0 2.252-2.202 2.252-3.376.001-1.413-.598-3.377-2.252-3.377z" fill="#fff"/><path d="M59.445 24.609c-.036.089-.099.217-.215.217-.151 0-.161-.198-.268-.592-1.117-4.009-1.359-5.203-1.52-5.795-.134-.503-.25-.503-.85-.503-.054 0-.071-.04-.071-.148 0-.148.018-.148.107-.148.143 0 .813.04 1.216.04.295 0 1.01-.04 1.242-.04.08 0 .08.109.08.168 0 .049 0 .128-.089.128-.492 0-.697 0-.697.276 0 .286.071.553.822 3.613.304 1.234.42 1.511.482 1.511.134 0 .322-.652 1.645-3.436.134-.277.161-.405.161-.514 0-.099-.019-.227-.144-.701-.196-.75-.339-.75-.956-.75-.054 0-.071-.079-.071-.148 0-.059.026-.148.044-.148.429 0 .876.04 1.323.04.429 0 .867-.04 1.296-.04.071 0 .099.03.099.119 0 .069 0 .178-.081.178-.527 0-.75 0-.75.345 0 .277.143.889 1.099 4.344.135.464.17.701.242.701.053 0 1.037-2.765 1.475-4.157.062-.208.179-.553.179-.79 0-.395-.224-.444-.563-.444-.277 0-.304 0-.304-.158 0-.059.036-.138.08-.138.206 0 .787.04 1.082.04.25 0 .831-.04 1.036-.04.107 0 .116.089.116.148 0 .079-.018.148-.08.148-.385 0-.769 0-1.072.849-.796 2.222-1.663 4.453-2.074 5.746-.062.188-.134.296-.188.296-.116 0-.152-.03-.188-.148-.491-1.471-.938-3.09-1.341-4.502-.054-.188-.054-.237-.107-.237-.044 0-.107.158-.375.741l-1.822 3.929zM9.633 33.102c.087 0 .16.015.16.185 0 .185-.204 1.711-.204 2.035 0 .139-.059.231-.204.277-.742.247-1.935.586-4.001.586C1.47 36.185 0 32.886 0 30.819c0-3.715 2.605-5.981 5.384-5.981 2.474 0 3.958.354 3.958.509 0 .94.276 2.343.276 2.467 0 .139-.175.2-.276.2-.044 0-.117 0-.16-.124-.626-1.696-1.543-2.652-3.42-2.652-1.804 0-4.03 1.819-4.03 5.52 0 3.407 2.299 5.026 4.292 5.026 1.106 0 2.547-.647 3.376-2.559.029-.078.088-.123.233-.123zM13.726 35.976c-2.311 0-3.178-2.138-3.178-3.477 0-2.408 1.537-3.876 3.178-3.876 1.821 0 3.188 1.269 3.188 3.826 0 1.389-.868 3.527-3.188 3.527z"/><path d="M13.726 28.882c-2.001 0-2.156 2.607-2.156 3.427 0 1.378.576 3.407 2.156 3.407 2.027 0 2.165-2.228 2.165-3.417 0-1.429-.575-3.417-2.165-3.417z" fill="#fff"/><path d="M24.065 31.09c0-.709-.008-.949-.017-1.409-.009-.59-.155-.669-.859-.669-.095 0-.095-.08-.095-.17 0-.06.018-.13.078-.13.068 0 .772.04 1.314.04.55 0 1.297-.04 1.366-.04.061 0 .077.07.077.13 0 .09 0 .17-.094.17-.748 0-.894.08-.902.669-.009.459-.018.699-.018 1.409v2.448c0 .43.009 1.079.026 1.578.008.36.249.41.901.41 1.323 0 2.599.382 3.002-1.037.061-.209.043-.279.12-.279.164 0 .181.03.181.12 0 .05-.181.437-.326 1.446-.009.06-.043.08-.086.08-.095 0-.846-.02-4.205-.02-1.263 0-.865.02-.925.02-.068 0-.068-.04-.068-.13 0-.109 0-.169.197-.169.26 0 .298-.17.307-.44.018-.499.026-1.148.026-1.578V31.09z"/><path d="M18.544 31.09c0-.709-.008-.949-.017-1.409-.009-.59-.155-.669-.859-.669-.094 0-.094-.08-.094-.17 0-.06.017-.13.078-.13.068 0 .772.04 1.314.04.55 0 1.297-.04 1.366-.04.061 0 .077.07.077.13 0 .09 0 .17-.094.17-.748 0-.894.08-.902.669-.009.459-.018.699-.018 1.409v2.448c0 .43.009 1.079.026 1.578.008.36.249.41.901.41 1.323 0 2.599.382 3.002-1.037.061-.209.043-.279.12-.279.164 0 .181.03.181.12 0 .05-.181.437-.326 1.446-.009.06-.043.08-.086.08-.095 0-.846-.02-4.205-.02-1.263 0-.865.02-.925.02-.068 0-.068-.04-.068-.13 0-.109 0-.169.197-.169.26 0 .298-.17.307-.44.018-.499.026-1.148.026-1.578V31.09zM30.926 35.836c-1.263 0-1.297.02-1.357.02-.069 0-.069-.04-.069-.13 0-.109 0-.169.181-.169.679 0 .73-.17.738-.44.018-.499.026-1.148.026-1.578V31.09c0-.709-.009-.949-.018-1.409-.009-.59-.154-.669-.842-.669-.095 0-.095-.08-.095-.17 0-.06.018-.13.078-.13h4.568c.197 0 .309 0 .326.08.224.919-.135.809-.135.869 0 .06-1.237-.649-1.495-.649-.223 0-.962.04-1.288.06-.198.01-.249.209-.249.769v2.298h1.466c.928 0 .754-.439.771-.549.103-.739.128-.739.188-.739.104 0 .163.01.163.07 0 0 .043 2.438.043 2.688 0 .07-.06.08-.111.08-.104 0-.12-.04-.129-.109-.129-1.079-.041-1.139-.874-1.139h-1.518v2.578c0 .39.103.52.421.52h2.044c.327 0 .582-.473.763-.743.034-.04.06-.06.111-.06.086 0 .138.01.138.07 0 .03-.204 1.033-.299 1.033h-3.546zM41.515 33.978c.052 0 .095.01.095.12 0 .12-.121 1.109-.121 1.318 0 .09-.035.15-.121.18-.438.16-1.143.38-2.362.38-2.311 0-4.042-2.138-4.042-3.477 0-2.408 2.401-3.876 4.042-3.876 1.461 0 2.337.229 2.337.33 0 .609.163 1.519.163 1.599 0 .09-.103.13-.163.13-.026 0-.069 0-.095-.08-.369-1.099-.91-1.718-2.019-1.718-1.065 0-3.244 1.179-3.244 3.577 0 2.208 2.221 3.257 3.398 3.257.653 0 1.504-.419 1.993-1.658.019-.053.053-.082.139-.082zM47.246 28.752c.318 0 .593-.21.679.13.284 1.139.378 1.329.378 1.359 0 .03-.077.08-.129.08-.06 0-.086-.01-.12-.07-.412-.869-.824-1.199-1.452-1.199h-1.048c-.146 0-.206.11-.206.63v3.856c0 .43.009 1.079.026 1.578.008.27.06.44.738.44.241 0 .241.06.241.169 0 .09 0 .13-.069.13-.06 0-.095-.02-1.366-.02-1.263 0-1.297.02-1.357.02-.069 0-.069-.04-.069-.13 0-.109 0-.169.241-.169.678 0 .73-.17.739-.44.018-.499.025-1.148.025-1.578v-3.856c0-.63-.086-.63-.378-.63h-.936c-.636 0-1.065.61-1.4 1.199-.035.06-.069.06-.146.06s-.12-.04-.12-.07c0-.03.043-.07.412-1.339.034-.11.344-.15.696-.15h4.621z"/><path d="M49.276 31.09c0-.709-.009-.949-.017-1.409-.008-.59-.155-.669-.902-.669-.095 0-.095-.08-.095-.17 0-.06.018-.13.077-.13.069 0 .816.04 1.357.04.55 0 1.297-.04 1.366-.04.06 0 .077.07.077.13 0 .09 0 .17-.095.17-.747 0-.894.08-.902.669-.008.459-.017.699-.017 1.409v2.448c0 .43.009 1.079.025 1.578.009.27.061.44.739.44.24 0 .24.06.24.169 0 .09 0 .13-.068.13-.061 0-.095-.02-1.366-.02-1.263 0-1.297.02-1.357.02-.068 0-.068-.04-.068-.13 0-.109 0-.169.24-.169.679 0 .73-.17.739-.44.017-.499.025-1.148.025-1.578V31.09zM55.04 35.976c-2.311 0-3.178-2.138-3.178-3.477 0-2.408 1.537-3.876 3.178-3.876 1.821 0 3.188 1.269 3.188 3.826-.001 1.389-.869 3.527-3.188 3.527z"/><path d="M55.04 28.882c-2.001 0-2.156 2.607-2.156 3.427 0 1.378.576 3.407 2.156 3.407 2.027 0 2.165-2.228 2.165-3.417 0-1.429-.576-3.417-2.165-3.417z" fill="#fff"/><path d="M58.914 29.012c-.078 0-.078-.06-.078-.16 0-.12.026-.14.095-.14.052 0 .662.04.816.04.129 0 .627-.04.765-.04.025 0 .043.03.068.06 1.005 1.318 2.362 3.207 4.287 5.505.043-.929.085-2.698.085-3.677 0-1.528-.327-1.588-1.074-1.588-.095 0-.111-.06-.111-.14 0-.1.025-.16.094-.16.138 0 1.006.04 1.246.04.188 0 1.074-.04 1.125-.04.052 0 .069.07.069.13 0 .14-.035.17-.078.17-.696 0-.842.1-.954.829-.052.35-.154 5.045-.154 5.995 0 .13-.043.14-.129.14-.077 0-.799-1.059-4.768-6.024-.008.859-.026 1.718-.026 2.578 0 1.479.034 2.328.034 2.538 0 .33.198.49.67.49.438 0 .438.05.438.15 0 .12-.017.15-.086.15-.068 0-.12-.02-1.177-.02-.971 0-1.048.02-1.108.02-.086 0-.086-.07-.086-.19 0-.09.284-.11.387-.11.206 0 .55-.05.584-.44.009-.189.104-2.078.104-4.975 0-.18 0-.38-.018-.43-.06-.18-.523-.699-.704-.699h-.316zM85.657 14.619l.578-1.571h.558v2.136h-.364v-1.737h-.01l-.643 1.737h-.249l-.643-1.737h-.01v1.737h-.364v-2.136h.558zM84.151 13.359h-.634v1.825h-.364v-1.825h-.633v-.311h1.631z"/></svg>