<svg xmlns="http://www.w3.org/2000/svg" width="2500" height="996" viewBox="0 0 92.475 36.835"><path d="M92.475 33.02a3.01 3.01 0 0 0-2.997-3.006 3 3 0 0 0-3.006 3.006 3 3 0 0 0 3.006 3.006 3.01 3.01 0 0 0 2.997-3.006zM12.33 3.905V.008c2.871-.055 5.067.152 7.776 1.098v6.093a5.19 5.19 0 0 1 1.773-.378c1.269-.045 2.321.54 3.104 1.512.279.378.504.783.648 1.233.954-1.71 2.835-2.556 4.698-2.808 1.44-.136 2.907.054 4.293.45 1.116.351 2.178.855 2.961 1.746v-.648c2.592.18 5.013.621 7.568 1.161v.27a4.189 4.189 0 0 1 1.665-.117c2.448.342 4.707.892 7.021 1.917v.369c1.989-.801 4.022-.405 5.48 1.26 2.151-1.287 6.103-.882 7.047 1.773h.09c-1.17-1.638-.675-3.681.792-4.887 1.17-.837 2.547-.937 3.834-.279 1.386.801 2.142 2.349 1.773 3.933h6.174v.685c.927-.639 1.972-1.035 3.114-.972 2.178.234 3.537 1.971 3.654 4.077v17.856c-2.124.621-4.086 1.071-6.318 1.143l-.999.019-.018.026H66.58v.297c-6.993-1.296-13.698-2.763-20.439-5.075V17.036c-.189-.009-.585-.009-.72.171-.126.207-.135.514-.135.747v13.617c-4.302-.954-8.604-1.593-12.906-1.845l-.34-.936a6.982 6.982 0 0 1-1.467.495c-1.638.333-3.6.216-4.778-1.106v1.008c-4.563.054-9.045.747-13.464 1.791v-.99l-.396.396c-1.683 1.521-3.744 2.357-5.994 2.421C2.583 32.786.108 31.058 0 27.566l.009-16.794c.306-4.59 3.807-7.947 8.522-7.902 1.261.045 2.737.297 3.799 1.035z"/><path d="M77.813 17.207c1.062-1.251 2.277-2.421 3.834-2.583 1.396-.144 2.934 1.125 2.934 2.889v16.929c-1.773.522-3.249.801-5.328.846v-15.03c0-.531-.54-1.351-1.44.026v15.048h-4.562v-20.42h4.562v2.295zM69.381 10.556c1.296 0 2.349 1.053 2.349 2.349s-1.053 2.358-2.349 2.358-2.358-1.062-2.358-2.358 1.062-2.349 2.358-2.349zM66.663 16.154h5.139v19.179h-5.139zM52.56 17.423v14.994l-5.211-1.557V10.952c1.926.198 3.69.657 5.274 1.368v1.494c1.035-.495 2.277-1.242 3.483-1.107 1.215.145 2.295.954 2.961 2.196 1.026-1.053 2.115-1.287 3.276-1.224 1.35.072 3.033.692 3.033 2.52v19.116l-5.347-1.224V18.773c0-.504-.278-.927-.549-1.08-.27-.162-.549-.062-.549.441v15.831l-5.148-1.296V17.423c0-.63-.306-.945-.611-.945-.307 0-.612.315-.612.945zM44.072 17.945v12.141l-5.283-1.098V9.611c1.719.108 3.438.468 5.157.837v1.422c.918-.863 1.737-1.206 2.817-1.035v5.04c-1.916-.279-2.691.495-2.691 2.07zM30.96 13.571v1.539h-4.681v-3.438c0-2.331 2.602-3.96 5.526-3.735 3.078.243 5.868 1.269 5.868 4.698v16.281l-4.419-.342-.594-1.62c-1.053.909-2.403 1.296-3.654 1.278-2.691-.036-3.42-1.827-3.402-6.057.009-1.962.81-4.284 2.979-5.193 1.61-.684 2.43-.981 4.157-1.791.621-.288.711-1.341.595-2.052-.09-.585-.756-.729-1.359-.765-.602-.036-1.016.162-1.016 1.197zM18.468 28.574l-4.932.937V1.196c1.791-.036 3.573.135 5.355.774v7.523c.963-.999 2.016-1.449 3.141-1.467 1.225-.027 2.557 1.161 2.557 2.646V28.06l-4.68.342V14.336c0-2.187-1.44-1.773-1.44 0v14.238zM12.519 20.042v6.66c0 2.385-2.997 4.374-5.355 4.771-2.538.44-5.949-.261-5.949-3.924V11.177c0-3.78 2.673-6.769 6.543-7.074 1.872-.153 4.932.423 4.932 2.646v7.245l-4.842.945v-4.698c0-1.638-1.449-.837-1.449.342v15.093c0 1.008 1.278.666 1.278-.342v-4.356l4.842-.936z" fill="#fff"/><path d="M25.794 17.684a5.533 5.533 0 0 1 1.458-1.368h-1.458v1.368zM12.33 18.845v-3.546l-4.329.837-.145 3.573z" fill="#fff"/><path d="M32.741 19.106v3.672c0 .648-.566 1.647-1.188 1.449-.711-.234-.756-1.396-.684-2.133.19-1.764 1.252-1.962 1.872-2.988z"/><path d="M92.133 33.02a2.66 2.66 0 0 1-2.655 2.655 2.64 2.64 0 0 1-2.655-2.646c-.009-1.476 1.18-2.664 2.646-2.664s2.664 1.188 2.664 2.655z" fill="#fff"/><path d="M88.353 34.586h.423v-1.422h1.089c.693 0 .495.612.567 1.008l.072.414h.504c-.18-.288-.126-.36-.153-.792-.054-.576-.062-.63-.405-.846.324-.243.45-.396.433-.828-.036-.747-.54-.846-1.053-.846h-1.476v3.312z"/><path d="M89.838 31.652c.261 0 .675.072.611.639-.045.423-.323.504-.611.504h-1.062v-1.143h1.062z" fill="#fff"/></svg>