<svg height="1054" viewBox="18 15.3 144 68.4" width="2500" xmlns="http://www.w3.org/2000/svg"><g fill="#11303f"><path d="m83 42.6h24.4v39.7h-24.4zm64 39.8v-39.8h15v-22.3h-54.6v22.3h15.1v39.8zm-96 1.3c15.4 0 28.3-10.5 31.9-24.8h-23c-2.2 2.5-5.4 3.9-8.9 3.9-6.7 0-12.1-5.4-12.1-12.1 0-6.6 5.4-12 12.1-12 3.5 0 6.7 1.5 8.9 3.9h23c-3.6-14.2-16.5-24.8-31.9-24.8-18.2 0-33 14.8-33 32.9 0 18.3 14.8 33 33 33"/><path d="m83 42.6v-27.3h29.9zm73.2 34.7c.6 0 1-.3 1-.8s-.4-.8-1-.8h-1.3v1.6zm-2.2-2.5h2.3c.7 0 1.2.2 1.5.5s.4.6.4 1.1c0 .8-.5 1.3-1.2 1.5l1.4 1.9h-1.2l-1.2-1.8h-1.1v1.8h-1v-5zm6.3 2.7c0-2.4-1.9-4.4-4.3-4.4-2.5 0-4.4 2-4.4 4.4s1.9 4.3 4.3 4.3c2.5.1 4.4-1.9 4.4-4.3m-9.2 0c0-2.7 2.1-4.9 4.9-4.9 2.7 0 4.8 2.2 4.8 4.8s-2.1 4.8-4.9 4.8c-2.7.1-4.8-2-4.8-4.7"/></g></svg>