<svg xmlns="http://www.w3.org/2000/svg" width="2500" height="2500" viewBox="0 0 192.756 192.756"><path fill-rule="evenodd" clip-rule="evenodd" fill="#fff" d="M0 0h192.756v192.756H0V0z"/><path d="M8.504 96.379c0-48.533 39.342-87.875 87.875-87.875 48.532 0 87.874 39.342 87.874 87.875 0 48.531-39.342 87.873-87.874 87.873-48.533 0-87.875-39.342-87.875-87.873z" fill-rule="evenodd" clip-rule="evenodd" fill="#fff" stroke="#000" stroke-width=".474" stroke-miterlimit="2.613"/><path d="M12.273 96.379c0-46.451 37.654-84.105 84.105-84.105 46.45 0 84.104 37.654 84.104 84.105 0 46.45-37.654 84.104-84.104 84.104-46.45 0-84.105-37.654-84.105-84.104z" fill-rule="evenodd" clip-rule="evenodd"/><path d="M36.897 96.379c0-32.851 26.63-59.481 59.481-59.481 32.85 0 59.481 26.63 59.481 59.481s-26.631 59.479-59.481 59.479c-32.851 0-59.481-26.629-59.481-59.479z" fill-rule="evenodd" clip-rule="evenodd" fill="#fff"/><path d="M40.306 96.379c0-30.969 25.104-56.073 56.072-56.073 30.967 0 56.071 25.104 56.071 56.073 0 30.967-25.104 56.07-56.071 56.07-30.968 0-56.072-25.103-56.072-56.07z" fill="none" stroke="#000" stroke-width=".471" stroke-miterlimit="2.613"/><path d="M127.377 49.651h-62c8.88-5.903 19.539-9.345 31.002-9.345s22.119 3.442 30.998 9.345z" fill-rule="evenodd" clip-rule="evenodd" fill="#fff"/><path d="M138.168 58.997H54.586a56.411 56.411 0 0 1 10.79-9.346h62a56.393 56.393 0 0 1 10.792 9.346z" fill-rule="evenodd" clip-rule="evenodd" fill="#f5f6f6"/><path d="M144.945 68.342H47.807a56.264 56.264 0 0 1 6.779-9.345h83.582a56.253 56.253 0 0 1 6.777 9.345z" fill-rule="evenodd" clip-rule="evenodd" fill="#f1f1f2"/><path d="M149.254 77.688H43.5a55.84 55.84 0 0 1 4.307-9.345h97.138a55.848 55.848 0 0 1 4.309 9.345z" fill-rule="evenodd" clip-rule="evenodd" fill="#eaebec"/><path d="M151.668 87.033H41.085a55.76 55.76 0 0 1 2.415-9.345h105.754a55.805 55.805 0 0 1 2.414 9.345z" fill-rule="evenodd" clip-rule="evenodd" fill="#e4e4e5"/><path d="M152.449 96.379H40.306c0-3.185.269-6.307.779-9.346h110.583a56.22 56.22 0 0 1 .781 9.346z" fill-rule="evenodd" clip-rule="evenodd" fill="#dddedf"/><path d="M151.668 105.724H41.085c-.51-3.04-.779-6.16-.779-9.345h112.143c0 3.184-.269 6.305-.781 9.345z" fill-rule="evenodd" clip-rule="evenodd" fill="#d9dadb"/><path d="M149.254 115.068H43.5a55.786 55.786 0 0 1-2.415-9.345h110.583a56.074 56.074 0 0 1-2.414 9.345z" fill-rule="evenodd" clip-rule="evenodd" fill="#d3d4d5"/><path d="M144.945 124.414H47.808a55.854 55.854 0 0 1-4.308-9.346h105.753a55.934 55.934 0 0 1-4.308 9.346z" fill-rule="evenodd" clip-rule="evenodd" fill="#cccdcf"/><path d="M138.166 133.759H54.589a56.29 56.29 0 0 1-6.781-9.345h97.137a56.337 56.337 0 0 1-6.779 9.345z" fill-rule="evenodd" clip-rule="evenodd" fill="#c6c7c9"/><path d="M127.375 143.104H65.379a56.377 56.377 0 0 1-10.791-9.346h83.577a56.336 56.336 0 0 1-10.79 9.346z" fill-rule="evenodd" clip-rule="evenodd" fill="#c1c3c5"/><path d="M65.379 143.104h61.996a55.805 55.805 0 0 1-30.997 9.345c-11.462 0-22.119-3.442-30.999-9.345z" fill-rule="evenodd" clip-rule="evenodd" fill="#bbbcbf"/><path fill="none" stroke="#000" stroke-width=".236" stroke-miterlimit="2.613" d="M43.226 114.284h106.301"/><path d="M148.805 116.292H43.946a56.939 56.939 0 0 1-.72-2.008h106.301c-.228.676-.47 1.344-.722 2.008z" fill-rule="evenodd" clip-rule="evenodd"/><path d="M147.996 118.301H44.755a55.77 55.77 0 0 1-.81-2.009h104.859a50.705 50.705 0 0 1-.808 2.009z" fill-rule="evenodd" clip-rule="evenodd" fill="#212122"/><path d="M147.096 120.31H45.656a55.826 55.826 0 0 1-.901-2.009h103.241a56.607 56.607 0 0 1-.9 2.009z" fill-rule="evenodd" clip-rule="evenodd" fill="#2d2c2d"/><path d="M146.098 122.319H46.656a55.26 55.26 0 0 1-1-2.01h101.439c-.32.678-.652 1.348-.997 2.01z" fill-rule="evenodd" clip-rule="evenodd" fill="#3b3b3c"/><path d="M144.992 124.327H47.759a56.514 56.514 0 0 1-1.104-2.008h99.442a56.537 56.537 0 0 1-1.105 2.008z" fill-rule="evenodd" clip-rule="evenodd" fill="#454546"/><path d="M143.777 126.336H48.975a55.227 55.227 0 0 1-1.215-2.009h97.233a56.709 56.709 0 0 1-1.216 2.009z" fill-rule="evenodd" clip-rule="evenodd" fill="#4c4c4e"/><path d="M142.443 128.345H50.308a56.352 56.352 0 0 1-1.333-2.009h94.803c-.43.68-.876 1.349-1.335 2.009z" fill-rule="evenodd" clip-rule="evenodd" fill="#525355"/><path d="M140.98 130.354H51.77a56.895 56.895 0 0 1-1.462-2.009h92.135c-.472.68-.961 1.35-1.463 2.009z" fill-rule="evenodd" clip-rule="evenodd" fill="#59595b"/><path d="M139.373 132.361H53.377a56.479 56.479 0 0 1-1.607-2.008h89.21a54.307 54.307 0 0 1-1.607 2.008z" fill-rule="evenodd" clip-rule="evenodd" fill="#5d5e60"/><path d="M137.609 134.37H55.143a54.521 54.521 0 0 1-1.766-2.009h85.996a53.55 53.55 0 0 1-1.764 2.009z" fill-rule="evenodd" clip-rule="evenodd" fill="#636466"/><path d="M135.662 136.38H57.09a55.921 55.921 0 0 1-1.947-2.01h82.466a55.921 55.921 0 0 1-1.947 2.01z" fill-rule="evenodd" clip-rule="evenodd" fill="#696a6c"/><path d="M133.508 138.388H59.243a55.935 55.935 0 0 1-2.153-2.008h78.572a56.07 56.07 0 0 1-2.154 2.008z" fill-rule="evenodd" clip-rule="evenodd" fill="#6f7072"/><path d="M131.109 140.396H61.643a54.74 54.74 0 0 1-2.4-2.009h74.265a54.713 54.713 0 0 1-2.399 2.009z" fill-rule="evenodd" clip-rule="evenodd" fill="#737476"/><path d="M128.402 142.405H64.351a56.407 56.407 0 0 1-2.708-2.009h69.466a54.756 54.756 0 0 1-2.707 2.009z" fill-rule="evenodd" clip-rule="evenodd" fill="#787a7c"/><path d="M125.309 144.414H67.445a56.053 56.053 0 0 1-3.094-2.009h64.052a56.433 56.433 0 0 1-3.094 2.009z" fill-rule="evenodd" clip-rule="evenodd" fill="#7e7f82"/><path d="M121.684 146.423H71.069a56.462 56.462 0 0 1-3.624-2.009h57.864a56.486 56.486 0 0 1-3.625 2.009z" fill-rule="evenodd" clip-rule="evenodd" fill="#838587"/><path d="M117.252 148.432H75.5a55.802 55.802 0 0 1-4.432-2.009h50.615a55.848 55.848 0 0 1-4.431 2.009z" fill-rule="evenodd" clip-rule="evenodd" fill="#87898b"/><path d="M111.287 150.441H81.465a55.636 55.636 0 0 1-5.965-2.01h41.751a55.399 55.399 0 0 1-5.964 2.01z" fill-rule="evenodd" clip-rule="evenodd" fill="#8d8e91"/><path d="M81.465 150.441h29.822a56.096 56.096 0 0 1-14.909 2.008 56.12 56.12 0 0 1-14.913-2.008z" fill-rule="evenodd" clip-rule="evenodd" fill="#929496"/><path fill="none" stroke="#000" stroke-width=".236" stroke-miterlimit="2.613" d="M43.226 114.284h106.301"/><path d="M42.632 112.398h107.489a56.585 56.585 0 0 1-.594 1.886H43.226a56.585 56.585 0 0 1-.594-1.886z" fill-rule="evenodd" clip-rule="evenodd"/><path d="M42.632 112.398h107.489m-.594 1.886H43.226" fill="none" stroke="#000" stroke-width=".236" stroke-miterlimit="2.613"/><path d="M40.306 96.379c0-30.969 25.104-56.073 56.072-56.073 30.967 0 56.071 25.104 56.071 56.073 0 30.967-25.104 56.07-56.071 56.07-30.968 0-56.072-25.103-56.072-56.07z" fill="none" stroke="#000" stroke-width=".471" stroke-miterlimit="2.613"/><path d="M66.53 141.377s1.087-.942 2.755-1.16c1.667-.218 3.044-.507 4.64-.218 1.595.291 2.9.652 2.9.652s-1.233.652-3.045 1.087c-1.812.436-3.407.799-5.22.363-1.812-.435-2.03-.724-2.03-.724zM63.558 139.419s.146.436 1.015.871 1.522.361 2.32.071c.797-.289 1.304-.651 1.304-.651s-1.015-.291-2.102-.436c-1.088-.144-2.537.145-2.537.145zM62.906 138.694s-.581.508.217.362a8.987 8.987 0 0 0 1.376-.362h-1.593zM61.6 137.68c0 .362-.072.652.581.652.652 0 1.377-.29 1.74-.29s0-.217-.797-.29c-.799-.072-1.524-.435-1.524-.072zM73.562 145.653s.725.653 1.884.218 1.595-.798 1.595-.798-.797-.435-1.377-.289c-.58.145-.797.435-1.232.58l-.87.289zM72.692 145.219s.145-.29.725-.435c.58-.146.725-.072.725-.072s-.435.361-.725.435c-.29.072-.725.072-.725.072zM72.112 144.784s.216-.291.58-.362c.362-.073-.58.362-.58.362zM74.866 143.769s1.377-.941 3.335-1.158c1.958-.219 2.682-.437 3.987-.219 1.305.219 1.957.508 1.957.508s-1.739.289-2.899.651c-1.16.363-2.393.871-3.914.726-1.523-.146-2.466-.508-2.466-.508zM75.519 142.972s.797-1.088 2.899-1.306c2.103-.217 2.682.218 2.682.218s-1.305-.289-2.899.146c-1.595.434-2.682.942-2.682.942zM81.39 144.565s.508-.217 1.45-.507c.943-.29 1.522-.362 1.522-.362s-1.16-.217-1.813.072a4.426 4.426 0 0 0-1.159.797zM82.477 144.712s.726.072 1.45-.146c.726-.217 1.522-.651 1.522-.651s-.87.072-1.522.29c-.652.217-1.45.507-1.45.507zM83.71 145.146s.797.797 2.247 1.015c1.45.217 2.537-.072 3.625-.362s1.377-.652 1.377-.652-1.087-.87-2.464-.942c-1.377-.073-2.827.072-3.407.435-.581.361-1.378.506-1.378.506zM65.37 137.534s1.377.218 2.102.653c.725.435 1.45 1.015 3.334.652 1.885-.362 2.393-1.015 3.48-1.377 1.087-.363 1.522-.581 1.522-.581s-1.668-.361-2.538-.869c-.87-.508-2.03-1.088-2.61-.942-.58.145-.942.435-2.465 1.305s-2.825 1.159-2.825 1.159zM73.706 138.694s1.015 0 2.175-.435 1.305-.869 1.305-.869-1.015-.146-1.74.217c-.725.362-.871.652-1.16.798l-.58.289zM76.099 139.419s2.464-.579 3.842-1.087c1.377-.507 2.899-1.595 2.899-1.595s-1.305.145-2.61.726c-1.305.579-2.102 1.015-2.61 1.231-.507.217-1.521.725-1.521.725zM76.751 138.55s.943-.29 1.885-.725 1.232-.798 1.232-.798-.942.072-1.305.363c-.362.29-1.812 1.16-1.812 1.16zM77.403 139.927s.581.435 2.248.435c1.667 0 1.739 0 3.406-.579 1.668-.58 3.045-1.088 4.423-1.668 1.377-.58 2.899-.362 2.899-.362s-.436-.87-1.812-1.16c-1.377-.289-2.755-.289-4.568.58-1.812.87-2.682 1.522-4.132 2.103s-2.464.651-2.464.651zM82.043 141.087s1.74.797 3.261.651c1.523-.144 3.77-.797 4.712-1.231.942-.435 2.03-.87 2.754-1.015.726-.146 1.16-.146 1.16-.146s-.58-.725-2.32-.797c-1.739-.072-2.464 0-4.566.797-2.103.798-3.262 1.232-3.77 1.379-.506.144-1.231.362-1.231.362zM62.542 136.085s1.161.58 2.103.436c.943-.146 2.029-.58 2.682-.942.653-.363 1.232-.798 1.232-.798s-1.014 0-1.667.29-1.377.579-2.248.725c-.868.144-2.102.289-2.102.289zM60.949 135.287s2.102.435 3.334.146c1.232-.289 2.464-.652 2.899-.869.435-.219 1.087-.508 1.087-.508s-1.16-.219-2.827 0c-1.667.217-2.754.58-3.189.725s-1.304.506-1.304.506zM56.961 133.548s.218.87 1.595 1.088c1.377.217 1.595-.291 2.827-.652 1.231-.363 2.609-.653 2.609-.653s-1.74-.579-3.044-.508c-1.306.072-2.176-.071-2.9.29-.725.363-1.087.435-1.087.435zM56.237 133.258s.29-.146 1.086-.436c.798-.289 1.667-.435 1.667-.435s-1.087-.217-1.739 0c-.652.218-1.014.871-1.014.871zM67.182 133.112s1.668.436 3.262.291c1.595-.146 2.248-.436 2.538-.652.29-.218-.653-.58-1.161-.508s-1.812.145-2.682.508c-.869.361-1.957.361-1.957.361zM62.47 131.518s.726.218 1.885.508c1.16.29 2.393.218 3.625 0 1.232-.217 1.812-.58 2.609-1.087.797-.508 2.103-1.596 2.103-1.596s-1.378.653-2.61.725c-1.232.073-2.102-.507-2.682-.145-.58.363-1.45 1.016-2.393 1.16-.942.146-2.537.435-2.537.435zM56.237 129.851s.435.146.869.146c.435 0 .435-.362.435-.362l-.58-.146-.724.362zM58.194 129.343s1.086.653 2.029.943c.942.289 2.537.362 3.553.072 1.014-.291 2.391-.725 2.391-.725s-1.16-.509-2.464-.798c-1.305-.289-2.61-.217-3.552-.072-.943.145-1.957.58-1.957.58zM65.66 127.313s2.464.87 4.712.798c2.248-.073 4.277-.798 4.277-.798s-1.305-.652-3.914-.725c-2.611-.071-5.075.725-5.075.725zM74.649 135.36s.725.435 1.667.869c.942.436 1.812.436 3.117.146 1.305-.29 2.538-.58 3.189-.87.653-.29 1.161-.508 1.161-.508s-.87-.434-1.885-.507c-1.016-.072-1.596 0-3.045.217-1.45.218-2.464.437-2.9.508-.434.072-1.304.145-1.304.145zM71.894 131.518s1.595.362 3.118.798c1.522.436 3.697.87 5.074.725s3.841-1.449 3.841-1.449-2.102-.436-2.972-.942c-.87-.508-2.223-1.517-4.495-1.232-3.478.433-4.566 2.1-4.566 2.1zM73.924 129.634s.725-.581 2.247-.726c1.523-.145 2.248.073 2.248.073s-.508-.943-1.812-.943-2.683 1.596-2.683 1.596zM85.812 142.464s2.175-.217 3.552-.798c1.377-.579 3.406-1.667 5.147-1.739 1.74-.072 3.117.218 4.131.799 1.016.578 1.668 1.158 1.668 1.158s-1.74-.072-3.334.363c-1.595.434-3.407 1.16-5.582 1.232-2.175.071-3.189-.072-3.986-.291-.798-.216-1.596-.724-1.596-.724zM91.25 144.204s1.088.58 2.609.435c1.522-.146 3.19-.87 4.131-1.231.943-.363 2.684-.797 2.684-.797s-.508-.291-2.248.07c-1.74.363-3.335 1.016-4.422 1.161l-2.754.362zM90.669 147.684s1.015.145 2.609-.435c1.595-.58 3.117-.942 3.117-.942s-1.015-.363-2.103 0c-1.087.362-1.594.797-2.247.942a10.56 10.56 0 0 0-1.376.435zM92.7 147.974s1.957-.219 3.189-.508c1.232-.29 2.32-.652 2.682-.652.363 0 .727-.072.727-.072s-.943-.291-1.887-.145c-.941.145-2.174.579-2.682.797s-2.029.58-2.029.58zM90.959 148.408s1.015.653 1.522.942c.508.29 1.74.435 2.538.29.797-.145 1.232-.508 2.391-1.087 1.16-.58 2.756-1.305 2.756-1.305s-.652-.218-1.596.071c-.941.291-2.392.508-3.262.798s-1.958.508-2.538.508c-.578.001-1.811-.217-1.811-.217zM96.686 149.785s1.667-.942 2.464-1.231c.797-.291 2.102-.799 2.465-1.015.363-.219.217-.436.217-.436s-1.666.651-2.174.87c-.508.217-1.957.869-2.318 1.159-.364.292-.654.653-.654.653zM97.41 150.004s1.596-.073 2.176-.435c.58-.363 1.158-.799 1.812-1.088.652-.291 1.738-.87 1.738-.87s-1.885.435-2.754.87c-.868.435-2.972 1.523-2.972 1.523zM82.333 148.626s1.667.87 3.987 1.087c2.32.218 6.018.363 6.018.363s-1.378-1.45-3.843-1.813-6.162.363-6.162.363zM77.476 146.886s.869 1.015 2.319.942c1.45-.073 4.277-1.087 4.277-1.087s-1.667-.217-3.262-.217c-1.594 0-3.334.362-3.334.362zM84 147.611s.435.144.798.072c.362-.072.072-.29-.218-.29s-.58.218-.58.218zM98.354 143.986s1.74-.507 2.826-.798c1.088-.289 1.812-.145 1.812-.145s-.436.145-1.594.436c-1.16.29-3.044.507-3.044.507zM97.049 145.073s3.262 1.305 5.438 1.451c2.174.145 4.494.289 6.088-.218 1.596-.508 2.393-.942 2.393-.942s-.506-.799-2.973-1.16c-2.465-.362-4.131-.725-5.943-.436-1.814.291-5.003 1.305-5.003 1.305zM85.087 134.707s2.03-.435 2.972-.797c.943-.362 2.61-.87 3.915-.725 1.305.145 2.683.87 2.683.87s-1.233.725-2.248.941c-1.015.218-3.551.652-4.639.436-1.087-.217-2.683-.725-2.683-.725zM90.524 136.737s1.015.726 2.03 1.088 2.03.435 3.117.217c1.087-.217 2.683-.725 3.552-1.16l1.596-.797s-.871-.29-2.393 0c-1.522.29-3.479.725-4.349.725-.87 0-3.553-.073-3.553-.073zM92.481 135.795s1.74-.508 2.609-.87c.871-.361 2.466-.726 3.191-.58s1.16.58 1.16.58-1.307-.145-2.683.072c-1.377.218-2.537.652-2.827.652-.289 0-1.45.146-1.45.146zM93.134 136.448s1.74-.653 2.898-.87c1.161-.218 3.409-.073 3.409-.073s-1.668.29-2.611.362c-.941.073-3.696.581-3.696.581zM89.582 131.083s1.957.797 3.118 1.232c1.159.436 2.682.652 3.841.145 1.16-.508 2.248-1.305 2.248-1.305s-1.16-.361-3.118-.507c-1.958-.146-2.827-.073-3.842.072s-2.247.363-2.247.363zM78.201 128.038s1.015 0 1.521.436c.508.435.653.869.653.869s.073-.724-.362-1.159c-.434-.435-1.812-.146-1.812-.146zM80.738 129.343s.218.725 1.088 1.016c.87.29 2.319.58 2.319.58s-1.088-.508-1.739-.798c-.653-.29-1.668-.798-1.668-.798zM83.057 129.198s.581.942 1.161 1.232c.58.29 1.304.29 1.304.29s-.724-.362-1.087-.653c-.363-.289-.58-.942-.58-.942l-.798.073zM84.87 129.488s.58.87 1.45 1.015c.871.146 2.32-.362 2.899-.507.58-.146 1.812-.943 1.812-.943h-6.379l.218.435zM92.481 129.053s1.16.87 2.754.943c1.595.071 3.045-.362 3.842-.362h1.305s-1.377-.581-1.885-.652c-.508-.073-1.594-.146-2.609-.218-1.014-.074-3.407.289-3.407.289zM101.18 129.561s1.234.798 2.393.942c1.16.146 3.408-.217 4.277-.652.869-.435 2.754-1.087 3.334-1.377s1.088-1.015 1.088-1.015-2.754 1.015-4.277 1.015c-1.521 0-5.219.29-5.727.435s-1.088.652-1.088.652zM98.643 133.766s1.379.218 2.248.798 2.393.58 3.48.289c1.086-.289 2.246-1.232 2.246-1.232s-2.029-.726-3.48-.726c-1.449 0-2.682-.072-3.262.218-.578.29-1.232.653-1.232.653zM98.934 139.999s1.594 1.45 3.623 1.667c2.031.218 3.916-.071 5.076-.579 1.158-.508 3.043-1.16 3.551-1.522s1.305-.653 1.305-.653-1.232-.797-3.406-.579c-2.176.218-4.566 1.015-6.09 1.232-1.522.217-4.059.434-4.059.434zM102.703 138.694s2.102-1.16 3.262-1.377c1.16-.218 2.537.362 2.537.362s-.941.072-2.393.362c-1.449.291-3.406.653-3.406.653zM105.168 142.464s2.029.146 3.189-.29c1.16-.436 3.043-2.029 3.043-2.029s-1.738 1.087-3.043 1.521c-1.304.436-3.189.798-3.189.798zM107.125 142.972s.652.652 1.449.436c.797-.219 3.045-2.466 3.045-2.466s-1.812 1.015-2.393 1.45c-.578.435-2.101.58-2.101.58zM110.387 144.349s1.086.508 1.885.363c.797-.146 2.102-1.232 2.102-1.232s-1.521.651-2.318.725c-.8.071-1.669.144-1.669.144zM107.777 147.32s1.088.87 3.914.435c2.828-.435 3.189-1.158 3.553-1.23.361-.074.652-.074.652-.074s-1.088-.724-2.465-.579c-1.377.146-2.971.726-3.77 1.015-.796.289-1.884.433-1.884.433zM114.084 145.073s1.666-.361 2.828-.435c1.158-.073 3.768-.217 4.711-.508.943-.289 2.393-1.521 2.393-1.521s-.436-.872-1.379-.944c-.941-.071-1.521-.144-2.826.581s-2.248 1.232-3.045 1.667-2.682 1.16-2.682 1.16zM114.881 144.131s1.74-.651 2.537-1.231c.799-.58 1.596-1.016 2.248-1.233l1.086-.362s-1.014-.435-2.029-.072c-1.014.363-1.521.942-2.246 1.596a28.038 28.038 0 0 1-1.596 1.302zM123.797 141.449s.508.362.871.507c.361.146.58-.218.145-.361-.436-.146-1.016-.146-1.016-.146zM124.812 141.087s.797.579 1.16.579.652-.362.289-.435c-.361-.071-1.449-.144-1.449-.144zM105.748 135.578s1.232-.073 2.971.87c1.742.942 3.189 1.884 4.857 1.739 1.668-.146 3.916-1.667 3.916-1.667s-1.814.289-3.264-.146-3.768-1.595-5.219-1.812c-1.449-.219-1.885-.073-2.393.217s-.868.799-.868.799zM116.693 139.057s1.957 1.305 5.582 1.305 4.93-.725 5.943-1.159c1.016-.436 1.451-1.088 1.451-1.088s-1.16-.58-3.408-.58c-2.246 0-4.783.218-6.379.726a29.312 29.312 0 0 1-3.189.796zM111.547 134.345s1.521 1.016 4.35 1.16c2.826.145 4.422-.29 6.162-.941 1.738-.653 2.754-1.306 2.754-1.306s-1.088-.942-3.914-.798c-2.828.146-5.221 1.233-6.234 1.377-1.017.146-3.118.508-3.118.508zM111.473 133.62s1.379-1.015 3.555-1.668c2.174-.651 3.623-1.014 4.783-.797 1.16.218 1.74.58 1.74.58s-2.176-.145-3.842.217c-1.668.363-2.9.942-3.988 1.233-1.086.291-2.248.435-2.248.435zM107.414 133.112s1.668.581 3.189.146c1.523-.436 2.465-1.449 3.916-2.029 1.449-.58 3.842-.726 3.842-.726s-.291-1.087-1.668-1.305c-1.377-.217-3.262.072-4.205 1.015-.941.942-2.609 2.03-3.334 2.32-.724.289-1.74.579-1.74.579zM107.922 132.315s1.377-1.087 2.682-1.885c1.305-.797 1.885-1.378 2.539-1.522.652-.145 1.305-.145 1.305-.145s-1.305.579-2.467 1.232c-1.158.652-2.027 1.449-2.609 1.739-.581.291-1.45.581-1.45.581zM104.08 132.099s1.232.507 2.9-.146c1.668-.651 2.465-1.521 3.334-2.029.869-.507 2.609-1.304 2.609-1.304s-1.016-.218-2.102.362c-1.088.579-2.104 1.159-2.828 1.739s-1.811 1.159-2.246 1.231c-.435.073-1.667.147-1.667.147zM123.145 134.925s.508-.58 1.523-.941c1.014-.363 1.957-.146 1.957-.146s-1.305.219-1.957.508c-.652.29-1.523.579-1.523.579zM123.145 135.578s1.377-.942 2.973-1.015c1.596-.073 2.756.361 3.916.797 1.158.435 1.885.869 1.885.869s-1.742.798-4.205.436c-2.465-.362-2.973-.652-3.48-.798s-1.089-.289-1.089-.289zM119.883 129.996s1.449.87 2.754.798c1.307-.073 2.393-.291 3.48-.727 1.088-.434 3.189-1.594 3.553-1.594s.506-.072.506-.072-.725-.073-2.391.289c-1.668.362-3.625 1.016-4.711 1.088-1.088.073-3.191.218-3.191.218zM120.535 129.561s2.393-.941 3.77-1.305c1.377-.362 2.465-.725 3.625-.652s1.668.29 1.668.29-2.104.362-3.262.726c-1.16.362-2.973.651-3.699.724-.725.072-2.102.217-2.102.217zM121.404 128.764s2.176-.942 2.828-1.305 1.523-.581 2.104-.581h.941s-1.016.291-1.957.581c-.943.29-3.916 1.305-3.916 1.305zM123.436 131.591s2.826 1.377 5.438 1.231c2.609-.144 4.639-.435 6.232-1.159 1.596-.725 2.029-1.16 2.029-1.16s-.506-.942-3.115-1.305-3.189-.651-4.205 0c-1.016.652-2.609 1.45-3.842 1.885s-2.537.508-2.537.508z" fill-rule="evenodd" clip-rule="evenodd" fill="#fff" stroke="#fff" stroke-width=".118" stroke-miterlimit="2.613"/><path d="M127.857 133.403s1.666.725 3.77.869c2.102.146 3.045.146 3.842-.579.797-.726 2.104-2.176 2.104-2.176s-1.887.508-2.611.942-2.828.798-4.131.943c-1.308.146-2.974.001-2.974.001zM128.146 126.371s1.668.362 3.264.942c1.594.58 3.115 1.377 5.219 1.306 2.102-.072 3.625-.798 3.625-.798s-1.885-.943-3.264-1.523c-1.377-.578-2.609-1.812-4.422-1.377s-2.246.726-2.826 1.016-1.596.434-1.596.434zM126.697 126.009s1.377 0 2.32-.362c.941-.362 1.521-.942 1.521-.942s-.869.217-1.666.435c-.798.215-2.175.869-2.175.869zM124.668 126.009s1.594-.289 2.609-.798c1.014-.507 1.596-.869 2.465-.942.869-.072 1.449-.145 1.449-.145s-1.377-.218-2.246.072c-.871.29-2.104.508-2.609.87-.508.363-1.668.943-1.668.943zM120.824 125.211s1.307.726 2.973.29c1.668-.435 3.191-1.522 4.494-1.739 1.307-.218 2.465-.146 2.465-.146s-1.086-.651-2.537-.508c-1.449.146-3.334 1.306-4.639 1.669-1.305.362-2.756.434-2.756.434zM117.926 124.632s2.32.289 4.061-.073c1.738-.362 3.551-1.305 4.35-1.739.797-.436.797-1.015-.654-1.088-1.449-.072-3.334 0-4.566.797-1.234.798-3.191 2.103-3.191 2.103zM111.33 123.472s.506-.798 2.391-1.595 3.553-1.378 4.857-1.45 2.393.218 2.393.218-1.16.652-2.973 1.015c-1.812.363-3.842.725-4.711 1.015-.871.29-1.957.797-1.957.797zM138.73 126.153s1.016.943 1.957.798c.943-.146 1.449-1.159 1.449-1.159s-1.014.361-1.594.435c-.579.071-1.812-.074-1.812-.074zM132.568 123.254s1.957 1.739 5.148 1.232c3.188-.508 4.275-1.45 4.93-1.667.65-.218.869-.436.869-.436s-1.451-.434-2.611-.218c-1.158.218-3.115.799-4.639.942-1.521.147-3.697.147-3.697.147zM133.803 122.312s2.826-.361 3.77-.507c.941-.146 3.043-.073 3.043-.073s-1.16-.58-2.465-.435c-1.305.144-4.348 1.015-4.348 1.015zM134.744 121.369s1.594-1.305 3.045-1.231c1.449.071 2.826.652 2.826.652s-1.74-.218-2.826 0c-1.088.217-3.045.579-3.045.579zM138.803 119.194s2.973 1.45 3.77 1.668 2.609.579 2.465 0c-.145-.581-1.232-.942-2.465-1.16s-3.77-.508-3.77-.508zM116.984 118.978s1.738-.725 3.189-.652c1.449.071 4.131.869 6.088 1.159 1.957.291 4.205.073 5.293-.435s2.537-1.377 4.203-1.45c1.668-.072 3.916.436 3.916.436s-4.35.942-6.018 1.812c-1.668.87-3.551 1.668-5.219 1.595-1.668-.072-3.988-.869-5.438-1.304a26.66 26.66 0 0 0-3.986-.871c-1.086-.146-2.028-.29-2.028-.29zM139.746 118.542s1.957.29 2.9.58c.941.29 2.246.653 2.535.653.291 0 .652-.653.652-.653s-1.885-.362-2.826-.435c-.943-.072-3.261-.145-3.261-.145zM145.906 117.237s-.941.29-1.449.436c-.508.145-.869.289-.869.289s.797.218 1.16.073c.361-.145 1.158-.798 1.158-.798zM146.922 115.715s-.289.58-1.449 1.088c-1.16.507-1.449.652-2.029.652-.582 0-2.467-.218-3.697-.362-1.232-.145-3.408-.363-3.408-.363s2.104-.361 2.611-.724c.506-.363.652-.291.652-.291h7.32z" fill-rule="evenodd" clip-rule="evenodd" fill="#fff" stroke="#fff" stroke-width=".118" stroke-miterlimit="2.613"/><path d="M130.467 117.673s-.797.58-1.74.652c-.941.071-1.738-.072-1.738-.072s1.375-.218 2.029-.363c.652-.145 1.449-.217 1.449-.217zM127.205 117.455s1.668-.362 2.318-.362c.652 0 1.959-.073 1.959-.073l-1.523-.362-.652-.072-2.102.869zM125.9 115.57l2.682.87s-1.377.289-1.885.362-1.16.29-1.16.29-.289-.29-.797-.29h-.725l.361-1.088 1.524-.144zM117.201 117.745l.797.29s-.58.072-1.16.218c-.58.144-1.811.507-1.811.507s1.158-.363 1.449-.58c.29-.218.725-.435.725-.435zM116.549 117.31s-.799.58-1.74.87c-.943.29-1.232.508-1.666.58a32.5 32.5 0 0 1-1.016.145l.508-.942s.869.146 1.666-.072c.799-.218 2.248-.581 2.248-.581zM57.858 125.474s2.003.707 4.83.824c2.827.118 3.887-.117 4.83-.353s1.649-.354 1.649-.354-1.885-.824-4.476-1.178c-2.592-.354-4.477-.117-5.184.354-.707.472-1.649.707-1.649.707z" fill-rule="evenodd" clip-rule="evenodd" fill="#fff" stroke="#fff" stroke-width=".118" stroke-miterlimit="2.613"/><path d="M58.918 124.061s3.298-1.061 5.418-.706c2.121.353 3.651 1.06 4.948 1.413s3.063.354 3.063.354-1.414-.59-3.299-1.179c-1.885-.588-4.24-1.178-5.654-.942-1.413.235-4.476 1.06-4.476 1.06z" fill-rule="evenodd" clip-rule="evenodd" fill="#fff" stroke="#fff" stroke-width=".118" stroke-miterlimit="2.613"/><path d="M59.861 123.236s1.296-1.178 3.063-1.414 4.123.118 5.889.942c1.768.824 2.356 1.178 2.356 1.178s-3.888-1.414-5.891-1.531c-2.002-.117-2.827 0-3.651.235-.824.237-1.766.59-1.766.59zM50.437 125.592l1.061 1.767s.706-.824 1.531-1.061a6.412 6.412 0 0 0 1.414-.588l-4.006-.118zM56.327 126.181s-.706-.354-1.296-.117c-.589.234-1.177.706-1.177.706l2.473-.589zM53.618 120.645s2.003.471 3.652.707c1.648.234 4.122-.118 4.122-.118s-1.649-.942-3.181-1.178c-1.531-.236-2.591-.471-3.298-.118-.706.353-1.295.707-1.295.707zM47.374 120.409l1.178 1.649s1.415-.59 2.709-1.297c1.296-.706 2.121-1.177 2.121-1.177s-2.239.588-3.416.706c-1.178.119-2.592.119-2.592.119zM47.728 119.819s1.648.236 2.474-.117 1.768-.589 1.768-.589-1.061-.235-2.121 0c-1.061.236-2.121.706-2.121.706zM46.903 119.467s.588.235 1.06 0c.471-.236.471-.707.471-.707l-1.531.707zM46.432 116.876s1.768 1.177 3.77.941c2.002-.235 3.887-1.06 3.887-1.06s-2.591-.707-4.004-.59c-1.415.119-3.653.709-3.653.709zM51.733 118.053s1.649.707 3.534.59c1.885-.118 4.123-.708 4.123-.708s-.942-.471-3.181-.471c-2.238 0-4.476.589-4.476.589zM49.259 122.765s1.178-1.179 3.063-1.296 3.534.354 4.358.59c.825.235.825.353.825.353s-2.592.707-4.712.825c-2.121.117-3.534-.472-3.534-.472zM67.282 121.704s1.413.472 2.945.472c1.531 0 2.355-.354 2.355-.354s-.707-.707-2.121-.707c-1.412 0-3.179.589-3.179.589zM71.876 122.883s2.355.354 3.416.354c1.06 0 2.592-.236 2.592-.236s-1.885-.589-3.063-.589c-1.178-.001-2.945.471-2.945.471zM72.583 123.589s1.649.354 2.591.354c.943 0 1.768-.235 1.768-.235s-1.532-.235-2.356-.235c-.825-.001-2.003.116-2.003.116zM73.761 124.297s.943.471 2.121.706c1.177.236 2.827.118 2.827.118l-.942-.942s-.824.235-1.649.353c-.826.117-2.357-.235-2.357-.235zM83.773 120.88s-.824.235-2.237.589c-1.414.354-2.002.59-2.002.59s1.531.47 2.709.47c1.178 0 1.885-.234 1.885-.234l-.355-1.415zM81.182 120.527s-.824-.942-2.356-.825c-1.531.117-2.591.354-3.652.707-1.059.353-2.001.471-2.001.471s1.885.942 3.77.824c1.884-.118 2.827-.353 3.416-.589.587-.235.823-.588.823-.588z" fill-rule="evenodd" clip-rule="evenodd" fill="#fff" stroke="#fff" stroke-width=".118" stroke-miterlimit="2.613"/><path d="M68.342 119.349s1.295 1.179 3.652 1.061c2.355-.118 3.534-1.296 5.183-1.531s2.828 0 3.887.589c1.061.589 2.239 0 2.239 0l-.236-1.649s-1.061-.117-2.356-.354c-1.295-.236-2.709-.588-4.358-.117-1.648.471-3.298.354-4.476.706-1.179.352-3.535 1.295-3.535 1.295zM66.458 118.76s1.06.471 2.002.118c.942-.354 1.649-.825 1.649-.825s-1.061-.235-1.885.118c-.824.353-1.766.589-1.766.589zM65.279 118.878s-.117-.59.707-.825 1.296-.118 1.296-.118-.588.236-1.06.472l-.943.471zM61.274 117.464s1.296.471 2.475.354c1.178-.117 3.18-.707 3.18-.707s-1.649-.589-2.827-.471-2.828.824-2.828.824zM64.809 116.168s1.767 0 2.473.235c.707.236 1.178.354 1.178.354s-.235-.472.471-.824c.707-.354 1.414-.59 1.414-.59s-1.06-.471-1.767-.118c-.707.354-3.769.943-3.769.943zM49.023 115.461s1.531 0 2.474.118c.942.118 2.356.472 2.356.472l-.943-.59h-3.887zM46.079 116.521l1.06-.354c.707-.234.589-.471.589-.471s-.824.118-1.296.236c-.472.119-.353.589-.353.589zM45.372 115.697l.943-.236s-.236-.471-.708-.353c-.471.118-.235.589-.235.589z" fill-rule="evenodd" clip-rule="evenodd" fill="#fff" stroke="#fff" stroke-width=".118" stroke-miterlimit="2.613"/><path d="M112.635 126.227s1.449.797 2.754.797 3.189-.362 3.986-.58c.799-.217 1.377-.435 1.377-.435s-1.594-.289-3.043-.362c-1.451-.072-1.959 0-2.973.217-1.015.217-2.101.363-2.101.363z" fill-rule="evenodd" clip-rule="evenodd" fill="#fff" stroke="#fff" stroke-width=".236" stroke-miterlimit="2.613"/><path d="M74.649 145.001s-.436.072-.797.218c-.363.146-.652.435-.652.435s.363 0 .797-.145c.435-.145.652-.508.652-.508z" fill-rule="evenodd" clip-rule="evenodd" fill="#fff" stroke="#fff" stroke-width=".354" stroke-miterlimit="2.613"/><path d="M50.594 62.845s1.571-1.963 3.77-2.591c2.199-.628 3.612-.628 5.812-.472 2.198.157 16.334 3.22 16.334 3.22v49.631l-13.979 3.928s-2.827.47-4.555.314c-1.728-.158-3.77-.942-4.712-1.572-.942-.627-2.827-2.197-2.827-2.197l.157-50.261zM89.153 64.416s1.178-.942 2.591-1.099c1.414-.157 2.199.156 3.142.313s1.727.785 1.727.785v49.003h-7.617l.157-49.002z" fill-rule="evenodd" clip-rule="evenodd" fill="#fff" stroke="#000" stroke-width=".236" stroke-miterlimit="2.613"/><path d="M76.352 63.002s.786-.785 3.613-.785 4.398.392 6.282.863c1.885.471 2.984 1.335 2.984 1.335v49.161l-12.879-.942V63.002z" fill-rule="evenodd" clip-rule="evenodd" fill="#fff" stroke="#000" stroke-width=".236" stroke-miterlimit="2.613"/><path fill-rule="evenodd" clip-rule="evenodd" stroke="#000" stroke-width=".236" stroke-miterlimit="2.613" d="M57.505 64.809h2.002v3.416h-2.002v-3.416zM57.505 71.642h2.002v3.415h-2.002v-3.415zM57.505 78.473h2.002v3.416h-2.002v-3.416zM57.505 85.306h2.002v3.415h-2.002v-3.415zM57.505 92.137h2.002v3.417h-2.002v-3.417zM57.505 98.97h2.002v3.416h-2.002V98.97zM57.505 105.802h2.002v3.416h-2.002v-3.416zM57.505 111.81h2.002v3.416h-2.002v-3.416zM54.56 65.162v3.18l-2.002.943v-2.827l2.002-1.296zM54.56 71.876v2.945l-2.002.825v-2.709l2.002-1.061zM54.56 78.591v3.534l-1.885.235v-3.063l1.885-.706zM54.56 84.952v3.533l-1.885-.235v-3.298h1.885zM54.678 91.784V95.2l-2.003-.942v-3.181l2.003.707zM54.56 98.616v3.298l-2.002-1.06v-3.062l2.002.824zM54.56 104.742v3.298l-2.002-1.061v-3.062l2.002.825zM54.56 110.515v3.061l-2.002-1.295v-2.945l2.002 1.179zM61.981 64.926v3.416l12.723 1.767v-2.827l-12.723-2.356zM61.981 71.758v3.299l12.84 1.178V73.29l-12.84-1.532zM61.981 78.591v3.416l12.723.353v-2.827l-12.723-.942zM62.099 85.069h12.605v3.181l-12.605.354v-3.535zM61.981 92.02v3.18l12.723-.942v-2.945l-12.723.707zM62.099 98.734v3.415l12.722-1.531v-3.18l-12.722 1.296zM61.981 105.566v3.298l12.958-2.709v-2.945l-12.958 2.356zM61.981 111.81v3.18l12.84-3.416v-2.71l-12.84 2.946zM78.826 67.282h7.893v2.946h-7.893v-2.946zM78.826 73.643h7.893v2.945h-7.893v-2.945zM78.826 80.005h7.893v2.944h-7.893v-2.944zM78.826 85.423h7.893v2.945h-7.893v-2.945zM78.826 91.313h7.893v2.945h-7.893v-2.945zM78.826 97.556h7.893v2.945h-7.893v-2.945zM78.826 103.21h7.893v2.945h-7.893v-2.945zM78.826 108.63h7.893v2.944h-7.893v-2.944zM90.252 67.282H95.2v2.946h-4.948v-2.946zM90.252 73.643H95.2v2.945h-4.948v-2.945zM90.252 80.005H95.2v2.944h-4.948v-2.944zM90.252 85.423H95.2v2.945h-4.948v-2.945zM90.252 91.313H95.2v2.945h-4.948v-2.945zM90.252 97.556H95.2v2.945h-4.948v-2.945zM90.252 103.21H95.2v2.945h-4.948v-2.945zM90.252 108.63H95.2v2.944h-4.948v-2.944z"/><path d="M142.633 62.845s-1.57-1.963-3.77-2.591c-2.199-.628-3.611-.628-5.811-.472-2.199.157-16.334 3.22-16.334 3.22v49.631l13.977 3.928s2.828.47 4.557.314c1.727-.158 3.768-.942 4.711-1.572.941-.627 2.826-2.197 2.826-2.197l-.156-50.261zM104.074 64.416s-1.178-.942-2.592-1.099c-1.414-.157-2.199.156-3.141.313-.943.157-1.729.785-1.729.785v49.003h7.618l-.156-49.002z" fill-rule="evenodd" clip-rule="evenodd" fill="#fff" stroke="#000" stroke-width=".236" stroke-miterlimit="2.613"/><path d="M116.875 63.002s-.785-.785-3.613-.785c-2.826 0-4.396.392-6.281.863s-2.984 1.335-2.984 1.335v49.161l12.879-.942V63.002h-.001z" fill-rule="evenodd" clip-rule="evenodd" fill="#fff" stroke="#000" stroke-width=".236" stroke-miterlimit="2.613"/><path fill-rule="evenodd" clip-rule="evenodd" stroke="#000" stroke-width=".236" stroke-miterlimit="2.613" d="M133.719 64.809h2.004v3.416h-2.004v-3.416zM133.719 71.642h2.004v3.415h-2.004v-3.415zM133.719 78.473h2.004v3.416h-2.004v-3.416zM133.719 85.306h2.004v3.415h-2.004v-3.415zM133.719 92.137h2.004v3.417h-2.004v-3.417zM133.719 98.97h2.004v3.416h-2.004V98.97zM133.719 105.802h2.004v3.416h-2.004v-3.416zM133.719 111.81h2.004v3.416h-2.004v-3.416zM138.668 65.162v3.18l2.002.943v-2.827l-2.002-1.296zM138.668 71.876v2.945l2.002.825v-2.709l-2.002-1.061zM138.668 78.591v3.534l1.885.235v-3.063l-1.885-.706zM138.668 84.952v3.533l1.885-.235v-3.298h-1.885zM138.549 91.784V95.2l2.004-.942v-3.181l-2.004.707zM138.668 98.616v3.298l2.002-1.06v-3.062l-2.002.824zM138.668 104.742v3.298l2.002-1.061v-3.062l-2.002.825zM138.668 110.515v3.061l2.002-1.295v-2.945l-2.002 1.179zM131.246 64.926v3.416l-12.723 1.767v-2.827l12.723-2.356zM131.246 71.758v3.299l-12.84 1.178V73.29l12.84-1.532zM131.246 78.591v3.416l-12.723.353v-2.827l12.723-.942zM131.129 85.069h-12.606v3.181l12.606.354v-3.535zM131.246 92.02v3.18l-12.723-.942v-2.945l12.723.707zM131.129 98.734v3.415l-12.723-1.531v-3.18l12.723 1.296zM131.246 105.566v3.298l-12.957-2.709v-2.945l12.957 2.356zM131.246 111.81v3.18l-12.84-3.416v-2.71l12.84 2.946zM106.51 67.282h7.89v2.946h-7.89v-2.946zM106.51 73.643h7.89v2.945h-7.89v-2.945zM106.51 80.005h7.89v2.944h-7.89v-2.944zM106.51 85.423h7.89v2.945h-7.89v-2.945zM106.51 91.313h7.89v2.945h-7.89v-2.945zM106.51 97.556h7.89v2.945h-7.89v-2.945zM106.51 103.21h7.89v2.945h-7.89v-2.945zM106.51 108.63h7.89v2.944h-7.89v-2.944zM102.975 67.282h-4.948v2.946h4.948v-2.946zM102.975 73.643h-4.948v2.945h4.948v-2.945zM102.975 80.005h-4.948v2.944h4.948v-2.944zM102.975 85.423h-4.948v2.945h4.948v-2.945zM102.975 91.313h-4.948v2.945h4.948v-2.945zM102.975 97.556h-4.948v2.945h4.948v-2.945zM102.975 103.21h-4.948v2.945h4.948v-2.945zM102.975 108.63h-4.948v2.944h4.948v-2.944z"/><path d="M68.456 116.708s1.715.168 2.658-.055c.943-.223 1.218-.444 1.551-.223.333.223.446.555.888.5.442-.055.831-.277 1.274-.389.443-.111 1.274-.166 1.94-.056.666.111 1.385.278 1.385.278s.001-.502-.442-.832c-.444-.332-1.276-.831-1.276-.831s.444-.333.61-.556c.167-.222.278-.498.278-.498s.442-.277.997-.332c.555-.056 1.331-.056 1.607 0 .277.055.61.222.61.222s-.057-.776-.61-.998c-.553-.223-1.72-.223-2.051-.167-.332.056-1.441.61-1.441.61s-.497.498-.831.941c-.333.444-.832 1.332-.832 1.332l.222-1.165c.055-.333.388-.887.61-1.108s.332-.555.332-.555.666-.608.943-.941c.276-.333.664-.834.942-1.276.277-.442.221-1.163.221-1.163s-1.386.167-1.774.776c-.388.608-1.163 2.271-1.33 2.604s-.555.776-.555.776-.277-.055-.167-.609c.111-.555.5-1.441.61-1.94.111-.5.278-1.552 0-2.052-.277-.499-.941-.997-.941-.997s-.555.832-.499 1.719c.055.886.333 2.049.055 2.604-.277.556-.388 1.055-.388 1.055s-.277-.72-.389-1.607-.221-2.106-.608-2.661c-.389-.555-.665-.666-.665-.666s-.61 1.055.054 2.939c.665 1.885 1.164 2.881 1.164 2.881s-.997-1.554-1.551-2.051c-.554-.498-1.275-.83-1.996-.664-.722.166-1.386.887-1.386.887s1.163.109 1.829.221 1.163.445 1.441.777c.277.332.388.664.388.664s-.775-.498-1.608-.553c-.832-.057-1.218.057-1.718.332-.499.276-.999.664-.999.664s1.497-.111 2.163-.055c.666.055 1.551.444 1.774.555.222.11.333.276.333.276s-.776.169-1.553.444c-.773.278-1.269.943-1.269.943z" fill-rule="evenodd" clip-rule="evenodd" stroke="#fff" stroke-width=".236" stroke-miterlimit="2.613"/><path d="M77.932 115.767s0-2.441.166-3.382c.167-.941.555-3.214.721-4.379.167-1.164.444-2.553.444-3.104 0-.554-.111-2.327-.111-2.66s-.333-.223-.61-.277c-.277-.056-.388-.277-.388-.277s-.221.497-.167 1.606c.056 1.11.109 1.72-.11 2.717-.221.997-.775 3.05-.886 4.103-.111 1.054-.611 3.657-.611 4.434s.167 1.663.167 1.663l1.44.333-.055-.777z" fill-rule="evenodd" clip-rule="evenodd" stroke="#fff" stroke-width=".236" stroke-miterlimit="2.613"/><path d="M78.153 101.851s.001.222-.498.888c-.5.666-1.109 2.052-1.332 2.718-.222.665-.333 1.662-.333 1.662s-.94-.442-.83-1.44c.11-.999.72-2.606.72-2.606s-.886.89-1.386 1.332-1.941.996-1.941.996.111-.663.611-1.328c.499-.667 1.052-1.11 1.052-1.11s-1.994.443-2.66.388c-.666-.056-1.276-.443-1.276-.443s1.385-.941 2.162-1.108c.777-.167 1.774-.222 1.774-.222s-2.16-.111-2.771-.111c-.61 0-1.883.5-1.883.5s-.058-.83.719-1.33c.777-.5 2.33-.61 3.05-.443.72.165 1.274.055 1.274.055s-1.221-.664-2.052-1.33c-.83-.666-1.108-1.331-1.44-1.498-.333-.166-1.441-.331-1.441-.331s2.329-1.108 3.437-.167c1.108.941 2.441 1.827 2.717 2.105.275.277.887.499.887.499s-.887-1.109-1.386-1.829-1.112-2.052-1.276-2.384c-.165-.332.222-.498.222-.498s-.22-.611-.609-.889c-.388-.277-.721-.664-.721-.664s1.11-.612 2.218.554c1.107 1.165 1.496 1.939 1.496 1.939s-.277-1.331-.277-1.885c0-.553.277-1.775.666-2.218.389-.442 1.053-.719 1.053-.719s.167 1.273.111 1.718c-.056.444-.111 1.053-.167 1.607-.056.555-.664 2.162-.664 2.162s.332.608.443.942c.111.332.332 1.275.332 1.275s.167-1.108.222-1.552c.055-.443.277-1.221.277-1.221s-.388.222-.5.389c-.111.166-.277-.389-.277-.389l.166-1.274s.056-1.33.277-1.773c.222-.444.721-1.386.721-1.386s.446.053.556.22c.109.167.498-.331.83-.498.333-.165 1.11-.554 1.11-.165 0 .388-1.166 3.271-1.388 3.991-.222.72-.608 1.883-.664 2.216-.055.332-.167 1.221-.167 1.221s.609-.665 1.108-1.497c.5-.832.835-1.496 1-1.829.165-.332.553-.61 1.496-.943.777-.273.389 0 .389 0s0 .888-.556 2.107c-.554 1.219-1.607 2.548-1.94 2.771-.333.223-.388.333-.388.333s1.607-1.497 1.941-1.719c.332-.222.83-.333 1.385-.388.556-.056.389.136.333.554-.111.833-1.388 1.94-2.052 2.386-.664.443-1.386.388-1.386.388l.998-.167 1.109-.777s.664-.498 1.275-.443c.61.057 1.221.722 1.221.722s-1.277.774-2.218 1.108c-.941.332-1.386.388-1.773.332-.389-.056.774.056.774.056l1.663-.056s1.333.5 1.499.777c.165.277.22 1.719.22 1.719s-.498-.277-1.052-.61-1.554-.72-2.329-.775c-.774-.056-1.664.498-2.162.387-.498-.111-.941-.556-.941-.556l-.778-.446z" fill-rule="evenodd" clip-rule="evenodd" stroke="#fff" stroke-width=".236" stroke-miterlimit="2.613"/><path d="M79.009 102.688l.178-.423-1.612-1.098.103 1.089s.42.331.448.47c.028.139.883-.038.883-.038z" fill-rule="evenodd" clip-rule="evenodd" stroke="#000" stroke-width=".354" stroke-miterlimit="2.613"/><path d="M77.19 113.141s.56.337.873.655c.271.275 1.051 1.234 1.254 1.483-.064-.088-.205-.305-.507-.832-.481-.845-.795-1.379-1.037-1.548-.241-.169-.583.242-.583.242zm.801 4.107s.216-.193.362-.313c.144-.121.144-.145-.362-.651-.506-.507-1.379-.993-1.379-.993s.675-.048 1.113.197 1.592 1.133 1.592 1.133-.338-.53-.893-1.233-1.789-1.86-1.789-1.86-.289.366-.579.654c-.289.29-1.281 1.789-1.281 1.789s.168-1.017.361-1.571 1.017-1.354 1.017-1.354.024 0-.193-.169-2.202-1.86-2.202-1.86 1.112.435 1.571.728 1.114.796 1.114.796.795-.458 1.281-.458c.486 0 1.35.892 1.909 1.571.559.679 1.495 1.98 1.495 1.98l.121-.896c.049-.36.486-1.036.486-1.036s-.048.892-.096 1.109c-.048.217.072 1.113.072 1.113s.217-.165.385-.387c.169-.221.122-.702.025-1.401-.097-.7-.338-1.259-.338-1.259s-.193-.481-1.016-1.499c-.825-1.017-2.368-2.198-2.368-2.198s.868.313 1.813.849c.944.534 1.643 1.567 1.643 1.567v-1.471c0-.699-.583-2.227-.583-2.227s.342.317.511.631.458.988.53 1.619c.073.631 0 2.199 0 2.199l.242.529s.241.507.313 1.162c.072.655.096.819.096.819s.097-.097.146-.386c.047-.29.172-1.402.172-1.402s.193.409.193.92.097 1.23.097 1.23.217-.313.289-.748c.072-.434-.097-1.017-.337-1.354-.242-.337-.921-1.205-.921-1.205s.555.192.752.435c.197.24.627.698.627.698s.096-1.644.963-2.752c.869-1.109 3.505-.801 3.505-.801s-1.255.193-1.861.438-1.35.53-1.74 1.812c-.284.933-.506 2.126-.506 2.126s.145-.266.361-.752c.217-.485.896-.796.896-.796s-.168.386-.535.868c-.366.482-.41 1.113-.482 1.74-.073.627-.555 1.475-.555 1.475s.313-.023.844-.023.92.481.92.481-.097-.097-.531-.144c-.434-.049-.823.096-.992.289-.169.192.872.486.872.486s-1.836 0-3.625-.072c-1.785-.071-3.525-.172-3.525-.172z" fill-rule="evenodd" clip-rule="evenodd"/><path d="M77.19 113.141s.56.337.873.655c.271.275 1.051 1.234 1.254 1.483-.064-.088-.205-.305-.507-.832-.481-.845-.795-1.379-1.037-1.548-.241-.169-.583.242-.583.242m.801 4.107s.216-.193.362-.313c.144-.121.144-.145-.362-.651-.506-.507-1.379-.993-1.379-.993s.675-.048 1.113.197 1.592 1.133 1.592 1.133-.338-.53-.893-1.233-1.789-1.86-1.789-1.86-.289.366-.579.654c-.289.29-1.281 1.789-1.281 1.789s.168-1.017.361-1.571 1.017-1.354 1.017-1.354.024 0-.193-.169-2.202-1.86-2.202-1.86 1.112.435 1.571.728 1.114.796 1.114.796.795-.458 1.281-.458c.486 0 1.35.892 1.909 1.571.559.679 1.495 1.98 1.495 1.98l.121-.896c.049-.36.486-1.036.486-1.036s-.048.892-.096 1.109c-.048.217.072 1.113.072 1.113s.217-.165.385-.387c.169-.221.122-.702.025-1.401-.097-.7-.338-1.259-.338-1.259s-.193-.481-1.016-1.499c-.825-1.017-2.368-2.198-2.368-2.198s.868.313 1.813.849c.944.534 1.643 1.567 1.643 1.567v-1.471c0-.699-.583-2.227-.583-2.227s.342.317.511.631.458.988.53 1.619c.073.631 0 2.199 0 2.199l.242.529s.241.507.313 1.162c.072.655.096.819.096.819s.097-.097.146-.386c.047-.29.172-1.402.172-1.402s.193.409.193.92.097 1.23.097 1.23.217-.313.289-.748c.072-.434-.097-1.017-.337-1.354-.242-.337-.921-1.205-.921-1.205s.555.192.752.435c.197.24.627.698.627.698s.096-1.644.963-2.752c.869-1.109 3.505-.801 3.505-.801s-1.255.193-1.861.438-1.35.53-1.74 1.812c-.284.933-.506 2.126-.506 2.126s.145-.266.361-.752c.217-.485.896-.796.896-.796s-.168.386-.535.868c-.366.482-.41 1.113-.482 1.74-.073.627-.555 1.475-.555 1.475s.313-.023.844-.023.92.481.92.481-.097-.097-.531-.144c-.434-.049-.823.096-.992.289-.169.192.872.486.872.486s-1.836 0-3.625-.072c-1.785-.071-3.525-.172-3.525-.172z" fill="none" stroke="#fff" stroke-width=".236" stroke-miterlimit="2.613"/><path d="M117.242 113.141s.559.337.871.655c.273.275 1.053 1.234 1.254 1.483a12.127 12.127 0 0 1-.506-.832c-.482-.845-.795-1.379-1.037-1.548-.24-.169-.582.242-.582.242zm.799 4.107s.217-.193.361-.313c.146-.121.146-.145-.361-.651-.506-.507-1.377-.993-1.377-.993s.674-.048 1.113.197c.438.245 1.59 1.133 1.59 1.133s-.338-.53-.891-1.233c-.555-.703-1.789-1.86-1.789-1.86s-.291.366-.578.654c-.291.29-1.283 1.789-1.283 1.789s.17-1.017.363-1.571c.191-.555 1.016-1.354 1.016-1.354s.023 0-.191-.169c-.219-.169-2.203-1.86-2.203-1.86s1.111.435 1.57.728 1.113.796 1.113.796.797-.458 1.283-.458 1.35.892 1.908 1.571c.559.679 1.494 1.98 1.494 1.98l.121-.896c.049-.36.486-1.036.486-1.036s-.049.892-.096 1.109c-.049.217.07 1.113.07 1.113s.219-.165.387-.387c.17-.221.121-.702.023-1.401-.096-.7-.336-1.259-.336-1.259s-.193-.481-1.018-1.499c-.824-1.017-2.367-2.198-2.367-2.198s.869.313 1.812.849c.945.534 1.645 1.567 1.645 1.567v-1.471c0-.699-.584-2.227-.584-2.227s.342.317.512.631c.168.313.457.988.529 1.619s0 2.199 0 2.199l.24.529s.242.507.314 1.162.096.819.096.819.098-.097.146-.386c.047-.29.172-1.402.172-1.402s.193.409.193.92.096 1.23.096 1.23.217-.313.289-.748c.074-.434-.096-1.017-.336-1.354-.242-.337-.922-1.205-.922-1.205s.555.192.752.435c.197.24.627.698.627.698s.096-1.644.965-2.752c.869-1.109 3.504-.801 3.504-.801s-1.254.193-1.859.438c-.607.245-1.352.53-1.74 1.812-.285.933-.508 2.126-.508 2.126s.145-.266.363-.752c.217-.485.896-.796.896-.796s-.17.386-.535.868c-.367.482-.41 1.113-.482 1.74s-.555 1.475-.555 1.475.312-.023.844-.023.92.481.92.481-.096-.097-.529-.144c-.436-.049-.824.096-.994.289-.168.192.873.486.873.486s-1.836 0-3.625-.072-3.527-.172-3.527-.172z" fill-rule="evenodd" clip-rule="evenodd"/><path d="M117.242 113.141s.559.337.871.655c.273.275 1.053 1.234 1.254 1.483a12.127 12.127 0 0 1-.506-.832c-.482-.845-.795-1.379-1.037-1.548-.24-.169-.582.242-.582.242m.799 4.107s.217-.193.361-.313c.146-.121.146-.145-.361-.651-.506-.507-1.377-.993-1.377-.993s.674-.048 1.113.197c.438.245 1.59 1.133 1.59 1.133s-.338-.53-.891-1.233c-.555-.703-1.789-1.86-1.789-1.86s-.291.366-.578.654c-.291.29-1.283 1.789-1.283 1.789s.17-1.017.363-1.571c.191-.555 1.016-1.354 1.016-1.354s.023 0-.191-.169c-.219-.169-2.203-1.86-2.203-1.86s1.111.435 1.57.728 1.113.796 1.113.796.797-.458 1.283-.458 1.35.892 1.908 1.571c.559.679 1.494 1.98 1.494 1.98l.121-.896c.049-.36.486-1.036.486-1.036s-.049.892-.096 1.109c-.049.217.07 1.113.07 1.113s.219-.165.387-.387c.17-.221.121-.702.023-1.401-.096-.7-.336-1.259-.336-1.259s-.193-.481-1.018-1.499c-.824-1.017-2.367-2.198-2.367-2.198s.869.313 1.812.849c.945.534 1.645 1.567 1.645 1.567v-1.471c0-.699-.584-2.227-.584-2.227s.342.317.512.631c.168.313.457.988.529 1.619s0 2.199 0 2.199l.24.529s.242.507.314 1.162.096.819.096.819.098-.097.146-.386c.047-.29.172-1.402.172-1.402s.193.409.193.92.096 1.23.096 1.23.217-.313.289-.748c.074-.434-.096-1.017-.336-1.354-.242-.337-.922-1.205-.922-1.205s.555.192.752.435c.197.24.627.698.627.698s.096-1.644.965-2.752c.869-1.109 3.504-.801 3.504-.801s-1.254.193-1.859.438c-.607.245-1.352.53-1.74 1.812-.285.933-.508 2.126-.508 2.126s.145-.266.363-.752c.217-.485.896-.796.896-.796s-.17.386-.535.868c-.367.482-.41 1.113-.482 1.74s-.555 1.475-.555 1.475.312-.023.844-.023.92.481.92.481-.096-.097-.529-.144c-.436-.049-.824.096-.994.289-.168.192.873.486.873.486s-1.836 0-3.625-.072-3.527-.172-3.527-.172z" fill="none" stroke="#fff" stroke-width=".236" stroke-miterlimit="2.613"/><path d="M118.926 116.237s0-2.44.166-3.382.555-3.214.721-4.378c.166-1.166.445-2.553.445-3.105s-.111-2.327-.111-2.66-.334-.222-.611-.277-.389-.277-.389-.277-.221.497-.166 1.607c.057 1.11.109 1.72-.111 2.717s-.775 3.051-.887 4.103c-.109 1.052-.609 3.657-.609 4.434s.166 1.663.166 1.663l1.441.332-.055-.777z" fill-rule="evenodd" clip-rule="evenodd" stroke="#fff" stroke-width=".236" stroke-miterlimit="2.613"/><path d="M119.146 102.321s.002.223-.498.889c-.498.666-1.109 2.051-1.33 2.717-.223.666-.334 1.663-.334 1.663s-.941-.442-.83-1.441.719-2.606.719-2.606-.885.89-1.385 1.333c-.5.441-1.939.997-1.939.997s.109-.665.609-1.331c.5-.665 1.053-1.109 1.053-1.109s-1.994.444-2.66.389c-.664-.056-1.275-.444-1.275-.444s1.385-.941 2.162-1.108c.775-.165 1.773-.221 1.773-.221s-2.16-.111-2.771-.111c-.609 0-1.885.499-1.885.499s-.057-.83.721-1.329c.777-.5 2.33-.611 3.049-.444.721.166 1.275.055 1.275.055s-1.221-.664-2.051-1.329c-.832-.666-1.109-1.332-1.441-1.499-.332-.166-1.441-.331-1.441-.331s2.33-1.107 3.436-.166c1.109.941 2.443 1.827 2.719 2.104s.885.5.885.5-.885-1.11-1.385-1.829c-.498-.72-1.111-2.053-1.275-2.385-.166-.331.223-.497.223-.497s-.223-.61-.609-.888c-.389-.278-.723-.664-.723-.664s1.109-.612 2.219.553c1.107 1.166 1.496 1.94 1.496 1.94s-.277-1.332-.277-1.885.277-1.775.666-2.218 1.053-.72 1.053-.72.166 1.275.111 1.718c-.057.445-.111 1.053-.166 1.608-.057.555-.666 2.161-.666 2.161s.332.609.443.941c.111.334.332 1.277.332 1.277s.168-1.108.223-1.553c.055-.443.277-1.221.277-1.221s-.389.223-.5.389c-.109.166-.277-.389-.277-.389l.168-1.274s.055-1.329.277-1.773c.221-.443.721-1.385.721-1.385s.445.053.555.22.498-.331.83-.498c.332-.166 1.109-.554 1.109-.166 0 .389-1.166 3.272-1.387 3.992-.223.719-.609 1.882-.664 2.215s-.166 1.221-.166 1.221.607-.663 1.107-1.496c.5-.832.834-1.497.998-1.829.166-.333.555-.611 1.498-.943.775-.274.387 0 .387 0s0 .888-.555 2.106c-.555 1.219-1.605 2.549-1.939 2.771-.334.223-.389.333-.389.333s1.607-1.496 1.939-1.718c.334-.223.832-.334 1.387-.389.555-.056.389.136.332.555-.109.833-1.387 1.94-2.051 2.385s-1.385.389-1.385.389l.996-.167 1.109-.776s.664-.5 1.275-.444c.609.056 1.221.721 1.221.721s-1.275.776-2.217 1.108c-.941.333-1.387.389-1.773.333-.391-.056.773.056.773.056l1.662-.056s1.334.499 1.498.776c.166.278.221 1.719.221 1.719s-.496-.277-1.053-.61c-.555-.333-1.553-.719-2.328-.774-.773-.056-1.664.497-2.162.386s-.941-.555-.941-.555l-.779-.448z" fill-rule="evenodd" clip-rule="evenodd" stroke="#fff" stroke-width=".236" stroke-miterlimit="2.613"/><path d="M120.002 103.161l.18-.423-1.613-1.1.104 1.09s.42.331.447.469c.028.138.882-.036.882-.036z" fill-rule="evenodd" clip-rule="evenodd" stroke="#000" stroke-width=".354" stroke-miterlimit="2.613"/><path d="M108.508 116.708s1.713.168 2.658-.055c.941-.223 1.219-.444 1.551-.223.332.223.445.555.887.5.443-.055.832-.277 1.275-.389s1.275-.166 1.939-.056c.666.111 1.387.278 1.387.278s.002-.502-.443-.832c-.443-.332-1.275-.831-1.275-.831s.443-.333.609-.556c.168-.222.279-.498.279-.498s.441-.277.996-.332c.555-.056 1.33-.056 1.607 0 .277.055.609.222.609.222s-.057-.776-.609-.998c-.553-.223-1.721-.223-2.051-.167-.332.056-1.441.61-1.441.61s-.498.498-.83.941c-.334.444-.832 1.332-.832 1.332l.221-1.165c.057-.333.389-.887.611-1.108.221-.222.33-.555.33-.555s.668-.608.943-.941c.277-.333.664-.834.941-1.276s.223-1.163.223-1.163-1.385.167-1.773.776c-.389.608-1.164 2.271-1.33 2.604s-.555.776-.555.776-.277-.055-.166-.609c.109-.555.498-1.441.609-1.94.111-.5.277-1.552 0-2.052-.277-.499-.941-.997-.941-.997s-.555.832-.5 1.719c.057.886.334 2.049.057 2.604-.277.556-.389 1.055-.389 1.055s-.277-.72-.389-1.607-.221-2.106-.609-2.661-.666-.666-.666-.666-.607 1.055.057 2.939 1.164 2.881 1.164 2.881-.998-1.554-1.553-2.051c-.555-.498-1.273-.83-1.996-.664-.721.166-1.385.887-1.385.887s1.164.109 1.83.221 1.162.445 1.441.777c.275.332.387.664.387.664s-.775-.498-1.607-.553c-.832-.057-1.219.057-1.719.332-.498.276-.998.664-.998.664s1.496-.111 2.162-.055c.666.055 1.553.444 1.775.555.221.11.332.276.332.276s-.775.169-1.553.444c-.774.278-1.27.943-1.27.943z" fill-rule="evenodd" clip-rule="evenodd" stroke="#fff" stroke-width=".236" stroke-miterlimit="2.613"/><path d="M76.641 123.442h45.964s-4.256.972-5.35 1.154c-1.096.183-3.465.607-3.83.972-.365.365-1.096 1.923-1.824 2.531-.73.608-1.217 1.095-2.25 1.339-1.035.242-26.812-.039-26.812-.039s-1.216-.426-2.007-1.277c-.79-.851-3.891-4.68-3.891-4.68z" fill-rule="evenodd" clip-rule="evenodd" fill="#fff" stroke="#000" stroke-width=".236" stroke-miterlimit="2.613"/><path d="M90.162 90.198v33.201h-6.089s-.797-2.393-1.087-4.205c-.29-1.812-.652-5.654-.217-8.916.435-3.262 1.16-7.031 2.828-11.019 1.665-3.986 4.565-9.061 4.565-9.061z" fill="none" stroke="#000" stroke-width=".236" stroke-miterlimit="2.613"/><path d="M83.853 122.708h6.309v.691h-6.089c-.001 0-.09-.268-.22-.691z" fill-rule="evenodd" clip-rule="evenodd" fill="#fff"/><path d="M83.648 122.017h6.514v.691h-6.309a49.808 49.808 0 0 1-.205-.691z" fill-rule="evenodd" clip-rule="evenodd" fill="#f8f8f8"/><path d="M83.457 121.324h6.705v.692h-6.514c-.062-.216-.127-.45-.191-.692z" fill-rule="evenodd" clip-rule="evenodd" fill="#f3f3f4"/><path d="M83.28 120.632h6.881v.692h-6.705a36.547 36.547 0 0 1-.176-.692z" fill-rule="evenodd" clip-rule="evenodd" fill="#efeff0"/><path d="M83.124 119.94h7.038v.691H83.28a23.733 23.733 0 0 1-.156-.691z" fill-rule="evenodd" clip-rule="evenodd" fill="#ecedee"/><path d="M82.994 119.249h7.168v.691h-7.038a14.83 14.83 0 0 1-.13-.691z" fill-rule="evenodd" clip-rule="evenodd" fill="#e8e9ea"/><path d="M82.891 118.558h7.271v.691h-7.168l-.009-.055c-.03-.19-.063-.404-.094-.636z" fill-rule="evenodd" clip-rule="evenodd" fill="#e6e6e7"/><path d="M82.807 117.865h7.355v.692h-7.271a33.367 33.367 0 0 1-.084-.692z" fill-rule="evenodd" clip-rule="evenodd" fill="#e4e4e5"/><path d="M82.736 117.174h7.426v.691h-7.355a30.72 30.72 0 0 1-.071-.691z" fill-rule="evenodd" clip-rule="evenodd" fill="#e1e2e3"/><path d="M82.677 116.482h7.484v.691h-7.426c-.02-.222-.04-.452-.058-.691z" fill-rule="evenodd" clip-rule="evenodd" fill="#dfe0e1"/><path d="M82.63 115.791h7.532v.691h-7.484a33.647 33.647 0 0 1-.048-.691z" fill-rule="evenodd" clip-rule="evenodd" fill="#dddedf"/><path d="M82.596 115.099h7.566v.692H82.63a36.878 36.878 0 0 1-.034-.692z" fill-rule="evenodd" clip-rule="evenodd" fill="#dbdcdd"/><path d="M82.574 114.408h7.588v.69h-7.566a30.43 30.43 0 0 1-.022-.69zM82.566 113.937v-.221h7.595v.692h-7.588l-.007-.471z" fill-rule="evenodd" clip-rule="evenodd" fill="#d9dadb"/><path d="M82.566 113.716v-.369l.004-.322h7.591v.691h-7.595z" fill-rule="evenodd" clip-rule="evenodd" fill="#d7d8d9"/><path d="M82.592 112.333h7.569v.691H82.57c.006-.23.013-.461.022-.691zM82.631 111.642h7.53v.691h-7.569c.01-.231.023-.462.039-.691z" fill-rule="evenodd" clip-rule="evenodd" fill="#d5d6d7"/><path d="M82.689 110.949h7.472v.692h-7.53c.016-.232.036-.462.058-.692z" fill-rule="evenodd" clip-rule="evenodd" fill="#d3d4d5"/><path d="M82.77 110.258h7.392v.691H82.69c.022-.226.049-.449.078-.671l.002-.02zM82.866 109.566h7.296v.69h-7.391c.03-.227.061-.457.095-.69zM82.968 108.875h7.193v.691h-7.296c.033-.228.067-.459.103-.691z" fill-rule="evenodd" clip-rule="evenodd" fill="#d0d1d3"/><path d="M83.081 108.183h7.081v.692h-7.193c.035-.229.073-.459.112-.692z" fill-rule="evenodd" clip-rule="evenodd" fill="#cecfd1"/><path d="M83.202 107.49h6.96v.692h-7.081c.038-.229.079-.458.121-.692zM83.333 106.8h6.828v.69h-6.96l.132-.69zM83.476 106.107h6.686v.692h-6.828c.044-.229.092-.459.142-.692z" fill-rule="evenodd" clip-rule="evenodd" fill="#cccdcf"/><path d="M83.629 105.416h6.532v.691h-6.686c.05-.228.101-.46.154-.691zM83.795 104.724h6.366v.692h-6.532c.053-.229.109-.46.166-.692z" fill-rule="evenodd" clip-rule="evenodd" fill="#cacbcd"/><path d="M83.973 104.033h6.188v.69h-6.366c.058-.228.116-.458.178-.69zM84.165 103.341h5.997v.692h-6.188c.061-.229.124-.46.191-.692zM84.37 102.649h5.792v.691h-5.997c.066-.229.134-.458.205-.691z" fill-rule="evenodd" clip-rule="evenodd" fill="#c8c9cb"/><path d="M84.589 101.958h5.572v.691H84.37c.07-.229.144-.46.219-.691zM84.823 101.267h5.338v.691h-5.572c.076-.23.153-.46.234-.691zM85.074 100.574h5.088v.692h-5.338c.08-.23.164-.46.25-.692z" fill-rule="evenodd" clip-rule="evenodd" fill="#c6c7c9"/><path d="M85.34 99.883h4.821v.691h-5.088c.086-.229.176-.46.267-.691zM85.624 99.19h4.538v.692H85.34c.082-.207.167-.415.255-.623l.029-.069z" fill-rule="evenodd" clip-rule="evenodd" fill="#c4c5c7"/><path d="M85.92 98.5h4.241v.69h-4.538c.096-.226.195-.457.297-.69zM86.231 97.808h3.931v.692H85.92c.101-.229.205-.46.311-.692zM86.551 97.116h3.61v.691H86.23l.321-.691zM86.882 96.425h3.279v.691h-3.61l.331-.691z" fill-rule="evenodd" clip-rule="evenodd" fill="#c1c3c5"/><path d="M87.221 95.732h2.94v.692h-3.279c.112-.231.226-.463.339-.692z" fill-rule="evenodd" clip-rule="evenodd" fill="#bfc1c3"/><path d="M87.567 95.042h2.595v.691h-2.94c.114-.234.23-.464.345-.691zM87.92 94.349h2.242v.692h-2.595c.119-.235.236-.465.353-.692z" fill-rule="evenodd" clip-rule="evenodd" fill="#bfc1c3"/><path d="M88.279 93.658h1.883v.691H87.92c.122-.236.241-.467.359-.691zM88.644 92.966h1.518v.692h-1.883l.365-.692zM89.014 92.274h1.148v.691h-1.518l.37-.691zM89.39 91.583h.771v.691h-1.148c.134-.248.261-.48.377-.691z" fill-rule="evenodd" clip-rule="evenodd" fill="#bdbfc1"/><path d="M89.771 90.892h.391v.691h-.772c.144-.264.273-.496.381-.691zM90.161 90.199l.001.692h-.391c.238-.429.383-.68.39-.692z" fill-rule="evenodd" clip-rule="evenodd" fill="#bbbcbf"/><path d="M90.162 90.198v33.201h-6.089s-.797-2.393-1.087-4.205c-.29-1.812-.652-5.654-.217-8.916.435-3.262 1.16-7.031 2.828-11.019 1.665-3.986 4.565-9.061 4.565-9.061zm1.232 33.129h3.19s2.826-1.596 4.783-2.393c1.959-.797 4.277-1.015 6.234-.362 1.959.651 4.424 2.827 4.424 2.827s1.447-2.393 2.535-5.292 2.32-6.959 2.467-10.729c.145-3.77-.508-9.497-1.885-13.338-1.379-3.842-2.973-7.757-5.148-11.163-2.174-3.408-7.25-10.004-7.25-10.004S96.686 68.306 95.381 67c-1.305-1.305-4.639-4.204-4.639-4.204l.652 60.531z" fill="none" stroke="#000" stroke-width=".236" stroke-miterlimit="2.613"/><path d="M91.381 122.137h5.423a66.556 66.556 0 0 0-2.22 1.19h-3.19l-.013-1.19zm17.037 0h2.311c-.416.786-.703 1.263-.703 1.263s-.68-.6-1.608-1.263z" fill-rule="evenodd" clip-rule="evenodd" fill="#fff"/><path d="M91.368 120.874h8.15l-.15.061c-.793.323-1.73.775-2.563 1.202h-5.423l-.014-1.263zm14.972 0h5.027c-.229.475-.447.901-.639 1.263h-2.311c-.622-.447-1.358-.921-2.077-1.263z" fill-rule="evenodd" clip-rule="evenodd" fill="#f8f8f8"/><path d="M91.354 119.612h20.594c-.195.447-.391.871-.58 1.262h-5.027a6.414 6.414 0 0 0-.738-.302c-1.906-.636-4.158-.446-6.084.302h-8.15l-.015-1.262z" fill-rule="evenodd" clip-rule="evenodd" fill="#f3f3f4"/><path d="M91.34 118.35h21.128c-.168.436-.346.859-.521 1.263H91.354l-.014-1.263z" fill-rule="evenodd" clip-rule="evenodd" fill="#efeff0"/><path d="M91.327 117.087h21.605c-.125.354-.248.695-.371 1.021-.029.081-.062.161-.092.242H91.34l-.013-1.263z" fill-rule="evenodd" clip-rule="evenodd" fill="#ecedee"/><path d="M91.313 115.824h22.042c-.141.436-.283.856-.424 1.263H91.327l-.014-1.263z" fill-rule="evenodd" clip-rule="evenodd" fill="#e8e9ea"/><path d="M91.3 114.562h22.442c-.125.432-.256.854-.387 1.263H91.313l-.013-1.263z" fill-rule="evenodd" clip-rule="evenodd" fill="#e6e6e7"/><path d="M91.286 113.299h22.802c-.111.429-.227.849-.346 1.263H91.3l-.014-1.263z" fill-rule="evenodd" clip-rule="evenodd" fill="#e4e4e5"/><path d="M91.272 112.036h23.117c-.094.426-.195.847-.301 1.263H91.286l-.014-1.263z" fill-rule="evenodd" clip-rule="evenodd" fill="#e1e2e3"/><path d="M91.258 110.774h23.382c-.076.423-.16.845-.252 1.262H91.272l-.014-1.262z" fill-rule="evenodd" clip-rule="evenodd" fill="#dfe0e1"/><path d="M91.245 109.512h23.593a28.78 28.78 0 0 1-.197 1.263H91.258l-.013-1.263z" fill-rule="evenodd" clip-rule="evenodd" fill="#dddedf"/><path d="M91.232 108.249h23.741c-.033.419-.078.841-.135 1.263H91.245l-.013-1.263z" fill-rule="evenodd" clip-rule="evenodd" fill="#dbdcdd"/><path d="M91.218 106.987h23.819a24.39 24.39 0 0 1-.01.392c-.012.288-.031.578-.055.87h-23.74l-.014-1.262z" fill-rule="evenodd" clip-rule="evenodd" fill="#d9dadb"/><path d="M91.205 105.724h23.834c.008.438.008.86-.002 1.264H91.218l-.013-1.264z" fill-rule="evenodd" clip-rule="evenodd" fill="#d9dadb"/><path d="M91.19 104.461h23.808c.021.433.035.854.041 1.263H91.205l-.015-1.263z" fill-rule="evenodd" clip-rule="evenodd" fill="#d7d8d9"/><path d="M91.177 103.198h23.737c.035.428.062.85.084 1.263H91.19l-.013-1.263z" fill-rule="evenodd" clip-rule="evenodd" fill="#d5d6d7"/><path d="M91.164 101.937h23.633c.047.425.086.846.117 1.262H91.177l-.013-1.262z" fill-rule="evenodd" clip-rule="evenodd" fill="#d5d6d7"/><path d="M91.15 100.674h23.497c.057.422.107.843.15 1.263H91.164l-.014-1.263z" fill-rule="evenodd" clip-rule="evenodd" fill="#d3d4d5"/><path d="M91.136 99.412h23.323c.068.418.131.841.188 1.262H91.15l-.014-1.262zM91.123 98.149h23.108c.082.416.158.838.229 1.263H91.136l-.013-1.263z" fill-rule="evenodd" clip-rule="evenodd" fill="#d0d1d3"/><path d="M91.109 96.886h22.852c.098.413.186.836.27 1.264H91.123l-.014-1.264z" fill-rule="evenodd" clip-rule="evenodd" fill="#d0d1d3"/><path d="M91.096 95.624h22.545c.113.409.221.83.32 1.262H91.109l-.013-1.262z" fill-rule="evenodd" clip-rule="evenodd" fill="#cecfd1"/><path d="M91.082 94.361h22.172c.137.404.266.826.387 1.263H91.096l-.014-1.263z" fill-rule="evenodd" clip-rule="evenodd" fill="#cccdcf"/><path d="M91.068 93.099h21.73l.344.942.111.321H91.082l-.014-1.263z" fill-rule="evenodd" clip-rule="evenodd" fill="#cccdcf"/><path d="M91.054 91.837h21.272c.16.42.318.841.473 1.262h-21.73l-.015-1.262z" fill-rule="evenodd" clip-rule="evenodd" fill="#cccdcf"/><path d="M91.041 90.574h20.789c.168.42.334.84.496 1.263H91.054l-.013-1.263z" fill-rule="evenodd" clip-rule="evenodd" fill="#cacbcd"/><path d="M91.028 89.311h20.281c.178.419.352.84.521 1.263H91.041l-.013-1.263z" fill-rule="evenodd" clip-rule="evenodd" fill="#cacbcd"/><path d="M91.014 88.048h19.742c.189.418.373.839.553 1.263H91.028l-.014-1.263zM91 86.786h19.164c.201.417.398.838.592 1.262H91.014L91 86.786zM90.987 85.523h18.539c.219.417.432.837.639 1.263H91l-.013-1.263z" fill-rule="evenodd" clip-rule="evenodd" fill="#c8c9cb"/><path d="M90.973 84.261h17.857c.24.415.471.837.695 1.263H90.987l-.014-1.263z" fill-rule="evenodd" clip-rule="evenodd" fill="#c6c7c9"/><path d="M90.96 82.998h17.11c.262.414.516.835.76 1.263H90.973l-.013-1.263zM90.946 81.735h16.294c.275.407.531.792.754 1.142l.076.121H90.96l-.014-1.263z" fill-rule="evenodd" clip-rule="evenodd" fill="#c6c7c9"/><path d="M90.933 80.473h15.435c.307.437.6.86.873 1.263H90.946l-.013-1.263zM90.918 79.211h14.55c.307.425.607.849.898 1.261H90.933l-.015-1.261z" fill-rule="evenodd" clip-rule="evenodd" fill="#c4c5c7"/><path d="M90.905 77.949h13.646c.307.417.613.841.918 1.263h-14.55l-.014-1.263z" fill-rule="evenodd" clip-rule="evenodd" fill="#c1c3c5"/><path d="M90.892 76.686h12.729c.303.409.615.832.93 1.263H90.905l-.013-1.263zM90.878 75.423h11.8c.297.395.613.819.943 1.263H90.892l-.014-1.263zM90.865 74.16h10.862c.277.365.6.792.951 1.263h-11.8l-.013-1.263z" fill-rule="evenodd" clip-rule="evenodd" fill="#c1c3c5"/><path d="M90.851 72.897h9.913c.084.108.441.573.963 1.263H90.865l-.014-1.263zM90.837 71.635h8.801a319.306 319.306 0 0 1 1.125 1.262H90.85l-.013-1.262zM90.824 70.373h7.68c.408.452.799.886 1.135 1.262h-8.801l-.014-1.262z" fill-rule="evenodd" clip-rule="evenodd" fill="#bfc1c3"/><path d="M90.81 69.11h6.547c.379.415.77.847 1.146 1.263h-7.68l-.013-1.263z" fill-rule="evenodd" clip-rule="evenodd" fill="#bdbfc1"/><path d="M90.796 67.848h5.396c.35.374.75.809 1.165 1.263H90.81l-.014-1.263zM90.783 66.586h4.172c.157.15.302.29.426.415.209.209.488.501.811.847h-5.396l-.013-1.262zM90.769 65.323h2.821c.492.446.972.887 1.365 1.263h-4.172l-.014-1.263z" fill-rule="evenodd" clip-rule="evenodd" fill="#bdbfc1"/><path d="M90.755 64.061h1.424c.438.388.931.827 1.411 1.262h-2.821l-.014-1.262zM90.742 62.798c.015.013.632.55 1.437 1.263h-1.424l-.013-1.263z" fill-rule="evenodd" clip-rule="evenodd" fill="#bbbcbf"/><path d="M91.394 123.327h3.19s2.826-1.596 4.783-2.393c1.959-.797 4.277-1.015 6.234-.362 1.959.651 4.424 2.827 4.424 2.827s1.447-2.393 2.535-5.292 2.32-6.959 2.467-10.729c.145-3.77-.508-9.497-1.885-13.338-1.379-3.842-2.973-7.757-5.148-11.163-2.174-3.408-7.25-10.004-7.25-10.004S96.686 68.306 95.381 67c-1.305-1.305-4.639-4.204-4.639-4.204l.652 60.531z" fill="none" stroke="#000" stroke-width=".236" stroke-miterlimit="2.613"/><path d="M71.268 59.397s.491-.049.655.05c.163.099.246.328.442.295.196-.033.721-.099.917-.131.197-.033.525-.164.525-.164l.508-.032c.262-.018.262-.214.458-.214.197 0 .524-.196.787-.263.262-.065.114-.36.441-.327.328.032.722-.394.722-.394s.426-.164.722-.196c.295-.033.344-.197.671-.099.328.099.525 0 .82-.032.294-.033.737-.295.934-.295.196 0 .295-.279.459-.344.163-.065.262-.36.459-.394.196-.032.294-.229.294-.229s.312.163.393.327c.082.164-.229.607-.262.902-.032.295-.131.983.066.819.196-.163.377.164.442.033.066-.132.394 0 .427-.132.032-.13.491.328.557.099.066-.229.294.033.36-.163.065-.197.459-.098.376-.296-.082-.196.557 0 .459-.295-.099-.295.426-.344.36-.508-.065-.164.427-.393.296-.491-.131-.099.393-.329.197-.459-.197-.132.196-.459.032-.492-.164-.033.229-.442 0-.442s-.164-.263-.393-.163c-.23.098-.639.343-.853.409-.212.065-.343.016-.541-.099-.197-.114-.163-.345-.163-.345l.328-.13s.213-.098.262-.328c.05-.229.345-.197.41-.458.065-.263.623-.475.557-.803-.066-.328.361-.295.393-.623.033-.327.36-.164.36-.524 0-.361.377-.245.41-.59.032-.344.459-.148.491-.442.033-.295.394-.229.361-.492-.033-.261.36.033.394-.295.033-.328.507-.082.507-.393 0-.312.559-.18.492-.442-.065-.262.36.032.36-.229 0-.262.263-.229.099-.558-.164-.328.263-.164.033-.491-.229-.328.328-.541.098-.64-.229-.098-.737.148-1.049.246s-1.475.753-2.13 1.081c-.656.329-1.426.771-1.819 1.361-.394.59-1.098 2.295-1.803 3.032-.705.737-1.033.967-1.163 1.033-.132.065-.541.032-1 .131-.46.098-.46.229-.525.491-.065.263.033.377.033.377s-.295.033-.525.131c-.229.098-.868.294-1.392.229-.525-.066-1.066.032-1.787.589-.721.558-1.754 1.296-2.344 1.722-.591.426-1.033.688-1.196.786-.16.098-.422.294-.422.294zM88.82 58.122s.63-.063.841.062c.21.126.315.421.567.378.252-.042.926-.125 1.178-.167.253-.043.673-.211.673-.211l.652-.042c.337-.021.337-.273.589-.273s.673-.252 1.009-.335c.336-.085.148-.463.568-.421s.925-.504.925-.504.547-.21.926-.253c.379-.042.442-.252.862-.125.42.125.672 0 1.053-.043.377-.042.945-.378 1.197-.378s.379-.357.59-.441c.209-.084.336-.463.588-.505.252-.042.379-.294.379-.294s.398.21.504.42c.105.211-.293.778-.336 1.157s-.168 1.262.084 1.052c.252-.209.484.21.568.042s.504 0 .545-.168c.043-.168.633.42.717.126.084-.295.377.042.463-.209.084-.254.588-.127.482-.379-.105-.253.715 0 .59-.378-.127-.378.547-.441.461-.653-.084-.209.547-.504.379-.63-.168-.125.506-.42.254-.589-.254-.168.252-.588.041-.63-.211-.042.295-.568 0-.568s-.211-.337-.506-.21c-.293.126-.818.442-1.092.525-.273.085-.441.021-.695-.125-.252-.148-.209-.442-.209-.442l.42-.168s.273-.126.336-.42c.064-.295.443-.253.527-.589.084-.337.799-.61.713-1.031-.082-.42.465-.378.506-.799.043-.42.463-.21.463-.674 0-.461.484-.314.525-.755.043-.442.59-.19.631-.568.043-.378.504-.295.463-.63-.043-.337.463.042.504-.379.043-.421.652-.104.652-.505 0-.399.715-.231.631-.568-.084-.336.463.042.463-.294s.336-.294.127-.715c-.211-.42.336-.21.041-.63-.293-.421.422-.695.127-.82-.295-.127-.947.188-1.346.314-.4.127-1.893.968-2.734 1.388-.842.421-1.83.989-2.334 1.746-.506.757-1.41 2.944-2.312 3.89-.904.947-1.326 1.241-1.494 1.325-.168.085-.693.042-1.283.168-.588.127-.588.294-.672.631s.043.484.043.484-.381.042-.674.168c-.295.126-1.115.378-1.788.295-.673-.084-1.367.042-2.292.757s-2.25 1.661-3.006 2.208c-.758.547-1.325.884-1.536 1.011-.212.118-.548.371-.548.371z" fill-rule="evenodd" clip-rule="evenodd" fill="#fff" stroke="#000" stroke-width=".354" stroke-miterlimit="2.613"/><path d="M110.977 165.986c-1.209-4.218-.666-6.97 1.275-7.526 1.939-.556 3.859 1.489 5.068 5.707 1.211 4.219.666 6.97-1.273 7.527-1.942.556-3.859-1.49-5.07-5.708zm-2.526.724c1.072 3.739 4.314 6.443 7.732 5.463s4.734-4.992 3.662-8.729c-1.072-3.738-4.314-6.443-7.732-5.462-3.418.979-4.734 4.99-3.662 8.728zM148.799 152.165c1.197 1.156-.344 1.583.074 1.988.121.115.24.141.418-.043.566-.588 1.072-1.17 1.516-1.631.971-1.002 1.834-1.838 2.568-2.599 2.092-2.165 1.652-5.484-1.549-8.575-2.781-2.688-6.617-3.385-9.299-.608-.701.727-1.217 1.319-1.861 1.988-.445.46-1.01.985-1.576 1.573-.178.184-.148.303-.027.418.418.403.791-1.15 1.988.006l7.748 7.483zm-6.992-10.003l.957-.991c1.604-1.659 4.35-1.031 7.582 2.089 3.066 2.962 3.572 5.342 2.258 6.701-.822.853-1.746.94-2.822-.099l-7.975-7.7zM155.93 136.872l-3.645-4.547 5.594 1.766-1.949 2.781zm2.347-2.698c2.812.914 3.438 1 3.982 1.381.938.656-.082 1.312.26 1.551.104.072.197.081.279-.038.414-.59.822-1.243 1.264-1.873.43-.617.906-1.224 1.328-1.826.064-.093.041-.168-.043-.228-.309-.214-.393.742-2.059.222l-12.818-4.028c-.268-.09-.518-.167-.564-.102-.082.118.166.234.537 1.373.379 1.165.211 1.438.348 1.534.137.095.496-.239.855.012.186.131.277.254.428.438l4.439 5.591c1.27 1.594 2.295 3.21 1.936 4.27-.088.271-.074.358.045.441.102.071.18.068.254-.037.357-.511.684-1.046 1.041-1.559.359-.512.75-.999 1.082-1.472.064-.092.031-.154-.055-.213-.289-.204-.949.957-2.482-.117-.852-.596-1.406-1.434-2.152-2.328l2.095-2.992zM68.539 160.672l-.393 1.586 6.047 2.333.447-1.492-6.101-2.427zM85.034 172.15c-.087 1.661-1.421.779-1.451 1.361-.009.166.05.272 2.531.361.64.034 1.405.116 2.221.158.256.013.326-.087.334-.253.03-.581-1.388.156-1.301-1.505l.287-5.483.4.021c1.12.059 1.885 1.078 1.852 2.93-.005.416.037.521.197.53.097.005.165-.095.176-.282l.332-6.355c.011-.187-.048-.293-.144-.299-.16-.008-.214.094-.251.508-.143 1.492-1.015 2.529-2.134 2.47l-.4-.021.313-5.98.88.046c1.919.101 2.915 1.007 3.581 2.666.554 1.382.519 1.734.663 1.742.112.006.164-.054.168-.158.003-.062-.02-.229-.067-.545l-.592-4.008c-1.905-.08-3.793-.157-5.776-.262-.64-.033-1.406-.115-2.222-.157-.256-.015-.325.087-.334.253-.03.581 1.388-.156 1.3 1.505l-.563 10.757zM97.477 172.763c.029 1.664-1.363.877-1.353 1.459.003.166.069.269.326.265.816-.015 1.584-.069 2.225-.081a478.1 478.1 0 0 1 6.039-.063l.625-4.628c.027-.229.055-.479.053-.604s-.053-.228-.164-.226c-.143.002-.156.189-.246.586-.551 2.422-1.941 4.402-3.832 4.435-1.025.018-1.322-.476-1.338-1.433l-.184-10.521c-.029-1.663 1.361-.876 1.352-1.458-.002-.167-.068-.271-.324-.266-.818.015-1.586.07-2.227.081s-1.408-.017-2.226-.003c-.257.005-.319.109-.315.275.01.582 1.374-.252 1.403 1.411l.186 10.771zM140.486 158.935c1 1.328-.588 1.51-.238 1.976.102.132.215.177.42.022.652-.492 1.24-.987 1.752-1.373s1.152-.814 1.805-1.307c.203-.154.193-.276.094-.409-.352-.464-.965 1.013-1.965-.316l-6.482-8.603c-1.002-1.329.586-1.51.236-1.976-.1-.133-.215-.177-.418-.023-.652.492-1.242.988-1.754 1.373-.512.387-1.15.815-1.803 1.308-.205.153-.193.275-.094.408.352.465.963-1.012 1.965.317l6.482 8.603zM133.652 164.67l1.514-.838c.504-.28 1.027-.523 1.531-.804.127-.068.09-.168.029-.277-.281-.51-.822.694-2.195-.424l-2.512-2.055c-1.303-1.062-2.377-1.083-3.875-.253l-.021-.036c2.664-2 2.688-3.677 1.84-5.205-1.027-1.855-3.068-2.53-5.465-1.202-.924.513-1.506.882-2.207 1.271-.561.311-1.254.647-1.967 1.044-.225.124-.23.246-.148.391.281.51 1.094-.868 1.9.587l5.221 9.422c.807 1.455-.791 1.414-.51 1.923.082.146.189.206.412.082.715-.397 1.367-.807 1.928-1.116.561-.312 1.252-.647 1.967-1.043.225-.125.23-.246.15-.392-.283-.511-1.096.867-1.902-.588l-2.42-4.365c.814-.45 1.645-.506 2.484.217l4.246 3.661zm-10.117-9.989l.883-.489c1.191-.66 2.41-.243 3.52 1.757 1.07 1.929.934 3.336-.65 4.213l-.545.303-3.208-5.784zM43.359 130.786l-.194-.321-4.512-3.221-.239.29c.451.386.705.646.855.896.504.839-.01 1.318-1.546 2.241l-6.466 3.886c-1.108.666-1.705.562-2.23-.313l-.355-.589-.321.193 3.596 5.983.321-.193-.3-.499c-.451-.751-.254-1.355.763-1.967l10.628-6.386zM40.05 135.042c-1.682 1.222-2.764 3.414-1.229 5.525.508.699 1.18 1.023 1.967 1.224-4.683 2.293-7.513.271-7.714.418-.085.062-.126.111-.079.176.424.583 5.711 3.969 10.573.436 2.81-2.041 4.021-4.901 2.468-7.039-1.591-2.191-3.967-2.207-5.986-.74zm1.4 1.715c2.59-1.882 3.709-1.547 4.246-.809.697.96.392 2.311-2.653 4.521-.689.502-1.419.913-1.592.959-.473.127-1.51-.17-1.962-.792-.612-.84-.344-2.204 1.961-3.879zM56.659 147.414c-1.473 1.685-3.551 4.038-4.891 5.309.325.151.66.258.935.451 1.995 1.397 2.149 3.688.767 5.665-.847 1.209-2.154 1.792-3.073 1.148-.695-.487-.78-.952-.21-2.103.697-1.441.896-2.089.161-2.603-.472-.331-1.187-.121-1.616.492-.907 1.295-.413 3.215 1.292 4.409 2.441 1.709 4.993.297 6.162-1.372 1.384-1.976 1.452-5.229-1.226-7.103-.183-.13-.365-.231-.548-.333a2.8 2.8 0 0 0-.557-.239l1.329-1.506 4.251 2.978 2.142-1.802c.195-.167.356-.258.439-.378a.142.142 0 0 0-.034-.201c-.131-.092-.562.521-1.125.126l-4.198-2.938zM46.551 142.526c-1.683 1.224-2.764 3.415-1.229 5.526.508.7 1.18 1.024 1.968 1.224-4.683 2.293-7.513.271-7.715.418-.085.062-.126.111-.079.176.424.583 5.711 3.969 10.573.436 2.809-2.041 4.022-4.901 2.468-7.039-1.591-2.191-3.967-2.206-5.986-.741zm1.4 1.716c2.59-1.883 3.709-1.546 4.246-.808.696.959.392 2.309-2.653 4.521-.69.501-1.419.912-1.592.958-.473.126-1.51-.17-1.962-.792-.613-.842-.344-2.204 1.961-3.879zM19.626 80.925c-.225-.028-.299.067-.317.21-.053.43.901.111.8.93-.115.942-1.382 1.784-1.669 4.118-.478 3.891 2.278 7.512 6.394 8.018 4.115.505 7.623-1.995 8.144-6.233.286-2.334-.574-3.458-.473-4.277.121-.982 1.223-.474 1.27-.862.018-.145-.031-.254-.318-.29l-5.385-.661c-.225-.027-.335.021-.35.144-.041.328.374.17 1.531.729 1.627.803 3.53 2.74 3.279 4.788-.312 2.538-2.474 3.894-7.286 3.304-4.811-.591-6.581-2.429-6.284-4.845.238-1.946 2.042-3.095 3.917-3.634 1.637-.464 2.249-.202 2.289-.529.021-.165-.095-.241-.382-.276l-5.16-.634zM32.876 78.867c1.587.454.325 1.939.88 2.098.158.045.28-.005.371-.323.29-1.011.523-1.974.751-2.768.228-.793.54-1.733.829-2.744.092-.318.015-.426-.143-.471-.555-.159-.271 1.767-1.857 1.313l-10.272-2.946c-1.586-.455-.323-1.938-.879-2.098-.158-.045-.281.006-.371.323-.29 1.011-.524 1.975-.751 2.768-.228.793-.541 1.733-.83 2.745-.091.317-.014.424.144.471.556.159.271-1.768 1.857-1.313l10.271 2.945zM36.056 68.865c1.176.599 1.143 1.3.685 2.201-.113.221-.114.359.07.453.147.075.25.011.352-.191.534-1.048.975-2.004 1.415-2.868.44-.864.955-1.782 1.488-2.83.104-.203.095-.322-.052-.397-.184-.093-.295-.011-.408.209-.458.9-1.006 1.338-2.183.74L27.24 60.993c2.847-3.133 5.771-1.875 5.987-2.297.047-.093.028-.193-.101-.259a6.355 6.355 0 0 0-.708-.245l-3.673-1.107c-.294-.104-.405-.067-.452.024-.047.092-.029.194-.002.323.008.121.053.305-.078.562l-4.195 8.234c-.132.257-.308.329-.409.394-.121.054-.213.1-.26.191-.047.092-.011.203.246.381l3.055 2.32c.266.205.542.392.615.429.128.065.221.02.269-.071.215-.423-2.522-2.049-1.66-6.194l10.182 5.187zM35.521 51.368c-.526-.097-.863-.202-1.139-.418-.91-.711.281-1.431-.062-1.697-.114-.089-.251-.014-.442.23-.597.764-1.148 1.537-1.745 2.301-.597.764-1.213 1.487-1.836 2.283-.139.179-.151.327-.037.417.341.267.63-.974 2.46-.67l6.808 1.104 3.609 2.819c1.3 1.016-.427 1.919.028 2.274.13.102.263.1.466-.16.648-.829 1.225-1.635 1.733-2.285.507-.65 1.149-1.406 1.797-2.234.204-.261.172-.389.042-.491-.455-.355-.914 1.538-2.214.522l-3.917-3.061-1.704-4.419c-1.366-3.58-.343-3.985-.668-4.239-.097-.076-.213-.062-.303.052-.38.488-.754 1.033-1.148 1.537-.507.65-.845 1.016-1.251 1.535-.178.228-.173.389-.075.465.261.203.885-.932 1.975-.081.438.343 1.043 1.078 1.46 2.084l1.253 3.021-5.09-.889zM52.469 40.563c-2.497-3.565-2.564-6.541-.436-8.031 2.129-1.491 4.901-.409 7.397 3.156s2.564 6.54.436 8.03-4.9.41-7.397-3.155zm-2.771 1.94c2.213 3.161 6.702 4.248 10.453 1.622 3.751-2.627 4.264-7.217 2.052-10.376-2.213-3.161-6.702-4.248-10.453-1.621-3.751 2.625-4.264 7.216-2.052 10.375zM68.42 36.942c.618 1.53-1.329 1.449-1.112 1.984.062.153.177.217 3.125-1.018.766-.31 1.699-.642 2.674-1.036.306-.124.345-.25.282-.404-.216-.535-1.56.875-2.178-.655l-2.041-5.049.479-.193c1.339-.541 2.678-.036 3.441 1.636.174.374.27.446.462.37.114-.046.152-.173.083-.345l-2.365-5.853c-.069-.172-.185-.236-.299-.19-.191.077-.21.196-.075.586.48 1.408-.093 2.796-1.432 3.338l-.478.193-2.226-5.508 1.052-.426c2.295-.927 3.855-.646 5.356.483 1.249.941 1.361 1.275 1.533 1.205.134-.054.168-.134.13-.23-.024-.057-.124-.195-.316-.45l-2.432-3.267c-2.269.938-4.518 1.87-6.889 2.827-.765.31-1.698.642-2.673 1.037-.307.123-.344.25-.283.403.217.536 1.56-.875 2.178.655l4.004 9.907zM87.647 27.457l1.712-5.682 2.65 5.377-4.362.305zm4.595.051c1.307 2.722 1.716 3.251 1.762 3.909.08 1.132-1.392.779-1.365 1.192.009.123.078.201.262.188.927-.065 1.912-.175 2.899-.244.967-.067 1.958-.096 2.905-.163.143-.009.201-.076.193-.178-.025-.371-1.062.178-1.857-1.421L90.949 18.48c-.123-.26-.242-.5-.345-.493-.186.013-.104.276-.965 1.287-.879 1.033-1.289 1.083-1.277 1.247.012.166.637.225.666.657.016.226-.036.375-.102.607l-2.14 6.953c-.606 1.987-1.43 3.801-2.788 4.207-.344.106-.422.174-.411.319.008.123.074.181.239.169.802-.057 1.602-.153 2.404-.21.803-.056 1.608-.07 2.349-.123.145-.01.181-.074.174-.177-.024-.35-1.724-.106-1.854-1.959-.072-1.029.336-1.987.65-3.125l4.693-.331zM106 29.539l-2.188-8.583a2.042 2.042 0 0 1-.072-.778c.133-1.084 1.502-.376 1.555-.806.018-.144-.096-.24-.465-.287-.92-.112-1.867-.187-2.789-.3-.941-.116-1.857-.27-2.902-.398-.184-.022-.299.067-.311.17-.051.41 1.18.042 1.684 1.85l3.467 12.562c.072.258.146.497.27.511.123.016.252-.197.385-.43l5.771-10.265c1.57-2.8 3.043-1.767 3.115-2.361.023-.185-.213-.296-.621-.347-.697-.085-1.377-.127-2.055-.21-.695-.085-1.365-.209-2.061-.294-.227-.029-.363.079-.377.182-.062.512 1.756.257 1.516 2.223-.057.45-.219.929-.434 1.318L106 29.539zM113.953 33.4c-.537 1.56-1.953.221-2.141.769-.055.155-.01.279.303.387.994.343 1.943.625 2.725.895 2.711.933 5.299 1.845 7.865 2.752l2.35-4.034c.113-.202.232-.423.273-.54.039-.116.016-.233-.121-.282-.176-.06-.256.109-.502.439-1.268 1.723-3.652 3.324-6.695 2.276-1.248-.43-1.438-1.02-1.129-1.916l1.691-4.916.488.168c1.365.47 2.045 1.729 1.525 3.491-.115.397-.09.515.105.582.117.041.229-.031.289-.206l2.055-5.969c.061-.175.016-.299-.102-.34-.195-.066-.287.01-.441.394-.561 1.377-1.904 2.048-3.27 1.579l-.488-.167 1.934-5.618 1.053.362c2.342.806 3.334 2.043 3.727 3.879.324 1.53.191 1.854.367 1.915.137.047.215.009.248-.089.02-.059.035-.228.057-.547l.309-4.061a838.529 838.529 0 0 1-7.035-2.379c-.781-.269-1.703-.629-2.697-.973-.312-.107-.424-.036-.479.119-.188.546 1.752.363 1.215 1.923L113.953 33.4zM132.996 30.612l.035.022 1.32 14.631c.021.31.008.596.162.697.139.09.312-.141.527-.47l5.785-8.91c.898-1.384 1.824-1.595 2.488-1.483.619.107.957.573 1.148.279.068-.105.088-.213-.119-.348-.588-.381-1.285-.786-1.994-1.247-.711-.46-1.361-.933-1.951-1.315-.207-.135-.297-.071-.365.033-.191.294.371.413.723.935.371.562.555 1.493-.346 2.877l-3.324 5.12-.035-.022-1.137-11.807-1.938-1.258c-.641-.416-1.258-.867-1.848-1.249-.137-.089-.24-.083-.33.056-.123.19-.002.269.252.484.508.429.848.968.879 2.169l-4.91 7.56c-.898 1.384-1.822 1.597-2.488 1.483-.619-.106-.957-.571-1.148-.277-.066.104-.088.212.119.348.588.381 1.285.785 1.996 1.246.709.46 1.361.934 1.949 1.315.207.135.299.071.365-.033.191-.295-.371-.414-.721-.936-.373-.562-.555-1.493.344-2.877l4.562-7.023zM141.945 49.015c-.949.917-1.602.658-2.303-.069-.174-.179-.303-.224-.451-.081-.119.114-.092.232.066.396.816.846 1.576 1.574 2.25 2.271.674.697 1.375 1.483 2.191 2.33.158.163.273.194.393.079.148-.144.107-.275-.064-.453-.703-.729-.939-1.389.012-2.306l8.219-7.938c2.037 3.712-.105 6.066.225 6.408.072.074.174.091.277-.01a6.66 6.66 0 0 0 .463-.59l2.242-3.112c.193-.245.195-.361.125-.435-.072-.075-.174-.09-.305-.108-.117-.031-.307-.049-.506-.257l-6.42-6.647c-.201-.208-.213-.398-.24-.515-.012-.131-.025-.234-.096-.308-.072-.074-.188-.076-.441.109l-3.188 2.133a6.54 6.54 0 0 0-.605.441c-.104.101-.092.203-.02.276.33.342 2.758-1.716 6.396.447l-8.22 7.939zM161.518 60.805c1.486-.966 2.693-.963 3.471-.335.254.202.439.45.596.35.105-.067.168-.158.033-.366-.291-.449-.764-1.102-1.227-1.811-.459-.709-.863-1.406-1.154-1.856-.135-.208-.244-.186-.35-.119-.154.102-.004.373.078.688.258.964-.23 2.068-1.717 3.035l-5.244 3.404c-2.057 1.337-4.043.855-5.223-.961-.932-1.436-.59-3.332.83-4.252l7.576-4.921c1.385-.899 1.676 1.028 2.16.713.139-.09.182-.215 0-.492-.572-.882-1.146-1.69-1.596-2.383-.449-.692-.955-1.544-1.525-2.428-.182-.276-.312-.29-.451-.2-.484.314 1.156 1.365-.227 2.263l-7.578 4.921c-1.799 1.169-1.922 3.708-.168 6.406 1.572 2.422 3.998 3.356 6.576 1.682l5.14-3.338zM157.502 78.465l.727 2.106c.242.703.443 1.417.686 2.12.061.176.164.162.281.121.547-.188-.639-1.22.627-2.55l2.326-2.437c1.199-1.265 1.318-2.57.6-4.657l.039-.014c1.812 3.87 3.527 4.415 5.164 3.851 1.99-.685 2.861-2.971 1.713-6.306-.443-1.288-.771-2.113-1.107-3.087-.268-.781-.551-1.73-.893-2.725-.107-.313-.232-.357-.389-.303-.547.188.791 1.604-.768 2.141l-10.104 3.478c-1.561.538-1.379-1.402-1.924-1.214-.156.054-.227.166-.119.478.342.995.703 1.918.971 2.699.27.78.553 1.729.896 2.724.107.312.232.357.387.303.547-.188-.791-1.604.77-2.141l4.68-1.611c.391 1.131.375 2.163-.439 2.966l-4.124 4.058zm11.117-9.28l.422 1.228c.572 1.659.037 3.021-2.107 3.76-2.068.712-3.496.111-4.256-2.092l-.262-.76 6.203-2.136z" fill-rule="evenodd" clip-rule="evenodd" fill="#fff"/><path d="M164.789 85.46l5.766 1.412-5.232 2.929-.534-4.341zm.19 4.591c-2.648 1.447-3.156 1.884-3.811 1.964-1.127.139-.852-1.351-1.262-1.3-.123.015-.197.087-.174.271.113.921.273 1.899.396 2.882.117.962.197 1.951.312 2.893.018.144.086.197.189.185.367-.046-.234-1.052 1.32-1.929l11.977-6.729c.254-.135.488-.267.475-.37-.021-.184-.281-.089-1.336-.896-1.078-.823-1.148-1.23-1.312-1.209-.164.02-.191.646-.621.7-.225.027-.375-.016-.611-.071l-7.055-1.773c-2.016-.501-3.871-1.229-4.348-2.563-.125-.338-.195-.413-.338-.395-.123.016-.178.084-.158.248.098.799.238 1.592.336 2.391.098.798.154 1.602.246 2.339.016.143.084.177.186.165.348-.043.016-1.728 1.859-1.954 1.023-.125 2.002.232 3.156.485l.574 4.666zM30.212 117.174l-4.023-2.956-4.023 2.956 1.568-4.738-4.054-2.914 4.991.028 1.518-4.758 1.517 4.758 4.993-.028-4.056 2.914 1.569 4.738zM169.553 117.174l-4.024-2.956-4.023 2.956 1.568-4.738-4.054-2.914 4.992.028 1.517-4.758 1.516 4.758 4.994-.028-4.057 2.914 1.571 4.738z" fill-rule="evenodd" clip-rule="evenodd" fill="#fff"/></svg>