<svg xmlns="http://www.w3.org/2000/svg" width="2500" height="2500" viewBox="0 0 192.756 192.756"><g fill-rule="evenodd" clip-rule="evenodd"><path fill="#fff" d="M0 0h192.756v192.756H0V0z"/><path d="M57.069 57.794h-35.02c-.324 0-8.053.066-13.658 5.69-3.707 3.718-5.578 8.911-5.557 15.436.062 20.594 18.823 20.87 19.013 20.87l37.297-.02.002-14.462H25.142c-.96-.01-5.78-.374-5.793-6.534-.014-6.101 4.803-6.462 5.769-6.473h33.978l-.001-14.507h-2.026zM6.885 78.906C6.833 62.134 21.436 61.85 22.058 61.845h32.985v6.405H25.108c-.161 0-4.134.021-6.996 2.879-1.876 1.874-2.822 4.448-2.813 7.655.007 3.231.97 5.823 2.862 7.705 2.871 2.855 6.823 2.87 6.989 2.87h29.941v6.362l-33.244.014c-.597-.004-14.911-.313-14.962-16.829zM128.664 57.794h-14.502L96.671 83.545C93.9 79.457 79.208 57.794 79.208 57.794H62.681l-.014 41.97h14.488s.002-12.339.005-19.259l12.964 19.284 13.06-.012 13.023-19.285-.008 19.267h14.488l.002-41.966h-2.025v.001zm-2.025 4.051l-.004 33.863h-6.383c.002-3.394.008-28.458.008-28.458l-19.23 28.477c-1.553.001-7.188.007-8.749.007l-19.17-28.511-.007 28.487H66.72c0-3.426.008-30.44.01-33.865h10.329l19.61 28.913s18.506-27.25 19.637-28.913h10.333zM187.629 57.827h-35.018c-.33 0-8.055.066-13.662 5.69-3.705 3.718-5.576 8.911-5.557 15.438.062 20.595 18.824 20.866 19.014 20.866l37.248-.021V76.347h-14.113v8.994h-19.836c-.965-.009-5.783-.373-5.797-6.532-.002-.01-.002-.017-.002-.026 0-6.076 4.805-6.437 5.77-6.449h33.98l-.002-14.507h-2.025zM137.445 78.94c-.051-16.773 14.549-17.057 15.174-17.062h32.984v6.405h-29.934c-.162 0-4.131.019-6.996 2.881-1.871 1.864-2.818 4.427-2.818 7.617v.036c.01 3.231.973 5.823 2.867 7.705 2.836 2.822 6.736 2.869 6.982 2.869h-.004 23.893v-8.992h6.01V95.75c-3.598.001-33.195.021-33.195.021-.596-.005-14.912-.317-14.963-16.831zM14.651 131.279l-2.297-8.92-2.63 8.92h-1.49l-2.752-10.121h1.282l2.402 8.881 2.587-8.881h1.469l2.256 8.881 2.753-8.881h1.055l-3.147 10.121h-1.488zM28.002 124.488c0-1.178-.164-2.42-1.675-2.42-1.469 0-2.755 1.697-3.415 2.754v6.457h-1.344v-14.717h1.344v6.955c1.345-2.051 2.545-2.588 3.786-2.588 1.636 0 2.651 1.117 2.651 2.941v7.408h-1.347v-6.79zM37.175 130.576c.308 0 .599-.021.887-.062.52-.084.932-.209 1.679-.475v.951c-.208.062-.372.105-.477.145-.849.248-1.76.371-2.444.371-2.834 0-4.801-2.152-4.801-5.316 0-3.148 1.76-5.26 4.162-5.26 2.276 0 3.602 1.697 3.602 5.008v.314h-6.418c.31 2.998 1.532 4.324 3.81 4.324zm-1.099-8.715c-1.592 0-2.525 1.18-2.711 3.475h5.092c-.06-1.158-.083-1.402-.27-1.963-.288-.932-1.116-1.512-2.111-1.512zM48.899 124.531c0-1.18-.166-2.443-1.675-2.443-1.72 0-2.589 1.305-3.415 2.568v6.623h-1.346v-10.1h1.346v2.213c1.344-2.09 2.543-2.463 3.786-2.463 1.636 0 2.649 1.117 2.649 2.982v7.367h-1.345v-6.747zM57.252 121.176h2.108v10.103h-2.108v-10.103zM66.492 122.568v8.711h-2.089v-8.711h-3.621v-1.392h9.333v1.392h-3.623zM77.37 124.471v6.809h-1.345v-10.1h1.345v1.943c.849-1.965 2.195-2.193 3.415-2.193.144 0 .227 0 .331.021v1.219c-.206-.061-.373-.061-.6-.061-1.284 0-2.298.766-3.146 2.362zM87.511 130.576c.312 0 .599-.021.89-.062.519-.084.933-.209 1.677-.475v.951c-.208.062-.374.105-.476.145-.849.248-1.76.371-2.443.371-2.836 0-4.803-2.152-4.803-5.316 0-3.148 1.761-5.26 4.162-5.26 2.277 0 3.603 1.697 3.603 5.008v.314h-6.417c.308 2.998 1.53 4.324 3.807 4.324zm-1.097-8.715c-1.594 0-2.527 1.18-2.711 3.475h5.092c-.062-1.158-.083-1.402-.269-1.963-.291-.932-1.118-1.512-2.112-1.512zM98.295 129.768c-.744.91-1.763 1.738-3.208 1.738-1.555 0-2.651-1.137-2.651-2.646 0-2.795 2.94-3.355 5.154-3.355h.662v-1.531c0-1.43-.684-2.111-2.049-2.111-.931 0-1.863.27-2.897.787v-1.014c.144-.064.269-.105.354-.127.908-.371 1.985-.578 2.833-.578 2.173 0 3.105.951 3.105 3.043v4.82c0 1.35.189 1.885 1.221 1.885h.125l.082.623a3.275 3.275 0 0 1-1.117.205c-.704-.001-1.305-.351-1.614-1.739zm-.932-3.663c-2.009 0-3.603.91-3.603 2.441 0 1.096.828 1.924 1.864 1.924 1.014 0 1.882-.58 2.628-1.199v-3.145c-.518.001-.723-.021-.889-.021zM103.324 116.562h1.346v14.717h-1.346v-14.717zM108.23 116.562h1.344v14.717h-1.344v-14.717zM113.734 134.963l1.532-3.559-3.83-10.246h1.451l3.064 8.34 3.266-8.34h1.224l-5.359 13.805h-1.348zM138.723 124.096c0-1.283-.537-2.066-1.635-2.066-1.426 0-2.441 1.24-3.229 2.295v6.955h-1.346v-7.184c0-1.301-.537-2.066-1.656-2.066-1.262 0-2.191 1.074-3.207 2.627v6.623h-1.346v-10.1h1.346v2.172c.848-1.449 1.799-2.422 3.684-2.422 1.738 0 2.338 1.035 2.566 2.215.807-1.158 1.965-2.215 3.602-2.215.703 0 1.242.186 1.738.6.6.5.828 1.076.828 2.279v7.471h-1.346v-7.184h.001zM148.617 129.768c-.744.91-1.76 1.738-3.207 1.738-1.553 0-2.652-1.137-2.652-2.646 0-2.795 2.941-3.355 5.154-3.355h.662v-1.531c0-1.43-.684-2.111-2.049-2.111-.932 0-1.863.27-2.898.787v-1.014a2.57 2.57 0 0 1 .352-.127c.912-.371 1.988-.578 2.838-.578 2.172 0 3.105.951 3.105 3.043v4.82c0 1.35.186 1.885 1.221 1.885h.125l.078.623a3.243 3.243 0 0 1-1.113.205c-.704-.001-1.307-.351-1.616-1.739zm-.933-3.663c-2.006 0-3.602.91-3.602 2.441 0 1.096.83 1.924 1.863 1.924 1.014 0 1.885-.58 2.629-1.199v-3.145c-.515.001-.722-.021-.89-.021zM155.053 128.277c0 1.551.602 2.316 1.967 2.316.229 0 .393 0 .641-.061v.789c-.539.145-.807.184-1.219.184-1.719 0-2.732-1.055-2.732-2.896v-6.439h-1.264v-.932h1.264v-1.941l1.344-.127v2.068h2.65v.932h-2.65v6.107h-.001zM161.697 128.277c0 1.551.602 2.316 1.967 2.316.229 0 .393 0 .641-.061v.789c-.539.145-.807.184-1.223.184-1.717 0-2.73-1.055-2.73-2.896v-6.439h-1.264v-.932h1.264v-1.941l1.346-.127v2.068h2.65v.932h-2.65v6.107h-.001zM170.928 130.576c.309 0 .6-.021.889-.062.518-.084.932-.209 1.678-.475v.951c-.207.062-.373.105-.479.145-.848.248-1.758.371-2.439.371-2.84 0-4.803-2.152-4.803-5.316 0-3.148 1.756-5.26 4.158-5.26 2.279 0 3.604 1.697 3.604 5.008v.314h-6.418c.31 2.998 1.534 4.324 3.81 4.324zm-1.102-8.715c-1.59 0-2.52 1.18-2.709 3.475h5.094c-.064-1.158-.084-1.402-.271-1.963-.29-.932-1.118-1.512-2.114-1.512zM178.064 124.471v6.809h-1.344v-10.1h1.344v1.943c.852-1.965 2.195-2.193 3.418-2.193.143 0 .229 0 .33.021v1.219c-.205-.061-.373-.061-.602-.061-1.28 0-2.294.766-3.146 2.362zM183.629 130.969v-1.158c.104.062.207.102.271.123.869.412 1.842.643 2.604.643 1.143 0 2.092-.727 2.092-1.822 0-.889-.559-1.408-1.613-1.885l-1.076-.475c-1.613-.703-2.215-1.531-2.215-2.754 0-1.654 1.16-2.711 3.229-2.711.766 0 1.469.145 2.238.289v1.037c-.932-.291-1.553-.395-2.176-.395-1.139 0-2.027.561-2.027 1.613 0 .766.537 1.242 1.488 1.701l.891.412c.641.289 1.18.559 1.553.826.641.455 1.035 1.307 1.035 2.152 0 1.676-1.387 2.939-3.479 2.939-.786.002-1.696-.162-2.815-.535z" fill="#234b8d"/></g></svg>