<svg xmlns="http://www.w3.org/2000/svg" width="2500" height="2500" viewBox="0 0 192.756 192.756"><g fill-rule="evenodd" clip-rule="evenodd"><path fill="#fff" d="M0 0h192.756v192.756H0V0z"/><path fill="#4a75b3" d="M15.029 184.252h162.698V8.504H15.029v175.748z"/><path fill="#cd497a" d="M92.057 151.154h-2.784l-3.378-9.569-1.307 9.569H80.13l2.507-16.909h5.004l3.002 9.395 3.301-9.395h5.115l1.982 16.909h-4.343l-1.063-9.569-3.578 9.569zM70.041 151.154h-2.797l-3.388-9.569-1.294 9.569h-4.461l2.519-16.909h4.997l3.005 9.395 3.297-9.395h5.115l1.973 16.909h-4.338l-1.05-9.569-3.578 9.569zM109.146 147.614c1.229 0 2.111-.794 2.111-1.887v-11.482h5.074v12.097c0 3.407-2.508 4.976-7.186 4.976-4.719 0-7.17-1.568-7.17-4.976v-12.097h5.068v11.482c.002.969.834 1.887 2.103 1.887zM130.018 134.245h4.74v16.909h-4.74l-7.383-9.927v9.927h-4.701v-16.909h4.709l7.375 9.697v-9.697zM136.602 134.245h4.679v16.909h-4.679v-16.909zM161.762 139.155l2.707-4.91h5.201l-5.272 8.335v8.574h-5.144v-8.574l-5.231-8.335h5.096l2.643 4.91zM67.619 159.271c-1.618 0-2.22.91-2.22 1.657 0 .619.436 1.354 2.118 1.644 3.774.624 5.858 2.892 5.858 5.548 0 2.625-2.323 5.111-6.798 5.111-2.729 0-4.339-.902-5.62-1.836l1.576-3.021c1.187.692 2.058 1.551 3.745 1.551 1.814 0 2.723-.926 2.723-1.904 0-.982-.845-2.144-2.792-2.459-2.968-.505-5.017-2.08-5.017-4.706 0-2.46 2.225-4.92 6.118-4.92 2.264 0 3.874.423 4.924.906l-.64 3.031c-.871-.353-2.498-.602-3.975-.602zM84.938 159.892h-3.241v13.045h-4.739v-13.045h-3.194v-3.869h11.174v3.869zM153.383 138.118h-3.24v13.04h-4.733v-13.04h-3.201v-3.856h11.174v3.856zM114.32 166.002l4.373 6.935h-4.869l-3.779-6.281v6.281h-4.824v-16.913h6.184c3.172 0 5.969 1.52 5.969 5.452-.001 3.168-2.003 4.257-3.054 4.526zm-3.211-2.421c1.396 0 1.998-1.141 1.998-2.071 0-1.021-.508-2.199-1.998-2.199h-1.098v4.271h1.098v-.001zM124.479 159.024v3.634h5.025v3.032h-5.025v4.202h5.33v3.045h-9.356v-16.914h9.356v3.001h-5.33zM94.452 155.263c-5.12 0-9.279 4.154-9.279 9.283 0 5.128 4.159 9.287 9.279 9.287a9.286 9.286 0 0 0 9.292-9.287c0-5.129-4.154-9.283-9.292-9.283zm0 13.514a4.23 4.23 0 0 1-4.223-4.231 4.231 4.231 0 1 1 8.462 0 4.234 4.234 0 0 1-4.239 4.231zM48.827 132.892c-5.128 0-9.284 4.15-9.284 9.279a9.278 9.278 0 0 0 9.284 9.291 9.28 9.28 0 0 0 9.286-9.291c0-5.129-4.158-9.279-9.286-9.279zm0 13.514a4.226 4.226 0 0 1-4.232-4.235 4.22 4.22 0 0 1 4.232-4.219 4.222 4.222 0 0 1 4.231 4.219 4.227 4.227 0 0 1-4.231 4.235zM34.842 146.629c-2.652 0-4.791-2.012-4.791-4.479 0-2.481 2.139-4.488 4.791-4.488 1.606 0 3.023.38 3.885 1.507v-4.824c-1.012-.534-1.861-.995-4.406-.995-6.388 0-9.612 4.419-9.612 8.891 0 4.479 3.266 8.988 9.786 8.988 2.247 0 3.51-.534 4.231-.979v-5.137c-.86 1.126-2.278 1.516-3.884 1.516zM139.586 131.585h-5.285l4.129-5.684h5.424l-4.268 5.684z"/><path d="M119.047 18.159c.291-.359.795.073 1.223.073l2.023-.073c.363.649 1.221 0 1.592.582l2.592.14c-.299.141.146.141.064.367.436.206.939-.149 1.234.274.436.086.787.231 1.223.376.797.362 1.518 1.007 2.451.641.502.072 1.445-.073 1.797.431.436.223.725-.137 1.16.146.5 1.162 1.521.294 2.447.727.725.14 1.299-.433 2.02-.15-.137.372.363.513.363.799l.645.072v.363c.432-.145.582.5 1.088.5.215.141.428.499.797.29-.082.287.213.572.498.722.871.073 1.59.794 1.803 1.511.648.069.865.586 1.293.586.59.277.439 1.071 1.303.935l.582.354v-.141c.721.073.281.645.789 1.007 1.148-.508.648 1.302 1.801.936.07.503.791.867 1.158 1.367 0 1.379 2.225 0 2.023 1.52.572.58 1.512.435 1.58 1.435.141.154.287.221.432.154-.145.291.145.508.354.572h.227l-.145.146c1.148-.146.35 1.161.717 1.728.504.364.645 1.082 1.375 1.082.064.439-.221 1.293.504 1.375 0 .149.219.149.146.291l-.146.073c.723.132-.15.871.576 1.003 1.012-.287.146 1.016 1.076 1.016l-.217.145c.652.291.58 1.372 1.52 1.299.072.495.141 1.29.795 1.435.137.508.277 1.23.717 1.593-.064.422.867.495.576.926.723 0 .359.868.795 1.235-.141.358.289.722.289 1.003.068.649 1.363.721.932 1.443.357.146-.072.508.154.723 0 .366.43.931-.154 1.007.432.227-.141.726.299.939.35.359-.072 1.229.641 1.371-.141 0-.291 0-.355.073.57.503 0 1.222.287 1.729-.363.218-.072.436.068.572-.432 1.311.145 2.456.867 3.323-.287.286-.141.871-.287 1.294l.219.439-.295.218.223.286c-.291.141-.078.354 0 .577.141.072.213.14.346.14l-.346.291.346.291c-.424.141-.205.431-.133.649.133 1.012 0 1.942.133 2.882l-.273.354c.791.15-.363.444.209.803-.209.5.221 1.226-.141 1.436-.219.218-.068.439-.363.584.363.286.648.721.436 1.29l-.141.068.273.294c-.424.073-.637.645-.709 1.012 0 .222-.148.508.141.648a.807.807 0 0 0-.289.218c.793.214-.07.931.725 1.072-.072.437-.291.727-.359 1.166-.58-.073-.365.427-.721.713-.15.294.285.863-.15 1.081l.291.226c-.213.059-.291.132-.355.277.643.367-.502.431 0 .799-.43.141-.357.716-.656.943.371.214.227.646.299.927-.59 0-.145.437-.648.653.131.209.131.359-.146.505.496.286 0 .721.068 1.152-.145-.137-.363 0-.432.136v.082c-1.084.5.723 1.657-.58 2.015.428.363-.291.513 0 .872-.145-.078-.213.146-.355.218.715.277-.439.495.143.854-.219.363-.143.723-.359 1.157-.223-.073-.439.154-.508.291.359.29-.439.359 0 .799-.217.073-.217.285-.291.431l.074.146c-.074 0-.223.069-.363 0 0 .427.648 1.221-.137 1.508 0 .289-.363.435-.51.648-.145 0-.213 0-.285.073l.141.363-.141.072-.145 2.233c-.582.218-.146.722-.795.722.213.148-.504.439-.504.858-.145 0-.295-.073-.363.076.363.141 0 .432-.068.662-.08.061.068.061.068.133-.205.145-.572.435-.361.648-.064 0-.064.073-.137.146l.293.436c-.512.213-1.238.146-1.596.432l.076.276c-.658.081-.439 1.09-1.088 1.162-.146.073-.146.218-.074.372-.285.353-.857.498-.939.926-.209.15-.572 0-.572.363l.074.077c-.582.136-.5.571-1.15.499.068.931-.717.645-1.092 1.298-.205-.077-.277.219-.496.286l.137.291c-.568-.149-.281.866-.93.508-.223.358-.867.21-.941.79-.721-.286-.506 1.226-1.303.717-.506.509-.789.581-1.289 1.085 0 .146 0 .218.146.287-1.018-.36-.945.866-1.803.652-.082.423-.803.133-.652.508-.859.213-1.59.358-1.803 1.289.283.65-.504.441-.867.441-.367.499-1.074.721-1.656.934 0 .497-1.08 0-1.375.437-.572-.073-.785.286-1.148.494-.363.154-.219.727-.721.509.436.363-.586.29-.5.794-.15.146-.439 0-.586.146-.213.505-.281.854-.58 1.371-.133-.431-.568 0-.785-.218-.363.367-.795-.299-.867.367-.65.072-1.076.346-1.447.785-.424-.218-.572.218-.719.505-.857-.287-1.303.431-2.092.431-.568-.072-.504.794-1.148.509-.289.431-1.152-.142-1.516.508-.146 0-.432 0-.51-.223-.416-.137-1.076.223-1.506-.072-.072.653-.945 0-1.09.567-.854-.132-1.502.223-2.01.74-.291-.146-.799-.227-1.086 0h-.076c.152-.073-.141-.146-.283-.146v.276c-.076-.276-.434.149-.365-.204l-3.887-.072c-.359.35-.721.209-1.156.146-.287-.227-.867-.227-1.082-.227 0 .081-.217.153-.072.227h.072c-.869.426-1.729-.582-2.736-.073-.291.073-.803-.939-1.08-.153h-.723l.074-.146c-.586-.368-1.375.227-1.807-.428-.436.06-.791-.572-1.148-.072-.363.218-.799-.072-1.162.072-.213-.213-.281 0-.576.06-.072-.204-.072-.418-.283-.418-.732-.077-1.375.358-1.949 0-.359 0-.795-.077-1.018-.295h-1.871c0-.067 0-.209-.076-.209-.35.29-1.072.142-1.576 0-.938 0-1.874-.076-2.595-.367-.076-.431-.504-.648-1.012-.576-.934.576-.872-1.145-1.657-.359h-.499c0-.713-.734-.439-.944-.785-.79.273-1.148-.666-1.87-.149v-.072c-.517.567-.295-.722-1.02-.29-.581-.504-1.218-1.081-1.934-1.371.281-.214-.078-.432-.223-.505-.294-.072-1.012.291-.943-.354-.645-.289-1.145-.435-1.444-1.157-.645-.294-1.867 0-2.01-.934l-1.589-.219.073-.366c-.146.072-.722-.069-.931-.287-.294-.5-.735-.646-1.161-.646-.077.064-.218.064-.291.064.073-.277-.209-.362-.427-.495-.358.218-.282-.29-.503-.436.073-.141.073-.291-.146-.431-.504 0-.794-.437-1.081-.713-.218 0-.294-.227-.436-.372 0-.512-.499.072-.862-.222.073-.142.218-.29.073-.351-.659.209-.436-.939-.936-.508-.436-.137-.939-.58-1.161-.936l.144-.145c-.144-.367-.648-.073-.648-.432.15.141.226-.145.299-.223-.372-.072-.517-.431-.87-.648l-.509-.067c0-.44-.648 0-.794-.5-.65.285-1.653-.368-2.311.218-.282 0-.572.067-.709.282-.943.285-1.516-.796-2.318 0-.79.354-1.294-.796-1.942-.078-.791.504-1.59-.645-2.233.078-1.157-.142-2.016.208-3.032 0-.286-.5-.721-.215-1.148-.282-.218.49-1.008.141-1.443.282-.142-.44-.718-.142-.718-.65.059 0 .059 0 .137.077l.073-.149c-.722-.073-1.299-.939-2.093-.214-.573.286-.786-.648-1.076-.149-.222-.213-.576-.063-.648-.358-.794.077-1.452-.436-2.25-.363 0-.072-.128-.209-.273-.209l-.213.209c-.295-.504-.795-.209-1.084-.721-.517-.214-.863-.214-1.089-.649-.354-.21-.572-.072-.936-.146l.078-.277c-.218-.376-.649-.223-1.012-.295-.15-.285-.721-.146-.939-.503l-.581-.073c.154-.722-.713-.428-.927-.939-.435.218-.072-.359-.362-.436-.218-.641-1.013-.141-1.073-1.008 0-.076.06-.281-.081-.354-.512.145-1.233-.142-1.657-.5-.294-.223-.149-.803-.58-.944l-.146-.367-.078.218c-.218-.069-.427-.504-.713-.218.073-.422-.576-.287-.508-.782-.282-.153-.436-.217-.436-.589-.146-.426-.426-1.152-.931-1.152 0-.567-.867-.29-1.012-.863h-.367c.294-.218-.061-.503-.209-.576l.354-.218c-.65.142-.427-.862-.927-.713.072-.149.072-.291-.077-.363-.572 0-.287-1.012-1.166-.721-.569-.363.082-1.448-.927-1.308-.146-.14-.146-.636-.581-.431.363-.291 0-.713.15-1.007l-.428-.069c.277-.213.277-.722 0-1.012-.226.072-.226.145-.444 0l-.137-.141c.073-.077.073-.218.073-.291l-.363-.209c.645-.226-.146-.726.363-1.017-.363-.358-.363-1.007-.808-1.294.086-.149.086-.291-.127-.435 0-.072-.15-.072-.223-.072.15 0 .223-.146.29-.218 0-.354-.358-.145-.512-.354.076-.081.444-.218.153-.363h-.29c0-.213.29-.286.358-.427l-.358-.372c.358-.282-.073-.571-.223-.939.223-.286 0-.781 0-1.071l-.213-.146c.291-.214-.285-.505-.059-.799l-.299-.354c.226-.149.073-.358-.073-.431l-.218-.145.145-.149c-.572-.218.146-.578 0-.94l.372-.426c-.735-.073.073-.589-.153-1.084-.363-.142-.718-.36-.718-.795.059-.067.136-.213.282-.289-.061-.069-.223-.214-.061-.36.723 0 .351-.786.723-1.08l-.299-.218c.226 0 .358-.145.503-.209-.146-.584-.649-1.012-.277-1.584l.277-.29c-.576-.081-.503-.581-.721-.948.517-.132.145-.64.291-.931.072-.363-.363-.867.358-1.017-.431-.576.576-.641.291-1.216a.4.4 0 0 0 .363-.222l-.29-.718-.223.068c-.068-.717.077-1.362.077-2.092.146.081.218-.142.358-.218-.213-.282.077-.354.146-.568l-.146-.15c.495-.645-.213-1.515.218-2.083.218-.15.509 0 .576-.363-.358-.218.209-.509.146-.866.223-.433 1.084-.218.944-.941.141-.286 1.222-.073.64-.721.073-.354.799-.222.436-.644-.073 0-.14.14-.226.216v-.144c.734 0 .372-1.081 1.162-1.162.294-.141-.141-.358-.141-.358 1.084 0 .29-1.227.858-1.589-.209-.716 1.008-.427.867-1.076.508-.363-.068-.797.287-1.225-.354-.936.653-.936 1.088-1.299.65.073.218-.862.785-.794l-.353-.141c.798-.223-.214-1.089.721-1.157-.299-.654.79-.355.358-1.004.431 0 .863-.15 1.081-.436-.433-.358.29-.794 0-1.084.512 0 .87-.287 1.233-.508-.222-.722.854-.649.936-1.294.137-.064.363-.064.512-.213-.294-.731.782-.509.495-1.23.218-.073.578-.073.505-.36.286 0 .794.218 1.012-.221-.295-.145-.073-.431 0-.568.072.073.204.073.285 0-.358-.726.863-.372.645-1.089.073-.213.509-.358.358-.716h.291c.072.141-.141.217 0 .289.072-.798 1.515.291 1.375-.721.14-.145.431-.358.354-.726.299.082.367-.141.576-.29.427-.137 1.012-.061 1.297-.36-.135-1.007.872-.495 1.303-1.007l-.085-.282c.521.068.439-.581.948-.512l-.218-.142c.726-.581 1.878-.436 2.311-1.225h.435l-.073-.218c.714-.291 1.221-.863 2.162-.645.649-.509 1.943.213 2.237-.867l-.073-.145c.5-.367 1.439-.367 2.229-.367.082-.432.358-.209.657-.432l.999-.496c0-.653 1.384-.298 1.734-.798.431-.137.154.577.585.223l1.652.137.218-.359c.142.077.077.436.354.359l.146-.137-.21-.223c.436.223.786.077 1.29 0 .077-.426.795-.137 1.52-.218.291-.358.568.218.936-.146.073 0 .367.227.504 0v-.213c.29.358.508-.573.799-.146 1.516-.722 1.729.146 3.382-.141.294.436.73.073 1.084.141h.145c.149.223 0 .358.363.358.218-.213.64-.136 1.003-.063.436.208.943.063 1.448 0l.218-.15c.722-.073 1.076.576 1.798.508.503.428 1.37 0 1.883.504.568.291 1.729.064 1.87 1.012.358.427 1.08-.153 1.362.427.375.073.799 0 1.017.363-.146.431.354.794.789.721.363-.148.432-.436.721-.512-.213-.573.44-.282.645-.573.436.073.573-.149.867-.358.078-.287 0-.573 0-.939.586.221.287-.5.944-.354.363-.146.649-.359.503-.799.509-.213 1.012-.286 1.439-.431.145-.069.145-.291.069-.436.294-.718 1.524-.218 1.664-1.153v.146c.279 0 .432-.499.432-.726.354-.068.79.227 1.225 0 .069 0 .069.082.145.082l.146-.15c-.076-.068-.222-.218-.291-.068.436-.36.721-.436 1.299-.577-.073-.653 1.148-.077.857-.94.436-.073-.062-.435.291-.507 0 .073.082.149.145.149.432-.721 1.729-.576 2.314-1.152.354.286.576-.069.936 0 .15-.726.713 0 1.076-.223.295.081.295-.503.584-.14.646-.223 1.799-.223 2.084-1.009.154-.073.219-.222.445-.145.066.218.277.504.5.359.213-.078.354-.723.721-.653.281.217.504.072.867.145l.209-.214.068.214c.504-.278.727-.931 1.225-.931.223-.436.723-.154 1.094-.218.939-.291 2.088-.722 3.172-.722-.076.141.074.213.137.354.154 0 .363-.141.439-.281.496.14 1.004.14 1.51.358l.285-.218-.146-.213c.367-.287 1.236-.214 1.521-.214.5-.431 1.297 0 2.02-.358l-.145-.296.424.354z" fill="#fff"/><path d="M119.842 24.654c.145 0 .072-.508.428-.287 0 .142-.064.287.154.287.217-.577.639.141.785-.145.289-.073.289.286.439.362.213-.503.713.069 1.008-.076.068.504.576.286.857.436.299-.15.432-.291.654 0 .068-.15.068-.291.285-.291.213.794 1.303-.286 1.521.576l1.873.077.363.068c-.512.645.641.354.428 1.017.652.35.799-.663 1.365-.078l.146-.068c.213.495 1.08 0 1.656.146v.285c.436 0 1.158-.081 1.234.504.205-.222.641-.157.789.137.068-.068 0-.358.213-.294l.074.294c.436.218 1.156-.423 1.371.15.576.291 1.439-.15 1.865.363.73-.513.439.713 1.234.426-.072.145.072.359.285.359.578-.282.223.584.734.657v.277c.637-.064 1.219.223 1.721.359l-.072.221c.428.073 1.145 0 1.008.573l.436.148-.227.215c.586 0 1.234.58 1.811.507-.072.65.867.073.727.795l.35.289c-.059 0-.059.073-.059.146.576-.073.576.787 1.217.504-.219 1.076 1.375.571.943 1.798.209.222.785.285.432.584.709-.076.426.931 1.152.64.062.214.209.359.508.291-.076.214.352.648.5.935.217-.069.432 0 .504.222l-.146.282c.436.218.146.802.941.653h.07c-.07.363.219.581.291.79.857-.362.287.94 1.076.65l-.219.213c.646.078.219 1.017.941 1.166.076-.221.289-.089.367 0 .354.287 0 1.291.785 1.008.072.436-.363 0-.281.436.281 0 .645.059.576.422.213.431-.576.291-.295.726l.436.136c-.072.15-.291.072-.363.223l.146.141c.076-.073.145-.073.289-.073.072.295 0 .654.291.863l-.219.154c.291.355.568.718.568 1.221.508.291.078 1.298.367 1.733.141.436.215.931.359 1.294.072.218-.359.073-.291.427l.512.149c-.221.291.283.368.359.577l-.145.073c.432.221 0 .934.645.862l-.213.372c.652-.145.289.637.43.927-.141 0-.141.149-.072.218.514-.137.363.867 1.018.435.357.432.221 1.291.572 1.654l.141.081c-.355.426.291.716-.355.934.572.287.713.936.791 1.512l-.219.213c.646.226.576.868.646 1.299-.07.145-.137.291-.283.363.648.076-.145.722.576.654-.072.862.504 1.511.504 2.301-.432.218-.504.658-.363 1.081.078-.069.145.068.223.149l-.508.427c.648.286-.285.584.217.794-.293.363.363.794-.293.867-.072.218.076.358.221.291l.072.068c-.648 0 .068.94-.648.94l.355.358c-.072.076-.209.076-.209.213 0 .376.793 0 .43.581-.072 0-.145-.064-.221 0l.293.213c-.502.44 0 1.085-.072 1.593.072.069.072.363 0 .436-.43 0-.145.568-.221.858.076.146.293.218.076.363l-.076.068.293.368c-.576 0-.293.646-.365.935l.293.218c-.43.142.141.782-.504.782 0 .439 0 1.017-.217 1.306-.145.15.145.287.145.432-.363.291.355.871-.428.794-.152.282.064.718-.371.872l.219.073c-.859.499.793 1.438-.492 1.647.137.513.057 1.081-.367 1.298 0 .218.277.372.074.437-.582 0-.143.721-.65.794-.076.358.146 1.007-.223 1.297-.141.354.072 1.367-.354 1.367l.213.218c-.076.581-1.012.149-.793.863-.508.149-.582.716-.723 1.152.068.227.215.512.068.799l-.436.358c.158.073.223.358 0 .512l-.35.206.428.221c-.355.069-.572.355-.791.509.219.722-1.012.213-.572 1.076-.584-.073-.512.581-.727 1.008.359.512-.785.358-.439.939-.145.431-.721.35-.998.571.354.436-.572.436-.65.863-.072-.068-.217-.068-.291 0-.502.294-.07 1.234-.865 1.234-.213.213 0 .722-.436.585-.145.276.289.931-.287.854l.219.367c-.295.218-.363.5-.799.355-.146.217-.496.072-.363.361-.717-.217-.496.433-.998.577-.074.509.213 1.37-.51 1.298-.566-.427-.217.572-.797.363-.359.209-.787.072-1.357.209.281.735-.799.795-1.162 1.088-.359-.216-.146.355-.359.428-.504.078-.727.44-1.307.363 0 .223-.496.295-.209.508-.426.068-.863.437-1.299.654h-.139c-.074.926-1.59.35-2.238.998-.141.146-.65.363-.576.727-.146 0-.146-.072-.219-.146-.504.218-1.148.363-1.148.936-.645.508-1.516.508-2.238.935-.145-.148-.58-.209-.436-.5-.145-.072-.217.137-.217.219l-.363-.219c.227.642-.645.718-.717 1.146 0-.064-.211-.064-.211-.21-.221.649-.865-.362-.793.504-.291.146-.148-.294-.367-.294-.078.512-.791 0-.65.512-.141.431-.645.291-.504.799l-1.078.068c.072.133-.072.29-.146.359-.141-.069 0-.428-.289-.359.076.29-.434.359-.5.214.213.652-.73.209-1.018.571l-1.221.433c-.359.076-.723.29-1.158.29-.43.218-1.152.218-1.574.362-.436.077-.658.577-1.162.368l-.068.354c-.15.145-.508-.069-.363-.215-.217.649-1.012-.285-.793.649-.219.072-.5.29-.5.436-1.084-.222-1.883.432-2.75.432-.145.208-.648.208-1.07.208-.365 0-.15-.28-.434-.361-.508 0-1.088.299-1.52.588-.141-.588-.936.061-.859-.507-.363.507-.576-.214-1.088 0-.137-.723-1.227-.081-1.584-.436-.576.148-1.447.076-2.17.076-.281-.585-.854.072-1.371 0l-.641-.076.074-.069c-.363-.29-1.086.146-1.303-.439-.35.73-.576-.213-1.08 0l-.215-.285c-.066.145-.066.366-.148.435-.287-.068-.5-.58-.789-.214-.432-.148-1.152.428-1.23-.221-.576.072-.713-.215-1.141-.354l.215.285c-.082.069-.215.069-.359.069v-.354c-.449.354-.799-.146-1.166.209-.281-.577-.641.076-.932-.291 0 .146-.148.082-.289.082-.076-.368-.438-.872-.863-.654l.064-.148-1.003-.142.145-.219c-.29.143-.803-.063-1.012-.145l-.141-.354c-.436.435-1.154.144-1.733.289 0-.733-.936 0-.858-.652-.372.076-.653-.214-.804-.359-.067.146-.067.436-.362.359-.145-.145-.069-.427-.278-.359-.291.278-.508-.291-.798.077l-.072-.145.221-.146c-.221-.078-.512-.15-.581-.363-.076-.146.069-.291-.141-.218-.584.218-.363-.799-.944-.35-.576.276-.721-.8-1.362-.372.068-.79-1.017-.222-.944-.79-.726.5-.503-.722-1.225-.649.073-.29-.291-.29-.363-.431-.133.064-.061.141-.209.21l-.372-.291c-.422.363-.567-.576-1.003-.282 0-.871-1.08-.358-1.08-1.089-.15-.141-.368-.06-.581-.06.072-.363-.282-.363-.496-.589l.213-.21c-.726.21-.503-1.157-1.448-.648v-.286c-.648.499-.436-.799-1.071-.368-.299-.137-.227-.722-.799-.575-.287-.358-.154-1.222-.867-1.222-.359-.146-.214-.867-.723-.722-.071-.072-.216-.146 0-.213-.29-.436-1.088.141-.866-.653-.358-.073-.294-.577-.572-.433l-.218-.076c-.508-.423.073-1.657-.863-1.585.142-.357-.582-.43-.436-.93-.294-.581-1.302-1.017-1.08-2.029-.586-.141.149-1.442-.721-1.076-.214-.217 0-.435.213-.435.358-.858-.936-.654-.936-1.439.29-.36-.58-.291-.218-.799-.146-.137-.29.154-.426 0l.209-.427-.349-.148.145-.432c-.145.073-.223-.141-.363-.213.427-.286.141-.649.427-.944-.504 0-.142-.636-.427-.781 0-.295-.145-1.017.427-.798.507.072.943-.291 1.234.222.35-.15.79 0 1.145.213-.142-.654.579-.504.794-.794.644-.214 1.076-.363 1.797-.291 0 .149.072.213.149.291.214-.581.939.218.795-.581.362-.073.507-.218.867-.358.146-.146-.073-.436.291-.508.076.14.076.436.358.363l.145-.363c.496.291.282-.5.718-.427-.073-.291 0-.722.431-.722 0-.363-.073-.936.29-1.084-.217-.218.068-1.149-.649-.858-.367-.436-.717-.863-1.217-.863-.076 0-.439-.076-.367-.372-.359.078-.939.078-1.299-.068-.076.291-.363.213-.512.068 0 .645-.722.145-.931.645-.5-.273-1.012.59-1.298-.06-.435.358-1.507-.363-1.303.577-.495.282-.135-.517-.644-.218l.076.218c-.076.136-.29-.081-.213-.218h-.077c-.435 0 .077.5-.435.573-.354-.354-.287-1.003-.354-1.584-.295-1.008-.948-2.242-.363-3.39-.291-.427-.218-1.154-.218-1.589-.581-.354.363-.644 0-1.217-.146-.148-.508.141-.581-.221.073-.287.508-.214.363-.508 0-.214.286-.5.218-.791.218-.218.286-.5 0-.645-.508-.87.726-.58.581-1.303.644-.289-.078-.939.571-1.157-.29-.503.432-.926.145-1.302.436-.277-.362-.568 0-.926 0-.145-.145-.221-.073-.363.146-.073.654-.221.295-.431l-.295-.069c.509-.149-.072-1.088.654-1.012 0-.431.568-1.012.427-1.515.358-.649.068-1.58 1.084-1.73.073-.218-.078-.649.358-.862.146-.295-.217-1.013.363-1.089.146-.358-.363-1.153.218-1.298-.367-.79.649-.572.863-1.004.79.291.363-.721 1.003-.794l-.436-.146c0-.218.072-.431.294-.362l-.294-.209c.149-.223.436-.517.363-.799.294-.363 1.233-.213.867-1.012.726.149 0-.791.726-.721.221-.214-.073-.723.503-.782-.145-.372.064-.662.427-.662-.209-.644.436-1.076.794-1.512-.287-.286.073-.576-.142-.853.214-.154.726-.291.573-.727l.785-.508c-.201-.14-.201-.286-.059-.503.794.145.213-.794.794-.867v-.15c-.14-.208-.213.295-.213 0 .141-.14.291-.431.213-.721.363-.205 1.154-.358.931-.794.367-.282 1.23-.282 1.017-.931.794-.072-.069-1.225.939-1.071 0-.581.495-.581.87-.808 0-.133.072-.277.072-.427.352 0 .709-.431.855-.645l.649-.076c.072-.431 1.157-.368.939-1.157.508.218.573-.436.936-.359.081-.499.654-.499.936-.79.289-.218.507-.863 1.012-.936-.218-.076-.069-.439.145-.439.149-.069.354-.141.431-.358l-.078-.069c.517-.29 1.017-.654 1.444-.871-.068-.649.803-.496 1.152-.858.223-.286.73-.507 1.012-.798.872.291.154-.936 1.012-.65.649-.213.145-1.003 1.012-.867.431-.426 1.435-.209 1.375-.931.283-1.012 1.721.069 1.795-1.085.148-.431 1.02 0 .875-.721.424.073.637-.5.922.073.078-.146-.129-.431.15-.431.363 0 .145.648.576.209l-.15-.072c.514-.573 1.234-.424 1.807-.709l.428.35c-.209-.645.666-.146.732-.645.352-.072 1.004.431 1.076-.29.359-.073.219.367.51.367.145-.291.494-.726 1.008-.649.355-.363 1.008-.146 1.297-.576.143.073.432 0 .355-.223.508 0 1.225 0 1.516-.427 0-.512.652-.367.943-.512.283-.576 1.158-.072 1.512-.427l.355.078c-.137-.517.145-.872.721-.872.582-.503 1.52-.068 2.16-.145l.082-.286.064.218c.436.068.152-.436.504-.578l.293.287c-.07-.581.719 0 .65-.504.508-.145.939 0 1.379-.287.141.067.004.284.213.284z" fill="#cd497a"/><path d="M73.913 32.293c.218.436.936.077 1.372.291.495-.291 1.152.073 1.656.218.436-.432 1.089-.363 1.589-.291.277.644 1.076.146 1.588.358 0-.14.064-.213.209-.358.222-.073.149.218.222.291.354-.072 1.013-.072 1.148.422 0 .149.645.372.223.722.568.154.999.444 1.512.726l-.363.291.073.073c-.142.286-1.012-.142-1.157.358-.645-.073-.423.439-1.008.508.585.716-.5.286-.5.931-.725.077-.584 1.157-1.374 1.088 0 .145 0 .218.072.282l-.571 1.162c-.508-.073-.867.218-1.303.35-.576.521 0 1.738-1.084 1.593-.214.512-.142 1.148-.867 1.375-.351.354-.291 1.076-.858 1.148-.508.358-.872.581-.795 1.303-.435.132-.435.721-.862.64-.721.358-.295 1.08-.79 1.593-.146.431-.146 1.007-.727.935-.435.218-.073 1.081-.716.944v.354c-.514-.064-.218.576-.514.721.15.436-.435.799.15 1.008.068.499.068.862-.363 1.161-.572-.145-.508.709-1.081.427.073.213-.144.654-.503.573l.073.291c-.146-.073-.222.068-.363.286l.142.218-.29.149c0 .218.512.282.148.505-.503-.223-.358.422-.576.571.073.508-.503 1.157.073 1.517-.649.073-.576 1.161-1.221 1.084-.504.708.282 1.367-.504 1.801 0 .795-1.234 1.439-.794 2.311-.44.354-.077 1.221-.868 1.149.282.648-.725 1.302 0 1.588-.144.645-.144 1.439-.435 2.021l.146.431c-.073.142-.291 0-.291.209l.218.367c-.44.077-.218.5-.509.73.727.345.068 1.141.218 1.652-.287.854-.649 1.652-.794 2.451-.363 1.004.299 1.935-.064 2.878.064.794.363 1.303 1.076 1.665-.218.146-.218.505-.145.642l-.359.153c.068.073.287.205.214.423-.214.148-.214-.073-.422.148.422.209.345.794.786 1.149-.218.145-.718.078-1.008-.145-.799-.064-1.297-.931-2.166-.576.282-.649-.648-.718-.567-1.225-.081-.145-.227-.5-.594-.5.222-.581-.576-.358-.648-.863-.5.069-.206-.509-.718-.358-.576-.15-1.366-.799-1.875-.218-1.289-.727-.785 1.148-1.806.931-.132.363-.277.863.15 1.008.077.507-.282 1.157.29 1.375-.213.503.504.426.359.943.367.073.572.427.508.791.208.862 1.152.999 1.87 1.08.286.214 0 .363.222.573.645.072 1.157.721 1.725.657.577.428 1.008 1.081 1.734.573.358.354 1.298-.073 1.375.718l.931.14c-.073.436.789.15.436.73.29.209.571.432.354.86.658.076.072.716.513.934-.577.082.068.581-.441.799.223.217.509.503.363.939.799.649-.218 1.297.436 1.87 0 .223 0 .653.363.721v1.648c.423.149.282.594.646.88-.295.205-.078.713.281.713-.205.367.368.726.077 1.015.363-.076.431.363.509.572h.064c0 .368.439 1.3-.359 1.3-1.793-.061-3.386.285-4.97-.291-.073.23-.282.363-.503.23-.363-.23-.867-.23-1.371-.23-.513.652-1.439.076-2.161.23l-.077-.154c-.572.5-1.807-.431-2.451.215-1.081-.355-2.448.361-3.463-.355-.214.064-.354-.08-.5-.227-.509-.063-1.379 0-1.307-.636-.205.069-.496-.439-.577-.082-.209-.357-.713-.072-.931-.357-.436.285-.581-.291-.935-.573.068 0 0-.149 0-.218-.295-.363-1.089 0-1.375-.512-.863.073-.572-.709-1.076-1.145.141-.435-.436-.375-.658-.58l-.208.204c-.073-1-1.439-.059-1.439-1.14-.65-.149-.508-1.007-1.162-1.076.077-.654-.923-.727-.923-1.311l-.948-.576c.073 0 .073-.069.073-.137-.572.137-.508-.581-.863-.794.145-.658-.725-.432-.58-1.089-.363-.073-.146-.422-.296-.646-.5-.281-1.216-.431-1.007-1.152v-.072c-.069-.218-.577-.436-.354-.722-.722-.422.567-2.015-1.081-1.729-.286-.286 0-.799-.363-.867.078-.503-.794-.576-.358-1.149l-.512-.944c.294-.209-.073-.721-.073-1.076-.287-.935-.354-2.088 0-2.958l.149-.218c-.721-.722-.222-1.802-.503-2.806.149-.799.209-1.729-.218-2.523.145-.794.218-1.666.572-2.383-.287-.649-.145-1.016 0-1.801.294-.214.653-.653.798-1.226-.576-.076-.145-.503-.073-.797.146 0 .509-.069.433-.355-.069-.218.148-.581-.137-.721.427-.073-.078-.723.427-.65.571-.499-.081-1.511.939-1.656-.146-.368.567-.295.286-.726.282-.358.508-.799.576-1.076.5.064.215-.431.215-.581.072-.503-.069-1.225.581-1.225.285-.65.58-1.302.797-1.944.073-.144.282-.076.35-.216-.213-.436.723-.654-.068-.941.068-.148.068-.358 0-.426l-.149-.084c.791-.214.213-1.375 1.154-1.299 0-.439.289-.718-.218-.935.507-.072.648-.649 1.302-.577.218-.576.862-.717 1.084-1.229.277-.205 0-1.149.721-1.149-.145-.431.5-.431.5-.725.431-.069.431-.795 1.012-.645.721-.213.721-.872 1.148-1.294.657.218 1.08-.081 1.661-.145.149-.358.358-.654.794-.654 0-.426.291-.576.508-.862.568.436.422-.713.999-.577.44-.136.223-.871.798-.717.436-.36.287-.863.863-1.012.145-.432.439-.872.943-.939 0-.496.436-.94.642-1.367.725.218.303-.939 1.084-.581-.064-.581.794 0 .794-.503.294-.291.871-.142.871-.794.432.141.863-.363 1.217-.363l-.064-.146c.354-.567.863-.713 1.576-.79.229-.794 1.233-.794 1.955-.931.714-.439 2.229.422 2.383-.944l.645-.146-.078-.145c.436-.286 1.017.145 1.38-.353.794.14 1.438-.073 2.088.14.652.069.786-.791 1.434-.509.213-1.076 1.229.369 1.521-.644.863.499 1.297-.505 2.306-.146.433-.648 1.009-.284 1.59-.216z" fill="#53b0aa"/><path d="M51.559 51.901c.436-.35.363.662.795.214.786.375-.146 1.23.786 1.375-.201.358.58.507.145.794.508.431-.642 1.37.358 1.512-.128.507-.128 1.015.076 1.448-.507-.073-.076.576-.58.648-.069.499-.287 1.076 0 1.512-.201.073-.569.218-.569.576v.576c-.943.15-1.955.718-2.81.077-.081.218-.291.073-.372.073.227-.654-.713-.368-.495-1.084-.367-.44-.649-.718-1.303-1.085a1.979 1.979 0 0 1-.931-.935c-.154-.726 1.003-.503.422-1.153.295-.362-.422-.652.086-1.088.495-.646-.735-.646-.162-1.363.372 0 .294-.358.294-.507.648-.072.576-.868 1.012-1.145.214-.23.508-1.016 1.157-1.088.64-.287 1.218.217 1.875.362l.216.281zM114.719 57.388c.289 0 .576-.144.725.214l.363-.431.287.431.217-.214-.145-.217c.219.217.361.507.793.431l-.072.146c.496.21.424.943 1.152.645-.145.427.359.299.506.513l-.506.358c.578.214-.072.503.137.79-.137.504-.281 1.371.146 1.811-.283.286.295.781-.283.926 0 .581.137 1.084-.363 1.375.146.291-.072.794.434.794 0 0-.434.436-.07.572.07.436-.656.141-.506.646-.223.076-.363.221-.574.439.645.431-.502.648-.217 1.003-.432.367-.867.367-1.012.803-.723 0-1.662-.218-2.443 0v-.154l.068.073.141-.137-.721-.291c0 .354-.504.073-.723.291v-.218c.143.077.219.077.295 0-.223-.299-.943-.073-1.307-.217l.068-.082c-.068-.136-.209-.345-.494-.277.062-.218-.072-.512-.215-.512 0-.137.143-.209.143-.282-.582-.649-.65-1.73-.797-2.597.363.069.438-.576.654-.436l.215-.141c-.072-.146-.291-.146-.363-.072l.363-.431-.215-.15.432-.568c-.154-.073-.217-.15-.432-.15.857-.208.277-1.516.641-2.092.217-.069.58-.291.436-.576.209.073.363-.142.504-.295-.295-.5.65-.5.504-.999.291-.291.725-.218.871-.65.068.141.217.069.363.141.061-.141.277-.281.061-.431.145-.072.721.217.652-.214 0 .07.068.288.287.432zM47.379 65.672c.145.368.499.15.644 0 .586.077 1.012.077 1.512.226.226-.503 1.229-.294 1.666-.076.427.146.794.355 1.297.431.145.218-.144.727.355.794.218.44-.499 1.081.218 1.294-.218.227.069.376 0 .581-.354.363-1.003.286-1.443.726-.718 0-1.367-.513-2.012-.295.064.295-.291.359-.436.505-.431-.146-.653.362-1.084.149-.354.721-1.298.291-1.947.436-.145-.295-.572-.503-.863-.654-.141.069-.722.069-.431.218-.722.291-.581-.503-1.085-.721a.536.536 0 0 0-.146-.568c-.581-.23-.645.491-1.148.205-.145-.354-.576-.718-1.012-.858h-.863c-.294-.944.649-1.375.936-1.951a.4.4 0 0 0 .507-.145c-.145-.573.577-.218.722-.649.507-.145 1.003.431 1.216-.287.363.064.727 0 .727-.358.941.575 2.235-.088 2.67.997zM113.779 75.993c.367-.294.289.285.512.427-.295.503.512.721.512 1.012l.061-.214c.219-.076.432.351.648 0 .439.069 0 .65.508.569.438.081.867-.355 1.291-.064.072-.081-.068-.291.145-.214.367.577 1.307-.077 1.52.577.658.145 1.295-.654 1.799.145.365.35 1.375.132 1.156.926.363 0 .219.512.576.367l.15-.367c.213 0 .141.291.363.367.277-.144 0-.367.213-.585.281.585 1.152.368 1.58.218l.217-.068c-.072.58.875.218.654.789.072.078.221.223.291.223l-.291.363.141.213c.08-.081.08-.081.15-.081v.154l-.15-.073c-.504.363.209 1.152-.359 1.443.219.863-.799.573-1.229 1.012-.723-.076-1.086.491-1.943.355 0 .436-.645.073-.719.513.074 0 0 .059 0 .146-.221-.731-.801-.146-1.088-.872-.281.576-.789-.653-.854.213-.082-.213-.439-.355-.803-.286.072-.508-.432-.718-.432-1.162-.432.368-1.512.368-1.293 1.017-.578.146-1.012.358-1.518.567l.143.154-.142.223c-.506-.44-1.297-.15-1.945-.223.076-.646-.791-.073-.867-.646h-.65c-.145-.149.07-.439-.145-.512-.359.653-.432-.355-.939-.068l.217-.069c-.148-.363-.643-.444-1.006-.73l-.068-.068.281-.291c0-.218-.281-.282-.572-.218.068-.217-.068-.427-.295-.5-.281.282-.209-.213-.43-.213-.07-.29-.359-.141-.578-.141-.141-.367-.213-1.088-.789-1.016.076-.073.355-.287.141-.432-.064-.072-.295 0-.355-.072.355-.363-.58-.798.215-.935-.363-.794.576-.081.576-.65.354-.144 1.221 0 1.076-.648.145-.576 1.225-.077.947-.798h.215c-.072.073-.072.149 0 .222.217 0 .285-.149.285-.294.86.295 2.094-.217 2.877.295z" fill="#fff"/></g></svg>