<svg xmlns="http://www.w3.org/2000/svg" width="2500" height="2500" viewBox="0 0 192.756 192.756"><g fill-rule="evenodd" clip-rule="evenodd"><path fill="#fff" d="M0 0h192.756v192.756H0V0z"/><path d="M24.563 141.514c-1.351.859-3.806 1.35-5.279 1.35-5.647 0-9.575-3.314-9.575-8.715 0-2.824 1.104-4.912 2.946-6.508 1.719-1.473 4.174-2.209 6.875-2.209 2.209 0 4.419.49 5.524.982-.245 1.104-.491 2.332-.491 3.559h-.613v-1.717c0-.615-.982-.982-2.087-1.475a10.294 10.294 0 0 0-2.701-.367c-4.542 0-6.875 3.314-6.875 7.365 0 4.664 3.069 7.734 7.857 7.734 1.719 0 3.806-.613 4.91-1.352l.123.246-.614 1.107zM35.734 129.482c3.56 0 5.279 2.578 5.279 6.385 0 3.559-1.596 6.137-4.788 6.137-3.806 0-5.402-3.561-5.402-6.998.001-3.192 1.474-5.524 4.911-5.524zm-.122 13.258a7.44 7.44 0 0 0 7.488-7.488c0-4.297-2.946-6.629-7.12-6.629-4.419 0-7.243 3.068-7.243 7.121 0 4.295 2.947 6.996 6.875 6.996zM47.029 131.324c0-.736 0-1.229-.123-1.352-.123-.244-.368-.244-.859-.367h-.859v-.613H48.625l9.208 11.416v-9.084c0-.736 0-1.229-.123-1.352-.123-.244-.368-.244-.859-.367h-.861v-.613h4.542v.613h-.859c-.368.123-.614.123-.737.367-.123.123-.246.615-.246 1.352v10.68c0 .246.123.492.123.736l-1.718-.244-9.084-11.418h-.123v8.961c0 .738.123 1.229.246 1.475.123.123.368.244.736.244l.859.123v.492h-4.542v-.492l.859-.123c.491 0 .736 0 .859-.244.123-.246.123-.736.123-1.475v-8.715h.001zM70.721 132.184l-.123-1.105c-.123-.49-.123-.736-.859-1.105-.491-.367-1.351-.49-2.087-.49-1.35 0-2.946.859-2.946 2.824 0 1.35.859 2.086 3.192 2.332 2.823.367 4.542.982 4.542 3.191 0 3.314-3.069 4.91-5.893 4.91-1.351 0-2.701-.367-3.314-.736.123-.982.123-2.086.123-2.945h.614l.246 1.35c0 .736 1.596 1.473 3.069 1.473 1.719 0 3.438-.98 3.438-2.945 0-1.842-1.351-2.332-3.314-2.578-3.069-.369-4.297-1.352-4.297-3.314 0-2.947 2.701-4.42 5.033-4.42 1.474 0 2.701.492 3.438.859-.246.982-.246 1.842-.246 2.701h-.616v-.002zM76.859 131.324c0-.736 0-1.229-.123-1.352-.123-.244-.369-.367-.859-.367h-.859v-.613H85.33c-.246.859-.368 1.963-.368 2.945h-.614v-1.227c0-.246 0-.492-.246-.492-.982-.367-2.456-.367-3.683-.367-.614 0-1.105 0-1.719.121v5.156h2.332c1.105 0 1.842 0 1.964-.123.123-.121.123-.244.246-.49v-1.105h.614v4.42h-.614v-1.105c-.123-.244-.123-.49-.246-.49-.123-.123-.859-.246-1.964-.246H78.7v5.525c.614.123 1.104.123 1.719.123 1.473 0 3.56-.123 3.805-.246.369-.123.614-.982.737-2.209h.614c-.123.98-.246 2.209-.246 3.191-.859 0-2.455.123-3.806 0H75.262v-.492l.614-.123c.491 0 .737 0 .859-.244.123-.246.123-.736.123-1.475v-8.715h.001zM92.327 140.039c0 .738 0 1.229.123 1.475.123.123.368.244.859.244l.859.123v.492h-5.647v-.492l.982-.123c.368 0 .614 0 .736-.244.123-.246.246-.736.246-1.475v-8.715c0-.736-.123-1.229-.246-1.352-.123-.244-.368-.244-.736-.367h-.859v-.613H95.396c3.069 0 3.805 1.473 3.805 2.945 0 2.088-1.842 3.314-3.683 3.684l4.296 5.77c.369.367.738.367 1.229.49v.492h-2.702c-.244-.369-.49-.615-.736-.982l-3.56-4.787c-.368-.369-.736-.736-1.104-1.229l.123-.246a4.05 4.05 0 0 0 1.719 0c1.35-.244 2.577-1.35 2.577-2.699 0-2.088-1.595-2.701-3.068-2.701-.859 0-1.473.123-1.964.244v10.066h-.001zM109.021 140.039l3.561-9.205c.369-.982 0-1.105-.49-1.229h-.982v-.613H115.284v.613h-.613c-.369.123-.615.49-.982 1.473l-3.438 8.104c-.49 1.104-.859 2.209-1.229 3.314h-.98c-.246-1.105-.738-2.211-1.105-3.193l-3.684-8.838c-.244-.613-.49-.859-.736-.859h-.736v-.613h5.156v.613h-1.105c-.367 0-.736.123-.613.613l3.802 9.82zM118.475 137.217l2.455-5.77 2.455 5.77h-4.91zm3.191-8.348h-.613a59.655 59.655 0 0 1-1.719 4.174l-3.438 7.857c-.244.49-.613.857-1.104.857l-.615.123v.492h4.42v-.492l-.736-.123c-.613 0-.982-.121-.982-.49 0-.367.49-1.596.736-2.086l.492-1.229h5.646l.859 2.209c.123.492.367.982.367 1.229s-.367.367-.736.367l-.98.123v.492h5.154v-.492l-.613-.123c-.369 0-.613-.244-.736-.613-.246-.367-.492-.982-.613-1.35l-4.789-10.925zM133.697 131.814c0-.736 0-1.35-.123-1.842h-2.945c-.615 0-.738.123-.738.615l-.121 1.473h-.615c0-.982 0-2.088-.121-3.068h11.17c-.123.98-.123 2.086-.123 3.068h-.613l-.123-1.473c0-.492-.123-.615-.736-.615h-2.945c-.123.492-.123 1.105-.123 1.842v8.225c0 .738 0 1.229.123 1.475.123.123.367.244.859.244l.98.123v.492h-5.769v-.492l.982-.123c.492 0 .736 0 .736-.244.246-.246.246-.736.246-1.475v-8.225h-.001zM146.465 140.039c0 .738 0 1.229.123 1.475.121.123.367.244.857.244l.861.123v.492h-5.648v-.492l.982-.123c.492 0 .613 0 .736-.244.246-.246.246-.736.246-1.475v-8.715c0-.736 0-1.229-.246-1.352-.123-.244-.244-.367-.736-.367h-.982v-.613h5.648v.613h-.861c-.49 0-.736.123-.857.367-.123.123-.123.615-.123 1.352v8.715zM157.881 129.482c3.684 0 5.402 2.578 5.402 6.385 0 3.559-1.596 6.137-4.91 6.137-3.807 0-5.402-3.561-5.402-6.998 0-3.192 1.595-5.524 4.91-5.524zm-.123 13.258c4.297 0 7.488-3.314 7.488-7.488 0-4.297-2.945-6.629-6.996-6.629-4.543 0-7.244 3.068-7.244 7.121 0 4.295 2.947 6.996 6.752 6.996zM169.666 131.324c0-.736-.123-1.229-.246-1.352-.123-.244-.367-.244-.736-.367h-.859v-.613h3.314l9.207 11.416h.123v-9.084c0-.736 0-1.229-.123-1.352-.123-.244-.367-.244-.859-.367h-.859v-.613H183.171v.613h-.859c-.492.123-.613.123-.736.367-.246.123-.246.615-.246 1.352v10.68c0 .246 0 .492.123.736l-1.842-.244-9.084-11.418v8.961c0 .738 0 1.229.123 1.475.123.123.367.244.859.244l.859.123v.492H167.825v-.492l.859-.123c.369 0 .613 0 .736-.244.123-.246.246-.736.246-1.475v-8.715zM7.5 162.506c0 .98 0 1.596.123 1.84.245.246.491.246.982.369h1.228v.736H6.396c-1.228-.123-2.333 0-3.561 0v-.736H3.94c.613-.123.859-.123.981-.369.246-.244.246-.859.246-1.84v-10.682c0-.98 0-1.596-.246-1.84-.123-.246-.368-.369-.981-.369l-1.105-.123v-.613H9.833v.613l-1.228.123c-.491 0-.737.123-.982.369-.123.244-.123.859-.123 1.84v10.682zM15.97 154.402c0-.736 0-1.227-.123-1.473s-.368-.246-.859-.246l-.859-.123v-.49H17.566l9.207 11.295v-8.963c0-.736 0-1.227-.123-1.473s-.369-.246-.86-.246l-.736-.123v-.49h4.542v.49l-.859.123c-.491 0-.736 0-.859.246s-.123.736-.123 1.473V165.82l-1.719-.369-9.084-11.293h-.122v8.961c0 .736.123 1.227.245 1.35.123.246.368.246.859.369h.737v.613h-2.209c-.737-.123-1.474 0-2.333 0v-.613h.859c.491-.123.736-.123.859-.369.123-.123.123-.613.123-1.35v-8.717zM36.594 154.895c0-.736 0-1.352-.123-1.965h-2.946c-.614 0-.737.246-.859.613v1.596h-.614c0-1.104 0-2.086-.123-3.068H43.1c-.123.982-.123 1.965-.123 3.068h-.613l-.123-1.596c0-.367-.123-.613-.736-.613h-3.069v10.19c0 .736 0 1.227.123 1.35.123.246.368.369.859.369h.859v.613h-2.701c-.982-.123-1.964 0-2.946 0v-.613h.982c.491 0 .614-.123.736-.369.246-.123.246-.613.246-1.35v-8.225zM47.397 154.402c0-.736 0-1.227-.123-1.473s-.368-.246-.859-.246l-.859-.123v-.49h10.312c-.246.859-.369 1.965-.369 2.947h-.613v-1.229a.934.934 0 0 0-.246-.613c-.982-.369-2.456-.369-3.806-.369-.491 0-.982 0-1.596.123v5.156c.614.123 1.35.123 2.209.123 1.228 0 1.841-.123 2.087-.246.123 0 .123-.246.123-.49l.123-.982h.614c0 .736-.123 1.473-.123 2.209s.123 1.473.123 2.211h-.614l-.123-1.229c0-.246 0-.369-.123-.49-.246-.123-.859-.123-2.087-.123h-2.209v5.4c.614.123 1.104.123 1.596.123 1.596 0 3.56 0 3.928-.246.368-.121.614-.98.736-2.086h.614a24.075 24.075 0 0 0-.246 3.191h-8.102c-.736-.123-1.351 0-2.087 0v-.613h.736c.491-.123.737-.123.859-.369.123-.123.123-.613.123-1.35v-8.716h.002zM62.742 163.119c0 .736 0 1.227.123 1.35.123.246.368.369.859.369h.86v.613h-2.701c-.982-.123-1.841 0-2.946 0v-.613h.982c.491 0 .736-.123.859-.369.123-.123.123-.613.123-1.35v-8.717c0-.736 0-1.227-.123-1.473s-.368-.246-.859-.246l-.86-.123v-.49h6.752c3.069-.123 3.929 1.473 3.929 2.824 0 2.086-1.964 3.438-3.806 3.805l4.42 5.646c.245.369.736.492 1.104.492v.613h-1.35c-.491-.123-.859 0-1.351 0-.246-.367-.491-.736-.736-1.105l-3.56-4.664c-.369-.49-.737-.859-.982-1.229l.123-.244c.491 0 1.105 0 1.596-.123 1.351-.246 2.578-1.229 2.578-2.701 0-2.086-1.596-2.701-3.069-2.701-.86 0-1.473.123-1.964.246v10.19h-.001zM75.631 154.402c0-.736 0-1.227-.123-1.473s-.368-.246-.859-.246l-.859-.123v-.49h3.438l9.207 11.295h.123v-8.963c0-.736-.123-1.227-.246-1.473s-.368-.246-.736-.246l-.859-.123v-.49h4.542v.49l-.859.123c-.491 0-.736 0-.859.246s-.123.736-.123 1.473V165.82l-1.719-.369-9.084-11.293v8.961c0 .736 0 1.227.123 1.35.123.246.369.246.859.369h.859v.613h-2.333c-.736-.123-1.473 0-2.333 0v-.613h.859c.491-.123.737-.123.859-.369.123-.123.123-.613.123-1.35v-8.717zM95.519 160.172l2.456-5.77 2.455 5.77h-4.911zm3.192-8.348h-.613c-.492 1.475-1.106 2.824-1.72 4.174l-3.437 7.857c-.246.49-.614.859-1.105.982h-.737v.613h2.333c.491-.123 1.228 0 2.21 0v-.613h-.737c-.614-.123-.982-.123-.982-.613 0-.246.491-1.598.737-1.965l.491-1.35h5.646l.859 2.332c.123.367.369.859.369 1.227 0 .246-.369.369-.736.369h-.982v.613h2.578c.859-.123 1.719 0 2.578 0v-.613h-.615a1.111 1.111 0 0 1-.736-.736c-.244-.369-.49-.859-.736-1.229l-4.665-11.048zM110.619 154.895v-1.965h-3.07c-.613 0-.736.246-.736.613l-.123 1.596h-.613c0-1.104 0-2.086-.123-3.068h11.172c-.123.982-.123 1.965-.123 3.068h-.613v-1.596c-.123-.367-.246-.613-.859-.613h-2.947c-.123.613-.123 1.229-.123 1.965v8.225c0 .736 0 1.227.246 1.35.123.246.246.369.736.369h.982v.613h-2.824c-.98-.123-1.84 0-2.822 0v-.613h.859c.49 0 .736-.123.859-.369.123-.123.123-.613.123-1.35v-8.225h-.001zM124.49 163.119c0 .736 0 1.227.123 1.35.123.246.367.369.859.369h.982v.613h-2.824c-.982-.123-1.842 0-2.945 0v-.613h.98c.492 0 .736-.123.859-.369.123-.123.123-.613.123-1.35v-8.717c0-.736 0-1.227-.123-1.473s-.367-.246-.859-.246l-.98-.123v-.49h5.769v.49l-.982.123c-.492 0-.736 0-.859.246s-.123.736-.123 1.473v8.717zM135.906 152.439c3.561 0 5.279 2.578 5.279 6.506 0 3.561-1.596 6.016-4.787 6.016-3.807 0-5.402-3.561-5.402-6.998 0-3.068 1.473-5.524 4.91-5.524zm-.121 13.381c4.295 0 7.488-3.314 7.488-7.488 0-4.297-2.947-6.629-7.121-6.629-4.42 0-7.242 3.068-7.242 6.996 0 4.42 2.945 7.121 6.875 7.121zM147.568 154.402c0-.736-.123-1.227-.244-1.473-.123-.246-.369-.246-.736-.246l-.859-.123v-.49h3.314l9.207 11.295h.123v-8.963c0-.736 0-1.227-.246-1.473-.123-.246-.369-.246-.736-.246l-.859-.123v-.49h4.541v.49l-.859.123c-.49 0-.736 0-.859.246s-.123.736-.123 1.473V165.82l-1.719-.369-9.084-11.293v8.961c0 .736 0 1.227.123 1.35.123.246.369.246.859.369h.859v.613h-2.332c-.736-.123-1.473 0-2.209 0v-.613h.859c.367-.123.613-.123.736-.369.121-.123.244-.613.244-1.35v-8.717zM166.965 160.172l2.455-5.77 2.455 5.77h-4.91zm3.191-8.348h-.613c-.49 1.475-1.104 2.824-1.719 4.174l-3.438 7.857c-.244.49-.613.859-1.104.982h-.738v.613h2.334c.49-.123 1.227 0 2.209 0v-.613h-.736c-.613-.123-.982-.123-.982-.613 0-.246.492-1.598.736-1.965l.492-1.35h5.646l.859 2.332c.123.367.367.859.367 1.227 0 .246-.367.369-.736.369h-.98v.613h2.576c.859-.123 1.719 0 2.578 0v-.613h-.613a1.111 1.111 0 0 1-.736-.736c-.246-.369-.492-.859-.736-1.229l-4.666-11.048zM182.801 164.469c.492.123 1.105.123 1.596.123 1.596 0 3.93 0 4.297-.367.246-.123.369-.738.369-1.229l.246-.982h.613c-.123 1.105-.246 2.455-.369 3.438H181.574c-.736-.123-1.229 0-1.719 0v-.49l.613-.246c.369-.246.49-.613.49-1.105v-9.207c0-.736 0-1.227-.121-1.473-.123-.246-.369-.246-.859-.246l-.982-.123v-.49h5.769v.49l-.982.123c-.49 0-.736 0-.859.246s-.123.736-.123 1.473v10.065zM161.195 110.455c-.367-.369-.736-.859-1.35-.982-.246 0-.492-.246-.492-.49 0-.615-.367-1.229-.98-1.352-.982-.246-1.965-.246-2.824-.613-.123-.123-.613 0-.492-.246.246-.613 1.105-.736 1.229-1.473-.982-.123-2.332.736-2.945-.246-.123-.123.121-.367.244-.613 0-.246.123-.613-.123-.859.246-.246 0-.49.123-.736.982-1.35 2.088-2.578 2.088-4.297-1.105.982-1.719 2.332-2.824 3.438 0 0-.246-.123-.246 0-.244.367-.736.859-1.104.859-.123 0-.369-.246-.369-.369 0-1.596.736-3.191.492-4.787-.246.123-.123.613-.492.492-.367.859-.367 1.717-.613 2.578 0 .121-.246.121-.246.367-.123.49-.613 1.105-1.105.736-.736-.736-.736-2.086.123-2.945.123-.123 0-.369 0-.492-.49.123-.98-.123-1.104-.613-.246-.859-.859-1.596-1.352-2.333 0-.123-.244-.123-.367-.123.123 1.965 1.104 4.297-.492 5.893v.367c-.49.615-1.35.123-1.473-.367-.246-.49.369-.859.246-1.473.244 0 .244-.369.244-.492.246-1.473.492-2.945-.244-4.296-.123-.123.123-.491 0-.614-.246-.368-.369-.614-.613-.859-.123-.368-.492-.491-.615-.736 0-.368-.123-.614-.367-.982v-.246c-.859-.981-1.596-2.087-2.701-2.7-.123 0-.369-.123-.369-.246-.98-.737-1.963-1.228-3.068-1.473a10.054 10.054 0 0 0-6.016 0c-1.227.246-2.209.736-3.314 1.35-.246-.368-.246-.982 0-1.35 0-.246.123-.491.246-.614v-.491l.367-.368c0-.368-.121-.859.123-1.228 1.105-1.473 1.596-3.191 3.191-3.805.492-.246 1.105-.368 1.598-.246 0-.245 0-.368.244-.368 1.105-.246 1.842-.859 2.947-.982.49 0 .859-.368 1.104-.859v-.245c.246-.491.738-.368 1.105-.123.613.246 1.105-.368 1.719-.613.369-.123.369-.614.736-.737.369 0 .736-.123 1.229-.369.123 0 .367.123.49 0a47.857 47.857 0 0 1 2.578-2.087c.123 0 .369-.123.613-.245 1.105-.736 2.088-1.473 3.314-1.964.246 0 .246-.246.246-.246-3.438-.123-6.998.491-10.066 2.455-.123 0-.367-.123-.613 0-1.105.737-2.211 1.351-3.314 2.21a3.697 3.697 0 0 1-.982.491c-.369.123-.736.245-.982.491-.859.859-1.842 1.35-2.701 2.209-.736.614-1.35 1.105-2.086 1.596-.123.123-.246.123-.246 0-.613-.982 0-1.964.123-2.946.246-1.228.736-2.455 1.842-3.069.367-.123.49-.614.859-.737.613-.246 1.104-.859 1.35-1.473.492-.859 1.473-1.228 2.088-1.964.121-.123 0-.246 0-.368.121-.123.367-.246.367-.368v-.737c.123-.123.369-.246.369-.369 0-.368.123-.736.367-1.228 0-.123-.121-.368 0-.491.123-.368.492-.614.615-.859.121-.369-.492-.614-.615-.859v-.368c.492-.491 1.229.123 1.596-.614v-.246c.123-.369.369-.614.369-.859.246-.491.369-.982.613-1.473.246-.859 1.596-.736 2.334-.368-.369-.736-1.105-.982-1.719-1.228-.982-.246-2.088.123-3.07-.123-.244-.123-.736-.245-1.105-.368-1.104-.491-2.332-.245-3.436-.245-.246 0-.369.245-.492.368-.49.736-1.227 1.596-1.963 1.964-.369.123-.492.614-.738.859v.368c-.121 0-.121.123-.121.246-.246.368-.615.736-.859.368l-.369-.368c-.369-.859 0-1.841-.736-2.578-.123-.123-.123-.491 0-.737 0-.123.123-.246.246-.123 0-.491 0-.859-.246-1.351s.123-1.228-.369-1.719c-.121-1.351-.121-2.701-.367-4.051 0-.368.123-.859.367-1.228 0-.123-.121-.368-.244-.246-1.105.614-1.596 1.964-2.455 2.947.123.614-.492 1.104-.859 1.596-.859-.123-1.229-1.105-1.596-1.596-.246-.982-1.965-2.087-2.824-3.069-.123 0-.613-.368-.613 1.473-.369 1.719 0 2.701-.246 4.174-.246 1.596 1.35 2.824.859 3.56-.123.369.246.737.369 1.228.121.614.367 1.105.613 1.719.49.859.982 1.719.982 2.701.121 1.105 1.227-.123 1.596 1.228-1.229.982.244 2.824.367 2.824.492.614.613 1.473 1.352 1.841 0 .982 1.104 1.473 1.596 2.209.859 1.351.121 2.578 0 2.578-1.473-.737-1.842-2.824-4.297-3.069-2.088-.982-4.42-1.105-6.629-.736-1.105.123-2.088.245-3.07.245-.244 0-.244-.491-.244-.491v-9.33-7.734c.49-.246.49-.982.859-1.228.244-.614 1.104-.737 1.227-1.351.246-1.104.123-2.087.246-3.069.123-2.333 1.35-3.192 2.086-3.683.982-.859 1.229-.245 3.561-1.473.736.859 2.701 1.473 3.07-.123.49-.491.98-.859 1.227-1.473.369-1.227-1.596-2.823-.736-2.946.859-.123 1.473.859 2.332.613 3.068-1.228 3.807-2.946 3.438-5.033.613-1.473 2.455-.123 3.684-.491.49-.123.613-.737 1.227-.982 1.352.614 1.352.123 2.332.245.615.982 1.719.982 2.578.246 1.596 0 2.455-1.228 3.193-2.456.244-.368-.246-.859-.123-1.228.244-.491.49-.981.244-1.595-.244-.982.123-2.456-1.104-2.946-.123-.123-1.105-.246-.982-.737 0-.859-.123-1.719.123-2.701.367-.859-.246-1.596-.859-2.209-.492-.491-1.229 0-1.842-.491-1.229-.736-2.088-2.333-2.824-2.087-.982-.491-2.332-.736-3.438-.368-.736-.368-1.473.123-1.963.368-.615.368-1.105-.368-1.719-.736-1.105-.737-.123-.614-1.105-1.719-.49-.737-2.332-.491-2.945.123-.369.246-.859.369-.859.614 0 .737-.859 1.473-.736 2.21.367.614.859 1.596-.246 1.964-.859.614-1.473.368-1.965.859-.367.246 0 .736-.244 1.105-.982-.491-.861-2.087-1.719-2.333-.738-.368-2.211.123-3.07-.123-.859.491-1.719 1.105-2.701 1.228-.244 0-.613.614-.859.368-.244-.368-.859-.491-.859-.737-.244-.736-.367-1.473-.98-2.086 0-.123.123-.246 0-.369-.246-.368-.615-.859-.982-.736-1.105.245-2.332-.368-3.07.613-.736.123-1.35-.368-2.086-.368-.613.737-1.105 1.596-2.088 1.842-.49.123-.859-.491-1.104-.736-.859-.614-1.842.123-2.824.245-.123 0-.491.246-.737.368-.123.123-.368 0-.491.123-.369.245-.737.123-1.105.491-.736-.491-1.227 0-1.964.369v.245c-.491 1.105-1.351 1.474-2.455 1.351-.246 0-.368.368-.491.614s0 .368 0 .614c-.614 1.105-.736 2.824.246 3.928.123.123 0 .369.123.614.246.368.369.859.369 1.228.368 0 .368.368.614.614.245.245-.123.736-.368.981-.859 1.105-1.228 2.21-1.719 3.438 0 .123.123.369.123.491-.123.859.123 1.473.246 2.333.123.246.491.368.736.491.491 0 1.105-.859 1.474-.491.613.614.491 1.596 1.227 1.964.614.491 1.596.614 1.964 1.35.246.614.859 1.105.859 1.596v4.788c0 .736-.491 1.35-.982 1.964 0 .123.123.369 0 .491-.245.123-.245.491-.245.614 0 1.473-.736 2.578-1.842 3.437-.123.123-.245 0-.368.123-.859.614-.613 1.965 0 2.578.368.246.737-.368 1.228-.491.123-.123.246-.123.368 0 .491.246.614.736.614 1.228.123 1.35-.859 1.35 0 1.841.123.123 0 .614.123.859.246.246-.246.859.246 1.105.123.123.491.123.614-.123 0-.246 0-.491-.123-.737-.246-1.351.859-2.824.123-4.174-.123-.369.123-.614.123-.859.123-.246.368-.491.368-.614.368-.368.491-.982.859-.982.614 0 1.35.123 1.595.86.123.491-.245 1.227 0 1.596.123.123.615 0 .738-.123.123 0 .367-.123.367-.246.492-1.473-.123-3.068-1.596-3.56-.491-1.228 0-2.578-.982-3.561-.123-.123 0-.245-.123-.368-.246-.123-.614-.613-.737-1.104v-4.91c.491-.86 1.105-1.474 1.841-2.087v-.368c.49-.368.49-.859.982-1.228.246-.123.613-.614.982-.369.244.246.244.246.49.614.123.123 0 .245 0 .491.492.982 1.473 1.719 1.719 2.824.246.614.123 1.228-.246 1.719.246.245.246.614.492.982.123.246 0 .614-.246.982s-.246.859 0 1.228c.246.859 1.105 1.473 2.088 1.228.244.368.613.737.49 1.228 1.229 1.718 2.332 3.437 3.314 5.279.246.368.613.491.736.736.123.368.369 1.104.369 1.35.246 1.596.246 4.051.367 6.752v9.698c-.367.368 0 .859-.244 1.228-.123.369-.492.246-.859.369-1.229.491-2.088 1.35-3.314 1.964 0 0-.123.245-.246.245.982.123 2.086.369 3.068.123.369-.123.613-.368 1.105-.246.246 0 .369.369.369.491v5.647c0 .368-.492.859-.738.859-.98 0-.859-1.228-.613-1.842.123-.491.246-.982.246-1.473-.246.123-.369 0-.369-.123v-.368c.123-.368.613-.246.613-.614.123-.614-.121-1.473-.613-1.596-.49-.123-.859.368-1.473.246-.123.614-.246 1.228-.736 1.719-.492.246-.246.982-.369 1.473 0 .123-.123.245-.244.368-.369 0-.859 0-.859.368 0 .369-.369.737-.246 1.228.246.491.369.859.369 1.351.121 0 .244.123.367.246v.737c-.123.123-.367.123-.367.368 0 .368 0 .736-.369.982h-.246c-1.104-1.596-2.332-3.192-4.174-3.437-.244 0-.123.491-.244.613-.492.614-1.597-.245-2.088.491.246.859-.614 2.087.246 2.455.123 0 .123 0 .245.123.615.123 1.351 0 1.597.491.367.736.49 1.596 1.35 1.718.367-.368.982-.491 1.473-.736.369-.246.736.246.982.614.123.614.49 1.473-.246 1.719-.367.123-.982.245-1.35.123-.613-.123-.736-.982-1.229-1.228-.367-.246-.736-.123-.859.246-.121.491.123 1.104-.244 1.596-.123.123-.369.245-.492.368-.246.369-.246.859-.491 1.228.245.246.245.737.491 1.105-.246.123-.123.369-.246.491 0 .123-.121.246-.245.123-.123.491 0 .737.245 1.105.123.123 0 .246-.121.368-.124.368.121.614.244.86 0 .121.123.244.246.121.492-.367.859-.613 1.473-.367.369.123 0 .859.492.982.49 0 .736-.369 1.104-.736 1.105.736.982 2.576.738 3.682 0 .492-.369.736-.738 1.105v.367c-.244.492-.859 0-.859-.123.246-.49.859-.857.615-1.473-.246-.367-.492-.859-.736-1.35-.123-.246-.492-.369-.738-.246-.613.246-1.104 1.105-.857 1.842 0 .123-.123.613-.492.613s-.859.492-1.228 0c-.246-.49-.246-.98-.368-1.473-.246-.613-.123-1.227-.491-1.596-.123-.123-.246-.123-.368-.246-.491 1.105 0 2.334-.123 3.561-.123.123-.246.246-.368.123-.246-.123-.859-.982-.859-1.105v-7.366c0-.859 1.473-.245 2.087-.736.123-.123-.123-.491-.246-.613-1.473-2.087-3.069-3.561-4.665-5.156l-.246-.246v-6.875c1.105-1.105 2.455-2.21 4.051-2.087.246 0 .491.245.736.368.737.736 1.35 1.351 2.21 1.964.613.491.736-.246.859-.859.246-1.105.49-2.333-.246-3.315-.123-.123.123-.245.123-.368 0-.368-.246-.736-.123-1.228 0-.123.246-.246.369-.123.736.982 1.842 1.964 2.945 2.087.982-1.718.123-4.296-1.35-5.524-.982 0-1.352-1.104-2.088-1.35-.244 0-.49-.123-.736-.246-.491-.246-.859-.614-1.227-.737-.982-.245-1.596.614-2.21 1.105-.614.613-1.596.368-1.964-.369-.246-.491-.123-1.228-.614-1.35-.859-.123-1.718-.246-2.578-.737-.491-.246-.859.491-1.35.737-.123 0-.246-.123-.368 0-1.228.981-2.456 2.332-2.087 4.051-.368.368-.982.246-1.35.614-.614.491-.737 1.35-1.351 1.841 0 .737.123 1.596-.123 2.333-.123.123-.246.246-.368.246-1.105.123-2.456-.246-3.438-.737-.737-.368-.982.491-1.719.86v.368c.246.245.491.368.737.736.123.123-.123.246-.246.246 0 .123-.246.123-.246 0-.246-.123-.368-.369-.614-.491-.859 0-1.964-.123-2.578.491-.123.123-.123.246 0 .368 0 .123.246.246.246.368.123.246 0 .491.123.737.491.614.86.859.737 1.719 0 .123.123.368.246.368.614.123 1.227-.123 1.719.123.491.123.491.859.614 1.35 0 .123.245.246.368.246.123.123.245.123.245 0 .491-.368 1.105-.737 1.228-.123.246.982.246 2.087.123 2.823 0 .246-.491.369-.614.614h-.123c-.859.982-1.719 1.964-2.824 2.578v.368c-.982.736-1.596 1.596-2.455 2.578-.123 0-.123.368 0 .368.736.491 1.964 0 1.964 1.104 0 1.228.245 2.824-.614 3.56-.246.123-.369-.246-.491-.367-.246-.492-.123-1.105-.369-1.474-.368-.368-.613-.614-.859-.982-.123-.123 0-.369 0-.491-.369-.368-.246-.859-.491-1.228-.246-.491-.614-1.105-1.105-1.473h-.368c-.491.368 0 .982-.246 1.228-.491.368-.736 1.228-1.35.982-.737-.246-.737-1.228-1.105-1.842-.368.246-.491.491-.614.859-.246.736.736 1.719-.123 2.087-.245.123-.736-.245-.982-.491a4.045 4.045 0 0 1 0-1.718c.369-.982.491-1.964.859-2.946 0-.123.123-.491.123-.614.246-.737.491-1.596 1.105-2.087h.369v-.123c.492-.614 1.228-.982 1.351-1.718.123 0 0-.123-.123-.123.245-.123.245-.491.245-.614.368-.982.368-2.087.368-3.192-.736.123-1.227-.368-1.841-.246-.368.123-.736.614-.859.982v.368a3.744 3.744 0 0 0-.614.859c-.245.491-.245.859-.368 1.228-.123.859.246 1.719.246 2.578v.614c-.368.736-.491 1.228-.736 1.964-.123.736-.246 1.596-.86 1.964-.245 0-.245-.368-.245-.491-.491-1.35-.614-2.701-.736-4.051v-.246c-.737-4.911-1.351-9.575-1.719-14.486-.246-3.069-.859-6.015-1.228-8.961a31.804 31.804 0 0 1-.369-4.911c-.123-.491.491-.859.982-1.104.614-.246 1.473-.246 2.087 0 .859.368 1.104 1.35 1.35 2.21.123.368.246.859-.123 1.228.369.859.123 1.596.246 2.455v.123c.123.123.245.123.245.246.123.123 0 .245.123.368.123.246.491.491.491.737.245.859.368 1.596.982 2.333.123.245 0 .736.246.982 0 .123.245 0 .368 0 .368.368.245.982.123 1.228-.491.614-.368 1.228-.246 1.841 0 .368.491.246.737.368.491.246 0 .859.246 1.105s.368.491.736.614v.368c.982-.123 1.228-1.228 1.719-1.964.123-.123 0-.368 0-.491.368-.491.368-.982.736-1.473 0-.123-.123-.369 0-.492.491-.614.369-1.473.246-2.086-.246-1.351-.491-2.578-.859-3.683a15.002 15.002 0 0 0-.86-2.087c0-.123-.246-.123-.246-.368-.245-1.596-2.087-2.333-2.946-3.683-.737.123-1.105-.491-1.841-.614-.123 0-.491-.123-.614-.123-.491-.246-1.227-.246-1.719 0-.613.246-1.35.123-1.841.614-.859-.123-1.105-1.35-.982-2.087.123-.368.368-.614.491-.982.491-.614.982-1.228 1.596-1.719h.368c.246-.737.982-.737 1.474-1.105.245-.123.613 0 .736.246 1.105 1.351 2.087 2.701 3.56 3.438.982.368 1.596 1.596 2.701 1.35.246 0 .614.737.246.982 1.105 1.351 2.701 1.964 4.173 3.069.86.614 1.105 1.719 1.842 2.455 0 .246 0 .368.123.614.245.368.736.736.859 1.105.123.368 0 .614.123.982 0 .123.123.246.246.123.245-.736.491-1.473.491-2.209.245-1.473-.123-3.069-1.105-4.296-.123-.123 0-.369-.123-.369-.246-.368-.246-.736-.491-1.104-.614-.982-1.842-1.228-2.456-2.21-.491-.614-1.104-.614-1.596-1.104-.123 0-.369-.246-.491-.246-.614-.737-1.473-1.105-2.209-1.719-.123-.123-.369 0-.491 0-.123-.123-.123-.246-.246-.368-.736-.614-1.719-.982-2.578-1.351-.246-.123-.614-.123-.859-.123-1.351-.369-2.701.123-3.683.982-.859.614-1.718.982-2.333 1.719h-.368c-.614-.859.246-1.719.614-2.455.123-.123 0-.368.123-.368.246-.123.368-.369.614-.614.491-.368.736-.859 1.35-1.104.368-.246.737.491 1.351.245 0 .369.368.246.491.369 1.719.246 3.438-.614 5.156-.246 1.596.368 3.069.736 4.174 1.964.614.614 1.228 1.105 2.087 1.474.368-.982-.368-2.087-.737-2.946-.123-.369-.123-.614-.368-.982v-.246c-.246-.368-.614-.614-.982-.859 0-.123-.368 0-.368-.123-1.105-.859-2.455-1.228-3.683-1.841-1.227-.614-2.578 0-3.805.368-.982.368-1.964.859-2.701 1.473-.123.123-.369 0-.492.123-.859.981-1.841 1.718-2.578 2.823-.246.368-.491.736-.859.982-.246.123-.491-.123-.614-.368-.123 0 0-.246-.123-.368-.123-.491-.491-.859-.737-1.351 0-.246-.246-.491-.368-.737-.123-.123 0-.245-.123-.368-1.35-1.35-2.823-2.455-4.91-2.823-1.473-.246-2.701 0-4.051.614a3.852 3.852 0 0 0-1.351 1.105c-.368.368-.859.491-1.104.982-.737 1.473-1.474 2.946-2.333 4.419-.368.614.368.859.859 1.228v-.368c.246-.614.737-.736 1.228-.859 0-1.228 1.228-1.719 1.841-2.455.123.123.369.245.369.491.491 0 .859-.369 1.35-.491 1.719-.246 3.314-.491 5.033-.737.614.491 1.596.123 2.333.614.123.123.368 0 .368.123.982.982 1.351 2.333 1.842 3.56.123.491 0 1.351-.614.982-1.105-.614-1.841-1.719-3.069-1.841-.123 0-.246-.246-.368-.246-1.35-.123-2.701-.246-4.051.123-1.104.123-1.964.736-2.823 1.35-.982.614-1.719 1.228-2.333 2.21v.368l-.368.369c-.123.491-.246.859-.246 1.35 0 .123-.246.246-.246.368-.123.246 0 .491-.123.737-.246.491-.246.982-.614 1.473-.123.123 0 .491 0 .614-.245.614-.368 1.105-.613 1.596 0 .245 0 .368-.123.491-.368 1.473-.736 2.824-.614 4.296.123 1.473.369 2.824.737 4.297 0 .123 0 .368.245.614.123 0 0 .246 0 .369.246.368.368.736.368 1.104.246.737.737 1.105 1.105 1.841 0 .123.246.246.246.123.246-.368-.246-.736-.123-.981.123-.246.246-.491.491-.368 0-.492.123-.86.369-1.351.123-.123 0-.368.123-.491s.123-.368.246-.491c.123-.491-.123-.982-.123-1.473.123-.246.613-.491.859-.859.123-.368-.123-.737 0-.982s.368-.368.491-.614v-.368c.123-.123.368-.246.368-.369v-.491c.491-.737.614-1.841 0-2.455.369-.368.859-.368 1.105-.737 0-.123-.123-.246 0-.368.123 0 .123-.123.245-.246.246-.491.369-.982.369-1.473-.123-.368-.369-.736-.246-1.104 0-.246.368 0 .491-.369.123-.982.368-1.841.982-2.701.123-.123 0-.368.123-.491.246-.368.859-.614.859-1.104.246-.737.246-1.351.491-2.087.123-.246.491-.491.737-.614s.491-.123.736-.123c1.228 0 2.209.737 3.314 1.473.368.368.614.736.491 1.228-.859.368-1.841.614-2.578 1.351-.859.736-1.473 1.841-1.964 2.946-.123.123 0 .368 0 .491-.246.123-.246.368-.246.613a2.074 2.074 0 0 0-.369 1.228c0 .246 0 .491-.123.736-.123 2.946 0 5.77.246 8.716 0 .123.123.245.246.245.246.246.368.246.614.491.123.368-.246.982.123.982.246.123.368-.246.614-.368.123-.123.369 0 .491-.123.491-.614-.246-1.842.736-2.21 0-.982-.368-1.964-.123-2.823 0-.246.246-.246.368-.614.123-.123 0-.245-.123-.368.737-.491.491-1.351.368-2.087.491-.245.982-.123 1.35-.491.123-.123 0-.246.123-.368.245-.246.368-.614.368-.982.123-.368.123-.736.123-1.105.246-.614.982-.614 1.351-.368.368.368.368.982.368 1.473v.123c.491 6.261 1.473 12.399 1.596 18.783 0 .123-.246.246-.246.246-.614-.246-.859-.859-1.105-1.351-.123-.491-.368-.859-.614-1.228-.859-.737-1.841-1.842-3.192-1.719-.491 0-.368.736-.245 1.105.245.491.736.614 1.104.982.491.368.614.982 1.105 1.351.123.123 0 .245 0 .368.246 0 .369.123.369.246.368 1.105.736 2.455-.123 3.437-.369-.368-.369-1.104-.982-1.351-.368-.123-.736.246-1.228.123-.736.737-1.473 1.596-2.087 2.578-.245.246-.613.614-.859.982v.368c-.491.491-.737 1.105-.86 1.719-.123.246-.245.246-.368.369v.368l-.368.368v.368c-.491.491-1.104.737-1.719.737-.368 0-.368-.492-.368-.492.246-1.718.491-3.314.491-4.787.123-1.596 0-3.069-.246-4.665-.123-.491-.737-.491-1.105-.245-.491.245-.859.859-1.105 1.473-.123.246 0 .491 0 .736-.368.614-.491 1.228-.614 1.964 0 .123-.123.368-.245.491v.246c-.246.614-.246 1.473-.736 2.087-.982-.368-1.105-1.473-1.719-2.087 0-.123-.123-.123-.123-.246 0 0-.246 0-.246-.123-.123-.123 0-.368-.123-.368-.246-.368-.491-.614-.859-.982-.123-.123-.246-.491-.368-.614-.614-.614-1.351-1.473-2.456-1.228-.368 1.105.123 2.333.246 3.56 0-.123.123-.123.123 0 .123 0 .123 0 .123.123.123.368.123.613.369.859.123.123 0 .246.123.368 0 .123.246.246.246.369.123.123 0 .245 0 .368.123.245.491.368.491.491.246.368.491.613.614.982.123.614.491 1.104.859 1.719.123.246-.245.491-.368.491-1.105-.368-2.701-.613-2.946-1.964-1.473-1.228-2.578-2.578-4.174-3.806h-.246v-.123c-.368-.368-.859-.614-1.35-.736-.491-.123-1.228-.368-1.474.245 0 .246-.123.369-.123.614 0 .859.369 1.596.859 2.332 0 .123.246.123.246.246.859 2.086 2.333 3.805 3.928 5.524v.369c.491.491.859 1.104 1.35 1.596-.491.49-.859-.246-1.35-.369-.369 0-.737-.246-1.105-.246-1.228-.122-.368 1.105-.123 1.842-.614.615-1.596.246-2.333.736v.492c1.228 1.227 2.701 2.086 4.419 2.578.123 0 .368 0 .614.244 0 .123.368 0 .491 0 .368.246.736.246.982.492.982.49 2.209 1.104 1.841 2.332-.368.859-1.228 1.105-1.964 1.596h-.369c-.123.613-.491 1.352-.859 1.719-.369.369-.982-.123-.614-.613.368-.615.614-.982.982-1.596-.737-.615-1.228.736-1.964.736 0 .49-.246 1.105-.737 1.35a.675.675 0 0 1-.613-.367c-.123-.123-.123-.246 0-.369 0-.123.245-.123.245-.369.123 0 0-.244 0-.244.123-.246.246-.246.368-.246-.123-.859.859-1.719.246-2.701-.368.246-.614.736-.982.859-.491.123-.859-.367-.982-.859-.123-.49-.123-.98-.614-1.35-.491 1.105.368 2.455-.737 3.438-.123 0 0 .367-.123.367-.614.859-.982 1.598-.982 2.578-.613.246-1.104.369-1.596.736-.245.123-.368.738-.368.738h129.266c-.004-.004.242-.127.119-.25zm-25.289-82.986c.246 0 .246.246.123.491 0 .123-.123.246-.244.123-.369 0-.738-.246-.738-.491.123-.369.615-.123.859-.123zm-5.033 2.823c.123.123.246.613-.121.613-.246 0-.615-.245-.615-.491s.615-.613.736-.122zm-.49 3.929c.369-.123.736-.123.859.246.123.123.123.245 0 .368a.63.63 0 0 1-1.105-.123c-.123-.246.123-.491.246-.491zm-3.807.245c.246-.369.615-.859 1.229-.982.49-.245.613-.736 1.229-.859.49-.123.98.491.857.982-.121.245-.49.614-.736.736-.367.123-.736.491-1.104.614-.369.245-.859.123-1.352-.123-.123 0-.244-.245-.123-.368zm-.736-9.33c.246.123.369.491.246.859-.123.491-.367.859-.982.859-.613.246-.613-.368-.613-.736-.124-.614.736-1.104 1.349-.982zm-26.026.86c-.121-.123-.121-.246 0-.368 0-.123.246-.368.246-.246.492.123.982.246 1.105.737s-.123.614-.369.736c-.489.123-.735-.491-.982-.859zm2.456 13.749c-.367.491-.98.491-1.227 0-.246-.491-.49-1.104-.49-1.719 0-.123.367-.491.49-.491.49.246.859.982 1.105 1.596.122.245.245.491.122.614zm.982-1.35c-.121.123-.121-.123-.244-.123-.615-.614-1.229-1.105-.982-1.842.123-.736.736 0 1.227 0 .246 0 .246.246.246.369h.369c.736.491-.124 1.227-.616 1.596zm2.947 12.398c-.736-.368-1.596-1.596-.736-2.087.736-.246.613 1.104.982 1.596-.246 0-.123.491-.246.491zm-.246-11.293c0 .123-.367.368-.49.491h-.369c-.367.369-.736.614-1.227.491-.123 0-.246-.123-.123-.246.244-.368.367-.736.613-.982.123 0 0-.246 0-.369.369-.245.49-.613.736-.859v-.368c0-.245.369 0 .369-.368.123-.123.367-.491.49-.368.246 0 .369.368.492.614.368.613-.491 1.227-.491 1.964zm12.031 3.805c.246.859-.615 1.105-.982 1.596-.736-.123-1.473.245-2.209-.123.121-.368.244-.736.49-1.104.123 0 0-.246.123-.369.367-.614.859-.982 1.719-.982.736 0 .736.491.859.982zm-2.578-3.437c.367-.614 1.105-.246 1.719-.123.367 0 .736.491.367.859-.49.491-.98.859-1.596.614-.49-.246-.736-.859-.49-1.35zm-1.595-7.243c.49-.245 1.104.123 1.35.614s-.123.736-.49 1.104c-.736.614-1.352-.123-1.473-.736-.124-.368.243-.859.613-.982zm-4.42 9.453v-.492c0-.123 0-.123.123-.246.123 0 .246.123.367.246.123.492.615.982.123 1.351-.123-.246-.49-.246-.613-.491-.123-.123 0-.246 0-.368zm-1.106 7.488c.123-.491.982-.614.982-.859h.123c.123-.246.49-.491.613-.737.123-.123 0-.246 0-.368.982-1.105.492-2.701.369-3.928.982-.614 2.332 0 2.824-1.228.49 0 .613.491.49.859 0 .123-.246.246-.246.369-.123.123 0 .368-.123.491-.367.614-.244 1.228-.49 1.841 0 .123-.123.246-.369.123 0 .245.123.368 0 .614-.367.491-.613 1.105-.736 1.718 0 .123-.244.246-.244.369-.123 1.105-.369 2.087-.369 3.192-.49.368-.246.982-.736 1.35l-.736.368c-.123.123-.246 0-.246-.123h-.123c0-.123-.246-.246-.246-.368-.121-.491-.244-.859-.367-1.228-.001-.859-.614-1.596-.37-2.455zm-7.242 45.666c-.123.123-.246.246-.369.123-.244-.123-.613-.245-.49-.613 0-.246.369-.491.49-.491.369-.001.369.613.369.981zM89.381 75.223c.246-.859.982-1.105 1.718-1.105.123-.123.368.246.491.368.123.123 0 .369 0 .369 1.964 1.104 0 2.823-.736 4.051a.265.265 0 0 1-.246.246c-.614-.491-1.228-1.228-.982-1.964 0-.369.368-.737.245-1.105-.245-.247-.613-.492-.49-.86zm-2.21-2.21c.491-.123.859-.123 1.104.245.123.368-.123.614-.246.859-.368.614-1.351 0-1.228-.491.002-.122.002-.49.37-.613zm-.982-1.473c0-.123.123-.368.368-.368l.123.123c0 .245.123.491-.123.491s-.491-.001-.368-.246zm-5.156 11.171c.86-.123 1.596-.246 2.456 0-.246-.982.491-1.228.859-1.964.123-.245.123-.491-.123-.736-.491-.368-.491-.982-.736-1.351-.123-.245-.369-.368-.491-.614-.246-.736 0-1.228.491-1.719.368-.368.982-.491 1.228-.982.737.246 1.35-.123 2.087-.123.369.123.491.491.369.859 0 .123-.123.369-.369.369-.123.123-.491 0-.614 0-.859.614-.982 1.718-.368 2.455.613 0 1.105-.368 1.719-.368.245 0 .491-.369.736-.369.982-.368 1.473 1.228 1.473 1.965.123 1.718-.123 3.683-.123 5.646 0 .246-.737-.491-.982-.613-1.104-.86-2.21-1.474-3.069-2.456-1.841-.368-3.437 2.087-4.911 2.824v-1.105c-.123-.736 0-1.227.368-1.718zm-35.969 18.537c-.123.246-.368.367-.491.49s-.368.123-.368 0c-1.228-.859-2.456-1.719-3.069-3.191 0 0 .246-.246.369-.123.859.736 1.718.982 2.701 1.596.246.246.246.369.491.492.367.246.49.49.367.736zm.491-3.684s-.123-.123-.123-.244c-.369 0-.859-.615-.369-.86.615-.245.983.614.492 1.104zm1.965 7.612c-.123 0-.246-.123-.368-.246-.369-.367-.737-.613-.982-1.104a.734.734 0 0 1 .369-.982c.614.49.736 1.227 1.228 1.965-.002.121-.125.244-.247.367zm10.434-5.77c-.368.613-.614 1.352-1.351 1.105v.367c0 .859-.614.615-.859.859.245.736.123 1.352-.614 1.719v.246c.614.367.982.859.491 1.473-.246.246-.736.492-.982.859-.246-.246-.491-.613-.491-.859-.123-1.473 0-2.945.737-4.297.123-.244.245-.244.491-.49.614-.492 1.351-.982 2.087-1.473.123.245.737.245.491.491zm2.333 7.121c-.246 0-.246-.246-.123-.492 0-.123.123-.246.246-.123.246 0 .368.246.368.246-.001.613-.369.369-.491.369zm0-7.611c-.368.123-.736.613-.982.49-.614-.246-1.105-.859-.982-1.473.123-.123.246-.246.368-.246-.123-.367.368-.367.614-.49s.491.123.859.123c.123.121.123.244.123.367h.368c.368.37.245 1.229-.368 1.229zm1.227 6.014c-.123.123-.246.246-.368.246-.123-.123-.246-.246-.123-.367 0-.123.123-.246.368-.123.123 0 .246.123.123.244zm.368-2.086c-.123.246-.491.369-.736.369-.123 0-.246-.246-.123-.369 0-.123.123-.246.368-.246.123.123.491 0 .491.246zm1.105-4.543c-.123 0-.246-.367-.368-.367 0-.123.123-.246.123-.246.736 0 .491.736.245.613zm-.613-4.174c-.246 0-.491-.491-.246-.859.123-.368.368-.736.246-.981-.368-.86-1.351-.614-1.964-.123 0 .123-.246 0-.246.123-.368.245-.859.491-1.228.491-.736.859-1.719 1.596-2.578 2.455h-.368c-.123.123-.123.246-.368.369 0 0-.123-.123-.123-.246.123-.368.369-.736.369-1.228.123-.245.368-.736.614-.982 1.719-1.105 3.314-2.209 4.296-3.928.369-.737.614-1.473.859-2.087v-.123c.246-.491.246-1.35.859-1.596.123-.123.123.368.246.491 0 .368.123.736.246 1.228.246.736.368 1.596.246 2.455-.001 1.473 1.104 3.928-.86 4.541zm6.997 5.525c-.614-.369-.736-1.229-.246-1.596.492-.246.86.123.86.49 0 .493-.123 1.35-.614 1.106zm5.647 5.647c-.123.123-.246.123-.369 0-.368-.369-.859-.613-.737-1.229 0-.49.246-.857.614-1.227.246-.123.736 0 .736.369.124.737.369 1.597-.244 2.087zm2.455-.369c-.123.123-.123.369-.246.369-.123.123-.246 0-.246-.123-.123-.246-.123-.367 0-.49 0-.246.123-.369.246-.246.246.123.368.246.368.369l-.122.121zm1.596 2.578c-.123.123-.246.246-.368.123-1.105-.736-.737-1.842 0-2.578.123-.123.368 0 .368.123 0 .246.246.369.246.736-.124.492-.001.983-.246 1.596zm-.246-8.225c.368.123.123.613.368.736-.246.369-.614.369-.982.369 0 .123-.246.246-.123.369.123.736.246 1.473 0 2.086-.245.49-1.104.246-1.227-.246-.246-.613-.246-1.84.736-1.84.123-1.105-.123-2.211-.123-3.193-.368-.244-.737-.367-.737-.736v-2.086c0-.491.369-.859.859-.737.614 0 1.35.123 1.841.491v3.438c-.121.613-.366 1.105-.612 1.349zm3.07 7.612c-.492-.123-.982 0-1.228-.49-.123-.246 0-.615 0-.859 0-.123.123-.246.368-.246l.368.369c.246.244.369.613.614.98.123-.001 0 .246-.122.246zm.858.736c0 .123-.123.123-.123.123-.368.123-.368-.369-.614-.49.123-.123.246-.246.368-.123.247.123.493.244.369.49zm6.261 0c-.614.123-1.104-.123-1.473-.613-.246-.369-.246-.859.245-1.105.246-.123.614.123.859.246s.491.369.614.613c.246.369.124.736-.245.859zm-.859-2.822c-.123-.615.614-.615.982-.369.123.123.246.246.123.369-.246.49-.491.367-.859.367-.123-.123-.246-.246-.246-.367zm1.35-2.825c-.123.123-.368.246-.491.123-.368-.246-.736-.369-1.104-.736v-.246c-.246-.367-.491-.49-.736-.736h-.246c-.246.613-.123 1.35-.737 1.596-.736-.613-1.596-1.719-2.578-1.227 0 .736.491 1.963-.368 2.209-.614.246-1.473-.123-2.21 0-.123 0-.368-.246-.368-.246.123-.736.368-1.35.491-1.963.123-.123.245-.246.368-.246.123-.615-.246-1.229-.368-1.965-.368.123-.491-.246-.614-.49v-3.806c.491 0 1.473-.737 2.209-.491.491.123.982.368 1.473.123.369-.123.737-.246 1.228-.246 1.473.246 3.437-.123 3.928.859.001 0 .369 6.262.123 7.488zm2.702 3.315c-.492.123-.369-.369-.614-.49 0-.123.123-.246.246-.369h.369c.123.123.123.246.123.369-.002.244.121.367-.124.49zm-.738-3.438c-.123.246.246.736-.245.982-.123.123-.246 0-.246-.123-.123-2.945-.491-5.646-.123-8.593.123-.368.245-.491.491-.614.368-.123.86-.123 1.351.246v5.401c0 .369-.982.246-.614.859.123.246.491.492.614.738.246.858-.737.614-1.228 1.104zm3.193 4.051l-.369-.367c0-.123.123-.123.123-.246.246 0 .368.123.368.246s-.122.244-.122.367zm3.682-.244l-.123-.123c-.121-.246 0-.369.123-.369s.123.123.123.123c0 .123 0 .246-.123.369zm2.701 1.473c-.736.859-.982.123-1.229-.123-.244-.246-.121-.736.369-.982h.246c.244.123.367.492.613.736.001-.001.001.246.001.369zM127.682 75.1c.246.368 0 .859-.49 1.227a.265.265 0 0 1-.246-.246c-.123-.368-.123-.736 0-.981.122-.491.613-.491.736 0zm-17.186 2.455c0-.246.244-.491.49-.491.613-.123 1.229 0 1.719-.614h.369l.367.368v.369c.982.245 1.965-.123 2.947-.246.49-.123.613-.982 1.104-.859 1.229.246 2.211-.736 3.314-.245.492.123.982.368 1.475.614.244.246.244.368.49.614s.613.491.736.982c0 .369.369.491.492.737.121.123 0 .245 0 .368.121.123.244.246.367.368v.246c.982 1.473 1.229 3.192 1.229 4.788 0 .123-.246.614-.492.368-.49-.491-1.227-.859-1.596-1.473-.244-.369-.736-.491-1.105-.737-.121-.123-.367 0-.49-.123a5.743 5.743 0 0 1-1.227-.614c-.123-.123-.369 0-.492 0-.246-.245-.49-.245-.613-.245-1.473-.491-2.947-.614-4.42-.491-1.596.245-3.068.736-4.664.736v-4.42zm-6.875 21.605c0 .123-.123.246-.246.123-.613-.123-.859-.736-.736-1.227 0-.123.246-.246.369-.246.613-.122.613.86.613 1.35zm-1.105 4.543c0-.369-.246-.736 0-1.229.123-.123.123-.49.246-.49.613.367.613 1.473 0 1.965a.265.265 0 0 1-.246-.246zm.982 4.051c-.49-.123-.49-.736-.246-.982.369-.367 0-.982.492-.982.49-.121.49.492.613.982.123.492-.369 1.105-.859.982zm1.965-10.313c.367-.613 1.104.123 1.35.492-.123 0-.123.123-.123.367 0 .492-.613.492-.859.859-.86-.489-.737-1.102-.368-1.718zm1.226 7.735h-.49c-.492-.613-.123-1.596-.736-2.209.367-.369.859.123.982.367.121.123 0 .369.121.369.37.367.493 1.106.123 1.473zm.493-12.03c-.615.491-1.352.123-1.475-.614-.121 0 .123-.245.246-.245.613.123.859-.369 1.473-.123.492.123.246.613-.244.982zm.244-5.524c-.49.123-.49-.246-.736-.368l.123-.123.369-.369c.121-.123.244 0 .367 0s.369.246.369.369l-.492.491zm5.648 18.782c-.246.613-.859.244-1.229 0-.367-.492-.982-.982-.736-1.596.246-.492.859 0 .982.244.367.246.859.492.982.982l.001.37zm.123-2.578c-.246 0-1.598-.859-1.598-.859s.246-.492.123-.859c-.123-.123 2.088-.246 2.088-.246s-.122 1.841-.613 1.964zm1.227-4.787s-2.701-.246-2.701-.369c-.123-.49.613-1.473.982-1.596.613-.123.859-.246 1.229-.736v-.369c.121-.123.367-.246.367-.368 0-.369.123-.614.246-.982.246-.491.123-.982.613-1.351h.369c.982.737.367 1.842.367 2.824 0 .246-.244.368-.367.613-.123.615-1.105 2.334-1.105 2.334zm2.701 7.242c-.246.123-.369.49-.492.613-.244.123-.613.123-.736-.123 0-1.227-.367-2.578.492-3.559.367.244.49.613.736.857.123.123 0 .369 0 .492.367.615.49 1.228 0 1.72zm1.473-6.385c-.246.615.246 1.598-.613 2.088-.369-.369-.859-1.473-.859-1.473s.123-2.211.49-3.191c.369.244.859.367.859.736 0 .614.492 1.104.123 1.84zm3.314 7.245c-.49.123-.613-.246-.613-.369-.123-.244-.246-.736.123-.613.244 0 .49.369.613.736 0 .123 0 .123-.123.246zm3.068-10.803c-.367-.369-.613-.86-.859-.492-.613.614-.49 1.595-.613 2.578 0 .123-.244.246-.367.123a.964.964 0 0 1-.492-.49c-.123-.123 0-.246 0-.369-.123-.123-.367-.246-.367-.367-.123-.123 0-.492 0-.615-.246-.49-.369-.859-.369-1.35 0-.123-.246-.123-.367-.245v-.614c-.369-.491-.369-1.104-.615-1.718 0-.123-.123-.246-.244-.368v-.369c-.369-.123-.123.369-.369.369-.123.982.49 1.964 0 2.946-.123-.123-.246-.123-.369-.245-.244-.859-.367-1.596-.613-2.333-.367-.86-.367-1.841.246-2.578.123 0 0-.368.123-.368.49-.614.123-1.473.613-2.087-.613-.123-.982.368-1.473.736-.123.123-.246 0-.246-.123-.123-.491-.367-.859-.613-1.228-.246-.491-.615-.859-.982-1.228-.613.123-.369.982-.982.982v.246c-.367.614.246 1.104.736 1.596v.246c.369.491.859.737.982 1.105.246.491.246 1.104-.246 1.473v.368c-.123.123-.244.123-.367.369v.245c0 .368-.492.123-.492.368-.49-.859-1.104-.245-1.596-.245-.367 0-.613-.123-.982-.368-.121-.123-.49 0-.613-.246-.49.491-1.473 0-1.719.737-.244.491-.123 1.105-.613 1.35-.123.123-.246 0-.369-.123-.244-1.228-.859-2.824.246-3.683.613.123 1.842.737 2.088-.368 0-.368-.246-.736-.369-1.104-.123-.614.369-1.351 0-1.719v-.123c-.246-.246-.49 0-.859.123h-.246l-.121-.123c-.369-.246-.982-.614-.615-1.104.369-.736 1.229-.982 1.965-.859 1.35.368 2.578-.123 3.805-.246.123 0 .123-.246.369-.369.613-.123 1.35.246 2.086-.123.615-.246.982-.982 1.598-.859 1.227.368 2.086 1.228 2.822 2.455v.245c.123.246.246.614.492.737v.492c.121.246.367.246.367.491.246.614.49 1.351.736 2.087.123.737.246 1.351.246 2.087.243 1.471.243 2.944-.373 4.295zm8.963 11.785c-.123.49-.615.49-.859 0-.246-.246-.369-.615-.492-.859-.123-.492-.49-1.229.123-1.352.123 0 .492.246.736.492 0 .123-.123.244 0 .367.246.493.615.86.492 1.352zm.981-2.947c-.121.369-.613.246-.98.123-.246-.123-.246-.246-.492-.49-.123-.123-.244-.369-.244-.492a.265.265 0 0 1-.246-.246c-.246-.736 0-1.35.613-1.473.492-.123.859.246 1.105.615 0 .121-.123.244 0 .367.49.369.367.982.244 1.596zm1.105-2.824c0-.121-.244-.121-.244-.244-.246-.246-.369-.246-.492-.492-.246-.367-.613-.613-.49-1.104.121-.123.244-.246.367-.123 0-.982-.123-2.209-1.227-2.701-.492.369-.369 1.105-.736 1.229-.859.123-1.475-.982-2.334-1.352-.121-.123-.367 0-.613 0 0 .369.492.492.613.859.123.123 0 .246.123.369.246.367 1.105.859.492 1.35-.369.246-.246-.367-.615-.49-.49-.246-.982-.492-1.473-.123-.246.246-.367.613-.736.613.123.736 0 1.352-.246 1.965-.244.49-.736 0-.859-.369-.123-1.473-.244-3.191.736-4.418 0-.86.246-1.597.859-2.333.123-.123 0-.245 0-.491-.244.123-.613.123-.613.369-.123.123-.123.368-.246.368-.49 0-.736.369-.859-.246-.244-.982.123-1.964.369-2.946.123-.368.123-.736.49-1.104v-.248c.615-1.105 1.596-1.964 2.701-2.333 1.473-.491 2.947.614 3.684 1.841 0 .123.244 0 .367.123.492.246.369.614.369 1.228.123.491.859.86 1.35 1.228h.369c.613.859 1.35 1.473 2.086 2.087.246 1.474 1.719 2.333 2.701 3.437.369.492 0 1.105.369 1.719.123.369-.492.492-.492.492-.859-.123-1.596-.615-1.963-1.352-.246-.49.49-.98.244-1.473h-.367c-.736.982-1.719.613-2.455.123-.123-.123-.369-.123-.615-.123.492.613 1.229 1.105 1.352 1.965-.492.859-.859 1.719-1.596 2.455-.124 0-.247.123-.37.245zm6.016 5.033c-.49.369-.859-.244-.859-.613-.246-1.227-1.35-1.596-2.086-2.332-.246-.123-.492 0-.738 0-.121 0-.244.246-.121.369.98 1.104 1.84 2.209 1.84 3.682 0 .123-.123.246-.244.369-.615.123-.982-.123-1.229-.492-.123-.244 0-.49-.123-.49-.123-.246-.123-.492-.244-.613-.123-.615-.492-1.229-.492-1.965.123-.123-.246-.246-.246-.369 0-.613-.121-1.227.123-1.963.369-.736.615-1.596 1.105-2.209.246-.246.49.121.613.244 1.596 1.229 2.578 2.947 3.438 4.666.245.612-.124 1.472-.737 1.716z" fill="#40824e"/><path d="M67.407 38.149c.736-.246 1.841-1.964 3.191-3.069.737-.614 1.228-.737 2.21-.737.123 0 .614-.246.859-.614.123-.246.123-.246.368-.368.368 0 .859-.246 1.228-.491l-.368-.368h-.859c-.368-.123-.736-.246-.736-.491-.246-.614.245-1.351 0-1.842-.123-.491-.246.246-.369.368-.491.491-.614 1.351-1.35 1.351-.737.123-1.596-.368-2.456-.614-.368-.123-.736-.368-1.227-.491.245.368.613.737.981.982.369.246 1.105.736 1.228.859.736.246 1.104.614.736 1.351-.368.614-1.35.982-1.719 1.228-.368.246-1.596 1.104-1.841 1.351-.368.246-1.596 1.228-1.596 1.228s.983.49 1.72.367zM164.143 109.35v.369c.121.244.49.367.736.367.49 0 .736-.244.736-.613 0-.123-.123-.369-.369-.369l-.613-.244c-.369-.123-.736-.369-.736-.736 0-.738.613-1.105 1.227-1.105.369 0 .615.123.859.246v.613h-.244v-.369a.938.938 0 0 0-.615-.244c-.367 0-.613.244-.613.613 0 .246.123.369.492.369l.49.244c.49.123.736.369.736.736 0 .736-.613 1.105-1.35 1.105-.369 0-.615 0-.982-.246.123-.244.123-.49.123-.736h.123zM170.525 109.596v.367c0 .123.123.123.246.123h.123v.246c-.123 0-.369-.123-.738-.123-.244 0-.49.123-.736.123l.123-.246h.123c.123 0 .123 0 .123-.123.123 0 .123-.121.123-.367v-1.842l-.982 1.965c-.123.244-.246.367-.246.613h-.244c0-.123 0-.246-.123-.369l-.982-2.209v2.209c0 .123 0 .123.123.123h.244v.246c-.244 0-.367-.123-.613-.123-.123 0-.246.123-.49.123v-.246h.244c.123 0 .123 0 .123-.123v-2.209-.369l-.123-.121h-.244v-.123h1.103c.123.123.246.49.369.736l.736 1.473.859-1.719c0-.123.123-.367.246-.49h.982v.123h-.123c-.123.121-.123.121-.246.121V109.596z" fill="#40824e"/></g></svg>