<svg xmlns="http://www.w3.org/2000/svg" width="2500" height="2500" viewBox="0 0 192.756 192.756"><g fill-rule="evenodd" clip-rule="evenodd"><path fill="#fff" d="M0 0h192.756v192.756H0V0z"/><path d="M177.998 113.68v-1.826h1.229c.613 0 1.273.136 1.273.864 0 .902-.66.962-1.438.962h-1.064zm1.08 5.48c2.789 0 5.174-2.165 5.174-5.127 0-2.938-2.385-5.102-5.174-5.102-2.812 0-5.197 2.163-5.197 5.102 0 2.962 2.385 5.127 5.197 5.127zm-4.162-5.127c0-2.427 1.826-4.244 4.162-4.244 2.312 0 4.146 1.817 4.146 4.244 0 2.464-1.834 4.272-4.146 4.272-2.336.001-4.162-1.808-4.162-4.272zm3.082.406h1.029l1.562 2.556h.992l-1.676-2.604c.867-.104 1.541-.562 1.541-1.621 0-1.164-.693-1.676-2.09-1.676H177.1v5.9h.896v-2.555h.002zM35.205 76.624v5.501h-8.96v30.74h8.613v6.056H20.182V76.624h15.023zM155.715 76.624v5.501h8.965v30.74h-8.61v6.056h14.666V76.624h-15.021z"/><path d="M35.429 102.281c0 2.6 1.174 3.329 3.016 3.329 1.843 0 3.017-.729 3.017-3.329v-1.569h4.616v.977c0 5.803-3.145 7.893-7.633 7.893-4.491 0-7.642-2.09-7.642-7.893v-8.404c0-5.807 3.151-7.896 7.642-7.896 4.489 0 7.633 2.089 7.633 7.896v.062h-4.616v-.646c0-2.609-1.174-3.333-3.017-3.333-1.842 0-3.016.725-3.016 3.333v9.58zM53.565 92.701c0-2.609 1.167-3.333 3.006-3.333 1.837 0 3.002.725 3.002 3.333v9.581c0 2.6-1.165 3.329-3.002 3.329-1.838 0-3.006-.729-3.006-3.329v-9.581zm-4.608 8.987c0 5.803 3.146 7.893 7.614 7.893 4.478 0 7.614-2.09 7.614-7.893v-8.404c0-5.807-3.137-7.896-7.614-7.896-4.468 0-7.614 2.089-7.614 7.896v8.404zM67.629 109.258V85.712h5.289l6.725 13.959h.072V85.712h4.415v23.546H79.5l-7.391-15.196h-.068v15.196h-4.412zM105.643 109.258V85.712h14.744v4.217h-9.832v5.178h7.287v4.209h-7.287v5.96h10.189v3.982h-15.101zM133.115 92.76l3.709-7.048h5.274l-6.237 11.154 6.844 12.392h-5.314l-4.276-8.316-4.273 8.316h-5.315l6.916-12.392-6.314-11.154h5.277l3.709 7.048zM161.18 85.712v4.217h-5.955v19.329h-4.967V89.929h-5.955v-4.217h16.877zM103.113 85.712v4.217h-5.951v19.329H92.19V89.929h-5.95v-4.217h16.873z"/></g></svg>