<svg xmlns="http://www.w3.org/2000/svg" width="2500" height="1258" viewBox="0 0 83.556 42.057"><path d="M43.218 0C33.939-.044 24.48 2.43 15.894 5.815H6.552v4.49H0V33.31h10.503c1.53 2.583 4.275 4.068 7.245 4.14l.819.009v4.599h46.422v-4.599c.459 0 .918 0 1.377-.027 2.771-.27 5.256-1.71 6.687-4.122h10.503V10.305h-6.552v-4.49l-8.163-.01C60.903 2.88 51.714.045 43.218 0z"/><path d="M43.578.361c-9.36-.117-18.963 2.394-27.621 5.813H6.912v4.491H.36V32.95h10.35c1.476 2.601 4.149 4.086 7.101 4.148h1.116v4.6h45.702v-4.6c.567 0 1.143.01 1.71-.026 2.736-.252 5.13-1.701 6.507-4.122h10.351V10.666h-6.553V6.174h-7.848C60.732 3.187 52.209.756 43.578.361z" fill="#fff"/><path d="M69.741 39.879a1.435 1.435 0 1 0-2.871 0 1.436 1.436 0 0 0 2.871 0z"/><path d="M82.116 11.746h-6.552V7.254h-6.966c-6.714-2.511-17.577-5.823-25.82-5.823-10.62 0-21.573 3.808-26.613 5.823H7.992v4.491H1.44V31.87h9.927a7.098 7.098 0 0 0 6.453 4.149h2.187v4.599h43.542v-4.599h2.178a7.103 7.103 0 0 0 6.462-4.149h9.927V11.746z"/><path d="M9.828 28.531c-1.341.378-1.863-1.17-.513-1.558 28.971-8.334 52.857-5.741 68.598-.09 1.313.468.72 1.917-.604 1.494-20.717-6.596-42.137-7.055-67.481.154zM55.746 20.773c-1.098-.045-.945-1.665.171-1.62 8.154.351 16.668 2.771 22.221 4.887 1.206.459.594 1.917-.611 1.476-6.607-2.386-14.383-4.455-21.781-4.743zM15.903 23.77c-.981.233-1.144-1.314-.271-1.513 8.694-2.124 17.991-3.24 26.505-3.456 1.251-.026 1.377 1.485.117 1.53-8.801.316-17.765 1.386-26.351 3.439zM8.667 24.552c.657.198 1.35.243 2.043.145.315-.054.621-.108.918-.198.945-.279 1.719-.756 2.232-1.323.459-.521.72-.954.846-1.296.162-.459.171-.819.081-1.098-.027-.1-.054-.18-.1-.261-.197-.307-.494-.414-.737-.343a.552.552 0 0 0-.315.243c-.117.162-.225.36-.333.576-.171.414-.288.621-.603.927-.378.369-.766.604-1.161.721-.963.287-1.953-.234-2.718-1.477a5.682 5.682 0 0 1-.459-.963c-.1-.27-.189-.531-.262-.765a7.469 7.469 0 0 1-.27-1.387c-.099-1.638.44-2.628 1.386-2.906.162-.045.315-.081.486-.081.792-.036 1.439.333 1.8.899l.243.369.018.027a.71.71 0 0 0 .388.252.937.937 0 0 0 .585.009c.314-.09.495-.36.449-.639a1.26 1.26 0 0 0-.071-.388c-.072-.252-.216-.585-.433-1.098l-.09-.198c-.045-.081-.126-.152-.297-.297-.207-.135-.594-.27-1.413-.378-.108-.009-.225-.027-.333-.036a5.4 5.4 0 0 0-1.917.216 5.658 5.658 0 0 0-.837.324c-2.583 1.305-3.636 4.05-2.979 6.517.586 1.955 1.909 3.322 3.853 3.907z" fill="#fff"/><path d="M16.155 19.981c.144 0 .278-.027.423-.055a2.12 2.12 0 0 0 .414-.09c1.521-.477 2.124-1.557 1.881-3.015-.252-1.458-1.179-2.269-2.754-2.224-.145 0-.279.019-.423.036a5.012 5.012 0 0 0-.414.1c-1.503.468-2.115 1.539-1.891 2.997.244 1.459 1.171 2.287 2.764 2.251zM34.668 16.912c.045.018.099.018.153.018l2.457-.152a.377.377 0 0 0 .333-.279.347.347 0 0 0 .018-.162.51.51 0 0 0-.162-.324c-.027-.009-.045-.026-.062-.036l-.027-.009-.018-.009c-.162-.09-.226-.189-.252-.468l-.009-.09-.081-1.296c-.026-.45-.009-.55.1-.621.09-.072.152-.081.207-.081h.009l.342.045c.153 0 .243-.009.324-.019.333-.09.495-.27.603-.666.019-.09.027-.171.036-.261l.019.072c.081.351.144.675.197 1.008.378 2.187.783 2.79 1.656 2.871l.153.018.314.019.243.009a.97.97 0 0 1-.207.432c-.225.252-.359.36-.485.36-.117-.009-.217-.081-.36-.216a.71.71 0 0 0-.468-.198c-.072 0-.145-.009-.243.009-.045 0-.081.019-.117.027-.279.108-.423.378-.432.648 0 .153.036.324.135.468.198.27.513.414.873.423.711.018 1.629-.478 2.34-1.629.315-.522.657-1.296.936-2.259a8.83 8.83 0 0 0 .27-1.206c.036-.198.054-.388.081-.604l.009-.144.019-.072c.018-.117.09-.198.207-.261l.045-.019.009-.009a.409.409 0 0 0 .207-.351.37.37 0 0 0-.019-.171.362.362 0 0 0-.342-.262l-1.332-.045c-.171 0-.314.09-.359.234a.57.57 0 0 0-.045.188.4.4 0 0 0 .216.352l.045.036c.144.099.225.243.216.621-.009.306-.081.756-.243 1.476a2.627 2.627 0 0 1-.108.45l-.009.018-.117.378-.036.108-.027.062c-.009.055-.036.09-.063.136-.018.036-.054.062-.09.062a.203.203 0 0 1-.126-.072c-.18-.197-.252-.396-.558-1.817a4.4 4.4 0 0 1-.108-1.08c.036-.207.09-.306.234-.369l.036-.027.009-.009a.379.379 0 0 0 .216-.351c0-.055-.009-.108-.018-.171a.39.39 0 0 0-.352-.262l-2.502-.071c-.18 0-.306.107-.359.278-.145-.081-.333-.117-.576-.099-.378.045-.567.171-.811.567l-.135.207-.062.099-.01-.18a.765.765 0 0 0-.054-.271c-.09-.225-.234-.333-.387-.324-.036.009-.063.019-.1.027l-1.602.675a.389.389 0 0 0-.117.072c-.099-.297-.207-.352-.521-.315l-.531.055-.117-1.18c-.036-.306-.144-.414-.576-.378-.107.009-.225.036-.369.063-.27.054-.432.252-.504.702-.071.423-.126.575-.233.701l-.036.045a.107.107 0 0 1-.063.045c-.126.126-.225.162-.468.216-.369.09-.504.288-.468.63a.493.493 0 0 0 .126.333c.108.099.216.144.27.135l.324-.027.306 3.069c.027.297.099.441.315.63.036.036.09.063.126.081.189.1.306.117.387.108l1.917-.189c.204-.013.348-.077.438-.175zM18.495 14.337a.433.433 0 0 0-.072.297.414.414 0 0 0 .171.307c.019.018.054.026.072.036l.027.018.018.009c.153.072.216.162.261.369.009.027.009.063.019.09l.135 1.936c.09.837.747 1.439 1.836 1.322.162-.018.324-.045.495-.09.432-.126.756-.333.99-.666.036-.045.054-.081.081-.126 0 .019.009.054.018.072.036.162.081.27.153.333.126.126.243.162.314.153l1.737-.181a.355.355 0 0 0 .27-.162.358.358 0 0 0 .279.072l2.43-.306c.126-.019.243-.145.279-.297a.984.984 0 0 0 .009-.162.436.436 0 0 0-.252-.342L27.72 17h-.009c-.135-.045-.126-.045-.162-.252l-.036-.216-.252-1.953c-.054-.432.027-.657.207-.756a.847.847 0 0 1 .162-.054c.207-.027.342.107.441.396.018.045.018.09.036.126l.027.234.009.071.072.369.019.136.026.242.045.36.045.405.027.314.018.108v.099l.019.171v.01a.316.316 0 0 1-.108.107l-.009.009-.036.019a.448.448 0 0 0-.153.405.426.426 0 0 0 .045.152.37.37 0 0 0 .387.207l2.349-.306c.171-.019.279-.145.324-.297a.513.513 0 0 0-.18-.478c-.019-.009-.036-.026-.072-.026l-.027-.01-.018-.009c-.171-.072-.252-.18-.288-.45l-.063-.521-.009-.045v-.126l-.117-.855c-.197-1.548-.773-2.15-1.998-2.105-.063 0-.117.009-.18.018-.639.081-1.116.45-1.358.972l-.036-.27v-.036l-.019-.072c-.117-.278-.278-.387-.549-.351l-1.638.783a.45.45 0 0 0-.198.162.427.427 0 0 0-.063.297.432.432 0 0 0 .189.306.145.145 0 0 0 .063.036l.026.018h.019c.162.072.216.145.261.352.018.045.018.072.027.107l.261 2.025c0 .018.009.054 0 .072-.019.27-.054.351-.18.44l-.045.027a.392.392 0 0 0-.09.108l-.026-.027c-.027-.009-.045-.027-.063-.036l-.027-.009-.018-.009c-.171-.072-.252-.189-.279-.459l-.314-3.069c-.036-.351-.045-.405-.09-.486-.108-.233-.252-.314-.504-.288l-1.863.766a.55.55 0 0 0-.189.162.447.447 0 0 0-.081.288.492.492 0 0 0 .181.315c.026.018.045.027.062.036l.027.018.036.01c.144.062.197.144.252.351 0 .045 0 .072.009.108l.135 1.305c.019.162.019.288.027.414v.072l-.019.09c0 .026 0 .054-.009.072-.036.216-.117.297-.314.342-.279.026-.388-.055-.45-.243l-.019-.063-.018-.081-.027-.18v-.027l-.207-2.664c-.026-.288-.045-.405-.09-.486-.107-.234-.243-.315-.504-.288l-1.854.774a.501.501 0 0 0-.2.154z" fill="#fff"/><path d="M44.649 18.829c-.045.324-.126.459-.333.567l-.072.045c-.216.116-.315.323-.324.566 0 .072.009.162.036.234.09.243.279.387.521.387l3.744.054a.564.564 0 0 0 .531-.368.78.78 0 0 0 .045-.252c0-.234-.099-.459-.306-.559l-.036-.036-.027-.009c-.216-.135-.297-.261-.324-.576v-.162l.036-3.032 2.367.026-.036 3.033c0 .063 0 .117-.018.162-.027.324-.108.45-.333.567l-.063.045h-.009a.614.614 0 0 0-.306.549c0 .072.009.162.036.252a.54.54 0 0 0 .521.387l3.727.054a.55.55 0 0 0 .53-.378.82.82 0 0 0 .045-.243c0-.234-.099-.459-.288-.567l-.045-.027-.035-.018c-.207-.135-.279-.252-.315-.576 0-.045-.009-.099-.009-.162L54 12.07c0-.055.018-.117.018-.162.036-.315.117-.45.324-.567l.072-.036h.009a.64.64 0 0 0 .306-.558.928.928 0 0 0-.035-.252.551.551 0 0 0-.522-.387l-3.726-.045a.542.542 0 0 0-.54.368.817.817 0 0 0-.036.252c-.009.216.099.459.288.558l.036.036.045.009c.216.135.288.252.314.576a.92.92 0 0 1 .009.162l-.026 2.195-2.367-.026.027-2.196v-.162c.045-.324.126-.459.342-.567l.072-.045a.632.632 0 0 0 .314-.566.705.705 0 0 0-.036-.234c-.09-.233-.278-.387-.521-.387l-3.744-.054a.56.56 0 0 0-.531.378.666.666 0 0 0-.045.233c0 .234.099.469.306.576l.036.027.036.018c.207.135.288.252.324.576-.009.036-.009.099-.009.153l-.09 6.731-.001.155z" fill="#fff"/><path d="M56.655 15.994c.018-.162 1.503.162 2.276-.234.396-.197.675-.63.721-1.098a1.496 1.496 0 0 0-.117-.702c-.216-.486-1.206-1.161-2.115-1.242a1.84 1.84 0 0 0-.504.019c-1.179.252-2.034.737-2.412 1.646a2.952 2.952 0 0 0-.234.909c-.116 1.386.819 2.628 2.583 2.781.405.036 1.773-.036 2.295-.657.09-.108.297-.396.315-.63.018-.162-.054-.315-.279-.378a.585.585 0 0 0-.351.054s-.684.441-.846.486c-.217.062-.405.081-.567.062-.405-.036-.666-.288-.765-.747-.018-.054 0-.269 0-.269zM62.73 15.697l-.414-.036-.207-.009c-.117-.009-.226-.019-.333-.019-.612 0-1.035.09-1.323.243a1.61 1.61 0 0 0-.828 1.17 1.64 1.64 0 0 0 .315 1.278c.243.306.621.549 1.044.647.323.045.621.063.891-.018l.036-.018.171-.063c.225-.09.279-.117.378-.216l.018.062.036.108.027.063.018.036a.554.554 0 0 0 .352.198l1.701.279a.36.36 0 0 0 .27-.063.377.377 0 0 0 .288.262l2.421.459a.383.383 0 0 0 .396-.181.555.555 0 0 0 .054-.152.49.49 0 0 0-.081-.36c-.018-.018-.036-.036-.045-.054l-.027-.01-.018-.018c-.135-.126-.171-.234-.126-.522l.009-.081.243-1.269c.081-.45.126-.54.252-.585a.358.358 0 0 1 .225-.027h.009l.315.126c.153.045.234.055.315.072.288-.009.477-.099.647-.333.019.009.027.019.045.019l.315.071-.648 3.016c-.062.288-.036.449.108.692.027.055.072.09.099.117.153.153.252.207.333.225l1.881.405c.378.081.595-.036.676-.333.054-.27.009-.477-.181-.594-.036-.018-.072-.045-.117-.054-.368-.072-.449-.117-.504-.288a.472.472 0 0 1-.009-.243l.531-2.475.567.117c.261.055.432-.045.54-.323.019-.091.036-.189.045-.271 0-.315-.081-.396-.396-.459l-.522-.117.243-1.151c.072-.297-.009-.45-.423-.54a8.842 8.842 0 0 0-.378-.055c-.27-.026-.477.108-.693.522-.197.378-.287.504-.432.594l-.054.027c-.027.018-.045.026-.072.026-.162.081-.27.091-.513.063-.081 0-.162 0-.226.009-.081-.369-.323-.558-.747-.639-.378-.054-.594.026-.927.351l-.18.171-.081.081.027-.18a.643.643 0 0 0 .018-.279c-.027-.233-.144-.378-.288-.404-.036-.01-.072 0-.108 0l-1.719.252a.658.658 0 0 0-.243.099.39.39 0 0 0-.152.261.417.417 0 0 0 .081.342c.009.027.036.045.054.055l.027.026.009.019c.135.107.162.198.144.414 0 .036-.009.072-.009.099l-.378 2.007c-.009.036-.018.081-.027.108-.062.198-.135.27-.288.333l-.045.009a.664.664 0 0 0-.107.063.83.83 0 0 0-.072-.153l-.054-.054-.019-.01-.026-.018c-.198-.171-.181-.225-.01-1.323.01-.09.027-.162.036-.243l.162-.98c.135-.801-.045-1.278-.666-1.764-.27-.198-.603-.324-1.358-.441-.081-.018-.162-.018-.234-.027l-.216-.026-.198-.01c-.081-.009-.171-.009-.252-.009-.981-.018-1.287.09-1.512.378a.78.78 0 0 0-.189.388.694.694 0 0 0 .352.729c.045.018.099.045.144.054.072.027.135.045.198.055.27.045.486-.036.702-.216l.144-.126.054-.045.145-.126.036-.026c.026-.009.054-.045.081-.055.099-.054.18-.045.359-.018.207.099.262.198.262.531 0 .09-.019.171-.027.288a.242.242 0 0 1-.027.099l-.12-.009zM74.385 14.301c-.09.072-.144.153-.171.271s-.009.243.063.351c.009.019.035.036.054.054l.018.027.019.009c.126.117.152.207.126.414a.265.265 0 0 1-.019.1l-1.098 4.607a.212.212 0 0 1-.027.1c-.071.197-.144.27-.297.323l-.045.01h-.009a.44.44 0 0 0-.288.323.39.39 0 0 0 0 .145c.018.188.117.297.18.314l2.403.567c.162.045.306-.027.396-.162a.296.296 0 0 0 .063-.144.402.402 0 0 0-.108-.414l-.045-.036c-.018-.027-.036-.081-.036-.216-.018-.072-.009-.117.036-.279l.495-2.097c.009-.036.019-.081.036-.117.126-.351.297-.495.612-.423a.464.464 0 0 1 .252.423c.009.045-.009.099-.019.153l-.54 2.259-.045.207c-.045.171-.062.198-.18.233l-.036.019-.018-.009a.453.453 0 0 0-.288.323c-.009.055-.009.108-.009.162a.395.395 0 0 0 .288.324l2.295.54a.384.384 0 0 0 .404-.162.502.502 0 0 0 .072-.162.507.507 0 0 0-.062-.342c-.019-.009-.036-.036-.055-.054l-.026-.019-.019-.018c-.162-.153-.162-.271-.027-.819l.351-1.503c.297-1.242-.162-2.187-1.396-2.475a2.132 2.132 0 0 0-1.179.117.412.412 0 0 0-.117.072l.531-2.259c.099-.414.108-.432.063-.612-.036-.162-.136-.252-.36-.306l-1.998.099a.586.586 0 0 0-.24.082z" fill="#fff"/><path d="M15.435 17.398c-.144-.847-.116-1.233-.009-1.477.1-.233.252-.351.423-.378.181-.036.36.036.522.225.144.162.279.441.396 1.044.036.152.063.306.081.44.136.756.1 1.161 0 1.404-.09.216-.252.351-.414.378-.18.027-.369-.045-.53-.225-.181-.205-.334-.574-.469-1.411zM34.83 15.733c-.009.216-.063.306-.189.396l-.045.027h-.009a.369.369 0 0 0-.171-.1c-.036 0-.09-.009-.135-.009-.369.036-.459.027-.559-.117a.509.509 0 0 1-.09-.225l-.252-2.529.585-.062a.452.452 0 0 0 .297-.126l.063.062c.026.027.054.027.072.045l.027.019.019.009c.152.072.207.153.242.36.01.045.01.071.01.107l.135 2.043v.1zM56.619 15.138s0-.152.018-.351c.027-.378.145-.954.495-1.035.072-.018.145-.018.207-.018.207.018.36.162.351.432-.09.991-1.071.972-1.071.972zM62.721 16.534l-.026.18-.019.18-.009.045-.045.216-.054.314-.01.036c-.009.036-.009.054-.026.081a.744.744 0 0 1-.189.243c-.135.108-.233.162-.351.162-.333-.054-.468-.261-.405-.604.009-.062.027-.135.054-.207a.888.888 0 0 1 .433-.549c.135-.072.233-.099.459-.099l.152-.009.036.011z"/><path d="M28.125 36.271c-.036.359-.117.504-.324.63l-.081.045c-.216.135-.314.359-.314.63 0 .081.009.18.036.261.09.252.288.414.54.414h3.798c.243 0 .44-.162.54-.414a.943.943 0 0 0 .036-.279c0-.252-.108-.494-.315-.611l-.036-.027-.027-.018c-.225-.145-.306-.271-.342-.63v-7.551-.18c.036-.351.117-.495.342-.621l.063-.054c.207-.126.315-.369.315-.621a.87.87 0 0 0-.036-.261c-.1-.252-.297-.414-.54-.414h-3.798c-.252 0-.45.162-.54.414a.87.87 0 0 0-.036.261c0 .252.099.513.314.621l.036.036.045.018c.207.145.288.271.324.621V36.271zM35.433 36.306c-.062.333-.152.469-.387.595l-.099.036v.009a.69.69 0 0 0-.369.63c0 .081.018.18.045.261a.702.702 0 0 0 .639.414h1.972c.297 0 .53-.18.639-.414a.7.7 0 0 0 .045-.279.663.663 0 0 0-.369-.611l-.054-.027-.027-.018c-.233-.126-.297-.207-.378-.45-.027-.117-.027-.162-.027-.207V30.89l.467.71.233.351 3.501 4.833c.721.999.873 1.179 1.035 1.305.234.18.468.279.891.279.099 0 .189 0 .315-.018.684-.045.873-.117 1.08-.243a.876.876 0 0 0 .234-.243c.152-.189.171-.324.171-.819V28.72c0-.062.009-.126.009-.18.054-.351.144-.495.396-.621l.081-.054h.01a.716.716 0 0 0 .359-.612.996.996 0 0 0-.045-.27c-.09-.252-.342-.414-.639-.414h-2.079a.674.674 0 0 0-.639.414.682.682 0 0 0-.045.27c0 .243.117.504.369.612l.045.036.036.018c.262.145.36.271.405.621V32.509l-.297-.396-.621-.819c-1.008-1.35-1.467-1.979-1.809-2.475-1.422-2.124-1.513-2.25-2.025-2.25h-3.24a.674.674 0 0 0-.639.414.884.884 0 0 0-.045.261c0 .252.126.513.369.621l.054.036.045.018c.252.145.342.271.387.621v7.641l.001.125zM48.753 36.306c-.063.333-.162.469-.396.595l-.09.036v.009a.683.683 0 0 0-.378.63c0 .081.019.18.045.261a.726.726 0 0 0 .648.414h1.962c.297 0 .531-.18.648-.414a.937.937 0 0 0 .045-.279.656.656 0 0 0-.378-.611l-.045-.027-.036-.018c-.234-.126-.297-.207-.369-.45-.036-.117-.036-.162-.036-.207V30.89l.468.711.234.351 3.501 4.833c.72.999.882 1.179 1.053 1.305.234.18.468.279.891.279.091 0 .181 0 .307-.018.692-.045.882-.117 1.08-.243a.858.858 0 0 0 .233-.243c.153-.189.171-.324.171-.819v-8.325c0-.062.019-.126.019-.18.045-.351.144-.495.387-.621l.081-.054h.018a.715.715 0 0 0 .36-.612.758.758 0 0 0-.054-.27c-.09-.252-.342-.414-.639-.414h-2.079a.676.676 0 0 0-.64.414.926.926 0 0 0-.045.27c0 .243.126.504.378.612l.045.036.027.018c.27.145.36.271.414.621V32.51l-.297-.396-.63-.819a71.506 71.506 0 0 1-1.81-2.475c-1.422-2.124-1.521-2.25-2.034-2.25h-3.23a.695.695 0 0 0-.648.414.917.917 0 0 0-.045.261c0 .252.126.513.378.621l.045.036.045.018c.252.145.351.271.396.621v7.765zM69.57 39.879c0 .702-.567 1.27-1.261 1.27a1.266 1.266 0 0 1-1.269-1.261 1.26 1.26 0 0 1 1.26-1.269c.703.001 1.27.568 1.27 1.26z" fill="#fff"/><path d="M67.77 40.626h.207v-.675h.514c.333 0 .243.288.27.477l.036.198h.243c-.09-.135-.063-.171-.081-.378-.018-.27-.027-.297-.189-.396.153-.117.217-.198.207-.396-.018-.36-.252-.405-.504-.405h-.703v1.575z"/><path d="M68.481 39.232c.126 0 .315.036.288.306-.018.198-.152.234-.288.234h-.504v-.54h.504z" fill="#fff"/></svg>