<svg xmlns="http://www.w3.org/2000/svg" width="2500" height="2500" viewBox="0 0 192.756 192.756"><g fill-rule="evenodd" clip-rule="evenodd"><path fill="#fff" d="M0 0h192.756v192.756H0V0z"/><path d="M46.374 57.754h100.007c20.801 0 37.871 17.07 37.871 37.889 0 20.8-17.031 37.851-37.871 37.851H46.374c-20.8 0-37.87-17.088-37.87-37.851 0-20.838 17.032-37.889 37.87-37.889z"/><path d="M46.374 63.068h100.007c17.881 0 32.576 14.677 32.576 32.576 0 17.88-14.658 32.538-32.576 32.538H46.374c-17.88 0-32.576-14.678-32.576-32.538 0-17.918 14.658-32.576 32.576-32.576z" fill="#d0d1d3"/><path d="M172.91 131.742c0-1.789-1.471-3.24-3.26-3.24s-3.26 1.451-3.24 3.24a3.245 3.245 0 0 0 3.24 3.26c1.789-.018 3.26-1.451 3.26-3.26z"/><path d="M172.533 131.742c0 1.602-1.301 2.883-2.883 2.883s-2.863-1.281-2.863-2.863c-.02-1.602 1.281-2.883 2.863-2.883s2.883 1.281 2.883 2.863z" fill="#fff"/><path d="M168.445 133.438h.451v-1.525h1.188c.734 0 .527.66.604 1.074l.074.451h.547c-.189-.301-.133-.375-.17-.848-.057-.621-.057-.678-.434-.922.359-.264.49-.434.471-.887-.037-.811-.584-.922-1.129-.922h-1.602v3.579z"/><path d="M170.047 130.273c.281 0 .734.074.658.678-.037.471-.338.547-.658.547h-1.15v-1.225h1.15z" fill="#fff"/><path d="M145.062 94.25c.357.264.49.678.49 1.13v10.269c0 .998-.584 1.846-1.734 1.602-5.273-1.057-7.535-4.465-7.535-9.553V84.772c0-1.055-.98-1.733-1.941-1.959-1.242-.302-2.449.32-3.09 1.413v20.499c0 .998-.377 2.072-1.562 2.072l-6.123-.018c-.961 0-1.621-1.018-1.621-1.941v-9.666c.037-.565.32-.923.771-1.225.453-.301.736-.678.754-1.225v-9.835c0-.415.076-1.319-.338-1.338h-.02c-.621-.037-.961-.527-.961-1.168l.02-1.451c0-.678.641-1.093 1.281-1.093h6.18a1.697 1.697 0 0 1 1.338.829c1.582-.697 3.24-1.262 4.973-1.337 4.07-.169 7.518 2.694 7.518 6.801v7.311c-.001 1.885.452 1.998 1.6 2.809zM114.07 77.406c-1.357.056-2.506-1.3-2.619-2.544-.189-2.091 2.203-3.617 4.051-3.542 2.016.094 4.031 1.639 3.561 3.862-.244 1.244-1.318 2.205-2.6 2.242-.434.019-.848-.075-1.264-.207-.377.075-.752.17-1.129.189zM121.549 104.648c0 .943-.414 2.148-1.545 2.148l-7.932-.018c-.961 0-1.621-1.018-1.621-1.941v-9.666c0-.565.32-.942.773-1.225.451-.301.754-.678.754-1.225l.018-9.816c0-.414-.264-1.337-.771-1.356-.434 0-.773.057-1.148-.15-.396-.207-.66-.565-.66-1.018l.02-1.451c0-.678.641-1.093 1.279-1.093h7.744c.98 0 1.621.904 1.621 1.828v12.793c0 .396.057.81.32 1.13.49.641 1.148.622 1.148 1.677v9.383zM159.777 74.975c2.469-.094 2.545 2.883 1.959 4.635-.32 1.018-.752 2.016-1.355 2.883-.98 1.394-2.732 1.809-4.238 1.036-.209-.094-.867-.622-1.564-.98-.68-.358-1.357-.583-1.564-.094-.113.339.094.735.34.961 1.77 1.658 3.58 3.278 5.389 4.898 2.826 2.524 4.729 5.916 4.275 9.703-.564 4.711-4.258 8.459-9.1 8.779l-6.086-.018c-1.338 0-1.715-.961-1.715-2.131V95.51c0-1.073.736-1.62 1.754-1.62h4.031c.697 0 1.131-.565 1.094-1.187-.059-.622-.434-1.3-.754-1.715-1.17-1.488-2.451-2.92-3.619-4.428-1.072-1.47-1.449-3.372-.961-5.105.623-2.242 2.639-3.787 4.861-4.277 1.451-.32 2.939-.169 4.314.377.603-1.242 1.394-2.523 2.939-2.58z"/><path d="M93.119 104.648v-9.137c0-1.073.753-1.62 1.771-1.62h3.993c1.697 0 .98-2.072.34-2.901-1.168-1.488-2.487-2.883-3.598-4.428-3.015-4.107-.076-8.742 4.333-9.458 2.279-.377 6.463.735 7.197 3.222.283.961-.17 1.998-.865 2.675-.697.66-1.678.999-2.658.546-.848-.376-1.602-.923-2.486-1.206-.867-.283-1.168-.094-1.131.264.039.357.396.885.83 1.281 1.619 1.488 3.26 2.958 4.898 4.428 2.807 2.524 4.709 5.916 4.258 9.703-.564 4.711-4.238 8.779-9.082 8.779l-6.085-.018c-1.32.001-1.715-.96-1.715-2.13zM72.261 91.292c.377-1.752.923-3.467 1.188-5.238.32-2.412.339-4.145-2.336-5.125v-3.523h8.78l.019 14.074c.094 1.507 1.13 2.186 2.167 2.054 1.018-.132 2.016-1.074 2.054-2.77v-8.893c0-.188-.094-.433-.207-.584h-1.639v-3.881h7.008c.999.132 1.602 1.13 1.621 2.072v12.944c.057.829.792 1.375 1.356 1.846v12.435l-1.3.094c-1.621.057-3.071-.377-4.032-1.771a7.27 7.27 0 0 1-4.691 2.168c-6.481.113-9.666-5.482-10.288-11.191a18.75 18.75 0 0 1 .3-4.711zM60.712 76.256c5.859 0 10.626 6.877 10.626 15.317 0 8.422-4.767 15.299-10.626 15.299-5.84 0-10.626-6.877-10.626-15.299-.001-8.44 4.786-15.317 10.626-15.317z"/><path d="M49.69 104.857c-3.429 1.545-6.387 2.393-10.117 1.789-8.083-1.281-11.7-8.252-11.342-15.92.357-7.555 5.539-17.258 13.923-18.031 1.018-.094 1.884.376 2.731.904.283.169.452.019.509-.245.283-1.451 1.092-3.561 2.864-3.203 2.016.414 2.468 2.788 1.959 4.616-.433 1.507-1.149 3.015-2.354 4.051-1.658 1.451-3.938 1.187-5.521-.32-.264-.264-.622-.227-.923-.02-3.241 2.092-7.009 8.705-4.333 12.511 2.525 3.599 8.931 2.619 12.604 2.035v11.833zM110.527 117.951v.453c0 1.318.207 1.883.867 2.297.678.434 1.846.566 4.822.566 2.865 0 4.07-.076 4.635-.283 1-.377 1.414-1.188 1.414-2.863 0-1.338-.246-1.979-.924-2.412-.602-.396-1.225-.471-4.389-.564-2.035-.057-2.826-.096-3.092-.17-.281-.076-.414-.264-.414-.621 0-.697.189-.754 2.676-.754 2.072 0 2.432.018 2.676.168.207.133.244.246.283.793h2.807c.02-.189.02-.396.02-.453 0-1.131-.227-1.732-.811-2.129-.66-.451-1.678-.584-4.465-.584-2.299 0-3.619.057-4.184.17-1.318.281-1.846 1.111-1.846 2.939 0 2.109.658 2.713 3.033 2.787l.791.02 1.545.076 2.299.094c.941 0 1.148.15 1.148.734 0 .848 0 .848-3.127.848-2.055 0-2.375-.037-2.656-.207-.227-.15-.283-.34-.283-.904h-2.825v-.001zM97.188 121.135h6.896c3.221-.018 3.373-.037 3.938-.225.848-.283 1.205-1 1.205-2.355 0-1.545-.395-2.111-1.658-2.318.961-.264 1.301-.828 1.301-2.203 0-1.734-.527-2.338-2.092-2.451-.434-.037-.434-.037-2.713-.055h-6.877v9.607zM83.114 111.527v4.426c.019 1.545.019 1.545.038 1.865.075 1.414.226 1.998.697 2.488.735.754 1.884.961 5.54.961 2.242 0 3.203-.057 4.069-.227 1.093-.227 1.828-.998 1.979-2.092.094-.678.094-.828.15-2.996v-4.426h-2.92v4.426c0 .189-.019.66-.038.98-.038.904-.112 1.168-.339 1.414-.32.357-.923.432-2.939.432-2.487 0-3.052-.15-3.203-.922-.075-.377-.075-.396-.112-1.904v-4.426h-2.922v.001zM70.114 117.951v.453c0 1.318.207 1.883.867 2.297.678.434 1.846.566 4.823.566 2.864 0 4.07-.076 4.654-.283.979-.377 1.394-1.188 1.394-2.863 0-1.338-.245-1.979-.905-2.412-.621-.396-1.243-.471-4.408-.564-2.035-.057-2.826-.096-3.071-.17-.301-.076-.434-.264-.434-.621 0-.697.188-.754 2.676-.754 2.072 0 2.431.018 2.676.168.207.133.244.246.282.793h2.826v-.453c0-1.131-.227-1.732-.792-2.129-.678-.451-1.696-.584-4.484-.584-2.299 0-3.618.057-4.183.17-1.319.281-1.847 1.111-1.847 2.939 0 2.109.659 2.713 3.033 2.787l.792.02 1.545.076 2.299.094c.942 0 1.149.15 1.149.734 0 .848 0 .848-3.127.848-2.054 0-2.374-.037-2.657-.207-.226-.15-.282-.34-.282-.904h-2.826v-.001z"/><path d="M115.238 76.256c-.416.075-.83.207-1.264.226-.809.019-1.676-1.244-1.582-1.922.15-1.244 1.545-2.299 2.959-2.299 1.225 0 2.75.735 2.826 2.336.057.829-.68 1.79-1.621 1.884-.433.039-.904-.093-1.318-.225zM130.33 80.005c1.883-.886 3.805-1.695 5.84-1.752 3.033-.057 6.35 2.129 6.35 5.897v7.103c0 2.186.377 2.808 1.602 3.486.357.188.49.377.49.641v10.212c0 .34-.113.848-.717.734-5.633-1.131-6.67-5.012-6.67-8.648V84.885c0-1.827-1.865-3.071-3.391-3.071-1.451-.019-2.732.66-3.504 2.167v20.65c0 .811-.209 1.225-.66 1.225h-5.992c-.432 0-.811-.584-.811-1.018v-9.609c0-.264.189-.396.379-.509.715-.471 1.168-1.149 1.168-2.054v-9.778c0-1.3-.096-2.242-1-2.28-.131 0-.32-.113-.32-.245v-1.338c0-.151.227-.245.377-.245h6.066c.49 0 .793.49.793.886v.339zM120.607 95.267v9.364c0 .471-.17 1.225-.641 1.225h-7.781c-.434 0-.791-.584-.791-1.018v-9.609c0-.264.188-.396.377-.509.697-.471 1.148-1.149 1.148-2.054v-9.778c0-1.13-.734-2.28-1.676-2.28h-.566c-.131 0-.32-.113-.32-.245v-1.338c0-.151.227-.245.377-.245h7.611c.51 0 .811.49.811.886v12.699c0 1.074.283 1.865 1.131 2.355.151.076.32.264.32.547zM157.291 78.819c.283-.641.584-1.3 1.018-1.96.414-.659 1.395-1.225 2.035-.829.695.415.979 1.526.791 2.317-.32 1.3-.887 2.694-1.527 3.618-.301.414-.865.753-1.412.979-.264.113-.848.094-1.432-.151-1.018-.452-1.602-1.451-3.09-1.489-1.979-.075-1.941 1.885-.98 2.789a321.31 321.31 0 0 0 5.426 4.917c2.506 2.223 3.957 5.087 3.994 8.065.076 4.539-4.201 8.779-8.215 8.779h-5.973c-.734 0-.885-.377-.885-1.207v-9.042c0-.622.34-.772.83-.772h3.994c.904 0 1.865-.867 2.033-1.733.227-1.055-.357-1.997-1.129-2.939l-3.316-4.032c-.98-1.206-1.375-3.411-.754-4.824.904-2.034 2.92-3.24 4.975-3.334a6.76 6.76 0 0 1 3.617.848zM100.9 105.855h-5.973c-.735 0-.867-.377-.867-1.207v-9.042c0-.622.339-.772.829-.772h3.976c.885 0 1.846-.867 2.035-1.733.207-1.055-.359-1.997-1.15-2.939l-3.297-4.032c-.96-1.206-1.356-3.411-.735-4.824.867-2.034 2.901-3.24 4.956-3.334 1.996-.094 3.73.66 5.219 2.016 1.188 1.093-.51 3.316-1.789 2.751-.867-.377-2.318-1.413-3.43-1.433-1.998-.075-1.959 1.885-.98 2.789 1.848 1.715 3.6 3.297 5.428 4.917 2.506 2.223 3.938 5.087 3.994 8.065.054 4.538-4.221 8.778-8.216 8.778zM91.348 94.72v11.116c-2.28.227-3.335-.678-3.938-1.865-.132-.225-.641-.207-.811 0-.905 1.15-2.845 2.449-4.974 2.262-6.368-.547-8.836-6.426-8.761-11.833.038-4.22 1.979-6.934 1.602-11.135-.113-1.244-1.074-2.525-2.412-2.996v-1.922h6.915v12.981c0 2.11 1.526 3.184 3.052 3.127s3.053-1.263 3.053-3.693V81.89c0-.622-.434-1.526-1.056-1.526h-.791v-2.016h5.954c.452 0 .792.678.792 1.13v12.906c-.001.905.584 1.715 1.375 2.336zM60.712 77.198c5.351 0 9.704 6.462 9.704 14.375 0 7.895-4.353 14.358-9.704 14.358-5.332 0-9.684-6.463-9.684-14.358 0-7.912 4.352-14.375 9.684-14.375zM48.749 94.118v10.136c-2.601 1.188-4.71 1.695-7.556 1.602-8.026-.264-13.472-7.668-11.719-17.899 1.093-6.255 5.916-13.604 12.567-14.3.829-.094 1.526.226 2.355.753.584.358 1.714.245 1.902-.753.188-1.187.867-2.845 1.884-2.562 1.206.339 1.47 2.223 1.13 3.41-.546 1.865-1.902 4.409-3.862 4.333-.829-.057-1.639-.226-2.468-1.018-.49-.49-1.338-.641-2.129-.094-3.071 2.091-5.2 5.897-5.52 9.665-.434 5.049 3.806 6.952 7.367 7.028 2.223.075 4.729-.076 6.049-.301z" fill="#808183"/><path d="M60.75 82.116c2.242 0 4.051 2.845 4.051 6.331s-1.809 6.331-4.051 6.331c-2.223 0-4.032-2.845-4.032-6.331s1.808-6.331 4.032-6.331z"/><path d="M60.75 83.058c1.715 0 3.109 2.43 3.109 5.388 0 2.977-1.394 5.389-3.109 5.389-1.714 0-3.108-2.412-3.108-5.389-.001-2.958 1.393-5.388 3.108-5.388zM99.957 118.818v-1.584h4.127c1.695 0 1.695 0 1.846.039.32.074.453.264.453.715 0 .416-.094.623-.34.717-.227.113-.227.113-1.959.113h-4.127zM99.957 115.312v-1.525h4.107c1.338.02 1.377.02 1.527.057.301.057.432.283.432.678 0 .359-.094.584-.32.68-.188.094-.602.111-1.639.111h-4.107v-.001z" fill="#d0d1d3"/></g></svg>