<svg xmlns="http://www.w3.org/2000/svg" width="2500" height="2500" viewBox="0 0 192.756 192.756"><g fill-rule="evenodd" clip-rule="evenodd"><path fill="#fff" d="M0 0h192.756v192.756H0V0z"/><path d="M174.6 72.993h2.511v.628h-.863v2.04h-.785v-2.04h-.863v-.628zM177.504 72.993h1.098l.392 1.648.393-1.648h1.099v2.668h-.707v-2.04l-.47 2.04h-.629l-.549-2.04v2.04h-.627v-2.668zM129.869 82.88s.863 7.455.863 16.167c-.078 1.646-.078 2.117-.078 2.117l-1.1.943-8.631.156-1.256-1.256s-.078-6.906-.314-9.024c-.156-2.041-1.176-8.71-1.176-8.71l-6.279.078-1.256-1.255-.627-4.395c-.156-1.177.078-2.511.078-2.511l1.178-1.099s2.824 0 5.729.313c2.824.236 9.967 1.099 10.672 1.178h12.869l1.178 1.177-.078 3.924-1.178 1.099-10.594 1.098zM154.432 74.17l1.02-1.02 2.59-.079 3.061.942 1.256-1.177 7.141-.157 1.256 1.099v4.002l-2.354 6.905 4.943-1.177 2.434.079s1.883 1.805 1.961 2.511v2.589l-1.49 2.119 3.373 6.043 3.533.393 1.098 1.098v2.512l-.863 1.098-5.258 2.826h-2.668l-5.885-7.062-1.492 1.176-9.023-.078-.707-.707-4.473.158-1.178-1.1s0-9.809.393-12.869 1.332-10.124 1.332-10.124zM71.406 96.457l2.59 4.473 4.159-3.453-6.749-1.02zm18.677 3.844s1.413.551 3.14 1.021c-.157-.629-.236-3.689-.236-3.689l-2.904 2.668zM28.794 74.484l7.22 8.475v2.589l-1.334 1.569s-5.022.393-10.202 3.846c0 2.354.157 5.494.157 5.494l3.924 2.039 6.592-4.629h1.02l-.706-3.296v-2.825l1.255-1.334s1.962 0 2.982.157c1.099.157.785.313 3.531-.079s6.356-1.099 6.356-1.099h2.59l1.177 1.491.079 1.099s6.278-.864 12.32-1.57c1.099 0 4.395.314 4.395.314l.785.942.393-.393 23.15 1.648.549-1.255 1.334-1.413h6.356l1.178 1.333v2.747s-1.1 3.924-1.02 5.101c2.59-3.531 4.314-5.022 4.314-5.022l5.65.392 1.1 1.334v2.825l-7.299 12.712s-.156 4.473-1.412 9.104c-.314.627-1.334 1.412-1.334 1.412l-9.731 1.885-2.903-.08-1.491-1.805.079-3.139 1.177-1.098 5.336-2.668.471-1.57s-1.647-2.354-1.883-3.061c-.235-.707-.235.393-.235.393l-1.255 1.256-18.677-1.256-.785.863s-22.287 1.098-22.915.863c-.549-.471-1.333-1.412-1.333-1.412s-.393-5.965 1.098-8.555c.707-1.648 3.61-4.473 3.61-4.473l-.941-.079-.079.706-1.177 1.255s-4.63 2.119-5.336 3.531c-.706 1.412-1.098 1.805-1.098 2.512-.079.707-.157 3.139-.157 3.139l-1.255 1.178-5.964-.158-.941-.941s-1.883 2.59-3.767 2.668c-1.962 0-4.473-.234-7.298-.941-2.825-.705-10.437-2.668-10.907-2.982-.393-.312-3.061-2.117-4.159-4.787-1.099-2.668-4.238-7.454-2.197-15.145 1.407-2.823 3.762-10.592 19.613-9.807z"/><path fill="#e9b040" stroke="#fff" stroke-width=".874" stroke-miterlimit="2.613" d="M112.369 76.367l14.598 1.491 12.476.079-.078 1.569-12.242 1.177 1.178 10.594v8.633l-6.28-.158-.312-8.318-1.178-9.495-.941-.863-6.514-.158-.707-4.551z"/><path d="M136.854 91.905s-.627 0-.078.235c.549.314 1.178.707 1.334 1.177.236.942 1.57 1.805 3.297 2.041 1.568 0 3.451-.941 4.707-3.767.393-.549-.312-.471-.627-.471s-1.256 0-2.041.549c-.863.549-2.668.707-4.316.471a257.081 257.081 0 0 1-2.276-.235zm-6.436.55s1.334-7.455 6.121-7.22c2.355.393 2.826.157 5.102 2.589.393.392.627.392 1.334 0 .627-.392 4.002-2.668 6.436-2.354 1.176.392 1.883.941 1.805 2.354-.078.863.156 3.453 1.334 4.081.234.235-.629.235-1.1 1.099-.312.549-2.275 7.612-6.904 8.004-1.021.078-3.533.078-4.16.156-.627.08-4.316.473-6.355-2.746-.551-.941-1.256-4.316-1.727-4.944-.472-.627-.708-.941-1.886-1.019z" stroke="#000" stroke-width=".508" stroke-miterlimit="2.613"/><path fill="#e9b040" stroke="#fff" stroke-width=".874" stroke-miterlimit="2.613" d="M156.785 75.269l3.141 1.098-1.963 19.148-2.902.392.312-9.966 1.412-10.672zM163.457 75.111l4.865-.156.078 1.412-3.453 10.123 1.02 1.413 8.633-2.119.707 1.57-2.119 3.452 4.708 8.319 4.081.471-5.18 2.902-6.826-8.396-2.983 2.433-6.828-.078 3.297-21.346zM21.889 89.08l.235 8.868.549.707 6.2 3.061 7.612-5.258 1.805 1.961s-1.805 1.727-2.433 3.531c-.627 1.885-1.02 3.924-4.865 3.689-1.883-.471-13.341-3.611-13.341-3.611s-2.982-.783-4.237-4.707c-.863-2.198-3.374-6.75-1.883-11.379.471-1.491 2.354-8.868 15.93-9.024 2.903 3.531 6.2 7.455 6.2 7.455S28.167 85 21.889 89.08zM37.897 89.001l1.255 6.199.55 8.711 3.531-.078s-1.099-3.611 2.982-7.377c2.668-1.884 4.787-2.904 4.787-2.904l-.157-5.571s-9.26 1.726-9.966 1.648c-.784-.079-2.982-.628-2.982-.628zM71.328 93.553l1.177-3.531s0-.157.471-.157c.471.078 22.051 1.883 22.051 1.883s.235.079-.157.392c-.393.314-10.516 9.497-10.516 9.497l8.162 2.51-.235 1.57-17.657-1.334s-.235-.158.314-.549c.549-.393 8.946-7.299 8.946-7.299l.079-.942-12.478-1.805c-.001.001-.157-.078-.157-.235zM97.617 88.844h3.688s-2.59 6.749.549 12.164c2.668-3.139 6.514-7.926 6.514-7.926l3.139.314-7.375 12.87s0 4.709-1.414 9.104c-.312.314-10.044 2.039-10.044 2.039l-.392-.783 6.435-3.219 1.256-4.316s-5.179-4.943-4.081-14.517c.233-1.649 1.254-5.024 1.725-5.73zM62.146 99.518c1.02 1.49 4.473.863 4.473.863l-1.805-2.277s-2.04.551-2.668.707 0 .707 0 .707zm-9.495-8.633l14.204-1.962 1.962.549-1.334 5.886 5.337 9.73-20.561 1.1s-1.491-10.987 11.614-11.85c.313-1.177.235-1.177.235-1.177l-11.379-1.727-.078-.549z"/></g></svg>