<svg xmlns="http://www.w3.org/2000/svg" width="2500" height="2500" viewBox="0 0 192.756 192.756"><g fill-rule="evenodd" clip-rule="evenodd"><path fill="#fff" d="M0 0h192.756v192.756H0V0z"/><path d="M178.395 101.332h5.857v-4.176h-5.857v4.176zm5.857 16.703v-14.77h-5.857v14.77h5.857zm-17.637 0h5.857v-5.111l.062-.561v-.561l.125-.436.062-.438.125-.436.186-.312.188-.311.188-.312.25-.248.248-.188.312-.125.311-.188h.188l.188-.061.373-.062.375-.062h.748l.311.062.623.062v-5.859l-.373-.062h-.375l-.811.062-.436.062-.311.062-.375.125-.311.125-.312.186-.312.188-.248.25-.25.248-.25.25-.186.311-.438.748-.186.375-.125.436h-.062v-2.99h-5.359v14.771zm-1.808-4.176h-.934l-.561-.062-.438-.062-.311-.125-.125-.061-.062-.125-.188-.25-.062-.125v-.188l-.062-.373v-5.857h2.805v-3.365h-2.805v-4.613h-5.795v4.613h-2.182v3.365h2.057v6.17l.062.934v.811l.125.686.125.623.062.25.123.248.25.5.125.186.188.188.186.125.188.188.25.123.248.062.623.188.686.125.811.062.936.062h1.121l1.184-.062 1.371-.062v-4.179h-.001zM153.9 111.99v-.5l-.061-.498v-.498l-.062-.436-.188-.936-.25-.873-.186-.373-.125-.438-.438-.748-.186-.311-.25-.373-.561-.625-.561-.561-.312-.248-.373-.25-.312-.25-.373-.186-.438-.25-.373-.125-.811-.311-.936-.188-.436-.125h-.498l-.998-.062h-.871l-.873.125-.811.188-.375.125-.373.123-.373.125-.375.188-.373.188-.312.186-.623.438-.623.498-.25.25-.248.248-.25.312-.25.311-.248.312-.188.311-.188.375-.125.373-.311.748-.188.811-.125.811-.061.936.061.436v.436l.062.438.062.436.188.811.311.748.312.686.25.311.186.312.5.561.248.248.25.25.623.498.623.375.686.311.375.188.373.125.811.188.811.188.811.061.871.062h.686l.623-.062.686-.061.623-.125.623-.125.625-.188.623-.25.561-.248.561-.312.498-.373.25-.188.188-.188.436-.436.373-.498.375-.561.125-.312.125-.312.248-.623h-5.609l-.186.25-.25.312-.25.186-.248.188-.312.188-.311.062-.312.062h-.935l-.248-.062-.25-.125-.311-.125-.188-.125-.25-.188-.188-.123-.186-.25-.188-.188-.188-.248-.123-.25-.062-.312-.062-.248-.062-.312v-.311H153.9v-.005zm-11.216-2.992V108.437l.062-.312.125-.186.186-.5.125-.186.188-.125.186-.188.188-.125.25-.125.25-.123.248-.062.312-.062h.311l.312-.062.25.062h.248l.25.062.248.125.188.123.25.125.186.125.188.188.188.186.125.188.248.438.062.248.062.25.062.25v.248h-5.298v-.001zm-13.338-7.666h5.859v-4.176h-5.859v4.176zm5.859 16.703v-14.77h-5.859v14.77h5.859zm-16.017-4.051h-.248l-.25-.062-.25-.062-.248-.125-.188-.125-.25-.186-.123-.188-.188-.25-.125-.186-.125-.312-.25-.561-.123-.686v-1.123l.062-.311.123-.686.188-.561.125-.25.125-.25.188-.186.186-.188.188-.125.188-.125.248-.123.25-.062.25-.062h.809l.25.125.25.061.248.125.188.125.188.188.188.188.123.248.188.25.125.25.062.311.062.373.062.375.061.373V110.992l-.061.375v.311l-.125.312-.062.311-.125.25-.125.25-.186.248-.188.188-.188.188-.188.186-.248.125-.25.125-.25.062-.248.062h-.313v-.001zm-8.165-10.718v19.818h5.92v-6.482l.375.436.373.375.438.311.436.25.25.125.248.125.5.125.311.061h.25l.561.062h.623l.623-.123.623-.125.623-.188.623-.25.562-.311.248-.188.312-.188.498-.436.25-.25.186-.248.438-.562.186-.311.188-.312.375-.748.248-.809.062-.438.125-.436.125-.998v-1.807l-.062-.686-.125-.748-.186-.686-.127-.373-.123-.312-.125-.311-.125-.312-.373-.623-.375-.561-.436-.5-.498-.436-.5-.436-.623-.312-.311-.125-.312-.123-.748-.25-.748-.062-.809-.062h-.625l-.311.062-.375.062-.311.125-.375.128-.623.248-.623.375-.248.186-.312.25-.25.25-.186.311-.188.312-.188.311h-.062v-2.18h-5.297zm-10.47 8.724v-.998l-.062-.498-.061-.436-.125-.936-.312-.873-.125-.373-.186-.438-.375-.748-.248-.311-.188-.373-.561-.625-.562-.561-.373-.248-.311-.25-.375-.25-.374-.186-.374-.25-.374-.125-.873-.311-.872-.188-.437-.125h-.498l-.998-.062h-.873l-.872.125-.811.188-.374.125-.374.123-.374.125-.374.188-.374.188-.312.186-.685.438-.562.498-.312.25-.249.248-.25.312-.187.311-.25.312-.187.311-.187.375-.187.373-.25.748-.187.811-.125.811-.062.936v.436l.062.436.062.438.062.436.187.811.312.748.312.686.187.311.25.312.437.561.312.248.249.25.623.498.624.375.686.311.374.188.374.125.748.188.873.188.81.061.873.062h.686l.623-.062.623-.061.686-.125.623-.125.623-.188.562-.25.623-.248.499-.312.498-.373.25-.188.25-.188.436-.436.373-.498.375-.561.125-.312.123-.312.25-.623h-5.671l-.124.25-.25.312-.249.186-.249.188-.312.188-.312.062-.312.062h-.935l-.249-.062-.312-.125-.25-.125-.249-.125-.187-.188-.25-.123-.187-.25-.125-.188-.187-.248-.125-.25-.062-.312-.125-.248v-.312l-.062-.311h11.221v-.005zm-11.218-2.992l.062-.311v-.25l.062-.312.063-.186.249-.5.125-.186.187-.125.187-.188.187-.125.249-.125.25-.123.249-.062.25-.062h.312l.312-.062.312.062h.25l.187.062.25.125.249.123.187.125.249.125.187.188.125.186.187.188.25.438.062.248.062.25.062.25v.248h-5.363v-.001zm-15.393 5.234h-.312l-.312-.061-.312-.125-.25-.125-.187-.188-.187-.186-.187-.188-.125-.25-.187-.498-.125-.561-.125-.562v-.623l.062-.623.062-.623.125-.561.125-.311.125-.25.187-.25.187-.188.062-.123.125-.062.249-.188.25-.125.249-.125.312-.062h.748l.312.062.25.125.249.125.25.125.187.188.374.436.125.25.125.311.062.25.062.311.125.623v1.248l-.062.311-.062.312-.062.311-.125.25-.125.311-.125.25-.187.188-.187.248-.187.188-.249.125-.312.125-.312.125-.312.061h-.373v-.001zm8.351 3.803V97.719h-5.858v7.041l-.25-.311-.187-.188-.249-.25-.25-.186-.249-.188-.25-.125-.499-.311-.312-.062-.249-.125-.623-.125-.623-.062h-1.307l-.624.125-.623.188-.561.248-.561.312-.499.373-.499.438-.437.498-.187.311-.25.25-.312.623-.312.686-.25.686-.25.811-.125.811-.062.436-.062.375v1.682l.062.748.187.748.187.686.187.686.312.623.375.561.374.561.437.438.498.436.25.25.312.125.623.373.312.125.312.125.686.188.374.061h.437l.374.062h1.122l.312-.062.312-.061.561-.188.561-.188.312-.188.249-.188.499-.373.499-.561.561-.623v1.994h5.233v-.003z"/><path fill="#c05b44" d="M10.872 118.471V71.854h45.371v46.617H10.872z"/><path d="M121.432 86.687v-.062h.187v.062h-.187zM58.424 69.673v50.917H8.504V69.673h49.92zM9.252 119.842h48.424V70.42H9.252v49.422z"/><path d="M21.642 113.098c-2.954 0-5.363-2.395-5.363-5.33s2.409-5.33 5.363-5.33c2.954 0 5.364 2.395 5.364 5.33s-2.41 5.33-5.364 5.33zm5.406-41.244h5.364v36.21c-.159 5.76-4.938 10.406-10.771 10.406-5.932 0-10.77-4.809-10.77-10.703s4.838-10.703 10.77-10.703c1.969 0 3.816.529 5.406 1.453V71.854h.001z" fill="#fff"/><path d="M45.472 77.228c2.954 0 5.363 2.394 5.363 5.33s-2.409 5.33-5.363 5.33-5.363-2.394-5.363-5.33 2.409-5.33 5.363-5.33zm-5.406 41.243h-5.364V82.26c.159-5.758 4.938-10.406 10.77-10.406 5.932 0 10.771 4.809 10.771 10.704s-4.838 10.703-10.771 10.703c-1.968 0-3.815-.53-5.406-1.453v26.663z"/></g></svg>