<svg xmlns="http://www.w3.org/2000/svg" width="2500" height="2500" viewBox="0 0 192.756 192.756"><g fill-rule="evenodd" clip-rule="evenodd"><path fill="#fff" d="M0 0h192.756v192.756H0V0z"/><path fill="#4e5c9d" d="M67.776 164.996H65.7v-7.444h-7.318v7.444h-2.076v-14.975h2.076v6.033H65.7v-6.033h2.076v14.975zM80.228 163.756c-3.873 0-5.198-3.573-5.198-6.504 0-2.804 1.496-5.991 5.198-5.991 3.701 0 5.2 3.188 5.2 5.991 0 2.931-1.328 6.504-5.2 6.504zm0 1.497c4.622 0 7.488-3.529 7.488-8.001 0-4.195-3.167-7.489-7.488-7.489-4.323 0-7.489 3.294-7.489 7.489 0 4.472 2.868 8.001 7.489 8.001zM95.141 164.996v-13.479h-4.793v-1.496h11.681v1.496h-4.812v13.479h-2.076zM114.096 151.517h-5.305v4.835h5.201v1.498h-5.201v5.648h6.227v1.498h-8.303v-14.975h7.381v1.496zM120.346 150.021h2.076v13.477h6.224v1.498h-8.3v-14.975zM140.01 152.329c-.73-.533-1.691-1.068-2.59-1.068-1.498 0-2.334.876-2.334 2.031 0 1.07.92 1.863 2.848 3.254 2.053 1.497 3.25 2.867 3.25 4.793 0 2.374-2.244 3.914-4.643 3.914-1.434 0-3.146-.512-4.213-1.561l.92-1.242c.875.62 1.838 1.306 3.252 1.306 1.475 0 2.607-.791 2.607-2.46 0-1.883-2.244-3.104-3.465-4.002-1.238-.963-2.631-1.883-2.631-4.002 0-2.011 1.947-3.529 4.279-3.529 1.562 0 2.867.556 3.701 1.498l-.981 1.068zM32.547 100.33h-16.29v1.663h5.083v31.458h-5.083v1.663H32.6c11.319 0 18.634-6.826 18.634-17.391 0-6.459-3.937-17.393-18.687-17.393zm-4.859 1.663h1.276c13.696 0 15.28 8.977 15.28 15.73 0 12.998-7.233 15.728-13.301 15.728h-3.255v-31.458zM80.798 126.354c0 6.218-1.861 7.047-9.263 7.047h-5.572v-12.328h2.763c4.378 0 4.592 1.574 4.592 4.359v.533H75.1v-11.74h-1.783v.535c0 2.517-.341 4.6-4.547 4.6h-2.807v-11.847h6.464c4.744 0 6.679 1.634 6.679 5.643v.535h1.826l-.618-7.891h-23.89v1.713h3.923v25.888h-3.923v1.713h26.158v-9.295h-1.783v.535h-.001zM113.635 125.352c0 6.998-1.279 8.05-9.797 8.05h-4.139v-25.888h4.457v-1.713H89.624v1.713h4.458v25.888h-4.458v1.713h25.794v-10.299h-1.783v.536zM118.998 105.801v9.374h1.783v-.535c0-6.141.564-7.126 8.285-7.126h.402v25.888h-4.592v1.713h14.799v-1.713h-4.592v-25.888h.445c7.68 0 8.238.985 8.238 7.126v.535h1.783v-9.374h-26.551zM172.629 133.401l-10.83-28.241h-1.23l-9.713 26.225c-.762 2.017-1.15 2.017-2.307 2.017h-1.963v1.713h10.252v-1.713h-2.852c-.867 0-1.426-.184-1.426-.466 0-.627.412-1.686.631-2.255.004-.012 1.295-3.576 1.705-4.715h8.793l2.807 7.436h-4.129v1.713h14.131v-1.713l-3.869-.001zm-17.078-9.146c.404-1.13 2.99-8.32 3.664-10.195.703 1.863 3.418 9.055 3.85 10.195h-7.514zM143.514 58.67c-.85-5.596-7.174-12.393-19.377-14.92-1.768-.395-3.721-.691-5.799-.893l6.615-15.354-10.988 4.224-4.129 10.85c-10.006.246-20.965 2.282-30.986 5.771-15.789 5.373-26.971 13.685-32.173 19.67-4.626 5.198-6.018 8.914-6.475 10.133-.362.867.106 1.254.257 1.353a.87.87 0 0 0 .702.084c.328-.096.593-.357.787-.773l.143-.326c.543-1.135 2.233-4.67 7.01-9.465 5.091-5.231 16.28-12.928 31.071-17.414 9.272-2.898 19.121-4.42 27.871-4.325l-5.426 14.257a40.708 40.708 0 0 0-3.398.314c-3.005.432-7.567 1.456-12.25 3.897-4.219 2.104-9.436 6.314-10.232 11.249-1.072 4.71 1.686 9.125 7.198 11.498 5.315 2.419 13.12 2.975 21.967 1.56 8.379-1.341 16.789-4.342 23.07-8.232 6.145-3.684 10.877-8.404 12.979-12.943 2.084-4.404 2-7.988 1.563-10.215zM93.233 86.194l7.716-2.966 15.205-35.299c.695.129 1.191.281 1.783.465l1.119.329c11.256 2.843 13.469 9.462 13.898 12.174.639 2.875.193 11.558-9.316 17.61-9.223 6.218-26.326 10.485-36.135 6.674-4.567-1.637-7.115-4.872-6.665-8.45a6.87 6.87 0 0 1 .509-2.175c1.033-2.547 3.694-5.201 7.12-7.099 4.034-2.315 8.126-3.39 10.852-3.884a40.31 40.31 0 0 1 2.666-.374l-8.752 22.995z"/></g></svg>