<svg height="899" viewBox="25.56 21.27 134.34 60.38" width="2500" xmlns="http://www.w3.org/2000/svg"><path d="m121.66 30.27c-4.04.01-6.18 2.05-8.06 4.53-.92-1.09-1.88-2.16-2.91-3.12-2.55-2.38-5.54-3.71-8.34-4.17-2.5-.41-7.25-.82-11.34 1.25-2.85 1.44-4 4.19-4.13 6.08v11.12h-3.21v1.79h3.21v11.48c0 1.28-.22 2.17-.65 2.68s-1.24.76-2.4.76h-.12v.32h3.97c1.82 0 2.74-1.18 2.74-3.53v-11.7h3.29v-1.79h-3.31v-10.1c0-1.82.34-3.57 1.48-5.01.81-1.02 1.72-1.84 2.96-2.44 2.46-1.2 5.24-.57 6.08-.32 2.51.76 4.9 2.15 7.1 4.21 1.54 1.44 2.91 2.95 4.24 4.36-1.93 2.7-4.01 5.51-8.08 6.72-1.59.47-3.21.6-4.65.45-1.46-.16-2.42-1.1-2.83-1.55-1.29-1.44-1.76-3.8-1.03-6.07l-2.94.56c-.32 2.27.81 3.85 2.6 5.54 1.01.95 3.19 2.04 4.96 2.52 1.68.46 3.72.42 5.91-.24 3.81-1.13 6.04-3.9 7.85-6.48 1.25 1.2 2.08 1.94 4.03 3.23 1.78 1.18 3.9 1.89 7.01 1.67 5.39-.39 6.93-5.77 4.73-8.69-1.43-1.92-3.95-4.07-8.16-4.06zm2.38 12.11c-1.31.17-5.36.32-8.94-5.76 1.98-2.84 4-5.31 8.13-5.39.35-.01.74.03 1.13.08.95.13 2.35.64 3.1 1.63 2.34 3.09.99 8.86-3.42 9.44z" fill="#e11b22"/><path d="m63.59 62.62h-3.5c-1.57 0-2.36-.87-2.36-2.6v-28.67c0-1.41-.18-2.39-.54-2.94s-1.06-.83-2.1-.83h-.19v-.49h5.96v31.89c0 1.25.18 2.11.55 2.6.37.48 1.06.73 2.08.73h.1zm-2.76-39.45c0 .53-.19.98-.55 1.33-.37.36-.82.54-1.35.54s-.98-.18-1.35-.54-.55-.8-.55-1.33.18-.98.55-1.35.82-.55 1.35-.55.98.18 1.35.55c.36.36.55.81.55 1.35zm22.09 39.1-.03.35h-3.33c-1.57 0-2.35-.9-2.35-2.7v-6.37c0-2.12-.16-3.59-.49-4.4-.35-.9-1.03-1.35-2.05-1.35-.79 0-1.59.45-2.4 1.35-1.49 1.66-2.23 3.3-2.23 4.92v8.55h-3.05v-12.09c0-2.31-.9-3.57-2.7-3.77v-.49h5.75v4.33h.38c1.57-3.14 3.58-4.71 6.03-4.71 2.56 0 3.84 1.58 3.84 4.74v8.56c0 1.15.18 1.96.54 2.41s1.02.67 1.99.67zm20.42.35h-3.5c-1.57 0-2.35-.87-2.35-2.6v-9.49c0-1.41-.18-2.39-.54-2.94-.36-.56-1.06-.83-2.09-.83h-.21v-.49h5.96v12.71c0 1.25.18 2.11.55 2.6.37.48 1.06.73 2.08.73h.1zm18.09-.35-.03.35h-3.32c-1.57 0-2.36-.9-2.36-2.7v-6.37c0-2.12-.16-3.59-.49-4.4-.35-.9-1.03-1.35-2.05-1.35-.79 0-1.59.45-2.4 1.35-1.49 1.66-2.23 3.3-2.23 4.92v8.55h-3.05v-12.09c0-2.31-.9-3.57-2.7-3.77v-.49h5.75v4.33h.38c1.57-3.14 3.58-4.71 6.03-4.71 2.56 0 3.85 1.58 3.85 4.74v8.56c0 1.15.18 1.96.54 2.41s1.02.67 1.99.67zm9.21.35h-3.5c-1.57 0-2.35-.87-2.35-2.6v-9.49c0-1.41-.18-2.39-.54-2.94-.36-.56-1.06-.83-2.1-.83h-.21v-.49h5.96v12.71c0 1.25.18 2.11.56 2.6.37.48 1.06.73 2.08.73h.1zm11.46-15.14h-4.68v11.53c0 1.29.16 2.16.47 2.6.32.44 1.05.66 2.2.66h.3v.35h-3.97c-1.39 0-2.09-1.18-2.09-3.53v-11.6h-2.66c-.28-.07-.43-.22-.43-.45 0-.25.14-.42.42-.48 3.05-.03 4.57-2.68 4.57-7.96h1.18v7.96h4.68v.92zm17.76-.12-6.43 16.62c-.21.63-.58 1.58-1.11 2.85-1.2 2.48-2.85 3.72-4.92 3.72h-2.05v-.38h1.35c.81 0 1.62-.34 2.42-1.01.81-.67 1.4-1.53 1.76-2.58l.9-2.51-5.47-13.47c-.53-1.29-.95-2.11-1.25-2.46-.49-.55-1.22-.83-2.22-.83h-.21v-.48h5.32l5.38 13.8 5.27-13.69c.12-.32.32-.49.62-.49.44 0 .66.21.66.63.02.07 0 .16-.02.28zm-23.48 22.55h-2.94c-.32 0-.52-.18-.58-.54v-4.24c0-.46-.03-.75-.1-.88-.1-.16-.33-.24-.7-.24h-.04v-.13h1.7v4.98c0 .36.04.58.1.64 0 .08.35.12 1.05.12h1.51zm3.96 0h-2.94c-.32 0-.52-.18-.58-.54v-4.24c0-.46-.03-.75-.1-.88-.1-.16-.33-.24-.7-.24h-.04v-.13h1.7v4.98c0 .36.04.58.1.64 0 .08.35.12 1.05.12h1.51zm4.07-.54c.01.04.02.06.02.08 0 .04-.01.07-.04.11-.37.29-.89.43-1.56.43-.96 0-1.65-.25-2.06-.76-.41-.5-.61-1.33-.61-2.48 0-1.04.2-1.8.61-2.28s1.06-.71 1.95-.71c.54 0 1.02.09 1.45.26v.98h-.12c-.02-.3-.15-.53-.41-.7s-.61-.26-1.05-.26c-.55 0-.95.22-1.2.66s-.38 1.12-.38 2.04c0 1.96.62 2.94 1.86 2.94.33 0 .67-.07 1.03-.21.3-.12.44-.17.42-.17.03.02.06.03.09.07zm-112.96-44.37c2.5 0 4.29.56 5.37 1.68s1.62 3.02 1.62 5.69c0 3.17-.76 5.28-2.28 6.35-1.02.73-2.85 1.09-5.48 1.09h-1.77c-.37 0-.68-.14-.94-.43-.25-.29-.38-.65-.38-1.11v-10.35c0-1.07-.09-1.75-.28-2.05-.24-.38-.8-.58-1.66-.58h-.09v-.29zm-.13 14.06c1.92 0 3.25-.51 4-1.53.7-.95 1.04-2.65 1.04-5.09 0-2.49-.34-4.23-1.01-5.22s-1.92-1.49-3.74-1.49h-1.94v13.33zm17.09.43c-.92.35-1.88.53-2.86.53-1.65 0-2.95-.48-3.89-1.45-.94-.96-1.41-2.3-1.41-4 0-3.37 1.5-5.05 4.49-5.05 1.12 0 2.06.31 2.81.92.68.57 1.02 1.21 1.02 1.94 0 .34-.12.62-.37.83s-.59.32-1.01.32h-3.71c-.77 0-1.15.39-1.15 1.17 0 1.06.29 2.03.86 2.9.77 1.18 1.88 1.77 3.33 1.77.29 0 .64-.05 1.08-.15.43-.1.69-.15.78-.15.08 0 .15.04.19.11v.09c.01.08-.05.16-.16.22zm-3.05-6.52c.92 0 1.38-.27 1.38-.81 0-.57-.2-1.08-.61-1.53s-.89-.68-1.46-.68c-1.39 0-2.15 1.01-2.28 3.02z" fill="#010101"/><path d="m55.56 31.63c-.21-1.05-.92-1.58-2.11-1.58-.58 0-1.05.16-1.39.47-.35.31-.52.72-.52 1.21 0 .57.61 1.22 1.82 1.96s1.94 1.22 2.18 1.45c.6.54.9 1.21.9 2 0 .87-.32 1.56-.95 2.08s-1.49.78-2.57.78c-.78 0-1.5-.16-2.15-.49-.57-.27-.85-.52-.85-.74 0-.2.1-.3.3-.3.03 0 .09.03.19.09.89.52 1.66.79 2.3.79 1.36 0 2.04-.51 2.04-1.54 0-.57-.28-1.06-.85-1.49-.03-.03-.71-.44-2.04-1.24-1.34-.8-2-1.68-2-2.64 0-.87.32-1.57.95-2.12s1.45-.82 2.46-.82 1.84.16 2.49.49v1.64zm15.42 8.54c0 1.51-.31 2.58-.93 3.21s-1.69.95-3.21.95h-.49v-.25h.43c.85 0 1.45-.25 1.8-.76.35-.5.52-1.32.52-2.44v-2.71h-.21c-.7 1.23-1.63 1.85-2.79 1.85-1.14 0-2.04-.45-2.72-1.34-.68-.9-1.01-2.11-1.01-3.67 0-1.76.32-3.12.97-4.08s1.54-1.44 2.67-1.44c.95 0 1.82.38 2.6 1.15.53.53 1.31.8 2.37.81zm-1.88-7.63c-.54-1.46-1.32-2.19-2.34-2.19-1.52 0-2.28 1.45-2.28 4.37 0 2.97.73 4.45 2.19 4.45.74 0 1.33-.32 1.77-.96s.66-1.53.66-2.66zm14.15 7.03-.02.21h-2.05c-.97 0-1.45-.55-1.45-1.66v-3.92c0-1.31-.1-2.21-.3-2.71-.21-.55-.63-.83-1.26-.83-.49 0-.98.28-1.48.83-.91 1.02-1.37 2.03-1.37 3.02v5.26h-1.88v-7.43c0-1.42-.55-2.19-1.66-2.32v-.3h3.54v2.66h.23c.97-1.93 2.2-2.9 3.71-2.9 1.58 0 2.36.97 2.36 2.92v5.26c0 .71.11 1.2.33 1.48s.63.42 1.23.42h.07z" fill="#010101"/><path d="m30 74.3h-.13v5.55h.86v-5.55h-.14zm5.67 1.47c-.02 0-.03.01-.05.01-.03 0-.06-.01-.09-.01-.57 0-.98.28-1.21.59l-.03-.5h-.79c.03.33.03.66.03 1.08v2.91h.87v-2.41a1.06 1.06 0 0 1 .95-1.07c.63.04.86.55.86 1.17v2.3h.86v-2.38c.01-1.36-.84-1.69-1.4-1.69zm5.08.09v-.96l-.14.04v-.04l-.71.22v.73h-.62v.55h.62v2.17c0 .47.08.82.28 1.04.17.19.44.31.78.31.03 0 .06-.01.09-.01.01 0 .03.01.04.01.28 0 .5-.05.64-.1l-.03-.55-.13.03v-.03c-.08.03-.18.04-.31.04-.38-.01-.52-.29-.52-.77v-2.14h1.05v-.55h-1.04zm5.04-.09c-.03 0-.05.01-.07.01s-.04-.01-.06-.01c-1.16 0-1.88.95-1.88 2.15s.74 2.01 1.96 2.01c.03 0 .05-.01.08-.01.02 0 .03.01.05.01.64 0 1.08-.14 1.34-.26l-.13-.52c-.04.02-.09.03-.12.04l-.01-.04c-.25.11-.56.19-1.02.2-.7-.02-1.29-.42-1.31-1.37h2.8c.02-.08.03-.19.03-.34-.02-.72-.35-1.87-1.66-1.87zm-1.17 1.7c.06-.49.36-1.12 1.04-1.16.74.05.94.72.93 1.16zm7.09-1.69c-.03 0-.06-.01-.09-.01-.42 0-.8.26-1.01.67l-.02-.58h-.78c.02.37.03.77.03 1.25v2.74h.87v-2.14c0-.11.01-.23.02-.34.1-.52.45-.9.94-.92.05 0 .1 0 .15.01v-.01c.04 0 .09 0 .13.01v-.69c-.07-.01-.12-.02-.2-.02-.01.02-.03.03-.04.03zm3.01-1.49c-.03 0-.04.03-.07.03s-.04-.03-.07-.03c-.27 0-.45.2-.45.46 0 .24.17.44.44.44h.01c.03 0 .04-.02.07-.03.02 0 .04.03.06.03h.01c.28 0 .45-.21.45-.44-.01-.26-.19-.46-.45-.46zm-.36 1.57h-.14v3.99h.86v-3.99h-.13zm5.26-.09c-.03 0-.06.01-.09.01-.02 0-.03-.01-.04-.01-1.1 0-1.98.78-1.98 2.12 0 1.26.84 2.05 1.91 2.05h.01c.03 0 .06-.01.09-.01.01 0 .02.01.04.01h.01c.95 0 1.98-.64 1.98-2.13-.01-1.2-.78-2.04-1.93-2.04zm-1.23 2.1c0-.73.36-1.48 1.15-1.53.8.05 1.13.85 1.13 1.51 0 .88-.49 1.5-1.15 1.54-.67-.05-1.13-.68-1.13-1.52zm7.44-2.09c-.03 0-.06-.01-.09-.01-.42 0-.79.26-1.01.67l-.02-.58h-.77c.03.37.03.77.03 1.25v2.74h.87v-2.14c0-.11.01-.23.02-.34.1-.52.45-.9.94-.92.05 0 .1 0 .15.01v-.01c.04 0 .09 0 .14.01v-.69c-.07-.01-.13-.02-.2-.02-.03.02-.04.03-.06.03zm5.07-1.48h-.14v.61h1.69v4.94h.86v-4.94h1.7v-.61h-.14zm9.32 1.56h-.87v2.44c0 .14-.02.27-.07.37-.12.31-.44.62-.88.66-.6-.04-.83-.53-.83-1.26v-2.2h-.86v2.33c0 1.4.75 1.75 1.38 1.75.02 0 .03-.01.04-.01.03 0 .06.01.09.01.6 0 .99-.3 1.21-.59l.03.5h.79c-.02-.31-.03-.68-.03-1.1zm4.58-.08c-.03 0-.06-.01-.09-.01-.42 0-.79.26-1.01.67l-.02-.58h-.78c.02.37.03.77.03 1.25v2.74h.87v-2.14c0-.11.01-.23.03-.34.1-.52.45-.9.94-.92.05 0 .1 0 .15.01v-.01c.05 0 .09 0 .14.01v-.69c-.07-.01-.12-.02-.2-.02-.03.02-.05.03-.06.03zm4.63-.01c-.02 0-.03.01-.05.01-.03 0-.06-.01-.09-.01-.57 0-.98.28-1.21.59l-.03-.5h-.77c.02.33.03.66.03 1.08v2.91h.85v-2.41c0-.12.02-.25.05-.34.13-.38.47-.69.9-.73.63.04.86.55.86 1.17v2.3h.86v-2.38c.01-1.36-.84-1.69-1.4-1.69zm7.37.09h-1l-1.18 1.37c-.07.09-.15.2-.22.3v-3.53h-.86v5.85h.86v-1.5l.3-.33 1.3 1.83h1.02l-1.76-2.35zm3.97-.09c-.02 0-.05.01-.07.01s-.04-.01-.07-.01c-1.16 0-1.88.95-1.88 2.15s.74 2.01 1.96 2.01c.03 0 .05-.01.09-.01.02 0 .03.01.05.01.63 0 1.08-.14 1.34-.26l-.13-.52c-.04.02-.09.03-.12.04l-.01-.04c-.25.11-.56.19-1.02.2-.7-.02-1.29-.42-1.31-1.37h2.8c.02-.08.02-.19.02-.34-.01-.72-.35-1.87-1.65-1.87zm-1.17 1.7c.05-.49.36-1.12 1.05-1.16.74.05.94.72.93 1.16zm7.82-1.61h-.14l-.79 2.34c-.07.22-.14.43-.2.63-.06-.2-.13-.42-.2-.62l-.87-2.36h-.92l1.47 3.68c.04.09.06.15.06.19s-.03.1-.06.17c-.17.37-.41.65-.61.81-.21.18-.45.29-.63.35l.18.6c.03-.01.08-.03.12-.04l.01.04c.18-.03.53-.16.89-.46.49-.44.85-1.13 1.37-2.5l1.08-2.84h-.76zm8.16.85c-.77-.3-1.1-.55-1.1-1.07 0-.36.28-.79.98-.82.46.02.81.15.97.26l.02-.05c.03.02.09.04.12.05l.2-.6c-.24-.13-.66-.27-1.22-.27-.02 0-.04.01-.06.01-.03 0-.05-.01-.08-.01-1.08 0-1.8.65-1.8 1.51 0 .77.56 1.25 1.47 1.56.75.28 1.05.58 1.05 1.1 0 .54-.41.91-1.09.93-.47-.01-.9-.16-1.21-.34l-.02.05c-.04-.02-.08-.03-.12-.05l-.19.59c.3.2.88.36 1.42.36.02 0 .03-.01.04-.01.03 0 .06.01.09.01 1.31 0 1.94-.75 1.94-1.6 0-.8-.47-1.25-1.41-1.61zm5.76-.94c-.03 0-.06.01-.09.01-.02 0-.03-.01-.04-.01-1.1 0-1.98.78-1.98 2.12 0 1.26.84 2.05 1.92 2.05.03 0 .06-.01.09-.01.02 0 .03.01.04.01h.01c.95 0 1.98-.64 1.98-2.13-.01-1.2-.79-2.04-1.93-2.04zm-1.24 2.1c0-.73.36-1.48 1.15-1.53.8.05 1.13.85 1.13 1.51 0 .88-.49 1.5-1.15 1.54-.66-.05-1.13-.68-1.13-1.52zm5.72-3.87h-.14v5.85h.86v-5.85h-.13zm6.93 1.86h-.86v2.44c0 .14-.03.27-.06.37-.13.31-.44.62-.88.66-.6-.04-.83-.53-.83-1.26v-2.2h-.87v2.33c0 1.4.75 1.75 1.38 1.75.02 0 .03-.01.05-.01.03 0 .06.01.09.01.6 0 .99-.3 1.21-.59l.03.5h.79c-.02-.31-.04-.68-.04-1.1v-2.9zm3.73 0v-.96l-.14.04v-.04l-.71.22v.73h-.61v.55h.61v2.17c0 .47.08.82.28 1.04.17.19.44.31.78.31.03 0 .06-.01.09-.01.02 0 .03.01.04.01.28 0 .5-.05.64-.1l-.03-.55-.13.03v-.03c-.08.03-.18.04-.31.04-.38-.01-.51-.29-.51-.77v-2.14h1.04v-.55h-1.04zm3.86-1.57c-.03 0-.04.03-.07.03-.02 0-.04-.03-.07-.03-.27 0-.45.2-.45.46 0 .24.17.44.44.44h.01c.03 0 .04-.02.07-.03.02 0 .04.03.06.03h.01c.28 0 .45-.21.45-.44-.01-.26-.19-.46-.45-.46zm-.36 1.57h-.14v3.99h.86v-3.99h-.13zm5.26-.09c-.03 0-.06.01-.09.01-.02 0-.03-.01-.04-.01-1.09 0-1.98.78-1.98 2.12 0 1.26.84 2.05 1.91 2.05h.01c.03 0 .06-.01.09-.01.01 0 .02.01.04.01h.01c.95 0 1.98-.64 1.98-2.13 0-1.2-.78-2.04-1.93-2.04zm-1.23 2.1c0-.73.36-1.48 1.15-1.53.8.05 1.13.85 1.13 1.51 0 .88-.49 1.5-1.15 1.54-.66-.05-1.13-.68-1.13-1.52zm7.71-2.1c-.02 0-.03.01-.05.01-.03 0-.06-.01-.09-.01-.57 0-.98.28-1.21.59l-.03-.5h-.78c.03.33.04.66.04 1.08v2.91h.87v-2.41c0-.12.01-.25.05-.34.12-.38.47-.69.9-.73.63.04.86.55.86 1.17v2.3h.86v-2.38c-.02-1.36-.87-1.69-1.42-1.69zm5.52 1.77c-.52-.21-.75-.35-.75-.68 0-.28.21-.5.59-.53.33.01.61.13.75.22l.02-.05c.04.02.09.04.12.05l.18-.52c-.21-.14-.57-.25-.97-.25-.02 0-.04.01-.06.01-.03 0-.05-.01-.08-.01-.85 0-1.38.53-1.38 1.17 0 .47.34.87 1.06 1.13.53.2.73.38.73.72 0 .32-.23.56-.69.59-.34-.02-.69-.15-.9-.27l-.02.05c-.04-.02-.09-.03-.12-.05l-.17.54c.28.17.68.28 1.12.28.02 0 .04-.01.06-.01s.05.01.07.01c.93 0 1.48-.5 1.48-1.2.01-.6-.36-.95-1.04-1.2z" fill="#414142"/></svg>