<svg xmlns="http://www.w3.org/2000/svg" width="2500" height="2500" viewBox="0 0 192.756 192.756"><g fill-rule="evenodd" clip-rule="evenodd"><path fill="#fff" d="M0 0h192.756v192.756H0V0z"/><path d="M145.201 144.912l2.67-.045 4.07 3.348c2.398-.363 4.84-.725 7.328-.906l-4.072-10.492-2.035-4.117 3.258-.045 10.176 14.066 6.469.271c2.443.137 5.473.361 5.518 1.855 0 1.447-2.984 1.809-5.428 2.035l-6.467.543-9.635 14.428-3.303.045 1.9-4.16 3.664-10.629c-2.443-.092-4.885-.408-7.328-.635l-3.936 3.484-2.668.045 2.08-4.568-2.261-4.523z" fill="#c82e37"/><path d="M145.201 144.822l2.67-.092 4.07 3.348c2.398-.316 4.84-.725 7.328-.904l-4.072-10.494-2.035-4.07 3.258-.092 10.176 14.068 6.469.316c2.443.09 5.473.361 5.518 1.809 0 1.494-2.984 1.811-5.428 2.035l-6.467.543-9.635 14.43-3.303.045 1.9-4.115 3.664-10.676c-2.443-.09-4.885-.361-7.328-.633l-3.936 3.482-2.668.045 2.08-4.568-2.261-4.477z" fill="#c82e37"/><path d="M26.832 123.924v-6.016c-10.358 12.619-14.972 22.615-11.534 27.275.407.543.905.949 1.447 1.357-1.357-4.749 2.397-12.755 10.087-22.616zM171.754 29.572c-4.344-5.88-20.49-1.899-41.93 8.956h8.729c16.375-7.599 28.857-10.539 34.059-7.192a5.342 5.342 0 0 0-.858-1.764z" fill="#9ca2a7"/><path fill="#2e6baa" d="M26.424 79.281h137.549v50.569H26.424V79.281z"/><path fill="#fff" d="M31.038 83.804h19.857v7.599h-5.338v33.833h-9.182V91.403h-5.337v-7.599zM61.569 89.142v1.945c1.222-1.402 2.94-2.352 5.519-2.352 6.016 0 7.373 3.8 7.373 10.945v6.695h-8.549v-7.418c0-2.533-.045-3.754-1.945-3.754-1.854 0-1.945 1.266-1.945 3.754v26.279h-8.548V89.142h8.095zM89.522 106.33v9.092c0 2.486-.045 3.754-1.945 3.754s-1.945-1.223-1.945-3.754v-1.584-.543c0-2.805.136-4.795 3.89-6.965zm-11.579-6.332h7.689v-1.449c0-2.17.181-3.346 1.945-3.346s1.945 1.086 1.945 3.346v1.223c-9.001 3.754-12.303 5.336-12.303 12.258v5.336c0 5.52 2.668 8.459 7.282 8.459 2.171 0 3.98-.814 5.428-2.533v1.945h8.141v-26.28c0-7.102-2.894-10.358-10.267-10.358-6.649 0-9.86 2.895-9.86 9.045v2.354zM112.002 118.316c1.312-3.891 1.945-9.137 1.945-15.74V89.142h8.549v14.61c0 9.361-2.035 16.645-5.699 21.484h-9.545c-3.662-4.84-5.744-12.123-5.744-21.484v-14.61h8.596v13.435c0 6.603.722 11.849 1.898 15.739zM134.211 99.229c0-2.805.09-4.026 2.08-4.026s2.035 1.221 2.035 4.026v2.713h-4.115v-2.713zm12.711 9.316v-8.367c0-7.87-2.309-11.579-10.631-11.579s-10.629 3.754-10.629 11.579v14.021c0 7.871 2.307 11.58 10.629 11.58s10.631-3.709 10.631-11.58v-3.572h-8.596v4.795c0 2.396-.045 3.754-2.035 3.754s-2.08-1.223-2.08-3.754v-6.877h12.711zM150.584 83.804h8.549v41.432h-8.549V83.804z"/><path d="M174.059 32.647c-.406-.498-.857-.95-1.447-1.312 1.268 4.388-1.943 11.715-8.639 20.716V34.638H26.424v23.566h137.548c9.319-11.806 13.389-21.123 10.087-25.557z" fill="#c82e37"/><path d="M26.289 71.049h3.573c.045 1.267.543 1.357 1.583 1.357h4.388c.769 0 1.538-.09 1.538-.996 0-1.04-.407-1.085-5.066-1.085-5.383 0-6.016-.634-6.016-3.528 0-2.126.181-3.754 4.75-3.754h5.021c4.162 0 4.523 1.402 4.523 3.438v.407H37.01c0-.86-.09-1.222-1.764-1.222h-3.98c-.814 0-1.357.271-1.357.905 0 .995.407 1.041 4.297 1.041 5.608-.046 6.875.316 6.875 3.754 0 3.166-1.041 3.664-5.835 3.664h-4.388c-3.256 0-4.568-.634-4.568-3.167v-.814h-.001zM55.011 66.074h5.292c1.085 0 1.493.452 1.493 1.266v.453c0 .679-.316 1.221-1.176 1.221h-5.608v-2.94h-.001zm-3.574 8.82h3.574v-2.94h7.192c2.533 0 3.302-2.035 3.302-3.754v-1.041c0-2.261-.859-4.025-4.252-4.025h-9.815v11.76h-.001zM78.983 68.38c0-1.447.362-2.352 2.262-2.352h4.207c1.9 0 2.262.905 2.262 2.352v1.267c0 1.719-.362 2.352-2.036 2.352h-4.613c-1.719 0-2.081-.633-2.081-2.352V68.38h-.001zm-3.709 2.398c0 3.438 1.945 4.252 5.202 4.252h5.789c3.212 0 5.157-.814 5.157-4.252v-3.483c0-3.438-1.945-4.251-5.157-4.251h-5.789c-3.257 0-5.202.814-5.202 4.251v3.483zM105.309 66.074h5.652c1.133 0 1.629.181 1.629 1.221v.407c0 .86-.361 1.222-1.311 1.222h-5.971v-2.85h.001zm-3.62 8.82h3.619v-3.031h5.652c1.133 0 1.494.407 1.494 1.628v1.402h3.617v-1.99c0-1.945-.904-2.397-1.988-2.578v-.045c1.672-.407 2.035-1.312 2.035-2.895v-.724c0-2.126-.77-3.528-3.529-3.528h-10.9v11.761zM125.797 63.134h13.707v2.94h-5.066v8.82h-3.575v-8.82h-5.066v-2.94zM149.002 71.049h3.617c0 1.267.498 1.357 1.539 1.357h4.432c.725 0 1.539-.09 1.539-.996 0-1.04-.453-1.085-5.066-1.085-5.428 0-6.061-.634-6.061-3.528 0-2.126.227-3.754 4.748-3.754h5.021c4.162 0 4.568 1.402 4.568 3.438v.407h-3.619c0-.86-.09-1.222-1.764-1.222h-3.98c-.814 0-1.357.271-1.357.905 0 .995.453 1.041 4.299 1.041 5.607-.046 6.875.316 6.875 3.754 0 3.166-1.041 3.664-5.836 3.664h-4.387c-3.258 0-4.568-.634-4.568-3.167v-.814z" fill="#9ca2a7"/><path d="M145.383 147.896H23.167c-2.714.047-4.885-.406-6.423-1.355.181.633.498 1.221.86 1.764 1.13 1.537 3.076 2.396 5.699 2.623v-.09h122.169l.68-1.447-.769-1.495z" fill="#2e6baa"/><path d="M78.124 38.89c-6.196-2.624-13.795-3.89-20.489-.678-.859.452-1.086 1.447-1.086 2.307.543.452 1.176.226 1.9.136.181-.136.498-.181.453-.452-.317-.453-.95-.181-1.402-.407.181-.227.497-.227.724-.407 6.649-2.126 13.705-1.131 19.676 1.854 3.166 1.583 6.332 4.161 6.016 7.96-.633 3.709-5.337 5.021-9.046 5.609-.814.136-1.538.136-2.352-.045a142.993 142.993 0 0 0-1.085-6.288c1.538-.362 4.568-.407 6.649.136.452.181-.543 1.131-.904 1.583-.182.316.724.407 1.266.271.814-.271 1.447-1.085 1.628-1.945.136-.769-.316-1.312-.859-1.719-2.397-1.447-5.292-.995-8.142-.588-.181-.995-.453-2.443-.769-3.302-.362-.86-.859-1.222-1.538-1.222-.407.679-.362 1.448-.317 2.216.045.996.136 2.081.181 2.986 0 0-1.493.542-2.353.904-.904.361-4.251 2.081-3.664 3.845.679 1.538 3.528 3.075 5.473 3.89.633.271 1.267.498 1.99.724.181.814.452 1.628 1.131 2.171.181.136.814-.045 1.267-.226.542-.317.452-.95.407-1.448.633 0 1.402.09 2.488.045 4.388-.181 9.408-2.262 11.037-6.92 1.266-4.433-2.804-7.825-5.699-9.634-.41-.225-1.858-1.085-2.581-1.356zm10.222-4.614c-2.035.724-4.161 2.397-4.478 4.659 0 .904.317 1.673 1.041 2.126 0 .542.045 1.312.724 1.583.679.226.724-.542.995-.904 2.081.453 3.754-.769 5.021-2.126.995-1.176 2.171-2.578 1.357-4.071-.407-.543-1.131-.814-1.764-.724-.815-.724-1.901-.86-2.896-.543zm-.905 2.216c-.859.859-1.538 1.9-2.035 3.031-.453-.588 0-1.312.362-1.899.362-.499.95-1.041 1.673-1.132zm4.434-.09c.316.543-.317 1.628-.95 2.171-1.04.814-2.216 1.493-3.709 1.583.09-.588.407-1.04.859-1.718.859-1.131 2.035-2.579 3.393-2.352.135-.001.271.044.407.316zm13.389 2.442c-.363 0-.227.498-.092.769.77 1.854 1.719 3.528 2.217 5.518.135.407.361.905.135 1.312-1.764-1.583-2.984-3.619-5.064-4.885-.316-.181-.635.091-.725.452-.543 1.81-.543 3.709-.361 5.699.09 1.086.135 2.488 1.312 2.85.316.045.768-.045.812-.361.227-1.674-.135-3.483-.361-5.292-.045-.136.045-.498.137-.362a59.72 59.72 0 0 0 2.984 3.618c.498.634.994 1.222 1.764 1.041.725-.226 1.268-.904 1.492-1.583.453-2.624-.588-5.428-2.17-7.283-.543-.633-1.221-1.447-2.08-1.493zm14.925-.633c-1.447 2.442-2.85 5.563-.904 8.096-.543 2.714-.951 5.473-.635 8.322.137.724.814 1.267 1.494 1.538.225.045.768.271.814 0 0-2.804.27-5.563.768-8.323.951-.045 1.492-.136 2.623-.904 1.9-1.312 3.529-3.799 3.213-6.197-.182-1.312-.859-2.397-2.082-2.94-.361-.181-.723 0-1.039.181-1.945 1.583-4.025 4.885-4.434 6.242-.496-2.397 1.312-4.297 1.131-6.559-.089-.586-.769.182-.949.544zM98.75 41.604c-2.986 0-6.243.678-8.007 3.076-.316.452-.181 1.176-.045 1.674.136.316.588.633.95.678 2.397.136 5.247-.995 7.463.226.271.271.135.633-.137.859-1.719 1.041-3.572 1.9-5.743 1.809-.317-.045-.814-.271-.724-.588.679-1.447 2.307-.407 3.393-.407.588.045 1.719-.317 2.217-1.041.135-.362-.543-.498-.996-.543-1.583-.135-3.799-.271-5.066.905-.362.362-.543 1.221-.136 1.854 1.447 1.674 3.8 1.945 5.834 1.267 1.402-.452 3.031-1.222 3.121-2.895 0-1.041-.271-2.171-1.266-2.759-2.217-.996-4.931.181-7.283-.317-.091-.09-.045-.136.09-.226 2.216-1.131 4.976-1.312 7.327-2.261.316-.182.543-.814.363-1.041-.406-.27-.859-.27-1.355-.27zm17.277-2.986c-1.402.045-4.207 1.085-6.197 1.719-.27.091-.135.317-.045.498.318.814 1.176.543 1.811.724-.137.588-.182 1.222-.453 1.764-.271.181-.814.181-.77.678 0 .317.271.453.318.859-.182.86-.588 1.81-.227 2.85.451.86 1.039 1.81 1.764 1.854 2.172.046 3.754-1.447 5.156-2.895.227-.362-.453-1.131-.633-1.131-1.492.091-2.715.95-4.162 1.131 0-.724.092-1.312.316-1.945 1.178-.407 2.986-.452 3.574-1.085.18-.271-.045-1.041-.227-1.086-.949-.181-2.125.136-2.984.316.045-.452.135-.995.18-1.492.77-.045 1.539-.226 2.217-.407.723-.181 1.629-.181 2.035-.859.09-.316-.588-1.04-.949-1.221-.407-.182-.542-.272-.724-.272zm-28.043 4.75c-.407 0-.453.633-.453.904 0 2.126.271 4.433.679 6.694.181.814.227 1.945 1.312 1.99.407.045 1.176-.181 1.176-.498-.226-2.624-.995-5.518-1.628-8.142-.045-.27-.543-.903-1.086-.948zm38.221-2.262c0 1.674-1.764 3.347-2.715 3.8a2.395 2.395 0 0 1-.859.226c.363-1.402 1.539-3.89 2.896-5.563.225-.318.633.949.678 1.537zm-57.263 7.915c.181 1.9.498 4.026.724 5.382-2.171-.271-4.568-1.085-6.333-2.759-.407-.498.814-1.041 1.402-1.312 1.312-.587 2.714-.994 4.207-1.311z" fill="#fff"/><path d="M29.365 137.721v2.215h-.995l.995-2.215zm-2.805 4.115h1.041l.452-1.086h1.312v1.086h1.04l-.271-4.975h-1.221l-2.353 4.975zM34.385 137.584h.407c.769 0 .724.588.497 1.719-.271 1.357-.497 1.764-1.221 1.764h-.453l.77-3.483zm-1.9 4.252h1.583c1.312 0 1.854-.814 2.216-2.578.317-1.447.271-2.396-1.131-2.396h-1.628l-1.04 4.974zM37.235 138.082h.95l-.814 3.754h-.95l.814-3.754zm.271-1.266h.95l-.181.812h-.95l.181-.812zM40.627 138.082h.95l-1.719 3.754h-1.131l-.135-3.754h.995l-.045 2.668 1.085-2.668zM41.984 138.082h.95l-.77 3.754h-.994l.814-3.754zm.271-1.266h.95l-.181.812h-.95l.181-.812zM43.793 140.615l-.045.09c-.045.361.045.543.407.543.272 0 .498-.135.588-.406.045-.271-.091-.363-.271-.453l-.633-.227c-.498-.18-.678-.543-.588-1.039.136-.635.633-1.131 1.628-1.131.859 0 1.176.361 1.04 1.039v.182h-.859c.045-.406 0-.588-.316-.588-.271 0-.498.135-.542.406-.046.182 0 .363.316.453l.542.182c.543.225.724.496.588 1.084-.181.77-.814 1.176-1.629 1.176-1.085 0-1.266-.496-1.13-1.176l.045-.135h.859zM46.733 138.082h.95l-.769 3.754h-.996l.815-3.754zm.271-1.266h.95l-.181.812h-.95l.181-.812zM48.814 139.936c.136-.768.316-1.311.769-1.311.407 0 .453.406.272 1.311-.226.951-.408 1.312-.814 1.312-.453 0-.408-.543-.227-1.312zm-.95 0c-.271 1.312-.136 1.99 1.041 1.99 1.085 0 1.628-.678 1.899-1.99.271-1.266.091-1.99-1.085-1.943-1.086-.001-1.584.677-1.855 1.943zM51.709 138.082h.904l-.09.453h.045c.271-.408.633-.543 1.041-.543.588 0 .904.316.724 1.039l-.588 2.805h-.95l.542-2.578c.09-.406 0-.543-.316-.543-.317 0-.543.227-.633.633l-.498 2.488h-.995l.814-3.754zM57.272 139.936c.181-.768.362-1.311.814-1.311.407 0 .452.406.226 1.311-.181.951-.407 1.312-.769 1.312-.497 0-.406-.543-.271-1.312zm-.95 0c-.271 1.312-.09 1.99 1.085 1.99 1.086 0 1.583-.678 1.854-1.99.316-1.266.136-1.99-1.04-1.943-1.084-.001-1.627.677-1.899 1.943zM60.257 138.715h-.497l.135-.633h.498l.091-.406c.135-.68.588-.906 1.221-.906h.498l-.136.68h-.226c-.272 0-.362.09-.408.316l-.09.316h.588l-.136.633h-.588l-.633 3.121h-.95l.633-3.121zM64.374 136.996h.95l-.226 1.086h.543l-.136.633h-.543l-.452 2.035c-.045.316 0 .408.271.408h.226l-.136.678c-.226 0-.452.045-.633.045-.769 0-.859-.271-.724-.994l.498-2.172h-.498l.136-.633h.497l.227-1.086zM66.228 136.861h.95l-.317 1.582c.272-.316.634-.451 1.041-.451.588 0 .86.316.724 1.039l-.588 2.805h-.995l.588-2.578c.045-.406-.045-.543-.317-.543-.317 0-.542.227-.633.633l-.543 2.488h-.95l1.04-4.975zM69.982 139.529v-.135c.091-.363.271-.77.679-.77s.407.316.271.904h-.95v.001zm1.765.588l.045-.227c.226-1.176.136-1.898-.95-1.898-1.312 0-1.718.904-1.899 1.943-.226.906-.407 1.99.995 1.99.904 0 1.447-.496 1.674-1.355h-.86c-.181.451-.362.678-.678.678-.362 0-.362-.406-.271-.859l.045-.271h1.899v-.001zM74.325 136.861h.994l-.271 3.662h.045l1.357-3.662h.95l-.181 3.662 1.357-3.662h.95l-1.99 4.975H76.45l.181-3.617-1.312 3.617h-1.13l.136-4.975zM80.702 140.705c-.09.408-.453.543-.724.543-.271 0-.317-.227-.226-.498.045-.361.226-.543.633-.633.136 0 .317-.09.452-.182l-.135.77zm-.588-1.492l.045-.09c.045-.271.226-.498.543-.498s.407.182.317.451c-.046.271-.136.363-.453.453l-.588.137c-.679.18-1.041.496-1.176 1.176-.136.496 0 1.084.679 1.084.452 0 .724-.09 1.04-.496 0 .135 0 .271.045.406h.905c-.045-.227 0-.406.045-.723l.453-1.99c.135-.68 0-1.131-1.131-1.131-.724 0-1.402.271-1.583 1.131v.09h.859zM83.145 136.861h.949l-1.04 4.975h-.95l1.041-4.975zM84.954 136.996h.95l-.227 1.086h.588l-.181.633h-.543l-.407 2.035c-.09.316-.045.408.226.408h.226l-.136.678c-.226 0-.407.045-.633.045-.769 0-.859-.271-.678-.994l.452-2.172h-.498l.136-.633h.498l.227-1.086zM89.432 137.584h.407c.769 0 .769.588.498 1.719-.271 1.357-.498 1.764-1.221 1.764h-.407l.723-3.483zm-1.9 4.252h1.583c1.312 0 1.854-.814 2.216-2.578.316-1.447.271-2.396-1.086-2.396h-1.673l-1.04 4.974zM92.281 138.082h.95l-.814 3.754h-.95l.814-3.754zm.272-1.266h.95l-.181.812h-.95l.181-.812zM94.09 140.615l-.045.09c-.045.361.045.543.407.543.271 0 .497-.135.543-.406.09-.271-.046-.363-.227-.453l-.633-.227c-.498-.18-.678-.543-.588-1.039.136-.635.634-1.131 1.629-1.131.859 0 1.176.361 1.04 1.039v.182h-.904c.09-.406.045-.588-.271-.588-.271 0-.498.135-.543.406-.045.182 0 .363.316.453l.543.182c.543.225.724.496.588 1.084-.181.77-.814 1.176-1.628 1.176-1.085 0-1.267-.496-1.131-1.176l.045-.135h.859zM96.986 138.082h.95l-.137.453h.047c.271-.408.633-.543 1.039-.543.633 0 .904.316.725 1.039l-.588 2.805h-.952l.543-2.578c.092-.406 0-.543-.271-.543-.361 0-.588.227-.633.633l-.543 2.488h-.95l.77-3.754zM100.965 139.529l.047-.135c.09-.363.271-.77.678-.77.361 0 .361.316.271.904h-.996v.001zm1.81.588l.045-.227c.227-1.176.135-1.898-.996-1.898-1.266 0-1.672.904-1.898 1.943-.182.906-.361 1.99 1.039 1.99.906 0 1.402-.496 1.629-1.355h-.859c-.135.451-.316.678-.633.678-.361 0-.406-.406-.316-.859l.09-.271h1.899v-.001zM102.775 142.334h.271c.361 0 .498-.182.633-.498l-.271-3.754h.994v2.578h.047l.994-2.578h.996l-1.674 3.482c-.588 1.312-.859 1.492-1.719 1.492h-.408l.137-.722zM111.641 136.861l-.182.815h-1.086l-.859 4.16h-.994l.859-4.16h-1.086l.182-.815h3.166zM111.279 138.082h.904l-.09.498c.27-.361.588-.588.994-.588h.182l-.227.904h-.271c-.316 0-.77.18-.859.678l-.453 2.262h-.994l.814-3.754zM114.762 140.705a.693.693 0 0 1-.678.543c-.273 0-.318-.227-.273-.498.092-.361.273-.543.68-.633.135 0 .271-.09.451-.182l-.18.77zm-.543-1.492v-.09c.045-.271.271-.498.543-.498.316 0 .406.182.361.451-.045.271-.182.363-.498.453l-.541.137c-.725.18-1.041.496-1.223 1.176-.09.496 0 1.084.68 1.084.451 0 .768-.09 1.084-.496 0 .135 0 .271.045.406h.906c-.045-.227-.045-.406.045-.723l.406-1.99c.137-.68.045-1.131-1.131-1.131-.723 0-1.355.271-1.537 1.131v.09h.86zM118.697 138.082h.949l-1.718 3.754h-1.086l-.182-3.754h.996l-.045 2.668 1.086-2.668zM120.551 139.529v-.135c.09-.363.271-.77.678-.77.408 0 .408.316.271.904h-.949v.001zm1.763.588l.045-.227c.227-1.176.137-1.898-.949-1.898-1.311 0-1.719.904-1.898 1.943-.227.906-.408 1.99.994 1.99.904 0 1.447-.496 1.674-1.355h-.904c-.137.451-.316.678-.635.678-.361 0-.406-.406-.271-.859l.047-.271h1.897v-.001zM123.537 136.861h.949l-1.041 4.975h-.949l1.041-4.975zM128.646 138.535c.137-.725.047-1.041-.406-1.041-.498 0-.723.498-1.041 1.9-.316 1.492-.135 1.764.271 1.764.363 0 .68-.182.906-1.223h.994c-.227 1.041-.678 1.99-1.99 1.99-1.492 0-1.447-1.084-1.131-2.578.316-1.537.725-2.578 2.217-2.578 1.447 0 1.311 1.041 1.176 1.766h-.996zM130.729 139.936c.18-.768.361-1.311.814-1.311.406 0 .451.406.225 1.311-.18.951-.406 1.312-.768 1.312-.498 0-.408-.543-.271-1.312zm-.952 0c-.27 1.312-.09 1.99 1.086 1.99 1.086 0 1.584-.678 1.855-1.99.316-1.266.135-1.99-1.041-1.943-1.085-.001-1.628.677-1.9 1.943zM133.668 138.082h.904l-.09.361a1.47 1.47 0 0 1 1.086-.451c.406 0 .678.227.723.588.227-.408.635-.588 1.086-.588.633 0 .859.406.678 1.131l-.588 2.713h-.949l.588-2.623c.045-.316-.045-.498-.271-.498-.316 0-.588.227-.678.633l-.498 2.488h-.949l.543-2.623c.045-.316 0-.498-.271-.498-.316 0-.543.227-.635.633l-.543 2.488h-.949l.813-3.754zM139.504 139.936c.135-.812.316-1.221.768-1.221.408 0 .408.408.227 1.221-.182.814-.361 1.223-.77 1.223-.407-.001-.407-.409-.225-1.223zm-1.629 3.121h.949l.316-1.582h.045c.137.316.318.451.68.451.814 0 1.311-.588 1.582-1.99.316-1.355.045-1.943-.723-1.943-.361 0-.68.135-.951.496l.047-.406h-.906l-1.039 4.974zM143.574 140.705c-.09.408-.453.543-.68.543-.271 0-.316-.227-.271-.498.092-.361.271-.543.68-.633.135 0 .271-.09.451-.182l-.18.77zm-.543-1.492v-.09c.045-.271.271-.498.543-.498.316 0 .406.182.361.451-.045.271-.182.363-.498.453l-.543.137c-.723.18-1.039.496-1.221 1.176-.09.496 0 1.084.678 1.084.453 0 .77-.09 1.086-.496 0 .135 0 .271.047.406h.904c-.047-.227-.047-.406.045-.723l.406-1.99c.137-.68.045-1.131-1.131-1.131-.723 0-1.357.271-1.537 1.131l-.045.09h.905zM145.744 138.082h.904l-.09.453h.045c.271-.408.635-.543 1.041-.543.588 0 .904.316.725 1.039l-.59 2.805h-.949l.543-2.578c.09-.406 0-.543-.316-.543s-.543.227-.633.633l-.498 2.488h-.994l.812-3.754zM148.369 142.334h.27c.363 0 .543-.182.635-.498l-.271-3.754h.994v2.578h.045l1.041-2.578h.949l-1.672 3.482c-.59 1.312-.859 1.492-1.721 1.492h-.406l.136-.722z" fill="#9ca2a7"/></g></svg>