<svg xmlns="http://www.w3.org/2000/svg" width="2500" height="2500" viewBox="0 0 192.756 192.756"><g fill-rule="evenodd" clip-rule="evenodd"><path fill="#fff" d="M0 0h192.756v192.756H0V0z"/><path d="M109.924 67.319c14.082 0 18.189 12.322 17.604 17.017h1.857c1.174-5.77-4.01-20.733-19.461-20.733-15.453 0-20.636 14.963-19.365 20.733h1.858c-.586-4.695 3.521-17.017 17.507-17.017z" fill="#eac13d"/><path d="M2.834 122.867v1.762c7.433 2.641 16.724 4.791 34.132 4.498 23.96-.293 54.668-7.531 79.508-11.541 26.309-4.205 50.465-6.062 73.447-.586v-1.76c-3.814-1.369-16.234-6.162-40.195-6.064-9.193.098-27.773.488-58.679 6.748-21.711 4.498-41.564 8.117-60.146 8.9-5.279.196-17.504.586-28.067-1.957zM13.006 96.169h-.391c-.196-1.565-.685-1.76-1.565-1.76H7.333v4.695c0 .979.391 1.174 1.173 1.174h3.423c1.564 0 2.054-.588 2.542-2.445h.391l-.293 3.324H2.834v-.488h.587c1.76 0 2.054-.488 2.054-1.76v-9.292c0-1.271-.293-1.858-1.76-1.858h-.489v-.391h10.66l.098 3.129h-.392c-.293-1.956-.782-2.347-1.564-2.347H7.333v5.477h3.912c.88 0 1.173-.392 1.369-1.663h.391v4.205h.001zM23.274 94.996l-1.271 3.52c-.196.393-.489 1.076-.489 1.369 0 .588.587.783 1.76.783h.391v.488H18.58v-.488c1.467 0 1.663-.195 2.347-2.152l4.01-10.953-.195-.489h1.956l4.596 12.225c.489 1.174.88 1.369 2.054 1.369v.488h-6.063v-.488h.586c1.174 0 1.663-.098 1.663-.686 0-.391-.098-.684-.196-.977l-1.467-4.01h-4.597v.001zm2.25-6.064l-1.858 5.085h3.814l-1.956-5.085zM40.878 99.006c0 1.369.489 1.662 1.76 1.662h.489v.488h-6.259v-.488h.391c1.271 0 1.761-.293 1.761-1.76v-9.292c0-1.369-.392-1.858-1.663-1.858h-.489v-.391c.587 0 1.858-.098 2.836-.098.88-.098 1.271-.098 2.738-.098 4.107 0 5.868 1.663 5.868 3.912 0 1.663-1.076 3.032-2.934 3.618.88.587 1.565 1.271 2.543 2.25l1.76 1.762c1.271 1.369 2.641 2.15 4.303 2.248v.391c-3.814.197-4.792-.684-6.748-2.639l-1.467-1.469c-.978-.978-1.76-1.564-2.249-1.956-.587 0-.978.098-1.565.098-.489 0-.782-.098-1.076-.098v3.718h.001zm0-4.109c.489.098.88 0 1.369 0 2.445 0 4.01-.978 4.01-3.618 0-2.054-.88-3.716-4.303-3.716-.391 0-.685 0-1.076.098v7.236zM61.709 99.104c0 1.174.391 1.564 1.76 1.564h.782v.488h-6.943v-.488h.782c1.369 0 1.761-.391 1.761-1.564V88.15h-3.814c-.88 0-1.271.489-1.663 2.444h-.391l.391-3.521h.391c0 .098.098.196.293.196.098.098.293.098.391.098h10.66c.293 0 .586-.098.685-.293h.391l.391 3.521h-.391c-.391-1.956-.783-2.444-1.663-2.444h-3.814v10.953h.001zM75.303 94.604v4.109c0 1.467.293 1.955 1.76 1.955h.098v.488h-5.574v-.488h.196c1.271 0 1.76-.293 1.76-1.564v-9.78c0-1.076-.392-1.467-1.663-1.565v-.391h5.281v.391c-1.564 0-1.858.489-1.858 2.151v3.814h8.704v-4.303c0-1.173-.391-1.663-1.76-1.663h-.391v-.391h5.672v.391c-1.369.098-1.663.489-1.663 1.858v9.194c0 1.564.392 1.857 1.761 1.857h.195v.488h-6.259v-.488h.685c1.467 0 1.76-.488 1.76-1.662v-4.402h-8.704v.001zM105.717 100.082c-2.248 1.074-4.986 1.367-5.965 1.367-4.792 0-7.042-3.715-7.042-6.943 0-3.325 2.25-7.433 7.727-7.433 2.346 0 3.91.685 4.303.685.195 0 .391 0 .586-.098h.293v3.521h-.488c-.586-2.738-2.445-3.618-4.498-3.618-3.913 0-5.869 3.227-5.869 6.846 0 4.5 3.13 6.552 5.673 6.552 1.074 0 2.15-.293 3.422-.879v-2.738c0-1.273-.488-1.762-1.76-1.762h-.783v-.391h5.869v.391c-1.076.098-1.469.488-1.469 1.467v3.033h.001zM115.791 99.006c0 1.369.488 1.662 1.76 1.662h.49v.488h-6.26v-.488h.391c1.271 0 1.762-.293 1.762-1.76v-9.292c0-1.369-.393-1.858-1.664-1.858h-.488v-.391c.488 0 1.857-.098 2.738-.098.979-.098 1.369-.098 2.836-.098 4.107 0 5.867 1.663 5.867 3.912 0 1.663-1.074 3.032-2.934 3.618.881.587 1.467 1.271 2.543 2.25l1.76 1.762c1.271 1.369 2.641 1.857 4.305 1.955v.391c-3.814.195-4.793-.391-6.748-2.346l-1.469-1.469c-.977-.978-1.76-1.564-2.346-1.956-.49 0-.881.098-1.467.098-.49 0-.783-.098-1.076-.098v3.718zm0-4.109c.488.098.783 0 1.369 0 2.445 0 4.01-.978 4.01-3.618 0-2.054-.881-3.716-4.303-3.716-.393 0-.686 0-1.076.098v7.236z" fill="#457f75"/><path d="M132.807 94.996l-1.27 3.52c-.1.393-.393 1.076-.393 1.369 0 .588.588.783 1.762.783h.391v.488h-5.086v-.488c1.369 0 1.662-.195 2.348-2.152l4.01-10.953-.195-.489h1.955l4.598 12.225c.391 1.174.879 1.369 1.955 1.369v.488h-6.062v-.488h.586c1.271 0 1.76-.098 1.76-.686 0-.391-.195-.684-.293-.977l-1.467-4.01h-4.599v.001zm2.25-6.064l-1.857 5.085h3.814l-1.957-5.085zM152.758 101.156h-5.379v-.488c1.369 0 1.664-.391 1.664-1.857v-9.39c0-1.173-.393-1.564-1.664-1.663v-.391h5.379v.391c-1.369 0-1.857.392-1.857 1.858v9.292c0 1.369.391 1.76 1.857 1.76v.488zM172.514 101.254L161.07 89.323v9.487c0 1.564.393 1.857 2.25 1.857v.488h-5.086v-.488h.098c1.369 0 1.762-.391 1.762-1.467V88.345c-.49-.391-1.076-.489-1.859-.587v-.391h3.521l10.367 10.855V89.42c0-1.369-.393-1.564-2.152-1.663v-.391h5.184v.391c-1.662 0-2.055.293-2.055 1.174v12.322h-.586v.001zM181.51 97.734c.49 1.955 2.055 3.129 3.717 3.129 1.564 0 3.131-.881 3.131-2.641 0-3.129-7.141-4.107-7.141-7.921 0-1.858 1.662-3.228 3.912-3.228 1.859 0 2.25.489 3.031.489.197 0 .295 0 .393-.196h.391l.293 2.836h-.293c-.684-1.565-2.053-2.641-3.619-2.641-1.467 0-2.445.88-2.445 2.054 0 3.129 7.043 4.01 7.043 8.118 0 2.15-1.859 3.715-4.5 3.715-1.172 0-2.738-.586-3.031-.586-.195 0-.391.098-.391.293h-.391l-.49-3.422h.39v.001z" fill="#457f75"/></g></svg>