<svg xmlns="http://www.w3.org/2000/svg" width="2500" height="2500" viewBox="0 0 192.756 192.756"><path fill-rule="evenodd" clip-rule="evenodd" fill="#fff" d="M0 0h192.756v192.756H0V0z"/><path fill-rule="evenodd" clip-rule="evenodd" fill="#2e70b2" d="M57.972 19.975h78.452V8.504H57.972v11.471zM57.357 111.74c-.205-3.072.615-5.734 2.663-7.578 3.482-3.482 6.555-6.555 10.037-10.242 1.434-1.229 2.868-2.253 5.121-1.844 1.229.614 2.253 1.639 2.663 3.072.205 3.687.41 7.375-.205 11.062-2.048 2.867-4.916 5.324-7.169 7.988l.615.818 5.121-5.121c2.049-2.252 4.097-4.096 6.146-6.145.819-.41 2.048-.615 2.867-.41.41.205.82.205 1.229.41 1.024.82 1.639 2.459 1.434 4.098.205 2.867.41 6.555.41 9.422-1.843 2.049-2.868 2.867-4.711 4.506-1.229 1.434-1.843 1.844-2.458 2.254 2.868 1.434 4.097-2.867 6.146-3.688 2.458-2.457 4.301-4.098 6.964-5.939.614 0 1.229-.205 2.048-.41 3.892-.205 5.531 3.688 8.398 5.734.615 1.025 1.639 1.436 2.459 2.254.818 1.434 2.047 2.459 3.686 2.459 2.049-.82 3.482-3.277 5.121-4.713 4.303-4.506 8.398-8.807 12.701-13.109 1.229-1.229 2.662-1.434 4.301-1.023 1.639.615 2.049 1.844 2.662 3.072-.205 3.893-.205 6.965-.41 10.652-1.434 4.096-5.734 6.35-8.396 9.832-3.893 4.096-8.193 8.398-12.086 12.289-1.844 1.229-4.096 1.844-6.145 1.023-4.098-2.047-6.76-5.939-10.242-8.807-.82-.41-1.843-1.023-2.868-.615l-1.229.615-7.169 7.578c-1.844 1.434-4.506 2.254-6.759 1.434-3.073-.818-20.893-18.844-20.893-18.844-1.434-1.434-1.844-2.662-1.844-5.326l-.208-6.758z"/><path d="M71.081 114.812c-1.434-1.639-2.868-2.867-4.301-4.301-.615-.615-.615-1.229-.205-1.639 1.434-2.254 3.892-4.096 5.94-6.35 1.844-2.049 5.326-4.301 5.121-7.784-.205-1.229-.819-1.843-1.843-2.663-1.639-.819-3.688-.41-5.121.819-1.844 2.048-3.687 3.687-5.531 5.735-2.253 2.254-5.735 4.916-7.169 8.193-.205.41-.41.615-.41 1.23-.41 2.662-.41 3.072 2.868 7.168.819 1.229 6.555 6.145 9.627 9.422 2.868 2.664 5.94 5.531 8.808 8.193 1.434 1.025 3.072.82 4.916.41 4.711-2.049 6.965-6.965 11.266-9.627 3.277-1.023 5.121 2.459 6.965 3.893 2.252 2.047 4.916 5.734 8.604 5.734 1.229 0 2.047-.41 3.686-1.434.82-.615 4.916-4.916 7.58-7.373 3.072-3.688 6.76-6.965 10.24-10.652.82-1.229 1.844-1.639 2.664-3.072 1.229-2.049.613-3.688-1.025-4.711-1.229-.82-3.277-.82-4.916.205-2.662 2.457-4.096 4.301-6.76 6.758-2.252 2.254-3.686 4.303-5.939 6.352-1.844 2.047-4.506 4.506-5.121 4.506-.613.41-1.844-.615-2.252-.82-1.639-1.434-2.664-2.662-4.508-4.301-1.842-1.844-3.686-4.098-6.35-5.121-1.638-.205-2.867-.41-5.53 1.639-3.073 2.867-5.94 5.531-8.809 8.398-3.277 1.844-4.506-1.434-7.579-4.096v-.205c2.253-2.459 4.916-4.713 6.964-7.17 1.434-1.639 3.482-2.867 4.506-5.121.205-.41.205-1.023.205-1.229-.205-1.023-.82-2.459-2.048-2.867-1.229-.41-2.458 0-3.482.613-1.843 1.639-3.072 3.072-4.711 4.916l-6.35 6.352z" fill-rule="evenodd" clip-rule="evenodd" fill="#eec76e" stroke="#eec76e" stroke-width=".173" stroke-miterlimit="2.613"/><path fill-rule="evenodd" clip-rule="evenodd" fill="#fff" d="M57.767 112.561l22.122 22.531-22.122-22.531z"/><path fill="none" stroke="#2e70b2" stroke-width=".602" stroke-miterlimit="2.613" d="M57.767 112.561l22.122 22.531"/><path fill-rule="evenodd" clip-rule="evenodd" fill="#2e70b2" d="M57.972 112.766l21.712 21.507-21.712-21.507z"/><path fill="none" stroke="#2e70b2" stroke-width=".602" stroke-miterlimit="2.613" d="M57.972 112.766l21.712 21.507"/><path fill-rule="evenodd" clip-rule="evenodd" fill="#2e70b2" d="M74.768 164.793v-11.266h4.097v1.639h-1.844v2.457h1.844v1.639h-1.844v3.892h1.844v1.639h-4.097zM85.214 160.287v2.662c0 1.639-1.229 2.049-2.458 2.049-1.434 0-2.663-.41-2.663-2.049v-7.578c0-1.639 1.229-2.049 2.663-2.049 1.229 0 2.458.41 2.458 2.049v2.047h-2.253v-1.639c0-.408 0-.818-.205-.818-.41 0-.41.41-.41.818v6.76c0 .41 0 .82.41.82.205 0 .205-.41.205-.82v-2.252h2.253zM86.648 155.371c0-1.639 1.229-2.049 2.458-2.049 1.434 0 2.663.41 2.663 2.049v7.578c0 1.639-1.229 2.049-2.663 2.049-1.229 0-2.458-.41-2.458-2.049v-7.578zm2.868.408c0-.408 0-.818-.41-.818-.205 0-.205.41-.205.818v6.76c0 .41 0 .82.205.82.41 0 .41-.41.41-.82v-6.76zM98.734 153.527l.614 7.373.615-7.373h2.254l-1.434 11.266h-2.664l-.818-7.988-.82 7.988h-2.459l-1.229-11.266h2.254l.41 7.373.819-7.373h2.458zM103.445 153.527h2.252v11.266h-2.252v-11.266zM110.205 157.623v-1.844c0-.408-.205-.818-.41-.818-.41 0-.41.41-.41.818 0 3.074 3.072 2.049 3.072 6.146v1.023c0 1.639-1.229 2.049-2.662 2.049s-2.662-.41-2.662-2.049v-2.662h2.252v2.252c0 .41 0 .82.41.82s.41-.41.41-.82c0-3.482-3.072-3.072-3.072-5.734v-1.434c0-1.639 1.229-2.049 2.662-2.049 1.229 0 2.459.41 2.459 2.049v2.252h-2.049v.001zM113.688 164.793v-11.266h4.3v1.639h-2.049v2.457h1.844v1.639h-1.844v3.892h2.049v1.639h-4.3zM55.309 183.842v-11.266h4.097v1.639h-1.844v2.664h1.844v1.639h-1.844v3.89h1.844v1.434h-4.097zM60.634 183.842v-11.266h3.073l1.229 7.375v-7.375h1.639v11.266h-2.663l-1.434-8.807h-.205v8.807h-1.639zM70.671 181.795l.82-9.219h2.048l-1.434 11.266h-3.072l-1.434-11.266h2.458l.614 9.219zM74.768 172.576h2.253v11.266h-2.253v-11.266zM78.455 183.842v-11.266h2.663c1.229 0 2.663.615 2.663 2.254v1.023c0 .82-.41 1.844-1.844 1.844 1.434.205 1.844.615 1.844 2.049v2.252c0 1.025.205 1.436.205 1.844h-2.253c-.205-.205-.205-.613-.205-1.434v-2.457c0-.82 0-1.229-.819-1.229v5.119h-2.254v.001zm2.253-6.555h.205c.41 0 .615-.203.615-.613v-1.844c0-.41-.205-.615-.615-.615h-.205v3.072zM85.01 174.42c0-1.434 1.229-2.049 2.663-2.049 1.229 0 2.458.615 2.458 2.049v7.578c0 1.639-1.229 2.254-2.458 2.254-1.434 0-2.663-.615-2.663-2.254v-7.578zm3.073.41c0-.41-.205-.82-.41-.82-.41 0-.41.41-.41.82v6.965c0 .203 0 .613.41.613.205 0 .41-.41.41-.613v-6.965zM91.564 183.842v-11.266h3.073l1.229 7.375v-7.375h1.638v11.266h-2.662l-1.434-8.807h-.205v8.807h-1.639zM98.939 183.842v-11.266h3.483l1.023 7.58 1.024-7.58h3.277v11.266h-2.049v-8.194l-1.433 8.194h-1.842l-1.436-8.194v8.194h-2.047zM108.975 183.842v-11.266h4.302v1.639h-2.048v2.664h2.048v1.639h-2.048v3.89h2.048v1.434h-4.302zM114.506 183.842v-11.266h3.072l1.229 7.375v-7.375h1.638v11.266h-2.662l-1.638-8.807v8.807h-1.639zM125.363 183.842h-2.254v-9.627h-1.638v-1.639h5.326v1.639h-1.434v9.627zM127.82 172.576h3.072l1.434 11.266h-2.457l-.205-3.072h-1.023l-.41 3.072h-2.049l1.638-11.266zm1.639 6.555l-.205-4.506h-.205l-.205 4.506h.615zM133.146 183.842v-11.266h2.252v9.832h2.049v1.434h-4.301zM57.972 24.481h37.075l-3.073 7.989H57.972v-7.989zM57.972 37.591h30.111v6.145H57.972v-6.145zM57.972 48.242h23.351v4.712H57.972v-4.712zM57.972 57.665h17.206v3.072H57.972v-3.072zM57.972 65.243h14.543v2.254H57.972v-2.254zM136.424 24.276H99.348l3.074 7.784h34.002v-7.784zM136.424 37.181h-30.112v6.145h30.112v-6.145zM112.867 52.543h23.557v-4.71h-23.557v4.71zM136.424 57.254h-17.207v3.278h17.207v-3.278zM136.219 65.039h-14.543v2.048h14.543v-2.048z"/><path d="M97.914 22.433s20.689 32.978 22.736 38.918c.615 1.638 4.508 12.495-3.48 22.736-7.99 10.242-15.979 9.013-19.256 9.218 0 0 10.037-4.097 11.881-12.495 2.459-10.447-2.459-17.411-10.037-29.701-8.194-13.314-1.844-28.676-1.844-28.676z" fill-rule="evenodd" clip-rule="evenodd" fill="#eec76e"/><path d="M106.928 81.63c3.482-10.242-1.434-17.001-8.604-28.676-9.013-14.339-2.663-29.087-2.663-29.087S79.274 49.676 75.178 56.435c-2.253 3.688-3.687 7.989-3.687 12.7 0 13.109 10.651 23.965 21.917 23.965 0 .001 10.447-2.867 13.52-11.47z" fill-rule="evenodd" clip-rule="evenodd" fill="#2e70b2"/></svg>