<svg xmlns="http://www.w3.org/2000/svg" width="2500" height="2500" viewBox="0 0 192.756 192.756"><g fill-rule="evenodd" clip-rule="evenodd"><path fill="#fff" d="M0 0h192.756v192.756H0V0z"/><path d="M10.723 84.263h4.791c1.973 0 3.381.28 4.79 1.409l4.507 4.507.282-.281-2.536-7.043H2.834v1.409c1.127 0 1.691 0 1.973.564.563.281.563 1.409.563 3.098v16.905c0 1.691 0 2.818-.563 3.1l-1.973.846v1.41h21.132l1.691-7.607-.564-.564-1.971 3.098-1.973 1.973-6.199 1.408h-2.817l-1.127-.279-.282-1.691V96.378h1.128c2.535 0 4.507.563 5.635 1.688.844.85 1.689 2.537 1.689 4.512h.846v-12.68h-.846c0 1.974-.845 3.382-2.535 4.227l-4.79.845h-1.128V84.263zM51.86 84.827c.283-.564 1.127-.564 2.536-.564v-1.692h-9.015v1.692l3.099.564c.563.281.563 1.409.563 2.817v14.934L37.772 82.571H27.066v1.692h1.972l1.128 1.409v19.158c0 2.254-1.128 3.383-3.382 3.662v1.41h9.297v-1.41c-2.817 0-3.944-1.125-3.944-3.662V85.108l14.934 25.359h3.945V87.645c0-1.409.282-2.537.844-2.818zM55.524 82.854v1.409c1.409 0 2.254 0 2.818.564l.28 3.098v16.905l-.28 3.1-2.818.846v1.41h14.651c3.943 0 7.044-1.41 9.579-3.945 2.255-2.254 3.664-5.637 3.664-9.862 0-3.946-1.409-7.324-4.227-9.862-1.409-1.408-2.818-2.253-4.509-2.817l-5.071-.844H55.524v-.002zm9.016 1.973l.282-.284 3.099-.28c3.1 0 5.353.845 7.044 3.381 1.691 2.253 2.254 5.071 2.254 8.733 0 8.173-3.101 12.397-9.298 12.397l-3.099-.846-.282-1.125V84.827zM92.434 84.263h4.791c1.691 0 3.1.28 4.508 1.409l4.227 4.507.562-.281-2.535-7.043H84.545v1.409c.845 0 1.691 0 1.973.564.28.281.562 1.409.562 3.098v16.905c0 1.691-.282 2.818-.562 3.1l-1.973.846v1.41h20.85l1.691-7.607-.564-.564-1.973 3.098-1.971 1.973-6.199 1.408h-2.537l-1.127-.279-.281-1.691V96.378h.846c2.817 0 4.507.563 5.636 1.688 1.125.85 1.689 2.537 1.971 4.512h.564v-12.68h-.564c-.281 1.974-1.127 3.382-2.535 4.227l-5.072.845h-.846V84.263zM137.797 84.827c.566-.564 1.408-.564 3.1-.564v-1.409h-10.145l-6.762 18.878-6.197-18.878h-9.016v1.409c1.971 0 3.1.564 3.1 1.409v19.158c0 2.537-1.129 3.662-3.383 3.945v1.41h9.299v-1.41c-2.818 0-3.945-1.408-3.945-3.945V85.953l8.453 24.233h.564l8.734-24.514v19.158c0 1.691 0 2.818-.564 3.1l-2.818.846v1.41h12.68v-1.41l-3.1-.846-.562-3.1V87.925c-.001-1.689.279-2.817.562-3.098zM163.154 106.521c2.537-2.818 3.945-6.197 3.945-10.144 0-1.972-.561-3.662-1.129-5.635l-2.816-4.507c-1.41-1.128-2.818-2.256-4.227-3.101l-4.787-.844-5.074.844a21.115 21.115 0 0 0-3.943 3.101c-1.408 1.409-2.254 2.818-2.818 4.507-.844 1.973-1.125 3.663-1.125 5.635 0 1.974.281 3.663 1.125 5.636.564 1.689 1.41 3.098 2.818 4.508 1.125 1.127 2.533 2.254 3.943 2.816l5.074 1.129c1.689 0 3.098-.281 4.787-1.129l4.227-2.816zm-9.013 2.536c-4.791 0-7.324-4.227-7.324-12.679 0-8.733 2.533-12.959 7.324-12.959 4.787 0 7.043 4.226 7.043 12.959 0 8.452-2.256 12.679-7.043 12.679zM176.961 84.543l3.098-.563v-1.409h-12.395v1.409c1.408.283 2.533.283 2.816.563l.564 3.101v17.186l-.564 3.1-2.816.562v1.41h20.287l1.971-7.889-.844-.281-1.691 3.662-1.408 1.973c-.564.562-1.41.846-1.975.846l-3.66.279-3.102-.562c-.562-.562-.842-1.689-.842-3.1V87.645c0-1.692.28-2.537.561-3.102z"/><path fill="#0094d6" d="M73.274 70.175l4.226-2.818-37.754-41.419 30.147 47.335 3.381-3.098z"/><path fill="#0094d6" d="M75.528 68.766l4.509-2.537 4.226-1.689-28.176-48.463 19.441 52.689z"/><path fill="#0094d6" d="M81.445 65.385l5.073-1.409 4.507-.564L74.119 9.877l7.326 55.508z"/><path fill="#0094d6" d="M88.489 63.976l4.791-.564 4.788.564L93.28 8.188l-4.791 55.788z"/><path fill="#0094d6" d="M95.815 63.412l5.072.844 4.508 1.41 7.043-55.789-16.623 53.535z"/><path d="M102.578 64.821l4.789 1.692c1.41.562 2.818 1.409 4.227 2.253l19.158-52.689-28.174 48.744z" fill="#0094d6"/><path fill="#0094d6" d="M109.059 67.357l4.226 2.818 3.662 3.098 30.149-47.054-38.037 41.138zM109.34 124.834l37.756 41.139-30.149-47.334-3.945 3.662-3.662 2.533z"/><path fill="#0094d6" d="M107.367 125.682l-4.508 1.689 27.893 48.744-19.158-52.689-4.227 2.256z"/><path fill="#0094d6" d="M100.324 127.936l-4.791.564 16.905 53.535-7.325-55.508-4.789 1.409z"/><path fill="#0094d6" d="M93.28 129.061l-4.791-.561 4.791 56.068 4.788-55.789-4.788.282z"/><path fill="#0094d6" d="M86.798 128.217l-5.071-1.69-7.326 55.508 16.906-53.256-4.509-.562z"/><path fill="#0094d6" d="M79.754 125.963l-4.506-2.537-19.161 52.689 28.176-48.463-4.509-1.689z"/><path fill="#0094d6" d="M77.5 124.834l-3.943-2.533-3.945-3.381-29.866 47.053L77.5 124.834z"/></g></svg>