<svg xmlns="http://www.w3.org/2000/svg" width="2500" height="2500" viewBox="0 0 192.756 192.756"><g fill-rule="evenodd" clip-rule="evenodd"><path fill="#fff" d="M0 0h192.756v192.756H0V0z"/><path d="M183.086 82.288c1.066 1.865 1.279 4.102 1.119 6.393h-8.363c0-1.385-.213-2.77-1.332-3.676-1.385-1.012-3.676-1.012-5.115-.16-3.676 2.504-4.262 6.872-4.262 11.081.16 1.12.533 2.237 1.545 2.877 1.598.746 3.73.959 5.221 0a6.413 6.413 0 0 0 2.824-3.943h8.523c-1.119 5.06-6.127 9.855-11.188 10.761-5.008.959-10.547.373-13.852-3.783-3.408-4.58-2.076-11.879.641-16.354 3.303-5.487 9.109-8.363 15.555-7.777 3.358.425 6.819 1.384 8.684 4.581zM82.189 78.132a85.16 85.16 0 0 1-1.065 6.233H68.072c-.426 1.225-.639 3.888-.639 3.888h10.921l-1.012 6.286H66.26c-.319 1.385-.532 2.878-.799 4.263l13.638-.055-1.065 6.287-22.534.054 4.741-26.956h21.948zM92.684 78.186c2.397 4.741 4.635 9.643 7.031 14.437l.055-.054c.531-4.901 1.385-9.589 2.184-14.33h8.523l-4.795 26.849h-8.203L90.5 90.705l-.054-.053c-.426 2.451-.639 5.007-1.065 7.405l-1.279 7.031h-8.47l4.794-26.902h8.258zM60.401 109.936c.426.48.639 1.012.586 1.652h-.959c0-.48-.16-.854-.426-1.119-.266-.266-.692-.373-1.278-.373-.693 0-1.332.213-1.865.746-.479.479-.853 1.225-1.012 2.236-.106.854-.053 1.492.267 2.025.266.533.852.799 1.598.799.692 0 1.278-.266 1.758-.852.267-.268.479-.641.64-1.119h.958a4.003 4.003 0 0 1-1.172 1.918c-.639.586-1.492.904-2.451.904-.799 0-1.492-.266-1.971-.744-.586-.693-.799-1.705-.586-3.09.213-1.066.586-1.918 1.278-2.611.746-.691 1.598-1.064 2.664-1.064.905 0 1.598.213 1.971.692zM73.133 110.469c.319.586.426 1.438.266 2.396-.16 1.066-.586 1.971-1.225 2.664-.799.799-1.758 1.225-2.93 1.225-1.119 0-1.917-.373-2.397-1.064-.479-.693-.586-1.598-.426-2.664.16-.959.533-1.811 1.119-2.449.799-.906 1.758-1.332 2.983-1.332 1.278-.001 2.13.372 2.61 1.224zm-1.652 4.527a5.172 5.172 0 0 0 .959-2.131c.106-.799 0-1.49-.32-2.023-.373-.48-.906-.746-1.705-.746-.746 0-1.385.266-1.917.746-.533.533-.906 1.277-1.065 2.236-.16.799-.053 1.492.266 2.025.267.533.906.799 1.812.799.852 0 1.49-.32 1.97-.906zM82.722 112.705c.479 0 .852-.105 1.119-.266.319-.213.479-.533.586-1.012.053-.48-.053-.852-.426-1.012-.16-.107-.427-.16-.746-.16h-2.344l-.427 2.449h2.238v.001zm-2.664-3.303h3.303c.533 0 1.012.107 1.332.268.586.318.853.852.692 1.705a1.958 1.958 0 0 1-.426 1.012c-.213.266-.479.479-.852.691.266.107.426.213.532.428.107.158.16.479.107.904l-.107.959c-.053.268-.053.48-.053.586 0 .213.106.373.213.426v.16h-1.172c-.054-.053-.054-.105-.054-.213 0-.105 0-.266.054-.586l.16-1.172c.053-.479-.106-.799-.373-.959-.16-.053-.479-.105-.852-.105h-2.185l-.532 3.035h-.959l1.172-7.139zM92.044 109.402h3.196c.639 0 1.119.215 1.438.586.374.32.479.854.374 1.492-.108.533-.374 1.012-.8 1.439-.426.426-.959.639-1.705.639H92.31l-.479 2.982h-.959l1.172-7.138zm3.623 1.014c-.213-.107-.479-.16-.852-.16h-1.918l-.426 2.449h1.918c.426 0 .799-.053 1.119-.266.267-.16.479-.479.533-.959.105-.533-.055-.904-.374-1.064zM109.092 110.469c.373.586.479 1.438.318 2.396-.158 1.066-.586 1.971-1.277 2.664-.746.799-1.705 1.225-2.877 1.225-1.119 0-1.918-.373-2.451-1.064-.426-.693-.533-1.598-.373-2.664.16-.959.533-1.811 1.119-2.449.799-.906 1.758-1.332 2.984-1.332 1.225-.001 2.076.372 2.557 1.224zm-1.6 4.527c.48-.639.801-1.332.906-2.131.16-.799.053-1.49-.318-2.023-.32-.48-.906-.746-1.652-.746s-1.385.266-1.918.746c-.586.533-.906 1.277-1.064 2.236-.16.799-.055 1.492.213 2.025.318.533.959.799 1.811.799s1.544-.32 2.022-.906zM118.734 112.705c.426 0 .799-.105 1.117-.266.268-.213.48-.533.533-1.012.107-.48 0-.852-.373-1.012-.16-.107-.426-.16-.746-.16h-2.344l-.426 2.449h2.239v.001zm-2.664-3.303h3.303c.533 0 .959.107 1.332.268.586.318.852.852.691 1.705a1.958 1.958 0 0 1-.426 1.012c-.213.266-.533.479-.852.691.266.107.426.213.533.428.105.158.158.479.105.904l-.16.959v.586c0 .213.107.373.213.426v.16h-1.172c-.053-.053-.053-.105-.053-.213 0-.105 0-.266.053-.586l.107-1.172c.053-.479-.053-.799-.32-.959a3.357 3.357 0 0 0-.852-.105h-2.238l-.479 3.035h-.959l1.174-7.139zM130.934 113.611l-.586-3.143-1.652 3.143h2.238zm-.907-4.209h1.119l1.385 7.139h-1.066l-.373-2.131h-2.822l-1.119 2.131h-1.012l3.888-7.139zM143.879 109.402l-.16.854h-2.399l-1.064 6.285h-.959l1.012-6.285h-2.397l.158-.854h5.809zM149.791 109.402h.959l-1.172 7.139h-1.012l1.225-7.139zM162.842 110.469c.373.586.48 1.438.32 2.396-.213 1.066-.639 1.971-1.277 2.664-.746.799-1.76 1.225-2.932 1.225-1.064 0-1.863-.373-2.396-1.064-.426-.693-.586-1.598-.373-2.664.16-.959.533-1.811 1.119-2.449.746-.906 1.758-1.332 2.93-1.332 1.279-.001 2.13.372 2.609 1.224zm-1.598 4.527c.48-.639.799-1.332.906-2.131.16-.799.053-1.49-.32-2.023-.373-.48-.904-.746-1.65-.746s-1.387.266-1.973.746c-.531.533-.904 1.277-1.064 2.236-.107.799-.053 1.492.266 2.025.32.533.906.799 1.812.799.851 0 1.545-.32 2.023-.906zM169.715 109.402h1.119l2.609 5.807 1.012-5.807h.906l-1.224 7.139h-1.067l-2.662-5.752-1.013 5.752h-.905l1.225-7.139z"/><path d="M30.675 75.256c-1.012.16-2.078.266-2.983.746-2.024-.586-4.475-.319-6.446.16 2.93-1.279 5.967-2.237 9.429-2.237v1.331zM40.796 76.162c-1.864-.426-4.314-.64-6.339-.16-1.012-.373-2.024-.639-3.089-.746l.053-1.332c3.356.053 6.499.959 9.375 2.238zM34.883 77.173c.16.32.16.853-.053 1.119-1.278 1.598-3.462 1.598-5.38 1.332-.906-.267-1.918-.64-2.344-1.599-.16-.479.053-.905.373-1.278 1.865-1.545 4.848-1.438 6.819-.267l.585.693z" fill="#2b9969"/><path d="M27 76.321c-.32.426-.853.799-.853 1.332-.054.533.106.906.479 1.279-1.812.958-3.516 2.184-5.008 3.835-1.012-.533-1.918-1.598-2.184-2.717-.266-1.438.426-2.557 1.492-3.516 1.811-.586 4.208-.745 6.074-.213zM41.01 76.535c1.119.905 2.024 2.237 1.545 3.835-.32 1.012-1.172 1.864-2.078 2.503l-.16-.106c-1.385-1.651-3.143-2.877-4.901-3.782.373-.426.586-.959.426-1.545a2.416 2.416 0 0 0-.799-1.012c1.758-.586 4.155-.427 5.967.107z" fill="#2b9969"/><path d="M20.393 76.641c-1.225 1.172-1.971 2.771-1.225 4.369.373.906 1.119 1.705 1.918 2.237v.213a29.877 29.877 0 0 0-4.582 8.364c-2.503-1.332-4.688-3.889-4.368-6.872.267-1.918 1.812-3.303 3.25-4.741 1.545-1.493 3.197-2.718 5.007-3.57zM49.586 83.672c.746 2.025.16 4.476-1.278 6.073-.853.853-1.705 1.705-2.771 2.185-1.172-2.983-2.61-5.86-4.634-8.471 1.492-1.065 2.557-2.663 2.13-4.528-.319-.852-.692-1.598-1.385-2.238 3.038 1.546 5.914 4.156 7.938 6.979zM30.675 80.263l-.106 4.954c-2.983.054-5.86-.639-8.364-2.024A16.789 16.789 0 0 1 27 79.251c1.065.746 2.29 1.066 3.675 1.012zM39.785 83.247c-2.504 1.385-5.381 1.918-8.311 2.024-.054-1.651-.16-3.303-.106-5.008 1.385.054 2.557-.266 3.676-.959 1.704.906 3.462 2.291 4.741 3.943z" fill="#2b9969"/><path d="M30.568 85.91l-.16 9.429c-4.688.053-9.163-.959-13.052-2.983.799-3.09 2.397-5.913 4.422-8.577 2.611 1.492 5.595 2.078 8.79 2.131zM44.739 92.356c-3.835 2.131-8.364 2.93-13.105 3.037l-.16-9.429c3.143-.053 6.18-.639 8.79-2.131 2.077 2.557 3.409 5.487 4.475 8.523zM15.386 91.983c1.864.585 0 2.344.053 3.569-.532 2.237-.746 4.795-.746 7.299-3.729-2.186-6.606-6.127-5.86-10.655.479-2.876 1.651-5.487 3.196-7.991-.905 3.144.8 5.967 3.357 7.778zM51.824 98.695a12.526 12.526 0 0 1-4.475 4.209c0-3.623-.639-6.979-1.545-10.282 2.664-1.598 5.061-4.315 4.368-7.618l-.16-.639c2.344 4.049 5.008 9.749 1.812 14.33z" fill="#2b9969"/><path d="M30.409 96.191l-.053 10.922c-5.327-.107-10.335-1.279-14.703-3.73-.266-3.621.426-7.084 1.332-10.281 4.048 2.078 8.629 2.877 13.424 3.089zM46.443 103.49c-4.421 2.504-9.429 3.568-14.756 3.623l-.106-10.922c4.848-.106 9.376-1.012 13.425-3.037a31.316 31.316 0 0 1 1.437 10.336zM14.693 103.65c.266 3.09.959 5.912 2.291 8.469-6.712-3.303-8.896-10.441-8.417-17.526 0 3.889 3.09 6.927 6.126 9.057zM45.112 112.227a24.213 24.213 0 0 0 2.184-8.471c3.037-2.023 6.179-5.113 6.179-8.949.586 6.818-1.864 14.117-8.363 17.42z" fill="#2b9969"/><path d="M30.355 108.018l.213 7.512c-4.582-.213-8.843-1.064-12.679-2.93-1.332-2.504-2.078-5.273-2.237-8.311 4.422 2.451 9.323 3.676 14.703 3.729zM44.153 112.705c-3.835 1.812-8.098 2.717-12.625 2.824l.106-7.457c5.38-.107 10.282-1.227 14.703-3.73-.053 2.984-.853 5.806-2.184 8.363zM17.517 113.025c.533.906 1.226 1.758 1.971 2.557-2.717-1.65-5.7-4.262-7.405-7.084 1.438 1.971 3.516 3.356 5.434 4.527zM42.501 115.689c1.119-.906 1.545-2.398 2.77-3.09 1.705-.959 3.409-2.291 4.688-3.996-1.864 2.825-4.581 5.489-7.458 7.086z" fill="#2b9969"/><path d="M30.462 116.062l.16 2.717c-3.676-.107-7.191-.959-10.281-2.717a9.123 9.123 0 0 1-1.971-2.717c3.675 1.811 7.83 2.557 12.092 2.717zM43.727 113.451c-1.811 4.104-6.286 4.475-10.015 5.221-.746.055-1.545.107-2.237.16 0-.852-.106-1.865.106-2.77 4.368 0 8.417-.958 12.146-2.611z" fill="#2b9969"/><path d="M126.885 85.963c.479 1.226.053 2.504-.746 3.409-1.705 1.705-4.422.853-6.766 1.066l1.064-5.86c2.239.16 5.008-.533 6.448 1.385zm.799-7.671c3.037.373 6.553 1.438 7.67 4.634 1.014 3.942-.213 7.991-3.088 10.761-3.783 3.462-8.844 3.197-14.064 3.142l-1.492 8.258h-8.789l4.688-26.849 15.075.054zM141.32 96.031c1.279-3.196 2.877-6.232 4.314-9.375l1.066 9.375h-5.38zm15.289 9.217h-8.896l-.426-3.623s-8.896.053-8.736 0c-.639 1.172-1.119 2.344-1.705 3.516h-8.576v-.158l14.383-26.69h9.057l4.899 26.955z"/></g></svg>