<svg xmlns="http://www.w3.org/2000/svg" width="2500" height="501" viewBox="0 0 144.012 28.886"><path d="M4.535 14.745l-1.659-.005c1.022 4.08 4.713 7.101 9.109 7.101l16.832.005v2.988H0V14.276l20.468.012a5.621 5.621 0 1 0 0-11.243l-8.483.015c-4.396 0-8.087 3.021-9.109 7.101l1.657-.001a7.791 7.791 0 0 1 7.452-5.497h8.482a4.003 4.003 0 0 1 4.002 4.003c0 2.21-1.792 4.016-4.002 4.016L0 12.683v-.46c0-.004 20.468 0 20.468 0a3.558 3.558 0 0 0 3.557-3.557 3.542 3.542 0 0 0-3.557-3.539l-8.482-.001c-3.237 0-5.984 2.117-6.952 5.03l1.701.002a5.73 5.73 0 0 1 5.251-3.435h8.482c1.083 0 1.96.86 1.96 1.943s-.878 1.96-1.96 1.96H0V0h28.817v18.178H11.985a5.73 5.73 0 0 1-5.251-3.435l-1.708-.001a7.328 7.328 0 0 0 6.959 5.033h16.832v.478l-16.832-.001c-3.506-.001-6.47-2.322-7.45-5.507zm66.476 6.703l-.757 1.759h-2.26l3.873-8.149h2.003l3.861 8.149h-2.285l-.819-1.759h-3.616zm.733-1.65h2.125l-1.104-2.391-1.021 2.391zm-31.067 3.409v-8.149h7.22v1.649h-5.18v1.527h4.557v1.649h-4.557v1.674h5.18v1.649h-7.22zm14.347 0l-2.102-2.773a45.187 45.187 0 0 1-2.26-3.237c.073 1.185.049 2.37.061 3.555v2.456h-1.979v-8.149h2.444l1.979 2.603a60.627 60.627 0 0 1 2.407 3.384c-.061-.867-.061-1.747-.061-2.626v-3.362h1.979v8.149h-2.468zm7.912 0h-2.04v-6.5h-2.822v-1.649h7.672v1.649h-2.81v6.5zm5.21-2.297h-4.109v-1.674h4.109v1.674zm24.051-.904c-.599 2.395-2.321 3.481-4.728 3.481-2.626 0-4.972-1.319-4.972-4.227 0-2.895 2.15-4.483 4.887-4.483 2.052 0 4.178.965 4.691 3.127h-2.199c-.44-1.075-1.307-1.539-2.443-1.539-1.625 0-2.773 1.197-2.773 2.797 0 1.601 1.136 2.737 2.725 2.737 1.368 0 2.125-.66 2.565-1.894h2.247zm2.585 1.442l-.757 1.759h-2.26l3.873-8.149h2.004l3.86 8.149h-2.285l-.818-1.759h-3.617zm.731-1.651h2.125l-1.104-2.391-1.021 2.391zm8.713.441v2.969h-2.041v-8.149h5.314c.66 0 1.356.049 1.942.403 1.565 1.001 1.189 3.329-.44 3.897 1.662.635.746 2.382 1.43 3.848h-2.248c-.403-1.258.403-2.969-1.539-2.969h-2.418zm0-3.53v1.881l2.815.001c1.597 0 1.622-1.881 0-1.881l-2.815-.001zm13.186-4.023V2.333h2.974v10.351h-2.974zm6.747-2.934c.66 1.793 3.417 1.497 4.054 1.385.776-.136 1.549-.473 1.549-1.273 0-.675-.711-.942-1.364-1.061-.224-.041-3.556-.392-3.556-.392-1.78-.172-3.116-.906-3.116-2.967 0-2.593 2.921-3.436 5.045-3.436 2.577 0 5.185.5 5.638 3.467h-2.749c-.443-1.652-3.175-1.702-4.187-1.423-.496.137-.932.413-.992.951-.082.739.242 1.014.881 1.101.078.011 2.774.293 2.774.293 1.921.188 4.577.75 4.577 3.155 0 2.983-3.327 3.592-5.654 3.592-1.593 0-3.405-.141-4.67-1.234-.681-.579-.939-1.327-1.044-2.148l2.814-.01zm-92.594 2.934V2.333h10.191v2.308h-7.218v1.455h6.089v2.341h-6.089v1.907h7.218v2.341H31.565zm36.188 0V2.333h10.191v2.308h-7.218v1.455h6.089v2.341h-6.089v1.907h7.218v2.341H67.753zm66.068 0V2.333h10.191v2.308h-7.218v1.455h6.089v2.341h-6.089v1.907h7.218v2.341h-10.191zm-71.414 0h-2.94V4.641h-3.973V2.333h11.568v2.308h-4.655v8.044zm32.677-4.252v4.25H92.13V2.338h8.34c4.268 0 4.268 6.095 0 6.095h-5.386zm-.011-3.785v1.447h4.421c.978 0 .978-1.44 0-1.44l-4.421-.007zM82.137 8.433v4.25h-2.955V2.338h8.653c4.17 0 4.425 5.936.078 6.078l3.387 4.266h-3.553l-3.353-4.24-2.257-.009zm0-3.785v1.447h5.01c.978 0 .978-1.451 0-1.451l-5.01.004zM42.861 2.324h3.154l5.744 6.673V2.324h2.955v10.358h-3.453l-5.445-6.275v6.275h-2.955V2.324zM81.725 20.91h-4.109v-1.674h4.109v1.674zm25.343-12.477v4.25h-2.955V2.338h8.653c4.171 0 4.425 5.936.078 6.078l3.387 4.266h-3.553l-3.353-4.24-2.257-.009zm0-3.785v1.447h5.011c.978 0 .978-1.451 0-1.451l-5.011.004zM33.585 20.237v2.969h-2.041v-8.149h5.314c.66 0 1.356.049 1.942.403 1.565 1.001 1.189 3.329-.439 3.897 1.661.635.745 2.382 1.429 3.848h-2.248c-.403-1.258.403-2.969-1.539-2.969h-2.418zm0-3.53v1.881l2.815.001c1.597 0 1.622-1.881 0-1.881l-2.815-.001zM1.69 28.886c-.849 0-1.566-.652-1.566-1.545 0-.884.718-1.537 1.566-1.537.84 0 1.558.652 1.558 1.537.001.893-.717 1.545-1.558 1.545zM.434 27.341c0 .742.551 1.288 1.256 1.288.697 0 1.248-.546 1.248-1.288 0-.729-.551-1.28-1.248-1.28-.705.001-1.256.551-1.256 1.28zm.93.123v.77h-.27v-1.777h.677c.42 0 .628.155.628.505 0 .318-.2.457-.46.489l.505.782h-.301l-.469-.77h-.31zm0-.229h.322c.228 0 .432-.016.432-.29 0-.22-.2-.261-.387-.261h-.367v.551z"/></svg>