<svg xmlns="http://www.w3.org/2000/svg" width="2500" height="2500" viewBox="0 0 192.756 192.756"><g fill-rule="evenodd" clip-rule="evenodd"><path fill="#fff" d="M0 0h192.756v192.756H0V0z"/><path d="M24.507 107.093c-6.052 0-9.052-5.034-9.552-7.793h-4.5l.035-3.845 4.431-.017c1.018-5.259 5.724-7.793 9.604-7.776L24.49 83.8l-14.018-.034.035-3.862 17.862-.035c4.207 0 8.845 2.449 9.896 7.776l3.466.035.034 3.862-3.534.018c-.414 2.776-3.328 7.776-9.862 7.776v3.81h13.38v3.948H28.387l.017 4.639-3.914.017.017-4.657zm30.586-1.552l.052-3.689 2.189.018.034-11.552-2.189.051-.104-3.672 24.362-.052.052 7.259-3.586-.034c-.052-1.604.155-3.397-1.517-3.552l-9.948.051-.035 4.552h5.758v-1.586h3.38v7.069h-3.38v-1.396h-5.758v2.862l3.207.034.018 3.604-12.535.033zm21.466 0l-.017-3.655 2.896-.017L84.3 90.351l-1.88.017-.017-3.707 16.121.034-.034 3.655h-1.914l4.862 11.534h2.327v3.655H90.404l.017-3.638 3.018-.034-1.242-2.983-5.897.019-1.31 2.982 2.155-.017.017 3.689-10.603-.016zm56.535-.034l.017-3.604 1.862-.052-.017-11.483-2.328-.017.035-3.672 24.482.017-.018 8.035-3.517-.035c-.104-3.534.154-4.311-1.776-4.328l-9.828-.017.035 4.552c3.275.172 4.121-.276 4.138-2.138l3.725.034-.018 7.569-3.724.034c-.104-2.311-3.121-2.018-4.156-2.034v3.517l10.069-.017c1.741.017 1.535-1.655 1.621-3l3.396-.034.017 6.672h-24.015v.001zm-27.277-3.638l2.38.017.034-11.568-2.465-.018.034-3.655 19.086.018c3.017-.018 5.189 2.311 5.5 4.362.121 1.086.414 4.051-1.638 4.793 1.638 1.172 2.465 3.172 2.12 5.741-.155 1.362-1.138 4-4.413 3.966l-20.586.017-.052-3.673zm53.587 0l3.086.017.018-11.551-3.018.034-.104-3.724 20.362.052c6.689.052 8.482 9.121 2.552 11 1.173 2.035 1.982 4.189 7.569 4.189l.051 3.725c-3.154.104-9.361-.069-10.517-2.104-.932-1.707-1.534-2.586-3.259-3.621l-6.552.018-.018 1.982h3v3.639l-13.155.017-.015-3.673zM19.059 99.335h5.432l.017 3.81c-2.535.017-4.484-1.397-5.449-3.81zm96.172 2.551l.052-4.104h6.052c1.414 0 2.828.725 2.811 2.207 0 .621-.879 1.88-1.776 1.88l-7.139.017zm-86.862-6.431l.018-3.879h5.758c-.689 2.138-2.914 3.896-5.776 3.879zm-9.276 0c.362-1.741 2.414-3.879 5.414-3.879v3.879h-5.414zm68.57.241l1.552-3.724 1.655 3.707-3.207.017zm81.913-5.344l7.5-.017c3.087.017 3.294 5.104-.12 5.086l-7.259.017-.121-5.086zm-54.327 0h6.155c2.482 0 2.81 4.293 0 4.276h-6.155v-4.276zM28.369 83.8c2.862 0 4.776 1.276 5.793 3.879h-5.793V83.8zM2.835 72.766h47.224v47.224H2.835V72.766zm98.621 29.12L96.56 90.352l4.896 11.534z" fill="#33a457"/></g></svg>