<svg viewBox="-4.440892098500626e-16 0 371.10000000000014 100.3" xmlns="http://www.w3.org/2000/svg" width="2500" height="676"><path d="M5.6 100.3c-1.5 0-2.9-.6-4-1.6-1.1-1.1-1.6-2.5-1.6-4V5.6c0-1.5.6-2.9 1.6-4C2.7.6 4.1 0 5.6 0h85.9c1.5 0 2.9.6 4 1.6 1.1 1.1 1.6 2.5 1.6 4v89.1c0 3.1-2.5 5.6-5.6 5.6z" fill="#253c97"/><path d="M19.5 33.4l-10.2-.1v-5.2s6.9-.1 10.7-7h11.7v47.1h49v8.9H19.5z" fill="#fff"/><path d="M80.7 65.5V42.2h8.5v-8.9h-7.9v-4.7h-8.5v4.7H42.4s-7.1 1.9-7.5 10.7 8.9 9.9 8.9 9.9h15.3v2.7H35.9v8.9h23.9c.5.5 9.4-2.9 9.3-10.7s-7.5-9.4-7.5-9.4H45.7c-3-2 .1-3.2.1-3.2h27l.1 23.3z" fill="#fff"/><path d="M131.4 48.3V32h-3.5v-1.8h9.2v1.7h-3.5v22.2c-1.3.4-2.1.1-2.8-1-4.1-6.1-8.3-12.1-12.5-18.2-.2-.3-.5-.6-.9-1.2v18.1h3.5v1.8h-9.4v-1.7c1 0 2 .1 2.9 0 .3 0 .8-.5.8-.7V32.5c0-.1-.1-.2-.2-.5h-3.5v-1.8h6.6c.4 0 .8.5 1 .9 3.8 5.4 7.5 10.8 11.2 16.2.3.4.5.7.8 1.1.1 0 .2 0 .3-.1zm-6.3 22.9c1 .3 2.2.6 3.4 1.1 1.9.8 3.1 2.2 3.2 4.2.2 2.2-.4 4.3-2.4 5.4-1.4.8-3 1.5-4.6 1.5-4.4.2-8.7.1-13.2.1v-1.6h3.8v-20h-3.8v-1.8h2c3.8.1 7.5.1 11.3.2 1 0 1.9.4 2.8.7 1.8.7 2.8 2.1 3 4 .2 2-.5 3.6-2.1 4.6-1.1.7-2.4 1.1-3.4 1.6zM118.5 82c2.4-.2 4.7-.3 7-.7 2.1-.4 2.9-2.1 3-4.1.1-1.9-.5-3.4-2.2-4.3-2.5-1.2-5.1-1-7.8-.9zm0-11.5c2.1-.2 4.1-.2 6.1-.5 1.8-.3 2.7-1.8 2.8-3.7.1-2.1-.4-3.3-2-3.9-2.2-.8-4.5-.6-6.9-.5zM111.4 24v-1.8h3.9V2.3h-3.8V.5h20.1v7.4h-1.2c-.3-1.1-.6-2.1-1-3.2-.7-1.9-1.3-2.4-3.3-2.4h-7.5v9.2c1.5 0 3 .1 4.5 0 1.3-.2 1.4-1.5 1.6-2.5.1-1.1.6-1.2 1.5-.9v9h-1.3c-1-4.1-1.4-4.3-6.3-3.7v8.9h4.2v1.8c-3.8-.1-7.5-.1-11.4-.1zm66.4 51.9c2-2.2 4.1-4.3 6.3-6.7-1-.1-1.8-.1-2.6-.2v-1.6h7.3v1.7c-3.7-.4-4.5 3.1-6.9 4.6 1.9 2.7 3.6 5.2 5.5 7.6.4.5 1.4.5 2.2.8.3 1.4.3 1.5-1.3 1.5h-5.9v-1.7c.6 0 1.2-.1 2.1-.1-1.5-2.1-2.9-4.2-4.2-6.1-2.3 1.5-3.4 3.3-2.5 6.1h2v1.7h-7.6v-1.7h2.6V60.7c-.9 0-1.7-.1-2.6-.1v-1.8h5.4v17c-.1 0 .1.1.2.1zm73 5.9h2.6v1.7h-5.1v-3.2c-.4.5-.6.8-.8 1.1-2.9 3.9-8.1 3.4-10.1-1-1.6-3.5-1.3-7 .6-10.3 2.2-3.7 7.4-3.9 9.7-.5l.4.4v-9.2c-.9 0-1.7-.1-2.6-.1v-1.8h5.4c-.1 7.5-.1 15.1-.1 22.9zm-2.3-6.4c-.5-1.6-.8-3.1-1.4-4.4-.7-1.4-2-2.1-3.6-2s-2.7 1-3.3 2.4c-1.1 2.7-1.1 5.4-.1 8.1.6 1.4 1.6 2.5 3.2 2.6 1.7.1 3-.7 3.7-2.2.6-1.4 1-3 1.5-4.5zm29.9 6.4v1.7h-11.3v-1.6h4V61.8c-1.4 0-2.8-.1-4.2 0-1.1.1-1.8.9-2.1 1.9-.4 1.1-.7 2.3-1 3.4-.2.9-.5 1.2-1.5.9v-7.9H283V68c-.9.3-1.3.1-1.5-.9-.2-1.1-.6-2.2-.9-3.3-.5-1.4-1.4-2.1-2.9-2.1h-3.5v20.1zm-63-14.4h5.3V71c.1 0 .2.1.3.1.3-.4.6-.8 1-1.3 1.1-1.4 2.4-2.4 4.1-2.7 2.7-.5 4.9 1 5.2 3.7.2 2.1.2 4.2.2 6.2v4.7h2.6v1.7h-7.9v-1.6c.8 0 1.6-.1 2.3-.1 0-3.3.1-6.6 0-9.8-.1-2-1.8-3-3.8-2.4-1.9.5-3.6 2.5-3.7 4.6-.1 2.5 0 5 0 7.7h2.4v1.7h-7.9v-1.6h2.6V69.2c-.8 0-1.7-.1-2.6-.1-.1-.6-.1-1.1-.1-1.7zm-16.9-29.8h5.3v3.7c.1 0 .2.1.2.1.4-.5.7-1 1.1-1.5 1.4-1.7 3-2.8 5.2-2.6 2.4.2 3.9 1.7 4 4.3.1 2.9 0 5.8.1 8.7 0 1.9-.1 1.7 1.7 1.7.3 0 .6 0 .9.1 0 .3.1.6.1.8s0 .5-.1.8h-7.8V52c.7 0 1.5-.1 2.4-.1V43c0-1.3-.3-2.6-1.6-3.2-1.4-.6-2.7-.2-3.9.7-1.6 1.2-2.2 2.9-2.2 4.8 0 1.8.1 3.6 0 5.4 0 1 .3 1.4 1.3 1.3.3 0 .6 0 1.1.1v1.7h-7.8v-1.7c.9 0 1.7-.1 2.6-.1V39.4h-2.5c-.1-.6-.1-1.1-.1-1.8zm-46.6 45.9v-1.7h2.6V69.2c-.8 0-1.7-.1-2.6-.2v-1.6h5.3V71c.1 0 .2.1.2.1.4-.4.7-.9 1.1-1.3 1-1.3 2.3-2.3 4-2.6 2.9-.6 5.2 1.2 5.3 4.3.1 3 0 6 .1 8.9v1.4h2.6v1.7h-7.8v-1.7h2.3c0-3.3.2-6.6-.1-9.8-.2-2.5-2.5-3.5-4.7-2.2-1.6.9-2.5 2.3-2.8 4.1-.1.5-.1 1-.1 1.5v6.4c.8 0 1.6.1 2.4.1v1.7c-2.7-.1-5.2-.1-7.8-.1zm147.5-16.1h5.3v9.5c0 .8 0 1.6.1 2.3.4 2.1 2 3 4 2.2 1.9-.7 3.1-2.2 3.3-4.1.3-2.7.1-5.4.1-8.1h-2.6v-1.7h5.4v14.3h2.5c.4 1.7.3 1.8-1.2 1.8h-3.9V80c-.1 0-.2-.1-.3-.1-.4.5-.7.9-1.1 1.4-1.5 1.7-3.2 2.9-5.6 2.6-2.1-.3-3.4-1.8-3.5-4.2-.1-2.9-.1-5.8-.1-8.7 0-2.1.1-1.8-1.8-1.8-.2 0-.5 0-.8-.1.2-.6.2-1.1.2-1.7zM144.8 80.9c-1.5 1.9-3.3 3.1-5.8 2.9-2.3-.1-3.9-1.3-4.3-3.3-.4-2.1.5-4 2.7-4.8 1.6-.6 3.4-.8 5.1-1.3.8-.2 1.9.2 2.1-1.2.3-2.4-.3-4-1.7-4.4-1.6-.5-3.1-.3-4.6.6.2.4.5.7.6 1.1.4.9-.1 2.1-1 2.4-1.1.4-2.2-.2-2.5-1.3-.3-1.3.3-2.3 1.3-3 2.7-1.8 5.5-2.1 8.5-.8 1.7.7 2.2 2.3 2.2 4v8c0 .7.4 1.4.7 2 .7-.3 1.3-.6 2-.9 0-.1-.1-.2-.1-.4.3.2.6.3.9.5-.7 1.9-1.7 2.7-3.4 2.7-1.5 0-2.1-.6-2.7-2.8zm-.3-5.7c-1.9.5-3.6.9-5.2 1.4-1.1.4-1.5 1.3-1.5 2.4s.2 2.1 1.3 2.7c2 1 5.2-.5 5.4-2.8.1-1.1 0-2.3 0-3.7zm78.4-35.7c.1.3.1.4.2.4.8 1.1.9 2.1.3 2.8s-1.8.7-2.6.1-.9-2-.2-3c1.4-1.9 3.4-2.4 5.6-2.4 1.2 0 2.4.2 3.5.6 1.5.5 2.3 1.7 2.4 3.3.1 2.6.1 5.3.1 8 0 .5-.1 1.1 0 1.6s.4 1.2.7 1.3c.4.1 1-.4 1.4-.6.2-.1.2-.3.3-.5.9.1 1.1.5.6 1.3-.8 1.3-2 2-3.3 1.8-1.6-.2-2.1-1.3-2.3-2.8-.7.6-1.3 1.3-2 1.8-1.6 1.2-3.4 1.4-5.2.9-1.6-.4-2.6-1.5-2.8-3-.3-1.6 0-3.2 1.5-4.1.9-.6 1.9-1 2.8-1.3s1.8-.4 2.8-.6c2.9-.4 2.9-.4 2.7-3.3-.1-1.8-1.2-2.8-3.4-2.7-1.1-.2-2.1.1-3.1.4zm6.4 5.9c-1.9.5-3.6.9-5.2 1.4-1.1.4-1.6 1.4-1.6 2.5s.3 2.1 1.4 2.6c2.1 1 5.2-.7 5.4-3 .1-1 0-2.1 0-3.5zm-74.7 5.5c.3.2.5.3.8.5-.8 1.9-1.8 2.7-3.3 2.7-1.8-.1-2.5-1.2-2.8-3-1.6 2-3.5 3.2-6 3-2.1-.1-3.7-1.3-4-3.1-.4-2.2.4-4.1 2.5-4.9 1.9-.7 3.8-1.1 5.8-1.5 1.1-.2 1.7-.6 1.6-1.8-.1-1.4 0-2.9-1.5-3.6-1.7-.7-3.3-.5-4.8.4.2.6.6 1.2.7 1.7.1 1-.6 1.8-1.7 1.9-1 .1-1.8-.6-2-1.6-.1-1.1.4-2 1.2-2.7 2-1.8 6.5-2.2 8.8-.8 1.3.8 2 2 2 3.4 0 2.6 0 5.1.1 7.7 0 .2-.1.5 0 .7.2.7.5 1.4.7 2.1.7-.3 1.4-.6 2-.9-.1 0-.1-.1-.1-.2zm-5.5-5.4c-1.5.3-2.9.6-4.2.9-.4.1-.7.2-1 .4-1.2.6-1.7 1.5-1.6 2.8.1 1.1.5 2.1 1.6 2.5 2.1.8 5-.9 5.2-3.1.1-1.1 0-2.2 0-3.5zm64.5 35.1c.4.2.6.4.9.5-.9 2-1.8 2.7-3.4 2.6-1.5 0-1.9-.5-2.7-2.8-1.5 1.9-3.3 3-5.8 2.9-2.2-.1-3.8-1.2-4.2-3.1-.5-2.2.4-4.2 2.5-5 1.7-.6 3.5-.9 5.2-1.3.8-.2 1.9.1 2.1-1.2.2-2.3-.3-3.8-1.7-4.4s-3.3-.3-4.7.6c.2.3.6.6.6.9 0 .7.1 1.6-.3 2s-1.4.6-2 .5c-.5-.2-1-.9-1.2-1.5-.3-1.1.4-2.1 1.3-2.7 2.6-1.8 5.5-2 8.4-.8 1.6.6 2.2 2 2.3 3.6.1 2.7 0 5.3 0 8 0 .3-.1.7 0 1 .2.6.5 1.1.8 1.6.5-.3 1-.6 1.5-1 .2-.1.3-.2.4-.4zm-5.4-5.4c-1.9.5-3.6.8-5.2 1.4-1.2.4-1.7 1.5-1.6 2.8.1 1.2.6 2.1 1.8 2.5 2.1.7 4.8-1 5-3.2zM180 45.7c.1-7.3 6.9-10.1 11.9-7.3 2.9 1.7 4.4 5.7 3.5 9.6-1 4.3-4.5 6.6-8.9 6.1-3.9-.5-6.6-3.9-6.5-8.4zm12.8.3c-.2-2.3-.6-4-1.5-5.2-1.8-2.5-5.4-2.6-7.1-.1s-1.7 7.7.1 10.2c2 2.7 5.9 2.5 7.3-.5.7-1.4.9-3 1.2-4.4zM169.4 9.3c.4-.8.2-2.4 1.9-1.7v5.3c-1 .4-1.5 0-2-.9-1.1-2.3-2.6-3.3-4.5-3-.8.1-1.6.6-2.2 1.2-.8.9-.5 2.3.6 3 1 .6 2.2 1 3.4 1.4l2.7.9c1.6.7 2.8 1.7 2.9 3.6.1 2-.8 3.5-2.6 4.5-2.4 1.4-5.3.9-8.1-1.4-.2.7-.3 1.3-.5 2.1h-1.5v-5.9c1.1-.4 1.6 0 2.1 1 1 2.5 3.1 3.7 5.6 3.5 1.3-.1 2.3-.9 2.5-2 .3-1.2-.3-2.2-1.6-2.8-1-.4-2.1-.7-3.1-1.1-.8-.3-1.7-.6-2.5-1-2-1-2.9-2.3-2.7-4.2s1.6-3.6 3.5-4.1c2.3-.5 4.4-.1 6.1 1.6zm152.9 72.5c-.2.8-.3 1.5-.5 2.1h-1.4V78c1.1-.4 1.6-.1 2.1 1 1.2 2.8 3.7 4.1 6.2 3.4 1-.3 1.7-.9 1.9-2s-.2-2-1.3-2.5-2.2-.8-3.3-1.2c-.9-.3-1.9-.6-2.7-1.1-1.5-.7-2.6-1.9-2.6-3.7 0-1.9.9-3.3 2.5-4.1 2.5-1.3 5-1 7.2 1 .2-.6.3-1.1.5-1.7h1.4v5.3c-1 .4-1.6.1-2-.9-1.1-2.4-2.6-3.2-4.7-2.9-1.1.2-2.1.6-2.3 1.8-.3 1.2.3 2.1 1.4 2.6 1 .5 2.1.8 3.2 1.2.8.3 1.6.5 2.4.9 1.6.7 2.7 1.7 2.8 3.6.1 2.1-.9 3.5-2.6 4.5-2.2 1.2-5.3.9-7.3-.7-.3-.2-.6-.4-.9-.7zM177.1 3.6c1-.1 1.8-.2 2.8-.3v4.6h5.2v1.8H180c0 3.8-.1 7.5.1 11.1 0 .6.7 1.4 1.3 1.6s1.6-.1 2.1-.5c.6-.5.9-1.3 1.4-2.1.3.1.6.2 1 .3-.6 3-2.5 4.5-5.2 4.3-1.8-.1-3-1.2-3.3-2.9-.2-1.2-.2-2.5-.2-3.8V9.6H174V7.9h3.2c-.1-1.5-.1-2.8-.1-4.3zm-11 45.8c.4.2.7.3 1 .4-.4 3.1-2.9 4.9-5.8 4.2-1.4-.3-2.3-1.2-2.6-2.6-.2-.9-.2-1.9-.2-2.8v-8.8c0-.1-.1-.1-.1-.4h-3v-1.7h3.1v-4.4c1-.1 1.9-.2 2.9-.4v4.7h5.2v1.7h-5.2v10.6c0 1 .2 2 1.4 2.3s2-.3 2.6-1.3c.3-.4.5-.9.7-1.5zm171.8 19.7h-3.2v-1.7h3.1v-4.3c1-.1 1.8-.3 2.8-.4v4.6h5.2V69h-5.1c0 .4-.1.7-.1 1.1v9.3c0 1.1.2 2.1 1.5 2.5 1.1.3 2-.3 2.7-1.6.2-.4.4-.7.6-1.2.4.1.7.3 1.1.4-.5 2.9-2.6 4.6-5.2 4.3-1.9-.2-3.1-1.3-3.4-3.1-.2-1.4-.2-2.8-.2-4.1.2-2.4.2-4.8.2-7.5zM239 30.9h-3v-1.8h5.8V52h3.1v1.7h-8.8v-1.6c1 0 1.9-.1 3-.2-.1-7-.1-13.9-.1-21zM153.8 9.7c-1.7.2-3.5 2.1-3.6 4-.1 2.8 0 5.5 0 8.5h3.1V24c-.3 0-.6.1-.8.1h-7.7v-1.9h2.5V9.6h-2.5V7.8h5.3v3.3c.8-.9 1.4-1.8 2.2-2.6 1-.9 2.3-1.3 3.6-.9s2.1 1.7 1.7 3c-.3.9-.9 1.4-1.9 1.4s-1.6-.6-1.8-1.5c-.1-.2-.1-.4-.1-.8zm140.6 59.5c-1.7 0-3.5 1.9-3.6 3.9-.1 2.8 0 5.7 0 8.7h3.1v1.7h-8.5v-1.6h2.5V69.2c-.8 0-1.7-.1-2.6-.1v-1.6h5.3v3.2c.1 0 .2 0 .2.1.2-.4.5-.8.7-1.2.9-1.3 2.1-2.2 3.7-2.3 1.6-.2 2.8.9 2.9 2.3.1 1.2-.7 2.1-1.8 2.2s-1.9-.7-2-2c.1-.3.1-.4.1-.6zM174.8 52h3v1.7h-8.7V52h2.9V39.4h-2.9v-1.8h5.7zm-35.2-29.7h3.1v1.8h-8.8v-1.8h2.9V9.7h-2.9V7.9h5.7zm-1.5-18.2c-1.2 0-2-.8-2-2s.8-2 1.9-2.1c1.1 0 2 .9 2 2 .1 1.2-.8 2-1.9 2.1zm37 27.7c0 1.2-.8 2-2 2-1.1 0-1.9-.8-2-1.9 0-1.2.8-2 1.9-2.1 1.3 0 2.1.8 2.1 2zm-57 68h-.9v-.6c-.1.1-.2.1-.3.2s-.3.2-.4.2c-.1.1-.3.1-.5.2-.2 0-.4.1-.7.1-.5 0-.9-.2-1.2-.5s-.5-.7-.5-1.2c0-.4.1-.7.3-1 .2-.2.4-.4.7-.6.3-.1.7-.2 1.1-.3.4 0 .9-.1 1.4-.1v-.1c0-.2 0-.4-.1-.5l-.3-.3c-.1-.1-.3-.1-.4-.1h-.5c-.2 0-.5 0-.8.1s-.6.1-.9.3v-.9c.2 0 .4-.1.7-.2s.6-.1 1-.1.7 0 1 .1.5.2.7.3.3.3.4.6c.1.2.2.5.2.8zm-.8-1.3V97c-.3 0-.6 0-.9.1-.4 0-.6.1-.9.1-.3.1-.5.2-.6.3-.2.2-.2.4-.2.6 0 .3.1.5.3.7s.5.2.8.2.6-.1.8-.2c.2 0 .5-.1.7-.3zm12-2.2c0 .6-.1 1.2-.4 1.7s-.6.9-1.1 1.2c-.3.2-.7.3-1.1.4s-.9.1-1.5.1h-1.8v-7h1.7c.7 0 1.2 0 1.6.1s.7.2 1 .4c.5.3.8.7 1.1 1.2.4.7.5 1.3.5 1.9zm-.9 0c0-.5-.1-1-.3-1.4s-.5-.7-.8-.9-.6-.3-.9-.3c-.3-.1-.7-.1-1.1-.1h-.9V99h.9c.4 0 .8 0 1.2-.1.3-.1.6-.2.9-.4s.6-.5.8-.9c.1-.3.2-.7.2-1.3zm3.4-2.6h-1v-.9h1zm-.1 6.1h-.9v-5.2h.9zm6.4-5.2l-2.1 5.2h-.9l-2.1-5.2h1l1.6 4.1 1.6-4.1zm2.2-.9h-1v-.9h1zm-.1 6.1h-.9v-5.2h.9zm5.6-1.5c0 .5-.2.9-.6 1.2s-.9.5-1.6.5c-.4 0-.7 0-1.1-.1-.3-.1-.6-.2-.8-.3v-1c.3.2.6.4.9.5s.7.2 1 .2c.4 0 .7-.1.9-.2s.3-.3.3-.6c0-.2-.1-.4-.2-.5s-.3-.2-.7-.3c-.1 0-.3-.1-.5-.1s-.4-.1-.5-.1c-.5-.1-.8-.3-1-.5s-.3-.5-.3-.9c0-.2 0-.4.1-.6s.2-.4.4-.5.4-.3.7-.3c.3-.1.6-.1.9-.1s.6 0 .9.1.6.2.8.3v.9c-.2-.2-.5-.3-.8-.4s-.6-.2-.9-.2-.6.1-.8.2-.3.3-.3.5.1.4.2.5.3.2.6.3c.2 0 .3.1.5.1s.4.1.5.1c.4.1.7.3.9.5.4.1.5.4.5.8zm2.3-4.6h-1v-.9h1zm-.1 6.1h-.9v-5.2h.9zm6.3-2.6c0 .8-.2 1.5-.7 2-.4.5-1 .7-1.8.7-.7 0-1.3-.2-1.8-.7-.4-.5-.7-1.2-.7-2s.2-1.5.7-2c.4-.5 1-.7 1.8-.7.7 0 1.3.2 1.8.7s.7 1.1.7 2zm-.9 0c0-.7-.1-1.2-.4-1.5s-.6-.5-1.1-.5-.8.2-1.1.5-.4.8-.4 1.5.1 1.1.4 1.5c.3.3.6.5 1.1.5s.8-.2 1.1-.5c.2-.3.4-.8.4-1.5zm6.7 2.6h-.9v-3.7c0-.2-.1-.4-.2-.5l-.3-.3c-.1-.1-.3-.1-.6-.1-.2 0-.5.1-.8.2s-.5.3-.8.5v3.9h-.9v-5.2h.9v.6c.3-.2.6-.4.8-.5s.6-.2.9-.2c.6 0 1 .2 1.3.5s.4.8.4 1.5v3.3zm9.7-2.6c0 .8-.2 1.5-.7 2-.4.5-1 .7-1.8.7-.7 0-1.3-.2-1.8-.7-.4-.5-.7-1.2-.7-2s.2-1.5.7-2c.4-.5 1-.7 1.8-.7.7 0 1.3.2 1.8.7s.7 1.1.7 2zm-.9 0c0-.7-.1-1.2-.4-1.5s-.6-.5-1.1-.5-.8.2-1.1.5-.4.8-.4 1.5.1 1.1.4 1.5c.3.3.6.5 1.1.5s.8-.2 1.1-.5c.2-.3.4-.8.4-1.5zm5.1-3.8c-.1 0-.3-.1-.4-.1h-.4c-.4 0-.6.1-.8.2-.2.2-.3.5-.3.9v.2h1.6v.7h-1.6v4.5h-.9v-4.5h-.6v-.7h.6v-.2c0-.6.2-1.1.5-1.4s.8-.5 1.3-.5h.5c.2 0 .3 0 .4.1v.8zm8.7.3h-3.5v2h3v.8h-3v3.3h-.9v-7h4.4zm2 0h-1v-.9h1zm-.1 6.1h-.9v-5.2h.9zm5.1-4.3c-.2 0-.3-.1-.4-.1h-.4c-.3 0-.5.1-.8.2s-.5.3-.7.5v3.7h-.9v-5.2h.9v.8c.3-.3.7-.5.9-.6.3-.1.5-.2.8-.2h.6zm4.7 2.8c0 .5-.2.9-.6 1.2s-.9.5-1.6.5c-.4 0-.7 0-1.1-.1-.3-.1-.6-.2-.8-.3v-1c.3.2.6.4.9.5s.7.2 1 .2c.4 0 .7-.1.9-.2s.3-.3.3-.6c0-.2-.1-.4-.2-.5s-.3-.2-.7-.3c-.1 0-.3-.1-.5-.1s-.4-.1-.5-.1c-.5-.1-.8-.3-1-.5s-.3-.5-.3-.9c0-.2 0-.4.1-.6s.2-.4.4-.5.4-.3.7-.3c.3-.1.6-.1.9-.1s.6 0 .9.1.6.2.8.3v.9c-.2-.2-.5-.3-.8-.4s-.6-.2-.9-.2-.6.1-.8.2-.3.3-.3.5.1.4.2.5.3.2.6.3c.2 0 .3.1.5.1s.4.1.5.1c.4.1.7.3.9.5.3.1.5.4.5.8zm4 1.5c-.2 0-.3.1-.5.1h-.5c-.5 0-.9-.1-1.2-.4s-.4-.7-.4-1.4v-2.8h-.6v-.7h.6v-1.5h.9v1.5h1.8v.7h-1.8v3c0 .2.1.3.1.4l.3.3c.1.1.3.1.5.1.1 0 .3 0 .4-.1.2 0 .3-.1.3-.1v.9zm10 0h-1.1l-3.3-6.2v6.2h-.9v-7h1.4l3 5.7v-5.7h.9zm5.9 0h-.9v-.6c-.1.1-.2.1-.3.2s-.3.2-.4.2c-.1.1-.3.1-.5.2-.2 0-.4.1-.7.1-.5 0-.9-.2-1.2-.5s-.5-.7-.5-1.2c0-.4.1-.7.3-1 .2-.2.4-.4.7-.6.3-.1.7-.2 1.1-.3.4 0 .9-.1 1.4-.1v-.1c0-.2 0-.4-.1-.5l-.3-.3c-.1-.1-.3-.1-.4-.1h-.5c-.2 0-.5 0-.8.1s-.6.1-.9.3v-.9c.2 0 .4-.1.7-.2s.6-.1 1-.1.7 0 1 .1.5.2.7.3.3.3.4.6c.1.2.2.5.2.8zm-.8-1.3V97c-.3 0-.6 0-.9.1-.4 0-.6.1-.9.1-.3.1-.5.2-.6.3-.2.2-.2.4-.2.6 0 .3.1.5.3.7s.5.2.8.2.6-.1.8-.2c.2 0 .4-.1.7-.3zm5.3 1.3c-.2 0-.3.1-.5.1h-.5c-.5 0-.9-.1-1.2-.4s-.4-.7-.4-1.4v-2.8h-.6v-.7h.6v-1.5h.9v1.5h1.8v.7H217v3c0 .2.1.3.1.4l.3.3c.1.1.3.1.5.1.1 0 .3 0 .4-.1.2 0 .3-.1.3-.1v.9zm2.1-6.1h-1v-.9h1zm0 6.1h-.9v-5.2h.9zm6.2-2.6c0 .8-.2 1.5-.7 2s-1 .7-1.8.7c-.7 0-1.3-.2-1.8-.7-.4-.5-.7-1.2-.7-2s.2-1.5.7-2c.4-.5 1-.7 1.8-.7.7 0 1.3.2 1.8.7s.7 1.1.7 2zm-.9 0c0-.7-.1-1.2-.4-1.5s-.6-.5-1.1-.5-.8.2-1.1.5-.4.8-.4 1.5.1 1.1.4 1.5c.3.3.6.5 1.1.5s.8-.2 1.1-.5.4-.8.4-1.5zm6.8 2.6h-.9v-3.7c0-.2-.1-.4-.2-.5l-.3-.3c-.1-.1-.3-.1-.6-.1-.2 0-.5.1-.8.2s-.5.3-.8.5v3.9h-.9v-5.2h.9v.6c.3-.2.6-.4.8-.5s.6-.2.9-.2c.6 0 1 .2 1.3.5s.4.8.4 1.5v3.3zm5.8 0h-.9v-.6c-.1.1-.2.1-.3.2s-.3.2-.4.2c-.1.1-.3.1-.5.2-.2 0-.4.1-.7.1-.5 0-.9-.2-1.2-.5s-.5-.7-.5-1.2c0-.4.1-.7.3-1 .2-.2.4-.4.7-.6.3-.1.7-.2 1.1-.3.4 0 .9-.1 1.4-.1v-.1c0-.2 0-.4-.1-.5l-.3-.3c-.1-.1-.3-.1-.4-.1h-.5c-.2 0-.5 0-.8.1s-.6.1-.9.3v-.9c.2 0 .4-.1.7-.2s.6-.1 1-.1.7 0 1 .1.5.2.7.3.3.3.4.6c.1.2.2.5.2.8zm-.9-1.3V97c-.3 0-.6 0-.9.1s-.6.1-.9.1c-.3.1-.5.2-.6.3-.2.2-.2.4-.2.6 0 .3.1.5.3.7s.5.2.8.2.6-.1.8-.2c.3 0 .5-.1.7-.3zm3.6 1.3h-.9v-7.3h.9zm10.6-2.1c0 .3-.1.7-.2.9-.1.3-.3.5-.5.7-.3.2-.5.4-.9.4-.3.1-.7.1-1.2.1h-2.5v-7h2.1c.5 0 .9 0 1.1.1.3 0 .5.1.7.2.3.1.4.3.6.5.1.2.2.5.2.8s-.1.6-.3.8-.4.4-.7.6c.5.1.8.3 1.1.6.3.4.5.8.5 1.3zm-1.6-3.2c0-.2 0-.3-.1-.4s-.1-.2-.3-.3c-.1-.1-.3-.1-.5-.2h-1.9v2h1.9c.2 0 .3-.1.5-.2.1-.1.2-.2.3-.4.1-.1.1-.3.1-.5zm.6 3.2c0-.3 0-.5-.1-.7s-.2-.3-.5-.4c-.1-.1-.3-.1-.5-.2h-2.3V99h1.2c.4 0 .7 0 1-.1.3 0 .5-.1.6-.2.2-.1.3-.3.4-.4.2-.2.2-.4.2-.6zm6.4 2.1h-.9v-.6c-.1.1-.2.1-.3.2s-.3.2-.4.2c-.1.1-.3.1-.5.2-.2 0-.4.1-.7.1-.5 0-.9-.2-1.2-.5s-.5-.7-.5-1.2c0-.4.1-.7.3-1 .2-.2.4-.4.7-.6.3-.1.7-.2 1.1-.3.4 0 .9-.1 1.4-.1v-.1c0-.2 0-.4-.1-.5l-.3-.3c-.1-.1-.3-.1-.4-.1h-.5c-.2 0-.5 0-.8.1s-.6.1-.9.3v-.9c.2 0 .4-.1.7-.2s.6-.1 1-.1.7 0 1 .1.5.2.7.3.3.3.4.6c.1.2.2.5.2.8zm-.9-1.3V97c-.3 0-.6 0-.9.1-.4 0-.6.1-.9.1-.3.1-.5.2-.6.3-.2.2-.2.4-.2.6 0 .3.1.5.3.7s.5.2.8.2.6-.1.8-.2c.2 0 .5-.1.7-.3zm7 1.3h-.9v-3.7c0-.2-.1-.4-.2-.5l-.3-.3c-.1-.1-.3-.1-.6-.1-.2 0-.5.1-.8.2s-.5.3-.8.5v3.9h-.9v-5.2h.9v.6c.3-.2.6-.4.8-.5.3-.1.6-.2.9-.2.6 0 1 .2 1.3.5s.4.8.4 1.5v3.3zm6.5 0H269l-2.1-2.3-.6.5v1.7h-.9v-7.3h.9v4.7l2.5-2.6h1.1l-2.4 2.4zm8.9-2.6c0 .8-.2 1.5-.7 2-.4.5-1 .7-1.8.7-.7 0-1.3-.2-1.8-.7-.4-.5-.7-1.2-.7-2s.2-1.5.7-2c.4-.5 1-.7 1.8-.7.7 0 1.3.2 1.8.7s.7 1.1.7 2zm-.9 0c0-.7-.1-1.2-.4-1.5s-.6-.5-1.1-.5-.8.2-1.1.5-.4.8-.4 1.5.1 1.1.4 1.5c.3.3.6.5 1.1.5s.8-.2 1.1-.5.4-.8.4-1.5zm5.2-3.8c-.1 0-.3-.1-.4-.1h-.4c-.4 0-.6.1-.8.2-.2.2-.3.5-.3.9v.2h1.6v.7h-1.6v4.5h-.9v-4.5h-.6v-.7h.6v-.2c0-.6.2-1.1.5-1.4s.8-.5 1.3-.5h.5c.2 0 .3 0 .4.1v.8zm8.8 6.4h-4.6v-7h4.6v.8h-3.7v1.9h3.7v.8h-3.7V99h3.7zm5.5 0h-.9v-.6c-.1.1-.2.1-.3.2s-.3.2-.4.2c-.1.1-.3.1-.5.2-.2 0-.4.1-.7.1-.5 0-.9-.2-1.2-.5s-.5-.7-.5-1.2c0-.4.1-.7.3-1 .2-.2.4-.4.7-.6.3-.1.7-.2 1.1-.3.4 0 .9-.1 1.4-.1v-.1c0-.2 0-.4-.1-.5l-.3-.3c-.1-.1-.3-.1-.4-.1h-.5c-.2 0-.5 0-.8.1s-.6.1-.9.3v-.9c.2 0 .4-.1.7-.2s.6-.1 1-.1.7 0 1 .1.5.2.7.3.3.3.4.6c.1.2.2.5.2.8zm-.9-1.3V97c-.3 0-.6 0-.9.1-.4 0-.6.1-.9.1-.3.1-.5.2-.6.3-.2.2-.2.4-.2.6 0 .3.1.5.3.7s.5.2.8.2.6-.1.8-.2c.3 0 .5-.1.7-.3zm6.4-.2c0 .5-.2.9-.6 1.2s-.9.5-1.6.5c-.4 0-.7 0-1.1-.1-.3-.1-.6-.2-.8-.3v-1c.3.2.6.4.9.5s.7.2 1 .2c.4 0 .7-.1.9-.2s.3-.3.3-.6c0-.2-.1-.4-.2-.5s-.3-.2-.7-.3c-.1 0-.3-.1-.5-.1s-.4-.1-.5-.1c-.5-.1-.8-.3-1-.5s-.3-.5-.3-.9c0-.2 0-.4.1-.6s.2-.4.4-.5.4-.3.7-.3c.3-.1.6-.1.9-.1s.6 0 .9.1.6.2.8.3v.9c-.2-.2-.5-.3-.8-.4s-.6-.2-.9-.2-.6.1-.8.2-.3.3-.3.5.1.4.2.5.3.2.6.3c.2 0 .3.1.5.1s.4.1.5.1c.4.1.7.3.9.5.4.1.5.4.5.8zm4.1 1.5c-.2 0-.3.1-.5.1h-.5c-.5 0-.9-.1-1.2-.4s-.4-.7-.4-1.4v-2.8h-.6v-.7h.6v-1.5h.9v1.5h1.8v.7h-1.8v3c0 .2.1.3.1.4l.3.3c.1.1.3.1.5.1.1 0 .3 0 .4-.1.2 0 .3-.1.3-.1v.9zm5.5-2.5h-3.8c0 .3 0 .6.1.8s.2.4.4.6c.2.1.4.3.6.3.2.1.5.1.7.1.4 0 .7-.1 1.1-.2s.6-.3.8-.4v1l-.9.3c-.3.1-.6.1-1 .1-.9 0-1.5-.2-2-.7s-.7-1.1-.7-2 .2-1.5.7-2 1.1-.8 1.8-.8 1.2.2 1.6.6.6 1 .6 1.8zm-.9-.7c0-.5-.1-.8-.3-1.1s-.6-.4-1-.4c-.5 0-.8.1-1.1.4s-.4.6-.5 1h2.9zm5.6-1.1c-.2 0-.3-.1-.4-.1h-.4c-.3 0-.5.1-.8.2s-.5.3-.7.5v3.7h-.9v-5.2h.9v.8c.3-.3.7-.5.9-.6.3-.1.5-.2.8-.2h.6zm5.2 4.3h-.9v-3.7c0-.2-.1-.4-.2-.5l-.3-.3c-.1-.1-.3-.1-.6-.1-.2 0-.5.1-.8.2s-.5.3-.8.5v3.9h-.9v-5.2h.9v.6c.3-.2.6-.4.8-.5.3-.1.6-.2.9-.2.6 0 1 .2 1.3.5s.4.8.4 1.5v3.3zm10.8 0h-1l-.7-1.9h-3l-.7 1.9h-.9l2.5-7h1.2zm-1.9-2.7l-1.2-3.4-1.2 3.4zm6.3-1.6c-.2 0-.3-.1-.4-.1h-.4c-.3 0-.5.1-.8.2s-.5.3-.7.5v3.7h-.9v-5.2h.9v.8c.3-.3.7-.5.9-.6.3-.1.5-.2.8-.2h.6zm5.6 4.3h-1.2l-2.1-2.3-.6.5v1.7h-.9v-7.3h.9v4.7l2.5-2.6h1.1l-2.4 2.4zm5.1 0h-.9v-.6c-.1.1-.2.1-.3.2s-.3.2-.4.2c-.1.1-.3.1-.5.2-.2 0-.4.1-.7.1-.5 0-.9-.2-1.2-.5s-.5-.7-.5-1.2c0-.4.1-.7.3-1 .2-.2.4-.4.7-.6.3-.1.7-.2 1.1-.3.4 0 .9-.1 1.4-.1v-.1c0-.2 0-.4-.1-.5l-.3-.3c-.1-.1-.3-.1-.4-.1h-.5c-.2 0-.5 0-.8.1s-.6.1-.9.3v-.9c.2 0 .4-.1.7-.2s.6-.1 1-.1.7 0 1 .1.5.2.7.3.3.3.4.6c.1.2.2.5.2.8zm-.9-1.3V97c-.3 0-.6 0-.9.1-.4 0-.6.1-.9.1-.3.1-.5.2-.6.3-.2.2-.2.4-.2.6 0 .3.1.5.3.7s.5.2.8.2.6-.1.8-.2c.3 0 .5-.1.7-.3zm7 1.3h-.9v-3.7c0-.2-.1-.4-.2-.5l-.3-.3c-.1-.1-.3-.1-.6-.1-.2 0-.5.1-.8.2s-.5.3-.8.5v3.9h-.9v-5.2h.9v.6c.3-.2.6-.4.8-.5.3-.1.6-.2.9-.2.6 0 1 .2 1.3.5s.4.8.4 1.5v3.3zm5.6-1.5c0 .5-.2.9-.6 1.2s-.9.5-1.6.5c-.4 0-.7 0-1.1-.1-.3-.1-.6-.2-.8-.3v-1c.3.2.6.4.9.5s.7.2 1 .2c.4 0 .7-.1.9-.2s.3-.3.3-.6c0-.2-.1-.4-.2-.5s-.3-.2-.7-.3c-.1 0-.3-.1-.5-.1s-.4-.1-.5-.1c-.5-.1-.8-.3-1-.5s-.3-.5-.3-.9c0-.2 0-.4.1-.6s.2-.4.4-.5.4-.3.7-.3c.3-.1.6-.1.9-.1s.6 0 .9.1.6.2.8.3v.9c-.2-.2-.5-.3-.8-.4s-.6-.2-.9-.2-.6.1-.8.2-.3.3-.3.5.1.4.2.5.3.2.6.3c.2 0 .3.1.5.1s.4.1.5.1c.4.1.7.3.9.5.3.1.5.4.5.8zm5.4 1.5h-.9v-.6c-.1.1-.2.1-.3.2s-.3.2-.4.2c-.1.1-.3.1-.5.2-.2 0-.4.1-.7.1-.5 0-.9-.2-1.2-.5s-.5-.7-.5-1.2c0-.4.1-.7.3-1 .2-.2.4-.4.7-.6.3-.1.7-.2 1.1-.3.4 0 .9-.1 1.4-.1v-.1c0-.2 0-.4-.1-.5l-.3-.3c-.1-.1-.3-.1-.4-.1h-.5c-.2 0-.5 0-.8.1s-.6.1-.9.3v-.9c.2 0 .4-.1.7-.2s.6-.1 1-.1.7 0 1 .1.5.2.7.3.3.3.4.6c.1.2.2.5.2.8zm-.9-1.3V97c-.3 0-.6 0-.9.1-.4 0-.6.1-.9.1-.3.1-.5.2-.6.3-.2.2-.2.4-.2.6 0 .3.1.5.3.7s.5.2.8.2.6-.1.8-.2c.2 0 .5-.1.7-.3zm6.4-.2c0 .5-.2.9-.6 1.2s-.9.5-1.6.5c-.4 0-.7 0-1.1-.1-.3-.1-.6-.2-.8-.3v-1c.3.2.6.4.9.5s.7.2 1 .2c.4 0 .7-.1.9-.2s.3-.3.3-.6c0-.2-.1-.4-.2-.5s-.3-.2-.7-.3c-.1 0-.3-.1-.5-.1s-.4-.1-.5-.1c-.5-.1-.8-.3-1-.5s-.3-.5-.3-.9c0-.2 0-.4.1-.6s.2-.4.4-.5.4-.3.7-.3c.3-.1.6-.1.9-.1s.6 0 .9.1.6.2.8.3v.9c-.2-.2-.5-.3-.8-.4s-.6-.2-.9-.2-.6.1-.8.2-.3.3-.3.5.1.4.2.5.3.2.6.3c.2 0 .3.1.5.1s.4.1.5.1c.4.1.7.3.9.5.4.1.5.4.5.8z"/></svg>