<svg xmlns="http://www.w3.org/2000/svg" width="2500" height="2500" viewBox="0 0 192.756 192.756"><path fill-rule="evenodd" clip-rule="evenodd" d="M0 0h192.756v192.756H0V0z"/><path fill-rule="evenodd" clip-rule="evenodd" fill="#fff" d="M90.988 62.621h22.127v6.146H90.988v-6.146zM90.988 73.4h19.196v6.052H90.988V73.4zM82.289 62.621h6.619v29.786h-6.619V62.621zM62.526 124.461c-.378.568-.756.947-1.607.947-1.04 0-1.513-.758-1.513-1.893 0-1.229.662-1.797 1.513-1.797.851 0 1.324.379 1.607.947v-1.135c-.283-.283-.851-.662-1.702-.662-1.513 0-2.269 1.135-2.269 2.553s.567 2.742 2.269 2.742c.567 0 1.229-.094 1.702-.662v-1.04zM71.887 123.422c0-1.418-.756-2.553-2.269-2.553-1.608 0-2.27 1.135-2.27 2.553s.567 2.742 2.27 2.742c1.702 0 2.269-1.324 2.269-2.742zm-.85.094c0 .852-.284 1.893-1.418 1.893-1.135 0-1.419-1.041-1.419-1.893 0-.945.284-1.797 1.419-1.797 1.133 0 1.418.851 1.418 1.797zM76.804 126.07h2.837v-.758h-1.985v-4.349h-.852v5.107zM84.369 126.07h2.837v-.758H85.22v-4.349h-.851v5.107zM91.934 126.07h3.215v-.758h-2.364v-1.417h2.364v-.663h-2.364v-1.418h2.364v-.851h-3.215v5.107zM104.037 124.461c-.473.568-.852.947-1.701.947-.945 0-1.514-.758-1.514-1.893 0-1.229.662-1.797 1.514-1.797.85 0 1.322.379 1.607.947h.094v-1.135c-.379-.283-.945-.662-1.797-.662-1.512 0-2.27 1.135-2.27 2.553s.568 2.742 2.27 2.742c.568 0 1.23-.094 1.797-.662v-1.04zM109.994 126.07h.852v-4.256h1.513v-.851h-3.877v.851h1.512v4.256zM116.992 126.07h.852v-5.107h-.852v5.107zM127.203 123.422c0-1.418-.66-2.553-2.268-2.553-1.514 0-2.176 1.135-2.176 2.553s.473 2.742 2.176 2.742c1.797 0 2.268-1.324 2.268-2.742zm-.849.094c0 .852-.189 1.893-1.418 1.893-1.135 0-1.42-1.041-1.42-1.893 0-.945.285-1.797 1.42-1.797 1.132 0 1.418.851 1.418 1.797zM132.121 126.07h.852v-4.445h.093l2.27 4.445h1.23v-5.107h-.851v4.162h-.096l-2.08-4.162h-1.418v5.107z"/><path fill="none" stroke="#fff" stroke-width=".28" stroke-miterlimit="2.613" d="M16.476 114.912h161.79"/><path d="M23.946 104.51c0-.473 0-.473.473-.473h.567c.756 0 1.229.096 1.418.283.188.189.378.568.473 1.135h.473c0-.85-.095-1.797-.095-1.984h-6.052v.377c.946.096 1.041.189 1.041 1.514v4.256c0 1.322-.095 1.418-1.041 1.512v.379h3.972v-.379c-1.134-.094-1.229-.189-1.229-1.512v-1.893h1.135c1.135 0 1.135.096 1.324 1.041h.473v-2.648h-.473c-.189.945-.189 1.041-1.324 1.041h-1.135v-2.649zM34.726 104.51c0-.473 0-.473.662-.473s1.607.379 1.607 1.607c0 .662-.189 1.23-.756 1.607-.284.283-.662.283-1.135.283h-.378v-3.024zm0 3.498h.284c.378 0 .567.096.756.568.378.662.756 1.324 1.135 1.891.473.758.945 1.041 2.553 1.135h.473v-.377c-.378-.096-.473-.189-.757-.475-.284-.283-.567-.756-1.04-1.418-.378-.566-.851-1.418-1.04-1.701.946-.379 1.702-1.041 1.702-2.176 0-.662-.378-1.229-.945-1.512-.473-.379-1.229-.473-2.27-.473h-3.593v.377c.945.096 1.04.189 1.04 1.514v4.256c0 1.322-.095 1.418-1.04 1.512v.379h3.782v-.379c-.946-.094-1.04-.189-1.04-1.512v-1.609zM48.153 111.508h3.593v-.379c-.756-.094-.945-.094-1.418-1.324-.473-1.229-1.041-2.742-1.607-4.16l-.851-2.27-.662.096-2.647 6.43c-.378 1.039-.568 1.135-1.419 1.229v.379h3.026v-.379h-.378c-.567-.094-.567-.189-.378-.852a4.99 4.99 0 0 1 .473-1.418h2.27c.189.473.473 1.041.662 1.514s.095.662-.378.662l-.284.094v.378h-.002zm-1.135-5.863l.945 2.553h-1.891l.946-2.553zM63.283 106.875c0-1.324.094-1.986.094-2.365.095-.473.378-.566 1.04-.662v-.377h-3.214v.377c.851.096 1.134.189 1.229.662.095.379.189 1.041.189 2.365v2.174h-.095l-5.012-5.578h-2.269v.377c.567.096.851.189 1.134.473.189.285.189.568.189 1.324v2.459c0 1.324-.095 1.986-.095 2.363-.094.473-.378.662-1.04.662v.379h3.215v-.379c-.851 0-1.135-.189-1.229-.662-.094-.377-.094-1.039-.094-2.363v-2.553l5.105 6.051h.852v-4.727h.001zM71.604 107.535h.095c1.04 1.324 2.647 3.404 3.12 3.973h2.553v-.379c-.473-.094-.756-.189-1.323-.945-1.041-1.041-1.986-2.27-2.932-3.404.663-.662 1.418-1.324 2.27-2.08.851-.662 1.04-.756 1.891-.852v-.377h-3.404v.377l.567.096c.284 0 .378.094 0 .566-.567.662-2.175 2.365-2.836 2.932v-2.08c0-1.324.188-1.418 1.04-1.514v-.377h-3.782v.377c1.04.096 1.135.189 1.135 1.514v4.256c0 1.322-.095 1.418-1.04 1.512v.379h3.782v-.379c-.946-.094-1.135-.189-1.135-1.512v-2.083h-.001zM82.856 109.617c0 1.322-.189 1.418-1.229 1.512v.379h6.431c.189-.283.378-1.607.473-2.08l-.473-.096c-.189.662-.379 1.041-.662 1.23-.284.377-.852.377-1.418.377s-.946 0-1.135-.094c-.284-.096-.284-.379-.284-1.229v-1.986h.945c1.04 0 1.135.094 1.229 1.039h.473v-2.742h-.473c-.095 1.041-.189 1.041-1.229 1.041h-.945v-2.459c0-.473 0-.473.473-.473h.473c.852 0 1.229.096 1.419.283.283.189.378.568.473 1.135h.473c0-.85-.095-1.797-.095-1.984h-5.957v.377c.851.096 1.04.189 1.04 1.514v4.256h-.002zM101.105 106.875c0-1.324.096-1.986.096-2.365.094-.473.377-.566 1.039-.662v-.377h-3.215v.377c.852.096 1.229.189 1.229.662.096.379.189 1.041.189 2.365v2.174h-.094l-5.012-5.578h-2.269v.377c.567.096.851.189 1.134.473.189.285.189.568.189 1.324v2.459c0 1.324 0 1.986-.094 2.363-.095.473-.378.662-1.041.662v.379h3.215v-.379c-.851 0-1.135-.189-1.229-.662 0-.377-.094-1.039-.094-2.363v-2.553l5.201 6.051h.756v-4.727zM109.143 103.471h-3.688v.377c.662.096.852.189 1.23 1.23l2.174 6.523h.756l1.893-5.578 2.174 5.578h.758c1.039-3.404 1.984-6.051 2.08-6.43.473-1.135.566-1.229 1.418-1.324v-.377h-3.121v.377l.473.096c.568 0 .662.189.475.945-.189.756-.758 2.836-1.23 4.35l-2.27-5.674h-.566l-1.893 5.674-1.418-4.539c-.189-.566-.189-.756.283-.756l.473-.096v-.376h-.001zM124.84 111.508h3.594v-.379c-.756-.094-.945-.094-1.418-1.324-.473-1.229-1.041-2.742-1.607-4.16l-.852-2.27-.662.096-2.646 6.43c-.379 1.039-.568 1.135-1.324 1.229v.379h2.93v-.379h-.377c-.568-.094-.568-.189-.379-.852.189-.566.283-1.039.473-1.418h2.27c.189.473.473 1.041.662 1.514s.189.662-.379.662l-.283.094v.378h-.002zm-1.135-5.863l.945 2.553h-1.891l.946-2.553zm1.703-2.553c.377 0 .66-.283.66-.662s-.283-.662-.66-.662c-.473 0-.758.283-.758.662s.286.662.758.662zm-2.459 0c.379 0 .662-.283.662-.662s-.283-.662-.662-.662c-.473 0-.756.283-.756.662s.284.662.756.662zM135.146 105.361c0-1.324.096-1.418 1.041-1.514v-.377h-3.877v.377c1.041.096 1.135.189 1.135 1.514v4.256c0 1.322-.094 1.418-1.229 1.512v.379h6.24c.094-.283.377-1.607.473-2.08l-.473-.096c-.189.662-.379 1.041-.662 1.23-.283.377-.852.377-1.418.377-.379 0-.758 0-.945-.094-.285-.096-.285-.379-.285-1.229v-4.255zM142.9 103.471v.377c.945.096 1.041.189 1.041 1.514v4.256c0 1.322-.096 1.418-1.135 1.512v.379h3.309c3.121 0 5.58-1.324 5.58-4.35 0-1.135-.568-1.986-1.135-2.553-.852-.852-2.176-1.135-3.688-1.135H142.9zm2.743 1.228c0-.283 0-.566.096-.566.094-.096.377-.096.756-.096 1.891 0 3.311.852 3.311 3.498 0 2.082-1.23 3.404-3.121 3.404-.945 0-1.041-.283-1.041-1.418v-4.822h-.001zM156.707 109.617c0 1.322-.189 1.418-1.23 1.512v.379h6.43c.189-.283.379-1.607.475-2.08l-.475-.096c-.188.662-.377 1.041-.66 1.23-.285.377-.852.377-1.42.377-.566 0-.945 0-1.135-.094-.283-.096-.283-.379-.283-1.229v-1.986h.945c1.041 0 1.135.094 1.23 1.039h.473v-2.742h-.473c-.096 1.041-.189 1.041-1.23 1.041h-.945v-2.459c0-.473 0-.473.473-.473h.473c.852 0 1.23.096 1.42.283.283.189.377.568.473 1.135h.473c0-.85-.096-1.797-.096-1.984h-5.957v.377c.852.096 1.041.189 1.041 1.514v4.256h-.002zM169.283 104.51c0-.473.094-.473.662-.473.756 0 1.607.379 1.607 1.607 0 .662-.189 1.23-.662 1.607-.283.283-.662.283-1.23.283h-.377v-3.024zm0 3.498h.283c.473 0 .662.096.852.568.283.662.662 1.324 1.039 1.891.568.758 1.041 1.041 2.553 1.135h.473l.096-.377c-.379-.096-.568-.189-.756-.475-.285-.283-.662-.756-1.041-1.418-.379-.566-.945-1.418-1.135-1.701 1.041-.379 1.703-1.041 1.703-2.176 0-.662-.285-1.229-.852-1.512-.473-.379-1.229-.473-2.363-.473h-3.5v.377c.945.096 1.041.189 1.041 1.514v4.256c0 1.322-.096 1.418-1.135 1.512v.379h3.877v-.379c-1.041-.094-1.135-.189-1.135-1.512v-1.609z" fill-rule="evenodd" clip-rule="evenodd" fill="#fff"/></svg>