<svg xmlns="http://www.w3.org/2000/svg" width="2500" height="2500" viewBox="0 0 192.756 192.756"><g fill-rule="evenodd" clip-rule="evenodd"><path fill="#fff" d="M0 0h192.756v192.756H0V0z"/><path d="M2.856 91.567h9.254l.043-4.735-.021-.605c-.065-3.697 4.367-5.687 7.524-5.687 2.465 0 5.427 1.687 5.427 4.433 0 2.097-1.643 3.87-3.783 3.87-1.946 0-3.827-1.687-3.827-3.697 0-.822.303-1.557.648-2.271-.713.605-1.038 1.47-1.038 2.379 0 2.789 1.687 2.896 2.033 6.313H31.85c-.389.583-.476 1.189-.476 1.881l.021 4.842.303-.865c.865-2.421 2.098-6.096 5.254-6.096 1.946 0 3.74 1.687 3.74 3.675 0 2.011-1.686 4.001-3.783 4.001-1.211 0-2.162-.715-2.984-1.535-2.443 1.838-2.681 7.004-2.681 9.859 0 1.209.043 2.441.433 3.609-1.427.715-3.481.346-5.016.346-.778 0-1.557-.043-2.27-.367.302-.496.432-.951.497-1.535l.043-.691V93.103h-5.989l-.043 15.524.022.453.086.758c.043.346.086.691.151 1.037-.778.281-1.578.346-2.421.346h-2.66c-.8-.021-1.622-.043-2.356-.389.259-.67.389-1.428.389-2.162V93.103H2.834l.022-1.536z"/><path d="M41.601 92.108c1.946-1.125 4.324-1.427 6.551-1.427 3.07 0 6.94.346 9.362 2.486 1.297 1.189 1.384 2.746 1.384 4.368v11.783c0 .584.065 1.189.324 1.709-.627.215-1.275.279-1.967.279l-2.357-.021c-.8 0-1.621-.021-2.399-.258.237-.455.389-.865.389-1.406-2.529 1.686-5.016 2.594-8.086 2.594-3.784 0-7.438-1.729-7.438-6.031 0-9.859 15.588-4.324 15.588-10.53 0-2.551-2.918-3.157-4.951-3.157-2.356 0-4.519.713-6.4 2.141v-2.53zM61.147 91.805c.8-.195 1.6-.281 2.421-.281 1.557 0 3.157-.043 4.67.281-.281.389-.368.757-.368 1.254l-.064 4.281c1.816-4.108 4.454-6.399 9.189-6.399 3.675 0 7.718 2.01 7.718 6.183L84.67 108.8c0 .736.151 1.449.367 2.141-1.578.389-3.221.389-4.843.389-.735 0-1.427-.064-2.119-.324.303-.756.476-1.512.476-2.334l-.043-9.838c0-2.594-1.622-4.562-4.324-4.562-6.032 0-6.465 8.433-6.465 12.736 0 1.037-.173 2.398.303 3.373l.195.367.086.172c-1.665.346-3.438.346-5.146.346a6.912 6.912 0 0 1-2.097-.303c.26-.561.411-1.102.411-1.75V93.059c0-.476-.087-.865-.324-1.254zM87.438 85.773c1.189-.454 2.486-.433 3.762-.433 1.081 0 2.162.021 3.179.454-.26.713-.411 1.384-.411 2.141l-.043 9.793c2.162-3.826 5.773-6.55 10.357-6.55 2.939 0 5.188 2.097 5.188 5.082 0 3.523-2.832 6.162-5.967 7.352l-1.492.561-.453.174 4.303 3.459.842.648c1.039.844 2.119 1.6 3.482 1.752-1.254 1.102-3.027 1.34-4.67 1.34-2.92 0-5.881-1.254-7.979-3.242l-3.611-3.395-.087 3.697c0 .842.087 1.707.605 2.398-1.275.26-2.594.303-3.892.303-1.146 0-2.313-.043-3.395-.432.346-.562.605-1.361.605-2.033l.021-21.188a5.527 5.527 0 0 0-.344-1.881z"/><path d="M126.484 91.784h14.832c-.279.411-.367.778-.367 1.275l-.086 4.281c1.816-4.108 4.475-6.399 9.189-6.399 3.697 0 7.697 2.033 7.697 6.183v11.611c0 .758.172 1.492.367 2.205-.844.195-1.688.389-2.551.389h-1.904c-.863 0-1.707-.021-2.529-.324.303-.734.477-1.469.477-2.27v-9.902c0-2.616-1.643-4.562-4.346-4.562-5.99 0-6.465 8.498-6.465 12.736 0 1.037-.174 2.398.303 3.373l.172.367.088.172c-1.557.303-3.113.324-4.715.324-.842 0-1.686-.021-2.529-.281.303-.561.498-1.102.477-1.75l-.021-15.741h-5.297c2.139 2.119 3.566 4.561 3.566 7.674 0 6.725-5.643 10.639-11.979 10.639-5.945 0-11.199-3.871-11.199-10.162 0-5.924 5.449-10.681 11.242-10.681 1.623 0 3.244.303 4.801.67l.777.173zM159.824 92.194c1.189-.432 2.486-.432 3.74-.432 1.082 0 2.184.021 3.201.454a4.628 4.628 0 0 0-.455 2.011v14.486c0 .822.043 1.6.52 2.291-1.297.281-2.637.303-3.979.303-1.123 0-2.248-.043-3.309-.432.326-.627.541-1.449.541-2.162V94.227a7.977 7.977 0 0 0-.259-2.033zM189.922 110.725c-.844.346-1.709.453-2.596.453h-1.924l-1.125.043c-.518 0-.951-.107-1.426-.303l.086-.303.086-.236c.131-.348.131-.758.195-1.125-2.141 1.686-4.627 2.703-7.395 2.703-3.74 0-8.193-1.904-8.193-6.207 0-8.906 15.588-4.518 15.588-9.966 0-2.206-2.076-3.589-4.129-3.589-.996 0-2.076.108-2.768.908.389.67.627 1.362.627 2.162 0 2.011-1.492 3.913-3.59 3.913-2.053 0-3.936-1.729-3.936-3.805 0-4.713 6.877-4.648 10.119-4.648 4.043 0 9.859.865 9.859 6.032v12.41c.002.476.327 1.124.522 1.558zM163.24 83.395c2.098 0 3.85 1.751 3.85 3.827 0 2.097-1.752 3.848-3.85 3.848-2.096 0-3.826-1.751-3.826-3.848 0-2.076 1.752-3.827 3.826-3.827z"/><path d="M94.054 101.838c0 1.514.952 2.465 2.443 2.465 3.373 0 6.767-3.676 6.767-6.984 0-1.362-.908-2.659-2.377-2.659-3.416-.001-6.833 3.848-6.833 7.178zM183.457 101.102a29.42 29.42 0 0 0-1.947-.086c-2.939 0-7.285.844-7.285 4.562 0 2.27 1.621 4.303 3.957 4.303 2.982 0 5.318-3.006 5.297-5.881l-.022-2.898zM121.533 93.081c-3.955 0-5.34 5.751-5.34 8.757 0 2.875 1.211 8.107 4.93 8.107 3.957 0 5.275-5.318 5.275-8.41 0-2.984-.908-8.454-4.865-8.454zM52.931 101.102a28.174 28.174 0 0 0-1.924-.086c-2.962 0-7.308.865-7.308 4.584 0 2.27 1.622 4.303 3.957 4.303 3.005 0 5.297-2.984 5.297-5.881l-.022-2.92z" fill="#fff"/></g></svg>