<svg xmlns="http://www.w3.org/2000/svg" width="2500" height="1258" viewBox="0 0 553.447 278.566"><path d="M411.237 198.218v-32.771c22.201-4.229 41.761-10.053 49.16-19.025 7.928-10.576 12.158-23.789 12.683-24.85 25.381-1.056 50.745-1.585 76.125-2.115v76.116c-23.789 1.061-47.578 0-70.834 1.061v-20.086c-10.567 7.927-34.887 15.858-67.134 21.67zm0-89.329c3.697 0 5.821.526 6.873 1.053 1.585.53 2.115 2.646 2.646 5.287l1.055 6.873v1.059c.524 2.11 1.055 4.226 1.055 4.756h15.858c-1.055-3.173-1.585-6.872-2.637-11.1-.533-4.759-1.063-6.875-1.595-7.928-.521-2.646-1.585-3.703-3.696-4.761-1.586-1.055-4.756-1.055-7.932-1.585 4.762-.527 7.932-2.115 10.573-4.227 2.115-2.119 3.7-5.287 3.7-8.459 0-2.643-.521-4.228-1.585-6.346-1.582-2.111-3.167-3.168-5.291-4.226-1.576-.53-3.697-1.059-5.808-1.585-2.121-.53-5.29-.53-9.521-.53h-3.697v9.514c4.229 0 6.873.53 7.929 1.588 1.591 1.056 2.646 2.644 2.646 4.23 0 2.641-1.055 4.226-2.646 5.284-1.585.529-4.23 1.056-7.929 1.056v10.047h.002zm0-70.304V6.869c53.392 5.813 98.32 15.857 123.161 29.073 10.046 5.815 19.559 43.344 19.028 46.517-.524 3.171-78.756-2.115-78.756-2.115s-1.062-20.084-14.273-27.488c-7.4-3.7-28.541-10.04-49.16-14.271zm72.416 239.98h-4.752v-29.076h6.867l8.991 22.726 8.981-22.726h6.87v29.076h-4.225v-24.847l-10.053 24.847h-3.166l-10.037-24.847.524 24.847zm-39.115 0h-4.225v-29.076h4.225v29.076zM411.237 6.869v31.717c-17.968-4.23-35.94-6.872-44.924-6.872-4.761 0-11.631 0-19.559-.527V1.583c22.195 1.058 43.87 2.643 64.483 5.286zm0 70.302v9.514h-10.568v12.158h10.568v10.046H400.671v19.027h-14.276V77.171h24.842zm0 88.277v32.771c-19.027 3.7-41.227 6.87-64.481 8.985v-34.888c19.026-1.584 43.344-3.169 64.481-6.868zm-64.482 113.117v-4.228h.53v4.228h-.53zm0-12.689v-3.7h.53v3.7h-.53zm0-12.158v-4.229h.53v4.229h-.53zm0-136.374v-9.513h9.507l-8.977-19.56-.53 1.056V77.171h10.037l25.903 50.745h-16.913l-4.761-10.572h-14.266zm39.639 161.221h-4.752v-29.076h4.752l15.337 22.203-.529-22.203h4.752v29.076H401.2l-15.327-22.73.521 22.73zM346.755 1.583v29.603c-9.521 0-20.619-.529-32.777-.529V.526c11.103 0 22.201.527 32.777 1.057zm0 75.588v12.157l-9.521 18.504h9.521v9.513h-14.273l-5.285 10.572h-13.219v-4.756l24.847-45.989 7.93-.001zm0 95.146v34.888c-10.576 1.061-21.674 2.111-32.777 2.646v-35.417c1.062 0 1.591 0 2.121-.523 6.337-.534 17.433-1.064 30.656-1.594zm0 77.172v4.229h-11.099v8.458h11.099v3.7h-11.099v8.461h11.099v4.228h-15.858v-29.076h15.858zM313.978 87.743h2.646V77.171h-2.646v10.572zm-29.066 186.594c2.105-.53 4.222-1.063 5.275-2.646 2.121-1.585 3.176-4.229 3.176-7.399 0-3.176-1.055-5.813-3.176-7.928-1.055-1.056-3.17-2.115-5.275-2.646v-4.229c3.699.529 6.337 2.114 8.981 4.229 2.646 2.646 4.222 6.343 4.222 10.573 0 2.646-.521 4.225-1.575 6.346-1.062 2.106-2.646 3.7-4.762 5.285-1.591 1.052-2.646 1.582-4.229 2.112-.53 0-1.582 0-2.637.529v-4.226zM313.978.526v30.131c-8.984 0-18.498-.53-29.064-.53V0c10.034 0 19.557 0 29.064.526zm0 76.645v10.572H296.54v40.173h-11.628V77.171h29.066zm0 45.989l-2.64 4.756h2.64v-4.756zm0 51.272v35.417c-9.507 1.052-19.028 1.052-29.064 1.582v-36.469c10.034 0 19.557-.53 29.064-.53zm-29.066 99.905v4.228H272.222v-29.076H284.912v4.229h-7.933v20.619h7.933zm0-274.337v30.126c-16.391 0-34.364 0-52.863 1.061V1.053C249.49.526 267.464 0 284.912 0zm0 77.171v50.745h-3.177V87.743H261.65V77.171h23.262zm0 97.791v36.469c-17.448.53-34.891.53-52.863.53v-36.999c17.973.522 35.942.522 52.863 0zm-52.863-45.988V118.93h.53c3.171 0 5.813-.527 7.398-1.585 1.588-.527 2.114-2.115 2.114-3.703 0-2.638-3.171-4.752-10.043-5.81v-12.16c.53.526 1.588.526 2.114.526 1.058.531 2.114.531 2.643.531h.53c7.929 1.588 13.213 3.171 15.328 5.287 1.585 1.585 2.643 2.644 3.698 4.758.532 1.583 1.059 3.699 1.059 5.814 0 5.284-2.114 9.514-6.872 12.155-4.229 2.643-10.57 4.231-18.499 4.231zm0-43.344v-8.987h1.056c7.399 0 13.214 1.059 16.917 3.17 3.699 2.646 5.284 6.345 5.814 12.16h-14.271c0-2.115-.532-3.7-2.115-4.758-1.588-1.058-3.699-1.585-6.871-1.585h-.53zm0-84.577v30.133c-15.328.527-30.656 1.059-45.984 2.642V4.226c15.328-1.058 30.656-2.111 45.984-3.173zm0 75.591v8.987c-2.644.527-4.758.527-6.343 1.585-1.588.527-2.114 2.112-2.114 3.7 0 2.114 2.641 3.699 8.457 4.756v12.16h-.527c-1.588-.53-2.646-.53-3.7-.53-7.401-1.585-12.157-3.173-14.801-5.285-3.173-2.646-4.756-5.287-4.756-9.513 0-5.288 2.114-8.991 6.341-12.16 4.228-2.643 10.044-3.7 17.443-3.7zm0 42.285v10.044c-8.457 0-14.272-1.588-18.501-4.229-4.227-2.642-6.341-6.872-6.341-12.687v-1.055h14.801v.527c0 2.641 1.053 4.226 2.643 5.286 1.582 1.587 4.225 2.114 7.398 2.114zm0 56.033v36.999c-15.328-.53-30.656-1.591-45.984-2.646v-36.999c15.328 1.592 30.656 2.646 45.984 2.646zm-45.985 82.985v-8.458h2.642l-2.642 8.458zm0-141.66v-12.158h13.213v12.158h-13.213zm0-112.061v29.603c-18.501 1.585-35.943 4.228-51.276 7.399V10.573c16.385-2.647 33.828-4.759 51.276-6.347zm0 99.902v12.158h-13.217v-12.158h13.217zm0 68.189v36.999c-17.448-1.582-34.891-3.176-51.276-6.343v-39.117c16.917 3.7 33.828 6.346 51.276 8.461zm0 77.172v8.458l-6.873 20.618h-4.229l-5.284-21.68-5.818 21.68h-3.699l-9.514-29.076h4.756l6.345 22.203 6.341-22.203h3.173l6.341 22.203 6.346-22.203h2.115zm-51.276-120.515V118.93h3.702c1.586 0 3.7 0 5.284-.527 2.115 0 4.23-.529 5.815-1.058v-7.929h-13.213V99.371h28.014v25.899c-3.7 1.062-7.929 2.115-12.16 2.646-4.226.53-8.457 1.058-13.213 1.058h-4.229zm0-42.816v-9.515h2.646c8.457 0 15.328 1.059 19.556 4.227 4.76 2.643 7.402 6.873 7.402 12.16h-15.858c0-2.114-1.585-3.702-3.173-5.287-2.11-1.585-4.756-2.112-8.457-2.112-.527-.001-1.059.527-2.116.527zm0-75.585v30.655c-8.982 2.114-17.442 4.229-24.842 6.872V14.798c7.93-1.585 16.385-3.17 24.842-4.225zm0 66.071v9.515c-4.227 0-7.399 1.585-10.04 3.699-2.646 3.172-4.23 7.402-4.23 12.158 0 5.815 1.585 10.042 4.758 12.688 2.114 2.113 5.287 3.698 9.514 4.226v10.044c-8.982-.526-16.385-2.643-21.143-6.341-1.585-1.588-2.643-2.646-3.699-4.23V87.215c1.057-1.058 2.114-2.646 3.699-3.703 5.287-4.226 12.158-6.868 21.141-6.868zm0 87.212v39.117c-8.457-1.055-16.912-2.64-24.842-4.755V156.99c7.93 2.635 16.385 4.76 24.842 6.866zm-24.841 106.251v-4.229h4.227l-4.227-10.567v-5.82h2.114l12.157 29.076h-5.284l-3.173-8.458-5.814-.002zm0-255.309V48.1c-17.974 6.344-30.131 14.8-33.828 26.431-5.814 17.974-12.688 66.601 28.54 80.344 1.589 1.055 3.174 1.585 5.288 2.115v41.229c-20.086-4.229-38.06-10.043-53.918-16.913V28.541c15.858-5.287 33.832-10.044 53.918-13.743zm0 72.417c-3.173 4.229-4.758 9.514-4.758 15.858 0 6.341 1.585 11.629 4.758 15.327V87.215zm0 162.274v5.82l-4.758 10.567h4.758v4.229h-6.341l-3.173 8.458h-4.758l12.157-29.076 2.115.002zm-53.918 23.255v-8.452c1.588 0 2.646-.53 3.703-1.062 1.585-1.055 2.111-2.114 2.111-4.222 0-2.124-.526-3.7-2.111-4.23-.529-.529-2.115-1.061-3.703-1.061v-4.229c3.174 0 5.814 1.061 7.402 2.646 2.115 1.585 2.643 3.7 2.643 6.876 0 2.637-.526 4.222-2.114 5.807-1.585 1.592-3.699 2.646-6.341 2.646l8.456 11.104H60.79l-4.761-5.823zm0-244.203v152.764a149.968 149.968 0 0 1-24.314-12.688C12.16 155.928 2.115 135.315 0 113.641V97.26c2.643-27.488 17.442-53.918 40.701-62.905 4.756-2.111 10.044-4.229 15.328-5.814zm0 220.948v4.229h-5.813v11.098h2.646c1.059 0 2.115-.523 3.168-.523v8.452l-5.813-7.397v13.219h-4.229V249.49h8.988l1.053-.001z"/></svg>