<svg xmlns="http://www.w3.org/2000/svg" width="2500" height="2500" viewBox="0 0 192.756 192.756"><g fill-rule="evenodd" clip-rule="evenodd"><path fill="#fff" d="M0 0h192.756v192.756H0V0z"/><path d="M39.962 67.726c.307-.844-1.322-.633-3.277-.154-.767-1.418-1.783-2.032-2.722-1.552-18.439 7.016-26.087 18.497-26.95 30.209.23 16.715 17.634 15.928 23.576 12.574-.939 2.895-7.092 12.113-12.804 16.254 1.572.076 2.434-.346 3.144-.805.229.152.44.326.613.459-.479.346-1.323.883-2.262 1.496 3.833.633 8.74-3.662 8.185-.863-.843 1.035-2.166 2.99-4.044 4.391.537-.154.843-.078.767.689 15.871-15.449 16.561-31.32 16.331-35.46 3.201-2.722 4.523-4.523 5.08-4.907l-.25-.307c-.632.384-1.323.69-2.089 1.016.767-1.092 1.399-2.416 1.629-3.584-.863-.46-.632-.882.153-1.188 0-.939-.153-1.955-.383-2.415-2.338 2.204-4.6 3.527-6.728 4.601l-1.246-1.323c-.767-.23-1.016.172-.69 1.323-.805-.69-1.265-.767-1.399.076v1.726c-4.389 1.782-9.009 3.143-11.807 3.45 0 .211.076.46.076.69 1.323.077 1.572.249.249.843.844 2.511 4.352 3.201 10.753 2.128-.134 1.016-.383 2.088-.843 3.43-1.802.787-7.341 4.217-12.037 3.527-10.121-2.339-8.032-23.271 18.975-36.324zm30.286 34.309c.863-.305 2.396-.977 3.201-1.57v-.191a21.08 21.08 0 0 1-3.374 1.227l1.054-.576.077-.248c-7.418 2.895-11.865 2.262-13.743-2.568 5.386-1.266 10.082-3.355 14.28-5.08v-.25l-1.246.403-.172-.153 1.956-.709.096-.229-3.681 1.092c.307-.863 1.975-.479 2.741-1.323l.077-.479c-.939.249-1.572.326-1.955.172l2.645-.939v-.556l-.383-.134.46-.249.402-.863c-5.137 1.246-10.389 1.802-15.622 1.955.939-5.234 4.389-11.732 13.263-16.256l-.517-1.783c-9.603 2.972-20.222 10.16-21.085 24.44.767 13.359 17.807 12.957 21.851 8.434l.134-1.055c-.958-.23-.134-1.322.364-2.203-.804.133-1.456.133-.823-.309zM83.55 72.096l.767.575c.613.134 1.476.268 1.764.882l.556-.192c.479-.613 1.514.613 2.3.939 2.895 14.894-1.821 17.347-.556 47.575l-.307.115-.632-1.227.21 1.303-.652.327c-1.131-1.438-2.684-4.084-3.182-5.271-.268.422-.153 1.477-.019 2.109l-.249.057-.958-2.549.23 1.553-.211-.115c-4.389-18.345 2.185-36.075.939-46.081zm71.419 18.286c-.172.498-.518.939-1.072 1.38l3.162.288 1.055.824c-.805-.096-1.074.057-.998.249-1.438.383-2.855 1.323-4.234 1.629-.309 5.789-.633 11.482-.48 17.578-.326.211-.748.459-1.016.248-.748-.939-.479-4.254-.498-4.869-.365.998-.23 4.121-.191 5.234.057 1.016-1.457 1.148-1.955.191l-.691-1.381.02.883c-.326.439-1.016.191-1.59.076-.787-6.957-.402-11.309.287-16.312a49.27 49.27 0 0 1-8.318.385c-1.744 7.973-3.93 15.123-5.637 19.684l.518-3.182-.65 1.611c-.059-2.551-.691-3.24-.422-5.828l-.326.211c-.326 1.17-.326 2.07-.996 3.297-.27-.67-.824-.441-1.209-.383.154-1.111-.115-1.916-.172-3.01-.115 1.016-.135 1.879-.363 2.568l-1.074-.613c1.246-5.635 2.99-9.66 4.389-15.123-1.744-.479-3.277-2.051-5.002-2.837l-.076-1.092c.729-.192.191-.518-.02-.767l3.258.422-1.494-.786.881-.096c-1.111-.172-2.186-.421-2.703-.805 2.186.173 4.352.326 6.402.46 1.4-5.29 2.473-10.753 3.277-16.848l.422.134c.059.326.135.364.307.115l.576.21.383.729v-.614l2.07.825c.766 2.051 0 8.453-1.266 15.622 2.818 0 5.463.077 7.975.077.939-5.789 2.012-11.079 1.781-17.788.596.058 1.094.019 1.17-.364l.557-.173.133-.46c.211-.326 1.246-.229 2.129-.191.939 3.201.459 10.235-.135 18.727.685-.077 1.318-.135 1.836-.135zm22.83 4.581a23.807 23.807 0 0 1-4.773.249c1.092-2.338 2.414-4.6 3.967-6.958.173 2.262.384 4.524.806 6.709zm-7.516 6.191c3.682.768 6.576 1.092 8.76 1.016 1.229 6.076 2.895 12 4.602 17.885l.211-.02-.768-3.182c.441 1.398.92 2.721 1.707 3.719.65-.326-.441-3.393-.633-5.08.689 1.609 1.131 3.162 2.184 4.389-.057-.439-.191-.939-.172-1.342.365 1.189.729 2.453 1.553 3.393.23-1.303.191-3.008-.115-5.252l1.17 5.656c-.059-1.727.459-.787 1.092.535.863-5.021-9.756-48.82-11.615-53.343-.518-.115-1.246-.364-1.266 0l-.076.153c-.096-.192-.23-.269-.441-.153.289 2.817.441 7.168-.555 10.063-8.914 13.302-12.115 16.868-15.699 29.116l1.189-2.838-.787 3.125.48.152 1.59-5.404c0 3.432.039 6.211 2.262 7.457l1.994-3.24-1.457 3.834.191.211c1.707-3.68 3.105-7.266 4.599-10.85zM115.484 74.76c1.016-.345 1.379.058 1.686.614 1.035-.307 1.783-.23 2.262.21l.939-.076-.344.326 1.033.441-.211.172.652.498c-7.053 3.374-13.283 9.833-12.977 12.632-.479 4.485 11.941 5.386 13.053 11.271.211 5.674-7.666 17.156-14.164 19.283-.441.057-1.188.23-1.688.039-1.705 1.455-3.412 2.318-5.156 2.721l-.018-.135c2.529-1.188 4.023-2.262 4.35-2.893-.518.555-3.449.555-3.297-.039-.939.039-1.744-.02-1.629-.537l-.498.25-.25-.096 1.648-1.707c-1.342 1.15-4.197 1.898-4.657 1.457.115-.441 0-.709-.421-.9 7.629-5.156 15.985-9.584 15.928-16.58-.307-5.482-10.465-3.125-10.85-9.853-.381-7.015 8.59-13.801 14.609-17.098zm-31.493 45.217l.077-.402c.613 1.533 1.303 3.26 1.955 3.873l-.269.248c-.632-.231-1.686-3.45-1.763-3.719z" fill="#9e8a6c"/><path d="M35.784 64.199c.288-.862-1.323-.632-3.297-.172-.766-1.399-1.782-2.013-2.722-1.534C11.326 69.489 3.678 80.971 2.834 92.702c.211 16.695 17.635 15.929 23.557 12.554-.939 2.895-7.092 12.115-12.804 16.254 1.572.098 2.434-.324 3.144-.785.23.154.441.326.613.461-.479.324-1.323.881-2.262 1.494 3.833.633 8.74-3.68 8.184-.861-.843 1.016-2.166 2.988-4.044 4.389.556-.172.843-.076.767.689 15.871-15.449 16.561-31.32 16.331-35.46 3.201-2.741 4.543-4.524 5.079-4.907l-.249-.307c-.632.383-1.322.69-2.089 1.016.767-1.112 1.399-2.435 1.629-3.584-.862-.479-.632-.881.173-1.188 0-.939-.173-1.955-.403-2.434-2.338 2.204-4.6 3.546-6.728 4.619l-1.246-1.322c-.766-.23-1.016.153-.689 1.322-.786-.69-1.266-.786-1.399.077v1.706c-4.39 1.802-8.99 3.144-11.808 3.45 0 .23.077.479.077.69 1.322.096 1.572.249.249.863.862 2.511 4.351 3.201 10.753 2.127-.134 1.016-.383 2.089-.843 3.413-1.802.805-7.341 4.236-12.038 3.545-10.12-2.359-8.031-23.271 18.996-36.324zM66.05 98.51c.863-.307 2.396-.979 3.201-1.592v-.191c-1.246.594-2.319.939-3.374 1.246l1.054-.574.077-.25c-7.418 2.895-11.865 2.262-13.743-2.569 5.386-1.265 10.082-3.373 14.28-5.079v-.249l-1.246.383-.173-.135 1.974-.709.077-.23-3.68 1.074c.307-.843 1.974-.46 2.741-1.323l.077-.46c-.939.249-1.572.326-1.955.153l2.645-.939v-.537l-.383-.153.479-.249.384-.843c-5.137 1.246-10.389 1.783-15.622 1.955.939-5.233 4.389-11.73 13.264-16.254l-.518-1.801c-9.603 2.99-20.222 10.158-21.084 24.458.767 13.359 17.807 12.938 21.852 8.414l.153-1.035c-.978-.229-.153-1.342.345-2.223-.787.153-1.458.153-.825-.288zm13.302-29.96l.767.594c.613.135 1.476.269 1.783.882l.537-.191c.479-.613 1.533.594 2.3.939 2.895 14.893-1.821 17.347-.556 47.574l-.307.096-.632-1.207.229 1.303-.67.326c-1.131-1.438-2.684-4.082-3.182-5.271-.269.422-.153 1.457-.019 2.09l-.25.057-.958-2.529.249 1.553-.23-.115c-4.389-18.365 2.185-36.076.939-46.101zm71.419 18.305c-.154.499-.518.939-1.074 1.38l3.184.268 1.033.825c-.785-.077-1.072.058-.977.249-1.438.403-2.875 1.342-4.256 1.629-.307 5.807-.633 11.481-.479 17.596-.326.211-.748.459-1.016.23-.748-.92-.461-4.236-.498-4.85-.365.996-.211 4.121-.193 5.213.059 1.016-1.455 1.17-1.955.191l-.689-1.379.02.881c-.326.441-1.016.191-1.592.096-.785-6.957-.383-11.328.307-16.312-2.875.383-5.691.46-8.338.383-1.744 7.973-3.93 15.124-5.635 19.686l.518-3.182-.652 1.59c-.057-2.529-.689-3.221-.422-5.807l-.324.211c-.326 1.168-.326 2.068-.998 3.277-.268-.652-.824-.441-1.207-.385.152-1.092-.115-1.896-.172-3.008-.115 1.033-.135 1.877-.365 2.568l-1.072-.596c1.246-5.635 2.99-9.66 4.389-15.123-1.725-.479-3.277-2.051-4.984-2.856l-.096-1.074c.729-.191.191-.518-.018-.767l3.258.402-1.494-.767.881-.115c-1.111-.153-2.186-.403-2.703-.786 2.186.153 4.352.326 6.402.46 1.398-5.291 2.492-10.753 3.277-16.868l.422.154c.059.326.135.345.307.096l.576.23.383.709v-.594l2.07.824c.766 2.031 0 8.434-1.266 15.622 2.818 0 5.463.077 7.975.077.938-5.789 2.012-11.099 1.801-17.807.576.057 1.074.038 1.15-.346l.555-.172.135-.46c.23-.345 1.246-.23 2.127-.192.939 3.201.461 10.236-.133 18.727.688-.07 1.321-.128 1.838-.128zm22.829 4.582c-1.648.249-3.201.326-4.771.249 1.092-2.357 2.434-4.619 3.967-6.958.171 2.262.382 4.523.804 6.709zm-7.514 6.17c3.68.787 6.574 1.113 8.76 1.037 1.227 6.057 2.895 11.998 4.6 17.883l.23-.039-.785-3.162c.441 1.398.92 2.721 1.725 3.719.633-.326-.441-3.393-.65-5.08.689 1.609 1.148 3.145 2.184 4.391-.057-.441-.191-.939-.152-1.361.344 1.188.709 2.473 1.533 3.412.23-1.305.191-3.01-.115-5.252l1.17 5.654c-.059-1.744.459-.805 1.111.537.844-5.043-9.775-48.821-11.635-53.364-.518-.096-1.227-.345-1.266 0l-.076.172c-.076-.192-.23-.269-.441-.172.307 2.817.441 7.188-.555 10.082-8.914 13.302-12.115 16.867-15.699 29.116l1.188-2.836-.785 3.104.479.174 1.592-5.406c0 3.412.039 6.211 2.262 7.457l1.994-3.24-1.457 3.834.191.191c1.702-3.661 3.122-7.245 4.597-10.851zm-54.801-26.373c1.016-.364 1.381.058 1.688.613 1.035-.307 1.783-.23 2.262.21l.939-.077-.346.326 1.035.441-.191.172.633.498c-7.035 3.354-13.283 9.814-12.977 12.632-.461 4.466 11.941 5.386 13.053 11.27.23 5.674-7.666 17.156-14.164 19.283-.441.059-1.17.23-1.668.02-1.725 1.477-3.432 2.318-5.176 2.74l-.019-.133c2.531-1.189 4.025-2.262 4.351-2.895-.518.537-3.449.537-3.297-.039-.939.039-1.744-.02-1.629-.557l-.498.25-.249-.076 1.648-1.707c-1.342 1.15-4.198 1.898-4.658 1.457.115-.439 0-.709-.421-.9 7.628-5.176 15.985-9.584 15.929-16.6-.307-5.462-10.465-3.105-10.849-9.852-.385-6.994 8.587-13.799 14.604-17.076zm-31.492 45.198l.077-.385c.614 1.516 1.304 3.26 1.975 3.873l-.288.25c-.633-.231-1.687-3.451-1.764-3.738z" fill="#796a53"/></g></svg>