<svg xmlns="http://www.w3.org/2000/svg" width="2500" height="2500" viewBox="0 0 192.756 192.756"><g fill-rule="evenodd" clip-rule="evenodd"><path fill="#fff" d="M0 0h192.756v192.756H0V0z"/><path fill="#0090b6" d="M182.822 2.834v187.088H9.934V2.834h172.888z"/><path d="M87.132 88.854c-.739 3.883-1.849 10.354-.924 17.013l.74 6.102s2.034-.74 4.253-1.109c2.403-.371 4.068-.186 4.068-.186-2.404-3.143-4.623-6.842-6.102-10.355-.925-2.774-1.665-7.581-2.035-11.465zM82.325 99.395a18.23 18.23 0 0 0-.555 4.438c.74-.924 1.479-1.85 1.479-2.773.001-.556-.369-1.111-.924-1.665zM84.359 102.168c-.185.926-.924 1.664-1.479 2.59-.74.924-1.479 1.848-1.479 2.588.185 1.85 2.219 4.252 3.883 5.178h.369l-.924-6.473c-.185-1.293-.185-2.588-.37-3.883zM82.695 97.916c.555.555 1.294 1.109 1.664 2.033 0-1.664.185-3.328.37-4.623-.37.185-.925.37-1.294.555-.74.37-1.479.74-1.665 1.109 0 .186.555.74.925.926zM105.068 60.194c-.738-.185-1.479-.185-1.664-.185-.738.74-3.328 3.144-6.102 6.102.555.185 1.109.185 1.664.185 5.364-.001 6.102-4.253 6.102-6.102zM84.544 89.225c.37.37.555.74.924 1.109.37-1.849.74-3.329.925-4.253.37-1.665 1.109-2.958 1.664-4.438.924-2.403 2.034-4.623 1.849-8.136-1.664 1.849-2.958 2.958-2.958 2.958-2.219 2.219-3.513 4.438-4.253 7.027-.185.739-.37 1.294-.37 1.849 0 1.849 1.11 2.774 2.219 3.884zM84.914 92.923c.185-.924-.37-1.665-1.479-2.589 0-.185-.185-.185-.185-.37-.555 1.664-.925 3.143-1.109 4.992.185-.185.37-.185.555-.37 1.108-.369 2.218-.924 2.218-1.663z" fill="#fff"/><path d="M103.959 80.903c0-4.068 1.664-7.951 3.328-10.724 2.035-3.144 4.254-4.253 5.547-4.808l.186-.186c-.369-.185-.555-.555-.924-.924-.924-1.294-2.773-3.698-3.514-3.883 0 0-.924 0-2.033-.185-.186 3.698-2.219 7.581-7.582 7.581-1.109 0-2.219-.185-2.773-.555l-4.253 4.253c.555.74 1.479 1.664 2.774 1.664.555 0 2.034-.185 2.958-2.219l.74-1.294.555 1.294c1.109 1.849 1.85 2.219 3.514 2.219.924 0 2.033-1.109 2.219-1.479.186-.369.555-1.849.186-3.143l1.293-.37c.371 1.664.186 3.513-.184 4.253-.371.739-1.85 2.219-3.514 2.219-2.035 0-3.145-.555-4.068-2.034-1.295 1.664-2.958 2.034-3.698 2.034-1.479 0-2.588-.925-3.329-1.664.185 4.068-.924 6.842-2.034 9.245-.37.74-.74 1.665-.925 2.404 0 3.143.74 11.464 2.219 15.162 1.479 3.885 3.883 7.951 6.842 11.279 0 0 4.252.555 7.766 3.885-.186-1.664-.369-3.514-.369-5.549 0-.924 0-1.848.184-2.588.186-2.404.371-4.252.555-6.102.371-2.404.555-4.438.555-6.657 0-2.588-.369-5.178-1.479-8.691-.556-1.478-.742-2.957-.742-4.437zM92.495 78.13c.37.555 2.034 1.479 3.329 1.849 1.11.37 3.698.555 4.438.37l.184 1.479c-.924.185-3.697 0-5.177-.555-.925-.185-3.329-1.294-4.068-2.219l1.294-.924zm7.396 28.847c-1.848-.926-3.328-3.699-4.807-9.246l-.555-2.774c-.739-3.144-1.294-5.917-3.513-7.396l.924-1.294c2.589 2.034 3.329 4.992 4.068 8.321l.555 2.774c1.294 4.992 2.589 7.58 4.068 8.32l-.74 1.295z" fill="#fff"/><path d="M118.566 90.334l-3.143-2.219v-1.849l3.328-2.219 1.479.739h1.111v-2.773h-1.111l-1.664 1.109-3.143-2.219v-1.849l3.328-2.219 1.479.74h1.111v-2.219H114.5c-.74.185-1.295.555-1.48.555-.555.37-.74.555-.924.924 0 .185-.186.925-.186 1.664-.186 1.665-.186 2.589-.738 3.329-.371.74-1.111 1.109-1.48.925v9.43h11.65v-2.958h-1.111l-1.665 1.109z" fill="#fff"/><path fill="#fff" d="M119.861 86.266l-1.109-.555-2.219 1.479 2.033 1.48 1.295-.925h1.481v-1.479h-1.481zM118.752 78.5l-2.219 1.479 2.033 1.479 1.295-.924h1.481v-1.48h-1.481l-1.109-.554zM109.877 81.273s0-.185.184-.185c.186-.37.371-1.849.371-2.773.186-.74.186-1.479.369-2.034.371-1.294 1.295-1.664 3.883-2.589h.186c1.295-.555 1.664-.739 1.664-1.294 0-.185 0-.555-.186-.925-.184-.739-2.219-3.513-3.143-4.623-.74.37-1.48.739-2.588 1.664 1.107 1.665 1.848 2.589 2.402 2.958l.926.555-.926.555c-1.109.925-3.697 3.514-4.252 4.438 0 .185-.186.37-.186.74 0 .555.186 1.294.74 1.664l.184.185v.37c.001.555.186 1.109.372 1.294z"/><path d="M107.104 77.76c0-.555.184-1.109.369-1.479.74-1.109 2.773-3.144 4.068-4.253-.74-.555-1.295-1.479-1.85-2.588-.369.555-.74.924-1.109 1.479-2.033 3.513-4.252 8.876-2.588 14.053 2.219 6.473 1.664 10.54 1.109 15.902-.186 1.85-.555 3.699-.74 5.918-.186 4.068.369 8.137.555 9.984 0 0 .74.74 1.295 1.85V81.274c0-.37 0-.74-.186-.925-.554-.74-.923-1.664-.923-2.589zM78.257 62.967v8.136c2.774-.37 6.657-1.849 8.506-3.144-.924-1.294-2.034-2.404-2.404-2.774-1.109.37-2.589 1.295-3.883 2.589l-1.479 1.11.185-1.849c-.001-.924-.37-2.958-.925-4.068z" fill="#fff"/><path d="M20.38 12.672V127.13c6.656-17.197 23.298-16.088 23.298-16.088 23.298 0 26.627 23.299 26.627 23.299s.925-4.621 2.589-8.506c1.664-3.883 4.068-6.656 4.068-6.656V72.398c-.37 0-.555-.185-.555-.37-1.664-1.294-1.479-4.623-1.479-7.211l.185-1.11v-2.589c.185-1.664.185-3.513 0-4.438 0-1.11 0-2.774 1.479-3.883v-2.589h-5.177v-1.479h12.019v1.479h-5.363v1.664c.37-.185.555-.185.925-.37l.37 1.479c-.555.186-.925.186-1.295.555v1.109h-1.294c-.185.555-.185 1.109-.185 1.664.185 1.11.185 3.144 0 4.993l-.185 2.404V65c0 1.479-.185 4.068.555 5.362v-10.91h.185c0-.555.185-1.109.37-1.294.925-1.479 1.479-2.219 1.295-3.328l1.479-.37v.925c0 1.294-.739 2.404-1.664 3.513v.37c0 .555.186 1.479.37 1.665.555.739 1.294 2.958 1.479 4.807.924-.739 2.219-1.479 3.328-1.849.185-.74.74-1.294 1.294-1.664l2.219-1.665.925-.555c1.294-.924 2.588-.74 3.513.74 0 0 1.849 2.589 2.588 3.513 2.404-2.589 4.992-5.177 6.473-6.472v-.555c-1.85-.185-3.514-1.294-4.253-2.219 0 1.11 0 4.253-4.253 5.362l-.37-1.294c2.774-.74 3.144-2.404 3.144-4.068h1.479c-.185-.37-.37-.555-.37-.739l1.295-.555c.184.555 2.033 2.219 3.883 2.219.555 0 1.664-1.479 2.219-2.773.186-.74 0-1.109-.186-1.295-.184-.37-.369-.37-.555-.555.555 2.219-.555 2.774-.555 2.589 0 0 .371.37.186.74 0 .37-.186.37-.371.555h-.369c-.369 0-.74.185-.74.185-.555 0-.924-.37-.924-.555 0-.185-.186-.555.186-.925.369 0 .738 0 1.109-.185-.186 0-.186-.74.184-.925 0-.37-.184-1.479-.184-1.479s-.186-.739.555-.739c.74-.185.74.555.74.555l.184-1.294c.186 0 .371.185.555.185.186-.37.186-.74 0-.925-.184-.555-.738-.74-1.479-.74-2.59-.185-4.993 1.11-5.548 1.665l-.924-.925-.185 1.294s-.925-.185-1.479.37c-.186.37-1.479 1.664-2.404 1.479-.185 0-.555-.185-.924-.37-.37-.185-.555.37-.74.555-.37-.185-.924-.555-1.294-.739 1.294-2.219 3.144-.925 3.144-.925s.555-.185 1.11-.924c.739-.74 1.664-1.109 2.773-.924.924-1.11 4.808-2.589 7.582-1.85 0-.185-.369-1.849-1.85-2.403 0 0-.555-2.219-3.143-2.774.555.925.738 1.664.738 2.034-.555-.185-1.293-.37-1.848-.37.555 1.11.924 1.665.924 2.034-.555-.185-1.479-.555-2.404-.37.185.185 1.109 1.479 0 3.513-.185-.185-1.11-.74-1.294-.74.185-.37.555-1.109.185-1.849-.185-.37-1.109-.74-2.034-.925.739-.74 1.664-1.109 2.589-1.479-.925-.37-1.85-.74-2.034-.74 2.404-1.479 3.513-.924 3.329-1.109-.37-.185-.925-.74-1.479-1.109 5.917-1.849 7.581 2.773 7.581 2.773 1.109.555 2.59 2.589 2.219 4.623l.186.185c.369.74.369 1.665-.186 2.589.555.74.555 1.665.371 2.589-.371 1.294-1.48 2.958-2.775 3.513v.555l.557.37-12.948 12.944-.555-.555-1.294-1.294c-2.219 1.294-6.287 2.958-9.246 3.513h-.37v44.933s2.589-2.588 5.732-4.252c0 0-5.177-3.699-3.699-7.213 0 0-.185-4.252.74-7.58 0 0-1.295-1.109-.37-2.404 0 0 0-3.883 1.479-7.212 0 0-4.068-3.883 3.144-12.758l17.566-17.751 5.732.555s.924.185 1.85 1.109c.924.925 3.883 4.808 3.883 4.808s.924.739.186 1.294c.369.37 2.957 4.253 2.957 4.253s1.295 2.219 0 3.513h5.178v62.684c3.514-27.365 26.443-25.518 26.443-25.518 18.49 0 23.297 14.609 23.297 14.609V12.672H20.38zM80.291 47.99s-.924-1.294-2.958-1.294c0 0-1.479-.185-2.959 1.479l-1.109-1.11s1.665-1.849 4.068-1.849c2.403 0 3.698 1.294 4.068 1.849l-1.11.925zm18.49 1.849s1.48-.185 1.85.185c.369.37.555.924 0 1.294 0 0-.369.185-.74-.185 0 0-.555 0-.738.185 0 0-.74 0-.926-.739 0-.555.554-.74.554-.74zm-3.882 4.807c-.185.37-.37.74-.555.924-.74.74-1.664 1.11-2.958 1.11l.185-1.479c.74 0 1.294-.185 1.665-.555.185-.185.185-.37.369-.555.37-.74.925-1.665 1.85-1.849l.185 1.479c-.186.001-.557.556-.741.925zm-4.623-1.664h.555c.925 0 1.479 0 1.664-.185l.37-.555c.555-.555 1.479-1.664 2.773-1.294l-.37 1.294c-.37 0-.74.37-1.294.925l-.555.555c-.555.739-1.294.739-2.589.739h-.37c-.74 0-.925.37-1.294.74l-.37.555-.925-1.109.185-.185c.186-.555.741-1.295 2.22-1.48z" fill="#fff"/><path d="M93.235 65.372l-2.589-3.883c-.555-.925-1.11-.555-1.479-.37l-.924.74-2.404 1.479c-.186.185-.555.555-.555.739.555.555 3.328 3.513 4.438 4.808.184-.37 2.033-2.034 3.513-3.513zM70.306 143.957c.185 3.33.555 4.994 1.11 6.842l-15.533-.924c-.555 1.479-2.958 7.025-11.094 7.025s-11.465-6.285-12.204-12.943h37.721zM84.544 139.15c0-8.877 5.362-16.457 11.834-16.457 8.321 0 11.835 7.027 11.835 16.457 0 10.17-5.178 16.271-11.835 16.271-7.211.001-11.834-6.841-11.834-16.271zM160.357 132.863h-22.561c0-1.479 2.035-10.17 11.281-10.17 8.691 0 11.28 8.506 11.28 10.17zM55.698 133.232H33.139c0-1.293 2.219-10.17 11.279-10.17 9.246 0 11.28 9.247 11.28 10.17zM172.375 143.588v6.473l-11.648-.926s-2.588 7.211-11.094 7.211c-7.768 0-12.205-7.395-12.389-12.758h35.131z" fill="#fff"/></g></svg>