<svg id="Layer_1" xmlns="http://www.w3.org/2000/svg" viewBox="0 0 207.7 165.2" width="2500" height="1988"><style>.st0{fill:#2d2d2d}</style><path class="st0" d="M140.8 94.9c-1.2 0-2.6-.1-3.8-.2-.7-.1-15.4-1.9-20.5-2.8-7.9-1.3-20.5-1.6-20.7-1.6 0 0-3.3-.2-4.4-.3C72 88.4 56.3 73.7 52.3 54.6c-2.5-11.8-.3-23.9 6.2-34C65.1 10.5 75.2 3.5 87 1c3.1-.7 6.3-1 9.5-1 20 0 37.8 13.4 43.4 32.6 0 .2 3.3 12.4 5.8 18.9 1.3 3.5 3.2 7.8 5.1 12 1.7 3.9 3.3 7.6 4.4 10.4 2.6 6.8 1.1 11.5-.6 14.2-2.4 3.8-6.7 6.2-11.9 6.7-.6.1-1.2.1-1.9.1zM92 83.4c8.1.6 17.6.6 25.6 1.9 4.9.8 20 2.7 20.2 2.8 1.4.2 3.2.2 4.2.1 3.1-.3 5.6-1.6 6.9-3.6 1.6-2.6.9-5.9 0-8.3-1-2.6-2.6-6.3-4.3-10.1-1.9-4.3-3.8-8.7-5.2-12.3-2.6-6.9-5.9-19-6-19.5-4.7-16.3-19.9-27.8-36.9-27.8-2.7 0-5.4.3-8.1.9-10.1 2.2-18.7 8.1-24.3 16.7-5.6 8.6-7.5 18.9-5.3 29C62.2 69.4 75.5 82.1 92 83.4z"/><path class="st0" d="M78.7 46.7h.5c.3 0 .7-.1 1.2-.2 1.4-.4 1.8-.9 2.6-1.9.7-.9 1.2-1.8 1.9-3.6.7-1.7 1.4-5.4 2.1-7.6.7-2.3 2.2-3.1 2.9-3.4.7-.3 1.5-.2 2.6.1 1.2.4 2.3 1.7 3.5 3.7 1.2 2 1.8 4.5 1.9 6.4.1 1.9-.2 4.4-1.4 6.5-1.3 2.3-3.9 5.2-8.6 6-4.7.8-7-.7-8.3-2-.6-.6-.9-1.1-1.3-1.7-.2-.3-.3-.6-.4-.8 0-.5-.5-1.5.8-1.5M74.1 47.8c-.2-.3-.4-.3-.8-.3 0 0-1 .3-2.2-.7-1.2-1-2.2-2.4-3.2-4.4-1.1-2-1.7-3.3-2.2-3.7-.5-.4-1-.4-1.6.1-.5.5-1.4 2.3-1.5 4-.1 1.6 0 3.7.2 5.6.3 1.8.9 3.5 1.3 4.3.6 1.1 1.7 2.4 2.5 2.9.8.6 2 1.1 3.1 1 1.1-.1 2.1-.7 2.9-1.7.8-1 1.2-2.4 1.4-3.3.3-1.2.3-1.9.3-2.5 0-.6 0-1-.2-1.3M70 147.7H52.3v-13.6h-3.5v30.6h3.5v-13.8H70v13.8h3.4v-30.6H70zM15.2 151.5h9.3v7.6c-2.1 1.7-5.3 3.1-8.8 3.1-7.4 0-12.1-5.4-12.1-12.7v-.1c0-6.8 4.9-12.6 11.6-12.6 4.3 0 7 1.4 9.3 3.5l2.2-2.6c-3.1-2.6-6.3-4.1-11.4-4.1C6.2 133.5 0 141 0 149.4v.1c0 8.8 6 15.8 15.6 15.8 5.2 0 9.5-2.1 12.3-4.7v-12.2H15.2v3.1zM109.5 133.5c-9.3 0-15.7 7.4-15.7 15.8v.1c0 8.4 6.3 15.8 15.6 15.8s15.7-7.4 15.7-15.9v-.1c0-8.3-6.2-15.7-15.6-15.7zm12 16c0 7-5 12.6-12 12.6s-12.1-5.7-12.1-12.7v-.1c0-7 5-12.6 12-12.6 7.1 0 12.1 5.7 12.1 12.8zM156.4 147.7c-6.7-1.4-8.3-3.1-8.3-6v-.1c0-2.8 2.5-4.9 6.5-4.9 3.2 0 6 1 8.8 3.3l2-2.7c-3.1-2.5-6.3-3.8-10.8-3.8-5.8 0-10.1 3.5-10.1 8.4v.1c0 5 3.2 7.3 10.3 8.8 6.4 1.4 8 3 8 5.8v.1c0 3-2.7 5.2-6.8 5.2-4.2 0-7.3-1.4-10.5-4.3l-2.1 2.5c3.7 3.3 7.7 4.9 12.5 4.9 6.1 0 10.5-3.4 10.5-8.7v-.1c-.1-4.5-3.2-7-10-8.5zM183.7 134.1v3.2H194v27.4h3.5v-27.4h10.2v-3.2z"/></svg>