<svg xmlns="http://www.w3.org/2000/svg" width="2500" height="2500" viewBox="0 0 192.756 192.756"><g fill-rule="evenodd" clip-rule="evenodd"><path fill="#fff" d="M0 0h192.756v192.756H0V0z"/><path d="M12.124 84.018c3.354 0 6.029 1.748 7.936 4.06V94.4l-4.633-4.395a4.745 4.745 0 0 0-3.302-1.369 4.68 4.68 0 0 0-4.671 4.671 4.68 4.68 0 0 0 4.671 4.67c1.967 0 3.741-1.283 4.392-3.097l3.544 2.544v8.354a.776.776 0 0 1-.774.773H16.1a.776.776 0 0 1-.774-.773v-3.754a9.22 9.22 0 0 1-3.201.572c-5.116 0-9.289-4.174-9.289-9.289-.002-5.117 4.171-9.289 9.288-9.289zM28.649 84.018c-3.354 0-6.029 1.748-7.936 4.06V94.4l4.633-4.395a4.743 4.743 0 0 1 3.302-1.369 4.68 4.68 0 0 1 4.67 4.671 4.68 4.68 0 0 1-4.67 4.67c-1.967 0-3.742-1.283-4.392-3.097l-3.544 2.544v8.354c0 .426.349.773.774.773h3.187a.776.776 0 0 0 .774-.773v-3.754a9.22 9.22 0 0 0 3.201.572c5.116 0 9.289-4.174 9.289-9.289.001-5.117-4.172-9.289-9.288-9.289z"/><path d="M28.205 104.314c.496 0 .9.404.9.9 0 .494-.404.9-.9.9a.903.903 0 0 1-.9-.9.901.901 0 0 1 .9-.9zM48.299 101.609h2.145c-.243.582-.586 1-1.029 1.252-.443.252-.966.379-1.566.379-.629 0-1.144-.199-1.544-.598-.4-.396-.694-.895-.88-1.492a6.108 6.108 0 0 1-.257-1.951 6.756 6.756 0 0 1 .311-1.951c.193-.598.476-1.095.847-1.493a1.783 1.783 0 0 1 1.352-.597c.687 0 1.212.13 1.577.39s.661.727.89 1.4h4.397c0-.535-.1-1.125-.3-1.768-.2-.643-.558-1.24-1.073-1.791-.515-.551-1.215-1.014-2.102-1.389s-2.017-.562-3.389-.562c-.915-.015-1.745.115-2.488.391a6.833 6.833 0 0 0-1.941 1.079 7.08 7.08 0 0 0-1.384 1.469 6.19 6.19 0 0 0-.815 1.584c-.372 1.134-.526 2.339-.461 3.616s.361 2.461.89 3.547a7.201 7.201 0 0 0 2.274 2.709c.986.721 2.209 1.08 3.668 1.08.687 0 1.255-.051 1.705-.148.451-.1.826-.227 1.126-.379.3-.154.543-.326.729-.518.186-.191.351-.371.493-.539l.301 1.309h2.896v-8.242H48.3v3.213h-.001zM56.171 91.76v14.879h4.655V91.76h-4.655zM70.157 96.1h4.397c-.114-.964-.333-1.752-.654-2.365s-.736-1.094-1.244-1.446-1.112-.604-1.812-.758a13.238 13.238 0 0 0-2.359-.275c-1.845.03-3.247.429-4.205 1.194s-1.516 1.714-1.673 2.847c-.143 1.133-.032 2.032.333 2.698a4.196 4.196 0 0 0 1.565 1.607c.68.406 1.455.719 2.327.941.873.221 1.745.447 2.617.678.4.137.679.34.837.607.157.268.204.531.139.793-.064.26-.225.488-.483.688-.257.199-.593.291-1.008.275-.443 0-.887-.109-1.33-.332s-.736-.646-.879-1.273h-4.397c0 .918.179 1.701.537 2.352.357.652.836 1.18 1.437 1.586.601.404 1.294.703 2.081.895s1.595.287 2.424.287a7.82 7.82 0 0 0 2.338-.355 6.446 6.446 0 0 0 2.006-1.021c.579-.445 1.041-1 1.384-1.666.343-.666.5-1.418.472-2.262-.043-.688-.193-1.281-.45-1.779-.258-.496-.619-.926-1.083-1.285s-1.019-.666-1.663-.918-1.365-.479-2.166-.678a40.256 40.256 0 0 0-1.255-.287c-.465-.1-.84-.226-1.126-.379-.2-.107-.333-.24-.397-.401a.66.66 0 0 1 0-.494.985.985 0 0 1 .376-.448c.186-.13.429-.21.729-.241.586-.046 1.087.015 1.501.184.412.166.641.511.684 1.031zM76.184 91.76v14.879h4.698v-5.694h4.097v5.694h4.697V91.76h-4.697v5.006h-4.097V91.76h-4.698zM93.863 91.396h2.758c1.143 0 1.988.307 2.539.923.549.617.824 1.573.824 2.861v.077c0 1.281-.248 2.208-.742 2.778-.305.35-.732.59-1.285.729.693.121 1.203.357 1.535.717.52.539.779 1.535.779 2.98v.076c0 1.42-.258 2.432-.777 3.037-.516.605-1.383.908-2.598.908h-3.033V91.396zm1.551 6.522h1.32c.6 0 1.034-.184 1.301-.545.266-.363.398-.955.398-1.777v-.073c0-.821-.148-1.427-.443-1.821-.295-.398-.752-.595-1.369-.595h-1.208v4.811h.001zm0 6.865h1.479c.644 0 1.111-.205 1.396-.609.289-.406.432-1.07.432-1.99v-.072c0-.912-.148-1.559-.447-1.932-.297-.375-.811-.561-1.54-.561h-1.32v5.164zM101.621 91.396H103.172v15.086H101.621V91.396zM108.156 106.666c-1.227 0-2.072-.365-2.533-1.096-.461-.732-.691-2.062-.691-3.996v-5.559c0-1.696.252-2.922.754-3.674.506-.752 1.328-1.128 2.471-1.128 1.164 0 1.992.376 2.484 1.124.494.748.74 2 .74 3.752v6.332c0 1.496-.252 2.576-.754 3.244-.506.669-1.328 1.001-2.471 1.001zm0-1.701c.59 0 1.016-.234 1.279-.701s.395-1.223.395-2.273v-6.328c0-1.04-.121-1.759-.359-2.153-.238-.398-.676-.595-1.314-.595-.59 0-1.016.245-1.279.737s-.395 1.292-.395 2.394v5.562c0 1.277.121 2.152.359 2.635s.674.722 1.314.722zM114.514 106.482h-1.438V91.396h2.526l2.054 12.157h-.002l1.991-12.157H122.168v15.086h-1.438V93.385h-.001l-2.323 13.097h-1.558l-2.336-13.141h.002v13.141zM123.93 106.482V91.396h5.082v1.701h-3.532v4.776h3.323v1.701h-3.323v5.209h3.637V106.482h-5.187zM130.582 91.396h2.767c1.307 0 2.25.351 2.832 1.047.582.701.873 1.835.873 3.413v5.878c0 1.676-.223 2.887-.666 3.633-.445.744-1.172 1.115-2.18 1.115h-3.626V91.396zm1.551 13.387h1.576c.672 0 1.139-.223 1.4-.666.264-.441.395-1.225.395-2.35v-5.879c0-1.044-.143-1.767-.43-2.179-.287-.408-.797-.613-1.533-.613h-1.408v11.687zM138.656 91.396H140.207v15.086H138.656V91.396zM148.117 101.574v.449c.039 1.639-.176 2.824-.643 3.551-.465.727-1.242 1.092-2.324 1.092-1.066 0-1.857-.336-2.369-1.012-.512-.672-.768-1.711-.768-3.117v-6.714c0-1.627.25-2.799.752-3.525.502-.723 1.318-1.084 2.447-1.084 1.074 0 1.84.329 2.301.985.414.569.617 1.441.613 2.617l-.01.504v.449h-1.551v-.449c.023-.913-.062-1.54-.254-1.887-.189-.347-.553-.518-1.084-.518-.588 0-1.014.201-1.275.599-.26.398-.389 1.051-.389 1.956v6.715c0 1.055.109 1.785.33 2.184.219.396.623.598 1.207.598.533 0 .91-.23 1.139-.689.229-.461.338-1.213.326-2.252v-.449h1.552v-.003zM151.973 91.396h2.066l2.592 15.086h-1.65l-.521-3.42h-3.035l-.539 3.42h-1.51l2.597-15.086zm-.282 9.967h2.525l-1.268-8.106h.008l-1.265 8.106zM157.939 106.482V91.396H159.49v13.387h3.299V106.482h-4.85zM163.332 108.738l.772-4.726h1.64l-1.4 4.726h-1.012zM168.654 91.396H170.205v15.086H168.654V91.396zM173.395 106.482h-1.479V91.396h2.451l2.928 13.026V91.396H178.732v15.086h-2.433l-2.904-12.951v12.951zM186.557 101.574v.449c.039 1.639-.176 2.824-.643 3.551s-1.244 1.092-2.324 1.092c-1.068 0-1.859-.336-2.369-1.012-.514-.672-.768-1.711-.768-3.117v-6.714c0-1.627.248-2.799.752-3.525.502-.723 1.316-1.084 2.447-1.084 1.074 0 1.84.329 2.301.985.414.569.617 1.441.611 2.617l-.008.504v.449h-1.551v-.449c.021-.913-.062-1.54-.256-1.887-.189-.347-.551-.518-1.084-.518-.588 0-1.012.201-1.273.599-.26.398-.389 1.051-.389 1.956v6.715c0 1.055.109 1.785.328 2.184.221.396.623.598 1.207.598.533 0 .912-.23 1.141-.689.227-.461.338-1.213.326-2.252v-.449h1.552v-.003zM188.186 104.184h1.736v2.298h-1.736v-2.298z"/></g></svg>