<svg xmlns="http://www.w3.org/2000/svg" width="2500" height="2500" viewBox="0 0 192.756 192.756"><path fill-rule="evenodd" clip-rule="evenodd" fill="#fff" d="M0 0h192.756v192.756H0V0z"/><path d="M185.629 137.25h.008-.008zm1.525-.008zm.625.022h-.002.002zm-21.82-29.69h11.736c1.381 0 2.625.162 3.727.49 1.117.33 2.088.83 2.912 1.496.83.674 1.457 1.473 1.873 2.396.416.918.625 1.953.625 3.107 0 1.162-.244 2.227-.729 3.195-.484.965-1.207 1.83-2.164 2.588-.945.748-2.039 1.328-3.275 1.736-.955.314-1.998.527-3.123.639a157.198 157.198 0 0 1 2.785 3.195 145.69 145.69 0 0 1 3.312 4.045c.877 1.111 1.637 2.072 2.432 3.084.459.584.736.943.838 1.082l-.029-.043c.182.201.363.371.541.508.18.137.357.244.529.32.176.074.391.137.641.186.254.051.551.086.891.107.219.014.441.248.441.469v.715a.499.499 0 0 1-.502.471 62.938 62.938 0 0 0-.871-.057c-.289-.018-.541-.029-.77-.041-.23-.01-.439-.018-.625-.021-.227-.004-.434-.008-.615-.008a46.649 46.649 0 0 0-.912.016h.002-.002c-.145.006-.312.016-.516.027-.168.01-.385.023-.623.039-.109.006-.344-.105-.408-.195a145.24 145.24 0 0 0-5.285-6.861 137.355 137.355 0 0 0-5.633-6.451 33.585 33.585 0 0 1-1.014-1.129h-.002c-.301-.357-.453-.621-.453-.785 0-.18.053-.34.162-.479a.887.887 0 0 1 .387-.273c.123-.049.293-.084.506-.104.199-.018.428-.025.691-.025h.582c1.463 0 2.756-.131 3.875-.391 1.102-.254 2.039-.637 2.809-1.141l-.002.002c.75-.494 1.311-1.086 1.68-1.77.367-.684.553-1.475.553-2.369s-.162-1.654-.482-2.275c-.312-.605-.789-1.092-1.424-1.457h.006c-.668-.377-1.615-.664-2.84-.857h-.002c-1.25-.197-2.795-.297-4.629-.297h-1.906v22.324c0 .66.037 1.191.113 1.592.064.346.152.578.26.697.119.135.311.258.57.371.291.125.658.232 1.094.316.188.037.381.271.381.461v.715a.486.486 0 0 1-.551.459 17.756 17.756 0 0 0-.859-.127 23.402 23.402 0 0 0-1.873-.149 28.932 28.932 0 0 0-2.041 0 23.04 23.04 0 0 0-.949.057h.002-.002a20.734 20.734 0 0 0-1.761.219.487.487 0 0 1-.551-.459v-.715c0-.189.195-.424.381-.461a5.242 5.242 0 0 0 1.094-.316c.264-.113.457-.238.582-.373.109-.119.199-.354.268-.699.078-.4.117-.93.117-1.588v-20.588c0-.658-.039-1.188-.117-1.588-.068-.348-.158-.58-.268-.699-.125-.135-.318-.26-.582-.373a5.357 5.357 0 0 0-1.094-.318c-.186-.035-.381-.27-.381-.459v-.715c-.002-.233.233-.468.467-.468zm-7.057 1.078h-.002.002zm-19.586-1.16c.291.049.588.094.895.131h.002c.273.033.582.064.92.092a25.805 25.805 0 0 0 2.931.055 23.813 23.813 0 0 0 1.869-.147h.002c.305-.037.604-.082.895-.131a.49.49 0 0 1 .547.447l.023.693c.006.193-.186.434-.377.473a5.811 5.811 0 0 0-1.123.336c-.268.117-.467.246-.596.387-.111.123-.203.357-.271.701-.08.4-.119.928-.119 1.578v13.41c0 1.74.143 3.225.424 4.449.275 1.197.686 2.146 1.225 2.848.533.688 1.234 1.207 2.104 1.555.889.354 1.959.533 3.215.533 1.25 0 2.318-.178 3.203-.533.865-.348 1.562-.865 2.09-1.553.533-.701.938-1.65 1.209-2.848.279-1.225.42-2.709.42-4.451v-13.455c0-.658-.041-1.188-.119-1.588-.066-.348-.156-.58-.266-.699-.125-.135-.316-.258-.576-.365l-.002-.002a5.09 5.09 0 0 0-1.092-.299c-.189-.035-.389-.27-.389-.463v-.693a.49.49 0 0 1 .531-.463 40.118 40.118 0 0 0 2.086.225h.002a20.272 20.272 0 0 0 1.717.073 19.354 19.354 0 0 0 1.671-.073 43.035 43.035 0 0 0 2.072-.225c.264-.033.531.199.531.463v.693c0 .193-.199.428-.389.463a5.14 5.14 0 0 0-1.092.299l-.002.002c-.26.107-.451.23-.576.365-.109.119-.199.352-.266.697v.002-.002.002c-.078.4-.119.93-.119 1.588v13.588c0 2.062-.211 3.857-.631 5.381-.428 1.547-1.076 2.816-1.941 3.807h.002c-1.723 1.98-4.416 2.973-8.076 2.973s-6.355-.992-8.078-2.973h.002c-.865-.99-1.512-2.26-1.941-3.807-.42-1.523-.631-3.318-.631-5.381v-13.543c0-.65-.039-1.178-.119-1.578-.066-.346-.158-.582-.27-.705-.125-.139-.32-.268-.586-.383a5.765 5.765 0 0 0-1.137-.336c-.189-.039-.381-.279-.375-.473l.021-.693c.011-.265.289-.492.55-.447zm-29.822 14.227c0-2.127.338-4.07 1.012-5.828a13.817 13.817 0 0 1 3.047-4.736c1.35-1.391 2.889-2.434 4.613-3.129 1.719-.695 3.617-1.041 5.693-1.041 2.055 0 3.939.381 5.656 1.145 1.721.764 3.27 1.908 4.643 3.428a15.38 15.38 0 0 1 3.08 5.148c.684 1.902 1.023 3.998 1.023 6.281 0 2.119-.338 4.061-1.016 5.822a13.957 13.957 0 0 1-3.062 4.75c-1.359 1.4-2.9 2.455-4.619 3.156-1.715.699-3.605 1.051-5.668 1.051-2.051 0-3.938-.385-5.658-1.152-1.719-.768-3.266-1.918-4.641-3.443a15.443 15.443 0 0 1-3.08-5.158c-.681-1.911-1.023-4.009-1.023-6.294zm13.887-11.85c-1.502 0-2.863.256-4.08.766-1.213.508-2.291 1.273-3.232 2.291l-.002.002a10.134 10.134 0 0 0-2.131 3.52c-.477 1.334-.715 2.826-.715 4.475 0 1.953.273 3.752.818 5.396a14.068 14.068 0 0 0 2.445 4.473c1.082 1.334 2.281 2.334 3.594 2.998 1.305.658 2.73.988 4.275.988 1.496 0 2.85-.256 4.061-.768 1.209-.51 2.287-1.279 3.23-2.305v-.002a10.17 10.17 0 0 0 2.133-3.533c.477-1.34.715-2.842.715-4.504 0-1.93-.275-3.711-.824-5.342a14.213 14.213 0 0 0-2.469-4.461c-1.094-1.338-2.293-2.34-3.598-3.004-1.294-.66-2.703-.99-4.22-.99zm-43.314-1.328h-.002.002zm.116 5.482v-.002.002zm-18.797-5.359h-.002.002zm3.427 1.363l-.002-.006.002.006zM53.329 137.08h-.002.002zm9.428-24.666l-4.303 10.953h8.55l-4.247-10.953zm-31.354-4.922c.29.049.59.094.893.131h.001a21.819 21.819 0 0 0 1.849.147 26.87 26.87 0 0 0 2.932-.055c.337-.027.646-.059.92-.092H38c.305-.037.603-.082.894-.131a.488.488 0 0 1 .548.461v.693c0 .188-.191.422-.374.459-.44.092-.807.203-1.099.334l.002-.002c-.26.115-.452.242-.575.379l-.004.004c-.105.115-.191.346-.256.691-.076.4-.113.934-.113 1.596v22.279h6.745c1.528 0 2.761-.092 3.692-.271.871-.17 1.46-.408 1.766-.713h.002c.323-.322.611-.85.861-1.574.265-.766.481-1.74.65-2.918.028-.199.263-.402.463-.402h.738c.267 0 .501.27.463.535a213.38 213.38 0 0 0-.397 2.85c-.004.037-.006.072-.011.107.079-.191.158-.389.238-.596v-.004l7.479-18.936v.002c.117-.297.216-.566.296-.803.084-.25.153-.473.203-.664v.002c.046-.178.082-.35.105-.512a2.88 2.88 0 0 0 .034-.42.952.952 0 0 0-.063-.375l-.002-.002a.454.454 0 0 0-.156-.193l-.005-.006a1.214 1.214 0 0 0-.407-.172 4.507 4.507 0 0 0-.795-.125c-.217-.018-.435-.258-.431-.477l.015-.818a.485.485 0 0 1 .566-.451c.23.049.47.094.718.129h-.002c.262.037.522.07.778.094.242.021.527.039.852.051h.002a24.296 24.296 0 0 0 2.359-.021l.001-.004c.205-.018.352-.035.459-.049.156-.021.299-.045.428-.068.217-.037.488.141.539.354.076.316.158.631.243.941l-.001-.002c.077.279.163.57.258.871l.002.006c.091.301.183.58.274.84v-.002c.097.273.206.564.325.865v.004l8.321 21.502.002.002c.178.463.367.869.566 1.215.193.336.391.607.593.816.198.205.416.367.651.484.235.119.492.197.77.234a.289.289 0 0 1 .08.018c.62-.119 1.107-.541 1.462-1.266.427-.871.668-2.158.722-3.857v.006a153.837 153.837 0 0 1 .044-1.777v-.006l.627-14.303v-.02l.021-.242c.007-.096.014-.182.016-.242.003-.094.005-.193.006-.295l.001-.367c0-1.031-.038-1.861-.113-2.486-.069-.574-.165-.955-.284-1.141l-.002-.004a1.19 1.19 0 0 0-.494-.422c-.249-.121-.562-.201-.936-.24-.209-.021-.422-.256-.422-.465v-.693a.49.49 0 0 1 .526-.465 31.586 31.586 0 0 0 1.663.158h.002c.26.018.5.031.718.039a23.867 23.867 0 0 0 1.742-.01c.135-.006.288-.016.458-.027.224-.018.381-.029.442-.035.162-.016.411.131.475.279l10.212 23.535 8.798-23.514c.061-.162.312-.318.486-.301.242.023.449.045.607.059l-.002-.002c.211.018.398.033.59.045.324.014.623.027.873.027.197 0 .502-.018.908-.049.467-.037.963-.084 1.484-.141h-.006c.098-.01.201-.023.322-.037.023-.004.15-.018.242-.027a.491.491 0 0 1 .521.465v.693c0 .195-.199.43-.393.461a4.625 4.625 0 0 0-.996.264v.002c-.225.094-.387.201-.484.318h.002a1.28 1.28 0 0 0-.238.531 4.329 4.329 0 0 0-.096.998 24.975 24.975 0 0 0 .022 1.154c.006.158.016.332.027.527.01.16.021.34.039.547v.006l1.018 16.146v.004c.006.123.016.277.029.502.012.182.027.406.051.697v.01c.1 1.637.367 2.877.801 3.719l.002.002c.389.758.914 1.18 1.576 1.264.201.027.41.262.41.465v.715a.487.487 0 0 1-.553.459 17.108 17.108 0 0 0-.867-.127h.002a23.23 23.23 0 0 0-1.934-.149 32.368 32.368 0 0 0-2.18 0 25.252 25.252 0 0 0-1.94.149h.002c-.32.039-.611.082-.869.127a.486.486 0 0 1-.551-.459v-.715c0-.191.195-.426.383-.461a5.06 5.06 0 0 0 1.066-.301c.258-.109.451-.234.58-.371.125-.133.219-.301.283-.506.07-.227.105-.502.105-.826 0-.211-.002-.459-.008-.742a69.664 69.664 0 0 0-.06-1.818c-.016-.324-.033-.676-.057-1.062v-.004l-.852-15.791-8.42 22.627c-.053.143-.286.307-.438.307h-1.512c-.144 0-.377-.154-.433-.287l-9.582-22.85-.707 16.438v.004a64.488 64.488 0 0 0-.067 1.703c-.007.27-.014.521-.017.752a55.83 55.83 0 0 0-.005.68c0 .314.037.584.11.809.067.205.167.377.297.514.138.145.34.275.602.395.286.131.641.242 1.062.334.179.039.37.275.37.459v.715a.489.489 0 0 1-.537.463 40.701 40.701 0 0 0-1.848-.227 16.17 16.17 0 0 0-.771-.051 14.972 14.972 0 0 0-1.557 0 24.042 24.042 0 0 0-2.576.276.406.406 0 0 1-.11.002.412.412 0 0 1-.111-.002 32.51 32.51 0 0 0-1.957-.253 17.818 17.818 0 0 0-1.643-.083c-.603 0-1.209.027-1.816.084a23.338 23.338 0 0 0-1.901.253.486.486 0 0 1-.55-.461v-.738c0-.215.217-.451.431-.469.326-.027.602-.072.824-.137.203-.059.364-.131.482-.217a.642.642 0 0 0 .214-.26c.052-.113.078-.258.078-.43 0-.068-.007-.146-.021-.23v0a3.454 3.454 0 0 0-.081-.348l.002.002a11.895 11.895 0 0 0-.307-.953l.006.016-2.817-6.92H57.38l-2.415 6.328-.002.002c-.105.273-.196.52-.27.74a8.601 8.601 0 0 0-.177.594 4.918 4.918 0 0 0-.096.461c-.02.131-.029.25-.029.354 0 .135.026.256.079.354v.002a.694.694 0 0 0 .244.258c.133.09.313.168.539.232.248.07.541.123.876.156.209.021.423.256.423.465v.738c0 .275-.281.51-.553.459a17.279 17.279 0 0 0-.92-.146h.002a25.225 25.225 0 0 0-.896-.105 18.089 18.089 0 0 0-1.694-.083c-.319 0-.644.008-.975.027a.487.487 0 0 1-.358.186h-1.434c-.247.035-.509.078-.784.125a.466.466 0 0 1-.39-.125H31.324a.504.504 0 0 1-.469-.469v-.715c0-.189.195-.424.381-.461a5.29 5.29 0 0 0 1.095-.316c.263-.113.457-.238.582-.373.11-.119.199-.354.267-.703.078-.404.118-.939.118-1.607v-20.52c0-.658-.04-1.189-.118-1.592v-.002c-.066-.344-.155-.574-.263-.689l-.003-.004c-.125-.137-.321-.266-.584-.381a5.449 5.449 0 0 0-1.099-.334c-.182-.037-.374-.271-.374-.459v-.693a.486.486 0 0 1 .546-.466zm-5.073 1.776v.537c0 .357.009.746.027 1.166.016.396.042.84.077 1.324v.006c.027.441.07.973.124 1.588.083.938.134 1.477.182 1.973a.493.493 0 0 1-.465.514h-.715c-.2 0-.435-.205-.463-.402-.144-.986-.415-1.854-.814-2.598a5.904 5.904 0 0 0-1.571-1.873h.002a6.779 6.779 0 0 0-2.306-1.158c-.892-.262-1.905-.395-3.035-.395-1.573 0-3.009.273-4.303.818-1.295.545-2.46 1.365-3.492 2.457a10.909 10.909 0 0 0-2.325 3.758c-.518 1.416-.778 2.994-.778 4.736 0 1.826.263 3.502.788 5.025a12.508 12.508 0 0 0 2.351 4.104c1.04 1.215 2.19 2.123 3.448 2.727 1.252.6 2.618.9 4.097.9.977 0 1.866-.123 2.665-.369a6.624 6.624 0 0 0 2.129-1.094l.002-.002-.002.002.002-.002c.608-.479 1.066-1.02 1.37-1.625.302-.604.453-1.275.453-2.018v-3.238a1.13 1.13 0 0 0-.128-.551h.002a1.196 1.196 0 0 0-.4-.414l-.006-.006a3.323 3.323 0 0 0-.841-.385 8.553 8.553 0 0 0-1.32-.299c-.188-.031-.392-.258-.398-.447l-.022-.693a.487.487 0 0 1 .541-.477c.304.047.63.09.977.129h.002-.005.002a25.34 25.34 0 0 0 1.999.149 32.001 32.001 0 0 0 3.231-.057 23.85 23.85 0 0 0 1.967-.221.487.487 0 0 1 .542.461v.693c0 .189-.195.424-.381.461a5.378 5.378 0 0 0-1.095.316c-.259.113-.449.236-.57.369-.107.119-.194.355-.26.705-.076.402-.113.939-.113 1.607v9.332a.504.504 0 0 1-.469.469h-1.194c-.167 0-.401-.174-.449-.334a2.348 2.348 0 0 0-.041-.125v.002a3.984 3.984 0 0 1-.059-.17l-.002-.008a33.265 33.265 0 0 0-.648-1.932 15.226 15.226 0 0 0-.213-.541c-.494.514-.996.971-1.505 1.369-.684.535-1.38.967-2.087 1.297-.713.328-1.485.574-2.314.738-.825.16-1.706.242-2.64.242-1.83 0-3.524-.363-5.079-1.088v.002c-1.546-.723-2.949-1.803-4.206-3.244a14.765 14.765 0 0 1-2.823-4.807c-.625-1.762-.938-3.686-.938-5.768 0-2.324.371-4.441 1.11-6.352a14.694 14.694 0 0 1 3.336-5.109 14.599 14.599 0 0 1 5.115-3.35c1.919-.74 4.053-1.111 6.398-1.111.722 0 1.416.037 2.078.113a14.16 14.16 0 0 1 1.889.342c.596.154 1.178.352 1.741.592.562.238 1.1.52 1.608.838.093.062.22.29.22.402z"/><path d="M116.74 55.619l.203.6c.139.411.297.843.471 1.293.17.441.367.927.588 1.453v.002c.201.489.451 1.068.74 1.726.291.66.607 1.364.953 2.129a.493.493 0 0 1-.277.636l-.797.271c-.189.064-.479-.053-.568-.231-.537-1.055-1.174-1.925-1.906-2.61a7.058 7.058 0 0 0-2.492-1.514h.002c-.93-.326-1.943-.467-3.039-.422-1.107.047-2.293.284-3.557.711-1.762.598-3.268 1.452-4.516 2.558-1.246 1.106-2.242 2.47-2.984 4.088a12.935 12.935 0 0 0-1.174 5.1c-.045 1.788.264 3.656.924 5.604.693 2.045 1.625 3.822 2.793 5.329a14.833 14.833 0 0 0 4.199 3.704c1.629.967 3.266 1.549 4.908 1.747 1.637.198 3.287.015 4.945-.548 1.094-.372 2.047-.85 2.854-1.434a7.89 7.89 0 0 0 1.98-2.049l-.002.002c.508-.777.818-1.567.93-2.368v-.001.001-.001c.109-.798.023-1.618-.262-2.456l-1.225-3.612a1.414 1.414 0 0 0-.375-.599 1.486 1.486 0 0 0-.639-.333l-.006-.002c-.289-.08-.66-.117-1.109-.111a10.43 10.43 0 0 0-1.598.167c-.186.032-.449-.12-.516-.298l-.287-.764a.486.486 0 0 1 .357-.625 29.147 29.147 0 0 0 2.282-.495c.377-.096.762-.205 1.154-.323a38.48 38.48 0 0 0 3.588-1.285 32 32 0 0 0 1.084-.483h-.002c.35-.165.695-.337 1.033-.515a.49.49 0 0 1 .662.264l.262.773c.061.178-.047.463-.211.557a6.354 6.354 0 0 0-1.115.779c-.258.233-.432.453-.518.655-.08.188-.09.498-.029.93v.002-.001.002c.07.489.232 1.106.484 1.851l3.529 10.401c.074.221-.072.519-.293.593l-1.332.454c-.156.053-.434-.037-.531-.172-.016-.023-.053-.069-.094-.123l-.129-.164-.006-.009a39.86 39.86 0 0 0-1.457-1.914h.002c-.195-.236-.371-.44-.531-.615a16.91 16.91 0 0 1-1.203 2.198 12.617 12.617 0 0 1-1.826 2.218 11.87 11.87 0 0 1-2.285 1.687c-.848.486-1.797.907-2.838 1.262-2.031.689-4.043.925-6.035.706h-.002c-1.986-.218-3.947-.889-5.881-2.013a17.631 17.631 0 0 1-2.609-1.843 17.484 17.484 0 0 1-1.443-1.387 17.22 17.22 0 0 1-1.248 5.028c-.852 2.069-2 3.795-3.443 5.177-1.449 1.387-3.191 2.424-5.222 3.111a15.952 15.952 0 0 1-3.019.727c-.98.131-1.928.15-2.839.053a12.485 12.485 0 0 1-2.797-.65 16.832 16.832 0 0 1-2.293-1.012c-.02.236-.037.508-.046.814-.021.648-.019 1.449.01 2.404v.01c.001.088 0 .158-.001.221v.15c.003.162-.165.398-.319.451l-1.333.453c-.221.076-.519-.072-.593-.293l-3.53-10.403c-.252-.744-.5-1.333-.742-1.765-.214-.379-.409-.618-.586-.718-.193-.108-.464-.178-.809-.205h-.002a6.36 6.36 0 0 0-1.361.059c-.187.025-.445-.135-.505-.313l-.262-.771a.488.488 0 0 1 .364-.611c.364-.063.743-.139 1.133-.224.379-.082.765-.175 1.155-.274l-.002.002c.368-.094.768-.209 1.192-.337.438-.133.849-.266 1.238-.397h-.002c.41-.139.811-.282 1.201-.43a28.117 28.117 0 0 0 2.18-.925h.002c.335-.158.685-.331 1.045-.519a.486.486 0 0 1 .663.28l.237.781c.055.182-.064.464-.233.552-.549.288-1.006.568-1.37.839-.354.264-.625.52-.809.764l-.006.006c-.164.21-.265.428-.303.649-.039.223-.015.46.069.707l1.225 3.609c.284.838.714 1.541 1.287 2.106.577.569 1.304 1.009 2.179 1.315l-.002-.002a7.881 7.881 0 0 0 2.82.42c.998-.027 2.044-.227 3.134-.596 1.659-.565 3.08-1.423 4.256-2.575 1.183-1.156 2.127-2.615 2.833-4.375a14.845 14.845 0 0 0 1.075-5.495c.009-1.909-.333-3.887-1.026-5.928-.662-1.95-1.553-3.621-2.674-5.011a12.902 12.902 0 0 0-4.038-3.33c-1.569-.831-3.19-1.308-4.854-1.426-1.669-.118-3.384.121-5.142.716-1.265.429-2.351.963-3.255 1.598-.893.628-1.612 1.359-2.154 2.187v-.002a7.024 7.024 0 0 0-1.055 2.714c-.165.994-.139 2.073.076 3.235.036.196-.121.464-.31.527l-.797.271a.493.493 0 0 1-.606-.337c-.212-.901-.401-1.7-.541-2.271a80.981 80.981 0 0 0-.464-1.82v-.002a58.3 58.3 0 0 0-.418-1.508c-.14-.476-.278-.916-.413-1.315v.002l-.203-.6c-.034-.103.012-.361.081-.445a13.46 13.46 0 0 1 1.466-1.538 14.052 14.052 0 0 1 1.709-1.306h-.001a16.34 16.34 0 0 1 1.966-1.092 21.263 21.263 0 0 1 2.266-.909c2.61-.886 5.118-1.279 7.522-1.179 2.414.1 4.727.698 6.936 1.791a17.608 17.608 0 0 1 3.207 2.041c.673.54 1.303 1.129 1.89 1.768.077-.861.217-1.712.423-2.552.299-1.22.732-2.41 1.3-3.568a17.121 17.121 0 0 1 4.415-5.643c1.85-1.544 4.08-2.76 6.689-3.645a21.542 21.542 0 0 1 2.35-.658h.002-.002.002c.77-.166 1.512-.277 2.223-.331a14.184 14.184 0 0 1 2.152-.002c.699.053 1.398.162 2.094.326.105.029.3.207.335.311z" fill="#92c2e3"/></svg>