<svg xmlns="http://www.w3.org/2000/svg" width="2500" height="2500" viewBox="0 0 192.756 192.756"><g fill-rule="evenodd" clip-rule="evenodd"><path fill="#fff" d="M0 0h192.756v192.756H0V0z"/><path d="M184.252 159.049V33.708H8.504v125.341h175.748z"/><path fill="#fff" d="M117.477 93.535l4.212 18.832-14.125 19.574h9.913l10.654-15.115 3.221 15.115h8.425l-4.461-20.07 12.885-18.336h-9.664l-9.414 13.133-3.223-13.133h-8.423zM57.884 131.941h9.168l16.602-55.255h-9.169l-16.601 55.255zM41.808 102.455h16.85l-8.177 27.008c-5.947 3.223-12.142 3.223-17.841 3.223-5.699 0-23.292 3.717-10.654-31.223 3.716-12.388 4.212-26.512 26.265-26.016 11.151 0 17.593 2.974 13.133 17.345H50.729l.991-3.469c1.487-5.451-1.487-6.69-4.212-6.69s-8.672.248-11.894 11.15l-4.708 15.858c-2.478 7.682-4.46 16.105 3.717 15.859 2.974 0 6.69-.496 8.177-5.947l2.478-8.672h-5.947l2.477-8.426zM92.884 103.447h-9.168c1.982-6.443 5.947-11.151 15.858-11.151 9.91 0 12.637 5.946 10.406 13.875l-5.947 19.822c-.619 1.611-.867 4.461-.619 5.947h-8.3c-.743-1.238-.743-1.982-.991-3.717-2.973 2.479-7.681 4.213-10.654 4.213-2.974 0-7.632-4.096-5.947-11.15 1.982-8.301 5.451-13.133 12.885-13.133 6.813 0 9.911-.496 10.655-3.221.742-2.727.742-5.947-1.982-6.443-2.727-.495-5.453 1.736-6.196 4.958zM166.848 92.668c-7.434-.992-16.477.867-20.938 15.982-4.459 15.115-3.469 24.035 8.672 24.777 12.143.744 16.727-5.574 20.318-18.584 3.155-11.415 3.594-20.193-8.052-22.175z"/><path d="M98.582 113.605c-3.964-.248-10.035-.867-12.265 5.08s1.123 7.129 3.097 7.309c2.726.248 6.194-2.725 7.681-6.938l1.487-5.451zM164.99 99.109c-3.717-.99-6.691 1.115-8.178 5.824l-3.965 13.381c-1.115 3.592-2.105 9.043 3.471 9.662 2.229.496 4.707-.742 6.193-5.203l4.955-16.105c1.241-4.213.001-6.566-2.476-7.559z"/></g></svg>