<svg xmlns="http://www.w3.org/2000/svg" width="2500" height="2500" viewBox="0 0 192.756 192.756"><path fill-rule="evenodd" clip-rule="evenodd" fill="#fff" d="M0 0h192.756v192.756H0V0z"/><path d="M27.204 99.041c-.111.777-.222 1.109-.555 1.109-.333 0-.555-.223-.555-.443-.111-.889-1.775-1.998-3.661-1.998-4.66 0-6.878 3.551-6.878 7.213 0 3.549 1.664 8.209 5.88 8.209.666 0 1.332-.223 1.886-.555v-3.107c0-2.328-.333-2.439-1.109-2.439h-.999v-.998h7.655v.998h-.998c-.444 0-.444 0-.555.443v3.551c0 .998.443.666.443 1.221 0 .332-.222.555-.555.664-.222.111-3.883 1.332-6.989 1.332-5.326 0-8.876-2.996-8.876-8.432 0-6.768 6.102-9.319 10.762-9.319 1.775 0 3.662.333 5.325.999l-.221 1.552zM30.643 107.361c0-2.994 1.886-7.654 7.655-7.654 3.994 0 7.101 2.551 7.101 6.879 0 2.994-1.886 7.543-7.655 7.543-4.105 0-7.101-2.44-7.101-6.768zm7.988 5.881c2.662 0 3.328-2.662 3.328-4.771 0-2.662-.888-7.877-4.549-7.877-2.663 0-3.328 2.773-3.328 4.883.001 2.662.888 7.765 4.549 7.765zM52.499 109.469c0 2.885.111 3.33.555 3.33 1.997 0 4.66-.111 5.326-1.332.111-.223.111-.332.333-.332s.333.221.333.332c0 .332-.333 1.664-.554 2.33h-10.54v-.889c.998 0 1.109 0 1.109-.221v-10.43c0-1.33-.333-1.33-.666-1.33h-.998v-.777h6.435v.777h-.888c-.333 0-.444 0-.444.443v8.099h-.001zM60.82 112.908c.999 0 1.109 0 1.109-.221v-10.43c0-1.33-.333-1.33-.555-1.33h-.999v-.777h6.546c5.325 0 7.766 3.107 7.766 6.545 0 2.553-1.553 7.102-7.655 7.102H60.82v-.889zm4.66-3.439c0 2.885.11 3.33.555 3.33h.665c3.106 0 4.327-2.33 4.327-5.215 0-5.658-4.105-6.436-5.104-6.436-.333 0-.444 0-.444.223v8.098h.001zM78.46 102.258c0-1.33-.333-1.33-.666-1.33h-.998v-.777H87.78l-.222 1.553c0 .334 0 .889-.333.889s-.444-.111-.444-.334c-.111-.443-.222-.664-.666-.775-1.109-.334-2.108-.334-3.772-.334-.333 0-.443 0-.443.334v4.438h1.22c2.33 0 2.441-.334 2.441-.889v-.664h.776v3.771h-.776v-.332c0-.666 0-1-1.775-1H81.9v2.662c0 2.885.111 3.33.555 3.33 1.997 0 4.66-.111 5.325-1.332.111-.223.111-.332.444-.332.222 0 .222.221.222.332 0 .332-.333 1.664-.555 2.33h-10.54v-.889c.998 0 1.109 0 1.109-.221v-10.43zM102.203 108.582v-6.213c0-.887-.111-1.441-.666-1.441h-.998v-.777h3.994v.777h-.777c-.223 0-.443 0-.443.221v12.537c0 .223-.111.332-.334.332-.221 0-.555-.443-.664-.555l-9.542-10.205v8.32c0 .887.222 1.33.666 1.33h1.109v.889h-3.994v-.889h.777c.111 0 .444 0 .444-.221v-8.986c0-2.773-1.664-2.773-2.108-2.773v-.777h4.66l7.876 8.431zM127.387 113.797h-9.43v-.998c2.219 0 2.33 0 2.33-.334V98.264h-.443c-3.773 0-4.217 1.109-4.439 1.443-.109.443-.332.666-.555.666-.332 0-.443-.111-.443-.445 0-.221.334-1.33.777-2.883h14.533c.443 1.553.777 2.662.777 2.883 0 .334-.111.445-.443.445-.223 0-.445-.223-.555-.666-.223-.334-.666-1.443-4.439-1.443h-.443v11.982c0 .555 0 2.553.555 2.553h2.219v.998h-.001zM145.914 100.928h-.775c-.223 0-.443 0-.443.221v7.545c0 5.436-5.104 5.436-6.213 5.436-.445 0-5.438 0-5.438-4.438v-7.434c0-1.33-.332-1.33-.666-1.33h-.998v-.777h6.324v.777h-.666c-.332 0-.555 0-.555.443v7.654c0 1.775.555 3.994 3.219 3.994 3.883 0 3.883-3.328 3.883-3.994v-6.656c0-.887-.111-1.441-.666-1.441h-.998v-.777h3.992v.777zM152.904 109.469c0 2.885.223 3.33.555 3.33 2.107 0 4.66-.111 5.326-1.332.111-.223.221-.332.443-.332s.332.221.332.332c0 .332-.443 1.664-.664 2.33h-10.541v-.889c.998 0 1.109 0 1.109-.221v-10.43c0-1.33-.332-1.33-.666-1.33h-.998v-.777h6.547v.777h-1c-.332 0-.332 0-.443.443v8.099zM160.449 100.15h6.324v.777h-.777c-.332 0-.443 0-.443.443v9.541c0 .443 0 1.996.555 1.996h1.221v.889h-6.324v-.889c.998 0 1.109 0 1.109-.221v-10.43c0-1.33-.334-1.33-.666-1.33h-.998v-.776h-.001zM176.535 113.797h-6.322v-.889c.998 0 1.109 0 1.109-.221v-10.43c0-1.33-.334-1.33-.666-1.33h-.998v-.777h6.988c3.662 0 4.771 2.219 4.771 3.771 0 1.555-1.443 3.662-4.883 3.662-.555 0-1.219 0-1.773-.223v3.551c0 .443 0 1.996.555 1.996h1.219v.89zm-1.773-7.322c.221.111.555.221.887.221 1.332 0 2.219-1.109 2.219-2.439 0-1.553-.887-3.107-2.662-3.107-.223 0-.443 0-.443.223v5.102h-.001z" fill-rule="evenodd" clip-rule="evenodd" fill="#2c4a7c"/><path d="M88.224 80.624c-.666-.444-1.886-1.665-3.329-3.772-1.442-1.997-.998-7.211-.998-7.211-.888 1.775-1.442 3.772-1.442 5.991 0 6.546 4.881 11.982 11.095 12.87-.001-.001.443-4.661-5.326-7.878zM97.432 88.501c6.324-.888 11.096-6.324 11.096-12.87 0-2.108-.445-4.216-1.443-5.991 0 0 .443 5.214-.998 7.211-1.332 2.107-2.662 3.328-3.217 3.772-5.882 3.218-5.438 7.878-5.438 7.878z" fill-rule="evenodd" clip-rule="evenodd" fill="#c3a93a"/><path d="M91.33 66.423c-.887-1.332-3.772-.888-3.772-.888 1.331 1.442 1.331 2.219 1.331 2.219v9.985c0 1.442 1.221 2.663 2.663 2.663h3.106v8.209h1.886v-8.209h2.997L91.33 66.423zM100.871 79.958c.777-.444 1.332-1.221 1.332-2.219v-9.985s0-.776 1.33-2.219c0 0-2.883-.444-3.66.888l-3.55 5.991 4.548 7.544zM95.546 70.972l3.55-5.88c-.998-.666-2.218-1.109-3.55-1.109s-2.441.444-3.439 1.22l3.439 5.769z" fill-rule="evenodd" clip-rule="evenodd" fill="#c3a93a"/><path fill-rule="evenodd" clip-rule="evenodd" d="M37.632 128.664h-.776v-2.441h-3.217v2.441h-.777v-5.658h.777v2.439h3.217v-2.439h.776v5.658zM43.18 122.895c1.886 0 2.995 1.33 2.995 2.885 0 1.553-1.109 2.994-2.995 2.994-1.887 0-2.996-1.441-2.996-2.994 0-1.555 1.221-2.885 2.996-2.885zm0 5.103c1.22 0 2.219-.889 2.219-2.219 0-1.221-.999-2.109-2.219-2.109-1.221 0-2.219.889-2.219 2.109 0 1.33.998 2.219 2.219 2.219zM52.943 123.781h-1.997v4.883h-.777v-4.883h-1.997v-.775h4.771v.775zM58.379 123.781h-2.33v1.664h2.22v.666h-2.22v1.776h2.442v.777h-3.329v-5.658h3.217v.775zM61.597 127.887h2.551v.777H60.82v-5.658h.777v4.881zM69.03 124.225c-.444-.443-.888-.555-1.332-.555-.444 0-.888.223-.888.666 0 1.109 2.441 1.109 2.441 2.885 0 .889-.666 1.553-1.553 1.553-.666 0-1.109-.221-1.553-.555v-.998c.333.443.888.777 1.442.777.666 0 .888-.443.888-.666 0-1.221-2.441-1.332-2.441-2.885 0-.887.776-1.553 1.775-1.553.444 0 .888.221 1.221.443v.888zM76.796 125.779c0 .666-.444 1.109-.999 1.109-.555 0-.998-.443-.998-1.109 0-.555.443-1 .998-1 .556 0 .999.446.999 1zM82.122 123.006h.887v5.658h-.887v-5.658zM90.998 128.664h-.777l-3.772-4.328v4.328h-.777v-5.658h.665l3.884 4.326v-4.326h.777v5.658zM98.875 128.664h-.666l-3.772-4.328v4.328h-.777v-5.658h.666l3.772 4.326v-4.326h.777v5.658zM104.311 124.225c-.443-.443-.887-.555-1.332-.555-.555 0-.887.223-.887.666 0 1.109 2.441 1.109 2.441 2.885 0 .889-.666 1.553-1.555 1.553-.664 0-1.109-.221-1.553-.555v-.998c.334.443.889.777 1.443.777.664 0 .887-.443.887-.666 0-1.221-2.441-1.332-2.441-2.885 0-.887.666-1.553 1.775-1.553.443 0 .777.221 1.221.443v.888h.001zM111.078 124.779c-.555 0-1.109.445-1.109 1 0 .666.555 1.109 1.109 1.109s.998-.443.998-1.109c0-.554-.443-1-.998-1zM118.844 123.006c1.109 0 1.887.555 1.887 1.553 0 .666-.332 1.221-.998 1.441.555.334.887.777 1.33 1.555.223.332.334.555.777 1.109h-.998l-.777-1.221c-.666-1.109-1.109-1.221-1.441-1.221h-.334v2.441h-.887v-5.658h1.441v.001zm-.555 2.439h.445c.887 0 1.109-.443 1.109-.887 0-.555-.334-.889-1.109-.889h-.445v1.776zM127.166 123.781h-2.441v1.664h2.33v.666h-2.33v1.776h2.441v.777h-3.219v-5.658h3.219v.775zM132.27 124.225c-.555-.443-1-.555-1.332-.555-.555 0-.887.223-.887.666 0 1.109 2.439 1.109 2.439 2.885 0 .889-.666 1.553-1.664 1.553-.555 0-1.109-.221-1.553-.555v-.998c.443.443.998.777 1.553.777s.889-.443.889-.666c0-1.221-2.441-1.332-2.441-2.885 0-.887.666-1.553 1.664-1.553.443 0 .887.221 1.332.443v.888zM137.594 122.895c1.887 0 2.996 1.33 2.996 2.885 0 1.553-1.109 2.994-2.996 2.994-1.885 0-2.994-1.441-2.994-2.994 0-1.555 1.218-2.885 2.994-2.885zm0 5.103c1.332 0 2.219-.889 2.219-2.219 0-1.221-.887-2.109-2.219-2.109-1.221 0-2.219.889-2.219 2.109 0 1.33.998 2.219 2.219 2.219zM144.584 123.006c1.109 0 1.885.555 1.885 1.553 0 .666-.332 1.221-.998 1.441.555.334.889.777 1.221 1.555.332.332.443.555.777 1.109h-.889l-.775-1.221c-.777-1.109-1.109-1.221-1.553-1.221h-.334v2.441h-.777v-5.658h1.443v.001zm-.666 2.439h.555c.887 0 1.109-.443 1.109-.887 0-.555-.332-.889-1.109-.889h-.555v1.776zM153.902 123.781h-1.996v4.883h-.777v-4.883h-1.996v-.775h4.769v.775zM158.785 124.225c-.443-.443-.889-.555-1.332-.555-.555 0-.887.223-.887.666 0 1.109 2.439 1.109 2.439 2.885 0 .889-.664 1.553-1.553 1.553-.666 0-1.109-.221-1.553-.555v-.998c.332.443.887.777 1.441.777.666 0 .889-.443.889-.666 0-1.221-2.441-1.332-2.441-2.885 0-.887.666-1.553 1.775-1.553.443 0 .777.221 1.221.443v.888h.001z"/><path fill="none" stroke="#000" stroke-width=".388" stroke-miterlimit="2.613" d="M159.117 118.457H32.64"/></svg>