<svg xmlns="http://www.w3.org/2000/svg" width="2500" height="2500" viewBox="0 0 192.744 192.744"><g fill-rule="evenodd" clip-rule="evenodd"><path fill="#fff" d="M0 0h192.744v192.744H0V0z"/><path fill="#28539c" d="M8.712 75.312h175.392v42.12H8.712v-42.12z"/><path d="M66.96 89.64c-3.888-.072-7.488 2.952-8.28 7.128-.936 4.176 1.728 7.704 6.192 7.632 4.536-.144 7.992-1.872 9.072-7.344 1.008-4.825-2.808-7.344-6.984-7.416zm1.224 4.536c-.504 2.16-1.008 4.392-1.728 6.552-.216.864-.792 1.872-1.656 1.729-.72-.145-.72-1.296-.648-2.16.432-2.305 1.08-4.608 1.8-6.84.36-1.08.72-2.017 1.656-1.944 1.224.143.72 1.799.576 2.663zM50.544 89.64c-3.96-.072-7.488 2.952-8.353 7.128-.864 4.176 1.729 7.704 6.264 7.632 4.464-.144 8.064-1.872 9.072-7.344 1.009-4.825-2.879-7.344-6.983-7.416zm1.224 4.536c-.504 2.16-1.08 4.392-1.728 6.552-.216.864-.792 1.872-1.728 1.729-.72-.145-.72-1.296-.504-2.16.36-2.305 1.008-4.608 1.656-6.84.504-1.08.72-2.017 1.656-1.944 1.296.143.792 1.799.648 2.663zM33.84 100.512c-.144.504-.504 1.08-1.296 1.008-1.008.072-1.008-.792-.937-1.296l1.8-6.696c.216-.792.72-1.44 2.016-1.368.936 0 1.584.504 2.232 1.152l1.512-2.016c-1.368-1.008-2.88-1.44-4.608-1.512-5.688.072-8.712 3.456-9.504 6.625-1.008 2.951 0 7.703 5.04 7.92h8.928l2.016-7.992h-6.192l-1.007 4.175zM99 89.352c.072-.072.072-.144.072-.216-.145-.792-.145-1.44-.217-2.16h.072l-.359-.576-4.824 3.24c.288.864.864 1.8 1.224 2.664L99 89.352zM98.568 100.872c.359-.433.791-.792 1.225-1.225l.432-.359.504-.36.504-.36.576-.432.504-.288.648-.36.646-.359.721-.288.072-.072-1.152-2.088a14.987 14.987 0 0 1-1.512 1.512l-1.008-1.008-.576-.72c-.072-.288-.289-.576-.359-.792l-4.105 2.52 2.664 4.824.216-.145zM99.145 93.312l-3.816-.144c.144.504.144 1.008 0 1.656 0 .216-.072.576-.216 1.008l4.032-2.52zM99 90.144l-3.312 2.448 3.671.144c-.07-.216-.07-.432-.143-.72l-.145-.864c-.071-.36-.071-.72-.071-1.008zM128.088 97.92h3.312l.721-2.808h-3.385l.649-2.664h5.183l.649-2.593H123.48l-3.527 14.473h11.664l.791-2.88h-5.183l.863-3.528zM119.305 89.855l-4.034 4.825-1.294-4.825h-7.129l2.449 8.065-1.584 6.408h6.912l1.367-6.048 6.84-8.425h-3.527zM163.943 89.855h-10.08l-4.031 14.473h6.912L158.328 99l1.367 5.328h6.77l-1.441-5.544c2.018-1.152 2.809-2.305 3.24-4.752.361-3.672-2.52-4.104-4.321-4.177zm-2.447 2.737c-.072 1.152-.359 2.232-.648 3.312-.215.576-.287 1.296-1.295 1.296h-.865l1.152-5.544h1.08c.504-.072.793.432.576.936zM141.48 89.855l-8.785 14.473h3.098l1.439-2.448h4.68l.359 2.448h6.553l-1.729-14.473h-5.615zm-2.591 9.361l2.303-3.816.361 3.816h-2.664zM85.896 89.855h-8.712l-3.672 14.473h8.424c6.264-.072 8.496-4.104 9.144-8.064.576-3.96-1.944-6.192-5.184-6.409zm-.72 3.961l-1.8 6.624c-.216.864-.648 1.584-1.8 1.656h-1.08l2.664-10.008h1.44c.504 0 .864.72.576 1.728z" fill="#f4cf53"/><path d="M109.729 88.848c-.072-.504-.576-.72-1.008-.936 1.008-.288 1.943-.432 2.16-.72.072-.072-.145-.36-.648-.792l5.256-.072c1.871 0 4.176-1.728 4.248-3.456-.504.288-1.367.648-2.088.72l-11.088-.144c-1.943-.216-4.104 0-5.184.648-1.656 1.224-1.514 3.096-1.225 4.968-.217 2.088.287 4.464 1.584 5.616.721-.72 1.297-1.44 1.512-2.592.217.36.576.576 1.008.72.289-.72.289-1.368.289-2.088.215.288.504.576.936.72.359-1.008.432-1.872.432-2.736 1.296.648 2.735.72 3.816.144zm-6.985 1.728c-.432-.216-.791-.576-1.295-.792 0-.504 0-1.08-.289-1.512.504.36 1.08.504 1.729.576-.145.576-.217 1.152-.145 1.728zm3.168-4.032c-.432.648-.936.792-1.729.648-.719.432-1.439.36-2.23-.072.719-.288 1.367-.648 1.654-1.224.938.216 1.656.216 1.945-.72.719.432 1.439.36 2.16.072-.216.792-.792 1.224-1.8 1.296zM104.617 97.56l-.648.36-.648.216-.576.36-.504.359-.504.36-.576.359-.359.36-.504.288-.793.792-.791.792a118.904 118.904 0 0 1-2.953 3.024l-.72.792-.432.359-.432.36-.432.432-.432.288-.576.36-.432.36-.649.219-.504.359-.72.288-.504.288.72.937c7.127-2.952 7.489-8.064 14.833-11.376l-.648-1.009-.216.073zM90.72 107.64l.648-.288.432-.36.576-.216.432-.359.504-.36.36-.359.864-.648.72-.72c.864-.864 1.655-1.872 2.519-2.736l.145-.144-2.952-5.257c-.936 2.017-3.312 5.04-3.6 8.208-1.296 1.008-3.024 2.16-1.944 3.816h.072l.648-.288.576-.289z" fill="#f4cf53"/></g></svg>