<svg xmlns="http://www.w3.org/2000/svg" width="2500" height="2500" viewBox="0 0 192.756 192.756"><path fill-rule="evenodd" clip-rule="evenodd" fill="#fff" d="M0 0h192.756v192.756H0V0z"/><path d="M31.474 105.172c12.921 0 23.39-5.326 23.39-11.903 0-6.577-10.469-11.903-23.39-11.903-12.913 0-23.39 5.326-23.39 11.903 0 6.577 10.478 11.903 23.39 11.903z" fill="none" stroke="#000" stroke-width=".438" stroke-miterlimit="2.613"/><path d="M31.527 82.322v21.938m-1.599-21.893c-2.16 1.868-3.804 15.684-.133 21.848M27.377 83.1c-1.129.134-7.954 9.168-.044 20.553m-.738-21.331c-4.666 2.082-12.957 12.6 0 21.76m-2.159-21.715c-7.296 2.601-15.25 13.895.044 21.635m-2.07-21.42c-5.27.697-21.47 12.162.089 21.241m10.619-21.456c2.16 1.868 3.804 15.684.134 21.848m1.768-21.803c1.644.733 8.603 9.856.693 21.241m.738-21.331c4.666 2.082 12.957 12.6 0 21.76m2.159-21.715c7.296 2.601 15.249 13.895-.044 21.635m1.599-21.59c5.048.778 21.941 12.332.382 21.411M25.867 84.28h14.77m-30.153 4.038h42.033M8.067 93.01h46.779M9.622 97.746h43.669m-37.813 4.209h32.009" fill="none" stroke="#000" stroke-width=".219" stroke-miterlimit="2.613"/><path d="M24.036 91.893c.16.071.293.161.417.277.266.241.578.554.942.688.285.107.373.491.578.688.338.322 1.262.393 1.084 1-.044.152-.169.313-.222.456-.107.232-.231.465-.293.724-.044.214.009.429-.026.652-.026.232-.204.41-.462.348-.009.082-.107.037-.125.09-.098.295-.195.59-.364.875-.08.125.018.332-.053.457-.027.045-.142.08-.178.143-.214.33-.48.438-.729.705-.382.439-.284 1.037-.169 1.592.018.07.151.125.169.178.08.207.169.422.16.645-.249-.135-.604-.062-.719-.35-.116-.303-.231-.607-.374-.885-.284-.57-.702-1.027-1.031-1.58.018.025.036.008.044.035-.151-.51.187-1.002-.009-1.447-.151-.357-.071-.797-.4-1.047-.098-.08-.311-.025-.382-.098-.399-.357-.657-.858-.809-1.367a.92.92 0 0 1-.044-.42c-.026.053-.053.107-.08.17-.125-.143-.151-.322-.249-.483a.905.905 0 0 1-.054-.67c.054-.143.329-.259.391-.429.062-.134.258-.277.16-.456-.044-.071-.168-.107-.195-.179-.027-.099-.036-.214-.054-.312h3.076z" fill-rule="evenodd" clip-rule="evenodd"/><path d="M20.961 91.893a.386.386 0 0 0-.116-.224 2.518 2.518 0 0 0-.72-.474c-.187-.071-.382-.196-.595-.206.044 0-.107-.081-.178-.107-.507-.179-.889-.554-1.28-.903-.089-.089-.053-.25-.053-.384-.044.089-.053.179-.089.268-.258-.206-.276-.527-.462-.795-.071-.098-.044-.223-.08-.339-.071-.295.125-.572.053-.867 0-.009-.071 0-.115 0 .026-.367-.125-.75-.009-1.072.053-.143.293-.233.408-.357.187-.188.471-.242.596-.483.071-.169.018-.366.142-.509.027-.036.125.026.151-.054a.356.356 0 0 0-.026-.268c.24-.071.604-.286.436-.536-.062-.098-.258-.223-.436-.143-.204.09-.4.161-.578.322-.08.072-.116-.125-.205-.107-.311.071-.551.259-.826.411-.125.063-.312.044-.409-.044-.143-.143-.285-.277-.276-.51.267.019.649.054.693-.304-.347.17-.782.134-1.084-.08.578-.036 1.093-.286 1.635-.465.267-.089.516-.25.791-.357.569-.224 1.173-.331 1.733-.581.142-.063.506-.152.461-.161.062.009-.018.125.009.161.089.143.204.268.311.322.151.071.258-.215.418-.241.293-.063.604 0 .844-.144.125-.071.293.009.364-.143-.026.151-.311.304-.115.402.125.063.222.197.373.206a.801.801 0 0 1-.027-.474c.054-.161.258-.215.392-.277.106-.054.177.206.266.294.178.179.578.054.693.331.026.071.106.125.106.214.08 0 .169.009.258-.009.036-.009.053-.036.044-.081.133-.027.16.107.257.17.036.018.107.018.116 0 .062-.116.16-.17.24-.241.204-.161.391-.456.667-.34.4.17.738.438 1.084.724.089.071.08.214.062.286-.018.152-.231.232-.391.286-.169.071-.071.269-.125.402-.044.116-.062.196-.151.312-.018.027-.107-.018-.116.054-.018.089.089.206.026.232-.098.044-.168.08-.168.196 0 .107-.071.054-.071.045-.036.071.08.188.026.259-.009.019-.053 0-.08 0 .399.688.15.492.098.536-.24.197-.604.018-.924.036.026.036.071.08.044.125-.018.009-.054 0-.081 0 .036 0 .107-.009.116.009a.227.227 0 0 1-.169.322c-.284.054-.56.25-.809.054-.036-.036.018-.242-.08-.188-.089.036 0 .197-.062.277-.151.188-.409.214-.533.474-.107.196-.453.009-.56.196-.071.134.009.411-.116.42-.311.036-.311.241-.302.483 0 .062-.142.018-.124.125-.169-.044-.347.062-.454.125-.142.089-.062.313-.267.456-.036.018.009.125-.027.152-.133.107-.346.214-.435.036-.089-.161-.24-.277-.285-.465-.382.197-.871.027-1.173.269-.098.071-.098.321-.168.492-.045.098-.019.303 0 .455.15-.17.399-.062.577-.241.125-.125.364-.179.48-.045.195.233-.116.519-.036.76.045.134.195.098.32.081.071 0 0 .188.089.277h-.089c0 .134-.044.241-.053.349-.018.232.275.581.56.491.143-.044.267-.232.436-.169.053.018.027.161.097.188.098.036.178-.036.276-.089a.974.974 0 0 1 1.04 0c.267.161.551.259.809.394h-3.069v-.002zM42.494 103.475c.026.027-.898-.697-.978-.732-.151-.072-.347-.037-.516.061a2.43 2.43 0 0 1-.685.26c.009.018.054 0 0 0h-.044.089c-.418-.133-.835-.25-1.271-.018-.151.08-.337-.018-.506-.107-.169-.098-.347-.072-.506-.025-.276.061-.569.186-.827.15-.213-.025-.462.035-.64-.143-.258-.258-.702-.16-1.04-.08-.88.232-1.715 0-2.488-.438-.169-.1-.436-.082-.622-.01-.302.135-.596.26-.915.357-.374.098-.756-.143-1.12.018-.267.125-.56.117-.809.205-.436.17-.835.6-1.351.465-.461-.125-.853-.4-1.253-.66-.382-.25-.889-.01-1.342.135-.053.018-.125.098-.169.088-.329-.045-.64.045-.613.412-.427.018-.818-.082-1.253-.045.017-.045-.009-.072-.045-.08-.053-.02-.133-.027-.151 0-.08.133-.071.32-.275.25-.187-.055-.391-.162-.551-.1-.124.045-.213.215-.328.305-.045.035-.125.09-.205.062 3.484 1.107 7.67 1.117 9.136 1.152 4.364.08 9.66-.848 11.278-1.482zM26.489 82.394c.124.018.275-.018.32-.072a1.54 1.54 0 0 1 .631-.384c.062-.018.098-.098.178-.116.053-.009.125-.018.16.009.267.206.578.277.862.188.293-.089.551.036.826-.035.249-.072.507-.206.729-.125.071.026.107.25.196.286.311.107.595.572.56.25.018.161-.24.018-.355.125a3.831 3.831 0 0 1-.942.625c-.018.009 0 .116-.053.143-.355.205-.711.304-1.067.474-.24.125-.267.519-.542.652-.178.08-.383.018-.498-.17-.106-.179-.044-.394-.204-.572-.045-.054.044-.179.027-.286-.098.036 0-.125-.089-.089-.018-.143.071-.411.329-.554.053-.036.196-.241.053-.277-.391-.098-.799.027-1.199-.062-.029-.01.042-.019.078-.01zM30.336 83.645c-.089 0-.187-.027-.249.018-.098.062-.124.17-.098.286.249-.099.195.026.427-.143.018-.009.009-.072 0-.116-.008-.027-.097.053-.08-.045zM30.55 85.119c-.169.036-.311.134-.196.295.036.053.213.358.312.367 0-.135-.116-.528-.116-.662zM30.941 84.95c0-.152-.098-.009-.134-.045-.08.214 0 .482.018.697.009.072.302.331.329.259.089-.214-.098-.732-.168-.956-.019.018-.036.027-.045.045zM42.04 91.991c-.187.125.009.339-.044.518.533 0 .026.232.284-.018.089-.081.249-.072.134-.179-.143-.134-.284-.259-.436-.394-.018-.018-.027.062-.027.116.027-.016.053-.034.089-.043z" fill-rule="evenodd" clip-rule="evenodd"/><path d="M46.572 87.997c.044-.393-.417-.456-.578-.777-.062-.116 0-.188.027-.268 0-.009.062.009.071-.009.018-.044-.009-.116.018-.16.054-.072.089-.134.072-.224.195.036.302-.125.195-.241-.15-.188-.267-.394-.427-.572-.213-.25-.523-.375-.808-.562-.062-.045-.168 0-.249-.027-.089-.026-.125-.143-.071-.188.338-.312.853-.197 1.217.054.195.134.391.25.595.384a.555.555 0 0 0 .454.089c.044-.018 0-.188-.044-.232-.214-.223-.596-.214-.791-.545-.107-.187.115-.375.169-.554.106-.349-.462-.295-.72-.393-.285-.116-.623-.099-.934-.188-.746-.223-1.501-.348-2.204-.688-.071-.036-.142-.107-.222-.161-.009.081.089.161.035.206-.435.321-.799-.152-1.244-.161.018.045.098.107.08.116-.346.179-.844.081-1.182-.125-.293-.179-.693.161-1.004-.018-.24-.135-.436-.322-.703-.393-.426-.117-.782.188-1.155.348-.027.009.009.125-.018.143-.373.322-.826.312-1.28.429-.239.054-.453.188-.657.322h.045c-.116 0-.338-.027-.392.179-.302-.116-.418-.509-.738-.545-.24-.027-.4-.179-.595-.286 0 .036.009.054-.044.045-.196-.009-.391.08-.542.188-.168.107-.391.17-.471.349-.178.384-.409.715-.844.822-.053.018-.098.089-.088.161-.027 0-.071-.009-.08.009-.027.036.009.098.036.116.177.071.382.045.56.143-.053-.063.098-.027.044-.089.026 0 .08-.009.08 0 .124.483.169.688.062.554.027.027.116.027.151 0 .115-.081.24-.144.266-.295.044-.179.054-.394.16-.545.187-.25.444.107.533.331-.302-.009-.507.224-.773.313-.009.009.009.098-.009.107-.195.072-.435.09-.595.242-.027.027.009.134-.018.152-.248.143-.729.044-.746.277-.053.518-.631.527-.845.849-.124.206-.053.518-.035.795.009.134.213.143.213.303.231-.018.462.107.684-.009.036-.018.044-.098.054-.107.284-.134.462-.339.613-.607.018-.027.106 0 .16-.018.222-.098.462-.384.604-.223.134.143.355.223.427.482.044.152.302-.018.498.107.098.054.107.179.196.196.124.027.231.108.346.081.081-.009.027-.107.053-.152.009-.018.054 0 .08-.009.027-.018.054-.044.045-.089.053 0 .124-.018.16.009.08.062.16.062.213.098.142.107.187.322.302.429.134.134.498-.116.569.053.124.295-.009.715.177.992.347.5.693 1.019 1.297 1.207.062.027.062.125.062.169.018.269-.044.545.249.626.328.098.702.188 1.013 0 .071-.054.178-.17.249-.206.213-.098.436-.197.542-.366.151-.232 0-.581-.089-.876.32-.018.587.197.906.169l.134.045c.124.081.302.062.373.179.382.644.542 1.332.906 1.975.027.045.178.018.275.018-.026-.081.036-.152.062-.206.16-.331.178-.697.392-.992.062-.072.187-.161.32-.152-.009-.117.106-.188.16-.232.124-.125.177.107.319.188.107.071.267.018.329.107.125.161.347.143.426.295.205.447.356.894.489 1.376.009.027.195-.036.258.054.125.214.311.375.524.492.045.027.115.08.134.152.115-.054.044-.152.026-.206-.106-.304-.223-.599-.24-.92.267.071.533.152.818.134-.018-.393.115-.813-.08-1.162-.08-.143-.293-.232-.391-.411-.062-.107-.089-.268-.026-.322.213-.17.515-.018.755-.027.098 0 .178-.286.24-.402.124-.232.24-.787.106-1.135-.151-.375-.844-.402-.773-.885.027-.161.329-.08.489.054.08.062.196.152.293.188.054.018.107.062.169.062h.126v-.003z" fill-rule="evenodd" clip-rule="evenodd"/><path d="M31.323 87.863a.987.987 0 0 0-.897.143c-.24.179-.373.42-.551.652-.364.5-.293 1.144-.578 1.653-.125.214-.374.447-.293.715.054.206.284.295.364.519.062.178.036.393.133.509.346.429.889.599 1.44.688.373.062.684-.179 1.004-.384.169-.098.418.018.489.206.044.134-.018.322.027.465.151.447.249.885.48 1.322.187.34.125.75.027 1.099-.081.286-.249.545-.187.831.053.277.284.429.346.706.106.465-.018.92.205 1.332.106.195.222.357.426.473.195.117.417.09.64.1-.027-.055.062-.072.044-.125.116.025.16-.062.24-.107.275-.188.497-.42.764-.627.133-.098.24-.303.32-.482.045-.125-.036-.268.054-.393.106-.143.07-.305.187-.42.195-.205.462-.35.577-.625.16-.358.142-.742.071-1.118-.018-.08-.018-.197-.071-.286-.098-.17-.035-.42-.035-.635.124.036.195-.081.249-.143.249-.322.595-.545.72-.911.089-.269.329-.447.444-.688.026-.062.018-.17.071-.196.231-.152.346-.412.293-.608-.044-.17-.329-.098-.515-.152-.231-.071-.391-.241-.596-.366-.408-.268-.8-.59-.977-1.028-.116-.294-.293-.518-.48-.759-.054-.072-.089-.179-.196-.188a1.14 1.14 0 0 0 .169-.045c-.088-.268-.142-.545-.213-.822-.444.322-1.004-.045-1.51.018-.036 0 .053.125-.009.144-.08.027-.15-.036-.231-.099-.142-.099-.382.071-.533-.071-.036-.036.009-.144-.018-.206a1.012 1.012 0 0 0-.177-.268c-.08-.099-.249-.295-.374-.331-.133-.035-.284-.054-.373.009-.267.178-.48.375-.755.536-.046.025-.118-.01-.215-.037zM37.89 95.503c-.036-.098-.116-.018-.169-.036-.071.286-.329.42-.604.384.062.26.018.367-.205.535-.036.037.009.162-.027.197-.329.295-.16.814.125 1.02.186.143.364-.08.373-.27.018-.375.32-.588.391-.955.009-.062.044-.17.16-.135-.089-.205.009-.393-.044-.777v.037zM20.881 89.525a.635.635 0 0 1 .702-.054c.267.169.56.393.684.706.036.089-.151.089-.222.062a.916.916 0 0 1-.364-.277c-.036-.036-.134-.018-.205-.018.019-.116 0-.206-.098-.241-.124-.054-.293.018-.408-.036-.035-.017-.151-.088-.089-.142zM46.777 86.665c-.125-.089-.151.143-.107.179.764.509 0 .215.337.197a.54.54 0 0 0-.23-.376zM47.434 87.425c.969-.599-.595 1.054-.071.009-.027.045-.018.107-.009.17.009.035.062.035.071.053.062.072-.116.179.018.242.036.018.107.018.107 0a.724.724 0 0 0-.036-.509c-.017-.028-.053.017-.08.035zM47.177 88.167c-.044 0-.08.045-.125.054-.045.018.169.259.213.286.026.009-.098-.161-.098-.169.027-.046.01-.118.01-.171zM46.821 90.437c-.018-.027-.098-.018-.107-.009-.044.116-.027.313.16.304-.045.241.08.456.115.688.018.089.169.232.258.151.018-.018.018.09.018-.321-.089.036-.062-.098-.133-.089.054-.296-.125-.519-.311-.724zM47.657 91.643c-.062-.062-.027.098-.089.044-.106.394.098.224.044.17.018.009.054 0 .089 0-.009-.071.018-.152-.044-.214zM46.919 91.893c-.062.035-.116-.107-.16-.027-.035.045-.035.134 0 .152.231.161.107.009.249-.072-.062.054-.018-.089-.089-.053zM47.417 91.776c-.018-.036 0-.241.045-.286l-.045.286zM47.354 91.911c.062.009-.08.116-.08.125.009.062.071.036.125.036-.054-.045.062-.153-.045-.161zM47.834 92.125c-.106.062-.257.089-.168.196.053.071.204-.036.302 0a.393.393 0 0 0-.062-.152c-.01-.026-.063-.053-.072-.044zM46.83 92.188c-.222.072-.23.295-.257.5-.071-.036-.107.072-.168.036 0 .044.009.116-.009.125-.285.098-.48.295-.667.5-.018.027-.106.125-.053.144.267.116.542.223.791.42.187.152.32-.17.48-.107.089.036.018.304.089.366.168.152.373-.044.471-.232.169-.331.062-.688-.009-1.027-.035-.161-.249-.197-.187-.402.018.081-.035.125-.088.179-.109-.216-.02-.609-.393-.502zM44.848 93.295c-.062-.16-.213-.232-.338-.16-.088.044-.151.143-.08.232.258.375.293.491.4.643.089.143.222.214.4.241-.098-.116.071-.241 0-.349-.133-.223-.168-.492-.382-.652v.045zM46.013 94.422c-.151.027-.311-.063-.427.053-.018.018-.018.099 0 .107.329.125.329.259.498.116.08-.062.187-.089.267-.152.018-.009.009-.071.009-.071-.117-.036-.223-.08-.347-.053zM47.87 94.6c.142-.062-.729.742-.329.313-.053.053.151.25.169.187.062-.161.285-.295.196-.5-.001-.009-.028-.009-.036 0zM48.172 92.992c0 .08-.098.331-.071.411 0 .009.142-.152.15-.161.027-.089.019-.197-.079-.25zM48.438 94.1c-.062 0-.044-.179-.088-.143-.018.009-.018.098 0 .107.107.044.213-.027.293-.125-.036 0-.16.161-.205.161zM49.256 93.537c-.169-.018-.213.125-.294.242-.071.116-.009.206.089.277.071.054.205-.009.284.027.213.116.044.331.196.438.133.09.329.062.497.09.187.035.213.375.427.304.08-.019.071-.179.044-.277 0-.009-.071.009-.071 0-.026-.134.036-.286-.026-.375-.161-.196-.329-.384-.551-.527a1.311 1.311 0 0 0-.595-.199zM50.074 95.155c-.231.098-.302.357-.391.562-.275.617-.355.232-.453.152-.178-.143-.151-.411-.338-.562-.116-.089-.257.08-.355.143-.32.214-.64.339-.959.545-.062.035-.125.125-.151.135-.533.205-.969.562-1.493.795-.169.072-.391.16-.462.33-.053.135.071.322.009.465-.027.055-.009.152-.072.17-.231.072-.222.277-.284.447-.035.098-.089.223.036.277.222.107.479.09.729.053.346-.045.586-.365.941-.303.107.018.187.17.285.25.311.258.355.902.844.84.134-.018.16-.188.267-.25.506-.287.951-.59 1.449-.902.267-.17.453-.422.515-.76.08-.367.062-.732.044-1.072-.019-.431-.055-.887-.161-1.315zM47.568 99.793c-.071.035-.178 0-.249.018-.009.008-.009.053-.009.08.054 0 .054.053.116.107.178.16.516.08.302-.223-.019-.027-.098-.019-.16.018zM50.509 99.631c-.311.225-.667.332-1.031.465-.062.018-.177.107-.177.232.364 0 .604-.285 1.12-.447.089-.035.124-.143.133-.25h-.088.043zM51.584 98.934c0 .037.018.072 0 .082-.019.018-.071.008-.071.008-.071.35-.347.482-.258.357-.106.145.24.305.311.152.081-.17.089-.393.099-.6.009-.025-.044-.062-.071-.035-.018.018-.009.055-.009.082l-.001-.046z" fill-rule="evenodd" clip-rule="evenodd"/><path d="M91.354 84.145l-19.535.247c-4.387.055-10.394 2.65-12.195 7.751l-4.211 11.922 28.968.053 3.833-11.073-11.954-.027 5.871 1.476-1.868 4.562-16.145-.268 2.002-5.635c1.156-2.817 3.426-3.637 5.47-3.623h17.879l1.885-5.385zM86.634 103.979l3.679-10.853c2.266-6.682 7.887-8.725 12.754-8.755l19.5-.124-3.434 10.112c-1.379 4.057-6.523 9.788-13.613 9.743l-18.886-.123zm8.653-4.911l10.148-.023c3.814-.035 5.539-1.848 6.461-3.823l2.086-5.919-10.738.031c-1.799.005-4.311.053-6.064 4.038l-1.893 5.696zM117.674 104.088l3.68-10.853c2.266-6.682 7.887-8.725 12.754-8.755l19.5-.124-3.434 10.112c-1.379 4.057-6.523 9.788-13.613 9.743l-18.887-.123zm8.654-4.91l10.148-.023c3.814-.035 5.539-1.848 6.461-3.823l2.084-5.919-10.738.031c-1.797.005-4.309.053-6.062 4.039l-1.893 5.695zM148.834 104.043l6.695-19.578h29.16l-2.643 8.062c-1.016 3.096-6.383 6.625-9.338 6.643l-13.744.09 1.586-5.139h12.686c1.482-.147 2.674-.785 2.996-1.771l.969-2.974-17.443.05-5.021 14.529-5.903.088z" fill-rule="evenodd" clip-rule="evenodd" fill="#cc2229" stroke="#000" stroke-width=".219" stroke-miterlimit="2.613"/><path d="M58.912 109.873v-3.803h2.591c.513 0 .844.012.992.031.375.051.629.172.761.363.132.193.198.535.198 1.029 0 .471-.055.799-.164.988a.719.719 0 0 1-.31.293 1.623 1.623 0 0 1-.546.139c-.165.02-.471.029-.92.029h-1.449v.93h-1.153v.001zm1.152-1.881h1.44c.263-.002.422-.006.481-.01a.473.473 0 0 0 .156-.045c.059-.031.1-.08.122-.145s.033-.164.033-.299-.014-.234-.042-.299a.253.253 0 0 0-.146-.135c-.052-.021-.253-.033-.604-.039h-1.44v.972zM66.333 109.01h1c-.028.293-.117.506-.266.633-.129.113-.312.191-.549.234-.236.045-.591.066-1.064.066-.39 0-.688-.02-.897-.057a1.165 1.165 0 0 1-.497-.197.75.75 0 0 1-.266-.395c-.048-.164-.072-.416-.072-.758 0-.258.01-.449.027-.578.019-.129.054-.246.106-.35.107-.215.301-.355.582-.422.241-.055.613-.084 1.12-.084.447 0 .761.018.945.049.324.055.549.178.671.365.122.189.183.506.183.953l-.006.273h-2.624c0 .137.008.234.026.293a.275.275 0 0 0 .103.148c.1.074.325.111.676.111.224 0 .392-.01.503-.027s.188-.047.229-.086c.033-.033.056-.089.07-.171zm.013-.819a1.159 1.159 0 0 0-.021-.219.26.26 0 0 0-.06-.107c-.087-.09-.318-.135-.696-.135-.338 0-.562.031-.67.09s-.167.184-.174.371h1.621zM69.521 109.941v.236h.413c.128 0 .212.021.253.064.042.045.062.131.062.262v.555c0 .146-.021.238-.062.275-.042.037-.146.057-.311.057h-.778v-.41h.477c.078 0 .128-.01.147-.027.02-.02.029-.066.029-.143v-.084c0-.074-.009-.119-.027-.137-.017-.016-.068-.023-.15-.023h-.461v-.629c-.46-.014-.789-.068-.986-.168-.183-.092-.308-.227-.373-.402s-.098-.463-.098-.865c0-.324.022-.568.068-.734a.766.766 0 0 1 .247-.391c.13-.104.301-.176.516-.215.214-.039.548-.059.999-.059.446 0 .783.02 1.01.061s.405.113.531.215a.663.663 0 0 1 .227.32c.042.127.069.316.079.572H70.31c-.012-.123-.05-.211-.113-.264-.116-.096-.354-.143-.711-.143-.294 0-.5.027-.621.082-.074.035-.126.098-.158.189s-.047.227-.047.402c0 .17.017.297.051.379a.316.316 0 0 0 .177.178c.125.057.33.084.614.084.294 0 .496-.027.605-.078.109-.053.177-.158.201-.312h1.022c-.007.283-.046.494-.116.633a.777.777 0 0 1-.334.344 1.655 1.655 0 0 1-.603.15 9.389 9.389 0 0 1-.756.026zM72.721 108.021h-1c.013-.211.057-.369.132-.477.121-.172.307-.291.559-.352.251-.061.678-.092 1.279-.092.441 0 .743.018.903.051s.298.105.411.221a.687.687 0 0 1 .182.32c.032.125.048.311.048.557v1.623h-.965v-.367h-.047a.676.676 0 0 1-.352.34 1.2 1.2 0 0 1-.358.076 8.117 8.117 0 0 1-.73.021c-.271 0-.478-.018-.624-.051a.758.758 0 0 1-.352-.178c-.13-.125-.194-.328-.194-.611 0-.312.076-.539.229-.68.122-.109.283-.18.482-.213s.567-.051 1.103-.051c.23 0 .396.014.495.041a.538.538 0 0 1 .265.172h.045v-.143c0-.213-.039-.344-.117-.398s-.269-.08-.574-.08c-.36 0-.583.014-.668.041-.083.029-.135.105-.152.23zm.671.713c-.338 0-.548.02-.629.061-.098.049-.147.123-.147.221 0 .109.048.184.145.223.096.039.279.059.548.059.351 0 .589-.021.715-.064.125-.043.188-.123.188-.242 0-.107-.055-.182-.164-.223-.05-.019-.269-.031-.656-.035zM75.583 109.016h1.022c.009.115.074.195.192.236.117.043.334.064.647.064.325 0 .547-.018.663-.053.118-.035.176-.102.176-.197 0-.094-.057-.154-.169-.188-.051-.014-.336-.023-.855-.029a9.53 9.53 0 0 1-.895-.025c-.314-.043-.526-.146-.637-.309-.084-.123-.125-.289-.125-.498 0-.396.146-.656.438-.775.22-.092.691-.139 1.416-.139.456 0 .788.018.995.053.206.033.367.1.481.195a.484.484 0 0 1 .151.215c.031.084.052.207.066.371h-1.022c-.02-.066-.042-.109-.069-.129-.083-.051-.294-.078-.632-.078-.314 0-.528.018-.645.049-.117.031-.175.088-.175.172 0 .109.08.17.241.182.125.01.582.016 1.369.021.376.002.648.066.817.191s.254.342.254.65c0 .205-.033.369-.099.498a.632.632 0 0 1-.313.285c-.236.109-.738.164-1.502.164-.49 0-.841-.02-1.053-.057a.986.986 0 0 1-.502-.225c-.151-.135-.229-.351-.235-.644zM83.614 109.01h1.001c-.028.293-.117.506-.267.633-.128.113-.312.191-.548.234-.236.045-.591.066-1.064.066-.39 0-.689-.02-.898-.057a1.166 1.166 0 0 1-.496-.197.738.738 0 0 1-.266-.395c-.049-.164-.072-.416-.072-.758 0-.258.01-.449.027-.578.019-.129.054-.246.106-.35.106-.215.3-.355.581-.422.24-.055.613-.084 1.12-.084.446 0 .761.018.945.049.325.055.548.178.67.365.122.189.183.506.183.953l-.006.273h-2.624c0 .137.008.234.027.293a.275.275 0 0 0 .103.148c.101.074.326.111.677.111.224 0 .392-.01.503-.027.112-.018.188-.047.229-.086.033-.033.056-.089.069-.171zm.014-.819a1.159 1.159 0 0 0-.021-.219.239.239 0 0 0-.06-.107c-.087-.09-.319-.135-.696-.135-.337 0-.562.031-.67.09-.109.059-.167.184-.174.371h1.621zM90.067 108.406h1.153c.006.186.01.305.01.359 0 .293-.043.521-.13.688-.096.186-.283.312-.562.379-.279.068-.761.102-1.447.102-.719 0-1.233-.016-1.539-.043-.305-.027-.537-.082-.691-.162a.736.736 0 0 1-.31-.291 1.303 1.303 0 0 1-.134-.506 11.984 11.984 0 0 1-.024-.936c0-.441.009-.758.024-.953.017-.195.049-.346.098-.453.105-.242.318-.398.64-.471.322-.07.97-.107 1.945-.107.488 0 .843.012 1.064.033.222.023.398.064.529.125a.72.72 0 0 1 .364.365c.07.16.105.396.105.709l-.003.189h-1.152a1.931 1.931 0 0 0-.023-.254.214.214 0 0 0-.062-.107c-.044-.039-.156-.066-.336-.084a8.907 8.907 0 0 0-.814-.027c-.361 0-.61.008-.748.025-.139.016-.237.045-.294.092-.068.057-.115.15-.143.283-.026.131-.04.342-.04.629s.012.492.036.609c.023.117.07.203.139.256a.652.652 0 0 0 .308.1c.142.016.392.025.75.025.441 0 .736-.008.883-.021.146-.016.246-.049.298-.1.066-.064.102-.216.106-.453zM93.417 107.104c.456 0 .797.02 1.024.055.226.037.402.102.53.193a.736.736 0 0 1 .271.379c.048.156.072.404.072.742 0 .25-.006.439-.021.562a1.43 1.43 0 0 1-.076.34c-.096.252-.291.414-.585.482-.244.059-.648.086-1.213.086-.5 0-.859-.018-1.075-.055a1.054 1.054 0 0 1-.518-.215.734.734 0 0 1-.248-.402c-.042-.166-.062-.443-.062-.836 0-.223.008-.391.026-.508a.996.996 0 0 1 .101-.318c.101-.197.273-.33.516-.4.242-.068.661-.104 1.258-.105zm.009.761c-.333 0-.557.025-.674.078a.338.338 0 0 0-.179.195 1.184 1.184 0 0 0-.053.404c0 .176.015.303.044.379s.086.133.169.172c.126.059.357.09.689.09.38 0 .623-.041.73-.121.106-.08.159-.262.159-.545 0-.178-.017-.309-.05-.391a.318.318 0 0 0-.18-.178c-.126-.055-.345-.083-.655-.083zM95.695 107.174h.945v.404h.05c.145-.316.508-.475 1.09-.475.324 0 .58.045.771.133.189.09.338.234.447.434a.81.81 0 0 1 .393-.434c.18-.088.436-.133.766-.133.277 0 .504.029.682.082.176.057.32.145.436.268a.916.916 0 0 1 .227.408c.037.15.057.402.057.75v1.262h-1.004v-1.262c0-.197-.008-.334-.021-.412a.374.374 0 0 0-.092-.188c-.1-.098-.287-.146-.564-.146-.295 0-.494.057-.596.17a.514.514 0 0 0-.119.244 2.632 2.632 0 0 0-.031.48v1.113h-1.004v-1.262c0-.209-.006-.35-.018-.418a.33.33 0 0 0-.088-.178c-.092-.1-.277-.15-.557-.15-.301 0-.506.055-.615.164a.492.492 0 0 0-.118.242 2.573 2.573 0 0 0-.033.488v1.113h-1.003v-2.697h-.001zM101.984 110.996v-3.822h.945v.365h.055a.676.676 0 0 1 .391-.342c.174-.062.455-.094.84-.094.346 0 .617.023.812.07.195.045.35.119.465.227.107.098.18.227.219.385s.059.41.059.752c0 .229-.008.406-.027.533a1.308 1.308 0 0 1-.092.352.715.715 0 0 1-.447.408c-.213.074-.557.113-1.031.113-.342 0-.592-.029-.752-.088a.752.752 0 0 1-.385-.33h-.047v1.471h-1.005zm1.928-3.131c-.42 0-.68.043-.777.129-.098.084-.146.271-.146.559 0 .154.014.271.041.35.027.08.076.139.145.178.115.068.352.104.709.104.369 0 .609-.037.719-.113a.315.315 0 0 0 .129-.189c.023-.086.035-.217.035-.398 0-.164-.014-.283-.041-.355s-.08-.129-.158-.17c-.117-.062-.334-.093-.656-.095zM107.975 107.104c.457 0 .799.02 1.025.055.225.037.402.102.529.193a.72.72 0 0 1 .271.379c.049.156.072.404.072.742 0 .25-.006.439-.021.562-.014.127-.037.24-.076.34-.096.252-.291.414-.584.482-.244.059-.648.086-1.213.086-.502 0-.859-.018-1.076-.055a1.058 1.058 0 0 1-.518-.215.734.734 0 0 1-.248-.402c-.043-.166-.062-.443-.062-.836 0-.223.008-.391.027-.508a.995.995 0 0 1 .1-.318c.102-.197.273-.33.516-.4.242-.068.662-.104 1.258-.105zm.009.761c-.334 0-.559.025-.674.078-.086.039-.145.104-.18.195s-.053.225-.053.404c0 .176.014.303.043.379s.086.133.17.172c.127.059.357.09.689.09.381 0 .623-.041.73-.121.105-.08.158-.262.158-.545 0-.178-.016-.309-.049-.391s-.094-.141-.18-.178c-.126-.055-.345-.083-.654-.083zM110.252 107.174h.945v.412h.053a.776.776 0 0 1 .396-.373c.172-.072.42-.109.742-.109s.574.027.76.078a.973.973 0 0 1 .691.682c.037.15.057.412.057.785v1.225h-1.004v-1.225c0-.217-.008-.365-.023-.441a.385.385 0 0 0-.104-.197c-.098-.096-.322-.145-.672-.145s-.578.059-.691.178a.487.487 0 0 0-.119.24 3.214 3.214 0 0 0-.027.512v1.078h-1.004v-2.7zM116.867 109.01h1c-.027.293-.115.506-.266.633-.129.113-.312.191-.549.234-.236.045-.592.066-1.064.066-.389 0-.688-.02-.896-.057a1.175 1.175 0 0 1-.498-.197.755.755 0 0 1-.266-.395c-.047-.164-.072-.416-.072-.758 0-.258.01-.449.029-.578.018-.129.053-.246.105-.35.107-.215.301-.355.582-.422.24-.055.611-.084 1.119-.084.447 0 .762.018.945.049.324.055.549.178.67.365.123.189.184.506.184.953l-.006.273h-2.625c0 .137.01.234.027.293a.283.283 0 0 0 .104.148c.1.074.324.111.676.111.225 0 .391-.01.504-.027.111-.018.188-.047.229-.086.033-.033.055-.089.068-.171zm.014-.819a1.1 1.1 0 0 0-.02-.219.262.262 0 0 0-.061-.107c-.086-.09-.318-.135-.695-.135-.338 0-.562.031-.67.09-.109.059-.168.184-.176.371h1.622zM118.266 107.174h.945v.412h.053a.776.776 0 0 1 .396-.373c.172-.072.42-.109.742-.109s.574.027.76.078a.99.99 0 0 1 .453.262.93.93 0 0 1 .24.42c.035.15.055.412.055.785v1.225h-1.004v-1.225c0-.217-.006-.365-.023-.441a.37.37 0 0 0-.104-.197c-.098-.096-.322-.145-.672-.145-.348 0-.578.059-.691.178a.487.487 0 0 0-.119.24 3.214 3.214 0 0 0-.027.512v1.078h-1.004v-2.7zM122.648 106.553h1.004v.621h1.586v.723h-1.586v.785c0 .211.014.344.043.398.051.092.168.139.355.139.193 0 .314-.045.359-.135a.262.262 0 0 0 .035-.104 5.79 5.79 0 0 0 .004-.264h.918c-.004.258-.02.445-.047.561s-.078.223-.156.32a.781.781 0 0 1-.414.27c-.178.051-.438.076-.787.076-.32 0-.559-.018-.715-.053s-.283-.102-.381-.199a.649.649 0 0 1-.156-.23 1.231 1.231 0 0 1-.057-.346 8.63 8.63 0 0 1-.006-.434v-.785h-.529v-.723h.529v-.62h.001zM128.215 109.01h1c-.027.293-.115.506-.266.633-.129.113-.312.191-.549.234-.236.045-.592.066-1.064.066-.389 0-.688-.02-.896-.057a1.175 1.175 0 0 1-.498-.197.755.755 0 0 1-.266-.395c-.047-.164-.07-.416-.07-.758 0-.258.01-.449.027-.578s.053-.246.105-.35c.107-.215.301-.355.582-.422.24-.055.613-.084 1.119-.084.447 0 .762.018.945.049.324.055.549.178.67.365.123.189.184.506.184.953l-.006.273h-2.625c0 .137.01.234.027.293a.283.283 0 0 0 .104.148c.1.074.324.111.676.111.225 0 .391-.01.504-.027.111-.018.188-.047.229-.086.033-.033.054-.089.068-.171zm.014-.819a1.1 1.1 0 0 0-.02-.219.262.262 0 0 0-.061-.107c-.086-.09-.318-.135-.695-.135-.338 0-.562.031-.672.09-.107.059-.166.184-.174.371h1.622zM129.527 109.016h1.023c.01.115.072.195.191.236.117.043.334.064.648.064.324 0 .545-.018.662-.053s.176-.102.176-.197c0-.094-.057-.154-.168-.188-.053-.014-.338-.023-.855-.029-.484 0-.783-.01-.895-.025-.314-.043-.527-.146-.639-.309-.082-.123-.125-.289-.125-.498 0-.396.146-.656.438-.775.221-.092.693-.139 1.418-.139.455 0 .787.018.994.053.207.033.367.1.48.195a.503.503 0 0 1 .152.215c.029.084.053.207.064.371h-1.021c-.02-.066-.043-.109-.07-.129-.082-.051-.293-.078-.631-.078-.314 0-.529.018-.645.049-.117.031-.176.088-.176.172 0 .109.08.17.242.182.125.01.582.016 1.367.021.377.002.648.066.818.191s.254.342.254.65c0 .205-.033.369-.1.498a.618.618 0 0 1-.312.285c-.236.109-.738.164-1.502.164-.49 0-.842-.02-1.053-.057a.982.982 0 0 1-.502-.225c-.149-.135-.227-.351-.233-.644zM135.023 110.996v-3.822h.945v.365h.055a.676.676 0 0 1 .391-.342c.174-.062.455-.094.84-.094.346 0 .615.023.812.07.195.045.35.119.465.227.107.098.18.227.219.385s.059.41.059.752c0 .229-.01.406-.027.533a1.475 1.475 0 0 1-.092.352.715.715 0 0 1-.447.408c-.213.074-.559.113-1.033.113-.34 0-.592-.029-.75-.088s-.287-.168-.385-.33h-.047v1.471h-1.005zm1.928-3.131c-.42 0-.68.043-.777.129-.098.084-.146.271-.146.559 0 .154.014.271.041.35.027.08.076.139.143.178.117.068.354.104.711.104.367 0 .609-.037.719-.113a.315.315 0 0 0 .129-.189c.023-.086.035-.217.035-.398 0-.164-.014-.283-.041-.355s-.082-.129-.158-.17c-.117-.062-.334-.093-.656-.095zM140.209 108.021h-.998c.012-.211.055-.369.131-.477.121-.172.307-.291.559-.352s.68-.092 1.279-.092c.441 0 .742.018.904.051.16.033.297.105.41.221a.705.705 0 0 1 .182.32c.031.125.049.311.049.557v1.623h-.965v-.367h-.049a.669.669 0 0 1-.352.34 1.185 1.185 0 0 1-.357.076 8.089 8.089 0 0 1-.73.021c-.271 0-.479-.018-.625-.051a.768.768 0 0 1-.352-.178c-.129-.125-.193-.328-.193-.611 0-.312.076-.539.229-.68a.939.939 0 0 1 .484-.213c.197-.033.566-.051 1.102-.051.23 0 .396.014.494.041a.54.54 0 0 1 .266.172h.045v-.143c0-.213-.039-.344-.117-.398s-.268-.08-.572-.08c-.361 0-.584.014-.67.041-.086.029-.136.105-.154.23zm.672.713c-.338 0-.549.02-.629.061-.098.049-.146.123-.146.221 0 .109.047.184.143.223.098.039.279.059.549.059.352 0 .59-.021.715-.064.127-.043.189-.123.189-.242 0-.107-.055-.182-.164-.223-.052-.019-.27-.031-.657-.035zM143.158 107.174h.943v.406h.051c.096-.172.221-.295.379-.367s.379-.109.66-.109c.404 0 .686.08.846.24.158.16.238.443.238.852l-.006.18h-.945c0-.158-.016-.268-.049-.332-.064-.119-.225-.178-.48-.178-.238 0-.406.064-.506.195-.051.064-.084.145-.102.24s-.025.248-.025.453v1.119h-1.004v-2.699zM147.562 108.021h-.998c.012-.211.057-.369.131-.477.121-.172.307-.291.561-.352.25-.061.678-.092 1.277-.092.441 0 .742.018.904.051.16.033.297.105.41.221a.705.705 0 0 1 .182.32c.031.125.049.311.049.557v1.623h-.965v-.367h-.049a.662.662 0 0 1-.352.34 1.185 1.185 0 0 1-.357.076 8.089 8.089 0 0 1-.73.021c-.271 0-.479-.018-.625-.051a.768.768 0 0 1-.352-.178c-.129-.125-.193-.328-.193-.611 0-.312.076-.539.229-.68a.939.939 0 0 1 .484-.213c.199-.033.566-.051 1.102-.051.23 0 .396.014.494.041a.54.54 0 0 1 .266.172h.045v-.143c0-.213-.039-.344-.117-.398s-.268-.08-.572-.08c-.361 0-.584.014-.67.041-.085.029-.136.105-.154.23zm.672.713c-.338 0-.549.02-.629.061-.098.049-.146.123-.146.221 0 .109.047.184.143.223.098.039.279.059.549.059.352 0 .59-.021.715-.064.127-.043.189-.123.189-.242 0-.107-.057-.182-.164-.223-.051-.019-.27-.031-.657-.035zM151.969 106.07h2.09l1.123 2.469 1.127-2.469h2.078v3.803h-1.137l.027-2.846h-.187l-1.428 2.846h-.957l-1.426-2.846h-.201l.027 2.846h-1.136v-3.803zM160.703 107.104c.455 0 .797.02 1.025.055.225.037.402.102.529.193a.73.73 0 0 1 .271.379c.049.156.072.404.072.742 0 .25-.006.439-.021.562a1.43 1.43 0 0 1-.076.34c-.096.252-.289.414-.584.482-.244.059-.648.086-1.213.086-.502 0-.859-.018-1.076-.055a1.058 1.058 0 0 1-.518-.215.734.734 0 0 1-.248-.402c-.043-.166-.062-.443-.062-.836 0-.223.008-.391.025-.508a.997.997 0 0 1 .102-.318c.102-.197.273-.33.516-.4.243-.068.66-.104 1.258-.105zm.008.761c-.332 0-.557.025-.672.078-.086.039-.145.104-.18.195s-.053.225-.053.404c0 .176.014.303.043.379s.086.133.17.172c.127.059.357.09.689.09.381 0 .623-.041.73-.121.105-.08.158-.262.158-.545 0-.178-.016-.309-.049-.391s-.094-.141-.18-.178c-.127-.055-.346-.083-.656-.083zM163.336 106.553h1.004v.621h1.588v.723h-1.588v.785c0 .211.016.344.045.398.049.092.168.139.354.139.195 0 .314-.045.359-.135a.262.262 0 0 0 .035-.104 5.79 5.79 0 0 0 .004-.264h.918a2.94 2.94 0 0 1-.047.561.771.771 0 0 1-.156.32c-.1.129-.238.219-.414.27s-.438.076-.785.076c-.32 0-.561-.018-.717-.053s-.283-.102-.381-.199c-.072-.07-.123-.146-.154-.23s-.051-.199-.059-.346a8.63 8.63 0 0 1-.006-.434v-.785h-.529v-.723h.529v-.62zM168.191 107.104c.455 0 .797.02 1.023.055.227.037.404.102.531.193a.73.73 0 0 1 .271.379c.049.156.072.404.072.742 0 .25-.008.439-.021.562a1.43 1.43 0 0 1-.076.34c-.096.252-.291.414-.584.482-.244.059-.648.086-1.215.086-.5 0-.857-.018-1.074-.055a1.066 1.066 0 0 1-.52-.215.758.758 0 0 1-.248-.402c-.041-.166-.061-.443-.061-.836 0-.223.008-.391.025-.508a.997.997 0 0 1 .102-.318c.102-.197.273-.33.516-.4.244-.068.662-.104 1.259-.105zm.008.761c-.332 0-.557.025-.674.078a.343.343 0 0 0-.18.195 1.237 1.237 0 0 0-.053.404c0 .176.016.303.045.379s.086.133.17.172c.127.059.355.09.689.09.381 0 .623-.041.73-.121.105-.08.158-.262.158-.545 0-.178-.018-.309-.051-.391s-.092-.141-.18-.178c-.124-.055-.343-.083-.654-.083zM170.469 107.174h.945v.406h.049c.096-.172.221-.295.379-.367s.379-.109.662-.109c.402 0 .686.08.844.24s.238.443.238.852l-.004.18h-.947c0-.158-.016-.268-.049-.332-.064-.119-.225-.178-.479-.178-.238 0-.408.064-.508.195-.051.064-.084.145-.102.24s-.025.248-.025.453v1.119h-1.004v-2.699h.001zM176.434 109.01h1.002c-.029.293-.117.506-.268.633-.129.113-.311.191-.547.234-.238.045-.592.066-1.064.066-.391 0-.689-.02-.898-.057a1.156 1.156 0 0 1-.496-.197.744.744 0 0 1-.266-.395c-.049-.164-.072-.416-.072-.758 0-.258.01-.449.027-.578.02-.129.055-.246.105-.35.107-.215.301-.355.582-.422.24-.055.613-.084 1.119-.084.447 0 .762.018.945.049.324.055.549.178.672.365.121.189.182.506.182.953l-.006.273h-2.623c0 .137.008.234.025.293a.283.283 0 0 0 .104.148c.1.074.326.111.676.111.225 0 .393-.01.504-.027s.188-.047.229-.086a.307.307 0 0 0 .068-.171zm.015-.819c-.004-.105-.012-.18-.021-.219s-.029-.076-.059-.107c-.088-.09-.32-.135-.697-.135-.338 0-.561.031-.67.09s-.166.184-.174.371h1.621zM177.748 109.016h1.021c.01.115.074.195.193.236.115.043.332.064.646.064.324 0 .547-.018.664-.053s.176-.102.176-.197c0-.094-.057-.154-.17-.188-.051-.014-.336-.023-.855-.029-.484 0-.781-.01-.895-.025-.314-.043-.527-.146-.637-.309-.084-.123-.125-.289-.125-.498 0-.396.145-.656.438-.775.219-.092.691-.139 1.416-.139.455 0 .787.018.994.053a.99.99 0 0 1 .482.195.52.52 0 0 1 .152.215c.029.084.051.207.064.371h-1.023c-.018-.066-.041-.109-.068-.129-.084-.051-.293-.078-.633-.078-.312 0-.527.018-.645.049-.115.031-.174.088-.174.172 0 .109.08.17.24.182.127.01.582.016 1.369.021.377.002.648.066.816.191.17.125.254.342.254.65a1.1 1.1 0 0 1-.098.498.63.63 0 0 1-.314.285c-.236.109-.736.164-1.502.164-.488 0-.84-.02-1.053-.057a.99.99 0 0 1-.502-.225c-.147-.135-.225-.351-.231-.644z" fill-rule="evenodd" clip-rule="evenodd"/></svg>