<svg xmlns="http://www.w3.org/2000/svg" width="2500" height="2500" viewBox="0 0 192.756 192.756"><g fill-rule="evenodd" clip-rule="evenodd"><path fill="#fff" d="M0 0h192.756v192.756H0V0z"/><path d="M29.228 72.036c5.343-9.16 10.491-16.861 16.111-25.854 4.496-7.119 13.489-8.243 17.985-15.362 1.874-2.997 1.499-8.617 6.37-8.993 3.373-.375 6.37.375 9.368 1.874 3.746 1.499 7.868 3.372 11.99 4.122 13.489 1.124 26.977.75 38.967 9.367 1.498.75 2.998 1.124 4.496 1.499 10.117 1.499 19.857-2.248 29.6.75 2.248.375 3.746 2.248 3.746 3.747.377 6.744-6.742 11.24-11.24 15.736-2.248 1.873-5.244 1.499-7.492 2.998-1.5 1.124-.75 2.998-.375 4.122 2.998 4.871 5.244 9.742 7.119 14.987 1.873 5.995 5.246 11.241 5.621 17.235.373 5.245.748 10.866-.75 16.111-.75 3.372-3.373 5.995-4.123 9.367-1.123 2.623-2.623 5.246-4.496 7.868-2.623 3.373-4.871 6.37-8.242 8.993-10.117 7.493-19.109 14.612-29.975 19.108-20.234 8.618-41.965 7.868-63.697 11.24-4.122.375-7.868-.749-10.866-3.372-2.248-2.622-3.747-5.995-4.871-9.366-.749-2.249 0-4.871-.375-7.119-.375-2.623 0-5.246.749-7.494.75-1.873 2.249-3.747 3.373-5.62 1.499-2.248 2.998-.375 4.122 1.124 2.248 3.372 1.124 8.243 4.496 9.742 2.623 1.498 6.37 1.498 8.618.374s1.124-4.496 2.248-6.744c.75-1.498 1.874-2.997 2.248-4.871 1.124.375 2.998 2.248 2.998 1.124.375-2.248-.749-4.87-2.623-6.369-2.249 3.372-3.747 7.493-6.745 10.49-4.496-2.997-3.372-8.991-4.496-13.488-3.747-2.248-8.617-4.495-13.114-2.623-1.873.75-1.873 3.747-3.372 5.995-.375.75-1.124 1.874-1.873 1.499-5.995-4.871-3.747-13.489-1.873-19.858 0-.749 0-1.873-.375-2.622-.375-2.248.75-4.122.75-6.37.375-3.372-2.624-5.995-3.373-9.367-1.124-3.372-1.124-6.37-.749-9.742.746-4.871 1.496-9.742 4.12-14.238z"/><path d="M58.078 40.562c3.09-1.717 5.621-3.372 7.868-5.62 2.249-2.623 1.124-6.745 3.747-8.618 1.499-1.124 3.747-.375 5.995.375 3.747.75 6.37 2.997 10.116 3.747 11.241 2.998 22.856 1.124 33.721 5.246 3.748 1.873 7.119 4.122 10.867 5.995 1.873.75 3.746.75 5.619 1.124 8.994.75 17.611-2.248 26.604 0 .375.375 1.498.75 1.498 1.125-1.873 5.245-5.994 8.618-10.49 11.99-1.873 1.499-4.496 1.499-6.744 2.623-3.373 2.248-2.998 6.745-1.5 9.742 5.246 9.367 9.742 18.734 11.99 29.226 1.125 5.245 1.498 10.865-.75 16.111-3.371 8.617-7.119 17.235-14.986 23.605-12.365 8.992-23.23 18.359-38.219 22.105-17.61 4.497-34.47 5.246-52.081 7.494-2.623.375-5.246.375-7.493-1.124-3.372-2.248-5.621-6.37-5.621-10.491 7.494 4.121 16.486 2.998 24.729 1.124 1.874-.375 4.121-1.499 4.121-3.372.75-6.37.75-12.364-1.124-18.734-.749-2.997-2.623-5.245-3.372-8.617-.749-3.373-4.122-4.872-7.119-6.37-5.995-2.248-12.365-2.248-18.36-4.496-1.499-.749-4.122-1.499-4.497-3.372-.375-3.372 1.874-6.744 0-9.742-5.62-8.992-4.496-19.858 1.125-28.851 5.62-8.618 9.742-16.86 15.737-25.479 2.249-2.998 5.247-4.872 8.619-6.746z" fill="#cd7b34"/><path d="M94.422 78.781c5.926-1.185 11.99-2.998 14.238-8.618.75-2.998-.75-5.995-3.746-6.744h-2.998c-4.121.375-8.618-2.624-12.365.749-3.372 3.372-7.493 7.119-5.995 11.99 1.124 4.495 7.12 3.372 10.866 2.623z"/><path d="M90.301 76.906c6.099 0 13.113-1.873 15.736-7.493.375-1.499-.375-2.998-1.498-2.998-3.748 0-7.494-2.248-10.867-1.124-3.746 1.124-8.617 5.245-7.493 10.116.375 1.499 2.623 1.499 4.122 1.499z" fill="#fff"/><path d="M96.295 72.41c-1.066.356-2.623 1.125-3.372 0-.75-1.499.749-2.623 1.873-2.997 1.125-.75 2.999-.375 4.122.375.75 1.499-1.498 2.248-2.623 2.622z"/><path d="M29.977 119.621c.232-1.162.885-2.699.885-3.823 7.219 5.513 14.852 4.946 22.346 7.57 2.623 1.124 5.679 1.225 6.021 5.219.204 2.384-3.59 6.953-5.245 10.545-1.697 1.015-2.65-11.268-2.65-11.268-2.292-3.271-9.829-3.586-10.116-3.619-7.074-.834-8.124 1.331-8.124 1.331 0 1.185-.854 4.989-2.167 5.251-.657-.394-1.331-3.536-1.325-5.211.012-3.189 0-4.122.375-5.995zM37.47 144.35c.502-1.254 1.857-4.006 2.645-4.334 3.15 2.888 1.04 8.518 4.792 10.895 1.969 1.247 4.327 1.162 8.86 1.313 3.938.131 3.788-.967 4.857-2.035.262-.262.394-2.494 1.327-5.839.285-1.021 1.232-3.219 1.692-2.956 3.069 1.755.919 6.433 2.1 10.633-5.315 2.494-12.272 1.641-12.798 1.706-3.555.444-9.713-.722-10.173-1.64-.722-1.444-3.807-1.183-4.003-1.247-.475-.158-.048-4.622.701-6.496z" fill="#fff"/><path d="M50.209 89.646c4.172.38 7.868-.75 10.865-3.747.375 0 1.874-.375 2.249.375.375 1.124-.749 2.248-1.498 3.372-.75 1.874 1.498 1.874 2.622 1.499 1.874-1.124 3.747-2.623 5.621-3.373 1.124-.375 2.248 0 2.998 1.124.75 1.874-.75 3.373-2.248 4.122-5.246 2.623-11.615 2.249-16.861 4.871-3.372 1.874-2.998 6.37-4.871 9.368-1.124 1.873-2.998 2.248-4.871 1.873-.749-.375-1.499-1.499-1.873-2.248-1.499-4.496 0-9.367-1.124-13.864-6.37-5.995-3.747-16.486 1.873-21.357 3.373-2.998 8.243-3.747 10.491-7.868.75-2.249-2.248-2.998-4.121-3.372-.75-.376-1.499-.75-1.874-1.499-.375-1.499.375-2.997 1.874-3.747 3.747-1.125 8.617-1.125 10.116 2.623 2.249 5.246-2.623 9.367-6.744 11.99-4.496 3.373-11.241 5.995-10.866 12.365 0 3.746 4.121 7.118 8.242 7.493zM91.05 46.557c7.485.357 14.612 1.499 21.356 5.246 4.123 2.248 8.619.375 12.365 2.998 1.125 1.124 0 2.623-1.123 2.623-2.248 0-4.123.375-6.371-.375-15.361-4.871-31.098-6.37-47.209-7.493-1.874 0-4.122-1.874-2.623-2.623 7.868-2.249 15.737-.75 23.605-.376zM92.924 37.19c7.473 1.602 13.863 4.122 20.607 7.119 7.119 3.372 14.986 1.124 22.855 2.623 7.119 1.124 13.863-1.874 20.982-1.124.375 0 .75.749 1.125 1.124-.75.375-1.5 1.124-2.623 1.124-4.496.75-8.244 2.249-12.365 2.623-9.742 1.124-19.109 1.124-28.477-1.873-4.871-1.874-9.74-4.122-14.986-5.62-7.869-1.874-15.737-1.499-23.605-2.623-.75-.375-1.874-.749-2.248-1.124-.75-1.874 1.873-2.623 2.997-2.997 5.246-.376 10.492-.376 15.738.748zM77.561 103.509c3.747 0 7.119-2.622 10.866-2.622.75 0 .75 1.124.75 1.873-.375 1.124-1.499 1.874-2.248 2.248-3.372 1.499-7.494.75-10.866 2.249-2.623 1.498-4.496 4.87-7.493 5.994-1.125.375-2.998 0-2.998-1.124-.75-5.995 6.744-8.618 11.989-8.618zM88.053 88.896c4.833.967 8.243-3.372 12.365-5.245 1.498-.375 2.996-.75 3.746.749.75 2.998-1.125 5.995-3.746 7.493-6.371 2.624-13.864 4.122-20.234.75-1.873-1.124.75-2.998 2.248-3.747 1.874-.749 3.747-.374 5.621 0z"/><path d="M110.158 88.147c-.064-1.872.375-3.747.75-5.246.75-1.499 3.373-2.623 3.748-1.124 1.873 6.37-1.873 12.365-4.123 18.36a11.387 11.387 0 0 1-2.996 2.997c-5.621 2.997-11.242 5.995-15.363 10.491-5.62 5.995-5.62 14.612-10.491 20.982-1.499 2.248-4.122 1.873-6.37.375-3.372-2.249-6.744-4.497-9.742-7.119-.375-.375-1.125-1.125-.75-1.874.75-.749 1.873 0 2.623.375 4.497 1.499 9.742 6.369 13.489.749 4.497-6.37 3.747-14.612 10.492-19.483 7.868-5.244 19.108-8.617 18.733-19.483zM134.889 75.783c-1.277-2.552-1.873-4.871-2.248-7.494-.375-1.124-1.5-1.874-2.248-2.623v-1.874c3.371 0 8.242-.375 9.367 2.623 1.498 5.246-.375 10.866 0 16.486.748 6.745 3.371 13.114 4.871 19.858 1.498 5.246.748 10.116-.375 15.362-2.248 7.494-6.744 13.863-13.115 18.359-5.994 4.122-9.74 9.742-15.361 14.238-1.498.749-2.623 1.873-4.496 1.873-1.498-.374-2.248-1.873-1.498-2.997 11.24-12.364 25.852-22.481 28.85-39.717.75-3.747 1.125-7.493 0-11.615-1.498-5.995-.75-11.615-2.248-17.61-.376-1.871-.751-3.371-1.499-4.869z"/><path d="M129.268 89.271c0-2.997.375-5.995-1.123-8.618-1.5-2.248-3.373-.375-3.748 1.124-2.996 8.618-1.123 17.985-7.867 24.729-5.621 5.995-11.615 10.116-16.486 16.486-4.122 5.245-9.742 9.741-8.243 16.486.375 2.248 4.496 1.873 5.995 0 1.498-2.998 1.498-6.745 3.371-9.742 1.873-2.248 3.748-3.372 5.996-5.245 4.496-3.373 10.115-4.122 13.488-8.993 5.245-8.241 8.617-16.859 8.617-26.227z"/><path d="M125.896 114.375c1.914-3.35 1.498-8.243 5.244-10.116 0 0 .752.375.752.749.373 5.245-1.125 10.117-4.123 14.238-9.742 13.863-22.48 21.732-34.471 32.973-1.124 1.498-1.873 2.997-3.372 4.121-.375.374-1.874.749-1.499 0 0-1.499.375-2.997 1.124-4.121 3.373-4.871 8.619-6.745 11.99-11.24 2.623-3.747 5.246-6.745 8.617-9.742 4.123-3.372 7.869-6.369 11.242-10.117 1.498-2.249 2.996-4.122 4.496-6.745zM150.25 86.648c2.789 5.578 3.373 11.24 4.496 17.235.375 2.623-1.123 4.496-1.498 6.744 0 .375.375.75.375 1.125-.375 1.123-1.873 2.622-2.248 1.873-1.5-6.369 1.123-13.114-.75-19.483-1.125-2.998-3.746-5.621-4.871-8.618-.748-1.124-1.873-3.372-.748-3.747 2.621-.374 4.121 2.623 5.244 4.871zM66.695 158.963c.763-.347 1.499-.749 1.874-1.499 1.874-3.372 4.121-6.369 7.493-8.617.375 0 .75 0 .75.374 0 5.246-4.496 8.993-7.119 13.113-4.871.75-9.742 3.748-14.987 1.874-.749-.374-.374-1.498-1.124-1.874 4.496-1.123 8.992-1.498 13.113-3.371z"/></g></svg>