<svg xmlns="http://www.w3.org/2000/svg" width="2500" height="2500" viewBox="0 0 192.756 192.756"><path fill-rule="evenodd" clip-rule="evenodd" fill="#fff" d="M0 0h192.756v192.756H0V0z"/><path d="M2.834 142.285h187.072v3.469H2.834v-3.469zm5.069-62.448v13.865H36.18V79.837h4.886v13.865h7.332l11.961-46.699h7.004l12.196 46.699h7.331V79.803h38.797c4.016.209 6.686 2.507 7.971 5.437V79.598h29.757l.176.019c9.799 1.065 16.383 5.898 19.67 11.946a20.16 20.16 0 0 1 1.773 4.441V80.278h4.887v41.869h-4.887v-16.02a19.68 19.68 0 0 1-1.822 4.49c-3.293 5.904-9.83 10.561-19.637 11.529h-31.939c-7.25-.711-14.406-2.42-21.342-5.729-6.434-3.07-12.646-7.508-18.519-13.791v19.52h-9.821l-6.153-23.561H52.188l-6.034 23.561h-5.041l6.035-23.561h-6.081v23.561H36.18v-23.56H7.903v23.561H3.018v-42.31h4.885zm45.536 13.865h21.087L63.88 52.936 53.439 93.702zm33.451 28.071V98.586h-6.055l6.055 23.187zm46.768-28.379c-1.289 2.884-3.961 5.088-8.037 5.192H94.682c5.623 6.182 11.564 10.49 17.713 13.424 6.848 3.268 13.994 4.84 21.264 5.402V93.394h-.001zm4.885-8.91v32.797h24.736c7.926-.83 13.129-4.459 15.678-9.031a14.698 14.698 0 0 0 1.861-7.148 15.028 15.028 0 0 0-1.83-7.21c-2.562-4.713-7.818-8.501-15.746-9.407h-24.699v-.001zm-46.767 9.218h33.732c1.922-.049 3.148-1.033 3.711-2.313a5.08 5.08 0 0 0 .408-1.999 5.415 5.415 0 0 0-.389-2.073c-.572-1.407-1.844-2.526-3.799-2.628H91.776v9.013z"/></svg>