<svg xmlns="http://www.w3.org/2000/svg" width="2500" height="2500" viewBox="0 0 192.756 192.756"><g fill-rule="evenodd" clip-rule="evenodd"><path fill="#fff" d="M0 0h192.756v192.756H0V0z"/><path d="M183.578 97.643c0 17.554-38.438 31.801-85.797 31.801-47.358 0-85.796-14.247-85.796-31.801 0-17.556 38.438-31.801 85.796-31.801 47.36-.001 85.797 14.245 85.797 31.801z"/><path d="M187.734 96.635c0 16.069-38.439 29.11-85.797 29.11s-85.796-13.041-85.796-29.11 38.438-29.109 85.796-29.109c47.358-.001 85.797 13.04 85.797 29.109z" fill="#fff"/><path d="M128.393 79.491c0 9.804-7.947 17.751-17.75 17.751-9.805 0-17.754-7.947-17.754-17.751 0-7.195 4.283-13.391 10.438-16.178h14.635c6.151 2.787 10.431 8.983 10.431 16.178z" fill="#fff"/><path d="M92.093 114.212c-1.627 0-3.083-.701-4.023-1.66l.89-.993c.907.873 1.952 1.438 3.185 1.438 1.593 0 2.585-.788 2.585-2.056 0-1.112-.667-1.746-2.859-2.533-2.585-.926-3.459-1.766-3.459-3.495 0-1.916 1.507-3.063 3.749-3.063 1.61 0 2.638.479 3.647 1.283l-.856 1.046c-.874-.721-1.677-1.112-2.875-1.112-1.646 0-2.33.82-2.33 1.763 0 .993.445 1.558 2.842 2.414 2.655.959 3.476 1.85 3.476 3.629 0 1.884-1.472 3.339-3.972 3.339zM102.623 109.265v4.758h-1.336v-4.741l-4.109-7.243h1.525l1.916 3.442c.48.873 1.01 1.866 1.354 2.566.342-.7.873-1.71 1.352-2.566l1.92-3.442h1.488l-4.11 7.226zM111.816 114.212c-1.625 0-3.082-.701-4.023-1.66l.891-.993c.906.873 1.951 1.438 3.184 1.438 1.594 0 2.586-.788 2.586-2.056 0-1.112-.666-1.746-2.859-2.533-2.586-.926-3.459-1.766-3.459-3.495 0-1.916 1.508-3.063 3.75-3.063 1.609 0 2.639.479 3.648 1.283l-.857 1.046c-.873-.721-1.678-1.112-2.875-1.112-1.645 0-2.33.82-2.33 1.763 0 .993.445 1.558 2.844 2.414 2.652.959 3.475 1.85 3.475 3.629-.002 1.884-1.475 3.339-3.975 3.339zM122.33 103.253v10.769h-1.336v-10.769h-3.527v-1.215h8.39v1.215h-3.527zM128.271 114.022v-11.984h7.243v1.215h-5.907v3.768h3.424v1.215h-3.424v4.572h6.163v1.214h-7.499zM147.379 114.022v-9.398c-.119.461-.461 1.352-.719 1.984l-3.201 7.723-3.15-7.723c-.258-.616-.582-1.523-.703-1.984v9.398h-1.283v-11.984h1.488l2.826 7.174c.291.72.719 1.833.855 2.33.154-.515.584-1.627.857-2.33l2.859-7.174h1.455v11.984h-1.284z" fill="#929496"/><path d="M44.572 102.035v-4.741h-3.745v4.741h-3.401V90.011h3.401v4.381h3.745v-4.381h3.402v12.024h-3.402zM55.582 102.225c-3.022 0-5.239-1.511-5.239-5.325v-6.889h3.403V96.9c0 1.479.583 2.387 1.889 2.387 1.305 0 1.855-.908 1.855-2.387v-6.889h3.4V96.9c.001 3.814-2.286 5.325-5.308 5.325zM70.01 94.014c0 .858-.428 1.339-1.511 1.339h-1.958v-2.628h2.011c1.047 0 1.458.533 1.458 1.289zm3.556 8.021l-2.403-4.586c1.323-.602 2.164-1.719 2.164-3.521 0-2.851-1.872-3.917-4.689-3.917H63.26v12.024h3.281V97.98h1.341l1.958 4.055h3.726zM82.31 94.014c0 .858-.43 1.339-1.511 1.339h-1.958v-2.628h2.009c1.049 0 1.46.533 1.46 1.289zm3.556 8.021l-2.405-4.586c1.322-.602 2.164-1.719 2.164-3.521 0-2.851-1.872-3.917-4.689-3.917H75.56v12.024h3.281V97.98h1.339l1.958 4.055h3.728zM87.944 90.011h3.4v12.024h-3.4V90.011zM103.521 93.476l-2.73 1.07c-.215-.558-.424-1.014-.717-1.331-.295-.314-.672-.491-1.223-.491-.506 0-.908.185-1.213.51-.268.286-.463.679-.592 1.153-.128.475-.189 1.029-.189 1.634 0 1.84.585 3.3 2.027 3.3 1.049 0 1.496-.566 2.148-1.699l2.816 1.494c-.807 1.58-2.148 3.108-4.998 3.108-3.572 0-5.48-2.645-5.48-6.203 0-.824.103-1.58.298-2.258a5.915 5.915 0 0 1 .842-1.794 4.914 4.914 0 0 1 2.145-1.726c.477-.199 1.004-.279 1.547-.386.432-.085.543-.405.76-.663.215-.256.688-.256 1.072.129.387.386.859 1.03 1.332 1.631.473.603 1.17 1.543 1.59 1.848.394.286 1.03.491.565.674zM113.006 90.441c-.215.386-1.203.644-1.633.814-.43.172-.859.216-.471.558.387.345.557.475 1.33.775s2.146.687 1.459 1.245c-.686.559-.859.944-.17 1.331.686.386 1.201.688 1.33 1.03.129.345.32.774.492 1.205l1.682 4.636h-3.607l-.654-2.113h-3.605l-.652 2.113h-3.574l1.205-3.322s.512-1.402.555-1.874c.045-.473.344-.814.559-1.159.215-.344-.084-.772-.859-1.547-.771-.772-.771-.986.945-1.116 1.719-.128.859-.687-.17-1.503-1.033-.814-1.547-1.289-1.762-1.847-.215-.558.301-.386 1.418-.042 1.115.344 2.646.43 3.461.386l2.721.43zm-1.049 6.836s-.24-.395-.24-.652c0-.259-.043-.687-.344-.903-.301-.214-.773-.6-1.246-.945-.473-.342-.385-.558-.127-.73.256-.17.559-.256.812-.6 0 0-.943.344-1.371.43-.43.084-.861.214-.559.601.301.386.902.816 1.203 1.117.299.3.213.558.086.772-.131.215-.164.611-.207.911h1.993v-.001zM118.742 98.213s.018-.6-.068-1.071c-.088-.475 0-.861.086-1.247.084-.387-.43-.73-1.201-1.031-.775-.3-.432-.644-.131-.902.301-.256.645-.514 1.029-.814.387-.3.473-.602-.127-.73-.602-.128-1.762-.086-2.492-.3-.73-.216-.428-.43.045-.645.473-.216.814-.3 1.889-1.074 1.072-.772 2.02-1.031 2.619-1.203 0 0 .086.129-.086.472-.172.344-.213.473.045.731.256.258.559.258 1.416.386.859.13.9.473.859 1.074-.045.601 0 .989.6 1.203.604.214 1.031.387 1.375.987.344.602.771 1.117.945 1.333.172.214.643.944.643.944 0-1.116-.344-1.761-.258-2.447.086-.688.432-1.45-.172-1.578 0 0-.514-.141-.943-.141s-.859-.042-.342-1.03c.514-.989.557-1.117.986-1.545.43-.43 1.287-.86 1.719-.902.428-.042.127.214.213.428.086.216.516-.256.645.044s.172.558.602.73.645 0 .557.428c-.086.431-.172 1.461-.086 1.934s.182 1.203.182 1.589v8.202h-2.715s-4.607-6.555-4.74-6.786c-.084.386-.084.903.043 1.245.129.345.059 1.142.059 1.484v4.057h-3.193v-3.825h-.003zM131.727 93.833c0-.986 0-3.134-.127-3.908 0 0 1.203.086 1.889.086h7.447v2.8h-5.91v1.597h3.555v2.767h-3.555v2.061h6.029v2.8h-9.328v-8.203z"/><path d="M114.379 89.28c.336.149 2.318.258 3.092.044.773-.216 1.203-.517 1.504-.988.301-.472.086-.172-.258-.086-.346.086-.988.044-.904-.386.088-.428.26-.558-.254-.3-.518.258-.68.393-1.926.779-1.244.386-1.942.637-1.254.937zM122.969 87.864c.428-.172.814 0 .771.558-.558.3-1.287.686-.771-.558z" fill="#bbbcbf"/><path d="M113.809 77.167c2.49.147 3.988-4.236 2.387-7.654-1.123-2.393-3.561-4.125-5.77-4.864-1.045-.35-1.572-.413-2.039-.68 4.955.065 10.395 3.568 10.504 9.739.092 5.249-4.809 8.225-8.156 6.609-.145 2.489 4.234 3.987 7.654 2.384 2.393-1.121 4.125-3.557 4.865-5.77.348-1.043.412-1.57.678-2.036-.064 4.954-3.568 10.394-9.738 10.503-5.25.093-8.227-4.809-6.609-8.157-2.49-.145-3.988 4.238-2.385 7.655 1.121 2.393 3.557 4.125 5.77 4.866 1.043.348 1.57.411 2.037.678-4.955-.065-10.395-3.568-10.504-9.739-.092-5.25 4.809-8.226 8.156-6.61.146-2.489-4.238-3.988-7.654-2.384-2.393 1.12-4.125 3.558-4.863 5.77-.352 1.043-.414 1.57-.68 2.036.064-4.952 3.568-10.394 9.738-10.503 5.249-.091 8.226 4.81 6.609 8.157z" fill="#bbbcbf"/></g></svg>