<svg height="958" viewBox="20.4 40 847 293.6" width="2500" xmlns="http://www.w3.org/2000/svg"><path d="m22.2 41.2c-1.8 1.8-1.7 183.3 0 184.5 1.6.9 44.8 1.8 48.3.9l2.5-.6v-35.1c0-22.2.4-35.7 1-37 1-1.8 2.3-1.9 22.1-1.9 12.6 0 21.8.4 23 1 1.8 1 1.9 2.5 1.9 36.5 0 29.6.2 35.5 1.4 36.2.8.4 11.7.6 24.3.3l22.8-.5v-185h-47l-.5 32.7c-.3 17.9-.9 33-1.3 33.5-1.1 1-45.9.4-47-.7-.5-.4-.8-14.6-.8-31.5.1-19.3-.3-31.4-.9-32.6-1-1.8-2.4-1.9-24.8-1.9-17.2 0-24.1.3-25 1.2zm205.3 43.8c-20.7 3.8-33.7 14.4-37.9 31.1-2 8-2 8.4 0 10.3 1.3 1.3 4.6 1.6 20 1.6 10.2 0 19.3-.4 20.3-1 1-.5 2.1-2.5 2.5-4.3 1.8-9.7 24.3-13 31.9-4.7 2.2 2.5 2.7 4 2.7 8.1 0 4.6-.4 5.5-3.6 8.6-4.9 4.6-8.3 5.8-22.6 8.3-33.3 5.7-45 10.7-52.4 22.2-4.6 7.2-5.9 12.5-5.9 24.3 0 10.6.1 11.2 3.4 17.3 3.8 6.9 11.4 14.4 17 16.8 5.9 2.5 20.2 5.4 27 5.4 12.1 0 24.5-4.3 33.1-11.5 3.9-3.3 4.5-3.5 5.9-2 .9.8 2 3.4 2.6 5.8l1 4.2h42l-.1-5.5c-.1-3-.4-25.8-.7-50.5-.5-53.9-1.1-58.6-8.4-68.1-4.7-6.2-11.8-9.9-28.3-14.5-6.1-1.8-10.9-2.2-26-2.5-10.2-.1-20.7.1-23.5.6zm39.3 90.1.3 10.5-4.7 4.3c-7.2 6.5-11.7 9-17.8 9.7-10.1 1.2-17.6-4.6-17.6-13.6 0-8.4 6.3-13.8 20.9-17.7 3.1-.8 7.6-2.1 10.1-2.8 8.5-2.4 8.5-2.4 8.8 9.6zm271.7-90.5c-4.9 1.3-14.5 6.7-19.3 11-6.5 5.7-8.2 5.4-8.2-1.5 0-2.7-.4-5.2-.8-5.5-.5-.3-9.8-.6-20.6-.7-15.8-.1-20 .1-20.7 1.2-.5.8-.9 31.2-.9 67.5 0 55 .2 66.3 1.4 67.3.9.8 7.8 1.1 22.7.9l21.4-.3.5-46c.5-43.7.6-46.2 2.5-49.3 4-6.7 14.6-9.3 21.2-5.2 6.1 3.7 6.3 5.1 6.4 47.9.1 21.2.4 41.7.8 45.6l.6 7h44l.3-50.5c.3-54.7 0-58.4-5.3-69-3-6-11.6-13.9-18.8-17.5-5-2.4-7.3-2.9-15.5-3.1-5.3-.2-10.6-.1-11.7.2zm112.8.4c-6.3 1.3-17.3 5.9-22.3 9.4-22.6 15.4-32.7 49.3-24.9 83.6 2.1 9.6 4 15.1 5.5 17.1.6.8 1.3 1.9 1.5 2.6s3.1 4.4 6.3 8.3c13.4 16 30.2 22.9 55.6 23 21.3 0 35.8-5.4 49.8-18.4 4.7-4.4 4.2-6.8-2-10.8-8.3-5.2-24-12.8-26.5-12.8-1.2 0-3.2 1.1-4.5 2.3-4.9 5.1-9.1 6.7-16.9 6.7-8 0-12.8-1.8-18.1-6.7-3.7-3.5-8-12.9-7.6-16.7l.3-3.1 44.5-.5c24.5-.3 44.6-.7 44.8-.8.8-.7 0-16-1.3-25.1-1.6-10.6-5.3-21.8-10.1-30.5-3-5.3-14.4-16.4-21-20.2-10.5-6.2-16.6-7.6-33.4-8-8.5-.2-17.4.1-19.7.6zm23.8 31.6c6.5 1.9 12.5 7.7 15.3 14.7 3.1 7.9 3.5 7.7-20.4 7.7-23.7 0-23.4.1-20.6-7 3.8-9.6 8.4-14.5 14.9-16 4.7-1.2 4.9-1.1 10.8.6zm107.9-29.6c-9.8 2.3-13.4 3.7-19.7 7.8-10.3 6.6-16.2 15.8-18.2 28.2-2.7 16.4 5.6 32.2 20.9 39.7 9.4 4.6 13.6 6.3 15.6 6.3 2.6 0 16.9 2.9 23.4 4.7 9.6 2.7 15.9 7.5 16 12.3.1 7.4-7.4 13-17.3 13-8.6 0-13.1-2.6-16.5-9.8l-2.7-5.7-18-.2c-21.5-.1-22.5 0-22.5 3.6 0 6.9 5.2 18 11.8 25.3 13.5 15 47.9 20.5 74.7 12.1 16.1-5.1 23.2-9.4 28.1-17.1 6.2-9.6 8.8-31.2 5.1-41-4.3-11.2-16.1-20.3-33.2-25.6-5.5-1.7-20.3-4.6-23.8-4.6-3.8-.1-12.8-3.7-15.8-6.3-5.1-4.5-3.2-10.9 4.7-15.7 6.9-4.3 17.9-.8 21 6.6.8 1.8 2.3 3.8 3.3 4.4 1.2.6 9.4 1 19.9 1 15.7 0 18.3-.2 20.1-1.8 1.9-1.5 2-2.1 1-5.7-3.1-11.1-10.4-21.1-18.5-25.3-14.1-7.3-42.4-10.3-59.4-6.2zm-463 2.8c0 1 1.3 5.6 2.9 10.2 1.6 4.7 5.7 17.3 9.1 28s8.9 27.6 12.1 37.5c3.3 9.9 6.6 20.2 7.4 23 .9 2.7 3.3 10.4 5.4 17 5.4 16.8 5.8 19.8 3 22.6-2.1 2.1-2.6 2.2-16.9 1.5-8-.4-15.4-.4-16.3 0-2.2.8-2.1 2.4.4 8.7 1.2 2.9 2.7 6.8 3.4 8.7s2.4 6.2 3.6 9.5c1.3 3.3 3 6.6 3.8 7.2 1.8 1.6 35.7 1.7 46.9.3 12-1.6 14.8-2.7 20-7.9 3.7-3.7 5.3-6.3 6.6-10.7 1.7-5.7 3.5-11.5 10.6-34.4 1.8-5.8 3.8-12.5 4.5-15 2-6.8 7.5-24.7 9.7-31.5 1.1-3.3 3.6-11.4 5.5-18s4.3-14.5 5.2-17.5c8.8-27.3 12.2-39.1 11.5-40.1-.3-.5-11.2-.9-24.3-.9h-23.8l-1.6 5.7c-.9 3.2-2.3 9.2-3.2 13.3s-2.1 9.5-2.6 12c-.6 2.5-1.5 6.7-1.9 9.5-1.7 9.5-6.9 33-7.9 35.8-.6 1.6-1.1 3.9-1.1 5.2 0 2.7-1.7 4.2-3.1 2.8-.8-.8-6-21.2-10.3-40.3-2.4-10.6-4.5-19.8-7.4-32l-2.7-11.5-24.2-.3c-22.9-.2-24.3-.1-24.3 1.6zm105.3 177.7c-1.3.9-2.4 3.1-2.8 5.7-.4 2.4-1.3 7-2 10.3s-2.1 9.6-3 14c-1 4.4-2.1 9.3-2.5 11l-.7 3-.8-4c-.4-2.2-1.4-5-2.1-6.2-1.6-2.5-7.3-5.7-12.1-6.7-3.3-.8-5-3.3-3.4-4.9 1.8-1.8 6-1 9.1 1.7 3.5 2.9 5.7 3.2 8.5 1.3 2.4-1.8 1.4-6-2.5-9.8-2.6-2.7-3.4-2.9-10.5-2.9-9.3 0-13 1.8-15.5 7.4-2 4.2-1.4 7.4 1.8 10.9 1.7 1.9 9.6 5.7 11.8 5.7.7 0 1.9 1 2.5 2.2 1 1.8.8 2.4-.7 3.5-3 2.2-7 1.6-10.1-1.7-3.8-4.1-8.9-4.2-9.9-.3-.8 3.2 1 6.8 4.9 9.7 2.3 1.7 4.3 2.1 10.6 2.1 8 0 11.9-1.5 14.9-5.7 2-2.8 3.2-2.2 3 1.4-.3 3.2-.2 3.3 3.8 3.6 5 .4 7.4-1.6 7.4-6.1.1-1.8.9-6.5 1.8-10.5 2.5-10.1 9-16.3 13.7-12.8 1.7 1.3 1.8 1.8.6 8.7-.7 4.1-1.9 10-2.7 13.2s-1.2 6.2-.9 6.7c.9 1.5 8.1 1.2 9.4-.4.7-.8 1.6-4.2 2.2-7.7.5-3.4 1.4-7 1.9-8 .6-1 1-5.2 1-9.4 0-7-.2-7.8-2.7-10.2-2.6-2.3-3.3-2.5-10-2.1-8.2.6-8.1.7-6.1-6.9 1-4.1.9-4.7-.7-5.9-2.4-1.8-4.5-1.8-7.2.1zm317.5-.8c-3.4.5-4.4 3.6-8.8 26.3-.4 2.5-1.8 8.9-2.9 14.3-1.2 5.5-1.8 10.3-1.5 10.8.8 1.4 8 1.1 9.1-.4.8-1 2.9-9.9 4.9-20.3 1-5.5 7.7-10 12.3-8.2 2.7 1 2.7 1.8-.8 17.8-1.2 5.2-1.9 10.1-1.6 10.7.2.8 2.2 1.3 4.5 1.3 3.3 0 4.2-.4 4.9-2.3 2.2-5.7 4.4-17.4 4.5-24.2s-.1-7.7-2.5-10.1c-2.7-2.6-5.5-3-14.9-2.1-2.7.2-2.7.5-1.4-8.1.5-3.2.3-4.6-.7-5.3-.8-.5-1.6-.8-1.9-.7-.3 0-1.7.3-3.2.5zm-180.9 13.3c-4.4.6-10.6 4.7-11.3 7.5-1.8 6.7 1.3 11.8 9.4 15 6.9 2.6 7.5 3 7.8 5.3.2 1.5-.4 2.2-2.7 2.7-4 .8-7.1-.2-9.4-3.1-2.9-3.7-9.7-3-9.7 1 0 2.7 3.3 8.2 5.7 9.4 3.1 1.6 9.9 2.4 14.8 1.6 9.1-1.3 14.8-9.9 11.3-17.1-1.4-3-8.1-7.3-11.4-7.3-1.1 0-2.9-.9-4-2.1-1.8-2-1.8-2.1.1-3.5 2.3-1.7 4.9-1 8.8 2.2 7.9 6.6 13.2-1.6 5.6-8.7-3.1-2.9-8.1-3.9-15-2.9zm-95.9 1.7c-8.3 5.5-11.2 10.8-11.3 20.8-.1 12.3 4.6 17 16.9 16.9 5.8-.1 7.7-.5 10.4-2.4 7.8-5.6 12.2-16.7 10-25.2-2.4-8.9-6.5-11.8-16.5-11.7-4.7 0-7.8.5-9.5 1.6zm13.4 8.4c5.5 4.3 2.3 17.5-4.8 19.9-9.5 3.1-13.9-7.6-6.9-16.8 4-5.3 7.6-6.3 11.7-3.1zm17.8-9.2c-1.1.6-1.1 3.1-.2 12.9 1.2 13.4 2.6 22.7 3.5 24.2 1 1.6 8.1 1.2 9.5-.5.7-.9 3.1-5.2 5.2-9.6s4.3-7.7 4.8-7.4c.6.3 1 4.1 1 8.4 0 4.6.5 8.2 1.2 8.9s3.1 1.2 5.4 1.2c4.7 0 2.8 2.8 15.9-22.5 3.1-6.1 6.1-11.6 6.7-12.2 1.9-2.3.1-4.3-3.9-4.3-2.1 0-4.3.4-5 .8-.6.4-3.1 4.9-5.6 10.1-2.6 5.4-4.7 8.9-5.1 8.2-.4-.6-1-4.6-1.3-8.7-.7-8.3-1.9-10.4-6.1-10.4-4 0-4.9.9-9.5 10-2.3 4.6-4.7 8.6-5.3 8.8-.8.2-1.4-2.5-1.8-7.5-1-10.9-1.2-11.3-4.9-11.3-1.8 0-3.8.4-4.5.9zm104.9.5c-1.2 1.5-1.1 2.2 2.8 23.6 1.5 8.7 1.7 11 .6 13.5-1.5 3.7-3.2 5.2-6.5 5.7-3.3.4-5.9 5-4.1 7.2 1.9 2.2 8.9 2 12.8-.4 3.4-2 5.5-5.1 11.6-16.3 9.4-17.3 11.2-20.4 12.8-23.2 6.1-10.2 6.1-11.5 0-11.5-4.7 0-6.5 2.1-12.1 13.7-1.9 4-4 7.3-4.6 7.3s-1.6-3.7-2.4-8.3c-1.9-11.8-2.3-12.7-6.4-12.7-1.8 0-3.9.6-4.5 1.4zm42.4.9c-11.5 6.5-15 25.7-6 33.5 5.5 4.9 16.5 5.3 23.1.9 1.8-1.2 4.6-4.2 6.3-6.8 2.8-4.4 3.1-5.5 3.1-12.9 0-9.1-1.6-12.7-7-15.5-4.5-2.3-14.7-1.9-19.5.8zm15.4 9.3c2.7 3.4 2.6 5.7-.4 12.2-1.6 3.5-3.3 5.5-5 6.2-6.7 2.6-10.5-.4-10.5-8.1 0-4.2.5-5.8 3.1-9 2.6-3.3 3.6-3.9 6.9-3.9 3 0 4.3.6 5.9 2.6zm19.6-9.2c-.9 1.4-2 5.1-2.5 8.3s-1.4 7.4-1.9 9.3c-.6 1.9-1.1 5.7-1.1 8.5 0 3.9.5 5.6 2.5 7.7 2.8 3.1 8.5 4.3 13.4 2.8 1.9-.5 5.2-.7 7.2-.4 6.3 1 8.7-.1 9.4-4.4.7-4.2 2.9-14.6 5.1-24 1.9-8.2 1.3-10.2-3-10.2-1.9 0-4 .8-4.9 1.8-1.4 1.5-3.5 9.3-5.4 20-.6 3.6-6.2 9.2-9.1 9.2-1 0-2.7-.6-3.7-1.4-2.1-1.5-2.3 0 2.1-18.7 2.1-9.2 1.7-10.9-3-10.9-2.7 0-4 .6-5.1 2.4zm100.9.2c-8.8 5.3-13.3 20.6-8.5 29.4 3.1 5.9 6.2 7.4 14.4 7.4 5.8 0 8-.4 10.9-2.2 6.9-4.3 10.8-11.6 10.8-20.4 0-6.2-1.9-10.7-5.9-14.1-2.9-2.4-4.1-2.7-10.4-2.7-5.9.1-8 .5-11.3 2.6zm13.7 6.5c4.7 2.5 4.7 12.9 0 18-3.8 4.2-8.3 4.8-11.5 1.6-5.1-5.1-1.8-16.7 5.6-19.6 3.1-1.3 3.6-1.3 5.9 0zm18.6-8.4c-1.2 1.1-.8 12.4.8 21.8.8 4.9 1.5 10.5 1.5 12.2 0 3.6 2.2 4.8 7.6 4.1 2.5-.3 3.4-1.4 7.2-9.1 2.3-4.8 4.6-8.7 5.1-8.7s1.2 3.7 1.6 8.2c.4 4.6 1.2 8.6 1.8 9 .7.4 2.9.8 4.9.8 3 0 4-.5 5.6-3.3 2.7-4.4 7.2-12.9 11.2-20.7 1.7-3.6 3.9-7.8 4.7-9.3 2-3.7 1-5.7-2.6-5.7-5 0-5.9.9-10.6 10.6-2.6 5.2-5.1 9.2-5.6 8.9-.5-.4-.9-3.6-.9-7.3 0-8.8-.7-11.1-3.6-11.8-5.3-1.3-7.3.2-11.5 9.1-2.2 4.7-4.4 8.7-4.9 9-1.2.7-3-5.1-3-9.6 0-6.5-1.5-8.9-5.3-8.9-1.9 0-3.7.3-4 .7z"/></svg>