<svg xmlns="http://www.w3.org/2000/svg" width="2500" height="2500" viewBox="0 0 192.756 192.756"><path fill-rule="evenodd" clip-rule="evenodd" fill="#fff" d="M0 0h192.756v192.756H0V0z"/><path d="M80.792 96.251c0-7.538 3.108-14.404 8.15-19.378a27.769 27.769 0 0 1 19.482-7.995h.08c7.486-.17 14.389 2.894 19.432 7.867 5.08 5.011 8.279 11.968 8.279 19.507 0 7.653-3.137 14.546-8.131 19.54-5.053 5.053-12.023 8.172-19.58 8.172-7.691 0-14.618-3.082-19.625-8.088-5.005-5.007-8.087-11.935-8.087-19.625zm12.815-14.636c-3.8 3.749-6.143 8.934-6.143 14.636 0 5.851 2.336 11.112 6.131 14.907 3.795 3.795 9.057 6.133 14.909 6.133 5.729 0 11.021-2.371 14.865-6.217 3.791-3.791 6.174-9.021 6.174-14.823 0-5.702-2.424-10.97-6.271-14.765-3.818-3.765-9.041-6.08-14.689-5.937h-.078c-5.849.001-11.105 2.327-14.898 6.066z" fill="#d1d4d6"/><path d="M63.864 96.251c0-12.261 5.032-23.422 13.124-31.516 8.093-8.093 19.257-13.124 31.516-13.124 12.258 0 23.422 5.03 31.516 13.124s13.123 19.257 13.123 31.516c0 12.259-5.029 23.423-13.123 31.515s-19.256 13.125-31.516 13.125c-12.262 0-23.423-5.033-31.516-13.125-8.092-8.092-13.124-19.254-13.124-31.515zm17.84-26.8c-6.886 6.887-11.167 16.38-11.167 26.8 0 10.421 4.281 19.913 11.167 26.8 6.887 6.885 16.38 11.168 26.8 11.168s19.912-4.283 26.799-11.168 11.168-16.377 11.168-26.8c0-10.422-4.281-19.915-11.168-26.8-6.885-6.886-16.377-11.167-26.799-11.167s-19.916 4.281-26.8 11.167z" fill="#d1d4d6"/><path d="M181.631 106.068h1.691c1.016 0 1.355.338 1.355 1.016s-.34 1.016-.678 1.016c.678.34.678 1.016.678 1.693H184c0-1.016-.34-1.354-1.016-1.354h-.678v1.354h-.676v-3.725h.001zm.676 1.694h.678c.676 0 1.016 0 1.016-.678 0-.338 0-.338-.678-.338h-1.016v1.016zm.677-3.047c1.693 0 3.385 1.354 3.385 3.385 0 1.693-1.691 3.047-3.385 3.047s-3.047-1.354-3.047-3.047c.001-2.032 1.354-3.385 3.047-3.385zm0 6.094c1.693 0 3.047-1.354 3.047-2.709a3.034 3.034 0 0 0-3.047-3.047c-1.354 0-2.709 1.354-2.709 3.047 0 1.355 1.356 2.709 2.709 2.709z" fill-rule="evenodd" clip-rule="evenodd"/><path d="M181.631 106.068h1.691c1.016 0 1.355.338 1.355 1.016s-.34 1.016-.678 1.016c.678.34.678 1.016.678 1.693H184c0-1.016-.34-1.354-1.016-1.354h-.678v1.354h-.676v-3.725h.001zm.676 1.694h.678c.676 0 1.016 0 1.016-.678 0 0 0-.338-.678-.338h-1.016v1.016zm.677-3.047c1.693 0 3.385 1.354 3.385 3.385 0 1.693-1.691 3.047-3.385 3.047s-3.047-1.354-3.047-3.047c.001-2.032 1.354-3.385 3.047-3.385zm0 6.094c1.693 0 3.047-1.354 3.047-2.709a3.034 3.034 0 0 0-3.047-3.047c-1.354 0-2.709 1.354-2.709 3.047 0 1.355 1.356 2.709 2.709 2.709zM8.293 76.615h7.449V89.48h13.542V76.615h7.447v33.516h-7.447V95.574H15.742v14.557H8.293V76.615zM47.904 99.637c0 4.062 2.031 6.094 5.755 6.094 2.708 0 4.739-1.693 5.417-3.047h5.755c-2.031 5.756-5.755 8.125-11.51 8.125-7.449 0-12.188-5.416-12.188-12.865 0-7.109 5.078-12.526 12.188-12.526 8.463 0 12.188 6.771 11.849 14.219H47.904zm10.833-4.063c-.677-3.386-2.37-5.417-5.417-5.417-4.402 0-5.417 3.385-5.417 5.417h10.834zM69.232 86.094h6.094v4.401h.338c1.016-3.047 4.401-5.078 7.448-5.078h1.693v6.432c-.677-.338-1.693-.338-2.37-.338-5.079 0-6.771 3.386-6.771 7.788v10.832h-6.432V86.094zM87.175 93.542c.338-6.432 5.756-8.125 11.173-8.125 4.738 0 10.494 1.016 10.494 6.771v12.527c0 2.369.338 4.4 1.016 5.416h-6.771c-.338-.676-.338-1.691-.338-2.369-2.369 2.369-5.416 3.047-8.125 3.047-4.739 0-8.463-2.369-8.463-7.109 0-5.756 4.062-6.771 8.463-7.448 4.063-.677 7.788-.677 7.788-3.386 0-2.708-2.031-3.047-4.402-3.047-2.369 0-4.062 1.016-4.401 3.724h-6.434v-.001zm15.235 4.739c-1.016 1.018-3.387 1.018-5.417 1.355-2.37.338-4.062 1.354-4.062 3.723 0 2.371 2.031 3.047 4.062 3.047 5.078 0 5.417-4.061 5.417-5.754v-2.371zM114.258 76.615h6.771v33.516h-6.771V76.615zM125.77 93.542c.338-6.432 6.094-8.125 11.51-8.125 4.74 0 10.496 1.016 10.496 6.771v12.527c0 2.369.338 4.4 1.016 5.416h-6.771c-.338-.676-.338-1.691-.678-2.369-2.029 2.369-5.076 3.047-8.125 3.047-4.4 0-8.125-2.369-8.125-7.109 0-5.756 4.062-6.771 8.125-7.448 4.062-.677 8.125-.677 8.125-3.386 0-2.708-2.029-3.047-4.4-3.047-2.709 0-4.062 1.016-4.4 3.724h-6.773v-.001zm15.572 4.739c-1.354 1.018-3.723 1.018-5.754 1.355s-3.725 1.354-3.725 3.723c0 2.371 1.693 3.047 4.062 3.047 5.078 0 5.416-4.061 5.416-5.754v-2.371h.001zM152.854 86.094h6.432v3.386c1.693-2.708 4.74-4.062 7.449-4.062 7.109 0 8.801 3.724 8.801 9.817v14.896h-6.432V96.59c0-4.063-1.354-6.094-4.4-6.094-3.387 0-5.078 2.031-5.078 7.11v12.525h-6.771V86.094h-.001z" fill-rule="evenodd" clip-rule="evenodd"/></svg>