<svg xmlns="http://www.w3.org/2000/svg" width="2500" height="2500" viewBox="0 0 192.744 192.744"><g fill-rule="evenodd" clip-rule="evenodd"><path fill="#fff" d="M0 0h192.744v192.744H0V0z"/><path d="M156.131 135.149a2.623 2.623 0 0 0-2.635 2.612 2.627 2.627 0 0 0 2.635 2.627 2.618 2.618 0 0 0 2.619-2.627 2.615 2.615 0 0 0-2.619-2.612zm0 4.924a2.304 2.304 0 1 1 0-4.609 2.301 2.301 0 0 1 2.303 2.297 2.304 2.304 0 0 1-2.303 2.312z"/><path d="M157.48 137.076c0-.246-.111-.508-.33-.631-.221-.131-.469-.144-.715-.144h-1.279v2.928h.357v-1.351h.66l.838 1.351h.428l-.887-1.351c.522-.013.928-.226.928-.802zm-1.418.512h-.549v-1.035h.838c.365 0 .764.055.764.508 0 .596-.638.527-1.053.527zM99.656 43.55l5.494-2.453-2.211-10.895a3.072 3.072 0 0 0-2.955-2.223c-1.697 0-2.951 1.372-2.951 3.063 0 .349.059.683.166.995l2.457 11.513zM83.799 38.603c.275.213.576.374.888.481L95.3 44.241l1.444-5.826-9.973-4.972a3.082 3.082 0 0 0-3.577.954c-1.043 1.333-.732 3.164.605 4.206zM81.101 52.543c.339-.084.65-.221.928-.4l10.61-5.164-3.715-4.721-10.069 4.774a3.062 3.062 0 0 0-1.449 3.397c.41 1.641 2.049 2.523 3.695 2.114zM93.555 51.07h-6.019L84.92 61.83a3.064 3.064 0 0 0 1.737 3.26c1.538.715 3.256 0 3.974-1.533.148-.315.236-.643.271-.971l2.653-11.516zM104.248 65.825c1.514-.769 2.006-2.558 1.236-4.065a3.022 3.022 0 0 0-.602-.811l-7.432-9.146-3.779 4.672 6.931 8.708a3.082 3.082 0 0 0 3.646.642zM113.033 49.844l-11.801.414 1.469 5.82 11.146-.277a3.07 3.07 0 0 0 2.709-2.517c.295-1.666-.842-3.136-2.514-3.43a3.029 3.029 0 0 0-1.009-.01zM107.285 49.059l7.25-8.445a3.059 3.059 0 0 0-.062-3.69c-1.045-1.333-2.902-1.475-4.24-.433a3.136 3.136 0 0 0-.684.742l-7.586 9.02 5.322 2.806zM41.534 100.329h4.662c2.572 0 2.894 0 3.537-3.045.643-3.045.161-3.206-1.608-3.045H40.89c-1.286-9.136 3.216-17.792 4.341-19.555C47 71.798 43.784 72.6 42.337 72.6s-3.376 1.122-5.145 4.648c-2.015 4.017-3.537 11.701-3.296 16.991h-12.46l-4.18-18.113c-.482-2.725-1.125-3.687-4.341-3.687s-3.055.32-2.412 3.206l4.341 18.594H5.199c-2.251 0-2.702 1.116-2.251 3.366.322 1.603 1.126 2.725 2.733 2.725h10.611l6.27 27.249c.804 3.688 1.769 2.726 3.537 2.886s4.02.16 3.216-2.886l-6.431-27.249h11.897c1.286 8.977 8.387 24.536 13.344 28.772 2.251 1.924 3.055 2.004 5.466 1.042 1.136-.453 2.412-.481.321-3.046-6.591-7.854-12.057-21.799-12.378-26.769zM93.267 91.667c1.883 0 3.629-.137 3.376-3.046-.195-2.244-1.493-3.046-3.376-3.046-1.884 0-3.216 1.283-3.055 3.446.14 1.874 1.171 2.646 3.055 2.646zM69.119 121.143c-2.907-.231-6.375 1.332-7.867 4.334-1.757 3.536-1.018 7.797.632 11.134 1.508 2.372 5.145 5.932 7.717 7.054 2.982 1.301 3.537-.16 4.181-.962.643-.802 1.769-2.084-.482-3.366-2.894-1.924-4.124-2.724-6.287-5.714-1.459-2.017-1.973-4.938.553-6.202 1.45-.725 3.616.241 4.77.936 8.107 4.889 12.915 16.157 10.933 23.402-.965 3.526-3.758 6.147-6.672 7.294-3.921.89-7.154.881-9.727-.401-1.237-.615-.804-1.843.402-2.484 2.525-1.343 9.771-4.657 11.977-5.129 1.447-.642 1.929-1.764 1.608-2.886-.322-1.122-1.125-3.205-4.18-2.243-3.652 1.12-8.521 3.365-15.112 6.411-4.379 2.023-4.68 6.206-1.849 8.495 8.521 6.893 25.965 4.889 29.672-5.593 4.273-12.084-6.201-32.958-20.269-34.08zM157.062 151.495c-1.768 1.603-4.699 2.937-6.752 1.362-2.09-1.603-3.48-10.07-6.938-15.265-1.758-2.638-4.955-2.991-7.611-.845-.279.226-1.287 1.523-1.609 2.646l-1.928 6.011-1.93-7.133c-.805-2.645-1.447-2.084-4.422-2.084-1.205 0-1.607 1.202-1.367 2.484.564 2.564 1.93 7.133 2.252 8.896.322 1.763.322 2.564-.375 3.764-.51.805-3.162 3.049-5.172 1.605-2.979-2.138-3.963-9.99-7.42-15.185-1.758-2.638-4.955-2.991-7.613-.844-.277.225-1.285 1.522-1.607 2.645l-1.848 5.931s-1.287-5.45-1.607-7.053c-.322-1.604-1.287-2.404-3.158-1.842-2.63.88-3.163 1.371-4.64 2.002-1.125.481-1.607 1.122-.964 2.886.453 1.242.402 2.404 2.01 1.923 1.125-.16 2.09.481 2.332 1.764l2.812 12.021c.645 2.084.965 1.763 2.092 1.763 1.125 0 2.57.562 3.215-2.725.482-2.885 1.768-8.495 2.492-10.739.727-2.253 3.055-1.924 3.777.32.576 1.786 3.939 12.663 7.717 13.625 5.064.882 7.557-1.764 9.807-4.408l.484 2.004c.643 2.084.963 1.763 2.09 1.763 1.125 0 2.572.562 3.215-2.725.482-2.885 1.768-8.495 2.492-10.739.727-2.253 3.055-1.924 3.777.32.576 1.786 2.814 11.861 6.592 12.823 4.502 1.442 8.469.906 12.219-3.206.965-.801.824-2.251.482-3.205-.403-1.121-1.126-2.162-2.896-.56z"/><path d="M189.197 115.414l-4.18-18.914c-.643-2.564-1.768-2.083-4.502-2.083-2.732 0-1.768 1.603-1.285 3.045 1.285 5.61 1.93 9.617 1.123 11.944-.963 2.03-3.916 3.85-5.986 2.201-3.154-2.321-3.699-10.258-4.662-14.586-.645-3.366-2.371-2.765-3.98-2.765-1.607 0-2.41.481-1.768 3.045 2.732 11.381 2.85 11.658.723 13.384-3.734 2.609-6.51-.561-7.154-2.164-.643-3.526-2.09-9.617-2.41-12.021-.482-2.885-2.258-3.001-3.537-2.885-.885.08-2.09.16-2.572 1.763-2.709-2.265-6.131-2.172-8.908-.48-5 3.044-5.057 8.268-4.598 14.667.16 2.243-2.738 3.212-4.443 1.774-2.836-2.312-2.814-6.233-2.951-8.267 2.25-9.457 7.004-21.89.617-29.198-2.271-2.597-7.213-1.224-9.082 1.764-3.324 5.312-2.947 11.984-.861 17.817-5.627-.161-9.646 1.843-11.334 6.331-.688 1.748-1.285 5.69-.885 8.735 0 3.526-5.385 5.13-6.592.642-1.305-4.861-2.348-8.495-3.697-13.607-.517-1.959-6.144-1.548-5.081 1.726l2.267 8.756c.804 4.168-2.945 6.847-5.627 5.771-3.909-1.118-5.064-8.095-5.868-12.583 4.823-5.449 8.729-14.992 5.678-22.979-1.026-2.688-3.773-4.213-6.764-3.191-2.637.901-4.14 3.489-4.783 5.172-2.625 6.869-1.045 15.868-.884 18.914-.402 1.442-3.216 1.763-4.476 1.261-4.42-4.629-11.554-6.415-16.138-1.614-4.547 4.761-4.199 14.229 1.296 18.951 3.673 3.157 8.346 3.47 12.703.759 4.475-2.783 4.204-8.457 4.043-12.464 1.527 0 2.733-.321 3.698-.642.768 3.806 3.909 13.158 9.485 14.266 3.215.561 6.029.642 10.048-4.568.723 1.764 1.606 3.768 4.261 4.568 3.605 1.09 6.156-1.229 8.359-4.168 3.055 4.328 7.535 5.625 12.191 3.626 1.314-.74 3.404-2.423 3.887-3.626 2.572 5.45 9.459 6.074 12.861 1.122 3.014 2.63 6.207 4.089 10.264 3.101 2.535-.618 3.885-2.619 5.33-4.863 1.072 1.925 2.75 3.765 4.824 4.488 4.596 1.604 7.877-1.122 9.807-4.328 1.57 3.551 5.924 5.666 9.602 4.648 2.359-.652 3.984-2.484 5.592-4.648 1.447 5.129 2.332 9.777.402 12.503-4.502 5.129-9.969 2.404-11.254.641-1.447-1.763-2.412-1.442-4.824-1.442-4.26 0-.643 5.129 1.188 6.468 8.627 5.126 21.584 1.074 21.482-9.513.181-2.719-.322-3.689-.645-6.254zm-122.286-5.088c-.965 2.564-4.508 3.188-6.271 2.164-4.369-2.541-4.501-12.263-.321-12.984.643 0 1.045-.4 1.367.321s1.929 3.847 4.501 4.487c.643.161 1.045.882 1.045 1.764 0 .802.081 2.966-.321 4.248zM81.229 77.99c.838-.77 2.051.289 2.248 1.165 1.23 5.497-.576 10.033-3.352 13.912-.562-2.484-2.089-11.22 1.104-15.077zm34.429 33.291c-3.119-2.438-3.258-7.536-1.363-10.706.803-1.344 2.607-2.039 3.785-1.857 3.783.583 4.207 4.487 4.285 7.627.084 3.411-3.345 7.563-6.707 4.936zm11.403-26.371c-.16 3.681-.277 7.427-1.811 10.905-2.064-5.146-3.76-10.396-3.016-16.001.17-1.283 1.885-1.873 2.885-1.134 1.945 1.439 2.039 3.988 1.942 6.23zm20.859 27.058c-.676.386-1.773.359-2.449-.008-3.594-1.952-3.926-5.783-3.127-9.462.826-3.811 5.064-5.385 7.402-1.852 2.574 3.889 1.608 9.352-1.826 11.322z"/></g></svg>