<svg xmlns="http://www.w3.org/2000/svg" width="2500" height="1992" viewBox="0 0 45.087 35.922"><path d="M10.943 34.907h23.183v1.015H10.943zM26.002 6.816c1.606-.723 2.455-1.522 2.455-1.522 2.651-.593 2.905-1.382 2.905-1.382l-2.228.056c-.507 0-.621-.169-.621-.169.621-.31.931-1.128.931-1.128l-2.848.395c-3.102-1.466-6.374-.536-6.374-.536-.282-.029-.141-.48-.141-.48.649.254.987.028.987.028-.367-.113-1.015-1.043-1.015-1.043-.931-1.495-2.849-.931-2.849-.931-1.918.686-1.608 1.776-1.608 1.776.08.174-.028.705-.028.705-.254.254-.437.701-.437.701-.202.066-.273.188-.273.188-.24.343.089.353.089.353.451 0 1.043-.648 1.043-.648.358-.27.592-.339.592-.339.249.202-.282.592-.282.592-1.243 1.704.126 2.975.671 3.384h-6.029v1.016h23.183V6.816h-8.123z"/><path d="M20.392 4.137s6.938.141 5.161 2.539c0 0 3.158-2.652-5.161-2.539zM19.884 3.404s2.51-.762 5.331-.339c-.001 0-3.047-1.212-5.331.339zM17.092 2.755l.057.169s.536-.141.902-.141c0 0 1.043.226 1.438-.875 0 0-.311.479-1.072.677 0 0-.338.057-.253-.31 0 0 .226-.479-.367-.536 0 .001.084.96-.705 1.016zM23.099 3.291l-.367.536.451.057s.197-.142.395-.621l-.479.028zM23.635 3.94s.254-.451.395-.592h.621s-.367.479-.479.62l-.537-.028zM24.707 4.024l.31.197s.564-.31.79-.846h-.592c-.001.001.027.396-.508.649zM25.355 4.278l.169.141s.677-.367.762-1.043l-.198-.057s-.027.677-.733.959zM16.358 1.261s1.523-1.467 3.3-.197c0-.001-1.467-1.834-3.3.197z" fill="#fff"/><path d="M17.896 1.03s-.052.118.122.104c0 0 .404.009.578.155 0 0 .658.498.987.517 0 0 .188.057.338-.009 0 0 .075-.033-.118-.089 0 0-.226-.108-.314-.254 0 0-.202-.23-.564-.343 0-.001-.945-.264-1.029-.081z" fill="#fff"/><path d="M2.041 14.538c-.314 0-.322.007-.322.222v1.105c0 .713.046.767.391.828l.246.031c.061.046.061.223 0 .269a30.022 30.022 0 0 0-2.31 0c-.061-.046-.061-.222 0-.269l.185-.023c.345-.069.391-.123.391-.836v-2.854c0-.713-.046-.767-.391-.836l-.185-.022c-.061-.046-.061-.223 0-.269.376.015.775.023 1.144.023.345 0 .729-.008 1.066-.023.062.046.062.222 0 .269l-.161.022c-.33.069-.375.123-.375.836v.89c0 .222.007.23.322.23h1.596c.322 0 .322-.008.322-.23v-.89c0-.713-.039-.767-.391-.829l-.207-.03c-.062-.046-.062-.223 0-.269.422.015.798.023 1.166.023.376 0 .729-.008 1.082-.023.061.046.061.222 0 .269l-.154.022c-.353.069-.398.123-.398.836v2.854c0 .713.046.767.398.828l.185.031c.062.046.062.223 0 .269a28.755 28.755 0 0 0-2.24 0c-.062-.046-.062-.222 0-.269l.169-.023c.353-.069.391-.123.391-.836V14.76c0-.215 0-.222-.322-.222H2.041z"/><path d="M11.043 14.415c0 1.672-1.12 2.677-2.769 2.677-1.542 0-2.662-1.012-2.662-2.616 0-1.519 1.135-2.692 2.738-2.692 1.596 0 2.693 1.074 2.693 2.631z"/><path d="M8.29 12.137c-.944 0-1.45.882-1.45 2.163 0 .936.33 2.439 1.58 2.439 1.005 0 1.396-.981 1.396-2.225 0-1.311-.575-2.377-1.526-2.377z" fill="#fff"/><path d="M11.042 12.152c-.062-.062-.062-.246.023-.269.261.015.591.023.967.023.253 0 .476 0 .751-.023 0 .476.269.943.606 1.665l.506 1.082c.077.153.307.591.415.782.1-.184.222-.422.43-.874l.391-.844c.376-.791.537-1.151.706-1.811.353.03.591.023.821.023.253 0 .606-.008.882-.023.084.046.084.191.023.269l-.222.038c-.315.062-.468.146-.468.552 0 1.581.015 2.409.061 3.375.016.353.046.529.346.575l.245.031c.062.062.062.238-.015.269a24.132 24.132 0 0 0-1.059-.023c-.345 0-.767.008-1.135.023-.092-.039-.1-.215-.023-.269l.23-.031c.353-.069.353-.138.353-.606l-.015-1.995v-.875h-.015c-.568 1.228-1.182 2.509-1.688 3.805a.247.247 0 0 1-.154.054.416.416 0 0 1-.2-.046c-.299-.951-1.212-2.815-1.642-3.813h-.015c-.031.499-.046.798-.054 1.197-.007.499-.015 1.266-.015 1.726 0 .383.046.483.353.537l.299.046c.062.054.046.23-.015.269a18.007 18.007 0 0 0-1.772 0c-.1-.031-.1-.23-.03-.269l.138-.023c.392-.077.415-.115.46-.591.039-.376.077-1.043.123-1.772.031-.514.054-1.135.054-1.549 0-.438-.168-.537-.476-.606l-.17-.029zM29.224 11.884a9.921 9.921 0 0 1-.706.023c-.229 0-.537-.008-.782-.023-.069.038-.084.199-.023.269l.168.046c.1.023.146.054.146.107 0 .084-.153.521-.207.652-.368.936-.729 1.887-1.097 2.777-.046-.107-.153-.322-.337-.751l-.361-.775a.534.534 0 0 1-.061-.192c0-.039.1-.261.168-.399.1-.199.292-.552.476-.867.269-.46.322-.491.583-.544l.215-.046c.069-.054.054-.238-.007-.276-.2.015-.483.023-.783.023-.253 0-.529-.008-.751-.023-.069.038-.077.215-.023.269l.23.054c.123.03.153.054.153.107 0 .046-.069.276-.207.567l-.069.153c-.077.169-.154.322-.23.483a9.202 9.202 0 0 1-.215-.468l-.23-.529c-.031-.084-.069-.169-.069-.23 0-.054.115-.092.207-.107l.13-.03c.054-.039.061-.246-.031-.269-.199.015-.491.023-.882.023-.337 0-.637-.008-.966-.023-.084.03-.1.207-.023.269l.077.007c.292.039.345.084.521.468l.736 1.618a.63.63 0 0 1 .046.208c0 .046-.046.214-.1.337l-.1.223a9.564 9.564 0 0 1-.368.744 22.297 22.297 0 0 1-.384-.821l-.759-1.695c-.246-.537-.399-.897-.399-.951s.054-.092.192-.115l.138-.022c.077-.046.046-.238-.016-.269a21.627 21.627 0 0 1-1.584.014l-.001-.014a1.886 1.886 0 0 1-.127.01 11.833 11.833 0 0 1-.213-.01.085.085 0 0 0-.025.017c-.184.004-.416.006-.663.006h-1.626c-.368 0-.744-.008-1.104-.023-.077.046-.084.222-.016.269l.192.038c.345.062.391.115.391.813v2.861c0 .706-.046.759-.391.805l-.361.054c-.062.039-.062.223 0 .269.575-.015.951-.023 1.319-.023h.998c.629 0 1.365.008 1.772.023.107-.207.292-.829.322-1.228-.03-.092-.222-.123-.283-.038-.422.867-.683.89-1.351.89-.56 0-.706-.061-.806-.199-.092-.13-.123-.376-.123-.729v-.913c0-.23.008-.237.215-.237h.529c.399 0 .483.061.568.43l.038.191c.054.069.246.062.284-.008-.016-.245-.023-.521-.023-.813s.008-.568.023-.813c-.039-.069-.23-.069-.284-.008l-.038.192c-.084.368-.169.422-.568.422h-.528c-.207 0-.215-.015-.215-.23v-1.343c0-.284 0-.299.253-.299h.613c.376 0 .606.092.752.237.1.107.207.338.292.606.077.069.253.054.284-.031-.021-.289-.048-.589-.068-.819.099.062.167.186.295.481l1.258 2.746c.261.575.568 1.266.69 1.588a.363.363 0 0 0 .199.062c.115 0 .215-.023.253-.062.123-.253.2-.476.322-.721l.361-.782c.1-.215.191-.399.261-.529.069.115.168.345.276.59l.322.729c.1.215.207.491.292.675a.353.353 0 0 0 .207.061c.1 0 .207-.023.253-.061.376-.998 1.235-2.908 1.619-3.805.199-.483.337-.729.422-.852.054-.069.138-.123.314-.168l.23-.054c.055-.062.048-.231-.021-.269z"/><path d="M33.616 14.415c0 1.672-1.12 2.677-2.769 2.677-1.542 0-2.662-1.012-2.662-2.616 0-1.519 1.135-2.692 2.738-2.692 1.597 0 2.693 1.074 2.693 2.631z"/><path d="M30.862 12.137c-.943 0-1.45.882-1.45 2.163 0 .936.33 2.439 1.581 2.439 1.005 0 1.396-.981 1.396-2.225 0-1.311-.576-2.377-1.527-2.377z" fill="#fff"/><path d="M39.544 14.415c0 1.672-1.12 2.677-2.77 2.677-1.542 0-2.662-1.012-2.662-2.616 0-1.519 1.135-2.692 2.739-2.692 1.596 0 2.693 1.074 2.693 2.631z"/><path d="M36.79 12.137c-.943 0-1.45.882-1.45 2.163 0 .936.33 2.439 1.581 2.439 1.005 0 1.396-.981 1.396-2.225-.001-1.311-.576-2.377-1.527-2.377z" fill="#fff"/><path d="M40.185 13.149c0-.729-.015-.875-.368-.913l-.146-.015c-.077-.039-.077-.261.015-.269a31.511 31.511 0 0 1 2.056-.069c.629 0 1.258.061 1.787.253 1.005.36 1.558 1.266 1.558 2.225 0 1.028-.491 1.856-1.373 2.294-.522.261-1.151.36-1.941.36-.36 0-.744-.046-1.02-.046-.368 0-.759.008-1.197.023-.062-.046-.062-.23 0-.269l.238-.039c.345-.061.391-.115.391-.82v-2.715z"/><path d="M41.282 15.581c0 .422.015.698.153.859.138.153.361.223.637.223 1.327 0 1.78-1.182 1.78-2.225 0-1.38-.729-2.202-2.117-2.202-.207 0-.353.039-.399.1-.046.062-.054.208-.054.445v2.8z" fill="#fff"/><path d="M12.218 24.284c-.706 0-1.143-.199-1.304-.292-.146-.169-.245-.721-.245-1.243.054-.1.23-.107.291-.023.154.499.668 1.205 1.32 1.205.568 0 .829-.391.829-.775 0-.621-.583-.989-1.043-1.22-.552-.276-1.151-.736-1.159-1.496 0-.867.668-1.465 1.78-1.465.253 0 .567.031.874.123.1.03.169.046.261.061.061.169.138.583.138 1.097-.039.092-.23.1-.299.023-.13-.391-.46-.951-1.013-.951-.506 0-.783.33-.783.713 0 .353.314.675.698.875l.506.269c.476.253 1.082.698 1.082 1.542 0 .943-.774 1.557-1.933 1.557zM21.37 23.877c-.353-.061-.399-.115-.399-.836v-2.823c0-.721.046-.775.399-.836l.214-.039c.062-.046.062-.223 0-.269a29.89 29.89 0 0 1-2.233.002l-.002-.003-.04.002-.049-.002-.003.004c-.259.012-.514.02-.767.02-.314 0-.614-.008-1.028-.023-.046.046-.062.2 0 .261l.207.039c.207.039.376.084.445.246.084.199.115.782.115 1.404v.928c0 1.051-.299 1.91-1.281 1.91-1.166 0-1.266-.99-1.266-1.887v-1.772c0-.713.046-.767.391-.836l.184-.031c.062-.046.062-.215 0-.261a25.886 25.886 0 0 1-2.24 0c-.084.046-.077.215-.016.261l.192.039c.345.062.391.115.391.829v1.918c0 .836.169 1.403.568 1.733.414.338.936.43 1.519.43.621 0 1.181-.192 1.519-.552.422-.468.491-1.128.491-1.849v-.859c0-.622.031-1.205.115-1.404.069-.161.215-.207.414-.253l.079-.018.185.033c.353.061.399.115.399.836v2.823c0 .721-.046.775-.399.836l-.215.039c-.062.046-.062.223 0 .269a30.02 30.02 0 0 1 2.317 0c.061-.046.069-.223.007-.269l-.213-.04z"/><path d="M30.441 22.919c-.422.867-.683.89-1.35.89-.56 0-.706-.062-.806-.199-.092-.131-.123-.376-.123-.729v-.913c0-.23.007-.238.215-.238h.529c.399 0 .483.062.568.43l.038.192c.054.069.245.061.284-.008-.015-.246-.023-.521-.023-.813s.008-.568.023-.813c-.039-.069-.23-.069-.284-.007l-.038.192c-.085.368-.169.422-.568.422h-.529c-.208 0-.215-.016-.215-.23V19.75c0-.284 0-.299.253-.299h.614c.376 0 .606.092.752.238.1.107.207.337.292.606.077.069.253.054.284-.03-.038-.514-.092-1.066-.1-1.189-.1.016-.537.023-1.028.023h-1.626c-.367 0-.742-.008-1.102-.023.009-.043.018-.082.028-.115a.167.167 0 0 0-.115-.054.197.197 0 0 0-.1.023c-.069.161-.391.169-.897.169h-2.854c-.583 0-.606-.031-.645-.161a.182.182 0 0 0-.214.008c-.053.299-.092.775-.253 1.304.046.1.192.115.284.069.23-.561.392-.867.951-.867h.476c.185 0 .185.039.185.223v3.383c0 .714-.046.767-.392.821l-.345.039c-.061.046-.061.223 0 .269.537-.016.936-.023 1.304-.023.345 0 .729.008 1.228.023.054-.046.054-.223 0-.269l-.307-.039c-.345-.054-.391-.107-.391-.821v-3.383c0-.2.023-.223.207-.223h.46c.575 0 .89.36 1.02.852.038.062.245.046.284-.023-.01-.283.009-.641.044-.93l.216.033c.345.061.391.115.391.813v2.861c0 .706-.046.76-.391.806l-.361.054c-.061.038-.061.223 0 .269.576-.016.951-.023 1.32-.023h.997c.629 0 1.366.008 1.772.023.107-.207.292-.829.322-1.228-.031-.094-.223-.125-.284-.04zM32.461 24.284c-.706 0-1.143-.199-1.304-.292-.146-.169-.246-.721-.246-1.243.054-.1.23-.107.292-.023.154.499.667 1.205 1.32 1.205.567 0 .828-.391.828-.775 0-.621-.583-.989-1.043-1.22-.553-.276-1.151-.736-1.158-1.496 0-.867.667-1.465 1.779-1.465.253 0 .568.031.875.123.1.03.169.046.261.061.061.169.138.583.138 1.097-.038.092-.23.1-.299.023-.131-.391-.46-.951-1.013-.951-.506 0-.783.33-.783.713 0 .353.315.675.698.875l.506.269c.476.253 1.082.698 1.082 1.542 0 .943-.775 1.557-1.933 1.557zM12.684 28.524c-.311 0-.318.007-.318.212v1.055c0 .681.046.732.387.791l.242.029c.061.044.061.212 0 .256a31.262 31.262 0 0 0-2.279 0c-.061-.044-.061-.212 0-.256l.182-.022c.341-.066.386-.117.386-.798v-2.724c0-.682-.045-.732-.386-.798l-.182-.022c-.061-.044-.061-.212 0-.256a28.59 28.59 0 0 0 2.181 0c.061.044.061.212 0 .256l-.159.022c-.325.066-.371.117-.371.798v.849c0 .212.008.22.318.22h1.575c.318 0 .318-.007.318-.22v-.849c0-.682-.038-.732-.386-.791l-.204-.029c-.061-.044-.061-.212 0-.256.416.015.787.022 1.151.022.371 0 .719-.007 1.068-.022.061.044.061.212 0 .256l-.151.022c-.349.066-.394.117-.394.798v2.724c0 .681.045.732.394.791l.182.029c.061.044.061.212 0 .256a27.899 27.899 0 0 0-2.211 0c-.061-.044-.061-.212 0-.256l.167-.022c.349-.066.386-.117.386-.798v-1.055c0-.205 0-.212-.318-.212h-1.578z"/><path d="M21.152 28.407c0 1.596-1.105 2.556-2.733 2.556-1.522 0-2.628-.967-2.628-2.497 0-1.45 1.121-2.57 2.704-2.57 1.575 0 2.657 1.025 2.657 2.511z"/><path d="M18.434 26.232c-.931 0-1.431.842-1.431 2.065 0 .893.325 2.329 1.56 2.329.992 0 1.378-.938 1.378-2.124 0-1.252-.568-2.27-1.507-2.27z" fill="#fff"/><path d="M22.794 26.562c0-.176 0-.212-.182-.212h-.47c-.553 0-.711.293-.939.827-.091.044-.234.029-.28-.066.159-.505.197-.959.25-1.245a.184.184 0 0 1 .106-.037c.038 0 .076.007.106.029.038.125.061.154.636.154h2.817c.5 0 .614-.007.682-.161.03-.015.053-.022.099-.022s.099.029.114.051c-.076.249-.129.842-.114 1.26-.038.065-.242.08-.28.021-.129-.469-.234-.812-.803-.812h-.454c-.182 0-.205.021-.205.212v3.229c0 .681.045.732.386.784l.303.037c.053.044.053.212 0 .256a39.206 39.206 0 0 0-1.211-.021c-.364 0-.757.007-1.288.021-.061-.044-.061-.212 0-.256l.341-.037c.341-.051.386-.103.386-.784v-3.228zM27.438 27.917c0 .205.008.22.212.22h.522c.394 0 .478-.051.561-.403l.038-.183c.053-.059.242-.059.28.007-.016.234-.023.498-.023.776s.007.542.023.776c-.038.065-.228.073-.28.007l-.038-.183c-.083-.352-.167-.41-.561-.41h-.522c-.204 0-.212.007-.212.227v.872c0 .337.03.571.121.696.099.132.242.19.795.19.659 0 .917-.022 1.333-.85.061-.081.25-.051.28.037-.03.381-.212.974-.318 1.171a57.329 57.329 0 0 0-1.75-.021h-.984c-.363 0-.734.007-1.303.021-.061-.044-.061-.219 0-.256l.356-.051c.341-.044.386-.095.386-.769V27.06c0-.666-.045-.718-.386-.776l-.189-.037c-.068-.044-.061-.212.015-.256.356.015.727.022 1.091.022h1.605c.484 0 .916-.007 1.015-.022.008.117.061.644.099 1.135-.03.081-.205.095-.28.029-.083-.256-.189-.476-.288-.579-.144-.139-.371-.227-.742-.227h-.605c-.25 0-.25.015-.25.285v1.283z"/><path d="M31.619 29.63c0 .344.03.579.129.696.099.125.235.183.788.183.689 0 .901-.022 1.348-.872.061-.073.234-.044.288.044-.038.381-.22.989-.326 1.186a57.302 57.302 0 0 0-1.749-.021h-1.015c-.348 0-.727.007-1.197.021-.068-.044-.083-.212-.022-.256l.288-.037c.341-.051.386-.103.386-.784v-2.724c0-.682-.045-.732-.386-.791l-.22-.029c-.076-.044-.076-.212.015-.256a29.84 29.84 0 0 0 2.257 0c.061.044.061.212 0 .256l-.197.029c-.341.059-.386.109-.386.791v2.564z"/></svg>