<svg xmlns="http://www.w3.org/2000/svg" width="2500" height="2500" viewBox="0 0 192.756 192.756"><path fill-rule="evenodd" clip-rule="evenodd" fill="#fff" d="M0 0h192.756v192.756H0V0z"/><path fill-rule="evenodd" clip-rule="evenodd" fill="#368458" d="M43.715 97.179h6.506v-6.506h4.204v6.506h6.607V78.36h-6.607v6.307h-4.204V78.36h-6.506v18.819zM73.844 78.061c-5.706 0-10.41 3.904-10.41 9.81 0 6.006 4.604 9.609 10.41 9.609 5.706 0 10.31-3.604 10.31-9.609 0-5.907-4.604-9.81-10.31-9.81zm0 6.206c2.102 0 3.503 1.702 3.503 3.703 0 2.103-1.501 3.604-3.503 3.604-2.102 0-3.604-1.501-3.604-3.604.001-2.002 1.402-3.703 3.604-3.703zM86.156 97.179h6.506v-5.705h3.503c3.805 0 6.207-2.302 6.207-6.206 0-4.604-3.203-6.907-7.609-6.907h-8.608v18.818h.001zm6.507-13.713h.701c1.101 0 2.502.1 2.502 1.602 0 1.501-1.301 1.702-2.502 1.702h-.701v-3.304zM103.473 97.179h6.607v-5.705h3.502c3.805 0 6.207-2.302 6.207-6.206 0-4.604-3.303-6.907-7.607-6.907h-8.709v18.818zm6.607-13.713h.6c1.201 0 2.604.1 2.604 1.602 0 1.501-1.303 1.702-2.502 1.702h-.701v-3.304h-.001zM120.789 97.179h12.815v-5.105h-5.907v-1.902h5.205v-4.904h-5.205v-1.802h5.705V78.36h-12.613v18.819zM149.219 78.861c-1.502-.501-3.104-.801-4.605-.801-5.506 0-9.811 4.404-9.811 9.909 0 5.306 4.105 9.51 9.51 9.51 1.201 0 3.805-.2 4.906-.801l.199-7.007c-1.102 1.101-2.402 1.802-4.004 1.802-2.002 0-3.803-1.602-3.803-3.704 0-2.002 1.701-3.704 3.703-3.704 1.602 0 3.002.9 4.104 1.902l-.199-7.106zM151.621 97.179h6.605l-.1-7.907h.1c.199.801.801 1.501 1.201 2.202l3.203 5.705h7.908l-6.508-9.609 5.906-9.209h-7.508l-3.203 6.006c-.398.701-.801 1.401-1 2.202h-.1l.1-8.208h-6.605v18.818h.001zM171.439 97.179h12.813v-5.105h-6.006v-1.902h5.305v-4.904h-5.305v-1.802h5.807V78.36h-12.614v18.819zM32.104 80.863l.5 1.101H28.1l.5-1.101h3.504z"/><path d="M39.587 74.581v26.279H8.504V74.581h31.083zm-1.354 1.354H9.858v23.57h28.375v-23.57z" fill="#368458"/><path fill-rule="evenodd" clip-rule="evenodd" fill="#368458" d="M31.102 78.16h-1.401l.701-1.401.7 1.401zM31.403 78.861l.5 1.201H28.9l.501-1.201h2.002zM33.104 82.665l.601 1.301h-1.301l-.3-.3H28.7l-.3.3h-1.302l.601-1.301h5.405zM31.803 84.166v14.015H29v-3.504h-9.909v3.504h-2.703V84.166h2.703v7.708H29v-7.708h2.803zM34.005 84.567l.5 1.201h-2.301v-1.201h1.801zM35.407 87.77h-3.203v-1.301h2.602l.601 1.301zM35.707 88.371l.501 1.101h-4.004v-1.101h3.503zM36.408 89.972l.6 1.301h-4.804v-1.301h4.204zM37.409 91.874l.6 1.301h-5.805v-1.301h5.205z"/><path fill-rule="evenodd" clip-rule="evenodd" fill="#368458" d="M26.898 84.567l-.601 1.201H28.6v-1.201h-1.702zM25.397 87.77H28.6v-1.301h-2.602l-.601 1.301zM25.197 88.371l-.501 1.101H28.6v-1.101h-3.403zM24.396 89.972l-.4.901-.201.4H28.6v-1.301h-4.204zM19.491 80.863l.501 1.101h-4.605l.501-1.101h3.603zM18.49 78.16h-1.402l.702-1.401.7 1.401zM18.791 78.861l.5 1.201h-3.003l.501-1.201h2.002zM20.492 82.665l.6 1.301h-1.3l-.401-.3h-3.303l-.3.3h-1.302l.601-1.301h5.405zM14.186 84.567l-.501 1.201h2.203v-1.201h-1.702zM12.785 87.77h3.103v-1.301h-2.503l-.6 1.301zM12.484 88.371l-.5 1.101h3.904v-1.101h-3.404zM11.784 89.972l-.601 1.301h4.705v-1.301h-4.104zM10.783 91.874l-.601 1.301h5.706v-1.301h-5.105zM21.292 84.567l.501 1.201h-2.202v-1.201h1.701zM22.694 87.77h-3.103v-1.301h2.502l.601 1.301zM22.995 88.371l.5 1.101h-3.904v-1.101h3.404z"/><path fill-rule="evenodd" clip-rule="evenodd" fill="#368458" d="M23.795 89.972l.401.901.1.4h-4.705v-1.301h4.204z"/><path d="M104.674 115.297h5.705c2.004 0 4.205-.801 4.205-3.203 0-1.401-.801-2.303-2.002-2.702v-.101c1-.4 1.502-1.302 1.502-2.402 0-2.603-2.303-3.103-4.506-3.103h-4.904v11.511zm3.904-7.108v-1.701h.301c.6 0 1.4 0 1.4.801s-.701.9-1.301.9h-.4zm0 2.403h.4c.701 0 1.701 0 1.701 1.001 0 .901-1 .901-1.701.901h-.4v-1.902zM119.389 111.192c0-.601.4-1.101 1.002-1.101.699 0 1.1.4 1.1 1.001 0 .701-.299 1.301-1.1 1.301-.702.001-1.002-.599-1.002-1.201zm2.002 4.105h3.805v-8.108h-3.805l.1.901h-.1c-.602-.801-1.402-1.101-2.402-1.101-2.303 0-3.504 2.201-3.504 4.304 0 1.901 1.201 4.204 3.404 4.204 1.1 0 1.801-.501 2.502-1.302h.1l-.1 1.102zM131.301 104.486h-4.004v2.803l-1.002-.101v3.104l1.002-.1v5.105h4.004v-5.105l1.301.1v-3.104l-1.301.101v-2.803zM137.906 104.486h-4.004v2.803l-1-.101v3.104l1-.1v5.105h4.004v-5.105l1.303.1v-3.104l-1.303.101v-2.803zM149.418 111.894c.201-3.104-2.102-4.904-5.006-4.904-2.602 0-4.604 1.701-4.604 4.304 0 2.803 2.303 4.204 4.805 4.204 1.902 0 4.104-1.001 4.605-2.902h-3.805c-.1.399-.4.7-.801.7-.801 0-.9-.801-.9-1.401h5.706v-.001zm-5.705-1.702c0-.602.199-1.102.801-1.102.6 0 1 .5 1 1.102h-1.801zM157.326 106.989c-1.303-.101-2.002.199-2.703 1.2h-.1l.1-1.001h-4.004v8.108h4.004v-3.104c0-1.101.5-1.701 1.502-1.701.5 0 .801.2 1.201.501v-4.003zM158.527 115.297h3.902v-8.108h-3.902v8.108zm2.002-12.513c-1.303 0-2.203.701-2.203 1.902 0 1.301 1.002 1.901 2.203 1.901 1.1 0 2.102-.601 2.102-1.901 0-1.201-.901-1.902-2.102-1.902zM173.643 111.894c.199-3.104-2.104-4.904-5.006-4.904-2.602 0-4.605 1.701-4.605 4.304 0 2.803 2.303 4.204 4.906 4.204 1.801 0 4.004-1.001 4.504-2.902h-3.803c-.102.399-.4.7-.801.7-.801 0-.902-.801-.902-1.401h5.707v-.001zm-5.707-1.702c0-.602.201-1.102.801-1.102.602 0 1.002.5 1.002 1.102h-1.803zM178.746 107.188h-3.803v8.108h3.902v-4.004c0-.501 0-1.101.701-1.101.602 0 .602.6.602 1.101v4.004h4.004v-5.005c0-1.802-.801-3.303-2.803-3.303-1.301 0-1.902.6-2.604 1.501h-.1l.101-1.301z" fill-rule="evenodd" clip-rule="evenodd" fill="#cc2229"/><path fill="#368458" d="M184.127 74.681v1.354H43.739v-1.354h140.388zM184.127 99.505v1.354H43.739v-1.354h140.388z"/><path fill="#cc2229" d="M184.129 116.822v1.354H8.604v-1.354h175.525z"/></svg>