<svg xmlns="http://www.w3.org/2000/svg" width="2500" height="2500" viewBox="0 0 192.756 192.756"><path fill-rule="evenodd" clip-rule="evenodd" fill="#fff" d="M0 0h192.756v192.756H0V0z"/><path fill-rule="evenodd" clip-rule="evenodd" fill="#368458" d="M43.715 105.838h6.506V99.33h4.204v6.508h6.607V87.019h-6.607v6.306h-4.204v-6.306h-6.506v18.819zM73.844 86.719c-5.706 0-10.41 3.904-10.41 9.81 0 6.005 4.604 9.608 10.41 9.608 5.706 0 10.31-3.604 10.31-9.608 0-5.906-4.604-9.81-10.31-9.81zm0 6.206c2.102 0 3.503 1.702 3.503 3.704 0 2.102-1.501 3.604-3.503 3.604-2.102 0-3.604-1.502-3.604-3.604.001-2.003 1.402-3.704 3.604-3.704zM86.156 105.838h6.506v-5.707h3.503c3.805 0 6.207-2.301 6.207-6.205 0-4.604-3.203-6.907-7.608-6.907h-8.608v18.819zm6.507-13.714h.701c1.101 0 2.502.101 2.502 1.602s-1.301 1.702-2.502 1.702h-.701v-3.304zM103.473 105.838h6.607v-5.707h3.502c3.805 0 6.207-2.301 6.207-6.205 0-4.604-3.303-6.907-7.607-6.907h-8.709v18.819zm6.607-13.714h.6c1.201 0 2.604.101 2.604 1.602s-1.303 1.702-2.502 1.702h-.701v-3.304h-.001zM120.791 105.838h12.813v-5.106h-5.907V98.83h5.205v-4.904h-5.205v-1.802h5.705v-5.105h-12.611v18.819zM149.219 87.52c-1.502-.5-3.104-.801-4.605-.801-5.506 0-9.811 4.404-9.811 9.91 0 5.305 4.105 9.508 9.51 9.508 1.201 0 3.805-.199 4.906-.801l.199-7.006c-1.102 1.102-2.402 1.801-4.004 1.801-2.002 0-3.803-1.602-3.803-3.703 0-2.001 1.701-3.703 3.703-3.703 1.602 0 3.002.901 4.104 1.902l-.199-7.107zM151.621 105.838h6.605l-.1-7.908h.1c.201.801.801 1.502 1.201 2.201l3.203 5.707h7.908l-6.506-9.609 5.904-9.209h-7.506l-3.203 6.006c-.4.701-.801 1.401-1.002 2.202h-.1l.1-8.208h-6.605v18.818h.001zM171.439 105.838h12.813v-5.106h-6.006V98.83h5.305v-4.904h-5.305v-1.802h5.807v-5.105h-12.614v18.819zM32.104 89.521l.5 1.102H28.1l.5-1.102h3.504z"/><path d="M39.587 83.239v26.279H8.504V83.239h31.083zm-1.354 1.354H9.858v23.571h28.375V84.593z" fill="#368458"/><path fill-rule="evenodd" clip-rule="evenodd" fill="#368458" d="M31.102 86.819h-1.401l.701-1.402.7 1.402zM31.403 87.52l.5 1.201H28.9l.501-1.201h2.002zM33.104 91.323l.601 1.302h-1.301l-.3-.301H28.7l-.3.301h-1.302l.601-1.302h5.405zM31.803 92.825v14.013H29v-3.502h-9.909v3.502h-2.703V92.825h2.703v7.708H29v-7.708h2.803zM34.005 93.225l.5 1.201h-2.301v-1.201h1.801zM35.407 96.428h-3.203v-1.301h2.602l.601 1.301zM35.707 97.029l.501 1.102h-4.004v-1.102h3.503zM36.408 98.631l.6 1.301h-4.804v-1.301h4.204zM37.409 100.533l.6 1.301h-5.805v-1.301h5.205z"/><path fill-rule="evenodd" clip-rule="evenodd" fill="#368458" d="M26.898 93.225l-.601 1.201H28.6v-1.201h-1.702zM25.397 96.428H28.6v-1.301h-2.602l-.601 1.301zM25.197 97.029l-.501 1.102H28.6v-1.102h-3.403zM24.396 98.631l-.4.9-.201.401H28.6v-1.301h-4.204zM19.491 89.521l.501 1.102h-4.605l.501-1.102h3.603zM18.49 86.819h-1.401l.701-1.402.7 1.402zM18.791 87.52l.5 1.201h-3.003l.501-1.201h2.002zM20.492 91.323l.601 1.302h-1.301l-.401-.301h-3.303l-.3.301h-1.302l.601-1.302h5.405zM14.186 93.225l-.5 1.201h2.202v-1.201h-1.702zM12.785 96.428h3.103v-1.301h-2.503l-.6 1.301zM12.484 97.029l-.5 1.102h3.904v-1.102h-3.404zM11.784 98.631l-.601 1.301h4.705v-1.301h-4.104zM10.783 100.533l-.601 1.301h5.706v-1.301h-5.105zM21.292 93.225l.501 1.201h-2.202v-1.201h1.701zM22.694 96.428h-3.103v-1.301h2.502l.601 1.301zM22.995 97.029l.5 1.102h-3.904v-1.102h3.404z"/><path fill-rule="evenodd" clip-rule="evenodd" fill="#368458" d="M23.795 98.631l.401.9.1.401h-4.705v-1.301h4.204z"/><path fill="#368458" d="M184.129 83.339v1.354H43.739v-1.354h140.39zM184.129 108.164v1.354H43.739v-1.354h140.39z"/></svg>