<svg xmlns="http://www.w3.org/2000/svg" width="2500" height="2500" viewBox="0 0 192.756 192.756"><g fill-rule="evenodd" clip-rule="evenodd"><path fill="#fff" d="M0 0h192.756v192.756H0V0z"/><path d="M90.91 86.102s-1.573.105-1.573 1.417v4.668c0 .263.419 1.206 1.573 1.311.577.053 4.039 0 6.557 0 .471 0 .682.21.682.577v1.102s-.211.419-.629.419h-3.935c-.209 0-.839-.104-.839-.419h-3.409v1.207c0 .314.052 1.939 1.888 1.939h7.292c.523 0 2.832.264 2.832-2.045v-3.095c0-.42.367-2.203-1.836-2.203-2.256 0-5.192.053-5.612 0-.419-.052-1.102-.052-1.102-.629s-.052-.734 0-.944c.053-.262.105-.524.787-.524h3.095c.315 0 1.469-.104 1.469.472h3.199s-.053-1.049 0-1.574c.053-.524-.158-1.678-1.889-1.678l-8.55-.001zM102.816 86.102v12.22h3.672l10.385-12.22h-3.934l-6.662 8.287v-8.287h-3.461zM76.066 86.102v12.22h3.514v-4.825h4.616v4.878h3.724V86.102h-3.724v5.192H79.58v-5.192h-3.514zM118.289 90.298v4.354h-3.199l3.199-4.354zm.211-4.196l-10.334 12.221h3.83l1.469-1.625h4.719v1.625h3.725V86.102H118.5z" fill="#47a0c0"/><path d="M14.173 100.162c11.223.139 16.814-3.469 25.596-9.445 5.193-3.514 8.025-3.199 16.26 2.623 4.249 2.938 11.644 6.977 20.561 8.865 14.005 2.988 25.125 2.045 30.947 1.416 14.162-1.574 30.998-4.721 44.688-4.721l26.357-.035-.281.506-28.121.105c-7.238 0-22.502 2.047-42.801 5.455-9.912 1.68-24.389 2.361-31.942.996-5.612-.996-11.906-1.783-22.134-7.709-7.028-4.092-10.91-5.823-15.525-2.728-3.796 2.496-11.715 10.349-23.604 10.078v-5.406h-.001z" fill="#47a0c0"/></g></svg>