<svg xmlns="http://www.w3.org/2000/svg" width="2500" height="2500" viewBox="0 0 192.756 192.756"><g fill-rule="evenodd" clip-rule="evenodd"><path fill="#fff" d="M0 0h192.756v192.756H0V0z"/><path d="M176.189 101.051v1.424a514.453 514.453 0 0 0 13.732-2.896c.001-.001-5.245.636-13.732 1.472zM176.189 102.475v-1.424c-.498.049-1.008.1-1.531.15v1.572c.51-.097 1.022-.197 1.531-.298z" fill="#c12127"/><path d="M174.658 102.773v-1.572c-.5.049-1.01.098-1.531.146v1.721c.51-.097 1.019-.195 1.531-.295z" fill="#c22c27"/><path d="M173.127 103.068v-1.721c-.502.049-1.012.096-1.531.145v1.865c.509-.095 1.019-.191 1.531-.289z" fill="#c33527"/><path d="M171.596 103.357v-1.865l-1.531.143v2.006c.507-.094 1.019-.188 1.531-.284z" fill="#c43d28"/><path d="M170.064 103.641v-2.006c-.504.047-1.016.092-1.533.139v2.146l1.533-.279z" fill="#c54728"/><path d="M168.531 103.92v-2.146c-.504.047-1.014.092-1.531.139v2.283l1.531-.276z" fill="#c64e28"/><path d="M167 104.195v-2.283l-1.531.135v2.416l1.531-.268z" fill="#c75429"/><path d="M165.469 104.463v-2.416l-1.588.137v2.553l1.588-.274z" fill="#c85a29"/><path d="M163.881 104.736v-2.553l-1.531.129v2.682c.509-.086 1.019-.17 1.531-.258z" fill="#ca622a"/><path d="M162.35 104.994v-2.682c-.506.043-1.016.086-1.531.127v2.809l1.531-.254z" fill="#cb682a"/><path d="M160.818 105.248v-2.809c-.506.041-1.016.084-1.531.125v2.93c.51-.08 1.02-.162 1.531-.246z" fill="#cd6f2b"/><path d="M159.287 105.494v-2.93l-1.531.123v3.051c.508-.08 1.019-.16 1.531-.244z" fill="#ce742b"/><path d="M157.756 105.738v-3.051c-.508.039-1.02.078-1.533.119v3.17c.509-.078 1.019-.158 1.533-.238z" fill="#cf792b"/><path d="M156.223 105.977v-3.17c-.506.039-1.018.078-1.531.115v3.287l1.531-.232z" fill="#d07e2c"/><path d="M154.691 106.209v-3.287c-.508.039-1.018.078-1.531.115v3.4l1.531-.228z" fill="#d2852c"/><path d="M153.16 106.438v-3.4l-1.533.111v3.508l1.533-.219z" fill="#d3892d"/><path d="M151.627 106.656v-3.508c-.508.037-1.018.074-1.531.109v3.617c.509-.069 1.021-.144 1.531-.218z" fill="#d5902d"/><path d="M150.096 106.875v-3.617l-1.531.107v3.721c.509-.07 1.019-.139 1.531-.211z" fill="#d7952e"/><path d="M148.564 107.086v-3.721c-.508.033-1.02.068-1.531.104v3.824l1.531-.207z" fill="#d99c2e"/><path d="M147.033 107.293v-3.824l-1.533.1v3.926l1.533-.202z" fill="#dba12e"/><path d="M145.5 107.494v-3.926l-1.531.098v4.021a168.5 168.5 0 0 0 1.531-.193z" fill="#dca72e"/><path d="M143.969 107.688v-4.021c-.508.033-1.02.064-1.531.096v4.119l1.531-.194z" fill="#dfae2f"/><path d="M142.438 107.881v-4.119l-1.531.092v4.209c.509-.061 1.019-.12 1.531-.182z" fill="#e1b32f"/><path d="M140.906 108.062v-4.209c-.51.031-1.02.061-1.533.09v4.299c.51-.056 1.022-.119 1.533-.18z" fill="#e2b82f"/><path d="M139.373 108.242v-4.299c-.508.029-1.02.059-1.531.086v4.387c.51-.057 1.019-.113 1.531-.174z" fill="#e5bf2f"/><path d="M137.842 108.416v-4.387c-.508.029-1.02.057-1.531.084v4.473c.509-.057 1.019-.111 1.531-.17z" fill="#e5bf2f"/><path d="M136.311 108.586v-4.473l-1.531.08v4.557c.507-.053 1.019-.109 1.531-.164z" fill="#ddbe32"/><path d="M134.779 108.75v-4.557c-.51.025-1.02.053-1.533.076v4.637l1.533-.156z" fill="#d5bb34"/><path d="M133.246 108.906v-4.637c-.508.025-1.02.051-1.531.074v4.715a792.9 792.9 0 0 0 1.531-.152z" fill="#ccb836"/><path d="M131.715 109.059v-4.715l-1.531.07v4.791l1.531-.146z" fill="#c5b738"/><path d="M130.184 109.205v-4.791c-.51.023-1.02.045-1.531.066v4.865l1.531-.14z" fill="#beb43a"/><path d="M128.652 109.346v-4.865c-.529.023-1.057.045-1.588.066v4.939c.528-.045 1.059-.093 1.588-.14z" fill="#b8b33c"/><path d="M127.064 109.486v-4.939l-1.531.061v5.008c.51-.044 1.02-.085 1.531-.13z" fill="#b0b03d"/><path d="M125.533 109.615v-5.008l-1.531.055v5.078c.51-.041 1.019-.082 1.531-.125z" fill="#aaaf3f"/><path d="M124.002 109.74v-5.078l-1.531.053v5.143c.508-.038 1.019-.079 1.531-.118z" fill="#a0aa40"/><path d="M122.471 109.857v-5.143l-1.533.049v5.205c.511-.034 1.019-.072 1.533-.111z" fill="#9aa941"/><path d="M120.938 109.969v-5.205c-.51.016-1.02.031-1.531.045v5.27a848.33 848.33 0 0 0 1.531-.11z" fill="#94a843"/><path d="M119.406 110.078v-5.27l-1.531.041v5.33c.51-.033 1.02-.066 1.531-.101z" fill="#8ca543"/><path d="M117.875 110.18v-5.33l-1.531.035v5.389l1.531-.094z" fill="#85a344"/><path d="M116.344 110.273v-5.389l-1.533.033v5.447a206.05 206.05 0 0 0 1.533-.091z" fill="#7fa245"/><path d="M114.811 110.365v-5.447c-.51.01-1.02.02-1.531.027v5.504c.509-.027 1.019-.054 1.531-.084z" fill="#79a147"/><path d="M113.279 110.449v-5.504c-.51.01-1.021.016-1.531.023v5.559c.51-.025 1.02-.05 1.531-.078z" fill="#709c47"/><path d="M111.748 110.527v-5.559c-.512.008-1.021.012-1.531.018v5.615c.508-.023 1.019-.048 1.531-.074z" fill="#699b48"/><path d="M110.217 110.602v-5.615c-.512.006-1.021.01-1.533.014v5.668l1.533-.067z" fill="#629949"/><path d="M108.684 110.668V105c-.51.004-1.021.008-1.531.01v5.719l1.531-.061z" fill="#5b984a"/><path d="M107.152 110.729v-5.719c-.512.002-1.021.004-1.531.004v5.771c.508-.017 1.02-.037 1.531-.056z" fill="#52964b"/><path d="M105.621 110.785v-5.771c-.512 0-1.021 0-1.531-.002v5.822c.51-.016 1.017-.031 1.531-.049z" fill="#4b954b"/><path d="M104.09 110.834v-5.822c-.512-.002-1.023-.004-1.531-.008v5.873c.507-.014 1.019-.027 1.531-.043z" fill="#41934c"/><path d="M102.559 110.877v-5.873l-1.533-.012v5.924l1.533-.039z" fill="#37914d"/><path d="M101.025 110.916v-5.924l-1.531-.018v5.973c.51-.009 1.02-.019 1.531-.031zM99.494 110.947v-5.973c-.512-.008-1.021-.018-1.531-.027v6.025c.508-.007 1.019-.015 1.531-.025z" fill="#2e914e"/><path d="M97.963 110.973v-6.025c-.164-.002-.33-.004-.492-.008l-.986-.021v6.076l1.478-.022z" fill="#2d9152"/><path d="M96.485 110.994v-6.076c-.51-.01-1.021-.023-1.531-.035v6.125c.509-.004 1.019-.008 1.531-.014z" fill="#2c8f55"/><path d="M94.954 111.008v-6.125l-1.477-.035v6.168c.49-.002.982-.004 1.477-.008z" fill="#2b8d59"/><path d="M93.477 111.016v-6.168c-.493-.014-.985-.027-1.477-.043v6.215c.49 0 .983-.002 1.477-.004z" fill="#2a8d5e"/><path d="M92 111.02v-6.215c-.511-.014-1.021-.029-1.532-.045v6.256c.509.002 1.019.004 1.532.004z" fill="#288d65"/><path d="M90.467 111.016v-6.256c-.492-.016-.984-.031-1.477-.049v6.297c.492.004.983.006 1.477.008z" fill="#278d69"/><path d="M88.991 111.008v-6.297l-1.532-.053v6.336c.508.006 1.02.01 1.532.014z" fill="#258d70"/><path d="M87.458 110.994v-6.336a371.57 371.57 0 0 1-1.477-.057v6.373c.492.008.984.014 1.477.02z" fill="#248b73"/><path d="M85.982 110.975v-6.373l-1.532-.061v6.408c.509.01 1.019.018 1.532.026z" fill="#228b79"/><path d="M84.45 110.949v-6.408l-1.477-.064v6.441c.49.012.984.021 1.477.031z" fill="#208b7d"/><path d="M82.973 110.918v-6.441c-.493-.021-.985-.043-1.477-.066v6.473l1.477.034z" fill="#1d8a82"/><path d="M81.496 110.883v-6.473c-.511-.023-1.022-.047-1.532-.072v6.5c.51.016 1.019.031 1.532.045z" fill="#1a8a88"/><path d="M79.964 110.838v-6.5l-1.478-.076v6.527c.492.018.984.033 1.478.049z" fill="#18898d"/><path d="M78.487 110.789v-6.527a193.58 193.58 0 0 1-1.531-.082v6.555c.508.019 1.019.038 1.531.054z" fill="#148a93"/><path d="M76.956 110.734v-6.555l-1.477-.082v6.578c.49.022.982.042 1.477.059z" fill="#108997"/><path d="M75.479 110.676v-6.578c-.511-.029-1.022-.059-1.532-.09v6.6l1.532.068z" fill="#03899e"/><path d="M73.947 110.607v-6.6c-.493-.029-.986-.061-1.477-.092v6.623c.49.024.983.048 1.477.069z" fill="#0088a0"/><path d="M72.47 110.539v-6.623c-.512-.031-1.022-.064-1.532-.098v6.643c.508.027 1.02.053 1.532.078z" fill="#0088a7"/><path d="M70.938 110.461v-6.643l-1.477-.1v6.66l1.477.083z" fill="#0087ab"/><path d="M69.461 110.379v-6.66l-1.477-.105v6.678l1.477.087z" fill="#0086af"/><path d="M67.984 110.291v-6.678l-1.532-.111v6.691c.509.034 1.019.067 1.532.098z" fill="#0086b4"/><path d="M66.452 110.193v-6.691l-1.477-.113v6.707c.49.033.983.066 1.477.097zM64.975 110.096v-6.707l-1.532-.123v6.725l1.532.105zm-1.532-39.689v.03l.383-.071s-.131.013-.383.041zM63.443 109.99v-6.725a2941 2941 0 0 1-1.477-.123v6.736l1.477.112zm0-39.553v-.03c-.313.035-.817.091-1.477.169v.143c.663-.128 1.163-.223 1.477-.282z" fill="#0085bb"/><path d="M61.966 109.879v-6.736c-.513-.045-1.023-.088-1.532-.135v6.752c.51.041 1.02.08 1.532.119zm0-39.16v-.143c-.441.052-.954.114-1.532.186v.258l1.532-.301z" fill="#0084bb"/><path d="M60.435 109.76v-6.752c-.494-.043-.987-.088-1.477-.133v6.764c.49.041.983.082 1.477.121zm0-38.74v-.258c-.454.056-.947.118-1.477.187v.369c.53-.108 1.022-.207 1.477-.298z" fill="#0083bb"/><path d="M58.958 109.639v-6.764c-.494-.045-.987-.092-1.477-.139v6.777c.489.042.983.085 1.477.126zm0-38.322v-.369c-.466.06-.957.124-1.477.193v.479l1.477-.303z" fill="#0081b9"/><path d="M57.48 109.514v-6.777l-1.532-.148v6.789l1.532.136zm0-37.893v-.479c-.487.064-1.001.135-1.532.208v.591l1.532-.32z" fill="#007fb7"/><path d="M55.949 109.377v-6.789c-.495-.049-.986-.1-1.477-.15v6.801c.49.046.982.093 1.477.138zm0-37.436v-.591c-.478.065-.967.134-1.477.207v.7c.508-.111.999-.215 1.477-.316z" fill="#007eb7"/><path d="M54.472 109.238v-6.801c-.513-.055-1.023-.107-1.532-.164v6.816c.509.052 1.019.102 1.532.149zm0-36.982v-.7c-.495.07-1.008.145-1.532.221v.812l1.532-.333z" fill="#007db7"/><path d="M52.94 109.09v-6.816c-.495-.053-.987-.107-1.477-.162v6.832l1.477.146zm0-36.501v-.812c-.481.071-.974.144-1.477.22v.918l1.477-.326z" fill="#007bb5"/><path d="M51.463 108.943v-6.832l-1.532-.176v6.848c.509.055 1.019.108 1.532.16zm0-36.027v-.918c-.501.075-1.011.153-1.532.234v1.03c.52-.118 1.031-.234 1.532-.346z" fill="#0079b4"/><path d="M49.931 108.783v-6.848l-1.477-.176v6.867c.49.054.983.106 1.477.157zm0-35.521v-1.03c-.484.075-.978.153-1.477.233v1.136c.499-.116.992-.229 1.477-.339z" fill="#0077b2"/><path d="M48.454 108.627v-6.867c-.495-.061-.988-.121-1.477-.184v6.887l1.477.164zm0-35.025v-1.136c-.485.078-.979.158-1.477.24v1.241c.498-.117.99-.233 1.477-.345z" fill="#0075b1"/><path d="M46.977 108.463v-6.887l-1.532-.197v6.908l1.532.176zm0-34.516v-1.241c-.505.083-1.015.168-1.532.256v1.352c.516-.126 1.027-.247 1.532-.367z" fill="#0374b1"/><path d="M45.445 108.287v-6.908c-.496-.066-.988-.133-1.477-.201v6.934l1.477.175zm0-33.974v-1.352c-.488.083-.98.167-1.477.254v1.458c.496-.122.99-.243 1.477-.36z" fill="#0b72af"/><path d="M43.968 108.111v-6.934c-.515-.07-1.025-.141-1.532-.215v6.963c.51.063 1.02.126 1.532.186zm0-33.438v-1.458c-.507.088-1.017.179-1.532.271v1.567c.514-.128 1.025-.256 1.532-.38z" fill="#1270ae"/><path d="M42.437 107.926v-6.963c-.496-.07-.989-.143-1.477-.217v7.004c.315.037.574.066.766.09.235.029.474.056.711.086zm0-32.872v-1.567c-.489.088-.981.178-1.477.27v1.673c.494-.128.986-.253 1.477-.376z" fill="#156fae"/><path d="M40.959 107.75v-7.004c-.515-.076-1.026-.154-1.532-.234v7.053c.602.076 1.118.136 1.532.185zm0-32.321v-1.673c-.508.094-1.019.19-1.532.289v1.781a506.04 506.04 0 0 1 1.532-.397z" fill="#186cac"/><path d="M39.428 107.564v-7.053a219.02 219.02 0 0 1-1.477-.238v7.1c.536.07 1.03.135 1.477.191zm0-31.737v-1.781c-.491.094-.983.189-1.477.287v1.888c.492-.134.985-.265 1.477-.394z" fill="#196aab"/><path d="M37.951 107.373v-7.1c-.497-.08-.99-.164-1.477-.248v7.141c.522.076 1.013.143 1.477.207zm0-31.153v-1.888c-.491.097-.983.196-1.477.296v1.995c.492-.135.984-.27 1.477-.403z" fill="#1b69aa"/><path d="M36.474 107.166v-7.141c-.517-.088-1.027-.18-1.532-.27v7.182c.532.083 1.044.159 1.532.229zm0-30.543v-1.995c-.509.104-1.021.208-1.532.316v2.106c.51-.143 1.02-.286 1.532-.427z" fill="#1e67a9"/><path d="M34.942 106.938v-7.182c-.498-.09-.99-.182-1.477-.273v7.219c.507.083 1.001.161 1.477.236zm0-29.887v-2.106c-.492.104-.984.209-1.477.316v2.215c.491-.143.983-.285 1.477-.425z" fill="#2065a8"/><path d="M33.465 106.701v-7.219c-.519-.1-1.028-.199-1.532-.301v7.26c.524.092 1.034.178 1.532.26zm0-29.225v-2.215c-.511.111-1.021.224-1.532.339v2.329c.508-.153 1.019-.304 1.532-.453z" fill="#2163a6"/><path d="M31.933 106.441v-7.26c-.5-.1-.991-.201-1.477-.305v7.297c.502.095.994.182 1.477.268zm0-28.513V75.6c-.493.111-.985.224-1.477.338v2.441c.49-.151.982-.301 1.477-.451z" fill="#2360a5"/><path d="M30.457 106.174v-7.297c-.52-.109-1.03-.221-1.532-.334v7.336c.517.103 1.029.201 1.532.295zm0-27.795v-2.441c-.512.119-1.023.24-1.532.364v2.562c.506-.163 1.016-.324 1.532-.485zM28.924 105.879v-7.336c-.52-.117-1.03-.234-1.532-.354v7.377c.516.108 1.028.213 1.532.313zm0-27.015v-2.562c-.512.124-1.023.25-1.532.378v2.686c.505-.169 1.017-.337 1.532-.502z" fill="#2360a5"/><path d="M27.393 105.566v-7.377c-.52-.125-1.033-.252-1.532-.379v7.42c.514.118 1.025.229 1.532.336zm0-26.201V76.68c-.513.129-1.024.26-1.532.394v2.814c.504-.176 1.014-.35 1.532-.523z" fill="#2360a5"/><path d="M25.861 105.23v-7.42a97.863 97.863 0 0 1-1.532-.408v7.473c.513.123 1.024.242 1.532.355zm0-25.342v-2.814c-.514.135-1.024.271-1.532.411v2.951a87.397 87.397 0 0 1 1.532-.548zM24.329 104.875v-7.473a82.011 82.011 0 0 1-1.532-.439v7.533c.512.131 1.023.258 1.532.379zm0-24.44v-2.951c-.514.141-1.025.284-1.532.43v3.095c.5-.194 1.013-.384 1.532-.574z" fill="#235fa4"/><path d="M22.797 104.496v-7.533a52.828 52.828 0 0 1-1.531-.479v7.604c.51.141 1.021.277 1.531.408zm0-23.488v-3.095c-.516.148-1.025.299-1.531.452v3.253a84.282 84.282 0 0 1 1.531-.61z" fill="#245ea4"/><path d="M21.266 104.088v-7.604a49.43 49.43 0 0 1-1.532-.526v7.694c.509.151 1.019.295 1.532.436zm0-22.469v-3.253c-.518.156-1.027.315-1.532.475v3.427a63.787 63.787 0 0 1 1.532-.649z" fill="#245da3"/><path d="M19.734 103.652v-7.694a41.443 41.443 0 0 1-1.586-.612v7.818c.525.168 1.054.33 1.586.488zm0-21.384V78.84c-.536.17-1.065.344-1.586.52v3.641a48.84 48.84 0 0 1 1.586-.733zM18.147 103.164v-7.818c-.54-.221-1.05-.446-1.532-.675v7.983c.506.176 1.018.344 1.532.51zm0-20.163V79.36c-.518.175-1.03.352-1.532.532v3.89c.486-.262.996-.522 1.532-.781z" fill="#245ca2"/><path d="M16.616 102.654v-7.983a22.141 22.141 0 0 1-1.532-.798v8.227c.504.189 1.015.375 1.532.554zm0-18.872v-3.89c-.521.187-1.031.377-1.532.57v4.208c.475-.298.986-.594 1.532-.888z" fill="#255ba1"/><path d="M15.084 102.1v-8.227a14.584 14.584 0 0 1-1.532-1.004v8.622c.502.208 1.013.411 1.532.609zm0-17.431v-4.208c-.523.201-1.032.406-1.532.613v4.661a17.62 17.62 0 0 1 1.532-1.066z" fill="#255aa0"/><path d="M13.552 101.49v-8.622c-.634-.482-1.149-.978-1.532-1.488v9.436c.5.231 1.01.455 1.532.674zm0-15.754v-4.661c-.523.218-1.037.438-1.532.662v5.509c.387-.505.897-1.009 1.532-1.51z" fill="#2659a0"/><path d="M12.021 100.816V91.38c-.411-.551-.67-1.119-.766-1.703-.136-.809.148-1.622.766-2.432v-5.509c-.53.24-1.038.485-1.532.734v17.592c.495.258 1.006.51 1.532.754z" fill="#27579e"/><path d="M10.489 100.062V82.471a33.92 33.92 0 0 0-1.531.815v15.917c.488.295 1.001.582 1.531.859z" fill="#27569d"/><path d="M8.958 99.203V83.286c-.541.307-1.053.619-1.532.938v13.963c.482.35.991.69 1.532 1.016z" fill="#27559c"/><path d="M7.425 98.188V84.224c-.556.37-1.066.747-1.532 1.132v11.587c.468.43.981.846 1.532 1.245z" fill="#28529b"/><path d="M5.894 96.943V85.356a11.85 11.85 0 0 0-1.532 1.507v8.384c.432.591.945 1.155 1.532 1.696z" fill="#295099"/><path d="M4.362 95.247v-8.384c-.833 1-1.352 2.047-1.477 3.142-.23 1.94.336 3.681 1.477 5.242z" fill="#294f98"/><path d="M52.502 63.364c.984.109 1.969.219 3.009.219 1.039 0 2.079-.109 3.118-.219l-2.243 11.652c-.438 2.243-1.203 5.635-1.258 7.768 0 1.97.055 3.282 1.258 4.705 1.094 1.204 2.571 1.75 4.376 1.75 3.775 0 6.127-1.368 8.206-4.978 1.094-1.806 2.024-6.456 2.407-8.479l2.407-12.418c.547.109 1.094.109 1.641.109.547 0 1.094 0 1.641-.109L74.22 77.97c-1.04 4.649-1.805 8.917-6.619 11.871-2.517 1.586-5.471 2.188-8.206 2.188-4.923 0-10.011-1.586-10.503-6.893a19.64 19.64 0 0 1 .329-5.033l3.281-16.739zM103.762 90.169c-3.885 1.04-7.714 1.86-11.325 1.86-8.644 0-15.481-4.322-13.622-14.004 1.969-10.175 10.449-15.372 19.913-15.372 3.555 0 6.674.711 9.408 2.461-.82 1.313-1.531 2.79-1.969 4.158h-.547c-1.367-2.735-4.049-4.158-7.275-4.158-6.839 0-11.434 6.182-12.747 13.075-1.423 7.111 1.367 11.379 7.604 11.379 2.079 0 3.666-.547 4.76-1.149l1.859-9.573c.984.055 1.969.164 3.008.164 1.041 0 2.08-.109 3.119-.164l-2.186 11.323zM115.359 63.364c.984.109 1.969.219 3.008.219s2.078-.109 3.119-.219l-2.135 11.105c2.08.109 4.104.219 6.236.219 2.08 0 4.158-.11 6.291-.219l2.135-11.105c1.039.109 2.023.219 3.062.219s2.078-.109 3.119-.219l-5.471 28.118c-1.039-.055-2.025-.219-3.064-.219-.984 0-2.023.164-3.117.219l2.68-13.731c-2.078-.055-4.104-.219-6.236-.219-2.078 0-4.158.164-6.291.219l-2.68 13.731c-.984-.055-2.025-.219-3.01-.219-1.039 0-2.078.164-3.117.219l5.471-28.118zM162.131 63.364c-.219.602-.438 1.204-.547 1.75-.109.602-.109 1.204-.164 1.805-2.406-.328-5.143-.656-9.354-.602l-1.697 8.808h4.268c1.859 0 3.555-.164 5.088-.328-.164.547-.438 1.148-.547 1.75-.109.547-.109 1.148-.109 1.75a33.5 33.5 0 0 0-4.979-.383h-4.268l-2.023 10.449c4.213-.055 7.002-.273 9.572-.602-.164.602-.438 1.204-.547 1.75-.109.602-.109 1.204-.109 1.75H141.07l5.416-27.899h15.645v.002zM179.09 68.67c-.383-2.188-1.641-3.556-3.994-3.556-3.227 0-4.867 1.641-5.305 3.994-1.041 5.525 11.596 4.54 9.791 13.895-1.039 5.251-6.291 9.026-12.637 9.026-2.242 0-4.596-.547-6.236-1.75.82-1.751 1.586-3.447 2.188-5.197h.766c.055 2.79 1.971 4.486 4.76 4.486 2.572 0 5.088-1.423 5.635-4.268 1.312-6.564-11.379-4.157-9.463-14.059.93-4.705 4.922-8.588 11.158-8.588 2.955 0 5.361 1.094 6.072 1.969-.766 1.313-1.422 2.625-2.078 4.048h-.657zM24.658 77.751l-2.681 13.731c-.985-.055-1.97-.219-3.009-.219-1.04 0-2.079.164-3.118.219l5.471-28.118c.984.109 2.023.219 3.008.219 1.04 0 2.079-.109 3.118-.219l-2.735 14.387h-.054zM40.03 63.364c.984.109 1.969.219 3.009.219 1.039 0 2.079-.109 3.118-.219l-5.471 28.118c-.985-.055-2.024-.219-3.009-.219-1.039 0-2.079.164-3.118.219l5.471-28.063v-.055z" fill="#2360a5"/><path d="M16.78 118.779h2.188l1.423 8.262h.054l1.751-8.262h1.696l-2.352 11.106h-2.189l-1.422-8.479-1.805 8.479h-1.696l2.352-11.106zM28.815 118.779h6.018l-.329 1.479h-4.212l-.656 3.117h3.993l-.328 1.477h-3.993l-.766 3.556h4.376l-.328 1.477h-6.128l2.353-11.106zM40.959 120.258h-2.68l.328-1.479h7.002l-.328 1.479H42.71l-2.024 9.627h-1.805l2.078-9.627zM48.947 118.779h1.75l-.328 8.645 3.282-8.645h1.86l-.328 8.7h.055l3.282-8.7h1.751l-4.596 11.106h-2.024l.328-8.369-3.227 8.369h-2.024l.219-11.106zM62.951 124.359c.821-3.992 2.353-5.799 4.924-5.799 2.517 0 3.282 1.807 2.407 5.799-.821 3.939-2.353 5.744-4.869 5.744-2.572.001-3.283-1.804-2.462-5.744zm5.58-.054c.82-3.773.109-4.432-.984-4.432-1.04 0-2.024.658-2.79 4.432-.82 3.83-.109 4.486.93 4.486 1.039 0 2.023-.656 2.844-4.486zM76.135 118.779h3.938c1.586 0 2.681.768 2.243 2.846-.328 1.477-1.203 2.57-2.461 2.734v.055c1.094.109 1.532.711 1.258 2.244-.11.711-.329 1.586-.438 2.242-.055.547.164.82.328.984h-1.969c-.164-.219-.164-.547-.109-.984.109-.656.219-1.258.383-2.078.219-1.205-.055-1.752-1.259-1.752h-1.422l-1.04 4.814h-1.805l2.353-11.105zm2.188 4.924c1.095 0 1.915-.656 2.134-1.805.273-1.148-.109-1.805-1.313-1.805h-1.477l-.766 3.609h1.422v.001zM87.623 118.779h1.805l-1.039 4.815 4.431-4.815h1.914l-4.212 4.705 2.188 6.401h-1.969l-1.641-4.979-1.313 1.369-.766 3.61h-1.75l2.352-11.106zM105.402 126.439l-.055.273c-.273 1.367.164 2.078 1.367 2.078 1.148 0 1.859-.82 2.023-1.641.273-1.148-.219-1.697-1.148-1.971l-1.094-.438c-1.531-.602-2.023-1.477-1.695-3.062.438-1.971 2.023-3.119 4.102-3.119 2.846 0 2.791 1.752 2.518 2.955l-.055.219h-1.75l.055-.219c.219-1.039-.109-1.643-1.205-1.643-.766 0-1.586.439-1.859 1.643-.164.93.164 1.422 1.258 1.859l1.148.438c1.424.547 1.916 1.422 1.588 2.955-.492 2.352-2.135 3.336-4.377 3.336-2.734 0-2.955-1.859-2.625-3.391l.055-.273h1.749v.001zM117.328 125.562l-1.422-6.783h1.969l.82 4.815 2.955-4.815h1.86l-4.432 6.783-.93 4.323h-1.75l.93-4.323zM126.9 126.439l-.055.273c-.273 1.367.164 2.078 1.424 2.078 1.094 0 1.805-.82 2.023-1.641.219-1.148-.273-1.697-1.203-1.971l-1.094-.438c-1.479-.602-2.025-1.477-1.697-3.062.438-1.971 2.025-3.119 4.158-3.119 2.844 0 2.734 1.752 2.516 2.955l-.055.219h-1.805l.055-.219c.219-1.039-.109-1.643-1.203-1.643-.766 0-1.586.439-1.859 1.643-.164.93.219 1.422 1.312 1.859l1.094.438c1.422.547 1.914 1.422 1.641 2.955-.547 2.352-2.188 3.336-4.43 3.336-2.736 0-2.955-1.859-2.627-3.391l.055-.273h1.75v.001zM139.867 120.258h-2.627l.328-1.479h7.002l-.328 1.479h-2.57l-2.078 9.627h-1.752l2.025-9.627zM148.674 118.779h6.017l-.328 1.479h-4.213l-.656 3.117h3.994l-.328 1.477h-3.994l-.766 3.556h4.377l-.328 1.477h-6.127l2.352-11.106zM159.287 118.779h2.789l.219 8.207 3.666-8.207h2.734l-2.351 11.106h-1.696l1.969-9.244h-.055l-4.212 9.244h-1.477l-.273-9.244h-.055l-1.914 9.244h-1.697l2.353-11.106zM173.4 126.439l-.055.273c-.328 1.367.109 2.078 1.367 2.078 1.094 0 1.861-.82 2.025-1.641.219-1.148-.219-1.697-1.15-1.971l-1.148-.438c-1.477-.602-2.023-1.477-1.695-3.062.438-1.971 2.078-3.119 4.158-3.119 2.844 0 2.734 1.752 2.516 2.955l-.055.219h-1.805l.055-.219c.219-1.039-.109-1.643-1.203-1.643-.768 0-1.588.439-1.807 1.643-.219.93.164 1.422 1.258 1.859l1.096.438c1.477.547 1.969 1.422 1.641 2.955-.492 2.352-2.133 3.336-4.377 3.336-2.789 0-3.008-1.859-2.68-3.391l.055-.273h1.804v.001z"/></g></svg>