<svg xmlns="http://www.w3.org/2000/svg" width="2500" height="597" viewBox="0 0 41.801 9.987"><path d="M3.427 1.155a1.155 1.155 0 1 1-2.31 0 1.155 1.155 0 0 1 2.31 0zM1.266 3.278v5.587H0v1.118h4.619v-.894h-1.49V4.47h1.415l.149-1.192H1.266z" fill="#d6da5c"/><path fill="#2f8cc3" d="M5.736 5.438h3.576v1.267H5.736V5.438zM15.844 7.572c0 .716-.286 1.297-.858 1.744s-1.349.671-2.331.671c-.567 0-1.062-.053-1.484-.158s-.816-.239-1.185-.401V7.695h.193a4.03 4.03 0 0 0 1.226.707c.453.165.888.247 1.305.247.107 0 .248-.01.423-.029.175-.02.317-.052.428-.098a1.04 1.04 0 0 0 .333-.221c.088-.088.131-.219.131-.392 0-.319-.26-.555-.75-.678a16.559 16.559 0 0 0-.818-.183 5.984 5.984 0 0 1-.808-.217c-.577-.198-.993-.468-1.246-.808s-.38-.762-.38-1.266c0-.676.286-1.229.858-1.656s1.308-.642 2.207-.642c.451 0 .896.046 1.336.139.44.092.821.208 1.144.349V4.62h-.188a3.585 3.585 0 0 0-1.015-.586 3.33 3.33 0 0 0-1.225-.236c-.295 0-.591.034-.861.151a.806.806 0 0 0-.308.222.502.502 0 0 0-.129.338c0 .192.069.339.207.441.139.103.399.196.783.281l.725.161c.232.052.481.124.749.214.525.183.913.43 1.163.744.25.315.375.722.375 1.222zM20.278 9.792c-.178.048-.367.086-.566.114s-.444.041-.733.041c-.645 0-1.125-.137-1.44-.412-.314-.275-.472-.746-.472-1.413V5.574h-.677V4.382h.677V2.818h1.668v1.564h1.543v1.192h-1.543v1.93c0 .191.001.357.005.499.003.143.027.27.073.383.042.113.118.203.227.269s.266.1.474.1c.086 0 .198-.019.337-.056.139-.038.235-.072.291-.103h.137v1.196h-.001zM25.029 6.051h-.147a1.464 1.464 0 0 0-.342-.06 4.944 4.944 0 0 0-.393-.02c-.236 0-.446.017-.627.049a3.431 3.431 0 0 0-.586.165v3.656h-1.668v-5.46h1.668v.803c.366-.331.684-.552.955-.663a1.989 1.989 0 0 1 .947-.162c.074.003.138.008.194.014v1.678h-.001zM27.244 6.409c.024-.384.139-.664.343-.838.205-.175.465-.262.783-.262.683 0 .993.37 1.011 1.1h-2.137zm3.805.408c0-.842-.212-1.487-.636-1.935-.423-.449-1.056-.673-1.896-.673-.912 0-1.629.263-2.152.79s-.785 1.242-.785 2.143c0 .911.276 1.613.828 2.106.552.493 1.346.739 2.384.739.401 0 .768-.036 1.099-.106a5.924 5.924 0 0 0 1.058-.345V8.132h-.184c-.19.155-.45.299-.779.435a2.66 2.66 0 0 1-1.019.202c-1.105 0-1.67-.471-1.719-1.338h3.801v-.614zM33.51 6.409c.024-.384.139-.664.343-.838.205-.175.465-.262.783-.262.683 0 .993.37 1.011 1.1H33.51zm3.806.408c0-.842-.212-1.487-.635-1.935-.424-.449-1.056-.673-1.897-.673-.912 0-1.629.263-2.152.79s-.785 1.241-.785 2.143c0 .911.276 1.613.828 2.106.552.493 1.347.739 2.384.739.401 0 .768-.036 1.099-.106a5.924 5.924 0 0 0 1.058-.345V8.132h-.184c-.19.155-.45.299-.779.435a2.657 2.657 0 0 1-1.019.202c-1.106 0-1.67-.472-1.719-1.338h3.801v-.614zM41.801 9.792c-.179.048-.367.086-.567.114s-.444.041-.733.041c-.645 0-1.125-.137-1.44-.412-.315-.275-.472-.746-.472-1.413V5.574h-.678V4.382h.678V2.818h1.668v1.564H41.8v1.192h-1.543v1.93c0 .191.001.357.004.499.003.143.028.27.073.383.043.113.118.203.227.269s.267.1.475.1c.085 0 .197-.019.336-.056.139-.038.236-.072.291-.103h.138v1.196z"/></svg>