<svg xmlns="http://www.w3.org/2000/svg" width="2500" height="2500" viewBox="0 0 192.756 192.756"><g fill-rule="evenodd" clip-rule="evenodd"><path fill="#fff79d" d="M0 0h192.756v192.756H0V0z"/><path d="M111.303 129.828h6.886v.951h-1.978v20.744h1.978v1.03h-6.886v-1.03h2.058v-20.744h-2.058v-.951zM86.6 143.922v-13.143h-1.821l.079-.951h4.751v.951H87.55v21.774h-.95l-8.63-19.873v18.843h1.821v1.03H75.12v-1.03h1.821v-20.744h-1.742l-.079-.951h5.067l6.413 14.094zM64.907 130.225s-1.663-.238-2.455 2.139c-.792 2.295-.712 8.471-.712 8.471s-.079 6.809.712 9.105c.792 2.375 2.455 2.137 2.455 2.137s1.742.238 2.534-2.137c.792-2.297.712-9.105.712-9.105s.079-6.176-.712-8.471c-.793-2.378-2.534-2.139-2.534-2.139zm0-1.108c-.634 0-2.375.316-3.958 2.691-1.584 2.453-2.534 5.463-2.613 9.025.08 3.484 1.029 7.283 2.613 9.66 1.583 2.375 2.692 2.691 3.958 2.691 1.504 0 2.454-.316 4.038-2.691 1.583-2.377 2.534-6.176 2.613-9.66-.079-3.562-1.029-6.572-2.613-9.025-1.584-2.374-3.326-2.691-4.038-2.691zM98.871 130.857s3.168-.395 4.436 1.742c1.188 2.217 1.027 8.076 1.027 8.076s-.395 7.521-1.346 8.867c-.949 1.268-1.662 2.059-4.117 1.98v-20.665zm-.236 21.696h-4.83v-1.029h1.979V130.78h-1.979v-.951h4.591s5.859-.711 7.443 3.564c1.424 3.721 1.582 4.67 1.582 7.283 0 2.533-.316 6.254-2.217 9.184-1.897 2.929-6.569 2.693-6.569 2.693zM145.742 144.555h3.562l-1.74-8.234-1.822 8.234zm3.801 1.267h-4.117l-1.268 5.701h1.742v.869h-4.75v-.869h2.297l4.908-22.406h.633l4.75 22.406 2.059.078v.951h-6.887v-.951h1.979l-1.346-5.779zM45.034 121.99h-8.947v1.188h2.771v28.345h-2.771v1.186h8.947v-1.186h-2.613v-14.49l7.126 14.49h-2.296v1.186h8.155v-1.186h-1.109l-8.946-17.578 6.175-10.767h2.455v-1.188h-6.73v1.188h2.455l-7.285 13.539v-13.539h2.613v-1.188zM135.926 151.363l1.029 1.822h.553v-9.502h-.711s-1.188 5.305-2.139 6.492c-1.029 1.109-3.643 4.355-6.65 0 0 0-1.584-2.77-1.504-12.984.078-5.857 0-8.945 1.979-12.746 0 0 2.059-4.355 6.018.396 0 0 1.742 2.453 1.9 6.016h.713v-8.867h-.238l-1.346 1.742s-1.504-2.375-4.75-2.217c-3.168.238-5.068 2.691-6.256 5.225-1.188 2.535-1.979 8.234-1.979 10.451-.08 2.217-.316 8.076 3.721 13.461 0 0 3.8 6.254 9.66.711zM52.318 11.782H36.087v1.662h4.909v40.695h-4.909v1.583h16.231v-1.583h-5.147V13.444h5.147v-1.662zM85.175 32.604l.079-19.16h5.226v-1.662H74.249v1.662h4.83v40.695h-4.83v1.583H90.48v-1.583h-5.226V33.158l13.539 20.981h-5.147v1.583h15.676v-1.583h-2.769L90.559 28.566l10.847-15.122h4.434v-1.662H93.726v1.662h5.145l-13.696 19.16zM140.992 33.396c4.908 0 4.908 4.434 4.908 4.434v4.117h1.98v-18.29h-1.98v3.959c0 4.196-4.908 4.196-4.908 4.196h-1.82l.158-18.368s-2.455.079 6.57 0c9.027-.079 7.838 10.213 7.838 10.213h1.98V11.782h-27.711v1.662h4.83v40.695h-4.83v1.583h16.23v-1.583h-5.225s0-20.743.078-20.743h1.902z"/><path fill="#864194" d="M36.087 75.357h4.83v4.909h-4.83v-4.909zM73.853 75.357h4.83v4.909h-4.83v-4.909zM111.697 75.357h4.83v4.909h-4.83v-4.909z"/><path d="M51.289 95.626h6.888v1.03h-1.979v20.742h1.979v.952h-6.888v-.952h2.058V96.656h-2.058v-1.03zM79.237 110.273l-.079-13.064h-1.742l.08-1.029h4.75v1.029h-2.059v21.693h-.95l-8.63-19.871v18.842h1.821v1.029h-4.671v-1.029h1.821V97.209h-1.742l-.079-1.029h5.067l6.413 14.093zM89.133 96.18h12.748v7.602h-1.029v-1.504c0-3.723-1.9-5.068-2.93-5.068h-1.03v20.664h1.979v1.029h-6.887v-1.029h1.979V97.209h-1.267s-2.534 1.346-2.534 5.068v1.504h-1.029V96.18zM119.141 111.777h1.029v7.125h-12.113v-1.029h2.059V97.209h-2.059V96.18h11.559v6.414h-.475s-.158-5.385-2.85-5.385H112.965v9.422h1.82s.951-.078.951-3.562h.791v8.709l-.713.08s.238-4.275-1.107-4.275h-1.742v10.291s.158.08 3.168 0c3.008-.001 3.008-6.097 3.008-6.097zM137.984 115.736s0 1.584 1.9 1.584h.236v.949s-1.188.871-2.455.555c-1.266-.316-2.533-1.188-2.611-3.643 0-2.453.555-8.154-3.721-8.154v10.293h1.979v.949h-6.809v-.949h1.979V96.576h-1.979v-1.03h5.621s6.57.08 6.57 5.78c0 5.701-4.195 5.305-4.195 5.305s3.485.08 3.485 9.105zm-6.414-19.16h1.346s2.455.08 2.455 4.75c0 4.75-2.297 4.672-2.297 4.672h-1.504v-9.422zM90.242 175.115h.95v7.127l-12.034-.08v-.949h1.979v-20.744h-1.979v-.949h11.56v6.334h-.555s-.158-5.305-2.771-5.385h-3.404l.079 9.422h1.742s1.029 0 1.029-3.484h.792v8.709h-.712s.237-4.275-1.188-4.275h-1.741v10.373h3.167c3.007-.001 3.086-6.099 3.086-6.099zM100.771 159.52h6.889v.949h-2.058v20.744h2.058v.949h-6.889v-.949h1.981v-20.744h-1.981v-.949zM121.516 160.469c-2.771 0-2.771 1.9-2.771 1.9v3.168c0 1.107 1.188 2.453 1.188 2.453l3.721 4.75s1.188 1.109 1.188 4.672c0 3.879-1.188 4.83-4.828 4.83h.633l-.713-.08-3.959.08v-6.414h.555s.158 5.385 2.771 5.385h.791c1.188-.158 1.822-.871 1.822-3.562 0-2.377-.555-3.406-.555-3.406l-4.117-5.225s-1.268-1.82-1.268-3.721v-2.059.396c0-4.197 2.852-4.117 2.852-4.117h6.016v6.334h-.475c-.002.001-.16-5.304-2.851-5.384h-.791.791zM75.912 171.236v-1.82h-5.701v-5.779H68.39v5.779h-5.779v1.82h5.779v5.78h1.821v-5.78h5.701z"/><path d="M140.121 89.53a1.867 1.867 0 0 1-.713.633c-.395.238-.871.159-1.266-.079-.08-.079-.238-.158-.158-.316.078-.079.078-.158.158-.237h-2.297c.08 0 .08 0 .08.079 1.424.633 2.611 2.059 4.354 1.821.871-.158 1.426-.871 1.742-1.583.08-.158.158-.237.158-.316h-2.058v-.002zm4.197 0c-.08.079-.08.237-.16.316l.16.079c.316-.079.633-.237.949-.396h1.346a7.022 7.022 0 0 1-.791.475c.475.871.871 1.742 1.107 2.692.158.079.396.237.396.475-.08.159-.316.238-.475.238l-1.98-.396c-.078 0-.236-.158-.158-.316 0-.238.238-.158.316-.396-.078-.554-.316-1.109-.553-1.663-.158 0-.396 0-.477.158l-.158 1.267c.158.158.396.317.316.476-.078.158-.236.237-.316.316l-1.979-.475c-.238-.079-.238-.317-.158-.475l.475-.237c.08-.634.316-1.425.396-2.138h1.744zm6.651 0c-.08.475-.555.712-.951.871v-.871h-1.742c.08.95.16 1.979.16 3.009.078.396-.396.237-.396.554 0 .158.078.238.158.317 1.504 0 3.008.079 4.434-.475.396-.237.871-.871.633-1.504-.158-.554-.633-.871-1.188-1.108.316-.159.633-.475.713-.792h-1.821v-.001zm12.191 0a25.054 25.054 0 0 1-3.721 2.454c-7.205 4.118-17.576 3.483-24.307-1.504-.475-.317-.871-.634-1.346-.95h-.475a22.378 22.378 0 0 0 4.672 3.009c8.629 4.276 18.605 2.85 25.73-3.009h-.553zm1.664 0c-2.613 2.296-5.781 4.117-8.867 5.067-6.969 2.534-16.627.871-22.328-3.879-.475-.396-.949-.792-1.426-1.188h-.395c.395.396.791.712 1.188 1.108 5.779 4.908 15.201 6.809 22.406 4.434 3.641-1.029 7.047-3.009 9.816-5.542h-.394zm.791 0a24.432 24.432 0 0 1-9.5 5.7c-7.602 2.692-17.895.634-23.832-4.83-.316-.317-.633-.554-.949-.871h-.555c5.779 5.859 15.914 8.708 23.91 6.413a25.417 25.417 0 0 0 11.48-6.413h-.554v.001zm-14.646 3.009c-.238.079-.555.158-.793 0-.078-.396 0-.95-.078-1.347.395 0 .713-.475 1.107-.158.158.238.238.476.238.713a.873.873 0 0 1-.474.792z" fill="#864194"/><path d="M139.014 80.741c-.158.238-.318.475-.158.871.236 1.029 1.582 1.504 1.188 2.771 0 .237.158.475.395.634 3.01 1.741 6.889 2.771 10.451 2.216.633-.079.791-.792.951-1.267.711-.475 2.217-.633 2.295-1.9-.158-.476-.791-.792-.555-1.426l.238-.158 8.709 1.742 3.088 2.85c-.713.871-1.584 1.663-2.455 2.455h.555c.158-.159.316-.317.555-.476.633-.633 1.346-1.187 1.82-1.979a63.394 63.394 0 0 1-3.324-3.087c-2.852-.634-5.859-1.109-8.709-1.821l.475-.396 8.551 1.583.158-.079c.633-.792 1.266-1.663 1.742-2.534h-.318c-.475.792-1.029 1.583-1.662 2.217a111.63 111.63 0 0 1-8.393-1.583c0-.159-.078-.396-.236-.634h-.793c.238.159.318.396.08.634-.396.237-.791.237-1.109.396-.078.238.477.079.396.317l-.871.079-3.641-.396c-1.268-.396-2.771-.633-4.039-1.029h-3.643c.318.159.635.317.951.317.078.237.078.554.396.633.553-.158.711.554 1.188.712.869-.079 1.346.634 2.137.555.08-.08 0-.238.08-.317 1.029.555 2.137 1.109 3.324.555.793.316 1.584.475 2.455.554.555-.08 1.107-.396 1.662 0 .158.079.238.158.316.396-.078.554-.713.554-1.107.633-.713-.08-1.426 0-2.139.079-.158.159-.236.317-.475.396.396.079 1.029.396 1.504.158.316-.237.633-.158 1.029-.237-.316.633-1.029.633-1.662.554-.08 0-.316-.079-.316.08l.078.317c-.553.158-1.346.237-1.82-.159-.08-.079-.08-.317.08-.396.236-.316.869.158.869-.396-.553-.158-1.188-.158-1.74-.158-.238.237.158.475.158.712-.635.317-1.426-.079-2.139-.079-.158-.079-.396-.237-.475-.475-.08-.079.158-.238.238-.238.236-.079.633.238.711 0 .08-.238-.158-.238-.316-.238-.633-.079-1.346-.158-1.979-.396-.08 0-.158.079-.08.158.158.237.396.317.555.555-.475.237-1.188 0-1.82-.159l-.08-.396c-.871-.396-2.217-.633-2.217-1.9 0-.554-.713-.712-.949-1.187-.08-.238-.158-.475-.08-.634h-.078v.001zm27.234 0v.238c.871.554 1.742 1.108 2.693 1.425.078-.158.316-.158.395 0-.316.871-.791 1.742-1.584 2.455-.553.317-1.266.396-1.898 0-.635-.317-1.029-1.108-.951-1.742.08-.95.633-1.742 1.188-2.375h.157v-.001zm2.375 0c.318.159.713.238 1.029.317.158 0 .238-.238.396-.158 0 .396-.158.792-.396 1.029-.236.079-.078-.159-.236-.317l-2.139-.871h1.346zm2.375 0c-.711 1.742-1.582 3.405-2.691 4.83a20.498 20.498 0 0 1-3.482 3.959h.395c1.9-1.821 3.562-3.88 4.83-6.176.475-.871.871-1.742 1.268-2.613h-.32zm.635 0c-.316.713-.635 1.425-.951 2.138-1.266 2.455-3.008 4.671-5.066 6.651h.555c2.533-2.455 4.512-5.463 5.857-8.789h-.395zm-40.854 8.789c-.158-.159-.316-.317-.396-.476-2.375-2.533-4.117-5.304-5.305-8.313h.316c1.268 3.247 3.326 6.255 5.939 8.789h-.554zm1.03 0c-2.691-2.455-4.75-5.542-6.098-8.789h.318c.316.713.633 1.504 1.029 2.217.553.871 1.107 1.9 1.74 2.691.951 1.425 2.139 2.692 3.404 3.88h-.393v.001zm1.503 0c-2.691-2.375-4.988-5.463-6.414-8.789h.396c1.346 3.326 3.721 6.413 6.492 8.789h-.474zm2.534 0c-.078-.159-.078-.317.08-.396.316-.079.553-.237.713-.554l1.504-2.613c.158-.317-.316-.712.236-.792 1.188.633 2.613 1.108 3.564 2.296a2.36 2.36 0 0 1 .236 2.059h-2.059c.475-.476.633-1.108.555-1.821-.08-.396-.396-.871-.791-.95-.713.871-1.189 1.821-1.742 2.771h-2.296zm6.73 0c.158-.555.158-1.029.158-1.504-.08 0-.158-.079-.238-.238 0-.158.08-.316.316-.316l2.059.396c.158.158.08.316 0 .475l-.316.159c-.078.396-.158.712-.236 1.029h-1.743v-.001zm2.692 0c.396-.238.633-.476.949-.713.08-.237-.236-.396-.078-.633.555 0 1.268.079 1.662.396l.475-.158 3.564-.238c.475.079.869.475.949.95v.396h-1.82v-.079c0-.238 0-.554-.318-.634-.236 0-.475 0-.633.237v.476h-1.742c0-.159-.078-.317-.078-.476l-.316-.237c-.475.158-.871.396-1.268.713h-1.346zm-4.038-7.047c-.635-.237-1.426-.396-1.506-1.188.477-.792.477.475.871.554.238.238.555.396.793.475.079.159-.079.159-.158.159zm1.03 1.663c-.396-.317-1.506-.158-1.268-.95-.158-.237-.475-.237-.475-.555.316 0 .396.317.713.396.633.475 1.582.554 2.137 1.029-.236.238-.791-.158-1.107.08zm9.183-2.296c-1.426-.237-2.93-.316-4.355-.792l-.078-.079.236-.079c1.584.316 3.484.871 5.068.475-.396.158-.396.712-.871.475zm15.834 2.454c-.791 0-1.504-.316-1.82-1.108-.158-.396 0-.871.236-1.267l.16-.08 2.533 1.346c.158.396-.238.633-.475.871l-.634.238z" fill="#864194"/><path d="M129.434 76.308l.078.475a.17.17 0 0 1-.158.158l-.396-.158-2.691.396c-.236 0-.236.476-.475.238-.08-.317-.158-.712-.238-1.108h3.88v-.001zm11.242 0c.078.159.078.396.078.554-.236.634-1.107 1.029-1.424 1.663l-8.551-1.742c-.08-.158-.158-.316-.158-.475h-.316c.078.238.158.554.236.792l8.789 1.663c0 .237.078.475 0 .554l-8.473-1.583-4.512 1.583v.079c.158.475.316.871.553 1.346h.396l-.475-1.188 4.117-1.504c2.93.555 5.859 1.108 8.551 1.584.078.475-.238.792-.475 1.108h.078c.08-.079.08-.079.08-.158.553-.396 1.107-.158 1.582.158h3.643c-.475-.158-.871-.316-1.266-.554-.238-.079-.318.396-.635.238-.316-.159-.791-.159-.791-.633 0-.158.078-.238.238-.317.236 0 .633.159.711-.158.635-.08 1.109.633 1.742.475.08-.079.08-.158.08-.238-.713-.237-1.346-.792-1.98-1.188-.078.158-.236.396-.475.475-.158-.237-.555-.237-.791-.158-.316.158-.477.712-.951.396-.158-.396-.316-1.029 0-1.425.158-.317.635-.238.951-.555.713-.158 1.346.476 2.059.555.236.158.316.396.395.554-.078.159.08.238.158.317.158.08.316-.079.396-.158 1.188.079 2.375.475 3.404.633v.079c0 .158-.158.079-.316.158.238.555.791 0 1.268.08.711-.08 1.346.396 1.979-.08.158.08.316 0 .396.08 0 0-.08.079-.08.158.316.396.871.079 1.268.317l.949.316c.08.238.316.396.475.633h.793c-.396-.712-1.188-1.346-.08-1.979.396-.238.871-.634.793-1.188 0-.476-.477-.792-.713-1.267h-.316c.078.079.078.159.158.238.316.237.395.712.316 1.029-.158.633-.793 1.188-1.504 1.267a3.856 3.856 0 0 1-1.348 0c-.158.079-.158.316-.395.158-.08-.237-.316-.316-.475-.316-.396.316-.871 0-1.268.079-.871-.475-2.059-.555-2.93-.871-1.584.079-3.246-.237-4.354-1.188-.158 0-.316 0-.316-.158.236-.238.553.079.869.079.16 0 .08-.317.318-.158-.158.158.078.396.236.396.713.158 1.426.396 2.059.237.475.555 1.109-.079 1.584-.158-.555-.237-1.109-.237-1.504-.633h-.477c-.078.079-.158.079-.158.238-.395.079-.791-.079-1.188-.238h-3.003v-.001zm25.73 0c-.395 1.583-1.029 3.088-1.742 4.434h.318a17.765 17.765 0 0 0 1.74-4.434h-.316zm1.981 0c.475.317 1.188.238 1.74.396.396 0 .951.316 1.189-.158 0-.079.078-.079.158 0 .078.316 0 .792-.238 1.108-.158 0-.158-.238-.316-.317-1.029-.159-2.139 0-2.93-.792-.078-.079-.078-.159-.078-.238h.475v.001zm3.879 0c-.316 1.504-.713 3.009-1.268 4.434h.318c.553-1.425 1.029-2.929 1.266-4.434h-.316zm.632 0c-.236 1.504-.713 2.929-1.266 4.434h.395c.555-1.425.951-2.929 1.268-4.434h-.397zm-47.82 4.433a28.565 28.565 0 0 1-1.346-4.434h.396c.236 1.504.711 3.009 1.266 4.434h-.316zm.633 0c-.553-1.425-.949-2.929-1.266-4.434h.236c.318 1.504.713 3.009 1.348 4.434h-.318zm40.379 0v-.079c.08 0 .08 0 .158.079h-.158zm1.187 0l-.871-.396c-.158-.159-.078-.317 0-.475 1.188-.396 2.375-.634 3.564-1.029v-.079l-2.219-.871c-.236 0-.316.316-.553.237 0-.475.316-.792.475-1.188.316.079.078.317.238.396.949.396 1.82.95 2.85 1.108.078-.079.158-.158.316-.158.238.237-.08.554-.158.871l-.238.317c-.871.396-1.9.633-2.85.871.238.158.475.237.791.396h-1.345zm-13.933-2.296c-1.346 0-2.613-.396-3.959-.475-.158-.316-.475-.079-.713-.079-.475-.158-1.029-.237-1.504-.554.555-.238 1.188-.159 1.742 0l1.82.159.158-.08c.951.317 1.82.238 2.771.396.158-.079.316-.079.475-.237.158-.159 0-.317-.078-.396.236-.079.316.159.395.238-.158.553-.633.87-1.107 1.028z" fill="#864194"/><path d="M125.475 71.874v.079c.316.238.713.159 1.107.159 0-.08.08-.159.08-.238h.396v.238c.475.079.949.079 1.424 0 0-.08.08-.159.08-.238h.475c-.08.475-.08.871-.08 1.267l-.078.079c-.238.079-.238-.159-.396-.238-1.029-.079-2.059-.079-3.008.079-.08 0-.08.159-.238.159-.078-.079-.158-.159-.158-.238.08-.396.08-.712.08-1.108h.316zm15.675 0l.238.475c-.158 1.108-2.217 1.346-1.426 2.771.238.396.555.792.713 1.188h2.93c0-.238.316-.079.475-.238-.396-.475-1.268-.316-1.82-.633l-1.506-.713c-.395-.158-.158-.554 0-.792.318-.238.871-.554.793-1.029-.08-.317-.08-.554-.08-.871.08-.079.158 0 .238.08.158.237-.08.871.475.792.316-.554.793.238 1.268.238.871.237 1.82.158 2.691.237.475-.475 1.268 0 1.742.079l.236.237c1.188.238 2.533.317 3.723.792.158-.079.078-.317.078-.396.316-.158.555.158.871.237l.08.08c-1.029.871-2.377-.08-3.564-.159-1.107-.158-2.137-.475-3.166-.554-.713.554-1.742.238-2.613-.079-.236-.079-.395-.554-.713-.237-.158.316.238.396.396.554.791.316 1.662.633 2.375.712.238-.317.713-.158 1.029-.158 1.662.237 3.484.712 5.146.95.633-.396 1.346-.238 2.059-.317-.08.396 0 .871.238 1.188h.316c-.08-.159-.08-.396-.08-.554.396-.95 1.664-1.267 1.584-2.296-.238-.554-.475-1.108-.791-1.583h-.318c.318.475.555.95.555 1.504-.078.158-.158.396-.395.237-.16-.316-.16-1.029-.793-.871-.078.079-.078.159-.078.317.158.159 0 .238-.08.396-.791 0-1.742-.396-2.613-.237-.236-.476-.553 0-.949 0-.475.554-1.268.079-1.9-.079-.475 0-.316-.871-.949-.634-.555.158-1.268-.633-1.348.237-.475.238-.869-.237-1.346-.237-.078-.079 0-.158 0-.316.316-.079.871.316.951-.159l-.238-.079c-.078 0-.236-.079-.316-.079h-4.118v-.001zm25.891 0c0 1.504-.238 3.008-.635 4.434h.316c.396-1.425.635-2.929.635-4.434h-.316zm3.008 0a.711.711 0 0 1-.475.475c-.316 0-.555 0-.793-.237-.078-.08-.078-.159-.158-.238h-.395c.078.317.158.554.236.871.238.317.555.476.951.476.475 0 .711-.476.949-.792l.396.316c.236.238.713.238 1.029 0 .158-.237.316-.554.316-.871h-.555c-.078.079-.158.158-.316.158s-.316 0-.396-.158h-.789zm2.691 0a20.55 20.55 0 0 1-.475 4.434h.316c.316-1.425.475-2.929.475-4.434h-.316zm.635 0c0 1.504-.16 3.008-.477 4.434h.396c0-.159.08-.396.08-.554.236-1.346.316-2.612.316-3.879h-.315v-.001zm-49.643 4.434c-.238-1.425-.396-2.929-.396-4.434h.316c0 1.504.16 3.008.477 4.434h-.397zm.713 0a20.599 20.599 0 0 1-.475-4.434h.316c0 1.504.158 3.008.395 4.434h-.236zm1.108 0c-.158-.95-.236-1.9.713-2.534.396-.396.951-.316 1.504-.316.713.158 1.268.633 1.426 1.425l.238 1.425h-3.881zm4.752 0c-.396-1.425-.635-2.85-.635-4.434h.316c0 1.504.16 3.008.635 4.434h-.316zm15.201 0s-.08 0-.08-.079c-.078.079-.238.079-.396.079h.476zm22.406 0c-.238-.633-.08-1.425.158-2.059.316-.316.553-.633.949-.633.791-.079 1.742.317 2.533.396.158-.079.238-.317.396-.159h.078c0 .475-.158.871-.236 1.267-.08.159-.238.08-.316 0-.238-.396-.793-.396-1.348-.554-.633-.079-1.346-.396-1.74.158-.316.396-.316.792-.238 1.188.08.158.158.317.238.396h-.474zm-39.824-.238l-2.139.238c-.238-.317-.08-.871.08-1.267.316-.475 1.029-.792 1.662-.713.396 0 .791.159 1.029.475.158.316.396.634.236 1.029l-.868.238z" fill="#864194"/><path d="M129.354 67.52c.08.475-.078.95-.236 1.425-.238.317-.555.633-.951.712-.871.159-1.662-.237-2.533-.396-.238 0-.396.316-.555 0l.316-1.188c.316-.079.158.237.396.316.949.159 2.375 1.029 3.088 0 .078-.316.158-.633.078-.871h.397v.002zm12.906 0c.158.237.316.475.316.712.158.396.316.792.158 1.188.078.079.238-.079.316-.158.158-.158.08-.634.396-.634l1.346.396c0 .316-.08.633 0 .95.475.396 1.107.792 1.662 1.109.08 0 .158 0 .238-.08-.238-.633-1.268-.712-1.268-1.504.633.079 1.268.396 1.98.555-.08.079-.396.158-.238.396.555.554 1.504.158 2.217.396.633.158 1.188.792 1.742.158 1.188 0 2.217.712 3.324.475.158.158.238.316.316.396h.318c0-.08-.08-.159-.158-.238-.318-1.346 1.82-1.108 1.424-2.375-.395-.475-.555-1.108-.395-1.742h-2.613c.475.079.871.158 1.266.158-.475.079-1.107 0-1.582.079.078.158.236.158.395.238.793 0 1.584.158 2.375.396.08.475.555.792.238 1.267-.158.159-.316.238-.475.238 0-.158 0-.396-.158-.554h-.158c.158.633-.396 1.108-.871 1.504-1.109.396-2.375-.238-3.562-.317-.871-.554-2.059-.475-2.93-.95.871-.316 1.979 0 2.93.159l.236.158c0 .159-.316.159-.316.396 1.268.316 2.691.237 3.879 0 .08-.079.08-.158.08-.237-.316-.159-.713.158-1.029.079-.633-.079-1.504-.159-1.98-.476.318-.158.713-.079.951-.316-.158-.316-.555.079-.871 0-1.742-.237-3.324-.792-5.066-1.029l-2.297-.554c-.078-.079-.078-.158-.158-.237h-.475c0 .079-.08.079-.158.158 0-.079 0-.079-.08-.158h-1.265v-.002zm8.867 0c.316.079.553.158.713 0h-.713zm15.518 0c.078.396.158.792.238 1.267.158.95.236 2.059.158 3.088h.316v-1.504c-.08-.95-.238-1.9-.396-2.85h-.316v-.001zm3.959 0c-.316.396-.633.792-1.029 1.108l.078.159c.713-.316 1.664-.079 2.059-.871.316.159.316.634.316 1.029l-.078.08-.316-.159c-1.109.159-2.139.475-3.246.633-.158 0-.238-.158-.238-.316.475-.555.871-1.108 1.346-1.663h1.108zm1.9 0c.236 1.425.316 2.929.236 4.354h.316c.08-1.425-.078-2.93-.316-4.354h-.236zm.553 0c.238 1.425.318 2.929.318 4.354h.316c0-1.425-.08-2.93-.316-4.354h-.318zm-49.721 4.354c-.078-1.425.08-2.93.316-4.354h.318a27.465 27.465 0 0 0-.318 4.354h-.316zm.635 0c-.08-1.425.078-2.93.316-4.354h.316c-.238 1.425-.316 2.929-.316 4.354h-.316zm1.187 0c0-.554-.08-1.108 0-1.663.158-.079.395-.158.553-.079l.158.079c-.395.475-.316 1.108-.395 1.663h-.316zm1.504 0c.078-.396.078-.871-.158-1.267.158-.158.475-.158.713-.079.078.158-.08.396-.08.555l-.078.792h-.397v-.001zm1.9 0c.158-.396 0-.792-.08-1.188-.078-.316-.316-.396-.236-.712.158-.158.475-.079.633 0l.158.317v1.583h-.475zm1.108 0c0-1.425.158-2.93.477-4.354h.316c-.316 1.425-.555 2.929-.477 4.354h-.316zm15.598 0c-.871-.08-1.742-.475-2.533-.712-.238-.238-.475-.476-.871-.476 0 .08-.08.159-.158.238-.238-.158 0-.475.078-.633.08 0 .16-.079.16-.079-.318 0-.793.316-1.029.633-.16.396 0 .712.236 1.029h4.117zm22.961 0c-.08-.633 0-1.346 0-2.059.158-.079.236.158.316.238 1.107.079 2.059 0 3.088-.159.158 0 .078-.238.316-.158h.078c-.078.712.158 1.504.08 2.138h-.555c.238-.238.158-.712.08-1.029-.396 0-.793 0-1.188.079v.396c.078.237.236.475.395.554h-.791c.078-.159.078-.317 0-.554.078-.871-.949-.237-1.426-.317 0 .238-.078.633 0 .871h-.393zm-25.969-1.9l.316-.317-.158.238-.158.079z" fill="#864194"/><path d="M127.059 63.085c-.08.079-.16.238-.16.317.951.396 1.9.871 2.93 1.029.158-.079.318-.317.477-.079-.238.475-.238 1.108-.635 1.346-.236-.079-.078-.396-.395-.476-.871-.316-1.664-.633-2.613-.95-.396.396 0 .792 0 1.188-.238.159-.475-.079-.633-.238l-.08-.158a8.396 8.396 0 0 1 .713-1.979h.396zm3.72 0c-.238.238-.475.317-.713.396-.158 0-.555 0-.475-.238v-.079l1.188-.079zm10.846 0c-.078.317-.316.634.08.792l1.029.396c.158.476.633 1.029 0 1.426.158.316.555-.159.791-.159.316 0 .633-.079.871.159-.078.158-.316.079-.475.237.158.396.713.237 1.029.475.475.238 1.029 0 1.504.158.396 0 .871.317 1.029 0-.949-.475-2.455-.475-3.088-1.504.871.237 1.9.634 2.85.95.555.316 1.029.95 1.822.792.475.159 1.188.159 1.582.554.16 0 .318.08.477.159h.713s.078-.079.078-.159l-.238-.316c.477 0 .713.475 1.268.475h3.009c0-.079 0-.238.078-.317.713.079 1.584.475 2.137-.158.16-.316.08-.95.635-.633l.871.238c.475-.713 1.188-1.426 1.82-2.059-.791-.634-1.742-1.029-2.771-1.267l.238-.238h-.555c-.078.079-.158.079-.238.158-.316-.079-.791-.158-1.029 0-.236.238-.236.555-.395.792l-1.268.317c-.633-.396-1.266-.871-1.979-1.267h-.555c1.742.871 3.168 2.375 5.305 2.296-.08.554-.158 1.188-.475 1.663-2.455.237-3.959-1.663-5.621-3.009-.477-.079-.871-.475-1.188-.95h-.318c.238.317.477.555.713.792-.395.158-.949-.079-1.346-.079a3.184 3.184 0 0 1-1.582-.713h-.396c.078.079.078.079.158.079l.475.317c-1.979 1.109-4.75 1.504-6.889.159l.08-.555h-.236v-.001zm23.436 0c.713 1.425 1.268 2.93 1.584 4.434h.316c-.316-1.504-.871-3.009-1.584-4.434h-.316zm3.88 0c0 .079-.08.079-.08.079.08.396.158.95.633 1.267.08.079 0 .238-.078.238-.238.158-.396.237-.635.158-.158-.158.08-.317.08-.475l-.475-.95-.158-.079-1.109.554c-.078.475.238.871.475 1.267.158.317.713.317.635.634l-.555.158.238.316 2.85-.633c.236-.08.078-.634.395-.476.08.476.477.95.08 1.505-.158.237-.396.554-.633.871h-1.109c.316-.396.633-.871.951-1.267v-.079c-.871.158-1.664.396-2.375.713-.08.158-.08.396-.318.316-.236-.396-.236-.871-.316-1.346a28.923 28.923 0 0 1-1.107-2.771h2.611zm1.504 0l.475 1.188c0 .238-.316.317-.555.396-.395-.159.08-.555-.078-.871 0-.237-.08-.475-.238-.713h.396zm.871 0c.158.634.316 1.188.475 1.742.316.871.555 1.742.713 2.692h.236c-.236-1.504-.633-3.009-1.107-4.434h-.317zm.553 0c.555 1.425.951 2.93 1.188 4.434h.318c-.238-1.504-.635-2.929-1.189-4.434h-.317zm-48.217 4.435c.238-1.504.635-2.929 1.109-4.434h.396c-.158.317-.238.634-.318 1.029-.395 1.108-.633 2.217-.869 3.405h-.318zm.635 0c.078-.713.236-1.504.395-2.217.238-.712.477-1.504.713-2.217h.396a21.501 21.501 0 0 0-1.188 4.434h-.316zm4.67 0c0-.159 0-.317-.078-.396l-.316-.317c-.871-.158-1.742-.396-2.533-.316-.08.079-.16.238-.318.238-.316-.238 0-.792.08-1.108.316-.08.238.396.555.316.949.158 2.217 0 2.771.792.158.237.236.554.236.792h-.397v-.001zm1.189 0c.316-1.504.791-3.009 1.504-4.355l.316-.079c-.633 1.425-1.188 2.93-1.504 4.434h-.316zm13.379 0c-.316-.475-1.504-.396-1.107-1.267.078-.158.316-.158.236-.396-.236.158-.711.396-.633.792-.158.316 0 .554.238.871h1.266zm.713 0c0-.159-.08-.396-.316-.396-.158.079-.158.237-.158.396h.474zm9.739-.871c.08.158.396.079.475.316-.158.237-.395-.159-.713-.159-1.582-.237-3.246-.396-4.908-.871-.236.237-.555.316-.871.158 0-.158-.236-.079-.236-.237.236-.158.949.079.871-.396-1.188.317-2.217-.317-3.168-.792.713.079 1.662-.238 2.375-.555.951.079 1.822.871 2.771.317l2.137.396c.871.554 1.506 1.267 2.297 1.821-.318.002-.714-.157-1.03.002zm1.98-2.138c.158-.079.553-.238.711-.158l-.158.396-.553-.238zm1.82.633l-.951-.237.316-1.029 1.189 1.108c.001.237-.317.079-.554.158zm1.821 1.108c-.475 0-.791-.158-1.188-.237.08-.396.238-.792.158-1.108-.316-.475-1.188-.713-1.266-1.425.711-.158 1.504.238 2.217.317.475.316 1.107.396 1.582.792-.552.553-1.107 1.108-1.503 1.661z" fill="#864194"/><path d="M130.305 58.731c.316.476.791.792 1.346.95.395 0 .713-.079 1.029-.237.236-.158.395-.475.475-.713h.475c-.158.713-.791 1.346-1.504 1.583-.791.238-1.662-.158-2.139-.712-.158-.316-.316-.554-.395-.871h.713zm11.875 0c.08.396.238.871.396 1.267-.951-.159-1.9-.396-2.771-.317l-.08.079c.238.95.477 1.821.477 2.771.395.158.949.237 1.424.396v.158h.238l.238-.871c1.504.713 3.246.476 4.908.238.633-.554.713.317 1.029.633h.396c-.16-.158-.396-.316-.555-.475-.635-1.346-1.268-2.692-2.139-3.88h-.236c.316.396.553.871.871 1.346-.713-.238-1.426-.712-1.9-1.346h-.318c.555.871 1.426 1.505 2.455 1.821l.713 1.425c-.555.316-1.188.396-1.82.475-.635.317-1.109-.396-1.506-.792 0-.396.396-.95-.158-1.188l-.949-.396a6.769 6.769 0 0 1-.396-1.346h-.317v.002zm6.175 0c.238.396.475.713.633 1.108.555 1.109.951 2.296 1.662 3.246h.318l-.238-.475c.791 0 1.504.237 2.217.475h.555c-.475-.237-1.029-.475-1.662-.554-.477-.159-.951-.159-1.426-.238 2.613-1.108 5.779.633 8.234-1.108.316-.317.633-.475.791-.871.158.475.08 1.108.158 1.663-.078.633-.713.95-1.188 1.187l.555-.079c.396-.237.949-.396.871-1.108-.238-.95.158-2.455-.475-3.247h-.238c.158.159.396.396.396.713-.08.554-.396 1.029-.871 1.267-1.346-.633-2.613.475-3.881 1.108-1.504-.237-3.008-.237-4.434.238l-.158-.159c2.139-.712 3.723-2.691 5.859-3.167h-.713c-.871.317-1.662.713-2.375 1.188-.078-.08 0-.159-.078-.317a4.636 4.636 0 0 0 1.188-.871h-.396c-.238.238-.555.396-.791.555-.08-.158-.16-.317-.16-.555h-.236c.078.476.158.95.158 1.426a13.837 13.837 0 0 1-2.297 1.425c.238-1.029.316-1.979.158-2.851h-.316c.08.476.158 1.029.08 1.583a10.243 10.243 0 0 1-.871-1.583h-.316l.475.95c.316.476.555.792.713 1.188l-.158.713c-.475-.871-.871-1.9-1.426-2.851h-.317v.001zm13.618 0c1.188 1.267 2.297 2.771 3.088 4.354h.316c-.791-1.583-1.82-3.008-3.088-4.354h-.316zm3.8 0c-.633.396-1.504.555-2.217.079-.078 0-.158-.079-.158-.079h2.375zm2.456 0c.316.555.633 1.108.791 1.663.08.396-.158.634-.396.792-.395.237-.711.079-1.188-.079-.316.633-.871 1.029-1.107 1.742-.316.079-.396-.475-.555-.634 0-.237-.238-.316-.158-.554.475.317.633-.475.871-.712.396-.396.236-.792-.158-1.029-.396.317-1.109.475-1.109 1.029-.475-.08-.555-.792-.791-1.188.158-.079.236.079.475 0a20.785 20.785 0 0 0 1.82-1.029h1.505v-.001zm.871 0c.871 1.346 1.582 2.851 2.217 4.354h.316c-.555-1.504-1.268-2.929-2.139-4.354h-.394zm.711 0c.793 1.426 1.506 2.851 2.059 4.354h.316c-.158-.396-.316-.871-.475-1.267-.475-1.108-.949-2.138-1.584-3.088h-.316v.001zm-45.049 4.354c.316-.792.633-1.663 1.107-2.533a13.02 13.02 0 0 1 .871-1.821h.555c-.871 1.346-1.584 2.851-2.137 4.354h-.396zm.633 0a27.579 27.579 0 0 1 2.059-4.354h.475c-.869 1.346-1.582 2.851-2.217 4.354h-.317zm1.267 0c.078-.237.236-.475.316-.712.238-.079.475-.079.713 0 .158.396-.316.317-.475.554-.08.079-.08.158-.158.237l-.396-.079zm2.93 0c.158-.316.633-.079.871-.316.395-.158.633-.634.711-1.029 0-.237-.158-.475-.316-.633-1.029-.079-1.107 1.267-2.059 1.425-.316.079-.711-.08-.949-.317-.475-.554-.316-1.346 0-1.9.158-.316.475-.554.791-.633.158 0 .396-.079.477.158-.08.396-.555.238-.713.475-.316.238-.477.475-.555.792 0 .316.238.475.396.633.949.079 1.107-1.108 1.82-1.346.316-.158.713-.079.949.08.396.237.555.712.635 1.108-.158.633-.396 1.188-.871 1.583l-1.187-.08zm2.058 0a18.534 18.534 0 0 1 3.008-4.354h.475c-1.266 1.267-2.295 2.771-3.166 4.354h-.317zm34.678 0c.078-.316.236.079.475 0 .949-.396 1.979-.712 2.771-1.267l.078-.237.158.079.635 1.425h-.396c-.078-.079-.078-.158-.158-.316-.316.079-.633.237-.949.316h-2.614zm-22.803-.712c-.475 0-1.029-.159-1.346-.475.08-.396.475-.237.713-.396l.791-.08c.159.239-.078.556-.158.951zm-.158-1.187c-.475.158-1.107-.079-1.504.475l-.158.95-1.268-.317c-.078-.792-.236-1.583-.395-2.375 1.346.079 2.533.238 3.721.792.395.237-.158.475-.396.475zm.475 1.187c-.078-.079 0-.238.08-.316.158 0 .316.237.475.316-.159.079-.397 0-.555 0zm13.222-.791c-.555.079-1.029.237-1.584.158a5.533 5.533 0 0 1 2.613-.95l.238.159c-.317.316-.792.395-1.267.633zm10.848-1.03c-.555.079-.871-.396-1.109-.792v-.079c.475-.079 1.029-.95 1.346-.316.158.158.316.475.238.712 0 .237-.239.475-.475.475z" fill="#864194"/><path d="M135.688 54.297l.871 1.029c.158.158.396 0 .475.158-.316.317-.633.792-1.107.871-.08-.079-.08-.237 0-.396l-.951-1.108c-.395.475-.871.792-1.346 1.188.238.396.555.792.951 1.108.078 0 .316-.079.395.158-.236.396-.633.633-.949.871-.396 0-.08-.317-.238-.476-.555-.871-1.266-1.583-1.979-2.296-.08 0-.316.079-.316-.079.316-.316.553-.792 1.029-.871-.08.555.475.792.711 1.267a9.034 9.034 0 0 0 1.348-1.108l.078-.159-.158-.158h1.186v.001zm2.058 0c0 .079.08.158.158.238.158-.08.316-.159.396-.238h.791c-.555.396-1.188.713-1.82 1.108l-.238-.079c.316-.396-.158-.633-.236-1.029h.949zm10.768 0l-1.426.317c-.395.316-.475.871-.711 1.267-.713-.316-1.664-.871-2.455-.475l-.316.316-1.426 2.376v.633h.316c-.078-.475 0-.871.396-1.267l.475-.713c.08.634.396 1.347.791 1.979h.318c-.158-.237-.318-.475-.396-.712 0-.238.316-.238.475-.317l.316.159c.158.238.396.554.635.871h.236a9.494 9.494 0 0 0-.791-1.108c-.238-.158-.475-.237-.713-.158l-.316.237c-.238-.475-.475-1.108-.238-1.662.238-.317.475-.396.793-.475 1.9.079 3.008 1.583 3.879 3.167h.316c0-.158-.078-.237-.158-.316a13.936 13.936 0 0 0-1.9-2.375c.238-.396.238-1.109.871-1.188.475-.158.951-.158 1.426-.316-.713 1.425-.396 2.85.158 4.196h.316c-.316-.554-.475-1.188-.555-1.821 0-.159.158-.238.316-.238.713.317.793 1.188 1.029 1.821v.237h.316a6.433 6.433 0 0 0-.869-2.138c-.158-.158-.477-.237-.635-.158-.158 0-.236.158-.316.079 0-.792.238-1.583.713-2.059.238-.158.555-.158.791-.079.951.475 1.268 1.504 1.664 2.455.236.633.475 1.267.633 1.9h.236v-.079c.635-.396 1.189-.871 1.9-1.029-.316.396-.633.792-.949 1.108h.396c.871-.792 1.424-1.821 1.74-2.929.477.317 1.029.712 1.346 1.188-.078.475-.158.871-.395 1.267l-1.426.475h.713c.158 0 .238-.079.316-.079.951-.158 1.742-.396 2.691 0 0 0 0 .079.08.079h.238c-.16-.237-.477-.475-.951-.554s-.871.079-1.346 0c.078-.476.791-1.346.078-1.742l-2.057-1.504c-1.188-.475-2.377.238-3.326.95-.238-.475-.633-1.188-1.109-1.583h-2.133v-.003zm7.125 0c2.375.95 4.514 2.534 6.334 4.434h.316a17.98 17.98 0 0 0-5.938-4.434h-.712zm4.591 0c-.078.158-.158.317-.236.554-.08.159.236.317 0 .475-.475-.079-.951-.396-1.268-.712.08-.238.316-.159.396-.238 0 0 0-.079.078-.079h1.03zm2.852 0c-.396.475-.871.95-1.188 1.504-.396.158-.08.712-.396.871a5.908 5.908 0 0 1-1.107-.871c.078-.317.553 0 .711-.396.318-.396.635-.712.871-1.108h1.109zm1.424 0c-.078.238-.158.475-.395.554a3.812 3.812 0 0 1-.238-.554h.633zm1.109 0a23.277 23.277 0 0 1 3.484 4.434h.395c-.553-.95-1.188-1.9-1.9-2.771l-1.424-1.663h-.555zm.871 0c.078.158.236.317.396.475a28.432 28.432 0 0 1 2.928 3.958h.316c-.949-1.583-1.979-3.088-3.244-4.434h-.396v.001zm-39.746 4.434a26 26 0 0 1 3.326-4.434h.633c-1.346 1.346-2.453 2.851-3.404 4.434h-.555zm.713 0c1.029-1.583 2.139-3.088 3.484-4.434h.475a26.256 26.256 0 0 0-3.246 3.959c-.078.158-.158.316-.238.475h-.475zm2.139 0c-.08-.554.078-1.108.316-1.583.316-.476.791-.792 1.266-1.029.238 0 .477.237.713.316.08.158 0 .237 0 .316-.553 0-1.107-.079-1.424.317-.316.316-.396.792-.396 1.188l.238.475h-.713zm3.562 0c.158-.316.158-.554.078-.871 0-.08.08-.238.16-.238.236 0 .236.317.316.476 0 .237 0 .396-.08.633h-.474zm1.504 0l.475-.475c1.742-1.663 3.643-3.009 5.621-3.959h.793c-2.375 1.029-4.592 2.454-6.414 4.434h-.475zm28.74 0a2.662 2.662 0 0 1-.871-1.346c-.078-.554.08-1.108.396-1.583.395-.475.871-.792 1.424-.871.793 0 1.426.317 1.822.871.713.792.553 2.138-.238 2.771 0 .079-.078.079-.158.158h-2.375zm3.325 0c.238-.158.477-.316.713-.475l.08-.396.236.079c.16.238.318.475.477.792h-1.506zm-11.875-1.425c-.871 0-1.426.712-2.217 1.029l-.713-2.138c.713-.713 1.82-1.267 2.93-1.188.238.158.555.316.555.633-.001.556-.239 1.189-.555 1.664zm9.658 1.109a1.352 1.352 0 0 1-.949-.079c-.238-.158-.396-.317-.475-.634-.158-.712.316-1.346.871-1.742.553-.238 1.188-.554 1.74-.158.238.238.396.475.477.871-.316.791-.793 1.504-1.664 1.742z" fill="#864194"/><path d="M141.15 49.943c.08.079.08.237.158.396-.078.633-.555.871-1.029 1.029-.078-.475-.871-1.267 0-1.425h.08-1.029c-.238.079-.475.237-.713.396-.08.079.158.079.238.079.475.871.869 1.821 1.188 2.692.078.237 0 .475-.158.475-.08-.158-.16-.238-.238-.396-.08-.079-.158-.079-.238 0-.158.475-.633.871-1.107 1.108h.791a5.27 5.27 0 0 0 .871-.554c.396.079.791-.238 1.188-.396.08-.079.238-.158.08-.237-.555 0-.555-.792-.713-1.188l.396-.396c.553.159.869.554 1.188.95.078.158-.318.238-.08.396.475 0 .951-.158 1.346-.475 0-.238-.236-.159-.316-.238l-1.346-1.188.396-.713c0-.158 0-.237-.08-.316h-.873v.001zm4.276 0c0 .079 0 .158.08.158.078 0 .158-.079.236-.158h1.109c.475.475.871 1.108 1.424 1.504.238.317-.236.396-.395.396-.316 0-.871.316-.951-.158l.08-.317a6.3 6.3 0 0 0-1.029-1.029c-.238.079-.238.317-.396.475.08.396-.078.871.316 1.029.158.079 0 .158 0 .237-.475.079-.949.237-1.346.079-.158-.237.238-.316.238-.475l-.238-1.742h.872v.001zm5.779 0c0 .316-.078.554-.236.871-.08.316-.396.554-.713.712-.316.079-.633 0-.951-.158a1.674 1.674 0 0 1-.475-1.425h-.871v.316c.158.634.477 1.188 1.029 1.426.793.396 1.662.316 2.375-.159.396-.396.635-.95.713-1.583h-.871zm1.9 0l-.475 1.9c0 .158.396.237.238.475-.396 0-.951-.079-1.189-.396 0-.237.238-.079.396-.237.158-.555.396-1.188.555-1.742h.475zm1.346 0c.158.475.316 1.029.555 1.425.238-.396.316-.95.475-1.425h.555c-.316.95-.555 1.979-.871 3.009-.158.079-.396 0-.475-.079-.396-.95-.791-1.979-1.188-2.93h.949zm3.326 0c.871.316 1.742.633 2.059 1.663.158.95-.475 1.821-1.188 2.217-1.109.475-2.217-.237-3.088-.712-.158 0-.08-.158 0-.158.158-.079.396-.237.475-.475a24.08 24.08 0 0 0 .871-2.534h.871v-.001zm1.743 0a22.517 22.517 0 0 1 6.096 4.354h.555c-1.664-1.742-3.643-3.167-5.859-4.354h-.792zm1.265 0c2.139 1.188 4.117 2.613 5.701 4.354h.396a26.42 26.42 0 0 0-5.463-4.354h-.634zm-30.719 4.354c1.662-1.663 3.484-3.167 5.543-4.354h.633a24.983 24.983 0 0 0-5.543 4.354h-.633zm.872 0c1.662-1.663 3.562-3.167 5.701-4.354h.791a23.408 23.408 0 0 0-6.018 4.354h-.474zm3.562 0l-.633-.712c-.158 0-.316.079-.316-.079.236-.317.553-.554.949-.792.158 0 0 .237.08.316l1.107 1.267H134.5zm2.297 0h-.08c-.396-.712-.713-1.346-1.188-1.9-.08-.08-.158 0-.238-.08-.158-.158.08-.237.238-.316l2.137-1.346c.16 0 .396.237.477.475-.158.317-.635.079-.951.238l-.791.554.475.95c.396-.238.951-.317 1.109-.792.158-.158.316.079.475.237.078.159.158.317 0 .396-.475-.08-.871.396-1.268.554.158.396.316.713.555 1.029h-.95v.001zm3.957 0c4.672-2.059 9.977-2.217 15.043-.158.16.079.318.079.555.158h-.713c-.395-.158-.791-.237-1.188-.396-4.354-1.425-8.867-1.187-12.904.396h-.793zm9.896 0a2.107 2.107 0 0 0-.949-.237l-1.188.237h2.137zm8.551 0a27.267 27.267 0 0 0 1.584-2.533c-.078-.079-.158-.159-.158-.317.158-.159.316.079.475.079.238.238 1.426.633.396.792-.475.634-.871 1.346-1.268 1.979h-1.029zm2.772 0c.316-.316.555-.633.793-1.029-.238-.316-.635-.396-1.109-.316-.158-.158 0-.317.08-.396.316-.238.713-.238.949.079l1.82 1.504v.158h-.633a1.053 1.053 0 0 0-.395-.475c-.08.159-.238.317-.396.475h-1.109zm-3.959-.87c-.316.158-.871 0-1.188-.159l-.158-.158c.396-.95.713-1.9 1.188-2.771.396 0 .713.237.951.554.316.475.236 1.029.078 1.663-.237.317-.475.712-.871.871z" fill="#864194"/><path d="M135.609 49.943c3.641-2.217 7.838-3.562 11.875-3.562 5.146-.158 9.896 1.108 13.936 3.562h-.635c-5.463-3.009-12.271-4.117-18.131-2.613a22.743 22.743 0 0 0-6.412 2.613h-.633zm1.03 0a20.738 20.738 0 0 1 6.016-2.375c5.701-1.583 12.273-.554 17.656 2.375h-.791a22.126 22.126 0 0 0-7.84-2.454c-4.908-.713-9.896.237-14.25 2.454h-.791zm2.691 0c.555-.316 1.107-.475 1.742-.633.236-.08.553 0 .711.158.16.08.238.317.238.475h-.871s-.078 0-.078-.079c-.238-.237-.477 0-.713.079h-1.029zm5.225 0l-.158-1.029c.08-.237-.475-.158-.238-.396.396-.08.951-.317 1.348-.159-.08.238-.318.633-.158.871 0 .238 0 .476.078.713h-.872zm1.187 0c.396-.396.713-.871.871-1.425-.078-.08-.236-.08-.236-.238.236-.237.711-.237 1.029-.237.078 0 .236 0 .236.158-.078.237-.396.237-.475.475-.158.396-.475.633-.633 1.029.078.079.158.158.316.237h-1.108v.001zm2.217 0c0-.633.316-1.267.793-1.663.633-.475 1.582-.554 2.375-.158.633.396.949 1.108.949 1.821h-.871c0-.554-.078-1.029-.395-1.504-.318-.237-.793-.237-1.109-.158-.316.158-.475.475-.713.712-.078.317-.158.634-.158.95h-.871zm4.672 0c.078-.396.158-.792.238-1.188-.08-.079-.318-.158-.238-.317 1.107-.158 1.504.633 1.82 1.504h-.949l-.238-.475-.078.159-.08.316h-.475v.001zm2.849 0c0-.079 0-.237.08-.316l-.238-.476c.316-.079.793 0 1.109.238-.08.159-.238.159-.316.238 0 .079-.08.158-.08.316h-.555zm1.426 0c-.08-.079-.158-.158-.158-.237s.236-.079.316-.079c.238.158.475.237.713.316h-.871z" fill="#864194"/></g></svg>