<svg xmlns="http://www.w3.org/2000/svg" width="2500" height="2500" viewBox="0 0 192.756 192.756"><g fill-rule="evenodd" clip-rule="evenodd"><path fill="#fff" d="M0 0h192.756v192.756H0V0z"/><path d="M19.001 98.646c.897-15.891 43.286-26.743 94.678-24.239 24.648 1.201 46.887 5.257 63.264 10.906-16.523-6.914-43.863-11.941-74.947-12.91-51.089-1.595-92.948 8.37-93.491 22.257-.214 5.47 6.019 10.733 16.772 15.201-4.248-3.573-6.492-7.365-6.276-11.215z" fill="#38a4b6"/><path d="M179.357 91.334c0-1.294.926-2.3 2.188-2.3 1.246 0 2.186 1.006 2.186 2.3 0 1.297-.939 2.305-2.186 2.305-1.262 0-2.188-1.008-2.188-2.305zm-.521 0a2.705 2.705 0 0 0 2.701 2.705 2.714 2.714 0 0 0 2.715-2.705 2.715 2.715 0 0 0-2.715-2.701 2.706 2.706 0 0 0-2.701 2.701zm1.664 1.583h.521v-1.406h.434l.883 1.406h.551l-.902-1.406c.496 0 .818-.363.818-.873 0-.599-.361-.889-1.088-.889H180.5v3.168zm.521-2.766h.611c.332 0 .654.105.654.464 0 .414-.256.497-.654.497h-.611v-.961z" fill="#818a92"/><path fill="#38a4b6" d="M36.051 89.002l-5.263 22.436h7.013l5.245-22.436h-6.995zM87.285 89.115a8.523 8.523 0 0 0-2.167-.433l-9.389-.02c-3.054-.094-6.034 1.791-7.089 4.676l-.226.678-2.752 11.726c-.264 1.66-.019 3.639 1.451 4.695.869.66 1.981.923 3.056 1h9.897c2.093-.133 4.317-1.039 5.523-2.811a8.65 8.65 0 0 0 1.283-2.525l2.77-11.839c.416-1.981-.377-4.317-2.357-5.147zm-5.073 7.184l-1.828 7.71c-.435.944-1.529 1.51-2.547 1.549l-3.546-.039c-.774-.038-1.434-.811-1.226-1.583l1.81-7.637c.358-1.056 1.471-1.716 2.565-1.735l3.546.037c.811.037 1.492.887 1.226 1.698z"/><path d="M99.141 88.662c-3.225-.149-6.449 2.017-7.316 5.167-.679 2.432-1.867 6.165.604 8.123.886.68 2.017.982 3.111 1.038l7.447.037c1.357.19 1.357 2.396-.037 2.508H89.091l-1.396 5.938 15.763-.019c3.074-.038 5.975-2.187 6.809-5.146.582-2.301 1.658-5.184.131-7.411-.908-1.168-2.396-1.678-3.828-1.753l-7.334.02c-1.188-.113-1.623-1.922-.473-2.431l.453-.171 13.781-.036 1.398-5.865H99.141v.001zM134.234 89.135a5.872 5.872 0 0 0-2.129-.452l-9.389-.02c-3.053-.094-6.033 1.791-7.09 4.676l-.225.678-2.754 11.726c-.262 1.66-.02 3.639 1.451 4.695.869.66 1.982.923 3.055 1h9.898c2.131-.115 4.316-1.039 5.543-2.849a8.217 8.217 0 0 0 1.264-2.487l2.771-11.839c.416-1.982-.377-4.356-2.395-5.128zm-5.023 7.164l-1.812 7.58c-.412.998-1.488 1.658-2.564 1.679l-3.545-.039c-.812-.057-1.434-.905-1.207-1.696l1.791-7.506c.359-1.055 1.471-1.733 2.566-1.752l3.545.037c.829.036 1.453.905 1.226 1.697zM146.438 88.663c-3.055-.094-6.031 1.791-7.09 4.675l-.227.679-6.197 26.501h7.012l3.9-16.753h10.219l1.377-5.863-10.238-.037c.096-1.282.736-2.772 2.092-3.151l.869-.15 13.783.021-3.922 16.853h7.012l3.922-16.874 6.77-.018 1.357-5.882h-30.639v-.001z" fill="#818a92"/><path d="M51.875 88.701c-3.3-.132-6.466 2.129-7.315 5.354l-4.051 17.383 6.955.057 3.544-15.158c.396-1.036 1.489-1.715 2.583-1.735l3.545.039c.829.037 1.469.904 1.226 1.696l-3.528 15.102v.057l6.996-.057 3.921-16.912c.529-1.98-.246-4.488-2.262-5.298a5.675 5.675 0 0 0-2.225-.509l-9.389-.019z" fill="#38a4b6"/></g></svg>