<svg xmlns="http://www.w3.org/2000/svg" width="2500" height="2500" viewBox="0 0 192.756 192.756"><g fill-rule="evenodd" clip-rule="evenodd"><path fill="#fff" d="M0 0h192.756v192.756H0V0z"/><path d="M34.623 101.658h4.358c.586 0 .838-.586.838-.586l4.274-9.639s.168-.335-.251-.335h-1.927c-.335 0-.503.335-.503.335l-2.934 6.622c-.084.418-.419.252-.419.252l-9.136-7.041c-.251-.167-.586-.167-.586-.167H24.23s-.754 0-1.006.587l-4.19 9.555s-.251.418.168.418h1.928c.419 0 .503-.336.503-.336l2.849-6.537c.168-.335.587-.167.587-.167l8.716 6.704c0-.001.335.335.838.335zM167.967 95.037h13.408c.504 0 .252.335.252.335l-.502 1.256s-.168.336-.672.336h-13.324l-.924 2.096s-.25.586.42.586h14.164c.42 0 .252.336.252.336l-.588 1.34s-.166.336-.586.336h-17.014c-2.682 0-1.76-2.264-1.76-2.264l3.268-7.458s.336-.838 1.51-.838h18.02c.502 0 .334.335.334.335l-.502 1.257s-.168.335-.67.335h-13.578c-.67 0-.754.419-.754.419l-.754 1.593zM13.502 91.098c-.587 0-.67.419-.67.419l-4.274 9.639s-.251.502.335.502h4.023c.587 0 .754-.502.754-.502l4.274-9.639s.167-.419-.335-.419h-4.107zM103.012 91.098c-.502 0-.67.419-.67.419l-4.189 9.555s-.336.586.25.586h4.107c.586 0 .67-.502.67-.502l4.275-9.639s.166-.419-.336-.419h-4.107zM132.43 96.965c-.754 1.174-1.76 4.107-1.76 4.107s-.084.334-.502.334c-1.09.084-5.365.504-10.059.504-7.459 0-11.9-1.51-10.141-5.448 1.844-4.107 7.543-5.615 15.002-5.615 5.029 0 7.209.335 7.963.503.334.083.168.251.168.251l-.84 2.011s-.082.167-.334.084c-1.006-.671-2.432-1.09-7.125-1.09-5.447 0-8.213.922-9.555 3.855-1.34 2.933 1.09 3.604 5.699 3.604 3.27 0 4.359-.168 5.281-.336.922-.084 1.508-2.096 1.76-2.766.084-.252.336-.252.336-.252h3.938c.001.002.337.002.169.254zM93.709 91.098H75.02c-.922 0-1.089.67-1.089.67l-4.107 9.304s-.335.586.335.586h3.855c.587 0 .838-.502.838-.502l3.352-7.628s.251-.503 1.006-.503h10.644s1.257-.083.67 1.257c-.586 1.174-1.844 1.174-1.844 1.174h-8.632s-.335-.084-.587.251l-1.173 1.257s-.167.252.084.336l8.549 4.189s.335.168.67.168h7.208c.084 0 .168-.168-.083-.252l-8.465-4.021c-.167 0-.083-.168.084-.168h4.693s3.101.168 4.526-3.018c1.424-3.184-1.845-3.1-1.845-3.1zM138.967 91.517l-2.766 6.37c-1.006 2.18.922 4.023 9.975 4.023 8.883 0 9.555-1.09 10.979-4.107l2.766-6.286s.252-.419-.168-.419h-1.928c-.418 0-.502.419-.502.419l-2.85 6.286c-.67 1.426-1.592 2.18-7.459 2.18 0 0-6.705.334-5.531-2.348l2.598-6.118s.168-.419-.336-.419h-4.021c-.505 0-.757.419-.757.419zM47.865 91.098c-.503 0-.586.419-.586.419l-.587 1.173s-.167.419.335.419h8.549l-3.521 8.047s-.251.502.335.502h3.939c.671 0 .754-.418.754-.418l3.604-8.131h8.297c.336 0 .503-.251.503-.251l.587-1.341s.167-.419-.251-.419H47.865z"/></g></svg>