<svg xmlns="http://www.w3.org/2000/svg" width="2500" height="2500" viewBox="0 0 192.756 192.756"><g fill-rule="evenodd" clip-rule="evenodd"><path fill="#fff" d="M0 0h192.756v192.756H0V0z"/><path fill="#fff" d="M20.25 14.524h152.256v169.728H20.25V14.524z"/><path fill="#cf432a" d="M22.452 8.504h147.999v157.688H22.452V8.504zM24.801 181.169v-2.643l.441-1.028 1.321 3.671h2.35l-2.203-6.02 2.056-4.698h-2.349l-1.616 4.257v-4.257h-2.202v10.718h2.202zM29.353 178.232c0 2.202 1.027 3.23 2.937 3.23 2.202 0 2.937-1.469 2.937-3.23v-7.781h-2.203v8.075c0 .44-.147 1.027-.734 1.027s-.734-.44-.734-1.027v-8.075h-2.202v7.781h-.001zM39.63 181.169h2.35v-10.718h-2.056l.147 6.02-1.762-6.02h-2.202v10.718h2.055l-.147-6.02 1.615 6.02zM42.42 177.646v1.027c0 1.469.881 2.79 2.936 2.79 1.762 0 2.79-1.175 2.79-3.23 0-1.321-.293-2.056-.734-2.643-.587-.44-1.321-.882-2.203-1.469-.44-.293-.587-.587-.587-1.321 0-.44.294-.734.734-.734.734.147.734 1.028.734 1.615h2.056c.147-2.056-.881-3.523-2.79-3.523-1.762 0-2.79 1.027-2.79 3.083 0 .881.294 1.615.587 2.202.44.44 1.028.881 1.762 1.322.587.439 1.174.733 1.174 1.615 0 .587-.147 1.174-.734 1.174-.734 0-.88-.587-.88-1.174v-.734H42.42zM48.587 172.653h1.762v8.516h2.202v-8.516h1.762v-2.202h-5.726v2.202zM54.459 177.646v1.027c0 1.469.881 2.79 2.937 2.79 1.762 0 2.79-1.175 2.79-3.23 0-1.321-.294-2.056-.734-2.643-.587-.44-1.321-.882-2.056-1.469-.44-.293-.734-.587-.734-1.321.147-.44.293-.734.734-.734.734.147.734 1.028.734 1.615h2.056c.146-2.056-.881-3.523-2.79-3.523-1.615 0-2.79 1.027-2.79 3.083 0 .881.294 1.615.734 2.202.293.44.881.881 1.615 1.322.587.439 1.175.733 1.175 1.615 0 .587-.147 1.174-.734 1.174s-.881-.587-.881-1.174v-.734h-2.056zM60.626 172.653h1.762v8.516h2.202v-8.516h1.763v-2.202h-5.727v2.202zM70.61 177.938c0 .588 0 1.615-.734 1.615s-.734-1.027-.734-1.615v-4.404c0-.588 0-1.469.734-1.469s.734.881.734 1.469v4.404zm2.203-4.55c0-2.057-1.028-3.23-2.937-3.23-1.909 0-2.937 1.174-2.937 3.23v4.404c0 2.35.734 3.671 2.937 3.671s2.937-1.321 2.937-3.671v-4.404zM75.896 181.169v-4.552h2.79v-2.202h-2.79v-1.762h3.083v-2.202h-5.285v10.718h2.202zM81.916 181.169v-4.552h2.79v-2.202h-2.79v-1.762h3.083v-2.202h-5.286v10.718h2.203zM88.669 178.232c0 2.202 1.028 3.23 2.937 3.23 2.203 0 2.937-1.469 2.937-3.23v-7.781H92.34v8.075c0 .44-.147 1.027-.734 1.027s-.734-.44-.734-1.027v-8.075h-2.203v7.781zM98.947 181.169h2.35v-10.718h-2.203l.295 6.02-1.762-6.02h-2.204v10.718h2.056l-.147-6.02 1.615 6.02zM105.113 181.169c.734 0 1.322-.146 1.91-.44.734-.587 1.027-1.321 1.027-2.349v-4.846c0-1.028-.146-2.056-1.027-2.643-.734-.44-1.615-.44-2.496-.44h-2.35v10.718h2.936zm-.732-8.81c1.027 0 1.467.146 1.467 1.321v3.523c0 1.469 0 2.203-1.467 2.056v-6.9zM113.924 181.169v-2.643l.586-1.028 1.176 3.671h2.349l-2.203-6.02 2.055-4.698h-2.348l-1.615 4.257v-4.257h-2.203v10.718h2.203z"/><path d="M120.236 181.169l.295-2.056h1.762l.293 2.056h2.203l-2.057-10.718h-2.643l-2.055 10.718h2.202zm1.762-3.965h-1.174l.588-4.845.586 4.845zM125.229 178.232c0 2.202 1.027 3.23 2.938 3.23 2.201 0 2.936-1.469 2.936-3.23v-7.781H128.9v8.075c0 .44-.146 1.027-.732 1.027-.588 0-.734-.44-.734-1.027v-8.075h-2.203v7.781h-.002zM131.689 172.653h1.762v8.516h2.203v-8.516h1.762v-2.202h-5.727v2.202zM137.562 177.646v1.027c0 1.469.881 2.79 2.936 2.79 1.91 0 2.791-1.175 2.791-3.23 0-1.321-.295-2.056-.734-2.643-.588-.44-1.322-.882-2.057-1.469-.439-.293-.734-.587-.734-1.321.148-.44.295-.734.734-.734.734.147.734 1.028.734 1.615h2.057c.146-2.056-.881-3.523-2.791-3.523-1.615 0-2.789 1.027-2.789 3.083 0 .881.293 1.615.734 2.202.439.44.881.881 1.615 1.322.586.439 1.174.733 1.174 1.615 0 .587-.146 1.174-.734 1.174-.586 0-.881-.587-.881-1.174v-.734h-2.055zM149.895 174.121v-.881c0-2.202-1.027-3.083-2.936-3.083-2.057 0-2.938 1.174-2.938 3.377v4.404c0 2.203.734 3.524 2.791 3.524 2.201 0 3.082-1.321 3.082-3.23v-1.321h-2.201v1.027c0 .734 0 1.615-.734 1.615-.588 0-.734-.44-.734-1.027v-5.286c0-.734.146-1.175.734-1.175.439 0 .734.588.734 1.469v.587h2.202zM152.979 181.169v-4.404h1.468v4.404h2.201v-10.718h-2.201v4.111h-1.468v-4.111h-2.204v10.718h2.204zM157.529 178.232c0 2.202 1.029 3.23 2.938 3.23 2.203 0 2.936-1.469 2.936-3.23v-7.781h-2.201v8.075c0 .44-.146 1.027-.734 1.027s-.734-.44-.734-1.027v-8.075h-2.203v7.781h-.002zM166.486 181.169v-2.643l.44-1.028 1.176 3.671h2.349l-2.056-6.02 1.91-4.698h-2.203l-1.616 4.257v-4.257h-2.203v10.718h2.203z" fill="#cf432a"/><path fill="#b1b1b2" d="M30.674 28.913h47.278v87.507H30.674V28.913z"/><path fill="#aaa9aa" d="M30.527 28.766h47.278v87.506H30.527V28.766z"/><path fill="#a4a3a4" d="M30.527 28.766h47.278v87.506H30.527V28.766z"/><path fill="#9b9a9c" d="M30.527 28.766h47.278v87.506H30.527V28.766z"/><path fill="#949395" d="M30.38 28.619h47.278v87.507H30.38V28.619z"/><path fill="#8c8c8d" d="M30.38 28.619h47.278v87.507H30.38V28.619z"/><path fill="#878786" d="M30.38 28.472h47.278v87.507H30.38V28.472z"/><path fill="#807f7f" d="M30.234 28.472h47.277v87.507H30.234V28.472z"/><path fill="#797878" d="M30.234 28.472h47.277v87.507H30.234V28.472z"/><path fill="#706f6f" d="M30.234 28.325h47.277v87.507H30.234V28.325z"/><path fill="#686866" d="M30.087 28.325h47.277v87.507H30.087V28.325z"/><path fill="#60605e" d="M30.087 28.325h47.277v87.507H30.087V28.325z"/><path fill="#585753" d="M30.087 28.179h47.277v87.507H30.087V28.179z"/><path fill="#4d4c4a" d="M29.94 28.179h47.277v87.507H29.94V28.179z"/><path fill="#424140" d="M29.94 28.179h47.277v87.507H29.94V28.179z"/><path fill="#363736" d="M29.94 28.032h47.277v87.506H29.94V28.032z"/><path fill="#262727" d="M29.793 28.032h47.278v87.506H29.793V28.032z"/><path fill="#b1b1b2" d="M77.952 71.932l28.337-43.019h60.197L132.424 72.96l32.594 42.726h-59.463L77.952 71.932z"/><path fill="#aaa9aa" d="M77.805 71.932l28.338-43.166h60.197L132.424 72.96l32.594 42.726h-59.463l-27.75-43.754z"/><path fill="#a4a3a4" d="M77.805 71.785l28.338-43.019h60.197l-33.916 44.047 32.594 42.725h-59.61L77.805 71.785z"/><path fill="#9b9a9c" d="M77.805 71.785l28.338-43.019h60.197l-33.916 44.047 32.447 42.725h-59.463L77.805 71.785z"/><path fill="#949395" d="M77.658 71.638l28.336-43.019h60.199l-33.916 44.194 32.594 42.579h-59.463l-27.75-43.754z"/><path fill="#8c8c8d" d="M77.658 71.638l28.336-43.019h60.199l-33.916 44.047 32.594 42.726h-59.609L77.658 71.638z"/><path fill="#878786" d="M77.658 71.638l28.336-43.166h60.199l-33.916 44.194 32.448 42.726h-59.463L77.658 71.638z"/><path fill="#807f7f" d="M77.511 71.492l28.337-43.02h60.199l-33.918 44.194 32.596 42.579h-59.463L77.511 71.492z"/><path fill="#797878" d="M77.511 71.492l28.337-43.02h60.199L132.129 72.52l32.596 42.725h-59.612L77.511 71.492z"/><path fill="#706f6f" d="M77.511 71.492l28.337-43.167h60.199L132.129 72.52l32.449 42.725h-59.465L77.511 71.492z"/><path fill="#686866" d="M77.364 71.345l28.337-43.02h60.197l-33.916 44.047 32.596 42.727h-59.465L77.364 71.345z"/><path fill="#60605e" d="M77.364 71.345l28.337-43.02h60.197l-33.916 44.047 32.596 42.727h-59.611L77.364 71.345z"/><path fill="#585753" d="M77.364 71.345l28.337-43.166h60.197l-33.916 44.193 32.45 42.727h-59.465L77.364 71.345z"/><path fill="#4d4c4a" d="M77.217 71.198l28.338-43.019h60.197l-33.916 44.047 32.596 42.725h-59.465l-27.75-43.753z"/><path fill="#424140" d="M77.217 71.198l28.338-43.019h60.197l-33.916 44.047 32.596 42.725H104.82L77.217 71.198z"/><path fill="#363736" d="M77.217 71.051l28.338-43.019h60.197l-33.916 44.194 32.447 42.579H104.82L77.217 71.051z"/><path fill="#262727" d="M77.071 71.051l28.337-43.019h60.197l-33.916 44.047 32.594 42.726H104.82L77.071 71.051z"/><path fill="#fff" d="M29.5 28.032h47.277v87.506H29.5V28.032zM76.777 71.051l28.336-43.019h60.199l-34.064 44.047 32.596 42.726h-59.463L76.777 71.051z"/><path d="M165.164 138.884h-9.396v6.46h3.084c-.293 2.056-2.055 3.523-3.523 3.523-3.377 0-4.404-3.964-4.404-8.222 0-5.285 1.32-8.81 3.963-8.81 1.762 0 3.084 1.321 3.523 3.817h6.607c-.881-7.341-4.992-11.158-9.982-11.158-6.756 0-10.865 6.607-10.865 16.297 0 10.425 4.697 15.417 10.131 15.417 3.229 0 5.139-1.762 6.312-3.671l.146 2.937h4.404v-16.59z" fill="#b1b1b2"/><path d="M144.021 140.646c0 10.571 4.846 15.416 10.131 15.416 3.377 0 5.139-1.614 6.314-3.67l.293 3.083h4.404v-16.737h-9.396v6.606h3.084c-.441 2.056-2.203 3.377-3.523 3.377-3.523 0-4.404-3.817-4.404-8.075 0-5.285 1.32-8.81 3.963-8.81 1.762 0 3.084 1.321 3.523 3.817h6.461c-.881-7.341-4.846-11.158-9.836-11.158-6.756 0-11.014 6.608-11.014 16.151z" fill="#aaa9aa"/><path d="M144.021 140.646c0 10.425 4.846 15.416 10.131 15.416 3.23 0 5.139-1.762 6.314-3.67l.293 2.937h4.404v-16.591h-9.396v6.46h2.938c-.295 2.202-2.057 3.523-3.523 3.523-3.377 0-4.258-3.817-4.258-8.075 0-5.285 1.174-8.81 3.963-8.81 1.762 0 2.938 1.321 3.523 3.817h6.461c-.881-7.488-4.846-11.158-9.836-11.158-6.902 0-11.014 6.608-11.014 16.151z" fill="#a4a3a4"/><path d="M144.021 140.646c0 10.425 4.699 15.416 10.131 15.416 3.23 0 5.139-1.762 6.314-3.67l.146 2.937h4.404v-16.591h-9.396v6.46h3.084c-.295 2.056-2.057 3.523-3.523 3.523-3.377 0-4.406-3.964-4.406-8.222 0-5.286 1.322-8.81 3.965-8.81 1.762 0 3.084 1.321 3.523 3.817h6.607c-.881-7.342-4.992-11.158-9.984-11.158-6.753.001-10.865 6.607-10.865 16.298z" fill="#9b9a9c"/><path d="M143.875 140.499c0 10.571 4.846 15.416 10.131 15.416 3.377 0 5.139-1.762 6.314-3.671l.293 3.084h4.404V138.59h-9.396v6.607h3.084c-.441 2.056-2.203 3.377-3.523 3.377-3.525 0-4.406-3.817-4.406-8.075 0-5.286 1.322-8.81 3.965-8.81 1.762 0 3.084 1.321 3.523 3.817h6.461c-.881-7.488-4.846-11.158-9.838-11.158-6.754.001-11.012 6.607-11.012 16.151z" fill="#949395"/><path d="M143.875 140.499c0 10.424 4.846 15.416 10.131 15.416 3.23 0 5.139-1.762 6.314-3.671l.293 2.937h4.404V138.59h-9.396v6.46h2.938c-.295 2.203-2.057 3.524-3.523 3.524-3.379 0-4.26-3.817-4.26-8.075 0-5.433 1.176-8.81 3.965-8.81 1.762 0 2.938 1.321 3.523 3.671h6.461c-.881-7.342-4.846-11.012-9.838-11.012-6.901.001-11.012 6.461-11.012 16.151z" fill="#8c8c8d"/><path d="M143.875 140.352c0 10.571 4.699 15.563 10.131 15.563 3.23 0 5.139-1.762 6.314-3.671l.146 2.937h4.404V138.59h-9.25v6.46h2.938c-.295 2.056-2.057 3.524-3.523 3.524-3.379 0-4.406-3.965-4.406-8.223 0-5.285 1.322-8.81 3.965-8.81 1.762 0 3.084 1.322 3.523 3.818h6.607c-.881-7.342-4.992-11.159-9.984-11.159-6.754.001-10.865 6.609-10.865 16.152z" fill="#878786"/><path d="M143.729 140.352c0 10.425 4.846 15.417 10.131 15.417 3.377 0 5.285-1.762 6.312-3.671l.295 2.937h4.404v-16.591h-9.396v6.606h3.084c-.441 2.056-2.203 3.377-3.523 3.377-3.525 0-4.406-3.817-4.406-8.075 0-5.285 1.322-8.81 3.965-8.81 1.762 0 3.084 1.322 3.523 3.818h6.461c-.734-7.488-4.846-11.159-9.838-11.159-6.755 0-11.012 6.608-11.012 16.151z" fill="#807f7f"/><path d="M143.729 140.352c0 10.425 4.846 15.417 10.131 15.417 3.23 0 5.139-1.762 6.312-3.671l.295 2.937h4.404v-16.591h-9.396v6.46h2.936c-.293 2.202-2.055 3.523-3.375 3.523-3.525 0-4.406-3.964-4.406-8.222 0-5.286 1.176-8.81 3.965-8.81 1.762 0 2.936 1.469 3.523 3.817h6.461c-.881-7.341-4.846-11.158-9.838-11.158-6.901.001-11.012 6.607-11.012 16.298z" fill="#797878"/><path d="M143.729 140.205c0 10.571 4.699 15.563 10.131 15.563 3.23 0 5.139-1.762 6.312-3.671l.148 2.937h4.404v-16.591h-9.25v6.46h2.936c-.293 2.056-2.055 3.523-3.523 3.523-3.377 0-4.404-3.964-4.404-8.222 0-5.286 1.322-8.81 3.965-8.81 1.762 0 3.082 1.321 3.523 3.817h6.607c-.881-7.341-4.992-11.158-9.984-11.158-6.754.002-10.865 6.608-10.865 16.152z" fill="#706f6f"/><path d="M143.582 140.205c0 10.425 4.846 15.416 10.131 15.416 3.377 0 5.285-1.762 6.312-3.67l.295 2.937h4.404v-16.592h-9.396v6.607h3.082c-.439 2.056-2.201 3.377-3.523 3.377-3.523 0-4.404-3.817-4.404-8.075 0-5.286 1.322-8.81 3.965-8.81 1.762 0 3.082 1.321 3.523 3.817h6.461c-.734-7.487-4.846-11.158-9.838-11.158-6.754.001-11.012 6.607-11.012 16.151z" fill="#686866"/><path d="M143.582 140.205c0 10.425 4.846 15.416 10.131 15.416 3.23 0 5.139-1.762 6.312-3.67l.295 2.937h4.404v-16.592h-9.396v6.461h2.936c-.293 2.056-2.055 3.523-3.377 3.523-3.523 0-4.404-3.965-4.404-8.222 0-5.286 1.174-8.81 3.965-8.81 1.762 0 2.936 1.321 3.523 3.817h6.461c-.883-7.341-4.846-11.159-9.838-11.159-6.754.001-11.012 6.609-11.012 16.299z" fill="#60605e"/><path d="M143.582 140.059c0 10.571 4.697 15.562 10.131 15.562 3.23 0 5.139-1.762 6.312-3.817l.146 3.084h4.406v-16.592h-9.25v6.461h2.936c-.293 2.056-2.055 3.377-3.523 3.377-3.377 0-4.404-3.818-4.404-8.075 0-5.286 1.32-8.81 3.965-8.81 1.762 0 3.082 1.321 3.523 3.817h6.607c-.883-7.341-4.992-11.159-9.984-11.159-6.754 0-10.865 6.608-10.865 16.152z" fill="#585753"/><path d="M143.436 140.059c0 10.424 4.844 15.416 10.131 15.416 3.377 0 5.285-1.762 6.312-3.671l.293 2.938h4.406V138.15h-9.396v6.607h3.082c-.439 2.056-2.201 3.377-3.523 3.377-3.523 0-4.404-3.818-4.404-8.075 0-5.286 1.32-8.81 3.965-8.81 1.762 0 3.082 1.321 3.523 3.817h6.459c-.734-7.488-4.844-11.159-9.836-11.159-6.755 0-11.012 6.608-11.012 16.152z" fill="#4d4c4a"/><path d="M143.436 140.059c0 10.424 4.844 15.416 10.131 15.416 3.23 0 5.139-1.762 6.312-3.671l.293 2.938h4.406V138.15h-9.396v6.46h2.936c-.293 2.056-2.055 3.524-3.377 3.524-3.523 0-4.404-3.965-4.404-8.223 0-5.285 1.174-8.809 3.965-8.809 1.762 0 2.936 1.321 3.523 3.816h6.459c-.881-7.341-4.844-11.158-9.836-11.158-6.755.001-11.012 6.608-11.012 16.299z" fill="#424140"/><path d="M143.436 139.911c0 10.571 4.697 15.417 10.131 15.417 3.23 0 5.139-1.763 6.312-3.671l.146 3.084h4.406v-16.738h-9.25v6.606h2.936c-.293 2.056-2.055 3.377-3.523 3.377-3.377 0-4.404-3.817-4.404-8.075 0-5.285 1.32-8.809 3.963-8.809 1.762 0 3.084 1.321 3.525 3.816h6.605c-.881-7.487-4.992-11.158-9.982-11.158-6.754.001-10.865 6.608-10.865 16.151z" fill="#363736"/><path d="M164.432 138.003h-9.396v6.46h3.082c-.439 2.202-2.203 3.523-3.523 3.523-3.523 0-4.404-3.817-4.404-8.075 0-5.433 1.32-8.809 3.963-8.809 1.762 0 3.084 1.321 3.525 3.67h6.459c-.734-7.341-4.846-11.012-9.836-11.012-6.754 0-11.012 6.46-11.012 16.15 0 10.425 4.844 15.417 10.131 15.417 3.377 0 5.285-1.763 6.312-3.671l.293 2.937h4.406v-16.59z" fill="#262727"/><path fill="#b1b1b2" d="M128.752 125.376h-6.459v29.952h6.605v-9.397l-.293-6.901 7.489 16.298h6.314v-29.952h-6.461v9.543l.147 6.754-7.342-16.297z"/><path fill="#aaa9aa" d="M122.293 155.328h6.459v-9.544l-.293-6.754 7.488 16.298h6.461v-30.099h-6.607v9.543l.293 6.901-7.489-16.444h-6.312v30.099z"/><path fill="#a4a3a4" d="M122.145 155.328h6.607v-9.544l-.293-6.9 7.488 16.444h6.461v-30.099h-6.607v9.543l.293 6.901-7.489-16.444h-6.46v30.099z"/><path fill="#9b9a9c" d="M122.145 155.181h6.607v-9.397l-.293-6.9 7.488 16.297h6.313v-29.952h-6.459v9.543l.146 6.754-7.342-16.297h-6.46v29.952z"/><path fill="#949395" d="M122.145 155.181h6.46v-9.543l-.293-6.754 7.489 16.297h6.459v-30.099h-6.606v9.544l.293 6.9-7.488-16.444h-6.314v30.099z"/><path fill="#8c8c8d" d="M121.998 155.181h6.607v-9.543l-.293-6.901 7.489 16.444h6.459v-30.099h-6.606v9.544l.293 6.9-7.488-16.444h-6.461v30.099z"/><path fill="#878786" d="M121.998 155.034h6.607v-9.543l-.293-6.754 7.489 16.297h6.312v-29.952h-6.459v9.544l.147 6.754-7.342-16.298h-6.461v29.952z"/><path fill="#807f7f" d="M121.998 155.034h6.461v-9.543l-.293-6.901 7.488 16.444h6.459v-30.098h-6.607v9.543l.295 6.901-7.489-16.444h-6.314v30.098z"/><path fill="#797878" d="M121.852 155.034h6.607v-9.543l-.293-6.901 7.488 16.444h6.459v-30.098h-6.607v9.543l.295 6.901-7.489-16.444h-6.46v30.098z"/><path fill="#706f6f" d="M121.852 154.888h6.607v-9.544l-.293-6.754 7.488 16.298h6.313v-30.099h-6.461v9.69l.148 6.753-7.342-16.443h-6.46v30.099z"/><path fill="#686866" d="M121.852 154.888h6.46v-9.544l-.146-6.901 7.34 16.445h6.461v-30.099h-6.608v9.543l.295 6.9-7.488-16.443h-6.314v30.099z"/><path fill="#60605e" d="M121.705 154.741h6.607v-9.397l-.292-6.901 7.486 16.298h6.461v-29.952h-6.608v9.543l.295 6.754-7.488-16.297h-6.461v29.952z"/><path fill="#585753" d="M121.705 154.741h6.607v-9.544l-.292-6.754 7.486 16.298h6.314v-30.099h-6.461v9.69l.147 6.754-7.34-16.444h-6.461v30.099z"/><path fill="#4d4c4a" d="M121.705 154.741h6.461v-9.544l-.146-6.901 7.339 16.445h6.461v-30.099h-6.607v9.544l.293 6.9-7.486-16.444h-6.315v30.099z"/><path fill="#424140" d="M121.559 154.594h6.607v-9.397l-.295-6.901 7.488 16.298h6.461v-29.952h-6.607v9.544l.293 6.753-7.486-16.297h-6.461v29.952z"/><path fill="#363736" d="M121.559 154.594h6.607v-9.544l-.295-6.754 7.488 16.298h6.315v-30.099h-6.461v9.543l.146 6.901-7.339-16.444h-6.461v30.099z"/><path fill="#262727" d="M127.871 124.495h-6.312v30.099h6.461v-9.544l-.149-6.901 7.342 16.445h6.461v-30.099h-6.608v9.543l.293 6.901-7.488-16.444z"/><path d="M99.535 142.261c0 10.424 3.67 13.948 10.131 13.948 6.9 0 9.984-4.258 9.984-13.948v-16.885h-6.754v17.912c0 3.23-.734 5.579-3.23 5.579-2.791 0-3.23-2.643-3.23-5.579v-17.912h-6.9v16.885h-.001z" fill="#b1b1b2"/><path d="M99.535 142.261c0 10.277 3.67 13.801 10.131 13.801 6.9 0 9.984-4.11 9.984-13.801v-17.032h-6.902v18.06c0 3.23-.732 5.433-3.082 5.433-2.791 0-3.23-2.496-3.23-5.433v-18.06h-6.9v17.032h-.001z" fill="#aaa9aa"/><path d="M99.535 142.114c0 10.424 3.523 13.947 9.984 13.947 7.047 0 10.131-4.258 10.131-13.801v-17.032h-6.902v18.06c0 3.23-.732 5.433-3.229 5.433-2.791 0-3.23-2.496-3.23-5.433v-18.06h-6.754v16.886z" fill="#a4a3a4"/><path d="M99.389 142.114c0 10.424 3.67 13.947 10.131 13.947 6.9 0 9.982-4.258 9.982-13.947v-16.886h-6.754v17.913c0 3.23-.732 5.579-3.229 5.579-2.791 0-3.23-2.643-3.23-5.579v-17.913h-6.9v16.886z" fill="#9b9a9c"/><path d="M99.389 142.114c0 10.277 3.67 13.801 10.131 13.801 6.9 0 9.982-4.111 9.982-13.801v-17.032h-6.9v18.06c0 3.23-.734 5.433-3.082 5.433-2.791 0-3.23-2.496-3.23-5.433v-18.06h-6.9v17.032h-.001z" fill="#949395"/><path d="M99.389 141.967c0 10.425 3.523 13.948 9.982 13.948 7.049 0 10.131-4.258 10.131-13.801v-17.032h-6.9v17.913c0 3.377-.734 5.579-3.23 5.579-2.789 0-3.229-2.496-3.229-5.579v-17.913h-6.754v16.885z" fill="#8c8c8d"/><path d="M99.24 141.967c0 10.425 3.672 13.948 10.131 13.948 6.902 0 9.984-4.258 9.984-13.948v-16.885h-6.754v17.913c0 3.229-.734 5.579-3.23 5.579-2.789 0-3.229-2.644-3.229-5.579v-17.913H99.24v16.885z" fill="#878786"/><path d="M99.24 141.967c0 10.277 3.672 13.802 10.131 13.802 6.902 0 9.984-4.111 9.984-13.802v-17.031h-6.9v18.06c0 3.229-.734 5.432-3.084 5.432-2.789 0-3.229-2.496-3.229-5.432v-18.06H99.24v17.031z" fill="#807f7f"/><path d="M99.24 141.82c0 10.424 3.525 13.948 9.984 13.948 7.049 0 10.131-4.258 10.131-13.802v-17.031h-6.9v17.912c0 3.377-.734 5.579-3.23 5.579-2.789 0-3.23-2.496-3.23-5.579v-17.912H99.24v16.885z" fill="#797878"/><path d="M99.094 141.82c0 10.277 3.672 13.948 10.131 13.948 6.9 0 9.984-4.258 9.984-13.948v-17.031h-6.754v18.059c0 3.23-.734 5.579-3.23 5.579-2.789 0-3.23-2.643-3.23-5.579v-18.059h-6.9v17.031h-.001z" fill="#706f6f"/><path d="M99.094 141.82c0 10.277 3.672 13.801 10.131 13.801 6.9 0 9.984-4.11 9.984-13.801v-17.031h-6.9v18.059c0 3.23-.588 5.433-3.084 5.433-2.789 0-3.23-2.496-3.23-5.433v-18.059h-6.9v17.031h-.001z" fill="#686866"/><path d="M99.094 141.673c0 10.425 3.523 13.948 9.984 13.948 7.047 0 10.131-4.257 10.131-13.948v-16.884h-6.9v17.912c0 3.229-.734 5.579-3.23 5.579-2.789 0-3.23-2.643-3.23-5.579v-17.912h-6.754v16.884h-.001z" fill="#60605e"/><path d="M98.947 141.673c0 10.278 3.67 13.948 10.131 13.948 6.9 0 9.984-4.257 9.984-13.948v-17.031h-6.754v18.06c0 3.229-.734 5.433-3.23 5.433-2.789 0-3.23-2.496-3.23-5.433v-18.06h-6.9v17.031h-.001z" fill="#585753"/><path d="M98.947 141.526c0 10.425 3.67 13.948 10.131 13.948 6.9 0 9.984-4.258 9.984-13.802v-17.031h-6.9v18.06c0 3.229-.588 5.433-3.084 5.433-2.789 0-3.23-2.496-3.23-5.433v-18.06h-6.9v16.885h-.001z" fill="#4d4c4a"/><path d="M98.947 141.526c0 10.425 3.523 13.948 9.984 13.948 7.047 0 10.131-4.258 10.131-13.948v-16.885h-6.9v17.912c0 3.23-.734 5.58-3.23 5.58-2.789 0-3.23-2.643-3.23-5.58v-17.912h-6.754v16.885h-.001z" fill="#424140"/><path d="M98.947 141.526c0 10.277 3.523 13.802 9.984 13.802 6.9 0 9.984-4.111 9.984-13.802v-17.031h-6.754v18.059c0 3.23-.734 5.433-3.23 5.433-2.789 0-3.23-2.495-3.23-5.433v-18.059h-6.754v17.031z" fill="#363736"/><path d="M98.801 141.38c0 10.424 3.67 13.948 10.131 13.948 6.9 0 9.984-4.258 9.984-13.802v-17.031h-6.9v17.912c0 3.377-.588 5.579-3.084 5.579-2.789 0-3.23-2.495-3.23-5.579v-17.912h-6.9v16.885h-.001z" fill="#262727"/><path fill="#b1b1b2" d="M78.979 133.157h6.167v22.171h6.9v-22.171h6.02v-7.781H78.979v7.781z"/><path fill="#aaa9aa" d="M78.979 133.157h6.167v22.171H91.9v-22.171h6.166v-7.928H78.979v7.928z"/><path fill="#a4a3a4" d="M78.833 133.157h6.166v22.171H91.9v-22.171h6.166v-7.928H78.833v7.928z"/><path fill="#9b9a9c" d="M78.833 133.011h6.166v22.17H91.9v-22.17h6.02v-7.782H78.833v7.782z"/><path fill="#949395" d="M78.833 133.011h6.166v22.17h6.754v-22.17h6.167v-7.929H78.833v7.929z"/><path fill="#8c8c8d" d="M78.686 133.011h6.166v22.17h6.901v-22.17h6.167v-7.929H78.686v7.929z"/><path fill="#878786" d="M78.686 132.864h6.166v22.17h6.901v-22.17h6.02v-7.782H78.686v7.782z"/><path fill="#807f7f" d="M78.686 132.864h6.166v22.17h6.754v-22.17h6.167v-7.928H78.686v7.928z"/><path fill="#797878" d="M78.539 132.864h6.167v22.17h6.9v-22.17h6.167v-7.928H78.539v7.928z"/><path fill="#706f6f" d="M78.539 132.717h6.167v22.171h6.9v-22.171h6.021v-7.928H78.539v7.928z"/><path fill="#686866" d="M78.539 132.717h6.167v22.171h6.753v-22.171h6.168v-7.928H78.539v7.928z"/><path fill="#60605e" d="M78.392 132.57h6.167v22.171h6.9V132.57h6.168v-7.781H78.392v7.781z"/><path fill="#585753" d="M78.392 132.57h6.167v22.171h6.9V132.57h6.02v-7.928H78.392v7.928z"/><path fill="#4d4c4a" d="M78.392 132.57h6.167v22.171h6.753V132.57h6.167v-7.928H78.392v7.928z"/><path fill="#424140" d="M78.245 132.424h6.167v22.17h6.9v-22.17h6.167v-7.782H78.245v7.782z"/><path fill="#363736" d="M78.245 132.424h6.167v22.17h6.9v-22.17h6.02v-7.929H78.245v7.929z"/><path fill="#262727" d="M78.245 132.424h6.167v22.17h6.754v-22.17h6.166v-7.929H78.245v7.929z"/><path fill="#b1b1b2" d="M70.463 155.328h6.901v-29.952h-6.901v29.952z"/><path fill="#aaa9aa" d="M70.463 155.328h6.754v-30.099h-6.754v30.099z"/><path fill="#a4a3a4" d="M70.317 155.328h6.9v-30.099h-6.9v30.099z"/><path fill="#9b9a9c" d="M70.317 155.181h6.9v-29.952h-6.9v29.952z"/><path fill="#949395" d="M70.317 155.181h6.754v-30.099h-6.754v30.099z"/><path fill="#8c8c8d" d="M70.17 155.181h6.901v-30.099H70.17v30.099z"/><path fill="#878786" d="M70.17 155.034h6.901v-29.952H70.17v29.952z"/><path fill="#807f7f" d="M70.17 155.034h6.754v-30.098H70.17v30.098z"/><path fill="#797878" d="M70.023 155.034h6.901v-30.098h-6.901v30.098z"/><path fill="#706f6f" d="M70.023 154.888h6.901v-30.099h-6.901v30.099z"/><path fill="#686866" d="M70.023 154.888h6.754v-30.099h-6.754v30.099z"/><path fill="#60605e" d="M69.876 154.741h6.901v-29.952h-6.901v29.952z"/><path fill="#585753" d="M69.876 154.741h6.901v-30.099h-6.901v30.099z"/><path fill="#4d4c4a" d="M69.876 154.741h6.754v-30.099h-6.754v30.099z"/><path fill="#424140" d="M69.729 154.594h6.901v-29.952h-6.901v29.952z"/><path fill="#363736" d="M69.729 154.594h6.901v-30.099h-6.901v30.099z"/><path fill="#262727" d="M69.729 154.594h6.754v-30.099h-6.754v30.099z"/><path fill="#b1b1b2" d="M68.408 155.328v-6.901H57.836v-4.698H66.5v-7.048h-8.664v-4.405h10.131v-6.9H50.936v29.952h17.472z"/><path fill="#aaa9aa" d="M50.936 155.328h17.472v-7.048H57.836v-4.698h8.517v-7.048h-8.517v-4.258h10.131v-7.047H50.936v30.099z"/><path fill="#a4a3a4" d="M50.936 155.328h17.325v-7.048H57.69v-4.698h8.663v-7.048H57.69v-4.258h10.277v-7.047H50.936v30.099z"/><path fill="#9b9a9c" d="M50.789 155.181h17.472v-6.901H57.69v-4.844h8.663v-6.902H57.69v-4.404h10.131v-6.901H50.789v29.952z"/><path fill="#949395" d="M50.789 155.181h17.472v-7.047H57.69v-4.698h8.516v-7.048H57.69v-4.258h10.131v-7.048H50.789v30.099z"/><path fill="#8c8c8d" d="M50.789 155.181h17.325v-7.047H57.543v-4.698h8.663v-7.048h-8.663v-4.258h10.278v-7.048H50.789v30.099z"/><path fill="#878786" d="M50.642 155.034h17.472v-6.9H57.543v-4.846h8.663v-6.9h-8.663v-4.405h10.131v-6.901H50.642v29.952z"/><path fill="#807f7f" d="M50.642 155.034h17.472v-7.048H57.543v-4.698h8.516v-7.047h-8.516v-4.258h10.131v-7.047H50.642v30.098z"/><path fill="#797878" d="M50.642 155.034h17.325v-7.048H57.396v-4.698h8.663v-7.047h-8.663v-4.258h10.278v-7.047H50.642v30.098z"/><path fill="#706f6f" d="M50.496 154.888h17.471v-7.048H57.396v-4.698h8.663v-6.901h-8.663v-4.405h10.131v-7.047H50.496v30.099z"/><path fill="#686866" d="M50.496 154.888h17.471v-7.048H57.396v-4.698h8.516v-7.048h-8.516v-4.258h10.131v-7.047H50.496v30.099z"/><path fill="#60605e" d="M50.496 154.741h17.325v-6.901H57.25v-4.698h8.662v-7.048H57.25v-4.258h10.277v-7.047H50.496v29.952z"/><path fill="#585753" d="M50.349 154.741h17.472v-7.048H57.25v-4.698h8.662v-7.048H57.25v-4.258h10.13v-7.047H50.349v30.099z"/><path fill="#4d4c4a" d="M50.349 154.741h17.472v-7.048H57.25v-4.698h8.515v-7.048H57.25v-4.258h10.13v-7.047H50.349v30.099z"/><path fill="#424140" d="M50.349 154.594h17.325v-6.901H57.103v-4.845h8.662v-6.901h-8.662v-4.405H67.38v-6.9H50.349v29.952z"/><path fill="#363736" d="M50.202 154.594h17.472v-7.048H57.103v-4.698h8.662v-7.047h-8.662v-4.259h10.13v-7.047H50.202v30.099z"/><path fill="#262727" d="M67.674 154.594v-7.048H57.103v-4.698h8.516v-7.047h-8.516v-4.259h10.13v-7.047H50.202v30.099h17.472z"/><path fill="#b1b1b2" d="M49.174 155.328v-6.901H38.603l10.131-16.151v-6.9h-18.06v6.9h9.691L30.38 148.28v7.048h18.794z"/><path fill="#aaa9aa" d="M30.234 155.328h18.94v-7.048H38.603l10.131-16.004v-7.047h-18.06v7.047h9.544l-9.984 15.858v7.194z"/><path fill="#a4a3a4" d="M30.234 155.328h18.793v-7.048H38.456l10.131-16.15v-6.901H30.674v7.047h9.544l-9.984 15.858v7.194z"/><path fill="#9b9a9c" d="M30.234 155.181h18.793v-6.901H38.456l10.131-16.15v-6.901h-18.06v6.901h9.691l-9.984 16.004v7.047z"/><path fill="#949395" d="M30.087 155.181h18.94v-7.047H38.456l10.131-16.004v-7.048h-18.06v7.048h9.544l-9.984 15.856v7.195z"/><path fill="#8c8c8d" d="M30.087 155.181H48.88v-7.047H38.309l10.131-16.151v-6.901H30.527v7.048h9.544l-9.984 15.856v7.195z"/><path fill="#878786" d="M30.087 155.034H48.88v-6.9H38.309l10.131-16.151v-6.901H30.38v6.901h9.691l-9.984 16.003v7.048z"/><path fill="#807f7f" d="M29.94 155.034h18.94v-7.048H38.309l10.131-16.003v-7.047H30.38v7.047h9.544L29.94 147.84v7.194z"/><path fill="#797878" d="M29.94 155.034h18.794v-7.048H38.162l10.131-16.15v-6.9H30.38v7.047h9.544L29.94 147.84v7.194z"/><path fill="#706f6f" d="M29.94 154.888h18.794v-7.048H38.162l10.131-16.004v-7.047H30.234v7.047h9.69L29.94 147.84v7.048z"/><path fill="#686866" d="M29.793 154.888h18.941v-7.048H38.162l10.131-16.004v-7.047H30.234v7.047h9.543l-9.984 15.857v7.195z"/><path fill="#60605e" d="M29.793 154.741h18.794v-6.901H38.015l10.131-16.151v-6.9H30.234v7.047h9.543l-9.984 15.857v7.048z"/><path fill="#585753" d="M29.793 154.741h18.794v-7.048H38.015l10.131-16.004v-7.047H30.087v7.047h9.69l-9.984 15.857v7.195z"/><path fill="#4d4c4a" d="M29.647 154.741h18.94v-7.048H38.015l10.131-16.004v-7.047H30.087v7.047h9.543l-9.983 15.857v7.195z"/><path fill="#424140" d="M29.647 154.594H48.44v-6.901H37.869L48 131.542v-6.9H30.087v6.9h9.543l-9.983 16.004v7.048z"/><path fill="#363736" d="M29.647 154.594H48.44v-7.048H37.869L48 131.542v-7.047H29.94v7.047h9.69l-9.983 15.857v7.195z"/><path fill="#262727" d="M48.44 154.594v-7.048H37.869L48 131.396v-6.901H29.94v7.047h9.69L29.5 147.399v7.195h18.94z"/><path fill="#fff" d="M47.853 154.007v-7.048H37.282l10.13-16.004v-6.9H29.353v6.9h9.69l-10.13 16.004v7.048h18.94zM67.086 154.007v-7.048H56.515v-4.698h8.516v-6.901h-8.516v-4.405h10.131v-6.9H49.615v29.952h17.471zM69.142 154.007h6.754v-29.952h-6.754v29.952zM77.658 131.836h6.167v22.171h6.754v-22.171h6.166v-7.781H77.658v7.781zM98.213 140.939c0 10.277 3.672 13.948 10.131 13.948 6.9 0 9.984-4.258 9.984-13.948v-16.885h-6.754v17.912c0 3.23-.734 5.579-3.23 5.579-2.789 0-3.23-2.643-3.23-5.579v-17.912h-6.9v16.885h-.001zM127.285 124.055h-6.314v29.952h6.461v-9.544l-.147-6.754 7.34 16.298h6.461v-29.952h-6.607v9.543l.292 6.754-7.486-16.297zM163.844 137.562h-9.396v6.46h3.082c-.439 2.056-2.201 3.523-3.523 3.523-3.523 0-4.404-3.964-4.404-8.222 0-5.286 1.322-8.81 3.965-8.81 1.762 0 3.082 1.321 3.523 3.817h6.459c-.732-7.341-4.844-11.158-9.836-11.158-6.754 0-11.012 6.606-11.012 16.15 0 10.571 4.846 15.563 10.131 15.563 3.377 0 5.285-1.762 6.312-3.671l.295 2.937h4.404v-16.589z"/></g></svg>