<svg xmlns="http://www.w3.org/2000/svg" width="2500" height="2500" viewBox="0 0 192.755 192.756"><path fill="none" d="M0 0h192.755v192.756H0z"/><path d="M31.382 109.705L20.811 94.67l7.998-9.953c.573-.697.255-1.568-.7-1.568h-4.772c-.954 0-1.59.406-2.036 1.045l-7.189 10.402V71.312c0-.756-.699-1.337-1.526-1.337H9.147c-.827 0-1.526.581-1.526 1.337v38.625c0 .755.699 1.337 1.526 1.337h3.438c.827 0 1.526-.582 1.526-1.337v-6.929l2.765-3.44 6.554 10.486c.509.755 1.146 1.22 1.972 1.22h5.153c.954 0 1.336-.872.827-1.569zM78.494 111.042c-1.208.348-2.926.581-4.708.581-4.772 0-6.872-2.266-6.872-6.333V87.797h-2.262c-.828 0-1.464-.639-1.464-1.395v-1.918c0-.756.636-1.335 1.464-1.335h2.262v-5.928c0-.872.317-1.569 1.208-1.802l3.437-.813c1.081-.232 1.844 0 1.844 1.163v7.38h4.19c.826 0 1.463.58 1.463 1.335v1.918c0 .756-.637 1.395-1.463 1.395h-4.19v16.271c0 1.57.764 2.267 2.164 2.267.508 0 1.335-.059 1.908-.175.827-.174 1.336.175 1.527.93l.509 2.383c.129.696-.19 1.336-1.017 1.569zM126.234 110.925c-1.272.464-2.799.698-4.645.698-4.644 0-6.49-2.209-6.49-5.985V71.312c0-.756.701-1.337 1.527-1.337h3.437c.827 0 1.526.581 1.526 1.337v32.756c0 1.511.192 2.267 1.464 2.267.573 0 1.4-.175 2.036-.291.89-.174 1.4.116 1.591.931l.508 2.555c.128.697-.191 1.162-.954 1.395zM156.458 83.148h-4.065c-.828 0-1.604.406-1.948 1.22 0 0-4.548 9.949-8.293 18.037l-6.449-17.98c-.305-.812-.971-1.277-1.861-1.277h-4.201c-.826 0-1.427.58-1.053 1.452l9.611 23.302c.118.275.34.909.618 1.649-.862 1.821-1.431 2.989-1.508 3.058-1.222 2.442-2.876 4.127-5.298 5.172l-.968.409c-.765.348-1.364 1.161-1.103 1.801l1.031 2.63c.251.698 1.035.93 1.79.639l1.508-.581c3.634-1.394 6.49-3.828 8.806-8.616 2.316-4.789 14.245-29.405 14.245-29.405.429-.93-.036-1.51-.862-1.51z" fill="#557795"/><path d="M57.612 100.322l-.105-6.155c-.083-4.826-.826-11.01-11.451-11.373-2.735-.093-3.992.298-5.936.542-.907.102-1.202.584-1.075 1.419l.432 2.628c.13.776.801 1.223 1.771 1.131 1.685-.223 2.162-.639 4.581-.556 4.008.137 4.921 1.504 5.102 4.532.127.122.083 1.108.084 1.282l-6.356.19c-5.974.203-9.871 2.655-9.771 8.472.092 5.35 3.075 8.76 8.42 9.037 3.627.188 10.848.319 12.865-3.009 1.22-2.011 1.431-6.21 1.439-8.14zm-6.467 1.064c.034 1.945-.404 3.285-.862 3.99-.635.974-1.663 1.488-5.151 1.307-1.909-.099-3.584-1.349-3.627-3.907-.067-3.897 2.333-4.833 5.957-4.825l3.625.006.058 3.429zM107.203 100.322l-.105-6.155c-.083-4.826-.826-11.01-11.451-11.373-2.735-.093-3.992.298-5.936.542-.907.102-1.202.584-1.076 1.419l.432 2.628c.13.776.801 1.223 1.77 1.131 1.685-.223 2.163-.639 4.582-.556 4.008.137 4.921 1.504 5.102 4.532.128.122.083 1.108.084 1.282l-6.355.19c-5.974.203-9.871 2.655-9.771 8.472.092 5.35 3.075 8.76 8.419 9.037 3.628.188 10.848.319 12.866-3.009 1.22-2.011 1.431-6.21 1.439-8.14zm-6.468 1.064c.034 1.945-.404 3.285-.862 3.99-.635.974-1.663 1.488-5.152 1.307-1.908-.099-3.583-1.349-3.627-3.907-.067-3.897 2.333-4.833 5.958-4.825l3.625.006.058 3.429z" fill-rule="evenodd" clip-rule="evenodd" fill="#557795"/><path d="M182.487 98.1h-4.708c-.89 0-1.591-.348-1.972-1.047l-5.42-8.919-4.357 8.919c-.339.699-.923 1.047-1.815 1.047h-4.2c-.827 0-1.44-.698-.981-1.453l7.426-13.033-8.34-12.245c-.51-.756-.064-1.394.763-1.394h4.644c.891 0 1.527.289 1.974 1.046l4.941 8.036 3.881-8.036c.379-.757.991-1.046 1.881-1.046h4.199c.827 0 1.392.638.886 1.394l-7.033 12.085 8.995 13.193c.508.697.063 1.453-.764 1.453z" fill="#e9b040"/></svg>