<svg height="866" viewBox="0 0 25.114 8.7" width="2500" xmlns="http://www.w3.org/2000/svg"><path d="m13.691 1.49a.281.281 0 0 1 .19-.097c.06-.007.107.009.107.009s-.025-.185-.308-.232c-.292-.05-.478.045-.682.241-.203.197-.264.607-.269.651s-.007.078.024.084c.032.006.026-.074.105-.103.104-.04.49-.028.616-.162.128-.134.151-.32.217-.391m.139 1.106c-.36-.392-.87-.159-.893-.147s-.026.025.002.034c.027.01.136.026.182.108.045.082.09.343.256.474.166.13.396.129.468.209s.087.15.087.15.32-.366-.102-.828m-1.2.294c-.005-.046-.015-.126-.072-.126-.063 0-.064.086-.067.123-.004.038-.003.179-.027.464s-.107.646-.107.646.102.001.2.027c.1.025.202.076.202.076s-.044-.23-.078-.507c-.034-.275-.047-.654-.052-.703m-.072 1.649a2.11 2.11 0 1 1 0-4.219 2.11 2.11 0 0 1 0 4.219m0-4.539a2.43 2.43 0 1 0 0 4.86 2.43 2.43 0 0 0 0-4.86m-.002 2.61a.186.186 0 1 0 -.004-.371.186.186 0 0 0 .004.371m-.162-.513c0-.112-.072-.487-.308-.73-.232-.237-.452-.24-.629-.198-.177.041-.283.23-.283.23.22-.039.303.168.303.168s.142.264.234.343c.093.08.24.079.366.086.125.008.16.016.198.04.038.025.066.07.074.086.017.03.045.023.045-.025m-.256.328c-.016-.01-.062-.038-.175-.054-.205-.029-.544-.012-.767.242-.37.423-.083.778-.083.778s.028-.115.139-.174c.114-.06.24-.041.382-.125s.16-.143.253-.368c.092-.225.175-.24.233-.245.08-.007.035-.046.018-.054" fill="#e53138"/><path d="m23.87 7.74-.297.26v.693h-.341v-1.978h.341v.865l.994-.865h.47l-.931.817 1.008 1.16h-.416zm-23.232 0-.297.26v.693h-.341v-1.978h.341v.865l.994-.865h.47l-.931.817 1.008 1.16h-.416zm17.317.402-.685-1.424h-.374l.952 1.975h.215l.956-1.975h-.379zm2.86.558h.345v-1.992h-.345zm-6.885-.834h.747v-.324h-.747v-.5h1.235v-.324h-1.575v1.975h1.652v-.324h-1.31zm-2.755.155-1.131-1.303h-.201v1.975h.341v-1.303l1.135 1.303h.197v-1.975h-.341zm-7.496.679h.345v-1.992h-.344zm3.75-.68-1.133-1.301h-.2v1.975h.341v-1.304l1.135 1.303h.197v-1.975h-.342z" fill="#565755"/></svg>