<svg xmlns="http://www.w3.org/2000/svg" width="2500" height="2500" viewBox="0 0 192.756 192.756"><g fill-rule="evenodd" clip-rule="evenodd"><path fill="#fff" d="M0 0h192.756v192.756H0V0z"/><path d="M145.029 88.19c3.76-2.21 10.062-1.608 12.742.693.797.685 1.818 1.606 2.365 2.702.598 1.295.549 2.466-1.494 3.387-1.717.774-2.316-.672-3.811-2.042-2.365-1.992-7.846-1.619-7.846 2.491v5.106c0 2.367.623 3.984 1.619 4.484 2.107 1.053 4.562.518 5.729-.375.996-.797 1.246-2.043 1.246-3.238-.748-.123-3.363.25-3.488-1.867 0-2.865 2.367-2.166 3.488-2.166l3.361-.076c2.117 0 2.117 1.744 2.117 3.363 0 2.242.125 3.859-2.117 6.475-3.156 3.684-9.283 3.908-13.238 1.807-1.787-.949-4.32-2.055-4.32-8.654v-4.983c.001-5.356 2.802-6.61 3.647-7.107zM65.788 89.028c-3.388 3.155-5.579 5.58-8.468 7.97l7.871 9.631c1.396 2.107-2.443 4.795-3.787 3.389-1.375-1.443-8.402-11.025-8.402-11.025-.024-1.486 6.643-10.628 9.299-12.388 2.491-2.392 4.816 1.261 3.487 2.423zM108.725 88.446c1.066-2.24 5.98-2.24 5.98.051l.066 18.714c0 3.902-5.977 4.068-5.977.082v-9.547l-3.32 4.732c-1.164 1.826-2.824 1.494-3.82.332l-3.32-4.982v9.299c0 4.4-6.144 3.82-6.144 0V89.028c0-2.657 4.648-2.823 5.644-1.163l5.979 8.468 4.912-7.887z" fill="#44368a"/><path d="M39.139 115.109c1.178 2.137-1.768 2.062-3.837 2.08l-26.208-.018c-.234 0-.221-.295.381-.482 7.647-2.381 16.205-5.463 25.13-3.584 2.177.459 3.538.61 4.534 2.004z" fill="#ca3f6b"/><path d="M51.23 107.584a2.688 2.688 0 1 1-5.375 0V89.732a2.688 2.688 0 1 1 5.375 0v17.852zM88.37 100.652c0 5.365-4.348 9.715-9.714 9.715-5.364 0-9.713-4.35-9.713-9.715v-3.984c0-5.366 4.349-9.715 9.713-9.715 5.366 0 9.714 4.349 9.714 9.715v3.984zm-5.596-4.799a3.672 3.672 0 0 0-3.671-3.672h-.96a3.672 3.672 0 0 0-3.672 3.672v5.942a3.672 3.672 0 0 0 3.672 3.67h.96a3.671 3.671 0 0 0 3.671-3.67v-5.942zM138.529 100.652c0 5.365-4.348 9.715-9.713 9.715s-9.715-4.35-9.715-9.715v-3.984c0-5.366 4.35-9.715 9.715-9.715s9.713 4.349 9.713 9.715v3.984zm-5.595-4.799a3.673 3.673 0 0 0-3.672-3.672h-.959a3.673 3.673 0 0 0-3.674 3.672v5.942a3.672 3.672 0 0 0 3.674 3.67h.959a3.672 3.672 0 0 0 3.672-3.67v-5.942zM184.252 100.652a9.714 9.714 0 1 1-19.428 0v-3.984c0-5.366 4.35-9.715 9.713-9.715a9.714 9.714 0 0 1 9.715 9.715v3.984zm-5.596-4.799a3.673 3.673 0 0 0-3.672-3.672h-.961a3.673 3.673 0 0 0-3.672 3.672v5.942a3.672 3.672 0 0 0 3.672 3.67h.961a3.672 3.672 0 0 0 3.672-3.67v-5.942z" fill="#44368a"/><path d="M32.51 96.98a6.494 6.494 0 0 1-6.494 6.494h-3.579a6.496 6.496 0 0 1-6.496-6.494v-8.955a6.495 6.495 0 0 1 6.496-6.495h3.579a6.494 6.494 0 0 1 6.494 6.495v8.955zm7.513-6.918c0-8.005-6.323-14.496-14.122-14.496h-3.275c-7.799 0-14.122 6.49-14.122 14.496v5.177c0 8.005 6.322 14.496 14.122 14.496h3.275c7.799 0 14.122-6.49 14.122-14.496v-5.177z" fill="#ce5a36"/><path d="M31.039 89.705a2.872 2.872 0 1 1-5.744 0 2.872 2.872 0 0 1 5.744 0z" fill="#44368a"/></g></svg>