<svg xmlns="http://www.w3.org/2000/svg" viewBox="0 0 52.3 23.9" width="2500" height="1142"><path d="M24.5 6.8L27 4.3c.1-.1.1-.2.1-.3 0-.2-.1-.3-.3-.3h-1.9c-.2 0-.3.1-.4.2L22.4 6V2c0-.2-.1-.4-.4-.4h-1.5c-.2 0-.4.1-.4.4v9.5c0 .2.1.4.4.4H22c.2 0 .4-.1.4-.4V8.7l.5-.4 2.2 3.3c.1.2.4.2.4.2h1.7c.2 0 .4-.1.4-.3 0-.1 0-.1-.1-.2l-3-4.5M29.1 11.9h1.5c.2 0 .4-.1.4-.4v-4c0-1.6.8-1.9 1.5-1.9.5 0 .9.1 1.5.4h.2c.2 0 .3-.1.3-.4V4.3c0-.2-.1-.4-.3-.5-.5-.2-1-.3-1.5-.3-.6 0-1.2.2-1.7.5 0-.2-.2-.3-.4-.3h-1.5c-.2 0-.4.1-.4.4v7.4c0 .2.2.4.4.4M24.5 13.7c-.8 0-1.5.2-2.1.6v-.1c0-.2-.1-.4-.4-.4h-1.5c-.2 0-.4.1-.4.4v7.4c0 .2.1.4.4.4H22c.2 0 .4-.1.4-.4v-3.5c0-1.5.6-2.3 1.6-2.3.4 0 .7.1.8.3.2.2.3.6.3 1.1v4.5c0 .2.1.4.4.4H27c.2 0 .4-.1.4-.4v-5.1c0-1.9-1.1-2.9-2.9-2.9M43.5 13.9c-.5-.2-1-.3-1.5-.3-.6 0-1.2.2-1.7.5 0-.2-.2-.3-.4-.3h-1.5c-.1 0-.2 0-.3.1-.1.1-.1.2-.1.3v7.4c0 .2.1.4.4.4h1.5c.2 0 .4-.1.4-.4v-4c0-.9.2-1.9 1.5-1.9.5 0 .9.1 1.5.4h.2c.1 0 .2 0 .2-.1.1 0 .1-.1.1-.3v-1.4c0-.1-.1-.3-.3-.4M52 13.8h-1.6c-.2 0-.4.1-.4.3l-1.6 4.6-1.6-4.6c-.1-.2-.2-.3-.4-.3h-1.6c-.2 0-.4.1-.4.4v.2l2.8 7.3c.1.2.3.3.4.3h1.7c.1 0 .3-.1.4-.3l2.8-7.3v-.2c-.2-.2-.3-.4-.5-.4M39.1 11.9c2.3 0 4.2-1.9 4.2-4.2 0-2.3-1.9-4.2-4.2-4.2s-4.2 1.9-4.2 4.2c0 2.3 1.9 4.2 4.2 4.2zm0-6.2c1.1 0 2 .9 2 2s-.9 2-2 2-2-.9-2-2 .9-2 2-2zM36.6 18.7h-1.8s-.2 0-.3.2c-.4.6-1 1-1.7 1-1.1 0-2-.9-2-2s.9-2 2-2c.7 0 1.3.4 1.7 1 .1.2.3.2.3.2h1.8s.1 0 .2-.1.1-.2 0-.3c-.5-1.8-2.2-3.1-4.1-3.1-2.4 0-4.3 1.9-4.3 4.3 0 2.3 1.9 4.3 4.3 4.3 1.9 0 3.6-1.3 4.1-3.1v-.2c-.1-.2-.2-.2-.2-.2M8 15.9c-2.9 0-5.5-1.6-6.9-4-.7 1.2-1.1 2.5-1.1 4 0 4.4 3.6 8 8 8s8-3.6 8-8c0-1.4-.4-2.8-1.1-4-1.4 2.4-4 4-6.9 4"/><path d="M8 8c2.9 0 5.5 1.6 6.9 4 .7-1.2 1.1-2.5 1.1-4 0-4.4-3.6-8-8-8S0 3.6 0 8c0 1.5.4 2.8 1.1 4C2.4 9.6 5 8 8 8"/></svg>