<svg xmlns="http://www.w3.org/2000/svg" width="2500" height="2500" viewBox="0 0 192.756 192.756"><g fill-rule="evenodd" clip-rule="evenodd"><path fill="#fff" d="M0 0h192.756v192.756H0V0z"/><path d="M37.98 116.896H24.043l-8.109-19.072h-.128v19.072H2.834V75.371h12.971v17.613h.128l7.08-17.613h13.745L26.406 95.352l11.574 21.544zm5.42 0V75.371h12.596c6.825 0 11.758 1.074 14.815 3.229a10.787 10.787 0 0 1 3.448 4.076c.798 1.639 1.197 3.532 1.197 5.688v.64c0 5.399-2.506 8.93-7.512 10.604l9.755 17.289H63.57l-7.2-17.131v17.131H43.4v-.001zm12.971-22.377h.623c1.668 0 2.945-.44 3.839-1.315 1.062-.97 1.589-2.251 1.589-3.849 0-1.053-.248-1.969-.75-2.74-.495-.771-1.205-1.383-2.116-1.831-.791-.337-1.684-.51-2.682-.51h-.503v10.245zm64.328 22.377V75.371h13.1c3.592 0 6.785.42 9.57 1.267 2.723.771 4.98 2.21 6.77 4.331.854.998 1.5 2.189 1.947 3.559.447 1.371.67 2.913.67 4.614 0 3.876-1.262 7.188-3.775 9.95-1.221 1.404-2.961 2.457-5.221 3.174-2.258.723-5.045 1.08-8.373 1.08-.391-.074-.926-.109-1.588-.109v13.66h-13.1v-.001zm13.1-23.017h.248c1.707 0 3.031-.414 3.99-1.24.957-.819 1.436-1.914 1.436-3.276 0-1.578-.51-2.872-1.523-3.877-.982-.874-2.195-1.314-3.648-1.314h-.502v9.707h-.001zm56.123 23.017h-13.467l-.91-5.404h-8.885l-.934 5.404h-13.473l11.541-41.525h15.9l10.228 41.525zm-21.457-14.224h5.492l-2.371-17.4h-.127l-2.994 17.4z"/><path d="M89.349 87.785c.085.134.396.17.933.098a2.004 2.004 0 0 0 1.316-.737c.354-.579.756-1.243 1.194-1.987.439-.744 1.792-1.304 4.053-1.676-.67-.159-1.859.012-3.559.512-1.707.506-2.828 1.03-3.358 1.566-.414.414-.646.841-.67 1.28-.031.438 0 .755.085.95l.006-.006zm-3.907 10.897c.208.043.42-.182.634-.676.213-.5.195-1.018-.054-1.555a15.58 15.58 0 0 0-1.049-2.042c-.445-.737-.286-2.169.469-4.278-.415.536-.816 1.652-1.194 3.34s-.482 2.931-.305 3.718c.293.993.799 1.493 1.499 1.493zm7.655 8.904c.116-.158.006-.445-.335-.848-.341-.402-.761-.652-1.249-.736-.713-.086-1.518-.135-2.401-.135s-2.054-.871-3.492-2.607c.189.67.938 1.602 2.237 2.797 1.304 1.193 2.358 1.9 3.163 2.107.487.135.926.109 1.304-.061.377-.175.639-.353.773-.517zm11.469-2.256c-.043-.115-.354-.127-.914-.029s-1.012.334-1.34.701a25.442 25.442 0 0 0-1.201 1.949c-.432.768-1.756 1.34-3.955 1.713.67.176 1.84.012 3.504-.5s2.779-1.041 3.328-1.578c.402-.414.621-.842.646-1.268.024-.433.007-.767-.068-.988zm3.823-10.981c-.207 0-.402.25-.574.732-.17.481-.139.993.08 1.523.232.621.572 1.311 1.012 2.055.439.742.262 2.199-.523 4.357.443-.537.877-1.664 1.279-3.383.408-1.719.512-2.98.305-3.785-.293-.848-.828-1.347-1.584-1.493l.005-.006zm-7.479-8.794c-.135.183-.037.476.293.866.334.39.736.64 1.201.725.693.085 1.492.127 2.375.122.885-.006 2.061.859 3.518 2.603-.207-.658-.98-1.585-2.303-2.779-1.324-1.194-2.359-1.901-3.104-2.108-.486-.165-.914-.152-1.268.036-.354.195-.598.378-.719.543l.007-.008zm-12.877 1.901c-.049-.536.14-1.274.561-2.206.427-.938 1.292-1.725 2.584-2.346.859-.415 2.157-.695 3.882-.829a41.327 41.327 0 0 1 5.376-.055c1.857.098 3.613.305 5.246.616 1.635.31 2.816.707 3.529 1.182-2.768-.518-4.998-.689-6.691-.512-1.695.177-3.084.524-4.156 1.036s-1.939 1.109-2.591 1.773c-.652.67-1.322 1.23-2.005 1.675-1.158.756-2.401 1.018-3.706.787-1.311-.238-1.993-.616-2.035-1.122h.006v.001zM84.62 99.682c-.463-.201-1.018-.725-1.664-1.566s-.926-1.957-.841-3.34c.103-.962.536-2.236 1.292-3.803a40.835 40.835 0 0 1 2.676-4.698 42.636 42.636 0 0 1 3.169-4.26c1.085-1.28 2.018-2.121 2.773-2.523-1.829 2.17-3.09 4.035-3.773 5.588-.682 1.554-1.06 2.925-1.133 4.096-.073 1.169.006 2.212.25 3.107.244.902.39 1.768.414 2.584.073 1.457-.329 2.682-1.194 3.657-.865.98-1.53 1.371-1.975 1.164l.006-.006zm8.904 9.129c-.433.268-1.17.488-2.2.641-1.036.152-2.139-.172-3.297-.969-.798-.58-1.688-1.598-2.651-3.035a44.212 44.212 0 0 1-2.712-4.688 42.125 42.125 0 0 1-2.097-4.899c-.561-1.584-.816-2.804-.774-3.651.939 2.706 1.914 4.759 2.914 6.15.999 1.389 1.999 2.42 2.98 3.09.981.67 1.932 1.127 2.834 1.359.902.236 1.743.555 2.499.938 1.207.67 2.036 1.627 2.486 2.859.451 1.23.457 1.973.012 2.211l.006-.006zm12.365-3.145c.037.537-.158 1.279-.584 2.219-.428.943-1.287 1.736-2.566 2.357-.865.414-2.158.695-3.875.824a42.563 42.563 0 0 1-5.364.061 39.84 39.84 0 0 1-5.266-.615c-1.651-.312-2.834-.707-3.529-1.184 2.779.549 5.028.732 6.728.561 1.701-.176 3.096-.529 4.169-1.047 1.078-.525 1.951-1.129 2.603-1.799a12.168 12.168 0 0 1 2.035-1.713c1.109-.742 2.322-.992 3.619-.762 1.305.238 1.98.609 2.023 1.098h.007zm3.414-12.298c.438.256 1 .805 1.67 1.633.67.829.943 1.951.822 3.345-.086.965-.512 2.232-1.268 3.791a42.332 42.332 0 0 1-2.676 4.699 42.63 42.63 0 0 1-3.156 4.266c-1.078 1.268-1.986 2.098-2.719 2.469 1.799-2.145 3.041-3.998 3.719-5.547.676-1.553 1.053-2.924 1.127-4.094.072-1.178-.012-2.225-.256-3.127s-.391-1.779-.414-2.609c-.043-1.455.365-2.693 1.225-3.692.865-1.005 1.506-1.383 1.92-1.133h.006v-.001zm-8.887-9.063c.402-.28 1.135-.493 2.195-.627 1.061-.14 2.156.183 3.271.969.805.561 1.701 1.566 2.676 2.998a42.067 42.067 0 0 1 2.748 4.668 40.064 40.064 0 0 1 2.109 4.888c.555 1.584.816 2.803.793 3.645-.963-2.645-1.957-4.668-2.969-6.046-1.012-1.383-2.012-2.413-2.998-3.078-.988-.67-1.945-1.128-2.859-1.371a11.446 11.446 0 0 1-2.492-.975c-1.242-.67-2.078-1.621-2.492-2.846-.414-1.225-.408-1.969.018-2.218v-.007zm-3.412-8.141c-5.656 0-10.477 2.005-14.462 6.015-3.986 4.01-5.985 8.819-5.985 14.425 0 5.656 1.993 10.465 5.979 14.42s8.812 5.936 14.468 5.936c5.607 0 10.402-1.98 14.377-5.936 3.979-3.955 5.973-8.764 5.973-14.42 0-5.606-1.994-10.415-5.967-14.425-3.981-4.011-8.776-6.015-14.383-6.015zm0-.336c5.68 0 10.562 2.036 14.645 6.094 4.084 4.059 6.131 8.959 6.131 14.681 0 5.791-2.041 10.701-6.125 14.73-4.082 4.033-8.971 6.051-14.65 6.051-5.79 0-10.702-2.018-14.73-6.045-4.035-4.035-6.052-8.945-6.052-14.736 0-5.722 2.017-10.622 6.046-14.681 4.033-4.058 8.945-6.094 14.735-6.094zm0 1.828c5.102 0 9.482 1.841 13.133 5.522 3.65 3.681 5.48 8.081 5.48 13.181 0 5.162-1.83 9.557-5.48 13.176-3.65 3.621-8.031 5.438-13.133 5.438-5.163 0-9.562-1.811-13.183-5.43-3.62-3.621-5.436-8.021-5.436-13.184 0-5.1 1.816-9.495 5.436-13.175 3.621-3.681 8.02-5.528 13.183-5.528zm0 .488c-4.998 0-9.276 1.792-12.811 5.363-3.541 3.571-5.314 7.832-5.314 12.768 0 5.04 1.774 9.325 5.309 12.841 3.541 3.518 7.819 5.277 12.816 5.277 4.936 0 9.189-1.76 12.762-5.277 3.57-3.516 5.357-7.801 5.357-12.841 0-4.936-1.787-9.196-5.357-12.768-3.572-3.571-7.826-5.357-12.762-5.357v-.006zm0 9.824c2.408 0 4.455.822 6.125 2.468s2.51 3.675 2.51 6.082-.84 4.468-2.51 6.167c-1.67 1.707-3.717 2.561-6.125 2.561-2.414 0-4.461-.854-6.131-2.555-1.669-1.705-2.511-3.766-2.511-6.173s.841-4.437 2.511-6.082c1.669-1.645 3.717-2.468 6.131-2.468zm0 .488c-2.243 0-4.169.792-5.759 2.358-1.591 1.573-2.389 3.474-2.389 5.705 0 2.243.798 4.169 2.389 5.759 1.59 1.592 3.516 2.389 5.759 2.389 2.23 0 4.131-.797 5.697-2.389 1.572-1.59 2.359-3.516 2.359-5.759 0-2.231-.787-4.132-2.352-5.698-1.574-1.573-3.475-2.358-5.705-2.358v-.007h.001z"/></g></svg>