<svg xmlns="http://www.w3.org/2000/svg" width="2500" height="2500" viewBox="0 0 192.756 192.756"><g fill-rule="evenodd" clip-rule="evenodd"><path fill="#fff" d="M0 0h192.756v192.756H0V0z"/><path d="M96.632 148.79c29.213 0 52.897-23.684 52.897-52.897 0-29.214-23.684-52.898-52.897-52.898-29.214 0-52.897 23.684-52.897 52.898 0 29.213 23.683 52.897 52.897 52.897z" fill="#fff"/><path d="M160.377 92.703s-5.566-60.191-65.173-60.529C37.407 31.846 31.28 92.612 31.28 92.612l-22.776.09 2.513 10.412 71.448-.358s4.757-.988 4.667-3.771c-.089-2.782-.179-24.953-.179-24.953l.718-1.077s20.286 26.569 20.286 26.748c0 .09 2.963 2.783 8.348 2.896 5.385.111 64.537-.022 64.537-.022l3.41-10.053-23.875.179zm-39.361-.158c-5.25 0-7.062-3.624-7.062-3.624L99.16 69.904s-2.244-1.795 0-4.847c.988-1.257 10.412-12.387 10.412-12.387s2.514-2.154-.283-6.156c-2.168-3.098-6.18-1.025-6.18-1.025l-16.335 18.67V49.797s-.731-3.798-5.033-3.963c-4.302-.166-4.84 4.143-4.84 4.143V90.01l-1.795 2.333h-33.93s2.962-51.432 55.112-51.521c49.907-.086 54.216 51.881 54.216 51.881s-24.236-.158-29.488-.158zM14.428 111.731l2.513 10.412H36.15s18.925 38.289 60.228 38.439c43.354.156 58.792-38.26 58.792-38.26l19.568-.18 3.59-10.232-163.9-.179zm82.941 39.491c-37.074.1-50.448-28.72-50.448-28.72l97.837.359s-15.494 28.276-47.389 28.361z"/></g></svg>