<svg height="352pt" viewBox="-2.67 .68 1144.67 350.86" width="1142pt" xmlns="http://www.w3.org/2000/svg"><path d="m127.56 147.22c6.99-10.08 17.61-17 29.09-20.95-2.18 1.61-4.04 3.57-5.87 5.54 6.31-.57 12.82-.17 18.66 2.49.7 5.62 1.17 11.27 2.02 16.87 1.1-5.59 1.4-11.29 2.19-16.92 5.84-2.59 12.31-3.01 18.6-2.44-1.7-1.77-3.38-3.56-5.14-5.26 11.2 3.92 21.48 10.82 28.31 20.64-2.02-.97-4-1.97-5.99-2.99 2.45 5.8 4 12.09 3.46 18.43-5.09 2.4-10.43 4.35-15.27 7.26 5.54-.86 10.99-2.18 16.49-3.25 4.25 4.82 6.47 10.85 8.38 16.88 1.02-2.09 2.01-4.19 3.06-6.26-.22 11.99-3.88 23.89-11.08 33.55.48-2.32.93-4.64 1.38-6.96-4.88 4.08-10.36 7.65-16.68 8.96-3.79-4.09-7.29-8.48-11.45-12.21 2.34 5.06 5.39 9.76 8.05 14.65-3.19 5.63-8.28 9.73-13.65 13.15 2.3.34 4.61.66 6.91 1-5.59 1.4-11.28 2.74-17.08 2.74-6.1.12-12.1-1.24-17.97-2.76 2.32-.34 4.64-.65 6.96-.99-5.4-3.4-10.53-7.51-13.68-13.17 2.69-4.88 5.71-9.57 8.04-14.64-4.15 3.74-7.65 8.12-11.43 12.22-6.33-1.28-11.82-4.86-16.69-8.95.45 2.35.9 4.7 1.41 7.04-7.2-9.72-11.01-21.67-11.08-33.75.94 2.2 2.01 4.34 3.1 6.46 1.7-6.12 4.11-12.11 8.31-16.97 5.48 1.05 10.91 2.36 16.42 3.24-4.78-2.95-10.12-4.84-15.19-7.26-.58-6.33 1.01-12.61 3.44-18.41-2 1.02-4.01 2.04-6.03 3.02m20.22 23.12c2.66 9.5 6.08 18.78 8.96 28.21 9.87.03 19.74.08 29.6-.02 2.91-9.34 6.01-18.61 9.04-27.91-7.81-5.99-15.92-11.55-23.79-17.45-8 5.64-15.8 11.55-23.81 17.17zm762.66-14.79c8.15-2.04 17.23-1.07 24.52 3.23 7.74 4.62 12.04 13.44 12.93 22.19 1.2 8.84-1.19 18.21-6.99 25.07-8.11 9.91-23.17 12.95-34.69 7.65-7.66-3.53-12.69-11.22-14.46-19.29-2.05-9.48-.89-19.95 4.39-28.23 3.24-5.15 8.4-9.05 14.3-10.62zm-321.91 2.1c9.28-1.43 19.26 1.24 26.11 7.77 12.13 11.53 13.15 32.76 2.02 45.3-10.35 11.87-30.39 14.52-42.67 4.16-12.75-11.1-15-32.34-4.96-45.92 4.59-6.24 11.87-10.26 19.5-11.31zm479.08.11c9.29-1.62 19.4.84 26.41 7.3 12.43 11.37 13.64 32.78 2.55 45.48-10.24 11.94-30.23 14.74-42.6 4.53-11.17-9.47-14.27-26.57-8.76-39.86 3.74-9.24 12.57-15.99 22.4-17.45z" fill="#fff"/><path d="m144.02 3.07c4.82-1.46 9.8-2.39 14.86-2.07 4.36 22.95 8.56 45.92 12.86 68.88.38 1.63.67 4.23-1.75 4.17-21.14 3.91-40.61 16.43-52.48 34.42-1.51 2.14-2.55 4.66-4.5 6.46-2.46-.51-4.5-2.08-6.66-3.27-16.63-9.71-33.29-19.37-49.94-29.05-2.51-1.49-5.18-2.75-7.42-4.64-.03-1.09.27-2.11.9-3.04 20.3-35.1 54.93-61.51 94.13-71.86z" fill="#7c227c"/><path d="m175.98 19.41c44.66-7.29 92.15 6.58 126.05 36.5 1.15.85 1.31 2.43.14 3.34-14.9 17.37-29.97 34.59-44.9 51.94-1.11 1.49-3.22 3.19-4.73 1.14-14.44-12.55-33.41-19.74-52.55-19.7-5.06-.17-10.04.93-15.09.86-3.59-23.45-6.95-46.94-10.46-70.4-.32-1.35-.38-3.66 1.54-3.68z" fill="#c32b26"/><path d="m810.6 66.74c11.24-2.91 23.97 3.63 27.93 14.58 2.99 7.79 1.46 17.06-3.78 23.53-6.36 8.16-18.28 11.39-27.84 7.33-9.78-3.79-15.73-14.78-14.25-25.06 1.04-9.62 8.51-18.16 17.94-20.38zm-388.28 24.31c14.14-.09 28.28-.07 42.41-.01-.11 41.86.04 83.72-.07 125.57 17.07.18 34.15.01 51.23.09-.04 12.34.03 24.67-.04 37.01-31.16-.05-62.32.01-93.48-.03-.02-54.21.06-108.42-.05-162.63zm262.95-.01c14.14-.05 28.28-.11 42.42.04-.16 41.84.03 83.69-.1 125.54 17.06.17 34.12-.01 51.18.09-.04 12.33 0 24.66-.02 36.99-31.15-.01-62.3 0-93.44-.01-.03-54.22.04-108.43-.04-162.65zm-147.04 53.17c9.26-11.79 22.82-20.29 37.68-22.72 10.38-1.62 21.44-1.02 31.04 3.57 6 2.79 11.12 7.05 16.13 11.3.06-4.37.03-8.75.05-13.12 12.97 0 25.94.01 38.91-.01.14 43.49.15 86.99-.01 130.48-13.19-.07-26.38.07-39.57-.08.04-4.16.02-8.32.08-12.48-9.73 9.4-22.91 15.2-36.46 15.69-16.21.75-33.08-4.58-44.63-16.26-12.29-12.18-17.87-29.67-18.55-46.66-1.12-17.69 4.23-35.82 15.33-49.71m50.3 13.44c-7.63 1.05-14.91 5.07-19.5 11.31-10.04 13.58-7.79 34.82 4.96 45.92 12.28 10.36 32.32 7.71 42.67-4.16 11.13-12.54 10.11-33.77-2.02-45.3-6.85-6.53-16.83-9.2-26.11-7.77zm284.91-23.33c18.2-16.99 49.46-18.78 68.51-2.24 2.1 1.79 4.09 3.7 6.05 5.65 0-4.84-.03-9.68.03-14.51 12.56.06 25.11 0 37.67.03-.03 38.59.02 77.18-.03 115.77-.03 15.16-5.14 30.71-15.99 41.58-12.6 12.94-31.01 18.67-48.74 18.97-17.6.33-36.07-4.14-49.66-15.81-8.86-7.46-14.64-18.26-16.33-29.69 14.68.02 29.36-.12 44.04.07 3.1 3.92 6.33 8.33 11.53 9.54 7.2 1.61 14.94 1.35 21.95-1.04 5.68-2 10.92-6.2 12.82-12.08 1.53-5.21 1-10.71.86-16.06-10.88 9.1-24.73 15.45-39.13 14.93-13.64-.31-27.09-6.02-36.57-15.87-12.52-12.72-18.23-30.95-17.97-48.55.15-18.68 6.95-37.92 20.96-50.69m37 21.23c-5.9 1.57-11.06 5.47-14.3 10.62-5.28 8.28-6.44 18.75-4.39 28.23 1.77 8.07 6.8 15.76 14.46 19.29 11.52 5.3 26.58 2.26 34.69-7.65 5.8-6.86 8.19-16.23 6.99-25.07-.89-8.75-5.19-17.57-12.93-22.19-7.29-4.3-16.37-5.27-24.52-3.23zm122.81-25.3c13.02-8.55 29.51-11.61 44.72-8.24 9.63 2.11 17.78 8.07 25.03 14.51-.01-4.43-.01-8.86.02-13.29 12.99.07 25.98-.07 38.98.07v130.37c-13.25.04-26.5.01-39.75.03-.01-4.14-.01-8.28-.01-12.42-4.46 4.06-9.37 7.67-14.85 10.21-14.63 7.07-32.09 6.92-47.18 1.33-13.94-5.17-25.22-16.43-31.1-30.02-6.12-14.03-7.81-29.87-5.71-44.98 2.87-19.03 13.62-37.01 29.85-47.57m34.36 27.51c-9.83 1.46-18.66 8.21-22.4 17.45-5.51 13.29-2.41 30.39 8.76 39.86 12.37 10.21 32.36 7.41 42.6-4.53 11.09-12.7 9.88-34.11-2.55-45.48-7.01-6.46-17.12-8.92-26.41-7.3zm-271.37-34.52c13.13.01 26.26-.01 39.4.01-.02 43.48-.02 86.96-.01 130.44-13.13.01-26.25-.01-39.38.01-.01-43.49 0-86.97-.01-130.46z" fill="#1f1e21"/><path d="m23.48 78.39c1.37-.15 2.55.87 3.76 1.37 19.9 10.78 39.9 21.36 59.79 32.15 1.91.58 1.93 2.63.89 4.01-10.3 19.15-12.38 42.57-5.34 63.17.63 1.95 1.54 3.85 1.75 5.92-.49 1.39-2.16 1.55-3.29 2.17-21.02 8.02-41.99 16.16-62.98 24.24-1.29.39-3.32 1.31-3.77-.61-16.96-41.63-13.87-90.62 7.32-130.18a5.82 5.82 0 0 1 1.87-2.24z" fill="#3c5399"/><path d="m297.01 82.98c1.09-1.23 2.64-.63 3.53.48 32.89 30.82 51.21 76.57 48.32 121.57.17 2.15-2.49 1.66-3.82 1.72-23-1.18-46.02-2.19-69.01-3.4-2.34.15-2.06-2.74-2.03-4.3.5-12.34-2.07-24.75-7.18-35.99-4.53-10.35-11.76-19.18-19.75-27.06 1.33-1.66 2.66-3.31 4.12-4.85 15.34-16 30.46-32.21 45.82-48.17z" fill="#d57c2c"/><path d="m160.46 120.65c11.9-2.24 24.52-.81 35.52 4.31 14.31 6.54 25.76 19.07 30.9 33.95 5.26 14.87 4.17 31.89-3.07 45.92-6.53 12.94-18.05 23.29-31.64 28.36-11.53 4.38-24.45 4.94-36.32 1.64-15.28-4.16-28.59-14.86-36.04-28.82-6.91-12.68-8.73-27.98-5.23-41.98 5.22-21.72 23.89-39.4 45.88-43.38m-32.9 26.57c2.02-.98 4.03-2 6.03-3.02-2.43 5.8-4.02 12.08-3.44 18.41 5.07 2.42 10.41 4.31 15.19 7.26-5.51-.88-10.94-2.19-16.42-3.24-4.2 4.86-6.61 10.85-8.31 16.97-1.09-2.12-2.16-4.26-3.1-6.46.07 12.08 3.88 24.03 11.08 33.75-.51-2.34-.96-4.69-1.41-7.04 4.87 4.09 10.36 7.67 16.69 8.95 3.78-4.1 7.28-8.48 11.43-12.22-2.33 5.07-5.35 9.76-8.04 14.64 3.15 5.66 8.28 9.77 13.68 13.17-2.32.34-4.64.65-6.96.99 5.87 1.52 11.87 2.88 17.97 2.76 5.8 0 11.49-1.34 17.08-2.74-2.3-.34-4.61-.66-6.91-1 5.37-3.42 10.46-7.52 13.65-13.15-2.66-4.89-5.71-9.59-8.05-14.65 4.16 3.73 7.66 8.12 11.45 12.21 6.32-1.31 11.8-4.88 16.68-8.96-.45 2.32-.9 4.64-1.38 6.96 7.2-9.66 10.86-21.56 11.08-33.55-1.05 2.07-2.04 4.17-3.06 6.26-1.91-6.03-4.13-12.06-8.38-16.88-5.5 1.07-10.95 2.39-16.49 3.25 4.84-2.91 10.18-4.86 15.27-7.26.54-6.34-1.01-12.63-3.46-18.43 1.99 1.02 3.97 2.02 5.99 2.99-6.83-9.82-17.11-16.72-28.31-20.64 1.76 1.7 3.44 3.49 5.14 5.26-6.29-.57-12.76-.15-18.6 2.44-.79 5.63-1.09 11.33-2.19 16.92-.85-5.6-1.32-11.25-2.02-16.87-5.84-2.66-12.35-3.06-18.66-2.49 1.83-1.97 3.69-3.93 5.87-5.54-11.48 3.95-22.1 10.87-29.09 20.95z" fill="#010000"/><path d="m147.78 170.34c8.01-5.62 15.81-11.53 23.81-17.17 7.87 5.9 15.98 11.46 23.79 17.45-3.03 9.3-6.13 18.57-9.04 27.91-9.86.1-19.73.05-29.6.02-2.88-9.43-6.3-18.71-8.96-28.21z" fill="#020001"/><path d="m61.07 205.01c2.26-1.01 4.54-2.03 6.98-2.55 1.86 2.17 2.81 4.93 4.12 7.44 10.02 19.72 28.74 34.33 49.88 40.44-.44 2.1-.88 4.21-1.48 6.27-5.8 18.31-11.45 36.66-17.18 54.99-.97 3.05-1.67 6.21-3.05 9.11-1.02 1.43-2.7.42-4.03.17-42.95-13.43-79.28-46.55-96.31-88.23v-.9c20.14-9.37 40.77-17.7 61.07-26.74z" fill="#5b82bd"/><path d="m252.13 212.09c1.48-.75 3.18-.34 4.77-.31 23.07 1.94 46.17 3.47 69.23 5.5.12 1.21.19 2.43.22 3.66-3.29 44.55-27.25 87.05-63.52 113.1-1.61 1.57-3.27-.34-4.15-1.64-13.48-18.55-27.18-36.96-40.62-55.54-1.65-1.63.14-3.29 1.49-4.23 16.31-12 27.6-30.5 31.05-50.44.65-3.35.48-6.84 1.53-10.1z" fill="#f8e437"/><path d="m195.15 262.32c1.3-.89 2.2.87 2.91 1.67 12.61 18.7 25.12 37.48 37.73 56.18.6.88 1.12 1.81 1.59 2.77.06 1.5-1.5 2.16-2.47 2.97-19.49 12.9-41.89 21.37-65.05 24.48-3.92.79-7.91 1.07-11.9.61-8.01.07-16.05-.38-24.01.54-9.26-1.89-18.81-2.68-27.78-5.82-1.64-.45-.79-2.53-.6-3.7 6.12-21.95 12.11-43.95 18.22-65.91.05-2.28 2.32-3.07 4.16-2.15 14.7 4.03 30.54 3.65 45.07-.94 7.93-2.32 15.11-6.46 22.13-10.7z" fill="#61a244"/></svg>