<svg xmlns="http://www.w3.org/2000/svg" width="2500" height="2500" viewBox="0 0 192.756 192.756"><path fill-rule="evenodd" clip-rule="evenodd" fill="#fff" d="M0 0h192.756v192.756H0V0z"/><path fill-rule="evenodd" clip-rule="evenodd" d="M189.922 147.723V45.034H2.834v102.689h187.088z"/><path d="M95.952 137.99a8.103 8.103 0 1 0 0-16.205 8.103 8.103 0 0 0 0 16.205z" fill-rule="evenodd" clip-rule="evenodd" fill="#cf432a"/><path d="M95.952 137.82c2.19 0 4.173-.889 5.608-2.324s2.324-3.418 2.324-5.607c0-2.191-.889-4.174-2.324-5.609s-3.418-2.324-5.608-2.324-4.173.889-5.609 2.324-2.323 3.418-2.323 5.609c0 2.189.888 4.172 2.323 5.607s3.419 2.324 5.609 2.324zm0 .34a8.252 8.252 0 0 1-5.85-2.422 8.25 8.25 0 0 1-2.423-5.85c0-2.285.926-4.354 2.423-5.852 1.497-1.496 3.565-2.422 5.85-2.422s4.353.926 5.851 2.422a8.255 8.255 0 0 1 2.422 5.852 8.255 8.255 0 0 1-2.422 5.85 8.256 8.256 0 0 1-5.851 2.422z" fill="#8b8e9c"/><path d="M96.399 122.369s-.213.811-.596 1.363c-.384.555-1.123 1.08-1.448 1.406-.341.34-.639.531-.938 1.086-.333.619-.17 1.385.341 1.854s.767.34.767.34-.123-.564-.042-.852c.192-.682.682-1.193.852-1.363s.852-.682 1.15-1.064c.298-.383.45-.963.468-1.449.021-.596-.021-.766-.213-1.021-.108-.146-.341-.3-.341-.3zM96.293 128.865s.138-.334.426-.766c.34-.512 1.023-.811 1.236-.938.213-.129.467-.234.723-.938.121-.33.213-.682 0-1.193a1.5 1.5 0 0 0-.639-.723l-.127.936s-.17.598-.385.811c-.213.213-.553.383-.766.553-.213.172-.617.404-.767.811-.122.328-.128.682-.085.852.043.169.384.595.384.595zM95.697 131.533c2.086 0 3.78-.545 3.78-1.219s-1.693-1.221-3.78-1.221c-2.088 0-3.78.547-3.78 1.221s1.692 1.219 3.78 1.219z" fill-rule="evenodd" clip-rule="evenodd" fill="#fff"/><path d="M95.76 130.977c1.505 0 2.726-.297 2.726-.662 0-.367-1.221-.664-2.726-.664s-2.726.297-2.726.664c.001.365 1.221.662 2.726.662z" fill-rule="evenodd" clip-rule="evenodd"/><path d="M91.991 130.57s1.15 2.234 1.384 2.98c.234.746.703 2.428 1.491 2.471s1.811.234 2.343-.213c.533-.447.682-2.172.98-2.896.297-.725 1.256-2.258 1.234-2.385-.021-.129-.852.34-.852.34l-1.705.32-2.215.043-1.853-.447-.807-.213z" fill-rule="evenodd" clip-rule="evenodd" fill="#fff"/><path d="M97.697 135.078c-.473-.176-.774-.613-.88-1.176-.089-.473-.037-1.051.177-1.623.215-.576.557-1.047.932-1.346.449-.354.963-.484 1.436-.307.473.176.773.611.879 1.176.09.473.037 1.051-.176 1.623-.215.576-.557 1.047-.932 1.344-.449.356-.963.487-1.436.309zm.356-.953c.111.041.273-.021.445-.156.242-.193.467-.508.611-.898.148-.393.186-.777.129-1.08-.039-.215-.121-.367-.232-.41-.111-.041-.273.021-.445.156-.242.193-.467.508-.611.898-.148.393-.188.777-.129 1.08.038.215.12.367.232.41z" fill="#fff"/><path fill-rule="evenodd" clip-rule="evenodd" fill="#fff" d="M10.758 101.148l7.156-31.124h10.564l-4.601 21.27h6.39l-2.471 9.854H10.758zM36.998 70.024l-7.412 31.124h9.457l1.278-4.486h4.089v4.486h9.882V70.024H36.998zm8.008 18.374h-3.323l3.323-10.053v10.053zM66.816 90.443V70.024h-9.712v31.124h17.209l7.412-31.124h-9.883l-5.026 20.419zM104.812 57.302H87.859l-10.394 43.706h12.353l1.534-7.413h9.457l1.107 7.413h12.607l-9.711-43.706zM93.056 83.968l3.067-16.188 3.237 16.188h-6.304zM110.35 70.024h19.595l-2.045 21.27h5.623l1.534 9.854h-18.573l1.873-20.588h-6.218l-1.789-10.536zM131.818 70.067h19.596l-2.045 21.27h5.623l1.533 9.854h-18.572l1.873-20.588h-6.219l-1.789-10.536zM174.33 70.024h-17.123v31.124h9.627v-4.572h4.346l.51 4.572h9.969l-7.329-31.124zm-7.582 18.459v-9.542l2.812 9.542h-2.812zM13.513 117.271v-5.135c0-.236-.053-.408-.159-.516-.106-.109-.274-.164-.506-.164-.084 0-.201.012-.353.033a2.94 2.94 0 0 1-.317.031.448.448 0 0 1-.327-.125.423.423 0 0 1-.128-.314c0-.146.044-.256.132-.326.087-.072.219-.107.394-.107.108 0 .352.01.732.031.38.021.704.033.971.033H17.169c.431 0 .836-.02 1.216-.059l.084-.006c.175 0 .316.055.422.164a.612.612 0 0 1 .159.445c0 .1-.011.262-.032.484s-.032.396-.032.52c0 .242.01.514.032.812s.032.477.032.531c0 .16-.037.285-.109.377a.353.353 0 0 1-.292.137.43.43 0 0 1-.333-.154.56.56 0 0 1-.138-.383c0-.072.01-.221.031-.447.021-.225.032-.412.032-.561 0-.41-.078-.689-.232-.834-.155-.146-.479-.219-.975-.219H15.21c-.277 0-.459.051-.545.152-.086.102-.129.318-.129.65v1.391c0 .18.04.303.12.369s.224.1.432.1c.552 0 .906-.047 1.064-.145.158-.096.237-.301.237-.617 0-.055-.01-.156-.032-.303s-.032-.264-.032-.352c0-.139.039-.254.117-.344s.179-.135.303-.135c.128 0 .225.061.291.186.066.123.099.303.099.539 0 .088-.011.293-.032.613-.021.322-.032.602-.032.836 0 .232.011.51.032.834.021.324.032.527.032.611 0 .23-.034.41-.102.535-.068.127-.164.189-.288.189a.41.41 0 0 1-.42-.412c0-.102.011-.211.032-.334a2.68 2.68 0 0 0 .032-.205c0-.416-.07-.674-.21-.773s-.52-.148-1.139-.148c-.188 0-.319.033-.393.104-.074.068-.111.193-.111.373v1.986c0 .371.045.605.135.707s.27.152.54.152h1.972c.493 0 .822-.076.985-.225.163-.15.245-.434.245-.854 0-.146-.011-.332-.032-.555a6.117 6.117 0 0 1-.032-.449c0-.152.046-.279.138-.383s.202-.156.331-.156c.121 0 .219.047.293.141s.111.219.111.373c0 .057-.01.234-.032.533s-.032.568-.032.812c0 .123.01.297.032.52s.032.385.032.484a.6.6 0 0 1-.163.441.572.572 0 0 1-.428.168 1.27 1.27 0 0 1-.084-.006 11.828 11.828 0 0 0-1.212-.059h-3.447c-.442 0-.909.018-1.398.051a3.93 3.93 0 0 1-.239.014c-.183 0-.317-.037-.4-.113-.084-.074-.126-.193-.126-.359 0-.129.041-.236.123-.318a.428.428 0 0 1 .321-.125c.06 0 .16.01.302.031.142.021.252.033.332.033.271 0 .458-.057.56-.172.098-.108.15-.321.15-.634zM26.398 118.314l.018.152a.858.858 0 0 1 .006.09c0 .164-.035.287-.104.365-.07.078-.182.117-.336.117a.394.394 0 0 1-.308-.139.535.535 0 0 1-.122-.363c0-.088.011-.268.032-.539s.032-.5.032-.688c0-.324-.011-.648-.032-.977l-.032-.496c0-.195.039-.346.116-.451a.378.378 0 0 1 .326-.16c.15 0 .264.059.339.172.076.115.113.289.113.525v.398c0 .553.189.998.566 1.336.377.34.875.508 1.494.508.575 0 1.024-.139 1.35-.416s.488-.662.488-1.152c0-.408-.107-.711-.32-.91-.214-.197-.766-.395-1.656-.588a3.184 3.184 0 0 1-.096-.018c-.926-.191-1.519-.375-1.778-.555a1.94 1.94 0 0 1-.641-.707 1.969 1.969 0 0 1-.216-.928c0-.707.239-1.279.717-1.717s1.105-.656 1.878-.656c.363 0 .703.055 1.02.162.317.109.601.27.852.48v-.061c0-.139.033-.25.099-.332a.327.327 0 0 1 .271-.123c.119 0 .22.031.301.096a.283.283 0 0 1 .123.232l-.032.303a5.574 5.574 0 0 0-.032.588c0 .473.019.945.058 1.422l.006.16c0 .186-.032.32-.096.402-.063.08-.169.121-.316.121a.469.469 0 0 1-.272-.08.34.34 0 0 1-.147-.199c-.032-.117-.047-.311-.047-.574 0-.266-.012-.471-.036-.617-.052-.34-.24-.613-.563-.818-.324-.207-.729-.309-1.218-.309-.469 0-.836.121-1.102.367-.266.244-.399.582-.399 1.012 0 .377.12.666.361.867s.759.389 1.555.564l.334.072c.875.184 1.44.379 1.695.586.234.188.41.414.525.68.115.266.173.576.173.932 0 .795-.251 1.424-.754 1.889-.503.465-1.187.697-2.052.697-.438 0-.831-.059-1.175-.176a3.02 3.02 0 0 1-.966-.546zM39.708 112.055c0-.279.063-.459.189-.539.127-.082.475-.121 1.044-.121.782 0 1.336.121 1.663.367.327.244.49.656.49 1.234 0 .564-.186.961-.557 1.188-.371.229-1.051.342-2.042.342-.345 0-.563-.023-.653-.07-.09-.047-.135-.143-.135-.289v-2.112h.001zm-1.193 5.884c-.114.109-.302.164-.565.164-.064 0-.163-.012-.296-.033s-.239-.031-.314-.031a.437.437 0 0 0-.32.119.4.4 0 0 0-.123.303c0 .154.042.268.125.342.083.072.213.109.388.109.044 0 .256-.01.636-.031.381-.021.74-.033 1.079-.033.211 0 .503.012.878.033.374.021.639.031.794.031.227 0 .4-.037.52-.113a.362.362 0 0 0 .179-.326.406.406 0 0 0-.132-.309.448.448 0 0 0-.323-.125c-.068 0-.174.01-.317.031-.144.021-.25.033-.317.033-.26 0-.441-.051-.545-.152s-.155-.287-.155-.557v-1.766c0-.125.032-.207.096-.246.063-.041.192-.061.384-.061l.291.006c.166.004.32.006.46.006.681 0 1.183-.037 1.507-.113.325-.074.609-.203.853-.387.296-.213.514-.469.652-.77.138-.299.207-.658.207-1.078 0-.781-.235-1.369-.704-1.766-.47-.395-1.167-.594-2.094-.594-.228 0-.605.01-1.132.031-.528.021-.943.033-1.247.033-.268 0-.579-.012-.932-.033a16.509 16.509 0 0 0-.638-.031c-.176 0-.306.035-.39.104-.084.07-.126.178-.126.32 0 .125.041.225.123.297s.192.109.332.109c.044 0 .146-.01.308-.031s.3-.031.416-.031c.204 0 .356.059.458.176.102.119.153.299.153.539v5.285c.002.255-.056.437-.169.546zM52.378 111.986c0-.258.064-.426.193-.5.129-.076.498-.113 1.105-.113.785 0 1.343.113 1.675.342.332.227.498.604.498 1.127 0 .525-.189.893-.568 1.107-.378.213-1.079.32-2.101.32-.358 0-.582-.021-.67-.064-.089-.043-.133-.135-.133-.273v-1.946h.001zm-1.18 5.946c-.106.115-.274.172-.506.172-.084 0-.201-.012-.353-.033s-.257-.031-.317-.031c-.14 0-.25.039-.332.115a.404.404 0 0 0-.123.307c0 .154.042.268.125.342.083.072.213.109.388.109.044 0 .256-.01.637-.031.38-.021.739-.033 1.079-.033.211 0 .503.012.878.033.374.021.639.031.794.031.227 0 .4-.037.52-.113a.362.362 0 0 0 .179-.326.406.406 0 0 0-.132-.309.448.448 0 0 0-.323-.125c-.068 0-.174.01-.317.031-.144.021-.25.033-.317.033-.259 0-.441-.051-.545-.152s-.155-.289-.155-.559v-2.041c0-.121.043-.199.13-.236.087-.039.287-.059.602-.059.988 0 1.617.088 1.887.266.27.178.405.525.405 1.043v.93c0 .619.1 1.041.301 1.271.2.23.559.346 1.074.346.497 0 .853-.113 1.069-.338.216-.227-.464-.85-.548-.689-.085.16-.234.238-.448.238-.182 0-.309-.051-.381-.158-.073-.104-.109-.299-.109-.584v-1.203c0-.479-.095-.832-.284-1.055-.189-.225-.515-.375-.976-.451.536-.051.958-.252 1.266-.602s.462-.807.462-1.367c0-.672-.229-1.188-.686-1.543s-1.116-.533-1.975-.533c-.259 0-.656.01-1.189.031a34.27 34.27 0 0 1-1.214.033c-.323 0-.672-.012-1.046-.033a21.609 21.609 0 0 0-.638-.031c-.176 0-.306.033-.39.102-.084.068-.126.172-.126.311 0 .115.04.209.119.285.08.074.18.111.3.111.071 0 .18-.01.326-.031.146-.021.252-.031.32-.031.255 0 .44.055.553.162.114.109.171.295.171.557v5.301c.003.244-.05.425-.155.537zM65.369 117.271v-5.135c0-.236-.053-.408-.159-.516-.106-.109-.274-.164-.505-.164-.083 0-.202.012-.353.033a2.94 2.94 0 0 1-.317.031c-.132 0-.24-.041-.326-.125s-.128-.188-.128-.314c0-.146.043-.256.131-.326.088-.072.219-.107.395-.107.107 0 .352.01.732.031.38.021.704.033.971.033h3.218c.431 0 .836-.02 1.215-.059l.084-.006c.175 0 .316.055.422.164s.159.258.159.445c0 .1-.01.262-.032.484a5.957 5.957 0 0 0-.032.52c0 .242.011.514.032.812.021.299.032.477.032.531 0 .16-.036.285-.109.377s-.17.137-.292.137a.43.43 0 0 1-.333-.154.556.556 0 0 1-.139-.383c0-.072.011-.221.032-.447.021-.225.032-.412.032-.561 0-.41-.078-.689-.232-.834-.155-.146-.48-.219-.975-.219h-1.825c-.277 0-.459.051-.545.152-.086.102-.129.318-.129.65v1.391c0 .18.04.303.12.369.08.066.224.1.432.1.552 0 .906-.047 1.064-.145.158-.096.237-.301.237-.617 0-.055-.011-.156-.032-.303a2.62 2.62 0 0 1-.032-.352c0-.139.039-.254.117-.344s.179-.135.303-.135c.128 0 .225.061.291.186.066.123.099.303.099.539 0 .088-.011.293-.032.613-.021.322-.032.602-.032.836 0 .232.011.51.032.834s.032.527.032.611c0 .23-.034.41-.102.535-.068.127-.164.189-.288.189a.404.404 0 0 1-.299-.119.396.396 0 0 1-.121-.293c0-.102.011-.211.032-.334a2.68 2.68 0 0 0 .032-.205c0-.416-.07-.674-.21-.773s-.52-.148-1.139-.148c-.188 0-.319.033-.393.104-.074.068-.111.193-.111.373v1.986c0 .371.045.605.135.707s.27.152.54.152h1.973c.493 0 .822-.076.985-.225.163-.15.245-.434.245-.854 0-.146-.011-.332-.032-.555a6.117 6.117 0 0 1-.032-.449c0-.152.046-.279.138-.383a.427.427 0 0 1 .331-.156c.121 0 .219.047.293.141s.111.219.111.373c0 .057-.01.234-.032.533s-.032.568-.032.812c0 .123.011.297.032.52s.032.385.032.484c0 .184-.054.33-.163.441s-.251.168-.428.168l-.085-.006a11.814 11.814 0 0 0-1.212-.059h-3.446c-.442 0-.909.018-1.398.051a3.93 3.93 0 0 1-.239.014c-.184 0-.317-.037-.4-.113-.084-.074-.125-.193-.125-.359a.426.426 0 0 1 .443-.443c.06 0 .16.01.302.031.142.021.252.033.332.033.271 0 .458-.057.56-.172.096-.108.148-.321.148-.634zM78.254 118.314l.018.152a.65.65 0 0 1 .006.09c0 .164-.035.287-.104.365s-.182.117-.336.117a.394.394 0 0 1-.308-.139.535.535 0 0 1-.122-.363c0-.088.011-.268.032-.539s.032-.5.032-.688c0-.324-.011-.648-.032-.977l-.032-.496c0-.195.039-.346.116-.451a.378.378 0 0 1 .325-.16c.151 0 .264.059.34.172.075.115.113.289.113.525v.398c0 .553.188.998.566 1.336.377.34.875.508 1.494.508.575 0 1.025-.139 1.351-.416.325-.277.487-.662.487-1.152 0-.408-.106-.711-.32-.91-.213-.197-.766-.395-1.655-.588a2.686 2.686 0 0 1-.096-.018c-.927-.191-1.52-.375-1.779-.555a1.95 1.95 0 0 1-.641-.707 1.968 1.968 0 0 1-.215-.928c0-.707.239-1.279.717-1.717s1.104-.656 1.878-.656c.363 0 .703.055 1.02.162.317.109.601.27.853.48v-.061c0-.139.032-.25.098-.332a.327.327 0 0 1 .271-.123c.119 0 .22.031.301.096a.282.282 0 0 1 .122.232l-.032.303a5.574 5.574 0 0 0-.032.588c0 .473.019.945.058 1.422l.006.16c0 .186-.032.32-.096.402-.063.08-.169.121-.316.121a.466.466 0 0 1-.271-.08.331.331 0 0 1-.146-.199c-.032-.117-.048-.311-.048-.574 0-.266-.012-.471-.036-.617-.052-.34-.24-.613-.563-.818-.323-.207-.729-.309-1.218-.309-.469 0-.836.121-1.102.367-.266.244-.399.582-.399 1.012 0 .377.12.666.361.867s.759.389 1.555.564l.334.072c.875.184 1.439.379 1.694.586.235.188.41.414.525.68s.173.576.173.932c0 .795-.251 1.424-.753 1.889s-1.187.697-2.051.697c-.439 0-.831-.059-1.176-.176a3.003 3.003 0 0 1-.967-.546zM89.918 118.314l.018.152a.858.858 0 0 1 .006.09c0 .164-.035.287-.104.365-.07.078-.182.117-.336.117a.394.394 0 0 1-.308-.139.54.54 0 0 1-.122-.363c0-.088.011-.268.032-.539s.032-.5.032-.688c0-.324-.01-.648-.032-.977l-.032-.496c0-.195.039-.346.116-.451a.378.378 0 0 1 .325-.16c.151 0 .264.059.34.172.075.115.113.289.113.525v.398c0 .553.188.998.566 1.336.377.34.875.508 1.494.508.575 0 1.025-.139 1.35-.416s.488-.662.488-1.152c0-.408-.106-.711-.32-.91-.213-.197-.766-.395-1.655-.588a3.184 3.184 0 0 1-.096-.018c-.926-.191-1.519-.375-1.779-.555a1.95 1.95 0 0 1-.641-.707 1.969 1.969 0 0 1-.216-.928c0-.707.239-1.279.718-1.717s1.104-.656 1.878-.656c.363 0 .702.055 1.02.162.316.109.601.27.852.48v-.061c0-.139.033-.25.099-.332s.156-.123.272-.123c.119 0 .219.031.301.096a.286.286 0 0 1 .123.232l-.032.303a5.574 5.574 0 0 0-.032.588c0 .473.019.945.058 1.422l.006.16c0 .186-.032.32-.096.402-.063.08-.169.121-.316.121a.466.466 0 0 1-.271-.08.331.331 0 0 1-.146-.199c-.032-.117-.048-.311-.048-.574 0-.266-.012-.471-.036-.617-.051-.34-.239-.613-.562-.818-.324-.207-.729-.309-1.218-.309-.469 0-.836.121-1.102.367-.266.244-.399.582-.399 1.012 0 .377.12.666.361.867s.759.389 1.555.564l.334.072c.875.184 1.439.379 1.695.586.234.188.41.414.525.68s.173.576.173.932c0 .795-.251 1.424-.754 1.889s-1.187.697-2.052.697c-.438 0-.831-.059-1.175-.176a2.995 2.995 0 0 1-.97-.546zM102.541 117.273c-.465-.611-.697-1.436-.697-2.477s.232-1.867.697-2.482c.465-.613 1.092-.92 1.879-.92.783 0 1.41.307 1.877.92.467.615.701 1.441.701 2.482s-.232 1.865-.699 2.477c-.465.609-1.092.914-1.879.914s-1.414-.304-1.879-.914zm4.619-5.603c-.672-.766-1.584-1.15-2.736-1.15-1.164 0-2.082.381-2.75 1.141s-1.002 1.803-1.002 3.125c0 1.318.332 2.355 1 3.115.666.76 1.578 1.139 2.74 1.139 1.16 0 2.076-.381 2.748-1.143s1.01-1.799 1.01-3.111c0-1.311-.338-2.35-1.01-3.116zM125.441 112.055c0-.279.064-.459.189-.539.127-.082.475-.121 1.043-.121.783 0 1.338.121 1.664.367.326.244.49.656.49 1.234 0 .564-.186.961-.557 1.188-.371.229-1.051.342-2.041.342-.346 0-.562-.023-.654-.07-.09-.047-.135-.143-.135-.289v-2.112h.001zm-1.193 5.884c-.113.109-.301.164-.564.164a2.21 2.21 0 0 1-.297-.033 2.132 2.132 0 0 0-.312-.031.44.44 0 0 0-.322.119.407.407 0 0 0-.121.303c0 .154.041.268.125.342.084.072.213.109.389.109.043 0 .256-.01.637-.031.379-.021.738-.033 1.078-.033.211 0 .504.012.877.033.375.021.641.031.795.031.227 0 .4-.037.52-.113a.36.36 0 0 0 .18-.326.405.405 0 0 0-.131-.309.449.449 0 0 0-.324-.125c-.066 0-.172.01-.316.031s-.25.033-.316.033c-.26 0-.441-.051-.545-.152s-.156-.287-.156-.557v-1.766c0-.125.033-.207.096-.246.064-.041.193-.061.385-.061l.291.006c.168.004.32.006.461.006.68 0 1.184-.037 1.508-.113.324-.074.607-.203.854-.387.295-.213.512-.469.65-.77.139-.299.207-.658.207-1.078 0-.781-.234-1.369-.703-1.766-.471-.395-1.168-.594-2.094-.594-.229 0-.605.01-1.133.031s-.943.033-1.248.033c-.268 0-.578-.012-.932-.033s-.564-.031-.637-.031c-.176 0-.307.035-.391.104-.084.07-.125.178-.125.32 0 .125.041.225.121.297a.488.488 0 0 0 .334.109c.043 0 .146-.01.307-.031.162-.021.301-.031.416-.031.203 0 .355.059.459.176.102.119.152.299.152.539v5.285c-.003.255-.06.437-.175.546zM137.426 117.273c-.465-.611-.697-1.436-.697-2.477s.232-1.867.697-2.482c.465-.613 1.092-.92 1.879-.92.783 0 1.408.307 1.877.92.467.615.701 1.441.701 2.482s-.234 1.865-.699 2.477c-.465.609-1.092.914-1.879.914s-1.414-.304-1.879-.914zm4.619-5.603c-.672-.766-1.584-1.15-2.736-1.15-1.166 0-2.082.381-2.75 1.141s-1.002 1.803-1.002 3.125c0 1.318.332 2.355.998 3.115s1.58 1.139 2.742 1.139c1.16 0 2.076-.381 2.748-1.143s1.008-1.799 1.008-3.111c0-1.311-.336-2.35-1.008-3.116zM150.641 112.123c0-.242-.051-.42-.15-.535s-.254-.174-.461-.174c-.111 0-.248.012-.41.033s-.266.031-.314.031a.469.469 0 0 1-.328-.113.387.387 0 0 1-.127-.305c0-.146.043-.254.129-.326s.215-.107.387-.107c.02 0 .234.01.646.031a22.071 22.071 0 0 0 2.369 0c.398-.021.613-.031.641-.031.172 0 .301.035.387.107s.129.18.129.326a.386.386 0 0 1-.129.303.483.483 0 0 1-.338.115c-.049 0-.154-.01-.314-.031a3.321 3.321 0 0 0-.41-.033c-.203 0-.354.059-.453.174-.098.115-.145.293-.145.535v5.271c0 .242.047.42.145.535.1.115.25.174.453.174.111 0 .248-.012.41-.033.16-.021.266-.031.314-.031.139 0 .252.039.338.119.086.078.129.18.129.303 0 .154-.043.268-.129.342-.086.072-.215.109-.387.109-.016 0-.225-.01-.625-.031a22.49 22.49 0 0 0-2.412 0l-.619.031c-.172 0-.301-.037-.387-.109-.086-.074-.129-.188-.129-.342a.4.4 0 0 1 .127-.307.47.47 0 0 1 .328-.115c.049 0 .152.01.314.031s.299.033.41.033c.203 0 .355-.059.457-.176s.154-.295.154-.533v-5.271zM166.096 117.928l-.018-.258a16.42 16.42 0 0 1-.064-1.236v-4.305c0-.283-.047-.469-.143-.559-.094-.09-.27-.135-.531-.135-.072 0-.18.012-.324.033s-.254.031-.33.031a.51.51 0 0 1-.354-.135.412.412 0 0 1-.15-.322c0-.137.057-.24.17-.311s.281-.105.506-.105c.127 0 .393.01.797.031s.742.033 1.014.033c.273 0 .57-.012.891-.033.318-.021.502-.031.549-.031.195 0 .338.035.43.105s.139.182.139.334c0 .129-.041.234-.123.314s-.189.119-.32.119c-.064 0-.166-.01-.305-.031a2.416 2.416 0 0 0-.324-.033c-.217 0-.371.055-.467.16s-.145.283-.145.533v5.68c0 .395-.07.678-.211.848-.141.172-.375.256-.705.256-.223 0-.393-.039-.512-.117s-.264-.281-.434-.613l-3.383-6.646a33.006 33.006 0 0 1 .047 1.531v4.311c0 .273.051.459.152.557.1.1.277.148.535.148.064 0 .166-.012.307-.033s.25-.031.326-.031a.47.47 0 0 1 .334.125c.09.082.137.186.137.307a.4.4 0 0 1-.166.344c-.111.08-.268.119-.467.119-.072 0-.305-.01-.699-.031a16.085 16.085 0 0 0-2.048 0c-.344.021-.533.031-.568.031-.189 0-.332-.039-.426-.115-.094-.078-.141-.197-.141-.359 0-.125.041-.227.125-.305a.48.48 0 0 1 .332-.115c.064 0 .166.01.305.031.137.021.244.033.322.033.211 0 .367-.057.469-.17.1-.111.15-.289.15-.535v-5.225c0-.27-.051-.457-.15-.561-.102-.104-.273-.156-.518-.156-.057 0-.152.012-.289.033s-.246.031-.326.031c-.123 0-.225-.041-.303-.123s-.117-.189-.117-.322.057-.236.174-.312.277-.115.482-.115c.096 0 .297.01.604.031s.564.033.773.033c.121 0 .273-.01.455-.029.184-.018.307-.027.371-.027.184 0 .336.045.453.135.119.092.26.297.426.619l3.286 6.538zM176.871 112.328c0-.369-.051-.604-.152-.701-.102-.1-.324-.148-.668-.148-.516 0-.859.074-1.031.225-.172.148-.258.436-.258.861 0 .156.012.348.033.572s.031.371.031.439a.562.562 0 0 1-.137.387c-.092.105-.201.156-.326.156s-.225-.047-.299-.141a.6.6 0 0 1-.111-.377c0-.057.01-.236.031-.537s.033-.576.033-.82c0-.125-.012-.301-.033-.525s-.031-.389-.031-.488c0-.201.057-.352.17-.453.113-.1.285-.15.516-.15a36.88 36.88 0 0 0 2.233.065h1.086a36.975 36.975 0 0 0 2.242-.065c.227 0 .396.049.508.148.113.098.168.25.168.455 0 .1-.01.264-.031.488s-.033.4-.033.525c0 .244.012.52.033.82s.031.48.031.537a.62.62 0 0 1-.104.379.34.34 0 0 1-.291.139.41.41 0 0 1-.324-.156.577.577 0 0 1-.133-.387c0-.068.01-.215.031-.439s.033-.416.033-.572c0-.426-.09-.713-.266-.861-.176-.15-.533-.225-1.068-.225-.324 0-.537.049-.641.148-.105.098-.156.332-.156.701v4.951c0 .32.057.539.172.652s.322.172.619.172c.07 0 .168-.012.293-.033s.217-.031.277-.031c.174 0 .307.035.398.104.09.07.137.172.137.307 0 .158-.047.275-.141.35-.094.076-.234.113-.42.113-.129 0-.4-.01-.818-.031s-.773-.033-1.068-.033c-.246 0-.58.012-1.002.033s-.719.031-.889.031c-.191 0-.332-.037-.424-.109-.092-.074-.137-.188-.137-.342 0-.123.043-.225.131-.303a.476.476 0 0 1 .334-.119c.064 0 .17.01.32.031.148.021.266.033.348.033.303 0 .51-.057.619-.166s.164-.328.164-.658v-4.952h.001zM87.688 123.072v-.908H10.673v.908h77.015zM181.721 122.773v-.908l-77.512-.021v.908l77.512.021zM181.725 106.412v-.908l-171.003-.039v.91l171.003.037z"/></svg>