<svg xmlns="http://www.w3.org/2000/svg" width="1389" height="2500" viewBox="0 0 118.107 212.534"><path d="M117.716 50.542H80.523a37.789 37.789 0 0 1 2.212-7.73c1.25-3.119 3.061-5.332 4.856-8.17 3.566-5.64 5.27-13.65-2.122-17.354-2.283-1.144-5.632-.836-8.04-1.391-1.896-.437-2.939-1.583-4.253-3.202-1.64-2.021-3.239-3.319-5.511-4.82-1.137-.751-2.102-1.626-2.678-2.737.005-.061.013-.121.013-.182C65 2.219 62.337 0 59.053 0c-3.23 0-5.853 2.148-5.938 4.823-.549 1.263-1.585 2.23-2.827 3.051-2.272 1.501-3.872 2.8-5.511 4.82-1.274 1.57-2.683 2.848-4.512 3.287-2.454.588-5.444.135-7.782 1.306C25.092 20.99 26.796 29 30.362 34.641c1.794 2.838 3.606 5.052 4.856 8.17a37.848 37.848 0 0 1 2.211 7.73H.391S-.368 62.918.23 79.61h117.648c.597-16.692-.162-29.068-.162-29.068zM.229 79.611c.518 14.451 2.051 32.137 5.975 47.832 6.156 24.624 25.367 66.328 52.849 85.092 27.482-18.764 46.693-60.468 52.849-85.092 3.924-15.695 5.458-33.38 5.975-47.832H.229z"/><path d="M11.655 126.081c3.326 13.305 10.003 29.502 17.861 43.329 8.918 15.69 19.07 28.095 29.538 36.166 10.468-8.071 20.62-20.476 29.538-36.166 7.858-13.827 14.535-30.024 17.861-43.329 3.404-13.616 4.951-28.908 5.602-42.134h5.638c.071-1.471.135-2.923.186-4.336H.229c.051 1.413.114 2.865.185 4.336h5.639c.651 13.227 2.198 28.519 5.602 42.134z" fill="#f9dc30"/><path d="M99.167 131.225c.69-2.229 1.31-4.408 1.835-6.507 3.293-13.176 4.816-28.012 5.453-41.144H59.054v47.651h40.113zM59.054 131.225H18.939c3.529 11.399 9.087 24.193 15.462 35.409 7.511 13.216 15.97 24.062 24.652 31.663l.001-.001v-67.071z"/><path d="M15.696 55.249l-2.268 9.061 2.489 11.007H11.82l-1.652-8.602v8.602H6.204V55.249h3.964v7.797l1.828-7.797h3.7zM107.462 55.249l-2.268 9.061 2.488 11.007h-4.095l-1.652-8.602v8.602h-3.964V55.249h3.964v7.797l1.828-7.797h3.699zM20.46 71.204v4.112h-3.27v-4.112h3.27zM26.534 55.249V72.69h2.464v2.626h-6.496V55.249h4.032zM35.252 55.249v20.067h-3.865V55.249h3.865zM37.667 55.249h6.888v3.023h-3.023v4.806h2.824v2.428h-2.824v6.986h3.32v2.824h-7.185V55.249zM67.792 55.249h6.888v3.023h-3.023v4.806h2.824v2.428h-2.824v6.986h3.32v2.824h-7.185V55.249zM51.679 58.965c.198.198.296.615.296 1.251v1.102c0 .884-.103 1.406-.309 1.567-.206.161-.566.241-1.078.241v-4.459c.529.001.893.099 1.091.298zm-5.55 16.351h4.111v-9.067c.582 0 .94.128 1.077.385.135.257.203.923.203 1.999v6.683h3.838v-5.301c0-1.624-.034-2.614-.103-2.975-.068-.36-.245-.755-.526-1.186-.282-.431-.831-.774-1.645-1.031.906-.107 1.511-.429 1.817-.965.304-.535.457-1.583.457-3.142 0-1.707-.218-2.95-.652-3.73-.435-.779-.997-1.263-1.687-1.454-.69-.189-2.012-.285-3.963-.285h-2.928v20.069zM65.698 60.551h-3.8v-.683c0-.687-.049-1.125-.145-1.314a.496.496 0 0 0-.478-.282c-.238 0-.419.126-.545.377-.126.253-.189.634-.189 1.146 0 .66.077 1.154.231 1.487.145.334.532.743 1.16 1.228 1.809 1.396 2.947 2.535 3.415 3.416.475.88.712 2.3.712 4.258 0 1.425-.131 2.474-.391 3.148-.26.675-.768 1.24-1.522 1.697-.755.458-1.632.685-2.628.685-1.095 0-2.03-.264-2.808-.789-.778-.527-1.286-1.198-1.523-2.013-.239-.814-.358-1.971-.358-3.47v-.317h3.802v1.421c0 .743.053 1.22.159 1.432.106.213.296.319.57.319.273 0 .477-.135.609-.406.133-.271.199-.673.199-1.206 0-1.172-.127-1.94-.379-2.302-.26-.36-.9-.966-1.919-1.819-1.02-.86-1.696-1.483-2.029-1.87-.333-.387-.608-.922-.824-1.605-.216-.683-.324-1.555-.324-2.617 0-1.53.153-2.649.459-3.357.305-.708.8-1.261 1.487-1.661.686-.399 1.516-.599 2.488-.599 1.064 0 1.969.22 2.721.657.75.438 1.245.989 1.487 1.653.242.663.363 1.792.363 3.386zM90.671 60.551h-3.8v-.683c0-.687-.049-1.125-.145-1.314a.498.498 0 0 0-.478-.282c-.238 0-.42.126-.546.377-.126.253-.189.634-.189 1.146 0 .66.078 1.154.231 1.487.146.334.533.743 1.161 1.228 1.809 1.396 2.947 2.535 3.415 3.416.475.88.713 2.3.713 4.258 0 1.425-.131 2.474-.392 3.148-.26.675-.767 1.24-1.522 1.697-.754.458-1.631.685-2.627.685-1.095 0-2.032-.264-2.809-.789-.778-.527-1.286-1.198-1.524-2.013-.238-.814-.357-1.971-.357-3.47v-.317h3.801v1.421c0 .743.053 1.22.16 1.432.105.213.296.319.57.319.273 0 .477-.135.609-.406.133-.271.199-.673.199-1.206 0-1.172-.127-1.94-.379-2.302-.26-.36-.899-.966-1.919-1.819-1.019-.86-1.696-1.483-2.028-1.87-.334-.387-.609-.922-.825-1.605-.217-.683-.324-1.555-.324-2.617 0-1.53.152-2.649.458-3.357a3.482 3.482 0 0 1 1.487-1.661c.687-.399 1.516-.599 2.489-.599 1.063 0 1.97.22 2.721.657.75.438 1.245.989 1.487 1.653.242.663.363 1.792.363 3.386zM96.083 71.204v4.112h-3.271v-4.112h3.271zM112.281 71.204v4.112h-3.27v-4.112h3.27z" fill="#f9dc30"/><g fill="#f9dc30"><circle cx="32.262" cy="28.329" r="1.237"/><circle cx="33.974" cy="25.094" r="1.237"/><circle cx="36.258" cy="22.62" r="1.237"/><circle cx="39.588" cy="21.002" r="1.237"/><circle cx="43.205" cy="21.002" r="1.237"/><circle cx="46.535" cy="21.763" r="1.237"/><circle cx="48.818" cy="18.814" r="1.237"/><circle cx="52.815" cy="17.196" r="1.237"/><circle cx="56.431" cy="16.054" r="1.237"/></g><g fill="#f9dc30"><circle cx="86.786" cy="28.329" r="1.237"/><circle cx="85.073" cy="25.094" r="1.237"/><circle cx="82.789" cy="22.62" r="1.237"/><circle cx="79.458" cy="21.002" r="1.237"/><circle cx="75.843" cy="21.002" r="1.237"/><circle cx="72.512" cy="21.763" r="1.237"/><circle cx="70.229" cy="18.814" r="1.237"/><circle cx="66.232" cy="17.196" r="1.237"/><circle cx="62.616" cy="16.054" r="1.237"/></g><g fill="#f9dc30"><circle cx="40.254" cy="45.225" r="1.332"/><circle cx="45.012" cy="43.675" r="1.332"/><circle cx="49.771" cy="42.619" r="1.332"/><circle cx="54.052" cy="42.031" r="1.333"/><ellipse cx="59.171" cy="42.031" rx="2.237" ry="1.332"/></g><g fill="#f9dc30"><circle cx="78.193" cy="45.225" r="1.332"/><circle cx="73.435" cy="43.675" r="1.333"/><circle cx="68.677" cy="42.619" r="1.332"/><circle cx="64.395" cy="42.031" r="1.332"/></g><path d="M40.125 47.762a.792.792 0 1 0 .647 1.447c.078-.035 7.862-3.453 18.224-3.473 10.358.02 18.143 3.438 18.22 3.473a.794.794 0 0 0 .647-1.447c-.328-.146-8.152-3.59-18.867-3.611-10.718.021-18.543 3.465-18.871 3.611zM80.832 36.477c2.198.02 4.725-2.329 5.326-4.343-1.646.016-2.993 1.141-4.56 1.281-.956.086-2.017-.272-2.406.921-.346 1.061.588 2.131 1.64 2.141zM37.459 36.477c-2.198.02-4.726-2.329-5.326-4.343 1.646.016 2.993 1.141 4.56 1.281.956.086 2.017-.272 2.406.921.347 1.061-.588 2.131-1.64 2.141zM77.515 26.208c.978.526 2.132 1.306 2.825 2.187.633.805.786 1.887 1.844 2.323 1 .412 2.19-.087 1.964-1.298-.284-1.518-1.238-2.749-2.23-3.825-1.525-1.652-7.428-4.149-8.569-.852-.101.291-.308.94.014 1.171.472.34.853-.355 1.26-.491.898-.299 2.12.37 2.892.785zM40.776 26.208c-.977.526-2.132 1.306-2.825 2.187-.633.805-.786 1.887-1.845 2.323-1 .412-2.19-.087-1.964-1.298.284-1.518 1.238-2.749 2.23-3.825 1.524-1.652 7.428-4.149 8.57-.852.1.291.307.94-.015 1.171-.472.34-.853-.355-1.26-.491-.896-.299-2.119.37-2.891.785z" fill="#f9dc30"/><circle cx="59.171" cy="19.845" r="1.281" fill="#f9dc30"/><path d="M63.398 21.146c2.046.663 4.095 2.565 4.913 4.531.174.417.163 1.014.633 1.256 1.534.789 1.803-1.633 1.493-2.517-.523-1.492-1.39-2.773-2.554-3.847-1.238-1.141-2.939-1.783-4.656-1.611-.593.059-1.434.3-1.514 1.039-.101.956 1.057.945 1.685 1.149zM55.063 21.146c-2.046.663-4.096 2.565-4.914 4.531-.174.417-.163 1.014-.633 1.256-1.534.789-1.802-1.633-1.492-2.517.522-1.492 1.389-2.773 2.553-3.847 1.237-1.141 2.939-1.783 4.656-1.611.593.059 1.434.3 1.514 1.039.103.956-1.055.945-1.684 1.149zM61.612 25.549a1.148 1.148 0 0 0 2.295 0v-2.296a1.147 1.147 0 1 0-2.295 0v2.296zM56.849 25.549a1.148 1.148 0 1 1-2.296 0v-2.296a1.148 1.148 0 0 1 2.296 0v2.296zM74.454 30.907a1.232 1.232 0 1 0 2.466 0V28.27a1.233 1.233 0 0 0-2.466 0v2.637zM44.008 30.907a1.232 1.232 0 1 1-2.466 0V28.27a1.234 1.234 0 0 1 2.466 0v2.637zM59.997 24.256c0 .456-.37.825-.826.825a.824.824 0 0 1-.824-.825v-1.17a.825.825 0 0 1 1.65 0v1.17zM59.167 11.711c-1.433.003-2.834 1.843-3.068 2.163a2.209 2.209 0 0 1 2.154 3.427c.485.264.87.378.915.391.044-.013.43-.126.915-.391a2.209 2.209 0 0 1 2.154-3.427c-.236-.32-1.637-2.16-3.07-2.163zM59.77 8.091c-.372.706-.981.706-1.354.001l-.083-.16c-.367-.706-.977-1.861-1.349-2.567l-.084-.16c-.372-.706-.03-1.284.761-1.285.785 0 2.081 0 2.872-.002.792 0 1.134.578.762 1.284l-.084.161-1.354 2.567-.087.161zM60.889 9.506c-.578.305-.578.803-.001 1.107l.132.069c.577.3 1.521.798 2.098 1.103l.131.068c.577.305 1.05.024 1.05-.623l.001-2.348c0-.647-.471-.927-1.048-.623l-.132.07-2.099 1.107-.132.07zM57.516 9.506c.578.305.578.803.001 1.107l-.132.069c-.577.3-1.521.798-2.099 1.103l-.13.068c-.577.305-1.05.024-1.05-.623l-.002-2.348c0-.647.472-.927 1.049-.623l.132.068 2.1 1.107.131.072z" fill="#f9dc30"/><path d="M82.523 37.881a.795.795 0 0 0-1.058-.371c-.022.011-2.102.985-4.351.688a3.425 3.425 0 0 1-.08-.345c-.192-1.193 1.574-2.628.122-3.569-.534-.346-1.6-.436-2.061.138-.521.649.067 1.562-.107 2.22-.062.238-.208.439-.389.628-1.623-.983-2.856-2.423-3.112-2.733.187-.458.464-.897.797-1.182.016.164.002.339.134.491.543.625 1.368.362 1.711-.343.922-1.891-2.352-.859-1.437-2.283 1.038-.179 1.184-1.556.554-2.175a1.416 1.416 0 0 0-.846-.408 1.414 1.414 0 0 0-.938.037c-.824.315-1.242 1.636-.361 2.214.269 1.67-2.32-.583-2.231 1.519.034.784.685 1.354 1.433.998.198-.094.25-.286.344-.437.141.351.195.783.178 1.212-.013-.001-.024-.004-.037-.003a.8.8 0 0 0-.631.337c-.047.065-1.044 1.411-3.791 1.292a3.81 3.81 0 0 1-.171-.421c-.372-1.15 1.157-2.836-.422-3.545-.581-.261-1.647-.188-2.016.448-.417.72.303 1.533.232 2.21-.029.275-.172.523-.35.762-1.658-.615-2.696-1.606-3.254-2.288-.115-.528-.291-1.127.197-1.392.375-.205.876.34 1.162.527.44.29.799.321 1.274.053 1.73-.974 1.224-3.614-.939-3.017-.467.128-1.086.528-1.588.362-.746-.248-.305-.741-.076-1.189.24-.472.254-.986-.09-1.429-.191-.246-.756-.696-1.135-.69-.379-.006-.943.445-1.134.69-.346.443-.331.957-.091 1.429.229.448.671.941-.076 1.189-.501.167-1.12-.233-1.587-.362-2.163-.598-2.67 2.043-.939 3.017.476.268.834.236 1.274-.053.285-.187.787-.732 1.163-.527.46.25.329.798.216 1.303-.562.714-1.683 1.832-3.557 2.463-.209-.266-.382-.54-.415-.849-.072-.677.647-1.49.231-2.21-.368-.637-1.435-.709-2.016-.448-1.578.709-.051 2.396-.421 3.545a3.92 3.92 0 0 1-.174.426c-2.518.012-3.447-1.233-3.491-1.296a.81.81 0 0 0-.411-.297c-.022-.44.03-.888.175-1.249.094.151.146.343.345.437.747.356 1.398-.214 1.431-.998.089-2.102-2.5.152-2.23-1.519.88-.579.463-1.899-.362-2.214a1.42 1.42 0 0 0-.938-.037 1.416 1.416 0 0 0-.845.408c-.63.619-.485 1.996.553 2.175.916 1.424-2.359.392-1.437 2.283.344.705 1.169.968 1.712.343.131-.151.118-.327.133-.491.288.246.536.606.719.996a.841.841 0 0 0-.123.123c-.018.022-1.44 1.813-3.349 2.908-.23-.22-.427-.455-.502-.739-.174-.659.414-1.571-.107-2.22-.46-.573-1.525-.483-2.061-.138-1.452.941.314 2.376.122 3.569-.019.115-.05.243-.088.376-2.127.176-4.022-.709-4.044-.72a.793.793 0 0 0-.689 1.429c.1.048 1.963.928 4.257.902-.083.373-.121.744-.067 1.083-1.232.391-1.972.671-2.059.709a.792.792 0 0 0 .647 1.448c.078-.034 9.677-3.613 20.039-3.634 10.358.021 20.028 3.72 20.105 3.755a.793.793 0 0 0 .647-1.448c-.087-.039-.844-.332-2.102-.74.08-.365.042-.77-.048-1.179 2.43.113 4.452-.845 4.556-.896a.792.792 0 0 0 .371-1.058zm-31.762.637a69.14 69.14 0 0 0-5.534 1.07 7.173 7.173 0 0 0-.563-1.025c1.276-.793 2.302-1.793 2.901-2.442.627.506 1.709 1.115 3.376 1.25-.14.389-.225.78-.18 1.147zm11.461-.541a48.262 48.262 0 0 0-3.226-.115 51.286 51.286 0 0 0-3.184.108 7.235 7.235 0 0 0-.432-1.271 9.022 9.022 0 0 0 3.787-2.726 8.961 8.961 0 0 0 3.535 2.626c-.2.424-.369.91-.48 1.378zm10.561 1.665a67.827 67.827 0 0 0-5.511-1.099c.053-.368-.031-.762-.171-1.155 1.833-.084 3.004-.733 3.668-1.269.565.614 1.511 1.542 2.691 2.311a7.31 7.31 0 0 0-.677 1.212z" fill="#f9dc30"/></svg>