<svg xmlns="http://www.w3.org/2000/svg" width="2500" height="2500" viewBox="0 0 192.756 192.756"><g fill-rule="evenodd" clip-rule="evenodd"><path fill="#fff" d="M0 0h192.756v192.756H0V0z"/><path d="M176.445 124.395v-12.368H8.508v12.368h167.937z"/><path fill="#c6c7c9" d="M17.466 122.225h-1.562v-6.155h-2.26v-1.322h6.082v1.322h-2.26v6.155zM22.162 118.871v3.354H20.6v-7.477h1.562v2.832h2.916v-2.832h1.562v7.477h-1.562v-3.354h-2.916zM33.669 116.07h-3.967v1.573h3.644v1.322h-3.644v1.937h4.144v1.323H28.17v-7.477h5.499v1.322z"/><path d="M38.62 122.225v-7.498h3.583c1.687 0 3.031.396 3.031 1.885 0 .771-.5 1.334-.979 1.635.812.209 1.25.906 1.25 1.719 0 1.678-1.281 2.26-3.229 2.26H38.62v-.001z" fill="#929496"/><path d="M41.078 119.09v1.385h1.072c.604 0 1.062-.125 1.062-.686 0-.656-.573-.699-1.354-.699h-.78zM41.078 116.477v1.25h1.021c.489 0 .844-.219.844-.656 0-.584-.479-.594-1-.594h-.865z"/><path fill="#929496" d="M46.762 122.225v-7.498h2.458v7.498h-2.458zM57.999 122.246h-1.583l-.094-.74c-.406.48-1.083.918-2.26.918-1.916 0-3.634-1.24-3.634-3.854 0-2.396 1.5-4.041 3.926-4.041 1.802 0 3.25.938 3.551 2.779h-2.333c-.177-.613-.625-.947-1.26-.947-.969 0-1.427.875-1.427 2.197 0 1.062.333 2.031 1.573 2.031.5 0 1.135-.344 1.26-.865h-1.083v-1.623h3.363v4.145h.001z"/><path d="M64.796 119.924c.01.416.218 1.207 1.583 1.207.739 0 1.562-.176 1.562-.967 0-.584-.562-.74-1.354-.928l-.802-.188c-1.208-.281-2.374-.553-2.374-2.197 0-.834.448-2.301 2.874-2.301 2.291 0 2.906 1.498 2.916 2.416h-1.5c-.042-.334-.167-1.125-1.531-1.125-.594 0-1.302.219-1.302.895 0 .584.479.709.792.781l1.822.447c1.021.25 1.958.668 1.958 2.01 0 2.25-2.291 2.449-2.947 2.449-2.728 0-3.197-1.574-3.197-2.5h1.5v.001zM73.804 122.225h-1.562v-6.155h-2.26v-1.322h6.082v1.322h-2.26v6.155zM79.834 114.551c.989 0 3.593.426 3.593 3.936s-2.604 3.938-3.593 3.938-3.593-.428-3.593-3.938 2.604-3.936 3.593-3.936z" fill="#c6c7c9"/><path d="M79.834 121.1c.844 0 2.031-.52 2.031-2.613s-1.188-2.613-2.031-2.613c-.843 0-2.03.52-2.03 2.613s1.187 2.613 2.03 2.613z"/><path d="M84.676 114.748h3.78c1.989 0 2.354 1.469 2.354 2.113 0 .822-.417 1.531-1.156 1.781.614.271.948.5.948 1.895 0 1.094 0 1.365.333 1.49v.197h-1.729c-.104-.354-.167-.738-.167-1.51 0-1.021-.062-1.416-1.219-1.416h-1.614v2.926h-1.53v-7.476z" fill="#c6c7c9"/><path d="M88.04 118.039c.812 0 1.208-.281 1.208-1.021 0-.395-.177-.979-1.093-.979h-1.948v2h1.833z"/><path fill="#c6c7c9" d="M97.693 116.07h-3.967v1.573h3.645v1.322h-3.645v1.937h4.145v1.323h-5.676v-7.477h5.498v1.322zM103.379 122.225h-1.561v-7.477h5.321v1.322h-3.76v1.688h3.291v1.322h-3.291v3.145zM111.439 114.551c.988 0 3.592.426 3.592 3.936s-2.604 3.938-3.592 3.938c-.99 0-3.594-.428-3.594-3.938s2.604-3.936 3.594-3.936z"/><path d="M111.439 121.1c.844 0 2.029-.52 2.029-2.613s-1.186-2.613-2.029-2.613-2.031.52-2.031 2.613 1.188 2.613 2.031 2.613z"/><path d="M116.281 114.748h3.779c1.988 0 2.354 1.469 2.354 2.113 0 .822-.416 1.531-1.156 1.781.615.271.947.5.947 1.895 0 1.094 0 1.365.334 1.49v.197h-1.729c-.104-.354-.166-.738-.166-1.51 0-1.021-.062-1.416-1.219-1.416h-1.615v2.926h-1.529v-7.476z" fill="#c6c7c9"/><path d="M119.645 118.039c.812 0 1.207-.281 1.207-1.021 0-.395-.176-.979-1.094-.979h-1.947v2h1.834z"/><path fill="#c6c7c9" d="M128.254 120.871h3.719v1.354h-5.282v-7.477h1.563v6.123zM134.492 122.225h-1.562v-7.477h1.562v7.477zM137.51 120.871h3.719v1.354h-5.282v-7.477h1.563v6.123zM141.43 114.748h1.459v1.062c0 1.312-.834 1.654-1.428 1.779v-.529c.688-.219.75-.594.771-.99h-.803v-1.322h.001zM149.004 122.225h-1.563v-7.477h1.563v3.041l2.853-3.041h2.02l-3.051 3.061 3.229 4.416h-2.01l-2.313-3.28-.728.748v2.532zM156.283 122.225h-1.562v-7.477h1.562v7.477zM157.738 114.748h3.303c2.52 0 3.041 2.145 3.041 3.561 0 1.605-.637 3.916-3.104 3.916h-3.24v-7.477z"/><path d="M159.27 120.934h1.521c1.27 0 1.697-1.281 1.697-2.51 0-2.207-1.053-2.385-1.719-2.385h-1.5v4.895h.001z"/><path d="M166.371 119.924c.012.416.221 1.207 1.584 1.207.74 0 1.562-.176 1.562-.967 0-.584-.562-.74-1.354-.928l-.803-.188c-1.207-.281-2.375-.553-2.375-2.197 0-.834.449-2.301 2.875-2.301 2.291 0 2.906 1.498 2.916 2.416h-1.5c-.041-.334-.166-1.125-1.531-1.125-.594 0-1.301.219-1.301.895 0 .584.479.709.791.781l1.822.447c1.021.25 1.959.668 1.959 2.01 0 2.25-2.291 2.449-2.947 2.449-2.729 0-3.197-1.574-3.197-2.5h1.499v.001z" fill="#c6c7c9"/><path d="M180.066 112.752c-.023-.506-.443-.666-.811-.666-.279 0-.748.078-.748.574 0 .277.195.369.387.414l.934.215c.424.1.742.355.742.875 0 .773-.719.986-1.279.986-.605 0-.842-.182-.988-.312-.277-.252-.332-.523-.332-.83h.414c0 .592.482.766.902.766.318 0 .855-.082.855-.551 0-.342-.158-.451-.697-.578l-.668-.156c-.215-.049-.697-.199-.697-.77 0-.51.332-1.01 1.125-1.01 1.143 0 1.256.684 1.275 1.043h-.414zM183.824 115.064v-1.932c0-.094.01-.51.01-.814h-.01l-.92 2.746h-.438l-.92-2.74h-.01c0 .299.01.715.01.809v1.932h-.428v-3.27h.633l.934 2.764h.01l.928-2.764h.629v3.27h-.428v-.001zM182.146 77.811l.833-2.17h.8v2.951h-.521v-2.399h-.016l-.924 2.399h-.357l-.924-2.399h-.014v2.399h-.523v-2.951h.803l.843 2.17zM179.984 76.071h-.91v2.521h-.521v-2.521h-.91v-.43h2.341v.43zM25.649 93.964c-1.426 0-3.144.11-4.805.218-1.466.095-2.976.191-4.273.212-.043-1.2-.03-2.223-.016-3.216.034-2.417.048-4.548-.868-7.751-.068-.171-.144-1.044-.183-1.594-.07-.989-.118-1.511-.222-1.81a24.594 24.594 0 0 1-.044-1.999c.011-1.971.021-4.009-1.363-5.579-.834-1.274-3.523-1.915-4.825-1.915h-.515l.028.516c.074 1.328.032 2.72-.009 4.065-.079 2.627-.161 5.344.568 7.972.123.368.292.764.456 1.146.151.353.306.716.409 1.017.622 3.346.42 6.578.21 9.94-.067.306-.232.495-.477.691-.351.282-.832.668-.832 1.612 0 .648.277 1.27.802 1.795.764.764 2.062 1.297 3.157 1.297 2.53 0 4.35-.164 6.278-.338 1.257-.113 2.557-.229 4.163-.314 2.321-.23 2.592-2.939 2.772-4.73.024-.246.047-.478.073-.687l.069-.549h-.553v.001z"/><path d="M25.088 95.102c-.203 2.027-.484 3.716-1.875 3.855-1.601.084-2.91.201-4.176.314-1.905.172-3.705.334-6.19.334-.723 0-1.803-.348-2.467-1.012-.343-.342-.517-.715-.517-1.104 0-.475.167-.609.467-.852.292-.234.691-.555.825-1.223l.019-.223c.215-3.436.409-6.714-.243-10.192a15.78 15.78 0 0 0-.456-1.155c-.156-.364-.318-.741-.42-1.047-.683-2.461-.603-5.103-.526-7.657.036-1.187.068-2.406.027-3.604 1.269.135 3.074.721 3.523 1.469l.053.073c1.148 1.292 1.139 3.064 1.128 4.94-.004.706.012 1.527.071 2.243.068.171.158 1.09.197 1.64.074 1.039.123 1.559.238 1.85.872 3.056.845 4.979.81 7.412-.015 1.082-.033 2.308.036 3.745l.022.465h.466c1.426 0 3.144-.111 4.805-.218 1.437-.093 2.917-.188 4.197-.211-.003.054-.009.104-.014.158z" fill="#929496"/><path d="M35.043 85.21l.458-7.111-5.388.257-.128.255c-.018.037-.448.903-.678 1.8-.121.3-1.041 2.737-.037 4.39-.161 1.761-.987 11.663.549 13.639l.137.174 4.643.26v-8.787c.812-.915 1.764-2.892.444-4.877z"/><path d="M33.765 89.552l-.141.143-.001 8.147-3.14-.174c-.89-1.688-.622-8.725-.225-12.934l.017-.181-.106-.148c-.913-1.277.044-3.628.054-3.651l.023-.069a8.773 8.773 0 0 1 .495-1.381l3.717-.177-.41 6.357.103.143c1.463 2.012-.31 3.848-.386 3.925z" fill="#c6c7c9"/><path d="M29.933 70.965l-2.081 3.381.272.273c1.072 1.072 3.541 2.618 5.35.975l2.376-.476.554-4.153h-6.471z"/><path d="M33.002 74.692l-.104.104c-1.284 1.284-3.104-.019-3.8-.611l1.381-2.244h4.811l-.314 2.356-1.974.395z" fill="#c6c7c9"/><path d="M55.132 78.938a2.722 2.722 0 0 0 .948-2.028l1.155-7.627-2.446-.245c-.529-.604-1.85-.677-2.453-.677h-.352l-1.754 5.262.336.202c.646.387 1.069 1.602 1.236 2.26l-3.01 3.26.837.18c2.563.549 4.414.351 5.503-.587z"/><path d="M51.391 73.231l1.294-3.881c.638.04 1.248.177 1.364.321l.094.283 1.973.197-1.016 6.704.003.052c0 .026.025.754-.623 1.302-.52.439-1.595.852-3.788.517l2.171-2.352-.049-.244c-.043-.22-.43-2.015-1.423-2.899z" fill="#929496"/><path d="M52.65 94.846c-1.536.28-5.574.778-7.014-.035-.115-1.077-.562-5.565-.2-7.197l.01-.06c.027-.285.637-6.934-.221-9.26-.049-.609.025-1.832.567-2.049l.338-.135-.033-.362c-.002-.023-.215-2.372-.215-2.994v-.363l-5.131-1.54-.156.437c-.045.127-1.113 3.133-1.113 4.503l.008.092c.233 1.227.733 4.659.248 5.792l-.011.025-.007.024c-.212.691-.803 2.899-.01 3.832.183 3.13.512 10.984.009 12.661l-.115.383 3.703 1.977.108.006c1.363.07 8.074.377 9.71-.441l4.154-.23.78-3.119-.072-.156c-.014-.035-1.524-3.188-5.337-1.791z"/><path d="M56.507 98.975l-3.679.205-.111.074c-.796.531-5.786.529-9.143.357l-2.831-1.51c.518-2.856-.044-12.367-.07-12.792l-.014-.226-.181-.135c-.348-.261-.189-1.751.171-2.93.641-1.588-.065-5.586-.191-6.264.015-.87.563-2.684.904-3.7l3.554 1.066c.034.691.132 1.858.181 2.41-1.018.761-.864 2.677-.84 2.913l.007.069.025.064c.673 1.683.364 6.947.186 8.864-.431 2.039.189 7.485.216 7.717l.024.208.168.126c1.854 1.391 7.354.422 7.976.307l.082-.023c2.594-.972 3.783.624 4.083 1.127l-.517 2.073z" fill="#636466"/><path d="M89.641 70.965H78.06c-.526-.252-2.46-.896-6.688.43-.601-.03-4.125-.193-6.066.006l-.412.042-.026.413c-.023.374-.201 3.694.757 4.892l.146.184h.235c.579 0 3.43-.023 4.454-.443l4.173-.379c.013 1.725.104 6.019.664 7.206.176 1.314.119 2.873-.253 3.152l-.139.104-.042.168c-.028.11-.671 2.713-.445 4.519.003.031.419 4.279.005 6.789-.047.205-.346 1.627.287 2.65.308.5.776.822 1.389.957l.022.006.023.002c.728.092 1.958-.021 2.378-.918.266-.066.635-.215.982-.562.582-.582.877-1.486.877-2.691v-8.896c0-1.433.286-2.879.598-3.035l.187-.093.062-.2c.038-.123.88-2.975-.854-5.096-.064-1.34-.036-3.456.273-4.334l6.049-.209.058-.016c1.194-.341 3.347-1.665 2.952-4.232l-.065-.416z"/><path d="M86.536 74.656l-6.492.224-.137.228c-.708 1.179-.525 4.854-.503 5.269l.01.169.113.127c1.318 1.483.938 3.592.804 4.159-.855.746-.927 3.034-.927 3.762v8.896c0 2.223-1.127 2.328-1.256 2.332l-.385.014c-.01.002-.085.379-.085.379-.112.559-1.203.496-1.386.482-.34-.08-.587-.246-.751-.512-.375-.604-.246-1.596-.165-1.928l.004-.018.003-.02c.439-2.637.022-6.892.004-7.071-.178-1.421.266-3.5.39-4.04.839-.899.581-3.271.475-4.009l-.014-.098-.051-.084c-.401-.668-.582-4.696-.582-7.343v-.535l-5.398.491-.082.041c-.521.261-2.535.368-3.855.381-.392-.747-.483-2.427-.448-3.616 2.09-.145 5.543.035 5.581.037l.089.005.085-.027c4.423-1.408 6.094-.49 6.11-.481l.113.065 10.973.004c.028 1.889-1.886 2.603-2.237 2.717z" fill="#929496"/><path d="M106.846 90.627c.049-.234 1.318-6.27-.277-9.005l-1.764-2.867-.029-.032c-.078-.088-1.975-2.154-6.324-1.238l-.119.025-.594.495v-7.474h-4.981l.108.579c.007.033.605 3.386-.625 7.104-.251.513-2.687 5.661-.328 7.739-.26.895-.887 3.417-.356 5.31.085 2.934.103 7.571-.194 8.461l-.2.6.63.041c.581.039 3.525.184 4.5-.793l.045-.051c.328-.439 1.399-1.926 1.399-2.68v-9.948l-.83-.948s-.512-.867.404-1.469c1.322-1.197 2.564-2.013 3.072-1.982.268.542 1.109 2.514.936 5.64-.051 1.289-.156 5.356.41 6.62-.154.936-.699 4.716.344 6.11.252.34.592.541.98.584l.076.008 2.244-.449c.049-.008 1.398-.264 2.051-1.246.332-.498.426-1.078.281-1.725-.424-2.474-1.01-6.514-.859-7.409z"/><path d="M106.615 99.217c-.42.635-1.416.828-1.426.83l-2.088.418a.462.462 0 0 1-.246-.186c-.658-.881-.432-3.855-.135-5.524l.037-.208-.127-.17c-.338-.45-.438-3.567-.336-6.197.223-4.001-1.098-6.251-1.154-6.345l-.072-.122-.129-.064c-1.098-.549-3.055.961-4.395 2.201-1.377 1.605-.423 2.678-.423 2.678l.641.732v9.581c0 .256-.547 1.209-1.177 2.055-.443.41-1.961.543-3.172.518.285-2.123.138-7.548.118-8.229l-.002-.064-.018-.062c-.598-1.994.419-5.099.429-5.13l.118-.354-.31-.207c-1.839-1.226-.347-5.29.382-6.752l.027-.064c1.027-3.083.88-5.873.749-7.043h2.856v8.582l2.003-1.669c3.475-.693 5.041.712 5.256.928l1.709 2.776c1.4 2.4.168 8.262.156 8.321-.229 1.367.75 7.127.863 7.78.091.402.044.718-.134.99z" fill="#c6c7c9"/><path d="M113.66 69.887l-3.229.988v4.745l2.35 1.567 2.961-.741.102-.115c.701-.8 1.545-1.532 1.811-1.569h.438l.285-3.132-.258-.159c-.306-.187-3.018-1.825-4.46-1.584z"/><path d="M115.211 75.573l-2.248.562-1.555-1.037v-3.501l2.432-.749c.762-.109 2.447.684 3.51 1.301l-.16 1.752c-.694.309-1.532 1.171-1.979 1.672z" fill="#636466"/><path d="M116.609 88.451c.045-.274.4-2.631-.639-3.747l.23-7.39-4.775 1.327-.09.222c-.1.244-2.307 5.762.076 7.737-.49 1.338-1.947 6.035.1 9.914-.021.662-.037 3.211.961 4.139.311.287.693.412 1.111.359l.064-.008.061-.025c.262-.107 2.559-1.09 3.021-2.531.145-.445.1-.896-.123-1.314-.053-.81-.387-6.147.003-8.683z"/><path d="M115.803 98.148c-.238.742-1.562 1.539-2.393 1.896a.366.366 0 0 1-.273-.107c-.568-.529-.697-2.432-.645-3.508l.006-.139-.066-.121c-2.24-4.076 0-9.501.023-9.555l.166-.396-.371-.217c-1.752-1.022-.729-4.884-.096-6.55l3.029-.841-.203 6.523.191.153c.699.56.572 2.407.473 3.01-.438 2.848-.021 8.759-.004 9.011l.008.121.064.102c.13.208.159.404.091.618z" fill="#636466"/><path d="M135.066 93.991c.176-1.375 1.26-10.132.383-12.104l-.049-.11-5.49-4.346-.232.058c-.236.059-2.008.52-3.021 1.235l-.473-.788-4.791-.504-.1.417c-.178.747-1.008 4.376-.688 5.739-.346 1-1.764 5.425-.406 7.146l.221 9.896.283.127c.361.16 2.158.898 3.045.197l1.338-.535-.008-.34c-.088-3.031-.162-7.813-.01-8.57l.008-.061c.035-.495.191-2.88.012-3.74.258-1.511.697-3.243.986-3.63.473-.039 1.928-.199 3.184-.753.838.871 1.979 2.206 2.199 2.874-.248.818-1.215 4.231-.621 5.967l.908 8.631h.439c.857 0 3.676-.107 3.949-1.477l.02-.096c0 .003-.052-.267-1.086-5.233z"/><path d="M132.621 99.811l-.826-7.858-.023-.059c-.484-1.293.312-4.437.66-5.54l.037-.119-.023-.123c-.234-1.171-2.322-3.305-2.738-3.721l-.252-.252-.318.164c-1.35.701-3.254.813-3.273.814l-.064.003-.062.021c-.23.077-.93.31-1.629 4.505l-.02.12.037.115c.117.348.08 2.04-.021 3.481-.191 1.114-.055 6.815-.012 8.405l-.861.344-.072.07c-.207.209-1.047.07-1.777-.203l-.213-9.639-.139-.138c-.945-.945-.166-4.447.547-6.433l.062-.174-.068-.172c-.24-.601.168-3.108.576-4.929l3.451.363.898 1.499.436-.581c.367-.489 1.795-1.014 2.754-1.277l4.91 3.888c.531 1.528-.006 7.703-.51 11.571l-.012.092.021.09c.191.763.908 4.324 1.055 5.052-.191.296-1.306.566-2.531.621z" fill="#929496"/><path d="M156.904 85.008l-.006-.026c-.379-1.258.002-6.045.18-7.783l.055-.538h-4.539l-.088.035c-.584.233-.797 1.031-.852 1.856-.826-.689-1.816-.88-1.963-.905-2.15-.635-5.229.227-5.57.327-2.361.21-3.578 2.373-3.732 2.667-1.359 1.863-1.021 5.025-.904 5.839-.781 1.258-.793 3.118-.793 3.201l.008.078c1.025 6.329 5.768 6.751 5.814 6.754 3.006.131 6.428-1.305 7.871-1.988.092 4.248-.621 5.675-1.072 6.152-.195.207-.34.23-.371.232H147.262c-.938-1.262-3.303-1.01-3.586-.973-2.346.166-3.721 1.01-3.777 1.045l-.168.105-.047.191c-.408 1.635 1.939 2.861 2.207 2.996l1.76 1.027c.109.309.314.574.607.777 1.342.926 4.281.416 4.613.354l.08-.016.072-.041c.816-.467 2.76-.348 3.439-.264l.061.008.061-.008c1.438-.18 3.918-3.447 4.4-4.1 2.377-3.395.027-16.424-.074-16.977l-.006-.025z"/><path d="M156.193 101.441c-1.074 1.451-2.916 3.537-3.693 3.691-.508-.059-2.682-.256-3.867.35-.836.146-2.984.369-3.82-.207a.58.58 0 0 1-.27-.387l-.041-.221-2.146-1.254c-.598-.301-1.682-1.057-1.736-1.713.432-.215 1.531-.68 3.152-.795.613-.074 2.381-.1 2.783.707l.135.27h4.188c.156.012.572-.01 1.023-.416 1.121-1.016 1.605-3.619 1.438-7.739l-.031-.779-.688.368c-.045.024-4.484 2.376-8.047 2.221-.146-.013-3.992-.395-4.902-5.898.006-.26.066-1.852.721-2.768l.119-.167-.035-.201c-.006-.035-.596-3.56.725-5.319l.045-.074c.01-.02 1.051-2.032 3.016-2.172l.055-.004.051-.016c.031-.009 3.139-.925 5.086-.326l.07.016c.016.002 1.811.306 2.207 1.761l.955-.185c-.129-1.095-.051-2.276.156-2.547h3.215c-.152 1.625-.52 6.103-.104 7.586.668 3.666 2.01 13.689.24 16.218z" fill="#c6c7c9"/><path d="M150.844 83.573l-.076-.083c-.088-.095-2.139-2.277-4.182-1.617-.74.066-2.361.321-2.361 1.297l.006-.075c-.002.021-.322 2.049-1.082 3.417l-.041.071-.014.079c-.037.202-.33 1.967.385 2.94l.881 1.584.135.068c.557.279 1.033.709 1.033.865v.342l.32.117c.088.032 2.156.742 4.301-2.119l.061-.08.023-.098c.119-.496 1.156-4.896.645-6.601l-.034-.107z"/><path d="M149.309 89.949c-1.287 1.672-2.424 1.792-2.898 1.751-.25-.59-.963-1.041-1.34-1.246l-.764-1.373-.025-.032c-.359-.448-.338-1.523-.236-2.146.812-1.517 1.137-3.57 1.15-3.659l.002-.006c.154-.152.867-.341 1.51-.395l.064-.005.061-.022c1.275-.464 2.764.887 3.133 1.25.298 1.278-.347 4.564-.657 5.883z" fill="#fff"/><path d="M177.193 87.955c-.535-1.537-3.521-1.441-4.404-1.376-1.258-.518-4.199-.412-5.369-.345-.01-.292.082-.438.189-.473 1.229-.176 2.994-1.188 3.449-1.459 2.199-.066 5.309-1.605 5.443-1.672l.27-.135v-.301c0-2.118-1.684-3.993-1.754-4.072l-.146-.16h-.215c-2.822 0-5.432.966-5.543 1.008l-.098.037-.076.075c-.365.365-1.746.705-2.627.834-2.377.011-3.295.858-3.393.956l-.059.059-.037.074c-1.918 3.976-2.348 6.95-1.273 8.84.916 1.615 2.576 1.779 2.646 1.786l.062.005.061-.01c2.49-.415 5.402.157 6.029.292.545.458 1.982.991 3.248 1.399.225 1.055-.123 2.089-.281 2.485l-1.594.58-.027.009-.025.013c-1.17.586-3.863-.283-4.803-.666-2.404-1.11-3.598.239-3.648.297l-.043.051-.027.061c-1.281 2.742.219 4.098.283 4.154l.139.121h.182c.312 0 1.641.639 2.688 1.236l.068.039.074.016c4.549.941 8.037-.719 8.566-.992 3.217-.625 3.541-4.465 3.254-6.488.58-3.929-.853-5.868-1.209-6.278z"/><path d="M177.428 94.309c.029.2.695 4.906-2.529 5.467l-.08.014-.07.039c-.035.018-3.457 1.832-7.896.939-.568-.322-2.057-1.135-2.857-1.295-.217-.271-.742-1.178.008-2.843.178-.157.953-.701 2.475.001.408.168 3.857 1.531 5.631.645l1.922-.695.086-.174c.037-.073.895-1.821.357-3.613l-.074-.248-.246-.078c-1.338-.423-2.926-1.038-3.168-1.285l-.098-.145-.186-.044c-.143-.034-3.492-.817-6.467-.343a2.622 2.622 0 0 1-1.844-1.304c-.609-1.09-.879-3.333 1.27-7.825.195-.143.986-.631 2.695-.631l.07-.005c.391-.056 2.309-.361 3.107-1.03.414-.146 2.586-.868 4.898-.913.344.429 1.225 1.641 1.348 2.949-.818.381-3.238 1.439-4.867 1.439h-.137l-.119.072c-.562.347-2.242 1.273-3.221 1.396a1.191 1.191 0 0 0-.77.538c-.244.388-.289.902-.133 1.53l.1.398.41-.03c1.186-.088 4.473-.209 5.441.275l.123.062.139-.012c1.391-.12 3.396.077 3.549.758l.031.139.1.1c.014.014 1.602 1.705 1.002 5.602l-.012.074.012.076z" fill="#636466"/></g></svg>