<svg xmlns="http://www.w3.org/2000/svg" width="2500" height="2500" viewBox="0 0 192.756 192.756"><path fill-rule="evenodd" clip-rule="evenodd" fill="#fff" d="M0 0h192.756v192.756H0V0z"/><path fill-rule="evenodd" clip-rule="evenodd" fill="#c62946" d="M8.504 77h175.748v31.895H8.504V77z"/><path fill="#c62946" d="M8.504 109.494h175.748v1.588H8.504v-1.588zM8.504 112.061h175.748v1.191H8.504v-1.191zM8.504 113.921h175.748v.794H8.504v-.794zM8.504 115.359h175.748v.398H8.504v-.398z"/><path d="M20.456 106.579h139.149l.998-3.538H34.098l5.253-19.97H26.472l-6.016 23.508zM38.32 101.1l10.408.003 2.699-10.474-10.408.021-2.699 10.45zm13.872 0h4.124l2.66-10.478 1.121 10.478h5.888l6.48-10.377-2.953 10.386 8.878-.009 4.869-18.029H72.77l-5.346 9.486v-9.486H56.81L52.192 101.1zm54.376 0h9.188l3.574-12.202h-9.188l-3.574 12.202z" fill-rule="evenodd" clip-rule="evenodd" fill="#323232"/><path fill-rule="evenodd" clip-rule="evenodd" fill="#323232" d="M43.082 83.116h10.457l-1.569 5.616H41.514l1.568-5.616zM86.191 83.071h18.497l-1.481 5.706H84.7l1.491-5.706zM96.377 90.618h-12.2l-1.045 3.892h12.201l1.044-3.892zM101.104 96.302l-18.443-.003-1.349 4.801h18.561l1.231-4.798zM107.105 83.1H125.6l-1.481 5.707h-18.506l1.492-5.707zM164.504 88.838l1.463-5.937h-10.299c-2.836 0-5.014.222-7.072 2.394-.742.803-1.639 1.962-1.953 3.541h9.15l8.711.002zM162.359 96.211h-6.588c-2.709 0-3.381-.917-2.822-2.683.145-.458.365-1.736.908-3.008h-7.686c-.68 1.735-1.078 3.819-1.223 4.533-.627 3.104-.627 6.103 4.654 6.103h11.449l1.308-4.945zM127.652 83.071h18.494l-1.478 5.706H126.16l1.492-5.706zM137.84 90.618h-12.201l-1.047 3.892h12.201l1.047-3.892zM142.562 96.302l-18.441-.003-1.348 4.801h18.561l1.228-4.798z"/><path d="M21.89 105.545h139.151l.996-3.538H35.532l5.254-19.97H27.907l-6.017 23.508zm17.865-5.48l10.408.004 2.699-10.476-10.408.021-2.699 10.451zm13.871 0h4.125l2.66-10.479 1.121 10.479h5.888l6.48-10.377-2.954 10.387 8.879-.01 4.868-18.029H74.205l-5.346 9.485v-9.485H58.244l-4.618 18.029zm54.378 0h9.188l3.574-12.201h-9.188l-3.574 12.201z" fill-rule="evenodd" clip-rule="evenodd" fill="#fff"/><path fill-rule="evenodd" clip-rule="evenodd" fill="#fff" d="M44.517 82.082h10.456l-1.568 5.617H42.948l1.569-5.617zM87.626 82.037h18.495l-1.48 5.707H86.135l1.491-5.707zM97.812 89.584h-12.2l-1.046 3.893h12.201l1.045-3.893zM102.537 95.268l-18.441-.002-1.349 4.799h18.562l1.228-4.797zM108.539 82.065h18.496l-1.48 5.707h-18.506l1.49-5.707zM165.938 87.805l1.465-5.938h-10.301c-2.836 0-5.014.222-7.07 2.394-.742.803-1.641 1.962-1.955 3.541h9.15l8.711.003zM163.795 95.177h-6.588c-2.711 0-3.381-.916-2.824-2.683.145-.458.367-1.736.91-3.01h-7.686c-.68 1.737-1.08 3.821-1.225 4.535-.627 3.104-.627 6.102 4.654 6.102h11.449l1.31-4.944zM129.086 82.037h18.496l-1.48 5.707h-18.506l1.49-5.707zM139.273 89.584h-12.201l-1.045 3.893h12.2l1.046-3.893zM143.998 95.268l-18.441-.002-1.35 4.799h18.563l1.228-4.797z"/></svg>