<svg height="977" viewBox="0 0 79.375 31.19910317" width="2500" xmlns="http://www.w3.org/2000/svg"><g fill="#211917"><path d="m2.21 29.682 1.772-5.77h-1.837l-2.145 6.994h4.638l.409-1.224zm5.497-5.77-2.148 6.994h1.858l2.148-6.994zm54.813-.076-2.414 7.09h1.861l2.414-7.09zm-47.49.076-1.35 4.063-1.048-4.063h-1.829l-2.145 6.994h1.701l1.35-3.99.907 3.99h1.969l2.148-6.994zm1.627 3.687c-.143.463-.214.853-.214 1.2a2.3 2.3 0 0 0 .26 1.073c.209.4.502.685.91.877.412.19.946.285 1.631.285 1.04 0 2.032-.195 3.108-.68l1.01-3.289h-2.86l-.364 1.165h1.054l-.444 1.447-.081.027a2.77 2.77 0 0 1 -.865.114c-.37 0-.728-.057-.942-.271-.212-.212-.377-.474-.374-.846 0-.333.073-.728.214-1.191.255-.832.634-1.425 1.035-1.829.398-.406.988-.599 1.587-.599h.003c.61.002 1.124.07 1.503.423l1.276-.962c-.577-.487-1.4-.745-2.384-.745-.744 0-1.27.087-1.969.366-1.536.61-2.628 1.913-3.094 3.435m25.947-3.692-1.35 4.066-1.048-4.066h-1.826l-2.148 6.997h1.704l1.347-3.99.91 3.99h1.966l2.149-6.997zm1.53 3.689c-.14.46-.211.85-.211 1.2 0 .39.084.726.26 1.073.209.4.498.683.91.875.41.19.946.287 1.631.287 1.04 0 2.032-.198 3.107-.683l1.01-3.288h-2.879l-.344 1.165h1.054l-.445 1.449-.08.027c-.283.092-.58.111-.865.111-.371.002-.729-.057-.943-.268-.214-.214-.376-.474-.376-.845 0-.336.076-.732.217-1.195.254-.829.633-1.422 1.032-1.829.398-.406.991-.598 1.59-.596h.003c.61 0 1.124.07 1.506.423l1.276-.962c-.577-.487-1.404-.747-2.387-.747-.745 0-1.463.07-2.162.346-1.538.61-2.435 1.932-2.904 3.457m-18.478 2.086 1.77-5.77h-1.837l-2.146 6.994h4.64l.41-1.224zm6.467.178c.003 0 .005.003.008.006-.006-.005-.008-.005-.008-.005"/><path d="m34.675 25.9c0 .366-.098.843-.296 1.487-.287.94-.571 1.547-.918 1.93-.314.349-.69.498-1.119.522v.002h-.14c-.315 0-.594-.054-.808-.23-.214-.182-.314-.466-.314-.843v-.005c.003-.368.09-.837.279-1.452.217-.707.501-1.297.867-1.717.333-.388.747-.631 1.23-.67v-.004h.132c.315.002.585.046.789.208.205.163.3.428.298.764zm1.5-1.484c-.392-.377-1.043-.629-2.077-.631-2.135.002-4.104 1.305-4.885 3.833a4.257 4.257 0 0 0 -.206 1.232c.003.68.225 1.2.664 1.563s1.116.572 2.045.575c1.452-.002 2.487-.472 3.251-1.192.761-.724 1.249-1.707 1.566-2.736.12-.39.192-.8.192-1.181-.003-.572-.157-1.087-.55-1.463m18.865 6.509 1.902-5.889h-2.042l.387-1.2h5.632l-.387 1.2h-1.945l-1.902 5.89zm11.706-4.09h.959c.685 0 1.124-.03 1.314-.087.187-.057.355-.16.498-.3.141-.141.247-.32.314-.531.079-.239.079-.431-.002-.577-.078-.15-.23-.242-.45-.28-.11-.015-.454-.024-1.037-.024h-1.016zm-2.855 4.09 2.291-7.089h3.013c.758 0 1.287.065 1.59.192.3.128.504.355.604.68s.084.696-.051 1.116a2.77 2.77 0 0 1 -.897 1.317c-.423.347-.962.566-1.612.655.252.182.442.38.574.596.13.214.28.6.442 1.149l.42 1.384h-1.712l-.537-1.544c-.19-.55-.327-.896-.417-1.04a.687.687 0 0 0 -.336-.295c-.133-.054-.365-.079-.693-.079h-.19l-.956 2.958zm7.939 0 2.29-7.089h5.255l-.387 1.2h-3.648l-.509 1.571h3.38l-.384 1.195h-3.38l-.624 1.929h3.782l-.385 1.194zm0 0"/></g><path d="m18.342 14.276c.477 2.807 4.451 4.643 10.15 5.212l.413-1.308c-3.614-.818-5.85-2.476-6.21-4.586-.682-4.004 5.895-8.902 16.338-10.758l.287-.905c-12.252 1.94-21.796 7.534-20.978 12.345" fill="#2347a3"/><path d="m34.512 17.46 3.9-12.557h-4.35l-4.865 15.704h14.867l.961-3.148zm0 0" fill="#2347a3"/><path d="m41.176 13.306 4.115-13.306h-4.348l-5.095 16.451h15.094l.98-3.145zm0 0" fill="#66c52e"/><path d="m61.797 6.661c-.315-1.961-2.338-3.47-5.467-4.39-2.76-.814-6.315-1.196-10.394-1.025l-.323 1.062c4.549.04 7.908.937 10.015 2.422 1.09.766 1.761 1.758 1.935 2.844.363 2.249-1.564 4.749-4.942 6.721l-.487 1.563c6.25-2.6 10.161-6.081 9.663-9.197" fill="#2347a3"/></svg>