<svg xmlns="http://www.w3.org/2000/svg" width="2500" height="2500" viewBox="0 0 192.756 192.756"><path fill-rule="evenodd" clip-rule="evenodd" fill="#fff" d="M0 0h192.756v192.756H0V0z"/><path d="M6.452 95.558v5.893c0 .912.181 1.398.482 1.58l1.688.182c1.025 0 1.688-.242 2.11-.668.302-.303.663-.91 1.025-1.701l.542.061-.663 2.977H2.834v-.484c.844-.061 1.327-.244 1.507-.426.181-.182.302-.729.302-1.641v-5.772c0-.851-.121-1.397-.302-1.58-.121-.182-.603-.364-1.387-.425v-.547H8.26v.547c-.844.061-1.327.243-1.508.425-.179.182-.3.729-.3 1.579zM28.278 93.553c-.784.061-1.206.243-1.387.425-.181.183-.241.729-.241 1.641v5.651c0 .912.061 1.457.241 1.701.181.182.603.303 1.387.426v.484h-5.125v-.484c.784-.123 1.206-.244 1.387-.426.181-.244.301-.789.301-1.701v-5.651c0-.911-.121-1.458-.301-1.641-.181-.182-.603-.364-1.387-.425v-.547h5.125v.547zM39.251 93.006h3.075l6.813 7.958h.06v-3.402c0-1.336-.06-2.308-.181-2.977-.06-.547-.664-.911-1.809-1.033v-.547h4.583v.547c-.904.061-1.447.425-1.568 1.033l-.181 2.977v6.502h-.723l-7.235-8.689v3.888c0 1.459.06 2.492.181 3.1.061.547.663.85 1.809 1.033v.484h-4.583v-.484c.965-.123 1.507-.486 1.568-1.033.121-.668.181-1.701.181-3.1v-3.341c0-.911-.12-1.519-.422-1.822-.241-.304-.784-.486-1.568-.547v-.547zM73.015 100.662l-.905 3.098-3.376.426c-1.989 0-3.497-.607-4.643-1.762-1.024-1.033-1.507-2.309-1.507-3.828 0-1.762.603-3.159 1.869-4.253 1.146-1.033 2.533-1.58 4.161-1.64h.482l3.256.425.301 2.978-.603.121c-.301-1.033-.723-1.762-1.266-2.188-.482-.425-1.146-.608-2.05-.608-1.266 0-2.23.486-2.954 1.398-.663.851-1.025 2.005-1.025 3.403 0 1.578.362 2.855 1.086 3.826.783.973 1.748 1.459 3.015 1.459.783 0 1.507-.244 2.11-.791.482-.484.964-1.215 1.507-2.248l.542.184z" fill-rule="evenodd" clip-rule="evenodd"/><path fill-rule="evenodd" clip-rule="evenodd" d="M72.472 100.479l.603.123-.06.06-.543-.183zM92.911 86.444c-1.628 0-3.256.304-4.763.972a10.01 10.01 0 0 0-3.798 2.552 11.84 11.84 0 0 0-2.592 3.889c-.664 1.519-.965 3.098-.965 4.739s.301 3.221.965 4.74a11.88 11.88 0 0 0 2.592 3.887c1.085 1.094 2.352 1.945 3.798 2.613 1.507.668 3.135.973 4.763.973s3.135-.305 4.642-.973c1.508-.668 2.775-1.52 3.859-2.613a11.875 11.875 0 0 0 2.594-3.887c.662-1.52.963-3.1.963-4.74s-.301-3.22-.963-4.739a11.867 11.867 0 0 0-2.594-3.889 9.785 9.785 0 0 0-3.859-2.552 11.191 11.191 0 0 0-4.642-.972z"/><path d="M92.911 85.29c-1.809 0-3.557.365-5.185 1.033-1.567.669-2.954 1.58-4.16 2.856-1.206 1.215-2.17 2.612-2.834 4.252-.663 1.641-1.025 3.342-1.025 5.104h-2.291c0-2.127.421-4.131 1.266-6.015a15.206 15.206 0 0 1 3.256-4.921 15.179 15.179 0 0 1 4.944-3.342c1.929-.79 3.919-1.215 6.029-1.215v2.248zM92.851 111.75c1.809 0 3.557-.365 5.186-1.033 1.566-.668 2.953-1.58 4.16-2.855 1.205-1.215 2.17-2.613 2.834-4.254.662-1.639 1.023-3.34 1.023-5.104h2.291c0 2.127-.422 4.133-1.266 6.016a15.205 15.205 0 0 1-3.256 4.922 15.206 15.206 0 0 1-4.943 3.342c-1.93.789-3.919 1.215-6.03 1.215v-2.249h.001zM72.472 100.479l.603.123-.06.06-.543-.183z" fill-rule="evenodd" clip-rule="evenodd"/><path d="M92.911 82.252v-4.86m20.982 21.204h-4.822m-16.16 21.082v-4.92M76.632 98.596h-4.823" fill="none" stroke="#000" stroke-width=".718" stroke-linecap="round" stroke-linejoin="round" stroke-miterlimit="2.613"/><path d="M116.848 93.796c-.061.061-.121.243-.121.547v3.464h1.809c.723 0 1.207-.061 1.387-.244.182-.121.303-.486.482-1.094h.543v3.646h-.543c-.18-.668-.301-1.033-.482-1.215l-1.387-.184h-1.809v2.613c0 .973.182 1.52.482 1.701l1.809.182c1.086 0 1.809-.182 2.23-.607.363-.363.664-.91.965-1.701l.604.061-.604 2.916h-9.104v-.484c.904-.123 1.387-.244 1.568-.426.18-.244.24-.789.24-1.701v-5.651c0-.911-.061-1.458-.24-1.641-.182-.243-.604-.364-1.389-.425v-.547h8.502l.182 2.734-.543.061-.725-1.519c-.301-.425-.963-.607-1.988-.607h-1.266l-.602.121zM135.779 93.006v.547c.723.061 1.145.243 1.326.425.182.183.24.729.24 1.641v5.651c0 .912-.059 1.457-.24 1.701-.182.182-.664.303-1.447.426v.484h4.582c2.051 0 3.678-.484 4.945-1.396 1.385-1.033 2.109-2.49 2.109-4.436 0-1.52-.482-2.734-1.447-3.584-1.086-.972-2.713-1.458-4.943-1.458h-5.125v-.001zm9.346 5.469c0 1.52-.363 2.674-1.025 3.463-.725.852-1.809 1.275-3.195 1.275-.785 0-1.268-.121-1.447-.363-.182-.244-.301-.73-.301-1.52v-6.683c0-.426.061-.729.18-.79l1.266-.182c3.014 0 4.522 1.579 4.522 4.8zM161.645 93.978c-.182-.182-.664-.364-1.447-.425v-.547h5.186v.547c-.783.061-1.207.243-1.387.425-.182.183-.301.729-.301 1.641v5.651c0 .912.119 1.457.301 1.701.18.182.604.303 1.387.426v.484h-5.186v-.484c.783-.123 1.266-.244 1.447-.426.182-.244.24-.789.24-1.701v-5.651c0-.911-.059-1.458-.24-1.641zM183.65 92.824l-3.557 8.567c-.301.791-.662 1.275-.965 1.58-.182.182-.604.303-1.205.426v.484h4.16v-.484l-.604-.123c-.301-.061-.543-.182-.604-.303-.061-.182-.061-.486.061-.912l.604-1.822h3.799l.662 1.701c.182.486.242.852.182 1.033s-.242.242-.604.303l-.422.123v.484h4.764v-.484l-1.207-.365c-.301-.242-.602-.729-.844-1.396l-3.617-8.932-.603.12zm-.179 2.43l1.566 4.193h-3.256l1.629-4.193h.061zM110.275 73.078c.664 1.033 1.447 1.883 2.352 2.552s1.99 1.154 3.135 1.458l-10.369 8.992 4.882-13.002z" fill-rule="evenodd" clip-rule="evenodd"/><path d="M98.699 95.437l.121 6.015c0 .852.061 1.338.24 1.52.182.182.664.303 1.568.426v.484h-5.306v-.484c.784-.123 1.266-.244 1.447-.426.181-.182.302-.668.242-1.52l-.061-6.865h-.06l-4.22 9.174h-.362l-3.858-8.992h-.061l-.181 4.375.06 3.16c.061.303.181.547.422.729l1.266.365v.484h-4.401v-.484c.542-.061.904-.184 1.146-.365.181-.182.301-.426.362-.729l.361-3.221.181-3.281c.06-1.033 0-1.64-.181-1.823-.12-.182-.603-.364-1.447-.425v-.547h3.437l3.678 7.958 3.737-7.958h3.618v.547c-.844.061-1.326.182-1.506.364-.181.182-.302.729-.242 1.519z" fill-rule="evenodd" clip-rule="evenodd" fill="#fff"/></svg>