<svg xmlns="http://www.w3.org/2000/svg" width="2500" height="2500" viewBox="0 0 192.756 192.756"><g fill-rule="evenodd" clip-rule="evenodd"><path fill="#fff" d="M0 0h192.756v192.756H0V0z"/><path d="M147.654 68.467h8.559a16.564 16.564 0 0 0-1.004 3.275c-.211 1.057-.369 2.114-.369 3.117v26.945c0 1.48.211 2.432.633 2.906.424.529 1.217.793 2.379.898-.793 2.43-1.428 3.963-2.008 4.49-.635.635-1.639.898-3.117.898h-8.453c.422-1.215.738-2.324.949-3.381.213-1.109.371-2.061.371-3.012V77.66c0-1.533-.213-2.536-.635-3.011-.422-.423-1.162-.74-2.324-.793.793-2.483 1.426-3.962 2.008-4.543.58-.529 1.531-.846 3.011-.846zm-18.597 0h8.506c-.422 1.11-.793 2.219-1.004 3.275a16.034 16.034 0 0 0-.316 3.117v26.945c0 1.48.211 2.432.633 2.906.424.529 1.162.793 2.326.898-.74 2.43-1.428 3.963-2.008 4.49-.582.635-1.639.898-3.119.898h-8.453c.424-1.215.74-2.324.951-3.381.213-1.109.318-2.061.318-3.012V77.66c0-1.533-.213-2.536-.635-3.011-.369-.423-1.162-.74-2.271-.793.74-2.483 1.426-3.962 1.955-4.543.58-.529 1.583-.846 3.117-.846zM32.369 80.09h8.454a13.382 13.382 0 0 0-.951 3.275c-.265 1.057-.317 2.061-.317 3.065v15.269c0 1.691.264 2.959.845 3.752.528.846 1.427 1.215 2.589 1.215 1.479 0 2.536-.475 3.17-1.533.634-1.055.951-2.799.951-5.23v-10.62c0-1.532-.158-2.536-.581-3.011s-1.162-.74-2.325-.845c.792-2.483 1.426-3.963 2.007-4.491.581-.581 1.585-.845 3.064-.845h8.56a20.337 20.337 0 0 0-1.004 3.434c-.211 1.057-.317 2.061-.317 2.906v15.903c0 1.32.159 2.113.528 2.482.37.369 1.163.582 2.272.582-.792 2.693-1.479 4.279-2.06 4.807-.581.529-1.638.793-3.17.793h-2.536c-.792 0-1.479 0-1.955.053a7.938 7.938 0 0 0-1.374.264c.159-.896.265-1.742.423-2.535.105-.793.159-1.533.211-2.166-.898 1.691-2.114 2.959-3.593 3.857-1.532.844-3.276 1.268-5.336 1.268-3.381 0-5.864-.898-7.397-2.695-1.585-1.85-2.325-4.754-2.325-8.77v-10.99c0-1.479-.211-2.483-.634-3.011-.423-.476-1.215-.74-2.378-.845.74-2.43 1.427-3.91 2.008-4.491.582-.583 1.639-.847 3.171-.847zM8.805 66.618c-2.007 0-3.329.264-3.91.845-.634.581-1.321 2.061-2.061 4.491 1.163.159 2.008.528 2.378 1.057.422.581.634 1.639.634 3.276v28.636c0 1.004-.105 2.008-.317 3.012-.264.951-.581 2.008-1.056 3.064 1.162-.158 2.219-.211 3.064-.264.898-.105 1.691-.105 2.483-.105 1.321 0 3.435.053 6.393.158 2.906.158 3.646.264 5.231.211 4.015-.105 5.653-2.641 6.446-6.604a21.189 21.189 0 0 1-4.016 1.373c-1.374.264-2.8.211-4.227.211-2.166 0-2.324-.369-3.011-1.057-.582-.633-.74-1.531-.74-3.275v-28.9c0-1.057.105-2.113.317-3.118.211-1.003.582-2.007 1.004-3.011H8.805zm57.431 1.849h8.506a17.357 17.357 0 0 0-.951 3.223 16.084 16.084 0 0 0-.317 3.17v7.397c.792-.845 1.797-1.479 3.012-1.902 1.163-.422 2.589-.634 4.174-.634 3.698 0 6.604 1.374 8.612 4.122 2.007 2.8 3.064 6.709 3.064 11.782 0 5.019-1.057 8.929-3.17 11.783-2.113 2.799-4.966 4.227-8.665 4.227-1.744 0-3.223-.318-4.543-1.057a8.508 8.508 0 0 1-3.223-3.064c-.105 1.479-.475 2.482-1.056 3.012-.634.527-1.85.791-3.646.791-1.109 0-2.008 0-2.747-.053-.74 0-1.427 0-2.167-.053.37-1.004.581-2.008.74-2.957.159-.953.264-2.008.264-3.277V77.66c0-1.479-.211-2.483-.634-2.959s-1.215-.792-2.378-.845c.793-2.43 1.427-3.91 2.008-4.491.581-.581 1.637-.898 3.117-.898zm6.816 28.107c0 3.117.422 5.494 1.215 7.133.792 1.586 1.955 2.377 3.487 2.377 1.638 0 2.853-.844 3.593-2.588.792-1.744 1.162-4.492 1.162-8.19 0-3.646-.37-6.339-1.162-8.136-.792-1.744-1.955-2.642-3.593-2.642-1.533 0-2.695.792-3.487 2.324s-1.215 3.751-1.215 6.657v3.065zm49.346-11.517c-.527 1.11-.898 2.483-1.057 4.016-.053.37-.105.634-.105.792-.316 1.426-.898 2.589-1.691 3.487-.791.898-2.219 1.849-4.174 2.854l-9.033 4.385c.791 1.902 1.795 3.328 3.01 4.279 1.217.898 2.695 1.375 4.387 1.375.846 0 1.955-.16 3.328-.529s2.324-.529 2.854-.529c.951 0 1.689.793 2.801 2.379.053.105.369.158.422.211-2.113 1.268-4.227 2.271-6.287 2.906a20.958 20.958 0 0 1-6.182.951c-4.492 0-8.189-1.48-10.99-4.387-2.8-2.957-4.226-6.814-4.226-11.623 0-2.272.369-4.386 1.056-6.34.688-1.955 1.744-3.698 3.117-5.283 1.32-1.479 2.854-2.642 4.65-3.381a14.313 14.313 0 0 1 5.811-1.215c3.223 0 7.027 1.69 11.518 5.019.37.263.633.474.791.633zm-13.63 8.136c1.479-.634 2.588-1.479 3.434-2.483.793-.951 1.215-1.955 1.215-3.011 0-.951-.316-1.691-.896-2.325-.635-.634-1.375-.951-2.326-.951-1.584 0-2.852.792-3.855 2.325-1.004 1.585-1.533 3.593-1.533 6.023 0 .317 0 .634.053 1.057 0 .37.053.74.158 1.163l3.75-1.798zm69.742 14.161c-.951 1.373-2.061 2.43-3.383 3.117-1.268.686-2.799 1.004-4.49 1.004-2.959 0-5.283-1.057-7.08-3.117-1.744-2.061-2.641-4.809-2.641-8.244 0-3.434.949-6.128 2.852-8.135 1.902-2.061 4.439-3.064 7.609-3.064 1.531 0 2.906.316 4.068.897 1.215.634 2.113 1.533 2.799 2.695.053-.211.053-.423.053-.687v-1.004c0-2.482-.527-4.226-1.584-5.23-1.109-1.004-2.959-1.533-5.602-1.533-1.32 0-2.641.106-3.961.37-1.322.211-2.695.528-3.963 1.004l.211-.528c1.109-2.853 2.061-4.333 2.748-4.597.738-.264 1.795-.475 3.17-.687 1.373-.158 2.906-.211 4.49-.211 2.377 0 4.438.211 6.182.739 1.691.476 3.17 1.268 4.332 2.272a6.708 6.708 0 0 1 2.113 3.117c.424 1.215.635 3.17.635 5.865v10.408c0 1.744.211 2.801.582 3.17.422.424 1.162.635 2.271.635-.477 2.113-1.109 3.539-1.955 4.279-.793.74-2.166 1.109-4.174 1.109h-2.008c-.688 0-1.32 0-1.902.105-.582.053-1.109.158-1.639.264.053-.58.16-1.215.213-1.795.053-.582.053-1.109.053-1.639v-.579h.001zm-8.19-7.399c0 1.797.422 3.223 1.162 4.334.74 1.109 1.691 1.637 2.906 1.637 1.268 0 2.219-.527 2.904-1.531.688-1.004 1.004-2.484 1.004-4.334 0-1.953-.316-3.434-.949-4.437-.635-1.057-1.586-1.532-2.801-1.532-1.268 0-2.324.528-3.064 1.532-.793 1.056-1.162 2.483-1.162 4.331z" fill="#f4d045"/></g></svg>