<svg xmlns="http://www.w3.org/2000/svg" width="2500" height="2500" viewBox="0 0 192.756 192.756"><g fill-rule="evenodd" clip-rule="evenodd"><path fill="#fff" d="M0 0h192.756v192.756H0V0z"/><path d="M8.504 145.357v-42.17l63.384-56.05v32.216l37.979-31.954v63.646l25.93-24.358s2.881-3.405-1.047-3.405h-23.574l30.121-33.787 18.859.524s11.785-.524 17.547 8.12c5.764 8.643 8.119 17.548 3.668 25.406-4.453 7.857-23.834 30.381-23.834 30.381l26.715.264-28.549 29.596H81.58V111.57l-37.455 34.049v-31.955L8.504 145.357z" fill="#48b0ab"/><path d="M94.414 137.5l51.467-51.468s3.799-8.512-3.273-9.037c-7.072-.523-17.811-.523-17.811-.523l18.857-19.906 16.764-.262s9.689.262 13.357 8.905c3.666 8.644 4.715 13.096-2.096 22.263-6.811 9.168-28.811 32.479-28.811 32.479h26.715l-17.154 17.156-58.015.393z" fill="#fff"/></g></svg>