<svg xmlns="http://www.w3.org/2000/svg" width="2500" height="2500" viewBox="0 0 192.756 192.756"><g fill-rule="evenodd" clip-rule="evenodd"><path fill="#fff" d="M0 0h192.756v192.756H0V0z"/><path d="M99.055 33.14c3.162.157 6.305.43 9.449.812 6.77 1.271 13.486 3.002 19.773 5.865 2.961 1.364 5.826 2.897 8.656 4.513 4.605 3.005 8.982 6.233 13.016 9.983 3.23 3.064 6.102 6.436 8.879 9.915 4.082 5.841 7.842 12.061 10.303 18.776 1.16 3.171 2.266 6.394 3.01 9.692 1.051 4.798 1.783 9.708 2.016 14.63-2.219-2.324-5.068-3.953-8.252-4.848a23.336 23.336 0 0 0-3.062-.58l-131.199-.105c-.767.025-1.524.07-2.288.164a18.964 18.964 0 0 0-7.284 2.549c-.907.564-1.721 1.203-2.527 1.906-.074.068-.147.139-.22.207.156-2.605.422-5.199.735-7.795.817-4.327 1.821-8.574 3.173-12.766 1.746-5.264 4.082-10.317 6.894-15.093.935-1.561 1.95-3.047 3-4.529 3.171-4.423 6.637-8.688 10.636-12.388 3.199-2.924 6.55-5.657 10.185-8.018 4.028-2.604 8.238-4.834 12.585-6.851a135.453 135.453 0 0 1 10.834-3.675c6.966-1.548 14.177-2.647 21.323-2.384l.365.02z" fill="#cc2229"/><path d="M31.643 101.795l131.199.105c1.039.127 2.047.316 3.062.58 4.594 1.291 8.492 4.111 10.805 8.344a18.447 18.447 0 0 1 1.664 4.684c.166.857.219 1.66.271 2.539l-.016 20.006-.434 2.701-.713 2.127c-1.156 2.658-2.754 4.83-4.998 6.672a18.492 18.492 0 0 1-9.945 3.926c-.48.035-.961.057-1.443.074l-130.565-.049c-1.515-.135-2.912-.387-4.37-.834a18.592 18.592 0 0 1-6.571-3.686c-2.713-2.412-4.486-5.533-5.202-9.084a20.874 20.874 0 0 1-.276-2.348l.058-20.639c.114-.922.279-1.814.514-2.711.881-3.117 2.49-5.588 4.861-7.789.806-.703 1.621-1.342 2.527-1.906a18.986 18.986 0 0 1 7.284-2.549 25.789 25.789 0 0 1 2.288-.163z" fill="#cc2229"/><path d="M31.697 105.033l130.44.049c1.807.176 3.438.578 5.113 1.283 2.557 1.146 4.756 2.979 6.252 5.359.977 1.65 1.514 3.236 1.824 5.127l.08 1.293-.016 19.648-.355 2.215-.412 1.309c-1.293 3.24-3.471 5.641-6.557 7.271-1.672.83-3.494 1.436-5.357 1.625-.557.053-1.109.084-1.666.1l-129.952-.01c-.731-.064-1.432-.125-2.153-.258-2.846-.584-5.259-1.719-7.42-3.68-1.295-1.236-2.254-2.525-3.023-4.143a13.044 13.044 0 0 1-1.145-4.771l.004-19.865c.16-1.58.488-2.973 1.122-4.43 1.057-2.273 2.645-4.029 4.668-5.486 2.145-1.473 4.769-2.367 7.354-2.576a28.38 28.38 0 0 1 1.199-.06z" fill="#33a457"/><path d="M31.744 108.273l129.772.012c1.834.119 3.408.523 5.061 1.338 1.562.852 2.756 1.852 3.83 3.277.93 1.371 1.449 2.672 1.697 4.314l.062 1.027-.014 19.355-.129 1.062c-.604 2.867-2.148 4.938-4.561 6.555-1.557.945-3.072 1.479-4.869 1.754-.537.059-1.057.094-1.596.104l-129.766-.01-1.081-.094c-3.209-.492-5.843-1.908-7.812-4.52-.821-1.213-1.316-2.355-1.618-3.789a12.871 12.871 0 0 1-.144-1.557l.016-19.354c.133-1.48.497-2.684 1.195-3.99.924-1.531 2.012-2.637 3.493-3.627 1.556-.945 3.073-1.48 4.87-1.754a19.378 19.378 0 0 1 1.594-.103z" fill="#fff"/><path d="M31.78 111.512h129.185c4.379 0 7.963 3.051 7.963 6.779v18.764c0 3.729-3.584 6.779-7.963 6.779H31.78c-4.379 0-7.962-3.051-7.962-6.779v-18.764c-.001-3.729 3.583-6.779 7.962-6.779z" fill="#cc2229"/><path d="M50.193 136.82h-1.386v1.119h7.778v-1.119h-1.412l2.61-14.012 3.01 14.012h-1.172v1.119h7.139v-1.119h-1.838l-3.569-16.41h1.731v-1.117h-7.166v1.117h1.172l-2.957 15.637-3.382-15.637h1.492v-1.117h-7.619v1.117h1.972c.213 1.307-.187 2.531-1.225 4.131-2.344 3.648-5.701 6.205-5.701 11.721 0 2.215.719 1.947 1.492 1.869.533-.055 1.012-.082 1.545 0 .532.078 1.065.213 1.545 0 .319-.16.346-.352.372-.564.054-.453.027-.906 0-1.332-.106-1.652-.372-2.932-.372-4.422 0-3.17 1.225-5.754 3.036-8.525l2.905 13.532zm25.301-16.781c.374 2.369-1.119 3.596-2.61 5.967-1.785 2.77-3.782 6.232-3.782 9.109 0 2.131 1.332 3.201 2.983 3.201 2.85 0 5.461-4.373 6.313-8.396l1.998 6.9h-2.025v1.119h7.991v-1.119h-1.838l-4.901-16.781h2.104v-1.119h-8.284v1.119h2.051zm2.131 7.352c-.346 2.477-2.104 6.793-4.129 6.793-1.039 0-1.438-.693-1.518-1.305a2.975 2.975 0 0 1 0-.693c.293-2.852 2.771-6.74 4.449-9.031l1.198 4.236zm17.07.132v-7.113h1.839v-1.117h-8.178v1.117h2.211v16.41h-2.211v1.119h7.991v-1.119h-1.652v-8.365c4.102.826 5.196 3.438 4.901 8.365h-1.037v1.119h7.244v-1.119h-1.598c-.107-7.271-4.98-8.418-6.979-8.896-.16-.027-.294-.08-.454-.107 1.811-3.543 2.665-5.434 4.342-5.434.932 0 1.277.293 2.291.666h.533c-.053-1.68.158-2.105.746-3.65-.588-.266-1.439-.479-2.346-.479-3.596 0-5.326 5.967-6.286 7.857l-.373.746h-.984zm29.164 10.416v-1.119h-2.211v-2.371c1.705.453 2.078.719 3.676.719 3.17 0 5.781-2.104 5.781-4.793 0-4.344-5.035-6.102-9.457-9.697v-.268h2.238v-1.117h-8.338v1.117h2.236v.268c-4.422 3.596-9.457 5.354-9.457 9.697 0 2.689 2.611 4.793 5.781 4.793 1.6 0 1.971-.266 3.676-.719v2.371h-2.211v1.119h8.286zm-2.211-15.957c2.477 2.078 5.035 4.156 5.035 7.139 0 1.68-.906 4.529-3.783 4.529-.506 0-.932-.053-1.252-.133v-11.535zm-3.863 0v11.535c-.318.08-.746.133-1.252.133-2.877 0-3.781-2.85-3.781-4.529 0-2.982 2.557-5.06 5.033-7.139zm22.531-1.943c.373 2.369-1.117 3.596-2.609 5.967-1.785 2.77-3.783 6.232-3.783 9.109 0 2.131 1.332 3.201 2.984 3.201 2.85 0 5.459-4.373 6.312-8.396l1.998 6.9h-2.025v1.119h7.992v-1.119h-1.838l-4.902-16.781h2.105v-1.119h-8.285v1.119h2.051zm2.131 7.352c-.346 2.477-2.104 6.793-4.129 6.793-1.037 0-1.438-.693-1.518-1.305a2.975 2.975 0 0 1 0-.693c.293-2.852 2.77-6.74 4.449-9.031l1.198 4.236zM151.82 115.385c1.576 0 2.861 1.285 2.861 2.861s-1.285 2.861-2.861 2.861-2.861-1.285-2.861-2.861 1.285-2.861 2.861-2.861zm0 .324a2.542 2.542 0 0 0-2.537 2.537 2.543 2.543 0 0 0 2.537 2.539 2.544 2.544 0 0 0 2.537-2.539 2.543 2.543 0 0 0-2.537-2.537zm-.826 1.031c-.125 0-.273-.061-.273.041 0 .037.057.061.076.082.053.051.02.158.02.373v1.818c0 .264.033.32-.062.381-.033.021-.072.041-.072.098 0 .098.139.049.27.049h.398c.158 0 .158.018.283.018.047 0 .119-.004.119-.074 0-.061-.039-.064-.072-.09-.053-.039-.037-.129-.037-.211v-.336c0-.119-.006-.18-.006-.225 0-.031.039-.068.115-.068.135 0 .234.15.234.301 0 .09-.02.174-.02.283 0 .174.045.424.223.424.076 0 .076-.021.182-.021h.215c.043 0 .088.004.125.014a.34.34 0 0 0 .092.016c.072 0 .1-.037.1-.07 0-.049-.018-.072-.047-.098-.047-.039-.066-.053-.066-.121 0-.162.01-.121.01-.227 0-.271-.131-.398-.279-.447-.092-.027-.24-.037-.24-.117 0-.07.121-.09.207-.127.24-.105.402-.369.402-.697 0-.316-.133-.674-.498-.861-.23-.117-.5-.129-.586-.129-.197 0-.162.023-.447.023h-.366v-.002zm.992 1.385c0 .129-.023.354-.244.354-.182 0-.139-.146-.129-.188.029-.098.029-.133.029-.223v-.744c0-.129 0-.193-.039-.312-.02-.057-.053-.178.129-.178.168 0 .254.086.254.576v.715z" fill="#fff"/><path d="M98.902 36.376c3.047.143 6.078.407 9.105.78 6.244 1.156 12.525 2.788 18.352 5.349 3.037 1.359 5.998 2.938 8.887 4.592 5.617 3.643 11.039 7.766 15.588 12.707a124.153 124.153 0 0 1 5.398 6.366c3.344 4.751 6.379 9.795 8.742 15.112.586 1.354 1.09 2.748 1.584 4.14.947 2.7 1.877 5.441 2.479 8.242.756 3.577 1.354 7.233 1.684 10.901a19.197 19.197 0 0 0-4.816-2.084 23.336 23.336 0 0 0-3.062-.58l-131.199-.105c-.767.025-1.524.07-2.288.164a18.994 18.994 0 0 0-6.603 2.158c.14-1.604.315-3.203.51-4.795 1.293-6.97 3.164-13.877 6.252-20.277 1.416-2.892 2.897-5.793 4.684-8.471 2.734-4.049 5.724-7.896 9.049-11.475 2.302-2.449 4.929-4.667 7.524-6.792 2.397-1.946 4.997-3.654 7.644-5.24 3.04-1.81 6.174-3.424 9.386-4.902a122.894 122.894 0 0 1 10.375-3.519 104.66 104.66 0 0 1 7.808-1.463c4.125-.589 8.41-.998 12.576-.822l.341.014z" fill="#33a457"/><path d="M96.716 39.969c3.597.098 7.161.371 10.733.817a93.802 93.802 0 0 1 9.01 2.093c3.139.926 6.285 1.97 9.25 3.364a107.37 107.37 0 0 1 7.623 3.989 98.834 98.834 0 0 1 5.264 3.638c3.225 2.42 6.42 5.062 9.168 8.02a108.291 108.291 0 0 1 5.527 6.479c2.561 3.617 4.85 7.36 6.85 11.318.674 1.347 1.359 2.71 1.906 4.115a109.541 109.541 0 0 1 3.08 9.182 91.788 91.788 0 0 1 1.646 9.296c.02.16.037.322.055.484a17.664 17.664 0 0 0-.924-.285 23.336 23.336 0 0 0-3.062-.58l-131.199-.105c-.767.025-1.524.07-2.288.164-.944.129-1.864.32-2.764.578.09-.885.19-1.771.301-2.656a92.8 92.8 0 0 1 2.094-9.01c.925-3.139 1.969-6.291 3.364-9.251a110.06 110.06 0 0 1 3.988-7.621c2.394-3.703 4.996-7.198 7.9-10.514.989-1.119 1.986-2.25 3.069-3.274a110.64 110.64 0 0 1 7.167-6.169 101.46 101.46 0 0 1 4.927-3.279c3.177-1.953 6.448-3.666 9.835-5.216a109.827 109.827 0 0 1 9.855-3.343c4.155-.947 8.305-1.619 12.551-1.971 1.691-.131 3.38-.214 5.074-.263z" fill="#fff"/><path d="M96.718 42.778c3.501.089 6.829.341 10.306.784 5.676 1.019 10.713 2.446 16.078 4.568a100.65 100.65 0 0 1 8.77 4.5 82.86 82.86 0 0 1 12.781 10.047 101.208 101.208 0 0 1 6.389 7.374 82.12 82.12 0 0 1 8.158 14.178 99.517 99.517 0 0 1 3.209 9.457 83.516 83.516 0 0 1 1.51 8.371 24.017 24.017 0 0 0-1.076-.156l-131.199-.105c-.727.023-1.445.064-2.17.148.061-.543.126-1.088.196-1.635 1.019-5.679 2.447-10.717 4.568-16.08a100.058 100.058 0 0 1 4.5-8.769 82.872 82.872 0 0 1 10.047-12.782 101.274 101.274 0 0 1 7.373-6.389 82.323 82.323 0 0 1 14.178-8.159 99.439 99.439 0 0 1 9.458-3.208c5.741-1.331 11.033-1.994 16.924-2.144z" fill="#cc2229"/><path d="M96.718 54.659c27.853 0 51.06 20.531 55.269 47.233l-110.522-.09c4.245-26.657 27.431-47.143 55.253-47.143z" fill="#33a457"/><path d="M96.718 57.251c26.421 0 48.458 19.373 52.642 44.64l-105.269-.086c4.22-25.225 26.236-44.554 52.627-44.554zM45.833 69.329c-.105.12-.352.259-.2.392.097.084.153.02.22.007.097-.014.186.063.243.126.367.375 2.308 2.077 2.791 2.497.644.56 1.116.928 1.958 1.632.393.328-.01.288.255.519.187.162.297-.194.549-.484l.546-.628c.189-.217.541-.392.338-.568-.112-.099-.186-.062-.261-.058-.105.007-.202-.077-.242-.111l-1.875-1.631a3.958 3.958 0 0 0-.265-.216c-.056-.049-.127-.097-.184-.146-.073-.063-.307-.281-.076-.546.091-.104.192-.172.361-.139.13.029.274.125.531.349l2.004 1.742c.081.07.174.109.191.236.013.082-.006.137.099.228.187.162.289-.187.499-.429l.56-.644c.203-.233.562-.416.351-.599-.088-.077-.193-.054-.229-.044-.075.021-.142.032-.31-.1-.2-.159-.488-.495-2.154-1.943-1.626-1.413-2.258-1.906-2.643-2.227-.129-.112-.108-.136-.083-.214.03-.115-.02-.172-.06-.207-.145-.126-.29.186-.401.314l-.77.886c-.133.153-.424.31-.271.443.088.077.182.017.236.021.038.005.092.024.326.227l1.167 1.015c.113.098.143.096.351.262.312.243.167.442.069.555-.077.088-.176.186-.377.125-.046-.012-.217-.076-.627-.433l-1.087-.945c-.201-.175-.243-.24-.255-.292-.012-.067.019-.167-.062-.238-.04-.035-.124-.036-.214.068-.105.121-.06.117-.347.448l-.652.75zm11.754-1.656c.13-.126.253-.259.407-.361.077-.059.16-.095.229-.162.146-.141.109-.271.05-.332-.097-.1-.256-.02-.332-.006-.28.048-.621-.29-.94-.56-.603-.501-3.763-3.098-4.759-3.53-.254-.11-.338-.073-.5.082-.223.215-.385.461-.532.646-.054.067-.108.134-.169.193-.138.134-.298.229-.436.362-.169.163-.111.299-.059.354.044.045.133.123.323.058.189-.064.387-.152.775.497.396.656.676 1.482 2.503 3.974.339.458.554.68.58.892.026.242-.231.313-.046.504.104.109.25-.002.296-.046.115-.111.199-.239.307-.343a1.71 1.71 0 0 1 .269-.213c.084-.051.16-.11.237-.185.046-.044.123-.118.078-.166-.06-.062-.103-.213-.307-.133-.129.05-.304.13-.556-.131-.186-.191-.465-.604.026-1.078.13-.126.666-.554 1.134-.161a.88.88 0 0 1 .156.161c.162.199.108.266.053.408-.04.097-.042.188.047.28.098.101.205.027.289-.055.085-.081.139-.163.201-.253.077-.104.161-.202.253-.291l.423-.405zm-2.732.058c-.13.126-.406.393-.807-.021-.244-.253-1.669-2.036-1.308-2.384.168-.163.332-.009.398.06.185.192.207.261.766.64.425.302.768.519 1.086.849.119.123.355.384.025.702l-.16.154zm.481-7.172c.113 1.089.907 2.188 1.27 2.636 1.745 2.156 3.466 2.466 4.328 1.769.58-.47.617-1.408.342-1.748-.229-.282-.456-.207-.564-.12-.232.188-.172.482-.038.648.061.075.147.114.208.189.167.207.221.493.022.654-.497.403-.774-.21-1.216-.772a242.574 242.574 0 0 0-3.074-3.796c-.161-.199-.203-.233-.32-.345a.462.462 0 0 1-.134-.166.263.263 0 0 1 .084-.302c.183-.147.57-.16 1.151.235.354.234.518.555.808.32.083-.067.157-.264-.125-.612-.241-.298-.573-.47-.852-.696-.302-.236-.28-.363-.595-.108-.158.127.055.271-.136.425-.108.088-.239.111-.373.15s-.261.102-.369.189c-.346.282-.471.891-.417 1.45zm6.226-.406c.531.787.445.64 1.073 1.554l.412.61c.077.115.173.256.129.402-.026.094-.126.213-.031.355.073.107.164.072.244.018.194-.131.142-.15.346-.287l.84-.567c.273-.185.766-.295.585-.562-.071-.106-.16-.084-.236-.084-.223-.005-.333-.188-.429-.329l-.411-.61c-.143-.212-.277-.43-.42-.643-.188-.297-.385-.589-.582-.881L62.2 57.82c-.656-.973-.684-1.071-1.02-1.396-.122-.125-.351-.33-.086-.509.089-.06.272-.055.403.101.039.039.06.088.089.133.036.053.057.104.093.156a.414.414 0 0 0 .595.1c.177-.119.109-.201.043-.299-.107-.16-.226-.26-.336-.365-.185-.197-.22-.25-.351-.406-.092-.118-.161-.2-.347-.075-.106.071-.176.158-.247.244-.112.14-.23.271-.371.366l-1.344.906a.743.743 0 0 1-.257.096.974.974 0 0 0-.372.135c-.185.125-.108.24-.045.352.186.351.214.679.387.936.089.133.164.186.332.072.195-.131.232-.324.175-.465a.57.57 0 0 0-.107-.159 1.14 1.14 0 0 1-.116-.153c-.173-.256-.085-.393.021-.464.097-.065.281-.099.4.193.087.224.248.502 1.012 1.633l.811 1.201zm3.435-7.086c-1.194.661-1.318 2.353-.237 4.302 1.711 3.088 3.49 2.689 4.153 2.322.308-.171.595-.466.789-.866.513-1.077.005-2.345-.714-3.642-.341-.615-1.106-1.886-2.27-2.29a2.125 2.125 0 0 0-1.721.174zm.504 1.525c-.247-.424-.313-.522-.383-.581-.06-.064-.152-.098-.193-.173-.072-.13-.049-.352.185-.48.271-.15.55-.086.917.576.507.915.789 1.466 1.202 2.212.253.458.498.919.76 1.372.387.676.482.891.662 1.061.129.123.267.218.354.376.042.075.074.288-.159.417-.485.27-.87-.358-.962-.503-.508-.828-.976-1.739-1.448-2.612a36.653 36.653 0 0 0-.935-1.665zm6.551-4.673c-.514.208-1.037.224-1.667.743-1.013.823-.824 2.174-.544 2.866.344.851 1.068 1.42 1.718 1.376.135-.008.358-.053.418.096.056.138-.062.22-.158.294-.219.169-.819.733-.291 1.785.065.135.239.422.117.631-.049.078-.152.165-.084.333.104.259.439-.051.677-.147l.445-.18c.257-.104.169-.009.475-.133.129-.052.462-.221.099-1.123a6.156 6.156 0 0 0-.179-.387c-.058-.115-.112-.22-.16-.338-.18-.445-.049-.889.188-.986.09-.036.227-.011.266.088.052.128.076.246.248.671l.248.613c.08.198.269.467.181.675-.029.07-.099.155-.055.264.024.06.11.131.309.05.286-.116.24-.145.566-.277l.811-.328c.316-.127.611-.084.51-.333-.052-.129-.151-.146-.24-.167-.168-.048-.183-.111-.23-.229l-2.257-5.588c-.076-.188-.16-.338-.127-.455.01-.062.093-.141.053-.239-.096-.237-.336.021-.594.125l-.743.3zm.612 3.194c.095.237.156.443.309.68.098.157.163.233.207.343.036.089.019.245-.219.341a.48.48 0 0 1-.338-.013c-.26-.102-.408-.411-.503-.647l-.704-1.741c-.455-1.127-.419-1.464-.053-1.612.375-.152.424.139.453.324.042.305.104.486.229.793l.619 1.532zm7.961-6.114c-.082.024-.156.034-.241.047a1.112 1.112 0 0 0-.188.043c-.031.008-.226.064-.181.218.026.093.126.13.189.157.112.045.108.069.155.232l1.47 5.127c.209.728.39 1.164-.041 1.288-.4.114-.52-.263-.551-.375-.15-.523-.06-.404-.272-1.143L79.648 48c-.088-.308-.09-.274-.004-.398.03-.053.069-.108.04-.211-.068-.236-.309-.034-.596.049l-.974.279c-.256.074-.245.037-.429.09-.205.059-.267.232-.126.336.111.079.237.054.308.3l1.326 4.624c.268.933.154.344.383 1.144.142.492-.187.586-.269.61-.308.088-.429-.065-.655-.855l-1.526-5.321c-.026-.092-.076-.189-.028-.292.022-.074.076-.122.046-.224-.077-.267-.394-.02-.661.056l-.82.235c-.246.071-.266.042-.429.09-.247.07-.227.253-.126.336.102.082.206.019.308.299.091.241-.04.057.651 2.466.535 1.866.982 3.27 1.098 3.636.06.171.007.176-.046.224-.07.065-.064.163-.046.225.03.104.153.069.214.051l.276-.08c.277-.079.551-.169.828-.249.738-.211 1.489-.382 2.227-.593.441-.127.87-.294 1.308-.433.253-.084.509-.157.766-.231 1.087-.312 1.272.026 1.363.343.027.093.033.19.059.283.077.266.274.454.438.406.391-.112.136-.727.139-1.26-.001-.701-.246-.664-.399-.62-.062.018-.126.025-.172.061-.038.022-.06.062-.101.073-.185.053-.221-.191-.235-.276-.039-.211-.119-.609-.895-3.316-.244-.851-.46-1.644-.787-2.626-.075-.223-.04-.255.038-.333.032-.042.074-.088.04-.211-.077-.267-.374-.026-.733.077l-.822.235zm9.042 5.897c.326-.052.207.012.46-.028.137-.021.214-.079.194-.205-.017-.105-.065-.141-.125-.174-.094-.05-.153-.084-.196-.282-.078-.355-.185-1.58-.484-3.465-.302-1.907-.357-2.319-.471-2.766-.056-.217-.002-.215.065-.269.068-.044.092-.102.079-.186-.035-.222-.292-.062-.502-.029l-1.021.162c-.074.011-.139.011-.214.012a1.21 1.21 0 0 0-.204.01c-.168.027-.195.128-.186.192.017.105.085.127.143.15.119.067.134.162.15.268.067.421-.002.465-.334 1.91-.12.537-.14.821-.266.841-.105.017-.117-.057-.126-.109-.063-.4-.03-.536-.104-.999l-.234-1.475c-.026-.168.011-.207.078-.26.046-.051.12-.127.105-.223-.007-.042-.056-.153-.236-.124-.242.038-.121.051-.405.097l-1.085.171c-.19.03-.543-.022-.51.189.017.105.115.111.174.146.094.05.113.165.116.251.027.374.391 2.811.533 3.706.135.854.257 1.417.452 2.51.09.504-.196.193-.138.562.02.129.109.146.215.13.263-.042.169-.093.653-.17l.685-.108c.4-.063.713.072.66-.267-.019-.116-.099-.146-.158-.18-.128-.056-.128-.056-.169-.319l-.183-1.148c-.087-.548-.231-.644-.094-1.346.123-.656.306-1.139.411-1.771.004-.044.059-.312.185-.332.179-.028.143.291.135.378-.03.285.033.956.086 1.292l.351 2.212c.056.359.19.727.086.884-.045.061-.131.128-.111.254.027.17.176.157.282.141.369-.059.185-.063.563-.123l.695-.11zm2.286-7.67a4.64 4.64 0 0 1-.641.001c-.107-.005-.183-.012-.257-.008-.106.006-.233.033-.225.172.007.149.099.07.158.174.06.114.052.381.061.552l.271 5.187c.038.725.112.913.043 1.023-.06.1-.187.106-.179.256.016.31.317.143.615.127l1.79-.094c.192-.01.361-.041.514.018.141.046.177.108.421.095.17-.009.201-.042.188-.289-.034-.437 0-.609.105-1.031.107-.412-.13-.442-.236-.437-.352.018-.396.395-.465.708-.094.432-.341.616-.554.627-.543.028-.383-.589-.404-.994l-.105-2.002c-.015-.287-.139-.826.372-.853.213-.011.346.078.451.244.116.175.165.493.463.478.255-.013.299-.197.292-.336-.01-.18-.219-.308-.341-.804-.081-.316-.187-.3-.335-.292-.288.015-.219.097-.277.228-.038.087-.108.166-.269.174-.426.021-.438-.404-.446-.564l-.071-1.375c-.016-.288-.198-.716.228-.738.245-.013.538.271.649.575.076.22.104.561.456.542.288-.015.245-.205.24-.301-.011-.224-.106-.411-.16-.611a2.16 2.16 0 0 1-.072-.37c-.036-.275-.09-.294-.292-.284a.797.797 0 0 0-.234.034c-.073.025-.135.082-.22.086l-1.534.082zm9.379 6.045c-.111 1.061-.172.925-.361 1.098a.349.349 0 0 0-.107.204c-.023.213.287.126.498.148l.256.027c.264.027.648.241.684-.079.02-.19-.188-.255-.299-.321-.303-.193-.143-.476-.115-.741l.238-2.27c.047-.445-.041-.938.256-.906.213.022.291.191.355.295.055.102.4.568.539.582.17.018.43-.416.77-.895.076-.11.279-.4.48-.378.127.014.395.116.213.526a3.34 3.34 0 0 0-.273.958l-.297 2.822c-.033.318-.104.279-.197.344-.15.112-.152.34.102.366.16.017.143-.03.492.007l.881.093c.201.021.312.099.48.116.297.031.275-.262.168-.36-.088-.084-.178-.05-.135-.357.129-.909.297-2.521.359-3.104.293-2.79.215-2.755.291-3.176.029-.18.076-.218.145-.264.047-.027.127-.072.133-.136.006-.042.014-.127-.125-.142-.117-.012-.227.008-.332-.002-.18-.03-.318-.13-.576.079-.188.152-.898.989-.986 1.108-.15.209-.34.479-.637.447-.084-.009-.262-.049-.441-.293-.102-.139-.182-.308-.262-.467a4.663 4.663 0 0 0-.434-.668c-.291-.395-.385-.608-.629-.635-.098-.01-.195.012-.291.002-.084-.009-.166-.05-.271-.061-.139-.015-.176.024-.186.12-.016.159.035.176.096.225.098.085.109.183.1.279-.029.275-.066.519-.193 1.728l-.389 3.681zm9.473 2.887c.178.035.357.059.529.126.094.029.17.077.266.095.197.039.283-.066.299-.15.027-.137-.131-.221-.186-.275-.199-.202-.117-.675-.08-1.091.064-.781.379-4.86.162-5.923-.055-.271-.133-.319-.354-.362-.303-.06-.6-.052-.834-.065a1.984 1.984 0 0 1-.256-.028c-.189-.036-.357-.112-.547-.149-.23-.045-.309.081-.322.154-.014.062-.025.18.137.298.162.119.348.23.037.921-.309.7-.826 1.404-1.818 4.329-.182.541-.24.844-.398.987-.184.16-.389-.011-.439.251-.029.148.145.204.207.216.158.03.311.026.457.054.115.022.229.057.328.098.09.04.184.068.287.088.062.013.168.033.18-.032.018-.084.117-.206-.066-.328-.115-.077-.281-.175-.211-.53.051-.262.229-.727.898-.597.178.035.836.228.781.837a.78.78 0 0 1-.043.22c-.068.247-.154.241-.303.277-.104.023-.178.075-.203.2-.025.138.096.183.211.205.115.022.213.02.322.02.131.003.258.016.383.04l.576.114zm-1.616-2.204c-.178-.034-.553-.107-.443-.673.066-.345.711-2.535 1.201-2.439.23.045.199.267.182.361-.053.262-.096.318-.086.994-.004.521.016.927-.072 1.376-.033.167-.109.511-.561.423l-.221-.042zm6.473-4.172c-.191-.066-.492-.271-.562-.07-.037.111.184.12.086.469-.076.29-.152.377-.395 1.082l-.188.545c-.143.414-.295.824-.438 1.237-.875 2.541-.891 2.75-1.039 3.083-.131.283-.219.208-.322.25-.129.046-.227.296.006.376.141.048.209.014.441.094l.979.336c.23.08.129.081.402.174.291.101.34-.167.25-.3-.066-.102-.135-.068-.045-.331l1.07-3.106c.041-.121.086-.252.098-.384.004-.078-.002-.158.025-.239a.263.263 0 0 1 .336-.155c.252.086.277.343.258.562-.051.738-.621 2.854-.91 3.691-.08.232-.127.171-.234.224-.139.076-.148.3.062.373.09.032.178.039.273.06.094.021.189.041.279.072l.877.302c.191.066.41.222.535.184.111-.029.166-.19.096-.282-.051-.075-.146-.062-.111-.298.062-.34.182-.626.393-1.399.484-1.83.377-2.668.266-3.394-.156-.99.326-1.208.527-1.139.111.038.17.194.332.25.23.08.572.005.697-.357.154-.444-.104-.712-.375-.807-.686-.236-1.113.384-1.367.793-.279.446-.537.774-1.064.897a.62.62 0 0 1-.352.003c-.08-.028-.201-.104-.207-.251-.006-.149.129-.339.17-.46l.305-.888c.064-.182.062-.374.242-.436.051-.016.131-.022.166-.123.045-.131-.117-.187-.166-.205a1.167 1.167 0 0 0-.199-.045c-.074-.014-.139-.025-.209-.049l-.988-.339zm6.024 10.336c.166.073.336.137.488.242.084.049.148.113.236.151.186.083.291 0 .326-.078.057-.126-.078-.245-.119-.31-.148-.241.037-.684.168-1.082.238-.746 1.461-4.649 1.488-5.734.008-.278-.057-.341-.262-.433-.283-.125-.57-.185-.799-.25-.082-.025-.164-.05-.242-.084-.176-.079-.324-.191-.5-.269-.215-.095-.318.01-.35.078-.025.058-.064.169.066.321.131.151.287.302-.168.905-.461.612-1.123 1.182-2.748 3.81-.297.486-.424.768-.609.872-.215.114-.377-.098-.486.146-.061.138.096.231.154.257.146.065.297.095.434.156.107.047.209.106.297.169.08.059.162.107.26.151.059.026.156.069.184.009.033-.078.158-.174.008-.335-.094-.101-.234-.233-.086-.564.107-.243.385-.657 1.01-.379.164.074.762.411.574.992a.84.84 0 0 1-.092.205c-.123.225-.205.2-.357.202-.105 0-.191.032-.242.149-.059.128.051.2.158.248s.203.067.309.091c.127.033.248.073.365.126l.535.238zm-1.077-2.512c-.166-.074-.516-.229-.281-.756.143-.322 1.262-2.311 1.719-2.106.215.095.133.304.094.392-.107.244-.162.289-.307.949-.119.507-.193.907-.379 1.326-.07.156-.223.473-.641.287l-.205-.092zm7.032-2.828c-.205-.114-.32-.238-.412-.29-.113-.062-.242-.049-.277.017-.059.103.006.163.027.259.035.153-.084.258-.338.716l-2.455 4.431c-.279.504-.314.656-.408.737a.348.348 0 0 1-.18.083c-.059.017-.141.009-.172.064-.02.037-.141.167.055.276.16.087.279.091.438.18l.877.485c.094.052.184.153.408.277.074.041.207.152.303-.018.061-.111-.002-.219-.045-.292-.117-.186-.059-.204.033-.371l.498-.896c.568-1.026 1.023-.066 1.812.029.561.067 1.465-.224 2.189-1.531.314-.568.697-1.564.062-2.599a1.845 1.845 0 0 0-.684-.659c-.121-.067-.209-.104-.436-.205a4.115 4.115 0 0 1-.393-.193l-.902-.5zm.156 3.989c-.229.41-.604 1.153-1.061.9-.375-.207.082-.722.34-1.188l1.025-1.847a2.86 2.86 0 0 0 .211-.468 1 1 0 0 1 .092-.254c.123-.224.324-.21.51-.107.104.057.23.224.166.518-.018.076-.064.246-.332.73l-.951 1.716zM134.561 56.887c-1.133-.764-2.695-.106-3.941 1.742-1.975 2.927-.811 4.331-.184 4.754.291.197.686.319 1.129.31 1.191-.032 2.092-1.06 2.92-2.289.395-.583 1.18-1.843 1.012-3.062a2.136 2.136 0 0 0-.936-1.455zm-1.131 1.142c.266-.413.322-.516.344-.604.029-.083.018-.181.066-.251.082-.124.291-.202.512-.053.256.173.326.451-.098 1.079-.584.867-.947 1.368-1.426 2.075-.291.433-.594.86-.877 1.3-.426.651-.574.834-.645 1.07-.051.171-.072.336-.174.487-.049.07-.223.197-.443.048-.461-.311-.076-.938.012-1.085.506-.829 1.105-1.66 1.67-2.477.367-.525.725-1.056 1.059-1.589zm4.92 1.896c-.121-.105-.26-.353-.393-.199-.084.096-.02.152-.008.22.016.097-.062.186-.125.243-.377.366-2.078 2.307-2.498 2.791-.559.644-.928 1.116-1.633 1.958-.326.394-.287-.01-.518.256-.162.187.193.296.484.548l.629.545c.217.189.391.541.566.338.098-.113.062-.186.059-.261-.008-.105.076-.202.111-.243l1.631-1.875c.076-.089.146-.169.215-.265.049-.057.096-.128.146-.184.062-.073.281-.307.547-.077.104.091.172.192.137.361-.027.13-.123.273-.348.531l-1.742 2.004c-.07.081-.109.174-.236.19-.082.013-.137-.006-.227.099-.162.187.186.29.428.5l.645.56c.232.203.416.562.598.352a.244.244 0 0 0 .045-.23c-.02-.074-.033-.141.1-.309.16-.2.494-.488 1.943-2.155 1.414-1.626 1.906-2.258 2.227-2.643.113-.128.137-.107.215-.083.115.03.172-.02.207-.061.125-.145-.188-.289-.316-.401l-.885-.77c-.152-.133-.311-.425-.441-.271-.078.088-.02.182-.023.236-.004.038-.023.092-.227.326l-1.014 1.167c-.098.113-.096.143-.262.351-.244.312-.443.167-.557.069-.088-.077-.186-.177-.123-.377.01-.046.074-.217.432-.628l.945-1.086c.174-.201.24-.244.291-.255.066-.012.168.018.238-.062.035-.04.037-.123-.068-.214-.121-.105-.117-.06-.447-.347l-.748-.649zm4.882 4.506c-.066-.071-.141-.133-.189-.218-.043-.062-.07-.124-.123-.178-.086-.094-.193-.068-.24-.024-.131.123.002.174-.064.338-.072.156-.328.335-.727.706l-4.025 3.754c-.195.182-.215.098-.326.086-.166-.021-.301.149-.119.344.088.094.182.165.285.244.135.109.25.234.367.359l.684.733c.596.64.984 1.386 2.137 1.071.676-.181 1.305-.634 1.756-1.056.32-.298 1.031-1.036.742-2.223-.191-.769-.598-.843-.756-1.045a.386.386 0 0 1-.029-.439c.072-.125.232-.204.451-.407l.43-.4c.303-.283.367-.372.451-.376.082-.004.17.074.279-.028.117-.109 0-.234-.043-.281-.051-.054-.104-.094-.154-.148a6.61 6.61 0 0 1-.307-.297l-.48-.515zm-1.863 3.617c.414-.385.395-.469.535-.599.156-.146.336-.109.496.062.297.32-.094.683-.662 1.214l-1.006.938c-.865.808-1.193 1.302-1.621.841-.117-.124-.178-.315.17-.566.201-.145.232-.159.582-.486l1.506-1.404zm5.324.095c-.123-.132-.172-.247-.23-.31-.109-.117-.207-.113-.262-.062-.094.087-.035.149-.029.233-.004.06-.059.141-.285.352-.297.277-.896.806-1.246 1.134l-1.748 1.629c-.477.444-.867.838-1.469 1.398-.232.218-.26.126-.396.122-.127.003-.27.135-.109.307.059.062.117.11.176.157.074.062.146.14.213.21l.566.608c.176.188.223.289.318.39.16.171.324.033.328-.103.014-.159-.098-.185.205-.468.805-.75.912-.806 1.379-1.243l1.818-1.695c1.053-.981 1.227-1.172 1.328-1.267.217-.204.215-.143.32-.125.158.028.26-.126.086-.314-.195-.21-.359-.307-.525-.486l-.438-.467z" fill="#fff"/><path d="M35.901 99.721l-.104-.068c-.3-.213-.594-.434-.886-.662-.607-.49-1.196-1-1.789-1.51l.022-.105.008-.219-.021-.225-.047-.227-.07-.232-.058-.146.097.059.209.102.206.074.202.047.199.016.191-.016.185-.053.035-.02c.401.844.801 1.686 1.235 2.512.126.227.254.45.386.673zm-19.174-9.42l-.011-.216c.129-.003.281-.012.452-.021 1.301-.071 3.69-.201 5.075 1.275l-.027-.295.921.517.368.249.211.172a7.887 7.887 0 0 0-1.368-1.266c-1.174-.872-2.699-1.619-4.266-2.038l.039-.211c.986.101 2.476.282 3.794.956.778.398 1.496.966 2.015 1.787l-.015-.266.917.552.385.303.019.019c-.928-1.194-2.496-2.208-3.843-3.082-.351-.228-.688-.445-.995-.655-2.27.12-4.589.202-4.604.203l-.023-.214a36.635 36.635 0 0 1 4.074-.525l.053-.085.146.072c.601-.04 1.191-.062 1.764-.067l-.097-.051-.247-.195-.013-.015c-.566.056-1.193.08-1.865.082-1.336.005-2.845-.08-4.396-.185l.001-.216c1.285-.084 2.569-.17 3.863-.212.493-.016.986-.025 1.479-.025-.352-.122-.705-.242-1.057-.363l1.464.178-.153-.256.085-.008c-1.321-.3-2.875-.688-4.428-1.075h-.001c-.334-.083-.648-.162-.85-.211l.028-.213c1.594.033 2.985.224 4.226.53a16.13 16.13 0 0 1 2.543.856l-.079-.672.229.06c-.944-.504-1.988-.91-2.874-1.256-.743-.29-1.379-.537-1.765-.767l.087-.196c.282.088.635.18 1.038.284 1.442.373 3.497.905 4.847 1.932l.007-.06.768.529.297.271.231.271v-.07l.125-.773c-1.028-.837-2.284-1.294-3.268-1.651-.631-.229-1.156-.419-1.456-.649l.098-.188c.256.081.582.159.952.249 1.601.386 4.025.973 5.147 2.641l.394.306c-.927-1.508-2.285-2.436-3.315-3.138-.465-.317-.864-.59-1.135-.854l.115-.177c.138.055.305.119.484.187 1.571.597 4.134 1.575 4.856 4.121l.173-.346.505.676.17.261.139.247c-.763-2.495-2.395-3.764-3.55-4.662a10.327 10.327 0 0 1-.854-.708l.138-.166c.231.164.487.334.763.518 1.639 1.09 3.98 2.648 4.239 4.729l.087-.173.503.688.167.272.139.272.097.233c-.262-1.718-1.422-3.252-2.435-4.59a32.293 32.293 0 0 1-.778-1.058l.163-.139c.189.183.395.374.604.568 1.44 1.338 3.106 2.888 3.03 4.832l.419-.535.338.857.039.117a8.286 8.286 0 0 0-.428-1.419c-.406-1.019-.983-1.938-1.603-2.829l.163-.139c.905.871 1.777 1.75 2.269 2.777.324.677.481 1.415.373 2.249l.379-.452.226 1 .12.707.063.655.008.5.143-.231.197-.242.65-.589.166.949.05.365.036.352.03.659c-.004.201-.002.411-.028.613l.14-.17.507-.46a23.646 23.646 0 0 0-.126-1.96c-.104-.881-.522-1.708-.384-2.585.083-.522.68-.468 1.486-.859 1.92-.933 1.861-1.42 5.442-2.755.373-1.354.226-2.761-.276-4.203.436-.417.728-.574 1.21-.488.335.06.515.673.856.688.308.015.394-.496.688-.587.417-.129.921-.199 1.309 0 .621.318.864 1.058 1.483 1.381.449.235 1.09-.012 1.548.204.383.18.551.479.827.8-.6.799-2.198 1.274-2.205 1.584-.007.305 2.097-.338 4.208 2.124 2.205 2.57 1.831 5.683 3.231 5.937.721.13 1.905-.432 3.776.141 3.408 1.043 5.941 2.988 8.811 4.91.493.33 2.151-.18 2.501.391.265.434-.644 1.729-1.584 3.373-1.001 1.748-2.083 3.869-3.303 5.023-2.073 1.957-5.188 2.014-7.652 3.453-.646.379-.736 1.967-1.033 1.998s-.805-1.416-1.516-1.584c-1.764-.42-3.736.549-5.442-.068-3.826-1.385-7.732-2.85-10.368-5.949-.169-.201-.33-.41-.483-.623l-.171.104-.347.23-.325.236-.3.24-.273.244-.245.252-.213.256-.181.264-.147.27-.113.275-.077.285-.042.295-.003.311.039.328.558-.188.412-.102.385-.066.359-.029.335.008.312.043.288.074.264.109.24.139.213.164.188.188.163.207.141.221.121.234.377.9-.941-.326-.519-.148-.262-.053-.261-.035-.261-.014-.258.012-.257.037-.295.08-.299.113c-.299.133-.598.271-.897.408l-.296.117-.301.084-.306.025-.339-.072-.303-.143-.25-.211-.193-.264-.14-.303-.093-.33-.052-.354-.014-.373.019-.316-1.26-.113-.289-.037-.28-.055-.27-.082-.253-.113-.231-.16-.189-.219-.12-.262-.098-.402-.05-.371-.007-.352.034-.334.073-.314.107-.295.139-.273.166-.254.188-.234.207-.213.223-.197.235-.184.245-.166.505-.295.028-.014-.795-.154-.774-.197c-.35-.104-.696-.213-1.042-.332l-.054-.018-.012.039-.112.176-.145.148-.172.127-.194.109-.216.096-.236.084-.256.068-.272.055-.288.039-.299.021-.311.004-.318-.018-.812-.098.415-.682a4.622 4.622 0 0 1-.829.186l-.271.029-.268.012-.259-.004-.739-.072.409-.689-.214.107-.215.088-.464.146c-.24.059-.477.111-.718.154l-1.118.141.083-.131c-.17.125-.343.234-.525.346l-.435.234-.439.195-.922.334.2-.449-.369.271-.414.24-1.134.475.197-.475-.253.176-.302.189-1.136.674.115-.295c-.462.35-1.052.84-1.782 1.527-1.104 1.039-2.525 2.531-4.3 4.662l-.173-.129c1.022-1.553 2.411-3.477 3.764-4.951-1.225.955-2.77 2.363-4.632 4.438l-.173-.127c.887-1.465 2.24-3.119 3.63-4.43l-.319.059.159-.148c-1.283.627-2.896 1.49-4.904 2.73l-.127-.172c1.73-1.494 4.146-3.375 6.114-4.385l-.138-.125c-1.287.303-2.954.855-5.105 1.928l-.104-.189c1.365-.842 3.879-2.191 5.936-2.811.101-.029.201-.059.3-.086l-.167-.246c.517-.027 1.034-.059 1.549-.086l.256.002-.04-.037-.368-.623c-.997.107-2.547.508-5.103 1.781l-.104-.189c1.14-.703 2.659-1.58 4.043-2.09.994-.367 1.924-.543 2.609-.34l.292-.051.312-.018-.078-.018c-.992-.23-2.751-.637-6.37.596l-.091-.195c1.232-.758 2.983-1.334 4.527-1.465.921-.08 1.773 0 2.407.289l-.048-.105.742.035.225.023c.402.066.795.16 1.151.359l-.053-.072-.183-.449c-.248.182-.413.109-.761-.041-.645-.281-2.011-.875-6.253-.418l-.045-.209c1.578-.52 3.147-.807 4.454-.734 1.091.061 2.004.373 2.595 1.01L21 96.797c.461.199.922.395 1.374.609.214.109.434.219.632.354l-.103-.166-.137-.268-.021-.053c-.329.113-.718-.076-1.303-.357-.869-.418-2.202-1.06-4.444-1.203l-.003-.215c1.396-.129 2.586-.15 3.582.053.732.149 1.359.42 1.883.857l-.1-.332c.46.203.917.4 1.369.621.123.064.248.131.37.199a11.72 11.72 0 0 1-.582-.441c-.399-.313-.875-.689-1.46-1.026l-.037.001.015-.014a7.255 7.255 0 0 0-.498-.259l-1.238.122.365-.375-.364.103-.369.066-1.26.127.309-.323-.23.081-.311.071-.349.053-1.069.092c-1.24.93-3.252 2.196-5.611 2.815l-.063-.205c1.636-.604 3.074-1.688 4.232-2.562l.492-.367c-1.376.654-3.542 1.609-5.894 2.225l-.064-.205c1.266-.467 2.354-1.106 3.322-1.677.322-.189.631-.371.929-.536l-3.728.3 1.844-.329c-.738.063-1.52.119-2.325.166l-.034-.212c1.758-.479 3.243-.891 4.527-1.109.698-.118 1.336-.179 1.926-.164l-.583-.527a286 286 0 0 1-4.319-.02l-.018-.214c1.764-.322 3.244-.477 4.515-.51a16.93 16.93 0 0 1 2.983.17l-.209-.319.659.084c-1.012-.439-2.491-.675-4.549-.729l-.01-.215c.128-.017.281-.04.452-.065 1.252-.19 3.511-.533 4.914.636l.859.114.409.11.358.149a4.215 4.215 0 0 0-.707-.478c-1.011-.551-2.505-.94-4.601-1.199zm1.151-.051c1.539.254 2.697.603 3.541 1.064.343.188.635.395.879.622l-.021-.223c-1.086-1.388-3.029-1.504-4.399-1.463zm13.127-5.368c.399.633.759 1.289 1.041 1.994a8.27 8.27 0 0 1 .596 2.723l.048-.101.069-.109a3.73 3.73 0 0 0-.28-2.532c-.34-.71-.873-1.354-1.474-1.975zm-2.462-1.395l.086.115c1.086 1.435 2.338 3.092 2.513 4.982l.013-.046.042-.105c.394-1.981-1.19-3.578-2.654-4.946zm-1.751-.148c1.09.966 2.253 2.341 2.756 4.598.013-.075.027-.15.043-.226l.07-.211.04-.079c.001-1.672-1.462-3.03-2.909-4.082zm-3.4-.72c.176.128.374.263.584.407 1.176.803 2.771 1.893 3.703 3.789l.126.142.123.208.035-.185.063-.196c-.588-2.549-3.048-3.559-4.634-4.165zm-1.678 1.018c.125.047.257.094.395.145 1.37.497 3.249 1.18 4.371 2.788l.06-.478c-1.074-1.51-3.292-2.084-4.826-2.455zm-2.491.172l.522.204c1.28.499 2.881 1.123 4.067 1.99l.033-.285c-1.234-.993-3.18-1.534-4.622-1.909zm-2.531 1.151c1.75.437 3.487.869 4.878 1.17l.301.033.29.082.04.018.12.024a15.865 15.865 0 0 0-2.522-.851 18.329 18.329 0 0 0-3.107-.476zm.235 2.03c.936.05 1.833.082 2.661.079a20.563 20.563 0 0 0 1.69-.066l-.042-.049-.051-.085-.005-.002a42.735 42.735 0 0 0-2.118.02c-.709.023-1.422.06-2.135.103zm7.885 1.92l.052.038.036-.006-.021-.007-.067-.025zm.054.039l.279.204c1.025.747 2.095 1.529 2.65 2.468l.012-.051.598.538.194.206.181.222.165.233.151.242.135.247c.093.198.181.391.248.597l.039-.329.198-.781.596.547.19.214.171.231.153.243.134.253.116.257.096.26c.082.278.157.553.169.846l.037-.224.137-.512-.329-.46.426-.033-.245-.151-.237-.178-.237-.208-.235-.243-.231-.275-.558-.768.58-.048-.188-.064-.261-.105-.263-.128-.263-.149-.262-.171-.257-.191-.728-.622.197-.046-.16-.049-.486-.191-.499-.254-.909-.546.386-.099-.265-.094-.396-.18-1.229-.658zm2.505 3.54c-.49-1.006-1.426-1.875-2.312-2.698-.462-.429-.911-.846-1.281-1.266l-.396-.147.07-.019-.109-.026a27.418 27.418 0 0 1-1.056-.363c-.369.025-.761.049-1.163.072 1.643.774 3.734 1.811 4.731 3.112l.039-.164.597.513.192.181.359.383.313.4.016.022zm-2.956-3.606c.249.247.518.497.792.75.922.856 1.897 1.763 2.394 2.831l.014-.116.101-.403c-.485-1.003-1.617-1.83-2.697-2.618a36.604 36.604 0 0 1-.604-.444zm-3.966-1.159l.334.157 1.133-.047-.408-.148a29.63 29.63 0 0 0-1.059.038zm-.303.181l-.208-.149c-.79.054-1.595.138-2.401.249.768-.03 1.701-.064 2.609-.1zm.843.31l.522.34c1.506.976 3.282 2.126 4.175 3.525v-.028l.025-.287.079-.331c-.914-1.34-3.111-2.423-4.801-3.219zm3.47 5.122a1.153 1.153 0 0 0-.021-.079.6.6 0 0 0-.015-.026l-.01.101.046.004zm-5.179-4.504a13.019 13.019 0 0 1 3.198 1.71c.607.452 1.125.939 1.51 1.433l-.024-.17-.006-.113c-.503-.987-1.283-1.641-2.139-2.078-.834-.426-1.739-.65-2.539-.782zm2.156 4.427c.001.007.004.013.006.02l.017-.001-.023-.019zm-5.229-2.171c1.539.104 2.696.34 3.541.72.207.093.395.195.565.305l.07.02.213.096-.258-.38c-1.116-.996-2.868-.922-4.131-.761zm1.818 1.66l-.069.003.086.023-.017-.026zm-5.112-.184a152.41 152.41 0 0 0 4.972-.023l-.175-.258a18.226 18.226 0 0 0-1.534-.022 26.92 26.92 0 0 0-3.263.303zm6.371-.08l.043-.005-.013-.02c-.062-.011-.126-.02-.189-.03l.159.055zm-8.075 2.033a75.998 75.998 0 0 0 3.956-.377l-.108-.059 1.009-.311.288-.068c.199-.031.407-.071.606-.057l-.124-.091-.009-.009c-.645-.045-1.354.014-2.143.147-1.012.172-2.16.468-3.475.825zm.553 1.867c1.733-.577 3.267-1.268 4.311-1.767l-.127-.047-.054-.03-.99.08c-.427.218-.878.482-1.357.764-.552.326-1.143.676-1.783 1zm1.329.81c1.784-.738 3.25-1.751 4.149-2.46l-.18.038-.277.002-.201-.025c-.268.19-.56.41-.873.645-.759.574-1.638 1.238-2.618 1.8zm11.54-.636a6.22 6.22 0 0 0-1.569-1.178l-.626.033c.471.296.868.608 1.208.876.422.334.753.594 1.016.656l-.018-.1-.011-.287zm-2.238-1.477a5.632 5.632 0 0 0-.168-.06l-.254.065-.076.014c.103.054.203.11.3.166l.198-.185zm2.311 2.098a.917.917 0 0 1-.271-.082c.106.066.209.137.309.211l-.038-.129zm-2.147-2.267l.011.004.016-.014-.027.01zm.909.447c.406.243.796.538 1.151.88l-.01-.232.717.332.243.127.241.141.236.154c.233.17.475.346.674.553l-.022-.174.01-.328.022-.109-.421-.22.622-.466.242-.139.254-.112.26-.086.263-.062.262-.042.098-.009-.282-.148-.103-.047-.091.149-.168.13-.181.084-.196.055-.208.037-.456.035-.49-.007a14.189 14.189 0 0 1-.739-.069l-1.163-.207.446-.34c-.376.078-.771.098-1.156.121-.019-.003-.037-.001-.055-.001zm-.889 1.46c-.543-.559-1.227-.886-2.05-1.054-.676-.138-1.449-.169-2.321-.133 1.58.253 2.606.748 3.324 1.093.52.25.866.418 1.126.346l-.012-.029-.067-.223zm-1.679.746c-.547-.631-1.432-.94-2.502-1-.991-.057-2.139.102-3.327.412 3.451-.256 4.667.271 5.269.535.265.116.392.171.56.053zm-1.57.717c-.604-.375-1.523-.482-2.537-.396-1.113.096-2.335.426-3.382.889 2.918-.809 4.442-.457 5.345-.25.314.072.548.127.732.105l-.158-.348zm.284.545c-.011.004-.021.008-.033.01l.045.01-.012-.02zm-1.982.125c-.566-.021-1.254.143-1.982.412-.691.254-1.417.602-2.113.975 2.55-1.035 3.728-.957 4.414-.902l-.319-.485zm.467 1.985a1.158 1.158 0 0 0-.083-.072l-.084-.027v.182a1 1 0 0 0 .167-.083zm-2.463-.098c-.12.031-.242.066-.366.104-1.207.363-2.572.98-3.768 1.598a20.566 20.566 0 0 1 2.915-.938l.652-.305.297-.115.279-.07.167-.01-.176-.264zm2.352.389a1.22 1.22 0 0 1-.133.043l-.085.109c.071-.051.146-.102.218-.152zm-3.221.841c-1.566.805-3.472 2.217-5.066 3.523a51.527 51.527 0 0 1 4.357-2.322l.358-.338.376-.361.174-.145.19-.113-.261-.127-.128-.117zm1.442.483l-.108.047-.047.018.039.043v.002l.095-.072.021-.038zm1.432-1.082l.002.002c.002-.002.003-.004.005-.004l-.007.002zm-1.904 1.883c-1.093 1.072-2.279 2.582-3.307 4.023 1.185-1.348 2.182-2.371 3.005-3.146.274-.26.53-.492.768-.699l-.816.486.384-.686-.034.022zm-1.687.433a23.401 23.401 0 0 0-3.058 3.486c1.591-1.684 2.927-2.854 4.003-3.668l-.175.041-.77.141zm2.659-2.074c.03-.012.061-.025.091-.035l.026-.029.148-.094-.212-.021-.169-.041.116.22zm19.995-3.168a44.31 44.31 0 0 1-.672-2.512l-.038.139-.078.199-.101.178-.097.113c.273.537.547 1.076.832 1.607l.154.276zM24.489 88.021l.08.029a2.745 2.745 0 0 1-.097.026l.017-.055zm3.664 1.56l.023.013-.027.001.004-.014zm1.923 1.177h.001l.058.044-.08-.005.021-.039zm1.856 1.695l.15.169.052.066-.005-.002-.41-.111.098-.037.115-.085zm1.329 2.024l.044.082-.115-.042.071-.04zm-4.877 2.703c.095.008.191.012.288.01l-.197.098-.073-.088-.018-.02zm.673.951l.002.002.002.006-.004-.008zm2.116.394l.046-.006.211-.055.2-.104.057-.061c.325.311.65.617.981.918.244.217.49.428.74.635-.623-.146-1.246-.307-1.867-.465l-.006-.025-.08-.246-.106-.254-.131-.262-.045-.075zm-7.274.229c-.068.014-.136.027-.204.043l.002-.014-.017-.213c.072.067.145.125.219.184zm-1.688.449l-.251.082.003-.117-.041-.174.289.209zm-1.555.588a6.022 6.022 0 0 0-.185.078l-.034.016.019-.219.2.125zm-1.242.592c-.117.061-.234.125-.351.189l.011-.303.34.114zm6.593-.717l.223.004a1.833 1.833 0 0 0-.248.174l.013-.029.012-.149zm2.512.402l.044.014-.05.02.006-.034zm-9.012-5.795c.019-.001.038-.001.056-.003l-.07.073.014-.07zm3.787.009l.037.003-.049.034.012-.037zm2.257.319l.104.022-.123.053.019-.042v-.033zm4.448 2.149l.141.115c.03.025.06.053.09.08l-.212-.01-.232.004.153-.111.06-.078zm4.735 7.754l.055-.111.219-.371.248-.346.265-.312.268-.281.271-.252.271-.229.197-.148a16.763 16.763 0 0 0-1.063.26l-.468.152a7.03 7.03 0 0 0-.601.26l-.323.193-.136.102-.119.104-.102.107-.084.109-.069.113-.052.117-.037.119-.022.131-.001.217c.427.021.856.042 1.283.066zM156.854 99.721l.104-.068c.301-.213.596-.434.887-.662.607-.49 1.197-1 1.789-1.51l-.021-.105-.008-.219.021-.225.047-.227.07-.232.059-.146-.098.059-.209.102-.207.074-.201.047-.197.016-.193-.016-.186-.053-.035-.02a69.53 69.53 0 0 1-1.234 2.512c-.127.227-.256.45-.388.673zm19.175-9.42l.01-.216c-.127-.003-.281-.012-.451-.021-1.301-.071-3.689-.201-5.074 1.275l.027-.295-.922.517-.369.249-.211.172a7.915 7.915 0 0 1 1.367-1.266c1.174-.872 2.699-1.619 4.268-2.038l-.041-.211c-.984.101-2.475.282-3.793.956-.777.398-1.496.966-2.016 1.787l.016-.266-.916.552-.387.303-.018.019c.928-1.194 2.494-2.208 3.842-3.082.352-.228.688-.445.994-.655 2.271.12 4.59.202 4.605.203l.021-.214a36.57 36.57 0 0 0-4.072-.525l-.055-.085-.145.072a30.666 30.666 0 0 0-1.764-.067l.096-.051.248-.195.014-.015c.564.056 1.193.08 1.863.082 1.336.005 2.846-.08 4.395-.185v-.216c-1.283-.084-2.568-.17-3.861-.212a45.656 45.656 0 0 0-1.48-.025l1.057-.363-1.463.178.152-.256-.084-.008c1.322-.3 2.875-.688 4.428-1.075.336-.083.648-.162.85-.211l-.027-.213c-1.594.033-2.984.224-4.225.53a16.06 16.06 0 0 0-2.543.856l.078-.672-.229.06c.943-.504 1.988-.91 2.875-1.256.742-.29 1.377-.537 1.764-.767l-.086-.196c-.283.088-.637.18-1.039.284-1.441.373-3.498.905-4.848 1.932l-.006-.06-.77.529-.297.271-.23.271v-.07l-.125-.773c1.027-.837 2.283-1.294 3.268-1.651.631-.229 1.156-.419 1.455-.649l-.098-.188c-.256.081-.582.159-.951.249-1.602.386-4.025.973-5.148 2.641l-.393.306c.926-1.508 2.285-2.436 3.316-3.138.463-.317.863-.59 1.135-.854l-.115-.177c-.139.055-.307.119-.486.187-1.57.597-4.133 1.575-4.855 4.121l-.174-.346-.504.676-.17.261-.139.247c.762-2.495 2.395-3.764 3.551-4.662.33-.257.625-.485.854-.708l-.139-.166c-.23.164-.486.334-.762.518-1.639 1.09-3.98 2.648-4.24 4.729l-.086-.173-.504.688-.168.272-.139.272-.098.233c.264-1.718 1.424-3.252 2.436-4.59.275-.365.541-.716.779-1.058l-.164-.139c-.189.183-.395.374-.604.568-1.439 1.338-3.105 2.888-3.031 4.832l-.418-.535-.338.857-.039.117c.102-.498.248-.969.428-1.419.406-1.019.982-1.938 1.602-2.829l-.162-.139c-.906.871-1.777 1.75-2.268 2.777a3.908 3.908 0 0 0-.373 2.249l-.379-.452-.227 1-.121.707-.062.655-.008.5-.143-.231-.197-.242-.65-.589-.164.949-.051.365-.037.352-.029.659c.004.201.002.411.027.613l-.139-.17-.508-.46c.023-.656.051-1.312.127-1.96.104-.881.521-1.708.385-2.585-.084-.522-.682-.468-1.488-.859-1.92-.933-1.861-1.42-5.441-2.755-.373-1.354-.227-2.761.275-4.203-.436-.417-.729-.574-1.211-.488-.334.06-.514.673-.855.688-.309.015-.395-.496-.689-.587-.416-.129-.92-.199-1.309 0-.621.318-.863 1.058-1.482 1.381-.449.235-1.09-.012-1.549.204-.383.18-.551.479-.826.8.6.799 2.197 1.274 2.203 1.584.008.305-2.096-.338-4.207 2.124-2.205 2.57-1.832 5.683-3.232 5.937-.721.13-1.904-.432-3.775.141-3.408 1.043-5.941 2.988-8.811 4.91-.494.33-2.15-.18-2.5.391-.266.434.643 1.729 1.582 3.373 1.002 1.748 2.084 3.869 3.305 5.023 2.072 1.957 5.188 2.014 7.65 3.453.646.379.736 1.967 1.033 1.998s.805-1.416 1.516-1.584c1.766-.42 3.736.549 5.443-.068 3.824-1.385 7.732-2.85 10.367-5.949.17-.201.33-.41.482-.623l.172.104.348.23.324.236.301.24.273.244.244.252.213.256.18.264.148.27.113.275.076.285.043.295.002.311-.039.328-.557-.188-.412-.102-.385-.066-.361-.029-.334.008-.312.043-.289.074-.264.109-.238.139-.215.164-.188.188-.164.207-.141.221-.119.234-.379.9.941-.326.518-.148.264-.053.262-.035.26-.014.26.012.256.037.295.08.299.113c.301.133.598.271.896.408l.297.117.301.084.307.025.346-.061.303-.143.25-.211.193-.264.139-.303.094-.33.051-.354.016-.373-.02-.316 1.26-.113.289-.037.281-.055.268-.082.256-.113.23-.16.189-.219.119-.262.098-.402.051-.371.006-.352-.033-.334-.074-.314-.105-.295-.141-.273-.164-.254-.189-.234-.207-.213-.223-.197-.236-.184-.244-.166-.506-.295-.027-.014.797-.154.773-.197c.35-.104.695-.213 1.041-.332l.055-.018.01.039.113.176.146.148.17.127.195.109.215.096.236.084.258.068.271.055.287.039.301.021.311.004.318-.018.811-.098-.414-.682c.266.094.553.143.828.186l.271.029.268.012.258-.004.74-.072-.41-.689.215.107.215.088.465.146c.24.059.477.111.717.154l1.119.141-.084-.131c.172.125.344.234.525.346l.436.234.439.195.922.334-.201-.449.369.271.414.24 1.135.475-.197-.475.254.176.303.189 1.135.674-.113-.295c.461.35 1.051.84 1.781 1.527 1.104 1.039 2.523 2.531 4.299 4.662l.174-.129c-1.021-1.553-2.41-3.477-3.764-4.951 1.225.955 2.77 2.363 4.633 4.438l.172-.127c-.887-1.465-2.238-3.119-3.629-4.43l.32.059-.16-.148c1.283.627 2.896 1.49 4.904 2.73l.127-.172c-1.73-1.494-4.146-3.375-6.113-4.385l.139-.125c1.285.303 2.953.855 5.104 1.928l.105-.189c-1.367-.842-3.881-2.191-5.936-2.811l-.301-.086.166-.246c-.518-.027-1.033-.059-1.549-.086l-.256.002.041-.037.367-.623c.998.107 2.547.508 5.104 1.781l.104-.189c-1.141-.703-2.658-1.58-4.043-2.09-.994-.367-1.924-.543-2.609-.34l-.291-.051-.312-.018.078-.018c.994-.23 2.752-.637 6.371.596l.09-.195c-1.23-.758-2.982-1.334-4.527-1.465-.92-.08-1.773 0-2.406.289l.049-.105-.742.035-.225.023c-.402.066-.795.16-1.152.359l.053-.072.184-.449c.248.182.414.109.762-.041.645-.281 2.012-.875 6.254-.418l.043-.209c-1.576-.52-3.146-.807-4.451-.734-1.092.061-2.004.373-2.596 1.01l.008-.559c-.461.199-.922.395-1.373.609-.215.109-.436.219-.633.354l.102-.166.139-.268.021-.053c.328.113.719-.076 1.303-.357.869-.418 2.201-1.06 4.443-1.203l.004-.215c-1.396-.129-2.586-.15-3.582.053-.732.149-1.359.42-1.883.857l.1-.332c-.459.203-.916.4-1.369.621-.123.064-.246.131-.369.199.176-.121.369-.273.582-.441.398-.313.875-.689 1.459-1.026a.457.457 0 0 0 .037.001l-.016-.014c.158-.09.324-.177.498-.259l1.238.122-.365-.375.365.103.367.066 1.256.123-.311-.323.23.081.311.071.35.053 1.068.092c1.24.93 3.252 2.196 5.609 2.815l.066-.205c-1.637-.604-3.074-1.688-4.234-2.562-.168-.128-.334-.25-.492-.367 1.377.654 3.543 1.609 5.895 2.225l.064-.205c-1.266-.467-2.354-1.106-3.322-1.677-.322-.189-.631-.371-.93-.536l3.729.3-1.844-.329c.738.063 1.52.119 2.324.166l.035-.212c-1.76-.479-3.244-.891-4.529-1.109-.697-.118-1.336-.179-1.924-.164l.582-.527c1.266.007 2.77-.004 4.318-.02l.018-.214c-1.764-.322-3.242-.477-4.514-.51a16.942 16.942 0 0 0-2.984.17l.211-.319-.66.084c1.012-.439 2.49-.675 4.549-.729l.01-.215c-.129-.017-.281-.04-.453-.065-1.25-.19-3.51-.533-4.912.636l-.859.114-.41.11-.357.149c.203-.172.438-.331.707-.478 1.006-.558 2.501-.947 4.596-1.206zm-1.15-.051c-1.539.254-2.697.603-3.541 1.064a4.34 4.34 0 0 0-.881.622l.021-.223c1.086-1.388 3.03-1.504 4.401-1.463zm-13.127-5.368c-.4.633-.76 1.289-1.041 1.994a8.27 8.27 0 0 0-.596 2.723l-.049-.101-.068-.109a3.723 3.723 0 0 1 .279-2.532c.34-.71.873-1.354 1.475-1.975zm2.461-1.395l-.086.115c-1.086 1.435-2.338 3.092-2.514 4.982l-.012-.046-.043-.105c-.392-1.981 1.19-3.578 2.655-4.946zm1.752-.148c-1.09.966-2.254 2.341-2.758 4.598a3.092 3.092 0 0 0-.043-.226l-.07-.211-.039-.079c0-1.672 1.463-3.03 2.91-4.082zm3.4-.72c-.178.128-.375.263-.586.407-1.176.803-2.771 1.893-3.703 3.789l-.125.142-.123.208-.035-.185-.062-.196c.587-2.549 3.048-3.559 4.634-4.165zm1.678 1.018l-.395.145c-1.369.497-3.25 1.18-4.371 2.788l-.061-.478c1.075-1.51 3.292-2.084 4.827-2.455zm2.49.172l-.521.204c-1.281.499-2.883 1.123-4.068 1.99l-.033-.285c1.235-.993 3.181-1.534 4.622-1.909zm2.531 1.151c-1.75.437-3.486.869-4.877 1.17l-.303.033-.289.082-.039.018-.121.024a15.877 15.877 0 0 1 2.523-.851 18.3 18.3 0 0 1 3.106-.476zm-.234 2.03c-.938.05-1.834.082-2.662.079a20.52 20.52 0 0 1-1.689-.066l.043-.049.051-.085.004-.002a42.672 42.672 0 0 1 2.117.02c.708.023 1.421.06 2.136.103zm-7.887 1.92l-.051.038-.035-.006.02-.007.066-.025zm-.052.039l-.279.204c-1.025.747-2.096 1.529-2.65 2.468l-.012-.051-.598.538-.193.206-.182.222-.166.233-.15.242-.135.247c-.092.198-.182.391-.248.597l-.039-.329-.199-.781-.596.547-.189.214-.17.231-.152.243-.135.253-.115.257-.098.26c-.082.278-.156.553-.168.846l-.037-.224-.137-.512.328-.46-.424-.033.244-.151.236-.178.238-.208.234-.243.23-.275.561-.768-.582-.048.189-.064.258-.107.264-.128.262-.149.262-.171.258-.191.729-.622-.197-.046.16-.049.486-.191.498-.254.91-.546-.387-.099.266-.094.396-.18 1.229-.656zm-2.506 3.54c.49-1.006 1.426-1.875 2.312-2.698.461-.429.91-.846 1.279-1.266l.396-.147-.068-.019.107-.026c.355-.112.705-.236 1.057-.363.369.025.762.049 1.162.072-1.643.774-3.734 1.811-4.73 3.112l-.039-.164-.598.513-.191.181-.359.383-.314.4-.014.022zm2.957-3.606c-.25.247-.52.497-.791.75-.922.856-1.898 1.763-2.395 2.831l-.016-.116-.1-.403c.486-1.003 1.619-1.83 2.697-2.618.206-.149.408-.296.605-.444zm3.965-1.159l-.332.157a523.28 523.28 0 0 1-1.135-.047l.41-.148c.346.006.699.019 1.057.038zm.302.181c.072-.05.141-.1.209-.149a35.2 35.2 0 0 1 2.4.249c-.767-.03-1.7-.064-2.609-.1zm-.841.31l-.523.34c-1.506.976-3.281 2.126-4.174 3.525v-.028l-.025-.287-.078-.331c.911-1.34 3.108-2.423 4.8-3.219zm-3.471 5.122l.02-.079.016-.026.01.101-.046.004zm5.18-4.504a13.026 13.026 0 0 0-3.199 1.71c-.605.452-1.123.939-1.508 1.433l.023-.17.006-.113c.504-.987 1.283-1.641 2.139-2.078.832-.426 1.74-.65 2.539-.782zm-2.157 4.427l-.006.02-.018-.001.024-.019zm5.229-2.171c-1.539.104-2.695.34-3.541.72a4.152 4.152 0 0 0-.564.305l-.072.02-.213.096.258-.38c1.116-.996 2.87-.922 4.132-.761zm-1.817 1.66l.068.003-.086.023.018-.026zm5.112-.184a152.48 152.48 0 0 1-4.467-.011 179.93 179.93 0 0 1-.506-.012l.176-.258c.477-.027.986-.037 1.533-.022.959.025 2.037.12 3.264.303zm-6.371-.08c-.018-.001-.031-.004-.043-.005l.012-.02c.062-.011.127-.02.191-.03l-.16.055zm8.074 2.033a75.844 75.844 0 0 1-3.955-.377l.107-.059-1.01-.311-.287-.068c-.199-.031-.406-.071-.607-.057l.123-.091.01-.009c.645-.045 1.355.014 2.143.147 1.013.172 2.161.468 3.476.825zm-.553 1.867c-1.732-.577-3.268-1.268-4.311-1.767l.127-.047.053-.03.99.08c.428.218.879.482 1.357.764.554.326 1.144.676 1.784 1zm-1.328.81c-1.785-.738-3.252-1.751-4.148-2.46l.18.038.275.002.201-.025c.268.19.561.41.873.645.76.574 1.639 1.238 2.619 1.8zm-11.541-.636a6.197 6.197 0 0 1 1.568-1.178l.627.033c-.471.296-.867.608-1.209.876-.422.334-.752.594-1.016.656l.018-.1.012-.287zm2.238-1.477c.057-.021.111-.041.168-.06l.256.065.076.014c-.104.054-.205.11-.301.166l-.199-.185zm-2.31 2.098a.925.925 0 0 0 .271-.082 4.953 4.953 0 0 0-.309.211l.038-.129zm2.146-2.267l-.012.004-.016-.014.028.01zm-.908.447a6.41 6.41 0 0 0-1.152.88l.012-.232-.719.332-.242.127-.242.141-.234.154c-.234.17-.475.346-.674.553l.021-.174-.01-.328-.021-.109.42-.22-.621-.466-.242-.139-.254-.112-.26-.086-.264-.062-.262-.042-.098-.009.281-.148.104-.047.092.149.168.13.182.084.195.055.207.037.455.035.49-.007c.248-.017.492-.039.74-.069l1.162-.207-.445-.34c.377.078.771.098 1.156.121.018-.003.035-.001.055-.001zm.889 1.46c.543-.559 1.227-.886 2.049-1.054.678-.138 1.449-.169 2.322-.133-1.58.253-2.607.748-3.324 1.093-.52.25-.867.418-1.127.346l.012-.029.068-.223zm1.677.746c.547-.631 1.432-.94 2.502-1 .992-.057 2.139.102 3.326.412-3.451-.256-4.666.271-5.268.535-.265.116-.392.171-.56.053zm1.571.717c.605-.375 1.525-.482 2.537-.396 1.113.096 2.336.426 3.383.889-2.92-.809-4.443-.457-5.346-.25-.314.072-.547.127-.732.105l.158-.348zm-.283.545c.012.004.021.008.033.01l-.047.01.014-.02zm1.982.125c.564-.021 1.254.143 1.98.412.693.254 1.42.602 2.113.975-2.551-1.035-3.727-.957-4.412-.902l.319-.485zm-.469 1.985c.027-.025.055-.049.084-.072l.084-.027v.182a1.143 1.143 0 0 1-.168-.083zm2.465-.098c.119.031.24.066.365.104 1.207.363 2.572.98 3.768 1.598a20.64 20.64 0 0 0-2.914-.938l-.652-.305-.297-.115-.279-.07-.168-.01.177-.264zm-2.352.389c.041.016.086.031.131.043l.086.109a16.8 16.8 0 0 0-.217-.152zm3.219.841c1.568.805 3.473 2.217 5.066 3.523a51.22 51.22 0 0 0-4.357-2.322l-.357-.338-.375-.361-.176-.145-.189-.113.262-.127.126-.117zm-1.441.483l.109.047.047.018-.039.043v.002l-.096-.072-.021-.038zm-1.432-1.082s-.002 0-.002.002c-.002-.002-.004-.004-.006-.004l.008.002zm1.904 1.883c1.092 1.072 2.279 2.582 3.307 4.023-1.184-1.348-2.182-2.371-3.006-3.146-.275-.26-.529-.492-.768-.699l.816.486-.385-.686c.013.008.025.014.036.022zm1.688.433a23.452 23.452 0 0 1 3.057 3.486c-1.592-1.684-2.928-2.854-4.002-3.668l.174.041.771.141zm-2.66-2.074c-.029-.012-.059-.025-.09-.035l-.025-.029-.148-.094.213-.021.168-.041-.118.22zm-19.994-3.168c.23-.754.428-1.516.613-2.262.02-.082.039-.167.057-.25l.039.139.078.199.102.178.096.113c-.273.537-.545 1.076-.83 1.607a9.577 9.577 0 0 0-.155.276zm12.213-10.524l-.08.029.096.026-.016-.055zm-3.664 1.56a.1.1 0 0 0-.023.013l.027.001-.004-.014zm-1.924 1.177l-.059.045.08-.005-.021-.04zm-1.856 1.695l-.15.169-.051.066.006-.002.41-.111-.1-.037-.115-.085zm-1.33 2.024l-.043.082.115-.042-.072-.04zm4.879 2.703a2.753 2.753 0 0 1-.287.01l.197.098.072-.088.018-.02zm-.674.951l-.002.002-.002.006.004-.008zm-2.115.394l-.047-.006-.211-.055-.201-.104-.057-.061c-.324.311-.65.617-.98.918-.244.217-.49.428-.738.635.623-.146 1.244-.307 1.865-.465l.006-.025.08-.246.105-.254.131-.262.047-.075zm7.273.229c.068.014.135.027.203.043l-.002-.014.018-.213a3.387 3.387 0 0 1-.219.184zm1.688.449l.252.082-.004-.117.041-.174-.289.209zm1.555.588c.062.025.123.051.184.078l.035.016-.02-.219-.199.125zm1.244.592c.117.061.232.125.35.189l-.012-.303-.338.114zm-6.594-.717l-.223.004c.086.053.172.109.248.174l-.014-.029-.011-.149zm-2.514.402l-.043.014.049.02-.006-.034zm9.014-5.795l-.057-.003.07.073-.013-.07zm-3.789.009l-.035.003.049.034-.014-.037zm-2.256.319l-.104.022.123.053-.02-.042v-.033h.001zm-4.447 2.149l-.141.115a3.233 3.233 0 0 0-.09.08l.213-.01.23.004-.152-.111-.06-.078zm-4.737 7.754l-.053-.111-.221-.371-.248-.346-.264-.312-.268-.281-.271-.252-.271-.229-.197-.148c.094.018.186.037.279.059.262.061.523.127.785.201l.467.152c.205.078.402.162.602.26l.322.193.137.102.119.104.102.107.084.109.068.113.053.117.037.119.021.131v.217c-.427.021-.855.042-1.283.066z"/><path d="M40.05 98.676c.44-.404-2.093-1.871-3.083-5.606-.667-2.514-.865-4.1-.673-4.524.097-.335 1.08-.551 1.537-.802.478-.262.564-.565 1.098-.671.688-.138 1.401.167 2.103.14.521-.02 1.281-.733 1.542-.28.837 1.454.568 4.815 1.121 4.736.868-.124.631-1.238.981-1.821-.328-.888-.318-1.775-.646-2.664.561-.234.746-.373 1.347-.461.694-.102 1.884.721 2.102.236.285-.633-2.035-.18-1.545-1.589.265-.763 3.333-.488 4.44.464 1.537 1.321 2.351 3.452 2.711 5.274-.607.332-1.215.473-1.822.421-.327-.374-.585-1.16-.9-.927-.308.229.013.927.06 1.487-.104.22-.613.536-.798.463-.421-.28-.792-.532-.973-.504-.729.116.399 1.166-.893 1.863-.442.239-.703-.789-1.159-.577-.599.278.519 1.272-.34 1.46.225.866-1.614 1.888-1.585 2.341.013.268.477.771 1 .844.606-.088.262-.883.599-1.199 3.438-3.231 6.929-5.271 7.353-4.63.038.387-.285.491-1.25.501-.992 2.022-6.041 6.115-5.378 6.755.492.475 1.391-1.168 1.739-1.094.514.111-.186 1.469.646 1.441.705-.023-.004-1.744.447-2.434 1.547-2.369 3.704-3.537 5.612-3.726l.199-.695c1.153-.22 2.44-.254 3.527.199 2.888 1.204 5.43 3.113 8.146 4.669.412.168.857.336 1.538.234.296.209-.622.939-.942 1.902-.392.387-.845.525-1.341.496-.199 1.926-1.676 5.207-2.827 5.555-1.874.568-4.815 1.92-6.855 2.701-.295.113-.568.525-.882.486-.4-.053-.801-.412-.907-.801-.204-.756.394-2.248.053-2.348-.501-.146-3.385 1.086-5.814 1.066-2.621-.02-8.481-3.453-8.268-4.213l-.907-.107v-.801h-.693c-.106-1.531-2.585-4.338-2.241-4.693s2.382 1.837 2.821 1.433zm4.363-15.568c.72-.056-.083 2.243.295 2.147.404-.102.452-1.356.674-1.053.554.76-.481 2.094-1.39 1.853-.443-.117.031-.977.121-1.577.115-.772-.083-1.341.3-1.37zm-.885-1.811c.66-.046 1.294-.567 1.979-.467.614.089.925.685 1.474.972.356.186 1.187-.056 1.179.253-.008.31-1.208-.058-1.81-.042-.493.012-.985.188-1.475.126-.704-.089-.815-.602-1.347-.842zM152.705 98.676c-.439-.404 2.094-1.871 3.084-5.606.666-2.514.865-4.1.672-4.524-.096-.335-1.078-.551-1.537-.802-.477-.262-.562-.565-1.098-.671-.688-.138-1.4.167-2.102.14-.521-.02-1.281-.733-1.541-.28-.838 1.454-.568 4.815-1.121 4.736-.869-.124-.631-1.238-.982-1.821.328-.888.318-1.775.646-2.664-.561-.234-.746-.373-1.348-.461-.693-.102-1.885.721-2.102.236-.285-.633 2.035-.18 1.545-1.589-.264-.763-3.334-.488-4.439.464-1.537 1.321-2.352 3.452-2.713 5.274.609.332 1.215.473 1.822.421.328-.374.586-1.16.9-.927.309.229-.012.927-.059 1.487.104.22.613.536.799.463.42-.28.789-.532.971-.504.73.116-.398 1.166.893 1.863.443.239.703-.789 1.16-.577.598.278-.52 1.272.34 1.46-.227.866 1.613 1.888 1.584 2.341-.012.268-.477.771-1 .844-.605-.088-.262-.883-.6-1.199-3.438-3.231-6.93-5.271-7.352-4.63-.039.387.283.491 1.248.501.994 2.022 6.041 6.115 5.379 6.755-.492.475-1.391-1.168-1.74-1.094-.512.111.188 1.469-.645 1.441-.705-.023.004-1.744-.447-2.434-1.547-2.369-3.705-3.537-5.613-3.726-.064-.232-.131-.463-.197-.695-1.154-.22-2.441-.254-3.527.199-2.889 1.204-5.43 3.113-8.146 4.669-.412.168-.855.336-1.537.234-.297.209.621.939.941 1.902.393.387.846.525 1.342.496.197 1.926 1.676 5.207 2.826 5.555 1.873.568 4.814 1.92 6.855 2.701.295.113.568.525.883.486.398-.053.801-.412.906-.801.203-.756-.395-2.248-.055-2.348.502-.146 3.387 1.086 5.816 1.066 2.619-.02 8.48-3.453 8.266-4.213l.908-.107v-.801h.693c.105-1.531 2.584-4.338 2.24-4.693-.343-.352-2.377 1.837-2.818 1.433zm-4.361-15.568c-.721-.056.084 2.243-.295 2.147-.404-.102-.451-1.356-.674-1.053-.555.76.48 2.094 1.389 1.853.443-.117-.031-.977-.121-1.577-.116-.772.084-1.341-.299-1.37zm.885-1.811c-.66-.046-1.295-.567-1.98-.467-.613.089-.924.685-1.473.972-.357.186-1.188-.056-1.18.253.008.31 1.209-.058 1.811-.042.492.012.984.188 1.475.126.704-.089.815-.602 1.347-.842z" fill="#db812e"/><path d="M37.576 100.93c-1.501-.451-3-1.768-4.575-3.129l-.132.162-.194.131-.25.076-.197-.02-.167-.088-.127-.113-.049-.061.001.064-.025.066c1.625 1.557 3.339 3.166 6.183 3.865a12.953 12.953 0 0 1-.468-.953zM17.878 90.25c1.539.254 2.697.603 3.541 1.064.344.188.635.395.879.621l-.021-.222c-1.086-1.388-3.029-1.504-4.399-1.463zm13.127-5.368c.399.633.759 1.289 1.041 1.994a8.25 8.25 0 0 1 .595 2.724l.049-.102.067-.107a3.723 3.723 0 0 0-.279-2.534c-.339-.71-.872-1.354-1.473-1.975zm-2.462-1.395l.086.115c1.086 1.435 2.338 3.092 2.512 4.983l.013-.047.041-.101c.398-1.983-1.186-3.581-2.652-4.95zm-1.751-.148c1.09.966 2.252 2.338 2.755 4.594.014-.075.029-.147.045-.222l.07-.211.04-.078c.001-1.672-1.463-3.03-2.91-4.083zm-3.4-.72c.176.128.374.263.584.407 1.175.802 2.769 1.891 3.701 3.787l.128.145.123.208.035-.185.063-.195c-.587-2.552-3.048-3.561-4.634-4.167zm-1.678 1.018c.125.047.257.094.395.145 1.37.497 3.249 1.179 4.37 2.789l.061-.478c-1.074-1.511-3.292-2.084-4.826-2.456zm-2.491.172l.522.204c1.28.499 2.881 1.123 4.067 1.991l.033-.286c-1.234-.993-3.179-1.534-4.622-1.909zm-2.531 1.151c1.753.437 3.493.869 4.885 1.171l.294.032.29.082.038.018.121.024a15.865 15.865 0 0 0-2.522-.851 18.3 18.3 0 0 0-3.106-.476zm.235 2.03c.936.05 1.833.082 2.661.079a21.035 21.035 0 0 0 1.69-.066l-.042-.048-.051-.085-.005-.002a42.735 42.735 0 0 0-2.118.02c-.709.022-1.422.059-2.135.102zm7.488 1.893c.249.247.518.497.792.75.922.857 1.897 1.762 2.394 2.832l.014-.117.101-.403c-.484-1.003-1.617-1.83-2.697-2.618a36.604 36.604 0 0 1-.604-.444zm-3.426-.668l.522.34c1.507.977 3.282 2.126 4.175 3.526l-.001-.03.025-.287.079-.331c-.912-1.34-3.109-2.421-4.8-3.218zm-1.709.618a13.019 13.019 0 0 1 3.198 1.71c.608.453 1.125.939 1.51 1.434l-.024-.17-.006-.112c-.503-.988-1.283-1.642-2.139-2.079-.834-.427-1.739-.651-2.539-.783zm-3.073 2.256c1.539.104 2.696.34 3.541.72.208.093.395.195.566.306l.07.019.213.096-.258-.381c-1.118-.996-2.869-.921-4.132-.76zm1.33-3.085l2.608-.099a20.671 20.671 0 0 1-.208-.149c-.79.054-1.594.137-2.4.248zm3.244-.125l1.135-.045-.408-.148c-.348.007-.702.02-1.06.039l.333.154zm-7.868 4.686a152.41 152.41 0 0 0 4.972-.023l-.175-.258a18.226 18.226 0 0 0-1.534-.022 26.92 26.92 0 0 0-3.263.303zm6.37-.081l.043-.005-.013-.02-.189-.03.159.055zm-4.118 1.657a77.062 77.062 0 0 1-3.955.377c1.315-.357 2.463-.653 3.476-.825.789-.134 1.498-.192 2.143-.147l.009.009.124.091c-.2-.014-.408.026-.606.057l-.288.068-1.009.311.106.059zm-3.403 2.244c1.733-.577 3.267-1.268 4.31-1.768l-.126-.046-.054-.03-.99.08c-.428.218-.878.482-1.357.764-.552.326-1.143.676-1.783 1zm1.329.81c1.784-.738 3.25-1.751 4.147-2.46l-.178.038-.277.002-.201-.025c-.269.19-.56.41-.872.645-.76.574-1.639 1.238-2.619 1.8zm11.54-.636a6.22 6.22 0 0 0-1.569-1.178l-.626.033c.471.296.868.608 1.208.876.422.334.753.594 1.016.656l-.018-.1-.011-.287zm-2.238-1.477a5.632 5.632 0 0 0-.168-.06l-.254.065-.076.014c.103.054.203.11.3.166l.198-.185zm.184 1.738c-.543-.559-1.227-.886-2.05-1.054-.676-.138-1.449-.169-2.321-.133 1.58.253 2.606.748 3.324 1.093.52.25.866.416 1.126.344l-.012-.027-.067-.223zm-1.679.746c-.547-.631-1.432-.94-2.502-1-.991-.057-2.139.102-3.327.412 3.451-.256 4.667.271 5.269.535.265.116.392.171.56.053zm-1.57.717c-.604-.375-1.523-.482-2.537-.396-1.113.096-2.335.426-3.382.889 2.918-.809 4.442-.457 5.345-.25.313.072.547.127.732.104l-.158-.347zm-1.698.67c-.566-.021-1.254.143-1.982.412-.691.254-1.417.602-2.113.975 2.55-1.035 3.728-.959 4.413-.902l-.318-.485zm.3 2.068a1.04 1.04 0 0 0 .167-.084.861.861 0 0 0-.086-.074l-.081-.025v.183zm-2.296-.181c-.12.033-.242.066-.366.104-1.207.363-2.572.98-3.768 1.598a20.725 20.725 0 0 1 2.916-.939l.651-.303.297-.115.279-.07.167-.01-.176-.265zm1.073.873l.089-.035.027-.029.148-.094-.212-.021-.169-.041.117.22zm-1.941.357c-1.566.805-3.472 2.217-5.066 3.523a52.12 52.12 0 0 1 4.357-2.322l.358-.338.376-.361.174-.145.19-.113-.261-.127-.128-.117zm.968 1.284c-1.092 1.072-2.279 2.582-3.306 4.023 1.185-1.348 2.182-2.371 3.005-3.146.274-.26.53-.492.768-.699l-.816.486.384-.686-.035.022zm-1.685.433a23.408 23.408 0 0 0-3.059 3.486c1.591-1.684 2.927-2.854 4.003-3.668l-.175.041-.769.141zm2.158-1.234l-.108.047a.376.376 0 0 0-.046.02l.038.041v.002l.095-.072.021-.038zm22.349.185c-1.805 1.111-2.999 2.422-2.444 4.297 2.52-1.053 3.549-.291 4.008.922-.687-.248-1.467-.463-2.246-.303-.883.186-1.718.85-2.313.82-.904-.045-1.213-1.105-1.029-2.303-.999-.215-2.676.025-2.942-.873-.58-1.955.744-2.967 2.059-3.619l.19-.088.443.051.513.045.542.029.571.014.594-.002.105.043.452.164.17.055c-2.521.432-4.447 1.111-4.059 2.756l1.759.094c.156-.346.351-.674.582-.965a6.353 6.353 0 0 1 2.177-1.75l.58.154c.093.155.188.309.288.459zm-3.943-11.746c-1.123.861-1.015 3.189-.499 3.356.614.199.877-1.39.499-3.356zm1.043 2.177c-1.123.86-1.015 3.188-.499 3.356.614.2.877-1.391.499-3.356zm-2.404-3.9c-.851.86-.833 3.189-.317 3.356.613.199.787-1.436.317-3.356zm-1.45-1.225c-.8.852-.493 3.058-.045 3.129.506.081.785-1.39.045-3.129zm-1.765-.568c-.448.719-.115 2.657.332 2.729.506.08.717-1.41-.332-2.729zm-1.633-.726c-.448.719.021 2.431.468 2.502.507.081.581-1.182-.468-2.502zm-1.587-.272c-.176.719.292 1.933.74 2.003.506.081.536-1.182-.74-2.003zm-1.27-.317c-.176.719.112 1.615.559 1.686.506.079.309-1.183-.559-1.686zm-1.406-.182c-.176.719.417 1.4.864 1.47.507.08.004-.967-.864-1.47zm-1.451-.136c-.018.776.864 1.277 1 1.232.484-.161-.223-1.137-1-1.232zm-1.361.635c.414.855 1.183.937 1.272.756.208-.418-.676-.887-1.272-.756zm10.454 8.203c1.402-.186 2.836.857 2.589 1.34-.293.574-1.467.317-2.589-1.34zm-1.316-1.859c1.403-.186 3.018.721 2.771 1.204-.293.573-1.649.452-2.771-1.204zm-1.542-1.588c1.312-.367 2.927.178 2.907.751-.022.643-1.694.362-2.907-.751zM27.202 90.1c1.312-.367 2.655-.23 2.634.343-.022.643-1.376.452-2.634-.343zm-1.361-.997c1.267-.231 2.065-.366 2.045.207-.022.642-.968.406-2.045-.207zm-1.405-.681c.677-.186 1.657-.502 1.637.07-.022.644-.923.181-1.637-.07zm-1.814-.68c.677-.186 1.615-.276 1.592.071-.037.55-.879.18-1.592-.071zm14.557 12.217c-.627-.934-1.179-2.014-1.738-3.123l-.161.035-.236-.035-.195-.119-.14-.174-.095-.195-.023-.071-.036.056-.008.007c.688 1.45 1.354 2.888 2.006 3.788l.111.064.284.145.282.127.171.064a18.616 18.616 0 0 1-.222-.569zm-2.698-4.994a20.7 20.7 0 0 0-.158-.29l-.086.02-.236-.036-.195-.118-.139-.174-.095-.195-.02-.062-.014.052-.043.065c.098.181.195.366.292.554l.076.042.2.129.179.138.157.146.063.074.008-.224.011-.121zm-1.061-1.8a8.533 8.533 0 0 0-.164-.242l-.196.048-.239-.036-.178-.109.078.112.106.056.195.122.173.131.149.141.083.106-.004-.03c0-.1-.003-.199-.003-.299zm-1.162-1.515a10.227 10.227 0 0 0-.199-.217l-.112.049.095.116.089.186.03.212-.037.178a9.795 9.795 0 0 1 .335.404l-.063-.134-.064-.215-.044-.234-.027-.253-.003-.092zm-1.203-1.178a9.679 9.679 0 0 0-.192-.162l-.138.129-.192.085-.22.006c.164.121.324.245.482.373.142.035.286.07.42.125l-.06-.146-.062-.214a8.394 8.394 0 0 1-.038-.196zm-1.462-1.092c-.056-.037-.114-.073-.17-.108l-.068.107-.146.125-.187.072h-.194c.004.002.007.003.01.006.293.017.593.056.853.188l-.055-.189a4.801 4.801 0 0 1-.043-.201zm-2.895-1.436a3.064 3.064 0 0 0-.102-.037l-.145.206-.132.024.012.01.053.255c.163.067.324.136.484.206a2.59 2.59 0 0 1 .248-.02l-.144-.147-.179-.282-.095-.215zm-2.557-.717a13.863 13.863 0 0 0-.089-.018l-.085.063.233.055.046.03-.105-.13zm-1.192-.09l.25.086-.077-.047-.157-.126-.016.087zm1.564.547c.206.074.411.149.615.226l.068-.016.349-.045-.139-.213-.05.093-.379.051-.277-.086-.226-.134.039.124zm3.691 1.556c.09.046.179.093.269.141l-.111-.133-.098-.157-.084-.173-.127-.353-.13.157.031.013.21.253.04.252zm3.552 5.97c-.397 1.224.284 2.688.635 2.63.844-.141.378-1.798-.635-2.63zm-1.86-1.859c-.397 1.223.474 3.089.817 2.993.662-.187.197-2.162-.817-2.993zm-1.904-1.18c-.397 1.223.565 3.045 1.043 2.902.66-.194-.03-2.07-1.043-2.902zm-1.905-.589c-.398 1.223.836 2.953 1.315 2.585.546-.419-.302-1.753-1.315-2.585zm-1.814-.045c.011 1.269.974 2.59 1.452 2.222.545-.42-.439-1.708-1.452-2.222zm-1.678.09c.011 1.269.882 2.182 1.36 1.814.545-.419-.347-1.3-1.36-1.814zm-1.768.363c.736 1.178 1.517 1.638 1.723 1.316.37-.58-.711-1.255-1.723-1.316zm-1.225.318c.736 1.177 1.078 1.297 1.315.998.279-.353-.302-.938-1.315-.998zm-1.269.317c.736 1.178 1.168 1.162 1.405.861.279-.352-.393-.8-1.405-.861zm-1.588.408c.827.815 1.396.844 1.633.543.278-.351-.62-.709-1.633-.543zm-.862 1.134c.464.316 1.487.428 1.497.046.009-.352-.789-.292-1.497-.046zm3.628.625c.845-.933 1.332-1.08 1.569-.78.279.353-.556.72-1.569.78zm-1.823 0c.682-.716 1.196-.971 1.433-.672.279.354-.42.612-1.433.672zm3.456.082c.845-.933 1.543-1.182 1.788-.888.36.433-.775.828-1.788.888zm1.742.19c.845-.933 2.135-1.068 2.304-.725.332.679-1.292.665-2.304.725zm2.122.327c1.117-.933 2.435-.742 2.603-.398.333.677-1.545.61-2.603.398zm1.905 1.043c.981-.842 2.851-.592 2.921-.217.15.814-1.863.836-2.921.217zm1.723 1.134c1.071-.615 2.851-.186 2.92.189.152.815-1.862.431-2.92-.189zm-5.302 3.104c.65-1.27 1.992-1.641 2.229-1.342.611.775-1.156 1.227-2.229 1.342zm2.222.182c.651-1.27 2.311-1.504 2.546-1.205.611.775-1.427 1.363-2.546 1.205zm1.95.544c.651-1.271 2.523-1.416 2.773-1.023.378.592-1.155 1.271-2.773 1.023zm-6.44.09c.515-1.406 1.571-1.893 2.002-1.658.522.283-.974 1.316-2.002 1.658zm-1.723.5c.515-1.406 1.253-2.029 1.685-1.795.521.284-.657 1.453-1.685 1.795zm-1.451.407c.515-1.404.79-1.541 1.186-1.25.385.283-.294.728-1.186 1.25zm-1.633.726c.515-.908.79-1.541 1.186-1.25.385.283-.294.727-1.186 1.25zm-1.859.272c.697-.635.881-.996 1.276-.705.385.283-.294.544-1.276.705zm15.024-5.129c.329 1.062 1.395 1.918 1.652 1.844.367-.104.178-.84-.268-1.564h-.048l-.247-.02-.257-.039-.53-.121-.302-.1zm-2.397-1.41c-.155 1.387 1.506 2.619 1.826 2.529.372-.105.145-.816-.337-1.512l-.585-.316.244-.121a4.73 4.73 0 0 0-.31-.322l-.097-.018-.27-.066-.263-.086-.208-.088zm-2.073-.329c-.035 1.541 1.597 2.734 1.859 2.494.798-.73-.665-1.98-1.859-2.494zm-2.087.137c.374 1.494 1.87 2.416 2.131 2.176.799-.731-.936-1.662-2.131-2.176zm-1.541.635c-.217.996 1.552 2.1 1.813 1.859.799-.73-.619-1.345-1.813-1.859zm-1.679.906c.283.906 1.665 1.748 1.86 1.451.571-.865-.801-1.435-1.86-1.451zm-1.496.953c.283.68 1.855 1.203 1.95.861.253-.912-1.028-1.072-1.95-.861zm-.907.725c.192.543 1.428.984 1.497.635.116-.594-.575-.664-1.497-.635zm-1.316.816c.192.543 1.61.711 1.679.363.117-.593-.756-.392-1.679-.363zm-1.043 1.043c.419.543 1.678.465 1.542.137-.245-.594-.665-.574-1.542-.137zm19.127-1.422a47.55 47.55 0 0 1-2.421-.584l.004.1-.045.236-.14.223-.25.139h-.217l-.184-.062-.167-.088.057.127.004.068c1.293.457 2.811.887 5.117.926l-.009-.004-.398-.207-.381-.219-.366-.229-.353-.238-.251-.188zm-4.464-1.084l-.196-.041-.026.154-.14.223-.248.135-.21.004-.182-.055-.088-.041.036.061.009.047c.205.061.407.127.608.197l.093-.02c.307-.039.627-.07.929.023a5.355 5.355 0 0 1-.449-.492l-.136-.195zm-2.026-.347l-.219-.023-.094.193-.199.23-.198.088-.101-.004.104.01.065-.025.218-.064.211-.047.199-.027.189-.01.169.01a3.581 3.581 0 0 1-.344-.331zm-1.818-.059c-.064.004-.128.008-.191.014a1.898 1.898 0 0 0-.106.01l-.012.025-.038.045.168.012.272.158.154.25c.22-.002.432.006.636.02l-.161-.047-.172-.08-.174-.105a4.821 4.821 0 0 1-.376-.302zm-1.429.18c-.241.043-.48.096-.718.15l-.031.055-.222.242-.225.041.142.041.132.107c.154-.033.311-.066.469-.094l.257-.207.408-.232a1.423 1.423 0 0 1-.212-.103zm-1.662.406c-.251.076-.498.158-.74.244l-.13.242-.311.15-.116-.02.14.17.129-.148.328-.275.336-.193.334-.111.183-.012-.153-.047zm-2.919 1.186c-.163.084-.322.168-.475.252l.072.045.125.148.067-.129.211-.316zm-1.9 1.16l-.012.008.005.008.007-.016zm13.541-5.354a3.634 3.634 0 0 1-.121-.096l-.034.07-.158.172-.243.119-.233-.014-.181-.105-.132-.129-.073-.096.002.082-.014.039c.223.186.439.377.655.572l.163.037c.197.059.414.117.585.234l-.067-.188-.062-.219-.051-.232-.036-.242v-.004zm-1.689-1.195l-.159-.095-.139.162-.228.117-.229.01-.205-.075-.166-.116-.146-.144-.135-.168-.126-.193-.117-.214-.046-.105c-.031-.01-.062-.022-.092-.033l-.142-.046-.123.126-.131.062.079.029.139.076.126.104.099.139.058.184c.338.155.658.331.964.524l.03.001.226.023.21.037.191.05.174.066.097.053-.044-.098a7.23 7.23 0 0 1-.165-.476zm-3.295-1.263a11.948 11.948 0 0 0-.318-.065l-.087.125-.217.115-.215.026-.067-.013.024.021.034.1c.256.054.51.113.763.181l.167-.029.214-.021.156-.002c-.18-.108-.323-.272-.454-.438zm-1.602-.258c-.178-.02-.357-.036-.536-.051l-.056.07-.354.145-.366-.049-.317-.18-.044-.044c-.076-.002-.151-.004-.227-.004l.105.022.239.179.075.175c.21.016.419.034.627.057l.319-.102.371-.06.32.005-.08-.074-.076-.089zm-2.865-.105c-.261.008-.522.02-.783.037l.048.017.203.183.029.069.378.001.084-.06.269-.149-.137-.043-.091-.055zm-1.559.096c-.119.011-.238.021-.357.034l-.135.135-.174.088.295-.013.186-.14.185-.104zm-2.637.353l-.021.004.01.034.167-.014-.142-.019-.014-.005zM155.182 100.93c1.5-.451 3-1.768 4.574-3.129l.131.162.195.131.25.076.195-.02.168-.088.127-.113.049-.061-.002.064.025.066c-1.625 1.557-3.34 3.166-6.184 3.865.169-.307.325-.627.472-.953zm19.697-10.68c-1.539.254-2.697.603-3.541 1.064a4.376 4.376 0 0 0-.881.621l.021-.222c1.086-1.388 3.03-1.504 4.401-1.463zm-13.127-5.368c-.4.633-.76 1.289-1.041 1.994a8.276 8.276 0 0 0-.596 2.724l-.049-.102-.066-.108a3.728 3.728 0 0 1 .277-2.534c.34-.709.873-1.353 1.475-1.974zm2.461-1.395l-.086.115c-1.086 1.435-2.338 3.092-2.512 4.983l-.014-.047-.041-.101c-.396-1.983 1.188-3.581 2.653-4.95zm1.752-.148c-1.09.966-2.252 2.338-2.756 4.594a2.91 2.91 0 0 0-.045-.222l-.07-.211-.039-.078c-.002-1.672 1.463-3.03 2.91-4.083zm3.4-.72c-.178.128-.375.263-.586.407-1.174.802-2.77 1.891-3.699 3.787l-.129.145-.123.208-.035-.185-.062-.195c.585-2.552 3.048-3.561 4.634-4.167zm1.678 1.018l-.395.145c-1.369.497-3.25 1.179-4.371 2.789l-.061-.478c1.075-1.511 3.292-2.084 4.827-2.456zm2.49.172l-.521.204c-1.281.499-2.883 1.123-4.068 1.991l-.033-.286c1.234-.993 3.179-1.534 4.622-1.909zm2.531 1.151c-1.752.437-3.492.869-4.885 1.171l-.295.032-.289.082-.037.018-.123.024a15.877 15.877 0 0 1 2.523-.851 18.3 18.3 0 0 1 3.106-.476zm-.234 2.03c-.938.05-1.834.082-2.662.079a20.972 20.972 0 0 1-1.689-.066l.043-.048.051-.085.004-.002a42.672 42.672 0 0 1 2.117.02c.708.022 1.421.059 2.136.102zm-7.488 1.893c-.25.247-.52.497-.791.75-.924.857-1.898 1.762-2.395 2.832l-.016-.117-.1-.403c.486-1.003 1.617-1.83 2.697-2.618.206-.149.408-.296.605-.444zm3.426-.668l-.523.34c-1.506.977-3.281 2.126-4.176 3.526l.002-.03-.025-.287-.078-.331c.911-1.34 3.108-2.421 4.8-3.218zm1.709.618a13.026 13.026 0 0 0-3.199 1.71c-.607.453-1.123.939-1.508 1.434l.023-.17.006-.112c.504-.988 1.283-1.642 2.139-2.079.832-.427 1.74-.651 2.539-.783zm3.072 2.256c-1.539.104-2.695.34-3.541.72a4.19 4.19 0 0 0-.566.306l-.07.019-.213.096.26-.381c1.116-.996 2.868-.921 4.13-.76zm-1.33-3.085l-2.607-.099.209-.149c.788.054 1.593.137 2.398.248zm-3.244-.125l-1.135-.045.408-.148c.348.007.701.02 1.061.039l-.334.154zm7.869 4.686a152.48 152.48 0 0 1-4.467-.011 179.93 179.93 0 0 1-.506-.012l.176-.258c.477-.027.986-.037 1.533-.022.959.025 2.037.12 3.264.303zm-6.371-.081l-.043-.005.012-.02.189-.03-.158.055zm4.119 1.657c1.111.137 2.475.273 3.955.377-1.314-.357-2.463-.653-3.477-.825-.787-.134-1.498-.192-2.143-.147l-.01.009-.123.091c.201-.014.408.026.607.057l.287.068 1.01.311-.106.059zm3.402 2.244c-1.732-.577-3.266-1.268-4.311-1.768l.127-.046.053-.03.99.08c.428.218.879.482 1.357.764.554.326 1.144.676 1.784 1zm-1.328.81c-1.785-.738-3.25-1.751-4.148-2.46l.18.038.275.002.201-.025c.27.19.561.41.873.645.76.574 1.639 1.238 2.619 1.8zm-11.541-.636a6.197 6.197 0 0 1 1.568-1.178l.627.033c-.471.296-.867.608-1.209.876-.422.334-.754.594-1.016.656l.018-.1.012-.287zm2.238-1.477c.057-.021.111-.041.168-.06l.256.065.076.014c-.104.054-.205.11-.301.166l-.199-.185zm-.183 1.738c.543-.559 1.227-.886 2.049-1.054.678-.138 1.449-.169 2.322-.133-1.58.253-2.607.748-3.324 1.093-.52.25-.865.416-1.127.344l.012-.027.068-.223zm1.677.746c.547-.631 1.432-.94 2.502-1 .992-.057 2.139.102 3.326.412-3.451-.256-4.666.271-5.268.535-.265.116-.392.171-.56.053zm1.571.717c.605-.375 1.525-.482 2.537-.396 1.113.096 2.336.426 3.383.889-2.92-.809-4.443-.457-5.346-.25-.314.072-.547.127-.732.104l.158-.347zm1.699.67c.564-.021 1.254.143 1.98.412.693.254 1.42.602 2.113.975-2.549-1.035-3.727-.959-4.412-.902l.319-.485zm-.301 2.068a1.144 1.144 0 0 1-.168-.084.783.783 0 0 1 .088-.074l.08-.025v.183zm2.295-.181c.121.033.242.066.367.104 1.207.363 2.572.98 3.768 1.598a20.725 20.725 0 0 0-2.916-.939l-.65-.303-.297-.115-.279-.07-.168-.01.175-.265zm-1.072.873l-.088-.035-.027-.029-.148-.094.213-.021.168-.041-.118.22zm1.941.357c1.566.805 3.473 2.217 5.066 3.523a51.807 51.807 0 0 0-4.357-2.322l-.357-.338-.375-.361-.176-.145-.189-.113.262-.127.126-.117zm-.969 1.284c1.092 1.072 2.279 2.582 3.307 4.023-1.184-1.348-2.182-2.371-3.006-3.146-.275-.26-.529-.492-.768-.699l.816.486-.385-.686c.013.008.025.014.036.022zm1.686.433a23.522 23.522 0 0 1 3.059 3.486c-1.592-1.684-2.928-2.854-4.002-3.668l.174.041.769.141zm-2.158-1.234l.109.047.047.02-.039.041v.002l-.096-.072-.021-.038zm-22.348.185c1.805 1.111 2.998 2.422 2.443 4.297-2.52-1.053-3.549-.291-4.008.922.688-.248 1.467-.463 2.246-.303.883.186 1.719.85 2.312.82.904-.045 1.215-1.105 1.029-2.303 1-.215 2.676.025 2.943-.873.578-1.955-.744-2.967-2.061-3.619l-.189-.088-.443.051-.514.045-.543.029-.57.014-.594-.002-.105.043-.451.164-.17.055c2.521.432 4.447 1.111 4.059 2.756l-1.758.094a4.553 4.553 0 0 0-.584-.965 6.342 6.342 0 0 0-2.176-1.75l-.58.154c-.092.155-.186.309-.286.459zm3.942-11.746c1.123.861 1.016 3.189.498 3.356-.614.199-.875-1.39-.498-3.356zm-1.043 2.177c1.123.86 1.016 3.188.498 3.356-.614.2-.875-1.391-.498-3.356zm2.404-3.9c.852.86.834 3.189.316 3.356-.613.199-.785-1.436-.316-3.356zm1.451-1.225c.801.852.492 3.058.045 3.129-.508.081-.785-1.39-.045-3.129zm1.764-.568c.449.719.117 2.657-.332 2.729-.506.08-.717-1.41.332-2.729zm1.633-.726c.449.719-.02 2.431-.467 2.502-.508.081-.582-1.182.467-2.502zm1.587-.272c.176.719-.293 1.933-.74 2.003-.506.081-.535-1.182.74-2.003zm1.27-.317c.176.719-.111 1.615-.559 1.686-.505.079-.308-1.183.559-1.686zm1.406-.182c.176.719-.418 1.4-.865 1.47-.506.08-.002-.967.865-1.47zm1.451-.136c.018.776-.863 1.277-1 1.232-.484-.161.223-1.137 1-1.232zm1.362.635c-.414.855-1.184.937-1.273.756-.208-.418.677-.887 1.273-.756zm-10.453 8.203c-1.404-.186-2.836.857-2.59 1.34.293.574 1.467.317 2.59-1.34zm1.314-1.859c-1.402-.186-3.018.721-2.771 1.204.293.573 1.648.452 2.771-1.204zm1.541-1.588c-1.311-.367-2.926.178-2.906.751.023.643 1.693.362 2.906-.751zm1.725-1.134c-1.312-.367-2.656-.23-2.635.343.021.643 1.377.452 2.635-.343zm1.359-.997c-1.266-.231-2.064-.366-2.045.207.024.642.969.406 2.045-.207zm1.406-.681c-.678-.186-1.656-.502-1.637.07.022.644.924.181 1.637-.07zm1.815-.68c-.678-.186-1.615-.276-1.592.071.035.55.877.18 1.592-.071zm-14.557 12.217c.627-.934 1.178-2.014 1.736-3.123l.16.035.236-.035.195-.119.141-.174.094-.195.023-.071.037.056.008.007c-.689 1.45-1.354 2.888-2.006 3.788l-.111.064-.285.145-.281.127-.172.064c.079-.188.153-.378.225-.569zm2.697-4.994c.051-.097.104-.193.156-.29l.088.02.234-.036.197-.118.139-.174.094-.195.021-.062.014.052.043.065c-.098.181-.193.366-.291.554l-.076.042-.201.129-.178.138-.156.146-.064.074-.008-.224-.012-.121zm1.061-1.8c.053-.082.107-.163.164-.242l.195.048.238-.036.178-.109a5.804 5.804 0 0 1-.078.112l-.105.056-.195.122-.174.131-.148.141-.084.106.004-.03c.003-.1.005-.199.005-.299zm1.162-1.515c.066-.073.131-.146.199-.217l.111.049-.096.116-.088.186-.029.212.035.178c-.068.08-.139.16-.205.243-.045.052-.086.106-.129.161l.062-.134.064-.215.043-.234.027-.253.006-.092zm1.203-1.178c.062-.055.127-.109.191-.162l.139.129.191.085.221.006c-.164.121-.324.245-.482.373-.143.035-.285.07-.42.125l.059-.146.062-.214c.016-.067.027-.131.039-.196zm1.461-1.092c.057-.037.115-.073.172-.108l.066.107.146.125.188.072h.193l-.01.006c-.293.017-.592.056-.852.188l.055-.189c.017-.067.03-.134.042-.201zm2.897-1.436l.102-.037.145.206.133.024-.012.01-.055.255c-.162.067-.322.136-.484.206a2.538 2.538 0 0 0-.248-.02l.145-.147.18-.282.094-.215zm2.556-.717l.088-.018.086.063-.234.055-.045.03.105-.13zm1.192-.09l-.25.086.078-.047.156-.126.016.087zm-1.563.547c-.207.074-.412.149-.617.226l-.068-.016-.348-.045.139-.213.051.093.379.051.277-.086.225-.134-.038.124zm-3.691 1.556l-.27.141.111-.133.098-.157.084-.173.129-.353.131.157-.031.013-.211.253-.041.252zM161 95.21c.398 1.224-.285 2.688-.635 2.63-.844-.141-.379-1.798.635-2.63zm1.859-1.859c.398 1.223-.473 3.089-.816 2.993-.662-.187-.197-2.162.816-2.993zm1.905-1.18c.398 1.223-.564 3.045-1.043 2.902-.66-.194.031-2.07 1.043-2.902zm1.906-.589c.396 1.223-.838 2.953-1.316 2.585-.545-.419.302-1.753 1.316-2.585zm1.812-.045c-.01 1.269-.973 2.59-1.451 2.222-.545-.42.44-1.708 1.451-2.222zm1.678.09c-.01 1.269-.881 2.182-1.359 1.814-.545-.419.347-1.3 1.359-1.814zm1.77.363c-.736 1.178-1.518 1.638-1.723 1.316-.371-.58.709-1.255 1.723-1.316zm1.224.318c-.736 1.177-1.078 1.297-1.314.998-.279-.353.301-.938 1.314-.998zm1.27.317c-.736 1.178-1.168 1.162-1.406.861-.278-.352.394-.8 1.406-.861zm1.588.408c-.828.815-1.396.844-1.633.543-.279-.351.619-.709 1.633-.543zm.861 1.134c-.465.316-1.486.428-1.496.046-.01-.352.787-.292 1.496-.046zm-3.629.625c-.844-.933-1.332-1.08-1.568-.78-.28.353.556.72 1.568.78zm1.824 0c-.682-.716-1.197-.971-1.434-.672-.279.354.421.612 1.434.672zm-3.455.082c-.846-.933-1.543-1.182-1.789-.888-.359.433.776.828 1.789.888zm-1.742.19c-.846-.933-2.137-1.068-2.305-.725-.332.679 1.291.665 2.305.725zm-2.123.327c-1.117-.933-2.434-.742-2.604-.398-.332.677 1.545.61 2.604.398zm-1.904 1.043c-.98-.842-2.852-.592-2.92-.217-.153.814 1.861.836 2.92.217zm-1.723 1.134c-1.072-.615-2.852-.186-2.922.189-.15.815 1.863.431 2.922-.189zm5.301 3.104c-.65-1.27-1.992-1.641-2.229-1.342-.611.775 1.157 1.227 2.229 1.342zm-2.223.182c-.65-1.27-2.311-1.504-2.545-1.205-.611.775 1.428 1.363 2.545 1.205zm-1.949.544c-.65-1.271-2.523-1.416-2.773-1.023-.377.592 1.156 1.271 2.773 1.023zm6.439.09c-.516-1.406-1.57-1.893-2.002-1.658-.521.283.975 1.316 2.002 1.658zm1.723.5c-.514-1.406-1.252-2.029-1.684-1.795-.521.284.657 1.453 1.684 1.795zm1.453.407c-.516-1.404-.791-1.541-1.188-1.25-.384.283.296.728 1.188 1.25zm1.631.726c-.514-.908-.789-1.541-1.186-1.25-.384.283.295.727 1.186 1.25zm1.861.272c-.697-.635-.883-.996-1.277-.705-.385.283.293.544 1.277.705zm-15.025-5.129c-.33 1.062-1.395 1.918-1.65 1.844-.369-.104-.18-.84.266-1.564h.049l.246-.02.258-.039.529-.121.302-.1zm2.397-1.41c.154 1.387-1.506 2.619-1.826 2.529-.373-.105-.145-.816.338-1.512l.584-.316-.244-.121c.1-.113.203-.221.311-.322l.098-.018.27-.066.262-.086.207-.088zm2.074-.329c.035 1.541-1.598 2.734-1.859 2.494-.799-.73.663-1.98 1.859-2.494zm2.086.137c-.373 1.494-1.869 2.416-2.131 2.176-.799-.731.937-1.662 2.131-2.176zm1.543.635c.215.996-1.553 2.1-1.814 1.859-.8-.73.618-1.345 1.814-1.859zm1.675.906c-.281.906-1.662 1.748-1.857 1.451-.572-.865.801-1.435 1.857-1.451zm1.498.953c-.283.68-1.855 1.203-1.949.861-.254-.912 1.028-1.072 1.949-.861zm.907.725c-.191.543-1.428.984-1.496.635-.118-.594.574-.664 1.496-.635zm1.316.816c-.191.543-1.609.711-1.678.363-.117-.593.754-.392 1.678-.363zm1.043 1.043c-.42.543-1.678.465-1.543.137.246-.594.666-.574 1.543-.137zm-19.127-1.422a47.329 47.329 0 0 0 2.422-.584l-.006.1.045.236.141.223.252.139h.217l.184-.062.166-.088-.057.127-.004.068c-1.293.457-2.811.887-5.115.926l.008-.004.398-.207.381-.219.367-.229.352-.238.249-.188zm4.463-1.084l.197-.041.025.154.141.223.248.135.209.004.182-.055.09-.041-.037.061-.01.047c-.203.061-.406.127-.607.197l-.092-.02c-.309-.039-.629-.07-.932.023.166-.154.307-.32.449-.492l.137-.195zm2.027-.347l.219-.023.094.193.199.23.197.088.102-.004-.104.01-.066-.025-.217-.064-.211-.047-.199-.027-.189-.01-.17.01c.123-.103.238-.212.345-.331zm1.819-.059a6.13 6.13 0 0 1 .296.024l.012.025.039.045-.168.012-.273.158-.152.25a8.177 8.177 0 0 0-.637.02l.16-.047.172-.08.176-.105a5.21 5.21 0 0 0 .375-.302zm1.427.18c.24.043.48.096.719.15l.029.055.223.242.227.041-.143.041-.133.107a13.408 13.408 0 0 0-.469-.094l-.258-.207-.406-.232c.071-.025.143-.064.211-.103zm1.663.406c.252.076.498.158.742.244l.129.242.311.15.117-.02-.141.17-.129-.148-.328-.275-.336-.193-.334-.111-.182-.012.151-.047zm2.919 1.186c.164.084.322.168.475.252l-.072.045-.125.148-.068-.129-.21-.316zm1.899 1.16c.004.002.008.006.014.008l-.006.008-.008-.016zm-13.539-5.354l.121-.096.031.07.16.172.242.119.232-.014.182-.105.131-.129.074-.096-.002.082.014.039a20.9 20.9 0 0 0-.654.572l-.164.037c-.197.059-.412.117-.584.234l.066-.188.062-.219.051-.232.037-.242v-.004h.001zm1.689-1.195l.158-.095.139.162.227.117.23.01.205-.075.166-.116.146-.144.135-.168.127-.193.117-.214.045-.105.094-.033c.045-.016.092-.03.141-.046l.123.126.131.062-.08.029-.139.076-.125.104-.1.139-.059.184a8.322 8.322 0 0 0-.963.524l-.031.001-.225.023-.211.037-.191.05-.174.066-.096.053.043-.098a7.25 7.25 0 0 0 .167-.476zm3.293-1.263c.107-.023.213-.045.318-.065l.088.125.219.115.213.026.068-.013-.025.021-.033.1a14.13 14.13 0 0 0-.764.181l-.166-.029-.215-.021-.154-.002c.18-.108.32-.272.451-.438zm1.604-.258c.178-.02.357-.036.535-.051l.057.07.354.145.365-.049.316-.18.045-.044c.076-.002.15-.004.227-.004l-.105.022-.238.179-.076.175c-.209.016-.418.034-.627.057l-.318-.102-.371-.06-.32.005.08-.074.076-.089zm2.863-.105c.262.008.523.02.783.037l-.047.017-.203.183-.029.069-.379.001-.084-.06-.268-.149.137-.043.09-.055zm1.561.096c.119.011.238.021.357.034l.135.135.174.088-.295-.013-.186-.14-.185-.104zm2.636.353a.13.13 0 0 1 .021.004l-.01.034-.168-.014.143-.019.014-.005zM123.25 101.869c-1.043-13.926-12.732-24.964-26.918-24.964-14.17 0-25.85 11.015-26.915 24.921l53.833.043z" fill="#fff22d"/><path d="M74.198 65.146h11.26v.432h-11.26v-.432zm-2.696.955h9.213v.432h-9.213v-.432zm4.744.888h9.212v.432h-9.212v-.432zm.921 1.023h9.213v.432h-9.213v-.432zm-11.807.683h6.62v.432h-6.62v-.432zm3.344.784h6.62v.432h-6.62v-.432zm-5.869 1.4h9.315v.432h-9.315v-.432zm8.121.716h9.315v.432h-9.315v-.432zm-9.349.922h10.168v.432H61.607v-.432zm5.767.989h12.045v.432H67.374v-.432zm-5.846 3.403h12.045v.432H61.528v-.432zm-1.919.959h12.044v.432H59.609v-.432zm2.966.786H74.62v.432H62.575v-.432zm2.617 1.482h12.045v.433H65.192v-.433zm-2.617 1.833H74.62v.432H62.575v-.432zm2.181 1.047h12.045v.432H64.756v-.432zm6.02 1.309h12.045v.432H70.776v-.432zm-4.959 2.093h10.984v.432H65.817v-.432zm6.98 1.309H83.78v.432H72.797v-.432zm-1.657 1.658h8.899v.432H71.14v-.432zm4.275 1.571h10.47v.432h-10.47v-.432zm-2.269 1.745h7.678v.432h-7.678v-.432zm5.316-2.558h4.676v.432h-4.676v-.432zm31.235 3.402h11.26v.432h-11.26v-.432zm5.586-.899h9.252v.433h-9.252v-.433zm-7.07-.883h9.252v.432h-9.252v-.432zm1.207-1.004h9.25v.432h-9.25v-.432zm0-3.013h12.09v.432h-12.09v-.432zm-.984-1.475h12.09v.432h-12.09v-.432zm2.787-2.076h12.09v.432h-12.09v-.432zm9.341.928h12.092v.432h-12.092v-.432zm3.608 1.093H134.6v.432h-10.428v-.432zm-2.842.874h8.898v.432h-8.898v-.432zm2.732.82h8.898v.432h-8.898v-.432zm-3.333 1.311h6.441v.432h-6.441v-.432zm3.333.82h6.439v.432h-6.439v-.432zm-7.869-7.868h12.092v.432h-12.092v-.432zm-4.097-.929h12.09v.432h-12.09v-.432zm5.574-1.256h12.09v.432h-12.09v-.432zm-.328-1.258h12.09v.432h-12.09v-.432zm3.058-.982h12.092v.432H120.4v-.432zm-5.845-.875h12.092v.432h-12.092v-.432zm-1.858-1.366h12.09v.432h-12.09v-.432zm-6.119-1.694h12.09v.432h-12.09v-.432zm12.723-1.366h11.061v.432h-11.061v-.432zm-1.42-1.256h11.059v.432h-11.059v-.432zm-2.186-1.694h9.146v.432h-9.146v-.432zm-5.791-1.694h10.873v.432h-10.873v-.432zm-1.857-2.404h10.873v.432h-10.873v-.432zm.492-.874h4.752v.432h-4.752v-.432zm6.773 1.803h7.486v.432h-7.486v-.432z"/><path d="M89.439 94.513c.012-.542.026-1.086.046-1.63-1.917.466-3.047.689-4.25.375a130.714 130.714 0 0 1 4.992-7.908c-.072-2.321.037-4.402.484-6.035a2.35 2.35 0 0 1-.023-.079c-3.036.393-7.149.516-10.729.715-1.375-1.42-2.602-2.465-2.941-3.663 4.293-.028 8.976.022 13.262.314.643-.646 1.377-1.439 2.114-2.235-2.022-2.199-4.222-5.824-6.372-9.044.523-1.906 1.153-3.499 2.012-4.398 2.269 3.789 4.441 7.578 6.312 11.366.953-.977 1.738-1.686 2.083-1.697.291-.009.892.444 1.644 1.119 1.641-3.243 3.334-6.615 4.793-9.991 1.371.054 3.371-.145 4.742-.091-3.393 6.342-5.717 9.928-7.428 12.102.896.885 1.807 1.792 2.568 2.479 3.352-.166 6.547-.29 10.184-.738.648 1.209 1.908 2.681 2.555 3.89-7.18-.054-10.996-.084-13.49-.315a73.176 73.176 0 0 0-.074 5.361 184.561 184.561 0 0 0 4.711 6.43l-2.135 3.519a157.82 157.82 0 0 1-2.205-3.209c.104 1.204.221 2.407.35 3.609l.303.048c.932.15 1.654 1.083 2.076 1.929.516 1.031.396 2.275.594 3.412l6.824 1.633.01.08-32.235-.025 7.139-1.471c-.143-.814-.187-1.629.458-2.443.099-.84-.193-1.832.296-2.521.303-.432.798-.724 1.33-.888z"/><path d="M90.479 94.008h2.887c.084-.934-.188-2.223-.103-3.157 0-.99.356-1.625.356-2.615h2.631v1.019c-.966.764-.54 1.528.085 2.292l.169 2.546 3.396.085-.256-7.639-.764-.679c-.283.623-.059 1.763-.848 1.867-.639.084-.34-2.32-.51-3.48l.764-.169c-.826-.995-1.466-2.027-1.698-3.14l-.764-.085c-.198 1.104-.228 3.309-.594 3.31-.268 0-.509-.169-.764-.255-1.022 2.554-2.356 4.899-3.734 7.214.001.001-.253 3.056-.253 2.886zm1.018-14.513c-.246 1.212-.274 2.315-.084 3.31l1.867-1.867c.133-.708.381-1.458-.17-1.904-.453-.367-1.075.235-1.613.461zm3.526-6.581c.185-.502.886-1.12 1.286-1.142.327-.019 1.119.522 1.365 1.018-.396.619-.806 1.491-.954 2.196-.022-.05-.68-.171-.771.057-.317-.623-.469-1.506-.926-2.129zm-6.908-9.878c.066.089.107.151.145.207h-.001c.092.14.165.249.305.32l-.192.386c-.243-.122-.345-.274-.472-.468h-.001a2.85 2.85 0 0 0-.128-.187l.344-.258zm-.164 2.096c.047.14.149.264.245.379.151.184.291.352.291.607h-.432c0-.1-.092-.211-.192-.332-.12-.144-.249-.299-.321-.521l.409-.133zm3.516 6.523c-.039-.038-.087-.081-.139-.128-.265-.238-.647-.583-.647-.943h.432c0 .168.298.438.504.623.062.055.118.105.155.144l-.305.304zm-2.688-4.998c.042.063.14.176.245.296h.001c.211.244.447.513.447.677h-.432c0-.002-.179-.208-.34-.393a4.125 4.125 0 0 1-.28-.342l.359-.238zm1.045 2.008c.221.044.486.204.679.428.166.193.283.437.283.702h-.432a.66.66 0 0 0-.178-.422c-.13-.151-.301-.258-.437-.285l.085-.423zm-10.678 8.662c.14 0 .319.008.521.017.593.027 1.394.063 1.692-.065l.169.396c-.392.167-1.247.129-1.88.101-.202-.009-.381-.018-.502-.018v-.431zm9.913.497h-.985v-.432h.985v.432zm-5.326-.381l1.001.026-.01.432-1.001-.026.01-.432zm-1.244-.026h.844v.432h-.844v-.432zm3.032 0h.738v.432h-.738v-.432zm-5.187 1.537l1.37-.132.041.428-1.371.133-.04-.429zm33.156-.452h-2.562v-.432h2.562v.432zm-3.756 0h-.387v-.432h.387v.432zm-1.259-.062l-.566.06-.043-.429.566-.06.043.429zm-1.461.152l-.744-.03.018-.432.744.03-.018.432zm-1.432-.06l-.566-.03.021-.432.566.03-.021.432zm6.537-1.46l-.104-.001-.393-.002c-.385 0-.896-.229-.896-.123h-.434c0-.265.76-.309 1.33-.309l.395.002.102.002v.431zm-6.43-13.82l-.07.064h.002c-.092.082-.262.233-.262.243 0 .173 0 .347-.281.347v-.382c-.057.03-.15.059-.15.036 0-.204.264-.439.404-.565h.002l.051-.047.304.304zm-1.037 1.907c0 .329-.234.514-.436.674-.082.065-.156.112-.156.117h-.432c0-.204.15-.322.318-.456.127-.1.273-.216.273-.335h.433zm-.998 1.484l-.361.462-.34-.265.361-.462.34.265zm-.634 1.152a3.039 3.039 0 0 1-.256.398c-.104.141-.225.25-.332.25v-.432c.051 0-.045-.034-.014-.076a2.7 2.7 0 0 0 .215-.332l.387.192zm-.758 1.227l-.428.792-.381-.205.428-.792.381.205zM89.151 89.835c-.072.167-.131.316-.187.459-.213.541-.393.997-.872 1.476a4.934 4.934 0 0 0-.305.329c-.094.112-.18.228-.23.33l-.387-.192a2.24 2.24 0 0 1 .286-.415c.11-.132.229-.256.331-.357.417-.417.581-.834.775-1.328.06-.153.123-.313.192-.473l.397.171zm-.133-.638c.008-.016.027-.062.051-.123.106-.266.294-.732.5-.732v.432c-.084 0-.033.294-.1.461-.031.075-.054.133-.065.154l-.386-.192zm.745-1.11c.052-.144.269-.69.484-1.071.155-.275.332-.482.513-.482v.432c-.007 0-.054.111-.137.261a8.28 8.28 0 0 0-.455 1.007l-.405-.147zm14.78 4.635l-1.443-2.38.369-.225 1.443 2.38-.369.225zm.607-1.764a3.41 3.41 0 0 1-.465-.597 6.224 6.224 0 0 1-.371-.691l.393-.181c.104.227.217.444.342.643.121.193.256.37.408.521l-.307.305zm-1.361-1.982l-.541-.83.361-.234.541.83-.361.234zm-1.041.838c-.064-.091-.137-.174-.205-.255-.141-.161-.277-.318-.357-.508l.396-.169c.055.128.168.26.285.396.082.093.164.189.232.284l-.351.252zm.102-3.061l.541.793-.355.243-.541-.793.355-.243zm-.891.943c.113.114.279.307.398.492v.001c.098.155.17.317.17.453h-.432c0-.044-.043-.128-.104-.222a2.646 2.646 0 0 0-.34-.419l.308-.305zm1.609-23.462l-.145-.001h-.002c-.26-.003-.359-.004-.359.311h-.432c0-.752.221-.75.795-.742l.143.001v.431zm-.142-.433h.002-.002zm-1.715 2.646c0-.18.105-.547.316-.653l.193.387c-.053.025-.078.183-.078.266h-.431zm-.871 1.178l.262-.328.338.27-.264.328-.336-.27zm-4.711 8.025a2.164 2.164 0 0 1 2.138 1.868l-1.434.08.881-1.251a2.157 2.157 0 0 0-.506-.405l-1.041 1.478-1.159-1.455-.075.047a2.15 2.15 0 0 1 1.196-.362zm2.154 2.017a.73.73 0 0 1 .004.066c0-.022-.002-.044-.004-.066zm.004.078v0zm.002.05V77.795zm-.002.062v.009-.009zm0 .02v0zm0 .025c-.002.015-.002.028-.002.042 0-.014 0-.027.002-.042zm-.002.044c-.002.014-.004.028-.004.042 0-.014.002-.029.004-.042zm-.004.049a2.166 2.166 0 0 1-1.119 1.708l-.961-1.207-.916 1.3a2.14 2.14 0 0 0 1.877-.093c.191-.104.365-.237.516-.392l-.85-1.065 1.43-.081c.01-.056.017-.113.023-.17zm-2.999 1.8a.423.423 0 0 1-.031-.014l.031.014zm-.052-.024l-.017-.008a.065.065 0 0 0 .017.008zm-.028-.013l-.061-.03c.02.011.041.021.061.03zm-.066-.033zm-.157-.09zm-.12-.081l-.062-.046c.022.015.041.031.062.046zm-.069-.054l-.049-.04c.015.014.032.027.049.04zm-.056-.044a2.167 2.167 0 0 1-.681-1.054l1.482-.083-.801 1.137zm-.761-1.533l-.001-.019.001.019zm-.002-.056v-.017.017zm-.001-.038v-.019-.013.032zm.001-.072a2.147 2.147 0 0 1 .542-1.377l1.029 1.291-1.571.086zm.654-1.494l.045-.042-.045.042zm.233-.197l.049-.035a.867.867 0 0 0-.049.035zm-5.183 19.511h.78v.431h-.78v-.431zm1.594 0h.78v.431h-.78v-.431zm1.559 0h.78v.431h-.78v-.431zm2.204 0h1.187v.431h-1.187v-.431zm1.729 0h1.186v.431h-1.186v-.431zm2.001 0h1.188v.431h-1.188v-.431zm2.271 0h1.355v.431h-1.355v-.431zm-1.322.886h1.357v.432h-1.357v-.432zm-1.899 0h1.018v.432h-1.018v-.432zm-2 0h1.187v.432h-1.187v-.432zm-1.763 0h.983v.432h-.983v-.432zm-2.068 0h.983v.432h-.983v-.432zm-1.797 0h.983v.432h-.983v-.432zm11.595 0h.746v.432h-.746v-.432zm-12.782.885h1.288v.432h-1.288v-.432zm2.339 0h.916v.432h-.916v-.432zm1.628 0h1.187v.432h-1.187v-.432zm1.797 0h1.39v.432h-1.39v-.432zm2.17 0h1.051v.432h-1.051v-.432zm1.729 0h1.322v.432H98.66v-.432zm2.035 0h1.119v.432h-1.119v-.432zm1.932 0h.848v.432h-.848v-.432zm-12.647.849h1.288v.434H89.98v-.434zm-1.187 0h.542v.434h-.542v-.434zm3.154 0h.983v.434h-.983v-.434zm1.865 0h1.221v.434h-1.221v-.434zm1.864 0h1.221v.434h-1.221v-.434zm2.035 0h1.221v.434h-1.221v-.434zm2.101 0h1.221v.434h-1.221v-.434zm1.833 0h1.221v.434h-1.221v-.434zm2 0h.373v.434h-.373v-.434zm-14.682.953h1.288v.434h-1.288v-.434zm2.136 0h1.289v.434h-1.289v-.434zm10.003 0h.848v.434h-.848v-.434zm1.763 0h.848v.434h-.848v-.434zm2.817 2.088c-.049.029-.131.26-.205.479-.018.047-.033.092-.051.137h-.391c.002-.064-.004-.17.035-.279.1-.287.207-.596.391-.705l.221.368zm1.117.145a3.947 3.947 0 0 1-.111.273c-.027.066-.059.135-.084.199h-.457c.037-.121.094-.25.145-.369.039-.09.076-.176.098-.238l.409.135zm1.26.174a3.973 3.973 0 0 1-.086.299h-.457c.059-.16.111-.338.119-.381l.424.082zm-3.618-1.225c-.109.584-.336 1.059-.572 1.521h-.482c.006-.016.016-.031.021-.045.25-.482.502-.973.609-1.555l.424.079zm-1.543-.281c-.025.441-.209.893-.381 1.322-.068.166-.133.328-.186.479h-.457l.025-.066-.004.012c.062-.191.141-.385.221-.584.16-.396.328-.812.35-1.189l.432.026zm-1.162 0c-.027.441-.209.893-.383 1.322-.066.164-.133.328-.186.477h-.455l.023-.064-.002.012c.061-.191.139-.385.219-.584.16-.396.328-.812.352-1.189l.432.026zm-1.177 0c-.025.441-.209.893-.383 1.322-.066.164-.133.326-.184.477h-.457l.025-.064-.004.012c.061-.191.141-.385.219-.584.16-.396.33-.812.352-1.189l.432.026zm-1.506.187c-.027.441-.209.895-.383 1.324l-.115.287-.459-.002c.053-.146.113-.295.174-.447.16-.395.328-.812.352-1.188l.431.026zm-1.19.121c-.379.377-.445.906-.455 1.488h-.432c.01-.678.086-1.301.581-1.795l.306.307zm-4.694.301c.087-.029.17-.078.252-.129.177-.105.353-.213.616-.213.266 0 .533-.033.771-.094l-.001.002c.226-.059.423-.143.564-.244l-.005.004c.408-.309.672-.289.841-.068.245.324.076 1.188-.057 1.867a6.674 6.674 0 0 1-.012.061H95.7l.028-.143c.116-.594.264-1.354.136-1.523-.008-.012-.077.029-.237.152l-.006.002a2.133 2.133 0 0 1-.706.309h-.001c-.271.07-.575.109-.876.109-.146 0-.27.074-.395.148-.104.062-.21.127-.339.17l-.135-.41zm-2.992.272c.602 0 .989.086 1.243.348.137.143.225.324.277.564h-.443a.627.627 0 0 0-.143-.264c-.158-.162-.453-.217-.934-.217v-.431zm-.969.617c-.12.012-.179.131-.208.293h-.438c.044-.363.186-.682.607-.721l.039.428zm-4.671.289c.546-.307 1.177-.643 1.686-.643.398 0 .71.174.847.645l-.477-.002a.4.4 0 0 0-.37-.209c-.214 0-.477.086-.751.209h-.935z" fill="#fff"/></g></svg>