<svg height="669" width="2500" xmlns="http://www.w3.org/2000/svg" viewBox="0 0 517.001 138.423"><g fill="#ff5901"><path d="M64.058 49.597L32.397.141H.036L0 138.415h25.713l.029-100.242 16.953 24.801c10.543 14.814 30.085.243 21.363-13.377zM138.76 0h-32.361l-31.66 49.451c-8.718 13.625 10.819 28.192 21.365 13.377l16.954-24.792.032 100.379h25.707z"/><path d="M56.626 83.149l-.062 55.266H81.71l.035-55.266h.083c-1.245-18.136-25.522-16.174-25.202 0zM168.109 137.883h30.68l-.068-22.908h-25.633V88.006h34.171v49.877h26.337v-85.8c0-12.191-6.298-23.397-20.379-23.397H150.74l-.073 23.463h56.592v13.45l-39.778.072c-10.65 0-20.107 11.202-20.107 17.44v36.843c.073 9.669 12.541 17.929 20.735 17.929zM346.827 137.922H377.5l-.064-22.908h-25.638V88.05h34.182v49.872h26.34V52.115c0-12.187-6.306-23.396-20.384-23.396H329.46l.029 23.467h56.489v13.451l-39.788.065c-10.646 0-20.096 11.209-20.096 17.445v36.841c.066 9.662 12.537 17.934 20.733 17.934zM269.666 115.414l49.702-59.99c8.653-9.719 6.765-26.739-12.917-26.739h-66.612v23.5h50.428l-46.847 56.11-.015-.005c-11.767 13.902-1.888 29.525 11.419 29.525h66.192l-.036-22.452zM421.319.667v137.705h26.823L448.244.667z"/><path d="M440.946 79.417l44.16 59.006 31.895-.051-44.17-59.011 37.548-50.709-30.5.033-32.081 43.286"/></g></svg>