<svg xmlns="http://www.w3.org/2000/svg" width="2500" height="2500" viewBox="0 0 192.756 192.756"><g fill-rule="evenodd" clip-rule="evenodd"><path fill="#fff" d="M0 0h192.756v192.756H0V0z"/><path fill="#d9782d" d="M8.504 118.729h36.064V82.664H8.504v36.065z"/><path d="M49.521 118.729V82.664h11.174l1.397 9.651c.381 3.302.635 7.111.889 11.303h.254c.126-4.699.508-8.382.889-11.303l1.27-9.651h11.174v36.065h-7.366v-12.445c0-6.984.254-12.953.636-18.032h-.636c-.254 3.428-.888 8.126-1.651 14.221l-2.158 16.256h-4.826l-2.031-16.256c-.508-3.301-1.017-7.999-1.777-14.221h-.509c.381 5.079.509 11.047.509 18.032v12.445h-7.238zM81.14 78.473v-5.079h17.016v5.079H81.14zM98.156 118.729V82.664H81.14v8.254h9.143v5.842H81.14v8h9.143v5.969H81.14v8h17.016zM102.346 118.729V82.664h11.303l1.27 9.651c.381 3.302.762 7.111.889 11.303h.254c.254-4.699.508-8.382.889-11.303l1.27-9.651h11.176v36.065h-7.238v-12.445c0-6.984.127-12.953.508-18.032h-.508c-.381 3.428-.891 8.126-1.65 14.221l-2.287 16.256h-4.697l-2.158-16.256c-.383-3.301-1.018-7.999-1.652-14.221h-.508c.254 5.079.508 11.047.508 18.032v12.445h-7.369zM156.314 118.729V82.664h8v36.065h-8zM166.982 107.68c2.031 2.541 4.062 3.811 6.221 3.811 2.541 0 3.811-1.016 3.811-3.176 0-1.016-.508-1.904-1.523-2.793-1.143-.889-2.414-1.777-3.684-2.666-1.904-1.398-3.301-2.795-4.062-4.191-1.016-1.523-1.396-3.429-1.396-5.714 0-3.556.762-6.223 2.412-8.127 1.65-1.777 3.936-2.793 6.984-2.793 3.174 0 5.586 1.016 7.363 2.921v8.254c-1.65-1.905-3.555-2.92-5.713-2.92-2.285 0-3.428.762-3.428 2.54 0 1.017.506 1.905 1.396 2.794 1.143.761 2.412 1.524 3.555 2.413 1.904 1.396 3.303 2.666 4.064 4.062.889 1.525 1.27 3.43 1.27 5.715 0 3.684-.762 6.604-2.541 8.635-1.65 2.033-3.936 3.049-7.109 3.049-3.049 0-5.588-1.016-7.619-3.176v-8.638h-.001zM131.172 118.729l5.842-36.065h11.809l5.842 36.065h-7.873l-1.396-7.873h-4.953l-1.396 7.873h-7.875zm11.81-31.113h-.127c-.129 2.032-.508 4.571-.889 7.619l-1.018 8.001h3.938l-1.018-8.001c-.378-3.047-.632-5.587-.886-7.619zM73.775 76.188v-.635c0-.762.127-1.27.254-1.651s.635-.635 1.27-.635c.382 0 .636.127.889.254.254.127.381.381.508.889v.635h-.889v-.762c-.126-.127-.254-.254-.508-.254s-.508.127-.635.381v3.047a.698.698 0 0 0 .635.381c.127 0 .382-.127.382-.381.126-.254.126-.508.126-1.016h-.508v-.761h1.397v2.793h-.635v-.635c-.126.254-.254.508-.38.508-.128.127-.255.254-.382.254-.508 0-.761-.127-1.015-.381-.254-.127-.381-.381-.381-.762-.128-.253-.128-.635-.128-1.269zm-63.62-2.794h.508l1.016 5.079h-.889l-.127-1.27H9.648l-.254 1.27h-.89l1.144-5.079h.507zm0 3.047h.382l-.254-1.396c0-.127 0-.254-.127-.254v-.508c-.126.127-.126.254-.126.381v.381l-.254 1.396h.379zm6.984 1.27c.254-.127.381-.254.381-.381.127-.254.127-.762.127-1.524v-1.27c-.127-.254-.254-.381-.508-.381h-.635v3.556h.635zm0-4.317h.254c.254 0 .381 0 .508.127s.254.254.38.508c.128.127.128.381.254.635v2.032c0 .381-.126.762-.126 1.016-.128.254-.381.508-.508.635h-.254c-.127.127-.254.127-.381.127h-1.524v-5.079h1.397v-.001zm7.111 3.301l.508-3.301h.889l-1.016 5.079h-1.143l-1.016-5.079h1.016l.508 3.301v.762c.127.127.127.127.127.254v-.254-.381c.127-.126.127-.254.127-.381zm7.747 1.778h-2.413v-5.079h2.413v.762h-1.524v1.27h1.397v.762h-1.397v1.524h1.524v.761zm5.46-5.079h.254c.382 0 .635.127.888.254.254.254.382.508.382 1.016 0 .254-.127.508-.127.762a.696.696 0 0 1-.634.381c.254 0 .508.127.508.381.126.127.126.254.126.508v.254c0 .381 0 .635.127.889 0 .254 0 .508.127.508v.127h-.889c-.126-.127-.126-.381-.126-.635v-.635-.508c-.127-.254-.127-.254-.255-.381h-.381-.507v2.159h-.89v-5.079h1.397v-.001zm0 2.159h.127c.127 0 .254-.127.381-.254.127 0 .127-.254.127-.508s-.127-.381-.127-.508c-.127-.127-.254-.127-.381-.127h-.635v1.397h.508zm5.334-1.397v-.762h2.793v.762h-.89v4.317h-.889v-4.317h-1.014zm7.619 4.317h-.762v-5.079h.762v5.079zm6.857-3.555h-.762c0-.254 0-.508-.127-.635 0-.127-.255-.254-.381-.254s-.254 0-.38.127c-.127.127-.127.127-.127.381 0 .127 0 .254.127.381.126.127.254.254.38.254.126.127.381.254.508.508.254.127.381.254.508.381.126.127.254.254.254.508.126.127.126.381.126.508 0 .508-.126.889-.38 1.143s-.635.381-1.017.381c-.508 0-.762-.127-1.016-.508-.254-.254-.381-.635-.381-1.016v-.381h.889v.254c0 .254 0 .508.127.635 0 .127.254.254.38.254.381 0 .508-.254.508-.635v-.381c-.127-.127-.254-.127-.254-.254-.127-.127-.38-.254-.634-.381l-.762-.762c-.127-.254-.254-.508-.254-.762 0-.889.508-1.396 1.396-1.396.381 0 .763.127 1.017.381.128.253.255.634.255 1.269zm5.206 3.555h-.889v-5.079h.889v5.079zm6.222-4.063v-1.016h.889v5.079h-.889l-.634-1.778c-.254-.635-.381-1.27-.635-2.032v.508c.126.508.126.762.126.889V78.473h-.888v-5.079h.888l.636 1.905c.254.508.507 1.143.635 1.905v-1.397c0-.127-.128-.381-.128-.508v-.889z" fill="#303188"/><path d="M181.205 73.394l.381 1.397c.125.127.125.254.125.381.129.127.129.254.129.381 0-.254 0-.381.127-.381 0-.127 0-.254.127-.635l.381-1.143h1.016l-1.27 2.92v2.159h-.764v-2.159l-1.27-2.92h1.018zm-76.191 0l1.016 5.079h-.891l-.252-1.27h-1.018l-.127 1.27h-.889l1.016-5.079h1.145zm-.254 3.047l-.254-1.396-.127-1.016-.127 1.016-.254 1.396h.762zm13.713-.127v-.762c0-.762.129-1.27.254-1.651.254-.381.637-.635 1.271-.635.381 0 .635.127.889.254s.379.508.508.889v.635h-.762c0-.381-.127-.635-.127-.762-.127-.127-.254-.254-.508-.254s-.51.127-.51.381c-.125.254-.125.381-.125.762v1.523c0 .381 0 .508.125.762 0 .254.256.381.51.381.127 0 .381-.127.508-.381 0-.254.127-.508.127-1.016h-.635v-.635h1.396v2.667h-.635v-.635c-.127.254-.254.508-.381.635-.127 0-.254.127-.381.127-.51 0-.764-.127-1.018-.381-.254-.127-.379-.381-.379-.762-.127-.252-.127-.634-.127-1.142zm18.16 2.159h-2.287v-5.079h2.287v.762h-1.523v1.27h1.396v.762h-1.396v1.524h1.523v.761zm14.728-4.063v-1.016h.891v5.079h-.891l-.633-1.778c-.256-.635-.383-1.27-.637-2.032v.508c.127.508.127.762.127.889V78.473h-.76v-5.079h.76l.764 1.905c.127.508.379 1.143.508 1.905v-1.397-.508c-.129-.508-.129-.762-.129-.889zm15.621 2.285h.889l-.127.254c0 .508 0 .889-.254 1.143-.127.381-.508.508-.889.508-.508 0-.764-.127-1.018-.381-.252-.127-.381-.381-.381-.762-.125-.254-.125-.635-.125-1.143v-.762c0-.762.125-1.27.254-1.651.125-.381.635-.635 1.27-.635.381 0 .633.127.889.381.127.254.254.508.254.889v.508h-.762c0-.508-.127-.635-.127-.635 0-.254-.127-.381-.254-.381-.254 0-.508.127-.508.381-.127.254-.127.381-.127.762v2.285a.698.698 0 0 0 .635.381c.127 0 .254-.127.381-.508v-.634z" fill="#d9782d"/><path d="M31.743 96.378c-.634-2.159-1.016-3.809-.762-3.809.127-.127.38.381.762 1.016a41.75 41.75 0 0 1 1.905 4.445c.254.381.381.889.507 1.27.508 1.523 1.017 2.92 1.144 3.684v.889h-.127c-.126.127-.508-.508-1.017-1.652-.507-.889-1.015-2.285-1.649-3.809-.255-.764-.509-1.398-.763-2.034zm3.556 2.159c1.142 3.047 2.412 5.334 2.667 5.08.381 0-.509-3.049-1.778-6.73-.381-.762-.635-1.524-.888-2.286-.381-.889-.763-1.651-1.144-2.413-.507-.889-.888-1.523-1.015-1.523-.381.127.127 2.159 1.015 4.826.254.635.508 1.27.636 1.905.253.379.379.76.507 1.141zm0-8.508c.126 1.27.888 3.811 1.904 6.604 1.524 3.809 3.048 6.984 3.429 6.857.509-.254-.508-3.557-1.904-7.365-1.524-4.064-3.048-7.112-3.428-6.985-.129.127-.129.381-.001.889zm-2.668 15.619l-.889-2.158-4.19-10.287-10.286 10.033-5.46.508 2.032 5.078 4.063-3.174H32.631z" fill="#fff"/></g></svg>