<svg xmlns="http://www.w3.org/2000/svg" width="2500" height="2500" viewBox="0 0 192.756 192.756"><g fill-rule="evenodd" clip-rule="evenodd"><path fill="#fff" d="M0 0h192.756v192.756H0V0z"/><path d="M8.504 137.717l72.19-.086 1.289-2.578H9.793l-1.289 2.664zM13.575 126.889l72.275-.086 1.289-2.579h-72.19l-1.374 2.665zM79.319 77.043L67.631 88.73V77.043H38.153l-21.743 44.43h72.104l21.659-44.43H79.319zm-.43 41.768H62.131l7.82-16.158-10.571 10.57-5.586 5.588H45.63v-16.244l-8.078 16.244H20.793l19.079-39.104h17.961v22.517L80.35 79.707h17.533l-18.994 39.104zM154.002 77.043l13.666-28.103H126.93l-28.19 57.838h20.541l-1.375 2.749H97.367l-5.845 11.945h20.542l-1.293 2.751H90.233l-6.531 13.493h39.707l14.607-14.523 46.236-46.15h-30.25zm-45.723 16.243l20.283-41.595H155.546l-13.664 28.017h25.869l-29.736 38.586-11.258 14.696 19.336-39.704h-37.814zM10.996 132.302l72.276-.086 1.29-2.579h-72.19l-1.376 2.665z"/></g></svg>