<svg height="1125" viewBox="297.37 573.87 1805.25 1252.25" width="2500" xmlns="http://www.w3.org/2000/svg"><path d="m734.31 847.29h63.6v273.42h-63.6zm215.86 0h63.6v273.42h-63.6zm215.86-273.42h63.6v820.27h-63.6zm220.21 273.42h63.6v410.28h-63.6zm215.86 0h63.6v273.42h-63.6zm5.07 811.85c8.05-4.45 17.15-6.67 27.31-6.67h40.72s23.02-24.11 23.07-24.14h-65.42v.02c-14.81.05-28.21 3.32-40.18 9.83-12.07 6.56-21.56 15.63-28.48 27.2-6.92 11.58-10.37 24.63-10.37 39.17s3.42 27.6 10.27 39.17c6.84 11.58 16.3 20.64 28.37 27.21 12.03 6.54 25.49 9.81 40.39 9.84v.01h65.23l-23.07-24.14h-40.57c-10.14-.01-19.23-2.23-27.27-6.67-8.04-4.45-14.33-10.62-18.84-18.53-4.52-7.9-6.77-16.86-6.77-26.89 0-10.02 2.25-18.98 6.77-26.89 4.51-7.9 10.79-14.08 18.84-18.52zm-797.15 116.76c-10.66-3.25-19.09-7.55-25.3-12.92l9.53-21.38c6.07 4.8 13.51 8.72 22.34 11.75 8.82 3.04 17.68 4.55 26.57 4.55 11.01 0 19.23-1.76 24.67-5.29 5.43-3.53 8.15-8.19 8.15-13.97 0-4.23-1.52-7.73-4.55-10.48-3.04-2.75-6.88-4.9-11.54-6.46-4.66-1.55-11.01-3.31-19.05-5.29-11.29-2.68-20.43-5.36-27.42-8.05-6.99-2.68-12.99-6.88-18-12.6s-7.52-13.44-7.52-23.18c0-8.18 2.22-15.63 6.67-22.33s11.15-12.03 20.11-15.99c8.96-3.95 19.93-5.93 32.92-5.93 9.03 0 17.92 1.13 26.68 3.39 8.75 2.26 16.3 5.51 22.65 9.74l-8.68 21.38c-6.49-3.81-13.27-6.7-20.32-8.68-7.06-1.97-13.9-2.96-20.54-2.96-10.87 0-18.95 1.84-24.24 5.51s-7.94 8.54-7.94 14.61c0 4.23 1.52 7.7 4.55 10.37 3.03 2.68 6.88 4.8 11.54 6.35 4.66 1.56 11.01 3.32 19.05 5.29 11.01 2.54 20.04 5.19 27.1 7.94s13.09 6.95 18.1 12.6 7.52 13.27 7.52 22.87c0 8.19-2.22 15.6-6.67 22.23-4.45 6.64-11.19 11.93-20.22 15.88s-20.04 5.93-33.03 5.93c-11.42-.01-22.47-1.64-33.13-4.88zm-137.99-145.45v82.51c0 14.41-3.46 25.31-10.38 32.7s-16.84 11.09-29.75 11.09-22.83-3.69-29.75-11.09c-6.93-7.39-10.38-18.29-10.38-32.7v-82.51h-26.95v85.6c0 .77.06 1.49.08 2.25h-.08v107.82l26.95-9.12v-45.36c11.01 6.16 25.25 9.24 40.14 9.24 19.83 0 38.55-5.47 49.96-16.42s17.12-27.08 17.12-48.41v-85.6zm-150.6 16.3c-11.41-10.95-30.12-16.42-49.96-16.42-19.83 0-38.55 5.47-49.96 16.42-1.26 1.21-2.42 2.51-3.55 3.84a47.751 47.751 0 0 0 -3.55-3.84c-11.41-10.95-30.12-16.42-49.96-16.42-14.88 0-29.13 3.08-40.14 9.24l-26.94-9.12v63.86h.03c0 .29-.03.56-.03.85v85.6h26.94v-82.51c0-14.41 3.46-25.31 10.38-32.7s16.84-11.09 29.75-11.09 22.83 3.69 29.75 11.09c6.39 6.82 9.7 16.78 10.19 29.59v85.62h26.94v-42.29h.2v-43.31-.02c.49-12.81 3.79-22.77 10.19-29.59 6.92-7.39 16.84-11.09 29.75-11.09s22.83 3.69 29.75 11.09c6.92 7.39 10.38 18.29 10.38 32.7v82.51h26.95v-85.6c.02-21.32-5.69-37.46-17.11-48.41zm888.19 46.21h57.31v23.2h-57.31z"/><path d="m1492.36 1628.33h-75.07c-7.47 0-14.6.81-21.36 2.46s-13.16 4.12-19.19 7.39c-4.59 2.49-8.83 5.37-12.66 8.6-6.26 5.24-11.53 11.43-15.81 18.58-6.92 11.59-10.38 24.64-10.38 39.19 0 14.52 3.43 27.57 10.28 39.16 4.3 7.26 9.59 13.53 15.94 18.79 3.77 3.15 7.92 5.98 12.42 8.41 12.08 6.55 25.58 9.83 40.55 9.83l.21-3.46v3.46h74.83l-23.04-24.11h-50.56c-10.14-.03-19.24-2.23-27.26-6.68-3.3-1.83-6.32-3.93-9.04-6.4-3.88-3.41-7.16-7.47-9.8-12.14-4.53-7.89-6.79-16.85-6.79-26.87 0-10.04 2.25-18.98 6.79-26.89 2.62-4.61 5.87-8.62 9.7-12.03 2.75-2.49 5.79-4.64 9.15-6.5 8.05-4.46 17.14-6.66 27.31-6.66h50.72zm341.15 37.05c-6.91-11.57-16.41-20.64-28.48-27.2s-25.58-9.85-40.54-9.85v.01l-1.27-.01-1.27.01v-.01c-14.96 0-28.48 3.28-40.54 9.85-12.07 6.56-21.56 15.63-28.48 27.2-6.92 11.58-10.37 24.63-10.37 39.17s3.42 27.6 10.27 39.17c6.84 11.58 16.3 20.64 28.37 27.21 12.07 6.56 25.58 9.84 40.54 9.84h2.96c14.96 0 28.48-3.28 40.54-9.84 12.07-6.56 21.53-15.63 28.37-27.21 6.85-11.57 10.27-24.63 10.27-39.17.01-14.54-3.45-27.59-10.37-39.17zm-24.13 66.06c-4.52 7.91-10.8 14.08-18.84 18.53-8.03 4.44-17.17 6.66-27.31 6.67-10.14-.01-19.28-2.23-27.31-6.67-8.04-4.45-14.33-10.62-18.84-18.53-4.52-7.9-6.77-16.86-6.77-26.89 0-10.02 2.25-18.98 6.77-26.89 4.52-7.9 10.8-14.08 18.84-18.52 8.04-4.45 17.15-6.67 27.31-6.67s19.27 2.22 27.31 6.67 14.33 10.62 18.84 18.52c4.52 7.91 6.77 16.87 6.77 26.89s-2.26 18.98-6.77 26.89zm-763.6-76.43c-5.08-7.9-12.39-13.97-21.91-18.21-9.53-4.23-20.72-6.35-33.56-6.35h-60.97v148.2h27.52v-124.91h32.18c12 0 21.1 2.54 27.31 7.62s9.32 12.35 9.32 21.81-3.11 16.73-9.32 21.81-15.32 7.62-27.31 7.62h-16.3v23.29h17.57c12.84 0 24.03-2.12 33.56-6.35s16.83-10.34 21.91-18.31 7.62-17.32 7.62-28.05c0-10.88-2.54-20.27-7.62-28.17zm1049.22 0c-5.08-7.9-12.39-13.97-21.91-18.21-9.53-4.23-20.72-6.35-33.56-6.35h-60.97v148.2h27.52v-124.91h32.18c12 0 21.1 2.54 27.31 7.62s9.32 12.35 9.32 21.81-3.11 16.73-9.32 21.81-15.32 7.62-27.31 7.62h-16.3v23.29h17.57c12.84 0 24.03-2.12 33.56-6.35s16.83-10.34 21.91-18.31 7.62-17.32 7.62-28.05c0-10.88-2.54-20.27-7.62-28.17zm-153.51 0c-5.08-7.9-12.39-13.97-21.91-18.21-9.53-4.23-20.72-6.35-33.56-6.35h-55.71l22.26 23.29h32.18c12 0 21.1 2.54 27.31 7.62s9.32 12.35 9.32 21.81-3.11 16.73-9.32 21.81-15.32 7.62-27.31 7.62h-20.79v23.29h22.06c12.84 0 24.03-2.12 33.56-6.35s16.83-10.34 21.91-18.31 7.62-17.32 7.62-28.05c0-10.88-2.54-20.27-7.62-28.17zm-801.24-24.56h-27.1l-66.69 148.2h28.37l14.61-34.3 9.31-21.59 27.74-64.79 23.52 54.62h-29.65l-9.96 23.21h49.62l18.34 42.85h28.79z"/><path d="m1924.27 1723.45 24.84 55.2h-28.37l-14.61-34.3-9.31-21.59zm-661.9-64.31c8.05-4.45 17.15-6.67 27.31-6.67h40.72s23.02-24.11 23.07-24.14h-65.42v.02c-14.81.05-28.21 3.32-40.18 9.83-12.07 6.56-21.56 15.63-28.48 27.2-6.92 11.58-10.37 24.63-10.37 39.17s3.42 27.6 10.27 39.17c6.84 11.58 16.3 20.64 28.37 27.21 12.03 6.54 25.49 9.81 40.39 9.84v.01h65.23l-23.07-24.14h-40.57c-10.14-.01-19.23-2.23-27.27-6.67-8.04-4.45-14.33-10.62-18.84-18.53-4.52-7.9-6.77-16.86-6.77-26.89 0-10.02 2.25-18.98 6.77-26.89 4.51-7.9 10.79-14.08 18.84-18.52z"/></svg>