<svg xmlns="http://www.w3.org/2000/svg" width="2500" height="2500" viewBox="0 0 192.756 192.756"><g fill-rule="evenodd" clip-rule="evenodd"><path fill="#fff" d="M0 0h192.756v192.756H0V0z"/><path d="M63.045 113.471l.061-.123c7.222-1.584 9.292-7.289 9.292-11.047 0-4.32-2.009-9.01-11.321-9.01H49.708l3.39-16.039H43.074L39.611 93.22H24.057l3.463-15.968H17.496l-8.992 42.542h10.025l3.828-18.289H37.91l-3.828 18.289h.034l-3.388 16.027H51.02c12.996 0 19.063-5.727 19.063-13.547 0-5.637-3.519-7.952-7.038-8.803zm-10.202 14.064H42.514l2.005-9.436h9.174c3.463 0 5.771.787 5.771 4.416.001 3.932-4.009 5.02-6.621 5.02zm2.583-17.721h-9.21l1.742-8.24h8.987c2.734 0 4.496 1.395 4.496 3.574 0 3.819-4.01 4.666-6.015 4.666z" fill="#33348e"/><path d="M63.47 85.863c-.079.342-.763 3.342-3.631 3.342-.605 0-1.815-.158-1.815-1.131 0-1.71 1.763-2.158 2.842-2.342 2.157-.395 2.526-.553 2.815-.71l-.211.841zm-3.829-3.528c.446-1.974 2.102-2.132 2.89-2.132 1.287 0 1.682.658 1.682 1.264 0 2.052-1.445 1.868-3.625 2.157-2.379.292-6.712.792-6.712 4.896 0 3.042 2.757 3.356 4.175 3.356.921 0 2.868-.131 4.604-1.807l.083-.007.08 1.318h4.194v-.345c-.184-.026-.447-.158-.447-.868 0-.421.158-1.237.237-1.553l1.323-6.096c.105-.5.236-.974.236-1.474 0-1.628-.919-3.514-5.357-3.514-1.629 0-6.31.026-7.546 4.804h4.183v.001zM68.915 88.664c.21.026.395.052.605.052 1.579 0 2.552-.841 3.5-4.996l1.316-5.696h11.419l-2.868 13.36h-3.999l2.289-10.688h-3.604l-.658 2.998c-1.553 7.107-3.763 7.898-6.762 7.898a10.91 10.91 0 0 1-1.842-.158l.604-2.77zM93.629 89.205c-2.531 0-2.769-1.974-2.769-2.974 0-2.474.95-6.027 3.982-6.027 2.742 0 2.769 2.316 2.769 3.054 0 3.157-1.371 5.947-3.982 5.947zm-.421 2.672c5.585 0 8.552-4.146 8.552-8.356 0-5.255-3.99-5.989-6.522-5.989-6.53 0-8.526 5.173-8.526 8.383 0 2.448.893 5.962 6.496 5.962zM106.725 91.384h-4l2.867-13.36h10.236l-.605 2.672h-6.209l-2.289 10.688zM122.387 89.205c-2.531 0-2.768-1.974-2.768-2.974 0-2.474.949-6.027 3.98-6.027 2.742 0 2.77 2.316 2.77 3.054 0 3.157-1.371 5.947-3.982 5.947zm-.422 2.672c5.586 0 8.553-4.146 8.553-8.356 0-5.255-3.99-5.989-6.521-5.989-6.531 0-8.525 5.173-8.525 8.383-.001 2.448.891 5.962 6.493 5.962zM137.777 80.696h2.156c1.027 0 1.842.184 1.842.974 0 1.395-1.314 1.631-2.498 1.631h-2.053l.553-2.605zm-3.422-2.672l-2.869 13.36h7.92c1.631 0 5.779-.183 5.779-4.071 0-2.059-1.574-2.745-2.598-2.851l.025-.079c1.5-.316 3.207-1.398 3.207-3.582 0-2.83-2.967-2.777-3.729-2.777h-7.735zm2.342 7.732h2.395c1.051 0 2.051.185 2.051 1.373 0 .713-.473 1.584-2.604 1.584h-2.475l.633-2.957zM152.025 85.443h1.711c1.5 0 2.131.531 2.131 1.515s-.711 1.754-2.762 1.754h-1.764l.684-3.269zm-2.394-7.419l-2.867 13.36h7.42c4.861 0 5.832-3.257 5.832-5.038 0-3.498-3.098-3.576-4.938-3.576h-2.473l1.025-4.747h-3.999v.001zm13.701 0l-2.869 13.36h4l2.867-13.36h-3.998zM179.516 78.024h4.736l-2.867 13.36h-4l1.869-8.679-6.789 8.679h-4.736l2.869-13.36h3.998l-1.867 8.678 6.787-8.678zm-3.448-5.063c-.184.63-.078 1.758 2.08 1.758 1.053 0 2.236-.473 2.473-1.758h2.92c-.814 3.254-4.473 3.621-5.787 3.621-4.369 0-4.816-2.336-4.631-3.621h2.945zM79.355 102.002c.788-2.865 2.574-3.234 3.598-3.234.394 0 2.601-.078 2.601 2.078 0 .395-.079 1.025-.105 1.156h-6.094zm5.017 4.08c-.368 1.002-1.602 1.688-2.889 1.688-1.208 0-2.679-.449-2.679-2.611 0-.369.026-.711.105-1.08h10.19c.236-.762.499-1.787.499-2.496 0-2.287-.945-5.486-6.381-5.486-6.566 0-8.456 5.486-8.456 8.535 0 2.215.814 5.811 6.381 5.811 4.675 0 6.513-2.463 7.275-4.359h-4.045v-.002zM104.857 104.9c-.367 1.447-1.838 5.541-7.246 5.541-4.438 0-6.328-2.541-6.328-5.699 0-3.422 1.917-8.646 8.193-8.646 4.936 0 6.01 2.488 6.01 4.436 0 .264 0 .553-.025.816h-3.832c.025-.158.025-.289.025-.447 0-1.975-1.312-2.133-2.178-2.133-2.942 0-4.044 3.449-4.044 5.922 0 2.947 1.785 3.08 2.599 3.08 1.129 0 2.311-.553 2.889-2.869h3.937v-.001zM107.34 99.26l.578-2.672h12.84l-.578 2.672h-4.42l-2.289 10.687h-4l2.289-10.687h-4.42zM123.811 109.947h-4l2.869-13.359h3.998l-1.078 5.027h4.814l1.08-5.027h3.998l-2.867 13.359h-4l1.211-5.658h-4.815l-1.21 5.658zM147.648 96.588h4.737l-2.869 13.359h-3.998l1.867-8.677-6.787 8.677h-4.737l2.868-13.359h4l-1.87 8.68 6.789-8.68zM163.594 96.588h4.576l-6.656 6.549 4.105 6.81h-4.5l-3.103-5.916h-.08l-1.184 5.916h-4l2.869-13.359h3.998l-1.262 5.471h.053l5.184-5.471z" fill="#33348e"/><path fill="#cc2229" d="M25.303 67.371H27l-1.622 7.7h-1.347l1.302-6.153-5.105 6.153h-1.696l1.62-7.7H21.5l-1.287 6.142 5.09-6.142zM28.724 72.707c-.03.106-.03.228-.03.334 0 .79.606 1.397 1.742 1.397 1.273 0 2.318-.668 2.318-1.777 0-1.093-1.182-1.124-1.47-1.124h-1.128l.197-.932h.985c.59 0 1.802-.106 1.802-1.339 0-1.263-1.242-1.263-1.409-1.263-.848 0-1.969.426-2.136 1.491h-1.273c.273-1.232 1.288-2.423 3.439-2.423 1.439 0 2.802.451 2.802 1.814 0 1.065-.515 1.749-1.492 2.173v.045c.621.076 1.105.667 1.105 1.409 0 .818-.424 2.855-3.454 2.855-1.091 0-3.296-.135-3.296-2.159 0-.167 0-.333.03-.5l1.268-.001zM42.148 68.303l-1.227 5.836h-3.924c1.197-1.444 1.803-3.39 2.091-4.757l.227-1.079h2.833zm-7.635 5.836l-.484 2.931h1.105l.424-2h6.605l-.424 2h1.106l.757-2.931H42.27l1.424-6.769h-5.529l-.273 1.281c-.363 1.718-.772 3.45-2.394 5.487h-.985v.001zM49.997 71.787c-.106.394-.591 2.651-2.927 2.651-.258 0-1.274-.015-1.274-1.167 0-1.272 1.274-1.561 2.093-1.667 1.547-.182 1.88-.121 2.259-.394l-.151.577zm-3.246-2.144c.151-.941.955-1.639 2.335-1.639.424 0 1.456.076 1.456 1.153 0 1.245-.501 1.26-1.38 1.351-1.911.167-4.755.288-4.755 2.929 0 1.122.619 1.933 2.602 1.933 1.031 0 1.865-.286 2.714-1.22l.001.169c0 .228.091.803 1.089.803.061 0 .242 0 .574-.045l.211-.939c-.061 0-.105-.015-.166-.015-.287-.016-.664.015-.453-.896l.815-3.568c.061-.273.136-.516.136-.774 0-.684-.453-1.813-2.843-1.813-2.303 0-3.318 1.069-3.605 2.572l1.269-.001zM52.979 68.303l.212-.932h6.621l-.213.932h-2.636l-1.423 6.768h-1.349l1.424-6.768h-2.636zM61.399 70.588c.228-.973.955-2.584 2.955-2.584.348 0 1.697.061 1.697 1.824 0 .197-.031.456-.122.76h-4.53zm4.061 2.254c-.257 1.049-1.318 1.596-2.394 1.596-1.955 0-1.955-1.763-1.955-2.417 0-.167.03-.334.061-.502h6.011a5.67 5.67 0 0 0 .257-1.691c0-.973-.257-2.756-2.889-2.756-3.561 0-4.864 2.756-4.864 5.253 0 1.292.546 3.044 3.651 3.044.455 0 2.697-.12 3.482-2.527h-1.36zM67.567 74.092c.091.015.197.03.288.03 1.515 0 1.97-1.915 2.378-3.86l.606-2.892h5.423l-1.621 7.7h-1.348l1.424-6.768h-2.802l-.409 1.96c-.515 2.461-1.045 4.859-3.53 4.859-.212 0-.409-.015-.621-.045l.212-.984zM78.958 71.344h1.621c1.105 0 1.772.182 1.772 1.185 0 .744-.439 1.61-2.136 1.61h-1.848l.591-2.795zm-.515-3.973l-1.621 7.7h3.818c1.697 0 3.101-1.023 3.101-2.633 0-1.98-1.858-2.025-2.768-2.025h-1.818l.636-3.042h-1.348zM91.99 72.329c-.332 1.396-1.436 3.041-3.803 3.041-3.139 0-3.199-2.646-3.199-3.117 0-2.656 1.576-5.181 4.489-5.181 2.226 0 2.965 1.099 2.965 2.313v.395h-1.266c0-1.715-1.138-1.775-1.684-1.775-2.322 0-3.081 2.853-3.081 4.325 0 2.079 1.578 2.109 1.927 2.109 1.685 0 2.246-1.593 2.383-2.109h1.269v-.001zM99.076 67.371h1.697l-4.227 3.685 2.893 4.015H97.85l-2.636-3.848-.803 3.848h-1.348l1.621-7.7h1.348l-.742 3.473 3.786-3.473zM107.211 67.371h1.697l-1.621 7.7h-1.348l1.303-6.153-5.105 6.153h-1.698l1.622-7.7h1.349l-1.289 6.142 5.09-6.142zM116.248 67.371h1.697l-1.621 7.7h-1.348l1.303-6.153-5.107 6.153h-1.695l1.621-7.7h1.348l-1.287 6.143 5.089-6.143zm-2.711-2.901c-.076.424.029 1.197 1.227 1.197.895 0 1.348-.303 1.727-1.197h1.137c-.637 1.531-1.666 2.002-2.834 2.002-2.045 0-2.424-1.215-2.379-2.002h1.122zM128.738 68.303l-1.227 5.836h-3.924c1.195-1.444 1.803-3.39 2.09-4.757l.227-1.079h2.834zm-7.634 5.836l-.486 2.931h1.107l.424-2h6.605l-.426 2h1.107l.756-2.931h-1.332l1.424-6.769h-5.529l-.273 1.281c-.363 1.718-.771 3.45-2.393 5.487h-.984v.001zM132.916 71.342c.547-3.156 2.41-3.338 2.971-3.338.305 0 1.896 0 1.896 2.292 0 1.487-.773 4.143-3.078 4.143-1.092 0-1.881-.667-1.881-2.231 0-.289.047-.578.092-.866zm-1.408-.334a6.285 6.285 0 0 0-.107 1.199c0 .683.123 3.163 3.213 3.163 3.441 0 4.594-3.041 4.594-5.059 0-2.17-1.213-3.239-3.213-3.239-3.321 0-4.229 2.677-4.487 3.936zM142.689 68.888h-.029l-.06.409-1.213 5.774h-1.348l1.621-7.7h1.863l1.288 6.263 3.787-6.263h2l-1.621 7.7h-1.348l1.226-5.774.137-.409h-.047l-3.756 6.183h-1.212l-1.288-6.183z"/></g></svg>