<svg xmlns="http://www.w3.org/2000/svg" width="2500" height="2500" viewBox="0 0 192.756 192.756"><g fill-rule="evenodd" clip-rule="evenodd"><path fill="#fff" d="M0 0h192.756v192.756H0V0z"/><path d="M162.801 70.639c-.854-.843-1.801-2.123-2.264-2.542-.463-.419-.695-.747-1-.834l-.305-.09s1.531-.414 2.012-1.174c.479-.763.895-1.298.949-1.669.057-.371.076-.644.076-.644s-1.057.177-1.648.131c-.592-.044-.809.057-1.562-.291l-.754-.348s1.047-1.142 1.061-2.396-.072-1.472-.158-1.761c-.088-.291-.094-.366-.094-.366s-.787.482-1.594.596c-.803.112-1.842.016-3.23-1.242-1.389-1.258-4.434-3.249-5.48-3.492-1.043-.243-1.787-.354-2.227-.332-.441.02-.686.055-.686.055s.189.336.504.765c.316.428.416.58.496 1.083l.078.5s-2.344-1.57-3.832-1.866c-1.49-.294-4.746-.578-6.84.336-2.094.914-2.951 1.472-3.957 1.966-1.01.491-1.732.748-2.031.688-.299-.059-.447-.051-.447-.051s.461.346.926.839c.469.492.859.989.859.989s-1.998-.195-3.301.31c-1.303.507-1.447.588-2.166.919-.723.33-.486.211-.486.211-.953-1.428-2.395-2.983-4.572-4.679-4.18-3.248-5.756-4.085-11.885-4.826-6.441-.083-11.527-.867-17.366-2.509 0 0 .698 1.929 1.184 2.903.489.975 1.602 2.391 1.602 2.391-6.376-1.797-13.293-.672-18.989 1.461-5.486 1.561-10.568 4.592-15.229 7.225 0 0 2.254.761 3.577.761s2.943-.292 2.943-.292c-6.841 5.377-14.321 8.259-25.135 10.529h-.79s1.562 1.417 2.506 1.858c1.394.65 2.228.701 2.228.701-6.133 2.833-11.446 5.222-17.167 8.59-3.742 2.627-7.796 4.838-12.058 6.777 0 0 2.25.465 2.901.465.65 0 2.285-.111 2.285-.111l-2.888 1.915c-3.704 2.53-7.088 5.053-10.341 7.916 2.127-.193 4.281-.355 6.458-.487 4.359-.392 8.852-.585 13.443-.554 2.404.015 4.77.104 7.104.242a79.79 79.79 0 0 1 6.379-4.937c19.682-13.765 46.021-20.53 58.829-15.114 1.381.584 2.547 1.288 3.506 2.092-13.69-3.013-37.436 3.354-55.991 15.486a88.404 88.404 0 0 0-4.61 3.221l6.327.576.424-.116c7.397.896 14.14 2.237 19.991 3.953 11.457-4.876 22.508-6.854 29.872-4.672 1.438.427 2.674.997 3.717 1.688-6.346-.666-14.549.838-23.212 4.001a16.392 16.392 0 0 0-2.389 1.79c9.388 3.952 15.819 13.873 16.134 19.812.037.684-.138 2.438-.245 3.118 3.305-.634 7.893-1.704 12.071-4.024 4.365-2.229 5.352-3.656 8.357-6.777.57-.407.859-.978 1.498-1.389 0 0-.094 1.666-.406 2.779-.326 1.163-1.092 2.51-1.092 2.51 12.41-2.49 15.49-13.342 15.91-19.812 0 0 3.225-.146 4.49 2.101.971 1.722.994 2.212.939 3.099-.055.889-.076 1.102-.076 1.102s1.355-.083 2.152-.909c.68-.706 1.01-1.425 1.01-1.425s.533.858.512 2.433c0 0 .205 1.17-.24 2.075-.447.908-.396 1.002-.396 1.002s2.438-.462 3.918-2.353c.812-1.041.826-1.173 1.256-2.423.258-.748.35-.9.35-.9s.396.76.488 1.3l.092.539s.91-1.519 1.773-1.956c.863-.436 3.174-1.433 4.012-2.358.84-.927 1.182-1.452 1.285-1.833l.107-.385s1.842.997 4.232.134c2.389-.866 4.584-3.237 4.666-4.568.082-1.33-.076-1.544-.344-2.488-.268-.945-.75-1.732-.58-2.773a95.66 95.66 0 0 0 .59-4.526c.096-1.036-.744-3.134-1.078-3.929-.334-.793-.42-.615-.414-.939l.006-.322s.947.275 1.607.171c.66-.106 1.084-.591 1.084-.591s-.082-.048-.471-.472c-.391-.424-.553-.71-.646-1.075-.09-.364-.01-.694-.01-.694s.943.132 1.604.099c.662-.032.881-.101 1.205-.235.326-.134.396-.212.396-.212s-1.146-.615-1.613-1.215c-.467-.599-1.172-1.451-1.336-1.812-.166-.36-.271-.692-.271-.692s.535.091 1.189-.088c.654-.181 1.086-.422 1.445-.589.361-.164.574-.322.574-.322s-.748-.257-1.678-1.17c-.93-.914-1.42-1.349-1.656-1.918-.236-.57-.166-.749-.166-.749s1.84.01 2.77-.551 1.156-.693 1.35-1.025c.193-.331.34-.605.34-.605s-1.396.14-2.247-.704zM166.904 93.235s-1.93-2.167-1.883-3.037c.041-.873 1.203-2.361 1.912-3.128.709-.769 2.725-1.686 3.416-1.5.689.188 3.199.755 3.621 1.372.424.617 1.193 1.065 1.357 1.677.162.609.148 1.306.148 1.306l-1.787-1.946s-.854-.71-2.332-.65c-1.479.058-2.617.644-3.15 1.243-.531.597-.898 1.631-1.084 2.237-.184.604-.218 2.426-.218 2.426zM174.59 86.172c.615-.335 1.846-.922 2.621-.646.777.274 1.119.456 1.375.721.256.267.928 1.581.74 2.186-.186.604-.812 1.634-.812 1.634s-.066-1.129-.408-1.483c-.338-.354-.32-1.308-1.27-1.587-.953-.277-1.639-.638-2.162-.56l-.523.076.439-.341zM180.264 89.405s2.494 1.348 2.828 2.05c.332.701 1.18 1.933 1.16 2.888-.018.956.043 2.431-.49 3.029-.531.6-1.406.843-2.014.832s-.861-.277-.861-.277.875-.33 1.402-.756c.529-.423 1.076-1.802.328-3.641-.746-1.838-1.506-2.982-1.506-2.982l-.847-1.143zM170.525 99.208s.311 2.004.812 2.971c.504.963 3.424 2.755 4.91 2.175 1.488-.58 2.996-2.201 3.094-2.895.102-.693.48-2.423.314-2.86-.164-.438-.414-1.049-.414-1.049s.133 2.085-.572 2.768c-.709.682-1.338 1.798-2.988 1.854-1.65.058-2.686-.311-3.285-.843-.595-.533-1.871-2.121-1.871-2.121zM163.645 95.693c.965-.503 3.238-1.328 3.238-1.328l1.58-.926.879-.505.607.012-1.145.847s-1.242 1.365-1.768 1.53c-.523.163-1.828.399-1.828.399l-1.563-.029zM163.674 98.733s1.914-.14 3.564-.194c1.652-.055 3.566-.278 4.262-.354.695-.073 2.098-.655 2.098-.655l1.568-.406-1.912.227-2.09.307s-2.17-.127-3.475.021c-1.305.15-2.787.383-2.787.383l-1.228.671z"/><path d="M171.422 88.543c-1.133.153-1.916.227-2.098.743-.184.518-.543 1.12-.463 1.382.084.26.164.522.68.881.516.356.861.45.861.45s-.33-.962-.322-1.397c.01-.433.191-.952.459-1.293.266-.343.883-.766.883-.766zM176.939 90.645s.684.708.322 1.396a1.983 1.983 0 0 1-1.322 1.016c-.348.082-.607-.01-1.383-.285-.777-.274-.949-.451-.949-.451s.867.104 1.479-.058c.609-.164.875-.333 1.139-.587.267-.257.714-1.031.714-1.031zM179.178 91.729c.777.189 1.639.552 1.717 1.075.076.522.422.617.062 1.303-.361.689-1.152 1.282-1.152 1.282l.113-1.474s.283-1.212-.059-1.479c-.343-.267-.681-.707-.681-.707zM177.176 96.555c.074.695.078.523-.107 1.213-.188.692-.197 1.213-.812 1.635-.617.425-.877.419-1.486.407-.605-.011-1.549-.638-1.549-.638s1.039.193 2.002-.309c.965-.503 1.146-1.021 1.328-1.365.178-.343.624-.943.624-.943z"/><path d="M154.584 63.873c-.107-.022-.289.016-.34.098l.115.175c.961.795 2.191 1.209 3.404 1.253-.471.603-1.211 1.086-1.9 1.49-.074.082-.215.102-.211.208 1.973.845 2.004 3.098 3.631 4.071-.734.56-1.699.74-2.695.842-.129.559.523 1 .631 1.574.338.484.633 1.101 1.072 1.475-.85.409-1.641-.185-2.438-.354-.221.878.684 1.623 1.166 2.337.719.7 1.281 1.435 2.047 2.031-.783.143-1.779.192-2.484-.248-.104.058-.293-.181-.365-.047.18 1.512 1.391 2.735 2.26 3.797-.555-.026-1.184.2-1.824-.209-.188-.071-.102 0-.461-.13-.137 1.534-.361 3.285.492 4.583.635 1.628 1.508 3.347 1.201 5.152-.115.874-.523 1.657-.371 2.623.092 1.864 1.445 3.14 1.332 5.145-.9 2.019-3.166 3.025-5.301 2.972-1.1-.421-2.311-.439-3.248-1.314-.646-.863-1.58-1.605-2.023-2.61-.004-1.158-.377-2.325-1.516-3.005-1.797-.7-3.373.456-4.5 1.643-.133.453-.32.937.066 1.339 1.07.894 2.414-.17 3.561.141 1.006.688.596 2.496 2.039 2.952.816.513 2.326.728 2.178 2.023-.678 1.194-1.867 2.12-3.398 2.01-1.428-.64-2.414-1.96-3.111-3.321-.08-.021-.131.061-.18.116.586 2.259-.012 4.579-1.518 6.047-.094-.864-.631-1.574-1.135-2.233-.936-.77-1.633-1.579-2.664-2.264-.914-.876-1.484-2.348-1.047-3.606.541-2.366 1.977-4.228 3.9-5.77l-.008-.157c-.889.121-1.854.299-2.678.656.529-1.024 1.076-2.184 1.928-3.041l-.08-.075c-1.518.231-2.842 1.113-4.102 1.676.051-.004.076-.032.102-.06l-.004-.052-.234.012c.312-2.172 1.426-4.15 3.334-5.506.213.043.309-.12.459-.26-.258-.46-.75-.277-1.17-.283-1.348-.645-2.846-1.149-3.242-2.788-.82-2.223.752-4.537-.326-6.641-.246-.173-.344-.563-.482-.689 2.014-.808 4.305-.237 6.16.593.113.151.271.17.432.215l.123-.164c-.037-.761-.113-1.783.271-2.512.801.224 1.846.592 2.809.387 2.576-.572 4.141-3.018 4.604-5.384.025-.554.238-1.038.104-1.636-1.508-.688-2.342-2.201-2.273-3.941-.209-1.042.84-1.646 1.5-2.178 2.379-.854 5.631.565 7.605-1.56.094.89-.459 1.891-1.197 2.402z" fill="#9d601f"/><path d="M156.406 101.073c-.391.098-.645.217-1.016.209-.051-.524.52-.711.631-1.137.139-.375.123-.664-.023-.998-.57-.868-1.885-.329-2.576-1.006-.594-.288-.842-1.037-.82-1.697.137-.954.832-1.803 1.795-2.061.494-.076.994-.049 1.178.442.113.704-.596 1.267-.299 1.909.305.354.697.86 1.305.884.133.019.17.255.381.245.273.222.65.413.803.827.182 1.045-.62 1.873-1.359 2.383z"/><path d="M156.344 93.866c-1.557.446-2.58-1.663-4.125-.955-1.713.507-1.779 2.352-2.109 3.735-.398-.086-.031-.657-.381-.822-.137-1.179-.09-2.364.652-3.322.803-.829 2.086-1.471 3.346-1.006 1.047.422 1.533 1.74 2.678 2.026.134.073.093.311-.061.344z"/><path d="M138.727 68.645s-.426 1.809-.229 3.069c.199 1.258.422 2.038.512 2.247.094.209.154.236.186.389l.033.149s-.088.181-.117.332c-.027.15-.055.242-.055.242s-2.057-.905-3.18-3.922c-1.125-3.021-.496-5.463.381-7.068.881-1.604 3.424-4.523 7.02-5.235 3.596-.711 5.012-.281 5.826-.171.812.108 2.441.478 2.982.558.543.083.664.111.844.109.18-.002.27-.034.27-.034s.035.33-.082.572-.441.727-1.488.952c-1.049.225-3.658.682-4.254.931-.598.25-3.346 1.399-3.562 3.055-.219 1.655.125 2.552.795 3.234s1.25 1.215 1.521 1.36c.271.147.455.294.455.294s.271.798.084 1.742c-.168.842-.4 1.327-1.057 1.818-.654.488-.535.429-.744.521l-.209.094s-1.084-.226-1.91-1.386c-.828-1.161-.984-1.58-1.045-1.669l-.062-.09s-.135 1.206.207 1.92c.342.718.527 1.257.619 1.436l.096.179s-.783.009-1.791-1.147c-1.008-1.159-1.596-2.413-1.758-3.191-.16-.778-.225-1.079-.225-1.079l-.063-.211z" fill="#fff"/><path d="M145.586 76.854s.762-1.009 1.822-1.04c1.057-.027 2.131.211 2.631.75.5.541 1.182 2.042 1.32 2.51.137.466.447.857.666 1.183.221.329.334.37.334.37s-.176.097-.379.085c-.203-.014-.316-.006-.316-.006s.252 1.002.496 1.374c.244.371.516.855 1.107.961.594.105.908.114.908.114l.16.035s-.207.416-.809.535c-.604.122-1.373.046-1.605-.079-.232-.124-.65-.374-.65-.374l-.748.826s-3.127-.228-3.932-1.925c-.805-1.699-.316-3.211.021-3.725.334-.513.787-.94 1.006-1.088.217-.145.303-.238.303-.238s.045-.478-.41-.544c-.453-.068-.898.021-1.168.08-.267.06-.757.196-.757.196z"/><path d="M151.209 82.348a2.63 2.63 0 0 1-4.279-1.917 2.634 2.634 0 0 1 2.375-2.746l.146.22s-.797.784-.943 1.039c-.145.256-.477 1.288-.135 1.834l.102.243s.473-.497.582-.569c.109-.073.262-.216.371-.267.109-.049.152-.098.152-.098l.184.035s-.318.897-.443 1.129c-.123.23-.27.462-.27.462s.469.34 1.164.283c.697-.057.65-.099.785-.107.135-.006.156-.03.156-.03l.053.489z" fill="#fff"/><path d="M29.384 134.403l.047-.065.027-.031c.052-.091.126-.201.276-.444.219-.378.447-.531.745-.542h.466l.149.011.522-.011h.406a.202.202 0 0 0-.153.153c-.026.1-.016.244.033.455l.83 3.924c.055.223.102.557.124.945.004.124.011.245.015.379a7.49 7.49 0 0 1 .267-1.646l.54-2.092.022-.121.075-.322c.083-.392-.032-.535-.439-.557-.031 0-.047 0-.069.011l.252-.432c.366-.62.507-.687 1.12-.687l.193.01h.489l.211-.01c-.292.32-.45.607-.686 1.407-.045.146-.083.288-.124.444l-1.07 4.139c-.22.857-.148 1.046.222 1.046.027 0 .057 0 .087-.012l-.087.154-.028.034-.222.392-.037.065c-.181.299-.371.408-.712.418h-.648l-.559.012h-.254a.536.536 0 0 0 .111-.207c.039-.155.002-.378-.12-.891l-.787-3.436c-.129-.591-.164-.824-.151-1.28a3.428 3.428 0 0 1-.038.333 8.222 8.222 0 0 1-.177.979l-.588 2.279c-.228.88-.149 1.124.292 1.158h.123l-.087.122-.033.055-.209.336-.067.11c-.038.078-.092.133-.143.188a.788.788 0 0 1-.582.24h-.589l-.222.012h-.067l-.177-.012c.213-.272.37-.584.48-.975l.061-.231.088-.301 1.191-4.616c.018-.068.037-.135.041-.19.12-.534.045-.69-.287-.712-.033.003-.061.003-.093.012zM37.488 135.936c.653 0 .382 1.302.148 2.237-.242.945-.676 2.291-1.265 2.303-.633 0-.439-1.303-.201-2.26.249-.956.705-2.28 1.318-2.28zm-3.127 2.925c-.207 1.791.414 2.678 1.689 2.678 1.295-.011 2.353-.887 3.084-2.688.085-.224.158-.436.213-.647.057-.22.094-.432.118-.633.207-1.824-.399-2.701-1.691-2.701-1.288.014-2.354.888-3.077 2.691a5.56 5.56 0 0 0-.212.643c-.057.212-.09.424-.124.657zM39.936 136.059c.018-.033.037-.064.053-.1.531-.919.549-.954.986-.996h.501c.433-.024.563-.056.757-.146a37.563 37.563 0 0 0-.539 1.685l.091.012c.038-.111.086-.223.13-.322.465-.995.926-1.385 1.493-1.385l.195.011.063.01c.111.012.173.024.239.024s.117-.013.186-.024l-.039.111-.1.246c-.337.83-.648 1.151-.977 1.218h-.009l-.184.011c-.588.011-1.008.467-1.36 1.832l-.295 1.133c-.189.733-.102.944.305.944.039 0 .075 0 .106-.012a1.68 1.68 0 0 1-.087.189c-.39.743-.605.919-1.034.931l-.55.01h-.785l-.167-.01h-.181c.032-.045.071-.09.105-.146.367-.51.524-.865.713-1.585l.714-2.765c.182-.699.133-.842-.256-.877l-.074.001zM43.758 136.274l.064-.1.036-.067.023-.056.139-.275.057-.113.09-.166c.195-.345.418-.523.696-.534.113 0 .222.021.309.091-.063-.123-.073-.202-.006-.458.03-.11.079-.267.145-.489.102-.321.213-.455.499-.577l.022-.011.355-.101c.101-.023.229-.078.422-.169.145-.076.287-.152.425-.253-.146.422-.193.6-.228.733l-.275 1.066-.016.056c-.006.021-.023.056-.164.232.168-.1.274-.11.539-.11.037 0 .072.011.11.011.351 0 .568-.077.803-.288l-.051.09-.047.065-.004.021-.167.346c-.039.077-.07.134-.106.201-.217.398-.382.554-.563.599a1.15 1.15 0 0 1-.354.055c-.198 0-.291-.076-.346-.199.028.189.02.256-.092.689l-.751 2.902-.049.222c-.098.491-.008.688.276.688.031-.011.06-.011.084-.031l.062-.023.077-.044.047-.033.085-.033a.26.26 0 0 1 .121-.032c.085 0 .146.055.214.197.017.044.026.079.042.124l.037.121.017.079c-.06.044-.114.076-.173.121-.674.444-.961.577-1.269.63-.148.021-.286.042-.407.042-.822 0-1.044-.637-.718-1.905l.763-2.946c.121-.467.127-.489.238-.668a.53.53 0 0 1-.161.078l-.031.012h-.276a1.232 1.232 0 0 0-.543.21z" fill="#085840"/><path d="M48.012 133.7l.014-.021.141-.29c.342-.7.527-.796 1.38-.819h1.097c-.197.285-.362.619-.542 1.131-.034.1-.063.21-.09.311l-.224.869c-.021.078-.053.167-.093.29l-.045.132-.042.09.044.012c.209-.289.505-.479.975-.59.124-.034.249-.045.364-.045.422 0 .77.189.949.545.213.379.233.814.018 1.647l-.636 2.46-.072.278-.034.167c-.062.277.011.4.267.434l.12.01h.039a.97.97 0 0 1-.087.154c-.549.954-.537.944-1.399.966h-.348l-.422-.012h-.417l.081-.13.087-.156c.248-.442.342-.688.501-1.311l.732-2.827c.151-.591.157-.837.083-.991-.053-.122-.165-.177-.289-.177a.594.594 0 0 0-.416.2c-.167.166-.303.398-.439.812l-.12.499-.567 2.192-.085.368c-.069.299-.005.39.321.423h.047c-.01.043-.042.088-.062.133-.459.845-.596.964-1.02.964h-.282l-.371.012h-.563l-.157-.012h-.18c.076-.108.151-.217.222-.341.228-.412.317-.645.516-1.412l1.355-5.243c.012-.045.021-.076.019-.11.105-.513.036-.612-.313-.612h-.057zM56.715 139.359l.942-3.646c.189-.736.258-.926.384-1.16.145-.268.367-.435.582-.435.094 0 .179.032.261.088.351.235.542 1.138.068 2.968a17.054 17.054 0 0 1-.51 1.604c-.38 1.037-.751 1.528-1.117 1.752a.74.74 0 0 1-.338.101.418.418 0 0 1-.435-.425c.001-.145.031-.336.163-.847zm-.966-4.882c.387.011.438.211.208 1.102l-1.199 4.639-.12.423c-.111.392-.23.604-.417.812l.183-.011.143-.01c.151 0 .32.01.521.031l.416.031.275.035c.23.021.454.032.662.032 1.995 0 3.302-1.085 4.095-3.383.124-.369.235-.725.315-1.037.71-2.755-.119-3.918-2.612-3.918-.113 0-.228 0-.342.011l-.239.01-.386.032c-.085 0-.165.011-.254.032-.602.098-.764.209-1.052.667l-.147.246-.055.1-.047.077-.043.09c.029-.011.066-.011.095-.011zM62.388 139.12c.03-.077.047-.145.075-.212.267-.737.586-1.062.944-1.062.047 0 .102.014.156.023.328.077.442.411.167 1.474-.128.459-.319.749-.549.915a.657.657 0 0 1-.409.155c-.226 0-.397-.144-.454-.4-.035-.155-.028-.368.017-.648.02-.076.035-.166.053-.245zm1.718-1.744c-.11-.375-.395-.594-.866-.594-.132 0-.28.023-.439.056-.892.198-1.677.999-2.008 2.282-.048.179-.077.369-.107.56-.117.814.09 1.407.534 1.695.09.056.192.098.289.132.115.032.24.054.364.054.51 0 1.036-.284 1.458-.809.053-.068.102-.147.149-.214l.032.024-.08.189-.017.065-.103.29-.045.136-.053.132-.061.164c.226-.099.366-.099.812-.099h.132c.601-.01.863-.152 1.071-.588.136-.27.185-.349.217-.403l.042-.056.062-.09h-.047c-.396 0-.462-.079-.366-.479l.126-.56.601-2.329c.372-1.433.02-2.126-1.797-2.126-.114 0-.23.01-.346.021-.88.113-1.085.214-1.262.571l-.057.102-.083.145c-.104.18-.179.288-.292.395l.165-.053.186-.054c.292-.077.558-.122.782-.143.134-.011.258-.011.372-.011.879 0 1.026.305.865 1.034l-.089.417-.015.098a3.416 3.416 0 0 0-.075.473 1.062 1.062 0 0 0-.051-.427zM67.053 133.686l.03-.077.032-.055c.023-.057.06-.123.094-.18.384-.645.529-.768.853-.777h.633l.582-.012h.417a5.332 5.332 0 0 0-.676 1.479l-.585 2.257a5.44 5.44 0 0 1-.235.69c-.044.099-.079.199-.13.287l.042.013c.105-.225.224-.39.433-.611l.813-.912c.596-.657.862-.812 1.359-.834h.019l.346.012c.283 0 .395-.024.59-.122l-.198.433c-.246.512-.363.633-.559.668l-.098.011h-.065l-.126.01h-.074a.531.531 0 0 0-.211.045c-.084.032-.186.101-.334.232-.024.024-.051.057-.086.079a.652.652 0 0 1-.102.067c.025.01.049.033.062.055l.008.146.167 2.834c.006.045.004.09.015.122.062.566.107.644.398.723l.124.034.053.011-.096.189-.232.421-.024.058c-.184.341-.33.438-.699.438h-.483l-.148-.01h-.804c.073-.099.138-.207.196-.318.06-.123.103-.211.128-.312.038-.155.036-.321.019-.733l-.086-1.868v-.146l-.006-.045-.004-.053-.002-.068a2.91 2.91 0 0 1-.519.578l.002.1-.049.189-.301 1.168c-.07.267.006.376.246.4l.12.011h.01a.29.29 0 0 1-.059.11c-.449.866-.59 1.008-.998 1.008l-.367-.012h-.339l-.486.012h-.104l-.279-.012c.255-.373.442-.774.627-1.328l.076-.301 1.453-5.614c.087-.346.033-.456-.29-.49h-.093z" fill="#085840"/><path d="M74.033 135.936c.651 0 .382 1.302.149 2.237-.245.945-.678 2.291-1.267 2.303-.631 0-.438-1.303-.198-2.26.247-.956.702-2.28 1.316-2.28zm-3.127 2.925c-.209 1.791.412 2.678 1.688 2.678 1.297-.011 2.354-.887 3.084-2.688.088-.224.16-.436.215-.647.059-.22.092-.432.116-.633.208-1.824-.396-2.701-1.691-2.701-1.286.014-2.353.888-3.073 2.691a5.778 5.778 0 0 0-.216.643 5.846 5.846 0 0 0-.123.657zM76.3 136.274l.063-.1.036-.067.025-.056.136-.275.059-.113.09-.166c.193-.345.419-.523.696-.534.114 0 .22.021.308.091-.063-.123-.072-.202-.007-.458.031-.11.079-.267.146-.489.103-.321.213-.455.5-.577l.022-.011.356-.101c.1-.023.226-.078.421-.169.143-.076.285-.152.424-.253-.147.422-.192.6-.228.733l-.275 1.066-.016.056c-.004.021-.022.056-.163.232.168-.1.274-.11.539-.11.039 0 .073.011.11.011.35 0 .568-.077.803-.288l-.052.09-.047.065-.004.021-.164.346-.109.201c-.218.398-.38.554-.561.599a1.157 1.157 0 0 1-.356.055c-.198 0-.29-.076-.345-.199.027.189.019.256-.091.689l-.751 2.902-.049.222c-.099.491-.007.688.277.688.03-.011.058-.011.083-.031l.062-.023.079-.044.045-.033.085-.033a.262.262 0 0 1 .122-.032c.084 0 .147.055.212.197.018.044.028.079.043.124l.036.121.017.079c-.06.044-.115.076-.172.121-.675.444-.962.577-1.27.63-.146.021-.285.042-.407.042-.821 0-1.043-.637-.716-1.905l.763-2.946c.12-.467.126-.489.236-.668a.493.493 0 0 1-.159.078l-.032.012h-.275a1.237 1.237 0 0 0-.545.21zM80.955 139.12c.03-.077.049-.145.075-.212.267-.737.586-1.062.945-1.062.047 0 .102.014.156.023.328.077.441.411.166 1.474-.127.459-.315.749-.547.915a.66.66 0 0 1-.41.155c-.226 0-.397-.144-.452-.4-.037-.155-.028-.368.015-.648.019-.076.033-.166.052-.245zm1.719-1.744c-.114-.375-.395-.594-.869-.594-.132 0-.279.023-.44.056-.891.198-1.673.999-2.007 2.282-.047.179-.076.369-.106.56-.118.814.09 1.407.536 1.695.089.056.192.098.286.132.115.032.241.054.365.054.509 0 1.036-.284 1.456-.809.056-.068.103-.147.15-.214l.031.024-.076.19-.02.065-.102.29-.045.136-.053.132-.06.164c.225-.099.367-.099.811-.099h.135c.599-.01.863-.152 1.071-.588a4.13 4.13 0 0 1 .217-.403l.042-.056.06-.09h-.047c-.396 0-.46-.079-.366-.479l.125-.56.601-2.329c.371-1.433.019-2.126-1.798-2.126-.113 0-.231.01-.346.021-.879.113-1.086.214-1.263.571l-.055.102-.083.145c-.104.18-.18.288-.292.395l.166-.053.185-.054c.293-.077.558-.122.782-.143.135-.011.259-.011.372-.011.878 0 1.028.305.865 1.034l-.087.417-.017.098c-.03.122-.056.285-.075.473a1.015 1.015 0 0 0-.049-.428zM86.486 140.452c.029-.046.059-.091.081-.133.68-.99.752-1.047 1.72-1.335a.896.896 0 0 1 .171-.045.876.876 0 0 0-.274.233 1.148 1.148 0 0 0-.212.412c-.093.367.018.734.353.9.066.033.145.056.215.077.073.013.145.023.222.023.548 0 1.007-.423 1.167-1.046.029-.289-.043-.457-.513-1.045l-.156-.201-.254-.334-.155-.199-.211-.279c-.06-.09-.122-.177-.182-.276-.224-.336-.313-.502-.388-.724-.115-.355-.108-.744-.008-1.136.205-.788.804-1.572 1.597-1.915a3.193 3.193 0 0 1 1.256-.252c.113 0 .242.012.363.022.403.042.802.185 1.184.429.089.054.16.108.236.174l.079.067.085.065c-.041.087-.089.164-.143.265-.468.779-.676.934-1.453 1.124a.993.993 0 0 1-.177.021c.044-.021.095-.076.174-.166a.839.839 0 0 0 .218-.366c.057-.222-.023-.456-.293-.612a.808.808 0 0 0-.407-.11c-.548 0-.914.321-1.026.744-.069.312-.029.38.442 1.035.048.065.109.134.158.199l.299.379.2.244c.467.533.542.646.639.89.24.533.297 1.046.158 1.58a3.323 3.323 0 0 1-.196.544c-.541 1.203-1.43 1.873-2.727 1.873-.112 0-.226 0-.336-.012-.829-.065-1.507-.465-1.906-1.114zM92.328 136.274l.065-.1.036-.067.023-.056.139-.275.058-.113.089-.166c.193-.345.419-.523.696-.534.114 0 .222.021.308.091-.062-.123-.071-.202-.005-.458.027-.11.079-.267.146-.489.102-.321.213-.455.499-.577l.022-.011.356-.101c.1-.023.228-.078.42-.169.143-.076.287-.152.427-.253-.147.422-.194.6-.229.733l-.275 1.066-.015.056c-.007.021-.023.056-.164.232.166-.1.273-.11.54-.11.036 0 .072.011.108.011.35 0 .57-.077.802-.288l-.05.09-.045.065-.007.021-.164.346c-.039.077-.072.134-.108.201-.216.398-.38.554-.562.599a1.154 1.154 0 0 1-.354.055c-.197 0-.291-.076-.346-.199.026.189.02.256-.094.689l-.719 2.78-.032.122-.047.222c-.098.491-.008.688.276.688.031-.011.059-.011.082-.031l.064-.023.078-.044.046-.033.082-.033a.282.282 0 0 1 .125-.032c.083 0 .146.055.211.197l.045.124.034.121.017.079c-.057.044-.112.076-.173.121-.672.444-.961.577-1.267.63-.147.021-.286.042-.409.042-.822 0-1.043-.637-.716-1.905l.763-2.946c.121-.467.127-.489.238-.668a.555.555 0 0 1-.162.078l-.029.012h-.276a1.328 1.328 0 0 0-.547.21zM96.902 139.12c.03-.077.047-.145.074-.212.266-.737.586-1.062.946-1.062.045 0 .102.014.156.023.328.077.439.411.164 1.474-.127.459-.314.749-.547.915a.658.658 0 0 1-.41.155c-.225 0-.396-.144-.452-.4-.036-.155-.029-.368.015-.648.022-.076.035-.166.054-.245zm1.719-1.744c-.113-.375-.395-.594-.869-.594-.131 0-.279.023-.439.056-.892.198-1.675.999-2.006 2.282a5.439 5.439 0 0 0-.107.56c-.118.814.09 1.407.534 1.695.089.056.192.098.287.132.116.032.242.054.365.054.511 0 1.039-.284 1.457-.809.057-.068.104-.147.15-.214l.031.024-.076.189-.018.065-.105.29-.043.136-.053.132-.061.164c.223-.099.365-.099.811-.099h.135c.6-.01.863-.152 1.07-.588.135-.27.184-.349.215-.403l.045-.056.061-.09h-.049c-.395 0-.461-.079-.365-.479l.125-.56.602-2.329c.371-1.433.02-2.126-1.799-2.126-.111 0-.23.01-.344.021-.879.113-1.088.214-1.264.571l-.056.102-.083.145c-.104.18-.179.288-.291.395l.165-.053.184-.054c.294-.077.56-.122.783-.143.135-.011.26-.011.371-.011.879 0 1.027.305.867 1.034l-.088.417-.016.098a3.123 3.123 0 0 0-.076.473 1.08 1.08 0 0 0-.05-.427zM100.828 136.274l.064-.1.037-.067.021-.056.139-.275.057-.113.092-.166c.191-.345.418-.523.695-.534.113 0 .219.021.307.091-.061-.123-.07-.202-.004-.458.027-.11.078-.267.145-.489.104-.321.211-.455.5-.577l.021-.011.355-.101c.1-.023.229-.078.42-.169.145-.076.287-.152.426-.253-.146.422-.193.6-.227.733l-.277 1.066-.014.056c-.006.021-.025.056-.164.232.168-.1.273-.11.539-.11.037 0 .072.011.109.011.35 0 .57-.077.803-.288l-.051.09-.045.065-.006.021-.166.346c-.037.077-.072.134-.107.201-.217.398-.381.554-.561.599a1.172 1.172 0 0 1-.355.055c-.197 0-.291-.076-.346-.199.025.189.02.256-.092.689l-.721 2.78-.031.122-.047.222c-.1.491-.01.688.275.688.029-.011.059-.011.082-.031l.064-.023.076-.044.047-.033.084-.033a.28.28 0 0 1 .121-.032c.086 0 .148.055.213.197.018.044.029.079.045.124l.035.121.016.079c-.057.044-.111.076-.172.121-.672.444-.961.577-1.27.63-.146.021-.283.042-.406.042-.822 0-1.043-.637-.715-1.905l.762-2.946c.121-.467.125-.489.238-.668a.555.555 0 0 1-.162.078l-.031.012h-.273c-.088.01-.188.034-.328.089-.07.032-.149.076-.217.121z" fill="#085840"/><path d="M106.109 137.755l-.646.312a.98.98 0 0 1 .031-.232c.021-.11.035-.211.068-.333.182-.699.549-1.287.883-1.555a.748.748 0 0 1 .453-.177c.227 0 .406.146.449.422a.906.906 0 0 1-.02.364c-.102.4-.501.844-1.218 1.199zm2.84-1.84l-.045-.045a.714.714 0 0 1-.168-.19l-.291-.41-.029-.034c-.297-.32-.689-.474-1.162-.474-.248 0-.502.034-.789.122-1.092.331-2.219 1.597-2.666 3.314-.549 2.133.129 3.362 1.621 3.362a3.92 3.92 0 0 0 1.207-.212 4.44 4.44 0 0 0 1.256-.618l-.01-.035-.004-.056c-.014-.054-.037-.109-.055-.154-.088-.198-.209-.288-.369-.288a.618.618 0 0 0-.23.045l-.07.021-.174.056-.105.034-.162.045c-.131.03-.26.055-.373.055-.52 0-.859-.366-.945-1.132a.61.61 0 0 1-.012-.133l2.066-1.056c.576-.289.779-.489.996-.888.037-.076.068-.156.1-.246.262-.72.326-.853.488-1.043l-.075-.04zM112.086 134.38l.02-.031.312-.513c.299-.462.34-.505.705-.505h.352l.232.01h.236l.541-.01h.598c-.438.627-.713 1.25-1.299 3.118-.139.422-.213.711-.285.99-.564 2.257-.25 3.057.469 3.057.738 0 1.4-.733 2.107-3.057.051-.166.094-.335.141-.512l.234-.979c.287-1.223.195-1.488-.439-1.555h-.086l.189-.335c.314-.556.463-.685.746-.718l.039-.01h1.287c-.242.395-.35.695-.607 1.686-.041.166-.082.354-.125.522l-.107.455-.227.912c-.066.254-.133.51-.215.788-.801 2.657-1.973 3.93-3.422 3.93-.244 0-.498-.043-.754-.108-1.178-.311-1.637-1.577-.971-4.145.037-.144.076-.288.125-.443l.393-1.223.027-.11.15-.513c.107-.411.066-.546-.211-.646l-.111-.043-.044-.012zM117.883 136.091c.023-.055.043-.1.066-.145.418-.815.582-.971.953-.98h.338l.158.01h.133c.189 0 .377-.032.564-.1l-.107.234-.104.256-.094.212-.086.223.088.024c.033-.046.064-.101.096-.146.365-.535.904-.87 1.504-.87.086 0 .168.01.258.021.836.124 1.082.805.713 2.234l-.662 2.564-.016.057-.049.267c-.053.275.014.354.346.375h.076l-.205.354c-.404.717-.492.737-1.35.737h-.066l-.566.012h-.133l-.346-.012c.047-.076.092-.14.133-.217.268-.465.422-.841.557-1.361l.713-2.756c.225-.871.127-1.215-.26-1.215-.318.033-.584.33-.83 1.139-.023.101-.049.188-.072.288l-.594 2.291-.057.219-.031.122c-.043.231.037.367.289.398a.296.296 0 0 0 .094.011l-.176.354c-.305.598-.459.718-.885.728h-1.361l-.168-.01c.281-.395.488-.86.682-1.613l.832-3.218c.086-.333.029-.444-.309-.487h-.066zM123.205 136.055l.057-.077.033-.056c.059-.078.113-.179.277-.489.164-.336.391-.491.73-.491h1.572c-.258.38-.438.735-.635 1.393a5.894 5.894 0 0 0-.105.367l-.594 2.295-.164.712c-.105.445-.043.568.305.613h.094l-.051.089-.025.034a4.677 4.677 0 0 0-.277.513c-.201.386-.416.474-1.158.474h-.195l-.252-.012h-.707c.254-.362.396-.662.656-1.555.043-.121.074-.245.102-.355l.611-2.361.125-.479c.096-.412.006-.579-.307-.613-.027-.002-.065-.002-.092-.002zm.869-1.791l.109-.169.082-.132c.1-.167.188-.322.275-.491l.141-.256.051-.088c.191-.332.484-.522.836-.533h.479l.209-.013.211-.01.186-.011-.107.189-.104.188-.125.222-.107.201-.121.244-.049.078c-.24.411-.555.58-1.137.58-.148-.013-.307-.013-.486-.013l-.152.013h-.191v.001zM125.805 136.042l.072-.1.041-.043c.105-.156.207-.322.309-.502a.896.896 0 0 1 .697-.439h1.332c-.109.131-.18.252-.225.43a1.486 1.486 0 0 0-.033.532l.143 2.255c.021.356 0 .768-.08 1.178-.008.111-.041.235-.061.355a6.602 6.602 0 0 1 .513-1.222l.834-1.444c.035-.065.07-.12.096-.189.061-.121.096-.223.119-.309.084-.323-.053-.457-.475-.502h-.133l.08-.087.043-.056c.059-.079.131-.18.322-.478.229-.344.428-.464.76-.464h.463l.213.012h.719l-.127.163c-.178.245-.262.388-.543.854l-2.471 4.2-.221.379-.053.087c-.301.511-.625.743-1.113.841-.26.057-.311.067-.463.154.037-.077.072-.141.09-.207.037-.146.029-.333-.01-.845l-.256-3.343-.037-.4-.018-.156c-.027-.397-.162-.575-.412-.631a.323.323 0 0 0-.115-.023zM132.795 137.755l-.648.312c.002-.076.012-.155.031-.232.02-.11.037-.211.068-.333.182-.699.551-1.287.883-1.555a.75.75 0 0 1 .453-.177c.229 0 .408.146.451.422a.964.964 0 0 1-.021.364c-.104.4-.502.844-1.217 1.199zm2.84-1.84l-.045-.045a.764.764 0 0 1-.17-.19l-.293-.41-.027-.034c-.295-.32-.691-.474-1.164-.474-.244 0-.5.034-.785.122-1.094.331-2.223 1.597-2.666 3.314-.553 2.133.129 3.362 1.619 3.362a3.92 3.92 0 0 0 1.207-.212c.43-.132.842-.33 1.256-.618l-.01-.035-.006-.056c-.012-.054-.035-.109-.053-.154-.092-.198-.209-.288-.371-.288a.6.6 0 0 0-.227.045l-.074.021-.174.056-.104.034-.162.045c-.133.03-.26.055-.373.055-.52 0-.859-.366-.945-1.132a.61.61 0 0 1-.012-.133l2.066-1.056c.576-.289.779-.489.996-.888a2 2 0 0 0 .1-.246c.264-.72.326-.853.486-1.043l-.069-.04zM136.094 136.059c.018-.033.037-.064.055-.1.531-.919.547-.954.984-.996h.502c.43-.024.562-.056.758-.146a35.152 35.152 0 0 0-.539 1.685l.09.012c.037-.111.086-.223.131-.322.465-.995.924-1.385 1.49-1.385l.197.011.062.01c.111.012.174.024.24.024s.117-.013.186-.024l-.039.111-.1.246c-.338.83-.648 1.151-.979 1.218h-.008l-.184.011c-.588.011-1.008.467-1.359 1.832l-.295 1.133c-.189.733-.104.944.305.944.037 0 .074 0 .105-.012a1.869 1.869 0 0 1-.086.189c-.391.743-.605.919-1.035.931l-.551.01h-.785l-.168-.01h-.18c.033-.045.072-.09.105-.146.367-.51.525-.865.711-1.585l.715-2.765c.184-.699.133-.842-.254-.877l-.074.001zM138.539 140.497l.033-.057.059-.111c.254-.434.428-.602 1.164-1.033.066-.035.133-.068.197-.101-.033.056-.066.109-.09.165a1.236 1.236 0 0 0-.07.201c-.127.48.031.857.377.946.062.022.129.022.193.022a.833.833 0 0 0 .375-.102.889.889 0 0 0 .41-.521.625.625 0 0 0-.039-.436c-.039-.064-.092-.155-.191-.29l-.033-.042-.23-.279-.072-.09-.168-.257a4.918 4.918 0 0 1-.148-.2c-.301-.445-.406-.69-.443-.99a2.162 2.162 0 0 1 .197-1.281c.336-.706.797-1.105 1.422-1.249.08-.022.178-.033.291-.033.16 0 .344.021.574.078.268.064.477.099.666.099.244 0 .467-.054.73-.156.041-.021.086-.045.127-.055-.02.079-.053.166-.086.256-.297.785-.656 1.15-1.119 1.15a1.11 1.11 0 0 1-.324-.056c-.043-.021-.076-.034-.119-.056l-.066-.034-.189-.109a.43.43 0 0 0-.109-.055c-.045-.01-.078-.023-.117-.023-.113 0-.203.056-.275.156a.473.473 0 0 0-.068.155.884.884 0 0 0-.02.177c.006.135.057.267.254.557.041.065.082.124.125.18l.248.321.09.122.365.491c.199.256.299.524.336.791.031.312.01.611-.062.893-.1.388-.285.732-.555 1.044a2.398 2.398 0 0 1-1.818.854 2.059 2.059 0 0 1-1.68-.84.728.728 0 0 1-.142-.202zM143.629 136.055l.057-.077.035-.056c.057-.078.113-.179.277-.489.162-.336.391-.491.73-.491h1.57c-.258.38-.436.735-.635 1.393-.045.133-.07.246-.104.367l-.592 2.295-.168.712c-.104.445-.041.568.305.613h.096l-.053.089-.027.034a5.948 5.948 0 0 0-.273.513c-.205.386-.416.474-1.156.474h-.201l-.25-.012h-.707c.256-.362.398-.662.658-1.555.043-.121.072-.245.102-.355l.734-2.841c.098-.412.008-.579-.303-.613l-.095-.001zm.869-1.791l.109-.169.082-.132c.102-.167.186-.322.279-.491l.141-.256.051-.088c.189-.332.482-.522.834-.533h.48l.207-.013.213-.01.182-.011-.105.189-.107.188-.123.222-.109.201-.119.244-.047.078c-.238.411-.555.58-1.139.58-.148-.013-.307-.013-.484-.013l-.154.013h-.191v.001z" fill="#085840"/><path d="M146.008 136.274l.066-.1.035-.067.023-.056.139-.275.057-.113.09-.166c.193-.345.418-.523.695-.534.113 0 .223.021.309.091-.062-.123-.072-.202-.006-.458.027-.11.08-.267.146-.489.1-.321.213-.455.498-.577l.021-.011.355-.101a2.28 2.28 0 0 0 .422-.169c.141-.076.285-.152.426-.253-.146.422-.195.6-.229.733l-.275 1.066-.016.056c-.006.021-.021.056-.162.232.166-.1.275-.11.539-.11.035 0 .072.011.107.011.352 0 .57-.077.805-.288l-.053.09-.045.065-.006.021-.166.346c-.037.077-.072.134-.107.201-.215.398-.381.554-.561.599a1.16 1.16 0 0 1-.355.055c-.197 0-.291-.076-.346-.199.029.189.021.256-.094.689l-.719 2.78-.029.122-.049.222c-.098.491-.008.688.275.688.031-.011.061-.011.084-.031l.062-.023.076-.044.049-.033.084-.033a.268.268 0 0 1 .123-.032c.084 0 .143.055.211.197.016.044.027.079.045.124l.033.121.02.079c-.061.044-.115.076-.176.121-.672.444-.959.577-1.266.63-.148.021-.287.042-.41.042-.822 0-1.041-.637-.715-1.905l.762-2.946c.121-.467.127-.489.238-.668a.533.533 0 0 1-.162.078l-.029.012h-.275a1.212 1.212 0 0 0-.544.21z" fill="#085840"/><path d="M149.67 136.033l.061-.101.029-.033c.178-.288.248-.412.301-.512a.884.884 0 0 1 .346-.354.859.859 0 0 1 .412-.087h1.191l.164-.011a1.484 1.484 0 0 0-.188.43c-.023.09-.039.189-.049.3l.008.479.014 2.024c0 .511-.033.868-.135 1.259-.029.109-.053.212-.098.333.178-.533.332-.88.748-1.604l.684-1.223c.102-.178.17-.322.203-.454.09-.347-.057-.513-.441-.525-.047 0-.104 0-.156.022l.08-.123.041-.056.188-.288.055-.1c.164-.267.457-.453.76-.453h.559c.16 0 .359 0 .615-.011h.188l.111-.011c-.078.109-.152.219-.23.329-.236.367-.279.423-.822 1.357l-2.924 4.983c-.053.091-.1.168-.148.246-.867 1.423-1.459 1.988-2.271 1.988-.236 0-.498-.056-.795-.145-.061-.021-.131-.043-.197-.078l-.102-.045-.098-.055.053-.101.092-.132.072-.102.105-.155c.174-.231.307-.299.551-.299h.01l.254.045c.072.012.145.022.211.022.406 0 .705-.244 1.168-1.012l.221-.346-.15-4.528c-.008-.045-.006-.09-.01-.145-.053-.634-.111-.7-.604-.734-.022.006-.05.006-.077.006z" fill="#085840"/><path d="M97.764 66.946c-8.155-3.566-19.124-2.291-26.305 3.063-1.607 1.147-3.319 2.51-4.627 4.118 7.158-10.112 19.934-15.573 32.817-12.986 1.301.218 2.527.651 3.832.93-2.479.603-4.67 2.446-5.717 4.875z" fill="#9d601f"/><path d="M33.25 76.398l-3.891.105-3.518 15.577 1.081.122-6.536 25.221-1.292.862-.617.412-5.3 19.658 3.92-1.961c.118-.058 2.895-1.447 5.599-2.993 2.617-1.496 10.718-5.675 10.8-5.715l.869-.451.678-3.898.93 3.501 2.009-.709c.182-.064 4.465-1.579 6.446-2.505 1.742-.812 7.41-2.754 9.258-3.37.43-.143 1.791-.483 3.23-.844 3.493-.877 8.272-2.076 11.058-3.154 1.673-.647 3.148-1.549 4.345-2.427h5.819c.283 0 .584.019.935.039 1.817.108 4.309.255 10.019-1.536 4.04-1.267 6.651-3.587 8.193-5.443 2.398 2.882 6.824 3.967 13.199 3.219 9.871-1.162 12.424-9.359 12.527-9.707l3.189-11.389h1.242l4.018-13.147H98.855l-.119.356c-.203-.052-.426-.107-.672-.168-2.046-.512-4.593-1.148-9.966-.017-3.049.643-5.231 2.527-6.627 4.196-2.601-3.739-8.526-3.855-9.218-3.855l-39.003.021z" fill="#fff"/><path d="M100.018 78.599l.254-.768h28.531l-2.814 9.21h-1.277l-3.584 12.794s-2.176 7.293-10.875 8.316c-8.699 1.024-11.129-1.791-12.025-3.327l-.896-1.536s-2.303 5.12-8.829 7.165c-6.523 2.048-8.442 1.407-10.362 1.407h-4.605l.512-2.175s-2.816 3.199-6.781 4.734c-3.965 1.534-12.666 3.454-14.201 3.966-1.534.513-7.547 2.558-9.466 3.454-1.92.896-6.269 2.432-6.269 2.432l-2.686-10.106-2.048 11.77s-8.188 4.221-10.875 5.757c-2.687 1.533-5.501 2.941-5.501 2.941l3.966-14.711 1.919-1.28 7.293-28.145-1.152-.128 2.686-11.898h11.13l1.28 8.06 1.919-8.188h26.993s5.886 0 7.806 3.326c1.919 3.328 1.28 2.304 1.28 2.304s2.302-4.989 7.163-6.013c4.863-1.024 7.036-.512 9.084 0 2.047.511 2.43.639 2.43.639z" fill="#085840"/><path d="M52.461 88.932l.57-1.658.919-.255.473-.133c.002 0 .143-.472.143-.472l1.76-5.963-1.197.012-7.31.07-.702.007-.154.684-1.363 6.088.897.171.354.068-.231 1.309-3.051 11.785a348.945 348.945 0 0 1-3.256-19.252l-.11-.774-.778.01-5.862.081-.695.01-.155.678-1.626 7.087c-.002-.002.879.185.879.185l.358.077-.333 1.745-7.062 27.283-.789 2.43-1.304.915-.255.18c.004-.003-.083.299-.083.299l-1.724 6.003-.094.325-.584 2.035 1.862-1.013a222.746 222.746 0 0 1 8.342-4.318l.38-.185 1.659-7.309-1.329.254-.062.01.205-1.11 3.489-13.452c1.199 6.078 2.536 11.901 3.987 17.346l.256.96.925-.363a253.312 253.312 0 0 1 4.481-1.708l.434-.161 7.736-29.981zM78.662 83.731c-1.365-2.306-3.887-3.413-7.708-3.391l-12.056.088-.708.004-.151.693-1.199 5.514c0-.002.906.16.906.16l.356.063-.18 1.086-5.26 20.535-.547 1.584-.027.075-1.121.523-.362.168c.004-.003-.111.382-.111.382l-1.869 6.322 1.59-.5a337.864 337.864 0 0 1 13.416-3.905c4.104-1.04 7.453-3.248 10.227-6.749 2.516-3.178 4.47-7.252 5.504-11.474 1.122-4.559.872-8.529-.7-11.178zm-16.431 23.813l-1.595.242.145-.869 5.2-20.503 1.463-.065.213-.009c2.276-.103 3.098-.055 3.784 1.576.659 1.568.582 4.025-.232 7.3-1.875 7.545-4.646 11.346-8.978 12.328zM100.027 80.95l-.834-.25c-2.383-.715-4.686-1.075-6.839-1.075-1.718 0-4.241.401-6.493 2.321-1.805 1.533-3.296 4.007-3.893 6.449-1.384 5.675 2.572 8.016 4.938 9.414l.362.211c1.372.788 2.07 1.265 1.72 2.704-.411 1.681-2.069 3.034-3.359 3.246-.834.139-1.613.017-2.409-.369l.337-2.334-1.115.102-2.991.269-.613.056c.002 0-.161.592-.161.592l-1.993 7.285 1.162-.003h.336c2.363 0 4.093-.034 6.509-.489 2.942-.558 5.334-1.52 7.111-2.866 2.302-1.738 4.132-4.445 4.779-7.06 1.192-4.832-1.888-7.037-4.362-8.808l-.448-.322c.002 0-.267-.191-.267-.191-.57-.408-1.423-1.022-1.826-1.458-.297-.387-.416-.718-.25-1.401.348-1.43 1.54-2.306 2.489-2.328.778-.016 1.48.377 1.96.735l-.238 1.958.964.033 2.876.105.697.026c.002 0 .189-.671.189-.671l1.662-5.881zM124.631 80.167l-7.643.004-.727.003-.141.711-.805 4.045.916.14.379.058-.055.441-2.422 9.413c-.969 3.77-1.783 6.07-4.932 6.217-.85.042-1.939-.206-2.225-1.039-.258-.749-.162-2.103.27-3.809 0 0 2.398-9.492 2.588-10.234l.332-.862.824-.134.541-.087.166-.525 1.348-4.334-1.205.004-9.1.021-.729.002-.953 4.926.916.134.369.055-.061.498v.006l-2.4 9.643c-.889 3.557-1.344 6.257.848 8.616 1.838 1.973 4.939 2.209 7.221 2.061 3.338-.22 5.914-1.205 8.109-3.105 2.588-2.238 3.404-4.788 4.207-7.884l2.367-9.167.301-.763.023-.058.812-.122.549-.081.166-.527 1.352-4.268c.007.001-1.206.001-1.206.001z" fill="#f0c33b"/><path d="M125.998 124.717v-1.756h-.559v-.212h1.364v.212h-.557v1.756h-.248zM127.275 124.717h-.207v-1.968h.37l.593 1.575.578-1.575h.364v1.968h-.246v-1.718h-.012l-.623 1.718h-.166l-.639-1.718h-.012v1.718z"/></g></svg>