<svg xmlns="http://www.w3.org/2000/svg" width="2500" height="2500" viewBox="0 0 192.756 192.756"><g fill-rule="evenodd" clip-rule="evenodd"><path fill="#fff" d="M0 0h192.756v192.756H0V0z"/><path d="M172.615 33.015a11.741 11.741 0 0 0-8.73 3.843c-6.584-4.108-34.832-19.021-67.189 3.941 0 0-28.675-25.227-67.472-3.737-2.133-2.591-5.408-4.252-9.082-4.252-6.428 0-11.638 5.077-11.638 11.339 0 6.263 5.21 11.34 11.638 11.34 5.44 0 10.008-3.638 11.282-8.554 8.332.735 25.137 4.388 24.688 21.914 0 0-1.194 13.13-2.387 14.92 0 0-11.937-7.162-9.549 11.339 0 0 1.791 4.775 3.581 6.565 0 0 1.79 3.581.597 6.565 0 0-1.193 7.162 5.372 7.759 0 0 0 9.549 11.339 15.518 0 0 6.565 4.178 10.743 12.533 0 0 4.178 7.162 5.968 12.533 0 0 3.581 7.161 14.324 7.758 0 0 9.549 1.791 16.114-8.952 0 0 5.969-19.098 19.1-25.066 0 0 7.162-4.178 8.355-14.92 0 0 7.758 1.79 4.773-10.743 0 0 .598-1.193 2.387-4.774 0 0 4.775-6.565 1.791-14.921 0 0-2.387-5.371-8.951-1.79 0 0-2.389-10.146-2.984-13.727 0 0-3.914-17.895 24.525-22.83 1.076 5.179 5.773 9.077 11.406 9.077 6.426 0 11.637-5.077 11.637-11.34s-5.212-11.338-11.638-11.338z"/><path d="M78.289 117.4s15.874 9.571 36.418 0l-1.4 4.202-2.803 1.4-.699-1.634-.469 1.867-2.566.935-.934-1.635v1.868l-3.736 1.167-.467-1.867-.699 2.101-3.961.095-.475-1.495-.467 1.4-3.969-.233-.467-1.867-.466 1.867-3.736-.934-.233-1.868-.701 1.401-3.035-.935-.233-1.867-.7 1.4-2.802-1.167-1.4-4.201zM89.027 139.111s6.77 11.673 14.94.233l-2.1.467-.234 1.168-.467-.701s-2.334.7-4.202.934l-.467 1.401-.234-1.401s-3.268-.232-4.202-1.167l-.467 1.167-.233-1.4s-1.401 0-2.334-.701z" fill="#fff"/><path d="M94.906 44.082S69.84 18.419 29.852 39.308c0 0 1.628 2.417 1.131 4.654 0 0 17.646-.746 25.847 12.923 0 0 .249-1.491-.249-3.479 0 0 6.958 6.462 0 29.078 0 0 11.408-13.717 38.204-12.615l.367-25.328c0-.001.025-.103-.246-.459zM61.749 72.07c6.975-28.631-23.86-30.1-23.86-30.1 20.556-5.139 36.34 7.342 36.34 7.342-4.771-1.468-9.911-1.101-9.911-1.101 13.949 2.569 30.467 18.72 30.467 18.72-19.822-2.569-33.036 5.139-33.036 5.139z" fill="#367762"/><path d="M116.811 37.565c.367-2.937 4.037-4.772 4.037-4.772-10.645 1.101-23.492 11.012-23.492 11.012l.328 23.058c8.314-10.501 25.367-19.825 25.367-19.825-1.605 1.607-2.066 5.512-2.066 5.512 11.713-14.927 32.609-10.793 32.609-10.793-28.934 4.363-22.963 30.083-22.963 30.083-10.977-6.586-31.188-4.987-32.945-4.834l.037 2.495c22.391-2.203 38.908 12.48 38.908 12.48-4.404-11.379-1.834-19.822-1.834-19.822 4.037-16.518 26.062-17.619 26.062-17.619.367-4.038 1.834-5.506 1.834-5.506-27.162-15.417-45.882-1.469-45.882-1.469z" fill="#5d4c7d"/><path d="M85.391 107s-2.616 4.97 3.4 4.709c0 0-3.792 3.4-5.885-.262 0 0-1.177-3.138 2.485-4.447zM59.141 108.643s-4.15 10.894 6.744 18.157c0 0 4.409 3.112 7.003 5.188 0 0-4.15-4.928-8.3-9.078 0-.001-4.15-4.152-5.447-14.267zM103.506 159.539c2.455-1.213 5.037-3.493 6.713-7.749-1.881 4.653-4.817 6.8-6.713 7.749zM136.566 113.747a11.077 11.077 0 0 0-.447-2.455c-.133-.086-.207-.138-.207-.138.358.873.561 1.741.654 2.593zM103.152 159.709l-.119.055.119-.055zM130.805 126.216s.285-.252.727-.714c-.442.46-.727.714-.727.714z" fill="#a28a51"/><path d="M102.826 159.411c5.158-4.052 0-10.682 0-10.682 5.895-4.789 10.314-12.523 10.314-12.523 1.473-2.21 13.627-11.05 13.627-11.05 9.945-7.366 6.631-18.048 6.631-18.048 5.893 4.052 4.42-2.21 4.42-2.21-2.211-3.683 1.842-7.366 1.842-7.366 3.682-3.683 3.682-6.262 3.682-6.262-1.104-4.42-6.26 2.21-6.26 2.21.367-1.842-.738-5.893-.738-5.893.156.126.305.277.445.437l-.061-.081c-4.5-5.827-21.314-23.598-51.406-11.023h6.381l-8.508 4.255 11.699 1.595-10.635 2.66s2.127 4.254 12.23 6.381l-1.064 12.763s-3.607 3.241-.8 5.736c0 0 1.871 2.494 5.615.623 0 0 2.182-.936 1.559-4.366 0 0 2.496.937 2.184 4.366 0 0 2.494 2.184 4.678-.312 0 0 1.559-1.872-.936-4.055 0 0 4.99 1.871 2.494 5.926 0 0-3.742 3.743-8.732.312 0 0-.936 1.561-4.99 2.184v3.431s13.099-1.247 15.906-3.742c0 0 6.238-2.808 12.164-4.366 0 0 0-1.248.625-2.495v-.312s1.871 4.679 3.117 5.614c0 0-1.871-1.248-3.43-1.248 0 0-8.422 5.614-12.477 16.219 0 0-4.053 17.777-15.281 18.401 0 0-9.045.312-14.971-15.595 0 0-3.119-11.539-10.604-14.971 0 0 4.055 3.742 6.862 10.916 0 0 3.742 9.045 5.925 13.723 0 0 5.302 12.164 15.282 8.733 0 0-1.871 2.807-6.549 2.183 0 0-1.56 6.238 3.742 9.357 0 0 2.756.363 5.924-.945a6.89 6.89 0 0 1-1.066.348l1.16-.828z" fill="#a28a51"/><path d="M145.855 86.218c1.947 2.562 1.033 6.384.152 8.753 1.086-2.738 1.846-6.392-.232-8.989 0 0-3.141-3.513-7.809 3.702 0 0-.188-.302-.553-.816.338.529.549.98.549.98 4.737-7.576 7.893-3.63 7.893-3.63zM140.125 112.817l-.01.001.01-.001zM119.889 135.26s.189-.226.537-.609a82.66 82.66 0 0 0-.943.977c.134-.124.267-.248.406-.368zM116.715 138.642c-1.709 2.032-3.117 4.636-4.18 6.991 1.02-2.202 2.401-4.703 4.18-6.991zM140.227 112.814c1.463-.067 2.467-1.368 1.182-5.937 1.263 4.534.28 5.855-1.182 5.937zM130.805 126.216c-1.012.467-2.129 1.186-3.271 2.037a28.386 28.386 0 0 1 3.271-2.037zM141.408 106.878s-.156-4.055 2.65-8.108c0 0 .377-.561.863-1.468-3.944 5.277-3.513 9.576-3.513 9.576z" fill="#a28a51"/><path d="M146.008 94.971c.881-2.369 1.795-6.192-.152-8.753 0 0-3.156-3.946-7.893 3.63 0 0-.211-.451-.549-.98a6.993 6.993 0 0 0-.625-.843 3.735 3.735 0 0 0-.445-.437s1.105 4.051.738 5.893c0 0 5.156-6.63 6.26-2.21 0 0 0 2.579-3.682 6.262 0 0-4.053 3.684-1.842 7.366 0 0 1.473 6.262-4.42 2.21 0 0 3.314 10.682-6.631 18.048 0 0-12.154 8.84-13.627 11.05 0 0-4.42 7.734-10.314 12.523 0 0 5.158 6.63 0 10.682l-1.16.826s.41-.084 1.066-.348c.094-.038.193-.08.301-.126l.119-.055c.113-.052.23-.108.354-.17 1.896-.949 4.832-3.096 6.713-7.749 0 0 .814-2.828 2.316-6.157 1.062-2.355 2.471-4.959 4.18-6.991.238-.283.482-.557.732-.815 0 0 .789-.895 2.035-2.199.289-.305.607-.634.943-.977 1.949-1.989 4.594-4.521 7.107-6.397 1.143-.852 2.26-1.57 3.271-2.037 0 0 .285-.254.727-.714 1.678-1.74 5.617-6.455 5.035-11.755a9.572 9.572 0 0 0-.654-2.593s.074.052.207.138c.621.401 2.523 1.547 3.996 1.526l.01-.001.102-.003c1.463-.082 2.445-1.403 1.182-5.937 0 0-.432-4.299 3.514-9.576.049-.064.094-.129.145-.194-.001-.001.464-.857.941-2.137zM132.594 87.854s-13.582-1.468-16.885-2.569c0 0-.367 6.24-14.684 13.215 0 0 8.811-.734 16.885-11.379l14.684.733z" fill="#bfac86"/><path d="M132.594 87.854L117.91 93.36s9.545.367 10.279-.734c0 0-4.404 6.608-9.912 7.708h5.873l7.709 8.076-11.012-6.24s-9.178-.367-15.785 1.835l1.469-2.569s-2.936-1.836-4.404-3.304c0 0 8.443-.734 15.783-11.012l14.684.734z"/><path d="M78.634 94.462s2.57 2.202 7.708 3.671v1.102s-10.645 1.468-16.151-4.405c0-.001 6.24.733 8.443-.368zM107.082 98.684s6.24-2.203 8.076-3.671c0 0 3.486.367 6.791.367 0-.001-5.873 4.771-14.867 3.304z" fill="#fff"/><path d="M81.71 97.255a1.87 1.87 0 1 1-3.74 0 1.87 1.87 0 0 1 3.74 0zM115.771 95.766a1.858 1.858 0 0 0-1.285-.517 1.87 1.87 0 1 0 1.871 1.871c0-.316-.086-.61-.225-.871-.596.387-1.277.871-1.277.871.319-.308.696-.951.916-1.354z"/><path d="M115.771 95.766c-.221.403-.598 1.045-.916 1.354 0 0 .682-.484 1.277-.871a1.843 1.843 0 0 0-.361-.483z" fill="#fff"/><path d="M83.281 51.13l-.81-5.665h22.661s4.652-.202 3.844 4.451l-.809 5.261s-.203.809-.607 1.011c0 0 .607-.405.404 1.012l-1.012 7.283s-.811 2.023-2.631 2.023l-18.208-.405-.607-3.237h1.821L85.506 51.13h-2.225z"/><path d="M84.9 47.488l.404 1.417h2.226l2.226 14.77H87.53l.405 1.417 14.77-.203s2.021 0 2.428-2.023l.605-5.867s.266-.653-1.906-1.087c0 0 2.533-.072 2.75-1.882l.807-4.655s.367-1.59-2.08-1.713L84.9 47.488z" fill="#fff"/><path d="M92.216 49.037h10.095l-.918 6.24H93.5l-1.284-6.24zM93.5 56.929h7.525l-.918 6.791h-5.322L93.5 56.929z"/><path d="M22.104 36.204c-.042 0-.082.006-.123.007.191.146.375.303.553.468A7.846 7.846 0 0 1 24.7 40.2c-.951-1.711-2.498-3-4.34-3.546a6.923 6.923 0 0 0-1.973-.293c-4.05 0-7.334 3.487-7.334 7.79 0 .81.117 1.591.333 2.326.931 3.166 3.713 5.464 7.001 5.464a6.87 6.87 0 0 0 1.01-.083 7.199 7.199 0 0 1-2.863-1.649 7 7 0 0 0 1.165.107c.042 0 .082-.006.123-.006a7.077 7.077 0 0 0 4.283 1.475c.982 0 1.917-.208 2.773-.581 2.675-1.162 4.561-3.95 4.561-7.209-.001-4.304-3.285-7.791-7.335-7.791zM174.373 36.143c-.041 0-.082.006-.123.006.191.147.377.303.553.468a7.846 7.846 0 0 1 2.166 3.521c-.951-1.712-2.498-3-4.34-3.546a7.191 7.191 0 0 0-.4-.11 6.991 6.991 0 0 0-1.572-.184c-4.051 0-7.334 3.488-7.334 7.79 0 .811.117 1.591.332 2.326.932 3.166 3.713 5.464 7.002 5.464a6.88 6.88 0 0 0 1.01-.083 7.192 7.192 0 0 1-2.863-1.649c.381.064.768.107 1.166.107.039 0 .08-.006.121-.007a7.076 7.076 0 0 0 2.711 1.291 6.908 6.908 0 0 0 1.572.184 6.92 6.92 0 0 0 2.773-.581c2.674-1.162 4.561-3.95 4.561-7.209-.001-4.301-3.284-7.788-7.335-7.788z" fill="#bfac86"/><path d="M140.244 109.486s-.373-1.12-1.307-.56c0 0-2.801 6.163 3.736 10.085 0 0 7.096 2.24 7.283-6.351 0 0-.188-5.603-5.977-6.723 0 0-.561.747-.188 1.494 0 0 4.857 1.494 4.297 6.162 0 0 0 3.362-2.615 3.549.002.002-6.348 1.402-5.229-7.656z" fill="#a18452"/></g></svg>