<svg xmlns="http://www.w3.org/2000/svg" width="2500" height="2500" viewBox="0 0 192.756 192.756"><g fill-rule="evenodd" clip-rule="evenodd"><path fill="#fff" d="M0 0h192.756v192.756H0V0z"/><path d="M109.182 107.148l1.273-2.395h12.646l-6.285-12.105 2.938-5.539h-5.781l-4.791-9.224 10.572-20.039H107.33c-.074.206-1.547 7.432-3.35 8.822-1.598 1.232-3.787 1.63-5.463 0-1.352-1.313-4.603-8.635-4.696-8.822h-13.49l13.509 20.45-4.173 8.812h-9.336l5.444 8.232-4.446 9.411h10.644l1.866 2.807-12.966 27.349H91.95l9.767-18.929 8.848 18.878h12.994l-14.377-27.708zM97.844 93.986c-.033-.098 3.785-7.103 3.785-7.103s3.443 7.039 3.381 7.103c-3.764 3.85-7.166 0-7.166 0z"/><path d="M82.764 88.419h10.291s3.084 6.174 4.528 7.503c2.242 2.064 6.115 1.846 7.789-.453 1.145-1.57 2.07-3.569 2.932-7.05h9.279s-9.812 18.481-9.859 18.729c-.021.12 13.572 26.013 13.57 26.171h-10.049c-.141-.126-9.396-20.33-9.471-20.314-.094.02-10.325 20.212-10.466 20.323h-8.232c-.007-.159 12.291-25.766 12.262-25.881-.054-.216-12.574-19.028-12.574-19.028z" fill="#fff"/><path d="M15.932 118.258V99.686l23.654 19.511V68.146H27.559v20.448L2.834 65.874v52.388l13.098-.004zM78.07 70.953c-9.521-6.088-38.636-2.416-36.328 23.363 2.052 22.915 15.446 25.169 36.328 22.476v-12.429c-5.613 2.807-22.719 4.143-22.318-4.276h14.834V88.994H55.351c-1.871-8.286 10.157-10.691 22.719-7.35V70.953zM124.973 68.547v36.751c0 6.949 7.885 12.963 17.107 12.963 9.354 0 18.174-6.949 18.174-12.562V68.547h-13.496v32.742c0 5.613-9.355 5.078-9.355 0V68.547h-12.43zM185.244 81.102V70.009c-7.352-2.406-23.254-.936-23.254 10.157 0 13.498 14.031 12.562 14.434 20.447.533 7.885-14.434 3.742-14.434 3.742l-.402 11.627c9.756 2.673 27.932.802 28.334-10.691.4-17.24-13.498-19.512-14.836-22.318-1.469-2.807 2.273-5.078 10.158-1.871z"/></g></svg>