<svg xmlns="http://www.w3.org/2000/svg" width="2500" height="2500" viewBox="0 0 192.756 192.756"><path fill-rule="evenodd" clip-rule="evenodd" fill="#fff" d="M0 0h192.756v192.756H0V0z"/><path d="M187.207 96.379c0 50.162-40.666 90.828-90.829 90.828S5.549 146.541 5.549 96.379c0-50.164 40.666-90.83 90.829-90.83s90.829 40.666 90.829 90.83z" fill-rule="evenodd" clip-rule="evenodd" fill="#3c8253"/><path d="M189.922 96.379c0 51.662-41.881 93.543-93.544 93.543-25.831 0-49.217-10.471-66.145-27.398-16.928-16.928-27.399-40.315-27.399-66.145 0-25.832 10.471-49.218 27.399-66.146C47.161 13.305 70.547 2.834 96.378 2.834s49.218 10.471 66.146 27.399c16.927 16.928 27.398 40.314 27.398 66.146zm-5.43 0c0-24.333-9.863-46.362-25.809-62.307-15.945-15.945-37.972-25.808-62.305-25.808-24.332 0-46.361 9.863-62.306 25.808S8.264 72.046 8.264 96.379c0 24.332 9.862 46.359 25.808 62.305s37.974 25.809 62.306 25.809c48.663-.001 88.114-39.452 88.114-88.114z" fill="#e6b43c"/><path d="M146.791 96.453c0 27.869-22.592 50.461-50.46 50.461-27.868 0-50.461-22.592-50.461-50.461 0-27.868 22.593-50.459 50.461-50.459s50.46 22.591 50.46 50.459z" fill-rule="evenodd" clip-rule="evenodd" fill="#fff"/><path d="M149.506 96.453c0 14.684-5.953 27.979-15.576 37.602-9.621 9.623-22.916 15.574-37.599 15.574-14.684 0-27.978-5.951-37.601-15.574s-15.575-22.918-15.575-37.602c0-14.683 5.952-27.977 15.575-37.6s22.917-15.575 37.601-15.575c14.683 0 27.978 5.952 37.599 15.575 9.623 9.623 15.576 22.917 15.576 37.6zm-5.43 0c0-13.184-5.344-25.121-13.984-33.761s-20.576-13.984-33.761-13.984c-13.185 0-25.122 5.344-33.762 13.984S48.585 83.269 48.585 96.453c0 13.186 5.345 25.123 13.984 33.762 8.64 8.641 20.577 13.984 33.762 13.984s25.121-5.344 33.761-13.984c8.64-8.639 13.984-20.576 13.984-33.762z" fill="#e6b43c"/><path d="M77.799 65.559l-.123.316v.34c0 1.061.403 1.765 1.198 2.094.279.116 1.261.42 2.193-.512.427-.426 1.598-.388 2.804.077.799.417 1.204.909 1.368 1.67.004.042.008.082.008.128 0 1-.859 3.1-1.474 4.251-3.624-.481-6.261-.029-7.987 1.418-2.031 1.702-2.031 4.135-2.031 5.051v2.928l2.619-1.31c.897-.449 1.608-.596 2.231-.483.794.405 1.219.682 1.406 1.05-2.048 8.317-4.453 16.229-7.002 24.591l-3.318 11.035c-.104.096-.376.24-.604.354-6.339 1.977-7.701 5.424-7.701 7.986v3.076l2.689-1.494c2.065-1.148 5.166-2.453 8.241-2.197.173.037 2.527.512 2.527.512 2.339.496 4.757 1.008 7.356 1.008h.371l.214-.104.067-.008c2.65-.287 4.016-2.1 4.172-5.537l.055-1.209-2.815-1.316c-.819-.402-1.411-.691-1.926-.82l-1.238-.311-.503.756c-.256.059-.641.07-1.049.053.433-1.59 1-3.293 1.555-4.957.619-1.857 1.209-3.738 1.683-5.551h13.157c1.514 9.748 4.6 15.91 9.225 18.236 4.242 2.133 8.393.498 10.488-.668l.082-.045.078-.053c3.873-2.713 5.035-7.312 5.572-10.537l.93-5.57-3.994 3.994c-.734.732-1.918 1.439-3.098 1.316-1.176-.428-1.926-1.186-2.334-2.383-2.311-9.662-4.252-18.549-6.309-27.955l-2.707-12.322-.182-1.026c-.445-2.873-1.057-6.807-9.106-11.599l-.196-.117-.219-.064c-6.276-1.845-13.916-.41-16.373 5.908z" fill-rule="evenodd" clip-rule="evenodd" fill="#e6b43c"/><path d="M102.109 72.851c3.145 14.149 5.73 26.544 9.049 40.419.604 1.811 1.811 3.018 3.619 3.621 1.811.301 3.621-.604 4.826-1.811-.602 3.619-1.809 7.24-4.826 9.352-2.715 1.508-14.076 6.535-17.293-17.797H81.397c-.905 4.223-3.117 9.35-4.022 13.572.301.604 3.921.906 4.524 0 .588.148 1.911.906 3.318 1.51-.201 4.424-2.553 3.611-3.016 3.92-3.318 0-6.334-.904-9.653-1.508-3.318-.301-6.636.904-9.351 2.414 0-3.621 3.62-5.43 6.636-6.336.603-.301 1.207-.602 1.508-1.205 3.619-12.367 7.541-24.131 10.557-36.499-.301-1.508-1.508-2.111-2.714-2.714-1.207-.302-2.414 0-3.62.603 0-1.508 0-6.134 9.049-4.525.297.053 2.715-4.524 2.413-6.636-.301-1.508-1.207-2.413-2.413-3.017-1.508-.603-3.62-.905-4.826.302-.302.302-.302 0-.302-.302 2.112-5.429 9.049-6.334 14.177-4.826 8.447 5.028 7.844 8.748 8.447 11.463z" fill-rule="evenodd" clip-rule="evenodd" fill="#3c8253"/><path d="M107.219 74.398c-.301.396-.67 1.083-.67 2.077 0 .629-.115 3.414 2.336 3.589.162 1.937-1.447 4.45-1.447 4.45s9.049-1.207 6.846-9.019c-.41-1.229-1.629-2.153-3.182-2.412-1.577-.262-3.065.242-3.883 1.315z" fill-rule="evenodd" clip-rule="evenodd" fill="#e6b43c"/><path d="M112.566 76.068c.693 2.083.803 4.826-2.816 6.234.303-1.207 2.012-2.513 1.408-3.72-.904.101-1.508.704-2.412-.603-1.81-3.922 3.217-3.721 3.82-1.911z" fill-rule="evenodd" clip-rule="evenodd" fill="#3c8253"/><path d="M117.891 77.114l-.045.022-.045.025c-2.523 1.442-3.453 4.194-3.406 6.695.082 4.478 5.844 6.2 8.227 6.891 0 0 1.307 1.005-.402 1.307-.93.164-2.623-.168-3.674-.92l-1.053-.751-3.961 4.956s6.475 5.161 13.064 1.518c2.102-1.313 3.264-3.58 3.264-5.952 0-1.116-.857-3.457-.857-3.457l-.082-.116c-1.656-2.317-4.09-2.944-6.045-3.448 0 0-2.467-.377-1.562-1.583.805-1.106 1.309-.603 2.816-.301l2.514 1.106 1.91-4.625c-3.722-2.011-8.195-2.602-10.663-1.367z" fill-rule="evenodd" clip-rule="evenodd" fill="#e6b43c"/><path d="M125.637 95.323c-2.982 1.865-7.238 1.507-9.953-.604l1.809-2.111c2.111 1.508 5.732 2.111 6.938-.603.303-1.207-.301-2.112-1.205-2.715-1.207-.604-6.939-2.061-7.34-4.977-.334-2.409.703-4.374 2.814-5.58 2.414-1.207 5.43-.604 7.842.301.303 0-.602 1.81-.904 2.414-1.508-.905-3.92-1.308-5.127-.302-1.508 1.508-.604 3.62.904 4.223 2.111.603 4.525.905 6.033 3.017 1.206 2.412.603 5.428-1.811 6.937z" fill-rule="evenodd" clip-rule="evenodd" fill="#3c8253"/><path fill-rule="evenodd" clip-rule="evenodd" fill="#e6b43c" d="M81.331 101.406H97.59L90.458 72.88l-9.127 28.526z"/><path fill-rule="evenodd" clip-rule="evenodd" fill="#fff" d="M95.272 99.596H83.81l6.435-20.109 5.027 20.109zM142.529 148.562c2.18.727 4.523-.303 5.43-2.111.904.604 1.207 1.809 2.111 2.412-2.111 3.621-6.637 4.525-10.256 3.018-3.016-1.207-5.129-3.922-6.033-7.24-.604-3.922 1.207-7.541 4.525-9.352.604.906 1.205 1.811 2.111 2.414-1.811.904-3.619 2.715-3.318 4.826.604 2.715 2.715 5.127 5.43 6.033zM83.558 152.031l4.072.604-2.262 14.931 3.922.602-.604 3.771-8.295-1.507 3.167-18.401zM95.171 153.238l.755 19.002 8.748-.451-.303-3.922-4.523.151v-3.469l3.468-.451v-3.772l-3.771.453-.15-3.771h4.222v-3.77h-8.446zM122.318 147.055l3.621-1.961 9.2 16.439-3.77 1.961-9.051-16.439zM107.84 152.332l9.805-3.166 1.357 3.469-3.018 1.205 4.373 14.178-4.07 1.357-4.525-14.629-3.168 1.055-.754-3.469zM159.873 134.535c.877 3.258-1.357 5.883-4.072 7.09-.604.301-3.193-1.445-2.715-1.811 3.168-2.412 4.072-3.318 1.961-4.676-.803-.516-2.748.064-3.619.453-5.732 2.564-8.295-.904-9.201-3.619 0-2.414 1.207-5.43 3.922-6.336.604.906 2.262 1.057 2.865 1.961-3.77 1.357-3.318 4.977-.904 4.375 6.484-1.509 10.708-1.357 11.763 2.563zM66.063 157.311l3.318 1.507-3.167 6.938 4.072 1.961 7.541-17.043-3.77-1.66-2.866 5.882-3.619-1.357 2.865-6.334-3.469-1.66-8.144 16.742 4.072 1.961 3.167-6.937zM45.25 152.332l9.803-11.01-2.563-2.111 2.563-3.016 7.692 6.787-2.262 2.715-2.262-2.113-9.653 11.463-3.318-2.715zM48.417 128.051l2.563 3.318-12.065 14.779-2.865-3.77 1.81-2.564-1.96-2.564-2.866 1.057-2.563-3.619 17.946-6.637zm-9.501 7.541l1.508 2.111 4.826-5.43-6.334 3.319zM51.132 49.926c3.318 3.317 2.715 8.445-1.207 11.16-3.016 1.81-6.032.604-8.747-1.206-3.017-2.414-6.033-5.128-6.033-9.05.604-3.318 3.62-6.636 7.541-6.032 3.318.603 6.033 2.715 8.446 5.128zm-7.842-.301c-1.207-.302-2.989-.891-3.62.302-1.357 2.564 4.675 8.295 8.295 7.993 2.866-1.508.625-3.081-.151-4.374-.905-1.508-3.921-3.62-4.524-3.921zM151.881 43.893c.381.19.301 1.207.904.905.904 1.508 1.809 2.714 2.412 4.223.303 2.111-.301 4.223-1.207 6.033-2.713 3.017-6.635 6.636-10.857 5.128-2.715-1.207-4.525-3.62-6.334-5.731 4.223-4.223 9.35-7.843 13.875-11.764.301.301.603.904 1.207 1.206zm-1.207 4.223c-2.715 2.413-5.43 4.525-8.145 6.938 0 0 1.281 4.751 7.541-1.508 2.412-2.414 1.811-4.223.604-5.43zM120.961 43.743l3.771 2.413 5.731-9.2-1.809 11.311 3.317 2.262 9.955-15.836-3.319-2.111-5.88 9.351 1.808-12.066-3.318-1.81-10.256 15.686zM112.516 21.27l4.223 1.207.15 19.305-4.373-1.357.15-2.866-3.92-1.056-1.207 3.016-4.375-1.508 9.352-16.741zm.15 13.122l.453-6.938-2.715 6.183 2.262.755zM90.345 19.611l4.374-.151.302 14.932 4.223.15v3.469l-8.446.302-.453-18.702zM68.778 24.588l3.77-1.357 2.565 6.787.754-7.843 3.921-1.207-.905 9.2 7.088 8.748-4.373 1.207-5.731-6.938 2.262 7.692-3.771 1.659-5.58-17.948zM51.434 34.09l3.921-2.715 14.479 12.669-3.62 2.564-2.414-1.961-3.318 2.112 1.056 3.167-3.318 2.111-6.786-17.947zm7.842 9.501l2.262-1.357-5.279-5.128 3.017 6.485z"/></svg>