<svg xmlns="http://www.w3.org/2000/svg" width="2500" height="2500" viewBox="0 0 192.756 192.756"><g fill-rule="evenodd" clip-rule="evenodd"><path fill="#fff" d="M0 0h192.756v192.756H0V0z"/><path d="M20.13 99.002c.663 2.941-.171 5.615-2.109 7.676-2.453 2.33-6.058 3.064-9.344 2.207-2.305-.711-4.856-2.648-5.542-5.15-1.594-7.946 3.482-14.175 7.701-20.232l.294-.343c4.267 4.683 7.578 9.931 9 15.842z" fill="#5a795f"/><path d="M12.307 98.486c.074-.662.197-1.129.564-1.619 1.128-1.52 3.164-2.844 3.164-4.954 1.422 1.57 2.011 4.168 1.177 5.444-1.569 2.379-5.91 3.852-5.419 6.131-2.943.148-4.783-.342-6.279-2.133-2.305-2.795-.441-6.891.957-9.515 1.3-2.428 3.114-5.15 4.855-7.333 1.324 1.766 2.747 3.409 3.532 5.444 1.103 3.312-5.004 5.568-2.551 8.535z" fill="#e8ae30"/><path d="M156.729 92.895c1.791 3.115.908 7.553-.809 10.447-3.164 4.66-8.24 6.818-13.758 6.131-3.066-.49-6.328-3.139-6.941-6.303-1.127-5.248 2.109-9.613 6.131-12.409 4.488-2.624 12.212-3.164 15.377 2.134zm-8.657 2.256c1.078 2.183 1.52 5.419.416 7.726-.293.588-.834.955-1.324 1.25-.613.146-1.299.023-1.789-.393-1.742-1.889-1.963-5.15-1.203-7.676.27-.957 1.252-1.545 2.086-1.742.711.001 1.347.197 1.814.835zM186.402 90.688c.172 1.005-.514 1.791-1.324 2.281-.49.245-1.201.343-1.373.981a82.123 82.123 0 0 0-2.035 10.275c.711.564 1.57.295 2.453.27 2.23-.564 2.059-4.389 4.904-3.041 1.127.441.908 1.717.809 2.625-.809 2.035-1.691 5.051-4.438 5.322l-1.865-.418-11.623-.098c-.492-.197-.934-.76-1.055-1.301-.32-2.035 2.133-2.305 2.697-3.85.932-3.236 1.496-6.67 2.035-10.031-.564-.809-2.207-1.25-1.447-2.673 1.398-2.256 4.145-1.814 6.426-2.231 2.061.343 4.807-.343 5.836 1.889zM172.08 90.688c.32.711-.195 1.3-.49 1.864-.588.54-1.643.711-1.789 1.644-.467 3.555-2.012 6.793-2.035 10.422.809.613 1.568 1.471 1.127 2.551-2.035 2.672-6.105 2.061-9.246 1.814-.932-.195-1.986-.467-2.451-1.496-.221-.688.049-1.373.49-1.863 2.623-.59 2.256-3.385 2.967-5.225l1.301-6.278c-.318-.956-1.889-1.643-1.398-2.967 1.938-2.723 5.836-1.913 8.977-1.938.953.245 2.106.368 2.547 1.472zM101.869 90.271c1.619 1.57 1.838 3.752 2.551 5.714.98 3.115 1.225 6.572 2.574 9.564.49.393 1.398.393 1.398 1.227 0 .711-.688 1.35-1.301 1.52-2.941.613-6.744 1.006-9.613 0-.465-.342-.54-1.004-.27-1.445.516-.908 2.035-.49 1.963-1.816-1.154-1.029-2.87-.711-4.416-.883-1.005.1-2.28.025-2.747 1.227-.171 1.252 2.134.613 1.275 2.207-1.104 1.816-3.458 1.301-5.469 1.398-.932-.27-2.256.098-2.698-1.08a1.598 1.598 0 0 1 .981-1.643c1.104-.098 2.011-.955 2.624-1.863 2.771-4.684 5.788-8.706 8.411-13.955.739-1.497 3.388-.957 4.737-.172zm-3.654 7.725c.195.883.49 1.814.539 2.648h-3.875c.735-1.227 1.766-3.482 2.748-3.531.293.049.439.491.588.883zM89.606 95.666a2.311 2.311 0 0 1-1.864 1.129c-.736-.051-1.594-.173-1.864-.982-.49-.613-.515-2.232-1.741-1.938l-.54.834-1.986 9.833c0 1.521 2.992 1.521 1.3 3.287-1.104.957-2.649.857-4.096 1.055-2.379.074-5.248.465-6.94-1.301.025-.686.196-1.422.907-1.643 2.429-.295 2.232-2.943 2.943-4.586.515-2.354 1.324-4.66 1.226-7.161-.319-.491-.785-.27-1.128-.074-1.397 1.079-2.525 3.36-4.487 2.6-.785-.49-.662-1.57-.417-2.281.711-1.864 2.231-3.998 4.218-4.635l1.57.393 9.736-.099c.687-.171 1.423-.417 2.183-.171.711.515.98 1.3 1.324 2.06.343 1.179.147 2.552-.344 3.68zM46.224 94.023c1.643 4.168.171 8.854-3.09 11.918-3.458 3.213-8.755 4.586-13.194 2.625-2.869-1.324-4.585-4.293-4.39-7.457.294-4.781 4.365-9.343 8.878-10.667 4.242-1.226 9.687-.76 11.796 3.581zm-8.412.564c1.717 2.452 1.962 6.522.735 9.319-.392.588-.981 1.227-1.716 1.373-.834.049-1.57-.295-2.159-.98-1.569-2.6-1.913-6.67-.294-9.369.786-.981 2.502-1.324 3.434-.343zM133.971 90.197c.49.343.49.957.344 1.471-.785 1.226-2.723 1.324-2.797 3.09-1.152 4.072-1.938 8.337-3.09 12.41-.318.588-.662 1.275-1.299 1.545-1.129.195-1.84-.639-2.625-1.227-2.402-2.453-4.488-5.102-6.867-7.504-.832-.123-1.299.686-1.545 1.299-.098 1.668-1.422 4.121.811 5.15.123.639-.172 1.129-.49 1.57-1.889 1.078-4.881 1.078-6.965.293-.441-.367-.516-1.127-.221-1.617 1.004-.834 2.402-1.545 2.551-2.943.783-2.992 1.422-6.057 1.617-9.294.393-1.741-2.502-1.275-1.496-3.115 1.645-1.791 4.783-1.398 6.965-.981 2.748 2.084 4.586 5.199 7.357 7.185 1.619-.367 1.275-2.33 1.545-3.654.32-1.447-2.109-.981-1.275-2.55 1.227-2.354 4.414-1.177 6.672-1.398l.808.27zM70.233 91.251c.098.736-.344 1.373-.957 1.643-1.938-.024-3.629.466-5.003 1.815-.687.638-1.864 1.226-1.864 2.255.344 1.742 1.447 3.189 2.526 4.66 1.325 1.645 2.404 3.508 4.243 4.807.197.688 0 1.35-.245 1.963-.833.734-2.06.686-3.237.662-1.864.221-4.096.367-4.93-.172-1.643-1.889-2.109-4.193-3.85-6.033-.638-.295-.785.516-1.054.809-.123.736-.417 1.791.171 2.355.515.441.957.98.637 1.643-.784 1.643-2.82 1.25-4.414 1.57-1.717-.049-3.507.172-4.979-.516-.637-.246-.858-1.029-.466-1.545 1.791-1.055 2.183-3.018 2.747-4.732.613-2.82 1.373-5.641 1.397-8.56-.417-.784-1.692-1.177-.981-2.207 2.084-2.084 5.248-1.521 8.093-1.398.638.196 1.299.245 1.471.981.54 1.815-1.839 1.815-2.109 3.188-.098.735-.932 1.864.073 2.355 1.496-.467 2.575-2.085 3.507-3.312-.098-.736-.245-1.889.393-2.453 2.403-1.177 5.764-1.349 8.363-.515l.468.737z" fill="#5a795f"/><path d="M154.742 92.379c2.158 2.305 1.766 6.353.639 8.976-1.914 4.488-6.549 7.014-11.258 7.111-2.795-.195-5.615-1.324-6.939-3.973-1.594-3.434-.49-7.799 2.207-10.496 3.752-4.07 11.06-5.615 15.351-1.618zm-6.131 1.619c1.521 2.771 2.133 6.891.588 9.811-.416.76-1.127 1.201-1.814 1.568-.834.197-1.766.025-2.451-.465-2.379-2.428-2.674-6.549-1.619-9.761.367-1.226 1.691-1.962 2.844-2.207.956 0 1.839.245 2.452 1.054zM185.078 91.031c-.342 1.422-2.402.981-2.697 2.575-.686 3.728-2.035 7.259-1.938 11.183.639 1.299 2.232.957 3.41.932 1.617-.074 3.113-1.619 3.678-3.041.221-.195.564-.344.809-.172.785 1.668-.637 2.992-1.227 4.439-.514.711-1.25 1.496-2.279 1.055-3.949-.441-8.24-.172-12.336-.246-.418-.195-.295-.809-.098-1.078 3.85-2.184 3.041-6.916 4.193-10.521.072-1.104.564-2.231.172-3.36-.246-.932-1.938-.417-1.227-1.545 1.324-1.104 3.164-.981 4.904-1.226 1.572.22 3.509-.197 4.636 1.005zM170.756 91.08c0 1.128-1.299.957-1.766 1.815-1.225 3.311-1.766 6.867-2.551 10.375-.416 1.25.246 2.354 1.227 3.09-.367 1.496-2.158 1.324-3.434 1.543-1.887.197-3.801.051-5.469-.49-.906-1.471 1.301-1.25 1.791-2.279l.49-.908c.834-3.482 1.814-6.891 2.232-10.521-.049-1.104-1.742-1.177-1.324-2.378 1.961-1.521 4.953-.81 7.455-.883.443.194 1.079.17 1.349.636z" fill="#e8ae30"/></g></svg>