<svg xmlns="http://www.w3.org/2000/svg" width="2500" height="2500" viewBox="0 0 192.756 192.756"><path fill-rule="evenodd" clip-rule="evenodd" fill="#fff" d="M0 0h192.756v192.756H0V0z"/><path d="M19.579 85.277c6.576 0 11.273 4.251 11.273 11.101 0 6.851-4.697 11.101-11.273 11.101s-11.273-4.25-11.273-11.101c0-6.85 4.697-11.101 11.273-11.101zm0 17.952c3.993 0 6.576-2.836 6.576-6.851 0-4.015-2.583-6.85-6.576-6.85s-6.576 2.834-6.576 6.85c0 4.015 2.583 6.851 6.576 6.851zM40.012 85.75h7.75c4.462 0 8.22 1.417 8.22 6.377 0 4.961-3.523 6.614-7.985 6.614h-3.288v8.268h-4.697V85.75zm4.697 8.975h3.053c1.644 0 3.288-.472 3.288-2.598 0-2.125-2.114-2.362-3.993-2.362h-2.349v4.96h.001zM81.582 98.74c0 4.959-3.053 8.738-8.924 8.738-5.872 0-8.925-3.779-8.925-8.738V85.75h4.697v12.99c0 2.598 1.878 4.488 4.228 4.488 2.348 0 4.227-1.891 4.227-4.488V85.75h4.697v12.99zM102.719 90.946c-.703-.945-2.113-1.417-3.287-1.417-1.408 0-3.054.708-3.054 2.126 0 4.015 9.63 1.417 9.63 8.975 0 4.725-3.758 6.85-8.221 6.85-2.583 0-4.932-.707-7.046-2.598l3.289-3.779c.939 1.418 2.583 2.127 3.994 2.127 1.643 0 3.287-.709 3.287-2.127 0-4.014-9.865-1.889-9.865-8.975 0-4.487 3.993-6.85 7.986-6.85 2.348 0 4.697.709 6.576 2.126l-3.289 3.542z" fill-rule="evenodd" clip-rule="evenodd" fill="#cc2229"/><path d="M120.1 94.252h1.408c1.645 0 3.523-.473 3.523-2.362 0-1.417-1.174-2.362-2.818-2.362-1.41 0-2.35.945-2.584 1.889l-4.932-.944c.939-3.542 3.992-4.96 7.516-4.96 3.758 0 7.281 1.653 7.281 5.904 0 2.126-1.41 4.016-3.758 4.488v.237c2.582.235 3.992 2.361 3.992 4.959 0 4.252-3.523 6.141-7.516 6.141-3.758 0-6.811-1.652-7.516-5.432l4.697-.945c.234 1.418 1.174 2.363 3.053 2.363s2.818-1.182 2.818-2.836c0-2.361-2.113-2.361-4.227-2.361h-.937v-3.779zM145.699 93.308c.469 0 .938-.236 1.408-.236 3.992 0 6.811 3.071 6.811 7.086 0 4.25-3.523 7.084-7.984 7.084-4.463 0-7.75-2.834-7.75-7.084 0-3.07 1.174-4.961 2.348-7.086l4.697-7.322h5.402l-4.932 7.558zm.235 3.306c-1.879 0-3.289 1.417-3.289 3.308 0 1.889 1.41 3.307 3.289 3.307 2.113 0 3.523-1.418 3.523-3.307 0-1.891-1.41-3.308-3.523-3.308zM173.178 85.277c6.574 0 11.271 4.251 11.271 11.101 0 6.851-4.697 11.101-11.271 11.101-6.576 0-11.273-4.25-11.273-11.101-.001-6.85 4.697-11.101 11.273-11.101zm0 17.952c3.992 0 6.574-2.836 6.574-6.851 0-4.015-2.582-6.85-6.574-6.85-3.994 0-6.576 2.834-6.576 6.85 0 4.015 2.582 6.851 6.576 6.851z" fill-rule="evenodd" clip-rule="evenodd" fill="#295ba7"/><path d="M35.08 144.09c4.932-2.834 6.576-9.211 3.757-14.408-2.818-4.961-9.159-6.613-14.091-3.779-5.167 2.834-6.811 9.447-3.993 14.408 3.054 4.959 9.395 6.613 14.327 3.779z" fill="none" stroke="#295ba7" stroke-width=".997" stroke-miterlimit="2.613"/><path d="M168.01 66.853c5.168-2.833 6.811-9.211 3.994-14.407-3.055-4.96-9.396-6.613-14.328-3.779s-6.576 9.212-3.758 14.408c2.818 4.96 9.16 6.613 14.092 3.778z" fill="none" stroke="#cc2229" stroke-width=".997" stroke-miterlimit="2.613"/><path d="M67.021 168.654c2.818-5.197 1.174-11.574-3.758-14.408-5.167-2.834-11.508-1.182-14.326 3.779-2.818 4.959-1.174 11.338 3.757 14.408 4.932 2.835 11.508 1.18 14.327-3.779z" fill="none" stroke="#295ba7" stroke-width=".997" stroke-miterlimit="2.613"/><path d="M143.82 34.731c2.816-4.96 1.174-11.337-3.758-14.172-5.168-3.071-11.508-1.181-14.326 3.779-2.818 4.96-1.176 11.338 3.758 14.172 5.166 2.834 11.508 1.181 14.326-3.779z" fill="none" stroke="#cc2229" stroke-width=".997" stroke-miterlimit="2.613"/><path d="M106.711 173.613c0-5.668-4.695-10.393-10.333-10.393-5.637 0-10.333 4.725-10.333 10.393 0 5.906 4.697 10.393 10.333 10.393 5.638 0 10.333-4.486 10.333-10.393z" fill="none" stroke="#295ba7" stroke-width=".997" stroke-miterlimit="2.613"/><path d="M106.711 19.142c0-5.668-4.695-10.393-10.333-10.393-5.637 0-10.333 4.724-10.333 10.393 0 5.669 4.697 10.393 10.333 10.393 5.638 0 10.333-4.724 10.333-10.393z" fill="none" stroke="#cc2229" stroke-width=".997" stroke-miterlimit="2.613"/><path d="M143.82 158.025c-2.818-4.961-9.16-6.613-14.326-3.779-4.934 2.834-6.576 9.211-3.758 14.172 2.818 5.195 9.158 6.85 14.326 4.016 4.932-3.071 6.575-9.45 3.758-14.409z" fill="none" stroke="#295ba7" stroke-width=".997" stroke-miterlimit="2.613"/><path d="M67.021 24.338c-2.819-5.196-9.16-6.85-14.327-4.015-4.932 3.071-6.575 9.448-3.757 14.408 2.818 4.959 9.16 6.613 14.326 3.779 4.932-2.834 6.576-9.211 3.758-14.172z" fill="none" stroke="#cc2229" stroke-width=".997" stroke-miterlimit="2.613"/><path d="M168.01 125.902c-4.932-2.834-11.273-1.182-14.092 4.016-2.818 4.961-1.174 11.338 3.758 14.172s11.273 1.18 14.328-3.779c2.816-4.961.937-11.338-3.994-14.409z" fill="none" stroke="#295ba7" stroke-width=".997" stroke-miterlimit="2.613"/><path d="M35.08 48.667c-4.932-2.834-11.273-1.181-14.327 3.779-2.818 5.196-1.174 11.574 3.993 14.407 4.932 2.835 11.273 1.182 14.091-3.778S40.012 51.5 35.08 48.667z" fill="none" stroke="#cc2229" stroke-width=".997" stroke-miterlimit="2.613"/></svg>