<svg xmlns="http://www.w3.org/2000/svg" width="2500" height="2500" viewBox="0 0 192.756 192.756"><path fill-rule="evenodd" clip-rule="evenodd" fill="#fff" d="M0 0h192.756v192.756H0V0z"/><path d="M46.284 88.174s-11.253-.87-32.326 11.125c0 0-.435 27.083-2.686 31.354l7.187-3.529s-1.33 12.454-5.473 24.857c0 0 4.936 3.939 16.265.282l-1.713 7.059s61.66-25.242 89.05-22.685c0 0 18.822.639 34.68 5.37 0 0 20.74 7.264 27.594-3.427 0 0 5.576-7.493-1.918-17.34 0 0 1.918-8.133-1.918-16.061l7.697-15.626-19.486 3.222-8.799 1.663-.639 2.839-.92-4.297c1.789-1.867 2.812-3.273 2.812-3.273l-.205-4.808c2.711-2.711 6.164-13.094 6.164-13.094 10.793-7.135 2.891-19.079 2.891-19.079l2.301-5.78c-6.93-3.658-16.367-3.862-16.367-3.862.205-2.89-1.74-4.808-1.74-4.808-6.547-5.576-23.477-4.808-23.477-4.808l.945 1.739c-4.807-.972-18.873 0-18.873 0l1.738 1.918c-7.314-.384-20.229 4.041-20.229 4.041l2.89 2.122c-10.972.384-28.771 13.171-28.771 13.171l6.036 1.458C58.406 60.63 45.695 76.025 45.695 76.025l10.972-.562c-6.368 5.78-8.696 10.383-9.54 12.736l-.843-.025z" fill-rule="evenodd" clip-rule="evenodd" fill="#d9782d"/><path d="M52.6 92.316c-9.232-3.657-30.408 5.474-35.216 8.849 0 0-.435 20.716-2.123 23.836l5.958-2.583s-.358 15.217-4.322 26.828c0 0 2.89 2.506 22.045-2.66l-5.601 6.343s45.523-18.209 77.413-19.897c0 0 15.346-1.765 43.094 5.652 0 0 18.619 6.7 22.66-4.169 0 0 2.711-6.163-3.479-12.583 0 0 2.812-6.24-2.123-16.93l5.678-11.228-19.258 3.836s-1.227 3.913-2.609 5.039l-3.324-2.379-2.301-7.749-96.492-.205z" fill-rule="evenodd" clip-rule="evenodd"/><path d="M33.599 98.915c14.219-5.575 17.825-.537 17.825-.537 5.345 6.547-4.527 15.166-4.527 15.166 5.396.844 6.905 4.424 6.905 4.424 8.261-15.907 21.866-8.746 21.866-8.746l-6.521 12.301c6.112.717 10.409-10.92 10.409-10.92 2.736-7.442 13.196-9.335 13.196-9.335-.409 2.43.639 3.837.639 3.837l2.123-3.146c1.56.18 4.04 1.151 4.04 1.151l.385-1.842c5.088-1.355 8.439-4.782 8.439-4.782l2.275 9.386 4.705-9.744 10.537-3.964-2.812 6.189c7.416-3.708 12.889 2.353 12.889 2.353l-8.617 11.867c5.113 3.375 11.891-8.9 11.891-8.9l.281-4.604 6.982-2.455c-.102 2.378 1.355 6.981 1.355 6.981l3.633 2.404c-1.102 1.355-2.66 7.059-2.66 7.059 9.053-2.276 12.939-12.25 12.939-12.25l8.773-1.739-3.914 7.392c6.752 9.539 1.918 16.674 1.918 16.674 4.963 6.343 2.199 9.283 2.199 9.283-3.836 5.704-15.855 1.049-15.855 1.049-2.275-.435-17.416-4.296-17.416-4.296-19.258-3.709-24.092-1.433-39.947-.128-15.831 1.278-42.275 10.716-42.275 10.716 20.332-12.94 52.402-16.138 52.402-16.138 21.406-3.428 48.746 5.831 48.746 5.831 6.137 2.787 7.621 1.074 7.621 1.074 3.58-2.43-1.355-5.422-1.355-5.422-6.062.716-11.074-5.013-11.074-5.013-8.236 4.604-10.818-6.036-10.818-6.036l-.486-.69c-16.547 17.187-24.525.384-24.525.384l-.613-.204c-.205 1.15-5.551 7.852-5.551 7.852l-3.836-4.297c-3.709 1.611-10.306 6.624-10.306 6.624l-4.629-2.123c-8.695 7.621-12.787 2.123-12.787 2.123C68.253 136.996 55.056 126 55.056 126c-7.775 18.976-32.557 18.694-32.557 18.694 4.168-9.847 3.325-29.59 3.325-29.59-1.074.153-4.68 2.583-4.68 2.583 1.125-4.731 1.228-13.146 1.228-13.146 3.912-2.558 11.227-5.626 11.227-5.626zm.434 26.086l-.69 7.596s12.941-5.217 10.357-9.412c0 0-1.407-2.327-9.667 1.816zm.972-17.825l-.435 6.981s11.534-4.604 9.207-7.902c0 0-1.202-2.686-8.772.921zm54.474.793s-8.286 2.046-6.24 11.201c0 0 3.555-.46 6.01-3.069 0 0-.921-6.266.23-8.132zm10.537-3.811s-4.476 6.266-3.35 14.5c0 0 3.938-1.15 4.911-8.414-.001 0 .23-4.782-1.561-6.086zm22.992 7.187l6.469-8.363c-8.899-1.151-6.469 8.363-6.469 8.363zm-61.533 9.743l6.445-8.337c-8.875-1.151-6.445 8.337-6.445 8.337zm101.326-11.738s-1.305 5.038-5.652 7.749c0 0 4.4 2.43 6.062 2.66 0 0 2.684-6.701-.41-10.409z" fill-rule="evenodd" clip-rule="evenodd" fill="#fff"/><path d="M33.599 98.915c14.219-5.575 17.825-.537 17.825-.537 5.345 6.547-4.527 15.166-4.527 15.166 5.396.844 6.905 4.424 6.905 4.424 8.261-15.907 21.866-8.746 21.866-8.746l-6.521 12.301c6.112.717 10.409-10.92 10.409-10.92 2.736-7.442 13.196-9.335 13.196-9.335-.409 2.43.639 3.837.639 3.837l2.123-3.146c1.56.18 4.04 1.151 4.04 1.151l.385-1.842c5.088-1.355 8.439-4.782 8.439-4.782l2.275 9.386 4.705-9.744 10.537-3.964-2.812 6.189c7.416-3.708 12.889 2.353 12.889 2.353l-8.617 11.867c5.113 3.375 11.891-8.9 11.891-8.9l.281-4.604 6.982-2.455c-.102 2.378 1.355 6.981 1.355 6.981l3.633 2.404c-1.102 1.355-2.66 7.059-2.66 7.059 9.053-2.276 12.939-12.25 12.939-12.25l8.773-1.739-3.914 7.392c6.752 9.539 1.918 16.674 1.918 16.674 4.963 6.343 2.199 9.283 2.199 9.283-3.836 5.704-15.855 1.049-15.855 1.049-2.275-.435-17.416-4.296-17.416-4.296-19.258-3.709-24.092-1.433-39.947-.128-15.831 1.278-42.275 10.716-42.275 10.716 20.332-12.94 52.402-16.138 52.402-16.138 21.406-3.428 48.746 5.831 48.746 5.831 6.137 2.787 7.621 1.074 7.621 1.074 3.58-2.43-1.355-5.422-1.355-5.422-6.062.716-11.074-5.013-11.074-5.013-8.236 4.604-10.818-6.036-10.818-6.036l-.486-.69c-16.547 17.187-24.525.384-24.525.384l-.613-.204c-.205 1.15-5.551 7.852-5.551 7.852l-3.836-4.297c-3.709 1.611-10.306 6.624-10.306 6.624l-4.629-2.123c-8.695 7.621-12.787 2.123-12.787 2.123C68.253 136.996 55.056 126 55.056 126c-7.775 18.976-32.557 18.694-32.557 18.694 4.168-9.847 3.325-29.59 3.325-29.59-1.074.153-4.68 2.583-4.68 2.583 1.125-4.731 1.228-13.146 1.228-13.146 3.912-2.558 11.227-5.626 11.227-5.626zm.434 26.086l-.69 7.596s12.941-5.217 10.357-9.412c0 0-1.407-2.327-9.667 1.816zm.972-17.825l-.435 6.981s11.534-4.604 9.207-7.902c0 0-1.202-2.686-8.772.921zm54.474.793s-8.286 2.046-6.24 11.201c0 0 3.555-.46 6.01-3.069 0 0-.921-6.266.23-8.132zm10.537-3.811s-4.476 6.266-3.35 14.5c0 0 3.938-1.15 4.911-8.414-.001 0 .23-4.782-1.561-6.086zm22.992 7.187l6.469-8.363c-8.899-1.151-6.469 8.363-6.469 8.363zm-61.533 9.743l6.445-8.337c-8.875-1.151-6.445 8.337-6.445 8.337zm101.326-11.738s-1.305 5.038-5.652 7.749c0 0 4.4 2.43 6.062 2.66 0 0 2.684-6.701-.41-10.409z" fill="none" stroke="#d9782d" stroke-width="1.066" stroke-linecap="round" stroke-linejoin="round" stroke-miterlimit="2.613"/><path d="M147.764 45.694s1.508-4.91-5.576-7.493c0 0-6.316-1.483-12.455-1.662l1.971 1.662s-14.348-1.535-19.131-.205l2.123 1.381s-10.818-.051-20.664 3.581l3.684 1.381s-15.729 2.711-28.44 11.637l6.931.869s-13.401 6.164-24.321 16.496l12.608-.665s-10.025 6.547-14.348 18.567c0 0 1.023 3.401 3.223 5.677l1.918 12.558.256-1.535s5.319-.051 8.184-1.943c0 0 3.836-1.79 4.271-1.867l2.275.23L77.971 106l3.146-2.941s7.008-3.273 7.852-3.912l10.486-.768s1.867.486 3.656.256c0 0 6.625-.844 7.264.588l-1.637 1.765 8.287-.69-1.381 1.509s5.855-.384 12.939-2.762l-1.176 1.739s2.148.972 15.932-5.474c0 0 .078 1.688-.51 2.2 0 0 4.654-1.586 10.178-8.363l-.461-3.99s4.4-6.419 6.83-13.938c0 0 9.053-5.294 2.225-18.337l1.432-3.427c-.002-.001-1.638-2.099-15.269-3.761z" fill-rule="evenodd" clip-rule="evenodd"/><path d="M152.699 53.802s-23.17-3.018-34.654 9.207c0 0 3.096-.281 3.402-.026 0 0-.129.921-2.787 2.737 0 0-3.045 2.788-4.041 4.604 0 0 3.887-1.407 5.396-.972l-3.504 5.677s6.469-3.964 7.135-4.168c0 0 20.844 6.624 30.766-8.568 0 0 .844 1.381-.025 2.558 0 0 .537 2.967 2.891 5.294 0 0 2.25-.358 3.324-3.887l-1.125-.512-.41-2.685 1.406.255s.615-1.611.053-3.606l-.998.128-1.918-2.353 2.02-.23s.309-.435-1.559-2.455l-2.789 2.046-2.583-3.044z" fill-rule="evenodd" clip-rule="evenodd" fill="#915b1b"/><path d="M129.248 58.328s3.58-1.816 4.398-1.944l1.482 1.355c.001.001-2.403-.178-5.88.589zM136.92 58.456s3.734-1.407 4.578-1.458l1.33 1.534c0 .001-2.353-.46-5.908-.076zM131.881 63.622s3.273-2.276 4.092-2.506l1.662 1.151s-2.403.128-5.754 1.355zM127.432 67.97s3.35-2.174 4.168-2.404l1.611 1.202s-2.404.077-5.779 1.202zM136.076 67.484s3.477-1.995 4.297-2.174l1.559 1.304s-2.405-.076-5.856.87z" fill-rule="evenodd" clip-rule="evenodd"/><path d="M153.9 51.167s3.863-1.125 6.293-.255c0 0-.871.792-2.379 1.432l-3.914-1.177z" fill-rule="evenodd" clip-rule="evenodd" fill="#c29e73"/><path d="M151.549 48.431s-6.062-1.79-11.996-2.148c0 0 2.967-.921 5.73-.793 0 0 .74-5.268-8.824-5.499 0 0 2.43 3.887 1.432 4.578.025 0-2.557-3.708-16.547-4.271l1.945 2.276s-10.947-1.969-21.125 1.586l4.834 1.611s-16.087 1.048-30.409 9.002l10.357 1.023S70.655 59.325 60.17 70.067h11.738s-16.035 9.821-17.953 21.584c0 0 12.966-16.751 31.38-14.015 0 0-21.483 2.532-27.544 23.938 0 0 14.015-17.979 35.242-15.191 0 0-18.158 2.762-24.04 16.138 0 0 17.851-9.745 30.971-9.463 0 0-4.629 1.56-6.471 2.941 0 0 14.322-1.176 14.91-.639l.844-6.394-3.375 1.586 3.195-8.593-3.963 1.202s4.193-7.263 6.035-9.258l-5.014 1.33s3.223-6.342 7.162-9.412l-2.559.486s5.934-6.419 10.154-8.9c0 0-6.727-.409-14.578 2.021l4.629-3.197s-6.777-1.074-15.907 2.072c0 0 6.497-8.517 16.726-9.488l-1.457-1.228s10.715-1.074 11.508-1.381l-.588-1.458s8.287 2.302 10.945 2.097l1.15 1.867s4.17 1.714 4.912 2.737l8.566-.23c.003 0 4.376-2.097 4.761-2.788z" fill-rule="evenodd" clip-rule="evenodd" fill="#915b1b"/><path d="M108.506 53.521s7.213-4.297 15.857-5.243c0 0 3.861 2.327 4.373 4.246l-5.551 1.458s1.791-2.148 2.047-3.273c0 0-1.305-.562-4.221-.486l-.512 2.021-2.762-1.356s-2.607.537-3.426 1.305c0 0 .484.793.818.997l-6.623.331z" fill-rule="evenodd" clip-rule="evenodd" fill="#fff"/><path d="M122.828 73.212s-11.662 5.473-9.359 18.363c0 0 .92-.103 3.605-1.433l-2.736 6.573 11.328-1.202-2.48 2.097s3.939-.46 12.762-2.583l-1.457 1.841s10.92-3.862 15.422-7.826l-.104-1.56s-10.588 1.355-18.668-1.637c0 0-9.004.742-14.654 3.632 0 0-3.76-7.826 7.748-15.421l-1.407-.844z" fill-rule="evenodd" clip-rule="evenodd" fill="#915b1b"/><path d="M123.672 79.12s-3.197 3.836-4.041 6.24c0 0 8.006-2.199 12.303-1.995 0 0 .74-2.813 1.176-4.348 0 0-2.455-.588-3.914-.051l1.127 2.276-6.651-2.122z" fill-rule="evenodd" clip-rule="evenodd" fill="#c29e73"/><path d="M149.707 70.502s-4.732 2.736-12.354 3.657c0 0-1.943 6.88-1.406 10.614 0 0 2.227 1.048 6.344.792 0 0 4.449-4.808 7.416-15.063zM153.543 70.809s-3.375 8.158-8.541 14.833c0 0 3.477.307 5.191-1.279 0 0 3.35-3.401 5.779-11.611.001 0-1.329-1.815-2.429-1.943z" fill-rule="evenodd" clip-rule="evenodd" fill="#fff"/><path fill-rule="evenodd" clip-rule="evenodd" d="M181.547 144.515h-.895v-2.686h-.742v-.767h2.404v.767h-.767v2.686zM183.287 141.062h.895l.689 1.841.742-1.841h.895l.512 3.453h-.895l-.256-1.995-.818 1.995h-.358l-.793-1.995h-.025l-.281 1.995h-.897l.59-3.453z"/></svg>