<svg xmlns="http://www.w3.org/2000/svg" width="2500" height="2500" viewBox="0 0 192.756 192.756"><g fill-rule="evenodd" clip-rule="evenodd"><path fill="#fff" d="M0 0h192.756v192.756H0V0z"/><path d="M171.971 94.162c-7.451 0-14.674-6.305-21.094-5.732 0 0 2.523-1.375 7.338-2.292 4.814-.917 8.713-2.981 14.559-10.547 0 0-5.389 3.095-8.598 3.554-3.211.458-12.496 2.064-14.215 8.598 0 0-1.586-.417-2.264.387l-5.109-18.996-.297.114-36.914 14.215-.23.089 4.016 17.831.279-.062c2.205-.5 5.143-.971 8.428-1.402l-16.97 7.811c-2.33-1.848-4.896-2.793-6.54-2.793-4.013 0-6.305 3.898-6.305 7.223 0 .125.002.246.004.369-.509.213-1.231.586-1.422 1.049a.641.641 0 0 0 .016.545c.291.58.908 1.057 1.504 1.516l.168.131c1.334 8.484 7.366 11.18 11.423 11.18.637 0 1.221-.084 1.756-.234l7.645-.109 3.096-.115s1.154.031 2.396.146l-2.512-.49s-.688-.803-2.062-.574c-1.375.23-2.637-.229-2.637-.229l-4.326.629c.188-.127.365-.264.535-.41l3.676-1.021-3.027.361c.879-1.039 1.451-2.383 1.748-3.83l32.713 5.74c2.934 3.785 7.037 6.385 11.27 6.385 7.574 0 9.123-6.434 9.273-10.818l2.283.346.279 1.402 4.75.492-.119-1.146 1.334.203c-1.309 2.32-4.377 3.195-8.891 2.529l-.051.34c5.988.885 8.365-1.041 9.305-2.814l1.469.223v.904h1.117v-9.496l-1.117-.373v3.414l-1.012-.152a16.649 16.649 0 0 0-1.098-3.336l.018-.01c-.021-.033-.043-.062-.064-.094-.846-1.871-2.01-3.648-3.307-5.059-3.27-3.555-10.08-6.4-15.285-8.178l-2.568-4.27c2.08-.141 3.354-.217 3.414-.219l.352-.021-1.682-6.254c.355.123.826.257 1.199.257.688 0 1.561-.659 3.209-.229 2.637.688 11.234 7.68 17.426 7.68 2.293 0 5.043.918 12.494-7.106-.001-.003-5.274 2.748-10.776 2.748z"/><path d="M114.641 126.637l2.762.541c-.485-.27-1.659-.438-2.762-.541z"/><path d="M87.166 113.867c-.009-.018-.014-.033.001-.07.083-.201.485-.447.908-.645.024.627.071 1.229.139 1.805-.444-.35-.858-.711-1.048-1.09zM125.471 76.339l5.383 3.971-2.746 2.589 5.078-.813 4.361 3.334-1.205-3.879 6.982-1.396-7-1.12 1.182-4.986-4.656 4.39-7.291-2.123 16.641-6.409 5.084 18.902c-.338.227-1.332.601-3.973.09-4.045-.783-26.365-11.753-36.789-1.838l-.707-3.143 19.656-7.569z" fill="#fff"/><path fill="#fff" d="M140.088 80.208l-4.481.896.86 2.77-3.129-2.392-3.483.557 1.891-1.783-3.476-2.564 4.734 1.378 3.504-3.302-.883 3.726 4.463.714zM119.508 99.797l-.037-.082c.561-.068 1.129-.137 1.705-.205l-19.428 8.943a13.492 13.492 0 0 0-.357-.318l18.117-8.338zM144.139 100.098l-.723-2.592.982-.068 1.996 3.32a63.506 63.506 0 0 0-2.255-.66zM146.662 101.201l1.186 1.969a37.803 37.803 0 0 0-3.01-.564l-.592-2.121c.422.115 1.283.361 2.416.716zM145.107 105.715c-.18-.02-.363-.037-.547-.049l-2.25-8.08c.176-.014.352-.025.523-.037l2.274 8.166zM137.811 102.178c-.908.588-4.012 1.066-4.932 1.27-.834.186-.994 1.271-1.023 1.68.365.582.701 1.023.848 1.209l2.521-1.025c.881-.762 1.803-1.398 2.613-1.633a4.058 4.058 0 0 0-.027-1.501z"/><path d="M141.729 97.629c-2.113.156-4.52.342-7.066.557a3.988 3.988 0 0 1 1.535.771 5.638 5.638 0 0 1 1.492 1.801c.158-.088.381-.188.693-.291 1.375-.459 2.521-2.178 2.521-2.178 0 1.49-1.605 2.408-1.605 2.408 1.031.688 3.096-.23 3.096-.23-1.834 1.949-3.783.803-3.783.803s-.203 0-.514.572c.195.781.152 1.406.102 1.758.348-.047.668-.006.947.152a20.91 20.91 0 0 1 3.713-2.062l-1.131-4.061zM138.822 103.98c-3.498 2.514-5.693 5.551-6.373 6.566l-.488-1.264c1.437-1.825 5.137-5.913 6.861-5.302z" fill="#fff"/><path d="M135.98 99.225a5.235 5.235 0 0 1 1.422 1.748c-.166.184-.053.297-.053.297s-2.75.115-4.127-.229c-1.09-.273-2.254.031-2.688.168.078-1.041.803-2.014 1.863-2.49 1.195-.533 2.533-.344 3.583.506z" fill="#fff"/><path d="M132.258 98.404c-1.221.549-2.014 1.643-2.072 2.857-.117 2.445 2.232 5.273 2.332 5.393l.082.096 1.906-.785a32.562 32.562 0 0 0-2.689 2.947l-1.914-4.947-4.4-.064 2.049-5.07c1.594-.156 3.188-.303 4.748-.441l-.042.014zM125.154 103.842l.135.055-.781-.012 2.002-4.951.654-.064-2.01 4.972zM124.139 103.879l-2.23-.033.057.463-10.52.312 11.549-5.316c1.033-.115 2.078-.225 3.129-.332l-1.985 4.906zM102.195 108.879l8.451-3.891 11.348-.338-.004-.143 1.043 8.566-19.445-2.594a14.807 14.807 0 0 0-1.393-1.6zM106.137 120.508c.1-.635.146-1.281.146-1.928 0-2.957-.902-5.449-2.244-7.461l23.268 3.098-9.32 2.639c.6-.514 1.346-1.166 1.689-1.924.164-.359.232-.811.039-1.07-.158-.213-.545-.314-.803-.281-.32.043-.594.295-.752.695-.396 1.004-2.102 2.033-2.725 2.346a1.56 1.56 0 0 0-.52.438c.303-.773.795-1.801.996-2.473.201-.67-.15-1.152-.477-1.26-.406-.133-1.016.172-1.203.697-.275.77-1.406 4.076-1.486 4.316l-.059.016c.156-.789.77-3.408.914-4.227.129-.732-.059-1.127-.555-1.205-.381-.059-.936.244-1.084.857-.096.393-.57 3.094-.758 4.166-.629-1.412-1.777-4.262-2.113-5.061-.273-.65-.846-.77-1.191-.639-.32.125-.572.516-.404 1 .203.584 2.107 5.078 2.447 5.885l-3.354.949.352.566-.803-.139z" fill="#fff"/><path d="M119.299 114.07a.364.364 0 0 0-.342-.148c-.193.025-.367.199-.477.48-.525 1.33-2.869 2.514-2.893 2.525-.352.176-.574.572-.678.799l2.297-.674c.732-.49 1.711-1.494 2.104-2.355.11-.24.106-.468-.011-.627zM114.223 117.92l-1.074.305c.275-.805 1.168-3.416 1.408-4.086.119-.338.471-.475.723-.393.246.082.322.342.211.715-.338 1.125-1.275 3.43-1.285 3.453l.017.006zM112.898 113.336c-.223-.047-.508.139-.602.527-.104.428-.744 3.936-.863 4.598.041.094.076.17.1.221l.783-.221c.09-.451.689-3.488.848-4.381.07-.404-.033-.695-.266-.744zM111.197 118.777l-.92.26c-.279-.658-2.256-5.324-2.457-5.9-.096-.281.033-.502.203-.566.178-.068.455.02.652.488.411.976 2.179 4.945 2.522 5.718zM107.123 120.289l24.762-7.01.256.412-24.762 7.01-.256-.412zM123.469 120.463l1.887.266-1.135 2.143-1.156-.203c.251-.333.599-1.028.404-2.206zM123.24 120.084a1.386 1.386 0 0 0-.873-.584l-4.191-.766-.172.287-2.145-.363 12.465-3.529-2.797 5.275-2.287-.32zM117.137 121.92c-.918-.17-4.203-.789-4.781-.98-.605-.203-1.168-.553-1.441-.883l4.176-1.182 2.564.436c.179 1.201-.368 2.328-.518 2.609z" fill="#fff"/><path d="M117.053 122.424l-8.949-1.57 2.455-.695c.322.482 1.059.896 1.689 1.107.613.205 3.992.838 4.865 1l-.06.158zM117.398 122.484l.064-.174c.211-.297.994-1.486.773-3.006l.002-.006.111-.184c.609.109 3.443.621 3.949.723.297.059.486.225.588.346.295 1.387-.299 2.291-.439 2.471l-1.119.52-3.929-.69zM123.826 123.613l-1.906-.336.723-.334 1.408.246-.225.424zM124.184 123.676l4.599-8.678.545-.154-4.721 8.906-.423-.074zM132.736 122.678c-.889-.027-1.662.516-1.863.861-.121.207-.562.32-.76.391-.023-.006-.043-.012-.068-.016-.814-.156-2.955-.537-4.689-.844l1.152-2.174c2.012.305 4.732.748 6.562 1.176.344.08.654.18.93.295-.168.11-.594.332-1.264.311zM124.963 123.812l.225-.422c1.75.309 3.963.701 4.793.861.791.152 1.117.445 1.254.66l-6.272-1.099z" fill="#fff"/><path d="M134.428 114.797c0 4.004 1.479 8.062 3.822 11.348l-2.539-.447c.158-.512.449-1.518-.078-2.438-.414-.723-1.25-1.234-2.484-1.523-1.805-.42-4.465-.857-6.469-1.16l3.107-5.861 2.887-.818-.635-1.02-3.359.951-5.293-.707-1.09-8.926 7.369.111 4.084 10.553.322-.125-1.418-3.66c.311-.496 2.623-4.041 6.613-6.848 1.066.658 1.66 1.271 1.973 1.672-3.246.777-6.812 3.314-6.812 8.898zM141.611 105.818c-.295-.414-.893-1.08-2.035-1.805a20.309 20.309 0 0 1 3.406-1.879l.975 3.498a9.776 9.776 0 0 0-2.346.186zM145.725 105.795l-.787-2.826a39.59 39.59 0 0 1 3.156.609l2.27 3.773a14.264 14.264 0 0 0-4.639-1.556zM165.635 122.156c-.115-.568-.537-2.6-.781-3.295l.391.059c.125.48.568 2.232.74 3.289l-.35-.053zM161.24 118.312l.799 3.297-.352-.053c-.096-.42-.535-2.312-.812-3.301l.365.057zM161.322 121.5l-2.029-.309c-.043-1.006-.238-2.113-.582-3.264l1.789.271c.246.839.676 2.677.822 3.302zM162.141 123.811l-.205-1.03.478.073.041.369 3.326.515v-.373l.352.053.086.816-4.078-.423zM167.982 123.352l-8.684-1.32c.004-.166.004-.328.004-.49l8.871 1.35c-.056.157-.12.309-.191.46zM168.34 123.406a6.27 6.27 0 0 0 .182-.463l1.711.26-.059.482-1.834-.279zM170.424 124.512h-.43v-.506l.43.064v.442zM170.424 122.885l-.43-.067v-3.175l.43.064v3.178zM169.994 115.465l.43.144v2.912l-.43-.066v-2.99zM170.232 118.84l-.059.482-1.385-.211a16.382 16.382 0 0 0-.08-.504l1.524.233zM168.832 119.465l.818.125v3.176l-1.023-.154c.269-.96.324-2.028.205-3.147zM168.277 122.559l-1.938-.295c-.148-.986-.561-2.641-.725-3.287l2.842.432c.134 1.132.089 2.206-.179 3.15zM168.41 119.055l-9.814-1.494a14.394 14.394 0 0 0-.176-.518l9.902 1.506c.033.17.063.338.088.506zM164.42 117.607c-.635-1.686-2.83-7.004-3.053-7.396-.23-.4-3.439-1.775-3.439-1.775l-1.318 1.203.688 2.35s1.547.459 2.006.918c.408.406 1.355 3.477 1.564 4.162l-.377-.059c-.174-.586-.951-3.137-1.361-3.49-.379-.324-1.334-.801-1.828-.842l-1.184-3.123c.229-.287 1.012-1.285 1.316-1.859 1.602.828 3.953 2.109 4.264 2.459.406.457 2.449 5.484 3.213 7.527l-.491-.075z" fill="#fff"/><path d="M168.25 118.191l-2.951-.449c-.549-1.49-2.84-7.248-3.346-7.816-.465-.525-4.105-2.406-4.52-2.619l-.168-.086-.07.176c-.217.543-1.396 2.004-1.408 2.02l-.061.076 1.346 3.549.139-.023c.264-.043 1.293.42 1.693.764.252.215.852 1.984 1.211 3.172l-1.832-.279c-.873-2.279-2.301-4.627-4.246-6.568l-3.553-5.902c5.5 1.586 12.615 4.705 16.648 10.689a16.63 16.63 0 0 1 1.118 3.296z" fill="#fff"/><path d="M163.934 109.984a18.094 18.094 0 0 1 2.254 3.078c-4.297-5.131-10.877-7.865-15.961-9.291l-1.047-1.74c5.111 1.774 11.613 4.537 14.754 7.953zM152.596 108.824c-.383-.303-.779-.59-1.193-.857l-6.363-10.574.652-.045 6.904 11.476zM122.91 98.738l-.01-.021-.062.029c-4.801.531-9.303 1.141-12.564 1.809 1.012-.678 5.576-3.623 10.684-5.017 7.422-2.024 24.66-3.827 26.828-4.869l1.578 5.865c-2.278.14-15.173.956-26.454 2.204z" fill="#fff"/><path d="M112.387 106.428l-1.055 1.146h-1.18l.467.776-.896.972 1.162-.533.527.877.393-1.297 1.728-.795h-1.49l.344-1.146zM119.209 106.686l-1.158 1.578h-1.307l.592.972-1.223 1.662 1.617-1.011.963 1.586.252-2.346 1.381-.863h-1.287l.17-1.578zM127.832 107.5l.086-2.168-1.402 2.234-1.61.08.754 1.282-1.18 1.881.239.234 1.586-1.022 1.336 2.272.127-3.215 2.65-1.707-2.586.129z"/><path fill="#fff" d="M127.432 108.887l-.09 2.224-.924-1.572-1.236.797.88-1.402-.572-.973 1.221-.061.812-1.293-.05 1.256 1.677-.084-1.718 1.108zM113.275 91.87l-2.062-.917s3.783-4.356 12.266-2.063l-6.305 1.49s-2.232-1.401-3.555-.344c-.572.458-.344 1.834-.344 1.834zM114.115 92.715c.016-.014 1.76-1.432 4.35-1.995l-.156-.053c-2.621.57-4.252 1.948-4.268 1.961l.074.087z"/><path fill="#fff" d="M114.949 90.338l.994.637-.113-.185-.687-.458-.194.006z"/><path d="M130.033 114.586l5.446.725.076-.569-4.729-.633-.793.477z"/><path fill="#fff" d="M131.273 102.188h1.034l-.575.572-.459-.572z"/><path d="M117.346 122.133s3.469 1.004 4.672.775l-.545.543-4.613-.83.486-.488z"/><path d="M95.164 109.523c2.981 0 5.961 5.502 5.961 9.4s-4.033 2.996-5.847.307c-2.293-3.402-4.05-9.707-.114-9.707z" fill="#fff"/><path d="M94.972 109.982c1.682 0 3.018 1.949 3.897 3.324s1.873 3.898 1.873 5.158c0 1.262-.344.459-.344.076 0-.381-.496-2.98-1.873-5.043-1.375-2.064-2.521-2.865-3.629-2.865s-1.299 1.834-1.299 2.369c0 .533.268 3.783 2.56 6.305 0 0-2.942-3.248-2.942-6.039-.001-2.788 1.222-3.285 1.757-3.285z"/><path d="M144 111.014c4.184 0 9.4 6.592 9.4 11.521s-3.039 4.643-4.242 4.643c-4.014 0-8.484-6.305-8.484-11.75 0-2.867 1.836-4.414 3.326-4.414z" fill="#fff"/><path d="M144.572 111.816s3.727.287 6.305 4.701c2.58 4.412 2.58 7.852 1.09 9.055l-.459-.113s2.822-1.695-.918-8.598c-2.235-4.127-6.018-5.045-6.018-5.045zM142.795 112.217s-1.604 1.262-1.375 3.611c.229 2.352 2.865 10.719 8.139 10.719l-.285.23s-3.67 0-6.076-4.529c-2.409-4.527-3.153-8.769-.403-10.031zM156.609 130.961s6.076-4.586 10.891-3.896c0 0-3.439.457-4.93 1.145l-1.031.574h1.834c0-.001-4.93 1.03-6.764 2.177zM156.725 131.42s8.023-3.439 16.393-1.949l-.459.344c-.001-.001-6.534-1.262-15.934 1.605zM134.162 138.643l4.067-8.713H126.57l-4.066 8.713h3.984l-7.08 15.168h-4.289l-4.314 9.316h11.99l4.316-9.316h-4.355l7.078-15.168h4.328zM62.549 138.643l4.066-8.713H50.221l-4.066 8.713h5.302l-11.078 15.168H36.6l-4.316 9.316h10.96l4.316-9.316h-3.835l3.543-4.852h7.714v4.852h-3.73l-4.315 9.316h10.959l4.316-9.316h-3.905v-15.168h4.242z"/><path fill="#fff" d="M54.982 146.322h-5.788l5.609-7.679h.179v7.679z"/><path d="M97.127 138.643l4.064-8.676H90.459l-4.065 8.676h4.151l-7.82 16.755v-25.431h-.058.054-6.706l-4.066 8.676h4.152l-7.08 15.168H64.83l-4.316 9.316h11.992l4.316-9.316h-4.454l6.732-14.426v23.742h3.346l11.445-24.484h3.236zM37.31 129.871H23.625l-4.065 8.771h4.906l-7.079 15.119H12.82l-4.316 9.365h13.779c7.194-.166 8.383-3.631 8.995-4.996.627-1.398 1.62-3.979 3.569-7.646 1.949-3.668-.613-5.078-.613-5.078 1.605-.459 2.83-2.648 3.157-3.518.326-.867 2.006-4.162 3.43-7.352 1.424-3.186-1.2-4.665-3.511-4.665z"/><path d="M31.023 150.793c-1.172 2.877-2.74 2.971-4.428 2.969h-5.863l3.268-6.98h6.105c2.408-.001 2.179.917.918 4.011zM34.233 141.967c-1.216 2.674-2.981 2.293-4.127 2.293h-4.925l2.63-5.617h4.931c3.211 0 2.637.8 1.491 3.324z" fill="#fff"/><path d="M114.713 129.936h-10.727l-4.066 8.707h4.129l-7.08 15.162h-4.282l-4.316 9.254h14.186c5.273 0 6.191-1.604 7.871-4.928l9.898-21.438c1.301-2.927 2.506-6.394-5.613-6.757z"/><path d="M114.803 141.391l-4.109 8.918c-1.949 4.127-5.51 3.496-7.229 3.496h-3.15l7.08-15.162h4.793c2.521 0 3.876.57 2.615 2.748z" fill="#fff"/><path d="M160.213 148.846h-3.342l-6.668 13.938h2.68l2.408-1.902s.572 2.523 3.668 2.523h6.648c1.033 0 3.182.41 5.697-4.98 1.225-2.623 2.393-5.131 3.133-6.713s.457-3.898-2.18-5.389-8.469-3.775-7.566-5.732c.688-1.49 2.406-1.375 3.324-1.375h5.846c1.491 0 1.836 1.031 1.146 2.408-.688 1.375-.801 1.719-.801 1.719h4.135l5.91-12.662h-2.887l-2.115 1.887s0-2.293-3.324-2.293h-6.992c-1.262 0-3.615.779-4.93 3.439-1.316 2.66-2.482 5.236-3.01 6.291-.527 1.053-.201 3.568 2.322 5.057 2.521 1.49 4.471 2.639 5.846 3.326s1.834 1.834 1.031 3.668-1.604 2.178-3.553 2.178h-5.848c-1.373-.002-2.707-.826-.578-5.388zM140.055 94.181l.291-.884-1.557.175-.291.883.533-.059-.508 1.539-.572.064-.306.945 1.601-.18.307-.945-.582.066.506-1.539.578-.065zM130.49 95.254l.291-.884-2.191.246-.289.884.707-.08-1.041 1.6-.504.056-.309.944 1.465-.165.307-.945-.512.059.332-.512 1.031-.115.141.459-.498.054-.307.946 1.463-.164.307-.946-.522.059-.437-1.433.566-.063z"/><path fill="#fff" d="M129.701 96.093l-.773.087.527-.81.024-.003.222.726z"/><path d="M135.109 94.736l.291-.881-1.433.161-.293.881.555-.063-.559 1.7-.736-2.402-.008.001.008-.001-.897.101-.291.88.555-.062-.508 1.539-.561.062-.306.946 1.601-.18.309-.945-.596.066.483-1.463.685 2.242.447-.05.821-2.484.433-.048zM143.592 92.933l-2.897.325-.291.884.006-.001-.215.651.448-.05.212-.651.682-.076-.506 1.538-.595.068-.307.943 1.709-.191.307-.944-.666.074.505-1.539.875-.098-.214.652.447-.051.353-1.075-.004.001.151-.46zM126.865 94.804l-1.828.205-.289.889.654-.073-.508 1.535-.609.068-.307.949 1.84-.207h.002c.955-.123 1.014-.469 1.057-.607.043-.141.102-.4.254-.775.154-.375-.229-.471-.229-.471.201-.066.303-.291.32-.379.02-.087.148-.423.246-.746s-.294-.423-.603-.388z"/><path d="M126.631 96.873c-.074.289-.281.322-.506.348l-.783.088.234-.709c.223-.024.6-.066.814-.092.323-.035.319.054.241.365zM126.803 95.992c-.084.272-.33.262-.484.28-.121.012-.506.057-.658.072l.189-.569.658-.074c.43-.049.375.036.295.291z" fill="#fff"/><path d="M137.205 93.65l-1.432.161-.291.883.551-.062-.508 1.538-.572.064-.307.939 1.895-.213c.703-.078.779-.244.908-.584l.701-2.173c.09-.295.151-.64-.945-.553z"/><path d="M137.549 94.73l-.291.904c-.141.418-.635.413-.863.439l-.422.047.508-1.539.641-.071c.335-.038.532-.004.427.22z" fill="#fff"/><path d="M143.83 94.754l-.445.05-.488 1.417.359-.04.266-.215s.15.23.562.183l.889-.1c.137-.016.438-.01.617-.556.088-.266.17-.521.225-.681.053-.161-.053-.375-.447-.477-.396-.101-1.24-.229-1.178-.428.049-.151.281-.166.404-.18l.781-.088c.199-.023.275.07.223.21s-.057.174-.057.174l.553-.062.422-1.285-.385.043-.229.21s-.066-.216-.51-.167l-.936.105c-.168.019-.459.127-.559.398-.098.271-.18.532-.219.64-.041.107.076.34.455.443.381.103.674.182.877.226.205.044.299.146.244.332-.053.185-.15.23-.41.259l-.781.087c-.183.02-.385-.035-.233-.498zM67.249 112.391c-2.877-.039-6.963.586-11.005 1.031l1.376-6.42-7.13 6.828c-5.74.762-10.41 1.541-10.41 1.541l6.326 2.371-7.473 7.029 11.12-5.045 3.21 8.025 2.101-10.008 11.885-5.352z"/><path fill="#fff" d="M43.519 121.561l4.241-4.243-4.241-1.718 7.107-.918 5.159-4.93-.917 4.357 8.942-.918-9.286 3.67-1.72 7.336-2.063-5.845-7.222 3.209z"/><path d="M77.337 119.039l3.095-3.439v3.211h5.503l-6.19 2.978-.688 6.191-2.179-4.242-5.273 2.293 3.554-4.699-3.21-2.178 5.388-.115z"/><path fill="#fff" d="M79.515 117.549l-1.834 1.949-3.554.229 2.178 1.261-2.292 2.981 3.324-1.606L78.483 125l.688-3.783 3.439-1.606h-3.095v-2.062z"/><path d="M76.076 81.208l5.503-5.044-5.159-1.261 8.139-.917 5.274-4.127-1.72 3.783 4.586.459-5.847 2.522-2.98 6.993-.803-5.045-6.993 2.637z"/><path d="M105.652 73.872c-1.324.22-4.523 4.56-9.191 12.267-1.459.185-3.086.426-4.335.573 0 0-.688.917-.803 1.605-.114.688 1.949.114 2.98-.115.168-.037.49-.08.916-.127-1.392 1.966-4.224 5.72-5.157 7.12-1.146 1.72-5.273 6.878-5.961 7.451-.688.574-1.834 2.293-.917-.572s4.471-9.286 5.388-11.12c.917-1.834 3.231-5.158.458-5.158-1.834 0-7.451 6.419-7.451 6.419s2.407-4.93 2.866-5.961c.458-1.032-.803-2.522-1.949-1.376s-12.61 15.247-13.184 15.934c-.573.688-1.261.918 0-1.146 1.261-2.062 7.894-12.888 9.286-13.87 1.949-1.376-1.49-1.834-2.866-.344-1.375 1.49-5.502 7.566-7.107 9.171-1.605 1.605-5.273 5.733-5.847 6.19-.573.459-2.407 1.721-1.031-.344 1.375-2.062 4.585-6.993 6.648-9.285 2.064-2.292 3.783-4.242 4.586-4.815.802-.573.573-2.178-1.146-1.949s-5.273 1.949-4.127 0 2.293-4.242.917-4.471c-1.375-.229-3.324 2.866-4.127 4.013s-1.49 2.293-1.032 3.668c0 0-1.605 3.21-3.898 5.846-2.293 2.637-6.534 7.336-8.368 8.483s-.344 1.49.917.803 4.7-1.949 13.527-14.788c0 0 1.261.574 4.127-1.146 0 0-1.49 2.293-3.668 4.242-2.178 1.949-9.515 10.431-7.222 12.611 2.293 2.178 7.795-5.045 7.795-5.045s-1.834 6.076 0 6.076 2.063.115 11.922-12.839c0 0-5.044 9.628-5.388 10.431-.344.803-.344 1.721 0 2.18.344.457.917 1.604 1.834.344.917-1.262 8.712-13.872 12.266-16.165 0 0-1.261 2.637-2.522 5.044-1.261 2.408-5.388 10.203-2.98 11.234 2.407 1.033 3.668-.916 8.942-8.139 0 0-3.554 7.682-.115 7.682 3.439 0 6.19-4.014 7.681-5.732 1.49-1.721 4.93-6.535 5.387-7.337.459-.803.115-1.49-.572-.688-1.119 1.306-7.337 9.859-9.974 11.005s-1.49.115-.458-2.293c.933-2.178 4.022-8.386 5.877-11.673 2.076-.179 4.244-.359 4.898-.479 1.262-.229 1.146-1.719.115-1.719-.83 0-2.398.148-3.875.266 2.02-3.378 5.881-9.883 6.396-10.812.574-1.036.476-1.306-.458-1.15z"/><path d="M42.716 91.755c-.958.447-1.375 1.949.115 1.146 1.49-.802 6.649-4.012 7.222-4.241s-.229.573-.803 1.49c-.573.917-16.737 25.909-17.883 27.512-1.146 1.605-1.72 3.67-.229 2.293 1.491-1.375 4.585-3.783 13.642-18.111 0 0 .688 2.178 3.439.344 2.751-1.834 7.542-5.758 11.005-11.694.803-1.375 2.178-3.554 1.834-4.356-.344-.802-.458-2.064-1.604-1.376s-5.732 3.325-5.732 3.325.054-1.315.573-1.834c1.146-1.146 1.146-3.096 0-2.522-1.147.572-9.859 7.221-11.579 8.024z"/><path d="M57.963 86.711c-.82.615-6.305 5.617-7.452 6.878-1.146 1.261-3.668 4.471-4.012 5.502-.344 1.031-.917 3.209 1.604 1.146 2.522-2.064 8.599-9.4 9.974-12.152 1.377-2.75.803-2.062-.114-1.374z" fill="#fff"/><path d="M42.946 88.66l5.617-6.42s-1.146-1.49.917-3.324 7.566-6.076 7.566-9.859c0-3.783-4.127-3.783-7.108-2.637-2.98 1.146-7.207 1.622-17.769 10.776-3.439 2.98-5.388 7.566-5.388 9.515 0 1.949 1.49 4.241 4.929 5.388 3.439 1.146 4.701 1.834 4.701 4.7 0 9.057-16.852 26.711-22.584 26.711-4.471 0 1.146-12.037 3.095-14.789 1.949-2.75 7.336-9.4 9.515-9.514 0 0-.917-2.523-4.126-.803-3.21 1.719-12.954 12.494-12.954 20.291 0 7.795 4.929 8.482 11.349 3.896 6.42-4.586 18.801-16.967 18.801-25.678 0-8.713-9.744-4.357-9.744-10.089 0-7.222 18.113-19.03 24.991-19.03 3.783 0-1.146 4.7-4.242 6.993-2.739 2.03-12.611 10.663-7.566 13.873zM162.043 130.973c-2.277.316-5.266 1.002-6.471 1.445-1.385.869-3.164 1.402-5.439 1.402-3.322 0-6.572-1.465-9.33-3.822l-4.033 8.645h.043l-2.996 6.418h3.346l2.996-6.418h5.098l-7.078 15.168h-4.457l-4.316 9.316h12.801l4.316-9.316h-4.998l7.078-15.168h6.553l-2.996 6.418h3.346l6.537-14.088zM40.889 50.659c0 7.218-4.427 9.023-10.862 9.023s-10.861-1.805-10.861-9.023V38.368c0-7.218 4.426-9.022 10.861-9.022s10.862 1.804 10.862 9.022v12.291z"/><path d="M28.257 51.102c0 .204-.102 2.281 1.771 2.281s1.771-2.077 1.771-2.281V37.891c0-.204.102-2.247-1.771-2.247s-1.771 2.043-1.771 2.247v13.211z" fill="#fff"/><path d="M56.463 29.924h10.555v5.175c-1.226.681-1.124 1.771-1.124 2.86v11.814c-.068 3.099-.307 5.55-2.792 7.729-2.145 1.873-5.107 2.179-7.729 2.179s-5.584-.307-7.729-2.179c-2.486-2.179-2.724-4.63-2.792-7.729V37.959c0-1.09.103-2.179-.987-2.86v-5.175H54.93v5.175c-1.089.681-.987 1.771-.987 2.86v13.312c0 .579.136 2.077 1.805 2.077 1.668 0 1.805-1.498 1.805-2.077V37.959c-.034-1.09.068-2.179-1.09-2.86v-5.175zM69.114 29.924h25.162v13.177H87.84v-4.903c0-1.328-.306-2.043-1.6-2.077v14.947c0 1.089-.103 2.179.987 2.86v5.175H76.162v-5.175c1.09-.681.988-1.771.988-2.86V36.121c-1.294.034-1.6.749-1.6 2.077v4.903h-6.435V29.924h-.001zM95.884 59.103v-5.175c1.089-.681.987-1.771.987-2.86V37.959c0-1.09.103-2.179-.987-2.86v-5.175h11.065v5.175c-1.09.681-.988 1.771-.988 2.86v14.947h.887c2.314 0 2.281-1.396 2.281-3.234v-4.733h8v14.164H95.884zM129.141 59.103h-10.045v-5.175c.988-.681 1.09-2.179 1.361-3.302l3.848-20.702h12.939l4.256 21.144c.17.919.51 2.554 1.531 2.86v5.175h-11.473v-5.175c.715-.272 1.055-.817 1.055-1.6 0-.307-.068-.579-.137-.851h-4.393c-.066.272-.135.579-.135.851 0 .817.408 1.396 1.191 1.6v5.175h.002z"/><path fill="#fff" d="M131.66 45.791l-1.498-8.649h-.068l-1.43 8.649h2.996z"/><path d="M166.854 29.924h9.84v5.175c-1.021.817-1.123 2.145-1.361 3.371l-3.848 20.633h-8.75l-2.553-13.925h-.068l-2.826 13.925h-8.58L144.86 38.47c-.238-1.192-.477-2.622-1.498-3.371v-5.175h11.371v5.175c-.646.272-.953.852-.953 1.566l1.125 9.193h.066l3.064-15.935h5.584l3.201 15.901h.068l.918-9.159c0-.715-.305-1.294-.953-1.566v-5.175h.001zM174.262 159.191c0-1.59 1.289-2.762 2.812-2.762 1.508 0 2.797 1.172 2.797 2.762 0 1.604-1.289 2.773-2.797 2.773-1.523.001-2.812-1.169-2.812-2.773z"/><path d="M177.074 161.504c1.252 0 2.24-.98 2.24-2.312 0-1.312-.988-2.301-2.24-2.301-1.268 0-2.256.988-2.256 2.301 0 1.331.989 2.312 2.256 2.312z" fill="#fff"/><path d="M176.488 160.795h-.482v-3.193h1.215c.754 0 1.127.277 1.127.908 0 .57-.359.82-.826.879l.906 1.406h-.541l-.842-1.385h-.557v1.385z"/><path d="M177.066 159c.41 0 .777-.029.777-.52 0-.395-.359-.469-.697-.469h-.658V159h.578z" fill="#fff"/></g></svg>