<svg xmlns="http://www.w3.org/2000/svg" width="2500" height="2500" viewBox="0 0 192.756 192.756"><g fill-rule="evenodd" clip-rule="evenodd"><path fill="#fff" d="M0 0h192.756v192.756H0V0z"/><path d="M27.086 81.133c.416.404.622 1.277.622 2.618v3.225c0 1.455-.179 2.413-.539 2.874-.358.461-1.001.69-1.927.69-.208 0-.457-.007-.742-.024v-9.991c1.309.001 2.171.204 2.586.608zm-12.913 32.176H24.5V97.348h2.748c2.236 0 4.045-.309 5.432-.928 1.385-.619 2.337-1.507 2.856-2.664.518-1.157.779-2.997.779-5.522v-3.446c0-2.476-.134-4.304-.404-5.485s-.78-2.186-1.539-3.018c-.756-.831-1.886-1.465-3.392-1.905-1.507-.44-3.658-.66-6.458-.66h-10.35v39.589h.001zM48.618 92.34v-2.364c0-1.819.082-2.937.246-3.351s.59-.622 1.276-.622c.556 0 .925.245 1.104.731.179.488.269 1.568.269 3.242v2.364h-2.895zm12.754 1.021c0-3.143-.362-5.581-1.086-7.316-.723-1.733-1.983-3.126-3.781-4.177-1.797-1.051-4.076-1.576-6.841-1.576-2.262 0-4.261.437-6.002 1.307-1.739.871-2.991 2.124-3.755 3.759-.765 1.636-1.146 3.87-1.146 6.7v9.448c0 2.408.17 4.242.513 5.504.34 1.262.954 2.416 1.841 3.467.886 1.049 2.125 1.875 3.72 2.477 1.594.602 3.431.904 5.512.904 2.146 0 3.932-.307 5.355-.914a8.618 8.618 0 0 0 3.523-2.74c.928-1.219 1.516-2.363 1.768-3.436.251-1.072.379-2.607.379-4.607v-2.387h-9.39v4.271c0 1.611-.125 2.697-.372 3.258-.249.562-.742.842-1.478.842-.594 0-.996-.211-1.203-.635-.208-.424-.312-1.369-.312-2.836V97.66h12.754v-4.299h.001zM88.561 73.719v5.164H78.389v-5.164h10.172zm0 7.12v32.47H78.389v-32.47h10.172zM113.936 93.123h-9.311v-3.757c0-1.308-.107-2.196-.324-2.663-.215-.467-.611-.701-1.188-.701-.578 0-.967.204-1.166.612-.197.408-.295 1.322-.295 2.74v15.317c0 1.158.148 2.025.449 2.605.299.58.74.867 1.322.867.682 0 1.145-.301 1.387-.906.24-.604.363-1.75.363-3.434V99.93h8.762c-.018 2.592-.109 4.533-.281 5.828s-.719 2.623-1.641 3.982a8.756 8.756 0 0 1-3.607 3.08c-1.484.689-3.32 1.037-5.506 1.037-2.789 0-5-.477-6.63-1.428-1.631-.951-2.786-2.287-3.462-4.004-.678-1.717-1.015-4.154-1.015-7.311V91.91c0-2.751.276-4.825.831-6.225.556-1.399 1.737-2.648 3.549-3.748 1.809-1.098 4.012-1.647 6.606-1.647 2.576 0 4.779.546 6.605 1.638 1.824 1.091 3.041 2.469 3.645 4.13.604 1.663.907 4.019.907 7.065zM139.408 80.839v32.47h-10.027l.168-2.711c-.682 1.086-1.521 1.902-2.518 2.445-1 .541-2.148.814-3.447.814-1.477 0-2.703-.262-3.676-.781-.977-.521-1.693-1.215-2.156-2.078s-.75-1.764-.865-2.699c-.113-.938-.17-2.799-.17-5.586V80.839h9.859v22.095c0 2.529.076 4.029.229 4.502.154.475.568.709 1.246.709.725 0 1.156-.244 1.293-.732s.205-2.064.205-4.723V80.839h9.859zM153.207 73.719v39.59h-10.17v-39.59h10.17zM168.725 104.555c0 1.629-.098 2.635-.289 3.018s-.605.572-1.238.572c-.67 0-1.117-.242-1.344-.73-.225-.49-.338-1.572-.338-3.25 0-1.465.131-2.588.389-3.371.26-.781 1.199-1.75 2.82-2.908v6.669zm-3.209-14.529c0-1.815.084-2.94.25-3.374.168-.433.594-.65 1.279-.65.602 0 1.031.258 1.291.774s.389 1.623.389 3.325c0 1.359-.115 2.258-.344 2.698-.23.44-1.973 1.294-5.227 2.564-3.043 1.171-4.949 2.196-5.719 3.073-.768.879-1.152 2.529-1.152 4.953v2.658c0 3.27.721 5.389 2.166 6.357a8.369 8.369 0 0 0 4.758 1.451c1.324 0 2.461-.289 3.416-.863.951-.576 1.732-1.439 2.336-2.592v2.906h9.623V97.033c0-5.361-.172-8.901-.514-10.62-.344-1.718-1.363-3.169-3.061-4.35-1.695-1.181-4.219-1.772-7.562-1.772-2.791 0-5.059.522-6.805 1.563-1.746 1.043-2.908 2.245-3.488 3.604-.578 1.361-.869 3.295-.869 5.803v2.175h9.232v-3.41h.001zM75.826 115.123h.399v9.356h-.984v-.471H64.25v.471h-.987v-2.918h-1.629v-3.52h1.629v-2.918h.342v-.473l12.221.473z"/><path d="M63.605 114.65v.473h-.342v2.918h-1.629v3.52h1.629v2.918h.987v-.471h10.991v.471h.984v-9.356h-.399v-.473H63.605z"/><path fill="#fff" d="M63.263 118.834h-1.371v.709h1.371v-.709zM75.579 114.896v.227h-.338v.471H64.25v-.471h-.399v-.227h11.728z"/><path d="M64.679 81.195l.006-7.442a5.617 5.617 0 0 0 4.363-5.475h5.761v12.917h-10.13z"/><path d="M64.679 114.65l.006-40.897a5.617 5.617 0 0 0 4.363-5.475h5.761v46.373h-10.13v-.001z"/><path fill="#fff" d="M73.349 70.208h.816v-.814h-.816v.814zM73.349 71.75h.816v-.816h-.816v.816zM73.349 73.291h.816v-.818h-.816v.818zM73.349 74.831h.816v-.816h-.816v.816zM65.304 74.831h.816v-.816h-.816v.816zM73.349 76.37h.816v-.816h-.816v.816zM65.304 76.37h.816v-.816h-.816v.816zM73.349 77.91h.816v-.815h-.816v.815zM65.304 77.91h.816v-.815h-.816v.815zM73.349 79.451h.816v-.816h-.816v.816zM65.304 79.451h.816v-.816h-.816v.816zM73.349 80.992h.816v-.816h-.816v.816zM65.304 80.992h.816v-.816h-.816v.816zM73.349 82.532h.816v-.817h-.816v.817zM65.304 82.532h.816v-.817h-.816v.817zM73.349 84.073h.816v-.817h-.816v.817zM65.304 84.073h.816v-.817h-.816v.817zM73.349 85.613h.816v-.816h-.816v.816zM65.304 85.613h.816v-.816h-.816v.816zM73.349 87.154h.816v-.816h-.816v.816zM65.304 87.154h.816v-.816h-.816v.816zM73.349 88.694h.816v-.817h-.816v.817zM65.304 88.694h.816v-.817h-.816v.817zM73.349 90.234h.816v-.816h-.816v.816zM65.304 90.234h.816v-.816h-.816v.816zM73.349 91.775h.816v-.816h-.816v.816zM65.304 91.775h.816v-.816h-.816v.816zM73.349 93.317h.816V92.5h-.816v.817zM65.304 93.317h.816V92.5h-.816v.817zM73.349 94.855h.816v-.814h-.816v.814zM65.304 94.855h.816v-.814h-.816v.814zM73.349 96.395h.816v-.814h-.816v.814zM65.304 96.395h.816v-.814h-.816v.814zM73.349 97.936h.816v-.815h-.816v.815zM65.304 97.936h.816v-.815h-.816v.815zM73.349 99.477h.816v-.817h-.816v.817zM65.304 99.477h.816v-.817h-.816v.817zM73.349 101.018h.816v-.817h-.816v.817zM65.304 101.018h.816v-.817h-.816v.817zM73.349 102.557h.816v-.815h-.816v.815zM65.304 102.557h.816v-.815h-.816v.815zM73.349 104.098h.816v-.815h-.816v.815zM65.304 104.098h.816v-.815h-.816v.815zM73.349 105.637h.816v-.813h-.816v.813zM65.304 105.637h.816v-.813h-.816v.813zM73.349 107.18h.816v-.817h-.816v.817zM65.304 107.18h.816v-.817h-.816v.817zM73.349 108.719h.816v-.817h-.816v.817zM65.304 108.719h.816v-.817h-.816v.817zM73.349 110.26h.816v-.815h-.816v.815zM65.304 110.26h.816v-.815h-.816v.815zM73.349 111.801h.816v-.815h-.816v.815zM65.304 111.801h.816v-.815h-.816v.815zM73.349 113.34h.816v-.813h-.816v.813zM65.304 113.34h.816v-.813h-.816v.813z"/></g></svg>