<svg xmlns="http://www.w3.org/2000/svg" width="2500" height="2500" viewBox="0 0 192.756 192.756"><g fill-rule="evenodd" clip-rule="evenodd"><path fill="#fff" d="M0 0h192.756v192.756H0V0z"/><path fill="#7b002b" d="M165.857 127.153H10.626l18.437-56.681h155.189l-18.395 56.681z"/><path fill="#fce66f" d="M163.734 122.284H8.504L26.94 65.603h155.189l-18.395 56.681z"/><path d="M51.203 73.842c-1.207-2.247-3.579-2.497-7.616-2.497h-8.198l-9.614 29.215H32.6l.167-.458 3.621-10.196c2.622-.125 5.286.25 8.074-.958 1.041-.416 1.915-1.04 2.705-1.789l.208-.167c0-.042 0-.042.042-.083l.583-.666c.083-.042.125-.125.167-.166v-.042c1.373-1.706 2.289-3.829 2.872-5.702.125-.291.166-.583.25-.832l.208-.75c.455-1.829.538-3.494-.294-4.909zm-6.867 5.702a3.324 3.324 0 0 1-.25.916c-.333.999-.874 2.206-1.831 2.997-1.374.874-2.789.707-4.12.791l.167-.5 2.248-6.991h.749c1.082 0 2.04 0 2.622.208.458.25.625.791.625 1.373l-.042.416-.168.79zM63.854 86.036c1.04-4.287-1.956-5.452-5.286-5.452-5.785 0-8.157 2.872-8.989 5.369l-2.955 9.197c-1.041 3.371 1.457 5.701 4.953 5.659 3.371 0 7.408-.291 9.405-5.784l2.872-8.989zm-5.618.084c-.042.042-.042.083-.042.125l-.25.791c-.749 2.247-1.748 5.16-2.414 7.241l-.25.749c-.333.832-.791 1.415-1.831 1.415-.749-.083-1.415-.333-1.124-1.332l.208-.75c.499-1.54 1.873-5.66 2.414-7.324l.249-.791c.793-1.956 3.581-1.623 3.04-.124zM85.121 86.161l2.497-4.744h-5.285l-2.207 4.786-.374.874-2.913 6.283 2.122-11.943h-4.702L68.474 93.36l2.414-11.902h-5.202l-2.789 18.895h6.201l4.411-9.864-1.789 9.864h5.909l2.705-5.161h.042l.416-.833 3.913-7.407.416-.791zM95.774 80.668c-4.411 0-7.741 1.581-9.364 5.41l-2.871 8.281-.167.666c-.541 2.747.208 5.826 5.826 5.826 4.412 0 7.159-2.372 8.741-5.826l.332-.749h-.041c.082-.208.166-.416.25-.624h-5.66c-.083.208-.167.416-.25.666l-.416.791c-.541 1.041-1.166 1.582-2.414 1.582-.832 0-.999-.624-.832-1.582l.208-.75c.208-.832.583-1.831.958-2.871h9.155c.5-1.457 1.664-5.244 1.664-5.244a.18.18 0 0 1 .043-.125c1.041-3.703-1.666-5.451-5.162-5.451zm-4.411 7.199c.083-.291.208-.541.291-.791l.333-.874c.541-1.29 1.082-2.04 2.414-2.04 1.166 0 1.291.833.958 2.04l-.25.791h.042a7.436 7.436 0 0 1-.333.874h-3.455zM108.885 83.373c.166-.583.541-1.707.541-1.707h-5.369l-6.16 18.687h5.244l2.039-5.993c1.041-3.079 1.998-6.118 3.205-7.408.25-.208.707-.541.998-.708 1.541-.708 2.664-.374 3.996-.125l1.789-5.244c-2.123-.041-5.244.958-6.283 2.498zM135.02 78.67c2.289-7.283-3.289-7.158-5.744-7.158h-9.863l-9.57 28.798h8.156c2.414 0 8.74.708 12.193-5.285.084-.208.291-.541.334-.666 0 0 .041 0 .041-.042v-.042c.291-.583.582-1.207.791-1.914.832-2.456.748-4.121.332-5.286 0-.042-.041-.083-.082-.125a5.22 5.22 0 0 0-.334-.708c-.457-.708-1.041-1.165-1.539-1.54 1.539-.874 3.746-1.998 4.994-5.202h-.043c.084-.206.25-.622.334-.83zm-6.95.083s-.127.542-.25.833c-.084.166-.125.291-.209.416-1.041 2.081-3.621 2.747-5.078 2.58l.959-2.955.291-.875.666-1.997c3.328-.748 3.869.625 3.621 1.998zm-7.949 16.064c-.125 0-1.666-.042-1.666-.042l.168-.416 2.164-6.492c5.117-1.165 4.203 2.872 3.328 4.453-.5.874-.957 1.582-1.582 2.039-.707.5-2.371.458-2.412.458zM144.467 80.917c-2.539 0-8.324-.167-10.113 5.327-.041.208-.125.5-.166.708h-.043c-.041.208-.082.458-.125.75h5.66c.043-.25.125-.458.168-.625v-.042c.082-.292.248-.666.332-.833.666-1.374 1.498-1.873 2.205-1.873 1.291 0 1.207 1.04 1 1.873-.084.208-.291.666-.375.833-.541.916-1.332.999-2.33 1.207-4.121.958-7.742 2.997-9.156 6.118-.041.167-.166.458-.25.666h-.041c0 .042 0 .083-.041.167.041 0 0 0 0 0-.125.416-.209.875-.293 1.332-.373 3.413 1.791 4.079 3.58 4.079 1.623 0 3.08-.25 5.035-1.748-.166 1.165-.207 1.498-.207 1.498h5.533c-.082-.624.543-2.83 1.291-5.327l.209-.666c.873-2.83 1.914-5.826 2.412-7.283l.293-.833c.041-.083.041-.125.041-.125 1.707-4.495-2.039-5.203-4.619-5.203zm-7.742 14.275s.168-.541.293-.833c.582-1.207 1.789-2.414 4.619-3.329l-1.041 3.163h-.041s-.209.666-.459.999c-1.248 1.872-3.703 1.914-3.371 0zM157.201 83.373c.166-.583.541-1.707.541-1.707h-5.369l-6.201 18.687h5.285l2.041-6.118c1.123-3.246 1.914-5.535 2.828-6.825.084-.125.209-.25.293-.375a5.043 5.043 0 0 1 1.039-.791h.043c1.539-.708 3.412-.416 4.41-.083l1.748-5.244c-2.58-.125-5.617.916-6.658 2.456zM24.859 103.849H162.57l-127.556 6.616-10.155-6.616zM20.781 118.331c-.042.125-.083.125-.208.125h-.916c-.125 0-.125-.042-.125-.084 0-.041.042-.083.042-.124l2.164-5.827c.083-.125.083-.125.208-.125h1.416c.999 0 1.956.167 1.748 1.374-.25 1.623-1.54 2.33-2.955 2.33h-.5l-.874 2.331zm1.54-3.33c.832 0 1.415-.332 1.54-1.123.083-.541-.292-.624-.791-.624h-.416l-.625 1.747h.292zM27.106 118.372c-.042.084-.083.084-.167.084h-.874c-.083 0-.125 0-.125-.084 0 0 .042-.041.042-.083l1.041-2.746c.083-.208.208-.417.25-.708.042-.291-.042-.416 0-.583 0-.041.083-.083.125-.083l.791-.291c.041 0 .041-.042.083-.042.125 0 .166.416.083.916.292-.25.874-.916 1.582-.916.167 0 .333.042.333.125 0 .042-.042.042-.042.083l-.541.916-.042.041c-.083 0-.166-.083-.333-.083-.75 0-1.332 1.041-1.54 1.665l-.666 1.789zM34.39 117.998s.042.042.042.083c-.042.083-.999.541-1.956.541-1.124 0-1.54-.666-1.415-1.665.292-1.831 1.707-3.121 3.163-3.121.916 0 1.332.5 1.249 1.207-.25 1.706-2.664 1.706-3.205 1.706-.042.292-.25.957.666.957.541 0 1.124-.332 1.249-.332.042 0 .042 0 .083.041l.124.583zm-1.873-2.039c.417 0 1.665 0 1.79-.833.042-.249-.083-.457-.374-.457-.875 0-1.291.957-1.416 1.29zM42.713 118.372c-.042.084-.042.084-.167.084h-.874c-.083 0-.125 0-.083-.084v-.083l1.04-2.58c.042-.166.125-.374.167-.541 0-.208-.042-.374-.25-.374-.707 0-1.29 1.123-1.54 1.789l-.666 1.789c-.042.084-.042.084-.125.084H39.3c-.083 0-.125 0-.083-.084v-.083l.999-2.58c.083-.166.167-.374.208-.541 0-.208-.083-.374-.292-.374-.707 0-1.248 1.123-1.498 1.789l-.666 1.789c-.042.084-.083.084-.167.084h-.874c-.083 0-.125 0-.125-.084 0 0 .042-.041.042-.083l1.04-2.746c.083-.208.208-.417.25-.708s-.042-.416 0-.583c0-.041.083-.083.125-.083l.791-.291c.042 0 .042-.042.083-.042.125 0 .166.416.083.916.291-.291.915-.916 1.706-.916.541 0 .75.333.666.958.292-.333.916-.958 1.748-.958.583 0 .791.333.707.958a3.563 3.563 0 0 1-.208.707l-1.122 2.871zM47.125 118.372c-.042.084-.083.084-.167.084h-.874c-.083 0-.125 0-.125-.084 0 0 0-.041.041-.083l1.291-3.454h-.75c-.083 0-.083-.041-.083-.125 0 0 0-.041.042-.083l.167-.499c.042-.125.042-.125.167-.125h1.748c.083 0 .125.041.125.083s-.041.083-.041.125l-1.541 4.161zm1.373-4.952c-.416 0-.749-.333-.666-.749a.922.922 0 0 1 .874-.749c.416 0 .75.292.708.749a.977.977 0 0 1-.916.749zM53.076 118.581c-.042.041-.083.041-.125.041-.083 0-.125-.416-.042-.916-.292.292-.916.916-1.707.916-.624 0-.916-.458-.832-.957.042-.208.125-.458.208-.708l1.124-2.829c.042-.042.042-.084.167-.084l.791-.166c.042 0 .083-.042.166-.042s.125.042.083.125v.125l-1.083 2.705a2.107 2.107 0 0 0-.208.541c0 .208.042.333.25.333.874 0 1.374-1.124 1.623-1.748l.666-1.789c.042-.042.042-.084.166-.084l.791-.166c.042 0 .083-.042.167-.042s.125.042.083.125v.083l-1.124 2.872c-.083.249-.208.458-.25.749-.042.25.042.375 0 .541 0 .083-.083.083-.125.125l-.789.25zM62.606 118.372c-.042.084-.083.084-.167.084h-.874c-.083 0-.125 0-.125-.084 0 0 .042-.041.042-.083l.999-2.58c.083-.166.167-.374.167-.541.042-.208-.042-.374-.208-.374-.749 0-1.29 1.123-1.54 1.789l-.666 1.789c-.042.084-.083.084-.167.084h-.874c-.083 0-.125 0-.125-.084 0 0 .042-.041.042-.083l.999-2.58c.083-.166.167-.374.167-.541.042-.208-.042-.374-.25-.374-.708 0-1.249 1.123-1.499 1.789l-.708 1.789c0 .084-.042.084-.125.084h-.874c-.083 0-.125 0-.125-.084v-.083l1.082-2.746c.083-.208.167-.417.208-.708s0-.416 0-.583c0-.041.083-.083.125-.083l.833-.291s.042-.042.083-.042c.125 0 .125.416.042.916.333-.291.958-.916 1.748-.916.5 0 .749.333.666.958.25-.333.874-.958 1.748-.958.541 0 .791.333.708.958a3.563 3.563 0 0 1-.208.707l-1.124 2.871zM75.007 113.42c-.041.042-.041.083-.083.083-.125 0-.583-.416-1.207-.416-.624 0-1.124.291-1.207.874-.083.666.749.833 1.415 1.415.292.25.458.583.417 1.124-.208 1.206-1.29 2.122-2.872 2.122-.749 0-1.748-.333-1.706-.499 0 0 .042-.042.083-.125l.458-.624c.042-.084.042-.084.125-.084.083 0 .624.375 1.332.375.583 0 1.124-.25 1.249-.916.083-.499-.333-.749-.749-.998-.541-.333-1.166-.666-.999-1.623.208-1.29 1.29-1.998 2.747-1.998.666 0 1.582.333 1.582.5-.042 0-.083.041-.083.124l-.502.666zM76.755 120.037c0 .083-.042.125-.167.167l-.874.166a.42.42 0 0 0-.125.041c-.083 0-.042-.041-.042-.083 0-.083.042-.166.042-.208l1.831-4.827c.083-.208.083-.375.125-.499 0-.209-.042-.417 0-.542 0-.041.083-.083.125-.083l.791-.291c.042 0 .083-.042.125-.042.083 0 .125.375.042.833.291-.25.791-.833 1.665-.833.666 0 .958.458.833 1.374-.208 1.456-1.29 3.412-2.955 3.412-.458 0-.624-.125-.791-.208l-.625 1.623zm.916-2.414c.083 0 .291.167.583.167.999 0 1.54-1.457 1.706-2.414.042-.375-.083-.624-.375-.624-.583 0-1.082.707-1.332 1.373l-.582 1.498zM84.413 118.622c-.999 0-1.54-.499-1.374-1.623.25-1.706 1.582-3.163 3.163-3.163.957 0 1.498.5 1.332 1.665-.249 1.664-1.581 3.121-3.121 3.121zm1.915-3.204c.042-.417-.083-.666-.5-.666-.874 0-1.457 1.415-1.582 2.33-.083.417.042.624.458.624.874 0 1.499-1.414 1.624-2.288zM90.323 118.372c-.042.084-.083.084-.167.084h-.874c-.083 0-.125 0-.125-.084 0 0 0-.041.041-.083l1.041-2.746c.083-.208.166-.417.208-.708.042-.291 0-.416 0-.583.042-.041.083-.083.166-.083l.791-.291c.042 0 .042-.042.083-.042.125 0 .125.416.042.916.333-.25.916-.916 1.623-.916.166 0 .333.042.333.125-.042.042-.042.042-.042.083l-.541.916s-.042.041-.083.041c-.042 0-.125-.083-.292-.083-.749 0-1.332 1.041-1.54 1.665l-.664 1.789zM97.521 118.164v.084c-.041.124-.998.374-1.581.374-.707 0-1.124-.25-1.041-.916.042-.207.125-.374.167-.582l.874-2.289h-.624c-.083 0-.125-.041-.125-.125.042-.041.042-.041.042-.083l.208-.499c0-.084.083-.125.125-.125h.666l.416-1.124c.042-.083.084-.083.167-.083l.875-.125h.125c.041 0 .041.042.041.083 0 .042 0 .084-.041.125l-.416 1.124h1.248c.082 0 .125.041.125.083s-.043.083-.043.125l-.248.499c-.084.084-.084.125-.168.125h-1.207l-.79 2.122a.955.955 0 0 0-.125.458c-.042.208.042.291.292.291.458 0 .833-.207.917-.207.041 0 .041.041.041.083l.08.582zM103.307 114.877c0 .041-.041.041-.082.041-.168 0-.416-.249-.875-.249-.5 0-.791.249-.832.541-.041.457.541.541.957.79.416.25.625.458.5 1.041-.125.915-.916 1.581-2.123 1.581-.707 0-1.498-.291-1.457-.416v-.083l.293-.583c.041-.041.041-.041.082-.041.125 0 .541.332 1.166.332.541 0 .873-.249.957-.624.041-.416-.375-.416-.832-.707-.459-.25-.75-.417-.666-1.041.166-.957.957-1.623 2.039-1.623.498 0 1.248.208 1.207.416 0 .042 0 .084-.043.084l-.291.541zM113.836 118.331c-.041.125-.041.125-.166.125h-.625c-.125 0-.125 0-.125-.084l-.623-3.287c-.043-.291-.043-.5-.084-.791-.082.25-.207.583-.332.916l-1.166 3.121c-.041.125-.084.125-.207.125h-.791c-.125 0-.125-.042-.125-.084 0-.041.041-.083.041-.124l2.164-5.827c.041-.125.084-.125.209-.125h.666c.125 0 .166 0 .166.084l.582 2.996c.084.375.084.749.125.999.041-.25.209-.708.334-1.04l1.082-2.914c.041-.125.082-.125.207-.125h.791c.125 0 .125.042.125.084 0 .041-.043.083-.043.125l-2.205 5.826zM119.871 118.581c-.043.041-.084.041-.125.041-.084 0-.125-.416-.041-.916-.293.292-.959.916-1.707.916-.625 0-.916-.458-.832-.957.041-.208.125-.458.207-.708l1.125-2.829c.041-.042.041-.084.166-.084l.791-.166c.041 0 .082-.042.125-.042.125 0 .166.042.125.125 0 0 0 .083-.043.125l-1.082 2.705c-.041.166-.125.333-.166.541 0 .208.041.333.25.333.873 0 1.373-1.124 1.623-1.748l.666-1.789c.041-.042.041-.084.166-.084l.791-.166c.041 0 .084-.042.125-.042.125 0 .166.042.125.125 0 0 0 .042-.043.083l-1.123 2.872c-.084.249-.166.458-.207.749-.043.25.041.375 0 .541 0 .083-.084.083-.125.125l-.791.25zM126.654 118.164v.084c-.041.124-.998.374-1.582.374-.707 0-1.123-.25-.998-.916 0-.207.084-.374.166-.582l.832-2.289h-.623c-.084 0-.125-.041-.084-.125v-.083l.209-.499c.041-.084.082-.125.166-.125h.666l.416-1.124c0-.083.041-.083.125-.083l.873-.125h.125c.041 0 .084.042.041.083v.125l-.457 1.124h1.291c.082 0 .123.041.082.083 0 .042 0 .083-.041.125l-.25.499c-.041.084-.084.125-.166.125h-1.207l-.791 2.122c-.041.167-.125.292-.125.458-.041.208.084.291.334.291.416 0 .789-.207.873-.207.041 0 .041.041.041.083l.084.582zM129.941 118.372c-.041.084-.041.084-.125.084h-.914c-.043 0-.084 0-.084-.084v-.083l1.082-2.746a2.89 2.89 0 0 0 .209-.708c.041-.291 0-.416 0-.583 0-.041.082-.083.123-.083l.834-.291s.041-.042.082-.042c.084 0 .125.416.043.916.291-.25.873-.916 1.623-.916.123 0 .332.042.291.125v.083l-.541.916c-.043 0-.043.041-.084.041-.084 0-.166-.083-.291-.083-.75 0-1.332 1.041-1.539 1.665l-.709 1.789zM135.227 118.372c-.041.084-.041.084-.125.084h-.914c-.043 0-.084 0-.084-.084v-.083l1.291-3.454h-.709c-.082 0-.123-.041-.123-.125.041 0 .041-.041.041-.083l.207-.499c0-.125.043-.125.125-.125h1.789c.084 0 .125.041.084.083v.125l-1.582 4.161zm1.416-4.952c-.457 0-.75-.333-.666-.749.041-.457.5-.749.873-.749.418 0 .75.292.666.749-.041.416-.457.749-.873.749zM141.428 118.164v.084c-.041.124-.998.374-1.58.374-.709 0-1.125-.25-1-.916 0-.207.084-.374.125-.582l.875-2.289h-.625c-.084 0-.125-.041-.125-.125.041-.041.041-.041.041-.083l.209-.499c0-.084.082-.125.125-.125h.666l.416-1.124c.041-.083.082-.083.166-.083l.875-.125h.123c.043 0 .043.042.043.083 0 .042 0 .084-.043.125l-.416 1.124h1.291c.084 0 .125.041.084.083 0 .042-.043.083-.043.125l-.25.499c-.082.084-.082.125-.166.125h-1.207l-.791 2.122a.967.967 0 0 0-.125.458c-.041.208.043.291.293.291.457 0 .832-.207.914-.207.043 0 .043.041.043.083l.082.582zM145.008 118.372c0 .084-.043.084-.125.084h-.875c-.082 0-.125 0-.125-.084 0 0 0-.041.043-.083l1.289-3.454h-.748c-.084 0-.125-.041-.084-.125v-.083l.209-.499c.041-.125.041-.125.166-.125h1.748c.082 0 .125.041.125.083-.043.042-.043.083-.043.125l-1.58 4.161zm1.414-4.952c-.416 0-.748-.333-.666-.749a.923.923 0 0 1 .875-.749c.416 0 .748.292.707.749a.977.977 0 0 1-.916.749zM149.668 118.622c-.998 0-1.539-.499-1.373-1.623.25-1.706 1.582-3.163 3.162-3.163.957 0 1.5.5 1.332 1.665-.25 1.664-1.58 3.121-3.121 3.121zm1.914-3.204c.084-.417-.082-.666-.457-.666-.916 0-1.498 1.415-1.623 2.33-.084.417.041.624.457.624.916 0 1.498-1.414 1.623-2.288zM158.033 118.372c-.041.084-.041.084-.166.084h-.875c-.082 0-.123 0-.082-.084v-.083l1.039-2.58c.043-.166.125-.374.168-.541 0-.208-.043-.374-.25-.374-.875 0-1.373 1.123-1.623 1.789l-.666 1.789c-.041.084-.041.084-.125.084h-.916c-.082 0-.125 0-.082-.084v-.083l1.082-2.746c.082-.208.166-.417.207-.708s-.041-.416 0-.583c0-.041.084-.083.125-.083l.791-.291c.041 0 .084-.042.125-.042.084 0 .125.416.041.916.291-.291.957-.916 1.707-.916.623 0 .916.458.832.958a3.435 3.435 0 0 1-.209.707l-1.123 2.871zM156.785 98.479c.041-.333-.166-.499-.582-.499h-.666l-.209 1.789h.25l.084-.791h.332l.375.791h.291l-.416-.791c.25-.04.5-.166.541-.499zm-1.082.292l.041-.541h.375c.207 0 .375.042.375.25-.043.291-.25.291-.459.291h-.332z" fill="#7b002b"/><path d="M156.203 97.314c-.875 0-1.666.666-1.748 1.581-.125.874.541 1.54 1.373 1.54.873 0 1.664-.666 1.748-1.54.125-.915-.541-1.581-1.373-1.581zm-.334 2.872c-.707 0-1.207-.582-1.123-1.29a1.436 1.436 0 0 1 1.414-1.29c.709 0 1.207.541 1.125 1.29a1.439 1.439 0 0 1-1.416 1.29z" fill="#7b002b"/></g></svg>