<svg xmlns="http://www.w3.org/2000/svg" width="2500" height="2500" viewBox="0 0 192.756 192.756"><g fill-rule="evenodd" clip-rule="evenodd"><path fill="#fff" d="M0 0h192.756v192.756H0V0z"/><path d="M126.453 100.377c1.246-.101 2.422-.056 3.566.156a.128.128 0 0 1 .123.138.13.13 0 0 1-.137.125 14.1 14.1 0 0 0-1.711-.193 14.412 14.412 0 0 0-1.736.034.713.713 0 0 1-.314.72l.023.023c.461-.121 6.521-.681 8.543 3.039.334.616-1.037 2.577-4.139 3.212-1.117.229-1.143-.323-1.715-.484.479 3.429-4 3.769-6.129 2.286-.789-.548-.27-2.44-.475-3.847l-.693.052-.049-.694c-1.42 0-3.219.784-3.873.083-1.771-1.896-2.076-6.377 1.385-6.395-.242-.543-.793-.488-.725-1.628.184-3.159 1.93-4.798 2.586-4.555 3.971 1.468 4.285 7.546 4.23 8.019l.027.02a.71.71 0 0 1 .654-.413 14.419 14.419 0 0 0-.217-1.736 14.312 14.312 0 0 0-.436-1.665.131.131 0 0 1 .104-.154.13.13 0 0 1 .154.103c.375 1.104.588 2.265.666 3.515a.647.647 0 0 1 .288.239zm2.596 6.431c3.125.283 4.639-1.245 4.834-1.934.287-1.022-.346-1.045-.645-.749.143.692-1.064 2.966-4.189 2.683zm-6.502-2.38c.506-2.349 1.492-2.99 1.928-3.294.648-.454.578-.045.354.205-.339.115-1.85 1.458-2.282 3.089zm-5.477-2.484c-.314-1.313.244-2.053.525-2.178.418-.186.467.082.359.229-.304-.018-1.198.636-.884 1.949zm8.903 7.708c1.346.122 1.996-.536 2.08-.832.125-.44-.148-.45-.277-.322.062.297-.458 1.276-1.803 1.154zm-6.528-11.16c-.727-3.052.568-4.768 1.221-5.059.973-.431 1.084.192.834.529-.705-.041-2.781 1.478-2.055 4.53l5.902-1.974-5.902 1.974z" fill="#536c7b"/><path d="M10.374 85.137h.239c.519 0 .864-.057 1.037-.169.173-.112.259-.31.259-.596 0-.306-.093-.522-.277-.647-.185-.126-.524-.188-1.019-.188h-.239v1.6zm92.179 23.936h-3.805V89.356h4.34v19.717h-.535zm81.699-4.395c0 .727-.219 1.388-.656 1.984-.414.565-1.021 1.063-1.828 1.495-.783.417-1.699.729-2.75.935-1.035.203-2.203.305-3.506.305-.75 0-1.453-.029-2.111-.089-.66-.059-1.309-.15-1.947-.273h-.002a28.793 28.793 0 0 1-1.68-.379 17.684 17.684 0 0 1-1.404-.417l-.361-.126v-3.441H168.841l.115.061c.492.255 1.018.486 1.576.694a16.53 16.53 0 0 0 1.748.538c.617.154 1.217.27 1.799.346.574.074 1.145.112 1.713.112.697 0 1.311-.038 1.844-.112a6.026 6.026 0 0 0 1.332-.329c.318-.124.549-.275.691-.453a.867.867 0 0 0 .186-.56.911.911 0 0 0-.098-.44.849.849 0 0 0-.307-.303v-.003c-.176-.107-.451-.212-.828-.315a13.756 13.756 0 0 0-1.512-.305l-.004-.002a41.784 41.784 0 0 0-.791-.116 150.34 150.34 0 0 0-1.006-.135v.002a50.924 50.924 0 0 1-1.053-.146 41.79 41.79 0 0 1-1.018-.171c-.887-.161-1.646-.363-2.277-.602-.662-.25-1.195-.546-1.6-.886a3.64 3.64 0 0 1-.938-1.188 3.283 3.283 0 0 1-.318-1.444 3.226 3.226 0 0 1 .584-1.855v-.005c.191-.281.434-.545.719-.793.281-.242.604-.466.965-.674v.001a7.246 7.246 0 0 1 1.191-.547c.432-.155.91-.291 1.434-.404a14.116 14.116 0 0 1 1.656-.257 18.56 18.56 0 0 1 1.822-.086c1.188 0 2.385.101 3.609.303a23.45 23.45 0 0 1 1.668.331c.508.123.971.257 1.387.404l.355.125V98.779H182.655l-.115-.059c-.398-.2-.844-.388-1.334-.561a16.674 16.674 0 0 0-1.596-.47 15.384 15.384 0 0 0-1.711-.315 13.712 13.712 0 0 0-1.672-.106 10.2 10.2 0 0 0-1.57.111 6.34 6.34 0 0 0-1.264.328c-.332.127-.57.273-.715.44-.119.132-.176.289-.176.469s.035.33.109.452a.96.96 0 0 0 .367.332h.002c.209.12.49.231.84.333.373.107.818.203 1.338.288.264.041.584.088.953.14.381.053.73.101 1.064.145v.001a53.848 53.848 0 0 1 1.875.263h.002a12.02 12.02 0 0 1 2.105.513 6.623 6.623 0 0 1 1.629.812l.006.004c.48.346.844.751 1.088 1.215.249.469.372.99.372 1.564zm-17.76-2.065h-13.736c.018.173.049.339.088.497.078.307.193.592.346.85l.004.003c.156.269.342.514.555.73.215.219.463.417.742.591l.004.002c.277.176.578.329.9.46a7.5 7.5 0 0 0 1.078.335c.395.092.809.159 1.24.204.43.045.891.067 1.379.067h.006a14.688 14.688 0 0 0 3.842-.525c.658-.18 1.215-.354 1.67-.525a6.293 6.293 0 0 0 1.051-.487l.131-.082h.853v3.392l-.383.111a36.877 36.877 0 0 1-3.422.814c-.613.115-1.221.2-1.82.253-.604.054-1.234.08-1.898.08-1.65 0-3.125-.154-4.422-.465-1.316-.316-2.455-.792-3.414-1.429-.98-.651-1.717-1.444-2.211-2.378-.492-.932-.74-1.994-.74-3.188 0-1.178.236-2.239.707-3.183.469-.944 1.174-1.763 2.109-2.457.918-.684 1.98-1.194 3.182-1.534 1.188-.335 2.512-.503 3.971-.503 1.352 0 2.557.139 3.615.414 1.076.282 1.996.707 2.762 1.275a5.6 5.6 0 0 1 1.76 2.114c.393.821.588 1.758.588 2.806V102.611h-.537v.002zm-17.732-4.466h-.209l-.049-.009a15.199 15.199 0 0 0-1.373-.167c-.24-.021-.48-.033-.725-.041-.27-.009-.557-.013-.859-.013a8.697 8.697 0 0 0-2.754.435c-.459.149-.904.319-1.34.511-.338.147-.672.31-1.004.487V109.072h-4.338V94.621h4.338V96.243c.373-.19.734-.363 1.082-.518a13.951 13.951 0 0 1 1.668-.632 11.027 11.027 0 0 1 3.183-.472c.289 0 .537.002.744.006.234.005.412.013.533.022.033.002.197.019.514.05.221.021.439.044.648.068l.475.054v3.326h-.534zm-23.28-4.467c2.732 0 5.219.898 7.027 2.348 1.84 1.475 2.98 3.52 2.98 5.781 0 .371-.031.735-.092 1.092a6.172 6.172 0 0 0-.979-.986c.002-.036.002-.07.002-.105 0-1.922-.988-3.674-2.58-4.952-1.625-1.302-3.875-2.109-6.359-2.109-.096 0-.191.001-.285.003-.021-.044-.045-.087-.068-.13a9.162 9.162 0 0 0-.547-.909c.298-.023.599-.033.901-.033zm-8.957 15.259c-.311.059-.641.111-.986.159a30.46 30.46 0 0 1-1.064.125h-.002a28.28 28.28 0 0 1-1.049.084c-.324.018-.637.027-.941.027-1.029 0-1.941-.098-2.74-.293-.82-.199-1.516-.502-2.084-.908a3.95 3.95 0 0 1-1.342-1.656c-.287-.659-.432-1.429-.432-2.312v-6.583h-2.209V94.62h2.209V90.776h4.338v3.846h6.74V97.584h-6.74v5.565c0 .335.006.642.018.915.01.271.027.493.049.67a1.578 1.578 0 0 0 .367.829l.008.007c.096.121.207.224.33.307.133.088.289.162.469.222.189.062.434.109.732.142.316.034.697.053 1.143.053.506 0 1.027-.051 1.568-.149.26-.05.504-.099.73-.147h.002c.189-.042.35-.08.477-.115l.07-.019h.777v2.997l-.438.078zm-19.792.134h-3.803v-1.141c-.295.146-.586.281-.874.407-.55.239-1.083.441-1.594.603a10.38 10.38 0 0 1-1.676.378c-.585.084-1.19.126-1.82.126-2.16 0-3.857-.466-5.086-1.396a4.587 4.587 0 0 1-1.442-1.798c-.315-.7-.474-1.503-.474-2.408v-9.221H84.3v8.154c0 .31.011.608.034.897.022.293.052.541.091.747h.001c.038.196.097.378.177.544.077.161.173.309.29.441l.001-.001c.127.144.269.263.424.361.165.103.351.188.556.254.214.068.485.121.816.157.337.037.734.057 1.193.057.401 0 .815-.035 1.243-.105.434-.07.892-.18 1.375-.325l-.001-.001c.496-.15.965-.317 1.408-.501a12.99 12.99 0 0 0 1.021-.472V94.622h4.338v14.452h-.536v-.001zm-17.214-4.15c0 .727-.22 1.388-.656 1.984-.414.566-1.024 1.064-1.829 1.496-.783.417-1.699.729-2.749.934-1.035.203-2.205.305-3.506.305-.75 0-1.454-.029-2.112-.088-.66-.06-1.309-.15-1.948-.274h-.001a29.725 29.725 0 0 1-1.681-.378 17.792 17.792 0 0 1-1.404-.418l-.36-.125v-3.442h.833l.116.062c.492.255 1.017.486 1.576.693.562.208 1.145.389 1.749.538.617.154 1.216.27 1.798.345.574.076 1.146.113 1.713.113.697 0 1.312-.037 1.843-.113a6.001 6.001 0 0 0 1.333-.327c.318-.125.549-.276.691-.454a.859.859 0 0 0 .186-.559.897.897 0 0 0-.099-.44.836.836 0 0 0-.307-.304v-.002c-.174-.107-.45-.213-.827-.315a13.83 13.83 0 0 0-1.511-.305l-.006-.002a37.45 37.45 0 0 0-.791-.116c-.358-.049-.682-.093-1.005-.135v.001a36.18 36.18 0 0 1-2.071-.317c-.887-.162-1.646-.362-2.277-.602-.662-.25-1.196-.545-1.599-.885a3.603 3.603 0 0 1-.939-1.188 3.305 3.305 0 0 1-.319-1.445c0-.33.051-.65.149-.962.095-.307.242-.604.437-.893V97.3a4.17 4.17 0 0 1 .719-.792c.28-.242.602-.469.964-.675a7.388 7.388 0 0 1 1.192-.547c.431-.155.909-.29 1.433-.404a13.883 13.883 0 0 1 1.656-.256 18.57 18.57 0 0 1 1.822-.087c1.188 0 2.384.101 3.61.302a24.07 24.07 0 0 1 1.667.332c.507.122.969.257 1.385.403l.357.125V99.021H77.918l-.116-.058a11.094 11.094 0 0 0-1.333-.562 16.595 16.595 0 0 0-3.306-.785 13.731 13.731 0 0 0-1.671-.105c-.581 0-1.104.038-1.572.111a6.235 6.235 0 0 0-1.265.328c-.331.126-.569.272-.715.439-.116.133-.174.289-.174.469s.036.33.108.452c.078.126.2.237.368.333h.002c.21.12.491.231.841.333.371.106.818.202 1.338.287.262.041.581.088.951.14.38.053.731.101 1.064.145v.001c.39.049.707.092.965.128.301.042.61.088.91.136h.001c.792.126 1.493.296 2.107.512a6.72 6.72 0 0 1 1.63.812l.005.004c.48.347.843.752 1.086 1.216.251.472.375.993.375 1.566zm-17.678 4.395h-3.805V101.163a9.536 9.536 0 0 0-.142-1.632h-.002a2.775 2.775 0 0 0-.185-.604 1.492 1.492 0 0 0-.259-.4l-.01-.013a1.676 1.676 0 0 0-.401-.331 2.647 2.647 0 0 0-.6-.255 5.036 5.036 0 0 0-.848-.166c-.33-.037-.703-.056-1.119-.056-.839 0-1.723.143-2.643.429a15.802 15.802 0 0 0-2.42.98v10.204H45.07V94.866h4.336v1.127a15.471 15.471 0 0 1 2.478-.986 12.239 12.239 0 0 1 3.504-.513c1.097 0 2.069.115 2.914.345.872.237 1.611.595 2.219 1.075v.002a4.656 4.656 0 0 1 1.393 1.801c.307.697.46 1.49.46 2.38V109.319h-.535v-.001zm-17.381-7.466c-.001 2.358-.883 4.22-2.64 5.587l-.001-.001c-.863.673-1.871 1.177-3.022 1.511-1.141.332-2.416.497-3.825.497-1.417 0-2.699-.165-3.843-.497-1.154-.334-2.163-.838-3.022-1.511l-.001.001c-.875-.681-1.534-1.492-1.976-2.433-.439-.936-.658-1.986-.658-3.154 0-1.167.219-2.218.658-3.153.441-.938 1.099-1.752 1.976-2.438.86-.673 1.87-1.179 3.026-1.515 1.143-.332 2.425-.498 3.841-.498 1.408 0 2.682.167 3.822.498 1.153.336 2.162.841 3.026 1.515.877.688 1.537 1.499 1.978 2.436.441.934.661 1.986.661 3.155zm-19.504 6.355a28.1 28.1 0 0 1-3.164.853c-.509.104-1.031.181-1.571.232a18.768 18.768 0 0 1-3.727-.032 15.407 15.407 0 0 1-1.913-.331 10.758 10.758 0 0 1-1.711-.561 8.477 8.477 0 0 1-1.472-.806v.001a6.85 6.85 0 0 1-1.22-1.059v-.002a6.476 6.476 0 0 1-.916-1.312c-.252-.479-.441-1-.567-1.562a7.984 7.984 0 0 1-.189-1.767c0-1.178.238-2.233.713-3.17.475-.937 1.186-1.743 2.13-2.418.925-.662 1.993-1.156 3.205-1.484 1.198-.324 2.534-.485 4.01-.485.564 0 1.135.028 1.708.084a16.5 16.5 0 0 1 1.673.25 25.87 25.87 0 0 1 1.577.368c.503.135.985.284 1.444.446l.357.127V98.992h-.839l-.12-.064a14.116 14.116 0 0 0-2.973-1.19v-.001a12.206 12.206 0 0 0-1.505-.31 10.826 10.826 0 0 0-1.458-.101c-1.732 0-3.081.391-4.058 1.172a3.489 3.489 0 0 0-1.05 1.381c-.238.561-.358 1.222-.358 1.981 0 .737.116 1.381.35 1.932.227.539.57.998 1.026 1.376.47.387 1.038.679 1.706.875.685.202 1.479.303 2.384.303a11.883 11.883 0 0 0 2.858-.369c.291-.074.565-.156.821-.246a20.796 20.796 0 0 0 1.299-.515v-.001a19.097 19.097 0 0 0 .951-.465l.125-.07H25.32V108.084l-.366.123zm15.066-6.355c0-.802-.112-1.493-.334-2.075a3.345 3.345 0 0 0-.956-1.382 4.36 4.36 0 0 0-1.576-.844c-.631-.194-1.358-.291-2.184-.291-.834 0-1.569.097-2.202.291a4.3 4.3 0 0 0-1.575.844c-.42.361-.738.823-.951 1.384-.222.581-.333 1.272-.333 2.073 0 1.516.433 2.655 1.297 3.415.435.384.961.673 1.575.867.635.2 1.365.301 2.19.301 1.607 0 2.856-.386 3.745-1.157.431-.372.753-.837.969-1.394.223-.572.335-1.25.335-2.032zm81.123 7.282c-1-.393-1.908-.916-2.688-1.543a8.73 8.73 0 0 1-1.387-1.384c.543.402 1.193.484 1.904.431a9.062 9.062 0 0 0 2.062 1.293c-.001.423.023.829.109 1.203zm41.593-9.314a2.932 2.932 0 0 0-.24-.812 2.627 2.627 0 0 0-.799-.975l-.002.001c-.369-.28-.842-.492-1.418-.636-.602-.15-1.318-.227-2.146-.227s-1.568.084-2.223.251a5.127 5.127 0 0 0-1.654.724c-.461.314-.82.664-1.074 1.047-.133.198-.24.407-.318.626h9.874v.001zM10.315 85.901v2.578H9.44v-5.743h1.413c.419 0 .725.022.924.068.197.046.37.122.515.227.18.132.323.313.424.538.103.226.153.475.153.748 0 .272-.05.522-.153.753a1.3 1.3 0 0 1-.424.541c-.145.105-.318.18-.515.224-.199.044-.505.067-.924.067h-.538v-.001zm7.144-.718h.169c.493 0 .821-.057.984-.173.161-.115.244-.318.244-.612 0-.316-.087-.538-.261-.668-.174-.129-.497-.194-.966-.194h-.169v1.647h-.001zm-.059.725v2.57h-.874v-5.743h1.302c.381 0 .678.026.888.075.21.049.39.131.54.247.178.139.314.318.413.538.096.22.145.459.145.722 0 .459-.112.82-.334 1.08-.222.261-.551.417-.985.47l1.978 2.612h-1.056l-1.91-2.57H17.4v-.001zm6.453 2.571v-5.743h.932v5.743h-.932zm9.768-2.837a4.51 4.51 0 0 1-.05-.37c-.021-.167-.04-.305-.055-.415a3.02 3.02 0 0 1-.263.793l-1.502 3.06-1.501-3.123a4.066 4.066 0 0 1-.283-.73 3.965 3.965 0 0 1-.106.793l-.615 2.828h-.859l1.357-5.987 1.692 3.625a6.9 6.9 0 0 1 .121.287l.193.493c.056-.164.141-.373.258-.627.032-.067.056-.119.072-.157l1.654-3.621 1.389 5.987h-.867l-.635-2.836zm6.27.581h1.6l-.586-1.311a5.632 5.632 0 0 1-.216-.652 5.27 5.27 0 0 1-.208.652l-.59 1.311zm2.581 2.256l-.652-1.48h-2.271l-.667 1.48h-.981l2.78-5.971 2.777 5.971h-.986zm6.021.223l-2.561-5.967h.97l1.285 3.06c.076.178.139.342.188.492.049.15.09.294.117.43a5.338 5.338 0 0 1 .316-.923l1.28-3.06h.965l-2.56 5.968zm5.953-.223v-5.743h3.205v.792H55.38v1.439h2.271v.819H55.38v1.856h2.271v.836h-3.205v.001zm8.019-3.296h.168c.495 0 .821-.057.984-.173.163-.115.244-.318.244-.612 0-.316-.087-.538-.261-.668-.174-.129-.496-.194-.966-.194h-.168v1.647h-.001zm-.059.725v2.57h-.873v-5.743h1.301c.381 0 .679.026.889.075.209.049.39.131.539.247.179.139.315.318.413.538.097.22.145.459.145.722 0 .459-.111.82-.333 1.08-.223.261-.551.417-.985.47l1.977 2.612h-1.054l-1.911-2.57h-.108v-.001zm7.648.315h1.599l-.587-1.311a5.435 5.435 0 0 1-.215-.652 5.986 5.986 0 0 1-.099.353 6.191 6.191 0 0 1-.108.299l-.59 1.311zm2.58 2.256l-.652-1.48h-2.273l-.666 1.48h-.981l2.78-5.971 2.776 5.971h-.984z" fill="#989491"/></g></svg>