<svg xmlns="http://www.w3.org/2000/svg" width="2500" height="2500" viewBox="0 0 192.756 192.756"><g fill-rule="evenodd" clip-rule="evenodd"><path fill="#fff" d="M0 0h192.756v192.756H0V0z"/><path fill="#c9322d" d="M100.004 75.381h84.248v28.107h-84.248V75.381z"/><path d="M127.357 97.217c2.266 0 2.568-2.644 2.568-3.702 0-.907-.377-3.626-2.645-3.626-1.812 0-2.418 1.889-2.418 3.626.001.831.152 3.778 2.495 3.702zm-.906 2.494c-2.646 0-4.912-1.814-4.912-6.196 0-2.569.906-6.044 4.912-6.12 2.492 0 3.475 1.662 3.475 1.662v-6.649h3.174v17.077h-3.023V98.2c-.001-.001-1.134 1.511-3.626 1.511zM142.469 92.381c-.076-1.284-.605-2.569-2.418-2.645-2.494 0-2.568 2.645-2.568 2.645h4.986zm-1.889 7.33c-2.342 0-3.627-.68-4.533-1.586-1.135-1.059-1.662-2.797-1.662-4.459.074-2.872 1.359-6.196 5.516-6.271 1.51 0 2.795.378 3.854 1.436 1.889 1.737 1.736 5.742 1.736 5.742h-8.084c.15 1.36.982 2.796 3.248 2.796 1.965.074 3.93-1.21 3.93-1.21v2.646c-.001 0-1.513.906-4.005.906zM162.34 89.888c-1.133 0-1.812.529-2.191.982-.527.68-.83 1.586-.83 2.644 0 1.285.377 2.267.982 2.946.529.529 1.209.832 2.115.832 1.133-.076 2.342-.605 2.342-.605l.152 2.645s-1.285.455-3.1.379c-1.736 0-3.021-.529-4.08-1.512-1.057-1.059-1.662-2.72-1.662-4.685 0-1.813.605-3.476 1.662-4.533.982-1.058 2.344-1.511 4.006-1.587 1.889 0 2.945.453 2.945.453l-.227 2.494c.001 0-.905-.453-2.114-.453zM152.896 89.888c-1.135 0-1.814.529-2.191.982-.529.68-.832 1.586-.832 2.644 0 1.285.379 2.267 1.059 2.946.453.529 1.133.832 2.039.832 1.135-.076 2.418-.605 2.418-.605l.076 2.645s-1.285.455-3.023.379c-1.812 0-3.098-.529-4.154-1.512-1.059-1.059-1.662-2.72-1.662-4.685 0-1.813.604-3.476 1.662-4.533 1.057-1.058 2.418-1.511 4.004-1.587 1.889 0 2.947.453 3.023.453l-.303 2.494s-.907-.453-2.116-.453zM111.338 92.986h3.779l-.908 2.418h-3.701l-1.512 4.08h-3.475l1.663-4.08h-3.174l1.056-2.418h3.024l3.703-9.596h3.701l6.272 16.094h-3.627l-4.534-12.693-2.267 6.195zM174.354 93.288c0-1.058-.377-2.04-.982-2.645-.453-.529-1.133-.755-1.889-.755-.906 0-1.662.377-2.191 1.058-.453.604-.68 1.436-.68 2.342 0 1.058.152 2.418.982 3.249a2.684 2.684 0 0 0 1.889.756c.756-.076 1.361-.303 1.814-.756.83-.831 1.057-2.191 1.057-3.249zm1.888-3.476c.908 1.058 1.285 2.494 1.285 3.854.15 3.627-2.494 6.045-6.045 6.045-1.662 0-3.324-.529-4.457-1.662-1.059-1.059-1.738-2.645-1.662-4.383 0-1.663.453-3.249 1.736-4.609 1.436-1.36 3.553-1.586 4.609-1.586.982 0 .152-.076.379-.076h8.084l-.982 2.418h-2.947v-.001z" fill="#fff"/><path fill="#304c85" d="M8.504 114.445h175.598V122H8.504v-7.555z"/><path d="M18.553 118.146c0-.756.529-1.285 1.436-1.285.831 0 1.36.529 1.36 1.285s-.529 1.361-1.36 1.361c-.907.001-1.436-.528-1.436-1.361zm1.436 1.815c1.133 0 1.964-.832 1.964-1.814s-.831-1.738-1.964-1.738c-1.209 0-1.964.756-1.964 1.738s.755 1.814 1.964 1.814zM30.038 119.809v.076h-.832v-.076c.151 0 .151-.076.151-.15v-2.947c0-.15 0-.15-.151-.227v-.076h2.872c.151 0 .151 0 .151-.15h.151v.756h-.076c-.076-.152-.076-.152-.227-.152h-2.191v1.059h1.436c.151 0 .151-.076.227-.15h.075v.68h-.075c-.076-.076-.076-.076-.227-.076h-1.436v1.285c.001.071.076.148.152.148zM40.39 119.809v.076h-.832v-.076c.151 0 .151-.076.151-.15v-2.947c0-.15 0-.15-.151-.227v-.076h2.872c.151 0 .151 0 .227-.15h.076v.756h-.076c-.076-.152-.076-.152-.227-.152h-2.191v1.059h1.436c.151 0 .151-.076.227-.15h.075v.68h-.075c-.076-.076-.076-.076-.227-.076h-1.436v1.285c-.001.071.075.148.151.148zM49.91 119.809c.151 0 .151-.076.151-.15v-2.947c0-.15 0-.15-.151-.227v-.076h.907v.076c-.151.076-.151.076-.151.227v2.947c0 .074 0 .15.151.15v.076h-.907v-.076zM61.319 117.316c0-.076-.075-.076-.227-.227-.378-.152-.68-.229-.982-.229-.906 0-1.511.529-1.511 1.285 0 .832.604 1.361 1.511 1.361.68 0 1.209-.529 1.209-.605v-.15h.076l.529.604-.075.076c-.076 0-.076-.076-.151-.076s-.151.152-.302.227c-.453.227-.831.379-1.36.379-1.209 0-1.965-.832-1.965-1.814s.756-1.738 1.965-1.738c.831 0 1.436.379 1.511.379s.076-.076.151-.076h.076l-.454.756-.001-.152zM69.026 119.809c.076 0 .151-.076.151-.15v-2.947c0-.15-.076-.15-.151-.227v-.076h.831v.076c-.151.076-.151.076-.151.227v2.947c0 .074 0 .15.151.15v.076h-.831v-.076zM78.168 118.525l.755-1.512.68 1.512h-1.435zm-1.209 1.36h.831v-.076c-.075 0-.075-.076-.075-.076 0-.074 0-.15.075-.225l.227-.529h1.813l.227.529c0 .074.075.15.075.225l-.075.076v.076h.907v-.076a.593.593 0 0 1-.303-.301l-1.284-2.721c-.076-.076-.076-.076-.076-.152 0-.074 0-.074.076-.15v-.076h-.907v.076c.076.076.076.076.076.15 0 .076-.076.076-.076.152l-1.209 2.721a.595.595 0 0 1-.302.301v.076zM91.165 119.279h.075v.756h-.075c0-.15-.076-.15-.227-.15h-2.872v-.076c.151 0 .151-.076.151-.15v-2.947c0-.15 0-.15-.151-.227v-.076h.832v.076c-.076.076-.151.076-.151.227v2.721h2.191c.151-.001.151-.001.227-.154zM108.543 116.938c.68 0 1.059.076 1.059.453 0 .379-.379.529-1.059.529h-.982v-.982h.982zm.15-.53h-1.889v.076c.152.076.152.076.152.227v2.947c0 .074 0 .15-.152.15v.076h.906v-.076c-.15 0-.15-.076-.15-.15v-1.285h.982c1.059 0 1.512-.227 1.512-.906.001-.606-.452-.983-1.361-1.059zM117.762 118.525l.68-1.512.68 1.512h-1.36zm-1.285 1.36h.832v-.076c-.076 0-.076-.076-.076-.076 0-.074 0-.15.076-.225l.227-.529h1.812l.227.529c.076.074.076.15.076.225 0 0 0 .076-.076.076v.076h.906v-.076a.586.586 0 0 1-.301-.301l-1.285-2.721c-.076-.076-.076-.076-.076-.152 0-.074.076-.074.076-.15v-.076h-.906v.076c.074.076.074.076.074.15 0 .076 0 .076-.074.152l-1.209 2.721a.597.597 0 0 1-.303.301v.076zM129.246 116.938c.756 0 1.057.076 1.057.453 0 .379-.301.529-.98.529h-1.059v-.982h.982zm.15-.53h-1.812v.076c.15.076.15.076.15.227v2.947c0 .074 0 .15-.15.15v.076h.83v-.076c-.074 0-.15-.076-.15-.15v-1.285h1.209l.83 1.285v.074c0 .076 0 .076-.074.076h-.076v.076h.982v-.076h-.076c-.15 0-.377-.529-.982-1.436.455-.15.756-.453.756-.906-.001-.605-.454-.982-1.437-1.058zM139.219 119.809c.076 0 .152-.076.152-.15v-2.797h-1.133c-.152 0-.152.076-.229.152v-.756h.076c0 .15 0 .227.152.227l2.795-.076c.15 0 .15 0 .15-.15h.076v.756c-.076-.076-.076-.152-.227-.152H139.9v2.797c0 .074 0 .15.15.15v.076h-.832v-.077h.001zM151.309 119.809c.076 0 .076-.076.076-.15v-.076l-2.268-2.568v2.645c0 .074 0 .15.152.15v.076h-.756v-.076c.15 0 .15-.076.15-.15v-2.947c0-.15 0-.15-.15-.227v-.076h1.133v.076c-.076.076-.076.076-.076.15v.076l2.041 2.268v-2.268c0-.15 0-.15-.152-.227v-.076h.756v.076c-.15.076-.15.076-.15.227v2.947c0 .074 0 .15.15.15v.076h-.906v-.076zM162.869 119.279h.076v.756h-.076c0-.15 0-.15-.15-.15h-2.947v-.076c.15 0 .15-.076.15-.15v-2.947c0-.15 0-.15-.15-.227v-.076h2.795c.152 0 .152 0 .227-.15h.076v.756h-.076c-.074-.152-.074-.152-.227-.152h-2.039v1.059h1.359c.076 0 .152-.076.152-.15h.074v.68h-.074c0-.076-.076-.076-.152-.076h-1.359v1.059h2.191c.15-.003.15-.003.15-.156zM172.012 116.938c.756 0 1.059.076 1.059.453 0 .379-.303.529-.982.529h-1.059v-.982h.982zm.15-.53h-1.812v.076c.15.076.15.076.15.227v2.947c0 .074 0 .15-.15.15v.076h.83v-.076c-.074 0-.15-.076-.15-.15v-1.285h1.209l.832 1.285v.074c0 .076 0 .076-.076.076h-.076v.076h.982v-.076h-.076c-.15 0-.377-.529-.98-1.436.453-.15.754-.453.754-.906-.001-.605-.454-.982-1.437-1.058z" fill="#fff"/><path d="M53.31 106.359c22.743-4.08 39.743-14.96 38.157-24.33-1.36-7.404-13.903-11.711-30.375-11.183a89.99 89.99 0 0 0-13.676 1.511C24.673 76.363 7.673 87.244 9.26 96.613c1.662 9.446 21.383 13.752 44.05 9.746z" fill="#304c85"/><path d="M27.016 96.008c-.151 0-.378.076-.604.076-.605 0-.68-.302-.529-.756.151-.453.453-.755.982-.755.378 0 .529.151.453.302h-.302c0-.076 0-.227-.227-.227-.377 0-.529.378-.604.68-.151.378-.151.68.302.68.076 0 .151 0 .227-.075l.151-.377c.075-.227.075-.227-.151-.303h.529l-.227.755zM31.021 94.875c.075-.227.075-.227-.151-.227v-.075h.68c.151 0 .68 0 .604.453-.151.227-.302.302-.529.302l.227.756h-.302l-.227-.68h-.151l-.227.68h-.302l.378-1.209zm.15.453h.151c.151 0 .453-.076.529-.302s-.076-.302-.302-.302c-.151 0-.151 0-.227.151l-.151.453zM36.158 94.875l.076-.151c0-.076-.076-.076-.151-.076v-.075h.454l.151 1.511h-.228l-.075-.454h-.68l-.302.454h-.227l.982-1.209zm-.378.68h.605l-.076-.68-.529.68zM40.616 94.875c.076-.227.076-.151-.151-.227v-.075h.604l.377 1.209.377-1.209h.227l-.529 1.511h-.227l-.454-1.285-.453 1.285h-.151l.38-1.209zM45.679 94.875c.075-.227.075-.227-.227-.227l.076-.075h.68c.529 0 .831.151.604.755-.227.68-.68.756-1.209.756h-.378l.454-1.209zm-.076.982c0 .076 0 .151.151.151.454 0 .68-.226.832-.68.075-.378.151-.604-.378-.604-.151 0-.227 0-.227.075l-.378 1.058zM52.706 94.875c.075-.227.075-.227-.151-.227v-.075h.831c.303 0 .454.151.378.453-.151.378-.529.378-.907.378h-.076l-.227.68h-.302l.454-1.209zm.15.453h.076c.227 0 .453-.076.529-.302.076-.302-.076-.302-.302-.302-.075 0-.151 0-.151.151l-.152.453zM57.315 94.875c.075-.227.075-.227-.152-.227v-.075h.605c.227 0 .755 0 .604.453-.075.227-.302.302-.453.302l.227.756h-.303l-.227-.68h-.226l-.227.68h-.226l.378-1.209zm.151.453h.151a.656.656 0 0 0 .529-.302c.075-.227-.076-.302-.303-.302-.151 0-.227 0-.227.151l-.15.453zM62.15 94.875c.075-.151.075-.151-.151-.227l.604-.075-.529 1.511h-.302l.378-1.209zM66.457 95.328l-.151-.529c-.076-.075-.076-.151-.303-.151v-.075h.529l.227.604.604-.604h.151l-.68.68.227.832h-.302l-.227-.68-.68.68h-.151l.756-.757z" fill="#c4c8cb" stroke="#c4c8cb" stroke-width=".247" stroke-miterlimit="2.613"/><path d="M74.391 98.729l-1.889-.68c.303-.152.529-.303.832-.453l1.964.68-.907.453zm-2.947 1.285l-1.587-.832c.302-.076.604-.227.831-.377l1.738.83-.982.379zm-2.947 1.209l-1.436-.908c.227-.074.529-.227.755-.301l1.587.906-.906.303zm21.761-17.304l-2.872.453c0-.227.076-.453.076-.68l2.795-.453c.076.226.001.453.001.68zm0-1.436l-2.795.529c-.076-.227-.076-.453-.151-.68l2.871-.529c-.001.152.075.68.075.68zm-.302-1.36l-2.795.605c-.076-.151-.151-.378-.303-.605l2.872-.68c.074.227.15.529.226.68zm-9.067-4.987l2.417-1.058c.303.151.605.302.832.378L81.72 76.59c-.303-.152-.605-.302-.831-.454zm2.342 1.361c-.227-.151-.529-.378-.756-.529l2.645-.982c.227.151.454.302.756.453l-2.645 1.058zm1.284.906l-.68-.453 2.796-.982c.226.227.453.378.68.529l-2.796.906zm1.134 1.058c-.151-.227-.378-.378-.604-.529l2.871-.831c.227.151.378.378.529.529l-2.796.831zm3.324-.227c.076.227.302.454.378.604l-2.796.755c-.151-.227-.302-.377-.453-.604l2.871-.755zM51.27 104.547l.075.906c.227-.076.529-.076.756-.15l-.151-.908c-.227 0-.378.076-.68.152zM48.021 105.227l-.076.68c.227 0 .529 0 .755-.076v-.756c-.226.075-.377.075-.679.152zM54.594 103.791l.227.982c.303 0 .529-.076.756-.152l-.302-.98c-.227.074-.454.074-.681.15zM57.692 103.035l.605 1.059c.227-.076.529-.152.755-.229l-.604-.98c-.227.074-.529.074-.756.15zM60.866 102.279l.907.982c.227-.076.529-.15.831-.227l-.907-.982c-.227.077-.529.151-.831.227zM64.039 101.373l1.058.982c.303-.152.68-.227.907-.303l-1.133-.982c-.303.076-.53.153-.832.303zM77.186 97.369c.227-.076.529-.229.907-.453l-2.342-.605c-.227.15-.529.303-.831.453l2.266.605zM77.186 95.479l2.645.529c.227-.151.605-.377.907-.529l-2.645-.529c-.302.151-.604.302-.907.529zM79.377 94.119l2.72.454c.227-.227.604-.454.831-.604l-2.796-.454c-.301.151-.528.378-.755.604zM81.191 92.759l2.871.302c.227-.227.529-.454.756-.68l-2.871-.227c-.227.152-.454.379-.756.605zM82.853 91.324l2.947.151c.226-.151.528-.453.68-.604l-2.947-.151c-.227.151-.453.377-.68.604zM84.289 89.888l3.022.151c.151-.227.453-.529.604-.755h-2.947c-.226.226-.453.453-.679.604zM85.498 88.528l2.947-.075c.151-.227.378-.529.529-.756l-2.947.076a2.752 2.752 0 0 1-.529.755zM86.782 86.413c-.076.227-.227.453-.378.68l2.947-.151a3.56 3.56 0 0 0 .378-.756l-2.947.227zM87.009 85.732l2.947-.302c.076-.227.151-.529.227-.756l-2.947.378a3.468 3.468 0 0 0-.227.68zM79.907 75.758l2.417-1.133c-.227-.151-.832-.378-.907-.378l-2.342 1.133c.302.152.605.227.832.378zM77.942 75.003l2.267-1.209c-.302-.076-.604-.151-.907-.303L77.035 74.7c.302.076.605.227.907.303zM75.826 74.398l2.04-1.284a6.484 6.484 0 0 0-.982-.227l-2.04 1.285c.302.076.605.151.982.226zM75.297 72.585l-1.813 1.284c-.378-.075-.68-.151-1.058-.151l1.813-1.284 1.058.151zM70.915 73.417l1.586-1.285c-.377 0-.68-.076-1.058-.076l-1.511 1.285c.303 0 .605.076.983.076zM68.271 73.114l1.285-1.209c-.303-.076-.604-.076-.907-.076l-1.36 1.209c.377.076.604.076.982.076zM65.625 72.887l1.058-1.133c-.302-.076-.68-.076-.982-.076l-1.058 1.209h.982zM62.906 72.812l.982-1.134h-.982l-.831 1.058c.302 0 .529.076.831.076z" fill="#c4c8cb"/><path d="M58.448 82.786l7.027-6.498s-12.845 4.155-13.071 4.307c2.568-.303 5.288.604 6.044 2.191z" fill="#c82e37"/><path d="M93.356 81.955c-.605-3.552-4.005-6.498-9.596-8.538-5.213-1.889-13.072-2.796-20.929-2.645h-.151l.075.151h.076c15.791-.302 27.276 4.231 28.485 11.183 1.586 9.218-15.49 20.098-38.157 24.104-1.284.227-5.818.906-5.894.906h-.075v.227h.151c1.511-.15 5.743-.68 7.253-.982 10.956-1.889 21.61-5.592 28.712-10.125 3.476-2.266 6.121-4.609 7.858-7.026 1.738-2.496 2.645-4.914 2.192-7.255z" fill="#c82e37"/><path d="M20.518 92.457H24.9l-.529-.378c-.377-.302-.377-.604-.151-1.208l1.738-5.743c.529-.076.907-.076 1.208-.076.982 0 1.738.227 1.965.604.151.151.227.378.075.68-.226.982-1.586 1.587-3.702 1.814v.377c.454.076.907.151 1.36.151 2.342 0 4.231-.982 4.685-2.343.151-.528.075-1.058-.227-1.436-.529-.68-1.738-1.133-3.476-1.133h-4.835l.453.377c.454.302.378.604.227 1.209l-1.662 5.365c-.227.682-.756 1.438-1.511 1.74zM48.323 92.759c1.662 0 3.249-.453 4.684-1.285 1.512-.831 2.569-2.04 2.947-3.324.377-1.36.075-2.569-.907-3.4-.907-.831-2.418-1.209-4.231-1.209-2.116 0-4.08.604-5.667 1.889-.982.755-1.662 1.737-1.965 2.72-.377 1.284 0 2.493.982 3.324.908.832 2.344 1.285 4.157 1.285zm2.267-7.933c1.209 0 2.191.378 2.72 1.133.378.604.453 1.36.227 2.191-.529 1.889-2.569 3.249-4.911 3.249-1.209 0-2.191-.453-2.72-1.133-.378-.604-.454-1.36-.227-2.191.529-1.889 2.569-3.249 4.911-3.249zM60.11 92.684c1.663 0 3.174-.302 4.231-.831.604-.302 1.058-.604 1.284-.982.378-.378.529-.756.529-1.209 0-.605-.227-1.058-.831-1.436-.453-.378-1.133-.604-1.889-.907l-.302-.075c-1.586-.604-2.267-.907-2.115-1.436.151-.454.982-.907 2.417-.907 1.814 0 2.947.832 2.947.832h.076l.529-1.738s-1.662-.378-3.098-.378c-2.796 0-4.911.907-5.289 2.342-.227.604 0 1.208.604 1.663.453.377 1.133.604 1.436.755.075 0 .151 0 .151.076.151 0 .302.075.529.151.756.302 2.041.755 2.191 1.058.075.151.151.302.075.453-.151.604-1.133 1.209-2.946 1.209-1.284 0-2.418-.302-3.627-.907l-.302-.227.151 2.04c.756.227 2.116.454 3.249.454zM35.629 87.772l.831-2.72c.529-.076.907-.076 1.209-.076.756 0 1.436.227 1.662.529a.586.586 0 0 1 .151.604c-.302.832-1.511 1.436-3.552 1.663h-.301zm-.906 3.099l.907-2.947.151.151 2.494 3.4c.453.604 1.284.907 2.191.907h1.662l-.529-.378a9.166 9.166 0 0 1-1.209-1.058s-1.511-1.964-2.041-2.645c1.813-.454 2.947-.982 3.325-2.191a1.318 1.318 0 0 0-.227-1.284c-.529-.68-1.662-1.058-3.249-1.058h-4.685l.529.377c.378.302.378.604.151 1.209l-1.662 5.365c-.227.68-.756 1.436-1.511 1.738h4.307l-.453-.378c-.378-.302-.378-.604-.151-1.208zM68.195 85.505l1.36-1.737h8.916l-1.209 1.662-.151.227-.151-.227c-.227-.227-.68-.378-1.511-.378h-1.134l-1.813 5.818c-.151.604-.227.906.227 1.208l.454.378h-4.534c.756-.302 1.285-1.058 1.511-1.738l1.738-5.667h-1.133c-1.286.001-1.966.153-2.57.454z" fill="#fff"/></g></svg>