<svg xmlns="http://www.w3.org/2000/svg" width="2500" height="2500" viewBox="0 0 192.756 192.756"><path fill-rule="evenodd" clip-rule="evenodd" fill="#fff" d="M0 0h192.756v192.756H0V0z"/><path d="M62.694 91.59l-1.795 15.466h2.739l.68-5.828h2.173c2.21 0 4.667-1.156 4.667-5.034 0-3.084-1.946-4.604-4.251-4.604h-4.213zm2.456 2.449h.661c1.757 0 2.513.998 2.513 2.29 0 1.361-.755 2.472-2.569 2.472h-1.152l.547-4.762zM85.502 91.59h-2.74l-1.096 9.366c-.302 2.584-1.776 3.446-3.23 3.446-1.134 0-3.288-.567-2.872-4.06l1.039-8.753h-2.739l-1.059 8.799c-.472 3.899 1.209 6.87 5.631 6.87 2.437 0 5.347-.997 5.932-6.031l1.134-9.637zM88.263 91.59l-1.813 15.466h6.311c3.136 0 4.421-2.586 4.421-4.49 0-1.746-.908-3.266-2.4-3.787 1.228-.748 1.87-1.95 1.87-3.447 0-1.791-.963-3.742-4.288-3.742h-4.101zm2.456 2.585h1.437c1.247 0 1.813.612 1.813 1.565 0 .975-.51 1.837-1.833 1.837h-1.852l.435-3.402zm-.718 5.986h1.946c1.322 0 2.399.612 2.399 2.041 0 1.18-.586 2.268-2.286 2.268h-2.607l.548-4.309zM103.268 91.59h-2.741l-1.814 15.466h8.598l.3-2.586h-5.855l1.512-12.88zM114.422 91.59h-2.74l-1.813 15.466h2.738l1.815-15.466zM125.377 91.59h-8.049l-1.814 15.466h9.427l.303-2.586h-6.687l.472-4.059h4.666l.303-2.585h-4.668l.436-3.651h5.308l.303-2.585zM135.693 92.61c-1.115-.793-2.438-1.225-3.686-1.225-2.607 0-4.533 1.996-4.533 4.671 0 4.06 4.742 4.354 4.742 6.917 0 1.021-.738 1.701-1.852 1.701-1.078 0-2.607-.681-3.646-1.588l-.416 2.698c1.152.907 2.512 1.474 4.383 1.474 2.891 0 4.365-2.244 4.365-4.738 0-4.332-4.742-4.626-4.742-6.849 0-1.021.812-1.701 1.812-1.701.982 0 2.361.636 3.193 1.361l.38-2.721zM138.586 91.59l-1.795 15.466h2.738l.682-5.828h2.172c2.211 0 4.666-1.156 4.666-5.034 0-3.084-1.945-4.604-4.25-4.604h-4.213zm2.455 2.449h.662c1.756 0 2.512.998 2.512 2.29 0 1.361-.756 2.472-2.568 2.472h-1.152l.546-4.762zM154.732 91.386h-2.91l-6.311 15.67h3.023l1.246-3.379h4.006l.396 3.379H157l-2.268-15.67zm-1.89 3.243h.039l.68 6.848h-2.984l2.265-6.848zM165.055 90.298c.037-.658.301-1.066.717-1.066.549 0 1.568 1.088 2.457 1.088 1.152 0 1.871-1.202 1.852-3.356h-1.209c-.096.749-.303 1.088-.719 1.088-.566 0-1.379-1.088-2.475-1.088-1.172 0-1.832 1.179-1.832 3.333h1.209v.001zm7.613 1.292h-2.74l-1.152 10.091h-.037l-5.195-10.091h-2.74l-1.814 15.466h2.74l1.209-10.477h.039l5.289 10.477h2.607l1.794-15.466zM181.984 91.386h-2.91l-6.309 15.67h3.021l1.248-3.379h4.006l.396 3.379h2.814l-2.266-15.67zm-1.888 3.243h.037l.68 6.848h-2.984l2.267-6.848z" fill-rule="evenodd" clip-rule="evenodd" fill="#db8135"/><path d="M46.214 103.258c-2.57 5.795-8.288 9.827-14.928 9.827-9.045 0-16.377-7.479-16.377-16.707 0-9.227 7.332-16.707 16.377-16.707 8.411 0 15.341 6.468 16.271 14.795" fill="none" stroke="#a8afb5" stroke-width=".673" stroke-miterlimit="2.613"/><path d="M35.549 93.631h7.117l2.365-2.968h5.694c3.328 0 3.328-2.904 3.328-2.904v10.164H35.549v-1.174h-9.88v-.726h9.88v-2.392z" fill-rule="evenodd" clip-rule="evenodd" fill="#a8afb5"/><path d="M17.761 91.055c2.882 0 5.218 2.383 5.218 5.323 0 2.94-2.336 5.323-5.218 5.323s-5.218-2.383-5.218-5.323c0-2.94 2.336-5.323 5.218-5.323z" fill-rule="evenodd" clip-rule="evenodd" fill="#db8135" stroke="#db8135" stroke-width=".015" stroke-miterlimit="2.613"/><path d="M11.394 93.43c1.596 0 2.89 1.32 2.89 2.948 0 1.629-1.294 2.948-2.89 2.948s-2.89-1.319-2.89-2.948c0-1.628 1.294-2.948 2.89-2.948z" fill-rule="evenodd" clip-rule="evenodd" fill="#db8135"/><path d="M17.761 93.717c1.441 0 2.609 1.191 2.609 2.661s-1.168 2.662-2.609 2.662-2.609-1.192-2.609-2.662 1.168-2.661 2.609-2.661z" fill-rule="evenodd" clip-rule="evenodd" fill="#fff" stroke="#db8135" stroke-width=".052" stroke-miterlimit="2.613"/><path d="M24.129 93.43c1.596 0 2.89 1.32 2.89 2.948 0 1.629-1.293 2.948-2.89 2.948s-2.89-1.319-2.89-2.948c0-1.628 1.294-2.948 2.89-2.948zM17.761 86.934c1.596 0 2.89 1.32 2.89 2.948s-1.294 2.948-2.89 2.948-2.89-1.32-2.89-2.948 1.295-2.948 2.89-2.948zM17.761 99.926c1.596 0 2.89 1.32 2.89 2.948s-1.294 2.948-2.89 2.948-2.89-1.32-2.89-2.948 1.295-2.948 2.89-2.948z" fill-rule="evenodd" clip-rule="evenodd" fill="#db8135"/><path d="M11.161 89.769a2.853 2.853 0 0 1 4.086 0c1.129 1.15 1.131 3.015.004 4.165s-2.957 1.15-4.086 0-1.131-3.016-.004-4.165zM20.174 98.944a2.85 2.85 0 0 1 4.086 0 2.985 2.985 0 0 1 .004 4.164 2.853 2.853 0 0 1-4.086 0 2.985 2.985 0 0 1-.004-4.164zM11.164 103.112a2.987 2.987 0 0 1 0-4.169 2.856 2.856 0 0 1 4.091-.005 2.99 2.99 0 0 1 0 4.169 2.854 2.854 0 0 1-4.091.005zM20.178 93.917a2.986 2.986 0 0 1 0-4.168 2.853 2.853 0 0 1 4.09-.005 2.987 2.987 0 0 1 0 4.169 2.856 2.856 0 0 1-4.09.004z" fill-rule="evenodd" clip-rule="evenodd" fill="#db8135"/><path d="M34.36 99.065h19.693s-.418 7.481-6.506 7.481H27.876c0 .001.33-7.481 6.484-7.481zM61.077 90.353l-1.794 15.465h2.739l.68-5.828h2.173c2.21 0 4.667-1.156 4.667-5.034 0-3.084-1.946-4.604-4.251-4.604h-4.214v.001zm2.456 2.449h.662c1.757 0 2.513.998 2.513 2.291 0 1.36-.756 2.472-2.569 2.472h-1.153l.547-4.763zM83.885 90.353h-2.74l-1.096 9.366c-.302 2.585-1.775 3.446-3.23 3.446-1.134 0-3.287-.566-2.872-4.059l1.039-8.753h-2.74l-1.058 8.798c-.473 3.9 1.209 6.871 5.63 6.871 2.438 0 5.347-.998 5.933-6.032l1.134-9.637zM86.646 90.353l-1.814 15.465h6.311c3.136 0 4.421-2.585 4.421-4.49 0-1.746-.907-3.265-2.399-3.786 1.228-.749 1.871-1.951 1.871-3.447 0-1.792-.964-3.742-4.289-3.742h-4.101zm2.457 2.585h1.436c1.247 0 1.814.612 1.814 1.564 0 .975-.51 1.837-1.833 1.837h-1.852l.435-3.401zm-.718 5.987h1.946c1.323 0 2.4.612 2.4 2.041 0 1.179-.586 2.268-2.286 2.268h-2.607l.547-4.309zM101.65 90.353h-2.74l-1.814 15.465h8.597l.303-2.585h-5.857l1.511-12.88zM112.805 90.353h-2.739l-1.814 15.465h2.74l1.813-15.465zM123.76 90.353h-8.049l-1.813 15.465h9.428l.301-2.585h-6.688l.473-4.059h4.666l.303-2.585h-4.666l.433-3.651h5.309l.303-2.585zM134.076 91.374c-1.115-.793-2.438-1.225-3.686-1.225-2.605 0-4.533 1.996-4.533 4.671 0 4.06 4.742 4.354 4.742 6.916 0 1.021-.736 1.7-1.852 1.7-1.078 0-2.607-.68-3.646-1.587l-.416 2.698c1.152.907 2.514 1.475 4.383 1.475 2.891 0 4.365-2.245 4.365-4.739 0-4.331-4.742-4.626-4.742-6.849 0-1.02.812-1.7 1.812-1.7.984 0 2.363.635 3.193 1.36l.38-2.72zM136.969 90.353l-1.795 15.465h2.74l.68-5.828h2.172c2.211 0 4.668-1.156 4.668-5.034 0-3.084-1.947-4.604-4.252-4.604h-4.213v.001zm2.455 2.449h.662c1.758 0 2.514.998 2.514 2.291 0 1.36-.756 2.472-2.57 2.472h-1.152l.546-4.763zM153.115 90.149h-2.91l-6.311 15.669h3.023l1.246-3.379h4.006l.396 3.379h2.816l-2.266-15.669zm-1.888 3.243h.037l.68 6.848h-2.984l2.267-6.848zM163.438 89.061c.037-.657.303-1.065.717-1.065.549 0 1.568 1.088 2.457 1.088 1.152 0 1.871-1.201 1.852-3.355h-1.209c-.094.748-.303 1.088-.719 1.088-.566 0-1.379-1.088-2.475-1.088-1.172 0-1.832 1.179-1.832 3.333h1.209v-.001zm7.613 1.292h-2.738l-1.152 10.091h-.039l-5.195-10.091h-2.74l-1.812 15.465h2.738l1.209-10.477h.039l5.289 10.477h2.607l1.794-15.465zM180.367 90.149h-2.908l-6.311 15.669h3.021l1.248-3.379h4.006l.396 3.379h2.814l-2.266-15.669zm-1.888 3.243h.037l.682 6.848h-2.986l2.267-6.848z" fill-rule="evenodd" clip-rule="evenodd" fill="#a8afb5"/></svg>