<svg viewBox="-4.662054508379001 -5.332371604247307 360.5711588439502 111.17361494149483" xmlns="http://www.w3.org/2000/svg" width="2500" height="797"><path d="M207.54 55.15a4 4 0 0 1 .53-4.68l18.09-18.7c2.07-2.13-.9-2.13-.9-2.13h-16.9a7.54 7.54 0 0 0-5 2.16l-16.8 17.78c-2 2.16-2-.81-2-.81V9.89a2.92 2.92 0 0 0-3-3h-12.83a2.8 2.8 0 0 0-2.86 2.86v81.37a2.91 2.91 0 0 0 3 3h12.7a2.79 2.79 0 0 0 2.85-2.85V76.94a7.49 7.49 0 0 1 2.17-5l6-5.63 15 25.23a5.57 5.57 0 0 0 4.49 2.55h16c3 0 1.44-2.54 1.44-2.54zm-55 36V32.49a2.91 2.91 0 0 0-3-3h-12.8a2.92 2.92 0 0 0-3 3v58.63a2.91 2.91 0 0 0 3 3h12.82a2.91 2.91 0 0 0 3-3m-.48-73V9.74a2.8 2.8 0 0 0-2.86-2.86h-12.59a2.8 2.8 0 0 0-2.86 2.86v8.39a2.8 2.8 0 0 0 2.86 2.87h12.56a2.8 2.8 0 0 0 2.86-2.86m-32.12 73V9.89a2.91 2.91 0 0 0-3-3h-13.04a2.91 2.91 0 0 0-3 3v81.23a2.91 2.91 0 0 0 3 3H117a2.91 2.91 0 0 0 3-3m-29.4-3.5a2.47 2.47 0 0 0-.25-3.57l-10.56-9.13A43.78 43.78 0 1 0 67.51 87L79 97a2.5 2.5 0 0 0 3.59-.26zM68.82 50.51a25.19 25.19 0 1 1-25.19-25.19 25.19 25.19 0 0 1 25.19 25.19" fill="#555356"/><path d="M353 88.53l-14-11.76A50.11 50.11 0 1 0 325.48 91l14.94 12.54a2.84 2.84 0 0 0 4.09-.36l8.87-10.57a2.84 2.84 0 0 0-.35-4.09m-25.59-38.45a30.77 30.77 0 1 1-30.77-30.76 30.77 30.77 0 0 1 30.77 30.76" fill="#489541"/><g fill="#555356"><path d="M277 50.07a19.72 19.72 0 1 1 19.72 19.72A19.72 19.72 0 0 1 277 50.07M344.58 14.77a5.45 5.45 0 1 1 5.42 5.46 5.46 5.46 0 0 1-5.45-5.46m5.45-4.72a4.61 4.61 0 0 0-4.58 4.72 4.58 4.58 0 1 0 9.16 0 4.59 4.59 0 0 0-4.58-4.72m-1.25 8h-.73v-6.61h2.4a1.79 1.79 0 0 1 2 1.83 1.68 1.68 0 0 1-1.57 1.85l1.87 3h-.91l-1.77-3h-1.33zm0-3.6h1.49c.88 0 1.49-.19 1.49-1.21 0-.86-.65-1.19-1.49-1.19h-1.49z"/></g></svg>