<svg xmlns="http://www.w3.org/2000/svg" width="2500" height="2500" viewBox="0 0 192.756 192.756"><g fill-rule="evenodd" clip-rule="evenodd"><path fill="#fff" d="M0 0h192.756v192.756H0V0z"/><path d="M90.811 146.07c0-7.02 2.042-17.713-1.465-20.092-5.86-3.977-21.348 1.883-32.23 9.209-1.647 1.107-3.349-1.465-4.604-2.094 8.79-15.697 20.72-28.883 33.905-40.184-5.651-8.163-11.302-16.325-13.186-26.371 5.651-1.256 14.441 3.14 18.208-.627-5.651-5.023-11.93-10.674-19.464-11.93-13.813-1.884-26.999 3.767-38.301 11.302-8.162-4.395 1.884-10.046 4.396-15.069-11.93 1.256-20.511 6.698-31.185 14.442-1.137.824-4.604-3.768-3.977-4.396 14.441-20.092 33.277-33.277 57.137-38.3 11.302-2.512 21.976.628 33.278-1.884 6.907-1.883 13.185-1.255 19.464 1.256 13.812 6.279 23.232 19.464 26.998 33.905 8.164 3.767 16.117 10.464 22.395 15.697 1.988 1.656-.254 3.117 1.885 5.023 9.627 8.581 15.973 16.502 23.021 24.906 5.441 6.488 1.596 12.818.418 16.742 0 1.256 1.256 2.303.629 3.559-1.883 3.768-1.883 8.162-5.023 10.674-5.023 3.768-10.674-.627-16.324-.627 6.277 7.533 8.791 19.463.627 26.998-8.789 8.162-20.719 5.65-30.766 3.139 2.512 5.023 6.906 7.535 10.674 11.303-20.721 4.395-49.602-3.768-52.114-28.883 0-.627-4.396 2.931-4.396 2.302z" fill="#a9adb4"/><path d="M168.668 139.373c4.277 8.553-1.256 18.209-10.045 20.721-11.93 3.766-21.977-1.885-30.768-9.42 2.512 7.535 6.908 14.441 12.559 20.094-18.836 1.883-45.835-8.791-40.812-32.023-1.883.629-4.186 3.35-6.069 3.35 2.512-9.418 1.465-22.186-11.72-19.674-6.62 1.418-14.546 3.141-24.487 10.047l-1.256-.838c9.418-14.441 20.72-27.627 33.905-38.928-8.372-7.326-9.837-15.487-13.604-23.65 7.953.628 15.697 1.674 22.604.628-8.373-8.163-20.302-17.372-24.728-17.736-9.863-1.199-21.735.155-40.154 10.411l-1.046-1.465c3.14-6.907 9.419-10.988 15.697-14.441-10.36.628-11.511 1.256-17.79 2.512-7.125 2.036-15.802 6.279-24.068 12.976L5.42 60.051C29.907 26.773 80.137 9.402 115.926 38.285c7.535 6.279 11.721 6.906 21.559 19.464l2.092-.209c6.682 3.869 16.896 10.301 20.93 15.278.676.834-.674 2.91 0 3.768 9.209 11.72 33.068 25.116 23.441 42.276-.615 1.096 1.83 1.156 1.465 2.512-5.023 18.627-19.256 4.188-29.301 4.814-4.396.629-7.953 4.186-6.697 9.209.627 3.768 3.557 5.859 7.324 5.232 4.396-1.256 6.906-6.279 4.396-10.047 3.765 1.885 5.65 5.023 7.533 8.791z" fill="#30264c"/><path d="M128.484 38.913c1.883 3.139 3.768 6.278 5.023 10.046-10.674-11.93-24.488-21.976-40.185-26.371 13.815-1.884 27.627 3.767 35.162 16.325z" fill="#30264c"/><path d="M40.346 39.305c9.209-1.047 19.386 1.593 22.421 1.7 1.785.063 4.322.63 6.08.01 1.605-.566 3.236-3.24 3.813-4.777-6.591-1.215-28.236 1.477-29.357 1.627l-2.957 1.44zM115.508 60.888c-1.717 2.569-2.783 3.317-5.645 4.4-.641.242-2.998.631-3.16 1.455-.137.683 1.742 2.616 2.166 3.104 4.371 5.036 13.023 4.227 19.406 4.227l-12.767-13.186zM71.975 38.494c.045 1.665-1.888 3.034-1.008 4.565.653 1.136 3.488 1.482 4.649 1.504 2.417.045 5.269-1.813 5.777-4.395l-9.418-1.674zM82.23 41.842c-.878 1.636-1.972 3.158-2.951 4.604 5.085 3.427 9.52 2.019 13.834-2.092L82.23 41.842z" fill="#a69140"/><path d="M103.787 51.47c.207 1.718-2.795 4.437-4.018 5.447-.973.805-2.201.948-1.795 2.25.145.463 2.211 1.959 2.721 2.35 3.115 2.389 13.197 1.488 15.65-1.465l-12.558-8.582zM92.695 44.982c.264 1.91-2.349 3.796-3.401 5.18-.812 1.067-1.446.951-.417 2.197 4.447 5.39 12.594 1.51 14.493-2.354l-10.675-5.023z" fill="#a69140"/><path d="M127.855 57.958c5.232 5.022 5.652 9.418 2.512 13.813 2.988.543 8.373-3.559 9.838-3.559 1.256 0 11.51 7.953 13.186 9l.209 2.511c7.744 7.953 14.021 14.65 20.93 22.812-3.559.209-6.07-.836-5.441 2.303.627 2.512 1.045 3.768 3.557 4.395 1.885 0 3.35-1.465 2.303-3.139.629-.629 3.139 1.047 3.768 1.674 1.256 1.885-1.256 3.977-1.256 5.859-5.65-1.254-14.023-3.139-17.162-1.045-1.479.984-.637 4.182 1.465 5.021 3.139 1.256 4.037.568 5.441-.836.838-.838 7.812.928 9.209 1.256.932.219-1.742 2.539-1.047 3.139 1.26 1.084.945.193.42 2.303-13.396-4.604-24.488-6.279-32.65 5.023-2.303 5.65-.838 12.139 2.303 15.906 5.023 4.395 13.604 3.768 18.627-1.256.836 10.254-7.117 11.301-12.139 11.93-7.535.627-14.652-3.768-19.047-10.047-6.906-8.789-3.559-19.674 2.721-27.207-8.789 1.256-15.277-4.814-20.93-10.465.629 6.906 5.861 11.928 12.141 16.533-6.697 7.326-11.93 15.488-1.674 38.51-7.535-1.256-16.744-6.697-18.629-14.859-1.256-6.906 1.256-12.557 5.023-18.209-5.65 1.676-5.232 1.465-11.092 3.977-.838-14.441 2.93-17.162 6.697-23.439-5.232 1.674-7.326 3.348-10.465 8.162-4.395-4.604-14.022-3.768-19.673-2.512A142.897 142.897 0 0 1 99.604 95.42c.42-2.93.42-4.186.838-6.279-6.279-1.046-8.582-6.907-11.721-11.929 6.907 0 17.581-1.256 20.93 5.65.627-1.256 1.047-3.139 1.047-4.395 5.65 0 10.883-1.883 15.904-4.395C107.557 47.491 77 34.307 43.305 37.864c34.949-14.649 62.095-1.464 84.55 20.094z" fill="#fff"/><path d="M158.414 135.188c0 2.512-2.932 3.977-5.234 1.256-1.146-1.355 0-5.441 2.512-6.488 1.466.626 2.722 2.72 2.722 5.232z" fill="#fff"/><path d="M117.811 151.094c-4.395-6.906-6.906-14.441-1.885-26.162-1.045.418-2.93.838-4.812 1.465 0-5.023 2.092-10.047 4.604-14.441 3.141 5.023 7.535 8.162 12.35 10.885-10.675 13.811-10.257 23.858-10.257 28.253zM93.323 114.258c-.993-.992-3.558-1.674-5.442-1.674 2.512-1.256 7.325-3.35 9.837-5.232 0 1.256-1.884 4.395-.629 4.395 3.141.629 3.559-1.047 9.418-2.092-5.65 3.139-7.742 5.65-9.626 7.951-.628-.627-2.93-2.721-3.558-3.348zM153.285 83.649c.936.725 7.221 8.947 7.85 10.831-6.438-2.198-8.164-2.512-13.344-2.669.629-1.883.785-6.593 1.414-7.22 1.547-.929 3.17-1.647 4.08-.942zM153.391 77.213c.738.492-1.203 1.413-2.93 2.511-3.768-5.651-9.838-7.116-20.094-7.953 6.906-1.309 8.582-4.187 8.582-4.187 2.565.054 9.262 6.176 14.442 9.629zM138.74 130.582c5.65-9.627 8.371-7.324 12.139-9.209-7.326 5.232-9.418 7.117-8.582 16.744-5.023-3.768-10.465-6.488-5.023-17.58-.001 2.512-.001 5.651 1.466 10.045z" fill="#a9adb4"/><path d="M150.303 80.353c1.361.366 3.219 2.59 3.924 4.238h-5.021c-1.43 1.333-.316 4.587-4.711 4.709-5.65.157-9.568-2.087-13.496-4.792l-2.357-.074c-.748-.704-2.398-3.303-2.982-4.081h24.643z" fill="#30264c"/><path d="M138.531 85.533c0 .78-.424 1.413-.943 1.413s-.941-.633-.941-1.413c0-.781.422-1.413.941-1.413s.943.632.943 1.413z" fill="#fff"/></g></svg>