<svg xmlns="http://www.w3.org/2000/svg" width="2500" height="2500" viewBox="0 0 192.756 192.756"><g fill-rule="evenodd" clip-rule="evenodd"><path fill="#fff" d="M0 0h192.756v192.756H0V0z"/><path d="M58.696 68.029s-21.166-8.432-16.35-30.461c0 0 3.431-12.03 9.127-15.318 0 0 7.206-5.639 12.118 1.652l5.542 6.605 3.837 4.815s4.667 6.56 5.685 0c0 0 .875-6.273.875-8.218 0 0 .097-5.782 4.667-5.973 4.563-.197 5.101-.292 5.101-3.354 0-3.062-.143-9.865 9.283-9.236 0 0 10.299-.583 6.994 7.097 0 0-2.379 5.056.348 6.268l5.68 1.556s4.957 1.606 3.02 6.559c-1.945 4.958-1.219 8.312-1.219 8.312l9.865-5.782 9.578-4.664s11.994-4.912 15.059 5.244l.441 1.75.336 2.917v3.157l-.336 3.454s-1.516 14.189-12.639 20.605c0 0-6.359 3.875-8.254 3.875 0 0-1.555 1.032-3.1-1.292 0 0 0 2.067-1.984 2.067 0 0-.211 5.204-2.498 7.486 0 0 .697 1.721 4.135 1.721 0 0-1.391 1.184-3.438 0 0 0 7.463 11.93 35.875 3.611 0 0-14.275 10.154-25.037 7.661 0 0-8.264 5.078-21.344 3.958l.092.686 3.357 2.925s6.707 4.99 7.572 7.832l.463.27 7.102-11.712s1.814-1.807 4.049-1.201c0 0 3.117 1.249 3.117 4.208v.712l-9.281 12.603-.057 2.995s-1.355.836-.367 1.825l-.307 1.708-.865 1.321v3.794l1.225 3.591 2.676 3.895 1.602 2.276 1.898 3.671 1.367 2.362 1.258 2.734s3.385 6.066-1.453 8.629l-5.215 3.523-10.695 6.382-.371.103s1.658-16.778.887-21.806l-1.029 11.226-3.494.778-.641-9.813h-.904v29.424s.584 5.261-3.975 2.167c0 0-3.047-2.442-3.213-9.076 0 0-.219-7.206-1.344-7.857l-.693-.126 1.225 13.485.24.927.457.731.395.732.457.611 1.42 1.476 1.715 2.064 1.012 1.511.773 1.018.617.731 1.211 1.064.824.771 1.242.721 1.361.829 1.113.636 1.201.291s.447 1.39-.887 2.162c0 0-5.969 1.452-9.047-1.625 0 0-5.924-4.461-6.102-4.563l-.207.526.287 1.149.531 1.339h-1.623l-5.376-6.589s.526-6.113-2.607-11.976c0 0-2.442-2.974.085-5.496 2.522-2.527-9.745-3.591-4.158.612 0 0 1.058 9.322 3.054 11.317 1.006 1.001.126 4.719.126 4.719s-5.256 5.13-5.457 6.188l-.286.2-1.67-.159s-.08-1.053.652-1.791c0 0 .606-.571.446-1.464 0 0-8.63 7.371-18.563 3.175 0 0-.761-.384.692-.818l6.8-2.156s5.576-2.276 6.679-7.16c0 0 .486-1.875-.691-3.06l-5.376-10.003 1.287-.405-3.014-7.12s-1.024.16-2.802-1.618l-.337 1.481.429 16.396s.081 3.46-2.567 4.992c-2.653 1.532-4.632 2.002-5.988-2.848l-5.782-30.024v2.351s1.287 7.206.143 9.773c0 0-.286 2.849.715 4.701l1.43 2.567s-7.709-1.063-9.774-6.622c0 0-1.566-3.356.429-6.64 0 0 2.71-3.351 3.208-4.924 0 0 1.39-3.546 2.779-4.346 0 0-.189-1.401.715-1.928 0 0-1.212-2.643-1.212-4.061 0 0-3.78-.36-2.997-4.215 0 0 .212-.354-.366-1.189 0 0-1.601-2.121.234-4.352 0 0 .269-1.075-.211-2.487-.469-1.425-.652-3.832 1.367-5.376 2.024-1.551 7.131-.927 7.131-.927s3.414-4.215 5.879-1.28l3.065 2.727s.709.836 1.418-.349l3.459-7.726 1.99-3.621 2.259-3.643 1.362-1.944.708-.892s.315-1.232-1.235-.681l-3.014 1.81-.628.026.394-1.127s-11.89 3.912-16.481 1.258c0 0-5.937.257-6.623-.429 0 0 1.03-.346 1.03-1.292 0 0-9.288.86-10.065-.864 0 0 7.657.178 8.606-1.464 0 0-5.599.95-7.663-1.973 0 0-5.073-2.154-5.679-2.154l-2.836-1.632s-5.507-4.646-6.542-7.231c0 0 8.35 11.532 25.729 3.357 0 0 5.507-2.325 6.199-4.304 0 .004-3.271-3.175-2.842-7.997z"/><path d="M59.989 90.23s3.185 2.671 10.928 0c0 0 .944 2.065 1.378 0 0 0 2.465.561 2.047-1.184 0 0 1.133 1.788 4.833-.966 0 0-1.549-.26-4.043.429l.869-.829h-2.024l-.286-.403s2.487-.231 3.82-1.885l-2.258.232s3.843-1.069 4.312-3.443c0 0-1.721-.043-2.516.751l1.59-2.259s-.823-.223-3.734-.263c0 0 6.633-1.244 1.332-1.882 0 0 4.69-2.633-.234-1.881l-3.963 1.132s2.288-1.974 5.067-1.974c0 0-.429-2.145-8.189.607 0 0 4.97-3.415 9.928-2.545 0 0-2.288-2.345-9.414.346 0 0-3.683 1.678-5.273 3.271l-4.838 4.171-1.821 1.306s-1.567-.229-2.642 1.522l-5.267.503 1.682.783s-1.888.987-3.363.555c0 0 5.73 2.779 9.293.168 0 0 .554 1.799 3.912.987 0 0 .898.897-.429.897 0 0 .634 1.275 4.598.869 0 .001-1.418 1.506-5.295.985z" fill="#ca3132"/><path d="M74.326 78.443s-2.248.218-3.363 1.33c-1.116 1.119 2.116-.478 3.363-1.33zM69.574 80.556s-3.312.755-3.506 2.028c-.001 0 2.664-.723 3.506-2.028zM72.673 84.711s-2.219-.017-2.534.76c0 .001 1.802-.056 2.534-.76zM69.819 87.565s-2.219-.017-2.533.76c0 .001 1.807-.056 2.533-.76zM65.467 82.767s-1.653.183-1.812.789c0 0 1.332-.206 1.812-.789zM67.257 83.802s-1.647.184-1.813.79c0-.001 1.338-.206 1.813-.79zM62.63 83.813s-2.379.312-2.625 1.261c.001.001 1.928-.34 2.625-1.261zM67.372 79.559s-1.396.183-1.538.74c-.001 0 1.131-.203 1.538-.74zM70.883 78.152s-1.87.12-2.042.655c0 0 1.51-.146 2.042-.655z"/><path d="M78.575 38.823s14.595-2.179 28.406 2.536l4.627-1.921s-.172-4.893 1.051-8.39c0 0 2.621-5.504-3.848-6.557 0 0-7.783-1.264-5.33-7.166 0 0 .389-1.292-1.406-.443-1.785.849-1.922 7.689 1.566 8.307 0 0-3.168 1.124-3.906-3.002-.732-4.135 1.613-7.853 3.443-7.049 0 0 1.057 1.421 1.566.089.502-1.327.549-5.044-3.168-5.23 0 0-6.805-.723-9.087 1.562-2.289 2.282-1.676 5.67-1.676 5.67s.498 5.275-3.54 5.275-5.759-.251-6.148 3.12c-.389 3.377-.463 6.657-.463 6.657s-1.006 5.467-2.087 6.542z" fill="#8f5632"/><path d="M104.641 33.833c-.611 2.073-2.166 3.443-3.459 3.057-1.305-.383-1.859-2.379-1.24-4.45.617-2.076 2.162-3.442 3.465-3.056 1.298.384 1.853 2.377 1.234 4.449zM92.432 17.378s-.338-4.341 1.526-1.562c1.83 2.722-1.681 12.518-6.594 8.366 0 0 3.26 1.075 4.06-1.126 1.276-3.48 1.008-5.678 1.008-5.678zM86.335 29.999c.624 1.984.274 3.866-.778 4.197-1.052.332-2.413-1.006-3.042-2.996-.623-1.985-.28-3.869.772-4.198 1.058-.334 2.419 1.007 3.048 2.997z"/><path d="M103.303 30.222s1.637.783.641 3.643c-1 2.865-2.625 2.259-2.625 2.259l.27-.721s1.172.091 1.623-1.807c.453-1.899-.176-2.414-.176-2.414l.267-.96zM89.149 42.814c0 1.19-1.109 2.156-2.476 2.156-1.374 0-2.477-.966-2.477-2.156 0-1.195 1.103-2.161 2.477-2.161 1.367 0 2.476.967 2.476 2.161zM96.298 42.929c0 1.275-1.184 2.311-2.648 2.311-1.465 0-2.648-1.035-2.648-2.311s1.184-2.305 2.648-2.305c1.464.001 2.648 1.03 2.648 2.305zM98.334 44.336s.496-2.544 2.225-2.951c1.732-.409 3.18.955 3.18.955s-1.546 2.909-5.405 1.996z" fill="#fff"/><path d="M86.523 87.297l-1.881 1.406s4.174 6.11 9.842.44c0 0 .451-1.31-1.738-2.573.001 0-1.476 1.441-6.223.727zM86.878 69.808l.286-.598.166-.837-.138-.492s-.755-.855-2.425.105l-.749.609s-6.308 5.713-1.144 14.88l.612.612.715.644s5.318 4.006 9.482-.157l1.035-1.098 1.419-2.001 1.259-2.128 1-2.716s2.133-7.578-3.643-7.354l-.44.254s.263 3.074-.629 3.586l-.126-4.612s-.389-3.906-3.552-2.048l-1.161 1.367s-1.126 1.984-1.967 1.984z" fill="#dfa480"/><path d="M103.311 75.573s4.584-.55 6.443.517l1.127.415 1.842 1.218 1.047.76 1.33.772 1.379 1.035 1.678 1.893.686.904 1.424.817h1.332l.516 1.161s.09.686 1.801 1.292l1.041.257s-3.42.023-4.348-.903h-1.887l.939.429.611.354.252.506s.561-.172.949-.172c.383 0 3.607.561 1.59 1.078-2.025.512-4.906-.777-4.906-.777h-2.625s3.961 1.424 7.703 1.424c3.74 0-1.031.903-1.031.903s-2.898.037-4.008-.606c0 0-.172.712.389 1.035.561.321 2.064.904-1.721.904V91.864s-3.482.472-4.473-1.81c0 0-2.969-.215-2.969-.516l.338.821s-1.465.555-1.785-1.038c0 0-1.217 1.038-2-.727 0 0-1.115.769-2.924-2.414 0 0-.383-.472-.383.089l.596 1.032s-.092 1.204-1.756-.389c0 0-1.076-.901 0-1.164l.727-.423s-1.803.295-2.277-1.317c0 0 .99.661 1.854-.449l.898-.086s-2.109-1.421-.338-1.767c0 0 5.633 1.121 6.057 1.55 0 0 .348-.989-6.49-2.107 0 0-.332-.758 1.314-.758s1.646-.704 1.646-.704.121-.26.561 0c0 0 1.471.472 2.711.472 1.252 0 2.42.672 2.42.672s-.16-.887-6.516-1.627l-.932-.058s3.5-.854 5.461-.257c0 0-.434-1.078-5.855-1.078 0 0 1.797-1.247 4.25-.615-.001.003-1.104-1.623-3.688-1.623z" fill="#ca3132"/><path d="M114.398 82.979l.943-.292 1.607 1.229c.001.001-1.897-.291-2.55-.937zM111.148 81.651l2.379.976s-2.05.257-2.379-.976zM110.99 86.015l2.75.916s-2.344-.258-2.75-.916zM114.998 85.672s.457.961 2.201.721c1.74-.241-2.08-.643-2.201-.721z"/><path d="M111.51 74.915s.99 2.885 4.072 2.551c0 0-1.779-2.205-4.072-2.551zM106.74 73.972l.943.972 1.498-.012c.001 0-.24-1.264-2.441-.96zM105.121 73.88s-1.371-.108-1.715.623c-.326.729 2.112-.234 1.715-.623zM99.396 81.098s.023 1.26 1.42 1.138c1.395-.121-1.42-1.138-1.42-1.138zM98.699 82.704s.195 1.035.91.897c0 .001-.058-.56-.91-.897zM103.531 88.709s.225 1.47 1.842 1.184c0 0 .326-1.036-1.842-1.184zM127.551 87.588l.807-.171.045.468c-.001 0-.405.143-.852-.297z" fill="#ca3132"/><path d="M83.316 28.112s-1.07 1.287-.046 3.369c1.024 2.087 1.835 1.583 1.835 1.583l-.262-.76s-.601.143-1.224-1.081c-.629-1.224-.028-2.302-.028-2.302l-.275-.809z" fill="#fff"/><path d="M58.959 65.533s-.235-2.125 4.901-3.955c0 0-.743-5.919 1.373-7.146 0 0-.778-.306-2.574 1.49 0 0 .515-5.879 6.017-7.686 0 0-1.115-1.805-4.644-1.805 0 0 2.768-.469 4.152.329 0 0-3.351-3.849-4.953-4.541 0 0 5.496 3.105 8.853 6.156 0 0 .87.214-.069-4.169 0 0-1.727-5.133-3.854-8.553 0 0 5.81 9.551 10.454 11.486 0 0 9.619 5.162 8.396 2.322 0 0 3.866.518 5.221 4.069 0 0 2.391-4.069 4.649-4.069 0 0 1.973.129 4.325-1.226 0 0 1.682-.646 2.711-.646s4.094-.612 6.902-3.42c2.807-2.805 4.455-3.036 3.299-.903l-2.59 3.615s-.469 1.292 1.264.292c1.732-.998 2.379-1.373 2.379-1.373l-3.322 4.212s1.469.586 4.717-1.291c3.248-1.881 5.291-.646 5.291-.646s-2.934.194-3.775 1.035c-.834.835 2.584-.066 2.584 1.29 0 0-3.379-.695-4.426.355 0 0 10.066 8.712 3.518 8.095 0 0 .064 3.392-2.646 5.358 0 0 2.693.503 4.266 2.465 0 0 1.768-2.848 3.129-1.075 1.35 1.773 3.889 1.335 5.639.323 0 0 10.975-5.161 13.17-10.812 0 0 6.17-14.188 2.676-22.36 0 0-3.396-6.454-9.934-4.304l-4.906 1.639-1.768.815-3.957 2.175-3.391 1.785-3.02 1.827-4.68 2.559-3.037 1.665-4.512 2.17-8.789 3.246s-5.496 1.627-7.343 1.058l-4.123-.692-3.98-1.722-4.181-2.619-3.751-3.129-3.712-4.06-3.191-3.488-3.597-4.519-2.236-2.668-1.812-1.635s-4.364-2.992-8.899 1.552c0 0-3.488 3.351-5.381 7.223 0 0-2.15 5.296-2.494 9.425 0 0-.521 6.668 1.247 10.15-.003.002 4.251 10.931 14.414 14.331z" fill="#8f5632"/><path d="M56.409 46.538c-.052 1.247-1.882 2.179-4.089 2.087-2.208-.097-3.958-1.184-3.9-2.431.051-1.247 1.882-2.179 4.089-2.087 2.212.098 3.957 1.184 3.9 2.431z"/><path d="M54.961 46.109c-.052.601-1.201.99-2.556.87-1.361-.12-2.425-.704-2.374-1.307.058-.6 1.207-.992 2.562-.872 1.368.119 2.42.708 2.368 1.309z" fill="#fff"/><path d="M49.117 46.306s.578 1.702 3.271 1.788c0 0 2.053.243 3.305-1.027l-.279-.183s-3.541 2.233-5.948-.687l-.349.109z" fill="#fff"/><path d="M131.738 61.029c-.053 1.539-1.895 2.688-4.102 2.574-2.213-.117-3.951-1.461-3.9-2.997.057-1.538 1.889-2.688 4.102-2.57 2.201.117 3.951 1.455 3.9 2.993z"/><path d="M130.76 60.552c-.062.883-1.43 1.458-3.059 1.278-1.619-.177-2.889-1.035-2.814-1.919.062-.883 1.43-1.461 3.047-1.283 1.625.177 2.888 1.038 2.826 1.924z" fill="#fff"/><path d="M124.439 61.224s.607 1.635 3.301 1.75c0 0 2.047.263 3.283-.938l-.281-.178s-3.512 2.093-5.953-.731l-.35.097z" fill="#fff"/><path d="M142.088 39.012c1.379.79 1.596 3.117.498 5.204-1.098 2.079-3.1 3.125-4.479 2.336-1.377-.792-1.6-3.123-.496-5.204 1.098-2.079 3.1-3.125 4.477-2.336z"/><path d="M141.221 39.727c.771.486.68 2.082-.219 3.569-.887 1.487-2.236 2.299-3.02 1.812-.771-.486-.688-2.087.211-3.574.893-1.487 2.243-2.294 3.028-1.807z" fill="#fff"/><path d="M138.982 46.169s1.762.194 3.078-2.353c0 0 1.166-1.864.623-3.632l-.285.186s.324 4.401-3.352 5.413l-.064.386z" fill="#fff"/><path d="M72.822 50.507s.549-.989-1.087-.629c0 0-1.499.435-1.962.896 0 0-1.241 1.73.629 1.587 0-.001 2.002-1.168 2.42-1.854z" fill="#ca3132"/><path d="M74.166 50.593s-8.041 3.503-7.04 8.453c0 0 .223-1.991 1.093-2.139.869-.149-1.253 2.602-.509 4.246l.566.718s.635-3.38 2.63-4.724c0 0-.503 1.132-.326 1.733 0 0 1.464-2.814 2.093-2.814 0 0-2.362 3.352-2.001 5.116 0 0 .234.506.658.506.417 0 .777-1.822.777-1.822s1.641-3.617 3.826-4.543l.12-.933-1.166.12v-1.433s-.687-.537-1.642.898c0 0-.211-.923.566-1.375 0 0-1.539.028-1.71.987 0 0 .091-1.347 1.47-1.736 1.378-.389.595-1.258.595-1.258zM77.58 49.432l.269 2.002.961 1.464 3.734 3.379s2.813 2.871 3.294.898l.538.658.446.566s.955 1.109 1.642-.747l.332-.188 1.916.129s.777-1.733-1.916-2.9l.446-.183s-4.397-3.706-8.218-3.076l1.041 1.464s-1.87-.24-2.024-1.856l-2.461-1.61z" fill="#ca3132"/><path d="M83.768 54.51s.72 1.436 3.952 1.436l-.155-.386-.611-.357c-.001-.001-.882.268-3.186-.693zM84.236 53.269c-.12-.023.011 1.043 1.67.798 0 0-1.052-.678-1.67-.798z"/><path d="M100.043 52.674l-4.432 2.556s1.315.377 3.98-1.164c0 0-2.088 2.087-4.318 2.087 0 0-.555.895 1.293.895 0 0 .097.995 2.333.646 0 0 3.91-.841 7.252-3.48l2.836-2.485s1.314-1.91-1.385-.349l-2.562 1.476s1.361-.681 2.66-3.363c0 0-1.504 1.521-3.141 2.133v-1.293s-3.791-.503-5.512 1.842l-.395.346 1.391.153zM108.695 56.638s-2.441-1.141-1.246 1.195c1.195 2.339 1.842 2.235 2.482 1.492.647-.749-1.236-2.687-1.236-2.687zM110.445 51.668s.35 1.344-.748 1.738c-1.094.4-.148 2.188-.148 2.188l1.59 2.588.252 1.292s.451.446 1.045-.35c.596-.794.545.498.545.498s.354 1.493-.047 2.139c-.4.646 1.041.795.996-.795-.053-1.596-.801-3.383-.801-3.383s1.395 1.49 1.543 2.633c0 0-.199-2.782-1.691-4.87 0 0-.789-.947.645-.051 0 0 1.246 2.09 1.545 3.628 0 0 .504-1.79-.299-3.38 0 0 .648 0 1.094.895 0 0 .801 2.291 1.145.049 0 0-.195-3.031-2.488-4.226 0 0-1.688-.395-1.041 1.393l.641.746s-2.029-.746-2.029-1.641l.691-.297c-.002.001-.598-1.292-2.44-.794z" fill="#ca3132"/><path d="M111.631 55.445l.039.649.549.446s.406-.963-.588-1.095z"/><path d="M116.131 58.456s.908 1.979.908 3.163c0 0 1.83-.818.939-2.151-.875-1.332-1.865-1.055-1.865-1.055l.018.043z" fill="#ca3132"/><path d="M62.865 71.747l-.389-.132.045.435.39.434.343-.042.045-.392-.434-.303z"/><path d="M118.328 74.869l-.729.946s-.045 1.464 1.242.689c1.287-.772 3.014-5.164 1.938-8.647-1.074-3.489-5.592-1.767-5.592-1.767s-2.111.906-4.004 4.907l-.08.303 5.33 4.129s.35.214.863-.303c.001.001 1.288-1.158 1.032-.257z" fill="#dfa480"/><path d="M115.1 70.483s1.289-2.11 2.58-1.25c1.299.861 1.299.386 1.299 2.325l.08.6s.217.475.475-.04l.127-1.979s-.424-1.424-1.195-2.11c0 0-.486-.732-1.637.04l-2.195 1.853s-.436.085 0 1.075l.258 1.247s.209 1.292.896.132l.857-1.682s.219-.989-.635.086c0 0-.864 1.075-.91-.297z"/><path d="M102.234 60.154s1.635-2.19 3.316-.601 2.15 2.362 2.15 2.362 1.984 1.768 2.025 4.135c.033 2.368 2.789.644 3.305-.129 0 0 .996-1.507.908-.174l-2.756 4.134s-.863 1.676-3.094 1.373c-2.236-.297-5.381-.297-7.189.903 0 0-.902.99-1.766-.515l-.424-.903s-.561-.989.727-1.378c0 0 2.887-1.59 3.568-3.786.002.001.957-2.839-.77-5.421z" fill="#dfa480"/><path d="M93.632 61.189s.475 1.647 4.432.086c3.701-1.464 3.488-.778 3.488-.778s2.105 4.217-.137 6.5c0 0-2.236 3.011-4.947 1.461l.693-.211s-.95-.864-2.757-.649l-1.201-1.89s3.911 1.721 4.294-3.057l2.42-.3s.727-.861.297-.949l-1.938.56s-4.862 1.808-5.291-.125c-.428-1.94.647-.648.647-.648z" fill="#fff"/><path d="M94.879 63.598c0 .143-.171.257-.382.257-.223 0-.395-.114-.395-.257s.172-.258.395-.258c.211 0 .382.115.382.258zM87.336 63.014c0 .143-.171.263-.383.263-.223 0-.395-.12-.395-.263 0-.14.172-.257.395-.257.212 0 .383.117.383.257zM90.688 63.38l.046 1.675s.314 1.013 1.006.238c0 0-.601-3.248.538-4 0 0 .606-.84-.343-1.681 0 0-.841-.601-1.161.521l-.018 2.385-.068.862z" fill="#fff"/><path d="M83.298 67.337c.486.103 1.024.08 1.625-.143l-.595-.303s1.144-.389 2.763.083l.537-.128.48-.303.812-.601.709-.709.103-.24v-.297l-.297-.366-.343-.151-.452-.043-.297.086s-.583.989-1.166 1.029c-1.099.08-2.545-.732-2.311-3.534l-2.156-.646s-.538-.897-.132-.912l1.682.81s4.186 2.402 4.873.692c.692-1.705-.492-.687-.492-.687s-.686 1.436-4.071-.601c-3.168-1.91-3.072-1.247-3.072-1.247s-2.579 3.541-.88 5.974c0 0 .503.98 1.43 1.661l1.25.576z" fill="#fff"/><path d="M82.618 68.31l-1.641 2.087s-11.409-1.178-17.803 5.05c0 0-6.399-5.879-1.791-12.016 0 0 2.442-1.959 4.878-.652 2.437 1.304 2.786 2.828 2.786 2.828s.829 3.263.743 4.138l.086.3 2.482-.958s-2.179-4.787 2.912-7.658c0 0 4.008-3.002 5.049-2.7 1.047.304.303.698.303.698s-3.048 2.654-.583 6.485l1.219 1.527 1.36.871z" fill="#dfa480"/><path d="M62.384 64.913l.652.26s-1.041 1.827-.823 3.134l.869-.652s.172-1.873 1.35-2.611c0 0 3.397.303 1.613 2.611l-.474.478 1.343 1.132s-2.521 2.001-1.39 3.263c0 0 .606-2.091 2.213-2.482l.4-.998v-.869s-.915-.352-.44-2.093c0-.001-2.39-4.353-5.313-1.173zM61.126 67.655l-.086 1.347s.475 1.178.778.217c.309-.955-.692-1.564-.692-1.564z"/><path d="M97.572 92.827s-2.036 2.253-4.111 3.179c-.257.115-.612.384-.314.578 2.258 1.516 12.357 8.601 16.509 17.071 0 0 1.213.948 0-1.288 0 0-4.215-7.605-14.182-15.538 0 0 4.067-3.322 2.098-4.002zM81.897 95.812s1.024-1.63-.875-1.018c-1.905.606-1.493 3.666 0 2.036s.875-1.018.875-1.018zM82.241 96.355s-7.807 7.737-8.075 8.949l8.824-8.003c0 .001 0-1.152-.749-.946z" fill="#fff"/><path d="M61.343 109.354s2.3-2.986 4.696.188l3.139 3.723s1.309 1.436-.063 3.826c-1.367 2.401-2.116 5.815-2.116 5.815s-.589 3.237-3.111 2.682c-2.516-.565-1.927-3.333-1.178-4.3.749-.961 2.923-2.425 4.884-2.733 0 0-.778-.783-2.802 0 0 0-.561-.184.469-1.029 1.023-.835-1.275-3.363-1.275-3.363s-.372-1.67.406-2.195c0 0-1.716.926-1.836 4.065 0 0 .309 5.576-3.019 3.175-3.328-2.396.252-7.995.252-7.995l1.554-1.859z" fill="#dfa480"/><path d="M56.832 112.15s.652 1.185 1.584-.097c.938-1.271.223-2.453-2.236-1.957-2.459.498-4.598 2.923-3.329 6.097 1.275 3.168 2.831 4.003 2.831 4.003s1.647.658 2.613-.269c0 0-2.15-2.155-1.029-4.89 0 0 .435-.932-.406-1.955-.835-1.028-.028-.932-.028-.932z" fill="#dfa480"/><path d="M52.737 122.519s3.552 2.905 5.679.777c2.133-2.139 0-2.201 0-2.201l-1.161.331s-1.939.384-3.483-1.492c-1.55-1.865-3.037.966-1.035 2.585zM52.931 124.389s-.966 2.322 1.487 2.322c2.448 0 2.448-.841 2.448-.841s.389-.881-1.138-.749c-1.527.125-2.408-.921-2.408-.921s-.212-.092-.389.189z" fill="#dfa480"/><path d="M57.941 124.629s0 1.378-1.292 2.299c-1.287.921.24 2.625 1.098 1.768.863-.864 2.282-2.024.949-3.895 0 0-.344-.63-.755-.172zM57.169 129.679l-.126.772s-.754.372.017 1.532c.778 1.16 2.042 1.916 2.391.24 0 0-.257-1.4-1.447-2.299 0 .001-.32-.806-.835-.245zM59.279 130.331s1.481 3.14 1.979.749c.491-2.385-1.424-3.186-1.424-3.186s-.515-.258-.772.926c-.257 1.185.217 1.511.217 1.511zM60.029 121.77s-1.007 1.029-.452 2.923c.56 1.893 1.075 1.704 1.075 1.704s.927-.029.195-.847c-.732-.812-.754-2.168-.754-2.168l.194-.994c-.001 0 .285-.688-.258-.618z" fill="#fff"/><path d="M61.235 121.461s-.795 2.03-.108 3.568c.692 1.556 1.035.521.669-.08-.372-.601-.217-2.259-.022-2.643.187-.388.279-1.766-.539-.845zM62.779 126.327s-.881-.989-.663.08c.217 1.081.943 1.876.88 3.06-.063 1.185 1.486 2.408 2.865 2.408 1.372 0 .841-.795.257-1.247-.583-.446-1.052-1.59-.474-2.367.577-.772.708-1.762-.04-1.824 0 0-2.11.343-2.431.103l-.394-.213zM84.574 100.792s-.846 3.93-2.236 5.079c-1.389 1.149-.366 3.082-.366 3.082s1.396 3.746-.48 5.445c-1.875 1.687-.485 2.956-.485 2.956s1.704 3.266.366 4.775c-1.333 1.521-2.071 2.665-1.333 3.809.727 1.16 1.996 5.324 1.452 7.138-.542 1.817.664.852.727-.241 0 0 .304-3.865-1.332-6.708 0 0-1.207-1.332.789-3.271 1.99-1.928 0-5.622 0-5.622s-1.029-.847.48-2.356c1.51-1.509 1.149-4.718.423-6.102-.721-1.396.967-3.082.967-3.082s1.692-3.328 1.755-3.941c.058-.6.847-.903 1.693 0 .847.916 1.333.309 1.933-.239.606-.538.79.303.732 1.034l-.486 2.477s.423 1.876-.183 2.843c-.606.966-.303 2.899-.303 2.899l.24 1.27.303 2.905.486.903-.79 1.148-.48 4.896.057 4.301.063 4.953.726 3.808.423 3.266s-10.706.606-19.587-4.712c0 0-1.458-.543.658-1.939 0 0 3.208-2.898 4.901-3.202s1.51-2.122 1.51-2.122-.423-8.761 1.573-12.271c0 0 2.66-11.976 4.775-13.36-.001-.002.972-.847 1.029.181z" fill="#fff"/><path d="M91.225 99.22s1.933-2.479 2.963.36c0 0 4.232 8.59 4.535 18.804.303 10.226-.846 11.369-.846 11.369l4.9 3.266s1.447.727.24 1.51l-4.9 2.899s-1.208.972-1.023-.114c.176-1.093 1.148-1.636 1.148-1.636s-1.453-.601-3.448 2.482c0 0-3.14 1.933-3.747-1.698l-.366-2.838s-2.356-12.695-.183-17.11c0 0 .423-1.51-.543-5.867-.966-4.353 1.27-11.427 1.27-11.427z" fill="#fff"/><path d="M88.743 106.231s-3.26 3.568-3.443.909c-.182-2.659 1.814-4.472 2.482-2.659 0 0 .183 1.023.058 1.51-.121.481.903.24.903.24z"/><path d="M85.94 105.86c-.172.691-.068 1.314.246 1.395.309.074.698-.423.87-1.114.172-.687.062-1.31-.241-1.391-.308-.074-.697.424-.875 1.11z" fill="#fff"/><path d="M86.055 116.302s-1.59-3.785-2.477.138c0 0-.383 3.757 2.311 2.322 2.477-1.327 1.098-3.243 1.098-3.243.069 1.275-.537 1.304-.932.783z"/><path d="M85.414 116.777c0 .731-.303 1.326-.674 1.326-.366 0-.669-.595-.669-1.326 0-.732.303-1.321.669-1.321.371 0 .674.589.674 1.321z" fill="#fff"/><path d="M86.266 128.638c0 1.338-.829 2.414-1.864 2.414-1.029 0-1.87-1.076-1.87-2.414 0-1.332.84-2.413 1.87-2.413 1.035 0 1.864 1.081 1.864 2.413z"/><path d="M85.311 128.626c0 1.019-.52 1.836-1.161 1.836-.646 0-1.161-.817-1.161-1.836 0-1.018.515-1.847 1.161-1.847.642 0 1.161.829 1.161 1.847z" fill="#fff"/><path d="M70.042 178.62s7.835.556 12.233-8.549c0 0 1.092-4.775 2.979-1.585 1.888 3.18 4.564 2.174 4.564 2.174s1.807-1.425 1.55.383c-.246 1.795-1.967 3.688-4.478 3.552-2.517-.12-3.271 1.39-3.271 1.39s-1.676 4.901-13.113 2.934l-.464-.299zM97.361 174.395s-1.59-1.888.926-1.854c2.518.046 2.598-3.591 2.598-3.591s.508-2.608 1.715-.555c1.219 2.064 3.98 5.324 3.98 5.324l2.939 3.608 3.186 2.882s3.02 1.899 4.523 2.06c1.504.166-.92 2.471-5.656 1.007 0 0-5.906-2.935-7.926-5.703 0 0-1.029-1.383-3.77-1.961-2.138-.463-2.515-1.217-2.515-1.217z" fill="#8f5632"/><path d="M75.904 149.374l3.146-1.635s7 4.523 13.245 1.258c0 0 .669-.337.921.16.251.509 1.172 3.357 5.404.727l.504-.682.754-1.246s2.305-.126 1.842 1.498c0 0-.789 5.285-.463 6.537.338 1.264.172 2.928-1.207 3.86 0 0-1.303-2.597-3.734-2.728-2.431-.121-2.179-1.888-2.139-2.26 0 0-.12-1.721-4.604-1.172l-6.285.08s.332 1.212 3.014 1.384c0 0-1.087 1.178-4.152.464-3.06-.71-.794.542-.794.542s-1.47 3.895-3.352-.628l-2.1-6.159z" fill="#383e93"/><path d="M114.621 116.079s.258-1.041-1.041-1.041c0 0-.771 1.355-1.809 1.424 0 0-3.361-2.258-6.529 1.299-3.168 3.551-.908 6.92.068 6.92 0 0 2.195.64 3.225-2.328 0 0 .721-1.234 2.396-1.234 0 0 1.168-.578.516-.973-.646-.384-.709-2.711 1.361-3.294l1.813-.773z" fill="#dfa480"/><path d="M109.439 135.93l-2.51 2.459s-2.402.125.062-2.459c0 0-2.529 1.555-1.561-.194l-1.676 1.555s-2.133.063-.516-1.555l1.35-.778s-.383-2.327 1.299-2.522l1.041-.062-.783 1.619s.332.257 1.359-1.161c0 0 1.162-.847.967.188l-.256.452s1.104-.841 1.223.457c0 0 .275.263.578.475l-.577 1.526z" fill="#fff"/><path d="M109.514 136.106l.258.664c3.42 1.029 5.76-1.293 5.76-1.293 2.967-1.944 1.801-4.66 1.801-4.66 2.916-.516.646-3.037.646-3.037s-2.129-3.357-5.428-3.689c-3.295-.32-3.883 1.75-3.883 1.75h.395c4.58-.583 6.588 3.494 6.588 3.494.395 2.522-2.842-1.881-2.842-1.881-1.225-1.55-4.273-.897-4.273-.897s-2.904.571-3.035 2.778c-.127 2.19 4.529 1.876 4.529 1.876-.395 1.161.771 2.002.771 2.002.338 1.419-.047 1.55-.486 1.355l-.801 1.538z" fill="#dca581"/><path d="M112.773 123.444s4.432 1.019 5.955 3.936c0 0 1.057 2.551 1.982.903.934-1.641-.217-4.215-.314-4.249-.086-.034-1.578-1.738-5.357-1.768-3.787-.034-2.266 1.178-2.266 1.178zM116.896 121.398s.898-2.975 2.203-1.671c0 0 1.457.555 1.709 2.505.246 1.962-1.213.47-1.213.47l-2.699-1.304zM114.168 121.152l1.895-2.854s.148-1.424-3.162-.709c0 0-2.082.737-.16 2.665l1.427.898z" fill="#dfa480"/><path d="M119.391 118.178s2.242 2.494 3.797-.783c0 0 3.117-.103 1.824-3.116 0 0 1.973-1.613.361-3.638l8.516-11.478s-3.582.675-4.781-1.716l-.572 1.404-.418.677h-.721l-.102 1.453-2.025 1.241-1.566 2.242 1.406.153 1.607 1.557-4.41 6.542-1.928 3.013-1.297 1.979.309.47z" fill="#fff"/><path d="M124.795 111.922a.954.954 0 0 1-.961.955.954.954 0 0 1-.955-.955c0-.538.424-.967.955-.967.539 0 .961.429.961.967zM124.43 115.296a.96.96 0 0 1-.955.961.96.96 0 0 1-.961-.961.96.96 0 0 1 .961-.967.96.96 0 0 1 .955.967zM121.523 116.743a.964.964 0 0 1-.955.966.958.958 0 0 1-.961-.966.96.96 0 0 1 .961-.962c.52 0 .955.436.955.962z"/><path d="M114.494 121.358l1.684.32 9.035-14.389.383-1.099-.578-.841-.902.904-1.613 2.584s-3.162-3.03-4.387.904c0 0-3.939-.772-2.328 3.22 0 0-2.26 2.653.904 3.814l2.002-3.231.709.458-4.909 7.356z" fill="#fff"/><path d="M118.229 114.552a.957.957 0 0 1-.959.956.962.962 0 0 1-.961-.956c0-.525.434-.961.961-.961.531 0 .959.435.959.961zM118.166 111.653a.959.959 0 0 1-1.916 0 .96.96 0 0 1 .955-.967.962.962 0 0 1 .961.967zM121.266 109.908a.967.967 0 0 1-.955.967.961.961 0 0 1-.961-.967c0-.531.424-.966.961-.966.521 0 .955.435.955.966z"/><path fill="#fff" d="M124.133 117.576l-.637.139-.726.864-.721.675-.983.166-1.17-.453-.968-.841-.561 1.018.744.178.69.518.711.647.517 1.326 3.979-4.883-.875.646zM115.119 113.58l-.32.997-.094.869-.371-.471-.057-1.052.986-3.342s-.32 1.374.297 2.297l-.441.702zM132.697 93.845s-3.957-1.208-3.094 2.579l.727-.346s-.658-2.251 1.975-1.816l.392-.417zM130.428 97.61s4.508 3.319 4.443-2.062l-.371-.818-.32.626-.436.158s-1.154.626-1.812-.406l-.371.312s.086 1.69 2.43 1.13c0 0 0 1.967-1.812 1.092l-1.062-.654-.689.622z"/><path d="M132.934 92.823l.398-.375.637-.468.84.28.217.562.721.847.777.403.721-.12.848-.409.879-.375.717-.75s.811-.689 1.441.658c.617 1.341.686 2.311 1.498 1.093.811-1.218 1.377-.217 1.377-.217l.029-.409s-1.812-1.222-.127-2.408c1.688-1.187 2.473-.343 2.473-.343s1.027 1.347 1.006.409c-.035-.94-.412-2.162.932-1.91 1.35.249 2.195 1.344 2.195 1.344s.996 1.499 1.275-.091c.287-1.596 1.189-.847 1.791-.472.584.375.902 1.032 1.527-.472.623-1.499.84-.75.84-.183 0 .563-.807 3.03-2.688 1.562 0 0-.91-.847-1.029.503-.127 1.341-1.939.75-2.311 0-.377-.755-1.854-1.942-1.812-.6.021 1.35-.041 2.476-1.916 1.041 0 0-1.064-1.538-1.871 0 0 0-.412.686.498.964 0 0 1.723.849 1.441 2.162-.285 1.313-1.693.963-1.979.091-.275-.877-.99-.44-1.275-.22s-1.156 1.942-2.127-.403c-.979-2.348-1.225-.658-1.225-.658s-1.961 2.062-3.871.809c0 0-1.195-1.029-1.568-.498-.371.529-.881.377-.881.377l-.867-1.287.404-.469.065.032zM157.141 88.446s.498-1.688.848-.28c.342 1.407.742 2.282 1.148.846.412-1.441.35-3.786 1.789-2.722 1.436 1.064 1.773.406.967-.378-.818-.78-.594-1.875.064-.966.656.906 2.098 2.471.371 2.653 0 0-.658.035-1.254-.434-.594-.469-.742.126-.84.497-.092.378-1.098 4.318-2.225 2.225 0 0 0-1.938-.561-.875-.559 1.061-.307-.566-.307-.566z"/><path d="M81.143 138.571s.955 6.794-.091 8.578c0 0 3.145 3.18 10.345 1.551 0 0 2.071-.538 1.602-2.522-.474-1.979-.034-3.9-.034-3.9s.217-.749-.44-.749c-.658 0-10.054 0-10.655-2.168 0 0 .188-1.452-.629-1.041l-.098.251z" fill="#fff"/><path d="M84.288 139.704s-.531-1.168.755-.818c1.292.35 3.146.761 4.501.498 1.35-.252.938.48.938.48s-1.796.623-3.083.377c-1.287-.257-2.957.155-3.111-.537zM77.311 146.052s-3.111-.435-2.607.789c.503 1.23.812 2.391 1.973.881 1.171-1.516.634-1.67.634-1.67zM72.718 145.429s-2.517-.795-.715 1.35c1.785 2.127 1.728-.104 1.848-.44.126-.349.601-2.991.601-2.991s1.538-.881.852-1.446c0 0-1.229.601-1.229.223 0-.372-.029-1.229-.029-1.229l-.44.097c-.001-.003.846 6.506-.888 4.436zM69.704 144.634s-1.606-.652-1.069 1.069c.538 1.732 1.824.034 1.824-.314 0-.344-.755-.755-.755-.755zM68.538 139.36l-.126 3.455s.572.531 1.481-1.167c0 0 .35-.687.154-.973-.182-.279-1.509-1.315-1.509-1.315zM65.135 136.925s1.527 1.583.675 2.008c-.858.428-.618 3.299-.618 3.299s-.48-2.321-.423-4.758l.366-.549zM66.588 135.774s-.88-1.058.458-1.131c1.333-.075 2.036.977 2.036.977s.377 1.688-2.494 1.796l-.303-.434.452-.526-.149-.682zM70.088 137.862s.051-2.648 1.916-1.355c1.865 1.281 1.738 3.197-.503 2.539 0 0-.778-.51-.909.48-.126.979-.984.068-.755-.835l.251-.829zM75.481 137.988s-2.116-.234-1.133 1.732c.979 1.962 3.02.234 2.991-.675-.029-.903-.737-.709-.737-.681 0 .023-1.024 1.259-1.178.406-.132-.77.057-.782.057-.782zM78.849 139.08l-.074 2.843.177 2.916.526-.634-.251-3.123.154-2.213s-.458-.304-.532.211zM96.287 148.134s-2.448-.148-1.722 1.492c.72 1.642 1.602-.148 1.602-.148s.577-.493.12-1.344zM97.504 142.609l-.303 5.564s.457 1.87 1.602.229c1.15-1.636-.686-1.029-.686-1.029l-.311-.154.498-5.725.234-.989s1.258-1.069 1.596-.344c.35.721 1.115-.108 1.15-.337.033-.234.451-1.498.451-1.498s-.418-.722-1.178.268c-.762.996-.646-.188-.646-.188s-.691-1.293-.916.343c-.234 1.643-.807.115-.807.115s-2.247-.27-2.71.497c-.457.761-.72 2.1.349 2.174 1.065.085 1.677 1.074 1.677 1.074z" fill="#fff"/><path d="M101.09 142.488s-1.869 3.021 1.184 1.521c0 0 .693-.531-.336-.681-1.037-.154-.385-.68-.385-.68s-.033-.583-.463-.16zM100.977 145.812s-1.299 2.436.988 1.521c2.299-.909-.566-1.67-.566-1.67l-.422.149z" fill="#fff"/></g></svg>