<svg xmlns="http://www.w3.org/2000/svg" width="2500" height="2500" viewBox="0 0 192.756 192.756"><g fill-rule="evenodd" clip-rule="evenodd"><path fill="#fff" d="M0 0h192.756v192.756H0V0z"/><path d="M186.426 89.296c-11.082-11.141-48.18-18.904-90.077-18.904-24.831 0-48.239 2.667-65.898 7.526-17.779 4.86-27.617 11.438-27.617 18.431 0 2.429 1.186 4.8 3.438 7.052 11.141 11.141 48.238 18.963 90.077 18.963 41.897 0 78.995-7.822 90.077-18.963 2.311-2.252 3.496-4.623 3.496-7.052 0-2.371-1.186-4.741-3.496-7.053z"/><path d="M96.349 121.475c-41.661 0-78.461-7.645-89.425-18.666-2.133-2.074-3.2-4.268-3.2-6.46 0-2.133 1.067-4.326 3.2-6.4 10.963-11.022 47.764-18.667 89.425-18.667 41.72 0 78.521 7.645 89.483 18.667 2.133 2.074 3.201 4.267 3.201 6.4 0 13.866-41.601 25.126-92.684 25.126z" fill="#fff"/><path d="M96.349 119.461c46.638 0 84.446-10.312 84.446-23.112 0-12.741-37.809-23.112-84.446-23.112-46.579 0-84.388 10.371-84.388 23.112 0 12.799 37.809 23.112 84.388 23.112z"/><path d="M42.48 111.223l.119.059c.415.297.948.594 1.6.713.237.059.652.059.711-.061 0-.178-.355-.297-.533-.355l-.533-.178c-1.007-.297-1.837-.77-1.719-1.363.237-.828 1.896-1.006 3.438-.65.83.178 1.541.473 2.252.828l-.948.771c-.415-.238-.889-.475-1.422-.594-.237-.059-.593-.117-.652.061 0 .117.296.236.533.295l.533.178c1.126.355 1.837.83 1.719 1.424-.178.889-1.837.947-3.438.65-.889-.236-1.896-.533-2.666-.947l1.006-.831zM51.666 110.689l2.549.355 2.074 2.43h.059c-.059-.355-.118-.652-.059-.947l.178-1.127 2.548.414-.593 3.615-2.548-.355-2.015-2.311H53.8c.059.297.059.533.059.77l-.178 1.186-2.548-.414.533-3.616zM70.688 114.957c-.119 1.184-2.015 1.717-4.267 1.48-2.252-.236-3.971-1.125-3.852-2.311.118-1.127 2.015-1.719 4.267-1.482 2.193.239 3.971 1.186 3.852 2.313z" fill="#fff"/><path d="M65.237 114.424c-.06.414.474.77 1.304.889.83.059 1.422-.178 1.481-.594 0-.414-.475-.77-1.304-.828-.889-.12-1.422.177-1.481.533z"/><path d="M76.792 113.594l.771 2.252h.059c.059-.238.178-.475.296-.652l.83-1.482 2.074.119.889 2.252h.059c.06-.236.119-.475.237-.652l.83-1.539 2.785.178-2.785 3.555-2.371-.119-.711-2.074h-.119a.958.958 0 0 1-.177.533l-.771 1.424-2.312-.119-2.37-3.852 2.786.176zM89.06 114.127l3.141.059c1.422 0 2.904.178 2.845 1.066 0 .297-.296.652-.948.711v.061c.77.117 1.304.414 1.304.889 0 .77-1.422 1.008-2.726.947L89 117.801l.06-3.674z" fill="#fff"/><path d="M91.786 115.607c.355 0 .829 0 .829-.295 0-.238-.474-.238-.889-.238h-.178v.533h.238zM91.489 116.971h.356c.415 0 1.066 0 1.066-.297 0-.295-.711-.295-1.125-.295h-.237l-.06.592z"/><path d="M107.074 115.904c0 1.186-1.777 1.955-4.029 1.955-2.252.061-4.148-.592-4.148-1.777s1.777-1.955 4.029-2.014c2.252-.06 4.09.651 4.148 1.836z" fill="#fff"/><path d="M101.623 116.023c0 .414.533.711 1.363.711.828-.061 1.361-.355 1.361-.771 0-.355-.533-.711-1.361-.65-.888-.001-1.363.355-1.363.71z"/><path fill="#fff" d="M113.238 117.445l-2.845.178 2.371-3.852 2.963-.177 2.843 3.554-2.843.178-.297-.472-2.014.117-.178.474z"/><path d="M114.957 116.023l-.355-.652c-.119-.119-.178-.297-.238-.475h-.059l-.414 1.186 1.066-.059z"/><path d="M121.771 113.178l3.26-.355c1.6-.117 3.08.061 3.141 1.008.059.533-.355.83-1.305 1.066v.061c.119 0 .297.059.475.178l1.719 1.006-3.082.297-1.303-1.066h-.061l.119 1.186-2.607.297-.356-3.678z" fill="#fff"/><path d="M124.557 114.541h.178c.414-.059.889-.117.83-.414 0-.297-.416-.297-.889-.236h-.178l.059.65z"/><path d="M132.023 112.053l2.727-.355c2.43-.355 4.385-.119 4.562 1.244.178 1.066-1.244 1.955-3.377 2.311l-3.379.475-.533-3.675z" fill="#fff"/><path d="M135.045 114.246h.178c.891-.178 1.541-.475 1.482-.949-.119-.533-.711-.652-1.719-.475h-.119l.178 1.424z"/><path d="M143.697 112.586l.178.059c.475.061 1.127.119 1.719 0 .238-.059.652-.178.594-.355 0-.178-.355-.117-.594-.117l-.533.059c-1.066.119-2.014 0-2.133-.533-.119-.889 1.303-1.66 2.904-2.016.828-.117 1.6-.178 2.369-.117l-.533 1.066a6.997 6.997 0 0 0-1.6 0c-.236.059-.533.178-.533.355.059.117.355.059.592.059l.594-.059c1.125-.119 2.014.059 2.133.65.178.83-1.305 1.602-2.904 1.896-.889.238-1.955.297-2.844.238l.591-1.185zM107.252 81.355c9.957 0 28.506.415 41.305 3.437 5.57 1.304 4.859 5.689.83 6.282-3.91.533-50.312 3.674-50.312 3.674s39.705 5.808 55.35 6.755c3.734.236 2.43 4.504-5.393 4.326-3.734-.059-50.787-3.318-74.668-7.703 0 0-19.378 5.984-24.119 6.992s-4.445-2.311-1.659-3.734c2.785-1.48 8.178-4.443 8.178-4.443s-1.778-.83-1.956-1.482-.178-1.126 1.126-1.126 10.312.415 14.519-6.815c0 0-14.638 1.007-32.653 2.667-2.251.178-3.911-.356-2.251-2.133 1.6-1.837 1.481-2.785 8.652-3.438 7.169-.651 41.717-3.259 63.051-3.259z" fill="#fff"/><path d="M81.178 90.422l3.792-3.378s15.29-.651 23.942-.651 24.771 1.659 6.992 2.963c-12.384.889-34.726 1.066-34.726 1.066z"/></g></svg>