<svg xmlns="http://www.w3.org/2000/svg" width="2500" height="2500" viewBox="0 0 192.756 192.756"><g fill-rule="evenodd" clip-rule="evenodd"><path fill="#fff" d="M0 0h192.756v192.756H0V0z"/><path fill="#3a9bd9" d="M103.025 32.076l4.715-9.523 52.799 26.219V8.504H32.217v175.748h128.322v-74.191l-80.331-39.8 4.714-9.428 75.617 37.442V85.167l-68.828-34.14 4.714-9.429 64.114 31.785V60.561l-57.514-28.485z"/><path d="M62.765 116.838c2.734 0 5.846.189 6.789 1.697.848 1.508.377 7.92-1.132 13.766-1.509 5.752-8.485 24.514-8.485 24.514l6.788 6.789s10.466-27.531 12.257-31.963c1.792-4.336 2.545-6.129 4.62-11.598 1.603-4.43 11.597-4.242 11.597.379v51.762h-7.166v-4.715H72.948l-1.792 4.432H65.5s-6.317-6.223-8.769-8.674c-1.32 1.887-6.128 8.674-6.128 8.674h-5.846v-54.969s15.274-.094 18.008-.094zm-11.88 7.26v34.131s7.826-14.143 9.334-18.951c1.508-4.713 2.734-9.428 2.545-11.596-.094-2.074.472-3.678-2.074-3.678-2.639 0-9.805.094-9.805.094zm36.866 3.961l-12.917 34.037h13.011l-.094-34.037zM138.1 120.043c1.697-4.43 11.598-5.75 11.598 1.414v50.727h-7.166l.094-5.375-15.18.096-1.885 4.996h-7.449c-.001-.001 17.913-46.389 19.988-51.858zm4.525 8.016l-12.916 34.037h12.916v-34.037zM122.354 117.121c3.488 0 4.715 2.357 3.111 10.748-5.092 22.723-16.688 43.844-16.688 43.844h-7.072v-54.592h20.649zm-14.52 41.108c3.395-5.656 8.863-19.799 11.502-27.812 2.17-6.695.473-7.639-1.885-7.639h-9.617v35.451zM103.025 32.076l57.514 28.485V48.772L107.74 22.553l-4.715 9.523zM91.711 51.027l68.828 34.14V73.383L96.425 41.598l-4.714 9.429zM80.208 70.261l80.331 39.8V98.275L84.922 60.833l-4.714 9.428z" fill="#fff"/></g></svg>