<svg xmlns="http://www.w3.org/2000/svg" width="2500" height="2500" viewBox="0 0 192.756 192.756"><path fill-rule="evenodd" clip-rule="evenodd" fill="#fff" d="M0 0h192.756v192.756H0V0z"/><path fill="none" stroke="#000" stroke-width="5.706" stroke-miterlimit="2.613" d="M156.686 138.004H33.567l.418-120.529h122.701v120.529z"/><path d="M135.4 137.59l-32.137-55.916c6.26-8.284 8.348-12.839 8.348-24.022 0-10.769-5.426-24.852-30.049-39.763-.391-.388 66.854.318 75.123.407v118.887l-21.285.407zM102.848 138.418L74.05 77.947c8.347-2.071 14.607-9.526 14.607-18.639 0-10.354-8.765-19.053-19.198-19.053-10.434 0-19.198 8.698-19.198 19.053 0 10.769 8.765 19.053 19.198 19.053h1.252l-.417 60.057h32.554zM42.749 154.986c2.086-1.658 3.756-2.486 6.677-2.486 1.253 0 2.922 0 4.174.828v4.143h-1.669c-.417-1.242-2.087-2.07-3.756-2.07-1.251 0-2.921.828-3.756 1.656-1.252.828-1.252 2.07-1.252 3.312v10.77c0 1.658 0 2.072 2.921 2.486v1.242H35.237v-1.242c2.504-.414 2.504-.828 2.504-2.486v-14.496c0-1.656 0-2.07-2.504-2.484v-.83h7.512v1.657zM59.86 163.684c.417 4.971 4.591 9.113 11.686 9.113 2.921 0 6.26-.83 7.512-3.314h1.252v4.143c-2.921 1.242-6.26 1.656-9.599 1.656-8.765 0-15.86-4.557-15.86-12.012 0-5.799 5.843-10.77 13.773-10.77 8.347 0 13.772 4.971 13.355 11.184H59.86zm16.277-2.899c0-3.314-2.921-5.385-7.095-5.385-4.591 0-7.93 2.07-8.765 5.385h15.86zM84.484 173.625c2.086-.414 2.086-.828 2.086-2.486v-25.266c0-1.656 0-2.07-2.504-2.484v-.828h7.512v12.012c2.921-1.244 6.677-2.072 9.599-2.072 7.512 0 12.938 4.143 12.938 9.941 0 7.869-8.346 12.426-18.363 12.426H84.484v-1.243zm7.095-1.658H94.5c7.512 0 14.189-2.898 14.189-9.111 0-4.143-2.92-7.455-8.764-7.455-2.504 0-6.26.828-8.347 2.484v14.082h.001zM124.549 153.328v17.811c0 1.658 0 2.072 2.504 2.486v1.242h-10.85v-1.242c3.338-.414 3.338-.828 3.338-2.486v-14.496c0-1.656 0-2.07-2.504-2.484v-.83h7.512v-.001zm-6.26-7.041c0-1.656 1.67-2.484 3.338-2.484 2.088 0 3.758.828 3.758 2.484s-1.67 2.486-3.758 2.486c-2.086 0-3.338-1.242-3.338-2.486zM133.312 167.826l1.252.828c-.416.414-.416.828-.416 1.656 0 1.656 3.756 2.486 6.678 2.486 2.504 0 7.094-1.244 7.094-3.729 0-2.486-3.338-2.898-5.842-3.729l-2.504-.414c-4.174-.828-9.182-2.07-9.182-6.213 0-4.555 6.26-6.213 11.268-6.213 3.34 0 7.512 1.244 10.016 2.9l-3.756 4.143-1.252-.83c0-.414.418-.828.418-1.242 0-1.656-4.174-2.07-5.842-2.07-2.922 0-6.262.414-6.262 2.484 0 2.484 5.01 2.9 7.096 3.314 5.008 1.242 10.852 2.07 10.852 7.041s-6.678 7.041-12.521 7.041c-4.174 0-8.764-1.242-11.686-3.729l4.589-3.724z" fill-rule="evenodd" clip-rule="evenodd"/><path d="M154.182 172.383c0-1.244.834-2.486 2.504-2.486 1.252 0 2.504 1.242 2.504 2.486 0 1.656-1.252 2.484-2.504 2.484-1.67 0-2.504-.828-2.504-2.484zm4.589 0c0-1.244-.834-2.072-2.086-2.072s-2.088.828-2.088 2.072c0 1.242.836 2.07 2.088 2.07s2.086-.828 2.086-2.07zm-1.669 0s.418.414.418.828l.418.414c-.418 0-.418.414-.418 0-.418 0-.418-1.242-1.252-1.242v1.242h.418-1.252.416v-2.486l-.416-.414h1.252c.416 0 .834 0 .834.828 0 .414 0 .83-.418.83zm-.834 0c.418 0 .834 0 .834-.83 0-.414 0-.414-.416-.414h-.418v1.244z" fill-rule="evenodd" clip-rule="evenodd" fill="#2b2b2d"/></svg>