<svg xmlns="http://www.w3.org/2000/svg" width="2500" height="2500" viewBox="0 0 192.756 192.756"><g fill-rule="evenodd" clip-rule="evenodd"><path fill="#fff" d="M0 0h192.756v192.756H0V0z"/><path d="M187.666 83.397c-.662-.838-1.588-1.336-2.621-1.543-1.223-.244-2.441-.27-3.598 0-1.281.3-2.32 1.018-3.107 2.136-.615.874-.951 1.923-1.037 3.084-.037.501-.061.973 0 1.447.061.499.184.949.365 1.4.184.475.428.926.732 1.329l1.096 1.258c.488.427.977.807 1.465 1.116l3.047 1.875a16.102 16.102 0 0 1 2.926 2.255 10.897 10.897 0 0 1 2.012 2.871c.307.688.488 1.375.672 2.111.182.713.244 1.447.305 2.184l-.061 1.59c-.062.688-.307 1.4-.672 2.111a6.944 6.944 0 0 1-2.621 2.754c-1.037.641-2.141.984-3.291 1.162a14.556 14.556 0 0 1-3.232.117c-1.277-.088-2.498-.355-3.656-.924-.672-.309-1.281-.783-1.83-1.377l.123-2.799c.426 1.139 1.219 1.992 2.256 2.537.914.5 1.951.76 2.986.783 1.828.215 3.596-.07 5.365-.807 1.035-.451 1.889-1.186 2.438-2.207a4.787 4.787 0 0 0 .488-2.775c-.184-1.164-.549-2.23-1.219-3.227-.672-1.021-1.525-1.947-2.439-2.73a59.382 59.382 0 0 0-3.902-2.871l-1.4-1.044c-1.281-.973-2.316-2.136-3.17-3.488-.305-.499-.488-1.021-.672-1.59a7.39 7.39 0 0 1-.365-1.685c-.061-.948.014-1.895.305-2.824.379-1.207.969-2.262 1.891-3.132.785-.742 1.633-1.339 2.621-1.708.496-.186.998-.38 1.523-.452.887-.12 1.789-.152 2.682-.118a6.58 6.58 0 0 1 1.707.285l1.221.38c.436.136.74.448.854.878.252.971.426 1.946.486 2.942a3.561 3.561 0 0 0-.673-1.304zm-19.02-1.14l-.061.451.061 27.765c0 .309.121.568.305.783l.121.094h-3.84c.305-.189.426-.475.488-.877l.061-.451c.061-.641.121-1.281.061-1.922V84.678a6.97 6.97 0 0 0-.184-2.254l-.061-.333a.74.74 0 0 0-.426-.522h4.023c-.303.119-.487.356-.548.688zm-10.851 3.275l-.184-.498c-.182-.593-.607-1.067-1.219-1.376l-.914-.309-7.254-.071.061 27.099.365.902.244.07h-4.023l.184-.023.121-.166c.307-.521.488-1.092.428-1.684v-26.15l-6.768-.024c-.791 0-1.584.213-2.254.64-.305.214-.611.451-.793.712l-.67.877.914-3.963h22.615l-.853 3.964zm-43.221 25.771h-5.426a13.688 13.688 0 0 0 1.77-.688c.242-.119.486-.309.67-.57l11.338-28.476 11.521 26.863c.367.736.793 1.447 1.342 2.111a2.49 2.49 0 0 0 1.279.783h-6.582c.426 0 .73-.189 1.035-.594a1.63 1.63 0 0 0 .365-.711l.062-1.068-.123-.664-9.754-22.424-9.631 24.18c-.123.404 0 .711.426.902.55.213 1.159.332 1.708.356zm-11.826-37.066c.332.2.428.522.488.854l.488 4.105c-.305-.949-.732-1.804-1.402-2.563a7.685 7.685 0 0 0-1.83-1.353c-1.461-.806-2.957-.856-4.571-.997l-.915.048c-1.707.046-3.292.498-4.694 1.376-1.707 1.044-2.865 2.562-3.475 4.532-.427 1.519-.549 3.061-.305 4.627.062.735.305 1.424.61 2.064.549 1.068 1.219 2.041 2.073 2.871.67.641 1.402 1.21 2.194 1.756l1.098.665 3.414 2.017 2.499 1.519a14.33 14.33 0 0 1 1.768 1.258 18.386 18.386 0 0 1 3.658 4.033 16.232 16.232 0 0 1 1.523 2.967c.611 1.543.914 3.133.854 4.793 0 1.117-.182 2.23-.549 3.346l-.791 1.994-.549.949-.672.877a10.99 10.99 0 0 1-2.742 2.326 12.66 12.66 0 0 1-3.475 1.447 15.845 15.845 0 0 1-4.207.498c-1.321-.117-2.642-.236-3.963-.355-1.28-.236-2.5-.664-3.657-1.305-.67-.355-1.219-.83-1.707-1.377l-.366-.426.122-4.035c.305 1.188.914 2.254 1.707 3.18a9.153 9.153 0 0 0 2.195 1.686c.915.451 1.951.76 2.987.926l2.621.213 1.158-.047 2.682-.428c1.83-.545 3.475-1.447 4.877-2.752 1.037-.949 1.768-2.113 2.074-3.512.121-.5.182-1.021.121-1.52 0-.83-.121-1.66-.305-2.443-.184-.832-.488-1.615-.854-2.398a9.98 9.98 0 0 0-1.098-1.732l-1.402-1.73a14.366 14.366 0 0 0-2.012-1.805l-1.95-1.447-4.024-2.752-2.072-1.59a19.714 19.714 0 0 1-3.658-3.702 11.202 11.202 0 0 1-1.707-2.942c-.67-1.685-.975-3.417-.792-5.245a10.092 10.092 0 0 1 1.28-4.152 11.126 11.126 0 0 1 3.779-4.082c1.646-1.115 3.414-1.757 5.426-1.922l1.219-.048c2.436.184 4.407.269 6.829 1.733zm-28.712 34.954L73 111.35H57.272l.487-.141.488-.191c.426-.262.731-.617.914-1.02.305-.498.427-1.045.427-1.637l-.061-23.565-.061-.664-.061-.57c-.244-1.044-.915-1.708-1.951-1.994h6.949l-.366.119-.305.19c-.427.237-.731.57-.914.997-.184.403-.366.807-.427 1.258l-.122.712v23.587l.061.355.062.285c.121.285.365.475.67.57l.61.023 8.535.023h.366a2.302 2.302 0 0 0 1.463-.496zm-21.64-.119l-1.341 2.277H34.107l.305-.117.305-.143c.976-.783 1.402-1.805 1.341-3.086V84.44l-.061-.617-.061-.546c-.244-.997-.854-1.566-1.829-1.709H48.92l1.829 2.255h-.061l-.305-.143-.854-.284-8.534-.048c-.549 0-1.036.095-1.585.285l-.244.213-.244.735-.182 10.206h8.961l1.891-.237a3.165 3.165 0 0 0 1.036-.403v3.014l-.305-.119-.366-.117a8.276 8.276 0 0 0-2.317-.31h-8.9v11.343l.062.379.061.334c.061.402.305.664.61.83l.487.117 9.753.072.61-.023c.792.022 1.463-.167 2.073-.595zM25.512 81.665h5.486l-1.707.688-.731.617-11.338 28.452L5.029 83.088c-.122-.333-.366-.594-.67-.783-.549-.309-1.036-.569-1.524-.76h6.889c-.427.023-.793.166-1.159.38-.427.261-.487.593-.244 1.044l9.998 23.208 9.448-23.208c-.061-.404-.243-.712-.609-.902-.488-.26-1.036-.379-1.646-.402z"/></g></svg>