<svg xmlns="http://www.w3.org/2000/svg" width="2500" height="2500" viewBox="0 0 192.756 192.756"><g fill-rule="evenodd" clip-rule="evenodd"><path fill="#fff" d="M0 0h192.756v192.756H0V0z"/><path d="M39.373 77.794c1.229 2.832 1.542 6.833.105 9.234-1.523 1.309-1.944 4.819-4.115 3.8-2.139 1.357-4.776 1.29-7.547 1.506-3.274-.292-6.427.962-9.695.761-.772-5.888-.956-12.187-1.581-18.178 6.575-1.065 13.177-1.766 19.637-.351 1.386.899 2.473 1.912 3.196 3.228zM12.564 63.699c.573-.594.083-.921-.75-.673-.293.206-.852.981-.054 1.285.294-.206.679-.236.804-.612zm-3.574.829c-.014-.181.188-.563-.21-.715-.294.206-.047 1.376.21.715zm-3.811.757c-.555-1.146-1.556-1.067-2.345-.273.093 1.183.046 2.559 1.075 2.844.23-1.025 1.845-1.152 1.27-2.571zm48.044 20.299c1.095-6.766-1.589-14.334-6.508-18.798-3.073-1.681.147 3.832-2.008 4.001-1.069-3.76-5.684-2.391-4.586-7.144-.861-.116-2.462.192-2.289-1.56-3.024-1.044-6.256-.791-9.538-1.174-.293.206-.565.685-.922 1.079-.741.425-1.002-.928-1.708-1.055-4.091 1.145-10.104-1.496-11.872 4.591-.536 2.056 1.579 3.354 1.546 4.912-1.372-.716-2.012-2.953-3.782-2.814-3.045-1.317-3.975 3.605-7.02 2.289-.727.606-.326 1.764-.899 2.358 1.37 17.463 3.469 36.331 5.203 54.499-.286.297.079.998-.201 1.387.354 2.535-.998 6.027 1.033 7.24 1.466-2.037 3.803-1.854 5.086-4.242-.468-3.99 3.279-1.631 4.438-3.643 1.431-6.426.524-14.041-.067-21.59.14-.193.11-.559.404-.766 4.049-.684 8.281-1.014 12.085-1.863 1.337.262 1.486 2.172 2.034 3.227 2.844 2.705 2.864 6.914 4.737 10.062.458 1.885 3.242 1.85 2.133 4.498.715 1.225 1.425 3.365 3.056 3.422.067 2.832.435 5.547 2.062 7.523.783.123 1.202-.459 1.88-.695 2.828.51 6.424.959 9.095-.529-4.031-9.934-8.579-19.553-13.365-29.242-.917-.844-.782.885-1.214 1.285-.497.588-1.001.078-1.337-.262-.018-2.193 2.139-1.357 2.681-3.322 4.542-2.278 8.836-7.739 9.843-13.674zm-32.67 47.4c-.702-1.041-2.4.006-3.153 1.256.749.674 1.798.225 2.645.158.279-.388.788-.794.508-1.414zM37.395 97.99c-.097.738-1.616.125-2.189.719.237-.932 1.377-1.205 2.189-.719zm2.495 7.123c-.419.582-.355 1.402-1.201 1.469-.293.205-.616.047-.959-.383-.611-1.873 1.298-2.207 1.331-3.766 1.601-.308.289 1.717.829 2.68zm-5.903-3.195c.364.703-.511.404-.818.43-.182-.352.391-.948.818-.43zm12.649 14.197c-.412.674-.784-.121-1.322-.078-.211-.717.524-.225.636-.783.6-.231.643.316.686.861zm-4.053-2.336c-.525.225-.188.564-.664.418-.52-.691-.877-1.303-.949-2.213 1.111-1.642 1.967.395 1.613 1.795zm2.84 9.569c-1.462.115-1.247-1.092-.794-2.227-.548-2.061-3.984-2.432-3.162-4.783 4.851-2.301 2.609 4.644 3.956 7.01zm-33.09-4.36c-.09.832.718 3.238-.836 2.172-.014-.184-.322-.16-.476-.146.069-1.104-.317-2.08-.696-2.965.768-.061 1.287.629 2.008.939z" fill="#c6c7c9"/><path d="M91.263 64.507c-.533.481-.563-.443-.448-.653.454-.093.26.505.448.653zm17.903 27.541c.381-.823-.35-1.698-.723-1.994-.344.628-.332 1.463-.15 2.358.188.147.412.475.678.234.115-.209.418-.271.195-.598zm.801 3.933c-.164-.805-1.219-1.334-1.746-1.599-3.473-.037-1.893-4.27-3.521-6.079-1.627-2.183 1.027-1.141 1.938-1.699 2.562-1.732-1.445-3.616.322-5.373-1.627-7.209-7.639-11.198-11.161-17.277-5.408-6.438-12.604-8.509-19.45-6.929-1.963.028-2.486 1.717-3.235 3.453.292 1.431.565 2.771.104 3.982-.454.093-.485-.832-1.126-.888-.461-1.489-.263-2.833-.082-4.266-1.861-3.718-2.956 1.347-4.416 2.296-1.789-.659-3.825-.989-5.758-.037-1.237 1.275-2.082 3.311-2.041 5.443-.413-.474-.329-1.609-1.236-1.424-.837.916-1.527 2.173-1.253 3.514-4.004 2.772-5.561 9.047-6.503 14.082-.87 2.69 1.134 4.795 2.12 6.922-1.684 5.65.459 11.917 2.249 17.604.98.172 2.576 1.43 2.377 2.773 2.313-1.402 2.886 2.951 5.181 1.457 3.367 4.156 7.342 2.787 11.232 2.555-.739 2.941-3.768 1.605-5.891 2.783-1.175-1.902-3.52-1.424-5.362-2.354.3-2.389-1.862-1.016-2.625-2.443-1.619-.602-2.556.986-1.435 2.619 3.415 7.869 12.023 13.006 19.155 13.6 5.207.428 10.887.854 16.035-.939 8.441-3.023 14.66-14.254 15.677-24.33-.153-2.667 1.166-4.704.451-7.446zm-6.403-20.202c.109.537-.799.721-.805 1.468 3.594 1.781-2.979 4.704 1.566 5.36-.492 2.614-2.885-.622-2.85 2.257-.139.865 2.137 2.357.195 1.729-.951-1.575-1.516.681-1.631.891-.824-.95-2.979-.324-2.643-2.534.523-1.689.941.367 1.697.212 3.066-1.183.791-5.002 2.451-7.296-1.541-.989-2.445-3.877-4.389-3.76-1.212-2.081-3.885-3.212-3.935-6.553 2.127.777 2.958 3.308 4.626 4.923 1.517 2.018 3.451 3.393 5.718 3.303zM77.117 62.735c-.266.241-.308.808-.61.869-.109-.536-.145-.715.121-.955.151-.031.643-.318.489.086zm27.774 38.099c-.939-.74-2.938 1.436-3.09-.859 1.049-1.426 2.26.656 3.09.859zm-5.258 1.258c-1.617 1.727-4.22 1.324-4.49 4.639-2.307 5.686-6.074 9.617-11.535 10.266-.327.717-.743.988-1.612.98-.278-.596-.957-.83-1.368-1.305-.868-.01-2.005.594-2.691 1.479-.29.898.492 2.414.39 3.459-1.673 1.459.941 5.395-2.454 4.969-3.104-4.021 1.962-7.383-.688-11.498-1.703-2.166-3.825-3.688-5.681-5.451-.266.24-.459.838-1.061.59-.297-.686-.346-1.699.376-2.406-3.526-10.732-7.92-24.175-1.184-34.02 1.197-1.082 2.337-2.06 3.313-3.841.428-1.763-.936-3.813-.979-5.574 1.595-1.069 1.092 3.037 2.389 1.283 1.885.36 2.766 3.905 5.182 3.785 4.968-.361 10.885 1.226 13.693 6.892 1.618 3.301 3.668 6.794 4.283 10.579.599.623 1.444 1.289 1.324 2.244-.745 3.689-.076 7.744-.633 11.582.751 2.916 2.781-1.035 3.426 1.348z" fill="#c6c7c9"/><path d="M110.727 61.034c.385.977-.174 1.751-.848 1.073-.506-1.516-3.721-.074-1.961-2.317 1.076-.085 1.994.757 2.809 1.244zm-10.803-4.461c.125-.376-.197-.534-.365-.704-.629-.134-2.61-.71-2.482.927.919 1.85 1.923-.15 2.847-.223zm22.037 18.404c-2.988-4.524-6.514-9.006-9.123-13.652-2.984-1.504-3.547-8.689-8.369-6.023-2.033.709.221 2.819.188 4.378-1.023 2.734-2.828-1.517-4.373-2.493-.238.933-1.441 1.394-1.193 2.564 7.539 8.285 11.104 19.17 18.895 26.703.701-1.885 1.965-3.54 1.621-5.983.451-1.134 1.359-1.388 2.297-1.278 1.383-1.118-1.285-2.555.057-4.216zm24.457-22.783c-.027-.364.496-.588-.07-.909-3.248-.935-6.514.876-9.723.396-3.574 5.771-6.867 12.16-9.789 18.337-2.719 5.795-2.951 13.684-7.607 17.526-.449 2.14-2.441 3.395-1.941 5.826-3.865 2.042-1.625 7.905-5.08 9.276-2.252 3.836-4.193 7.74-5.172 12.027-2.625 3.041-3.9 7.533-6.035 10.904-.266.57-.516 1.322-.004 1.922 2.953.135 6.4-.318 9.633-.572 3.488-5.857 5.719-12.984 9.045-18.92-.385-.977-1.742-.502-1.395-1.994 4.283 1.311 4.076-5.262 6.438-7.736.152-.01.463-.035.615-.047 5.295 8.277 10.162 17.047 16.709 24.496.852-.982 2.299-1.279 3.482-1.006.396-.855 1.152-1.098 1.752-1.328.916-1.17 2.826-1.502 2.676-3.412-4.916-7.393-9.676-14.797-14.746-22.178-.49-.328-1.043-.467-1.549-.977-.242-3.092-3.355-4.312-3.746-7.301 5.202-11.664 11.853-22.618 16.507-34.33zm-34.141 13.843c-.221 2.122-3.027.878-3.316 3.097-.98.352-.689-.861-1.115-1.376-.057-.728.096-1.747.193-2.486 1.061-.266 1.967 1.401 2.859-.041-.25-3.185 1.092.095 1.379.806zm-5.25-2.791c.555 1.146-.867.8-1.203.46-.959-1.389 1.131-1.371 1.203-.46zm-1.759 2.241c-.279.389-.922.073-.826-.666.433-.4 1.154-.091.826.666zm14.47 30.529c-.586.412-1.068 1.182-1.684 1.23-.658-.498-.604-1.784-.359-2.626.375-1.127.959.383 1.65.328.477.145.214.716.393 1.068zm-6.322 9.189c.035.455.371.793-.076 1.012-.029-.363-.771-.945-.352-1.527.383-.032.567.32.428.515z" fill="#c6c7c9"/><path d="M156.725 71.884c.422 1.431-.578 2.516-.322 3.777-.461.036-.525 1.231-1.244.921-.709-1.134-.795-2.226-.258-3.274.677-.235.865-1.806 1.824-1.424zm33.134-21.723c.125-.376.055-1.286-.15-1.91-3.824.574-7.709.422-11.492 1.542-3.572 5.771-4.82 12.549-7.512 18.708-.762 1.158.207 2.637.906 3.68.85.94.348 2.444-.037 3.481-.307.023-.676.235-.859-.116.355-.394.061-1.194.754-1.249-.07-.91-.576-1.419-1.166-2.013-1.811-.408-1.744 2.424-2.895 3.521-.484.77.639 2.237-.486 2.691-2.018-1.031-3.127.611-5.262.046-.135-1.727 1.402-1.848 2.191-2.642-.521-2.705-2.279-4.397-3.305-6.604-5.281-4.163-5.404-11.656-10.406-16.206-.031 1.558.705 3.056.68 4.706a76.978 76.978 0 0 1 3.045 6.259c-.293.206.262 1.352-.523 1.23-.582-1.51-2.41-2.099-1.943-4.057-3.156-.759-1.051-5.5-4.016-5.816-.256-1.261.406-2.686-.266-3.365-.461.036-.404.764-.529 1.14-2.148-.747-4.098-2.882-6.41-1.785-.959.625-2.967-.317-3.295 1.448 4.789 7.769 10.42 15.379 15.07 23.343 4.219 4.428 7.207 9.958 9.865 15.24 1.785.043 2.549-3.037 4.334-1.987 1.016 4.039-3.572.829-4.17 4.079-.156 1.934.344 4.365.479 6.093-1.455 4.141 2.621 2.814 3.926 4.635.826.666 1.25-.83 2.035-.709.35.521.428 1.521.162 2.092-.619 1.971 1.006 2.941 2.098 4.045.113 1.455.389 2.988-.693 3.988-.693 2.984 1.695.875 2.473 1.91.164 2.094 2.719 2.076 2.111 4.229-.691.055-1.209-.639-1.855-.953-2.346 1.648-1.998-2.771-4.227-2.598-.061-.727-.99-1.752-.209-2.637.559-.775.453-2.141.213-3.219-1.094-1.104-1.699-2.887-3.195-3.229-.721.699-1.873.789-2.236 2.098.316 4.002.166 8.041.627 11.939.344.43.219.807.541.965 3.553-.098 7.135.17 10.506-.277.436-.398.895-.436 1.008-.992-.389-10.861-1.588-22.203-2.82-31.99 1.006-2.001 2.102-3.826 2.643-5.79.039-1.467 2.361-2.473.799-3.631-.496-.418-1.539-.886-1.908.333-.615.048-1.461.114-2.143-.655-1.104.727-.145 2.115-.928 3.001-5.148 3.423.826-2.353-.928-3.954 2.121.382 2.621-2.127 3.9-3.601 2.131-1.448 2.641 2.081 3.781 2.815 4.805-8.795 7.309-18.325 11.717-27.272zm-20.855 36.134c.105 1.364-1.523 1.309-2.252 1.915-.561-1.237.516-1.321.93-1.994.552.139.984-.261 1.322.079zm-9.268-7.601c-1.248-1.091-3.285 1.54-3.785-.892 1.039-2.552 2.604.62 3.734.256.022.273.038.454.051.636zm9.942 14.228c-.279.388-.756.242-1.293.284.201-.381 1.222-1.193 1.293-.284zm2.156 5.824c-.252.477-1.162 1.811-1.688 1.908-.312.057-.488-.33-.299-1.613.172-.518 1.398-1.572 1.906-1.418.231.07.313.389.081 1.123z" fill="#c6c7c9"/><path d="M138.5 122.057s-.193-2.039-2.477-2.281h-12.619s-.68 3.01 1.65 5.34l13.457 13.418-.011-16.477zm-3.396 4.562l-2.832.018 1.764-1.764c1.1-1.102-.195-1.264-.195-1.264l-1.732-.025-1.861-1.852 5.584-.016c.713 0 .68.68.68.68l.014 5.604-1.422-1.381z" fill="#cc1b59"/><path d="M138.299 118.717c-7.605-13.947-22.305-.721-14.748 6.834l15.096 15.098v3.857l-28.77-28.742c-1.227-1.23.049-2.52.049-2.52l6.068-6.057c4.984 3.885 13.082 2.064 14.723 2.428 3.141.551 5.51 1.684 7.582 5.049v4.053zM154.984 119.775h-12.619a2.642 2.642 0 0 0-2.475 2.281l-.014 16.477 13.457-13.418c2.331-2.33 1.651-5.34 1.651-5.34zm-8.699 3.809l-1.736.025s-1.295.162-.195 1.264l1.766 1.764-2.83-.018-1.425 1.381.014-5.604s-.031-.68.682-.68l5.582.016-1.858 1.852z" fill="#cc1b59"/><path d="M140.09 118.717c7.605-13.947 22.305-.721 14.75 6.834l-15.096 15.098v3.857l28.768-28.742c1.229-1.23-.045-2.52-.045-2.52l-6.072-6.057c-4.984 3.885-13.082 2.064-14.723 2.428-3.139.551-5.51 1.684-7.582 5.049v4.053z" fill="#cc1b59"/></g></svg>