<svg xmlns="http://www.w3.org/2000/svg" width="2500" height="2500" viewBox="0 0 192.756 192.756"><g fill-rule="evenodd" clip-rule="evenodd"><path fill="#fff" d="M0 0h192.756v192.756H0V0z"/><path d="M60.84 111.332c-2.86-3.146-6.292-.287-6.292-.287-1.716 3.623.572 4.1.572 4.1-.286-2.668 1.621-2.955 1.621-2.955 2.002-.381 2.288 2.385 2.288 2.385-.477 4.289-6.102 2.668-6.102 2.668-4.671-1.525-4.958-6.578-4.958-6.578V97.412c5.72-4.099 6.006-9.628 6.006-9.628 1.144-5.244-3.909-10.392-3.909-10.392 1.048-2.669 4.957-1.907 4.957-1.907 4.958 1.621.381 5.339.381 5.339 4.577.953 4.862-3.718 4.862-3.718-.858-5.244-6.864-4.767-6.864-4.767-3.719-.19-7.437 2.86-7.437 2.86-1.335-1.049-5.815-1.716-5.815-1.716l-.096-4.195c1.43-4.004 5.911-2.956 5.911-2.956v-2.479H30.047v2.289c4.576-.667 5.815 3.336 5.815 3.336.286 2.288.19 3.814.19 3.814-.286.762-.762 1.048-.762 1.048-.954.095-2.574 1.049-2.574 1.049-1.43.667-2.384.095-2.384.095-3.241-4.195-8.771-3.051-8.771-3.051-6.102.858-7.341 6.388-7.341 6.388-.572 5.529 4.195 6.578 4.195 6.578 6.006.572 6.006-4.29 6.006-4.29-.476-3.623-3.908-2.574-3.908-2.574 1.716.667 1.334 2.002 1.334 2.002-1.048 3.242-2.86 1.716-2.86 1.716-2.288-1.049-1.144-4.291-1.144-4.291 3.242-3.527 6.96-2.002 6.96-2.002 4.004 1.716 3.432 4.958 3.432 4.958v9.82c-4.957 2.002-4.29 4.386-4.29 4.386-1.144 3.909 4.576 5.911 4.576 5.911v8.867c-.381 5.625-3.718 6.102-3.718 6.102-6.864 2.574-7.818-3.338-7.818-3.338-.477-5.91 4.671-5.338 4.671-5.338-2.955-1.24-5.148.572-5.148.572-4.576 6.197.19 9.914.19 9.914 5.72 4.195 11.25.764 11.25.764.763-1.621 2.098-.764 2.098-.764 1.525 1.906 2.86 1.145 2.86 1.145v-16.875c2.384-2.098 3.146 0 3.146 0v17.732c-5.625.287-5.72 4.576-5.72 4.576-.858 3.623 3.146 4.48 3.146 4.48 3.813.479 6.102-4.48 6.102-4.48.763 1.145 5.625 3.814 5.625 3.814 6.197 2.287 10.105-2.193 10.105-2.193 2.574-2.574 2.098-4.004 2.098-4.004-4.004 5.434-8.008 3.242-8.008 3.242-4.481-.668-8.962-4.863-8.962-4.863v-1.238s.286-16.686 0-17.352c-.286-.764.572-1.24.572-1.24l1.621-.857c1.907-.572 1.621 1.049 1.621 1.049v10.201c.095 3.336-1.144 4.48-1.144 4.48 2.002.096 3.146 1.145 3.146 1.145l4.099 2.574c3.337 2.572 7.913.57 7.913.57 6.197-3.431 2.574-8.388 2.574-8.388zM32.716 89.69V79.394s1.335-1.145 3.336-.572v11.917c.001 0-2.287.095-3.336-1.049zm.286 7.626v-3.05s2.192-.572 3.146.477v2.573s-1.144.86-3.146 0zm2.383 27.84c-.763.477-1.716.477-2.097-.096-.286-.572.095-1.525.858-2.002.858-.477 1.812-.381 2.193.191.286.571-.095 1.431-.954 1.907zm8.581-31.176s-1.144.572-3.813-2.097V78.25s2.764 0 3.813.667V93.98zm3.813-12.584c5.053 6.006 0 10.01 0 10.01v-10.01z" fill="#cc2229"/><path d="M68.944 71.862v.382l.286.095h.477c.858.191 1.239.668 1.239 1.526v11.631c0 1.049-.572 1.525-2.002 1.525v.477h6.579v-.477c-1.716 0-2.098-.381-2.098-1.811v-4.958h1.334l5.911 7.246h3.527v-.477c-1.144 0-1.334-.19-2.956-2.097l-4.004-4.958c3.051-.667 4.1-2.002 4.29-4.195.096-1.335-.667-2.193-1.811-3.051-.858-.477-2.574-.858-3.814-.858h-6.958zm4.481 7.532v-5.911c0-.572.286-.763 1.334-.763 2.765 0 4.195 1.048 4.195 3.241a3.167 3.167 0 0 1-1.43 2.669c-.952.573-2.001.764-4.099.764zM90.014 75.485c-3.242.19-5.53 2.669-5.53 6.197 0 3.527 2.383 6.102 5.816 6.102 3.432 0 5.815-2.574 5.815-6.197s-2.384-6.102-5.911-6.102h-.19zm.286.667h.095c2.288 0 3.718 2.097 3.718 5.53 0 3.336-1.43 5.434-3.813 5.434-2.289 0-3.719-2.098-3.719-5.53.001-3.336 1.431-5.434 3.719-5.434zM96.497 75.771v.286c.763.096 1.239.572 2.192 1.812l2.955 4.48v3.432c0 1.144-.381 1.335-1.811 1.335v.381h5.434v-.381c-1.43 0-1.715-.191-1.715-1.144l-.096-3.813 2.67-4.004.094-.191.287-.477c.668-.953 1.238-1.239 2.098-1.43v-.286h-3.91v.286c.859.096 1.24.191 1.24.572 0 .191-.191.477-.381.954l-2.479 3.718-2.67-4.1c-.096-.095-.191-.381-.191-.572 0-.381.096-.477 1.049-.572h.191v-.286h-4.957zM113.182 75.485l-4.195 9.915c-.572 1.335-.953 1.716-1.717 1.716v.381h3.527v-.381h-.189c-.668 0-1.049-.191-1.049-.667.096-.286.096-.477.191-.763 0 0 .285-.572.762-1.812l.096-.19h4.576c.096.095.096.19.096.19.762 1.716.953 2.288.953 2.67 0 .476-.287.572-1.145.572h-.096v.381h4.576v-.381c-.762 0-1.049-.191-1.525-1.335l-4.48-10.296h-.381zm-.287 2.574l2.002 4.862h-4.004l2.002-4.862zM120.236 75.771v.286c.096 0 .191 0 .285.096 1.049.095 1.336.381 1.336 1.144v8.485c0 1.049-.383 1.335-1.621 1.335v.381h9.629l.857-3.051h-.477c-.477.953-.857 1.525-1.43 1.812-.668.477-1.24.572-2.859.572h-.859c-1.238 0-1.43-.095-1.43-.763v-8.676c0-.858.287-1.144 1.334-1.239l.287-.096v-.286h-5.052zM68.849 93.408v.381c.095.096.19.096.286.096 1.43.19 1.811.477 1.811 1.621v11.25c0 1.334-.572 1.811-2.097 1.811v.477h12.775l1.144-4.1h-.667c-.572 1.336-1.049 2.002-1.907 2.48-.762.57-1.62.666-3.718.666H75.237c-1.621 0-1.907-.096-1.907-.953V95.601c0-1.239.381-1.621 1.811-1.716l.382-.096v-.381h-6.674zM89.442 97.031l-4.195 9.914c-.572 1.336-.954 1.717-1.716 1.717v.381h3.527v-.381h-.191c-.667 0-1.048-.191-1.048-.668h.095c0-.285 0-.477.095-.762 0 0 .286-.572.763-1.811l.095-.191h4.576c.096.096.096.191.096.191.763 1.715.953 2.287.953 2.668 0 .477-.286.572-1.144.572h-.096v.381h4.576v-.381c-.763 0-1.049-.191-1.525-1.334l-4.48-10.297h-.381v.001zm-.286 2.574l2.002 4.861h-4.004l2.002-4.861zM96.592 97.316v.287c.763.096.953.189 1.525.857l.191.191v8.104c0 1.43-.477 1.906-1.716 1.906v.381h4.195v-.381c-1.334 0-1.715-.477-1.715-1.906V99.51l7.816 9.725h.287v-9.533c0-1.43.381-1.908 1.525-2.002l.189-.096v-.287h-4.195v.287l.287.096c1.049.094 1.43.572 1.43 1.715v6.389l-6.77-8.486h-3.049v-.002zM119.855 97.031c-.096.381-.383.572-.764.572h-.285l-1.525-.381a4.222 4.222 0 0 0-1.24-.191c-3.623 0-6.197 2.574-6.197 6.293 0 3.527 2.385 6.006 5.912 6.006 2.098 0 3.812-.859 4.861-2.289l-.285-.381c-1.24 1.334-2.479 1.906-4.004 1.906-2.766 0-4.387-2.098-4.387-5.434s1.621-5.34 4.195-5.34c1.906 0 3.242 1.145 3.812 3.242h.479l-.191-4.004h-.381v.001zM127.672 97.031l-4.193 9.914c-.572 1.336-1.049 1.717-1.717 1.717v.381h3.527v-.381h-.191c-.666 0-1.049-.191-1.049-.668 0-.285.096-.477.191-.762 0 0 .287-.572.668-1.811l.094-.191h4.672c0 .096.096.191.096.191.764 1.715.953 2.287.953 2.668 0 .477-.285.572-1.143.572h-.096v.381h4.576v-.381c-.764 0-1.049-.191-1.525-1.334l-4.48-10.297h-.383v.001zm-.285 2.574l2.002 4.861h-4.004l2.002-4.861zM142.068 97.031c-.096.477-.191.572-.572.572h-.381l-1.049-.381a3.405 3.405 0 0 0-1.049-.191c-1.906 0-3.242 1.24-3.242 3.051 0 1.145.668 2.193 1.812 2.859l1.715 1.049c.191.096.383.191.572.383 1.24.953 1.621 1.334 1.621 2.287 0 1.145-.953 2.002-2.193 2.002-1.523 0-2.764-1.049-3.621-3.146h-.383l.477 3.814h.477c0-.477.191-.668.572-.668 0 0 .096.096.191.096l1.43.381c.287.096.572.191.953.191 2.289 0 3.91-1.336 3.91-3.242 0-1.238-.764-2.287-2.098-3.146l-2.002-1.143c-1.24-.859-1.812-1.525-1.812-2.385 0-.953.668-1.621 1.812-1.621 1.525 0 2.859 1.336 3.24 3.053h.477l-.381-3.814h-.476v-.001zM145.023 97.316l-.096 3.051h.479c.189-.857.285-1.334.57-1.715.479-.477.859-.572 2.957-.572h.189v9.438c0 .859-.381 1.145-1.621 1.145v.381h5.148v-.381c-1.334 0-1.619-.285-1.619-1.525V98.08h.475c1.336 0 1.812 0 2.193.191.572.285.764.857 1.049 2.096h.477l-.096-3.051h-10.105zM155.988 97.316v.287c.096 0 .096.096.189.096 1.049.094 1.336.381 1.336 1.334v8.295c0 1.049-.381 1.334-1.525 1.334v.381h9.533l.857-3.051h-.57c-.383.953-.572 1.24-1.049 1.621-.572.572-1.432.764-2.957.764h-1.621c-.57-.096-.857-.191-.857-.572v-4.576h2.955c1.24 0 1.525.381 1.717 1.525v.189h.381v-4.098h-.381c-.191 1.334-.572 1.715-1.525 1.715h-3.146v-4.004c0-.285.096-.477.191-.477.096-.096.477-.096 1.43-.096 1.906 0 2.766 0 3.146.191.477.285.668.572.857 1.43 0 .096 0 .096.096.191h.477l-.096-2.48h-9.438v.001zM167.143 97.316v.287l.189.096h.383c.572.094.953.477.953 1.143v8.676c0 .859-.477 1.145-1.525 1.145v.381h4.957v-.381c-1.334 0-1.621-.285-1.621-1.334v-3.719h.953l4.482 5.434h2.668v-.381c-.857 0-1.049-.096-2.191-1.621l-3.051-3.623c2.287-.477 3.051-1.523 3.24-3.145 0-1.049-.477-1.621-1.334-2.289-.668-.381-2.002-.668-2.859-.668h-5.244v-.001zm3.336 5.625v-4.48c0-.381.191-.477.953-.477 2.098 0 3.146.764 3.146 2.383 0 .859-.381 1.621-1.049 2.002-.761.479-1.429.572-3.05.572z"/></g></svg>