<svg xmlns="http://www.w3.org/2000/svg" width="2500" height="2500" viewBox="0 0 192.756 192.756"><g fill-rule="evenodd" clip-rule="evenodd"><path fill="#fff" d="M0 0h192.756v192.756H0V0z"/><path d="M92.207 60.926l1.143 8.456 1.885-.514 1.771-.515 1.715-.628 1.543-.571 1.484-.743 1.258-.628 1.314-.857.627-.457.459-.686.455-.457.23-.571.17-.686v-.571l1.943 17.94c.57 9.827-32.51 10.056-36.509 10.056l-.571.8-.572.857-.457.743-.4.972-.286.914-.343.8-.171.972-.286 1.085v.4l-.115.629v.457l-.057.571-.115.457v.571l-.057.457v.571l.057.571v.571l.115.571v.571l-.115-.057.343 2.514-14.913 1.714-2.342-16.74-.686.285-1.371.572-1.029.571-.8.286-.8.343-.457.229-.458.172-.457.171-.628.343-.515.171-.571.228-.686.229-.686.343-1.714.8-1.714.571-1.656.743-1.429.57-1.429.687-1.314.399-1.257.515-1.085.399-1.086.4-.971.229-.857.285-.8.114-.629.058-.571.057h-.458l-.399-.057-.286.057-.171-.057-.229-.058-.172-.114-.229-.171-.114-.114-.171-.057-.171-.172-.114-.172-.171-.171-.114-.229-.057-.172-.115-.343-.057-.171-.057-.229-.171-.228-2.743-18.169.057.229.171.229.058.286.114.171.057.229.171.057.057.286.172.229.114.171.229.057.171.114.229.057.114.171.229.057.229.171h.229l.343.114h.458l.628-.114.686-.057.743-.286.914-.229.914-.229 1.143-.4 1.143-.343 1.2-.4 1.314-.571 1.485-.515 1.486-.742 1.6-.629 1.714-.686 1.828-.743.686-.286.628-.286.686-.229.458-.229.571-.228.458-.171.457-.286.514-.171.743-.286.857-.4 1.028-.514 1.429-.514 3.085-1.314 3.143-1.257 3.028-1.257 2.971-1.086 2.743-1.028 2.799-.971 2.628-.914 2.628-.8 2.399-.742 2.514-.571 2.229-.686 2.228-.4 2.229-.514 2.057-.286 2-.171 1.885-.286 3.371.517z" fill="#cc2229"/><path d="M87.75 96.063l-4.228-4.856c5.713-14.455 33.71-23.71 52.964-24.282l1.543 16.112 1.086-.229 1.256-.343 1.373-.571 1.143-.4 1.312-.514 1.258-.4 1.199-.4 1.258-.515 1.143-.4 1.199-.399 1.029-.4 1.143-.515 1.086-.343 1.086-.4 1.027-.343 1.885-.8 1.658-.743 1.484-.571 1.371-.629 1.145-.571.914-.514.742-.343.57-.4.344-.229.113-.343.115-.171v-.058l1.428 18.055v.114l-.113.229-.115.229-.342.343-.516.343-.742.514-.971.457-1.086.514-1.258.629-1.6.571-1.6.743-1.885.914-1.086.343-.914.286-1.143.457-1.086.457-1.143.399-1.143.4-1.199.457-1.086.4-1.258.399-1.256.4-1.258.571-1.256.399-1.314.343-1.314.515-1.258.515-1.312.399-2.057.628-2.059.743-1.998.571-1.887.571-2.057.571-1.943.686-2 .572-1.941.57-1.885.572-2 .571-1.828.456-1.943.515-1.943.571-1.885.4-1.828.514-1.885.4-1.943.514-1.828.4-1.885.4-1.83.399-1.771.343-1.77.4-1.714.229-1.771.342-1.657.344-1.6.229-1.714.229-1.6.285-1.542.229-1.542.172-1.542.171-1.486.172c-1.542-.114-2.514-1.2-2.799-3.199l-.057-.686-2.229-18.284.114.686.172.457.114.686.171.457c.629 1.313.8 1.313 2.228 1.6l1.543-.114 1.485-.229 1.6-.229 1.6-.172 1.657-.171 1.6-.229.743-.167z" fill="#33348e"/><path d="M74.667 94.979c-3.714-11.884 36.91-27.367 42.337-29.653l19.369 1.485c-10.914 2.857-21.426 8.285-31.883 13.027-5.084 2.514-10.398 5.085-15.254 8.342h-.057l-.114.171c-.286 0-1.657 1.2-2.114 1.485-2.914 4.057 22.911-2.228 26.11-3.142 13.428-2.628 35.254-11.77 34.967-14.569 5.086-1.2 10.514-1.371 15.656-1.371.57.228 1.6.171 2.113.571l.057.057c0 1.714-15.654 7.37-18.111 8.17-14.969 5.942-31.139 10.341-46.736 13.769-7.313 1.886-16.055 3.542-23.597 3.942-.972-.342-2.344-.97-2.743-2.284zM85.922 53.499c-4.114 2.856-9.084 5.37-13.769 7.256 6.17-1.771 12.798-2.856 19.026-3.942 3.256-.286 7.37-.971 10.569.171.973.171 3.543 1.829 3.887 2.8l.285.229c2.113 10.969-32.053 11.312-36.567 11.312-3.143 4.342-4.114 10.227-3.028 15.769l-15.141 1.714c-1.143-6.742 2.971-15.598 7.027-19.597 8.856 0 19.426.571 27.653-3.771.743-.4 3.886-2.286 4.285-3.314.286-.971-.114-1.6-1.314-1.885-15.37 2-30.167 7.484-44.68 13.998-3.885 1.257-8.456 3.886-12.57 5.199-1.542.629-10.684 4.971-11.599.8-.914-4.171 1.6-5.428 2.915-5.885a18.42 18.42 0 0 1 2.856-1.314c9.941-3.2 21.826-5.485 31.139-11.542 4.914-2.628 9.941-5.713 14.626-8.913l14.4.915z" fill="#fff"/><path d="M5.875 140v-14.798h4.799c1.771 0 3.2.286 3.942.857.857.628 1.314 1.657 1.314 3.028 0 .856-.229 1.714-.686 2.285-.457.629-1.2 1.085-2.114 1.371.628.057 1.2.343 1.485.742.343.458.628 1.029.628 1.772 0 .456.114 1.142.114 1.999 0 1.485.343 2.456.629 2.742h-.8c-.229-.229-.457-1.143-.457-2.457 0-.229-.114-.456-.114-.514v-.399c0-1.371-.286-2.343-.628-2.743-.229-.343-.628-.571-1.085-.686-.458-.172-1.085-.229-1.829-.229H6.504V140h-.629zm.629-7.655h4.571c1.314 0 2.343-.286 3.028-.801.686-.514 1.085-1.371 1.085-2.399 0-.457-.114-.971-.229-1.313-.171-.4-.399-.801-.686-1.086-.286-.286-.743-.571-1.2-.743-.457-.171-1.257-.229-2.4-.229H6.504v6.571zM34.272 140l-5.257-14.798h.686l4.856 13.827 4.8-13.827h.743L34.843 140h-.571zm39.709 0l-.057-2.971c-.458 1.028-1.2 1.828-2.114 2.285-.915.515-2 .857-3.314.857-1.942 0-3.542-.686-4.685-2.057-1.143-1.314-1.714-3.199-1.714-5.542 0-2.4.571-4.229 1.714-5.6 1.143-1.314 2.743-2.114 4.685-2.114 1.657 0 3.028.457 4 1.2.971.743 1.657 1.942 1.885 3.313h-.8c-.171-1.199-.8-2.171-1.6-2.856-.914-.686-2.114-1.028-3.485-1.028-1.714 0-3.142.686-4.113 1.885-1.028 1.258-1.543 3.029-1.543 5.2 0 2.113.515 3.885 1.486 5.085 1.028 1.199 2.457 1.885 4.17 1.885 1.657 0 3.028-.514 3.886-1.428 1.028-.972 1.542-2.4 1.542-4v-.686h-4.971v-.629h5.542V140h-.514zm17.883 0v-14.798h4.799c1.772 0 3.2.286 3.942.857.857.628 1.314 1.657 1.314 3.028 0 .856-.229 1.714-.686 2.285-.457.629-1.199 1.085-2.113 1.371.627.057 1.199.343 1.484.742.344.458.629 1.029.629 1.772 0 .456.115 1.142.115 1.999 0 1.485.342 2.456.627 2.742h-.855c-.172-.229-.4-1.143-.4-2.457 0-.229-.115-.456-.115-.514v-.399c0-1.371-.285-2.343-.686-2.743-.172-.343-.57-.571-1.027-.686-.457-.172-1.086-.229-1.887-.229h-4.513V140h-.628zm.629-7.655h4.513c1.371 0 2.4-.286 3.086-.801.686-.514 1.029-1.371 1.029-2.399 0-.457-.059-.971-.172-1.313-.172-.4-.4-.801-.686-1.086-.344-.286-.744-.571-1.201-.743-.457-.171-1.256-.229-2.399-.229h-4.171v6.571h.001zm26.911.171c0 2.229.514 3.942 1.484 5.143 1.086 1.199 2.457 1.885 4.285 1.885 1.771 0 3.314-.571 4.342-1.771 1.029-1.199 1.543-3.027 1.543-5.198s-.514-3.942-1.543-5.143c-1.027-1.257-2.57-1.942-4.342-1.942-1.828 0-3.199.686-4.17 1.885-1.086 1.258-1.6 3.029-1.6 5.2v-.059h.001zm-.744 0c0-2.343.572-4.171 1.715-5.542 1.143-1.314 2.799-2.114 4.799-2.114s3.656.686 4.857 2.057c1.199 1.314 1.771 3.257 1.771 5.657 0 2.343-.572 4.228-1.715 5.542-1.199 1.371-2.801 2.057-4.914 2.057-2 0-3.656-.686-4.799-2.057-1.143-1.314-1.715-3.199-1.715-5.542v-.058h.001zm30.453-7.314h.572v9.256c0 1.657.457 2.914 1.199 3.771.801.856 2.057 1.313 3.6 1.313 1.486 0 2.799-.457 3.543-1.257.799-.914 1.256-2.171 1.256-3.828v-9.256h.629v9.542c0 1.656-.572 3.085-1.428 3.999-.973.857-2.4 1.429-4.057 1.429-1.658 0-2.971-.571-3.887-1.429-.912-.914-1.428-2.343-1.428-3.999v-9.541h.001zm32.338 0c1.771 0 3.201.343 4.115.972.914.571 1.314 1.657 1.314 2.971 0 .515-.115 1.143-.287 1.6-.113.4-.514.972-.914 1.258-.342.456-.855.742-1.484.914-.572.113-1.658.171-2.857.171h-3.256V140h-.629v-14.798h3.998zm-.455.571h-2.914v6.742h2.855c1.029 0 1.828-.058 2.285-.058s.914-.171 1.201-.343c.457-.113.914-.571 1.199-1.085.285-.628.514-1.257.514-1.942 0-.629-.113-1.2-.342-1.657-.285-.457-.742-.8-1.199-1.028-.287-.172-.857-.4-1.258-.457-.457-.114-1.371-.172-2.4-.172h.059z"/></g></svg>