<svg xmlns="http://www.w3.org/2000/svg" width="1732" height="2500" viewBox="0 0 146.131 210.926"><path d="M35.779 179.693c-1.71-.811-3.33-1.71-4.95-2.611a105.977 105.977 0 0 1-4.771-2.969 98.016 98.016 0 0 1-3.42-2.476 84.83 84.83 0 0 1-4.41-3.601l-.54-.54c-1.305-1.396-2.565-2.791-3.781-4.276-1.485-1.891-2.925-3.78-4.275-5.761-.675-.99-1.35-1.98-2.025-3.015a93.208 93.208 0 0 1-1.665-3.69c-.72-1.665-1.35-3.33-1.98-5.041a112.1 112.1 0 0 1-1.125-3.646 73.717 73.717 0 0 1-1.261-5.221c-.27-1.305-.495-2.564-.72-3.87-.09-.81-.225-1.62-.314-2.43L0 122.717V12.545c5.266-1.891 10.531-3.826 15.886-5.536a108.65 108.65 0 0 1 5.447-1.62c2.115-.585 4.275-1.08 6.435-1.576 2.746-.54 5.491-1.034 8.281-1.439l4.276-.63c2.16-.27 4.32-.495 6.48-.72 2.206-.18 4.365-.36 6.526-.495 2.205-.135 4.365-.27 6.57-.359 2.161-.046 4.366-.09 6.526-.135 2.205-.045 4.366-.045 6.571 0 2.925.045 5.806.089 8.73.225 2.881.09 5.761.226 8.686.405 2.835.18 5.671.405 8.551.63 2.07.181 4.096.36 6.167.586 3.015.359 5.985.81 8.955 1.395 2.025.405 4.05.855 6.076 1.35.99.271 2.025.495 3.016.72a142.05 142.05 0 0 1 6.256 1.755c5.625 1.71 11.161 3.735 16.697 5.716v110.396l-.181 3.78c-.09 1.26-.18 2.476-.27 3.736a86.804 86.804 0 0 1-.495 3.6 87.136 87.136 0 0 1-.63 3.6c-.271 1.17-.541 2.34-.855 3.511-.315 1.17-.63 2.34-.99 3.466l-.811 2.294-.9 2.25-.99 2.25-1.124 2.206-1.171 2.205-1.305 2.161-1.44 2.16a139.561 139.561 0 0 1-3.285 3.96c-.945 1.035-1.891 2.07-2.88 3.061a127.617 127.617 0 0 1-3.601 3.331c-.899.765-1.799 1.485-2.7 2.205a87.851 87.851 0 0 1-4.14 2.971l-2.476 1.35-2.474 1.305a96.498 96.498 0 0 1-3.736 1.71 72.948 72.948 0 0 1-3.781 1.53c-1.26.45-2.52.9-3.825 1.305-1.26.405-2.564.765-3.87 1.125-1.305.315-2.61.63-3.871.945-1.35.27-2.655.495-4.005.766-1.306.179-2.655.405-4.005.585-1.35.135-2.699.27-4.095.405-2.16.179-4.366.36-6.526.36-1.98-.045-4.005-.09-5.985-.181-2.25-.134-4.501-.27-6.796-.495-1.89-.225-3.781-.45-5.716-.72a178.32 178.32 0 0 1-4.726-.855 87.961 87.961 0 0 1-4.681-1.08l-1.89-.496c-3.106-1.035-6.21-2.07-9.226-3.375l-.901-.451z" fill="#cd3529"/><path d="M36.544 178.118c-1.665-.81-3.24-1.665-4.861-2.565a100.02 100.02 0 0 1-4.635-2.925c-1.53-1.035-2.97-2.115-4.455-3.241a123.904 123.904 0 0 1-3.69-3.15c-1.485-1.576-2.88-3.241-4.231-4.951a85.596 85.596 0 0 1-4.726-6.481l-.81-1.214c-.541-1.171-1.08-2.34-1.576-3.511a93.478 93.478 0 0 1-1.89-4.95 80.325 80.325 0 0 1-1.125-3.556c-.495-1.665-.9-3.375-1.26-5.085l-.675-3.781c-.09-.765-.225-1.575-.315-2.34l-.54-7.696V13.805C6.03 12.23 10.306 10.7 14.626 9.259a218.606 218.606 0 0 1 7.156-2.16c1.8-.496 3.646-.945 5.446-1.351l1.845-.36c2.385-.495 4.815-.9 7.246-1.26l4.23-.63c2.161-.225 4.275-.495 6.436-.72 2.16-.181 4.32-.36 6.48-.496 2.161-.134 4.321-.225 6.481-.315 2.16-.089 4.32-.135 6.525-.18h6.526l6.48.135c3.6.135 7.201.315 10.802.541 2.88.18 5.67.36 8.551.584 2.475.225 4.95.45 7.471.765 1.8.226 3.6.496 5.446.811 2.655.495 5.31 1.035 7.964 1.71.991.27 2.025.496 3.061.766 2.07.495 4.096 1.08 6.166 1.665 3.556 1.125 7.065 2.34 10.621 3.6 1.576.541 3.195 1.125 4.771 1.71v109.137c0 1.215-.089 2.476-.135 3.69-.09 1.215-.18 2.43-.315 3.646a112.63 112.63 0 0 1-.45 3.555c-.18 1.17-.405 2.296-.63 3.465a42.48 42.48 0 0 1-.811 3.42c-.315 1.125-.63 2.25-.99 3.375l-.765 2.205c-.45 1.125-.855 2.205-1.349 3.286l-.991 2.16-1.125 2.16-1.215 2.115-1.35 2.07-.675 1.035a87.59 87.59 0 0 1-3.15 3.781 185.204 185.204 0 0 1-2.835 3.015c-1.305 1.26-2.61 2.52-4.006 3.69l-3.24 2.565c-.945.675-1.89 1.351-2.881 1.98-1.17.676-2.34 1.351-3.555 1.98l-3.646 1.754a89.885 89.885 0 0 1-3.69 1.531 53.31 53.31 0 0 1-3.735 1.35c-1.26.45-2.521.81-3.781 1.17-1.26.36-2.52.675-3.825.99-1.26.27-2.521.54-3.826.811-1.305.225-2.61.45-3.916.63a120.15 120.15 0 0 1-8.055.765l-2.701.135c-2.295 0-4.59-.045-6.885-.135a123.75 123.75 0 0 1-5.761-.404 120.926 120.926 0 0 1-5.625-.675c-1.891-.27-3.735-.63-5.581-.99a53.549 53.549 0 0 1-3.69-.811c-1.125-.27-2.25-.494-3.33-.899-2.925-.945-5.851-1.935-8.641-3.241l-.63-.267z" fill="#fff"/><path d="M69.577 182.979l-3.33-.18-3.285-.271-3.285-.359-3.24-.54-3.151-.585-3.15-.765-3.061-.854-3.015-.946-2.971-1.079-2.835-1.216-2.791-1.305-2.746-1.44-2.61-1.575-2.52-1.665-2.431-1.801-2.34-1.935-2.206-2.025-2.115-2.206-1.98-2.295-1.846-2.384-1.71-2.566-1.575-2.655-1.44-2.79-1.305-2.925-1.123-3.017-.946-3.196-.81-3.285-.63-3.42-.496-3.556-.27-3.645-.09-3.78V15.516l2.7-1.081 2.161-.81 2.115-.81 2.161-.721 2.16-.675 2.116-.675 2.16-.63 4.275-1.125L28.398 8l4.231-.81 4.275-.766 4.276-.585 4.23-.495 4.231-.405c2.115-.135 4.275-.315 6.391-.404 2.115-.09 4.23-.181 6.346-.226 2.115-.044 4.23-.09 6.346-.09 4.275 0 8.505.09 12.781.18 2.835.136 5.671.225 8.505.405 2.161.135 4.276.27 6.391.45l4.23.45c2.161.225 4.276.495 6.436.811l4.231.675 4.275.764 4.275.945 4.275 1.08 2.161.585 2.115.63 2.16.63 2.16.721 2.116.765 2.16.81 2.161.811 2.655 1.125v107.157l-.09 3.826-.27 3.645-.451 3.554-.63 3.421-.81 3.285-.99 3.15-1.125 3.015-1.305 2.925-1.44 2.791-1.575 2.655-1.711 2.52-1.845 2.385-1.979 2.295-2.116 2.161-2.205 2.025-2.34 1.89-2.431 1.8-2.565 1.665-2.61 1.531-2.746 1.395-2.789 1.305-2.881 1.17-2.97 1.08-3.015.945-3.105.81-3.106.72-3.194.585-3.24.495-3.286.36-3.329.27-3.331.136h-3.375l-3.379-.044z" fill="#cd3529"/><path d="M69.623 181.223l-3.24-.18-3.24-.271-3.241-.36-3.15-.495-3.105-.63-3.061-.721-3.015-.81-2.925-.945-2.88-1.079-2.791-1.171-2.745-1.26-2.61-1.439-2.565-1.485-2.475-1.62-2.34-1.755-2.25-1.89-2.16-1.98-2.025-2.071-1.891-2.205-1.8-2.34-1.665-2.475-1.531-2.566-1.35-2.7-1.26-2.835-1.08-2.925-.946-3.061-.81-3.195-.586-3.33-.449-3.466-.27-3.555-.135-3.736V16.73l3.69-1.44 2.16-.765 2.116-.765 2.07-.675 2.115-.63 4.23-1.215 4.23-1.035 4.231-.9 4.186-.766 4.23-.674 4.185-.541 4.231-.45c2.115-.18 4.185-.314 6.301-.45 2.115-.135 4.185-.226 6.3-.315 2.115-.045 4.23-.09 6.3-.09l4.231-.045c4.23.045 8.461.135 12.737.27 2.115.09 4.23.225 6.346.315 2.114.135 4.23.314 6.3.495 2.114.18 4.23.405 6.346.63l4.23.585 4.23.63 4.185.81 4.23.9 4.231 1.08 2.114.586 2.116.585 2.115.675 2.115.72 2.117.72 2.114.765 3.69 1.485v105.986l-.09 3.735-.27 3.555-.45 3.465-.63 3.286-.765 3.195-.945 3.061-1.126 2.925-1.215 2.836-1.395 2.699-1.531 2.521-1.665 2.475-1.8 2.296-1.89 2.205-2.025 2.071-2.16 1.98-2.251 1.844-2.384 1.71-2.43 1.621-2.566 1.485-2.655 1.394-2.746 1.261-2.79 1.125-2.88 1.035-2.97.944-3.016.811-3.015.675-3.149.584-3.197.495-3.195.359-3.286.226-3.285.134-3.33.045-3.329-.041z" fill="#fff"/><path d="M37.04 77.127c-13.547 7.92-18.047 21.107-18.362 36.184-1.71-3.601-3.51-7.201-5.356-10.892-.63 28.894 14.312 38.975 33.664 41.27-2.97 1.575-7.786 1.575-16.652-.99 6.301 4.68 9.901 4.41 14.987 4.861-2.61 1.214-5.806.899-8.597 1.035 6.706 2.7 16.247 4.59 26.103 2.655.09-6.841 1.035-12.017 1.215-18.812-33.798.9-46.85-26.328-27.002-55.311z" fill="#fff22d" stroke="#000" stroke-width=".09"/><path d="M11.296 127.532c8.281 17.597 19.757 30.243 35.374 32.134-2.161-1.306-6.346-2.386-8.236-4.411 14.447 2.7 30.063 4.905 42.62-3.646 2.34 2.16 4.726 4.275 7.111 6.48-5.895 6.031-26.103 18.137-45.68 10.037-21.693-8.955-29.209-33.483-31.189-40.594z" fill="#33a457" stroke="#000" stroke-width=".225"/><path d="M119.623 159.171c3.915-4.905 7.651-13.006 8.056-21.243 1.125 2.34.72 7.066 1.305 11.026 4.411-16.112 5.581-34.699-14.626-45.365 13.77 16.563 12.196 36.004 5.265 55.582z" fill="#fff22d" stroke="#000" stroke-width=".09"/><path d="M78.894 67.406c-7.832-3.601-38.84 1.575-46.355 17.777-15.887 35.104 11.611 49.009 31.773 47.255 7.831 8.37 15.797 17.102 23.672 25.518-18.677 15.707-34.384 14.626-47.795 9.405 25.743 12.917 59.181 3.961 62.736-25.292 1.081 4.816.181 9.631-1.214 14.447 2.475-4.275 4.591-8.731 6.571-13.006-.36 17.102-11.071 28.172-30.243 34.249 18.631 3.735 42.529-18.407 45.05-30.738 4.815-23.853-1.8-34.564-8.731-43.835 8.371 4.051 14.806 12.646 19.442 21.197-.54-11.566-4.141-27.453-21.422-42.574-3.061-2.701-8.552-2.295-12.152-.36-2.655 1.44-2.476 5.491-2.295 8.326 0 5.715 7.876 15.032 2.656 16.966-6.346 2.295-12.962-6.93-17.598-11.971 1.8-.18 4.095 1.26 6.03 2.34-1.575-2.115-3.915-4.456-6.389-6.255 1.395.54 3.014 1.035 4.635 1.62-2.655-3.6-6.256-6.391-10.622-7.291-2.88-3.196-7.876-3.916-13.772-3.375 3.241 4.275 3.916 11.206-.18 15.482 1.035.495 2.655.315 3.735.9v9.226c-1.395 1.98-1.62 3.42-3.556 3.781-10.351 2.655-23.222-4.456-20.702-18.407 3.602-20.299 18.048-23.135 36.726-25.385z" fill="#cd3529" stroke="#000" stroke-width=".18"/><path d="M56.211 91.844c-3.24-5.176-1.125-10.036 6.571-9.676 3.645 4.14 3.42 9.991.089 14.896-2.34.27-3.69-.9-4.23-3.465 2.205 1.26 4.995.675 4.23-4.006-.134-1.349-4.454-2.835-6.66 2.251z" fill="none" stroke="#000" stroke-width=".135"/><path d="M61.477 94.184c-.631-.72-2.566-1.26-2.07-2.161.54-1.035 2.295-.359 3.465-.585.36.99-.045 1.89-1.395 2.746z" fill="#cd3529" stroke="#000" stroke-width=".135"/><path d="M137.895 33.653c0 1.98-.359 3.735-1.035 5.265-.63 1.62-1.801 3.105-3.015 4.275-1.216 1.305-2.836 2.385-4.457 3.105-1.799.675-3.6 1.035-5.58 1.035-1.799 0-3.78-.315-5.49-1.125-1.575-.765-3.105-2.16-4.411-3.78-1.26-1.531-2.385-3.511-3.016-5.626-.63-2.07-.99-4.321-.99-6.841 0-2.385.36-4.68.99-6.706.63-1.981 1.62-3.646 3.016-5.041 1.215-1.216 2.836-2.161 4.411-2.566 1.71-.36 3.601-.495 5.49 0 1.98.541 3.961 1.621 5.58 2.791 1.665 1.169 3.287 2.79 4.546 4.41a17.755 17.755 0 0 1 2.926 5.22 15.92 15.92 0 0 1 1.035 5.584z"/><path d="M123.808 37.478c1.35.09 2.566-.225 3.466-1.26.72-.9 1.215-2.205 1.215-3.916 0-1.665-.45-3.241-1.215-4.365-.9-1.261-2.025-2.116-3.466-2.385-1.26-.27-2.43.225-3.285 1.26-.765.9-1.169 2.476-1.169 4.275 0 1.845.405 3.375 1.169 4.456.855 1.214 1.98 1.935 3.285 1.935z" fill="#fff"/><path d="M81.099 46.614a3604.75 3604.75 0 0 0 4.681-18.092c1.53-5.896 3.151-11.882 4.726-17.777 3.465.405 6.93.72 10.44 1.215a2480.77 2480.77 0 0 0 4.456 17.687c1.44 5.761 2.971 11.431 4.5 17.013-3.285 0-6.616 0-9.947-.045-.315-1.485-.584-3.016-.899-4.501l-6.976-.134c-.27 1.53-.539 3.104-.81 4.635l-10.171-.001z"/><path d="M93.61 33.517c1.215.045 2.521.09 3.916.136a43.873 43.873 0 0 1-.765-3.96c-.405-2.071-.721-3.601-.9-4.771-.135-.99-.226-2.07-.226-2.97h-.225c0 .9-.134 1.89-.18 2.97-.135 1.081-.405 2.655-.765 4.636-.179 1.349-.584 2.654-.855 3.959z" fill="#fff"/><path d="M70.028 46.614V28.387 10.16c3.15-.09 6.255-.045 9.406.045v36.409h-9.406zM39.199 46.659V29.872 13.085c3.015-.495 6.031-.9 9.046-1.35a379.798 379.798 0 0 1 4.051 8.821c1.35 3.015 2.745 5.985 4.096 9.046a56.382 56.382 0 0 1-.181-2.835c-.045-.9-.135-2.295-.135-3.916V16.91v-6.03c3.016-.225 6.031-.405 9.136-.585v36.319h-9.271c-1.305-3.061-2.7-6.121-3.96-9.136-1.305-2.97-2.61-5.985-3.916-8.956.135.765.18 1.62.18 2.52 0 .81.136 1.845.136 3.06v12.511c-3.061.046-6.121.046-9.182.046zM10.396 34.417v-7.246-7.245c3.15-.946 6.3-1.846 9.451-2.655V33.202c0 1.8.18 3.195.54 3.781.36.63 1.035 1.035 1.98.945.855-.045 1.531-.495 1.98-1.305.405-.811.541-2.161.541-4.051v-8.281-8.326l9.45-2.024V31.628c0 2.34-.09 4.14-.315 5.625-.225 1.53-.765 2.88-1.215 3.825-1.035 2.07-2.476 3.69-4.275 4.681a12.535 12.535 0 0 1-6.166 1.576c-2.295 0-4.365-.496-6.255-1.396a10.294 10.294 0 0 1-4.275-3.826c-.45-.719-.9-1.8-1.08-3.015a30.427 30.427 0 0 1-.361-4.681zM118.093 207.956c.449-1.305.81-2.655 1.215-3.96.36-1.305.81-2.655 1.215-4.05 1.125.81 2.161 1.62 2.881 1.935.9.361 1.754.585 2.43.495.495-.045.899-.405 1.17-.72.36-.315.63-.72.63-1.216 0-.81-.856-1.484-2.34-1.574-.496 0-.9-.136-1.171-.181-1.529-.27-2.834-1.08-3.6-2.206-.765-1.169-1.215-2.745-1.215-4.77 0-2.926.854-5.67 2.43-8.146 1.576-2.429 3.826-4.59 6.436-5.805 1.17-.54 2.431-.855 3.555-.945a8.942 8.942 0 0 1 3.601.315c-.36 1.755-.765 3.556-1.125 5.221a200.239 200.239 0 0 1-1.17 5.041c-.809-.63-1.485-1.08-2.295-1.26-.63-.135-1.485-.09-2.206.18-.45.179-.944.54-1.26.945-.27.315-.405.63-.405 1.17 0 .9 1.081 1.35 3.285 1.35.315 0 .585.044.766.044 1.35-.044 2.655.675 3.42 1.98.854 1.486 1.305 3.511 1.305 5.896 0 1.935-.27 3.734-.675 5.4a13.12 13.12 0 0 1-1.936 4.32c-1.621 2.385-3.825 3.51-6.571 3.51-1.35 0-2.79-.18-4.23-.675-1.259-.494-2.7-1.304-4.14-2.294zM123.719 58.315c0 .99-.181 1.89-.495 2.7-.315.81-.9 1.62-1.575 2.25-.585.63-1.35 1.125-2.251 1.485-.9.315-1.799.495-2.79.495s-1.89-.18-2.791-.495a9.087 9.087 0 0 1-2.295-1.485c-.675-.63-1.125-1.44-1.484-2.25a7.394 7.394 0 0 1-.496-2.7c0-.99.181-1.935.496-2.745.36-.855.81-1.575 1.484-2.206.72-.63 1.486-1.125 2.295-1.44.9-.36 1.755-.585 2.791-.585.99 0 1.935.225 2.79.585.901.315 1.666.81 2.296 1.44.675.63 1.215 1.351 1.53 2.206.314.81.495 1.755.495 2.745zM94.916 64.976l4.77-13.277h5.311l4.545 13.277h-5.041l-.45-1.71h-3.554l-.361 1.71zM95.095 58.315c0 .99-.18 1.89-.495 2.7-.271.81-.855 1.62-1.531 2.25-.585.63-1.35 1.125-2.25 1.485a8.275 8.275 0 0 1-2.791.495c-.945 0-1.89-.18-2.79-.495a8.129 8.129 0 0 1-2.251-1.485c-.675-.63-1.17-1.44-1.485-2.25-.36-.81-.54-1.71-.54-2.7 0-.99.18-1.935.54-2.745a5.642 5.642 0 0 1 1.485-2.206 7.09 7.09 0 0 1 2.251-1.44c.9-.36 1.799-.585 2.79-.585.99 0 1.936.225 2.791.585.9.315 1.665.81 2.295 1.44.675.63 1.214 1.351 1.485 2.206.317.81.496 1.755.496 2.745zM74.483 58.9v-7.201h4.771v8.506c0 .765-.091 1.395-.136 1.8-.09.405-.315.81-.494 1.17a3.786 3.786 0 0 1-1.666 1.485c-.63.405-1.351.585-2.205.585a7.801 7.801 0 0 1-2.161-.315c-.675-.27-1.305-.675-1.89-1.125l1.53-3.601c.27.315.496.54.721.676.27.089.45.179.63.179.36 0 .63-.135.72-.36.09-.314.18-.854.18-1.799zM63.727 58.315c0 .99-.135 1.89-.495 2.7a6.26 6.26 0 0 1-1.53 2.25c-.585.63-1.396 1.125-2.295 1.485a7.892 7.892 0 0 1-2.791.495c-.945 0-1.89-.18-2.746-.495-.81-.36-1.62-.855-2.295-1.485-.675-.63-1.17-1.44-1.485-2.25s-.496-1.71-.496-2.7c0-.99.181-1.935.496-2.745a5.642 5.642 0 0 1 1.485-2.206 7.289 7.289 0 0 1 2.295-1.44c.855-.36 1.755-.585 2.746-.585a6.87 6.87 0 0 1 2.791.585c.9.315 1.71.81 2.34 1.44a5.635 5.635 0 0 1 1.485 2.206c.36.81.495 1.755.495 2.745zM34.969 64.976l4.77-13.277h5.266l4.59 13.277H44.51l-.406-1.71h-3.6l-.36 1.71zM24.303 63.806l1.485-3.646c.72.405 1.35.811 1.845.991.54.18 1.08.36 1.485.36.36 0 .63-.09.811-.226.225-.135.315-.27.315-.495 0-.361-.496-.631-1.44-.811-.315-.09-.54-.135-.72-.18-.99-.225-1.755-.674-2.295-1.26-.496-.63-.766-1.44-.766-2.385 0-1.351.496-2.521 1.53-3.421 1.036-.9 2.386-1.395 4.095-1.395.676 0 1.485.09 2.206.36.765.135 1.531.45 2.295.855l-1.485 3.555c-.495-.45-.9-.675-1.44-.854-.405-.18-.946-.315-1.35-.315-.36 0-.63.135-.765.27-.18.09-.315.18-.315.405 0 .405.675.72 2.07 1.035.18.045.36.09.495.09.9.179 1.621.585 2.16 1.215.496.63.766 1.44.766 2.34 0 1.44-.541 2.655-1.62 3.556-1.035.945-2.431 1.395-4.141 1.395-.811 0-1.71-.135-2.61-.315-.811-.315-1.711-.675-2.611-1.124zM45.5 48.594c-.179.766-.495 1.396-.81 1.71-.315.36-.72.54-1.215.54h-.315c-.135 0-.315-.045-.405-.09l-.855-.225c-.09 0-.225-.09-.315-.09h-.27c-.226 0-.36.09-.496.18-.089.045-.225.315-.36.54h-1.035c.18-.766.405-1.351.72-1.755.315-.405.72-.585 1.216-.585h.405c.089.09.269.09.449.135l.811.225c.135.09.18.09.315.09.045 0 .135.045.225.045.18 0 .36-.135.54-.226.09-.134.18-.27.27-.495H45.5zM105.401 48.819c-.18.765-.451 1.395-.81 1.665-.315.405-.72.585-1.17.585h-.36a1.07 1.07 0 0 1-.405-.09l-.854-.225c-.045 0-.225-.09-.315-.09s-.226-.045-.27-.045c-.225 0-.36.135-.496.225-.09.045-.224.315-.36.495h-.99c.136-.765.36-1.305.72-1.71.27-.406.675-.585 1.169-.585h.405c.136.09.271.09.451.135l.809.226c.136.089.181.089.316.089.045 0 .18.045.225.045.18 0 .36-.135.54-.225.136-.135.225-.315.271-.495h1.124zM100.901 8.18c-.45 1.035-.99 1.89-1.576 2.205-.494.495-1.125.63-1.799.495-.181 0-.315-.045-.496-.045-.18-.045-.405-.135-.494-.226l-1.171-.495c-.135-.045-.36-.18-.45-.225-.135 0-.315-.09-.36-.09-.27-.09-.541.09-.72.18-.136 0-.405.36-.63.63l-1.44-.27c.45-1.035.854-1.754 1.44-2.295.494-.45 1.08-.585 1.799-.495.181.044.405.089.541.089.134.181.36.226.63.315l1.08.496c.18.135.225.135.404.18.045 0 .226.09.36.135.225.045.496-.135.765-.18.225-.18.36-.405.54-.676l1.577.272z"/><path d="M77.228 123.482c10.622 0 19.217 8.641 19.217 19.262 0 10.576-8.596 19.262-19.217 19.262-10.576 0-19.262-8.686-19.262-19.262 0-10.621 8.686-19.262 19.262-19.262z" fill="#fff"/><path stroke="#000" stroke-width=".135" d="M79.344 134.823l6.075 7.201-4.95 8.191-9.361-2.295-.675-9.496zM92.935 146.479l-.226-.135-.134.135-2.07-4.77 1.305-5.131.36-.045-1.35 5.131z"/><path stroke="#000" stroke-width=".135" d="M90.505 141.528v.181l.045.18-5.176.225.136-.135-.091-.044zM85.824 128.972l-.18.225-5.175.63-4.276-2.789v-.315l4.321 2.834z"/><path stroke="#000" stroke-width=".135" d="M80.333 129.693l.136.134h.18l-1.215 4.996h-.09l-.135.045zM62.512 148.73l.27-.089 4.455 2.428 1.801 4.906-.18.36-1.891-5.04z"/><path stroke="#000" stroke-width=".135" d="M67.282 151.25l-.045-.181-.134-.09 4.005-3.329v.27l.045.089zM67.282 130.683l.27-.135-1.125 5.4-4.276 3.331v-.27l4.006-3.285z"/><path stroke="#000" stroke-width=".135" d="M66.292 135.993l.18-.09.045-.135 3.961 2.611-.09-.046.045.271zM78.534 158.63v-.27l-.091-.045 3.781-3.464 5.4-.181-.089.135.134.136-5.356.225z"/><path stroke="#000" stroke-width=".135" d="M82.359 154.896l-.135-.045-.045.134-1.846-4.77h.136l.09-.045zM64.942 128.028c2.881-2.61 7.201-4.501 11.072-4.501l.179 3.511-8.911 3.645-2.34-2.655zM59.542 150.035c-1.62-3.465-2.07-8.1-.855-11.926l3.465.9.631 9.632-3.241 1.394zM78.894 161.916c-3.961.404-8.416-.54-11.657-2.925l1.8-2.971 9.496 2.34.361 3.556zM96.131 147.29c-.855 3.825-3.151 7.876-6.346 10.171l-2.25-2.655 5.22-8.371 3.376.855zM87.535 126.138c3.285 1.979 6.48 5.49 7.561 9.18l-3.285 1.26-6.076-7.381 1.8-3.059zM64.942 128.028l.09.134c-2.61 2.07-5.716 6.841-6.21 9.947h-.135c.449-3.196 3.555-8.147 6.255-10.081z"/><path d="M59.542 150.035l.18-.089c1.125 3.149 4.726 7.515 7.651 8.911l-.135.135c-2.881-1.307-6.616-5.806-7.696-8.957zM78.894 161.916l-.045-.18c3.331-.089 8.596-2.069 10.802-4.366l.134.09c-2.25 2.341-7.606 4.321-10.891 4.456zM96.131 147.29l-.36-.044c.99-3.151.63-8.776-.855-11.836l.18-.09c1.529 3.059 1.934 8.819 1.035 11.97zM87.535 126.138l-.181.224c-2.7-1.935-8.055-3.105-11.296-2.7l-.044-.135c3.554-.45 8.82.675 11.521 2.611z" stroke="#000" stroke-width=".135"/><path d="M58.866 134.868c3.421 1.171 4.5.315 7.021 0-2.61-1.62-3.105-1.034-4.41-4.14-1.395 1.35-1.891 2.43-2.611 4.14zM79.839 122.941c.09 2.207-.584 4.411-1.396 6.616 2.521-1.215 4.771-2.88 6.526-5.22-1.62-.855-3.329-1.396-5.13-1.396z"/><path d="M116.608 60.925c.72 0 1.305-.225 1.71-.72.405-.45.585-1.08.585-1.845 0-.765-.18-1.44-.585-1.89a2.155 2.155 0 0 0-1.71-.811c-.675 0-1.215.315-1.71.811-.36.449-.585 1.125-.585 1.89 0 .766.225 1.396.585 1.845.495.495 1.035.72 1.71.72zM101.26 60.07h2.026l-.405-1.485c-.226-.811-.315-1.35-.45-1.8-.044-.405-.09-.766-.09-1.125h-.135c0 .36-.044.72-.135 1.125-.045.45-.225.989-.36 1.8l-.451 1.485zM88.029 60.925c.72 0 1.306-.225 1.71-.72.405-.45.63-1.08.63-1.845 0-.765-.225-1.44-.63-1.89a2.154 2.154 0 0 0-1.71-.811c-.675 0-1.215.315-1.665.811-.405.449-.63 1.125-.63 1.89 0 .766.225 1.396.63 1.845.45.495.99.72 1.665.72zM56.616 60.925c.72 0 1.305-.225 1.755-.72.405-.45.585-1.08.585-1.845 0-.765-.18-1.44-.585-1.89-.45-.496-1.035-.811-1.755-.811-.63 0-1.17.315-1.665.811-.36.449-.585 1.125-.585 1.89 0 .766.225 1.396.585 1.845.495.495 1.035.72 1.665.72zM41.315 60.07h2.025l-.405-1.485c-.27-.811-.36-1.35-.45-1.8-.045-.405-.135-.766-.135-1.125h-.09c0 .36-.045.72-.135 1.125-.045.45-.225.989-.359 1.8l-.451 1.485z" fill="#fff"/><path fill="#fff" stroke="#000" stroke-width=".18" d="M66.967 85.183l.541 2.475 4.635-.72z"/><path d="M95.591 210.477c1.26-3.781 2.565-7.65 3.78-11.566 1.26-3.96 2.521-8.146 3.826-12.331a199.582 199.582 0 0 0 8.326-1.936 523.417 523.417 0 0 1 3.601 12.376c1.215 4.275 2.43 8.776 3.645 13.321-2.7.045-5.4.045-8.055.045-.226-1.035-.451-2.159-.72-3.285-1.846.091-3.736.135-5.58.225a64.015 64.015 0 0 1-.631 3.105c-2.747 0-5.448.046-8.192.046zm10.035-9.047c1.035-.044 2.07-.134 3.195-.224-.225-.946-.45-1.936-.63-2.791a43.168 43.168 0 0 1-.72-3.241c-.045-.675-.18-1.439-.18-2.025-.045.045-.09.045-.135.045 0 .584-.135 1.305-.225 2.07-.09.765-.27 1.936-.584 3.375-.18.946-.495 1.891-.721 2.791z"/><path d="M77.634 210.477v-10.531-10.576c3.194-.135 6.435-.271 9.585-.541 2.656-.225 4.815.045 6.21 1.215 1.35 1.08 2.071 2.926 2.071 5.311 0 1.576-.36 2.971-1.036 4.05-.675 1.081-1.665 1.666-2.925 1.936.944 1.486 1.89 2.97 2.834 4.501.901 1.484 1.801 3.06 2.791 4.635h-8.506a64.606 64.606 0 0 1-1.755-3.556c-.541-1.17-1.125-2.385-1.665-3.6V210.477h-7.604zm7.606-15.887v3.96a8.743 8.743 0 0 1 1.125-.089 2.7 2.7 0 0 0 1.531-.495c.404-.405.584-.856.584-1.53 0-.675-.18-1.17-.495-1.485-.45-.405-1.035-.496-1.62-.45a8.399 8.399 0 0 0-1.125.089zM53.016 210.477c1.26-3.781 2.52-7.516 3.78-11.162 1.215-3.555 2.521-7.156 3.781-10.711 2.835.36 5.58.63 8.416.765 1.171 3.555 2.476 7.11 3.601 10.576 1.215 3.511 2.431 7.065 3.645 10.577-2.699-.045-5.354-.045-8.056-.045-.27-.9-.45-1.801-.674-2.7-1.891 0-3.826-.045-5.671-.09-.225.945-.45 1.846-.585 2.791l-8.237-.001zm10.036-7.921a77.92 77.92 0 0 0 3.195.089c-.18-.81-.405-1.666-.63-2.43a55.899 55.899 0 0 1-.675-2.835c-.09-.675-.18-1.306-.18-1.801-.09 0-.18 0-.226-.045 0 .495-.089 1.125-.134 1.8-.09.63-.315 1.62-.63 2.791-.135.811-.45 1.621-.72 2.431z"/><path d="M35.014 210.386V196.84v-13.501c3.195.854 6.435 1.755 9.631 2.475 2.61.586 4.77 1.621 6.165 3.241 1.396 1.575 2.116 3.556 2.116 5.985 0 1.621-.36 3.015-1.035 3.96-.675 1.035-1.71 1.53-2.925 1.62.9 1.666 1.845 3.42 2.79 5.041.9 1.621 1.936 3.24 2.881 4.816-2.881-.045-5.716-.045-8.596-.045a289.47 289.47 0 0 0-1.71-4.141 108.252 108.252 0 0 0-1.755-4.23V210.432c-2.477-.046-5.042-.046-7.562-.046zm7.561-18.587v4.681c.405.046.811.09 1.17.09.63.045 1.215 0 1.485-.27.496-.36.63-.856.63-1.576 0-.81-.134-1.395-.54-1.845-.36-.451-.99-.72-1.576-.855-.359-.044-.764-.135-1.169-.225zM10.441 210.251c1.26-5.76 2.52-11.431 3.735-16.876 1.26-5.311 2.565-10.486 3.825-15.482l8.371 2.836c1.215 5.265 2.475 10.395 3.645 15.39a716.911 716.911 0 0 0 3.601 14.222h-8.056a65.087 65.087 0 0 0-.675-3.916c-1.846-.09-3.736-.18-5.671-.27-.18 1.35-.36 2.745-.585 4.14-2.745.001-5.444-.044-8.19-.044zm10.037-11.566c1.035.135 2.115.27 3.195.405-.225-1.17-.45-2.43-.63-3.556-.315-1.89-.585-3.195-.72-4.275-.089-.901-.18-1.846-.18-2.61-.045 0-.135-.045-.18-.045 0 .765-.135 1.62-.181 2.565-.09.945-.315 2.296-.585 4.051-.18 1.17-.495 2.295-.719 3.465z"/></svg>