<svg xmlns="http://www.w3.org/2000/svg" width="2500" height="2500" viewBox="0 0 192.756 192.756"><g fill-rule="evenodd" clip-rule="evenodd"><path fill="#fff" d="M0 0h192.756v192.756H0V0z"/><path d="M3.351 146.154v-13.182H5.13v13.182H3.351zm3.998 0v-8.857h1.606v.885c.215-.324.481-.567.792-.73a2.28 2.28 0 0 1 1.079-.243c.65 0 1.134.182 1.448.542.317.361.475.912.475 1.652v6.752h-1.633v-5.947c0-.602-.078-1.012-.235-1.23-.157-.216-.428-.323-.813-.323-.361 0-.635.113-.82.339-.182.226-.274.561-.274 1.004v6.158H7.349v-.002zm7.468 0v-7.655h-.885v-1.202h.885v-2.4h1.624v2.4h1.22v1.202h-1.22v7.655h-1.624zm5.025-5.399h2.481v-.226c0-.729-.096-1.253-.29-1.58-.191-.324-.502-.487-.927-.487-.417 0-.731.194-.943.583-.212.388-.321.958-.321 1.71zm3.964 2.437v.118c0 .934-.234 1.667-.706 2.203-.468.536-1.11.805-1.923.805-.992 0-1.72-.37-2.179-1.107-.459-.736-.69-1.916-.69-3.535 0-1.521.231-2.662.69-3.414.459-.752 1.155-1.128 2.089-1.128.993 0 1.71.343 2.148 1.026.441.681.659 1.8.659 3.353v.515h-4.053v.262c0 .929.105 1.6.315 2.02.212.419.544.629 1.001.629.367 0 .646-.145.835-.436.191-.289.293-.721.312-1.3l1.502-.011zm2.937-1.478c0 1.138.093 1.932.281 2.388.185.453.5.682.94.682.438 0 .751-.229.939-.682.186-.456.281-1.25.281-2.388 0-1.134-.096-1.927-.281-2.383-.188-.452-.502-.681-.939-.681-.44 0-.755.229-.94.681-.189.456-.281 1.249-.281 2.383zm4.009 4.647c0 1.223-.226 2.09-.672 2.598-.45.509-1.199.762-2.246.762-.861 0-1.52-.219-1.977-.653-.459-.438-.687-1.063-.687-1.874v-.28h1.544c.019.48.12.841.302 1.075.185.234.462.352.838.352.45 0 .777-.143.974-.426.201-.28.299-.746.299-1.39v-1.255c-.222.349-.478.607-.765.777-.284.17-.613.253-.989.253-.779 0-1.355-.374-1.723-1.116-.367-.743-.552-1.901-.552-3.47 0-1.565.185-2.722.552-3.464.367-.743.943-1.116 1.723-1.116.382 0 .715.08.999.243.286.164.539.42.755.768v-.848h1.624v9.064h.001zm1.967-.207v-8.857h1.568v1.292c.225-.469.509-.823.86-1.061.349-.24.777-.369 1.282-.395v1.717h-.271c-.632 0-1.098.157-1.391.475-.296.314-.443.811-.443 1.485v5.344h-1.605zm8.651 0v-.865c-.222.354-.477.615-.764.779-.284.166-.613.25-.99.25-.746 0-1.31-.389-1.695-1.165-.385-.777-.58-1.923-.58-3.439 0-1.507.191-2.645.574-3.418.382-.773.949-1.162 1.701-1.162.382 0 .715.08.999.243.287.164.54.42.755.768v-.848h1.624v8.857H41.37zm-2.385-4.44c0 1.131.096 1.929.283 2.392.192.465.502.696.938.696.434 0 .746-.234.934-.7.191-.468.286-1.263.286-2.388 0-1.134-.095-1.927-.28-2.383-.188-.452-.502-.681-.94-.681-.441 0-.755.229-.94.681-.189.456-.281 1.249-.281 2.383zm6.047 4.44v-7.655h-.885v-1.202h.885v-2.4h1.624v2.4h1.221v1.202h-1.221v7.655h-1.624zm5.026-5.399h2.481v-.226c0-.729-.096-1.253-.29-1.58-.19-.324-.502-.487-.927-.487-.417 0-.73.194-.943.583-.213.388-.321.958-.321 1.71zm3.963 2.437v.118c0 .934-.234 1.667-.706 2.203-.468.536-1.109.805-1.923.805-.992 0-1.72-.37-2.179-1.107-.459-.736-.69-1.916-.69-3.535 0-1.521.231-2.662.69-3.414s1.156-1.128 2.09-1.128c.992 0 1.71.343 2.147 1.026.441.681.659 1.8.659 3.353v.515h-4.052v.262c0 .929.105 1.6.315 2.02.212.419.545.629 1.001.629.367 0 .646-.145.834-.436.191-.289.293-.721.312-1.3l1.502-.011zm2.937-1.454c0 1.135.092 1.926.281 2.383.185.452.499.681.939.681.438 0 .752-.229.94-.681.185-.457.281-1.248.281-2.383 0-1.138-.096-1.933-.281-2.389-.188-.453-.502-.682-.94-.682-.44 0-.755.229-.939.682-.189.457-.281 1.252-.281 2.389zm2.385 4.416v-.865c-.222.354-.478.615-.764.779-.284.166-.613.25-.99.25-.779 0-1.355-.373-1.722-1.116-.368-.742-.552-1.898-.552-3.464 0-1.568.185-2.728.552-3.471.367-.742.943-1.115 1.722-1.115.383 0 .716.08.999.243.287.163.539.42.755.768v-6.003h1.624v13.994h-1.624zm6.968-2.31c.422.258.811.449 1.165.573.354.123.69.185 1.002.185.542 0 .974-.157 1.294-.475.317-.314.478-.736.478-1.267 0-.776-.61-1.665-1.833-2.663-.145-.12-.253-.213-.327-.271-.78-.645-1.329-1.241-1.643-1.793a3.7 3.7 0 0 1-.468-1.855c0-.992.318-1.821.949-2.484.631-.662 1.415-.992 2.348-.992.41 0 .805.049 1.184.145s.755.247 1.128.45v1.772a4.253 4.253 0 0 0-1.008-.54 2.865 2.865 0 0 0-.971-.175c-.561 0-1.007.163-1.347.492-.336.327-.505.765-.505 1.313 0 .758.647 1.655 1.941 2.69.121.099.216.169.281.219.752.607 1.286 1.189 1.6 1.75.311.562.468 1.203.468 1.924 0 1.011-.324 1.843-.967 2.496-.645.653-1.468.98-2.476.98-.366 0-.739-.057-1.118-.164a5.59 5.59 0 0 1-1.175-.496v-1.814zm8.476-2.149c0 1.085.107 1.877.32 2.379.216.502.552.755 1.008.755.466 0 .808-.253 1.026-.758s.33-1.298.33-2.376c0-1.073-.111-1.862-.33-2.367-.219-.506-.561-.758-1.026-.758-.456 0-.792.252-1.008.755-.212.502-.32 1.291-.32 2.37zm-1.652.019c0-1.495.256-2.632.764-3.412.509-.779 1.245-1.168 2.216-1.168s1.707.389 2.216 1.168c.508.78.764 1.917.764 3.412 0 1.504-.256 2.647-.764 3.431-.509.781-1.246 1.174-2.216 1.174s-1.707-.393-2.216-1.174c-.508-.784-.764-1.927-.764-3.431zm7.658 4.44v-7.603h-.885v-1.255h.885v-3.106c0-.687.169-1.229.511-1.627.339-.397.804-.595 1.393-.595.139 0 .296.016.472.05.172.033.37.085.586.156v1.483a1.967 1.967 0 0 0-.614-.118c-.246 0-.428.071-.539.213s-.167.37-.167.682v2.862h1.22v1.255h-1.22v7.603h-1.642zm4.013 0v-7.655h-.884v-1.202h.884v-2.4h1.624v2.4h1.221v1.202H86.43v7.655h-1.624zm7.726-4.351a38.536 38.536 0 0 1-.234-1.896c-.037.38-.074.73-.114 1.054a10.78 10.78 0 0 1-.13.852l-.795 4.342h-1.146l-2.05-8.857h1.59l.848 4.543c.043.24.08.509.117.802.037.296.077.656.126 1.084a31.934 31.934 0 0 1 .234-1.877l.795-4.552h1.057l.813 4.552c.059.312.129.882.207 1.705.006.073.012.129.018.172.031-.36.065-.705.107-1.028.043-.327.087-.607.136-.849l.829-4.552h1.608l-2.077 8.857h-1.146l-.793-4.352zm9.007 4.351v-.865c-.221.354-.477.615-.764.779-.283.166-.613.25-.988.25-.746 0-1.311-.389-1.695-1.165-.385-.777-.58-1.923-.58-3.439 0-1.507.191-2.645.574-3.418.381-.773.949-1.162 1.701-1.162.381 0 .715.08.998.243.287.164.539.42.754.768v-.848h1.625v8.857h-1.625zm-2.385-4.44c0 1.131.096 1.929.283 2.392.191.465.504.696.938.696s.746-.234.934-.7c.191-.468.287-1.263.287-2.388 0-1.134-.096-1.927-.281-2.383-.188-.452-.502-.681-.939-.681-.441 0-.754.229-.939.681-.189.456-.283 1.249-.283 2.383zm5.977 4.44v-8.857h1.568v1.292c.225-.469.51-.823.859-1.061.348-.24.777-.369 1.283-.395v1.717h-.271c-.633 0-1.098.157-1.391.475-.295.314-.443.811-.443 1.485v5.344h-1.605zm6.058-5.399h2.48v-.226c0-.729-.094-1.253-.289-1.58-.191-.324-.502-.487-.928-.487-.416 0-.73.194-.943.583-.21.388-.32.958-.32 1.71zm3.963 2.437v.118c0 .934-.232 1.667-.705 2.203-.469.536-1.109.805-1.922.805-.994 0-1.721-.37-2.18-1.107-.459-.736-.691-1.916-.691-3.535 0-1.521.232-2.662.691-3.414s1.156-1.128 2.09-1.128c.992 0 1.711.343 2.148 1.026.439.681.658 1.8.658 3.353v.515h-4.053v.262c0 .929.105 1.6.314 2.02.213.419.545.629 1.002.629.367 0 .646-.145.836-.436.189-.289.293-.721.311-1.3l1.501-.011zm1.403 2.134c0-.291.1-.533.293-.737a.983.983 0 0 1 .729-.302c.283 0 .523.102.727.302.201.204.303.446.303.737a.97.97 0 0 1-.299.718c-.197.194-.441.292-.73.292a1 1 0 0 1-1.023-1.01zm8.873.828l-2.213-13.182h1.754l1.281 9.021 1.535-9.021h1.451l1.555 9.021 1.266-9.021h1.75l-2.193 13.182h-1.465l-1.633-9.354-1.643 9.354h-1.445zM135.479 141.695c0 1.085.107 1.877.32 2.379.215.502.551.755 1.008.755.465 0 .807-.253 1.025-.758s.33-1.298.33-2.376c0-1.073-.111-1.862-.33-2.367-.219-.506-.561-.758-1.025-.758-.457 0-.793.252-1.008.755-.213.502-.32 1.291-.32 2.37zm-1.653.019c0-1.495.256-2.632.764-3.412.51-.779 1.246-1.168 2.217-1.168s1.707.389 2.215 1.168c.51.78.766 1.917.766 3.412 0 1.504-.256 2.647-.766 3.431-.508.781-1.244 1.174-2.215 1.174s-1.707-.393-2.217-1.174c-.508-.784-.764-1.927-.764-3.431zm7.569 4.44v-8.857h1.568v1.292c.225-.469.51-.823.859-1.061.35-.24.777-.369 1.283-.395v1.717h-.271c-.631 0-1.098.157-1.391.475-.295.314-.443.811-.443 1.485v5.344h-1.605zm5.011 0V132.16h1.625v13.994h-1.625zm4.953-4.416c0 1.135.092 1.926.279 2.383.186.452.5.681.941.681.438 0 .75-.229.939-.681.186-.457.281-1.248.281-2.383 0-1.138-.096-1.933-.281-2.389-.189-.453-.502-.682-.939-.682-.441 0-.756.229-.941.682-.187.457-.279 1.252-.279 2.389zm2.385 4.416v-.865c-.221.354-.477.615-.764.779-.283.166-.613.25-.99.25-.779 0-1.355-.373-1.723-1.116-.367-.742-.551-1.898-.551-3.464 0-1.568.184-2.728.551-3.471.367-.742.943-1.115 1.723-1.115.383 0 .715.08 1 .243s.539.42.754.768v-6.003h1.625v13.994h-1.625zm7.338-4.351a21.419 21.419 0 0 1-.111-.798c-.039-.305-.08-.672-.123-1.098a37.6 37.6 0 0 1-.113 1.054 11.85 11.85 0 0 1-.129.852l-.795 4.342h-1.146l-2.051-8.857h1.592l.846 4.543c.045.24.08.509.117.802.037.296.078.656.127 1.084.043-.434.084-.801.123-1.103.037-.299.074-.559.111-.774l.795-4.552h1.057l.814 4.552c.059.312.129.882.207 1.705.006.073.012.129.018.172.031-.36.064-.705.107-1.028.043-.327.086-.607.137-.849l.828-4.552h1.609l-2.078 8.857h-1.146l-.796-4.352zm5.141-7.151c0-.295.1-.545.301-.748a.972.972 0 0 1 .738-.309c.289 0 .533.102.73.309.201.203.299.453.299.748 0 .29-.102.533-.303.736a.995.995 0 0 1-.727.303.986.986 0 0 1-.738-.299.993.993 0 0 1-.3-.74zm.228 11.502v-8.857h1.625v8.857h-1.625zm4.953-4.416c0 1.135.092 1.926.281 2.383.184.452.498.681.939.681.438 0 .752-.229.939-.681.186-.457.281-1.248.281-2.383 0-1.138-.096-1.933-.281-2.389-.188-.453-.502-.682-.939-.682-.441 0-.756.229-.939.682-.189.457-.281 1.252-.281 2.389zm2.385 4.416v-.865c-.221.354-.477.615-.764.779-.283.166-.613.25-.99.25-.779 0-1.355-.373-1.723-1.116-.367-.742-.551-1.898-.551-3.464 0-1.568.184-2.728.551-3.471.367-.742.943-1.115 1.723-1.115.383 0 .717.08 1 .243.285.163.539.42.754.768v-6.003h1.625v13.994h-1.625zm4.639-5.399h2.48v-.226c0-.729-.096-1.253-.289-1.58-.191-.324-.502-.487-.928-.487-.416 0-.73.194-.943.583-.213.388-.32.958-.32 1.71zm3.963 2.437v.118c0 .934-.234 1.667-.705 2.203-.469.536-1.109.805-1.924.805-.992 0-1.719-.37-2.178-1.107-.459-.736-.691-1.916-.691-3.535 0-1.521.232-2.662.691-3.414s1.156-1.128 2.09-1.128c.992 0 1.709.343 2.146 1.026.441.681.66 1.8.66 3.353v.515h-4.053v.262c0 .929.105 1.6.314 2.02.213.419.545.629 1.002.629.367 0 .646-.145.834-.436.191-.289.295-.721.312-1.3l1.502-.011zM182.004 135.847c.211.128.402.224.578.284.176.062.342.092.496.092.27 0 .482-.078.643-.235.156-.156.236-.365.236-.628 0-.385-.303-.824-.908-1.319l-.162-.134c-.387-.319-.658-.616-.814-.889a1.838 1.838 0 0 1-.232-.92c0-.491.158-.902.471-1.23a1.539 1.539 0 0 1 1.164-.492 2.347 2.347 0 0 1 1.145.295v.878a2.143 2.143 0 0 0-.5-.267 1.387 1.387 0 0 0-.48-.088c-.277 0-.5.082-.666.245-.168.162-.252.378-.252.65 0 .375.32.82.963 1.333.059.049.107.084.139.108.373.301.637.589.793.867.154.278.232.596.232.953 0 .501-.16.913-.48 1.237-.318.324-.727.485-1.227.485-.182 0-.365-.028-.555-.081a2.81 2.81 0 0 1-.582-.246v-.898h-.002zm3.43 1.145l.559-6.531h.799l.885 4.523.908-4.523h.77l.568 6.531h-.814l-.264-4.581-.873 4.581h-.596l-.871-4.581-.266 4.581h-.805z"/><path fill="#234b8d" d="M3.334 43.036h76.465V119.5H3.334V43.036z"/><path d="M63.64 111.671h5.831c8.996 0 10.495-7.497 10.329-9.663-.667-5.164-4.498-8.496-9.995-8.496h-14.66v26.654h8.496v-8.495h-.001zm0-6.331v-5.664h3.499c3.165 0 4.332.667 4.332 2.666 0 .999 0 2.998-3.332 2.998H63.64z" fill="#fff"/><path d="M36.652 114.503h8.663l1.999 5.663h8.996L46.148 93.512H35.986l-10.329 26.654h8.83l2.165-5.663zm4.665-13.66l2.832 8.162h-5.831l2.999-8.162z" fill="#fff"/><path d="M2.834 111.671v1.665c0 5.331 6.497 7.164 12.661 7.164 8.33 0 13.161-2.832 13.161-8.829 0-9.329-16.492-6.331-16.492-11.995 0-1.832 1.5-2.665 3.832-2.665 1.5 0 1.999.333 2.499.833 1 .5 1 1.499 1 2.832h8.829v-.666c0-3.999-3.499-7.164-12.328-7.164-9.662 0-12.494 3.666-12.494 7.83 0 9.662 16.492 6.663 16.492 12.328 0 1.166-1 2.998-4.498 2.998-2.832 0-3.832-1.333-3.832-3.332v-.999h-8.83z" fill="#fff"/><path d="M116.615 114.503h8.496l2.166 5.663h8.828l-9.994-26.82h-10.162l-10.328 26.82h8.662l2.332-5.663zm4.498-13.66l2.998 7.995h-5.83l2.832-7.995z" fill="#234b8d"/><path d="M82.798 111.504v1.666c0 5.331 6.33 7.33 12.661 7.33 8.329 0 13.161-2.999 13.161-8.996 0-9.162-16.659-6.33-16.659-11.828 0-1.998 1.499-2.665 3.998-2.665 1.499 0 1.999.333 2.333.667.998.666.998 1.665.998 2.998h8.83v-.666c0-3.999-3.332-7.33-12.161-7.33-9.829 0-12.661 3.665-12.661 7.996 0 9.495 16.492 6.497 16.492 12.161 0 1.333-.832 2.998-4.331 2.998-2.999 0-3.832-1.332-3.832-3.331v-1h-8.829z" fill="#234b8d"/><path fill="#234b8d" d="M159.928 43.036H83.464V119.5l76.464-76.464z"/><path d="M94.125 108.838l4.998-4.997c-1.998-.333-7.163-1.166-7.163-4.165 0-1.832 1.499-2.665 3.998-2.665 1.499 0 2.165.5 2.333.667.832.333.998 1.665.998 2.998h3.166l4.332-4.331c-2.166-3.166-8.164-3.665-10.829-3.665-9.829 0-12.661 3.665-12.661 7.996 0 5.997 6.164 6.83 10.662 8.162h.166zm-2.665 2.666h-8.662c-.167 2.499 0 4.665 2.499 6.33l6.163-6.33z" fill="#fff"/></g></svg>