<svg height="653" viewBox="20 10.001 400.319 94.858" width="2500" xmlns="http://www.w3.org/2000/svg"><g fill="#b50938"><path d="m42.284 28.522h-.01m259.615 29.345c-1.585 0-3.265-.478-4.988-1.426l-.815-.445-3.833 8.443.71.37c3.274 1.79 6.252 2.542 9.916 2.542 6.79 0 10.721-3.314 14.012-11.79l16.425-42.454h-11.463s-8.474 24.295-9.821 28.13c-1.456-3.796-10.758-28.13-10.758-28.13h-11.714s16.783 40.258 17.076 40.968c-1.442 3.136-2.845 3.792-4.746 3.792m-106.35-10.675.547-.614-6.744-6.66-.63.623c-3.195 3.284-6.219 4.747-9.78 4.747-6.348 0-11.134-5.163-11.134-12.045v-.152c0-6.678 4.687-11.89 10.681-11.89 4.642 0 7.44 2.274 9.784 4.737l.624.67 6.883-7.41-.542-.598c-4.512-4.978-9.658-7.196-16.67-7.196-12.173 0-21.69 9.586-21.69 21.839v.158c0 12.118 9.484 21.614 21.611 21.614 8.86 0 13.597-3.954 17.06-7.823m24.971 7.668c12.57 0 22.387-9.556 22.387-21.76v-.154c0-12.17-9.764-21.694-22.216-21.694-12.513 0-22.3 9.59-22.3 21.849v.158c0 12.108 9.724 21.602 22.13 21.602m-11.198-21.915c0-6.893 4.707-11.907 11.197-11.907 6.532 0 11.467 5.18 11.467 12.062v.158c0 5.899-3.885 11.884-11.296 11.884-6.38 0-11.368-5.275-11.368-12.042m-70.494-20.407.053.855v22.948c0 4.668-3.027 7.923-7.391 7.923-4.304 0-7.569-3.453-7.569-8.035v-23.69h-11.5v23.802c0 10.388 8.324 17.224 18.957 17.224 3.248 0 6.281-1.208 8.932-2.557l.753-.404.122 2.123v.805h9.21v-40.994h-11.514m121.774 41.027-.047-.844v-22.952c0-4.68 3.031-7.932 7.388-7.932 4.32 0 7.572 3.453 7.572 8.044v23.684h11.504v-23.796c0-10.407-8.322-17.23-18.954-17.23-3.264 0-6.295 1.198-8.946 2.561l-.752.393-.119-2.12v-.835h-9.22v41.027h11.527m-166.887-40.35v1.776c-3.301-1.885-7.245-3.822-11.563-3.822-12.749 0-22.737 8.892-22.737 21.383v.162c0 12.361 9.926 21.145 22.588 21.145 4.318 0 8.309-1.99 11.712-3.931v2.872h10.285v-40.562h-10.285zm-11.167 31.63c-6.906 0-12.498-5.506-12.498-12.293 0-6.784 5.592-12.29 12.498-12.29 6.899 0 12.5 5.506 12.5 12.29 0 6.787-5.601 12.292-12.5 12.292m-43.12-26.569c2.802 0 6.674 1.357 11.474 4.004l.386.218 4.301-7.796-.343-.222c-4.68-2.904-10.576-4.634-15.762-4.634-7.962 0-15.996 4.258-15.996 13.791v.159c0 7.796 7.176 10.9 13.411 12.731 4.136 1.221 8.173 2.664 8.173 5.74v.156c0 1.323-.59 4.79-6.09 4.79-3.858 0-8.75-2.269-13.798-5.662l-.363-.254-4.819 7.41.34.245c5.374 3.968 11.87 6.668 18.3 6.668 10.814 0 16.762-5.245 16.762-13.85v-.872c0-5.447-4.347-9.54-13.326-12.53h.007-.007l-1.095-.374c-4.156-1.38-7.163-2.383-7.163-5.548v-.175c0-1.918 1.756-3.995 5.608-3.995"/><path d="m419.431 60.129v-.013c-3.36-2.291-3.36-2.308-5.658-3.694-22.044-13.362-33.435-14.93-44.12-11.362-8.305 2.78-22.588 14.085-22.588 14.085-13.046 8.705-26.24 23.09-57.162 21.41-28.79-1.558-88.075-16.954-88.792-17.152-.716-.208-1.462.327-1.24 1.169.168.637 1.607 3.795 1.607 3.795.181.43.564.529.753.615 23.608 9.474 95.617 35.877 121.067 35.877 30.332 0 55.429-42.11 82.41-42.11 8.372 0 10.498.301 11.696.31 1.192.103 2.199-.257 2.498-1.306 0 0 .417-.875-.471-1.624m-78.262 26.991a6.452 6.452 0 0 1 -2.763 4.133c-1.452.97-3.178 1.297-4.885.97a6.501 6.501 0 0 1 -2.314-11.784c2.98-1.98 7.018-1.165 9.002 1.809.96 1.446 1.3 3.179.96 4.872m16.343-8.579c-2.987 1.984-7.018 1.162-9.011-1.809-1.968-2.994-1.172-7.03 1.809-9.008 2.984-1.974 7.02-1.162 9.004 1.805a6.471 6.471 0 0 1 1.09 3.572 6.541 6.541 0 0 1 -2.892 5.44m21.872-16.848a6.363 6.363 0 0 1 -2.776 4.123 6.367 6.367 0 0 1 -4.865.964 6.53 6.53 0 0 1 -4.143-2.763c-.951-1.45-1.294-3.175-.951-4.875.343-1.704 1.314-3.173 2.78-4.127a6.394 6.394 0 0 1 4.865-.964 6.45 6.45 0 0 1 4.13 2.77c.96 1.44 1.3 3.17.96 4.872m-34.96-48.256c4.36 0 7.992 3.407 7.992 7.876 0 4.545-3.631 7.959-7.992 7.959-4.327 0-7.972-3.414-7.972-7.88 0-4.548 3.645-7.955 7.972-7.955m0 14.68c3.733 0 6.714-2.942 6.714-6.804 0-3.816-2.98-6.73-6.714-6.73-3.714 0-6.701 2.914-6.701 6.81 0 3.782 2.987 6.723 6.701 6.723m-2.951-11.292h3.377c2.178 0 3.212.802 3.212 2.634 0 1.647-1.057 2.34-2.423 2.492l2.66 4.047h-1.403l-2.505-3.941h-1.634v3.941h-1.284zm1.284 4.086h1.565c1.274 0 2.462-.069 2.462-1.515 0-1.274-1.076-1.429-2.063-1.429h-1.964"/></g></svg>