<svg height="511" width="2500" xmlns="http://www.w3.org/2000/svg" viewBox="2.954 0.467 402.368 82.0166720340237"><path d="M108.329 34.26l2.629-4.29h40.508l3.567-6.934h-54.31a14.24 14.24 0 0 0-12.392 7.226l-3.506 6.194c-2.168 3.83.598 8.576 4.997 8.576h27.969c1.716 0 2.828 1.81 2.054 3.342l-2.285 4.52H75.521l-3.499 6.184h64.466l6.622-12.869c1.968-3.825-.808-8.377-5.108-8.377h-27.718c-1.794-.004-2.893-2.04-1.956-3.571zM172.476 53.07c-2.078 0-3.39-2.235-2.377-4.05l9.872-17.694a2.557 2.557 0 0 1 2.233-1.312H209.3l4.019-6.978h-42.72a13.94 13.94 0 0 0-12.081 6.984L146.91 50.18c-2.278 3.957.577 8.897 5.142 8.897h40.513l3.46-6.006zM274.43 23.036h-46.95a12.306 12.306 0 0 0-10.515 5.915l-12.93 21.28c-2.358 3.88.434 8.846 4.972 8.846h49.547c3.607 0 6.952-1.881 8.824-4.963l12.739-20.964c2.695-4.436-.497-10.114-5.687-10.114zm-17.08 10.411L247.01 50.92a2.892 2.892 0 0 1-2.489 1.42h-15.825c-1.716 0-2.78-1.867-1.906-3.344l10.339-17.473a2.893 2.893 0 0 1 2.49-1.42h15.824c1.717 0 2.781 1.867 1.906 3.344zM346.55 23.036h-57.998l-3.68 6.978h19.531l-16.55 29.063h22.66l16.551-29.062h15.807zM405.322 23.036H351.85l-3.68 6.978h15.007l-16.551 29.063h22.66l16.551-29.062h15.807zM45.734 15.81L54.754.467h-32.43a8.368 8.368 0 0 0-7.296 4.27L2.954 26.21a17.654 17.654 0 0 0 .15 17.565l13.301 23.293 7.6-13.43a8.375 8.375 0 0 0 .175-8.35l-5.925-10.486a4.705 4.705 0 0 1 .028-4.569l7.055-12.029a4.701 4.701 0 0 1 4.097-2.395z"/><path d="M16.405 67.341l-9.02 15.142h32.43a8.372 8.372 0 0 0 7.297-4.27L59.185 56.74a17.65 17.65 0 0 0-.15-17.565L45.733 16.082l-7.6 13.23a8.377 8.377 0 0 0-.174 8.35l5.924 10.486a4.704 4.704 0 0 1-.027 4.569l-7.054 12.229a4.703 4.703 0 0 1-4.098 2.395z"/></svg>