<svg xmlns="http://www.w3.org/2000/svg" width="2500" height="2500" viewBox="0 0 192.756 192.756"><g fill-rule="evenodd" clip-rule="evenodd"><path fill="#fff" d="M0 0h192.756v192.756H0V0z"/><path d="M149.199 39.018l18.842-2.638s-8.668-22.611-44.846-22.611-69.342 13.567-85.923 38.816C20.69 77.834 51.969 95.169 57.245 95.546c5.276.377 30.149 9.421 57.283-.754 27.135-10.174 49.746-19.973 55.398-45.6-10.93.377-19.975 1.885-19.975 1.885s-.375 12.813-16.58 22.234-29.396 13.566-41.456 13.566-44.846-.376-40.7-24.496c4.146-24.118 40.324-35.801 55.398-37.309 15.075-1.506 33.541 1.509 42.586 13.946zM38.713 169.191v.158c0 1.715-.677 3.057-2.035 4.029-1.358.971-3.239 1.457-5.653 1.457-2.627 0-4.651-.727-6.071-2.186-1.416-1.459-2.124-3.549-2.124-6.268 0-2.82.731-4.988 2.194-6.504 1.462-1.514 3.563-2.271 6.31-2.271 2.295 0 4.067.467 5.309 1.404 1.246.936 1.904 2.303 1.981 4.094h-4.739c-.062-.705-.341-1.254-.84-1.648-.499-.398-1.157-.596-1.974-.596-1.149 0-2.008.475-2.581 1.424-.569.947-.855 2.371-.855 4.275 0 1.594.294 2.828.886 3.695.588.869 1.424 1.303 2.504 1.303.878 0 1.566-.205 2.066-.609.499-.41.777-.996.839-1.758h4.783v.001zm5.824-1.857h4.121c-.069-.777-.271-1.365-.607-1.768-.333-.398-.786-.6-1.351-.6-.642 0-1.137.189-1.485.572-.345.38-.573.98-.678 1.796zm7.986 3.478c-.189 1.309-.797 2.311-1.83 3.002-1.029.697-2.418 1.045-4.163 1.045-1.98 0-3.475-.514-4.477-1.539-1.006-1.029-1.509-2.555-1.509-4.57 0-1.934.534-3.436 1.598-4.504 1.064-1.072 2.558-1.605 4.477-1.605 1.95 0 3.428.539 4.438 1.609 1.01 1.072 1.513 2.643 1.513 4.705 0 .209 0 .369-.004.477a2.292 2.292 0 0 1-.031.293h-8.044c0 .922.186 1.617.562 2.086.371.469.928.705 1.671.705.518 0 .939-.145 1.261-.426.321-.283.534-.709.639-1.277h3.899v-.001zm6.636 1.305h.905c.871 0 1.479-.094 1.826-.279.348-.186.523-.496.523-.932s-.167-.736-.504-.914c-.336-.178-.952-.268-1.846-.268h-.905v2.393h.001zm0-4.523h.905c.825 0 1.389-.09 1.691-.268s.453-.484.453-.924c0-.408-.155-.697-.464-.863-.31-.166-.871-.248-1.68-.248h-.905v2.303zm-4.013 6.984v-11.654h5.781c1.857 0 3.23.242 4.121.734.886.492 1.331 1.254 1.331 2.279 0 .682-.216 1.234-.65 1.664-.437.426-1.098.738-1.989.943 1.018.174 1.772.496 2.26.963.487.469.731 1.096.731 1.885 0 1.072-.394 1.873-1.184 2.396-.79.525-1.997.789-3.622.789h-6.779v.001zm16.994-7.244h4.121c-.069-.777-.271-1.365-.607-1.768-.332-.398-.785-.6-1.35-.6-.642 0-1.138.189-1.486.572-.345.38-.573.98-.678 1.796zm7.986 3.478c-.189 1.309-.797 2.311-1.83 3.002-1.029.697-2.418 1.045-4.164 1.045-1.981 0-3.474-.514-4.477-1.539-1.006-1.029-1.509-2.555-1.509-4.57 0-1.934.535-3.436 1.598-4.504 1.064-1.072 2.558-1.605 4.477-1.605 1.95 0 3.428.539 4.438 1.609 1.01 1.072 1.513 2.643 1.513 4.705 0 .209 0 .369-.004.477a2.292 2.292 0 0 1-.031.293h-8.044c0 .922.186 1.617.562 2.086.371.469.928.705 1.671.705.519 0 .94-.145 1.261-.426.32-.283.534-.709.638-1.277h3.901v-.001zm6.716-2.132c0 1.127.19 2.002.577 2.621s.925.928 1.621.928c.65 0 1.146-.301 1.485-.904.341-.607.511-1.486.511-2.645 0-1.203-.17-2.096-.515-2.68s-.871-.879-1.571-.879c-.65 0-1.164.316-1.543.947-.378.631-.565 1.502-.565 2.612zm-4.228 10.308v-13.344c0-.303-.015-.67-.046-1.107a45.673 45.673 0 0 0-.147-1.613h4.318l.023 1.527c.545-.635 1.134-1.098 1.764-1.393.631-.293 1.354-.441 2.171-.441 1.536 0 2.732.539 3.587 1.613.858 1.08 1.288 2.586 1.288 4.52 0 1.973-.434 3.482-1.304 4.535-.87 1.049-2.116 1.574-3.742 1.574-.746 0-1.423-.135-2.03-.41a4.25 4.25 0 0 1-1.564-1.199v5.738h-4.318zm30.81-9.797v.158c0 1.715-.678 3.057-2.035 4.029-1.357.971-3.238 1.457-5.652 1.457-2.627 0-4.65-.727-6.07-2.186-1.416-1.459-2.125-3.549-2.125-6.268 0-2.82.732-4.988 2.193-6.504 1.463-1.514 3.564-2.271 6.312-2.271 2.293 0 4.066.467 5.307 1.404 1.246.936 1.904 2.303 1.982 4.094h-4.74c-.062-.705-.34-1.254-.84-1.648-.498-.398-1.156-.596-1.973-.596-1.15 0-2.008.475-2.582 1.424-.568.947-.854 2.371-.854 4.275 0 1.594.293 2.828.885 3.695.588.869 1.424 1.303 2.504 1.303.879 0 1.566-.205 2.066-.609.498-.41.777-.996.84-1.758h4.782v.001zm1.617-6.267h11.051v2.686h-3.365v8.969h-4.295v-8.969h-3.391v-2.686zm20.225 6.197c-.062 0-.15-.004-.271-.012a4.615 4.615 0 0 0-.285-.012c-.994 0-1.748.152-2.256.449-.506.299-.758.744-.758 1.332 0 .445.15.809.447 1.09.299.279.682.418 1.15.418.666 0 1.164-.229 1.5-.684.338-.461.508-1.143.508-2.047 0-.148-.004-.252-.008-.326a1.346 1.346 0 0 0-.027-.208zm.193 5.457a20.402 20.402 0 0 1-.092-.844c-.02-.271-.039-.523-.055-.758-.332.598-.828 1.055-1.486 1.377-.656.32-1.428.482-2.312.482-1.209 0-2.18-.336-2.906-1.01-.73-.672-1.096-1.559-1.096-2.662 0-1.354.553-2.379 1.66-3.072 1.107-.695 2.74-1.043 4.891-1.043.326 0 .572 0 .738.002.168.004.322.012.465.02v-.668c0-.559-.123-.986-.371-1.285-.244-.299-.592-.449-1.041-.449-.422 0-.77.145-1.041.426-.266.283-.402.65-.402 1.104v.205h-4.105c.016-1.27.484-2.213 1.414-2.832.924-.619 2.328-.93 4.209-.93 1.988 0 3.396.34 4.229 1.021.832.678 1.246 1.842 1.246 3.486v4.787c0 .596.012 1.102.035 1.512.023.414.055.789.1 1.131h-4.08zm11.445-4.299c0 1.641-.285 2.766-.863 3.381-.572.611-1.605.918-3.09.918a9.32 9.32 0 0 1-1.963-.205l-.012-2.949c.047 0 .098.004.158.012.062.008.141.012.24.012.445 0 .764-.131.951-.391.191-.26.283-.705.283-1.332v-6.801h11.697v11.654h-4.295v-8.969h-3.107v4.67h.001zm14.432 1.838h.795c.951 0 1.602-.121 1.945-.355.344-.24.514-.654.514-1.242 0-.59-.162-.998-.486-1.223-.326-.229-.982-.342-1.973-.342h-.795v3.162zm-4.012 2.461v-11.654h4.012v3.547h2.168c1.842 0 3.207.334 4.096.998.887.666 1.332 1.688 1.332 3.072 0 1.412-.441 2.438-1.326 3.076-.883.639-2.322.961-4.318.961h-5.964z" fill="#00acec"/><path d="M28.282 117.766c1.181 1.576 8.075 13.59 8.075 13.59l-13.196 6.895 13.787-.986 2.167 16.152 5.121-10.834 24.028 17.727-21.074-24.818 4.727-14.574-9.257 7.287-14.378-10.439zm42.242 40.728s-19.141-85.421-19.66-88.532c-.518-3.109-.295-12.278 1.778-12.796 2.073-.519 95.627 0 95.627 0s-.271 5.198-8.207 11.995c-9.275 7.948-27.672 17.668-47.77 17.548-14.512 40.687-21.768 71.785-21.768 71.785zm5.815-.351l22.256-21.666-5.712-3.742 9.06.592 4.334-12.211.984 10.832 10.242-1.576-9.061 5.121.787 12.408-5.514-8.271-27.376 18.513z" fill="#cc2229"/></g></svg>