<svg xmlns="http://www.w3.org/2000/svg" width="2500" height="2500" viewBox="0 0 192.756 192.756"><g fill-rule="evenodd" clip-rule="evenodd"><path fill="#fff" d="M0 0h192.756v192.756H0V0z"/><path d="M139.043 171.4c8.936 0 17.023-3.622 22.881-9.478l3.604 3.604c-6.777 6.778-16.143 10.972-26.484 10.972V171.4h-.001zm22.881-9.477c5.854-5.855 9.477-13.945 9.477-22.88h5.098c0 10.342-4.193 19.707-10.971 26.484l-3.604-3.604zM171.4 139.043V53.714h5.098v85.329H171.4zM171.4 53.714c0-8.936-3.621-17.025-9.477-22.88l3.604-3.605c6.779 6.778 10.971 16.143 10.971 26.485H171.4zm-9.476-22.881c-5.855-5.855-13.945-9.478-22.881-9.478v-5.098c10.342 0 19.707 4.193 26.484 10.971l-3.603 3.605zM139.043 21.356H53.714v-5.098h85.329v5.098zM53.714 21.356c-8.935 0-17.026 3.623-22.881 9.478l-3.604-3.605c6.778-6.778 16.142-10.971 26.485-10.971v5.098zm-22.881 9.477c-5.856 5.855-9.478 13.945-9.478 22.88h-5.098c0-10.343 4.193-19.707 10.971-26.485l3.605 3.605zM21.355 53.714v85.329h-5.098V53.714h5.098zM21.355 139.043c0 8.935 3.623 17.024 9.478 22.88l-3.604 3.604c-6.778-6.777-10.971-16.142-10.971-26.484h5.097zm9.478 22.88c5.855 5.855 13.946 9.478 22.881 9.478v5.099c-10.343 0-19.708-4.193-26.485-10.972l3.604-3.605zM53.714 171.4h85.329v5.099H53.714V171.4zM56.648 167.176c-17.595 0-31.067-13.474-31.067-31.067v-79.46c0-17.595 13.473-31.068 31.067-31.068h79.459c17.596 0 31.068 13.473 31.068 31.068v79.46c0 17.594-13.473 31.067-31.068 31.067H56.648zm100.264-70.559c0-14.452-7.949-27.041-19.711-33.652v-6.528h-6.771c-6.521-12.071-19.287-20.273-33.971-20.273-14.682 0-27.448 8.203-33.97 20.273h-6.771v6.528c-11.761 6.611-19.712 19.2-19.712 33.652 0 14.453 7.951 27.042 19.712 33.653v7.649h7.411c6.693 11.452 19.109 19.151 33.33 19.151 14.221 0 26.637-7.699 33.331-19.151h7.412v-7.649c11.761-6.611 19.71-19.2 19.71-33.653z" fill="#5e257b"/><path d="M134.715 96.299c0-9.269-7.496-16.783-16.758-16.817V74.89h-4.598c-.107-9.197-7.588-16.622-16.811-16.622-9.223 0-16.703 7.425-16.811 16.622H75.14v4.398c-.045-.001-.09-.007-.135-.007-9.29 0-16.82 7.531-16.82 16.821 0 9.289 7.53 16.82 16.82 16.82.045 0 .09-.006.135-.006v4.792h4.595c0 .046-.007.09-.007.136 0 9.29 7.531 16.821 16.82 16.821s16.821-7.531 16.821-16.821c0-.046-.006-.09-.006-.136h4.594v-4.591c9.262-.036 16.758-7.55 16.758-16.818z" fill="#5e257b"/></g></svg>