<svg xmlns="http://www.w3.org/2000/svg" width="1968" height="2500" viewBox="0 0 323.803 411.342"><path d="M271.96 146.722c-3.4-5.8-9.4-10.3-15.6-11.8.4-3.1 1.4-6.8 0-9.8-2-4.5-6.2-6.1-10.5-7-10.5-.8-21.3-.9-27.9 8.4-2.5 2.3-3.5 7.6-8.1 5.5 7.1-7.9 11.7-16.9 15.1-26.4 10.2-29.7 1.1-61.6-19.7-83.5-12.9-10.6-27.9-16.8-43.4-20.4-12-2.4-27.5-3.4-37.2 4.6-3.5 3.9-4.2 9.7-3.4 15.3 2 3 5.1 5.5 7.9 7.5 7 5.3 14.9 8.7 21.9 13.7-1 2.6-3.9 4.7-6.3 6-2.6.9-2.9-1.9-5-2.9-5.356-3.116-13.644-2.527-19.062.276-1.377.644-2.531 1.642-3.375 2.536-2.618.58-5.916-.484-7.563 1.988-3.3 1.9-3.7 5.7-3.4 9.1.1 2.2 1.8 3.7 2.7 5.5-7 3.3-10.6 10.4-11.3 17.5-1.6-.5-3.2.7-3.9 2.2-1.1-2.5-3.1-5.1-3.3-7.7 7.3-5.9 14.5-14.3 12.7-24.7-1.8-6.7-9-11.5-15.1-13.4.7-7-3.9-12.3-9.4-15.4-6.2-2.5-11.1 1.8-14.9 6.2-3.8-.5-7.9-.3-11 1.5-5.3 3.5-6.2 9.2-6.2 15.1-6.6 6.7-4.1 18.8-1.2 26.6 2.7 6.6 9.2 12 16.3 12.8 10.7 20.5 21.2 41.3 33.6 60.9-8.6 6.4-16.9 15.1-20.4 24.7-2.8 7.4-1.9 16.8-.7 24.3-5.3-2.3-10.1.9-14 4.3-.6-5.7-1.8-11.3-6.4-15.4-7.9-8.4-21.2-9-31.7-6-9.7 3.3-18.8 12.8-20.4 23.1-5 20.4.7 40 16.5 53.5 10.5 6.9 18.4 19.3 31 21.6 10.8.7 21.3-2.7 27.6-11.5 3.9-8 .4-17-3.6-23.8 4-11.6 15.5-16 26.9-16.3 7.5 3.3 16.3 5.5 24.9 3.8 3.6 2.1 6.2 5.8 8.9 8.9 0 4.6-.7 8.9-2.1 13-4.8 4.8-8.9 9.9-9.9 16.3-1 10.3 1.6 20.2 9.6 26.6 8.4 7.2 21.9 9.4 32.2 4.8 9.5-6 19.5-11.2 29.7-15.6 16.2-8.5 21.6-26.3 19.5-43.9-2.4-12.7-13.7-25.1-26.7-27.6-8.9-1.5-16.5 2.5-21.8 9.4.1-5-3.3-8.4-6.5-12 1-1.2 2.4-2.2 3.1-3.4 2.4-3.7 1.9-9.8-.4-13.4-2.3-2.9-5.1-5.5-8.9-5.1-1.3-2.2-1.9-4.7-2.4-7.2-.1-2.9-1-6.8.7-9.3 19.7-2.1 40.1-2.8 60.5-3.4 3.7 4.4 8.7 8 13.9 9.8 4.8 1.8 10.3-.7 14.4-3.6 4.8 2 11.8 1.7 16.3-.7 3.1-2.1 5.9-5.1 6.2-8.8 1.5-1.1 4 .1 5.3-1.2 5.2-3.8 5.8-10.1 5.3-16.1z"/><path d="M185.06 73.622c.75-3.75-2.75-4-4.5-4.75s-9.5-1.75-9.5-1.75l-4.521-3.341c-.397.993-1.326 1.61-2.58 1.341-2.4-1.1-.7-3-1.9-4.6-2.8-1-6.1-.2-8.9.3-.8.5-1.9 1-2.9.4-.7-2 2.3-.9 2.9-1.9h-4.8c.1 2.2-1 4-.9 6.3 2.8-.2 5.7-.9 8.4.2 2 1.2 3.3 3.4 2.4 5.8 4.8.1 9.9-.6 13.9 1.6 1.2 1.3 2.4 2.9 1.9 5.1-.4 2.4-1.7 4.8-4.1 6-1.8 4-6.1 1.2-9.3 2.4-3.7-1.4-8.1-.9-11.1-4.1-1.3-1.4-1.6-3.1-1.4-5-1.2 0-2.3-.2-3.4-.3-.9.9.6 2.8-.9 3.6-1 .4-.8-.7-1.5-.7-1.1-8.1 2.8-14.8 3.1-22.6-1.3-4.8-5.6-9.6-10.8-10.3-7.3-1.2-14.2 1.6-17.7 7.9-4.1 12.4 6.7 22.3 15.6 29.3v.5c-1.3 1.5-2.7 2.7-4.8 2.2-6.3-5.3-10.9-12.1-13.7-19.2-.6-.5.2-1.6-.7-2-2.3.7-4.5 1.7-6.3 3.6-7.8 10.7-5.6 28-.2 39.2 9 18.8 28.4 28.6 48.2 30-.6-2 .9-4 2.7-5.1 1.2-.1 2.4.1 3.1 1.2.3 2.9 1.6 5.6 3.8 7.5 8.5 5.6 21.5 4.9 30 0 4.5-2.3 7.4-6.9 7.5-11.8-.1-6.3-5.9-9.3-10.8-11.5-4.9-2.4-10.4.3-15.1.5-1.3-.6-2.7-1.9-2.4-3.4 2-2.6 5.4-2 8.4-2.4 2.2-9.6 2.6-20.2 2.4-30.5.117-.118.207-.294.336-.408-.392-1.666-.686-2.792-.686-2.792s.001-2.75.751-6.5zM79.76 28.822c2.9 3 4.1 6.6 5 10.4-2.8.8-5.6 1.7-8.1 3.3-1.9-4.8-4.5-8.7-9.2-11.7 2.6-3.2 8.6-5.3 12.3-2zM73.26 43.022c.1 2.3-.9 4.8-1.2 7.2-2-4.1-6.6-8.2-11.3-8.9-3.4 0-6.5.7-9.3 2.2-.5-3.7 1.5-7.4 3.8-9.9 2.3-1.3 5.2-2.4 7.9-1.4 5.2 2.2 8 6.1 10.1 10.8z" fill="#009fe1"/><path d="M99.46 51.222c2.8 7.7-1.3 15.3-6.8 20.6-2.8 2.3-6.1 3.7-9.6 4.8-.6 1-.8 2.1-.7 3.4.7.6 1.3 1.5 2.4 1.2l2.2-1.7c1.8 2.8 4 5.8 5.3 9.1-3 11.8 3.8 22.3 12.7 29 1.5.7 3.1 1.1 4.8 1.2 3.6 4.1 7.3 7.5 10.8 11.1-.2 1.8-2.3 4.3.2 5.7 1.4 0 3 .3 3.9-1.2.1-.6.3-1.2.2-1.9 1.1.4 2 1.5 3.1 1.9 4 2.1 8.2 3.8 12.5 5.1-.4.9-1.7.6-2.2 1.7.3.6 1 1.1 1.5 1.6 2.1.3 3.7-.4 5.5-.9 5.6 1.3 12.8-.3 16.3 5 9.9 6.7 26.1 5 35.5-1.4 3.6-2.5 6.3-6.1 8.2-9.6 1.9-1.4 3.9-.5 6.2-.7.7 1.6-1.5 4.2 1 5.5.6-.2.8.5 1.4.2 3.1-8.1 7.4-17.9 16.8-20.6 7.9-.9 18-1.4 22.8 5.7 1.6 5.3-.5 10.7-3.1 15.2-3.7 2-9.4 2.3-12.9-.3-2-1.7-2.3-4.5-1.7-6.9 1-2.7 2.5-5.5 5.3-7 .2-.6-.5-.8-.8-1.2-1.5.5-2.5 2.9-4.3 2.2-1.8-.5-1.6-3.6-3.8-2.4-1.5 2.3 1.7 3.5 2.4 5-3.3 2.5-2.7 6.9-2.4 10.6-4.6-1.1-9.1-2.4-12.3-6.3-.8.1-1 .6-1.4 1.2 1 2.3 2.5 4.5 5.3 4.6-2 .5-4.5 1.2-5.8 3.6-2.1 5.4.4 11.6 4.1 15.6 1.2 1.7 3 .4 4.6.5 1.1 1.5-1.4 3.6 1.2 4.5 1.4-1.1 1.1-3.3 2.1-4.8.3-1.9 3.4-3.8 1.7-5.5-1.2.8-2.4.3-2.9-1-.3-.7-.2-2.1-1.4-2.1-1.1.4-.8 1.7-.5 2.4l1.7 2.4c-1 1.9-2.8 2.5-4.3.9-2.3-2.4-4.6-5.5-3.6-9.1.5-3 3.4-4.8 6.2-5.5 5.1-1.1 9.5 1 13.4 3.4 3.6 5.5 8.3 12.6 4.4 19.2-5.1 4.8-11 9.3-18.3 8.6-5.4-2.8-11.6-7-12.7-13.4-.5-.5-1.3-.2-1.9-.3-.6.8-2 1.3-1.5 2.7l.3.2c-23.3 1.4-46.6 2.8-69.4 5.3-.8 1.1-1.5 1.5-1.2 3.1.9.8 1.6 2.4 3.1 1.4l3.4-1.4c-1.8 5 4 12.4-3.1 15.1-15.2 8.9-39.6 10.6-54.3-.7-3.7-3.3-7.7-7.2-9.8-12.3 4.9-16.7 19.9-28.2 35.8-33.8.6-.4 1.3-1.5.7-2.4-2.1-1.5-5.2.7-7.2 1.2-3.4 1.3-6.4 3.7-9.6 5.5-7-7.8-10.9-17.2-16.1-26.1-5.5-10.3-11.2-20.9-16.3-31.5 1-1 2.3-2 2.1-3.6-2.4-1.6-5.9-.7-8.6-1.6-5.6-1.2-11-6.1-12.2-11.8-1.2-7.6-3.8-18.8 4-23.3 2.8-1.5 5.9-3.2 9.4-2.1 4.1 1.1 8.2 5.4 8.9 9.8 1.1 4.7-.6 9.1-4.1 12-2 1.3-4.3 2.6-7 1.7-1.6-.4-2-2.2-2.6-3.4v-4.5l1.7-.3v-.5l-5.1-4.5c-.8-.4-1.1.6-1.6.9-.5 1.1 1.6 1.7 1.6 2.9.1 4.9.1 10.9 5.6 13.2 4.6 1.7 8.2-1.5 11-4.8 1.6-.1 2.9.4 4.1 1.2.9 1.7 2.3 3.4 1.4 5.5l-1.4 1.7c.9 1.5 1.7-.1 2.6-.5 1.4-.8 1.4-2.5 1-3.8-1.1-2.4-3.8-4.5-5.8-6 1.7-1.3 1.8-3.2 2.7-4.8 1.9 2.4 5.3 2.3 8.1 1.9 2.6-.8 4.9-2.4 7.2-4.1.6.9.5 2.8 2.2 2.7 1.5-2.1.2-4.8-.7-6.7-.5-.8-1.2-.8-2-.8-1.8 1.8 0 4.8-3.3 5.3-2 .7-5.1 1.8-7 0-2.1-2.8-4-6-2.9-9.8 1.8-5.2 7.9-6.3 12.8-7 5 .8 9.3 5.1 10.8 9.9z" fill="#009fe1"/><path d="M115.96 50.422c-3.3 3.6-4.4 8.6-3.1 13.5-.8.1-1.5.6-2.4.5-1.7-2.3-2.7-5.2-1.9-8.2 1.1-2.9 4-6.4 7.4-5.8z" fill="#fff"/><path d="M170.26 65.822c-.4.4-1 .2-1.5.2-.8-.2-1.4-1.3-.5-1.9.9.1 1.6 1 2 1.7z"/><path d="M156.76 68.222c.5 1.6.5 4.4-1.9 4.3-1.9.7-3.4 1.4-4.8-.7l-3.8-.2c.1-1.6-.7-4.6 1.6-5.1 3.1-.3 6.9-1.2 8.9 1.7z" fill="#fff"/><path d="M186.76 71.622c.1 4.5-.6 8.9-4.3 11.7-2 .8-1.9-1.2-2.9-2.1.6-3.6 5.4-6.7 2.9-10.8-3.1-1.7-6.7-1.8-10.1-2.7-1.2-.2-3.3.6-3.6-.7 6.4.5 14.1-1 18 4.6zM19.96 74.222c5.4 11.2 16.6 19.9 28.1 22.8-.1.2.1.3.2.5-11.7-2-25.7-11.7-30.7-24.3.2-.9-.4-2.2.5-2.6 2.1.2.9 2.5 1.9 3.6z"/><path d="M172.16 75.422c.7 1.7.7 3.4 0 5-.7.8-1.1 2-2.2 2.4-.2-1.4-1.8-2.5-2.9-3.3-2.9-.8-5.7.2-7.9 1.9-1 .7-1.4 1.7-1.2 2.9-2.8.3-6.2-.3-7.7-2.9-.8-1.2-.5-3.2-.2-4.6 4.4-4.5 11.3-4.7 17.8-4 1.7.1 3.2 1.3 4.3 2.6z" fill="#fff"/><path d="M112.66 77.622c.5 1.5-3.6 1.8-.8 3.3 8.7 16.2 27.8 19.3 45.2 20.7.7.3 1.2-.5 1.4-1 .2-1-.4-2.2.5-2.9 2.2.7 2.3 3 2.9 4.8.3 1-.5 1.7-1 2.2-1.8.3-1.9-2-3.4-2.4-3.8 0-7.6 0-11-1l-.7 1.2c-2.4 8.8.2 22.7-11.5 24.7-11.1-.4-19.5-11.8-22.6-20.8-1.6-6.6-1.1-14.6.5-20.9-.5-1.9-1.8-3.4-2.7-5.1-.6.5-1.6.2-2.4.3-1.3-2 1.2-3 2.4-3.6 1.1.1 2.4-.4 3.2.5z"/><path d="M107.56 116.022l-.2.2c-9.3-5.2-12.9-15.5-11.8-25.9.6-1.5.8-3.2 1.7-4.6 0 11.3 3.7 21.5 10.3 30.3z" fill="#009fe1"/><path d="M49.76 97.722c-.2.3-.5.2-.7.3.1-.3.4-.3.7-.3zM59.56 105.222c-5.9 3.6-13.9 5.2-21.1 3.1-.5-.6-1.4-1.2-.7-1.9 1.4-1.6 2.3 1 3.6 1.2 6.2 1 13.3.5 18.2-2.4z"/><path d="M141.46 112.622c-.9 4.4-1.7 10.5-6.5 11.5-5.8.9-9.6-2.8-12-6.9-.2-2.3 0-4.5 1.7-5.8 5.1-2.8 11.9-1 16.8 1.2z" fill="#cc1e47"/><path d="M139.76 113.122c-2.4.6-5.3.5-6.7 2.9-.8.2-1.4-.3-1.5-1 .2-1.5 1.9-1.6 2.9-2.2l5.3.3zM58.86 118.422c-.6.6-1.8 1-2.9 1.2-2.7.6-6 .1-7.7-1.7l.3-.7c3.1 1.1 6.9 2.9 10.3 1.2zM195.46 135.922c.5 1.4.1 3-1.5 3.3-1.2-.3-.4-1.9-.7-2.6-1.3-1.6-3.2-1.8-4.8-2.6-.7 1.3-.4 3.4-2.4 3.8-1.3.7-3.7-1.5-3.4 1.2-.7 1.7-2.5 2.8-4.3 3.1-3.5.6-6.5-.5-8.4-3.3-.2-.9-.4-1.9.7-2.2 1.1.4 2.5 1.8 3.4 2.6 1.5.7 3.2 1.8 5 1 2.1-.5 3.2-2.7 3.6-4.6 0-1.5-.6-3.1-2.1-3.8-2.6-1.4-6.1-.6-8.7.2-.4-.7-.2-2.1.8-2.1 8.5-.3 15.7 2.7 22.8 6z"/><path d="M268.36 146.922c1.1 4.3.4 9.3-3.1 12-1.1.8-2.9.5-4.1.3-1.7-1.7-1.5-4.5-2.6-6.5-.3-4.5-9.6-7.5-3.9-12 .3-.9.3-1.9 1-2.7 5.7-.9 10.1 4.7 12.7 8.9zM258.76 162.022c.3 2.4-.4 4.4-1.2 6.3-4.3 2-9.1 5.1-14.4 2.8 3.9-3.8 7.5-8.8 5.3-14.8-1.2-3.6-3.2-6.8-5-10.1 2.7.4 5.3-2 7.6-.5 5.1 4 6.9 10.2 7.7 16.3z" fill="#009fe1"/><path d="M275.76 172.622c-.3 6.7-6.9 12.8-12.7 15.3-9.1 3.8-19.2 5.8-30 4.8v-.4c15.9-1.7 34.8-3.1 41.3-20.2.5-.6 1.1.1 1.4.5z"/><path d="M121.96 195.622c9.5-1.2 19.1-3.5 25.7-10.8 2.6 7.2 6.3 15.4 3.1 23.5 4.3 1.7 8.4 5.8 9.4 10.4.6 2.9.6 6.3.2 9.3-5.3 9.2-14 17.6-23.7 21.1-.6-5.7 2.4-12.4-.8-17.7l-.7-.7c-.8.6-.5 2-.2 2.8-3.6-3.8-7.2-7.6-10.8-11.5-1.2-.5-1.7.9-2.2 1.5l.5 2.8c-15.6 1.2-29.1-6.4-38.2-19.2-5.6-8.9-8.3-20.2-6-31.2 7.7 17 26.2 21.1 43.7 19.7zM52.86 190.622c8.3 9.7 2.5 25.2 8.6 35.7 4.7 13 22.4 25.4 10.8 40.4l-2.4 1.6c.6-5.1 1.6-11.9-1.9-16.5-1.4-1.8-3.2-3.6-5-5.1-.3.3-.7.6-.5 1 5.2 4.3 7.7 10 6.5 16.6-.9 2-.5 5.1-2.7 6.2-6 3.7-14.8 4.4-21.3 1.2-9.8-5.6-18.7-13.3-28.1-19.9-9.6-12-14.1-26.9-13.2-43.2 1.1-10.1 6.4-20.4 16.3-25 10.5-5.9 25.6-3.3 32.9 7z" fill="#fff"/><path d="M159.46 194.222c1.6 2.7 1 7.1 0 9.6-1.2 1.5-2.7 3.1-4.6 3.1 2-5.7-.4-11.8-1.7-16.8 2.5.4 5.4 1.4 6.3 4.1z" fill="#009fe1"/><path d="M47.56 207.622c4.1 7 2.8 16.3 5.8 23.8 1-.2 1.3-2.2 2.1-.7.3 2.5.6 5.7-.2 8.1-1.4-1.5.9-5.4-1.9-5.5-4.1-5.9-3.1-13.9-4.6-20.9-1.8-7.9-8.7-15.5-16.3-18.5-6.1-2-13.2-1.5-18.7 1.5.8-1.5 2.9-1.9 4.3-2.9 6.3-2.6 14.8-1.7 19.9 2.9 3.8 3.4 7.4 7.8 9.6 12.2zM236.96 203.522c-7.3 1.7-15.5.4-22.1-2.1-1.6-1.3-3.7-2-3.4-4.6 1.4-.6 2.1 1.8 3.4 1.9 6.4 4 14.2 4.6 22.1 4.8z"/><path d="M75.66 197.822c2.1 9.3 9.7 16.4 15.4 24.2h-.5c-5.7-4.8-10.8-10.8-13.5-17.3-.4-.2-.8-1.4-1.4-.7-1.4.8-.4 2.3 0 3.1 3.3 6.6 8.8 12.8 15.1 16.8-3.8-.9-7.1-4.4-10.3-7.4-1-.8-1.8-2.9-3.1-2.4 1.8 3.4 5.3 6.1 7.7 9.4-5.6 3.2-12 8.1-14.7 14.1-6.6-9.1-10.4-19.8-9.3-32.4 3-4.8 8.3-8.3 14.6-7.4z" fill="#fff"/><path d="M216.56 214.122c-5.4 1.1-10.9-1.1-14.2-6l-.9-2.4c3.9 5 9.5 7 15.1 8.4z"/><path d="M206.26 231.922c2.3 5.2 4.3 10.6 3.8 17-4.4-9.7-12.7-21.6-24.5-23.3-19.5-2.1-25.6 20.1-36.2 31.7.1.4.6.2.9.2 7-8.3 11.7-17.6 19.5-25.6 6.1-5.1 15.8-5.8 22.8-2.2 8.8 4.2 13.6 13.5 17 21.6-.3 10.7-3.8 20.5-12.7 27.1-12.6 5.4-24.5 12.3-37.2 17.3-9 2.4-19.5 1.5-26.4-4.8-3.5-3.5-6.2-7.6-5-12.7.9-4 4.4-7.9 8.1-9.6.2-.5.8-.8 0-1.2-5.2 2.3-9.9 7.7-10.3 13.4-3.9-8.4.7-17.2 5-24.2 6.6-7.6 16.5-8.1 22.6-15.6 8.9-10.5 16.5-28.7 33.6-25.2 8.1 2 15.3 8.4 19 16.1z" fill="#fff"/><path d="M60.06 243.622c1-.3-.1-1.8 1-1.9.8 1.6-.5 2.9-.8 4.3-2.4-.6-.1-5.7-2.8-5h-.8c-.2-1.2.4-2.6 1.2-3.6 2.2 1.1.8 4.4 2.2 6.2zM107.86 247.222c10 39.2 12.8 83.1 9.6 126-1 7.4-1.9 14.7-3.9 21.6 1.3-16.4 3.4-33.5 2.9-51.1.3-34.5-4-67.4-12-98.2 1.4-1.4 3 .4 3.4 1.7zM50.46 249.622c.1.5 0 .9-.5 1.2-7.7-2.1-16.6-2-24.9-1.9 8-1.4 16.9-.5 24.9.2l.5.5zM43.46 251.122c-4.4-.3-8.5 1.2-12.4 2.6-.8.4-1.3 2.2-2.4 1.2-1.4-2.6 2.1-2.4 3.3-3.4 3.6-.8 7.8-1.3 11.5-.4zM145.06 262.322c-.5-1.2.9-2.3-.5-3.1-1.5 1.7-1.9 4.1-3.4 5.5-.1-2.5 1.6-5.5 4.1-6.7.4.4.3 1.4 1.2 1.2l1.4-3.1c-.2 1.9-1.2 4.9-2.8 6.2zM139.46 263.822c.9 1.4-1.9 1-1.4 2.6h-.5c-.2-1.2.2-3.2 1.9-2.6zM98.26 273.622c.4 6.2-4.1 11.6-9.4 14.2-7.4 3.7-17 3.4-25.7 2.6 12.8-.1 27.9-.7 32.7-14.1l.2-7c1.7.8 1.6 2.8 2.2 4.3zM172.66 278.922v.5c-2.9-.6-5.6-2.6-8.4-3.9-3.7-1-7.4-2.8-11.6-2.1-.9-.4-.3-1.3-.4-1.9l.9-.8c7.5.4 13.4 4.5 19.5 8.2zM172.66 283.222c-.1.3 0 .6-.3.7-1.6-.5-2.5-2.5-4.1-3.1-3-.5-5.3-2.8-8.6-2.6-.4-.3-.2-.8-.2-1.2 1-1.1 2.2 0 3.3.2 3.4 1.8 6.9 3.3 9.9 6zM105.46 302.922c0 .8-.8 2.2-2 2.4-5.6 1.2-11.4.2-16.3-1.9 5.1.9 12.9 2.8 17.1-1.7.7-.2.9.7 1.2 1.2zM128.96 308.422c2.3 34.8-3 68.7-11.8 100.1l-.5.2c1-4.7 1.9-10 3.2-14.8 4.9-24.9 8.3-50.7 7.6-77.6-.5-3.9-.7-7.9-2.1-11.5-.2-.8.4-1.4.9-1.9 2.7.8 1.8 3.4 2.7 5.5zM165.16 311.322c-2.7 2.3-6 3.3-9.1 4.6-5.6.2-14.5 3.2-18.2-2.7v-.9c.7-.3 1.6 1.5 2.6 1.9 8.3 2.2 17.3.4 24.5-3.1l.2.2zM104.66 318.522c.2.5-.2.7-.4 1-3-.1-6.3-.5-7.7-3.2 2.5 1.4 5.4 2.3 8.1 2.2zM136.16 326.922c3 2.1 7.2 3 11 1.9-.7.6-1.8 1.2-2.9 1.5-3.7.4-7.2-.4-9.3-3.4v-1.2c.8-.2.8.8 1.2 1.2zM234.06 378.722c.9 2.1-1.7 3-2.6 4.1-3.9 1.8-8.1 2.9-12.5 3.1-1.7 2.4 1 4.5.5 6.8-1 0-1.8-.6-2.2-1.5-.6-1.5.2-3.6-.7-5-2.4.3-5.7.6-7-1.2-.2-.7.7-1 1-1.5 1.2 0 1.4 2.1 2.9 2.2 1.2-.2 3 .6 3.8-.7.4-1.8.7-3.8 1.9-5.1.4 1.6-.7 3.7 0 5.1 4.5-.5 10-.3 12-4.8-.2-3.5-4.2-3.1-6.5-4.1-4.3-1.1-8.9-.1-12.9 1-.4 1.6-2.1 1.9-3.4 2.4h-.7c.5-3.1 4.6-3 7.2-3.6 6.4-1.3 14.3-1.3 19.2 2.8z"/><path d="M270.56 385.522c.3.4.2.9.2 1.4-.4.6-1 .9-1.7.7-4.2-4.2-10.8-1.3-15.3.3-.7.8.8 1.7 0 2.6-1.7 1.6-4.2 2-6.5 1.4-.6-.7-1.2-.1-1.9 0-1.3.9-3 2.4-1.9 4.1.4.5.1 1.3.2 1.9-.3.5-1 .2-1.4.3-2.2-1.8-2.2-4.4-2.4-7-2.1-.5-4.2 1.1-6.3.5-3.4-.4-7.2 1.8-10.5 0-.3-1 1-1.7 1.6-2.2l-.4-.7c2.3-2.4 6.1-3.3 9.6-2.9-2.1 1.4-5.2.2-7 2 .8 1 2.1 1 3.4.9v.5c-1.7-.3-2.9.4-4.1 1.2 1.4 2.6 4.6.2 6.9.2 1.4-1.3 1.8-3.9 4.1-4-.4 1-2 2.4-.5 3.3 2.5.5 4-1.5 5.8-2.6.2.4 1 .6.7 1.2-1.5.7-1.1 2.2-1.2 3.6.3.2.5.6 1 .5 1.9-1.6 3.6-4.5 5.7-4.8-.1.9-1.1 1.5-1.4 2.4.4 1.4 2.1 1.3 3.1.9.6-.4.9-.9.7-1.7-.3-.6-1.1-.4-1.2-1.2 5.9-2.9 12.8-4 19.7-3.8l1 1zM195.973 387.762c0-2.496 2.04-4.536 4.56-4.536a4.54 4.54 0 0 1 4.536 4.536c0 2.52-2.028 4.56-4.536 4.56-2.52 0-4.56-2.04-4.56-4.56zm8.376 0c0-2.208-1.608-3.936-3.816-3.936-2.22 0-3.84 1.728-3.84 3.936 0 2.232 1.62 3.96 3.84 3.96 2.208 0 3.816-1.728 3.816-3.96zm-1.512.828c-.108 1.092-1.056 1.764-2.1 1.764-1.524 0-2.52-1.14-2.52-2.628 0-1.5.936-2.604 2.484-2.604 1.092 0 1.968.624 2.136 1.716h-.648c-.132-.72-.756-1.188-1.476-1.188-1.2 0-1.8.936-1.8 2.064 0 1.092.648 2.112 1.824 2.112.708 0 1.356-.48 1.452-1.236h.648zM277.841 388.836v.744h-3.036v-.744h3.036zM285.281 386.041h-2.184v-.504c1.284-.084 2.088-.216 2.34-1.668h.612v8.46h-.768v-6.288zM289.745 390.469c.18.9.708 1.38 1.644 1.38 2.004 0 2.28-2.232 2.352-3.756l-.024-.024c-.516.852-1.272 1.32-2.28 1.32-1.584 0-2.616-1.08-2.616-2.724 0-1.596.876-2.796 2.724-2.796 2.28 0 2.964 1.908 2.964 4.272 0 2.868-1.296 4.356-3.084 4.356-1.32 0-2.328-.648-2.46-2.028h.78zm-.157-3.781c0 1.284.72 2.052 1.956 2.052 1.2 0 1.896-.96 1.896-2.1 0-1.248-.708-2.1-1.896-2.124-1.295.025-1.956.853-1.956 2.172zM296.417 390.469c.18.9.708 1.38 1.644 1.38 2.004 0 2.28-2.232 2.352-3.756l-.024-.024c-.516.852-1.272 1.32-2.28 1.32-1.584 0-2.616-1.08-2.616-2.724 0-1.596.876-2.796 2.724-2.796 2.28 0 2.964 1.908 2.964 4.272 0 2.868-1.296 4.356-3.084 4.356-1.32 0-2.328-.648-2.46-2.028h.78zm-.156-3.781c0 1.284.72 2.052 1.956 2.052 1.2 0 1.896-.96 1.896-2.1 0-1.248-.708-2.1-1.896-2.124-1.297.025-1.956.853-1.956 2.172zM302.38 383.953h5.388v.72c-2.424 2.736-3.336 6-3.432 7.656h-.84c.168-2.448 1.728-5.616 3.348-7.608h-4.464v-.768z"/><g><path d="M162.503 409.222l1.531-7.2h.68l-1.407 6.62h3.86l-.124.58h-4.54zM168.063 409.222l1.101-5.18h.6l-1.101 5.18h-.6zm1.312-6.31l.189-.89h.66l-.189.89h-.66zM174.618 405.672c-.046-.77-.479-1.23-1.279-1.23-1.23 0-1.978 1.12-2.208 2.2-.231 1.09.037 2.18 1.277 2.18.89 0 1.562-.53 1.885-1.39h.64c-.455 1.15-1.34 1.93-2.641 1.93-1.65 0-2.127-1.19-1.802-2.72.306-1.44 1.413-2.74 2.962-2.74 1.19 0 1.849.57 1.774 1.77h-.608zM176.644 406.772c-.248 1.12.154 2.05 1.304 2.05.78 0 1.481-.43 1.823-1.19h.67c-.508.98-1.288 1.73-2.608 1.73-1.66 0-2.129-1.18-1.804-2.71.321-1.51 1.484-2.75 2.964-2.75 1.42 0 2.075 1.01 1.67 2.87h-4.019zm3.486-.5c.215-1.01-.171-1.83-1.251-1.83-1.06 0-1.801.85-2.129 1.83h3.38zM181.913 409.222h-.6l1.101-5.18h.6l-.153.72c.588-.51 1.133-.86 1.853-.86.63 0 1.167.2 1.422.74.171.37.099.76.007 1.19l-.721 3.39h-.6l.719-3.38c.198-.93-.083-1.4-1.042-1.4-.74 0-1.352.48-1.655 1.01-.19.33-.262.62-.338.98l-.593 2.79zM187.567 407.602c0 .89.391 1.22 1.291 1.22.87 0 1.378-.46 1.484-.96.319-1.5-3.226-.44-2.792-2.48.183-.86.984-1.48 2.134-1.48 1.12 0 1.752.46 1.654 1.63h-.61c.06-.8-.418-1.09-1.168-1.09-.76 0-1.247.36-1.359.89-.3 1.41 3.208.53 2.784 2.52-.21.99-1.211 1.51-2.431 1.51s-1.754-.78-1.596-1.76h.609zM192.764 406.772c-.248 1.12.154 2.05 1.304 2.05.78 0 1.481-.43 1.823-1.19h.67c-.508.98-1.288 1.73-2.608 1.73-1.66 0-2.129-1.18-1.804-2.71.321-1.51 1.484-2.75 2.964-2.75 1.42 0 2.075 1.01 1.67 2.87h-4.019zm3.486-.5c.215-1.01-.171-1.83-1.251-1.83-1.06 0-1.801.85-2.129 1.83h3.38zM202.963 402.022h.6l-1.531 7.2h-.6l.193-.91h-.02c-.495.68-1.363 1.05-2.023 1.05-1.67 0-2.087-1.19-1.762-2.72.308-1.45 1.312-2.74 2.893-2.74.73 0 1.397.34 1.644.97l.606-2.85zm-2.264 2.42c-1.24 0-2.043 1.05-2.27 2.35-.266 1.3.329 2.03 1.339 2.03 1.13 0 1.954-.96 2.22-2.21.248-1.17-.199-2.17-1.289-2.17zM208.139 409.242c-.146.03-.426.12-.715.12-.59 0-.865-.26-.701-1.03l.806-3.79h-.73l.106-.5h.73l.306-1.44h.6l-.306 1.44h.97l-.106.5h-.97l-.754 3.55c-.108.51-.135.73.365.73.16 0 .336-.03.505-.07l-.106.49zM209.103 409.222l1.53-7.2h.6l-.583 2.74c.588-.51 1.133-.86 1.853-.86.63 0 1.167.2 1.423.74.171.37.099.76.007 1.19l-.721 3.39h-.6l.718-3.38c.198-.93-.082-1.4-1.042-1.4-.74 0-1.352.48-1.655 1.01-.19.33-.262.62-.338.98l-.593 2.79h-.599zM215.293 409.222h-.6l1.101-5.18h.6l-.207.97h.02c.507-.83 1.056-1.11 1.926-1.11l-.138.65c-1.344-.03-1.917.97-2.163 2.13l-.539 2.54zM218.025 406.632c.321-1.51 1.38-2.73 2.98-2.73 1.62 0 2.143 1.21 1.82 2.73-.349 1.64-1.53 2.73-2.98 2.73-1.316-.02-2.205-.92-1.82-2.73zm2.866-2.19c-1.26 0-1.987 1.07-2.226 2.19-.274 1.29.145 2.19 1.294 2.19 1.26 0 1.99-1.08 2.226-2.19.25-1.22-.024-2.19-1.294-2.19zM227.985 404.042h.6l-1.101 5.18h-.6l.153-.72c-.396.36-.943.86-1.853.86-1.38 0-1.664-.83-1.434-1.91l.725-3.41h.6l-.723 3.4c-.189.89.097 1.38 1.037 1.38.99 0 1.754-.82 1.997-1.96l.599-2.82zM234.036 404.042h.6l-.995 4.68c-.295 1.39-1.017 2.62-2.987 2.62-1.52 0-1.965-.87-1.873-1.49h.64c.015.78.638.95 1.348.95 1.64 0 2.12-1.22 2.342-2.41-.514.63-1.326.97-2.056.97-1.58 0-2.036-1.29-1.728-2.74.325-1.53 1.248-2.72 2.918-2.72.66 0 1.372.37 1.577 1.05h.02l.194-.91zm-1.835.4c-1.01 0-1.916.73-2.202 2.03-.326 1.3.031 2.35 1.271 2.35 1.09 0 1.962-1 2.211-2.17.266-1.25-.15-2.21-1.28-2.21zM235.044 409.222l1.53-7.2h.6l-.583 2.74c.588-.51 1.133-.86 1.853-.86.63 0 1.167.2 1.423.74.171.37.098.76.007 1.19l-.721 3.39h-.6l.718-3.38c.198-.93-.083-1.4-1.042-1.4-.74 0-1.352.48-1.655 1.01-.19.33-.262.62-.338.98l-.593 2.79h-.599zM243.714 409.222l1.53-7.2h.68l-1.53 7.2h-.68zM247.194 409.222l.187-.88h-.73l-.187.88h.73zM249.004 409.222l1.53-7.2h1.04l1.01 6.35h.02l3.67-6.35h1.03l-1.53 7.2h-.68l1.365-6.42h-.02l-3.725 6.42h-.64l-1.006-6.42h-.02l-1.364 6.42h-.68zM257.574 409.222l.187-.88h.73l-.188.88h-.729zM260.114 409.222l1.53-7.2h2.63c1.87 0 2.152.93 1.923 2.01-.342 1.61-1.857 2.01-3.188 2.01h-1.54l-.676 3.18h-.679zm3.04-3.76c1.27 0 2.115-.26 2.375-1.48.191-.9-.287-1.38-1.567-1.38h-1.76l-.608 2.86h1.56zM265.175 409.222l.187-.88h.73l-.187.88h-.73zM268.482 407.072c-.165 1.29.596 1.76 1.696 1.76 1.29 0 1.979-.7 2.146-1.49.474-2.23-4.23-.75-3.629-3.58.212-1 1.24-1.93 2.85-1.93 1.62 0 2.222.98 1.963 2.15h-.65c.234-1.1-.516-1.57-1.436-1.57-1.38 0-2.061.85-2.098 1.59-.085 1.86 4.279.52 3.687 3.31-.281 1.32-1.417 2.1-3.076 2.1-1.5 0-2.444-.78-2.113-2.34h.66zM274.065 409.222l.188-.88h.73l-.187.88h-.731zM282.946 401.832c-1.243 1.38-2.167 3-2.524 4.68-.353 1.66-.081 3.25.548 4.62h-.51c-.777-1.52-1.121-2.77-.717-4.67.389-1.83 1.308-3.19 2.694-4.63h.509zM282.745 409.222l1.53-7.2h2.6c1.69 0 2.205.73 1.975 1.81-.212 1-.878 1.45-1.479 1.55l-.004.02c.958.15 1.301.84 1.1 1.79-.319 1.5-1.412 2.03-2.782 2.03h-2.94zm.803-.58h1.73c1.5 0 2.243-.2 2.508-1.45.253-1.19-.541-1.41-1.82-1.41h-1.81l-.608 2.86zm.732-3.44H286c1.42 0 1.986-.5 2.171-1.37.191-.9-.279-1.23-1.769-1.23h-1.57l-.552 2.6zM289.955 409.222h-.6l1.101-5.18h.6l-.206.97h.02c.507-.83 1.056-1.11 1.926-1.11l-.138.65c-1.344-.03-1.916.97-2.163 2.13l-.54 2.54zM297.266 404.042h.6l-1.101 5.18h-.6l.153-.72c-.396.36-.943.86-1.853.86-1.38 0-1.664-.83-1.434-1.91l.725-3.41h.6l-.723 3.4c-.189.89.097 1.38 1.037 1.38.99 0 1.754-.82 1.997-1.96l.599-2.82zM298.909 407.602c.001.89.391 1.22 1.291 1.22.87 0 1.377-.46 1.484-.96.319-1.5-3.227-.44-2.793-2.48.183-.86.984-1.48 2.135-1.48 1.12 0 1.752.46 1.653 1.63h-.61c.06-.8-.418-1.09-1.168-1.09-.76 0-1.247.36-1.359.89-.3 1.41 3.207.53 2.784 2.52-.21.99-1.211 1.51-2.431 1.51s-1.754-.78-1.596-1.76h.61zM303.909 407.602c.001.89.391 1.22 1.291 1.22.87 0 1.377-.46 1.484-.96.319-1.5-3.227-.44-2.793-2.48.183-.86.984-1.48 2.135-1.48 1.12 0 1.752.46 1.653 1.63h-.61c.06-.8-.418-1.09-1.168-1.09-.76 0-1.247.36-1.359.89-.3 1.41 3.207.53 2.784 2.52-.21.99-1.211 1.51-2.431 1.51s-1.754-.78-1.596-1.76h.61zM309.105 406.772c-.248 1.12.154 2.05 1.305 2.05.78 0 1.481-.43 1.823-1.19h.67c-.508.98-1.288 1.73-2.607 1.73-1.66 0-2.129-1.18-1.804-2.71.321-1.51 1.484-2.75 2.964-2.75 1.42 0 2.076 1.01 1.67 2.87h-4.021zm3.487-.5c.215-1.01-.171-1.83-1.251-1.83-1.06 0-1.8.85-2.129 1.83h3.38zM313.865 409.222l1.531-7.2h.6l-1.53 7.2h-.601zM316.689 407.602c.001.89.391 1.22 1.291 1.22.87 0 1.377-.46 1.484-.96.319-1.5-3.227-.44-2.793-2.48.183-.86.985-1.48 2.135-1.48 1.12 0 1.752.46 1.653 1.63h-.61c.06-.8-.418-1.09-1.168-1.09-.76 0-1.247.36-1.359.89-.3 1.41 3.207.53 2.784 2.52-.21.99-1.211 1.51-2.431 1.51s-1.754-.78-1.596-1.76h.61zM320.429 411.132c1.244-1.38 2.168-3 2.525-4.68.353-1.66.081-3.25-.548-4.62h.51c.777 1.52 1.121 2.77.717 4.67-.389 1.83-1.308 3.19-2.694 4.63h-.51z"/></g><path d="M186.76 113.822c4.5.2 8.3 2.1 12 4.3 3.6 2.8 7.6 6.3 7 11.3 6.4-4 9.2-11.2 12-17.5 11.8-29.9 5.1-66.4-16.6-89.5-7.4-5.1-15.3-9-23.5-12.3-12.5-4.1-26.1-9.2-40.3-5.7-4.7.8-7.2 5.3-8.7 9.3-1.7 14 14.9 20.8 24.3 26.4 6.3 2.8 12.2 6.2 19.2 7.5 3.2 1 4.1-4.1 7.4-2 .9.7 2.1 1.6 2.4 2.7.9 1.7-.4 2.9-1.4 4.1-7.5-1-14.3-3.7-21.1-6l-10.6 3.6c7.7 1.8 15.3 3.9 22.8 6.4 9.3 3.8 19.3 5.7 27.1 13 .2.8-.5 1.5-.9 1.9-3 .6-4.7-1.7-6.8-3.1-4.4-5.6-12-6.8-18.2-9.8-9-2.7-17.7-6.8-27.4-7.2l1.5 1.9c.6.5-.3 1.7.7 2.1 3.2-.5 5.1 2.3 7.4 3.9 2.9-1.5 6.6-.4 9.6 0 1.7.8 2.2 2.5 2 4.3a2.803 2.803 0 0 1-.121.359l4.521 3.341s7.75 1 9.5 1.75 5.25 1 4.5 4.75-.75 6.5-.75 6.5.294 1.127.686 2.792a.368.368 0 0 1 .364-.092c4.1 8.9 3.5 21.7 1.4 31z" fill="#fff"/></svg>