<svg xmlns="http://www.w3.org/2000/svg" width="2500" height="2500" viewBox="0 0 192.756 192.756"><path fill-rule="evenodd" clip-rule="evenodd" fill="#fff" d="M0 0h192.756v192.756H0V0z"/><path d="M148.303 55.372c5.328-4.896 28.369-19.153 35.785-19.441v7.849c1.152-.864 2.881-2.016 5.834-2.448v23.906c-.217 0-4.969 4.032-5.834 4.608v9.504l5.834-.432v38.667c-11.09 11.09-39.891 28.082-55.229 31.107-.863.432-1.369-.145-1.873-.576-.215-1.584-27.434.863-52.708 1.584-1.008.072-4.032-6.408-5.04-6.336-1.008 0 .072 6.48-.936 6.551-17.137.289-32.258-.432-35.715-4.031-2.016 0-13.177 12.025-12.96 10.873-.072-1.439-.504-6.697-.36-7.561-4.392 1.512-11.089 4.752-13.897 4.031-3.96-2.303-8.137-4.248-8.137-4.896-.432-6.047-.144-12.385-.072-18.361 11.881-6.84 31.97-13.752 30.746-21.961-2.808-2.088-12.961-1.656-12.961-2.232v-37.66c.864-2.016 32.618-24.481 41.691-27.074l.072 8.713c19.874-18.146 71.791-15.698 85.76 5.616z" fill-rule="evenodd" clip-rule="evenodd" fill="#252924"/><path d="M101.643 47.739c-22.105 0-40.179 18.146-40.179 40.323 0 22.105 18.074 40.25 40.179 40.25 22.25 0 40.322-18.145 40.322-40.25 0-22.177-18.072-40.323-40.322-40.323z" fill-rule="evenodd" clip-rule="evenodd" fill="#a6d7f6" stroke="#000" stroke-width="1.358" stroke-miterlimit="2.613"/><path d="M89.834 73.301h-.216c-.36-.432-.72-.936-1.44-.936v-.864c-.404.242-1.237.78-2.069 1.204.115-.579.729-1.677.989-2.067.72 0 1.08.432 1.8.432.288-.36.576-.792.936-1.08.504-.648 1.152-1.224 1.872-1.224l1.728 2.304c-.288.432-.288.864-.288 1.296 0 0-1.08 0-.72.936 0 .432 1.728 1.368 2.088 1.8.36-.432 1.44-1.8 2.088-2.232v-1.8l.72.864v1.8c.721 0 1.439.936 1.439 1.8 0-.864 1.586-3.744 1.873-4.176.359-.072.576.576.936.576l.361-.432c.359 0 .791.432 1.15.432 0-.792.289-1.512.289-1.872 1.152 0 1.943.72 3.096.72 0-.36.361-1.152.361-1.872l.719-.792c-.719 1.512 2.664 3.384 3.385 4.177-.721.36-1.873.36-2.664.36l-.721-.72c-.719 0-1.871 0-2.592-.432l-1.152 1.152c-.721 0-1.08-.36-1.871-.36l-1.441-.216.721.288v2.736c.648 0 1.656.864 2.016.864.721-.432 1.729-.432 2.521-.432l.646.864c-.359.432-1.08.936-1.439 1.368-.648-.432-.648-.432-1.369 0h-.719c-1.008-.432-2.449-.432-3.457-.936h-.648c-.719.504-3.167 0-4.248 0l-.36.504c-.72 0-2.448-1.8-3.168-2.232 0-.432.36-.936.36-1.368-.36-.002-.936-.361-1.512-.434zm49.611 13.681c.432.288.793.432 1.225.648v1.8l1.08.864c0 1.224-.289 2.736-.576 4.393l-.072-2.16-1.656-1.584-.648-.648V87.63c-.432-.432-.863-.864-.863-1.8a6.991 6.991 0 0 0 1.51 1.152zm0-12.385c.721 1.944 1.225 3.888 1.584 5.617l-.863.072c-.721.936-.359 1.08-.359 1.944h-.361c-.936-.216-1.801-1.44-1.801-2.664-.719 0-1.367-.433-1.727-.433-.361.864-.361.864 0 1.801-.361.432-1.441 1.296-1.801 1.728v3.672l.721.864s-1.08 2.232-.361 1.296c-.359.504-.719.936-.719 1.8-.648 0-1.369-.864-1.369-1.8-1.439 0-1.729-2.665-1.729-4.032-.432 0-1.08-.864-1.08-.864.289-.937-.719-3.601-1.367-4.465.287 1.296.287 3.528.287 4.896-.287-.432-1.08-1.368-1.08-2.232-.646 0-1.727-1.368-2.016-1.8h-1.439c-.359.432-1.441 1.368-1.801 1.368l-.648-.936c-1.439.936-3.527-.432-4.967-.432a16.181 16.181 0 0 0-1.225-1.584c-.865-1.152-2.016-2.16-2.953-1.584.361.936.721 2.304 1.729 2.304.359.648.721 1.081 1.225 1.44 1.512 1.008 3.527.792 5.111.792l.721.864h1.367c0 .432.361.936.361 1.368l-.721 1.8c-2.375 0-4.393 2.952-6.84 4.249-.648.432-1.441.648-2.232.648l-1.152-2.808-2.592-2.304-.359-2.809-1.729-2.592c-.648.432-1.801-2.16-2.881-2.16 0 1.296 1.512 2.592 2.232 3.96.359.72.936 1.296 1.152 1.944.145.72-.145 1.584.359 2.304.432.72 1.584.936 1.873 1.512.432.576.359 1.08.719 1.656.793 1.152 1.441 1.944 1.945 2.664.863 0 1.871.216 2.664-.072.215-.072.359-.216.576-.36h2.447c-1.08 1.296-1.08.864-1.08 2.664.145.144-.719 1.008-1.943 2.017-2.088 1.8-5.186 4.392-5.4 5.544 0 .865-.361 2.232-.361 3.096.361.504 1.08.938 1.441 1.441-.793 2.16-2.52 5.328-4.609 5.328v2.664c-1.08.504-2.447 1.801-3.168 3.6-2.016 0-4.176.865-6.264.865-2.448-3.098-7.057-6.697-7.057-11.594l.72-.863c0-1.801-.288-2.881-.792-3.672-.72-1.152-1.728-1.801-2.736-3.098 0-1.295.36-2.736 0-3.528-1.008.36-1.728 0-2.736 0v-1.8c-1.44 0-6.048 0-7.056.504-1.8-2.304-2.448-5.4-3.889-7.201 0-4.537 0-7.201 2.448-10.369 2.448 0 5.977-3.096 8.497-3.528.375 0 .902-.189 1.451-.45-1.04-.129-2.327-.882-3.25-.486-.36 0-.72-.432-1.008-.432v-1.8l1.008-1.368c0-.864.36-2.16.36-3.097.36 0 .648-.432 1.08-.432l1.368 1.728c.72-.359.72 0 1.44 0 .288-.359.648-.864.648-1.728-.36 0-1.008-.432-1.008-.936.792-.36 2.16-.145 3.384 0h.792l1.08-1.296c.72 0 3.168-.864 2.448 0 .36 0 1.44-.864 1.8-1.368 0-.432-.36-.288-.144-1.296l.792-.072c.36 0 .505-.288.864-.288 0 .432-.145.288.215.721 0 .504-.719 1.439-.719 1.872.36 0 .719.432 1.081.432.359-.432 1.367-.864 2.088-1.368 0-.432-.359-.936-.359-1.368 0-.432 2.088-3.096 1.439-2.232.287-.864-1.08-.432-1.801-.432-1.367 1.8-1.223.864-4.248 2.664l-1.008-1.296c.72-.936 4.248-4.032 4.896-3.601l.721-.864c.646 0 5.184.432 4.535 2.232 1.729.864 3.096-.937 4.537-.937-.359-.432-1.08-1.728-1.441-2.232 0-.432.361-.937.361-1.368 1.08 0 1.439 1.368 1.799 2.304 1.08 0 2.09.432 2.809 0-.359-.432-1.08-1.368-1.08-2.304h1.441c-.361-.864 0-.432-.361-1.296.361 0 .721-.504 1.08-.504-.359-.864-.287.504.361-.36l.936.072c.215.072.432.144.576.216 2.879 1.008 6.408 2.88 9 4.68 4.393 2.88 9.145 8.281 12.529 13.897.936 1.587 1.874 3.603 2.592 5.691zm-24.121-3.384l.359.288c-.32.578-.355 1.098-.359 1.611v-1.899zm0 2.088h2.088l.648-.864c-.289-.648-1.512-.936-1.225-1.8-.287-.648-.287-.937-.936-.937 0-.576.359-.936.648-1.224-.289-.288-.648-.576-1.225-.576-.072-.072-.576-.648-.576-.937 0 .36-.289 1.513-.289 2.161-.359 0-1.223-.36-1.512-.36l-.359.36c0 .576.359.864.648 1.152h1.223l.865.936v2.089h.002zm0 34.635c.936-1.008 2.375-2.447 3.312-2.447-.434.359-1.225.791-1.584 1.152l.791.791c-.432.793-.432 1.584-.432 2.305-.863.936-1.512 1.871-2.088 2.447-.361.432-.648.648-1.008.648-.289 0-1.512-.359-1.945-.359 0-.793.434-1.152.793-1.584l-.793-.721v-.793l.793-.791h1.584c.146-.145.36-.359.577-.648zm-25.49-50.764h.648c3.096-3.097 9.866-2.232 11.161-6.769h1.801c.432-.432 1.799-2.161 2.736-2.161a37.111 37.111 0 0 0-16.346 1.512c-2.52.792-4.968 1.8-7.201 3.024-3.24 1.872-9.865 6.48-13.033 11.376l-.36 1.008-.072.792c4.032-1.296 6.912-8.784 10.513-9.648h.864c1.369 0 2.304 1.296 4.104 1.296l.864.864c.936-.36 1.368-.36 1.8-1.296h2.521v.002zm-25.49 45.435c.504-.936 3.6-2.809 4.032-3.24-.936-.936-1.8-2.664-2.736-3.528v-1.8c-.432 0-1.296-.432-1.296-.432l-.432-.504c-.432-.864-1.368-2.232-2.232-3.096 0 4.032 1.44 10.153 2.664 12.6z" fill-rule="evenodd" clip-rule="evenodd" fill="#33a457"/><path d="M89.834 73.301h-.216c-.36-.432-.72-.936-1.44-.936v-.864c-.404.242-1.237.78-2.069 1.204.115-.579.729-1.677.989-2.067.72 0 1.08.432 1.8.432.288-.36.576-.792.936-1.08.504-.648 1.152-1.224 1.872-1.224l1.728 2.304c-.288.432-.288.864-.288 1.296 0 0-1.08 0-.72.936 0 .432 1.728 1.368 2.088 1.8.36-.432 1.44-1.8 2.088-2.232v-1.8l.72.864v1.8c.721 0 1.439.936 1.439 1.8 0-.864 1.586-3.744 1.873-4.176.359-.072.576.576.936.576l.361-.432c.359 0 .791.432 1.15.432 0-.792.289-1.512.289-1.872 1.152 0 1.943.72 3.096.72 0-.36.361-1.152.361-1.872l.719-.792c-.719 1.512 2.664 3.384 3.385 4.177-.721.36-1.873.36-2.664.36l-.721-.72c-.719 0-1.871 0-2.592-.432l-1.152 1.152c-.721 0-1.08-.36-1.871-.36l-1.441-.216.721.288v2.736c.648 0 1.656.864 2.016.864.721-.432 1.729-.432 2.521-.432l.646.864c-.359.432-1.08.936-1.439 1.368-.648-.432-.648-.432-1.369 0h-.719c-1.008-.432-2.449-.432-3.457-.936h-.648c-.719.504-3.167 0-4.248 0l-.36.504c-.72 0-2.448-1.8-3.168-2.232 0-.432.36-.936.36-1.368-.36-.002-.936-.361-1.512-.434zm49.611 13.681c.432.288.793.432 1.225.648v1.8l1.08.864c0 1.224-.289 2.736-.576 4.393l-.072-2.16-1.656-1.584-.648-.648V87.63c-.432-.432-.863-.864-.863-1.8a6.991 6.991 0 0 0 1.51 1.152zm0-12.385c.721 1.944 1.225 3.888 1.584 5.617l-.863.072c-.721.936-.359 1.08-.359 1.944h-.361c-.936-.216-1.801-1.44-1.801-2.664-.719 0-1.367-.433-1.727-.433-.361.864-.361.864 0 1.801-.361.432-1.441 1.296-1.801 1.728v3.672l.721.864s-1.08 2.232-.361 1.296c-.359.504-.719.936-.719 1.8-.648 0-1.369-.864-1.369-1.8-1.439 0-1.729-2.665-1.729-4.032-.432 0-1.08-.864-1.08-.864.289-.937-.719-3.601-1.367-4.465.287 1.296.287 3.528.287 4.896-.287-.432-1.08-1.368-1.08-2.232-.646 0-1.727-1.368-2.016-1.8h-1.439c-.359.432-1.441 1.368-1.801 1.368l-.648-.936c-1.439.936-3.527-.432-4.967-.432a16.181 16.181 0 0 0-1.225-1.584c-.865-1.152-2.016-2.16-2.953-1.584.361.936.721 2.304 1.729 2.304.359.648.721 1.081 1.225 1.44 1.512 1.008 3.527.792 5.111.792l.721.864h1.367c0 .432.361.936.361 1.368l-.721 1.8c-2.375 0-4.393 2.952-6.84 4.249-.648.432-1.441.648-2.232.648l-1.152-2.808-2.592-2.304-.359-2.809-1.729-2.592c-.648.432-1.801-2.16-2.881-2.16 0 1.296 1.512 2.592 2.232 3.96.359.72.936 1.296 1.152 1.944.145.72-.145 1.584.359 2.304.432.72 1.584.936 1.873 1.512.432.576.359 1.08.719 1.656.793 1.152 1.441 1.944 1.945 2.664.863 0 1.871.216 2.664-.072.215-.072.359-.216.576-.36h2.447c-1.08 1.296-1.08.864-1.08 2.664.145.144-.719 1.008-1.943 2.017-2.088 1.8-5.186 4.392-5.4 5.544 0 .865-.361 2.232-.361 3.096.361.504 1.08.938 1.441 1.441-.793 2.16-2.52 5.328-4.609 5.328v2.664c-1.08.504-2.447 1.801-3.168 3.6-2.016 0-4.176.865-6.264.865-2.448-3.098-7.057-6.697-7.057-11.594l.72-.863c0-1.801-.288-2.881-.792-3.672-.72-1.152-1.728-1.801-2.736-3.098 0-1.295.36-2.736 0-3.528-1.008.36-1.728 0-2.736 0v-1.8c-1.44 0-6.048 0-7.056.504-1.8-2.304-2.448-5.4-3.889-7.201 0-4.537 0-7.201 2.448-10.369 2.448 0 5.977-3.096 8.497-3.528.375 0 .902-.189 1.451-.45-1.04-.129-2.327-.882-3.25-.486-.36 0-.72-.432-1.008-.432v-1.8l1.008-1.368c0-.864.36-2.16.36-3.097.36 0 .648-.432 1.08-.432l1.368 1.728c.72-.359.72 0 1.44 0 .288-.359.648-.864.648-1.728-.36 0-1.008-.432-1.008-.936.792-.36 2.16-.145 3.384 0h.792l1.08-1.296c.72 0 3.168-.864 2.448 0 .36 0 1.44-.864 1.8-1.368 0-.432-.36-.288-.144-1.296l.792-.072c.36 0 .505-.288.864-.288 0 .432-.145.288.215.721 0 .504-.719 1.439-.719 1.872.36 0 .719.432 1.081.432.359-.432 1.367-.864 2.088-1.368 0-.432-.359-.936-.359-1.368 0-.432 2.088-3.096 1.439-2.232.287-.864-1.08-.432-1.801-.432-1.367 1.8-1.223.864-4.248 2.664l-1.008-1.296c.72-.936 4.248-4.032 4.896-3.601l.721-.864c.646 0 5.184.432 4.535 2.232 1.729.864 3.096-.937 4.537-.937-.359-.432-1.08-1.728-1.441-2.232 0-.432.361-.937.361-1.368 1.08 0 1.439 1.368 1.799 2.304 1.08 0 2.09.432 2.809 0-.359-.432-1.08-1.368-1.08-2.304h1.441c-.361-.864 0-.432-.361-1.296.361 0 .721-.504 1.08-.504-.359-.864-.287.504.361-.36l.936.072c.215.072.432.144.576.216 2.879 1.008 6.408 2.88 9 4.68 4.393 2.88 9.145 8.281 12.529 13.897.936 1.587 1.874 3.603 2.592 5.691zm-24.121-3.384l.359.288c-.32.578-.355 1.098-.359 1.611m0 .189h2.088l.648-.864c-.289-.648-1.512-.936-1.225-1.8-.287-.648-.287-.937-.936-.937 0-.576.359-.936.648-1.224-.289-.288-.648-.576-1.225-.576-.072-.072-.576-.648-.576-.937 0 .36-.289 1.513-.289 2.161-.359 0-1.223-.36-1.512-.36l-.359.36c0 .576.359.864.648 1.152h1.223l.865.936m.002 36.724c.936-1.008 2.375-2.447 3.312-2.447-.434.359-1.225.791-1.584 1.152l.791.791c-.432.793-.432 1.584-.432 2.305-.863.936-1.512 1.871-2.088 2.447-.361.432-.648.648-1.008.648-.289 0-1.512-.359-1.945-.359 0-.793.434-1.152.793-1.584l-.793-.721v-.793l.793-.791h1.584c.146-.145.36-.359.577-.648zm-25.49-50.764h.648c3.096-3.097 9.866-2.232 11.161-6.769h1.801c.432-.432 1.799-2.161 2.736-2.161a37.111 37.111 0 0 0-16.346 1.512c-2.52.792-4.968 1.8-7.201 3.024-3.24 1.872-9.865 6.48-13.033 11.376l-.36 1.008-.072.792c4.032-1.296 6.912-8.784 10.513-9.648h.864c1.369 0 2.304 1.296 4.104 1.296l.864.864c.936-.36 1.368-.36 1.8-1.296h2.521v.002zm-25.49 45.435c.504-.936 3.6-2.809 4.032-3.24-.936-.936-1.8-2.664-2.736-3.528v-1.8c-.432 0-1.296-.432-1.296-.432l-.432-.504c-.432-.864-1.368-2.232-2.232-3.096 0 4.032 1.44 10.153 2.664 12.6z" fill="none" stroke="#000" stroke-width=".5" stroke-linecap="round" stroke-linejoin="bevel" stroke-miterlimit="2.613"/><path d="M180.201 40.754v17.642c-.145-.072-25.203 15.553-26.066 19.514-.648 1.296-.721 3.024 1.008 3.744l22.971-3.96c1.008-.216 1.727-.36 1.656.576l.359 30.531c-.432 6.623-43.131 33.266-54.436 33.553-.072-5.76-.289-10.367-.072-14.832 8.352-5.473 42.627-20.305 39.531-28.299 2.088-2.52-20.162-1.295-20.883-1.295-1.152 0-.936-1.585-.936-2.881 0-10.009.359-19.946.359-30.242.794-4.321 35.285-25.85 36.509-24.051zM59.952 47.379c.936 4.752.432 10.945.216 15.769-6.408 1.8-21.529 14.041-24.266 18.938-.288.576-.792 1.008-.936 1.728-.144 1.512-.072 1.224.792 2.016 1.296.072 24.481-3.744 24.554-3.816.792-.144.936.936.792 2.376v29.09c-1.08 3.312-8.064 7.705-12.168 10.008-1.944 0-3.601-2.303-5.977-1.295-3.024 1.295-6.696 6.049-8.281 8.279 0-.287-.216-.287-.216-.359-.792-7.92-2.592-6.768-5.04-6.625-6.48 1.225-5.761 3.889-5.4 10.945h-.072l-.072 2.953-18.866 9.648-.072-15.264c8.712-4.969 40.467-19.658 41.547-27.865.216-.576 0-1.152-.288-1.584-5.761-1.801-11.377 1.439-21.242.287-.648-.359-1.008-1.008-1.008-1.873V69.917c.288-.072 1.08-.936 1.296-1.224l.144-.144c3.888-3.528 31.682-24.626 34.563-21.17z" fill-rule="evenodd" clip-rule="evenodd" fill="#cc2229"/><path d="M29.421 126.873c1.44.072 1.368.721 2.448 1.369-.288.432-.504 11.375-.432 11.809l11.809-13.465c1.296-.648 3.024.576 2.376 1.584-.72 2.303-5.616 6.695-7.633 9.936.145.434 4.681 4.105 5.833 4.393l12.457-14.832c1.08-1.514 5.256-1.08 5.329 1.08l-.072 14.617c0 1.223-3.24 2.088-3.888.504l.36-13.033-9.937 11.953c2.304.359 4.536-.576 4.248 2.879l-10.009.072-6.264-5.256-8.929 10.873.72-23.906c.36-.505.936-.649 1.584-.577z" fill-rule="evenodd" clip-rule="evenodd" fill="#33a457"/><path d="M141.029 80.214c-.719-3.6-2.303-8.353-4.176-11.305-3.385-5.616-8.137-11.017-12.529-13.897-2.809-1.944-6.625-3.888-9.576-4.896M65.64 105.775c20.018 17.857 57.028 17.209 72.004 0m-75.46-24.409c-2.232 24.554 83.382 22.753 78.99 0m-73.95-13.537c-.864 13.537 71.43 15.985 68.836 0M79.249 54.94c-9.289 8.497 54.509 8.856 44.931 0m-22.248 73.23V48.027m-.073-.216c14.4 0 26.209 18.146 26.209 40.179 0 22.105-11.809 40.18-26.209 40.18-14.33 0-26.066-18.074-26.066-40.18 0-22.033 11.737-40.179 26.066-40.179m0 0c20.305 0 37.01 18.146 37.01 40.179 0 22.105-16.705 40.252-37.01 40.252-20.234 0-36.939-18.146-36.939-40.252 0-22.033 16.705-40.179 36.939-40.179" fill="none" stroke="#000" stroke-miterlimit="2.613"/><path d="M104.379 129.25c-.145.287.289 13.033.289 14.256-.145 0-.217.072-.217.217v.287c0 1.873-2.592 1.441-2.953.289l-.215-13.537-9.29 12.529c.577.648 3.385-.432 4.465 0 .144.576.072 1.799 0 2.447l-6.625.289c-1.512-.721-1.8-1.008-1.656-2.953l10.584-14.328c1.153-2.16 5.186-1.514 5.618.504zM70.752 127.449l10.441 12.168v-11.52c.36-1.369 2.736-1.873 3.888.576l-.144 14.904c0 1.873-1.657 2.664-2.809 1.945l-11.377-12.385-.216 10.943c-.216 1.945-3.889 2.521-3.889.289l.145-17.209c.433-1.582 2.449-1.512 3.961.289zM114.748 141.922c1.871-.072 4.393-.143 4.752-.143 1.512 0 1.512 3.24-.072 3.168l-5.832.287c-1.008.217-1.656.072-2.016-.936l-.361-15.77c0-1.729 3.17-2.592 3.24.217 0 .36.217 9.36.289 13.177z" fill-rule="evenodd" clip-rule="evenodd" fill="#33a457"/></svg>