<svg viewBox="0 0 443.73199999999997 113.193" xmlns="http://www.w3.org/2000/svg" width="2500" height="638"><path d="M430.509.005H13.225C5.92.005 0 5.924 0 13.227v86.744c0 7.302 5.92 13.222 13.225 13.222h417.284c7.302 0 13.222-5.92 13.222-13.222V13.227c0-7.303-5.92-13.222-13.222-13.222" fill="#f26322"/><g fill="#fff"><path d="M70.233 89.072c-4.79 0-9.491-.823-14.105-2.472-4.277-1.526-8.192-3.814-11.75-6.862a1.124 1.124 0 0 1-.123-1.566l6.793-8.135a1.095 1.095 0 0 1 1.519-.15c2.608 2.025 5.277 3.658 8.008 4.904 3.025 1.376 6.336 2.065 9.927 2.065 2.875 0 5.104-.523 6.693-1.572 1.586-1.049 2.382-2.502 2.382-4.357v-.18c0-.896-.167-1.692-.496-2.382-.333-.686-.963-1.329-1.892-1.929s-2.222-1.199-3.871-1.799c-1.652-.596-3.801-1.226-6.443-1.886-3.181-.776-6.063-1.646-8.648-2.605-2.582-.956-4.77-2.139-6.573-3.548-1.802-1.406-3.195-3.158-4.187-5.253-.993-2.095-1.486-4.704-1.486-7.815v-.183c0-2.872.533-5.46 1.606-7.765a17.642 17.642 0 0 1 4.507-5.976c1.932-1.676 4.241-2.965 6.926-3.861 2.685-.899 5.643-1.349 8.878-1.349 4.611 0 8.848.69 12.712 2.069a36.744 36.744 0 0 1 9.801 5.273c.473.356.576 1.039.24 1.529l-5.973 8.661c-.34.49-1.013.606-1.512.28-2.502-1.632-4.957-2.942-7.362-3.934-2.695-1.106-5.39-1.662-8.085-1.662s-4.714.526-6.063 1.576c-1.346 1.046-2.022 2.349-2.022 3.904v.18c0 1.019.197 1.902.586 2.652.39.75 1.096 1.422 2.115 2.022 1.023.596 2.419 1.166 4.191 1.706 1.769.536 4.004 1.166 6.709 1.886 3.181.839 6.02 1.782 8.512 2.832 2.492 1.046 4.594 2.305 6.306 3.771 1.709 1.469 3.002 3.188 3.871 5.164.869 1.975 1.306 4.344 1.306 7.099v.18c0 3.111-.566 5.88-1.696 8.308-1.133 2.422-2.705 4.464-4.73 6.11-2.022 1.646-4.437 2.905-7.242 3.771-2.806.862-5.914 1.299-9.329 1.299M101.623 31.645a6.618 6.618 0 0 1 6.619-6.619h19.072c3.771 0 7.139.523 10.104 1.569 2.965 1.049 5.48 2.532 7.545 4.447 2.065 1.916 3.654 4.207 4.764 6.873 1.106 2.665 1.659 5.613 1.659 8.848v.18c0 3.651-.66 6.856-1.975 9.611-1.319 2.755-3.131 5.06-5.433 6.916-2.305 1.859-5 3.251-8.085 4.177-3.085.929-6.393 1.392-9.927 1.392h-9.408c-.61 0-1.103.493-1.103 1.103v16.66c0 .606-.493 1.103-1.103 1.103h-11.626c-.61 0-1.103-.496-1.103-1.103zm24.792 25.089c3.475 0 6.166-.913 8.085-2.742 1.916-1.826 2.875-4.084 2.875-6.779v-.18c0-3.115-1.006-5.48-3.012-7.099-2.005-1.616-4.747-2.422-8.218-2.422h-9.588c-.61 0-1.103.493-1.103 1.103v17.016c0 .61.493 1.103 1.103 1.103zM169.16 25.025h36.458c.61 0 1.103.493 1.103 1.103v10.101c0 .61-.493 1.103-1.103 1.103H174.14c-.61 0-1.106.493-1.106 1.103v10.55c0 .61.496 1.103 1.106 1.103h30.898c.61 0 1.103.493 1.103 1.103V61.29c0 .61-.493 1.103-1.103 1.103H174.14c-.61 0-1.106.493-1.106 1.103v11c0 .61.496 1.103 1.106 1.103h31.927c.61 0 1.103.493 1.103 1.103v10.101c0 .61-.493 1.103-1.103 1.103H169.16a9.777 9.777 0 0 1-9.777-9.777V34.802c-.001-5.4 4.377-9.777 9.777-9.777M219.529 25.025h9.454c.69 0 1.339.323 1.756.869l26.82 35.242c.64.839 1.982.386 1.982-.67V27.23c0-1.216.986-2.205 2.205-2.205h9.241c1.219 0 2.209.989 2.209 2.205v59.571c0 .61-.493 1.103-1.103 1.103h-10.121c-.343 0-.666-.16-.876-.433l-28.14-36.938c-.64-.843-1.982-.39-1.982.666v35.602c0 .61-.493 1.103-1.103 1.103h-11.446c-.61 0-1.103-.493-1.103-1.103V27.23a2.207 2.207 0 0 1 2.207-2.205M308.496 88.802c-4.79 0-9.491-.823-14.105-2.472-4.277-1.526-8.192-3.814-11.75-6.862a1.124 1.124 0 0 1-.123-1.566l6.793-8.135a1.095 1.095 0 0 1 1.519-.15c2.608 2.025 5.277 3.658 8.009 4.904 3.025 1.376 6.336 2.065 9.927 2.065 2.875 0 5.104-.523 6.693-1.572 1.586-1.049 2.382-2.502 2.382-4.357v-.18c0-.896-.167-1.692-.496-2.382-.333-.686-.963-1.329-1.892-1.929s-2.222-1.199-3.871-1.799c-1.652-.596-3.801-1.226-6.443-1.886-3.181-.776-6.063-1.646-8.648-2.605-2.582-.956-4.77-2.139-6.573-3.548-1.802-1.406-3.195-3.158-4.187-5.253-.993-2.095-1.486-4.704-1.486-7.815v-.183c0-2.872.533-5.46 1.606-7.765a17.642 17.642 0 0 1 4.507-5.976c1.932-1.676 4.241-2.965 6.926-3.861 2.685-.899 5.643-1.349 8.878-1.349 4.611 0 8.848.69 12.712 2.069a36.744 36.744 0 0 1 9.801 5.273c.473.356.576 1.039.24 1.529l-5.973 8.661c-.34.49-1.013.606-1.512.28-2.502-1.632-4.957-2.942-7.362-3.934-2.695-1.106-5.39-1.662-8.085-1.662s-4.714.526-6.063 1.576c-1.346 1.046-2.022 2.349-2.022 3.904v.18c0 1.019.197 1.902.586 2.652.39.75 1.096 1.422 2.115 2.022 1.023.596 2.419 1.166 4.191 1.706 1.769.536 4.004 1.166 6.709 1.886 3.181.839 6.02 1.782 8.512 2.832 2.492 1.046 4.594 2.305 6.306 3.771 1.709 1.469 3.001 3.188 3.871 5.164.869 1.975 1.306 4.344 1.306 7.099v.18c0 3.111-.566 5.88-1.696 8.308-1.133 2.422-2.705 4.464-4.73 6.11-2.022 1.646-4.437 2.905-7.242 3.771-2.807.863-5.915 1.299-9.33 1.299M366.975 24.574a9.645 9.645 0 0 1 8.875 5.87l23.799 55.926a1.1 1.1 0 0 1-1.016 1.532H386.58c-.446 0-.853-.27-1.023-.686l-5.187-12.729a1.103 1.103 0 0 0-1.023-.686h-25.105c-.45 0-.853.27-1.023.686l-5.187 12.729c-.17.416-.576.686-1.023.686h-11.693a1.1 1.1 0 0 1-1.016-1.532l23.8-55.926a9.645 9.645 0 0 1 8.875-5.87m7.552 35.489l-6.709-16.377c-.376-.916-1.669-.916-2.042 0l-6.709 16.377c-.3.726.233 1.522 1.019 1.522h13.419c.786 0 1.319-.796 1.022-1.522"/></g><path d="M.001 0h443.731v113.191H.001z" fill="none"/></svg>