<svg xmlns="http://www.w3.org/2000/svg" width="2500" height="2500" viewBox="0 0 192.756 192.756"><g fill-rule="evenodd" clip-rule="evenodd"><path fill="#fff" d="M0 0h192.756v192.756H0V0z"/><path d="M59.777 116.867c-1.773-.615-4.854-.277-7.937-2.516-4.422-1.809-7.703-6.508-9.359-9.904-1.66-3.408-2.487-6.496-2.487-9.259 0-4.283 1.007-7.974 3.051-11.055 2.02-3.044 4.083-5.21 7.212-6.745 3.134-1.538 5.02-2.07 7.921-2.07 2.027 0 4.092-.196 7.281 1.013l.956-2.412h.138l9.062 8.349-1.659 2.694c-26.703-12.992-35.04 17.6-14.179 31.905zm77.942-41.946L95.784 32.616 61.516 66.935l61.848.015v3.291l-69.769-.016 42.198-42.261 49.179 49.612-1.08 1.117.008.007-13.543 14.106 17.734 23.455 5.545 6.379-90.17.049c-7.869-1.842-13.414-3.951-14.835-7.225v.537c3.212 2.154 6.989 2.83 11.319 2.834l81.27.082-7.422-9.85h2.943l-14.33-18.538 15.308-15.608zm-51.154 6.508v34.468H82.8l-7.613-6.828h3.053V74.491h20.045v6.938h-11.72zm22.654-.555v35.023h-3.885l-7.168-6.828h2.949V73.825l8.104 7.049zm17.853-.454v1.794l-7.549 7.317V73.825l7.549 6.595zm0 20.324v15.152h-2.996l-7.604-6.828h3.051V91.197l7.549 9.547zm15.686 27.904l-42.896 42.979 3.789 3.775 75.963-76.078-83.116-83.178-83.353 83.387 77.108 77.076 4.968-4.977-43.134-43 90.671.016zm-45.213 45.301l-7.29 7.303L8.504 99.533l87.995-88.029 87.753 87.818-80.598 80.719-6.109-6.092zm37.293-42.01H60.051l37.488 37.371 37.299-37.371z"/></g></svg>