<svg xmlns="http://www.w3.org/2000/svg" width="2500" height="2500" viewBox="0 0 192.756 192.756"><path fill-rule="evenodd" clip-rule="evenodd" fill="#fff" d="M0 0h192.756v192.756H0V0z"/><path d="M96.378 10.482c47.665 0 86.54 38.586 86.54 85.896s-38.875 85.896-86.54 85.896c-47.664 0-86.54-38.586-86.54-85.896s38.876-85.896 86.54-85.896z" fill-rule="evenodd" clip-rule="evenodd" fill="#cd352c"/><path d="M96.378 9.148c24.196 0 46.163 9.796 62.083 25.598 15.92 15.803 25.791 37.61 25.791 61.631v.002c0 24.021-9.871 45.828-25.793 61.631-15.918 15.803-37.885 25.598-62.08 25.598h-.001c-24.195 0-46.162-9.795-62.082-25.598C18.375 142.207 8.504 120.4 8.504 96.379v-.002c0-24.021 9.871-45.829 25.792-61.632 15.92-15.801 37.886-25.597 62.08-25.597h.002zm0 2.669h-.002c-23.468 0-44.771 9.497-60.204 24.815-15.432 15.317-25 36.458-25 59.745v.002c0 23.287 9.567 44.428 24.999 59.744 15.434 15.318 36.736 24.816 60.205 24.816h.001c23.468 0 44.771-9.498 60.205-24.816 15.432-15.316 24.998-36.457 24.998-59.744v-.002c0-23.288-9.566-44.427-24.998-59.744-15.432-15.319-36.734-24.816-60.204-24.816z"/><path d="M96.134 34.533c34.335 0 62.337 27.892 62.337 62.09 0 34.199-28.002 62.09-62.337 62.09-34.334 0-62.337-27.891-62.337-62.09-.001-34.198 28.002-62.09 62.337-62.09z" fill-rule="evenodd" clip-rule="evenodd" fill="#fff"/><path d="M96.134 33.198c17.532 0 33.448 7.123 44.983 18.612 11.537 11.491 18.689 27.347 18.689 44.811v.002c0 17.465-7.154 33.322-18.691 44.814-11.533 11.488-27.449 18.611-44.98 18.611h-.001c-17.531 0-33.448-7.123-44.982-18.613-11.537-11.49-18.689-27.346-18.689-44.811v-.002c0-17.465 7.153-33.322 18.69-44.813C62.688 40.32 78.604 33.198 96.134 33.197v.001zm0 2.67h-.002c-16.803 0-32.054 6.824-43.104 17.83C41.98 64.701 35.13 79.89 35.13 96.623v.002c0 16.732 6.85 31.92 17.897 42.924 11.05 11.006 26.302 17.83 43.106 17.83h.001c16.802 0 32.054-6.824 43.105-17.83 11.047-11.004 17.896-26.191 17.896-42.926v-.002c0-16.731-6.85-31.919-17.896-42.923-11.05-11.007-26.301-17.83-43.105-17.83z"/><path d="M49.93 57.602c7.742 20.369 6.602 49.656.489 73.625h104.629c-4.482-25.688-6.928-50.557-4.889-73.625H49.93z" fill-rule="evenodd" clip-rule="evenodd" fill="#cd352c"/><path d="M49.732 57.689l-.004-.01-.113-.293h100.78l-.02.235c-1.02 11.522-.918 23.496-.002 35.795.916 12.311 2.648 24.941 4.887 37.773l.045.254H50.141l.069-.27c4.394-17.232 6.216-37.212 4.008-54.639a95.12 95.12 0 0 0-1.755-9.833c-.744-3.153-1.651-6.17-2.731-9.012zm.511.129c1.04 2.779 1.917 5.72 2.641 8.786a95.084 95.084 0 0 1 1.762 9.877c2.204 17.393.407 37.314-3.949 54.529h104.094c-2.221-12.768-3.938-25.328-4.848-37.562-.912-12.24-1.02-24.157-.02-35.63h-99.68z"/><path fill-rule="evenodd" clip-rule="evenodd" d="M55.211 97.793h95.094l1.123 9.93H54.537l.674-9.93zM54.987 81.093h94.644l.224 9.479H55.211l-.224-9.479zM52.514 65.747l1.798 8.575h94.868l.675-8.575H52.514zM53.638 114.494l-1.349 8.801h101.389l-1.35-8.801h-98.69z"/><path d="M101.746 84.929c9.039 0 16.412 4.157 16.412 9.253 0 5.097-7.373 9.253-16.412 9.253-9.039 0-16.411-4.156-16.411-9.253 0-5.096 7.373-9.253 16.411-9.253z" fill-rule="evenodd" clip-rule="evenodd" fill="#cd352c"/><path d="M89.619 95.755l2.8-.174c.061.454.185.803.37 1.041.303.384.737.579 1.301.579.42 0 .745-.1.972-.297.227-.197.34-.426.34-.686 0-.247-.108-.47-.325-.664-.216-.193-.719-.379-1.508-.552-1.291-.291-2.212-.676-2.763-1.157-.554-.481-.832-1.095-.832-1.84 0-.49.142-.953.426-1.387.283-.436.711-.778 1.28-1.027.571-.249 1.353-.374 2.344-.374 1.218 0 2.148.227 2.787.678.638.453 1.019 1.175 1.14 2.163l-2.775.162c-.072-.429-.23-.742-.465-.936-.235-.194-.564-.292-.979-.292-.342 0-.6.072-.773.218a.667.667 0 0 0-.259.529c0 .152.073.289.214.41.138.124.469.244.988.351 1.287.277 2.208.557 2.766.841.557.283.963.638 1.215 1.057.254.42.381.893.381 1.412 0 .61-.17 1.175-.506 1.69-.338.516-.812.906-1.417 1.172-.606.266-1.373.4-2.295.4-1.621 0-2.745-.314-3.368-.936-.623-.623-.977-1.418-1.06-2.379l.001-.002zm16.473-.739l2.58.78c-.174.723-.447 1.33-.818 1.814s-.836.854-1.387 1.1c-.555.246-1.258.369-2.111.369-1.033 0-1.881-.15-2.537-.451s-1.225-.832-1.699-1.59c-.479-.758-.717-1.729-.717-2.913 0-1.577.42-2.79 1.258-3.635.838-.848 2.027-1.272 3.561-1.272 1.199 0 2.145.244 2.828.729.688.484 1.199 1.231 1.533 2.236l-2.602.578c-.09-.291-.186-.504-.285-.637a1.71 1.71 0 0 0-.604-.521 1.75 1.75 0 0 0-.801-.181c-.666 0-1.178.27-1.535.806-.268.398-.402 1.026-.402 1.879 0 1.057.16 1.783.48 2.173.322.391.773.59 1.354.59.562 0 .99-.16 1.277-.475s.498-.777.627-1.379zm4.129-5.638l2.951.002v9.53h-2.951v-9.532z" fill-rule="evenodd" clip-rule="evenodd"/><path fill-rule="evenodd" clip-rule="evenodd" fill="#fff" d="M45.559 49.361l6.683-.292-1.743 2.917v86.639l-3.197.291V52.278l-1.743-2.917z"/><path d="M45.53 48.693l6.684-.292 1.234-.054-.635 1.062-1.647 2.756v87.065l-.607.055-3.196.291-.728.066V52.458l-1.647-2.755-.574-.959 1.116-.051zm5.506 1.098l-4.333.189 1.17 1.957.096.161V138.19l1.862-.172V51.806l.096-.161 1.109-1.854z"/><path d="M31.109 126.787l-1.097-2.412c.785-.438 1.294-.955 1.529-1.547.234-.594.218-1.283-.05-2.062-.285-.824-.673-1.387-1.165-1.684-.495-.299-.977-.367-1.444-.205-.3.102-.525.277-.675.525-.149.246-.227.621-.233 1.113.002.334.051 1.082.154 2.242.132 1.492.045 2.602-.26 3.324-.43 1.02-1.148 1.701-2.153 2.047a3.45 3.45 0 0 1-2.002.076c-.688-.172-1.302-.553-1.831-1.143-.532-.588-.967-1.371-1.303-2.348-.548-1.592-.611-2.912-.192-3.955.422-1.045 1.211-1.791 2.363-2.234l.993 2.527c-.612.332-1 .73-1.162 1.188-.162.459-.118 1.051.13 1.773.256.744.612 1.275 1.06 1.59.29.205.602.25.929.137.299-.104.513-.32.638-.646.161-.418.174-1.301.037-2.646-.134-1.35-.146-2.379-.038-3.082.108-.705.379-1.324.807-1.848s1.047-.928 1.849-1.203a3.954 3.954 0 0 1 2.25-.098c.775.188 1.445.598 2.008 1.229s1.035 1.502 1.414 2.604c.552 1.604.605 2.965.159 4.078-.446 1.115-1.349 2.004-2.711 2.658l-.004.002zm-.436-14.916l-13.292 1.869-.606-4.309c-.229-1.633-.311-2.705-.248-3.221.092-.789.438-1.488 1.032-2.094.594-.607 1.424-.988 2.481-1.137.816-.113 1.524-.061 2.121.156s1.089.533 1.469.945c.38.41.658.848.825 1.303.216.623.411 1.543.582 2.758l.246 1.75 5.015-.705.375 2.685zM19.25 110.74l3.774-.531-.207-1.469c-.148-1.057-.317-1.754-.505-2.092a1.803 1.803 0 0 0-.771-.748 1.798 1.798 0 0 0-1.076-.16c-.482.068-.863.268-1.137.594a1.884 1.884 0 0 0-.439 1.164c-.013.326.046.977.183 1.945l.178 1.297zm3.107-12.121c-1.361-.096-2.494-.381-3.392-.854a6.305 6.305 0 0 1-1.748-1.377 5.172 5.172 0 0 1-1.084-1.814c-.295-.858-.404-1.836-.328-2.925.138-1.972.861-3.508 2.167-4.606 1.308-1.098 3.053-1.572 5.231-1.42 2.161.152 3.811.858 4.949 2.118 1.138 1.259 1.64 2.875 1.503 4.841-.14 1.991-.858 3.533-2.153 4.623-1.297 1.092-3.013 1.563-5.145 1.414zm.102-2.795c1.517.106 2.693-.161 3.525-.806s1.285-1.51 1.361-2.586c.074-1.077-.252-1.989-.979-2.733-.73-.745-1.872-1.174-3.422-1.283-1.534-.107-2.705.15-3.506.769-.8.618-1.242 1.488-1.32 2.601-.078 1.114.241 2.042.956 2.776.716.734 1.846 1.158 3.387 1.266l-.002-.004zm7.879-12.815l-12.767-4.147 1.764-5.427c.443-1.363.882-2.319 1.309-2.861.43-.542 1.001-.905 1.706-1.086.707-.18 1.439-.149 2.192.095.96.312 1.66.852 2.102 1.616.44.766.56 1.737.358 2.909.505-.451 1.013-.798 1.52-1.033.507-.235 1.359-.501 2.55-.793l2.996-.75-1.002 3.084-3.382.96c-1.207.338-1.982.588-2.318.749-.339.159-.602.36-.784.601-.185.242-.374.66-.566 1.253l-.17.522 5.33 1.732-.838 2.576zm-6.532-4.972l.622-1.907c.401-1.234.6-2.026.598-2.365a1.442 1.442 0 0 0-.306-.898c-.198-.257-.492-.449-.874-.573-.429-.14-.814-.137-1.152.004-.339.144-.611.414-.816.808-.096.2-.316.825-.656 1.867l-.654 2.012 3.238 1.052zm12.713-11.312l-9.658-5.577-1.992 3.45-1.967-1.136 5.335-9.238 1.966 1.136-1.987 3.441 9.658 5.577-1.355 2.347zM50.45 41.798l2.549-1.048c.633 1.38.82 2.646.559 3.79-.26 1.147-.943 2.185-2.047 3.11-1.367 1.146-2.882 1.623-4.541 1.427-1.662-.196-3.174-1.103-4.53-2.72-1.436-1.711-2.11-3.414-2.021-5.101.091-1.689.856-3.138 2.295-4.346 1.259-1.056 2.593-1.542 4.002-1.459.836.05 1.718.388 2.641 1.014l-1.644 2.215c-.568-.43-1.178-.638-1.82-.623-.643.015-1.243.254-1.794.716-.762.639-1.151 1.434-1.168 2.376-.015.945.491 2.034 1.519 3.258 1.09 1.299 2.103 2.03 3.032 2.189.93.161 1.772-.075 2.519-.701.553-.463.882-1.038.983-1.721.104-.685-.073-1.478-.532-2.375l-.002-.001zm7.958.033l-6.454-11.646 2.37-1.313 5.357 9.667 5.895-3.267 1.096 1.978-8.264 4.581zm6.749-18.815l2.578-.834 2.246 6.915c.356 1.096.62 1.8.791 2.103.278.486.68.822 1.197 1.002.518.18 1.139.155 1.857-.079.73-.237 1.232-.566 1.507-.986.273-.419.381-.861.314-1.319-.067-.459-.262-1.195-.591-2.206l-2.294-7.063 2.577-.837 2.178 6.707c.498 1.532.78 2.639.846 3.314.066.678-.017 1.297-.249 1.854-.234.558-.624 1.068-1.167 1.529-.542.46-1.319.856-2.33 1.185-1.219.396-2.189.556-2.909.479-.722-.076-1.339-.28-1.851-.611-.512-.331-.908-.728-1.183-1.181-.405-.678-.841-1.73-1.305-3.158l-2.212-6.814zm16.344-4.665l5.326-.651c1.055-.129 1.846-.182 2.375-.159a3.499 3.499 0 0 1 1.458.381 3.44 3.44 0 0 1 1.16.987c.328.431.529.934.6 1.51a3.134 3.134 0 0 1-.292 1.778 3.157 3.157 0 0 1-1.225 1.341c.839.135 1.513.462 2.018.977.505.518.807 1.161.902 1.93a4.003 4.003 0 0 1-.204 1.82 3.59 3.59 0 0 1-.985 1.513c-.446.403-1.022.69-1.729.855-.441.104-1.521.268-3.232.488l-4.537.557-1.635-13.327zm2.962 1.888l.378 3.084 1.763-.217c1.047-.128 1.699-.225 1.949-.285.453-.11.796-.316 1.025-.609.231-.296.321-.661.269-1.091-.05-.411-.206-.733-.462-.961-.259-.229-.617-.344-1.073-.343-.269.003-1.038.081-2.303.236l-1.546.186zm.65 5.299l.438 3.565 2.489-.306c.97-.119 1.583-.224 1.835-.308.391-.122.695-.338.912-.65.217-.311.296-.706.239-1.178-.049-.399-.188-.729-.416-.983s-.533-.425-.914-.506c-.383-.081-1.187-.049-2.411.102l-2.172.264zm21.813 5.868l2.332-13.219 2.668.471-2.332 13.219-2.668-.471zm6.154 1.052l4.148-12.766 2.508.815 2.455 10.224 2.77-8.525 2.396.779-4.148 12.766-2.588-.841-2.441-9.998-2.707 8.325-2.393-.779zm16.086 6.778l5.408-9.754-3.484-1.932 1.102-1.986 9.33 5.173-1.102 1.986-3.475-1.927-5.408 9.754-2.371-1.314zm7.832 5.066l8.627-10.284 7.625 6.4-1.459 1.739-5.549-4.657-1.912 2.279 5.162 4.333-1.455 1.733-5.162-4.333-2.35 2.798 5.746 4.821-1.455 1.732-7.818-6.561zm10.098 9.064l10.859-7.891 3.354 4.617c.842 1.159 1.357 2.076 1.545 2.741.186.666.143 1.341-.125 2.018-.27.678-.725 1.253-1.365 1.718-.816.593-1.666.843-2.541.751-.879-.095-1.736-.568-2.564-1.42.066.673.049 1.288-.059 1.836-.107.548-.393 1.394-.857 2.53l-1.154 2.864-1.906-2.624 1.211-3.301c.436-1.174.689-1.949.758-2.314.07-.368.062-.698-.025-.988-.088-.291-.312-.69-.68-1.195l-.322-.443-4.535 3.294-1.594-2.193zm7.861-2.362l1.178 1.624c.762 1.051 1.285 1.676 1.561 1.874.279.198.584.292.906.282.324-.011.654-.134.979-.371.365-.265.59-.579.674-.935.082-.358.023-.737-.174-1.135-.105-.195-.482-.741-1.127-1.628l-1.242-1.711-2.755 2zm.385 14.226l12.166-5.671 1.113 2.389-5.803 8.768 8.125-3.788 1.064 2.283-12.166 5.672-1.15-2.466 5.646-8.604-7.934 3.698-1.061-2.281zm8.039 25.131l-.562-2.894 2.768-1.732-1.023-5.27-3.203-.504-.549-2.822 14.174 2.571.547 2.815-12.152 7.836zm4.262-5.911l4.537-2.765-5.238-.832.701 3.597zm.884 16.915l-.836 2.627c-1.465-.402-2.555-1.072-3.264-2.008-.711-.936-1.066-2.127-1.066-3.568 0-1.783.609-3.25 1.826-4.396 1.217-1.147 2.885-1.722 4.994-1.722 2.234 0 3.973.578 5.207 1.73 1.236 1.155 1.855 2.674 1.854 4.553 0 1.641-.484 2.977-1.455 4.002-.574.609-1.4 1.066-2.473 1.371l-.641-2.682c.695-.158 1.246-.492 1.646-.994.402-.502.605-1.117.605-1.836 0-.994-.357-1.803-1.07-2.421-.713-.62-1.873-.932-3.471-.932-1.695 0-2.908.307-3.627.916-.721.608-1.082 1.405-1.082 2.38 0 .723.229 1.344.688 1.859.459.52 1.18.895 2.16 1.119h.005v.002zm-5.679 5.854l13.293 1.869-.377 2.684-13.293-1.869.377-2.684zm5.564 7.631c1.305.4 2.346.932 3.113 1.596a6.332 6.332 0 0 1 1.393 1.732c.367.662.584 1.336.648 2.014.094.902-.02 1.879-.338 2.922-.578 1.891-1.629 3.225-3.148 4.002-1.521.775-3.328.844-5.416.207-2.07-.635-3.521-1.695-4.346-3.178-.826-1.484-.953-3.17-.375-5.055.584-1.908 1.631-3.25 3.137-4.02 1.51-.771 3.289-.845 5.332-.22zm-.728 2.701c-1.455-.445-2.662-.449-3.617-.008s-1.592 1.182-1.908 2.215c-.314 1.031-.201 1.994.34 2.883.543.889 1.561 1.564 3.047 2.02 1.469.449 2.668.461 3.588.039.918-.422 1.545-1.17 1.871-2.236.326-1.068.225-2.045-.307-2.92-.533-.877-1.539-1.545-3.016-1.996l.002.003zm-11.106 10.533l11.383 7.115-1.398 2.234-10.514-.092 7.602 4.752-1.336 2.137-11.383-7.115 1.443-2.307 10.291.049-7.424-4.639 1.336-2.134zm-16.285 20.676l2.012-2.156 3.027 1.223 3.662-3.926-1.475-2.889 1.961-2.102 6.252 12.977-1.957 2.098-13.482-5.225zm7.289-.026l4.902 2.043-2.406-4.725-2.496 2.682zm-9.6 1.205l7.824 10.771-2.191 1.594-6.496-8.943-5.453 3.961-1.33-1.828 7.646-5.555zM53.014 164.65l-2.165-1.387 5.226-8.154a8.806 8.806 0 0 1-3.848-.15l1.259-1.965c.683.178 1.524.221 2.514.131.993-.092 1.836-.404 2.521-.936l1.757 1.129-7.264 11.332zm11.293-1.933c-.489-.529-.767-1.084-.836-1.654a3.019 3.019 0 0 1 .261-1.656c.417-.908 1.081-1.516 1.985-1.814.906-.303 1.945-.186 3.114.35 1.157.531 1.92 1.242 2.29 2.127.368.887.343 1.789-.074 2.695-.259.562-.637 1.002-1.132 1.307s-1.065.453-1.705.441c.552.582.885 1.215.998 1.895.113.684.013 1.365-.3 2.047-.516 1.123-1.295 1.875-2.336 2.248-1.04.375-2.158.289-3.35-.258-1.107-.508-1.897-1.225-2.366-2.145-.556-1.086-.557-2.23-.009-3.426a3.859 3.859 0 0 1 1.322-1.588c.58-.4 1.293-.592 2.134-.566l.004-.003zm1.561-2.133c-.214.467-.249.893-.106 1.271.142.383.434.674.871.875.442.203.86.234 1.246.094.386-.139.688-.445.902-.91.201-.438.229-.852.087-1.232-.142-.383-.43-.676-.863-.875-.446-.205-.866-.236-1.255-.092-.388.145-.683.436-.883.871l.001-.002zm-2.611 5.121c-.295.645-.364 1.221-.199 1.732.164.512.496.883.988 1.107.48.221.959.23 1.434.029.474-.199.862-.627 1.162-1.281.262-.57.313-1.105.151-1.596-.162-.494-.493-.855-.985-1.082-.57-.262-1.087-.26-1.546.004-.46.264-.797.629-1.008 1.088l.003-.001zm9.864 5.147l2.468.408c-.079.504-.027.908.153 1.211.18.303.475.512.879.625.511.143 1.012.031 1.499-.338.49-.367.993-1.281 1.508-2.732-.824.549-1.704.691-2.636.43-1.016-.285-1.783-.922-2.299-1.912-.517-.99-.601-2.115-.249-3.371.367-1.309 1.053-2.256 2.054-2.838 1.004-.584 2.107-.707 3.31-.369 1.31.365 2.244 1.174 2.799 2.42.555 1.248.508 3.035-.142 5.354-.661 2.359-1.576 3.939-2.744 4.74-1.167.799-2.454 1.002-3.856.609-1.009-.283-1.75-.783-2.222-1.492s-.647-1.627-.524-2.744h.002v-.001zm7.115-3.838c.225-.799.214-1.471-.028-2.012-.245-.543-.609-.883-1.089-1.018a1.492 1.492 0 0 0-1.292.221c-.402.277-.721.826-.952 1.648-.233.832-.24 1.492-.022 1.975.221.482.577.793 1.069.932.476.133.93.057 1.36-.227s.75-.791.954-1.518v-.001zm8.45 3.052c-.641-.33-1.091-.756-1.351-1.268a3.027 3.027 0 0 1-.322-1.648c.082-.994.498-1.791 1.245-2.383.748-.594 1.764-.84 3.046-.736 1.269.104 2.229.512 2.879 1.217.65.707.934 1.562.853 2.557a2.912 2.912 0 0 1-.618 1.615c-.36.457-.846.791-1.45.998.718.357 1.246.838 1.586 1.439.339.602.479 1.279.418 2.025-.101 1.232-.576 2.205-1.425 2.912s-1.93 1.008-3.236.902c-1.215-.1-2.203-.502-2.958-1.205-.894-.83-1.287-1.904-1.18-3.217a3.857 3.857 0 0 1 .699-1.945c.408-.574 1.012-.998 1.811-1.262l.003-.001zm.737-2.537c-.042.51.071.922.335 1.23.264.311.638.484 1.118.523.485.041.888-.074 1.203-.338.315-.262.494-.654.536-1.164.039-.479-.076-.877-.338-1.188-.264-.311-.636-.488-1.11-.527-.49-.039-.896.074-1.211.344-.316.268-.493.641-.532 1.121v-.001h-.001zm-.701 5.705c-.058.705.075 1.271.404 1.695s.768.66 1.308.703c.527.043.98-.111 1.357-.463.377-.35.595-.885.653-1.602.051-.627-.083-1.145-.404-1.553-.32-.406-.755-.635-1.294-.678-.626-.051-1.111.125-1.453.531a2.381 2.381 0 0 0-.574 1.367h.003zM111.602 175.67l1.289-5.793-4.895-3.182 5.705-.504 1.237-5.23 2.169 4.93 5.84-.516-4.259 3.99 2.144 5.358-4.939-2.934-4.291 3.881zM30.621 144.998l5.103-3.027-1.03-5.746 4.272 3.812 4.659-2.68-2.107 4.957 4.374 3.905-5.825-.373-2.436 5.23-1.244-5.609-5.766-.469z" fill-rule="evenodd" clip-rule="evenodd"/></svg>