<svg height="367" width="2500" xmlns="http://www.w3.org/2000/svg" viewBox="-29.19011432825537 -28.758320019863763 192.64911432825537 81.50964003972756"><g fill="#006cb8"><path d="M58.464 15.578c-.143-.218-.311-.429-.573-.429h-3.6a.492.492 0 0 0-.486.479v1.295a.5.5 0 0 0 .492.492h4.108v1.656h-4.102a.492.492 0 0 0-.492.479v1.046a.479.479 0 0 0 .479.479s3.081.037 3.623 0a.878.878 0 0 0 .666-.467l1.463-1.762h1.643v4.065h-16.4v-1.868h2.49a.492.492 0 0 0 .479-.492v-4.98a.486.486 0 0 0-.486-.473h-2.484v-1.792h16.4v4.39h-1.62zM76.452 20.696a.822.822 0 0 1-.71.386h-4.164a.473.473 0 0 1-.479-.473v-4.98a.492.492 0 0 1 .486-.479h2.334v-1.844H62.945v1.836h2.38a.473.473 0 0 1 .479.473v4.981a.486.486 0 0 1-.492.473h-2.367v1.867h16.719v-4.084h-1.662zM93.151 22.917h-2.409l-4.6-6.131a.212.212 0 0 0-.349.143v3.735a.473.473 0 0 0 .473.486h2.042v1.83h-7.407v-1.868h2.035a.473.473 0 0 0 .479-.479v-4.75c0-.261-.212-.734-.479-.734h-2.035v-1.843h8.714l3.878 5.229 3.592-5.229h5.751v1.836h-1.942a.473.473 0 0 0-.473.473v4.981a.479.479 0 0 0 .486.473h1.93v1.867h-7.314v-1.868h1.992c.349 0 .5-.137.5-.542v-4.388c.056-.162-.237-.143-.268 0z"/><path d="M110.011 12.958c-3.33.349-7.513 2.116-7.513 5.129s3.778 4.83 7.575 5.235c5.222.685 11.173-1.295 14.385-5.229a16.259 16.259 0 0 0-14.447-5.135zm2.185 8.347c-2.1 0-3.8-1.432-3.8-3.187s1.681-3.2 3.8-3.2 3.8 1.425 3.8 3.187-1.7 3.2-3.8 3.2z"/><path d="M141.381 15.622a.479.479 0 0 1 .479-.473h2.409v-1.843h-8.16v1.836h2.4a.479.479 0 0 1 .473.479v4.65c0 .255-.205.3-.305.149l-6.166-7.114h-8.82v1.836h2.4a.461.461 0 0 1 .467.473v4.981a.5.5 0 0 1-.492.492h-2.375v1.867h8.179v-1.868h-2.446a.461.461 0 0 1-.448-.479v-4.52c0-.274.174-.3.255-.149l5.5 6.978h6.654v-7.3M151.353 21.08a.486.486 0 0 0 .473-.486v-4.948a.486.486 0 0 0-.467-.492h-2.49c-.261 0-.4.261-.473.467l-1.015 1.93h-1.867v-4.245h17.945v4.226h-1.818l-1.108-1.923c-.1-.243-.237-.467-.479-.473h-2.49a.486.486 0 0 0-.473.486v4.98a.486.486 0 0 0 .479.479h2.34v1.867h-10.823V21.08zM41.841 17.993h-.784a2.334 2.334 0 1 0 0-4.668H26.192v1.867h2.415a.492.492 0 0 1 .5.467v4.98a.479.479 0 0 1-.486.473h-2.429v1.867h15.649a2.49 2.49 0 1 0 0-4.936zm-7.426-2.845h3.542a1.033 1.033 0 0 1 1.027 1.015 1.015 1.015 0 0 1-1.04 1.027H34.39zm3.557 5.937h-3.551v-2.04h3.523a1.033 1.033 0 0 1 1.033 1.021 1.021 1.021 0 0 1-1 1.021zM32.05 8.883a.486.486 0 0 0 .473-.492V3.449a.479.479 0 0 0-.467-.492h-2.49c-.261 0-.4.261-.473.473L28.06 5.347h-1.867V1.102h17.98v4.23h-1.8l-1.148-1.9c-.1-.243-.237-.467-.479-.479h-2.49a.486.486 0 0 0-.483.479v4.98a.492.492 0 0 0 .486.479h2.34v1.836H29.785V8.858zM62.204 8.888a.716.716 0 0 1-.685-.336s-5.44-6.685-6.038-7.438h-8.216v1.867h2.49l-4.239 5.6c-.168.274-.286.324-.666.355h-1.986v1.824h7.208V8.895H48.51c-.56 0-.436-.324-.274-.542s.417-.554.678-.554h5.907c.261 0 .454.305.622.566.162.38.037.529-.423.529h-1.244v1.824h9.337V8.851zM53.079 5.95h-2.615c-.224 0-.317-.149-.187-.305s.965-1.245 1.17-1.513a.3.3 0 0 1 .529 0c.187.237 1.12 1.313 1.245 1.432.156.218.044.386-.142.386zM79.556 8.229a1.425 1.425 0 0 0 1.245.666h2.023v1.824h-7.133l-3.89-4.357s-.529-.542-.542.255v4.065h-6.847V8.895h1.562a.492.492 0 0 0 .492-.479v-4.98a.492.492 0 0 0-.5-.473h-1.55V1.096h6.847v3.735c-.05.622.5.081.5.081l1.625-1.32s.5-.274.5-.622V1.115h8.515v1.867H80.05a1.612 1.612 0 0 0-1.245.56L77.162 4.98c-.486.311 0 .672 0 .672zM103.42 8.888c-.417 0-.454-.1-.685-.33 0 0-5.453-6.716-6.05-7.469h-8.241v1.867h2.49l-4.245 5.6c-.162.274-.28.336-.666.361h-1.949v1.867h7.214V8.919h-1.562c-.566 0-.442-.324-.28-.548s.417-.529.685-.529h5.9c.261 0 .454.286.622.548.162.38.037.529-.423.529h-1.245v1.867h9.368V8.919zM93.865 5.95h-2.621c-.218 0-.311-.143-.18-.305s.965-1.245 1.17-1.506a.3.3 0 0 1 .529 0c.187.23 1.12 1.307 1.245 1.432.156.211.038.379-.143.379zM145.614 8.888c-.417 0-.454-.1-.685-.33 0 0-5.453-6.716-6.05-7.469h-8.241v1.867h2.49s-3.884 5.073-4.236 5.553c-.168.274-.286.324-.672.355h-1.958v1.867h7.214V8.863h-1.562c-.566 0-.442-.324-.28-.548s.423-.529.685-.529h5.9c.261 0 .454.286.622.548.162.38.037.529-.423.529h-1.245v1.867h9.368V8.863zm-9.131-2.938h-2.621c-.224 0-.317-.143-.187-.305s.965-1.245 1.176-1.506.342-.23.523 0 1.127 1.307 1.245 1.432c.181.211.044.379-.136.379zM113.184 6.71a.5.5 0 0 1 .367.168l4.457 3.839h7.071V8.895h-1.718c-.94 0-.94-.168-1.475-.622l-1.394-1.363a3.327 3.327 0 0 0 2.49-2.87c0-1.245-.622-2.913-3.616-2.913H105.59v1.867h1.708a.479.479 0 0 1 .486.473v4.98a.492.492 0 0 1-.479.492h-1.73v1.824h8.746v-1.88h-1.139a.492.492 0 0 1-.486-.486V7.19a.486.486 0 0 1 .488-.48zm-.467-3.735h4.081a.872.872 0 0 1 .04 1.742h-4.12zM16.009 23.851a53.686 53.686 0 0 0 6.909-.945A54.715 54.715 0 0 0 24.008 12a54.807 54.807 0 0 0-1.089-10.912A54.884 54.884 0 0 0 12.007 0c-1.083 0-2.154.031-3.218.093V8h7.22z"/><path d="M8.789 15.995v7.911q1.6.093 3.212.093c1.083 0 2.154-.031 3.218-.093v-7.911zM8 .143a55.962 55.962 0 0 0-6.909.945 55.167 55.167 0 0 0 0 21.817A53.686 53.686 0 0 0 8 23.85z"/></g></svg>