<svg xmlns="http://www.w3.org/2000/svg" width="2500" height="2500" viewBox="0 0 192.756 192.756"><g fill-rule="evenodd" clip-rule="evenodd"><path fill="#fff" d="M0 0h192.756v192.756H0V0z"/><path d="M67.542 26.698c7.688 0 13.936 7.543 13.936 16.771 0 2.07-.316 4.07-.913 5.93l-25.202 2.21a19.337 19.337 0 0 1-1.791-8.14c.001-9.227 6.284-16.771 13.97-16.771z" fill="#d1be99" stroke="#000" stroke-width=".105" stroke-miterlimit="2.613"/><path stroke="#000" stroke-width=".105" stroke-miterlimit="2.613" d="M72.317 25.575l-9.934-.526.351 1.614-4.914-.526 1.439 1.614.211 1.368-5.511.667 4.107 2.877 1.404-.772 1.579-.071 4.423 2.001-1.51-2.001.246-.421 5.476-.175-1.158-.877.245-.632 11.127-.175-7.581-3.965zM63.927 38.873c.878 0 1.58 1.123 1.58 2.456s-.702 2.456-1.58 2.456c-.877 0-1.579-1.123-1.579-2.456s.702-2.456 1.579-2.456z"/><path fill="#615c52" stroke="#000" stroke-width=".105" stroke-miterlimit="2.613" d="M16.928 117.5l28.536-23.332 3.756 5.719L21 123.184l-4.072-5.684zM59.645 138.165l.07-36.84 6.81.702.105 36.594-6.985-.456z"/><path d="M72.632 38.136c.878 0 1.58 1.123 1.58 2.456s-.702 2.456-1.58 2.456c-.877 0-1.579-1.123-1.579-2.456s.702-2.456 1.579-2.456z" stroke="#000" stroke-width=".105" stroke-miterlimit="2.613"/><path fill="#cc2229" stroke="#000" stroke-width=".105" stroke-miterlimit="2.613" d="M65.683 105.255l11.899-39.928-24.781-6.525-10.6 38.804 23.482 7.649z"/><path d="M53.994 53.749c7.687 2.07 15.374 4.175 23.061 6.245-3.334 4.421-7.617 7.053-14.005 5.93-5.265-1.368-8.214-6.07-9.056-12.175z" fill="#d1be99" stroke="#000" stroke-width=".105" stroke-miterlimit="2.613"/><path fill="#cc2229" stroke="#000" stroke-width=".105" stroke-miterlimit="2.613" d="M21.491 69.818l31.24-11.999 2.211 5.649-31.239 12.315-2.212-5.965z"/><path fill="#d1be99" stroke="#000" stroke-width=".105" stroke-miterlimit="2.613" d="M16.577 71.292l5.651-2.562 2.563 5.65-5.652 2.56-2.562-5.648z"/><path fill="#cc2229" stroke="#000" stroke-width=".105" stroke-miterlimit="2.613" d="M71.264 67.047l23.693-23.648 4.316 4.28-23.552 23.928-4.457-4.56z"/><path fill="#d1be99" stroke="#000" stroke-width=".105" stroke-miterlimit="2.613" d="M94.992 42.697l5.09-3.509 3.51 5.088-5.09 3.509-3.51-5.088z"/><path d="M57.855 92.659a.482.482 0 0 1-.597.351c-.28-.07-.421-.315-.351-.596l4.142-15.753-5.686 1.193a.492.492 0 0 1-.597-.351.547.547 0 0 1 .386-.597l13.057-2.771c.246-.035.526.141.562.386a.491.491 0 0 1-.351.596l-6.283 1.333-4.282 16.209z"/><path stroke="#000" stroke-width=".105" stroke-miterlimit="2.613" d="M75.125 141.288h-15.48v-4.877h15.48v4.877zM17.735 125.569l-9.231-12.42 3.931-2.912 9.232 12.42-3.932 2.912z"/><path fill="#615c52" stroke="#000" stroke-width=".105" stroke-miterlimit="2.613" d="M151.504 138.165l.07-36.84 6.809.702.105 36.594-6.984-.456z"/><path stroke="#000" stroke-width=".105" stroke-miterlimit="2.613" d="M166.982 141.288h-15.478v-4.877h15.478v4.877z"/><path fill="#615c52" stroke="#000" stroke-width=".105" stroke-miterlimit="2.613" d="M107.838 125.499l28.537-23.297 3.756 5.684-28.221 23.332-4.072-5.719z"/><path stroke="#000" stroke-width=".105" stroke-miterlimit="2.613" d="M108.645 133.604l-9.231-12.456 3.932-2.912 9.195 12.421-3.896 2.947z"/><path fill="#00acec" stroke="#000" stroke-width=".105" stroke-miterlimit="2.613" d="M134.76 110.062l-11.899-39.928 24.782-6.526 10.599 38.805-23.482 7.649z"/><path d="M139.99 31.259c7.477 1.684 11.969 10.385 9.934 19.402a19.775 19.775 0 0 1-2.211 5.614l-25.098-3.368v-.035c-.561-2.596-.561-5.438.07-8.351 2.036-8.981 9.794-14.946 17.305-13.262z" fill="#dfcfb0" stroke="#000" stroke-width=".105" stroke-miterlimit="2.613"/><path fill="#fff22d" stroke="#000" stroke-width=".105" stroke-miterlimit="2.613" d="M134.34 28.838l9.828 1.684-.668 1.474 4.879.562-1.754 1.297-.527 1.264 5.265 1.859-4.668 1.895-1.193-1.053-1.51-.421-4.773.983 1.929-1.65-.14-.42-5.334-1.369 1.332-.596-.068-.702-10.848-2.596 8.25-2.211z"/><path d="M133.777 42.347c.877.21 1.334 1.438 1.018 2.736-.279 1.298-1.229 2.246-2.07 2.035-.842-.176-1.299-1.403-1.018-2.737.316-1.298 1.229-2.21 2.07-2.034zM142.447 43.539c.842.176 1.299 1.403 1.018 2.737-.316 1.298-1.229 2.21-2.105 2.035-.842-.21-1.299-1.438-.982-2.736.278-1.299 1.227-2.211 2.069-2.036z" stroke="#000" stroke-width=".105" stroke-miterlimit="2.613"/><path d="M124.406 61.257c7.791-1.719 15.584-3.474 23.342-5.193-.877 5.474-3.475 9.824-9.652 11.754-5.301 1.264-10.11-1.543-13.69-6.561z" fill="#dfcfb0" stroke="#000" stroke-width=".105" stroke-miterlimit="2.613"/><path fill="#00acec" stroke="#000" stroke-width=".105" stroke-miterlimit="2.613" d="M179.338 74.625L148.1 62.626l-2.213 5.648 31.24 12.316 2.211-5.965z"/><path fill="#dfcfb0" stroke="#000" stroke-width=".105" stroke-miterlimit="2.613" d="M184.252 76.099l-5.65-2.562-2.563 5.65 5.65 2.525 2.563-5.613z"/><path fill="#00acec" stroke="#000" stroke-width=".105" stroke-miterlimit="2.613" d="M123.703 70.029L94.746 86.8l2.983 5.262 29.24-16.56-3.266-5.473z"/><path fill="#dfcfb0" stroke="#000" stroke-width=".105" stroke-miterlimit="2.613" d="M94.044 86.625l-4.704 3.999 4.002 4.737 4.703-4.035-4.001-4.701z"/><path d="M143.01 90.309c-.246.07-.773.21-1.615.351.352 1.298 1.053 3.544 2.07 6.771.105.315.105.632-.07.947a1.141 1.141 0 0 1-.701.632c-.352.104-.668.07-.947-.07-.316-.176-.492-.421-.598-.772l-1.229-3.753c-.387-1.228-.877-3.018-1.475-5.333a106.077 106.077 0 0 0-1.404-5.368l-.561-1.754c-.281-.842-.422-1.474-.457-1.895-.035-.807.281-1.263.949-1.368.244-.176.596-.351 1.088-.562.49-.21 1.088-.421 1.824-.632 1.545-.526 3.193-.456 4.879.175 1.896.667 3.09 1.86 3.615 3.509.668 2.105.422 4.035-.771 5.79-1.052 1.577-2.597 2.7-4.597 3.332zm-2.633-10.316c-.352.141-.703.246-.982.351a7.774 7.774 0 0 0-.738.316l.738 2.351 1.367 5.157 1.475-.28c1.404-.456 2.492-1.228 3.23-2.246.807-1.123 1.018-2.386.596-3.719-.316-.947-1.088-1.614-2.316-1.965-1.159-.315-2.282-.315-3.37.035zM30.828 149.919c-.456 0-1.193-.035-2.211-.105a32.209 32.209 0 0 0-2.177-.105h-.702c.035.877.105 2.316.281 4.315.141 1.86.21 3.299.21 4.351 0 .211 0 .562.07 1.018.035.457.07.807.07 1.018 0 .456-.105.808-.246 1.123-.176.456-.457.666-.808.666-.281 0-.491-.104-.702-.28a.885.885 0 0 1-.315-.701c0-.105 0-.246.035-.422.035-.21.07-.351.07-.456 0-.315-.035-.771-.07-1.403-.035-.631-.07-1.122-.07-1.438 0-.912-.07-2.21-.211-3.859a72.173 72.173 0 0 1-.28-3.895l-.878.035c-1.404 0-2.492-.105-3.299-.315-.526-.141-.772-.456-.772-.982 0-.246.07-.491.246-.667.175-.245.421-.351.737-.315.211 0 .737.07 1.545.175.631.07 1.158.105 1.544.105.386 0 .983 0 1.755-.035h1.755c.526 0 1.263.035 2.211.105.982.07 1.72.105 2.211.105.281 0 .526.105.702.28a.983.983 0 0 1 .281.702c0 .28-.105.526-.281.701a.987.987 0 0 1-.701.279zM36.97 162.55c-1.439 0-2.632-.352-3.545-1.088-.983-.807-1.475-1.93-1.475-3.368 0-1.685.421-3.087 1.229-4.21.877-1.229 2.071-1.859 3.545-1.859 1.053 0 1.93.175 2.597.561.842.422 1.229 1.123 1.229 2.035 0 .632-.351 1.229-1.088 1.754-.315.211-.982.597-2.036 1.088l-3.686 1.72c.351.562.807.947 1.369 1.228.526.246 1.158.386 1.86.386.457 0 .948-.069 1.545-.245.772-.211 1.264-.491 1.474-.842.246-.316.456-.491.702-.491.246 0 .457.069.632.245a.77.77 0 0 1 .246.597c0 .702-.562 1.333-1.72 1.824-.982.454-1.93.665-2.878.665zm-.245-8.772c-.808 0-1.439.28-1.966.912-.526.597-.913 1.509-1.194 2.736l2.984-1.403c1.158-.562 2.001-1.052 2.492-1.474-.561-.526-1.333-.771-2.316-.771zM50.8 154.972c-.035.807-.386 1.228-.983 1.228-.526 0-.807-.315-.807-.982 0-.105 0-.315-.035-.667l-.035-.807c-1.018.141-1.825.421-2.422.877-.597.387-1.053 1.018-1.439 1.859v5.298c0 .667-.316.982-.948.982-.562 0-.842-.315-.842-.982v-6.771c0-.211 0-.527.035-.948v-.947c0-.667.281-.982.877-.982.632 0 .948.526.948 1.614 1.229-1.193 2.597-1.789 4.106-1.789.526 0 .913.175 1.158.561.281.422.386.982.386 1.79l.001.666zM60.312 154.972c-.07.807-.386 1.228-.982 1.228-.562 0-.843-.315-.843-.982v-.667l-.035-.807c-1.018.141-1.825.421-2.457.877-.562.387-1.053 1.018-1.438 1.859l.035 5.298c0 .667-.316.982-.948.982-.562 0-.842-.315-.842-.982v-6.771-.948c.035-.421.035-.736.035-.947 0-.667.281-.982.842-.982.632 0 .948.526.948 1.614 1.264-1.193 2.632-1.789 4.142-1.789.491 0 .877.175 1.158.561.246.422.386.982.386 1.79l-.001.666zM69.825 162.76c-.141 0-.351-.14-.667-.456a3.635 3.635 0 0 1-.632-.701c-.632.351-1.194.596-1.65.771a3.425 3.425 0 0 1-1.193.246c-1.474 0-2.598-.422-3.264-1.264-.667-.807-.983-2.035-.983-3.684 0-1.544.526-2.877 1.615-3.965 1.053-1.123 2.352-1.684 3.826-1.684.562 0 1.193.14 1.896.455.877.352 1.299.772 1.299 1.299 0 .176-.07.315-.176.456-.07.245-.14.667-.175 1.192-.035.562-.035 1.299-.07 2.176 0 .771.07 1.403.176 1.895.07.281.281.842.632 1.685.035.104.105.28.21.526l.035.14c0 .281-.07.491-.246.632a.884.884 0 0 1-.633.281zm-2.001-6.737c0-.245 0-.562.035-.877s.105-.667.175-1.053c-.246-.105-.457-.21-.632-.245-.175-.07-.281-.105-.386-.105-1.018 0-1.86.421-2.597 1.229a4.038 4.038 0 0 0-1.088 2.807c0 1.052.176 1.859.562 2.386.387.526.948.771 1.685.771.632 0 1.124-.105 1.58-.315.21-.141.562-.387.983-.737-.212-1.72-.317-2.983-.317-3.861zM79.793 162.795c-.562 0-.842-.315-.948-.912l-.246-2.104a15.524 15.524 0 0 1-.14-2.105c0-.176 0-.491.035-.912.035-.457.035-.737.035-.947 0-1.369-.281-2.07-.772-2.07-.737 0-1.404.421-2.071 1.298-.597.772-1.053 1.755-1.404 2.947 0 .246-.035.562-.07.947-.035.315-.07.632-.07.913 0 .21.035.49.07.877.035.386.07.666.07.877 0 .28-.105.526-.281.701-.176.176-.386.281-.667.281s-.526-.105-.702-.281c-.175-.175-.246-.421-.246-.701 0-.211-.035-.491-.07-.877-.035-.387-.07-.667-.07-.877 0-.667.035-1.579.14-2.737.105-1.192.141-2.104.141-2.771 0-.176 0-.491-.035-.912 0-.387-.035-.702-.035-.913 0-.28.105-.49.281-.666a.958.958 0 0 1 .667-.281c.597 0 .948.422.983 1.264l.035 1.123c1.088-1.439 2.177-2.141 3.335-2.141 1.018 0 1.755.421 2.141 1.333.281.632.421 1.509.457 2.702v1.859c0 .526.07 1.228.21 2.07.141.842.211 1.543.211 2.069a.898.898 0 0 1-.281.667.994.994 0 0 1-.703.279zM87.094 162.725c-1.299 0-2.422-.421-3.299-1.192-.913-.842-1.369-1.965-1.369-3.333 0-1.298.421-2.632 1.299-4.035.948-1.544 2.036-2.315 3.265-2.315.632 0 1.334.141 2.106.456.983.386 1.474.842 1.474 1.368 0 .246-.07.491-.246.667a.75.75 0 0 1-.597.28.839.839 0 0 1-.492-.176c-.14-.104-.28-.21-.386-.315-.386-.315-1.018-.456-1.86-.456-.667 0-1.299.597-1.966 1.754-.562 1.088-.878 2-.878 2.772 0 .877.281 1.544.878 2.034.526.457 1.229.667 2.071.667.386 0 .808-.105 1.229-.315l1.123-.597c.21-.105.351-.14.421-.14.246 0 .457.104.632.28.176.175.246.386.246.666 0 .457-.492.913-1.475 1.334-.877.386-1.579.596-2.176.596zM97.414 162.55c-1.475 0-2.633-.352-3.546-1.088-.983-.807-1.474-1.93-1.474-3.368 0-1.685.421-3.087 1.229-4.21.877-1.229 2.036-1.859 3.51-1.859 1.088 0 1.965.175 2.633.561.807.422 1.229 1.123 1.229 2.035 0 .632-.352 1.229-1.088 1.754-.316.211-.984.597-2.037 1.088l-3.685 1.72c.351.562.808.947 1.334 1.228a4.56 4.56 0 0 0 1.896.386c.42 0 .947-.069 1.543-.245.773-.211 1.264-.491 1.475-.842.211-.316.457-.491.703-.491.244 0 .42.069.596.245s.281.352.281.597c0 .702-.598 1.333-1.721 1.824-.983.454-1.966.665-2.878.665zm-.281-8.772c-.772 0-1.439.28-1.966.912-.492.597-.913 1.509-1.158 2.736l2.983-1.403c1.159-.562 1.965-1.052 2.458-1.474-.528-.526-1.3-.771-2.317-.771zM114.895 151.638c.807-.666 1.227-1.333 1.227-2 0-.315-.033-.525-.139-.666s-.246-.211-.457-.211c-.105 0-.281.176-.527.597-.244.421-.35.667-.35.807-.001.455.07.947.246 1.473zm-.739 2.632c-1.123.771-1.859 1.333-2.246 1.719-.807.772-1.193 1.614-1.193 2.456 0 .702.281 1.264.842 1.72.527.421 1.158.631 1.861.631 1.299 0 2.422-.562 3.369-1.648-.492-.739-1.369-2.352-2.633-4.878zm-1.228-4.106c0-.631.281-1.298.807-1.999.562-.772 1.16-1.158 1.791-1.158.736 0 1.299.28 1.721.771.385.491.596 1.088.596 1.859 0 1.299-.771 2.526-2.316 3.685.492 1.088 1.264 2.456 2.281 4.104.141-.351.211-.701.281-1.088.105-.666.176-1.087.211-1.228.176-.526.455-.807.771-.807.281 0 .492.14.668.456.104.211.174.491.174.771 0 1.334-.314 2.526-.982 3.649 1.053 1.684 1.58 2.666 1.58 2.982 0 .245-.07.456-.246.596a.962.962 0 0 1-.631.246c-.281 0-.527-.141-.738-.491l-1.123-1.895c-1.299 1.228-2.738 1.859-4.352 1.859-1.193 0-2.211-.351-3.055-1.088-.912-.771-1.369-1.754-1.369-2.947 0-1.228.492-2.386 1.439-3.403.527-.597 1.545-1.368 2.984-2.315-.316-.874-.492-1.716-.492-2.559zM131.109 156.444c-.176 0-.561-.035-1.158-.141-.07.983-.105 2.702-.105 5.123a.99.99 0 0 1-.244.667c-.176.14-.387.245-.633.245s-.457-.105-.631-.245a.983.983 0 0 1-.246-.667v-2.842c0-.947.07-2.281.176-4 .141-1.859.209-3.192.209-4v-1.298c0-.667.035-1.122.105-1.403.176-.562.492-.807.949-.736.209-.07.49-.105.877-.141s.842-.07 1.404-.07c1.193 0 2.281.421 3.299 1.229 1.158.877 1.721 1.964 1.721 3.192 0 1.614-.598 2.877-1.826 3.824-1.088.842-2.387 1.263-3.897 1.263zm.493-7.648h-.771c-.211.035-.387.035-.562.07v1.789l-.211 3.824 1.053.141c1.088 0 2.002-.28 2.738-.842.807-.597 1.229-1.403 1.229-2.421 0-.702-.387-1.333-1.158-1.859a4.083 4.083 0 0 0-2.318-.702zM146.836 162.725c-.457 0-.773-.28-.914-.736-.141-.526-.281-1.298-.385-2.28-.105-.913-.176-1.685-.176-2.281 0-.175 0-.421.035-.771v-.736c0-1.229-.281-1.825-.914-1.825-.807 0-1.543.386-2.176 1.123-.316.351-.771 1.087-1.369 2.141 0 2.456-.07 3.929-.281 4.351-.174.421-.455.596-.842.596-.281 0-.49-.07-.701-.245a.864.864 0 0 1-.316-.667c0-.07.035-.21.105-.421.035-.176.07-.632.105-1.403l.035-1.438.035-7.087c.035-.808.035-1.334.035-1.614 0-.315 0-.632-.07-.913a4.04 4.04 0 0 1-.105-.912c0-.28.105-.49.281-.666.209-.211.42-.281.701-.281.527 0 .842.281.912.843.105.632.176 1.192.176 1.684 0 .702-.035 1.403-.07 2.141-.035.702-.07 1.403-.07 2.105l.035.842c.527-.702 1.088-1.229 1.686-1.579a3.679 3.679 0 0 1 1.895-.526c1.09 0 1.826.351 2.213 1.018.279.491.455 1.333.49 2.491l.07 1.824.211 2c.07.771.176 1.438.316 2 .035.105.035.211.035.28a.898.898 0 0 1-.281.667c-.211.17-.422.275-.701.275zM152.029 149.884c-.314 0-.596-.105-.807-.315-.246-.211-.352-.491-.352-.808a.99.99 0 0 1 .352-.771c.211-.211.492-.316.807-.316.281 0 .562.105.773.316a1 1 0 0 1 .35.771c0 .316-.105.597-.35.808-.21.209-.491.315-.773.315zm.422 7.859c0 .386 0 .947.035 1.719s.035 1.333.035 1.72c0 .28-.105.526-.281.701-.141.176-.387.281-.666.281a.9.9 0 0 1-.668-.281.976.976 0 0 1-.281-.701c0-.387 0-.948-.035-1.72s-.035-1.333-.035-1.719c0-.632.035-1.369.105-2.281s.105-1.648.105-2.245c0-.315.07-.526.246-.702.176-.21.422-.28.703-.28.244 0 .49.07.666.28.176.176.246.387.246.702 0 .597 0 1.333-.07 2.245s-.105 1.649-.105 2.281zM158.172 154.515l-.141 4.807c0 .492-.035 1.264-.105 2.246-.035.631-.35.947-.912.947-.631 0-.947-.316-.947-.982 0-.771.035-1.93.105-3.509.07-1.544.105-2.701.105-3.509 0-1.018 0-2.175.035-3.473.035-1.299.035-2.457.035-3.474 0-.667.314-.982.947-.982.631 0 .982.315.982.982 0 1.017-.035 2.175-.07 3.474-.034 1.298-.034 2.455-.034 3.473zM162.98 149.884c-.314 0-.596-.105-.807-.315-.246-.211-.352-.491-.352-.808a.99.99 0 0 1 .352-.771c.211-.211.492-.316.807-.316.316 0 .562.105.773.316a.995.995 0 0 1 .352.771c0 .316-.105.597-.352.808-.21.209-.456.315-.773.315zm.422 7.859c0 .386 0 .947.035 1.719s.035 1.333.035 1.72c0 .28-.07.526-.246.701a.98.98 0 0 1-.701.281.9.9 0 0 1-.668-.281.976.976 0 0 1-.281-.701c0-.387 0-.948-.035-1.72 0-.771-.035-1.333-.035-1.719 0-.632.035-1.369.105-2.281s.105-1.648.105-2.245c0-.315.07-.526.246-.702.176-.21.422-.28.703-.28.279 0 .49.07.666.28a.923.923 0 0 1 .281.702c0 .597-.035 1.333-.105 2.245s-.105 1.649-.105 2.281zM170.773 162.444c-.631 0-1.369-.105-2.141-.315v4.631a.9.9 0 0 1-.281.667c-.176.21-.387.28-.666.28-.281 0-.492-.07-.668-.28a.9.9 0 0 1-.281-.667l.035-3.859v-3.859c-.035-1.403-.07-2.702-.141-3.859l-.139-1.93c0-.491.068-.843.244-1.192.176-.352.457-.562.844-.562a.88.88 0 0 1 .631.281c.141.176.246.386.246.631 0 .07 0 .176-.035.316-.035.211-.035.386-.07.562.562-.386 1.088-.667 1.615-.843a3.903 3.903 0 0 1 1.473-.28c1.299 0 2.283.562 2.879 1.755.492.912.736 2.14.736 3.648 0 1.403-.385 2.562-1.123 3.438-.771.946-1.824 1.437-3.158 1.437zm.666-8.35c-.596 0-1.123.105-1.613.386-.316.176-.773.527-1.299 1.018.105 1.474.141 2.982.141 4.597.701.28 1.404.421 2.105.421.807 0 1.404-.316 1.826-.912.385-.526.561-1.193.561-2.035 0-1.158-.141-2.035-.422-2.596-.279-.598-.736-.879-1.299-.879z"/></g></svg>