<svg xmlns="http://www.w3.org/2000/svg" width="2500" height="2500" viewBox="0 0 192.756 192.756"><g fill-rule="evenodd" clip-rule="evenodd"><path fill="#fff" d="M0 0h192.756v192.756H0V0z"/><path d="M150.219 8.504c-.268 8.012-4.807 15.756-11.75 19.761-4.539 2.67-9.613 4.006-14.953 4.273-5.342-1.603-9.348-5.341-14.154-7.744-2.67-1.335-5.875-2.137-7.211-5.341-1.334-2.404-1.869-5.074-3.471-7.478-2.136 3.205-2.403 7.21-5.875 10.148-6.677 4.54-13.887 8.011-20.83 11.75-3.471-.267-6.943-1.335-10.414-2.136-9.881-3.739-16.29-13.085-17.091-23.233h105.749zm-16.289 54.21c-.535.534-.801 1.068-1.869 1.335-.535.534-1.604 0-1.869-.534-.535-1.335 0-2.67.533-4.006-1.068-.267-2.137-.534-3.203-.267-1.871.534 1.602 2.403 0 3.472-1.068.801-2.137 1.335-3.473 1.335-.801-.534-2.137-1.068-2.137-2.136s1.068-2.137 1.604-2.671l-4.273-1.869c-3.471-1.603-4.807-5.341-5.607-8.545-.801-5.608.266-11.216 4.539-14.687-4.273-4.006-9.346-5.875-14.152-8.279-2.404-1.602-3.205-3.738-4.541-6.142l-.533 27.239-.268.801c-1.87-6.943-2.403-14.687-5.875-21.363H91.47c-5.073 1.869-9.613 5.074-13.886 8.812v.534c.801 1.068 2.403 1.869 2.937 2.938 2.938 5.074 2.404 12.551-1.068 17.09-1.335 2.137-3.739 3.472-5.875 4.54l.801.801c.534 1.335-.267 2.67-.801 3.471 10.415 1.068 21.63.534 32.313.268 8.545-.268 17.09-1.068 24.566 1.602 4.006 4.005 2.672 10.682 3.473 15.755l.533.801c1.068-6.676 1.068-14.42-.533-20.295zm-51.807.267c-.534.801-1.603 1.068-2.67 1.068-1.068-.267-1.869-.801-2.136-1.602s-.267-1.602.267-2.403c.534-.534 1.068-.801 1.602-1.068 1.335-.268 2.67.267 3.205 1.335.266.801.266 1.869-.268 2.67zm9.88-.534a3.476 3.476 0 0 1-3.471 1.335c-.801-.267-1.603-.801-2.136-1.603-.268-1.068 0-2.136.534-2.938 1.335-1.068 3.472-1.068 4.807.267.534.803.801 2.138.266 2.939zm9.081.534c-1.068.801-2.404 1.602-3.74.801-.8-.534-1.602-1.335-1.602-2.137-.267-1.068 0-2.136.534-2.938.802-.267 1.335-.534 1.87-.801 1.602-.267 2.402 1.068 3.203 2.136.536.803.268 1.871-.265 2.939zm9.879-.801c-.801 1.068-1.602 1.603-2.936 1.603-1.068-.267-2.137-.534-2.672-1.869-.533-.801 0-1.87.268-2.671.533-.801 1.602-1.068 2.404-1.068 1.066 0 1.869.267 2.67 1.068.533.8.533 2.136.266 2.937zm8.012.534c-1.068.801-2.137 1.068-3.203.801-1.068-.267-1.604-1.068-1.871-1.602 0-1.336.535-2.404 1.604-3.205 1.334-.267 3.203-.267 4.006 1.335.264 1.069-.001 1.87-.536 2.671zm-55.812 0c.267.801 1.068 2.137 1.869 2.137.801.267 1.602 0 1.87-.802.801-.801-.268-2.136.267-3.204.534-.268 1.335-.534 1.87 0 0 1.068-.534 2.67 1.068 3.204.534.267 1.068.267 1.603.802-.801.267-2.136.534-2.938 1.068-5.608 3.739-4.807 10.949-5.875 16.824-1.068-1.603-.801-4.006-1.335-5.875-.267-5.608 0-11.483 1.869-16.557 1.868.266-.535 1.602-.268 2.403zm66.761 12.017c1.068 5.875 1.336 11.483 1.068 17.625-.268 1.335-1.602 2.137-2.67 2.403-1.604.534-1.336-1.335-1.604-1.869-.533-3.472 0-7.477-1.068-10.949 1.068-1.335.268-3.471.803-5.341 1.602-2.67.533-6.142-.268-8.545.268-.534.533 0 1.068 0 2.138 1.602 2.138 4.272 2.671 6.676zM94.407 69.39c.268 2.67 1.335 6.142-1.068 8.011-.801-.534-1.068-1.603-1.87-1.603-2.136 0-3.204 1.335-5.073 1.603l-2.671-1.068c-1.068 0-1.869 1.335-3.205 1.335 0-.534 0-1.335.268-1.87.534-.534 1.602-1.068 2.403-.534.801.267 1.603-.801 2.404-.801 1.869-.801 4.807.801 5.875-1.869 0-.802-.801-1.335-1.335-2.137-1.602-1.335-3.205.534-4.807 1.068-2.938.267-6.409 0-7.744 3.205 0 .534-.267 1.335-.534 1.869-1.068-1.335-.801-2.938-.267-4.54.801-1.335 1.602-2.403 2.938-3.205a10.113 10.113 0 0 1 4.005 0c2.938-.267 5.608.267 8.546-.801.8.002 1.868.536 2.135 1.337zm-24.835 0c-.801 3.739-.267 8.278 1.068 11.75v12.284l-2.67.534c-3.205-4.54-.534-10.949-1.068-16.022 0-3.205-.534-6.944 2.67-8.546zm38.188 11.216c-.268.267-.268.801-.801.801-.268-.268-1.068-.534-.803-1.336.535-.8 1.604 0 1.604.535zm3.47.534c0 .268-.268.801-.533.801-1.068 0-2.404.267-2.938-.801.268-.534.801-.534 1.334-.801.536.267 1.337.267 2.137.801zm4.807 0s-.266.268-.533.534c-.268 0-.268-.534-.268-.801.268-.267.801 0 .801.267zM96.81 89.418c.268.534-.267.801-.801.801-1.068 0-1.869-.801-2.403-1.602 0-.534.267-.534.534-.801 1.068.534 2.136.534 2.67 1.602zm-57.29 92.031h1.359a1.15 1.15 0 0 0-.223-.706c-.148-.2-.387-.355-.714-.469-.325-.112-.738-.168-1.238-.168-.479 0-.891.073-1.232.218-.344.146-.608.38-.796.706-.187.326-.28.75-.28 1.271.048 1.3.848 1.95 2.402 1.95.373 0 .694-.042.964-.124a1.84 1.84 0 0 0 .65-.327c.164-.136.283-.284.356-.443a1.14 1.14 0 0 0 .111-.487H39.52a.553.553 0 0 1-.211.431c-.141.12-.343.18-.606.18-.207 0-.371-.05-.498-.146s-.219-.234-.279-.413a2.646 2.646 0 0 1-.112-.658c0-.432.056-.771.164-1.017.109-.246.351-.369.725-.369.249 0 .446.055.595.165a.494.494 0 0 1 .222.406zm15.658.773c.059 1.354.896 2.03 2.514 2.03.463 0 .851-.065 1.162-.193.311-.129.552-.299.722-.508.169-.209.287-.43.351-.662s.096-.466.096-.702c0-.406-.066-.746-.199-1.021a1.607 1.607 0 0 0-.538-.643 2.19 2.19 0 0 0-.752-.323 4.123 4.123 0 0 0-.897-.093c-.629 0-1.123.095-1.482.286s-.608.442-.746.754a2.91 2.91 0 0 0-.231 1.075zm1.365-.037c.075-.871.426-1.307 1.049-1.307.364 0 .633.123.81.368.176.245.264.559.264.938 0 .43-.087.752-.262.969-.175.219-.431.327-.768.327a.975.975 0 0 1-.597-.185 1.125 1.125 0 0 1-.373-.48 1.619 1.619 0 0 1-.123-.63zm17.856-1.994v3.976h1.108v-3.326l1.015 3.326h1.209l1.066-3.326v3.326h1.108v-3.976H77.88l-.704 2.632-.71-2.632h-2.067zm20.012 0v3.976h1.322v-1.436h.993c.209 0 .414-.02.613-.06.201-.04.385-.108.553-.204.166-.097.301-.228.402-.396.102-.168.15-.375.15-.622 0-.277-.059-.51-.178-.697-.121-.187-.314-.325-.578-.419-.262-.095-.602-.142-1.019-.142h-2.258zm1.321.772h.498c.572 0 .86.161.86.485 0 .16-.066.286-.199.381-.132.095-.319.143-.562.143h-.596v-1.009h-.001zm18.803-.772l-1.861 3.976h1.35l.322-.736h1.816l.291.736h1.471l-1.82-3.976h-1.569zm1.25 2.419h-1.135l.596-1.604.539 1.604zm16.574-2.419v3.976h1.148v-2.991l1.559 2.991h1.832v-3.976h-1.172v2.942l-1.549-2.942h-1.818zm20.694 2.505v1.471h1.283v-1.471l1.834-2.505h-1.355l-1.031 1.598-1.002-1.598h-1.549l1.82 2.505zm2.773-143.749c-2.135 7.21-8.811 14.153-15.754 17.357-1.068.801-2.672.801-3.205 2.137 1.068 1.602 2.938 1.335 4.006 2.67 1.334 2.67-2.672 2.403-3.473 4.005-1.869 8.812 1.336 18.96-1.869 27.238-1.068 3.205-4.539 5.074-7.477 5.875 2.938 1.068 4.807 4.006 5.34 6.943.268 1.603.535 3.204 0 4.807-2.938-2.671-5.34-5.073-8.277-7.21-1.068 0-1.869-1.869-2.938-1.068-4.539-1.335-9.08-2.671-13.887-3.205l-1.068-.533c-2.402 0-4.807-.268-6.141-2.404-.803-1.068-1.336-2.67-.535-4.005 1.068-2.137 3.738-4.273 6.41-4.006 0-2.938-2.404-4.807-2.938-7.478-.268-1.068 0-2.136.801-2.937 1.334-1.603 2.402.534 3.738.267 2.402-.267 4.807-1.603 6.676 0-.268-1.87-2.137-2.137-3.471-2.67-2.404-.801-5.074.267-6.943-1.335-.535-.801-.268-1.603 0-2.136.801-1.602 2.67-.801 4.006-.801 1.334.267 2.67 1.603 4.271 1.068.801.534 1.869.534 2.938.267l1.604 1.87c.266.267.266 1.068.801 1.068.801-1.602 1.068-4.006-.268-5.341-4.273-1.87-9.346-.801-14.152-1.068-1.336 0-2.672-1.869-3.74-.267-.801 1.335.268 2.403.803 3.738.266 5.074 1.066 9.614 2.67 14.154-1.068 2.403-3.738 2.938-5.875 3.739.268 1.068.533 2.67.268 3.738-.268 1.602-1.068 2.938-2.404 4.006-5.074 1.602-10.415 2.136-15.489 3.204-1.068 0-1.869 1.869-2.67.534-1.603 1.335-3.472.802-5.341 1.068-4.272.801-6.943 4.54-10.147 7.478-.267-5.341 2.67-9.613 6.676-13.086-.801-.801-2.137-.267-2.938-.267-8.812-7.744-4.807-20.295-6.676-30.977-.267-1.602-1.87-1.068-2.67-2.403-1.068-2.136 1.869-2.938 2.67-4.005-4.005-2.404-8.278-4.807-12.551-7.478-4.54-3.472-8.545-8.545-9.881-13.619v129.63c0-1.881 1.179-3.746 6.471-3.715 4.143 0 6.612 1.078 6.612 3.489v1.014h-4.883v-.788c0-1.045-.603-1.544-1.563-1.544h-.054c-.905.032-1.756.161-1.756 1.157v6.096c0 .949 1.069 1.045 1.645 1.045 1.071.032 1.674-.386 1.784-1.189l.054-.516v-1.125h4.828v1.785c0 1.6-1.675 2.488-3.619 2.908h5.473v-12.074h5.084v4.646h3.457v-4.646h5.027v12.074h.33v.019h4.543v-5.033h3.456v5.033h5.027v-11.94h5.234l-4.738 11.94h5.195l.612-2.331h4.056l.672 2.331h5.194l-4.68-11.94h4.845v11.94h5.396l-.52-6.722.066-.032 4.453 6.754h5.916v-11.94h4.59c-1.67.479-2.572 1.377-2.836 2.71 0 .096 0 .177-.057.306.057 3.843 8.219 3.811 8.219 5.82 0 .837-.746 1.287-1.924 1.223-1.008-.032-1.84-.354-1.84-1.189v-.949h-4.656v1.351c0 2.043 3.189 2.962 6.438 2.962 3.881 0 6.957-1.047 6.582-4.312-.402-3.296-8.363-3.296-8.076-5.242.143-.82.947-.917 1.607-.917 1.18 0 1.928.45 1.812 1.737h4.656v-.258c0-1.671-1.297-2.717-3.131-3.24h7.305c-1.773.479-3.037 1.437-3.105 3.176v5.308c.17 2.139 1.617 3.749 6.703 3.749 5.172 0 6.678-1.32 6.904-3.749v-5.308c0-1.675-1.273-2.674-3.086-3.176h4.654v11.94h5.377l-.52-6.722.066-.032 4.438 6.754h5.896V35.476l-.533 3.471zM60.258 176.126h-3.457v-5.015h3.457v5.015zm-20.41 0h-3.123v-3.407c.001 1.794.961 2.907 3.123 3.407zm30.311-11.922h3.456v4.494h-3.456v-4.494zm15.369 7.485l1.46-5.402 1.487 5.402h-2.947zm15.499-7.485h3.863l.545 6.634h-.131l-4.277-6.634zm29.957 2.918c.17-.868.879-1.125 1.705-1.157.908-.032 1.732.258 1.789 1.157v5.469c0 1.045-.398 1.672-1.732 1.672-1.279 0-1.818-.724-1.818-1.544v-5.339l.056-.258zm16.092-2.918h3.852l.541 6.634h-.131l-4.262-6.634zM98.947 96.628c.801 0 1.334 0 1.869.802-.268.534-1.336.534-1.869.534-.535 0-.801 0-1.068-.268-.268-.8.801-.8 1.068-1.068zm30.176 21.097c-2.67.801-1.869 4.006-2.938 6.143-1.869 1.067-3.738 2.938-4.273 5.073-.533 1.335-.801 2.938-2.137 3.738-1.869 0-2.402-4.272-4.539-2.403-2.137.268-2.67-5.607-4.539-1.335-1.068 2.137-.801 4.807-2.67 6.409-3.205-1.068-1.604 5.074-5.074 3.472-2.404.268-1.336 3.738-4.006 3.738-1.336-1.335-1.604-3.471-2.938-4.807-1.869 0-1.335-2.403-2.67-2.938-2.67-1.335-3.205-4.272-4.005-6.676-.267-.534-1.068-.534-1.335 0-1.335.801-1.068 2.67-1.87 3.738-2.136.268-2.67 2.137-4.272 3.205l-1.068-.268c-2.938-4.807-5.875-10.147-11.216-13.085-.267-1.603 0-3.472-1.603-4.54-.801.268-.801.801-.801 1.335-1.068-3.738-1.068-9.079 1.87-12.283 3.204-3.472 8.278-2.671 12.818-3.205 2.136 0 4.272.534 6.142-.534 5.608-3.738 14.42-4.272 20.562-1.067l2.402.801c6.943-.534 13.354 1.335 17.092 6.943 1.601 2.404 1.869 5.608 1.068 8.546zm-88.607 43.306h3.107v-5.737h1.935v-2.108h-6.977v2.108h1.935v5.737zm12.058 0h3.108v-7.846h-3.108v2.651h-1.326v-2.651H48.14v7.846h3.108v-2.891h1.326v2.891zm6.211 0h6.064v-2.043h-3.086v-.88h2.761v-2.043h-2.761v-.837h2.989v-2.043h-5.966v7.846h-.001z"/></g></svg>