<svg xmlns="http://www.w3.org/2000/svg" width="2500" height="2500" viewBox="0 0 192.756 192.756"><path fill-rule="evenodd" clip-rule="evenodd" fill="#fff" d="M0 0h192.756v192.756H0V0z"/><path d="M56.337 125.609l.582.416a.593.593 0 0 1 .499-.249c.458 0 4.49 1.994 8.23 1.994 3.783 0 9.062-1.205 9.062-6.027 0-7.357-13.801-4.032-13.801-7.607 0-1.537 1.954-2.078 4.158-2.078 2.868 0 5.362.749 6.484 1.705.416.332.416.665.457.997l.748.249 2.079-3.906-.458-.458c-.333.166-.457.333-.915.333-.79 0-3.035-1.996-8.147-1.996-5.238 0-8.397 2.286-8.397 5.82 0 7.066 13.801 3.824 13.801 7.44 0 2.12-3.617 2.453-5.113 2.453-1.663 0-6.609-1.123-6.609-2.785 0-.25.041-.541.041-.748l-.79-.208-1.911 4.655zM95.311 110.853l-.499-.291c-.208.125-.374.332-.665.332-.25 0-1.372-.498-2.661-.955-1.247-.457-2.993-.957-5.155-.957-5.445 0-10.725 3.16-10.725 9.354s5.279 9.436 10.393 9.436c4.988 0 8.105-2.494 9.02-2.494.25 0 .458.084.707.209l.416-.209-3.076-4.406-.458.416c.042.333.042.541.042.748 0 .957-3.617 2.661-6.568 2.661-3.242 0-6.485-2.453-6.485-6.443 0-4.032 2.827-6.194 6.776-6.194 3.325 0 5.694 1.455 5.694 2.037 0 .167.042.25.042.374l.458.333 2.744-3.951zM113.541 119.873v6.276c0 .416-.291.624-.623.624v.748h5.238v-.748c-.334 0-.625-.208-.625-.624v-15.547c0-.416.291-.623.625-.623v-.748h-5.238v.748c.332 0 .623.207.623.623v5.861H102.4v-5.861c0-.416.291-.623.623-.623v-.748h-5.236v.748c.332 0 .623.207.623.623v15.547c0 .416-.291.624-.623.624v.748h5.236v-.748c-.332 0-.623-.208-.623-.624v-6.276h11.141zM131.287 108.981c-6.068 0-11.057 3.035-11.057 9.396 0 6.359 4.988 9.394 11.057 9.394 6.07 0 11.057-3.034 11.057-9.394s-4.987-9.396-11.057-9.396zm0 3.077c3.574 0 7.066 2.37 7.066 6.319 0 3.948-3.492 6.318-7.066 6.318s-7.066-2.37-7.066-6.318c0-3.949 3.492-6.319 7.066-6.319zM153.426 108.981c-6.068 0-11.057 3.035-11.057 9.396 0 6.359 4.988 9.394 11.057 9.394s11.057-3.034 11.057-9.394c-.001-6.36-4.989-9.396-11.057-9.396zm0 3.077c3.574 0 7.066 2.37 7.066 6.319 0 3.948-3.492 6.318-7.066 6.318s-7.066-2.37-7.066-6.318c-.001-3.949 3.492-6.319 7.066-6.319zM166.045 109.979c.748 0 1.08.207 1.08.623v15.547c0 .416-.332.624-1.08.624v.748h16.295c.666 0 1.164.083 1.164.541h.748v-4.49h-.748c0 .54-.498.873-1.164.873h-11.225v-13.843c0-.416.334-.623.957-.623v-.748h-6.027v.748zM56.454 87.06v.748c.457 0 .749.208.749.624v15.547c0 .416-.292.624-.749.624v.748h5.529v-.748c-.333 0-.79-.208-.79-.624v-5.944h5.778l3.284 4.905c.417.582.624.956.624 1.288 0 .291-.291.375-.54.375v.748h6.36v-.748c-.624-.167-1.165-.458-1.58-1.039l-4.074-5.944c2.287-.541 4.739-2.121 4.739-5.155 0-3.949-2.91-5.404-7.856-5.404H56.454v-.001zm4.822 3.076h6.568c2.827 0 4.073.873 4.073 2.245 0 1.705-1.288 2.578-4.073 2.578h-6.568v-4.823z" fill-rule="evenodd" clip-rule="evenodd" fill="#00acec"/><path d="M81.543 105.351v-.748c-.498 0-.79-.084-.79-.499 0-.292.166-.623.375-1.081l1.164-2.244h8.896l1.122 2.369c.167.416.291.664.291.997 0 .416-.415.583-.665.583v.623h5.904v-.748c-.375-.084-.748-.291-.999-.791l-6.734-14.133c-.291-.624-.583-1.081-.583-1.414 0-.375.25-.375.416-.458v-.747h-6.277v.748c.167.083.332.125.332.458 0 .416-.208.873-.54 1.621l-6.194 13.51c-.208.458-.623 1.122-1.289 1.206v.748h5.571zm4.948-14.633l3.367 6.983h-6.319l2.952-6.983zM105.262 105.351v-.748c-.791 0-1.164-.208-1.164-.624V88.432c0-.416.373-.624 1.164-.624v-.748h-6.318v.748c.873 0 1.164.208 1.164.624v15.547c0 .416-.291.624-1.164.624v.748h6.318zM107.697 103.438l.582.416a.591.591 0 0 1 .498-.25c.457 0 4.49 1.995 8.232 1.995 3.781 0 9.061-1.205 9.061-6.027 0-7.358-13.801-4.033-13.801-7.607 0-1.538 1.955-2.079 4.158-2.079 2.867 0 5.361.749 6.484 1.705.416.333.416.665.457.998l.748.249 2.078-3.907-.457-.457c-.332.166-.457.332-.914.332-.789 0-3.035-1.995-8.148-1.995-5.236 0-8.396 2.286-8.396 5.819 0 7.067 13.801 3.825 13.801 7.441 0 2.119-3.615 2.452-5.113 2.452-1.662 0-6.609-1.122-6.609-2.785 0-.249.041-.54.041-.748l-.789-.208-1.913 4.656zM135.695 105.351v-.748c-.789 0-1.162-.208-1.162-.624V88.432c0-.416.373-.624 1.162-.624v-.748h-6.318v.748c.875 0 1.166.208 1.166.624v15.547c0 .416-.291.624-1.166.624v.748h6.318zM144.699 105.351v-.748c-.539 0-.873-.208-.873-.624V91.882l10.311 10.975c.664.707 1.289 1.33 1.289 1.538 0 .166-.125.208-.291.208v.748h5.402v-.748c-.414 0-.748-.208-.748-.624V88.432c0-.416.334-.624.748-.624v-.748h-5.07v.748c.498 0 .832.208.832.624v11.266l-9.979-10.559c-.58-.624-.914-.914-.914-1.122 0-.125.043-.167.291-.208v-.749h-6.111v.748c.416 0 .75.208.75.624v15.547c0 .416-.334.624-.75.624v.748h5.113zM182.191 88.307c-.332.25-.5.333-.914.333-.375 0-1.164-.457-2.412-.915a13.926 13.926 0 0 0-5.029-.914c-7.234 0-11.723 3.575-11.723 9.395 0 5.82 4.488 9.395 11.723 9.395 5.32 0 8.688-1.912 9.686-2.619v-.498c-.541-.208-.623-.333-.623-.832v-3.949c0-.54.125-.789.623-.997v-.748h-8.148c-.623 0-1.121-.125-1.205-.665h-.748v4.281h.748c.084-.665.582-.872 1.205-.872h4.283v2.618c-1.746.914-3.949 1.205-6.318 1.205-3.244 0-7.234-1.621-7.234-6.235s3.533-6.402 7.607-6.402c3.035 0 6.152 1.414 6.152 2.453 0 .125-.041.291-.082.457l.498.291 2.41-4.531-.499-.251zM74.866 64.14h-.748c0 .416-.333.748-1.29.748H56.7v.749c.582 0 .873.208.873.624v15.547c0 .416-.291.623-.79.623v.749h5.737v-.749c-.499 0-.956-.208-.956-.623v-6.36h7.316c.915 0 1.039.208 1.081.665h.749v-4.365h-.75c-.042.458-.166.624-1.081.624h-7.316v-4.406h11.265c.956 0 1.29.291 1.29.582h.748V64.14zM76.51 64.888v.749c.915 0 1.206.208 1.206.624v10.517c0 3.409 3.035 6.651 9.727 6.651s9.727-3.242 9.727-6.651V66.261c0-.416.334-.624.916-.624v-.749h-5.779v.749c.707 0 1.04.208 1.04.624v9.519c0 2.661-1.954 4.407-5.903 4.407s-5.902-1.746-5.902-4.407v-9.519c0-.416.291-.624.915-.624v-.749H76.51zM106.395 83.179v-.749c-.541 0-.873-.208-.873-.623V69.711l10.309 10.974c.666.707 1.289 1.33 1.289 1.538 0 .166-.125.208-.291.208v.749h5.404v-.749c-.416 0-.748-.208-.748-.623V66.261c0-.416.332-.624.748-.624v-.749h-5.072v.749c.5 0 .832.208.832.624v11.265l-9.977-10.559c-.582-.624-.914-.915-.914-1.122 0-.125.041-.167.291-.208v-.749h-6.111v.749c.416 0 .748.208.748.624v15.547c0 .416-.332.623-.748.623v.749h5.113v-.001zM136.902 83.179c6.525 0 9.02-4.532 9.02-9.146s-2.66-9.146-9.186-9.146H125.18v.749c.664 0 .955.208.955.624v15.547c0 .416-.291.623-.955.623v.749h11.722zm-6.775-15.214h5.402c3.41 0 6.402.416 6.402 5.944 0 5.57-2.992 6.194-6.402 6.194h-5.402V67.965z" fill-rule="evenodd" clip-rule="evenodd" fill="#00acec"/><path d="M12.914 83.363h3.67v-.512c-.285 0-.512-.142-.512-.427v-9.473h3.698c.285 0 .625.142.625.483h.513v-3.271h-.513c0 .541-.341.682-.625.682H9.642c-.284 0-.626-.142-.626-.682h-.512v3.271h.512c0-.341.342-.483.626-.483h3.698v9.473a.418.418 0 0 1-.427.427v.512h.001zM32.882 78.128v4.295c0 .285-.199.427-.426.427v.512h3.584v-.512c-.228 0-.427-.142-.427-.427v-10.64c0-.285.199-.427.427-.427v-.512h-3.584v.512c.227 0 .426.142.426.427v4.012h-7.625v-4.012c0-.285.199-.427.427-.427v-.512H22.1v.512c.228 0 .427.142.427.427v10.64c0 .285-.199.427-.427.427v.512h3.584v-.512c-.228 0-.427-.142-.427-.427v-4.295h7.625zM50.175 70.334h-.512c0 .284-.285.511-.882.511H38.682v.512c.199 0 .427.142.427.427v10.64a.418.418 0 0 1-.427.427v.512h10.44c.455 0 .797.057.797.398h.512v-3.072h-.512c0 .342-.342.569-.797.569H41.84v-3.357h4.153c.74 0 1.223.057 1.11.455h.569v-3.015h-.513c0 .398-.284.455-.938.455H41.84v-2.845h6.94c.598 0 .882.142.882.54h.512v-3.157h.001zM8.505 87.256h41.597v41.597H8.505V87.256z" fill-rule="evenodd" clip-rule="evenodd" fill="#fff22d"/><path d="M29.002 89.938c9.629 0 17.435 7.806 17.435 17.436 0 9.629-7.806 17.436-17.435 17.436-9.63 0-17.436-7.807-17.436-17.436.001-9.63 7.807-17.436 17.436-17.436z" fill-rule="evenodd" clip-rule="evenodd" fill="#fff"/><path d="M33.638 98.793a8.135 8.135 0 1 1 0 16.27 8.135 8.135 0 0 1 0-16.27z" fill-rule="evenodd" clip-rule="evenodd" fill="#fff22d"/><path d="M31.384 103.391a4.49 4.49 0 1 1-4.491 4.49 4.49 4.49 0 0 1 4.491-4.49z" fill-rule="evenodd" clip-rule="evenodd" fill="#fff"/><path fill-rule="evenodd" clip-rule="evenodd" fill="#fff22d" d="M8.505 67.481h41.597v-2.492H8.505v2.492z"/><path d="M149.611 65.941v.139c.086 0 .141.039.141.116v2.892c0 .078-.055.116-.141.116v.14h1.029v-.14c-.062 0-.146-.039-.146-.116v-1.106h1.074l.611.913c.076.108.115.178.115.24 0 .054-.055.069-.1.069v.14h1.182v-.14a.494.494 0 0 1-.293-.193l-.758-1.105c.426-.101.881-.395.881-.959 0-.734-.541-1.005-1.461-1.005h-2.134v-.001z" fill-rule="evenodd" clip-rule="evenodd" fill="#00acec"/><path d="M150.51 66.513h1.221c.525 0 .758.163.758.417 0 .317-.24.479-.758.479h-1.221v-.896z" fill-rule="evenodd" clip-rule="evenodd" fill="#fff"/><path d="M151.404 63.903h.002c1.041 0 1.984.424 2.668 1.108a3.752 3.752 0 0 1 1.105 2.666v.003a3.766 3.766 0 0 1-1.107 2.669 3.755 3.755 0 0 1-2.664 1.105h-.004a3.77 3.77 0 0 1-2.67-1.107 3.766 3.766 0 0 1-1.105-2.666v-.003a3.774 3.774 0 0 1 1.107-2.668 3.756 3.756 0 0 1 2.666-1.105h.002v-.002zm.002.786h-.004a2.98 2.98 0 0 0-2.111.875h-.002a2.984 2.984 0 0 0-.873 2.114v.003c0 .825.334 1.572.875 2.113.539.54 1.287.874 2.113.875h.004c.824 0 1.572-.334 2.111-.875.541-.54.875-1.287.875-2.113v-.003c0-.826-.334-1.573-.875-2.113a2.97 2.97 0 0 0-2.113-.876z" fill="#00acec"/></svg>