<svg xmlns="http://www.w3.org/2000/svg" width="2500" height="2500" viewBox="0 0 192.756 192.756"><g fill-rule="evenodd" clip-rule="evenodd"><path fill="#fff" d="M0 0h192.756v192.756H0V0z"/><path d="M67.003 104.663c0 16.068-13.181 27.994-29.25 27.994-16.194 0-29.25-13.055-29.25-29.249V60.601h58.499v44.062h.001zm-55.486-22.47c0-10.168 8.285-18.454 18.579-18.454 10.168 0 18.579 8.285 18.579 18.454 0 10.294-8.411 18.579-18.579 18.579a18.537 18.537 0 0 1-18.579-18.579zM80.686 95.5c.628.502 1.632.753 2.762.753a5.83 5.83 0 0 0 2.887-.753h4.143c-1.381 2.385-4.143 3.892-7.156 3.892-2.887 0-5.523-1.507-6.779-3.892h4.143zm12.051 0h3.013v3.766h-3.013V95.5zm10.294 0h3.014v3.766h-3.014V95.5zm4.268 0h3.014v3.766h-3.014V95.5zm14.562 0l-1.381 3.766h-3.389l-1.508-3.766h6.278zm7.03 0c.754.627 1.758 1.129 2.637 1.129s2.135-.376 3.139-1.129h1.758l1.506.878c-1.381 1.758-3.766 3.139-5.9 3.139-2.887 0-5.271-1.632-6.402-4.017h3.262zm11.173 0h2.762v3.515h-2.762V95.5zm9.791 0c.502.753 1.381 1.381 2.637 1.381.752 0 1.758-.503 1.883-1.381h3.264c-.125 2.259-2.135 3.892-4.896 3.892-3.012 0-4.77-1.758-5.648-3.641l.627-.25h2.133V95.5zm8.788 0h2.889v3.766h-2.889V95.5zm9.291 0c.502.627 1.254 1.129 2.385 1.004v2.762c-3.391 0-5.273-1.632-5.775-3.766h3.39zm11.673 0l-1.129 2.636c-2.01 4.394-3.893 6.402-7.91 6.527v-2.762c2.385-.125 3.641-1.381 4.645-3.766l-1.254-2.636h5.648v.001z"/><path d="M79.054 86.21v6.025c0 1.13.502 2.386 1.632 3.265h-4.143c-.376-1.005-.753-2.135-.753-3.265V86.21h3.264zm12.177 0v6.025c0 1.13-.251 2.26-.753 3.265h-4.143c1.13-.754 2.009-1.883 2.009-3.265V86.21h2.887zm12.804 0c1.256 1.255 2.01 2.762 2.01 4.394V95.5h-3.014v-4.394c0-2.636-1.883-3.641-3.766-3.641-.879 0-3.139.753-3.515 1.757V95.5h-3.013v-9.29h11.298zm3.264 0h3.014v9.29h-3.014v-9.29zm7.91 0c3.012 7.657 2.762 7.909 3.514 8.536.502-.502 1.508-2.887 3.391-8.536h3.137l-3.389 9.29h-6.277l-3.514-9.29h3.138zm21.34 0c1.633 1.632 2.385 4.268 2.385 6.779h-11.172c0 1.004.502 1.757 1.129 2.511h-3.264c-.502-1.13-.879-2.26-.879-3.515 0-2.385.879-4.394 2.26-5.775h9.541zm6.277 0v.502c.125-.125.25-.377.25-.502h3.768v1.004c-2.26 0-4.018 2.385-4.018 4.394V95.5h-2.762v-9.29h2.762zm13.18 0c.377.502.754.879 1.006 1.381l-2.135 1.255c-.754-1.13-1.506-1.883-2.762-1.883-.754 0-1.506.753-1.506 1.507 0 2.385 7.029 2.008 7.029 6.779v.251h-3.264c0-.126.125-.251.125-.251 0-2.762-6.779-1.757-6.779-6.779 0-.879.127-1.632.504-2.26h7.782zm2.637 0h2.889v9.29h-2.889v-9.29zm14.437 0l3.766 8.16 3.514-8.16h3.266l-4.018 9.29h-5.648l-3.641-8.035h-2.762v6.904c0 .376.125.753.377 1.13h-3.391c-.125-.502-.125-.879-.125-1.381v-6.653h-1.508V86.21h10.17zm-38.414 9.29l.754-.754 1.004.754h-1.758zm13.055 0l1.633-.879c.125.251.25.502.502.879h-2.135zm-15.817-8.286c1.381 0 3.389 1.38 3.766 3.138h-7.908c.502-1.757 2.134-3.138 4.142-3.138z"/><path d="M79.431 77.046h3.139v2.511h-3.139v-2.511zm8.661 0h3.013v2.511h-3.013v-2.511zm10.797 0h2.762v2.511h-2.762v-2.511zm9.918 0h6.904c-1.381 1.632-3.641 3.013-5.9 3.013s-4.395-1.255-5.65-3.013h4.646zm26.988 0c-1.756 1.632-4.016 2.762-6.652 2.762s-4.896-1.13-6.654-2.762h13.306zm16.445 0c-1.381 1.632-3.264 2.762-5.648 2.762-1.506 0-3.014-.627-3.766-1.883v4.645h-2.762v-5.523h12.176v-.001zm8.662 0h6.779c-1.381 1.632-3.641 3.013-5.775 3.013-2.385 0-4.393-1.255-5.648-3.013h4.644zm9.164 0h3.014v2.511h-3.014v-2.511zm10.42 0h2.887v2.511h-2.887v-2.511zM75.79 81.44h3.264v4.77H75.79v-4.77zm12.554 0h2.887v4.77h-2.887v-4.77zm4.393 4.77v-1.506h3.013v1.255c.753-.879 2.384-1.506 4.017-1.506 1.758 0 3.264.753 4.268 1.757H92.737zm14.562-1.381h3.014v1.381h-3.014v-1.381zm4.771 1.381l-.502-1.381h3.137c.252.502.377 1.004.504 1.381h-3.139zm10.043 0c.125-.376.25-.879.375-1.381h3.266v.251l-.504 1.13h-3.137zm4.895 0c1.256-1.255 2.889-1.883 4.645-1.883 2.135.125 3.768.753 4.896 1.883h-9.541zm13.056-1.506h2.762v1.506h-2.762v-1.506zm3.012 1.506c.754-.879 1.758-1.757 3.768-1.757v1.757h-3.768zm5.149 0c.877-1.255 2.51-1.757 4.143-1.757 1.506 0 2.762.753 3.639 1.757h-7.782zm10.418-1.381h2.889v1.381h-2.889v-1.381zm4.267 1.381v-1.506h1.508V81.44h2.887v3.264h5.146l.629 1.506h-10.17zm17.449 0l.754-1.506h3.139l-.627 1.506h-3.266zm-21.716-3.641c0-.753.629-1.381 1.506-1.381.754 0 1.383.628 1.383 1.381 0 .879-.629 1.507-1.383 1.507-.878 0-1.506-.628-1.506-1.507zm-51.217 0c0-.753.627-1.381 1.381-1.381.752 0 1.381.628 1.381 1.381 0 .879-.629 1.507-1.381 1.507-.754 0-1.381-.628-1.381-1.507z"/><path d="M79.431 77.046V63.112h-5.9v-2.511h17.575v5.775c.879-.753 2.385-1.507 3.766-1.507 4.017 0 6.779 3.139 6.779 6.151v6.025h-2.762v-6.151c0-1.004-1.256-3.264-4.268-3.264-2.134 0-3.515 1.883-3.515 1.883v7.532h-3.013V63.112H82.57v13.934h-3.139zm24.729 0c-.877-1.381-1.506-2.887-1.506-4.645 0-4.645 3.264-7.658 6.904-7.532 5.273 0 7.281 4.269 7.281 8.662h-11.172c-.125 1.632 1.631 3.138 3.139 3.515h-4.646zm5.901 0c1.131-.251 2.387-.878 3.139-1.883l2.637 1.757c-.125 0-.125 0-.125.125h-5.651v.001zm12.427 0c-1.756-1.757-2.887-4.394-2.887-7.155 0-5.398 4.268-9.792 9.541-9.792 5.271 0 9.541 4.394 9.541 9.792 0 2.762-1.131 5.398-2.889 7.155h-13.306zm17.576 0v-11.8h7.029c4.018 0 6.779 3.264 6.654 7.156 0 1.757-.629 3.264-1.508 4.645h-12.175v-.001zm16.194 0c-1.004-1.381-1.506-2.887-1.506-4.645 0-4.645 3.264-7.658 6.904-7.532 5.271 0 7.281 4.269 7.281 8.662h-11.299c0 1.632 1.758 3.138 3.264 3.515h-4.644zm5.9 0c1.004-.251 2.26-.878 3.139-1.883l2.51 1.757-.125.125h-5.524v.001zm7.908 0V64.995h3.014v1.381c.752-.879 2.385-1.507 4.016-1.507 3.641 0 6.277 3.139 6.277 6.026v6.151h-2.887v-5.649c0-2.636-2.008-3.641-3.893-3.641-.879 0-3.139.879-3.514 1.757v7.532h-3.013v.001zm-8.285-9.415c1.506 0 3.516 1.381 3.766 3.139h-7.908c.502-1.758 2.259-3.139 4.142-3.139zm-39.293 2.26c0-3.766 3.014-6.904 6.654-6.904s6.652 3.138 6.652 6.904c0 3.892-3.012 6.904-6.652 6.904s-6.654-3.013-6.654-6.904zm-12.677-2.26c1.381 0 3.389 1.381 3.766 3.139h-8.033c.626-1.758 2.257-3.139 4.267-3.139zm33.015.377h3.766c1.758 0 4.395 1.38 4.395 4.77 0 2.511-2.01 4.143-4.395 4.143-1.131 0-3.766-1.506-3.766-4.519v-4.394z"/></g></svg>