<svg xmlns="http://www.w3.org/2000/svg" width="2500" height="2500" viewBox="0 0 192.756 192.756"><g fill-rule="evenodd" clip-rule="evenodd"><path fill="#fff" d="M0 0h192.756v192.756H0V0z"/><path d="M96.648 34.363c-34.594 0-62.431 27.832-62.431 62.151 0 34.588 27.837 62.42 62.431 62.42 34.324 0 62.16-27.832 62.16-62.42.001-34.319-27.835-62.151-62.16-62.151z" fill="#cc2229"/><path d="M96.648 40.037c-31.351 0-56.755 25.401-56.755 56.477 0 31.346 25.405 56.746 56.755 56.746 31.08 0 56.484-25.4 56.484-56.746.001-31.076-25.403-56.477-56.484-56.477z"/><path d="M21.245 84.624l-3.513-1.081v-.27c.27 0 .54-.27.54-.541.271-.271.271-.541.271-.811l1.621-6.755c0-.541.271-1.081-.27-1.352v-.54l3.783.54v.541c-2.433 0-2.973 1.081-3.514 3.243l6.757 1.621c2.703.541 2.703.27 3.514-1.892l.27.271-1.351 6.755h-.541c.271-2.432.271-2.432-2.432-3.243l-6.756-1.351c-.271 2.162-.271 3.513 1.621 4.593v.272zM29.624 69.491c2.162.811 2.702 1.351 3.783-.541h.541l-2.703 5.945-.27-.27c.27-1.892.54-1.892-2.163-3.243l-3.513-1.351c-2.703-1.352-2.703-1.081-3.784.54h-.271l2.433-5.944.541.27c-.811 1.892 0 2.162 1.892 2.972l1.081.541 2.433-5.405-1.082-.541c-1.892-.811-2.703-1.081-3.784.811l-.271-.27 2.433-5.675h.541c-.541 1.892-.811 2.162 1.892 3.243l3.513 1.621c2.703 1.081 2.703.811 3.784-.81l.541.27-2.703 5.946-.271-.271c.541-2.162 0-2.432-2.162-3.243l-1.622-.54-2.162 5.404 1.353.541zM35.569 54.629l1.892 1.351c1.352.811 1.892 1.351 3.243-.541 1.082-1.621.811-2.972-.54-4.593l.27-.271c1.081.541 1.892 1.621 2.703 2.432l-5.676 8.106-.27-.27c.811-1.622 1.081-1.892-1.351-3.513l-3.243-2.162c-2.433-1.622-2.433-1.351-3.784 0l-.27-.27 5.406-7.836 2.162 1.891-.27.271c-1.892-1.081-2.703.27-3.784 1.622l-.541.811 3.244 2.432.811-1.081c.811-1.081 1.081-1.892.271-2.973l.27-.27 3.243 2.432-.27.271c-1.352-.541-1.892 0-2.703 1.081l-.813 1.08zM49.893 34.363l2.702 9.457-.27.271-8.378-4.323 3.784 5.134c.811 1.081 1.352.541 2.432 0l.27.271-3.513 3.243-.541-.27c.811-1.081 1.081-1.352.27-2.433l-1.622-2.972-1.892-2.972c-.811-1.081-1.351-.541-2.433 0l-.27-.541 3.243-2.702.27.27c0 .811 1.352 1.351 1.892 1.622l5.135 2.432-1.891-6.215c0-.541-.271-1.351-.812-1.351l-.27-.271 3.513-2.973.271.271c-1.081 1.351-1.081 1.892 0 2.973l3.514 3.783c1.351 1.352 1.622 1.892 3.513.811l.27.27-4.864 4.053-.271-.271c1.621-1.621 1.081-2.161-.271-3.512l-3.781-4.055zM68.271 27.337c1.621 2.972.27 6.215-2.973 7.836-2.973 1.622-6.486 1.081-8.108-2.162-1.622-2.973-.27-6.485 2.973-7.836 2.973-1.622 6.486-1.351 8.108 2.162zm-8.919 4.323c1.081 1.892 3.514 4.053 5.946 2.973 2.162-1.351 1.892-4.053.811-5.945-1.081-1.891-3.513-4.053-5.946-2.972-2.163 1.35-1.622 4.053-.811 5.944zM73.946 27.337c.541 2.162.811 2.972 2.973 2.432v.54l-6.216 1.621v-.54c1.892-.811 1.892-.541 1.352-3.513l-1.081-3.513c-.811-2.972-1.081-2.702-2.973-2.702v-.27l6.216-1.621v.27c-2.162.811-1.892 1.622-1.351 3.513l.541 1.352 5.676-1.621-.271-1.081C78 20.041 78 19.23 75.838 19.771l-.27-.541 6.216-1.621.271.27c-1.892.811-2.162.811-1.352 3.783l1.081 3.513c.811 2.972.811 2.702 2.973 2.432v.541l-6.216 1.622v-.271c1.892-.811 1.622-1.621 1.081-3.783l-.27-1.621-5.676 1.621.27 1.621zM90.162 22.473l.271 2.162c0 1.622.271 2.432 2.433 2.162 1.892 0 2.703-1.352 3.243-3.243h.271c.271 1.081 0 2.433-.271 3.784l-9.729.541v-.271c1.892-.541 2.162-.541 1.892-3.513L88 20.311c-.27-2.702-.54-2.702-2.432-2.973v-.27l9.459-.811v2.972h-.541c-.27-2.162-1.621-2.162-3.513-1.892h-1.081l.27 4.054h1.352c1.352 0 2.162-.271 2.433-1.892h.54v4.053l-.27.271c-.541-1.621-1.351-1.621-2.703-1.351h-1.352v.001zM108.539 27.066h.811v.271c-1.891.541-3.783.811-5.404.541-3.514-.271-6.217-2.702-5.945-6.215.541-3.783 4.053-5.404 7.566-5.134 1.623.27 2.703.541 4.055 1.351l-.271 2.973h-.539c-.271-1.892-1.352-3.243-3.514-3.513-2.703-.27-4.324 1.621-4.594 4.054-.271 2.972 1.35 5.674 4.322 5.945 1.352.27 1.352 0 1.352-.811l.271-.811c0-2.162 0-2.162-2.162-2.702v-.541l5.676.541v.54c-1.082.271-1.352.271-1.352 1.352l-.272 2.159zM115.027 25.445l-.541.541c-1.623 2.432-1.082 2.702.541 3.513v.271l-4.865-1.352v-.54c1.08 0 1.352.27 1.891-.541l1.893-2.162L118 20.311v-.54c.539 0 1.35-.271 1.891-.541h.27l.541 8.377c.271 2.973 0 2.973 1.623 4.053l-.271.27-5.135-1.621v-.271c1.621.271 1.893 0 1.621-2.432v-1.081l-3.513-1.08zm3.243 0l-.27-4.053-2.434 3.242 2.704.811zM127.729 26.526c.811-1.351 1.352-2.432-.27-3.783v-.271l3.514 1.622c.539 3.243 1.621 7.025 2.432 10.539l2.432-4.594c.811-1.621.541-2.161-1.08-3.242l.27-.54 4.324 2.431-.27.271c-1.352-.541-1.621 0-2.973 2.432l-3.244 6.485h-.811c-.541-2.703-2.162-7.837-3.242-11.619-.812 1.621-1.623 2.972-2.162 4.593-1.082 1.892-.812 2.162.811 3.513l-.271.27-4.594-2.432v-.271c1.352.271 1.891.541 2.973-1.351l2.161-4.053zM143.674 35.713l2.973-2.432.271.27c-.271.27 0 .541 0 .811l.539.54 5.135 4.594c.541.271.812.811 1.352.541l.271.27-2.162 2.973-.271-.27c1.082-2.162.271-2.973-1.35-4.594l-4.596 4.864c-1.893 2.162-1.893 2.432-.27 4.053l-.271.271-5.404-4.594.541-.541c1.621 1.351 1.891 1.621 3.783-.541l4.594-4.864c-1.621-1.621-2.701-2.162-4.594-1.081l-.541-.27zM154.215 45.982c1.891-1.351 1.891-1.621.811-3.243l.541-.27 2.973 4.053c1.08 1.351 2.703 3.513.811 5.134-1.082.811-2.434.54-3.514 0-1.082 2.432-2.162 5.134-.811 7.836h-.541c-.811-1.081-1.893-2.432-1.893-3.783 0-1.081.541-2.702.812-3.783.811-1.351.811-1.351 0-2.702l-1.352 1.081c-1.621 1.352-2.162 1.622-.811 3.783l-.541.271-4.055-5.134.541-.541c1.352 1.351 1.352 1.621 3.783 0l3.246-2.702zm-.272 2.972c1.082 1.081 2.434 1.892 3.785.811 1.35-.811.811-2.432-.271-3.513l-3.514 2.702zM160.16 62.195c-2.432 1.352-2.432 1.352-1.621 3.243l-.541.27-2.973-5.674h.27c1.352 1.351 1.352 1.621 3.783.27l3.514-1.892c2.434-1.351 2.162-1.621 1.623-3.513l.27-.271 3.242 5.675-.539.27c-1.082-1.621-1.082-1.892-3.785-.27l-3.243 1.892zM158.268 66.519l.541-.271c.811 1.621.811 1.892 3.514.811l4.055-1.621c2.162-.811 2.432-.811 1.891-2.973h.271l1.891 4.594c.541 1.621 1.621 4.323-.541 5.134-1.35.541-2.701-.541-3.242-1.622.27 1.622 0 3.783-1.893 4.324-2.432 1.081-3.783-1.621-4.594-3.513l-1.893-4.863zm4.595 2.702c-1.352.541-2.434.811-1.893 2.432.541 1.081 1.621 1.622 2.703 1.081 1.893-.541 2.162-2.702 1.352-4.323l-2.162.81zm2.703-.81c.539 1.351 1.621 2.161 3.242 1.621 1.621-.811 1.352-2.162.811-3.513l-4.053 1.621v.271zM168.268 79.489l-2.162.271c-1.621.541-2.432.541-1.891 2.702.27 2.162 1.621 2.703 3.512 2.703l.271.541c-1.352.27-2.703.27-3.783.27l-2.162-9.728h.539c.811 1.892.541 2.162 3.514 1.352l3.783-.811c2.973-.541 2.703-.541 2.703-2.702h.27l2.164 9.458-2.975.271v-.541c1.893-.541 1.623-1.892 1.352-3.783l-.27-1.081-4.055.811.271 1.351c.27 1.352.539 2.162 2.162 2.162v.541c-1.352 0-2.703.27-4.055.541v-.271c1.352-.811 1.352-1.351 1.082-2.702l-.27-1.355zM47.19 148.125l-9.189 3.514-.271-.27 3.784-8.918-4.865 4.324c-1.081.809-.541 1.35 0 2.432l-.271.539-3.513-3.512.27-.541c1.081.811 1.352.811 2.433.27l2.973-2.16 2.703-2.162c1.081-.541.541-1.352 0-2.162l.27-.27 2.973 2.971-.271.271c-.541 0-1.081 1.352-1.351 1.891l-2.163 5.404 6.216-2.432c.541 0 1.081-.27 1.081-.811l.27-.27 3.243 3.242-.27.27c-1.351-.811-1.892-.811-2.703.271l-3.784 3.783c-1.081 1.35-1.622 1.891-.27 3.512l-.541.271-4.324-4.594.271-.271c1.892 1.352 2.162 1.082 3.513-.539l3.786-4.053zM59.352 154.611l4.054 2.701-.27.541c-1.352-.541-1.622-.27-3.243 1.891l-1.352 1.893c-.811 1.08-1.621 2.162-2.973 2.432-1.351.27-2.702-.27-3.783-.811-1.081-.811-2.162-1.893-2.433-3.242-.54-1.352.541-2.703 1.352-3.783l1.352-2.162c1.621-2.432 1.351-2.432 0-3.783l.27-.27 5.135 3.512v.271c-2.162-1.082-2.432-.271-3.513 1.621l-1.352 1.891c-.54.811-1.351 1.621-1.351 2.703 0 1.08.811 2.162 1.892 2.973 2.162 1.35 3.513 0 4.594-1.623l2.162-3.512c.811-1.352.27-1.893-.811-2.973l.27-.27zM64.487 161.906c.541-1.621 1.081-2.701-.811-3.783l.271-.539 3.513 1.35c.811 3.244 2.432 7.025 3.513 10.27l1.892-4.865c.811-1.621.27-2.16-1.351-3.242l.27-.27 4.595 1.891-.271.271c-1.352-.271-1.622.27-2.703 2.701l-2.703 6.756h-.811c-.811-2.432-2.702-7.566-4.324-11.08-.541 1.623-1.081 3.244-1.892 4.865-.541 1.891-.271 2.162 1.351 3.242l-.27.541-4.865-2.162.27-.27c1.082.27 1.892.539 2.703-1.623l1.623-4.053zM75.568 173.797v-.271c2.162 0 2.162 0 2.702-2.701l.812-4.324c.54-2.162.54-2.432-1.352-2.973v-.539l4.595.811c2.432.539 7.837 1.891 6.756 7.025-.27 1.891-1.621 3.242-3.513 4.053-1.622.541-3.784.27-5.675-.27l-4.325-.811zm4.865-2.432c-.271 1.621-.541 2.701 1.622 2.971 2.432.541 4.054-1.35 4.324-3.781.811-3.244-1.352-5.404-4.595-5.945l-1.351 6.755zM98.541 165.15h5.135v.539c-1.623.541-1.623.541-1.623 3.242l-.27 2.434c0 1.35 0 2.971-.811 3.781-1.08 1.082-2.432 1.352-3.783 1.352-1.352 0-2.704-.27-3.785-1.08-1.081-1.082-1.081-2.703-1.081-4.053v-2.434c0-2.973-.271-2.701-2.163-3.242v-.27l6.487-.27v.539c-2.163.27-2.163 1.082-2.163 3.242v2.162c0 1.082 0 2.162.541 2.973.541 1.08 1.892 1.621 2.973 1.352 2.703 0 3.242-1.893 2.973-3.783v-4.053c0-1.623-.811-1.623-2.432-1.893v-.538h.002zM117.729 173.525l-.811.271-5.404-7.297c-.541-1.08-1.082-1.621-2.434-1.621v-.27l4.594-1.621.271.27c-1.352 1.08-1.082 1.352 0 2.973l2.973 3.783v-6.215c-.541-.811-1.08-.811-2.162-.811l-.27-.271 5.135-1.891v.539c-1.082.812-1.352.812 0 2.703l2.973 4.053v-1.62c0-1.08 0-4.053-.27-4.863-.271-.811-1.082-.541-1.623-.541l-.27-.539 4.053-1.352.271.539c-1.352.812-1.352 1.082-1.352 3.244v8.646h-.811l-4.865-6.756v8.647h.002zM132.863 163.799c1.082 2.701 1.352 2.432 3.244 1.891v.27l-5.676 2.973-.271-.539c1.623-1.082 1.893-1.082.541-3.783l-1.621-3.244c-1.082-2.701-1.352-2.701-3.244-2.16l-.27-.271 5.945-2.701.271.27c-1.623 1.082-1.893 1.082-.811 3.783l1.892 3.511zM146.107 157.854l.539-.27.271.27c-1.082 1.621-2.162 2.973-3.785 4.053-2.701 1.893-6.486 1.893-8.377-1.08-2.434-3.242-.811-6.756 2.162-8.918 1.352-.811 2.432-1.08 4.053-1.621l1.623 2.703-.271.27c-1.621-1.352-3.514-1.621-5.135-.541-2.162 1.621-2.162 4.324-.811 6.215 1.893 2.432 4.865 3.244 7.297 1.623 1.082-.812.811-.812.541-1.623l-.541-.539c-1.08-1.893-1.352-1.893-3.514-.811l-.27-.271 4.865-3.242.27.27c-.811.811-.811 1.082-.27 1.893l1.353 1.619zM154.484 143.531c2.703 2.432 2.432 5.945 0 8.648-2.432 2.432-5.945 2.701-8.648.27-2.432-2.432-2.162-5.945.271-8.377 2.432-2.431 5.674-3.242 8.377-.541zm-7.027 6.756c1.623 1.621 4.596 2.973 6.486 1.082 1.893-1.893.541-4.324-.811-5.676-1.891-1.621-4.863-2.973-6.756-1.08-1.62 1.891-.269 4.323 1.081 5.674z" stroke="#000" stroke-width=".281" stroke-miterlimit="2.613"/><path d="M133.945 122.455c-.811-.271-2.162-.541-3.514-.541v3.514c3.242-.271 4.865 1.621 4.053 2.971-.539 1.623-2.162 1.082-2.701.811l-10-9.998c10.539-1.891 18.648-11.348 18.648-22.428 0-11.349-8.379-20.807-19.189-22.428l10.27-10.539c.541 0 2.434-.541 2.973 1.081.541 1.351-1.08 3.243-4.324 2.702v3.513c1.352 0 2.434 0 3.514-.271 2.162-.541 4.596-2.702 4.324-5.945 0-2.972-2.162-4.864-5.404-4.594.27-2.973-1.352-5.134-4.324-5.404-3.244-.271-5.406 1.892-6.217 4.323-.27.811-.27 2.162-.27 3.243l3.242.27c-.27-3.243 1.623-4.864 3.244-4.323 1.352.811.811 2.432.541 2.973l-9.73 9.998c-2.432-10.268-11.621-18.104-22.432-18.104-11.081 0-20.27 7.836-22.432 18.375l-10-9.998c-.27-.541-.811-2.432.811-2.973 1.622-.54 3.244 1.081 2.703 4.324h3.514c0-1.351 0-2.432-.271-3.513-.54-2.162-2.702-4.593-5.946-4.323-2.973 0-4.594 2.162-4.594 5.404-2.973-.27-4.865 1.352-5.405 4.324-.271 3.243 1.892 5.404 4.324 6.215.811.27 2.162.27 3.514.27l.27-3.242c-3.513.271-5.135-1.621-4.324-3.243.541-1.351 2.162-.811 2.703-.541l10.27 9.998c-10.811 1.892-18.918 11.35-18.918 22.428 0 11.08 7.837 20.268 18.378 22.428l-10 9.729c-.541.27-2.163.811-2.703-.811-.811-1.621 1.082-3.242 4.325-2.701v-3.514c-1.352 0-2.703 0-3.514.27-2.432.541-4.595 2.703-4.595 5.945.271 2.973 2.433 4.594 5.405 4.594 0 2.973 1.622 4.863 4.595 5.404 2.973.271 5.405-1.891 5.945-4.322.271-.812.541-2.162.541-3.514l-3.514-.27c.271 3.512-1.622 5.133-2.973 4.322-1.622-.539-1.081-2.162-.811-2.701l10.27-10.27c1.892 10.539 11.081 18.646 22.432 18.646 11.08 0 20.27-7.838 22.432-18.375l10 10.268c.27.541.811 2.162-.811 2.973-1.352.541-3.244-1.08-2.703-4.594h-3.514c0 1.352 0 2.701.271 3.514.539 2.432 2.701 4.594 5.945 4.594 2.973-.271 4.865-2.434 4.594-5.406 2.973 0 5.135-1.621 5.406-4.594.27-2.971-1.892-5.405-4.324-5.944z" fill="#fff"/><path d="M116.377 73.814c-1.35-9.728-9.729-17.564-19.999-17.564-10 0-18.377 7.836-19.729 17.564h39.728zM73.676 76.787c-9.729 1.351-17.567 9.728-17.567 19.996 0 9.998 7.838 18.375 17.567 19.727V76.787zM76.649 119.482c1.352 9.727 9.729 17.293 19.729 17.293 10.271 0 18.649-7.566 19.999-17.293H76.649zM119.35 116.51c10-1.352 17.568-9.729 17.568-19.727 0-10.268-7.568-18.645-17.568-19.726v39.453z" fill="#2b55a2"/><path d="M76.649 76.787h39.728v39.723H76.649V76.787z"/><path d="M96.648 89.487c-4.054 0-7.297 3.243-7.297 7.026a7.265 7.265 0 0 0 7.297 7.295c3.783 0 7.027-3.242 7.027-7.295.001-3.783-3.243-7.026-7.027-7.026z" fill="#cc2229"/><path d="M94.486 81.381c-1.351 0-2.432.811-2.432 2.162a2.421 2.421 0 0 0 2.432 2.432c1.352 0 2.163-1.081 2.163-2.432-.001-1.352-.812-2.162-2.163-2.162zM87.459 84.083c-1.081.541-1.622 1.892-.811 2.973.54 1.351 1.892 1.621 2.973 1.081 1.351-.541 1.622-1.892 1.081-3.242-.54-1.082-1.891-1.353-3.243-.812zM82.595 89.757c-.541.811-.27 2.433.811 3.243.811.541 2.432.27 3.243-.811.54-.811.27-2.433-.812-3.243-.81-.539-2.431-.269-3.242.811zM80.973 96.783c0 1.352.811 2.432 2.162 2.703 1.081.27 2.432-.811 2.432-2.162.27-1.082-.541-2.432-1.892-2.432-1.35-.27-2.432.811-2.702 1.891zM82.865 104.08c.541 1.08 1.892 1.891 2.973 1.35 1.352-.539 1.893-1.891 1.352-2.973-.27-1.35-1.622-1.891-2.973-1.35-1.082.27-1.892 1.622-1.352 2.973zM87.73 109.484c1.081.811 2.432.811 3.513 0 .811-1.082.811-2.434-.271-3.514-1.081-.811-2.432-.811-3.243.271-.81 1.081-.81 2.433.001 3.243zM94.756 112.186c1.351.271 2.703-.539 2.972-1.891.271-1.082-.539-2.432-1.621-2.703-1.351-.27-2.703.541-2.973 1.621-.269 1.351.541 2.703 1.622 2.973zM102.053 111.105c1.352-.271 2.162-1.621 1.893-2.703-.27-1.352-1.621-2.16-2.973-1.891-1.08.27-1.893 1.621-1.621 2.973.269 1.08 1.621 1.891 2.701 1.621zM108.27 107.051c1.08-1.08 1.08-2.432.27-3.512-.811-.811-2.432-1.082-3.242-.27-1.082 1.08-1.082 2.432-.271 3.512.811.811 2.162 1.082 3.243.27zM111.783 100.297c.27-1.082-.27-2.432-1.352-2.973-1.352-.541-2.703 0-3.242 1.352-.271 1.08.27 2.432 1.35 2.973 1.352.539 2.703-.001 3.244-1.352zM111.783 93c-.27-1.352-1.352-2.162-2.703-2.162-1.352.271-2.162 1.352-2.162 2.703.271 1.081 1.352 2.162 2.703 1.891 1.352 0 2.162-1.08 2.162-2.432zM108.27 86.245c-.811-1.081-2.162-1.351-3.244-.54-1.08.811-1.35 2.162-.811 3.242.811 1.081 2.162 1.352 3.244.541 1.08-.541 1.352-2.162.811-3.243zM102.053 82.191c-1.08-.54-2.432-.27-3.242.811-.541 1.081 0 2.702 1.082 3.242 1.08.541 2.432.271 3.242-.811.541-1.35 0-2.701-1.082-3.242z" fill="#fff"/></g></svg>