<svg xmlns="http://www.w3.org/2000/svg" width="2500" height="2500" viewBox="0 0 192.756 192.756"><path fill-rule="evenodd" clip-rule="evenodd" fill="#fff" d="M0 0h192.756v192.756H0V0z"/><path d="M32.622 92.737h2.212v26.259a22.83 22.83 0 0 0 1.823-.352V89.696h2.654v28.136c.467-.175.93-.356 1.382-.559V86.656h3.098v28.924c.45-.294.881-.608 1.309-.934v-31.03h2.8v28.525c3.892-4.107 6.296-9.65 6.296-15.765 0-12.655-10.23-22.913-22.847-22.913-12.615 0-22.845 10.258-22.845 22.913 0 6.027 2.34 11.496 6.131 15.586V93.104h.885v19.774a23.628 23.628 0 0 0 1.705 1.487v-19.79h.886v20.453c.55.394 1.119.76 1.704 1.104V96.046h.886v20.597a22.87 22.87 0 0 0 1.706.822V97.517h1.106v20.361a22.68 22.68 0 0 0 1.708.554V98.818h1.327v19.955c.668.144 1.348.25 2.036.333v-23.33h1.771v23.463c.333.015.659.052.994.052.429 0 .848-.043 1.273-.066V92.737z" fill-rule="evenodd" clip-rule="evenodd" fill="#255398"/><path fill-rule="evenodd" clip-rule="evenodd" d="M66.679 93.006h12.446v.804h-5.489v8.817h-1.213V93.81h-5.744v-.804zM82.278 93.006v4.115h10.763v-4.115h1.231v9.621h-1.231v-4.702H82.278v4.702h-1.232v-9.621h1.232zM96.899 93.006h12.247v.804H98.148v3.367h10.164v.802H98.148v3.844h11.524v.804H96.899v-9.621zM113.332 93.006h4.617l3.334 5.888c.346.627.473.886.654 1.432.125-.411.236-.654.596-1.323l3.334-5.996h4.586v9.621h-3.027v-6.733c0-.286.053-.531.127-.898a9.277 9.277 0 0 1-.363.736l-3.82 6.896h-2.92l-3.822-6.761c-.197-.366-.236-.477-.379-.871.055.409.072.49.107.859v6.772h-3.023v-9.622h-.001zM133.713 93.006h3.207v9.623h-3.207v-9.623zM140.471 93.006h3.205v7.85h7.101v1.771h-10.306v-9.621zM153.66 93.006h3.207v7.85h7.102v1.771H153.66v-9.621zM168.715 99.644c.725 1.158 2.555 1.513 4.293 1.513.779 0 3.227-.096 3.227-1.269 0-.693-.889-.858-1.576-.954-.525-.082-3.152-.382-3.752-.463-1.178-.164-4.148-.587-4.148-2.767 0-.477.182-.969.508-1.362 1.07-1.296 3.424-1.636 5.453-1.636 1.865 0 3.297.204 4.621.75 1.305.531 1.865 1.239 2.119 1.552l-3.043.573c-.109-.149-.363-.504-1.125-.79-.852-.314-1.955-.369-2.572-.369-1.412 0-2.863.205-2.863 1.117 0 .627.744.792 1.703.955.527.083 3.135.41 3.732.503 1.486.207 4.006.615 4.006 2.728 0 3.094-4.893 3.202-6.506 3.202-2.102 0-5.344-.272-6.994-2.713l2.917-.57zM181.281 90.993h.752c.314.004.525.004.732.171a.72.72 0 0 1 .26.583.643.643 0 0 1-.465.65l.525.963h-.504l-.467-.879h-.396v.879h-.438v-2.367h.001zm.438.383v.74h.154c.15 0 .207-.002.291-.006.098-.004.414-.021.414-.364a.336.336 0 0 0-.188-.319c-.092-.048-.207-.05-.467-.05h-.204v-.001z"/><path d="M184.252 92.206v.004a2.155 2.155 0 0 1-.631 1.52v.001c-.385.386-.92.627-1.51.63h-.014a2.14 2.14 0 0 1-1.516-.634 2.145 2.145 0 0 1-.629-1.512v-.013a2.156 2.156 0 0 1 2.141-2.152h.014a2.148 2.148 0 0 1 2.145 2.146v.01zm-.42.004v-.012c0-.476-.193-.907-.504-1.219a1.723 1.723 0 0 0-1.221-.509h-.014a1.718 1.718 0 0 0-1.213.506 1.737 1.737 0 0 0-.508 1.227V92.216a1.731 1.731 0 0 0 1.725 1.726h.014a1.723 1.723 0 0 0 1.215-.507c.311-.312.506-.747.506-1.225z"/></svg>