<svg xmlns="http://www.w3.org/2000/svg" width="2500" height="2500" viewBox="0 0 192.756 192.756"><g fill-rule="evenodd" clip-rule="evenodd"><path fill="#fff" d="M0 0h192.756v192.756H0V0z"/><path d="M8.504 96.377c0-17.908 39.342-32.427 87.874-32.427 48.53 0 87.874 14.519 87.874 32.427 0 17.911-39.344 32.429-87.874 32.429-48.532 0-87.874-14.518-87.874-32.429z" fill="#fff"/><path d="M171.643 78.217c0 .396.211 1.069 1.436 1.069.293 0 1.322-.085 1.322-1.047 0-.574-.422-.752-.879-.859l-.818-.191c-.141-.031-.355-.084-.355-.333 0-.29.318-.383.584-.383.613 0 .67.338.688.48h.674c-.006-.392-.281-1.032-1.309-1.032-1.09 0-1.291.627-1.291.983 0 .703.523.819 1.066.939l.359.081c.355.08.607.146.607.396 0 .338-.369.414-.701.414-.611 0-.705-.338-.709-.516h-.674v-.001zM178.152 76.005h-1.013l-.598 2.519h-.01l-.607-2.519H174.9v3.196h.655V76.53h.009l.612 2.671h.687l.625-2.671h.01v2.671h.654v-3.196zM10.719 96.436c0-16.888 38.33-30.578 85.613-30.578 47.281 0 85.613 13.69 85.613 30.578s-38.332 30.579-85.613 30.579c-47.283 0-85.613-13.692-85.613-30.579z"/><path d="M178.141 96.436c0 14.931-36.574 27.036-81.691 27.036s-81.691-12.105-81.691-27.036c0-14.931 36.574-27.034 81.691-27.034s81.691 12.102 81.691 27.034z" fill="#147cc2"/><path d="M133.893 93.484c.217 12.474-27.27 23.067-61.393 23.663-34.123.596-61.962-9.032-62.18-21.506-.218-12.473 27.269-23.067 61.392-23.663 34.124-.595 61.962 9.034 62.181 21.506z"/><path d="M125.502 102.36a3.488 3.488 0 1 1 6.976-.002 3.488 3.488 0 0 1-6.976.002z"/><path d="M38.358 83.792l5.379-.032-1.944 4.256h2.354l-1.4 3.31h-2.545s-3.691 8.08-3.755 8.591c-.063.509 0 .572.445.636.446.063 1.78.04 1.78.04l-1.398 3.077s-4.731.214-5.123.052c-.711-.296-1.631-.721-1.439-2.185.19-1.463 4.271-10.085 4.271-10.085l-1.972.017 1.4-3.262h1.973l1.974-4.415zM108.885 83.792l5.379-.032-1.945 4.256h2.355l-1.4 3.31h-2.545s-3.691 8.08-3.754 8.591c-.064.509 0 .572.445.636s1.779.04 1.779.04l-1.398 3.077s-4.326.446-5.027.128c-.699-.317-1.725-.797-1.535-2.261.191-1.463 4.271-10.085 4.271-10.085l-1.973.017 1.4-3.262h1.973l1.975-4.415zM47.523 87.977h5.287l-6.996 15.731h-5.285l6.994-15.731zM53.711 84.358a2.423 2.423 0 1 1-4.846 0 2.423 2.423 0 0 1 4.846 0zM66.989 93.986c.283-.566 1.855-3.366.818-4.657-.632-.784-1.636-1.667-5.349-1.667-3.712 0-5.153 1.392-6.292 2.297-1.34 1.063-4.649 9.05-5.254 10.383-.315.692-.188 3.606 2.453 3.713 4.684.188 7.929-.126 9.754-2.266 1.914-2.244 2.58-4.247 2.58-4.342s-5.065 0-5.065 0-.991 2.086-1.7 2.957c-.976 1.201-2.705.85-2.611 0 .095-.849 3.646-8.213 3.744-8.412.473-.943 3.057-1.31 2.737-.271-.58 1.885-.692 2.234-.692 2.234l4.877.031zM145.361 97.191c.182-.377 1.201-2.242.529-3.102-.41-.521-1.059-1.11-3.465-1.11-2.404 0-3.168.833-4.074 1.53-.887.682-3.02 5.78-3.404 6.914-.16.479-.012 2.453 1.701 2.511 3.299.112 5.023-.122 6.205-1.547 1.24-1.494 1.672-2.828 1.672-2.891 0-.063-3.281 0-3.281 0s-.49 1.487-1.1 1.969c-.795.63-1.754.565-1.693 0 .062-.565 2.24-5.461 2.305-5.594.305-.627 2.326-1.104 1.969-.12a61.094 61.094 0 0 1-.521 1.419l3.157.021zM75.263 82.88h5.349l-4.688 10.508c0 .001 5.779-5.38 5.958-5.411.177-.032 5.799-.095 5.664 0-.138.094-7.972 6.481-7.972 6.481l1.069 9.281h-5.505l-.346-5.945-1.354.975-2.171 4.939h-5.286l9.282-20.828zM91.467 93.671c1.12-2.157 1.979-2.941 2.737-2.957 1.077-.024 1.654.28 1.622.72-.032.441-.908 2.237-.908 2.237h-3.451zm7.363 3.021s2.264-4.971 2.391-5.601c.127-.629.441-3.492-5.161-3.43-5.6.064-7.302 2.215-8.253 3.348-1.248 1.487-4.615 8.828-4.647 9.521-.031.693-.055 3.562 4.063 3.729 2.603.106 5.045.053 8.492-2.471 1.475-1.081 2.391-3.21 2.266-3.462h-4.065c-.022.024-.947-.027-.957 0-.282.778-1.03 1.934-1.997 2.446-.736.392-2.343.24-2.438-.484-.095-.723 1.558-3.565 1.558-3.565l8.748-.031zM122.887 92.787h4.91s.434-.956.521-1.608c.086-.651.088-3.477-5.127-3.477s-7.213 2.782-8.17 3.781c-.955.998-2.078 4.195 1.695 5.865 2.955 1.309 3.283 1.893 3.205 2.67-.111 1.096-2.51 2.022-3.422 1.11a1.464 1.464 0 0 1-.045-2.129h-4.953s-2.215 3.867 1.348 4.867c3.562.998 7.969-.349 9.473-1.305 1.539-.979 5.568-6.171.641-7.932-4.75-1.697-3.426-3.272-2.082-3.956.541-.274 1.568-.294 2.082.088.91.677-.076 2.026-.076 2.026zM131.176 102.29a2.266 2.266 0 1 1-4.532 0 2.266 2.266 0 0 1 4.532 0zM153.752 96.557c-.074.146-2.141 4.794-2.654 5.195-.285.226-.824.28-1.188.147-.203-.074-.367-.494-.221-.86s2.367-5.336 2.744-5.598c.545-.38 1.418-.312 1.551.049.131.354-.16.919-.232 1.067zm-4.209-1.739c-.771.756-2.805 5.471-3.129 6.331-.307.811.002 2.021.549 2.433.738.558 1.926.552 2.967.504 1.258-.059 2.449-.504 3.693-1.491 1.244-.989 3.037-5.196 3.586-6.935.66-2.085-1.68-2.672-3.107-2.672-2.163-.001-3.231.526-4.559 1.83zM161.283 92.987h2.908l-.557 1.451s1.441-1.334 2.84-1.451c.855-.071 2.01.609 1.926 1.392-.01.086.145.029.145.029 1.18-1.076 2.037-1.191 2.553-1.304 1.025-.224 2.646.316 2.367 1.435-.24.959-4.133 9.547-4.133 9.547h-3.156s3.324-7.559 3.467-8.002c.26-.809-1.301-.779-1.619-.115-.316.665-3.658 8.117-3.658 8.117h-3.129s3.223-7.286 3.438-7.8c.375-.896-.953-1.357-1.561-.23-.605 1.126-3.602 8.03-3.602 8.03h-3.176l4.947-11.099z" fill="#fff"/></g></svg>