<svg xmlns="http://www.w3.org/2000/svg" width="2500" height="2500" viewBox="0 0 192.756 192.756"><g fill-rule="evenodd" clip-rule="evenodd"><path fill="#fff" d="M0 0h192.756v192.756H0V0z"/><path fill="#7e6614" d="M8.504 67.555h8.558v51.347H8.504V67.555zM25.62 67.555h8.558v51.347H25.62V67.555zM42.736 67.555h8.558v51.347h-8.558V67.555zM59.852 67.555h42.791v51.347H59.852V67.555zM110.379 68.992v2.465h6.984v18.006h2.739V71.457h6.982v-2.465h-16.705zM135.848 74.196c-.342-.068-.615-.068-.891-.068-1.438 0-2.875 1.027-3.971 2.943v-2.533h-2.396v14.925h2.533v-8.969c0-2.123 1.781-3.697 4.041-3.697.137 0 .41 0 .684.068v-2.669zM137.766 68.992v2.875h2.602v-2.875h-2.602zm0 5.546v14.925h2.602V74.538h-2.602zM121.129 97.885c-6.025 0-9.996 4.312-9.996 10.816s3.971 10.75 9.996 10.75c5.955 0 9.994-4.246 9.994-10.75s-4.039-10.816-9.994-10.816zm0 2.465c4.244 0 7.119 3.354 7.119 8.352s-2.875 8.354-7.119 8.354c-4.314 0-7.121-3.355-7.121-8.354s2.875-8.352 7.121-8.352zM141.668 103.703c-.344-.068-.617-.137-.891-.137-1.438 0-2.875 1.096-3.971 2.945v-2.465h-2.396v14.924h2.533v-8.969c0-2.121 1.779-3.697 4.039-3.697h.686v-2.601zM143.584 98.432v2.877h2.602v-2.877h-2.602zm0 5.615v14.924h2.602v-14.924h-2.602zM159.879 106.1c-1.369-1.848-2.533-2.533-4.52-2.533-3.766 0-6.16 3.014-6.16 7.668 0 4.861 2.602 8.148 6.504 8.148 1.848 0 3.354-.822 4.039-2.123v.686c0 3.766-1.164 5.135-4.383 5.135-1.779 0-2.875-.754-3.148-2.328h-2.533c.41 3.012 2.396 4.449 5.957 4.449 4.244 0 6.709-2.465 6.709-6.846v-14.309h-2.465v2.053zm-4.039-.274c2.738 0 4.039 2.055 4.039 6.299 0 3.08-1.574 5.066-4.107 5.066s-3.971-2.191-3.971-6.025c0-3.492 1.369-5.34 4.039-5.34zM165.768 98.432v2.877h2.602v-2.877h-2.602zm0 5.615v14.924h2.602v-14.924h-2.602zM184.252 118.971v-10.543c0-2.943-1.984-4.861-5.066-4.861-2.055 0-3.148.686-4.725 2.602v-2.121h-2.396v14.924h2.604v-8.557c0-2.602 1.643-4.588 3.902-4.588 2.189 0 3.148 1.164 3.148 3.561v9.584h2.533v-.001z"/></g></svg>