<svg xmlns="http://www.w3.org/2000/svg" width="2500" height="2500" viewBox="0 0 192.756 192.756"><g fill-rule="evenodd" clip-rule="evenodd"><path fill="#fff" d="M0 0h192.756v192.756H0V0z"/><path d="M184.252 103.947l-1.009 5.616h-13.065c-2.638 0-4.199 1.296-4.68 3.888l11.879 7.2c3.121 1.872 4.682 4.583 4.682 8.136 0 3.12-1.152 5.615-3.456 7.487-1.873 1.488-3.937 2.232-6.193 2.232h-20.663l.937-5.904h15.191c2.736 0 4.345-1.393 4.824-4.176l-12.024-6.695c-3.072-1.728-4.607-4.369-4.607-7.921 0-2.831.9-5.185 2.699-7.056 1.8-1.871 4.116-2.808 6.948-2.808h18.537v.001zm-40.354 10.657c.239-1.345-.181-2.509-1.261-3.493-1.08-.983-2.315-1.476-3.708-1.476-2.592 0-4.127 1.536-4.607 4.608l-1.08 6.84h9.6l1.056-6.479zm9.576.575l-2.004 11.808h-19.235a4.869 4.869 0 0 0-.072.793c0 1.343.48 2.484 1.44 3.419.96.937 2.111 1.404 3.468 1.404h13.477l-.889 5.904h-17.64c-2.688 0-4.944-.948-6.769-2.844-1.824-1.896-2.736-4.188-2.736-6.876 0-.576.048-1.152.145-1.729l2.592-15.408c.384-2.256 1.476-4.104 3.276-5.543 1.8-1.44 3.852-2.16 6.156-2.16h9.359c2.641 0 4.896.948 6.768 2.844 1.872 1.896 2.808 4.164 2.808 6.804a9.797 9.797 0 0 1-.144 1.584zm-30.948-.073l-3.888 23.4h-9.553l3.863-23.256c.24-1.488-.131-2.809-1.115-3.96-.983-1.152-2.208-1.728-3.695-1.728h-3.816l-4.908 28.943h-9.576l7.704-46.08h9.575l-1.932 11.521h7.848c2.689 0 4.957.923 6.828 2.771 1.873 1.849 2.809 4.116 2.809 6.804 0 .482-.048 1.01-.144 1.585zm-29.028-11.159l-.936 5.616h-9.784c-2.687 0-4.293 1.342-4.752 4.031L75.71 127.13c-.24 1.44.133 2.713 1.116 3.815.984 1.104 2.196 1.656 3.636 1.656h8.283l-1.007 5.904H75.494c-2.638 0-4.897-.938-6.769-2.809-1.871-1.87-2.808-4.127-2.808-6.768 0-.576.048-1.151.145-1.729l2.592-15.191c.384-2.352 1.464-4.284 3.24-5.796 1.774-1.511 3.863-2.268 6.264-2.268h15.34v.003zm-25.697-.072l-5.771 34.56h-9.6l5.76-34.56h9.611zm1.932-11.521l-.936 5.688H59.15l1.007-5.688h9.576zm-13.679 11.593l-.937 5.616h-5.64c-2.749 0-4.344 1.343-4.776 4.02l-3.912 24.924h-9.576l4.392-26.999c.336-2.209 1.429-4.021 3.277-5.438 1.848-1.415 3.9-2.123 6.156-2.123h11.016zm-47.55-4.709l1.135-6.812h34.867l-1.136 6.812H30.607c-2.185 13.09-4.345 26.184-6.562 39.269h-9.576l6.565-39.269H8.504z" fill="#cc2229"/><path d="M91.617 148.979c.742 0 1.297-.212 1.666-.633.37-.423.554-1.058.554-1.905 0-.898-.205-1.589-.617-2.072-.412-.482-1.001-.725-1.769-.725h-1.313v5.335h1.479zm-.212.827h-2.191v-6.921h1.943c.679 0 1.189.046 1.53.138.341.093.647.244.919.457.388.307.686.715.893 1.223.207.509.31 1.088.31 1.739 0 .525-.074 1.01-.223 1.452-.149.443-.359.809-.631 1.095a2.416 2.416 0 0 1-.988.63c-.375.124-.895.187-1.562.187zm6.962 0h-.924v-6.921h.924v6.921zm3.662-2.029c.017.451.152.783.41 1 .26.216.655.323 1.19.323.519 0 .929-.107 1.229-.321.3-.214.451-.507.451-.88 0-.528-.539-.928-1.615-1.197-.125-.029-.219-.054-.281-.069l-.272-.071c-.608-.148-1.033-.295-1.271-.436a1.498 1.498 0 0 1-.553-.58 1.68 1.68 0 0 1-.198-.813c0-.601.232-1.076.698-1.427s1.105-.525 1.916-.525c.716 0 1.279.151 1.691.458.411.305.617.721.617 1.251v.107h-.935c-.016-.338-.149-.598-.4-.781-.253-.184-.605-.274-1.059-.274-.473 0-.85.103-1.129.308a.967.967 0 0 0-.42.823c0 .453.517.811 1.554 1.069.147.038.259.066.338.084.926.238 1.537.499 1.836.786.296.287.445.688.445 1.205 0 .659-.23 1.176-.692 1.547-.462.373-1.103.56-1.923.56-.889 0-1.545-.169-1.973-.504-.428-.334-.641-.851-.641-1.547v-.095h.987v-.001zm9.465 2.029h-.925v-6.09h-2.295v-.831h5.522v.831h-2.303v6.09h.001zm6.843-3.97c.532 0 .91-.082 1.136-.243.226-.163.339-.431.339-.803 0-.376-.102-.64-.304-.796-.201-.155-.592-.232-1.171-.232h-1.352v2.074h1.352zm-2.275 3.97v-6.921h2.439c.764 0 1.337.151 1.724.454.385.305.576.755.576 1.352 0 .414-.112.764-.334 1.05-.225.285-.537.481-.938.588.304.069.526.176.67.322.141.146.248.383.32.711.021.103.069.434.144.991.072.559.17 1.043.288 1.453h-.99c-.097-.391-.177-.858-.241-1.403s-.121-.885-.171-1.019c-.095-.267-.241-.448-.439-.552-.198-.101-.521-.151-.965-.151h-1.159v3.125h-.924zm8.482 0h-.925v-6.921h.925v6.921zm2.935 0v-6.921h2.356c.348 0 .623.016.828.049.205.032.388.084.546.152.302.145.533.351.7.622.165.271.249.583.249.937 0 .381-.097.701-.289.965-.192.261-.471.448-.833.564.425.119.748.332.971.638s.333.693.333 1.16c0 .646-.182 1.114-.549 1.401-.365.288-.978.433-1.834.433h-2.478zm2.346-.77c.545 0 .936-.096 1.176-.286.238-.19.358-.498.358-.924 0-.414-.127-.723-.383-.927-.254-.203-.639-.304-1.151-.304h-1.422v2.44h1.422v.001zm-.089-3.21c.517 0 .884-.083 1.104-.248.219-.167.328-.438.328-.816 0-.374-.118-.65-.354-.835-.237-.183-.596-.273-1.077-.273h-1.333v2.173h1.332v-.001zm5.151-2.941h.947v4.086c0 .729.148 1.262.441 1.602.295.339.752.509 1.376.509.669 0 1.153-.176 1.454-.526.299-.353.45-.93.45-1.73v-3.939h.892v4.516c0 .79-.253 1.405-.761 1.848-.506.443-1.214.664-2.12.664-.886 0-1.554-.233-2.004-.699s-.676-1.154-.676-2.069v-4.262h.001zm9.336 6.921h-.925v-6.921h.925v6.921zm5.338-.827c.741 0 1.298-.212 1.666-.633.37-.423.554-1.058.554-1.905 0-.898-.205-1.589-.616-2.072-.412-.482-1.001-.725-1.769-.725h-1.313v5.335h1.478zm-.212.827h-2.19v-6.921h1.942c.68 0 1.188.046 1.529.138.342.093.647.244.92.457.388.307.686.715.892 1.223.207.509.311 1.088.311 1.739 0 .525-.074 1.01-.224 1.452-.149.443-.358.809-.631 1.095a2.43 2.43 0 0 1-.988.63c-.374.124-.894.187-1.561.187zm6.78-3.488c0 .898.187 1.591.561 2.076.375.486.908.73 1.6.73.702 0 1.238-.239 1.608-.717.372-.477.558-1.167.558-2.07s-.186-1.597-.56-2.076c-.373-.48-.908-.721-1.606-.721-.695 0-1.229.238-1.602.718-.374.479-.559 1.167-.559 2.06zm-.99.047c0-1.148.273-2.033.823-2.653.55-.621 1.331-.932 2.342-.932s1.789.31 2.334.928c.544.616.816 1.503.816 2.657 0 1.135-.273 2.013-.821 2.63-.548.618-1.325.928-2.329.928-1.003 0-1.779-.312-2.333-.935-.555-.623-.832-1.497-.832-2.623zm11.264-.529c.531 0 .909-.082 1.135-.243.227-.163.339-.431.339-.803 0-.376-.102-.64-.303-.796-.202-.155-.593-.232-1.171-.232h-1.353v2.074h1.353zm-2.276 3.97v-6.921h2.439c.764 0 1.338.151 1.723.454.386.305.578.755.578 1.352 0 .414-.112.764-.336 1.05-.224.285-.536.481-.937.588.304.069.527.176.669.322.142.146.249.383.321.711.022.103.07.434.144.991a9.7 9.7 0 0 0 .289 1.453h-.99c-.098-.391-.178-.858-.242-1.403s-.121-.885-.171-1.019c-.095-.267-.241-.448-.438-.552-.199-.101-.521-.151-.965-.151h-1.16v3.125h-.924zm11.48-2.577l-1.271-3.411-1.343 3.411h2.614zm-3.691 2.577h-.963l2.942-6.921h.989l2.777 6.921h-1.079l-.688-1.788h-3.21l-.768 1.788zM154.894 55.625c-22.675-1.318-41.694-2.032-68.634-19.792 8.9 20.355 31.616 30.258 60.033 30.828 29.17.584 3.788 26.64-5.8 29.566 11.178 0 17.854.868 25.581-9.392 16.774-22.268 10.019-29.978-11.18-31.21zm-53.37 5.142c9.499 15.365 14.531 17.95 31.065 18.724 8.778.411 8 5.895 2.141 9.747-3.863 2.541-6.127 6.829 1.042 6.935 9.519.141 30.056-24.353 12.312-25.087-16.391-.679-34.575-1.646-46.56-10.319z" fill="#929496"/></g></svg>