<svg xmlns="http://www.w3.org/2000/svg" width="2500" height="2500" viewBox="0 0 192.756 192.756"><g fill-rule="evenodd" clip-rule="evenodd"><path fill="#fff" d="M0 0h192.756v192.756H0V0z"/><path d="M105.439 76.627c-4.393-.028-7.711 3.385-8.686 6.612l-5.26 17.415c-1.839 6.09 1.371 11.26 7.592 11.26h27.707c6.758 0 6.941-6.859 8.842-13.471-4.959.166-9.916.332-14.793.414-.826 3.141-1.068 5.225-3.223 5.475l-9.67.057c-.863.004-2.381-.635-2.137-1.461l4.83-16.278c.309-1.042 1.604-1.843 2.689-1.843l10.65.001c.525 0 .82.884.746 1.777l-.809 3.688 14.627-.258.916-4.98c.883-4.803-3.586-8.212-8.207-8.242l-25.814-.166zM189.58 87.267c1.701-5.859-3.217-10.446-7.836-10.475l-26.746-.165c-4.391-.027-7.709 3.385-8.684 6.612l-5.26 17.415c-1.84 6.09 1.371 11.26 7.592 11.26h28.635c4.857 0 6.18-3.58 7.461-7.99l4.838-16.657zm-21.473 17.065l-10.598.057c-.861.004-2.383-.635-2.137-1.461l4.83-16.278c.309-1.042 1.604-1.843 2.689-1.843l11.301.001c.896 0 1.098.884 1.023 1.777l-4.25 14.35c-.826 2.795-1.694 3.262-2.858 3.397zM49.112 76.627l-6.767 23.314c-2.031 6.996-.078 11.184 6.106 11.973s11.9.33 17.933.414c-1.488 4.875-2.893 9.75-4.297 14.543 4.958-.082 9.917-.164 14.958-.33 4.958-16.611 10-33.221 15.04-49.914-5.041.083-10.082.165-15.04.248-2.727 9.173-5.454 18.263-8.181 27.354l-7.845.109c-1.55.021-3.122-.09-4.055-.854-.404-.33-.477-1.086-.331-1.652 2.179-8.406 4.875-16.775 7.354-25.205H49.112zM18.702 70.182l-2.149 6.61-11.9.249C3.826 79.768 3 82.743 2.834 84.643l11.332.145-4.392 15.66c-1.762 6.285-.206 10.678 6.199 11.467 5.741.707 11.569 0 17.437-.082.744-2.48 1.488-5.041 2.231-7.604l-8.137-.002c-1.845-.002-2.038-.225-2.688-.41-.694-1.057-.344-2.75.347-5.09l4.115-13.918c4.132-.083 8.264-.166 12.396-.331l2.231-7.851H31.841l2.975-10.743-16.114 4.298z"/></g></svg>