<svg xmlns="http://www.w3.org/2000/svg" width="2500" height="2500" viewBox="0 0 192.756 192.756"><g fill-rule="evenodd" clip-rule="evenodd"><path fill="#fff" d="M0 0h192.756v192.756H0V0z"/><path fill="#80549d" stroke="#80549d" stroke-width=".908" stroke-miterlimit="2.613" d="M8.968 69.681v24.966-24.966z"/><path fill="#6360a6" stroke="#6360a6" stroke-width=".908" stroke-miterlimit="2.613" d="M183.641 69.681v24.966-24.966z"/><path fill="#82549b" stroke="#82549b" stroke-width=".908" stroke-miterlimit="2.613" d="M8.968 94.647V69.681v24.966z"/><path fill="#82549a" stroke="#82549a" stroke-width=".908" stroke-miterlimit="2.613" d="M9.615 94.647V69.681v24.966z"/><path fill="#83549a" stroke="#83549a" stroke-width=".908" stroke-miterlimit="2.613" d="M10.141 94.647V69.681v24.966z"/><path fill="#855498" stroke="#855498" stroke-width=".908" stroke-miterlimit="2.613" d="M10.668 94.647V69.681v24.966z"/><path fill="#855497" stroke="#855497" stroke-width=".908" stroke-miterlimit="2.613" d="M11.195 94.647V69.681v24.966z"/><path fill="#855496" stroke="#855496" stroke-width=".908" stroke-miterlimit="2.613" d="M11.721 94.647V69.681v24.966z"/><path fill="#875495" stroke="#875495" stroke-width=".908" stroke-miterlimit="2.613" d="M12.248 94.647V69.681v24.966z"/><path fill="#895494" stroke="#895494" stroke-width=".908" stroke-miterlimit="2.613" d="M12.774 94.647V69.681v24.966z"/><path fill="#895493" stroke="#895493" stroke-width=".908" stroke-miterlimit="2.613" d="M13.3 94.647V69.681v24.966z"/><path fill="#8a5492" stroke="#8a5492" stroke-width=".908" stroke-miterlimit="2.613" d="M13.828 94.647V69.681v24.966zM14.354 94.647V69.681v24.966z"/><path fill="#8c5491" stroke="#8c5491" stroke-width=".908" stroke-miterlimit="2.613" d="M14.88 94.647V69.681v24.966z"/><path fill="#8c5490" stroke="#8c5490" stroke-width=".908" stroke-miterlimit="2.613" d="M15.407 94.647V69.681v24.966z"/><path fill="#8e558f" stroke="#8e558f" stroke-width=".908" stroke-miterlimit="2.613" d="M15.933 94.647V69.681v24.966z"/><path fill="#8e558e" stroke="#8e558e" stroke-width=".908" stroke-miterlimit="2.613" d="M16.46 94.647V69.681v24.966z"/><path fill="#8f558d" stroke="#8f558d" stroke-width=".908" stroke-miterlimit="2.613" d="M16.987 94.647V69.681v24.966z"/><path fill="#91558c" stroke="#91558c" stroke-width=".908" stroke-miterlimit="2.613" d="M17.513 94.647V69.681v24.966z"/><path fill="#91558b" stroke="#91558b" stroke-width=".908" stroke-miterlimit="2.613" d="M18.04 94.647V69.681v24.966z"/><path fill="#92558b" stroke="#92558b" stroke-width=".908" stroke-miterlimit="2.613" d="M18.566 94.647V69.681v24.966z"/><path fill="#93558a" stroke="#93558a" stroke-width=".908" stroke-miterlimit="2.613" d="M19.092 94.647V69.681v24.966z"/><path fill="#945589" stroke="#945589" stroke-width=".908" stroke-miterlimit="2.613" d="M19.62 94.647V69.681v24.966z"/><path fill="#945588" stroke="#945588" stroke-width=".908" stroke-miterlimit="2.613" d="M20.146 94.647V69.681v24.966z"/><path fill="#965587" stroke="#965587" stroke-width=".908" stroke-miterlimit="2.613" d="M20.672 94.647V69.681v24.966z"/><path fill="#975686" stroke="#975686" stroke-width=".908" stroke-miterlimit="2.613" d="M21.199 94.647V69.681v24.966z"/><path fill="#975685" stroke="#975685" stroke-width=".908" stroke-miterlimit="2.613" d="M21.725 94.647V69.681v24.966z"/><path fill="#975684" stroke="#975684" stroke-width=".908" stroke-miterlimit="2.613" d="M22.251 94.647V69.681v24.966z"/><path fill="#995683" stroke="#995683" stroke-width=".908" stroke-miterlimit="2.613" d="M22.779 94.647V69.681v24.966zM23.305 94.647V69.681v24.966z"/><path fill="#9b5682" stroke="#9b5682" stroke-width=".908" stroke-miterlimit="2.613" d="M23.832 94.647V69.681v24.966z"/><path fill="#9c5681" stroke="#9c5681" stroke-width=".908" stroke-miterlimit="2.613" d="M24.358 94.647V69.681v24.966z"/><path fill="#9c5680" stroke="#9c5680" stroke-width=".908" stroke-miterlimit="2.613" d="M24.885 94.647V69.681v24.966z"/><path fill="#9e567f" stroke="#9e567f" stroke-width=".908" stroke-miterlimit="2.613" d="M25.412 94.647V69.681v24.966z"/><path fill="#9e567e" stroke="#9e567e" stroke-width=".908" stroke-miterlimit="2.613" d="M25.938 94.647V69.681v24.966z"/><path fill="#a0567d" stroke="#a0567d" stroke-width=".908" stroke-miterlimit="2.613" d="M26.465 94.647V69.681v24.966z"/><path fill="#a0577c" stroke="#a0577c" stroke-width=".908" stroke-miterlimit="2.613" d="M26.991 94.647V69.681v24.966z"/><path fill="#a1577c" stroke="#a1577c" stroke-width=".908" stroke-miterlimit="2.613" d="M27.518 94.647V69.681v24.966z"/><path fill="#a3577b" stroke="#a3577b" stroke-width=".908" stroke-miterlimit="2.613" d="M28.044 94.647V69.681v24.966z"/><path fill="#a3577a" stroke="#a3577a" stroke-width=".908" stroke-miterlimit="2.613" d="M28.571 94.647V69.681v24.966z"/><path fill="#a45778" stroke="#a45778" stroke-width=".908" stroke-miterlimit="2.613" d="M29.097 94.647V69.681v24.966z"/><path fill="#a45777" stroke="#a45777" stroke-width=".908" stroke-miterlimit="2.613" d="M29.624 94.647V69.681v24.966z"/><path fill="#a65776" stroke="#a65776" stroke-width=".908" stroke-miterlimit="2.613" d="M30.15 94.647V69.681v24.966z"/><path fill="#a65775" stroke="#a65775" stroke-width=".908" stroke-miterlimit="2.613" d="M30.676 94.647V69.681v24.966z"/><path fill="#a85774" stroke="#a85774" stroke-width=".908" stroke-miterlimit="2.613" d="M31.204 94.647V69.681v24.966z"/><path fill="#a95874" stroke="#a95874" stroke-width=".908" stroke-miterlimit="2.613" d="M31.73 94.647V69.681v24.966z"/><path fill="#a95873" stroke="#a95873" stroke-width=".908" stroke-miterlimit="2.613" d="M32.256 94.647V69.681v24.966z"/><path fill="#a95872" stroke="#a95872" stroke-width=".908" stroke-miterlimit="2.613" d="M32.783 94.647V69.681v24.966z"/><path fill="#ab5871" stroke="#ab5871" stroke-width=".908" stroke-miterlimit="2.613" d="M33.31 94.647V69.681v24.966z"/><path fill="#ab5870" stroke="#ab5870" stroke-width=".908" stroke-miterlimit="2.613" d="M33.836 94.647V69.681v24.966z"/><path fill="#ac586f" stroke="#ac586f" stroke-width=".908" stroke-miterlimit="2.613" d="M34.363 94.647V69.681v24.966z"/><path fill="#ae586e" stroke="#ae586e" stroke-width=".908" stroke-miterlimit="2.613" d="M34.89 94.647V69.681v24.966z"/><path fill="#ae586d" stroke="#ae586d" stroke-width=".908" stroke-miterlimit="2.613" d="M35.416 94.647V69.681v24.966z"/><path fill="#b0586d" stroke="#b0586d" stroke-width=".908" stroke-miterlimit="2.613" d="M35.942 94.647V69.681v24.966z"/><path fill="#b0586c" stroke="#b0586c" stroke-width=".908" stroke-miterlimit="2.613" d="M36.469 94.647V69.681v24.966z"/><path fill="#b1586b" stroke="#b1586b" stroke-width=".908" stroke-miterlimit="2.613" d="M36.996 94.647V69.681v24.966z"/><path fill="#b1586a" stroke="#b1586a" stroke-width=".908" stroke-miterlimit="2.613" d="M37.522 94.647V69.681v24.966z"/><path fill="#b35868" stroke="#b35868" stroke-width=".908" stroke-miterlimit="2.613" d="M38.049 94.647V69.681v24.966z"/><path fill="#b45967" stroke="#b45967" stroke-width=".908" stroke-miterlimit="2.613" d="M38.575 94.647V69.681v24.966z"/><path fill="#b45966" stroke="#b45966" stroke-width=".908" stroke-miterlimit="2.613" d="M39.102 94.647V69.681v24.966z"/><path fill="#b65965" stroke="#b65965" stroke-width=".908" stroke-miterlimit="2.613" d="M39.628 94.647V69.681v24.966z"/><path fill="#b65964" stroke="#b65964" stroke-width=".908" stroke-miterlimit="2.613" d="M40.155 94.647V69.681v24.966z"/><path fill="#b75964" stroke="#b75964" stroke-width=".908" stroke-miterlimit="2.613" d="M40.681 94.647V69.681v24.966z"/><path fill="#b75962" stroke="#b75962" stroke-width=".908" stroke-miterlimit="2.613" d="M41.208 94.647V69.681v24.966z"/><path fill="#b95962" stroke="#b95962" stroke-width=".908" stroke-miterlimit="2.613" d="M41.734 94.647V69.681v24.966z"/><path fill="#b95961" stroke="#b95961" stroke-width=".908" stroke-miterlimit="2.613" d="M42.261 94.647V69.681v24.966z"/><path fill="#bb5960" stroke="#bb5960" stroke-width=".908" stroke-miterlimit="2.613" d="M42.788 94.647V69.681v24.966z"/><path fill="#bb595f" stroke="#bb595f" stroke-width=".908" stroke-miterlimit="2.613" d="M43.314 94.647V69.681v24.966z"/><path fill="#bc595e" stroke="#bc595e" stroke-width=".908" stroke-miterlimit="2.613" d="M43.841 94.647V69.681v24.966z"/><path fill="#bc595d" stroke="#bc595d" stroke-width=".908" stroke-miterlimit="2.613" d="M44.367 94.647V69.681v24.966z"/><path fill="#be595d" stroke="#be595d" stroke-width=".908" stroke-miterlimit="2.613" d="M44.894 94.647V69.681v24.966z"/><path fill="#bf595c" stroke="#bf595c" stroke-width=".908" stroke-miterlimit="2.613" d="M45.42 94.647V69.681v24.966z"/><path fill="#bf595a" stroke="#bf595a" stroke-width=".908" stroke-miterlimit="2.613" d="M45.947 94.647V69.681v24.966z"/><path fill="#c15a59" stroke="#c15a59" stroke-width=".908" stroke-miterlimit="2.613" d="M46.474 94.647V69.681v24.966z"/><path fill="#c15958" stroke="#c15958" stroke-width=".908" stroke-miterlimit="2.613" d="M47 94.647V69.681v24.966z"/><path fill="#c35a57" stroke="#c35a57" stroke-width=".908" stroke-miterlimit="2.613" d="M47.527 94.647V69.681v24.966z"/><path fill="#c35a56" stroke="#c35a56" stroke-width=".908" stroke-miterlimit="2.613" d="M48.053 94.647V69.681v24.966z"/><path fill="#c45a55" stroke="#c45a55" stroke-width=".908" stroke-miterlimit="2.613" d="M48.58 94.647V69.681v24.966z"/><path fill="#c65a55" stroke="#c65a55" stroke-width=".908" stroke-miterlimit="2.613" d="M49.107 94.647V69.681v24.966z"/><path fill="#c65a53" stroke="#c65a53" stroke-width=".908" stroke-miterlimit="2.613" d="M49.633 94.647V69.681v24.966z"/><path fill="#c75a52" stroke="#c75a52" stroke-width=".908" stroke-miterlimit="2.613" d="M50.159 94.647V69.681v24.966z"/><path fill="#c75a51" stroke="#c75a51" stroke-width=".908" stroke-miterlimit="2.613" d="M50.686 94.647V69.681v24.966z"/><path fill="#c95a50" stroke="#c95a50" stroke-width=".908" stroke-miterlimit="2.613" d="M51.212 94.647V69.681v24.966z"/><path fill="#c95a4e" stroke="#c95a4e" stroke-width=".908" stroke-miterlimit="2.613" d="M51.739 94.647V69.681v24.966z"/><path fill="#cb5a4d" stroke="#cb5a4d" stroke-width=".908" stroke-miterlimit="2.613" d="M52.266 94.647V69.681v24.966z"/><path fill="#cb5a4c" stroke="#cb5a4c" stroke-width=".908" stroke-miterlimit="2.613" d="M52.792 94.647V69.681v24.966z"/><path fill="#cc5a4a" stroke="#cc5a4a" stroke-width=".908" stroke-miterlimit="2.613" d="M53.319 94.647V69.681v24.966zM53.845 94.647V69.681v24.966z"/><path fill="#ce5b49" stroke="#ce5b49" stroke-width=".908" stroke-miterlimit="2.613" d="M54.372 94.647V69.681v24.966z"/><path fill="#ce5b48" stroke="#ce5b48" stroke-width=".908" stroke-miterlimit="2.613" d="M54.898 94.647V69.681v24.966z"/><path fill="#d05b46" stroke="#d05b46" stroke-width=".908" stroke-miterlimit="2.613" d="M55.425 94.647V69.681v24.966z"/><path fill="#d35b44" stroke="#d35b44" stroke-width=".908" stroke-miterlimit="2.613" d="M55.952 94.647V69.681v24.966z"/><path fill="#d35b43" stroke="#d35b43" stroke-width=".908" stroke-miterlimit="2.613" d="M56.478 69.681v24.966-24.966z"/><path fill="#6361a7" stroke="#6361a7" stroke-width=".908" stroke-miterlimit="2.613" d="M183.115 94.647V69.681v24.966z"/><path fill="#6362a6" stroke="#6362a6" stroke-width=".908" stroke-miterlimit="2.613" d="M182.588 94.647V69.681v24.966z"/><path fill="#6364a6" stroke="#6364a6" stroke-width=".908" stroke-miterlimit="2.613" d="M182.062 94.647V69.681v24.966z"/><path fill="#6464a4" stroke="#6464a4" stroke-width=".908" stroke-miterlimit="2.613" d="M181.533 94.647V69.681v24.966z"/><path fill="#6465a4" stroke="#6465a4" stroke-width=".908" stroke-miterlimit="2.613" d="M181.008 94.647V69.681v24.966z"/><path fill="#6466a5" stroke="#6466a5" stroke-width=".908" stroke-miterlimit="2.613" d="M180.482 94.647V69.681v24.966z"/><path fill="#6467a5" stroke="#6467a5" stroke-width=".908" stroke-miterlimit="2.613" d="M179.955 94.647V69.681v24.966z"/><path fill="#6467a3" stroke="#6467a3" stroke-width=".908" stroke-miterlimit="2.613" d="M179.428 94.647V69.681v24.966z"/><path fill="#6469a3" stroke="#6469a3" stroke-width=".908" stroke-miterlimit="2.613" d="M178.902 94.647V69.681v24.966z"/><path fill="#646aa4" stroke="#646aa4" stroke-width=".908" stroke-miterlimit="2.613" d="M178.375 94.647V69.681v24.966z"/><path fill="#636ba4" stroke="#636ba4" stroke-width=".908" stroke-miterlimit="2.613" d="M177.848 94.647V69.681v24.966z"/><path fill="#636ca4" stroke="#636ca4" stroke-width=".908" stroke-miterlimit="2.613" d="M177.322 94.647V69.681v24.966z"/><path fill="#636ca2" stroke="#636ca2" stroke-width=".908" stroke-miterlimit="2.613" d="M176.795 94.647V69.681v24.966z"/><path fill="#636da2" stroke="#636da2" stroke-width=".908" stroke-miterlimit="2.613" d="M176.27 94.647V69.681v24.966z"/><path fill="#636fa3" stroke="#636fa3" stroke-width=".908" stroke-miterlimit="2.613" d="M175.742 94.647V69.681v24.966z"/><path fill="#646fa2" stroke="#646fa2" stroke-width=".908" stroke-miterlimit="2.613" d="M175.215 94.647V69.681v24.966z"/><path fill="#6470a2" stroke="#6470a2" stroke-width=".908" stroke-miterlimit="2.613" d="M174.689 94.647V69.681v24.966z"/><path fill="#6471a1" stroke="#6471a1" stroke-width=".908" stroke-miterlimit="2.613" d="M174.162 94.647V69.681v24.966z"/><path fill="#6472a1" stroke="#6472a1" stroke-width=".908" stroke-miterlimit="2.613" d="M173.637 94.647V69.681v24.966zM173.111 94.647V69.681v24.966z"/><path fill="#6474a1" stroke="#6474a1" stroke-width=".908" stroke-miterlimit="2.613" d="M172.582 94.647V69.681v24.966z"/><path fill="#6575a0" stroke="#6575a0" stroke-width=".908" stroke-miterlimit="2.613" d="M172.057 94.647V69.681v24.966z"/><path fill="#6576a0" stroke="#6576a0" stroke-width=".908" stroke-miterlimit="2.613" d="M171.531 94.647V69.681v24.966z"/><path fill="#6577a1" stroke="#6577a1" stroke-width=".908" stroke-miterlimit="2.613" d="M171.004 94.647V69.681v24.966z"/><path fill="#6577a0" stroke="#6577a0" stroke-width=".908" stroke-miterlimit="2.613" d="M170.477 94.647V69.681v24.966z"/><path fill="#65799f" stroke="#65799f" stroke-width=".908" stroke-miterlimit="2.613" d="M169.951 94.647V69.681v24.966z"/><path fill="#657aa0" stroke="#657aa0" stroke-width=".908" stroke-miterlimit="2.613" d="M169.424 94.647V69.681v24.966z"/><path fill="#657ba0" stroke="#657ba0" stroke-width=".908" stroke-miterlimit="2.613" d="M168.896 94.647V69.681v24.966z"/><path fill="#667c9f" stroke="#667c9f" stroke-width=".908" stroke-miterlimit="2.613" d="M168.371 94.647V69.681v24.966z"/><path fill="#667c9e" stroke="#667c9e" stroke-width=".908" stroke-miterlimit="2.613" d="M167.844 94.647V69.681v24.966z"/><path fill="#667e9e" stroke="#667e9e" stroke-width=".908" stroke-miterlimit="2.613" d="M167.318 94.647V69.681v24.966z"/><path fill="#667f9f" stroke="#667f9f" stroke-width=".908" stroke-miterlimit="2.613" d="M166.791 94.647V69.681v24.966z"/><path fill="#65809e" stroke="#65809e" stroke-width=".908" stroke-miterlimit="2.613" d="M166.264 94.647V69.681v24.966z"/><path fill="#65809d" stroke="#65809d" stroke-width=".908" stroke-miterlimit="2.613" d="M165.738 94.647V69.681v24.966z"/><path fill="#65819d" stroke="#65819d" stroke-width=".908" stroke-miterlimit="2.613" d="M165.211 94.647V69.681v24.966z"/><path fill="#65829d" stroke="#65829d" stroke-width=".908" stroke-miterlimit="2.613" d="M164.686 94.647V69.681v24.966z"/><path fill="#65849d" stroke="#65849d" stroke-width=".908" stroke-miterlimit="2.613" d="M164.158 94.647V69.681v24.966z"/><path fill="#66859d" stroke="#66859d" stroke-width=".908" stroke-miterlimit="2.613" d="M163.631 94.647V69.681v24.966z"/><path fill="#66859b" stroke="#66859b" stroke-width=".908" stroke-miterlimit="2.613" d="M163.105 94.647V69.681v24.966z"/><path fill="#66869b" stroke="#66869b" stroke-width=".908" stroke-miterlimit="2.613" d="M162.578 94.647V69.681v24.966z"/><path fill="#66879c" stroke="#66879c" stroke-width=".908" stroke-miterlimit="2.613" d="M162.053 94.647V69.681v24.966z"/><path fill="#66879a" stroke="#66879a" stroke-width=".908" stroke-miterlimit="2.613" d="M161.525 94.647V69.681v24.966z"/><path fill="#66889a" stroke="#66889a" stroke-width=".908" stroke-miterlimit="2.613" d="M160.998 94.647V69.681v24.966z"/><path fill="#678a99" stroke="#678a99" stroke-width=".908" stroke-miterlimit="2.613" d="M160.473 94.647V69.681v24.966z"/><path fill="#678b99" stroke="#678b99" stroke-width=".908" stroke-miterlimit="2.613" d="M159.945 94.647V69.681v24.966zM159.42 94.647V69.681v24.966z"/><path fill="#658c98" stroke="#658c98" stroke-width=".908" stroke-miterlimit="2.613" d="M158.893 94.647V69.681v24.966z"/><path fill="#658d98" stroke="#658d98" stroke-width=".908" stroke-miterlimit="2.613" d="M158.367 94.647V69.681v24.966z"/><path fill="#668e97" stroke="#668e97" stroke-width=".908" stroke-miterlimit="2.613" d="M157.84 94.647V69.681v24.966z"/><path fill="#669098" stroke="#669098" stroke-width=".908" stroke-miterlimit="2.613" d="M157.312 94.647V69.681v24.966z"/><path fill="#669096" stroke="#669096" stroke-width=".908" stroke-miterlimit="2.613" d="M156.787 94.647V69.681v24.966z"/><path fill="#669196" stroke="#669196" stroke-width=".908" stroke-miterlimit="2.613" d="M156.26 94.647V69.681v24.966z"/><path fill="#669297" stroke="#669297" stroke-width=".908" stroke-miterlimit="2.613" d="M155.734 94.647V69.681v24.966z"/><path fill="#679396" stroke="#679396" stroke-width=".908" stroke-miterlimit="2.613" d="M155.207 94.647V69.681v24.966z"/><path fill="#679595" stroke="#679595" stroke-width=".908" stroke-miterlimit="2.613" d="M154.68 94.647V69.681v24.966z"/><path fill="#679494" stroke="#679494" stroke-width=".908" stroke-miterlimit="2.613" d="M154.154 94.647V69.681v24.966z"/><path fill="#679693" stroke="#679693" stroke-width=".908" stroke-miterlimit="2.613" d="M153.627 94.647V69.681v24.966z"/><path fill="#679794" stroke="#679794" stroke-width=".908" stroke-miterlimit="2.613" d="M153.102 94.647V69.681v24.966z"/><path fill="#689893" stroke="#689893" stroke-width=".908" stroke-miterlimit="2.613" d="M152.574 94.647V69.681v24.966z"/><path fill="#689892" stroke="#689892" stroke-width=".908" stroke-miterlimit="2.613" d="M152.047 94.647V69.681v24.966z"/><path fill="#689991" stroke="#689991" stroke-width=".908" stroke-miterlimit="2.613" d="M151.521 94.647V69.681v24.966z"/><path fill="#689b92" stroke="#689b92" stroke-width=".908" stroke-miterlimit="2.613" d="M150.994 94.647V69.681v24.966z"/><path fill="#689c91" stroke="#689c91" stroke-width=".908" stroke-miterlimit="2.613" d="M150.469 94.647V69.681v24.966z"/><path fill="#699d91" stroke="#699d91" stroke-width=".908" stroke-miterlimit="2.613" d="M149.941 94.647V69.681v24.966z"/><path fill="#699d8f" stroke="#699d8f" stroke-width=".908" stroke-miterlimit="2.613" d="M149.414 94.647V69.681v24.966z"/><path fill="#699e8e" stroke="#699e8e" stroke-width=".908" stroke-miterlimit="2.613" d="M148.887 94.647V69.681v24.966z"/><path fill="#699f8f" stroke="#699f8f" stroke-width=".908" stroke-miterlimit="2.613" d="M148.361 94.647V69.681v24.966z"/><path fill="#679f8e" stroke="#679f8e" stroke-width=".908" stroke-miterlimit="2.613" d="M147.836 94.647V69.681v24.966z"/><path fill="#68a08d" stroke="#68a08d" stroke-width=".908" stroke-miterlimit="2.613" d="M147.309 94.647V69.681v24.966z"/><path fill="#68a18c" stroke="#68a18c" stroke-width=".908" stroke-miterlimit="2.613" d="M146.783 94.647V69.681v24.966z"/><path fill="#68a28c" stroke="#68a28c" stroke-width=".908" stroke-miterlimit="2.613" d="M146.256 94.647V69.681v24.966zM145.729 94.647V69.681v24.966z"/><path fill="#69a38b" stroke="#69a38b" stroke-width=".908" stroke-miterlimit="2.613" d="M145.203 94.647V69.681v24.966z"/><path fill="#69a58a" stroke="#69a58a" stroke-width=".908" stroke-miterlimit="2.613" d="M144.676 94.647V69.681v24.966z"/><path fill="#69a689" stroke="#69a689" stroke-width=".908" stroke-miterlimit="2.613" d="M144.15 94.647V69.681v24.966z"/><path fill="#69a78a" stroke="#69a78a" stroke-width=".908" stroke-miterlimit="2.613" d="M143.623 94.647V69.681v24.966z"/><path fill="#69a788" stroke="#69a788" stroke-width=".908" stroke-miterlimit="2.613" d="M143.096 94.647V69.681v24.966z"/><path fill="#6aa887" stroke="#6aa887" stroke-width=".908" stroke-miterlimit="2.613" d="M142.57 94.647V69.681v24.966z"/><path fill="#6aa988" stroke="#6aa988" stroke-width=".908" stroke-miterlimit="2.613" d="M142.043 94.647V69.681v24.966z"/><path fill="#6aaa87" stroke="#6aaa87" stroke-width=".908" stroke-miterlimit="2.613" d="M141.518 94.647V69.681v24.966z"/><path fill="#6aac86" stroke="#6aac86" stroke-width=".908" stroke-miterlimit="2.613" d="M140.99 94.647V69.681v24.966z"/><path fill="#69ab85" stroke="#69ab85" stroke-width=".908" stroke-miterlimit="2.613" d="M140.463 94.647V69.681v24.966z"/><path fill="#69ac84" stroke="#69ac84" stroke-width=".908" stroke-miterlimit="2.613" d="M139.936 94.647V69.681v24.966z"/><path fill="#69ad84" stroke="#69ad84" stroke-width=".908" stroke-miterlimit="2.613" d="M139.41 94.647V69.681v24.966z"/><path fill="#69ae83" stroke="#69ae83" stroke-width=".908" stroke-miterlimit="2.613" d="M138.885 94.647V69.681v24.966z"/><path fill="#69ae82" stroke="#69ae82" stroke-width=".908" stroke-miterlimit="2.613" d="M138.357 94.647V69.681v24.966z"/><path fill="#6ab081" stroke="#6ab081" stroke-width=".908" stroke-miterlimit="2.613" d="M137.83 94.647V69.681v24.966z"/><path fill="#6ab182" stroke="#6ab182" stroke-width=".908" stroke-miterlimit="2.613" d="M137.303 94.647V69.681v24.966z"/><path fill="#6ab381" stroke="#6ab381" stroke-width=".908" stroke-miterlimit="2.613" d="M136.777 94.647V69.681v24.966z"/><path fill="#6bb580" stroke="#6bb580" stroke-width=".908" stroke-miterlimit="2.613" d="M136.252 94.647V69.681v24.966z"/><path fill="#6bb57e" stroke="#6bb57e" stroke-width=".908" stroke-miterlimit="2.613" d="M135.725 69.681v24.966-24.966z"/><path fill="#d35d43" stroke="#d35d43" stroke-width=".908" stroke-miterlimit="2.613" d="M56.908 94.647V69.681v24.966z"/><path fill="#d45f44" stroke="#d45f44" stroke-width=".908" stroke-miterlimit="2.613" d="M57.338 94.647V69.681v24.966z"/><path fill="#d46144" stroke="#d46144" stroke-width=".908" stroke-miterlimit="2.613" d="M57.769 94.647V69.681v24.966z"/><path fill="#d46343" stroke="#d46343" stroke-width=".908" stroke-miterlimit="2.613" d="M58.2 94.647V69.681v24.966z"/><path fill="#d56544" stroke="#d56544" stroke-width=".908" stroke-miterlimit="2.613" d="M58.629 94.647V69.681v24.966zM59.06 94.647V69.681v24.966z"/><path fill="#d56844" stroke="#d56844" stroke-width=".908" stroke-miterlimit="2.613" d="M59.491 94.647V69.681v24.966z"/><path fill="#d66a43" stroke="#d66a43" stroke-width=".908" stroke-miterlimit="2.613" d="M59.92 94.647V69.681v24.966z"/><path fill="#d66c43" stroke="#d66c43" stroke-width=".908" stroke-miterlimit="2.613" d="M60.351 94.647V69.681v24.966z"/><path fill="#d76e44" stroke="#d76e44" stroke-width=".908" stroke-miterlimit="2.613" d="M60.782 94.647V69.681v24.966z"/><path fill="#d76f44" stroke="#d76f44" stroke-width=".908" stroke-miterlimit="2.613" d="M61.212 94.647V69.681v24.966z"/><path fill="#d77144" stroke="#d77144" stroke-width=".908" stroke-miterlimit="2.613" d="M61.642 94.647V69.681v24.966z"/><path fill="#d87343" stroke="#d87343" stroke-width=".908" stroke-miterlimit="2.613" d="M62.073 94.647V69.681v24.966z"/><path fill="#d87544" stroke="#d87544" stroke-width=".908" stroke-miterlimit="2.613" d="M62.502 94.647V69.681v24.966zM62.934 94.647V69.681v24.966z"/><path fill="#d97744" stroke="#d97744" stroke-width=".908" stroke-miterlimit="2.613" d="M63.364 94.647V69.681v24.966z"/><path fill="#d97943" stroke="#d97943" stroke-width=".908" stroke-miterlimit="2.613" d="M63.794 94.647V69.681v24.966z"/><path fill="#d97a43" stroke="#d97a43" stroke-width=".908" stroke-miterlimit="2.613" d="M64.225 94.647V69.681v24.966z"/><path fill="#da7c43" stroke="#da7c43" stroke-width=".908" stroke-miterlimit="2.613" d="M64.655 94.647V69.681v24.966z"/><path fill="#da7e44" stroke="#da7e44" stroke-width=".908" stroke-miterlimit="2.613" d="M65.085 94.647V69.681v24.966z"/><path fill="#db8044" stroke="#db8044" stroke-width=".908" stroke-miterlimit="2.613" d="M65.515 94.647V69.681v24.966z"/><path fill="#db8143" stroke="#db8143" stroke-width=".908" stroke-miterlimit="2.613" d="M65.946 94.647V69.681v24.966zM66.376 94.647V69.681v24.966z"/><path fill="#dc8343" stroke="#dc8343" stroke-width=".908" stroke-miterlimit="2.613" d="M66.807 94.647V69.681v24.966z"/><path fill="#dc8543" stroke="#dc8543" stroke-width=".908" stroke-miterlimit="2.613" d="M67.237 94.647V69.681v24.966z"/><path fill="#dd8744" stroke="#dd8744" stroke-width=".908" stroke-miterlimit="2.613" d="M67.667 94.647V69.681v24.966z"/><path fill="#dd8842" stroke="#dd8842" stroke-width=".908" stroke-miterlimit="2.613" d="M68.098 94.647V69.681v24.966z"/><path fill="#de8a43" stroke="#de8a43" stroke-width=".908" stroke-miterlimit="2.613" d="M68.528 94.647V69.681v24.966zM68.958 94.647V69.681v24.966z"/><path fill="#df8e43" stroke="#df8e43" stroke-width=".908" stroke-miterlimit="2.613" d="M69.388 94.647V69.681v24.966z"/><path fill="#df8e42" stroke="#df8e42" stroke-width=".908" stroke-miterlimit="2.613" d="M69.819 94.647V69.681v24.966z"/><path fill="#df8f42" stroke="#df8f42" stroke-width=".908" stroke-miterlimit="2.613" d="M70.25 94.647V69.681v24.966z"/><path fill="#e09142" stroke="#e09142" stroke-width=".908" stroke-miterlimit="2.613" d="M70.68 94.647V69.681v24.966z"/><path fill="#e09343" stroke="#e09343" stroke-width=".908" stroke-miterlimit="2.613" d="M71.11 94.647V69.681v24.966z"/><path fill="#e09543" stroke="#e09543" stroke-width=".908" stroke-miterlimit="2.613" d="M71.541 94.647V69.681v24.966z"/><path fill="#e19641" stroke="#e19641" stroke-width=".908" stroke-miterlimit="2.613" d="M71.97 94.647V69.681v24.966z"/><path fill="#e29842" stroke="#e29842" stroke-width=".908" stroke-miterlimit="2.613" d="M72.401 94.647V69.681v24.966z"/><path fill="#e29a42" stroke="#e29a42" stroke-width=".908" stroke-miterlimit="2.613" d="M72.832 94.647V69.681v24.966z"/><path fill="#e39c42" stroke="#e39c42" stroke-width=".908" stroke-miterlimit="2.613" d="M73.262 94.647V69.681v24.966z"/><path fill="#e39c41" stroke="#e39c41" stroke-width=".908" stroke-miterlimit="2.613" d="M73.693 94.647V69.681v24.966z"/><path fill="#e39d41" stroke="#e39d41" stroke-width=".908" stroke-miterlimit="2.613" d="M74.123 94.647V69.681v24.966z"/><path fill="#e49f41" stroke="#e49f41" stroke-width=".908" stroke-miterlimit="2.613" d="M74.552 94.647V69.681v24.966z"/><path fill="#e4a141" stroke="#e4a141" stroke-width=".908" stroke-miterlimit="2.613" d="M74.983 94.647V69.681v24.966z"/><path fill="#e5a342" stroke="#e5a342" stroke-width=".908" stroke-miterlimit="2.613" d="M75.414 94.647V69.681v24.966z"/><path fill="#e6a540" stroke="#e6a540" stroke-width=".908" stroke-miterlimit="2.613" d="M75.844 94.647V69.681v24.966z"/><path fill="#e6a740" stroke="#e6a740" stroke-width=".908" stroke-miterlimit="2.613" d="M76.274 94.647V69.681v24.966z"/><path fill="#e7a841" stroke="#e7a841" stroke-width=".908" stroke-miterlimit="2.613" d="M76.705 94.647V69.681v24.966zM77.135 94.647V69.681v24.966z"/><path fill="#e7aa3f" stroke="#e7aa3f" stroke-width=".908" stroke-miterlimit="2.613" d="M77.566 94.647V69.681v24.966z"/><path fill="#e8ac3f" stroke="#e8ac3f" stroke-width=".908" stroke-miterlimit="2.613" d="M77.996 94.647V69.681v24.966z"/><path fill="#e8ae40" stroke="#e8ae40" stroke-width=".908" stroke-miterlimit="2.613" d="M78.426 94.647V69.681v24.966z"/><path fill="#e9b040" stroke="#e9b040" stroke-width=".908" stroke-miterlimit="2.613" d="M78.856 94.647V69.681v24.966z"/><path fill="#eab240" stroke="#eab240" stroke-width=".908" stroke-miterlimit="2.613" d="M79.287 94.647V69.681v24.966z"/><path fill="#eab43e" stroke="#eab43e" stroke-width=".908" stroke-miterlimit="2.613" d="M79.718 94.647V69.681v24.966z"/><path fill="#ebb63e" stroke="#ebb63e" stroke-width=".908" stroke-miterlimit="2.613" d="M80.148 94.647V69.681v24.966zM80.578 94.647V69.681v24.966z"/><path fill="#ecb73f" stroke="#ecb73f" stroke-width=".908" stroke-miterlimit="2.613" d="M81.008 94.647V69.681v24.966z"/><path fill="#ecb93d" stroke="#ecb93d" stroke-width=".908" stroke-miterlimit="2.613" d="M81.438 94.647V69.681v24.966z"/><path fill="#edbb3d" stroke="#edbb3d" stroke-width=".908" stroke-miterlimit="2.613" d="M81.869 94.647V69.681v24.966z"/><path fill="#eebd3d" stroke="#eebd3d" stroke-width=".908" stroke-miterlimit="2.613" d="M82.299 94.647V69.681v24.966z"/><path fill="#eebf3d" stroke="#eebf3d" stroke-width=".908" stroke-miterlimit="2.613" d="M82.73 94.647V69.681v24.966z"/><path fill="#efc13d" stroke="#efc13d" stroke-width=".908" stroke-miterlimit="2.613" d="M83.161 94.647V69.681v24.966z"/><path fill="#f0c33b" stroke="#f0c33b" stroke-width=".908" stroke-miterlimit="2.613" d="M83.59 94.647V69.681v24.966zM84.021 94.647V69.681v24.966z"/><path fill="#f0c43b" stroke="#f0c43b" stroke-width=".908" stroke-miterlimit="2.613" d="M84.452 94.647V69.681v24.966z"/><path fill="#f1c63c" stroke="#f1c63c" stroke-width=".908" stroke-miterlimit="2.613" d="M84.882 94.647V69.681v24.966z"/><path fill="#f2c83a" stroke="#f2c83a" stroke-width=".908" stroke-miterlimit="2.613" d="M85.312 94.647V69.681v24.966z"/><path fill="#f2ca3a" stroke="#f2ca3a" stroke-width=".908" stroke-miterlimit="2.613" d="M85.742 94.647V69.681v24.966z"/><path fill="#f3cc3a" stroke="#f3cc3a" stroke-width=".908" stroke-miterlimit="2.613" d="M86.172 94.647V69.681v24.966z"/><path fill="#f4ce3a" stroke="#f4ce3a" stroke-width=".908" stroke-miterlimit="2.613" d="M86.603 94.647V69.681v24.966z"/><path fill="#f4d03a" stroke="#f4d03a" stroke-width=".908" stroke-miterlimit="2.613" d="M87.034 94.647V69.681v24.966z"/><path fill="#f5d137" stroke="#f5d137" stroke-width=".908" stroke-miterlimit="2.613" d="M87.464 94.647V69.681v24.966zM87.895 94.647V69.681v24.966z"/><path fill="#f6d337" stroke="#f6d337" stroke-width=".908" stroke-miterlimit="2.613" d="M88.325 94.647V69.681v24.966z"/><path fill="#f6d537" stroke="#f6d537" stroke-width=".908" stroke-miterlimit="2.613" d="M88.755 94.647V69.681v24.966z"/><path fill="#f7d737" stroke="#f7d737" stroke-width=".908" stroke-miterlimit="2.613" d="M89.185 94.647V69.681v24.966z"/><path fill="#f8d935" stroke="#f8d935" stroke-width=".908" stroke-miterlimit="2.613" d="M89.616 94.647V69.681v24.966z"/><path fill="#f9db35" stroke="#f9db35" stroke-width=".908" stroke-miterlimit="2.613" d="M90.046 94.647V69.681v24.966z"/><path fill="#f9dc35" stroke="#f9dc35" stroke-width=".908" stroke-miterlimit="2.613" d="M90.477 94.647V69.681v24.966z"/><path fill="#fade35" stroke="#fade35" stroke-width=".908" stroke-miterlimit="2.613" d="M90.906 94.647V69.681v24.966z"/><path fill="#fade33" stroke="#fade33" stroke-width=".908" stroke-miterlimit="2.613" d="M91.337 94.647V69.681v24.966z"/><path fill="#fbe033" stroke="#fbe033" stroke-width=".908" stroke-miterlimit="2.613" d="M91.767 94.647V69.681v24.966z"/><path fill="#fce233" stroke="#fce233" stroke-width=".908" stroke-miterlimit="2.613" d="M92.198 94.647V69.681v24.966z"/><path fill="#fce433" stroke="#fce433" stroke-width=".908" stroke-miterlimit="2.613" d="M92.627 94.647V69.681v24.966z"/><path fill="#fde633" stroke="#fde633" stroke-width=".908" stroke-miterlimit="2.613" d="M93.058 94.647V69.681v24.966z"/><path fill="#fee830" stroke="#fee830" stroke-width=".908" stroke-miterlimit="2.613" d="M93.489 94.647V69.681v24.966z"/><path fill="#ffea30" stroke="#ffea30" stroke-width=".908" stroke-miterlimit="2.613" d="M93.919 94.647V69.681v24.966z"/><path fill="#ffec30" stroke="#ffec30" stroke-width=".908" stroke-miterlimit="2.613" d="M94.35 94.647V69.681v24.966zM94.78 94.647V69.681v24.966z"/><path fill="#ffee2e" stroke="#ffee2e" stroke-width=".908" stroke-miterlimit="2.613" d="M95.21 94.647V69.681v24.966z"/><path fill="#6db57e" stroke="#6db57e" stroke-width=".908" stroke-miterlimit="2.613" d="M135.283 94.647V69.681v24.966z"/><path fill="#6fb67d" stroke="#6fb67d" stroke-width=".908" stroke-miterlimit="2.613" d="M134.844 94.647V69.681v24.966z"/><path fill="#71b67d" stroke="#71b67d" stroke-width=".908" stroke-miterlimit="2.613" d="M134.404 94.647V69.681v24.966z"/><path fill="#73b77d" stroke="#73b77d" stroke-width=".908" stroke-miterlimit="2.613" d="M133.963 94.647V69.681v24.966zM133.521 94.647V69.681v24.966z"/><path fill="#76b87b" stroke="#76b87b" stroke-width=".908" stroke-miterlimit="2.613" d="M133.082 94.647V69.681v24.966z"/><path fill="#78b87b" stroke="#78b87b" stroke-width=".908" stroke-miterlimit="2.613" d="M132.641 94.647V69.681v24.966z"/><path fill="#7ab979" stroke="#7ab979" stroke-width=".908" stroke-miterlimit="2.613" d="M132.201 94.647V69.681v24.966z"/><path fill="#7cba79" stroke="#7cba79" stroke-width=".908" stroke-miterlimit="2.613" d="M131.76 94.647V69.681v24.966zM131.32 94.647V69.681v24.966z"/><path fill="#7ebb79" stroke="#7ebb79" stroke-width=".908" stroke-miterlimit="2.613" d="M130.879 94.647V69.681v24.966z"/><path fill="#80bb77" stroke="#80bb77" stroke-width=".908" stroke-miterlimit="2.613" d="M130.439 94.647V69.681v24.966z"/><path fill="#82bc77" stroke="#82bc77" stroke-width=".908" stroke-miterlimit="2.613" d="M129.998 94.647V69.681v24.966z"/><path fill="#84bd75" stroke="#84bd75" stroke-width=".908" stroke-miterlimit="2.613" d="M129.559 94.647V69.681v24.966z"/><path fill="#86bd75" stroke="#86bd75" stroke-width=".908" stroke-miterlimit="2.613" d="M129.117 94.647V69.681v24.966zM128.678 94.647V69.681v24.966z"/><path fill="#88be75" stroke="#88be75" stroke-width=".908" stroke-miterlimit="2.613" d="M128.236 94.647V69.681v24.966z"/><path fill="#8abf73" stroke="#8abf73" stroke-width=".908" stroke-miterlimit="2.613" d="M127.795 94.647V69.681v24.966z"/><path fill="#8bbf73" stroke="#8bbf73" stroke-width=".908" stroke-miterlimit="2.613" d="M127.355 94.647V69.681v24.966z"/><path fill="#8dc073" stroke="#8dc073" stroke-width=".908" stroke-miterlimit="2.613" d="M126.916 94.647V69.681v24.966z"/><path fill="#8ec071" stroke="#8ec071" stroke-width=".908" stroke-miterlimit="2.613" d="M126.475 94.647V69.681v24.966z"/><path fill="#8fc171" stroke="#8fc171" stroke-width=".908" stroke-miterlimit="2.613" d="M126.033 94.647V69.681v24.966z"/><path fill="#91c271" stroke="#91c271" stroke-width=".908" stroke-miterlimit="2.613" d="M125.594 94.647V69.681v24.966z"/><path fill="#93c26f" stroke="#93c26f" stroke-width=".908" stroke-miterlimit="2.613" d="M125.152 94.647V69.681v24.966z"/><path fill="#95c36f" stroke="#95c36f" stroke-width=".908" stroke-miterlimit="2.613" d="M124.713 94.647V69.681v24.966z"/><path fill="#97c46f" stroke="#97c46f" stroke-width=".908" stroke-miterlimit="2.613" d="M124.271 94.647V69.681v24.966z"/><path fill="#97c46d" stroke="#97c46d" stroke-width=".908" stroke-miterlimit="2.613" d="M123.832 94.647V69.681v24.966z"/><path fill="#99c46d" stroke="#99c46d" stroke-width=".908" stroke-miterlimit="2.613" d="M123.391 94.647V69.681v24.966z"/><path fill="#9bc56d" stroke="#9bc56d" stroke-width=".908" stroke-miterlimit="2.613" d="M122.951 94.647V69.681v24.966z"/><path fill="#9dc66b" stroke="#9dc66b" stroke-width=".908" stroke-miterlimit="2.613" d="M122.51 94.647V69.681v24.966z"/><path fill="#9fc76b" stroke="#9fc76b" stroke-width=".908" stroke-miterlimit="2.613" d="M122.07 94.647V69.681v24.966z"/><path fill="#a0c76b" stroke="#a0c76b" stroke-width=".908" stroke-miterlimit="2.613" d="M121.629 94.647V69.681v24.966z"/><path fill="#a2c869" stroke="#a2c869" stroke-width=".908" stroke-miterlimit="2.613" d="M121.188 94.647V69.681v24.966zM120.748 94.647V69.681v24.966z"/><path fill="#a4c969" stroke="#a4c969" stroke-width=".908" stroke-miterlimit="2.613" d="M120.309 94.647V69.681v24.966z"/><path fill="#a6ca67" stroke="#a6ca67" stroke-width=".908" stroke-miterlimit="2.613" d="M119.867 94.647V69.681v24.966z"/><path fill="#a8cb67" stroke="#a8cb67" stroke-width=".908" stroke-miterlimit="2.613" d="M119.428 94.647V69.681v24.966zM118.986 94.647V69.681v24.966z"/><path fill="#aacb64" stroke="#aacb64" stroke-width=".908" stroke-miterlimit="2.613" d="M118.545 94.647V69.681v24.966z"/><path fill="#accc64" stroke="#accc64" stroke-width=".908" stroke-miterlimit="2.613" d="M118.105 94.647V69.681v24.966z"/><path fill="#aecd64" stroke="#aecd64" stroke-width=".908" stroke-miterlimit="2.613" d="M117.666 94.647V69.681v24.966z"/><path fill="#b0ce62" stroke="#b0ce62" stroke-width=".908" stroke-miterlimit="2.613" d="M117.225 94.647V69.681v24.966z"/><path fill="#b2cf62" stroke="#b2cf62" stroke-width=".908" stroke-miterlimit="2.613" d="M116.783 94.647V69.681v24.966z"/><path fill="#b4cf62" stroke="#b4cf62" stroke-width=".908" stroke-miterlimit="2.613" d="M116.344 94.647V69.681v24.966z"/><path fill="#b4cf60" stroke="#b4cf60" stroke-width=".908" stroke-miterlimit="2.613" d="M115.902 94.647V69.681v24.966z"/><path fill="#b6d060" stroke="#b6d060" stroke-width=".908" stroke-miterlimit="2.613" d="M115.463 94.647V69.681v24.966z"/><path fill="#b8d15f" stroke="#b8d15f" stroke-width=".908" stroke-miterlimit="2.613" d="M115.021 94.647V69.681v24.966z"/><path fill="#bad25f" stroke="#bad25f" stroke-width=".908" stroke-miterlimit="2.613" d="M114.582 94.647V69.681v24.966z"/><path fill="#bad25d" stroke="#bad25d" stroke-width=".908" stroke-miterlimit="2.613" d="M114.141 94.647V69.681v24.966z"/><path fill="#bcd35d" stroke="#bcd35d" stroke-width=".908" stroke-miterlimit="2.613" d="M113.701 94.647V69.681v24.966z"/><path fill="#bed45b" stroke="#bed45b" stroke-width=".908" stroke-miterlimit="2.613" d="M113.26 94.647V69.681v24.966z"/><path fill="#c0d45b" stroke="#c0d45b" stroke-width=".908" stroke-miterlimit="2.613" d="M112.82 94.647V69.681v24.966z"/><path fill="#c2d55a" stroke="#c2d55a" stroke-width=".908" stroke-miterlimit="2.613" d="M112.379 94.647V69.681v24.966z"/><path fill="#c4d65a" stroke="#c4d65a" stroke-width=".908" stroke-miterlimit="2.613" d="M111.938 94.647V69.681v24.966z"/><path fill="#c6d758" stroke="#c6d758" stroke-width=".908" stroke-miterlimit="2.613" d="M111.498 94.647V69.681v24.966zM111.057 94.647V69.681v24.966z"/><path fill="#c8d856" stroke="#c8d856" stroke-width=".908" stroke-miterlimit="2.613" d="M110.617 94.647V69.681v24.966z"/><path fill="#cad955" stroke="#cad955" stroke-width=".908" stroke-miterlimit="2.613" d="M110.176 94.647V69.681v24.966z"/><path fill="#ccda55" stroke="#ccda55" stroke-width=".908" stroke-miterlimit="2.613" d="M109.736 94.647V69.681v24.966z"/><path fill="#cedb55" stroke="#cedb55" stroke-width=".908" stroke-miterlimit="2.613" d="M109.295 94.647V69.681v24.966z"/><path fill="#ceda53" stroke="#ceda53" stroke-width=".908" stroke-miterlimit="2.613" d="M108.855 94.647V69.681v24.966z"/><path fill="#d0db52" stroke="#d0db52" stroke-width=".908" stroke-miterlimit="2.613" d="M108.414 94.647V69.681v24.966z"/><path fill="#d2dc50" stroke="#d2dc50" stroke-width=".908" stroke-miterlimit="2.613" d="M107.975 94.647V69.681v24.966z"/><path fill="#d4dd50" stroke="#d4dd50" stroke-width=".908" stroke-miterlimit="2.613" d="M107.533 94.647V69.681v24.966z"/><path fill="#d6de4f" stroke="#d6de4f" stroke-width=".908" stroke-miterlimit="2.613" d="M107.094 94.647V69.681v24.966z"/><path fill="#d8df4f" stroke="#d8df4f" stroke-width=".908" stroke-miterlimit="2.613" d="M106.652 94.647V69.681v24.966z"/><path fill="#d8df4d" stroke="#d8df4d" stroke-width=".908" stroke-miterlimit="2.613" d="M106.211 94.647V69.681v24.966z"/><path fill="#dae04d" stroke="#dae04d" stroke-width=".908" stroke-miterlimit="2.613" d="M105.771 94.647V69.681v24.966z"/><path fill="#dce14a" stroke="#dce14a" stroke-width=".908" stroke-miterlimit="2.613" d="M105.33 94.647V69.681v24.966z"/><path fill="#dee14a" stroke="#dee14a" stroke-width=".908" stroke-miterlimit="2.613" d="M104.891 94.647V69.681v24.966z"/><path fill="#e0e249" stroke="#e0e249" stroke-width=".908" stroke-miterlimit="2.613" d="M104.449 94.647V69.681v24.966z"/><path fill="#e2e346" stroke="#e2e346" stroke-width=".908" stroke-miterlimit="2.613" d="M104.01 94.647V69.681v24.966zM103.568 94.647V69.681v24.966z"/><path fill="#e4e446" stroke="#e4e446" stroke-width=".908" stroke-miterlimit="2.613" d="M103.129 94.647V69.681v24.966z"/><path fill="#e6e543" stroke="#e6e543" stroke-width=".908" stroke-miterlimit="2.613" d="M102.689 94.647V69.681v24.966z"/><path fill="#e8e643" stroke="#e8e643" stroke-width=".908" stroke-miterlimit="2.613" d="M102.248 94.647V69.681v24.966z"/><path fill="#eae742" stroke="#eae742" stroke-width=".908" stroke-miterlimit="2.613" d="M101.807 94.647V69.681v24.966z"/><path fill="#eae740" stroke="#eae740" stroke-width=".908" stroke-miterlimit="2.613" d="M101.367 94.647V69.681v24.966z"/><path fill="#ece73f" stroke="#ece73f" stroke-width=".908" stroke-miterlimit="2.613" d="M100.926 94.647V69.681v24.966z"/><path fill="#eee83f" stroke="#eee83f" stroke-width=".908" stroke-miterlimit="2.613" d="M100.486 94.647V69.681v24.966z"/><path fill="#f0e93e" stroke="#f0e93e" stroke-width=".908" stroke-miterlimit="2.613" d="M100.045 94.647V69.681v24.966z"/><path fill="#f1ea3b" stroke="#f1ea3b" stroke-width=".908" stroke-miterlimit="2.613" d="M99.604 94.647V69.681v24.966z"/><path fill="#f3eb3a" stroke="#f3eb3a" stroke-width=".908" stroke-miterlimit="2.613" d="M99.164 94.647V69.681v24.966z"/><path fill="#f5ec37" stroke="#f5ec37" stroke-width=".908" stroke-miterlimit="2.613" d="M98.725 94.647V69.681v24.966zM98.283 94.647V69.681v24.966z"/><path fill="#f7ed37" stroke="#f7ed37" stroke-width=".908" stroke-miterlimit="2.613" d="M97.844 94.647V69.681v24.966z"/><path fill="#faee36" stroke="#faee36" stroke-width=".908" stroke-miterlimit="2.613" d="M97.402 94.647V69.681v24.966z"/><path fill="#fcef33" stroke="#fcef33" stroke-width=".908" stroke-miterlimit="2.613" d="M96.961 94.647V69.681v24.966zM96.521 94.647V69.681v24.966z"/><path fill="#fef02f" stroke="#fef02f" stroke-width=".908" stroke-miterlimit="2.613" d="M96.081 94.647V69.681v24.966z"/><path fill="#fff22d" stroke="#fff22d" stroke-width=".908" stroke-miterlimit="2.613" d="M95.64 69.681v24.966-24.966z"/><path d="M184.25 90.84s-79.756-29.539-175.746 0v41.443H184.25V90.84z" fill="#fff"/><path d="M184.252 89.893S109.465 51.37 8.504 89.661V60.473h175.748v29.42z" fill="#fff"/><path d="M115.279 94.812v3.754c-.166-.315-.385-.666-.963-1.157-.959-.812-4.756-2.329-6.615-2.673s-5.033-.413-7.039.642c-1.104.58-1.557.949-1.523 1.988.145 1.117 1.498 1.683 2.611 2.147 1.301.464 5.277 1.543 7.443 2.162 2.133.609 5.674 1.393 7.539 4.297.721 1.463.674 3.481-.303 4.852-1.834 2.229-4.891 2.893-7.859 2.967-2.268.057-4.238-.072-6.064-.377-1.83-.305-4.479-.912-6.777-1.771v-4.268c1.138 2.368 3.945 3.357 4.803 3.716.799.334 3.207 1.132 4.992 1.263 1.779.13 6.314.512 7.994-1.684a1.637 1.637 0 0 0 .15-1.82c-1.078-1.589-3.951-2.271-6.258-2.924-3.172-.897-6.295-1.843-6.574-1.959-2.252-.789-4.464-2.151-4.882-4.729-.231-1.787.697-3.319 2.044-4.341 3.76-2.321 8.824-1.917 13.098-1.174 1.478.247 4.183 1.089 4.183 1.089zM155.178 93.578v1.9c-.836-.859-1.967-1.378-3.281-.913-.451.154-.891.658-.918 1.52v3.812l4.244-.008v1.394h-4.244v10.939c.033.653.895.644 1.332.644v.393h-5.826v-11.976h-2.969V99.89h3.027v-3.511c.027-1.104.551-1.969 1.484-2.48 2.606-1.583 7.151-.321 7.151-.321zM28.617 107.271c.117 1.857 1.482 3.599 3.123 4.248 1.641.65 1.803.635 3.714.72s6.291-.929 7.777-2.879c.464-.742.673-1.578.673-2.507V94.317c-.186-.441-.673-.511-1.184-.464v-.372h5.781v18.781c.007.371.472.564 1.207.604v.302h-5.815v-1.765c-1.718.976-3.316 1.656-6.188 2.183-2.871.526-8.659.348-11.701-2.02-1.207-.905-1.95-2.392-1.973-3.97V94.271c-.139-.557-.944-.442-1.23-.465v-.325h5.815v13.79h.001zM83.917 99.947l.011 12.406c.004.522.976.595 1.207.605v.279h-5.851V100.84c.004-.516-.808-.516-1.196-.511v-.371l5.829-.011z"/><path fill="#c2d88d" d="M25.412 119.975h3.271v.731h-2.402v.956h2.207v.696h-2.207v1.086h2.57v.732h-3.439v-4.201zM37.003 119.975h.799l1.94 2.991h.013v-2.991h.791v4.201h-.797l-1.941-2.991h-.013v2.991h-.792v-4.201zM49.906 120.706H48.64v-.731h3.401v.731h-1.266v3.47h-.869v-3.47zM60.102 119.975h3.271v.731h-2.401v.956h2.206v.696h-2.206v1.086h2.57v.732h-3.44v-4.201zM71.661 119.975h1.928c.98 0 1.558.53 1.558 1.269 0 .943-.695 1.162-.916 1.239l1.032 1.693h-1.006l-.896-1.546h-.831v1.546h-.87v-4.201h.001zm.87 1.958h.948c.441 0 .759-.235.759-.631 0-.384-.286-.631-.889-.631h-.818v1.262zM84.233 120.706h-1.265v-.731h3.4v.731h-1.265v3.47h-.87v-3.47zM95.546 119.975h1.013l1.545 4.201h-.91l-.265-.814h-1.752l-.266.814h-.909l1.544-4.201zm.513.766h-.013l-.637 1.924h1.286l-.636-1.924zM106.158 119.975h.869v4.201h-.869v-4.201zM115.543 119.975h.799l1.939 2.991h.014v-2.991h.791v4.201h-.799l-1.939-2.991h-.014v2.991h-.791v-4.201zM127.557 119.975h1.33l.843 3.256h.012l.844-3.256h1.293v4.201h-.832v-3.505h-.012l-.91 3.505h-.816l-.909-3.505h-.013v3.505h-.83v-4.201zM140.316 119.975h3.272v.731h-2.402v.956h2.207v.696h-2.207v1.086h2.57v.732h-3.44v-4.201zM151.908 119.975h.799l1.939 2.991h.014v-2.991h.791v4.201h-.799l-1.939-2.991h-.014v2.991h-.791v-4.201zM164.811 120.706h-1.266v-.731h3.4v.731h-1.265v3.47h-.869v-3.47z"/><path d="M81.63 97.193c1.602 0 2.9-.943 2.9-2.106s-1.299-2.106-2.9-2.106-2.9.943-2.9 2.106 1.299 2.106 2.9 2.106zM57.739 93.501v7.827c.544-.249.846-.408 1.28-.58 2.669-1.254 5.689-1.714 9.147-1.254l.357.091c3.047.755 5.725 1.906 7.048 4.97a6.174 6.174 0 0 1-1.184 5.897c-1.671 1.741-3.412 2.525-5.994 3.091-1.872.306-4.058.368-5.729-.003-1.462-.256-2.57-.78-3.9-1.394-.411-.142-.65-.325-.998-.418v1.465h-5.724l-.01-.327c.487 0 1.286-.208 1.33-.673v-17.76c-.046-.279-.315-.445-.448-.535-.134-.088-.814-.045-.814-.045v-.352h5.639zm6.769 19.141c3.702 0 6.936-2.732 6.936-6.102s-3.233-6.101-6.936-6.101c-3.701 0-7.167 2.731-7.167 6.101s3.466 6.102 7.167 6.102zM119.895 106.694c-.07-4.169 5.061-7.429 11.34-7.429 6.277 0 11.549 3.316 11.549 7.487 0 4.17-5.154 7.312-11.434 7.312-6.278.001-11.375-2.726-11.455-7.37zm11.166 6.153c4.236 0 6.764-2.799 6.83-6.152.076-3.83-3.246-6.268-6.715-6.268-3.467 0-6.441 2.913-6.441 6.268s2.857 6.152 6.326 6.152zM159.035 101.297h-3.139v-1.394h3.123v-5.585c0-.275-.457-.417-1.227-.419v-.356h5.719v6.417h4.527l.047 1.369-4.596-.002v9.591c0 .711.652 1.553 2.248 1.248s2.061-.653 2.379-.827v1.597c-.783.261-3.092 1.074-6.848.521-.986-.145-2.234-.827-2.234-3.076l.001-9.084z"/></g></svg>