<svg xmlns="http://www.w3.org/2000/svg" width="2500" height="2500" viewBox="0 0 192.756 192.756"><path fill-rule="evenodd" clip-rule="evenodd" fill="#fff" d="M0 0h192.756v192.756H0V0z"/><path fill-rule="evenodd" clip-rule="evenodd" fill="#33348e" d="M87.784 49.082h56.784v5.759H87.784v-5.759z"/><path fill-rule="evenodd" clip-rule="evenodd" fill="#cc2229" d="M87.74 56.582h56.918v5.044H87.74v-5.044zM47.205 39.886V32.52c0-.938.179-1.651.491-2.098.357-.491.848-.714 1.562-.714.669 0 1.205.224 1.518.714.357.447.491 1.161.491 2.098v6.919c0 1.562.312 2.723.893 3.482.625.759 1.518 1.161 2.723 1.161 1.161 0 2.054-.401 2.679-1.161.625-.759.893-1.919.893-3.482V32.52c0-.938.178-1.651.536-2.098.312-.491.803-.714 1.518-.714.669 0 1.205.224 1.518.714.357.447.491 1.161.491 2.098v7.366c0 2.544-.67 4.508-2.009 5.892-1.34 1.429-3.214 2.099-5.625 2.099s-4.285-.67-5.669-2.099c-1.34-1.383-2.01-3.347-2.01-5.892zm21.517 4.91c0 .938-.179 1.652-.491 2.098-.357.446-.848.714-1.562.714-.669 0-1.205-.268-1.518-.714-.357-.446-.491-1.161-.491-2.098v-12.41c0-.893.134-1.562.446-2.009.312-.402.804-.625 1.429-.625.402 0 .759.089 1.116.268.312.179.669.536 1.026.982l7.545 9.687V32.52c0-.938.134-1.651.491-2.098.312-.491.848-.714 1.518-.714.714 0 1.205.224 1.562.714.312.447.491 1.161.491 2.098v12.678c0 .848-.178 1.473-.446 1.875-.313.401-.804.625-1.429.625-.402 0-.804-.134-1.206-.357-.357-.223-.714-.58-1.116-1.116l-7.366-9.464v8.035h.001zm17.857 0c0 .938-.178 1.652-.536 2.098-.312.446-.848.714-1.518.714-.714 0-1.205-.268-1.518-.714-.357-.446-.536-1.161-.536-2.098V32.521c0-.938.179-1.651.536-2.098.313-.491.804-.714 1.518-.714.669 0 1.206.224 1.518.714.357.447.536 1.161.536 2.098v12.275zm6.785-.044c0 1.384-.312 2.857-2.009 2.857-1.741 0-2.053-1.473-2.053-2.857V32.744c0-2.053.714-2.812 2.812-2.812 2.812 0 6.741-.447 8.973 1.607 2.32 2.098 2.41 6.473.09 8.66-1.607 1.607-3.35 1.518-4.644 1.518-2.322.044-2.723-3.616-.045-3.616 1.071-.045 1.964-.268 1.964-2.232 0-2.633-3.169-2.276-5.089-2.276l.001 11.159zm12.189-.67l-.627 1.786c-.178.58-.445 1.026-.803 1.294a1.623 1.623 0 0 1-1.16.491c-.535 0-1.027-.179-1.385-.536a1.996 1.996 0 0 1-.535-1.384c0-.223 0-.446.045-.625.045-.178.09-.357.133-.536l4.688-12.32c.312-.893.76-1.518 1.25-1.965.492-.401 1.117-.58 1.832-.58.713 0 1.338.179 1.83.58.49.402.893.938 1.16 1.697l4.553 12.544c.09.268.135.491.225.714.043.179.043.357.043.536 0 .536-.178.982-.58 1.339-.357.357-.848.536-1.428.536-.535 0-.982-.179-1.295-.491-.357-.312-.625-.804-.848-1.473l-.492-1.607h-6.606zm1.16-3.66h4.24l-2.053-6.473-2.187 6.473zm15.713 4.33c0 1.384-.357 2.857-2.053 2.857-1.697 0-2.055-1.473-2.055-2.857V32.744c0-2.053.76-2.812 2.812-2.812 2.725 0 6.475-.357 8.707 1.473 2.098 1.697 2.498 5.089.668 7.098-.758.848-1.428 1.518-2.768 1.741l2.857 3.348c.893.938 1.875 2.411.67 3.571-1.295 1.294-2.678.178-3.572-.893-.668-.803-2.5-3.169-3.48-4.464-.938-1.25-1.25-3.527.668-3.75 1.652-.223 2.545-.625 2.545-2.366 0-2.455-3.303-2.098-5-2.098v11.16h.001zm13.75-11.116h-1.473c-.982 0-1.74-.134-2.188-.446-.49-.313-.715-.759-.715-1.384 0-.625.225-1.116.715-1.429.49-.268 1.205-.446 2.188-.446h7.053c.982 0 1.697.178 2.188.446.492.312.715.803.715 1.429 0 .625-.223 1.071-.715 1.384-.49.312-1.205.446-2.188.446h-1.518v11.116c0 .982-.133 1.696-.49 2.143-.312.446-.85.714-1.518.714-.715 0-1.207-.268-1.562-.714-.312-.446-.492-1.161-.492-2.143V33.636z"/><path d="M51.49 153.228a4.321 4.321 0 0 0-1.116-.715 3.864 3.864 0 0 0-1.25-.223c-.893 0-1.607.268-2.143.804-.491.535-.759 1.249-.759 2.187 0 .849.223 1.562.714 2.099.491.491 1.16.759 2.009.759.491 0 .938-.09 1.384-.223.402-.179.804-.402 1.161-.76v1.875c-.402.224-.803.357-1.206.491-.446.089-.893.179-1.339.179-1.339 0-2.455-.446-3.304-1.25-.848-.849-1.294-1.92-1.294-3.17 0-1.294.446-2.365 1.294-3.169.849-.849 1.964-1.25 3.348-1.25.447 0 .893.045 1.294.134.447.09.849.224 1.25.446l-.043 1.786zm6.027 3.035l-.938-2.723c-.045-.09-.045-.224-.089-.402s-.089-.446-.134-.714c-.045.268-.134.491-.179.714-.044.224-.044.357-.089.447l-.893 2.678h2.322zm-5.357 3.214l3.214-8.437h2.053l3.259 8.437h-2.054l-.714-1.785H54.66l-.58 1.785h-1.92zm15.491 0h-2.098l-2.188-3.928v3.928h-1.831v-8.437h2.589c1.027 0 1.786.223 2.277.625.536.357.804.982.804 1.785 0 .581-.179 1.071-.536 1.474-.357.401-.804.625-1.339.714l2.322 3.839zm-4.286-4.821h.268c.714 0 1.206-.09 1.428-.269.224-.134.357-.446.357-.803 0-.447-.134-.715-.401-.894-.224-.179-.715-.268-1.384-.268h-.268v2.234zm15.714-1.428c-.357-.312-.759-.536-1.116-.715a3.874 3.874 0 0 0-1.25-.223c-.893 0-1.607.268-2.143.804-.536.535-.804 1.249-.804 2.187 0 .849.268 1.562.759 2.099.491.491 1.16.759 2.009.759.491 0 .938-.09 1.339-.223a3.27 3.27 0 0 0 1.161-.76v1.875c-.357.224-.759.357-1.206.491-.402.089-.848.179-1.294.179-1.339 0-2.456-.446-3.304-1.25-.893-.849-1.295-1.92-1.295-3.17 0-1.294.402-2.365 1.295-3.169.848-.849 1.964-1.25 3.304-1.25.491 0 .893.045 1.339.134.402.09.848.224 1.25.446l-.044 1.786zm6.027 3.035l-.938-2.723a2.11 2.11 0 0 1-.134-.402 11.308 11.308 0 0 1-.134-.714c-.045.268-.089.491-.134.714-.044.224-.089.357-.089.447l-.938 2.678h2.367zm-5.357 3.214l3.17-8.437h2.054l3.258 8.437h-2.053l-.67-1.785h-3.259l-.58 1.785h-1.92zm15.446 0h-2.054l-2.232-3.928v3.928h-1.786v-8.437h2.589c.982 0 1.786.223 2.277.625.491.357.759.982.759 1.785 0 .581-.179 1.071-.536 1.474-.312.401-.759.625-1.339.714l2.322 3.839zm-4.286-4.821h.268c.759 0 1.205-.09 1.473-.269.224-.134.313-.446.313-.803 0-.447-.089-.715-.357-.894-.268-.179-.714-.268-1.428-.268h-.268v2.234h-.001zm5.357 4.821v-8.437h4.912v1.518h-3.125v1.741h3.125v1.518h-3.125v2.099h3.125v1.562h-4.912v-.001zm17.097-6.249c-.355-.312-.758-.536-1.115-.715a3.87 3.87 0 0 0-1.25-.223c-.893 0-1.607.268-2.143.804-.535.535-.805 1.249-.805 2.187 0 .849.27 1.562.76 2.099.49.491 1.16.759 2.01.759.49 0 .938-.09 1.338-.223a3.265 3.265 0 0 0 1.162-.76v1.875c-.357.224-.76.357-1.207.491-.4.089-.848.179-1.293.179-1.34 0-2.455-.446-3.305-1.25-.893-.849-1.295-1.92-1.295-3.17 0-1.294.402-2.365 1.295-3.169.85-.849 1.965-1.25 3.305-1.25.49 0 .893.045 1.338.134.402.09.85.224 1.25.446l-.045 1.786zm1.653 6.249v-8.437h4.955v1.518h-3.17v1.741h3.17v1.518h-3.17v2.099h3.17v1.562h-4.955v-.001zm6.742 0v-8.437h1.83l3.75 4.91c.088.134.223.312.355.58.09.269.225.536.402.893-.045-.268-.09-.49-.09-.758-.045-.224-.045-.536-.045-.894v-4.731h1.697v8.437h-1.74l-3.84-4.999c-.09-.135-.223-.312-.357-.581-.133-.268-.268-.535-.4-.893.043.224.088.491.088.714.045.269.045.581.045.938v4.82h-1.695v.001zm12.945-6.874v6.874h-1.83v-6.874h-2.055v-1.562h5.938v1.562h-2.053zm9.285 6.874h-2.053l-2.232-3.928v3.928h-1.785v-8.437h2.588c1.027 0 1.787.223 2.277.625.535.357.758.982.758 1.785 0 .581-.178 1.071-.49 1.474-.357.401-.803.625-1.383.714l2.32 3.839zm-4.285-4.821h.268c.76 0 1.205-.09 1.473-.269.225-.134.357-.446.357-.803 0-.447-.133-.715-.402-.894-.268-.179-.713-.268-1.428-.268h-.268v2.234zm5.358 4.821v-8.437h4.955v1.518h-3.17v1.741h3.17v1.518h-3.17v2.099h3.17v1.562h-4.955v-.001z" fill-rule="evenodd" clip-rule="evenodd" fill="#33348e"/><path d="M86.713 143.362h44.018v-9.732s-4.465-.134-10.225.135c-6.115.312-13.66.893-18.703 1.83-9.242 1.651-12.188.625-13.974 4.731-1.339 2.768-1.116 3.036-1.116 3.036z" fill-rule="evenodd" clip-rule="evenodd" fill="#cc2229"/><path d="M130.596 133.362s-18.348.491-25.268 1.116-13.616 1.741-15.58 2.544c-1.964.849-3.616 4.732-3.393 5.982.268 1.205 1.741-.268 2.009-1.295.268-1.071.669-2.143 2.857-3.214s10.581-2.188 15.312-2.812c4.732-.58 13.26-1.562 17.768-1.562 4.465 0 6.295-.759 6.295-.759z" fill-rule="evenodd" clip-rule="evenodd" fill="#33348e"/><path d="M95.909 137.826c-.134 0-4.643.625-6.071 2.054-1.429 1.429-.893 2.723-.804 2.723.044.045.536-1.071 2.053-2.188 1.518-1.07 4.956-2.589 4.822-2.589z" fill-rule="evenodd" clip-rule="evenodd" fill="#fff"/><path d="M130.596 120.327l-20.445-14.105-.402-.268c-1.607-1.027-3.26-1.965-5.045-2.59-.402-.089-.803-.223-1.25-.312-.67-.09-1.383-.134-2.053-.179-.357-.044-.76-.044-1.117-.044-.223 0-.445 0-.668.133l-.09.135-.135.134-.133.536 31.338 23.659v-7.099z" fill-rule="evenodd" clip-rule="evenodd" fill="#33348e"/><path d="M73.365 143.228s-2.723 1.384-7.634.446c-4.955-.893-6.384-1.874-6.384-1.874s-.446-6.651-.446-8.973c0-2.366.759-5.848.759-5.848s8.884-7.857 10.446-8.974 5.625-4.598 5.625-4.598 2.768-.446 3.348-.804c.581-.312 2.366.447 2.366.447l2.009.58s-.669 2.143.58 4.018c1.206 1.919 2.902.356 2.902.356l6.071-.669 1.205-3.036 1.474-.803 1.116-2.769 2.008-.58s1.027 6.607-.088 9.865c-1.117 3.259-.67 2.724-.67 2.724s-7.322.893-8.885.981c-1.562.135-4.464 0-4.464 0s5.491 1.697 7.5 2.232c2.009.58 5.044 1.384 5.044 1.384s-.223 2.991-1.562 4.375c-1.339 1.339-1.696 1.651-1.696 1.651s-5.714-2.009-9.956-2.812c-4.286-.759-3.393-.981-3.393-.981l-.981-1.25s-5.402 3.839-6.295 5.401c-.893 1.562-.134 3.125 0 4.821.09 1.699.001 4.69.001 4.69z" fill-rule="evenodd" clip-rule="evenodd" fill="#a6d7f6"/><path d="M130.641 125.595v-3.839l-21.25-14.463c-.133-.09-.223-.179-.357-.269-.58-.356-1.16-.714-1.74-1.026-1.295-.714-2.635-1.339-4.062-1.651-.402-.09-.803-.09-1.205-.134l28.614 21.382z" fill-rule="evenodd" clip-rule="evenodd" fill="#cc2229"/><path d="M98.723 130.104s3.123.357 4.373 1.161c1.205.759 2.812 2.768 2.812 2.768s-.133.58-1.16 0c-.982-.536-1.428-1.652-2.545-1.875-1.16-.224-3.17-1.027-3.17-1.027l-.31-1.027zM96.802 133.14l2.366 2.009-1.785.491s-.581-.715-.804-1.385c-.224-.669.223-1.115.223-1.115zM97.16 129.657c.088.58-.582 2.5-1.474 3.393-.893.893-1.562.982-1.562.982s-1.339-1.34-5.045-2.232c-3.705-.893-8.526-1.696-8.526-1.696s-1.831-2.231-2.054-2.768c-.223-.58-2.455-4.062-2.455-4.062s.581-.446 1.473.581c.893.981 2.009 3.705 2.812 4.464.759.804 1.429 1.116 1.429 1.116s5.848 1.026 7.098 1.339c1.206.356 4.241 1.026 5.044 1.606.759.536.982.224 1.429-.669.446-.938 1.696-2.589 1.831-2.054z" fill-rule="evenodd" clip-rule="evenodd" fill="#33348e"/><path d="M101.178 97.829s-4.375 1.562-4.51 2.812c-.089 1.205-.446 4.24-.446 4.24s-7.143-1.785-8.75-.223c-1.562 1.562-3.706 6.74-3.706 6.74l-.535 2.366s-.224 2.768.312 3.438c.58.669 1.026 1.473 1.026 1.473s.67-.089 4.286-.312c3.572-.223 4.464-1.026 4.464-1.026l.893-3.036s1.25.581 1.697-.803c.446-1.34.669-2.991.669-2.991l2.589-.357-1.027-2.901s4.152-3.616 4.152-5.268v-3.705l-1.114-.447zM59.793 139.434s0-4.821 1.34-7.188c1.339-2.365 3.705-5.848 8.526-7.276 4.821-1.473 3.125-2.946 3.928-5.714.759-2.812 3.348-4.062 3.348-4.062s-3.928.356-5.134 1.339c-1.25 1.026-7.321 6.429-9.196 7.634-1.919 1.25-3.482 3.259-3.482 4.955.001 1.651.67 10.312.67 10.312zM96.132 127.426l-11.875-3.349-5.848-7.544s-1.34 3.035 0 4.821c1.339 1.83 2.009 4.374 5.044 5.044 3.036.714 4.955.804 8.303 1.25s4.376-.222 4.376-.222z" fill-rule="evenodd" clip-rule="evenodd" fill="#fff"/><path d="M97.605 127.336s-4.375-1.384-6.294-1.83-6.071-1.429-6.071-1.429-2.366-3.393-3.125-4.731c-.804-1.34-2.946-3.705-4.062-3.705s-.312.58.804 1.696c1.116 1.115 3.348 3.794 3.794 4.821.446 1.026.67 1.919 1.831 2.365 1.116.446 5.134 1.429 6.16 1.651.982.224 3.571 1.474 4.464 1.474s2.499-.312 2.499-.312zM78.499 129.881s-3.125 2.499-3.794 3.615-1.473 1.652-1.116 2.812c.313 1.116.893 2.901.447 4.91-.447 2.009.089 4.955-.447 3.036-.58-1.92-.669-3.348-.669-4.955 0-1.562.089-2.232-.446-2.902-.581-.669-.893-1.562-.134-2.231.804-.67 2.946-3.259 3.839-3.705s2.32-.58 2.32-.58z" fill-rule="evenodd" clip-rule="evenodd" fill="#33348e"/><path d="M59.437 142.469s-1.339-8.214-.982-10.312c.312-2.143.089-5.178 1.786-6.429 1.652-1.205 6.518-4.374 8.527-6.695 2.009-2.366 5.044-5.401 6.518-5.759 1.429-.312 2.678-.67 3.348-1.205.67-.58 1.563-.134 2.232.223.669.312.893.76 1.92.76.981 0 2.143.356 1.339.714-.803.312-2.232.312-2.812-.134-.536-.447-1.339-1.116-2.232-.58-.893.58-3.036.937-3.794 1.16-.804.223-1.474 1.205-3.17 2.901s-6.071 6.071-7.276 6.741c-1.25.669-4.375 2.455-4.955 3.571-.536 1.116-.67 6.383-.224 8.303.446 1.919.804 3.259.446 4.151-.315.893-.671 2.59-.671 2.59z" fill-rule="evenodd" clip-rule="evenodd" fill="#33348e"/><path d="M82.874 115.104s.804 1.339 1.384 2.232c.536.893 1.339 1.785 1.339 2.901s-.669 2.276-.669 2.276.223-1.384-.223-2.365c-.447-1.027-1.161-1.697-1.607-2.724-.448-.981-.224-2.32-.224-2.32zM85.82 123.72c-.223.135 8.839.447 10.312.224s2.678-.893 2.678-.893 1.027-5.045 1.027-6.964c0-1.875-.357-5.804-.357-6.696 0-.938-.758-1.16-.758.089 0 1.25.668 4.286.311 5.849-.311 1.562-.223 5.356-.758 6.249-.58.938-1.92 1.474-3.259 1.607-1.339.089-3.929-.223-6.161-.223-2.276 0-2.812.669-3.035.758zM96.132 102.739c0 .134-1.027-2.366.535-3.125 1.608-.803 3.17-1.696 3.84-1.919.67-.224 1.115.134-.225 1.026-1.338.893-2.588.446-2.812 1.92-.223 1.428.357 1.651-.223 2.231-.58.537-1.115-.222-1.115-.133zM102.428 97.605s.98 3.259.445 4.464c-.58 1.25-1.607 2.679-2.812 3.929-1.25 1.25-1.92 1.474-1.473.446.445-.982.893-1.429 1.473-2.143.535-.67 1.562-2.321 1.697-3.571.088-1.25.67-3.125.67-3.125z" fill-rule="evenodd" clip-rule="evenodd" fill="#33348e"/><path d="M83.543 112.069s-.223-4.286 1.607-6.384c1.786-2.143 5.044-2.366 7.053-2.366s4.018.447 4.822 1.696c.803 1.206 1.562 2.768 1.785 3.661.223.938 1.117 2.276-.312 2.365-1.473.135-2.143.135-3.169-.535-.982-.67-3.348-.134-4.821-.893-1.429-.804-1.205-.715-2.366.981-1.116 1.696-1.875 2.009-1.875 2.009s-1.339-.759-.447-1.428c.893-.67 1.562 0 1.786-1.25.224-1.25-.669-2.232 1.027-2.232 1.652 0 1.652 1.116 2.679 1.205.982.135 2.009-.981 2.812-.759.759.224 1.428 1.786 2.098 1.92.67.089 2.054-.224 2.054-.224s-.893-4.062-2.143-4.598c-1.25-.58-5.625-.804-6.741-.491-1.116.357-3.125 1.696-3.794 3.482-.669 1.83-1.027 3.169-1.027 3.169l-1.028.672z" fill-rule="evenodd" clip-rule="evenodd" fill="#33348e"/><path d="M96.802 111.177s0 2.098-.804 3.035c-.759.893-1.786 1.116-1.786 1.116s.224-.804-.981-1.25c-1.25-.446-1.697-.894-1.697-.894s-.447-.133.982-.133c1.474 0 2.277.803 2.277.803s.536.134.893-.803c.312-.894.669-2.232.669-2.232l.447.358zM93.677 115.104s-.134.982 0 1.785c.089.76-.134 1.116-1.474 1.34-1.339.223-2.366.223-3.705.223s-3.259-.223-3.259-.223 1.919-.357 3.259-.357 2.143-.223 2.812-.312c.669-.134 1.696-.446 1.696-.446l.671-2.01z" fill-rule="evenodd" clip-rule="evenodd" fill="#33348e"/><path fill="none" stroke="#000" stroke-width=".014" stroke-miterlimit="2.613" d="M37.785 8.504h117.186v175.748H37.785V8.504z"/><path fill-rule="evenodd" clip-rule="evenodd" fill="#33348e" d="M37.785 78.991h117.141v2.812H37.785v-2.812z"/></svg>