<svg xmlns="http://www.w3.org/2000/svg" width="2500" height="2500" viewBox="0 0 192.756 192.756"><path fill-rule="evenodd" clip-rule="evenodd" fill="#fff" d="M0 0h192.756v192.756H0V0z"/><path d="M96.377 8.504c48.507 0 87.875 39.367 87.875 87.875 0 48.506-39.367 87.873-87.875 87.873-48.507 0-87.874-39.367-87.874-87.873.001-48.508 39.368-87.875 87.874-87.875z" fill-rule="evenodd" clip-rule="evenodd" fill="#eebd31" stroke="#000" stroke-width=".764" stroke-miterlimit="2.613"/><path fill-rule="evenodd" clip-rule="evenodd" d="M67.581 175.138l3.226-12.8 6.407 1.614-1.257 4.991.035.009 4.346-4.212 7.685 1.937-7.012 5.275 3.483 7.448-7.329-1.847-2.086-4.981-.036-.009-1.055 4.188-6.407-1.613zM96.494 180.04c-2.904.012-5.078-.487-6.521-1.495-1.677-1.166-2.52-3.111-2.53-5.836-.018-4.409 2.982-6.627 8.997-6.65 3.746-.014 6.355.874 7.826 2.664.809.975 1.217 2.279 1.223 3.917.008 2.102-.473 3.74-1.443 4.916-1.339 1.642-3.855 2.47-7.552 2.484zm-.015-4.035c1.488-.006 2.228-.938 2.222-2.799-.008-1.872-.756-2.805-2.244-2.799-1.489.006-2.229.945-2.222 2.817.007 1.86.755 2.786 2.244 2.781zM108.963 179.046l-3.324-12.775 12.275-3.192c2.822-.733 4.512-.032 5.068 2.106.268 1.027.068 1.937-.596 2.727-.57.666-1.398 1.171-2.48 1.516l.01.035a26.484 26.484 0 0 1 1.494-.218c.566-.047 1.061-.017 1.479.088.914.217 1.521.904 1.822 2.062.402 1.547-.131 2.77-1.6 3.67-.553.346-1.248.627-2.086.845l-12.062 3.136zm3.943-11.087l.479 1.839 2.443-.636c.85-.221 1.195-.638 1.037-1.251-.16-.613-.637-.816-1.426-.611l-2.533.659zm1.192 4.586l.486 1.864 2.586-.672c.826-.215 1.158-.631.998-1.246-.162-.628-.652-.836-1.467-.624l-2.603.678zM31.506 125.27l-12.586 3.978-3.823-12.094c-.878-2.78-.265-4.504 1.841-5.17 1.013-.319 1.931-.169 2.755.454.693.535 1.241 1.335 1.641 2.398l.035-.011a27.09 27.09 0 0 1-.295-1.48c-.076-.564-.072-1.06.012-1.482.169-.923.824-1.565 1.964-1.926 1.525-.481 2.774-.013 3.748 1.407.374.535.691 1.215.953 2.041l3.755 11.885zm-11.276-3.367l1.812-.573-.761-2.408c-.265-.837-.699-1.161-1.304-.97-.604.191-.783.677-.537 1.455l.79 2.496zm4.519-1.427l1.836-.581-.805-2.548c-.257-.814-.689-1.126-1.295-.934-.618.195-.8.694-.546 1.497l.81 2.566zM26.247 99.586c.146 2.901-.25 5.096-1.19 6.585-1.087 1.729-2.99 2.66-5.711 2.799-4.405.223-6.759-2.67-7.062-8.678-.189-3.741.577-6.388 2.296-7.942.936-.854 2.22-1.322 3.856-1.405 2.097-.105 3.757.3 4.978 1.216 1.702 1.258 2.646 3.734 2.833 7.425zm-4.031.203c-.075-1.486-1.041-2.183-2.899-2.089-1.87.095-2.767.885-2.692 2.372s1.047 2.183 2.918 2.088c1.857-.094 2.749-.884 2.673-2.371zM25.67 90.51l-4.543-.717c.357-.585.597-1.27.721-2.054.224-1.421-.134-2.207-1.075-2.356l-7.332-1.156 1.03-6.527 9.48 1.496c2.63.415 3.632 2.599 3.009 6.552-.334 2.109-.763 3.697-1.29 4.762zM20.441 60.623l4.897 1.771c-.698.928-1.391 2.345-2.08 4.25-.559 1.549-.665 2.614-.314 3.194.213.35.612.63 1.199.842.749.271 1.359.167 1.831-.311.321-.312.633-.887.936-1.725.494-1.365.899-3.093 1.217-5.184l4.16 1.503c-.144 1.259-.434 2.666-.866 4.223a25.076 25.076 0 0 1-.693 2.221c-1.928 5.336-5.155 7.186-9.683 5.55-2.263-.819-3.644-2.226-4.144-4.223-.411-1.667-.185-3.692.679-6.08.654-1.813 1.608-3.823 2.861-6.031zM32.82 64.562l-11.023-7.261 3.636-5.518 4.297 2.832.02-.031-2.545-5.491 4.36-6.617 2.672 8.357 8.18-.835-4.159 6.312-5.389.329-.02.03 3.607 2.376-3.636 5.517z"/><path d="M41.946 50.538L36.183 37.95l7.762-7.025 11.979 6.962-5.062 4.582-1.447-.973-3.244 2.936.77 1.586-4.995 4.52zm4.457-11.197L42.13 36.72l-.04.037 2.21 4.487 2.103-1.903zM62.947 33.976l-1.841-4.215c.686-.015 1.393-.18 2.119-.498 1.319-.577 1.788-1.301 1.407-2.174l-2.972-6.803 6.055-2.645 3.842 8.795c1.066 2.439-.235 4.46-3.903 6.062-1.956.856-3.525 1.348-4.707 1.478zM75.911 28.831l1.267-4.282-7.574-7.862 7.281-1.57 2.562 3.721.712-4.427 6.996-1.509-5 14.582-6.244 1.347zM90.022 26.074l.146-13.199 14.533.161-.051 4.529-7.925-.086-.096 8.669-6.607-.074zM113.195 28.697c-2.816-.708-4.799-1.729-5.949-3.063-1.334-1.544-1.67-3.638-1.006-6.28 1.074-4.277 4.529-5.683 10.363-4.216 3.633.913 5.941 2.419 6.924 4.518.543 1.144.615 2.511.215 4.098-.512 2.037-1.385 3.506-2.617 4.406-1.701 1.259-4.344 1.438-7.93.537zm.985-3.914c1.443.362 2.393-.357 2.846-2.161.455-1.815-.037-2.905-1.48-3.268-1.445-.363-2.395.364-2.852 2.179-.454 1.805.04 2.887 1.486 3.25zM141.486 26.369l-2.422 4.609c-.824-.819-2.133-1.699-3.926-2.642-1.459-.767-2.5-1.016-3.121-.749-.375.163-.709.52-1 1.072-.369.706-.352 1.324.059 1.857.266.361.793.748 1.58 1.163 1.285.676 2.943 1.314 4.971 1.914l-2.059 3.915c-1.227-.314-2.582-.793-4.064-1.435a25.18 25.18 0 0 1-2.105-.989c-5.023-2.64-6.412-6.09-4.174-10.35 1.119-2.13 2.703-3.306 4.75-3.528 1.707-.179 3.684.322 5.93 1.503 1.706.897 3.566 2.118 5.581 3.66z" fill-rule="evenodd" clip-rule="evenodd"/><path fill-rule="evenodd" clip-rule="evenodd" d="M153.992 36.351l-5.431 12.751-5.221-4.513 3.779-7.619-.027-.025-6.979 4.855-5.123-4.427 11.746-7.294 7.256 6.272z"/><path d="M148.027 48.452l13.207-4.154 6.006 8.576-8.398 11.021-3.916-5.593 1.145-1.315-2.51-3.583-1.67.566-3.864-5.518zm10.555 5.814l3.133-3.913-.031-.045-4.727 1.635 1.625 2.323zM158.785 64.126l12.371-4.604 4.424 11.888c1.018 2.733.49 4.485-1.58 5.255-.996.37-1.92.265-2.775-.315-.719-.5-1.307-1.272-1.758-2.313l-.035.012c.182.662.305 1.149.369 1.464.105.56.125 1.054.062 1.481-.123.93-.744 1.604-1.865 2.022-1.5.557-2.77.151-3.812-1.218-.4-.516-.752-1.179-1.053-1.99l-4.348-11.682zm6.988 4.449l-1.805.672.932 2.504c.297.8.744 1.09 1.342.868.607-.227.764-.734.471-1.523l-.94-2.521zm4.442-1.653l-1.781.663.881 2.368c.307.823.756 1.125 1.35.903.596-.221.75-.715.463-1.48l-.913-2.454zM166.559 97.702l-.635-6.154 5.953-.614-.002-.036-6.426-3.956-.595-5.79 13.128-1.353.637 6.172-5.484.565.004.036 5.873 3.203.677 6.573-13.13 1.354zM166.352 98.153l4.576.464c-.324.604-.525 1.302-.607 2.091-.145 1.433.256 2.197 1.205 2.293l7.385.749-.668 6.573-9.547-.969c-2.65-.269-3.771-2.394-3.367-6.375.214-2.125.556-3.734 1.023-4.826zM165.059 109.918l12.636 3.811-4.259 14.124-3.989-1.204 2.352-7.797-1.221-.369-2.351 7.798-2.916-.88 2.351-7.797-1.197-.361-2.352 7.798-3.314-.999 4.26-14.124z" fill-rule="evenodd" clip-rule="evenodd"/><path d="M95.479 29.661c36.83 0 66.717 29.886 66.717 66.718 0 36.83-29.887 66.716-66.717 66.716-36.819 0-66.706-29.886-66.706-66.716 0-36.832 29.887-66.718 66.706-66.718z" fill-rule="evenodd" clip-rule="evenodd" fill="#378e52" stroke="#000" stroke-width=".605" stroke-miterlimit="2.613"/><path d="M134.906 115.687c-1.523-.863-2.773-.237-3.688 2.186-.486.488-1.012.738-1.711.164-.613-2.175-1.537-2.75-2.975-.788-1.111-.85-2.273-1.187-3.6.088-.287 1.3-.699 2.312-1.412 2.574-.486-.438-.898-1.024-1.174-1.874-.912-.438-1.648-.014-2.35.624-.736 1.662-1.125 3.45-1.25 5.323-.438.988-.713.7-.938 0 .488-1.661-.299-2.225-1.324-2.586l-4.537 5.011 3.988 14.472 6.486-3.837c1.773.425 3.686-.036 5.871-2.111.477-1.125.377-1.949-1.248-2.037-1.287-.862-.812-1.425.236-1.875 1.264 0 2.412.05 4.225-.236 1.5-.2 2.549-.925 2.574-2.812-.375-.538-.811-.875-1.4-.788-.037-.725.127-1.449.312-2.186l2.338-3.05.088-1.638c2.353-1.813 2.165-3.25 1.489-4.624z" fill-rule="evenodd" clip-rule="evenodd" fill="#eebd31" stroke="#000" stroke-width=".127" stroke-linejoin="bevel" stroke-miterlimit="2.613"/><path d="M126.457 117.336c.789 1.574.414 2.762-1.26 3.511-.926 1.175-1.352 2.225-.389 2.975l-2.975 3.361c-1.236.788-1.211 1.575-.938 2.35.812-.687 1.613-.949 2.426-.387.25 3.8-1.688 4.711-4.775 4.148-1.998.237-2.41 1.425-1.324 3.524l9.235-19.482zM133.73 116.711c-1.998 2.736-4.072 5.311-6.496 7.186l6.496-7.186zM124.496 117.872c-.074 0-3.785 5.125-5.637 7.674l.312-5.711 5.325-1.963z" fill-rule="evenodd" clip-rule="evenodd" fill="#eebd31" stroke="#000" stroke-width=".127" stroke-linejoin="bevel" stroke-miterlimit="2.613"/><path d="M128.957 128.358c-2.262.024-4.449-.2-6.498-1.012l6.498 1.012zM120.109 131.02l-6.722.163-1.563 1.399 8.285-1.562zM115.424 128.833c0-.075-1.412 1.487-2.113 2.262l-.162-2.337 2.275.075zM124.184 134.157c-2.324.149-4.648.074-6.961-.4l6.961.4zM57.712 116.748c1.524-.862 2.774-.237 3.674 2.188.487.486 1.025.737 1.725.162.612-2.175 1.538-2.749 2.975-.787 1.112-.85 2.274-1.188 3.599.087.287 1.301.699 2.312 1.412 2.574.487-.437.887-1.024 1.175-1.874.913-.438 1.65-.012 2.337.625.75 1.662 1.125 3.449 1.262 5.323.425.988.711.7.937 0-.488-1.661.3-2.224 1.325-2.586l4.536 5.011-3.986 14.472-6.499-3.837c-1.762.425-3.674-.038-5.86-2.112-.487-1.124-.375-1.948 1.25-2.037 1.287-.861.812-1.424-.237-1.874-1.262 0-2.412.05-4.224-.237-1.5-.2-2.55-.924-2.587-2.812.388-.538.825-.875 1.412-.788.037-.725-.125-1.449-.312-2.186l-2.349-3.051-.076-1.637c-2.351-1.811-2.163-3.249-1.489-4.624z" fill-rule="evenodd" clip-rule="evenodd" fill="#eebd31" stroke="#000" stroke-width=".127" stroke-linejoin="bevel" stroke-miterlimit="2.613"/><path d="M66.16 118.397c-.788 1.575-.425 2.762 1.25 3.513.937 1.175 1.362 2.224.4 2.974l2.974 3.361c1.226.788 1.213 1.574.938 2.35-.813-.688-1.625-.949-2.425-.387-.25 3.799 1.688 4.711 4.774 4.148 2 .238 2.399 1.425 1.324 3.512l-9.235-19.471zM58.887 117.772c2 2.738 4.075 5.312 6.499 7.199l-6.499-7.199zM68.122 118.936c.075 0 3.774 5.111 5.624 7.674l-.3-5.712-5.324-1.962z" fill-rule="evenodd" clip-rule="evenodd" fill="#eebd31" stroke="#000" stroke-width=".127" stroke-linejoin="bevel" stroke-miterlimit="2.613"/><path d="M63.661 129.42c2.249.024 4.448-.2 6.498-1.012l-6.498 1.012zM72.496 132.082l6.736.163 1.562 1.4-8.298-1.563zM77.195 129.896c0-.076 1.412 1.486 2.112 2.262l.163-2.338-2.275.076zM68.434 135.219c2.325.15 4.637.075 6.961-.399l-6.961.399z" fill-rule="evenodd" clip-rule="evenodd" fill="#eebd31" stroke="#000" stroke-width=".127" stroke-linejoin="bevel" stroke-miterlimit="2.613"/><path d="M89.717 142.742c-7.586 2.6-7.736 8.022-10.298 12.897 5.112 1.411 10.311 1.35 10.111 1.662.125-3.899 2.649-9.898 10.31-14.734l-10.123.175z" fill-rule="evenodd" clip-rule="evenodd" fill="#fff" stroke="#808183" stroke-width="1.146" stroke-linejoin="bevel" stroke-miterlimit="2.613"/><path d="M85.331 140.143c-9.06 4.599-14.322 10.785-14.247 13.26 2.711 1.162 6.773 1.937 9.498 2.599.625-3.299 4.161-8.01 11.11-13.708l-6.361-2.151z" fill-rule="evenodd" clip-rule="evenodd" fill="#1f71b8" stroke="#808183" stroke-width="1.146" stroke-linejoin="bevel" stroke-miterlimit="2.613"/><path d="M107.988 140.955c7.586 2.587 11.047 6.861 13.621 11.734-2.725 1.15-7.135 2.688-9.848 3.35-.125-3.899-5.523-10.16-13.184-14.997l9.411-.087z" fill-rule="evenodd" clip-rule="evenodd" fill="#217cad" stroke="#808183" stroke-width="1.146" stroke-linejoin="bevel" stroke-miterlimit="2.613"/><path d="M100.553 142.293c7.584 2.599 10.334 8.297 12.896 13.171-2.537 1.175-7.611 1.25-10.197 1.475-.125-3.898-3.461-9.535-11.123-14.371l8.424-.275z" fill-rule="evenodd" clip-rule="evenodd" fill="#cf432a" stroke="#808183" stroke-width="1.146" stroke-linejoin="bevel" stroke-miterlimit="2.613"/><path d="M37.267 118.96c.887-1.112 2.674-1.336 5.399-.612l91.928 23.02-.838 3.95-92.765-23.445c-2.075-.763-3.499-1.688-3.724-2.913z" fill-rule="evenodd" clip-rule="evenodd" fill="#fff" stroke="#000" stroke-width=".127" stroke-linejoin="bevel" stroke-miterlimit="2.613"/><path d="M40.329 119.623c.175 0 61.886 15.634 92.742 23.456" fill="none" stroke="#000" stroke-width=".127" stroke-linejoin="bevel" stroke-miterlimit="2.613"/><path fill-rule="evenodd" clip-rule="evenodd" fill="#eebd31" stroke="#000" stroke-width=".127" stroke-linejoin="bevel" stroke-miterlimit="2.613" d="M135.318 141.655l-1.398-.463-1.988 1.625.925 2.337 1.637.238.824-3.737z"/><path d="M137.932 135.269c.799 0 1.449.625 1.449 1.389 0 .773-.65 1.387-1.463 1.387-.799 0-1.449-.626-1.449-1.387 0-.776.65-1.389 1.463-1.389zM134.105 149.702c.814 0 1.463.626 1.463 1.4 0 .763-.662 1.388-1.463 1.388-.799-.013-1.461-.638-1.449-1.399 0-.763.651-1.389 1.449-1.389z" fill-rule="evenodd" clip-rule="evenodd" fill="#eebd31" stroke="#000" stroke-width=".159" stroke-miterlimit="2.613"/><path fill="none" stroke="#000" stroke-width=".127" stroke-linejoin="bevel" stroke-miterlimit="2.613" d="M137.418 137.931l-2.936 11.897"/><path d="M138.193 142.617c.725-.188 1.523-.112 2.449.438.762-.338 1.686-.139 2.711.437.664-.126 1.4-.126 2.625.712.6-.312 1.35-.074 2.275.787.924-.187 1.898.413 2.887 1.238.762-.15 1.236.125 1.662.524l.074 2.536-.875-.35c-.398.475-1.012.413-1.75.088-.662.5-1.498.5-2.623-.188-.826.637-1.775.35-2.799-.35-.701.312-1.477.188-2.363-.625-1.012.15-1.963.025-2.711-1.05-1.188.275-2.025-.251-2.801-.874l1.239-3.323z" fill-rule="evenodd" clip-rule="evenodd" fill="#eebd31" stroke="#000" stroke-width=".127" stroke-linejoin="bevel" stroke-miterlimit="2.613"/><path fill-rule="evenodd" clip-rule="evenodd" fill="#eebd31" stroke="#000" stroke-width=".127" stroke-linejoin="bevel" stroke-miterlimit="2.613" d="M135.906 137.456l3.262.824-2.938 12.135-3.384-.949 3.06-12.01z"/><path d="M137.969 143.142c.025-.212 1.199 1.95 1.713 3.649m.998-3.773c.389.812.713 1.612.912 2.412.162.824.438 1.611.863 2.374m.912-4.337c.35.801.512 1.588.688 2.387.213 1.038.5 1.888.762 2.6m1.175-4.25c.262.449.512 1.2.775 2.188.287 1.263.574 2.111.861 2.462m.649-3.849c.4.425.752 1.174 1.088 2.136.301.863.611 1.562.926 1.838m.873-2.775c.363.55.664 1.1.814 1.662" fill="none" stroke="#000" stroke-width=".127" stroke-linejoin="bevel" stroke-miterlimit="2.613"/><path d="M153.727 146.092c1.25 0 2.262 1.075 2.25 2.399 0 1.324-1.012 2.387-2.262 2.387-1.238 0-2.25-1.074-2.25-2.4 0-1.311 1.012-2.386 2.262-2.386z" fill-rule="evenodd" clip-rule="evenodd" fill="#eebd31" stroke="#000" stroke-width=".159" stroke-miterlimit="2.613"/><path d="M137.619 137.893c-.988 4.012-1.988 8.012-2.975 12.011" fill="none" stroke="#000" stroke-width=".255" stroke-linejoin="bevel" stroke-miterlimit="2.613"/><path d="M155.613 117.548c-.912-1.1-2.699-1.274-5.41-.487L58.849 142.28l.938 3.912 92.167-25.644c2.073-.813 3.474-1.776 3.659-3z" fill-rule="evenodd" clip-rule="evenodd" fill="#fff" stroke="#000" stroke-width=".127" stroke-linejoin="bevel" stroke-miterlimit="2.613"/><path d="M152.578 118.272c-.176.013-61.499 17.121-92.155 25.682" fill="none" stroke="#000" stroke-width=".127" stroke-linejoin="bevel" stroke-miterlimit="2.613"/><path fill-rule="evenodd" clip-rule="evenodd" fill="#eebd31" stroke="#000" stroke-width=".127" stroke-linejoin="bevel" stroke-miterlimit="2.613" d="M58.137 142.58l1.387-.5 2.024 1.574-.875 2.362-1.624.276-.912-3.712z"/><path d="M55.375 136.257c-.8.012-1.438.648-1.413 1.424.013.763.687 1.375 1.487 1.35.8-.024 1.437-.662 1.425-1.425-.024-.775-.687-1.375-1.499-1.349zM59.537 150.59c-.8.026-1.438.663-1.413 1.438.013.762.688 1.361 1.487 1.35.8-.025 1.437-.663 1.425-1.426-.025-.774-.687-1.374-1.499-1.362z" fill-rule="evenodd" clip-rule="evenodd" fill="#eebd31" stroke="#000" stroke-width=".159" stroke-miterlimit="2.613"/><path fill="none" stroke="#000" stroke-width=".127" stroke-linejoin="bevel" stroke-miterlimit="2.613" d="M55.937 138.905l3.225 11.823"/><path d="M55.288 143.604c-.725-.162-1.524-.062-2.437.5-.775-.325-1.688-.1-2.699.512-.675-.124-1.413-.111-2.612.763-.6-.3-1.35-.037-2.25.851-.925-.176-1.886.449-2.861 1.299-.763-.138-1.237.162-1.65.562l-.025 2.537.875-.362c.413.462 1.025.375 1.75.037.675.476 1.525.462 2.625-.25.837.612 1.787.301 2.787-.412.7.287 1.474.149 2.349-.675 1.013.125 1.963-.037 2.688-1.125 1.2.238 2.012-.299 2.773-.949l-1.313-3.288z" fill-rule="evenodd" clip-rule="evenodd" fill="#eebd31" stroke="#000" stroke-width=".127" stroke-linejoin="bevel" stroke-miterlimit="2.613"/><path fill-rule="evenodd" clip-rule="evenodd" fill="#eebd31" stroke="#000" stroke-width=".127" stroke-linejoin="bevel" stroke-miterlimit="2.613" d="M57.45 138.394l-3.25.899 3.224 12.06 3.362-1.025-3.336-11.934z"/><path d="M55.525 144.13c-.024-.213-1.15 1.986-1.624 3.687m-1.088-3.75a12.683 12.683 0 0 0-.863 2.436 7.939 7.939 0 0 1-.799 2.389m-1.012-4.301c-.337.801-.475 1.588-.638 2.388a16.474 16.474 0 0 1-.7 2.612m-1.274-4.212c-.25.463-.488 1.212-.725 2.2-.25 1.274-.525 2.136-.8 2.487m-.75-3.837c-.375.437-.712 1.199-1.024 2.161-.287.887-.575 1.588-.888 1.875m-.937-2.774c-.35.574-.638 1.125-.775 1.688" fill="none" stroke="#000" stroke-width=".127" stroke-linejoin="bevel" stroke-miterlimit="2.613"/><path d="M39.841 147.453c-1.237.038-2.225 1.125-2.187 2.45.025 1.324 1.062 2.361 2.312 2.337 1.25-.038 2.225-1.138 2.2-2.45-.038-1.324-1.075-2.374-2.325-2.337z" fill-rule="evenodd" clip-rule="evenodd" fill="#eebd31" stroke="#000" stroke-width=".159" stroke-miterlimit="2.613"/><path d="M55.75 138.88c1.088 3.975 2.175 7.948 3.25 11.924" fill="none" stroke="#000" stroke-width=".255" stroke-linejoin="bevel" stroke-miterlimit="2.613"/><path d="M89.729 124.946h13.696l1.912 17.858c-6.697.874-12.009.862-17.346.351l1.738-18.209z" fill-rule="evenodd" clip-rule="evenodd" fill="#fff" stroke="#808183" stroke-width="1.146" stroke-linejoin="bevel" stroke-miterlimit="2.613"/><path d="M80.02 139.868c-7.586 2.587-12.873 6.224-15.435 11.098 2.711 1.149 5.611 2.448 8.323 3.111.125-3.887 5.874-8.686 13.521-13.522l-6.409-.687z" fill-rule="evenodd" clip-rule="evenodd" fill="#cf432a" stroke="#808183" stroke-width="1.146" stroke-linejoin="bevel" stroke-miterlimit="2.613"/><path d="M112.674 139.181c7.586 2.586 12.873 6.224 15.434 11.098-2.711 1.149-5.609 2.449-8.322 3.124-.125-3.899-7.311-8.873-14.973-13.709l7.861-.513z" fill-rule="evenodd" clip-rule="evenodd" fill="#fff" stroke="#808183" stroke-width="1.146" stroke-linejoin="bevel" stroke-miterlimit="2.613"/><path d="M112.975 122.909l-11.609.274c.174 6.587.85 13.186 2.424 19.709 5.299-.163 9.998-1.038 14.758-1.987-7.849-6.361-7.411-12.222-5.573-17.996z" fill-rule="evenodd" clip-rule="evenodd" fill="#cf432a" stroke="#808183" stroke-width="1.146" stroke-linejoin="bevel" stroke-miterlimit="2.613"/><path d="M79.669 123.734l11.622-.175c.076 6.586-.25 13.184-1.562 19.77-5.298.188-10.123-.574-14.909-1.387 7.586-6.661 6.924-12.509 4.849-18.208z" fill-rule="evenodd" clip-rule="evenodd" fill="#1f71b8" stroke="#808183" stroke-width="1.146" stroke-linejoin="bevel" stroke-miterlimit="2.613"/><path d="M56.325 54.587c-.15.513-.475.85-.688 1.288m3.1-.3c-.749 1.887-1.512 3.774-2.374 5.648-1.612 2.125-3.188 2.799-4.912 2.199-.475-.412-.637-.913-.424-1.549m2.535 1.587c.075.612.313 1.138 1.213 1.387 1.086.063 2.025-.062 2.662-.562 1.887-.787 2.6-3.786 3.324-7.585m2.325 1.599c-.338 3.912-1.101 6.511-2.451 7.236-.799.337-1.586.274-2.374.125-.5-.275-.875-.675-1.25-1.075m3.625.988c.163.35.413.7.812 1.038.787.287 1.6.274 2.5-.125 1.212-.95 1.611-2.912 1.461-5.562m-1.46 5.511a8.098 8.098 0 0 0 0 2.337c.999 1.312 1.887 1.4 2.761 1.549.413-.25.75-.649.812-1.199.113-.925.013-2.2.138-3.499m-1.125 4.698c.262.75.6 1.487 1.337 2.238.637.237 1.262.312 1.9.087.562-.9.675-2.337.562-4.049m-.913 4.174c.75 1.212 1.587 1.85 2.674 2.037.613-.175 1.1-.312 1.25-.824a4.42 4.42 0 0 0 0-1.725 4.168 4.168 0 0 1 0-1.725m-.262 3.837c-.087.225.737 1.699 1.55 1.849 1 .163 1.712-.35 2.249-1.337-.088-.549-.162-1.099-.387-1.637-.25-.588-.125-1.25-.087-1.85m-.438 4.662c.662.799 1.337 1.262 1.9 1.174 1.274-.212 2.486-1.4 1.937-3.036-.237-.675-.45-1.437-.687-2.287m.174 4.661c.575.912 1.638 1.3 3.238 1.075m-39.879-3.787c1.5 1.512 3.737 1.287 5.523-2.024.987-3.137 2.112-5.736 3.312-8.411m-6.11 11.21c.124.788.587 1.575 1.287 2.362 1.737.638 3.237.025 4.524-1.725 1.575-4.749 2.475-8.073 3.75-10.423m-1.764 13.01c.113.513.537.862 1.337 1.037.85.25 1.788.212 2.762 0 .925-.1 1.425-.85 1.674-1.974.713-4.586 1.525-8.148 2.462-10.348m-3.06 11.761c1.674 1.037 3.124.75 4.349-1.163.3-.962.45-1.924.512-2.886.187-2.424.399-4.362.7-5.649m-3.412 10.31c.325 2.424 2.862 2.499 4.699.512.274-.45.412-1 .349-1.675l.263-2.899.337-3.748c.087-.476.3-.688.513-.901m-2.961 10.298c0 .4.049.812.162 1.211.874 1.013 1.662 1.426 2.412 1.725 1.25-.2 1.912-.961 2.25-2.074-.113-2.662.15-5.049.513-7.373l.3-1.25m-2.627 10.648c-.125.662.638 1.324 1.675 1.987 1.062.725 2.125.262 3.199-.95.213-.7.213-1.4.176-2.149-.163-2.762.224-5.037.336-7.548m-1.986 10.859c1.375 1.962 3.312 1.788 4.575-.176.324-3.048.024-6.11-.088-9.172m-.563 10.036c1.337 1.449 3.475 1.237 4.436-1.725-.2-2.712-.625-5.224-1.287-7.498m.95 8.286c1.375.912 2.25.074 3.274-.262a59.347 59.347 0 0 0-1.213-7.761m-42.151 18.62c1.775-1.225 2.986-2.625 3.624-4.187 1.362-6.086 3.013-10.947 4.824-14.996m-.475 36.554c2.649-3.712 4.812-8.312 5.948-14.784 1.25-7.449 2.85-13.646 4.787-19.571m.087 21.683c.712-8.323 2.037-15.271 3.874-20.995m1.387 14.834c.175-4.737.888-8.848 1.763-12.761M75.97 87.13a28.15 28.15 0 0 0 1.037 5.174m-38.915 12.672c1.612-.899 3.023-2.224 4.173-4.136 2.5-7.674 4.537-15.347 7.674-23.02m-10.648 34.004c3.787-2.312 6.511-7.173 8.361-14.134 1.35-6.774 3.324-13.197 5.698-19.396m11.635 16.16c.401-.476.65-1.062.813-2.025-.038-2.999.337-5.961.65-8.961m1.849 11.848c.837-.713 1.399-1.513 1.562-2.45l-.225-7.11m3.362 1.161c.15 2.724.462 5.287-.25 8.873m62.836-41.59c.137.513.461.85.688 1.287" fill="none" stroke="#000" stroke-width=".127" stroke-linejoin="bevel" stroke-miterlimit="2.613"/><path d="M108.662 64.473c2.15-.837 2.775.701 5.812.238 5.385-.812 9.873-10.423 10.871-13.885.713-2.449 3.4-3.749 3.549-3.524 5.012-1.012 10.447 4.762 15.285 13.035.199.688.062 1.149-.688 1.2 2.688 3.574 4.311 7.26 5.773 10.984.15.363-.125.575.012.938l.613.563c1.861 4.461 3.725 8.91 5.086 14.659.375 1.737.824 3.862.988 6.287-.275.487-1.051.624-2.125.536 1.412 3.512 3.211 7.661 2.688 8.948-.875.825-1.75.787-2.525.013.412 1.675 1.111 3.162 1.838 4.986.162.412.211 1.087.387 1.512-.762 1.112-1.662 1.35-3.674.425 1.1 1.825 1.238 3.175.699 4.524-2.688 1.587-4.799-.938-7.348-2.999-.312.887-.676 1.698-1.725 1.725-5.975-1.774-8.348-7.224-9.135-14.31-2.5 1.575-4.488.312-5.162-5.999-1.25.599-2.162.351-2.949-.2-.15 1.6-1.65 1.325-3.273.863-.738 1.575-2.014 1.837-4.463.45-1.137.612-2.562.837-3.924.3l-8.336-14.722 1.726-16.547z" fill-rule="evenodd" clip-rule="evenodd" fill="#fff" stroke="#000" stroke-width=".127" stroke-linejoin="bevel" stroke-miterlimit="2.613"/><path d="M133.17 55.188c.736 1.887 1.5 3.762 2.361 5.649 1.611 2.111 3.199 2.799 4.912 2.199.475-.412.637-.925.438-1.562m-2.551 1.599c-.062.6-.299 1.137-1.199 1.375-1.1.075-2.037-.05-2.674-.549-1.875-.787-2.6-3.787-3.324-7.585m-2.324 1.585c.336 3.912 1.1 6.512 2.463 7.249.785.337 1.574.262 2.359.125.5-.275.889-.674 1.252-1.075m-3.612.988c-.176.35-.428.688-.826 1.037-.787.275-1.6.275-2.5-.138-1.211-.937-1.611-2.899-1.463-5.548m1.463 5.511c.125.774.113 1.55 0 2.323-.986 1.326-1.887 1.413-2.762 1.55-.412-.237-.75-.637-.812-1.187-.111-.938-.014-2.212-.125-3.499m1.113 4.686c-.264.75-.602 1.5-1.338 2.25-.625.237-1.262.3-1.887.088-.576-.912-.688-2.349-.562-4.062m.901 4.187c-.75 1.212-1.588 1.837-2.676 2.024-.6-.175-1.098-.3-1.25-.812a4.48 4.48 0 0 1 0-1.725c.139-.712.102-1.249 0-1.724m.264 3.836c.088.213-.738 1.7-1.549 1.849-.988.163-1.713-.362-2.25-1.336.086-.562.174-1.113.387-1.65.25-.587.125-1.237.088-1.837m.437 4.649c-.662.812-1.338 1.275-1.9 1.175-1.273-.212-2.486-1.399-1.924-3.024.225-.674.438-1.437.676-2.287m-.176 4.661c-.576.912-1.625 1.287-3.225 1.075m39.865-3.8c-1.5 1.513-3.736 1.3-5.523-2.024-.975-3.124-2.111-5.736-3.311-8.397m6.123 11.196c-.137.8-.6 1.588-1.301 2.374-1.736.638-3.236.025-4.523-1.725-1.574-4.761-2.461-8.072-3.75-10.435m5.688 12.16c-1.037 1.512-2.324 1.537-4.137.825-.787-.312-1.238-.912-1.514-1.425a21.95 21.95 0 0 1-1.285-4.873c-.363-2.55-1.426-4.287-2.113-5.899m5.125 12.235c-.113.513-.537.863-1.338 1.037-.85.25-1.787.2-2.75 0-.936-.112-1.436-.849-1.688-1.986-.711-4.586-1.512-8.149-2.449-10.348m3.063 11.772c-1.674 1.036-3.137.737-4.361-1.162-.301-.962-.449-1.925-.512-2.888-.176-2.424-.4-4.361-.688-5.648m3.399 10.298c-.324 2.424-2.861 2.512-4.699.524-.273-.462-.412-1-.338-1.687l-.262-2.887-.35-3.75c-.074-.487-.301-.688-.512-.9m2.975 10.3c0 .4-.062.8-.176 1.199-.875 1.013-1.65 1.438-2.412 1.725-1.238-.188-1.912-.951-2.236-2.062.1-2.674-.164-5.061-.525-7.373l-.301-1.25m2.625 10.647c.139.662-.637 1.324-1.674 1.987-1.062.725-2.125.263-3.188-.95-.225-.713-.225-1.399-.188-2.15.162-2.774-.225-5.036-.338-7.547m1.989 10.859c-1.361 1.963-3.299 1.787-4.574-.175-.326-3.062-.025-6.124.088-9.186m.562 10.049c-1.338 1.45-3.475 1.237-4.438-1.725.213-2.725.625-5.224 1.287-7.498m-.948 8.273c-1.375.924-2.25.075-3.275-.262a61.79 61.79 0 0 1 1.213-7.748m42.152 18.62c-1.773-1.225-2.973-2.624-3.623-4.186-1.363-6.086-3-10.961-4.824-14.998m.474 36.543c-2.637-3.712-4.799-8.298-5.949-14.783-1.236-7.436-2.848-13.635-4.785-19.559m-.088 21.682c-.713-8.336-2.025-15.272-3.873-20.995m-1.389 14.822c-.174-4.724-.887-8.836-1.762-12.76m-12.109 5.399a28.335 28.335 0 0 1-1.037 5.161m38.927 12.672c-1.613-.888-3.023-2.225-4.186-4.136-2.488-7.674-4.537-15.334-7.674-23.008m10.648 34.005c-3.785-2.324-6.51-7.173-8.359-14.134-1.338-6.786-3.324-13.197-5.688-19.396m-11.647 16.16c-.398-.476-.65-1.063-.812-2.025.039-3-.336-5.961-.65-8.973m-1.85 11.859c-.836-.711-1.398-1.512-1.549-2.461l.213-7.112m-3.362 1.163c-.15 2.737-.463 5.286.262 8.885m24.344-33.841c-1.023.225-2.148.125-3.398-.338-.824-.837-1.812-1.949-2.537-3.437a30.752 30.752 0 0 0-2.211-3.849" fill="none" stroke="#000" stroke-width=".127" stroke-linejoin="bevel" stroke-miterlimit="2.613"/><path d="M90.905 91.042l-12.723 30.043c-.275 2.337.838 3.648 2.674 4.023 1.3.25 2.763.05 3.412-1.312 1.837 4.074 4.762 2.987 7.773 1.45 3.149 3.062 6.136 2.762 9.009.101 3.201 1.774 5.676 1.287 7.775-1.037 3.76 1.287 6.584-.351 6.197-3.087-5.748-12.673-9.41-20.483-14.07-31.005l-10.047.824z" fill-rule="evenodd" clip-rule="evenodd" fill="#fff" stroke="#a6a8aa" stroke-width=".287" stroke-linejoin="bevel" stroke-miterlimit="2.613"/><path d="M91.629 90.217l-5.911 14.921c.362 1.213 1.274 1.774 3.011 1.35.625 2.425 2.5 2.149 4.549 1.45 1.887 2.461 4.061 2.174 6.223 0 2.162 1.137 3.463.412 4.25-1.45 2.162.263 3.123-.388 3.111-1.763l-6.324-14.508h-8.909zm-7.336 33.617c-.188-.388.087-1.138.362-1.987l8.198-29.993m15.872 32.518c.188-.4.088-1.226-.188-2.075l-9.135-30.88m-7.311 33.792c-.237-.263-.35-.649-.363-1.137l2.925-32.656m2.675.438l3.887 32.055c.037.475.012.949-.125 1.424" fill="none" stroke="#000" stroke-width=".127" stroke-linejoin="bevel" stroke-miterlimit="2.613"/><path fill-rule="evenodd" clip-rule="evenodd" stroke="#000" stroke-width=".127" stroke-linejoin="bevel" stroke-miterlimit="2.613" d="M63.135 110.149l3.488.076.212 1.337 2.499.175 2.112-4.136-5.986-1.038-2.325 3.586z"/><path d="M77.894 94.591c-1.399 2.774-2.411 5.161-4.373 8.51-1.075.675-1.675 1.274-2.062 1.837-1.463.226-3.025.238-4.6.226-1.924-1.013-2.9-.351-3.337 1.262-1.512 1.575-1.55 3.262-.35 5.062.263-1.824.95-3 2.025-3.524 1.024-.5 2.324-.713 3.724-.85-3.474.062-6.086 1.8-5.261 3.849.038.075-.013.176-.013.263-.05 1.35-.225 2.849 2.637 4.399-1.287-1.875-.887-3.112-.237-4.249-.049.449.175.687.576.8.4-.175.649-.4.687-.688.025-1.5 1.762-2.462 3.449-3.449-1.812.787-3.05 1.699-3.125 3.312 0 .125.025.237-.012.351-.838 2.324-.888 4.023 3.398 5.036-1.386-.875-1.487-1.725-1.174-3.062 1.75.2 2.211-1.499 2.412-3.562 1.975-3.262 3.586-2.325 4.024-.574.112.6.462.861 1.037.799-.226 1.775-1.337 2.325-2.537 2.762 4.087.913 5.099-1.062 5.287-3.799.287-1.861-.775-2.712-3.099-2.637-1.175-.675-1.337-1.412-.8-2.188l3.786-4.486-2.062-5.4z" fill-rule="evenodd" clip-rule="evenodd" fill="#eebd31" stroke="#000" stroke-width=".127" stroke-linejoin="bevel" stroke-miterlimit="2.613"/><path d="M63.523 106.476c1.112-.062 1.55.551 1.413 1.725m-1.288 2.724c.413-1.487 1.163-1.812 2.374.475m1.675.211c.787-.549 1.525.163 2.199 2.112m7.411-3.449c-.4-1.212.713-1.462 2.8-1.074" fill="none" stroke="#000" stroke-width=".127" stroke-linejoin="bevel" stroke-miterlimit="2.613"/><path fill-rule="evenodd" clip-rule="evenodd" stroke="#000" stroke-width=".127" stroke-linejoin="bevel" stroke-miterlimit="2.613" d="M129.357 109.149l-3.486.089-.213 1.336-2.498.175-2.113-4.136 5.986-1.038 2.324 3.574z"/><path d="M114.598 93.591c1.4 2.774 2.412 5.175 4.375 8.511 1.074.675 1.676 1.274 2.062 1.838 1.463.237 3.023.237 4.598.225 1.926-1 2.9-.351 3.338 1.274 1.512 1.562 1.549 3.262.338 5.049-.264-1.812-.938-2.987-2.012-3.512-1.025-.513-2.326-.712-3.725-.85 3.475.062 6.086 1.787 5.26 3.85-.037.074.014.162.014.249.049 1.362.225 2.862-2.637 4.399 1.287-1.862.875-3.1.236-4.25.051.451-.174.7-.574.812-.4-.187-.65-.399-.699-.699-.014-1.5-1.75-2.462-3.449-3.449 1.824.787 3.061 1.699 3.137 3.324 0 .113-.025.237.012.338.838 2.324.889 4.023-3.398 5.049 1.387-.889 1.486-1.737 1.174-3.075-1.75.2-2.211-1.499-2.41-3.562-1.977-3.262-3.588-2.324-4.025-.574-.113.611-.463.874-1.037.8.225 1.774 1.338 2.337 2.537 2.761-4.088.913-5.1-1.049-5.299-3.785-.275-1.862.787-2.712 3.111-2.65 1.162-.662 1.338-1.399.799-2.187l-3.785-4.474 2.059-5.412z" fill-rule="evenodd" clip-rule="evenodd" fill="#eebd31" stroke="#000" stroke-width=".127" stroke-linejoin="bevel" stroke-miterlimit="2.613"/><path d="M128.971 105.488c-1.113-.075-1.551.538-1.426 1.725m1.301 2.712c-.412-1.487-1.162-1.812-2.375.475m-1.674.212c-.787-.538-1.525.162-2.199 2.112m-7.412-3.449c.4-1.213-.711-1.45-2.811-1.075m1.537-9.698l-.639-1.012" fill="none" stroke="#000" stroke-width=".127" stroke-linejoin="bevel" stroke-miterlimit="2.613"/><path d="M29.681 132.308c1.712 0 3.112 1.35 3.112 2.998 0 1.662-1.399 3.013-3.112 3.013-1.712 0-3.112-1.351-3.112-3.013 0-1.649 1.4-2.998 3.112-2.998zM163.238 130.096c1.711 0 3.111 1.349 3.111 2.999 0 1.662-1.4 2.999-3.111 2.999-1.727 0-3.111-1.337-3.111-2.999 0-1.651 1.385-2.999 3.111-2.999zM141.168 156.651c1.725 0 3.111 1.337 3.111 2.999 0 1.649-1.387 2.999-3.111 2.999-1.713 0-3.111-1.35-3.111-2.999 0-1.662 1.398-2.999 3.111-2.999zM53.238 157.677c1.725 0 3.112 1.35 3.112 2.999 0 1.662-1.387 2.999-3.112 2.999-1.712 0-3.111-1.337-3.111-2.999-.001-1.65 1.399-2.999 3.111-2.999z" fill-rule="evenodd" clip-rule="evenodd" stroke="#000" stroke-width=".127" stroke-miterlimit="2.613"/><path d="M56.15 54.688c-.149.525-.462.863-.688 1.3" fill="none" stroke="#000" stroke-width=".127" stroke-linejoin="bevel" stroke-miterlimit="2.613"/><path d="M83.068 64.973c-2.149-.85-2.773.688-5.81.238-5.387-.813-9.873-10.423-10.885-13.885-.7-2.449-3.4-3.75-3.537-3.524-5.012-1.012-10.448 4.761-15.284 13.022-.2.687-.075 1.162.688 1.212-2.687 3.562-4.324 7.261-5.786 10.985-.138.362.137.575-.013.937l-.6.562c-1.862 4.461-3.737 8.911-5.087 14.647-.375 1.749-.825 3.874-.987 6.297.275.488 1.05.626 2.124.538-1.412 3.513-3.211 7.661-2.687 8.948.875.824 1.75.787 2.512.013-.399 1.674-1.099 3.161-1.825 4.985-.162.413-.212 1.088-.387 1.5.762 1.125 1.65 1.35 3.662.438-1.087 1.824-1.225 3.174-.688 4.523 2.688 1.588 4.799-.938 7.348-3 .301.888.675 1.7 1.725 1.726 5.962-1.775 8.349-7.236 9.136-14.31 2.5 1.562 4.486.3 5.148-6.012 1.25.6 2.162.363 2.95-.2.162 1.613 1.649 1.337 3.274.863.749 1.574 2.024 1.837 4.474.462 1.138.612 2.549.837 3.924.3l8.323-14.723-1.712-16.542z" fill-rule="evenodd" clip-rule="evenodd" fill="#fff" stroke="#000" stroke-width=".127" stroke-linejoin="bevel" stroke-miterlimit="2.613"/><path d="M58.562 55.688c-.738 1.875-1.5 3.762-2.361 5.636-1.613 2.126-3.2 2.8-4.925 2.2-.475-.399-.637-.913-.424-1.55m2.536 1.6c.075.6.312 1.124 1.212 1.375 1.1.075 2.037-.062 2.674-.562 1.875-.775 2.599-3.774 3.312-7.586m2.337 1.598c-.338 3.912-1.1 6.511-2.461 7.235-.788.338-1.588.276-2.375.138-.5-.287-.875-.675-1.25-1.086m3.625.999c.174.338.412.687.825 1.025.774.288 1.599.274 2.5-.125 1.212-.937 1.612-2.912 1.461-5.56m-1.462 5.523a7.578 7.578 0 0 0 0 2.324c.986 1.312 1.874 1.411 2.749 1.55.412-.237.75-.65.812-1.2.112-.925.013-2.199.138-3.499m-1.125 4.699c.263.75.6 1.5 1.337 2.236.638.238 1.275.312 1.899.087.575-.899.688-2.336.563-4.048m-.899 4.186c.737 1.2 1.574 1.837 2.662 2.025.612-.175 1.099-.3 1.249-.825a4.22 4.22 0 0 0 0-1.725 4.68 4.68 0 0 1 0-1.725m-.25 3.838c-.087.225.737 1.699 1.55 1.863.987.149 1.699-.363 2.237-1.337-.076-.563-.163-1.112-.388-1.65-.237-.587-.124-1.25-.087-1.85m-.425 4.661c.663.812 1.337 1.275 1.9 1.175 1.274-.213 2.474-1.399 1.924-3.025a41.24 41.24 0 0 1-.675-2.287m.163 4.649c.587.913 1.637 1.3 3.237 1.075m-39.866-3.787c1.499 1.513 3.725 1.288 5.511-2.024.987-3.137 2.112-5.736 3.324-8.411m-6.123 11.21c.137.787.6 1.575 1.299 2.375 1.738.625 3.238.025 4.525-1.725 1.575-4.761 2.462-8.085 3.749-10.435m-5.699 12.16c1.05 1.512 2.325 1.524 4.149.812.775-.3 1.237-.899 1.5-1.425.625-1.537 1.062-3.274 1.3-4.861.362-2.549 1.425-4.286 2.112-5.911M53.001 77.97c.112.513.549.863 1.337 1.038.862.25 1.787.2 2.762 0 .925-.113 1.437-.863 1.675-1.987.711-4.587 1.525-8.148 2.462-10.348m-3.063 11.772c1.674 1.024 3.137.736 4.361-1.163a13.95 13.95 0 0 0 .513-2.899c.175-2.411.399-4.349.688-5.636m-3.4 10.297c.325 2.424 2.862 2.5 4.699.513.263-.451.413-.987.337-1.675l.263-2.9.338-3.736c.087-.488.312-.687.524-.912m-2.974 10.31c0 .401.062.8.176 1.2.875 1.013 1.649 1.424 2.412 1.725 1.237-.2 1.912-.962 2.236-2.062-.112-2.674.162-5.062.525-7.374l.299-1.25m-2.636 10.648c-.125.662.638 1.312 1.687 1.975 1.062.725 2.125.262 3.187-.95.226-.699.226-1.387.175-2.149-.162-2.762.225-5.023.338-7.548M69.947 85.73c1.362 1.95 3.299 1.775 4.561-.175.337-3.061.038-6.124-.087-9.185m-.55 10.048c1.337 1.449 3.474 1.224 4.436-1.725-.213-2.725-.638-5.236-1.3-7.499m.95 8.274c1.388.925 2.25.075 3.275-.262a61.788 61.788 0 0 0-1.2-7.761m-42.153 18.62c1.775-1.224 2.974-2.611 3.611-4.174 1.375-6.099 3.012-10.96 4.837-14.997m-.475 36.543c2.637-3.712 4.799-8.311 5.949-14.784 1.237-7.436 2.836-13.634 4.787-19.57m.075 21.682c.725-8.323 2.037-15.271 3.887-20.983m1.373 14.821c.188-4.723.887-8.847 1.775-12.759m12.11 5.386a27.025 27.025 0 0 0 1.038 5.173m-38.929 12.673c1.613-.888 3.024-2.225 4.187-4.137 2.487-7.673 4.524-15.346 7.673-23.02m-10.648 34.006c3.774-2.312 6.511-7.161 8.36-14.135 1.337-6.772 3.324-13.184 5.686-19.395m11.636 16.171c.412-.487.662-1.074.825-2.024-.037-3.012.338-5.974.649-8.973m1.849 11.859c.838-.712 1.4-1.524 1.55-2.461l-.213-7.111m3.362 1.162c.138 2.725.462 5.287-.262 8.873m-24.357-33.83c1.025.226 2.162.113 3.412-.349.812-.825 1.812-1.938 2.524-3.425a32.964 32.964 0 0 1 2.213-3.849" fill="none" stroke="#000" stroke-width=".127" stroke-linejoin="bevel" stroke-miterlimit="2.613"/><path d="M83.793 54.675c-.138 1.75-.625 3.587-1.413 5.499l1.1-.124c-.6 2.011-1.725 3.486-2.987 4.823l1.162.487c-.112 2.012.237 3.711 1.1 5.074-.925 3.237-1.413 6.611-.863 10.323-2.661 3.075-3.986 6.149-4.398 9.223l-.675.188-1.699 6.598c-.613.925-1.225 1.6-1.837 2.2.987.023 2.024-.289 3.174-1.4-.887 1.361-.787 2.587-.487 3.786 1.149-.337 1.962-1.012 2.624-1.836-.35 1.661.225 2.924 1.038 4.086.425-2.337 1.062-3.711 1.962-3.962l.237 1.4c1.35-1.912 2.687-3.463 4.037-4.399 2.599-1.237 4.424-3.262 6.173-5.374.325.649.65 1.224.975 1.712.612-.413 1-.812 1.288-1.225a9.998 9.998 0 0 0 1.824 3.424c.7-.987 1.351-2.037 1.712-3.362.449.476.9.851 1.35 1.163.264-.437.525-.938.789-1.524 2.123 2.224 4.234 3.799 6.359 5.186l.113-.55c1.711 1.274 3.199 2.887 4.586 4.648l.062-1.412c1.074.588 1.85 1.688 1.949 3.911.951-.649 1.363-2.023 1.35-3.974.875.85 1.75 1.375 2.625 1.412.188-.899.113-1.874-.188-2.937.875.487 1.75.725 2.625.737l-1.588-1.899c-1.076-2.962-2.049-6.273-3.537-8.186-.324-2.937-2.449-5.486-4.461-8.061.562-3.75-.062-6.961-1.287-9.898.85-1.487 1.199-3.324.924-5.624l1.164-.425c-2.062-1.6-3.139-3.3-3.426-5.074l1.225.313c-.898-1.737-1.512-3.462-1.6-5.199l-.6-4.274-7.148-1.162-1.898 2.262-.3.8c-1.012 1.974-1.288 3.949-1.163 5.923l.851-.188c-.513 1.15-.913 2.461-1.1 4.1-.35-1.663-.775-3.024-1.276-4.037l.788.062c.188-2.324-.337-4.249-1.275-5.923l-2.574-3.487-6.474 2.874-.912 3.302z" fill-rule="evenodd" clip-rule="evenodd" fill="#fff" stroke="#000" stroke-width=".127" stroke-linejoin="bevel" stroke-miterlimit="2.613"/><path d="M85.955 55.088c-.112 2.037.263 3.686 1.288 4.824 1.112-1.788 1.625-3.562 1.812-5.349-.012 2.025.663 3.662 1.787 4.549.913-1.263 1.038-3.325.801-5.499.399 1.85 1.262 3.274 2.562 4.212m-10.749 2.262c1.362-.962 2.362-2.437 2.587-4.999m10.597 2.661c1.112-1.062 2.012-2.474 2.674-4.223-.4 1.924-.023 3.849.949 5.786.826-1.437 1.414-3.024 1.551-4.924.051 1.725.674 3.474 2.088 5.199.637-1.525 1.061-3.075 1.012-4.586-.113 1.774.725 3.198 2.41 4.311" fill="none" stroke="#000" stroke-width=".127" stroke-linejoin="bevel" stroke-miterlimit="2.613"/><path d="M94.966 52.201c-.975-1.475-1.8-3.075-2.612-4.699a3.72 3.72 0 0 0-1.238-1.287 4.79 4.79 0 0 0 2.3-.687c-6.898-3.475-11.561-4.149-14.109-2.137l.862 1.337c2.036.399 4.286.611 6.624.737l-2.725.112-1.174 1.388c.774.388 1.249.887 1.337 1.549-.237.587-.763.812-1.55.7-.649.125-1.175.325-1.399.75 2.537.75 3.224 2.199 1.399 4.637.325.1.7.15 1.175.112.625-.574 1.062-1.3 1.112-2.3.149.925.5 1.85 1.075 2.774.825-1.5 1.087-2.824 1.062-4.049.175 1.2.725 2.35 1.875 3.412.587-1.263.638-2.524.375-3.787.437 1.138 1.025 2.188 2.187 2.874.288-.962.375-2.111.375-3.361.449 1.412 1.699 1.725 3.049 1.925z" fill-rule="evenodd" clip-rule="evenodd" fill="#fff" stroke="#000" stroke-width=".127" stroke-linejoin="bevel" stroke-miterlimit="2.613"/><path d="M75.946 48.889c-1.513-1.999-2.5-3.924 1.924-4.862.437-.412.912-.662 1.437-.587.625.862 1.212 1.712.75 2.187.949.525 1.887 1.012 2.837 1.337.6.288 1.137.675 1.337 1.5-.188.625-.737.837-1.55.75-.638.101-1.175.275-1.237.75-1.112.237-2.236.775-3.361 1.325-.013-1.463 1.399-2.4 4.062-2.875-.55-1.188-2.324-1.762-5.974-1.538-.451.626-.476 1.25-.225 2.013z" fill-rule="evenodd" clip-rule="evenodd" fill="#eebd31" stroke="#000" stroke-width=".127" stroke-linejoin="bevel" stroke-miterlimit="2.613"/><path d="M80.02 45.666c-.788.087-2.175-1.087-2.126-1.675" fill="none" stroke="#000" stroke-width=".127" stroke-linejoin="bevel" stroke-miterlimit="2.613"/><path d="M81.394 47.652c-2.562-.138-3.599.562-4.324 1.312 1.388-.237 2.824-.625 3.799-.288.55-.112 1-.225 1.325-.212-.288-.537-.563-.812-.8-.812z" fill-rule="evenodd" clip-rule="evenodd" fill="#cf432a" stroke="#000" stroke-width=".127" stroke-linejoin="bevel" stroke-miterlimit="2.613"/><path d="M80.157 44.766c.087.35.101.649-.112.849.975.588 1.837 1.063 2.874 1.35.274-.388.725-.913 1.15-1.375l2.624-.138a61.106 61.106 0 0 1-6.536-.686z" fill-rule="evenodd" clip-rule="evenodd" stroke="#000" stroke-width=".127" stroke-linejoin="bevel" stroke-miterlimit="2.613"/><path d="M81.232 44.928c0 .5.062.987.287 1.399 1.487 1.125 1.912-.162 2.524-1.049l-.888-.113c.088.475-.162.675-.649.725-.512-.238-.613-.5-.688-.85-.199-.038-.599-.112-.586-.112zM95.84 52.063c.963-1.474 1.801-3.074 2.611-4.699.34-.574.752-.987 1.227-1.287-.764-.025-1.525-.238-2.287-.688 6.887-3.474 11.559-4.149 14.096-2.137l-.85 1.325c-2.049.412-4.299.625-6.623.75l2.725.113 1.174 1.387c-.787.388-1.262.887-1.336 1.55.236.587.748.812 1.549.699.65.125 1.174.325 1.387.737-2.523.75-3.223 2.212-1.387 4.649-.324.1-.713.15-1.176.112-.623-.575-1.061-1.3-1.123-2.299-.15.924-.5 1.849-1.062 2.774-.838-1.5-1.1-2.824-1.074-4.061-.162 1.212-.713 2.362-1.875 3.424-.574-1.262-.637-2.525-.375-3.787-.438 1.138-1.012 2.187-2.188 2.875-.273-.962-.375-2.112-.375-3.361-.439 1.412-1.7 1.724-3.038 1.924z" fill-rule="evenodd" clip-rule="evenodd" fill="#fff" stroke="#000" stroke-width=".127" stroke-linejoin="bevel" stroke-miterlimit="2.613"/><path d="M114.861 48.752c1.5-2.012 2.486-3.924-1.924-4.861-.451-.413-.926-.663-1.451-.588-.625.862-1.211 1.712-.75 2.187-.938.524-1.887 1.012-2.824 1.337-.611.287-1.148.675-1.336 1.499.188.626.736.837 1.549.75.637.1 1.162.263 1.225.737 1.125.25 2.25.787 3.375 1.337 0-1.462-1.412-2.399-4.062-2.887.537-1.175 2.312-1.75 5.975-1.524.448.625.473 1.251.223 2.013z" fill-rule="evenodd" clip-rule="evenodd" fill="#eebd31" stroke="#000" stroke-width=".127" stroke-linejoin="bevel" stroke-miterlimit="2.613"/><path d="M110.787 45.528c.787.087 2.162-1.087 2.111-1.675" fill="none" stroke="#000" stroke-width=".127" stroke-linejoin="bevel" stroke-miterlimit="2.613"/><path d="M109.412 47.514c2.549-.137 3.586.563 4.312 1.312-1.389-.237-2.824-.625-3.787-.287-.551-.113-1-.225-1.338-.213.301-.537.563-.824.813-.812z" fill-rule="evenodd" clip-rule="evenodd" fill="#cf432a" stroke="#000" stroke-width=".127" stroke-linejoin="bevel" stroke-miterlimit="2.613"/><path d="M110.637 44.627c-.086.35-.086.65.113.85-.963.587-1.826 1.062-2.875 1.35-.275-.387-.725-.912-1.137-1.375l-2.637-.137a60.773 60.773 0 0 0 6.536-.688z" fill-rule="evenodd" clip-rule="evenodd" stroke="#000" stroke-width=".127" stroke-linejoin="bevel" stroke-miterlimit="2.613"/><path d="M109.562 44.791c0 .5-.062.975-.287 1.399-1.475 1.124-1.912-.163-2.512-1.049l.875-.113c-.088.476.162.675.648.726.514-.238.625-.5.701-.85.201-.039.587-.113.575-.113z" fill-rule="evenodd" clip-rule="evenodd" fill="#fff" stroke="#000" stroke-width=".127" stroke-linejoin="bevel" stroke-miterlimit="2.613"/><path d="M81.732 65.335c2.836-.975 4.623-2.937 5.423-5.511-.037 1.812.55 3.625 1.637 5.424.925-2.124 1.6-4.25 2.075-6.374.6 2.662 2.349 4.661 4.549 6.186m-.051.051c1.926-.875 3.662-2.975 4.898-5.887.338 2.025 1.188 3.849 2.676 5.424.648-1.662.963-3.336.938-4.999 1.449 3.049 3.336 4.762 5.697 5.086m-14.058-2.924l-.088 3.187m-11.809-.525l1.387 2.762c1.125-.975 2.112-2.075 3.012-3.273m1.124.599c1.087 2.412 2.212 4.836 4.049 7.248 1.225-1.737 1.85-4.073 2.162-6.723m-1.962-1.838c-.837 1.763-1.862 3.312-2.699 4.162l-2.85 4.648c-.837 1.7-2.011 3.162-3.523 4.399.062-2.449-.675-4.299-1.562-6.036m.087.001l1.987-3.524m.6.163c.612 1.937 1.437 3.573 2.499 4.835.675 1.812 1.425 3.474 2.337 4.824 1.2-1.411 2.175-3.049 2.924-4.911.613 2 1.438 3.675 2.5 4.999a21.96 21.96 0 0 0 2.674-5.087c.713 2.25 1.801 3.763 3.188 4.649m-6.012-11.272c.386 2.537 1.162 4.861 2.836 6.687.9-1.4 1.688-2.85 2.301-4.387a78.87 78.87 0 0 0 2.836 4.387 33.697 33.697 0 0 0 2.512-4.974c1.275 1.037 2.199 2.199 2.625 3.524m-10.786-7.124c.525 1.2 1.5 2.749 2.861 4.237l1.613-3.375m1.075-.475l2.676 3.262 1.387-2.837m-25.52 16.859c1.337-1.337 2.524-3.175 3.587-5.349.049 1.975.362 3.95 1.112 5.936 1.375-1.399 2.487-3.125 3.424-5.086m.437.05c-.087 1.837-.075 3.675.588 5.512.8-.513 1.45-1.325 1.974-2.399l1.712-3.749m1.662-.001c-.425 0 1.861 4.073 4.012 5.985.611-1.987.699-3.874.586-5.723m.588.212l1.662-4.699m-1.498 4.325c.311 1.624 1.648 3.324 3.16 5.086.826-1.55 1.412-3.474 1.812-5.024.576 1.562 1.574 3.175 3 4.175m-5.937-8.724c.676 1.562 1.662 3.062 3.051 4.486.1-2.212.674-4.024 1.762-5.399M86.605 81.307c-.9 2.025-1.288 4.136-1.337 6.311 2.449-1.424 4.537-3.199 5.999-5.611-.662 1.861-.562 3.936.05 5.811 1.736-1.024 3.249-2.736 4.136-4.611m-9.698.399c-1.288 1.524-2.574 2.612-3.862 3.162 0-2.562-.062-4.524.063-5.948m11.123-1.126l2.737 3.961 2.562-3.961m-2.15 3.475c.913 1.662 2.862 3.123 4.698 4.349.039-1.725.213-3.586-.336-5.599 1.088 2.525 3.111 3.837 5.5 4.788.148-1.938-.027-3.887-1.025-5.824m-27.583 9.109c.187.4.612.775 1.362.887l1.824-2.449 1.225-1.663m-1.012 5.575c1.537-.363 2.5-1.275 3.262-2.262l1.175-2.413m-2.024 6.85c3.173-1.176 5.635-3.887 7.811-7.224m14.77-4.387c1.201 1.262 2.537 2.387 4.162 3.212l-.1-5.773M78.844 90.892c-1.512 1.9-2.361 4.237-2.462 6.686 1.787-.962 4.049-3.111 6.124-5.923-1.8 1.924-3.162 4.523-3.287 6.873 1.538-.175 3.162-1.725 4.562-4.162-1.175 1.7-2.125 3.599-2.15 5.287m-1.075-11.01c-.062 1.362-.037 2.662.325 3.736m5.249.588c-.262 1.162-.312 2.324 0 3.486m5.724-9.047c-.137 1.299-.137 2.599.163 3.912m1.712-5.513c.388 1.112 1 2.237 1.812 3.363l1.125-.051a77.86 77.86 0 0 0 1.762-3.424m-4.112 6.049l1.225-2.574h1.237l1.087 2.662m2.174-.301c.275-1.25.562-2.737.414-4.274m14.084 1.537l-.537 1.4c-1.988-.95-3.287-2.338-4.012-4.125.998 1.762 1.486 3.9 1.498 6.361-2.85-1.861-4.262-3.736-5.461-5.611 1.637 2.387 2.713 4.875 2.625 7.548-2-1.012-5-4.049-7.674-7.273 3.15 3.312 5.799 6.623 5.537 9.035m2.186-1.711c1.389 1.3 2.375 2.862 2.463 5.023m2.961-9.422c.852 1.961 2.188 5.174 2.75 7.71-2.012-.699-4.074-3.273-5.387-5.398 1.238 1.537 2.176 3.412 2.412 6.099-2.311-.987-3.898-2.398-5.199-3.961m-25.393.012c-.062-1.4.2-2.875.837-4.424m-5.561 9.434l.637-1.012m34.679-.099l.477.861M48.389 61.961c1.025.212 2.162.112 3.412-.35.812-.826 1.812-1.951 2.525-3.425a31.516 31.516 0 0 1 2.211-3.86" fill="none" stroke="#000" stroke-width=".127" stroke-linejoin="bevel" stroke-miterlimit="2.613"/></svg>