<svg xmlns="http://www.w3.org/2000/svg" width="2500" height="2500" viewBox="0 0 192.756 192.756"><g fill-rule="evenodd" clip-rule="evenodd"><path fill="#fff" d="M0 0h192.756v192.756H0V0z"/><path d="M22.777 83.153v.542c-1.42 0-1.556.203-2.165 1.894l-4.33 12.988h-.541L9.857 83.694H8.504v-.542h6.562v.542h-1.827l3.856 10.35 2.977-8.997c.203-.676.203-.676.203-.812 0-.271-.135-.474-.406-.474-.067-.067-.541-.067-.608-.067h-.88v-.542h4.396v.001z" fill="#173863"/><path d="M20.004 89.106c1.286 0 2.503 0 3.721-.203v1.894c.203-.338.338-.676.609-.947.406-.609.947-1.015 1.759-1.015 1.15 0 1.624 1.015 1.624 1.827 0 .608-.271 1.488-1.217 1.488-.812 0-1.218-.609-1.218-1.285 0-.406.135-.609.203-.812.068-.067.135-.135.135-.203 0-.135-.135-.203-.271-.203-.271 0-.879.879-.879.879-.609.947-.744 2.165-.744 3.044v4.126h1.556v.608h-5.277v-.608h1.286v-7.982h-1.286v-.608h-.001zM34.142 93.503c0 2.165 0 4.6-1.894 4.6-.879 0-1.42-.608-1.624-1.082-.135-.338-.338-.812-.338-3.382 0-1.961 0-4.194 1.894-4.194.812 0 1.42.406 1.691 1.149.136.339.271.609.271 2.909zm2.639 0c-.203-3.45-2.774-4.667-4.533-4.667-1.961 0-4.667 1.42-4.667 4.803 0 2.502 1.556 4.871 4.735 4.871 2.773 0 3.923-2.097 4.194-2.977.271-.609.271-1.353.271-2.03zM44.357 93.503c.068 2.165.068 4.6-1.894 4.6-.879 0-1.42-.608-1.624-1.082-.203-.338-.406-.812-.406-3.382 0-1.961.068-4.194 1.962-4.194.812 0 1.421.406 1.691 1.149.136.339.271.609.271 2.909zm2.706 0c-.203-3.45-2.841-4.667-4.6-4.667-2.03 0-4.735 1.42-4.735 4.803 0 2.502 1.623 4.871 4.802 4.871 2.841 0 3.992-2.097 4.262-2.977.204-.609.271-1.353.271-2.03zM47.266 89.106c2.367 0 2.773 0 3.923-.203v1.624c.609-.744 1.353-1.691 2.976-1.691 1.895 0 2.368.947 2.842 1.894.338-.542 1.082-1.894 3.111-1.894 2.706 0 2.774 1.961 2.841 3.112v5.75h1.218v.608H59.24v-.608h1.15v-5.683c0-1.082 0-2.165-1.218-2.165-.406 0-.947.271-1.353.676-.744.744-.812 1.759-.812 2.909v4.262h1.285v.608h-4.871v-.608h1.083V92.15c0-1.217-.136-2.3-1.218-2.3-.609 0-1.15.338-1.488.812-.541.676-.541 1.353-.609 2.435v4.6h1.285v.608h-5.208v-.608h1.353v-7.982h-1.353v-.609zM94.958 83.424c.879 0 1.826.135 2.57 1.488.203.406.541 1.083.678 3.653 0 .542.066 1.286.066 2.098 0 1.353-.066 2.638-.27 3.923-.406 2.571-1.759 3.112-3.315 3.112h-2.232V83.424h2.503zm-7.104 14.882h7.17c1.759 0 4.127-.067 5.616-3.382.811-1.624.879-3.112.879-4.127 0-2.638-.676-5.276-2.57-6.832-1.354-1.083-2.639-1.083-3.992-1.15h-7.103v.609h1.691v14.273h-1.691v.609zM101.926 89.106c1.285 0 2.502 0 3.787-.203l-.066 1.894c.201-.338.338-.676.607-.947.406-.609.947-1.015 1.76-1.015 1.15 0 1.691 1.015 1.691 1.827 0 .608-.338 1.488-1.285 1.488-.812 0-1.219-.609-1.219-1.285 0-.406.135-.609.203-.812.068-.067.135-.135.135-.203 0-.135-.135-.203-.27-.203-.271 0-.879.879-.879.879-.609.947-.744 2.165-.744 3.044v4.126h1.555v.608h-5.275v-.608h1.285v-7.982h-1.285v-.608zM115.59 92.488h-2.908V91.27c.066-.879.203-1.894 1.555-1.894 1.219 0 1.285 1.083 1.354 1.827v1.285h-.001zm1.894 3.044c-.475.812-1.285 2.3-2.842 2.3-1.961 0-1.961-2.164-2.029-2.976v-1.759h5.48c-.137-.947-.271-1.961-1.016-2.909-.744-.879-1.826-1.353-2.842-1.353-2.502 0-4.193 2.097-4.193 4.871 0 2.638 1.623 4.87 4.33 4.87 2.299 0 3.178-1.826 3.584-2.841l-.472-.203zM124.654 92.488h-2.908l.068-1.218c.066-.879.201-1.894 1.488-1.894 1.285 0 1.285 1.083 1.352 1.827v1.285zm1.963 3.044c-.475.812-1.285 2.3-2.91 2.3-1.893 0-1.961-2.164-1.961-2.976v-1.759h5.412c-.137-.947-.271-1.961-1.016-2.909-.744-.879-1.758-1.353-2.84-1.353-2.436 0-4.195 2.097-4.195 4.871 0 2.638 1.691 4.87 4.33 4.87 2.299 0 3.18-1.826 3.652-2.841l-.472-.203zM134.057 91.541h-.541c-.135-.541-.27-1.082-.811-1.556-.406-.338-1.016-.474-1.488-.474-.812 0-1.42.609-1.42 1.285 0 .271.135.677.404.88.137.135.812.406 1.354.608l.609.136c.947.338 2.502.812 2.502 2.841 0 1.421-.947 3.314-3.111 3.314-.879 0-1.623-.474-1.691-.541-.338-.203-.541-.338-.676-.338-.338 0-.338.405-.271.608h-.609v-3.382h.609c.068.744.203 1.556.881 2.232.473.541 1.217.812 1.826.812 1.082 0 1.689-.744 1.689-1.421 0-1.15-1.42-1.353-2.23-1.623-1.285-.474-2.639-.947-2.639-3.112 0-1.42.744-2.976 2.639-2.976.676 0 1.217.271 1.555.473.203.136.271.136.475.136.338 0 .338-.203.404-.677h.541v2.775h-.001zM135.41 89.106c2.367 0 2.773 0 3.924-.203v1.624c.609-.744 1.354-1.691 2.977-1.691 1.826 0 2.301.947 2.773 1.894.338-.542 1.082-1.894 3.111-1.894 2.639 0 2.707 1.961 2.773 3.112v5.75h1.219v.608h-4.871v-.608h1.082v-5.683c0-1.082 0-2.165-1.15-2.165-.473 0-.945.271-1.352.676-.744.744-.812 1.759-.812 2.909v4.262h1.219v.608h-4.805v-.608h1.15V92.15c0-1.217-.135-2.3-1.217-2.3-.609 0-1.15.338-1.488.812-.541.676-.541 1.353-.609 2.435v4.6h1.285v.608h-5.209v-.608h1.354v-7.982h-1.354v-.609zM157.869 95.127c0 .541.068 1.217-.541 1.759-.203.202-.541.338-.879.338-.678 0-1.354-.541-1.354-1.691 0-1.894 1.76-2.029 2.773-2.097v1.691h.001zm0-2.3c-1.217.135-2.842.271-3.99 1.15-.881.744-1.15 1.624-1.15 2.3 0 .744.27 2.232 2.367 2.232 1.557 0 2.367-1.015 2.773-1.488.271.541.744 1.488 1.895 1.488.947 0 1.623-.677 1.961-1.082l-.338-.474c-.135.135-.338.338-.607.338-.475 0-.475-.677-.475-1.15v-4.396c0-.812 0-1.826-1.354-2.503-.607-.271-1.285-.406-2.029-.406-1.961 0-3.518 1.015-3.518 2.435 0 .677.475 1.218 1.15 1.218s1.15-.609 1.15-1.285c0-.135-.068-.271-.135-.406-.068-.203-.203-.338-.203-.473-.068-.136-.068-.136-.068-.271 0-.203.271-.608 1.217-.608 1.354 0 1.354.744 1.354 1.624v1.757zM162.672 89.106c1.15 0 2.232-.135 3.654-.203v1.624c.404-.541.744-.947 1.555-1.353a3.078 3.078 0 0 1 2.504-.135c1.555.473 1.555 1.894 1.555 2.841v5.818h1.219v.608h-4.668v-.608h1.082v-5.412c0-1.217 0-2.435-1.15-2.435-.676 0-1.758.744-2.029 2.029-.066.338-.066.744-.066 1.759v4.059h1.217v.608h-4.871v-.608h1.285v-7.982h-1.285v-.61h-.002zM173.768 89.106c1.148 0 2.23-.135 3.652-.203v1.624c.406-.541.744-.947 1.488-1.353.609-.271 1.082-.338 1.488-.338.135 0 .541 0 1.082.203 1.557.473 1.557 1.894 1.557 2.841v5.818h1.217v.608h-4.668v-.608h1.082v-5.412c0-1.217 0-2.435-1.148-2.435-.678 0-1.76.744-2.031 2.029-.066.338-.066.744-.066 1.759v4.059h1.217v.608h-4.869v-.608h1.285v-7.982h-1.285v-.61h-.001zM62.554 103.109h1.895l1.285 5.141 1.352-5.141h1.827l-2.3 7.036h-1.826l-2.233-7.036zM70.739 107.032c0-.271 0-1.285.812-1.285.744 0 .88.609.88 1.285h-1.692zm3.248.474c0-2.706-1.895-2.706-2.436-2.706-1.556 0-2.436 1.285-2.436 2.706 0 1.556.88 2.706 2.841 2.706.542 0 1.218-.136 1.759-.271l-.068-1.218c-.406.203-1.015.406-1.556.406-.947 0-1.353-.609-1.353-1.218h3.248v-.405h.001zM75.001 105.95c0-.474-.068-.812-.068-1.082h1.556v.946h.067c.338-.541.541-1.015 1.488-1.015h.271v1.488c-.203-.067-.338-.067-.541-.067-1.015 0-1.083.812-1.083 1.556v2.368H75v-4.194h.001zM79.195 104.868h3.789v1.285l-2.029 2.774h2.096v1.218h-3.924v-1.354l2.098-2.706h-2.03v-1.217zM85.148 107.032c0-.271 0-1.285.812-1.285.744 0 .879.609.879 1.285h-1.691zm3.248.474c0-2.706-1.894-2.706-2.435-2.706-1.556 0-2.436 1.285-2.436 2.706 0 1.556.879 2.706 2.841 2.706.541 0 1.217-.136 1.759-.271l-.068-1.218c-.406.203-1.015.406-1.556.406-.947 0-1.353-.609-1.353-1.218h3.247v-.405h.001zM89.14 102.567h1.691v4.465l1.42-2.164h1.759l-1.759 2.435 1.895 2.842h-1.895l-1.42-2.503v2.503H89.14v-7.578zM96.31 107.032c0-.271 0-1.285.813-1.285.742 0 .879.609.879 1.285H96.31zm3.247.474c0-2.706-1.893-2.706-2.434-2.706-1.557 0-2.436 1.285-2.436 2.706 0 1.556.879 2.706 2.84 2.706.541 0 1.219-.136 1.76-.271l-.068-1.218c-.406.203-1.014.406-1.555.406-.948 0-1.354-.609-1.354-1.218h3.247v-.405zM100.572 105.95c0-.474-.068-.812-.068-1.082h1.557v.946h.068c.338-.541.541-1.015 1.488-1.015h.27v1.488c-.203-.067-.338-.067-.541-.067-1.014 0-1.082.812-1.082 1.556v2.368h-1.691v-4.194h-.001zM104.766 104.868h1.691v5.276h-1.691v-5.276zm0-2.301h1.691v1.421h-1.691v-1.421zM110.719 106.897c0-.677-.338-.812-.676-.812-.541 0-.676.406-.676 1.083v2.977h-1.691v-4.194c0-.474 0-.812-.068-1.082h1.557v.879h.066c.203-.608.678-.947 1.557-.947 1.217 0 1.623.812 1.623 1.895v3.45h-1.691v-3.249h-.001zM115.184 107.506c0-.541.068-1.556.812-1.556.676 0 .811.947.811 1.556 0 .744-.135 1.488-.811 1.488-.744 0-.812-1.082-.812-1.488zm3.314-1.488c0-.608.068-.879.068-1.149h-1.623v.812h-.068c-.135-.271-.473-.88-1.488-.88-1.217 0-1.961 1.015-1.961 2.706 0 1.962 1.014 2.639 1.961 2.639s1.354-.677 1.488-.947c0 1.082-.068 2.029-1.354 2.029-.811 0-1.488-.338-1.758-.474l-.068 1.285c.541.203 1.219.339 2.029.339 2.773 0 2.773-2.098 2.773-2.909v-3.451h.001zM121.137 107.032c0-.271 0-1.285.879-1.285.678 0 .881.609.881 1.285h-1.76zm3.314.474c0-2.706-1.961-2.706-2.436-2.706-1.555 0-2.436 1.285-2.436 2.706 0 1.556.812 2.706 2.775 2.706.607 0 1.217-.136 1.758-.271v-1.218c-.406.203-1.014.406-1.555.406-.947 0-1.422-.609-1.422-1.218h3.314v-.405h.002zM128.51 106.897c0-.677-.338-.812-.676-.812-.541 0-.744.406-.744 1.083v2.977h-1.691v-4.194-1.082h1.488c.068.202.068.541.068.879.27-.608.676-.947 1.555-.947 1.287 0 1.691.812 1.691 1.895v3.45h-1.691v-3.249zM73.175 88.362c.812 2.3 1.759 4.667 2.841 6.833-.609.88-1.556 2.097-2.706 2.097-1.623-.135-3.044-2.706-2.841-4.667 0-1.963.879-3.519 2.706-4.263zm10.756 6.629c-.203.744-.947 1.759-1.826 1.759-1.691 0-2.706-2.977-3.382-4.194.744-1.15 1.759-2.165 2.165-2.165.135 0 .203.068.203.135-.135.271-.135.542-.135.947 0 .947.744 1.556 1.691 1.556 1.083 0 1.962-.608 1.962-2.029 0-1.015-.812-1.961-1.962-1.961-1.488 0-2.638 1.217-4.126 3.044-.812-1.624-1.421-3.247-2.029-4.938 1.42-.609 3.518-1.894 3.518-3.789 0-1.894-1.353-2.976-3.112-2.976-2.706 0-4.262 2.368-4.262 4.871 0 .879.135 1.827.406 2.706-2.773 1.353-6.088 2.638-6.088 6.359 0 2.299 1.962 4.397 4.194 4.397 1.961 0 3.653-1.15 5.141-3.044 1.083 2.097 2.3 3.044 3.924 3.044 1.894 0 3.585-1.826 4.126-3.585l-.408-.137zm-4.397-11.77c0 1.826-1.826 2.841-3.247 3.518-.406-1.083-.812-2.706-.812-3.721 0-1.15.541-2.165 1.826-2.165 1.353 0 2.233 1.083 2.233 2.368z" fill="#173863"/></g></svg>