<svg xmlns="http://www.w3.org/2000/svg" width="2500" height="2500" viewBox="0 0 192.756 192.756"><path fill-rule="evenodd" clip-rule="evenodd" fill="#fff" d="M0 0h192.756v192.756H0V0z"/><path fill-rule="evenodd" clip-rule="evenodd" d="M8.504 68.26h175.748v56.237H8.504V68.26z"/><path d="M24.45 115.671l-1.833-7.163h1.578l1.151 4.946 1.45-4.946h1.833l1.364 5.031 1.193-5.031h1.578l-1.876 7.163h-1.663l-1.535-5.329-1.535 5.329H24.45zm8.783-3.539c0-.725.128-1.321.341-1.833.17-.341.426-.683.725-.981.298-.298.64-.511 1.023-.639a4.812 4.812 0 0 1 1.663-.299c1.108 0 2.047.342 2.729.98.682.683 1.023 1.578 1.023 2.729 0 1.193-.341 2.089-1.023 2.729-.682.683-1.578.98-2.729.98s-2.046-.298-2.729-.98c-.682-.639-1.023-1.535-1.023-2.686zm1.621-.042c0 .81.17 1.449.597 1.833.384.427.895.64 1.535.64s1.151-.213 1.535-.597c.384-.427.597-1.066.597-1.876 0-.853-.17-1.45-.597-1.834-.384-.426-.896-.64-1.535-.64s-1.151.214-1.535.64c-.428.384-.597 1.023-.597 1.834zm7.077 3.581v-7.163h2.345l1.407 4.903 1.364-4.903h2.345v7.163h-1.449v-5.628l-1.535 5.628h-1.492l-1.535-5.628v5.628h-1.45zm9.039 0v-7.163h5.713v1.237h-4.179v1.576h3.88v1.194h-3.88v1.962h4.35v1.193H50.97v.001zm7.205 0v-7.163h1.535l3.156 4.775v-4.775h1.45v7.163h-1.578l-3.112-4.647v4.647h-1.451zM72.97 113.369v-1.194h3.369v2.857c-.341.298-.81.554-1.45.767a5.619 5.619 0 0 1-1.876.341c-.811 0-1.493-.17-2.132-.469-.597-.299-1.023-.768-1.322-1.364-.299-.555-.469-1.194-.469-1.919s.17-1.406.512-1.961c.341-.597.81-1.023 1.492-1.365.469-.213 1.108-.34 1.833-.34.98 0 1.706.17 2.26.554s.896.896 1.023 1.578l-1.535.255c-.128-.341-.298-.639-.64-.853a2.13 2.13 0 0 0-1.108-.298c-.683 0-1.236.213-1.621.597-.426.427-.597 1.023-.597 1.791 0 .853.213 1.491.597 1.918.427.427.938.64 1.621.64.298 0 .64-.043.98-.17.341-.128.597-.256.853-.427v-.938h-1.79zm11.768 2.643h-1.706l-.682-1.62h-3.07l-.64 1.62h-1.663l3.027-7.163h1.62l3.114 7.163zm-2.857-2.814l-1.066-2.686-1.066 2.686h2.132zm3.71 2.814v-7.163h3.283c.811 0 1.407.043 1.791.213.384.129.683.342.896.684a1.9 1.9 0 0 1 .341 1.108c0 .554-.17.98-.512 1.321-.341.384-.853.597-1.535.682.341.171.64.385.853.598.213.213.511.597.895 1.151l.938 1.406h-1.876l-1.151-1.577c-.383-.555-.64-.896-.81-1.023a.818.818 0 0 0-.469-.299 3.214 3.214 0 0 0-.768-.085h-.341v2.984h-1.535zm1.535-4.135h1.151c.768 0 1.236-.043 1.407-.086.213-.043.341-.171.468-.299.085-.128.128-.34.128-.554 0-.213-.043-.426-.214-.555-.127-.17-.298-.256-.554-.298-.128 0-.511-.043-1.151-.043h-1.236v1.835h.001zm6.224 4.135v-7.163h2.345l1.408 4.903 1.363-4.903h2.346v7.163h-1.449v-5.628l-1.535 5.628h-1.493l-1.535-5.628v5.628h-1.45zm9.041 0v-7.163h5.713v1.194h-4.18v1.62h3.881v1.193h-3.881v1.962h4.35v1.193h-5.883v.001zm7.205 0v-7.163h1.533l3.156 4.776v-4.776h1.449v7.163h-1.578l-3.111-4.69v4.69h-1.449zm9.55 0v-5.969h-2.303v-1.194h6.139v1.194h-2.303v5.969h-1.533zm4.434-2.345l1.535-.128c.084.469.299.811.555 1.066.297.213.682.298 1.15.298s.811-.085 1.066-.298a.82.82 0 0 0 .383-.683.727.727 0 0 0-.127-.426c-.129-.128-.299-.214-.598-.299-.17-.086-.598-.171-1.193-.342-.854-.17-1.406-.426-1.748-.682-.471-.384-.725-.896-.725-1.449 0-.384.127-.726.34-1.023.215-.299.555-.555.98-.725.385-.171.896-.256 1.494-.256.938 0 1.662.213 2.172.596.471.385.727.938.77 1.578l-1.578.086c-.043-.384-.213-.64-.426-.811s-.555-.256-.938-.256c-.471 0-.811.085-1.066.256-.172.128-.256.256-.256.469 0 .171.084.299.256.427.17.171.639.298 1.365.469.766.171 1.32.342 1.703.512.342.171.641.426.854.725.215.341.299.726.299 1.151 0 .427-.129.811-.385 1.151-.213.384-.598.64-1.021.81-.469.171-1.023.256-1.664.256-.98 0-1.705-.213-2.26-.639-.511-.383-.81-1.022-.937-1.833zM134.111 113.171l1.535-.128c.084.469.297.81.555 1.023.297.213.682.341 1.15.341.512 0 .854-.086 1.109-.299s.383-.426.383-.682a.73.73 0 0 0-.127-.427c-.129-.128-.299-.213-.598-.341-.17-.043-.598-.128-1.236-.299-.854-.17-1.406-.426-1.748-.725-.469-.384-.725-.853-.725-1.406 0-.384.127-.726.342-1.024a1.71 1.71 0 0 1 .979-.724c.385-.172.896-.257 1.492-.257.982 0 1.707.171 2.219.597.467.384.725.896.766 1.578l-1.576.043c-.043-.342-.213-.64-.426-.768-.215-.171-.555-.256-.982-.256-.469 0-.809.085-1.066.256-.168.128-.254.256-.254.426 0 .171.086.342.213.469.213.129.682.299 1.449.47.768.17 1.322.341 1.705.512.342.17.639.426.854.725.213.299.299.682.299 1.151 0 .384-.129.768-.385 1.15-.213.342-.596.641-1.021.811-.471.171-1.025.256-1.707.256-.98 0-1.705-.213-2.26-.64-.513-.426-.81-1.022-.939-1.832zm7.631 2.345v-7.163h1.578v2.814h3.027v-2.814h1.578v7.163h-1.578v-3.155h-3.027v3.155h-1.578zm7.463-3.539c0-.725.127-1.364.383-1.833.17-.384.426-.725.725-.98.299-.299.641-.512.98-.682.471-.172 1.025-.257 1.664-.257 1.15 0 2.047.299 2.729.98.682.641 1.023 1.578 1.023 2.729 0 1.15-.299 2.047-.98 2.729-.684.639-1.621.98-2.73.98-1.15 0-2.088-.342-2.77-.98-.684-.682-1.024-1.578-1.024-2.686zm1.619-.042c0 .81.215 1.406.598 1.833.426.427.938.64 1.576.64a2.09 2.09 0 0 0 1.535-.64c.385-.427.598-1.023.598-1.876 0-.81-.213-1.449-.598-1.834-.383-.426-.895-.596-1.535-.596-.68 0-1.193.213-1.576.596-.383.426-.598 1.024-.598 1.877zm7.121 3.581v-7.163h2.516c.938 0 1.576 0 1.834.085.469.128.852.342 1.15.726.297.341.426.811.426 1.364 0 .469-.086.81-.254 1.108-.172.299-.385.555-.641.725-.299.171-.555.299-.811.341-.385.086-.938.086-1.621.086h-1.021v2.729h-1.578v-.001zm1.578-5.969v2.047h.852c.596 0 1.023-.043 1.236-.129.213-.085.342-.17.469-.341a.852.852 0 0 0 .172-.555 1.04 1.04 0 0 0-.215-.639 1.162 1.162 0 0 0-.639-.341c-.213-.043-.555-.043-1.15-.043h-.725v.001zM168.049 81.903v-4.136h1.834c.342 0 .641 0 .811.085.213.085.385.213.469.384.127.213.17.426.17.639 0 .298-.086.554-.254.768-.215.171-.514.298-.896.383.127.043.256.128.342.171.127.17.297.341.426.555l.725 1.151h-.682l-.555-.853c-.17-.256-.299-.469-.383-.597-.129-.128-.213-.213-.299-.256-.086-.085-.129-.085-.213-.128H168.563v1.833h-.514v.001zm.513-2.302h1.193c.256 0 .469-.042.596-.085.129-.086.256-.128.299-.256a.685.685 0 0 0 .129-.384.68.68 0 0 0-.215-.468c-.127-.129-.383-.213-.682-.213h-1.32v1.406z" fill-rule="evenodd" clip-rule="evenodd" fill="#fff"/><path d="M169.713 75.683a4.44 4.44 0 0 1 3.088 1.241 4.186 4.186 0 0 1 1.299 3.017v.001c0 1.16-.5 2.217-1.301 2.981a4.464 4.464 0 0 1-3.084 1.234h-.004a4.46 4.46 0 0 1-3.104-1.235 4.13 4.13 0 0 1-1.281-2.979v-.002c0-1.181.486-2.246 1.281-3.016a4.434 4.434 0 0 1 3.104-1.242h.002zm0 .672h-.002a3.764 3.764 0 0 0-2.637 1.05 3.512 3.512 0 0 0-1.076 2.536v.002c0 .971.408 1.855 1.074 2.497.67.645 1.6 1.046 2.639 1.046h.004a3.793 3.793 0 0 0 2.623-1.047c.67-.642 1.09-1.526 1.09-2.496v-.003c0-.992-.42-1.887-1.092-2.534a3.773 3.773 0 0 0-2.623-1.051z" fill="#fff"/><path d="M52.908 103.436H46.53l13.179-26.783 13.179 26.783h-6.802l-1.701-3.401h-9.778l-1.699 3.401zm9.352-8.502l-2.551-4.676-2.976 4.676h5.527zM90.67 77.066h5.79v26.88L79.918 90.713v12.819H74.129V76.653L90.67 89.886v-12.82zM30.708 103.532L19.956 77.48h5.79l5.789 13.233 5.376-14.474L42.7 90.713l5.79-13.233h5.789l-11.165 26.052-6.203-13.233-6.203 13.233zM110.107 103.119V77.131h5.789v20.79h8.684v5.198H110.107zm32.254-10.395h-9.098v5.197h9.098v5.198h-14.887V77.131h14.887v5.198h-9.098v5.198h9.098v5.197zm17.369 0h-8.684v5.197h8.684v5.198h-14.473V77.131h14.473v5.198h-8.684v5.198h8.684v5.197z" fill-rule="evenodd" clip-rule="evenodd" fill="#fff"/></svg>