<svg xmlns="http://www.w3.org/2000/svg" width="2500" height="2500" viewBox="0 0 192.756 192.756"><g fill-rule="evenodd" clip-rule="evenodd"><path fill="#fff" d="M0 0h192.756v192.756H0V0z"/><path d="M80.334 101.68c2.807-1.723 3.013-1.822 4.333-2.484 2.064-1.025 3.013-1.324 4.127-1.324 2.022 0 4.333 1.191 5.447 2.781.991 1.391 1.61 3.346 1.61 5.033 0 2.484-1.527 5.166-3.838 6.789-1.32.928-3.219 1.49-6.314 1.92-1.403.166-1.155.133-2.93.529a17.387 17.387 0 0 1-4.045.498c-3.013 0-4.788-.695-6.975-2.781-.248.098-.495.164-.619.23-2.807.994-3.261 1.094-6.026 1.49-1.403.199-1.156.166-4.003.662-1.361.232-2.806.398-3.797.398-4.085 0-6.727-2.418-6.727-6.127 0-2.318 1.32-4.867 3.425-6.656.825-.695 1.403-1.025 3.879-2.35l-7.553.826 1.444-1.754c2.724.033 4.623.066 6.191.066 1.857 0 5.076-.066 9.08-.166v.365c-1.94.264-2.518.396-3.632.793-4.251 1.523-7.718 5.498-7.718 8.775 0 2.748 2.6 4.803 6.149 4.803 1.609 0 3.467-.861 5.283-2.418 2.641-2.252 4.292-5.928 4.292-9.471 0-.895-.042-1.523-.248-2.748l6.232.199c-1.238 2.449-1.816 4.801-1.816 7.219 0 1.92.454 3.244 1.527 4.469 1.403 1.623 3.714 2.75 5.654 2.75 3.838 0 8.089-4.205 8.089-8.047 0-2.814-2.394-5.332-5.035-5.332-1.114 0-2.683.365-4.292.961-.289.133-.619.232-.991.396l-.203-.294zM115.955 99.295c3.053 0 5.406 1.59 5.406 3.643 0 1.094-.578 2.119-1.609 2.814-.578.432-1.734.895-3.633 1.457-.164.066-.453.133-.824.266 1.154-.066.908-.066 2.434-.1 3.344-.1 2.146-.066 3.508-.1 2.725-.066 1.941-.066 2.477-.066l-1.814 1.689c-.867-.066-1.115-.066-2.354-.1-.494 0-.908-.033-2.352-.066-1.857-.033-2.643-.033-3.014-.033l-4.582.033h-7.428c.248 3.244 3.838 5.662 8.295 5.662 2.766 0 6.521-1.291 11.145-3.875l-3.715 4.67c-1.115.232-1.609.266-2.643.266l-4.703-.066c-.496 0-1.156 0-1.693.033-1.816.066-3.26.1-3.426.1-4.994 0-7.842-2.551-7.842-7.021 0-3.311 2.064-6.391 5.408-8.014 1.65-.795 4.002-1.225 6.934-1.225.576 0 .576 0 2.475.066h1.033l2.517-.033zm-13.043 8.742c2.477 0 5.984-.496 8.172-1.158 3.055-.895 4.787-2.352 4.787-4.074 0-1.523-1.691-2.748-3.838-2.748-1.898 0-4.746 1.258-7.057 3.146-1.734 1.457-2.684 3.045-2.848 4.801l.784.033zM125.576 115.223c-.084 0-.33.033-.744.033a29.857 29.857 0 0 0 1.115-5.066c.164-1.258.289-3.047.412-5.332.082-2.02.125-3.807.125-4.9 0-2.385-.125-4.437-.332-5.663-.082-.431-.123-.695-.33-1.258 3.096-.033 3.84-.066 5.943-.232-.205 1.325-.33 1.987-.453 3.146-.371 3.245-.619 7.087-.619 9.901 0 1.191 0 2.219.041 4.338 0 1.523.082 2.186.207 3.08h.371c.082 0 1.486-.1 3.467-.266 1.65-.133 2.889-.266 3.508-.332.123-.031.494-.064.99-.164-.908.992-1.691 2.186-2.352 3.377h-.455c0-.066 0-.133.041-.199 0-.164.041-.297.041-.363 0-.232-.123-.365-.535-.365-1.074-.1-2.6-.131-3.715-.131-1.486 0-2.559.031-3.549.131l-1.033.066-1.072.1-1.072.099zM158.84 99.295c3.055 0 5.406 1.59 5.406 3.643 0 1.094-.578 2.119-1.609 2.814-.578.432-1.734.895-3.633 1.457-.164.066-.453.133-.824.266 1.154-.066.908-.066 2.436-.1 3.342-.1 2.145-.066 3.508-.1 2.723-.066 1.939-.066 2.475-.066l-1.814 1.689c-.867-.066-1.115-.066-2.354-.1-.494 0-.908-.033-2.352-.066-1.857-.033-2.643-.033-3.014-.033l-4.58.033h-7.43c.248 3.244 3.838 5.662 8.295 5.662 2.766 0 6.521-1.291 11.145-3.875l-3.715 4.67c-1.115.232-1.609.266-2.641.266l-4.705-.066c-.496 0-1.156 0-1.693.033-1.814.066-3.26.1-3.424.1-4.994 0-7.842-2.551-7.842-7.021 0-3.311 2.062-6.391 5.406-8.014 1.65-.795 4.002-1.225 6.934-1.225.578 0 .578 0 2.477.066h1.031l2.517-.033zm-13.041 8.742c2.475 0 5.982-.496 8.17-1.158 3.055-.895 4.789-2.352 4.789-4.074 0-1.523-1.693-2.748-3.84-2.748-1.898 0-4.746 1.258-7.057 3.146-1.732 1.457-2.682 3.045-2.848 4.801l.786.033zM184.805 95.785c-1.982 1.391-3.344 2.549-4.375 3.676h1.65l1.031-.033h.99c1.197 0 3.467-.066 5.82-.133l-1.609 1.723c-3.715.098-5.035.131-9.41.131-1.857 2.816-2.643 5.002-2.643 7.352 0 2.186.537 3.576 1.775 4.404 1.072.729 2.518 1.16 4.004 1.16 1.113 0 2.229-.232 3.178-.695.66-.299 1.32-.664 1.939-1.094l.453-.332.455-.297.494-.332c.043-.033.248-.164.496-.33l-1.691 3.973c-1.074.133-2.477.199-4.5.199h-1.154c-.496 0-.949 0-1.445.033-1.773.066-3.096.133-3.26.133-3.344 0-5.283-2.252-5.283-6.094 0-2.715.826-5.629 2.27-8.047h-6.809l1.857-1.721h6.107c.783-1.127 1.857-2.219 3.178-3.312l6.482-.364zM10.578 144.012l2.517-.65 1.759-.975s.623-.352.92-.162c.298.189.271.461.271.461l2.976-.082 1.137-1.027.46-.975-.433-3.652-.325-.082-.135-.514.243-.92 2.111-2.057s.46-2.76 1.407-5.412c0 0 .082-.84.027-1.543s-.027-2.84-.027-2.84l.244-.244v-3.762l1.569-5.195.649-1.488h.46l.541 1.406.217 3.248 1.813 3.814v5.629s.189 4.086.406 4.979c.216.895.406 1.76 1.164 2.273s.92.541.92.541l.487 2.408.352.461.108 3.49 1.11.73 3.058.055 1.705 1.326 2.354-.027s1.271-.406 1.245-.596c-.027-.189.108-1.461.108-1.461l-1.137-2.139-1.677-.648-.46-.623-.298-4.41 1.38-3.059-.162-4.383s-1.164-3.762-1.326-5.223c-.162-1.461-.514-8.523-.514-8.523l.135-1.082.623-1.002.947-.271.054-1.406-1.894-10.986-.217-2.083.19-1.921s.216-.785.974-.244.784.595.784.595 1.11 2.678 1.678 2.977a3.602 3.602 0 0 0 3.112.08c1.353-.595 3.274-2.083 4.167-4.573l.622-1.136.055-1.678s-.108-1.65-.758-2.814l-.814-3.057-.244-2.517.081-1.461-1.001-3.301-1.001-.866-.162-.92s3.247-4.79 3.842-10.688l.542-2.408.487-3.058s.163-6.034-1.055-6.684l-1.11-.027s-.947.433-1.109 1.163c-.162.731-.73 1.895-.73 1.895s-.758 2.272-2.246 3.112c-1.488.839-1.488.271-1.488.271l-.568-1.001s-.649-.676-1.245-.676c-.595 0-1.028-.027-1.082.082-.055.108-.839.893-.947 1.407s-.271 4.546-.271 4.546l.325.568.027 5.602-.433.974s-.136.677-.677.541c-.541-.135-1.678-.866-1.84-.785l-.244-.676.054-.596 1.731.136.108-.352-1.516-1.488-.027-.298 1.488-1.271-.054-.297-2.679-1.705-.298-.677-.162-5.033-.163-.676-.785-1.705-.108-.542-2.462-3.625-.649-.352s-.027-1.136-.162-1.19-.352-.542-.974.081c-.623.623-3.626 3.544-4.925 5.791s-2.571 8.091-2.517 8.578L18.1 65.484s-.406.298.352.676c.758.379.893.217.893.217s.027.623-.568 1.109l1.164-.082.163.189.027.542-1.028 1.001-3.68 1.218-2.922.866s-1.732.298-3.382 3.302c-1.651 3.003-3.924 8.415-3.924 8.415s-2.111 3.41-2.219 4.222c-.108.812-.46 2.571.649 3.572s3.139 2.895 3.139 2.895.135.081.108.379c-.027.297 1.731 1.786 1.731 1.786l.704-.054.324.839s.108.404.136.676c.027.271 3.842 4.816 3.842 4.816l-.487 5.305-.244 3.029.73.596.244 10.553-.433 1.381-.839 4.547.974 2.812v5.061l-.352 1.271-6.549 4.52-.595 1.164.026.975.92.703 3.574.027z" fill="#33a457"/><path d="M27.95 62.02v1.353l-4.925-.433.108.542 3.112.92 1.489.216.108 3.518.812.027.027-3.707 3.301-.433.758-.46.108-.541-2.76.406-1.083-.081-.298-1.38s1.137-.515.785-1.543-.704-1.109-1.245-1.109c-.541 0-1.299.542-1.217 1.191.081.648.27 1.298.92 1.514z" fill="#fff"/><path fill="#fff" d="M24.73 64.916l-.379-.082-.027.379.46.839.704.136.784-.461.46-.649-.351-.271-.569.812-.568.027-.514-.73z"/><path d="M29.872 64.943l-.433-.027.027.379.325.73s1.083.271 1.272.135.839-.893.839-.893l1.38-.108.054.325-.704.108s-.893.514-.054 1.028l.108.514-.514.027-.162-.433-1.245.081.054.974h-.244l-.649-.893-.622.054.027 1.705-2.192.054-.027-1.921s-.514-.352-.676-.163c0 0-.298 1.407-.704 1.461-.406.054-.623-.162-.649-.352-.027-.189.081-.568.081-.568l-.217-.271-1.731-.082.108-.216h.244l.244-.487-.217-.676-1.028-1.19-.623-.054-1.488.785-.027.649 1.056.189.027.433-.487.135-.027.541 1.001-.027-.082.487-.947 1.245.352.406 1.137-.704 1.299.785v.271l-1.894.514.324.947 1.759-.325.189.46-1.217 1.082.758.731 1.19-1.272h.92l.054 2.814 1.38.054.108-2.138 1.624.081.054 3.383 1.651-.081-.108-3.951 1.272-.162.162 2.083 1.353-.297-1.055-2.869.243-.433 1.624 1.299h.73l.027-.866-1.326-.947.325-.352.081-.649-.514-1.38 1.191-.054s.054-.379-.595-.812l-.054-.46h.162l.704-.568-.487-.758-2.11.487-.596-.108-.27.298s-.822.803-1.354.271c-.029-.026-.191-.458-.191-.458z" fill="#fff"/><path fill="#33a457" d="M27.598 69.299l-1.19.136-.541.297.027.649 1.65 1.002 2.084.108.974-.677.406-.974.027-.405-.406-.19-1.569.027-.325.433-1.137-.406z"/><path fill="#fff" d="M27.463 69.921l-.541-.026-.406.216.46.243.595.217 1.489.054.812-.244.27-.27-.163-.298-.459-.026-.163.324-1.001.136-.514-.082-.379-.244zM17.586 94.762l1.759 2.734h2.463l.026-2.761-4.248.027zM22.673 94.952l-.027 2.273s.081 1.082.838 1.137c.758.055 2.328.082 2.328.082l.135-1.219s-.568-.027-.677-.027c-.108 0-1.055-.596-1.028-1.109.027-.514.92-1.379 1.813-1.46l.027-.866H24c0-.002-1.191.215-1.327 1.189z"/><path fill="#fff" d="M26.787 94.627l-1.299 1.191-.054.325 1.623 1.38 6.332-.027.704-2.815-7.306-.054zM10.821 95.845v1.542l4.005 5.547.46-.189.163-.486.027-.406-1.516-2.109s-.054-.623.325-.326l2.273 2.896c.325.244 1.163.08.757-.785s-1.705-2.543-1.705-2.543l-.108-.406.217-.217.514.244 2.273 3.166.541.053.352-.648-2.679-3.273.027-.354.46-.053 2.11 2.408c.433.297 1.137-.406.677-.895-.46-.486-2.706-2.57-2.706-2.57s-.054-2.191-1.84-2.543c-1.786-.352-2.598.054-2.598.054l-2.029 1.893zM35.554 92.083s-3.193 11.311-3.653 17.209c-.118 1.514 1.38.703 1.786.162.406-.541.73-1.516.73-1.516l.162-2.488s.731-7.82 2.354-13.178l-.325-.352-1.054.163zM36.474 84.209s-1.407-.055-1.299 1.677c0 0 .623.325.677.785s-.595.596-.595.596-.406.703-.082 1.082c0 0 .596.163.623.406.027.243.027.595-.325.703l-.135.92s.839 1.055 1.353 1.055 1.759-.054 1.759-.054l2.057 1.868s1.109.351 1.759-.055 1.624-2.543 1.624-2.543l.298-.406s.135-.406-.487-.92c-.622-.515-1.786-1.516-1.786-1.516l-.352-1.299.136-.514-.217-.974s-.244-.947-1.624-.974c-1.381-.026-3.384.163-3.384.163z"/><path fill="#33a457" d="M37.691 84.94l-.676.243-.108.65.433.514 1.948.081.568-.379v-.514l-.595-.676-1.57.081zM39.342 86.888l-1.651.027-.541.298-.162.568.433.487 1.921.163.488-.352.081-.541-.569-.65zM39.37 89.053h-1.705l-.515.243-.135.596.433.541 1.922.109.541-.353-.028-.622-.513-.514z"/><path d="M37.61 80.34l-.649 2.218s.649 1.543 1.57.244l.433-.975.974-5.195s.65-5.98.65-7.171c0-1.19.081-5.764.054-6.278s-1.055-1.028-1.164.135c-.108 1.164-.082 5.358-.271 7.279-.189 1.923-1.028 8.39-1.597 9.743z" fill="#fff"/></g></svg>