<svg xmlns="http://www.w3.org/2000/svg" width="2500" height="2500" viewBox="0 0 192.756 192.756"><g fill-rule="evenodd" clip-rule="evenodd"><path fill="#fff" d="M0 0h192.756v192.756H0V0z"/><path d="M173.035 122.922c-1.783 0-2.857 1.348-2.857 3.404s1.256 3.131 2.766 3.131c2.139 0 2.908-2.209 2.838-3.322 0-.842-.111-1.551-.639-2.23-.508-.637-1.297-.983-2.108-.983l-.102-.334c1.904 0 3.84 1.033 3.84 3.465 0 2.26-1.602 3.74-3.861 3.74-2.238 0-3.729-1.42-3.729-3.588 0-2.219 1.652-3.617 3.75-3.617l.102.334zM143.514 122.922c-1.783 0-2.855 1.348-2.855 3.404s1.256 3.131 2.766 3.131c2.137 0 2.908-2.209 2.836-3.322 0-.842-.111-1.551-.639-2.23-.507-.637-1.298-.983-2.108-.983l-.1-.334c1.904 0 3.84 1.033 3.84 3.465 0 2.26-1.602 3.74-3.861 3.74-2.238 0-3.729-1.42-3.729-3.588 0-2.219 1.652-3.617 3.75-3.617l.1.334zM149.9 123.115c.426-.021 1.115-.051 1.49.01.76.121 1.115.578 1.115 1.277 0 .789-.559 1.297-1.299 1.447-.516.102-1.164.062-1.307.051v.387h.385l.811.951 1.197 1.551c.213.283.414.568.637.881.184-.01.387-.029.578-.029.193 0 .375.02.588.029l-.193-.252-.486-.568-2.086-2.645c1.023-.182 2.076-.75 2.076-1.926 0-1.023-.688-1.539-2.248-1.539h-2.148v6.93c.141-.01.293-.029.445-.029.143 0 .283.02.445.029v-6.555zM91.153 123.115c.425-.021 1.115-.051 1.49.01.76.121 1.114.578 1.114 1.277 0 .789-.558 1.297-1.297 1.447-.517.102-1.166.062-1.307.051v.387h.385l.811.951 1.195 1.551c.213.283.416.568.639.881.182-.01.385-.029.577-.029s.375.02.588.029l-.192-.252-.487-.568-2.087-2.645c1.023-.182 2.077-.75 2.077-1.926 0-1.023-.688-1.539-2.249-1.539h-2.148v6.93c.142-.01.294-.029.446-.029.142 0 .283.02.446.029v-6.555h-.001zM122.957 122.922c-1.783 0-2.857 1.348-2.857 3.404s1.256 3.131 2.768 3.131c2.137 0 2.908-2.209 2.836-3.322 0-.842-.111-1.551-.639-2.23-.506-.637-1.297-.983-2.108-.983l-.102-.334c1.906 0 3.842 1.033 3.842 3.465 0 2.26-1.602 3.74-3.861 3.74-2.238 0-3.729-1.42-3.729-3.588 0-2.219 1.652-3.617 3.748-3.617l.102.334zM8.504 122.74c.152.01.314.029.476.029.143 0 .294-.02.466-.029.112.344.203.709.304 1.074l.598 2.057.852 2.674h.091c.648-1.854 1.723-4.943 1.966-5.805.091.01.192.029.294.029.091 0 .182-.02.283-.029.192.719 1.014 3.029 1.926 5.805h.091c.152-.385.284-.77.405-1.154l1.186-3.82.243-.83c.111.01.233.029.355.029.111 0 .223-.02.354-.029-.182.416-.354.852-.506 1.297l-1.936 5.633c-.122-.01-.223-.029-.334-.029-.112 0-.223.02-.334.029-.122-.395-1.195-3.697-1.834-5.684h-.081l-1.966 5.684c-.121-.01-.233-.029-.334-.029-.122 0-.233.02-.345.029-.142-.465-.264-.9-.405-1.336l-1.815-5.595zM19.97 122.74c.142.01.294.029.446.029.142 0 .284-.02.446-.029v6.93c-.162-.01-.304-.029-.446-.029-.152 0-.304.02-.446.029v-6.93zM22.529 128.303c.395.648.851 1.055 1.641 1.055.821 0 1.409-.68 1.409-1.48 0-1.885-3.171-1.055-3.171-3.344 0-1.307 1.033-1.945 2.249-1.945.486 0 1.074.152 1.449.486-.122.264-.192.547-.274.83h-.101c-.213-.547-.659-.881-1.256-.881-.699 0-1.277.467-1.277 1.186 0 1.865 3.192 1.115 3.192 3.273 0 1.449-1.125 2.311-2.503 2.311-.497 0-1.307-.213-1.651-.588.101-.295.152-.598.192-.902h.101v-.001zM33.593 129.215c-.638.426-1.469.578-2.239.578-2.229 0-3.566-1.41-3.566-3.629 0-2.279 1.682-3.576 3.82-3.576.739 0 1.5.172 2.179.467a4.183 4.183 0 0 0-.213.779l-.071.01c-.142-.182-.892-.871-1.936-.871-1.864 0-2.786 1.51-2.786 3.232 0 1.945 1.115 3.191 2.715 3.191 1.095 0 1.946-.648 2.148-.82l-.051.639zM38.587 122.922c-1.784 0-2.857 1.348-2.857 3.404s1.256 3.131 2.766 3.131c2.138 0 2.908-2.209 2.837-3.322 0-.842-.112-1.551-.639-2.23-.506-.637-1.297-.983-2.107-.983l-.102-.334c1.905 0 3.84 1.033 3.84 3.465 0 2.26-1.601 3.74-3.86 3.74-2.239 0-3.729-1.42-3.729-3.588 0-2.219 1.652-3.617 3.749-3.617l.102.334zM49.987 129.67h-.304a11.708 11.708 0 0 0-.527-.617l-4.377-4.844h-.102v5.461c-.101-.01-.192-.029-.283-.029-.102 0-.193.02-.284.029v-6.93h.395l4.813 5.219h.102v-5.219c.091.01.182.029.284.029.091 0 .182-.02.283-.029v6.93zM52.324 128.303c.395.648.851 1.055 1.642 1.055.821 0 1.408-.68 1.408-1.48 0-1.885-3.171-1.055-3.171-3.344 0-1.307 1.033-1.945 2.25-1.945.486 0 1.074.152 1.449.486-.121.264-.192.547-.273.83h-.101c-.213-.547-.659-.881-1.257-.881-.699 0-1.276.467-1.276 1.186 0 1.865 3.192 1.115 3.192 3.273 0 1.449-1.125 2.311-2.503 2.311-.497 0-1.307-.213-1.651-.588.101-.295.152-.598.192-.902h.099v-.001zM57.672 122.74c.142.01.294.029.446.029.142 0 .284-.02.446-.029v6.93c-.162-.01-.304-.029-.446-.029-.152 0-.304.02-.446.029v-6.93zM66.566 129.67h-.304a11.708 11.708 0 0 0-.527-.617l-4.377-4.844h-.101v5.461c-.102-.01-.193-.029-.284-.029-.102 0-.192.02-.284.029v-6.93h.395l4.813 5.219h.101v-5.219c.091.01.182.029.284.029.091 0 .183-.02.284-.029v6.93zM72.373 125.76h1.571c.304 0 .598-.041.902-.051-.01.08-.031.172-.031.264 0 .08.021.172.031.283-.304-.01-.598-.051-.902-.051h-1.571v2.959c.618.02 1.226-.021 1.834-.041a7.57 7.57 0 0 0 .933-.09c-.011.109-.031.201-.031.303s.02.203.031.305h-3.658v-6.9h3.597c-.01.111-.031.203-.031.305 0 .1.021.201.031.303a6.756 6.756 0 0 0-.912-.111l-1.013-.02h-.78v2.542h-.001zM82.625 129.67h-.304a11.708 11.708 0 0 0-.527-.617l-4.377-4.844h-.101v5.461c-.102-.01-.193-.029-.284-.029-.102 0-.192.02-.284.029v-6.93h.395l4.813 5.219h.101v-5.219c.092.01.183.029.284.029.091 0 .183-.02.284-.029v6.93zM85.616 125.76h1.571c.304 0 .598-.041.902-.051-.01.08-.03.172-.03.264 0 .08.021.172.03.283-.304-.01-.598-.051-.902-.051h-1.571v2.959c.619.02 1.227-.021 1.834-.041.314-.01.618-.041.932-.09-.01.109-.03.201-.03.303s.02.203.03.305h-3.658v-6.9h3.597c-.01.111-.031.203-.031.305 0 .1.021.201.031.303a6.756 6.756 0 0 0-.912-.111l-1.013-.02h-.781v2.542h.001zM102.023 123.955c-.568-.648-1.42-.982-2.281-.982-1.723 0-2.917 1.135-2.917 3.182 0 2.006 1.033 3.252 3.029 3.252.549 0 1.115-.1 1.582-.344v-2.604c.141.01.293.029.445.029.143 0 .283-.02.445-.029v2.867a8.427 8.427 0 0 1-2.756.467c-2.564 0-3.739-1.531-3.739-3.588 0-2.371 1.702-3.617 3.952-3.617 1.51 0 2.361.445 2.584.588a9.315 9.315 0 0 0-.232.779h-.112zM106.611 129.67c-.162-.01-.305-.029-.445-.029-.152 0-.305.02-.445.029v-2.918l-2.484-4.012c.184.01.375.029.568.029.172 0 .355-.02.557-.029.396.779 1.602 2.908 1.926 3.395.344-.406 1.643-2.857 1.936-3.395.121.01.264.029.395.029.123 0 .254-.02.396-.029-.254.324-.498.668-.721 1.014l-1.113 1.793a8.116 8.116 0 0 0-.568 1.014v3.109h-.002zM117.988 129.215c-.639.426-1.471.578-2.24.578-2.229 0-3.566-1.41-3.566-3.629 0-2.279 1.682-3.576 3.82-3.576.738 0 1.5.172 2.178.467a4.183 4.183 0 0 0-.213.779l-.07.01c-.143-.182-.893-.871-1.936-.871-1.865 0-2.787 1.51-2.787 3.232 0 1.945 1.115 3.191 2.717 3.191 1.094 0 1.945-.648 2.148-.82l-.051.639zM129.1 123.115c.426-.021 1.115-.051 1.49.01.76.121 1.115.578 1.115 1.277 0 .789-.559 1.297-1.297 1.447-.518.102-1.166.062-1.309.051v.387h.385l.812.951 1.195 1.551c.213.283.416.568.639.881.182-.01.385-.029.576-.029.193 0 .375.02.588.029l-.191-.252-.486-.568-2.088-2.645c1.023-.182 2.076-.75 2.076-1.926 0-1.023-.688-1.539-2.248-1.539h-2.148v6.93c.143-.01.293-.029.445-.029.143 0 .283.02.445.029v-6.555h.001zM135.43 123.135c.305-.02 1.023-.029 1.459.01.801.072 1.145.619 1.145 1.309 0 .9-.586 1.539-1.6 1.641-.346.031-.75.031-1.004 0v.395c.254 0 .912.072 1.369-.02 1.428-.283 2.168-.842 2.168-2.066 0-1.227-.648-1.662-2.615-1.662h-1.812v6.93c.141-.01.293-.029.445-.029.143 0 .283.02.445.029v-6.537zM158.637 126.51l-1.125-2.594-1.104 2.594-.193.426c-.354.891-.719 1.783-1.002 2.734-.143-.01-.254-.029-.375-.029-.133 0-.244.02-.355.029l3.162-7.082h.232l3.039 7.082c-.191-.01-.354-.029-.525-.029-.193 0-.365.02-.537.029-.295-.84-.66-1.812-1.064-2.734h-2.574l.193-.426h2.228zM163.736 129.691c-.162-.01-.305-.031-.447-.031-.152 0-.303.021-.445.031v-6.465c-1.023 0-1.641.061-2.219.121.01-.102.029-.203.029-.303 0-.102-.02-.193-.029-.305h5.229c-.01.111-.031.203-.031.305 0 .1.021.201.031.303a17.677 17.677 0 0 0-2.117-.121v6.465h-.001zM167.018 122.74c.143.01.295.029.445.029.143 0 .285-.02.447-.029v6.93c-.162-.01-.305-.029-.447-.029-.15 0-.303.02-.445.029v-6.93zM184.252 129.67h-.303a12.762 12.762 0 0 0-.527-.617l-4.379-4.844h-.1v5.461c-.102-.01-.193-.029-.285-.029-.102 0-.191.02-.283.029v-6.93h.395l4.814 5.219h.102v-5.219c.09.01.182.029.283.029.09 0 .182-.02.283-.029v6.93zM66.984 97.928L82.572 82.34V57.009H66.984v40.919z"/><path d="M66.984 101.631v5.846l36.438-36.438v-14.03H88.417v17.147c0 1.656.292 5.748-2.825 8.865l-18.608 18.61z"/><path d="M124.66 72.403h-7.988c-2.242 0-4.969.974-6.334 2.338l-39.846 39.945h-3.508v-3.508l39.944-39.847c1.365-1.364 2.34-4.092 2.34-6.333v-7.989h15.393v15.394h-.001zM83.742 114.686L99.33 99.098h25.33v15.588H83.742z"/><path d="M80.039 114.686h-5.846l36.438-36.437h14.029v15.003h-17.146c-1.656 0-5.748-.292-8.867 2.826l-18.608 18.608z"/></g></svg>