<svg xmlns="http://www.w3.org/2000/svg" width="2500" height="2500" viewBox="0 0 192.756 192.756"><g fill-rule="evenodd" clip-rule="evenodd"><path fill="#fff" d="M0 0h192.756v192.756H0V0z"/><path d="M184.252 104.947v-.754h-20.113v.754h20.113zM8.504 104.947h102.834v-.754H8.504v.754zM184.252 125.312v-.753H8.504v.753h175.748zM13.387 110.652h4.107c2.161 0 2.557 1.596 2.557 2.297 0 .895-.453 1.662-1.256 1.936.668.293 1.03.541 1.03 2.059 0 1.188 0 1.482.362 1.617v.215h-1.878c-.113-.385-.181-.803-.181-1.641 0-1.107-.068-1.539-1.324-1.539H15.05v3.18h-1.663v-8.124z"/><path d="M17.041 114.229c.882 0 1.312-.307 1.312-1.109 0-.43-.192-1.064-1.188-1.064H15.05v2.174h1.991v-.001z" fill="#fff"/><path d="M43.142 112.09h-4.31v1.707h3.96v1.437h-3.96v2.106h4.502v1.435h-6.166v-8.123h5.974v1.438zM61.03 118.775h-1.787l2.896-8.123h1.957l2.862 8.123h-1.844l-.52-1.673h-2.998l-.566 1.673z"/><path fill="#fff" d="M62.048 115.699h2.071l-1.007-3.215h-.023l-1.041 3.215z"/><path d="M85.355 117.305h4.039v1.47h-5.736v-8.123h1.697v6.653zM108.617 118.775h-1.697v-6.685h-2.455v-1.438h6.607v1.438h-2.455v6.685zM130.553 110.438c1.076 0 3.904.465 3.904 4.277s-2.828 4.275-3.904 4.275c-1.074 0-3.902-.463-3.902-4.275s2.828-4.277 3.902-4.277z"/><path d="M130.553 117.555c.918 0 2.207-.566 2.207-2.84 0-2.275-1.289-2.84-2.207-2.84-.916 0-2.205.564-2.205 2.84 0 2.273 1.289 2.84 2.205 2.84z" fill="#fff"/><path d="M151.426 110.652h4.107c2.162 0 2.557 1.596 2.557 2.297 0 .895-.451 1.662-1.256 1.936.668.293 1.031.541 1.031 2.059 0 1.188 0 1.482.361 1.617v.215h-1.879c-.113-.385-.18-.803-.18-1.641 0-1.107-.068-1.539-1.324-1.539h-1.754v3.18h-1.664v-8.124h.001z"/><path d="M155.08 114.229c.883 0 1.312-.307 1.312-1.109 0-.43-.191-1.064-1.188-1.064h-2.115v2.174h1.991v-.001z" fill="#fff"/><path d="M176.645 116.275c.012.453.238 1.312 1.721 1.312.803 0 1.697-.193 1.697-1.053 0-.633-.611-.803-1.471-1.006l-.871-.205c-1.312-.305-2.58-.6-2.58-2.387 0-.904.486-2.5 3.123-2.5 2.488 0 3.156 1.629 3.168 2.625h-1.629c-.047-.361-.182-1.223-1.664-1.223-.645 0-1.414.238-1.414.973 0 .635.521.77.859.85l1.98.486c1.109.271 2.127.725 2.127 2.184 0 2.443-2.488 2.658-3.201 2.658-2.965 0-3.475-1.707-3.475-2.715h1.63v.001zM89.024 93.822c-1.006-.943-1.069-1.949-1.069-3.017V77.353c0-3.583-1.823-6.097-5.154-6.097-2.71 0-5.171 2.538-5.994 3.484-.51-1.951-1.671-3.484-4.251-3.484-3.129 0-5.224 2.1-6.034 3.084v-2.518c-.607.055-3.834.401-4.609.484.151-.49.287-.894.398-1.176.943-2.389 2.074-3.834 2.074-3.834h-5.657s.88 1.068.88 3.017c0 1.949-2.012 11.629-4.212 19.863 0 0-3.897-16.909-4.211-18.04-.314-1.132-.566-3.395.565-4.777h-6.851s.741 1.703 1.131 2.64c.628 1.508-4.337 17.474-5.217 19.863 0 0-2.514-16.72-3.017-19.234-.503-2.515-.817-3.331-2.515-3.331H32.39s1.257 1.697 1.885 4.651c.628 2.955 3.394 16.594 3.771 22.628h3.458s5.845-19.423 6.16-21.937c0 0 4.462 16.72 5.406 22.125 0 0 2.954-.062 3.331-.188.377-.126 1.132-4.84 1.76-7.542.551-2.37 2.6-10.97 3.732-14.665.238.11.709.51.982 1.968.377 2.011 0 13.703 0 16.343s-.88 3.143-.88 3.143h5.594c-1.005-.943-1.068-1.949-1.068-3.017V79.833c.083-1.874.66-5.622 3.96-5.622 2.451 0 3.176 2.102 3.176 3.156 0 4.261-.159 11.332-.159 13.312 0 2.64-.88 3.143-.88 3.143h5.594c-1.006-.943-1.068-1.949-1.068-3.017v-9.618c0-.452.016-.977.029-1.541.204-3.221 1.518-5.436 3.994-5.436 2.703 0 3.308 2.137 3.308 4.902 0 4.487-.081 10.948-.135 14.709h4.684v.001zM93.675 88.542l-3.897 2.514 2.514 3.394 3.709-2.64-2.326-3.268zM118.314 63.524c3.207 0 3.521 5.154.189 5.154s-3.583-5.154-.189-5.154zM115.926 95.393h5.531s-1.004-1.697-1.004-3.143c0-1.446-.314-16.972.377-19.486 0 0-3.521.628-4.967.565 0 0 1.068.566 1.068 2.326v16.783c0 .33-.082.836-.215 1.337-.223-.365-.475-.75-.727-1.086-.756-1.005-7.041-9.931-7.67-11.503 0 0 5.783-2.577 5.783-8.234 0-4.902-4.65-5.468-6.098-5.468-1.445 0-7.102.628-9.428.314 0 0 .754 1.257.754 4.588v18.606c0 2.011-1.006 4.148-1.006 4.148h5.658s-1.068-1.822-1.068-4.274v-8.828c.766.117 1.848.352 2.199.782.566.691 6.537 10.183 6.789 10.623.25.44.754 1.697 2.451 1.697h1.818a.692.692 0 0 1-.245.253z"/><path d="M104.676 80.307c-.422 0-1.176-.196-1.76-.369v-8.305c0-.629.439-1.886.439-1.886h3.582c1.006 0 3.049 1.037 3.049 4.871 0 3.835-2.607 5.689-5.31 5.689z" fill="#fff"/><path d="M155.4 93.193c-2.199-.817-6.475-2.074-7.605-2.577s-2.199-1.383-.816-2.514c.889-.728 2.479-1.584 3.502-2.104 4.096-.67 6.555-3.255 6.555-7.073 0-3.206-1.131-3.709-1.131-3.709s2.953.44 2.703-1.949c0 0-1.949.44-3.709.314s-.629-.754-4.213-.754c-3.582 0-7.92 2.263-7.92 6.915 0 3.663 1.482 5.804 4.383 6.304-.562.391-2.143 1.471-3.062 1.931-1.131.565-2.137 2.011-2.137 2.514s.062 2.2 3.205 3.08c.307.086.615.17.926.254-.818.671-2.758 2.348-4.275 4.331-.586-3.127-2.859-4.255-4.758-4.961-2.201-.817-6.475-2.074-7.605-2.577-1.133-.503-2.201-1.383-.818-2.514.891-.728 2.48-1.584 3.502-2.104 4.098-.67 6.555-3.255 6.555-7.073 0-3.206-1.131-3.709-1.131-3.709s2.955.44 2.703-1.949c0 0-1.949.44-3.709.314s-.627-.754-4.211-.754c-3.582 0-7.92 2.263-7.92 6.915 0 3.663 1.482 5.804 4.383 6.304-.562.391-2.145 1.471-3.062 1.931-1.131.565-2.137 2.011-2.137 2.514s.062 2.2 3.205 3.08c.307.086.615.17.926.254-1.438 1.178-6.332 5.456-6.332 9.049 0 4.211 4.525 6.537 7.605 6.537 3.207 0 8.037-2.85 10.803-5.76.516 3.719 4.668 5.76 7.553 5.76 4.713 0 12.947-6.16 12.947-9.617-.002-4.403-2.703-5.786-4.905-6.603z"/><path d="M146.727 79.239c0-2.703 1.193-4.714 2.955-4.714 1.57 0 3.393 1.383 3.393 5.155 0 3.771-.879 4.651-2.828 4.651-1.948-.001-3.52-2.389-3.52-5.092zM128.373 79.239c0-2.703 1.193-4.714 2.953-4.714 1.572 0 3.395 1.383 3.395 5.155 0 3.771-.881 4.651-2.828 4.651-1.95-.001-3.52-2.389-3.52-5.092zM131.83 106.205c-3.898 0-6.852-2.074-6.852-4.967 0-2.707 2.811-5.029 5.232-6.759 2 .527 3.844 1.041 5.012 1.604 1.824.881 2.578 1.822 2.578 4.275.001 2.453-2.073 5.847-5.97 5.847zM150.184 106.205c-3.896 0-6.852-2.074-6.852-4.967 0-2.707 2.812-5.029 5.234-6.759 2 .527 3.842 1.041 5.012 1.604 1.822.881 2.576 1.822 2.576 4.275 0 2.453-2.074 5.847-5.97 5.847z" fill="#fff"/></g></svg>