<svg xmlns="http://www.w3.org/2000/svg" width="2500" height="2500" viewBox="0 0 192.756 192.756"><g fill-rule="evenodd" clip-rule="evenodd"><path fill="#fff" d="M0 0h192.756v192.756H0V0z"/><path d="M100.912 82.705c.486-1.049 1.01-2.176 1.697-3.354 0 .371.016.729.039 1.072-.033 1.088-1.207 1.498-1.736 2.282zM99.639 85.381l-.008-.01c.361-.678.707-1.424 1.076-2.221l-.035.183c-.018.906-.172 1.703-1.033 2.048z" fill="#f8da57"/><path d="M96.638 100.369c-.731-2.605-1.193-4.795-2.009-6.946.063-.252.006-.643.136-.765-.045-.041.685-1.087 1.118-1.559a37.327 37.327 0 0 0 1.947 3.203c.365-.051.938-.331 1.291-.015 1.227 1.309 1.623 2.576 1.844 3.833-.221.151-3.264 1.148-4.327 2.249z" fill="#fae590"/><path d="M93.238 102.1c-1.023.369-2.662.076-3.273-.051.06-1.111.05-2.182.066-3.111-.413-.363-.709-.758-.993-.928l.023-.537c.501-.23.999-.545 1.488-.913.21-.168.564-.421.653-.548l.705-.684c.359.544 1.078 4.82 1.331 6.772z" fill="#fbeaa7"/><path d="M95.798 100.365c-.237.32-.447.623-.646.918-.525.33-1.297.686-1.914.816-.409-1.939-.722-3.668-.909-5.111-.077.053-.503-.475-.576-.426.122-.612.438-.659.155-1.235.873-.82 1.665-1.721 2.449-2.603.132.517-.216.521-.399.697.46.341.615.23.672.001.815 2.151 1.277 4.341 2.009 6.946l-.279.172c-.249-.186-.486-.382-.562-.175z" fill="#fbe79b"/><path d="M102.309 85.792c.59 1.292 1.688 2.552 2.996 3.813-.27.148-.834.399-.652.92-.373.574-1.449 1.576-1.078 2.1.418.508-1.396-2.634-2.375-3.855-.766-.518-1.256-1.169-1.656-1.839.113-.079.564.294.701.228-.07-.04-.533-.549-.533-.549-.02.036.498-.823.705-1.183.918.253.539-.584.375-.688l.186-.356.016-.006.527.883c.163.196.788.532.788.532z" fill="#f8dd6d"/><path d="M99.121 94.288c1.227 1.309 1.623 2.576 1.844 3.833.291-.113.943-.508 1.02-.545-.355-.213-.766-.404-.781-.648.131-.496.324-1.063.547-1.309.096-.058.213-.1.344-.133.373-.338.33-.163.527-.263.283-.072.586-.138.836-.246.092-.399.189-.794.227-1.192.006-.027-.434-.545-.676-.702.133-.206.336-.339.566-.456-.072-.116-1.014-2.888-2.375-3.855-.766-.518-1.256-1.169-1.656-1.839-.02.024-.637.901-.941 1.298.156.073.584.105.668.086-.037.064-.77.212-.977.315-.205.241-.646.865-.639.954-.049.076.445.183.842.439-.74-.009-1.32.06-1.744.238l-.218.235c-.167-.081-.28-.135-.255-.17a.963.963 0 0 1 .016-.233c-.002-.02-.409.441-.293.228-.21.152-.419.307-.504.374.19.01.69-.26.763.099.104-.194-.26.209-.36.29l-.011.028c.51.952 1.151 2.02 1.94 3.191.364-.054.937-.333 1.29-.017z" fill="#f9df75"/><path d="M116.059 73.4c.604.902 1.416.899 1.891 2.041.748 2.121.525 4.61.91 7.09-2.729-.887-4.623-1.59-6.195-1.386.156-1.137.996-.704 1.254-2.433-.02-.235-.23-.459-.354-.683.494-.77 1.516-1.051 1.488-2.223-.016-.725-.234-1.504-.369-2.442l.256-.012c.287.337.691.078 1.119.048z" fill="#e6c62e"/><path d="M110.486 73.132c.736-.266 1.48-.475 2.232-.623a7.3 7.3 0 0 0 .133.637c-.852.12-1.697.388-2.504.74.053-.239.1-.489.139-.754zM113.564 78.03c.123.224.334.448.354.683-.258 1.729-1.098 1.296-1.254 2.433-.68.09-1.273.227-1.697.466a9.42 9.42 0 0 1-.031-.647c-.262.163-1.213-1.234-1.584-.958.088-2.269 2.07-3.29 2.963-6.187a9.241 9.241 0 0 1 2.369-.453c.135.938.354 1.718.369 2.442.027 1.17-.994 1.451-1.489 2.221z" fill="#f6d337"/><path d="M109.352 80.005c.371-.276 1.322 1.122 1.584.958.004.226.014.44.031.647-.549.282-1.074.741-1.568 1.342a.59.59 0 0 0-.156.073c-.537.355-.766.887-1.27 1.324-.57-.867-1.105-1.772-1.527-2.717 1.613.022 3.016.111 3.988.214-.346-.023-1.051-.972-1.33-1.048-1.285-.636-3.85-1.845-4.381-2.981 1.188-1.6 3.398-3.233 5.338-3.953.227.241.549.653.654.631.514-.254 1.053-.523 1.6-.679-.893 2.899-2.876 3.92-2.963 6.189z" fill="#f7d745"/><path d="M106.445 81.633c.422.944.957 1.85 1.527 2.717a2.79 2.79 0 0 1-.453.336c.18.108.357.214.566.271l-.178.327c-.184.067-.893-.167-.24.456l-.25.491c-.332.038-.734.002-1.232-.148l.625.34c.324.395-.184.339-.275.51.111.06.285.153.414.24-.914.496-1.086 2.089-1.16 2.222-.174.062-.34.131-.484.211-1.309-1.262-2.406-2.521-2.996-3.813 0 0-.625-.336-.789-.533l-.527-.883c1.512-.396 1.133-2.291 1.164-2.365l.234-.458c.607-.839 2.391-1.331 2.045-3.354l.287-.38c.531 1.136 3.096 2.345 4.381 2.981.307.038 1.48.842 1.33 1.048-.659.136-4.053-.298-3.989-.216z" fill="#f8da57"/><path d="M85.69 100.623a8.927 8.927 0 0 1-.861-.689c.334.119.635.463.948-.029.104.221.287.244.463.277a1.7 1.7 0 0 1-.55.441zM86.796 97.395l.167.016c-.035.471-.221.932-.324.68-.067.471.133.016.103.25-.072.623-.167.646-.258.549.17-1.047.399-2.078.461-2.076l.094.008c-.071.205-.177.315-.243.573z" fill="#fcf0c9"/><path d="M89.039 98.01c.284.17.581.564.993.928-.016.93-.007 2-.066 3.111-1.138-.182-2.196-.471-3.141-.902a1.84 1.84 0 0 0 .496-.521c-.187-.008-.381-.006-.527-.203.045-.102.085-.23.118-.4l.001-.014c.12.08.229.059.246-.572.01-.236-.179.232-.154-.24.154.24.33-.229.324-.701l-.214-.006c.052-.264.175-.377.246-.588.553-.012 1.131-.168 1.701-.428l-.023.536z" fill="#fcefbe"/><path d="M105.24 88.614c-.553-1.789-.402-3.612.037-5.091.09.41.174.769.297 1.155.274 1.138-.621 2.39-.334 3.936zM107.83 92.487l-.014.001c-.945-.81-1.789-1.853-2.318-3.146l.158.239c.887 1.04 1.698 1.716 2.174 2.906z" fill="#f8da57"/><path d="M117.727 85.759c1.42 2.076 2.01 4.28 2.195 6.595-.15.25-.24.672-.445.771.066.086-1.312.978-2.168 1.162.193-1.115.131-2.383-.148-3.745-.318-.128-.838-.199-.975-.656-.424-1.752-.471-2.916-.668-3.984.027.106 1.863.628 2.209-.143z" fill="#fae590"/><path d="M118.881 84.785c.279-.223 1.195-.458 1.479-.718 1.029.241 2.031.644 2.779 1.195.541-.155 1.029-.294 1.32-.604l.463.345c-.145 1.865-.83 3.522-1.738 4.917-.199-.247-.721-1.411-1.545-2.519-.801-1.125-1.938-2.129-2.758-2.616z" fill="#fbeaa7"/><path d="M118.277 85.876a2.29 2.29 0 0 0-.012-.606c.191-.181.369-.346.615-.486 1.629 1.003 2.875 2.285 3.473 3.605.059-.073.652.263.713.173.051.667-.289.862.117 1.357-.854 1.292-1.93 2.387-3.213 3.205.053-.568.445-.514.715-.697-.436-.389-.625-.299-.764-.075-.186-2.315-.775-4.52-2.195-6.595l.113-.087c.239.184.473.356.438.206z" fill="#fbe79b"/><path d="M108.816 89.857c1.457.005 2.812-1.087 3.809-2.499-.021.158-.092.576.25.252.143.122.67.642.826.024.229-.59-.836 2.545-2.104 3.626-.396.831-.947 1.453-1.742 1.792-.125-.132.266-.578.166-.728-.031.075-.611.503-.617.499-.01.013-1.041-.717-1.475-1.199.443-.85-.545-.928-.738-.857l-.32-.482v-.021c.395.054.756.101 1.127.09.266-.05.818-.498.818-.497z" fill="#f8dd6d"/><path d="M116.186 89.886c-.424-1.752-.471-2.916-.668-3.984a4.203 4.203 0 0 1-.484-.199c.16.375.367.762.365.948-.088.291-.254.578-.395.62-.213-.087-.496-.59-.666-.856-.098.171-.193.328-.305.518-.004.011-.062.656-.066.944-.104-.001-.197-.096-.266-.241.098.185-1.162 2.231-2.104 3.626-.396.831-.947 1.453-1.742 1.792.029.065 1.26.702 1.945.892.012-.172-.133-.611-.184-.69.076.035.576.713.832.875.418.129 1.439.208 1.527.141.115 0-.119-.474-.109-.948.451.65 1 1.04 1.555 1.211l.432-.02c.074.174.129.29.068.299-.084.066-.17.119-.26.163.285.016 1.447-.07 1.742-.135a2.733 2.733 0 0 1-1.016-.377c.305-.037.602-.095.891-.169l.031-.021c.191-1.112.129-2.373-.15-3.731-.317-.13-.837-.201-.973-.658z" fill="#f9df75"/><path d="M115.17 75.869c.768.75 1.621.563 2.201 1.678.871 2.049.803 4.557 1.162 7.015-1.127-.865-2.553-1.036-3.709-.603-.275-1.085.494-.811.104-2.515-.092-.223-.312-.376-.477-.561.109-.833.807-1.33.459-2.456-.217-.694-.619-1.39-1.01-2.246l.221-.082c.34.263.629-.082 1.049-.23z" fill="#e6c62e"/><path d="M110.432 76.913c.5-.393 1.023-.744 1.572-1.053.102.201.207.39.312.571-.637.302-1.219.727-1.744 1.212a12.847 12.847 0 0 0-.14-.73zM114.451 80.883c.164.184.385.338.477.561.391 1.704-.379 1.43-.104 2.515-.453.152-.857.403-1.227.7-.07-.19-.137-.388-.201-.592-.162.149-1.461-.926-1.688-.693-.457-2.017.6-3.26.398-6.194a6.817 6.817 0 0 1 1.793-.999c.391.856.793 1.552 1.01 2.246.349 1.127-.348 1.623-.458 2.456z" fill="#f6d337"/><path d="M111.709 83.374c.227-.233 1.525.842 1.688.693.064.204.131.401.201.592-.6.494-.793.746-1.033 1.153l-.109.035c-.303.19-.309.45-.51.601-.908-.306-1.738-.88-2.404-1.604 1.494-.136 2.707.084 3.561.15-.303-.025-1.146-.847-1.408-.911-1.256-.575-3.906-1.487-4.637-2.473.395-.762 1.113-1.633 1.455-2.085a15.246 15.246 0 0 1 1.812-1.855c.268.186.67.516.744.471.322-.339.658-.692 1.039-.96.201 2.933-.856 4.176-.399 6.193z" fill="#f7d745"/><path d="M109.541 84.844c.666.724 1.496 1.298 2.404 1.604a1.38 1.38 0 0 1-.225.132l.623.036.002.067c-.125-.002-.838.098.031.038-.008.014.016.021.025.03a9.051 9.051 0 0 0-1.08.423l.668-.243c.461-.144.027.049.039.097.113-.059.289-.147.424-.217-.451.411.277.264.279.227a1.716 1.716 0 0 0-.107.32c-.996 1.411-2.352 2.504-3.809 2.499 0-.001-.553.447-.818.496-.371.011-.732-.037-1.127-.09.156-1.729-1.125-3.29-1.143-3.521-.01-.226-.004-.441 0-.664.209-1.401 1.855-2.288 1.121-4.086.064-.135.133-.264.207-.383.73.986 3.381 1.898 4.637 2.473.273.033 1.486.728 1.408.911-.273.135-1.135-.078-1.969-.131-.85-.08-1.627-.008-1.59-.018z" fill="#f8da57"/><path d="M121.314 81.482c.006-.3-.057-.583-.104-.901.176.258.148.611.689.479-.088.216-.014.349.062.487a3.241 3.241 0 0 1-.647-.065zM124.615 80.506l.148.351c-.443.17-.965.147-.842-.159-.428.203.092.209-.123.308-.58.252-.646.159-.633-.004.949-.475 1.982-.753 2.068-.556l.105.248c-.256-.064-.457-.234-.723-.188z" fill="#fcf0c9"/><path d="M124.459 84.658c-.291.31-.779.449-1.32.604-.748-.552-1.75-.955-2.779-1.195.504-.386.859-.971.992-1.69.172.057.357.112.613.155-.045-.141-.076-.281.037-.465.111-.009.244-.031.414-.071l.014-.005c-.027.135.014.221.617.029.225-.077-.279-.109.166-.266-.164.264.342.312.799.189l-.096-.323c.268-.026.439.139.686.216a8.903 8.903 0 0 1 .32 3.168l-.463-.346z" fill="#fcefbe"/><path d="M128.15 89.322c.648-1.037 1.098-2.035 1.191-2.729.154.214.299.457.396.725.243.886-.958 1.277-1.587 2.004zM125.99 92.386l-.002-.013c.688-.913 1.334-1.776 1.873-2.599l-.074.195c-.232 1-.683 1.934-1.797 2.417z" fill="#f8da57"/><path d="M129.039 112.074c-2.195-1.758-4.189-3.215-6.314-4.229-.154-.27-.471-.535-.496-.762-.078.012-.436-1.555-.58-2.381 1.084.295 2.35.557 3.754.771.199-.408.293-1.211.764-1.295 1.809-.117 3.051.568 4.203 1.441.005.35-1.097 4.328-1.331 6.455z" fill="#fae590"/><path d="M127.027 116.939c-.807 1.297-2.764 2.266-3.525 2.535-.35-1.102-.795-2.111-1.189-2.994-.58-.053-1.057-.234-1.422-.225l-.203-.51c.811-1.031 1.268-2.459 1.422-3.938.295.131 1.287.881 2.289 1.941 1.005 1.035 1.976 2.43 2.628 3.191z" fill="#fbeaa7"/><path d="M128.383 112.91c.008.543.01 1.049-.012 1.537a9.232 9.232 0 0 1-1.344 2.492c-1.342-1.51-2.59-2.895-3.564-4.029-.037.107-.703-.023-.736.074-.246-.619-.031-.91-.617-1.176.15-1.377.07-2.816-.09-4.281.477.299.256.635.244.943.566-.143.604-.381.461-.625 2.125 1.014 4.119 2.471 6.314 4.229l-.1.445c-.316.069-.628.116-.556.391z" fill="#fbe79b"/><path d="M128.777 92.948c.191 1.584.963 3.169 2.045 4.657-.311.145-.963.408-.836.975-.471.584-1.502 1.676-.986 2.096.252.203-.25-.303-.818-1.174-.584-.861-1.186-2.098-1.553-2.855-.727-.582-1.088-1.399-1.295-2.263.156-.118.535.344.711.247-.066-.046-.404-.688-.402-.689 0-.009.816-1.031 1.203-1.509.918.329.799-.701.658-.836l.312-.409.018-.005c.102.358.195.721.277 1.082.108.245.666.683.666.683z" fill="#f8dd6d"/><path d="M126.166 104.18c1.809-.117 3.051.568 4.203 1.441.057-.387.178-1.396.178-1.502-.381.174-.787.422-.992.229-.33-.543-.699-1.318-.701-1.375.094-.283.652-.541.955-.711a3.586 3.586 0 0 1-.359-.697 6.478 6.478 0 0 0-.861-.424c.053-.191.229-.342.412-.465-.232.043-1.25-2.795-2.371-4.029-.727-.582-1.088-1.399-1.295-2.263-.027.008-1.057 1.31-1.525 2.063.166.058.656-.026.756-.074-.057.095-.953.542-1.225.823-.311.469-.889 1.857-.857 2.035-.051.172.506-.035.953.119a4.066 4.066 0 0 0-1.781 2.08c-.053.238-.062.492-.092.74-.186.07-.311.125-.307.018a3.404 3.404 0 0 1-.1-.498c-.139.445-.162 2.604-.066 3.057.07-.484.168-1.117.428-1.627-.018.518.082 1.152.129 1.555l.016.033c1.08.291 2.34.553 3.74.768.198-.41.291-1.212.762-1.296z" fill="#f9df75"/><path d="M126.111 82.865c-.77-.77-1.838-.482-2.734-1.437-1.482-1.813-1.742-4.316-2.719-6.631 1.525.11 3.127-.007 5.193-.022 2.721-.09 5.072 1.041 6.727 2.345-1.381.254-2.873-1.006-4.09.517-.049.231.186.54.25.804-1.021.393-2.195.706-2.023 1.898.084.72.277 1.497.322 2.433l-.061.01c-.13-.338-.449-.037-.865.083z" fill="#e6c62e"/><path d="M127.859 83.952a2.003 2.003 0 0 0-.66-.146l.189-.619c.246.058.602.146.99.283a5.738 5.738 0 0 0-.519.482zM128.738 78.44c-.064-.264-.299-.572-.25-.804 1.217-1.522 2.709-.263 4.09-.517 1.307 1.045 2.404 2.278 3.201 3.76a6.475 6.475 0 0 0-.932-.403c.496.751-.877 1.702-.592 2.346-2.275-1.248-4.666-2.386-6.447-.103a2.516 2.516 0 0 0-.771.051c-.045-.936-.238-1.713-.322-2.433-.172-1.191 1.002-1.504 2.023-1.897z" fill="#f6d337"/><path d="M134.256 82.823c-.285-.644 1.088-1.595.592-2.346.314.112.633.24.932.403.938 1.681 1.436 3.754 1.254 5.775l-.117.389c-.393 1.46-.74 2.576-1.434 3.571-.486-1.127-1.084-2.194-1.783-3.073 1.604-.797 2.848-2.767 2.729-5.036.01.802-1.186.95-1.324 1.318-.98 1.609-3.799 2.053-4.939 1.825-.205-.776-.889-1.562-1.756-2.02.148-.277.352-.72.303-.761-.324-.09-.639-.121-.902-.147 1.779-2.284 4.169-1.145 6.445.102z" fill="#f7d745"/><path d="M133.699 87.542c.699.879 1.297 1.946 1.783 3.073a4.406 4.406 0 0 1-.619.706c.18.104.359.208.592.218-.104.199-.213.388-.32.572-.248.165-.982-.041-.449.737-.158.254-.318.487-.479.727-.396.091-.834.053-1.332-.129l.572.423c.213.513-.332.44-.498.659.102.078.258.197.365.309-1.238.659-1.779 2.338-1.939 2.566a3.897 3.897 0 0 0-.553.203c-1.082-1.488-1.854-3.073-2.045-4.657 0 0-.559-.438-.666-.685-.082-.36-.176-.724-.277-1.082 1.791-.393 1.645-2.444 1.621-2.468.076-.144.158-.291.219-.431.516-.592 2.156-1.664.531-2.441-.02-.065-.018-.13-.041-.193 1.141.228 3.959-.216 4.939-1.825.174-.31 1.043-1.886 1.324-1.318.338 1.159-.242 2.841-1.08 3.762-.824.955-1.71 1.291-1.648 1.274z" fill="#f8da57"/><path d="M117.695 119.818a4.43 4.43 0 0 1-1.102-.855c.385.225.801.613 1.152.127.145.215.379.262.605.264-.186.23-.407.359-.655.464zM118.561 116.521l.119-.01c.062.465-.045.961-.166.717-.008.475.119.004.123.236.029.631-.074.662-.18.576.061-1.064.115-2.105.133-2.117l.043-.002c-.002.208-.053.337-.072.6z" fill="#fcf0c9"/><path d="M120.891 116.256c.365-.01.842.172 1.422.225.395.883.84 1.893 1.189 2.994-1.383.592-2.832.904-4.201.719.215-.164.393-.379.512-.654-.234.072-.488.109-.717-.039.035-.113.055-.25.057-.424l-.002-.016c.166.053.297.008.158-.611-.045-.227-.154.264-.234-.201.234.213.316-.316.18-.764-.074.014-.148.049-.221.053-.01-.258.084-.416.094-.635.531-.154 1.104-.578 1.561-1.156l.202.509z" fill="#fcefbe"/><path d="M106.545 106.238c-1.006-.033-2.066.008-3.125.066.244-.203.486-.404.729-.594.83-.528 1.599.351 2.396.528zM109.27 106.449l-.008.01c-.762-.086-1.477-.207-2.279-.213l.166-.039c.775-.344 1.513-.43 2.121.242z" fill="#f8da57"/><path d="M123.551 109.621c-2.52-1.262-4.932-1.662-6.99-1.039-.195-.023-.502.051-.549.006-.148-.021-.379-.047-.773-.307.783-.732 1.639-1.566 2.789-2.4-.039-.352-.381-.91-.131-1.293 1.098-1.436 2.512-1.844 4.104-1.666.096.15.68 1.346.99 2.717.339 1.381.398 2.886.56 3.982z" fill="#fae590"/><path d="M121.105 115.041c-.379.258-.975.6-1.623.707-.443.047-.621-.037-.865-.088-.428-.129-.766-.262-.975-.299-.35-1.01-.477-2.096-.369-3.055-.482-.33-.912-.674-1.414-.682.023-.203.059-.414.094-.615.494-.266.986-.473 1.342-.635.107-.049.438-.217.043-.07-.18.057-.174.031-.252.068-.248.078-.285.029-.373-.193.305.068 1.471.352 2.51 1.254 1.121.856 1.675 2.546 1.882 3.608z" fill="#fbeaa7"/><path d="M123.061 110.58c.084.547.143 1.072.107 1.629-.322.979-.943 2.068-2.062 2.832-.516-2.1-1.748-3.57-2.875-4.262-.02.053-.656-.117-.674-.109-.365-.277-.215-.35-.844-.49-.143-.406-.477-1.045-.82-1.35.463-.162.311.084.359.178.49-.271.465-.396.309-.426 2.059-.623 4.471-.223 6.99 1.039.002.156.01.307-.006.469-.299.131-.598.228-.484.49z" fill="#fbe79b"/><path d="M108.795 103.807c1.008-.99 1.885-2.455 2.672-4.086.229.203.666.672 1.123.342.684.156 2.053.945 2.469.441.373-.539-2.24 2.057-3.07 3.379-.26.893-.73 1.561-1.225 2.146-.107-.082.102-.629-.006-.736-.016.078-.354.68-.354.68.035.002-.939-.207-1.34-.266-.059-.947-.703-.307-.742-.117l-.369-.053-.01-.012c.201-.273.406-.543.617-.799.128-.218.235-.919.235-.919z" fill="#f8dd6d"/><path d="M117.896 104.588c1.098-1.436 2.512-1.844 4.104-1.666-.207-.412-.947-1.393-1.064-1.479-.133.416-.24.885-.551.861-.666-.254-1.355-.344-1.721-.586-.379-.342-.641-1.111-1.041-1.58-.469-.021-.945-.059-1.379-.004-.031 0-.443.547-.531.82-.256-.082-.459-.258-.654-.451-.117.096-2.596 1.764-3.07 3.379-.26.893-.73 1.561-1.225 2.146.021.014 1.037.318 1.479.488.025-.17-.064-.586-.105-.66.07.016.416.664.547.838.289.111.938.352 1.004.324.078.025.072-.475.219-.924.16.713.305 1.24.51 1.58.08.047.148.092.209.143-.057.176-.096.295-.123.281a.747.747 0 0 1-.178.047c.113.102.557.494.592.59-.023-.182-.018-.438-.053-.738.154.088.252.188.365.273h.02c.781-.729 1.633-1.561 2.779-2.391-.041-.35-.383-.908-.133-1.291z" fill="#f9df75"/><path d="M93.604 106.6c-.666-.727-1.019-.553-1.828-1.35-.826-.736-1.742-1.393-2.706-2.135-.964-.719-1.888-1.561-3.133-2.012 2.661-2.299 4.508-2.143 6.031-2.395 1.548-.133 2.894-.131 4.21-.135-.522 1.111-1.715.682-1.935 2.475.042.232.292.428.431.643-.495.801-1.398 1.252-1.076 2.404.19.701.525 1.42.812 2.322l-.154.045c-.239-.288-.452.02-.652.138z" fill="#e6c62e"/><path d="M97.031 106.832c-.458.109-.897.229-1.316.35a11.646 11.646 0 0 0-.136-.637 12.372 12.372 0 0 0 1.596-.426 8.013 8.013 0 0 0-.144.713zM94.674 101.691c-.14-.215-.389-.41-.431-.643.22-1.793 1.413-1.363 1.935-2.475 1.008 0 1.986.004 2.957.008l-.477.592c.535-.016.686 1.633 1.197 1.625-1.443 1.738-3.416 2.246-3.971 5.111-.53.201-1.014.383-1.475.508-.287-.902-.622-1.621-.812-2.322-.322-1.152.582-1.603 1.077-2.404z" fill="#f6d337"/><path d="M99.855 100.799c-.512.008-.662-1.641-1.197-1.625l.477-.592c.623.006.979.002 1.814.016l1.59.07.207.084c.793.221 1.512.168 2.266.4-.578.91-1.143 1.824-1.705 2.689-.961-1.34-1.715-2.514-3.168-3.18.43.234.328 1.42.535 1.654.82 1.338 1.238 4.078.846 5.219-1.229.09-2.854.379-4.158.678-.117-.291-.299-.77-.375-.762-.375.168-.75.314-1.102.459.554-2.864 2.527-3.372 3.97-5.11z" fill="#f7d745"/><path d="M103.307 101.842c.562-.865 1.127-1.779 1.705-2.689.193.059.389.139.592.248.016-.209.031-.416-.023-.627l.441.02c.172.143.273.887.607.039l.633.043c.193.291.33.676.385 1.195l.08-.707c.264-.447.422.043.633.064.016-.127.039-.322.076-.473.904.725 2.498.342 2.666.373.117.145.238.279.365.393-.787 1.631-1.664 3.096-2.672 4.086 0 0-.107.701-.234.92a17.96 17.96 0 0 0-.617.799c-.865-1.281-2.352-.137-2.389-.135l-.449-.002c-.844-.141-2.098-1.453-3.221.123l-.365.023c.393-1.141-.025-3.881-.846-5.219-.201-.236-.906-1.576-.535-1.654 1.603.227 3.156 3.277 3.168 3.18z" fill="#f8da57"/><path d="M115.105 116.979c-.174.326-.244.682-.363 1.062-.025-.402.162-.771-.357-.998.193-.178.189-.375.217-.58.201.182.38.351.503.516zM111.838 115.76l.102-.521c.457.127.857.533.572.801.467.074.055-.311.287-.27.619.129.615.281.508.461-1.053-.129-2.057-.557-2-.854l.078-.375c.154.269.213.617.453.758z" fill="#fcf0c9"/><path d="M115.859 111.625c.502.008.932.352 1.414.682-.107.959.02 2.045.369 3.055-.701-.139-1.436-.029-2.031.629-.08-.168-.213-.371-.354-.594-.084.174-.127.354-.363.467a2.238 2.238 0 0 0-.357-.217l-.014-.006c.125-.127.143-.254-.443-.486-.225-.08.137.33-.314.18.307-.18-.031-.611-.445-.822-.082.148-.119.301-.178.451-.217-.172-.238-.498-.324-.779.666-1.484 1.996-2.59 3.135-3.174-.036.2-.071.411-.095.614z" fill="#fcefbe"/><path d="M8.504 113.607h175.748v-7.25H8.504v7.25z"/><path d="M14.289 110.871c0 .65-.341 1.072-1.122 1.072-.77 0-1.055-.418-1.055-1.072v-2.646c0-.043.02-.066.061-.066h.296c.041 0 .062.023.062.066v2.637c0 .443.163.719.642.719.469 0 .699-.227.699-.719v-2.637c0-.043.02-.066.061-.066h.296c.041 0 .061.023.061.066v2.646h-.001zM15.946 111.803c0 .043-.02.064-.061.064h-.265c-.04 0-.062-.021-.062-.064v-2.199h-.397c-.041 0-.061-.021-.061-.064v-.205c0-.043.02-.066.061-.066h.719c.057 0 .066.033.066.082v2.452zm-.219-3.157c-.174 0-.312-.146-.312-.33s.138-.332.312-.332c.173 0 .311.152.311.332 0 .178-.138.33-.311.33zM18.439 111.666c.006.023.011.039.011.055 0 .07-.383.223-.658.223-.219 0-.403-.086-.479-.189-.148-.168-.148-.412-.148-.613v-1.537h-.383c-.035 0-.035-.037-.035-.064v-.205c0-.037 0-.066.035-.066h.383v-.74c0-.033.021-.055.056-.064l.27-.082c.016 0 .025-.006.036-.006.025 0 .025.027.025.061v.832h.755c.03 0 .056.006.056.039 0 .01-.005.021-.005.037l-.066.211c-.011.027-.036.049-.066.049h-.673v1.537c0 .219 0 .439.307.439.239 0 .443-.146.489-.146.02 0 .036.018.036.033l.054.196zM20.438 111.164c-.117.086-.331.27-.596.27-.346 0-.443-.361-.443-.936 0-.58.184-.943.571-.943.204 0 .382.104.468.146v1.463zm.387-1.176c0-.193.02-.266.066-.4.045-.129.092-.156.092-.199 0-.012 0-.018-.02-.033l-.229-.152c-.011-.004-.026-.01-.045-.01-.046 0-.102.098-.148.232-.066-.055-.265-.232-.602-.232-.647 0-.958.557-.958 1.406 0 .764.321 1.197.785 1.197.342 0 .576-.195.694-.299 0 .066.015.289.015.559 0 .293-.057.584-.53.584-.352 0-.658-.211-.698-.211-.021 0-.031.018-.037.033l-.081.184c-.016.033-.021.043-.021.07 0 .104.474.287.857.287.688 0 .896-.461.896-.953 0-.293-.036-.926-.036-1.229v-.834zM23.104 111.271c-.081.076-.315.336-.581.336-.261 0-.373-.244-.373-.461 0-.568.729-.568.953-.572v.697h.001zm.389-1.32c0-.455-.199-.758-.785-.758-.327 0-.796.156-.796.248 0 .027.005.043.015.07l.066.189a.037.037 0 0 0 .036.027c.046 0 .281-.174.622-.174.362 0 .454.174.454.488v.195c-.315.01-1.335.025-1.335.941 0 .482.26.764.663.764.423 0 .672-.305.734-.363.025.076.116.363.193.363.01 0 .021-.006.041-.018l.198-.129c.021-.01.046-.021.046-.043 0-.033-.071-.137-.092-.201-.045-.15-.061-.199-.061-.541v-1.058h.001zM25.455 111.857c-.015.037-.02.047-.066.047h-.199c-.045 0-.051-.021-.061-.047l-.857-2.469c0-.012-.01-.023-.01-.039 0-.021.01-.027.046-.037l.25-.07c.016 0 .031-.012.051-.012.021 0 .021.021.036.043l.566 1.76c.035.113.065.238.091.342h.009c.026-.131.046-.205.093-.336l.601-1.766c.015-.021.015-.043.036-.043s.036.012.051.012l.25.07c.036.01.046.016.046.037 0 .016-.01.027-.01.039l-.923 2.469zM27.322 110.318c0-.27.102-.789.571-.789.443 0 .531.508.531.789h-1.102zm1.361 1.073c-.01-.016-.015-.031-.03-.031-.031 0-.296.221-.627.221-.582 0-.704-.596-.704-.926h1.463c.056 0 .056-.043.056-.119 0-.465-.077-1.342-.928-1.342-.632 0-1.01.578-1.01 1.375 0 .822.398 1.369 1.076 1.375.377 0 .806-.223.806-.281 0-.018-.01-.027-.016-.045l-.086-.227zM32.384 111.857c-.015.037-.021.047-.066.047h-.199c-.045 0-.05-.021-.061-.047l-.856-2.469c0-.012-.01-.023-.01-.039 0-.021.01-.027.046-.037l.25-.07c.016 0 .031-.012.051-.012.02 0 .02.021.036.043l.566 1.76c.036.113.066.238.092.342h.01a2.1 2.1 0 0 1 .092-.336l.601-1.766c.016-.021.016-.043.036-.043.021 0 .036.012.051.012l.25.07c.035.01.046.016.046.037 0 .016-.011.027-.011.039l-.924 2.469zM35.189 111.271c-.083.076-.316.336-.582.336-.261 0-.373-.244-.373-.461 0-.568.729-.568.954-.572v.697h.001zm.388-1.32c0-.455-.199-.758-.786-.758-.326 0-.794.156-.794.248a.16.16 0 0 0 .015.07l.066.189c.006.018.02.027.036.027.046 0 .281-.174.622-.174.363 0 .455.174.455.488v.195c-.316.01-1.336.025-1.336.941 0 .482.26.764.663.764.423 0 .673-.305.734-.363.026.076.118.363.194.363.011 0 .021-.006.041-.018l.199-.129c.021-.01.046-.021.046-.043 0-.033-.071-.137-.092-.201-.045-.15-.061-.199-.061-.541v-1.058h-.002zM38.468 111.803c0 .043-.02.064-.062.064h-.265c-.042 0-.062-.021-.062-.064v-1.809c0-.232-.056-.439-.332-.439-.331 0-.545.211-.672.332v1.916c0 .043-.021.064-.062.064h-.265c-.041 0-.061-.021-.061-.064v-1.867c0-.18 0-.238-.02-.32-.041-.162-.083-.201-.083-.227 0-.012.005-.023.026-.039l.229-.135c.011-.006.026-.021.042-.021.092 0 .153.324.158.367.168-.141.433-.367.821-.367.566 0 .607.422.607.812v1.797h.001zM42.669 111.26c-.123.082-.347.32-.612.32-.413 0-.449-.514-.449-.969 0-.525.042-1.057.479-1.057.255 0 .418.088.582.18v1.526zm.388-3.24c0-.029 0-.072-.042-.072-.036.006-.021 0-.061.012l-.25.064c-.02.006-.035.027-.035.064v1.289a1.03 1.03 0 0 0-.627-.184c-.592 0-.852.648-.852 1.43 0 .67.25 1.32.795 1.32.378 0 .627-.229.75-.32.021.086.113.32.184.32.01 0 .021-.006.041-.018l.199-.129c.02-.01.046-.021.046-.043 0-.033-.066-.137-.092-.201-.056-.135-.056-.297-.056-.541v-2.991zM44.287 110.318c0-.27.101-.789.571-.789.444 0 .531.508.531.789h-1.102zm1.36 1.073c-.01-.016-.015-.031-.031-.031-.03 0-.295.221-.627.221-.582 0-.703-.596-.703-.926h1.463c.056 0 .056-.043.056-.119 0-.465-.076-1.342-.928-1.342-.633 0-1.01.578-1.01 1.375 0 .822.398 1.369 1.077 1.375.377 0 .805-.223.805-.281 0-.018-.011-.027-.015-.045l-.087-.227zM49.773 111.164c-.118.086-.332.27-.597.27-.347 0-.444-.361-.444-.936 0-.58.185-.943.571-.943.204 0 .383.104.47.146v1.463zm.388-1.176c0-.193.021-.266.065-.4.046-.129.092-.156.092-.199 0-.012 0-.018-.02-.033l-.23-.152a.11.11 0 0 0-.045-.01c-.046 0-.103.098-.148.232-.066-.055-.265-.232-.601-.232-.648 0-.959.557-.959 1.406 0 .764.321 1.197.785 1.197.341 0 .576-.195.694-.299 0 .066.015.289.015.559 0 .293-.056.584-.531.584-.352 0-.658-.211-.698-.211-.02 0-.03.018-.036.033l-.082.184c-.015.033-.02.043-.02.07 0 .104.475.287.856.287.688 0 .897-.461.897-.953 0-.293-.035-.926-.035-1.229v-.834h.001zM51.411 110.318c0-.27.102-.789.571-.789.444 0 .53.508.53.789h-1.101zm1.36 1.073c-.01-.016-.016-.031-.03-.031-.031 0-.296.221-.628.221-.581 0-.703-.596-.703-.926h1.463c.056 0 .056-.043.056-.119 0-.465-.076-1.342-.928-1.342-.632 0-1.01.578-1.01 1.375 0 .822.398 1.369 1.077 1.375.377 0 .805-.223.805-.281 0-.018-.011-.027-.015-.045l-.087-.227zM54.067 111.516h1.26c.045 0 .071.006.071.021s-.011.033-.021.059l-.092.223c-.015.043-.036.049-.066.049h-1.591c-.051 0-.057-.006-.057-.064v-.217l1.28-1.965h-1.117c-.041 0-.061-.021-.061-.066v-.221c0-.055.011-.066.061-.066h1.541c.051 0 .061.012.061.066v.221l-1.269 1.96zM57.314 111.271c-.081.076-.316.336-.581.336-.26 0-.372-.244-.372-.461 0-.568.729-.568.953-.572v.697zm.388-1.32c0-.455-.199-.758-.785-.758-.327 0-.796.156-.796.248 0 .027.006.043.016.07l.066.189c.005.018.02.027.036.027.046 0 .28-.174.622-.174.362 0 .454.174.454.488v.195c-.316.01-1.336.025-1.336.941 0 .482.261.764.663.764.423 0 .673-.305.735-.363.025.076.117.363.194.363.01 0 .021-.006.041-.018l.198-.129c.021-.01.046-.021.046-.043 0-.033-.071-.137-.092-.201-.045-.15-.061-.199-.061-.541v-1.058h-.001zM58.809 109.945c0-.125-.005-.254-.03-.379-.026-.125-.066-.156-.066-.184 0-.012.004-.021.024-.039l.22-.129c.01-.006.03-.021.045-.021.076 0 .133.281.138.318.132-.129.449-.318.663-.318.332 0 .475.107.541.324.153-.119.428-.324.673-.324.566 0 .607.422.607.812v1.797c0 .043-.02.064-.061.064h-.265c-.041 0-.061-.021-.061-.064v-1.809c0-.232-.057-.439-.327-.439-.245 0-.397.146-.5.223v2.025c0 .043-.021.064-.061.064h-.266c-.041 0-.062-.021-.062-.064v-1.809c0-.232-.056-.439-.331-.439-.229 0-.408.152-.495.229v2.02c0 .043-.02.064-.061.064h-.264c-.042 0-.062-.021-.062-.064v-1.858h.001zM62.858 110.318c0-.27.102-.789.571-.789.444 0 .53.508.53.789h-1.101zm1.361 1.073c-.01-.016-.016-.031-.031-.031-.03 0-.295.221-.627.221-.581 0-.703-.596-.703-.926h1.463c.056 0 .056-.043.056-.119 0-.465-.076-1.342-.928-1.342-.633 0-1.01.578-1.01 1.375 0 .822.397 1.369 1.076 1.375.377 0 .806-.223.806-.281 0-.018-.011-.027-.016-.045l-.086-.227zM67.074 111.803c0 .043-.02.064-.061.064h-.265c-.041 0-.061-.021-.061-.064v-1.809c0-.232-.057-.439-.332-.439-.332 0-.546.211-.673.332v1.916c0 .043-.02.064-.061.064h-.265c-.041 0-.061-.021-.061-.064v-1.867c0-.18 0-.238-.021-.32-.041-.162-.082-.201-.082-.227 0-.012.005-.023.025-.039l.229-.135c.01-.006.026-.021.041-.021.092 0 .153.324.158.367.169-.141.434-.367.821-.367.566 0 .606.422.606.812v1.797h.002zM69.119 111.77c.006.012.01.027.01.037 0 .061-.245.137-.433.137-.25 0-.418-.109-.479-.26-.071-.18-.071-.596-.071-.785v-2.811c0-.037.015-.059.036-.064l.255-.064c.041-.012.025-.006.061-.012.035 0 .035.043.035.072v2.891c0 .166.006.443.016.508.011.059.056.189.204.189.132 0 .229-.07.266-.07.03 0 .03.016.035.033l.065.199zM70.317 111.803c0 .043-.02.064-.061.064h-.265c-.041 0-.061-.021-.061-.064v-2.199h-.397c-.042 0-.062-.021-.062-.064v-.205c0-.043.021-.066.062-.066h.718c.056 0 .065.033.065.082v2.452h.001zm-.219-3.157c-.173 0-.311-.146-.311-.33s.137-.332.311-.332.312.152.312.332c0 .178-.138.33-.312.33zM72.031 112.154c0 .438-.153.85-.775.85-.29 0-.596-.146-.596-.211 0-.016.005-.033.01-.043l.092-.217c.01-.016.015-.039.041-.039.041 0 .239.146.5.146.337 0 .342-.275.342-.584v-2.453h-.405c-.041 0-.061-.021-.061-.064v-.205c0-.043.021-.066.061-.066h.724c.056 0 .066.033.066.082v2.804h.001zm-.225-3.508c-.173 0-.311-.146-.311-.33s.137-.332.311-.332.312.152.312.332c0 .178-.138.33-.312.33zM74.846 111.678c.01.016.036.037.036.064 0 .021-.021.027-.031.039l-.179.129c-.02.012-.041.033-.061.033-.025 0-.046-.027-.056-.043l-1.041-1.365h-.01v1.268c0 .043-.021.064-.061.064h-.265c-.041 0-.061-.021-.061-.064v-3.715c0-.037.015-.059.036-.064l.255-.064c.04-.012.025-.006.062-.012.035 0 .035.043.035.072v2.441l1.016-1.225c.014-.016.029-.043.056-.043.02 0 .04.021.061.031l.178.131c.011.01.031.016.031.037 0 .027-.02.049-.036.066l-.861 1.012.896 1.208zM75.785 110.318c0-.27.102-.789.571-.789.443 0 .53.508.53.789h-1.101zm1.361 1.073c-.011-.016-.016-.031-.031-.031-.03 0-.295.221-.627.221-.581 0-.703-.596-.703-.926h1.463c.056 0 .056-.043.056-.119 0-.465-.076-1.342-.928-1.342-.633 0-1.01.578-1.01 1.375 0 .822.397 1.369 1.076 1.375.377 0 .805-.223.805-.281 0-.018-.01-.027-.015-.045l-.086-.227zM82.061 111.803c0 .037-.02.064-.061.064h-.286c-.041 0-.062-.016-.082-.055l-1.173-2.674a2.213 2.213 0 0 1-.138-.471l-.009.012c.041.205.051.361.051.48v2.643c0 .043-.02.064-.062.064h-.264c-.042 0-.062-.021-.062-.064v-3.578c0-.039.02-.066.062-.066h.346c.041 0 .061.018.076.049l1.126 2.523c.062.135.077.254.123.416l.01-.01c-.015-.113-.046-.232-.046-.33v-2.582c0-.043.021-.066.062-.066H82c.041 0 .061.023.061.066v3.579zM84.269 111.846c-.016.055-.025.059-.076.059h-.357c-.057 0-.067-.01-.077-.059l-.881-3.535c-.005-.021-.016-.049-.016-.064 0-.033.046-.039.061-.043l.281-.076c.016-.006.031-.006.046-.006.025 0 .036.031.045.086l.643 2.826c.025.104.055.293.071.434h.01c.016-.137.056-.342.076-.422l.648-2.838c.015-.055.02-.086.045-.086a.12.12 0 0 1 .046.006l.281.076c.015.004.061.016.061.049 0 .01-.011.037-.015.059l-.892 3.534zM88.578 111.803c0 .043-.021.064-.061.064h-.296c-.041 0-.061-.021-.061-.064l-.082-2.783a3.68 3.68 0 0 1 .005-.336l-.01-.01c-.005.119-.02.254-.062.383l-.617 1.885c-.02.049-.03.059-.076.059h-.152c-.046 0-.062-.01-.077-.059l-.591-1.885a1.48 1.48 0 0 1-.061-.383l-.011.01c.005.092.011.229.005.336l-.077 2.783c0 .043-.02.064-.061.064h-.296c-.041 0-.061-.021-.061-.064l.194-3.578c0-.043.021-.066.061-.066h.332c.041 0 .041.012.056.055l.602 1.867c.026.082.045.217.066.336h.011c.025-.113.045-.254.071-.336l.602-1.867c.015-.043.015-.055.056-.055h.332c.041 0 .061.023.061.066l.198 3.578zM91.438 109.945c0-.125-.005-.254-.03-.379-.026-.125-.067-.156-.067-.184 0-.012.006-.021.026-.039l.219-.129c.01-.006.031-.021.045-.021.077 0 .133.281.138.318.133-.129.449-.318.663-.318.332 0 .475.107.541.324.152-.119.428-.324.673-.324.565 0 .607.422.607.812v1.797c0 .043-.02.064-.062.064h-.265c-.041 0-.061-.021-.061-.064v-1.809c0-.232-.056-.439-.326-.439-.245 0-.398.146-.5.223v2.025c0 .043-.021.064-.062.064h-.266c-.041 0-.061-.021-.061-.064v-1.809c0-.232-.056-.439-.332-.439-.229 0-.408.152-.495.229v2.02c0 .043-.02.064-.061.064h-.265c-.041 0-.061-.021-.061-.064v-1.858h.002zM96.426 111.271c-.082.076-.316.336-.582.336-.261 0-.373-.244-.373-.461 0-.568.729-.568.954-.572v.697h.001zm.387-1.32c0-.455-.199-.758-.785-.758-.327 0-.796.156-.796.248 0 .027.005.043.015.07l.066.189a.038.038 0 0 0 .036.027c.047 0 .281-.174.623-.174.362 0 .454.174.454.488v.195c-.316.01-1.336.025-1.336.941 0 .482.259.764.663.764.423 0 .673-.305.734-.363.025.076.117.363.193.363.011 0 .021-.006.041-.018l.199-.129c.02-.01.046-.021.046-.043 0-.033-.071-.137-.092-.201-.046-.15-.062-.199-.062-.541v-1.058h.001zM99.613 111.678c.01.016.035.037.035.064 0 .021-.02.027-.031.039l-.178.129c-.021.012-.041.033-.061.033-.027 0-.047-.027-.057-.043l-1.041-1.365h-.01v1.268c0 .043-.021.064-.061.064h-.266c-.041 0-.061-.021-.061-.064v-3.715c0-.037.014-.059.035-.064l.254-.064c.041-.012.025-.006.061-.012.037 0 .037.043.037.072v2.441l1.014-1.225c.016-.016.031-.043.057-.043.021 0 .041.021.061.031l.18.131c.01.01.031.016.031.037 0 .027-.021.049-.037.066l-.861 1.012.899 1.208zM100.551 110.318c0-.27.104-.789.572-.789.443 0 .529.508.529.789h-1.101zm1.361 1.073c-.01-.016-.016-.031-.029-.031-.031 0-.297.221-.627.221-.582 0-.705-.596-.705-.926h1.465c.055 0 .055-.043.055-.119 0-.465-.076-1.342-.928-1.342-.633 0-1.01.578-1.01 1.375 0 .822.398 1.369 1.076 1.375.377 0 .807-.223.807-.281 0-.018-.012-.027-.016-.045l-.088-.227zM103.9 111.77a.1.1 0 0 1 .012.037c0 .061-.246.137-.434.137-.25 0-.418-.109-.48-.26-.07-.18-.07-.596-.07-.785v-2.811c0-.037.016-.059.035-.064l.256-.064c.039-.012.025-.006.061-.012.035 0 .035.043.035.072v2.891c0 .166.006.443.016.508.01.059.057.189.205.189.131 0 .229-.07.264-.07.031 0 .031.016.037.033l.063.199zM105.701 111.271c-.082.076-.316.336-.58.336-.262 0-.373-.244-.373-.461 0-.568.729-.568.953-.572v.697zm.387-1.32c0-.455-.197-.758-.785-.758-.326 0-.795.156-.795.248 0 .027.006.043.016.07l.066.189c.006.018.02.027.035.027.047 0 .281-.174.623-.174.361 0 .453.174.453.488v.195c-.316.01-1.336.025-1.336.941 0 .482.26.764.662.764.424 0 .674-.305.734-.363.025.076.119.363.195.363.01 0 .02-.006.039-.018l.199-.129c.021-.01.047-.021.047-.043 0-.033-.072-.137-.092-.201-.047-.15-.062-.199-.062-.541v-1.058h.001zM108.328 111.271c-.082.076-.316.336-.582.336-.26 0-.371-.244-.371-.461 0-.568.727-.568.953-.572v.697zm.387-1.32c0-.455-.199-.758-.785-.758-.326 0-.795.156-.795.248 0 .027.004.043.016.07l.066.189c.004.018.02.027.035.027.045 0 .279-.174.621-.174.363 0 .455.174.455.488v.195c-.316.01-1.336.025-1.336.941 0 .482.26.764.662.764.424 0 .674-.305.734-.363.025.076.117.363.193.363.01 0 .021-.006.041-.018l.199-.129c.02-.01.045-.021.045-.043 0-.033-.07-.137-.092-.201-.045-.15-.061-.199-.061-.541v-1.058h.002zM110.203 111.803c0 .043-.02.064-.061.064h-.266c-.041 0-.061-.021-.061-.064v-1.857a.978.978 0 0 0-.086-.412.415.415 0 0 1-.057-.135.073.073 0 0 1 .035-.055l.189-.123c.02-.018.039-.027.051-.027.092 0 .178.336.197.453.135-.15.316-.453.613-.453.117 0 .25.043.25.092 0 .012-.012.027-.016.043l-.111.275c-.006.012-.012.039-.031.039-.027 0-.072-.049-.168-.049-.18 0-.357.281-.48.422v1.787h.002zM112.846 109.627c-.021.043-.031.064-.062.064-.035 0-.25-.146-.516-.146-.203 0-.377.107-.377.357 0 .596 1.133.428 1.133 1.271 0 .51-.377.77-.816.77-.244 0-.775-.152-.775-.26 0-.027.012-.045.021-.066l.072-.166c.014-.039.029-.049.045-.049.047 0 .311.188.658.188.219 0 .406-.129.406-.389 0-.562-1.131-.439-1.131-1.256 0-.438.322-.752.77-.752.174 0 .469.086.602.162.041.021.057.043.057.07 0 .016-.016.033-.021.055l-.066.147zM115.91 110.318c0-.27.102-.789.57-.789.443 0 .529.508.529.789h-1.099zm1.36 1.073c-.01-.016-.014-.031-.029-.031-.031 0-.297.221-.627.221-.582 0-.703-.596-.703-.926h1.463c.055 0 .055-.043.055-.119 0-.465-.076-1.342-.928-1.342-.631 0-1.01.578-1.01 1.375 0 .822.398 1.369 1.076 1.375.377 0 .807-.223.807-.281 0-.018-.012-.027-.016-.045l-.088-.227zM120.125 111.803c0 .043-.02.064-.061.064h-.266c-.039 0-.061-.021-.061-.064v-1.809c0-.232-.057-.439-.332-.439-.332 0-.545.211-.672.332v1.916c0 .043-.021.064-.062.064h-.264c-.041 0-.062-.021-.062-.064v-1.867c0-.18 0-.238-.02-.32-.041-.162-.082-.201-.082-.227 0-.012.006-.023.025-.039l.23-.135c.01-.006.023-.021.039-.021.094 0 .154.324.158.367.17-.141.434-.367.822-.367.566 0 .605.422.605.812v1.797h.003zM124.328 111.26c-.123.082-.348.32-.613.32-.412 0-.447-.514-.447-.969 0-.525.039-1.057.479-1.057.254 0 .418.088.582.18v1.526h-.001zm.387-3.24c0-.029 0-.072-.041-.072-.035.006-.02 0-.061.012l-.25.064c-.021.006-.035.027-.035.064v1.289a1.034 1.034 0 0 0-.629-.184c-.59 0-.85.648-.85 1.43 0 .67.248 1.32.795 1.32.377 0 .627-.229.748-.32.021.086.113.32.186.32.01 0 .02-.006.039-.018l.199-.129c.021-.01.047-.021.047-.043 0-.033-.066-.137-.092-.201-.057-.135-.057-.297-.057-.541v-2.991h.001zM125.943 110.318c0-.27.104-.789.572-.789.443 0 .529.508.529.789h-1.101zm1.364 1.073c-.012-.016-.016-.031-.031-.031-.031 0-.295.221-.627.221-.582 0-.705-.596-.705-.926h1.465c.057 0 .057-.043.057-.119 0-.465-.078-1.342-.928-1.342-.633 0-1.01.578-1.01 1.375 0 .822.396 1.369 1.074 1.375.379 0 .807-.223.807-.281 0-.018-.01-.027-.016-.045l-.086-.227zM131.303 109.627c-.02.043-.031.064-.061.064-.035 0-.25-.146-.516-.146-.203 0-.377.107-.377.357 0 .596 1.133.428 1.133 1.271 0 .51-.379.77-.816.77-.244 0-.775-.152-.775-.26 0-.027.01-.045.021-.066l.07-.166c.016-.039.031-.049.047-.049.045 0 .311.188.656.188.221 0 .408-.129.408-.389 0-.562-1.131-.439-1.131-1.256 0-.438.32-.752.77-.752.174 0 .469.086.602.162.041.021.057.043.057.07 0 .016-.016.033-.021.055l-.067.147zM133.74 111.666c.006.023.012.039.012.055 0 .07-.383.223-.658.223-.221 0-.404-.086-.48-.189-.148-.168-.148-.412-.148-.613v-1.537h-.381c-.037 0-.037-.037-.037-.064v-.205c0-.037 0-.066.037-.066h.381v-.74c0-.033.021-.055.057-.064l.271-.082c.016 0 .025-.006.035-.006.025 0 .025.027.025.061v.832h.754c.031 0 .057.006.057.039 0 .01-.006.021-.006.037l-.064.211c-.012.027-.037.049-.066.049h-.674v1.537c0 .219 0 .439.305.439.24 0 .445-.146.49-.146.021 0 .037.018.037.033l.053.196zM134.99 111.803c0 .043-.021.064-.061.064h-.266c-.041 0-.062-.021-.062-.064v-2.199h-.396c-.041 0-.061-.021-.061-.064v-.205c0-.043.02-.066.061-.066h.719c.057 0 .066.033.066.082v2.452zm-.219-3.157c-.174 0-.312-.146-.312-.33s.139-.332.312-.332c.172 0 .311.152.311.332 0 .178-.139.33-.311.33zM137.643 111.617c.004.018.016.027.016.045 0 .059-.43.281-.807.281-.605 0-.959-.504-.959-1.295 0-.904.408-1.455 1.035-1.455.342 0 .734.254.734.336 0 .016-.01.025-.016.043l-.117.227c-.01.016-.014.033-.029.033-.021 0-.24-.277-.541-.277-.5 0-.646.396-.646 1.014 0 .492.092 1.012.584 1.012.332 0 .598-.221.629-.221.014 0 .02.016.029.031l.088.226zM138.479 108.088c0-.037.016-.059.035-.064l.256-.064c.041-.012.025-.006.061-.012.035 0 .035.043.035.072v1.541c.164-.141.43-.367.801-.367.566 0 .607.422.607.812v1.797c0 .043-.02.064-.061.064h-.266c-.041 0-.062-.021-.062-.064v-1.809c0-.232-.055-.439-.33-.439-.332 0-.561.211-.689.332v1.916c0 .043-.02.064-.061.064h-.266c-.041 0-.061-.021-.061-.064v-3.715h.001zM142.65 111.666c.006.023.01.039.01.055 0 .07-.381.223-.658.223-.219 0-.402-.086-.479-.189-.148-.168-.148-.412-.148-.613v-1.537h-.381c-.037 0-.037-.037-.037-.064v-.205c0-.037 0-.066.037-.066h.381v-.74c0-.033.021-.055.057-.064l.27-.082c.016 0 .027-.006.035-.006.027 0 .027.027.027.061v.832h.754c.031 0 .057.006.057.039 0 .01-.006.021-.006.037l-.066.211a.072.072 0 0 1-.066.049h-.672v1.537c0 .219 0 .439.305.439.24 0 .445-.146.49-.146.021 0 .035.018.035.033l.055.196zM143.9 111.803c0 .043-.021.064-.062.064h-.266c-.039 0-.061-.021-.061-.064v-2.199h-.398c-.041 0-.061-.021-.061-.064v-.205c0-.043.02-.066.061-.066h.721c.055 0 .066.033.066.082v2.452zm-.22-3.157c-.174 0-.311-.146-.311-.33s.137-.332.311-.332.311.152.311.332c-.001.178-.137.33-.311.33zM146.836 111.803c0 .043-.02.064-.061.064h-.266c-.041 0-.061-.021-.061-.064v-1.809c0-.232-.057-.439-.332-.439-.33 0-.545.211-.672.332v1.916c0 .043-.021.064-.062.064h-.266c-.039 0-.061-.021-.061-.064v-1.867c0-.18 0-.238-.021-.32-.039-.162-.08-.201-.08-.227 0-.012.004-.023.025-.039l.229-.135c.012-.006.027-.021.041-.021.092 0 .152.324.158.367.168-.141.434-.367.822-.367.564 0 .605.422.605.812v1.797h.002zM149.152 111.164c-.117.086-.332.27-.598.27-.346 0-.443-.361-.443-.936 0-.58.184-.943.572-.943.203 0 .383.104.469.146v1.463zm.387-1.176c0-.193.02-.266.066-.4.047-.129.092-.156.092-.199 0-.012 0-.018-.02-.033l-.23-.152c-.01-.004-.025-.01-.045-.01-.047 0-.102.098-.148.232-.066-.055-.266-.232-.602-.232-.648 0-.959.557-.959 1.406 0 .764.322 1.197.785 1.197.342 0 .576-.195.693-.299 0 .066.016.289.016.559 0 .293-.055.584-.529.584-.352 0-.658-.211-.699-.211-.021 0-.031.018-.035.033l-.082.184c-.016.033-.021.043-.021.07 0 .104.475.287.857.287.688 0 .896-.461.896-.953 0-.293-.035-.926-.035-1.229v-.834zM153.287 111.84c-.004.027-.016.064-.047.064h-.365c-.047 0-.051-.031-.051-.064l-.627-3.529a.294.294 0 0 1-.012-.064c0-.033.041-.039.057-.043l.25-.066c.02-.004.051-.016.066-.016.025 0 .035.049.041.098l.434 2.637c.014.098.029.428.041.572h.01c.014-.211.025-.404.061-.605l.488-2.598c.006-.033.012-.066.047-.066h.322c.035 0 .045.033.051.066l.424 2.674c.02.135.051.34.051.529h.01c.01-.178.01-.389.035-.535l.463-2.674c.012-.049.016-.098.041-.098.016 0 .047.012.072.016l.244.066c.035.01.057.016.057.043 0 .016-.006.043-.01.064l-.699 3.529c-.006.027-.01.064-.051.064h-.383c-.035 0-.045-.021-.051-.064l-.428-2.994h-.01l-.531 2.994zM156.975 111.607c-.469 0-.602-.461-.602-1.078 0-.535.139-1 .596-1 .459 0 .598.486.598 1.018-.001.623-.139 1.06-.592 1.06zm1.009-1.056c0-.762-.297-1.357-.994-1.357-.74 0-1.035.639-1.035 1.385 0 .775.295 1.365.982 1.365.747-.001 1.047-.633 1.047-1.393zM159.789 111.607c-.469 0-.602-.461-.602-1.078 0-.535.137-1 .596-1s.598.486.598 1.018c0 .623-.139 1.06-.592 1.06zm1.01-1.056c0-.762-.297-1.357-.994-1.357-.74 0-1.035.639-1.035 1.385 0 .775.295 1.365.982 1.365.746-.001 1.047-.633 1.047-1.393zM163.547 111.803c0 .043-.021.064-.061.064h-.266c-.041 0-.061-.021-.061-.064v-1.809c0-.232-.057-.439-.332-.439-.332 0-.545.211-.674.332v1.916c0 .043-.02.064-.061.064h-.266c-.041 0-.061-.021-.061-.064v-1.867c0-.18 0-.238-.02-.32-.043-.162-.082-.201-.082-.227 0-.012.004-.023.025-.039l.229-.135c.01-.006.025-.021.041-.021.092 0 .152.324.158.367.168-.141.434-.367.82-.367.566 0 .607.422.607.812v1.797h.004zM166.367 111.678c.01.016.035.037.035.064 0 .021-.02.027-.031.039l-.178.129c-.021.012-.041.033-.061.033-.025 0-.047-.027-.057-.043l-1.041-1.365h-.01v1.268c0 .043-.021.064-.061.064h-.266c-.041 0-.061-.021-.061-.064v-3.715c0-.037.016-.059.035-.064l.254-.064c.043-.012.027-.006.062-.012.035 0 .035.043.035.072v2.441l1.016-1.225c.014-.016.029-.043.055-.043.021 0 .041.021.061.031l.18.131c.01.01.031.016.031.037 0 .027-.021.049-.037.066l-.861 1.012.9 1.208zM167.953 111.607c-.469 0-.602-.461-.602-1.078 0-.535.137-1 .596-1s.598.486.598 1.018c0 .623-.139 1.06-.592 1.06zm1.01-1.056c0-.762-.297-1.357-.994-1.357-.738 0-1.035.639-1.035 1.385 0 .775.297 1.365.984 1.365.744-.001 1.045-.633 1.045-1.393zM169.926 109.945c0-.125-.004-.254-.031-.379-.023-.125-.064-.156-.064-.184 0-.012.004-.021.025-.039l.219-.129c.01-.006.031-.021.047-.021.076 0 .133.281.137.318.133-.129.449-.318.662-.318.332 0 .475.107.541.324.152-.119.428-.324.674-.324.566 0 .605.422.605.812v1.797c0 .043-.02.064-.061.064h-.266c-.039 0-.061-.021-.061-.064v-1.809c0-.232-.057-.439-.326-.439-.246 0-.398.146-.5.223v2.025c0 .043-.02.064-.061.064h-.266c-.041 0-.061-.021-.061-.064v-1.809c0-.232-.057-.439-.332-.439-.229 0-.408.152-.494.229v2.02c0 .043-.021.064-.061.064h-.268c-.039 0-.061-.021-.061-.064v-1.858h.003zM174.281 109.82c.127-.107.342-.266.607-.266.412 0 .447.516.447.971 0 .523-.041 1.055-.479 1.055-.256 0-.414-.086-.576-.178v-1.582h.001zm-.388 3.114c0 .027 0 .07.037.07.035-.006.02 0 .061-.012l.256-.064c.02-.006.035-.027.035-.064v-1.105c.137.094.311.186.621.186.592 0 .852-.65.852-1.43 0-.672-.25-1.32-.795-1.32-.377 0-.627.227-.75.318-.02-.086-.111-.318-.184-.318-.01 0-.02.006-.041.016l-.197.131c-.021.01-.047.021-.047.043 0 .031.072.135.092.199.061.195.061.336.061.543v2.807h-.001zM177.818 111.271c-.08.076-.316.336-.58.336-.26 0-.373-.244-.373-.461 0-.568.729-.568.953-.572v.697zm.389-1.32c0-.455-.199-.758-.785-.758-.326 0-.795.156-.795.248 0 .027.004.043.014.07l.066.189a.038.038 0 0 0 .037.027c.045 0 .279-.174.621-.174.363 0 .453.174.453.488v.195c-.316.01-1.334.025-1.334.941 0 .482.26.764.662.764.424 0 .672-.305.734-.363.025.076.117.363.193.363.01 0 .021-.006.041-.018l.199-.129c.02-.01.045-.021.045-.043 0-.033-.07-.137-.092-.201-.045-.15-.061-.199-.061-.541v-1.058h.002zM180.467 109.627c-.021.043-.031.064-.062.064-.035 0-.25-.146-.514-.146-.205 0-.379.107-.379.357 0 .596 1.133.428 1.133 1.271 0 .51-.377.77-.816.77-.244 0-.775-.152-.775-.26 0-.027.01-.045.021-.066l.07-.166c.016-.039.031-.049.047-.049.045 0 .311.188.656.188.221 0 .408-.129.408-.389 0-.562-1.131-.439-1.131-1.256 0-.438.32-.752.77-.752.174 0 .469.086.602.162.041.021.057.043.057.07 0 .016-.016.033-.021.055l-.066.147z" fill="#fff"/><path d="M34.146 78.183c.146-.784.365-.784.548-.784.219 0 .401.04.547.079l2.738.587c.292.079.694.157.694.392 0 .196-.109.587-.182.862l-5.33 24.904c-.146.549-.256.705-.804.705h-3.14c-.657 0-.694-.117-.803-.705l-2.41-13.157c-.329-1.762-.657-4.189-.839-6.774h-.073c-.182 2.624-.512 4.973-.914 6.774l-2.957 13.157c-.146.588-.146.705-.803.705h-3.14c-.547 0-.693-.156-.803-.705L11.729 79.28c-.037-.274-.146-.627-.146-.862s.402-.314.694-.392l2.848-.548c.146-.04.329-.079.547-.079.183 0 .402 0 .549.784l2.189 12.688c.365 2.153.657 5.403.803 7.401h.074c.219-2.232.73-5.404 1.168-7.401l2.593-11.944c.183-.822.219-1.174 1.095-1.174h2.482c.584 0 .621.352.803 1.174l2.592 11.944c.439 1.997.804 5.168 1.023 7.401h.073c.146-1.998.475-5.248.84-7.401l2.19-12.688zM45.238 101.326c-2.556 0-2.994-2.781-2.994-6.422 0-3.642.475-6.422 2.994-6.422 2.52 0 2.994 2.781 2.994 6.422-.001 3.68-.439 6.422-2.994 6.422zm7.923-6.422c0-6.305-3.031-10.338-7.923-10.338-4.929 0-7.923 4.034-7.923 10.338 0 6.303 2.994 10.338 7.923 10.338s7.923-4.035 7.923-10.338zM69.162 104.027c0 .43-.074.549-.512.549h-3.614c-.438 0-.511-.119-.511-.549v-12.06c0-1.488-.182-3.29-2.044-3.29-1.533 0-2.738 1.136-3.212 1.606v13.744c0 .43-.073.549-.511.549h-3.615c-.438 0-.511-.119-.511-.549V92.201c0-5.521-.694-5.208-.694-6.108 0-.195.146-.353.401-.43l2.775-.979c.219-.078.402-.118.547-.118.476 0 .768.862 1.169 2.702 1.059-1.018 2.702-2.702 5.586-2.702 2.009 0 4.747.979 4.747 5.718v13.743h-.001zM75.438 92.593c.109-1.097.255-4.386 3.103-4.386 2.52 0 2.629 2.78 2.629 4.386h-5.732zm9.053 7.557c-.073-.156-.219-.312-.401-.312-.511 0-2.008 1.291-4.637 1.291-3.432 0-4.015-2.701-4.015-4.895h9.821c.694 0 .84-.235.84-.979 0-4.738-1.096-10.69-7.303-10.69-4.892 0-7.995 4.308-7.995 10.534 0 7.206 3.359 10.143 8.177 10.143 2.885 0 6.536-1.293 6.536-2.312a.848.848 0 0 0-.109-.43l-.914-2.35zM102.32 104.027c0 .43-.074.549-.514.549h-3.613c-.438 0-.512-.119-.512-.549v-12.06c0-1.488-.182-3.29-2.043-3.29-1.534 0-2.739 1.136-3.214 1.606v13.744c0 .43-.073.549-.511.549h-3.614c-.438 0-.512-.119-.512-.549V92.201c0-5.521-.693-5.208-.693-6.108 0-.195.146-.353.401-.43l2.774-.979c.22-.078.402-.118.548-.118.476 0 .768.862 1.169 2.702 1.058-1.018 2.701-2.702 5.585-2.702 2.008 0 4.748.979 4.748 5.718v13.743h.001z" fill="#295ba7" stroke="#295ba7" stroke-width=".529" stroke-miterlimit="2.613"/><path d="M146.359 92.645c0 .249-.053.29-.279.29h-1.176c-.227 0-.279-.041-.279-.29l-.107-4.691c-.014-.498-.027-1.715-.027-2.213h-.025c-.08.498-.32 1.674-.469 2.172l-.814 2.699c-.053.193-.066.235-.293.235h-.828c-.227 0-.24-.042-.293-.235l-.775-2.699c-.146-.498-.387-1.674-.467-2.172h-.027c0 .498-.014 1.716-.025 2.213l-.135 4.691c-.012.249-.053.29-.279.29h-.975c-.229 0-.295-.041-.281-.29l.373-8.897c0-.249.055-.29.281-.29h1.281c.215 0 .229.014.295.222l1.08 3.486c.174.554.32 1.121.402 1.661h.025c.08-.54.135-.747.428-1.661l1.135-3.486c.066-.194.08-.222.32-.222h1.281c.229 0 .254.069.281.443l.372 8.744zM150.672 92.743c0 .151-.025.192-.186.192h-1.322c-.16 0-.188-.041-.188-.192v-5.355h-1.027c-.16 0-.188-.041-.188-.193v-.899c0-.153.027-.194.188-.194h2.537c.16 0 .186.042.186.194v6.447zm-.854-7.542c-.615 0-1.109-.512-1.109-1.147 0-.637.494-1.135 1.109-1.135.6 0 1.094.498 1.094 1.135 0 .635-.494 1.147-1.094 1.147zM156.387 91.303c-.16.18-.387.485-.988.485-.867 0-1.121-.664-1.121-2.228 0-1.536.201-2.311 1.201-2.311.561 0 .787.208.908.276v3.778zm1.816 1.383c.066-.027.119-.068.119-.124 0-.277-.24-.457-.24-1.799v-7.555c0-.235-.025-.291-.133-.291-.027 0-.146.042-.188.042l-1.121.235c-.16.041-.254.041-.254.249v2.836c-.213-.153-.521-.416-1.242-.416-1.654 0-2.562 1.315-2.562 3.93 0 2.104.76 3.376 2.283 3.376.961 0 1.549-.622 1.762-.83.066.345.268.83.387.83.055 0 .121-.041.174-.055l1.015-.428zM163.584 91.303c-.16.18-.387.485-.988.485-.867 0-1.121-.664-1.121-2.228 0-1.536.199-2.311 1.201-2.311.561 0 .787.208.908.276v3.778zm1.816 1.383c.066-.027.119-.068.119-.124 0-.277-.24-.457-.24-1.799v-7.555c0-.235-.027-.291-.133-.291-.027 0-.148.042-.188.042l-1.121.235c-.162.041-.254.041-.254.249v2.836c-.213-.153-.521-.416-1.242-.416-1.656 0-2.564 1.315-2.564 3.93 0 2.104.762 3.376 2.285 3.376.961 0 1.547-.622 1.762-.83.066.345.268.83.387.83.053 0 .121-.041.174-.055l1.015-.428zM168.656 88.701c.041-.387.094-1.549 1.137-1.549.92 0 .961.982.961 1.549h-2.098zm3.313 2.671c-.027-.055-.08-.111-.148-.111-.186 0-.734.457-1.695.457-1.254 0-1.469-.955-1.469-1.729h3.594c.252 0 .307-.083.307-.347 0-1.674-.402-3.777-2.67-3.777-1.791 0-2.926 1.522-2.926 3.723 0 2.546 1.229 3.583 2.992 3.583 1.053 0 2.389-.456 2.389-.816a.304.304 0 0 0-.039-.152l-.335-.831zM179.592 92.743c0 .151-.027.192-.186.192h-1.322c-.16 0-.188-.041-.188-.192V88.48c0-.526-.066-1.162-.748-1.162-.561 0-1 .401-1.174.567v4.857c0 .151-.027.192-.188.192h-1.322c-.16 0-.186-.041-.186-.192v-4.179c0-1.952-.254-1.84-.254-2.159 0-.069.053-.125.146-.152l1.014-.346a.668.668 0 0 1 .199-.042c.176 0 .281.305.43.955.387-.359.988-.955 2.043-.955.732 0 1.734.347 1.734 2.021v4.858h.002zM127.828 104.406c0 .248-.041.291-.281.291h-.881c-.188 0-.227-.029-.307-.193l-2.443-4.719c-.4-.775-.629-1.26-.762-1.883h-.025c0 .18.039.887.039 1.523v4.98c0 .248-.053.291-.281.291h-.973c-.229 0-.281-.043-.281-.291v-8.897c0-.25.053-.291.281-.291h1.094c.201 0 .227.028.307.18l2.203 4.289c.373.734.629 1.439.787 2.008h.027c0-.443-.039-1.412-.039-1.801v-4.385c0-.25.053-.291.279-.291h.975c.227 0 .281.042.281.291v8.898zM131.445 100.463c.041-.387.094-1.549 1.135-1.549.922 0 .963.98.963 1.549h-2.098zm3.313 2.67c-.027-.055-.08-.111-.148-.111-.186 0-.734.457-1.695.457-1.254 0-1.469-.955-1.469-1.729h3.592c.254 0 .309-.084.309-.346 0-1.676-.402-3.779-2.672-3.779-1.789 0-2.924 1.523-2.924 3.723 0 2.547 1.229 3.584 2.992 3.584 1.053 0 2.389-.455 2.389-.816a.307.307 0 0 0-.039-.152l-.335-.831zM140.512 103.064c-.16.18-.387.482-.988.482-.867 0-1.121-.662-1.121-2.227 0-1.535.199-2.311 1.201-2.311.561 0 .789.207.908.277v3.779zm1.816 1.383c.066-.027.119-.068.119-.125 0-.275-.24-.455-.24-1.799v-7.554c0-.235-.025-.29-.133-.29-.027 0-.146.041-.188.041l-1.121.235c-.16.042-.254.042-.254.249v2.836c-.213-.152-.521-.416-1.24-.416-1.656 0-2.564 1.316-2.564 3.932 0 2.102.76 3.375 2.283 3.375.961 0 1.549-.623 1.762-.83.066.346.268.83.389.83.053 0 .119-.041.172-.055l1.015-.429zM145.586 100.463c.039-.387.094-1.549 1.135-1.549.922 0 .961.98.961 1.549h-2.096zm3.31 2.67c-.027-.055-.08-.111-.146-.111-.188 0-.734.457-1.695.457-1.256 0-1.469-.955-1.469-1.729h3.592c.254 0 .307-.084.307-.346 0-1.676-.4-3.779-2.67-3.779-1.789 0-2.924 1.523-2.924 3.723 0 2.547 1.227 3.584 2.99 3.584 1.055 0 2.391-.455 2.391-.816a.288.288 0 0 0-.041-.152l-.335-.831zM152.916 104.504c0 .15-.027.193-.188.193h-1.32c-.162 0-.188-.043-.188-.193v-4.18c0-1.521-.348-1.771-.348-2.09 0-.055.053-.096.119-.123l1.016-.43c.053-.014.119-.057.174-.057.16 0 .426.625.494 1.094.254-.318.746-1.094 1.656-1.094.387 0 .773.139.773.32a.36.36 0 0 1-.027.137l-.414 1.162c-.012.043-.053.125-.105.125-.08 0-.322-.152-.627-.152-.414 0-.842.471-1.016.664v4.624h.001zM159.084 104.434c.014.07.027.07.027.111 0 .193-.709.387-1.35.387-1.643 0-1.643-1.396-1.643-2.67v-7.057c0-.208.094-.208.254-.249l1.123-.235c.039 0 .16-.041.186-.041.107 0 .135.055.135.29v7.541c0 .443 0 .832.373.832.268 0 .441-.125.521-.125.053 0 .094.027.107.082l.267 1.134zM163.424 103.119c-.16.166-.508.525-1.002.525-.508 0-.881-.4-.881-.939 0-1.219 1.549-1.107 1.883-1.107v1.521zm1.828 1.328c.066-.027.121-.068.121-.125 0-.275-.348-.455-.348-1.799v-2.67c0-1.438-.627-2.229-2.295-2.229-1.029 0-2.352.334-2.352.652 0 .055.014.109.041.166l.266.844c.014.055.066.139.135.139.174 0 .908-.416 1.654-.416.842 0 .949.402.949 1.025v.428c-1.055 0-3.484 0-3.484 2.338 0 1.301.773 2.131 2.002 2.131 1.002 0 1.469-.553 1.734-.83.068.346.268.83.389.83.055 0 .119-.041.174-.055l1.014-.429zM172.396 104.504c0 .15-.027.193-.188.193h-1.322c-.16 0-.188-.043-.188-.193v-4.262c0-.527-.066-1.162-.746-1.162-.561 0-1.002.4-1.176.566v4.857c0 .15-.027.193-.188.193h-1.32c-.16 0-.188-.043-.188-.193v-4.18c0-1.951-.254-1.84-.254-2.158 0-.07.053-.125.146-.152l1.016-.346a.663.663 0 0 1 .199-.043c.174 0 .281.307.428.955.387-.359.988-.955 2.043-.955.734 0 1.736.348 1.736 2.021v4.859h.002zM177.963 103.064c-.16.18-.387.482-.986.482-.869 0-1.123-.662-1.123-2.227 0-1.535.201-2.311 1.201-2.311.562 0 .789.207.908.277v3.779zm1.816 1.383c.066-.027.121-.068.121-.125 0-.275-.242-.455-.242-1.799v-7.554c0-.235-.025-.29-.133-.29-.027 0-.146.041-.188.041l-1.121.235c-.16.042-.254.042-.254.249v2.836c-.213-.152-.52-.416-1.24-.416-1.656 0-2.564 1.316-2.564 3.932 0 2.102.762 3.375 2.283 3.375.961 0 1.549-.623 1.762-.83.066.346.268.83.387.83.055 0 .121-.041.174-.055l1.015-.429z" fill="#cc2229" stroke="#cc2229" stroke-width=".193" stroke-miterlimit="2.613"/><path d="M121.25 94.854c0 5.229-4.24 9.465-9.471 9.465-5.229 0-9.469-4.236-9.469-9.465 0-5.228 4.24-9.465 9.469-9.465 5.231 0 9.471 4.237 9.471 9.465z" fill="#fff" stroke="#000" stroke-width="1.728" stroke-miterlimit="2.613"/><path d="M109.037 99.262c-.029.158-.072.172-.215.172h-1.182c-.59 0-1.295-.129-1.295-.879 0-.215.043-.43.086-.646l.922-4.288h-1.109c-.129 0-.188-.043-.188-.144 0-.058.016-.115.029-.173l.158-.806c.029-.159.072-.172.217-.172h2.662c.115 0 .174.028.174.143 0 .072-.016.13-.029.188l-1.166 5.482h.936c.115 0 .188.07.188.143a.704.704 0 0 1-.029.174l-.159.806zm-.172-7.872a1.181 1.181 0 0 1-1.182-1.195c0-.719.605-1.179 1.182-1.179.59 0 1.193.475 1.193 1.179a1.189 1.189 0 0 1-1.193 1.195zM117.316 99.262c-.029.158-.072.172-.201.172h-1.195c-.59 0-1.297-.129-1.297-.879 0-.215.059-.43.102-.646l.648-2.877c.057-.289.129-.576.129-.878 0-.331-.201-.562-.576-.562-1.137 0-1.656 1.785-1.887 2.821l-.619 2.85c-.029.158-.057.172-.199.172h-1.34c-.115 0-.188-.029-.188-.145-.016-.043 0-.1.014-.158l.994-4.374c.072-.316.172-.676.172-1.137h-.85c-.129 0-.188-.043-.188-.144 0-.058.016-.115.029-.173l.158-.806c.029-.159.072-.172.217-.172h1.914c.332 0 .332 1.05.332 1.236h.029c.346-.46 1.193-1.481 2.461-1.481.777 0 1.354.518 1.354 1.511 0 .374-.072.763-.158 1.123l-.791 3.424h.936c.129 0 .188.043.188.143 0 .059-.016.115-.029.174l-.159.806z"/></g></svg>