<svg height="1056" viewBox="8.69 5.47 213.79 92.14" width="2500" xmlns="http://www.w3.org/2000/svg"><path d="m15.15 97.49-.52-1.25h-3.59l-.52 1.25h-1.83l4.07-9.3h.16l4.23 9.3zm-1.78-4.23c-.26-.61-.53-1.55-.56-1.64-.01.04-.29 1-.54 1.64l-.58 1.4h2.27zm13.93 4.31h-.19l-2.08-4.45c-.23-.49-.49-1.27-.52-1.36-.01.04-.3.85-.53 1.36l-2.16 4.45h-.19l-3.42-9.3h2.01l1.35 3.7c.22.61.46 1.57.49 1.67.01-.05.27-1.06.57-1.67l1.78-3.78h.19l1.81 3.78c.29.6.54 1.57.57 1.67.01-.05.26-1.04.49-1.67l1.33-3.7h1.85zm12.83-1.75v1.67h-6.31v-9.22h6.12v1.67h-4.22v2.11h3.71v1.63h-3.71v2.14zm8.62 1.67v-9.22h1.9v9.22zm13.19.08-4.67-4.36c-.46-.43-1.1-1.26-1.1-1.26s.14 1.02.14 1.68v3.86h-1.78v-9.3h.19l4.67 4.36c.45.42 1.09 1.26 1.09 1.26s-.12-1.04-.12-1.68v-3.86h1.78v9.3zm6.58-7.76c-.56 0-.91.35-.91.81 0 .57.35.8 1.17 1.15l.48.2c1.62.69 2.53 1.4 2.53 2.98 0 1.71-1.35 2.64-3.16 2.64-1.77 0-2.91-.84-3.47-1.94l1.55-.9c.41.66.94 1.15 1.88 1.15.79 0 1.29-.39 1.29-.94 0-.65-.52-.88-1.39-1.26l-.48-.2c-1.37-.58-2.29-1.32-2.29-2.86 0-1.42 1.09-2.51 2.79-2.51 1.21 0 2.08.42 2.71 1.52l-1.48.95c-.32-.56-.68-.79-1.22-.79zm9.9 4.65h-1.35v3.02h-1.91v-9.22h3.25c1.89 0 3.44.94 3.44 3.09.02 2.16-1.55 3.11-3.43 3.11zm-.05-4.52h-1.29v2.86h1.29c.94 0 1.54-.42 1.54-1.44 0-1.03-.63-1.42-1.54-1.42zm6.92 7.55v-9.22h1.91v9.22zm10.83-3.49 2.11 3.48h-2.18l-1.88-3.2h-1.21v3.2h-1.91v-9.22h3.43c1.89 0 3.44.88 3.44 3.04.01 1.4-.72 2.28-1.8 2.7zm-1.68-4.06h-1.47v2.75h1.47c.94 0 1.54-.37 1.54-1.38-.01-1.04-.63-1.37-1.54-1.37zm13.4 5.88v1.67h-6.31v-9.22h6.12v1.67h-4.22v2.11h3.71v1.63h-3.71v2.14zm6.51 1.67h-2.84v-9.22h2.84c2.84 0 4.87 1.88 4.87 4.61 0 2.72-2.01 4.61-4.87 4.61zm-.09-7.55h-.84v5.88h.84c2.06 0 2.99-1.22 2.99-2.94s-.94-2.94-2.99-2.94zm8.66 7.63c-.63 0-1.16-.47-1.16-1.15 0-.66.53-1.14 1.16-1.14.61 0 1.14.47 1.14 1.14s-.53 1.15-1.14 1.15zm12.03-7.76c-.56 0-.91.35-.91.81 0 .57.35.8 1.17 1.15l.48.2c1.62.69 2.53 1.4 2.53 2.98 0 1.71-1.35 2.64-3.16 2.64-1.77 0-2.91-.84-3.47-1.94l1.55-.9c.41.66.94 1.15 1.88 1.15.79 0 1.29-.39 1.29-.94 0-.65-.52-.88-1.39-1.26l-.48-.2c-1.37-.58-2.29-1.32-2.29-2.86 0-1.42 1.09-2.51 2.79-2.51 1.21 0 2.08.42 2.71 1.52l-1.48.95c-.32-.56-.68-.79-1.22-.79zm6.69 7.68v-9.22h1.91v9.22zm13.18.08-4.67-4.36c-.46-.43-1.1-1.26-1.1-1.26s.14 1.02.14 1.68v3.86h-1.78v-9.3h.19l4.67 4.36c.45.42 1.09 1.26 1.09 1.26s-.12-1.04-.12-1.68v-3.86h1.78v9.3zm8.48-7.7c-1.67 0-2.8 1.29-2.8 3.01s1.13 3.04 2.8 3.04c1.2 0 1.86-.57 2.38-1.36l1.48 1.02c-.8 1.25-2.08 2.03-3.86 2.03-2.65 0-4.76-2.01-4.76-4.73s2.11-4.72 4.76-4.72c1.67 0 2.87.6 3.7 1.88l-1.46 1.03c-.43-.7-1.18-1.2-2.24-1.2zm13.5 5.95v1.67h-6.31v-9.22h6.12v1.67h-4.22v2.11h3.71v1.63h-3.71v2.14zm9.69 1.67v-7.52h-1.66v-1.69h3.58v9.22h-1.92zm11.54-3.6-2.44 3.59h-2.11l1.4-2.07c.38-.57.84-1.03.84-1.03-.23.11-.65.16-.87.16-1.73 0-3.08-1.26-3.08-3.1 0-1.82 1.44-3.29 3.58-3.29 2.1 0 3.58 1.44 3.58 3.21.01.88-.35 1.72-.9 2.53zm-2.67-4.04c-1.05 0-1.62.75-1.62 1.59 0 .85.54 1.63 1.62 1.63 1.01 0 1.62-.75 1.62-1.63 0-.84-.61-1.59-1.62-1.59zm9.2 7.64h-2.03l3.59-7.52h-4.45v-1.69h7.24v.16zm12.99-3.6-2.44 3.59h-2.11l1.4-2.07c.38-.57.84-1.03.84-1.03-.23.11-.65.16-.87.16-1.73 0-3.08-1.26-3.08-3.1 0-1.82 1.44-3.29 3.58-3.29 2.1 0 3.58 1.44 3.58 3.21.01.88-.35 1.72-.9 2.53zm-2.66-4.04c-1.05 0-1.62.75-1.62 1.59 0 .85.54 1.63 1.62 1.63 1.01 0 1.62-.75 1.62-1.63 0-.84-.62-1.59-1.62-1.59zm6.44 7.72c-.63 0-1.16-.47-1.16-1.15 0-.66.53-1.14 1.16-1.14.61 0 1.14.47 1.14 1.14.01.67-.52 1.15-1.14 1.15zm-198.34-54.61c-2.23 0-3.65 1.43-3.65 3.3 0 2.31 1.41 3.25 4.68 4.68l1.9.83c6.48 2.81 10.12 5.67 10.12 12.11 0 6.93-5.39 10.73-12.63 10.73-7.07 0-11.65-3.41-13.88-7.87l6.2-3.63c1.63 2.7 3.76 4.68 7.51 4.68 3.16 0 5.17-1.6 5.17-3.8 0-2.64-2.07-3.58-5.55-5.12l-1.91-.82c-5.5-2.37-9.14-5.34-9.14-11.61 0-5.78 4.35-10.18 11.16-10.18 4.84 0 8.33 1.71 10.83 6.16l-5.93 3.85c-1.29-2.37-2.71-3.31-4.88-3.31zm110.31 17.2 8.46 14.2h-8.74l-7.54-13.04h-4.86v13.04h-7.65v-37.58h13.76c7.59 0 13.81 3.59 13.81 12.38.02 5.7-2.93 9.29-7.24 11zm-6.77-16.58h-5.9v11.22h5.9c3.77 0 6.17-1.49 6.17-5.64 0-4.2-2.52-5.58-6.17-5.58zm48.55 23.99v6.8h-25.34v-37.59h24.57v6.8h-16.92v8.62h14.9v6.64h-14.9v8.73zm-71.67 0v6.8h-25.34v-37.59h24.58v6.8h-16.93v8.62h14.91v6.64h-14.91v8.73zm-62.22-30.79v6.8h10.57v30.79h7.64v-30.79h10.57v-6.8zm160.45-.54c-10.81 0-19.23 8.39-19.23 19.16s8.43 19.16 19.23 19.16c10.81 0 19.23-8.39 19.23-19.16s-8.42-19.16-19.23-19.16zm0 31.55c-6.54 0-11.51-5.36-11.51-12.39s4.97-12.4 11.51-12.4 11.51 5.36 11.51 12.39-4.97 12.4-11.51 12.4zm-148.68-62.32c-6.24 0-11.1 4.86-11.1 11.09s4.86 11.09 11.1 11.09 11.1-4.86 11.1-11.09-4.86-11.09-11.1-11.09zm0 19.23c-4.4 0-7.74-3.52-7.74-8.13s3.34-8.13 7.74-8.13 7.74 3.52 7.74 8.13-3.34 8.13-7.74 8.13zm166.63-.33v2.95h-13.97v-21.68h13.64v2.95h-10.32v6.42h9.22v2.88h-9.22v6.48zm-123.93-.02h9.97v2.95h-13.29v-21.48h3.32zm76.95-18.53h3.32v21.48h-3.32zm-92.28 12.97c2.58-.91 4.45-2.73 4.45-6.2 0-4.8-3.4-6.83-7.54-6.83h-7.51v21.61h3.32v-8.05h3.89l4.7 8.05h3.79zm-7.28-2.32v-7.8h4.03c2.5 0 4.22.96 4.22 3.88 0 2.88-1.64 3.92-4.22 3.92zm44.39-10.71h-6.42v21.54h6.42c6.45 0 11-4.4 11-10.77-.01-6.37-4.58-10.77-11-10.77zm-.84 18.67h-2.36v-15.8h2.36c5.76 0 8.38 3.28 8.38 7.9s-2.62 7.9-8.38 7.9zm72.51-18.67h-6.42v21.54h6.42c6.45 0 11-4.4 11-10.77-.01-6.37-4.58-10.77-11-10.77zm-.84 18.67h-2.36v-15.8h2.36c5.76 0 8.38 3.28 8.38 7.9s-2.62 7.9-8.38 7.9zm-163.12-18.83 4.97 11.89c.49 1.1.92 2.9.94 3 .05-.17.45-1.9.81-3l3.93-11.72h3.33l-7.41 21.78h-.32l-3.44-7.99c-.39-.9-2.95-7.46-2.98-7.53-.02.07-2.58 6.63-2.98 7.53l-3.44 7.99h-.31l-7.39-21.78h3.33l3.93 11.71c.36 1.1.76 2.83.81 3 .02-.1.45-1.9.94-3l4.96-11.88zm128.54 0 4.97 11.89c.49 1.1.92 2.9.94 3 .05-.17.45-1.9.81-3l3.93-11.71h3.33l-7.41 21.78h-.31l-3.44-7.99c-.39-.9-2.95-7.46-2.98-7.53-.02.07-2.58 6.63-2.98 7.53l-3.44 7.99h-.31l-7.4-21.79h3.33l3.93 11.71c.36 1.1.76 2.83.81 3 .02-.1.45-1.9.94-3l4.97-11.89h.31z" fill="#e8c339"/></svg>