<svg enable-background="new 0 0 2499 1833.4" viewBox="0 0 2499 1833.4" xmlns="http://www.w3.org/2000/svg"><path d="m4.1.1c-1.7.5-2.8 51.8-2.6 143.9v142.8l9.8 4.7c5.3 2.8 20.1 9.5 33.2 14.8 13.1 5.6 25.9 11.2 28.5 12.8 2.8 1.4 6.4 2.5 8.1 2.5s12.6 4.5 24 9.8 22.6 9.8 24.5 9.8c2.2 0 4.5 1.1 5.3 2.5s5 3.3 9.2 4.5c3.9.8 15.3 5.3 24.8 10 9.8 4.5 19.5 8.1 21.8 8.1s4.7 1.1 5.6 2.5c.8 1.4 4.7 3.3 8.4 4.2 6.7 1.7 39.9 15.9 49.6 21.2 2.8 1.7 6.4 2.8 7.8 2.8 2.8 0 11.4 3.3 34.9 13.9 23.4 10.3 32.1 13.9 34.6 13.9 1.4 0 8.1 2.8 14.8 6.4 6.7 3.3 18.4 8.6 25.9 11.4 7.8 2.8 17.9 6.7 22.3 8.9 4.7 2 19.8 8.1 33.5 13.7 13.9 5.6 27.6 11.4 30.7 12.6 20.1 8.6 34.6 14.8 42.4 18.4 4.7 2.2 9.8 3.9 11.2 3.9s9.5 3.3 17.9 7.3c8.4 4.2 25.9 11.4 39.3 16.7 13.1 5 26.2 10.3 29.3 12 8.6 5 31 14.2 34.3 14.2 1.4 0 5 1.1 7.8 2.8 8.4 4.5 37.4 17 56.3 24 10 3.6 22 8.6 26.5 10.6 13.7 6.4 28.7 12.8 30.1 12.8.8 0 10 3.9 20.6 8.6 10.3 4.7 22.9 10.3 27.9 12.6 4.7 2.2 10 3.9 11.7 3.9s5.3 1.1 8.1 2.8c7.5 3.9 42.7 19.5 44.3 19.5 1.1 0 16.2 6.1 34 13.7 17.9 7.5 39.3 16.5 47.7 19.8 8.4 3.6 21.8 9.2 29.8 12.8 7.8 3.6 15.9 6.7 17.3 6.7 1.7 0 5.3 1.1 8.1 2.8 2.5 1.4 11.2 5.3 18.7 8.4 7.8 3.3 16.5 7 19.5 8.4 3.1 1.4 17 7 30.7 12.6 13.9 5.6 26.2 11.4 27.9 12.8 1.4 1.4 4.5 2.5 7 2.5 2.2.3 9.2 2.5 15.3 5.6s12 5.3 13.1 5.6c1.1 0 9.8 3.6 19.5 7.8 9.8 4.5 22 9.8 27.3 11.7 5.3 2 16.7 6.7 25.1 10.6s21.5 9.2 29 11.7c15.3 5.3 21.5 3.9 53.3-10.9 9.2-4.5 21.2-9.5 26.5-11.4 12.6-4.5 53-21.8 59.1-25.4 2.8-1.4 6.4-2.5 8.1-2.5 1.4 0 10-3.3 18.7-7.3 8.6-4.2 28.5-12.3 43.8-18.4s29.3-12 30.7-13.1c1.7-1.1 10.9-5 20.9-8.6 18.1-6.7 49.9-20.1 59.1-25.1 2.8-1.7 6.4-2.8 7.8-2.8 3.1 0 14.8-5 43.8-18.4 7.8-3.6 15.9-6.7 17.9-6.7 2.8 0 27.9-10.9 48-21.2 4.5-2.2 9.2-3.9 10.6-3.9 1.7 0 8.6-2.5 15.9-5.9 7.3-3.1 17.6-7.5 22.9-9.8 5.3-2.2 12-5.3 14.5-6.7 2.8-1.7 6.4-2.8 8.4-2.8 1.7 0 10.9-3.6 20.1-8.1 9.5-4.5 24.5-10.9 33.7-14.2 20.6-7.8 32.1-12.8 49.9-21.2 7.8-3.6 15.1-6.7 16.2-6.7 2.2 0 11.4-3.9 34.3-13.9 23.4-10.6 32.1-13.9 34.9-13.9 1.4 0 5-1.1 7.8-2.8 7-3.9 42.4-19.5 44.3-19.5.8 0 16.7-6.4 35.1-14.2 47.1-19.5 46.9-19.5 56.3-23.4 27.6-12.3 34.9-15.3 37.7-15.3 1.4 0 5-1.1 7.8-2.8 8.1-4.5 37.4-17 53.6-22.9 8.4-3.3 24.5-10 35.7-15.1 11.2-5.3 21.5-9.5 22.9-9.5 1.7 0 5-1.1 7.8-2.8 2.5-1.4 11.2-5.3 18.7-8.4 7.8-3.3 17.9-7.5 22.3-9.5 4.7-2 12.8-5.3 18.1-7.3s17.6-7.3 27.3-11.7c9.8-4.2 18.4-7.8 19.2-7.8 1.4 0 63.3-25.4 78.1-32.4 4.7-2.2 9.2-3.9 10-3.9s9.5-3.6 19.2-7.8c9.8-4.5 22.9-10.3 29.3-13.1l12-5v-286.4h-6.4c-3.6 0-7.5 1.1-9.2 2.2-1.4 1.4-8.6 4.7-16.5 7.5-15.1 5.3-55.5 22.3-63.3 26.8-2.8 1.4-6.1 2.5-7.8 2.5s-12 4.2-23.2 9.5c-11.2 5-26.5 11.4-34 13.9-7.8 2.5-20.1 7.5-27.9 11.4-7.5 3.6-22 9.8-32.1 13.7-10 3.6-27.9 11.4-39.9 16.7-12 5.6-23.2 10-24.8 10s-11.7 4.2-22.9 9.2c-10.9 5.3-25.9 11.7-33.7 14.5-13.4 4.7-45.2 18.7-54.9 24-2.8 1.4-6.4 2.5-8.1 2.5s-7 1.7-11.7 3.9c-5 2.2-15.1 6.7-22.9 10-7.5 3.1-16.2 7-18.7 8.4-2.8 1.7-6.4 2.8-8.1 2.8-2 0-12.3 4.2-23.2 9.5-10.9 5-25.9 11.4-33.7 14.2-13.4 4.7-44.6 18.4-54.9 24-2.8 1.4-6.4 2.5-7.8 2.5-2.8 0-11.4 3.3-34.9 13.9-22.9 10.3-32.1 13.9-34.3 13.9-1.4 0-6.1 1.7-10.6 3.9-17.6 8.4-39.3 17.9-52.7 22.6-7.5 2.8-21.5 8.6-30.4 13.1-9.2 4.2-17.6 7.8-19 7.8-2.2 0-11.4 3.9-34.3 13.9s-32.1 13.9-34.3 13.9c-1.1 0-8.4 3.1-16.2 6.7-7.5 3.6-22.3 10-33.2 14.2-10.6 4.2-25.7 10.3-33.5 13.9-7.5 3.3-19.5 8.4-26.5 10.9-20.4 8.4-22.9 9.2-42.7 18.1-10.6 4.7-22.3 9.5-25.9 10.3-3.9 1.1-13.7 5-21.5 8.9-8.1 3.6-25.1 10.9-38.2 15.9-22.3 8.6-37.1 15.1-48 21.2-2.8 1.4-6.4 2.5-8.1 2.5s-7 1.7-11.7 3.9c-31 13.9-44.1 19.5-57.7 24.5-8.4 3.1-22 8.6-30.1 12.3-18.4 8.4-22.6 8.4-40.4 0-8.1-3.6-20.1-8.9-27.1-11.4-7-2.8-18.7-7.8-26.5-11.2-7.5-3.3-21.5-8.9-30.7-12.6-9.2-3.6-23.4-9.5-31.8-13.4-8.4-3.6-22.9-9.5-32.1-13.1-15.1-5.6-29.3-11.7-59.4-25.4-4.7-2.2-10-3.9-11.7-3.9s-5.3-1.1-8.1-2.8c-2.5-1.4-10.9-5.3-18.7-8.4-7.5-3.3-16.5-7-19.5-8.4-3.1-1.1-13.1-5.3-22.3-8.6-9.2-3.6-18.1-7.5-19.8-8.6s-10.9-5-20.9-8.9c-19-7-48-19.5-56.1-24-2.8-1.7-6.4-2.8-8.1-2.8s-7-1.7-11.7-3.9c-30.1-13.7-44.3-19.8-59.1-25.4-9.2-3.3-23.2-9.5-31.2-13.1-7.8-3.9-17.6-7.8-21.5-8.9-5.9-1.4-19-7-50.5-21.2-3.1-1.4-12.6-5.3-20.9-8.4-8.4-3.3-19.8-7.8-25.1-10-17.6-7.8-20.6-8.9-46-19.5-13.7-5.6-26.2-11.4-27.6-12.6-1.7-1.4-4.7-2.5-7-2.5-2.5-.3-9.5-2.5-15.6-5.6s-12-5.3-13.1-5.6c-1.1 0-10-3.9-19.8-8.4-10-4.7-19.5-8.4-21.2-8.4s-5.3-1.1-8.1-2.5c-15.1-8.4-48.3-22.6-51.9-22.6-2.5 0-6.7-1.1-9.5-2.5-11.2-6.1-41.6-19.8-44.1-19.8-1.4-.3-7.5-2.5-13.7-5.6-6.1-3.1-12-5.3-13.1-5.6-1.1 0-10-3.9-19.8-8.4-10-4.7-19.5-8.4-21.5-8.4-1.7 0-13.7-5-26.2-11.2-12.6-5.3-29.3-12.3-36.6-14.8-7.5-2.5-22.6-8.6-33.5-13.9s-21.5-9.5-23.2-9.5c-2 0-10-3.1-17.9-6.7-28.8-13.4-40.6-18.4-43.6-18.4-1.4 0-5-1.1-7.8-2.5-14.5-7.8-48-22.6-50.8-22.6-1.7 0-10.9-3.6-20.4-7.8-9.5-4.5-18.7-7.6-20-7zm-2.6 468.6c-2.2 2.2-2 275.6.3 281.4.8 2.5 8.6 7.5 17.3 11.4 8.6 3.6 19.5 8.6 24.5 10.9 4.7 2.2 10 3.9 11.4 3.9 1.7 0 6.4 1.7 10.9 3.9 22.3 11.4 45.2 21.2 49.1 21.2 2.5 0 5 1.1 6.1 2.5.8 1.4 5 3.3 9.2 4.5 4.5.8 15.3 5.3 24.5 9.8 8.9 4.7 18.1 8.4 20.1 8.4s5.6 1.1 8.4 2.8c8.6 4.7 31 13.9 33.7 13.9 1.7 0 3.1 1.1 3.1 2.2s7 4.5 15.6 7c8.9 2.8 24.8 9.2 36 14.5s22 9.8 24.5 9.8 5 1.1 5.9 2.5c.8 1.4 4.7 3.3 8.4 4.2 3.9.8 15.1 5.6 24.8 10 10 4.7 19.5 8.4 21.2 8.4s5.3 1.1 8.1 2.5c2.5 1.7 15.3 7.3 28.5 12.8 13.1 5.6 25.9 11.2 28.5 12.8 2.8 1.4 6.4 2.5 8.1 2.5s12 4.5 23.2 9.8 22.3 9.8 24.8 9.8 5.3 1.1 6.1 2.8c.8 1.4 3.3 2.8 5.6 2.8 2 0 13.1 4.5 24.5 9.8s22.3 9.8 24 9.8 5.3 1.1 8.1 2.5c6.1 3.6 46.3 20.6 59.1 25.4 5.3 2 19 7.8 30.1 12.8 11.4 5.3 22.3 9.5 24.3 9.5 2.2 0 4.5 1.1 5.3 2.5s4.7 3.3 8.4 4.2c3.9.8 14.8 5.3 24.5 9.8 9.8 4.2 22 9.5 27.3 11.4 8.9 3.3 22.6 9.2 43.2 17.9 4.7 2.2 14.8 6.1 22.3 8.9 7.8 2.8 20.9 8.6 29.3 12.8s17.6 7.8 20.1 7.8 5.3 1.1 6.4 2.5c.8 1.4 5.3 3.3 9.8 4.5 4.7 1.1 13.7 4.7 20.4 8.1 6.4 3.3 18.1 8.4 25.7 11.2 17 6.4 37.4 14.8 44.1 18.7 2.5 1.4 10.9 4.5 18.1 7 7.3 2.5 20.1 7.5 28.5 11.4s25.4 11.2 37.7 16.2 27.9 11.4 34.9 14.5 19.5 8.4 27.9 11.4c8.4 3.1 22.9 8.9 32.1 13.1 16.5 7.3 20.6 8.9 35.7 15.1 17 6.7 15.9 16.2 15.9-138.6 0-133.9-.3-142.3-5-146.4-2.8-2.8-6.4-4.7-7.8-4.7s-6.1-2-10.9-4.5c-4.5-2.5-19.2-8.6-32.4-13.7-13.1-5-32.4-13.1-42.4-17.9-10-4.7-19.8-8.6-21.5-8.6s-5-1.1-7.8-2.5c-6.1-3.6-46.3-20.6-59.1-25.4-5.3-2-19-7.8-30.1-12.8-11.4-5.3-21.8-9.5-23.2-9.5-2.5 0-12.8-4.5-40.4-17.3-9.2-4.2-18.4-7.8-20.1-7.8-2 0-5.6-1.1-8.4-2.8-2.5-1.4-10.9-5.3-18.7-8.4-7.5-3.3-17.6-7.5-22.3-9.5-4.5-2-12.8-5.3-18.1-7.3s-17.3-7-26.5-11.2-22.9-9.8-30.7-12.6c-7.5-2.8-22.9-9.2-33.7-14.2-10.9-5.3-21.8-9.5-24.3-9.5s-5.3-1.4-6.1-2.8c-.8-1.7-3.6-2.8-5.9-2.8-2 0-13.1-4.2-24-9.5-11.2-5-25.9-11.4-32.9-14.2s-18.7-7.8-26.5-11.4c-7.5-3.6-17.3-7.3-21.8-8.4-4.2-.8-8.4-2.8-9.2-4.2s-3.3-2.5-5.9-2.5c-2.2 0-13.7-4.5-25.1-9.8s-22.6-9.8-24.5-9.8c-2.2 0-4.5-1.1-5.3-2.5s-4.7-3.3-8.4-4.2c-3.9-.8-14.8-5.3-24.5-9.8-9.8-4.2-22-9.5-27.3-11.4-8.9-3.3-16.2-6.4-44.6-18.4-14.5-6.4-19.5-8.4-36.3-15.1-8.4-3.1-19-7.5-23.7-9.8-15.9-7.3-28.7-12.6-30.1-12.6-1.7 0-37.4-15.6-44.3-19.5-2.8-1.7-6.4-2.8-7.8-2.8-2.8 0-14.5-4.7-37.7-15.3-18.4-8.4-28.7-12.6-31.2-12.6-1.4 0-9.2-3.1-17-7-8.1-3.9-15.3-7-16.5-7-1.4-.3-7.3-2.5-13.4-5.6s-12.3-5.3-13.7-5.6c-2.5 0-32.9-13.7-44.1-19.8-2.8-1.4-6.4-2.5-7.8-2.5-2.8 0-11.4-3.3-34.9-13.9-33.3-14.6-37.5-15.7-41.7-11.8zm2475.2 2.7c-5.3 2.5-13.4 6.4-18.1 8.4-4.5 2.2-22.9 9.8-40.4 16.7-17.6 7-34.9 14.2-38.2 16.5-3.3 2.2-7.5 3.9-9.2 3.9-2.8 0-11.2 3.3-34.9 13.9-11.4 5-31 13.1-40.4 16.7-5.3 2-16.7 6.7-25.1 10.6-8.4 3.6-22.9 9.5-32.1 13.1-9.2 3.3-23.4 9.5-31.8 13.7-8.4 3.9-16.5 7.3-17.6 7.3-2.2 0-11.4 3.9-34.3 13.9-15.6 7-32.1 13.7-44.6 18.4-7.5 2.8-19.2 7.8-25.7 11.2-6.7 3.3-15.6 7-20.4 8.1-4.5 1.1-8.9 3.1-9.8 4.5-1.1 1.4-3.6 2.5-6.1 2.5-2.2 0-12 3.6-21.5 8.1-9.2 4.5-24 10.9-32.4 13.9-8.4 3.3-17.9 7.3-20.9 8.6-11.4 5-31 13.1-40.4 16.7-5.3 2-17.6 7.3-27.3 11.4-9.8 4.5-20.6 8.9-24.5 9.8-3.6.8-7.5 2.8-8.4 4.2-.8 1.4-3.3 2.5-5.6 2.5-2.5 0-13.4 4.5-24.5 9.8-11.2 5.3-21.8 9.8-23.7 9.8-1.7 0-5.3 1.1-8.1 2.5-15.9 7.8-41 18.7-59.1 25.4-11.4 4.5-30.7 12.3-42.7 17.9s-23.2 10-24.8 10c-1.7 0-12.3 4.5-23.4 9.8s-22 9.8-24.5 9.8c-2.2 0-4.7 1.1-5.6 2.5-.8 1.4-5 3.3-9.2 4.5-7 1.4-36 14.2-48.8 21.2-2.8 1.4-6.7 2.5-8.9 2.5s-11.4 3.6-20.4 8.1c-9.2 4.5-19.8 9.2-24 10-4.2 1.1-8.4 3.1-9.2 4.5s-3.3 2.5-5.9 2.5-13.4 4.2-24.3 9.5-25.9 11.4-33.7 14.2c-12.6 3.9-42.1 17-54.9 24-2.8 1.4-6.4 2.5-7.8 2.5-2.8 0-12.8 4.2-38.2 15.6-4.7 2.2-10 3.9-11.4 3.9-9.8 0-10.3 7.8-9.5 152l.6 141.4 7.8-2c7.3-1.7 17.3-5.9 35.4-13.9 12.8-5.9 32.4-13.9 43.2-18.1 5.3-2 17.3-7 26.5-11.2s19.8-8.4 23.7-9.5c7.5-2.2 8.6-2.8 37.1-15.3 10.6-4.7 19.8-8.6 20.6-8.6 1.4 0 14.2-5.3 30.1-12.6 12.8-5.9 32.4-13.9 43.2-18.1 5.3-2 17.6-7.3 27.3-11.4 9.8-4.5 20.6-8.9 24.5-9.8 3.6-.8 7.5-2.8 8.4-4.2.8-1.4 3.3-2.5 5.9-2.5 2.2 0 13.7-4.5 25.1-9.8s22.6-9.8 24.5-9.8c2.2 0 4.7-1.4 5.6-2.8.8-1.7 3.3-2.8 5.6-2.8 2 0 13.1-4.5 24.5-9.8s22.3-9.8 24-9.8 5.3-1.1 8.1-2.5c2.5-1.7 15.3-7.3 28.5-12.8s25.9-11.2 28.5-12.8c2.8-1.4 6.7-2.5 8.9-2.5 2 0 12.6-4.2 23.2-9.5s25.9-11.7 34.3-14.5 19.2-7.3 23.7-9.8c4.7-2.8 17.3-8.1 27.9-12 10.9-4.2 22-8.4 25.1-10 3.1-1.4 12-5 19.5-8.4 7.8-3.1 16.2-7 18.7-8.4 2.8-1.7 6.4-2.8 8.1-2.8 2 0 12.6-4.5 23.7-9.8 11.2-5.3 22-9.8 24.5-9.8 2.2 0 5-1.4 5.9-2.8.8-1.7 3.6-2.8 5.9-2.8 3.6 0 37.4-14.5 51.9-22.6 2.8-1.4 6.7-2.5 8.9-2.5s13.1-4.2 24.5-9.5c11.2-5 24.8-10.9 30.1-12.8 9.8-3.6 16.2-6.4 48.5-20.6 8.9-3.9 17.9-7.3 19.5-7.3 1.7 0 10-3.6 18.4-7.8s21.8-10 29.3-12.8c7.8-2.8 21.8-8.6 31.5-13.1 9.8-4.5 20.6-8.9 24.5-9.8 3.6-.8 7.5-2.8 8.4-4.2.8-1.4 3.3-2.5 5.6-2.5 2.2 0 9.5-2.5 15.9-5.3 29-13.1 44.6-19.8 46.9-19.8 1.4 0 10.3-3.6 19.8-8.1 9.8-4.5 20.4-8.9 23.7-10 4.2-1.1 6.7-4.7 7.8-10.6.8-5 1.1-69.7.8-144.2-.8-133-.8-135.3-6.4-135.8-3.1-.1-10.1 1.5-15.4 4zm-2473.2 1037.4c-1.4 3.6 11.7 34.9 21.5 51.3 9.5 15.6 19.5 34.9 19.5 37.1 0 1.4 5.6 12 12.6 23.4 7 11.2 12.6 22 12.6 24s2 6.1 4.2 9.2c5 7.5 23.7 43.8 23.7 46.3 0 1.1 3.1 6.7 7 12.3 10 14.8 8.9 31-4.2 75-1.4 4.5-3.3 15.1-4.5 22.9-2.8 23.2-2.8 23.2 53.6 23.2 26.5 0 51-1.1 54.7-2.5 7.3-2.8 12-13.9 16.2-39.3 1.7-8.4 4.2-23.4 5.9-33.2 4.5-25.1 10.6-38.2 29.3-60.8 9.2-10.9 23.4-28.2 31.8-38.5s16.7-20.4 18.1-22c2.5-2.8 25.4-30.1 39.9-47.7 2.8-3.1 9.8-11.7 15.9-19.5 6.1-7.5 15.1-18.4 20.1-23.7 16.2-18.1 29-36.3 27.3-39-1.1-1.7-26.5-2.8-65.8-2.8-72.2 0-62.5-3.1-87.6 27.9-7.5 9.5-18.7 23.2-24.5 30.1-5.6 7.3-11.4 14.2-12.6 15.9-1.1 1.4-8.6 10.6-17 20.1-22.3 25.9-24.5 25.1-43.8-15.3-8.6-17.9-17.6-36.5-20.1-41-2.5-4.7-7.8-14.8-12-22.3l-7.5-13.9-56.1-.8c-49.6-.9-56.5-.3-58.2 3.6zm480.6-2c-8.1 1.7-9.5 3.6-35.1 51.9-5 9.2-11.7 21.2-15.1 26.5-3.1 5.3-10.6 18.4-16.2 29.3-27.3 51.3-44.6 83.1-57.2 104.6-7 11.7-15.3 27.6-40.2 75.3-5.3 10-10.6 19-11.7 19.8-1.4 1.1-2 4.7-1.4 8.4l.8 6.7 57.7.8 57.7.6 7-7.5c3.9-4.2 9.2-12.3 11.7-17.6 12.8-28.2 16.2-33.7 21.5-37.7 8.4-5.9 120.8-6.1 128.6-.6 3.6 2.8 5.6 9.5 7.3 24.5 1.1 11.4 3.6 24.5 5.9 29l3.9 8.4 49.9.8c44.3.6 50.5.3 55.2-4.2 4.2-3.9 5-7.3 3.9-14.8-.8-5.3-2.8-20.4-4.5-33.5-1.4-13.1-3.9-29.3-5.6-36.3-1.4-7-3.9-26.5-5.9-43.2-2.8-29-7.5-70-13.7-119.9-2.2-19.2-5.3-37.9-10-61.9-2-10.6-13.7-12-102.6-11.7-46.2.4-87.5 1.2-91.9 2.3zm91.7 67c.8 2.5 3.3 20.4 5.9 39.6 10 77.8 10 79.5-.8 83.7-8.9 3.3-62.8 3.3-71.7-.3-9.8-3.6-9.2-9.8 2.5-27.9 5.3-8.4 9.8-16.7 9.8-18.4s4.5-11.2 9.8-20.9c5.6-9.8 13.1-24.5 16.7-32.9 12-25.9 18.1-34.3 22.6-30.7 1.9 1.6 4.4 5.2 5.2 7.8zm649.1-64.5c-4.2 3.6-7.3 10.9-8.9 20.4-1.4 8.4-4.7 23.2-7 33.2-2.5 10-6.1 28.7-8.6 41.8-10.3 58.3-12.3 69.5-16.5 86.5-2.2 10-5.6 25.1-7 33.5l-5.6 27.9c-1.4 7-3.3 18.7-4.2 26.5-1.1 7.5-3.6 20.6-6.1 28.7-6.4 22.9-6.4 22.9 52.4 22.9h49.6l4.2-9.2c2.2-4.7 5.6-19 7.3-31.2 1.7-12.3 4.7-31.8 6.7-43.2 12.8-68.9 15.1-78.7 20.9-82.3 3.9-2.2 13.7 13.9 15.9 25.9.8 5 2.8 9.8 4.2 10.6s2.5 3.9 2.5 7 2.5 11.4 5.9 18.7c8.6 19.8 10 23.2 14.8 36.8 2.5 7 4.5 14.2 4.5 16.2 0 3.6 7.5 22.3 16.2 39.6 5 9.8 5 9.8 26.5 10.6 19.2.8 22 .3 27.9-5.6 7-7.5 22.9-27.1 31.8-39.6 3.3-4.7 7.5-10 8.9-12 1.7-1.7 15.1-19.2 29.8-39 15.1-19.5 28.5-37.1 30.1-38.8s5-6.1 7.3-9.5c7.5-11.4 17.3-22.3 19.8-22.3 8.1 0 3.9 39-13.1 118.5-2.5 12.3-4.7 27.9-5 34.9l-.3 12.6 50.5.8c42.4.6 51 0 54.1-3.6 4.5-5.3 8.9-25.9 21.2-97.6 4.7-28.5 7.5-42.4 13.9-68.3 2.5-10 5.6-26.2 6.7-36.3 1.4-10 4.5-28.2 7-40.4 14.2-72.2 14.5-75.3 3.3-78.1-3.6-1.1-36.5-1.4-73.6-.8-77.5.8-68.9-2.2-96.5 34.3-9.2 12.3-17.6 22.9-18.7 23.7-2 1.7-34.3 43-44.1 56.6-13.7 19-29.6 35.4-34 35.4-7 0-9.8-4.5-16.7-27.9-3.6-11.4-7.3-22.9-8.4-25.1-7.3-15.6-11.2-25.7-15.6-39-8.9-28.7-16.2-46-21.2-51.6-4.7-5.3-9.5-5.6-65.8-6.4-57-1.1-61.1-.8-67 4.2zm625.1-2.2c-7 2.8-16.5 16.7-25.9 37.7-3.3 7.8-7.8 15.9-9.8 18.1-2.2 2.2-8.6 13.7-14.8 25.1-25.9 49.6-37.4 71.4-39.6 73.9-1.1 1.4-7.3 12.3-13.4 23.7-21.8 41.6-32.1 60-37.1 67.5-3.1 3.9-5.3 8.4-5.3 9.8s-6.4 13.7-14.2 27.1c-9.2 16.2-13.7 27.1-13.1 32.1l.8 7.3 51.6.8c28.5.6 55.5 0 60-.8 7.3-1.1 10.3-4.5 18.7-20.4 5.6-10.3 12.3-23.2 15.1-28.5 9.2-16.7 8.4-16.5 75-16.5 72 0 68.9-1.4 72.2 33.2s1.7 33.5 58.9 33.5c55.2 0 58.6-1.1 56.1-19.2-.8-5.6-2.8-24-4.5-40.7-1.7-17-4.5-40.2-6.1-51.6-12-86.5-18.4-136.7-21.8-172.9-3.9-43.8 4.7-40.4-105.4-41-50.3-.4-94.1.4-97.4 1.8zm97 80c1.4 10.3 3.9 38.2 5.9 61.9 3.9 53.3 6.1 50.5-39.6 50.5-39.9 0-44.3-2.2-39-18.4 2-5.9 7.3-17.3 11.4-25.4 12-22.3 12.6-23.4 21.5-41.3 22.3-45.2 29.3-54.7 34.9-49.1 1.3 1.5 3.5 11.2 4.9 21.8zm245.2-80.8c-3.9.8-8.1 2.2-9.2 3.6-3.1 2.8-6.7 17.3-11.7 46-5 27.3-11.4 57.2-13.7 62.8-.8 2.2-2.8 12.8-4.2 23.7-3.6 25.1-10 59.4-15.6 82.3-2.5 10-5.9 26.2-7.3 36.3-1.7 10-4.2 24.5-5.9 32.4-1.7 7.8-3.1 19-3.3 25.1l-.3 10.9 53.3.8c44.6.6 53.8 0 56.9-3.6 3.9-4.5 7.3-16.2 12.8-44.6 2-10.9 5-24 6.7-29.3 1.4-5.3 2.8-13.9 2.8-19 0-17 7-19.8 49.6-20.1 36 0 37.4.3 44.3 7.3 5.6 5.6 6.7 8.6 5.3 15.9-5.6 29.8-10.9 66.7-11.2 78.7l-.3 13.9 52.7.8c34.6.6 53.8-.3 56.1-2.2 2.2-1.7 5.9-15.3 8.4-30.1s6.4-34.6 8.6-44.1c8.9-37.7 3.9-61.4-15.3-75.9-4.7-3.3-8.6-7.3-8.6-8.6 0-1.4 5.3-5.9 12-10 20.9-13.9 23.4-18.1 35.1-54.7 5-15.9 8.9-53 7-66.4-2.5-17.6-16.2-29.6-35.4-32.1-16-2.1-258.7-1.8-269.6.2zm177.1 63.3c9.5 4.2 9.8 4.5 9.8 20.9 0 15.1-5.6 43.5-9.8 50.5-5 8.1-18.4 10.9-54.1 11.4-47.1.8-48 .3-41.3-27.9 2.5-10.6 4.7-22.9 4.7-27.3 0-12.8 5.6-26.2 12.3-28.7 10.4-4.2 67.8-3.4 78.4 1.1zm-1549.4-58.3c-5.6 7-14.8 48.5-27.6 126.9-3.6 22.6-10.9 56.6-14.5 69.7-1.4 5.3-3.9 17.9-5.3 27.9s-4.5 30.7-7 46c-2.8 15.3-5 32.4-5.3 37.7l-.3 9.8 48.8.8c26.8.3 51.6 0 54.9-.8 6.4-1.4 7.8-5.9 16.2-54.4 5.9-33.2 11.4-61.9 13.4-66.9.8-2.2 2.2-7.8 3.3-12 2.2-10.3 12-9.2 18.1 2 2.2 4.7 10.9 19.5 19 32.9 7.8 13.7 14.5 25.4 14.5 25.9 0 .6 3.6 6.4 8.1 13.1s12 19.5 17 29c4.7 9.2 11.7 20.4 15.6 24.3 7 7.5 7.3 7.5 44.3 7.5 20.4 0 39.3-.8 41.8-1.7 5.6-2.2 11.7-16.5 14.2-33.7.8-7.3 2.8-14.8 3.9-16.2 1.4-1.7 3.6-12.8 5.3-25.1 3.1-22.9 8.1-49.4 15.9-83.7 2.2-10.9 5.9-29 7.8-40.4 2-11.4 7.8-41.8 12.8-67.5 7.5-38.5 8.6-47.4 5.6-51-2.8-3.3-11.4-4.2-51.6-4.2-42.1 0-48.5.6-52.2 4.7-5.3 6.7-10 22.9-13.4 46.9-5.3 39.3-8.4 58.9-11.2 68.3-1.4 5.3-3.3 12.6-4.2 15.9-1.1 3.9-3.9 6.4-7.3 6.4-5 0-11.7-8.6-24-31-2.8-5.3-8.6-14.5-12.6-20.9-3.9-6.4-9.8-15.6-12.6-20.9s-8.9-15.1-13.1-22c-4.5-6.7-11.2-18.1-14.5-25.4-10.6-20.6-14.2-22-60.5-22-31.6-.1-40.5.7-43.3 4.1z" fill="#df2626"/></svg>