<svg xmlns="http://www.w3.org/2000/svg" width="2500" height="2500" viewBox="0 0 192.756 192.756"><g fill-rule="evenodd" clip-rule="evenodd"><path fill="#fff" d="M0 0h192.756v192.756H0V0z"/><path d="M162.678 74.774H53.973A1464.765 1464.765 0 0 1 39.946 95.62l-2.319 11.391c-.237 1.584.432 2.379.982 2.93H26.6c1.345-1.16 2.132-2.074 2.683-3.598l2.074-10.604c-1.523-5.908-2.438-9.259-4.088-14.685-.423-1.16-1.151-1.829-1.583-2.26 2.565 0 6.763.067 10.114 0l3.047 11.214c2.438-3.166 4.26-6.512 6.704-9.81.83-1.12 1.175-2.533.491-3.901-.275-.551-.765-1.131-1.131-1.524H30.196c-12.001 0-21.692 9.691-21.692 21.573 0 11.943 9.691 21.635 21.692 21.635h97.073c-.324-.068-.65-.146-.977-.246l-1.887-.363c1.312-1.584 2.438-3.049 3.715-4.758.736.678 1.709.914 2.623.609 1.033-.119 1.498-1.031 1.77-1.828a1890.66 1890.66 0 0 1 3.961-18.891c-.914-.305-2.014-.178-2.928-.178l3.842-4.57c.482-4.266 3.047-7.804 7.066-9.141 2.861-1.16 6.281-.669 9.201-.059-1.033 1.582-2.496 3.224-3.656 4.688a2.915 2.915 0 0 0-2.684-.609c-2.133.914-2.191 3.411-2.438 5.239l5.002.127-1.16 4.993c-1.158-.914-3.232-.55-4.814-.668a1102.8 1102.8 0 0 1-4.207 18.832c-.98 3.078-4.129 6.004-8.07 6.822h31.049c11.883 0 21.574-9.691 21.574-21.635.001-11.88-9.69-21.571-21.573-21.571z"/><path d="M133.791 79.041c.729 1.041 1.16 2.26.797 3.597-.492 1.946-1.592 3.233-3.479 3.843-1.396.178-3.107 0-4.08-1.16-1.041-1.042-1.041-2.743-.736-4.207.551-1.828 1.896-3.233 3.842-3.47a4.502 4.502 0 0 1 3.656 1.397zM117.398 78.617c-1.092 1.278-1.828 2.438-2.311 4.02l-4.512 21.632c1.643 1.523 3.834 1.102 6.094 1.102 1.338 0 3.529-1.346 4.994-2.016l-2.922 6.586H99.546c1.947-1.465 2.371-3.598 2.742-5.672l4.504-22.123c.373-1.524-.119-2.743-.543-3.529h11.149zM168.645 90.678c1.346 2.073.914 5.669.373 7.921h-13.592c-.305 1.828-.855 4.266.49 5.789 3.588 2.742 8.836.914 12.365-.787l-2.861 5.18c-4.51 1.701-10.604 2.379-14.93-.059-2.379-1.287-3.41-3.844-3.598-6.467-.186-6.152 3.107-11.451 8.229-14.016 4.147-1.946 11.154-2.064 13.524 2.439z" fill="#fff"/><path d="M159.504 91.168c-1.76.119-2.496 2.015-2.92 3.352h5.426c.059-.728.424-1.523.059-2.251-.432-.982-1.405-1.287-2.565-1.101z"/><path d="M129.713 106.344c-.188 1.219-.127 2.861.541 3.598h-10.842c1.828-1.041 2.379-3.42 2.742-4.816l2.615-13.592c.49-1.642-.236-2.742-.609-3.529 2.742.059 6.771.237 9.514-1.042l-3.961 19.381zM79.252 90.746c.186-1.346-.423-1.828-.668-2.505 2.86-.178 6.339.305 9.2-.847l-4.147 20.897c0 .49.245.973.55 1.404 2.074-1.465 2.074-3.842 3.598-11.824l1.404-6.821c.364-1.828 0-2.505-.491-2.988 2.988 0 5.848.364 8.836-.491l-.49 2.802c1.523-1.947 4.51-3.656 7.498-2.802l-1.16 5.671c-1.582-.55-3.455-.547-4.814.178-1.23.656-2.438 1.955-2.616 3.537l-2.015 9.328c-.305 2.615.432 2.92 1.101 3.656H75.41l.245-2.133c-1.701 2.252-5.18 2.557-8.227 2.557-3.716 0-4.631-3.074-4.443-4.268.857-5.467 2.065-10.358 2.979-15.725 0-.482-.059-1.583-.728-2.065 2.742-.068 6.518.237 9.2-.915a1023.043 1023.043 0 0 1-3.166 16.454c-.127.787.305 1.582 1.092 1.828 1.287.117 3.538.117 4.333-2.506.179-1.453 1.584-7.733 2.557-12.422z" fill="#fff"/><path d="M62.13 91.05c2.861 3.893 1.278 9.75-.973 13.338-3.174 4.334-8.354 7.076-14.143 6.094-2.742-.541-4.994-2.191-5.967-4.689-1.524-5.18.059-10.664 3.775-14.26 3.538-3.106 9.259-5.484 14.134-3.047 1.1.609 2.438 1.405 3.174 2.564z" fill="#fff"/><path d="M52.625 92.083c-2.319 1.278-3.174 3.597-3.725 5.908-.237 2.438-1.337 5.553.491 7.617.55.373 1.16.855 1.887.49 1.769-.549 2.683-2.318 3.292-3.842.914-2.801 1.828-6.635.305-9.504-.667-.483-1.404-.729-2.25-.669z"/><path d="M171.76 109.941c1.582 0 2.92-1.219 2.92-2.93a2.928 2.928 0 0 0-2.92-2.928 2.929 2.929 0 0 0-2.928 2.928c0 1.712 1.336 2.93 2.928 2.93z" fill="#fff"/><path d="M169.322 107.012c0-1.336 1.092-2.496 2.438-2.496 1.338 0 2.438 1.16 2.438 2.496 0 1.338-1.1 2.438-2.438 2.438a2.444 2.444 0 0 1-2.438-2.438z"/><path d="M170.66 105.371v3.225h.549V107.2c.424 0 .67-.068.855.236.119.373.363 1.16.541 1.16h.678c-.246-.365-.551-.914-.855-1.396.424 0 .67-.432.67-.855 0-.914-.67-.973-.975-.973h-1.463v-.001z" fill="#fff"/><path d="M172.547 106.344c0 .551-.246.424-1.338.424v-.914c1.092 0 1.338-.061 1.338.49z"/></g></svg>