<svg xmlns="http://www.w3.org/2000/svg" width="2500" height="975" viewBox="0 0 778.248 303.552"><g fill-rule="evenodd" clip-rule="evenodd"><path d="M249.696 186.408l35.712-.145 6.768 1.729c10.224 3.384 18.936 10.584 22.608 20.88 3.6 8.136 3.672 17.568 1.008 26.136-.576 1.656-1.8 3.096-2.016 5.04-5.184 10.44-16.2 18.433-28.224 20.16-4.536-.216-8.784.36-12.456 2.376-.72.504-1.224 1.512-1.584 2.376 0 .937-.432 2.017.144 2.88 13.392 1.44 27.36-.288 40.896-.144.432.071.504.288.936.504l.72 34.271c-.144.721-.936.721-1.44 1.08l-45.864-.071-32.904-.072c-.72-.145-.792-.864-1.152-1.368.648-20.16-5.76-45.288 10.512-60.984 3.24-2.663 6.192-4.464 9.72-5.76.432-.72 1.584-.72 2.304-1.224 6.768-2.088 13.824.216 20.376-2.088.432-.288.432-.937 1.008-1.297.504-1.512.72-3.239-.072-4.607-.288-.504-.792-.504-1.296-1.008-12.24-1.872-24.984 1.728-36.937-2.521-7.416-3.743-11.808-12.312-10.368-20.304 1.008-4.392 3.312-8.568 6.768-11.448l4.824-2.808 10.009-1.583zM377.784 186.408c5.832-.216 11.304.359 16.992 1.584 8.136 2.664 15.191 7.56 20.088 14.688 7.344 11.16 8.136 26.784 1.224 38.521-3.24 5.544-7.992 10.08-13.031 13.248-.145.36-.793.36-1.368.647-7.416 4.465-16.416 4.896-24.84 5.688-.864.576-2.376.792-2.952 2.088-.144.432-.216.72-.432 1.008l-.792 2.304c0 .072 0 .576.288.864.216.216.504.433.792.504l42.048.145c.648 0 .792.864 1.08 1.296l.504 32.904c-.071.144-.288.359-.575.647l-81.36.648c-.576-.288-1.296-.145-1.8-.721l-.288-10.584c-.648-12.815-1.872-25.991 1.944-38.592 3.96-9.432 11.664-16.416 21.456-19.439 6.048-1.368 11.52-1.368 16.992-.648 1.8-.504 2.952-.864 4.032-1.656.504-.647 1.008-1.151 1.224-2.088l-.144-2.16c-.072-.504-.504-.936-1.008-1.512-11.88-2.016-24.48-.432-36.648-1.512-6.192-2.088-11.52-7.272-12.744-14.112-1.872-6.768.937-13.392 5.112-18.072 12.814-9.504 29.878-3.888 44.206-5.688zM437.904 186.048l72 .216c.359.288 1.008.433 1.656.721 5.039 1.872 9.504 6.119 11.52 11.16 1.584 6.84 1.08 15.407-5.184 20.016-12.601 9-29.305 2.016-43.344 5.688-.145.217-.36.504-.505.937 0 1.584-.432 3.168.433 4.896.216.217.432.36.792.721 16.991.359 37.008 3.168 44.928 20.447 5.256 10.152 5.112 21.528.864 31.248-.792 1.801-2.017 3.168-2.592 4.465-12.168 17.783-36.36 16.703-55.513 16.199h-24.264c-3.24-10.512.216-22.752-1.44-34.199.217-.576.648-.721 1.225-1.08l7.92.071c12.815-1.655 26.063 1.513 38.592-2.088a8.99 8.99 0 0 0 .576-.864c.432-.936.216-1.8.288-2.808-.145-.792-.648-1.584-1.296-2.231a11.988 11.988 0 0 0-1.656-.864l-44.856-.145c-2.159-22.68-.144-46.943-1.08-70.487 0-.864-.359-1.584.145-1.872.072-.003.503-.147.791-.147zM529.704 0h-65.808c-10.008 0-18.288 8.208-18.288 18.288s8.28 18.288 18.288 18.288h13.607v79.992h38.736V36.576h13.464c10.008 0 18.288-8.208 18.288-18.288S539.712 0 529.704 0zM422.28 116.568h-68.04V0h68.04c10.008 0 18.288 8.208 18.288 18.288s-8.28 18.288-18.288 18.288h-29.304v7.848H426.6c7.705-.072 13.969 6.192 13.969 13.896 0 7.704-6.264 13.968-13.969 13.968h-33.623v7.704h29.304c10.008 0 18.288 8.208 18.288 18.288s-8.281 18.288-18.289 18.288zM634.176 0h-65.808C558.36 0 550.08 8.208 550.08 18.288s8.28 18.288 18.288 18.288h13.608v79.992h38.735V36.576h13.464c10.008 0 18.288-8.208 18.288-18.288S644.184 0 634.176 0zM142.992 107.712c-2.952 7.488-10.296 12.312-18.216 12.312-10.8 0-19.729-8.928-19.729-19.8 0-2.664.576-5.544 1.584-7.992L146.952 0h39.528l50.832 116.568h-90l16.2-36.576 14.688-.072-11.52-26.208-23.688 54zM683.928 107.712c-2.951 7.488-10.296 12.312-18.216 12.312-10.8 0-19.728-8.928-19.728-19.8 0-2.664.576-5.544 1.584-7.992L687.889 0h39.527l50.832 116.568h-90l16.2-36.576 14.688-.072-11.521-26.208-23.687 54zM92.376 58.248c2.952 5.688 4.896 12.312 4.896 18.936 0 21.744-17.712 39.384-39.384 39.384-3.528 0-7.056-.433-10.44-1.44V79.992h9.504c2.16 0 3.96-1.728 3.96-3.96 0-2.16-1.8-3.888-3.96-3.888l-9.504.072V44.424h9.504c2.16 0 3.96-1.728 3.96-3.96 0-2.16-1.8-3.888-3.96-3.888H38.664l-.072 64.008c0 10.584-8.64 19.296-19.296 19.296C8.64 119.88 0 111.168.072 100.584L0 0h60.768c20.304 1.368 36.504 18.864 36.504 39.312 0 6.48-1.728 13.392-4.896 18.936zM335.016 58.248c2.952 5.688 4.896 12.312 4.896 18.936 0 21.744-17.712 39.384-39.384 39.384-3.528 0-7.056-.433-10.44-1.44V79.992h9.504c2.16 0 3.96-1.728 3.96-3.96 0-2.16-1.8-3.888-3.96-3.888l-9.504.072V44.424h9.504c2.16 0 3.96-1.728 3.96-3.96 0-2.16-1.8-3.888-3.96-3.888h-18.288l-.072 64.008c0 10.584-8.64 19.296-19.296 19.296-10.656 0-19.296-8.712-19.224-19.296L242.64 0h60.768c20.304 1.368 36.504 18.864 36.504 39.312 0 6.48-1.728 13.392-4.896 18.936z"/></g></svg>