<svg xmlns="http://www.w3.org/2000/svg" width="2500" height="2500" viewBox="0 0 192.756 192.756"><g fill-rule="evenodd" clip-rule="evenodd"><path fill="#fff" d="M0 0h192.756v192.756H0V0z"/><path d="M49.609 87.963c15.698 1.294 20.229 6.311 20.229 14.727 0 5.988-3.398 11.652-7.93 15.051-3.722 2.588-9.386 4.531-17.801 4.531-6.474 0-13.27-.162-20.876-.162h-6.473c-2.266.162-5.664.162-6.635.162-1.133 0-1.619-.324-1.619-.971 0-3.238 8.253.322 9.872-7.283 8.577-43.209 9.386-45.151 9.386-49.197 0-6.149-6.958-3.884-6.958-5.826 0-1.133.809-1.618 2.751-1.618 3.561 0 5.826.162 12.946.162 5.017 0 9.71-.162 14.565-.162 17.154 0 22.818 5.502 22.818 13.917 0 9.062-8.092 15.05-24.275 16.507v.162zM36.5 89.419c-4.045 19.905-5.017 24.598-5.017 25.893 0 1.941 1.295 4.693 7.444 4.693 10.519 0 16.507-6.312 16.507-18.611 0-8.091-4.046-11.813-12.946-11.975H36.5zm.486-2.427h4.531c12.461 0 18.61-5.664 18.61-15.697 0-7.768-3.884-11.652-14.565-11.652-1.456 0-2.104.162-3.398.162l-5.178 27.187zM90.067 98.967c-1.133 1.943-6.959 9.387-6.959 14.564 0 7.607 6.149 5.664 6.149 7.77 0 .484-.324.971-1.456.971-1.942 0-6.797-.162-10.843-.162-6.797 0-8.901.162-10.034.162-1.457 0-1.78-.486-1.78-.971 0-.973.485-.973 1.942-1.295 6.797-1.295 12.46-8.578 16.992-15.859 15.05-24.275 21.201-33.176 21.201-34.632 0-3.075-2.428-2.266-2.428-3.075 0-.323 4.693-2.913 8.254-6.796 3.236-3.237 3.236-4.046 4.045-4.046s.809.971 2.59 9.709l10.357 48.549c1.617 8.092 6.635 4.693 6.635 7.445 0 .809-.324.971-3.723.971-1.779 0-6.473-.162-10.52-.162-2.75 0-8.576.162-11.004.162s-2.59-.324-2.59-1.295c0-2.752 7.607 1.295 7.607-6.635 0-1.619-.971-5.342-3.076-15.375H90.067zm21.038-2.266l-4.531-22.008c-.162-.971-.324-1.942-.648-1.942-.484 0-.484.485-5.016 8.092L91.2 96.701h19.905zM152.047 57.377c3.885 0 8.74.162 11.977.162 6.15 0 9.871-.162 13.594-.162 1.133 0 1.457.324 1.457 1.132 0 1.942-7.768-.485-9.387 7.283-2.104 11.328-10.195 44.989-10.195 49.521 0 5.988 6.473 3.561 6.473 5.988 0 .646-.646.971-2.588.971-2.59 0-7.283-.162-11.814-.162-3.723 0-8.416.162-13.594.162-1.133 0-1.619-.324-1.619-1.295 0-2.428 7.93.971 9.711-6.635 3.723-17.154 10.357-48.388 10.357-51.301 0-4.208-5.826-2.266-5.826-4.532-.001-.647.321-1.132 1.454-1.132zM9.313 136.027h160.212v-7.283H9.313v7.283zM174.543 132.467c0-2.752 2.266-4.855 4.854-4.855 2.59 0 4.855 2.104 4.855 4.855 0 2.75-2.266 4.693-4.855 4.693-2.588 0-4.854-1.943-4.854-4.693zm4.853 3.883c2.105 0 3.885-1.617 3.885-3.883s-1.779-4.047-3.885-4.047c-2.266 0-3.883 1.781-3.883 4.047s1.618 3.883 3.883 3.883zm-.97-1.133h-.971v-5.502h2.104c1.457 0 2.104.486 2.104 1.457s-.646 1.457-1.455 1.619l1.455 2.426h-.809l-1.457-2.426h-.971v2.426zm.97-3.074c.648 0 1.295-.162 1.295-.971 0-.648-.646-.809-1.133-.809h-1.133v1.779h.971v.001z"/></g></svg>