<svg xmlns="http://www.w3.org/2000/svg" width="2500" height="2500" viewBox="0 0 192.756 192.756"><g fill-rule="evenodd" clip-rule="evenodd"><path fill="#fff" d="M0 0h192.756v192.756H0V0z"/><path fill="#48aa6a" d="M112.213 123.92l38.32-17.69-38.32-17.69v35.38z"/><path d="M34.064 25.625h27.475s.651 45.757 49.209 78.766c0 0-65.409-12.069-76.684-78.766z" fill="#cf4037"/><path d="M9.614 75.418l19.564-15.964s22.234 43.077 80.656 46.243c0 0-55.891 21.039-100.22-30.279z" fill="#ecb73b"/><path d="M112.213 56.977v-.808H77.169v10.856c6.791 11.188 17.237 23.749 33.235 34.921V85.888l43.623 20.342-41.814 19.5v29.752l70.93-31.562V88.54l-70.93-31.563z" fill="#cf4037"/><path d="M77.169 111.523v55.607h33.235v-59.715c-1.092.394-14.612 5.05-33.235 4.108z" fill="#cf4037"/></g></svg>