<svg xmlns="http://www.w3.org/2000/svg" width="2500" height="2500" viewBox="0 0 192.756 192.756"><g fill-rule="evenodd" clip-rule="evenodd"><path fill="#fff" d="M0 0h192.756v192.756H0V0z"/><path d="M8.504 117.173h175.748v-41.59H8.504v41.59z"/><path d="M43.278 100.62c-.139-.069-.278-.278-.278-.625v-4.73h.904c1.252 0 2.226.208 2.991.557.765.417 1.113 1.113 1.113 2.225 0 1.044-.278 1.809-.974 2.156-.626.417-1.46.557-2.434.557-.696 0-1.113 0-1.322-.14zm2.225.835c1.043 0 1.947-.14 2.643-.417 1.391-.557 2.086-1.6 2.086-3.061 0-.904-.278-1.6-.904-2.086s-1.391-.834-2.295-1.043c.695-.208 1.252-.417 1.6-.696.626-.487.974-1.112.974-2.017 0-1.252-.487-2.086-1.391-2.573-.904-.487-2.086-.766-3.616-.766h-5.355v.418c.765 0 1.252.139 1.46.348.278.208.348.625.348 1.321v8.555c0 .695-.069 1.112-.348 1.321-.208.208-.695.348-1.46.348v.348h6.258zM43 94.5v-4.312c0-.278.069-.487.139-.556.139-.069.348-.069.765-.069 1.043 0 1.808.069 2.365.278.904.417 1.391 1.182 1.391 2.364 0 .904-.417 1.6-1.252 1.947-.417.208-.904.348-1.6.348H43zM55.101 100.134c-.417.208-.834.348-1.182.348s-.626-.069-.835-.278c-.347-.208-.556-.626-.556-1.252 0-.695.417-1.321 1.321-1.878a7.481 7.481 0 0 1 1.809-.765v2.99c0 .347-.209.626-.557.835zm-3.686.904c.417.417.904.557 1.391.557.557 0 1.043-.14 1.669-.487.278-.209.695-.487 1.183-.904 0 .348.139.695.278.974.208.278.556.418.974.418.348 0 .695-.14 1.043-.349.208-.139.417-.348.626-.626v-.486a1.633 1.633 0 0 1-.487.348c-.07 0-.208.069-.348.069a.524.524 0 0 1-.487-.348c-.07-.14-.07-.417-.07-.765v-3.756c0-.834-.139-1.46-.348-1.878-.417-.765-1.252-1.182-2.434-1.182-1.043 0-1.878.278-2.365.695-.557.487-.834.974-.834 1.391 0 .208.069.417.208.626a.882.882 0 0 0 .626.278c.208 0 .348-.07.487-.14.209-.139.348-.348.348-.695 0-.069 0-.209-.069-.348v-.417c0-.278.139-.487.417-.696.278-.139.557-.208.904-.208.695 0 1.113.208 1.321.626.139.208.209.695.209 1.321v.765c-1.739.696-2.852 1.182-3.478 1.53-.904.626-1.321 1.391-1.321 2.295.001.557.209 1.044.557 1.392zM63.099 101.455v-.209c-.487-.069-.765-.139-.974-.278-.208-.139-.278-.417-.278-.904v-5.215c.278-.348.557-.557.765-.696.417-.278.765-.417 1.182-.417.487 0 .835.208 1.043.556.208.348.348.765.348 1.322v3.964c0 .695-.139 1.043-.278 1.252-.209.209-.487.348-.974.417v.209h3.964v-.209c-.417-.069-.695-.139-.904-.348-.139-.208-.209-.486-.209-.974v-4.312c0-1.252-.348-2.087-1.043-2.573a2.342 2.342 0 0 0-1.182-.348c-.487 0-.974.139-1.46.417-.348.208-.765.626-1.391 1.113V92.9v-.139c0-.069 0-.069-.07-.069l-.904.278c-.904.348-1.53.487-1.808.626v.278h.417c.348 0 .626.07.696.348.07.139.139.417.139.834v4.729c0 .556-.069.904-.278 1.112-.139.14-.487.278-.904.348v.209h4.103v.001zM68.455 101.455v-.209c.626-.069.974-.139 1.182-.348.208-.139.278-.486.278-.974v-9.389c0-.417-.069-.695-.208-.835a1.396 1.396 0 0 0-.625-.139h-.626v-.278l.834-.209c.696-.139 1.182-.278 1.669-.487.278-.069.417-.139.487-.139 0 0 .069 0 .069.069v7.928l2.574-2.295c.208-.139.348-.278.417-.348a.521.521 0 0 0 .07-.278c0-.139-.07-.278-.208-.278-.139-.07-.417-.07-.765-.07V92.9h3.895v.278c-.695 0-1.252.139-1.669.417-.417.208-1.252.904-2.435 2.017l-.558.488 1.739 2.226c.834 1.113 1.53 1.878 2.017 2.295a2.79 2.79 0 0 0 1.391.626v.209H73.81v-.209l.348-.069c.139 0 .208 0 .278-.069.069 0 .139-.069.139-.14 0-.069 0-.139-.07-.208 0-.069-.069-.14-.069-.209l-2.921-3.825v3.478c0 .417.14.695.487.835.208.139.487.139.974.139v.278h-4.521v-.002zM86.746 94.709c.486.974.765 1.947.765 3.06 0 1.044-.208 1.878-.626 2.504-.348.626-.904.974-1.6.974-.904 0-1.6-.486-2.086-1.46s-.765-1.947-.765-3.061c0-1.391.348-2.365.974-2.99.348-.278.765-.487 1.251-.487.904 0 1.6.486 2.087 1.46zm-4.799 5.772c.834.834 1.878 1.321 3.06 1.321 1.252 0 2.225-.487 3.06-1.391.765-.904 1.183-2.017 1.183-3.27 0-1.321-.418-2.364-1.252-3.199-.835-.834-1.809-1.252-3.061-1.252-1.251 0-2.225.487-3.06 1.322-.765.834-1.182 1.877-1.182 3.129 0 1.324.417 2.436 1.252 3.34z" fill="#fff"/><path d="M88.484 101.455v-.209c.695-.069 1.113-.208 1.321-.417s.278-.626.278-1.321v-5.981h-1.6V92.9h1.6c0-1.043.139-1.808.417-2.504.486-1.321 1.46-1.947 2.851-1.947.487 0 .974.069 1.46.278.417.278.626.557.626.904a.788.788 0 0 1-.208.556.79.79 0 0 1-.556.208c-.209 0-.348 0-.487-.139-.139-.07-.278-.278-.417-.557l-.209-.278a.543.543 0 0 0-.278-.278c-.139-.139-.278-.139-.487-.139-.487 0-.835.209-.974.695-.139.209-.139.557-.139.974V92.9h2.365v.626h-2.365v5.981c0 .695.069 1.112.278 1.321.209.209.696.348 1.53.417v.209h-5.006v.001zM102.951 100.62c-.209-.069-.279-.278-.279-.625v-4.73h.905c1.182 0 2.156.208 2.922.557.764.417 1.182 1.113 1.182 2.225 0 1.044-.348 1.809-.975 2.156-.695.417-1.529.557-2.502.557-.628 0-1.114 0-1.253-.14zm2.154.835c1.045 0 1.947-.14 2.713-.417 1.391-.557 2.018-1.6 2.018-3.061 0-.904-.279-1.6-.904-2.086-.627-.487-1.391-.834-2.227-1.043.697-.208 1.252-.417 1.6-.696.627-.487.904-1.112.904-2.017 0-1.252-.416-2.086-1.32-2.573-.904-.487-2.156-.766-3.686-.766h-5.355v.418c.764 0 1.32.139 1.529.348.209.208.348.625.348 1.321v8.555c0 .695-.139 1.112-.348 1.321-.209.208-.766.348-1.529.348v.348h6.257zm-2.433-6.955v-4.312c0-.278 0-.487.139-.556.07-.069.348-.069.695-.069 1.045 0 1.879.069 2.365.278.975.417 1.391 1.182 1.391 2.364 0 .904-.416 1.6-1.182 1.947-.418.208-.975.348-1.6.348h-1.808zM109.697 93.109c.486 0 .764.139.902.208.209.139.279.487.279.974v4.869c0 .903.277 1.53.766 1.947.486.348.973.556 1.529.556s1.113-.208 1.67-.556a8.431 8.431 0 0 0 1.182-1.112v1.6h.07c.557-.209.902-.349 1.043-.349.348-.139.625-.208.834-.278.139-.069.418-.139.695-.208v-.278c-.486 0-.766-.069-.904-.209-.209-.139-.277-.417-.277-.834v-6.607h-2.99v.278c.557.069.902.139 1.111.278.209.209.279.487.279.974v5.147c-.209.208-.488.487-.695.626-.418.278-.836.417-1.252.417-.627 0-1.043-.278-1.252-.695-.139-.278-.209-.626-.209-1.043v-5.981h-2.781v.276zM120.824 92.9h1.877v.626h-1.877l-.07 5.425c0 .417.07.835.141 1.044.139.417.416.625.902.625.209 0 .418 0 .557-.139.141-.14.348-.278.557-.486l.279.208-.209.278c-.348.417-.695.695-1.043.904s-.695.277-1.043.277c-.766 0-1.252-.348-1.531-.973-.139-.349-.209-.835-.209-1.461v-5.703h-.973c-.07 0-.07 0-.07-.069-.068 0-.068 0-.068-.07 0-.069.068-.069.068-.139 0 0 .141-.07.279-.208.416-.348.695-.626.904-.904.207-.209.625-.765 1.32-1.739.07 0 .139 0 .139.07.07 0 .07 0 .07.139V92.9zM125.693 92.9h1.947v.626h-1.947v5.425c0 .417 0 .835.139 1.044.139.417.416.625.834.625.209 0 .418 0 .627-.139.139-.14.348-.278.555-.486l.209.208-.209.278a2.591 2.591 0 0 1-1.043.904 1.957 1.957 0 0 1-1.043.277c-.695 0-1.182-.348-1.461-.973-.139-.349-.207-.835-.207-1.461v-5.703h-1.045s-.068 0-.068-.069v-.07-.139c.068 0 .139-.07.277-.208.418-.348.766-.626.975-.904.139-.209.625-.765 1.32-1.739.07 0 .141 0 .141.07V92.9h-.001z" fill="#fff"/><path d="M132.646 94.222c.141.278.279.765.348 1.391h-3.963c.068-.487.209-.904.416-1.252.418-.625.904-.974 1.67-.974.695 0 1.182.279 1.529.835zm-3.894-.139c-.764.904-1.111 2.017-1.111 3.269 0 1.113.277 2.156.973 3.061.627.834 1.531 1.321 2.713 1.321.973 0 1.877-.348 2.572-1.043s1.184-1.392 1.391-2.156l-.277-.139c-.418.625-.834 1.112-1.252 1.46-.486.348-1.043.486-1.668.486-.836 0-1.531-.278-2.088-.974-.625-.626-.904-1.738-.973-3.129h5.912c0-1.113-.35-2.017-.975-2.574-.695-.625-1.461-.974-2.295-.974-1.252.001-2.156.488-2.922 1.392z" fill="#fff"/><path d="M135.012 101.455v-.278c.557-.069.975-.139 1.182-.278.141-.208.279-.486.279-.974v-4.242c0-.626-.07-1.043-.209-1.322-.07-.278-.348-.417-.625-.417-.07 0-.141 0-.209.07h-.348v-.278c.348-.139.695-.278 1.111-.348.35-.139.627-.278.766-.278.279-.139.627-.278.975-.417h.068v1.738c.418-.557.766-.974 1.184-1.252.348-.348.695-.487 1.111-.487.348 0 .557.069.766.278.209.208.348.417.348.695s-.139.487-.277.695c-.141.139-.348.208-.557.208s-.486-.069-.695-.278c-.279-.278-.418-.348-.557-.348-.279 0-.486.139-.834.487-.279.417-.488.765-.488 1.113v4.243c0 .486.141.904.418 1.112.209.209.625.278 1.252.278v.278h-4.661v.002zM141.758 101.455v-.209c.695-.069 1.113-.208 1.322-.417s.277-.626.277-1.321v-5.981h-1.6V92.9h1.6c0-1.043.139-1.808.418-2.504.486-1.321 1.461-1.947 2.852-1.947.486 0 .973.069 1.461.278.416.278.625.557.625.904 0 .209-.07.417-.209.556-.139.139-.348.208-.557.208s-.348 0-.486-.139c-.139-.07-.277-.278-.486-.557l-.139-.278c-.07-.139-.209-.208-.279-.278-.139-.139-.277-.139-.486-.139-.486 0-.834.209-.975.695a3.28 3.28 0 0 0-.139.974V92.9h2.365v.626h-2.365v5.981c0 .695.07 1.112.279 1.321.207.209.695.348 1.529.417v.209h-5.007v.001z" fill="#fff"/><path d="M148.99 89.423c0-.278.07-.487.279-.696.209-.208.418-.278.695-.278s.486.069.695.278c.209.209.277.417.277.696 0 .278-.068.487-.277.695s-.418.278-.695.278-.486-.069-.695-.278-.279-.417-.279-.695zm-1.181 12.032v-.209c.695-.069 1.113-.208 1.252-.348.209-.208.277-.626.277-1.391v-4.451c0-.348-.068-.626-.068-.834-.139-.208-.279-.348-.627-.348h-.207c-.07 0-.209.07-.557.14v-.278l.416-.139c1.113-.348 1.809-.626 2.295-.765.141-.07.279-.139.348-.139v6.816c0 .765.07 1.183.209 1.391.209.14.627.278 1.184.348v.209h-4.522v-.002zM157.268 94.222c.209.278.277.765.418 1.391h-3.965c.07-.487.209-.904.416-1.252.35-.625.904-.974 1.6-.974.765 0 1.251.279 1.531.835zm-3.895-.139a5.332 5.332 0 0 0-.138 6.33c.625.834 1.529 1.321 2.711 1.321 1.043 0 1.879-.348 2.574-1.043s1.182-1.392 1.461-2.156l-.348-.139c-.348.625-.766 1.112-1.252 1.46-.418.348-.975.486-1.67.486-.766 0-1.461-.278-2.086-.974-.557-.626-.904-1.738-.975-3.129h5.912c0-1.113-.277-2.017-.975-2.574-.625-.625-1.391-.974-2.295-.974-1.181.001-2.155.488-2.919 1.392z" fill="#fff"/><path d="M159.771 101.455v-.209c.557-.069.973-.208 1.182-.348.209-.208.279-.557.279-1.043v-9.181c0-.348 0-.695-.07-.834-.139-.278-.418-.348-.766-.348h-.277c-.139 0-.279.07-.418.07v-.278c.836-.209 1.879-.557 3.061-.904.07 0 .07 0 .07.07v11.405c0 .557.139.904.277 1.043.209.209.557.278 1.182.348v.209h-4.52z" fill="#fff"/><path d="M166.17 99.508c-.488-.835-.695-1.739-.695-2.712 0-1.044.207-1.878.625-2.574.418-.696 1.043-1.043 1.809-1.043.418 0 .834.208 1.322.487.416.348.625.904.625 1.739v4.034c0 .208-.139.486-.418.765a1.755 1.755 0 0 1-1.182.417c-.973-.001-1.67-.349-2.086-1.113zm-1.184-5.425c-.764.974-1.182 2.156-1.182 3.478 0 1.112.348 2.017.975 2.852.695.834 1.529 1.251 2.572 1.251.627 0 1.184-.139 1.6-.417.279-.139.557-.417.904-.834v1.183l.07.068 1.459-.556a18.367 18.367 0 0 0 1.322-.487v-.278h-.348c-.486 0-.695-.069-.834-.208a2.58 2.58 0 0 1-.141-.835v-7.65-1.113c0-.417.07-.765.07-1.113v-.974h-.07c-.207.069-.416.139-.486.139-.209.07-.486.139-.766.279l-.834.208-.764.209v.278h.625c.277 0 .486.069.557.208.068.139.139.348.139.765v2.99c-.209-.278-.486-.417-.695-.556a2.724 2.724 0 0 0-1.252-.278c-1.18 0-2.155.417-2.921 1.391zM34.515 98.534H22.483l-.208-1.043c1.669.904 2.991-.07 2.991-.07 1.878 1.113 3.199 0 3.269 0 1.809 1.113 3.199 0 3.269 0 1.322.766 2.365.418 2.921.14l-.21.973zM34.445 99.021l-.556 2.434h-10.78l-.487-2.434h11.823z" fill="#fff"/><path d="M27.629 96.656c.557-.209.835-.417.835-.417 1.878 1.112 3.269 0 3.269 0 .557.278 1.183.417 1.53.417.417-.348.904-1.043 1.182-1.6.417-.626.487-1.53-.139-2.017-.695-.417-1.6-.07-2.086.278l-.069-.208-.278.626.626.139-.07-.208s.696-.487 1.183-.348c.208.069.834.278.556 1.251-.348 1.044-1.46.904-1.46.904-.695.835-1.251.14-1.251 0-1.391.07-1.043-1.251-1.043-1.251-1.113-1.391.208-2.643 1.391-2.573l-.417-.626.765.208s.487-1.113 1.182-1.46l-.695-.556 1.113.069s-.278-.904.208-1.669h-.765l.904-.625s-.348-.835-.208-1.321l-2.991 2.156.904.139-.834.348-.069.278 1.182.487h-1.252l-.348.766.557.904-.835-.417-1.53 1.043.556 1.669-1.321-1.739 1.53-1.043s.139-.139.069-.278c0 .07-.765-.487-.208-1.252.139-.139 0-.348-.07-.417-.208-.487 0-.696.07-.904.139-.209.139-.278 0-.487-.278-.417-.07-.487 0-.696.139-.347-.348-.417-.348-.417-.208 0-.278-.139-.278-.348.139-.557.278-.765.278-.765l-.208-.07-.487.696h-1.391l-.348.487h-1.461v.139l.139.278 1.322-.347s.417-.139.417.139c0 0 .278.765.348.974.07.139.07.417-.417.417l-.904-.069s-.278-.14-.348.069v.208l.07.07s.139-.208.347-.208c0 0 .974.069 1.391.069s.417.487.208.556c-.486.209-2.226 1.53-2.364 2.086l1.808-1.113-1.252 1.53-3.199 1.947s0 .348-.208.417l.069.487.139-.139.974-.348.07.695c-.487.139-1.043.278-1.043.278l-.974.974v-1.6s0-.069.139.278c.069.208.208 0 .208-.209 0-.139-.069-.487-.348-.626v-.695c0-.07.07.139.139.278.069.07.278.139.348-.139 0-.209-.069-.348-.208-.556-.07-.208-.139-.208-.626-.139l.834-.557.557.834.974-.625s-1.252-2.226-1.46-2.435c-.209-.278-.348-.208-.557.069v-1.391l.208.348c.209.278.209-.069.209-.208a.856.856 0 0 0-.417-.626v-.974s0 .139.139.417c.278.348.417-.07.348-.348 0-.278-.069-.625-.695-.487l.834-.556 1.182 2.643s.348.278.696.626l-.348.486-.625-.626-.626-1.321s-.208.139-.139.278c.069.209.069.487.139.765 0 .278-.139.278 0 .417 0 0 1.669 2.851 1.739 2.573 0-.348.348-.904.487-1.113l-.974-.974.348-.486.974.974c.069.069.904-.765 1.46-1.113 0 0 .069-.069-.348-.069-.487-.069-.626.278-.695.209l-.487-.07.139-1.113-.208.069c-.765.348-.974-.208-1.183-.556l-.278.139v-.834l.834.417-.278.139s.278.626.765.487c.556-.278.904-.417 1.391 0h.487l-.139-.626-1.6.417-.348-.487-.143-.068.139-.834h1.6l.417-.556h1.252l.487-.695h1.322l-.278 1.043c-.069.208 0 .348.208.417 0 0 .487 0 .348.417 0 .069-.069.139-.069.278l.626-.765.069.834-.556.626c.069.278.069.278-.07.487-.069.208-.348.487-.069.904.139.208.139.417 0 .557-.417.556.069.695 0 .695 0 0 .626-.766.278-2.017l1.461-1.113s-.348-.487-.417-.904l-.626.765-.069-.834 1.391-1.6c-.626 1.809.139 2.226.139 2.226l2.921-2.086c-.626 1.252-.486 2.295-.069 3.199-.834.696-.904 1.878-.278 2.574-.556 0-1.878.834-2.086 2.365-1.251-.14-2.712.765-1.53 2.017-.278.487.069 1.043.626.557.069.626.765.765.904.139.208.278.904.278 1.113-.348.07-.348 0-.486-.069-.626-.278-.208-.626 0-.626 0l.208.417-1.947-.208.834-1.809.209.417c1.112-.626 2.086-.348 2.503 0 .765.695.765 1.808.139 2.782-.417.695-.695 1.113-.695 1.113.417-.209.765-.418.834-.418l-.208.766c-.417.278-1.6.904-3.061 0-.069 0-1.46 1.112-3.338 0 0 0-1.321 1.112-3.199 0 0 0-1.113.834-3.06 0l-.209-.766c1.808 1.113 3.269.07 3.269.07.626.348 1.252.486 1.738.486l.623-.07z" fill="#fff"/><path d="M27.003 96.726c0-.208 0-.208-.348-.278-.278-.069-.348-.139-.278-.417 0-.348 0-.348-.348-.417-.278-.07-.347-.14-.347-.417.069-.348.069-.348-.279-.417-.278-.069-.348-.139-.348-.417.07-.347 0-.417-.278-.417-.278-.07-.348-.139-.348-.417 0 0 .07-.139-.069-.139-.069.07-.417.139-.695.278l-.07-.695 3.269-1.183.765 1.739-.834-.904-1.739.556c0 .348.07.348.348.417.279.069.348.139.279.417 0 .347.069.347.347.417.278.069.348.139.278.417 0 .348.07.348.348.417.348.07.348.139.348.417-.069.348 0 .348.278.417.348.069.417.209.348.487l-.627.139zM27.421 86.363l-.278-.765h1.043l-.765.765z" fill="#fff"/></g></svg>