<svg xmlns="http://www.w3.org/2000/svg" width="2500" height="2500" viewBox="0 0 223.237 223.237"><path d="M11.112 1.995h201.014c5.014 0 9.117 4.103 9.117 9.117v201.013c0 5.015-4.104 9.118-9.117 9.118H11.112c-5.015 0-9.117-4.104-9.117-9.118V11.112c0-5.015 4.102-9.117 9.117-9.117z" fill-rule="evenodd" clip-rule="evenodd" fill="#fff" stroke="#c6aa6a" stroke-width="3.989" stroke-miterlimit="2.613"/><path fill="none" stroke="#c6aa6a" stroke-width="3.989" stroke-miterlimit="2.613" d="M1.995 170.906h219.248"/><path d="M42.243 156.002h101.16c31.805 0 53.837-36.978 29.505-67.44 24.523-24.715 5.365-67.632-29.505-67.632H42.243v135.072zM60.827 38.749v96.945h80.468c23.757-.383 31.038-28.547 11.112-42.533l-6.897-4.79 11.112-10.346c15.136-14.561 5.173-39.276-14.944-39.276H60.827z" fill-rule="evenodd" clip-rule="evenodd" fill="#c6aa6a"/><path d="M105.512 123.262H79.96c-10.208 0-10.208-12.39-3.936-18.006l39.073-35.042H79.96c-11.186 0-11.586-17.897 0-17.897h60.688c8.317 0 13.165 10.298 4.559 17.897l-39.695 35.042h35.448c11.52 0 11.853 18.006.311 18.006h-35.759z" fill-rule="evenodd" clip-rule="evenodd" fill="#c6aa6a"/><path d="M14.09 184.729c.192-.957.575-1.915 1.149-1.915h5.365c3.066 0 5.173 5.364 1.916 7.472 3.257.383 4.79 7.089-1.149 8.238H15.24c-.574 0-1.149-.383-1.149-.958v-12.837h-.001zm3.449 4.408h2.108c1.532 0 1.341-2.683-.192-2.683h-1.916v2.683zm0 6.513h2.683c.575 0 1.916 0 1.533-1.724 0-.575-.575-1.342-1.15-1.342H17.54v3.066h-.001zm8.238-.382l3.64-10.729c1.533-3.257 4.215-1.916 4.982 0l4.215 11.112c.958 2.874-1.916 4.023-3.257 1.533l-.383-1.533h-5.939l-.191 1.342c-.576 2.489-4.599 2.107-3.067-1.725zm4.407-2.874h3.832l-1.916-5.748-1.916 5.748zm9.005-2.683v-5.556c0-1.341 2.491-2.107 3.257-.383l6.706 8.43v-8.047c0-1.916 3.257-1.916 3.257-.191v13.603c0 .958-2.491 1.533-3.257.192l-6.706-8.622v8.238c0 1.341-3.065 1.916-3.257 0v-7.664zm14.369-.383v-5.173c0-1.916 3.257-1.916 3.257 0v4.79l5.365-5.939c1.149-1.149 4.215.575 2.491 2.874l-4.215 4.215 4.981 5.556c1.724 1.916-1.341 3.832-2.491 2.683l-5.748-6.514v5.556c0 1.532-3.641 1.532-3.641 0v-8.048h.001zm17.435 6.322l6.897-9.388h-5.173c-2.682 0-1.916-3.448-.574-3.448h8.046c1.724 0 2.683 1.149 1.724 3.257l-6.705 9.388h5.939c1.916 0 2.107 2.874 0 3.065h-8.622c-1.532 0-2.107-1.34-1.532-2.874zm12.454-.382l3.64-10.729c1.533-3.257 4.215-1.916 4.981 0l4.215 11.112c.958 2.874-2.107 4.023-3.257 1.533l-.575-1.533h-5.748l-.383 1.342c-.574 2.489-4.406 2.107-2.873-1.725zm4.407-2.874h3.64l-1.725-5.748-1.915 5.748zm7.854-1.533c.191-5.365 4.215-9.005 9.196-8.047 2.299.574 3.065 1.532 2.874 3.065-.575 1.724-1.724.958-2.491.958-1.533-.575-4.215-.958-5.748 2.107-.192.766-.192 3.831.766 5.173 1.341 1.532 3.257 1.532 4.981.958 3.257-1.341 3.64 2.299 1.533 3.257-2.107.767-2.49.383-3.64.383-3.83.192-7.279-2.107-7.471-7.854zm13.22-.383v-6.131c0-1.149 2.107-2.49 3.448-.191v4.981h6.706v-4.79c0-1.916 3.257-1.725 3.257.383v12.646c0 1.916-3.257 1.916-3.257.191v-4.981h-6.706v4.981c0 1.533-3.064 1.916-3.448 0v-7.089zm13.986.958c-.191-6.131 3.448-8.813 7.472-8.813 3.641 0 7.664 2.3 7.473 8.431 0 3.065-1.725 7.663-7.473 7.854-1.532-.001-7.089-.575-7.472-7.472zm3.641-.383c.383 2.874 1.532 4.598 3.831 4.598 2.3 0 3.641-1.915 3.641-4.598 0-3.449-1.341-4.79-3.448-4.981-2.492-.192-4.217 2.107-4.024 4.981zm12.261-1.725v-4.599c.191-.766.574-1.915 1.341-1.915h4.79c9.771 0 9.963 15.71.383 15.71h-4.79c-.574 0-1.724-.191-1.724-1.149v-8.047zm3.449-2.874v9.005h2.299c5.174-.575 4.407-8.621.767-9.005h-3.066zm11.112 3.257v-5.556c0-1.341 2.491-2.107 3.257-.383l6.897 8.43v-8.047c0-1.916 3.257-1.916 3.257-.191v13.603c0 .958-2.49 1.533-3.257.192l-6.897-8.622v8.238c0 1.341-2.873 1.916-3.257 0v-7.664zm14.561 7.473v-12.837c0-2.299 3.257-2.107 3.257-.191v13.028c0 1.916-3.257 1.916-3.257 0zm10.346-9.772c0-3.64 3.64-4.981 5.748-4.79 1.341 0 3.448.384 3.832 1.725.383 2.107-.959 2.874-2.875 2.107-1.532-.574-3.065 0-3.065.767-.574 1.916 6.897.575 6.897 6.322 0 2.874-1.725 5.173-5.556 4.981-1.342 0-3.449 0-4.407-.766-.958-.384-.958-1.916-.574-2.491.958-1.725 2.49-.384 2.683-.384 2.299.767 3.831.767 4.215-.766.191-1.342-1.533-1.533-1.916-1.725-1.15-.573-5.173-.956-4.982-4.98zm12.07 9.58c0-1.342.767-1.916 1.916-1.916s1.916.958 1.916 1.916c0 1.341-.958 1.724-1.916 1.724s-1.916-.192-1.916-1.724zm5.556-1.724l3.641-10.729c1.532-3.257 4.215-1.916 4.981 0l4.215 11.112c.958 2.874-1.916 4.023-3.257 1.533l-.384-1.533h-5.939l-.191 1.342c-.575 2.489-4.598 2.107-3.066-1.725zm4.407-2.874h3.832l-1.916-5.748-1.916 5.748zm9.579 4.981c0-1.341.767-1.916 2.107-1.916 1.149 0 1.916.958 1.916 1.916 0 1.149-.958 1.725-1.916 1.725-1.149 0-2.107-.576-2.107-1.725z" fill-rule="evenodd" clip-rule="evenodd"/></svg>