<svg xmlns="http://www.w3.org/2000/svg" width="2500" height="2500" viewBox="0 0 192.756 192.756"><g fill-rule="evenodd" clip-rule="evenodd"><path fill="#fff" d="M0 0h192.756v192.756H0V0z"/><path d="M67.215 89.93c2.31 2.695 3.658 5.775 3.658 8.855 0 10.395-13.86 18.672-30.799 18.672-10.78 0-20.212-3.273-25.602-8.277 5.198 5.773 15.4 9.625 26.95 9.625 17.132 0 30.799-8.277 30.799-18.674-.001-3.656-1.926-7.314-5.006-10.201z" fill="#8f9396"/><path d="M61.44 92.047c1.925 1.925 3.08 4.428 3.08 6.93 0 8.086-10.972 14.631-24.254 14.631-8.47 0-15.785-2.504-20.212-6.545 4.042 4.619 12.127 7.699 21.174 7.699 13.475 0 24.255-6.545 24.255-14.631 0-3.078-1.54-5.774-4.043-8.084z" fill="#8f9396"/><path d="M71.642 88.967c2.888 3.273 4.62 6.93 4.62 10.779 0 12.32-16.555 22.33-36.959 22.33-12.897 0-24.254-3.85-30.799-10.01 6.16 6.93 18.287 11.742 32.339 11.742 20.404 0 36.959-10.01 36.959-22.33 0-4.619-2.309-8.853-6.16-12.511z" fill="#8f9396"/><path d="M37.571 102.826c-2.502-2.502-3.85-5.582-3.85-8.854 0-10.395 13.86-18.671 30.799-18.671 10.78 0 20.212 3.272 25.794 8.277-5.197-5.775-15.399-9.625-27.142-9.625-16.939 0-30.799 8.277-30.799 18.672.001 3.85 1.925 7.314 5.198 10.201z" fill="#8f9396"/><path d="M43.153 100.902c-1.925-2.117-2.887-4.621-2.887-7.123 0-8.084 10.78-14.629 24.254-14.629 8.277 0 15.785 2.695 20.212 6.545-4.235-4.62-12.127-7.7-21.367-7.7-13.282 0-24.254 6.737-24.254 14.822 0 2.888 1.54 5.775 4.042 8.085z" fill="#8f9396"/><path d="M32.951 103.789c-2.887-3.08-4.427-6.736-4.427-10.78 0-12.319 16.555-22.329 36.959-22.329 12.897 0 24.254 4.042 30.799 10.01-6.353-6.93-18.479-11.742-32.532-11.742-20.405 0-36.959 10.202-36.959 22.521 0 4.621 2.31 8.855 6.16 12.32z" fill="#8f9396"/><path d="M84.925 92.817V90.7h.385c.962 0 1.347.577 1.347 1.155s-.577.962-1.155.962h-.577zm-.771 1.54c0 .577-.192.77-.577.77v.192h2.502c.962 0 1.54-.385 1.54-1.155 0-.578-.578-1.155-1.348-1.348.77-.192 1.155-.577 1.155-1.155s-.578-1.155-1.925-1.155h-1.925v.194c.385 0 .577.192.577.77v2.887h.001zm.771-1.348h.385c.962 0 1.54.385 1.54 1.155 0 .577-.578.962-.962.962h-.385c-.577 0-.577-.193-.577-.77v-1.347h-.001zM91.084 93.009h-1.54l.77-1.925.77 1.925zm.578 1.733c.192.192 0 .385-.385.385v.192h1.732v-.192c-.385 0-.577-.193-.77-.578l-1.348-4.042h-.578l-1.54 3.85c0 .577-.192.77-.77.77v.192h1.348v-.192c-.385 0-.385-.385-.192-.77l.385-.962h1.732l.386 1.347zM94.934 90.7h.385c.962 0 1.348.577 1.348 1.155s-.385 1.155-1.155 1.155h-.578V90.7zm0 2.502h.385c.962 0 1.155.963 2.118 2.118h1.154v-.192c-.963 0-1.348-1.54-2.31-2.118.771-.192 1.156-.577 1.156-1.155s-.579-1.348-1.733-1.348h-2.118v.193c.386 0 .578.192.578.77v2.888c0 .77-.192.77-.578.77v.192h1.925v-.192c-.578 0-.578-.193-.578-.77v-1.156h.001zM103.598 91.854c-.193-.77-.771-1.155-1.732-1.155-1.156 0-1.926.962-1.926 2.117 0 1.348.77 2.31 1.926 2.31.961 0 1.539-.385 1.924-.962h.193c-.385.77-1.156 1.155-2.311 1.155s-2.502-.77-2.502-2.31c0-1.347 1.154-2.502 2.695-2.502.576 0 1.154.193 1.539.193 0 0 .193 0 .193-.193h.191v1.348h-.19v-.001zM108.023 93.587h-.191c-.193-.385-.193-.578-.77-.578h-1.348v1.732c0 .192.191.385.385.385h.963c.77 0 .961 0 1.348-.77l-.193.962h-3.658v-.192c.385 0 .578 0 .578-.77v-2.888c0-.577-.193-.77-.578-.77v-.193h3.658v.962c-.193-.577-.385-.577-.963-.577h-1.539v1.925h1.539c.385 0 .385 0 .578-.385h.191v1.157zM113.029 95.319h-3.85v-.192c.385 0 .576-.193.576-.77v-2.888c0-.577-.191-.77-.576-.77v-.193h1.924v.194c-.576 0-.576.192-.576.77v3.08c0 .385.191.578.576.578h.963c.578 0 .77-.193.963-.77h.191l-.191.961zM114.568 93.009c0-1.347.963-2.31 2.117-2.31.963 0 1.926.77 1.926 2.31 0 1.155-.77 2.31-1.926 2.31-1.154 0-2.117-.962-2.117-2.31zm-.769 0c0 1.348 1.348 2.31 2.887 2.31 1.541 0 2.695-.962 2.695-2.31 0-1.54-1.154-2.502-2.695-2.502-1.54 0-2.887.962-2.887 2.502zM90.507 100.902c0 .385.385.576.77.77v.193h-2.502v-.193c.578-.193.578-.385.578-1.154l-.578-2.695-1.732 4.043h-.193l-1.54-4.043h-.192l-.385 2.887c0 .578 0 .963.578.963v.193h-1.925v-.193c.578 0 .963-.385.963-1.154l.578-3.08c-.193-.193-.578-.385-.771-.385h1.925l1.348 3.078 1.347-3.078h1.925c-.577.191-.77.385-.577.77l.383 3.078zM95.704 100.131h-.192c0-.385-.192-.576-.77-.576h-.962v1.348c0 .385.385.576.77.576h.385c.578 0 .963-.385 1.155-.77v1.156h-4.042v-.193c.578-.193.578-.193.578-.77v-3.08c0-.385 0-.578-.578-.77h4.042v.961h-.192c-.193-.576-.385-.77-.963-.77H93.78v1.926h.962c.578 0 .77 0 .77-.578h.192v1.54zM100.518 100.131h-.193c0-.385-.193-.576-.578-.576h-.961v1.348c0 .385.191.576.77.576h.191c.771 0 .963-.385 1.156-.77h.191l-.191 1.156H96.86v-.193c.579-.193.77-.193.77-.77v-3.08c0-.385-.191-.578-.77-.77h4.043v.961h-.193c-.191-.576-.385-.77-.963-.77h-.961v1.926h.961c.385 0 .578 0 .578-.578h.193v1.54zM102.826 101.865v-.193c.578-.193.578-.193.578-.77v-3.658h-.385c-.77 0-1.154.193-1.348.77V96.86h.193s.191 0 .191.193H105.713c.191 0 .385 0 .576-.193h.193v1.154h-.193c-.191-.576-.576-.77-1.154-.77h-.578v3.658c0 .576.193.77.77.77v.193h-2.501zM109.18 100.902c0 .576 0 .576.576.77v.193h-2.502v-.193c.578-.193.77-.385.77-.77v-3.08c0-.385-.191-.578-.77-.77h2.502c-.576.191-.576.385-.576.77v3.08zM115.531 101.865h-.193l-3.656-3.852v2.889c0 .576.191.576.77.77v.193h-1.924v-.193c.576 0 .77-.385.77-.77v-3.273c-.385-.385-.578-.385-.77-.576h1.539l3.08 3.078v-2.117c0-.576 0-.77-.578-.961h1.732c-.576.191-.77.385-.77.961v3.851zM122.076 101.672c-.578.193-1.348.193-2.117.193-1.926 0-2.887-1.156-2.887-2.504s1.346-2.502 2.887-2.502c.77 0 1.154.385 1.539.385.193 0 .193-.191.385-.191h.193v1.346h-.193c-.385-.77-.961-1.346-1.732-1.346-1.154 0-1.732.961-1.732 2.502 0 1.539.771 2.117 1.732 2.117.387 0 .771-.193.771-.578v-.576c0-.387-.193-.578-.578-.771h2.311c-.385.193-.578.385-.578.771v1.154h-.001zM126.504 98.207h-.193c-.191-.578-.77-1.154-1.348-1.154-.385 0-.77.385-.77.77 0 .191 0 .385.193.385.385.385 1.539.963 1.924 1.154.385.385.578.77.578 1.156 0 1.154-1.154 1.348-1.732 1.348-.77 0-1.154-.193-1.348-.193s-.193.193-.193.193h-.191v-1.348h.191c0 .576.578 1.154 1.348 1.154.578 0 .963-.385.963-.77 0 0 0-.385-.191-.385-.385-.387-1.348-.771-1.926-1.156-.193-.385-.385-.77-.385-1.154 0-.77.77-1.348 1.732-1.348h.385c.193.193.385.193.578.193 0 0 .191 0 .191-.193h.193v1.348h.001zM129.006 97.629c0-.385.385-.576.77-.576s.771.191.771.77c0 .385-.193.77-.771.963-.385-.388-.77-.772-.77-1.157zm4.234.963h-1.732v.193c.385 0 .385.191.385.385 0 .385 0 .576-.385 1.154-.576-.578-.961-.963-1.539-1.348.77-.385 1.154-.77 1.154-1.348 0-.385-.576-.961-1.154-.961-.963 0-1.541.576-1.541 1.346 0 .385.387.771.771 1.156-.771.385-1.348.961-1.348 1.539s.77 1.156 1.732 1.156c.576 0 1.154-.193 1.539-.771.385.385.77.771 1.348.771.385 0 .77-.193.963-.387l-.193-.191c-.191.191-.191.191-.385.191-.385 0-.77-.385-1.154-.961.385-.578.385-1.156.77-1.541.193-.191.385-.191.77-.191v-.192h-.001zm-4.619 1.732c0-.385.193-.77.77-.963.385.385 1.156.963 1.732 1.541-.385.385-.77.576-1.154.576-.77.001-1.348-.576-1.348-1.154zM136.32 100.902c0 .576 0 .576.578.77v.193h-2.502v-.193c.77-.193.77-.385.77-.77v-3.08c0-.385-.193-.578-.77-.77h2.502c-.578.191-.578.385-.578.77v3.08zM142.674 101.865h-.193l-3.658-3.852v2.889c0 .576.193.576.771.77v.193h-1.926v-.193c.578 0 .77-.385.77-.77v-3.273c-.385-.385-.576-.385-.77-.576h1.541l3.08 3.078v-2.117c0-.576 0-.77-.578-.961h1.732c-.578.191-.77.385-.77.961v3.851h.001zM149.219 100.902c-.578.77-1.348.963-2.117.963-1.734 0-2.889-.963-2.889-2.311 0-1.541 1.348-2.695 2.889-2.695.77 0 1.346.385 1.539.385.191 0 .191-.191.385-.385v1.732c-.385-.963-.963-1.539-1.924-1.539-.963 0-1.541.961-1.541 2.117 0 1.732.963 2.309 1.926 2.309.576 0 1.154-.191 1.732-.77v.194zM153.645 100.131h-.191c0-.385-.193-.576-.77-.576h-.771v1.348c0 .385.193.576.578.576h.385c.578 0 .963-.385 1.154-.77h.193l-.193 1.156h-4.041v-.193c.578-.193.77-.193.77-.77v-3.08c0-.385-.191-.578-.77-.77h4.041v.961h-.191c-.193-.576-.385-.77-.963-.77h-.963v1.926h.771c.576 0 .77 0 .77-.578h.191v1.54zM159.805 101.865h-.191l-3.85-3.852v2.889c0 .576.191.576.77.77v.193h-1.732v-.193c.576 0 .576-.385.576-.77v-3.273l-.576-.576h1.539l3.08 3.078v-2.117c0-.576-.191-.77-.77-.961h1.924c-.576.191-.77.385-.77.961v3.851zM162.115 101.865v-.193c.578-.193.77-.193.77-.77v-3.658h-.576c-.578 0-.963.193-1.156.77h-.191l.191-1.154c.193 0 .193 0 .385.193h3.658c.191 0 .385 0 .578-.193l.191 1.154h-.191c-.193-.576-.578-.77-1.156-.77h-.576v3.658c0 .576.191.77.576.77v.193h-2.503zM168.467 100.902c0 .576.193.576.771.77v.193h-2.504v-.193c.578-.193.578-.385.578-.77v-3.08c0-.385-.193-.578-.578-.77h2.504c-.771.191-.771.385-.771.77v3.08zM172.703 101.865h-.193l-1.539-3.852c-.387-.576-.578-.77-.963-.961h2.311c-.578.191-.387.385-.387.77l1.156 2.502.963-2.311c.191-.385 0-.77-.578-.961h1.732c-.385.191-.578.385-.77.961l-1.732 3.852zM179.633 100.131h-.193c0-.385-.191-.576-.77-.576h-.963v1.348c0 .385.193.576.77.576h.387c.576 0 .961-.385 1.154-.77v1.156h-4.043v-.193c.578-.193.578-.193.578-.77v-3.08c0-.385 0-.578-.578-.77h4.043v.961h-.193c-.191-.576-.385-.77-.961-.77h-1.156v1.926h.963c.385 0 .77 0 .77-.578h.193v1.54h-.001zM184.061 98.207h-.193c-.193-.578-.77-1.154-1.348-1.154-.385 0-.77.385-.77.77 0 .191 0 .385.191.385.193.385 1.541.963 1.732 1.154.387.385.578.77.578 1.156 0 1.154-.963 1.348-1.732 1.348-.578 0-.963-.193-1.154-.193-.193 0-.193.193-.385.193v-1.348c.191.576.77 1.154 1.539 1.154.578 0 .963-.385.963-.77 0 0-.193-.385-.385-.385-.385-.387-1.348-.771-1.732-1.156s-.385-.77-.385-1.154c0-.77.576-1.348 1.539-1.348h.578c.191.193.385.193.576.193l.193-.193h.193v1.348h.002z" fill="#0c0e0f"/></g></svg>