<svg xmlns="http://www.w3.org/2000/svg" width="2500" height="2500" viewBox="0 0 192.756 192.756"><g fill-rule="evenodd" clip-rule="evenodd"><path fill="#fff" d="M0 0h192.756v192.756H0V0z"/><path d="M27.28 2.834h138.464v150.982H27.28V2.834z"/><path d="M96.458 183.129c-29.768 0-54.047-24.268-54.047-54.02S66.69 75.092 96.458 75.092s54.047 24.265 54.047 54.017-24.278 54.02-54.047 54.02z"/><path d="M96.472 182.822c-29.632 0-53.727-24.121-53.727-53.699S66.84 75.425 96.472 75.425c29.631 0 53.727 24.12 53.727 53.698s-24.095 53.699-53.727 53.699z" fill="#272728"/><path d="M96.472 182.518c-29.441 0-53.422-24.006-53.422-53.395 0-29.387 23.981-53.393 53.422-53.393 29.442 0 53.422 24.006 53.422 53.393.001 29.389-23.98 53.395-53.422 53.395z" fill="#3b3b3c"/><path d="M96.472 182.213c-29.289 0-53.116-23.854-53.116-53.09 0-29.234 23.828-53.087 53.116-53.087s53.116 23.853 53.116 53.087c0 29.236-23.828 53.09-53.116 53.09z" fill="#474749"/><path d="M96.472 181.906c-29.098 0-52.811-23.738-52.811-52.783 0-29.043 23.713-52.782 52.811-52.782s52.811 23.739 52.811 52.782c0 29.045-23.713 52.783-52.811 52.783z" fill="#4e4e50"/><path d="M96.472 181.602c-28.944 0-52.505-23.586-52.505-52.479 0-28.891 23.561-52.476 52.505-52.476 28.946 0 52.504 23.585 52.504 52.476.001 28.893-23.558 52.479-52.504 52.479z" fill="#575759"/><path d="M96.472 181.297c-28.754 0-52.2-23.473-52.2-52.174 0-28.699 23.446-52.171 52.2-52.171s52.2 23.472 52.2 52.171c0 28.701-23.445 52.174-52.2 52.174z" fill="#5f6062"/><path d="M96.472 180.99c-28.601 0-51.894-23.318-51.894-51.867 0-28.547 23.293-51.828 51.894-51.828 28.6 0 51.856 23.281 51.856 51.828 0 28.549-23.256 51.867-51.856 51.867z" fill="#67686a"/><path d="M96.472 180.686c-28.448 0-51.589-23.166-51.589-51.562 0-28.355 23.141-51.522 51.589-51.522 28.411 0 51.551 23.167 51.551 51.522 0 28.396-23.14 51.562-51.551 51.562z" fill="#6f7072"/><path d="M96.472 180.381c-28.257 0-51.283-23.053-51.283-51.258 0-28.203 23.026-51.217 51.283-51.217 28.258 0 51.245 23.014 51.245 51.217 0 28.205-22.987 51.258-51.245 51.258z" fill="#76787a"/><path d="M96.472 180.074c-28.104 0-50.978-22.898-50.978-50.951 0-28.012 22.873-50.912 50.978-50.912 28.067 0 50.94 22.9 50.94 50.912 0 28.053-22.873 50.951-50.94 50.951z" fill="#7c7d80"/><path d="M96.472 179.77c-27.914 0-50.672-22.785-50.672-50.646 0-27.859 22.758-50.606 50.672-50.606 27.915 0 50.633 22.747 50.633 50.606 0 27.86-22.718 50.646-50.633 50.646z" fill="#838587"/><path d="M96.472 179.465c-27.761 0-50.367-22.633-50.367-50.342 0-27.668 22.606-50.301 50.367-50.301 27.723 0 50.329 22.633 50.329 50.301 0 27.709-22.606 50.342-50.329 50.342z" fill="#8b8c8f"/><path d="M96.472 179.121c-27.57 0-50.023-22.48-50.023-49.998 0-27.516 22.453-49.996 50.023-49.996 27.571 0 50.024 22.48 50.024 49.996 0 27.518-22.453 49.998-50.024 49.998z" fill="#929496"/><path d="M96.472 178.814c-27.417 0-49.718-22.326-49.718-49.652 0-27.402 22.3-49.729 49.718-49.729 27.417 0 49.717 22.327 49.717 49.729 0 27.326-22.3 49.652-49.717 49.652z" fill="#9a9c9e"/><path d="M96.472 178.51c-27.265 0-49.412-22.174-49.412-49.348 0-27.211 22.147-49.424 49.412-49.424 27.227 0 49.413 22.213 49.413 49.424 0 27.174-22.186 49.348-49.413 49.348z" fill="#a2a4a6"/><path d="M96.472 178.205c-27.073 0-49.106-22.061-49.106-49.043 0-27.059 22.033-49.119 49.106-49.119s49.106 22.06 49.106 49.119c0 26.983-22.033 49.043-49.106 49.043z" fill="#aaacae"/><path d="M96.472 177.9c-26.921 0-48.801-21.908-48.801-48.738 0-26.869 21.88-48.813 48.801-48.813 26.883 0 48.801 21.944 48.801 48.813 0 26.83-21.918 48.738-48.801 48.738z" fill="#b0b2b4"/><path d="M96.472 177.594c-26.73 0-48.496-21.793-48.496-48.432 0-26.715 21.766-48.508 48.496-48.508 26.731 0 48.497 21.793 48.497 48.508 0 26.639-21.766 48.432-48.497 48.432z" fill="#b9babc"/><path d="M96.472 177.289c-26.577 0-48.19-21.641-48.19-48.127 0-26.525 21.613-48.203 48.19-48.203 26.54 0 48.19 21.677 48.19 48.203 0 26.486-21.65 48.127-48.19 48.127z" fill="#c1c3c5"/><path d="M96.472 176.982c-26.424 0-47.885-21.486-47.885-47.82 0-26.373 21.46-47.859 47.885-47.859 26.387 0 47.846 21.486 47.846 47.859 0 26.334-21.459 47.82-47.846 47.82z" fill="#cacbcd"/><path d="M96.472 176.678c-26.233 0-47.579-21.373-47.579-47.516 0-26.182 21.346-47.554 47.579-47.554 26.196 0 47.542 21.373 47.542 47.554 0 26.143-21.346 47.516-47.542 47.516z" fill="#d3d4d5"/><path d="M96.472 176.373c-26.081 0-47.273-21.221-47.273-47.211 0-26.029 21.192-47.249 47.273-47.249 26.043 0 47.235 21.219 47.235 47.249 0 25.99-21.191 47.211-47.235 47.211z" fill="#dbdcdd"/><path d="M96.472 176.068c-25.89 0-46.968-21.105-46.968-46.906 0-25.838 21.079-46.943 46.968-46.943 25.852 0 46.93 21.105 46.93 46.943 0 25.801-21.078 46.906-46.93 46.906z" fill="#e1e2e3"/><path d="M96.472 175.762c-25.737 0-46.663-20.953-46.663-46.6 0-25.686 20.926-46.638 46.663-46.638 25.7 0 46.625 20.953 46.625 46.638.001 25.647-20.925 46.6-46.625 46.6z" fill="#eaebec"/><path d="M96.472 175.457c-25.546 0-46.357-20.838-46.357-46.295 0-25.494 20.812-46.333 46.357-46.333 25.508 0 46.319 20.838 46.319 46.333 0 25.457-20.811 46.295-46.319 46.295z" fill="#f3f3f4"/><path d="M96.437 175.152c-25.363 0-46.05-20.676-46.05-46.025s20.687-46.025 46.05-46.025c25.362 0 46.049 20.675 46.049 46.025s-20.687 46.025-46.049 46.025z" fill="#fff"/><path fill="#fff" d="M27.242 153.779h138.471v36.143H27.242v-36.143z"/><path d="M120.49 161.527l-2.787-3.244c-7.598 0-6.758-1.871-6.682-2.596 3.666-7.863 14.625-13.701 9.928-23.662.916-.154 2.023.113 2.863.496-.381-12.48-12.562-12.367-12.754-14.389-.152-1.756 9.814-9.809 7.943-12.061-1.527-1.832-9.164 7.557-11.418 2.404-2.062-4.693 7.904-12.441 1.947-17.938-2.979 3.016-6.146 7.213-9.088 9.006-1.643-2.213-6.644 2.482-9.623 4.771-4.239 3.244-4.735-1.68-2.139-4.389-2.443 1.031-4.926 2.9-5.651 4.008-.114 2.785 3.513 12.098 3.781 16.105 0 4.197-.573 6.297-5.614 4.924 0 1.105 1.489 2.328 3.78 2.67-.42 1.07-5.499 3.436-8.171 4.58-4.201 1.795-10.387 6.488-12.449 11.488-1.718 4.084-1.26 11.641-3.818 11.641-1.833 0-2.826-6.145-3.093-5.953-.305.189-.496 2.594-.496 6.793 0 .725.802 5.344 4.621 5.344h58.92v.002zm-93.477.077h138.69v20.723H27.013v-20.723z" stroke="#000" stroke-width=".115" stroke-miterlimit="2.613"/><path d="M128.74 74.28h11.34v-5.687h.076l5.461 5.877h8.631V55.503h-11.381v6.259h-.076l-5.881-6.259h-8.17V74.28zm-18.254-9.923c0-1.107 1.107-1.985 2.559-1.985 1.488 0 2.596.878 2.596 1.985 0 1.145-1.107 2.023-2.596 2.023-1.451 0-2.559-.878-2.559-2.023zm-10.615.535c0 5.458 5.805 9.732 13.174 9.732 7.445 0 13.25-4.275 13.25-9.732s-5.805-9.732-13.25-9.732c-7.369 0-13.174 4.274-13.174 9.732zM82 64.357c0-1.107 1.069-1.985 2.559-1.985s2.559.878 2.559 1.985c0 1.145-1.069 2.023-2.559 2.023S82 65.502 82 64.357zm-10.692.535c0 5.458 5.88 9.732 13.25 9.732 7.408 0 13.211-4.275 13.211-9.732s-5.803-9.732-13.211-9.732c-7.37 0-13.25 4.274-13.25 9.732zM38.086 74.28h11.456v-9.389l4.239 3.626 4.392-3.626v9.389h11.341V55.503H58.478l-4.697 3.931-4.621-3.931H38.086V74.28zm116.162-26.219h-9.967V45.81h6.949v-4.732h-6.949V38.75h9.967v-4.732h-21.232v18.777h21.232v-4.734zm-42.158 4.732v-6.946h5.766v6.946h11.266V34.016h-11.266v6.87h-5.766v-6.87h-11.264v18.777h11.264zm-36.2-10.457h5.728v10.458h11.341V42.336h5.576v-8.32H75.89v8.32zm-28.677 3.015c0-3.015 1.451-6.068 4.047-6.068 1.337 0 2.101.802 2.101 2.176 0 2.022-.764 4.847-2.024 5.725-.611.458-1.222.648-1.833.648-1.451 0-2.291-.955-2.291-2.481zm10.806-7.633h-3.208l-.305 1.297c-1.222-1.221-2.253-1.717-3.857-1.717-4.277 0-7.064 3.969-7.064 7.404 0 2.939 2.177 4.961 5.384 4.961 1.451 0 2.521-.381 3.933-1.412.382.992 1.146 1.412 2.597 1.412 2.902 0 8.821-2.366 8.821-7.633 0-4.312-3.78-8.511-11.99-8.511-10.272 0-13.785 6.068-13.785 10.343 0 5.687 5.843 9.999 13.632 9.999 4.85 0 9.623-1.794 12.143-4.083h-3.627c-2.75 1.45-5.422 2.137-8.592 2.137-6.416 0-10.73-3.206-10.73-8.053 0-4.962 4.467-8.396 10.959-8.396 5.613 0 9.165 2.557 9.165 6.564 0 4.198-3.781 5.687-4.926 5.687-.688 0-.688-.306-.611-.916l2.061-9.083zm79.083-25.151h-11.035v18.815h11.035v-6.87c3.551.076 5.613 2.404 5.842 6.87h11.914c-.381-4.503-2.252-7.519-5.574-9.465 3.398-2.022 4.926-4.847 4.926-9.351h-11.266c0 3.397-1.756 6.03-5.842 6.259v-6.258zm-28.487 3.854h.688c2.139 0 2.596 1.031 2.596 1.908 0 1.184-.916 1.756-2.979 1.756h-.305v-3.664zm-10.998-3.854v18.815h10.998v-6.984c3.018 0 4.43 2.023 4.889 6.984h11.492c-.496-3.587-2.176-6.755-4.85-9.007 1.834-.992 2.826-2.48 2.826-4.16 0-2.862-2.748-5.648-9.088-5.648H97.617zM82 23.75h-4.085l2.062-4.58h.076L82 23.75zm-7.561 7.632l1.527-3.167h8.096l1.451 3.167h11.036L87.88 12.567H72.11l-8.707 18.815h11.036zm-25.394-8.205h.764c2.33 0 3.093.877 3.093 2.099 0 1.412-.993 1.985-3.551 1.985h-.306v-4.084zm0-6.87h.688c2.253 0 2.864.802 2.864 1.832 0 1.374-.84 1.87-3.246 1.87h-.306v-3.702zm-11.111-3.74v18.815h17.451c5.919 0 8.63-2.29 8.63-5.19 0-1.603-.84-3.091-3.895-4.351 2.443-1.069 3.208-2.481 3.208-4.046 0-2.137-1.68-5.229-9.738-5.229H37.934v.001z" fill="#fff"/><path d="M38.125 176.906c.497.307.917.42 1.413.42 1.413 0 2.406-1.029 2.406-2.594 0-2.367-2.482-4.811-2.482-6.604 0-.725.382-1.068 1.107-1.068.344 0 .611.076 1.031.344v-1.375a2.655 2.655 0 0 0-1.26-.305c-1.336 0-2.291 1.068-2.291 2.596 0 2.328 2.444 4.846 2.444 6.602 0 .611-.497 1.107-1.107 1.107-.42 0-.878-.229-1.26-.648v1.525h-.001zm22.796.268h1.451v-9.961h1.757v-1.336h-4.965v1.336h1.757v9.961zm20.926-11.297v8.512c0 1.793 1.146 2.938 2.559 2.938.916 0 2.52-.609 2.52-3.053v-8.396h-1.451v8.588c0 1.068-.535 1.525-1.069 1.525-.726 0-1.069-.648-1.069-1.602v-8.512h-1.49zm23.485 11.297h1.793c1.643 0 3.705-.953 3.705-5.648 0-3.357-.992-5.648-3.895-5.648h-1.604v11.296h.001zm1.451-1.336v-8.625h.266c1.719 0 2.33 1.184 2.33 4.389 0 3.016-.688 4.236-2.367 4.236h-.229zm22.186 1.336h1.488v-11.297h-1.488v11.297zm19.666-5.649c0 3.779 1.336 5.801 3.092 5.801 1.527 0 3.018-1.832 3.018-5.801 0-3.092-1.031-5.801-3.018-5.801-2.291.001-3.092 3.053-3.092 5.801zm1.527 0c0-2.021.305-4.465 1.527-4.465.953 0 1.527 1.641 1.527 4.465 0 2.787-.574 4.465-1.49 4.465-1.031 0-1.564-1.601-1.564-4.465z" fill="#fff" stroke="#fff" stroke-width=".72" stroke-miterlimit="2.613"/></g></svg>