<svg xmlns="http://www.w3.org/2000/svg" width="2500" height="2500" viewBox="0 0 192.756 192.756"><g fill-rule="evenodd" clip-rule="evenodd"><path fill="#fff" d="M0 0h192.756v192.756H0V0z"/><path d="M147.814 79.99c-1.826 3.558-2.484 7.795-.701 11.476a7.225 7.225 0 0 0 7.271 4.012c-2.078 2.004-5.062 3.439-7.855 1.495-4.049-2.822-5.662-7.671-4.09-12.03 2.506-6.954 9.635-10.981 16.717-12.411 4.146-.837 8.096.204 12.166.364 1.416-1.131 2.822-2.913 4.916-3.186.264-.034.059.69-.035.783-.947.942-2.047 1.571-3.221 2.259-.129.076-.143.327-.203.509 3.75.852 7.666 1.485 11.473.729-3.275 4.039-8.635 3.121-13.113 2.367-1.352.97-1.023 3.07-1.135 4.565-.291 3.997-.6 7.886.281 11.995.021.101.357.219.461.15 1.367-.903 2.719-2.356 4.395-1.766 1.893.669 2.621 2.588 2.129 4.341-.451 1.599-1.963 2.482-3.035 3.66.928-2.117.18-4.937-2.369-5.45-.914-.182-1.566.642-1.604 1.445-.174 3.893.426 7.745.078 11.647-.252 2.808-2.666 4.622-4.48 6.562.027-.511.311-.963.334-1.457.516-10.529-1.098-20.892.068-31.5.178-1.621 1.137-2.933 1.783-4.375-4.428-.95-8.91-1.192-13.475-.517-2.744.408-5.437 1.758-6.756 4.333z" fill="#787783"/><path d="M164.777 79.472c.393-.228.648-.608 1.082-.749-.377 1.187-.674 2.38-.75 3.642-.594 9.938.674 19.759.115 29.68-.215 3.798-3.615 6.117-6.115 8.735-2.307 2.418-5.674 2.54-8.73 2.013.834-1.323 2.002-2.585 2.822-3.642.639-.818 5.061.892 6.715-.837 2.027-2.12 1.381-5.224 1.43-7.907.146-7.705-.539-15.408-.307-23.121.059-1.924-.057-4.037 1.381-5.63.732-.813 1.392-1.624 2.357-2.184zM130.711 82.867c-.486-2.595-2.029-5.292-4.912-5.191-1.633.058-3.484.759-4.176 2.466-.621 1.526-.479 3.457.939 4.483 3.035 2.195 6.619 2.081 9.789 3.884 3.4 1.938 5.059 5.669 4.533 9.471-.393 2.863-2.082 5.199-4.549 6.716-6.797 4.184-16.711 1.044-18.195-7.077 1.977-.553 4-.869 6.01-1.276.719 4.562 6.32 7.134 9.803 3.613 1.914-1.935 1.201-5.294-1.258-6.311-3.768-1.556-8.117-1.827-11.074-4.97-2.389-2.538-3.102-6.266-1.818-9.44 2.547-6.296 11.32-8.295 16.701-4.161 2.15 1.652 3.322 4.1 3.67 6.701-1.809.429-3.649.683-5.463 1.092zM32.853 73.293v32.644h21.374l-.002-4.882H39.021l.011-9.47 11.58.004.007-4.738H39.021l-.014-8.808 14.035-.025v-4.735l-20.189.01zM72.345 73.283l-7.83-.011-9.56 32.643 6.092-.01 2.375-8.516 9.465-.014 2.612 8.55h5.918l-9.072-32.642zm-7.648 19.462l3.643-13.567 3.642 13.567h-7.285zM82.353 73.286l.008 32.651h6.012l-.002-24.379 6.375 24.357h5.461l6.375-24.175v24.175l5.918.023.012-32.666h-9.662l-5.282 21.216-5.373-21.216-9.842.014zM31.534 94.909c-.596-2.786-2.394-5.035-4.95-6.534 1.552-1.157 2.754-2.496 3.395-4.25.768-2.101 1.67-6.669-3.649-9.748 0 0-1.83-1.125-4.689-1.125l-13.135.011.014 32.645s9.41.009 14.385.009c5.215-.001 9.836-5.354 8.629-11.008zM14.591 78.26l5.945.002c1.771 0 4.214 1.202 4.097 4.143-.107 2.731-2.592 4.2-3.93 4.2l-6.112.006V78.26zm5.811 22.901h-5.875V91.146l5.909.003c2.14 0 4.627 1.853 4.562 5.187 0 3.396-3.057 4.825-4.596 4.825z" fill="#787783"/></g></svg>