<svg xmlns="http://www.w3.org/2000/svg" width="2500" height="2500" viewBox="0 0 192.756 192.756"><g fill-rule="evenodd" clip-rule="evenodd"><path fill="#fff" d="M0 0h192.756v192.756H0V0z"/><path d="M37.267 156.244l1.32.08 1.401.27.323.135.297.135.296.162.243.188.188.242.161.244.108.295.054.324v.484l-.027.242-.054.217-.081.215-.135.242-.161.189-.162.215-.404.35-.404.297-.566.324-.323.188-.108.082-.027.053-.027.027v.055l.404.08.404.107.377.135.404.189.351.188.35.244.296.268.27.324.188.297.135.35.081.35.027.404-.027.297-.027.322-.081.271-.081.295-.108.27-.134.242-.162.244-.162.215-.188.215-.215.189-.431.35-.512.27-.539.242-1.455.352-1.59.107-3.044-.082h-.835l-.269-.025h-.27l-.916.025h-.269l-.108-.025-.054-.027-.054-.055-.027-.08-.027-.082-.054-.35-.027-.027v-.027h.027l.027-.025.054-.027.107-.027h.216l.215-.027.162-.027.296-.107.215-.135.188-.135.162-.16.108-.217.107-.242.081-.242.081-.512.027-1.105.027-3.178.027-.459-.081-2.182-.027-.459-.027-.215-.054-.217-.054-.107-.054-.107-.054-.08-.081-.082-.162-.107-.162-.08-.215-.055-.216-.053-.431-.082-.108-.027h-.027l-.027-.025v-.109l.081-.295.081-.162.054-.055.054-.053.027-.027h.404l1.32.027.081-.027h1.321l.107-.027H35.62l.107-.027H36.428l.081-.025h.673l.085-.034zm-.97.754l-.188.055-.162.025-.162.055-.081.027-.081.053-.081.109-.081.133-.027.137-.027.16v.324l-.027.322-.054 1.482.027 2.586.027 3.045V166.347l.027.215.054.189.081.16.081.162.161.162.162.107.188.08.188.055.431.055h.458l.188-.027.162-.027.458-.135.216-.107.215-.135.404-.27.188-.189.162-.188.135-.217.108-.215.135-.297.108-.322.054-.352.027-.35-.027-.35-.054-.324-.081-.322-.135-.324-.188-.27-.188-.242-.216-.215-.242-.162-.27-.135-.27-.107-.296-.055-.323-.053h-.323l-.377.053H36.431l-.027-.027-.027-.025-.054-.055-.107-.188-.135-.352v-.053h.027l.081-.082.108-.025.135-.027h.135l.512-.189.323-.135.296-.162.296-.215.27-.242.135-.189.135-.188.134-.189.081-.215.081-.189.054-.215.054-.215V158.559l-.054-.188-.054-.217-.081-.188-.107-.189-.162-.162-.161-.162-.216-.133-.188-.109-.216-.08-.431-.08-.485-.055h-.486v.002zm11.289 2.129l.673.08.323.027.323.08.458.162.431.242.404.297.35.322.323.379.27.404.216.457.161.459.162.781.054.457v.189l-.027.053-.027.055-.027.027-.054.025-.188.027h-.565l-1.805-.027-1.509.027-.404.027h-.215l-.188-.027-.054-.027-.027-.025-.027-.027v-.055l.027-.107.081-.188.108-.27.054-.109.027-.053.054-.027.054-.027.081-.027h.161l.297.027 1.186.027.081-.027h.243l.054-.107.027-.107.027-.135v-.107l-.027-.27-.027-.217-.162-.699-.134-.324-.162-.297-.081-.107-.081-.107-.215-.162-.215-.107-.27-.08h-.242l-.27.027-.243.08-.215.107-.135.107-.108.135-.188.27-.135.27-.135.242-.081.297-.081.297-.081 1.238.108 1.24.135.592.215.539.135.27.162.242.162.244.216.215.215.188.215.189.27.135.27.135.377.135.404.08.431.027h.539l.054-.027h.162l.701-.188.458-.217v.027h.027l-.135.484-.081.244-.054.107-.054.08-.081.082-.107.053-.27.135-.512.162-1.212.215-1.186-.027-.593-.107-.565-.162-.512-.242-.511-.322-.377-.35-.324-.379-.296-.402-.243-.432-.188-.404-.135-.377-.081-.432-.081-.404-.027-.404.027-.43.027-.404.081-.432.107-.404.162-.377.162-.377.215-.352.242-.35.27-.297.27-.295.323-.27.377-.244.458-.242.485-.162.215-.053.216-.027.162-.027.265-.053zm27.858 0l1.644.107h.728l.135.027.054.025.054.055.027.027v.08l.027.242v1.402l-.027.242v.135l-.054.027-.054.053-.162.082-.162.053-.135.027-.054-.162-.054-.16-.108-.352-.081-.162-.108-.16-.108-.162-.134-.135-.296-.242-.162-.107-.162-.055-.297-.107-.323-.055h-.323l-.323.027-.296.107-.162.082-.108.08-.134.08-.108.135-.081.107-.081.162-.054.135-.027.162v.35l.027.162.081.135.081.135.081.107.107.107.135.109.297.16.323.135.323.109.593.188.512.162.485.188.942.539.216.162.188.189.162.188.135.242.108.217.081.27.054.268.027.297-.027.297-.027.27-.054.242-.107.27-.108.242-.135.217-.162.215-.162.188-.216.217-.242.162-.243.16-.27.135-.539.217-.593.135-1.239.107-1.266-.055-.809-.027-.458-.053-.162-.027-.054-.027-.027-.025-.027-.055-.027-.055-.027-.215-.027-.512.054-.943-.027-.404v-.188l.027-.109.027-.08.027-.055.081-.025.162-.082.188-.08.162-.027.081.215.081.244.135.43.135.242.135.217.162.215.215.189.188.16.243.135.242.109.27.08.215.027.215.027h.458l.188-.027.324-.107.269-.135.243-.189.161-.188.135-.217.081-.242.027-.242v-.35l-.055-.162-.054-.135-.107-.162-.135-.135-.135-.107-.162-.107-.32-.163-.296-.135-.943-.35-.458-.162-.458-.215-.377-.217-.377-.242-.351-.297-.135-.16-.135-.189-.161-.35-.108-.324-.027-.35v-.352l.081-.322.135-.324.162-.295.188-.297.243-.27.269-.242.297-.189.323-.188.323-.162.35-.107.35-.055.324-.027.404-.052zm7.679 0h.593l.943.08.673.027.377.027.135.025.054.027h.027l.027.055v.08l.026.242.027.674-.027.701-.026.242v.082l-.027.053-.027.055-.054.025-.162.082-.162.08-.135.027-.081-.162-.054-.188-.108-.352-.054-.16-.107-.135-.216-.27-.27-.242-.296-.162-.188-.082-.188-.053-.216-.027-.215-.027h-.216l-.215.027-.188.027-.216.08-.162.082-.162.107-.162.135-.108.135-.081.188-.081.189v.484l.027.135.054.135.081.135.108.107.108.107.108.082.296.16 1.159.432.835.27.404.162.377.189.242.133.216.162.188.162.162.189.162.188.135.217.107.215.108.242.054.297.027.297v.295l-.054.297-.081.27-.108.27-.27.484-.135.189-.161.16-.323.297-.377.242-.431.217-.458.162-.458.107-.458.08-.458.027-1.778-.082-.862-.053h-.351l-.108-.027-.026-.053-.027-.055-.027-.107-.027-.135v-2.156l.027-.08.027-.055.027-.027.081-.053.188-.082.189-.025h.135l.026.053.027.082.081.215.108.377.188.377.216.297.242.27.27.215.323.162.351.107.377.055.458.027.242-.027.296-.082.135-.053.135-.055.215-.162.188-.188.162-.242.107-.242.054-.27.027-.109v-.133l-.027-.109-.027-.107-.108-.215-.135-.162-.162-.188-.215-.137-.485-.268-1.078-.432-.485-.162-.404-.162-.404-.215-.377-.242-.162-.135-.161-.162-.162-.188-.135-.189-.135-.27-.081-.27-.054-.297-.026-.27.026-.27.027-.268.081-.244.135-.242.135-.242.162-.215.162-.217.215-.188.216-.189.215-.162.243-.135.27-.107.431-.162.242-.053.243-.027.162-.027.298-.047zm8.675 0l.35.027.351.025.323.055.323.08.296.109.296.133.27.162.269.162.243.215.215.217.216.215.188.27.162.27.162.27.108.322.108.324.134.432.081.457v.729l-.27.025h-3.476l-.916.027h-.188l-.107-.027h-.081l-.027-.025v-.162l.027-.135.054-.162.081-.162.081-.135.081-.107.054-.027h.027l.081-.025h.135l.215.025 1.32.027.081-.027.081-.025h.081l.027-.027.054-.027.027-.055v-.295l-.027-.352-.162-.727-.135-.35-.162-.352-.081-.162-.108-.133-.135-.109-.134-.107-.162-.053-.188-.055-.189-.027-.215.027-.296.055-.243.135-.242.16-.188.217-.135.242-.135.242-.108.27-.054.27-.188 1.158v.646l.081.619.054.324.081.35.081.324.135.295.134.297.162.27.189.27.215.242.215.217.243.188.296.162.27.135.323.107.324.082.377.053h.35l.108-.027h.35l.727-.188.539-.217v.027h.027v.027l-.081.215-.054.242-.054.244-.054.08-.054.08-.107.082-.108.053-.189.109-.512.16-.539.135-.754.107-.728.027-.701-.053-.323-.082-.323-.107-.323-.107-.296-.135-.296-.162-.296-.188-.27-.217-.242-.242-.27-.27-.215-.297-.216-.322-.188-.35-.135-.379-.108-.377-.107-.377-.054-.377-.027-.377v-.377l.027-.35.054-.379.081-.35.108-.35.135-.324.135-.322.188-.297.188-.297.242-.295.243-.271.242-.242.296-.215.351-.242.404-.189.404-.135.431-.107.27-.027.294-.053zm-25.353.027h.539l.512.025.458.107.404.137.404.215.377.242.351.297.323.322.27.352.215.377.216.484.162.484.161 1.105v.242l-.026.027v.027l-.108.025-.108.027h-.242l-.458-.027-4.203.027.027-.08.027-.135.081-.297.135-.27.081-.08.027-.055h.027l.081-.027.108-.025h.215l.404.053h1.239l.054-.053h.053v-.459l-.054-.457-.081-.486-.162-.43-.081-.217-.108-.188-.134-.162-.162-.135-.162-.135-.188-.08-.242-.027-.243-.027-.162.027-.162.027-.162.053-.135.082-.135.107-.107.107-.216.242-.162.27-.108.242-.107.27-.054.27-.162 1.186v.592l.081.621.107.43.108.459.162.404.215.404.243.35.296.352.323.268.404.244.431.16.458.109.458.053H68.814l.081-.027h.135l.565-.135.324-.135.162-.08h.081l.081-.027-.054.242-.054.242-.107.27-.054.082-.054.08-.108.082-.135.08-.27.107-.377.135-.404.107-.431.082-.432.053-.458.027h-.431l-.458-.055-.431-.08-.997-.377-.458-.297-.432-.322-.35-.352-.296-.377-.242-.43-.216-.432-.162-.459-.108-.484-.081-.484v-.486l.027-.512.054-.484.135-.484.162-.459.215-.43.243-.432.296-.377.351-.352.35-.27.351-.242.404-.188.404-.162.404-.107.406-.103zm-8.298.053h.674l.35.08.324.137.323.188.27.215.215.244.216.295.162.297.108.35.054.217.027.215.027.484v3.529l-.027.621v.27l.027.295.054.189.054.162.082.162.054.053.054.08.162.109.188.08.162.027.215.027.188.053.054.055.027.027v.025l.027.055-.027.055-.027.135-.054.133-.027.055v.055l-.188.027-.216.025-.404-.025h-.566l-.485-.027-.808.027-.458.025-.188-.025h-.054l-.027-.027-.027-.027v-.055l-.027-.08.054-.619v-.943l.027-3.018v-1.186l-.027-.297-.054-.27-.081-.242-.108-.242-.081-.107-.081-.107-.107-.082-.135-.08-.269-.082-.27-.053h-.243l-.242.053-.243.055-.27.107-.216.107-.215.162-.188.162-.135.188-.054.109v.107l-.027.27-.027.754-.027.754.027 2.453.027.646.054.295.027.162.054.107.081.107.081.055.081.08.081.027.216.082.215.025.242.055.027.08-.027.082-.027.188-.054.082-.054.053-.054.055-.054.055-.108.025h-.35l-1.616-.053-.404.027h-.97l-.351.025h-.323l-.081-.025-.054-.055-.054-.082-.027-.08-.027-.162-.027-.16v-.027h.027l.081-.055.107-.027.242-.025.216-.055.135-.08.135-.109.107-.133.108-.162.081-.242.054-.297.054-.594.081-2.154-.027-.619-.027-1.16-.027-.43-.054-.217-.054-.188-.054-.107-.081-.109-.108-.107-.107-.053-.297-.107-.296-.055-.135-.027-.054-.027-.027-.027v-.135l.081-.16.081-.162.081-.107.054-.027h.054l.134-.027.081-.027h.243l.054-.025H53.325l.189-.027.054-.027.081-.027h.161l.162-.027.188-.025.323-.082.62-.16.189-.055.107-.027h.135l.081-.027h.054v.027h.054v.943l-.027.027h.027v.025h.135l.377-.268.324-.217.323-.188.351-.189.351-.135.188-.055.107-.025h.108l.16-.059z"/><path d="M31.043 50.549c3.799.027 5.658 1.482 5.011 6.574-1.158 1.212-2.263 2.047-3.69 1.913-1.428-.134-2.398-.835-3.045-2.047-.431-.809-.889-1.832-1.132-2.613.297-2.022 1.644-3.072 2.856-3.827z" fill="#304f8e"/><path d="M31.744 66.607c3.826-1.939 6.763-3.341 9.888-4.93 2.91-4.688 5.658-10.669 6.601-13.525.835-2.506-.081-8.46-2.802-10.938-2.452-2.183-11.72-7.005-13.902-8.164 4.338-1.158 16.327-4.715 16.327-4.715 3.314 3.691 7.059 9.188 9.161 13.202.916 4.041 1.589 8.648 1.159 13.579-1.59 3.044-4.554 7.921-6.116 10.535-1.536 2.613-4.876 7.382-6.17 10.318-.674 1.536-1.051 4.85-.619 7.167 1.535 1.67 3.206 3.476 4.58 5.2-.134 4.095-.108 7.167-.134 10.507.619 5.82 2.29 20.988 3.96 29.179 3.314 8.324 11.1 17.889 22.469 24.787l-.026.08-2.155 1.482c-10.724-3.557-24.248-11.775-28.99-17.783-.808-5.711-2.317-11.584-3.96-15.949-.889-6.654-2.263-16.812-2.263-16.812-3.125 10.832-6.169 19.533-10.534 26.781-4.984 8.244-14.36 17.889-25.38 24.086 5.281-11.504 8.541-17.594 14.737-22.604 1.725-5.848 3.88-11.289 5.766-16.139 1.751-5.012 3.449-9.781 5.362-14.334.916-5.011 2.91-11.612 2.91-11.612-2.047-3.476-2.263-8.298-2.505-11.073-2.641.188-4.742.835-6.116 1.428-2.694 1.913-6.87 5.227-8.81 8.325.943 2.048 3.018 2.883 6.951 2.479 1.401 2.209 5.281 7.841 5.281 7.841-2.991.916-7.274-.243-10.373-1.375-2.236-.808-5.389-2.209-6.897-3.395-2.183-1.751-4.257-5.173-4.795-7.409-.108-.404.027-1.104.404-1.563 2.533-3.098 4.742-7.436 9.026-10.776 4.736-3.692 10.61-4.473 17.965-3.88z" fill="#304f8e"/><path d="M71.538 94.977c2.29 0 4.526-.323 6.816-.889-.889 6.924-4.068 29.744-4.068 29.744 3.745 8.648 2.532 16.461-2.209 22.039-3.098 2.451-7.759 4.688-12.124 5.686.027-.027-.108-6.225-.108-6.225 3.853-1.428 7.787-3.125 9.888-5.9-.539-5.281-.942-13.363-.942-13.363-4.501-11.235-3.154-23.844 2.747-31.092z" fill="#304f8e"/><path d="M82.26 60.356c15.195-.189 27.265 16.273 27.617 34.405 1.211 4.635 3.205 7.788 5.604 8.999 0 2.641.053 5.174.053 5.174-9.455-5.496-14.332-14.468-14.953-20.854-5.765-6.439-10.965-13.849-13.147-18.213.943 4.607 1.401 9.861 1.267 12.609.62 3.206 1.697 9.025 1.697 9.025l4.822-.35 1.509 25.784s4.822 8.971 7.625 14.117c2.666 6.062 5.145 12.232 6.385 18.268-6.951 1.562-12.34 2.801-12.34 2.801-7.167-19.156-13.956-37.664-17.135-49.52-2.236-8.352-3.476-15.896-4.742-22.578.027 0-1.32-.134-1.32-.134-1.293 3.152-3.529 5.846-5.254 8.029-1.751 2.182-7.517 5.254-11.37 5.442-6.951.323-12.959-2.587-15.519-4.877 1.239-.081 2.101-.162 3.071-.431 4.93-1.348 12.205-3.799 16.974-6.413 2.586-5.981 4.958-11.72 6.655-14.683 1.67-2.964 2.425-3.368 3.179-3.853.754-.135 1.158-.243 1.778-.377.916-.187 7.544-2.37 7.544-2.37zM84.227 53.621c-.215-1.832.809-5.873 3.26-6.708 1.617-.566 3.638 0 4.257 1.4.62 1.401.432 3.583-.35 5.47-1.293 1.131-2.074 2.182-3.368 2.182-1.266 0-3.692-1.32-3.799-2.344zM162.764 49.984c.943-.108 2.586.7 3.422 1.293 1.104.781 1.887 3.907.242 5.819-1.348 1.563-3.34 1.886-4.877 1.967-.969-1.589-1.805-3.341-1.994-4.984-.107-.997-.025-2.156.566-2.829.647-.701 1.67-1.159 2.641-1.266z" fill="#304f8e"/><path d="M154.195 62.673l10.158 3.529 9.295 7.948c5.469 6.305 12.393 15.653 16.273 22.82-2.021 3.18-5.873 9.268-5.873 9.268-6.521-15.249-13.688-24.085-19.803-28.881a458.343 458.343 0 0 0-7.732-2.155l-6.979 15.896-1.832 10.668c.727 8.676 4.473 17.514 8.486 23.332 5.199 5.928 16.812 21.582 22.443 29.207l-15.303 1.373-13.473-11.396c-2.855-9.375-6.088-15.357-7.785-20.152-1.348-3.799-2.883-9.107-3.934-12.232.484-6.223 3.205-13.955 4.418-19.667-3.852 6.412-10.238 16.785-15.033 19.183-4.041 13.686-.512 28.1 7.705 35.16a15394.79 15394.79 0 0 0-18.268-2.426c-4.121-14.953-.619-29.447 5.578-41.438 8.971-8.082 12.07-12.608 15.6-17.431 1.832-4.257 4.822-10.75 4.822-10.75-10.83 2.937-26.537.081-29.986-1.293-4.041-1.59-11.127-4.903-11.127-4.903l1.023-2.317c2.91-.862 6.225-.835 10.777-.593 4.58.243 18.617 2.748 24.787 1.832 5.365-.81 15.763-4.582 15.763-4.582z" fill="#304f8e"/></g></svg>