<svg xmlns="http://www.w3.org/2000/svg" width="2500" height="2500" viewBox="0 0 192.756 192.756"><path fill-rule="evenodd" clip-rule="evenodd" fill="#fff" d="M0 0h192.756v192.756H0V0z"/><path d="M118.955 115.26c-5.914 4.922-14.082 7.969-23.118 7.969-9.036 0-17.204-3.047-23.118-7.969-5.947-4.949-9.62-11.797-9.62-19.357 0-7.525 3.673-14.337 9.62-19.262 5.914-4.897 14.083-7.929 23.118-7.929 9.036 0 17.204 3.031 23.118 7.929 5.947 4.925 9.619 11.737 9.619 19.262 0 7.56-3.672 14.408-9.619 19.357z"/><path d="M95.837 122.289c8.808 0 16.763-2.965 22.517-7.752 5.738-4.777 9.281-11.369 9.281-18.635 0-7.232-3.541-13.79-9.277-18.54-5.754-4.764-13.709-7.711-22.521-7.711-8.811 0-16.767 2.948-22.52 7.711-5.736 4.75-9.278 11.308-9.278 18.54 0 7.266 3.543 13.857 9.282 18.635 5.753 4.787 13.708 7.752 22.516 7.752z" fill="#dad5d3"/><path d="M95.837 120.529c8.317 0 15.862-2.77 21.321-7.25 5.424-4.453 8.785-10.596 8.785-17.377 0-6.721-3.367-12.835-8.803-17.272-5.457-4.455-12.994-7.22-21.304-7.22-8.334 0-15.865 2.76-21.312 7.207-5.436 4.437-8.794 10.557-8.794 17.285 0 6.789 3.352 12.938 8.778 17.391 5.448 4.473 12.986 7.236 21.329 7.236zm21.915-6.527c-5.621 4.615-13.377 7.467-21.915 7.467-8.564 0-16.312-2.848-21.923-7.453-5.639-4.627-9.123-11.031-9.123-18.113 0-7.022 3.492-13.399 9.143-18.012 5.609-4.579 13.349-7.42 21.903-7.42 8.528 0 16.276 2.847 21.896 7.434 5.648 4.612 9.15 10.982 9.15 17.998 0 7.074-3.494 13.472-9.131 18.099z"/><path d="M82.425 121.75c-.666-.355-1.167-.91-1.31-1.684-.115-.631.018-1.389.512-2.273l.006-.008 3.849-6.484c.196-.373.589-.578 1.015-.66.488-.094 1.059-.023 1.363.131.29.145.679.514.911.939a1.92 1.92 0 0 1 .424-.215c.478-.172 1.065-.178 1.376-.074h.002c.289.098.723.412 1.012.797a1.7 1.7 0 0 1 .143-.096 2.947 2.947 0 0 1 1.334-.387l.077.006c.312.053.849.33 1.213.713l.023.025c.051-.051.105-.1.162-.146v-.002c.409-.33.982-.529 1.299-.529s.89.199 1.3.529v.002c.057.047.109.096.16.146l.023-.025c.365-.383.902-.66 1.215-.713v.002-.002.002c.008-.002.078-.008.076-.008.297 0 .859.115 1.297.383.059.035.113.074.168.115.289-.393.732-.715 1.023-.812h.002c.312-.104.898-.098 1.377.074.15.055.295.127.424.215.23-.424.621-.795.91-.939h.002c.285-.152.859-.223 1.35-.129.43.082.832.287 1.027.658l3.85 6.484.012.021c.463.891.59 1.65.475 2.281-.141.76-.617 1.311-1.279 1.662l-.031.018c-.766.34-1.525.404-2.207.07a2.312 2.312 0 0 1-.51-.342c-.025.086-.055.17-.088.25-.244.564-.697.957-1.285 1.184v-.002a2.044 2.044 0 0 1-.213.072v.002a3.912 3.912 0 0 1-.346.094c-.611.137-1.203.086-1.719-.205a2.187 2.187 0 0 1-.586-.482 2.12 2.12 0 0 1-.123.283c-.363.693-1.004 1.072-1.758 1.205l-.033.004c-.814.086-1.549-.088-2.1-.621a2.274 2.274 0 0 1-.283-.336 2.128 2.128 0 0 1-1.747 1.096 2.41 2.41 0 0 1-.34 0c-.086 0-.163-.002-.229-.008h-.002c-.662-.047-1.243-.281-1.667-.748a2.214 2.214 0 0 1-.264-.357 2.44 2.44 0 0 1-.295.354c-.549.533-1.284.707-2.099.621l-.033-.004c-.755-.133-1.396-.512-1.757-1.205a2.427 2.427 0 0 1-.134-.311 2.24 2.24 0 0 1-.605.512c-.539.307-1.154.344-1.798.178a5.68 5.68 0 0 1-.223-.064c0-.002-.001-.002-.002-.002h-.001a2.59 2.59 0 0 1-.225-.076c-.586-.225-1.04-.617-1.284-1.182a2.214 2.214 0 0 1-.091-.248c-.161.141-.33.254-.507.34-.682.334-1.441.27-2.208-.07a.172.172 0 0 0-.03-.019z"/><path d="M85.24 119.711l.002-.01a5.03 5.03 0 0 1 .144-.424l.006-.014.442-1.059 2.192-5.561.009-.021c.05-.111.009-.271-.07-.428-.136-.273-.364-.504-.523-.584-.153-.076-.472-.105-.768-.049-.172.033-.319.09-.361.176l-.017.029-3.85 6.484c-.378.676-.487 1.221-.409 1.645.082.449.388.787.8 1.014.518.229 1.008.283 1.416.084.377-.182.716-.591.987-1.282zm1.468-1.166l-.58 1.471a.138.138 0 0 1-.006.016c-.156.566-.142 1.012.002 1.344.136.316.404.541.755.676l.002.002c.048.02.102.037.158.053l.017.006c.06.02.119.037.176.053.411.105.79.09 1.101-.086.325-.186.604-.559.805-1.164.034-.104.064-.201.088-.293h-.001l1.759-7.373.011-.039c.033-.098-.027-.24-.123-.381-.175-.256-.435-.463-.593-.516-.153-.051-.477-.035-.767.068-.163.059-.298.141-.332.242l-.013.033-2.459 5.888zm19.132-.34l.441 1.059.004.012a5.273 5.273 0 0 1 .15.438c.27.689.609 1.098.984 1.281.408.199.898.145 1.414-.084.404-.223.691-.551.771-.99.078-.432-.025-.986-.383-1.676l-3.846-6.477-.016-.029c-.041-.082-.195-.141-.373-.174-.303-.059-.613-.039-.725.027 0 .002-.031.02-.031.02-.16.08-.387.311-.523.582-.08.158-.119.318-.07.43l.01.021 2.193 5.56zm-7.594 1.572l.09 1.119v.002c.008.096.01.186.012.277.068.688.27 1.152.557 1.432.322.312.785.414 1.318.365.477-.084.873-.311 1.084-.715.201-.383.256-.939.092-1.703l-1.689-7.297-.004-.014c-.023-.127-.141-.238-.285-.326a1.784 1.784 0 0 0-.771-.24c-.166.043-.438.201-.648.424-.129.135-.221.285-.209.41l.004.014.449 6.252zm-4.92 1.393c.002-.094.006-.182.012-.27v-.004l.09-1.113.451-6.258.004-.014c.012-.125-.08-.275-.209-.41-.21-.223-.483-.381-.649-.424a1.883 1.883 0 0 0-.809.246v.002c-.131.08-.233.174-.243.273l-.009.059-1.689 7.297c-.164.764-.109 1.32.092 1.703.21.404.608.631 1.084.715.533.049.997-.053 1.318-.365.289-.281.489-.746.557-1.437zm-6.552 1.836c0-.002-.001-.002-.002-.002l.002.002zm-.002-.002s-.001 0 0 0zm16.003-10.016l-.002-.002.002.002zm-.002-.002v-.002.002zm2.641 6.631l-2.906-6.961-.014-.033c-.033-.102-.168-.184-.332-.242-.289-.104-.613-.119-.766-.068h-.002c-.158.053-.416.26-.592.516-.096.141-.156.283-.123.381l.012.039 1.758 7.373v.008c.029.131.066.264.109.393.18.539.441.877.75 1.051.303.172.668.197 1.057.109.074-.016.16-.041.256-.072l.016-.004.777-2.49zm-.777 2.488c.051-.014.104-.031.154-.053l.002-.002c.352-.135.619-.359.756-.676.148-.344.16-.811-.018-1.41a4.298 4.298 0 0 0-.115-.342l-.002-.006c0 .002 0 .004.002.006l-.779 2.483zm-7.235-.601c.01-.162.008-.342-.006-.535l-.609-7.51v-.035c0-.121-.104-.25-.241-.361h-.001c-.247-.199-.555-.32-.708-.32s-.461.121-.708.32h-.001c-.137.111-.241.24-.241.361v.035l-.609 7.51a4.795 4.795 0 0 0-.013.312c0 .641.154 1.088.412 1.371.246.271.61.41 1.039.439.072.006.136.008.19.008h.025l1.471-1.595zM95.93 123.1c.074.004.148.004.223 0 .326-.023.618-.15.831-.389.231-.258.385-.656.418-1.205v-.002.002L95.93 123.1zm-7.03-10.116v.002l-.001.002.001-.004z" fill="#dad5d3"/><path d="M75.61 103.209c-1.353.744-5.208 1.826-6.292-.678-1.556.812-4.735 1.422-6.291-.609-2.57.609-5.479 1.895-6.562-1.082-2.3.609-7.982 2.029-8.591-1.691-3.382.475-8.253.812-8.93-2.772-2.909 0-7.915-.474-7.915-3.789-2.909 0-7.982-1.962-7.374-4.329-2.639-.271-6.156-3.044-6.156-4.871-2.571-.812-5.479-2.773-4.871-5.412-1.556-.947-4.126-2.03-4.126-3.585 0-1.488 1.218-2.773 2.571-2.773 1.42 0 6.629.812 8.456.812 1.826 0 24.015-.474 29.224-.203 5.209.338 11.838.203 15.018-.136 3.247-.27 16.979-1.014 18.874 2.774 1.353 2.773.338 3.721-.879 4.803-1.285 1.083-5.412 3.045-5.412 9.539 0 6.425.813 9.807-.744 14.002z" fill-rule="evenodd" clip-rule="evenodd"/><path d="M13.375 73.173c4.735 0 15.762.338 17.927.338 2.165 0 17.318 1.691 19.686 2.435 1.082.339 1.353 1.421 0 1.488-1.286.068-16.912.271-19.212.271-2.3 0-18.062.271-20.159-2.503-1.557-2.029.405-1.962 1.758-2.029zM73.581 90.22c-.744-.542-2.165 1.014-2.706 1.894-.473.947-.135 1.488.406 1.759.541.203 1.488-.338 1.691-.812.203-.541 1.353-2.097.609-2.841zm-.406 7.305c-1.015 1.285-2.029 2.232-2.639 3.045-.608.744.135 1.555.744 1.758.677.203 1.827.881 3.18-1.893l-1.285-2.91zm-4.262-7.575c-.676.744-2.3 1.894-1.083 2.773 1.083.744 1.691 0 2.232-.541.474-.541 2.3-2.368 1.624-3.18-.676-.744-2.164.609-2.773.948zm-3.517-.609c-2.232 1.42.271 2.638 1.691 1.42.744-.609 2.3-1.827 1.624-2.706-.609-.744-2.639.947-3.315 1.286zm.27-2.707c-1.083.474-4.464 1.624-3.382 3.112.609.677 1.691.068 2.097-.203.474-.271 2.841-1.894 2.232-2.841-.202-.338-.744-.203-.947-.068zm-5.885-.541c-.947.609-.474 2.977 1.691 1.895 2.232-1.083 3.788-2.165 3.45-2.977-.339-.744-2.841-.136-5.141 1.082zm.947-3.382c-.947.338-1.962.811-2.706 1.285-.744.473-1.353 2.232 1.556 1.488 2.977-.812 3.112-1.827 2.706-2.503-.406-.676-1.353-.338-1.556-.27zm-3.653-1.217c-.744.067-1.42.676-1.217 1.353.27.812 2.029 1.083 3.923.135 1.962-1.015 1.827-1.217 1.624-1.759-.203-.541-2.233-.136-4.33.271zm-1.894-2.436c-1.15.203-1.15.676-1.015 1.083.135.405.744 1.149 2.706.812 2.029-.271 3.112-1.083 3.112-1.759s-3.586-.272-4.803-.136zm-.271-2.368c-2.03 0-2.097 2.165.203 2.03 1.826-.067 3.991-.542 3.991-1.217-.067-.745-2.706-.813-4.194-.813zm6.562.474c1.624 0 7.509-.135 9.2.203 1.691.271 3.789.744 4.668 2.3.812 1.286-.474 3.383-1.083 4.262-.676.812-2.436 2.503-3.111 3.112-.609.474-1.759-.271-.744-1.421-1.286.745-2.909.609-2.165-1.218-1.15.947-3.044 1.015-1.894-1.353-.744.609-2.909.541-1.556-1.285-1.15.338-2.435-.338-1.623-1.488-1.421.203-2.3-.879-.745-1.691-1.42.405-1.827-1.286-.947-1.421zM43.41 72.902c2.029 0 8.727.406 11.229.406 2.435 0 8.118-.135 10.147-.271 2.097-.136 7.509-.271 9.674 0 2.165.203 6.9.541 7.712 2.773.879 2.232-.947 3.45-2.097 4.33-1.15.812-4.735 2.909-4.871 8.321-.879-.406-2.232-.609-1.285-2.571.541-1.082 3.111-4.6 2.503-6.224-.609-1.624-2.571-2.908-7.104-3.112-4.532-.135-10.891 0-13.123-.337-2.232-.406-10.756-2.571-12.515-2.774-.811-.135-.811-.473-.27-.541zm26.653 22.73c-1.217 1.218-3.044 3.247-4.329 4.329-.879.812-.271 2.367 1.218 1.691 1.42-.676 4.059-3.111 4.803-5.479a16.662 16.662 0 0 1-1.692-.541zm-3.45-1.15c-1.961 1.353-6.426 4.329-7.17 4.87-1.015.678-1.556 1.826.474 1.691 1.961-.203 5.682-1.623 8.591-5.885-.406-.135-1.421-.473-1.895-.676zm-3.517-2.029c-1.15.744-8.659 4.667-12.109 5.682-1.15.406-.609 1.488.541 1.623 1.15.203 4.059.203 7.509-1.895 2.097-1.217 5.141-3.449 6.088-4.261-.474-.203-1.488-.811-2.029-1.149zm-3.179-2.639c-1.759.879-12.515 5.344-16.642 6.292-1.15.271-1.759 1.15-.406 1.623 1.42.406 4.6.203 6.562-.338 1.894-.541 9.673-3.044 12.649-5.953-.608-.271-2.029-1.286-2.163-1.624zm-25.369 3.247c1.894-.406 17.453-3.923 21.918-5.615 1.285-.406 1.759 0 1.961.474.271.474.338 1.15-.541 1.556-.812.338-12.786 5.276-18.468 5.614-2.029 0-3.721-.744-4.668-1.149-.607-.339-.337-.339-.202-.88zM27.31 89.07c2.706-.338 20.565-3.18 25.368-4.464 1.962-.474 2.841-.271 3.112.27.203.542.203 1.489-1.15 1.962-1.42.474-17.183 4.127-20.091 4.33-2.909.135-6.359-.542-7.306-1.285-.88-.677.067-.813.067-.813zm-5.75-4.803c1.962 0 24.556-1.691 29.291-2.706 1.624-.135 2.706-.203 2.841.473.135.677.068 1.015-1.285 1.421-1.42.338-18.197 3.518-26.653 3.653-2.841-.067-6.156-2.774-4.194-2.841zm-5.344-5.074c2.773.068 16.574.135 18.197.068 1.556-.068 14.071-.744 15.491-.812 1.488-.135 2.841.271 2.841.744s-.271.879-1.962 1.217c-1.691.406-17.25 2.165-29.021 1.962-2.232.067-5.209-1.083-6.021-2.165-.743-1.082.069-1.014.475-1.014zm62.323-4.095c-.701-.351-.199-1.359.502-1.009.569.285 1.177.625 1.663.994.559.424.977.907 1.074 1.441l.011.053c.042.504-.024.994-.305 1.513-.259.478-.7.963-1.415 1.49-.631.465-1.295-.443-.665-.907.57-.42.908-.781 1.088-1.115.156-.288.193-.575.17-.877-.062-.202-.31-.447-.642-.699-.425-.325-.969-.628-1.481-.884z" fill-rule="evenodd" clip-rule="evenodd" fill="#dad5d3"/><path d="M117.146 103.209c1.354.744 5.209 1.826 6.291-.678 1.488.812 4.734 1.422 6.291-.609 2.57.609 5.479 1.895 6.562-1.082 2.299.609 7.982 2.029 8.59-1.691 3.383.475 8.254.812 8.863-2.772 2.908 0 7.982-.474 7.982-3.789 2.908 0 7.98-1.962 7.373-4.329 2.57-.271 6.088-3.044 6.088-4.871 2.639-.812 5.547-2.773 4.939-5.412 1.555-.947 4.125-2.03 4.125-3.585 0-1.488-1.217-2.773-2.57-2.773-1.42 0-6.629.812-8.455.812-1.828 0-24.084-.474-29.291-.203-5.211.338-11.771.203-15.02-.136-3.178-.27-16.912-1.014-18.805 2.774-1.422 2.773-.34 3.721.879 4.803 1.217 1.083 5.344 3.045 5.344 9.539.002 6.425-.742 9.807.814 14.002z" fill-rule="evenodd" clip-rule="evenodd"/><path d="M179.383 73.173c-4.805 0-15.83.338-17.928.338-2.164 0-17.318 1.691-19.752 2.435-1.016.339-1.287 1.421 0 1.488 1.352.068 16.979.271 19.279.271 2.299 0 17.994.271 20.158-2.503 1.489-2.029-.406-1.962-1.757-2.029zM119.176 90.22c.676-.542 2.164 1.014 2.637 1.894.543.947.137 1.488-.404 1.759-.473.203-1.422-.338-1.623-.812-.204-.541-1.354-2.097-.61-2.841zm.406 7.305c1.014 1.285 2.029 2.232 2.637 3.045.609.744-.203 1.555-.811 1.758-.609.203-1.76.881-3.111-1.893l1.285-2.91zm4.262-7.575c.676.744 2.299 1.894 1.014 2.773-1.014.744-1.691 0-2.164-.541-.475-.541-2.301-2.368-1.625-3.18.677-.744 2.165.609 2.775.948zm3.517-.609c2.164 1.42-.338 2.638-1.691 1.42-.812-.609-2.367-1.827-1.623-2.706.607-.744 2.637.947 3.314 1.286zm-.271-2.707c1.082.474 4.465 1.624 3.383 3.112-.609.677-1.691.068-2.098-.203-.473-.271-2.908-1.894-2.299-2.841.27-.338.811-.203 1.014-.068zm5.818-.541c1.014.609.541 2.977-1.691 1.895-2.164-1.083-3.721-2.165-3.383-2.977.338-.744 2.842-.136 5.074 1.082zm-.881-3.382c.949.338 1.895.811 2.707 1.285.744.473 1.354 2.232-1.623 1.488-2.91-.812-3.045-1.827-2.639-2.503.407-.676 1.286-.338 1.555-.27zm3.586-1.217c.812.067 1.488.676 1.285 1.353-.27.812-2.029 1.083-3.922.135-1.963-1.015-1.828-1.217-1.625-1.759.204-.541 2.165-.136 4.262.271zm1.963-2.436c1.148.203 1.148.676 1.014 1.083-.203.405-.811 1.149-2.773.812-1.961-.271-3.045-1.083-3.045-1.759s3.585-.272 4.804-.136zm.27-2.368c2.029 0 2.029 2.165-.27 2.03-1.76-.067-3.924-.542-3.924-1.217.069-.745 2.705-.813 4.194-.813zm-6.629.474c-1.623 0-7.51-.135-9.201.203-1.691.271-3.787.744-4.666 2.3-.744 1.286.541 3.383 1.15 4.262.607.812 2.367 2.503 3.111 3.112.607.474 1.758-.271.744-1.421 1.285.745 2.908.609 2.164-1.218 1.15.947 3.045 1.015 1.895-1.353.744.609 2.908.541 1.555-1.285 1.15.338 2.436-.338 1.557-1.488 1.488.203 2.301-.879.812-1.691 1.42.405 1.826-1.286.879-1.421zm18.129-4.262c-2.029 0-8.793.406-11.229.406s-8.117-.135-10.148-.271c-2.096-.136-7.508-.271-9.672 0-2.166.203-6.9.541-7.781 2.773-.811 2.232 1.016 3.45 2.166 4.33 1.15.812 4.668 2.909 4.803 8.321.947-.406 2.232-.609 1.354-2.571-.541-1.082-3.18-4.6-2.572-6.224.609-1.624 2.639-2.908 7.172-3.112 4.531-.135 10.891 0 13.055-.337 2.232-.406 10.824-2.571 12.584-2.774.742-.135.742-.473.268-.541zm-26.721 22.73c1.219 1.218 3.113 3.247 4.398 4.329.811.812.201 2.367-1.219 1.691-1.488-.676-4.127-3.111-4.803-5.479a11.58 11.58 0 0 0 1.624-.541zm3.451-1.15c1.961 1.353 6.494 4.329 7.238 4.87 1.014.678 1.488 1.826-.475 1.691-1.961-.203-5.682-1.623-8.592-5.885.407-.135 1.423-.473 1.829-.676zm3.518-2.029c1.148.744 8.658 4.667 12.109 5.682 1.148.406.607 1.488-.543 1.623-1.082.203-4.059.203-7.508-1.895-2.029-1.217-5.074-3.449-6.021-4.261.474-.203 1.488-.811 1.963-1.149zm3.246-2.639c1.76.879 12.516 5.344 16.643 6.292 1.148.271 1.758 1.15.338 1.623-1.354.406-4.533.203-6.494-.338-1.895-.541-9.674-3.044-12.65-5.953.608-.271 2.028-1.286 2.163-1.624zm25.367 3.247c-1.893-.406-17.451-3.923-21.916-5.615-1.287-.406-1.76 0-1.963.474-.27.474-.338 1.15.475 1.556.879.338 12.852 5.276 18.467 5.614 2.098 0 3.789-.744 4.736-1.149.607-.339.338-.339.201-.88zm7.172-3.991c-2.639-.338-20.498-3.18-25.301-4.464-1.961-.474-2.842-.271-3.111.27-.203.542-.203 1.489 1.15 1.962 1.42.474 17.182 4.127 20.09 4.33 2.91.135 6.359-.542 7.307-1.285.881-.677-.135-.813-.135-.813zm5.75-4.803c-1.895 0-24.488-1.691-29.225-2.706-1.623-.135-2.705-.203-2.84.473-.137.677-.068 1.015 1.285 1.421 1.354.338 18.129 3.518 26.652 3.653 2.843-.067 6.157-2.774 4.128-2.841zm5.412-5.074c-2.773.068-16.574.135-18.197.068-1.623-.068-14.07-.744-15.559-.812-1.422-.135-2.842.271-2.842.744s.338.879 2.029 1.217c1.691.406 17.25 2.165 29.021 1.962 2.232.067 5.209-1.083 5.953-2.165.812-1.082-.067-1.014-.405-1.014zm-62.893-5.104c.701-.35 1.203.658.502 1.009-.518.258-1.062.562-1.473.879-.33.256-.566.501-.586.692h.004c-.027.312-.004.605.146.895.172.328.504.682 1.102 1.1.643.449-.006 1.374-.648.924-.756-.53-1.201-1.021-1.453-1.504-.271-.522-.316-1.008-.275-1.507l.006-.004c.049-.552.455-1.05 1.02-1.485.484-.377 1.089-.716 1.655-.999z" fill-rule="evenodd" clip-rule="evenodd" fill="#dad5d3"/><path d="M95.837 113.355c12.921 0 23.407-7.779 23.407-17.453 0-9.538-10.486-17.318-23.407-17.318-12.92 0-23.406 7.78-23.406 17.318 0 9.674 10.486 17.453 23.406 17.453z" fill-rule="evenodd" clip-rule="evenodd"/><path d="M95.837 111.434c5.81 0 11.067-1.756 14.866-4.596 3.754-2.807 6.078-6.674 6.078-10.936 0-4.203-2.332-8.042-6.096-10.833-3.797-2.814-9.047-4.563-14.849-4.563s-11.051 1.749-14.848 4.563c-3.765 2.791-6.095 6.629-6.095 10.833 0 4.262 2.323 8.129 6.078 10.936 3.799 2.84 9.055 4.596 14.866 4.596zm15.464-3.793c-3.963 2.963-9.432 4.795-15.464 4.795s-11.5-1.832-15.465-4.795c-4.003-2.994-6.48-7.143-6.48-11.738 0-4.536 2.486-8.657 6.502-11.634 3.963-2.938 9.423-4.764 15.442-4.764s11.479 1.826 15.442 4.764c4.018 2.978 6.502 7.099 6.502 11.634.001 4.595-2.475 8.743-6.479 11.738z" fill="#dad5d3"/><path d="M106.119 89.611c0-2.57-2.705-6.426-10.485-6.426-4.6 0-8.456 1.15-10.755 3.314.541.474 1.149 1.15 1.149 1.962v14.003c-.067.879-.474 1.555-1.082 2.299 2.165 1.76 5.817 3.314 11.5 3.18 5.683-.135 10.958-1.961 10.958-7.238 0-2.232-2.096-4.465-4.396-5.208-.609-.203-.473-.812 0-1.015s3.111-2.232 3.111-4.871zm-9.741 15.305c2.313 0 4.138-1.895 4.138-4.277 0-2.385-1.824-4.278-4.138-4.278s-4.137 1.894-4.137 4.278c0 2.382 1.823 4.277 4.137 4.277zm-.473-10.908c1.962 0 3.585-1.759 3.585-3.923 0-2.165-1.623-3.924-3.585-3.924s-3.585 1.759-3.585 3.924c-.001 2.165 1.623 3.923 3.585 3.923z" fill-rule="evenodd" clip-rule="evenodd" fill="#fff"/></svg>