<svg xmlns="http://www.w3.org/2000/svg" width="2500" height="2500" viewBox="0 0 192.756 192.756"><g fill-rule="evenodd" clip-rule="evenodd"><path fill="#fff" d="M0 0h192.756v192.756H0V0z"/><path fill="#33348e" d="M76.984 49.814h18.394v50.099H76.984V49.814zM101.947 49.928l-.057 49.985c9.768.058 18.451-3.085 18.51-13.367.057-6.798-5.371-12.396-12.055-12.854 6.227 0 9.883-5.312 9.883-11.825s-4.971-11.825-11.025-11.825c-.285 0-4.971 0-5.256-.114z"/><path d="M72.299 92.772l-1.771-4.855c4.056-7.255 6.112-11.254 6.227-12.054l.514-4.228 5.884-3.256-1.543 11.653c6.57-11.311 11.197-17.709 13.939-19.251.628-.343 1.314-.514 1.886-.457.627.114 1.027.343 1.199.743.113.4.057 1.657-.229 3.828l-1.314 10.911a21.36 21.36 0 0 0-.286 1.999c.172.457.342.571.571.457.287-.171 1.086-1.143 2.344-2.856 1.713-2.228 3.312-4.741 4.969-7.598l1.828 5.084c-4.74 7.483-8.625 12.053-11.768 13.824-2.056 1.143-3.313 1.028-3.827-.343-.229-.686-.229-2.057 0-4.113l1.2-10.512c-2.856 4.513-6.169 10.283-9.997 17.424-2.457 4.513-4.227 7.084-5.255 7.712-.514.229-.971.285-1.485.114-.571-.172-.914-.514-1.085-1.085-.171-.457-.229-1.143-.114-2l.743-5.427a35.209 35.209 0 0 1-2.63 4.286z" fill="#8cbe4f"/><path d="M137.252 112.938l-2.742 6.911h5.541l-2.742-7.083-.057.172zm0 8.74h-3.6c-.629 1.886-1.143 3.199-1.428 4.113a32.17 32.17 0 0 0-.686 2.285l-1.428-.171-1.486.171 8.627-21.022.057-.171 1.199.114 1.143-.114 8.512 21.193c-.4 0-.857-.057-1.484-.114-.629 0-1.029-.057-1.143-.057-.344 0-.857.057-1.486.057-.627.058-1.027.114-1.143.114a314.6 314.6 0 0 1-1.027-3.256c-.4-1.2-.742-2.228-1.143-3.143h-3.484v.001zm31.762-14.51c.285.058.57.058.742.114.229 0 .4.058.572.058.113 0 .342-.058.627-.114.287 0 .516-.058.686-.058.287 2.571.572 5.142.857 7.712.457 3.999.742 6.284.857 6.855.229 1.885.57 3.999.971 6.341-.344 0-.801-.057-1.371-.114-.629 0-1.027-.057-1.199-.057-.344 0-.801.057-1.371.057-.572.058-.914.114-1.086.114 0-1.942-.172-4.228-.457-6.798s-.57-5.084-.857-7.427c-.742 1.6-1.541 3.143-2.283 4.685-.744 1.543-1.543 3.085-2.285 4.627a210.57 210.57 0 0 0-2.172 4.742c-.342-.058-.57-.058-.742-.058-.057 0-.229 0-.457.058-.686-1.429-1.371-2.914-2.057-4.342-.857-1.771-1.6-3.313-2.229-4.627-.799-1.543-1.6-3.143-2.342-4.742-.342 2.285-.514 3.999-.686 5.027-.172 1.714-.342 3.256-.457 4.741a52.272 52.272 0 0 0-.172 4.113c-.285-.057-.57-.114-.799-.114-.285-.057-.457-.057-.629-.057-.285 0-.57 0-.742.057-.229 0-.4.058-.629.114.344-1.999.686-4.17 1.029-6.455.229-1.257.57-3.542 1.027-6.855s.801-5.884 1.029-7.598c.285.058.514.058.742.114.172 0 .342.058.514.058.285 0 .514-.058.742-.114.229 0 .4-.058.516-.058.514 1.086 1.256 2.685 2.283 4.741.744 1.6 1.543 3.199 2.344 4.799.799 1.6 1.6 3.199 2.398 4.799.857-1.714 1.6-3.199 2.285-4.513a93.272 93.272 0 0 0 2.398-4.799c1.088-2.226 1.889-3.883 2.403-5.026zm18.507 3.942c-.342-.857-.799-1.486-1.371-1.942-.57-.515-1.312-.743-2.17-.743-1.143 0-1.943.286-2.514.8-.57.571-.799 1.314-.799 2.228 0 1.086.742 2.057 2.342 2.914 2.912 1.6 4.398 2.456 4.512 2.514 1.6 1.257 2.4 2.913 2.4 4.855 0 1.999-.742 3.599-2.285 4.855-1.486 1.257-3.428 1.885-5.828 1.885a9.924 9.924 0 0 1-2.57-.342c-.855-.229-1.6-.515-2.342-.972a20.63 20.63 0 0 0 .572-2.057c.113-.571.229-1.143.342-1.828h.572c.229 1.086.742 1.886 1.484 2.457.742.628 1.656.914 2.742.914.971 0 1.828-.286 2.514-.857.686-.514 1.027-1.313 1.027-2.342 0-1.257-.799-2.343-2.342-3.199-1.484-.8-2.912-1.542-4.342-2.342-1.6-1.2-2.398-2.8-2.398-4.913 0-1.828.57-3.313 1.771-4.513 1.256-1.257 3.027-1.886 5.254-1.886 1.029 0 2 .172 2.914.457.914.343 1.543.629 1.943 1.028-.229.571-.4 1.086-.516 1.429-.229.742-.398 1.257-.457 1.6h-.455zm-78.318-3.942h3.027c1.314 1.429 2.799 3.028 4.342 4.685.857.914 2.398 2.514 4.455 4.799 2.113 2.285 3.6 3.885 4.342 4.798v-14.281l1.258.058 1.199-.058v20.908l-2.57-.057a163.907 163.907 0 0 1-5.143-5.771c-1.828-1.941-3.541-3.827-5.141-5.541l-3.314-3.428v14.796l-1.256-.171-1.199.114v-20.851zM2.834 107.111h7.884c1.771 0 3.142.343 4.17.971 1.257.743 1.885 1.999 1.885 3.656 0 1.371-.514 2.456-1.485 3.37-.914.8-2.056 1.314-3.485 1.485v.286c1.429.114 2.628.514 3.542 1.143 1.313.914 1.942 2.171 1.942 3.884 0 1.942-.8 3.485-2.342 4.57-1.314.914-3.028 1.429-5.027 1.429H2.834v-20.794zm41.36 9.655c1.6-.515 2.342-1.942 2.342-4.171 0-.514 0-1.027-.114-1.542-.171-.972-.685-1.6-1.428-1.942-.229-.114-.514-.171-.8-.229a12.206 12.206 0 0 0-1.542-.114h-.857v8.169c.114 0 .286.058.4.058h.4c.571-.001 1.085-.115 1.599-.229zm0-9.655c1.143 0 1.999.057 2.57.114.686 0 1.257.229 1.885.514 1.771.914 2.628 2.399 2.628 4.342 0 1.428-.4 2.628-1.257 3.599-.857.972-2 1.6-3.485 1.886.8 1.371 1.885 3.199 3.313 5.369.971 1.485 1.657 2.514 2.057 3.199l1.2 1.886c-.4 0-.914 0-1.542-.058-.686-.057-1.085-.057-1.2-.057-.4 0-.914 0-1.6.057-.628.058-1.028.058-1.143.058l-3.427-6.056-.229-.343-2-3.37h-.171v9.769h-.857c-.914-.114-1.371-.114-1.428-.114-.343 0-.8 0-1.371.057-.514.058-.857.058-.915.058v-20.908h6.456c.173-.002.344-.002.516-.002zm29.705 19.937c-1.6.457-3.027.8-4.342 1.028a20.98 20.98 0 0 1-3.77.343c-3.485 0-6.341-.8-8.512-2.514-2.457-1.828-3.656-4.456-3.656-7.883 0-3.6 1.199-6.455 3.656-8.569 2.285-1.885 5.255-2.856 8.912-2.856 1.371 0 2.628.114 3.827.4 1.2.343 2.4.8 3.542 1.428a10.397 10.397 0 0 0-.857 3.085h-.457c-.686-.971-1.542-1.771-2.571-2.285-1.085-.571-2.228-.8-3.427-.8-2.399 0-4.285.972-5.713 2.914-1.257 1.771-1.885 4.056-1.885 6.798 0 2.628.628 4.684 1.942 6.227 1.256 1.485 3.084 2.228 5.37 2.228.743 0 1.371-.057 1.885-.229.514-.114.971-.343 1.485-.628v-7.141c.342 0 .799.057 1.314.114.571.057.914.057.971.057h.857a31.195 31.195 0 0 1 1.428-.171v8.454h.001zm-10.226 3.428c.172-.457.457-.8.743-1.028.285-.229.685-.343 1.199-.343.571 0 1.028.171 1.428.571.4.343.628.8.628 1.313 0 .343-.114.629-.343.972-.743 1.143-1.6 2.228-2.514 3.256s-1.485 1.714-1.771 2.057l-.743-.286c.229-1.313.4-2.228.515-2.913.401-1.943.687-3.142.858-3.599zm12.625-23.365c.343 0 .8.057 1.371.114.514 0 .857.057.914.057.343 0 .628 0 .856-.057.857-.058 1.371-.114 1.428-.114v12.339c.057.743.115 1.485.229 2.285.171.742.343 1.371.514 1.828.229.457.571.971 1.085 1.485.971.856 2.114 1.313 3.485 1.313 1.428 0 2.57-.285 3.371-.856.799-.515 1.485-1.485 2.056-2.856.229-.571.4-1.429.457-2.456.057-1.086.114-2.399.114-3.828v-9.254l1.2.114 1.2-.114v10.854c0 2.229-.114 3.885-.4 4.913-.457 1.656-1.371 2.971-2.799 3.941-.8.571-1.656.972-2.685 1.2-.971.285-2 .399-3.085.399-2.113 0-3.885-.343-5.37-1.086-1.771-.856-2.914-2.17-3.428-3.998-.171-.571-.286-1.2-.4-1.828-.057-.686-.114-1.313-.114-1.942v-12.453h.001zm-66.437 1.714c-.286-.058-.571-.058-.857-.058-.514 0-1.028.058-1.6.114v7.198h.971c.571 0 1.028-.058 1.428-.172h.057c.343-.057.743-.285 1.085-.571.457-.399.743-.856.971-1.428.229-.515.343-1.143.343-1.771 0-1.085-.286-1.885-.856-2.456-.4-.456-.913-.685-1.542-.856zm0 9.312a9.977 9.977 0 0 0-2.457-.286v8.283h1.542c.286 0 .629-.057.915-.171.571-.114 1.085-.457 1.6-.914.742-.743 1.085-1.714 1.085-2.914 0-1.599-.458-2.741-1.314-3.37a3.748 3.748 0 0 0-1.371-.628zm22.908-11.026c-.057.229-.114.457-.114.742-.057.229-.057.4-.057.571 0 .172 0 .343.057.629.057.285.057.514.114.686a54.717 54.717 0 0 0-3.199-.286c-1.143-.114-2.399-.114-3.828-.114v6.513h4.97c.457-.058 1.085-.114 1.942-.229a2.458 2.458 0 0 0-.114.686c-.057.229-.057.457-.057.571 0 .171 0 .399.057.686.057.285.057.514.114.628a52.228 52.228 0 0 0-1.828-.171c-.743-.058-1.371-.058-1.942-.058h-3.142v7.712c1.428 0 2.685 0 3.828-.114a55.61 55.61 0 0 0 3.199-.285c-.057.229-.114.457-.114.686-.057.229-.057.457-.057.628 0 .114 0 .343.057.629.057.285.057.514.114.686H21.172v-20.794h11.597v-.002z" fill="#33348e"/></g></svg>