<svg xmlns="http://www.w3.org/2000/svg" width="2500" height="2500" viewBox="0 0 192.756 192.756"><g fill-rule="evenodd" clip-rule="evenodd"><path fill="#fff" d="M0 0h192.756v192.756H0V0z"/><path d="M17.478 159.488v-2.98H174.73v2.98H17.478zM17.478 156.508h-2.912v-2.877h2.912v2.877zM14.566 153.631h-2.671v-2.981h2.671v2.981zM177.848 39.845h-3.118v-3.049H17.478v3.049h-2.912v3.116h-2.671V150.65H8.504V42.961h3.391v-3.116h2.671v-3.049h2.912v-3.527H174.73v3.527h3.118v3.049h2.877v3.116h-2.877v-3.116zM180.725 42.961h3.527V150.65h-3.527V42.961zM177.848 153.631v-2.981h2.877v2.981h-2.877v2.877h-3.118v-2.877h3.118z"/><path d="M22.102 146.438v-18.393h10.207v1.951h2.158v6.234h-2.158v1.918h2.158v6.303h-2.158v1.987H22.102zM36.419 146.438v-14.352h4.077v14.352h-4.077zM36.419 129.996v-1.951h4.077v1.951h-4.077zM43.304 146.438v-18.393h4.213v18.393h-4.213zM51.422 146.438v-1.987h-2.055v-10.344h2.055v-2.021h4.042v-4.041h4.144v18.393h-8.186zM61.698 146.438v-1.987h6.096v-2.09h-1.986v-2.054h-2.089v-2.159h-2.021v-4.041h2.021v-2.021h8.152v2.021h-6.063v2.123h1.986v1.918h2.09v2.159h1.987v4.144h-1.987v1.987h-8.186zM76.049 146.438v-1.987h-1.986v-10.344h1.986v-2.021h6.2v4.144h-2.192v-2.123h-1.815v10.344h4.007v1.987h-6.2zM84.202 146.438v-18.393h4.144v4.041h4.076v2.021h2.055v12.331h-4.11v-12.331h-2.021v12.331h-4.144zM96.566 146.438v-14.352h4.145v14.352h-4.145zM96.566 129.996v-1.951h4.145v1.951h-4.145zM102.697 146.438v-14.352h4.043v2.021h2.156v-2.021h3.393v4.144h-3.393v1.918h-2.156v8.29h-4.043zM114.412 146.438v-14.352h13.633v2.021h2.809v12.331h-4.831v-12.331h-2.054v12.331h-4.248v-12.331h-1.951v12.331h-3.358zM134.93 146.438v-1.987h-2.09v-10.344h-1.986v-2.021h1.986v-2.09h2.09v-1.951h2.019v4.041h2.09v2.021h-2.09v10.344h2.09v1.987h-4.109zM142.396 146.438v-1.987h-1.986v-10.344h1.986v-2.021h6.235v2.021h1.951v6.2h-6.062v4.144h6.062v1.987h-8.186zM153.357 146.438v-4.077h2.02v-2.054h1.644v-2.159h-1.644v-1.918h-2.02v-4.144h3.664v4.144h2.331v-4.144h3.595v4.144h-1.953v1.918h-1.642v2.159h1.642v2.054h1.953v4.077h-3.595v-4.077h-2.331v4.077h-3.664zM168.463 146.438v-1.987h-2.057v-10.344h-2.123v-2.021h2.123v-2.09h2.057v-1.951h1.506v4.041h2.535v2.021h-2.535v10.344h2.535v1.987h-4.041zM48.065 120.371V90.264h3.357v-3.357h3.082v-2.74h6.578v-3.425h9.555v19.559h4.042v3.492h3.288v3.152h3.357v3.426h25.416v-3.426h3.733v-3.152h3.939v-3.492h3.358V80.742h10.275v3.425h6.885v3.391h2.978v3.048h2.502v29.765H48.065z"/><path d="M81.324 106.945v-3.152h-3.357v-3.492h-3.288V77.214h2.775v-3.322h3.391v-3.528h25.895v3.528h4.11v3.322h3.562v23.087h-3.939v3.492h-3.733v3.152H81.324z"/><path d="M34.467 73.481v-9.796h3.117v-6.817h3.459v-3.596h6.474v-3.391h13.565v-3.46h66.963v3.46h13.426v3.391h6.611v3.596h3.186v6.817h3.357v9.796h-3.357v3.185h-3.186v3.22h-6.611v-3.22h-10.002v-3.185h-9.864v-3.117h-3.322v-6.679h3.322v-3.734H67.794v3.734h2.843v6.679h-2.843v3.117H57.69v3.185H47.517v3.22h-6.474v-3.22h-3.459v-3.185h-3.117z"/><path fill="#fff" d="M26.212 144.451h4.042v-6.303h-4.042v6.303zM26.212 136.23h4.042v-6.234h-4.042v6.234zM53.511 144.451h1.953v-10.344h-1.953v10.344zM144.52 138.148h2.021v-4.041h-2.021v4.041z"/></g></svg>