<svg xmlns="http://www.w3.org/2000/svg" width="2500" height="2500" viewBox="0 0 192.756 192.756"><g fill-rule="evenodd" clip-rule="evenodd"><path fill="#fff" d="M0 0h192.756v192.756H0V0z"/><path fill="#33a457" d="M4.941 182.275h182.975V167.23L55.235 32.344 4.941 80.633v101.642z"/><path fill="#fff" d="M2.834 187.289h187.088v-4.111L54.232 48.29 2.834 96.527v90.762z"/><path d="M69.877 181.473H42.348v-26.576l.15-.953.15-.902.15-.803.151-.652.351-.652.3-.602.301-.5.501-.602.451-.502.652-.301.802-.301.602-.352.952-.15.803-.15H51.171l.501.15.451.15.802.201.652.301.452.301.501.5.302.301.3.303.15.35v.451l.201.301.15.352.15.451.15.652.301-1.604.352-1.256.451-.951.501-.652.752-.602.953-.502 1.253-.15 1.454-.15h1.103l1.104.15.953.15.802.352.752.301.652.301.501.502.451.602.301.502.351.602.301.803.15.801.15.803.151 1.104.2.953v27.175h.005zm-16.648-8.225v-14.842l-.15-.652v-.602l-.151-.35-.3-.453-.652-.352-.652-.148H49.92l-.451.148-.502.352-.15.453-.15.35-.151.451-.15.652v14.992h4.863v.001zm10.28 0v-17.049l-.301-.652-.451-.451-.803-.35-.802-.15H60.5l-.451.15-.301.35-.351.303-.301.451-.301.65-.151.803v15.945h4.865zm-21.161-41.769h27.529v8.424H42.348v-8.424zm0-44.377h27.529v13.238l-20.609 16.447h20.609v7.771H42.348v-13.287l20.559-16.398H42.348v-7.771zm27.529-6.971H42.348V49.744h6.469v22.164h4.763V51.349h5.516v20.559h4.413V49.744h6.368v30.387zM42.348 6.42l13.89 12.636L69.877 5.467V16.85l-9.828 9.176 9.828 9.026v11.232L56.238 32.545l-13.89 12.937V34.4l9.778-8.524L42.348 17V6.42zM80.608 182.275H81.561l.451-.15.351-.15.802-.301.452-.502.501-.652.302-.752-.953-3.008-.652-3.01-.15-3.158.15-3.16.15-3.209.352-3.16.301-3.158.301-3.008.652-1.555.451-1.605.652-1.705.652-1.604.451-1.605.652-1.705.301-1.904.3-1.906.652-1.906.652-2.205.602-2.207.802-2.205.802-2.207.953-1.906 1.354-1.604 1.605-1.254.752.803.801.953.803.951.652.904.301 1.754.301 1.906.352 1.904.301 2.057v3.961l-.15 1.906-.502 1.705-.602 1.453-.502 1.555-.15 1.605v3.309l.15 1.605.301 1.705.502 1.754.301 1.605.502 1.705.301 1.754.301 1.756.15 1.705.201 1.604v1.756l-.201 1.555v8.724H101.12v-.352l.15-.15.199-.301.301-.15.604 2.057.65.301.953.15h.803l.803.352h.3l.15-.803h.15l.15.15.15.301.35.352.803.148.902.152H115.207l-.803-1.254-.953-.953-1.102-1.104-1.104-.953V175.306l.301-.301.199-.15.152.301.15.15v2.208l.148.65 1.104.803.803 1.104.652.953.752.953h1.306l.602-.301-.602-1.154-.652-.953-.803-1.104-.602-1.102-.652-1.104-.652-1.104-.449-1.254-.303-1.254-.502-2.055-.299-2.057-.152-2.055-.199-2.258v-2.057l-.15-2.055v-2.057l-.15-2.057.15-1.854.35-1.906v-2.057l.152-1.904.15-1.906V142.408l.148-1.906v-2.055l.152-1.906.15-1.855.35-2.055.152-1.906.449-1.906.502-1.904.451-1.906.652-.602.953-.352.803-.301.602-.5 2.205.801.15 2.057v.803l-.15.953v.951l-.15.953-.15.953v.953l-.15 1.104v.951l.15 1.705v5.065l-.15 1.605v8.374l.15 1.605v3.159l.15 1.557v3.159l-.15 1.604v1.555l-.15 1.605-.15 1.555-.352 1.604-.301 1.605-.451 1.555-.5 1.604.301.752.199.652v.803l-.199.602-.301.652-.15.801-.301.604v.801H117.414l.5-.15.604-.301.5-.35.602-.15-.451.65-.502.652-.301.902.301.953v.351l.352.451.451.352.652.148.602.152.953.15h1.904l.953.15.803-.15h1.405l.803-.15h1.103l.301-.152v-.951l-.752-.803-.652-.953-.652-.953-.602-.953-.652-.951-.451-1.104-.652-.953-.65-.953-.152-2.508-.15-2.355-.15-2.406V158.71l.15-2.357.15-2.557v-1.104l.152-1.104.199-1.104.301-1.104.15-.951.15-1.104.15-1.104V144.316l.201-.652v-.752l.15-.652v-1.405l-.15-.652-.201-.65.201-.604.301-.65.15-.451.15-.652.15-.652.201-.752.15-.652.15-.803.451-3.158.803-3.008.953-2.859.951-2.656 1.104-2.709 1.254-2.506 1.104-2.559 1.303-2.658.602-.801.303-.803.5-.953.15-.953.15-.951.352-.953.15-1.104.15-.953v-.301l.15-.451v-.352l-.15-.301-1.104-.502 1.104-.602.953-.65 1.104-.453 1.104-.5.951-.602 1.104-.451.953-.602.953-.803.15.803.301.752.15.902.199.953.303.951.299.803.502.652.602.602.502 1.104.15 1.104-.301.953-.352.801-.15.953-.15.953-.301.953-.35.953-.152.951-.299.752v1.756H145.245l.35-.15.15-.301 1.906-2.207h.15l1.104-1.152 1.102-.904 1.104-.951 1.254-.652V108.564h-.15 1.104l.502-.15.451-.301 1.104-.502.65-.65.453-.904.199-.951.451-1.104.803-.803.803-.803.752-.451.953-.502 1.104-.148h.951l1.104.148 1.104.303 1.305.199 1.102.15 1.104-.15v.601l.15.652.301.602.502.652.803.652.752.451.953.5.951.303 1.254-.15H174.532l.15.301.15.451.352.352.451.299h1.104l1.254.152h1.102l1.154-.303.602-.951.502-.803.602-.803.5-.902.451-.803.502-.803.451-.801.502-.803.301-1.053.15-.953.15-1.104.15-1.104.201-1.253.15-1.103.15-1.254.301-1.103-.451-1.103-.652-.803-.652-.802-.752-.802-.803-.602-.801-.803-.803-.802-.752-.953-2.256-2.056-2.357-1.755-2.508-1.404-2.557-1.404-2.508-1.454-2.557-1.555-2.207-2.056-2.207-2.407-.801-.602-.803-.652-.752-.451-.953-.351 1.254 1.906h-.15l-.352-.452-.15-.351-.301-.451-.502-.301-.752-.802-.953-.803-.951-.452-1.254-.5h-.201v-.151l-.301-.301-.15-.351-.15-.301-.502-.151-.301-.15-.15-.151v-.351l-.65-.601.148-.151.201-.2.15-.301h.15l1.104-.652.953-.452 1.104-.652 1.102-.602 1.104-.501.953-.602 1.104-.501.953-.451.951-.803.953-.802.652-.602.602-.803-.602.452-.652.351-.65.3-.602.452-.652.351-.652.301-.602.15-.652.301-.803.352-.602.15h-.65l-.303-.15.652-1.906h-.199l-1.104.652v-1.153l.15-1.254.199-1.103.301-1.103.303-1.254.5-1.103.451-1.104.301-1.103H157.131l-.451.752-.35.802-.453.953-.5.802-.604.803-.65.752-.803.652-.953.451H150.812l-.803-.15-.951-.15-.803-.3-.752-.301-.652-.351-.652-.451-.602-1.103-.35-1.103-.301-1.304-.15-1.254-.152-1.254-.15-1.253-.199-1.303-.301-1.104v-.15H143.544l-1.455 8.524-.451.952-.803.502-1.102.15h-1.104l-1.104-.451-.953-.803-.953-.802-.803-.953-.602-1.103-.803-.953-.65-1.104-.602-.952.902 3.66-.451.15-.301-.15-.352-.351-.301-.301-.953-1.605-1.102-1.403-.953-1.555-.953-1.454-.953-1.555-.953-1.454-.953-1.404-.951-1.455-.453-.752-.301-.953-.35-.802-.301-.802v-.301H121.678l3.158 10.129v.301h-.3l-.803-.652-.951-.602-.953-.803-.752-.652-.803-.752-.803-.952-.451-.953-.352-.953-.301-.953-.451-1.103-.5-.802-.451-.803V33.792h-.651l.652 4.112-.803-.953-.502-.802-.602-.953-.301-.602h-.351l.652 2.357.803 2.356.752 2.207 1.104 2.257 1.152 2.056 1.254 2.056 1.404 1.855 1.453 1.906h.15l.152.15.801 1.304 1.104 1.104 1.254 1.103 1.104.952 2.057 1.555 2.205 1.455 2.207 1.253 2.406 1.254 2.357 1.104 2.557 1.103 2.658.802 2.707.802h.601v.151l.201.15h.15l.301 1.103v2.407l-.15-.351-.15-.301-.352-.301V67.791l.201-.301v-.151l-.201-.351-.451-.451-.652-.301h-3.158l.15.15.201.15v.301l-1.756-.602v.15h.301l.15.15v.301l-1.705-1.254.301.652-2.055-.953.801.602-3.51-1.705.803.903 1.104 1.153 1.104 1.103.803 1.254h-.152l-1.604-1.104-1.404-1.253-1.453-1.454-1.555-1.254-1.605-1.103-1.705-.953-1.906-.803-2.055-.602v.3l-.15.301v.301l.451.652.301.802.502.802.451.602.352.953.451.802.301.803.35.952.451.603.352.652.15.651.301.602.803.802.602.451.803.501.803.301v.15l-.502.15-.451-.15-.652-.15-.451-.301v-.301l-.15-.201h-.352l-.451-.752-.451-.651-.352-.652-.451-.752-.5-.652-.453-.652-.5-.602-.301-.803-.953-.501-1.104-.301-.953-.151-.953-.15h-1.102l-1.104.15-1.104.151-1.104.15H118.37l-.451.151-.5.2-1.104.752-.803 1.103-.602 1.153-.803 1.104-.15.602v.501l.15.452.15.15v.351l.15.15v.15H113.454l-.752.151-.801.3-.652.352-.602.3-.502.652-.451.451-.352.652-.602 1.104-.502 1.404-.951 1.103-1.254.953.451-.953h-.451l-.301.15-.352.351h-.301l-2.057 1.705-1.904 1.905-2.057 1.906-1.705 2.056-1.905 1.906-1.605 2.056-1.354 2.207-1.103 2.055h-.501l.651-1.554-.15-.15-.501.15-1.555 1.554-1.304 1.905-1.253 1.756-.953 1.855-.953 2.055-.953 2.057-.752 2.207-.802 2.205.15 2.057v4.112l-.15 2.057-.15 2.055v2.057l-.2 2.057v2.055l.351 1.906.15 1.904-.15 1.906v1.906l-.351 1.855-.151 1.904-.15 2.057v1.904l.652-1.252v1.754h-.15l-.2.15-.301.451-.15.652-.301.602v.652l-.15.652V145.709h-.201l-.15.201v2.658l-.15.953v.951l.15.803v1.404l-.15 1.455-.15 1.254v1.252l-.15 1.254-.15 1.305-.201 1.252v1.104l-.15 1.906-.301 1.906-.301 1.703-.351 1.906-.451 1.906-.301 1.904-.201 1.756-.15 1.705-.301.951-.451 1.254-.351 1.104.351 1.305.602.602.952.35.953.303 1.099.159zm25.423-7.572v-.502l-.15-.15-.652-1.754-.451-1.855-.502-1.756-.451-1.756-.301-1.904-.352-1.705-.301-1.906-.15-1.754-.15-1.906v-1.756l.15-1.854.301-1.756.303-1.754.5-1.906.803-1.705.752-1.756v.953l-.15.803-.15.752.301.953.201.65v.652l.15.604.15.65.301 2.658.15 2.707.35 2.559v2.506l.15 2.508v7.622l-.35.652-.15.752-.15.803-.152.651z"/><path fill="#fff" d="M106.031 137.998v-.953l.151-.953.15-.953.35-.803.15-.801.453-.902.35-.803.451-.803-.451.803-.35.602-.301.802-.152.803-.35.801-.15.752-.15.652-.151.803v.953zM99.061 94.222l.15-.501.201-.302v-.601l.301-1.454.451-1.405.502-1.453.451-1.404.502-1.254.602-1.254.5-1.153.603-1.104-.453.803-.803 1.103-.8 1.455-.602 1.253-.502 1.404-.301 1.454-.451 1.555-.201 1.454-.15 1.404zM123.281 80.282l.299-1.103.303-.953.5-.953.301-.952.502-.753.451-.953.502-.802.451-.802h-.151l-.15-.151h-.15l-.502.652-.451.953-.502.752-.452.953-.349 1.103-.303.953-.299 1.103v.953zM115.859 76.822l1.856-3.811v-.151h-.301l-1.555 4.413V76.822zM133.059 76.02l1.605-3.611-1.605 3.611zM105.58 135.139l.15-.803.151-.951.301-.752.3-.953.2-.953.453-.954.301-.8.349-.953-.65.5-.303.751-.35.954-.451.802v1.104l-.15.953-.301.953v1.102zM103.172 117.439l.652-3.16-.5.602-.303.803-.15.802v.953h.301zM103.324 110.318l1.303-1.756.15-.451-.502.451-.3.452-.301.652-.502.652h.152zM91.389 104.752v-1.906l.301-1.854.301-1.857.501-1.754.602-1.905.652-1.755.752-1.706.953-1.604-1.104 1.604-.752 1.555-.802 1.755-.451 1.905-.502 1.905-.301 1.857-.15 1.854v1.906zM111.746 93.419l.451-.952.653-.953.451-.953.652-.952.602-.903.652-.953.451-.952.653-.953h-.151l-.652.802-.602.903-.652 1.153-.65.903-.454 1.153-.65.903-.451.953-.303.801zM106.832 91.514l.453-.953.5-.752.301-.652.451-.651.502-.602.451-.653.502-.601.451-.802-.601.451-.502.652-.451.602-.352.652-.451.802-.301.802-.5.752-.453.953zM128.496 79.179l2.506-6.319h-.451l-.301.652-.15.753-.352.802-.301.953-.301.802-.199.803-.301.751-.15.803zM134.664 97.531l-.652-2.055h-.301l.953 2.055zM141.633 95.977l-.953-1.755.953 1.755zM111.746 180.871h.953v-.351l-.953.351zM81.711 180.871v-.652l.15-.451v-.502l-.15-.452-.15-.15h-.151l-.15.15h-.151l.452 2.057h.15zM105.078 129.773l.151-.953.15-.8v-.653l.201-.601.15-.954.301-.802.151-.803.3-.752.2-.652.15-.5.152-.451.151-.452-.453.903-.35 1.152-.301.953-.301 1.104-.351.953-.15 1.103-.151 1.102v1.103zM104.627 123.256l.15-.953.301-.903.151-.953.351-.802.301-.954.301-.953.3-.8.35-.954.152-.15h.151l-.453.652-.35.801-.451.904-.301.952-.351.953-.301 1.103-.151.953-.15 1.104zM124.533 102.846l1.606-1.553v-.152l-1.606 1.705z"/><path fill="#fff" d="M92.943 102.545l.151-2.055.151-2.006.501-1.906.601-2.056.602-1.704.802-1.905.953-1.605.952-1.404-1.103 1.404-.952 1.605-.803 1.905-.652 1.704-.551 2.056-.35 1.906-.302 2.006v2.055zM94.798 98.986l.302-1.906.501-1.755.451-1.906.803-1.754.801-1.706.803-1.754.953-1.404.902-1.454-1.253 1.303-.954 1.404-.951 1.755-.603 1.705-.652 1.905-.45 1.906-.351 1.755-.302 1.906zM139.076 96.93v-.502.502zM109.49 94.222l.502-1.254.653-1.103.601-1.103.652-1.153.602-1.103.801-.953.652-1.103.803-1.103-.201-.151h-.151l-.15-.301-.803 1.104-.601 1.103-.801 1.103-.653 1.103-.451 1.253-.652 1.104-.451 1.303-.352 1.254zM184.154 91.514h-.3l-2.858-1.404 3.158 1.404zM176.584 90.11h.301l-2.809-.652 2.508.652zM140.379 86.149l3.31-2.708-3.009 2.407h-.301v.301zM139.426 84.243l4.113-3.008v-.301l-4.463 3.309h.35zM170.566 81.736h.301l-.902-.151h-.803l-.803-.2h-.802l-.952-.15h-2.507l.802.15h.752l.803.2.801.151h3.31zM152.715 80.633l1.254-.351 1.103-.301 1.254-.301 1.252-.15 1.154-.201 1.254-.301 1.252-.15 1.254-.15h-1.553l-.652.15h-.652l-.602.15-.652.151h-1.254l-.953.351-1.102.301-1.254.3-1.103.301v.201zM121.375 79.179l2.508-6.168-.153-.151H123.281v.502l-.152.451-.15.452-.35.501-.15.652-.301.602-.151.501-.201.602-.301.652v.802l-.15.602z"/></g></svg>