<svg xmlns="http://www.w3.org/2000/svg" width="2500" height="2500" viewBox="0 0 192.756 192.756"><g fill-rule="evenodd" clip-rule="evenodd"><path fill="#fff" d="M0 0h192.756v192.756H0V0z"/><path d="M91.204 106.17h-.398c-.398 5.174-5.175 9.154-9.951 10.35-3.185.795-6.369 0-9.155-1.195l1.194-2.389s1.194.398 1.592.398c4.379 1.592 8.359-.398 11.146-3.184 1.194-.797 1.592-2.389 1.99-3.582-3.185 2.387-8.359 2.785-11.941 1.193-2.787-1.592-5.175-3.98-5.175-7.164V83.878h3.185v16.321c0 2.387 1.99 4.377 3.98 5.174 2.389.797 5.573.797 7.563-1.193 1.592-1.195 2.388-2.787 2.787-4.379V83.878h3.185v22.292h-.002zM119.068 104.975c-.797.398-1.992.797-3.186.797-2.787 0-5.174-2.389-5.174-5.174V87.062l8.359-.398v-2.786h-8.359v-5.971h-3.186V100.597c0 4.377 3.98 8.357 8.359 8.357 1.592 0 2.787-.396 3.98-1.193l-.793-2.786zM175.592 105.771s5.572-.797 5.572-5.174v-8.36s.398-5.175 3.98-7.166c2.389-1.194 4.777-1.194 4.777-1.194v2.786c-.398 0-1.99.398-3.582 1.194-1.195.796-1.992 3.185-1.992 4.379v8.36c0 5.572-5.572 7.562-8.357 7.961h-.398v-2.786z" fill="#0a2c5c"/><path d="M131.406 105.771c-1.99 0-3.98-.398-5.572-1.592l17.117-14.331s-1.195-1.592-1.592-1.99l-.398-.398c-2.389-1.99-5.574-3.582-9.555-3.582-7.164 0-13.135 5.573-13.135 12.34 0 7.164 5.971 12.736 13.135 12.736 2.787 0 5.176-.795 7.564-1.99l-1.195-3.184c-1.591 1.195-3.98 1.991-6.369 1.991zm-9.951-9.552c0-5.175 4.379-9.156 9.951-9.156 2.787 0 5.176.796 7.166 2.389l-15.127 12.738a9.785 9.785 0 0 1-1.99-5.971zM45.029 83.878c-6.767 0-12.34 5.573-12.34 12.34 0 7.164 5.573 12.736 12.34 12.736 7.165 0 12.738-5.572 12.738-12.736 0-6.767-5.573-12.34-12.738-12.34zm0 21.893c-5.175 0-9.155-4.379-9.155-9.553 0-5.175 3.98-9.156 9.155-9.156s9.553 3.981 9.553 9.156c0 5.175-4.378 9.553-9.553 9.553zM15.174 83.878c-3.98 0-7.165 1.592-9.553 4.378v-12.34H2.834v20.302c0 7.164 5.573 12.736 12.34 12.736 6.767 0 12.34-5.572 12.34-12.736 0-6.767-5.573-12.34-12.34-12.34zm0 21.893c-5.174 0-9.553-4.379-9.553-9.553 0-5.175 4.379-9.156 9.553-9.156 5.175 0 9.155 3.981 9.155 9.156.001 5.175-3.98 9.553-9.155 9.553zM28.708 108.559h2.787V83.878h-2.787v24.681z" fill="#0a2c5c"/><path d="M30.301 80.694c1.194 0 2.388-.796 2.388-1.99 0-1.592-1.194-2.389-2.388-2.389-1.592 0-2.389.796-2.389 2.389 0 1.194.796 1.99 2.389 1.99z" fill="#cc2131"/><path d="M166.037 83.878c-2.785 0-5.174 1.592-6.766 3.582-1.592-1.99-3.98-3.582-6.768-3.582-4.777 0-8.359 3.98-8.359 8.359v16.32h2.787V92.238c0-2.787 2.389-5.175 5.572-5.175 2.787 0 5.176 2.389 5.176 5.175v16.32h3.184v-16.32c0-2.787 2.389-5.175 5.174-5.175 3.186 0 5.574 2.389 5.574 5.175v16.32h2.785v-16.32c0-4.379-3.582-8.36-8.359-8.36zM54.98 105.771s5.573-.797 5.573-5.174v-8.36s0 .397 0 0c0-.796.398-5.175 3.981-7.166 2.388-1.194 4.776-1.194 4.776-1.194v2.786c-.398 0-1.99.398-3.583 1.194-1.194.796-1.99 3.583-1.99 4.379v8.36c0 5.572-5.573 7.562-8.359 7.961h-.398v-2.786zM92 105.771s5.971-.797 5.971-5.174v-8.36s0 .397 0 0c0-.796.398-5.175 3.582-7.166 2.389-1.592 4.777-1.194 5.176-1.194v2.786c-.797 0-1.992 0-3.584 1.194-1.592.796-2.389 3.185-2.389 4.379v8.36c0 5.572-5.174 7.562-7.96 7.961H92v-2.786z" fill="#0a2c5c"/></g></svg>