<svg xmlns="http://www.w3.org/2000/svg" width="2500" height="2500" viewBox="0 0 192.756 192.756"><g fill-rule="evenodd" clip-rule="evenodd"><path fill="#fff" d="M0 0h192.756v192.756H0V0z"/><path d="M51.546 107.229c-2.514-3.164-6.237-4.002-9.915-3.91 4.702-3.908 8.378-11.636 6.47-16.337-4.794-12.102-19.224-5.725-33.653 3.491-1.07.698-2.42 1.443-3.863 1.257-.559-.047-.745.465-.373 1.024.186.279 2.281 3.026 3.817 4.468.745.699 1.35 1.49 3.258.094.605-.418 1.722-1.117 3.258-1.908-2.095 10.52-3.771 22.389-3.584 28.58.093 3.352.978 8.1 3.537 9.588a72.328 72.328 0 0 1-3.491 2.234c-2.095 1.303-1.303 2.979.046 4.516 2.793 3.816 6.75 2.652 10.008.465 11.776-7.912 20.946-15.08 25.321-23.088 3.075-5.539.701-8.473-.836-10.474zm-8.378 5.959c-2.141 3.584-9.542 10.893-18.479 17.455-.605-7.4 2.142-16.85 3.072-30.303.326-4.189-.326-5.539-3.398-6.47-.14-.046-.28-.093-.466-.093 3.212-1.489 7.168-3.072 11.079-4.143 3.025-.838 4.98-.233 2.56 4.608-2.327 4.515-5.539 7.958-8.657 11.73-1.676 2.002-1.583 2.605-.093 4.561.326.42.652.838 1.071 1.211 1.35 1.117 2.28.791 3.724.186 2.234-.977 5.306-2.281 7.727-2.42 2.372-.139 2.605 2.42 1.86 3.678zM164.703 87.26c-.467 3.025-1.025 6.284-1.35 9.356-.141 1.583-.514 3.071-2.143 3.259-1.303.139-2.467.092-3.631-.047-1.209-.141-1.861-.418-1.814-2.373.047-1.956.279-3.864.373-5.773-1.443 2.886-3.586 6.238-5.354 8.099-1.396 1.537-2.887 2.049-5.68 1.816-2.514-.234-3.117-1.537-3.863-2.607-3.676-5.074 0-24.763 4.516-31.466 1.023-1.49 2.002-2.188 3.863-1.769 3.258.745 7.074 3.072 6.797 6.376-.094 1.21-.094 2.421-1.025 3.724-.605.791-2.234 1.489-2.42-.465-.094-.885-.047-1.862.047-2.747.092-.698-.467-.838-.746-.186-2.791 6.19-4.467 20.387-4.096 22.854.279 2.001 1.164 2.095 2.096.605 2.373-3.91 5.725-8.797 7.26-14.848.559-2.933 2.234-20.248 2.607-28.627.047-1.675.373-2.188 1.77-2.001 1.861.186 3.631.652 5.307 1.397 1.117.512 1.768.791 1.535 2.653-.094.745-2.328 15.407-2.42 17.688 1.256-1.676 8.006-10.706 8.098-10.799.561-.559.793-.652 1.91-.047.092.047 2.652 1.49 3.025 1.955.697.745 1.07 1.443 0 2.374-6.424 4.841-12.104 12.102-13.5 13.917 12.895 4.329 13.174 16.245 10.195 20.016-.699.885-1.211.697-.979-.791 1.071-6.934-6.003-10.379-10.378-11.543zM127.512 76.788c-1.49 8.75-3.725 21.83-1.723 29.232.326 1.117.418 1.535-.699 1.908-1.023.326-2.141.232-3.258.232-1.023 0-2.047-.186-2.979-1.723-1.211-1.861-1.629-6.236-1.303-9.449.047-.372-.094-.465-.232-.139-.188.559-2.561 8.564-4.701 11.311-.838 1.07-.932 1.396-2.514 1.629-.979.141-3.678.094-4.004.094-1.211-.094-1.582-.746-1.723-1.908-1.164-9.311 1.396-19.085 2.049-29.465.232-1.164.605-1.21 1.908-.931 1.723.419 3.49.791 5.027 1.629 1.443.792 1.629 1.21 1.303 3.491-.838 5.353-2.373 15.5-2.42 16.106-.094 1.908.094 2.141.977 0 .234-.559 4.469-9.776 5.121-12.056.559-3.631 1.35-10.985 1.629-12.242.139-.651.139-.884 1.211-1.07 1.117-.14 4.98 1.21 5.586 1.675.557.465.838 1.07.745 1.676z" fill="#fff"/><path d="M98.979 85.212c.047.046.092.046.139.046 1.164.186 2.375.465 3.492.978 1.209.558 1.861 1.396 1.582 3.305-.326 1.908-4.143 20.062-3.631 28.3 0 .373-.047.932.512.326.605-.699 1.07-1.303 1.676-1.908.559-.605 1.258-.42.838.559-.465.977-2.793 9.309-3.025 10.287-.326 1.395-.373 1.676-1.723 1.955-1.535.279-3.63.186-4.794-.279-1.024-.373-1.257-.932-1.303-2.143-.093-1.768-.14-3.537-.233-5.307-.093-4.375.279-8.471.465-12.707-.698 2.141-3.584 7.402-3.677 7.541-.698 1.211-1.117 1.396-2.653 1.49a11.092 11.092 0 0 1-2.793-.232c-.931-.188-2.095-.979-2.653-2.654-1.443-4.422-2.141-24.111 10.334-34.864 1.303-1.163 2.234-1.024 3.816-.326 1.304.559 4.561 2.979 5.028 4.003.418.884.045 1.117-.838 1.35-5.074 1.303-10.707 14.569-11.079 23.133-.093 1.863.372 2.98 1.629.699 3.444-6.33 6.424-15.92 7.68-22.762.14-.883.511-.929 1.211-.79z" fill="#fff"/><path d="M81.244 91.496c-.233 1.21-1.164.931-1.35.419-.14-.326-.326-1.024-.465-1.303-.14-.373-.373-.559-.838-.233-1.489 1.071-3.631 4.05-4.562 6.145-1.024 2.234-.931 4.004.232 5.725 2.421 3.584 5.307 6.564 5.121 11.59-.14 4.842-4.748 10.008-9.635 9.822-1.117-.047-4.05-1.303-4.934-2.699-.419-.605-.419-.791.372-1.305 2.653-1.721 4.655-6.143 4.794-8.424.279-6.004-5.027-9.17-4.748-15.221.233-3.817 4.468-9.729 8.006-11.963 1.443-.884 2.653-1.21 4.329-.139 2.374 1.488 4.329 4.514 3.678 7.586zM139.287 73.436c-.559 4.608-4.701 24.251-3.258 29.837.326 1.209.186 1.908-1.396 2.326-.652.186-3.305.326-4.002.186-1.117-.232-2.096-1.023-2.328-2.559-1.955-11.87 3.584-31 2.699-33.096-.512-1.117.326-1.675 1.861-1.629.84.046 3.539.465 4.656.884 2.327.839 2.047 1.863 1.768 4.051zm1.584-15.5c-1.305-.792-3.584-1.676-5.447-2.421-1.908-.745-2.094.373-2.42 1.676-.186.651-.932 2.467-.979 3.352-.139 2.514 1.305 4.608 4.004 4.841 3.678.326 5.68-1.536 6.238-3.724.465-1.769.139-2.793-1.396-3.724zM62.299 121.426c.093 1.211-.233 1.537-1.164 1.77-1.722.512-3.677.371-5.353-.141-1.164-.326-1.676-.93-1.862-2.281-1.071-7.354.698-23.924.884-28.765-.139-1.257.14-2.793-.233-3.491-.372-.698.14-.931.792-.931 2.42-.093 4.84.046 7.075.791 1.071.372 1.583.605 1.303 2.095-.232 1.488-1.768 23.97-1.442 30.953zm3.677-41.986c0-1.49.093-1.676-1.164-2.234-2.234-.931-6.284-1.723-6.656-1.769-1.21-.233-1.49.326-1.722 1.024a12.272 12.272 0 0 0-.651 2.886c-.187 2.421.279 6.098 4.329 6.284 2.56.14 4.003-.652 4.934-2.606.604-1.164.93-3.026.93-3.585zM39.77 108.904c-2.42.141-5.492 1.443-7.68 2.375l-.093.047c-1.443.65-2.281.93-3.584-.188-.372-.279-.698-.65-1.07-1.117-1.396-1.955-1.536-2.467.093-4.422l1.583-1.861c2.653-3.119 5.167-6.098 7.075-9.915 1.163-2.281 1.442-3.771.791-4.515-.512-.698-1.676-.792-3.444-.28-4.329 1.164-8.425 2.886-11.125 4.143l-.419.186.466.047c.14.046.326.093.465.14 2.933.884 3.584 2.141 3.258 6.284-.372 6.004-1.164 11.172-1.862 15.732-.838 5.633-1.536 10.473-1.21 14.617v.277l.233-.186c9.402-6.889 16.571-14.15 18.526-17.502.419-.744.605-2.002.046-2.932-.326-.463-.885-1.022-2.049-.93zm10.985 8.285c-4.375 7.914-13.266 14.941-25.322 23.041-2.886 1.955-6.936 3.445-9.821-.465-.978-1.164-1.396-2.049-1.257-2.793.093-.559.465-1.07 1.21-1.49 1.117-.697 2.28-1.488 3.444-2.234l.233-.139-.233-.141c-2.374-1.35-3.305-5.771-3.444-9.449-.14-5.631 1.257-16.85 3.584-28.579l.093-.279-.28.139c-1.442.792-2.653 1.49-3.258 1.908-1.723 1.258-2.281.699-2.933.094l-.14-.141c-1.583-1.442-3.677-4.282-3.817-4.468-.186-.233-.233-.512-.14-.652s.233-.14.326-.14c1.49.187 2.933-.605 3.957-1.257 8.285-5.306 20.108-12.055 27.556-9.635 2.7.838 4.701 2.886 5.958 6.051 1.861 4.655-1.908 12.381-6.47 16.153l-.279.279h.373c4.375-.141 7.68 1.162 9.821 3.863 1.538 1.957 3.818 4.889.839 10.334z" fill="#fff"/><path d="M163.027 86.749l-.234 1.21c-.418 2.7-.836 5.493-1.117 8.145-.186 1.816-.604 3.025-2.047 3.166a18.355 18.355 0 0 1-3.584-.047c-1.164-.139-1.723-.373-1.676-2.234 0-1.117.094-2.188.186-3.258.094-.791.141-1.675.186-2.513l-.277-.046c-1.537 3.072-3.678 6.285-5.307 8.052-1.396 1.537-2.934 2.002-5.586 1.77-2.141-.188-2.84-1.211-3.537-2.188-.047-.141-.141-.232-.234-.373-3.537-4.934-.092-24.484 4.516-31.28.979-1.443 1.861-2.141 3.771-1.722 3.49.838 6.889 3.212 6.654 6.191l-.045.419c-.094 1.07-.141 2.141-.979 3.258-.326.465-1.023.884-1.535.745-.467-.14-.605-.698-.605-1.117a10.862 10.862 0 0 1 .047-2.746c.047-.466-.141-.698-.326-.745-.232-.046-.512.047-.699.466-2.746 6.098-4.467 20.341-4.096 22.994.141 1.024.467 1.583.932 1.676.418.092.885-.279 1.396-1.071l.512-.791c2.373-3.863 5.354-8.425 6.797-14.104.557-3.025 2.234-20.434 2.605-28.626 0-.977.141-1.443.42-1.675.232-.187.604-.279 1.209-.187 1.863.187 3.631.652 5.213 1.396 1.164.512 1.723.745 1.49 2.514l-.094.698c-1.768 12.661-2.279 16.059-2.326 16.989v.419l.279-.372c.697-.931 3.305-4.05 5.26-6.843 1.396-1.955 2.699-3.816 2.793-3.91.512-.512.604-.651 1.721-.046.188.093 2.654 1.536 3.027 1.955.324.325.65.744.604 1.163 0 .326-.232.652-.604.978-4.145 3.165-8.658 7.82-13.406 13.824l-.094.14-.139.14.186.093c7.68 2.56 10.24 7.68 11.078 10.52 1.211 4.003.373 7.587-.932 9.263-.371.465-.604.512-.65.465-.141-.047-.232-.326-.094-1.164.467-3.118-.605-5.818-3.211-8.052-2.607-2.234-5.959-3.305-7.309-3.63l-.139-.046v.137zM125.836 76.275l-.047.279c-1.443 8.658-3.678 21.691-1.676 28.998.326 1.164.373 1.443-.605 1.77-.744.279-1.582.232-2.467.232h-.744c-.932 0-1.908-.139-2.887-1.629-1.209-1.861-1.582-6.33-1.209-9.402 0-.279-.047-.42-.188-.466-.092 0-.232 0-.326.279l-.092.279c-1.723 5.446-3.352 9.356-4.654 11.032l-.141.232c-.652.838-.838 1.07-2.234 1.303-.977.141-3.678.094-4.002.094-1.025-.094-1.443-.559-1.584-1.77-.744-6.004.047-12.148.885-18.665.465-3.491.932-7.122 1.164-10.799v.047c.094-.512.232-.792.373-.884.232-.14.65-.094 1.35.046l.465.14c1.582.326 3.166.698 4.562 1.489 1.303.698 1.535 1.071 1.209 3.305l-.977 6.517a688.567 688.567 0 0 0-1.443 9.589c-.047 1.395.047 1.629.232 1.674.232.047.42-.186 1.023-1.582.047-.092.234-.605.559-1.256 1.211-2.7 4.051-8.984 4.562-10.8v-.046c.279-1.722.605-4.422.885-6.796.324-2.56.605-4.794.744-5.399v-.14c.141-.559.141-.698 1.117-.838.979-.14 4.842 1.164 5.445 1.629.56.468.795 1.026.701 1.538zM97.395 84.886c.047.047.094.047.141.047 1.303.186 2.467.512 3.49.978.979.418 1.816 1.117 1.49 3.165-.047.233-.186.838-.326 1.676-1.023 5.352-3.723 19.549-3.305 26.672v.045c0 .279 0 .559.232.605.188.094.373-.094.512-.279l.559-.65c.373-.42.746-.838 1.117-1.258.279-.279.559-.373.652-.279.094.047.141.279-.047.652-.465 1.023-2.793 9.449-3.025 10.379-.279 1.35-.326 1.537-1.582 1.816-1.49.279-3.584.186-4.749-.279-.978-.326-1.164-.838-1.21-2.002-.046-1.443-.14-3.398-.232-5.354-.047-2.932.093-5.818.232-8.611.093-1.35.187-2.699.232-4.049l-.279-.047c-.652 2.141-3.631 7.447-3.631 7.494-.652 1.164-1.071 1.35-2.56 1.443a10.281 10.281 0 0 1-2.746-.232c-.466-.094-1.909-.559-2.607-2.561-1.303-4.096-2.188-23.925 10.333-34.724 1.257-1.117 2.141-.978 3.677-.326 1.303.605 4.515 2.979 4.981 3.957.139.326.186.559.092.698-.047.186-.326.326-.838.465-2.42.605-5.073 3.864-7.4 8.938-2.141 4.702-3.631 10.194-3.817 14.336-.047 1.256.14 2.002.512 2.094.373.094.792-.324 1.35-1.35 3.63-6.516 6.517-16.384 7.727-22.761.047-.372.14-.605.28-.698.14-.093.373-.093.745 0z" fill="#fff"/><path d="M79.615 90.984c-.094.466-.326.745-.605.745-.187.046-.419-.14-.512-.326-.047-.14-.14-.372-.187-.605-.093-.279-.186-.559-.279-.698-.047-.186-.186-.419-.419-.465-.186-.047-.372 0-.651.186-1.536 1.117-3.724 4.189-4.608 6.144-1.024 2.282-.931 4.096.279 5.866.372.605.838 1.209 1.257 1.814 2.048 2.887 4.003 5.586 3.863 9.729-.093 2.514-1.443 5.26-3.584 7.215-1.769 1.676-3.91 2.561-5.958 2.467-1.071-.047-3.957-1.256-4.794-2.605-.373-.605-.419-.652.325-1.164 2.7-1.723 4.701-6.285 4.841-8.52.139-3.025-1.164-5.352-2.374-7.633-1.257-2.234-2.514-4.561-2.374-7.587.233-3.816 4.562-9.728 7.959-11.822 1.396-.885 2.56-1.211 4.189-.187 2.188 1.395 4.236 4.281 3.632 7.446zM137.611 72.97c-.139 1.071-.465 2.979-.883 5.399-1.305 7.541-3.492 20.156-2.375 24.484.326 1.164.186 1.77-1.303 2.141-.652.188-3.258.279-3.91.188-1.211-.234-2.049-1.117-2.234-2.467-1.256-7.542.605-18.201 1.816-25.229.744-4.236 1.209-7.075.836-7.866-.139-.373-.139-.698 0-.931.279-.372.885-.559 1.77-.512.791.047 3.49.466 4.607.838 2.096.792 1.955 1.629 1.723 3.538l-.047.417zM60.669 120.961c.047 1.209-.279 1.396-1.07 1.629-1.583.465-3.491.418-5.306-.094-1.117-.326-1.583-.932-1.769-2.188-.791-5.586 0-16.291.512-23.412.186-2.235.326-4.144.373-5.354-.047-.465-.047-.978-.047-1.489.047-.792.047-1.583-.186-2.048-.093-.233-.14-.373-.093-.512.093-.14.373-.233.792-.233 2.886-.093 5.074.14 6.982.792 1.024.326 1.49.512 1.257 1.909-.281 1.628-1.817 23.971-1.445 31zM140.592 61.147c-.652 2.56-2.934 3.91-6.053 3.63-2.514-.232-4.049-2.094-3.908-4.701.045-.559.371-1.536.65-2.327.141-.419.279-.792.326-1.024l.047-.139c.186-.698.326-1.303.744-1.536.326-.14.791-.14 1.443.14 2.607.978 4.375 1.769 5.445 2.42 1.398.838 1.771 1.768 1.306 3.537zM63.37 82.512c-.885 1.909-2.281 2.653-4.794 2.514-1.303-.046-2.281-.512-2.979-1.303-1.164-1.304-1.303-3.352-1.21-4.841.093-.931.28-1.862.652-2.839.232-.698.465-1.117 1.583-.931.186.047 4.375.792 6.61 1.769 1.117.465 1.117.605 1.07 1.815v.232c-.002.606-.281 2.421-.932 3.584z" fill="#fff"/><path d="M50.01 106.764c-2.513-3.166-6.237-4.004-9.914-3.957 4.701-3.863 8.378-11.59 6.517-16.291-4.841-12.102-19.271-5.725-33.7 3.491-1.07.698-2.42 1.443-3.863 1.257-.559-.046-.698.466-.373 1.024.186.232 2.328 3.025 3.864 4.468.744.699 1.35 1.49 3.258.094.559-.42 1.723-1.118 3.212-1.909-2.095 10.52-3.724 22.389-3.584 28.579.093 3.352.978 8.1 3.537 9.59a73.9 73.9 0 0 1-3.491 2.234c-2.094 1.303-1.303 2.979.046 4.516 2.793 3.816 6.796 2.652 10.008.465 11.776-7.914 20.946-15.082 25.322-23.088 3.071-5.54.744-8.471-.839-10.473zm-8.331 5.957c-2.141 3.586-9.589 10.893-18.526 17.457-.605-7.402 2.142-16.852 3.072-30.303.326-4.19-.326-5.54-3.398-6.47a5.903 5.903 0 0 0-.465-.14c3.211-1.443 7.168-3.026 11.078-4.097 3.025-.838 4.98-.232 2.56 4.608-2.28 4.516-5.539 7.959-8.657 11.731-1.676 2-1.583 2.559-.093 4.561.326.42.652.838 1.071 1.211 1.35 1.117 2.28.791 3.77.186 2.188-.977 5.26-2.281 7.68-2.42 2.373-.141 2.606 2.42 1.908 3.676zM163.119 86.794c-.465 3.026-.977 6.284-1.303 9.356-.141 1.584-.512 3.072-2.188 3.26-1.256.139-2.42.092-3.631-.047-1.211-.141-1.814-.42-1.77-2.375.047-1.955.279-3.863.373-5.771-1.443 2.886-3.584 6.238-5.354 8.1-1.396 1.488-2.885 2.047-5.678 1.814-2.514-.232-3.119-1.535-3.91-2.605-3.631-5.074 0-24.81 4.562-31.466 1.023-1.49 1.953-2.188 3.863-1.769 3.258.744 7.074 3.072 6.795 6.376-.094 1.21-.094 2.42-1.023 3.724-.605.791-2.281 1.489-2.42-.466-.094-.884-.047-1.862.045-2.746.094-.698-.512-.838-.791-.187-2.746 6.191-4.422 20.388-4.049 22.854.279 2.002 1.164 2.094 2.047.605 2.422-3.91 5.773-8.797 7.309-14.849.559-2.933 2.234-20.248 2.607-28.626.045-1.675.371-2.188 1.768-2.001 1.863.187 3.631.651 5.26 1.396 1.164.512 1.816.791 1.584 2.653-.094.745-2.328 15.407-2.422 17.688 1.258-1.722 8.006-10.706 8.1-10.799.559-.605.791-.651 1.908-.046.094.046 2.654 1.49 3.025 1.955.699.745 1.07 1.443-.047 2.374-6.377 4.841-12.055 12.103-13.451 13.918 12.893 4.329 13.172 16.245 10.193 19.969-.744.93-1.256.744-.977-.791 1.073-6.889-6.05-10.38-10.425-11.498zM125.975 76.322c-1.488 8.751-3.723 21.831-1.721 29.231.324 1.117.418 1.537-.699 1.908-.977.326-2.141.234-3.258.234-1.025 0-2.002-.188-2.979-1.723-1.211-1.861-1.631-6.238-1.258-9.496 0-.326-.139-.419-.232-.094-.186.559-2.607 8.564-4.748 11.312-.838 1.07-.932 1.396-2.467 1.629-1.023.139-3.725.092-4.049.092-1.211-.092-1.584-.744-1.723-1.908-1.164-9.309 1.396-19.083 2.047-29.464.234-1.21.605-1.21 1.91-.931 1.721.419 3.49.792 5.072 1.63 1.396.791 1.584 1.21 1.258 3.49-.791 5.354-2.375 15.501-2.422 16.105-.092 1.863.094 2.143.979 0 .232-.559 4.469-9.774 5.119-12.055.559-3.631 1.35-10.985 1.631-12.242.139-.652.139-.931 1.209-1.071 1.117-.14 4.98 1.21 5.586 1.676.559.466.838 1.072.745 1.677z" fill="#28539c"/><path d="M97.441 84.747c.047.047.094.047.141.047 1.209.186 2.373.465 3.49.978 1.211.558 1.908 1.396 1.582 3.305-.324 1.908-4.143 20.061-3.629 28.301 0 .371 0 .93.512.324.605-.697 1.117-1.303 1.676-1.908.559-.604 1.256-.418.838.559-.42.979-2.793 9.311-3.025 10.287-.279 1.396-.373 1.676-1.676 1.955-1.583.279-3.678.188-4.842-.279-1.024-.371-1.256-.93-1.303-2.141-.093-1.77-.14-3.537-.233-5.307-.093-4.375.28-8.471.465-12.707-.698 2.141-3.584 7.4-3.677 7.541-.698 1.209-1.117 1.396-2.653 1.488a11.091 11.091 0 0 1-2.793-.232c-.931-.186-2.095-.977-2.653-2.652-1.442-4.422-2.141-24.112 10.334-34.864 1.303-1.164 2.234-1.024 3.816-.326 1.304.559 4.562 2.979 5.027 4.003.467.884.094 1.117-.838 1.35-5.073 1.304-10.659 14.57-11.078 23.134-.047 1.861.372 2.979 1.629.697 3.491-6.33 6.424-15.918 7.681-22.761.139-.885.512-.932 1.209-.792z" fill="#28539c"/><path d="M79.754 90.984c-.279 1.257-1.164.978-1.396.466-.093-.326-.326-1.024-.466-1.304-.14-.372-.373-.559-.838-.232-1.489 1.07-3.631 4.049-4.562 6.144-1.024 2.235-.884 4.003.233 5.679 2.42 3.631 5.306 6.609 5.167 11.637-.186 4.842-4.794 10.008-9.682 9.822-1.117-.047-4.05-1.305-4.934-2.701-.373-.604-.419-.791.373-1.303 2.653-1.723 4.654-6.145 4.794-8.426.279-6.004-5.026-9.168-4.748-15.22.233-3.863 4.515-9.774 8.006-11.962 1.443-.884 2.7-1.21 4.329-.139 2.374 1.488 4.329 4.513 3.724 7.539zM137.752 72.97c-.559 4.608-4.701 24.206-3.258 29.836.324 1.211.186 1.908-1.396 2.328-.652.186-3.305.326-4.004.186-1.117-.232-2.094-1.023-2.326-2.561-1.955-11.869 3.584-31 2.699-33.094-.512-1.117.326-1.723 1.861-1.629.838.046 3.537.465 4.654.884 2.329.839 2.049 1.863 1.77 4.05zm1.582-15.5c-1.303-.791-3.584-1.676-5.445-2.42-1.908-.745-2.096.373-2.42 1.675-.188.652-.932 2.467-.979 3.352-.139 2.514 1.303 4.608 4.004 4.841 3.676.326 5.678-1.536 6.236-3.724.465-1.769.141-2.793-1.396-3.724zM60.81 120.914c.046 1.256-.279 1.582-1.164 1.814-1.769.514-3.724.373-5.399-.139-1.164-.326-1.676-.932-1.862-2.281-1.024-7.354.698-23.926.885-28.766-.14-1.257.14-2.793-.233-3.491-.326-.698.14-.931.792-.931 2.467-.093 4.841.047 7.075.791 1.071.326 1.583.605 1.35 2.095-.281 1.49-1.817 23.973-1.444 30.908zm3.63-41.939c0-1.49.093-1.676-1.164-2.234-2.188-.931-6.284-1.722-6.61-1.769-1.21-.233-1.536.326-1.769 1.023a12.284 12.284 0 0 0-.651 2.886c-.14 2.42.279 6.098 4.329 6.284 2.56.14 4.003-.651 4.934-2.606.605-1.164.931-3.025.931-3.584zM107.496 117.283l-.094-.418.838-.188 1.305 4.609-.885.232-.279-1.117c-.232.047-.42.092-.605.139s-.42.094-.652.141l-.279 1.209-.744.188 1.395-4.795zm-.141 2.699c.141-.047.281-.047.42-.092.186-.047.326-.094.465-.141l-.371-1.629h-.047l-.467 1.862zM110.242 121.146c.047-.279.047-.559.094-.838l.092-3.305v-.791l.838-.186c-.045.279-.045.557-.045.791l-.141 3.49c.42-.094 1.117-.232 1.723-.465l-.047.744-2.514.56zM113.641 120.402c0-.279.047-.559.047-.838l.092-3.305v-.791l.838-.188c-.047.279-.047.559-.047.791l-.139 3.492c.42-.094 1.164-.232 1.723-.467l-.047.746-2.467.56zM116.852 117.609l1.49-.373-.047.744-1.443.327v-.698zM119.924 118.959c0-.279.047-.559.047-.791l.094-3.305c0-.279.045-.559 0-.838l1.441-.279c.793-.188 1.352.186 1.305 1.117 0 1.209-.885 1.676-1.77 1.861-.092 0-.186.047-.279.047l-.047 1.209v.793l-.791.186zm.885-2.84c.094 0 .186 0 .279-.047.512-.092.885-.465.932-1.023 0-.65-.373-.744-.838-.605-.141 0-.232.047-.326.094l-.047 1.581zM126.395 115.793c-.047 1.117-.279 1.908-1.443 2.143-1.164.279-1.35-.373-1.303-1.537l.092-2.373v-.791l.793-.188-.094 3.213c-.047.559-.047 1.164.559 1.023.652-.139.697-.791.697-1.303l.141-3.213.697-.186c-.045.279-.045.559-.045.838l-.094 2.374zM127.418 117.283c.047-.279.047-.559.047-.791l.141-3.352v-.791l1.395-.326c.793-.141 1.396.186 1.352 1.07-.047.652-.373 1.117-.838 1.396l.838 2.141-.885.188-.699-2.049c-.092 0-.139.047-.186.047-.141.047-.186.047-.279.047l-.047 1.443v.791l-.839.186zm.885-3.072h.326c.512-.139.885-.418.885-.93.045-.561-.373-.652-.838-.561-.094.047-.188.094-.326.141l-.047 1.35zM131.234 116.445c.047-.279.047-.559.047-.838l.141-3.305v-.791l1.396-.326c.791-.186 1.396.186 1.35 1.164-.047 1.164-.885 1.629-1.77 1.814-.092.047-.186.047-.279.047l-.047 1.211c0 .279-.047.559 0 .838l-.838.186zm.885-2.886h.326c.512-.139.885-.465.885-1.023 0-.652-.373-.744-.838-.652-.094.047-.186.047-.326.094l-.047 1.581zM134.865 113.188c.047-1.305.605-2.699 1.723-2.934 1.07-.232 1.582.932 1.535 2.189-.045 1.256-.65 2.699-1.721 2.932s-1.584-.932-1.537-2.187zm1.537 1.535c.604-.139.838-1.256.885-2.094.045-.979-.141-1.863-.746-1.77-.605.141-.791 1.164-.838 2.141-.047.793.141 1.863.699 1.723zM141.195 110.254c-.186-.092-.465-.324-.838-.232-.371.094-.604.373-.604.744-.047.838 1.814.326 1.768 1.816-.047 1.07-.791 1.816-1.723 2.049-.324.045-.65.045-.93-.047v-1.025c.326.234.652.467 1.164.373.279-.047.697-.373.697-.885.047-1.07-1.814-.559-1.77-1.814 0-.744.605-1.676 1.631-1.861.186-.047.418-.047.604-.047v.929h.001zM142.312 113.932c.047-.232.047-.512.047-.791l.094-3.305c0-.279.047-.559 0-.791l2.514-.605v.744c-.465.047-1.258.188-1.723.279l-.047 1.49c.42-.094.885-.232 1.164-.326l-.047.744c-.279 0-.744.094-1.117.188l-.092 1.582a12.795 12.795 0 0 0 1.768-.512v.744l-2.561.559zM147.619 112.768c.047-.279.047-.559.047-.838l.141-3.305v-.791l.838-.186c.744-.188 1.908-.42 1.861.838 0 .65-.512.977-.746 1.162.234.047.885.141.838 1.072-.045 1.117-.838 1.582-1.441 1.676l-1.538.372zm.838-.791c.141-.047.279-.047.42-.094.465-.092.883-.418.883-.977.047-.697-.512-.791-.883-.697-.141.045-.279.045-.373.092l-.047 1.676zm.047-2.329c.094-.045.186-.045.279-.045.512-.141.885-.42.932-.932 0-.559-.373-.605-.838-.512a.677.677 0 0 1-.326.094l-.047 1.395zM152.553 107.182l-.139-.371.885-.232 1.256 4.607-.885.232-.279-1.117c-.186.047-.371.094-.604.141-.188.047-.42.092-.605.139l-.279 1.211-.791.186 1.441-4.796zm-.186 2.701c.141 0 .279-.047.465-.094.141-.047.279-.047.42-.141l-.373-1.629h-.047l-.465 1.864zM155.301 111.047c.045-.281.045-.559.045-.838l.094-3.307c0-.279.047-.512 0-.791l.838-.186c-.047.279-.047.559-.047.838l-.047 1.35.652-1.211c.465-.883.791-1.256 1.35-1.395l-.047.744c-.512.186-.512.326-.977 1.117l1.164 2.979-.885.186-.791-2.188-.512.979v.744c-.047.232-.047.512-.047.791l-.79.188zM159.117 110.162c.047-.279.047-.514.047-.791l.139-3.307v-.836l.791-.188c0 .279 0 .559-.047.838l-.092 3.305v.791l-.838.188zM161.072 109.742c.047-.279.047-.559.047-.838l.139-3.305v-.791l.699-.141 1.303 2.701.047-2.234a2.232 2.232 0 0 0 0-.791l.744-.141c-.047.232-.047.512-.047.791l-.094 3.305c0 .279-.045.559 0 .793l-.604.139-1.396-3.025-.094 2.561v.791l-.744.185zM167.961 105.832c0 .42 0 .791-.047 1.07v1.025c-.139.092-.512.512-1.211.65-.883.188-1.814-.324-1.768-2.141.047-1.629 1.256-2.84 2.281-3.072.232-.047.418-.047.604-.047l-.045 1.072c-.234-.188-.467-.42-.746-.326-.791.139-1.209 1.164-1.256 2.188-.047 1.117.326 1.814.977 1.676.141 0 .232-.047.326-.094.047-.326.047-.605.094-.885v-.93l.791-.186zM170.801 107.555c.045-.279.045-.512.092-.838l.094-3.305v-.791l1.117-.232.605 2.514.838-2.84 1.023-.232c-.047.279-.047.559-.094.838l-.092 3.305v.791l-.746.186c.047-.279.047-.559.047-.838l.094-3.072-.979 3.307-.465.092-.697-2.932-.141 3.072v.838l-.696.137zM175.547 106.484c.047-.279.047-.559.047-.791l.141-3.305v-.838l.791-.188c0 .279-.047.559-.047.838l-.094 3.307c0 .277-.045.557 0 .791l-.838.186zM177.131 106.158c.326-.697.65-1.35.93-2.047l.373-.746-.418-.791c-.188-.465-.42-.932-.652-1.396l.932-.186c.092.371.279.697.418 1.07l.186.326.188-.467c.186-.371.324-.791.465-1.209l.838-.186c-.279.512-.512 1.07-.791 1.582l-.42.93.42.838c.232.514.512 1.025.791 1.537l-.932.186-.418-.977-.279-.605-.326.744c-.186.373-.326.791-.465 1.211l-.84.186zM63.742 129.061c.047-1.258.652-2.701 1.723-2.934 1.07-.232 1.583.932 1.583 2.188-.046 1.258-.652 2.701-1.722 2.934-1.118.278-1.631-.933-1.584-2.188zm1.583 1.582c.605-.141.838-1.303.884-2.143 0-.93-.186-1.861-.745-1.721-.605.139-.838 1.117-.885 2.094.001.838.14 1.908.746 1.77zM67.792 130.596c.046-.279.046-.559.093-.791l.094-3.305v-.838l1.396-.326c.838-.139 1.396.186 1.35 1.07 0 .652-.326 1.117-.838 1.396l.884 2.141-.884.188-.745-2.049c-.046.047-.14.047-.186.047-.139.047-.186.047-.279.047l-.046 1.441v.793l-.839.186zm.93-3.073h.279c.512-.139.885-.418.885-.932.046-.559-.373-.65-.838-.559l-.279.141-.047 1.35zM71.562 129.758c.046-.279.046-.559.046-.791l.093-3.352a2.232 2.232 0 0 0 0-.791l.838-.188c0 .279 0 .561-.046.838l-.093 3.307v.791l-.838.186zM76.449 126.312c-.046.42-.046.793-.093 1.072v1.023c-.093.092-.512.512-1.21.652-.885.186-1.862-.326-1.769-2.143.046-1.629 1.257-2.838 2.28-3.072.187-.047.419-.047.605-.047l-.047 1.072c-.232-.188-.465-.42-.791-.326-.745.139-1.21 1.209-1.21 2.188-.047 1.117.325 1.814.977 1.676.14 0 .233-.047.373-.094 0-.326 0-.605.046-.885v-.93l.839-.186zM77.194 128.5c.047-.277.047-.557.047-.836l.093-3.305a2.244 2.244 0 0 0 0-.793l.838-.186c-.046.279-.046.559-.046.838l-.093 3.305v.791l-.839.186zM79.056 128.082c.046-.279.046-.559.046-.838l.14-3.305v-.791l.698-.141 1.304 2.701.093-2.234v-.793l.698-.186c0 .279 0 .559-.046.838l-.093 3.305v.791l-.559.141-1.443-3.025-.093 2.561v.838l-.745.138zM83.99 122.496l-.14-.371.885-.188 1.303 4.609-.884.186-.279-1.07c-.232 0-.419.047-.605.092a3.377 3.377 0 0 0-.651.188l-.279 1.209-.792.141 1.442-4.796zm-.186 2.701c.14 0 .326-.047.465-.094.14 0 .326-.047.466-.094l-.419-1.676-.512 1.864zM86.689 126.406c0-.279 0-.559.046-.838l.093-3.305v-.791l.838-.186c-.046.232-.046.512-.093.791l-.093 3.49a20.09 20.09 0 0 0 1.722-.465l-.046.697-2.467.607z" fill="#28539c"/><path d="M179.225 96.616c0 1.489 1.211 2.468 2.514 2.468 1.35 0 2.514-.979 2.514-2.468s-1.164-2.42-2.514-2.42c-1.303 0-2.514.931-2.514 2.42zm.699 0c0-1.117.791-1.908 1.814-1.908s1.861.791 1.861 1.908c0 1.118-.838 1.909-1.861 1.909s-1.814-.791-1.814-1.909zm.885 1.351h.512v-1.164h.324l.699 1.164h.559l-.744-1.164c.418-.047.744-.232.744-.745 0-.605-.42-.838-1.07-.838h-1.023v2.747h-.001zm.511-2.282h.465c.232 0 .559.047.559.327 0 .325-.232.371-.512.371h-.512v-.698z"/></g></svg>