<svg xmlns="http://www.w3.org/2000/svg" width="2500" height="2500" viewBox="0 0 192.756 192.756"><g fill-rule="evenodd" clip-rule="evenodd"><path fill="#fff" d="M0 0h192.756v192.756H0V0z"/><path d="M156.92 90.016c-.738-1.46-2.695-1.942-4.865-1.46-1.635.375-3.402 1.34-4.822 2.867-2.225 2.386-3.512 5.495-3.779 8.012a9.496 9.496 0 0 0 0 1.77c.107.883.375 1.635.832 2.143 1.445 1.662 4.447 1.902 7.609.242l-.268.67H156.022l7.529-20.312h-4.367l-2.264 6.068zm-.014-.013l.027.027-.027-.027zm-1.26 2.064c-.645-.965-2.145-.965-3.592-.188a6.043 6.043 0 0 0-1.982 1.822c-1.822 2.626-2.439 6.752-1.475 7.691.617.617 2.01.643 3.457-.107a5.23 5.23 0 0 0 .885-.537l3.002-8.091c-.054-.189-.162-.376-.295-.59zm-19.802 12.058c-3.162 1.207-6.434.885-8.174-.885a3.759 3.759 0 0 1-.562-.75c-.938-1.555-.885-3.832 0-6.109a12.718 12.718 0 0 1 3.402-4.904c1.635-1.447 3.51-2.358 5.334-2.761 2.625-.588 5.145-.107 6.619 1.395.588.589.91 1.393.99 2.304v1.206c-.107 1.206-.482 2.519-1.018 3.778l-.08.135h-10.908c-.4.992-.482 2.412.135 3.377.535.803 2.412 1.152 4.262.777.99-.215 1.955-.617 2.76-1.26.482-.402.91-.83 1.285-1.26l1.26.938a9.591 9.591 0 0 1-1.473 1.689 12.528 12.528 0 0 1-3.832 2.33zm0-9.513h2.76c.482-.884.588-1.768.133-2.385-.535-.75-1.688-.884-2.893-.429a4.978 4.978 0 0 0-1.422.778c-.75.669-1.367 1.393-1.74 2.036h3.162zm-8.737-.294v-.054.054zm0-.027c.4-1.099.777-2.305.615-3.458a2.151 2.151 0 0 0-.615-1.232c-.805-.75-2.117-.911-3.217-.911-1.525 0-3.082.724-4.447 1.608l-.697.563c-.295-1.85-2.357-2.171-3.885-2.171-1.529 0-3.082.724-4.449 1.608l.482-1.312h-4.234l-4.447 12.327-1.072 2.947h4.234l3.859-10.639c.615-1.769 3.107-2.545 4.26-2.037.67.322.723 1.635.51 2.225l-3.779 10.451h4.26l3.592-9.996c.107-.321.242-.67.375-.965.805-1.555 3.002-2.198 4.072-1.715.672.322.725 1.635.51 2.225l-3.777 10.451h4.262l3.588-9.969zm-29.181 1.77h5.332l-.885 2.383h-5.331l.482-1.312.402-1.071zm-11.47-2.789l-1.286-.643c.644-.831 1.394-1.661 2.277-2.358a7.388 7.388 0 0 1 1.849-1.152c2.867-1.366 6.217-1.098 7.933.911.107.135.213.268.295.402.615.991.588 2.063.295 3.242-.082.375-.188.777-.295 1.152-.053.241-.162.509-.242.777l-3.188 8.656h-4.368l.455-1.205c-.295.186-.589.373-.884.535-2.787 1.5-5.734 1.447-7.021-.295-.054-.08-.106-.188-.161-.268-.562-.992-.509-2.332 0-3.699.562-1.393 1.634-2.812 3.108-3.858 1.259-.884 2.707-1.42 4.073-1.582 1.554-.187 3.001.108 3.886.938.456-1.34.402-2.572-.429-3.323-.804-.696-2.144-.75-3.457-.241-.964.349-1.929.992-2.733 1.903-.027.028-.054.082-.107.108zm5.654 4.154c.053.027.081.082.107.135l-1.098 2.947a2.258 2.258 0 0 1-.482.375 4.966 4.966 0 0 1-1.34.697c-1.125.348-2.17.188-2.68-.457-.697-.938 0-2.652 1.447-3.615.375-.27.804-.457 1.233-.59 1.151-.35 2.304-.189 2.813.508zm-9.593-1.365l-.402 1.098-.482 1.285h-5.359l.911-2.383h5.332zm-8.388-6.031l2.278-6.083h4.368l-2.25 6.056-4.396.027zm4.395-.027l-5.307 14.257H68.85l.241-.67c-3.136 1.66-6.137 1.42-7.584-.242a1.858 1.858 0 0 1-.268-.375c-.832-1.34-.805-3.645 0-6.082a15.253 15.253 0 0 1 3.188-5.467c1.42-1.527 3.189-2.492 4.85-2.867 2.171-.482 4.127 0 4.851 1.447h4.396v-.001zm-4.395 0v.027-.027zm-1.287 2.064c-.616-.965-2.144-.965-3.564-.161a5.46 5.46 0 0 0-1.983 1.795c-1.849 2.626-2.466 6.752-1.5 7.691.643.617 2.009.643 3.483-.107.295-.135.59-.322.884-.537l3.002-8.091a4.246 4.246 0 0 0-.322-.59zm-11.643 2.09c.388-1.125.737-2.251.576-3.323-.08-.482-.268-.857-.535-1.125-.805-.858-2.251-1.019-3.403-1.019-1.581 0-3.188.724-4.583 1.608l.483-1.312h-4.368l-4.556 12.245-1.125 3.029h4.368l3.966-10.639c.671-1.769 3.216-2.545 4.395-2.037.697.322.75 1.635.536 2.225l-3.885 10.451h4.368l3.763-10.103zm.041-.108c-.028.08-.054.134-.081.215l.081-.215zm-16.428 3.484H33.906c-.375.992-.456 2.412.161 3.377.536.803 2.385 1.152 4.261.777.965-.215 1.957-.617 2.733-1.26.482-.402.938-.83 1.313-1.26l1.259.938c-.429.59-.884 1.152-1.473 1.689a12.497 12.497 0 0 1-3.833 2.33c-2.707 1.02-5.466.938-7.289-.188a3.276 3.276 0 0 1-.884-.697c-2.01-2.035-1.501-6.189.884-9.566a12.57 12.57 0 0 1 1.957-2.197c1.635-1.447 3.51-2.358 5.332-2.761 2.572-.562 5.119-.025 6.592 1.395 1.582 1.582 1.099 4.637-.107 7.423zm-3.59-5.306c-.563-.75-1.688-.884-2.895-.429a4.942 4.942 0 0 0-1.42.778c-.75.669-1.367 1.393-1.742 2.036h5.922c.456-.884.564-1.768.135-2.385zM21.231 104.26l1.179-3.217 6.351-17.096h4.367l-2.09 5.708L25.6 104.26h-4.369zm1.18-14.23c1.768 1.769 1.474 5.038 0 8.121a15.682 15.682 0 0 1-2.359 3.59c-1.473 1.688-3.323 2.732-5.171 3.109-.804.16-1.635.213-2.412.107-1.019-.107-2.01-.484-2.626-1.207l-.214.51H5.26l7.557-20.312h4.367l-2.304 6.189-.187.563 7.718-.67zm-10.157 12.273c.911.107 1.795-.133 2.626-.67.616-.375 1.18-.885 1.742-1.527 1.983-2.357 3.135-6.591 1.607-7.771-.858-.697-2.117-.403-3.35.348a9.474 9.474 0 0 0-1.34 1.045l-2.68 7.235c.189.725.752 1.26 1.395 1.34zm10.157-12.3c-1.796-1.795-4.905-1.179-7.53.536-.054.054-.134.108-.188.161l7.718-.697zm0 0v.027-.027zM154.145 86.52v-2.225h-.803V84h2.062v.295h-.83v2.225h-.429zM152.109 84h-.135l-1.555 2.52h.455l.402-.617h1.529l.373.617h.457L152.109 84zm-.67 1.608l.588-1.018.59 1.018h-1.178zm-1.527.912v-2.225h.83V84h-2.09v.295h.83v2.225h.43zm-6.057-1.072h-.162v1.072h-.428V84h.643c.107 0 .188 0 .295.027.242.027.43.081.59.161.188.134.295.295.295.536a.592.592 0 0 1-.188.456c-.16.134-.35.215-.615.241l1.07 1.099h-.508l-.645-.697-.347-.375zm-.162-.242v-.911h.135c.133 0 .268 0 .375.027.322.054.51.187.51.429 0 .214-.188.375-.51.429-.107 0-.215.026-.348.026h-.162zm2.95-.616c0-.161.08-.322.268-.456.213-.107.428-.187.723-.187.375 0 .645.133.857.375l-.348.161a.625.625 0 0 0-.51-.242c-.16 0-.295.027-.4.107-.135.081-.189.161-.189.242 0 .107.055.161.162.241.08.054.24.107.455.161.348.106.562.214.723.321a.667.667 0 0 1 .215.483c0 .214-.107.401-.32.563a1.319 1.319 0 0 1-.75.214c-.27 0-.484-.053-.672-.161a.937.937 0 0 1-.373-.536l.4-.08c.027.16.08.268.215.349.107.106.268.133.455.133a.76.76 0 0 0 .43-.133c.133-.107.188-.215.188-.349a.374.374 0 0 0-.162-.295c-.105-.081-.268-.134-.48-.214-.322-.082-.537-.189-.672-.295a.44.44 0 0 1-.215-.402zm-1.02 1.93h.402V84h-.402v2.52zm-3.08-1.26c0-.857-.645-1.312-1.582-1.312-.965 0-1.607.456-1.607 1.312 0 .885.643 1.313 1.607 1.313.937 0 1.582-.428 1.582-1.313zm-1.582 1.018c.537 0 1.205-.322 1.205-1.019s-.668-1.019-1.205-1.019c-.562 0-1.232.322-1.232 1.019s.669 1.019 1.232 1.019zm-2.412.081c-.213.161-.482.214-.83.214s-.643-.081-.885-.268a.853.853 0 0 1-.348-.697V84h.428v1.582c0 .214.08.401.215.508.135.134.348.188.59.188.562 0 .83-.241.83-.696V84h.402v2.519h-.402v-.16zm-2.17.161h-1.742V84h.402v2.224h1.34v.296zm-3.805 0V84h1.635v.295h-1.207v.697h1.18v.295h-1.18v1.232h-.428v.001z"/><path d="M156.182 85.448v-1.045h.375c.107 0 .188.026.268.054a.277.277 0 0 1 .135.241c0 .081-.025.134-.107.188-.053.053-.133.081-.24.107l.455.456h-.215l-.428-.456h-.082v.456h-.161v-.001zm.16-.563v-.375h.215c.162.027.242.081.242.188 0 .106-.08.161-.242.188l-.215-.001zm1.072.08c0-.456-.375-.857-.857-.857s-.857.375-.857.857c0 .456.375.857.857.857.482-.026.857-.401.857-.857zm.135 0c0 .536-.43.991-.992 1.005-.562.013-1.018-.442-1.018-1.005s.455-1.018 1.018-1.018c.562.027.992.456.992 1.018z"/><path fill="#cc2229" d="M3.938 106.209h153.656l8.416-22.673h23.912l-9.522 25.685H2.834l1.104-3.012z"/><path d="M174.041 96.453c2.037-.24 4.502-1.072 5.412-3.376.135-.428.215-.777.215-1.098v-.028c.027-1.956-2.492-2.357-4.314-2.357h-.025c-.375 0-.805.026-1.287.08-2.01.215-4.529 1.019-5.412 3.403-.992 2.894 2.01 3.431 4.152 3.457.374-.001.804-.026 1.259-.081zm0-.16c1.957-.188 4.369-.965 5.252-3.216 1.018-2.787-1.822-3.322-4.02-3.322-.375 0-.803.026-1.232.053-2.037.188-4.395.965-5.252 3.269-.992 2.76 2.01 3.296 4.047 3.296.375 0 .775-.026 1.205-.08zM169.752 97.311l-.611 1.85-1.258 3.402c-.43 1.125-1.234 1.689-2.68 1.689-1.422 0-1.822-.564-1.422-1.689l1.957-5.252h4.014zM174.564 97.359l-.611 1.848-1.258 3.404c-.43 1.125-1.234 1.688-2.682 1.688-1.42 0-1.82-.562-1.42-1.688l1.957-5.252h4.014zM179.436 97.311l-.611 1.85-1.26 3.402c-.43 1.125-1.232 1.689-2.68 1.689-1.422 0-1.822-.564-1.422-1.689l1.957-5.252h4.016z" fill="#fff"/><path d="M172.246 94.953l.135-.375h.43l.133-.348h-1.259l-.133.348h.428l-.32.831h.4l.186-.456zm0 .428l.215-.643h.43c.107-.214.188-.456.268-.669h-1.582c-.08.214-.16.455-.24.669h.428l-.32.832h.723l.078-.189zM174.336 94.176c.162.081.375.134.59.107v.054c-.215 0-.428 0-.59-.027-.053-.027-.105-.027-.133-.053-.188.24-.43.455-.723.482-.295.054-.482 0-.402-.161.08-.188.24-.188.402-.16.508.133.615-.188.615-.188-.295-.134-.482-.402-.215-.831a.582.582 0 0 1 .455-.295.77.77 0 0 1 .43 0c.455-.75 1.18-1.742 1.955-1.26-.025.054-.053.106-.078.161 0 0-.215-.295-.672-.107-.4.188-.83.75-1.07 1.233.348.161.482.402.482.777.188-.349.375-1.206.588-1.474.162-.241.35-.375.35-.375s.08-.027.027.054c-.162.241-.322.589-.35 1.125-.027.375-.643 1.152-1.072 1.42h.402v.134h-.777l.027-.134s.215.081.402-.134c.24-.268.482-.776.053-1.099-.107-.08-.133-.08-.24-.133-.135.214-.322.536-.457.777-.025.027-.053.054-.053.08.001-.001.029.027.054.027zm0-.348l.322-.563c-.107 0-.215 0-.322.027a.351.351 0 0 0-.213.188c-.215.349-.107.482.053.59l.16-.242zM175.812 94.497c.133.027.402.242.643-.054.242-.294.455-1.125.67-1.58.16-.349.43-.643.562-.777.055-.027.08-.054.055.027 0 0-.135.241-.215.482-.107.268-.27 1.018-.402 1.232-.08.187-.482.723-.885.884-.16.081-.857.215-.67-.134.055-.08.188-.08.242-.08z" fill="#fff"/><path d="M176.51 93.292s.053-.938.748-1.26c.322-.16.805-.215 1.02.081.295.348-.16 1.339-.535 1.286-.322-.027.025-.536.16-.644l-.027-.08c-.402.401-.643 1.018-.027.991.107 0 .59-.268.75-.911.189-.643-.16-1.071-.883-1.018-1.1.106-1.312 1.286-1.287 1.58l.081-.025zM171.738 92.354c.025 0 .08-.027.107-.027.295 0 .668.322.59.724h1.098c.027-.053.027-.081.053-.134.377-1.018-.133-1.848-1.15-1.848-.215 0-.457.053-.697.133-.777.268-1.502.939-1.795 1.715-.43 1.072.053 1.876 1.15 1.822h.162c.08-.214.16-.456.24-.669-.322 0-.615-.107-.723-.268a.667.667 0 0 1-.055-.644c.163-.403.591-.778 1.02-.804zm0-.161h.16c.375 0 .723.294.697.696h.857c.293-.911-.162-1.661-1.072-1.661-.215 0-.43.053-.643.107-.697.241-1.367.858-1.635 1.581-.402.965.025 1.715 1.045 1.662l.133-.348c-.32-.054-.59-.188-.668-.348a.822.822 0 0 1-.055-.724c.189-.483.699-.885 1.181-.965zM168.318 86.292c-.045.117-.023.204.033.204.062 0 .145-.087.188-.204.045-.117.025-.201-.037-.201s-.147.097-.184.201zM169.59 86.292c-.043.117-.023.204.033.204.062 0 .145-.087.189-.204.043-.117.023-.201-.039-.201s-.144.097-.183.201zM170.816 86.292c-.043.117-.021.204.035.204.062 0 .145-.087.188-.204s.025-.201-.037-.201-.147.097-.186.201zM172.145 86.292c-.043.117-.023.204.033.204.062 0 .145-.087.189-.204.043-.117.023-.201-.039-.201-.06 0-.144.097-.183.201zM173.611 86.292c-.045.117-.023.204.033.204.062 0 .145-.087.188-.204.045-.117.025-.201-.037-.201s-.147.097-.184.201zM175.295 86.292c-.043.117-.021.204.035.204.062 0 .145-.087.188-.204s.025-.201-.037-.201-.147.097-.186.201zM176.523 86.292c-.043.117-.023.204.033.204.062 0 .145-.087.189-.204.043-.117.025-.201-.037-.201s-.146.097-.185.201zM177.914 86.292c-.043.117-.021.204.035.204.062 0 .145-.087.188-.204s.025-.201-.037-.201-.147.097-.186.201zM179.361 86.292c-.045.117-.023.204.033.204.062 0 .145-.087.188-.204.045-.117.025-.201-.037-.201s-.147.097-.184.201zM180.828 86.292c-.045.117-.023.204.033.204.062 0 .145-.087.188-.204.045-.117.025-.201-.037-.201s-.147.097-.184.201zM182.197 86.292c-.045.117-.023.204.033.204.062 0 .145-.087.188-.204.045-.117.025-.201-.037-.201s-.147.097-.184.201zM183.434 86.292c-.043.117-.023.204.033.204.062 0 .145-.087.189-.204.043-.117.023-.201-.037-.201-.062 0-.146.097-.185.201zM184.824 86.292c-.043.117-.021.204.035.204.062 0 .145-.087.188-.204s.025-.201-.037-.201-.147.097-.186.201z" fill="#fff"/><path d="M170.912 88.004h10.51c2.152 0 3.305 1.65 2.562 3.667l-3.99 10.834c-.742 2.018-3.111 3.668-5.262 3.668h-10.51c-2.152 0-3.305-1.65-2.562-3.668l3.99-10.834c.743-2.016 3.11-3.667 5.262-3.667zm-.488.488l11.229.062c1.588.009 2.422 1.254 1.855 2.767l-4.355 11.63c-.566 1.514-2.33 2.744-3.916 2.736l-11.229-.062c-1.588-.01-2.424-1.254-1.855-2.768l4.355-11.63c.566-1.513 2.328-2.744 3.916-2.735z" fill="#fff"/></g></svg>