<svg xmlns="http://www.w3.org/2000/svg" width="2500" height="2052" viewBox="0 0 38.568 31.654"><path d="M13.518 15.473a.895.895 0 1 1 .897.896.897.897 0 0 1-.897-.896zm1.648 0a.724.724 0 0 0-.75-.75c-.438 0-.754.314-.754.75 0 .44.315.754.754.754.435 0 .75-.314.75-.754zm-.955.507h-.131v-1.024h.44c.267 0 .357.1.357.283 0 .197-.137.271-.316.286l.304.455h-.147l-.288-.455h-.219v.455zm.181-.574c.143 0 .342.024.342-.168 0-.143-.119-.162-.243-.162h-.28v.331h.181M29.175 15.473a.895.895 0 1 1 .896.896.897.897 0 0 1-.896-.896zm1.648 0a.724.724 0 0 0-.751-.75.725.725 0 0 0-.753.75c0 .44.315.754.753.754a.726.726 0 0 0 .751-.754zm-.955.507h-.131v-1.024h.44c.267 0 .357.1.357.283 0 .197-.137.271-.316.286l.304.455h-.147l-.288-.455h-.22v.455zm.181-.574c.143 0 .342.024.342-.168 0-.143-.119-.162-.243-.162h-.281v.331h.182M11.587 16.297v-4.468h4.468V4.685h-4.468V.218H4.468v4.467H0v7.144h4.468v4.468h7.119" fill="#00acec"/><path d="M3.909 6.715L6.871 7c.555.077.621.616.472.94l-2.028 3.81.002-.006a4.407 4.407 0 0 1-1.69-3.474c0-.547.1-1.072.282-1.556v.001M8.053 4.418c-.523 0-.685.591-.455.896.209.27.249.35.238.603-.009.214-.207.477-.654.486H4.041a4.414 4.414 0 0 1 4-2.546" fill="#fff"/><path d="M4.349 7.366l2.241.207c.162.012.174.082.137.174l-1.569 2.999a3.784 3.784 0 0 1-.917-2.477c0-.311.037-.613.108-.903M6.985 4.618c-.225.374-.043.859.169 1.089.039.041.02.082-.016.093H5.153a3.792 3.792 0 0 1 1.832-1.182" fill="#00acec"/><path d="M12.172 6.715L9.21 7c-.555.077-.621.616-.472.94l2.028 3.809-.003-.006a4.404 4.404 0 0 0 1.69-3.474c0-.547-.1-1.072-.282-1.556l.001.002M8.028 4.418c.523 0 .685.591.455.896-.209.27-.249.35-.238.603.009.214.207.476.654.485h3.142a4.415 4.415 0 0 0-4-2.546" fill="#fff"/><path d="M11.733 7.366l-2.242.207c-.162.012-.175.081-.137.174l1.57 2.999c.571-.665.916-1.53.916-2.477 0-.311-.037-.613-.107-.903M9.097 4.618c.224.374.042.859-.169 1.088-.04.042-.02.083.015.094h1.986a3.8 3.8 0 0 0-1.832-1.182" fill="#00acec"/><path d="M8.041 12.684c.897 0 1.73-.267 2.427-.727v.003L8.316 8.744c-.151-.207-.392-.224-.551 0L5.613 11.96v-.003c.697.46 1.531.727 2.428.727" fill="#fff"/><path d="M24.951 16.471c3.087-1.705 4.957-4.42 5.921-7.4 1-3.091.817-6.782-.34-9.062-1.763.889-3.519 1.367-5.581 1.373C22.89 1.388 21.132.889 19.37 0c-1.158 2.279-1.339 5.98-.339 9.071.964 2.98 2.835 5.695 5.92 7.4" fill="#00acec"/><path d="M24.948 15.09c2.54-1.573 3.894-3.827 4.76-6.372.769-2.26.957-4.903.111-6.967-1.269.436-2.013.571-2.703.679-.644.1-1.219.161-2.161.174h-.007a14.167 14.167 0 0 1-2.161-.174c-.69-.107-1.435-.243-2.704-.679-.846 2.063-.658 4.707.112 6.967.867 2.545 2.22 4.799 4.759 6.372h-.006" fill="#fff"/><path d="M24.949 14.465c1.718-1.081 3.666-3.532 4.443-6.758.415-1.712.529-3.635-.009-5.161-.77.205-1.487.375-2.229.475-.742.1-1.477.172-2.2.177h-.006a17.617 17.617 0 0 1-2.199-.177c-.743-.1-1.461-.27-2.23-.475-.538 1.526-.423 3.449-.009 5.161.778 3.226 2.726 5.678 4.443 6.758h-.004" fill="#00acec"/><path d="M25.337 8.604l.033-1.214s-.173-.073-.426-.089c-.333-.021-.471-.036-.471-.036l.005.104s-.179.044-.204.087c-.01.02-.045.047-.005.12.177.323.282.475.365.914.254.033.432.062.703.114" fill="#fff"/><path d="M23.419 8.409c-.035.556.377.892.959.987.624.09.995.133 1.163.171a.162.162 0 0 1 .095.115c.01.058 0 .088-.033.128-.036.045-.085.056-.085.056l-.018.667s.225-.01.443-.141c.206-.124.334-.283.38-.48.053-.23.016-.412-.146-.635-.108-.148-.296-.256-.487-.321-.287-.1-.829-.166-1.236-.223-.062-.008-.162-.047-.172-.138-.011-.103.114-.125.114-.125s-.029-.096-.081-.248a3.927 3.927 0 0 0-.206-.42c-.275.12-.666.235-.69.607" fill="#fff"/><path d="M25.303 9.74l-.021 1.102-.51-.26-.058-.908c.266.031.364.038.589.066" fill="#fff"/><path d="M23.952 10.347c-.164.388-.018.742.388.919.175.075.417.146.602.217.18.069.514.293.539.388.015.06-.038.105-.038.105l-.019.471s.173-.042.318-.16a.592.592 0 0 0 .232-.49c-.002-.256-.12-.411-.485-.625-.282-.166-.667-.32-.934-.438-.022-.01-.11-.064-.08-.161.015-.049.068-.068.068-.068l-.042-.551s-.143.043-.239.1c-.087.053-.249.151-.31.293" fill="#fff"/><path d="M25.265 11.96c.002-.039-.011-.043-.029-.07a1.014 1.014 0 0 0-.201-.158c-.083-.048-.262-.104-.262-.104s.028 1.189.05 1.822c.005.143.063.192.202.189.163-.004.197-.071.198-.159.004-.2.033-1.059.042-1.52M25.446 4.069c.061.044.062.057.082.147.041.197-.034.483.004.618.02.044.064.043.097.024.272-.146.456-.398.729-.516.13-.055.498.13.415.398-.039.126-.069.125-.153.201-.172.157-.4.319-.625.534-.143.137-.28.217-.383.381-.022.038-.076.141-.076.141-.381-.079-.771-.084-1.066-.146l-.015-.324s.381-.004.42-.234c.002-.012-.007-.081-.051-.113a.906.906 0 0 0-.192-.091c.288.045.543.152.839.282.019-.032-.03-.143-.052-.167-.04-.047-.088-.081-.191-.105-.18-.046-.616-.1-.616-.1l.368-.015c.092-.015.187-.051.208-.083.035-.079-.104-.204-.193-.324-.044-.06-.102-.176-.181-.248-.096-.115-.388-.224-.388-.224s-.024-.196.024-.291c.035-.071.191-.078.241-.054.218.124.464.258.755.309" fill="#fff"/><path d="M26.701 7.12c-.056-.29-.352-.563-.612-.697-.676-.348-1.415-.221-2.107-.445-.198-.065-.436-.158-.49-.384-.035-.144-.033-.286.071-.348.158-.093.276.056.53.114.16.038.333.034.458-.004.056-.017.134-.034.143-.076 0-.043-.092-.069-.124-.086-.079-.04-.145-.039-.23-.071-.139-.053-.287-.151-.428-.229.132-.028.354-.034.487-.018.106.011.432.008.53-.018.021-.006.07-.024.049-.061-.038-.064-.102-.087-.146-.146-.095-.129-.177-.264-.331-.323-.444-.17-.939-.213-1.38.016a1.274 1.274 0 0 0-.55 1.661c.239.49.696.74 1.235.877.263.067.491.105.777.136.328.035.618.05.935.13.068.017.183.066.215.135.057.124.023.271-.129.333-.004.277-.039.854-.039.854s1.365-.142 1.136-1.35zm-2.156-2.593a.207.207 0 0 0-.09-.012c-.057.041-.096.081-.159.091-.125.021-.106-.089-.193-.149-.053-.037-.103.01-.149-.076.182.005.456.006.591.146z" fill="#fff"/><path d="M7.978 9.471c.035-.045.083-.048.125 0l1.484 2.271a3.793 3.793 0 0 1-1.547.328 3.786 3.786 0 0 1-1.547-.328l1.485-2.271c.041-.048.09-.045.125 0" fill="#00acec"/><path d="M24.459 12.353c-.071.071-.225.219-.196.53.02.195.062.257.129.387.049.093.128.133.158.004.018-.079-.052-.15-.029-.315.025-.167.111-.2.111-.2l-.024-.52a.681.681 0 0 0-.149.114" fill="#fff"/><path d="M3.729 20.804h2.598c.262.006.551.019.82.138.499.242.511.734.511.839a.958.958 0 0 1-.282.695c-.308.321-.715.368-1.01.4.321.013.84.04 1.24.446.157.151.347.42.347.847 0 .301-.098.616-.347.865-.375.373-.847.387-1.254.4H3.729v-.171h.636v-4.29h-.636v-.169zM5.408 21l-.013 1.791h.433c.289 0 .519-.092.61-.21.111-.131.17-.348.17-.688 0-.742-.229-.879-.734-.893h-.466zm-.013 1.98l.013 2.263h.499c.229-.012.472-.032.682-.235.27-.275.27-.748.27-.912 0-.505-.111-.773-.315-.931-.151-.118-.413-.19-.813-.185h-.336M9.027 20.804c.308-.007.4-.007.688-.026v4.486h.452v.171H8.252v-.171h.492v-4.29h-.492v-.17h.775M10.822 22.259c.342-.006.446-.006.768-.025l-.013 2.079c0 .249.013.439.066.57.085.204.262.296.479.296.19 0 .354-.072.479-.19.255-.256.25-.597.25-.886l-.014-1.673h-.487v-.171s.945-.006 1.437-.025v3.023h.472v.178h-.499c-.419 0-.57.006-.885.026l-.021-.506c-.137.171-.458.551-1.2.551-.485 0-.794-.183-.919-.433-.098-.184-.091-.42-.091-.617l-.014-2.026h-.479v-.171h.671M17.578 24.516c-.17.321-.524.99-1.516.99-1.017 0-1.64-.78-1.64-1.691 0-.873.591-1.646 1.646-1.646.656 0 1.017.282 1.174.445.361.374.374.768.381 1.05h-2.191c.007.557.02 1.062.295 1.352.15.157.367.223.583.223.708 0 .978-.597 1.07-.807l.198.084zm-.958-1.049c.006-.512.012-1.116-.578-1.116-.558 0-.584.558-.603 1.116h1.181M22.293 25.106c-.485.177-1.089.394-1.844.394-1.351 0-2.354-.971-2.354-2.388 0-1.528 1.154-2.414 2.46-2.414.4 0 1.017.092 1.712.394v1.306h-.204c-.032-.25-.084-.656-.484-1.057a1.366 1.366 0 0 0-.972-.42c-.347 0-.695.145-.925.374-.328.328-.472.853-.472 1.811 0 .925.111 1.496.452 1.843.19.197.492.355.853.355.347 0 .76-.139 1.095-.492.394-.407.44-.755.466-1.004h.217v1.298M24.103 25.264h.485v.171h-1.922v-.171h.479V22.43h-.479v-.171s1.036-.006 1.41-.025l.013.643a.886.886 0 0 1 .237-.413.844.844 0 0 1 .603-.263c.42 0 .597.334.597.63 0 .399-.262.466-.406.466-.065 0-.407-.033-.407-.433 0-.033.021-.197.021-.229 0-.139-.099-.139-.118-.139-.086 0-.204.105-.289.236-.217.348-.23.859-.237 1.221l.013 1.311M29.053 23.859c0 1.037-.826 1.646-1.711 1.646-.964 0-1.667-.694-1.667-1.672 0-1.03.748-1.646 1.653-1.66 1.063-.019 1.725.735 1.725 1.686zm-2.381-.156c0 1.029.066 1.62.696 1.62.636 0 .682-.598.682-1.464 0-.793-.039-1.521-.688-1.515-.611.001-.69.624-.69 1.359M29.74 24.228c.026.189.046.348.151.544.104.21.374.538.839.538.388 0 .644-.217.644-.479 0-.296-.289-.414-.709-.564-.584-.217-1.075-.394-1.075-1.089 0-.827.722-1.017 1.174-1.017.36 0 .656.104.965.21l.013.853h-.197a1.717 1.717 0 0 0-.099-.354c-.084-.177-.333-.491-.754-.491-.354 0-.512.235-.512.4 0 .202.171.288.243.32.104.047.623.236.741.282.4.164.814.387.814.99 0 .688-.538 1.143-1.325 1.143-.434 0-.761-.119-1.102-.243l-.014-1.043h.203M32.605 24.228c.025.189.045.348.15.544.105.21.374.538.84.538.387 0 .643-.217.643-.479 0-.296-.288-.414-.709-.564-.583-.217-1.075-.394-1.075-1.089 0-.827.722-1.017 1.175-1.017.36 0 .655.104.963.21l.013.853h-.197a1.718 1.718 0 0 0-.098-.354c-.085-.177-.334-.491-.753-.491-.354 0-.513.235-.513.4 0 .202.171.288.243.32.106.047.624.236.742.282.4.164.813.387.813.99 0 .688-.538 1.143-1.325 1.143-.434 0-.761-.119-1.103-.243l-.013-1.043h.204M3.738 26.951h2.598c.262.007.551.02.82.137.499.244.512.736.512.84a.958.958 0 0 1-.282.695c-.309.322-.716.368-1.011.4.322.014.839.039 1.24.446.157.151.347.42.347.847 0 .302-.099.616-.347.866-.375.373-.846.386-1.253.399H3.738v-.171h.636v-4.29h-.636v-.169zm1.679.196l-.014 1.791h.433c.289 0 .518-.092.61-.21.111-.132.17-.347.17-.688 0-.741-.229-.88-.734-.893h-.465zm-.013 1.982l.014 2.263h.499c.229-.013.472-.032.682-.236.27-.275.27-.748.27-.911 0-.506-.111-.774-.315-.932-.15-.118-.413-.19-.813-.184h-.337M9.036 26.951c.308-.006.4-.006.689-.026v4.486h.452v.171H8.261v-.171h.493v-4.29h-.493v-.17h.775M10.832 28.407c.341-.007.445-.007.767-.025l-.013 2.078c0 .249.013.44.066.571.085.203.262.295.479.295a.689.689 0 0 0 .479-.19c.256-.256.249-.597.249-.885l-.013-1.674h-.486v-.17s.945-.007 1.437-.025v3.023h.472v.177h-.499c-.42 0-.571.007-.886.026l-.02-.506c-.138.172-.459.552-1.2.552-.485 0-.794-.184-.918-.433-.1-.184-.092-.421-.092-.617l-.013-2.027h-.479v-.17h.67M17.521 30.664c-.17.321-.525.99-1.515.99-1.017 0-1.64-.781-1.64-1.692 0-.872.59-1.646 1.646-1.646.656 0 1.018.281 1.175.446.36.373.374.767.38 1.049h-2.19c.006.558.02 1.062.295 1.352a.8.8 0 0 0 .584.224c.708 0 .978-.598 1.069-.807l.196.084zm-.958-1.05c.007-.512.014-1.115-.577-1.115-.557 0-.583.558-.604 1.115h1.181M18.229 30.001c.033.19.065.361.177.591.394.813 1.109.833 1.254.833.518 0 .957-.309.957-.787s-.361-.637-1.352-1.043c-.157-.066-.308-.125-.452-.203-.171-.092-.734-.421-.734-1.175 0-.813.648-1.357 1.561-1.357.571 0 1.017.189 1.253.288l.066 1.103h-.21c-.092-.341-.145-.532-.373-.761-.229-.236-.532-.401-.859-.401-.499 0-.762.335-.762.677 0 .419.381.597.551.676.223.104.446.183.669.275.571.229 1.286.57 1.286 1.469 0 .847-.662 1.47-1.771 1.47-.564 0-.997-.157-1.423-.308l-.039-1.346h.201M22.215 26.951c.335 0 .413-.006.708-.026l-.013 1.961c.124-.196.249-.381.623-.492.157-.052.314-.071.479-.071.486 0 .722.19.827.288.243.243.262.531.276.781l.013 2.02h.453v.171h-1.922v-.171h.505l.013-2.033c0-.256 0-.768-.512-.768a.7.7 0 0 0-.491.21c-.224.223-.243.519-.263.898l.013 1.692h.492v.171H21.5v-.171h.479v-4.29H21.5v-.17h.715M27.147 28.382v3.029h.453v.171h-1.916v-.171h.492v-2.834h-.492v-.17s1.01-.007 1.463-.025zm-1.03-.945c0-.282.236-.519.525-.519.282 0 .512.229.512.519s-.229.519-.512.519a.542.542 0 0 1-.525-.519M30.969 30.664c-.17.321-.524.99-1.515.99-1.018 0-1.64-.781-1.64-1.692 0-.872.59-1.646 1.646-1.646.656 0 1.017.281 1.175.446.36.373.373.767.38 1.049h-2.19c.006.558.02 1.062.295 1.352a.798.798 0 0 0 .584.224c.708 0 .978-.598 1.068-.807l.197.084zm-.957-1.05c.006-.512.012-1.115-.577-1.115-.558 0-.584.558-.604 1.115h1.181M31.986 26.951c.308-.006.4-.006.688-.026v4.486h.454v.171h-1.916v-.171h.492v-4.29h-.492v-.17h.774M35.801 26.951c.381 0 .5-.006.794-.026v4.48h.466v.177s-.984.007-1.411.026v-.434c-.15.19-.386.479-.996.479-.984 0-1.378-.893-1.378-1.614 0-1.029.616-1.691 1.463-1.691.406 0 .623.131.774.281a.455.455 0 0 1 .137.217l-.013-1.726h-.485v-.17h.649zm-1.272 1.83c-.19.197-.224.584-.224 1.2 0 .755.02 1.384.624 1.384a.688.688 0 0 0 .505-.21c.177-.183.229-.413.229-1.239 0-.591 0-1.312-.695-1.306a.592.592 0 0 0-.439.171M34.688 21.832a.896.896 0 1 1 .899.898.9.9 0 0 1-.899-.898zm1.649 0a.724.724 0 0 0-.75-.752.729.729 0 0 0-.756.752c0 .44.317.755.756.755.437 0 .75-.315.75-.755zm-.955.507h-.131v-1.024h.441c.266 0 .357.1.357.284 0 .197-.138.271-.317.285l.306.455h-.148l-.289-.455h-.219v.455zm.181-.573c.144 0 .344.022.344-.17 0-.144-.119-.162-.243-.162h-.281v.332h.18M36.775 27.719a.897.897 0 1 1 .899.899.9.9 0 0 1-.899-.899zm1.649 0a.724.724 0 0 0-.75-.75c-.438 0-.756.314-.756.75 0 .441.317.756.756.756.436 0 .75-.315.75-.756zm-.955.508h-.131v-1.024h.44c.267 0 .357.101.357.283 0 .198-.139.272-.317.286l.306.455h-.147l-.289-.455h-.219v.455zm.181-.575c.144 0 .343.024.343-.169 0-.144-.119-.162-.242-.162h-.281v.331h.18"/></svg>