<svg xmlns="http://www.w3.org/2000/svg" width="2500" height="2500" viewBox="0 0 192.756 192.756"><g fill-rule="evenodd" clip-rule="evenodd"><path fill="#fff" d="M0 0h192.756v192.756H0V0z"/><path d="M49.391 81.354h7.482c5.449 0 7.852 2.771 7.852 7.852 0 2.494-1.109 5.081-3.511 6.097 2.586 1.108 4.064 3.141 4.064 6.928 0 4.895-2.125 8.498-7.852 8.498H49.39V81.354h.001zm5.08 12.101h1.848c1.939 0 3.325-1.293 3.325-3.788 0-2.679-1.016-4.157-3.233-4.157h-1.94v7.945zm0 13.117h2.125c2.679 0 3.694-1.479 3.694-4.436 0-3.047-1.201-4.525-4.156-4.525h-1.663v8.961zM67.311 81.354h4.526v29.375h-4.526V81.354zM88.556 88.836v21.892h-4.249v-2.125c-1.94 1.57-2.956 2.586-5.542 2.586-2.402 0-3.88-1.754-3.88-4.617V88.836h4.619v16.996c0 1.109.646 1.57 1.57 1.57 1.016 0 1.939-.555 2.956-1.385V88.836h4.526zM105.553 100.66h-9.607v3.141c0 2.586.924 3.602 2.494 3.602 1.664 0 2.586-1.016 2.586-3.602v-.463h4.527c-.092 4.619-2.033 7.852-7.113 7.852-5.172 0-7.02-3.324-7.02-8.129v-6.465c0-4.803 1.848-8.129 7.02-8.129 5.266 0 7.113 3.326 7.113 8.129v4.064zm-4.528-3.695v-1.201c0-2.494-.922-3.51-2.586-3.51-1.57 0-2.494 1.016-2.494 3.51v1.201h5.08zM107.031 92.624v-3.787h2.586v-5.819h4.525v5.819h3.049v3.787h-3.049v12.562c0 1.201.463 1.848 1.57 1.848h1.479v3.879c-.646.186-1.109.277-2.311.277-3.416 0-5.264-1.57-5.264-4.988V92.624h-2.585zM119.131 96.596c0-4.803 1.848-8.129 7.02-8.129 5.174 0 7.113 3.326 7.113 8.129v6.465c0 4.805-1.939 8.129-7.113 8.129-5.172 0-7.02-3.324-7.02-8.129v-6.465zm9.514-.832c0-2.494-.83-3.51-2.494-3.51-1.57 0-2.494 1.016-2.494 3.51v8.037c0 2.586.924 3.602 2.494 3.602 1.664 0 2.494-1.016 2.494-3.602v-8.037zM135.666 96.596c0-4.803 1.848-8.129 7.02-8.129 5.266 0 7.113 3.326 7.113 8.129v6.465c0 4.805-1.848 8.129-7.113 8.129-5.172 0-7.02-3.324-7.02-8.129v-6.465zm9.605-.832c0-2.494-.924-3.51-2.586-3.51-1.57 0-2.494 1.016-2.494 3.51v8.037c0 2.586.924 3.602 2.494 3.602 1.662 0 2.586-1.016 2.586-3.602v-8.037zM151.184 92.624v-3.787h2.494v-5.819h4.525v5.819h3.141v3.787h-3.141v12.562c0 1.201.555 1.848 1.57 1.848h1.57v3.879c-.646.186-1.201.277-2.309.277-3.418 0-5.357-1.57-5.357-4.988V92.624h-2.493zM164.115 110.729V81.354h4.619v9.515c1.662-1.386 2.586-2.402 5.264-2.402 2.402 0 3.789 1.755 3.789 4.619v17.643h-4.527V93.825c0-1.109-.646-1.571-1.662-1.571-.924 0-1.848.554-2.863 1.386v17.089h-4.62zM28.331 85.326l3.51 3.51-3.51 3.51v-7.02zm0 21.522l3.51-3.51-3.51-3.51v7.02zm-3.788-10.807l-7.574-7.574 2.217-2.217 6.004 6.096V77.752l11.084 11.084-7.297 7.205 7.297 7.297L25.19 114.33V99.828l-6.004 6.098-2.217-2.219 7.574-7.666zm2.033 21.338c9.33 0 15.703-4.434 15.703-21.338 0-16.812-6.374-21.245-15.703-21.245-9.237 0-15.703 4.434-15.703 21.245 0 16.904 6.465 21.338 15.703 21.338zM180.004 81.354v.647h-.832v3.14h-.74v-3.14h-.83v-.647h2.402zM180.928 85.141v-3.787h1.015l.647 2.494.646-2.494h1.016v3.787h-.647v-2.955l-.738 2.955h-.555l-.738-2.955v2.955h-.646z"/></g></svg>