<svg height="1155" viewBox="4.73 -37.36491114 166.285 111.13291114" width="2500" xmlns="http://www.w3.org/2000/svg"><g clip-rule="evenodd" fill-rule="evenodd"><path d="m103.478 31.035a16.61 16.61 0 0 0 1.555-7.034c0-5.8-2.96-10.903-7.45-13.894a119.92 119.92 0 0 1 8.648-8.065c-3.607 2.122-6.997 4.558-10.134 7.185a16.606 16.606 0 0 0 -7.743-1.909c-9.215 0-16.682 7.47-16.682 16.682 0 4.161 1.527 7.963 4.046 10.884-3.194 6.905-3.757 12.46-.942 14.336 3.015 2.012 9.57-1.63 13.503-7.564 0 0-6.084 5.489-9.423 4.227-2.06-.778-2.065-3.922-.368-8.434a16.613 16.613 0 0 0 9.867 3.23c4.568 0 8.707-1.839 11.719-4.813l.594 1.115c7.271-.59 28.982-1.163 28.982-1.163-.002-1.045-14.381-.1-26.172-4.783zm-27.161 2.605a15.348 15.348 0 0 1 -3.387-9.638c0-8.517 6.905-15.423 15.423-15.423 2.403 0 4.676.551 6.705 1.531-8.532 7.39-15.064 16.124-18.741 23.53zm18.34-7.931 4.794 8.994a15.379 15.379 0 0 1 -11.098 4.722 15.354 15.354 0 0 1 -9.383-3.187c2.841-6.764 9.087-16.129 17.724-25.204 4.259 2.745 7.08 7.525 7.08 12.968 0 2.343-.526 4.562-1.46 6.548-2.818-1.23-5.453-2.807-7.657-4.841z" fill="#999b9e"/><path d="m169.695 58.094c0-.469-.256-.718-.847-.718h-.975v2.601h.223v-1.2h.677l.782 1.2h.25l-.78-1.197c.372-.055.67-.262.67-.686zm-1.046.49h-.553v-1.01h.719c.31 0 .66.116.66.516 0 .453-.431.494-.826.494zm.166-2.072c-1.216 0-2.2.984-2.2 2.2 0 1.219.984 2.201 2.2 2.201 1.217 0 2.2-.982 2.2-2.2 0-1.217-.983-2.2-2.2-2.2zm.006 4.206c-1.124 0-1.982-.892-1.982-2.005 0-1.133.847-2.005 1.982-2.005 1.132 0 1.97.876 1.97 2 0 1.11-.846 2.01-1.97 2.01zm-100.828-1.9a2.31 2.31 0 0 0 -2.31-2.31h-15.16a7.94 7.94 0 0 0 -6.356 3.168l-7.829 10.391a2.31 2.31 0 0 0 1.846 3.7l15.16.001a7.94 7.94 0 0 0 6.356-3.168l7.832-10.389a2.31 2.31 0 0 0 .462-1.393zm-35.663 6.743a7.956 7.956 0 0 0 4.587-2.97l1.794-2.38a2.32 2.32 0 0 0 .463-1.394 2.31 2.31 0 0 0 -2.31-2.31l-9.695-.001h-9.434l-13.005 17.261h9.267l10.527.001a7.943 7.943 0 0 0 6.357-3.168l1.833-2.437a1.83 1.83 0 0 0 .37-1.113 1.84 1.84 0 0 0 -.755-1.49zm-8.754 2.224-1.166 1.549a2.067 2.067 0 0 1 -1.65.823h-3.873l2.51-3.331h3.7a.6.6 0 0 1 .48.959zm63.283-.96 2.72-3.609-9.47-.002 2.333-3.096h9.47l2.722-3.61h-18.904l-13.005 17.26h18.905l2.72-3.61h-9.467l2.506-3.331h9.47zm-58.229-5.746-.993 1.319c-.376.495-.974.819-1.648.819l-3.876-.002 2.336-3.096h3.7a.6.6 0 0 1 .48.96zm28.818 0-6.22 8.256a2.06 2.06 0 0 1 -1.648.82h-2.67a.599.599 0 0 1 -.478-.96l6.219-8.254a2.067 2.067 0 0 1 1.648-.823h2.672a.6.6 0 0 1 .479.96zm104.827-4.571-15.163-.002a7.939 7.939 0 0 0 -6.355 3.17l-7.828 10.391a2.31 2.31 0 0 0 1.846 3.7h15.162a7.944 7.944 0 0 0 6.355-3.167l1.883-2.5h2.188l2.74-3.634h-11.615l-3.668 4.865c-.375.5-.975.822-1.647.822h-2.67a.6.6 0 0 1 -.483-.961l6.221-8.254c.375-.5.971-.822 1.647-.822h2.673c.333 0 .598.27.598.6 0 .136-.046.26-.119.36l-1.011 1.342h9.427l1.665-2.212a2.312 2.312 0 0 0 -1.846-3.699zm-30.852 0-6.591 8.747-2.024-8.747h-7.375l-13.006 17.26h6.243l6.534-8.671 2.004 8.67h7.454l13.005-17.26zm-31.432 0-13.005 17.26h9.435l13.004-17.26z" fill="#0066b3"/></g></svg>