<svg xmlns="http://www.w3.org/2000/svg" width="2500" height="865" viewBox="0 0 97.418 33.72"><path d="M79.8 21.24c.058 2.113-1.684 3.854-3.84 3.84-2.14.014-3.881-1.727-3.84-3.84v-9.36h-2.4v9.359c.017 3.469 2.806 6.009 6.24 6 3.45.009 6.24-2.531 6.24-6V11.88h-2.4v9.36zM48.24 11.88h2.4v21.84h-2.4zM24.96 11.76c-4.489.042-8.11 2.695-8.16 7.8.05 5.145 3.671 7.798 8.16 7.8 4.443-.002 8.064-2.655 8.04-7.8.024-5.105-3.597-7.758-8.04-7.8zm0 13.44c-3.171-.051-5.724-1.495-5.76-5.64.036-4.105 2.588-5.549 5.76-5.52 3.126-.029 5.678 1.415 5.64 5.52.038 4.145-2.514 5.589-5.64 5.64zM40.8 11.76a8.3 8.3 0 0 0-3.72 1.08l-.6-.96H34.2v15.48h2.28v-9.72c.051-1.999 2.299-3.622 4.319-3.6 1.982-.021 2.979.914 3 2.88v10.44h2.4V16.92c-.033-3.285-2.099-5.1-5.399-5.16zM90.48 11.76a8.352 8.352 0 0 0-3.72 1.08l-.6-.96h-2.28v15.48h2.28v-9.72c.059-1.999 2.307-3.622 4.32-3.6.488-.021.926.037 1.319.12l1.08-1.92c-.669-.281-1.492-.42-2.399-.48zM7.8 12c-2.076-.01-4.332.83-5.399 2.28V.48H0v26.88h2.4v-1.2c1.4.999 3.199 1.51 5.16 1.56 4.468-.05 8.089-2.703 8.04-7.8.049-5.152-3.384-7.93-7.8-7.92zm-.24 13.44c-2.262.021-4.219-.726-5.16-2.64v-5.52c.919-2.198 2.988-3.081 5.399-3.12 3.099.039 5.463 1.607 5.521 5.76-.057 4.098-2.609 5.541-5.76 5.52zM52.44 10.2h-6c.869.572 1.91.904 3 .96 1.147-.056 2.187-.388 3-.96zM53.52 9.36c.263-.309.496-.618.72-.96h-9.48c.166.348.393.65.6.96h8.16zM54.6 7.56c.27-.648.393-1.3.36-1.92.033-3.111-2.441-5.584-5.52-5.64-3.023.056-5.496 2.529-5.521 5.64a7.08 7.08 0 0 0 .36 1.92H54.6zM60.24 11.76c-4.52.042-8.141 2.695-8.16 7.8.02 5.145 3.641 7.798 8.16 7.8 4.413-.002 8.034-2.655 8.04-7.8-.006-5.105-3.627-7.758-8.04-7.8zm0 13.44c-3.202-.051-5.754-1.495-5.76-5.64.006-4.105 2.558-5.549 5.76-5.52 3.096-.029 5.648 1.415 5.64 5.52.008 4.145-2.544 5.589-5.64 5.64zM95.528 14.755c1.045 0 1.89-.851 1.89-1.9 0-1.04-.845-1.89-1.89-1.89-1.05 0-1.9.85-1.9 1.89 0 1.05.85 1.9 1.9 1.9zm0-.25c-.925 0-1.6-.721-1.6-1.65 0-.92.675-1.64 1.6-1.64.92 0 1.59.72 1.59 1.64 0 .93-.67 1.65-1.59 1.65zm.305-1.565c.375-.01.665-.165.665-.58 0-.35-.19-.56-.75-.56h-.925v2.114h.26v-.974h.475l.605.975h.31l-.64-.975zm-.75-.205v-.75h.605c.26 0 .53.04.53.37 0 .43-.44.38-.74.38h-.395z"/></svg>