<svg xmlns="http://www.w3.org/2000/svg" width="2500" height="2500" viewBox="0 0 192.756 192.756"><g fill-rule="evenodd" clip-rule="evenodd"><path fill="#fff" d="M0 0h192.756v192.756H0V0z"/><path d="M81.79 43.575c-.213-.66-.66-1.768-.66-2.662-.213-.213-.447-.895-.447-1.107l-.213-.234c-.235 0-1.342-.426-1.555-.426l-.447-.447c0-.447.213-.895.447-1.129.66 0 .447-.213.874-.426h.447c.895-.447 1.342-.895 2.215 0-.234.426-.447 1.107-.447 1.555l.447.447c.213 0 .447.213.66.213.682 0 2.002.447 2.449.895.234 0 .447.213.66.213h.895l2.683.894c1.32 0 2.875.447 4.003.447.66-.234 3.323-.66 4.002 0 .213-.234.428-.66.66-.894.447 0 1.107.447 1.342.66 0 .234.213.447.213.681 0 .66-.213 1.32-.213 1.747-.447 0-.68-.213-.895-.426h-.895c-1.788 1.768-3.79 3.556-5.557 5.324-.447 0-1.554.234-2.001.682-.66 0-1.789.213-2.662.213l-.234-.213h-1.768c-.234 0-.447-.234-.682-.234a1.708 1.708 0 0 0-1.107-.447l-.895-.895c0-.213-.213-.426-.213-.66 0-.213-.234-.447-.234-.66v-.895c-.446-.449-.659-1.343-.872-2.216z" fill="#cc2229" stroke="#cc2229" stroke-width=".256" stroke-miterlimit="2.613"/><path d="M101.578 37.597c.213-.213.426-.66.66-.873.213.213.895.447 1.107.66 0 .213.447.639.447.639 0 .234.213.447.213.682-.213.213-.66.894-.873 1.107-.447 0-1.129-.447-1.342-.66.001-.448-.212-.895-.212-1.555zM66.366 74.542c0-.426.213-.426.66-.874 0-1.128 2.215-4.003 3.343-4.685.426-.213 1.555-1.554 2.002-1.768h.426c.447-.234 1.129-1.107 1.576-1.341h.426l.447-.447c.681 0 1.789-.66 2.235-.66l.213-.234c.447 0 1.341-.213 1.789-.213l.213-.213h.894l.213.213c.895 0 2.896.447 3.578.447.426.447 1.321.66 2.001.66.874.894 2.428 1.789 3.557 2.449.447.66 1.32 1.342 2.002 2.002.447 0 .66.234 1.107.234 1.342-1.342 2.896-3.13 4.451-4.238.895-.66 2.662-1.341 3.557-2.215.447 0 .66-.447 1.107-.447h.447c.66-.234 1.34-.894 2-.894.234 0 .66-.447.895-.447.447 0 1.107-.213 1.555-.447 2.002 0 4.664.234 6.666.234.895.873 5.133 2.662 4.238 4.45 0 .213.447.66.447.874-.447.681-1.342 1.789-1.342 2.449l-.895.895c0 1.341-1.32 2.449-1.32 3.791-.682.426-.447.426-.447 1.086-.447.447-.895 1.341-.895 1.767-.234.234-.447.682-.447 1.128-.213.447-.213.874-.213 1.107l-.447.447c0 .213.213.447.213.66l-.66.661v.447c-.234.682-.682.895-.682 1.789-.213.213-.426.66-.66.895 0 .873-.66 1.767-.66 2.662-.234.213-.447.894-.682 1.341 0 .66 0 1.107-.66 1.555 0 .213.234.447.234.66 0 .234-.234.447-.234.66 0 .234-.213.447-.213.682-.234.213-.682.66-.682.895l.234.213c0 .213-.447.66-.682.894 0 .447-.213.895-.213 1.32-.66.682-.895 2.236-1.555 2.896 0 .447-.234.682-.234 1.107a1.81 1.81 0 0 0-.426 1.129l-.234.213c0 .447-.213.895-.447 1.107.447.682 1.555-.213 2.449-.213.234.213.447.66.447 1.107-.213 0-.66.447-.66.447-.682 0-1.342-.213-1.789 0 .234.213 1.107.66 1.555.66.234 0 .447.234.682.234l.66.66h.447c1.32.447 2.896 2.896 4.217 3.79 0 .447 0 1.107.447 1.555-.447.447-1.555 1.342-2.002 1.342 0-.234.234-.447.234-.682l-.447-.447c-.682 0-1.555.682-2.236.682l-.447.447c-.66 0-1.555.873-2.449.873-.213 0-.426.233-.66.233-1.107 1.108-3.342 1.769-4.662 2.896-.682.426-1.789 1.32-2.684 1.32-.213.234-.874 1.342-1.321 1.342h-.447c-2.896 1.342-6.005 4.217-8.901 5.771-1.342.682-3.556 2.002-4.664 2.896l-.234.234.234.213c0 .234-.895.447-1.129.447-.426.447-1.554 1.342-2.002 1.789h-.873s-.447-.447-.447-.682c0-.213.213-.447.213-.66.681-.234 1.789-1.107 2.236-1.555 0-.234-.234-.447-.234-.681l.234-.214c0-.446-.234-1.555-.234-2.002l-.213-.212c-.234-1.129 0-3.344.213-4.451-.661-1.342.234-4.451.234-6.006l.447-.447c0-.681-.895-1.788-.895-2.683 0-.213-.234-.426-.234-.66 0-.213-.213-.447-.213-.66-.66-.682-.66-1.788-1.107-2.235 0-.213-.234-.447-.234-.661 0-.66-.447-1.106-.447-1.554-1.107-1.107-2.215-4.451-2.875-6.006v-.447c0-.447-.447-.66-.447-1.107 0-.234-.234-.447-.234-.681-.447-.447-.895-2.214-.895-2.662-.426-.447-.66-1.107-.66-1.789l-.447-.426c0-.682-.447-1.129-.447-1.789 0-.213-.447-.66-.447-.894 0-.447-.213-.895-.426-1.107 0-1.107-.894-2.449-.894-3.556-.234-.234-.448-.895-.682-1.342v-.894c-.426-.426-.873-1.555-.873-2.215-.681-.66-1.129-2.215-1.555-3.109v-1.105h.002zM85.143 30.147c40.482 2.342 60.351-9.881 58.476-7.582-3.172 3.897-23.594 9.391-58.838 8.667-28.982-.595-37.351-26.809-35.52-26.98 2.407.277 5.622 24.149 35.882 25.895z" stroke="#000" stroke-width=".256" stroke-miterlimit="2.613"/><path d="M94.224 44.472c.661-.426 1.107-.874 1.555-1.555-.894-.873-2.428-.213-3.322-.447l-.234-.213h-.873l-.234-.213c-1.107-.234-2.896-.234-4.003-.234-.66 0-1.555-.447-2.215-.447-.447-.213-1.107-.447-1.555-.447l-.447.447c0 .234.447.682.447.895v1.341c1.107 1.086 1.32 3.301 2.875 4.195.682.447 2.236.234 3.13.234 1.767-.895 3.322-2.002 4.876-3.556z" fill="#fff" stroke="#cc2229" stroke-width=".256" stroke-miterlimit="2.613"/><path d="M107.795 89.905c.213-.426.66-1.107.66-1.768.66-.66 1.768-3.556 1.768-4.664 0-.234.234-.447.234-.681.213-.213.447-.66.447-1.107.213-.213.447-.66.447-1.107l.213-.234c0-.447.234-.873.447-1.107 0-.894.66-1.767.66-2.662.234-.234.447-.681.447-1.107.234-.234.447-.681.447-1.128l.234-.213c0-.234.213-1.107.213-1.341 0-.213.213-.447.213-.66a1.65 1.65 0 0 0 .447-1.107c0-.234.234-.447.234-.682.213-.213.66-.66.66-.873v-.447c.232-.895 1.105-1.789 1.105-2.683-.213-.213-.66-.66-.445-1.108-.66-.66-1.107-2.214-2.428-2.214-.234-.234-.895-.682-1.129-.895-.873 0-2.002-.447-2.875 0-.234 0-.682-.234-.895-.234-.234 0-.682.234-1.107.234-.426.213-1.107.447-1.555.447-.213 0-.447.213-.66.213l-.447.447c-.447 0-.895.234-1.342.234-.426.426-1.32.66-1.768 1.107-2.896 0-6.452 4.217-7.793 6.453l.447.447c0 .213-.213.426-.213.66-.234 0-.681.447-.681.447h-.87c-.895-.895-2.002-2.449-3.13-3.109-.874-1.342-2.428-2.002-3.557-3.13-.447 0-.66-.213-1.107-.213l-.447-.447c-.66 0-2.002-.448-2.662-.448l-.234-.213c-.426 0-.873-.234-1.107-.234-.448 0-1.321.234-1.768.234-.447.213-1.128.448-1.554.448-1.789 1.767-4.685 2.214-6.24 4.429-1.107.681-1.789 2.236-2.662 3.13 0 .66-.234 2.002-.682 2.449.448.874.895 2.428 1.342 3.322v1.341c0 .213.213.447.213.66l.234.234v.447l.213.213v.447l.234.213v.447l.213.234c0 .213.234.447.234.66 0 .448.213 1.108.447 1.555v.895c0 .213.213.447.213.66.447.447.661 1.555.661 2.001 0 .234.234.447.234.682.213.213.447.639.447 1.086 0 .213.447.661.447.895 0 .447.426 1.32.66 1.555 0 .447.213.66.213 1.107.234.213.447.66.447 1.107 0 .234.234.447.234.681.213.212.66.66.66.874v.447c.213.681.894 1.341.894 2.001.213.234.447.682.447 1.107.447.447.895 1.342.895 2.002.213 0 .426.234.66.234 0 .213-.234.447-.234.66l.681.895v.447l.447.447c0 .66.447 1.107.447 1.768.213.233.66.682.66.895v.447c.213.446.661.894.661 1.554.234.234.447.66.447 1.107.234.234.66.447.895.682 0 .447-.234 1.32-.234 1.768l-.426.447c.873.447 4.43-2.215 5.324-2.662 2.448-1.107 4.897-3.556 7.346-4.45h.447l.447-.447c1.554 0 3.321-2.215 5.11-2.215.213-.234.66-.447 1.107-.447l.447-.447c.447 0 1.342-.447 1.555-.682 0-.426.234-.66.447-.873 0-.447.213-.895.213-1.342 0-.213.234-.447.234-.66.213-.234.447-.682.447-1.128 0-.214.213-.427.213-.66l.447-.447c0-.661.66-1.321.66-2.002.234-.213.447-.66.447-1.107.234-.213.447-.66.447-1.107.451-.449 1.111-2.238 1.111-3.111z" fill="#fff" stroke="#000" stroke-width=".256" stroke-miterlimit="2.613"/><path d="M101.158 107.242c0-.213.213-.66.213-.873 0 0 .447-.447.66-.447 0-.447.234-.895.234-1.342l-.447-.447h-.873l-.447.447c-.447 0-1.555.234-1.768.447l-.234.447c-.213 0-.66.213-.893.213-.215 0-.447.234-.661.234-.447.447-1.342 1.107-2.002 1.107-.213.213-1.107.639-1.342.873-.66 0-.873.213-1.107.66-.894 0-1.554 1.342-2.662 1.342-.234.213-.894.66-1.341.66-1.768 1.789-5.111 2.896-6.453 4.897-1.108 0-1.555 1.107-1.555 2.002v.447c0 .66.234 1.555 0 2.215v1.341c.234.661.234 1.789.234 2.449l.213.213v.895l.448.447c3.343-2.215 7.347-4.45 10.668-6.665 1.342-.895 3.791-3.344 5.344-3.344.215 0 .447-.213.66-.213 1.342-1.342 4.43-3.577 6.219-4.237h.447c.447-.213.873-.66 1.555-.66.213-.234.66-.447 1.107-.447.213-.234 1.107-.66 1.555-.66.234-.234 1.107-.682 1.342-.895-1.107-1.107-2.896-3.77-4.898-3.77-.213 0-.66-.447-.895-.447h-.895c-1.107 1.107-.426 2.236-.426 3.535-.234 0-.682.447-.682.447h-.895c-.21-.211-.423-.445-.423-.871z" fill="#fff" stroke="#000" stroke-width=".256" stroke-miterlimit="2.613"/><path d="M54.624 138.393v-.989c.231-.087.42-.13.553-.151l1.93-.164c1.595-.217 3.385-.38 5.363-.51.79-.044 2.042-.065 3.748-.065 2.321 0 4.028.271 5.104.793 1.566.794 2.741 1.978 3.51 3.554.776 1.587 1.161 3.337 1.161 5.271 0 3.141-1.44 5.782-4.321 7.934l-.105.25c1.476.619 2.685 1.479 3.629 2.576.937 1.108 1.664 2.456 2.167 4.043.371 1.174.552 2.695.552 4.586 0 3.163-.923 5.988-2.776 8.455-1.846 2.479-4.398 3.707-7.65 3.707h-3.056l-3.091.163c-2.734.043-4.328.064-4.79.064-.482 0-.951-.032-1.419-.098v-.348c0-.261.035-.435.105-.543.083-.131.238-.229.468-.315 1.713-.555 2.678-.935 2.902-1.131.224-.206.377-.532.461-.978.161-.848.245-3.032.245-6.554 0-.315-.007-.729-.021-1.206-.028-1.424-.042-2.25-.042-2.457v-3.314c0-5.597-.042-10.499-.119-14.672l-.021-6.401-.021-.793c-1.161-.262-2.189-.425-3.077-.479-.571-.022-1.033-.098-1.389-.228zm8.132 16.117a7.393 7.393 0 0 0 2.154.315c2.951 0 4.951-1.011 6-3.021 1.056-2.021 1.581-4.032 1.581-6.021 0-.892-.091-1.805-.28-2.729a7.313 7.313 0 0 0-.979-2.499c-.476-.739-1.056-1.294-1.755-1.652-1.189-.619-2.406-.924-3.644-.924a8.582 8.582 0 0 0-3.237.608c-.014.446-.021.771-.021.989 0 .206.014.815.042 1.804.014.642.021 1.283.021 1.913l-.063 3.858.021 2.293.14 4.489.02.577zm4.818 21.65c1.35-.152 2.482-.598 3.398-1.337.427-.348.923-.957 1.503-1.837.581-.881 1.035-1.935 1.356-3.163.322-1.238.482-2.423.482-3.564 0-.869-.119-1.945-.342-3.217-.224-1.282-.608-2.402-1.147-3.358-.539-.968-1.342-1.761-2.406-2.391-1.062-.631-2.237-.946-3.524-.946-2.482 0-3.881.076-4.181.229-.014.489-.021.848-.021 1.087l.021 1.174-.021 2.391v2.706c.042 4.989.119 7.935.231 8.847a3.968 3.968 0 0 0 1.112 2.358c.637.662 1.819.999 3.539 1.021zM81.048 157.499c0-2.163.168-4.098.504-5.782.335-1.685.902-3.521 1.692-5.488.79-1.978 1.748-3.63 2.867-4.956 1.119-1.325 2.671-2.499 4.65-3.511 1.392-.706 3.153-1.054 5.286-1.054 1.433 0 2.839.294 4.21.892a13.154 13.154 0 0 1 3.74 2.478c1.119 1.065 2.236 2.695 3.355 4.912a21.132 21.132 0 0 1 1.764 4.935c.518 2.314.775 4.695.775 7.162 0 2.804-.176 5.13-.518 6.967a24.109 24.109 0 0 1-1.756 5.478c-.643 1.401-1.74 3.021-3.293 4.847-1.041 1.229-2.328 2.218-3.873 2.979-1.545.75-3.211 1.13-5 1.13-1.818 0-3.433-.337-4.853-.989-1.419-.662-2.608-1.467-3.559-2.401-.944-.945-1.923-2.348-2.93-4.195-1-1.848-1.762-3.88-2.28-6.108-.515-2.232-.781-4.666-.781-7.296zm14.223 19.802c1.147 0 2.336-.25 3.573-.75 1.238-.5 2.328-1.326 3.287-2.478a13.43 13.43 0 0 0 2.244-3.945c.539-1.478.973-3.38 1.301-5.685a49.42 49.42 0 0 0 .49-6.944c0-2.891-.273-5.738-.818-8.564-.428-2.141-1.111-4.064-2.07-5.749-.957-1.685-2.111-2.989-3.461-3.913s-2.791-1.391-4.322-1.391c-1.244 0-2.461.326-3.649.956-1.189.642-2.161 1.445-2.93 2.435-.762.989-1.476 2.392-2.125 4.206-.657 1.815-1.154 3.814-1.497 5.999-.342 2.185-.51 4.119-.51 5.793 0 1.771.168 3.761.51 5.988.343 2.229.811 4.163 1.406 5.793.587 1.642 1.321 3.087 2.188 4.348.867 1.271 1.839 2.228 2.916 2.901 1.083.663 2.237 1 3.467 1zM128.297 138.556c.111 1.402.168 2.206.168 2.413l-.084 2.836c-.027 1.207-.062 1.989-.105 2.326-.119.087-.223.13-.307.13l-.182-.064c-.441-2.979-1.184-5.142-2.225-6.499-1.041-1.359-2.322-2.033-3.818-2.033-1.559 0-2.838.674-3.832 2.033-1 1.357-1.496 2.944-1.496 4.749 0 1.38.35 2.641 1.043 3.782.699 1.152 2.482 2.869 5.348 5.162 2.182 1.761 3.748 3.195 4.693 4.314.943 1.12 1.65 2.402 2.133 3.869.475 1.468.713 3.098.713 4.902 0 2.271-.377 4.401-1.141 6.401-.754 1.999-1.775 3.499-3.062 4.51-1.279 1-2.979 1.511-5.098 1.511-1.846 0-3.615-.456-5.307-1.369-.992-.555-1.602-1-1.824-1.337a2.01 2.01 0 0 1-.322-1.087c0-.229.014-.532.035-.891.195-2.5.293-4.565.307-6.174.029-1 .078-1.587.148-1.75.055-.151.152-.229.307-.229.119 0 .225.066.293.207.078.142.127.402.154.783.154 2.607.93 4.944 2.336 6.999 1.398 2.064 2.971 3.097 4.734 3.097 1.076 0 2.068-.358 2.979-1.054.908-.706 1.621-1.718 2.133-3.043.51-1.326.77-2.619.77-3.869 0-1.718-.393-3.293-1.168-4.706-.777-1.424-2.344-3.087-4.693-4.988-2.35-1.902-3.881-3.283-4.586-4.152-1.146-1.424-2.008-2.934-2.58-4.521-.428-1.238-.637-2.662-.637-4.304 0-2.944.748-5.444 2.252-7.499 1.502-2.043 3.518-3.064 6.041-3.064 1.398 0 2.594.239 3.607.729.734.38 1.497 1.01 2.273 1.88z" fill="#cc2229"/><path d="M54.047 186.445h.357c0 .449.077.8.232 1.052.142.228.31.342.507.342.166 0 .312-.081.438-.243.127-.162.203-.381.228-.656v-.135c0-.438-.144-.743-.432-.917-.27-.144-.539-.288-.805-.432-.291-.258-.437-.71-.437-1.357v-.18c0-.419.086-.773.257-1.061.172-.288.404-.432.698-.432.301 0 .542.144.725.432.182.287.273.689.273 1.204v.117h-.347l.005-.099c0-.312-.065-.56-.197-.742-.131-.183-.285-.274-.46-.274-.161 0-.298.078-.411.234-.126.18-.189.426-.189.737.021.354.167.611.437.772l.8.477c.292.27.455.698.49 1.286 0 .605-.114 1.088-.342 1.447-.207.323-.458.485-.752.485-.295 0-.54-.165-.737-.494-.226-.376-.338-.898-.338-1.563zM60.095 188.307v-5.809h1.9v.684h-1.553v1.806h1.474v.684h-1.474v1.951h1.574v.684h-1.921zM66.932 186.005l-.712 2.304-.477-.002.973-2.95-.883-2.859h.441l.661 2.25.666-2.25h.441l-.883 2.859.968 2.95h-.463l-.732-2.302zM72.859 188.307v-2.248l-1.058-3.561h.432l.789 2.795.763-2.795h.442l-1.031 3.561v2.248h-.337zM85.776 188.307v-5.809h1.257c.189 0 .356.146.5.437.144.291.216.657.216 1.102 0 .521-.075.956-.226 1.304-.137.317-.292.477-.463.477h-.926v2.49h-.358v-.001zm1.198-5.053h-.84v1.879h.899c.053 0 .121-.078.206-.234.116-.209.173-.464.173-.764v-.099c-.014-.246-.06-.438-.138-.575-.076-.139-.176-.207-.3-.207zM93.376 188.307h-1.694v-5.809h.379v5.125h1.315v.684zM97.168 188.307l.963-5.809h.43l1 5.809-.408-.002-.301-1.688h-1.016l-.258 1.69h-.41zm.76-2.392h.812l-.385-2.419-.427 2.419zM104.33 188.307v-2.248l-1.057-3.561h.432l.789 2.795.762-2.795h.443l-1.031 3.561v2.248h-.338zM109.988 188.307l-.668-5.809h.41l.495 4.566.586-4.566h.41l.572 4.579.506-4.579h.41l-.709 5.809h-.369l-.627-4.828-.637 4.828h-.379zM116.631 188.307v-5.809h1.9v.684h-1.552v1.806h1.474v.684h-1.474v1.951h1.574v.684h-1.922zM122.344 188.307l.963-5.809h.43l1 5.809-.408-.002-.301-1.688h-1.016l-.258 1.69h-.41zm.76-2.392h.812l-.385-2.419-.427 2.419zM128.607 188.307v-5.809h1.361c.229 0 .41.162.549.486.125.299.188.662.188 1.088 0 .293-.031.56-.094.8a1.26 1.26 0 0 1-.283.558c.125.138.213.342.262.611.035.197.053.458.053.781v.378c0 .306.012.516.035.63a.767.767 0 0 0 .113.287v.189h-.432c-.039-.217-.061-.666-.066-1.349-.006-.684-.15-1.064-.434-1.142h-.906v2.49h-.346v.002zm.346-3.174h.932c.133 0 .244-.101.33-.301.086-.201.129-.431.129-.688 0-.264-.041-.482-.121-.656-.096-.204-.238-.306-.428-.306h-.842v1.951z"/></g></svg>