<svg xmlns="http://www.w3.org/2000/svg" width="2500" height="2500" viewBox="0 0 192.756 192.756"><g fill-rule="evenodd" clip-rule="evenodd"><path fill="#fff" d="M0 0h192.756v192.756H0V0z"/><path d="M96.378 184.252c46.938 0 84.851-39.256 84.851-87.874 0-48.618-37.912-87.874-84.851-87.874-46.637 0-84.849 39.256-84.849 87.874 0 48.618 38.212 87.874 84.849 87.874z"/><path d="M96.378 181.84c45.646 0 82.872-38.197 82.872-85.462 0-46.939-37.227-85.462-82.872-85.462S13.505 49.439 13.505 96.378c0 47.265 37.228 85.462 82.873 85.462z" fill="#fff"/><path d="M107.061 19.009c0 1.619-.324 2.914-1.295 3.884-.646 0-.971 0-1.619.648 1.619 2.266 1.619 5.827 4.533 6.151 0 .971-1.295.971-1.943 1.295-3.236-.324-2.912-4.209-4.207-6.475-.648-.971-1.943-.647-2.914-.971-.324 1.942-.646 3.885-.324 5.503.648.647 1.295.647 1.619.971-.646.647-1.941 0-2.914 0-.646 0-1.942.324-2.589-.323.647-.324 1.619-.647 1.619-1.619 0-3.561.648-7.122.648-10.683l-1.296-.647v-.324c3.56.971 8.416-1.295 10.682 2.59zM91.522 16.743c.648 1.295 1.295 2.266 1.295 3.885-.971-.647-1.942-1.942-2.913-2.59-1.942-.647-4.532-.647-5.827.971-1.942 2.59-1.618 5.503-.324 7.769 1.295 1.942 3.237 3.885 5.827 3.237 1.942-.323 3.237-2.266 4.208-3.561.323 1.619-1.619 2.914-2.914 3.885-2.59 1.294-6.151 1.294-8.417-.972a7.993 7.993 0 0 1-1.619-7.122c1.295-2.589 3.237-4.855 6.151-5.503 1.62-.323 2.915 1.619 4.533.001z"/><path d="M104.146 19.009c.324.971.324 1.942-.322 3.237-.324.972-2.266.972-3.561.647-.648-1.294-.324-3.884.322-5.503 1.296-.324 2.915 0 3.561 1.619z" fill="#fff"/><path d="M122.6 20.304c0 1.295-.324 1.942-.971 2.589 0-.323 0-1.294-.648-1.942-1.619-.647-3.236-1.618-4.531-.647-.324 1.619-1.943 3.561-.324 4.856 1.295.323 3.236.647 3.561-.972h.648a83.884 83.884 0 0 1-.973 4.209c-.646 0-.322-1.295-.971-1.619-.646-.971-1.941-.971-3.236-.971-.648 1.619-1.619 3.561-1.295 5.503.971.971 2.59 1.619 3.885.971 1.295-.324 2.266-.971 3.561-1.294-.648 1.294-1.295 2.589-2.914 2.913-2.912-.971-5.502-1.942-8.74-2.59.324-.647 1.619 0 1.619-1.295.971-3.561 1.941-7.122 2.914-10.683l-1.619-.971.324-.324c2.911.972 6.149 1.619 9.71 2.267z"/><path d="M105.443 20.304c0 .324-.324.971-.648 1.295 0-1.295.324-2.59-.324-3.561.972.323.648 1.295.972 2.266zM97.674 27.749c0-2.589 0-6.474.646-9.388 0 2.914-.646 6.151-.646 9.388z" fill="#fff"/><path d="M77.602 23.541c-.971.647-1.618-1.619-2.59-1.942-.971-.324-2.266-.324-2.913 0s-1.295.647-1.619 1.294c0 4.856 5.18 2.267 7.769 3.885.972.648 1.619 1.295 1.942 2.59 0 1.942-.647 3.237-1.619 4.532-1.942 1.295-4.208 1.295-6.15.971 0-1.619-1.619-2.266-1.294-3.561 1.294 1.619 3.561 3.561 6.15 2.59.971-.647 1.943-2.266 1.295-3.237-1.942-4.208-10.359.324-9.388-6.798.971-2.266 3.561-3.237 6.151-3.237.324-.324.647-.324.971-.324l1.295 3.237z"/><path fill="#fff" d="M113.859 23.217l.647-2.913-.322 1.942-.325.971zM82.458 28.073l1.618 1.942c-2.266-1.295-3.237-4.208-2.913-7.122l.971-1.942c-.647 2.266-1.295 5.18.324 7.122z"/><path d="M129.723 23.541c-.973.324-2.268 0-2.268.971l-1.619 8.74.324.324c1.943-.647 3.562-1.942 5.18-2.914.324-1.942 1.619-4.208 0-5.827 1.619.971 3.238 1.618 4.855 2.59-.646.647-1.295-.324-1.941.323-.648 3.238-1.295 6.151-1.619 9.388.324.647.971-.323 1.619-.323 1.941-2.267 4.207-2.59 5.826-5.504 0-.971-.971-1.295-1.295-2.266 1.619.647 2.59 1.942 4.209 2.266l-1.619.647c-4.209 2.914-7.121 5.503-11.33 8.417 0-2.914.971-5.503 1.295-8.417l-.324-.324c-2.59 1.295-5.18 3.237-7.768 4.532.646-4.856 1.617-9.388 2.266-14.244-.324-.324-.973-.324-.648-.972l4.857 2.267v.326z"/><path d="M76.307 21.922c-.323-.324-.647 0-.971-.647.324.324.971.324.971.647zM124.219 34.547c0-3.885 1.295-8.093 1.617-11.978 0 3.885-.971 8.094-1.617 11.978z" fill="#fff"/><path d="M65.301 27.102c-.971.324-1.619-1.295-2.914-.648-.971.972-2.59 1.295-3.237 2.59.323 1.618 1.295 2.913 2.589 4.208.972-.647 2.59-.971 2.914-2.59v-1.295c.971.647.971 2.59 2.266 3.237v.324c-.647 0-1.619-.971-2.913-.324-.647.647-1.619.324-2.267 1.619 1.619 1.619 1.619 5.503 4.532 4.532 2.266-.971 2.59-2.914 3.237-4.856h.324c.324.971.971 2.266.324 3.237-2.59 1.942-5.827 2.913-8.417 4.855 0-.647.324-.971.647-1.295-1.295-3.884-3.561-6.798-5.18-10.035-.971-.971-1.618.647-2.589-.323 2.914-1.295 5.827-3.237 8.741-5.18.972.002 1.296 1.296 1.943 1.944z"/><path d="M79.221 30.663c-1.943-3.561-6.798-1.618-9.388-4.208v-.647c1.942 3.56 8.417-.001 9.388 4.855zM112.889 25.807h.322v.647h-.322v-.647zM119.361 25.807c0 .324-.322.647-.322.647v-.647h.322zM130.693 38.432c.322-3.885 1.617-8.093 1.941-11.978-.323 3.561-.646 8.093-1.941 11.978zM105.766 30.015c-.646-.323-1.295-1.295-1.619-1.942.648.324.972 1.295 1.619 1.942zM141.053 31.31s0 .324-.324.324h-.324c-.325-.324.324-1.295.648-.324zM65.301 31.634c0 .324-.324.324-.324.324v-.648l.324.324zM119.361 31.958c.324.324-.322.971-.646.971h-.971c.324-.648 1.295-.648 1.617-.971zM73.07 34.547c0-.324-.971-.324-.647-.971.324.324.971.324.647.971z" fill="#fff"/><path d="M102.529 34.871c.646 0 1.295-.324 1.941-.324.324.971 1.295.971 1.943 1.295l.971-.324c3.236.971 7.121.647 10.035 2.59 12.625 3.561 22.338 12.625 29.783 22.984.646.971 1.941 1.942.971 3.237-.648-.971-.971-1.618-1.619-2.266l-.324.648-.322 56.003c.971 1.295 1.617 2.914 2.912 3.885l.324-.324.324-52.442c.324-1.619 0-3.561-.971-4.856 1.617-.647.971 1.619 2.266 1.942 1.619 3.885 3.561 8.417 4.855 12.625 0 2.266.971 4.532.971 6.798.648 7.446.973 15.862-.971 23.308-1.295.324-.648-1.941-.324-2.59.648-4.531 1.295-9.387.648-13.919 0-5.18-.324-10.683-2.59-15.215-.324 12.301-.324 23.632-.324 35.933l1.295.648c-4.209 12.623-11.33 22.66-21.365 31.076-2.59 1.619-4.533 4.531-7.77 6.15-.648 3.238-3.561 5.18-6.15 6.15-.648 0-.971.324-1.295.648-3.561.646-8.418 1.295-11.654 0-8.74 1.941-17.157 1.295-25.574-.648-1.942 0-3.884-.971-5.827-1.295-1.942-1.295-4.532-1.617-6.475-2.912-1.295 0-.647-3.238-2.59-1.943-1.942-.971-3.561-2.266-5.827-2.912-3.237-2.268-5.503-5.828-8.417-8.742-2.914-2.912-4.532-5.826-7.122-9.062 1.619-.648 1.619.971 2.914 1.295l.324-.648V86.343c.647-2.914-.647-5.179-.971-7.77-.971-5.179 1.619-9.388 1.295-14.244 0-.323-.324 0-.647 0l-2.914 4.856c0 21.042-.323 39.494 0 59.24 0 0 .324.324 0 .324-.647 0-.647-.971-1.618-.646-1.619-2.266-1.943-5.18-3.561-7.447.324-1.293-.647-1.617-.647-2.588-4.208-13.922-3.561-29.136 1.618-42.084 3.562-9.712 9.388-17.805 16.834-24.603 2.913-.647 3.884-3.561 6.475-5.179 1.618-2.59 5.503-3.561 8.093-5.18 2.266-.972 4.532-2.266 7.122-2.266 0-.324.324-.324 0-.647 5.827-1.942 11.654-3.237 18.129-3.561 1.617 1.294 3.883-.648 5.826.323z"/><path d="M68.862 37.461h-.324l.971-2.266c.324.971 0 1.942-.647 2.266zM98.645 36.166v30.43c-.324.648-.971 1.295-1.619 1.295-2.589-2.59-.647-5.503-1.294-8.74l.323-23.308c1.295-.001 1.619-.324 2.59.323zM102.205 63.682l-2.59 2.267-.646-.648c.646-9.064 0-20.071.646-29.458l2.914.324-.324 27.515z" fill="#fff"/><path d="M47.82 35.842c-1.295 2.266 1.295 3.237 1.619 4.532l4.856 5.827c1.295.647 1.942-.324 2.913-.972 1.295-1.294 1.295-3.237 1.619-4.855.647-.324.971.971.971 1.295.971 2.266-1.295 3.237-2.59 4.208-1.618.971-3.237 2.913-4.855 3.884.647-2.59-1.942-4.208-3.237-6.15-1.619-1.619-2.59-5.503-5.503-4.208.647-.971 1.618-1.295 2.59-1.942.646-.971.969-1.295 1.617-1.619z"/><path d="M95.407 36.166c-.324 10.359 0 17.805-.324 27.84-1.619-.648-1.942-1.943-2.913-2.914V36.49c.971-.324 2.266-.971 3.237-.324zM105.766 61.417l-2.59 1.942-.324-.647c.324-9.712.324-16.187.324-26.545l2.914.324-.324 24.926zM91.522 36.814c0 8.093-.323 14.891-.323 23.308-.971 0-1.942-.647-2.914-1.619l.324-21.688c.971-.325 2.266-.973 2.913-.001zM109.65 37.461l-.324 22.661c-.971.324-1.617.971-2.59.971V36.814c.648-.324 1.943-.324 2.59.323l.324.324z" fill="#fff"/><path d="M153.354 41.022c1.295.647 2.266 1.942 2.266 3.237 0 1.295-.971 2.266-1.941 2.914-.648 0-1.619-.323-2.268.324.324 1.294.648 3.561-.322 4.532-.973 1.295-2.914.971-4.209.971-2.914-1.295-4.209-4.532-7.121-6.475.971 0 1.941.324 2.59-.647 2.266-2.59 4.207-4.532 6.473-7.446.648-.647 0-1.295-.322-1.942 1.939.971 3.234 3.237 4.854 4.532z"/><path d="M87.637 36.814c.324 6.798.324 14.243 0 21.365-1.294-.647-2.266-.972-3.237-2.266.647-5.503.324-12.301.647-18.452.648-.324 1.943-.324 2.59-.647zM113.535 38.108l-.324 18.128-2.266 2.266h-.646V37.461c.971-.324 2.265 0 3.236.647zM84.077 37.461c0 5.503 0 12.625-.324 18.452-.971-.324-1.619-.971-2.589-1.294V38.432c.97-.324 1.941-.971 2.913-.971zM117.096 39.08v14.891l-2.912 1.942V38.108c.97 0 2.265.324 2.912.972zM149.145 39.727l-7.121 7.445v-.647c2.59-2.266 5.18-5.503 7.445-8.417.324.648 0 1.295-.324 1.619zM46.202 38.432c-.324.647.323.324.323.647 1.942 2.913 5.18 5.827 6.475 9.064-1.942-2.914-4.532-5.827-6.798-8.741-.324 0-.648-.647-.648-.971h.648v.001zM80.192 54.294c-.647-.324-1.942-.324-2.914-.971l.324-13.273c1.295-.323 1.942-1.942 2.914-.971l-.324 15.215zM120.656 41.022l-.322 11.33c-.973.324-1.619.971-2.59 1.295V39.403c1.295 0 2.266.972 2.912 1.619zM153.354 41.669c0 1.295 0 2.914-.971 3.884-.324.648-1.619.648-2.268.324-.646-1.295-2.59-1.942-1.617-3.561.646-.971 1.941-1.942 2.59-2.267.971.326 1.941.649 2.266 1.62zM76.631 40.375c.324 4.208.324 8.417 0 12.301-.971.647-1.619-.324-2.914 0v-11.33c.972-.648 1.943-.971 2.914-.971zM122.924 41.669c.646 0 1.295 0 1.617.971l-.322 8.093c-.971.647-1.619.971-2.59 1.295V41.022c.322 0 .646.647 1.295.647zM73.07 52.352c-.647.647-1.618.324-2.589.324l-.324-.647v-9.064c.972-.647 1.942-.972 2.913-1.295v10.682z" fill="#fff"/><path d="M43.288 43.612c-.971.324-2.266-.647-3.237.324-.647.971-1.618 1.618-1.942 2.914l8.093 6.474c1.294.324 2.266 0 2.913-.971 0 1.619-2.266 2.914-2.913 4.532-.324.323-.324 1.295-1.295 1.295 0-.972.647-1.619.323-2.59l-8.417-6.798c-1.294.97-2.913 2.265-2.266 4.208.324.647.647.971.647 1.295-1.295-.324-1.619-1.295-2.59-1.942 2.266-3.237 5.503-6.798 7.77-10.359 1.295-.001 1.943 1.294 2.914 1.618z"/><path d="M58.827 43.936h-.324l.648-1.943c.646.648-.001 1.295-.324 1.943zM41.669 42.964c0 .323-.324.323-.648.323h-.324c-.322-.97.649-.646.972-.323zM128.104 44.907v4.855c-.973.971-1.943.647-2.914.971-.324-2.914-.324-5.503 0-8.093.97.972 2.914.648 2.914 2.267zM154 45.23c-.322.648-.646.972-1.295.972.324-.972 1.295-2.266 1.295-3.561.648.647.324 1.942 0 2.589zM69.509 52.352c-.971 0-1.619.324-2.59.324l-.324-7.446 2.914-1.942v9.064zM149.793 49.439c-.324.971-1.295 1.618-2.268 2.266-.971 0-2.266-.324-2.59-.971-.971-.647-1.941-2.266-.971-3.237 1.295-.972 2.59-4.532 4.209-2.914.972 1.619 2.266 2.914 1.62 4.856zM131.664 46.849v3.561l-2.914-.324v-5.503c.973.971 2.266 1.295 2.914 2.266zM65.948 52.352C65.301 53 64.33 53 63.359 53v-5.827c.647-.323 1.295-1.294 2.589-1.294v6.473zM134.9 49.115v4.532l-2.912-2.914.322-2.914 2.59 1.296z" fill="#fff"/><path d="M162.74 52.352c-.322 0-.971-.324-1.295-.324-3.236 1.619-6.15 3.237-9.387 5.503-.648.324-.324 1.295-.324 1.942.324 0 .324.323.324.647-1.295 0-1.295-1.942-1.943-2.914-.646-.647-.971-.971-1.295-1.618l1.619.324c3.238-1.942 6.799-3.885 9.713-6.474l-.324-1.619c1.295 1.296 1.942 2.914 2.912 4.533z"/><path d="M62.387 48.144c-.647 2.266 1.619 6.475-1.942 6.475h-.972v-4.533c.972-.647 1.944-1.619 2.914-1.942zM149.793 51.381c-.324.324-.973.324-1.295.647.646-.971 1.941-1.942 1.941-3.237.649.648 0 1.619-.646 2.59zM45.554 54.942l-7.769-6.151 7.445 5.503.324.648zM138.785 52.676l-.646 56.328c-1.295-.324-2.266-1.619-3.238-2.266l.973-46.941a48.632 48.632 0 0 1 0-9.711c1.292.647 1.94 1.619 2.911 2.59zM160.152 50.733c-2.914 1.942-6.152 4.208-9.064 5.18 2.912-2.266 6.15-3.237 9.064-5.827v.647zM56.56 56.561h-.647c-1.294-2.266 1.295-3.885 2.59-5.18l.324 3.561-2.267 1.619zM134.254 54.942c-.648 2.59 1.619 7.446-1.619 9.064-3.236 1.294.971 2.913-.646 4.855-1.943 3.237-4.857 5.503-9.064 4.532-1.943.324-3.562-1.295-5.18-.324 0 .971 1.295.647 1.617.971 4.209.647 8.418.647 12.303 0-.648 1.295-.324 2.914-.324 4.856-1.941.971-1.617 3.237-3.885 3.237-3.561.971-8.094 0-11.33-.971-3.236-1.942 0-5.18-.971-7.446 0-.647.324-.971 1.295-.971h.324c-.648-2.266.646-4.208 2.266-5.503-.971-1.295 0-2.59.322-3.562.324-1.294 1.943-1.294 1.943-2.59.971-.323 1.943-.647 2.914-1.618-.648-.647-1.295.323-1.943.323l-.324-1.295c-1.295.324-.971 1.943-1.941 2.267-.648-1.619 1.295-2.59.324-3.885-1.619 1.942-2.914 4.532-2.266 7.445-.973.647-.648 2.266-.648 2.914-1.941 1.618-1.295 4.208-3.236 5.827-.973 2.59-1.295 5.179-1.295 8.093 1.617.971.971 3.561.971 5.179-1.619 3.885-6.475 6.151-5.18 11.653 1.619 3.238-2.914 4.209-1.295 7.123.324 1.619 4.855 1.619 2.266 3.885 0 .971 0 1.941.648 2.266.646 0 .971 0 1.295.646-1.619 1.295-1.295 3.238-2.914 4.857.646 1.941 2.914 3.236 1.619 5.826-2.914 1.943-6.475 3.885-7.77 7.445-3.561-.971-7.77-.324-11.331-.646-2.59.646-5.503 0-7.77-1.295-1.295-2.59-4.532-3.885-3.561-7.123-.647-.646 0-2.266-.647-2.912-.972-2.914-.324-6.152-1.943-8.742 0-1.941-.971-3.236-.323-4.855-.971-1.295-3.238-1.941-4.208-3.561-.324 0-.647.324-.647.324 4.532 5.18 4.856 12.949 6.798 19.422-.971 1.943.971 3.562.971 5.182.647.971.647 1.617.971 2.588l-.324.324c-1.942.648-4.532.324-6.474 0-.647 1.295.971 1.295 1.619 1.943.971-.324 1.618.324 2.589.324.324-.648 1.295-.973 1.942-1.297 1.619 0 2.59 1.619 3.885.324 1.619.324 3.237-.324 4.532.648.324.971 0 2.266-.324 3.236-.324 1.943.647 4.531-.648 6.15.972.973 2.267 1.943 1.295 3.562-4.208 0-8.741.646-12.949-.324-2.914-1.619-6.475-1.619-7.77-5.18-2.266-.648-2.266-3.885-3.561-5.18-2.267-4.855-4.856-9.711-5.18-15.863.648-4.207-.971-8.092 0-12.301 1.295-4.531 2.914-8.74 7.122-11.006 2.59-.324 5.18.323 7.446 1.618 4.208 1.296 9.388 1.619 13.272.971l.971-.647c-.971-.647-2.266.324-3.237-.324v-.323l.971-.647-.647-.647c4.208-2.59 5.18-8.417 4.208-13.272-.324-1.295-.647-2.267-.971-3.561-.647-.324-.324.647-.647.971.971 3.884 1.295 8.74-.324 12.301-1.942 2.266-2.589 3.884-4.855 5.179-2.59.324-6.15.648-7.77-1.618 1.295-.971 2.266 1.618 3.561.647-1.295-.647-2.266-1.942-3.884-1.619v.647c-3.237.324-3.885-3.562-6.475-4.208-1.295-.324-.647-2.59-1.942-1.942-.647-.647-1.618-1.619-2.59-1.942 0-.647-1.619-1.295-.323-2.266-.647-.324-.972.648-1.295 0-1.295-2.266-.971-5.179.324-7.445-.324-.324 0-.648 0-1.295.972-1.295 2.267-2.914 4.208-3.561.972-1.295 2.267-1.295 2.59-3.237 1.619-.323 2.914-1.942 4.532-1.295.324-.971 2.267 0 1.295-1.295.324-.647 1.295.972 2.266-.323 0 .971 1.295.323 1.943.647.647.971 1.618.971 2.589.648.648-.324 1.619-1.295 1.942-1.942.647.647-.324.971-.324 1.618h1.295c.647-.647-.324-2.266.971-1.942.324 2.267 2.59.647 3.885 1.942.971 2.266 3.884 2.59 5.503 4.208 0 .324-.324.971-.971.647-1.295-.324-1.942-.971-3.237-1.619-.971.971-4.532-.971-3.885 2.266.647.324.971-.323 1.619-.323 0 .647-3.237 1.295-1.295 1.942.323-.971.971-.647 1.295-.647.324 1.295 1.619.971 1.942.647s.324-.647.971-.647c0 1.295.972.324 1.619.647.323 0 .323-.324.323-.324-.323-.324-1.294-.324-.971-.971.323-.324.647-.324.971-.324.324.648.324 1.619.972 1.295 0-1.295.971-.971 1.295-1.942.647.324.647 1.295 0 1.942-.324.971-2.59.324-1.942 2.266l-.324.323c0-.323-.323-1.294.324-1.618-.647 0-1.295 0-1.295.647 0 .324.323.971-.324 1.295-.648-1.295-1.619.647-1.942-.647l.324-.971c-.647-.324-.971.647-1.942.647 1.295.971 1.619 1.942.971 3.237 1.942 2.914 1.619 5.827 1.295 9.064-1.295 2.59-.971 6.475-4.532 7.445.971.647 2.59-.647 3.237.647 1.942 2.915 3.237 6.151 5.827 8.741-.647-2.59-2.59-4.855-3.885-7.445-1.618-2.914.972-4.532 1.942-7.122 1.942-3.885.647-9.064 2.267-13.272l-.648-.324c.324 0 .324-.324.648-.324v.324c0-2.59 2.589-3.561 2.914-5.827 2.914-4.208 7.121-6.475 11.654-8.74 4.855-5.827 11.977-8.093 19.1-9.388 1.617.976 3.884.976 4.855 3.566zM33.9 52.676h-.324l.324-.647c0-.001.324.323 0 .647zM142.023 112.564c-1.295-.324-2.266-1.943-3.238-2.914l.324-48.558.324-7.769 2.914 2.914-.324 56.327zM55.265 57.208l-2.913 2.59c-1.619-2.59 1.619-3.561 2.266-5.179.647.647.324 1.942.647 2.589z" fill="#fff"/><path d="M33.9 55.913c-1.295 0-2.59 0-3.237.971-.324.971-1.295 1.618-1.295 2.913 3.237 1.619 6.151 3.561 9.388 4.856 1.295.323 1.619-.972 2.59-1.295-.648 1.942-1.942 4.208-2.59 6.475h-.647c.324-1.619 0-3.237-1.619-3.561l-8.093-4.208c-1.295.324-.972 1.943-1.619 2.59-.647 1.618.647 2.266.971 3.237h-.971c-.323-.647-1.295-.971-1.942-1.295 1.942-3.884 3.884-7.445 5.503-11.33 1.295-.972 2.266.647 3.561.647z"/><path d="M31.958 55.589c0 .324-.647.324-.971.324-.001-.324.647-.647.971-.324z" fill="#fff"/><path d="M165.654 55.913c.324 1.942 1.295 3.237 1.943 4.856-.648.647-.648-.324-1.619-.324-3.561.971-6.799 2.913-10.359 4.208-.648.647-.324 1.618 0 2.266.324 2.266 2.59 3.237 4.533 3.885-.648.647-2.268.323-3.238.323-1.619-2.913-2.266-6.15-3.885-9.064 1.619.971 3.236 0 4.855-.971l6.475-2.913c.971-.324.648-1.295.971-2.266h.324z"/><path d="M145.908 61.092l-.648 47.912v8.416h-.324l-2.266-3.236V66.596l.324-9.064c1.295.647 1.942 2.59 2.914 3.56zM165.008 58.502c-3.238 2.267-7.123 3.237-10.359 4.532 3.561-1.295 7.121-3.237 10.359-4.855v.323zM51.381 59.15c.647 2.589-1.295 3.561-2.266 5.503-.324 0-.324.323-.647.323-1.295-2.266 1.295-3.885 2.266-5.827h.647v.001zM38.108 66.596l-9.064-4.532c3.237 1.294 6.475 2.59 9.064 4.532zM134.578 105.766h-.324l-2.59-2.266.324-25.25c.646-1.618.971-3.237 1.295-5.179-1.295-.324-1.619-1.943-.648-3.237 1.619-1.942-.646-5.179 2.266-5.827l-.323 41.759z" fill="#fff"/><path d="M81.487 66.919l1.295-.971c.647.323-.323.971-.647 1.295-.971.647-2.266-.324-2.913.971-.324.971.647.647.971 1.295l2.267-.971c0 .647-1.619.324-1.295 1.295.971 0 1.942-.324 3.237-.647 0-.647-.647-.324 0-.971.971-.971 3.561.324 3.561-1.619h-.973v-.647c.647-.324.971.323 1.619.647l-.647 1.295c.647.647 1.295-.971 2.266-.324-.647.971-2.266.647-3.561.647.647 1.619-3.237.971-.647 2.266-.971.647-1.295-.647-1.942 0l.647.971c-1.295-.971-2.914-1.942-4.208-.647-.324 0-.647-.324-.647-.324-.647.324-1.295.324-1.942 0 0-.647-.971-1.295-.971-1.942l.647-.324c0-.647-.647-.971-.971-1.619l.647-.971c1.293.972 2.588 1.62 4.207 1.295z"/><path d="M26.13 66.596v-.647c0 .323.325.647 0 .647z" fill="#fff"/><path d="M75.984 67.891c-.324-.971-1.942.647-1.942-.971.647 0 .971-.647 1.295-.647.323.323.647 1.294.647 1.618zM85.372 66.596c-.324.648-1.295.324-1.942 0 .647-.971 1.294 0 1.942 0z"/><path d="M78.573 67.567c-.324.971.648 1.619.324 2.59-1.942-.324 0-2.913-1.619-3.561.648 0 1.295.648 1.295.971z" fill="#fff"/><path d="M73.717 68.214c-.323.324-.323.647-.647.647l-.323-.971c-.647 0-1.295.647-1.618 1.295.323.324 1.294.324 1.294.647-.647 0-1.619.647-2.59.647.324-.324.971-1.295 1.295-1.942l-.972-.647c1.295-.647 1.619-.324 3.237-.324l.324.648zM172.129 73.07l-.324.324c-.646-.647-1.295-1.295-2.266-.647l-9.064 3.237c-1.295.971-.646 2.266-.646 3.237.971 1.618 2.59 2.589 3.885 3.237-.324.971-1.619.647-2.268.323-.971 0-1.293-.971-1.617-1.618-.648-2.59-1.295-5.18-2.266-7.77.322-.324.971.324 1.295.647 3.561-1.295 7.121-2.266 10.682-3.885.648-.324.324-1.619.648-2.266.97 1.62.97 3.886 1.941 5.181zM75.336 69.186c.971 3.237 4.532 2.266 6.798 2.59.971 1.295 1.942 1.619 2.914 2.59.971-.971 1.619.324 2.266.324-.324.971.971.971 1.295 1.295-.324.647-.647 1.295-1.619.971 0-.648-.971-.324-1.295-.971-1.942-1.295-3.561-3.237-5.827-3.237-.971-1.619-3.237.647-3.561-1.619-.647-.647-1.942-.647-2.913-.647.323-.649 1.295-3.886 1.942-1.296z"/><path d="M153.029 75.66l-.324 40.141c-.646 1.619-1.295 4.209-2.266 5.504 0 .324-.646.324-.646.646V78.897c.322-2.914-.324-6.798.322-10.036 1.295 1.943 1.944 4.533 2.914 6.799z" fill="#fff"/><path d="M69.833 69.186c-.324 0 0 .647-.647.647 0-.647.323-.647.647-.647z"/><path d="M158.209 70.48c-.646.647-.971-.324-1.295-.324l-.324-.647c.648 0 1.295.324 1.619.971zM90.875 70.48c0 .324 0 .971-.324.971-.647 0-.971-.324-1.295-.647.324-.324 0-.971.647-.971.325 0 .972 0 .972.647z" fill="#fff"/><path d="M35.195 73.718c0 .971.647 1.942.647 3.237 0 3.561-1.619 6.474-4.532 8.093-2.266.324-5.503.647-7.445-.971-2.59-2.59-2.914-6.475-1.619-10.035.971-2.266 2.914-3.561 5.503-4.208 2.914-.001 6.151.97 7.446 3.884z"/><path d="M169.863 70.48c-.971.971-2.266 1.295-3.561 1.619-2.268.971-4.857 1.619-7.123 2.59-.322-.971 1.619-.324 1.943-.971 2.913-1.295 5.827-1.943 8.741-3.238zM43.288 126.16c-1.295-1.617-1.942-3.885-2.59-6.15l.324-34.638c.648-3.885-1.618-8.417 1.295-11.33.647-.971.647-2.266 1.295-3.237v30.754l-.324 24.601z" fill="#fff"/><path d="M66.272 71.775c-.324-.324.323-.648.647-.971h.324l-.971.971z"/><path d="M31.31 71.775c.647.324 1.619.647 1.942 1.295-2.266-1.295-5.503-1.295-7.77-.647 0-.647 1.295-.647 1.942-.971l3.886.323z" fill="#fff"/><path d="M65.301 72.423c-.647.647-1.294 1.619-1.942 2.266.323-.971.971-1.942 1.942-2.266z"/><path d="M34.547 75.66c.971 1.295 0 3.561-.647 4.856-1.942 2.589-5.503 2.266-8.093 1.942-1.295-.648-2.59-1.295-3.237-2.59-.324-1.295-.647-2.913 0-4.208.647-1.619 1.942-2.59 3.885-2.914 3.236-.647 6.474.001 8.092 2.914z" fill="#fff"/><path d="M78.897 74.689c.324.647-.324.647-.648.971-2.266-1.295-4.208.324-5.827 1.942-.324.324-.324.647-.324 1.295l.647.647c1.295-.971 2.266-3.561 4.532-2.913.324.971 0 2.59-.647 3.237h-.647c.323-.647 1.294-1.619.971-2.589-1.295-.972-2.266.647-3.238 1.294 0 .324-.647.648-.323 1.619.647.324 1.295.647 2.266 0 0 .647-.648.647-.971.971-.647-.324-.972-.647-1.295-.324-.647.324 0 .971 0 1.619.323.647.971 0 1.295.323l.323-.323-.323-.324c.647-.324 2.589-.647 2.913-1.942-.324.971-.971 1.294-1.942 1.942l.324.324c-.647.323-1.619.647-2.59.647-.324-.971-.971-1.619-1.619-1.942 0-1.295-.971 0-1.295-.647.971-1.295.971-3.561 2.589-4.532 1.619-.972 3.562-1.942 5.828-1.619v.324h.001zM62.711 77.279c-.324-.324 0-.647 0-.647l.647-.971c.324.323.001 1.294-.647 1.618z"/><path d="M93.789 80.192c.647 4.532-1.295 9.064-3.237 12.625-.324-2.59 1.295-4.856 1.942-7.446.647-2.913 0-5.827-.647-8.74-.324-.647.647-.971 1.295-.971.647 1.295.322 2.913.647 4.532z" fill="#fff"/><path d="M78.897 76.307l-.324.324c-.323-.647.324-.324.324-.324zM78.897 77.279v.647-.647zM63.359 78.25c-.324 1.295 0 2.59 0 3.885l-.324.324c-.647-.972-.971-1.619-.971-2.914-.001-.648.647-1.295 1.295-1.295zM174.072 80.839c0 .971-.648 1.295-1.297 1.619-1.941.647-3.236-.972-4.207-1.942.646-.648 1.295.647 2.266.647 1.295-.324 2.266-2.266 3.238-.324z"/><path d="M173.424 81.164c-.971-1.295-1.941.971-2.266 0 .971 0 1.942-1.943 2.266 0zM40.375 80.516c-.324 11.654-.647 24.603-.647 36.904-1.942-3.236-.647-7.77-2.59-11.006l-.324-9.711c-1.295-.972 0-2.267-.324-3.562 2.59-1.295.971-3.885 1.619-6.151.646-2.266.646-4.856 2.266-6.474zM162.094 81.811c0 .324-.648.324-.971.324l-.648-1.295c.648.324.97.647 1.619.971zM131.016 102.529c-1.293 0-2.266-1.295-2.912-2.266.322-5.18 0-12.302.322-17.805.973-.324 1.943 0 2.59-1.295v21.366z" fill="#fff"/><path d="M69.833 82.134c-.324.324-1.619-.324-1.619.647.324.324.324.647.647.324 0 .648-.971 0-.971.971-.971 0-.647 1.295-.971 1.942 0-1.942-3.237 0-1.619-2.266 1.295-.97 2.591-3.236 4.533-1.618z"/><path d="M30.015 84.4l2.59-1.295c0 .971-1.619 1.295-2.266 1.942-2.59.324-4.856 0-6.474-1.619l-.648-1.295c1.943 1.62 3.885 3.239 6.798 2.267zM119.039 84.077c-.324-.323-.648-.971-.324-1.295h.646l-.322 1.295zM67.243 83.105c-.324.324-.324 1.619-.971 1.619-.324-.647 0-1.619.971-1.619zM127.455 83.429c0 5.18.324 11.654-.324 16.51-.971-.324-1.617-1.295-2.59-1.943 0-2.913 1.619-5.826.648-8.416-.324-1.943 0-4.208 1.619-5.503.323.323.323-.648.647-.648z" fill="#fff"/><path d="M72.099 85.372l-1.295-.647c-.647.324-.324 1.619-1.295 1.619-.971-.324-1.619.647-2.266.971l-.324-.647c1.619 0 2.59-1.295 2.914-1.942 0-.971.971-.324 1.295-.971.647.322.324.969.971 1.617z"/><path d="M122.6 85.048c.971 0 1.295-.647 1.941 0-.322 1.295-.646 2.914-.322 4.532.971 2.914 0 6.475-.971 9.064-.648.646-1.619 1.295-2.592.971-.971.324-1.617 1.295-2.912.648 0-.324 0-.648.324-.973.971 0 1.293.324 1.617-.322-.646-.324-1.295.322-1.941-.324-1.619 1.295-1.295 5.18-4.209 4.209-.646-1.619 0-3.885-.324-5.504-.322-.324-.646 0-.646.324v4.207c-.324 0-.324.324-.648.324l.324.324c-.971.646-2.266.324-2.59-.971v-7.77c1.943-2.914 4.209-4.532 5.828-7.446 2.266.324-.324-3.884 2.266-1.942 1.616.649 3.56-.322 4.855.649z" fill="#fff"/><path d="M79.544 85.372c-.323.971-.971 1.619-.971 2.59-1.618-.324-2.266 1.619-3.561 1.619-.323-.324-1.295.323-1.618-.647-.324 0-.647.971-.971.647 1.942-.647-.324-2.266 0-3.237.971.324.971 1.942 1.942 2.59.972 0 1.619 0 2.59-.647-.324-.971 0-1.295.647-1.619l.324.324c.647-.324.647-1.295.647-1.942l-.971-.324c.648-.649 2.266-.649 1.942.646zM174.719 87.314c.648 1.619-.646 3.561 0 5.503-1.295.324-2.266.647-3.885.647v-.324c1.619-.971 2.914-1.619 3.561-3.561 0-.971 0-1.943-.646-2.59-.324-.647-.973-.971-1.619-.647-3.561 2.266-2.59 10.035-8.74 7.769-.971-.647-2.266-1.294-2.266-2.589-.324-1.942-.648-4.208.971-5.503 1.295 0 2.59-.971 3.885-.971-1.619 1.295-3.885 2.266-4.533 4.532-.322 1.295.648 2.266.973 3.237.971.647 1.941 0 2.912 0 2.59-2.59 1.943-9.064 7.123-7.77.969.325 1.94.972 2.264 2.267z"/><path d="M82.458 85.372c-1.943 0-1.295 2.59-2.59 3.561-1.295 1.942-3.237 2.266-5.179 2.266 1.942-.647 4.532-.971 5.503-3.562.324-.971.647-3.237 2.267-2.589v.324h-.001z"/><path d="M171.482 85.048c-3.562 1.295-3.238 6.475-6.152 8.417h-1.617c5.18-.324 2.912-8.093 7.769-8.417zM50.733 137.168h-.323l-2.59-3.562c.647-15.537 0-31.076.647-47.91l2.59 3.237-.324 48.235zM163.064 86.019c.324.971-.646.647-.971.971-.323-.971.647-.647.971-.971z" fill="#fff"/><path d="M121.629 86.667h-.324c-.324-.324 0-.324.324-.324v.324zM123.895 86.667h-.971c0-.324.646-.324.971 0zM31.958 88.609c1.942 3.885-.647 7.446-.324 11.331-.971-.324-.971-1.943-1.942-1.619l-10.036-.971c-.647.324-.971 1.295-1.294 1.619 1.294-3.562-.971-10.036 3.884-11.655 2.59-1.295 2.59 5.18 4.209.971.647-.971 1.294-.971 1.942-1.295 1.618 0 2.589.324 3.561 1.619z"/><path d="M63.359 87.314c.323 1.295-.972.971-1.619.647.323-.971.971-.647 1.619-.647z" fill="#fff"/><path d="M86.343 87.314c-.647 1.942-1.619 3.237-2.266 4.856-.647.324-1.295 1.295-2.266 1.295.648-1.295 2.59-1.942 3.237-3.885 0-.971.324-1.943 1.295-2.266z"/><path d="M30.986 89.58c-1.295-.324-2.914-.324-4.208.323-.323-.971.971-.647.971-1.294 1.295 0 2.59 0 3.237.971zM64.654 90.228c.323.324.323 0 .647 0l.647-.971c.324 0 .324.647.647.971-.323.647-2.266.324-1.294 1.619l.324.324 1.295-1.295c.324.324-.324.971.324 1.295.647 0 1.295-1.619 1.619 0l.647-.647v1.295c-1.295-.971-2.266 1.294-3.237 0-.971.324-1.618-1.295-2.59-.324-.323-.971-1.942-1.295-1.295-2.266.324-.647.324-.971.972-1.619.97.323 1.941.646 1.294 1.618zM23.865 89.58c-1.619-.324-2.59.647-3.561.647 0-.971 1.295-.971 2.266-1.295.324-.323.971.324 1.295.648z" fill="#fff"/><path d="M82.134 89.903c-1.295.648-1.619 1.943-3.237 1.943 1.618-.324 1.618-1.943 2.913-2.59.324 0 .324.324.324.647z"/><path d="M31.958 91.522c0 1.942-.324 3.561-1.619 4.208l-4.856-.324c-.647-1.618.324-3.237.972-4.532.647-.972 1.942-1.619 3.237-.972.971.326 1.942.649 2.266 1.62zM54.618 131.988c0 3.236 0 6.797-.324 9.711-1.295-.646-1.295-2.266-2.59-3.238l-.324-1.941.324-46.939 2.914.971v41.436zM24.836 90.875c0 1.619 0 2.914-.648 3.884-1.294.972-2.913 0-4.208 0-.971-.647-.647-1.942-.324-2.913.648-.971 1.943-1.943 3.238-1.943.971.325 1.618.325 1.942.972z" fill="#fff"/><path d="M64.006 90.228c0 .324-.324.971.323 1.295v.324l-.971-.324c.324-.648-.323-1.62.648-1.295z"/><path d="M58.502 92.494c.648 8.741-1.618 18.127-.323 27.192 0 7.77.323 17.482 0 25.252-.972-.648-1.942-1.295-2.914-2.59l.324-50.825v-.647c.971.646 1.943.97 2.913 1.618zM172.775 92.494l.973-.972v.648l-.973.324z" fill="#fff"/><path d="M95.407 94.112c.324-.971 1.943-1.294 2.589-1.942 0 .647-1.618 1.619-2.589 1.942z"/><path d="M62.063 96.378c-1.295 1.618-1.942 3.237-2.59 4.856l-.323-.324.323-8.417 2.266.647.324 3.238zM63.682 93.465c.324.647-.323.971-.647 1.619-.323-.647-.323-1.295-.323-1.619.323-.324.647-.324.97 0z" fill="#fff"/><path d="M95.083 94.436c.324 1.295-.324 2.589-1.294 2.589-.972 0-1.619-.647-1.619-1.619-.324-.971.647-1.295 1.619-1.618.647-.323.647.648 1.294.648z"/><path d="M93.464 94.436c.324.647-.323.971-.647 1.295-.323-.324-.323-1.295.647-1.295z" fill="#fff"/><path d="M172.129 95.083c.324.647-.324.647-.646.971-.973.971-1.295 2.266-2.59 2.59 0 .971.971.646 1.295.971 1.295-.324 1.295-2.266 2.588-2.266 1.943-.324 3.238 1.295 4.209 2.266.973 1.619 0 3.238 0 5.18l-2.266-1.619c-1.619 1.943 1.295 2.59.971 4.857-.646-.973-.646-1.943-1.617-2.268-1.619 1.619 2.59 3.238 0 3.561-.973-.322 0-1.617-.973-1.941-.971 1.619-2.59 2.59-4.207 3.561-.324-.971 0-1.941-.648-2.912-.324-1.619.648-4.209-1.295-4.857l-1.295 1.619.324.324.324-.324c-.324.646.646 1.619.322 2.59-.646.324-1.941 0-2.59-.646-.971-1.297-.646-3.238-.971-5.18-.646.646-1.295 1.617-.971 2.588 1.295.973.971 2.592.971 4.209-.646.971-.971 2.266-1.941 2.914-.971.324-1.943.324-2.59-.648-1.619-.971-.971-3.561-.971-5.502.646-.973.971-1.619 1.941-1.619 1.295-1.295 1.941-2.266 2.914-3.885-.973-.324-1.619.324-2.266.648-.648 0-.324.971-.973.646-1.617-2.266 1.619-3.561 2.266-5.179 2.914-1.295 4.209 2.265 6.799-.324 1.295-.323 2.266-1.295 3.238-.323h.648v-.002z"/><path d="M170.188 96.703l-.648.322v-.647c-.971 0-.646 1.618-1.619 1.296 0-.324 1.295-.648.973-1.943.322-.324 1.295-.647 1.941 0l-.647.972zM165.008 97.674c-1.619.646-3.238.971-5.18 1.617 0-1.295 1.295-1.941 1.941-2.913.971 0 1.943-.323 2.59.647 0-.322.324-.322.324-.322.325.322.325.647.325.971zM167.92 96.378c0 .647-.646 1.296-.971 1.618 0-.646-.971-.971-.324-1.618.648.325.973-.323 1.295 0zM30.339 97.674l.647.322c-3.561 0-7.77-.971-11.654-.971.971-.971 2.59-.322 4.208-.322l6.799.971z" fill="#fff"/><path d="M112.24 97.674c-.324.322-1.295 0-1.619-.324l-.646-.324.324-.322c.322.97 1.295.97 1.941.97zM100.91 97.674c-.646 1.941-3.236 1.617-2.914 3.885-.322.971-1.294.971-1.942.646-.647-.324-.971-1.295-.647-1.941.971-1.619 2.914.646 3.562-.973.646-.971 1.295-1.617 1.941-1.617z"/><path d="M176.662 100.586c0 .648.322 1.295 0 1.943-.973-.324 0-1.943-1.295-1.619l-.324-.324.646-.646c-.646-.324-2.266 0-1.617-.971-.648.646-1.297.646-1.943.322 0-.646.646-1.295 1.619-1.295 1.295.324 2.266 1.619 2.914 2.59z" fill="#fff"/><path d="M121.951 98.32c-.322.324-.322.971-.646.648-.649-.323.324-.648.646-.648z"/><path d="M165.979 98.969l-2.266.971c.322-.971 1.295-.971 2.266-1.295v.324zM169.863 100.91l-3.238-1.295v-.646c1.295.322 2.914.646 3.238 1.941zM169.215 101.559c0 .646-.646.646-.971 1.295 0-1.295-1.619-2.268-2.59-2.59v-.648c1.295.648 2.59.97 3.561 1.943zM175.689 101.881c.324.648.648.973.324 1.295-1.619-.646-2.59-2.59-4.531-2.912v-.648c1.942-.325 3.561 1.294 4.207 2.265zM96.702 99.939c.323.646 0 1.295-.648 1.619-.971-.324-.323-1.619.648-1.619z" fill="#fff"/><path d="M68.538 100.264c1.295 1.295 2.59 2.912 3.561 4.531-.971.971-.971-.648-1.619-.648 0-1.941-1.295-2.588-2.59-3.236-.971-.646-1.942-.324-2.914-.324.972-.648 2.267-.323 3.562-.323z"/><path d="M130.693 103.5c1.941 2.59 4.531 4.855 7.121 6.799 3.885 4.531 6.799 8.74 10.684 13.596.646 1.943-1.295 4.209-2.268 5.504-.971 2.266-3.883 3.885-4.207 6.475-3.238 1.941-5.504 6.475-8.74 8.74-2.59 1.941-5.18 3.885-7.77 5.502-.648-1.293-.648-2.912-.973-4.531.324-3.236-1.293-6.475-1.617-10.035.646.324.646-.324.971-.324v-.646c-1.943 2.266-4.533.971-7.121 1.617-.324-.322-1.295-1.295-1.295 0 1.941.973 4.855.324 6.15 2.266.322.973-.973.648-1.295.973-1.943-.324-4.533 0-6.799 0-2.914 1.295-6.15.322-9.064.322-3.885 0-3.561-4.207-3.885-7.121 0-.646.973-1.295 1.619-1.295 2.266-2.914 4.531-6.475 8.094-7.77 0 .648.322 1.295-.324 1.619-.971-.324-1.943.648-2.59 1.295v.324c.646 0 .971-.971 1.619-.971l3.561.646c.324-.324 0-.646 0-.971.324-1.943-.648-4.209.324-5.828-.973-.322-1.295-.322-1.619-.971v-.646c2.266 0 5.504.971 6.475-1.619-.324-1.295-2.59-1.295-1.943-2.914-.322-1.295-2.912-.324-1.941-2.59 0-.324.646 0 .646-.324 1.619-1.295-1.295-2.266.324-3.883 1.295-1.619 3.885-.973 4.209-3.238 0-.646-.971-1.619 0-2.266 1.295-.648 2.912-.324 3.885-.971 2.912 0 5.502 1.941 7.769 3.236z" fill="#fff"/><path d="M27.749 102.529c1.295-.971 2.914-1.619 4.532-.648.647 1.295 1.619 2.59 1.295 3.561-.324 0-.647-.322-.647-.646-.647-.324-1.942-.971-2.59-.648-.324 1.295.971 1.619 1.619 2.914 0 2.266 3.237 1.619 3.237 3.885.971 1.619-.647 2.914 0 4.209-.647.971-1.942.646-2.914 1.295-1.942 0-1.295-2.59-2.59-3.885-.324-.971.647-1.619.971-2.266.324 0 .647-.648.971-.973-.647-1.293-1.295-3.561-3.561-3.885v.324c1.295.973 1.942 2.268 1.619 4.209-.647 1.295-.647 3.236-2.589 2.914-1.295 0-.972-1.295-1.942-1.943-.648.324-.648 1.295-.648 1.943.648.971-.324 1.619-.324 2.59 0 .646-.971.971-1.618.646-.971-.646-1.942-1.941-2.914-2.914-.647.648-.323 1.297-.971 1.619l-.647-.322c.647-.648 1.295-1.619 1.295-2.592-.324-.646-.647 0-.971.324-.647.648-.971 1.943-1.619 1.943 0-2.268 2.59-2.914 2.266-5.18 0-.324.647-.324.647-.971-1.618 0-2.266 2.588-3.884 2.912l-.324-4.855c1.619-1.295 2.59-3.561 4.856-2.914 1.619.324 2.266 3.885 3.561.971-1.295-.971-2.266-2.266-3.561-2.912.971-.971 3.561-.971 5.179-.648l2.266 1.943z"/><path d="M165.008 101.559c-.324 0-.648.646-.973.322-.322-.646.324-.971.648-.971.001 0 .647 0 .325.649zM26.455 102.205c-.324 1.619.971 1.619 1.618 2.266.324-.324.324-.646.324-.646 0 .971 1.294.971 1.618 1.941-1.295-.324-2.913-.971-4.532-.646l-1.942 1.295c-.647-.648.647-1.295 1.295-1.619.647 0 1.294 0 1.942-.648-.323-.322-.647-.322-.971 0-.324-.646-.647-1.293-1.295-1.941l-.324.324.648.646c-.648.324-1.295-1.617-2.266-.971 0 0-.971-.646-.324-.971 1.619-.325 2.914.97 4.209.97zM118.391 103.176c-.646 2.59-4.531 1.619-4.531 4.857h-.648c-.322-.973.648-1.943.973-2.914.971-.324 1.941-.324 2.59-1.295-.324-.971 0-1.943.322-2.59.647 0 .971 1.295 1.294 1.942zM173.748 103.5c-.648 1.295-.648 3.238-1.619 3.885-.324-.324-.324-1.295-.324-1.943.324-.322.324.324.648.324.322-.646-.648-.971-.324-1.941 0 0 .324 0 .324.322l.322-.322c-.322-.648-.646-.971-1.293-1.295 0 1.941 0 4.209-1.619 5.504h-.648c0-.648.973-.648 1.295-1.295-.646-.648-.971.322-1.295.322v-.971c.648 0 .973-.648 1.295-.971 0-.324-.322-.324-.322-.324-.324 0-.648 1.295-1.295.324 0-.973 2.266-.973 1.617-2.266l-1.617.971c0-.971 1.295-1.943 1.617-2.59 1.295.647 2.59.971 3.238 2.266zM30.339 101.881l-.324.324h-.647c0-.324.324-.646.647-.646 0 0 .324 0 .324.322zM161.77 104.795c.324.324.324.971.324.971 0 .324-.648.324-.971.324 0-1.619-1.295-.648-2.266-1.295-.324-.971 1.295 0 1.617-.648l1.295-2.588c.001.97-1.294 2.587.001 3.236zM31.958 102.205c0 .324-.647.324-.971.324l-.324-.324c.323-.324.971-.324 1.295 0zM167.598 102.854s0 .322-.324.322c-.324-.646-.971 0-1.619-.646v-.648c.97-.323 1.618.323 1.943.972zM109.326 102.529c0 .646-.322.971-.322 1.617 1.295.973 3.236 1.943 3.236 4.209-2.266.648-.324-2.266-2.266-2.266-.971-.324-1.619-.971-1.943-2.266 0-.647.649-2.589 1.295-1.294zM29.368 102.854s-.971.646-.971 0c0-.973.971-.325.971 0z" fill="#fff"/><path d="M105.119 103.176c-1.295 1.295-3.238 1.619-3.238 3.885-.646.324-1.617.324-1.941 0-.971-.646-.324-1.619-.648-2.266.648-.648 1.619-.324 2.268-.324 1.292.648 1.94-1.617 3.559-1.295z"/><path d="M116.125 103.824c-1.295.971-2.914.971-3.561 2.59-.324-1.295-2.914-1.619-2.59-2.914 1.941-.324 4.209.646 6.15-.324l.001.648zM164.359 104.146c-.324.324-.324 0-.646-.322 0-.648.322-.648.646-.648v.97zM165.979 103.176c0 .324-.324.648-.324.648-.646 0-.646-.648-.324-.648h.648zM30.339 103.5h.324v.324h-.324v-.324zM32.605 104.146c-.324 0-.971 0-.647-.646h.647v.646zM20.627 104.471l.323.648c-.647.646-1.618 0-2.266 0v.971c.971.324 1.942-.648 2.914-.648 0 .324.971.324.324.648-1.295.324-2.59.648-3.561 1.619-.647.646-.647 1.617-1.619 1.941 0-1.617 1.295-2.59 1.942-3.561 0-.324-.647 0-.971 0 .647 1.619-2.266.971-1.295 2.59h-.324c-.323-1.619.647-2.914 1.295-3.885.971 0 1.619-.971 2.59-.648l.648.325z" fill="#fff"/><path d="M97.996 106.414c2.914 1.619 5.504 5.18 8.094 7.121.971.648 1.295 1.295 1.941 2.266-1.617 0-1.941-2.266-3.561-2.59-2.266-1.941-4.207-4.855-7.121-6.15-.647-1.295-1.943-1.295-1.295-2.59.971 0 1.296 1.295 1.942 1.943z"/><path d="M100.91 105.119c.324.646-.324.971-.324 1.295h-.646v-1.619l.97.324zM164.359 105.441l-.324-.646h.649l-.325.646zM27.102 105.766c-.647.648-1.942.973-2.266 2.268v1.617c-.648-.646-1.295-1.617-.971-2.59.647-.647 1.942-1.295 3.237-1.295zM166.303 106.738c-.648.322-.973-.324-1.619-.324l-.324-.324c.648-.649 1.943-.324 1.943.648z" fill="#fff"/><path d="M29.044 107.385c-.972.324-2.267-.971-2.914.324h-.647c.647-.648 1.295-.971 1.942-1.619.324.648 1.619.324 1.619 1.295zM30.986 106.738v.322l-.647-.971c.324.001.324.325.647.649zM159.828 106.738c0 .322-.324.322-.324.646-.324-.324-.646-.646-.324-.971.324.001.648.001.648.325zM162.418 107.061v.324c-.648 0-.973.324-1.295-.324 0-.647.971-.647 1.295 0zM169.863 109.65s-.324-.324-.324-.646c.324-.648 1.943-.971 1.943-2.266 0 1.295-.324 2.266-1.619 2.912zM23.865 109.004v.322c-.648.324-.971-.646-1.619-.322 0 1.295 2.59.646 1.619 2.266h-.324l-.324-.324h-.647c0 1.295 1.942.648 1.295 1.943-.971-.648-1.942-.324-2.266-1.619-.324-.648 0-1.619-.324-2.59-.647.324-.971.971-1.295 1.619.324.322.324-.648.647-.324.323.646-.324.971-.324 1.619h.971l-.324 1.941h-.323c-.647-1.295-1.619-3.236-.972-4.855.972-.646 1.619-1.295 2.914-1.295l1.296 1.619zM159.828 108.033l-.324.646c0-.324-.324-.646 0-.646h.324zM160.799 109.975c-.324 0-.646-.324-.324-.324 0-.971 1.295-.971 1.943-1.617.322.97-.648 1.616-1.619 1.941z" fill="#fff"/><path d="M109.004 108.033c-.324 1.293-1.943 1.941-1.619 3.561-.324.646-.971.322-1.295.322-.971-.322-1.619-1.617-.971-2.266.971-.971 1.617.971 2.59-.324.646-.322.971-.971 1.295-1.293z"/><path d="M158.533 108.68l-.324.324v-.648c.324-.001.324.324.324.324zM29.044 109.004c.323.322 0 .322-.324.646-.323 0-.323 0-.647-.324 0-.322.971-.646.971-.322zM27.102 109.004h.323v.646h-.323v-.646zM113.859 109.004c1.295 2.266-1.943 1.295-.971 3.561h-.324c0-1.295-.324-2.266-1.295-1.943h-.648c-.322-1.942 2.268-1.618 3.238-1.618zM26.778 110.299c-.647-.324-.971.646-.971.646-.324 0-.324-.971-.324-1.295.647-.646 1.295 0 1.295.649zM33.9 110.299c-.647.322-2.266-.324-2.266 1.295h-.971c0-1.295 1.295-1.295 1.619-2.268.647.324 1.294.324 1.618.973zM159.504 110.299v.322c-.646.324-.646-.322-.971-.646 0-.971 1.619-.649.971.324zM106.09 110.621h-.646c-.324-.322 0-.971.646-.646v.646zM29.044 110.945c-.647.324-1.295 0-.972-.646h.972v.646zM34.547 110.621c0 .324 0 .973-.647.973-.324 0-.324-.324-.324-.648s.648-.001.971-.325z" fill="#fff"/><path d="M155.295 110.945c.324.648-.646.648-.646.971-.648 0-.324-.971 0-1.295.322.324.646 0 .646.324zM165.979 113.211c0 .324.324.648.324.973 1.295-.973 2.59-1.943 4.531-1.295.971.322 1.941 1.295 2.266 2.59.648 3.885-2.912 5.826-3.236 9.387 0 0-.324.324-.648.324-.646 0 .324-.646 0-.971-3.236-1.943-6.797-3.238-10.035-4.533-.646-.322-1.295 0-1.295.648 0 .322-.322.322-.646.322v-.322c2.266-2.914 2.266-10.684 7.77-8.74l.969 1.617z"/><path d="M32.605 111.916c0 .324 0 0-.324-.322.324 0 0-.324.324-.324v.646zM31.634 112.889c-.324 0-.647.322-.971.322-.324-.646.324-1.295.647-1.295.648 0 .324.648.324.973zM33.9 112.564h-.324v-.648c0 .324.648 0 .324.648zM165.008 113.211c-.973 0-2.268-.646-3.238 0-.324-.646.648-.322.971-.646.648-.001 1.943-.325 2.267.646zM23.541 115.479c-.971-.324-1.619-.324-1.942-1.295v-1.295c0 1.295 1.942 1.295 1.942 2.59zM115.154 113.535c.646.648 0 1.295.324 1.943-.324.971-1.295.971-2.268 1.295-.646 0-1.941 0-2.266-.973.324-1.941 3.238 0 4.209-1.617h-2.59l-.324-.324c-.646-.324-.646.324-.971.324 0 0-.648-.324 0-.648.972-.646 2.591-.646 3.886 0zM23.865 113.859v.324c-.648.324-1.295-.324-1.295-.973.647-.321.971.325 1.295.649zM33.9 113.535c.324.324 0 .648-.324.648-.324.324-.647 0-.647-.324s.647-1.295.971-.324z" fill="#fff"/><path d="M165.33 114.184c.648 1.617-.322 3.236-1.617 4.207-1.295.324-2.59-.322-3.561-1.295-.648-.971 0-1.941.646-2.912.972-.973 3.237-.973 4.532 0zM171.482 115.154v.324c-.648-.648-1.943-1.295-3.238-1.295 1.295-.648 2.59.001 3.238.971zM34.224 115.154c-.647.646-1.295 0-1.942.324v-.648c.324-.646 1.295.648 1.619-.322.323.322.646.322.323.646zM171.158 115.801c.646.648 1.295 1.943.646 2.914-.322.971-.971 1.941-1.941 2.59-1.619-.648-3.561-.648-4.533-1.619-.322-1.941 1.295-3.885 2.59-4.855 1.295-.001 2.268.323 3.238.97z" fill="#fff"/><path d="M35.195 121.629c.971 1.941.971 4.531.324 6.475-1.619 2.914-4.856 4.531-8.417 4.209-2.266-.973-4.856-2.914-5.18-5.504-.324-2.266-.647-4.209.647-6.152 1.942-2.266 5.503-3.883 8.417-2.912 1.943.646 3.561 2.265 4.209 3.884zM115.801 119.686c0 1.295-.322 3.562 1.619 3.562.648.646 2.266 0 2.59 1.295 0 1.941 2.59 3.561 1.619 5.826l.971 3.236c-1.619 0-3.238-.322-4.531-.646-.324 0-.648.324-.973 0 .973-1.295 2.914-1.619 4.209-2.914.324-.324.324-.971.324-1.295-.324-.646-1.295-.646-2.268-.646-1.293.322-1.617 1.941-3.236 1.617l-.324.324c-.322-.324 0-.971.648-1.295 1.295-.324 2.59-1.295 3.885-1.619 0-.646 0-1.293-.648-1.617-1.617.646-4.207 0-6.15.646 1.295-1.295-.324-2.912.324-3.885 0-.971-.324-2.59.324-3.236 1.295 0 2.266-.648 3.561-1.619-.325.971-1.944 1.295-1.944 2.266z"/><path d="M30.986 118.068c-2.589-.324-5.503.322-7.122 2.588-.971.648-.971 1.619-1.619 2.592-.323-1.619 1.619-3.562 2.914-4.533 1.619-.971 4.209-1.295 5.827-.647zM169.215 123.248v.322l-10.035-4.531c.324 0 1.295 0 1.619.324 2.914 1.293 6.15 2.266 8.416 3.885zM34.547 121.629c.647 1.295.647 2.914 0 3.885-.971 1.941-2.59 2.912-4.208 3.885 1.619-.324 3.237-1.619 4.208-2.914-1.295 2.914-4.208 4.209-7.122 4.533h-.647l.971-.324c-1.294-.324-2.913-.324-3.884-1.619-.971-.971-1.619-2.266-1.295-3.885.971-3.238 4.532-5.826 8.093-6.15 1.295.323 3.237.97 3.884 2.589z" fill="#fff"/><path d="M165.654 130.045c.324 2.59-.646 5.828-3.236 7.445-.973.971-1.619 1.295-2.914 1.619-3.561-.648-5.826-2.59-8.74-4.855-1.295 0-1.295.971-2.266 1.295.971-1.619 2.266-3.885 3.561-5.18-1.295 2.914 2.266 3.236 3.561 4.855 1.943.971 4.209 2.59 6.15 1.295 1.943-1.619 3.561-3.561 2.59-6.475-1.295-2.266-3.885-3.885-6.475-5.18-1.295-.322-2.266.648-3.561 1.295.971-1.295 1.941-2.912 2.914-4.209.971 3.888 6.475 3.888 8.416 8.095z"/><path d="M119.361 124.219c.324.324 0 .646-.322.971-1.295.324-2.59 0-2.914-.646 0-.324-.324-.973.324-1.295.971.321 1.619 1.616 2.912.97zM62.063 131.018l-.323 16.832c-.971-.324-1.618-1.295-2.589-1.941v-22.014c.971 2.589 2.266 4.855 2.912 7.123zM157.238 124.219v.324h-.973c.001-.648.649-.648.973-.324z" fill="#fff"/><path d="M40.698 132.635c-3.237-1.295-4.855 2.59-7.122 3.885-1.295 1.295-3.885 1.941-3.561 4.209.971 2.59 3.561 2.59 5.827 3.236-.324.648-1.619.648-2.266.973l-1.295-.324-5.503-7.123h1.942c2.914-2.266 6.151-4.855 8.74-7.445l-.323-1.619c1.618 1.294 2.266 2.913 3.561 4.208zM30.339 129.721c-.971.324-1.294.973-2.59.648.971-.324 1.942-.324 2.59-.648z"/><path d="M29.044 138.139c-.324 0-.647.322-.972 0 2.914-2.59 7.122-4.855 9.712-7.77v.648l-8.74 7.122zM100.264 131.664c-1.295 3.885-.648 9.064 0 12.949.322.971 1.295 0 1.941.646.646-1.295.646-3.236 1.619-4.207.646 1.295.322 2.59 0 3.885-.648 1.941-3.238.971-4.855.971-1.619-1.619-4.209.322-5.828-1.619-1.295-.324-2.59-.324-2.914-1.941-1.295-3.562-.324-6.799-.324-10.359 1.295-.971 3.237-1.943 4.855-.971.972.646 1.295-.973 1.943-.648 1.295.323 2.914-.001 3.563 1.294zM65.625 150.115c-.971 0-1.618-.971-2.59-1.293v-16.188c5.179 4.21 1.619 11.979 2.59 17.481zM160.799 138.461c-4.209 1.295-6.475-3.236-9.711-4.531 3.236 1.295 6.15 5.179 9.711 4.531z" fill="#fff"/><path d="M152.059 138.461c.646 2.268-.324 4.533-2.266 5.828h-.324c1.295-.646 1.619-2.59 1.295-3.885-.648-1.295-1.619-1.943-2.914-2.266-1.295.646-2.914.971-3.561 2.266l.324 1.619 8.092 6.799c.973.322 1.619-.648 2.266-.973v.648c-1.617.971-1.941 2.912-3.561 3.885v-1.295l-8.092-7.445c-.971-.324-1.295.646-2.266.646 2.913-2.913 6.473-11.976 11.007-5.827z"/><path d="M151.088 139.434v.646c-.648-.646-.973-1.295-1.943-1.941l-1.295-.324c.648-.646.971 0 1.619 0 .646.324 1.295 1.294 1.619 1.619z" fill="#fff"/><path d="M46.202 139.756c2.589 2.914 6.15 5.504 5.179 9.713-.324 2.266-2.59 4.209-4.208 5.18-6.151 2.59-9.064-3.561-12.625-6.799.647-.646 1.619.648 1.942-.324l7.769-7.445c.648-.646.324-1.619 0-2.266.648-.001 1.295 1.619 1.943 1.941z"/><path d="M69.186 142.67v9.713c-1.295 0-1.942-.973-2.914-1.619l.323-11.654c.972.97 1.619 2.265 2.591 3.56zM44.583 140.729c-2.59 2.59-4.855 5.502-8.093 7.77v-.648c2.914-2.59 5.827-5.18 8.417-8.094l-.324.972zM49.115 143.965c.971 2.914-.324 6.15-2.266 8.094 2.266-1.295 2.913-3.885 3.237-6.475.647 2.266-.647 4.209-1.295 5.826-1.619 1.619-3.884 3.885-6.798 2.59 1.619 0 3.237-.322 4.209-1.295-.648 0-1.295.648-1.943.648-1.942.646-3.884 0-5.179-1.295-.324-.648-1.295-1.619-.647-2.914 2.589-2.59 5.18-4.855 8.093-7.445.97 0 1.941 1.295 2.589 2.266zM119.686 144.289v.324c-.971.971-1.295-.648-1.295-1.295v-1.295c1.619-.324.324 1.942 1.295 2.266zM72.747 153.354c-.971.971-1.618 0-2.59-.324l-.324-.324v-9.711l2.914.971v9.388zM33.9 143.965c0 .648-.647.324-.971.324l-.971-.971c.971 0 1.294.647 1.942.647zM151.734 150.115c-.971-.322-2.914-1.941-3.885-2.912-1.295-1.295-2.59-1.943-3.885-3.885 2.591 2.266 5.829 4.207 7.77 6.797zM76.631 144.289c-.647 3.236 1.618 7.445-2.914 8.094l-.323-.324v-7.77c.971-.971 1.942 0 3.237 0zM80.192 145.26c.972 2.59-1.619 3.238-2.59 4.533-.971-1.295-.324-3.562-.324-5.18.972-.324 2.266-.324 2.914.647zM82.782 145.26c-.323.971-.971 1.295-1.942 1.619 0-.648-.324-1.619.324-1.941l1.618.322z" fill="#fff"/><path d="M93.141 146.23c2.59.973 5.503 0 7.769 1.619 0 3.561.971 7.123 2.914 9.389v.646c-7.77 1.943-16.834.324-24.603-.971-1.943-.971-4.532-.971-5.827-2.59.323-.971 2.266-1.295 2.913-1.941 1.942-1.619 4.208-2.914 5.827-4.857 1.619-.971 3.885-1.941 5.827-1.941 1.943-.324 3.561-.324 5.18.646zM119.686 146.23c-.324.648.648 1.295-.324 1.619-.971 0-.971-1.295-.646-2.266.323-.323.97.325.97.647zM119.686 152.059c-.324 0-.646-.324-.646-.648 0-.322 0-.646.322-.971-.322-.646-.322-1.295-.322-1.617.322-.648.971-.324.971.322.324.324-.648 1.295 0 1.619l-.325 1.295z" fill="#fff"/><path d="M135.549 150.115c-.324.648-.648 1.619-.324 2.268l4.855 8.092c.973.648 1.943 1.295 2.914.324v.648c-1.619.646-2.914 2.266-4.533 2.912.973-2.266-1.295-4.531-2.266-6.475-1.941.648-3.885 2.59-5.826 3.562.324 1.617 1.295 3.883 2.914 4.855.646.322 1.295 0 1.941 0v.322c-1.619.973-2.914 1.943-4.531 2.914l.322-1.619-5.826-9.387-2.266-.324c1.617-.971 2.912-2.266 4.855-2.914-1.619 2.266 1.295 3.562 1.943 5.504 1.941-.971 3.883-2.266 5.502-3.561-.324-1.295-1.295-3.238-2.266-3.885-.648-.971-1.619.646-2.266-.324 1.62-.968 3.239-1.939 4.858-2.912zM60.445 153.678l6.15 4.207c-.647.648-.647 1.943-1.941 1.943.647-.648.971-1.295.323-1.943-.971-1.295-2.266-2.59-3.885-2.59-.971 1.619-1.942 2.59-2.59 4.533.971.646 1.943.971 3.237 1.619l1.619-.973c-.647 1.619-1.619 2.914-2.267 3.885.647-1.941-1.295-3.236-2.913-4.207-1.295 1.941-2.914 3.236-3.237 5.826 1.618 2.266 4.532 1.941 6.798 1.619-.323.646-1.294 1.295-2.266 1.617-3.561-.322-4.855-4.207-8.417-4.855 2.914 0 3.237-3.561 4.855-5.18L59.15 154c0-.646-.971-.971-.971-1.941.971.324 1.618 1.295 2.266 1.619z"/><path d="M135.873 156.59h-.324l-2.266-3.885c1.295.973 1.942 2.59 2.59 3.885zM59.474 154.973c-1.942 3.561-3.884 5.826-5.827 9.062.324-1.617 1.942-3.561 2.913-5.178L59.474 154v.973zM139.109 162.094l-2.265-4.209 2.265 3.885v.324z" fill="#fff"/><path d="M71.128 159.18c1.618 4.209 3.236 8.094 5.503 11.979.971-.648.971-2.59 1.618-3.561.324-1.619 1.619-3.562.648-4.855l-1.295-1.295c1.295.322 3.237.646 4.208 1.617-2.266.648-2.266 3.561-3.237 5.504-.647 2.266-1.295 4.855-2.266 6.799h-.323c-2.267-4.533-3.885-8.742-6.151-13.273-.971 1.619-1.619 3.885-1.942 5.504 0 1.295-1.295 2.266-.971 3.885.324.971 1.295.971 1.942 1.295-1.619 0-3.237-.648-4.855-.973 1.294 0 2.266-1.295 2.589-2.266l2.59-9.387c.324-.973-1.295-.973-1.295-1.943l3.237.97zM123.248 161.77c0 .324.322.648 0 .973-.973-1.295-2.592-2.914-4.209-2.59-1.295 0-2.266.646-2.59 1.617-.648.973 0 1.943.971 2.59 2.914.971 7.77-.324 8.416 3.885 0 1.619-.322 2.914-1.295 4.209-1.617 1.295-4.207 1.295-6.15 1.295-.971-.971-.971-2.59-1.941-3.561h.646s0 .322.324.322h.324c.324.973 1.617 1.619 2.59 2.268 1.295.322 2.59 0 3.561-.648.646-.971.971-1.941.646-2.914-2.59-3.885-10.682.324-9.711-6.797a6.358 6.358 0 0 1 2.914-2.914c1.295-.646 2.912.648 3.885-.971.971.646.971 2.265 1.619 3.236z"/><path d="M126.809 159.828l-.648-1.295c-.001.647.648.647.648 1.295zM121.951 160.799c-.322 0-.646-.324-.646-.646.324-.001.646.322.646.646zM131.664 167.598c-1.619-2.268-2.914-4.209-3.885-6.799 1.295 2.265 2.914 4.531 3.885 6.799zM61.74 161.77c.324.324-.323.648-.323.973v-.973h.323z" fill="#fff"/><path d="M112.564 162.094l-1.295 1.295c.324 3.561 1.295 7.121 1.941 10.682.648.973 1.619.648 2.59.973-1.941.646-3.885.971-5.826 1.295 0-.648.646-.648.971-.971-.646-3.885-.971-7.447-1.941-11.332-.324-.646-1.295-.646-1.943-.646.648-.971 2.266-.324 3.238-.971.971-.001 1.617-.649 2.265-.325z"/><path d="M75.66 173.748c-1.943-3.561-3.237-7.445-4.856-11.33 1.943 3.561 3.561 7.445 4.856 11.33zM79.868 163.389h-.324v-.646c.324.321.324.321.324.646z" fill="#fff"/><path d="M93.789 164.359v3.885c-.647-.646-.972-1.941-1.619-2.59-1.295-1.295-3.237-2.266-5.18-1.619-2.266.973-4.208 3.562-3.885 6.152.324 2.912 1.295 5.502 3.885 6.797 1.295.324 2.914.648 3.885-.971-.324-1.295 1.295-3.236-.324-4.209-.324 0-.971 0-.971-.322l5.503.322c-1.942.324-1.619 2.914-1.942 4.209-2.914 1.619-7.122 2.914-10.036 0-1.619-1.619-2.59-3.236-2.266-5.504 0-2.912 1.942-5.18 4.208-6.475 1.942-1.617 5.503-.646 7.446.648l1.296-.323zM100.91 163.713c-.324 0-.971.646-1.295 1.295l.324 11.006c.646 1.295 2.266.971 3.236.971 1.619-.646 2.914-1.941 4.209-2.914-.324 1.297-.648 2.592-1.619 3.238-3.236 0-6.475.324-9.388.324.324-.324.972-.648 1.296-1.295 0-4.209 0-7.445-.648-11.33-.323-.648-.971-.648-1.294-.973 1.294-.322 3.56 0 5.179-.322z"/><path d="M124.865 168.568v.971c-1.295-4.531-8.416-.646-9.387-5.18 2.266 3.561 7.446.971 9.387 4.209zM98.32 165.979c0 3.236.324 7.445-.324 10.684 0-3.238-.322-7.77-.322-11.654l.646.97zM111.594 174.719c-.973-2.914-1.295-6.475-1.619-9.389.97 2.914.97 5.828 1.619 9.389zM82.134 173.424c.324 1.295 1.295 1.943 1.942 2.914-.971-.648-1.942-1.295-2.266-2.59-.971-2.914-.647-6.15 1.619-8.094-1.295 2.266-2.59 4.856-1.295 7.77zM93.141 166.303l-.324-.649.324.325v.324zM60.122 168.244c.324.648-.648.324-.648.324H58.18v-.324h1.942zM66.595 171.158c-.323 0-.323.324-.647.646h-.324c.001-.646.324-.97.971-.646zM119.039 172.777v.322c-.648.324-.971-.322-.971-.646.323 0 .971 0 .971.324zM91.846 172.777c0 .971 0 1.941-.324 2.59v-2.59h.324zM104.795 176.984s-.324 0-.324-.322l1.619-1.295c.324.647-.647 1.295-1.295 1.617z" fill="#fff"/></g></svg>