<svg height="769" viewBox="0 0 143.624 42.469" width="2500" xmlns="http://www.w3.org/2000/svg"><path d="M42.125 0l-16.25 42.469h2.719L44.844 0zm45.813 0l-16.22 42.469h2.72L90.656 0zm52.968 0l-16.219 42.469h2.72L143.624 0zM58.125 3.781c-6.563 0-11 3.949-11 9.781 0 2.193.755 4.093 2.156 5.594 1.355 1.405 3.014 2.108 6.031 3.032l3.344 1.03c3.991 1.203 5.844 3.17 5.844 6 0 1.882-.763 3.42-2.313 4.595-1.362 1.033-2.655 1.437-5.156 1.437-3.497 0-6.194-.929-9.031-2.969l-1.969 3.5c3.499 2.162 6.883 3.157 11 3.157 3.1 0 5.365-.66 7.594-2.094 3.025-1.935 4.719-4.994 4.719-8.188 0-2.141-.853-4.433-2.25-6.031-1.399-1.597-2.982-2.507-5.969-3.438l-3.844-1.218c-3.914-1.257-5.406-2.693-5.406-5.219 0-3.25 2.366-5.281 6.469-5.281 3.325 0 5.41 1.097 8.187 2.906l1.969-3.25c-3.194-2.165-6.491-3.344-10.375-3.344zm38.156.688V38.25h4.531V22.094h14.282V38.25h4.625V4.469h-4.625v13.843h-14.282V4.47zM0 4.53v33.782h9.312c5.125 0 6.456-.287 8.344-1 3.455-1.34 5.563-4.817 5.563-8.344 0-2.55-.89-5.272-3.219-7.032-1.039-.813-2.16-1.307-3.844-1.687 3.53-1.371 5.594-3.748 5.594-7.188 0-3.604-2.41-6.55-6-7.78-1.795-.616-3.505-.75-10.313-.75zm4.437 3.75h4.875c1.75 0 2.765.101 3.688.344 2.247.573 3.75 2.376 3.75 5 0 .922-.195 1.506-.531 2.281-.957 2.195-3.04 2.875-5.813 2.875H4.437zm0 14.25H10.5c1.686 0 3.027.178 3.969.375 2.326.474 4 2.782 4 5.719 0 3.981-1.904 5.906-6.719 5.906H4.437z" fill="#231f20" fill-rule="evenodd"/></svg>