<svg xmlns="http://www.w3.org/2000/svg" width="2500" height="2465" viewBox="0 0 23.237 22.915"><path d="M10.669 4.004c.164-.037.271-.137.328-.312.036-.115.045-.23.045-.568v-.426c0-.312-.018-.479-.066-.591a.431.431 0 0 0-.242-.241c.21-.086.309-.281.309-.644V.7c0-.164-.018-.3-.045-.379a.435.435 0 0 0-.287-.274 3.42 3.42 0 0 0-.513-.031h-.785V4.03h.953c.128-.006.247-.015.303-.026zm-.339-.832c.003.141-.031.19-.15.185h-.054V2.245l.072-.006c.106 0 .132.047.132.22v.713zm0-1.919c0 .217-.018.249-.168.249h-.036V.663l.049.006c.088 0 .11.01.137.053.018.036.018.068.018.257v.274M11.361 3.867c.115.147.23.173.651.173.521 0 .646-.025.758-.204.078-.134.101-.244.101-.591v-.647c0-.405-.026-.512-.151-.664a1.828 1.828 0 0 0-.305-.249l-.305-.199c-.133-.086-.159-.134-.159-.27v-.29c0-.131.003-.162.017-.199.013-.037.054-.069.09-.069.029 0 .065.026.083.074.015.025.018.068.018.193V1.4h.712V.833c0-.375-.022-.5-.106-.634-.107-.168-.221-.199-.65-.199-.496 0-.626.026-.736.146-.106.115-.141.259-.141.591v.469c0 .29.013.39.062.5.054.122.155.232.328.348l.296.201.089.052c.119.079.143.105.146.257v.644c0 .115-.04.174-.106.174-.072 0-.101-.059-.101-.227v-.779h-.713v.717c0 .279.004.364.013.442a.586.586 0 0 0 .109.332M13.039.015h.713V4.03h-.713zM5.279 11.347a6.39 6.39 0 1 0 12.782.002 6.39 6.39 0 0 0-12.782-.002zm6.304 6.005l-4.39-7.935h8.812l-4.422 7.935zm2.284-11.068a2.488 2.488 0 0 1 2.487 2.401H6.875a2.49 2.49 0 0 1 4.741-.971 2.486 2.486 0 0 1 2.251-1.43M3.875 16.012c.122-.062.276-.211.131-.494l-.311-.604-.619.316.29.568c.129.254.279.331.509.214"/><path d="M14.512.041v4.105a7.724 7.724 0 0 1 4.836 7.162 7.717 7.717 0 1 1-15.435 0 7.722 7.722 0 0 1 4.713-7.112V.068C3.659 1.389 0 5.916 0 11.297c0 6.415 5.203 11.618 11.619 11.618 6.417 0 11.618-5.203 11.618-11.618 0-5.419-3.709-9.97-8.725-11.256zM2.588 17.33l-.062.032-.274-.536c.093-.09.202-.169.442-.291.315-.163.429-.245.245-.604l-.256-.5-.908.464-.243-.475 2.321-1.186.601 1.171c.315.617-.083.965-.282 1.067-.257.13-.542.114-.737-.077.013.235-.005.375-.438.595-.339.175-.424.217-.409.34zm2.119 1.874l-.341.31-1.331-1.462 1.929-1.755 1.29 1.418-.342.311-.93-1.023-.405.369.855.94-.342.31-.854-.939-.499.453.97 1.068zm1.999 1.912l.124-.308c-.2.063-.495.16-.898-.09-.536-.328-.786-1.011-.305-1.788.373-.606 1.062-.971 1.808-.508.681.418.677 1.025.514 1.347l-.464-.284c.052-.087.065-.463-.262-.664-.331-.204-.778-.163-1.127.405-.373.606-.14.968.176 1.161.103.062.468.23.838-.157l-.516-.316.229-.375.927.57-.734 1.196-.31-.189zm1.035.44l.894-2.447.513.186-.896 2.449-.511-.188zm3.456-1.036l-.514-.088c.005-.117.009-.396-.46-.477-.204-.035-.46-.003-.5.23-.035.2.122.271.226.314l.599.263c.336.146.635.344.554.806-.132.772-.931.705-1.156.667-.937-.161-1.005-.729-.95-1.048l.515.088c-.021.145.003.428.473.509.255.045.548.031.595-.241.033-.198-.15-.287-.412-.397l-.266-.111c-.397-.168-.782-.331-.685-.895.049-.287.29-.765 1.123-.622.786.135.909.687.858 1.002zm1.672 1.748l-.543.04-.162-2.141-.786.06-.033-.459 2.112-.159.035.459-.785.059.162 2.141zm1.48-.217l-.828-2.472 1.816-.609.146.438-1.312.439.176.521 1.205-.405.145.438-1.204.405.214.64 1.37-.46.146.437-1.874.628zm3.962-1.89c-.099-.082-.191-.182-.34-.405-.199-.296-.292-.398-.628-.176l-.468.314.567.847-.444.297-1.448-2.166 1.095-.733c.576-.386.965-.029 1.092.157.159.238.176.525.009.74.231-.041.372-.039.643.364.211.318.264.396.386.368l.037.058-.501.335zm1.128-.926l-1.971-1.705 1.254-1.45.348.303-.905 1.046.416.359.83-.962.351.303-.833.96.512.441.945-1.093.348.303-1.295 1.495zm1.768-2.224l-2.354-1.119.494-1.04c.378-.792 1.131-.636 1.577-.424.505.241 1.138.787.768 1.563l-.485 1.02"/><path d="M20.721 14.947c-.695-.331-.908-.027-1.008.183l-.225.473 1.542.732.227-.479c.19-.399-.15-.726-.536-.909M16.808 18.572l-.565.377.388.58.532-.355c.235-.157.295-.316.153-.531-.079-.115-.243-.248-.508-.071"/></svg>