<svg xmlns="http://www.w3.org/2000/svg" width="2500" height="2500" viewBox="0 0 192.756 192.756"><g fill-rule="evenodd" clip-rule="evenodd"><path fill="#fff" d="M0 0h192.756v192.756H0V0z"/><path fill="#253950" d="M13.049 86.636h12.329l-.629 2.466H15.08l-1.741 9.041h9.525l-.532 2.273h-9.235l-2.127 11.457H8.504l4.545-25.237zM49.794 86.684h2.756l5.802 25.142h-2.515l-5.366-21.323-5.995 9.815h5.801l-1.45 2.612h-5.995l-5.222 8.943h-2.466l14.65-25.189zM78.32 86.684s9.041 0 10.443.483c1.354.532 4.497 1.596 4.642 6.092.145 4.159-2.659 6.672-3.82 7.446-2.417 1.645-4.787 1.789-4.787 1.789l4.98 9.332h-2.901l-6.043-11.41s5.85.627 8.268-1.936c1.74-1.836 2.659-5.318 1.064-7.396-1.499-1.934-3.771-1.837-5.802-1.886a163.723 163.723 0 0 0-3.917-.145l-4.013 22.82h-2.562l4.448-25.189zM114.049 86.684s9.043 0 10.396.483c1.402.532 4.545 1.596 4.689 6.092.145 4.159-2.66 6.672-3.82 7.446-2.418 1.645-4.834 1.789-4.834 1.789l5.027 9.332h-2.949l-6.043-11.41s5.898.627 8.316-1.936c1.74-1.836 2.609-5.318 1.062-7.396-1.498-1.934-3.771-1.837-5.801-1.886a164.13 164.13 0 0 0-3.916-.145l-4.062 22.82h-2.562l4.497-25.189zM127.539 111.584c0-.629.482-1.16 1.16-1.16.629 0 1.111.531 1.111 1.16 0 .676-.482 1.209-1.111 1.209-.678 0-1.16-.484-1.16-1.209zm1.16 1.451c.773 0 1.402-.629 1.402-1.451 0-.773-.629-1.402-1.402-1.402s-1.451.629-1.451 1.402c0 .822.678 1.451 1.451 1.451zm-.338-1.306h.289l.436.678h.291l-.484-.678c.242-.049.436-.193.436-.482 0-.291-.193-.436-.58-.436h-.629v1.596h.242v-.678h-.001zm0-.243v-.482h.338c.193 0 .387.049.387.242 0 .24-.193.24-.387.24h-.338zM14.934 116.998c0 1.307-.58 1.742-1.305 1.742-.773 0-1.354-.484-1.354-1.742.049-1.354.581-1.74 1.354-1.74.725 0 1.305.242 1.305 1.74zm-1.353-1.594c-.435 0-.773.531-.773 1.547.048 1.256.338 1.547.773 1.547s.773-.533.773-1.547c.049-1.015-.338-1.547-.773-1.547zM119.271 115.258v3.336h.581v-2.127l1.16 2.127h.484v-3.336h-.58v2.467l-1.307-2.467h-.338zM25.716 115.258v3.336h.58v-2.127l1.161 2.127h.483v-3.336h-.58v2.467l-1.305-2.467h-.339zM38.577 115.209h1.74v.195h-1.16v1.934h.871v.144h-.871v.967h1.16v.145h-1.74v-1.112h-.193v-.144h.145l.048-2.129zM70.1 115.209h1.789v.195h-1.16v1.934h.822v.144h-.822v.967h1.16v.145H70.1v-1.112h-.144v-.144h.144v-2.129zM83.977 115.209v.195h-.967c-.193.047-.29.24-.241.531.048.338 1.547 1.111 1.547 1.74-.048.629-.193.773-.435.918-.242.146-1.692.098-1.692.098v-.242s1.112.049 1.306-.096c.29-.193.338-.533.242-.727-.145-.193-1.45-1.111-1.547-1.547-.048-.387 0-.773.484-.871l1.303.001zM94.952 115.209h.629v3.385h-.678l.049-3.385zM108.104 115.258s-.58-.145-1.209.098c-.58.289-.58.725-.678 1.16-.096.436 0 1.256.145 1.645.193.387.387.482.629.58.291.096 1.596.047 1.596.047v-1.209s0-.338-.289-.531c-.34-.289-.967-.193-.967-.193v.291s.531.047.627.047c.049.146 0 .969.049 1.209-.531.098-.725.049-.967-.289-.193-.34-.242-1.16-.242-1.451.049-.482.145-1.062.629-1.111h.678v-.293h-.001z"/><path d="M74.404 66.426s3.529 8.703.725 22.337c-2.949 14.409-8.896 24.174-8.896 24.174s2.708-7.494 4.352-14.215c1.064-4.399 2.224-10.83 2.708-13.828 1.352-8.363 1.111-18.468 1.111-18.468zM78.997 70.39s16.971 5.657 23.255 19.727c2.176 4.787 2.805 10.54 2.949 12.233.773 12.135-7.832 23.98-7.832 23.98s7.205-13.828 4.352-27.172c-1.258-5.85-.871-4.545-3.24-9.525C92.438 76.821 78.997 70.39 78.997 70.39zM134.598 67.344h21.031l-21.031 32.25v-32.25zM165.299 124.59l-30.895-.049.049-16.873h16.631l-1.449 9.234h4.158l1.016-9.332h3.432l.629-4.545h-3.434l5.223-35.488h23.594v10.589s-2.562-5.464-9.041-4.545c-4.98.725-7.832 4.254-10.637 8.026-3.627 4.738-5.512 23.74-5.996 28.381-.627 6.285 1.307 10.928 3.482 12.619.918.676 1.449 1.354 3.238 1.983zM173.277 124.59a23.14 23.14 0 0 0 2.852-1.5c3.336-2.562 5.996-5.365 7.785-11.41 0 2.369.049 12.91.049 12.91h-10.686z" fill="#934241"/><path fill="#934241" d="M137.354 102.203l18.759-28.621-4.738 29.397h-14.602l.581-.776zM175.453 78.9c3.385-.58 6.914 3.191 7.494 5.947 1.111 4.98-1.742 18.663-2.08 21.274-1.209 9.863-5.85 13.488-8.412 14.068-2.08.484-5.076.338-7.107-1.16-1.982-1.498-2.9-5.027-2.756-8.51.096-2.803.773-8.412 1.547-12.908.822-4.545 1.16-9.622 3.336-13.296 2.224-3.627 4.931-4.883 7.978-5.415z"/><path d="M58.207 115.258c.242-.049.822.242 1.016.533.193.289.338.58.29 1.4 0 1.113-.726 1.402-.919 1.402-.242.049-1.208 0-1.208 0v-3.385c-.001.001.531.05.821.05zm-.242.291v2.852s.435.049.628-.145c.242-.193.387-.822.338-1.305 0-.436-.048-.58-.048-.773-.193-.727-.918-.629-.918-.629z" fill="#253950"/></g></svg>