<svg height="574" viewBox="46.15 118.93 740.94 278.39" width="2500" xmlns="http://www.w3.org/2000/svg"><g clip-rule="evenodd" fill-rule="evenodd"><path d="m108.76 205.57c5.27-13.41 19.36-27.29 51.25-14.37 12.24 5.58 26.01 11.42 28.29 28.54.72 16.57-42.91-.43-61.05 6.89-7.12 4.75-13.03 10.47-15.28 20.1 14.91 1.04 36.57-5.85 45.17 4.11-2.59 10.52-36.23 11.78-47.01 25.5-7.7 21.35-8.07 44.01-5.56 70.28 3.11 6.12 7.57 9.41 13.39 9.88-3.72 3.46-7.45 6.91-11.17 10.36-17.27 3.97-27.58-15.45-27.25-29.28-2.08-21.1 3.89-41.63 3.14-59.72 1.43-9.06-34.73 3.2-31.94-2.16-4.59-3.82 19.65-16.11 39.36-21.28 6.23-16.26 12.44-32.55 18.66-48.85m161.21 33.37c-1.01-14.49-12.47-19.42-28.27-19.13-35.52 2.47-64.07 34.5-70.01 59.58-4.57 18.94-2.76 53.79 16.52 63.48 29.22 14.71 82.08 6.6 98.28-23.04 12.69 6.75 10.79 34.07 24.35 28.7 2.31-42.33-17.98-82.05-11.31-121.34 2.76-7.83 6.4-10.21 1.3-16.09-11.31-1.45-17.39 2.33-22.17 12.61-3.48 9.43-5.56 18.84-5.22 32.18v39.58c-19.9 22.39-51.4 29.73-66.54 12.18-23.49-41.23 22.93-73.61 63.07-68.71m202.65-3.48c-2.15-13.24-42.03-12.76-74.8-4.79-24.06 5.37-60.3 15.08-51.31 36.98 17.83 27.83 74.36 38.27 74.36 48.27 1.45 9.42-94.77 10.58-92.2 28.26 1.64 17.97 151.36 5.41 147.43-21.31 3.19-22.61-79.17-45.56-80.45-56.1-.86-10.84 20-15.08 32.62-18.7 14.78-3.77 45.65-2.84 44.35-12.61m76.1-59.58c9.86 1.81 8.84 17.69 6.09 36.97 18.55-.29 51.11-2.32 51.75 6.95-.21 8.24-37.98 19.42-59.58 30.44-5.37 27.11-9.86 55.52-6.97 86.54 1.89 5.19 5.17 11.07 10.88 13.48-5.37 6.67-7.86 13.51-21.31 13.48-12.75-.8-15.94-9.71-18.69-17.82-5.97-38.07 16.37-85.81 3.48-103.08-9.86-.86-32.92 8.87-34.79 2.62-.11-9.92 32.47-19.14 48.7-28.7 6.81-13.62 13.01-40.47 20.44-40.88" fill="#010202"/><path d="m622.86 118.93 28.73 2.93-26.1 255.81c-.74 5.13-2.67 8.38-7.77 8.15l-13.65-1.39c-4.81-.63-7.79-4.23-7.3-9.93zm64.71 143.81c-10.57-.6-18.29-2.14-29.25-5.5l3.25-26.9c.39-3.2 37.1 10.12 60.86 2.75 20.97-6.51 28.05-30.46 26.88-41.65-1.79-26.83-40.68-35.39-79.87-35.61l2.8-33.25c42.86 4.25 79.28 6.59 99.57 40.55 15.28 29.24 13.54 92.56-53.98 99.62l36.02 119c1.26 5.03.68 8.77-4.12 10.48l-13.16 3.85c-4.69 1.24-8.81-.97-10.49-6.43z" fill="#e42313"/></g></svg>