<svg xmlns="http://www.w3.org/2000/svg" width="2500" height="2500" viewBox="0 0 192.756 192.756"><g fill-rule="evenodd" clip-rule="evenodd"><path fill="#fff" d="M0 0h192.756v192.756H0V0z"/><path d="M96.378 58.4c41.987 0 78.153 9.632 93.543 15.173v45.611c-15.391 5.541-51.557 15.172-93.543 15.172-41.986 0-78.153-9.631-93.544-15.172V73.573C18.225 68.032 54.392 58.4 96.378 58.4z"/><path d="M44.296 98.861v4.598c0 .887.034 1.443.101 1.67.069.232.188.418.358.553.172.137.492.207.961.207v.445h-5.241v-.445c.474 0 .794-.07.964-.215a1.12 1.12 0 0 0 .355-.549c.067-.227.1-.779.1-1.666v-10.64c0-.887-.033-1.444-.1-1.676a1.066 1.066 0 0 0-.361-.549c-.17-.14-.489-.206-.958-.206v-.45h4.756c1.239 0 2.144.141 2.718.413.572.272 1.041.78 1.404 1.519.361.734.544 1.601.544 2.592 0 1.209-.273 2.208-.817 3.001-.348.498-.832.875-1.456 1.121l2.46 5.551c.322.719.551 1.164.685 1.342.209.252.446.389.719.412v.445h-3.223l-3.298-7.473h-.671zm0-8.039v7.18h.431c.698 0 1.221-.098 1.569-.305.348-.207.621-.578.819-1.114.199-.536.299-1.234.299-2.096 0-1.25-.183-2.171-.549-2.77-.363-.599-.951-.896-1.762-.896h-.807v.001zm13.488 10.846h-3.615l-.43 1.596c-.142.533-.211.971-.211 1.316 0 .463.116.801.348 1.016.134.133.469.227 1.002.293v.445h-3.403v-.445c.366-.09.67-.334.904-.734.237-.396.531-1.221.876-2.473L56.916 89.6h.144l3.689 13.445c.354 1.275.642 2.076.868 2.406.173.252.415.396.727.438v.445h-4.952v-.445h.204c.396 0 .678-.09.837-.268.111-.129.167-.314.167-.557 0-.145-.016-.293-.046-.447a14.64 14.64 0 0 0-.227-.906l-.543-2.043zm-.257-.897l-1.523-5.645-1.572 5.645h3.095zm8.84-10.833l5.049 10.169v-7.049c0-.982-.087-1.646-.263-1.993-.242-.466-.646-.693-1.216-.677v-.45h3.381v.45c-.433.086-.722.202-.871.342-.149.141-.266.372-.348.689-.083.317-.124.866-.124 1.638v13.652h-.257l-6.92-13.652v10.424c0 .941.134 1.576.404 1.908.269.334.577.498.922.498h.243v.445h-3.631v-.445c.564-.008.956-.193 1.178-.557s.332-.979.332-1.85V91.911l-.219-.437c-.216-.434-.407-.718-.574-.858-.165-.137-.405-.211-.717-.227v-.45h3.631v-.001zM84 89.567v5.679h-.294c-.221-1.482-.634-2.617-1.239-3.409-.603-.788-1.288-1.184-2.053-1.184-.64 0-1.225.293-1.758.883-.533.59-.925 1.358-1.169 2.311-.317 1.217-.477 2.571-.477 4.062 0 1.465.116 2.801.348 4.008.232 1.203.592 2.115 1.087 2.73.492.619 1.131.924 1.917.924.644 0 1.234-.223 1.77-.676.536-.449 1.101-1.227 1.696-2.332v1.416c-.575.957-1.172 1.654-1.793 2.084-.624.434-1.348.648-2.18.648-1.09 0-2.061-.352-2.909-1.053s-1.502-1.709-1.963-3.021a12.68 12.68 0 0 1-.69-4.197c0-1.564.255-3.045.768-4.448.51-1.403 1.198-2.493 2.066-3.264.868-.776 1.791-1.16 2.767-1.16.719 0 1.479.248 2.28.747.463.289.757.438.884.438.16 0 .299-.095.417-.284.118-.19.195-.491.231-.9H84v-.002zm6.814.144c1.631-.099 2.955.665 3.976 2.283 1.018 1.622 1.528 3.648 1.528 6.082 0 2.08-.378 3.908-1.139 5.49-1.007 2.096-2.43 3.145-4.267 3.145-1.839 0-3.264-1-4.272-3-.793-1.582-1.193-3.455-1.193-5.621 0-2.436.518-4.466 1.551-6.087 1.036-1.627 2.306-2.39 3.816-2.292zm.093.772c-.938 0-1.649.768-2.138 2.299-.397 1.254-.595 3.062-.595 5.415 0 2.797.307 4.865.92 6.201.428.938 1.028 1.404 1.798 1.404.518 0 .951-.203 1.298-.604.44-.516.786-1.34 1.033-2.475.247-1.131.371-2.609.371-4.43 0-2.17-.126-3.792-.379-4.865-.252-1.077-.572-1.837-.963-2.282-.389-.439-.837-.663-1.345-.663zm-52.896-4.17c-7.553-2.193-14.454-3.47-16.539 6.371-.151.715.161 1.4 1.047 1.4H35.22c6.586 0 6.852 3.92 3.28 3.92H23.495c-1.326-.141-1.814.373-1.465 1.541.268 2.369 1.061 4.598 2.512 6.861.926 1.443 1.212 3.115.209 4.551-.995 1.422-2.392 1.314-3.629-.211-4.187-5.156-7.041-12.043-4.677-21.143 3.377-12.994 19.004-9.386 21.566-3.29zm89.591 4.571v6.673h.205c.648 0 1.117-.326 1.41-.979.293-.651.479-1.617.561-2.888h.285v8.583h-.285c-.062-.936-.189-1.699-.381-2.299-.197-.598-.42-.998-.678-1.205-.256-.201-.629-.305-1.117-.305v4.617c0 .904.023 1.453.072 1.656a.972.972 0 0 0 .27.494c.129.133.34.195.633.195h.611c.955 0 1.721-.355 2.297-1.066.578-.705.99-1.785 1.242-3.238h.279l-.459 5.211h-8.848v-.445h.34c.297 0 .535-.086.717-.256.131-.111.23-.305.301-.582.057-.189.086-.697.086-1.521V92.745c0-.742-.014-1.196-.039-1.366-.049-.281-.145-.499-.279-.652-.191-.227-.453-.338-.785-.338h-.34v-.45h8.566v4.849h-.285c-.148-1.185-.352-2.034-.617-2.55-.262-.516-.637-.896-1.119-1.135-.281-.148-.811-.219-1.586-.219h-1.057zm15.859 9.694l-.385 5.756h-9.09v-.445h.34c.297 0 .537-.086.717-.256.131-.111.232-.305.305-.582.053-.189.082-.697.082-1.521V92.745c0-.837-.029-1.361-.082-1.572a1.14 1.14 0 0 0-.338-.549c-.168-.156-.396-.235-.684-.235h-.34v-.45h5.461v.45H139c-.299 0-.535.083-.719.251-.129.116-.23.306-.309.582-.055.194-.082.702-.082 1.522v10.445c0 .838.031 1.375.09 1.602.062.23.178.404.355.516.127.074.43.107.912.107h.852c.545 0 .998-.152 1.361-.457.361-.307.676-.789.938-1.453.266-.66.516-1.635.752-2.926h.311zm10.31 0l-.385 5.756h-9.09v-.445h.34c.297 0 .537-.086.717-.256.133-.111.232-.305.305-.582.055-.189.082-.697.082-1.521V92.745c0-.837-.027-1.361-.082-1.572a1.14 1.14 0 0 0-.338-.549c-.168-.156-.396-.235-.684-.235h-.34v-.45h5.461v.45h-.447c-.299 0-.535.083-.719.251-.127.116-.23.306-.309.582-.055.194-.082.702-.082 1.522v10.445c0 .838.031 1.375.09 1.602.062.23.178.404.355.516.127.074.43.107.912.107h.854c.543 0 .996-.152 1.359-.457.361-.307.676-.789.938-1.453.266-.66.516-1.635.754-2.926h.309zm6.211 5.311v.445h-5.352v-.445h.342c.295 0 .535-.086.715-.256.133-.111.232-.305.303-.582.057-.189.084-.697.084-1.521V92.745c0-.837-.027-1.361-.084-1.572a1.121 1.121 0 0 0-.336-.549c-.168-.156-.396-.235-.682-.235h-.342v-.45h5.352v.45h-.34c-.297 0-.535.083-.715.251-.133.116-.234.306-.311.582-.055.194-.082.702-.082 1.522v10.785c0 .838.027 1.361.084 1.572.061.209.174.391.342.549.17.16.396.238.682.238h.34v.001zm4.206-15.951l5.051 10.169v-7.049c0-.982-.088-1.646-.264-1.993-.242-.466-.646-.693-1.217-.677v-.45h3.381v.45c-.432.086-.721.202-.871.342-.148.141-.266.372-.348.689-.082.317-.123.866-.123 1.638v13.652h-.258l-6.92-13.652v10.424c0 .941.133 1.576.404 1.908.268.334.576.498.922.498h.242v.445h-3.631v-.445c.564-.008.957-.193 1.178-.557.223-.363.332-.979.332-1.85V91.911l-.219-.437c-.215-.434-.406-.718-.574-.858-.164-.137-.404-.211-.717-.227v-.45h3.632v-.001zm12.974 15.951v.445h-5.352v-.445h.342c.295 0 .535-.086.715-.256.133-.111.232-.305.303-.582.057-.189.084-.697.084-1.521V92.745c0-.837-.027-1.361-.084-1.572a1.121 1.121 0 0 0-.336-.549c-.168-.156-.396-.235-.682-.235h-.342v-.45h5.352v.45h-.34c-.297 0-.535.083-.715.251-.133.116-.236.306-.311.582-.055.194-.082.702-.082 1.522v10.785c0 .838.027 1.361.084 1.572.061.209.174.391.342.549.17.16.396.238.682.238h.34v.001zm-56.199-19.576c-7.553-2.193-14.455-3.47-16.539 6.371-.152.715.16 1.4 1.047 1.4h12.701c6.586 0 6.852 3.92 3.279 3.92h-15.006c-1.324-.141-1.812.373-1.465 1.541.268 2.369 1.061 4.598 2.512 6.861.928 1.443 1.213 3.115.211 4.551-.994 1.422-2.393 1.314-3.629-.211-4.188-5.156-7.041-12.043-4.678-21.143 3.377-12.994 19.004-9.386 21.567-3.29z" fill="#fff"/></g></svg>