<svg xmlns="http://www.w3.org/2000/svg" width="2500" height="2500" viewBox="0 0 192.756 192.756"><g fill-rule="evenodd" clip-rule="evenodd"><path fill="#fff" d="M0 0h192.756v192.756H0V0z"/><path d="M96.378 2.834c51.522 0 93.544 42.021 93.544 93.543 0 51.522-42.021 93.544-93.544 93.544-51.522 0-93.543-42.021-93.543-93.544C2.834 44.856 44.856 2.834 96.378 2.834z" fill="#33348e"/><path d="M16.086 131.197l-2.881-7.131 2.136-.861 1.664 4.117 1.665-.674-1.319-3.266 2.135-.863 1.32 3.268 3.228-1.305 1.217 3.012-9.165 3.703zm-3.756-9.972l-.731-3.166 5.797-1.338c.605-.141 1.019-.348 1.242-.625.223-.275.27-.686.145-1.229-.121-.525-.351-.871-.689-1.037s-.796-.182-1.376-.047l-5.796 1.338-.731-3.166 5.476-1.264c1.558-.359 2.791-.223 3.697.412.841.594 1.438 1.656 1.791 3.188.356 1.541.294 2.76-.182 3.658-.526.975-1.581 1.645-3.166 2.012l-5.477 1.264zm-2.655-12.633l-.213-3.049 5.129-3.877-2.18.264-3.187.223-.217-3.105 9.859-.688.213 3.049-5.129 3.877 2.235-.268 3.132-.219.217 3.104-9.859.689zM8.76 95.72l.372-4.247c.143-1.63.608-2.855 1.395-3.676.869-.906 2.121-1.286 3.76-1.143 1.821.16 3.112.759 3.875 1.797.689.933.96 2.236.813 3.91l-.369 4.22-9.846-.861zm2.578-3.035l5.257.46.063-.724c.064-.738-.092-1.31-.469-1.72-.41-.449-1.102-.716-2.076-.801-.929-.082-1.594.034-1.999.348-.404.314-.646.939-.728 1.876l-.048.561zM10.22 81.403l.572-3.24 10.347-1.767-.56 3.172-1.365.163-.557 3.159 1.229.606-.547 3.105-9.119-5.198zm6.518.536l.354-2.011-3.664.412 3.31 1.599zm1.174-14.571c-.633-.164-1.148-.094-1.55.212-.26.194-.46.47-.597.828-.233.606-.129 1.164.311 1.676.374.428.941.787 1.7 1.079 1.698.651 2.776.381 3.234-.814.147-.384.173-.732.077-1.042-.133-.442-.482-.822-1.047-1.136l1.115-2.905c1.088.555 1.832 1.334 2.229 2.339.43 1.075.401 2.244-.083 3.506-.583 1.518-1.473 2.555-2.669 3.109-1.197.554-2.537.546-4.021-.024-1.638-.629-2.708-1.627-3.211-2.995-.423-1.141-.402-2.318.062-3.529.435-1.134 1-1.98 1.693-2.537a3.628 3.628 0 0 1 1.993-.792c.57-.055 1.19-.003 1.863.157l-1.099 2.868zm.228-10.037l1.475-2.895 5.472 2.788c1.302.664 2.068 1.516 2.298 2.556.186.824.036 1.71-.449 2.664-.585 1.147-1.283 1.884-2.095 2.209-.902.362-1.964.23-3.186-.392l-.598-.336 1.313-2.577c.667.34 1.178.541 1.531.604.353.062.608-.062.766-.371a.682.682 0 0 0-.016-.693c-.131-.227-.343-.414-.636-.563l-5.875-2.994zm4.533-7.949l1.839-2.728 10.171 2.595-1.801 2.67-1.313-.406-1.794 2.659.877 1.054-1.763 2.614-6.216-8.458zm5.735 3.141l1.143-1.693-3.515-1.114 2.372 2.807zm8.3-13.341l-1.696-1.638a2.632 2.632 0 0 1-.794-1.605c-.104-.76.124-1.431.683-2.009l.808.781c-.233.32-.331.617-.295.887.037.271.194.54.47.806l.762-.789 1.814 1.752-1.752 1.815zm-2.362 2.445L32.65 39.99a2.677 2.677 0 0 1-.803-1.596c-.104-.76.126-1.433.692-2.019l.809.781c-.233.32-.331.617-.294.887.036.271.193.54.469.807l.762-.789 1.814 1.752-1.753 1.814zm1.851-9.034l2.441-1.907 4.65 4.125-2.813-5.56 2.117-1.654 4.692 4.092-2.856-5.527 2.441-1.907 4.162 9.29-2.506 1.958-4.436-3.806 2.621 5.224-2.506 1.958-8.007-6.286zm18.781-9.756a.826.826 0 0 0-.663-.361c-.273-.012-.577.076-.913.263-.264.146-.455.299-.575.46-.121.161-.134.325-.041.493.15.271.499.372 1.043.299.182-.028.697-.157 1.542-.384 1.151-.315 2.056-.409 2.712-.281.734.136 1.305.572 1.712 1.308.571 1.031.58 2.036.023 3.012-.463.821-1.264 1.547-2.398 2.176-1.079.599-2.129.835-3.148.711-1.065-.13-1.837-.628-2.315-1.491l2.722-1.509c.242.305.558.453.952.445.29-.004.587-.091.891-.259a2.13 2.13 0 0 0 .641-.513c.183-.236.228-.465.136-.687-.164-.295-.539-.396-1.123-.302-.231.034-.602.12-1.112.256-.809.219-1.444.352-1.909.4-.664.064-1.219-.004-1.666-.206-.53-.239-.97-.675-1.319-1.306-.425-.768-.447-1.57-.065-2.409.399-.88 1.192-1.648 2.375-2.304.976-.541 1.873-.788 2.692-.74.983.06 1.818.538 2.503 1.434l-2.697 1.495zm3.301-5.186l4.32-1.923c1.294-.576 2.382-.736 3.268-.479s1.558.902 2.018 1.938c.398.894.452 1.71.16 2.449-.351.897-1.195 1.643-2.53 2.237L64 22.547l1.254 2.818-2.955 1.315-4.02-9.029zm3.892.788l.892 2.003 1.277-.568c.334-.148.565-.336.694-.564.155-.279.148-.611-.023-.995-.13-.292-.329-.469-.596-.53-.336-.081-.792.007-1.368.264l-.876.39zM73.359 11.7c1.6-.458 3-.313 4.203.435 1.076.67 1.808 1.678 2.193 3.021.418 1.458.345 2.776-.22 3.956-.612 1.279-1.705 2.144-3.277 2.594-1.705.489-3.157.312-4.359-.532-1-.703-1.699-1.747-2.097-3.135-.398-1.389-.322-2.646.229-3.773.611-1.25 1.72-2.104 3.328-2.566zm.665 2.32c-.571.164-.957.522-1.16 1.074-.204.552-.18 1.264.069 2.133.252.878.608 1.501 1.07 1.868.462.366.991.464 1.589.293.65-.187 1.058-.589 1.223-1.207.143-.526.108-1.163-.105-1.909-.236-.825-.564-1.44-.984-1.842-.484-.46-1.051-.597-1.702-.41zm-1.87-2.545l.758-2.328 2.754-.79-1.708 2.6-1.804.518zm9.343-1.267l3.225-.396.924 7.524 4.408-.541.281 2.286-7.633.937-1.205-9.81zm10.259-1.181h3.057l3.509 5.387-.109-2.193V9.027h3.111v9.883h-3.057l-3.509-5.387.109 2.248v3.139h-3.111V9.027zm17.369.647c1.652.203 2.883.884 3.699 2.042.729 1.038 1.008 2.25.838 3.638-.186 1.505-.768 2.691-1.748 3.556-1.064.938-2.408 1.307-4.031 1.107-1.76-.216-3.027-.947-3.805-2.193-.646-1.038-.881-2.271-.705-3.705s.736-2.562 1.686-3.384c1.05-.911 2.406-1.264 4.066-1.061zm-.295 2.395c-.59-.072-1.084.107-1.486.536-.404.429-.66 1.093-.77 1.991-.111.907-.027 1.62.254 2.138.283.518.73.815 1.348.891.672.083 1.205-.128 1.598-.633.338-.428.555-1.028.648-1.798.105-.852.043-1.547-.186-2.081-.265-.614-.734-.962-1.406-1.044zm7.635-.813l8.738 2.342-.674 2.516-2.793-.749-1.885 7.031-3.125-.837 1.885-7.031-2.82-.755.674-2.517zM129.52 15.5l3.006 1.338-.789 10.468-2.943-1.311.172-1.364-2.93-1.305-.887 1.046-2.879-1.282 7.25-7.59zm-2.098 6.193l1.865.831.488-3.655-2.353 2.824zm14.916.18l3.492 2.445c1.34.938 2.168 1.954 2.484 3.046.352 1.205.055 2.48-.889 3.828-1.049 1.498-2.215 2.315-3.494 2.457-1.152.131-2.416-.286-3.793-1.25l-3.471-2.43 5.671-8.096zm1.34 3.75l-3.027 4.323.596.417c.605.425 1.18.576 1.723.454.594-.13 1.172-.596 1.732-1.397.535-.764.768-1.397.697-1.905-.07-.507-.49-1.029-1.26-1.569l-.461-.323zm12.092 6.344c1.217 1.135 1.812 2.41 1.793 3.827-.02 1.268-.508 2.414-1.461 3.436-1.035 1.109-2.203 1.726-3.506 1.849-1.41.134-2.715-.357-3.91-1.474-1.297-1.209-1.893-2.545-1.789-4.011.086-1.219.621-2.355 1.607-3.412.984-1.057 2.102-1.639 3.352-1.746 1.386-.12 2.691.391 3.914 1.531zm-1.645 1.764c-.436-.405-.941-.551-1.52-.441s-1.176.497-1.793 1.159c-.621.668-.973 1.295-1.049 1.879s.111 1.088.566 1.513c.496.461 1.049.603 1.664.427.525-.148 1.053-.506 1.582-1.074.586-.628.943-1.226 1.072-1.793.148-.651-.028-1.208-.522-1.67zm7.248 4.126l3.02 3.729c.805.995 1.26 1.875 1.363 2.644.105.769-.17 1.416-.822 1.945-.357.288-.746.46-1.17.515a2.87 2.87 0 0 1-1.324-.153c.227.511.262 1.011.109 1.498-.152.487-.445.907-.877 1.258-.795.644-1.619.824-2.475.54-.771-.257-1.584-.911-2.434-1.962l-3.072-3.792 7.682-6.222zm.254 3.975l-1.289 1.044.854 1.054c.219.271.449.424.693.463a.809.809 0 0 0 .662-.184c.213-.172.318-.347.318-.522-.002-.221-.154-.517-.453-.885l-.785-.97zm-2.684 2.173l-1.418 1.147.941 1.161c.299.369.574.582.824.637.25.056.479 0 .686-.167.299-.242.418-.496.361-.761-.055-.266-.309-.676-.758-1.229l-.636-.788zm9.241 6.953l-1.645 1.068.74 1.138c.309.476.609.754.902.836.225.06.457.014.693-.14.27-.175.412-.408.428-.702.014-.294-.076-.595-.275-.901l-.843-1.299zm.17-3.968l2.605 4.012c.922 1.418 1.324 2.557 1.205 3.417-.092.648-.504 1.21-1.24 1.688-.568.369-1.102.534-1.605.496a2.136 2.136 0 0 1-1.32-.573c.16.801.137 1.372-.072 1.714-.209.342-.619.712-1.232 1.11l-.645.418c-.299.194-.496.353-.59.474-.096.121-.109.236-.039.344l-.242.157-1.775-2.736c.15-.186.602-.546 1.35-1.081.746-.535 1.074-.99.984-1.366-.057-.203-.143-.415-.258-.634s-.279-.494-.494-.824l-.26-.402-2.898 1.881-1.762-2.713 8.288-5.382zm6.232 10.496l3.406 7.305-2.088.973-2.033-4.361-1.291.603 1.715 3.677-2.088.973-1.715-3.677-1.404.654 2.115 4.535-2.088.973-3.486-7.479 8.957-4.176zm5.646 14.097l.949 3.107-5.873 1.795c-1.396.427-2.541.347-3.428-.242-.707-.463-1.215-1.206-1.527-2.228-.377-1.232-.385-2.247-.027-3.044.396-.887 1.252-1.53 2.562-1.931l.664-.174.846 2.766c-.717.219-1.223.43-1.52.63-.299.2-.396.467-.293.799.076.254.24.416.492.487.25.072.533.059.848-.037l6.307-1.928zm2.663 10.563l.271 3.086-5.992 1.652 6.195.669.234 2.676-5.988 1.707 6.191.615.27 3.086-10.059-1.569-.277-3.168 5.607-1.646-5.809-.648-.277-3.168 9.634-3.292zm.966 20.883c-.117 1.66-.732 2.926-1.848 3.801-.996.783-2.193 1.125-3.588 1.027-1.514-.105-2.729-.625-3.643-1.561-.992-1.012-1.432-2.334-1.316-3.967.123-1.77.785-3.072 1.99-3.914 1.002-.699 2.223-1 3.664-.898 1.439.102 2.596.602 3.467 1.506.966 1.002 1.39 2.338 1.274 4.006zm-2.408-.168a1.656 1.656 0 0 0-.611-1.459c-.449-.379-1.127-.6-2.029-.664-.91-.062-1.619.059-2.121.367s-.775.771-.818 1.393c-.047.676.191 1.195.715 1.562.445.314 1.057.498 1.83.553.857.061 1.547-.037 2.068-.295.597-.297.919-.781.966-1.457zm1.205 8.223l-.676 3.178-7.414-1.576-.924 4.344-2.252-.479 1.598-7.521 9.668 2.054zm-2.33 10.332l-1.111 3.055-9.287-3.381 1.111-3.053 9.287 3.379zm-2.672 6.818l-2.229-.855a2.668 2.668 0 0 1-1.35-1.148c-.393-.66-.447-1.361-.162-2.104l1.025.393c-.082.391-.053.703.088.938.139.234.396.424.773.568l.393-1.023 2.354.904-.892 2.327zm-1.228 3.2l-2.227-.855a2.604 2.604 0 0 1-1.346-1.162c-.389-.668-.441-1.373-.156-2.115l1.023.393c-.082.389-.051.703.088.938s.396.424.773.568l.393-1.023 2.354.904-.902 2.352zM135.377 126.672h7.855c.084.115.162.236.234.363.287.717-.295 1.27-.635 1.816-1.041.58-2.385.496-3.529.818h-4.883c.194-1.036.581-2.011.958-2.997zm-.957 2.998h4.883c-.6.168-1.143.449-1.559.998-.701.596-.652 1.732-1.727 1.908-.82-.107-1.445-.879-1.727-1.635.005-.437.052-.859.13-1.271zm-22.65 36.156h-2.855c.639-.199 1.26-.434 1.848-.727.479-.091.815.346 1.007.727zm-2.856 0h2.855c.031.064.059.125.082.182.043.162.104.352.141.545h-5.99c.977-.211 1.965-.43 2.912-.727zm-2.912.727h5.99c.049.254.057.516-.07.729h-6.904a2.09 2.09 0 0 1 .111-.184l.455-.453c.139-.032.277-.061.418-.092zm-1.145 1.545v-.277c.02-.186.07-.367.16-.539h6.904a.75.75 0 0 1-.16.182c-.223.23-.457.441-.697.635h-6.207v-.001zm0 .095v-.096h6.207a6.85 6.85 0 0 1-1.115.727h-4.928a2.259 2.259 0 0 1-.164-.631zm.164.631h4.928c-1.389.727-2.969.938-4.547.637a2.697 2.697 0 0 1-.381-.637zm39.356-33.521h.145a.988.988 0 0 1 .762.453h-1.33c.151-.145.294-.295.423-.453zm-.424.453h1.33c.035.055.066.117.092.182.039.08.07.158.092.236v.127h-2.166c.228-.174.449-.354.652-.545zm-.652.545h2.166v.455h-2.781c.205-.151.414-.301.615-.455zm-.615.455h2.781v.039a1.489 1.489 0 0 1-.268.506h-3.234c.228-.186.473-.365.721-.545zm-.721.545h3.234a2.615 2.615 0 0 1-.605.545h-2.773l-.17-.273a5.24 5.24 0 0 1 .314-.272zm-.145.545h2.773a3.6 3.6 0 0 1-.309.182 1.434 1.434 0 0 1-.648.273h-.885a3.767 3.767 0 0 0-.646 0l-.285-.455zm-7.826 1.271h-1.479c.135-.385.299-.752.504-1.09.453.043.898.432 1 .908-.009.061-.019.122-.025.182zm-1.478 0h1.479c-.037.344-.021.713.014 1.09h-1.793c.079-.373.177-.738.3-1.09zm-.301 1.09h1.793c.029.33.076.666.115 1h-2.086c.049-.336.108-.67.178-1zm-.178 1h2.086c.043.371.078.74.078 1.09h-2.305c.043-.359.086-.725.141-1.09zm-.141 1.09h2.305c-.002.393-.049.762-.184 1.09h-2.246a91.6 91.6 0 0 0 .125-1.09zm-.125 1.09h2.246c-.17.412-.475.758-.998 1h-.264c-.471-.047-.889-.346-1.008-.818a4.73 4.73 0 0 0 .024-.182zm-59.685 5.269h7.456c-.02.107-.031.229-.032.363-.846.695-1.885.998-2.977 1.09h-1.669a20.937 20.937 0 0 1-1.622-.182c-.587-.263-.943-.722-1.156-1.271zm-.281-1.453H84.4c-.363.252-.738.471-1.165.545-1.095.674-3.396-.74-3.692.908h-7.456c-.173-.445-.252-.949-.282-1.453zm.332-1.453h21.151l-.06.09c-1.852 1.334-4.564.738-6.723.273-.824.051-1.445.629-2.105 1.09H71.805a9.748 9.748 0 0 1-.017-.637c.015-.283.171-.55.349-.816zm.504-1.455h21.224v.137c-.069.496-.309.914-.576 1.318H72.137c.314-.469.696-.93.504-1.455zm-.295-1.453h2.286c.228.316.472.621.791.818 3.209.771 6.918.721 9.857-.818h7.949l.636 1v.453H72.641a1.284 1.284 0 0 0-.307-.453c.022-.317-.003-.666.012-1zm2.286 0h-2.286c.025-.543.162-1.041.805-1.271.686.052 1.056.683 1.481 1.271zm18.597 0H85.28a9.255 9.255 0 0 0 1.953-1.361c2.092-.34 4.233.392 5.996 1.361zm-19.698-5.088h1.962c-.144.316-.388.572-.797.727a1.466 1.466 0 0 1-.31.092h-.277c-.357-.071-.499-.436-.578-.819zm-.108-.635v-.182h2.251a2.382 2.382 0 0 1-.182.816H73.53c-.047-.224-.072-.454-.107-.634zm0-.181v-.326c.026-.143.074-.273.134-.4h2.125c.006.244.01.49-.007.727h-2.252v-.001zm.61-1.545h1.636c-.007.26.005.539.013.818h-2.125c.135-.287.33-.543.476-.818zm.197-.819h1.391c.038.098.064.195.074.287v.168a3.487 3.487 0 0 0-.025.363h-1.636c.131-.246.221-.505.196-.818zm1.391 0H74.23a1.522 1.522 0 0 0-.08-.363c.392-.893 1.213-.285 1.471.363zm52.324-23.982h1.158c.004.145.008.291.01.436v2.562a1.867 1.867 0 0 1-.545 1.09h-.199c-.299-.068-.25-.484-.346-.727a43.99 43.99 0 0 0-.078-3.361zm-.424-4.18h1.322c.133 1.381.219 2.775.26 4.18h-1.158a51.92 51.92 0 0 0-.424-4.18zm-.695-4.088h1.498a65.47 65.47 0 0 1 .52 4.088h-1.322a73.993 73.993 0 0 0-.696-4.088zm-.902-4.179h1.6a69.32 69.32 0 0 1 .801 4.18h-1.498a140.04 140.04 0 0 0-.903-4.18zm-.983-4.179h1.475c.074.249.152.492.244.727.314 1.136.604 2.288.863 3.452h-1.6c-.321-1.399-.655-2.79-.982-4.179zm-.916-4.088c1.68.752 1.926 2.52 2.391 4.088h-1.475c-.318-1.363-.63-2.724-.916-4.088zm-.267 16.716h2.797c.195 1.373.328 2.764.379 4.18-.1.176-.199.482-.396.545h-.148c-1.092-.252-.719-1.645-1.182-2.453a55.027 55.027 0 0 1-1.45-2.272zm-2.654-4.815h1.623c.709 1.484 1.42 2.965 2.117 4.451v-.908a46.484 46.484 0 0 0-.852-3.543h1.633c.375 1.584.697 3.186.93 4.814h-2.797a76.875 76.875 0 0 1-2.654-4.814zm1.451-4.724h1.803a98.29 98.29 0 0 1 1.268 4.725h-1.633c-.442-1.587-.94-3.153-1.438-4.725zm-3.768 0h1.715a356.632 356.632 0 0 0 2.225 4.725h-1.623a204.187 204.187 0 0 1-2.317-4.725zm2.334-4.815h1.791c.48 1.6.975 3.202 1.445 4.814h-1.803c-.501-1.592-1.001-3.188-1.433-4.814zm-4.541 0h1.811a135.76 135.76 0 0 0 2.111 4.814h-1.715c-.494-1.029-.984-2.061-1.484-3.088-.239-.575-.481-1.151-.723-1.726zm6.332 0h-1.791a48.764 48.764 0 0 1-.547-2.271c.004-.143.051-.483.363-.636.715-.05 1.301.797 1.545 1.454.141.484.286.968.43 1.453zm-8.248-4.724h1.93a83.945 83.945 0 0 0 1.797 4.724h-1.811c-.658-1.564-1.316-3.133-1.916-4.724zm-1.357-4.088v-.116a.705.705 0 0 1 .453-.611c.74.05 1.41.559 1.727 1.272a64.01 64.01 0 0 0 1.107 3.543h-1.93a48.553 48.553 0 0 1-1.357-4.088zm25.341 1.907h10.174c-1.336.733-3.184.599-4.811.727-1.808-.116-3.669-.245-5.363-.727zm-1.859-.726h12.924a3.095 3.095 0 0 1-.891.727h-10.174a9.725 9.725 0 0 1-1.859-.727zm-1.252-.818h5.059c.254.074.516.136.783.182 2.465.388 5.902.773 8.539.363a2.843 2.843 0 0 1-.205.272h-12.924a7.412 7.412 0 0 1-1.252-.817zm-.771-.727h3.969c.605.279 1.217.541 1.861.727h-5.059a6.838 6.838 0 0 1-.771-.727zm-.471-.727h2.867c.529.23 1.049.485 1.572.727h-3.969a6.795 6.795 0 0 1-.383-.454.533.533 0 0 1-.087-.273zm2.867 0h-2.867c-.014-.299.242-.559.451-.727.861.114 1.649.395 2.416.727zm-13.267 3.362h.652c.01.072.018.144.023.216v.875h-.182a14.4 14.4 0 0 0-.493-1.091zm-1.676 0h1.068c-.061.14-.213.241-.533.273a1.809 1.809 0 0 1-.535-.273zm1.07-1.09h1.004c.113.356.203.719.254 1.09h-.652a14.315 14.315 0 0 0-.606-1.09zm-3.078.493v-.493h2.869c.047.349.328.802.207 1.09h-1.068a1.545 1.545 0 0 1-.465-.545c-.168.531-.926.588-1.361.272a.926.926 0 0 1-.182-.324zm0-.493v-.182l1.09-.091c-.051-.302-.303-.548-.441-.818h3.027c.148.359.291.722.406 1.09h-1.004c-.057-.092-.113-.183-.172-.272a.444.444 0 0 0-.037.272h-2.869v.001zm1.982-2.09h1.268c.139.333.285.665.426 1h-3.027c-.098-.191-.141-.395-.014-.636.4-.349.961-.033 1.363.091l.182.272a3.207 3.207 0 0 0-.198-.727zm-.552-1.09h1.326c.098.163.182.32.242.454.078.212.164.425.252.636h-1.268a7.594 7.594 0 0 0-.552-1.09zm.007-1.09h.18c.412.072.846.604 1.139 1.09h-1.326c-.145-.245-.291-.487-.432-.727.133-.223.281-.333.439-.363zm18.829 2.635h9.26c-.115.466-.652.756-1.09.817-2.831-.024-5.606-.184-8.17-.817zm-2.52-.818h8.02c1.25.286 2.479.616 3.76.817h-9.26a17.567 17.567 0 0 1-2.52-.817zm-1.676-.818h5.188c.332.097.664.188 1 .272 1.223.062 2.373.286 3.508.545h-8.02a14.814 14.814 0 0 1-1.676-.817zm-1.265-.817h4.078c.777.31 1.57.582 2.375.818h-5.188c-.433-.248-.855-.52-1.265-.818zm-.543-.686v-.132h2.775c.605.297 1.221.569 1.846.817h-4.078c-.121-.088-.24-.179-.361-.272a1.67 1.67 0 0 1-.182-.413zm0-.132v-.428a.86.86 0 0 1 .273-.39h.471c.346.024.711.103.982.272.346.19.695.372 1.049.545h-2.775v.001zm7.511.727h7.57l.182.272c-1.52 1.341-3.926.64-5.814.273a18.028 18.028 0 0 1-1.938-.545zm-2.425-1.091h5.209c1.51.541 3.068.979 4.787 1.09h-7.57a14.004 14.004 0 0 1-2.426-1.09zm-1.477-.999h4.092c.861.338 1.721.686 2.594.999h-5.209a11.855 11.855 0 0 1-1.477-.999zm-1.187-1.09h2.943c.285.215.582.406.904.544.48.174.957.358 1.432.545h-4.092a11.024 11.024 0 0 1-1.187-1.089zm-.731-.999h2.494c.393.333.773.692 1.18 1h-2.943c-.24-.258-.473-.53-.695-.818a2.436 2.436 0 0 0-.036-.182zm-.055-.245v-.496c.049-.132.156-.252.363-.35.863.064 1.539.542 2.186 1.09h-2.494c-.018-.081-.039-.163-.055-.244zm-2.867 11.692h1.814c1.715 1.426 3.801 2.757 6.049 2.816-3.105.57-5.634-.813-7.863-2.816zm-2.949 0h1.438l1.289 1.363c-.979-.272-1.889-.749-2.727-1.363zm.146-2.907h1.488c.184.235.365.477.547.727l.092-.091c.691.65 1.533 1.476 2.49 2.271h-1.814c-.986-.887-1.912-1.894-2.803-2.907zm-2.996 0h1.705c.225.295.457.595.691.908l1.891 1.999h-1.438c-1.075-.79-2.028-1.807-2.849-2.907zm.61-2.908h1.479c.752.935 1.576 1.852 2.396 2.907h-1.488c-.734-.835-1.445-1.675-2.145-2.453a4.841 4.841 0 0 0-.242-.454zm-2.403 0h1.666c.436 1.043 1.096 1.942 1.832 2.907h-1.705a20.338 20.338 0 0 1-1.793-2.907zm.414-2.907h1.645c.154.245.166.66.404.909a17.87 17.87 0 0 0 1.418 1.999h-1.479c-.361-.602-.838-1.162-1.211-1.726.088.63.252 1.196.475 1.726h-1.666a26.78 26.78 0 0 1-.354-.727c-.105-.535-.203-1.219 0-1.817.193-.112.496-.18.637-.182l.182.091a3.738 3.738 0 0 0-.051-.273zm-1.156-2.998h1.432c.318.884.691 1.724 1.139 2.453.033.125-.195.233 0 .363a.38.38 0 0 1 .23.182h-1.645c-.222-1.007-.785-1.982-1.156-2.998zm-.338-1.379v-.707c.027-.268.086-.542.182-.822l.727.091c.25.935.527 1.899.861 2.816h-1.432a5.458 5.458 0 0 1-.338-1.378zm15.643.38h5.252c.027.151.045.312.092.454-.297.09-.598.148-.902.182h-1.379c-1.022-.096-2.059-.375-3.063-.636zm-1.779-.636h6.068c.154.044.324.075.51.091.32.054.402.285.453.545h-5.252a35.41 35.41 0 0 0-1.105-.272c-.21-.126-.44-.244-.674-.364zm-1.067-.636h6.117c.273.291.592.514 1.018.636h-6.068c-.368-.189-.745-.385-1.067-.636zm-.523-.545h6.213c.135.199.275.382.428.545h-6.117a2.397 2.397 0 0 1-.524-.545zm-.19-.363v-.091a.742.742 0 0 1 .035-.182h5.961c.139.224.271.438.406.636h-6.213a1.947 1.947 0 0 1-.189-.363zm3.907-.909h.605c.545.101.98.45 1.484.636h-5.961c.078-.228.268-.419.51-.545 1.309-.394 2.363 1.449 3.362-.091zm-99.308.273h.549c-.154.362-.304.725-.448 1.09h-.182c.035-.353.06-.718.081-1.09zm.067-1.181h.987c-.168.394-.338.787-.505 1.181h-.549c.022-.389.041-.785.067-1.181zm.101-1.181h1.371c-.154.396-.318.79-.484 1.181h-.988c.024-.396.055-.792.101-1.181zm.178-1.091h1.587c-.121.368-.254.73-.395 1.09H41.42c.044-.371.101-.736.179-1.09zm.371-1.181h1.555c-.096.401-.211.793-.339 1.181h-1.587c.091-.413.21-.809.371-1.181zm1.555 0H41.97c.187-.433.429-.833.747-1.181.303.267.795.241.909.727-.031.153-.065.304-.101.454zm86.717 10.085h2.119c.125.124.252.245.387.363.42-.005.408.449.635.727.213.377-.322.591-.545.727-1.014-.242-1.887-.968-2.596-1.817zm-1.353-1.908h1.961c.441.678.93 1.325 1.512 1.908h-2.119a10.609 10.609 0 0 1-.674-.909 7.021 7.021 0 0 1-.68-.999zm-.791-1.817h1.67a33.04 33.04 0 0 0 1.082 1.816h-1.961c-.327-.58-.575-1.19-.791-1.816zm-.567-1.817h1.18c.371.593.713 1.206 1.057 1.817h-1.67c-.205-.597-.381-1.207-.567-1.817zm-.666-1.908h1.406c.025.438.002.884.023 1.272.145.208.281.421.416.636h-1.18a19.17 19.17 0 0 0-.665-1.908zm-.205-.455v-.778c.076-.293.26-.543.637-.584.756.362.934 1.077.975 1.817h-1.406a12.249 12.249 0 0 0-.206-.455zm-64.721 8.722h1.4c-.416 1.383-.902 2.734-.999 4.27h-.545a92.19 92.19 0 0 1 .144-4.27zm.33-4.179h1.56a57.915 57.915 0 0 0-.489 4.179h-1.4c.079-1.407.189-2.8.329-4.179zm.535-4.27h1.786c-.28 1.41-.542 2.83-.761 4.271h-1.56c.147-1.439.325-2.861.535-4.271zm.716-4.179h1.936c-.292 1.39-.588 2.78-.866 4.179h-1.786c.208-1.405.447-2.798.716-4.179zm.927-4.269h2.076c-.324 1.002-.679 1.997-.821 3.089-.081.394-.163.787-.246 1.181H63.52c.278-1.436.588-2.859.927-4.27zm1.707-4.179h.002c.407.093.93.408.999.908v.107c-.011 1.132-.305 2.151-.632 3.163h-2.076c.278-1.158.575-2.309.892-3.453.08-.281.392-.69.815-.725zm45.842 30.07h1.361c.373 1.122.75 2.242 1.129 3.361-1.242-.636-1.851-2.133-2.49-3.361zm-5.277 0h1.602c.613 2.134 1.27 4.247 1.896 6.359-1.781-1.753-2.653-4.052-3.498-6.359zm2.719-6.359h1.869a359.33 359.33 0 0 0 2.051 6.359h-1.361a8.744 8.744 0 0 0-.145-.273c-.932-1.984-1.713-4.021-2.414-6.086zm-4.608 0h1.881c.447 2.153 1.008 4.267 1.609 6.359h-1.602c-.225-.608-.445-1.218-.682-1.817-.388-1.504-.827-3.011-1.206-4.542zm2.643-6.359h1.936c.605 2.129 1.24 4.249 1.898 6.359h-1.869c-.715-2.101-1.344-4.231-1.965-6.359zm-4.336 0h2.646c.164 2.169.494 4.282.928 6.359h-1.881c-.34-1.37-.629-2.758-.791-4.179-.484-.554-.801-1.326-.902-2.18zm.111-6.36h4.467c.529 2.131 1.096 4.25 1.693 6.359h-1.936c-.559-1.915-1.109-3.83-1.707-5.724a38.465 38.465 0 0 0 .018 5.724h-2.646a5.176 5.176 0 0 1-.006-1.181 58.32 58.32 0 0 0 .117-5.178zm-.271-6.359h1.91c.008 1.478.037 2.952.242 4.36-.027-.634.549-1.036 1.182-.727.832.18.887 1.128 1.182 1.817.072.303.146.605.223.908h-4.467c-.04-2.126-.161-4.24-.272-6.358zm-.209-5.173v-.006l.363-1.181c.537.359 1.488.116 1.545.999.23 1.713.203 3.54.211 5.36h-1.91a145.005 145.005 0 0 1-.209-5.172zm-1.444 18.618h1.418a35.638 35.638 0 0 1-.156 2.362c-.027.809-.199 1.675-.908 1.999h-.08c-.26-.028-.342-.333-.283-.545.05-1.291.05-2.561.009-3.816zm-.289-4.36h1.637c.088 1.445.121 2.897.07 4.36h-1.418a66.237 66.237 0 0 0-.289-4.36zm-.523-4.361h1.756c.172 1.449.316 2.901.404 4.361h-1.637a108.61 108.61 0 0 0-.523-4.361zm-.647-4.361h1.834c.195 1.452.396 2.904.568 4.361h-1.756c-.202-1.458-.425-2.909-.646-4.361zm-.642-4.36h1.922c.162 1.455.357 2.908.555 4.36h-1.834c-.221-1.449-.442-2.9-.643-4.36zm1.922 0h-1.922c-.096-.694-.186-1.391-.271-2.09.041-.783-.051-1.656.545-2.271.547.34 1.186.507 1.363 1.272.072 1.031.169 2.061.285 3.089zm-25.723-3.816c-.73-.963.903-1.189 1.09-2.18l-1.09 2.18zm-21.278-2.09h1.095c-.527.328-1.051.628-1.529.908.094-.321.245-.621.434-.908zm.741-.908h1.681c-.427.328-.878.628-1.328.909h-1.095c.209-.317.463-.616.742-.909zm.83-.818h1.794a9.383 9.383 0 0 1-.943.817h-1.681c.262-.275.545-.545.83-.817zm.913-.908h1.644a6.472 6.472 0 0 1-.763.909h-1.794c.311-.297.623-.596.913-.909zm.726-.909h1.408a4.68 4.68 0 0 1-.489.908h-1.644c.267-.287.515-.588.725-.908zm1.407 0h-1.408c.096-.147.184-.298.262-.455.059-.546 1.198-.67 1.272.091a3.814 3.814 0 0 1-.126.364zm2.125 8.358c-.487.21-.812-.441-1.181.182-1.864 4.057-2.43 8.738-3.453 13.173l-1.271 5.996c.336-4.571 1.113-10.118 1.454-15.081l-.363-.909c2.663-4.781 6.113-9.735 10.901-13.083-2.129 2.996-4.368 6.35-6.087 9.722zm-5.784-9.539h.838c-.467.441-.939.894-1.414 1.363.032-.495.258-.94.576-1.363zm1.255-1.362h1.05c-.486.445-.975.897-1.467 1.362h-.838c.353-.469.818-.91 1.255-1.362zm1.404-1.363h1.138c-.494.451-.991.903-1.491 1.363h-1.05c.257-.266.504-.536.713-.817.232-.178.462-.36.69-.546zm1.617-1.363h1.001c-.49.458-.983.909-1.48 1.363h-1.138c.543-.442 1.079-.905 1.617-1.363zm1.67-1.362h.759c-.473.463-.95.915-1.429 1.362h-1.001a40.452 40.452 0 0 1 1.671-1.362zm.76 0h-.759c.678-.517 1.375-.986 2.109-1.363-.449.467-.898.92-1.35 1.363zm70.926 7.721h.73c.098.258.225.508.463.727-.373.398.15.637.182.908-.449-.532-.908-1.08-1.375-1.635zm-1.484-1.726h1.26c.051.122.102.243.146.363.543.363.625.875.809 1.363h-.73c-.485-.573-.977-1.152-1.485-1.726zm-1.592-1.726h1.984c.34.578.631 1.162.867 1.726h-1.26a47.934 47.934 0 0 0-1.591-1.726zm-1.812-1.726h2.609c.443.553.84 1.137 1.188 1.726h-1.984a31.266 31.266 0 0 0-1.813-1.726zm-2.26-1.635h3.293c.574.488 1.1 1.044 1.576 1.635h-2.609a21.064 21.064 0 0 0-1.73-1.363 1.176 1.176 0 0 0-.53-.272zm-.729-1.727h.57c.309.026.607.091.869.182.936.336 1.801.878 2.582 1.544h-3.293c-.924-.241-2.281.099-2.014-1.181.335-.337.8-.501 1.286-.545zm-2.99 33.16h.266c.006.312.031.624-.197.817l-.069-.817zm-4.842 0h.924a35.92 35.92 0 0 0 .898 5.087l-.092.182c-.857-1.652-1.4-3.422-1.73-5.269zm-3.707 0h1.062a75.99 75.99 0 0 0 .469 6.995l-.545-1.09a48.98 48.98 0 0 1-.986-5.905zm8.287-6.904h1.254a79.082 79.082 0 0 1-.65 6.359c-.074.166-.078.356-.076.545h-.266l-.203-2.362-.059-4.542zm-5.056 0h1.221a45.035 45.035 0 0 0 .18 6.905h-.924c-.399-2.216-.495-4.541-.477-6.905zm-3.502 0h1.514a72.25 72.25 0 0 0-.18 6.905h-1.062a52.627 52.627 0 0 1-.272-6.905zm16.293-6.905h1.396c.123.333.248.667.375 1 .139.471.229.979.273 1.508v1.58h-.273a45.225 45.225 0 0 1-1.771-4.088zm-7.824 0h1.625c-.055 2.305-.131 4.612-.281 6.904h-1.254l-.09-6.904zm-4.483 0h1.518a54.569 54.569 0 0 0-.781 6.904h-1.221c.006-.513.016-1.028.027-1.544.082-1.818.235-3.604.457-5.36zm-3.369 0h1.789a63.195 63.195 0 0 0-.893 6.904h-1.514c.059-2.315.266-4.628.618-6.904zm13.229-6.904h1.553c.705 2.322 1.449 4.626 2.291 6.904h-1.396c-.874-2.284-1.622-4.612-2.448-6.904zm-5.467 0h1.871c-.066 2.288-.1 4.595-.156 6.904h-1.625l-.09-6.904zm-3.096 0h1.887a58.301 58.301 0 0 0-1.666 6.904h-1.518a59.775 59.775 0 0 1 1.297-6.904zm-3.115 0h2.014a52.007 52.007 0 0 0-1.775 6.904h-1.789a51.573 51.573 0 0 1 1.55-6.904zm8.64-6.905h2.463c.115.279.225.556.342.818.59 2.038 1.174 4.069 1.785 6.087h-1.553c-.853-2.372-1.79-4.703-3.037-6.905zm-3.304 0h3.098c-.186 2.27-.285 4.577-.352 6.905h-1.871l-.035-2.726-.09-.454a54.633 54.633 0 0 0-1.084 3.18h-1.887a55.293 55.293 0 0 1 2.221-6.905zm-2.666 0h2.363c-1.209 2.167-2.209 4.485-3.02 6.905h-2.014a46.096 46.096 0 0 1 2.671-6.905zm-8.059 0h2.375a28.6 28.6 0 0 0-1.076.909c-2.822 1.474-4.969 4.149-7.812 5.542-.336.084-.566.268-.908.182 2.29-2.332 4.831-4.531 7.421-6.633zm-7.648 0h2.465c-.393.326-.791.595-1.238.636-.908.662-1.734 1.967-2.816 2.362.054-1.147.729-2.117 1.589-2.998zm14.166-6.904h1.52a10.54 10.54 0 0 1 3.982 1.09l.453.454c.596.784-.812 1.091-.182 1.726.213.483-.32.66-.363.999.854-1.001 1.727.459 2.727.272 1.021.532 1.463 1.459 1.838 2.362h-2.463c-.033-.061-.068-.121-.102-.182h-.092l-.014.182h-3.098c.098-.243.195-.485.295-.727h-.182c-.141.24-.279.483-.416.727h-2.363c.471-.966.973-1.907 1.508-2.816-.695-.421-1.611-.14-2.361 0-1.715.589-3.361 1.642-4.83 2.816h-2.375a311.612 311.612 0 0 1 5.66-4.451c-3.57-.198-6.459 1.816-9.449 3.361-.494.259-.939.712-1.395 1.09h-2.465c.76-.777 1.664-1.485 2.406-2.18 3.599-1.947 7.575-4.444 11.761-4.723zm-63.52 3.906h1.647a29.779 29.779 0 0 0-1.58 1.636h-.545a3.58 3.58 0 0 1 .478-1.636zm1.393-1.635h2.065a40.642 40.642 0 0 0-1.811 1.635h-1.647c.34-.602.833-1.137 1.393-1.635zm2.088-1.635h1.972a74.345 74.345 0 0 0-1.995 1.635h-2.065c.651-.577 1.392-1.106 2.088-1.635zm2.031-1.544h1.913c-.657.513-1.317 1.024-1.971 1.544h-1.972c.508-.387.993-.774 1.401-1.181.213-.107.423-.229.629-.363zm2.313-1.635h1.666c-.68.551-1.372 1.093-2.067 1.635h-1.913c.792-.513 1.538-1.178 2.314-1.635zm1.666 0h-1.666a3.974 3.974 0 0 1 1.055-.455c.716-.777 1.701-.791 2.543-1.181a53.742 53.742 0 0 1-1.932 1.636zm32.803 5.995h1.545c-.487.438-.966.893-1.436 1.363h-.261a.327.327 0 0 1-.284-.182c.042-.451.203-.836.436-1.181zm1.367-1.363h1.787a36.02 36.02 0 0 0-1.609 1.363h-1.545c.347-.515.856-.94 1.367-1.363zm1.681-1.362h1.936c-.621.431-1.232.885-1.83 1.363h-1.787c.252-.209.506-.417.742-.636.31-.247.623-.49.939-.727zm1.957-1.363h2.119c-.725.423-1.439.877-2.141 1.363h-1.936a31.54 31.54 0 0 1 1.958-1.363zm2.477-1.363h2.271c-.891.408-1.768.863-2.629 1.363h-2.119a21.017 21.017 0 0 1 2.477-1.363zm2.271 0H102.6c1.82-.836 3.762-1.354 5.891-1.362a28.047 28.047 0 0 0-3.62 1.362zm-6.666 40.973h1.457c-.096 1.892-.381 3.734-.982 5.36-.09.542-.732.526-.818 1l-.182-.182c.367-2.08.521-4.139.525-6.178zm-24.419 0h1.289l-.106.363c-.268.688-.551 1.438-1.272 1.908-.011-.772.022-1.527.089-2.271zm-4.806 0h1.539c-.136 1.691-.236 3.397-.82 4.906l-.363-.091c-.358-1.558-.422-3.184-.356-4.815zm-2.523 0h1.662c-.506 2.743-.996 5.498-1.69 8.176-.308.167-.578.387-1 .182-.572-.992-.014-2.19 0-3.361.361-1.644.704-3.315 1.028-4.997zm-1.937 5.451V82.14c.011-1.15.042-2.296.092-3.437h1.248a6.425 6.425 0 0 1-.34 1.09c-.169 1.441-.171 3.107-.818 4.361h-.182v.001zm32.957-13.991h1.672a91.25 91.25 0 0 1 .439 3.906c.039.572.07 1.153.092 1.738v2.528l-.018.367h-1.457c.004-2.89-.297-5.738-.728-8.539zm-2.856 0h1.265c-.249 2.859-.803 5.619-2.112 7.995l-.182.182c.63-2.645.925-5.394 1.029-8.177zm-4.38 0h1.878c-.543 1.645-1.198 3.193-1.434 4.906l-.182-.454-.273.363a64.42 64.42 0 0 0 .011-4.815zm-5.065 0h1.09a113.18 113.18 0 0 0 .058 6.632c-.798-.039-.397-.976-.727-1.363a72.811 72.811 0 0 1-.421-5.269zm-4.446 0h1.3a59.145 59.145 0 0 0-.43 4.997c-.69-.104-.518-1.009-.727-1.544a22.164 22.164 0 0 1-.143-3.453zm-5.129 0h1.96c-.866 2.832-1.654 5.697-2.486 8.54h-1.289c.265-2.97 1.065-5.744 1.815-8.54zm-10.225 0h8.796c-.741 2.365-1.4 4.764-2.021 7.177-.204.341-.51.485-.818.545-.166-.829.084-1.807-.091-2.635l-.364.636c-.194.908-.283 1.86-.36 2.816H68.98c.098-2.389.476-4.788.628-6.995-.605 2.284-1.054 4.636-1.49 6.995h-1.662a220.282 220.282 0 0 0 1.425-8.267c-.557 1.077-.367 2.671-1.362 3.453-.378 1.533-.315 3.278-.659 4.814h-1.248c.126-2.887.379-5.738.764-8.539zm29.115-8.449h3.32c.48 2.804.961 5.61 1.338 8.449h-1.672c-.385-2.491-.872-4.945-1.341-7.359-.047 2.407-.038 4.919-.25 7.359h-1.265c.103-2.807.012-5.648-.13-8.449zm-4.837 0h1.647c.033.492.068.978.111 1.454.071-.487.13-.971.179-1.454h1.665c-.194 2.662-.449 5.304-.936 7.812a24.83 24.83 0 0 1-.201.636h-1.878c-.093-2.825-.332-5.649-.587-8.448zm-1.846 0h1.36c.042 1.112.011 2.211-.3 3.271l-.454.363c-.378-1.135-.521-2.37-.606-3.634zm-2.548 0h1.519a102.147 102.147 0 0 0-.512 8.449h-1.09a78.306 78.306 0 0 1 .083-8.449zm-3.308 0h1.725a68.736 68.736 0 0 0-1.646 8.449h-1.3c.093-2.871.663-5.677 1.221-8.449zm-3.701 0h2.32c-1.172 2.741-2.132 5.577-3.01 8.449h-1.96c.37-1.378.728-2.763 1.002-4.179a67.324 67.324 0 0 1 1.648-4.27zm-11.258 0h7.832c-.107.361-.211.725-.311 1.09l.091.091c.15-.397.308-.791.471-1.181h2.26c-1.232 2.735-2.259 5.565-3.163 8.449h-8.796a80.458 80.458 0 0 1 1.616-8.449zm27.056-8.54h2.406c.379 2.865.867 5.701 1.355 8.54h-3.32c-.147-2.918-.349-5.793-.441-8.54zm-1.978 0h1.915l-.121.182c-.268 2.72-.404 5.55-.609 8.358h-1.665c.295-2.884.251-5.702.48-8.54zm-12.195 0h11.069c.129 2.874.178 5.821.356 8.54h-1.647c-.144-1.585-.293-3.161-.423-4.724h-.091c-.236 1.553-.032 3.152.027 4.724h-1.36c-.106-1.578-.123-3.199-.394-4.724a76.42 76.42 0 0 0-.635 4.724H85.26c.02-.305.041-.607.064-.909-.63.028-.68-1.034-1-1.454a78.584 78.584 0 0 0-.649 2.362H81.95c.307-1.523.61-3.036.829-4.543a49.161 49.161 0 0 0-2.209 4.543h-2.32a80.624 80.624 0 0 1 4.167-8.358c-1.713 1.777-2.949 4.361-4.27 6.632-.28.571-.55 1.146-.812 1.726h-2.26c1.261-3.012 2.907-5.833 4.801-8.539zm-5.412 0h3.801c-1.432 2.719-2.559 5.567-3.441 8.54h-7.832a71.793 71.793 0 0 1 1.797-6.087c.812-.191 1.372-1.389 2.18-.636.268.144.224.408.455.545.5-.612.41-1.599 1.272-1.999.357.088.769.287.908.636.395-.29.668-.631.86-.999zm21.992 0H94.05l-.003-.091-.061.091h-1.915c.102-1.265.257-2.534.521-3.815h.182c.432.773 1.136 1.396 1.181 2.271.52-.748-.205-2.128 1.09-2.362 1.812.156.889 2.33 1.363 3.543l.048.363zm-9.754-8.448h5.986c-.849 1.737-1.655 3.522-1.913 5.542.072.952.125 1.926.169 2.907H79.876c2.043-2.919 4.375-5.703 6.826-8.449zm-7.161 0h2.698c-.781.695-1.626 1.369-2.002 2.271.509.073.95.614 1.09 1 .066.49-.097.979-.545 1a42.444 42.444 0 0 0-2.517 4.179h-3.801c.225-.428.34-.895.413-1.362 1.513-2.392 3.027-4.758 4.664-7.088zm2.698 0h-2.698c.406-.578.819-1.153 1.242-1.726.878-.943 2.023-1.333 2.998-1.635.38 1.519-.527 2.458-1.542 3.361zm15.988-8.449h.77a.855.855 0 0 1 .592.454c-.184 1.206-1.623 1.209-2.361 2.09-1.479 1.565-4.126 3.055-4.271 5.36l-.268.545h-5.986c1.655-1.854 3.363-3.692 5.073-5.542.759-.541 1.418-1.207 2.271-1.363 1.133 1.037 2.167-1.059 3.362-1.272.241-.118.529-.218.818-.272zm-16.872.817h.993c-.518.229-1.037.449-1.565.636.18-.218.372-.43.572-.636zm.776-.726h1.899c-.568.228-1.125.481-1.683.727h-.993c.247-.252.506-.495.777-.727zm.934-.727h3.098a4.239 4.239 0 0 0-.476.182c-.57.138-1.119.33-1.657.545h-1.899c.299-.255.611-.498.934-.727zm.986-.636h3.607c-.384.311-.983.466-1.495.636h-3.098c.319-.225.648-.438.986-.636zm1.424-.727h2.573a.985.985 0 0 1-.39.727h-3.607c.462-.27.939-.513 1.424-.727zm2.573 0h-2.573a13.032 13.032 0 0 1 2.121-.727l.455.636c-.001.031-.001.062-.003.091zm30.948 4.27h2.195c-.023.512-.225 1.011-.799 1.09-.505-.268-.956-.663-1.396-1.09zm-1.016-1h2.922l.217.273c.053.212.084.471.072.727h-2.195c-.338-.329-.672-.677-1.016-1zm-1.316-1.09h3.246c.348.341.678.705.992 1.09h-2.922a7.616 7.616 0 0 0-.768-.636 24.913 24.913 0 0 0-.548-.454zm-1.279-.999h3.373c.4.305.785.639 1.152.999h-3.246c-.422-.338-.853-.667-1.279-.999zm-1.336-1.09h2.957a10.96 10.96 0 0 1 1.752 1.09h-3.373c-.459-.356-.91-.714-1.336-1.09zm2.957 0h-2.957a11.71 11.71 0 0 1-1.016-1 9.492 9.492 0 0 1 3.973 1zM55.09 36.873a175.41 175.41 0 0 0-2.456 1.756l-.019.001-.178-.445a65.06 65.06 0 0 1 3.512-2.927 67.472 67.472 0 0 1 4.932-3.488 62.539 62.539 0 0 1 1.821-1.125c.647-.309 1.418-.598 2.118-.698l.259-.014.259.258a179.915 179.915 0 0 0-5.083 3.19 180.54 180.54 0 0 0-5.165 3.492zm17.467-2.775h.641c-.479.251-.951.521-1.409.817.246-.282.503-.554.768-.817zm.883-.818h1.452c-.572.259-1.139.526-1.695.818h-.641c.285-.283.58-.556.884-.818zm1.023-.818h2.274c-.616.274-1.234.541-1.846.817H73.44a18.67 18.67 0 0 1 1.023-.817zm1.202-.817h2.811a39.69 39.69 0 0 1-1.738.817h-2.274c.39-.289.791-.562 1.201-.817zm1.451-.818h2.831c-.481.297-.973.566-1.471.818h-2.811c.473-.296.958-.568 1.451-.818zm2.676-.818h.102c.21.007.417.055.616.182v.272c-.186.126-.374.247-.563.363h-2.831c.459-.232.925-.444 1.396-.636.403-.004.846-.169 1.28-.181zm-12.159 9.812h1.035a74.307 74.307 0 0 0-2.785 2.09 21.943 21.943 0 0 1 1.75-2.09zm2.246-2.09h1.891a69.569 69.569 0 0 0-3.102 2.09h-1.035a24.991 24.991 0 0 1 2.246-2.09zm2.862-2.089h2.561a65.25 65.25 0 0 0-3.531 2.089H69.88a31.236 31.236 0 0 1 2.861-2.089zm3.577-2.09h3.149a61.619 61.619 0 0 0-4.167 2.09h-2.561a47.092 47.092 0 0 1 3.579-2.09zm4.038-1.998h4.101a58.292 58.292 0 0 0-4.989 1.999h-3.149a93.854 93.854 0 0 1 4.037-1.999zm5.003-2.09h.534c.363.063.696.276.976.727l-.182.636c-.75.228-1.493.47-2.23.727h-4.101c.784-.369 1.563-.73 2.334-1.09.793-.17 1.779-.868 2.669-1zm45.299 87.577zm2.543 0zm.908 0zM51.438 88.333zM63.211 56.9l-.053.091.053-.091zM50.53 88.515a.254.254 0 0 1 .039 0h-.039zm87.577 28.526zm0 0zm8.075-2.09h1.205c.631.127 1.193.48 1.531 1.182.508 1.256-.643 1.297-1.566 1.727h-5.289l2.586-2.363a4.8 4.8 0 0 1 1.533-.546zm-4.12 2.908h5.289c-.375.174-.711.41-.887.816.166.607.188 1.406.057 2.09h-7.641l3.182-2.906zm-3.181 2.907h7.641a3.637 3.637 0 0 1-.146.545c-.629.658-1.512 1.166-2.363.637-.381-.182-.867-.383-1.271-.182-.58.682-1.352 1.26-1.746 1.998h-4.752a9.94 9.94 0 0 0 .049-.363l.998-1.18 1.59-1.455zm-2.639 2.998h4.752a2.035 2.035 0 0 0-.252 1.09c.904.41 1.854.951 2.49 1.818h-7.855c.357-.94.703-1.887.865-2.908zm-5.584-6.723zm0 0zm-67.682 0zm-11.992 0zm0 0zm11.992 0zm-11.992 0zm26.844 3.09c.016.029-.067.16-.052.189l.052-.189zm-2.588-3.09zm6.723-10.629v-.168c.015-.129.043-.256.091-.377.514.184 1.142.314 1.691.545h-1.782zm0 .252v-.252h1.782c.326.137.625.309.854.545H82.01a2.975 2.975 0 0 1-.047-.293zm.048.293H84.6c.147.152.267.332.348.545h-2.773a1.581 1.581 0 0 1-.03-.09 3.27 3.27 0 0 1-.134-.455zm.164.545h2.773c.051.137.086.287.104.455v.09h-2.61a2.545 2.545 0 0 1-.267-.545zm.267.545h2.61v.082c-.016.16-.074.32-.162.463h-1.993a2.695 2.695 0 0 1-.455-.545zm.455.545h1.993c-.185.301-.503.529-.837.547-.428-.032-.828-.244-1.156-.547zm-27.196-1.998h-1.354c.261-.074.529-.137.726-.271.165.091.462.093.628.271zm-1.355 0H55.7a.418.418 0 0 1 .098.182l-.078.182h-2.062c.16-.196.419-.286.688-.364zm-.687.363h2.062c-.038.09-.078.182-.121.273h-2.073a.703.703 0 0 1 .132-.273zm-.131.273h2.073a3.042 3.042 0 0 1-.143.271h-1.783a3.314 3.314 0 0 1-.147-.271zm.147.272h1.783c-.08.135-.172.26-.283.363h-1.226a1.763 1.763 0 0 1-.274-.363zm.274.363h1.226a1.014 1.014 0 0 1-.557.273h-.034a.883.883 0 0 1-.635-.273zm32.998 1.908h.37c.878.059 1.682.512 2.458.908-.164-.545.524-.793.909-.545 1.715 2.188 4.574 1.385 6.995 1.635.301.203.598.35.893.455H86.646a13.803 13.803 0 0 1-.686-1.09c-.11-.445-.095-1.088.454-1.271.181-.051.359-.08.533-.092zm21.826 2.454h-7.371c1.566-.369 3.119-1.025 4.727-.273.336-.354.426-.918 1-1.09.564.01 1.365-.199 1.543.545.074.267.109.544.101.818zm-22.127 0h11.926c.957.338 1.896.221 2.83 0h7.371a2.485 2.485 0 0 1-.646 1.635c-.689-.193-1.525-.1-2.09-.545-.742.539-2.018.541-2.418 1.363H89.164c-.991-.563-1.844-1.491-2.518-2.453zm2.518 2.453h14.456a1.3 1.3 0 0 0-.125.545c1.842.816 4.477-.066 6.27.908.398.494.863.846 1.375 1.09H90.315c.837-.361 1.405-.818.733-1.998-.67-.01-1.3-.215-1.884-.545zm-3.567 4.996v-.07c.016-.664.538-1.16.999-1.564.715-.348.764.789 1.454.455.456-.682 1.479-.934 2.265-1.273h20.824c1.938.932 4.512.318 6.438.092.18.312.512.66.271.998-.43.506-1.551.721-1.555 1.363H85.597v-.001zm0 0h30.696c0 .107.031.229.102.363.307.553-.42.838-.816 1.09-.631-.049-.98.322-1.455.547a2.582 2.582 0 0 1-.902.453H98.096c-.338-.787-.486-1.711-1.688-1.271l-.909 1.271h-2.381c-.11-.463-.251-.912-.799-1.182-.829.35-1.573.945-2.381 1.182h-.957c-.461-.631-.714-1.146-1.205-1.727-.794-.029-1.898.209-2.179-.726zm3.385 2.453h.957a2.307 2.307 0 0 1-.89.092 2.444 2.444 0 0 0-.067-.092zm4.137 0H95.5c.403.465 1.237.408 1.453 1.182.02.445-.513.545-.817.727-.763.135-1.669.037-2.271-.545-.541-.331-.625-.856-.746-1.364zm4.977 0h15.125c-1.615.463-3.58-.432-4.912.818-1.168-.01-2.066 1.105-3.18 1.361-2.164.611-4.961.432-6.541-1.453-.227-.177-.373-.443-.492-.726zm12.144-11.447h.037c.258.006.502.092.666.273h-1.482c.221-.176.508-.269.779-.273zm-.779.273h1.482a.77.77 0 0 1 .182.363h-1.961a1.04 1.04 0 0 1 .297-.363zm-.297.363h1.961l-.02.271h-2.021a.794.794 0 0 1 .043-.182c.012-.03.023-.059.037-.089zm-.08.272h2.021l-.021.273h-1.979a.843.843 0 0 1-.021-.273zm.021.273h1.979l-.029.363h-1.852c-.027-.126-.07-.242-.098-.363zm.098.364h1.852l-.02.273h-.453c-.471-.064-1-.264-1.365-.182a.664.664 0 0 0-.014-.091zm-22.731 2.724h-1.117c.047-.154.164-.281.424-.363.276.041.503.178.693.363zm-1.117 0h1.117c.137.133.256.291.362.455H85.34c-.016-.166-.027-.32.015-.455zm-.015.455h1.494c.078.119.149.244.216.363h-1.683c-.001-.124-.015-.246-.027-.363zm.028.364h1.683v.363h-1.726c.034-.121.044-.244.043-.363zm-.043.363h1.726v.363h-1.529a1.088 1.088 0 0 1-.197-.363zm.196.363h1.529v.002c-.038.207-.152.361-.454.361-.436.118-.833-.064-1.075-.363zm32.579 3.272h-.85c.1-.105.217-.195.326-.273.221.026.391.13.524.273zm-.85 0h.85c.078.08.145.174.203.271h-1.238c.04-.1.107-.189.185-.271zm-.219.544v-.168a.753.753 0 0 1 .033-.105h1.238c.053.09.1.182.143.273h-1.414zm0 .09v-.09h1.414c.047.094.088.188.129.271h-1.484a.853.853 0 0 1-.059-.181zm.059.182h1.484v.246c-.002.01-.006.018-.01.027h-1.283a.913.913 0 0 1-.191-.273zm.191.273h1.283a.467.467 0 0 1-.354.271h-.387a1.018 1.018 0 0 1-.542-.271zm-8.517 3.543h.262c.15.043.266.16.375.271h-1.768c.328-.144.861-.089 1.131-.271zm-1.131.272h1.768l.09.092a.768.768 0 0 1 .059.182h-2.172a.422.422 0 0 1 .255-.274zm-.256.273h2.172a.563.563 0 0 1 .006.182h-2.199a.573.573 0 0 1 .021-.182zm-.022.182h2.199a.555.555 0 0 1-.127.273H107.4a1.143 1.143 0 0 1-.045-.273zm.045.273h2.027a1.128 1.128 0 0 1-.383.271h-1.465a.912.912 0 0 1-.179-.271zm.18.272h1.465a2.818 2.818 0 0 1-.555.182c-.33.185-.683.056-.91-.182zm-2.014 0h-2.832c.91-.084 1.838-.205 2.668-.271l.164.271zm-4.615.273v-.182a17.7 17.7 0 0 0 1.783-.092h2.832l.107.182c-.014.031-.027.062-.043.092h-4.679zm0 .27v-.27h4.68c-.051.1-.107.189-.168.271h-4.512v-.001zm0 .002h4.512c-.08.105-.17.195-.268.273h-4.162a.699.699 0 0 1-.082-.273zm.082.273h4.162a1.76 1.76 0 0 1-.287.182h-3.734a.823.823 0 0 1-.141-.182zm.141.182h3.734c-.844.418-2.062.182-3.049.271h-.074a.968.968 0 0 1-.611-.271zm32.935-9.631zM42.141 56.9c1.591-2.833 3.422-5.594 5.664-8.085h.363v.091l1.363-1.181.091.091-.727.909.091.091c-.28.14-.249.406-.364.636-.079-.045-.115-.122-.272-.091l.272.091c-.05.334-.508.475-.636.817l-.182-.182c-.036.058-.189.13-.182.273.141-.026.255-.061.272.091-.37.37-.687.93-.817 1.454-1.167 1.577-2.162 3.263-3.044 4.997-1.658 3.262-2.913 6.695-4.133 9.902 1.37-3.61 3.517-6.841 6.164-9.902.184-.213.37-.425.559-.636h.272c.015.208-.016.421-.079.636-.196.683-.7 1.388-1.012 1.999-2.069 3.076-3.438 6.527-5.905 9.357l-.272-.363c-.619 1.769-.928 3.617-1 5.542l.636-.364c1.901 1.414.183 3.607.273 5.451-.254 1.862-.494 3.939-.273 5.724l.273-2.907c.542-1.011.162-2.535.817-3.361.938.676.341 1.911 1.09 2.635 1.291-5.294 2.292-10.761 4.452-15.717.626-.695 1.285.268 1.726.636 1.242-2.675 2.142-5.456 3.725-7.904.15-.267.353-.519.591-.727.374-.327.835-.546 1.317-.545.263.13.489.319.646.545.255.358.39.811.262 1.272-1.235.994-1.8 2.457-2.544 3.725-3.72 8.054-6.348 16.624-6.995 26.073l.182.272c.257-.98.359-2.114 1.09-2.816.059-3.822.9-7.323 1.726-10.811 2.029-6.063 4.35-12.205 7.775-17.715 2.865-4.607 6.503-8.774 11.394-12.083.721-.146 1.613-1.033 2.271-.182l3.089-3.361c1.179-.818 2.235-2.231 3.725-1.908.663 1.508 1.353-.407 2.18-.091.56.247 1.115.791 1.09 1.453-4.373 4.306-7.856 9.031-12.265 13.083l-.727-.091c2.253-3.764 5.287-7.137 7.722-10.72-4.352 4.079-7.786 8.96-10.693 13.945.316.314.993.521 1.063 1.135-.573 3.008-.912 6.105-1.362 9.176-.783 4.131-1.038 8.48-1.635 12.718-.604 1.677-.574 3.571-1.544 5.088-.125-.028-.317.081-.454-.091.623-4.323.543-8.906 1.09-13.264-.744 4.693-1.875 9.248-2.635 13.899l-.454.364c-.344-.054-.842.199-1-.273.999-6.21 2.253-12.73 2.999-19.26l-.182-.817c-1.36 5.813-2.937 11.569-3.362 17.806l-.091-.091c-.172.463-.115 1.222-.727 1.363-.855-.517-.638-1.724-.636-2.635-.142.416-.115.909-.363 1.363-.296.139-.748.014-.817-.363-.236-4.25-.086-8.941.363-13.173l-.363.545c-.969 5.787-1.266 11.875-1.636 17.897l-.882.182c-.33-3.401-.545-7.079-.208-10.447-.545.978-.163 2.426-.454 3.634-.164.371-.485 1.159-1.181.817-.45-.822-.231-2.066-.091-2.998-.631 2.473-.958 5.077-.999 7.813-.088.382-.284.787-.44 1.181-.193.489-.323.963-.105 1.363l-.363 6.087c.189 4.557 1.26 8.859 3.543 12.627 1.062 3.621 3.83.279 5.996 1 .502.176 1.022.605 1 1.182.072.484-.418.398-.727.363-1.699.062-1.289 1.928-2.907 2.271-.936 1.088-1.966 2.287-2.635 3.633.015.035.003.061 0 .092-.218.822.146 1.438.636 1.998.499.826 1.163-.029 1.727-.092 1.781 1.785 2.844-1.484 4.815-.271 1.458-1.037 3.129-1.367 4.815-1.727 1.209-.252 2.439-.523 3.543-1.09.857-.666 3.081-.234 2.544-1.998-.738-1.9-2.956-1.008-3.18-2.998l-1.727-.273c-1.361-.201-3.11.098-3.997-1.09-.319-.621-.301-1.377 0-1.998-.969.074-2.346.646-3.18-.273-.195-.391-.291-1.15.363-1.363 1.399-.154 2.947.033 4.088-.816 1.659-.635 2.104 1.344 2.999 2.18.78.379 1.807.213 2.543-.09.798-.531 2.393.871 2.362-.727-.535-1.711-.894-4.105.091-5.633.873-.17 1.19.822 1.544 1.363-.297 1.846.459 3.492.909 5.178a63.864 63.864 0 0 1 3.18 4.541c.593.879-.224 1.807-.817 2.545.067.65.313 1.451.454 2.18.188.111.375.236.545.363 1.096.809 1.959 1.91 2.562 3.184.243.908.729 2.029.073 2.812-.899.922-2.23 1.154-3.361.727-1.729-.283-1.617 1.348-2.816 2.09-1.186.828-2.638 1.398-4.088.908-.999-.021-1.797-1.48-2.725-.816-1.157 1.029-2.573 1.676-4.179.998-1.11.234-1.631 1.434-1.999 2.363 2.315 1.541 5.516.709 8.358.635.335.225.777.729.636 1.09-1.357.549-3.019.357-4.451.729-2.955 1.039-5.458-1.975-8.086-.092-3.16 1.084-4.112 4.469-4.724 7.359-.169 4.537.864 8.697 2.515 12.627 1.119 2.664 2.521 5.223 4.026 7.723 2.333 3.35 5.348 7.094 9.176 8.449 2.679.467 4.109-2.34 5.36-4.271.987-1.385 2.753-.85 3.998-1.725.331-1.625 2.217-2.904 3.543-3.816 1.169-.543 2.565-.32 3.725.092 2.745 1.006 4.613-1.145 7.086-.727 1.833 1.615 4.53 1.225 6.904 1.635 2.674.658 5.146 1.777 7.541 3.088.441.424.617.996.545 1.637-1.848 2.115-4.367-.217-6.359-.637-3.676-.096-7.483-.791-10.993-.092-1.108.818-2.26 1.51-3.634 1.727-2.129.57-5.124-.865-6.814 1-.376.623-.51 1.49 0 2.09 3.569 1.393 8.177 1.881 11.992.998 3.051.365 4.358-3.654 7.449-2.998 1.257 1.15 3.521 1.508 3.453 3.543-2.086 2.609-5.748 2.104-8.631 3.271-2.719.326-4.954 1.977-7.54 2.635-1.832.41-3.869.098-5.269 1.543-.048.527-.776.887-.364 1.455 2.529 3.781 6.817 4.887 11.191 4.996h1.557a49.038 49.038 0 0 0 3.968-.273c10.15-2.783 20.292-5.797 28.253-14.262 3.848-5.258 6.354-11.107 8.52-17.08a286.969 286.969 0 0 0 1.656-4.725c.291-.83.236-1.74 1.09-2.271 1.852-.16 3.818-.076 5.088-1.635 1.785-2.686 5.283-3.32 6.449-6.359 1.768-3.973.156-9.426 2.816-12.99.727-.959.822-2.256.844-3.543.014-.721.002-1.438.064-2.09a7.98 7.98 0 0 1-.182-1c-.34-1.797-.662-3.748-2.725-4.451-2.703-1.34-4.691.998-6.633 2.453-.684.656-1.373 1.309-1.998 1.998-.805.934-1.486 1.936-1.793 3.09a5.372 5.372 0 0 0-.115.545c-1.57.686-.082 1.82-.998 2.816-.512.105-1.232.164-1.637-.455-.438-.576.182-1.166.273-1.727-.322-.396-.469-.791-.506-1.18-.1-1.049.588-2.07.777-3.09.145-.672.055-1.352-.635-1.998l-.273 1.998-.09.545c-.139.252-.377.664-.727.545-.439-.127-.467-.545-.545-.908l-.182.273c-.346.076-.615.221-.91-.092-.033-.141-.066-.248-.09-.363-.773-2.684-.121-5.961-.637-8.812l-2.998-14.081c-.09-.876-.555-2.023.182-2.726.373.199.904.136 1.182.636.061-.34.107-.756.545-.908l1 .908c1.238 6.161 2.375 12.399 3.27 18.715-.465-5.246-1.43-10.836-2.543-16.081-.062-1.031-.566-2.065-.182-2.998.621.01 1.244.896 1.453 1.544 1.066 4.608 1.787 9.282 2.635 13.991l.545-5.543.182-.271c.986 3.287.852 7.336.818 10.629.414-1.809.502-3.889.908-5.541.541.01.369.877.816 1.271.711-4.457-.584-8.918-.271-13.446.863 4.481 2.311 8.87 2.543 13.627.607-3.451.586-7.352.637-10.902.176-1.139-.516-2.329 0-3.18l.637 1.181c.971 4.34 1.041 9.301.908 13.717 1.344-4.387 1.43-9.609 1.09-14.353l.182-.182c1.129 2.335 1.287 5.255 1.727 7.904l.635-12.446.092-.182c.355.17.496.628.545 1 1.047 6.091.531 13.386.182 19.441 2.094-6.844 1.945-14.038 2.102-21.44.02-.936.043-1.874.078-2.816h.273c.176.908.334 1.851.475 2.816.904 6.242 1.023 13.516-.111 19.442 1.445-2.979 1.082-6.811 2.18-9.812.066.229.252.383.182.637-.08-.256.113-.402.182-.637.27.316-.158.799 0 .818.031-.016.109-.088.182-.09-.201 2.195-.166 5.451-.635 7.539.398-.727.832-1.436.998-2.271.176-3.965 2.121-7.705 1.182-11.9a61.097 61.097 0 0 1-.457-3.725c-.34-3.481-.578-7.002-1.723-10.175-.768-3.049-2.941-5.562-4.361-8.358-.246-.387-.453-1.225.182-1.453.326-.354.695-.005 1.09 0l-2.18-3.725v-.457l-2.635-3.27h-.545c-2.008-.48-2.193-2.468-2.52-4.179a10.677 10.677 0 0 0-.207-.909c-4.855-5.829-7.098-13.418-13.99-17.806l-.182-1.181a61.083 61.083 0 0 0-5.359-3.997c-8.857-4.195-19.418-4.334-29.526-3.634.175-.218.442-.287.727-.272 5.698-3.166 13.766-1.761 19.805-.818-3.637-1.606-7.957-1.482-11.992-1.999-11.189-.908-21.033 2.189-30.343 6.359h-.091c4.683-3.185 10.012-5.936 15.626-7.359-.854.25-1.799.228-2.544.727-3.583-.035-6.535 1.484-9.902 2.089-5.689 2.852-11.112 6.357-16.353 10.266C49.431 43.14 44.378 49.688 41.04 56.9a53.674 53.674 0 0 0-3.047 8.358c1.257-2.732 2.588-5.58 4.148-8.358z" fill="#fff"/></g></svg>