<svg xmlns="http://www.w3.org/2000/svg" width="2500" height="2500" viewBox="0 0 192.756 192.756"><g fill-rule="evenodd" clip-rule="evenodd"><path fill="#fff" d="M0 0h192.756v192.756H0V0z"/><path fill="#f9e740" d="M151.84 158.311L132.178 46.078 20.764 65.903l19.661 112.07 111.415-19.662z"/><path fill="#dfd040" d="M171.992 114.4l-17.367-99.616-22.447 31.294 19.662 112.233 20.152-43.911z"/><path fill="#5a8d4c" d="M156.59 140.615l-4.096-23.101-4.26 8.519 4.098 23.268 4.258-8.686z"/><path d="M150.365 68.852c1.475-2.293 1.639-9.831.328-16.712-1.148-7.045-3.277-10.978-4.752-8.684-1.311 2.13-1.639 9.667-.328 16.548 1.313 7.046 3.442 10.978 4.752 8.848z" fill="#b12c2e"/><path fill="#7d5e93" d="M153.805 22.321l-5.407 7.864 6.555 17.695-1.148-25.559z"/><path fill="#334e8d" d="M149.873 86.056l-4.424 7.209 5.735 16.712-1.311-23.921z"/><path fill="#334e8d" d="M145.449 93.429l4.424-7.373-5.734-16.712 1.31 24.085z"/><path fill="#f2e342" d="M20.764 65.903l111.414-19.825 22.447-31.294L54.68 32.643l-33.916 33.26z"/><path fill="#629850" d="M51.075 40.999l20.972-3.769 6.554-6.881-20.644 3.604-6.882 7.046z"/><path d="M104.98 37.23c-2.623 2.294.654 3.277 7.535 2.294 6.719-.984 14.42-3.605 17.205-5.735 2.621-2.293-.656-3.277-7.373-2.293-6.88.983-14.581 3.604-17.367 5.734z" fill="#c32b2d"/><path fill="#8765a0" d="M129.557 44.276l4.752-7.537-25.889 7.864 21.137-.327z"/><path fill="#345499" d="M95.641 35.919l5.898-6.881-21.463 6.717 15.565.164z"/><path fill="#345499" d="M101.539 29.038l-5.898 6.881 21.627-6.717-15.729-.164z"/><path d="M48.617 89.005c-.328-1.639-.655-1.639-1.147-1.475-.491 0-.819.163-.655 1.802l9.995 57.019c.327 1.637.655 1.475 1.146 1.311.492 0 .983 0 .655-1.639l-9.994-57.018zM66.312 85.892c-.328-1.638-.655-1.638-1.147-1.475-.491 0-.983 0-.655 1.802l9.994 56.854c.328 1.803.655 1.639 1.146 1.475.492-.164.983 0 .655-1.639l-9.993-57.017zM119.398 76.553c-.328-1.802-.82-1.639-1.311-1.639-.492.164-.82.164-.492 1.966l9.83 56.854c.328 1.803.656 1.475 1.311 1.475.492-.164.82 0 .492-1.803l-9.83-56.853zM101.703 79.666c-.328-1.801-.654-1.638-1.146-1.638-.492.165-.982.165-.656 1.966l9.994 56.854c.328 1.803.656 1.475 1.148 1.475.49-.164.982 0 .654-1.803l-9.994-56.854zM84.008 82.779c-.328-1.803-.656-1.639-1.147-1.475-.491 0-.983 0-.655 1.802l9.995 56.854c.327 1.803.655 1.475 1.146 1.475.492-.164.983 0 .656-1.803l-9.995-56.853z" fill="#3459a1"/><path d="M99.246 89.168l-5.408-4.423c-.492-.328-.983-.983-1.147-1.639-.164-1.474.983-2.785 2.294-3.113.819-.164 1.475.164 2.13.655l4.588 4.096 2.785-5.407c.492-.819.982-1.311 1.803-1.311 1.311-.328 2.949.656 3.113 1.966.164.819 0 1.639-.328 2.13l-3.768 5.898 6.553 5.243c.492.328.982.983.982 1.639.328 1.474-.49 2.786-2.129 3.112-1.146.164-1.639-.326-2.459-.818l-5.242-4.751-3.439 6.226c-.492.818-.82 1.311-1.967 1.639-1.639.328-2.786-.656-3.114-2.131 0-.654.164-1.475.492-1.965l4.261-7.046z" fill="#da8f35"/><path d="M35.674 120.627c-1.311-7.537.655-13.762 4.915-14.582 4.424-.818 8.52 4.588 9.831 11.961 1.311 7.537-.655 13.762-5.08 14.582-4.423.818-8.356-4.424-9.666-11.961zm11.141-1.967c-.655-4.26-2.785-8.027-5.243-7.537-2.622.492-3.113 4.752-2.458 8.85.819 4.26 2.785 8.027 5.406 7.535 2.459-.49 2.95-4.75 2.295-8.848zM70.737 131.768c.327 1.803-.164 3.113-1.312 3.277-.982.164-1.638-.49-2.13-1.803-.327 1.639-1.638 2.787-2.785 2.949-3.769.656-6.882-3.768-7.701-8.684-.983-5.078.163-10.648 3.932-11.469 1.311-.164 2.622.164 3.769 1.311l-1.147-7.045c-.328-1.803.164-3.113 1.311-3.277.983-.162 1.966.82 2.294 2.623l3.769 22.118zm-8.521-10.977c-1.802.328-2.293 3.277-1.802 5.734.327 2.457 1.802 5.08 3.604 4.752 1.966-.328 2.293-3.441 1.966-5.898-.491-2.459-1.801-4.916-3.768-4.588zM85.974 113.418c.328 1.803-.328 2.949-1.311 3.113-.983.328-1.803-.492-2.13-1.803-.492 1.803-1.803 2.785-2.95 3.113-3.605.492-6.881-3.932-7.701-8.848-.819-5.078.164-10.65 4.096-11.305 1.147-.328 2.458.164 3.605 1.146l-1.147-7.045c-.328-1.639.164-3.113 1.311-3.277.983-.163 1.966.983 2.294 2.622l3.933 22.284zm-8.684-10.979c-1.802.328-2.293 3.277-1.802 5.736.491 2.457 1.802 5.078 3.769 4.75 1.966-.326 2.294-3.439 1.802-5.898-.492-2.621-1.803-5.078-3.769-4.588zM100.229 107.191c-.818.164-2.621-1.146-3.932-.982-.656.164-1.147.656-.983 1.803.491 2.621 7.208.982 8.357 7.373.49 3.768-1.148 7.045-4.424 7.699-2.294.328-5.736-.982-6.227-3.439-.165-.82.164-2.621 1.146-2.785 1.638-.328 2.622 1.475 4.424 1.146 1.146-.164 1.475-.82 1.311-1.803-.49-2.621-7.209-.982-8.356-7.537-.655-3.768 1.147-6.881 4.26-7.373 1.803-.328 5.079.328 5.571 3.113.163 1.311-.327 2.621-1.147 2.785zM113.99 118.824c.656 2.459 2.295 3.441 4.098 3.113s2.621-2.621 3.604-2.785c.82-.164 1.803.82 1.967 1.967.328 2.129-2.457 4.914-5.242 5.406-3.934.656-7.537-2.949-8.357-8.684-.982-5.406.82-10.65 4.588-11.305 3.932-.656 7.373 3.932 8.193 8.191.326 1.639 0 2.457-1.148 2.621l-7.703 1.476zm5.08-4.424c-.654-2.293-1.965-3.768-3.604-3.604-1.639.326-2.459 2.293-2.295 4.588l5.899-.984zM136.766 116.367c.982-.492 1.639-.82 1.475-2.293-.164-1.475-1.146-1.803-2.293-1.639-1.312.164.49 0-1.312.164-.982.164-1.473-.984-1.637-1.967l-1.475-9.012 1.965-.328c.984-.328 1.803-1.146 1.475-2.621-.164-1.311-1.311-2.13-2.129-1.967l-2.131.328-.654-3.113c-.328-1.639-1.312-2.621-2.295-2.458s-1.639 1.475-1.311 3.113l.656 3.114-.82.164c-.982.162-1.475 1.311-1.311 2.621.328 1.311 1.146 2.129 2.131 1.965l.818-.162c.164 1.639 1.475 9.012 1.475 9.012.492 2.621.984 6.225 5.734 5.406l1.639-.327z" fill="#3459a1"/></g></svg>