<svg xmlns="http://www.w3.org/2000/svg" width="2500" height="2500" viewBox="0 0 192.756 192.756"><g fill-rule="evenodd" clip-rule="evenodd"><path fill="#fff" d="M0 0h192.756v192.756H0V0z"/><path d="M184.252 96.4c0 4.286-3.572 7.858-7.947 7.858h-17.236c-10.537 0-10.537-15.806 0-15.806h7.322a16.145 16.145 0 0 0-14.109-8.216c-8.93 0-16.164 7.234-16.164 16.164 0 8.841 7.234 16.074 16.164 16.074 10.537 0 10.537 15.807 0 15.807-9.645 0-18.217-4.286-24.111-10.984v3.126c0 10.538-15.807 10.538-15.807 0V96.4c0-8.93-7.234-16.164-16.164-16.164-8.841 0-16.074 7.234-16.074 16.164v24.022c0 10.538-15.807 10.538-15.807 0V96.4c0-17.682 14.289-31.971 31.881-31.971 12.145 0 22.594 6.698 28.041 16.611 5.447-9.913 15.986-16.611 28.041-16.611 17.593.001 31.97 14.29 31.97 31.971z"/><path d="M40.475 64.43c17.592 0 31.881 14.289 31.881 31.971 0 17.593-14.289 31.881-31.881 31.881-17.682 0-31.971-14.288-31.971-31.881 0-17.682 14.288-31.971 31.971-31.971zm0 15.806c-8.931 0-16.164 7.234-16.164 16.164 0 8.841 7.233 16.074 16.164 16.074 8.841 0 16.074-7.233 16.074-16.074 0-8.93-7.234-16.164-16.074-16.164z" fill="#1879bf"/></g></svg>