<svg xmlns="http://www.w3.org/2000/svg" width="2500" height="2500" viewBox="0 0 192.756 192.756"><g fill-rule="evenodd" clip-rule="evenodd"><path fill="#fff" d="M0 0h192.756v192.756H0V0z"/><path d="M15.28 85.103c2.914 0 4.99.796 6.233 2.393.684.891 1.071 1.986 1.158 3.292.077 1.053-.047 2.148-.377 3.292-.462 1.601-1.263 3.115-2.398 4.528-2.504 3.136-5.796 4.703-9.879 4.703-1.643 0-3.085-.336-4.331-1.008-1.617-.858-2.546-2.189-2.784-3.998-.163-1.223-.032-2.579.396-4.067a13.31 13.31 0 0 1 3.099-5.453c2.218-2.384 5.181-3.608 8.883-3.682zm-.184 1.119c-1.938 0-3.692.913-5.257 2.733-.506.581-.998 1.356-1.478 2.326-.478.966-.867 1.97-1.166 3.007-.706 2.45-.781 4.333-.218 5.644.656 1.514 1.833 2.272 3.537 2.272 1.838 0 3.476-.838 4.917-2.513.557-.639 1.095-1.468 1.609-2.484a17.184 17.184 0 0 0 1.22-3.056c.508-1.763.681-3.338.512-4.724-.114-.867-.451-1.592-1.008-2.186-.628-.654-1.514-.994-2.668-1.019zm15.305 8.369l-1.282 4.445c-.281.975-.379 1.617-.304 1.94.077.319.398.543.96.672l.666.157c.289.066.396.22.326.465-.096.332-.312.498-.651.498-.13 0-.22-.005-.278-.013l-.943-.112a21.329 21.329 0 0 0-2.25-.133c-.971 0-1.841.042-2.601.12l-1.01.121a5.027 5.027 0 0 1-.493.024.617.617 0 0 1-.417-.133.299.299 0 0 1-.096-.327c.075-.262.349-.444.817-.548l.546-.12c.48-.116.809-.22.983-.311.173-.092.332-.249.473-.469.206-.34.438-.95.693-1.833l2.781-9.646c.281-.975.392-1.613.337-1.92-.055-.307-.322-.522-.808-.643l-.472-.125c-.408-.104-.649-.183-.714-.228-.068-.05-.079-.149-.037-.294.04-.137.143-.253.306-.353.162-.095.336-.145.523-.145.122 0 .384.021.797.062l1.135.108c.488.05.902.075 1.249.075.976 0 1.999-.062 3.079-.183l.81-.087c.632-.07 1.462-.107 2.498-.107 1.262 0 2.32.269 3.182.812 1.3.83 1.719 2.053 1.249 3.682-.376 1.307-1.298 2.339-2.762 3.098-.675.356-1.452.601-2.331.729l1.844 6.523c.137.484.261.791.364.916.103.125.325.24.667.349l.745.24c.188.059.249.19.188.402a.628.628 0 0 1-.25.34.718.718 0 0 1-.407.133c-.095 0-.172-.004-.239-.013l-.58-.095a10.226 10.226 0 0 0-1.623-.146 8.44 8.44 0 0 0-1.496.12c-.279.05-.43.079-.459.087l-.224.025-.09.013c-.043 0-.069-.017-.077-.051l-1.967-8.152c-.333.042-.63.062-.88.062-.356.006-.851-.006-1.477-.031zm.294-1.108c.506.033.926.05 1.255.05 3.2 0 5.104-1.058 5.714-3.172.312-1.083.189-1.949-.37-2.596-.533-.618-1.724-.925-3.566-.925-.29 0-.666.013-1.128.033l-1.905 6.61zm14.206 5.263l2.498-8.663c.29-1.003.459-1.638.51-1.903.05-.262.058-.502.018-.722-.041-.203-.122-.344-.239-.419-.12-.079-.374-.162-.76-.249l-.559-.137c-.214-.054-.353-.116-.411-.182-.064-.062-.072-.17-.03-.315.091-.315.301-.473.63-.473.104 0 .219.008.349.025l.75.087c.771.096 1.602.146 2.499.146.863 0 1.728-.038 2.584-.108l.897-.075c.874-.07 1.601-.108 2.177-.108 1.608 0 2.835.274 3.677.825 1.089.721 1.43 1.779 1.028 3.172a4.43 4.43 0 0 1-1.705 2.41c-.851.618-1.922 1.012-3.215 1.181l-.253.038c-.211.025-.33.091-.36.195-.035.121.043.183.238.183h.243c.169 0 .504.054 1.008.158s.869.203 1.1.29c.716.27 1.199.805 1.44 1.605.22.714.208 1.489-.032 2.322-.392 1.36-1.173 2.492-2.348 3.392-.621.47-1.296.81-2.033 1.021-.732.212-1.608.315-2.622.315-.789 0-1.626-.029-2.516-.087l-1.363-.083a30.933 30.933 0 0 0-1.956-.087c-1.066 0-2.173.062-3.317.183l-.735.082a4.286 4.286 0 0 1-.359.013c-.39 0-.542-.149-.457-.448a.618.618 0 0 1 .256-.36c.125-.075.345-.146.659-.212l.548-.095c.621-.125 1.054-.349 1.296-.676.24-.33.529-1.076.865-2.241zm5.117-5.628h1.435a9.51 9.51 0 0 0 1.469-.133c.555-.091.992-.194 1.313-.314.544-.203 1.044-.556 1.506-1.058s.776-1.037.94-1.605c.216-.75.148-1.417-.199-2.002-.221-.374-.562-.634-1.017-.788-.454-.153-1.125-.232-2.014-.232l-.645.025h-1.028l-1.76 6.107zm-.294 1.021l-1.367 4.739c-.228.788-.269 1.369-.123 1.75.117.304.386.54.808.718.425.179.928.27 1.513.27 1.387 0 2.482-.398 3.278-1.19a5.58 5.58 0 0 0 1.446-2.459c.437-1.514.209-2.591-.682-3.23-.557-.398-1.588-.597-3.097-.597h-1.776v-.001zm13.621 4.947l2.806-9.733c.272-.941.366-1.567.29-1.891-.077-.32-.373-.539-.889-.66l-.705-.157c-.308-.075-.426-.237-.353-.49.09-.315.323-.473.696-.473h.099l.614.038c.088.008.281.033.577.074.668.087 1.47.133 2.411.133.932 0 1.761-.046 2.488-.133.32-.042.526-.066.62-.074l.635-.038h.1c.364 0 .501.158.41.473-.071.245-.282.407-.635.49l-.718.157c-.435.096-.743.203-.924.319-.182.12-.359.328-.532.626-.208.373-.413.904-.611 1.593l-2.81 9.745c-.269.933-.366 1.555-.294 1.879.073.318.374.539.898.658l.665.162c.307.079.425.24.354.485-.101.349-.333.51-.699.485l-.097-.013-.613-.037c-.082 0-.275-.021-.58-.062-.643-.087-1.444-.133-2.411-.133s-1.795.046-2.488.133c-.32.042-.521.062-.603.062l-.648.037-.104.013c-.369.017-.504-.146-.407-.485.073-.253.285-.415.635-.485l.757-.162c.424-.087.731-.19.919-.314.186-.121.365-.332.537-.631.212-.389.417-.919.61-1.591zm17.759-11.898H80.09c-2.13.066-3.915.917-5.363 2.554l-.62.705c-.286.315-.556.473-.812.473-.135 0-.234-.046-.296-.133-.064-.091-.077-.199-.04-.328.047-.162.146-.369.292-.622l2.7-4.387c.257-.411.507-.618.751-.618.187 0 .28.096.284.29l.012.319c.002.191.057.315.169.361.107.049.373.075.793.075h11.61c.424 0 .695-.021.811-.062.119-.038.287-.166.512-.377l.333-.328c.21-.204.403-.302.572-.302.152 0 .233.079.25.232.012.153-.032.443-.138.871l-1.108 4.325c-.116.46-.338.692-.668.692-.23 0-.36-.149-.392-.448l-.054-.609c-.091-.946-.417-1.605-.978-1.978-.317-.195-.742-.361-1.274-.498a6.06 6.06 0 0 0-1.51-.207h-1.218l-3.269 11.338c-.32 1.231-.43 2.003-.33 2.317.099.319.527.576 1.292.779l.786.221c.322.087.444.265.366.534a.58.58 0 0 1-.256.315.81.81 0 0 1-.446.133c-.073 0-.192-.008-.348-.025l-1.075-.107c-1.166-.12-2.163-.183-2.982-.183-1.04 0-2.079.054-3.106.158l-.972.107a5.022 5.022 0 0 1-.489.024c-.169 0-.3-.041-.387-.128-.094-.083-.119-.19-.082-.319.087-.303.391-.498.906-.585l.831-.146c.754-.119 1.309-.389 1.668-.809.359-.418.696-1.182 1.015-2.288l3.274-11.336zm27.695-1.297l-1.111 3.852a4.144 4.144 0 0 1-.223.643c-.129.261-.322.39-.582.39-.15 0-.248-.041-.279-.129-.037-.082-.041-.29-.014-.613l.031-.51c.074-.995-.258-1.676-1.008-2.041-.744-.365-2.18-.547-4.309-.547h-2.283l-1.801 6.245h2.805c.611 0 1.033-.021 1.271-.066s.477-.145.715-.298c.24-.154.422-.307.543-.457.127-.149.299-.431.516-.842l.18-.303c.221-.39.48-.584.775-.584.143 0 .236.062.277.183.043.12.023.261-.059.423a.572.572 0 0 0-.037.087l-.129.447c-.033.112-.117.357-.25.73-.158.444-.303.887-.43 1.323l-.479 2.007-.109.377a.52.52 0 0 1-.01.033c-.008.149-.08.282-.225.41a.679.679 0 0 1-.453.187c-.17 0-.27-.041-.303-.128-.027-.083-.031-.328.004-.734l.043-.535c.033-.477-.086-.788-.365-.933-.273-.146-.873-.22-1.797-.22h-2.804l-2.059 7.141h2.779c2.137 0 3.717-.203 4.744-.605 1.027-.406 2.055-1.231 3.082-2.479l.332-.402c.236-.29.455-.436.66-.436a.36.36 0 0 1 .254.096.229.229 0 0 1 .059.231c-.016.05-.092.195-.227.439l-2.398 4.094c-.055.095-.133.145-.232.145h-9.95c-1.218 0-2.665.071-4.341.216l-.469.05a4.461 4.461 0 0 1-.325.013c-.32 0-.434-.162-.341-.485a.494.494 0 0 1 .241-.323c.112-.059.377-.137.796-.236l.538-.108c.588-.128 1.001-.373 1.244-.722.241-.352.542-1.156.904-2.413l2.659-9.223c.256-.887.343-1.488.262-1.795-.08-.307-.378-.522-.89-.643l-.651-.162c-.38-.095-.538-.253-.475-.473.035-.12.124-.232.27-.332a.725.725 0 0 1 .43-.153c.117 0 .274.008.474.024l.759.059c.634.058 1.505.087 2.615.087h11.156v-.002zm14.178 15.708c-.984.423-1.799.738-2.445.95-1.586.51-3.133.763-4.643.763-2.951 0-5.01-.95-6.176-2.845-.943-1.539-1.072-3.5-.383-5.889a13.84 13.84 0 0 1 2.322-4.582 11.825 11.825 0 0 1 4.43-3.579c1.77-.829 3.719-1.244 5.852-1.244 1.973 0 3.586.298 4.836.9.338.161.545.273.605.335.064.058.078.149.041.274l-.965 3.351c-.137.469-.365.705-.686.705-.256 0-.387-.146-.395-.436l-.025-.755c-.023-.833-.266-1.525-.736-2.078-.691-.817-1.709-1.227-3.049-1.227-.846 0-1.693.178-2.549.539a7.503 7.503 0 0 0-2.275 1.488c-1.496 1.427-2.609 3.413-3.346 5.963-.756 2.625-.699 4.624.176 5.993.783 1.223 1.947 1.832 3.486 1.832.729 0 1.498-.161 2.314-.48s1.531-.742 2.152-1.27c.559-.477 1.145-1.173 1.754-2.085l.445-.655c.314-.478.588-.718.814-.718.121 0 .207.05.264.153.053.1.061.22.021.356-.02.066-.076.203-.17.415l-1.669 3.826zm9.841-7.531l-1.102 3.815c-.461 1.602-.672 2.601-.633 2.994.039.391.383.655 1.027.797l.564.12c.369.07.518.231.445.485-.096.331-.355.497-.781.497-.082 0-.158-.004-.221-.013l-.641-.082a20.12 20.12 0 0 0-2.709-.171c-1.004 0-1.98.062-2.922.183l-.631.07a3.53 3.53 0 0 1-.492.037c-.365 0-.502-.157-.41-.473.074-.261.305-.427.689-.497l.51-.1c.666-.129 1.113-.299 1.344-.51.232-.216.43-.556.598-1.021.074-.224.281-.929.621-2.111l.061-.207 2.428-8.422c.305-1.058.418-1.733.334-2.015-.082-.282-.451-.506-1.111-.667l-.451-.108c-.357-.083-.504-.236-.438-.465.094-.324.344-.485.752-.485.133 0 .236.004.312.012l.535.038c1.338.111 2.24.17 2.709.17.949 0 1.934-.062 2.961-.183l.52-.046c.24-.033.422-.05.549-.05.381 0 .525.158.436.473-.064.22-.305.381-.725.485l-.492.125c-.475.112-.785.195-.932.253s-.283.145-.414.266a1.866 1.866 0 0 0-.457.621c-.1.225-.268.751-.506 1.576l-1.018 3.524h9.266l.961-3.33c.127-.444.221-.887.281-1.323.057-.439.064-.75.027-.938a.535.535 0 0 0-.254-.356c-.129-.079-.396-.17-.801-.273l-.471-.125c-.35-.079-.49-.24-.42-.485.094-.323.322-.485.686-.485.109 0 .195.004.254.013l.43.038c1.002.104 1.916.158 2.738.158 1.371 0 2.502-.059 3.389-.17l.549-.058a1.65 1.65 0 0 1 .207-.012c.391 0 .543.149.457.448-.049.17-.127.291-.236.352-.105.067-.338.137-.691.22l-.539.108c-.615.133-1.027.348-1.24.651s-.494 1.049-.838 2.239l-2.371 8.227c-.479 1.659-.691 2.68-.639 3.057.051.377.438.63 1.164.759l.395.075c.387.07.545.228.475.473-.092.323-.369.484-.824.484-.121 0-.221-.004-.301-.013l-.729-.074a29.799 29.799 0 0 0-2.797-.133c-.785 0-1.658.054-2.621.158l-.719.074a3.78 3.78 0 0 1-.428.025c-.355 0-.488-.154-.4-.461.072-.253.354-.427.836-.522l.568-.124c.643-.137 1.07-.34 1.293-.605.205-.245.354-.485.445-.729.092-.245.344-1.058.76-2.443l1.1-3.815h-9.271zM162.246 89.182c.045-.361.236-.667.574-.917s.73-.376 1.18-.376c.418 0 .756.126 1.01.376.256.25.363.556.32.917-.045.368-.227.677-.541.927-.316.25-.684.376-1.102.376-.449 0-.812-.126-1.09-.376s-.394-.56-.351-.927zm-.928 9.714c-.088.17-.152.317-.201.444s-.076.223-.084.291c-.014.107.002.194.051.256a.227.227 0 0 0 .189.096c.137 0 .32-.084.557-.254.234-.169.559-.456.977-.857l.736.54c-.779.778-1.473 1.34-2.086 1.688-.609.347-1.207.519-1.801.519-.523 0-.924-.142-1.205-.426-.281-.28-.393-.654-.338-1.111.031-.247.096-.519.203-.815.102-.293.287-.703.555-1.229l1.352-2.605c.088-.176.154-.325.203-.445.047-.121.074-.219.082-.296.014-.111-.006-.188-.055-.241-.055-.053-.137-.078-.254-.078-.145 0-.326.078-.545.235-.215.158-.531.451-.943.877l-.719-.525c.66-.741 1.312-1.291 1.953-1.652s1.291-.543 1.959-.543c.549 0 .957.123 1.223.367.268.244.375.587.32 1.035a3.595 3.595 0 0 1-.227.849 9.921 9.921 0 0 1-.51 1.115l-1.392 2.765zm2.991 2.498l2.844-6.197c.047-.107.088-.203.115-.284a.968.968 0 0 0 .051-.204.312.312 0 0 0-.039-.22.175.175 0 0 0-.15-.08c-.111 0-.26.065-.453.191-.193.127-.516.383-.967.769l-.701-.482c.854-.778 1.568-1.331 2.148-1.664.578-.331 1.102-.497 1.572-.497.457 0 .791.117 1.008.349.213.232.295.571.24 1.016a3.539 3.539 0 0 1-.111.525 25.53 25.53 0 0 1-.289.923c.988-.935 1.881-1.636 2.678-2.105.803-.472 1.498-.707 2.09-.707.539 0 .939.142 1.213.426s.383.676.32 1.186a3.113 3.113 0 0 1-.16.664 6.362 6.362 0 0 1-.336.757l-1.564 2.982c-.02.037-.047.093-.086.164-.094.194-.146.333-.158.416a.279.279 0 0 0 .033.186c.029.046.074.068.133.068.123 0 .293-.081.508-.241.211-.158.52-.436.912-.828l.748.464c-.826.917-1.543 1.577-2.148 1.981-.607.405-1.18.605-1.725.605-.541 0-.941-.133-1.195-.398-.252-.265-.35-.651-.289-1.157a3.24 3.24 0 0 1 .193-.71 8.86 8.86 0 0 1 .43-.954l1.537-2.952c.117-.241.193-.407.234-.497a.915.915 0 0 0 .068-.197.314.314 0 0 0-.051-.229.203.203 0 0 0-.172-.09c-.439 0-1.1.402-1.977 1.207a10.58 10.58 0 0 0-2.186 2.865l-1.537 2.949h-2.781zm20.88-2.316c-.834.852-1.668 1.479-2.504 1.886a5.895 5.895 0 0 1-2.627.611c-1.107 0-1.93-.253-2.463-.756-.533-.504-.74-1.232-.627-2.184.082-.683.332-1.367.748-2.059a8.138 8.138 0 0 1 1.645-1.921 8.624 8.624 0 0 1 2.303-1.438c.82-.343 1.615-.516 2.383-.516.73 0 1.324.157 1.779.475.453.315.652.704.598 1.161a.95.95 0 0 1-.389.67c-.229.169-.512.253-.854.253-.275 0-.504-.059-.688-.176a1.13 1.13 0 0 1-.432-.53 6.869 6.869 0 0 1-.107-.287c-.143-.386-.375-.581-.701-.581-.637 0-1.326.463-2.076 1.39-.748.924-1.191 1.951-1.326 3.078-.08.658.008 1.167.258 1.528.248.361.643.544 1.186.544.428 0 .908-.14 1.445-.417.537-.278 1.121-.686 1.748-1.229l.701.498zm1.192 1.022c.051-.42.262-.774.633-1.056a2.104 2.104 0 0 1 1.314-.427c.492 0 .895.143 1.197.43.307.287.436.639.385 1.053-.049.404-.26.75-.635 1.031a2.088 2.088 0 0 1-1.301.426c-.496 0-.902-.139-1.207-.42a1.151 1.151 0 0 1-.386-1.037z" fill="#505e86"/><path d="M131.047 77.889c-4.553.192-9.104.419-13.658.674l-9.926.66-10.365.833-10.614 1.012-10.679 1.194-5.304.668-5.25.715-5.172.763-2.663.426H50c27.702-5.019 62.406-7.626 85.14-8.324 18.145.285 42.164 2.425 41.838 11.675-.092 1.175-.691 2.345-1.734 3.503l-1.627-.128.158-.133 1.066-1.204.637-1.117.256-1.043-.027-.562-.131-.603-.234-.58-.342-.57-.453-.564-.572-.556-.688-.544-.799-.528-.91-.506-1.01-.484-1.105-.459-1.193-.434-2.631-.79-2.906-.687a124.014 124.014 0 0 0-4.777-.844c-1.711-.24-3.418-.452-5.133-.641a240.778 240.778 0 0 0-5.334-.459 267.384 267.384 0 0 0-10.658-.474l-1.68-.032-4.104.143zm25.433 23.351c-27.363 8.987-76.177 15.539-109.081 15.008-18.815-.915-41.447-1.678-41.337-12.056.011-.273.044-.544.093-.813l1.247.383-.095.509.042.704.147.713.246.667.343.634.445.609.551.585.658.563.763.539.867.511.964.483 1.058.453 1.146.423 1.228.394 2.676.698 2.936.589c1.598.265 3.193.496 4.797.703 1.715.195 3.427.367 5.142.522 5.369.432 10.743.687 16.119.949l4.517.028 4.707-.055 4.862-.137 4.996-.214 5.11-.291 5.203-.365 5.273-.437 5.324-.504 5.355-.571 5.363-.634 5.352-.695 5.318-.753 5.266-.81 5.191-.861 5.096-.913 4.979-.96 4.842-1.005 4.684-1.047 4.506-1.087 4.305-1.125 4.084-1.158 3.84-1.189 1.252-.426-.38 1.439z" fill="#cc2229"/></g></svg>