<svg xmlns="http://www.w3.org/2000/svg" width="2500" height="2500" viewBox="0 0 192.756 192.756"><g fill-rule="evenodd" clip-rule="evenodd"><path fill="#fff" d="M0 0h192.756v192.756H0V0z"/><path d="M86.654 167.533l-18.279-25.191-4.57 23.883s-9.878-19.75-21.97-42.111l-.226-.418C26.407 95.643 8.504 63.888 8.504 63.888l20.375 14.987s8.325-8.103 19.259-14.722c13.174-7.975 29.377-14.722 29.377-14.722l-16.974-3.926s3.232-1.947 7.507-3.271c4.682-1.45 10.445-2.29 10.445-2.29l-13.057-3.271s8.4-2.927 17.953-4.58c12.683-2.195 27.418-3.271 27.418-3.271l-4.896-3.599s28.719.129 50.361 12.99c8.949 5.319 16.314 12.952 21.451 19.725 6.643 8.76 6.527 14.722 6.527 14.722l-7.182 5.234.654 12.432-10.447 7.852-.324 4.58-6.855 5.234 3.59 2.289-5.223 6.543 3.592 1.963-13.711 23.229-20.562-7.852-41.128 33.369z" fill="#36388c" stroke="#fff" stroke-width="2.454" stroke-miterlimit="2.613"/><path d="M125.498 40.926s11.516 3.224 21.869 10.142c7.924 5.294 15.342 14.722 15.342 14.722l.979-4.907 7.182 13.74-1.633 1.636-5.549-.981-1.305-6.543-2.611 6.216-23.828-13.74-7.834 5.889 8.812.327 4.896 7.197 13.383 1.963 4.244 3.926-3.266 2.617 3.592 2.944-.156 1.246-.17 1.371-10.119-4.58 3.916-4.253-5.875-1.309-4.244 6.543 16.975 10.796-.326 3.271-24.154-16.357-4.244-10.142-33.296 13.413 7.508 4.58-1.633 17.339 38.844-.654 9.793 5.234-3.264 2.943-10.119-5.234-14.689 1.637 26.113 8.178-4.896 11.777-3.59-1.963 4.244-9.486-9.467 7.197-48.636-21.92s1.943-8.129 5.875-17.011c6.385-14.422 15.995-32.388 15.995-32.388l-7.182.981 3.59-9.487L120.275 59.9l5.223-18.974z" fill="#ba3a2e"/><path fill="#ba3a2e" d="M163.852 81.166l5.384 2.453.164 3.272-5.712 3.271 1.306-3.762-3.265-2.781 2.123-2.453zM94.325 55.975s-14.573 4.492-28.234 12.432c-13.918 8.089-26.93 19.629-26.93 19.629l8.813 8.179.652-9.324s14.361 11.433 26.929 24.699c11.981 12.646 22.196 27.154 22.196 27.154l17.627-11.615-38.681-16.848s4.129-11.768 10.119-23.063c6.401-12.07 14.689-23.718 14.689-23.718l-8.813-.164 1.633-7.361z"/><path d="M33.775 91.961l13.057 13.085 8.16 8.18.979-12.105s9.969 8.973 17.953 18.648c9.784 11.855 17.953 24.863 17.953 24.863L77.189 132.2l4.896 12.104s-5.668-8.092-11.099-14.395c-3.352-3.891-7.507-7.197-7.507-7.197l-2.938 19.303-26.766-50.054zM62.5 84.764s7.617-6.683 14.688-10.469c7.287-3.901 14.036-4.907 14.036-4.907s-7.479 4.309-13.383 9.814c-5.848 5.454-10.119 12.104-10.119 12.104L62.5 84.764zM116.031 64.481l1.633 6.216-13.383 7.851 18.28-6.87-1.307-5.561-5.223-1.636z" fill="#e7bc39"/><path fill="#fff" d="M142.471 51.068l11.424 13.086-3.59-.327 7.181 8.506-15.341-12.759 5.222.654-4.896-9.16zM116.684 83.456l.98 6.87 8.486-11.123-9.466 4.253zM130.883 85.746l-1.713-6.871-2.203 12.023 6.853-2.944-2.937-2.208zM135.045 88.444l.978 8.589 5.877-4.417-6.855-4.172zM143.123 93.352l.734 6.871 6.366-2.7-7.1-4.171zM150.713 98.26l-.49 7.115 5.386-4.172-4.896-2.943zM114.727 101.693l7.587-7.606 3.428 7.852-11.015-.246zM127.701 101.693l4.049-8.192 2.316 8.685-6.365-.493zM135.289 102.43l5.682-5.323.929 5.323h-6.611zM143.857 102.676l3.918-1.717-.49 3.68-3.428-1.963zM70.17 36.428l24.236 3.68-31.58 4.662 14.689-4.662-7.345-3.68z"/></g></svg>