<svg xmlns="http://www.w3.org/2000/svg" width="2500" height="2500" viewBox="0 0 192.756 192.756"><g fill-rule="evenodd" clip-rule="evenodd"><path fill="#fff" d="M0 0h192.756v192.756H0V0z"/><path d="M35.949 115.144a57.301 57.301 0 0 1-5.269 2.342c-6.356 2.468-12.713 3.836-15.614 4.384l-2.515.475 1.07-7.202 22.328.001zm39.545 0c-1.988.252-3.829.493-5.489.7l-10.862 1.446a60.345 60.345 0 0 1 3.985-2.145l12.366-.001zm82.154 0c3.781.861 6.154 1.345 6.934 1.345 2.676 0 3.91.001 4.506-.197.002-.095-.035-.255-.307-.507-.234-.213-.59-.428-1.068-.645l9.482.004v.036c0 5.04-5.373 7.55-12.518 7.366-2.289-.059-5.811-.74-9.967-1.657-4.195-.925-9.236-2.137-14.709-3.345-3.82-.841-7.83-1.674-11.891-2.403l29.538.003z"/><path d="M45.684 107.558c-2.275 3.103-5.843 5.602-9.734 7.586H13.622l1.125-7.588 30.937.002zm23.225 0c-2.23 1.57-5.238 3.074-8.644 3.074-1.62 0-5.636-.497-8.616-3.076l17.26.002zm51.062 0c7.326.973 14.996 2.481 21.869 3.975 5.758 1.251 11 2.503 15.076 3.441l.732.167-29.537.003c-7.576-1.361-15.338-2.355-22.396-2.355-11.145 0-21.967 1.295-30.221 2.352l-12.366.004c8.506-4.178 17.904-6.435 26.52-7.584l30.323-.003zm53.722 0a9.816 9.816 0 0 1-.404 1.078 8.899 8.899 0 0 1-.408.806 7.834 7.834 0 0 1 1.699.865c1.248.851 2.604 2.388 2.615 4.838l-9.482-.001c-.035-.021-.068-.035-.105-.051-1.096-.479-2.559-.879-4.021-1.331-1.482-.458-3.043-.989-4.236-1.728-.602-.371-1.141-.812-1.533-1.36a3.254 3.254 0 0 1-.627-1.918c0-.253.043-.712.311-1.196l16.191-.002z"/><path d="M47.59 96.179c.233.663.409 1.388.516 2.182.04-.756.144-1.483.305-2.182h8.756c-.02.208-.03.416-.03.618 0 1.022.328 1.763.647 2.246.047.073.106.149.169.222l2.361-3.086h7.524l-3.796 4.994c2.422-.141 5.648-1.687 7.07-3.832.243-.366.493-.757.753-1.166l9.915.004c.152.944.613 1.107.987 1.194.399.093.813.101 1.137.081l.217-.021.681-1.255 29.97.001c-2.189 3.324-4.123 6.371-5.33 8.107l-1.551 2.233c3.77.099 7.869.479 12.082 1.039l-30.322-.001a125.327 125.327 0 0 1 16.359-1.063c.438 0 .877.005 1.322.014l-3.145-7.562a21.293 21.293 0 0 1-2.254 2.57c-1.914 1.848-4.865 3.932-8.547 3.932a10.095 10.095 0 0 1-6.144-2.089l-.298.187c-.438.343-1.076.802-1.869 1.26-1.578.91-3.81 1.845-6.356 1.845-2.026 0-3.571-.933-4.547-1.761a8.86 8.86 0 0 1-1.067-1.077 25.416 25.416 0 0 1-4.194 3.746h-17.26c-1.693-1.467-3.052-3.603-3.448-6.698-.146 2.492-1.068 4.717-2.517 6.694l-30.937.004L16.44 96.18h31.15v-.001zm97.262 0a54.951 54.951 0 0 1-4.707 4.342c-3.418 2.787-8.238 5.94-12.916 5.94-5.693 0-8.641-2.637-10.117-5.491-.898-1.738-1.242-3.532-1.373-4.794l29.113.003zm8.597 0c-.189 1 .086 1.505 1.443 1.505 1.021 0 2.172-.579 3.34-1.503l14.07-.002a8.42 8.42 0 0 0 .256 1.578c.172.664.402 1.268.633 1.874.477 1.262.99 2.625.99 4.577 0 1.329-.211 2.448-.488 3.348l-16.193.002c.135-.244.328-.498.604-.734a3.391 3.391 0 0 1 1.305-.67c.482-.136 1.031-.198 1.646-.198.928 0 1.326-.148 1.535-.333.17-.151.602-.687.602-2.511 0-1.089-.334-1.895-.656-2.526l-.078-.139a26.938 26.938 0 0 1-3.108 3.109c-2.1 1.779-5.238 3.829-8.754 3.829-1.645 0-2.92-.247-3.908-.686-1.016-.452-1.664-1.077-2.072-1.703a4.696 4.696 0 0 1-.703-1.931c-.08-.559-.064-1.04-.064-1.332 0-1.759 1.121-3.551 1.879-4.617.127-.178.254-.35.379-.513l-.576-.425h7.918v.001zm-126.197 4.005a44.3 44.3 0 0 0-.947.314l-.992 6.706c1.5-.432 3.361-1.019 4.812-1.643 1.437-.618 2.836-1.355 3.867-2.184 1.051-.845 1.585-1.676 1.585-2.467 0-.915-.429-1.377-1.196-1.624-.838-.271-2.028-.247-3.313-.055-1.278.195-2.706.599-3.816.953z"/><path d="M16.438 96.179l.913-6.152-4.676 3.124 3.674-17.582.781-.396a53.653 53.653 0 0 1 5.41-2.348c3.512-1.303 8.185-2.623 12.731-2.623 8.961 0 14.104 2.852 14.104 9.338 0 3.912-3.261 7.004-6.265 9.047a31.511 31.511 0 0 1-2.891 1.738c.664.087 1.285.21 1.817.383 2.136.697 4.462 2.374 5.553 5.474l-31.151-.003zm31.973 0c1.653-7.203 9.304-11.425 15.146-11.425 3.4 0 5.73.979 7.224 1.985a9.088 9.088 0 0 1 1.392 1.15l1.108 1.128-5.443 7.161-7.524.001 3.361-4.395a15.006 15.006 0 0 0-1.804-.126c-3.284 0-4.51 2.408-4.704 4.518l-8.756.003zm23.453 0c.631-.999 1.313-2.103 2.072-3.238.268-.4.745-1.214 1.453-2.211a23.689 23.689 0 0 1 3.025-3.506c2.578-2.429 6.353-4.72 11.485-4.72.932 0 1.765.155 2.464.523.354.187.665.424.923.707.19.209.342.433.46.66l6.999-.523 9.518-5.905.59 9.614a3279.29 3279.29 0 0 1 4.848-7.608l.412-.615.723-.154c.057-.013 11.955-3.434 11.955-3.434l-4.104 5.958-.584.845c2.043-1.078 4.518-1.768 7.49-1.768 4.945 0 7.637 3.628 8.375 5.475l.449 1.12-8.354 8.372c.389.067.797.107 1.215.107 1.316 0 3.404-.76 5.246-2.677 1.732-1.801 2.705-4.203 3.246-6.196.021-.075.033-.165.047-.26.02-.156.037-.322.051-.486.041-.455.078-.895.137-1.182l.25-1.279 7.918-1.085v5.107l4.902 3.953s-1.381 3.379-1.566 4.137a4.988 4.988 0 0 0-.059.271h-7.92l-.396-.294-.281.294H115.74a15.312 15.312 0 0 1-.08-1.34l-.889 1.342-29.97-.002 2.661-4.905c-2.562.014-5.731 2.137-5.731 4.191 0 .278.018.515.049.716l-9.916-.004zm86.37 0c.797-.629 1.604-1.422 2.381-2.301a43.585 43.585 0 0 0 3.066-3.926l.467-.672 11.223-1.362-1.715 3.122c-.707 1.284-1.373 2.935-1.373 4.548 0 .203.006.399.02.588l-14.069.003zM100.67 85.138l-6.076 10.798c.348.097.815.178 1.35.137 1.108-.083 2.655-.694 4.075-3.134.969-1.663 1.113-3.739.99-5.463a16.006 16.006 0 0 0-.303-2.167l-.036-.171zm28.777 4.311c-2.924.526-4.068 2.349-4.107 4.082l4.107-4.082zM28.248 87.645c1.193-.28 2.603-.653 3.68-1.076 1.146-.45 2.255-1.007 3.072-1.665.827-.666 1.264-1.359 1.283-2.081.014-.523-.205-.802-.813-.951-.664-.162-1.627-.099-2.686.095-1.322.243-2.88.757-3.865 1.107l-.671 4.571z"/><path d="M15.733 113.317l-1.003 6.759c2.841-.537 9.067-1.876 15.292-4.293a54.334 54.334 0 0 0 5.49-2.466H15.733zm56.383 0c-.872.249-1.656.487-2.333.714 1.687-.209 3.56-.454 5.586-.715l-3.253.001zm56.167 0c15.902 2.841 30.807 7.259 36.441 7.404 7.121.182 10.65-2.307 10.65-5.542 0-.737-.17-1.353-.439-1.863l-6.848.001c.084.032.168.067.248.102.604.265 1.207.59 1.676 1.02.486.447.914 1.078.895 1.897-.035 1.502-1.07 1.979-6.324 1.979-2.186 0-11.621-2.497-23.107-4.993l-13.192-.005z" fill="#d76f40"/><path d="M16.859 105.731l-1.126 7.586h19.778c3.953-2.065 7.301-4.578 9.202-7.585l-10.913-.001c-.935.575-1.962 1.078-2.958 1.508-3.012 1.296-7.737 2.446-7.737 2.446l.585-3.954h-6.831zm35.534 0c2.501 2.547 6.219 3.075 7.872 3.075 3.109 0 5.934-1.493 8.056-3.075H52.393zm112.234 0c-.664 1.756-2.088 2.049-3.572 2.049-1.99 0-2.043.823-2.043.976 0 .575.33 1.13 1.295 1.726.971.6 2.32 1.074 3.816 1.536 1.424.439 2.848.84 3.965 1.298l6.848.002c-.967-1.833-3.195-2.325-3.295-2.345l-1.938-.387s1.338-1.639 1.439-1.795c.133-.201.307-.501.482-.897.238-.537.484-1.26.621-2.162h-7.618v-.001zm-89.258 7.586c8.296-1.063 19.16-2.354 30.346-2.354 7.15 0 14.973.997 22.568 2.354h13.191c-11.502-2.496-25.061-4.998-35.467-4.998-11.02 0-26.06 2.795-33.892 5.001l3.254-.003z" fill="#d76f40"/><path d="M23.691 105.731l.972-6.581s3.39-1.31 6.134-1.723c1.354-.203 2.888-.282 4.141.121 1.397.45 2.459 1.532 2.459 3.362 0 1.643-1.088 2.943-2.269 3.891-.408.328-.857.639-1.329.93h10.913c1.074-1.696 1.686-3.551 1.686-5.57 0-4.848-2.674-6.983-4.926-7.717-2.715-.885-9.255-.277-9.255-.277l5.905-2.825a31.427 31.427 0 0 0 3.964-2.267c2.977-2.024 5.466-4.637 5.466-7.536 0-4.826-3.521-7.513-12.283-7.513-4.234 0-8.671 1.24-12.099 2.51a51.681 51.681 0 0 0-5.221 2.265l-2.582 12.356 4.387-2.929-2.896 19.504h6.833v-.001zm44.63 0c2.368-1.765 3.858-3.641 3.882-3.673l1.049-1.337.893 1.446c.001.003 1.681 2.655 4.573 2.655 2.112 0 4.026-.78 5.447-1.601a14.37 14.37 0 0 0 1.657-1.116c.366-.286 1.394-1.254 1.394-1.254s.935.904 1.143 1.064a8.28 8.28 0 0 0 5.027 1.706c5.975 0 10.069-6.815 10.129-6.924l.977-1.764 3.457 8.309c1.764-2.544 5.092-7.897 8.5-12.813 2.451-3.54 4.904-7.082 6.74-9.743l1.211-1.757s-7.129 2.045-7.186 2.058c-.186.273-7.836 12.302-7.836 12.302l-.746-12.167-6.143 3.812c.125.598.268 1.44.338 2.411.135 1.865.008 4.383-1.232 6.514-1.684 2.888-3.73 3.898-5.512 4.033a5.76 5.76 0 0 1-2.091-.233c-.562-.17-1.914-.965-1.914-.965l6.078-10.802-5.93.444s.647-2.007-2.325-2.007c-9.084 0-13.399 8.056-14.451 9.627-1.069 1.6-1.987 3.138-2.821 4.395-1.875 2.828-5.964 4.657-8.936 4.657-.679 0-2.994-.449-2.994-.449l10.177-13.391a7.231 7.231 0 0 0-1.11-.917c-1.2-.809-3.177-1.673-6.207-1.673-6.135 0-14.072 5.158-13.632 13.148.151 2.723 1.138 4.649 2.468 6.004h15.926v.001zm103.925 0c.07-.461.115-.969.115-1.523 0-1.596-.404-2.689-.873-3.931-.252-.667-.502-1.331-.691-2.063a10.362 10.362 0 0 1-.336-2.626c0-2.067.838-4.042 1.6-5.428l-6.883.836a46.05 46.05 0 0 1-3.199 4.094c-1.873 2.116-4.459 4.419-7.086 4.419-3.359 0-3.527-2.5-3.152-4.035.199-.822 1.135-3.133 1.135-3.133l-4.523-3.648v-3.89l-4.562.626c-.094.481-.107 1.481-.262 2.054-.578 2.13-1.658 4.869-3.691 6.985-2.117 2.204-4.656 3.236-6.559 3.236-2.479 0-4.578-1.143-4.578-1.143l9.578-9.603c-.566-1.416-2.73-4.329-6.686-4.329-10.666 0-14.113 10.099-14.113 11.962 0 .592.016 3.153 1.25 5.537 1.174 2.273 3.512 4.506 8.5 4.506 7.965 0 17.521-11.016 17.67-11.193l3.852 2.85s-3.082 3.216-3.082 5.442c0 .235-.018.623.047 1.073.057.403.18.817.424 1.189.438.671 1.51 1.564 4.457 1.564 5.697 0 10.865-6.768 10.949-6.882l.791-1.055s1.105 1.029 1.289 1.271c.152.2.342.485.533.862.385.755.854 1.859.854 3.354 0 1.114-.141 1.967-.385 2.619l7.617.003zm-38.225-18.256l-9.578 9.519s-.926-1.633-.926-3.369c0-3.335 2.66-6.149 7.73-6.149h2.774v-.001zm-48.72 11.599s-.833.176-1.292.203a5.951 5.951 0 0 1-1.653-.125c-1.36-.315-2.448-1.338-2.448-3.688 0-3.651 4.706-6.017 7.576-6.017.836 0 2.983.102 2.983.102l-5.166 9.525zm-27.049 2.8s-1.1-.781-1.319-1a5.225 5.225 0 0 1-.669-.823c-.481-.729-.948-1.815-.948-3.254 0-2.591 1.398-6.965 6.555-6.965 2.238 0 5.068.685 5.068.685l-8.687 11.357zM27.275 81.739s2.916-1.15 5.18-1.568c1.109-.203 2.391-.33 3.445-.072 1.192.29 2.246 1.154 2.204 2.773-.041 1.492-.948 2.637-1.962 3.453-1.025.827-2.328 1.464-3.55 1.943-2.457.963-6.526 1.702-6.526 1.702l1.209-8.231z" fill="#d76f40"/><path d="M181.873 119.186h.918v-.944h-2.949v.944h.92v3.342h1.111v-3.342zM182.939 122.528h1.106l.357-2.467h.012l.982 2.467h.442l1.025-2.467h.012l.313 2.467h1.113l-.649-4.286h-1.105l-.918 2.29-.867-2.29h-1.098l-.725 4.286z"/></g></svg>