<svg xmlns="http://www.w3.org/2000/svg" width="2500" height="2500" viewBox="0 0 192.756 192.756"><path fill-rule="evenodd" clip-rule="evenodd" fill="#fff" d="M0 0h192.756v192.756H0V0z"/><path d="M9.155 64.222h17.664l15.692 55.681h-10.89L18.158 73.769h-6.06l-2.943-9.547zm23.553 0h100.927l2.717 9.833-89.724-.286 2.401 12.462h24.33l-8.781 8.346-13.148.286 5.374 25.039h-9.547l-14.549-55.68z" fill-rule="evenodd" clip-rule="evenodd" fill="#cc2229"/><path d="M9.155 63.567h124.48c.24 0 .566.249.629.48l2.717 9.833c.109.4-.215.83-.629.829l-88.933-.284 2.148 11.151h125.399c.246 0 .574.255.635.493l8.633 33.672c.1.396-.227.815-.635.815H31.621c-.235 0-.561-.247-.626-.473L17.67 74.423h-5.571c-.23 0-.556-.243-.624-.463l-2.944-9.547a.669.669 0 0 1 .624-.846zm65.735 55.681L64.16 95.241l-11.926.259 5.096 23.748h17.56zm-18.895 0l-5.204-24.25c-.082-.38.238-.782.626-.79l13.148-.286c.199-.004.527.206.608.389l11.146 24.937h106.437l-8.295-32.363H49.028c-.265 0-.591-.271-.642-.532l-2.401-12.462c-.074-.383.252-.778.642-.777l88.865.283-2.352-8.521H33.552l14.207 54.372h8.236zM27.682 64.876l15.324 54.372h3.406L32.204 64.876h-4.522zm13.966 54.372L26.325 64.876H10.039l2.541 8.238h5.579c.235 0 .561.247.626.473l13.325 45.661h9.538z" fill="#fff22d"/><path d="M34.765 111.642a6.77 6.77 0 0 1 6.774-6.774c3.745 0 6.774 3.03 6.774 6.774s-3.03 6.774-6.774 6.774a6.77 6.77 0 0 1-6.774-6.774z" fill-rule="evenodd" clip-rule="evenodd" fill="#cc2229"/><path d="M34.111 111.642c0-2.054.831-3.91 2.175-5.254s3.2-2.174 5.252-2.175h.003c2.052 0 3.909.831 5.253 2.175s2.174 3.2 2.175 5.252v.003c0 2.053-.831 3.909-2.175 5.253s-3.201 2.174-5.252 2.175h-.003a7.401 7.401 0 0 1-5.253-2.175 7.406 7.406 0 0 1-2.174-5.252v-.002h-.001zm1.308-.001v.003a6.1 6.1 0 0 0 1.791 4.326 6.105 6.105 0 0 0 4.328 1.792h.002a6.106 6.106 0 0 0 4.327-1.791 6.1 6.1 0 0 0 1.792-4.328v-.003a6.1 6.1 0 0 0-1.791-4.326 6.101 6.101 0 0 0-4.328-1.792h-.002c-1.69.001-3.22.685-4.327 1.791s-1.792 2.636-1.792 4.328z" fill="#fff22d"/><path d="M113.855 107.726c.6 2.401 1.572 4.202 2.887 5.374 1.316 1.172 2.945 1.743 4.832 1.715 2.258-.028 3.658-.715 4.258-2.029.572-1.344.602-3.03.057-5.06l-4.172-17.207h-4.488l4.316 17.75c.143.543.172 1.058.057 1.544-.113.457-.457.715-1.029.743-.629 0-1.086-.229-1.4-.629s-.543-.887-.656-1.486l-4.375-17.922h-4.457l4.17 17.207zM136.98 114.271h4.602l-5.773-23.752h-4.26l3.658 13.262h-.086l-6.658-13.262h-4.604l5.774 23.752h4.23l-3.629-13.234.057-.058 6.689 13.292zM148.441 114.271l-5.744-23.752h-4.488l5.773 23.752h4.459zM156.703 107.183c.143.457.229.943.285 1.486.086.515.029.943-.086 1.314-.143.372-.457.572-.914.572-.486 0-.887-.2-1.201-.572-.344-.371-.6-.8-.801-1.314a14.618 14.618 0 0 1-.457-1.486l-2.371-9.747c-.201-.771-.287-1.486-.258-2.144.057-.658.4-1.029 1.086-1.058.715.028 1.258.4 1.6 1.058.344.657.602 1.372.773 2.144l2.344 9.747zm2.029-10.148c-.572-2.286-1.516-4.03-2.83-5.23-1.314-1.229-2.943-1.83-4.916-1.858-1.973.028-3.346.629-4.088 1.858-.744 1.201-.857 2.944-.314 5.23l2.344 9.661c.629 2.688 1.572 4.717 2.83 6.061 1.285 1.371 3.029 2.058 5.26 2.058 2.229 0 3.629-.687 4.23-2.058.57-1.344.514-3.373-.172-6.061l-2.344-9.661zM172.367 114.271h4.602l-5.776-23.752h-4.257l3.658 13.262h-.086l-6.66-13.262h-4.602l5.746 23.752h4.258l-3.629-13.234.057-.058 6.689 13.292z" fill-rule="evenodd" clip-rule="evenodd" fill="#cc2229"/><path d="M57.435 103.267a25.81 25.81 0 0 1 7.581-18.313 25.81 25.81 0 0 1 18.311-7.58h.002a25.856 25.856 0 0 1 18.325 7.581c4.691 4.686 7.596 11.159 7.596 18.311v.003c0 7.154-2.902 13.635-7.594 18.327-4.692 4.69-11.172 7.594-18.326 7.594h-.003c-7.153 0-13.626-2.904-18.312-7.598a25.852 25.852 0 0 1-7.58-18.322v-.003z" fill="#fff22d"/><path d="M85.817 78.806l.026 8.454a15.155 15.155 0 0 0-2.287-.171c-8.689 0-15.721 7.031-15.721 15.721 0 8.66 7.031 15.692 15.721 15.692 4.459 0 8.489-1.858 11.348-4.831.372-.4.715-.801 1.058-1.229l.854 11.412a24.479 24.479 0 0 1-13.485 4.025h-.003a24.49 24.49 0 0 1-17.387-7.209 24.553 24.553 0 0 1-7.197-17.402v-.003c0-6.793 2.75-12.939 7.197-17.387s10.593-7.197 17.386-7.197h.002c.84.001 1.67.043 2.488.125z" fill-rule="evenodd" clip-rule="evenodd" fill="#cc2229"/><path d="M76.697 93.634l.114-1.286s.086-.6-.057-.6h-1.286s-.229.543-.257.743c-.057.2-.257.515-.143.915.143.4.314.8.457.8.115 0 .629.114.629.114l.543-.686zM75.468 101.552s-.658-1.086-.829-1.086c-.143 0-.429-.029-.429-.029s-.286-.571-.229-.686c.028-.114.514-.143.657-.601.171-.429.314-.857.314-.857s.314-.2.372.028c.028.229.829 1.201.772 1.373-.029.143-.143.971-.143.971l-.485.887zM84.215 93.977s-.686-.286-.915-.257c-.258.057-.687 0-.858.057-.142.029-.342-.658-.342-.658s-.629-.4-.743-.4c-.143 0-.458-.057-.458-.057l-.057-.486-.086-.115-.086-.371s.286-.143.686.057c.372.2 2.172.2 2.172.2s.8.915.829 1.143c.058.229-.142.887-.142.887zM76.983 113.442l-1.229.114-.515-.515.8-.543s1.029.114 1.058.258c.029.172-.114.686-.114.686zM86.473 114.586c0 .114-1.401.485-1.401.485s-.286.229-.315.429c-.028.2.429.601.543.572.143-.058.8-.486.8-.486s.572-.914.429-.829c-.113.086-.056-.285-.056-.171z" fill-rule="evenodd" clip-rule="evenodd" fill="#cc2229"/><path d="M82.014 92.147c-.257-.543-.171-.972.2-1.286l.857-.257 1.944-.172.886-.743 1.829.314s.772 1.83.887 2.172c.114.343-.257 4.802-.257 4.802s-.572 1.486-.8 2.172c-.257.715-.029 2.544-.029 3.459s.629 2.486.629 2.486 1.058 1.029 1.058 1.486c0 .458-.114 1.001-.114 2.544 0 1.544.171 3.659.057 4.002s-.286.887-.286 1.229-.628.171-.972.515c-.343.343-1.744.8-1.744.8l-.572-1.314 1.144-1.258-.114-.915-1.486-.943s-.229-2.001-.458-2.572c-.229-.572-.572-1.4-.572-1.4l-.829 1.743s.343.972 0 1.087c-.343.113-1.201.914-1.201.914s-.572 1.973-.686 2.315-.114.8-.458.915c-.343.114-.457.114-1.143.114-.714 0-2.086-.258-2.086-.258s-.8-.028-1.029-.371c-.229-.372-.714-1.315-.714-1.315l.457-1s1.144.086 1.487.086c.343 0 1.114-.486 1-.943s-.343-1.858.229-2.315c.571-.458.229-.915 1.257-1.372 1.058-.486 1-1.086 1.344-1.086.343 0 .057-.915.057-.915l-.429-1.857s.486-.286.143-.286c-.343 0-.915-.229-1.829-.114-.943.114-2.144.485-2.601.485-.458 0-1.029-.257-1.486 0-.457.229-.114 1.372-1.287.114-1.143-1.286-1.858-.714-1.858-.714l-.686-.629s-.601-1.973.915-1.029c1.486.915 2 .857 2 .857l.801-.229s-.686-1.029-.343-1.144c.343-.114.686-.457 1.029-.457.343 0 1.543.687 1.543.687s-.114.229 1.143-.115c1.287-.343 1.287.172 1.287-.8s.343-1.2.343-1.2-1.629-.486-1.973-.486c-.343 0-.8-.801-.8-.801s-.857-.686-1.201-1.372c-.343-.686-1.029-1.287-1.029-1.287s.571-.857.686-1.2c.114-.343.686-.457.915 0 .229.486 1.314 1.2 1.429 1.572.115.343.229.686.83.686.571 0 1.029.229 1.372.229.343 0 .343.114.343.114s.543.6.886.6c.343 0 1.229-.714 1.343-1.058.114-.343.457-1.515.457-1.515l.171-.515-.686-.714c-.314.059-.743-.284-1.2-.542z" fill-rule="evenodd" clip-rule="evenodd"/><path d="M95.114 82.085a.654.654 0 0 1 .725 1.089h-.001l-.005.002c-.497.326-.998.686-1.497 1.077-.503.394-1.025.835-1.562 1.322-2.731 2.478-5.586 5.953-7.872 10.142a.653.653 0 0 1-1.145-.624c2.364-4.33 5.315-7.923 8.138-10.484a29.008 29.008 0 0 1 1.639-1.384 24.43 24.43 0 0 1 1.58-1.14zm11.298 30.382l.002.013a.65.65 0 0 1-.561.723.655.655 0 0 1-.734-.562v-.011a29.75 29.75 0 0 0-.631-3.294 31.74 31.74 0 0 0-.988-3.231c-1.881-5.161-4.99-9.614-8.402-11.354a23.307 23.307 0 0 0-3.784 5.308 12.967 12.967 0 0 1 4.836 6.791 14.032 14.032 0 0 1 .581 3.814.654.654 0 0 1-1.309.016l-.001-.051a12.056 12.056 0 0 0-.523-3.4 11.67 11.67 0 0 0-4.252-6.035.652.652 0 0 1-.936-.828c1.217-2.621 2.791-4.772 4.504-6.578a28.425 28.425 0 0 1 .949-.953c2.067-1.979 4.264-3.503 6.249-4.778a.653.653 0 0 1 .705 1.099c-1.93 1.24-4.064 2.718-6.049 4.619 3.567 2.015 6.739 6.621 8.659 11.887a33.42 33.42 0 0 1 1.029 3.365c.281 1.131.502 2.279.654 3.428 0-.011 0-.009.002.012z"/></svg>