<svg xmlns="http://www.w3.org/2000/svg" width="2500" height="2500" viewBox="0 0 192.756 192.756"><g fill-rule="evenodd" clip-rule="evenodd"><path fill="#fff" d="M0 0h192.756v192.756H0V0z"/><path d="M74.042 76.479c1.777 0 3.456-1.48 3.456-3.455 0-2.073-1.777-3.554-3.456-3.554a3.434 3.434 0 0 0-3.455 3.456c-.001 2.073 1.579 3.553 3.455 3.553zm-2.765-3.554c0-1.58 1.283-2.765 2.764-2.765s2.765 1.185 2.765 2.765c0 1.678-1.284 2.863-2.765 2.863s-2.764-1.184-2.764-2.863zm2.172.296h.592l.987 1.777h.592l-1.086-1.777c.592-.099.987-.395.987-1.086 0-.79-.494-1.185-1.382-1.185h-1.283l-.099 4.048h.691v-1.777h.001zm0-.493v-1.284h.592c.494 0 .889.198.889.691 0 .592-.395.592-.889.592h-.592v.001zM28.331 111.922c-3.258-3.752-.79-10.465-.197-16.191-.592.592-8.096 18.265-14.908 17.574-6.022-1.678-5.232-8.688-3.356-13.822h9.478c-2.765 8.393 1.284 4.938 4.146-.494 5.529-11.748 5.726-12.735 12.044-30.407H46.3c-3.159 10.07-6.22 19.844-7.602 30.21 0 .494.099.889.494.691 2.369-.494 14.71-28.927 15.796-30.901h10.367c-.099.987-11.354 33.173-9.577 36.134.889 1.68 2.172-1.48 3.356-2.863l1.679 1.877c-3.456 3.752-7.404 10.564-12.934 9.576-.79-.297-1.48-.789-2.172-1.283-5.627-5.035 5.035-23.695 3.653-25.176-.198-.099-1.185 2.073-1.284 2.37-3.258 6.713-10.564 24.287-16.487 24.287-.987-.002-2.764-.988-3.258-1.582zM107.904 112.613c-1.086-.295-1.678-.889-2.072-2.172-.1-.197-.1-.297-.1-.592 0-.594.1-1.186.197-1.877.1-.492.396-1.086.396-1.678.098 0 .098-.1.098-.197l-.197.197c-.297 0-.889.789-1.283 1.086-.592.494-1.186.988-1.58 1.283-.986.791-1.975 1.58-3.258 2.271 0 0-.297.295-.789.691-.594.295-1.086.592-1.58.691a3.245 3.245 0 0 1-1.876.197c-1.185-.297-2.074-1.186-2.567-2.271-.099-.789 0-1.777.395-2.764.395-1.68 1.086-2.863 1.58-4.346.197-.789.493-1.48.888-2.467.296-.988.691-2.074 1.086-3.061.1-.791.494-1.679.592-2.271.1-.099 0-.197.1-.296-.1-.197-.1-.197-.395-.197-.592.296-1.185.691-1.58.987-.691.395-1.284.79-1.975.987-.198.1-.099-.295-.099-.592 0-.592.099-1.086 0-1.975 0 0 .099 0 .099-.099 0-.198.198-.296.296-.296 2.566-1.58 5.133-3.554 7.7-5.035.199 0 .494-.197.988-.493.592-.296 1.875-.198 2.469 0 .592.197.986.691 1.086 1.185.197 1.185-1.086 3.258-1.482 4.64.1.099-.197.691-.197.691-.395 1.185-.592 1.974-1.086 3.357-.492 1.58-1.086 3.258-1.678 4.936-.197.594-.691 2.172-.789 2.766-.197.295 0 .395.197.494.098.197.592-.1.889-.199.592-.395 1.578-1.381 2.172-1.975.197-.098.492-.395.691-.592.789-1.086 1.578-1.975 2.566-3.355.098-.594.197-.691.691-1.68.098-.395.789-1.58 1.086-2.271.197-.296.395-1.086.395-1.086.297-.494.494-1.185.789-2.073.1-.592.1-.79.594-2.073.098-.592.197-.889.395-1.382 0-.099.197-.197.197-.395l.197-.099c2.072.099 4.146.099 6.221.296l.197.099v.197c-.1.198-.1.395-.197.691-.297.691-.594 1.678-.889 2.666-.594 2.468-2.963 9.676-4.049 13.23-.098.197 0 .395-.098.492-.1.395-.297.494-.199.791h.396l.197-.197c.295-.1.691-.396 1.086-.691.197-.1.295-.197.492-.494h.494c.1 0 .395 1.086.494 1.383 0 .395 0 .395.1.592 0 .297 0 .395-.1.494l-.197.098c-.791.494-1.58 1.086-2.271 1.58-.789.395-.789.494-1.678.988-.592.395-1.186.789-1.777.986-.494.197-.789.197-1.086.197-.788.102-.985.002-1.382.002zm17.674 11.256l-.1-.1c.1-.691.197-1.283.494-2.072 1.086-3.752 2.172-7.404 3.555-10.959.295-.691.295-.691.395-1.186h-.297c-.297.297-.986.791-1.48 1.283-1.48 1.186-3.652 2.271-6.023 1.086-.492-.197-.689-.295-1.283-.789-.492-.494-.889-1.086-1.283-1.777s-.691-2.172-.889-3.16c.1-1.775.197-3.949.791-6.121.395-1.48 1.48-3.948 2.566-5.726.986-1.58 2.072-2.666 3.752-3.653.295-.395 2.172-1.382 2.764-1.58.691-.099 1.283-.395 1.975-.494 1.086-.099 2.369-.296 3.652.494.889.889.791 1.481 1.283 1.58.199-.099.199-.197.199-.395.295-.494.395-1.284.689-1.58.396-.197 3.949-.099 5.826 0 .395 0 .691.296.492.691l-2.861 8.886-.396 1.381c-1.086 3.455-2.072 7.01-3.355 10.465l-2.074 7.109c-.395.986-1.777 6.121-2.27 6.91.196.002-4.544.102-6.122-.293zm1.578-24.781c.297-.789.791-1.58 1.186-2.271.395-.69.789-1.381 1.283-2.073.889-.592 1.678-1.185 2.666-.987 1.184.494.789 2.468.395 4.343-.592 2.074-1.283 4.74-2.863 6.812-1.086 1.383-1.777 1.68-2.467 1.877-1.58-.197-1.482-2.369-1.383-3.455 0 0 .098-.199.098-.494.197-1.086.691-2.567 1.085-3.752zm15.897 11.453c-.297 0-1.58.789-2.172 1.283-.199 0-.297.197-.494.197-.791-.197-.988-1.383-1.283-1.975 0-.297-.1-.494-.1-.988.494-.789 3.061-.295 2.172-2.369-.197-2.863.297-6.021 1.48-8.59.791-1.48 2.371-3.85 2.469-3.85.494-.79 1.283-1.382 1.975-2.073.297-.395.691-.592 1.186-.79 1.086-.889 3.652-2.37 5.232-2.765 2.072-.296 3.85-.691 5.727-.197 1.184.296 2.764 1.58 2.961 2.666.197.888 0 1.678-.297 2.962-.889 2.566-.789 2.469-1.48 3.555-.789 1.086-1.086 1.58-2.764 3.158-.594.494-.988.889-1.68 1.48-1.875 1.777-2.961 2.074-4.836 3.457-.1 0-1.186.592-1.383.592-1.283.691-.197 1.186.494 1.383 2.172.592 5.232-1.482 6.713-2.863.098-.1.986-.988 1.186-.988.492.691 1.283 1.68 1.48 2.369l-.197.396c-1.877 2.072-5.035 4.344-6.418 4.936-1.875.988-4.838 1.186-6.615.988-1.284-.396-2.37-1.285-3.356-1.974zm5.824-6.812c-.197 0-.197-.1-.197-.197.197-2.766 1.283-5.332 2.863-7.504.691-1.086 2.072-3.061 3.555-3.554.689-.296 1.283-.296 1.875-.099.592.197.395 1.875-.395 3.061-1.58 2.467-3.654 4.639-4.443 5.528-.987 1.085-2.272 2.171-3.258 2.765zm-70.491 8.589c-.889-.297-1.678-.889-2.567-1.482-.889-.691-1.382-1.48-1.975-2.467-.099-.199-.197-.594-.494-.988a12.72 12.72 0 0 1-.494-2.074c-.099-.986-.099-1.283-.197-1.973v-.594l-.198-.098c-.494 0-.79.197-1.284.395-.79.297-1.777.691-2.468.789-.197.1-.987.197-1.185.297l-.099-.197c0-.592.198-.691.296-.988l.592-1.678c.395-.592.296-.789.691-1.383.395-.197.494-.197 1.679-.395.691-.098 1.678-.197 2.468-.395.099-.1.198-.691.198-.789v-.1c0-.297.099-.494.099-.691.198-.592.494-1.283.494-1.777.296-.395.494-.987.691-1.382.197-.395.296-.79.592-1.185.494-.987.987-2.073 1.58-3.061.296-.494.592-.987 1.185-1.777.592-.691 1.185-1.58 1.481-1.975.296-.099.296-.198.395-.296.395-.395.691-.888 1.185-1.284.889-.987 1.678-1.974 2.863-3.061.395-.493.493-.493.691-.493.296-.494.691-.691 1.382-1.185a27.241 27.241 0 0 1 1.777-1.284c1.875-1.481 4.837-3.061 7.009-3.653.198-.099 1.679-.494 2.468-.494.494 0 2.666-.198 3.455-.099.297.099.691.099 1.186.296.197.198.197.395.494.494.098.395 0 .79 0 1.185-.1.494-.396 1.086-.494 1.58-.197.592-1.186 2.468-1.58 3.061a12.9 12.9 0 0 1-.592.987c-.889 1.185-1.48 2.172-2.369 3.159-.495.592-1.383 1.678-1.481 1.777-.889.987-1.975 1.975-2.666 2.764-.593.79-1.185 1.284-1.975 1.975-.987.79-1.382 1.086-2.271 1.876-.79.691-.987.691-1.481 1.185-.099 0-.691.691-.987.79-.888.592-1.678 1.184-2.764 1.778-.494.395-1.185.492-1.481.889-.395.295-.592.395-1.283.492 0 .1-.099.396-.198.494-.099.297-.099.297-.395.889-.395.986-.197.986-.395 1.58.099.889 0 1.48.197 2.369 0 .098.099.986.197.986v.1c.099.691.198 1.283.987 1.58h.494c1.283-.889 1.382-1.68 1.777-3.061.099-1.482.296-3.455-.099-4.838 0-.1-.099-.494-.099-.592v-.1c0-.1.395-.297.79-.494.296-.098.691-.395 1.086-.492 1.086-.494 2.666-1.482 3.554-1.877.099 0 .099-.099.395-.099l.099.099c.099.296.197.494.395.889.099.494.099.889.197 1.186.198 1.184.099 2.467.099 3.553-.099 1.283-.494 2.766-.79 3.949-.494 1.482-1.284 3.061-2.271 4.344-.691 1.088-1.284 1.68-2.073 2.174-.396.295-.79.492-.987.592-.494.395-.889.395-1.185.494-.592 0-1.284.197-1.875.197-.887-.195-1.578-.195-2.466-.393zm4.442-18.167v-.296c.198-.79.691-1.58 1.086-2.271 1.382-1.876 2.863-3.949 4.245-5.627 1.185-1.481 2.666-3.258 3.653-3.85.888-.593 1.875-1.284 2.863-1.777.198-.197.593-.197.79-.296.197-.198.296-.198.494-.296 0 0 .099.197.296.197v.099c0 .296 0 .296-.198.592-.197.79-.79 1.679-1.185 2.468-.494.494-1.086 1.481-1.382 1.678-.296.691-1.086 1.382-1.678 1.975-.296.395-.987 1.284-1.185 1.481-.79.494-1.678 1.382-2.468 1.975-1.086.889-2.172 1.678-3.357 2.567-.494.494-.987.889-1.678 1.185.001-.001-.197.196-.296.196zm81.746.494c.1-.197.395-.592.791-.987.889-1.481 2.172-2.666 3.652-3.851.1-.099.197-.197.494-.197 0 0 .098-.099.395-.099h.197c1.383-.197 5.43-.494 6.516-.395.1.395-.395.889-.691 1.185-1.283.888-2.369 2.073-3.455 3.258-2.566 2.666-5.232 9.378-3.949 12.439.297 1.086 1.383 1.975 2.666 1.68.592-.1.988-.197 1.58-.594.889-.592 2.666-3.355 2.764-3.85.988-1.777 2.764-6.516 2.469-8.392 0-.197-.297-.395-.297-.592 0-.099-.197-.099-.295-.197-1.186.099-2.863 2.172-3.26 3.16-.098.197-.098.295-.197.395h-.197c-.592-.395-1.184-1.086-1.578-1.679v-.493c1.381-1.876 2.861-3.851 4.836-5.332.494-.592 2.766-1.777 3.555-1.975.889-.099 1.975.198 2.666.889 1.678 1.875.889 5.627.395 7.898-.297 1.58-.592 2.271-1.086 3.455-.889 2.074-.986 2.271-1.383 3.061-1.975 3.455-5.725 7.701-9.674 8.787-1.877.395-3.457.592-5.232.297-1.68-.691-3.357-2.371-4.148-3.852a10.377 10.377 0 0 1-.592-2.369c-.295-.592-.098-3.652.1-4.049 0-.492.592-2.961.889-3.355.391-.989 1.477-3.456 2.069-4.246zM63.774 107.48c1.481 0 2.765 1.283 2.863 2.863 0 1.48-1.382 2.861-2.863 2.861s-2.863-1.381-2.863-2.861c0-1.579 1.382-2.863 2.863-2.863zM108.695 81.317l-.1.494h-.691v-.494c-.689 0-1.184-.197-1.381-.494-.297-.296-.395-.592-.395-1.086s.098-.79.395-1.086c.295-.296.691-.395 1.283-.493v-.395h.789l.1.395c.592.099 1.086.197 1.283.493.297.296.395.691.395 1.086 0 .494-.098.79-.395 1.086-.197.297-.691.494-1.283.494zm0-.692c.197 0 .395 0 .492-.099.199-.099.297-.099.297-.296.1-.099.1-.296.1-.494 0-.592-.297-.889-.889-.889v1.778zm-.888 0v-1.777c-.297 0-.494.099-.691.296-.1.099-.197.296-.197.691-.001.495.296.79.888.79zm3.455-2.862h.691v2.666l1.678-2.666h.791v4.048h-.791v-2.666l-1.58 2.666h-.789v-4.048zm4.146 4.048v-4.048h1.283c.494 0 .889.099.988.099.295.099.395.198.592.395.1.197.197.494.197.79 0 .197 0 .395-.098.592a.784.784 0 0 1-.396.396c-.098.099-.197.197-.395.197s-.494.099-.789.099h-.594v1.481h-.788v-.001zm.789-3.357v1.185h.494c.297 0 .494-.099.592-.099.1 0 .199-.099.297-.197 0-.099.1-.197.1-.296 0-.198-.1-.296-.197-.396 0-.099-.1-.099-.297-.197h-.989zm3.061 3.357v-4.048h1.186l.691 2.764.789-2.764h1.186v4.048h-.691l-.098-3.16-.691 3.16h-.791l-.789-3.16v3.16h-.792zm4.838 0v-4.048h2.963v.691h-2.172v.889h2.072v.691h-2.072v1.086h2.27v.691h-3.061zm3.949 0v-4.048l.791.099v1.481h1.578v-1.58l.791.099v3.949h-.791v-1.777h-1.578v1.777h-.791zm4.246 0l-.1-3.949.889-.099v1.58h1.58l-.098-1.481.887-.099v4.048h-.789v-1.777h-1.58v1.777h-.789zm4.147-4.048h.889v1.678h.986c.297 0 .594 0 .791.099s.395.198.492.395c.199.198.199.395.199.691 0 .296 0 .494-.199.691-.197.197-.295.296-.492.395-.197.099-.395.099-.791.099h-1.875v-4.048zm.789 3.357h1.383c.099 0 .197-.099.297-.198 0-.099.098-.197.098-.296 0-.197-.098-.296-.197-.395-.098-.099-.395-.099-.691-.197h-.789l-.101 1.086zm3.06-3.259l.791-.099v4.048h-.791v-3.949zm1.777 3.95v-4.048l2.963.099.098.592h-2.172v.889h1.975v.691h-1.975v1.086h2.172v.691h-3.061zm5.53 0v-3.949h1.184l.691 2.666.791-2.666h1.184v3.949h-.789v-3.16l-.791 3.16h-.789l-.789-3.16v3.16h-.692zm8.39 0h-.887l-.297-.889h-1.58l-.395.889h-.789l1.578-3.949h.791l1.579 3.949zm-1.48-1.58l-.494-1.481-.592 1.481h1.086zm2.172-2.37h2.766l-.1.592h-1.875v3.357h-.791v-3.949zm6.517 3.95h-.791l-.395-.889h-1.58l-.395.889h-.789l1.578-3.949h.791l1.581 3.949zm-1.482-1.58l-.492-1.481-.594 1.481h1.086zm2.666-1.284l-.789-.197c.197-.691.691-.987 1.48-.987.494 0 .889.099 1.086.296.197.197.395.493.395.691 0 .197-.098.395-.197.592-.098.099-.297.296-.494.395.297.099.494.197.594.395.098.099.197.395.197.592 0 .395-.1.592-.395.888-.297.198-.691.296-1.186.296-.395 0-.691-.099-.988-.198-.197-.197-.395-.395-.492-.79l.691-.296c.098.296.197.395.295.494.1.099.297.099.494.099s.395 0 .592-.099c.1-.198.197-.296.197-.395 0-.198-.098-.296-.295-.395-.1-.099-.297-.197-.594-.197h-.098v-.591c.297 0 .494 0 .592-.197.1-.099.197-.197.197-.395 0-.197 0-.296-.098-.395-.1-.099-.297-.099-.494-.099-.296 0-.59.098-.69.493zm3.16-1.086h.789v2.666l1.58-2.666h.789v3.949h-.691v-2.567l-1.678 2.567h-.789v-3.949zm4.244 3.95v-3.949h.791v1.58h1.578v-1.58h.791v3.949h-.791v-1.777h-1.578v1.777h-.791zm4.147-3.95h.889v1.58h.988c.295 0 .592 0 .789.099s.395.198.494.395c.197.198.197.494.197.691 0 .296 0 .494-.197.691-.1.296-.297.395-.494.395-.098.099-.395.099-.691.099h-1.975v-3.95zm.888 3.259l.791.099c.197-.099.395-.099.492-.099.1 0 .197-.099.297-.198 0 0 .1-.197.1-.296 0-.197-.1-.296-.199-.395-.197-.099-.395-.099-.689-.099h-.791v.988h-.001zm2.963-3.259h.789v3.949h-.789v-3.949z" fill="#cc2229"/></g></svg>