<svg xmlns="http://www.w3.org/2000/svg" width="2500" height="2500" viewBox="0 0 192.756 192.756"><g fill-rule="evenodd" clip-rule="evenodd"><path fill="#fff" d="M0 0h192.756v192.756H0V0z"/><path d="M183 149.949V42.566H8.504v107.383H183z"/><path d="M8.504 42.566h74.435v57.813H8.504V42.566z"/><path fill="#fff" d="M16.748 45.961h-2.602l-.815-2.411-.79 2.411H9.905l2.12 1.547-.88 2.558 2.198-1.599 2.133 1.577-.849-2.528 2.121-1.555zM29.561 45.961h-2.602l-.815-2.411-.791 2.411h-2.636l2.121 1.547-.881 2.558 2.199-1.599 2.133 1.577-.849-2.528 2.121-1.555zM42.374 45.961h-2.603l-.814-2.411-.791 2.411H35.53l2.121 1.547-.881 2.558 2.198-1.599 2.134 1.577-.85-2.528 2.122-1.555zM55.186 45.961h-2.602l-.814-2.411-.792 2.411h-2.636l2.121 1.547-.88 2.558 2.198-1.599 2.133 1.577-.849-2.528 2.121-1.555zM67.999 45.961h-2.602l-.815-2.411-.791 2.411h-2.636l2.121 1.547-.881 2.558 2.199-1.599 2.133 1.577-.849-2.528 2.121-1.555zM80.811 45.961h-2.602l-.814-2.411-.791 2.411h-2.636l2.121 1.547-.881 2.558 2.199-1.599 2.133 1.577-.85-2.528 2.121-1.555zM16.748 58.393h-2.602l-.815-2.411-.79 2.411H9.905l2.12 1.545-.88 2.56 2.198-1.599 2.133 1.577-.849-2.531 2.121-1.552zM29.561 58.393h-2.602l-.815-2.411-.791 2.411h-2.636l2.121 1.545-.881 2.56 2.199-1.599 2.133 1.577-.849-2.531 2.121-1.552zM42.374 58.393h-2.603l-.814-2.411-.791 2.411H35.53l2.121 1.545-.881 2.56 2.198-1.599 2.134 1.577-.85-2.531 2.122-1.552zM55.186 58.393h-2.602l-.814-2.411-.792 2.411h-2.636l2.121 1.545-.88 2.56 2.198-1.599 2.133 1.577-.849-2.531 2.121-1.552zM67.999 58.393h-2.602l-.815-2.411-.791 2.411h-2.636l2.121 1.545-.881 2.56 2.199-1.599 2.133 1.577-.849-2.531 2.121-1.552zM80.811 58.393h-2.602l-.814-2.411-.791 2.411h-2.636l2.121 1.545-.881 2.56 2.199-1.599 2.133 1.577-.85-2.531 2.121-1.552zM16.748 70.823h-2.602l-.815-2.409-.79 2.409H9.905l2.12 1.547-.88 2.56 2.198-1.601 2.133 1.579-.849-2.531 2.121-1.554zM29.561 70.823h-2.602l-.815-2.409-.791 2.409h-2.636l2.121 1.547-.881 2.56 2.199-1.601 2.133 1.579-.849-2.531 2.121-1.554zM42.374 70.823h-2.603l-.814-2.409-.791 2.409H35.53l2.121 1.547-.881 2.56 2.198-1.601 2.134 1.579-.85-2.531 2.122-1.554zM55.186 70.823h-2.602l-.814-2.409-.792 2.409h-2.636l2.121 1.547-.88 2.56 2.198-1.601 2.133 1.579-.849-2.531 2.121-1.554zM67.999 70.823h-2.602l-.815-2.409-.791 2.409h-2.636l2.121 1.547-.881 2.56 2.199-1.601 2.133 1.579-.849-2.531 2.121-1.554zM80.811 70.823h-2.602l-.814-2.409-.791 2.409h-2.636l2.121 1.547-.881 2.56 2.199-1.601 2.133 1.579-.85-2.531 2.121-1.554zM16.748 83.255h-2.602l-.815-2.409-.79 2.409H9.905l2.12 1.547-.88 2.558 2.198-1.599 2.133 1.578-.849-2.53 2.121-1.554zM29.561 83.255h-2.602l-.815-2.409-.791 2.409h-2.636l2.121 1.547-.881 2.558 2.199-1.599 2.133 1.578-.849-2.53 2.121-1.554zM42.374 83.255h-2.603l-.814-2.409-.791 2.409H35.53l2.121 1.547-.881 2.558 2.198-1.599 2.134 1.578-.85-2.53 2.122-1.554zM55.186 83.255h-2.602l-.814-2.409-.792 2.409h-2.636l2.121 1.547-.88 2.558 2.198-1.599 2.133 1.578-.849-2.53 2.121-1.554zM67.999 83.255h-2.602l-.815-2.409-.791 2.409h-2.636l2.121 1.547-.881 2.558 2.199-1.599 2.133 1.578-.849-2.53 2.121-1.554zM80.811 83.255h-2.602l-.814-2.409-.791 2.409h-2.636l2.121 1.547-.881 2.558 2.199-1.599 2.133 1.578-.85-2.53 2.121-1.554zM22.849 52.177h-2.601l-.816-2.411-.79 2.411h-2.636l2.121 1.545-.881 2.56 2.199-1.599 2.133 1.577-.849-2.528 2.12-1.555zM35.662 52.177H33.06l-.815-2.411-.79 2.411h-2.636l2.12 1.545-.881 2.56 2.199-1.599 2.133 1.577-.849-2.528 2.121-1.555zM48.474 52.177h-2.601l-.815-2.411-.791 2.411h-2.636l2.121 1.545-.881 2.56 2.199-1.599 2.133 1.577-.849-2.528 2.12-1.555zM61.287 52.177h-2.602l-.815-2.411-.79 2.411h-2.636l2.12 1.545-.88 2.56 2.199-1.599 2.132 1.577-.849-2.528 2.121-1.555zM74.1 52.177h-2.602l-.815-2.411-.791 2.411h-2.635l2.12 1.545-.88 2.56 2.198-1.599 2.134 1.577-.85-2.528 2.121-1.555zM22.849 64.609h-2.601l-.816-2.411-.79 2.411h-2.636l2.121 1.545-.881 2.56 2.199-1.598 2.133 1.576-.849-2.53 2.12-1.553zM35.662 64.609H33.06l-.815-2.411-.79 2.411h-2.636l2.12 1.545-.881 2.56 2.199-1.598 2.133 1.576-.849-2.53 2.121-1.553zM48.474 64.609h-2.601l-.815-2.411-.791 2.411h-2.636l2.121 1.545-.881 2.56 2.199-1.598 2.133 1.576-.849-2.53 2.12-1.553zM61.287 64.609h-2.602l-.815-2.411-.79 2.411h-2.636l2.12 1.545-.88 2.56 2.199-1.598 2.132 1.576-.849-2.53 2.121-1.553zM74.1 64.609h-2.602l-.815-2.411-.791 2.411h-2.635l2.12 1.545-.88 2.56 2.198-1.598 2.134 1.576-.85-2.53 2.121-1.553zM22.849 77.039h-2.601l-.816-2.409-.79 2.409h-2.636l2.121 1.547-.881 2.56 2.199-1.601 2.133 1.579-.849-2.531 2.12-1.554zM35.662 77.039H33.06l-.815-2.409-.79 2.409h-2.636l2.12 1.547-.881 2.56 2.199-1.601 2.133 1.579-.849-2.531 2.121-1.554zM48.474 77.039h-2.601l-.815-2.409-.791 2.409h-2.636l2.121 1.547-.881 2.56 2.199-1.601 2.133 1.579-.849-2.531 2.12-1.554zM61.287 77.039h-2.602l-.815-2.409-.79 2.409h-2.636l2.12 1.547-.88 2.56 2.199-1.601 2.132 1.579-.849-2.531 2.121-1.554zM74.1 77.039h-2.602l-.815-2.409-.791 2.409h-2.635l2.12 1.547-.88 2.56 2.198-1.601 2.134 1.579-.85-2.531 2.121-1.554zM22.849 89.471h-2.601l-.816-2.409-.79 2.409h-2.636l2.121 1.547-.881 2.558 2.199-1.599 2.133 1.579-.849-2.531 2.12-1.554zM35.662 89.471H33.06l-.815-2.409-.79 2.409h-2.636l2.12 1.547-.881 2.558 2.199-1.599 2.133 1.579-.849-2.531 2.121-1.554zM48.474 89.471h-2.601l-.815-2.409-.791 2.409h-2.636l2.121 1.547-.881 2.558 2.199-1.599 2.133 1.579-.849-2.531 2.12-1.554zM61.287 89.471h-2.602l-.815-2.409-.79 2.409h-2.636l2.12 1.547-.88 2.558 2.199-1.599 2.132 1.579-.849-2.531 2.121-1.554zM74.1 89.471h-2.602l-.815-2.409-.791 2.409h-2.635l2.12 1.547-.88 2.558 2.198-1.599 2.134 1.579-.85-2.531 2.121-1.554zM16.748 95.686h-2.602l-.815-2.411-.79 2.411H9.905l2.12 1.546-.88 2.559 2.198-1.598 2.133 1.577-.849-2.53 2.121-1.554zM29.561 95.686h-2.602l-.815-2.411-.791 2.411h-2.636l2.121 1.546-.881 2.559 2.199-1.598 2.133 1.577-.849-2.53 2.121-1.554zM42.374 95.686h-2.603l-.814-2.411-.791 2.411H35.53l2.121 1.546-.881 2.559 2.198-1.598 2.134 1.577-.85-2.53 2.122-1.554zM55.186 95.686h-2.602l-.814-2.411-.792 2.411h-2.636l2.121 1.546-.88 2.559 2.198-1.598 2.133 1.577-.849-2.53 2.121-1.554zM67.999 95.686h-2.602l-.815-2.411-.791 2.411h-2.636l2.121 1.546-.881 2.559 2.199-1.598 2.133 1.577-.849-2.53 2.121-1.554zM80.811 95.686h-2.602l-.814-2.411-.791 2.411h-2.636l2.121 1.546-.881 2.559 2.199-1.598 2.133 1.577-.85-2.53 2.121-1.554zM83.012 50.828H183v8.26H83.012v-8.26zM83.012 67.347H183v8.262H83.012v-8.262zM83.012 83.867H183v8.261H83.012v-8.261zM8.504 100.389H183v8.257H8.504v-8.257zM8.504 116.908H183v8.262H8.504v-8.262zM8.504 133.428H183v8.261H8.504v-8.261z"/><path d="M25.789 33.229H23.87L11.588 15.543v17.686H9.197V13.536h3.896l11.751 16.887 11.81-16.887h3.838v19.693h-2.391V15.543L25.789 33.229zM50.41 26.821l6.79-11.544 6.879 11.544H50.41zM65.201 28.8l2.569 4.429h2.746L58.794 13.536h-3.188L43.974 33.229h2.804l2.51-4.429h15.913zM76.419 31.25V15.543h13.522c5.55 0 5.875 2.805 5.875 7.587 0 5.019-.088 8.12-6.111 8.12H76.419zm13.02 1.979h.236c2.244 0 4.901-.03 6.554-1.683 1.89-1.948 2.066-5.905 2.066-8.444 0-6.17-1.031-9.536-7.823-9.536H74.027v19.663h15.412zM106.912 22.039h16.504v1.978h-16.504v7.233h17.33v1.979h-19.721V13.536h19.514v2.007h-17.123v6.496zM151.75 13.536v19.693h-2.393V13.536h2.393zM160.957 33.229h-2.393V13.536h3.987l18.156 17.803V13.536h2.393v19.693h-3.926l-18.217-17.893v17.893zM34.267 159.352v13.58c0 6.023-2.48 6.111-7.972 6.26-1.299.029-2.627.029-3.956.029-1.86 0-3.75-.029-5.639-.09-3.868-.146-5.609-1.594-5.609-5.49v-14.289h2.391v14.023c0 3.395 1.594 3.631 4.694 3.691l4.222.059 4.577-.09c3.277-.088 4.901-.266 4.901-3.867V159.352h2.391zM47.578 175.795v3.219h-2.952v-3.219h2.952zM101.037 164.783c0-1.033-.117-2.393-1.211-2.893-1.328-.65-4.486-.68-6.435-.68h-.827c-1.831 0-5.58.117-7.233.855-1.092.473-1.299 1.654-1.299 2.746 0 2.568 1.624 3.012 3.868 3.1.708.061 1.446.061 2.155.061 1.535 0 3.1-.031 4.636-.031 1.358 0 2.745.031 4.103.178 3.633.385 5.139 1.596 5.139 5.314 0 2.186-.473 3.928-2.629 4.871-1.83.826-4.842.887-7.233.887h-1.564c-1.978 0-4.016-.029-5.994-.295-4.133-.531-4.959-1.949-4.959-6.023h2.391v.412c.03 1.566.03 2.807 1.742 3.307 1.801.502 5.02.533 6.938.533 1.86 0 3.75-.09 5.58-.324 2.244-.268 3.248-1.064 3.248-3.367 0-3.041-1.594-3.219-4.34-3.277l-4.518-.059c-1.771-.029-3.542-.029-5.285-.148-3.425-.207-5.787-1.062-5.787-4.664 0-2.391.62-4.428 3.011-5.344 2.096-.768 5.905-.826 8.178-.826 1.919 0 3.897.059 5.815.266 3.455.354 4.902 2.008 4.902 5.402h-2.392v-.001zM116.592 175.795v3.219h-2.951v-3.219h2.951zM152.869 174.586l-2.51 4.428h-2.805l11.633-19.693h3.189l11.721 19.693h-2.746l-2.568-4.428h-15.914zm14.791-1.979l-6.879-11.545-6.791 11.545h13.67zM184.252 175.795v3.219h-2.951v-3.219h2.951z"/></g></svg>