<svg xmlns="http://www.w3.org/2000/svg" width="2500" height="2500" viewBox="0 0 192.756 192.756"><g fill-rule="evenodd" clip-rule="evenodd"><path fill="#fff" d="M0 0h192.756v192.756H0V0z"/><path d="M18.707 70.677h3.607c8.657 0 15.872 7.936 15.872 17.675v15.873c0 9.738-7.214 17.855-15.872 17.855h-3.607c-8.657 0-15.872-8.117-15.872-17.855V88.352c-.001-9.739 7.214-17.675 15.872-17.675zm.18 1.623h3.427c8.296 0 15.15 7.395 15.15 16.593v14.791c0 9.197-6.854 16.773-15.15 16.773h-3.427c-8.477 0-15.331-7.576-15.331-16.773V88.893c0-9.198 6.854-16.593 15.331-16.593zm1.623 19.118c-1.083-1.624-1.443-4.329-4.689-5.771-3.066-1.443-6.132.541-6.673 1.803-.902 2.165.18 5.23 1.623 7.214 2.525 3.789-1.623 7.755 1.083 11.001.901 1.082 5.411 3.428 5.952 2.707 1.263-1.443.902-5.953 0-8.297-.902-2.707-2.886-4.69-4.87-6.674-1.082-1.263-3.607-2.886-2.525-4.148.902-.902 3.788-.542 5.231.361 1.262.901 2.164 1.623 2.706 3.427l1.262 3.968c.541.18 1.263.18 1.803 0l1.263-3.968c.541-1.804 1.624-2.525 2.706-3.427 1.443-.902 4.329-1.263 5.411-.361.902 1.262-1.623 2.885-2.705 4.148-1.984 1.984-3.968 3.967-4.87 6.674-.901 2.344-1.262 6.854 0 8.297.722.721 5.05-1.625 6.133-2.707 2.524-3.246-1.624-7.213.901-11.001 1.443-1.984 2.525-5.05 1.623-7.214-.541-1.262-3.607-3.247-6.673-1.803-3.249 1.623-3.61 4.148-4.692 5.771zm2.886 23.268h.722l.36-.723.18.723h.722l-.541.541.18.721-.541-.541-.722.541.361-.721-.721-.541zm3.427-2.346h.722l.18-.721.18.721h.722l-.541.541.18.723-.541-.543-.541.543.18-.723-.541-.541zm-7.215 3.246h.721l.181-.721.18.721h.902l-.721.361.36.721-.721-.359-.541.359.18-.721-.541-.361zm9.199-6.492h.721l.361-.721.18.721h.721l-.541.361.181.721-.541-.361-.722.361.181-.721-.541-.361zm-11.182 5.592h-.722l-.18-.723-.361.723h-.721l.721.541-.361.721.722-.541.541.541-.18-.721.541-.541zm-3.247-2.346h-.721l-.361-.721-.18.721h-.722l.542.541-.181.723.541-.543.722.543-.18-.723.54-.541zm-2.165-3.246h-.722l-.18-.721-.181.721h-.902l.722.361-.181.721.542-.361.541.361-.181-.721.542-.361zm8.297-32.105c1.443 0 2.705 1.262 2.705 2.706v1.623c0 1.443-1.262 2.706-2.705 2.706-1.624 0-2.706-1.263-2.706-2.706v-1.623c.001-1.444 1.083-2.706 2.706-2.706zM180.182 97.014c-4.869-1.083-5.049-8.838.902-6.854l-.902 6.854zm-49.418-.723l.9-6.493c4.51-2.885 7.397 2.525-.9 6.493zm-22.366-4.148l1.082 5.23-3.066.361 1.984-5.591zm67.456 12.806l3.969-6.494c-4.51.723-8.658-12.264 2.705-9.739l-2.525 19.118c1.803 1.264 4.508 1.264 6.492.723 1.264-5.23.361-14.069 1.984-20.922-1.262-1.083-8.656-1.623-11.543-1.263-5.951.721-11.002 6.132-1.623 13.166l1.262.902c-3.426 2.705-4.148 3.789-7.936 2.705-.902 1.084-2.344 3.789-2.885 5.23 3.605 1.082 7.935 0 10.1-3.426zm-21.825-17.676c-4.148 5.23-7.936 17.494-4.869 17.676 1.082 1.443 7.215-.902 7.936-1.443 1.262-5.592 1.443-11.543 3.787-16.232l7.035-.181c-2.164 4.87-6.312 13.708-4.689 18.938.721 1.082-.541 3.426-1.443 1.443-1.264-1.984-5.771-.361-14.971.359-6.672.361-4.508-1.803-5.049-3.787.721-4.689 2.523-13.527 5.41-16.773h6.853zm-23.447 11.543c.541-2.344 6.674-3.066 7.035-8.837-.541-3.427-7.035-2.165-7.395-1.083l-3.066 17.855c-.902 1.984-3.428 1.082-5.592.902-.721 0-1.262 0-1.803-.18.9-.182 1.803-.723 1.982-2.164l2.164-17.316c.182-.721 1.084-.902 1.984-1.082 5.23-.901 17.135-3.066 15.512 5.411-1.081 5.412-6.311 6.315-10.821 6.494zm-63.126 2.164l5.051-12.625 2.344 19.299 6.132-.361 7.215-18.036c.541-1.623 2.164-1.443 2.164.541v17.856c1.804.902 4.87.361 7.396-1.082.18.721 1.262 2.164 3.426.902 1.082-.541.541-2.346 1.443-4.871.9-.721 4.689-1.982 8.656-1.803l.902 7.033c.361 1.623 3.428.361 6.494-.359l-3.248-20.923-9.559 2.345c-.721 1.083-3.066 8.838-3.066 9.74l1.805-.723 2.523-7.034 3.066-.901 1.082 8.837-10.279 1.443c0 1.443 0 3.066-.723 4.869-1.443 1.443-4.689.541-4.689-1.262V76.993l-6.312 1.263-7.214 19.299c-.361-.541-1.083 0-2.165 0l-1.804-21.644-11.182.722c-.902 1.082-1.443 1.803-1.083 3.246 6.493 10.461 1.263 17.676-3.788 18.397-2.885.541-5.23.361-6.854-1.803l-4.87 7.936c3.249 4.327 12.808 5.589 17.137-3.429zm96.314 8.659c3.066 0 7.033 1.803 10.279-.902 1.443-1.443 3.969-3.969 4.871-6.133 1.803 1.082-1.984 6.674.721 7.035 2.346.541 4.689.721 7.035.359 1.262.182 1.441-2.344 1.441-4.869.723-5.23.541-13.166 1.805-18.216-4.51-1.443-9.379-2.525-15.15-1.263-13.707 4.329-.541 15.151-.182 14.428-1.082 2.166-4.508 2.525-6.492 1.264l-3.066 5.771c-2.885-5.592 3.787-19.299 5.771-20.922-1.623-.541-5.23-.36-10.281-.18-3.064.721-4.146 16.233-4.869 16.413-2.344.721-4.869 2.525-5.771.361-.721-3.428 5.953-17.135 6.674-16.774h-11.182c-.182 0-1.264 2.525-2.166 5.952.182-3.247-1.623-5.591-4.689-6.673-5.41-1.082-11.543.36-16.592 1.262l.541 1.083-2.164 16.954c0 .361-.723.361-.902-.18l-2.705-19.84-12.445 3.066-3.246 10.28c-.723.541-1.984.541-2.525 1.264.18 1.984 1.623 4.328-.182 5.23-2.344 1.262-.9-20.201-.9-29.58l-9.56 1.623-6.675 18.938c-.361-.18-1.263-20.02-1.443-21.463L66.194 75.37c-1.443.541-1.984 1.623-2.706 2.345-1.443 3.968 9.92 10.641-.901 18.397-3.968 1.262-4.689.361-8.297-2.886l-6.493 11.904c15.691 13.166 22.184-3.787 23.808-9.559.36 4.329.18 14.971 1.984 14.249l9.198-.361 5.23-15.691h.722c0 3.066-1.624 13.888 0 16.593 2.886.182 7.755-1.082 8.296-1.803.902 1.803 2.705 1.623 4.328 1.082 3.248-1.805 1.984-3.969 3.607-6.312 1.082-.723 3.066-.723 4.51-.182 0 1.264.541 7.215 2.164 7.576 1.984-.361 6.494-.723 7.756-1.623 2.525.721 5.23.541 8.297 0 .721-.182 1.441-5.592 2.344-8.477 4.148-.361 9.74-.902 12.084-4.871-1.082 3.968-1.803 7.214-1.803 9.56 0 2.705.541 3.605 2.885 3.967 4.51.902 13.709-1.984 15.512-.902l3.428 1.443c.359.361 1.082.179 1.623-.18z"/></g></svg>