<svg xmlns="http://www.w3.org/2000/svg" width="2500" height="2500" viewBox="0 0 192.756 192.756"><g fill-rule="evenodd" clip-rule="evenodd"><path fill="#fff" d="M0 0h192.756v192.756H0V0z"/><path d="M13.219 123.164l-7.582-6.924H3.165v8.737h1.977v-7.088h.165l7.583 7.088h2.307v-8.737h-1.978v6.924zM31.351 116.24v5.439c0 1.979-2.143 2.473-3.956 2.473-1.813 0-3.791-.494-3.791-2.473v-5.439h-2.143v5.77c0 1.648 1.813 3.133 5.934 3.133s6.099-1.484 6.099-3.297v-5.605h-2.143v-.001zM38.439 117.23h5.11v7.747h1.978v-7.747h5.109v-.99H38.439v.99zM74.208 124.977h1.978v-8.737h-1.978v8.737zM81.295 117.23h5.111v7.747h2.142v-7.747h5.11v-.99H81.295v.99zM98.768 124.977h2.142v-8.737h-2.142v8.737zM136.846 123.164l-7.584-6.924h-2.473v8.737h1.979v-7.088l7.748 7.088h2.306v-8.737h-1.976v6.924zM164.207 116.24h-2.143v8.737h9.725v-1.155h-7.582v-7.582zM187.943 118.713c-.164-.824-.66-2.637-5.934-2.637-3.627 0-5.275 1.318-5.275 2.637 0 1.484 2.309 1.814 3.297 1.979l3.133.494c2.471.33 3.131.66 3.131 1.484 0 1.318-2.473 1.482-3.955 1.482-1.979 0-4.121-.494-4.121-1.977h-1.979c0 .658.33 1.482 1.484 2.143.824.328 1.812.824 4.615.824 2.637 0 5.934-.496 5.934-2.639 0-1.318-1.484-1.977-3.461-2.307l-4.287-.494c-.824-.166-1.812-.496-1.812-1.154 0-1.318 2.143-1.484 3.461-1.484 1.814 0 3.627.33 3.791 1.648h1.978v.001zM67.615 123.822l-.165-1.482c0-1.318-.824-1.484-1.813-1.648.989-.33 2.143-.824 2.143-2.143 0-1.812-2.472-2.309-4.945-2.309h-6.923v8.736h1.978v-7.746H63c.989 0 2.637.164 2.637 1.482s-1.484 1.484-2.967 1.484h-4.78v.988h4.945c2.473 0 2.637.824 2.637 1.484 0 .33.165 1.648.495 2.307h2.472v-.33c-.66-.163-.824-.327-.824-.823zM113.934 116.076v.988c3.295 0 5.273 1.484 5.273 3.463 0 2.143-1.979 3.625-5.273 3.625-3.297 0-5.275-1.482-5.275-3.625 0-1.979 1.979-3.463 5.275-3.463v-.988c-5.605 0-7.418 2.637-7.418 4.451 0 1.977 1.812 4.615 7.418 4.615 5.604 0 7.416-2.639 7.416-4.615 0-1.814-1.813-4.451-7.416-4.451zM151.68 116.24h-2.307l-5.605 8.737h2.142l1.485-2.637.658-.988 2.472-3.793 2.145 3.793h-4.617l-.658.988h6.097l1.485 2.637h2.306l-5.603-8.737zM115.746 80.966V101.9h-2.473V79.647s2.637-.494 2.473 1.319zm14.012-6.758c-2.145.165-3.957.33-5.936 1.319-.494.165-.988.659-1.318.989-1.482-2.308-3.791-1.978-6.098-2.143h-.33v-6.428h-2.803v8.901h4.781c1.646 0 3.131 1.319 3.295 2.638V101.9h2.473V80.307c0-.824.33-1.648.99-2.143.988-.824 2.143-1.319 3.461-1.319 1.154-.165 1.648-.165 2.143-.165h2.637c2.639.165 3.793 1.648 4.121 2.473 0 0 .496.495.33 3.791v13.847s.166 1.977.33 2.473c.66 1.482 1.648 2.307 2.803 2.637 1.977.824 3.955 1.154 6.098 1.154 1.484 0 2.967-.166 4.451-.494.66-.166.988-.496 1.812-.824 1.318-.496 1.318-.824 2.143-1.154l.166-.33 1.482 1.318c1.979 1.154 4.121 1.484 6.264 1.484 3.297 0 6.1-.99 6.76-1.484 0 0 1.152-.658 2.801.33V80.307c0-.824.33-1.648.824-2.143.99-.824 2.143-1.319 3.463-1.319 1.152-.165 1.812-.165 2.307-.165h2.473c2.803.165 4.121 1.648 4.451 2.473 0 0 .494.495.33 3.791v15s0 2.145.164 2.639c0 0 .33 1.318.494 1.318h2.803c-.824-1.318-.66-3.627-.66-3.627s.166-14.67 0-18.626c0-2.143-1.482-3.132-1.482-3.132-.99-.989-2.803-1.648-4.287-1.978-1.318-.165-2.801-.33-4.285-.165-2.143 0-4.285.165-6.428 1.154 0 0-1.154.659-1.484 1.483-.658-.66-1.318-1.154-1.318-1.154-1.318-.824-2.143-1.648-6.594-1.648h-.33c-4.615 0-6.264 1.319-6.264 1.319s-.988.659-1.482 1.318c0 0 0-.165-.166-.33-.164-.165-.658-.659-.988-.824-.824-.495-1.482-.659-2.307-.989-1.484-.33-3.297-.495-5.111-.495-2.307 0-4.285.33-5.273.824-.496.165-1.648.824-2.473 1.813v-.164c-.824-.989-2.309-1.648-2.967-1.812-.66-.165-1.32-.33-2.145-.495-1.152 0-2.307-.165-3.461-.165h-.66zm16.976 26.704c-.494 0-.988-.166-1.482-.166-1.979-.164-5.109-.494-5.109-4.78v-7.253l5.109 2.967c.164 0 .328.165.328.494.33 1.813-.328 3.956.33 4.944.496.66 1.648.66 1.979 0 0 0 .33-.164.33-.823V91.68c0-.33-.166-.66-.33-.989-.33-.33-.988-.824-1.482-.989-2.309-1.319-3.957-1.978-5.111-2.967 0 0-1.318-1.154-1.152-2.143 0 0-.496-4.286.494-5.604.658-1.318 1.812-1.978 3.297-2.143 1.152-.165 1.977-.165 2.801-.165 1.484-.165 2.309 0 3.463.165 0 0 3.625.66 3.625 3.461v6.429c-1.648-.824-3.461-1.648-4.945-2.637-1.318-.989-.164-2.802-.988-3.956-.164-.33-.824-.495-1.154-.495-.494.165-.988.33-.988 1.484v2.473c-.166 1.484 1.154 1.978 1.154 1.978 1.482.989 3.791 2.143 5.439 3.132 0 0 1.318.659 1.482 2.638v4.78c0 1.154-.33 2.637-1.482 3.461-.99.496-1.979.824-2.967 1.154-.992.165-1.816.165-2.641.165zm16.319-24.396c1.154 0 2.309.165 3.627.33l.164.165c.824.165 1.484.659 2.145 1.318 1.318.989.824 2.967.824 2.967v10.22c.164 3.956.164 5.604.164 5.604-.164.496-.164 1.154-.494 1.648-.99.99-.824.824-1.648 1.154l-.166.166c-1.482.494-2.967.658-4.615.658-1.152 0-2.307-.164-3.625-.494-.824-.164-1.484-.494-2.145-1.318-1.318-.99-.822-2.967-.822-2.967v-10.22c-.166-3.792 0-5.604 0-5.604 0-.495.164-1.154.328-1.648.66-.824 1.648-1.318 2.803-1.648 1.153-.167 2.307-.331 3.46-.331zm-65.274.164c1.154 0 2.473.165 3.627.33.824.165 1.812.495 2.637 1.154.824 1.154.66 3.296.66 3.296V97.284c-.166.494-.166 1.154-.496 1.648-.328.33-.824.824-1.812 1.154-2.473.824-5.275.988-8.242.328-.824-.164-1.483-.658-2.143-1.318-1.154-1.154-.824-2.967-.824-2.967v-10.22c-.165-3.956 0-5.604 0-5.604 0-.494.165-1.154.494-1.648.495-.989 1.483-1.483 2.637-1.648 1.155-.164 2.308-.329 3.462-.329zm0-2.637c-4.945 0-6.593 1.484-6.593 1.484l-.165-7.748h-2.473l.165 30.988s.165 5.605-3.297 7.584c0 0-4.121 2.801-12.197 1.977 0 0-3.792 0-7.583-2.143v2.803s2.967 1.648 7.417 1.979c4.45.328 10.549-.166 13.846-2.309 3.297-1.979 4.121-4.615 4.451-7.088v-.164c4.451 2.637 9.726 2.143 14.011-.166.33-.164.99-.164 1.812.166V67.615h-2.637v7.912c-.329-.165-1.153-1.319-6.757-1.484zm-21.923 4.451v20.274s.165 1.484-1.319 1.484-1.483-1.484-1.483-1.484V79.483c0-.989 1.154-.989 1.154-.989h1.648zm-.165-2.803H72.56s-5.11-.659-5.11 4.451l.33 18.625s-.66 3.957 6.758 3.957c7.912 0 7.088-3.957 7.088-3.957V71.241s-.165-3.296-1.154-3.296h-5.769s.989 1.319.989 2.802l-.001 4.944zM59.538 89.538v8.572c0 1.154-.165 1.648-1.319 1.648-1.483 0-1.319-1.648-1.319-1.648v-6.1c0-1.978 2.638-2.472 2.638-2.472zm-.165-5.769c.165 1.813-1.154 2.472-1.154 2.472s-3.461 2.143-4.121 2.308c-.659.33-2.967 1.319-2.967 3.297v6.758c0 1.484.165 3.791 6.923 4.121 7.583.33 7.088-4.121 7.088-4.121s-.165-17.637-.165-18.956c0-1.154.165-4.286-7.252-3.956-7.088.165-6.593 3.956-6.593 3.956v7.912c.33 0 4.121-2.143 4.121-2.143 1.978-.989 1.648-2.308 1.648-2.308v-2.967s-.329-1.483 1.154-1.648c1.648 0 1.318 1.648 1.318 1.648v3.627zm-18.626 1.483v-5.275c0-1.318 1.154-1.154 1.154-1.154 1.483 0 1.319 1.319 1.319 1.319v5.11h-2.473zm0 3.296h8.242v-8.406c-.33-.989 1.318-4.451-7.088-4.451 0 0-6.758-.33-6.758 4.121v18.791s-.659 3.957 6.923 4.285c7.418.166 6.923-4.285 6.923-4.285v-7.912H43.22v7.418s.165 1.812-1.319 1.979c-1.483 0-1.154-1.979-1.154-1.979v-9.561zm123.46-6.757v15s0 .824-.988.988c-.33 0-1.154 0-1.318-.988V81.625c0-.33-.166-.824 0-1.154a1.236 1.236 0 0 1 1.152-.824c.33 0 1.154.33 1.154 1.154v.99zm-67.582.989v-1.154c0-.33-.165-.659 0-1.154 0-.495.66-.824 1.154-.824.33 0 1.154.33 1.154.824v16.319s0 .988-.99.988c-.328 0-1.318 0-1.318-.988V82.78zm35.109-1.814c0-.165 0-.495-.164-.66-.494-.824-1.318-.824-1.979-.165-.494.494-.164 1.318-.33 1.978v19.78h2.473V80.966zm49.121 0c0-.165 0-.495-.164-.66-.66-.824-1.484-.824-1.979-.165-.66.494-.494 1.154-.494 1.978v19.78h2.637V80.966zM2.834 68.768h11.209l4.45 22.088 4.121-22.088h10.055v33.296h-6.428l.165-25.878-5.275 25.714h-5.439l-5.439-26.044.494 26.208H4.153V74.373s.165-4.78-1.319-5.605z"/></g></svg>