<svg xmlns="http://www.w3.org/2000/svg" width="2500" height="2500" viewBox="0 0 192.756 192.756"><g fill-rule="evenodd" clip-rule="evenodd"><path fill="#fff" d="M0 0h192.756v192.756H0V0z"/><path d="M131.963 95.719c-2.77 0-5.012-2.243-5.012-4.994s2.242-5.012 5.012-5.012c2.752 0 4.994 2.261 4.994 5.012s-2.242 4.994-4.994 4.994z" fill="#0094d6"/><path d="M163.373 79.213c12.023 3.354 20.879 14.396 20.879 27.454a28.34 28.34 0 0 1-7.764 19.521l-8.008-.02-.471-4.898-.357-1.998 2.506-.113a18.958 18.958 0 0 0 4.672-12.492c0-7.33-4.164-13.699-10.25-16.902l-1.111-10.439-.096-.113zm-16.41 10.552c-6.088 3.185-10.271 9.572-10.271 16.902 0 5.502 2.357 10.458 6.088 13.943l-2.035 10.251c-8.084-5.05-13.473-14.001-13.473-24.194 0-3.241.545-6.351 1.564-9.271a7.165 7.165 0 0 0 3.127.698c4.051 0 7.367-3.298 7.367-7.368 0-2.148-.922-4.07-2.373-5.427a28.703 28.703 0 0 1 11.682-6.218l-.188.245-1.488 10.439zM147.924 110.209l5.84-45.788V60.2h.697a1.595 1.595 0 0 1-.32-.961c0-.905.736-1.621 1.621-1.621a1.61 1.61 0 0 1 1.621 1.621c0 .358-.113.678-.303.961h.68v4.221l5.84 45.788h-4.221L156.365 70.3v27.68h.979l.51 7.819-1.809.886 1.449 1.865-.961.867-2.844-3.618.508-7.819h.961V70.3l-2.996 39.909h-4.238zM146.51 126.037l2.845-12.568h2.713l3.674 7.82 3.676-7.82h2.713l2.826 12.568h-3.203l-1.602-6.293-2.713 6.293h-3.412l-2.713-6.293-1.601 6.293h-3.203zM142.082 128.336v1.47c1.395-.357 3.316-.244 6.162.245 5.746.659 10.213 1.356 19.596-.735.848-.15 1.225.095 2.035.246 2.053.264 3.43-.095 4.504-1.471-1.074-.019-2.111-.019-4.184-.377-1.395-.226-2.996-.131-4.824.245-5.992.849-12.002 1.131-17.994 0-2.545-.489-4.41-.452-5.295.377z" fill="#0094d6"/><path d="M142.043 130.428v1.243c1.357-.15 2.789.151 4.146.472 5.842 1.94 13.98 1.131 21.367-.396.604-.227 1.207-.245 1.809-.208.754-.433 1.49-.866 2.225-1.3-1.037-.019-2.072-.019-3.129-.302-7.234 1.621-14.564 1.81-21.875.49a13.152 13.152 0 0 0-4.543.001z" fill="#0094d6"/><path d="M145.078 132.953c8.121 3.26 15.338 2.694 22.385-.509-7.877 1.714-15.338 2.016-22.385.509zM8.504 75.67c10.458 1.112 20.558 2.582 29.829 4.881 4.409-6.143 15.168-5.258 30.262.452 5.068-5.314 13.604-3.656 22.253-1.771.452 1.187.904 2.374 1.338 3.542-9.214-3.203-17.486-4.202-23.139.904-13.021-4.654-24.835-7.254-30.714 0-9.497-2.902-18.994-4.39-28.491-4.899-.453-1.036-.886-2.072-1.338-3.109zM26.763 115.73c1.187 2.506 2.375 5.03 3.562 7.556 5.182.734 10.382 2.073 15.564 4.014 5.201-7.047 16.921-5.125 31.619.886 6.463-8.441 19.784-6.991 36.933 0-.734-2.524-1.471-5.05-2.225-7.575-16.619-6.821-29.375-7.857-36.498-.434-13.662-4.466-26.135-7.442-30.262 0-7.802-2.6-14.473-4.239-18.693-4.447zM83.028 88.05H96.5v22.894h-6.18V105.272h1.715V94.174h-3.109v16.77h-4.033v-16.77h-1.865V88.05zM80.823 88.05v22.894h-5.408v-5.672h1.187V94.174H69.14V88.05h11.683z" fill="#0094d6"/><path fill="#0094d6" d="M73.719 98.149H69.14v15.998l4.579 2.092v-18.09zM60.85 88.05h5.916v22.894h-4.559v-16.77H60.85V88.05zM59.154 88.05v22.894h-4.918v-16.77h-6.935V88.05h11.853zM45.436 110.944h-4.579v-16.77H39.67V88.05h5.766v22.894zM37.126 110.944V88.05H25.104v17.222h-1.526v5.672h6.105v-16.77h3.053v16.77h4.39z"/></g></svg>