<svg xmlns="http://www.w3.org/2000/svg" width="2500" height="1530" viewBox="0.014 -0.003 213.931 130.955"><path fill="purple" stroke="#fff" stroke-width=".316" d="M.173.155h213.615v130.638H.173z"/><g fill="#fff"><path d="M54.267 54.76h-3.262V35.97c0-1.483.09-3.3.273-5.448H51.2c-.312 1.263-.592 2.168-.84 2.715L40.79 54.76h-1.601l-9.551-21.367c-.273-.625-.553-1.582-.84-2.871h-.078c.104 1.12.156 2.949.156 5.488v18.75h-3.164V26.752h4.336l8.594 19.53c.664 1.498 1.094 2.618 1.289 3.36h.117c.56-1.537 1.009-2.683 1.348-3.438l8.77-19.453h4.102V54.76zM62.86 29.682c-.572 0-1.06-.195-1.464-.586s-.605-.886-.605-1.484c0-.6.202-1.097.605-1.494a2.014 2.014 0 0 1 1.465-.596c.586 0 1.084.198 1.494.596.41.397.615.895.615 1.494a1.98 1.98 0 0 1-.615 1.465c-.41.403-.908.605-1.494.605zm1.563 25.078H61.22v-20h3.203v20zM84.54 53.842c-1.537.924-3.36 1.387-5.47 1.387-2.851 0-5.152-.928-6.903-2.783s-2.627-4.261-2.627-7.217c0-3.294.944-5.941 2.832-7.94 1.888-1.998 4.408-2.997 7.559-2.997 1.758 0 3.307.325 4.648.977v3.28c-1.484-1.041-3.073-1.561-4.766-1.561-2.044 0-3.721.732-5.03 2.197s-1.962 3.389-1.962 5.77c0 2.345.615 4.193 1.846 5.548 1.23 1.354 2.88 2.03 4.95 2.03 1.746 0 3.386-.58 4.923-1.737v3.046zM99.853 38.002c-.56-.43-1.367-.645-2.422-.645-1.367 0-2.51.645-3.428 1.934s-1.377 3.047-1.377 5.273v10.195h-3.203v-20h3.203v4.12h.078c.456-1.405 1.152-2.502 2.09-3.29.938-.788 1.986-1.182 3.145-1.182.833 0 1.47.09 1.914.273v3.322zM111.689 55.229c-2.956 0-5.316-.935-7.08-2.803-1.764-1.87-2.646-4.346-2.646-7.432 0-3.36.918-5.983 2.754-7.871 1.836-1.888 4.316-2.832 7.44-2.832 2.982 0 5.31.918 6.983 2.754s2.51 4.38 2.51 7.637c0 3.19-.901 5.745-2.705 7.666-1.804 1.92-4.222 2.88-7.256 2.88zm.234-18.242c-2.058 0-3.685.7-4.883 2.1-1.198 1.399-1.797 3.33-1.797 5.79 0 2.37.605 4.239 1.816 5.606s2.832 2.05 4.863 2.05c2.07 0 3.662-.67 4.775-2.011 1.113-1.341 1.67-3.25 1.67-5.723 0-2.5-.557-4.427-1.67-5.781-1.112-1.355-2.704-2.031-4.774-2.031zM125.556 54.037v-3.438c1.745 1.289 3.665 1.934 5.762 1.934 2.812 0 4.219-.938 4.219-2.812 0-.534-.12-.986-.361-1.357s-.566-.7-.977-.986a7.443 7.443 0 0 0-1.445-.771 91.426 91.426 0 0 0-1.787-.713 23.342 23.342 0 0 1-2.334-1.064c-.671-.358-1.23-.762-1.68-1.211s-.788-.96-1.016-1.533c-.228-.573-.342-1.244-.342-2.012 0-.938.215-1.768.645-2.49s1.003-1.328 1.719-1.816 1.533-.856 2.45-1.104a10.846 10.846 0 0 1 2.843-.371c1.73 0 3.28.299 4.648.898v3.242c-1.472-.964-3.164-1.445-5.078-1.445-.6 0-1.14.068-1.621.205s-.896.329-1.24.576a2.653 2.653 0 0 0-.801.889 2.35 2.35 0 0 0-.283 1.143c0 .52.095.957.283 1.309s.466.664.83.938.808.52 1.328.742c.52.22 1.113.462 1.777.723.886.338 1.68.687 2.383 1.045.703.358 1.302.762 1.797 1.21s.876.968 1.143 1.554.4 1.282.4 2.09c0 .989-.218 1.849-.654 2.578a5.62 5.62 0 0 1-1.748 1.816c-.73.48-1.57.84-2.52 1.074s-1.946.352-2.988.352c-2.058-.003-3.841-.401-5.352-1.195zM152.079 55.229c-2.956 0-5.315-.935-7.08-2.803-1.765-1.87-2.646-4.346-2.646-7.432 0-3.36.918-5.983 2.754-7.871 1.836-1.888 4.316-2.832 7.44-2.832 2.982 0 5.31.918 6.983 2.754s2.51 4.38 2.51 7.637c0 3.19-.901 5.745-2.705 7.666-1.804 1.92-4.221 2.88-7.256 2.88zm.235-18.242c-2.058 0-3.685.7-4.883 2.1-1.198 1.399-1.797 3.33-1.797 5.79 0 2.37.605 4.239 1.816 5.606s2.832 2.05 4.863 2.05c2.07 0 3.662-.67 4.775-2.011 1.113-1.341 1.67-3.25 1.67-5.723 0-2.5-.557-4.427-1.67-5.781-1.112-1.355-2.704-2.031-4.774-2.031zM177.04 27.963c-.625-.352-1.335-.527-2.13-.527-2.238 0-3.358 1.413-3.358 4.238v3.086h4.688v2.734h-4.688V54.76h-3.184V37.494h-3.418V34.76h3.418v-3.242c0-2.097.605-3.753 1.816-4.971 1.21-1.218 2.722-1.826 4.53-1.826.978 0 1.752.117 2.325.352v2.89zM188.935 54.565c-.755.417-1.751.625-2.988.625-3.503 0-5.254-1.953-5.254-5.86V37.496h-3.438V34.76h3.438v-4.883l3.203-1.035v5.918h5.039v2.734h-5.04v11.27c0 1.34.229 2.298.685 2.87.456.574 1.21.86 2.266.86.808 0 1.504-.222 2.09-.664v2.734zM40.243 104.76H25.712V76.752h3.28v25.039h11.25v2.969zM60.282 104.76h-3.203v-3.164H57c-1.328 2.422-3.385 3.633-6.172 3.633-4.766 0-7.148-2.84-7.148-8.516V84.76h3.184v11.445c0 4.219 1.615 6.328 4.844 6.328 1.562 0 2.849-.576 3.857-1.73 1.009-1.151 1.514-2.66 1.514-4.52V84.76h3.203v20zM95.165 104.76h-3.203V93.276c0-2.214-.342-3.815-1.025-4.805-.684-.99-1.833-1.484-3.447-1.484-1.367 0-2.53.625-3.486 1.875s-1.436 2.747-1.436 4.492v11.406h-3.203V92.885c0-3.933-1.517-5.898-4.551-5.898-1.406 0-2.565.589-3.477 1.768-.912 1.178-1.367 2.71-1.367 4.6v11.406h-3.203v-20h3.203v3.164h.078c1.419-2.422 3.49-3.633 6.21-3.633 1.368 0 2.56.38 3.575 1.143s1.712 1.76 2.09 2.998c1.484-2.761 3.698-4.141 6.64-4.141 4.402 0 6.603 2.715 6.603 8.145v12.323zM102.86 79.682c-.572 0-1.06-.195-1.464-.586s-.605-.886-.605-1.484c0-.6.202-1.098.605-1.494a2.014 2.014 0 0 1 1.465-.596c.586 0 1.084.198 1.494.596.41.396.615.895.615 1.494 0 .572-.205 1.06-.615 1.465-.41.403-.908.605-1.494.605zm1.563 25.078h-3.203v-20h3.203v20zM125.224 104.76h-3.203v-3.125h-.078c-1.394 2.396-3.444 3.594-6.152 3.594-1.992 0-3.552-.527-4.678-1.582s-1.69-2.455-1.69-4.2c0-3.736 2.2-5.911 6.603-6.522l5.996-.84c0-3.398-1.374-5.098-4.121-5.098-2.41 0-4.583.82-6.523 2.46v-3.28c1.966-1.25 4.23-1.875 6.797-1.875 4.7 0 7.05 2.486 7.05 7.46v13.008zm-3.203-10.117l-4.824.664c-1.484.208-2.604.576-3.36 1.104s-1.132 1.46-1.132 2.803c0 .977.349 1.773 1.045 2.393.696.618 1.624.928 2.783.928 1.589 0 2.9-.557 3.936-1.67s1.553-2.523 1.553-4.23v-1.992z"/></g></svg>