<svg xmlns="http://www.w3.org/2000/svg" width="2500" height="2500" viewBox="0 0 192.756 192.756"><path fill-rule="evenodd" clip-rule="evenodd" fill="#fff" d="M0 0h192.756v192.756H0V0z"/><path d="M174.068 92.358c0-1.41.57-2.694 1.49-3.626a5.024 5.024 0 0 1 3.586-1.514c1.41 0 2.684.578 3.609 1.508.926.933 1.498 2.22 1.498 3.632s-.57 2.689-1.494 3.613-2.201 1.494-3.613 1.494a5.042 5.042 0 0 1-3.588-1.5 5.108 5.108 0 0 1-1.488-3.607zm2.286-2.843a4.04 4.04 0 0 0-1.164 2.843c0 1.103.443 2.1 1.158 2.82a3.932 3.932 0 0 0 2.797 1.168c1.104 0 2.1-.446 2.822-1.167a3.978 3.978 0 0 0 1.166-2.821 4.023 4.023 0 0 0-1.172-2.845 3.959 3.959 0 0 0-2.816-1.176 3.916 3.916 0 0 0-2.791 1.178z" fill="#393481"/><path d="M180.531 92.809c.516-.258.902-.806.902-1.451 0-.871-.709-1.613-1.547-1.613h-2.678v5.321h1.162v-1.935h1.031l1.096 1.935h1.291l-1.257-2.257zm-.291-1.354c0 .419-.322.774-.74.774h-1.129v-1.581h1.16c.387.032.709.355.709.807zM78.031 97.518v-2.773h4.16l.516-2.387h-7.515v5.16h2.839zM78.031 99.904v2.776h4.16l.516 2.386h-7.515v-5.162h2.839zM43.036 97.518v-5.16h-2.839v5.16h2.839zM43.036 105.066v-5.162h-2.839v5.162h2.839zM123.668 97.518v-5.16h-2.838v5.16h2.838zM123.668 105.066v-5.162h-2.838v5.162h2.838zM139.57 97.518v-2.902h1.387c1.387 0 2.129.741 2.289 2.902h2.902c-.096-1.677-.709-2.902-1.676-3.837a4.42 4.42 0 0 0-2.742-1.258 41.35 41.35 0 0 0-2.193-.064h-2.773v5.16h2.806v-.001zM161.309 97.518v-2.773h4.16l.515-2.387h-7.513v5.16h2.838zM161.309 99.904v2.776h4.16l.515 2.386h-7.513v-5.162h2.838zM58.969 97.518v-5.16H56.13v5.16h2.839zM63.129 105.066l.517-2.386h-4.677v-2.776H56.13v5.162h6.999zM14.008 99.904l-.967 5.162h2.837l.968-5.162h-2.838zM24.458 99.904l1 5.162h2.838l-1-5.162h-2.838zM18.136 99.904l1 5.162h3.032l.967-5.162h-4.999zM19.523 97.518l-1-5.16h-3.064l-1 5.16h5.064zM26.845 97.518l-1-5.16h-3.064l-.968 5.16h5.032zM94.641 97.518l-.968-5.16h2.838l.968 5.16h-2.838zM105.092 97.518l1-5.16h2.838l-1 5.16h-2.838zM98.801 97.518l.969-5.16h3.031l1 5.16h-5zM100.156 99.904l-1 5.162h-3.064l-1-5.162h5.064zM107.479 99.904l-1 5.162h-3.032l-1.002-5.162h5.034zM139.537 105.066c.742 0 1.678-.033 2.193-.066 1.064-.096 1.969-.516 2.742-1.258.967-.934 1.58-2.16 1.676-3.838h-2.902c-.16 2.162-.902 2.904-2.289 2.904h-1.387v-2.904h-2.807v5.162h2.774z" fill-rule="evenodd" clip-rule="evenodd" fill="#393481"/></svg>