<svg xmlns="http://www.w3.org/2000/svg" width="2500" height="2500" viewBox="0 0 192.756 192.756"><g fill-rule="evenodd" clip-rule="evenodd"><path fill="#fff" d="M0 0h192.756v192.756H0V0z"/><path d="M9.429 68.196h14.928l5.674 22.249 5.681-22.249h14.869v36.559h-9.275V76.883l-7.116 27.872h-8.379l-7.107-27.872v27.872H9.429V68.196zM57.793 68.196H69.05v13.815l11.821-13.815h15.012L82.589 81.949l13.925 22.806H82.62l-7.651-14.922-5.919 6.123v8.799H57.793V68.196zM100.139 68.196h14.929l5.672 22.249 5.682-22.249h14.869v36.559h-9.275V76.883l-7.118 27.872h-8.377l-7.107-27.872v27.872h-9.275V68.196zM184.252 86.611c0 3.412-.854 6.59-2.557 9.536-1.705 2.945-4.027 5.267-6.971 6.964a18.78 18.78 0 0 1-9.529 2.546c-3.395 0-6.562-.851-9.506-2.546a18.726 18.726 0 0 1-6.971-6.964c-1.705-2.945-2.557-6.124-2.557-9.536 0-3.394.852-6.568 2.557-9.523 1.703-2.953 4.027-5.279 6.971-6.976s6.111-2.547 9.506-2.547c3.408 0 6.586.85 9.529 2.547s5.266 4.022 6.971 6.976c1.703 2.955 2.557 6.129 2.557 9.523zm-3.781 0c0-4.236-1.496-7.854-4.486-10.854-2.992-3-6.6-4.5-10.822-4.5-4.225 0-7.832 1.5-10.822 4.5-2.992 3-4.486 6.617-4.486 10.854 0 4.238 1.494 7.855 4.486 10.855 2.99 3 6.598 4.498 10.822 4.498 4.223 0 7.83-1.498 10.822-4.498 2.99-3 4.486-6.617 4.486-10.855zm-10.807 2.386l5.133 1.224c-.635 2.011-1.512 3.556-2.629 4.635-1.752 1.678-4.039 2.516-6.857 2.516-3.07 0-5.574-.986-7.51-2.958-1.936-1.973-2.904-4.584-2.904-7.832 0-3.081.994-5.625 2.986-7.631 1.988-2.006 4.482-3.01 7.477-3.01 2.426 0 4.465.642 6.121 1.923 1.654 1.283 2.701 2.939 3.137 4.971l-4.953.76c-.303-1.368-.852-2.385-1.648-3.052s-1.766-1-2.906-1c-1.309 0-2.406.557-3.297 1.669-.889 1.113-1.334 2.856-1.334 5.231 0 2.393.303 4.1.906 5.12.891 1.472 2.148 2.208 3.775 2.208 1.023 0 1.941-.374 2.756-1.124.812-.75 1.394-1.967 1.747-3.65zM92.012 120.767c0-1.567.437-2.729 1.31-3.482.729-.627 1.619-.94 2.667-.94 1.167 0 2.12.381 2.86 1.144s1.109 1.815 1.109 3.16c0 1.09-.164 1.946-.49 2.57a3.482 3.482 0 0 1-1.43 1.455 4.179 4.179 0 0 1-2.049.518c-1.188 0-2.147-.38-2.879-1.14-.732-.761-1.098-1.856-1.098-3.285zm66.109 0c0-1.567.438-2.729 1.311-3.482.729-.627 1.617-.94 2.666-.94 1.166 0 2.121.381 2.859 1.144.74.763 1.111 1.815 1.111 3.16 0 1.09-.164 1.946-.492 2.57a3.459 3.459 0 0 1-1.43 1.455 4.173 4.173 0 0 1-2.049.518c-1.188 0-2.146-.38-2.879-1.14s-1.097-1.856-1.097-3.285zm-19.111 1.474l1.477.203c-.236.87-.668 1.546-1.303 2.026-.633.48-1.441.72-2.424.72-1.24 0-2.225-.381-2.949-1.144-.727-.763-1.09-1.832-1.09-3.208 0-1.424.367-2.529 1.102-3.315s1.686-1.18 2.857-1.18c1.133 0 2.057.386 2.775 1.156.719.771 1.078 1.856 1.078 3.256 0 .085-.004.212-.008.383h-6.318c.053.932.316 1.645.791 2.14.475.494 1.064.741 1.773.741.527 0 .979-.141 1.35-.424.373-.282.67-.734.889-1.354zm-20.981-7.294v-1.643h1.439v1.643h-1.439zM11.092 125.011l-2.588-8.487h1.505l1.348 4.902.492 1.818c.021-.09.166-.673.435-1.747l1.355-4.974h1.458l1.278 4.931.414 1.614.492-1.638 1.487-4.907h1.397l-2.698 8.487h-1.474l-1.333-5.077-.348-1.452-1.714 6.529h-1.506v.001zm157.881 0v-8.487h1.283v1.194a3.016 3.016 0 0 1 1.064-.997c.441-.251.945-.377 1.512-.377.629 0 1.145.13 1.547.39.404.259.688.622.854 1.088.674-.985 1.551-1.478 2.633-1.478.846 0 1.496.232 1.951.698s.682 1.183.682 2.15v5.818h-1.439v-5.344c0-.575-.047-.989-.141-1.242-.094-.254-.264-.457-.51-.611s-.535-.232-.867-.232c-.6 0-1.096.199-1.492.596-.395.396-.594 1.032-.594 1.905v4.929h-1.439v-5.512c0-.64-.117-1.119-.352-1.438-.234-.32-.617-.48-1.15-.48-.404 0-.779.107-1.123.32-.342.213-.592.524-.746.935s-.232 1.001-.232 1.773v4.401h-1.441v.001zm-9.366-4.237c0 1.085.236 1.896.707 2.437a2.274 2.274 0 0 0 1.783.809c.713 0 1.305-.271 1.775-.812.473-.543.709-1.369.709-2.48 0-1.048-.238-1.841-.713-2.381-.475-.539-1.064-.81-1.771-.81-.715 0-1.311.27-1.783.806-.47.536-.707 1.347-.707 2.431zm-4.824 1.129l1.418.203c-.152.965-.547 1.72-1.182 2.266-.633.546-1.412.818-2.336.818-1.156 0-2.086-.378-2.789-1.136-.703-.757-1.055-1.842-1.055-3.256 0-.913.152-1.714.455-2.399.303-.685.762-1.199 1.381-1.542a4.082 4.082 0 0 1 2.018-.514c.918 0 1.668.234 2.252.703.584.47.957 1.135 1.121 1.998l-1.395.202c-.133-.574-.367-1.008-.703-1.298-.334-.29-.74-.435-1.217-.435-.719 0-1.303.26-1.752.779s-.674 1.341-.674 2.465c0 1.141.217 1.97.648 2.486.434.517.998.774 1.695.774.559 0 1.025-.172 1.4-.519.377-.343.616-.875.715-1.595zm-10.873 3.108v-1.644h1.643v1.644h-1.643zm-9.613-5.043h4.727c-.062-.719-.244-1.258-.541-1.617-.457-.558-1.049-.836-1.777-.836-.66 0-1.213.222-1.662.667s-.7 1.041-.747 1.786zm-11.414 5.043v-8.487h1.307v1.205c.621-.923 1.518-1.385 2.691-1.385.51 0 .979.092 1.406.275.426.184.746.425.959.723s.361.651.445 1.061c.055.266.08.732.08 1.396v5.212h-1.441v-5.16c0-.586-.055-1.024-.166-1.314s-.309-.521-.594-.695a1.886 1.886 0 0 0-1-.26c-.611 0-1.139.195-1.582.584s-.664 1.126-.664 2.213v4.633h-1.441v-.001zm-4.854 0v-8.487h1.439v8.487h-1.439zm-4.9 0v-11.706h1.441v11.706h-1.441zm-10.266 0v-8.487h1.307v1.205c.621-.923 1.518-1.385 2.691-1.385.51 0 .979.092 1.404.275.428.184.748.425.961.723s.361.651.445 1.061c.053.266.08.732.08 1.396v5.212h-1.441v-5.16c0-.586-.055-1.024-.166-1.314s-.311-.521-.594-.695a1.886 1.886 0 0 0-1-.26c-.611 0-1.139.195-1.582.584s-.664 1.126-.664 2.213v4.633h-1.441v-.001zm-9.364-4.237c0 1.085.236 1.896.708 2.437a2.27 2.27 0 0 0 1.783.809c.711 0 1.303-.271 1.776-.812.471-.543.707-1.369.707-2.48 0-1.048-.236-1.841-.711-2.381-.477-.539-1.066-.81-1.772-.81-.716 0-1.311.27-1.783.806-.473.536-.708 1.347-.708 2.431zm-15.78 4.237v-8.487h1.283v1.194a3.024 3.024 0 0 1 1.064-.997 3.013 3.013 0 0 1 1.512-.377c.629 0 1.146.13 1.548.39.402.259.687.622.852 1.088.674-.985 1.552-1.478 2.633-1.478.846 0 1.496.232 1.951.698s.683 1.183.683 2.15v5.818h-1.441v-5.344c0-.575-.047-.989-.14-1.242-.094-.254-.264-.457-.51-.611s-.535-.232-.866-.232c-.6 0-1.097.199-1.492.596-.396.396-.594 1.032-.594 1.905v4.929h-1.44v-5.512c0-.64-.118-1.119-.352-1.438-.234-.32-.618-.48-1.15-.48-.404 0-.779.107-1.122.32s-.592.524-.747.935c-.154.41-.231 1.001-.231 1.773v4.401h-1.441v.001zm-9.393 0v-11.706h1.441v6.65l3.385-3.432h1.855l-3.225 3.149 3.563 5.338h-1.771l-2.814-4.34-.993.971v3.369h-1.441v.001zm-14.833 0v-8.487h1.283v1.194a3.024 3.024 0 0 1 1.064-.997 3.01 3.01 0 0 1 1.512-.377c.629 0 1.145.13 1.548.39.402.259.687.622.852 1.088.674-.985 1.552-1.478 2.633-1.478.846 0 1.496.232 1.951.698.455.466.682 1.183.682 2.15v5.818h-1.44v-5.344c0-.575-.047-.989-.141-1.242-.094-.254-.263-.457-.509-.611s-.535-.232-.866-.232c-.6 0-1.097.199-1.493.596-.396.396-.593 1.032-.593 1.905v4.929h-1.441v-5.512c0-.64-.117-1.119-.351-1.438-.234-.32-.618-.48-1.15-.48a2.09 2.09 0 0 0-1.122.32 1.81 1.81 0 0 0-.747.935c-.154.41-.231 1.001-.231 1.773v4.401h-1.441v.001zm-5.359 0v-1.644h1.644v1.644h-1.644zm-10.997 0l-2.588-8.487h1.505l1.348 4.902.492 1.818c.021-.09.166-.673.435-1.747l1.355-4.974h1.458l1.278 4.931.413 1.614.493-1.638 1.487-4.907h1.397l-2.698 8.487h-1.473l-1.333-5.077-.348-1.452-1.714 6.529h-1.507v.001zm-13.023 0l-2.587-8.487h1.505l1.349 4.902.492 1.818c.021-.09.166-.673.435-1.747l1.354-4.974h1.458l1.278 4.931.414 1.614.492-1.638 1.487-4.907h1.397l-2.698 8.487h-1.474l-1.333-5.077-.349-1.452-1.714 6.529h-1.506v.001z"/></g></svg>