<svg xmlns="http://www.w3.org/2000/svg" width="2500" height="2500" viewBox="0 0 192.756 192.756"><g fill-rule="evenodd" clip-rule="evenodd"><path fill="#fff" d="M0 0h192.756v192.756H0V0z"/><path fill="#76787a" d="M22.616 89.063h-6.359v-6.356h6.359v6.356zM29.61 89.063h-6.36v-6.356h6.36v6.356zM36.603 89.063h-6.357v-6.356h6.357v6.356zM43.599 89.063h-6.36v-6.356h6.36v6.356zM50.593 89.063h-6.358v-6.356h6.358v6.356zM50.593 96.06h-6.358V89.7h6.358v6.36zM50.593 103.054h-6.358v-6.359h6.358v6.359zM50.593 110.05h-6.358v-6.361h6.358v6.361zM36.603 96.06h-6.357V89.7h6.357v6.36zM36.603 103.054h-6.357v-6.359h6.357v6.359zM22.616 96.06h-6.359V89.7h6.359v6.36zM22.616 103.054h-6.359v-6.359h6.359v6.359zM22.616 110.05h-6.359v-6.361h6.359v6.361zM64.583 89.063h-6.36v-6.356h6.36v6.356zM71.577 89.063h-6.358v-6.356h6.358v6.356zM78.574 89.063h-6.361v-6.356h6.361v6.356zM85.567 89.063h-6.358v-6.356h6.358v6.356zM92.562 89.063h-6.356v-6.356h6.356v6.356z"/><path fill="#59595b" d="M106.551 89.063h-6.36v-6.356h6.36v6.356zM113.547 89.063h-6.359v-6.356h6.359v6.356zM120.543 96.06h-6.359V89.7h6.359v6.36zM120.543 103.054h-6.359v-6.359h6.359v6.359zM120.543 110.05h-6.359v-6.361h6.359v6.361zM113.547 103.054h-6.359v-6.359h6.359v6.359zM106.551 96.06h-6.36V89.7h6.36v6.36zM106.551 103.054h-6.36v-6.359h6.36v6.359zM106.551 110.05h-6.36v-6.361h6.36v6.361zM134.529 89.063h-6.357v-6.356h6.357v6.356zM141.525 89.063h-6.359v-6.356h6.359v6.356zM148.52 89.063h-6.356v-6.356h6.356v6.356zM148.52 96.06h-6.356V89.7h6.356v6.36zM141.525 103.054h-6.359v-6.359h6.359v6.359zM148.52 110.05h-6.356v-6.361h6.356v6.361zM162.508 89.063h-6.36v-6.356h6.36v6.356zM169.502 89.063h-6.356v-6.356h6.356v6.356zM169.502 96.06h-6.356V89.7h6.356v6.36zM169.502 103.054h-6.356v-6.359h6.356v6.359zM169.502 110.05h-6.356v-6.361h6.356v6.361zM176.498 89.063h-6.359v-6.356h6.359v6.356zM134.529 96.06h-6.357V89.7h6.357v6.36zM134.529 103.054h-6.357v-6.359h6.357v6.359zM134.529 110.05h-6.357v-6.361h6.357v6.361z"/><path fill="#76787a" d="M92.562 96.06h-6.356V89.7h6.356v6.36zM92.562 103.054h-6.356v-6.359h6.356v6.359zM92.562 110.05h-6.356v-6.361h6.356v6.361zM78.574 96.06h-6.361V89.7h6.361v6.36zM78.574 103.054h-6.361v-6.359h6.361v6.359zM64.583 96.06h-6.36V89.7h6.36v6.36zM64.583 103.054h-6.36v-6.359h6.36v6.359zM64.583 110.05h-6.36v-6.361h6.36v6.361z"/></g></svg>