<svg xmlns="http://www.w3.org/2000/svg" width="2500" height="2500" viewBox="0 0 192.756 192.756"><g fill-rule="evenodd" clip-rule="evenodd"><path fill="#fff" d="M0 0h192.756v192.756H0V0z"/><path d="M175.447 67.376l14.475 1.476-51.199 21.116s-5.279 2.668-15.383-1.306l52.107-21.286z" fill="#236bb3"/><path d="M115.734 83.042s3.234 3.689 5.846 4.711l51.029-20.604-14.305-1.589-42.57 17.482z" fill="#cc2229"/><path d="M141.221 63.8l13.736 1.419L114.77 81.68s-2.045-2.384-3.35-5.733L141.221 63.8z" fill="#22a795"/><path d="M108.355 71.179s2.043 16.801 20.15 20.434l-22.592-2.271c.001.001-.282-10.216 2.442-18.163z" fill="#22a795"/><path d="M100.408 69.476l6.982.568s-5.904 13.736-.795 32.979c0 0-3.123-5.848-8.742-11.523.001 0-.396-14.929 2.555-22.024z" fill="#236bb3"/><path d="M91.894 68.738l6.924.625s-2.667 4.484-2.781 20.377c0 0-2.497-2.781-6.698-5.563 0 0 .398-8.23 2.555-15.439z" fill="#cc2229"/><path d="M90.304 68.625S88.375 74.869 87.75 83.1c0 0-4.711-2.895-6.414-3.576 0 0 .34-6.244 2.043-11.466l6.925.567zM16.855 121.98l-14.021-1.588 38.825-15.781s10.614-3.52 14.247-13.168c.422-1.114 2.441-5.166 1.533-13.056l6.981.738s1.93 10.671-5.96 21.229c-.716.957-6.187 7.436-11.976 9.535L16.855 121.98z" fill="#22a795"/><path d="M34.792 123.57l-13.964-1.305 25.998-10.842s11.92-3.689 17.482-17.824c.362-.923 2.724-7.039 1.76-14.361l6.698.624s2.1 11.75-6.414 23.783c-.699.986-3.973 7.607-14.985 13.111-1.118.56-16.575 6.814-16.575 6.814z" fill="#cc2229"/><path d="M74.638 80.091l6.812.681s1.454 14.119-8.401 28.154c-.918 1.301-10.104 12.771-20.661 16.234l-13.736-1.42 14.928-6.64s9.366-4.598 14.815-13.51c.422-.695 7.662-11.012 6.243-23.499z" fill="#236bb3"/><path d="M82.699 82.134s12.431 5.279 22.42 21.795l-26.451-2.951c0 .001 3.86-6.526 4.031-18.844z" fill="#22a795"/><path d="M80.087 110.926h3.86l3.519 8.869 3.435-8.869h3.888v17.893h-3.49v-9.562l-3.406 9.082s-.34.709-.766-.027l-3.746-9.254v9.762h-3.292v-17.894h-.002zM109.035 116.117l.004 7.424c-.17 4.514-4.371 5.447-5.707 5.393-5.648-.227-5.791-5.705-5.791-5.705v-6.23c.426-5.988 5.193-6.119 5.705-6.102 5.649.197 5.789 5.22 5.789 5.22zm2.838-5.191h3.691l3.234 5.578v-5.578h3.434v17.895h-.482l-6.498-11.494v11.494h-3.379v-17.895zm-6.271 5.73s.111-2.408-2.27-2.469c-1.732-.043-2.242 1.59-2.242 2.441v6.629s-.029 2.352 2.299 2.328c2.277-.029 2.213-2.045 2.213-2.414v-6.515zM124.277 110.926h9.422v3.193h-3.179v14.701h-3.491v-14.701h-2.752v-3.193zM135.629 110.92h7.209s4.193.588 4.256 5.186c.059 4.172-3.773 5.279-3.773 5.279l3.463 7.439h-3.52l-4.342-9.143v9.139h-3.293v-17.9zm13.85.021h8.629v3.291h-5.166v4.002h5.166v3.123h-5.166v4.143h5.166v3.34h-8.629v-17.899zm-10.557 3.178v4.002h3.291s1.477-.199 1.447-2.016c-.027-1.816-1.674-1.986-1.674-1.986h-3.064zM160.859 110.928h3.52v12.039s-.09 2.668 2.242 2.668c2.639 0 2.326-2.697 2.326-2.697v-12.01h3.436v12.805s-.143 4.967-5.705 5.223c-.434.021-5.562 0-5.818-6.217v-11.811h-.001zM174.908 110.928h3.321v17.922h-3.321v-17.922zM181.266 110.928h3.377v14.486h4.511v3.436h-7.888v-17.922z"/></g></svg>