<svg xmlns="http://www.w3.org/2000/svg" width="2500" height="2500" viewBox="0 0 192.756 192.756"><g fill-rule="evenodd" clip-rule="evenodd"><path fill="#fff" d="M0 0h192.756v192.756H0V0z"/><path d="M8.504 59.836h14.915l5.701 17.195h.095l5.51-17.195h14.629v35.91h-10.26V70.382h-.095l-8.027 25.364h-6.127l-8.36-25.364h-.095v25.364H8.504v-35.91z"/><path d="M62.084 80.499L49.069 59.836h11.638l7.505 12.208 7.172-12.208h9.311l-12.35 19.808v16.102H62.084V80.499zM104.408 69.764c-1.996-2.28-4.371-3.183-7.506-3.183-2.565 0-4.323.903-4.323 2.566 0 5.794 19.712.664 19.712 15.294 0 5.938-4.75 11.97-15.246 11.97-6.414 0-12.065-1.52-15.866-6.982l6.175-4.798c2.232 2.755 5.367 4.371 9.024 4.371 4.039 0 5.652-1.567 5.652-3.136 0-5.462-19.427-1.282-19.427-14.868 0-7.029 5.843-11.827 14.44-11.827 5.035 0 10.164 1.519 13.348 5.652l-5.983 4.941z"/><path d="M119.891 66.961h-9.879v-7.125h30.019v7.125h-9.879v28.785h-10.261V66.961zM140.648 95.746V59.835h10.26v35.911h-10.26zM174.324 72.519c-.332-3.23-2.043-6.223-5.463-6.223-3.99 0-5.984 3.372-5.984 11.115 0 8.028 1.805 11.875 6.936 11.875 3.705 0 6.031-3.325 6.744-6.697l7.695 1.663c-2.422 8.501-7.695 12.159-16.436 12.159-6.934 0-15.77-5.415-15.77-18.335 0-13.205 8.551-18.904 17.242-18.904 8.979 0 13.918 6.08 14.631 12.635l-9.595.712zM25.793 97.676h17.195c11.97 0 14.297 5.699 14.297 10.354 0 4.466-2.802 7.457-6.792 9.024l6.698 16.53h-11.4l-5.082-14.726h-4.656v14.726h-10.26V97.676zm10.26 14.345h5.321c2.945 0 5.082-1.283 5.082-3.609 0-2.281-1.472-3.896-4.655-3.896h-5.747v7.505h-.001zM59.186 133.585v-35.91h10.26v35.91h-10.26zM69.54 97.676h10.593l8.075 23.464h.095l8.028-23.464h8.644L92.15 133.585h-9.927L69.54 97.676z"/><path d="M104.311 97.676h27.027v7.409H114.57v6.508h10.735v7.41H114.57v6.888h17.291v7.694h-27.55V97.676zM133.713 97.676h17.195c11.969 0 14.297 5.699 14.297 10.354 0 4.466-2.803 7.457-6.793 9.024l6.699 16.53h-11.4l-5.084-14.726h-4.654v14.726h-10.26V97.676zm10.26 14.345h5.32c2.943 0 5.082-1.283 5.082-3.609 0-2.281-1.473-3.896-4.654-3.896h-5.748v7.505z"/></g></svg>