<svg xmlns="http://www.w3.org/2000/svg" width="2500" height="2500" viewBox="0 0 192.756 192.756"><path fill-rule="evenodd" clip-rule="evenodd" fill="#fff" d="M0 0h192.756v192.756H0V0z"/><path d="M86.188 96.668c-2.736-.289-6.481-1.305-8.282-.725-1.873.508 1.8 2.029 1.081 2.826-.721.871-4.537-1.449-3.169 1.812 1.44 3.334 6.049 5.943 9.65 7.393m.144-12.031c-6.481-9.061 2.232-8.625 9.002-9.568" fill="none" stroke="#33348e" stroke-width=".607" stroke-linecap="round" stroke-linejoin="round" stroke-miterlimit="2.613"/><path d="M82.875 116.529l-2.953-5.002-7.777-.072c3.241-1.957 6.481-3.986 9.722-5.943 2.809-10.511 2.448-12.468 9.146-18.702 5.904-5.799 13.54-6.378 21.821-4.711 1.008.217-1.801 1.16-1.225 2.03.432.797 3.025.217 2.449.942-4.178 5.219-10.516 11.525-15.771 15.512-5.042 2.9-9.723 5.51-13.972 8.408-1.151 3.48.289 10.509-1.44 7.538z" fill-rule="evenodd" clip-rule="evenodd" fill="#fff" stroke="#33348e" stroke-width=".601" stroke-linecap="round" stroke-linejoin="round" stroke-miterlimit="2.613"/><path d="M93.029 84.491l.216-16.454h-9.578c.072.362.144.725.144 1.087 0 2.32-1.873 4.204-4.177 4.204-2.304 0-4.177-1.884-4.177-4.204 0-2.319 1.873-4.276 4.177-4.276h1.801c4.033-.072 8.065 0 12.099 0a4.335 4.335 0 0 1-1.656-3.407c0-2.319 1.872-4.204 4.177-4.204 2.303 0 4.176 1.885 4.176 4.204 0 1.378-.721 2.61-1.729 3.407h11.811l2.16.073c2.162.145 3.889 1.957 3.889 4.204 0 2.32-1.943 4.204-4.176 4.204-2.305 0-4.178-1.884-4.178-4.204 0-.362 0-.725.072-1.015h-8.857c.287 19.063.072 38.272.936 57.336.145 2.754 14.188-2.756 15.916-6.523l-.145-2.684c0-.941 7.777-8.48 9.434-10.799 0 0 1.01 13.844-1.656 17.25l-4.752.146c-7.562 7.684-10.082 7.828-18.508 10.074-2.16.146-2.449 2.465-3.745 3.625-1.224-1.16-1.944-3.479-4.177-3.625-7.633-3.623-12.674-2.898-19.156-12.758l-2.736.652c-3.817-.652-4.393-17.178-4.033-16.742 1.656 2.318 10.226 11.959 10.226 11.959l-1.08 2.174c6.914 5.799 8.714 5.945 16.708 7.756.072-6.596.144-13.119.288-19.715m19.443-38.562a1.45 1.45 0 1 1 0 2.899 1.45 1.45 0 0 1 0-2.899zm-16.132-7.538c.648 0 1.225.58 1.225 1.304 0 .725-.577 1.305-1.225 1.305-.721 0-1.296-.58-1.296-1.305 0-.724.575-1.304 1.296-1.304zm-16.347 7.538a1.45 1.45 0 0 1 0 2.899 1.45 1.45 0 0 1 0-2.899z" fill="none" stroke="#33348e" stroke-width=".607" stroke-linecap="round" stroke-linejoin="round" stroke-miterlimit="2.613"/><path d="M108.656 66.949c.793-2.972.072-3.262-.648-3.479-.719-.217-1.439-.072-2.088 2.755-.648 2.609-.145 3.261.648 3.479.721.217 1.44-.29 2.088-2.755z" fill-rule="evenodd" clip-rule="evenodd" fill="#fff" stroke="#33348e" stroke-width=".603" stroke-linecap="round" stroke-linejoin="round" stroke-miterlimit="2.613"/><path d="M106.137 65.935c.791-2.972.215-3.262-.576-3.479-.793-.146-1.441-.073-2.09 2.754-.646 2.537-.143 3.262.576 3.407.793.217 1.514-.29 2.09-2.682z" fill-rule="evenodd" clip-rule="evenodd" fill="#fff" stroke="#33348e" stroke-width=".603" stroke-linecap="round" stroke-linejoin="round" stroke-miterlimit="2.613"/><path d="M85.324 73.545l6.481.217 4.465-3.842v6.307c5.113 2.899 9.65 6.741 13.035 12.25 4.754 6.668 6.553 14.858 3.602 23.413-.289 1.014-1.945-1.305-2.953-.943-.865.219-.576 2.828-1.297 2.32-6.193-4.133-9.721-10.365-12.242-16.6-2.521-5.219-3.889-10.51-4.609-15.729-3.025-2.029-5.186-4.421-6.482-7.393z" fill-rule="evenodd" clip-rule="evenodd" fill="#fff" stroke="#33348e" stroke-width=".607" stroke-linecap="round" stroke-linejoin="round" stroke-miterlimit="2.613"/><path fill="none" stroke="#33348e" stroke-width="1.201" stroke-linecap="round" stroke-miterlimit="2.613" d="M94.253 79.271l2.954 4.495M99.295 87.825l2.088 3.987"/><path d="M110.744 106.236c.361 0 .721.289.721.652 0 .361-.359.652-.721.652-.432 0-.791-.291-.791-.652 0-.363.359-.652.791-.652z" fill-rule="evenodd" clip-rule="evenodd" fill="#33348e"/><path d="M125.148 103.191c1.943 1.16-.938-3.045-3.457-3.842 2.52-2.029 2.449-4.494 2.16-6.306-1.584 2.393-3.602 3.769-6.121 4.132-2.736 0-4.537-.436-7.633-.797-3.17-.291-7.635.652-11.379 1.957l-1.297 5.146-8.353 2.318-3.313 2.174c3.313 2.031 6.265 2.611 10.514 2.756 5.833.725 10.585-5.074 16.564-7.32 2.017-1.595 10.37-1.305 12.315-.218z" fill-rule="evenodd" clip-rule="evenodd" fill="#fff" stroke="#33348e" stroke-width=".607" stroke-linecap="round" stroke-linejoin="round" stroke-miterlimit="2.613"/><path fill="none" stroke="#33348e" stroke-width=".607" stroke-linecap="round" stroke-linejoin="round" stroke-miterlimit="2.613" d="M116.002 100.146l-7.922.364"/><path d="M103.4 101.67c-2.449 1.232-4.971 1.885-7.707 1.957" fill="none" stroke="#33348e" stroke-width=".603" stroke-linecap="round" stroke-linejoin="round" stroke-miterlimit="2.613"/><path d="M108.08 82.534c.432 0 .793.29.793.652 0 .363-.361.725-.793.725-.359 0-.719-.362-.719-.725s.36-.652.719-.652z" fill-rule="evenodd" clip-rule="evenodd" fill="#33348e"/><path fill="none" stroke="#33348e" stroke-width="1.201" stroke-linecap="round" stroke-miterlimit="2.613" d="M82.155 107.975l1.44-1.522"/><path d="M84.964 104.568c1.368-.869 2.016-2.246 2.521-3.406" fill="none" stroke="#33348e" stroke-width="1.214" stroke-linecap="round" stroke-miterlimit="2.613"/><path d="M93.822 90.217c.432 3.841-.937 4.276-3.529 7.103-1.008 2.9 2.665-3.551 5.977.652.504.725.647 1.449-.216 2.102-2.449 1.523-6.697 5.221-9.146 6.814.216.289 2.088-1.449 2.304-1.16 2.953-.725 5.978-1.449 8.93-2.174v-3.045c.001.001-4.32-10.219-4.32-10.292zM80.139 101.525c.432 0 .792.289.792.652 0 .361-.36.652-.792.652-.36 0-.72-.291-.72-.652-.001-.363.36-.652.72-.652z" fill-rule="evenodd" clip-rule="evenodd" fill="#33348e"/><path d="M101.672 68.254c3.455-4.204 2.736-5.219 1.584-6.161-1.152-.87-2.232-1.232-5.545 2.972-3.025 3.697-2.666 5.292-1.657 6.088 1.153.943 2.737.58 5.618-2.899z" fill-rule="evenodd" clip-rule="evenodd" fill="#fff" stroke="#33348e" stroke-width=".603" stroke-linecap="round" stroke-linejoin="round" stroke-miterlimit="2.613"/><path d="M96.342 38.825c45.296 0 82.24 25.877 82.24 57.554 0 31.676-36.943 57.553-82.24 57.553-45.226 0-82.169-25.877-82.169-57.553s36.944-57.554 82.169-57.554z" fill="none" stroke="#33348e" stroke-width="1.214" stroke-miterlimit="2.613"/><path d="M96.126 55.207c36.007 0 65.39 18.484 65.39 41.172 0 22.688-29.383 41.17-65.39 41.17-36.007 0-65.317-18.482-65.317-41.17 0-22.689 29.31-41.172 65.317-41.172z" fill="none" stroke="#33348e" stroke-width="1.34" stroke-miterlimit="2.613"/><path d="M28.432 83.331l.144-.217 2.592 1.812-2.521 8.191-.288-.145.145-.362c.072-.435.072-.797-.145-1.087-.144-.146-.504-.363-1.152-.508l-6.841-2.102c-.72-.217-1.152-.29-1.369-.145-.288.145-.504.362-.576.797l-.145.363-.288-.073 1.44-4.784.288.073c-.144.58-.216 1.015-.144 1.232 0 .29.072.435.216.58s.576.29 1.224.507l6.698 2.03c.432.145.72.217.864.145a.396.396 0 0 0 .36-.218c.072-.072.288-.507.432-1.16l.288-.797c.216-.797.36-1.377.36-1.74-.072-.362-.144-.725-.432-1.087-.213-.363-.574-.798-1.15-1.305zM32.897 75.067l-2.592 3.407.936 1.667c.216.363.432.653.648.798.144.072.288.145.504.072.144-.072.432-.29.792-.725l.288.217-2.16 2.754-.216-.145c.216-.436.288-.725.288-.942-.072-.362-.288-.942-.72-1.667l-4.969-8.553.144-.29 9.794 2.465c.721.217 1.296.29 1.657.217.288-.073.648-.29.936-.58l.216.145-2.664 3.479-.216-.146c.216-.362.36-.652.36-.869 0-.218-.072-.363-.216-.436-.216-.145-.576-.29-1.152-.435l-1.658-.433zm-.648-.217l-4.681-1.16 2.376 4.204 2.305-3.044zM43.916 54.989l.144.29c-.288.29-.432.58-.504.797-.072.362-.072.87.072 1.449l2.232 9.931-.216.145-8.93-5.437c-.504-.29-.792-.435-.936-.435-.145-.072-.36-.072-.576-.072a3.47 3.47 0 0 0-.792.29l-.216-.218 3.745-2.609.216.29c-.432.29-.647.58-.72.798 0 .145 0 .362.144.507.144.217.504.507 1.008.797l6.049 3.697-1.512-6.741c-.145-.652-.288-1.087-.433-1.305-.144-.072-.288-.217-.504-.217s-.432.072-.792.217c-.072 0-.072 0-.145.073l-.144-.29 2.81-1.957zM49.028 53.105l1.873 3.914 2.232-1.087c.576-.217.936-.507 1.008-.797.144-.362.072-.797-.144-1.377l.288-.145 1.656 3.479-.216.145c-.36-.435-.577-.725-.721-.87a1.342 1.342 0 0 0-.576-.146c-.288 0-.648.073-1.008.291l-2.232 1.087 1.584 3.262c.216.435.432.652.504.725.072.072.144.145.288.145.145 0 .36-.072.648-.145l1.656-.87c.576-.29.937-.507 1.152-.725.216-.145.432-.435.576-.797.144-.435.216-1.087.216-1.812l.288-.145.36 2.899-7.706 3.769-.144-.29.36-.217c.289-.073.432-.217.576-.435.144-.145.216-.362.144-.507 0-.218-.144-.508-.36-1.016l-3.169-6.451c-.288-.652-.576-1.015-.792-1.087-.216-.072-.576-.072-1.008.145l-.36.145-.144-.217 7.777-3.77 1.152 2.102-.288.145c-.36-.435-.648-.725-.864-.87s-.504-.217-.792-.217c-.216.072-.576.145-1.08.435l-2.734 1.305zM66.096 45.784l1.369 3.479-.288.072c-.648-.942-1.368-1.595-2.088-1.885-.72-.29-1.513-.29-2.376-.072-.721.217-1.296.652-1.801 1.16-.432.507-.72 1.232-.792 2.102-.072.87.072 1.885.432 3.044.288.943.648 1.74 1.224 2.32.504.652 1.152 1.015 1.873 1.232.72.145 1.512.145 2.304-.073.721-.217 1.225-.579 1.729-1.015.432-.435.792-1.232 1.152-2.247l.288.073c-.216 1.087-.648 1.957-1.224 2.61-.577.652-1.369 1.159-2.305 1.449-1.8.507-3.385.29-4.753-.725-1.008-.724-1.728-1.812-2.088-3.117a5.77 5.77 0 0 1-.216-3.117c.216-1.015.648-1.884 1.369-2.61a5.393 5.393 0 0 1 2.521-1.594 5.481 5.481 0 0 1 2.448-.145c.216.072.432.072.504.072.145-.072.216-.145.36-.29.072-.145.072-.362.072-.652l.286-.071zM78.194 43.174l1.008 3.624-.288.073c-.504-1.087-1.152-1.74-1.873-2.102s-1.512-.508-2.376-.29c-.72.072-1.296.435-1.872.87-.504.507-.864 1.159-1.009 2.029-.216.87-.144 1.885.072 3.117.216.942.504 1.739 1.008 2.464.432.652 1.008 1.087 1.728 1.377.721.217 1.44.29 2.305.145a4.551 4.551 0 0 0 1.8-.798c.432-.435.936-1.159 1.44-2.174l.288.145c-.36 1.015-.864 1.885-1.512 2.465-.648.58-1.513.942-2.521 1.16-1.801.362-3.313-.073-4.609-1.16-.936-.87-1.512-1.957-1.8-3.334-.145-1.087-.145-2.102.216-3.117.288-1.014.792-1.812 1.584-2.464.721-.652 1.657-1.087 2.665-1.305.792-.145 1.584-.145 2.448.145a1.6 1.6 0 0 0 .504.073c.144-.073.289-.146.36-.218.144-.217.144-.435.144-.652l.29-.073zM84.532 47.668l5.185-.362-.217-3.117c-.072-.58-.144-.942-.216-1.087-.072-.146-.144-.29-.36-.362-.216-.073-.504-.146-.72-.146l-.432.073v-.363l4.752-.29v.29h-.36a3.567 3.567 0 0 0-.792.29c-.144.073-.216.218-.288.362-.072.218-.072.58 0 1.087l.504 7.104c0 .58.072.942.144 1.159.072.073.216.218.36.29.288.145.504.145.792.145h.36l.072.29-4.753.29-.072-.29h.432c.433-.072.72-.217.937-.507.144-.145.144-.58.144-1.232l-.288-3.334-5.112.362.216 3.334c.072.58.072.942.216 1.087.072.145.144.218.36.363.216.072.504.145.72.145l.432-.072v.29l-4.752.362v-.29l.36-.072c.504 0 .792-.145 1.008-.435.072-.217.144-.58.072-1.305l-.504-7.104c0-.507-.072-.942-.144-1.087-.072-.145-.216-.217-.36-.29-.288-.145-.504-.218-.792-.145h-.36l-.072-.29 4.753-.362.072.29-.432.072a1.21 1.21 0 0 0-.72.217.74.74 0 0 0-.36.435v1.087l.215 3.118zM98.719 52.815v.29l-4.825.072v-.29h.432c.432-.072.792-.145 1.008-.435.072-.217.145-.58.145-1.304l-.145-7.104c0-.58-.072-.942-.144-1.087 0-.145-.145-.29-.288-.362-.288-.145-.504-.217-.792-.145h-.36v-.363l4.752-.072v.29l-.432.073c-.432 0-.791.145-.936.363-.145.217-.217.652-.217 1.304l.145 7.104c0 .58.072.942.145 1.087 0 .145.143.29.287.362.289.145.504.218.793.218h.432v-.001zM107.072 49.843l-4.32-.29-.865 1.667c-.215.435-.359.725-.359.942 0 .217.072.362.217.507.143.072.504.217 1.008.29v.29l-3.529-.217v-.29c.504-.072.793-.145.936-.29.289-.217.648-.725 1.08-1.522l4.537-8.771h.289l3.24 9.423c.217.797.504 1.305.721 1.522.215.217.576.362 1.008.435v.29l-4.393-.29v-.29c.504 0 .791-.072.936-.145.145-.145.289-.29.289-.508 0-.217-.072-.58-.289-1.087l-.506-1.666zm-.217-.58l-1.584-4.64-2.232 4.35 3.816.29zM121.26 56.221l-2.09-10.002-1.656 7.176c-.215.652-.215 1.087-.072 1.305.145.217.434.435.793.507l.432.073-.072.29-3.816-.797.072-.362.432.145c.434.073.793 0 1.08-.217.145-.145.289-.507.434-1.087l1.656-7.031c.072-.507.072-.87.072-1.087-.072-.145-.145-.362-.361-.508-.143-.145-.504-.29-.936-.362l.072-.29 3.096.725 1.945 9.278 5.832-7.539 3.098.725-.072.29-.359-.072c-.506-.145-.865-.072-1.08.217-.145.145-.289.507-.434 1.087l-1.656 7.031c-.145.652-.145 1.087-.072 1.305.145.29.434.435.865.507l.359.146-.072.29-4.607-1.087.07-.29.434.072c.432.145.791.073 1.008-.145.215-.145.359-.508.504-1.16l1.656-7.176-6.338 8.119-.217-.076zM137.535 57.961l-3.961-1.74-1.369 1.377c-.359.29-.576.58-.648.725a.448.448 0 0 0 .072.507c.072.217.361.435.865.652l-.145.29-3.24-1.377.143-.29c.434.146.793.146.938.073.359-.145.863-.507 1.512-1.087l7.129-6.886.289.145-.072 9.931c0 .797.072 1.377.217 1.667.215.29.432.58.863.725l-.145.29-4.033-1.667.145-.29c.432.145.721.218.938.145.143-.072.287-.145.359-.362.072-.218.145-.58.145-1.161v-1.667h-.002zm0-.652l.072-4.856-3.529 3.334 3.457 1.522zM149.777 69.196l-2.521-1.595-.432-6.378c-.217-.145-.432-.218-.576-.362-.072 0-.145-.072-.215-.072-.072-.073-.145-.146-.217-.146l-1.729 2.682c-.359.58-.504 1.015-.432 1.232 0 .29.215.58.576.797l.359.217-.145.29-4.031-2.537.143-.217.361.217c.359.218.719.29 1.08.145.215-.072.432-.435.791-.942l3.816-6.089c.361-.58.504-.942.504-1.16-.07-.363-.287-.58-.646-.87l-.361-.218.217-.217 3.385 2.102c1.008.652 1.729 1.16 2.088 1.595.432.435.648 1.015.721 1.595.072.58 0 1.16-.359 1.667-.361.58-.865.942-1.514 1.16s-1.439.145-2.305-.217l.217 3.914c.072.942.217 1.522.359 1.957.217.435.576.798 1.008 1.16l-.142.29zm-3.673-8.988c.072.072.145.072.217.145.072 0 .145.073.145.073.936.58 1.729.797 2.447.725.721-.145 1.225-.507 1.586-1.087.359-.58.504-1.159.359-1.739-.145-.652-.504-1.087-1.08-1.45-.289-.218-.721-.362-1.225-.58l-2.449 3.913zM153.666 72.386l-.217.217-3.6-3.117.215-.217.289.217c.359.291.648.435 1.008.363.217-.073.504-.291.936-.798l4.754-5.437c.359-.362.576-.725.648-.87s.072-.29 0-.507l-.434-.652-.287-.218.145-.217 3.6 3.117-.143.217-.361-.29c-.287-.29-.648-.435-1.008-.362-.217.072-.504.362-.936.87l-4.754 5.363c-.359.435-.576.725-.648.87a.622.622 0 0 0 0 .507c.145.29.289.507.434.652l.359.292zM163.027 65.862l1.729 2.392-2.736 10.366 5.186-3.77c.576-.362.863-.652.936-.87.072-.363-.072-.653-.287-1.015l-.217-.29.217-.218 2.303 3.117-.287.218-.217-.363c-.287-.362-.576-.507-.936-.507-.217 0-.576.145-1.08.507l-7.562 5.509-.215-.218 2.953-11.163-5.547 3.987c-.576.435-.863.725-.936.942-.072.29.072.652.289 1.015l.215.29-.215.145-2.305-3.116.287-.145.217.29c.287.435.576.58.936.58.217 0 .576-.218 1.08-.58l6.266-4.494c.145-.507.145-.797.145-1.015 0-.217 0-.507-.145-.797-.072-.146-.145-.363-.359-.653l.285-.144zM167.42 88.695l-1.152-4.132-1.943-.217c-.432-.072-.793-.072-1.008 0-.145.072-.289.145-.361.362s-.072.58.072 1.087l-.287.072-1.01-3.334.289-.072c.217.362.432.652.576.724.359.218.936.363 1.801.435l9.938 1.232.072.29-7.85 6.233c-.648.508-1.008.942-1.152 1.232s-.217.652-.072 1.087l-.287.073-1.225-4.205.287-.072c.145.435.289.725.432.797.217.145.361.145.506.145.287-.072.576-.29 1.008-.652l1.366-1.085zm.504-.362l3.818-3.045-4.826-.652 1.008 3.697zM52.917 142.406c.072 1.086.72 1.666 1.944 1.666 1.296 0 1.944-.58 1.944-1.594 0-.508-.145-.869-.576-1.088a3.597 3.597 0 0 0-1.152-.361c-.792-.217-1.152-.217-1.152-.725 0-.363.288-.58.792-.58.648 0 .937.289 1.009.725h.936c-.072-.943-.72-1.521-1.8-1.521-1.225 0-1.873.506-1.873 1.449 0 .508.144.941.504 1.16.36.145.72.217 1.081.361.864.145 1.296.289 1.296.725 0 .363-.288.58-.864.58-.648 0-1.008-.217-1.152-.797h-.937zM58.606 142.188h1.224c.936 0 1.44-.578 1.44-1.521 0-1.086-.504-1.594-1.512-1.594h-2.161v4.855h1.008v-1.74h.001zm0-.87v-1.377h1.008c.432 0 .648.217.648.652 0 .508-.216.725-.72.725h-.936zM62.063 143.928h3.601v-.869H63v-1.305h2.304v-.797H63v-1.016h2.52v-.869h-3.457v4.856zM70.633 142.262h-1.008c-.072.58-.504.869-1.08.869-.864 0-1.296-.58-1.296-1.594 0-1.088.432-1.74 1.296-1.74.648 0 1.008.361 1.08.869h1.008c-.072-1.086-.864-1.738-2.088-1.738-1.513 0-2.305.941-2.305 2.609 0 1.594.792 2.535 2.232 2.535 1.225 0 2.089-.724 2.161-1.81zM71.425 143.928h1.008v-4.856h-1.008v4.856zM74.666 139.072l-1.729 4.855h1.081l.288-1.014h1.873l.36 1.014h1.008l-1.728-4.855h-1.153zm.576.942l.648 2.104h-1.296l.648-2.104zM78.05 143.928h3.313v-.869h-2.304v-3.987H78.05v4.856zM81.939 143.928h1.008v-4.856h-1.008v4.856zM84.964 143.928h1.008v-3.987h1.441v-.869h-3.89v.869h1.441v3.987zM88.924 139.072l-1.729 4.855h1.081l.288-1.014h1.873l.288 1.014h1.08l-1.729-4.855h-1.152zm.576.942l.648 2.104h-1.296l.648-2.104zM95.406 139.072l-1.729 4.855h1.081l.288-1.014h1.872l.362 1.014h1.008l-1.729-4.855h-1.153zm.576.942l.648 2.104h-1.296l.648-2.104zM98.791 143.928h3.313v-.869h-2.305v-3.987h-1.008v4.856zM102.68 143.928h1.008v-4.856h-1.008v4.856zM104.695 143.928h.938v-3.914l1.008 3.914h1.007l.936-3.914v3.914h.937v-4.856h-1.441l-.935 3.698-.936-3.698h-1.514v4.856zM110.529 143.928h3.6v-.869h-2.592v-1.305h2.305v-.797h-2.305v-1.016h2.522v-.869h-3.53v4.856zM114.922 143.928h.935v-3.334l2.018 3.334h1.008v-4.856h-1.008v3.334l-1.945-3.334h-1.008v4.856zM120.898 143.928h.938v-3.987h1.439v-.869h-3.816v.869h1.439v3.987zM124.787 139.072l-1.656 4.855h1.01l.287-1.014h1.873l.359 1.014h1.008l-1.729-4.855h-1.152zm.576.942l.721 2.104h-1.369l.648-2.104zM128.172 143.928h1.01v-1.885h1.008c.576 0 .721.219.721.799l.07.506c0 .219 0 .436.072.58h1.08v-.145c-.143-.072-.143-.291-.143-.58l-.072-.508c0-.652-.145-.941-.576-1.086.432-.146.719-.58.719-1.16 0-.943-.504-1.377-1.512-1.377h-2.377v4.856zm1.01-2.754v-1.232h1.223c.434 0 .648.217.648.58 0 .508-.215.652-.721.652h-1.15zM132.998 143.928h1.008v-4.856h-1.008v4.856z" fill-rule="evenodd" clip-rule="evenodd" fill="#33348e"/></svg>