<svg xmlns="http://www.w3.org/2000/svg" width="2500" height="2500" viewBox="0 0 192.756 192.756"><g fill-rule="evenodd" clip-rule="evenodd"><path fill="#fff" d="M0 0h192.756v192.756H0V0z"/><path d="M14.249 77.984h10.129L20.75 99.301h-9.827l3.326-21.317zM10.318 102.477h9.978l-.302 2.418h8.315l-1.209 8.619H8.504l1.814-11.037zM140.338 79.798h9.223l-.909 6.048h-9.22l.906-6.048zM139.053 88.416h9.222l-1.664 11.188h-9.222l1.664-11.188zM136.936 102.477h9.222l-1.662 11.037h-9.223l1.663-11.037zM94.755 102.477h9.222l-1.663 11.037h-9.222l1.663-11.037zM38.362 102.477c-.078.713-.131 1.621-.051 2.438.11.996.497 1.793 1.442 1.793 1.244 0 1.995-1.096 2.425-2.389.243-.672.417-1.23.543-1.865l8.594-.023-1.751 11.113h-7.641l.449-2.213c-1.893 2.41-3.409 2.988-6.595 2.988-6.085 0-7.057-6.75-6.672-11.84l9.257-.002zM43.104 99.604a16.495 16.495 0 0 0-.032-1.451c-.089-1.145-.447-2.141-1.592-2.141-1.195 0-1.91 1.195-2.41 2.639-.072.225-.134.441-.415.951l-9.336-.008c1.239-5.322 4.028-11.547 10.105-11.673 1.659-.034 4.758.192 5.971 2.563l.265.052.392-2.143h7.488l-1.725 11.21h-8.711v.001zM54.087 99.604c-.557-1.113-.791-2.445-.569-4.031.758-5.426 4.838-8.181 10.961-8.181 2.639 0 4.473.62 6.582 1.914l-1.004 6.968c-1.531-1.281-4.304-1.962-5.947-1.962-.697 0-1.562.165-1.775.992-.31 1.201 1.035 1.863 2.671 2.439 1.353.479 2.503 1.072 3.421 1.85l-14.34.011zM70.518 102.502c.417 1.141.541 2.516.338 3.967-.829 5.924-5.912 8.152-11.338 8.152-3.584 0-5.092-.668-7.942-2.361l1.274-7.797c.971 1.244 4.26 3.229 6.461 3.117.846-.045 2.553-.625 2.685-1.572.132-.945-.274-1.643-2.397-2.316-.994-.316-1.938-.65-2.775-1.166l13.694-.024zM80.612 102.48c-.367 2.223-.451 5.713 1.575 5.961 1.305.158 2.666-.9 3.078-3.582h8.197c-1.429 8.426-6.366 9.955-12.241 9.912-6.4-.047-10.231-5.256-9.762-12.301l9.153.01zM166.639 99.604c1.203-6.606 4.42-12.002 13.621-12.212a7.77 7.77 0 0 1 3.992 1.007l-1.189 7.152c-3.65-1.481-5.637 1.426-6.338 4.062l-10.086-.009zM176.514 102.48c.246 1.646 1.193 3.182 3.039 3.182l2.008-.152-1.17 8.004c-1.426.377-2.785.604-4.631.578-7.025-.098-9.904-5.264-9.494-11.621l10.248.009zM124.621 102.48c-1.1 1.781-2.199 3.096-4.693 2.869l.432-2.877-9.713.006-1.756 11.035h9.828c8.131 0 13.713-3.559 16.451-11.059l-10.549.026zM120.725 99.609l1.924-12.403c3.932 0 4.838 3.024 4.082 8.466-.188 1.36-.453 2.798-.807 3.96l10.225.01c.369-1.531.533-3.23.713-5.028 1.359-13.607-6.049-16.631-13.457-16.631h-9.223l-1.283 9.676c-1.514.302-5.217.755-7.182 3.402-.379.377-.605.227-.529-.227l.377-2.419h-8.693l-1.663 11.188h9.223c.377-1.588 4.535-3.931 7.105-2.721l-.432 2.713 9.62.014zM148.729 99.604c-.557-1.113-.789-2.445-.568-4.031.758-5.426 4.838-8.181 10.961-8.181 2.639 0 4.473.62 6.582 1.914l-1.004 6.968c-1.533-1.281-4.305-1.962-5.947-1.962-.697 0-1.562.165-1.777.992-.309 1.201 1.037 1.863 2.672 2.439 1.354.479 2.504 1.072 3.422 1.85l-14.341.011zM165.16 102.502c.416 1.141.541 2.516.338 3.967-.828 5.924-5.912 8.152-11.338 8.152-3.584 0-5.092-.668-7.941-2.361l1.273-7.797c.971 1.244 4.26 3.229 6.461 3.117.846-.045 2.553-.625 2.686-1.572.131-.945-.275-1.643-2.398-2.316-.994-.316-1.938-.65-2.775-1.166l13.694-.024zM179.254 82.747h1.902v.28h-.793v2.063h-.316v-2.063h-.793v-.28zM183.379 85.09v-1.384c0-.069.008-.366.008-.584h-.008l-.658 1.968h-.314l-.658-1.965h-.008c0 .215.008.512.008.581v1.384h-.307v-2.343h.453l.668 1.981h.008l.666-1.981h.449v2.343h-.307zM84.315 87.392c-7.4.05-11.041 5.244-12.479 12.208l22.343.006c.248-3.231.131-6.361-.846-7.781-1.703-2.479-3.945-4.467-9.018-4.433zm.144 5.834c1.742 0 2.025 1.892 1.874 3.335h-4.53c.138-1.344 1.013-3.335 2.656-3.335z"/></g></svg>