<svg xmlns="http://www.w3.org/2000/svg" width="2500" height="2500" viewBox="0 0 192.756 192.756"><g fill-rule="evenodd" clip-rule="evenodd"><path fill="#fff" d="M0 0h192.756v192.756H0V0z"/><path d="M83.061 111.127L78.95 103.5v7.627h-2.801V95.636h9.615l4.644 9.571 5.837-9.571h9.435v15.491H95.126v-7.084l-4.183 7.084h-7.882zm-32.658-15.49h18.483a4.247 4.247 0 0 1 4.235 4.236v1.766H62.137v-2.395h-5.171v8.275h5.171v-2.395h10.985v1.768a4.247 4.247 0 0 1-4.235 4.234H50.403a4.248 4.248 0 0 1-4.236-4.234v-7.02a4.249 4.249 0 0 1 4.236-4.235zm60.978-14.008h13.018a2.992 2.992 0 0 1 2.984 2.983v1.244h-7.738V84.17h-3.643v5.829h3.643v-1.687h7.738v1.244a2.993 2.993 0 0 1-2.984 2.983h-13.018a2.992 2.992 0 0 1-2.984-2.983v-4.944a2.992 2.992 0 0 1 2.984-2.983zm-2.342 14.008h20.67v2.712h-9.926v3.594h9.926v2.877h-9.926v3.594h9.926v2.713h-20.67v-15.49zM30.876 81.629h14.079v1.91h-6.762v2.532h6.762v2.026h-6.762v2.532h6.762v1.91H30.876v-10.91zm101.632 14.008h11.107v6.304h4.68v-6.304h10.613v15.49h-10.705v-6.307h-4.682v6.307h-11.014v-15.49h.001zM47.205 81.629h7.572v4.44h3.19v-4.44h7.235v10.91h-7.298v-4.442h-3.19v4.442h-7.509v-10.91zm123.309 24.674h3.826l-1.82-5.125-2.006 5.125zm4.601 2.183h-5.457l-1.033 2.641h-8.283l6.064-15.49h12.223l5.623 15.49h-8.199l-.938-2.641zM155.48 89.141h2.607l-1.24-3.61-1.367 3.61zm3.135 1.538h-3.719l-.705 1.859h-5.645l4.135-10.91h8.33l3.832 10.91h-5.588l-.64-1.859zm-70.252-9.05h7.572v4.44h3.19v-4.44h7.234v10.91h-7.297v-4.442H95.87v4.442h-7.508v-10.91h.001zm-20.451 0h7.572v4.44l3.19-4.44h7.235v10.91h-7.298v-4.442l-3.19 4.442h-7.508v-10.91h-.001zm-53.182 0h13.531v10.91h-7.775V86.4l-2.712 6.139h-9.27l.744-1.817h1.761l3.721-9.093zm114.983 0h7.572c0 1.25-.008 2.499-.018 3.749l3.59-3.749h5.697l-4.479 4.676 5.531 6.234h-6.596l-3.768-4.248a501.285 501.285 0 0 0-.021 4.248h-7.51v-10.91h.002zm47.359 2.69v2.434h-1.246c-.631 0-1.145-.546-1.145-1.217 0-.67.514-1.217 1.145-1.217h1.246zm7.18-2.69v10.91h-7.18v-3.428l-3.461 3.428h-7.18l4.117-4.08c-1.652-.141-2.961-1.618-2.961-3.409 0-1.885 1.447-3.421 3.221-3.421h13.444z"/></g></svg>