<svg xmlns="http://www.w3.org/2000/svg" width="2500" height="2500" viewBox="0 0 192.756 192.756"><g fill-rule="evenodd" clip-rule="evenodd"><path fill="#fff" d="M0 0h192.756v192.756H0V0z"/><path d="M172.477 109.568v-1.029l.326.188.117.162.047.164v.164l-.094.141-.094.141-.302.069zm0-5.871v-3.25l.631.584.561.141.49.07.469.07.539.117.607-.07.561-.094.795-.117.725-.258.771-.232.609-.281.234-.047.092.023.047.094v.117l-.094.141-.771.936-.584.443-.701.396-1.264.68-.842.373-.701.234-.889.117-1.006-.117-.279-.07zm0-7.506V94.46h.092l.375-.141.352-.117.725-.375 1.121-1.005.211-.304v-.164l-.023-.14-.162-.141-.328-.07-.539.046-1.051.562-.771.912v-3.368l1.145-.444.982-.257 1.053-.14.865.046.654.234.445.491.045.935-.256 1.146-1.146 1.964-1.029 1.216-.842.538-.936.375-.982-.068zm8.113 2.268l.047.141.094.094.164.141.281-.023 1.074-.492.633-.373.607-.375.281-.141.654-.49 1.076-.725.889-.679 1.168-1.169 1.217-1.848.281-.889-.258-.935-1.24-1.824-1.332-2.175-1.17-2.198-.303-1.029.139-1.379 1.146-2.432 1.029-1.123.818-.655 1.029-1.099.912-1.403.094-.234-.141-.304-.258-.421-.373-.28-.445-.07-1.053-.07-.631.07-.328.164-.467.187-.725.328-.889.444-.492.281-1.123 1.099-.373.771-.164.584-.164.562-.186.936-.049 1.941.141 1.754.188.912.748 1.801 1.217 2.362.373.912.211.608.023.678-.279 1.029-1.193 2.152-1.379 2.011-1.146 1.8-.281.68-.047.209-.045.184zm-8.113-8.302v3.368l-.188.257-.211.281h-.094v.14l.07.234.023.047.398-.023v1.731l-.258-.023-.422-.047-.232.094-.164.303-.141.539-.07 1.098.725 1.777.562.516v3.25l-.281-.047-.422-.256-1.121-1.193-1.217-2.291-.352-.936-.188-.727-.045-.139.045-1.029.141-1.474.164-.795.164-.585.164-.538.701-1.473 1.217-1.356.514-.374.518-.329zm0 18.382l-.398-.234-1.076-.865-1.217-.936-.631-.398-.701-.42-1.217-.865-.889-1.264-.232-.936-.141-1.449-.094-1.426-.094-1.637-.07-1.545-.094-.631-.326-1.076-1.076-2.082-1.076-.795-.771-.28-.631-.234-1.1.023-.959.187-.42.141-.891.514-.537.328-.959.842-.818 1.076-.141.14-.023-.046-.094-.491-.094-.749-.117-1.005-.279-1.38-.352-.982-.279-.584-.328-.07-.443.023-.328.047-.07.117-.047.117.047.631.188 1.754.186 1.45.164 1.73.047 2.315-.117 1.965-.326 1.146-.07.303.07.188.232.094.844.49 1.027 1.451.281.209.188.047.281.023.42-.115.561-.445.234-.842.164-1.988.305-1.941 1.238-2.384 1.334-1.38.842-.585.467-.14h.398l.396.234.469.562.162.818.164 1.262.094 1.123.07.818.094.936v.795l.094.959.771 2.105 1.334 2.385 1.379 1.426 1.357 1.17.842.516.537.232.584.234.656.281.957.023h.049v-1.03h-.001zm-63.284-2.387v-10.92l.959-1.848.234-.374v-.117l-.047-.07V92.8l-.328.047-.701.21-.117.07V89.62l.234-.094.49-.117.865-.233.936-.117.631-.14.842-.094.982-.046.516.117.49.444.281.631.047.936-.281.982-1.146 2.385-1.379 2.127-1.355 2.199-1.146 2.596-.188.537.047.117v.047h.094l.352-.117.725-.209.537-.164.561-.141.982-.211.842-.094.539-.094.375-.068.561-.049.678-.115.398-.07.42-.117.678-.281.539-.35.141-.047.092.047.094.232.094.398-.047.748-.631.795-.818.561-.701.516-.889.725-1.006.748-1.076.609-.701.209-.234.141-.631.211-.818.188-.562.094-.631.092-.795.07h-.028v-.002zm0-22.356v-2.923l.865-.584 1.381-.795.91-.468.609-.397.889-.585.209-.141h.117v.211l-.094.164-.934.982-1.287 1.543-1.217 1.474-.91.935-.538.584zm9.987 10.758l.047.14.186.702.141.796.07.49.141.539.188.607.141.584.188.725.186.773.305.91 1.146 1.801.725.352h.537l.258-.117.164-.164.047-.164v-.162l-.094-.188-.516-.561-.537-.633.07-.771.42-1.613.047-1.941-.256-1.497-1.029-.936-.631-.28-.141-.07-.117-.093-.234-.047-.584-.07-.445-.187-.162-.023-.094.047-.094.187-.023.397-.05.467zm1.941-14.265h.092l.117.093.656.468.256.07.375.093.514-.117.656-.584.795-1.287.094-.421-.094-.234-.188-.187-.328-.164-.514-.023-1.24.655-.607.421-.398.375-.139.421-.047.421zm3.506 21.654l.072.375.256.889.398.818.936.818.584.211 1.146.209h.631l1.287-.021.654-.117.631-.117.305-.164.303-.141.656-.211 1.146-.561 1.262-.818 1.053-.912 1.262-1.66.375-.586.117-.162.047.023.094.42.232.959 1.1 1.801 1.1.982.514.258.445.047.303-.117.469-.328.281-.701.092-.818.07-.889.094-.771V99.09l.094-1.824.047-.771v-.443l.023-.655.281-1.286.514-1.123.562-.771.443-.234h.328l.303.234.258.421.234.678.164 1.052.186 1.403.164 1.169.164.818.164.701.188.678.162.795.164.914.188.934.281.842.607.68.305.139.303-.023.188-.068.094-.258.141-.865.094-1.076.07-1.426v-.912l-.023-.633-.047-.865-.164-.935-.164-.795-.164-.889-.164-.958-.162-.749-.258-1.006-.771-.888-1.053-.912-.771-.398-.725-.163-.982.07-.865.257-.492.257-.98.725-.771.771-.094.07-.023-.023-.68-1.684-.959-1.8-.209-.164-.164-.023-.398-.046-.42.117-.586.608-.256.725-.047.631.094 1.38.092 1.123.047.678-.047 1.216-.092 1.099-.094 1.099-.117.771-.234.678-1.168 1.941-1.357 1.24-1.309.865-.727.279-.584.164-.889.117-1.123.047-.701-.094-.537-.188-.492-.467-.328-.936v-.912l.188-.959.281-.748.305-.443.326-.164.959-.234.539-.141.748-.328 1.051-.98 1.053-1.801.164-.515-.047-.397-.631-.982-.889-.397-.514-.07-.469.07-.678.141-.912.374-.818.608-1.381 1.403-.957 1.8-.281.842-.211.586-.164.725-.162.959-.117.936-.049.936v.509h-.005zm-15.434-21.07v2.923l-.748.818-1.006.818-.514.374-.633.398-.748.444-.654.397-1.193.725-1.121.584-.912.491-.865.304-1.24.491-.795.281-.586.094-.42-.024-.701-.07-.398-.021-.515-.233-.444-.141-.187-.047h-.047l.047-.187.047-.164.14-.141.234-.234.398-.21.819-.491.865-.538.795-.538 1.215-.795 1.381-.818.959-.538.654-.351 1.123-.608.912-.444 1.355-.749 1.076-.678 1.238-.795.469-.327zm0 8.747l-.631.257-.422.07-.373.141-.656.233-.701.281-.607.234-.631.257-.352.14-.375.234-.162.117-.047.117-.047.14.047.21.256.515.842.515 1.006.234h1.193l1.006-.023.49-.094.164-.07V89.62zm0 5.612v10.92l-.396-.07-.609-.279-.982-.889-.467-1.146-.141-.865-.094-.631.047-.469.117-.537.164-.516.514-1.355.959-2.199.725-1.66.163-.304zm-17.212 6.524v-3.367l.07-.305.234-.654.889-1.543 1.356-1.403.866-.538.795-.257.654-.046.936.046.654.164.654.281.865.936.469 1.402-.117.725-.561.82-.701.537-.375.234-.281.117-.234.139-.42.141-1.379.211-.936-.258-.538-.467-.094-.117h-.117l-.187.141-.374.561-.468 1.566.047.75.631.91 1.45.82 1.333.094.889-.094.514-.047.562-.094.701-.234.49-.164.795-.303 1.1-.656.701-.607h.07v.047l.047.164-.117.631-.959 1.264-1.215 1.006-.982.537-1.264.584-.889.281-.841.117-.608.117-.701-.117-.866-.328-1.076-.701-1.005-1.496-.467-1.547zm0-6.43l.07-.679.187-1.496-.14-1.356-.117-.257v3.788zm0-3.789v3.789l-.093.678-.211.936-.771 2.15-1.31 2.27-1.356 1.496-1.24 1.169-.211.211-.116.021-.164.117-.585.445-.701.631-.351.211-.374.047-.257.07-.14.07v.188l.046.373.188 1.287.141 1.215.093.842.093 1.123.187 1.217.14.912.141 1.309-.047 1.404-.234.631-.327.234-.304.047-.304-.188-.07-.141v-15.527l.023.232v.188h.047l.397-.607.631-.516.141-.023v.023l.047.281-.234.982-.094.396.047.117v.023l.14-.047.421-.209.866-.609.818-.795 1.216-1.543 1.216-2.082.328-.912.164-.725.187-.936.07-1.497-.047-.959-.117-.561-.188-.397-.07-.093-.21.047-.491.21-.889.538-1.216.982-1.309 1.497-1.006 2.409-.327 1.168-.164.75-.164.818-.164.818-.07.467V94.25l.117-.375.935-1.543.889-.958.397-.375.819-.608.889-.608 1.146-.584 1.263-.094.327.094.398.327.958 2.011zm0 6.852l-.093.281-.117.865-.047.795v.328l.047.396.21.701v-3.366zm-8.138-18.732v-.094l.023.023-.023.071zm0-.094v.094l-.07.21-.257.444-.795.725-.959.468-.958.491-.889.538-.702.397-.678.397-.538.234-.538.21-.584.21-.445.093-.538.07-.585.164-.795.233-.421.094v-4.373l.304-.047.912-.094.374-.093.515-.093.772-.07.561-.07 1.146-.094 1.379-.046.515-.117.655-.117.865-.07.654-.07.936.164.164.118zm0 14.687v5.963l-.023.141v.211l.023.211v15.527l-.304-.445-.679-1.73-.14-.771-.187-.701-.164-.725-.164-.842-.14-.959-.047-.865-.047-.584-.023-.094.023-1.824.047-1.637.187-2.152.164-1.52.164-1.053.187-.818.14-.889.188-.865.187-.842.14-.889.187-.795.164-.749.117-.304zm-9.752 12.861v-3.086l.14-.07.608-.398 1.193-1.168.257-.982-.164-.748-.187-1.029.257-.678.094-.398-.047-.094-.14-.07h-.257l-.468.117-.771.328-.515.42v-3.016l.304-.188 1.123-.491.818-.234 1.052-.023.819.233 1.099.958.21.305v.188l-.187.373-.631.889-.21.375v.188l.047.279.117 1.029-.023 1.498-.328 1.027-1.216 1.824-1.357 1.311-1.286 1.1-.351.231zm0-26.846v4.373l-.351.094-.538.117-.421.117v-4.467l.233-.023.726-.164.351-.047zm0 15.973v3.016l-.678.562-.631 1.145v-3.555l.959-.959.35-.209zm0 7.787v3.086l-.164.094-.257.117-.257.164-.631.117v-3.229l.421-.023.491-.139.397-.187zm-1.309-9.167v-.959l.374.14.375.351.117.187v.117l-.07.117-.327.047h-.469zm0-14.359v4.467l-.328.093-.491.141-.631.117-.538.117-.515.164-.655.164-.491.093-.492.094-.584.164-.726.233-.514.141v-4.864l.187-.047.397-.07.468-.094.468-.093.421-.093 1.076-.211.959-.187.655-.117.936-.141.398-.071zm0 13.4v.959h-.444l-.397-.07-.562-.047-.865.07-.795.187-.421.164-.398.234-.374.257-.842.515-.795.537-.07.07v-2.759l.561-.094 1.474-.21 1.075-.07.843-.07h.865l.444.093.421.117.28.117zm0 3.507v3.555l-.655 1.146-.21.607v.094l.023.701.117.422.234.326.374.117h.117v3.229h-.023l-1.099-.164-1.239-1.334-.772-1.684-.047-.186.047-.562.141-.936.14-.701.258-.654.936-1.707 1.379-1.988.279-.281zm-69.948 5.121l.023.094.678 1.707 1.146 1.545.959.701.818.211 1.356-.023.608-.117.678-.234 1.1-.912.397-.211.561-.023.912.07.398.117.819.352.608.279.888.141.655-.232.818-.586 1.31-1.168.889-.842 1.052-1.076 1.216-1.287.351-.256.327.115 1.239.889.842.609.702.912.21 1.238-.047 1.498-.749 2.033-1.38 2.27-1.356 1.566-1.356 1.217-1.356 1.191-1.38 1.076-1.356 1.076-1.356 1.006-.959.654-.164.117-.094.117-.093.117v.162l.047.117h.14l.491-.047.28-.164.515-.209.772-.398 1.029-.561 1.099-.539 1.192-.678.655-.373.514-.305 1.076-.701.982-.609 1.38-1.006 1.333-1.191 1.38-1.451 1.356-2.08.749-1.988.023-.818-.678-1.988-1.38-2.408-1.353-1.333-.538-.516-.21-.305-.046-.162v-.187l.21-.328 1.122-1.053.702-.912.094-1.122-.398-1.918-.561-1.66-.281-.468-.421-.117-1.169.188-.632.351-1.263 1.146-1.356 2.011-.701 1.73-.047.842.561 1.545.304.467.094.117v.117l-.234.256-.912.936-1.029.75-.819.443-.257.141-.304.141-.818.279-1.24.258-.491.023-.538-.047h-.281v-.047l-.047-.094.14-.607.702-2.035.07-.537-.047-.117v-.023l-.234.188-1.192 1.379-1.123 1.076-.304.234-.117.047-.164-.352-.046-1.121.631-2.176.889-1.24.795-.537.795-1.38.21-.538v-.117l-.21-.304-.702-.561-.468-.117-.795-.023-.397.094-.327.164-.538.351-1.193 1.377-1.075 2.059-.281.795-.188.795-.164.842-.07.818.023.771.14.748.117.633v.232l-.047.164-.07.094-.047-.023-.351-.07-.421-.188-.748-.654-.468-.889-.164-1.426.046-1.801.188-1.076.164-.771.187-.748.61-2.316.912-3.11 1.216-3.414.374-.936v-.164l-.047-.093v-.024l-.233.024-.257.233-1.216 1.848-1.356 2.736-1.239 2.619-.374.865-.188.514-.352 1.007-.234.654-.187.725-.164.842-.117.68-.094.748-.093 1.029-.07.912-.047.514v.489zm63.984-20.905v4.864l-.14.047-.421.093-.702.21-.865.257-.935.281-.562.094-.561.163-.631.188-.772.21-.491.14-.842.21-1.076.257-1.052.257-.515.14-.678.187-.725.21-.445.094-.538.164-.702.304-.234.07-.304.351-.233.631-.21 1.005-.164 1.193-.164 1.263-.186 1.195-.164 1.357-.164 1.355-.164.936-.444 1.357-1.146 2.15-.28.352-.141.023-.14-.094-.351-.701-.233-1.146-.141-1.754.047-2.455.188-2.012.187-1.193.141-1.099.047-.936-.047-.257-.141-.07-.187.023-.491.164-.678.257-.795.257-.725.187-.467.093-1.053.211-.701.14-.702.14-.818.257-.655.093-.397.094-.467.094-.842.093-.936.047-.702.023-.421-.187-.327-.374-.234-.491-.093-.374.047-1.216.046-1.216.188-1.379.164-.585.164-.234.094-.047.07.047.304.188.538-.117.702-.28.584-.117.515-.164.604-.14.795-.211.866-.304.491-.141.771-.21.818-.281.678-.14.561-.117.538-.117.491-.164.631-.14.795-.257.468-.117.444-.141.444-.164.21-.187.164-.351.187-1.005.164-1.31.187-1.356.164-.982.164-.725.093-.211.094-.093.14-.07.047.023.117.21.188 1.099.187 1.099.07.749.07.608.187.889.047.725-.093.328v.047l.093.046.21-.07.444-.14.795-.211.584-.07.468-.093.631-.164.748-.094.585-.07L59.262 83l.819-.14.607-.094.842-.14.795-.117.492-.094.748-.14 1.24-.234 1.24-.257.773-.162zm0 12.394l-.21.023-.608.141-.655.257-.562.28-.444.21-.936.608-.561.398-.304.141-.047-.07-.233-.398-.094-.631-.164-.958-.117-.398-.14-.234-.164-.093h-.07l-.046.07-.187.421-.187 1.192-.164 2.27-.164 1.73-.164.795-.164.654-.188.818-.163.748-.047.328-.047.303.234.375 1.286 2.035 1.146 1.379.421.234.304.047.187-.188.281-.654.093-1.1.07-1.66.023-1.1.21-1.215.936-2.363 1.123-1.262.515-.375v-2.758h.001z" fill="#cf7b2c"/></g></svg>