<svg xmlns="http://www.w3.org/2000/svg" width="2500" height="2500" viewBox="0 0 192.756 192.756"><g fill-rule="evenodd" clip-rule="evenodd"><path fill="#fff" d="M0 0h192.756v192.756H0V0z"/><path d="M73.414 58.613l2.739.316 2.633.421 2.528.737 2.528.738 2.423 1.053 2.423 1.053L90.9 64.3l2.212 1.37 2.001 1.581 2.001 1.686 1.791 1.791 1.791 2.001 1.58 2.001 1.475 2.212.633 1.053 1.58 2.844h27.178l-2.213-6.531-.947-2.423-1.055-2.317-1.053-2.317-1.264-2.212-1.264-2.212-1.369-2.106-1.477-2.107-1.475-2.107-1.686-1.896-1.58-1.896-1.789-1.896-1.791-1.686-1.896-1.791-2.002-1.58-2.002-1.58-2.002-1.475-2.211-1.369-2.107-1.265-2.316-1.264-2.213-1.159-2.423-1.053-2.317-.948-2.423-.843-2.528-.843-2.528-.632-2.528-.632-2.633-.421-2.634-.421-2.633-.316-2.634-.105-2.739-.105-3.371.105-3.266.316-3.266.421-3.266.527-3.16.737-3.16.843-3.055 1.053-2.95 1.159-2.844 1.37-2.844 1.475-2.739 1.58-2.634 1.686-2.633 1.791-2.422 2-2.422 2.001-2.212 2.212-2.212 2.212-2.107 2.423-1.896 2.528-1.896 2.528-1.686 2.633-1.58 2.739-1.369 2.844-1.37 2.949-1.159 2.95-1.053 3.055-.843 3.055-.738 3.161-.632 3.266-.421 3.265-.21 3.266-.105 3.371.105 3.371.21 3.371.421 3.266.632 3.266.738 3.16.843 3.055 1.053 3.055 1.159 2.951 1.37 2.949 1.369 2.844 1.58 2.738 1.686 2.635 1.896 2.527 1.896 2.527 2.107 2.318 2.212 2.318 2.212 2.211 2.422 2.002 2.423 2.002 2.633 1.791 2.634 1.686 2.739 1.58 2.844 1.475 2.844 1.264 2.95 1.264 3.055.949 3.16.947 3.16.738 3.266.525 3.266.422 3.266.316H72.15l2.739-.211 2.634-.211 2.633-.422 2.634-.525 2.528-.527 2.528-.738 2.528-.736 2.423-.949 2.423-.947 2.423-1.053 2.213-1.16 2.316-1.264 2.213-1.369 2.105-1.369 2.107-1.475 2.002-1.58 1.896-1.686 1.895-1.686 1.896-1.791 1.686-1.896 1.686-1.896 1.58-2 1.58-2.107 1.475-2.107 1.369-2.211 1.266-2.213 1.158-2.213 1.158-2.422.949-2.318.947-2.422 2.213-6.531h-26.547l-1.58 3.055-1.264 2.316-1.475 2.318-1.686 2.107-1.791 2.105-1.896 1.896-2.107 1.686-2.106 1.686-2.317 1.475-2.423 1.264-2.423 1.16-2.634 1.053-2.634.738-2.739.631-2.739.422-2.844.211h-3.476l-2.001-.211-1.896-.211-2.002-.316-1.791-.42-1.896-.527-1.791-.633-1.791-.736-1.686-.738-1.686-.947-1.685-.844-1.58-1.053-1.475-1.053-1.475-1.16-1.475-1.264-1.37-1.264-1.264-1.369-1.264-1.475-1.159-1.477-1.054-1.473-1.053-1.582-.843-1.686-.948-1.686-.737-1.684-.737-1.791-.632-1.791-.527-1.791-.421-1.896-.316-2.002-.21-1.895-.211-2.002v-4.003l.211-1.896.21-2.001.316-1.896.421-1.896.527-1.896.632-1.791.737-1.686.737-1.791.948-1.686.843-1.58 1.053-1.58 1.054-1.58 1.159-1.475 1.264-1.37 1.264-1.369 1.37-1.264 1.475-1.264 1.475-1.159 1.475-1.054 1.58-1.053 1.685-.948 1.686-.842 1.686-.843 1.791-.632 1.791-.632 1.896-.527 1.791-.421 2.002-.316 1.896-.316 2.001-.105 2.001-.105 2.741.104zm-1.37-1.58l2.844.211 2.844.421 2.739.527 2.634.737 2.528.948 2.528 1.159 2.423 1.264 2.317 1.369 2.212 1.58 2.001 1.686 2.002 1.791 1.896 2.001 1.686 2.107 1.58 2.106 1.475 2.318 1.053 2.001h24.229l-1.58-4.425-.842-2.317-1.055-2.317-1.053-2.212-1.264-2.212-1.264-2.107-1.266-2.106-1.475-2.107-1.475-2.001-1.58-1.896-1.58-1.791-1.686-1.791-1.791-1.791-1.894-1.686-1.895-1.58-1.896-1.475-2.107-1.475-2.002-1.37-2.211-1.264-2.107-1.159-2.318-1.159-2.212-1.053-2.317-.843-2.423-.948-2.423-.737-2.423-.632-2.528-.527-2.528-.527-2.528-.316-2.633-.316-2.634-.211h-2.633l-3.266.105-3.266.211-3.16.421-3.16.527-3.055.738-3.055.843-2.95 1.053-2.95 1.159-2.844 1.264-2.739 1.37-2.739 1.581-2.528 1.686-2.528 1.79-2.423 1.896-2.317 2.001-2.212 2.107-2.107 2.212-2.001 2.317-1.896 2.423-1.791 2.528-1.686 2.633-1.58 2.634-1.37 2.739-1.369 2.844-1.054 2.949-1.053 2.95-.843 3.056L6.732 84l-.527 3.16-.421 3.16-.316 3.266v6.636l.316 3.16.421 3.266.527 3.16.737 3.055.843 3.057 1.053 2.949 1.054 2.844 1.369 2.844 1.37 2.846 1.58 2.633 1.686 2.633 1.791 2.424 1.896 2.422 2.001 2.318 2.107 2.316 2.212 2.107 2.317 2.002 2.423 1.896 2.528 1.791 2.528 1.686 2.739 1.475 2.739 1.475 2.844 1.264 2.95 1.158 2.95.949 3.055.947 3.055.633 3.16.631 3.16.422 3.266.211 3.266.105 2.633-.105 2.634-.105 2.633-.316 2.634-.316 2.528-.525 2.528-.527 2.423-.738 2.423-.736 2.423-.844 2.317-.947 2.318-1.053 2.318-1.16 2.211-1.264 2.107-1.264 2.107-1.369 2.002-1.475 2-1.58 1.896-1.58 1.791-1.686 1.791-1.791 1.791-1.791 1.58-1.896 1.58-1.896 1.475-2.002 1.369-2.105 1.369-2.107 1.266-2.213 1.158-2.211 1.053-2.318 1.053-2.316.844-2.318 1.475-4.424h-23.385l-1.16 2.105-1.369 2.529-1.475 2.316-1.791 2.213-1.791 2.107-2 2.002-2.213 1.895-2.212 1.686-2.423 1.475-2.423 1.371-2.634 1.264-2.633.947-2.739.844-2.845.631-2.949.422-2.95.316h-1.475l-2.106-.105-2.001-.105-2.107-.316-2.001-.316-1.896-.42-1.896-.633-1.896-.633-1.896-.631-1.791-.844-1.685-.947-1.686-.947-1.686-1.055-1.581-1.158-1.58-1.158-1.475-1.266-1.369-1.369-1.37-1.369-1.264-1.475-1.159-1.58-1.159-1.58-1.054-1.686-.948-1.686-.947-1.686-.738-1.791-.737-1.896-.632-1.895-.632-1.896-.421-1.896-.316-2.002-.316-2.107-.105-2-.105-2.107.105-2.001.105-2.107.316-2.001.316-2.002.421-2.001.632-1.896.632-1.896.737-1.791.738-1.791.947-1.791.948-1.686 1.054-1.58 1.159-1.686 1.159-1.475 1.264-1.475 1.37-1.369 1.369-1.37 1.475-1.264 1.58-1.264 1.581-1.054 1.686-1.053 1.686-1.053 1.685-.843 1.791-.843 1.896-.737 1.896-.632 1.896-.526 1.896-.422 2.001-.421 2.107-.211 2.001-.211h3.476v-.006z"/><path d="M70.674 55.453c16.012 0 29.917 9.06 37.082 22.228h21.066c-8.109-25.071-31.707-43.19-59.412-43.19-34.447 0-62.468 28.021-62.468 62.362 0 34.447 28.021 62.469 62.468 62.469 27.916 0 51.722-18.541 59.623-43.928h-20.33c-6.742 14.326-21.279 24.123-38.029 24.123-23.175 0-42.031-18.855-42.031-42.031 0-23.177 18.857-42.033 42.031-42.033zm-35.183 77.742c1.475-1.158 1.475-2.949-.105-5.057l-4.108-5.373-7.269 5.479 2.107 2.738 2.528-1.896 2.002 2.635c1.579 2.107 3.265 2.527 4.845 1.474zm-2.318-3.16c-.632.525-1.054.316-1.791-.527l-1.159-1.58 1.58-1.158 1.159 1.475c.633.841.843 1.368.211 1.79zm9.481 16.539l2.528-9.482-3.477-2.633-8.638 4.846 2.949 2.318.843-.527 3.055 2.318-.21.842 2.95 2.318zm-2.002-5.478l-1.791-1.264 2.844-1.896-1.053 3.16zm16.75 11.377v-.105c-.316-.316-.105-1.053.316-2.318.21-.947.316-1.475-.421-2.211.948 0 1.791-.633 2.107-1.686.316-.844.21-1.58-.316-2.213-.422-.525-1.37-.947-2.739-1.369l-6.531-2.213-2.949 8.533 3.371 1.158.948-2.633 2.001.738c.737.209 1.053.631.843 1.264-.105.736-.527 1.264-.316 1.791l3.686 1.264zm-1.897-6.953c-.21.633-.737.633-1.58.316l-2.001-.633.527-1.58 1.896.633c.948.316 1.369.633 1.158 1.264zm16.96 2.001l.211-2.318-10.008-.842-.21 2.213 3.266.314-.632 6.742 3.477.316.632-6.742 3.264.317zm15.38 3.899l-2.212-8.85-3.266.844 1.264 5.055-4.635-4.213-4.108.947 2.212 8.85 3.266-.842-1.264-5.162 4.951 4.318 3.792-.947zm14.221-7.059l-1.158-2.002-5.479 3.266-.632-1.053 4.214-2.529-1.158-1.895-4.214 2.527-.526-.947 5.161-3.162-1.158-1.895-8.216 4.951 4.74 7.795 8.426-5.056zm12.221-10.849l-.105-.105c-.422.211-.949-.316-1.896-1.264-.738-.633-1.16-.949-2.213-.633.422-.844.211-1.896-.527-2.633-.525-.633-1.264-.844-2.105-.738-.633.211-1.475.738-2.424 1.791l-5.057 4.846 6.32 6.531 2.635-2.529-2.002-2 1.58-1.475c.633-.527.949-.633 1.475-.211.633.525 1.053 1.053 1.475 1.158l2.844-2.738zm-7.058-1.475c.527.42.211.947-.422 1.58l-1.475 1.475-1.158-1.16 1.369-1.369c.736-.737 1.264-1.053 1.686-.526zm-83.326-31.076l-8.322 5.162.738 4.424 9.691 2.316-.737-3.791-.843-.105-.737-3.793.843-.527-.633-3.686zm-2.212 5.371l.316 2.213-3.266-.631 2.95-1.582zM20.005 90.11l-4.846-.105-.105 3.476 4.424.211c1.791 0 2.423.421 2.423 1.896-.105 1.474-.843 1.791-2.528 1.791l-4.425-.211-.105 3.477 4.74.211c3.16.105 4.635-1.475 4.741-5.162.106-3.688-1.158-5.479-4.319-5.584zm.632-11.798l-2.212-.632-2.844 9.691 2.212.632.948-3.16 6.531 1.896.948-3.371-6.532-1.896.949-3.16zm8.322-11.061c-2.739-1.581-5.162-.632-7.163 2.949-2.002 3.477-1.686 6.11 1.053 7.585 2.739 1.58 5.162.632 7.163-2.845 2.108-3.476 1.686-6.108-1.053-7.689zm-1.896 3.266c1.37.843 1.686 1.896.948 3.266-.737 1.264-1.896 1.58-3.266.737-1.369-.737-1.686-1.896-.948-3.16.738-1.37 1.897-1.58 3.266-.843zm14.116-9.797l-.105-.105c-.421.211-.948-.316-1.896-1.159-.843-.738-1.264-.948-2.212-.632.421-.843.105-1.896-.632-2.634-.632-.632-1.37-.843-2.107-.632s-1.475.843-2.423 1.896l-4.846 4.951 6.532 6.32 2.528-2.634-2.001-1.896 1.475-1.475c.526-.632.948-.737 1.475-.315.632.526 1.054 1.053 1.475 1.158l2.737-2.843zm-7.057-1.264c.421.421.21.948-.422 1.58l-1.475 1.475-1.159-1.053 1.37-1.475c.737-.738 1.159-1.054 1.686-.527zm11.166-12.115l-3.371 2.212.527 4.108-3.371-2.317-3.477 2.317 6.953 3.266 1.37 2.107 2.95-1.896-1.37-2.107-.211-7.69zm11.166-2.212l-.737-1.896-9.06 3.476.737 2.212 4.74-1.791-3.265 6.321.737 1.896 9.27-3.581-.843-2.212-4.846 1.896 3.267-6.321zm14.431.527c-.421-3.16-2.633-4.529-6.637-4.002-4.003.527-5.898 2.317-5.478 5.478.316 3.161 2.634 4.53 6.637 4.003s5.9-2.424 5.478-5.479zm-3.792.422c.21 1.58-.527 2.528-2.002 2.739-1.475.21-2.423-.632-2.528-2.107-.21-1.58.422-2.528 2.002-2.739 1.475-.211 2.423.527 2.528 2.107zm21.806-2.212l-3.687-.632-2.633 5.899-.527-6.531-2.844-.526-2.844 6.004-.421-6.531-3.687-.632 1.475 9.481 3.687.632 2.528-5.478.526 6.004 3.793.737 4.634-8.427zm7.479 14.326l.843-9.797-3.897-2.001-7.69 6.321 3.371 1.685.738-.632 3.371 1.685-.105.948 3.369 1.791zm-2.949-5.057l-2.001-1.053 2.528-2.318-.527 3.371zm11.376 12.325l6.006-6.847-2.635-2.212-3.371 3.898.738-6.215-3.16-2.739-5.899 6.847 2.423 2.107 3.582-4.003-.633 6.531 2.949 2.633zm14.117 3.898l-2.424-3.266-4.002.737 2-3.476-2.422-3.371-2.949 7.058-2.002 1.475 2.002 2.844 2.105-1.475 7.692-.526z"/><path d="M72.36 57.665l2.739.21 2.633.527 2.634.632 2.528.843 2.423.948 2.317 1.158 2.318 1.264 2.107 1.475 2.107 1.475 1.896 1.791 1.897 1.791 1.686 1.896 1.58 2.107 1.475 2.107.631 1.159 1.58 2.739h27.283l-2.316-6.426-.949-2.423-.947-2.423-1.158-2.212-1.16-2.318-1.369-2.212-1.369-2.107-1.369-2.107-1.58-2.001-1.58-2.001-1.686-1.896-1.791-1.791-1.791-1.791-1.896-1.685-1.895-1.685-2.002-1.475-2.107-1.475-2.107-1.475-2.211-1.264-2.213-1.264-2.317-1.159-2.317-1.053-2.423-.948-2.423-.843-2.528-.737-2.422-.737-2.634-.527-2.528-.527-2.633-.421-2.634-.21-2.739-.211h-2.739l-3.371.105-3.266.211-3.265.421-3.266.527-3.161.738-3.055.948-3.055 1.054-2.95 1.159-2.95 1.264-2.844 1.475-2.739 1.58-2.633 1.686-2.528 1.896-2.528 1.896-2.422 2.106-2.212 2.107-2.216 2.316-2.001 2.317-2.001 2.528-1.791 2.528-1.686 2.739-1.581 2.739-1.475 2.739-1.369 2.95-1.159 2.949-1.054 3.055-.843 3.16-.737 3.16-.527 3.161-.421 3.265-.315 3.371-.105 3.371.105 3.371.316 3.266.421 3.266.527 3.266.737 3.16.843 3.055 1.054 3.055 1.159 3.055 1.369 2.844 1.475 2.846 1.581 2.738 1.686 2.633 1.791 2.635 2.001 2.422 2.001 2.424 2.212 2.211 2.212 2.213 2.422 2.002 2.528 2 2.528 1.791 2.633 1.686 2.739 1.686 2.844 1.369 2.95 1.371 2.95 1.158 3.055 1.053 3.055.844 3.161.736 3.266.633 3.265.422 3.266.211 3.371.104 2.739-.104 2.739-.105 2.634-.316 2.739-.422 2.528-.422 2.633-.631 2.528-.633 2.528-.842 2.423-.844 2.423-1.053L96.588 155l2.318-1.158 2.213-1.264 2.211-1.264 2.107-1.475 2.107-1.477 2-1.58 2.002-1.684 1.896-1.686 1.791-1.791 1.791-1.896 1.686-1.896 1.58-2.002 1.475-2 1.475-2.213 1.369-2.107 1.264-2.211 1.266-2.318 1.053-2.318 1.053-2.422.844-2.424 2.211-6.426h-26.545l-1.475 2.949-1.369 2.424-1.477 2.213-1.684 2.211-1.791 2.002-1.897 1.896-2.001 1.791-2.212 1.58-2.317 1.475-2.317 1.369-2.528 1.158-2.528.949-2.739.842-2.633.527-2.844.422-2.844.211-1.475.104-2.001-.104-2.001-.105-1.896-.316-1.896-.316-1.896-.422-1.896-.525-1.791-.633-1.791-.738-1.686-.736-1.686-.844-1.58-.947-1.58-1.053-1.58-1.055-1.475-1.158-1.369-1.264-1.369-1.264-1.37-1.371-1.159-1.369-1.159-1.475-1.159-1.58-.948-1.58-.948-1.58-.843-1.686-.845-1.79-.632-1.686-.632-1.896-.527-1.789-.421-1.896-.421-1.896-.211-2.002-.105-1.896-.105-2.001.105-2.001.105-2.001.211-2.001.421-1.896.421-1.896.527-1.791.632-1.791.632-1.791.843-1.686.843-1.685.948-1.686.948-1.58 1.159-1.475 1.159-1.475 1.159-1.475 1.37-1.369 1.369-1.265 1.369-1.264 1.475-1.159 1.58-1.053 1.58-1.054 1.58-.948 1.686-.843 1.686-.737 1.791-.737 1.791-.632 1.896-.527 1.896-.421 1.896-.316 1.896-.21 2.001-.211h2.001l2.738.103zm-1.264-1.686l2.844.21 2.739.422 2.739.526 2.633.843 2.634.948 2.423 1.054 2.423 1.264 2.317 1.369 2.212 1.581 2.107 1.686 2.002 1.896 1.789 1.896 1.686 2.106 1.58 2.212 1.475 2.212 1.16 2.001h24.123l-1.475-4.319-.949-2.423-1.053-2.212-1.053-2.317-1.16-2.212-1.264-2.107-1.369-2.106-1.369-2.001-1.475-2.001-1.58-1.896-1.686-1.896-1.686-1.791-1.791-1.686-1.791-1.686-1.896-1.58-2.002-1.58-2-1.369-2.107-1.37-2.107-1.264-2.211-1.264-2.213-1.054-2.317-1.053-2.318-.948-2.423-.843-2.423-.738-2.423-.737-2.528-.526-2.528-.527-2.528-.316-2.633-.316-2.528-.105-2.739-.105-3.266.105-3.266.211-3.16.421-3.16.632-3.055.737-3.055.843-2.95.948-2.949 1.158-2.844 1.264-2.739 1.475-2.634 1.475-2.633 1.686-2.528 1.791-2.423 1.896-2.317 2.001-2.212 2.212-2.106 2.212-2.002 2.317-1.896 2.423-1.791 2.528-1.686 2.528-1.58 2.739-1.37 2.739-1.264 2.844-1.159 2.844-1.053 2.95-.843 3.055-.737 3.16-.527 3.055-.421 3.265-.211 3.267-.105 3.266.105 3.266.211 3.266.421 3.16.527 3.16.737 3.055.843 3.055 1.053 2.949 1.159 2.949 1.264 2.846 1.37 2.738 1.58 2.633 1.686 2.635 1.791 2.527 1.896 2.424 2.002 2.316 2.106 2.213 2.212 2.107 2.317 2 2.423 1.896 2.528 1.791 2.633 1.686 2.634 1.58 2.739 1.369 2.844 1.264 2.949 1.16 2.95 1.053 3.055.844 3.055.736 3.16.527 3.16.422 3.266.209 3.266.105h2.739l2.633-.209 2.634-.211 2.528-.422 2.528-.527 2.528-.525 2.528-.633 2.423-.844 2.423-.842 2.317-.947 2.317-1.055 2.213-1.158 2.211-1.158 2.107-1.369 2.107-1.371 2-1.475 2.002-1.475 1.896-1.686 1.896-1.686 1.791-1.686 1.686-1.791 1.58-1.895 1.58-2.002 1.475-2.002 1.475-2.107 1.264-2.105 1.264-2.107 1.158-2.318 1.16-2.211.947-2.318.949-2.422 1.475-4.426h-23.492l-1.053 2.213-1.369 2.424-1.58 2.316-1.686 2.318-1.896 2.105-2.002 2.002-2.107 1.791-2.317 1.686-2.317 1.58-2.528 1.369-2.528 1.16-2.739 1.053-2.739.842-2.844.633-2.845.422-3.055.209h-3.581l-2.001-.209-2.002-.211-2.001-.422-2.001-.422-1.896-.525-1.896-.633-1.791-.736-1.791-.844-1.791-.842-1.686-1.055-1.686-1.053-1.58-1.055-1.475-1.264-1.475-1.264-1.475-1.369-1.264-1.369-1.265-1.475-1.264-1.58-1.159-1.58-1.053-1.58-.948-1.686-.843-1.791-.843-1.791-.737-1.791-.632-1.896-.527-1.896-.526-2.002-.316-2-.21-2.002-.211-2.107V94.427l.211-2.106.21-2.002.316-2.001.526-1.896.527-1.896.632-1.896.737-1.896.843-1.791.843-1.685.948-1.686 1.053-1.686 1.159-1.581 1.264-1.58 1.265-1.475 1.264-1.369 1.475-1.37 1.475-1.264 1.475-1.159 1.58-1.159 1.686-1.053 1.686-.948 1.791-.948 1.791-.843 1.791-.738 1.896-.632 1.896-.527 2.001-.421 2.001-.316 2.002-.316 2.001-.105 2.106-.105h1.477v.002z" fill="#d5d6d7"/><path d="M69.621 54.399c16.012 0 30.023 9.059 37.08 22.333h21.174c-8.217-25.071-31.813-43.295-59.518-43.295-34.341 0-62.362 28.021-62.362 62.468 0 34.342 28.021 62.467 62.362 62.467 28.021 0 51.723-18.539 59.623-43.928h-20.33c-6.742 14.223-21.28 24.123-38.029 24.123-23.175 0-42.031-18.961-42.031-42.03 0-23.176 18.856-42.138 42.031-42.138zm-35.184 77.744c1.475-1.16 1.475-2.846-.105-4.951l-4.108-5.479-7.164 5.479 2.107 2.844 2.528-1.896 2.001 2.527c1.475 2.106 3.266 2.634 4.741 1.476zm-2.317-3.057c-.632.422-1.053.211-1.686-.631l-1.159-1.58 1.58-1.158 1.159 1.58c.632.842.738 1.264.106 1.789zm9.586 16.539l2.528-9.48-3.582-2.738-8.638 4.951 3.055 2.211.738-.525 3.16 2.316-.316.949 3.055 2.316zm-2.001-5.477l-1.896-1.371 2.95-1.895-1.054 3.266zm16.643 11.377v-.105c-.316-.422 0-1.055.316-2.318.316-1.053.316-1.58-.422-2.213a2.5 2.5 0 0 0 2.107-1.686c.315-.842.21-1.58-.316-2.211-.421-.527-1.369-.949-2.634-1.475l-6.531-2.213-3.055 8.533 3.477 1.158.843-2.527 2.001.631c.843.316 1.054.633.948 1.264-.211.738-.527 1.371-.421 1.896l3.687 1.266zm-1.791-6.953c-.316.631-.737.631-1.686.316l-2.001-.738.527-1.475 1.896.633c.948.315 1.475.526 1.264 1.264zm16.96 1.897l.211-2.318-10.113-.842-.21 2.316 3.266.316-.632 6.742 3.581.317.527-6.848 3.37.317zm15.38 3.896l-2.212-8.848-3.371.842 1.265 5.057-4.635-4.213-4.003 1.053L76.153 153l3.16-.738-1.264-5.162L83 151.314l3.897-.949zm14.222-7.056l-1.264-2.002-5.479 3.266-.632-.949 4.214-2.633-1.054-1.896-4.319 2.529-.527-.949 5.267-3.055-1.159-1.896-8.217 4.951 4.635 7.795 8.535-5.161zm12.113-10.747l-.105-.105c-.422.105-.947-.42-1.896-1.264-.736-.736-1.158-1.053-2.105-.633.42-.947.211-1.895-.527-2.738-.633-.631-1.369-.842-2.107-.631-.736.105-1.475.736-2.527 1.686l-4.951 4.846 6.32 6.529 2.529-2.527-1.896-2.002 1.475-1.369c.631-.631 1.053-.736 1.58-.316.525.527.947 1.055 1.475 1.266l2.735-2.742zm-7.056-1.58c.525.527.314.949-.422 1.686l-1.475 1.369-1.16-1.158 1.477-1.369c.736-.739 1.158-.949 1.58-.528zM22.85 99.906l-8.322 5.268.843 4.32 9.586 2.316-.632-3.688-.948-.209-.632-3.793.738-.422-.633-3.792zm-2.213 5.373l.422 2.213-3.371-.527 2.949-1.686zm-1.685-16.117l-4.74-.21-.105 3.582 4.424.105c1.686.105 2.423.422 2.317 1.896 0 1.475-.737 1.791-2.423 1.791l-4.53-.21-.105 3.582 4.845.105c3.055.104 4.53-1.477 4.741-5.163.106-3.687-1.264-5.372-4.424-5.478zm.632-11.903l-2.212-.632-2.739 9.691 2.212.632.843-3.161 6.531 1.896.948-3.371-6.532-1.896.949-3.159zm8.322-11.061c-2.633-1.58-5.162-.527-7.163 2.95-2.001 3.476-1.58 6.11 1.054 7.69 2.739 1.58 5.161.632 7.269-2.95 2-3.476 1.579-6.11-1.16-7.69zm-1.896 3.265c1.37.843 1.791 2.001.948 3.266-.737 1.369-1.896 1.58-3.265.843-1.37-.843-1.686-2.002-.948-3.266.737-1.264 1.896-1.58 3.265-.843zm14.221-9.796l-.105-.105c-.526.211-1.053-.316-2.001-1.159-.737-.737-1.264-.948-2.212-.527.422-.948.211-1.896-.632-2.739-.632-.527-1.369-.737-2.106-.632-.632.211-1.37.843-2.423 1.896l-4.846 4.951 6.532 6.32 2.528-2.528-2.001-1.896 1.475-1.58c.632-.632.948-.632 1.58-.316.527.527.948 1.054 1.475 1.159l2.736-2.844zm-7.163-1.265c.527.527.316.948-.421 1.686l-1.37 1.475-1.159-1.159 1.37-1.369c.632-.738 1.158-1.054 1.58-.633zm11.271-12.114L40.863 48.5l.632 4.108-3.371-2.212-3.476 2.212 6.847 3.265 1.37 2.212 2.949-1.896-1.369-2.212-.106-7.689zm11.166-2.107l-.737-1.896-9.165 3.476.843 2.107 4.635-1.791-3.266 6.426.738 1.791 9.27-3.477-.843-2.317-4.741 1.896 3.266-6.215zm14.327.422c-.315-3.055-2.633-4.425-6.636-4.003-4.002.527-5.793 2.423-5.478 5.478.421 3.16 2.633 4.529 6.636 4.003 4.108-.422 5.899-2.318 5.478-5.478zm-3.687.526c.211 1.475-.527 2.423-2.001 2.634-1.581.21-2.423-.527-2.634-2.107-.21-1.58.527-2.528 2.001-2.738 1.475-.211 2.423.631 2.634 2.211zm21.7-2.317l-3.687-.632-2.528 6.004-.632-6.531-2.844-.527-2.739 5.899-.527-6.531-3.687-.632 1.475 9.481 3.792.737 2.528-5.583.421 6.109 3.792.632 4.636-8.426zm7.585 14.326l.843-9.797-4.003-2.001-7.585 6.32 3.266 1.686.737-.632 3.477 1.79-.211.948 3.476 1.686zm-2.95-5.056l-2.001-.948 2.423-2.317-.422 3.265zm11.272 12.325l6.004-6.847-2.527-2.212-3.477 3.898.738-6.215-3.057-2.739-6.004 6.847 2.529 2.212 3.475-4.003-.631 6.532 2.95 2.527zm14.115 3.898l-2.422-3.266-4.004.843 2.107-3.582-2.424-3.371-2.949 7.058-2.105 1.58 2.105 2.845 2.002-1.58 7.69-.527z" fill="#d5d6d7"/><path d="M72.149 106.859H57.823v-.947l.948-.211.737-.211.317-.738.211-1.264V85.792l-.211-1.37-.211-.422-.211-.315-.737-.316-.843-.106v-.843h9.059v.843l-1.158.106-.422.105-.316.316-.316.421-.105.527-.106 1.896v17.065l.106 1.053.316.527.737.211h2.213l.842-.211.738-.316.737-.631.526-.738.527-.842 1.054-2.529h.737l-.843 6.636zM73.414 87.372h16.222v5.266h-.843l-.316-1.474-.843-1.159-.947-.737-1.054-.422-1.053-.211-1.054-.105h-3.265v7.901l1.158-.106 1.475-.526.632-.316.633-.737.421-.843.211-1.054h.842v8.534h-.842l-.211-1.266-.316-.842-.527-.738-.632-.525-.632-.317-.843-.211h-1.369v8.112H84.369l.948-.211 1.054-.317.948-.525.948-.844.737-.947.738-1.264h.842l-1.159 5.371H73.414v-.736l.737-.105.632-.317.527-.527.211-1.053V90.11l-.211-1.053-.422-.632-.526-.211-.948-.105v-.737z"/><path d="M109.23 88.109l-.843.105-.842.316-.633.422-.736.526-1.791 2.212-2.846 3.793 5.268 8.111.949 1.474.736.633.528.317.525.105v.736h-9.586v-.736l1.686-.211.316-.211.105-.422-.105-.736-.527-.844-2.844-4.213-.947 1.159-2.318 3.16-.527.738v.42l.105.633.527.316.737.106.738.105v.736h-6.953v-.736l.632-.105.527-.317.737-.422.738-.841 4.951-6.532-5.478-8.954-.421-.422-.527-.316-.527-.105h-.737v-.737h9.692v.737l-1.58.21-.316.316v.527l.105.316.316.632 2.106 4.319 2.002-2.634 1.158-1.369.527-.843.211-.421-.211-.527-.421-.316-.526-.105-.844-.105v-.737h7.164v.737z"/><path d="M133.354 106.859h-8.639v-.841l.844-.211.63-.211.422-.633.106-.947.105-12.958-5.795 15.801h-.841l-6.426-16.96h-.106v14.644l.211.842.211.316.42.106 1.266.211.105.841h-6.847v-.841l1.474-.211.736-.211.422-.739V90.11l-.105-.842-.422-.633-.736-.316-1.264-.21v-.737h7.373l4.74 12.22 4.741-12.22h7.375v.737l-1.055.105-.737.316-.21.843-.106 1.475v12.746l.106 1.263.421.739.737.316.844.106v.841zM140.305 91.69l1.896-4.635h.844l6.531 15.064.736 1.897.739 1.263.631.528.949.211v.841h-8.639v-.841h.738l.526-.106.211-.211.105-.633-.105-.841-.631-1.581-1.791-4.529-2.74-6.427z"/><path d="M170.645 106.859h-5.9l-5.898-9.059h-.842v5.793l.104 1.264.316.844.633.211 1.053.211v.736h-9.27v-.736l1.158-.211.844-.211.314-.316.105-.527.105-1.264V90.848l-.105-1.475-.211-.421-.314-.422-.844-.315-1.053-.105v-.737h9.27l2.107.105 1.369.211 1.369.421 1.264.632 1.055.843.422.632.314.632.105.737.105.843-.105 1.264-.316.948-.525.843-.738.632-1.475.842-1.264.527 5.793 8.217.527.316.527.105v.736h.001zm-12.641-9.902l2.422-.211.947-.21.738-.421.527-.632.42-.632.211-1.053.105-1.264-.211-1.896-.316-.738-.42-.527-.527-.421-.527-.316-.736-.21h-1.685l-.527.21-.316.421-.104.527v7.373h-.001z"/><path d="M189.922 106.859h-9.061v-.736l1.58-.105.106-.211.105-.211-.211-.633-.42-.736-6.005-7.27v7.164l.105 1.053.317.527.738.317.947.105v.736h-9.375v-.736l1.158-.105.633-.317.525-.527.211-1.053V90.11l-.105-1.053-.42-.632-.738-.211-.842-.105v-.737h9.059v.737l-1.053.105-.738.316-.211.422-.106.421-.105 1.475v6.109l6.216-6.32.737-.843.211-.632.105-.527-.105-.21-.528-.211-1.052-.105v-.737h7.058v.737l-.949.21-1.053.316-.844.527-.947.632-2.107 2.212-2.949 3.161 8.849 10.429.526.422.738.105v.736zM133.984 106.859l4.532-10.638 4.74 10.638-4.74 10.85-4.532-10.85z"/><path fill="#d5d6d7" d="M70.358 105.596h-14.22v-.95l.947-.208.738-.317.316-.738V83.158l-.211-.422-.316-.316-.632-.316-.842-.21v-.843h9.059v.843l-1.159.21-.527.105-.316.317-.21.316-.106.527-.105 1.896v17.171l.105 1.052.316.422.738.211H66.145l.737-.211.843-.316.632-.528.632-.736.527-.842.948-2.529h.843l-.949 6.637zM71.728 86.107h16.117v5.268h-.737l-.421-1.581-.738-1.053-1.053-.843-1.054-.421-1.053-.211H78.47v7.901l1.264-.105 1.474-.527.633-.527.632-.632.316-.738.316-1.158h.737v8.532h-.737l-.211-1.158-.315-1.053-.528-.633-.737-.422-.737-.421-.632-.104-1.475-.211v8.217h2.423l1.686-.106 1.053-.105.948-.317.948-.422 1.053-.841.738-.948.737-1.371h.737l-1.053 5.479H71.728v-.739l.632-.105.738-.314.527-.633.21-.948V88.846l-.21-1.158-.422-.527-.738-.211-.737-.105v-.738z"/><path fill="#d5d6d7" d="M107.545 86.845l-.844.105-.842.211-.738.316-.631.737-1.896 2.212-2.739 3.793 5.161 8.111 1.054 1.369.737.739.422.314.632.105v.739h-9.588v-.739l1.582-.211.42-.314.106-.422-.211-.633-.42-.841-2.951-4.319-.842 1.264-2.423 3.055-.421.736-.106.422.211.633.527.316.737.209.632.105v.739h-6.847v-.739l.526-.105.632-.314.633-.528.631-.738 5.162-6.531-5.477-9.164-.422-.211-.527-.316-.737-.105h-.632v-.738h9.798v.738l-1.582.21-.315.211v.422l.105.526.316.632 2.106 4.32 2.002-2.634 1.159-1.475.527-.738.105-.526-.105-.527-.527-.211-.631-.21h-.633v-.738h7.164v.738z"/><path fill="#d5d6d7" d="M131.457 105.596h-8.428v-.844l.844-.209.631-.316.422-.633.105-.948.106-12.957h-.106l-5.795 15.907h-.736l-6.531-16.961v14.642l.211.739.211.316.42.211 1.265.209v.844h-6.742v-.844l1.475-.209.736-.422.316-.527.106-1.053V88.846l-.106-.948-.42-.632-.738-.211-1.264-.21v-.738h7.268l4.74 12.114 4.846-12.114h7.164v.738l-.949.105-.631.316-.316.737-.106 1.37v12.746l.211 1.475.422.633.631.316.738.209v.844zM138.619 90.426l1.897-4.74h.843l6.321 15.169.947 1.897.738 1.158.631.633.949.209v.844h-8.744v-.844h.844l.525-.106.106-.314.211-.633-.211-.738-.526-1.578-1.791-4.531-2.74-6.426z"/><path d="M168.959 105.596h-5.9l-5.898-9.06h-.842v5.583l.104 1.475.211.633.738.42 1.053.211v.738h-9.27v-.738l1.158-.211.844-.314.211-.422.209-.316.105-1.475V89.373l-.105-1.369-.209-.527-.316-.21-.844-.316-1.053-.105v-.737h9.27l2.107.105 1.369.211 1.369.421 1.16.527 1.158.948.316.632.314.526.211.843.105.843-.211 1.159-.314 1.053-.422.737-.738.632-1.475.843-1.369.421 5.793 8.217.633.525.527.105v.739h.001zm-12.641-10.008l2.422-.105.949-.211.631-.421.633-.632.42-.843.211-.948.105-1.159-.316-1.896-.211-.737-.42-.632-.527-.421-.525-.316-.738-.105-.844-.105-.947.105-.527.105-.211.421-.104.527v7.373h-.001z" fill="#d5d6d7"/><path fill="#d5d6d7" d="M188.236 105.596h-9.06v-.739l1.474-.211.211-.103.106-.316-.211-.633-.526-.633-6.109-7.373v7.269l.209.948.422.527.738.314.948.211v.739h-9.376v-.739l.948-.211.844-.208.525-.633.211-.948V88.846l-.211-1.158-.42-.527-.633-.211-.842-.105v-.738h8.954v.738l-.948.105-.738.316-.211.211-.211.526-.209 1.37v6.215l6.32-6.215.842-.948.211-.737.106-.422-.106-.105-.527-.211-1.053-.105v-.738h7.059v.738l-1.055.105-.947.316-.844.527-.947.737-2.108 2.107-2.949 3.16 8.744 10.43.631.525.738.105v.739z"/><path fill="#cc2229" d="M132.299 105.596l4.531-10.745 4.635 10.745-4.635 10.744-4.531-10.744z"/></g></svg>