<svg height="476" viewBox="-0.6122127322943172 -1.5700000000000038 416.63983648732517 81.57000000000001" width="2500" xmlns="http://www.w3.org/2000/svg"><path d="M337.28.48a5.46 5.46 0 0 0-3.66 5.16 5.72 5.72 0 0 0 .88 2.73c.51 1.07.93 2.2 1.36 3.31 1.4 3.69 3.22 8.3 7.38 9.59a8.94 8.94 0 0 0 1.92.31 5 5 0 0 0 3.37-.74 8 8 0 0 0 2.7-3 10.55 10.55 0 0 0 1-4.79 9.3 9.3 0 0 0-1.15-4.23 19.85 19.85 0 0 0-2.53-3.47 18 18 0 0 0-3.93-3.66c-1.85-1.21-4.43-2.37-7.34-1.21" fill="#a64d99"/><path d="M337.89 2a3.78 3.78 0 0 0-2.53 3.6 4.14 4.14 0 0 0 .64 1.96l1.37 3.44.07.14c1.2 3.17 2.85 7.52 6.29 8.57l1.52.25a3.33 3.33 0 0 0 2.37-.48 6.09 6.09 0 0 0 2.1-2.35 8.45 8.45 0 0 0 .85-4.07 7.45 7.45 0 0 0-.93-3.36 19 19 0 0 0-2.32-3.19l-.26-.28a15.27 15.27 0 0 0-3.31-3.09c-2.26-1.43-4.06-1.75-5.86-1.06" fill="#fff"/><path d="M338.51 3.61h-.08a2.12 2.12 0 0 0-1.42 2c0 .19.07.4.45 1.16l1.46 3.48.07.2c1.1 2.86 2.58 6.75 5.24 7.55l1.16.19c.89.05 1.05 0 1.32-.2a4.5 4.5 0 0 0 1.53-1.71 7.38 7.38 0 0 0 .65-3.36 5.83 5.83 0 0 0-.7-2.49 16.28 16.28 0 0 0-2.14-2.9l-.25-.28a13.21 13.21 0 0 0-3-2.78c-2.21-1.42-3.44-1.25-4.32-.9" fill="#a64d99"/><path d="M404.45 1.18c-2.77.69-5.27 2.45-7.69 3.83-3.39 2-6.65 3.93-9.89 6.13-6.52 4.44-12.69 9.27-18.79 14.27-3.39 2.81-6.76 5.68-10.17 8.55l-9.34 7.92c-2.88 2.4-6.48 5.39-6.1 10.09a10 10 0 0 0 3.94 7.11c2.21 1.66 5.89 1.39 8.32.41l.19-.06.16-.15a65.7 65.7 0 0 0 6.46-5.49 56.72 56.72 0 0 1 8.13-6.44c.06 1.6.15 3.22.15 4.86 0 3.46-.13 6.95-.29 10.37l-.25 9.08v.09a9.24 9.24 0 0 0 4.32 6.88l.17.1h.13a11.81 11.81 0 0 0 8.12 0h.14l.13-.07c2.24-1.3 4.77-3.72 5.15-6.63v-39C393.27 28 400 24 406.52 20.13l4-2.4a10.36 10.36 0 0 0 5-6.1 15.24 15.24 0 0 0 .34-3A6.75 6.75 0 0 0 413.55 3a6.86 6.86 0 0 0-4.33-2 19.72 19.72 0 0 0-2.29-.11 9.79 9.79 0 0 0-2.48.29" fill="#094"/><path d="M404.86 2.8a22 22 0 0 0-5.68 2.75l-1.57.93c-3.6 2-6.81 4-9.79 6-5.66 3.86-11.6 8.37-18.67 14.2l-9.54 8-10 8.44c-2.73 2.28-5.82 4.86-5.5 8.66a8.37 8.37 0 0 0 3.24 5.9c1.63 1.22 4.65 1 6.68.21a73.25 73.25 0 0 0 6.33-5.37 59.06 59.06 0 0 1 8.37-6.65l2.43-1.54.16 3 .14 4.79-.27 10.14v.3l-.28 9v-.18a7.72 7.72 0 0 0 3.53 5.7 10.48 10.48 0 0 0 7 0c1.79-1 4-3.07 4.3-5.35V32.29l.6-.52c6.09-5.29 13.11-9.44 19.28-13.08l4.11-2.44h.05a8.42 8.42 0 0 0 4.14-5 12 12 0 0 0 .3-2.6 5.3 5.3 0 0 0-1.74-4.32h-.06l-.09-.08a5.37 5.37 0 0 0-3.33-1.6l-1.56-.06h-.54a9 9 0 0 0-2 .23" fill="#fff"/><path d="M405.28 4.44A21.1 21.1 0 0 0 400.06 7l-1.6.95c-3.59 2-6.74 4-9.7 6-5.62 3.82-11.5 8.3-18.54 14.1l-9.52 8-10 8.41c-2.54 2.11-5.16 4.29-4.91 7.25a6.66 6.66 0 0 0 2.53 4.68c.94.68 3.14.7 4.91.07a78.47 78.47 0 0 0 6-5.1 61.78 61.78 0 0 1 8.6-6.86l4.87-3 .28 5.9.18 4.81-.27 10.25v1.71l-.23 7.27a6.07 6.07 0 0 0 2.56 4.28 8.84 8.84 0 0 0 5.57 0c1.48-.89 3.08-2.45 3.31-4V31.54l1.16-1c6.21-5.41 13.32-9.58 19.55-13.26l4.15-2.47.14-.07a6.84 6.84 0 0 0 3.22-3.91 10 10 0 0 0 .25-2.18 3.7 3.7 0 0 0-1.11-3h-.09l-.15-.13-.05-.07a4 4 0 0 0-2.39-1l-1.38-.06h-.51a6.11 6.11 0 0 0-1.59.18" fill="#094"/><path d="M281.94 1.5l-5 .25c-4.64.07-9.42.14-13.12 3.37-2.53 2.52-2.61 6.59-1.56 9.59a8 8 0 0 0 4 4.12c3.14 1.57 6.64.63 9.95.35 3.82-.3 7.66-.41 11.49-.41h6.48a24.14 24.14 0 0 1 7.13.65c3.91.68 8.25 1.38 11.9-.71 3.22-1.84 4.6-6.81 3.42-10.21a9.44 9.44 0 0 0-3.69-4.64c-1.86-1.12-4.22-1.33-6.35-1.5-5.08-.43-10.21-.89-15.31-1-3.09-.05-6.24-.09-9.31.07" fill="#a64d99"/><path d="M282 3.17l-5 .25c-4.39.07-8.86.13-12.11 3-1.89 1.88-1.89 5.24-1.03 7.74a6.5 6.5 0 0 0 3.14 3.18c2 1 4.36.71 6.87.42l2.2-.25c3.39-.28 7-.42 11.62-.42h6.48a27.56 27.56 0 0 1 7.43.65c4.11.75 7.76 1.21 10.75-.5 2.33-1.34 3.68-5.38 2.68-8.19a7.76 7.76 0 0 0-3-3.75c-1.55-.93-3.71-1.12-5.62-1.27l-1.53-.14c-4.49-.36-9.14-.75-13.68-.81-3.13-.07-6.2-.09-9.19 0" fill="#fff"/><path d="M279.61 5l-2.48.12c-4.3.09-8.31.16-11.1 2.58a4.51 4.51 0 0 0-1 3.21 8.43 8.43 0 0 0 .47 2.74 4.63 4.63 0 0 0 2.29 2.21c1.56.78 3.58.54 5.92.27l2.21-.25c3.47-.29 7.11-.43 11.79-.43h6.5a30.17 30.17 0 0 1 7.73.68c3.78.69 7.13 1.14 9.62-.3 1.61-.91 2.61-4.14 1.91-6.16a6.24 6.24 0 0 0-2.23-2.89 12.48 12.48 0 0 0-4.89-1l-1.55-.11c-4.47-.37-9.09-.75-13.57-.84-3.1 0-6.13-.08-9.08 0 0 0-1.3.08-2.49.13" fill="#a64d99"/><path d="M179.26 10.07c-1.58.9-3 4.21-3 7.23a8.38 8.38 0 0 0 .3 2.22 8.88 8.88 0 0 0 5.52 5.17 12.63 12.63 0 0 0 8.5-1l-.32.16c6.77-1.94 19.33-4.45 28.74-.16l-.18.62c-3.31 5.26-7.88 9.64-12.72 14.24l-2.75 2.62c-4.3 4.22-9 7.94-13.54 11.59a150.79 150.79 0 0 0-15 13 6.74 6.74 0 0 0-1.27 4.27l.06 1.15a8.07 8.07 0 0 0 3 5.7c.91.8 4.48 3.12 7.43 2.17 5.91-1.85 10.8-6 15.51-10.06 1.66-1.42 3.33-2.83 5.06-4.17 1.42-1.08 2.89-2.82 4.87-2.53a8.68 8.68 0 0 1 3.29 1.56c1.2.75 2.36 1.48 3.57 2.22s2.57 1.78 3.87 2.74c6.38 4.63 13 9.43 21.83 8.67 2.54-.32 5-3.26 5.59-5.64a11.24 11.24 0 0 0 .55-3.38 6.41 6.41 0 0 0-2-5 105.94 105.94 0 0 0-14.39-9.36c-3.18-1.81-6.16-3.59-9.07-5.54 6.92-6.08 14.77-13.91 18.45-23.25a15.55 15.55 0 0 0 .64-4.43 12.45 12.45 0 0 0-3.77-9.34c-15.61-12.45-42.5-13.11-58.86-1.53" fill="#ed6d26"/><path d="M180.23 11.44h-.13c-.88.51-2.16 3.13-2.16 5.79a6.12 6.12 0 0 0 .24 1.75 7 7 0 0 0 4.32 4 11 11 0 0 0 7.27-.82c6.89-2 20-4.58 29.89 0l1.38.64-.39 1.2-.42 1.24c-3.43 5.47-8.29 10.09-13 14.52l-2.72 2.65c-4.29 4.18-9 7.89-13.46 11.49l-.22.18A144.26 144.26 0 0 0 176.06 67a4.78 4.78 0 0 0-.81 3.08l.05 1a6.5 6.5 0 0 0 2.33 4.54h.14c.78.7 3.73 2.5 5.76 1.84 5.66-1.79 10.38-5.85 14.95-9.73l5.92-4.88c1.27-1.07 3-2.57 5.36-2.23a9.39 9.39 0 0 1 3.72 1.66l.23.14 1.92 1.21 1.63 1 3.21 2.22.75.55c6.15 4.46 12.51 9.05 20.71 8.36 1.65-.21 3.65-2.58 4.1-4.37a9.81 9.81 0 0 0 .51-3 4.85 4.85 0 0 0-1.4-3.69A103.08 103.08 0 0 0 231 55.63c-2.77-1.6-6-3.48-9.17-5.61L220 48.78l1.64-1.43c6.46-5.63 14.3-13.3 18-22.5a14.77 14.77 0 0 0 .55-3.91 10.91 10.91 0 0 0-3.19-8.09C222.05.93 196 .26 180.23 11.44" fill="#fff"/><path d="M181.21 12.8l-.21.14a7.42 7.42 0 0 0-1.36 4.36l.16 1.31a5.5 5.5 0 0 0 3.11 2.84 9.38 9.38 0 0 0 6.07-.69l.16-.08.19-.06c7.12-2 20.61-4.72 31.07 0l2.79 1.28-1 2.62-.41 1.2-.06.19-.11.17c-3.53 5.67-8.47 10.34-13.24 14.88l-2.73 2.61a175.94 175.94 0 0 1-13.5 11.63l-.24.18a145.46 145.46 0 0 0-14.63 12.73 4.29 4.29 0 0 0-.35 1.94l.06.87a4.76 4.76 0 0 0 1.64 3.27l.07.06.11.08h.06c.72.63 3 1.85 4.16 1.5 5.34-1.67 9.93-5.62 14.39-9.42l5.93-4.87c1.32-1.13 3.57-3 6.66-2.6a10.79 10.79 0 0 1 4.38 1.89l.23.15h-.1c.37.17.92.53 2 1.21l1.61 1 3.3 2.3.77.55c5.9 4.26 12 8.68 19.59 8 .68-.11 2.28-1.82 2.61-3.1a8.83 8.83 0 0 0 .42-2.58 3.16 3.16 0 0 0-.81-2.42 102.88 102.88 0 0 0-13.79-9c-2.81-1.6-6.09-3.53-9.31-5.68L217.3 49l3.27-2.87c6.26-5.5 13.9-12.93 17.48-21.79a12.92 12.92 0 0 0 .48-3.36 9.17 9.17 0 0 0-2.67-6.83C221.5 2.65 196.45 2 181.21 12.8" fill="#ed6d26"/><path d="M321.41 2.68a5 5 0 0 0-2.65 3.6 8.74 8.74 0 0 0 .81 5.91c.57 1.13 1.15 2.29 1.66 3.47a61.2 61.2 0 0 0 2.65 5.54c.56.91 1.07 1.77 1.69 2.63a6.19 6.19 0 0 0 2.43 2.48 5.83 5.83 0 0 0 4.25 0 6.11 6.11 0 0 0 3.67-4 16.6 16.6 0 0 0 .78-6.31 10.27 10.27 0 0 0-1-3.58 36.81 36.81 0 0 0-2.95-5A14 14 0 0 0 328 2.9a7.91 7.91 0 0 0-6.61-.22" fill="#a64d99"/><path d="M322.1 4.2a3.42 3.42 0 0 0-1.76 2.42 9.7 9.7 0 0 0-.15 1.64 6.73 6.73 0 0 0 .82 3.19l1.7 3.56a52.63 52.63 0 0 0 2.57 5.4l1.59 2.44.27.41c.59.83.9 1.25 1.49 1.49a4.12 4.12 0 0 0 3 0 4.42 4.42 0 0 0 2.67-2.92 14.33 14.33 0 0 0 .68-5.69 8.39 8.39 0 0 0-.83-2.95l-.19-.38a32.81 32.81 0 0 0-2.62-4.44 12.43 12.43 0 0 0-4.1-3.93 6.25 6.25 0 0 0-5.17-.21" fill="#fff"/><path d="M322.87 5.73a1.44 1.44 0 0 0-.82 1.2l-.14 1.33a5.41 5.41 0 0 0 .62 2.43l1.72 3.6c.75 1.71 1.59 3.59 2.54 5.28l1.53 2.4.21.32c.47.62.66.86.81.92a2.29 2.29 0 0 0 1.72-.06 2.77 2.77 0 0 0 1.67-1.91 12.06 12.06 0 0 0 .6-5 6.49 6.49 0 0 0-.64-2.33l-.18-.39a34.2 34.2 0 0 0-2.51-4.2 11.32 11.32 0 0 0-3.49-3.41 4.62 4.62 0 0 0-3.67-.18" fill="#a64d99"/><path d="M93.28 2.25a4.77 4.77 0 0 0-4.4 2.48c-1.15 2.09-1.18 5.14-.12 8.1l.07.12.14.24 1.62 2.91c1.26 2.46 2.69 5.25 5.86 6.62 2.64.86 6.22.23 8-2.48a9.36 9.36 0 0 0 1-8.59c-1.88-4.65-6.74-9.59-12.17-9.4" fill="#e71f20"/><path d="M93.34 3.92a3.18 3.18 0 0 0-3 1.62 6.28 6.28 0 0 0-.68 3.05 10.77 10.77 0 0 0 .67 3.63l1.71 3c1.23 2.36 2.44 4.74 5 5.9 1.94.58 4.68.16 6-1.83V19.14a7.59 7.59 0 0 0 .73-6.89c-1.65-4.23-6-8.51-10.49-8.37" fill="#fff"/><path d="M93.39 5.6c-1.18 0-1.4.45-1.53.73a4.64 4.64 0 0 0-.5 2.26 9.22 9.22 0 0 0 .55 3l1.61 2.89c1.12 2.18 2.16 4.17 4.12 5.11a3.69 3.69 0 0 0 4-1.12v-.08l.1-.14.07-.07a6.23 6.23 0 0 0 .49-5.23c-1.43-3.62-5.21-7.43-8.9-7.31M77.46 3.15H77.29c-4.4 1.74-4.75 6.8-4.87 8.46a15.35 15.35 0 0 0 8.86 14.81h.12l.13.06c1.27.32 5.11 1.34 7.75-1.22l.1-.12.08-.11c2.91-3.94-.36-8.5-1.64-12.36-1.09-3.26-2.2-6.62-5.49-9.07l-.1-.08-.11-.06a5.83 5.83 0 0 0-4.66-.4" fill="#e71f20"/><path d="M77.91 4.77c-3.06 1.2-3.64 4.56-3.82 7v.89A13.65 13.65 0 0 0 82 24.94c1.86.46 4.4.86 6.14-.78a4.13 4.13 0 0 0 .86-2.61 15 15 0 0 0-1.62-5.48l-1.1-2.77c-1-3.17-2-6.14-4.9-8.28a4.21 4.21 0 0 0-3.42-.25" fill="#fff"/><path d="M78.45 6.37c-1.62.68-2.43 2.39-2.68 5.53v.75a11.94 11.94 0 0 0 6.8 10.69c2.09.5 3.43.42 4.26-.33a2.52 2.52 0 0 0 .45-1.46 14.5 14.5 0 0 0-1.48-4.82l-1.12-2.8c-1-3.07-1.9-5.63-4.22-7.46a2.62 2.62 0 0 0-2-.1M53.08 8.53a8.73 8.73 0 0 0-5.21 2.23 11.62 11.62 0 0 0-2.68 3.64 8.61 8.61 0 0 0 1 8.08l.07.1.11.1a93.86 93.86 0 0 1 27.79 44.17c1.37 3.75 5.4 4.43 6.92 4.7 3.22.26 6-.88 8.52-3.47l.09-.07.06-.09c1.35-1.8 1.83-4.19 1.37-7.17-4.2-16.5-12.91-31.67-25.9-45.22l-2.37-2.15c-2.18-2-4.1-4-7.13-4.67a10.3 10.3 0 0 0-2.64-.18" fill="#e71f20"/><path d="M53.21 10.21A6.85 6.85 0 0 0 49 12a9.61 9.61 0 0 0-2.29 3 6.61 6.61 0 0 0-.45 2.51 6.39 6.39 0 0 0 1.21 3.89 95.76 95.76 0 0 1 28.27 45c.86 2.37 3.4 3.12 5.52 3.5a8.87 8.87 0 0 0 7.09-3 6.53 6.53 0 0 0 1.18-4 10.48 10.48 0 0 0-.15-1.8C85.33 45 76.78 30 64 16.7l-2.29-2.07-.64-.6c-1.84-1.71-3.42-3.18-5.72-3.69a8.5 8.5 0 0 0-2.14-.13" fill="#fff"/><path d="M53.33 11.88a5.09 5.09 0 0 0-3.14 1.35 7.79 7.79 0 0 0-1.89 2.42 5.71 5.71 0 0 0-.3 1.87 4.79 4.79 0 0 0 .84 2.82 97.29 97.29 0 0 1 28.54 45.57c.41 1.11 1.7 1.88 4.12 2.29a7 7 0 0 0 5.59-2.39 4.84 4.84 0 0 0 .83-3l-.12-1.41c-4.07-15.81-12.47-30.46-25-43.55l.08.06c-.39-.34-1-.91-2.27-2.05l-.66-.62C58.2 13.65 56.85 12.4 55 12a5.91 5.91 0 0 0-1.68-.13M26.86 18.24h-.19c-3.91.56-6.51 2-8 4.57C11.23 39.23 5.32 53 .44 67.53a9 9 0 0 0 2.26 9.2c1.61 1.27 3.44 2.75 6.1 2.68a7.43 7.43 0 0 0 7.4-4.21c4-12.49 12.43-33.38 16.05-42.32l1.89-4.7a10 10 0 0 0 0-5.91c-.94-2.61-4.51-4.11-7.26-4" fill="#e71f20"/><path d="M26.92 19.92c-3.36.49-5.56 1.7-6.72 3.73C12.84 39.78 6.94 53.53 2 68.08a7.32 7.32 0 0 0-.36 2.22 7.43 7.43 0 0 0 2.2 5.21c1.42 1.13 2.87 2.27 4.88 2.2h.2a5.73 5.73 0 0 0 5.69-3.18c4-12.53 12.41-33.3 16-42.2l1.89-4.8a7.35 7.35 0 0 0 .34-2.37 7.16 7.16 0 0 0-.37-2.35c-.64-1.79-3.47-3-5.6-2.91" fill="#fff"/><path d="M27.1 21.59c-2.75.41-4.53 1.35-5.43 2.87-7.3 16-13.17 29.7-18 44.12A5.59 5.59 0 0 0 5 74.28c1.34 1.09 2.37 1.8 3.66 1.77h.44a4.06 4.06 0 0 0 4-2.16c4-12.6 12.4-33.3 16-42.17l1.9-4.79a7.07 7.07 0 0 0 .21-1.74 5.22 5.22 0 0 0-.28-1.81c-.28-.81-2.13-1.79-3.83-1.79" fill="#e71f20"/><path d="M268.3 27.44l-2.55.33a34.68 34.68 0 0 0-5.33.89 12.54 12.54 0 0 0-4.94 2.34c-2 1.89-2.47 5.87-1.66 8.39.89 2.8 3.24 5.73 6.57 6.13h.18L277 44.21a42 42 0 0 1 4.79-.42c1.25 0 3.41-.17 4.5.56.83.55.87 1.79.87 2.67a13.58 13.58 0 0 1-4.29 9.9c-.87.83-1.75 1.63-2.63 2.42-3.47 3.1-7.3 6.56-7.3 11.67 0 4 1.92 6.32 5.59 7.68h.11l.28.11a11.54 11.54 0 0 0 11-2.87 52.9 52.9 0 0 0 9-11.17 53.77 53.77 0 0 0 3.33-6.44c.94-2.29 1.71-4.56 2.48-6.9a25.09 25.09 0 0 0 1-4.11 6.85 6.85 0 0 1 .45-1.94c.73-1.47 1.82-1 3.09-1.07 1.5 0 3 0 4.47-.05 3.12-.12 6.24 0 9.37-.08h2c3.82 0 6.57-1.23 8.16-3.66l.05-.1.05-.11a11.1 11.1 0 0 0 1-4.7 10.58 10.58 0 0 0-.74-4c-1.73-3.15-5.37-4.45-8.77-4.74-2.52-.18-5.13-.1-7.63-.11h-2.35c-15.16-.26-30.84-.48-46.58.67" fill="#a64d99"/><path d="M268.46 29.09l-2.49.34-.81.09a26.2 26.2 0 0 0-4.26.77 10.45 10.45 0 0 0-4.27 2 6.32 6.32 0 0 0-1.51 4.49 7.89 7.89 0 0 0 .29 2.16c.7 2.24 2.59 4.64 5.17 5l16.25-1.35h.32a40.74 40.74 0 0 1 4.6-.4h.48c1.5 0 3.57-.05 5 .87 1.62 1 1.62 3.09 1.62 4.07A15.26 15.26 0 0 1 284 58.12l-2.68 2.48c-3.32 3-6.72 6-6.72 10.43 0 3.15 1.31 4.92 4.5 6.1l.28.11a10 10 0 0 0 9.31-2.45A52.68 52.68 0 0 0 297.48 64a49.12 49.12 0 0 0 3.2-6.24c.93-2.19 1.65-4.36 2.44-6.77a20.37 20.37 0 0 0 .92-3.82l.06-.28a6.19 6.19 0 0 1 .55-2.16 3.6 3.6 0 0 1 3.91-2h5.09l6-.06h5.51c3.23 0 5.5-1 6.73-2.89a9.49 9.49 0 0 0 .84-4 9.09 9.09 0 0 0-.57-3.24c-1.67-2.93-5.33-3.67-7.4-3.83l-5.32-.12h-4.51c-15.2-.23-30.79-.48-46.43.65" fill="#fff"/><path d="M268.61 30.77l-2.42.32-.83.1a29.65 29.65 0 0 0-4 .69 10.71 10.71 0 0 0-3.59 1.64 4.81 4.81 0 0 0-1 3.26 5.48 5.48 0 0 0 .23 1.65c.5 1.65 1.88 3.49 3.67 3.77.53 0 16-1.34 16-1.34h.27a43.07 43.07 0 0 1 4.81-.41h-.29.72c1.72 0 4.1-.06 5.91 1.14 2.41 1.54 2.41 4.41 2.41 5.48a16.87 16.87 0 0 1-5.28 12.27l-2.74 2.52c-3.19 2.87-6.19 5.55-6.19 9.21 0 2.44.87 3.59 3.42 4.53h.11a8.22 8.22 0 0 0 7.71-2A51.06 51.06 0 0 0 296 63.11a53.48 53.48 0 0 0 3.11-6c.89-2.14 1.6-4.28 2.38-6.66a21 21 0 0 0 .86-3.51v-.28a9.11 9.11 0 0 1 .72-2.66 5.27 5.27 0 0 1 5.52-3h.57-.15l4.55-.1h11.52c2.57 0 4.32-.7 5.25-2a8 8 0 0 0 .64-3.17 7.39 7.39 0 0 0-.42-2.47c-1.31-2.21-4.3-2.78-6-2.91l-2.55-.14-2.67-.07H314.86c-15.11-.22-30.69-.48-46.27.65" fill="#a64d99"/><path d="M106.77 31.26c-3.56.25-6.33 1.82-7.6 4.35A11.32 11.32 0 0 0 98 40.5a8.83 8.83 0 0 0 8.54 8.89c8.33-.59 17-.83 25.44-1.08l16.4-.58a63.57 63.57 0 0 1 6.53.24c4.73.34 9.2.7 12-1.39 2.7-2.3 3.15-6.83 2.07-9.76-1.41-3.6-4.89-5.67-10.44-6.15-3.46-.3-34.38-.8-51.78.59" fill="#0086cc"/><path d="M106.91 32.93c-3 .21-5.23 1.46-6.23 3.43a9.3 9.3 0 0 0-1 4.15 7.27 7.27 0 0 0 .45 2.58 7.15 7.15 0 0 0 6.42 4.63c8.25-.57 16.8-.83 25.07-1.08l16.68-.57a60 60 0 0 1 6.71.22c4.42.34 8.57.65 10.89-1 2-1.69 2.39-5.43 1.49-7.82-1.13-3-4.11-4.68-9-5.09-3.41-.29-34.1-.77-51.48.59" fill="#fff"/><path d="M107 34.61c-2.37.17-4.14 1.08-4.84 2.49a7.76 7.76 0 0 0-.8 3.41 5.5 5.5 0 0 0 .33 2 5.42 5.42 0 0 0 4.9 3.49c8.3-.58 16.78-.83 25-1.05l16.67-.61a68.76 68.76 0 0 1 6.89.25c3.9.31 7.93.62 9.74-.73 1.29-1.13 1.58-4.09.92-5.88-.87-2.32-3.37-3.64-7.58-4-3.39-.29-33.91-.75-51.21.61" fill="#0086cc"/></svg>