<svg xmlns="http://www.w3.org/2000/svg" width="2500" height="2500" viewBox="0 0 192.756 192.756"><g fill-rule="evenodd" clip-rule="evenodd"><path fill="#fff" d="M0 0h192.756v192.756H0V0z"/><path fill="#fff" stroke="#000" stroke-width=".216" stroke-miterlimit="2.613" d="M152.623 62.467l35.881 16.755-16.701 35.882-35.936-16.702 16.756-35.935z"/><path fill="#33348e" stroke="#000" stroke-width=".216" stroke-miterlimit="2.613" d="M91.96 78.522l36.042-16.271 16.271 36.097-36.097 16.27L91.96 78.522z"/><path fill="#fff" stroke="#000" stroke-width=".216" stroke-miterlimit="2.613" d="M66.262 62.521l35.933 16.755-16.754 35.935-35.934-16.755 16.755-35.935z"/><path fill="#cc2229" stroke="#000" stroke-width=".216" stroke-miterlimit="2.613" d="M4.252 79.384l35.88-16.756 16.756 35.935-35.881 16.702L4.252 79.384z"/><path d="M132.475 94.415l-2.91-6.627a3.869 3.869 0 0 0-2.102-1.939c-.807-.323-1.67-.323-2.531.054-.055 0-.27.269-.377.269l.377-.7c.432-.27.646-.377.861-.377 1.562-.809 3.125-1.67 4.633-2.802l.27.108 4.635 10.128c-.27.216-.646.646-1.24 1.455-.754.701-1.4 1.455-1.939 1.886-.592.431-1.238 1.293-2.047 1.994-.809.916-1.562 1.562-2.316 1.993-.539.593-1.51 1.239-2.855 1.778-.162.161-.377.161-.594.431-3.824 1.562-7.111 2.263-9.75 1.939-2.586-.108-4.795-1.132-6.412-2.694-1.615-1.67-3.178-3.879-4.418-6.68-1.885-4.095-1.777-7.758.324-11.099l.916-1.455c.539-.808 1.078-1.778 1.562-2.478.646-.755 1.615-1.67 2.963-2.748 1.131-1.023 2.801-1.939 4.795-2.909.107 0 .27-.108.432-.216 1.346-.484 3.123-1.131 5.225-1.778 2.047-.754 3.609-1.131 4.688-1.455l.27.108c0 1.562.215 3.232.646 4.741v.808c-.215-.323-.484-.754-.809-1.078-.432-.485-.861-.862-1.4-.862-.484-.162-2.047 0-4.473.539-2.477.646-4.686 1.293-6.355 2.101-2.316 1.078-4.096 2.316-5.334 3.394-1.348 1.239-2.047 2.748-2.209 4.688-.162 2.047.322 4.579 1.562 7.488 1.508 3.233 3.395 5.442 5.549 6.681 2.102 1.347 4.418 1.777 6.68 1.724 2.316-.27 4.58-.809 7.004-1.777.107-.162.324-.27.432-.27 1.348-.593 2.531-1.239 3.34-1.886a11.03 11.03 0 0 0 2.209-1.67c.535-.537.698-.807.698-.807z" fill="#fff"/><path d="M159.412 74.05h2.693c1.508 0 2.748.162 3.879.593 1.186.108 2.586.701 4.363 1.401 3.395 1.562 5.766 3.448 7.004 5.441 1.293 2.047 1.887 4.148 1.617 6.303-.324 2.263-.971 4.741-2.209 7.543-.109.107-.217.431-.217.646-2.209 4.472-5.441 6.896-9.805 7.327l-2.531.161c-2.803.378-5.389 0-7.49-.97-4.094-1.939-6.787-3.986-8.242-6.195-1.562-2.102-2.102-4.31-1.777-6.465.215-2.208 1.023-5.118 2.262-8.351.107-.215.217-.539.324-.754.969-1.993 2.424-3.502 4.148-4.687 2.102-1.131 4.094-1.993 5.981-1.993zm7.381 2.802c-1.939-1.023-3.826-1.67-5.281-1.939-1.453-.323-2.693-.27-3.77 0-.971.431-1.994.916-2.586 1.939-.863.809-1.725 2.316-2.748 4.418-.107.215-.162.377-.324.592-1.723 3.664-2.369 7.112-1.832 10.237.486 3.34 3.018 6.088 7.49 8.135h.215c3.018 1.401 5.441 2.263 7.326 2.425 1.779.215 3.232-.107 4.203-.862.861-.7 1.723-1.886 2.479-3.448.27-.377.43-.808.539-1.023.16-.323.268-.7.43-1.023 1.4-3.34 2.264-5.98 2.641-7.704.539-1.778.107-3.664-1.023-5.873-1.24-2.101-3.771-4.094-7.381-5.764-.109-.11-.218-.11-.378-.11zM73.05 74.212l2.64-.054c1.455.054 2.693.054 3.825.484 1.293.27 2.748.701 4.417 1.401 3.502 1.617 5.819 3.556 7.112 5.549 1.347 1.939 1.724 4.148 1.508 6.357-.162 2.155-.97 4.687-2.263 7.488 0 .216-.108.431-.215.647-2.102 4.471-5.334 7.003-9.751 7.38l-2.478.162c-2.802.269-5.388-.162-7.597-1.132-3.933-1.831-6.788-3.879-8.243-6.033-1.347-2.155-2.101-4.364-1.778-6.573.323-2.263 1.131-4.957 2.37-8.405.108-.215.27-.431.27-.646.97-1.994 2.371-3.556 4.256-4.687 1.94-1.238 3.988-1.938 5.927-1.938zm7.435 2.64c-2.102-.916-3.987-1.508-5.441-1.939-1.455-.27-2.694-.27-3.664.162-1.131.27-1.939.862-2.694 1.778-.754.97-1.67 2.532-2.748 4.525 0 .108-.162.377-.162.647-1.778 3.609-2.478 7.058-1.939 10.182.431 3.232 2.963 6.088 7.542 8.136h.108c3.125 1.454 5.549 2.209 7.435 2.424 1.778.107 3.125-.107 4.148-.97.97-.7 1.886-1.778 2.532-3.179.216-.539.431-.97.646-1.293 0-.161.215-.593.269-1.023 1.455-3.34 2.317-5.98 2.748-7.65.377-1.778 0-3.717-1.131-5.819-1.186-2.101-3.718-4.094-7.435-5.872.001-.002-.214-.002-.214-.109zM33.021 120.545l.054 2.802c-.323-.216-.754-.485-1.239-.485-.593-.107-1.078-.215-1.509-.215h-.377c-1.023 0-2.047.215-2.64.7-.7.484-1.023 1.185-1.023 1.831 0 .377 0 .7.162.971 0 .215.377.592.646.7.215.215.539.484 1.024.538.323.162.808.27 1.347.27h.162c.108 0 .108-.107.108-.107h.107v-1.4s-.107-.108-.215-.108h-.378-.592v.108h-.215l.215-1.778h4.903v4.203c0 .107.107.377.107.377.162.054.162.216.323.323-.162 0-.323.107-.431.107h-.216c-.27 0-.485.108-.593.108-.215.107-.431.107-.593.107-.323 0-.646.162-1.023.162-.377.107-.97.107-1.508.107-1.185 0-2.101-.107-3.017-.27a7.029 7.029 0 0 1-2.209-1.023c-.7-.323-1.185-.809-1.616-1.4a3.755 3.755 0 0 1-.593-1.994c0-1.347.809-2.531 2.209-3.34 1.347-.809 3.125-1.131 5.226-1.131H32.535c.109-.001.324-.163.486-.163zm.323-.216v-.107h-.485c-.108 0-.215.107-.215.107l-.215.108h-.916c-.27 0-.485-.108-.754-.108h-1.131c-2.209 0-4.041.485-5.603 1.293-1.508.809-2.155 2.048-2.155 3.556 0 .7.162 1.562.539 2.155.377.431 1.023 1.132 1.616 1.509.593.323 1.562.754 2.424 1.023 1.078.216 1.994.216 3.179.216h1.616c.377 0 .808-.216 1.186-.216h.323s.108-.107.323-.107c0 0 .27-.162.485-.162h.808v-.107l.162-.108c-.27-.215-.539-.431-.539-.7v-4.633H28.443l-.216.216-.107 1.993v.107H29.466v.97c-.431 0-1.023 0-1.239-.161-.323-.108-.593-.323-.916-.432-.215-.161-.485-.377-.485-.592-.215-.324-.215-.701-.215-.971 0-.646.215-1.239.916-1.616.593-.431 1.509-.7 2.424-.7.593 0 1.293.162 1.724.27.646.216 1.185.323 1.562.7h.324v-.161l-.217-3.342zm6.627 1.724V123.185l.107.162h.108l.162-.216h.054c.377-.484.862-.809 1.186-.916.323-.162.916-.377 1.724-.377h.378v2.425h-.916c-.97 0-1.616.107-1.993.592-.377.323-.593.809-.593 1.401v2.693c0 .216.377.431.593.646h-4.903c.27-.216.485-.431.485-.646 0-.377.108-.7.108-.916v-4.202c0-.377-.108-.7-.108-.97 0-.215-.215-.539-.485-.809h4.093v.001zm.431-.108v-.107h-.054-5.173v.214c.484.27.7.485.7.809.107.27.107.593.107.97v4.202c0 .323 0 .646-.107.916 0 .216-.216.431-.7.809v.107h.27l5.818.107c.054 0 .054-.107.054-.107h.161v-.107h-.161v-.162c-.431-.216-.646-.431-.646-.646 0-.27-.108-.593-.108-.916v-1.454c0-.701.216-1.132.593-1.455.162-.377.646-.593 1.616-.593h.539c.27 0 .377 0 .593.108l.27-.108v-2.855h-.162c-.107 0-.323-.054-.323-.054h-.377c-.539 0-1.239.054-1.724.216-.431.215-.916.484-1.186.809v-.703zm5.603 2.425v-2.425c.162 0 .377.107.593.107h1.401c.324 0 .647-.107.916-.107h1.186c.054 0 .323-.107.539-.107h.593c.269 0 .431.107.593.107a4.91 4.91 0 0 1 1.508.27c.485.107.916.216 1.132.432.27.215.593.484.7.808v4.579c0 .216.162.539.162.916 0 .216.215.431.593.646h-4.256v-.323l-.162-.107v-.216h-.485c-.27.216-.7.431-1.023.646-.377.162-.97.27-1.562.27-1.023 0-1.832-.27-2.424-.7-.7-.323-.916-.916-.916-1.509s.216-1.131.808-1.508c.485-.485 1.347-.701 2.209-.971.485 0 1.024-.161 1.509-.161H51.504v-.162c0-.323-.269-.592-.485-.808-.377-.108-.862-.216-1.186-.216-.215 0-.215-.161-.323-.161h-.377c-.539 0-1.132.161-1.617.269-.596-.001-1.134.215-1.511.431zm5.333 1.886H50.422c-.107 0-.269.107-.323.107h-.27c-.323 0-.592.216-.7.377-.216.108-.377.323-.377.432 0 .215.162.484.377.592.269.27.485.27.97.27h.646c.27-.27.593-.377.754-.484v-1.293h-.269.108v-.001zm-.323.269v.861c0 .162-.27.27-.377.27-.054.107-.485.107-.539.107-.27 0-.485 0-.593-.107s-.27-.323-.27-.484c0-.108 0-.216.162-.323.216-.108.431-.108.431-.27h1.186v-.054zm-5.441-1.778l.162.107h.161v-.107c.485-.216 1.023-.484 1.509-.484.484-.216 1.185-.216 1.724-.216h1.292c.323.216.593.484.593.7h-1.508c-.27 0-.485.107-.862.107-.216 0-.431.162-.647.162-.916.107-1.832.431-2.424.861-.646.485-.97 1.078-.97 1.778s.323 1.293 1.078 1.724c.701.485 1.562.701 2.748.701.593 0 1.186 0 1.562-.216.323 0 .754-.27 1.239-.593v.323c0 .162.107.27.107.27h.162l4.741.107.108-.107h.107v-.107h-.107v-.162h-.108c-.215-.216-.484-.431-.484-.646-.108-.27-.108-.593-.108-.916v-3.286-.484c0-.216-.108-.324-.108-.432 0-.27-.162-.484-.162-.7-.054-.27-.215-.484-.539-.7-.377-.108-.808-.378-1.185-.378-.324-.215-.916-.377-1.347-.377H46.49c-.269 0-.485 0-.593-.054-.161 0-.215.054-.215.054h-.108v3.071zm16.216-2.694v.593h.485v-.216c.323-.108.701-.216 1.024-.378.485-.107.862-.215 1.401-.215 1.185 0 2.37.377 3.017 1.023.754.7 1.186 1.401 1.401 2.263v1.239c0 .377-.215.809-.323 1.186-.162.484-.485.7-.808 1.023-.27.377-.862.593-1.347.808-.539.378-1.078.485-1.832.485-.539 0-1.023-.107-1.508-.27-.323 0-.754-.216-1.239-.593h-.27v.162l-.054.916v.27l.054.107c0 .216 0 .538.162.646.107.27.215.646.431.754h-5.01c.27-.27.485-.484.485-.754.108-.162.215-.539.215-.862v-6.411c0-.377-.107-.7-.107-.97a3.399 3.399 0 0 0-.593-.809h4.416v.003zm0 5.119c.27 0 .485.161.593.161.215.054.485.216.701.216.592 0 1.077-.216 1.4-.485.323-.323.593-.7.593-.915v-.108-.162-.215-.108-.377c-.108-.161-.27-.323-.377-.431-.054-.216-.431-.216-.646-.377-.162-.107-.593-.107-.97-.107h-.701c-.108 0-.323.107-.593.269V127.172zm.485-.216l-.107-2.209c.107-.107.377-.216.431-.216H63.892c.162.216.377.216.484.485.108 0 .27.161.27.323.054.107.161.323.161.538 0 .271-.161.701-.539.862-.215.323-.593.432-1.185.432h-.485c-.054-.108-.323-.108-.431-.216h.108v.001zm0-5.011c0-.107-.107-.107-.107-.107h-5.334l-.161.107.161.107c.323.27.539.378.539.701.162.27.27.593.27 1.077v6.52c0 .215-.108.592-.108.754-.162.27-.377.484-.646.754h-.054l-.161.054v.162l.215.107h6.088l.108-.107h.107l-.107-.216c-.377-.107-.701-.484-.701-.754-.108-.323-.215-.646-.215-1.023v-.593c.377.27.808.377 1.131.484.593.108.97.108 1.508.108.754 0 1.401 0 1.994-.323.7-.27 1.185-.593 1.508-.916.323-.377.593-.593.808-1.078.162-.215.27-.7.377-1.023v-.484c0-.107.107-.378.107-.432 0-.161-.107-.377-.107-.484 0-.216-.108-.323-.108-.593-.27-.809-.754-1.562-1.509-2.101-.754-.701-1.778-1.024-3.178-1.024-.539 0-1.024.054-1.401.054-.323.162-.754.377-1.131.539v-.27h.107zm12.661-2.316v3.232l.107.162.162.107.162-.107c.431-.377.862-.701 1.347-.809.593-.162 1.239-.377 1.994-.377 1.023 0 1.832.377 2.316.809.539.484.754 1.023.754 1.616v4.687c.107.216.377.431.593.646h-4.31v-3.718-.215-.323c0-.162-.108-.162-.108-.216 0-.107-.107-.107-.107-.27 0-.107-.216-.323-.485-.484-.215-.107-.484-.107-.916-.107-.484 0-.808.107-1.077.269-.162.216-.323.593-.323.809 0 .107-.107.323-.107.323v2.37c0 .216.107.539.107.916 0 .216.323.431.485.646h-4.903c.27-.216.485-.431.485-.646.107-.377.269-.7.269-.916v-6.788c0-.216-.162-.538-.162-.808-.107-.216-.323-.593-.593-.809h4.31v.001zm.431-.162l-.162-.054h-5.01c-.162 0-.162.054-.162.054v.162c.27.216.593.593.755.809v8.512c-.162.216-.485.431-.755.809v.107h.162l5.765.107.269-.107v-.107c-.431-.378-.7-.593-.7-.809-.162-.27-.162-.593-.162-.916v-2.21c0-.377.162-.646.27-.808.162-.27.323-.485.808-.485.27 0 .593 0 .701.108.162.107.215.215.215.377.162 0 .27.161.27.323v4.525h.216l5.01.107c.108 0 .108-.107.108-.107v-.107c-.323-.378-.7-.593-.7-.809v-4.687c0-.593-.377-1.239-.916-1.832-.485-.593-1.401-.809-2.64-.809-.646 0-1.347.054-1.832.216-.432.107-1.078.377-1.509.593v-2.962h-.001zm12.929 2.586V128.949c0 .216.377.431.647.646h-5.064c.215-.216.485-.431.485-.646.215-.377.215-.7.215-.916v-4.202-.97a10.598 10.598 0 0 1-.7-.809h4.417v.001zm0-2.208c0 .377-.215.862-.538 1.077-.324.216-.97.323-1.509.323-.485 0-1.078-.107-1.455-.323-.215-.215-.431-.7-.431-1.077 0-.378.215-.539.431-.916.377-.216.97-.323 1.455-.323.539 0 1.185.107 1.509.323.323.377.538.538.538.916zm.486 0c0-.378-.324-.809-.809-1.024-.377-.377-.97-.592-1.724-.592-.646 0-1.186.215-1.67.592-.485.216-.7.646-.7 1.024 0 .484.215.862.7 1.185.485.216 1.024.432 1.67.432.754 0 1.347-.108 1.724-.323.485-.431.701-.809.701-1.293h.108v-.001zm0 2.1c0-.107-.108-.107-.108-.107h-5.387v.214c.484.27.592.378.592.701.215.27.215.593.215 1.077v5.118c-.215.216-.323.431-.646.646l-.161.162v.107h.161l5.926.107.108-.107h.108v-.107h-.108l-.108-.162c-.377-.216-.592-.431-.592-.646 0-.27-.108-.593-.108-.916v-6.088h.108v.001zm9.966-.107v2.693c-.162-.161-.539-.269-.754-.269-.377-.216-.754-.216-1.078-.216-.323 0-.7 0-.916.107-.27.108-.754.216-.916.377-.162.108-.377.323-.377.485-.215.161-.215.431-.215.646 0 .215 0 .485.215.7 0 .216.216.377.377.593.162.107.646.216.916.377.215 0 .7.054 1.022.054.324 0 .701-.054.971-.054.215 0 .592-.161.754-.161l-.053 2.693h-.379c-.107 0-.215-.107-.322-.107h-.27c-.107 0-.215.107-.377.107h-.915c-1.724 0-3.071-.485-4.256-1.293-1.185-.809-1.724-1.724-1.724-2.909 0-.916.539-1.993 1.724-2.64 1.186-.701 2.532-1.186 4.256-1.186h.754c.162 0 .324.107.432.107h.699c.109 0 .27-.107.379-.107h.053v.003zm.377-.162l-.107-.054h-.323c-.109 0-.27.054-.27.054H97.24c-.055 0-.324-.054-.431-.054h-.377c-1.724 0-3.34.431-4.525 1.132-1.239.808-1.832 1.777-1.832 2.909 0 1.186.593 2.37 1.832 3.179 1.078.754 2.586 1.239 4.525 1.239h2.587s.107 0 .107-.108l.107-3.124v-.108h-.323c-.215.108-.594.216-.809.323-.377.108-.754.108-1.078.108-.323 0-.592 0-.915-.108a2.845 2.845 0 0 1-.593-.323c-.27-.161-.431-.377-.431-.484-.162-.107-.27-.378-.27-.593 0-.216.108-.323.108-.539.162-.107.323-.377.593-.377 0-.107.215-.216.593-.216.215-.161.592-.161.808-.161.324 0 .701 0 1.078.161.322 0 .701.216.916.323l.107.162.215-.162v-.107l-.107-3.072zm5.926-.862h5.711c1.133 0 2.049.107 3.018.323.809.107 1.617.323 2.209.7.646.377 1.186.809 1.4 1.509.484.484.701 1.185.701 1.993v.107c0 .593-.217 1.293-.701 1.886-.377.431-.916 1.132-1.67 1.509a7.864 7.864 0 0 1-2.262.646c-.809.107-1.779.107-2.803.107h-5.604c.379-.216.539-.431.539-.646 0-.27.162-.593.162-.916v-5.603c0-.378-.162-.755-.162-.97.001-.214-.159-.43-.538-.645zm5.011 6.735h.916c1.023 0 1.832-.216 2.209-.7.322-.485.592-1.024.592-1.671 0-.161 0-.646-.107-.915-.162-.216-.215-.432-.484-.701-.109-.215-.539-.431-.809-.538-.484-.162-.916-.162-1.4-.162h-1.133s-.16 0-.16.162v4.31l.16.216.216-.001zm.215-.377l-.107-4.041h.809c.484 0 .916 0 1.186.216.215 0 .592.215.646.323.268.269.377.377.377.7.107.27.27.646.27.808 0 .485-.27 1.078-.646 1.401-.162.484-.916.754-1.832.754h-.809l.106-.161zm-5.711-6.734h-.053c0 .107-.162.27-.162.27h.162v.107l.053.107c.27.107.594.323.594.539.107.215.107.592.107.97v5.603c0 .323 0 .646-.107.916 0 .216-.324.431-.594.646h-.053v.162h-.162v.107h.215l6.088.107c1.023 0 1.994-.107 2.855-.107.971-.107 1.777-.485 2.479-.916.809-.377 1.4-.916 1.885-1.4.217-.7.539-1.293.539-1.886 0-.108.162-.216.162-.216v-.107c0-.809-.27-1.509-.701-2.209-.377-.484-.969-1.078-1.561-1.455-.646-.431-1.51-.754-2.426-.754-.809-.215-1.992-.484-3.125-.484h-6.195zm25.752 5.71H123.206v.215c.217.377.701.7 1.186.97.432.216 1.131.323 1.67.431h.97c.592 0 1.186-.107 1.615-.215.594 0 .916-.216 1.4-.377l-.484 2.586h-.27c-.053 0-.322-.162-.432-.162h-.644c-.162 0-.27.162-.27.162h-.594c-.215 0-.539.107-.809.107h-.807c-.809 0-1.617-.107-2.316-.27-.809-.216-1.617-.431-2.102-.754-.432-.377-1.023-.809-1.24-1.293-.377-.485-.592-1.023-.592-1.671 0-.538.215-1.131.432-1.615.215-.432.699-.916 1.131-1.239.646-.377 1.238-.701 1.885-.809.701-.162 1.455-.377 2.371-.377 1.994 0 3.232.484 3.934 1.347.701.863 1.078 1.94 1.078 2.964zm-3.771-1.401c0-.216-.215-.484-.484-.7a2.241 2.241 0 0 0-1.238-.377c-.432 0-.916.161-1.186.377-.324.216-.594.484-.701.7l.107.107.162.162h3.125c.107 0 .215-.162.215-.162v-.107zm-.322-.107l-2.801.107c.107-.216.377-.484.484-.593.215-.107.539-.216.916-.216.322 0 .592.108.809.108.268.216.43.484.43.7l.162-.106zm4.418 1.723h.107v-.323-.377c-.107-.916-.592-1.993-1.293-2.802-.809-.809-2.154-1.239-4.148-1.239-.916 0-1.777.054-2.586.323-.701.27-1.4.485-1.832.916-.592.323-.969.809-1.186 1.401a2.985 2.985 0 0 0-.484 1.615c0 .701.162 1.294.484 1.778.217.593.701.916 1.293 1.293.701.431 1.4.646 2.209.916.701.216 1.617.216 2.533.216H127.463c.27 0 .486-.108.756-.108.16 0 .43-.107.645-.107h.379s.053.107.215.107c.107 0 .107.108.107.108h.377s.107-.108.107-.216l.594-3.017v-.108h-.325l-.27.108c-.484.215-.914.323-1.4.484-.43 0-1.023.216-1.615.216h-.487c-.592 0-1.131-.216-1.723-.377a2.25 2.25 0 0 1-1.186-.809H130.643v.002zm8.08-4.525l.27 2.425a1.501 1.501 0 0 0-.969-.324c-.162-.107-.646-.107-.863-.107h-.485c-.107 0-.377.107-.484.107-.215.108-.215.216-.215.324 0 .269.215.484.322.592.377.162.594.323 1.078.485h.215v.107c.107 0 .27.107.377.107.324.108.754.485 1.023.701.486.323.594.593.594 1.077 0 .755-.377 1.509-1.023 1.832-.863.431-1.887.7-3.18.7h-.699c-.217 0-.486-.107-.701-.107s-.432-.162-.701-.162h-.916c-.215 0-.322.162-.43.162l-.217-2.694c.324.27.756.485 1.078.485.484.215 1.078.215 1.51.215h.377c.107 0 .377 0 .484-.107s.107-.27.107-.323c0-.161 0-.27-.215-.377-.107-.107-.377-.216-.486-.377-.107 0-.268-.054-.268-.054-.109-.162-.162-.162-.324-.162l-.215-.107c0-.107-.217-.107-.217-.107a9.148 9.148 0 0 1-1.186-.809 1.61 1.61 0 0 1-.646-1.293c0-.7.432-1.293 1.078-1.616.754-.378 1.67-.593 2.693-.593H136.459c.107 0 .215.107.215.107h1.725c.163 0 .163-.107.324-.107zm.486-.216l-.217-.161h-.269c-.053 0-.16.161-.322.161-.107.054-.377.054-.432.054h-1.778c-.215 0-.484-.054-.701-.054-1.184 0-2.209.216-3.016.593-.756.432-1.24 1.132-1.24 1.832 0 .593.217.97.539 1.293.377.323.861.538 1.293.916l.162.107c.539.216.916.377 1.078.485.377.215.646.323.646.484l-.162.216h-.485c-.432 0-1.025 0-1.51-.216-.322-.161-.861-.377-1.238-.593l-.107-.161-.162.161c-.055 0-.055 0-.055.108l.217 3.017c0 .107.107.216.107.216h.377l.107-.108c.107 0 .215-.107.322-.107h.916c.27 0 .486.216.701.216h1.401c1.293 0 2.479-.216 3.34-.701.863-.431 1.293-1.131 1.293-2.047 0-.484-.16-.97-.537-1.185-.379-.271-.809-.594-1.186-.809h-.269c-.432-.216-.863-.485-1.131-.593-.217-.107-.594-.216-.594-.484h.162c0-.108.107-.216.107-.216h.809c.215 0 .646.107.916.216.27 0 .592.269.807.269l.109.108.16-.108h.109l-.267-2.909zm6.195.431V128.949c0 .216.215.431.432.646h-4.742c.107-.216.484-.431.484-.646 0-.377.109-.7.109-.916v-4.202c0-.377-.109-.7-.109-.97 0-.215-.377-.539-.484-.809h4.31v.001zm0-2.208c0 .377-.27.862-.594 1.077-.377.216-.914.323-1.4.323-.592 0-1.186-.107-1.4-.323-.432-.215-.646-.7-.646-1.077 0-.378.215-.539.646-.916.215-.216.809-.323 1.4-.323.486 0 1.023.107 1.4.323.325.377.594.538.594.916zm.432 0c0-.378-.324-.809-.809-1.024-.324-.377-1.078-.592-1.617-.592-.699 0-1.4.215-1.723.592-.486.216-.594.646-.594 1.024 0 .484.107.862.594 1.185.322.216 1.023.432 1.723.432.539 0 1.293-.108 1.617-.323.484-.431.592-.809.592-1.293h.217v-.001zm0 2.1c0-.107-.217-.107-.217-.107h-5.225v.214c.484.27.699.378.699.701 0 .27.107.593.107 1.077v4.202c0 .323-.107.539-.107.916 0 .216-.215.431-.484.646h-.107l-.107.162v.107h.215l5.711.107c.107 0 .27-.107.27-.107h.053v-.107h-.053v-.162h-.162c-.324-.216-.592-.431-.592-.646 0-.27-.217-.593-.217-.916v-6.088h.216v.001zm2.1 10.345l-.322-3.018c.322.323.807.485 1.4.593.432.216 1.023.216 1.615.377h1.24c.377 0 .809 0 1.186-.161.377 0 .539-.108.807-.216.27-.107.486-.27.486-.485.215-.215.215-.431.215-.808v-.107h-.215c-.324.107-.754.215-.916.377-.377 0-.809.107-1.293.107-1.293 0-2.371-.377-3.287-.916-.754-.7-1.238-1.508-1.238-2.37 0-1.132.539-2.102 1.723-2.802 1.025-.539 2.695-1.023 4.258-1.023h.969c.377 0 .701.107 1.186.107h3.232c-.215.27-.484.485-.484.701V128.948c0 .216-.055.646-.217 1.023-.107.378-.322.593-.699.97-.432.162-1.133.646-1.832.916-.701.216-1.617.323-2.316.432H150.632c-.592 0-1.023-.108-1.508-.108h-.27H147.938v.109h-.002zm6.626-8.243c-.215 0-.432-.108-.539-.108h-.484c-.484 0-1.186.108-1.4.324-.27.269-.432.592-.432.915v.269c0 .107 0 .216.055.431l.377.378c0 .107.215.27.484.323H154.132c.217 0 .217-.054.432-.054v-2.478h-.107.105zm-.376.216v1.993c-.055 0-.162.107-.162.107h-1.186c-.16-.107-.215-.215-.484-.215-.107-.271-.215-.324-.215-.485 0 0-.107-.216-.107-.323a1.1 1.1 0 0 1 .322-.809c.27-.269.701-.269 1.186-.269h.322l.324.001zm-6.68 8.188l.107.054h.484s.055-.054.162-.054h1.077c.109 0 .27.054.432.054h4.094c.701-.054 1.562-.323 2.156-.431.754-.216 1.508-.7 1.939-1.078.215-.215.539-.431.539-.646.27-.27.377-.485.377-.755v-.431V123.561c0-.215.107-.538.107-.915 0-.216.377-.432.484-.701h.217v-.269h-1.402H154.562c-.215 0-.539-.054-.969-.054-1.832 0-3.342.323-4.58 1.024-1.293.808-1.887 1.724-1.887 3.017 0 .916.594 1.67 1.402 2.425.916.754 2.209 1.077 3.609 1.077.484 0 .807 0 1.131-.162.27 0 .592-.054.861-.161 0 .161 0 .323-.107.538-.162 0-.162.216-.43.216-.055.162-.324.27-.539.27h-1.887a8.83 8.83 0 0 1-2.047-.27c-.592-.216-1.186-.431-1.615-.754h-.217l-.162.107.381 3.502zm17.4-10.398V123.132h.269v-.107l.215-.162s.217-.107.217-.215a4.8 4.8 0 0 1 1.186-.594 6.18 6.18 0 0 1 1.615-.215c1.4 0 2.316.377 2.693 1.023.324.593.539 1.293.539 2.155v3.933c0 .216.217.431.594.646h-4.418V125.555v-.215-.323s-.109-.162-.109-.27-.268-.216-.484-.377c-.215-.107-.43-.107-.807-.107-.486 0-.809 0-1.025.269-.215.216-.484.485-.484.646v3.771c0 .216.27.431.484.646h-4.902c.27-.216.594-.431.594-.646v-5.118-.97c0-.215-.324-.539-.594-.809h4.417v.001zm.377-.108c0-.107-.107-.107-.107-.107h-5.226v.214c.486.27.539.378.539.701.109.27.27.593.27 1.077v4.202c0 .323-.16.539-.16.916-.109.216-.162.431-.432.646h-.217v.269h.217l5.656.107c.107 0 .27-.107.27-.107v-.107c-.484-.378-.701-.593-.701-.809-.107-.27-.215-.593-.215-.916V125.876v-.215c0-.216.215-.539.324-.809.107-.215.43-.323.916-.323h.592c.107.108.215.216.215.323 0 .162.217.27.217.323v4.687h.268l5.012.107.107-.107h.162v-.107h-.162c-.322-.378-.592-.593-.701-.809 0-.27-.107-.593-.107-.916v-3.017-.27-.377c0-.7-.377-1.239-.699-1.939-.486-.593-1.51-.809-2.91-.809-.701 0-1.4.054-1.832.216-.484.215-.969.484-1.4.7v-.593h.104v.004z"/><path d="M14.165 81.27v-.646c.323-.108 1.131-.216 1.778-.485.97-.323 1.886-1.185 2.748-2.047l.269-.054c1.455 2.909 2.425 4.957 3.017 6.357.647 1.347 1.67 3.233 2.748 5.657 1.131 2.37 2.371 4.58 3.448 6.573.916 2.155 2.209 4.256 3.017 6.034 2.586-.701 5.011-1.562 6.681-2.425 2.317-1.023 4.472-2.586 6.465-4.147.215-.216.431-.432.431-.647v-.916c-.108-.215 0-.701-.108-.701l.108-.431 1.131 4.795-16.701 7.812-10.722-21.713c-1.078-2.208-2.532-3.232-4.31-3.016z" fill="#fff"/></g></svg>