<svg xmlns="http://www.w3.org/2000/svg" width="2500" height="2500" viewBox="0 0 192.756 192.756"><g fill-rule="evenodd" clip-rule="evenodd"><path d="M0 0h192.756v192.756H0V0z"/><path d="M125.188 129.547c-1.174 3.466-1.514 4.773-1.955 7.433 0 0 .277 4.726-6.674 7.785 0 0-3.498 3.748-5.521 8.639-.109.269-.191 2.207-.293 2.482-1.947 5.283-9.201 6.396-16.153 5.006 0 0-3.893.834-6.951-6.395 0 0-7.849-7.703-9.82-7.532 0 0-.212-2.55-1.58-6.372-1.394-3.891-4.171-8.619-4.171-8.619s-2.224-5.283 1.39-2.502c0 0 5.333 5.68 8.392 15.133l7.997 8.549.799-2.827 2.4.621.716 2.592.111-2.647 2.427.056.496 2.427.276-2.262 1.969-.229.898 2.822.396-2.389 3.023-.591.662 1.324.023 1.057 2.225-2.503 5.006-3.614 2.781-3.337 3.893-5.839c-.001-.002 4.974-9.601 7.238-8.268z" fill="#fff"/><path d="M126.16 128.768c-.477.925.547-.756 6.803-4.302 8.342-4.727 8.064-11.123 8.064-11.123s4.449-2.779 10.566-7.785c6.117-5.005 13.068-16.405 16.684-24.469 3.615-8.064-3.336-2.781-3.336-2.781l-1.668 4.171s-6.396 10.844-13.904 18.352c-7.508 7.507-8.342-3.894-8.342-3.894s.834-8.619-.279-21.132c-1.111-12.513-8.902-20.417-16.41-25.701-7.508-5.284-21.961-7.388-27.244-7.11-5.283.278-20.159 1.808-34.062 17.379-12.011 13.452-8.515 34.899-8.515 34.899 1.956 8.435-3.79 5.257-3.79 5.257-.489.489-4.89-2.812-6.846-5.379-1.956-2.568-3.423-5.134-6.602-11.369-3.179-6.235-5.257-11.614-5.257-11.614-.611-3.178-4.156-4.034-3.545-.611.61 3.424 1.956 5.99 1.956 5.99 5.33 19.926 19.193 30.318 19.193 30.318 3.545 1.833 6.235 6.724 6.235 6.724 1.1 1.956 1.711 3.912 3.056 7.335s8.708 3.801 8.708 3.801-13.074-7.374-8.068-18.775c0 0 2.363-6.534 9.871-2.503 0 0 4.31-4.448 10.566-2.363l-.278-1.529s-12.792-4.588-12.652-14.459c.139-9.872 6.534-30.17 38.095-29.752 31.559.417 34.049 32.855 34.049 33.272 0 .417.986 24.009-1.516 28.04-2.504 4.032-5.145 6.117-5.701 6.674s-5.682 4.151-5.831 4.439z" fill="#fff"/><path d="M114.891 138.369c-2.643 4.112-2.721 5.307-4.141 6.897l-1.641-.672 1.471-3.723.418-3.615h-.695v1.947s-1.391 1.111-3.477 1.251c-2.086.138-1.252-.14-1.252-.14l-.693-2.502-1.391 2.502-5.006.14-.75-1.31-.897 1.367-3.775-.197-.819-1.515-2.239 1.515s-1.668 1.112-3.336-2.642c0 0-1.252 1.946-.556 4.449 0 0-.695 3.476-3.059-.556 0 0-.974-2.92-1.251-3.894-.279-.973-.279-.277-.279-.277s-1.251-2.92-1.807-3.476c-.556-.557-2.364-3.615-7.786-6.813-5.423-3.197-10.845-6.396-10.983-13.069-.139-6.673 3.198-10.982 7.786-6.812 0 0 1.529 11.399 13.069 9.176 0 0 7.229-2.641 9.453.556 0 0 2.503 1.252.695 5.84h.974s1.251-7.786-2.363-13.765c-3.615-5.978-5.145-5.839-6.952-7.09-1.808-1.252-9.593-6.396-10.01-6.535-.417-.139-10.009-5.795-2.578-19.696 6.385-11.944 15.341-13.485 16.87-14.181 1.529-.695 16.155-6.164 31.448.927 15.295 7.09 21.133 20.019 17.102 45.185v9.176s-1.113 6.674-12.512 10.983c0 0-6.396 6.674-8.342 8.898l-.696 1.671zm-11.957-15.988l1.668.417-.277-5.562s8.898-3.894 11.816 1.946c0 0 5.562 3.615 9.455-5.7 0 0 13.764-7.507 7.09-14.181 0 0-4.311-2.781-10.982-.279-6.675 2.504-20.718 7.926-18.77 23.359zm-9.455 5.422s-3.476 2.642.417 2.225c0 0 1.252-1.112 2.643-.14 0 0 1.25 1.252 3.059.14 0 0 1.807-.834 2.779-.278 0 0 1.807.695 1.947-.416.139-1.113-1.668-1.67-2.363-2.086-.695-.417-1.809-1.391-1.809-1.391s-1.807-4.449-4.448-.139c0 0-1.112 1.668-2.225 2.085z" fill="#fff"/></g></svg>