<svg xmlns="http://www.w3.org/2000/svg" width="2500" height="2500" viewBox="0 0 192.756 192.756"><g fill-rule="evenodd" clip-rule="evenodd"><path fill="#fff" d="M0 0h192.756v192.756H0V0z"/><path d="M73.658 79.684l.846-5.741c.084-.567.126-.946.126-1.052 0-.189-.126-.315-.296-.315-.232 0-.93.8-1.099 1.01l-.359-.295c.465-.589 1.754-2.166 2.473-2.166.423 0 .592.189.592.694 0 1.282-.338 2.65-.423 3.933h.042l1.522-2.061c1.099-1.473 1.966-2.566 2.643-2.566.401 0 .571.168.571.546 0 .757-.846 4.438-.846 5.763 0 .168 0 .336.021.505l1.015-.883.253.357c-.317.274-1.987 2.271-2.241 2.271-.253 0-.359-.147-.359-.715 0-.715.846-5.721.846-6.057a.212.212 0 0 0-.211-.211c-.422 0-1.775 1.809-2.938 3.387-.634.861-.74 1.534-1.015 3.596h-1.163zm-8.752-3.197c0 1.998.973 3.344 2.368 3.344 2.452 0 4.207-3.049 4.207-5.362 0-1.998-.973-3.344-2.368-3.344-2.452 0-4.207 3.049-4.207 5.362zm1.311-.253c0-1.199.74-4.227 2.135-4.227 1.29 0 1.818 1.514 1.818 2.713 0 1.198-.74 4.227-2.136 4.227-1.288 0-1.817-1.513-1.817-2.713zm-7.928 2.019c.465.442 1.12.82 1.776.82 1.036 0 1.628-.504 1.628-1.514 0-1.746-2.918-1.578-2.918-3.828 0-1.493 1.205-2.607 2.707-2.607.507 0 1.036.105 1.522.252v1.451c-.486-.568-1.036-.947-1.818-.947-.825 0-1.396.526-1.396 1.325 0 1.535 2.917 1.304 2.917 3.827 0 1.768-1.332 2.797-3.065 2.797-.402 0-.761-.084-1.142-.21l-.211-1.366zm-1.754-11.356c.296 0 .507.21.507.694 0 .547-.211 1.22-.804 1.22-.296 0-.507-.211-.507-.694 0-.547.211-1.22.804-1.22zm-.212 11.146c-.338.336-1.733 1.787-2.199 1.787-.126 0-.232-.084-.232-.357 0-1.388.761-5.047 1.015-6.793h-.105l-.782.841-.169-.505c.232-.273 1.628-1.893 2.029-1.893.254 0 .338.125.338.336 0 .315-.74 4.627-1.015 6.834l.888-.609.232.359zm-8.774 1.641l.846-5.657c.084-.673.105-.862.105-.988 0-.189-.021-.315-.126-.315-.148 0-.846.925-.951 1.051l-.318-.189c.36-.505 1.586-2.46 2.326-2.46.318 0 .381.189.381.504 0 .778-.211 2.292-.253 2.65h.041c.401-.989 1.564-3.154 2.833-3.154.232 0 .465.021.677.063l-.402 1.241c-.169-.021-.381-.105-.592-.105-1.5 0-2.558 3.049-2.854 4.122-.295 1.052-.401 2.166-.592 3.239h-1.121v-.002zm-6.468 0l.845-5.657c.084-.673.106-.862.106-.988 0-.189-.021-.315-.127-.315-.148 0-.846.925-.951 1.051l-.317-.189c.36-.505 1.585-2.46 2.326-2.46.316 0 .38.189.38.504 0 .778-.211 2.292-.253 2.65h.042c.402-.989 1.565-3.154 2.833-3.154.232 0 .465.021.677.063l-.402 1.241c-.169-.021-.38-.105-.592-.105-1.501 0-2.558 3.049-2.854 4.122-.296 1.052-.402 2.166-.592 3.239h-1.121v-.002zm-3.066-8.559l-.085.378c-.127 0-.275-.021-.401-.021-2.875 0-5.771 3.428-5.771 6.415 0 1.451.338 1.935.951 1.935 1.163 0 3.425-2.818 4.271-3.575h.042c-.042.505-.486 1.956-.486 2.902 0 .63.19.925.529.925.528 0 1.839-1.892 2.241-2.313l-.402-.21c-.296.441-.634.883-1.1 1.136l1.396-7.571h-1.185v-.001zm-.74 3.722c-.105.694-2.685 3.68-3.679 3.68-.338 0-.528-.358-.528-.967 0-1.956 1.395-5.278 3.552-5.278.317 0 .592.062 1.057.294l-.402 2.271zm-4.607-17.293l-.175.087.204.232v.464h-.233l-.029.61-.613 1.045-.029.32-.204.406v.319l-.205.145-1.956 4.938h-.088l-.029.232-1.168 3.456L27.91 71l.379.116.555-.261.292.174.642-.029.059.116h.467v-.087l.467-.174.234.116-.146.117.146-.029.117.32-.234.174.029.32-.234.145-.087.145-.233.029-.116.232-1.957.087v-.145l-.467.029-.088-.146-.235.087-.379.552-.409 1.742-.117 2.353.117 1.452.409 1.453.234.145.233-.319.233-.116.204-.233.146.087.059-.465.204-.261.263-.087-.029-.232.204-.117.409-.145V78l.321-.029.204-.32.233.058-.058.32-.583.9-1.168 1.307-.38.145-.234.029.029.32-.845.318-.087.116-.438.088-.701.349-.321-.146-.408-.581-.029-.319-.175-.377-.117-.785.117-.697-.146-1.481-.088-.059.205-.464.088.058-.088-.29-.029-.406.175-1.22.321-.813.058-.784v-.232l.292-.406-2.802.146.058-.175-.292.029-.175.406-.058-.174-2.103.291-.292.175-.788.116-.379.174-.321-.087-.321.203-.438.029v.146l-.38-.146-.467.261-.233-.058-.322.145-.525.116-.061.144-.555.029-.146.175-.234.028-.495 1.278h-.058l-.058.232-.234.261-1.868 2.701-.994.756-.087-.059-.146.146-.438.174.088.087-.321.145-.759.465-.379.175-.789.116-.379.087h-.322l-.088-.146-.467.174-.146-.144-.555.028-.145-.058v-.145l-.555.029v-.145l-.409-.233-.146-.204-.321-.087-.263-.349h-.146v-.087l-.438-.29-.467-1.625-.029-.872.205-.406.058-.407.146-.175.672-.58.525-.349 1.022-.261.291.03.029.319-.379.348-.233.087v.058l-.205.117-.233.377.088 1.394.146.088.116.378.146.203.117.407h.146l.262.493.818.785 1.664.058.672-.058v-.146l1.051-.377.087-.145.088.115.233-.232.204-.29.088.145.204-.348h-.146l.087-.146h.234v-.145l.233-.581.029.32.205-.407.175-.058v-.319l.059.145.146-.494.497-.64.087-.231-.117-.146.175.059v-.146l.351-.494-.087-.349-.379.146-.234.029-.146.233-.321-.087-.292.261-1.985.812-.117-.377.408-.406.088-.29.38-.437 2.686-1.452.38.116.467-.174-.321-.087.205-.233v.174l.233-.232.059-.581-.148.117.701-1.219.38-1.801.292-.639.205-1.946.117-.494v-.377h.146l.146-.552-.029-.232.233-.261-.029-.377.117-.377-.146-.087.058-.377.175.377.175-1.162.146-.349-.117-.203.175-.029v-.146l-.175-.145.292-.319.379-.262v-.319l.759-.174.146.145v-.232l.205-.175.321.059.146.697-.964 3.834-.788 2.09-.117.697-.321.871-.263.929-.701 1.685v.145l-.146.174-.175.755.73-.116 1.431-.291 1.022-.146.642-.261.555-.117.175.639.409-.203.117-.523.467-.261.555-.029.234.058.35-.174 2.891-.233.231-.057v.145l.701-.291.438.116.088-.609.204-.465.146-.087.292-.784-.029-.174.35-.755-.028-.232-.088-.087.175-.029.059-.319.292-.61.059-.465-.146-.058.117-.552.351-.581-.029-.232.233.087.467-1.336.409-.494.088-.494.262-.058-.087-.319.321-.581v-.232l.204-.349-.029-.291.351.058-.088-.29.117-.349-.146-.116.292-.232.205-.668.263-.465.087-.319.146-.087v-.291l.817-.436.146-.174.406.059zm66.978 37.212l.443-3.028h1.27l-.445 3.028h1.777l-.105.526h-1.756c-.105.863-.74 4.732-.74 5.531 0 .378.191.82.381.82.232 0 .697-.799.91-.989l.379.295c-.275.252-1.5 2.376-1.838 2.376-.721 0-1.143-1.619-1.143-2.312 0-.841.654-4.753.783-5.72h-1.439l.107-.526h1.416v-.001zm-7.85 8.558l.846-5.861c.084-.697.105-.894.105-1.023 0-.196-.021-.327-.127-.327-.148 0-.846.959-.952 1.089l-.317-.195c.359-.523 1.586-2.55 2.326-2.55.317 0 .38.196.38.523 0 .806-.212 2.375-.254 2.745h.042c.402-1.024 1.565-3.269 2.833-3.269.232 0 .465.022.676.065l-.401 1.286c-.169-.022-.38-.109-.592-.109-1.501 0-2.559 3.159-2.854 4.271-.296 1.09-.401 2.244-.592 3.355h-1.119zm-14.855-1.634c.465.458 1.121.85 1.776.85 1.036 0 1.627-.522 1.627-1.568 0-1.809-2.917-1.635-2.917-3.966 0-1.547 1.206-2.701 2.706-2.701.508 0 1.036.108 1.522.261v1.503c-.486-.588-1.036-.98-1.818-.98-.824 0-1.395.544-1.395 1.372 0 1.591 2.917 1.352 2.917 3.966 0 1.831-1.332 2.897-3.066 2.897-.401 0-.761-.087-1.141-.218l-.211-1.416zm-7.557.789c-.019.287-.041.467-.069.547-.04.113-.188.267-.445.46a54.5 54.5 0 0 0-.892.674l-.293-.16-.695.8c-.349.027-.71.147-1.091.354l-.806-.273-.598.273-.282.354c-.19-.286-.332-.434-.41-.434-.042 0-.077.04-.105.12l-.153-.04-.402.354-.123-.434-.272.12c-.109-.18-.243-.273-.404-.273h-.997l-.14-.414-.368.08-.375-.354-.379.201-.062-.475h-.459l-.134-.447h-.366c-.031 0-.059-.1-.084-.293a.89.89 0 0 0-.259-.508l-.721-.647c-.428-.341-.648-.928-.66-1.762h-.366l-.223-.801-.589-.914-.486-1.527-.247-.114-.246-.647c-.024-.079-.198-.193-.517-.354-.184.107-.329.16-.443.16-.089 0-.175-.053-.246-.16l-.015.041c-.009.027-.035.04-.077.04h-.318l-.107-.567c.171-.16.334-.427.498-.801l.438-.16.083-.233.437-.114c.184-.133.333-.2.458-.2.079 0 .155.033.226.1.065.067.111.1.132.1.031 0 .077-.04.147-.12-.076.48.277.721 1.06.721.684 0 1.244-.081 1.682-.254l.041-.113 2.396-.12c.668-.354 1.299-.527 1.899-.527l.17.08.604-.233.221-.24.356.04.553-.234h.339c.172 0 .289-.02.342-.067.058-.046.115-.146.171-.307l.054-.153c.27-.04.414-.094.436-.153.88-.261 1.431-.708 1.652-1.335a1.15 1.15 0 0 0-.029-.874l-.587-1.274h-.245c-.343-.374-.582-.567-.712-.567h-.308l-.501-.354h-.381l-.258-.407h-.715l-.235-.161-1.658-.153-.217-.213-.23.133-.302-.133-.387.133-.866-.133-1.01.213-.43-.213-.592.08-.462-.08-.457.213-.229-.133-.722.447-.416-.08a8.855 8.855 0 0 1-.83 1.001l-.003.567-.917 2.322-.493 1.995c-.554.927-.872 1.501-.96 1.722l-2.028 5.117-.796 2.937-.736 1.561-.14.394c-.074.207-.31.313-.711.313h-.12l.7-1.548.064-.606.305-1.642.237-.153c-.106-.407-.142-.674-.097-.801.088-.247.302-.515.639-.801l-.031-.647h-.031c-.042 0-.058-.014-.049-.04.05-.14.312-.514.776-1.114-.072-.193-.056-.447.056-.761l.323-.647.111-.313c.259-.333.432-.614.512-.841.088-.247.126-.561.117-.934l.451-.667.121-.607.256-.194a.823.823 0 0 1 .053-.414c.068-.193.255-.514.552-.954l-.336.08.198-1.074.428-.768.426-1.641.225-.194c-.175-.434-.35-.647-.521-.647h-.094l-.327.273-.687-.08-.747.767c-.137-.22-.287-.354-.456-.394-.07-.273-.072-.487-.016-.647.045-.126.111-.253.203-.38.089-.12.208-.233.355-.34l.542-.354.992-.133 1.312-.08.374-.274.04-.113c.145-.407.456-.608.936-.608h.381c-.089.561.005.841.266.841.062 0 .324-.12.783-.354l.701.233 1.304-.233 1.541.233 2.263.08 1.051.274h.887l.202.374c.088-.161.185-.24.284-.24.083 0 .154.08.223.24a.826.826 0 0 0-.046.467l.295.08.183-.514 1.023.647.276.428.103-.114c.133.14.376.233.728.273l.096.334.25.073c.098.667.184 1.162.245 1.488.062.327.046.621-.046.881-.17.48-.484.907-.93 1.268-.454.367-.964.821-1.534 1.368l-.326.02-.252.021c-.062 0-.273.093-.635.273l-.238.334h-.888l-.342.274c-.061.053-.181.113-.356.18l-.521.173c-.527 0-1.096.281-1.702.841L61 95.027l-.541.274c-.062-.073-.132-.113-.205-.113-.12 0-.317.113-.601.353l-.343-.24-.498.24-.066-.24-.71.414-.709-.121a1.78 1.78 0 0 0-.503.081l.114.547.464.841.042.486.803 1.194.042.647.1.294c.031.073.039.434.016 1.074l.826.04.51 1.228.402.294.495.547.568.253.767.474.378-.08.097.154.088-.074.029.274.481-.12-.053.413.454-.293.323.133 1.117-.133.381.133 1.632-.333 1.254-.387-.01.232.387-.486h.475l.378-.548zm15.095-2.88c0-1.242.739-4.379 2.135-4.379 1.289 0 1.818 1.569 1.818 2.811s-.74 4.379-2.135 4.379c-1.29-.001-1.818-1.569-1.818-2.811zm-1.311.261c0 2.069.972 3.464 2.367 3.464 2.453 0 4.208-3.159 4.208-5.555 0-2.07-.973-3.465-2.368-3.465-2.452.001-4.207 3.16-4.207 5.556zm-11.918-.798c.993-.514 1.719-1.062 2.181-1.652.311-.41.445-.818.399-1.226-.034-.306-.134-.549-.301-.728a.79.79 0 0 0-.602-.273c-.24 0-.466.098-.67.298-.277.262-.49.662-.637 1.193a11.026 11.026 0 0 0-.37 2.388zm3.592 1.546l.376.47c-1.41 1.655-2.688 2.484-3.825 2.484-.464 0-.836-.171-1.118-.513-.281-.338-.466-.888-.55-1.641-.169-1.521.084-3.034.764-4.541.759-1.713 1.801-2.568 3.122-2.568.464 0 .832.127 1.103.378s.434.6.483 1.041c.052.462-.044.917-.288 1.364s-.715.913-1.416 1.394c-.354.236-1.114.658-2.283 1.27-.015.383-.003.75.036 1.1.057.505.169.854.338 1.055.169.2.393.298.673.298.267 0 .548-.079.85-.243.406-.223.984-.671 1.735-1.348z" fill="#33348e"/><path d="M188.799 110.841l-16.984-23.892-15.25-26.915-.75 1.425s-6.627 12.59-7.234 13.747l-4.328-1.237-5.273 10.891-6.33-11.172-.75 1.425-5.256 9.985-3.201-.915-7.217 14.903-10.457 13.83a48.716 48.716 0 0 0 1.721-.395c13.041-2.942 19.178-2.432 23.393-1.256 2.535.676 4.367 1.603 6.514 2.21 1.393.371 2.93.602 4.883.54 9.965-.312 9.012-4.877 21.445-3.602 1.811.186 3.268.485 4.506.832 2.676.713 4.34 1.653 6.252 2.188 2.822.72 6.301.515 14.328-2.57l-.012-.022z" fill="#345b4c"/><path d="M188.902 110.828c-16.338 6.296-13.932.739-25.18-.414-12.434-1.275-11.48 3.29-21.445 3.602-10.201.319-9.086-7.293-34.789-1.494-18.576 4.603-21.178-5.39-31.379-5.071-9.966.312-11.158 6.695-23.591 5.42-11.249-1.154-11.158-8.926-27.417-1.595-11.769 5.309-17.248 2.552-21.392.32l-.874 1.602c4.144 2.231 10.497 5.716 22.266.408 16.259-7.332 16.168.44 27.417 1.594 12.433 1.275 13.625-5.107 23.591-5.42 10.201-.318 12.803 9.674 31.379 5.071 25.703-5.798 24.588 1.813 34.789 1.495 9.965-.312 9.012-4.878 21.445-3.603 11.248 1.153 9.859 6.273 26.197-.022l-1.017-1.893z" fill="#28539c"/><path d="M170.641 64.299c-3.785 0-7.059 2.241-8.562 5.466l7.574 13.366c.324.034.654.052.988.052 5.207 0 9.443-4.235 9.443-9.442 0-5.206-4.236-9.442-9.443-9.442z" fill="#ecb73b"/><path d="M127.867 86.549s3.713-7.057 4.838-9.192l11.518 20.327-11.633-4.434-4.027 4.131c-.883-.394-4.959-2.204-4.959-2.204l-5.764 4.612 6.541-13.509 3.154.901.332-.632zm21.936-9.891s5.602-10.64 6.818-12.954l16.307 28.777-16.371-6.241-5.463 5.604-6.742-2.996-2.143 1.714-2.176-3.842 5.158-10.653 4.279 1.223.333-.632z" fill="#fff"/><path d="M35.567 126.115c.004.378.024.754.064 1.126.04.372.092.739.161 1.104l-.651.13c-.113-.609-.399-1.071-.86-1.384-.462-.311-1.091-.467-1.885-.467-1.069 0-1.901.319-2.49.955-.592.636-.887 1.529-.887 2.68 0 1.226.321 2.199.963 2.928.643.729 1.496 1.094 2.563 1.094a3.659 3.659 0 0 0 1.41-.277l.018-.764c.006-.314.009-.515.009-.596 0-.627-.075-1.019-.227-1.175-.149-.156-.478-.235-.985-.235h-.188v-.574c.446.021.825.035 1.135.044a29.027 29.027 0 0 0 1.747 0 62.6 62.6 0 0 0 1.199-.044v.574h-.187c-.339 0-.563.076-.671.23-.108.156-.161.585-.161 1.289v.632a16.633 16.633 0 0 0 .051 1.333c-1.015.225-1.76.369-2.242.438a9.459 9.459 0 0 1-1.309.104c-1.538 0-2.774-.434-3.705-1.302-.933-.867-1.399-2.018-1.399-3.447 0-1.466.506-2.649 1.519-3.554 1.011-.904 2.336-1.356 3.972-1.356a9.25 9.25 0 0 1 1.524.129 9.527 9.527 0 0 1 1.512.385zm13.774 4.475c0-1.217-.282-2.193-.845-2.933s-1.302-1.108-2.217-1.108c-.878 0-1.578.327-2.099.984-.522.659-.783 1.547-.783 2.669 0 1.224.284 2.207.854 2.95.57.744 1.311 1.115 2.222 1.115.88 0 1.58-.327 2.094-.985.516-.658.774-1.555.774-2.692zm-2.959-5.003c.682 0 1.293.093 1.83.279a4.7 4.7 0 0 1 2.695 2.495c.284.629.424 1.296.424 2.002 0 1.398-.475 2.566-1.423 3.497-.95.934-2.139 1.399-3.566 1.399-.743 0-1.414-.121-2.017-.365a4.561 4.561 0 0 1-1.597-1.085 4.625 4.625 0 0 1-.983-1.544 4.968 4.968 0 0 1-.338-1.839c0-.717.141-1.384.422-2.002a4.649 4.649 0 0 1 1.228-1.612 4.952 4.952 0 0 1 1.546-.904 5.154 5.154 0 0 1 1.779-.321zm9.94.237c.365.022.71.038 1.034.049a25.887 25.887 0 0 0 1.749 0c.324-.011.7-.026 1.124-.049v.581c-.026 0-.062-.002-.11-.007-.046-.004-.079-.007-.097-.007-.361 0-.604.108-.734.321-.13.217-.194.702-.194 1.459 0 .11.002.312.007.604.004.293.006.53.006.716l.013 4.524c.009 0 .022.003.037.007.555.033.975.051 1.259.051 1.078 0 1.784-.112 2.118-.335.335-.224.609-.648.825-1.275l.594.181a18.12 18.12 0 0 0-.359 1.179c-.105.396-.196.794-.275 1.199-.759-.026-1.465-.044-2.118-.058a90.918 90.918 0 0 0-1.792-.02 67.612 67.612 0 0 0-3.241.078v-.567h.181c.231 0 .409-.024.534-.07a.491.491 0 0 0 .271-.233c.121-.235.185-1.117.193-2.649.004-.195.006-.347.006-.45l.014-1.404c0-.188.002-.437.006-.745.004-.307.006-.521.006-.641 0-.774-.063-1.277-.191-1.516-.125-.235-.366-.354-.72-.354h-.147v-.569h.001zm11.93 8.631c.031.004.064.006.099.009.037.002.092.004.165.004.374 0 .618-.141.734-.42.117-.277.174-.97.174-2.075a24.065 24.065 0 0 0-.013-.761v-1.656c0-.244.002-.599.006-1.062s.006-.81.006-1.038c0-.421-.067-.702-.202-.848-.137-.143-.39-.216-.763-.216h-.117v-.567c.708.027 1.371.045 1.984.058a73.632 73.632 0 0 0 3.387 0c.572-.013 1.166-.03 1.782-.058 0 .335.013.687.038 1.055.026.366.068.763.123 1.188l-.574.077c-.051-.56-.225-.936-.519-1.131-.294-.196-.897-.293-1.813-.293-.185 0-.409.003-.671.009-.262.007-.556.018-.882.031-.009.655-.018 1.254-.024 1.788-.006.535-.013 1.006-.022 1.415l.882.013c.356.005.601.007.728.007.654 0 1.083-.062 1.289-.181.207-.121.319-.348.334-.678l.541.04a24.94 24.94 0 0 0-.083.862 8.248 8.248 0 0 0-.024.627c0 .105.008.343.031.708l.02.438-.535.027v-.117c0-.365-.101-.611-.306-.741s-.655-.193-1.357-.193c-.108 0-.304.002-.59.007-.286.004-.519.006-.704.006h-.227v2.191c0 .658.07 1.069.209 1.232.141.162.418.244.836.244.024 0 .066-.002.119-.007s.097-.007.132-.007v.581l-.387-.021a48.115 48.115 0 0 0-1.777-.057c-.161 0-.526.014-1.096.037-.392.018-.704.031-.935.04v-.567h.002zm29.596-8.313c0 .044-.002.109-.008.202a5.29 5.29 0 0 0-.006.205 12.903 12.903 0 0 0 .16 1.977l-.639.109c-.068-.64-.34-1.137-.818-1.491-.477-.354-1.106-.532-1.889-.532-.997 0-1.769.31-2.316.931-.548.622-.823 1.498-.823 2.633 0 1.226.311 2.2.931 2.926.623.726 1.452 1.089 2.492 1.089.653 0 1.212-.147 1.674-.444.462-.297.835-.748 1.125-1.353l.564.264c-.172.339-.32.671-.449.994-.129.326-.238.647-.328.964a9.332 9.332 0 0 1-1.525.479c-.495.11-.975.165-1.435.165-1.494 0-2.706-.442-3.634-1.326-.928-.887-1.393-2.042-1.393-3.467 0-1.41.486-2.572 1.461-3.484.972-.914 2.206-1.369 3.702-1.369a9.619 9.619 0 0 1 3.154.528zm13.138 4.448c0-1.217-.281-2.193-.844-2.933s-1.303-1.108-2.217-1.108c-.879 0-1.578.327-2.1.984-.521.659-.783 1.547-.783 2.669 0 1.224.283 2.207.854 2.95.57.744 1.312 1.115 2.223 1.115.879 0 1.578-.327 2.094-.985.517-.658.773-1.555.773-2.692zm-2.957-5.003c.682 0 1.293.093 1.83.279s1.031.478 1.482.867c.523.455.928.999 1.211 1.628.285.629.426 1.296.426 2.002 0 1.398-.475 2.566-1.424 3.497-.949.934-2.139 1.399-3.566 1.399-.744 0-1.414-.121-2.016-.365a4.547 4.547 0 0 1-1.598-1.085 4.612 4.612 0 0 1-.984-1.544 4.968 4.968 0 0 1-.338-1.839c0-.717.141-1.384.422-2.002a4.646 4.646 0 0 1 1.227-1.612 5.173 5.173 0 0 1 3.328-1.225zm13.756.237v.581c-.027 0-.062-.002-.109-.007-.047-.004-.082-.007-.104-.007-.363 0-.613.106-.74.319-.129.214-.193.752-.193 1.621V129.808c0 .867.016 1.482.047 1.846.027.363.08.651.152.86.164.513.451.904.863 1.177.414.272.92.409 1.523.409.492 0 .914-.084 1.262-.249s.631-.418.85-.757c.146-.229.25-.525.314-.893.061-.368.092-.913.092-1.639 0-.139-.002-.368-.006-.687-.004-.321-.008-.572-.008-.753v-.675c0-.906-.062-1.477-.193-1.709-.127-.231-.373-.349-.738-.349-.057 0-.1.003-.131.005s-.057.002-.084.002v-.574c.4.022.734.038.998.049s.49.016.68.016c.176 0 .389-.005.641-.016.25-.011.578-.026.982-.049v.581h-.104c-.258 0-.449.028-.574.088a.537.537 0 0 0-.271.306c-.08.214-.131 1.148-.152 2.803 0 .235-.002.418-.008.548v.354c-.008 1.469-.166 2.479-.477 3.029-.309.55-.766.975-1.365 1.275-.602.302-1.303.451-2.102.451-.734 0-1.389-.121-1.957-.365-.568-.242-1.018-.587-1.344-1.034-.246-.334-.42-.722-.523-1.159s-.154-1.091-.154-1.96c0-.23.008-.643.021-1.236.012-.592.02-1.067.02-1.424 0-.752-.062-1.22-.186-1.403-.123-.182-.365-.272-.727-.272h-.152v-.581c.484.022.879.038 1.184.049.301.011.562.016.783.016.199 0 .455-.005.758-.016.306-.01.717-.025 1.232-.048zm13.668 4.563c.229.014.42.022.58.029.16.006.291.011.398.011a11.028 11.028 0 0 0 .897-.04c.373-.239.648-.515.822-.82.174-.308.26-.668.26-1.08 0-.537-.182-.973-.543-1.305-.363-.332-.846-.499-1.449-.499-.184 0-.352.007-.506.02-.15.014-.301.031-.445.058-.006.469-.01.959-.012 1.47-.002.508-.002 1.228-.002 2.156zm-2.887 4.068l.1.009c.033.002.084.004.152.004.352 0 .59-.116.711-.348.123-.232.184-.847.184-1.843v-1.163l.027-1.443a139.89 139.89 0 0 0 .012-1.99c0-.541-.064-.891-.197-1.052-.131-.158-.377-.238-.736-.238h-.137v-.567c.459.022.84.038 1.141.049s.562.016.787.016c.316 0 .711-.012 1.186-.033.473-.02.789-.031.953-.031 1.066 0 1.906.223 2.52.665s.922 1.042.922 1.804c0 .506-.154.955-.463 1.34-.305.387-.768.717-1.381.992l1.264 1.779c.602.938 1.043 1.526 1.318 1.767.277.24.572.36.887.36a.647.647 0 0 0 .074-.006.493.493 0 0 1 .074-.007v.544c-.262.02-.49.037-.684.048a8.99 8.99 0 0 1-.51.016c-.523 0-.934-.058-1.229-.174a2 2 0 0 1-.801-.601c-.111-.132-.385-.562-.826-1.285a89.544 89.544 0 0 0-1.152-1.86l-.709.02c-.205.004-.406.007-.6.007v1.713c0 .658.064 1.071.193 1.241.131.171.383.255.762.255h.18v.581a33.683 33.683 0 0 0-2.141-.064c-.119 0-.297.002-.529.008-.236.007-.686.024-1.352.056v-.569zm20.143-8.351v.141c0 .315.02.637.055.964.039.33.094.669.166 1.017l-.672.11c-.072-.56-.279-.981-.621-1.266-.342-.283-.812-.424-1.408-.424-.555 0-.988.109-1.303.327a1.053 1.053 0 0 0-.471.911c0 .258.064.479.193.667.131.187.328.35.598.492.213.112.578.253 1.094.425.52.171.902.308 1.15.407.564.23.986.534 1.268.908s.422.818.422 1.333c0 .938-.357 1.683-1.074 2.241-.719.559-1.693.839-2.92.839-.404 0-.814-.04-1.227-.119s-.812-.195-1.205-.346c0-.048.002-.109.008-.191.004-.079.006-.138.006-.176 0-.332-.02-.669-.061-1.012a9.736 9.736 0 0 0-.189-1.064l.701-.174c.162.789.428 1.342.789 1.656.363.314.902.471 1.621.471.58 0 1.037-.13 1.373-.388a1.24 1.24 0 0 0 .502-1.035c0-.621-.592-1.138-1.773-1.554-.262-.09-.461-.16-.598-.213-.816-.306-1.402-.66-1.756-1.062-.354-.405-.531-.909-.531-1.517 0-.831.322-1.504.967-2.015.645-.513 1.496-.768 2.559-.768.369 0 .744.033 1.125.099.378.069.784.173 1.212.316zm5.574-.292c.73.03 1.404.053 2.023.068a79.503 79.503 0 0 0 3.625 0 44.44 44.44 0 0 0 1.518-.068 21.312 21.312 0 0 0 .16 2.204l-.58.077c-.059-.537-.238-.899-.533-1.089-.291-.189-.881-.284-1.766-.284-.16 0-.371.003-.637.009-.264.007-.586.018-.969.031-.01.565-.016 1.11-.023 1.63-.006.52-.012 1.019-.021 1.496h.188c.248 0 .559.002.93.007l.744.006c.594 0 .984-.06 1.168-.174.186-.116.281-.338.295-.664l.479.044c0 .216-.008.486-.021.81-.012.326-.02.546-.02.66 0 .116.006.266.012.446s.016.396.029.649l-.543.039v-.076c0-.37-.105-.619-.318-.748-.213-.13-.715-.194-1.504-.194h-1.451v.741c0 .383.004.775.008 1.178s.01.879.02 1.434c.193.026.434.047.725.062.289.015.607.021.949.021 1.027 0 1.711-.107 2.055-.321.342-.216.617-.629.828-1.238l.594.187a17.412 17.412 0 0 0-.621 2.269 160.005 160.005 0 0 0-2.422-.07 76.239 76.239 0 0 0-1.605-.021c-.529 0-1.373.021-2.533.058-.4.013-.701.024-.908.033v-.567c.027.004.055.006.088.009.031.002.08.004.143.004.361 0 .607-.11.736-.332s.193-.803.193-1.742V131.157l.014-1.437c0-.064.002-.161.006-.291.014-.527.02-.889.02-1.082a32.123 32.123 0 0 0-.014-.955c0-.374-.068-.633-.203-.778-.135-.147-.371-.221-.707-.221h-.146v-.581h-.005z" fill="#28539c"/></g></svg>