<svg xmlns="http://www.w3.org/2000/svg" width="2500" height="2500" viewBox="0 0 192.756 192.756"><g fill-rule="evenodd" clip-rule="evenodd"><path fill="#fff" d="M0 0h192.756v192.756H0V0z"/><path d="M8.504 58.04v13.224L21.85 58.04H8.504zM184.252 121.543l-13.295 13.174h13.295v-13.174zM62.646 113.959l-20.948 20.758h32.315l14.017-13.891H62.646v-6.867zM151.395 58.04h-32.317L105.49 71.504h32.315l13.59-13.464zM184.252 58.04h-.543l-13.588 13.464h7.611v24.478l6.52-6.46V58.04zM106.328 134.717h32.315l14.017-13.891h-32.314l-14.018 13.891z"/><path d="M75.75 112.037v1.49c0 2.111-1.103 3.129-3.277 3.129-1.709 0-3.246-.715-3.246-3.303v-5.143c0-2.588 1.537-3.303 3.246-3.303 1.879 0 3.277.572 3.277 3.016v1.238h-2.579v-1.555c0-.461-.139-.889-.698-.889-.528 0-.668.428-.668.889v6.35c0 .461.14.889.668.889.559 0 .698-.428.698-.889l.016-1.92h2.563v.001zM82.956 113.354c0 2.588-1.553 3.303-3.262 3.303s-3.262-.715-3.262-3.303v-5.143c0-2.588 1.553-3.303 3.262-3.303s3.262.715 3.262 3.303v5.143z"/><path d="M79.01 113.957c0 .461.14.889.684.889s.684-.428.684-.889v-6.35c0-.461-.14-.889-.684-.889s-.684.428-.684.889v6.35z" fill="#fff"/><path d="M83.544 105.131h3.573l1.646 8.223h.031v-8.223h2.019v11.303h-3.308l-1.91-9.446h-.031v9.446h-2.02v-11.303zM95.35 109.18v-1.588c0-.555-.171-.873-.684-.873-.559 0-.683.318-.683.873 0 1.904 3.945 2.461 3.945 5.951 0 2.129-1.118 3.113-3.277 3.113-1.646 0-3.247-.572-3.247-2.525v-2.094h2.579v1.951c0 .668.202.857.683.857.419 0 .684-.189.684-.857 0-2.555-3.945-2.604-3.945-6.254 0-2.049 1.32-2.826 3.308-2.826 1.74 0 3.215.604 3.215 2.492v1.779H95.35v.001zM98.486 106.846v-1.715h6.182v1.715h-1.803v9.588h-2.578v-9.588h-1.801zM105.193 116.434v-11.303h2.594c2.453 0 3.914.254 3.914 2.635 0 1.414-.576 2.334-1.973 2.572v.031c1.242.031 1.973.508 1.973 2.127v2.365c0 .445.076 1.111.387 1.572h-2.594c-.311-.461-.371-1.127-.371-1.572v-2.396c0-.793-.467-1.191-.934-1.191h-.418v5.16h-2.578z"/><path d="M107.771 109.654c1.164 0 1.352-.396 1.352-1.459 0-1.049-.172-1.445-1.352-1.445v2.904z" fill="#fff"/><path d="M118.953 113.211c-.062 2.396-.871 3.445-3.277 3.445-3.184 0-3.246-2.271-3.246-3.699v-7.826h2.578v8.143c0 .906 0 1.572.668 1.572.699 0 .699-.666.699-1.572v-8.143h2.578v8.08zM126.158 112.037v1.49c0 2.111-1.104 3.129-3.277 3.129-1.709 0-3.246-.715-3.246-3.303v-5.143c0-2.588 1.537-3.303 3.246-3.303 1.879 0 3.277.572 3.277 3.016v1.238h-2.578v-1.555c0-.461-.141-.889-.699-.889-.527 0-.668.428-.668.889v6.35c0 .461.141.889.668.889.559 0 .699-.428.699-.889l.016-1.92h2.562v.001zM126.715 106.846v-1.715h6.183v1.715h-1.802v9.588h-2.578v-9.588h-1.803zM133.975 116.434v-11.303h2.578v11.303h-2.578zM143.711 113.354c0 2.588-1.553 3.303-3.262 3.303s-3.262-.715-3.262-3.303v-5.143c0-2.588 1.553-3.303 3.262-3.303s3.262.715 3.262 3.303v5.143z"/><path d="M139.766 113.957c0 .461.141.889.684.889s.684-.428.684-.889v-6.35c0-.461-.141-.889-.684-.889s-.684.428-.684.889v6.35z" fill="#fff"/><path d="M144.299 105.131h3.574l1.647 8.223h.029v-8.223h2.019v11.303h-3.308l-1.91-9.446h-.032v9.446h-2.019v-11.303zM162.568 112.037v1.49c0 2.111-1.102 3.129-3.275 3.129-1.709 0-3.246-.715-3.246-3.303v-5.143c0-2.588 1.537-3.303 3.246-3.303 1.879 0 3.275.572 3.275 3.016v1.238h-2.578v-1.555c0-.461-.139-.889-.697-.889-.529 0-.668.428-.668.889v6.35c0 .461.139.889.668.889.559 0 .697-.428.697-.889l.016-1.92h2.562v.001zM169.775 113.354c0 2.588-1.555 3.303-3.262 3.303-1.709 0-3.262-.715-3.262-3.303v-5.143c0-2.588 1.553-3.303 3.262-3.303 1.707 0 3.262.715 3.262 3.303v5.143z"/><path d="M165.83 113.957c0 .461.139.889.684.889.543 0 .684-.428.684-.889v-6.35c0-.461-.141-.889-.684-.889-.545 0-.684.428-.684.889v6.35z" fill="#fff"/><path d="M170.084 116.322v-2.16h1.949v2.16h-1.949zM170.023 106.785c0-.861.697-1.496 1.523-1.496.816 0 1.514.635 1.514 1.496 0 .869-.697 1.502-1.514 1.502-.825 0-1.523-.633-1.523-1.502z"/><path d="M171.547 108.039c.678 0 1.213-.533 1.213-1.254 0-.711-.535-1.246-1.213-1.246-.686 0-1.223.535-1.223 1.246 0 .721.537 1.254 1.223 1.254z" fill="#fff"/><path d="M171.229 107.654h-.262v-1.73h.658c.41 0 .611.15.611.492 0 .309-.193.443-.447.477l.492.762h-.295l-.455-.75h-.303v.749h.001z"/><path d="M171.543 106.682c.223 0 .42-.016.42-.281 0-.215-.195-.254-.377-.254h-.357v.535h.314z" fill="#fff"/><path d="M75.543 86.088h2.047V76.81h5.835v25.024H77.59v-9.965h-2.047v-5.781zM74.498 101.834h-5.835V76.81h5.835v25.024zM104.527 82.874h-2.968V76.81h2.968v6.064zM105.59 76.81h9.957v6.064h-4.076v18.96h-5.836l-.045-25.024zM92.41 98.139c-.583-.324-.757-1.035-.757-1.787v-14.06c0-.752.173-1.463.757-1.786v-4.165c-3.542.213-6.591 1.951-6.591 7.287v11.388c0 5.335 3.049 7.074 6.591 7.287v-4.164zM93.686 76.328v4.059c.829.223 1.06 1.038 1.06 1.906v14.059c0 .869-.231 1.684-1.06 1.906v4.059c3.67-.131 6.895-1.812 6.895-7.3V83.628c-.001-5.487-3.226-7.169-6.895-7.3zM146.834 98.139c-.582-.324-.756-1.035-.756-1.787v-14.06c0-.752.174-1.463.756-1.786v-4.165c-3.541.213-6.59 1.951-6.59 7.287v11.388c0 5.335 3.049 7.074 6.59 7.287v-4.164zM148.111 76.328v4.059c.828.223 1.061 1.038 1.061 1.906v14.059c0 .869-.232 1.684-1.061 1.906v4.059c3.668-.131 6.895-1.812 6.895-7.3V83.628c0-5.487-3.227-7.169-6.895-7.3zM129.119 76.81h-5.861v25.024h5.861V76.81zM130.535 76.827v5.332c1.197.384 1.65 1.276 1.65 3.158v8.617c0 1.329-.488 2.175-1.65 2.594v5.275c6.242-.316 7.484-3.066 7.484-7.524v-8.928c.001-6.979-1.925-8.369-7.484-8.524zM163.842 98.127c-.572-.328-.723-1.031-.723-1.775v-14.06c0-.737.166-1.435.723-1.767v-4.182c-3.527.222-6.559 1.964-6.559 7.284v11.388c0 5.728 2.145 7.31 5.977 7.31.189 0 .385-.004.582-.012v-4.186zM165.26 93.013h.951v3.339c0 .83-.209 1.613-.951 1.875v3.922a6.1 6.1 0 0 0 .67-.174c.914-.246 1.758-.701 2.391-1.404l.316 1.264h3.41V88.65h-6.787v4.363zM165.26 76.33v4.088c.742.262.951 1.045.951 1.875v2.913h5.836l.035-2.069c-.068-4.71-2.486-6.649-6.822-6.807zM54.166 58.04L31.598 80.401l16.509-4.303c2.27-.592 4.435-.235 6.267.694 4.356 2.209 3.834 6.385 3.834 6.499v2.765l4.438-4.398V71.504h10.246L86.48 58.04H54.166zM23.783 116.125c-4.518 1.107-9.206-.645-10.27-4.725-.219-.84-.29-1.711-.276-2.586V98.562l-4.733 4.723v31.432H9.1l20.218-20.035-5.535 1.443z"/><path d="M48.75 78.567l-27.542 7.179c-3.312.864-4.811 2.639-4.822 5.986l.006 16.838a7.013 7.013 0 0 0 .227 1.902c.76 2.916 3.567 3.953 6.52 3.184l14.545-3.791c2.628-.686 3.165-1.738 3.149-4.156v-9.71l-1.843.483v3.854c.001.66-.066.861-.354.938-.252.064-.507-.08-.51-.834v-3.719l-1.778.471v4.861c.008.619.81 1.221 1.529 1.033.366-.092.829-.287 1.112-.623v2.877c-.016 1.119-.285 1.215-1.004 1.402l-15.228 3.977c-1.764.459-3.017.344-3.373-1.023V91.468c-.01-1.958.621-2.371 2.997-2.991l27.074-7.057c1.332-.348 2.418-.124 2.708.993v18.94c-.069 1.211-.496 1.828-2.08 2.242l-8.749 2.279.978 1.244-.741 1.732 8.929-2.328c3.6-.938 4.569-3.078 4.588-6.543V83.276c.003-.578.113-1.1 0-1.532-.758-2.916-3.529-3.91-6.338-3.177z"/><path d="M28.731 96.754c1.332-.347 1.603-.855 1.612-2.588v-4.43c-.197-.756-.919-1.236-1.963-.964l-1.944.507c-1.332.347-1.911.759-1.944 1.959v4.323c-.001 1.298.274 2.212 2.079 1.755l2.16-.562z"/><path d="M26.409 91.977c-.015-.649-.008-.767.532-.908l.72-.188c.432-.112.697-.061.781.263v3.257c.004.46-.009.623-.549.763l-.721.188c-.575.15-.614.006-.764-.57v-2.805h.001z" fill="#fff"/><path d="M37.763 89.906l1.041-.263v-1.778l-1.977.516c-1.116.291-1.303.735-1.319 1.854v3.827c.024.604.644.724 1.328.545l1.968-.516v-1.748l-1.316.341c-.216.057-.29-.017-.328-.161l-.035-1.837c.03-.622.134-.649.638-.78zM30.516 104.947v-7.886l-2.762.722-.942 5.09-1.137-4.51-2.628.686.006 7.842 1.948-.516v-3.791l1.077 3.518 1.512-.393.897-3.492v3.248l2.029-.518zM48.37 94.72l-.268-.584-1.47.394v6.208l1.761-.453v-3.301c0-.883.177-1.201.896-1.389l.759-.198V93.63l-.471.122c-.61.159-.878.459-1.207.968zM32.594 104.543c.822-.25 1.021-.803 1.021-.803l.13.35 1.685-.449v-5.053c-.216-.828-.757-.969-1.765-.705l-1.944.516v1.75l1.368-.348c.468-.121.595-.078.651.139.028.107.011.189-.005.424-1.897.688-3.071 1.492-2.649 3.113.234.9.796 1.285 1.508 1.066z"/><path d="M33.339 101.504c.216-.057.362.061.428.312.141.539-.252.949-.469 1.006-.324.084-.469-.031-.535-.283-.084-.324.145-.922.576-1.035z" fill="#fff"/><path d="M40.687 93.759c.822-.25 1.021-.804 1.021-.804l.13.351 1.685-.45v-5.053c-.216-.828-.757-.967-1.765-.704l-1.944.516v1.75l1.368-.348c.468-.122.595-.078.651.138.028.108.011.189-.005.424-1.897.687-3.071 1.492-2.649 3.113.234.899.796 1.284 1.508 1.067z"/><path d="M41.432 90.72c.216-.057.362.059.428.312.141.54-.252.95-.468 1.006-.324.084-.47-.032-.536-.284-.084-.324.144-.922.576-1.034z" fill="#fff"/><path d="M46.243 86.581l-.268-.584-1.47.394v6.208l1.762-.452v-3.301c0-.884.176-1.202.896-1.39l.759-.198V85.49l-.471.122c-.612.159-.88.46-1.208.969zM41.741 97.775s-.05 2.227-.017 2.525.066 1.68 1.263 1.379c1.196-.299 2.775-.68 2.775-.68V99.37l-1.645.398c-.133.033-.432.166-.549-.117-.116-.281.167-.398.35-.498s2.243-.863 2.11-2.342c-.132-1.48-1.063-1.762-1.911-1.663-.847.102-2.309.849-2.376 2.627z"/><path d="M43.453 97.293s-.027.875.532.582c.665-.35.724-1.154.149-1.279-.497-.108-.681.697-.681.697z" fill="#fff"/><path d="M34.646 90.696v-1.728s-2.144.515-2.426.615c-.283.099-1.662.532-.98 1.794.682 1.263 1.529 2.327 1.529 2.327s.066.133-.1.199-1.429.366-1.429.366v1.795l2.858-.749s1.612-.382.615-1.944c-.998-1.562-1.33-1.978-1.33-1.978s-.1-.282.15-.365c.248-.082 1.113-.332 1.113-.332z"/></g></svg>