<svg xmlns="http://www.w3.org/2000/svg" width="2500" height="2500" viewBox="0 0 192.756 192.756"><g fill-rule="evenodd" clip-rule="evenodd"><path fill="#fff" d="M0 0h192.756v192.756H0V0z"/><path d="M78.232 95.442v-6.705c0-1.36-.268-2.457-1.048-2.721-.121-.067-.244-.167-.244-.2 0-.1.146-.133.366-.133.39 0 1.559.133 2.34.133s1.95-.133 2.341-.133c.218 0 .365.033.365.133 0 .034-.123.133-.244.2-.779.264-1.048 1.36-1.048 2.721v14.736c0 1.628.221 2.59 1.316 3.319.146.099.219.165.219.266s-.146.101-.391.101c-.876 0-1.169-.101-2.559-.101s-1.683.101-2.56.101c-.243 0-.39 0-.39-.101s.074-.167.221-.266c1.096-.729 1.314-1.691 1.314-3.319v-7.202h-9.288v7.202c0 1.628.22 2.59 1.316 3.319.147.099.22.165.22.266s-.146.101-.39.101c-.877 0-1.17-.101-2.56-.101-1.391 0-1.682.101-2.56.101-.244 0-.39 0-.39-.101s.073-.167.219-.266c1.097-.729 1.318-1.691 1.318-3.319V88.737c0-1.36-.269-2.457-1.05-2.721-.123-.067-.244-.167-.244-.2 0-.1.146-.133.365-.133.391 0 1.56.133 2.341.133.779 0 1.95-.133 2.34-.133.22 0 .366.033.366.133 0 .034-.123.133-.244.2-.779.264-1.049 1.36-1.049 2.721v6.705h9.292z"/><path d="M91.445 96.703l3.365-6.14c.754-1.329 1.146-2.589 1.146-3.02 0-.963-.343-1.195-.611-1.36-.219-.133-.462-.266-.462-.366 0-.1.096-.133.341-.133.219 0 .804.133 1.756.133.852 0 1.631-.133 1.852-.133.146 0 .316.033.316.198 0 .101-.316.301-.66.631-.607.599-1.997 2.624-2.46 3.453l-4.145 7.6v5.477c0 2.59.123 3.287 1.026 3.784.17.1.315.1.315.199 0 .101-.169.134-.292.134-.196 0-.877-.101-2.462-.101-1.585 0-2.266.101-2.463.101-.121 0-.292-.033-.292-.134 0-.1.146-.1.317-.199.903-.497 1.024-1.194 1.024-3.784v-4.945l-4.948-8.828c-.683-1.196-1.245-2.025-1.853-2.655-.391-.431-.634-.531-.634-.696 0-.135.17-.233.341-.233.146 0 1.803.133 3.168.133 1.244 0 1.975-.133 2.243-.133.121 0 .292.033.292.198 0 .067-.146.2-.39.301-.293.165-.756.563-.756 1.162 0 .863.316 1.327.731 2.057l4.195 7.299zM113.58 96.438c0 4.946-1.512 10.454-5.949 10.454-4.436 0-5.947-5.508-5.947-10.454 0-4.945 1.512-10.455 5.947-10.455 4.437-.001 5.949 5.509 5.949 10.455zm3.268 0c0-6.838-4.438-11.284-9.217-11.284-4.775 0-9.213 4.445-9.213 11.284 0 6.838 4.438 11.285 9.213 11.285 4.779 0 9.217-4.448 9.217-11.285z"/><path d="M130.182 89.766c-.123.531-.17.697-.244.697-.049 0-.072-.066-.121-.199-.609-2.323-2.17-4.282-5.168-4.282-1.951 0-4.559.598-4.559 3.95 0 4.017 2.803 3.884 6.531 4.58 4.367.797 5.023 3.519 5.023 5.609 0 5.843-4.438 7.602-7.973 7.602-2.877 0-4.438-.664-7.117-1.959l.781-3.949c.121-.597.145-.729.268-.729.121 0 .146.198.172.432.34 3.317 3.484 5.375 5.729 5.375 2.363 0 5.41-.862 5.41-4.879 0-3.682-2.707-3.682-4.707-4.114-2.605-.433-6.85-1.296-6.85-5.975 0-5.443 3.951-6.77 7.266-6.77 2.145 0 4.242.396 6.242 1.426l-.683 3.185zM136.203 100.553c0 4.15 2.219 6.339 5.193 6.339 4.047 0 5.803-2.556 5.803-8.23v-6.937c0-3.353-.658-4.879-1.658-5.577-.146-.098-.318-.23-.318-.331 0-.1.123-.133.195-.133.682 0 .926.133 2.049.133 1.023 0 1.729-.133 1.998-.133.219 0 .365.033.365.133 0 .065-.121.2-.365.432-.73.631-1.635 2.058-1.658 5.477v6.903c0 6.406-2.193 9.095-6.898 9.095-3.729 0-7.533-1.128-7.533-7.138V88.737c0-1.36-.268-2.457-1.047-2.721-.121-.067-.244-.167-.244-.2 0-.1.146-.133.365-.133.391 0 1.559.133 2.34.133s1.951-.133 2.34-.133c.219 0 .367.033.367.133 0 .034-.123.133-.244.2-.779.264-1.049 1.36-1.049 2.721v11.816h-.001z"/><path d="M151.221 101.149c0 2.292.268 4.582 1.854 5.576.145.101.291.133.291.2 0 .1-.123.133-.537.133h-4.094c-.146 0-.221-.033-.221-.067 0-.065.074-.133.172-.133 1.609-1.061 1.926-3.516 1.926-5.709v-9.292c0-4.281-.463-5.078-1.172-5.51-.266-.165-.439-.266-.439-.365 0-.101.1-.166.367-.166h4.049l10.725 14.903v-7.934c0-3.053-.244-5.707-1.902-6.67-.148-.066-.193-.167-.193-.266 0-.133.119-.167.314-.167h4c.121 0 .244.033.244.133 0 .101-.172.266-.414.432-1.195.797-1.438 3.187-1.438 5.477v15.566c0 .231-.051.497-.125.497h-.047c-.146 0-.318-.331-.512-.597l-12.848-19.085v13.044zM182.645 104.77c-1.709 2.057-4.562 2.953-7.314 2.953-4.531 0-9.215-3.65-9.215-11.285 0-6.838 4.436-11.284 9.215-11.284 3.219 0 5.703.994 7.654 2.788l-.854 2.887c-.074.198-.219.83-.289.83-.051 0-.125-.366-.172-.598-.514-3.385-3.17-5.078-5.707-5.078-4.584 0-6.58 5.51-6.58 10.986 0 5.31 2.486 9.923 5.947 9.923 3.34 0 4.486-1.625 4.486-5.077V99.36c0-2.058-.807-2.357-2.1-2.757-.438-.132-.654-.231-.654-.331s.119-.133.34-.133c.217 0 2.342.133 3.389.133.975 0 2.633-.133 2.975-.133.316 0 .486.1.486.232 0 .066-.195.167-.439.267-1.168.464-1.168 1.128-1.168 2.654v5.478z"/><path d="M54.817 95.781C54.5 83.267 44.254 73.219 31.664 73.219c-12.792 0-23.16 10.369-23.16 23.16 0 9.558 5.79 17.762 14.054 21.3v-14.471s.077-1.491-1.336-1.491h-8.715s-1.569 0-1.569-1.334l-.236-6.752v-.158h1.963v1.808s-.079 1.334 1.257 1.334h7.928s2.669.157 2.669 2.04v19.76c.439.143.884.272 1.335.39V97.557s0-2.59-2.435-2.59h-7.586s-1.835-.316-1.835-2.042l.079-6.28h1.756v2.041s-.343 1.021 1.071 1.021h8.244s2.591.077 2.591 2.04v27.459c.414.071.833.131 1.254.18v-29.21s.237-2.041-2.511-2.041h-7.301s-1.963.079-1.963-1.963v-6.594h1.727v2.119s0 1.021 1.02 1.021h9.028s2.12.236 2.12 2.355v34.459a25.212 25.212 0 0 0 1.256-.006V85.073c0-2.119 2.12-2.355 2.12-2.355h9.028c1.021 0 1.021-1.021 1.021-1.021v-2.119h1.728v6.594c0 2.042-1.963 1.963-1.963 1.963h-7.3c-2.748 0-2.513 2.041-2.513 2.041v29.191c.423-.053.842-.114 1.257-.188V91.746c0-1.963 2.591-2.04 2.591-2.04h8.243c1.413 0 1.071-1.021 1.071-1.021v-2.041h1.754l.079 6.28c0 1.726-1.833 2.042-1.833 2.042h-7.588c-2.434 0-2.434 2.59-2.434 2.59v21.204c.45-.119.895-.252 1.334-.398V98.654c0-1.883 2.669-2.04 2.669-2.04h7.93c1.334 0 1.255-1.334 1.255-1.334v-1.808h1.963v.158l-.235 6.752c0 1.334-1.57 1.334-1.57 1.334h-8.715c-1.413 0-1.333 1.491-1.333 1.491v14.401c8.013-3.502 13.662-11.404 13.889-20.653v-1.174z" fill="#3a549b"/></g></svg>