<svg xmlns="http://www.w3.org/2000/svg" width="2500" height="2500" viewBox="0 0 192.756 192.756"><path fill-rule="evenodd" clip-rule="evenodd" fill="#fff" d="M0 0h192.756v192.756H0V0z"/><path d="M96.392 2.835c51.502 0 93.53 42.028 93.53 93.557 0 51.502-42.028 93.53-93.53 93.53-51.529 0-93.557-42.028-93.557-93.53 0-51.529 42.028-93.557 93.557-93.557z" fill="none" stroke="#000" stroke-width=".081" stroke-miterlimit="2.613"/><path d="M105.168 10.511l4.293.563 4.268.751 4.16.966 4.079 1.154 3.999 1.369 3.918 1.557 3.812 1.718 3.73 1.905 3.623 2.094 3.489 2.254 3.408 2.416 3.273 2.549 3.113 2.738 3.033 2.845 2.845 3.006 2.737 3.14 2.55 3.274 2.415 3.381 2.255 3.516 2.093 3.623 1.906 3.703 1.717 3.812 1.53 3.945 1.396 3.999 1.154 4.079.966 4.16.752 4.267.563 4.267.321 4.428.135 4.428-.135 4.402-.321 4.348-.563 4.294-.752 4.24-.966 4.16-1.154 4.105-1.396 3.999-1.53 3.918-1.717 3.838-1.906 3.704-2.093 3.597-2.255 3.516-2.415 3.408-2.55 3.247-2.737 3.141-2.845 3.006-3.033 2.845-3.14 2.737-3.247 2.55-3.408 2.441-3.489 2.228-3.623 2.067-3.73 1.932-3.812 1.744-3.918 1.53-3.999 1.369-4.079 1.153-4.16.967-4.268.778-4.293.536-4.375.35-4.401.107-4.455-.107-4.348-.35-4.294-.536-4.24-.778-4.187-.967-4.08-1.153-3.999-1.369-3.918-1.53-3.811-1.744-3.757-1.932-3.569-2.067-3.516-2.228-3.408-2.441-3.248-2.55-3.14-2.737-3.006-2.845-2.872-3.006-2.71-3.141-2.55-3.247-2.442-3.408-2.228-3.489-2.093-3.623-1.905-3.704-1.745-3.838-1.53-3.918-1.342-3.999-1.181-4.105-.966-4.16-.778-4.24-.537-4.294-.349-4.348-.107-4.402.107-4.428.349-4.428.537-4.267.778-4.267.966-4.16 1.181-4.079 1.342-3.999 1.53-3.945 1.745-3.812 1.905-3.703 2.093-3.65 2.228-3.489 2.442-3.381 2.55-3.274 2.71-3.14 2.872-3.006 3.006-2.845 3.113-2.738 3.274-2.549 3.408-2.416 3.516-2.254 3.569-2.094 3.757-1.905 3.811-1.718 3.918-1.557 3.999-1.369 4.08-1.154 4.187-.966 4.24-.751 4.294-.563 4.348-.349 4.455-.107 4.401.107 4.377.348zm-4.349-.832l4.401.349 4.321.563 4.268.752 4.187.966 4.133 1.181 3.999 1.369 3.972 1.557 3.812 1.717 3.757 1.959 3.623 2.093 3.516 2.254 3.436 2.442 3.274 2.576 3.14 2.738 3.033 2.872 2.898 3.006 2.71 3.167 2.577 3.274 2.441 3.409 2.281 3.516 2.094 3.65 1.905 3.73 1.745 3.838 1.557 3.945 1.368 4.026 1.181 4.106.939 4.214.778 4.267.563 4.348.322 4.375.135 4.481-.135 4.402-.322 4.4-.563 4.321-.778 4.268-.939 4.187-1.181 4.106-1.368 4.025-1.557 3.945-1.745 3.864-1.905 3.73-2.094 3.623-2.281 3.516-2.441 3.409-2.577 3.274-2.71 3.193-2.898 3.006-3.033 2.845-3.14 2.791-3.274 2.576-3.408 2.389-3.543 2.255-3.623 2.12-3.757 1.905-3.812 1.771-3.972 1.529-3.999 1.369-4.133 1.181-4.187.966-4.268.778-4.321.537-4.401.349-4.428.107-4.482-.107-4.375-.349-4.294-.537-4.294-.778-4.187-.966-4.106-1.181-4.026-1.369-3.945-1.529-3.837-1.771-3.758-1.905-3.623-2.12-3.542-2.255-3.381-2.389-3.274-2.576-3.167-2.791-3.033-2.845-2.898-3.006-2.71-3.193-2.577-3.274-2.416-3.382-2.281-3.543-2.093-3.623-1.906-3.757-1.771-3.838-1.53-3.919-1.368-4.052-1.154-4.106-.993-4.187-.778-4.268-.563-4.321-.322-4.4-.134-4.402.134-4.481.322-4.375.563-4.348.778-4.267.993-4.214 1.154-4.106 1.368-4.026 1.53-3.945 1.771-3.811 1.906-3.757 2.093-3.65 2.254-3.516 2.442-3.409 2.577-3.274 2.71-3.167 2.898-3.006 3.033-2.872 3.167-2.738 3.274-2.576 3.408-2.442 3.516-2.254 3.623-2.093 3.758-1.959 3.837-1.717 3.945-1.557 4.026-1.369 4.106-1.181 4.187-.966 4.294-.752 4.294-.563 4.375-.349 4.482-.107 4.427.109z" fill-rule="evenodd" clip-rule="evenodd" stroke="#000" stroke-width=".081" stroke-miterlimit="2.613"/><path d="M109.113 13.275l4.159.751 4.025.939 3.999 1.127 3.892 1.315L129 18.911l3.729 1.718 3.65 1.852 3.489 2.04 3.435 2.174 3.302 2.362 3.167 2.496 3.06 2.657 2.925 2.764 2.791 2.952 2.657 3.033 2.496 3.194 2.361 3.328 2.174 3.382 2.04 3.516 1.852 3.65 1.69 3.704 1.503 3.811 1.342 3.918 1.128 3.972.939 4.052.751 4.133.51 4.187.349 4.267.107 4.347-.107 4.268-.349 4.24-.51 4.188-.751 4.133-.939 4.079-1.128 3.972-1.342 3.892-1.503 3.808-1.69 3.73-1.852 3.623-2.04 3.516-2.174 3.408-2.361 3.301-2.496 3.194-2.657 3.06-2.791 2.925-2.925 2.765-3.06 2.684-3.167 2.496-3.302 2.335-3.435 2.174-3.489 2.066-3.65 1.852-3.729 1.69-3.812 1.477-3.892 1.342-3.999 1.154-4.025.912-4.159.752-4.188.536-4.24.35-4.294.08-4.321-.08-4.24-.35-4.187-.536-4.133-.752-4.08-.912-3.972-1.154-3.892-1.342-3.838-1.477-3.703-1.69-3.623-1.852-3.516-2.066-3.435-2.174-3.274-2.335-3.193-2.496-3.06-2.684L37 155.757l-2.765-2.925-2.684-3.06-2.496-3.194-2.335-3.301-2.201-3.408-2.04-3.516-1.852-3.623-1.69-3.73-1.476-3.812-1.369-3.892-1.127-3.972-.939-4.079-.725-4.133-.537-4.188-.322-4.24-.107-4.268.107-4.347.322-4.267.537-4.187.725-4.133.939-4.052 1.127-3.972 1.369-3.918 1.476-3.811 1.69-3.704 1.852-3.65 2.04-3.516 2.174-3.409 2.361-3.274 2.496-3.221 2.684-3.033L37 36.973l2.925-2.764 3.06-2.657 3.193-2.496 3.274-2.362 3.435-2.174 3.516-2.04 3.623-1.852 3.703-1.718 3.838-1.503 3.892-1.315 3.972-1.127 4.08-.939 4.133-.751 4.187-.537 4.24-.322 4.321-.107 4.294.107 4.24.322 4.187.537zm4.052 1.235l4.026.939 3.972 1.127 3.864 1.288 3.784 1.503 3.704 1.69 3.623 1.852 3.516 2.013 3.354 2.174 3.301 2.361 3.167 2.442 3.033 2.684 2.925 2.765 2.765 2.871 2.657 3.033 2.441 3.193 2.362 3.301 2.174 3.381 2.013 3.489 1.852 3.596 1.69 3.704 1.477 3.811 1.342 3.865 1.127 3.945.913 4.052.778 4.106.482 4.16.35 4.267.107 4.293-.107 4.241-.35 4.214-.482 4.159-.778 4.133-.913 3.999-1.127 3.999-1.342 3.864-1.477 3.784-1.69 3.73-1.852 3.569-2.013 3.489-2.174 3.408-2.362 3.302-2.441 3.166-2.657 3.033-2.765 2.898-2.925 2.764-3.06 2.657-3.141 2.496-3.273 2.335-3.382 2.146-3.516 2.04-3.623 1.853-3.704 1.664-3.784 1.476-3.864 1.314-3.972 1.154-4.026.939-4.106.725-4.159.537-4.241.321-4.267.107-4.294-.107-4.214-.321-4.187-.537-4.106-.725-4.052-.939-3.945-1.154-3.865-1.314-3.811-1.476-3.677-1.664-3.597-1.853-3.489-2.04-3.409-2.146-3.301-2.335-3.14-2.496-3.06-2.657-2.925-2.764-2.737-2.898-2.63-3.033-2.496-3.166-2.362-3.274-2.147-3.408-2.04-3.517-1.852-3.596-1.69-3.704-1.449-3.784-1.342-3.864-1.127-3.999-.939-3.999-.751-4.133-.483-4.159-.349-4.214-.107-4.241.107-4.293.349-4.267.483-4.16.751-4.106.939-4.052 1.127-3.945 1.342-3.865 1.449-3.811 1.69-3.677 1.852-3.623 2.04-3.516 2.147-3.355 2.362-3.274 2.496-3.22 2.63-3.033 2.737-2.871 2.925-2.765 3.033-2.684 3.167-2.442 3.301-2.361 3.409-2.174 3.489-2.013 3.597-1.852 3.677-1.69 3.811-1.503 3.865-1.288 3.945-1.127 4.052-.939 4.106-.752 4.187-.537 4.214-.322 4.294-.107 4.267.107 4.241.322 4.159.537 4.107.754z" fill-rule="evenodd" clip-rule="evenodd" stroke="#000" stroke-width=".081" stroke-miterlimit="2.613"/><path d="M44.755 124.464l105.553-.134c-10.359 19.135-30.837 32.098-53.998 31.588-22.221-.456-41.491-13.15-51.555-31.454z" fill-rule="evenodd" clip-rule="evenodd" fill="#33348e"/><path d="M145.451 61.02l-96.214.026c11.219-15.109 29.388-24.825 49.569-24.341 19.163.483 36.044 10.037 46.645 24.315z" fill-rule="evenodd" clip-rule="evenodd" fill="#cc2229"/><path d="M33.806 128.705c.698-.107 1.261.026 1.852.348.591.296.967.752 1.262 1.315.241.376.375.886.375 1.396.027.537-.081.993-.268 1.477a2.502 2.502 0 0 1-1.127 1.047l-.993-1.771c.295-.376.295-.752.107-1.127-.135-.242-.269-.403-.43-.457-.241-.08-.457-.08-.644 0-.269.215-.376.483-.269.913-.053.134.054.321.134.832.161.429.188.886.269 1.261-.027.43-.027.806-.161 1.208a2.335 2.335 0 0 1-.805 1.02c-.51.322-1.154.43-1.691.537-.563.026-1.101-.134-1.637-.402-.403-.322-.913-.778-1.262-1.396a12.592 12.592 0 0 1-.376-.967c-.107-.375-.295-.697-.134-1.153 0-.483.214-.806.51-1.181.215-.457.591-.752 1.074-1.047l1.046 1.959c-.188.188-.349.43-.402.697-.054.269 0 .537.08.778.188.242.403.457.645.511.242.107.51.107.751-.027.188-.107.242-.349.269-.591-.026-.375.027-.751-.161-1.261-.026-.591-.107-.993-.107-1.181-.026-.591.054-1.128.296-1.477.214-.456.59-.725.966-.966.24-.188.562-.188.831-.295zm-3.033 15.538l9.259-7.729 1.315 1.503-.966.832c.59-.055 1.181.107 1.745.321.563.242.966.591 1.369 1.074.376.429.725.938.859 1.583.134.591.134 1.154.054 1.799-.054.59-.322 1.18-.59 1.717a6.076 6.076 0 0 1-1.181 1.423 5.507 5.507 0 0 1-2.228 1.046c-.778.188-1.557.161-2.308-.134-.751-.322-1.449-.778-1.986-1.423-.376-.456-.671-.912-.859-1.342-.107-.482-.161-1.02 0-1.557l-3.086 2.577-1.397-1.69zm8.105-3.757c-.322.107-.698.241-1.073.537a2.725 2.725 0 0 0-.913 1.824c-.081.725.134 1.342.617 1.986.269.349.644.537 1.127.725.376.135.886.188 1.315.107.456-.054.832-.188 1.208-.537.349-.268.671-.671.859-1.154.188-.455.188-.938.134-1.395a3.231 3.231 0 0 0-.617-1.343c-.295-.349-.698-.59-1.074-.751-.536-.186-1.046-.133-1.583.001zm9.044 6.924c.563 0 1.046.027 1.449.107.537.188.913.269 1.369.456.322.269.617.457.993.778.563.564 1.047 1.208 1.342 2.04.215.806.269 1.69.081 2.55-.107.832-.51 1.583-1.02 2.146-.617.698-1.315 1.128-2.147 1.342-.859.296-1.717.322-2.496.107a4.725 4.725 0 0 1-2.201-1.153c-.671-.618-1.181-1.315-1.503-2.067-.215-.858-.269-1.637-.054-2.495a5.03 5.03 0 0 1 1.127-2.309c.806-.75 1.799-1.341 3.06-1.502zm.269 2.121c-.751.134-1.315.51-1.798.992-.322.295-.456.752-.644 1.182-.081.455 0 .938.081 1.395.161.457.349.859.671 1.154.456.376.832.563 1.288.645.483.134.993.08 1.396-.054.403-.161.778-.43 1.154-.778.295-.376.483-.832.671-1.262.054-.482.054-.939-.081-1.368-.134-.483-.376-.886-.778-1.182a2.739 2.739 0 0 0-1.96-.724zm12.426 2.603l1.771 1.208-6.709 9.983-1.771-1.208 6.709-9.983zm-.779 13.392l.993-1.905 1.906 1.046-.966 1.905-1.933-1.046zm11.702-2.549c.402-.563.966-.832 1.61-1.02.618-.081 1.234-.027 1.771.188a3.36 3.36 0 0 1 1.261.751c.349.43.591.886.751 1.369.054.483.054.993-.161 1.53l-1.933-.672c0-.563-.215-.832-.671-.966a.718.718 0 0 0-.618-.027c-.268.054-.402.269-.456.457-.053.241.027.563.43.832.026.107.242.241.617.51.349.215.752.51 1.047.778.242.349.483.697.617 1.047.161.349.215.858.081 1.288a4.563 4.563 0 0 1-.913 1.476c-.349.456-.912.671-1.449.806-.537 0-1.208-.027-1.825-.296a2.69 2.69 0 0 1-.886-.402c-.402-.241-.805-.349-.993-.778-.295-.376-.349-.751-.349-1.261-.161-.511-.107-.939.054-1.504l2.12.806c0 .295-.027.563.161.832.107.188.375.43.51.51.349.107.644.054.886 0 .215-.134.403-.269.51-.536.054-.242-.027-.43-.188-.698-.188-.188-.43-.483-.886-.778-.429-.402-.724-.645-.912-.858-.376-.43-.671-.886-.725-1.315-.054-.456-.027-.939.081-1.315.082-.325.296-.567.458-.754zm13.741 11.245l1.369-9.018 1.986.349-.107.832c.536-.697 1.342-.912 2.335-.752l-.349 2.094a2.82 2.82 0 0 0-1.181.054c-.241.161-.537.295-.725.645-.241.241-.349.697-.456 1.207l-.725 4.912-2.147-.323zm7.97 1.019l.027-2.12 2.201.08-.054 2.121-2.174-.081zm8.669-7.97a5.508 5.508 0 0 1 1.127-1.021c.457-.295.806-.536 1.235-.67a3.755 3.755 0 0 1 1.207-.269 4.42 4.42 0 0 1 2.416.376c.805.375 1.476.912 1.959 1.609.536.671.858 1.396.939 2.201.107.886-.081 1.744-.43 2.522a4.416 4.416 0 0 1-1.557 1.986c-.697.402-1.396.698-2.281.751-.939.107-1.798 0-2.576-.241-.806-.349-1.423-.886-1.959-1.557-.563-.698-.859-1.557-.967-2.442-.079-1.125.243-2.226.887-3.245zm1.825 1.18c-.402.617-.483 1.315-.483 2.013.054.456.242.913.51 1.262.242.349.672.698 1.047.912.457.188.886.296 1.315.215.563-.026 1.02-.241 1.315-.536.456-.215.725-.617.858-1.021.215-.456.269-.886.241-1.396a4.556 4.556 0 0 0-.536-1.342c-.296-.402-.645-.697-1.021-.858a2.777 2.777 0 0 0-1.396-.215 2.845 2.845 0 0 0-1.85.966zm10.279 2.335l2.146-.645.645 2.175-2.12.59-.671-2.12zm17.821-13.66l.321-2.067 1.933-1.046-.349 2.442 2.174-1.262 1.127 2.066-2.174 1.181 2.281.967-2.013 1.101-1.879-.832-.295 2.066-2.013 1.1.375-2.469-2.174 1.234-1.127-2.039 2.174-1.182-2.254-.992 1.986-1.074 1.907.806zM27.794 107.664l1.798.966.375 2.2-2.12-1.127.375 2.389-2.227.402-.403-2.469-1.637 1.825-.402-2.147 1.396-1.503-1.771-.939-.429-2.254 2.174 1.153-.429-2.361 2.308-.376.403 2.309 1.637-1.69.295 2.173-1.343 1.449zm55.42-31.159l4.08 4.026 11.835-12.453-3.65-4.106-12.265 12.533zm45.141 33.198c0-.402-.054-.751-.054-1.02-.43-11.675 10.655-29.978 19.672-26.113l.939-.671 4.75.054c-.59 7.836-7.165 39.129-6.548 38.754l-3.784.08c-2.845.054-2.335-4.482-2.308-4.509-4.268 5.771-9.286 6.038-11.354-.456l-5.851 4.133c-1.1.778-2.603 1.477-3.703-.054-1.073-1.583-3.032-11.46-4.67-17.793l-.698.725-3.059 17.9-3.408.027c-3.061-.027-3.061-1.503-2.711-3.543l1.1-6.227-8.266 8.267c-3.784 3.811-7.139-.296-6.012-6.361l3.704-19.726-7.407.027c-2.013 11.353-4.697 27.481-4.267 27.509h-3.811c-2.899 0-2.334-3.784-2.308-3.784-4.133 5.233-9.152 5.233-11.406-.698l-5.26 3.865c-1.395 1.02-4.052 1.207-5.743-.913l-3.784-4.938c-3.489 5.744-7.515 9.555-10.36 3.006-2.12-4.776-.832-13.633 1.02-17.632 1.529-3.247 3.596-3.704 5.099-1.503l3.221 4.213 3.516-8.614-6.656.054 1.261-7.273c.107 0 3.892 0 8.32.027l5.421-13.285c-3.516 1.557-8.159.457-10.601-1.717l-2.228 11.594-7.085-.054 4.133-18.787h7.38c4.079 4.482 8.024 3.328 11.997 0l6.951-.026-9.152 22.275h7.327l-1.744 6.736c3.945-6.924 10.279-12.748 15.351-10.655l.939-.725h4.724c-.107 0-.429 1.771-.939 4.347l7.435-.053 2.522-13.285h6.602l-2.469 13.285 7.246.053 4.214-21.899h6.28l-5.072 27.509 10.117-10.333 5.153 4.052-11.729 11.755 3.462 13.017c.483.939.967 1.933 1.96 1.234l2.631-1.851zm-19.591-9.796l1.262-6.655h-7.246l-2.389 12.667c-.242 1.369.16 2.094.966 1.477l7.407-7.489zm-38.995-6.199l-8.4.026-6.012 14.6 2.71 4.268c.859 1.315 2.684 1.449 3.462.563l4.052-4.724c.108-4.75 1.718-10.063 4.188-14.733zm10.252-3.354c1.073-1.101 2.2-.886 2.174.161-.107 5.904-1.744 11.567-4.321 17.847-2.55 6.28-6.844 4.429-5.501-1.477 1.421-6.468 3.461-12.319 7.648-16.531zm62.612.08c1.047-1.02 2.147-.778 2.147.269-.107 5.663-1.664 10.762-4.187 16.988-2.576 6.28-6.897 4.429-5.529-1.477 1.37-6.199 3.409-11.808 7.569-15.78zM45.99 106.885c-.107.779-.349 2.255-.188 3.274.188 1.181.725 1.745 1.261.698.027-.08.269-.402.645-1.288 0-.081.322-.671.134-1.208-.134-.537-.456-.966-.51-.993-.161-.161-1.207-1.342-1.342-.483zm115.779 34.916l-1.798 2.229-6.951-1.691 3.06 6.495-1.853 2.308-4.052-9.366-4.026-3.301 1.664-2.04 4.053 3.274 9.903 2.092zm8.829-15.002l-1.422 2.63-12.05.188 9.098 5.045-1.315 2.416-12.426-6.871 1.449-2.656 12.077-.188-9.125-5.099 1.315-2.362 12.399 6.897zm3.891-13.151c-.08.027-.08.08-.08.188-.027.135-.027.269-.027.269-.268.966-.616 1.771-1.153 2.389-.456.751-1.154 1.208-1.933 1.503-.778.215-1.69.241-2.63.08-.563-.214-1.101-.456-1.61-.805s-.966-.912-1.288-1.583c-.35-.698-.51-1.53-.51-2.39l-6.012 2.551.805-3.167 6.307-2.228-5.421-1.369.671-2.63 13.821 3.462-.94 3.73zm1.772-19.725v2.066l-14.224 5.984v-2.871l3.623-1.53-.054-5.099-3.569-1.583v-2.898l14.224 5.931zm-3.784-22.598l.725 2.657-5.958 1.583 7.112 2.711.805 3.06-8.104-3.462-5.609 7.112-.805-3.032 4.965-5.958-6.119 1.61-.697-2.604 13.685-3.677zm-17.66-5.206l10.118-11.379 1.262 2.389-7.837 8.4 11.379-1.449 1.262 2.496-15.163 1.503-1.021-1.96zm-7.166-21.793c1.315-1.02 2.657-1.637 3.973-1.771a7.739 7.739 0 0 1 3.838.51c1.181.563 2.174 1.315 2.898 2.281a6.432 6.432 0 0 1 1.368 2.577c.269.966.322 1.959.188 2.871a7.797 7.797 0 0 1-.886 2.845c-.402.886-1.047 1.61-1.852 2.228-.054.053-.107.053-.161.134-.054.053-.107.08-.135.08-.725.537-1.664.939-2.898 1.181-1.181.268-2.442.214-3.703-.188-1.315-.349-2.55-1.181-3.623-2.469-.725-.967-1.235-1.959-1.53-2.953-.188-1.046-.161-1.986-.026-2.952a9.072 9.072 0 0 1 .939-2.47c.564-.803 1.021-1.447 1.61-1.904zm-4.803-12.828c2.04 1.422 3.408 3.059 4.16 4.777.725 1.717.43 3.704-.886 5.824a1.95 1.95 0 0 1-.349.51c-.402.645-.993 1.208-1.664 1.664a6.724 6.724 0 0 1-2.442 1.074 6.963 6.963 0 0 1-3.006-.188c-1.101-.269-2.255-.859-3.516-1.744l-2.711-1.959 8.347-11.487 2.067 1.529zm-22.786-4.133a7.827 7.827 0 0 1 2.765-3.301c1.181-.751 2.335-1.127 3.677-1.154a7.265 7.265 0 0 1 3.596.778 6.517 6.517 0 0 1 2.335 1.691c.671.778 1.181 1.637 1.477 2.496.321.939.402 1.905.376 2.952.08.939-.242 1.906-.672 2.818 0 0 0 .054-.026.161-.054.081-.054.135-.081.188-.402.751-1.127 1.557-2.12 2.281-.886.725-2.12 1.235-3.462 1.449-1.342.268-2.737.081-4.294-.644a8.085 8.085 0 0 1-2.63-1.986c-.698-.805-1.047-1.69-1.342-2.603a9.197 9.197 0 0 1-.242-2.684c.134-.939.349-1.745.643-2.442zm-10.037-5.905c.215-.778.563-1.395 1.101-1.905.536-.536 1.1-.858 1.798-1.02.725-.161 1.529-.161 2.228.054.456.134.966.295 1.422.725.563.295.967.805 1.396 1.53.296.751.403 1.637.215 2.737l-2.656-.751c.08-.483-.027-.805-.188-1.154-.241-.322-.483-.537-.886-.618-.402-.107-.725-.054-1.1.081-.35.242-.591.59-.698 1.127-.081.51.161.966.778 1.529.563.457 1.207.994 1.852 1.477.563.402 1.047 1.02 1.449 1.69.35.671.376 1.53.188 2.604a5.446 5.446 0 0 1-1.289 2.362c-.616.59-1.314.913-2.093 1.074-.806.161-1.477.214-2.309-.027-.725-.214-1.503-.563-2.066-1.154a4.36 4.36 0 0 1-1.234-1.906c-.269-.805-.322-1.556-.08-2.334l2.71.751c-.054.537-.026 1.046.188 1.422.241.349.59.617 1.073.698.402.161.778.107 1.262-.027.429-.134.751-.376.912-.671.241-.269.402-.51.402-.698.161-.51.054-.913-.214-1.154-.242-.269-.887-.725-1.879-1.529-.939-.725-1.638-1.477-2.066-2.201-.35-.699-.43-1.638-.216-2.712zm66.934 72.489l2.228 1.852-.054 2.684-2.066-2.335-.108-2.201zm-4.375 1.02l-4.294-1.557v3.113l4.294-1.556zm-.402 16.935l-3.918-1.021-.376 1.638c-.43 1.583.134 2.549 1.529 2.871.698.188 1.234.081 1.557-.375.376-.43.725-.967.886-1.799l.322-1.314zm-22.759-65.618c-.59.456-.993 1.02-1.288 1.61a5.002 5.002 0 0 0-.376 1.905c-.08.698.027 1.289.188 1.852.215.537.43.993.697 1.342.591.644 1.234 1.127 2.04 1.449.805.268 1.583.375 2.496.268.858-.161 1.637-.483 2.335-1.02.644-.51 1.153-1.127 1.476-1.959.376-.671.51-1.529.376-2.361-.08-.806-.456-1.638-.886-2.362a7.26 7.26 0 0 0-1.368-1.154c-.511-.268-1.101-.483-1.719-.671-.644-.107-1.261-.134-1.985.027-.698.161-1.315.563-1.986 1.074zm-7.971-12.614l-5.313 7.246c.08.08.134.214.241.241.081.081.188.135.241.188 1.396.966 2.657 1.503 3.865 1.449 1.234.027 2.228-.563 3.167-1.852.536-.725.831-1.476.912-2.308.134-.725-.081-1.557-.483-2.308-.456-.832-1.127-1.53-2.093-2.254-.242-.161-.376-.295-.537-.402zm-19.001-5.287c-.295.697-.483 1.396-.43 2.04.027.725.215 1.342.483 1.878.295.617.591 1.154.966 1.583.403.322.859.698 1.262.886.778.349 1.557.483 2.415.456.859-.134 1.638-.375 2.415-.913.698-.483 1.235-1.127 1.638-1.852a4.478 4.478 0 0 0 .456-2.469c.027-.752-.269-1.61-.697-2.335-.403-.698-1.074-1.208-1.825-1.637-.537-.242-1.127-.429-1.664-.483a8.323 8.323 0 0 0-1.852.134c-.671.161-1.262.43-1.799.886-.59.457-.992 1.074-1.368 1.826zM89.655 16.764l1.61-2.388 2.818-.295-2.281 2.415-2.147.268zm-3.569.939l7.783-.886.349 2.55-5.099.59.349 3.167 4.885-.618.295 2.604-4.884.644.429 3.248 5.045-.617.295 2.496-7.703.966-1.744-14.144zm-14.949 3.516l2.657-.697 1.584 5.958 2.737-7.112 3.032-.832-3.462 8.159 7.085 5.555-3.006.832-5.958-4.965 1.61 6.092-2.576.725-3.703-13.715zM57.879 31.847c-.349-.671-.563-1.342-.51-2.12.027-.698.215-1.396.645-1.986.322-.644.966-1.154 1.583-1.503.403-.214.939-.429 1.503-.483.645-.161 1.369-.107 2.04.134.806.322 1.477.912 2.067 1.852l-2.362 1.289c-.295-.349-.618-.59-1.02-.698-.349-.081-.644-.027-.993.161-.349.215-.644.482-.698.832-.161.403-.081.832.215 1.289.268.429.778.59 1.583.537.778-.027 1.557-.134 2.335-.161.778-.107 1.583-.053 2.254.188.751.269 1.396.778 2.013 1.744.456.859.671 1.718.697 2.604a5.03 5.03 0 0 1-.778 2.201c-.43.644-.939 1.208-1.637 1.61a5.13 5.13 0 0 1-2.362.59c-.751.054-1.503-.161-2.201-.59-.725-.269-1.315-.805-1.718-1.583l2.55-1.342c.322.483.671.778 1.127.886.403.134.832.081 1.235-.161.322-.188.644-.563.858-.966.188-.349.322-.751.269-1.074-.054-.429-.161-.617-.214-.778-.269-.51-.618-.725-.967-.725s-1.181.081-2.442.188c-1.18.158-2.227.158-2.951-.083-.779-.242-1.503-.859-2.121-1.852zm-12.13.215l1.959-1.637-.43 3.462-1.422 1.208-3.542-.215 1.985-1.61 1.423.214.027-1.422zm-.457 8.051l-1.637-1.986 6.253-5.314 1.61 1.879 1.771 10.467 4.428-3.677 1.61 2.013-6.816 5.717-1.449-1.691-1.825-10.735-3.945 3.327zM34.503 48.03l1.289-1.584 14.841 4.268-1.852 2.2-3.757-1.02-3.248 3.972 1.852 3.489-1.852 2.281-7.273-13.606zm-9.795 16.854c.026-.08.026-.134.08-.241a.45.45 0 0 1 .081-.242c.429-.913.886-1.637 1.557-2.254.59-.59 1.288-.939 2.093-1.101a5.04 5.04 0 0 1 2.604.349c.51.242 1.046.564 1.476.993.402.483.805 1.074 1.02 1.799.241.725.268 1.557.107 2.415l6.333-1.583-1.261 3.059-6.602 1.181 5.126 2.174-1.02 2.522-13.151-5.556 1.557-3.515zm8.614 21.202l-14.009-2.684.751-3.865c.242-1.289.698-2.254 1.262-2.952.617-.671 1.261-1.154 1.986-1.289a3.927 3.927 0 0 1 2.228-.08c.805.241 1.503.563 2.012 1.073.564.51.966 1.074 1.181 1.825s.215 1.557 0 2.549l-.295 1.745 5.368.993-.484 2.685zm4.643-36.526l2.389 3.918 1.986-2.389-4.375-1.529zM26.667 66.896l3.757 1.557.591-1.476c.671-1.53.269-2.523-1.047-3.113-.617-.269-1.127-.269-1.637.161-.376.322-.806.832-1.181 1.637l-.483 1.234zm-.725 15.003l.268-1.288c.081-.671.081-1.262-.188-1.798-.188-.457-.59-.805-1.181-.939-.617-.107-1.127-.027-1.449.375-.322.349-.591.993-.725 1.691l-.241 1.261 3.516.698z" fill-rule="evenodd" clip-rule="evenodd"/></svg>