<svg viewBox="1 3 178 30" xmlns="http://www.w3.org/2000/svg" width="2500" height="381"><path d="M1 31h178v2H1zM81 17H60a4 4 0 0 1 4-4h17zm-21 8v-6h21v4H64v2h17v4H64a4 4 0 0 1-4-4zM104 17v8a4 4 0 0 1-4 4H87a4 4 0 0 1-4-4v-8a4 4 0 0 1 4-4h13a4 4 0 0 1 4 4zm-6 0h-9a2 2 0 0 0-2 2v4a2 2 0 0 0 2 2h9a2 2 0 0 0 2-2v-4a2 2 0 0 0-2-2zM106 13h5l12 12V13h4v16h-5l-12-12h-4zm0 16V19h4v10zM133 29h-4V13h4zM156 25v4h-17a4 4 0 0 1-4-4v-8a4 4 0 0 1 4-4h17v4h-15a2 2 0 0 0-2 2v4a2 2 0 0 0 2 2zM58 25v4H41a4 4 0 0 1-4-4v-8a4 4 0 0 1 4-4h17v4H43a2 2 0 0 0-2 2v4a2 2 0 0 0 2 2zM179 17h-21a4 4 0 0 1 4-4h17zm-4 6h-13a4 4 0 0 1-4-4h17a4 4 0 0 1 4 4v2a4 4 0 0 1-4 4h-17v-4h17zM27 3l-7 7h6.5l.3 3H17L1 29h6l10-10h10.2l.8 10h6L32 3z"/></svg>