<svg xmlns="http://www.w3.org/2000/svg" width="2500" height="2500" viewBox="0 0 192.756 192.756"><g fill-rule="evenodd" clip-rule="evenodd"><path fill="#fff" d="M0 0h192.756v192.756H0V0z"/><path d="M126.197 99.314h3.613l1.129-3.614s.904-1.581-1.58-1.581h-7.906s-1.355 3.84-1.809 5.873c0 0 0-.678 2.938-.678h3.84l-5.646 2.938h-1.807c-.678 2.033-1.355 3.84-1.582 4.969-1.129 3.164 1.355 2.486 1.355 2.486h17.395l-1.131 3.387h-22.814c-6.326 0-3.842-4.969-3.842-4.969s3.389-10.617 4.52-14.006c1.129-3.615 3.389-3.388 3.613-3.388h20.557s3.389.452 2.938 3.162c-.678 2.71-2.033 8.359-2.033 8.359H120.55l5.647-2.938zM105.641 90.731H80.113c-.452 0-2.485-.227-3.614 3.388-1.129 3.389-4.518 14.006-4.518 14.006s-2.485 4.969 3.841 4.969h22.815l1.131-3.387H82.146s-2.259.678-1.355-2.486c1.129-3.162 4.292-13.102 4.292-13.102h19.427l1.131-3.388zM148.334 94.119c1.131-3.615 3.389-3.388 3.615-3.388h25.074l-1.129 3.388h-18.523l-1.131 2.938s-.678 1.58 1.131 1.58h13.102s4.066-.225 3.162 3.162l-2.711 8.133s-.451 3.162-3.613 3.162h-24.85l.904-3.387h18.523l.902-2.486s.227-1.129-.678-1.129h-14.23s-3.162.227-1.807-4.293c1.357-4.291 2.259-7.68 2.259-7.68zM42.163 90.731h24.623s2.71.903 2.259 3.162c-.903 2.937-6.325 18.072-6.325 18.072H38.097s-2.937-.451-2.485-3.162c.452-2.033 2.711-7.906 2.937-8.359.226-.676 1.129-1.354 2.485-1.354h17.394s1.582-3.841 1.582-4.067c0 0 .677-1.808-1.356-1.808h-17.62l1.129-2.484z" fill="#bbbcbf"/><path d="M34.256 118.516c14.005 0 25.526-11.52 25.526-25.752 0-14.005-11.521-25.526-25.526-25.526-14.231 0-25.752 11.521-25.752 25.526 0 14.232 11.521 25.752 25.752 25.752z" fill="#da9046"/><path d="M31.545 125.293l2.033-4.744h.452l1.807 4.744h-.452l-.678-1.355h-2.033l-.678 1.355h-.451zm1.356-1.807h1.807l-.904-2.484-.903 2.484zM36.515 125.293v-4.744h3.163v.453h-2.711v1.807h2.485v.224h-2.485v1.809h2.711v.451h-3.163zM41.033 123.26v2.033h-.452v-4.744h1.807c1.129 0 1.582.453 1.582 1.355 0 .451-.226.904-.678 1.129.452.227.452.678.452 1.131 0 .902.226.902.226 1.129h-.452c-.226-.227-.226-1.129-.226-1.582 0-.451-.452-.451-.904-.451h-1.355zm1.356-.451c.678 0 1.129-.227 1.129-.904s-.452-.902-1.129-.902h-1.355v1.807h1.355v-.001zM46.907 120.549c1.581 0 2.259 1.129 2.259 2.484s-.678 2.486-2.259 2.486c-1.355 0-2.033-1.131-2.033-2.486s.677-2.484 2.033-2.484zm1.807 2.484c0-1.355-.678-2.031-1.807-2.031-1.13 0-1.582.902-1.582 2.031 0 1.131.452 2.033 1.582 2.033 1.355 0 1.807-.902 1.807-2.033zM50.069 125.293v-4.744h.452v4.293h2.484v.451h-2.936zM53.91 120.549h.451v4.744h-.451v-4.744zM56.168 121.227v4.066h-.452v-4.744h.452l2.711 4.066v-4.066h.452v4.744h-.452l-2.711-4.066zM60.46 125.293v-4.744h3.163v.453h-2.711v1.807h2.485v.224h-2.485v1.809h2.711v.451H60.46zM64.075 125.293l1.807-4.744h.678l1.807 4.744h-.452l-.678-1.355h-2.033l-.678 1.355h-.451zm1.13-1.807h2.033l-.904-2.484-1.129 2.484zM69.27 123.938c0 .904.452 1.129 1.356 1.129.677 0 1.129-.451 1.129-.902 0-1.582-2.937-.453-2.937-2.486 0-.451.678-1.129 1.582-1.129 1.129 0 1.581.678 1.581 1.355h-.452c0-.678-.452-.902-1.129-.902-.904 0-1.13.451-1.13.902.226 1.129 2.937.451 2.937 2.26 0 .678-.678 1.355-1.807 1.355-.904 0-1.582-.678-1.582-1.582h.452zM78.306 121.904c-.226-.678-.678-.902-1.581-.902-1.13 0-1.582.902-1.582 2.031 0 .904.452 2.033 1.807 2.033.678 0 1.13-.451 1.355-1.355h.452c-.226.904-.678 1.809-2.033 1.809s-2.033-1.131-2.033-2.486c0-1.807.903-2.484 2.259-2.484.904 0 1.582.453 1.808 1.355h-.452v-.001zM79.662 125.293v-4.744h3.162v.453h-2.711v1.807h2.485v.224h-2.485v1.809h2.711v.451h-3.162zM84.18 121.227v4.066h-.452v-4.744h.677l2.486 4.066h.225v-4.066h.226v4.744h-.451l-2.711-4.066zM88.246 120.549h3.388v.453h-1.581v4.291h-.452v-4.291h-1.355v-.453zM92.764 123.26v2.033h-.452v-4.744h1.807c1.129 0 1.581.453 1.581 1.355 0 .451-.226.904-.678 1.129.452.227.452.678.452 1.131 0 .902.226.902.226 1.129h-.452c-.226-.227-.226-1.129-.226-1.582 0-.451-.452-.451-.903-.451h-1.355zm1.355-.451c.678 0 1.129-.227 1.129-.904s-.452-.902-1.129-.902h-1.355v1.807h1.355v-.001zM96.378 125.293l1.808-4.744h.451l1.807 4.744h-.451l-.678-1.355h-2.033l-.452 1.355h-.452zm1.13-1.807h1.807l-.904-2.484-.903 2.484zM101.121 125.293v-4.744h.453v4.293h2.485v.451h-2.938zM104.736 125.293v-4.744h3.162v.453h-2.71v1.807h2.486v.224h-2.486v1.809h2.937v.451h-3.389zM109.027 123.938c.227.904.678 1.129 1.357 1.129.902 0 1.129-.451 1.129-.902 0-1.582-2.711-.453-2.711-2.486 0-.451.451-1.129 1.582-1.129 1.129 0 1.58.678 1.58 1.355h-.451c0-.678-.453-.902-1.129-.902-.904 0-1.357.451-1.131.902.227 1.129 2.711.451 2.711 2.26 0 .678-.451 1.355-1.58 1.355-.904 0-1.809-.678-1.809-1.582h.452zM114.902 125.293v-4.744h1.58c.453 0 .904.227 1.355.453.678.451.904 1.354.904 2.031 0 .453-.227 1.131-.678 1.809-.451.451-.904.451-1.582.451h-1.579zm.452-.451h.904c.451 0 .902 0 1.129-.227.678-.227.904-.904.904-1.582s-.227-1.58-.904-1.807c-.227-.225-.678-.225-1.129-.225h-.904v3.841zM119.645 125.293v-4.744h3.164v.453h-2.711v1.807h2.484v.224h-2.484v1.809h2.711v.451h-3.164zM128.908 121.904c-.227-.678-.678-.902-1.355-.902-1.131 0-1.809.902-1.809 2.031 0 .904.453 2.033 1.809 2.033.678 0 1.355-.451 1.355-1.355h.451c-.227.904-.678 1.809-2.033 1.809s-2.033-1.131-2.033-2.486c0-1.807 1.129-2.484 2.26-2.484.902 0 1.58.453 1.807 1.355h-.452v-.001zM132.295 120.549c1.582 0 2.26 1.129 2.26 2.484s-.678 2.486-2.26 2.486c-1.355 0-2.033-1.131-2.033-2.486s.677-2.484 2.033-2.484zm1.809 2.484c0-1.355-.678-2.031-1.809-2.031-1.129 0-1.58.902-1.58 2.031 0 1.131.451 2.033 1.58 2.033 1.355 0 1.809-.902 1.809-2.033zM135.459 125.293v-4.744h.451v4.293h2.485v.451h-2.936zM141.105 120.549c1.582 0 2.26 1.129 2.26 2.484s-.678 2.486-2.033 2.486c-1.582 0-2.26-1.131-2.26-2.486s.678-2.484 2.033-2.484zm1.807 2.484c0-1.355-.678-2.031-1.58-2.031-1.355 0-1.807.902-1.807 2.031 0 1.131.451 2.033 1.807 2.033 1.129 0 1.58-.902 1.58-2.033zM144.268 125.293v-4.744h.677l1.582 4.293 1.582-4.293h.678v4.744h-.453v-4.066l-1.58 4.066h-.453l-1.58-4.066v4.066h-.453zM149.916 125.293v-4.744h1.58c1.131 0 1.582.678 1.582 1.355 0 .451-.451.904-.678.904.678.225.904.678.904 1.129 0 1.129-.678 1.355-1.582 1.355h-1.806v.001zm.451-.451h1.129c.904 0 1.355 0 1.355-.904 0-.678-.451-.904-1.355-.904h-1.129v1.808zm0-2.033h1.129c.904 0 1.131-.453 1.131-.904 0-.678-.227-.902-1.355-.902h-.904v1.806h-.001zM154.434 120.549h.451v4.744h-.451v-4.744zM155.789 125.293l1.807-4.744h.453l1.807 4.744h-.451l-.453-1.355h-2.258l-.453 1.355h-.452zm1.129-1.807h1.809l-.904-2.484-.905 2.484zM162.791 123.938c0 .904.453 1.129 1.355 1.129.678 0 1.131-.451 1.131-.902 0-1.582-2.938-.453-2.938-2.486 0-.451.678-1.129 1.582-1.129 1.129 0 1.58.678 1.58 1.355h-.451c0-.678-.451-.902-1.129-.902-.904 0-1.131.451-1.131.902.227 1.129 2.938.451 2.938 2.26 0 .678-.678 1.355-1.807 1.355-.904 0-1.582-.678-1.582-1.582h.452zM166.633 124.842h.678v.451h-.678v-.451zM167.988 125.293l1.807-4.744h.678l1.807 4.744h-.451l-.678-1.355h-2.033l-.678 1.355h-.452zm1.129-1.807h2.033l-.904-2.484-1.129 2.484zM172.957 124.842h.678v.451h-.678v-.451z" fill="#3161a6"/><path d="M102.703 90.731H76.951c-.226 0-2.259-.227-3.614 3.388-1.129 3.389-4.518 14.006-4.518 14.006s-2.485 4.969 4.066 4.969h22.589l1.13-3.387H79.209s-2.484.678-1.355-2.486c.904-3.162 4.066-13.102 4.066-13.102h19.654l1.129-3.388zM145.398 94.119c1.129-3.615 3.162-3.388 3.613-3.388h25.075l-1.129 3.388h-18.75l-1.129 2.938s-.451 1.58 1.355 1.58h12.877s4.291-.225 3.162 3.162c-.904 3.389-2.484 8.133-2.484 8.133s-.453 3.162-3.842 3.162h-24.848l1.129-3.387h18.299l.902-2.486s.453-1.129-.678-1.129h-14.006s-3.389.227-2.033-4.293c1.583-4.291 2.487-7.68 2.487-7.68zM123.26 99.314h3.615l.902-3.388s1.131-1.807-1.355-1.807h-7.906s-.451 1.581-1.129 3.389c0 0-.678 1.807 2.258 1.807h3.842l-5.648 2.938h-1.807c-.678 2.033-1.355 3.84-1.582 4.969-1.129 3.164 1.355 2.486 1.355 2.486H133.2l-1.129 3.387h-22.59c-6.551 0-4.066-4.969-4.066-4.969s3.389-10.617 4.518-14.006c1.129-3.615 3.389-3.388 3.615-3.388h20.781s3.164.452 2.711 3.162c-.678 2.71-2.033 8.359-2.033 8.359h-17.393l5.646-2.939z" fill="#da9046"/><path d="M39 90.731h24.848s2.711.903 2.033 3.162c-.904 2.937-6.099 18.072-6.099 18.072H34.934s-2.937-.451-2.259-3.162c.452-2.033 2.71-7.906 2.937-8.359.226-.676 1.129-1.354 2.259-1.354h17.62s1.355-3.841 1.355-4.067c.226 0 .903-1.808-1.355-1.808H38.097L39 90.731z" fill="#fff"/><path d="M183.123 91.86c.451.452.678.903.678 1.581s-.227 1.129-.678 1.582c-.227.451-.904.677-1.582.677-.451 0-1.129-.226-1.58-.677-.453-.452-.678-.904-.678-1.582s.225-1.129.678-1.581c.451-.452 1.129-.678 1.58-.678.678.001 1.355.227 1.582.678zm.451-.226c-.678-.678-1.129-.903-2.033-.903-.678 0-1.355.226-1.807.903-.451.452-.678 1.129-.678 1.807s.227 1.355.678 1.807 1.129.678 1.807.678c.904 0 1.355-.226 2.033-.678.451-.452.678-1.129.678-1.807s-.227-1.355-.678-1.807zm-1.582 1.581s-.225.226-.451.226h-.451v-1.129h1.129v.452c0 .226 0 .451-.227.451zm-1.355 1.582h.453v-1.129h.902c.227.226.227.452.227.678v.452h.678s-.225 0-.225-.226v-.452-.452c-.227 0-.227-.226-.453-.226h.227c.227-.226.451-.452.451-.678 0-.452-.225-.677-.451-.677-.227-.226-.453-.226-.904-.226h-.904v2.936h-.001z" fill="#3161a6"/><path d="M50.747 103.832c.226-.451.226-2.033-1.355-2.033h-5.196s-1.129 0-1.581 1.355c-.226 1.131-1.13 4.293-1.13 4.293s-.452 2.26 1.355 2.26h4.518s1.13.451 1.808-1.582c.903-2.033 1.581-4.293 1.581-4.293z" fill="#bbbcbf"/><path d="M53.458 103.832c.226-.451.226-2.033-1.355-2.033h-4.97s-1.355 0-1.581 1.355c-.452 1.131-1.355 4.293-1.355 4.293s-.452 2.26 1.355 2.26h4.518s1.13.451 2.033-1.582c.677-2.033 1.355-4.293 1.355-4.293z" fill="#da9046"/></g></svg>