<svg xmlns="http://www.w3.org/2000/svg" width="2500" height="2500" viewBox="0 0 192.756 192.756"><g fill-rule="evenodd" clip-rule="evenodd"><path fill="#fff" d="M0 0h192.756v192.756H0V0z"/><path d="M78.664 62.208l-.164.247-23.885 36.176v14.758h7.112l22.404-34.614.247-.37.206-.329c4.316 3.001 8.386 8.715 7.811 19.362-.904 16.525-16.69 17.143-20.144 17.143h-.411l-19.938.123V63.441l-.452.041h-6.578l-41.725 64.13-.329.657h69.844s32.229 0 33.422-30.831c1.191-31.571-27.42-35.23-27.42-35.23zm-17.513 50.235H56.3l23.926-36.628c1.274.411 2.425 1.233 3.617 1.932l-22.692 34.696zM39.2 115.485h-6.537l1.315-2.097H39.2v2.097zm0-2.878l-4.646-.082 4.646-7.194v7.276zm0-8.878L23.784 127.53l-4.07-.041L39.2 97.397v6.332zM9.231 127.407l-4.934.041 41.068-63.267h4.687L9.231 127.407zM180.82 67.306a4.552 4.552 0 0 1 4.562-4.563c2.467 0 4.522 2.056 4.522 4.563 0 2.549-2.056 4.563-4.522 4.563a4.527 4.527 0 0 1-4.562-4.563zm8.221 0c0-2.056-1.644-3.7-3.658-3.7-2.056 0-3.741 1.645-3.741 3.7s1.686 3.7 3.741 3.7c2.014-.001 3.658-1.645 3.658-3.7zm-1.438 2.466h-1.109l-1.069-2.055h-.986v2.055h-.945V64.88h2.384c.411 0 .946 0 1.315.247.452.288.576.74.576 1.274 0 .863-.453 1.233-1.357 1.315l1.191 2.056zm-1.727-2.795c.534 0 .946-.123.946-.74 0-.657-.699-.657-1.192-.657h-1.192v1.397h1.438z" fill="#1d5a98"/><path d="M158.498 62.043l-73.051.042v.74c2.425.904 5.673 2.425 8.427 4.399.083.041.124.082.165.082.945.657 1.809 1.397 2.672 2.179.945.863 1.85 1.809 2.713 2.878a42.897 42.897 0 0 1 2.221 2.672l15.949-.042c-3.617 1.932-5.837 5.673-5.96 9.661-.247 4.522 2.425 8.674 6.33 10.688h-4.11L92.436 128.27h16.074l20.924-32.352c-.945 0-1.973.041-2.919 0 4.028-1.151 7.358-5.303 7.812-9.414.575-4.851-1.892-9.332-6.002-11.593l20.349-.082-13.196 20.637-18.458 28.119c-.986 1.479-2.343 3.165-3.165 4.686h17.389l13.484-20.842 13.565.165c12.538 0 22.733-10.195 22.733-22.775-.001-12.58-9.949-22.776-22.528-22.776zm-30.627 34.696l-19.979 30.75h-4.234l20.226-30.791 3.987.041zm2.919 30.668h-4.687l13.319-19.897c1.48.041 2.878-.082 4.316-.041l-12.948 19.938zm27.05-32.065l-15.005-.041h-6.207l13.195-20.472c.905.041 2.262.041 3.166 0h4.851c5.714 0 10.318 4.481 10.318 10.195 0 5.672-4.604 10.318-10.318 10.318z" fill="#1d5a98"/><path d="M141.479 123.789c0-.411-.041-.822-.863-.822s-.986.329-1.027.617c-.206.986 3.494.287 3.042 2.59-.329 1.85-2.015 2.22-2.919 2.22-1.274 0-2.59-.534-2.303-2.22h1.521c-.082.534.164.945 1.069.945.78 0 1.027-.411 1.068-.658.206-1.068-3.453-.287-3.001-2.631.165-.945.904-2.138 2.713-2.138 1.11 0 2.385.329 2.138 2.097h-1.438zM145.795 122.803c.37-.534.904-1.11 1.891-1.11 1.275 0 2.18 1.069 1.769 3.289-.329 1.727-1.357 3.412-3.042 3.412-1.069 0-1.315-.658-1.439-.986l-.657 3.288h-1.48l1.686-8.838h1.438l-.166.945zm.493 4.193c.946 0 1.439-1.151 1.604-1.892.164-1.027.041-1.974-.904-1.974-1.028 0-1.479 1.028-1.686 2.057-.164.946.041 1.809.986 1.809zM152.414 128.394c-1.521 0-2.714-1.069-2.262-3.371.411-2.261 2.015-3.33 3.535-3.33 1.521 0 2.714 1.069 2.262 3.33-.411 2.301-2.014 3.371-3.535 3.371zm.986-5.304c-1.151 0-1.562 1.151-1.727 1.933-.165.822-.165 1.933.986 1.933 1.192 0 1.604-1.11 1.768-1.933.166-.782.166-1.933-1.027-1.933zM157.922 128.188h-1.48l1.645-8.551h1.479l-1.644 8.551zM160.964 128.188h-1.603l.328-1.727h1.604l-.329 1.727zM169.351 123.789c.041-.411 0-.822-.822-.822s-.986.329-1.069.617c-.164.986 3.536.287 3.084 2.59-.329 1.85-2.015 2.22-2.919 2.22-1.274 0-2.59-.534-2.302-2.22h1.521c-.082.534.123.945 1.068.945.781 0 1.028-.411 1.069-.658.205-1.068-3.453-.287-3.001-2.631.165-.945.904-2.138 2.713-2.138 1.11 0 2.385.329 2.138 2.097h-1.48zM175.435 121.857h1.397l-.205 1.109h.041c.411-.657.904-1.274 1.809-1.274.082 0 .165 0 .288.042l-.329 1.685c-.123-.041-.288-.041-.411-.041-1.192 0-1.562.822-1.686 1.521l-.616 3.288h-1.521l1.233-6.33zM179.176 128.188h-1.604l.329-1.727h1.603l-.328 1.727zM183.081 128.394c-1.521 0-2.673-1.069-2.261-3.371.452-2.261 2.014-3.33 3.535-3.33 1.562 0 2.713 1.069 2.302 3.33-.452 2.301-2.014 3.371-3.576 3.371zm1.027-5.304c-1.151 0-1.603 1.151-1.727 1.933-.164.822-.164 1.933.986 1.933 1.151 0 1.562-1.11 1.727-1.933.166-.782.166-1.933-.986-1.933zM188.672 128.188h-1.604l.329-1.727H189l-.328 1.727z" fill="#1d5a98"/></g></svg>