<svg xmlns="http://www.w3.org/2000/svg" width="2500" height="1464" viewBox="0 0 63.85 37.381"><path d="M16.63 0c.349.01.687.235.9.48l14.28 16.56c2.268 2.694 1.556 5.095-.601 6.841l-13.2 10.318v3.182h-2.82v-3.182L1.99 23.881c-2.148-1.746-2.861-4.146-.6-6.841L15.73.48c.162-.245.499-.47.9-.48z"/><path d="M16.63 10.32c.199.002.368.115.54.24l10.32 8.04c1.621 1.266 1.339 2.561-.06 3.602L17.29 29.82c-.273.227-.442.266-.66.24-.269.025-.438-.014-.72-.24L5.77 22.201c-1.391-1.041-1.672-2.336-.06-3.602l10.32-8.04c.179-.124.348-.236.6-.239z" fill="#fff"/><path d="M39.01 15.96l-2.58 8.161h1.92l.479-1.502h3.181l.479 1.502h1.92l-2.64-8.161H39.01zm.179 5.28l1.2-3.84 1.26 3.84h-2.46zM49.629 15.96h-4.14v8.161h4.44c.478-.021 1.342-.203 1.739-.48.905-.613 1.052-1.721 1.08-2.76a36.082 36.082 0 0 1 0-1.861c-.015-2.142-1.062-3.043-3.119-3.06zm1.141 5.161c-.059.932-.424 1.395-1.38 1.379h-2.04v-4.92h2.04c1.395.004 1.432.869 1.439 2.041-.008.484-.008.983-.059 1.5zM60.789 15.96l-1.8 5.581h-.059l-1.861-5.581h-3v8.161h1.861l-.121-6.541h.06l2.28 6.541h1.621l2.279-6.541h.06l-.06 6.541h1.801V15.96h-3.061zM22.93 17.64a2.678 2.678 0 0 0-1.98.78l-1.8-1.32c.206-.368.318-.803.3-1.26a2.85 2.85 0 0 0-2.82-2.88c-1.607.011-2.889 1.294-2.88 2.88a2.57 2.57 0 0 0 .3 1.26l-1.8 1.32a2.609 2.609 0 0 0-1.92-.78c-1.607-.018-2.889 1.264-2.88 2.821a2.848 2.848 0 0 0 2.88 2.879 2.68 2.68 0 0 0 1.92-.779l1.74 1.26c-.158.35-.249.746-.24 1.141a2.848 2.848 0 0 0 2.88 2.879c1.556.01 2.838-1.273 2.82-2.879a2.43 2.43 0 0 0-.24-1.141l1.74-1.26a2.749 2.749 0 0 0 1.98.779c1.556.01 2.838-1.273 2.82-2.879a2.8 2.8 0 0 0-2.82-2.821z"/><path d="M16.63 22.141a2.73 2.73 0 0 0-1.8.6l-1.8-1.32c.079-.283.138-.602.12-.959a2.741 2.741 0 0 0-.12-.9l1.86-1.44c.495.37 1.08.579 1.74.601a2.933 2.933 0 0 0 1.68-.601l1.92 1.44c-.13.273-.19.592-.18.9-.01.357.05.676.18.959l-1.86 1.32a2.644 2.644 0 0 0-1.74-.6z" fill="#fff"/></svg>