<svg xmlns="http://www.w3.org/2000/svg" width="2500" height="2500" viewBox="0 0 192.756 192.756"><path fill="#fff" d="M0 192.756h192.756V0H0v192.756z"/><path d="M28.056 172.068H23.56l4.061-12.303h4.697l4.17 12.303h-4.495l-.388-1.533h-3.208l-.341 1.533zm2.804-4.455l-.496-2.17c-.124-.521-.201-1.059-.279-1.582h-.155l-.775 3.752h1.705z" fill-rule="evenodd" clip-rule="evenodd" fill="#1e71b8"/><path fill="#1e71b8" d="M38.024 172.068h4.247v-12.302h-4.247v12.302z"/><path d="M44.889 159.766h4.325c3.922 0 6.929 1.811 6.929 6.332 0 3.654-2.449 5.971-5.875 5.971h-5.379v-12.303zm4.247 8.615h.264c1.41 0 2.496-.686 2.496-2.301 0-1.729-.946-2.465-2.496-2.465h-.264v4.766zM58.995 167.662l.217.182c.76.619 1.674 1.125 2.65 1.125.418 0 1.085-.18 1.085-.734s-.558-.604-.946-.686l-.853-.162c-1.659-.311-3.054-1.338-3.054-3.266 0-2.92 2.527-4.551 5.069-4.551 1.333 0 2.557.344 3.704 1.076l-1.147 3.15c-.728-.523-1.55-.932-2.464-.932-.372 0-.915.148-.915.654 0 .457.527.521.853.602l.961.23c1.798.424 3.1 1.436 3.1 3.523 0 2.938-2.542 4.389-5.069 4.389-1.472 0-3.177-.424-4.495-1.125l1.304-3.475zM76.259 159.766h4.092v4.144h2.604v-4.144h4.093v12.302h-4.093v-4.273h-2.604v4.273h-4.092v-12.302zM89.511 159.766h7.859v3.361h-3.58v1.176h3.27v3.197h-3.27v1.207h3.704v3.361h-7.983v-12.302zM99.864 159.766h4.246v8.353h3.566v3.949h-7.812v-12.302zM109.458 159.766h5.378c2.728 0 4.743 1.469 4.743 4.52 0 2.514-1.488 4.08-3.859 4.08h-2.17v3.703h-4.092v-12.303zm4.092 5.5h.418c.744 0 1.55-.131 1.55-1.127 0-.963-.868-1.012-1.565-1.012h-.402v2.139h-.001zM121.36 159.766h4.246v8.353h3.567v3.949h-7.813v-12.302z" fill-rule="evenodd" clip-rule="evenodd" fill="#1e71b8"/><path fill="#1e71b8" d="M130.985 172.068h4.247v-12.302h-4.247v12.302z"/><path d="M137.757 159.766h4.077l3.812 6.82h.124c-.171-1.027-.355-2.088-.355-3.133v-3.688h4.061v12.303h-4.061l-3.736-6.461h-.124c.14.848.263 1.648.263 2.463v3.998h-4.061v-12.302zM151.893 159.766h7.859v3.361h-3.581v1.176h3.27v3.197h-3.27v1.207h3.705v3.361h-7.983v-12.302z" fill-rule="evenodd" clip-rule="evenodd" fill="#1e71b8"/><path d="M26.702 189.152c-.078 0-.285.025-.337-.053-.104-.156-.156-1.297-.156-1.529l1.453-3.84c.363-.805.233-.623.856-1.297.545-.596.596-.467.596-1.219 0-.182-.026-.363-.077-.52-.52.053-1.22.285-1.323.881-.935.287-1.946.312-2.931.312-.415 0-.831 0-1.22-.104.156-1.504.26-2.283 1.816-2.828 1.79-.596 4.617-.883 6.511-.883 1.971 0 4.254.262 6.148.779 1.789.52 1.997 1.219 2.178 2.932-.467.104-.933.104-1.374.104-.934 0-1.894-.051-2.802-.312-.079-.596-.778-.828-1.323-.881-.051.182-.051.389-.051.57 0 .65.025.545.466 1.039.441.492.649.621.882 1.219l1.531 4.047c0 .336-.026 1.219-.13 1.504-.052.104-.208.078-.311.078H26.702v.001zm11.232-6.226c-.649-.025-1.608.025-1.712-.805l2.568.184 1.53-.078c-.337.674-.467.752-1.219.752l-1.167-.053zm-8.016-1.35h.182l1.79-.076 1.919.076.442-.984c-.779-.182-1.583-.234-2.387-.234-.778 0-1.582.053-2.361.234l.415.984zm-4.954.729l2.568-.184c-.104.83-1.063.779-1.712.805h-1.167c-.753 0-.882-.025-1.219-.699l1.53.078zm6.952.025c-1.349 0-2.516 1.09-2.516 2.465s1.038 2.594 2.464 2.594c1.401 0 2.516-1.117 2.516-2.543 0-1.35-1.09-2.516-2.464-2.516zM54.291 184.178c0 3.279-1.75 5.744-4.961 5.744-3.21 0-4.96-2.465-4.96-5.744 0-3.104 1.819-5.541 4.96-5.541s4.961 2.437 4.961 5.541zm-6.312.101c0 .842.289 2.408 1.351 2.408 1.061 0 1.351-1.566 1.351-2.408 0-.898-.221-2.248-1.351-2.248s-1.351 1.35-1.351 2.248zM64.236 181.943c0 1.016-.62 1.828-1.542 2.119v.102a2.487 2.487 0 0 1 1.874 2.449c0 2.568-2.865 3.309-4.74 3.309-1.874 0-4.74-.74-4.74-3.309 0-1.217.786-2.16 1.874-2.449v-.102c-.923-.291-1.543-1.104-1.543-2.119 0-2.406 2.549-3.307 4.409-3.307s4.408.901 4.408 3.307zm-5.18.305c0 .449.372.799.772.799s.771-.35.771-.799c0-.479-.33-.855-.771-.855s-.772.377-.772.855zm-.248 3.932c0 .623.455 1.117 1.02 1.117s1.02-.494 1.02-1.117c0-.594-.51-1.031-1.02-1.031s-1.02.437-1.02 1.031zM75.285 184.178c0 3.279-1.749 5.744-4.959 5.744s-4.96-2.465-4.96-5.744c0-3.104 1.819-5.541 4.96-5.541s4.959 2.437 4.959 5.541zm-6.31.101c0 .842.289 2.408 1.351 2.408 1.061 0 1.351-1.566 1.351-2.408 0-.898-.221-2.248-1.351-2.248s-1.351 1.35-1.351 2.248zM85.921 184.178c0 3.279-1.75 5.744-4.96 5.744-3.211 0-4.96-2.465-4.96-5.744 0-3.104 1.818-5.541 4.96-5.541 3.141 0 4.96 2.437 4.96 5.541zm-6.311.101c0 .842.29 2.408 1.351 2.408s1.35-1.566 1.35-2.408c0-.898-.22-2.248-1.35-2.248s-1.351 1.35-1.351 2.248z" fill-rule="evenodd" clip-rule="evenodd" fill="#cc2229"/><path fill="#cc2229" d="M86.746 187.354h4.919v-3.19h-4.919v3.19z"/><path d="M102.411 184.178c0 3.279-1.75 5.744-4.961 5.744-3.209 0-4.959-2.465-4.959-5.744 0-3.104 1.819-5.541 4.959-5.541 3.142 0 4.961 2.437 4.961 5.541zm-6.31.101c0 .842.289 2.408 1.35 2.408 1.062 0 1.351-1.566 1.351-2.408 0-.898-.22-2.248-1.351-2.248-1.13 0-1.35 1.35-1.35 2.248zM103.43 178.984l5.344-.173v10.937h-3.747v-7.428l-1.597.118v-3.454zM109.857 189.748l4.148-3.873c.646-.609 2.287-2.146 2.287-3.119a.856.856 0 0 0-.854-.869c-.8 0-.896.711-.924 1.377h-3.692c.275-3.191 1.626-4.627 4.753-4.627 2.164 0 4.451 1.32 4.451 3.857 0 2.205-1.818 3.568-3.651 4.164v.115l1.777-.26 2.025-.131v3.365h-10.32v.001z" fill-rule="evenodd" clip-rule="evenodd" fill="#cc2229"/><path fill="#cc2229" d="M132.399 187.354h4.919v-3.19h-4.919v3.19z"/><path d="M124.911 185.918c-.028.652.439 1.232 1.074 1.232.51 0 1.02-.449 1.02-1s-.441-1.016-.951-1.016c-.179 0-.344.029-.51.059v-2.277l.304.029c.413.043.785-.334.785-.783s-.317-.727-.73-.727c-.428 0-.703.406-.661.842h-3.721c.234-2.74 2.122-3.641 4.492-3.641 1.75 0 4.285.855 4.285 3.133 0 .9-.482 1.756-1.282 2.119v.086c1.089.291 1.724 1.305 1.724 2.465 0 2.656-2.646 3.482-4.699 3.482-2.535 0-4.809-1.016-4.933-4.004h3.803v.001zM137.23 189.748l4.147-3.873c.647-.609 2.287-2.146 2.287-3.119a.856.856 0 0 0-.854-.869c-.799 0-.895.711-.923 1.377h-3.693c.276-3.191 1.627-4.627 4.754-4.627 2.163 0 4.45 1.32 4.45 3.857 0 2.205-1.819 3.568-3.65 4.164v.115l1.776-.26 2.026-.131v3.365h-10.32v.001zM148.573 189.748l4.146-3.873c.648-.609 2.288-2.146 2.288-3.119a.856.856 0 0 0-.855-.869c-.799 0-.895.711-.923 1.377h-3.691c.274-3.191 1.625-4.627 4.753-4.627 2.163 0 4.45 1.32 4.45 3.857 0 2.205-1.819 3.568-3.651 4.164v.115l1.776-.26 2.026-.131v3.365h-10.319v.001zM107.757 83.386c16.945 12.602 44.936 29.389 61.564 34.211 0 0-18.102 7.281-22.074 6.428 0 0 .965 14.459 4.13 18.078L86.751 107.89l21.006-24.504z" fill-rule="evenodd" clip-rule="evenodd" fill="#cc2229"/><path d="M97.433 53.802c8.621-8.944 8.431-9.005 12.436-15.591 4.72-7.758-6.347-14.286-6.347-14.286-10.968-7.135-21.719-6.645-21.719-6.645-17.679-1.601-30.907 11.699-30.907 11.699-7.934 6.991-.538 12.19-.538 12.19 5.412 5.3 21.844 20.576 32.151 25.296l-22.37 21.554S34.378 66.78 30.323 61.137c0 0-9.049-10.902-3.428-23.761 0 0 14.226-32.727 49.157-34.433 0 0 24.712-2.837 50.592 20.533 0 0 19.825 14.981 5.571 31.969l-24.458 27.941-21.006 24.504s-16.371 20.424-22.846 44.078c-7.729-9.518-15.456-15.588-15.456-15.588s-10.557-.727-21.951 6.117c2.33-17.697 19.064-38.947 33.641-54.479l22.37-21.554 14.924-12.662z" fill-rule="evenodd" clip-rule="evenodd" fill="#cc2229"/></svg>