<svg xmlns="http://www.w3.org/2000/svg" width="2500" height="2500" viewBox="0 0 192.756 192.756"><g fill-rule="evenodd" clip-rule="evenodd"><path fill="#1a3b73" d="M0 192.756h192.756V0H0v192.756z"/><path fill="#fff" d="M22.949 21.381h146.955v75.303H22.949V21.381z"/><path fill="#1a3b73" d="M25.735 24.168h141.383v69.729H25.735V24.168z"/><path d="M49.492 61.682c1.85-5.057 3.948-10.19 6.048-14.974.213-.372.622-.4.884.129.783 1.924 4.335 10.955 5.676 14.764.39 1.106.019 1.893-.622 1.893-4.001.022-8.494.117-11.898 0-.716 0-.404-.983-.088-1.812zm-.24 5.608c-1.604.146-2-.045-2.812 2.24-1.188 2.936-2.294 5.843-3.154 8.669-.581 1.769.412 2.845 2.331 3.863 1.032.655 2.271.357 2.082 2.208-.22 1.734-4.378.737-6.617.762-2.84.031-5.941.661-6.561-.194-.457-.842-.271-1.525.631-2.224 3.771-2.321 4.671-6.174 6.343-9.964 10.025-26.845 10.02-26.826 15.129-39.651.759-1.938 1.617-1.99 2.31-.075 4.965 13.359 11.507 30.892 16.448 44.298 1.019 2.265 1.311 4.51 4.615 4.867 1.27.086 1.062 2.626-.323 2.98-1.054.329-2.205-.062-5.325-.204-3.417-.156-7.589.42-9.167.392-.889-.015-1.001-.658-1.005-1.353-.021-1.158 1.457-1.448 2.891-1.965.626-.226 1.686-1.28 1.295-2.841-.387-1.745-2.729-8.666-4.307-11.659-.253-.48-.666-.48-2.083-.48-2.588-.007-9.967.269-12.721.331zm43.576-7.095c.005-5.502-.014-14.633-.327-20.082-.12-2.09-1.306-3.531-2.493-3.706-2.044-.306-3.047-.162-3.975-.492-.891-.317-.903-2.136.232-2.232 6.699.333 13.272.165 18.987-.22 1.499-.13 1.188 2.065.486 2.213-1.732.446-3.24.381-4.187.834-1.072.514-1.948 2.139-2.122 4.601-.305 7.433-.285 11.634-.207 18.97.067 6.385.037 14.078.386 19.589.151 2.382 2.574 3.169 6.347 3.282 1.106.013.99 2.261-.189 2.154-5.887-.528-17.086.211-19.169.327-1.434.079-1.186-1.893-.422-2.008 1.557-.174 5.394-.035 5.9-3.269.623-4.423.751-18.142.753-19.961zm61.12-26.999c.214 1.273.036 3.803.036 5.176 0 .843.26 5.013-.396 5.439-.557.362-2.058.381-2.429-.627-1.436-3.895-5.141-7.647-11.866-6.847-11.812 1.406-18.872 13.67-18.047 24.61.729 9.657 3.982 14.098 11.476 19.143 3.437 2.313 14.508 3.933 16.854-.396 1.092-2.015 1.126-10.046.115-14.14-.506-2.049-2.523-3.21-5.103-3.163-3.805.053-3.952.388-4.09-1.408.035-1.673 1.774-1.339 3.044-1.331 1.081 0 5.648-.167 6.889-.167 2.384-.124 5.484-.408 7.304-.478 1.092-.042 1.919-.059 1.94 1.207-.042 2.312-2.773.702-3.033 6.904-.259 6.203-.324 10.419-.389 14.701-.027.948-.3 1.216-.927 1.515-4.315 1.597-7.599 2.694-13.572 2.622-8.727-.105-14.431-2.017-20.985-7.776-9.854-8.66-8.611-26.713-1.149-35.201 4.736-5.387 11.454-9.577 18.884-10.094 3.451-.24 5.921.228 9.285.727.683.102 2.185.406 2.83-.504 1.015-1.046 3.171-1.602 3.329.088z" fill="#fff"/><path d="M22.143 113.474h2.438c.103.807.466 1.432 1.084 1.867.618.437 1.454.656 2.503.656 1.209 0 2.148-.168 2.816-.506.671-.339 1.007-.807 1.007-1.404 0-.439-.157-.77-.469-.998-.313-.229-.896-.413-1.751-.559l-2.744-.495c-1.683-.291-2.824-.691-3.415-1.194-.591-.508-.889-1.266-.889-2.269 0-1.321.47-2.323 1.404-3.011.935-.688 2.305-1.03 4.109-1.03 1.809 0 3.194.354 4.151 1.065.958.711 1.439 1.733 1.439 3.07v.09H31.67c-.076-.774-.404-1.352-.984-1.726-.58-.377-1.435-.565-2.56-.565-1.03 0-1.816.146-2.354.436-.542.291-.813.716-.813 1.266 0 .484.164.85.493 1.089.328.244 1.08.468 2.259.677l2.663.447c1.469.252 2.487.645 3.056 1.18.568.535.854 1.328.854 2.391 0 1.305-.526 2.311-1.583 3.015-1.053.707-2.564 1.062-4.533 1.062-1.9 0-3.343-.374-4.331-1.117-.988-.749-1.553-1.892-1.694-3.437zm16.708-2.197c0 1.407.401 2.511 1.206 3.317.805.805 1.904 1.21 3.289 1.21s2.48-.4 3.282-1.202c.801-.803 1.202-1.911 1.202-3.325 0-1.403-.4-2.508-1.202-3.314-.801-.806-1.897-1.211-3.282-1.211s-2.484.405-3.289 1.215c-.805.809-1.206 1.915-1.206 3.31zm-2.213 10.783v-17.104h2.213v1.887c.595-.735 1.286-1.285 2.068-1.643.783-.362 1.675-.543 2.671-.543 1.946 0 3.53.613 4.746 1.844 1.218 1.227 1.829 2.818 1.829 4.776 0 1.965-.61 3.561-1.832 4.779-1.225 1.223-2.812 1.831-4.766 1.831-.981 0-1.854-.177-2.622-.529-.763-.351-1.461-.9-2.095-1.644v6.345h-2.212v.001zm15.976-4.482v-12.622h2.202v2.135c.561-.83 1.225-1.467 1.992-1.903s1.606-.656 2.514-.656c.226 0 .413.017.562.052s.293.09.435.165v2.409a6.575 6.575 0 0 0-.832-.2 4.498 4.498 0 0 0-.755-.063c-1.095 0-2.019.429-2.767 1.285-.752.854-1.125 1.927-1.125 3.216v6.184h-2.226v-.002zm8.707 0v-2.269l9.108-8.349h-8.627v-2.005h11.39v2.005l-8.94 8.589h9.177v2.028H61.321v.001zm15.743-7.473h8.631c-.172-1.073-.641-1.918-1.404-2.528-.763-.608-1.732-.915-2.9-.915-1.163 0-2.129.307-2.896.915-.77.611-1.248 1.455-1.431 2.528zm-.068 1.624v.091c0 1.199.408 2.174 1.224 2.932.817.755 1.874 1.133 3.17 1.133.97 0 1.798-.201 2.48-.598.688-.401 1.156-.947 1.412-1.647h2.591c-.439 1.38-1.229 2.457-2.366 3.231-1.137.771-2.507 1.156-4.118 1.156-2.041 0-3.674-.614-4.898-1.836-1.221-1.227-1.832-2.861-1.832-4.91 0-2.052.611-3.687 1.835-4.913 1.221-1.223 2.854-1.836 4.895-1.836 2.088 0 3.725.598 4.907 1.796 1.187 1.2 1.778 2.851 1.778 4.953v.448H76.996zm24.167-.405c0-1.399-.4-2.505-1.201-3.314-.802-.81-1.896-1.214-3.281-1.214-1.394 0-2.484.404-3.274 1.211-.79.806-1.187 1.909-1.187 3.317 0 1.415.397 2.52 1.187 3.325.79.802 1.88 1.203 3.274 1.203 1.385 0 2.479-.405 3.281-1.211.801-.806 1.201-1.91 1.201-3.317zm2.248-10.778v17.032h-2.248v-1.84c-.61.751-1.305 1.309-2.083 1.674-.778.366-1.663.547-2.655.547-1.931 0-3.503-.613-4.717-1.844-1.217-1.226-1.824-2.825-1.824-4.791 0-1.958.607-3.546 1.817-4.769 1.209-1.223 2.797-1.832 4.757-1.832.981 0 1.855.177 2.622.531.764.35 1.458.896 2.083 1.631v-6.34h2.248v.001zm12.252 15.074a5.262 5.262 0 0 1-2.148 1.686c-.878.39-1.881.582-3.007.582-1.503 0-2.671-.334-3.499-1.002s-1.24-1.6-1.24-2.799c0-.652.149-1.234.442-1.745.294-.511.737-.947 1.324-1.317.29-.184.71-.338 1.256-.459.549-.126 1.442-.256 2.679-.394l.938-.103c2.096-.208 3.141-.758 3.141-1.646 0-.668-.248-1.151-.748-1.454-.5-.304-1.308-.456-2.434-.456-1.275 0-2.202.196-2.79.586-.583.393-.903 1.021-.965 1.891l-2.305.012c.076-1.482.606-2.599 1.591-3.345.988-.751 2.427-1.125 4.312-1.125 2.049 0 3.494.318 4.342.951.843.634 1.267 1.718 1.267 3.255v5.086c0 .709.08 1.195.24 1.463.16.271.447.405.854.405.088 0 .188-.005.298-.017.106-.012.222-.031.339-.055v1.844a16.92 16.92 0 0 1-.869.086c-.293.02-.572.028-.84.028-.648 0-1.145-.158-1.491-.468-.348-.31-.578-.805-.687-1.49zm-.069-4.528c-.306.186-.756.351-1.347.491-.591.142-1.381.271-2.361.386-1.596.185-2.61.417-3.042.704-.431.282-.648.723-.648 1.324 0 .613.236 1.093.71 1.438.473.346 1.129.519 1.973.519 1.354 0 2.479-.287 3.377-.864.893-.574 1.339-1.278 1.339-2.106v-1.892h-.001zm5.586 6.486v-2.269l9.107-8.349h-8.627v-2.005h11.39v2.005l-8.939 8.589h9.177v2.028H121.18v.001zm22.539 0v-12.622h2.202v2.178c.672-.846 1.423-1.475 2.259-1.883.835-.413 1.771-.617 2.805-.617.805 0 1.518.121 2.14.361a3.777 3.777 0 0 1 1.538 1.077c.351.417.599.912.744 1.485.146.578.218 1.502.218 2.775v7.245h-2.213v-7.335c0-1.337-.226-2.284-.676-2.842-.45-.555-1.202-.834-2.255-.834-1.339 0-2.431.421-3.274 1.266-.843.846-1.263 1.954-1.263 3.33v6.415h-2.225v.001zm24.069-1.958a5.262 5.262 0 0 1-2.148 1.686c-.878.39-1.881.582-3.007.582-1.504 0-2.671-.334-3.499-1.002s-1.24-1.6-1.24-2.799c0-.652.148-1.234.442-1.745s.737-.947 1.324-1.317c.29-.184.71-.338 1.255-.459.55-.126 1.443-.256 2.68-.394l.938-.103c2.094-.208 3.14-.758 3.14-1.646 0-.668-.248-1.151-.748-1.454-.499-.304-1.309-.456-2.434-.456-1.275 0-2.202.196-2.79.586-.583.393-.903 1.021-.965 1.891l-2.304.012c.076-1.482.605-2.599 1.591-3.345.987-.751 2.426-1.125 4.312-1.125 2.049 0 3.495.318 4.342.951.843.634 1.267 1.718 1.267 3.255v5.086c0 .709.08 1.195.24 1.463.16.271.446.405.855.405.087 0 .187-.005.297-.017.106-.012.221-.031.34-.055v1.844c-.29.035-.58.066-.87.086-.294.02-.572.028-.84.028-.648 0-1.145-.158-1.491-.468-.348-.31-.577-.805-.687-1.49zm-.069-4.528c-.306.186-.756.351-1.347.491-.592.142-1.381.271-2.362.386-1.595.185-2.609.417-3.041.704-.431.282-.647.723-.647 1.324 0 .613.235 1.093.709 1.438.473.346 1.129.519 1.973.519 1.354 0 2.479-.287 3.376-.864.894-.574 1.34-1.278 1.34-2.106v-1.892h-.001zM34.304 171.511H23.011v-37.552h11.293v4.959c1.713-2.126 3.482-3.716 5.297-4.749 1.814-1.033 3.73-1.545 5.736-1.545.395 0 1.15.07 2.277.209.394.023.687.047.89.07v9.893c-.372-.047-.8-.081-1.285-.104s-1.251-.034-2.277-.034c-3.303 0-5.906 1.067-7.799 3.192-1.894 2.137-2.84 5.085-2.84 8.848v16.813h.001zm47.45-18.103c-1.409.79-4.103 1.394-8.081 1.8-.484.069-.856.116-1.093.14-4.25.453-6.932 1.01-8.059 1.659-1.116.663-1.68 1.685-1.68 3.066 0 1.452.553 2.613 1.668 3.483 1.116.871 2.592 1.312 4.441 1.312 3.832 0 6.931-.939 9.32-2.821 2.391-1.881 3.584-4.331 3.584-7.35 0-.36 0-.627-.011-.812a1.777 1.777 0 0 0-.089-.477zm11.035 12.041c0 1.475.135 2.602.395 3.391.259.777.698 1.394 1.318 1.823v.848H82.058l-.563-4.122c-1.96 1.857-4.17 3.228-6.639 4.122-2.468.881-5.32 1.322-8.555 1.322-5.016 0-8.96-1.126-11.845-3.366-2.885-2.253-4.328-5.284-4.328-9.115 0-3.564 1.295-6.224 3.899-7.988 2.592-1.753 7.055-2.903 13.368-3.448.833-.07 2.006-.151 3.494-.232 7.27-.522 10.899-1.975 10.899-4.354 0-1.428-.7-2.497-2.096-3.192-1.398-.709-3.494-1.058-6.29-1.058-2.817 0-4.88.5-6.199 1.51-1.33 1.011-2.006 2.589-2.051 4.738l-11.789.034v-.139c0-4.413 1.769-7.792 5.32-10.114 3.539-2.322 8.667-3.483 15.384-3.483 3.303 0 6.222.337 8.77.998 2.536.675 4.666 1.661 6.39 2.984a8.206 8.206 0 0 1 2.751 3.854c.541 1.557.812 3.902.812 7.061v17.926h-.001zm10.155-41.393h11.292v9.903h8.453v8.848h-8.453v15.885c0 2.484.215 3.959.644 4.411.428.454 1.465.686 3.088.686h4.722v9.045h-7.63c-4.339 0-7.438-.708-9.31-2.124-1.871-1.417-2.806-3.728-2.806-6.921v-20.981h-5.32v-8.848h5.32v-9.904zm28.662 60.691v-10.311h6.502c1.409 0 2.479-.291 3.189-.871.722-.58 1.071-1.417 1.071-2.531 0-.476-.034-.918-.113-1.312a5.302 5.302 0 0 0-.315-1.067l-15.812-34.695h12.578l9.738 24.188 10.572-24.188h12.42l-20.411 43.066c-.834 1.719-1.725 3.146-2.672 4.284-.946 1.138-1.973 1.975-3.076 2.521a6.843 6.843 0 0 1-2.198.708c-.823.14-2.029.209-3.618.209h-7.855v-.001zM117.553 124.053h52.362v2.077h-52.362v-2.077zM23.021 124.053h76.578v2.077H23.021v-2.077zM126.245 101.181h2.175v2.175h-2.175v-2.175z" fill="#f6d530"/></g></svg>