<svg enable-background="new 0 0 2498.5 1097.7" viewBox="0 0 2498.5 1097.7" xmlns="http://www.w3.org/2000/svg"><path d="m1011.5 1.6c-29.2 5-56.1 21.1-83.8 50.3-11.9 12.7-46.9 78.8-46.9 88.8 0 2.7-2.7 13.5-5.8 24.2-25 88-22.7 202.9 8.1 370.1 1.9 10.4 15.8 15.4 22.7 8.5 3.8-4.2 4.2-10.8 1.9-26.5-17.3-110.3-20-189.9-8.1-244.4s26.5-89.2 49.6-119.9c18.4-24.6 33.4-36.5 62.3-49.6 17.7-7.7 25.7-9.2 48-8.1 41.1 2.3 90.7 25 129.9 59.6 13.5 11.9 18.8 28.4 11.1 33.4-4.6 2.7-39.2 60-58 95.3-21.9 41.9-48.8 105.7-64.2 153-18.4 55.7-21.5 66.9-41.5 150.7-3.5 13.8-6.1 33.4-6.1 43.4 0 16.9.4 17.7 10 16.5 9.2-1.2 11.1-4.2 17.7-28.1 18.1-66.1 37.7-128 49.6-155.6 2.3-5.4 6.5-15 8.8-21.1 13.8-33.1 38-83 51.9-106.1 4.6-7.3 9.2-15.8 10.8-18.8 1.5-3.1 9.6-16.1 18.4-28.8 38.4-56.5 46.9-67.3 53.8-67.3 5.8 0 51.5 62.6 73.8 101.8 16.9 28.8 62.6 124.1 62.6 129.5 0 3.1 1.5 6.9 3.5 8.8 5.4 5.8 34.2 90.3 42.3 124.9 3.5 13.8 11.9 48 14.2 56.9.8 3.1 5.8 4.6 11.9 3.8 10.4-1.2 10.8-1.9 9.6-20.4-1.5-31.9-28.1-141.4-41.5-174.1-3.1-6.9-5.4-15-5.4-18.1s-2.3-11.1-5.4-18.1c-3.1-6.9-11.1-26.5-17.7-43.4-25.4-62.6-88.4-181-100.3-188.7-19.2-11.5 45.7-62.6 105.3-82.6 45-15 94.9-3.8 128.7 28.4 28.1 26.9 53.4 79.2 67.6 138 8.1 33.1 8.5 141 .8 189.5-8.8 55-9.2 83-1.5 87.6 8.1 5.4 18.4-2.7 18.4-14.2 0-4.2 2.3-20.4 5.4-35 24.2-113.8 24.2-262.1.4-336.7-3.1-10-5.8-20-5.8-22.3 0-9.2-25.4-57.3-40.7-77.2-20.4-26.5-28.1-32.7-56.9-47.3-21.5-10.8-26.9-11.5-61.9-11.5-32.7 0-42.3 1.5-63.4 10.4-40.7 16.5-74.9 39.6-109.9 73.8-18.4 18.1-34.6 31.9-36.5 31.5-1.5-.8-15.8-13.5-31.1-28.1-45.3-43.8-71.1-60.7-120.3-79.9-18.3-7.2-62.5-10.7-86.4-6.8zm-901.6 814c-1.2 3.8-4.6 11.9-7.3 18.4-5.4 12.3-26.1 63.4-35.4 88.4-3.5 8.5-8.1 20.4-10.8 26.9-6.5 14.2-27.7 68-35.4 88.4-3.1 8.5-8.1 19.6-10.8 25s-6.1 15.4-7.7 21.9l-2.5 12.7h31.1c27.3 0 31.5-.8 36.5-8.5 3.5-4.6 6.1-11.5 6.1-15s3.1-8.8 6.9-12.3c5.8-5.4 16.1-6.5 61.1-6.5h54.3l8.5 21.1 8.5 21.1h31.5c17.7 0 32.7-1.2 33.8-2.3 1.5-1.2-2.7-14.6-9.2-29.6-6.5-15.4-14.2-34.6-17.3-43-3.5-8.5-8.1-20.8-10.8-26.9-2.7-6.5-8.1-19.2-11.5-28.8-3.8-9.6-8.8-22.7-11.5-28.8-2.7-6.5-8.1-19.2-11.5-28.8-3.5-9.6-8.8-22.7-11.5-28.8-2.7-6.5-7.7-19.2-11.5-28.8-17.5-45.8-14-42.4-44.4-42.4-22.3 0-27.6 1.2-29.2 6.6zm36.1 79.1c2.3 2.3 5 10 6.5 16.1 1.5 6.5 5 18.4 7.7 26.9 23.8 73.8 24.6 71.1-18.1 71.1-17.7 0-34.2-1.5-37.3-3.5-5.8-3.8-5.4-7.3 9.2-52.3 2.7-8.5 8.1-26.1 11.9-39.2 7.5-23.7 12.5-28.7 20.1-19.1zm271.8-80.7c-1.2 2.3-1.5 66.9-1.2 143l1.2 138.4 30 1.2 29.6 1.2v-288.8h-28.8c-19.7 0-29.7 1.6-30.8 5zm249.8 0c-1.2 2.3-1.5 66.9-1.2 143l1.2 138.4 80.3 1.2c49.6.4 81.5-.4 83-2.7 1.2-2.3 1.2-13.1 0-24.2l-1.9-20.4-46.1-1.2c-30.7-.8-46.9-2.7-48.8-5.8-1.5-2.7-3.1-56.1-3.1-119.1v-114.2h-30.7c-21.6 0-31.6 1.6-32.7 5zm297.8-1.1v280.6c0 5.4 164.1 5.4 166-.4.8-2.3.4-13.1-.8-23.8l-1.9-20-48-1.2c-26.1-.4-49.2-2.3-51.1-4.2-4.2-4.2-5-56.9-1.2-60.7 1.5-1.9 23.8-3.8 49.6-5l46.9-1.9v-50l-45.7-1.2c-25.4-.4-48-2.7-50-4.2-5.4-4.6-4.6-49.6.8-55 2.7-2.7 19.6-4.2 45.7-3.5 49.2.8 54.2-1.5 55-26.5.4-9.6.4-19.6.4-22.3-.4-5.7-165.7-6.9-165.7-.7zm330.5 140.3v144.1h151.8l18.1-11.5c27.7-17.3 37.7-35.7 37.7-69.6s-7.7-48.4-32.7-61.5c-9.6-5-17.3-10.8-17.3-13.1 0-1.9 5-6.9 11.1-10.4 24.2-13.5 34.6-55 20.4-81.5-9.2-16.9-15.4-22.7-34.6-32.7-14.2-7.3-22.3-8.1-85.3-8.1h-69.2zm127.2-79.2c11.1 13.5 9.2 28.8-4.6 40.7-10.8 8.8-15 10-37.7 8.8l-25.4-1.2-1.2-24.6c-1.5-36.1-1.9-36.1 32.3-34.2 25.1 1.3 30.5 2.8 36.6 10.5zm1.6 105.7c14.6 6.1 21.1 16.1 21.1 31.9-.4 23.1-23.4 35.7-65.7 35.7-25.7 0-26.5-1.2-26.5-36.5 0-36.1.4-36.5 31.1-36.5 14.6 0 32.7 2.3 40 5.4zm226.7-165.7c-1.2 2.3-1.5 66.9-1.2 143l1.2 138.4 81.9 1.2 81.9.8-1.2-23.8-1.2-24.2-50-1.9-50-1.9v-65.3l48.8-1.2c55.7-1.2 55-.8 52.3-35.7l-1.2-16.9-50.7-1.2-51-1.3v-28.4c0-17.7 1.5-29.6 4.6-31.1 2.3-1.5 23.4-2.3 46.1-1.9 28.4.8 43.8-.4 47.7-3.5 3.5-3.1 5.4-12.3 5.4-27.3v-22.8h-80.7c-61.5 0-81.5 1.2-82.7 5zm326.7-.3c-1.2 2.7-1.5 67.3-1.2 143.4l1.2 138.4 74.9 1.2c68.4.8 76.5.4 90.3-6.5 20.8-10.4 35-25.7 42.3-46.1 14.2-40.4 0-77.2-36.1-93-13.5-6.1-15.4-13.1-5-15.8 4.2-1.2 12.3-8.5 18.4-16.5 9.6-12.7 10.8-17.3 10.8-40.4-.4-29.2-5-38-30.4-56.1l-15.3-11.3-74.2-1.2c-58.4-1.1-74.2 0-75.7 3.9zm124.9 56.4c6.9 5 10 11.1 10.8 21.5 1.2 12.3-.4 16.1-9.6 23.4-8.5 7.3-15.4 8.8-34.6 9.2-14.2 0-25-1.9-26.5-4.6-5.8-9.2-3.8-46.9 2.7-53.4 8-8 43.4-5.7 57.2 3.9zm5.8 110c28.1 11.5 26.5 49.6-1.9 61.1-17.3 6.9-59.6 8.5-63.4 1.9-1.5-2.3-2.7-16.5-2.7-32.3s1.2-30 2.7-32.3c3.4-6.1 49.9-5 65.3 1.6zm226.7-166.4c-1.2 2.7-1.5 67.3-1.2 143.4l1.2 138.4h161.4v-46.1l-42.3-.8c-63-1.5-59.6.4-59.6-35.4 0-29.6.4-30.4 10-32.7 5.8-1.5 26.1-2.7 45.3-2.3s37.3.4 40 .4c3.1-.4 4.6-8.5 4.6-27.3v-26.5l-48.8-1.2-49.2-1.2-1.2-26.5c-.8-14.6.4-28.1 2.7-30.4 1.9-1.9 23.4-3.5 47.7-3.1 51.5.8 53.8-.4 51.9-31.1l-1.2-20.4-79.9-1.2c-61.8-.7-80.2.1-81.4 4z"/></svg>