<svg xmlns="http://www.w3.org/2000/svg" width="2500" height="2500" viewBox="45.6 24.7 1626.6 1626.6"><path fill="#E42313" d="M1672.199 838c0 449.2-364.1 813.3-813.3 813.3S45.6 1287.2 45.6 838 409.7 24.7 858.9 24.7c449.1 0 813.299 364.1 813.299 813.3"/><path fill="#FFF" d="M1122.8 983.6c21-2.1 82.2-15.5 82.8-82.8.2-26-24.7-39.6-30.8-57.7-3.8-11.199-2.9-34.3 14.8-41.199 21.9-8.601 26.4 5.699 33.9 16.399 3.199 4.4 13.199 3.4 16.6-.2 4.8-4.899 11.8-12.399 14.7-24.899 2.7-11.5-9.601-30.9-45.2-29.7-12.5.3-30 2.4-54.9 26.1-11.6 11-48.1 60.9-21.1 103.7 7.3 11.601 25 25.9 13.6 36.8-17.6 17-48-9.3-53.699-17.199-2.601-3.7-10.101-8-15-.7-2.801 4.2-16.4 28.3-14.301 37.3 6.1 27.998 42.2 35.798 58.6 34.098m-40.5-197.4c11-1.7 46.6-5.9 45.3 9-2.1 24.2-11.2 23.8-43.1 30.6-6.101 1.3-12.4 2.7-19.2 4.101-.5 1.6-1 2.5-1.4 2.6-12.1 56.2-13 77.5-19.5 126.6-2.899 21.5 1.3 44.601-24.3 48.2-25.6 3.601-34.4-22.7-34.3-45.2 0-39.8 20.2-117.699 20.3-118.199-26.1 6.6-54 14.199-81.9 22.899-33 56.101-93.399 191.3-100.899 225.101-6.101 27.1-18.3 35.399-36.4 27.5-18-7.9-28.1-25.9-21.899-46.2 16.8-55.9 80.399-177.101 81.3-179.3-23.5 9.399-45.5 19.6-64.4 30.399-11.8 6.7-26.8.3-29.8-13.8-2.1-10-6.8-29.8 16.1-40.2C805 853.6 844.9 839.6 884.8 828.1c84.8-142.399 190-288.5 220.3-285.8 13.2 1.101 11.1 15.3 22.7 28.2 11.5 12.7 13.1 20.6-.601 54.5-28 69.7-25.699 53.4-52.8 162.2 2.8-.2 5.3-.6 7.901-1m-9.601-153.9C1034.5 682.4 993.4 746.2 956.3 809.9c21.699-5 42.6-9.2 62.1-12.9 16.1-59.2 35.299-119.6 54.299-164.7m279.201 80.6c18.4-3.301 34.4-19.801 35.8-36.9 1.4-17-12.3-28.1-30.699-24.8-18.4 3.3-34.5 19.8-35.801 36.899-1.501 16.901 12.4 28.101 30.7 24.801m192.799 110.2c8.4-13.199 26.101-8.899 21.4 3.301-4.1 10.5-11.9 27.6-31.5 50.899-24.2 29.601-46.5 44.101-66.6 46.8-16.301 2.2-27.7-4.6-30.5-19.199l-1-2.9c-.101-2.7-1.4-3.8-2.801-3.6-1.5.199-2.6 1.199-5.3 3.8-20.4 21.6-36.1 34.899-54.9 37.5-28.3 3.7-44.699-18.2-40.699-50.2-7.5 11.2-15.4 21.9-22.5 29.7-22 24.5-40.101 40.1-56.9 42.2-22.5 3-34.4-13.101-30.6-41.601 1.699-13 6.6-28.2 14.8-47.3 8.6-19.1 22-45.5 34.3-66.9 9.9-17.6 19.4-37.5 20.7-44.199 1.2-5.4 1.8-6.4 5.9-9.101 5.199-3.7 15.699-8.1 21.899-8.6 16-1.2 37.2 10.3 23.3 34.3l-5.399 9c-.8 1.9-10.3 19.2-15.8 28.6-10.2 15.9-23.2 39.601-31.4 55.601-5.1 9.5-7.5 16.8-8.2 22.2-.5 3.6.7 5.6 3.5 5.199 3.8-.5 9.601-4.3 16.5-11 7.2-7.5 11.7-12.5 27.601-33.5l5.699-7.3c4.601-6 41.101-53.5 51.9-65.2 29.4-35 62.6-59.8 83.9-62.5 13.899-1.899 25.3 4.5 30.699 17.301 3.801 10.6 4.601 11.3 14 15.3 14.801 6 19.7 10.899 18.7 18.6-.6 5.4-2.6 9.601-12.1 24.5-6.7 11.5-14.101 24.8-19.301 35.101-11.199 22-17.3 36.899-6.5 40.699 4 1.4 11.601-2.5 21.101-12.399 10.601-11.402 18.002-22.302 26.101-35.102M1429.5 862.2c19.199-23.5 49-77.7 50.899-92.5.9-6.8-1.1-9.5-6.5-8.8-6.7.8-21.5 13-35.6 30.199-20.7 24.7-48.5 74.601-50.7 91.2-.8 6.7 1.8 11.101 6.7 10.601 7.701-1.1 20.9-12.5 35.201-30.7M760.4 751.1c14.3-2.6 46.7 16.9 31.2 35-16 18.601-34.1 14.9-62.6 26.7-16 6.7-28.4 21.101-46 46.4-22.5 32.899-32.7 65-34.601 89.2-.1 7.199-.6 10.8-4.399 13.3-37.601 24.5-49.101 6-48.2-16.4.2-5.3 2.2-13.8 5.399-24.1C572.4 964.5 546.8 986.3 530 989.3c-22.4 4.101-35.101-11.399-32.7-40.2 1.1-13.1 5.1-28.399 12.399-47.8 7.7-19.6 19.801-46.5 31-68.5 2.9-5.7 5.601-11.2 8-16.2-17 3.301-41.199 8.301-69.6 14.7-.4.9-.7 1.5-1 1.5C466 889 465 910.3 458.5 959.3c-2.801 21.5 1.3 44.601-24.301 48.2-25.699 3.6-34.199-22.6-34.3-45.2-.3-22.8 3.9-50.399 20.2-117-26.6 6.8-54.7 14.601-82.6 23.101-.4.6-.7.899-.7.899-46.2 84.5-91.8 189-99.4 222.8-6.1 27-18.3 35.4-36.399 27.601-18-7.9-28.5-26-21.9-46.2 11.8-36.2 48-117.6 80.2-176-.3.1 0-.7.7-2.2-23.601 9.2-45.5 19-64.7 29.5-12.6 6.8-28.5.5-31.5-13.6-2.2-10-7-29.7 17.6-40.4 37-16.1 77-29.8 117-41.399 85-142.7 190.5-289.5 220.9-286.801 13.1 1.2 11 15.301 22.6 28.2 11.5 12.8 13 20.601-.6 54.5-28.101 69.601-25.8 53.4-52.7 162 49.3-8.2 92.4-12.899 96.4-13.5 13.699-2 37.1 7.3 24.699 33.9 0 0-13.1 22.899-18.1 32.7-9.3 16.199-21.3 40.5-28.6 57-4.601 9.699-6.601 17.1-7 22.5-.4 3.5.899 5.5 3.7 5 3.8-.7 9.3-4.7 16.1-11.7 6.5-7.601 28.4-25.601 67.7-91.601l10.399-21.3C657.2 794 662 782.7 663 777.5c1.1-7.7 1.3-9.7 7.7-13.7 10.399-6.6 29.1-12 39.899-5 10.2 6.7 7.601 18.8-.899 33.601C744 753.9 752.8 752.4 760.4 751.1m-327.8 46.2c16-59.2 35.2-119.8 54.3-165-38.399 50.3-79.7 114.4-116.8 178.4 21.599-5.1 42.599-9.5 62.5-13.4m198.2-121.9c18.399-3.4 32.1 7.8 30.7 24.8-1.4 17-17.5 33.6-35.9 36.899-18.3 3.301-32.1-7.899-30.7-25 1.5-16.999 17.5-33.399 35.9-36.699"/></svg>