<svg xmlns="http://www.w3.org/2000/svg" width="2500" height="2500" viewBox="0 0 192.756 192.756"><path fill="#fff" d="M0 192.756h192.756V0H0v192.756z"/><path d="M20.408 127.348h5.134l.983 2.949h3.168l-4.917-14.201h-3.495l-5.025 14.201h3.168l.984-2.949zm2.512-7.975h.11l1.747 5.57h-3.604l1.747-5.57zm16.276-3.277h-2.949v10.049c0 1.094-.11 2.076-1.639 2.076-1.638 0-1.749-.982-1.749-3.277h-2.84c0 2.732 0 5.682 4.806 5.682 2.841 0 4.37-1.422 4.37-4.48v-10.05h.001zm13.763 0H49.9v9.395c0 1.748-.764 2.73-2.84 2.73-1.42 0-2.512-.873-2.512-2.84v-9.285H41.49v9.395c.109 1.42.327 2.621 1.092 3.496 1.311 1.418 3.277 1.746 4.588 1.746 3.495 0 5.789-1.637 5.789-5.352v-9.285zm11.032 9.939l-5.68-9.939h-3.059v14.201h2.731v-10.158l5.79 10.158h3.058v-14.201h-2.84v9.939zm11.141-7.426h4.261v-2.514h-11.47v2.514h4.26v11.688h2.949v-11.688zm7.1 8.739h5.244l.873 2.949h3.277l-5.024-14.201h-3.386l-5.134 14.201h3.168l.982-2.949zm2.622-7.975l1.748 5.57h-3.604l1.856-5.57zm21.737-3.277h-4.26l-2.514 11.252h-.108l-2.513-11.252h-4.369v14.201h2.84V118.5l2.621 11.797h2.84l2.622-11.797h.109v11.797h2.73v-14.201h.002zm12.78 0h-10.378v14.201h10.704v-2.514h-7.863v-3.713h6.881v-2.402h-6.881v-3.059h7.537v-2.513zm10.923 9.939h-.11l-5.569-9.939h-3.168v14.201h2.84v-10.158l5.79 10.158h2.948v-14.201h-2.73v9.939h-.001zm11.141-7.426h4.26v-2.514h-11.577v2.514h4.368v11.688h2.949v-11.688zm10.487 11.688h6.116c4.696 0 5.898-4.369 5.898-7.43 0-2.729-.982-6.771-5.789-6.771h-6.226v14.201h.001zm2.949-11.688h2.839c1.202 0 3.276.326 3.276 4.479 0 2.293-.873 4.805-3.276 4.805h-2.839v-9.284zm21.3-2.513h-10.487v14.201h10.814v-2.514h-7.864v-3.713h6.881v-2.402h-6.881v-3.059h7.537v-2.513zM67.05 135.104h-5.79l-3.386 14.963-3.495-14.963H48.59v19.006h3.713v-15.84l3.496 15.84h3.932l3.495-15.84h.11v15.84h3.714v-19.006zm6.444 15.072h6.991l1.201 3.934h4.369l-6.772-19.006h-4.587l-6.772 19.006h4.26l1.31-3.934zm3.495-10.815l2.404 7.537h-4.916l2.512-7.537zm16.276-.873h5.789v-3.385H83.543v3.385h5.789v15.621h3.933v-15.621zm8.847 11.688h6.99l1.201 3.934h4.37l-6.772-19.006h-4.588l-6.772 19.006h4.26l1.311-3.934zm3.495-10.815l2.403 7.537h-4.915l2.512-7.537zm10.159 14.748h3.932v-7.428h4.042c2.949 0 3.168.982 3.168 3.604 0 1.967.109 2.949.438 3.824h4.369v-.438c-.874-.328-.874-1.094-.874-3.824 0-3.604-.874-4.15-2.403-4.807 1.857-.654 2.949-2.402 2.949-4.586 0-1.639-.983-5.352-6.008-5.352h-9.612v19.007h-.001zm3.931-10.595v-5.135h4.917c2.293 0 2.84 1.529 2.84 2.512 0 1.857-1.092 2.623-3.06 2.623h-4.697zm12.999 1.091c0 8.957 6.555 10.049 9.066 10.049s9.175-1.092 9.175-10.049c0-8.848-6.663-9.939-9.175-9.939s-9.066 1.092-9.066 9.939zm3.933 0c0-5.244 3.059-6.664 5.134-6.664 2.186 0 5.243 1.42 5.243 6.664 0 5.354-3.058 6.662-5.243 6.662-2.075.001-5.134-1.308-5.134-6.662zM136.956 132.59l.329 1.201 10.813-1.855v-1.532l-11.142 2.186z" fill-rule="evenodd" clip-rule="evenodd" fill="#808183"/><path fill="#808183" d="M93.155 93.595h2.075V55.474h-2.075v38.121zM88.24 93.595h2.075V55.474H88.24v38.121zM83.434 93.595h2.075V55.474h-2.075v38.121z"/><path d="M80.594 93.158s-1.093-.108-1.42-.546c-.546-.437-.655-1.639-.655-1.639V55.474h2.075v37.684z" fill-rule="evenodd" clip-rule="evenodd" fill="#808183"/><path d="M80.703 45.643c-1.638-1.748-3.277-.437-3.277-.437-2.294-1.639-5.68.546-6.663 2.184l2.84 5.244V91.41s0 2.84 2.512 4.588c3.496 2.402 6.227 2.186 16.166 2.074 1.748-.107 2.95.328 2.95 2.076h1.857c.108-1.855.437-1.748 1.638-2.076 1.312-.217 12.562.438 14.419-.764 2.185-.873 4.041-1.42 5.024-5.461V52.743l3.386-4.806c-2.84-2.731-4.478-3.933-7.209-2.622 0 0-1.529-.874-3.277.437-.108 0 .656-1.529-.982-2.403-.109-.328 0-2.185-2.294-3.168-1.967-.873-3.604.656-3.714.874-1.419-.327-2.075.328-2.294.874-.109-.438-.327-1.529-1.856-1.639-.11-.436-1.312-2.075-3.714-2.184-2.185-.109-3.605 1.857-3.714 2.184-1.201-.109-1.857 1.093-1.857 1.639h.109c-.218-.438-.873-1.42-2.292-.983-.219-.218-1.639-1.748-3.933-.983-2.075.655-2.73 3.058-2.621 3.277-1.75.873-1.204 2.403-1.204 2.403zm28.4 15.074c0-1.093 2.294-.765 3.277-.875.109 2.293-1.857 1.638-2.949 1.857-.109 0 0 .327 0 .655v.983c.109-.764 1.857-.437 2.949-.437.109 2.294-1.857 1.748-2.949 1.857-.109.109 0 .328 0 .765v.874c.109-.547 1.966-.328 2.949-.328.109 2.293-1.857 1.638-2.949 1.747-.109.11 0 .328 0 .656v.983c.655-.654 1.857-.437 2.949-.437.109 2.294-1.857 1.639-2.949 1.748-.109.109 0 .874 0 1.201-.109.765-.874 1.093-.765 1.202l-.655-.328s.764-.546.764-.983v-1.092c-.873-.438-3.167.874-2.949-1.857 1.529 0 2.623-.108 2.949.546v-1.639c-.873-.436-3.167.874-2.949-1.856 1.421 0 2.731-.11 2.949.437v-1.53c-.873-.327-3.167.656-2.949-1.966 1.421 0 2.949-.218 2.949.437v-1.638c-.873-.437-3.167.765-2.949-1.857 1.42.001 3.605.001 3.277.875zm3.713 17.586h2.841v9.503h-8.521c-.219-.437 0-.328-.219-.983 0 0 .437 0 .656-1.203-.22-.874-.546-1.092-1.093-1.419.109-.328.109-.218.218-.655 1.529.983 3.059 1.747 4.915 2.184l.547-.546c-2.513-.655-5.462-1.638-6.336-4.588-.545-.873-.545-3.059-.545-3.167-.109 0-.983-.875-1.093-.875-1.856.875-3.495 1.201-5.024-.328 2.185-1.42 4.697-4.26 7.865-3.058 2.076 1.312 4.915 2.404 5.789 5.135zm-8.956 14.09l.655-5.133h.545v5.133h-1.2zm-1.966-19.552s-.328-.437-.328-.874c0-.218-.108-.983-.108-1.201-.874-.438-3.168.874-2.949-1.857 1.529 0 2.621-.108 2.949.546v-1.639c-.874-.436-3.168.874-2.949-1.856 1.42 0 2.73-.11 2.949.437v-1.53c-.874-.327-3.168.656-2.949-1.966 1.529 0 2.949-.218 2.949.437V61.7c-.874-.437-3.168.765-2.949-1.857 1.42 0 2.73-.109 2.949.437v-1.639c-.874-.328-3.168.765-2.949-1.966 1.966 0 2.949-.328 3.276.875.328-1.202 1.967-.765 3.276-.875.22 2.294-1.856 1.857-2.948 1.966v1.639c.109-.546 1.966-.328 2.948-.437.22 2.293-1.856 1.638-2.948 1.857v1.638c.109-.764 1.856-.437 2.948-.437.22 2.294-1.856 1.748-2.948 1.857v1.639c.109-.547 1.966-.328 2.948-.328.22 2.293-1.856 1.638-2.948 1.747v1.639c.655-.654 1.966-.437 2.948-.437.22 2.294-1.856 1.639-2.948 1.748 0 .109.109.764.109 1.092s.327.546.327.765l-.655.218zm5.243 19.662l-.765-5.353-.547.11v5.133l1.312.11zm-4.698-4.697h.983l-.109.764s-.546.219-.874-.218c-.108-.218 0-.546 0-.546zm-.108-1.093c-.656 0-1.093-.437-1.093-.983 0-.655.437-1.092 1.093-1.092h3.386c.655 0 .982.437.982.983 0 .656-.437 1.093-.982 1.093h-3.386v-.001zm-2.185-2.949a.978.978 0 0 1-.982-.983c0-.546.328-.982.874-1.092h4.696c.547 0 1.092.546 1.092 1.092s-.545.983-1.092.983h-4.588zm3.385-2.84H99.6c-.546 0-.983-.546-.983-1.092s.438-1.092.983-1.092h3.823c.655 0 1.093.546 1.093 1.092s-.438 1.092-1.093 1.092h.108zm-5.242-4.041s.437.328.655.437c.547.327 1.529.546 1.529.546s-1.966.438-2.294-.328c-.109-.437.11-.655.11-.655zM73.603 47.609c.655 1.201 2.076 2.186 2.294 4.915l-.108 38.777c1.419 8.191 18.132 2.185 20.317 6.008 2.511-3.059 12.452.328 18.131-2.512 1.421-1.311 1.747-4.042 1.421-5.681-2.513.11-7.865 0-7.865 0 .437 2.513.656 4.151.656 4.479v.108-.108h-6.117c.654-4.042.328-2.185.654-4.151 0-.109-.764-.109-1.311-.655-.327-.874-.218-1.311-.109-1.529-.873.218-1.748-1.53-1.201-2.622-1.966-.109-2.73-1.529-1.639-3.058-1.092-.656-1.638-1.967-.765-2.84 0-.219-.765-.656-.873-1.42.108-.874.765-1.311 1.201-1.639 1.202-1.201 2.403-2.075 2.513-2.185 0-.11-.328-.765-.438-1.093-.109-.328-.109-.764-.109-.764.109-.11-2.621.218-3.059-1.421v-1.857h.547v.11c-.327-.328-.655-.437-.766-1.202v-1.857c0-.109.766 0 .766 0s-.766-.218-.766-1.092v-2.075c.11 0 .766.109.766 0 0 0-.766-.11-.766-.874v-2.185c0-.109.766.11.766 0 0-.109-.655-.109-.766-.983v-2.621s4.261-.219 4.807.218c.219-.218 2.076-.438 4.588-.327v3.167s2.621-.218 2.84.328c.109-.656 4.37-.328 4.37-.328v2.622c0 .873-.656.873-.656.982 0 .109.656-.11.656 0v2.075c0 .765-.656.983-.656.983 0 .109.656 0 .656 0v2.076c.108.874-.656 1.092-.656.982 0 .11.656 0 .656.11v1.747c-.547 2.076-3.06 1.967-3.168 1.857 0 .219-.218.547-.546 1.311.873.437 1.966 1.311 2.402 1.857.983 1.311 1.092 2.076 1.747 2.076h1.748c.218-21.3-.218-24.577 0-25.124.328-1.857 2.403-4.041 2.403-4.15 0 0 .437.546-.765-.765-.874-.437-2.402-.983-2.73.546-.22-.546-1.529-.982-2.076-.654-1.529.765-1.092 3.059.765 2.948l-1.31 1.966c-.547.765-1.967.874-2.622-.109-.546-1.311.218-2.075.218-2.184 1.093-.22 1.42-1.42.328-2.076-1.202-.328-1.748 1.202-1.092 1.748-.11.109-.437.983-1.42 1.42-1.53.108-2.185-1.092-1.857-1.966l.765-2.294c.109.764 2.294 1.638 2.84-.874-.109-.765-.438-1.311-1.311-1.529.109-.765-.219-1.529-.983-1.857-.437-.219-1.747-.219-2.075.983-.438-.328-1.42-.328-1.747.218-1.202 1.093-.11 3.168 1.638 2.513l-.655 2.294c-.327.873-1.639 1.42-2.621.655-.874-.874-.438-1.966-.438-2.076.874-.108 1.42-1.747.109-2.075-1.201-.327-1.747 1.092-.983 1.857 0 .109.219 1.202-.982 1.857-1.202.437-2.186-.437-2.186-1.311v-2.403c.328.656 2.731.765 2.514-1.747-.328-.656-.875-1.093-1.857-.984 0-.873-.656-1.529-1.529-1.529-.437-.109-1.639.328-1.639 1.529-.437-.109-1.311.11-1.638.765-.765 1.42.983 3.059 2.512 1.966v2.403c0-.108-.109-.108-.109-.108v.108c0 .983-1.093 1.748-2.185 1.311-1.201-.765-.983-1.748-.983-1.857.765-.765.328-1.966-.982-1.857-1.092.656-.765 1.857.108 1.966 0 .108.438 1.311-.546 2.076-.983.764-2.184.327-2.512-.656l-.655-2.294c1.747.765 2.84-1.311 1.747-2.512-.437-.546-1.311-.546-1.857-.218-.328-1.202-1.529-1.311-1.966-.983-.764.218-1.201.983-.983 1.855-.874.11-1.312.656-1.42 1.53.437 2.403 2.73 1.529 2.84.874l.765 2.293c.218.874-.328 2.076-1.966 1.967-.874-.438-1.311-1.42-1.311-1.53.546-.546.218-1.747-1.093-1.638-1.092.546-.873 1.748.219 1.966 0 .22.874.874.218 2.186-.655.982-2.075.874-2.621.109l-1.311-1.966c1.857.109 2.294-2.185.874-2.95-.546-.327-1.856 0-2.075.656-.328-1.529-2.076-1.311-2.95-.765-1.202.658-.984.767-.984.767z" fill-rule="evenodd" clip-rule="evenodd" fill="#808183"/></svg>