<svg xmlns="http://www.w3.org/2000/svg" width="2500" height="2500" viewBox="0 0 192.756 192.741"><path fill="#fff" d="M0 192.741h192.756V0H0v192.741z"/><path d="M172.785 67.582l7.855-7.047L47.893 78.84l-25.352 30.21 23.813-8.908-37.85 27.521v4.559l145.57-24.467c6.398-1.214 10.367-3.401 11.906-6.397l5.67-7.533c1.619-1.538 2.43-3.32 2.35-5.345l2.754-.567 5.426-6.398.08-.163.082-.08c.566-.891 1.053-2.025 1.457-3.24.729-2.187.566-4.131-.404-5.67-1.701-2.672-5.67-3.725-11.744-3.159l1.134-1.621z" fill-rule="evenodd" clip-rule="evenodd" fill="#948357"/><path d="M171.65 66.61l4.373-3.888L49.512 80.217l-19.843 23.812 20.572-7.694 7.857-1.701-48.191 34.827.081.162 143.6-24.137c3.402-.648 6.156-1.862 8.344-3.645 1.133-.891 1.943-1.7 2.348-2.511l2.754-3.402 2.996-3.644c.568-.486.975-1.053 1.297-1.702.729-1.376.648-2.672-.162-3.806l4.293-.892 4.941-5.831v-.081h.08c1.701-2.592 2.025-4.698.971-6.399-1.377-2.187-5.102-2.835-11.258-1.944l-2.268.324 3.726-5.343zM167.844 110.104v4.616h-.973v-3.645l-1.295 3.645h-.566l-1.377-3.645v3.645h-1.053v-4.616h1.699l.973 2.753.973-2.753h1.619zM162.094 110.104v.971h-1.459v3.645h-.971v-3.645h-1.457v-.971h3.887z" fill-rule="evenodd" clip-rule="evenodd" fill="#041d48"/><path fill-rule="evenodd" clip-rule="evenodd" fill="#948357" d="M131.803 71.145l-4.293 3.321 2.347-3.24.811-.647-4.617.647-.162.729-5.184 7.128-.891.81 4.618-.648.242-.891 2.43-3.24.082 3.078-.973.81 4.535-.648v-4.212l5.022-3.726v-.081l1.134-.647-4.615.647-.406.081v.729h-.08zM139.738 72.522l1.377-1.862v-.081h.568l.891.161c.08.163 0 .405-.244.729-.404.648-1.133 1.053-2.023 1.134l-.648.162.079-.243zm-1.861-2.025l-5.186 7.047-.889.81 4.615-.648.244-.891v-.081l1.861-2.43v-.081h.244l.971.162c.082.162 0 .486-.404.972l-1.457 2.106 4.211-.566.242-.811v-.081l1.621-2.187c.322-.405.404-.648.322-.81l-.889-.244h-.326l.164-.081c1.377-.405 2.59-1.134 3.482-2.349.404-.566.484-.971.404-1.214l-.404-.405-2.836.081h-.08l-5.752.811-.16.809v.081h.002zM119.166 79.164l2.996-7.371-5.426.729-8.1 8.262-1.051.89 4.211-.648.242-.89 1.457-1.458 2.594-.324.242-.081-.08.243-.568 1.296h-.08l-.891.81 4.373-.648.081-.81zm-4.049-2.025l-.404.081 3.562-3.645-1.619 3.402-1.539.162zM117.385 84.509l-22.436 26.728 10.043-1.539 8.748-10.367 13.525-2.188c4.293-.729 7.451-2.349 9.477-4.94l6.885-8.18c3.482-4.211 2.268-5.831-3.807-4.859l-10.531 1.62-14.738 2.186c.97.567 1.941 1.053 2.834 1.539zm16.927.081l-6.561 7.776-9.557 1.7 6.641-8.019 9.477-1.457zM171.004 64.99l-3.809.567-.162.729v.081l-2.674 3.645.651-4.131-4.293.567-.162.729v.081l-5.264 7.127-.812.729 3.728-.486.16-.891h.08l2.512-3.482-.486 4.049 3.806-.567 5.912-8.018.813-.729zM153.832 69.607l-2.998 4.049c-.404.486-.809.81-1.375.891l-.648-.162c-.082-.162 0-.404.242-.648l2.916-4.129c.322-.406.811-.73 1.459-.811l.566.162c.08.162.08.405-.162.648zm3.887-.648c.566-.729.729-1.215.566-1.539l-3.4-.243c-3.32.405-5.67 1.539-6.965 3.402l-2.836 3.725c-.566.81-.729 1.376-.484 1.62.242.486 1.375.567 3.4.243 3.32-.405 5.588-1.539 6.965-3.402l2.754-3.806z"/><path d="M147.676 78.111l25.189-3.807c6.074-.972 7.371.648 3.889 4.86l-2.916 3.401-10.125 1.62 3.727-4.454-9.477 1.458-6.156 7.37 10.691-1.863c6.074-1.053 7.371.567 3.887 4.779l-5.346 6.317c-1.457 2.35-3.807 3.645-7.125 4.05l-44.143 7.289 4.535-5.426 38.229-6.237 4.293-5.102-10.609 1.781c-6.076 1.053-7.371-.485-3.889-4.697l8.182-9.719-2.836-1.62zM41.008 96.091l8.747-3.24 24.784-4.616-42.683 29.724 16.603-2.915-24.378 7.775 67.305-10.934 7.774-9.154-38.957 6.562 41.145-28.509-16.442 2.753 24.217-7.451-58.315 8.423-9.8 11.582z" fill-rule="evenodd" clip-rule="evenodd" fill="#948357"/><path fill-rule="evenodd" clip-rule="evenodd" fill="#948357" d="M89.28 101.842l12.634-14.903-2.754-1.62 14.66-2.187-14.416 17.171-10.124 1.539z"/></svg>