<svg xmlns="http://www.w3.org/2000/svg" width="2500" height="2500" viewBox="0 0 192.756 192.756"><path fill-rule="evenodd" clip-rule="evenodd" fill="#fff" d="M0 0h192.756v192.756H0V0z"/><path d="M10.539 98.659c.538 0 1.038.23 1.402.604.357.366.584.872.584 1.429v.003c0 .535-.23 1.033-.593 1.396-.36.36-.857.59-1.392.591h-.002a2.051 2.051 0 0 1-1.43-.586 1.962 1.962 0 0 1-.604-1.4v-.002c0-.56.229-1.068.599-1.438a2.023 2.023 0 0 1 1.434-.596h.002v-.001zm0 1.318h-.002a.712.712 0 0 0-.715.716v.002c0 .173.077.337.202.459a.735.735 0 0 0 .514.209h.002a.668.668 0 0 0 .466-.204.66.66 0 0 0 .202-.464v-.003c0-.2-.082-.382-.209-.513a.649.649 0 0 0-.46-.202zM12.104 90.974c.722 0 1.396.298 1.89.784.494.486.809 1.161.809 1.914v.002c0 .753-.314 1.428-.809 1.915a2.706 2.706 0 0 1-1.888.783h-.002a2.69 2.69 0 0 1-1.911-.788l-.001.002a2.69 2.69 0 0 1-.786-1.911v-.002a2.693 2.693 0 0 1 2.697-2.699h.001zm.001 1.318h-.003c-.388 0-.734.152-.981.4a1.372 1.372 0 0 0-.397.98v.002c0 .386.152.731.399.979v.002c.246.247.592.397.98.398h.002c.369 0 .713-.153.966-.402a1.37 1.37 0 0 0 .413-.978v-.002c0-.384-.161-.729-.412-.977a1.383 1.383 0 0 0-.967-.402zM15.804 84.001c.915 0 1.729.357 2.316.938a3.19 3.19 0 0 1 .951 2.281v.002c0 .889-.357 1.705-.943 2.299a3.254 3.254 0 0 1-2.323.969h-.002a3.179 3.179 0 0 1-2.285-.972 3.292 3.292 0 0 1-.935-2.294v-.004c0-.892.359-1.697.943-2.28a3.205 3.205 0 0 1 2.275-.939h.003zm.001 1.317h-.002c-.53 0-1.007.211-1.349.554a1.897 1.897 0 0 0-.552 1.348v.002c0 .534.213 1.023.559 1.378.342.351.816.57 1.343.57h.002a1.939 1.939 0 0 0 1.949-1.949v-.002c0-.529-.21-1.003-.555-1.344a1.972 1.972 0 0 0-1.395-.557zM20.358 71.335c1.508 0 2.882.621 3.88 1.618l.001-.001a5.48 5.48 0 0 1 1.616 3.879v.002a5.55 5.55 0 0 1-1.616 3.92 5.458 5.458 0 0 1-3.879 1.624h-.002a5.525 5.525 0 0 1-3.922-1.622 5.526 5.526 0 0 1-1.622-3.921v-.002c0-1.508.621-2.883 1.625-3.881a5.546 5.546 0 0 1 3.918-1.616h.001zm0 1.317h-.002a4.229 4.229 0 0 0-2.991 1.23 4.146 4.146 0 0 0-1.234 2.949v.002a4.218 4.218 0 0 0 4.226 4.225h.002a4.149 4.149 0 0 0 2.948-1.233 4.234 4.234 0 0 0 1.23-2.993v-.002a4.166 4.166 0 0 0-1.23-2.948v-.002a4.17 4.17 0 0 0-2.949-1.228zM32.644 53.688c3.052 0 5.813 1.25 7.813 3.262a11.084 11.084 0 0 1 3.234 7.832v.002c0 3.025-1.236 5.787-3.235 7.792a11.01 11.01 0 0 1-7.811 3.255h-.003c-3.028 0-5.79-1.249-7.794-3.253-2.003-2.004-3.251-4.766-3.252-7.793v-.002c0-3.05 1.249-5.823 3.252-7.833 2.006-2.011 4.768-3.26 7.793-3.261h.003v-.001zm.001 1.318h-.003c-2.665 0-5.096 1.099-6.861 2.87a9.766 9.766 0 0 0-2.867 6.907v.002c0 2.664 1.101 5.095 2.867 6.861s4.198 2.867 6.862 2.867h.003a9.69 9.69 0 0 0 6.878-2.864 9.71 9.71 0 0 0 2.849-6.865v-.002a9.773 9.773 0 0 0-2.849-6.905 9.662 9.662 0 0 0-6.879-2.871z"/><path d="M146.824 122.277v-16.461c4.174 3.036 8.633 5.266 13.283 6.926-9.441-7.732-14.469-17.932-7.068-34.866a150.967 150.967 0 0 0-6.215 3.368V69.053c9.061-5.882 18.596-9.677 28.414-12.239-16.982 32.257-12.807 57.778 9.014 77.749-13.234-.285-25.9-3.416-37.428-12.286zM113.098 84.85c2.703-3.416 5.977-7.875 5.074-12.144-.475-2.277-2.609-3.89-5.074-4.886V56.672c15.938 1.755 25.758 13.425 5.455 35.577 24.191 17.504 15.795 40.084-5.455 47.39v-15.322c3.842-2.371 8.537-5.313 9.297-11.765.711-6.119-4.648-9.534-9.297-11.764V84.85z" fill-rule="evenodd" clip-rule="evenodd" fill="#cc2229"/><path d="M146.824 69.053c-7.826 5.028-15.322 11.574-22.342 20.113 2.514 8.966 6.783 16.888 12.855 23.766-2.848 17.22-13.662 27.846-24.24 32.02v7.163c3.842-1.471 7.447-3.51 10.436-6.214 9.439-8.396 14.752-22.343 17.029-29.126a66.747 66.747 0 0 0 6.262 5.503v-16.461c-4.838-3.558-9.346-8.254-13.33-14.516 3.131-3.748 7.922-6.973 13.33-10.057V69.053zM113.098 113.358c.047-2.562.047-5.075 0-7.59v7.59z" fill-rule="evenodd" clip-rule="evenodd" fill="#cc2229"/><path d="M107.832 66.586c2.229 6.262 3.51 12.761 4.221 19.544.332-.427.664-.854 1.045-1.28v15.938c-.096-.047-.191-.047-.285-.095.143 1.66.236 3.368.285 5.075v7.59a158.72 158.72 0 0 1-.855 11.433c.285-.143.57-.332.855-.475v15.322c-5.504 1.851-11.812 2.704-18.691 2.229 7.449-25.995 9.203-53.461.807-83.536 6.025-1.708 12.333-2.277 17.884-1.66v11.147c-1.756-.71-3.655-1.089-5.266-1.232z" fill-rule="evenodd" clip-rule="evenodd" fill="#cc2229"/><path d="M113.098 144.951c-6.928 2.704-13.758 2.704-18.312-.047-8.776-5.266 1.423-20.445 2.325-30.644.996-11.054-5.267-11.006-9.583-15.133-2.087-1.992-2.324-3.226-.19-5.36 5.408-5.266 8.634-11.812 8.254-18.548-.332-5.692-3.984-11.005-3.652-16.697.237-4.127 3.558-7.495 5.361-11.291.285-.806.047-1.138-.759-.948-11.717 4.506-18.358 12.76-15.132 24.714 2.894 10.863 2.182 18.5-5.55 23.956-.332-11.527-2.514-21.916-6.926-30.881-4.032 1.66-8.064 3.273-12.097 4.886v9.06c5.313 18.359 5.883 37.665 3.7 57.541 3.937.854 7.922 1.756 11.859 2.657 2.229-11.622 3.226-22.865 3.083-33.728 5.218 1.803 10.816 8.254 6.689 15.322-7.78 13.329-6.736 22.532.759 30.074 5.74 5.788 18.928 6.547 30.17 2.229v-7.162h.001z" fill-rule="evenodd" clip-rule="evenodd" fill="#cc2229"/><path d="M56.836 134.848v-48.48c3.605 15.464 3.226 31.782.427 48.575-.142-.047-.284-.095-.427-.095zM56.836 68.958v9.06c-.759-2.704-1.66-5.36-2.608-7.969.854-.38 1.707-.711 2.608-1.091z" fill-rule="evenodd" clip-rule="evenodd" fill="#cc2229"/><path d="M56.836 86.367c-1.186-5.123-2.798-10.104-4.933-14.99-5.74 3.558-11.575 7.163-16.935 11.338v12.57c2.04-1.281 4.222-2.372 6.546-3.083 1.613-.522 2.657.664 2.941 1.755 1.376 6.024 2.277 12.238 1.755 18.405-.095 1.613-1.897 3.084-3.51 3.273a16.502 16.502 0 0 1-7.732-1.187v11.386c1.85.332 3.795.189 5.645-.237 1.897-.521 3.463-1.803 5.17-2.704-.664 2.609-1.28 5.218-1.944 7.874 4.364 1.328 8.681 2.704 12.997 4.08v-48.48zM34.968 82.715v12.57c-4.696 2.894-8.633 6.926-11.432 10.958 3.605 3.179 7.163 6.499 11.432 8.206v11.386c-.189 0-.332-.048-.475-.048-9.013-1.85-14.895-9.63-20.492-19.165 4.08-5.312 7.732-10.957 12.238-15.891 2.705-2.941 5.646-5.597 8.729-8.016z" fill-rule="evenodd" clip-rule="evenodd" fill="#cc2229"/><path d="M152.375 37.887c6.736 0 12.191 5.455 12.191 12.191 0 6.736-5.455 12.191-12.191 12.191s-12.191-5.455-12.191-12.191c0-6.736 5.455-12.191 12.191-12.191zM130.459 41.966c4.98 0 9.061 4.032 9.061 9.013 0 4.98-4.08 9.06-9.061 9.06s-9.014-4.08-9.014-9.06a9.01 9.01 0 0 1 9.014-9.013zM109.018 40.78c6.594 0 12.002 5.408 12.002 12.001 0 6.641-5.408 12.049-12.002 12.049v-.617c6.262 0 11.385-5.124 11.385-11.433 0-6.262-5.123-11.432-11.385-11.432v-.568zm0 .57c-6.309 0-11.432 5.17-11.432 11.432 0 6.309 5.123 11.433 11.432 11.433v.617c-6.641 0-12.049-5.408-12.049-12.049 0-6.594 5.409-12.001 12.049-12.001v.568z" fill-rule="evenodd" clip-rule="evenodd" fill="#fff"/><path d="M109.018 41.302c6.309 0 11.48 5.17 11.48 11.479s-5.172 11.48-11.48 11.48c-6.357 0-11.48-5.171-11.48-11.48s5.122-11.479 11.48-11.479z" fill-rule="evenodd" clip-rule="evenodd" fill="#f2ca30"/><path d="M116.133 47.943c.379.569.664 1.139.854 1.708.189.57.332 1.139.381 1.755.094.807.047 1.66-.049 2.514a14.103 14.103 0 0 1-.568 2.657c-.238.711-.475 1.28-.713 1.708-.236.474-.475.901-.711 1.281-.143.143-.236.332-.379.474-.143.19-.332.333-.521.522a23.926 23.926 0 0 1-2.799 1.565c.094-.143.141-.285.189-.332.047-.095.094-.19.143-.285.094-.189.189-.379.283-.616.096-.189.238-.427.332-.711l.285-.711c-.475.379-.854.664-1.186.854-.285.237-.568.427-.807.617l-.285.142c-.047.048-.143.095-.236.143-.047 0-.096.047-.143.095-.096.047-.143.047-.236.095a.947.947 0 0 0-.238.143c-.094 0-.189.047-.285.094-.143 0-.283.048-.426.095v-1.613c.521-.379 1.043-.901 1.613-1.47.664-.712 1.328-1.471 1.896-2.277.236-.332.475-.664.664-.996s.379-.616.521-.948c.285-.475.475-1.044.617-1.565a9.234 9.234 0 0 0 .285-1.708 4.813 4.813 0 0 0-.238-.759c-.094-.237-.141-.427-.236-.664-.096-.284-.238-.522-.332-.806l-.428-.712c-.047-.047-.047-.095-.047-.142-.049 0-.049-.048-.096-.095a5.648 5.648 0 0 0-.996-1.329c-.379-.379-.711-.617-1.09-.759-.047-.047-.096-.047-.143-.094-.047 0-.096 0-.189-.048-.428-.047-.902 0-1.424.285a1.427 1.427 0 0 0-.379.189v-2.04h.283c.334.047.617.189.902.285.285.095.568.19.854.332.285.048.617.143.949.285.189.095.379.19.617.332.189.142.379.332.615.522.332.284.664.617.998.901.141.142.283.284.426.379.236.19.521.238.76.333.189.047.426.142.664.285.002.043.049.043.049.09zm-7.115 13.805c-.047.047-.096.047-.143.047a.762.762 0 0 1-.379.143h-1.139c-.332.047-.664.095-.996.095-.381-.048-.76-.048-1.139-.237-1.045-.427-2.041-1.661-3.084-3.368-.475-.807-.949-1.66-1.281-2.514-.283-.854-.475-1.708-.426-2.609a5.61 5.61 0 0 1 .521-1.992c.285-.665.711-1.328 1.232-1.945 1.092-1.328 2.373-2.514 3.654-3.51.711-.522 1.375-.996 1.896-1.234.475-.237.9-.379 1.281-.427v2.04c-.428.237-.902.617-1.471 1.091-1.092.949-2.039 1.992-2.752 3.131a7.59 7.59 0 0 0-1.328 3.558c-.047.711 0 1.423.143 2.087.143.711.379 1.328.664 1.897.236.474.521.949.807 1.328.236.427.521.759.807 1.044.189.189.379.332.521.474.189.095.332.19.521.19.238.047.521.047.807-.095a4.975 4.975 0 0 0 1.043-.617c.049-.047.143-.142.238-.19v1.613h.003z" fill-rule="evenodd" clip-rule="evenodd"/><path d="M88.43 39.025c4.98 0 9.06 4.033 9.06 9.013 0 4.981-4.08 9.061-9.06 9.061v-.617c4.648 0 8.443-3.794 8.443-8.444 0-4.649-3.795-8.443-8.443-8.443v-.57zm0 .57c-4.649 0-8.444 3.794-8.444 8.443 0 4.649 3.795 8.444 8.444 8.444v.617c-4.981 0-9.014-4.08-9.014-9.061a9.01 9.01 0 0 1 9.014-9.013v.57z" fill-rule="evenodd" clip-rule="evenodd" fill="#fff"/><path d="M88.43 39.595c4.648 0 8.443 3.794 8.443 8.443 0 4.649-3.795 8.444-8.443 8.444-4.649 0-8.444-3.794-8.444-8.444 0-4.649 3.795-8.443 8.444-8.443z" fill-rule="evenodd" clip-rule="evenodd" fill="#f2ca30"/><path d="M87.86 47.943c1.233-.19 2.182-.664 2.894-1.375.712-.711.996-1.471.807-2.372-.095-.569-.428-1.091-.902-1.612-.427-.522-.854-.807-1.233-.854-.569-.047-1.043.19-1.518.617a6.719 6.719 0 0 0-1.375 1.803c0 .047 0 .095-.047.142 0 .047-.048.095-.095.143-.142.379-.285.711-.379 1.091-.095.332-.143.759-.143 1.233-.142 0-.379 0-.711.047-.38.048-.759.095-1.187.143a3.602 3.602 0 0 0-.759.189c-.237.048-.475.095-.664.19.143-1.043.569-1.992 1.281-2.941.759-.948 1.518-1.755 2.325-2.372.095-.095.237-.142.379-.237l.759-.379c.237-.095.427-.142.569-.189.095 0 .19-.048.237-.048.095-.047.19-.047.238-.047.047 0 .095 0 .142-.047h.142c.19 0 .333-.048.522-.048h.759c.19.048.427.048.664.142.759.285 1.519.902 2.372 1.661.854.759 1.565 1.47 1.85 2.182.285.569.095 1.043-.474 1.47-.569.475-1.613 1.044-3.084 1.661.664.047 1.139.142 1.423.19.332.095.617.237.807.427.285.19.474.427.617.664.095.285.095.569.047.901-.19.617-.522 1.233-1.043 1.85-.522.617-1.139 1.233-1.851 1.708a5.653 5.653 0 0 1-1.043.569c-.38.142-.807.237-1.329.284-.285.048-.521.048-.664.048h-.474c-.095 0-.285-.048-.427 0-.143 0-.38-.048-.665-.095-.568-.143-1.185-.665-1.897-1.376-.759-.664-1.328-1.328-1.755-1.992-.047-.095-.095-.237-.142-.332l-.142-.285c.047 0 .142 0 .189.047.095 0 .19.047.237.047.095 0 .19.047.285.047.095.047.19.047.285.095.142 0 .237 0 .379.047h.332c.285.047.569.047.807 0 .284 0 .474-.047.569-.095v.38c.095.57.237.949.38 1.233.142.285.332.569.569.807l.048.048.095.095c.142.189.332.332.569.474.237.143.474.237.711.237.047 0 .095.047.095.047h.095c.664-.047 1.186-.427 1.755-1.091.569-.712.901-1.423.949-2.135.047-.427-.047-.854-.285-1.186-.237-.332-.521-.617-.901-.807A3.651 3.651 0 0 0 89 48.75c-.379 0-.759-.048-1.138 0-.002-.285-.002-.522-.002-.807z" fill-rule="evenodd" clip-rule="evenodd"/><path d="M76.476 44.718c4.934 0 8.966 4.032 8.966 8.965 0 4.934-4.032 8.966-8.966 8.966v.522c5.218 0 9.487-4.27 9.487-9.488s-4.269-9.487-9.487-9.487v.522zm0-.522c-5.218 0-9.487 4.269-9.487 9.487s4.269 9.488 9.487 9.488v-.522c-4.934 0-8.966-4.032-8.966-8.966 0-4.933 4.032-8.965 8.966-8.965v-.522z" fill-rule="evenodd" clip-rule="evenodd" fill="#fff"/><path d="M76.523 44.765c4.934 0 9.013 4.08 9.013 9.013 0 4.981-4.08 9.013-9.013 9.013a9.009 9.009 0 0 1-9.013-9.013c0-4.933 4.032-9.013 9.013-9.013z" fill-rule="evenodd" clip-rule="evenodd" fill="#f2ca30"/><path d="M80.65 47.801c.189.19.427.427.569.617.19.189.332.427.475.664.284.569.521 1.186.759 1.897.189.664.332 1.518.379 2.514 0 1.139-.142 2.04-.285 2.704-.143.617-.379 1.186-.569 1.66-.047.048-.095.095-.142.19-.047.047-.047.143-.095.19-.095.095-.189.142-.284.237-.19.238-.427.427-.664.617-.285.285-.617.475-.901.711l-.285.143c.095-.285.19-.569.237-.854 0-.189.048-.379.048-.569.047-.143.047-.332.047-.475a2.65 2.65 0 0 0-.285.379c-.095.095-.189.237-.285.332-.285.332-.521.617-.806.901-.285.237-.569.474-.854.664-.095.095-.142.143-.237.19-.047.047-.095.047-.189.095-.143.095-.285.189-.474.237a4.998 4.998 0 0 1-.57.142c-.095.048-.19 0-.285.048h-.332c-.189.047-.427.047-.664.095l-.712-.143c-.806-.189-1.755-.901-2.798-1.992-.521-.522-.996-1.044-1.375-1.66-.38-.569-.712-1.139-.854-1.85-.19-.806-.095-1.66.142-2.419.285-.806.712-1.565 1.233-2.324.237-.332.475-.617.664-.901.237-.285.475-.569.759-.854.19-.19.379-.379.522-.569.189-.19.379-.38.616-.569-.142 0-.285 0-.427.047a5.245 5.245 0 0 0-.664.285 6.218 6.218 0 0 0-.949.521c-.189.095-.379.238-.521.332-.142.095-.332.237-.474.332-.095.048-.19.143-.237.19-.095.047-.19.095-.237.19.379-.664.854-1.328 1.281-1.993.996-.711 1.944-1.233 2.941-1.518.996-.237 2.04-.237 3.036-.142l.143.427a4.051 4.051 0 0 0-1.139.427c-.332.189-.617.474-.949.854a1.048 1.048 0 0 0-.19.237c-.094.095-.189.19-.237.285-.854.996-1.471 2.134-1.992 3.368-.19.617-.38 1.233-.475 1.85-.047.617-.095 1.233 0 1.85a8.027 8.027 0 0 0 1.471 3.368c.711.997 1.328 1.519 1.944 1.519.237 0 .475-.095.712-.285.285-.19.522-.475.854-.854.332-.38.664-.854.996-1.423a10.12 10.12 0 0 0 .996-1.708 10.398 10.398 0 0 0 1.043-3.463 7.142 7.142 0 0 0-.095-1.992c-.095-.759-.332-1.565-.664-2.466-.237-.522-.522-1.044-.807-1.566.712.332 1.423.71 2.135 1.28z" fill-rule="evenodd" clip-rule="evenodd"/><path d="M56.03 43.911c6.831 0 12.381 5.551 12.381 12.381 0 6.831-5.551 12.381-12.381 12.381v-.474c6.546 0 11.907-5.36 11.907-11.907 0-6.546-5.36-11.907-11.907-11.907v-.474zm0 .474c-6.546 0-11.907 5.361-11.907 11.907 0 6.547 5.36 11.907 11.907 11.907v.474c-6.831 0-12.381-5.55-12.381-12.381 0-6.83 5.55-12.381 12.381-12.381v.474z" fill-rule="evenodd" clip-rule="evenodd" fill="#fff"/><path d="M56.03 44.433c6.546 0 11.859 5.313 11.859 11.859 0 6.499-5.312 11.859-11.859 11.859-6.499 0-11.859-5.36-11.859-11.859 0-6.546 5.361-11.859 11.859-11.859z" fill-rule="evenodd" clip-rule="evenodd" fill="#f2ca30"/><path d="M56.79 46.425c.616.143 1.186.332 1.755.665.901.474 1.708 1.186 2.467 1.944 1.565 1.566 2.799 2.988 3.652 4.27.522.854.901 1.613 1.044 2.229.142.664.237 1.139.189 1.518-.095 1.044-.569 2.04-1.328 3.037-.807 1.091-1.945 2.229-3.321 3.368-.427.38-.854.711-1.233 1.044-.426.284-.806.569-1.186.806-.759.474-1.471.807-2.04.949v-1.851c.854-.426 1.755-1.232 2.704-2.324.474-.617.949-1.328 1.281-2.229a9.62 9.62 0 0 0 .617-3.083 8.92 8.92 0 0 0-.332-3.273c-.285-.996-.711-1.802-1.233-2.466-.949-1.328-1.945-2.277-2.941-2.751l-.095-.095v-1.758zm-1.187-.142c.427.048.807.048 1.187.142v1.755a3.956 3.956 0 0 0-.996-.285c-.38-.047-.712-.095-1.044-.047-.475 0-.949.047-1.423.143-.569 2.704-.996 5.455-1.138 8.206-.143 2.752 0 5.55.285 8.302.569.142 1.138.237 1.708.332.285.047.664.047 1.091.047.427-.047.901-.19 1.375-.379.048-.047.095-.047.143-.096v1.851c-.143.047-.237.095-.333.095-.664.095-1.138.142-1.423.095-1.043-.095-2.04-.285-3.036-.712a11.64 11.64 0 0 1-2.941-1.85c-.19-.237-.379-.521-.569-.806.379.142.617.095.569-.095 0-.19-.048-.475-.19-.807v-.094c-.522-2.04-.854-4.08-.759-6.072.095-1.993.664-3.985 1.375-5.978v-.047-.048c.142-.332.237-.569.285-.807.047-.189-.143-.237-.569-.142.189-.237.426-.474.616-.759.996-.617 1.945-1.138 2.941-1.471.949-.283 1.898-.378 2.846-.473z" fill-rule="evenodd" clip-rule="evenodd"/><path d="M130.459 42.583c4.648 0 8.396 3.748 8.396 8.396s-3.748 8.396-8.396 8.396-8.396-3.748-8.396-8.396 3.748-8.396 8.396-8.396zM152.375 38.551c6.355 0 11.527 5.17 11.527 11.527 0 6.356-5.172 11.527-11.527 11.527-6.357 0-11.527-5.17-11.527-11.527 0-6.357 5.17-11.527 11.527-11.527z" fill-rule="evenodd" clip-rule="evenodd" fill="#f2ca30"/><path d="M157.355 49.509c.047-.427.094-.901.094-1.375-.047-.522-.047-.997-.094-1.518a66.006 66.006 0 0 1-.143-1.091 7.542 7.542 0 0 0-.236-1.091c-.189-.712-.428-1.375-.666-2.087.76.522 1.566 1.139 2.326 1.897.236.332.426.617.615.901.143.285.285.569.381.854.236.759.475 1.566.568 2.42.096.854.143 1.944 0 3.178-.189 1.376-.521 2.419-.854 3.179a7.96 7.96 0 0 1-1.043 1.897.375.375 0 0 1-.191.189.806.806 0 0 1-.189.237 1.411 1.411 0 0 1-.332.237c-.332.237-.615.474-.9.664-.428.237-.807.474-1.186.664-.143.048-.238.095-.379.143.141-.333.283-.664.426-.997.047-.19.143-.427.189-.664.047-.19.143-.38.189-.569 0-.143.049-.332.096-.475.047-.19.047-.332.094-.522 0-.095.049-.142.049-.19 0-.047.047-.142.047-.189.094-.332.189-.617.285-.996.094-.379.141-.712.236-1.091.049-.19.096-.38.143-.522 0-.19.047-.332.096-.522 0-.095 0-.189.047-.285 0-.095 0-.19.047-.285h-2.609c-1.232-.095-2.465-.142-3.699-.237-1.232-.095-2.467-.189-3.701-.332-.141 1.043-.189 1.992-.189 2.941s.096 1.85.285 2.751c.096.474.236.901.332 1.375.096.19.143.379.189.522a16.827 16.827 0 0 1-2.324-1.565c-.094-.19-.236-.379-.332-.57a10.924 10.924 0 0 1-.711-2.324c-.047-.095-.047-.285-.047-.57-.049-.237-.143-.664-.191-1.328 0-.521.049-.996.049-1.328.047-.332.094-.664.094-.949 0-.095 0-.142.049-.189v-.19c.047-.047.047-.143.047-.237v-.189c.047-.142.047-.237.047-.332.047-.143.096-.237.096-.332.047-.19.047-.38.094-.522.049-.19.096-.332.143-.475.189-.854.379-1.612.57-2.134.189-.569.379-1.091.521-1.519.047-.142.094-.237.189-.379.047-.142.143-.237.189-.379.189-.095.332-.189.475-.284.096-.048.236-.142.332-.19a1.01 1.01 0 0 0 .285-.19c.094-.047.236-.095.332-.142.094-.048.189-.142.332-.19.189-.095.332-.142.426-.189.096-.048.189-.048.285-.095s.143-.095.189-.095c.047-.047.143-.047.236-.094a9.573 9.573 0 0 0-.33 1.091c-.049.19-.049.332-.096.427 0 .095-.047.189-.047.284 0 .047 0 .095-.049.19 0 .047 0 .142-.047.237a18.178 18.178 0 0 0-.379 1.566c-.047.285-.143.569-.189.854-.049.285-.096.617-.143.854-.047.333-.143.616-.189.901-.049.285-.096.569-.143.901h1.09c.475.047.949.095 1.377.142 1.328.047 2.656.142 3.984.19 1.139.094 2.325.237 3.463.332zM136.768 48.702c-.047.143-.047.285-.047.427.047.19 0 .333 0 .475 0 .427-.049.854-.049 1.281-.047.475-.094 1.044-.236 1.66-.143.759-.332 1.329-.475 1.708s-.332.711-.475.996l-.094.095c0 .047-.047.095-.047.095-.096.095-.191.142-.285.237-.189.19-.381.38-.617.522-.285.237-.57.38-.854.569a1.078 1.078 0 0 1-.238.142c.049-.189.096-.379.143-.522.047-.142.047-.237.096-.379 0-.095 0-.19.047-.285-.096.048-.189.143-.285.237-.094.095-.189.143-.236.237-.285.237-.521.427-.76.617a10.53 10.53 0 0 1-.758.427.616.616 0 0 0-.189.142c-.096 0-.143.047-.191.047l-.426.143a1.785 1.785 0 0 1-.57.095h-1.138c-.236-.048-.473-.095-.664-.143-.758-.237-1.469-.806-2.275-1.613-.807-.759-1.424-1.565-1.709-2.419-.189-.521-.189-1.043 0-1.471.189-.474.521-.901.996-1.328.143-.19.332-.333.57-.474.189-.19.426-.333.711-.475.143-.095.332-.237.521-.332.143-.095.381-.19.57-.285-.143 0-.285-.047-.428 0-.189 0-.475.048-.807.095s-.664.142-.996.19c-.189.048-.379.095-.521.142a7.233 7.233 0 0 0-.521.143c-.096 0-.189.047-.285.047-.047.047-.143.047-.236.095.236-.379.521-.759.807-1.139 1.232-.237 2.467-.474 3.746-.569a32.785 32.785 0 0 1 3.748-.047c0 .095.047.189.047.284-.568.048-1.043.143-1.422.285-.381.142-.76.332-1.092.522l-.285.142c-.094.047-.141.095-.236.19-.854.569-1.518 1.233-1.945 1.992a3.719 3.719 0 0 0-.475 2.325c.143.854.521 1.565 1.092 2.277.568.664 1.09 1.044 1.613 1.091.189 0 .426-.047.664-.189.236-.095.473-.284.758-.475.332-.284.617-.569.949-.949.332-.332.664-.711.949-1.138.568-.711.996-1.471 1.232-2.277.238-.759.381-1.708.238-2.894 0-.332-.096-.711-.189-1.043.852.095 1.705.285 2.559.474zm-5.502-1.66c-.238 0-.475-.047-.76-.047s-.568-.047-.854-.095c-.617-.095-1.186-.237-1.66-.474-.428-.237-.617-.664-.475-1.281.096-.047.238-.095.379-.189.191-.048.332-.143.475-.237.143-.095.238-.143.332-.237.096-.047.189-.095.238-.19.094-.047.141-.095.236-.142l.143-.143c-.047.143 0 .237 0 .379 0 .19.047.333.047.475.143.427.381.759.76 1.091.379.38.9.569 1.518.569h.096s.047 0 .094.048c.57 0 1.092-.048 1.566-.143.426-.142.758-.19.947-.332l.049-.047s.047 0 .094.047c0 .047.049.047.049.095.094.047.141.095.189.143.094.047.143.094.189.094-.096.19-.332.285-.711.379-.428.048-.902.143-1.424.19-.238 0-.521 0-.76.047h-.757z" fill-rule="evenodd" clip-rule="evenodd"/></svg>