<svg xmlns="http://www.w3.org/2000/svg" width="2500" height="2500" viewBox="0 0 192.756 192.756"><g fill-rule="evenodd" clip-rule="evenodd"><path fill="#fff" d="M0 0h192.756v192.756H0V0z"/><path d="M96.052 71.043l-17.045 41.759c-3.813 9.344-10.315 11.299-20.502 11.299h-50v-9.205c7.692.438 15.18.148 17.364-5.23l25.732-63.39C54.607 38.87 62.374 31.87 71.332 31.87h49.452c8.957 0 16.725 7 19.73 14.406l25.732 63.39c2.184 5.379 9.672 5.668 17.363 5.23v9.205h-50c-10.186 0-16.686-1.955-20.502-11.299L96.052 71.043z" fill="#2b55a2"/><path d="M85.585 46.099l8.611 21.292-18.191 44.158c-3.303 7.727-8.429 9.25-16.063 9.299h-37.23c4.504-2.264 6.615-4.906 8.752-9.904l25.744-63.416c4.093-10.088 23.254-14.094 28.377-1.429z" fill="#4f8fcd"/><path d="M168.822 129.262c8.498 0 15.43 7.104 15.43 15.812s-6.932 15.812-15.43 15.812-15.428-7.104-15.428-15.812 6.93-15.812 15.428-15.812zm0 5.552c5.514 0 10.012 4.609 10.012 10.26s-4.498 10.26-10.012 10.26-10.012-4.609-10.012-10.26 4.499-10.26 10.012-10.26zM29.693 152.834H18.361l-2.74 7.041H8.504l12.049-29.662H27.5l12.05 29.662h-7.118l-2.739-7.041zm-2.655-5.262h-6.296l3.191-8.832 3.105 8.832zM63.028 154.729v5.146H51.227c-4.451 0-7.677-3.979-7.677-7.518v-22.145h4.949v18.193c0 3.793 1.896 6.322 6.154 6.322h8.375v.002zM149.131 142.41v17.465H131.6c-4.91 0-8.688-6.77-8.688-14.83 0-8.062 3.775-14.832 8.688-14.832h17.531v5.105h-14.383c-3.221 0-5.697 4.439-5.697 9.727 0 5.285 2.479 9.725 5.697 9.725h9.309v-7.092l-9.662.006v-5.273h14.736v-.001zM118.434 159.875h-14.68c-4.908 0-8.688-6.77-8.688-14.83 0-8.062 3.777-14.832 8.688-14.832h14.68v5.105h-11.531c-2.617 0-4.744 2.938-5.447 6.877h16.979v5.199h-17.059c.605 4.189 2.801 7.375 5.527 7.375h11.531v5.106zM82.735 149.398H72.361v10.479h-5.526v-29.664h16.677c5.352 0 8.209 3.916 8.241 9.49s-2.972 9.695-9.018 9.695zm-2.415-4.929h-7.613v-8.926h7.987c2.581 0 4.609 1.889 4.625 4.576s-2.084 4.35-4.999 4.35z" fill="#2b55a2"/></g></svg>