<svg xmlns="http://www.w3.org/2000/svg" width="2500" height="2500" viewBox="0 0 192.756 192.756"><g fill-rule="evenodd" clip-rule="evenodd"><path fill="#fff" d="M0 0h192.756v192.756H0V0z"/><path d="M41.297 100.85l1.277 3.408h1.277l-3.975-10.79h-1.562l-3.975 10.79h1.278l1.136-3.408h4.544zm-.284-.852h-3.975l.994-2.84c.284-.992.71-1.987.994-2.98.426 1.136.71 1.988.993 2.98l.994 2.84zM52.512 102.979c-.568-1.844-1.703-4.826-3.549-9.51h-1.845v10.79h1.135c0-4.969 0-8.234-.142-9.938h.142c.568 1.704 1.846 4.969 3.833 9.938h1.136c1.988-4.969 3.123-8.234 3.833-9.938v9.938h1.136v-10.79h-1.846c-1.845 4.684-3.123 7.667-3.691 9.51h-.142zM68.27 103.406h-4.827v-9.938h-1.136v10.79h5.963v-.852zM77.639 100.85l1.278 3.408h1.277l-3.975-10.79h-1.562l-3.975 10.79h1.277l1.136-3.408h4.544zm-.284-.852H73.38l.994-2.84c.426-.992.71-1.987.994-2.98h.142c.284 1.136.568 1.988.852 2.98l.993 2.84zM89.138 94.462c.426 1.704.852 3.407 1.277 4.968l1.278 4.828h1.419l3.265-10.79H95.1l-1.278 4.827c-.426 1.703-.852 3.266-1.42 4.969-.426-1.703-.852-3.266-1.277-4.969l-1.277-4.827h-1.42l-1.419 4.827c-.426 1.561-.852 3.266-1.278 4.969-.426-1.703-.852-3.408-1.278-4.969l-1.419-4.827h-1.277l3.265 10.79h1.562l1.278-4.828c.284-1.561.71-3.264 1.136-4.968h.14zM119.943 106.387v-.143c-.283-.141-.426-.852-.426-1.986v-7.1c0-4.4-1.703-5.536-4.543-5.536-3.406 0-4.543 2.129-4.826 4.117l2.98.142c.143-1.136.568-2.413 1.705-2.413 1.277 0 1.703 1.277 1.703 3.124v.566c-5.395.854-6.957 2.84-6.957 5.537s1.277 3.975 3.975 3.975c1.42 0 2.414-.566 2.982-1.135h.141c0 .283 0 .568.285.852h2.981zm-3.406-2.84c-.711.711-1.562 1.137-2.271 1.137-1.137 0-1.562-.852-1.562-2.271 0-1.562.994-2.982 3.834-3.691v4.825h-.001zM125.48 106.387V86.654h-3.123v19.733h3.123zM138.256 99.855c0-2.838-.426-5.11-1.703-6.529-.852-1.136-2.129-1.562-3.549-1.562-1.703 0-2.84.426-3.832 1.562-.994 1.277-1.562 3.266-1.562 5.82 0 2.98.568 4.826 1.562 5.963.992 1.277 2.412 1.703 3.832 1.703 1.562 0 2.697-.568 3.549-1.277.852-.852 1.42-1.846 1.562-2.697l-3.123-.143c-.285 1.42-.994 2.271-1.988 2.271-1.277 0-2.271-1.277-2.412-5.111h7.664zm-7.664-1.703c.141-3.69 1.135-4.684 2.27-4.684 1.137 0 1.988 1.562 2.131 4.684h-4.401zM143.225 93.326v-1.278h-2.98v14.338h2.98v-10.22c.426-.569.852-1.136 1.42-1.562.426-.426.994-.568 1.42-.568.283 0 .568 0 .852.142.143.142.426.284.568.426l.283-2.413c-.283-.142-.426-.284-.709-.426-.283 0-.568-.142-.852-.142-.711 0-1.277.284-1.703.568-.428.284-.854.71-1.279 1.278v-.143zM149.471 92.048h-1.277v1.987h1.277v8.091c0 3.266 1.279 4.686 3.691 4.686.994 0 1.703-.283 2.271-.709l-.426-1.988c-.283.283-.709.568-1.135.568-.994 0-1.277-1.137-1.277-3.408v-7.24h2.129v-1.987h-2.129v-3.123h-3.125v3.123h.001zM101.205 118.027h1.703V81.259h-1.703v36.768zM8.646 96.307c0 7.809 1.42 15.9 5.679 22.572 2.271 3.834 5.395 6.814 9.653 9.369l.994-1.561c-6.247-4.969-11.073-14.197-11.215-30.381 0-16.041 4.827-25.411 11.215-30.237l-.994-1.562c-4.543 2.697-7.382 5.395-9.796 9.37-4.259 6.672-5.678 14.623-5.678 22.43h.142z"/><path d="M27.385 97.443c0 4.684.852 9.512 3.265 13.486 1.42 2.271 3.265 4.117 5.82 5.678l.71-.994c-3.833-2.98-6.672-8.518-6.814-18.17 0-9.654 2.981-15.333 6.814-18.171l-.71-.994c-2.697 1.704-4.4 3.266-5.82 5.679-2.556 3.975-3.407 8.802-3.407 13.487h.142v-.001zM164.094 97.301c0-4.685-.852-9.227-3.266-13.344-1.42-2.413-3.266-3.975-5.963-5.679l-.566.994c3.832 2.839 6.672 8.518 6.672 18.171 0 9.652-2.98 15.189-6.672 18.17l.566.994c2.557-1.561 4.543-3.406 5.822-5.678 2.555-3.975 3.406-8.66 3.406-13.486v-.142h.001zM184.252 96.166c0-7.951-1.42-15.475-5.678-22.289-2.271-3.975-5.254-6.672-9.795-9.37l-.994 1.562C174.174 70.896 179 80.266 179 96.307c-.143 16.184-4.969 25.412-11.215 30.381l.994 1.561c4.258-2.555 7.381-5.535 9.795-9.369 4.117-6.814 5.678-14.48 5.678-22.572v-.142z"/></g></svg>