<svg xmlns="http://www.w3.org/2000/svg" width="2500" height="2500" viewBox="0 0 192.756 192.741"><path fill="#fff" d="M0 192.741h192.756V0H0v192.741z"/><path fill="#a7a8ab" d="M10.354 81.64h8.017v-7.893h-8.017v7.893zM20.22 81.763h8.017v-8.017H20.22v8.017zM39.46 81.763h8.017v-8.017H39.46v8.017zM48.587 81.763h8.386v-8.017h-8.386v8.017zM58.947 81.763h7.77v-7.77h-7.77v7.77zM68.073 81.64h8.017v-8.017h-8.017v8.017z"/><path fill="#313232" d="M87.436 81.763h8.017v-8.017h-8.017v8.017z"/><path fill="#a7a8ab" d="M29.594 119.01h8.017v-8.017h-8.017v8.017zM39.09 119.01h7.893v-8.017H39.09v8.017zM48.834 119.01h8.017v-8.017h-8.017v8.017zM58.7 119.01h8.016v-8.017H58.7v8.017zM68.196 119.01h8.016v-8.017h-8.016v8.017zM77.94 119.01h8.017v-8.017H77.94v8.017zM87.806 119.01h8.017v-8.017h-8.017v8.017zM29.594 137.88h8.017v-8.017h-8.017v8.017zM39.09 137.88h7.893v-8.017H39.09v8.017zM48.834 137.88h8.017v-8.017h-8.017v8.017z"/><path d="M58.7 129.863h8.016v7.77c-.493.37-1.479.37-8.016 0v-7.77z" fill-rule="evenodd" clip-rule="evenodd" fill="#a7a8ab"/><path fill="#a7a8ab" d="M68.196 137.88h8.016v-8.017h-8.016v8.017zM39.09 147.376h7.893v-8.017H39.09v8.017zM48.834 147.376h8.017v-8.017h-8.017v8.017zM58.7 147.376h8.016v-8.017H58.7v8.017zM48.834 156.749h8.017v-7.646h-8.017v7.646zM29.47 128.506h8.016v-8.017H29.47v8.017zM39.214 128.506h8.016v-8.017h-8.016v8.017zM48.71 128.506h8.016v-8.017H48.71v8.017zM58.577 128.506h8.016v-8.017h-8.016v8.017zM68.073 128.506h8.017v-8.017h-8.017v8.017zM77.816 128.506h8.017v-8.017h-8.017v8.017z"/><path fill="#313232" d="M96.81 81.763h8.016v-8.017H96.81v8.017zM96.81 91.26h8.016v-8.016H96.81v8.016zM96.81 100.263h8.016v-8.017H96.81v8.017zM96.81 109.636h8.016v-8.016H96.81v8.016z"/><path d="M28.36 108.033c.247-.123.37-.247.37-.493 0-.987-1.233-1.604-1.233-6.66v-9.867c0-5.303-2.343-8.263-8.633-8.263-3.823 0-8.757 1.233-8.757 2.343 0 .247.124.494.124.617l.986 3.207c.124.123.37.493.617.493.617 0 3.33-1.603 6.167-1.603 3.083 0 3.453 1.603 3.453 3.823v1.604c-3.947 0-12.95 0-12.95 8.757 0 4.81 2.837 7.893 7.4 7.893 3.823 0 5.55-2.097 6.536-3.083.247 1.233.987 3.083 1.48 3.083.124 0 .37-.122.617-.247l3.823-1.604zm-6.906-4.932c-.617.615-1.85 1.973-3.7 1.973s-3.33-1.48-3.33-3.453c0-4.564 5.796-4.193 7.03-4.193v5.673zM61.413 91.753c0-4.562-1.109-8.14-5.796-8.14-4.07 0-6.29 2.22-7.77 3.577-.617-2.22-2.96-3.577-5.057-3.577-3.946 0-6.166 2.22-7.646 3.577-.494-2.467-.864-3.577-1.604-3.577-.123 0-.37 0-.74.124l-3.7 1.356c-.37 0-.616.247-.616.494 0 1.233.986.74.986 8.016v15.541c0 .617.124.739.617.739h4.933c.617 0 .74-.122.74-.739V91.136c.617-.616 2.344-2.096 4.44-2.096 1.85 0 2.097 2.343 2.097 4.317v15.787c0 .617 0 .739.616.739h4.934c.616 0 .74-.122.74-.739V91.136c.616-.616 2.343-2.096 4.44-2.096 1.85 0 2.096 2.343 2.096 4.317v15.787c0 .617 0 .739.617.739h4.934c.617 0 .739-.122.739-.739V91.753zM95.083 91.63c0-4.439-1.11-8.14-5.797-8.14-4.068 0-6.29 2.22-7.77 3.577-.616-2.22-2.959-3.577-5.056-3.577-3.947 0-6.167 2.22-7.647 3.577-.493-2.467-.863-3.577-1.603-3.577-.123 0-.37 0-.74.123l-3.7 1.357c-.37.123-.617.247-.617.493 0 1.234.987.864.987 8.017v15.541c0 .615.123.74.617.74h4.933c.617 0 .74-.125.74-.74V91.013c.617-.616 2.343-2.096 4.44-2.096 1.85 0 2.097 2.343 2.097 4.316v15.787c0 .615 0 .74.616.74h4.933c.617 0 .74-.125.74-.74V91.013c.617-.616 2.344-2.096 4.44-2.096 1.851 0 1.974 2.343 1.974 4.316v15.787c0 .615.123.74.74.74h4.933c.616 0 .74-.125.74-.74V91.63z" fill-rule="evenodd" clip-rule="evenodd" fill="#d87f34"/><path fill="#313232" d="M106.43 81.763h8.263v-8.017h-8.263v8.017z"/><path fill="#a7a8ab" d="M10.724 119.01h8.017v-8.017h-8.017v8.017zM20.097 119.01h8.017v-8.017h-8.017v8.017zM20.097 128.506h8.017v-8.017h-8.017v8.017zM29.594 81.763h8.017v-8.017h-8.017v8.017zM29.594 72.144h8.017v-8.017h-8.017v8.017zM39.214 72.144h8.016v-8.017h-8.016v8.017zM48.957 72.144h8.016v-8.017h-8.016v8.017zM58.7 72.144h8.016v-8.017H58.7v8.017zM68.073 72.144h8.017v-8.017h-8.017v8.017zM77.94 72.144h8.017v-8.017H77.94v8.017zM20.22 72.144h8.017v-8.017H20.22v8.017zM29.47 62.893h8.016v-8.017H29.47v8.017zM39.214 62.893h8.016v-8.017h-8.016v8.017zM48.957 62.893h8.016v-8.017h-8.016v8.017zM68.073 62.893h8.017v-8.017h-8.017v8.017zM77.94 81.763h8.017v-8.017H77.94v8.017zM58.7 62.893h8.016v-8.017H58.7v8.017zM48.957 53.274h8.016v-8.016h-8.016v8.016zM58.7 53.274h8.016v-8.016H58.7v8.016zM39.214 53.274h8.016v-8.016h-8.016v8.016zM48.957 44.024h8.016v-8.017h-8.016v8.017z"/><path d="M115.309 98.537c.248 1.479.865 3.823 1.85 3.946.617 0 1.48.369 1.852.369h1.604c1.232 0 3.082-.492 3.082-2.219 0-.371.123-.371.123-.74h8.141l.123.123c0 .863-.123 2.344-.123 2.713 0 .248-.369.74-.492 1.11-1.729 4.934-6.908 4.44-10.361 4.934-3.082 0-3.699-.123-3.822 0-1.357-.247-2.221-.493-3.576-.617-1.975-.246-5.551-2.836-5.551-4.316 0-.37-.123-.124-.246-.247-.248-.863-.617-2.343-.617-2.59s-.369-1.479-.492-2.466h8.505zm26.392.493c.125.493.125.616.125.74 0 .369.369 1.355.863 2.096.123.247 1.48.863 1.85.863h2.344c1.109 0 2.713-.616 2.713-2.096V99.03h8.387v2.343c0 .37-.371 1.604-.494 2.467-.123 1.604-2.467 4.44-4.191 4.687-.988.124-2.838.617-3.207.617h-7.648c-.369 0-1.479-.247-1.973-.247-1.727-.246-4.562-1.604-5.795-3.823-.248-.74-.742-1.973-.742-2.344 0-.246-.492-2.096-.615-3.206v-.493h8.383v-.001zm17.76 0h8.635v9.866h-8.635V99.03zm16.527 0h8.264v10.113h-8.264V99.03zm8.264 0h-8.264 8.264z" fill-rule="evenodd" clip-rule="evenodd" fill="#a7a8ab"/><path d="M106.801 99.4v-.617c0-6.043.246-7.4.246-7.647 0-.369.121-.246.246-.369.246-1.85.863-3.947 2.713-5.427 1.85-1.479 4.439-1.973 6.414-2.097 1.604 0 2.713-.246 2.959-.246.371 0 2.221.123 2.59.123 1.109 0 4.811.987 5.18 1.11 3.084 1.11 4.688 5.18 4.688 7.523 0 .247.369 2.097.369 2.467v3.453h-16.648c-.248.247-.371.493-.371.74s0 .617.123.987h-8.509zm26.515 0c-.123-2.098 0-4.688 0-5.057.123-1.85.246-3.33.246-3.576 0-.37.246-.494.246-.741 0-1.726 2.838-5.549 5.057-5.796.617-.123 1.234-.493 1.975-.617 1.109-.246 2.467-.37 3.699-.493 5.057 0 10.482 0 12.58 4.563.246.37.986 3.453.986 4.44v.987h-8.633v-1.85c0-.987-2.096-1.603-2.467-1.603h-2.344c-2.344 0-2.961 2.59-2.961 4.193-.123 3.206 0 4.81 0 5.55h-8.384zm16.28 0v-.37h8.387v.37h-8.387zm9.865 0V72.39h8.635v16.033c.246-.246.371-.37.494-.616.738-2.714 3.33-4.44 5.549-4.44.246 0 1.604-.247 1.85-.247 3.453 0 6.66 1.233 7.771 4.193.246.74.492 1.85.492 2.22V99.4h-8.264v-7.03c0-.37-.123-.74-.369-1.11-.248-.37-.369-.74-.863-.987-.371-.371-1.852-.616-2.467-.616-.246 0-1.109.123-1.357.123-1.232 0-2.836 1.85-2.836 2.96v6.66h-8.635zm-40.328-10.483c.246 0 1.604.123 1.973.123 1.48 0 2.59 1.603 2.59 2.713v1.357h-8.262c-.125-.123-.125-.37-.125-.617 0-1.603.617-3.33 2.838-3.33.246 0 .617-.246.986-.246z" fill-rule="evenodd" clip-rule="evenodd" fill="#a7a8ab"/></svg>