<svg xmlns="http://www.w3.org/2000/svg" width="2500" height="2500" viewBox="0 0 192.756 192.756"><g fill-rule="evenodd" clip-rule="evenodd"><path fill="#fff" d="M0 0h192.756v192.756H0V0z"/><path d="M43.834 95.562v-.627c0-27.849 23.96-50.554 53.314-50.554s53.314 22.706 53.314 50.554v.627h-11.666v-.376c0-21.702-18.691-39.516-41.648-39.516-22.956 0-41.647 17.813-41.647 39.516v.376H43.834z" fill="#304296"/><path d="M93.636 43.88c1.255-2.886 1.004-4.015 0-5.771-1.38-2.258-2.634-4.517-2.76-7.276.125-3.011 1.004-5.143 2.76-6.899.627-1.756 4.893-1.882 5.645 0 2.008 1.756 2.635 4.014 2.51 6.899 0 3.011-1.004 5.52-2.51 7.276-.377 1.756-1.254 2.76 0 5.519-.25.502-.752 1.004-1.004 1.505-1.254.502-2.132.502-2.885.376-.627-.626-1.003-1.128-1.756-1.629zM56.128 61.441c-1.254-2.885-2.258-3.512-4.265-3.888-2.634-.502-5.018-1.129-7.15-3.011-2.132-2.007-3.011-4.265-3.136-6.649-.878-1.756 2.007-4.892 3.889-4.14 2.635-.251 4.767.753 6.774 2.885a10.54 10.54 0 0 1 3.513 6.774c1.129 1.505 1.254 2.885 4.014 3.763.251.627.251 1.254.502 1.756-.502 1.255-1.129 2.007-1.756 2.384-.879.126-1.507.001-2.385.126zM136.664 61.441c1.254-2.885 2.258-3.512 4.266-3.888 2.635-.502 5.018-1.129 7.025-3.011 2.131-2.007 3.135-4.265 3.26-6.649.754-1.756-2.006-4.892-3.889-4.14-2.633-.251-4.766.753-6.773 2.885a10.535 10.535 0 0 0-3.512 6.774c-1.129 1.505-1.256 2.885-4.016 3.763-.25.627-.25 1.254-.502 1.756.502 1.255 1.129 2.007 1.758 2.384.877.126 1.504.001 2.383.126zM96.396 11.013c2.258 0 4.139 1.881 4.139 4.265 0 2.258-1.881 4.14-4.139 4.14v2.634a6.745 6.745 0 0 0 6.774-6.773 6.745 6.745 0 0 0-6.774-6.774v2.508zm0 8.405v2.634a6.745 6.745 0 0 1-6.774-6.773 6.746 6.746 0 0 1 6.774-6.774v2.509a4.23 4.23 0 0 0-4.265 4.265c0 2.257 1.882 4.139 4.265 4.139z" fill="#304296"/><path d="M94.64 23.056v-5.018c0-1.756 1.003-2.258 1.756-2.258.877 0 2.008.502 2.008 2.007v5.52c-.502-.502-1.131-.752-2.008-.752-.627-.001-1.254.124-1.756.501zM51.863 134.576c-7.652-8.781-9.66-23.082-7.778-37.885 6.021 6.774 12.796 12.294 21.2 17.187-2.509.627-5.143 1.254-7.526 2.007 8.781 8.153 16.057 11.541 21.451 13.799 4.641 1.129 7.777.251 9.283-5.395.752-9.407.878-18.314 1.756-27.723h13.045c.629 9.283 0 18.189.502 27.472 1.381 6.147 5.771 6.774 9.91 5.646 8.029-3.889 15.557-8.781 20.574-14.677-2.258-.627-4.391-1.38-6.648-2.007 7.777-5.144 14.301-10.663 20.322-16.559 2.633 15.806 1.002 28.727-7.277 37.759-.627-3.764-.752-8.28-2.133-10.789-6.146 7.527-19.82 17.688-23.959 19.193-5.645 2.76-9.785 0-18.064 9.785-8.53-9.785-12.67-7.025-18.315-9.785-4.014-1.38-18.691-12.419-24.712-19.193-1.255 3.262-1.255 7.401-1.631 11.165zM91.504 58.18h9.785c0 .752 0 1.631-.125 2.509h-2.51c-.377 0-.627.627-.752 1.129 0 2.007 1.881 5.018 1.756 9.784.125 3.513 0 6.649-1.756 8.405-1.004 1.129-2.133 1.129-3.137 0-1.631-1.756-1.756-4.266-1.756-8.405 0-4.767 1.756-7.777 1.756-9.91-.125-.501-.376-.878-.878-1.003h-2.383V58.18zM58.386 95.438c0-1.631-.125-3.262-.125-4.893.878.125 1.756.125 2.634.125v2.509c0 .501.627.627 1.129.752 2.007 0 5.018-1.881 9.785-1.756 3.512-.125 6.648 0 8.404 1.756.502.502.753 1.004.753 1.506h-22.58v.001zM135.41 95.438c.125-1.631.125-3.262.125-4.893-.879.125-1.756.125-2.51.125-.125.878-.125 1.63-.125 2.509 0 .501-.627.627-1.004.752-2.133 0-5.143-1.881-9.91-1.756-3.512-.125-6.648 0-8.404 1.756-.502.502-.752 1.004-.752 1.506h22.58v.001zM65.788 73.233c2.258-2.383 4.516-4.767 6.648-7.15.627.627 1.254 1.255 1.882 1.756-.627.627-1.129 1.254-1.756 1.882-.251.376 0 .878.251 1.38 1.505 1.254 5.018 2.007 8.405 5.394 2.509 2.384 4.767 4.642 4.893 7.025 0 1.505-.753 2.258-2.258 2.383-2.383-.125-4.265-1.631-7.276-4.516-3.387-3.262-4.39-6.523-6.021-8.028-.376-.377-.878-.502-1.254-.126l-1.756 1.756a970.35 970.35 0 0 1-1.758-1.756zM128.762 73.233c-2.26-2.383-4.391-4.767-6.648-7.15l-1.758 1.756c.502.627 1.004 1.254 1.631 1.882.252.376 0 .878-.25 1.38-1.506 1.254-5.018 2.007-8.404 5.394-2.635 2.384-4.768 4.642-4.893 7.025 0 1.505.752 2.258 2.258 2.383 2.383-.125 4.266-1.631 7.275-4.516 3.512-3.262 4.391-6.523 6.021-8.028.377-.377.879-.502 1.254-.126l1.756 1.756 1.758-1.756zM84.103 95.438s-.125 0-.125-.126c0-7.024 5.771-12.795 12.796-12.795 7.024 0 12.668 5.771 12.668 12.795v.126h-4.014v-.126c0-4.767-3.889-8.781-8.655-8.781-4.768 0-8.656 4.014-8.656 8.781v.126h-4.014z" fill="#304296"/><path d="M93.009 95.438v-.376a3.64 3.64 0 0 1 3.638-3.638c2.007 0 3.763 1.63 3.763 3.638v.376h-7.401zM67.92 176.349l3.262-7.4 3.261 7.4H67.92zm8.154 3.889c.251.752.377 1.129.502 1.254v.628c0 .376-.125.627-.251.752-.376.251-1.003.377-1.756.377h-.502v.501h10.287v-.501c-.627-.126-1.129-.251-1.505-.628-.502-.376-1.129-1.505-1.882-3.261l-7.526-17.688h-.377l-7.526 17.312c-.752 1.631-1.38 2.76-1.882 3.262-.501.502-1.129.878-1.881 1.004v.501h7.15v-.501c-1.129-.126-1.882-.251-2.133-.377-.501-.376-.752-.752-.752-1.38 0-.502.125-1.129.501-1.756l.878-2.133h7.527l1.128 2.634zM100.033 176.349l5.771-14.175h8.656v.627h-.754a4.7 4.7 0 0 0-1.506.251c-.25.251-.5.502-.627.878-.125.251-.125.879-.125 2.008v14.175c0 1.129 0 1.757.125 2.133.127.251.377.502.754.627.375.251.752.377 1.379.377h.754v.501h-11.166v-.501h.754c.627 0 1.129-.126 1.506-.377.25-.125.375-.376.627-.752.125-.251.125-.879.125-2.008v-16.057l-8.029 19.694h-.375l-8.28-19.443v15.179c0 1.004 0 1.756.125 2.007.125.502.376.878.878 1.255.376.376 1.129.502 2.133.502v.501h-7.276v-.501h.125c.502 0 1.003-.126 1.38-.251.376-.126.753-.377.878-.628.251-.376.376-.752.502-1.254v-15.179c0-1.129 0-1.882-.125-2.133s-.376-.502-.752-.753c-.251-.125-.753-.251-1.38-.251h-.627v-.627h8.656l5.894 14.175zM130.266 161.672l.127 7.276h-.629c-.25-1.882-1.002-3.262-2.258-4.391-1.254-1.129-2.508-1.631-3.889-1.631-1.129 0-2.006.251-2.635.878-.627.627-.877 1.255-.877 2.007 0 .502.125.878.377 1.255.25.502.752 1.003 1.379 1.505.502.377 1.631.879 3.512 1.882 2.51 1.129 4.141 2.384 5.02 3.513.877 1.004 1.254 2.258 1.254 3.764 0 1.756-.627 3.261-2.008 4.641-1.506 1.255-3.262 1.882-5.395 1.882-.627 0-1.254 0-1.881-.125-.627-.251-1.381-.502-2.258-.878-.502-.126-1.004-.251-1.254-.251-.252 0-.629.125-.879.251a1.94 1.94 0 0 0-.752 1.003h-.629V176.1h.629c.502 2.258 1.379 4.014 2.633 5.269 1.381 1.254 2.76 1.756 4.391 1.756 1.129 0 2.008-.251 2.76-.878.754-.627 1.129-1.38 1.129-2.258 0-.502-.125-1.004-.5-1.506-.252-.502-.629-.878-1.131-1.38-.627-.376-1.629-1.003-3.01-1.631-1.881-1.003-3.262-1.756-4.141-2.509-.877-.627-1.504-1.38-2.006-2.258-.377-.878-.627-1.756-.627-2.76 0-1.756.627-3.136 1.881-4.391s2.76-1.882 4.768-1.882c.627 0 1.254.126 2.006.251.502.125 1.004.376 1.758.753.752.376 1.254.502 1.504.502.252 0 .502 0 .629-.251.125-.126.375-.502.5-1.255h.502z" fill="#304296"/></g></svg>