<svg xmlns="http://www.w3.org/2000/svg" width="2500" height="2500" viewBox="0 0 192.756 192.756"><path fill="#fff" d="M0 192.756h192.756V0H0v192.756z"/><path d="M169.867 121.248c.71 1.771 1.038 2.406 1.571 5.094 1.115 5.574 1.597 11.58.734 17.23-.76 5.094-2.382 9.781-8.108 10.01-4.562.152-6.539-2.383-9.528-5.17l-29.573-27.164 2.128-.027 28.661 26.279c1.317 1.191 2.915 2.383 4.688 2.459.989.051 2.104-.229 3.017-1.115 2.129-2.104 2.889-5.475 2.939-9.021.102-8.312-2.281-11.049-4.992-18.602l8.463.027z" fill-rule="evenodd" clip-rule="evenodd" fill="#33348e"/><path d="M175.518 131.182c-.455-4.055-.455-5.223-2.052-9.961l-1.774.027c1.064 2.584 1.876 6.74 2.307 10.465.228 1.773.38 3.623.431 5.549a47.858 47.858 0 0 1-.203 5.703c-.431 4.51-1.47 9.146-4.967 12.314-1.521 1.395-3.396 2.256-5.676 2.23-3.903-.025-5.905-2.127-8.464-4.586l-33.021-31.676-30.029.023 9.902 9.467 1.438-3.801.195-.521h6.04l.228.52 5.499 14.471.417 1.125h-1.446l6.845 6.541 13.507 12.441c3.396-.686 9.528-4.789 12.545-7.043.708.074 1.343 1.088 1.343 2.633l.051 5.449c5.6-.963 10.364-1.57 14.292-2.559 3.599-.861 7.78-2.281 10.339-7.172 3.191-6.03 3.012-14.925 2.253-21.639z" fill-rule="evenodd" clip-rule="evenodd" fill="#33348e"/><path d="M48.407 136.07c0 .787-.203 1.42-.659 1.852-.432.43-1.039.658-1.825.658-.785 0-1.394-.229-1.85-.658-.43-.457-.659-1.064-.659-1.852v-8.842h-4.51v8.615c0 .734.152 1.545.431 2.457.177.584.481 1.141.962 1.674.457.531.989.963 1.546 1.242.558.303 1.268.506 2.104.605.836.104 1.621.127 2.331.127 1.242 0 2.281-.15 3.168-.48.633-.229 1.241-.633 1.799-1.191.583-.582 1.014-1.24 1.267-2.002.279-.76.405-1.57.405-2.432v-8.615h-4.51v8.842zM31.631 127.229h-7.502v14.469h4.537v-5.373h2.482c1.8 0 3.168-.406 4.055-1.242.887-.811 1.343-1.949 1.343-3.395 0-1.42-.431-2.535-1.242-3.295s-2.026-1.164-3.673-1.164zm-.027 5.701c-.253.227-.659.379-1.191.43-.203.025-.405.025-.633.025h-1.115v-3.193h1.748c.584.051 1.014.203 1.267.457.305.33.456.709.456 1.166.001.455-.177.861-.532 1.115zM109.099 127.229h-4.916l-5.474 14.469h4.587l.709-2.383h5.145l.709 2.383h4.739l-5.499-14.469zm-2.509 8.945h-1.597l1.597-5.17 1.622 5.17h-1.622zM81.122 133.992c.71-.227 1.217-.557 1.597-.961.532-.584.785-1.318.785-2.18 0-1.014-.38-1.877-1.115-2.586-.76-.684-1.85-1.037-3.243-1.037h-8.464v14.469h7.805c.33 0 .988-.051 2.002-.203.785-.074 1.343-.254 1.723-.455a4.085 4.085 0 0 0 1.444-1.42 3.968 3.968 0 0 0 .533-2.027c0-.938-.254-1.697-.736-2.307-.506-.607-1.266-1.039-2.331-1.293zm-5.879-3.824h1.977c.684 0 1.165.125 1.444.354.279.254.431.584.431.988 0 .457-.152.811-.431 1.039-.279.229-.76.354-1.47.354h-1.952v-2.735h.001zm3.952 8.008c-.329.277-.887.404-1.646.404h-2.306v-2.916h2.281c.785 0 1.343.129 1.672.383.305.252.456.607.456 1.039-.001.455-.152.836-.457 1.09zM91.082 127.229h-4.537v14.468h11.581v-3.574h-7.044v-10.894zM60.444 135.564h7.019v-2.939h-7.019v-2.281h7.577v-3.115H55.908v14.468h12.315v-3.269h-7.779v-2.864z" fill-rule="evenodd" clip-rule="evenodd" fill="#008ed1"/><path d="M16.882 121.271c-1.495 6.943-2.002 14.039.051 20.934 1.622 5.346 4.713 9.984 10.136 14.596 3.37 2.863 6.792 4.613 10.213 5.777 8.565 2.939 17.84 2.688 26.709 1.926 4.461-.381 9.047-.785 12.848-.76 11.379.102 15.535 5.449 21.845 14.85 2.635-3.293 6.158-6.436 11.251-8.412a23.678 23.678 0 0 1 3.117-.914c5.195-1.166 10.339-.557 15.611-.836 7.398-.354 12.441-4.055 17.813-8.615.026 2.104-.126 4.512-.583 7.5 2.991-.049 9.885-.684 16.523-1.748-2.307 3.473-6.918 5.855-11.176 7.273-6.411 2.104-13.634 2.711-20.172 3.168-6.994.48-15.103 1.445-20.196 3.674-4.004 1.775-9.048 4.941-13.938 10.238-3.42-5.602-7.399-10.922-17.815-14.039-3.776-1.141-8.641-1.648-14.444-2.002-7.932-.508-15.205-.635-22.909-2.965-4.865-1.471-9.706-3.574-13.532-6.184-8.362-5.752-13.989-14.699-14.597-29.549-.202-5.219.431-9.451 1.8-13.887l1.445-.025z" fill-rule="evenodd" clip-rule="evenodd" fill="#33348e"/><path d="M22.608 121.248c-1.799 3.496-2.812 8.107-2.686 12.391.152 4.941 1.368 10.061 3.75 13.811 3.624 5.727 9.757 9.73 16.168 11.707 5.144 1.598 10.796 2.131 16.498 2.104 7.07 0 14.191-1.037 20.526-1.191 6.918-.201 10.669 1.42 13.608 3.271 5.069 3.217 7.526 7.855 8.972 10.338 1.874-2.205 4.079-3.801 6.36-4.967 4.105-2.129 8.464-2.99 13.101-3.016 3.117 0 6.184-.025 9.604-.051 4.03-.051 8.084-1.926 11.252-4.08 3.092-2.078 5.398-4.004 6.589-4.941.025.531.178 1.064.152 1.596-2.027 1.623-3.852 3.068-5.602 4.283-3.192 2.23-6.183 3.523-9.249 4.08-3.345.635-6.792.607-10.669.508-2.635-.053-5.246.1-7.83.582-1.394.254-2.812.66-4.283 1.242-4.511 1.85-7.196 4.484-9.705 6.867-1.978-3.32-4.511-7.375-8.438-10.34-3.928-2.99-8.414-4.027-12.392-4.004-6.336.051-14.926 1.115-21.971 1.141-8.92.051-18.195-1.191-25.088-5.65-4.156-2.688-7.349-5.955-9.427-9.682-2.813-5.119-3.675-11.072-3.472-17.484.102-3.193.482-5.5 1.242-8.49l2.99-.025z" fill-rule="evenodd" clip-rule="evenodd" fill="#33348e"/><path d="M28.69 84.046H17.465L4.946 117.344h10.517l1.622-5.498h11.707l1.647 5.498H41.21L28.69 84.046zm-9.375 20.602l3.649-11.961v.025l3.674 11.937h-7.323v-.001zM45.036 95.246h6.158l8.008 11.783V95.246h6.209v21.287h-6.209l-7.983-11.681v11.681h-6.183V95.246zM83.403 108.576v-4.588h10.491v9.377c-2.002 1.369-3.775 2.307-5.321 2.812-1.546.48-3.396.734-5.525.734-2.61 0-4.739-.43-6.386-1.342-1.647-.887-2.914-2.205-3.827-3.979-.912-1.748-1.368-3.775-1.368-6.057 0-2.408.507-4.512 1.495-6.285.988-1.773 2.433-3.117 4.359-4.029 1.495-.735 3.497-1.09 6.032-1.09 2.432 0 4.231.229 5.448.685a6.98 6.98 0 0 1 3.015 2.051c.786.914 1.395 2.078 1.799 3.523l-6.563 1.166c-.279-.836-.735-1.471-1.393-1.926-.634-.432-1.47-.66-2.459-.66-1.495 0-2.686.533-3.573 1.572-.887 1.039-1.343 2.66-1.343 4.916 0 2.383.456 4.08 1.368 5.094.887 1.039 2.129 1.547 3.751 1.547.735 0 1.47-.104 2.154-.33.71-.229 1.495-.609 2.382-1.141v-2.053h-4.536v.003zM98.836 94.512h18.194v4.713h-11.403v3.498h10.593v4.484h-10.593v4.334h11.758v4.992H98.836V94.512zM123.012 94.512h6.816v16.597h10.618v5.424h-17.434V94.512zM144.805 94.512h18.219v4.713h-11.402v3.498h10.593v4.484h-10.593v4.334h11.732v4.992h-18.549V94.512zM167.815 109.26l6.486-.404c.127 1.039.431 1.85.862 2.406.684.887 1.697 1.318 2.989 1.318.989 0 1.724-.229 2.256-.684.533-.457.785-.963.785-1.572 0-.584-.252-1.09-.76-1.545-.507-.432-1.646-.861-3.472-1.268-2.99-.658-5.119-1.545-6.386-2.66-1.293-1.115-1.927-2.535-1.927-4.258 0-1.141.329-2.205.989-3.219.658-.988 1.621-1.799 2.939-2.382 1.317-.557 3.142-.862 5.423-.862 2.812 0 4.967.533 6.437 1.571 1.495 1.065 2.357 2.711 2.635 5.018l-6.41.354c-.152-.988-.532-1.697-1.065-2.152-.557-.457-1.292-.686-2.255-.686-.812 0-1.393.178-1.799.508-.406.328-.608.76-.608 1.24 0 .33.177.66.507.939.329.279 1.089.557 2.28.811 2.965.633 5.094 1.291 6.386 1.951 1.293.658 2.23 1.469 2.813 2.432s.887 2.055.887 3.27c0 1.395-.405 2.713-1.166 3.902-.785 1.191-1.875 2.078-3.294 2.713-1.395.607-3.168.91-5.296.91-3.751 0-6.335-.709-7.78-2.152-1.442-1.445-2.253-3.269-2.456-5.499z" fill-rule="evenodd" clip-rule="evenodd" fill="#008ed1"/><path d="M28.133 64.533c-.886.735-.962 2.027-.481 3.7 4.612 5.651 6.386 9.021 3.7 15.914l2.205 5.981h5.727c1.394-3.624 1.647-7.527 1.292-14.242-2.711-2.281-5.169-4.815-7.222-6.918-2.256-2.332-4.055-4.106-5.221-4.435z" fill-rule="evenodd" clip-rule="evenodd" fill="#33348e"/><path d="M30.186 82.323h-1.343c-.025-4.562-1.824-9.352-4.105-13.077-1.47-2.382-2.813-6.005-1.875-8.641 3.978-5.854 12.645-14.85 16.978-14.85 2.484 0 7.121 3.37 12.95 9.047l36.491 35.375h-30.74L36.547 69.094c-4.308-4.232-6.31-8.337-12.012-6.918-.988 1.242.634 5.018 1.571 6.538 2.205 3.7 3.979 7.729 4.08 13.609z" fill-rule="evenodd" clip-rule="evenodd" fill="#33348e"/><path d="M148.935 42.967c-8.185 1.774-17.434 3.269-26.455 3.193-4.258-.05-8.465-.43-12.494-1.317-5.371-1.191-10.416-3.27-14.85-6.54-2.965 2.333-15.281 10.188-29.193 9.707-8.768-.304-13.684-2.508-12.595-9.478-1.596-1.343-3.015-3.065-4.359-4.942-.836 2.813-1.394 5.322-1.444 7.552v.785c.304 8.718 6.057 13.431 13.659 15.584 7.272 2.078 15.99 2.104 23.896.127 4.587-1.141 8.844-2.863 12.468-5.372 4.055 2.204 8.16 3.37 12.417 3.953 2.332.33 4.715.48 7.146.532 8.794.127 17.79-1.875 26.964-6.614 8.312 7.628 10.313 10.491 13.177 15.585-6.056 10.947-4.738 12.594-4.688 24.429l8.464-.025c-1.749-6.285-1.978-12.722 2.863-18.5 1.343-1.596 3.624-3.547 5.854-4.916V64.759c-1.164-7.423-14.596-19.587-20.83-21.792zm10.922 45.082c-.634.533-1.267.659-1.85 1.217-4.156-9.047-6.133-19.183 5.904-27.115-3.219-5.145-11.505-13.558-15.56-16.117-11.328 6.639-21.997 9.275-31.246 9.3-2.483 0-4.865-.177-7.121-.532-4.738-.71-8.944-2.154-12.544-4.055-2.711 2.129-7.703 4.333-13.151 5.727-7.4 1.876-14.851 1.8-22.224-.126-4.486-1.191-8.211-3.092-10.035-6.133 6.335 3.827 14.317 5.449 21.666 5.296 4.156-.076 8.312-.709 12.266-1.951 3.243-1.014 6.816-2.509 11.048-4.612 4.814 1.978 8.794 3.346 12.975 4.029 2.205.38 4.436.558 6.843.558 8.768.05 19.31-2.534 31.728-9.401 8.033 3.801 15.687 12.341 19.411 18.854-9.072 7.044-11.252 13.557-8.11 25.061zM137.431 22.188c.659-3.371 1.343-6.716 2.027-10.086-1.217.557-2.357 1.165-3.447 1.748l-.303.152c.126-1.089.177-1.976.177-2.66-19.64 10.491-26.203 9.629-44.626 6.665.203 2.053 0 5.067-.076 9.326 7.957 3.421 15.104 4.612 21.312 4.536 9.147-.152 16.979-2.762 23.516-5.575 2.23-.963 4.309-1.951 6.235-2.864l2.964.025-.432 2.383a87.702 87.702 0 0 1-7.551 3.775 24.28 24.28 0 0 1-1.217.506c-10.77 4.459-23.035 6.31-33.906 4.055a41.44 41.44 0 0 1-10.998-3.953l-.431 1.316c5.651 2.661 9.807 3.827 13.76 4.436 9.199 1.445 19.361.178 28.256-2.382.71-.253 1.9-.708 3.319-1.292 3.295-1.369 7.907-3.497 10.847-5.778l.709-4.257c-3.141 0-6.993-.076-10.135-.076zm-1.42-.102c-.481 0-1.141.051-1.545.051l1.039-6.969c.177-.076.354-.152.506-.228.533-.228.938-.482 1.547-.735-.279 1.52-1.191 5.879-1.496 7.881h-.051z" fill-rule="evenodd" clip-rule="evenodd" fill="#33348e"/><path d="M57.2 6.577c-4.511 3.168-7.526 7.881-8.489 13.279-.938 5.423.278 10.897 3.446 15.408a20.487 20.487 0 0 0 13.279 8.489c11.201 1.977 21.921-5.524 23.872-16.725.962-5.398-.254-10.872-3.422-15.382-3.167-4.537-7.881-7.552-13.278-8.49-5.423-.963-10.873.254-15.408 3.421z" fill-rule="evenodd" clip-rule="evenodd" fill="#33348e"/><path d="M87.99 19.096l-.659.836c.151 1.926.252 4.891-.101 7.932.177.229.379.431.583.608a19.08 19.08 0 0 0 .379-1.647c.457-2.61.381-5.22-.202-7.729zM63.054 23.758a91.482 91.482 0 0 0-3.801-.101c-1.318-.024-2.509 0-3.573.076-.989 1.597-1.546 4.03-1.698 5.575.557 1.724 3.066 5.854 5.448 8.363 1.825-.025 3.7-.127 5.474-.38l2.407-7.375c-1.393-2.255-2.888-4.307-4.257-6.158zM78.969 9.188a15.319 15.319 0 0 0 1.824-1.217 19.327 19.327 0 0 0-8.388-3.7c-.431-.076-.862-.126-1.292-.177.151.607.329 1.115.558 1.546 2.101 1.191 4.535 2.306 7.298 3.548zM76.104 18.995l4.307-3.548a16.62 16.62 0 0 0-1.722-5.145c-2.763-1.216-5.194-2.331-7.299-3.522-1.267.482-3.446 1.597-4.663 2.787.406 2.104 1.42 4.79 2.308 6.716 2.331.938 4.764 1.875 7.069 2.712zM58.492 10.049a15.764 15.764 0 0 0-.405-2.661c-.076.051-.152.076-.229.127-3.168 2.23-5.575 5.271-6.944 8.793a15.05 15.05 0 0 0 2.408-.38c1.192-1.926 3.27-4.282 5.17-5.879zM59.278 22.492c1.318.025 2.61.05 3.827.126 1.723-2.103 3.396-4.206 4.764-5.904l.05-.103c-.861-1.9-1.851-4.485-2.28-6.614-1.774-.278-4.308.127-5.905.532-2.002 1.521-4.283 4.156-5.473 6.082.151 1.445.506 4.055 1.469 5.956a75.66 75.66 0 0 1 3.548-.075zM50.738 30.069a19.702 19.702 0 0 0 7.577 9.629c.103-.481.152-.937.203-1.292-2.154-2.332-4.536-6.057-5.448-8.211a20.192 20.192 0 0 0-2.332-.126zM86.165 19.603c-1.546-1.47-3.168-2.484-5.145-3.168l-4.409 3.624-.152 7.45c2.027 1.521 3.598 3.092 4.586 4.08l.051.025c1.419-.607 3.396-1.772 4.84-2.914.533-3.522.381-7.045.229-9.097zM71.037 42.815a19.634 19.634 0 0 0 7.779-2.584 7.752 7.752 0 0 0-.457-.685c-2.078 1.065-4.713 1.952-7.069 2.585a7.274 7.274 0 0 0-.253.684zM75.497 28.219l-7.122 2.103-2.38 7.324c1.013.937 2.711 2.356 4.84 3.421 2.61-.71 5.6-1.698 7.678-2.94.938-1.672 1.571-4.181 1.875-5.575l-.153-.152c-1.013-1.014-2.635-2.636-4.738-4.181z" fill-rule="evenodd" clip-rule="evenodd" fill="#fff"/></svg>