<svg xmlns="http://www.w3.org/2000/svg" width="2500" height="2500" viewBox="0 0 192.756 192.756"><g fill-rule="evenodd" clip-rule="evenodd"><path fill="#fff" d="M0 0h192.756v192.756H0V0z"/><path fill="#4e4b78" d="M30.662 150.773h2.664v20.375h-2.664v-20.375zM50.029 160.996v10.152h-2.52v-9.289c0-2.52-1.008-3.744-3.168-3.744-2.736 0-4.032 1.586-4.032 4.754v8.279h-2.52v-14.977h2.376v2.16h.144c1.152-1.729 2.52-2.52 4.464-2.52 3.672.001 5.256 1.658 5.256 5.185zM52.333 158.332v-2.16h1.872v-4.176h2.592v4.176h2.52v2.16h-2.52v9.648c0 .646.504 1.152 1.512 1.152h1.008v2.016l-2.016.215c-1.944 0-3.096-1.008-3.096-3.168v-9.863h-1.872zM64.861 159.34c.792-.863 1.872-1.225 2.952-1.225 2.52 0 4.032 1.514 4.176 4.393h-8.352c0-1.008.36-2.16 1.224-3.168zm-2.16 10.152c1.296 1.512 2.952 2.16 4.824 2.16s3.168-.504 4.032-1.152c1.656-1.008 2.52-2.305 2.808-4.176h-2.376c-.144 1.871-1.656 2.879-3.96 2.879-3.024 0-4.392-1.654-4.392-4.75h10.872c0-5.762-2.016-8.641-6.336-8.641-4.824 0-7.128 2.664-7.128 8.352 0 2.16.648 3.816 1.656 5.328zM80.413 162.508v8.641h-2.52v-14.977h2.304v2.52h.216c1.008-1.871 2.592-2.879 4.104-2.879h.72v2.664h-1.008c-2.521 0-3.816 1.224-3.816 4.031zM100.068 160.996v10.152h-2.52v-9.289c0-2.52-1.009-3.744-3.457-3.744-2.52 0-3.816 1.586-3.816 4.754v8.279h-2.52v-14.977h2.448v2.16c1.008-1.729 2.664-2.52 4.536-2.52 3.673.001 5.329 1.658 5.329 5.185zM105.973 160.852c.143-1.871 1.439-3.023 3.311-3.023 2.449 0 3.672.863 3.672 2.52 0 1.152-.504 1.801-1.512 1.801l-4.031.359c-3.168.289-4.537 1.945-4.537 4.824 0 2.809 1.369 4.32 4.537 4.32 2.375 0 4.031-.936 5.543-2.52.145 1.367 1.008 2.23 2.664 2.23l1.297-.215v-1.945l-.793.289c-.504 0-.646-.289-.646-.865v-8.639c0-2.809-1.873-4.176-5.689-4.176-4.031 0-6.191 1.656-6.191 5.039h2.375v.001zm6.982 2.664v2.449c0 1.008-.504 1.871-1.512 2.52l-3.383 1.008c-1.656 0-2.592-.865-2.592-2.52 0-1.297 1.15-2.16 3.166-2.52l4.321-.937zM122.604 151.996v4.176h2.375v2.16h-2.375v9.648c0 .646.504 1.152 1.512 1.152h.863v2.016l-1.727.215c-2.088 0-3.168-1.008-3.168-3.168v-9.863h-2.088v-2.16h2.088v-4.176h2.52zM127.5 150.773h2.592v2.662H127.5v-2.662zm0 5.399h2.592v14.977H127.5v-14.977zM132.971 163.805c0 2.16.648 3.744 1.656 5.328 1.225 1.584 3.023 2.52 5.328 2.52 2.232 0 4.031-.936 5.256-2.52 1.08-1.584 1.656-3.168 1.656-5.328 0-2.305-.576-4.104-1.656-5.473-1.225-1.729-3.023-2.52-5.256-2.52-2.305 0-4.104.791-5.328 2.52-1.008 1.369-1.656 3.168-1.656 5.473zm11.377 0c0 3.527-1.514 5.398-4.393 5.398-2.809 0-4.176-1.871-4.176-5.398 0-4.104 1.367-5.977 4.176-5.977 2.879 0 4.393 1.873 4.393 5.977zM161.842 160.996v10.152h-2.52v-9.289c0-2.52-1.008-3.744-3.168-3.744-2.52 0-3.816 1.586-3.816 4.754v8.279h-2.52v-14.977h2.377v2.16c1.008-1.729 2.664-2.52 4.535-2.52 3.456.001 5.112 1.658 5.112 5.185zM167.746 160.852c.432-1.871 1.656-3.023 3.6-3.023 2.377 0 3.385.863 3.385 2.52 0 1.152-.361 1.801-1.225 1.801l-4.104.359c-3.168.289-4.535 1.945-4.535 4.824 0 2.809 1.367 4.32 4.535 4.32 2.447 0 4.104-.936 5.615-2.52 0 1.367.721 2.23 2.52 2.23l1.369-.215v-1.945l-.721.289c-.648 0-.936-.289-.936-.865v-8.639c0-2.809-1.873-4.176-5.4-4.176-4.104 0-6.191 1.656-6.191 5.039h2.088v.001zm6.984 2.664v2.449c0 1.008-.361 1.871-1.512 2.52l-3.168 1.008c-1.873 0-2.664-.865-2.664-2.52 0-1.297 1.008-2.16 3.168-2.52l4.176-.937zM181.426 150.773h2.519v20.375h-2.519v-20.375z"/><path fill="#e2cb7b" d="M147.875 95.694l3.168-.648-2.52-4.032-1.224 3.528.576 1.152zM159.826 108.078l-5.328-7.992-2.951 1.297 5.111 7.344 3.168-.649zM73.5 70.999l29.375-44.279 36.791 56.447 1.152-3.96-37.943-58.103-27.862 42.335-1.513 7.56zM61.477 118.229h51.478l13.68-2.952-64.294-.215-.864 3.167zM160.834 115.277h-12.455l-12.527 2.952 30.669.216-4.175-6.55-3.168.646 1.656 2.736zM44.125 115.062l10.584-16.056.648-2.951-3.384 1.654-13.319 20.232h13.968l.215-2.879h-8.712z"/><path d="M127.643 87.486c-4.176 7.704-10.871 12.672-20.23 14.04-6.121.865-11.16.289-14.04-2.303-2.16-1.945-4.032-4.249-5.616-6.697-2.52-3.888-1.872-11.016 1.296-20.52-4.176 4.032-7.128 8.856-8.64 14.544-2.376 9.072 1.44 21.959 11.808 24.334 2.808.648 5.833.648 8.711.721 4.176.145 8.352-1.367 12.672-4.176 6.48-4.175 11.16-11.015 14.039-19.943z" fill="#4e4b78"/><path d="M88.26 59.983c-4.752 4.464-9.504 12.384-11.016 21.527 2.808-8.208 10.583-14.399 18.359-16.847 7.777-2.376 12.24-1.656 14.832-.504 2.592 1.152 3.527 2.448 6.48 5.688 2.879 3.312 4.031 10.008 2.375 19.872 3.529-4.824 5.688-9.504 6.336-15.552s-1.008-11.447-4.68-15.191S113.1 53.143 109.572 53c-8.281-.145-14.976 1.223-21.312 6.983zM148.811 50.767l-7.992 28.439-3.455 10.943c-1.008 3.024-2.736 5.256-4.68 7.2-1.369.865-.721 2.16 1.799 3.527l6.336 4.32c1.369 1.369 2.664 1.225 3.889-.287l9.791-4.824c9.721-4.031 18.072-6.336 25.055-6.552 1.225.648 2.521.216 3.816-1.008 1.225-1.296 2.52-1.872 3.672-1.872-4.463-2.448-11.664-2.16-22.031.576l-18.359 4.825.648-1.513 1.225-3.528c2.807-8.64 4.967-20.231 6.623-35.063 1.008-1.656.576-3.168-1.512-4.536-2.306-1.582-3.818-1.799-4.825-.647zM3.591 150.125l132.261-31.896 40.75-9.863 13.32-3.455-10.369-.217c-2.016 0-8.639 1.152-19.727 3.385l-107.853 23.83-22.391 5.689-17.28 4.031c-2.376 0-5.255 2.16-8.711 6.551-1.008 1.297-1.008 1.945 0 1.945zM59.173 81.726c-.648 3.168-1.512 5.112-2.52 5.256-6.336 3.672-10.008 5.544-10.8 5.544-.864 0-1.08-.288-.576-.864l14.688-16.2-.792 6.264zm3.168-20.879L32.102 95.838c-1.008 1.224-2.52 2.736-4.608 4.248l-1.512 1.297-5.688 3.527 2.52 2.52v.287l-11.087 16.848c-.648.576-.936 1.225-.936 2.232l.648 1.943 4.176 1.152c1.151 0 2.52-1.152 4.031-3.096l14.328-18.07.288-.289c1.872-1.871 4.752-3.887 8.424-5.76l12.672-6.623-.648 2.951-1.872 16.057-.504 4.391.288 1.656c.576.936 1.512 1.297 2.88 1.297h2.52l1.8-.361c.72-.432 1.368-1.584 1.656-3.168v-.648l.864-3.166c3.168-14.977 5.184-24.409 6.479-28.081l5.256-3.815-3.168-1.944 4.104-17.783v-.288l.144-1.296-.144-.864c-.288-.72-.936-1.368-2.16-2.016l-5.472-.864c-1.728-.001-3.384.863-5.04 2.735z" fill="#4e4b78"/><path d="M59.173 81.726l.792-6.264-14.688 16.2c-.504.576-.288.864.576.864.792 0 4.464-1.872 10.8-5.544 1.008-.144 1.872-2.087 2.52-5.256z" fill="#fff"/></g></svg>