<svg height="729" viewBox="0 0 338.18 98.59" width="2500" xmlns="http://www.w3.org/2000/svg"><g fill="#003894"><path d="m1.19 76.3h21.59s1.47 13.15-12.45 14c-1.06 3.38-6.54 6.7-9.84 6.7v-3.32s7.8-.78 7.8-11.26h3.71s-.28 3.52-.49 4.15c1.06-.14 6.4-.49 7.31-6.75h-17.63zm21.96 7.32h17.36v3.57h-17.36zm19.38 2.17v-3s5.14-2.13 5.84-6.49h15.81s1.76 21.17-20.35 20.7v-3.62s15.92 1.09 16.46-13.38h-9.63s-2.5 5.56-8.13 5.79zm23.97-9.49h21.5v3.5h-21.5zm.02 10v-3.57h21.39s2.09 15.15-20.46 14.27v-3.67s15.29 1.09 16.1-7zm23.56-10h12.19v3.5h-12.19zm.22 20.7v-3.86s17.58 2 17.81-14.45h3.68s.48 19.31-21.49 18.31zm24.18-21.39v21.4h3.68v-10.67h16.03l-.03-3.68h-15.96l-.04-7.05zm10.81-.54h3.67v2.39h-3.67zm4.42 0h3.67v2.39h-3.67zm20.43 6.99v6.33h-3.63v-6.28h-2.71v-3.32h2.71v-3.18h3.63v3.14h9.18v-3.14h3.54v3.14h2.86v3.36h-2.86s1 15.81-16.76 14.9v-3.86s13.37 2 13.24-11zm17.31.05v-3.36h7.32v-3.14h3.68v3.14h10v15.13a3.61 3.61 0 0 1 -3.33 3.12h-5.63v-3.71h4.51s.82 0 .82-1.09v-10.09h-6.61s.35 13.13-10.9 14.9v-3.59s7.57-1.59 7.32-11.31zm28.82 4.7h-5.6v-3.5h5.65v-3.52h-5.6v-3.49h21.85v3.49h-12.66v3.5h12.61v3.5h-12.61v5s.13 1.61 1.54 1.61h10.41v3.6h-12s-3.59-.37-3.59-3.84zm23.11-.47v10.67h-3.78v-21.4h3.75l.02 2.25-.02 4.89h15.86v3.59zm28.1-3.69h-2.91v-3.1h2.86v-4.48h3.1v4.48h1.86v1.67s2 0 1.85-6.15h2.76v3.29h.89v-3.29h3.09v3.29h5.15v2.91h-5.23v2.41h5.69v2.88h-4.43s-.05 3 4.53 7.34v4s-1.37.69-5.79-7.4v7.19h-3.14v-7.13s-1.54 5.45-5.91 7.13v-3.89a12.24 12.24 0 0 0 4.77-7.24h-3.29v3.91a7.63 7.63 0 0 1 -2.8-2.78v10h-3.05v-8.2s-2.19 3.84-3.86 5.21v-5s3.38-3.7 3.86-7.05zm4.91 0h-1.86s1.32 2.8 2.34 3.24v-1.89h-.43zm3.42-1.38a5.41 5.41 0 0 1 -1.72 2.41h3.72v-2.41zm23.65 1.06h-11.12v-3.33h12.22l-.15-3.66h3.39l.05 3.66h5.94v3.36h-5.56s0 6.14.95 9c0 0 .24 3.29 5.15 2.91v3.41h-3.22s-4.63.46-5.72-8.72c-.7-7.73-.5-6.64-.5-6.64z"/><path d="m286.91 75.31h2.73v2.16h-2.73zm-10.31 12.69h3.48v-3.3h-10.72v3.3h3.91v5.67a25 25 0 0 1 -4.58.19v3.14s9.72 0 12.1-1.35v-3.42a18.26 18.26 0 0 1 -4.19.94zm37.84-7.07v3.13c-1.77-.4-4.63-1.16-4.63-1.16v1.78h-13.49v-1.78a12.44 12.44 0 0 1 -4.3 1.64v-3.27a19.85 19.85 0 0 0 9.41-5.66h3.13c2.59 2.8 9.88 5.32 9.88 5.32zm-11.31-2.57s-2.93 3-4.77 3.59h10s-1.96-.57-5.23-3.59zm-.27 11.02h10.49v-3h-20.65v3h6.41s-1.64 3.75-2.73 4.56h-3v3.06s13.43.34 15.68-1.09c.55 1.09.82 1.77.82 1.77h3.74s-2.31-5.72-3.54-7.22h-3.75a27.68 27.68 0 0 1 1.57 2.73c.13.47-7 .74-7.49.68.74-1.29 2.45-4.49 2.45-4.49zm16.76 1.62a18.65 18.65 0 0 1 -4 3.14c0-3.23-.07-3.93 0-3.86s3.73-2.5 6.61-8.18h-6.08v-3h3.24v-3.49h3.27v3.55h3.14v3a34.76 34.76 0 0 1 -2.12 3.79 14.63 14.63 0 0 0 3.2 2.84v3.31a12 12 0 0 1 -4.26-2.9v9.17h-3z"/><path d="m330.19 94.2v-10.09h-3.86v-3.14h3.86v-5.15h3.15v5.15h4.21v3.14h-4.21v10.09h4.84v3.49h-13.29v-3.49zm-35.08-63.1v-15.92h25.08c12.61 0 16.3 10.08 16.3 15.89zm-214.28.03v-15.95h23.91c12.6 0 16.3 10.08 16.3 15.92zm78.45-.06v-16.22h-19c-12.61 0-16.28 10.41-16.28 16.15zm-.02 20.26v15.67h-19c-12.59 0-16.26-9.73-16.26-15.64zm135.85-.21v15.81h25.08c12.61 0 16.3-9.87 16.3-15.78zm-47.99-17.35h45.02v3.32h-45.02zm0 5.82h45.02v3.32h-45.02zm0 5.83h45.02v3.33h-45.02zm47.87-11.65h17.68v3.32h-17.68zm0 5.82h17.68v3.32h-17.68zm0 5.83h17.68v3.33h-17.68zm25.4-11.65h16.65v3.32h-16.65zm0 5.82h16.65v3.32h-16.65zm0 5.83h16.65v3.33h-16.65zm-154.52-11.71h17.86v3.32h-17.86zm0 5.91h17.86v3.32h-17.86zm0 5.9h17.86v3.33h-17.86zm-41.97-11.81h16.42v3.3h-16.42zm0 5.91h16.42v3.3h-16.42zm0 5.9h16.42v3.3h-16.42zm-46.37-8.43h-22.86a7.39 7.39 0 0 1 2.18-2.43 4.78 4.78 0 0 1 2.7-1h18zm0 5.85h-27.19l2.94-3.36h24.25zm0 6h-31.48l2.46-3.4h29.02zm42.82-13.4a5.18 5.18 0 0 1 -.71 1.55h-38.73v-3.37h39.82a7.29 7.29 0 0 1 -.38 1.82zm-3.29 5.97a6.12 6.12 0 0 1 -1.82 1.49h-34.33v-3.45h37.53a13.84 13.84 0 0 1 -1.38 1.96zm1.05 5.57a13.22 13.22 0 0 0 -2.87-1.54h-34.33v3.46h39.23a27.05 27.05 0 0 0 -2.03-1.92zm85.16-13.37h15.99v3.44h-15.99zm24.17 0h16.25v3.44h-16.25zm0 7.68v-1.87h16.26v3.38h-40.43v-3.38h15.98v1.87zm-24.13 4.15h40.38v3.44h-40.38zm72.6-30.36h16.28v15.9h-16.28zm-3.71 15.95h-25.14v-15.95h16.27zm-25.14 20.28h16.27v15.54h-16.27zm-19.74-.22h16.46v15.76h-16.46zm-24.09 0h15.94v15.76h-15.94zm-99.75.2h17.03v15.64h-17.03zm-59.38.01h33.49v15.77h-45.7zm121.77-51.05h17.89v30.71h-17.89zm0 50.84h34.48v15.76h-34.48zm101.69.22h24.63v15.54h-16.28zm-39.99-36.55h-7.71c-14.23 0-16.46 13.8-16.46 16.16h40.6c0-2.36-2.21-16.16-16.43-16.16z"/><path d="m77.58 31.1v-31.1h-18.72c-10.72 0-13.45 4.73-19.1 12.62s-39.76 54.38-39.76 54.38h29.82s17-24.21 21.07-29.54c1.6-2.11 2.71-4.3 5.4-5.74 1.89-1 8.44-.66 8.44-.66z"/></g></svg>