<svg xmlns="http://www.w3.org/2000/svg" width="2500" height="2500" viewBox="0 0 192.756 192.756"><g fill-rule="evenodd" clip-rule="evenodd"><path fill="#fff" d="M0 0h192.756v192.756H0V0z"/><path fill="#426ea5" d="M178.098 84.839h6.154v23.075h-6.154V84.839zM93.933 84.839h6.151v9.424h.064l6.942-9.424h7.404l-8.527 10.744 9.185 12.333h-7.832l-7.172-10.486h-.064v10.486h-6.151V84.839z"/><path d="M128.438 98.623h-5.791l2.982-9.025h.066l2.743 9.025zm-15.272 9.293h6.244l1.82-4.926h8.656l1.725 4.926h6.746l-8.896-23.077h-7.539l-8.756 23.077zM139.227 102.217c1.584.873 3.797 1.531 6.34 1.531 1.953 0 3.805-.395 3.805-2.252 0-4.299-10.906-1.584-10.906-9.983 0-5.552 5.422-7.066 10.049-7.066 2.211 0 4.395.329 5.951.856l-.396 4.759c-1.586-.729-3.379-1.055-5.123-1.055-1.559 0-4.135.13-4.135 2.143 0 3.738 10.906 1.218 10.906 9.553 0 5.979-5.027 7.605-10.15 7.605-2.143 0-4.824-.328-6.869-.998l.528-5.093zM158.328 84.839h16.274v4.363H164.48v4.76h9.559v4.364h-9.559v5.225h10.481v4.365h-16.633V84.839zM21.826 84.839H18.35l-9.846 23.077h3.466l2.35-5.826h11.301l2.349 5.826h3.609l-9.753-23.077zm-6.451 14.544L19.97 87.95l4.599 11.433h-9.194zM33.358 104.604c1.227.791 2.974 1.188 3.87 1.188 1.421 0 3.171-.594 3.171-2.406 0-3.08-7.303-2.816-7.303-7.542 0-3.506 2.612-5.188 5.954-5.188 1.45 0 2.643.298 3.864.661l-.263 2.712c-.691-.43-2.549-.856-3.271-.856-1.59 0-2.978.661-2.978 2.045 0 3.436 7.301 2.451 7.301 7.836 0 3.594-2.871 5.256-5.878 5.256-1.589 0-3.208-.162-4.63-.934l.163-2.772zM57.494 101.361c0 2.518-1.623 4.43-4.696 4.43-1.424 0-3.14-.957-3.14-2.738 0-2.979 4.163-3.242 5.851-3.242.659 0 1.327.062 1.985.062v1.488zm-9.06-6.473c1.26-1.056 3.14-1.716 4.892-1.716 3.108 0 4.168 1.485 4.168 4.387-1.226-.064-2.085-.064-3.308-.064-3.207 0-7.838 1.324-7.838 5.559 0 3.662 2.547 5.256 6.188 5.256 2.841 0 4.498-1.562 5.22-2.584h.066v2.191h2.91c-.064-.51-.132-1.4-.132-3.312v-6.967c0-4.597-1.953-6.982-6.779-6.982-2.147 0-3.995.661-5.552 1.582l.165 2.65zM65.175 84.815h3.108v8.651h.065c1.125-1.79 3.074-2.812 5.417-2.812 4.367 0 6.318 2.716 6.318 7.24v10.021h-3.112v-8.729c0-3.94-.857-5.851-3.569-6.016-3.533 0-5.12 2.836-5.12 6.934v7.811h-3.108v-23.1h.001zM84.68 91.051h3.11v16.863h-3.11V91.051zm-.198-6.254h3.505v3.504h-3.505v-3.504z" fill="#426ea5"/></g></svg>