<svg xmlns="http://www.w3.org/2000/svg" width="2500" height="943" viewBox="0 0 108.273 40.854"><path d="M11.892 26.356h.483l.219-1.184-.702 1.184zM12.023 6.487L.672 22.935 8.033 8.857.672 19.733 5.949 8.617.672 16.401l4.204-9.914h7.147zM4.699 6.487L.672 13.332v-1.8l2.317-5.045h1.71zM13.07 11.788l-.395-.784 1.933-4.524h5.935v13.056l-2.023 2.869-.39-.802 1.873-4.26-2.356 3.317-.486-.907 2.536-5.502-3.1 4.402-.429-.837 3.245-7.27-4 5.794-.511-.996 3.569-7.845-4.297 6.446-.447-.873 2.616-5.792-3.273 4.508zM20.543 19.778v2.456l-1.201 1.777-.398-.734 1.599-3.499zM20.543 22.935v3.421l-.88-1.714.88-1.707zM11.513 8.706l.537 1.027 2.1-3.253h-1.514l-1.123 2.226zM10.971 26.356h-.791l1.493-2.281-.702 2.281zM9.305 26.356h-1.14l2.497-3.949-1.357 3.949zM7.112 26.356H5.709l3.946-5.92-2.543 5.92zM5.314 26.356H.666l7.059-10.35-4.121 9.824 4.954-7.543-3.244 8.069zM.672 9.691V6.48h1.879L.672 9.691zM42.183 20.826c.052 2.181 1.749 4.012 3.984 4.012 2.263 0 4.119-1.644 4.119-3.931 0-1.078-.538-2.154-1.375-2.828-.914-.753-1.937-1.023-3.066-1.318-1.24-.323-2.506-.647-3.501-1.508-1.105-.944-1.671-2.29-1.671-3.717 0-3.203 2.532-5.358 5.655-5.358 3.015 0 5.492 2.343 5.468 5.387H49.72c-.134-2.021-1.588-3.475-3.634-3.475-1.938 0-3.418 1.588-3.418 3.475 0 2.396 1.992 2.961 3.928 3.499 1.429.404 2.668.646 3.826 1.697 1.184 1.022 1.856 2.583 1.856 4.172 0 3.285-2.826 5.815-6.057 5.815-3.396 0-6.195-2.449-6.166-5.923h2.128v.001zM83.875 8.288h-4.559 4.559zM79.316 8.288V6.491l6.553.01V26.4h-1.994L72.029 8.898V26.4h-1.992V6.501h2.692l11.146 16.506V8.288h-4.559zM88.561 8.288V6.501h7.128v1.803h-5.138V26.4h-1.99V8.288zM107.375 0l.898 1.475-6.38 3.727-.872-1.42L107.375 0zM97.01 6.501h10.879v1.803H99v7.164h8.594v1.804H99v7.325h8.889V26.4H97.01V6.501z"/><path d="M88.561 6.501h7.128v1.803h-5.138V26.4h-1.99V6.501z"/><path d="M88.561 6.501h7.128v1.803h-5.138V26.4h-1.99V6.501zM65.344 6.484L51.832 26.406h2.353l4.546-6.69h6.609l.002 6.69h2.148l.006-19.922h-2.152zm-.018 11.429h-5.383l5.389-7.923-.006 7.923zM38.33 6.484h-2.17L22.647 26.406h2.351l4.547-6.69h6.61v6.69h2.179L38.33 6.484zm-7.589 11.429l5.396-7.923.005 7.923h-5.401zM0 32.351h3.971v.98H2.568v7.452H1.4v-7.452H0v-.98zM4.88 32.351h1.169v3.621h1.552v-3.621h1.17v8.432h-1.17v-3.831H6.049v3.831H4.88v-8.432zM9.984 32.351h3.18v.98h-2.011v2.641h1.893v.98h-1.893v2.852h2.011v.979h-3.18v-8.432zM16.689 32.351h3.176v.98h-2.009v2.641h1.892v.98h-1.892v3.831h-1.167v-8.432zM21.745 32.351h1.357l1.715 8.433h-1.168l-.385-2.149h-1.823l-.385 2.149h-1.167l1.856-8.433zm-.127 5.303h1.484l-.725-4.066h-.024l-.735 4.066zM25.307 38.342h1.169v.689c0 .561.211.912.676.912.62 0 .772-.42.772-.97 0-.713-.036-.946-1.25-2.149-.75-.748-1.367-1.424-1.367-2.57 0-1.378.641-1.974 1.915-1.974.632 0 1.087.211 1.367.468.197.187.339.479.339 1.074v.795H27.83v-.666c0-.48-.198-.76-.655-.76-.479 0-.699.27-.699.922 0 .575.117.923 1.19 2.046 1.145 1.19 1.356 1.598 1.356 2.615 0 1.319-.513 2.08-1.904 2.08-1.076 0-1.811-.455-1.811-1.506v-1.006zM29.547 32.351h3.971v.98h-1.401v7.452h-1.17v-7.452h-1.4v-.98zM36.6 32.351h3.175v.98h-2.009v2.641h1.893v.98h-1.893v2.852h2.009v.979H36.6v-8.432zM40.558 32.351h3.972v.98h-1.404v7.452h-1.167v-7.452h-1.401v-.98zM45.438 32.351h1.169v3.621h1.553v-3.621h1.169v8.432H48.16v-3.831h-1.553v3.831h-1.169v-8.432zM50.836 32.351h3.177v.98h-2.009v2.641h1.892v.98h-1.892v2.852h2.009v.979h-3.177v-8.432zM55.156 32.351h1.812c1.705 0 1.879.454 1.879 2.301 0 1.133-.15 1.625-1.109 1.916v.022c.795.083 1.064.492 1.064 1.285v1.835c0 .303 0 .723.068 1.073h-1.098c-.117-.21-.139-.419-.139-.759v-1.903c0-.795-.143-1.006-.912-1.006h-.396v3.668h-1.17v-8.432h.001zm1.17 3.784h.303c.924 0 1.053-.177 1.053-1.437 0-1.25-.072-1.367-.795-1.367h-.561v2.804zM60.344 32.351h1.609l1.381 7.007h.025v-7.007h1.096v8.432h-1.682l-1.377-7.195h-.025v7.195h-1.027v-8.432zM65.961 32.351h3.176v.98h-2.01v2.641h1.894v.98h-1.894v2.852h2.01v.979h-3.176v-8.432zM69.92 32.351h3.973v.98H72.49v7.452h-1.17v-7.452h-1.4v-.98zM76.969 32.351h3.181v.98h-2.009v2.641h1.89v.98h-1.89v2.852h2.009v.979h-3.181v-8.432zM82.543 36.402l-1.695-4.051h1.242l1.096 2.966 1.095-2.966h1.172l-1.682 4.17 1.739 4.262h-1.239l-1.142-3.096-1.24 3.096h-1.166l1.82-4.381zM86.5 32.351h1.93c1.588 0 1.891.432 1.891 2.383s-.303 2.382-1.891 2.382h-.76v3.668H86.5v-8.433zm1.17 3.784h.605c.795 0 .875-.13.875-1.401 0-1.272-.08-1.402-.875-1.402h-.605v2.803zM91.223 32.351h3.175v.98h-2.009v2.641h1.89v.98h-1.89v2.852h2.009v.979h-3.175v-8.432zM95.541 32.351h1.811c1.707 0 1.881.454 1.881 2.301 0 1.133-.152 1.625-1.109 1.916v.022c.795.083 1.064.492 1.064 1.285v1.835c0 .303 0 .723.068 1.073h-1.1c-.115-.21-.139-.419-.139-.759v-1.903c0-.795-.139-1.006-.912-1.006h-.398v3.668h-1.166v-8.432zm1.166 3.784h.307c.924 0 1.053-.177 1.053-1.437 0-1.25-.072-1.367-.797-1.367h-.562v2.804h-.001zM99.898 32.351h3.973v.98h-1.402v7.452h-1.17v-7.452h-1.401v-.98zM104.416 38.342h1.172v.689c0 .561.207.912.676.912.619 0 .77-.42.77-.97 0-.713-.035-.946-1.25-2.149-.746-.748-1.367-1.424-1.367-2.57 0-1.378.645-1.974 1.916-1.974.631 0 1.086.211 1.367.468.199.187.338.479.338 1.074v.795h-1.096v-.666c0-.48-.201-.76-.658-.76-.477 0-.695.27-.695.922 0 .575.115.923 1.188 2.046 1.148 1.19 1.357 1.598 1.357 2.615 0 1.319-.516 2.08-1.904 2.08-1.074 0-1.812-.455-1.812-1.506v-1.006h-.002z"/></svg>