<svg viewBox="0 0 1500 1500" xmlns="http://www.w3.org/2000/svg" width="2500" height="2500"><linearGradient id="a" gradientUnits="userSpaceOnUse" x1="1098.379" x2="402.939" y1="428.052" y2="1164.942"><stop offset="0" stop-color="#0ff"/><stop offset="1" stop-color="#f0f"/></linearGradient><path d="M0 0h1500v1500H0z"/><path d="M745.64 301.96c99.73 0 192.51 30.36 269.39 82.3 76.9 51.95 137.98 125.5 174.56 211.99 20.4 48.23 33.17 100.5 36.8 155.23 52.2 8.82 97.07 60.74 97.07 119.34 0 60.7-50.46 100.19-111.16 100.19-89.95 0-163.82-113.35-222.32-214.28H834.95l2.92 8.04c27.52 66.97 77.93 117.38 81.91 163.72 5.06 58.98-24.11 94.72-76.43 97.81-5.52.95-11.63 1.67-18.31 2.05-.9.05-1.58.18-2.1.33-.53.15-.9.32-1.21.5-.6.35-1.02.73-1.49 1.43-.3.46-.6 1.06-.85 1.82-.32 1-.54 2.27-.53 3.65-.01 1.84.38 3.86 1.11 5.63.73 1.78 1.76 3.29 2.96 4.41.81.75 1.68 1.35 2.73 1.84 1.4.63 3.14 1.1 5.67 1.11h275.21c3.21 0 6.19.97 8.67 2.62.17-.01.34-.01.51-.01 3.33 0 6.68 1.05 9.52 3.24 6.87 5.27 8.16 15.1 2.89 21.97-44.03 57.39-100.68 104.58-165.83 137.44-65.14 32.86-138.82 51.37-216.71 51.37h-.02c-78.39 0-152.51-18.75-217.96-52.01-65.46-33.26-122.29-81.02-166.27-139.05-5.23-6.9-3.87-16.72 3.02-21.95a15.61 15.61 0 0 1 9.44-3.18c.78 0 1.56.06 2.33.17 1.36-.39 2.79-.61 4.28-.61H655.62c1.42 0 2.6-.16 3.6-.4s1.84-.57 2.58-.96c1.48-.78 2.67-1.85 3.71-3.3.68-.96 1.27-2.08 1.7-3.3.58-1.62.88-3.4.88-5.03 0-1.55-.27-2.96-.66-4.01-.4-1.06-.87-1.75-1.34-2.22-.32-.31-.63-.55-1.09-.78-.6-.3-1.49-.61-3.09-.71-6.68-.37-12.79-1.1-18.31-2.05-52.33-3.09-81.5-38.83-76.43-97.81 3.98-46.34 54.39-96.75 81.91-163.72l2.92-8.04H496.97c-58.5 100.92-132.37 214.28-222.32 214.28-60.7 0-111.16-39.49-111.16-100.19 0-60.21 47.37-113.37 101.38-119.97 5.9-87.19 34.99-168.11 81.17-236.45 51.95-76.9 125.5-137.98 211.99-174.56 57.66-24.39 121.08-37.88 187.57-37.87.02-.02.03-.02.04-.02M312.62 759.25c.2-.01.41-.01.61-.01 2.66 0 5.36.67 7.82 2.1 7.12 4.12 14.06 9.58 20.07 16.54 6.01 6.95 11.07 15.45 14.11 25.34 2.03 6.58 3.16 13.76 3.16 21.35 0 6.27-.76 12.82-2.35 19.57-1.12 4.77-2.81 9.22-4.9 13.28s-4.56 7.72-7.26 11.01c-5.4 6.58-11.62 11.67-17.73 15.7-4.08 2.69-8.12 4.9-11.92 6.74-5.06 2.45-9.69 4.23-13.38 5.49-4.93 1.68-8.2 2.44-8.63 2.54-1.17.27-2.33.39-3.48.39-7.15 0-13.62-4.93-15.27-12.2-.52-2.28-.49-4.55-.04-6.69-6.35-31.21-9.69-63.51-9.69-96.57 0-.57.01-1.13.02-1.7-37.42 7.51-69.55 47.81-69.55 88.7 0 41.69 36.57 68.74 80.45 68.74 73.86 0 136.76-99.46 186.49-182.83h-35.83c-8.78 0-16.09-7.31-16.09-15.36 0-8.78 7.31-16.09 16.09-16.09h54.12c18.28-32.18 35.83-65.09 53.39-96.53 34.37-63.62 65.09-121.4 91.41-155.77 21.21-25.6 49.73-43.15 75.33-43.15 20.57 0 34.71 6.11 43.93 16.74 9.22-10.63 23.36-16.74 43.93-16.74 25.6 0 54.12 17.55 75.33 43.15 26.33 34.37 57.04 92.15 91.41 155.77 17.55 31.45 35.1 64.36 53.39 96.53h54.12c8.78 0 16.09 7.31 16.09 16.09 0 8.04-7.31 15.36-16.09 15.36h-35.83c49.73 83.37 112.62 182.83 186.49 182.83 43.88 0 80.45-27.06 80.45-68.74 0-39.33-29.72-78.11-65.29-87.7v.69c0 35.38-3.82 69.89-11.06 103.13a15.62 15.62 0 0 1-6.9 9.88 15.681 15.681 0 0 1-8.4 2.45c-1.16 0-2.32-.13-3.48-.39-.49-.11-4.74-1.09-10.93-3.35s-14.34-5.77-22.66-11.2c-5.54-3.62-11.18-8.11-16.24-13.79-2.89-3.24-5.58-6.88-7.89-10.94a58.146 58.146 0 0 1-6.1-15.49c-1.59-6.75-2.35-13.3-2.35-19.57-.01-11.39 2.56-21.83 6.84-30.77 4.28-8.96 10.19-16.41 16.73-22.38 4.37-3.98 9.03-7.33 13.78-10.07 1.69-.98 3.48-1.58 5.29-1.88.93-.74 1.96-1.4 3.11-1.98 5.8-2.7 11.8-4.58 17.78-5.76-5.71-81.08-32.83-156.16-75.79-219.77-48.58-71.91-117.4-129.06-198.23-163.25-53.89-22.79-113.11-35.4-175.36-35.4-93.36.01-179.96 28.35-251.88 76.93-71.91 48.58-129.06 117.4-163.25 198.23-18.95 44.82-30.85 93.32-34.33 144.18a76.24 76.24 0 0 1 13.61 4.83c1.02.53 1.97 1.13 2.83 1.79m511.36-33.96h148.46c-15.36-27.06-30.72-55.58-45.34-81.91-33.64-62.16-64.36-119.2-89.22-151.38-12.43-16.09-33.64-30.72-50.46-30.72-21.21 0-28.52 16.09-28.52 40.22 0 47.54 30.72 127.98 47.54 174.79zm-309.45 0h148.46l17.55-49c16.82-46.8 47.54-127.25 47.54-174.79 0-24.13-7.31-40.22-28.52-40.22-16.82 0-38.03 14.63-50.46 30.72-24.87 32.18-55.58 89.22-89.22 151.38-14.64 26.33-29.99 54.85-45.35 81.91m228.88 192.37c-15.56 0-28.17-12.61-28.17-28.17 0-13.96 10.17-25.55 23.5-27.77V601.94c-8.91 29.84-19.57 59.52-28.95 85.33-60.97 167.64-105.93 196.25-111.16 241.23-4.76 40.97 18.85 61.29 49 66.55.75.13 1.49.31 2.22.52 4.13.67 8.73 1.21 13.81 1.49 3.08.17 6.09.66 8.97 1.49 2.88.82 5.62 1.97 8.14 3.41 5.06 2.88 9.18 6.92 12.12 11.41 1.97 3 3.45 6.19 4.5 9.45 1.4 4.35 2.04 8.81 2.04 13.26a46.388 46.388 0 0 1-3.43 17.47c-2.29 5.61-5.76 10.95-10.53 15.42a41.24 41.24 0 0 1-11.12 7.47c-5.59 2.57-11.97 3.96-18.66 3.96H406.44c37.8 43.19 83.73 79.11 135.36 105.34 61.2 31.09 130.39 48.61 203.79 48.61 72.92 0 141.69-17.3 202.6-48.01 52.12-26.29 98.45-62.42 136.54-105.95H831.22c-7.52 0-14.65-1.77-20.69-4.97-6.09-3.2-11.03-7.76-14.65-12.88-2.43-3.42-4.3-7.09-5.65-10.88a46.38 46.38 0 0 1-2.71-15.59c0-5 .81-10.03 2.6-14.88 1.79-4.84 4.59-9.52 8.54-13.48 2.62-2.63 5.74-4.92 9.23-6.67 4.65-2.34 9.92-3.68 15.39-3.98 5.07-.28 9.66-.81 13.78-1.48.74-.21 1.5-.4 2.26-.53 30.14-5.26 53.76-25.58 49-66.55-5.23-44.98-50.19-73.59-111.16-241.24-9.4-25.84-20.07-55.57-28.99-85.46v259.94c13.28 2.27 23.39 13.83 23.39 27.75.01 15.56-12.6 28.17-28.15 28.17m445.85-55.01c4.51-25.59 6.87-51.93 6.87-78.83v-.47c-3.18.9-6.05 1.85-8.32 2.52-.97.98-2.06 1.86-3.31 2.58-4.36 2.52-8.59 5.88-12.05 9.9-3.48 4.03-6.21 8.68-7.88 14.09-1.11 3.61-1.76 7.59-1.77 12.12 0 3.73.45 7.84 1.52 12.4.63 2.69 1.63 5.1 2.97 7.4 1.33 2.3 3.02 4.48 5.01 6.53 3.95 4.11 9.15 7.68 14.29 10.4.89.48 1.78.93 2.67 1.36m-887.42-.62c2.28-1.15 4.6-2.45 6.84-3.92 3.72-2.43 7.2-5.27 9.96-8.38 1.58-1.78 2.94-3.64 4.06-5.6 1.27-2.24 2.22-4.58 2.83-7.17 1.07-4.55 1.52-8.66 1.52-12.4 0-3.39-.37-6.48-1.02-9.33-.65-2.86-1.59-5.49-2.76-7.94-2.34-4.9-5.66-9.16-9.57-12.73-2.6-2.37-5.46-4.43-8.36-6.11-.88-.51-1.69-1.1-2.44-1.75-1.54-.09-4.34-1-7.83-2.08.06 26.41 2.38 52.27 6.77 77.41m443.8-579.07h-.03c-67.6 0-133.2 13.25-194.97 39.37-44.58 18.86-86.18 44.09-123.64 75.01a502.768 502.768 0 0 0-96.69 106.42 499.004 499.004 0 0 0-57.9 115.56c-12.97 37.33-21.46 76.16-25.29 115.63-10.37 2.72-20.5 6.89-30.27 12.45-13.95 7.94-26.51 18.36-37.33 30.95-22.59 26.29-35.02 59.13-35.02 92.47 0 34.3 13.99 65.28 39.39 87.23 23.85 20.61 56.08 31.96 90.77 31.96 24.75 0 49.71-7.39 74.18-21.97 21.03-12.53 41.59-30.05 62.87-53.59 36.34-40.2 68.8-91.92 96.19-138.72h115.4c-9.94 20.24-21.67 39.02-33.11 57.32-20.2 32.34-39.29 62.88-41.94 93.81-3.04 35.38 4.97 65.19 23.16 86.22 5.74 6.64 12.42 12.31 19.92 16.96h-210.9c-1.84 0-3.69.15-5.53.45-.36-.01-.72-.02-1.08-.02-7.61 0-14.85 2.43-20.92 7.03-15.23 11.55-18.23 33.33-6.69 48.57a503.758 503.758 0 0 0 78.03 81.91c29.12 24.38 61.01 45.45 94.78 62.61a498.5 498.5 0 0 0 108.26 40.01c38.53 9.33 78.33 14.07 118.31 14.07 39.74 0 79.3-4.67 117.6-13.89a498.278 498.278 0 0 0 107.69-39.52 501.626 501.626 0 0 0 94.41-61.87 504.006 504.006 0 0 0 77.94-80.98c5.64-7.35 8.08-16.45 6.87-25.63s-5.92-17.34-13.27-22.98c-4.82-3.7-10.38-6.02-16.3-6.83a34.6 34.6 0 0 0-13.98-2.94H895.63c7.5-4.66 14.18-10.33 19.92-16.96 18.19-21.03 26.2-50.84 23.16-86.22-2.66-30.93-21.74-61.48-41.94-93.81-11.44-18.3-23.17-37.09-33.11-57.32h115.41c27.39 46.8 59.85 98.53 96.19 138.72 21.27 23.53 41.84 41.06 62.87 53.59 24.47 14.58 49.43 21.97 74.18 21.97 34.69 0 66.92-11.35 90.77-31.96 25.4-21.95 39.39-52.93 39.39-87.23 0-32.4-11.84-64.53-33.33-90.47-17.74-21.41-40.39-36.74-64.91-44.16-4.8-50.88-17.27-100.39-37.13-147.35-18.86-44.58-44.09-86.18-75.01-123.64a502.768 502.768 0 0 0-106.42-96.69c-82.84-55.95-179.67-85.54-280.03-85.54zM316.32 739.58c4.34-42.72 14.97-84.27 31.65-123.72 32.63-77.16 86.71-142.82 156.38-189.89 71.35-48.19 154.78-73.67 241.25-73.68 58.27 0 114.78 11.41 167.96 33.9 77.16 32.63 142.82 86.71 189.89 156.38 39.35 58.25 63.83 125.49 71.24 195.31-1.87.73-3.72 1.52-5.53 2.36l-.23.11-.23.12c-.84.42-1.67.87-2.47 1.36-2.42.76-4.75 1.78-6.95 3.06a98.318 98.318 0 0 0-17.06 12.48c-8.93 8.15-16.02 17.64-21.07 28.24-5.7 11.9-8.7 25.38-8.69 38.98 0 7.79.96 15.84 2.86 23.91 1.05 4.49 2.52 8.88 4.37 13.12-22.47-26.36-42.99-57.76-60.23-85.87h2.21c19.02 0 35.09-15.73 35.09-34.36 0-19.35-15.74-35.09-35.09-35.09h-43.03c-8.78-15.64-17.47-31.51-25.93-46.95-7.18-13.11-14.6-26.66-21.89-39.73l-5.77-10.69c-32.98-61.11-61.47-113.88-87.22-147.49l-.22-.29-.23-.28c-25.95-31.32-59.58-50.02-89.96-50.02-17.38 0-32.08 3.71-43.93 11.05-11.85-7.34-26.55-11.05-43.93-11.05-30.37 0-64 18.7-89.96 50.02l-.23.28-.22.29c-25.75 33.61-54.23 86.39-87.22 147.49l-5.77 10.69c-7.29 13.07-14.72 26.62-21.89 39.73-8.45 15.43-17.14 31.31-25.93 46.95h-43.03c-19.35 0-35.09 15.74-35.09 35.09 0 18.62 16.07 34.36 35.09 34.36h2.21c-15.86 25.86-34.5 54.51-54.88 79.46a77.96 77.96 0 0 0 1.91-6.72c1.9-8.06 2.86-16.11 2.86-23.92 0-9.27-1.34-18.34-4-26.96-3.64-11.81-9.66-22.63-17.89-32.16-7.02-8.13-15.41-15.04-24.92-20.55-3.7-2.14-7.76-3.57-11.96-4.23l-.36-.18-.23-.12-.23-.11c-.51-.23-1-.46-1.5-.68zm521.03-33.29l-13.04-36.41c-1.41-3.93-2.91-8.07-4.48-12.41-16.7-46.08-41.94-115.73-41.94-155.97 0-12.38 2.33-17.38 3.34-18.96.64-1.01 1.44-2.26 6.18-2.26 8.4 0 24.64 9.38 35.43 23.33 23.42 30.31 53.59 86.06 85.52 145.07l2.02 3.74.05.09.05.09c5.4 9.71 10.78 19.52 16.48 29.9 4.31 7.84 8.68 15.81 13.08 23.78H837.35zm-290.43 0c4.41-7.97 8.78-15.94 13.08-23.78 5.7-10.38 11.08-20.19 16.48-29.9l.05-.09.05-.09 2.02-3.74c31.93-59.02 62.1-114.76 85.52-145.07 10.78-13.96 27.03-23.33 35.43-23.33 4.75 0 5.54 1.25 6.18 2.26 1 1.58 3.34 6.58 3.34 18.96 0 40.24-25.24 109.89-41.94 155.97-1.57 4.34-3.07 8.48-4.48 12.39l-13.05 36.42zm220.26 142.44V714.87c32.02 83.86 59.38 130.46 77.95 162.09 14.06 23.95 22.54 38.4 24.33 53.73 3.01 25.89-8.22 41.25-33.39 45.64-.97.17-1.95.38-2.97.64-3.48.53-7.13.91-10.86 1.12-8.04.44-15.96 2.5-22.87 5.98a53.912 53.912 0 0 0-14.16 10.24c-5.69 5.7-10.03 12.54-12.9 20.3-2.51 6.79-3.78 14-3.78 21.45 0 7.52 1.29 14.91 3.82 21.99a63.968 63.968 0 0 0 8.05 15.48c5.52 7.8 12.88 14.26 21.26 18.68 8.87 4.7 19.1 7.18 29.59 7.18h208.73c-29.93 27.97-63.53 51.43-100.32 69.98-60.49 30.5-125.77 45.97-194.04 45.97-68.71 0-134.38-15.67-195.18-46.55-36.35-18.47-69.57-41.73-99.18-69.4H655.72c9.3 0 18.5-1.97 26.6-5.7a60.29 60.29 0 0 0 16.19-10.89c6.56-6.16 11.64-13.59 15.11-22.09a65.17 65.17 0 0 0 4.84-24.64c0-6.58-1-13-2.96-19.09a57.934 57.934 0 0 0-6.72-14.08c-4.71-7.18-11.15-13.24-18.59-17.47a55.637 55.637 0 0 0-12.32-5.17 59.97 59.97 0 0 0-13.12-2.19c-3.72-.21-7.38-.59-10.89-1.13-1.01-.26-1.98-.47-2.93-.63-25.17-4.39-36.4-19.75-33.39-45.64 1.78-15.33 10.27-29.78 24.33-53.73 18.57-31.63 45.91-78.2 77.91-161.99v133.73c-4.57 2.65-8.7 6.08-12.19 10.15a47.197 47.197 0 0 0-11.31 30.64c0 26.01 21.16 47.17 47.17 47.17s47.17-21.16 47.17-47.17c-.05-17.22-9.28-32.51-23.44-40.74zm-492.52 71.84c-30.53 0-61.45-17.09-61.45-49.74 0-23.08 13.61-46.83 32.25-60.16 1.26 23.68 4.18 47.25 8.73 70.37-.26 3.43-.01 6.86.76 10.25a34.765 34.765 0 0 0 12.33 19.54c6.1 4.81 13.72 7.46 21.46 7.46 1.22 0 2.45-.07 3.67-.2-5.89 1.62-11.82 2.48-17.75 2.48zm926.44-2.29c6.59 0 13.02-1.87 18.6-5.42 7.86-5 13.28-12.76 15.27-21.87 5.51-25.29 9.06-51.13 10.61-77.15 16.56 13.79 28.17 35.79 28.17 56.97 0 32.66-30.91 49.74-61.45 49.74-8.16 0-16.29-1.63-24.34-4.6 2.57.76 4.44 1.22 5.4 1.44l.03.01.03.01c2.52.58 5.1.87 7.68.87z" fill="url(#a)"/></svg>