<svg xmlns="http://www.w3.org/2000/svg" width="2500" height="2500" viewBox="0 0 192.756 192.741"><path fill="#fff" d="M0 192.741h192.756V0H0v192.741z"/><path d="M97.818 146.182c43.875-8.52 78.975-36.498 78.465-62.568-.508-26.07-36.498-40.313-80.372-31.793S16.937 88.319 17.446 114.39c.509 26.069 36.498 40.186 80.372 31.792z" fill-rule="evenodd" clip-rule="evenodd" fill="#a2a4a6"/><path d="M92.732 140.968c43.874-8.521 79.102-36.498 78.465-62.568-.508-26.07-36.498-40.187-80.374-31.793-43.747 8.521-78.974 36.5-78.465 62.569.637 26.069 36.627 40.313 80.374 31.792z" fill-rule="evenodd" clip-rule="evenodd" fill="#c23c40"/><path d="M67.933 61.74l-4.323-3.052-6.995 1.144-28.231 69.309 4.068 3.435 10.811-2.035 4.833-13.354 4.706-1.018-.127 8.775 4.451 3.18 11.064-1.781-.128-5.595 3.18 2.289 3.306.763c2.035.51 5.087.51 8.394-.127 7.375-1.145 16.152-6.486 17.677-13.099 1.398-6.104-1.145-9.919-6.486-15.261-4.197-4.196-3.943-5.214-3.688-5.977.127-.89 1.78-2.162 4.069-2.289 2.035 0 3.052.127 3.816.382l1.271.254 5.85-6.232-3.307-2.416-3.307-.89c-1.525-.509-3.179-.89-7.248-.763-7.122.254-13.608 4.578-14.753 9.792-.89 3.943.255 6.868 4.833 11.7 4.578 4.96 5.722 7.249 5.087 10.174-.382 1.78-3.434 4.196-7.249 4.832-1.907.256-3.179.256-4.197 0l-1.271-.381-5.978 6.994-.128-58.753z" fill-rule="evenodd" clip-rule="evenodd"/><path fill-rule="evenodd" clip-rule="evenodd" d="M141.947 76.365l-4.322-3.052-12.592 2.034-1.779 3.815 6.994-34.209-4.707-.382-11.572 4.833-14.877 67.275 4.322 3.05 10.811-1.525 1.017-6.994.381 3.18 4.324 3.05 10.938-1.525-6.36-20.729 17.422-18.821z"/><path d="M96.293 107.522c1.398-6.105-1.145-9.92-6.486-15.26-4.197-4.198-3.942-5.215-3.688-5.978.127-.89 1.781-2.162 4.069-2.289 2.035 0 3.053.127 3.816.381l1.144.255.89-.891 2.798-2.924 2.289-2.417-3.307-.891c-1.652-.509-3.179-1.017-7.249-.763-7.121.255-13.606 4.579-14.751 9.666-.89 4.07.255 6.867 4.705 11.827 4.706 4.96 5.85 7.122 5.214 10.047-.381 1.907-3.56 4.324-7.249 4.832-1.907.254-3.179.254-4.323 0l-1.272-.381-.763 1.017-3.052 3.688-2.162 2.545 3.306.763c2.035.508 5.087.508 8.394-.127 7.376-1.146 16.151-6.486 17.677-13.1zM137.625 73.313l-11.955 2.034h-.637l-.508.509-7.377 8.012 8.393-39.551-10.682-.509-15.132 69.945-.635 2.926 2.924-.382 6.484-1.018 1.4-.127.381-1.399 2.289-10.174 2.543 9.03.51 1.781 1.779-.254 6.743-1.019 2.416-.254-6.36-20.729 17.424-18.821zM63.737 121.511l-.127-62.823-6.995 1.144-28.487 69.69 3.689-.763 5.976-1.018 1.145-.254.382-1.018 4.578-11.7 8.902-1.271v9.156l-.127 2.416 2.416-.381 6.995-1.146 1.78-.254-.127-1.778zm-17.042-16.532l7.249-21.365-1.397 20.602-5.852.763z" fill-rule="evenodd" clip-rule="evenodd" fill="#fff"/><path d="M142.328 138.933h4.324l1.146 2.162h1.016l-4.197-8.647h-.127l-4.195 8.647h1.018l1.015-2.162zm.383-.763l1.779-3.942 1.908 3.942h-3.687zM149.324 140.587c.637.381.891.508 1.271.637.381 0 .635.126 1.018.126 1.271 0 2.033-.636 2.033-1.653 0-.51-.254-.891-.508-1.018-.381-.254-.635-.381-1.398-.636-.764-.254-1.018-.381-1.145-.509-.127-.127-.254-.381-.254-.508 0-.51.381-.764.889-.764.637 0 1.146.254 1.908.635l.127-.762c-.762-.382-1.271-.509-2.035-.509-1.016 0-1.779.636-1.779 1.526 0 .381.254.763.51 1.017.254.255.635.382 1.396.636.766.254.893.254 1.146.381a.98.98 0 0 1 .254.638c0 .381-.508.763-1.271.763-.383 0-.764-.128-1.145-.382-.381-.127-.508-.127-.891-.381l-.126.763zM158.227 135.881l-2.291 2.289 2.926 2.925h1.271l-3.178-2.925 2.287-2.289h-1.015zm-3.307 5.214h.889v-8.52l-.889.254v8.266zM160.896 140.587c0 .381.254.637.508.637.383 0 .637-.256.637-.637 0-.255-.254-.636-.637-.636-.254 0-.508.381-.508.636zM168.398 136.136c-.635-.382-1.271-.509-1.906-.509-1.781 0-2.926 1.144-2.926 2.925 0 1.653 1.018 2.798 2.799 2.798.508 0 1.145-.126 1.525-.382.127 0 .254-.127.508-.127l.129-1.017c-.51.381-.764.381-1.145.508-.383.127-.637.255-1.018.255-1.145 0-1.908-.891-1.908-2.035 0-1.271.891-2.162 2.035-2.162.635 0 1.145.127 1.779.508l.128-.762zM169.545 138.425c0 1.653 1.271 2.925 2.797 2.925s2.926-1.271 2.926-2.925c0-1.527-1.4-2.798-2.926-2.798s-2.797 1.27-2.797 2.798zm.889 0c0-1.145.764-2.035 1.908-2.035s1.908.891 1.908 2.035-.764 2.162-1.908 2.162-1.908-1.018-1.908-2.162zM176.41 141.095h1.02v-2.797c0-1.018.635-1.781 1.652-1.781.764 0 1.145.381 1.145 1.526v3.052h.891v-2.797c0-1.018.764-1.781 1.652-1.781.764 0 1.145.51 1.145 1.526v3.052h.891v-3.306c0-1.272-.635-2.035-1.781-2.035-.508 0-1.016.127-1.398.382-.254.254-.381.381-.635.762-.383-.762-.891-1.144-1.781-1.144-.51 0-.891.127-1.271.382-.127.127-.254.254-.508.635h-.127v-.89h-.893v5.214h-.002zM169.926 53.728c-.635-.382-1.145-.509-1.654-.509-1.271 0-2.035.636-2.035 1.654 0 .508.256 1.017.51 1.399.381.126.51.254 1.398.635.764.382.891.382 1.146.636.254.127.381.509.381.763 0 .763-.637 1.272-1.527 1.272-.635 0-1.271-.254-2.033-.763l.125.89a3.6 3.6 0 0 0 1.908.509c1.4 0 2.289-.636 2.289-1.781 0-.636-.254-1.144-.635-1.526-.254-.254-.508-.381-1.271-.635-.764-.382-1.018-.382-1.271-.637-.129-.254-.256-.508-.256-.762 0-.637.383-1.018 1.271-1.018.51 0 .891.254 1.4.509.127 0 .127.127.254.127v-.763zM172.469 53.219l-1.399 6.74h.764l.889-4.578h.129l2.162 4.833h.127l2.162-4.833.888 4.578h.764l-1.398-6.74h-.127l-2.416 5.341-2.418-5.341h-.127z" fill-rule="evenodd" clip-rule="evenodd"/></svg>