<svg xmlns="http://www.w3.org/2000/svg" width="2500" height="2500" viewBox="0 0 192.756 192.756"><path fill="#fff" d="M0 192.756h192.756V0H0v192.756z"/><path d="M76.277 107.584l-1.187.26c-1.742.346-3.252.525-4.532.539-.677 0-1.31-.043-1.899-.129a4.388 4.388 0 0 1-1.381-.346c-1.64-.604-3.144-1.676-4.51-3.215-1.583-1.799-2.367-3.453-2.353-4.963-.015-1.107.41-3.043 1.273-5.805l1.316-4.123.949-3.064.432-1.187h7.877l-.302.993-.993 3.042-1.144 3.626c-.619 2-1.1 3.625-1.446 4.877-.23.807-.381 1.396-.453 1.77l-.194.928c-.101.418-.144.748-.13.992-.043.648.497 1 1.619 1.059.719.086 1.352.121 1.899.107.633.014 1.431-.035 2.395-.15a25.344 25.344 0 0 0 2.007-.26l2.05-.389-1.293 5.438z" fill-rule="evenodd" clip-rule="evenodd"/><path d="M81.349 84.128l-4.122-.41c-1.31-.086-3.229-.167-5.762-.238l-4.704-.064c-2.13.015-3.957.086-5.482.216a36.05 36.05 0 0 0-2.729.355c-.885.151-1.626.317-2.223.496a9.144 9.144 0 0 0-1.76.744c-.862.475-1.467.943-1.812 1.403l-.454.626.152.345.366.647c.705 1.065 2.187 2.166 4.446 3.302l1.338.669-4.079 4.92-.755-.324c-.964-.432-1.899-1.028-2.805-1.792a8.967 8.967 0 0 1-1.748-1.812 4.45 4.45 0 0 1-.799-1.532 3.77 3.77 0 0 1-.216-1.381c.015-2.476 1.374-5.215 4.079-8.223 1.467-1.654 3.006-2.719 4.618-3.193.475-.144.993-.259 1.554-.345 1.783-.259 4.618-.396 8.502-.41 6.186.029 11.02.209 14.5.539l1.468.173-1.573 5.289zM84.255 89.756l.187.29c.359.65.54 1.358.54 2.126.007.835-.223 1.715-.689 2.638-.467.923-1.032 1.64-1.695 2.151a4.868 4.868 0 0 1-1.493.799 5.948 5.948 0 0 1-2.062.342c-.947-.006-1.762-.201-2.446-.58l-.228-.145a.836.836 0 0 1-.156-.23 2.338 2.338 0 0 1-.395-1.098 3.98 3.98 0 0 1-.041-.726c-.007-1.265.321-2.491.984-3.68a7.256 7.256 0 0 1 1.182-1.586c1.237-1.279 2.716-1.925 4.437-1.939.615 0 1.23.062 1.845.182a11.31 11.31 0 0 1 1.804.513c.409.166.833.363 1.275.591l.415.228-.923-2.976-1.109-.476c-1.175-.443-2.454-.667-3.835-.674-1.113 0-2.143.121-3.09.362-.712.18-1.382.425-2.011.736-.691.332-1.279.718-1.762 1.161-.546.484-1.047 1.095-1.503 1.835a8.256 8.256 0 0 0-.934 2 7.6 7.6 0 0 0-.321 2.219c0 .712.086 1.361.259 1.949.173.586.443 1.139.809 1.659 1.119 1.658 2.778 2.699 4.976 3.121a8.633 8.633 0 0 0 1.804.166 9.28 9.28 0 0 0 2.446-.312c1.77-.469 3.207-1.393 4.313-2.768 1.104-1.375 1.669-2.989 1.689-4.842 0-.386-.028-.763-.083-1.129a5.178 5.178 0 0 0-.467-1.535l-.176-.373h-3.546v.001zM87.409 103.016l.197-.686c.242-.863.508-1.842.798-2.934l.757-2.953 1.316-5.454c.429-1.818.644-3.062.644-3.732-.007-.2-.024-.473-.053-.819l-.051-.498h3.721l.073.384c.041.297.065.615.072.954-.007.324-.031.673-.072 1.046a7.674 7.674 0 0 1-.145.871 8.216 8.216 0 0 1-.239.933l-.238.736-.581 1.898.612-1.151c.207-.38.418-.74.632-1.078.263-.422.525-.805.788-1.15.345-.47.757-.94 1.234-1.41.56-.56 1.143-1.05 1.752-1.472a4.435 4.435 0 0 1 1.472-.674c.207-.055.436-.083.685-.083.877-.007 1.724.443 2.54 1.349.745.802 1.13 1.679 1.149 2.633 0 .885-.269 1.918-.808 3.1-.471 1.043-1.058 1.928-1.763 2.654a7.563 7.563 0 0 1-1.357 1.13c-1.072.697-2.269 1.049-3.587 1.057-.767-.008-1.376-.072-1.825-.197l-.404-.125.083-2.612.414.156c.318.117.657.173 1.016.165 1.576-.02 2.913-1.433 4.012-4.24.291-.746.505-1.478.643-2.197l.031-.32c-.014-.25-.124-.382-.332-.395-.09 0-.176.02-.259.062a2.843 2.843 0 0 0-.373.208 8.717 8.717 0 0 0-1.202 1.006c-2.496 2.397-4.31 4.827-5.443 7.287-.242.506-.48 1.092-.715 1.764a32.83 32.83 0 0 0-.736 2.166l-.591 1.99-.187.633h-3.68v-.002zM103.013 103.016l.197-.686c.241-.863.508-1.842.798-2.934l.757-2.953 1.316-5.454c.429-1.818.643-3.062.643-3.732-.007-.2-.024-.473-.052-.819l-.052-.498h3.722l.073.384c.041.297.064.615.071.954-.007.324-.03.673-.071 1.046a7.45 7.45 0 0 1-.146.871 8.216 8.216 0 0 1-.239.933l-.238.736-.58 1.898.611-1.151c.207-.38.417-.74.633-1.078.263-.422.524-.805.788-1.15.345-.47.757-.94 1.232-1.41.561-.56 1.145-1.05 1.753-1.472a4.44 4.44 0 0 1 1.473-.674 2.66 2.66 0 0 1 .684-.083c.877-.007 1.724.443 2.54 1.349.746.802 1.13 1.679 1.149 2.633 0 .885-.269 1.918-.808 3.1-.47 1.043-1.058 1.928-1.763 2.654a7.5 7.5 0 0 1-1.358 1.13c-1.071.697-2.267 1.049-3.587 1.057-.767-.008-1.375-.072-1.824-.197l-.403-.125.083-2.612.414.156c.317.117.656.173 1.016.165 1.576-.02 2.913-1.433 4.012-4.24.29-.746.504-1.478.644-2.197l.03-.32c-.014-.25-.123-.382-.332-.395-.09 0-.176.02-.259.062-.145.069-.27.138-.373.208a8.78 8.78 0 0 0-1.203 1.006c-2.494 2.397-4.309 4.827-5.441 7.287a17.48 17.48 0 0 0-.716 1.764c-.27.711-.516 1.434-.736 2.166l-.59 1.99-.188.633h-3.68v-.002zM148.312 98.379l-.394.217-.363.166a1.107 1.107 0 0 1-.383.062c-.747-.02-1.538-1.6-2.375-3.729l-.456-1.275.633-.093a6.038 6.038 0 0 0 3.193-1.576c1.05-.968 1.582-2.014 1.596-3.141 0-.712-.256-1.349-.768-1.908-.455-.511-1.043-.877-1.762-1.099a5.902 5.902 0 0 0-1.742-.259c-.365 0-.697.031-.994.093-.471.097-.912.28-1.349.508-1.626.854-3.259 2.859-4.248 4.204.18-.83.341-2.769.349-3.519 0-.228-.014-.436-.042-.622l-.093-.467h-2.871l.042.394c.042.408.062.747.062 1.016-.004.54-.081 1.245-.216 2.08h-.073l-.083.487-.373 2.073c-.815 4.166-2.067 4.738-4.559 5.929-.048.023-.099.033-.146.055a18.136 18.136 0 0 1-3.613.391 11.87 11.87 0 0 1-1.11-.039 7.12 7.12 0 0 1-1.006-.154c-.353-.07-.632-.178-.839-.322l-.114-.082-.042-.072a.44.44 0 0 1-.041-.25c0-.613.1-1.856.3-2.713l.135-.497.882-.073c.324-.021.853-.031 1.586-.031 1.375.007 2.561.027 3.556.062l.871.042.591-2.54-1.172-.062a82.97 82.97 0 0 0-1.866-.042c-.47.007-1.435.031-2.892.073l-1.026.031.124-.436c.138-.497.246-.853.321-1.068a8.07 8.07 0 0 1 .238-.663h-3.794l-.321.777c-.677 1.728-1.02 3.415-1.026 5.059-.014 1.861.701 3.72 2.146 4.57 1.161.682 2.656.934 4.463 1.033v.014c.046 0 .087-.004.133-.004.017.002.031.004.048.004v-.004c6.775-.055 9.566-3.309 10.626-5.299.594-1.117 1.588-2.344 2.162-3.132.511-.719.977-1.32 1.398-1.804.422-.484.885-.958 1.39-1.42a13.029 13.029 0 0 1 2.125-1.648c.317-.193.571-.293.757-.301.214 0 .325.114.332.342-.007 1.064-.425 2.191-1.255 3.379-.484.692-.957 1.151-1.42 1.379-.491.249-1.134.367-1.929.353a1.62 1.62 0 0 1-.353-.011l-.165-.021-.705.726.146.498c1.257 4.299 2.729 6.958 4.416 6.963.511.008 1.102-.131 1.772-.414a7.31 7.31 0 0 0 1.71-.975l.498-.404-.446-.922-.176.111z" fill-rule="evenodd" clip-rule="evenodd"/><path d="M129.513 88.228c.615 0 1.316.007 2.104.021.789.014 1.459.031 2.012.052l.747.031.58-2.54-.445-.01-2.125-.062c-.705-.014-1.504-.025-2.396-.032-1.127 0-2.302.021-3.524.063l-2.021.093a36.08 36.08 0 0 0-1.15.093l-.84.094-.509 2.539 1.027-.072c2.382-.166 4.563-.256 6.54-.27zM97.615 106.936c.227-.08.521-.105.681-.105 1.027 0 1.973.133 1.973 1.381 0 1.195-1.12 1.262-2.04 1.262h-.613v-2.538h-.001zm-2.302 7.525c.53-.027 1.06-.068 1.548-.068.568 0 1.154.041 1.768.068v-.428c-.92-.092-1.014-.555-1.014-1.629v-2.105h.841c2.039 0 2.064 3.457 2.992 4.162.316-.027.636-.068.967-.068.385 0 .77.041 1.168.068v-.428c-.398-.158-.862-.344-1.075-.715-.822-1.416-.875-2.834-2.239-3.379v-.027c.689-.174 1.563-.533 1.563-1.768 0-1.541-1.165-2.143-2.977-2.143-.414 0-.827.027-1.214.066-.383.031-.74.072-1.044.072-.198 0-.41-.014-.622-.027-.212-.016-.438-.029-.663-.043v.428c.729.094.796.559.796 1.635v4.271c0 1.074-.067 1.537-.796 1.629v.429h.001zM107.52 112.053c0 .797-.332 1.512-1.287 1.512-.557 0-.968-.344-.968-.861 0-1.088 1.419-1.166 2.255-1.484v.833zm2.469 1.554c-.133.027-.266.094-.412.094-.517 0-.622-.504-.622-1.301v-2.771c0-.902-.679-1.607-2.02-1.607-.278 0-.53.053-.769.092-.252.047-.478.1-.703.1a.397.397 0 0 1-.291-.133l-.423-.059c-.146.678-.357 1.223-.648 1.873l.503.225c.251-.518.607-1.299 1.788-1.299.755 0 1.127.357 1.127.953 0 .729-.478.875-1.578 1.154-.928.238-2.183.504-2.183 1.975 0 1.074.832 1.723 1.917 1.723 1.247 0 1.804-.756 2.043-1.074.053.305.133 1.074.877 1.074.425 0 .903-.291 1.566-.584l-.172-.435zM116.514 112.863c-.239.412-.93 1.764-2.658 1.764-1.66 0-2.995-1.273-2.995-3.234 0-1.91 1.256-3.371 3.062-3.371.359 0 .638.053.851.113.212.053.358.121.451.121s.173-.08.213-.166h.412c.08.689.199 1.301.358 1.963l-.545.105c-.133-.449-.518-1.338-1.541-1.338-1.051 0-1.754.955-1.754 2.4 0 1.391.73 2.426 1.939 2.426.957 0 1.477-.809 1.675-1.1l.532.317zM117.216 114.033c.703-.078.743-.637.743-1.633v-4.346c0-1.16-.16-1.465-.743-1.557v-.426c.929-.055 1.407-.387 1.912-.762h.398c-.093.762-.133 1.609-.133 2.744v2.539l1.226-.666c.599-.305 1.063-.611 1.063-1.01 0-.213-.146-.305-.505-.305v-.426c.359.039.717.066 1.062.066.319 0 .624-.027.942-.066-.092.918-.822 1.541-1.911 2.166 1.395.611 1.447 1.953 2.057 3.018.373.65.69.637.863.662v.428c-.318-.027-.624-.068-.941-.068-.372 0-.73.041-1.103.068-.265-.561-.517-1.623-.995-2.605-.293-.584-.666-.785-.919-.785-.239 0-.573.201-.839.346v.984c0 .996.04 1.555.746 1.633v.428c-.507-.027-.972-.068-1.464-.068s-.956.041-1.46.068v-.427h.001zM131.229 106.91c.24-.055.506-.08.759-.08 1.054 0 1.799.318 1.799 1.59s-.893 1.537-2.104 1.537h-.453v-3.047h-.001zm-2.303 7.551c.531-.027 1.062-.068 1.55-.068.568 0 1.179.041 1.792.068v-.428c-1.012-.133-1.039-.463-1.039-1.631v-1.619h.626c1.452 0 3.493-.041 3.493-2.391 0-1.723-1.204-2.391-3.147-2.391-.278 0-.625.027-.984.066-.344.031-.701.072-1.005.072-.198 0-.409-.014-.621-.027-.213-.016-.438-.029-.664-.043v.428c.729.094.796.557.796 1.631v4.273c0 1.074-.066 1.539-.796 1.631v.429h-.001zM136.519 114.033c.703-.078.743-.635.743-1.629v-1.551c0-1.166-.159-1.471-.743-1.564v-.426c.796-.053 1.248-.428 1.673-.842h.399v1.699h.026c.199-.652.77-1.699 1.805-1.699.133 0 .266.025.397.068.067.613.174 1.227.279 1.816l-.385.146c-.066-.133-.278-.652-.85-.652-1.141 0-1.168 1.713-1.168 2.367v.637c0 1.205.067 1.551 1.062 1.629v.428c-.584-.027-1.208-.068-1.779-.068-.492 0-.957.041-1.461.068v-.427h.002zM143.009 111.322c0-1.51.557-2.502 1.631-2.502s1.631.992 1.631 2.502c0 1.512-.557 2.504-1.631 2.504s-1.631-.992-1.631-2.504zm1.631 3.303c1.75 0 3.138-1.248 3.138-3.303 0-2.051-1.388-3.301-3.138-3.301-1.751 0-3.138 1.25-3.138 3.301 0 2.055 1.387 3.303 3.138 3.303zM153.63 111.379c0 1.219-.385 2.186-1.563 2.186-.993 0-1.575-.861-1.575-2.146 0-1.512.557-2.598 1.643-2.598.847 0 1.496.529 1.496 1.377v1.181h-.001zm.941 3.246c.358-.385.743-.676 1.381-.836v-.424c-.85-.105-.996-.529-.996-1.498v-3.846c0-1.127.041-1.963.134-2.711h-.399c-.504.375-.981.707-1.908.762v.426c.582.094.741.385.741 1.523v.545c-.357-.213-.755-.545-1.522-.545-1.721 0-3.016 1.541-3.016 3.502 0 1.828 1.084 3.102 2.632 3.102 1.535 0 2.013-1.074 2.265-1.67h.025c0 .662.146 1.326.267 1.67h.396zM162.087 114.625a2.685 2.685 0 0 1-.385-1.324h-.027c-.266.355-.891 1.324-2.416 1.324-1.448 0-1.873-.822-1.873-2.133v-1.641c0-1.164-.159-1.469-.743-1.562v-.426c.93-.053 1.407-.428 1.912-.844h.397c-.093.791-.131 1.668-.131 2.832v1.086c0 1.018.252 1.627 1.102 1.627 1.021 0 1.513-.848 1.513-1.812v-.939c0-1.139-.159-1.43-.744-1.523v-.426c.931-.053 1.408-.428 1.913-.844h.399c-.093.777-.134 1.641-.134 2.793v1.059c0 .965.146 1.389.995 1.494v.424c-.637.16-1.021.451-1.38.836h-.398v-.001zM170.416 112.863c-.238.412-.93 1.764-2.657 1.764-1.66 0-2.995-1.273-2.995-3.234 0-1.91 1.256-3.371 3.062-3.371.359 0 .639.053.851.113.213.053.358.121.452.121.093 0 .173-.08.213-.166h.412c.08.689.199 1.301.357 1.963l-.544.105c-.133-.449-.519-1.338-1.542-1.338-1.05 0-1.754.955-1.754 2.4 0 1.391.731 2.426 1.94 2.426.957 0 1.476-.809 1.675-1.1l.53.317zM175.561 113.219c-.358.465-1.048 1.406-2.269 1.406-1.077 0-1.555-.77-1.555-1.857v-3.795h-.744v-.424c1.155-.332 1.422-.863 1.647-1.793h.531v1.5h1.114c.358 0 .57-.027.85-.07l.159.311c-.53.369-.729.477-1.499.477h-.624v3.344c0 .797.318 1.248.929 1.248.426 0 .836-.318 1.141-.625l.32.278zM180.084 109.906c-.159-.277-.505-1.086-1.532-1.086-.609 0-1.032.305-1.032.809 0 1.496 3.248.516 3.248 2.926 0 1.232-.942 2.07-2.44 2.07-.331 0-.623-.053-.875-.127-.238-.053-.451-.105-.65-.105-.093 0-.159.066-.227.141l-.411.053a17.127 17.127 0 0 0-.212-2.031l.478-.078c.173.502.399 1.35 1.751 1.35.689 0 1.152-.371 1.152-.926 0-1.352-3.248-.57-3.248-2.848 0-1.166.93-2.031 2.322-2.031.409 0 .635.039.812.084.173.041.28.094.412.094.093 0 .2-.039.227-.125l.398-.041c.066.641.172 1.197.318 1.807l-.491.064zM181.573 109.646v-1.394h-.521v-.188h1.254v.188h-.521v1.394h-.212zM182.734 109.646v-1.582h.313l.379 1.121c.035.104.061.182.077.234.018-.059.046-.143.085-.254l.383-1.102h.28v1.582h-.204v-1.322l-.465 1.322h-.186l-.459-1.344v1.344h-.203v.001zM35.367 101.576H21.9l13.477-23.429s-5.969 8.454-11.168 13.569c-1.708 1.68-2.649 2.583-4.312 3.809-1.369 1.01-3.465 2.12-4.54 2.606-2.062.928-4.621 1.711-6.853 1.711l-.001.754v.207h12.71l-.431.746-8.206.02-.432.752h-3.64v.207H20.215l-.749 1.297H8.504v.207h10.843l-.752 1.303H8.504v.207h9.972l-.752 1.303h-9.22v.207h9.1l-.75 1.299h-8.35v.207h8.231l-.175.303c-.244.422-.408.738-.522.998H8.504v.207h7.446a4.11 4.11 0 0 0-.203.703 8.813 8.813 0 0 0-.108.6H8.504v.207h7.112c-.022.283-.009.545.034.926.015.119.033.246.059.377H8.504v.207h7.249c.113.471.305.969.602 1.312H8.504v.205h8.067c0 .002.001.002.002.002h1.108c-.61-.795-.904-1.418-1.015-1.84-.102-.391-.315-1.574.623-3.176l.864-1.498c-.112.252-.188.43-.188.43-1.065 2.822-.458 4.951.927 5.752 1.662.959 4.473-.078 6.594-3.752.051-.088.1-.176.148-.262-.287 1.939.306 3.395 1.381 4.016.727.418 1.678.457 2.691.059l.967-1.666a6.25 6.25 0 0 1-.272.211h-3.487c-.218-.34-.358-.779-.4-1.303l4.786-.002.119-.205h-4.916c-.012-.393.028-.83.126-1.303h5.543l.116-.205-5.612-.002c.098-.41.24-.844.429-1.301l5.938-.002.118-.205h-5.968c.168-.383.369-.781.605-1.189.021-.039.044-.072.065-.109l6.05-.002.118-.205h-6.044c.296-.484.606-.918.921-1.303l5.267-.002c.01.395-.032.828-.134 1.287l1.042-1.801c-.128-1.082-.651-1.98-1.353-2.385a2.189 2.189 0 0 0-.205-.104h1.844l-.002-.962zm-10.239 1.893c.156.09.294.209.413.355h-2.869c.959-.588 1.844-.709 2.456-.355zm-2.768.562h3.325c.204.34.33.779.365 1.303h-5.094c.466-.539.94-.975 1.404-1.303zm5.571-14.88h.003l-.51.884h-.244c.565-.625.751-.884.751-.884zm-.939 1.09h.313l-.749 1.3h-.806c.522-.531.93-.959 1.242-1.3zm-2.315 2.369c.318-.312.607-.599.87-.863h.89l-.752 1.304h-1.459l.451-.441zm-.665.646l1.555-.001-.752 1.304h-2.206c.444-.391.889-.807 1.403-1.303zm-1.639 1.51l2.323-.002-.752 1.306-3.194-.002a31.389 31.389 0 0 0 1.623-1.302zm-1.989 1.576c.031-.023.06-.045.091-.066l3.351-.002-.751 1.301h-4.577c.674-.399 1.34-.829 1.886-1.233zm-4.625 2.674c.598-.258 1.483-.713 2.387-1.234h4.81l-.75 1.301h-6.604l.157-.067zm-5.11 1.58c1.493-.262 3.06-.746 4.453-1.307h6.984l-.754 1.307H10.649zm10.711 1.941h1.913c-1.131.377-2.379 1.289-3.5 2.748l1.587-2.748zm-1.685 4.619l.064-.105h6.147a9.27 9.27 0 0 1-.408 1.299h-6.425c.142-.288.431-.864.622-1.194zm-.721 1.401h6.442c-.175.42-.388.854-.638 1.301h-6.239c.099-.409.243-.844.435-1.301zm-.482 1.507h6.169c-.283.486-.575.92-.872 1.303h-5.42a5.407 5.407 0 0 1 .123-1.303zm.9 3.375a1.716 1.716 0 0 1-.432-.355h3.024c-1.002.639-1.934.734-2.592.355zm2.892-.562h-3.482c-.226-.34-.372-.777-.419-1.303h5.241a7.59 7.59 0 0 1-1.34 1.303zm3.667-6.033h-6.069c.297-.484.606-.918.921-1.303h5.276c.007.395-.034.83-.128 1.303zm4.17 6.238c-1.003.635-1.951.738-2.606.359a1.672 1.672 0 0 1-.428-.357l3.034-.002zm-4.493-10.443a2.105 2.105 0 0 0-.201-.102h5.996c-1.463.484-3.123 1.869-4.449 4.166-.026.043-.05.088-.075.131.337-2.025-.198-3.576-1.271-4.195zm3.473 2.695a8.016 8.016 0 0 1 1.404-1.303h3.309c.202.34.333.783.371 1.303h-5.084l4.572-1.51h-2.854c.957-.586 1.841-.707 2.452-.354.148.086.284.207.402.354l-4.572 1.51zM14.484 84.555h-.994l-.398-1.003h-1.848l-.395 1.003H9.847l1.842-4.394h1l1.795 4.394zm-1.694-1.767l-.624-1.576-.621 1.576h1.245zM15.941 84.555v-3.629h-1.407v-.765h3.752v.765h-1.407v3.629h-.938zM23.22 82.364c0-.727-.206-1.282-.627-1.69-.422-.409-.967-.604-1.658-.604-.692 0-1.235.199-1.657.608-.421.408-.627.963-.627 1.69 0 .722.204 1.273.622 1.68.419.408.964.607 1.664.607v-.005c.698 0 1.243-.199 1.661-.606.418-.407.622-.958.622-1.68zm-1.318 1.137c-.255.259-.573.385-.971.385v.004c-.394-.001-.71-.127-.964-.385-.255-.26-.397-.616-.397-1.134 0-.513.139-.909.387-1.161.248-.253.57-.376.981-.376v-.004c.407.002.727.125.974.375.248.253.387.65.387 1.162.001.518-.141.875-.397 1.134zM26.894 83.073a1.013 1.013 0 0 1-.318.485 1.074 1.074 0 0 1-.669.239c-.36 0-.658-.121-.883-.353-.225-.232-.336-.556-.336-1.101 0-.546.11-.868.335-1.101.226-.232.523-.352.883-.352.265 0 .485.098.669.239.129.1.252.279.318.485h1.036c-.129-.497-.39-.892-.727-1.129-.337-.237-.779-.359-1.296-.359-.64 0-1.129.2-1.542.597-.412.396-.611.928-.611 1.614s.2 1.229.613 1.626c.412.396.901.597 1.541.597.517 0 .96-.122 1.296-.359.337-.237.598-.631.727-1.129h-1.036v.001z" fill-rule="evenodd" clip-rule="evenodd"/></svg>