<svg xmlns="http://www.w3.org/2000/svg" width="2500" height="2500" viewBox="0 0 192.756 192.741"><path fill="#fff" d="M0 192.741h192.756V0H0v192.741z"/><path d="M8.778 99.626c.612-2.767 2.301-6.788 6.584-13.226 0 0-3.496 5.826-4.107 12.382a4.46 4.46 0 0 0-.001.817l172.999-1.809c-62.842 7.254-166.909 6.235-171.483 6.089-2.127-.087-4.457-.67-4.253-2.68.057-.466.145-.99.261-1.573z" fill-rule="evenodd" clip-rule="evenodd" fill="#00a0e2"/><path d="M112.438 91.061c-3.76 3.438-6.586 8.944-9.295 13.839h-.029c.699-5.536 1.34-10.43 2.186-13.897l7.138.058z" fill-rule="evenodd" clip-rule="evenodd" stroke="#000" stroke-width=".303" stroke-miterlimit="2.613"/><path d="M40.243 100.5c-.933.7-2.272 1.544-3.087 1.544-.175 0-.234-.116-.146-.378.086-.379.553-1.661 1.689-3.7-1.719 1.428-2.593 2.127-3.963 3.321a5.32 5.32 0 0 0-.932.087c1.049-1.952 1.748-2.941 2.884-3.962 1.37-1.194 2.943-2.098 3.671-2.098.262 0 .466.146.583.379l-.874.788c.408-.117.612-.176.728-.176.088 0 .146.059.117.176-.058.204-.204.466-.612 1.049-.816 1.253-1.573 2.68-1.749 3.263-.029.146 0 .204.116.204.175 0 .729-.292 1.399-.787l.176.29zm-2.797-3.028c-.699.553-1.34 1.427-1.807 2.388 1.399-1.02 2.797-2.272 3.613-3.06-.67 0-1.282.204-1.806.672zM50.44 95.81c.233 0 .378.175.32.408-.059.204-.379.729-.903 1.544l-1.573 2.302 2.272-1.952c0-.029.029-.059.058-.059 1.195-1.02 1.516-1.311 2.389-2.156l.496.233c-.204.408-.321.583-.641 1.166-.758 1.34-.991 1.893-1.166 2.534l-.029.175c-.058.233-.029.291.146.291s.495-.175 1.165-.495l.059.32c-.379.234-1.865 1.195-2.273 1.195-.351 0-.408-.379-.204-1.137.117-.524.466-1.428.816-2.214-.874.786-1.34 1.194-1.894 1.719-1.282 1.224-1.806 1.573-2.272 1.573-.292 0-.379-.116-.321-.407.058-.176.117-.263.379-.729l1.457-2.447c.087-.115.174-.291.204-.408a.526.526 0 0 0-.03-.466l1.545-.99zM66.521 99.597c-.291.321-.466.496-.786.816-1.02 1.107-1.457 1.457-1.894 1.457-.438 0-.379-.263.117-2.652 0-.058.233-1.165.408-1.952-.874.962-4.341 4.604-4.953 4.604-.233 0-.321-.438-.204-.874.379-1.429 3.35-4.516 5.361-4.836.786-1.253 1.312-2.157 1.835-3.176l1.107-.554.175.262c-.816 1.167-1.806 3.234-2.36 5.303-.175.582-.583 2.389-.379 2.389.233 0 .554-.291 1.37-1.078l.203.291zm-5.652.146c-.058.204-.058.35-.029.466 1.311-1.194 1.923-1.776 2.826-2.768-1.165-.029-2.505 1.195-2.797 2.302zM76.311 92.605c-.088.902.116 1.282.99 1.457l-.438.582c-.291.059-.408.088-.787.088-.961-.029-1.165-.262-1.107-1.399l1.342-.728zm-.612 7.021c-.902.7-1.341 1.02-1.952 1.37-.35.204-.67.349-.816.349-.233 0-.379-.232-.32-.494.029-.088.582-1.312 1.894-3.234l-.175-.408c.904-.495 1.37-.757 2.011-1.253l.466.35c-1.981 2.099-2.651 3.496-2.739 3.759 0 .058.029.116.058.116.233 0 .845-.466 1.37-.786l.203.231zM86.012 99.481c-1.224.845-3.088 2.097-3.641 2.097-.292 0-.292-.32-.088-1.136.262-.99.757-2.127 1.544-3.555-.233-.175-.32-.262-.35-.554.35-.232.554-.32 1.02-.524.554-.874 1.486-1.952 2.681-2.302l.029.146c-.874.757-1.428 1.602-1.486 1.806-.06.204.087.292.553.292.321 0 .583-.03.845-.03l-.086.612-.466.117c-.758.175-1.137.262-1.894.524-.612 1.049-1.078 2.098-1.253 2.738-.145.524-.116.757.117.757s.612-.204 1.485-.786c.263-.203.438-.291.758-.496l.232.294zM92.655 97.791l1.078-1.165c.291-.321.582-.524.786-.524.233 0 .35.146.321.466l-.292 2.098c-.029.233 0 .291.088.291.32 0 3.174-2.913 3.583-2.913.146 0 .176.146.088.467-.203.786-.699 1.602-1.718 2.825l-1.719 2.127c-1.107 1.369-1.865 2.418-2.244 3.525 1.545-1.225 2.331-1.836 3.118-2.389l.175.35-2.273 1.98c-1.136.99-1.777 1.428-2.097 1.428-.175 0-.263-.088-.204-.32.233-.816 1.486-2.739 2.186-3.642l1.689-2.156c.873-1.136 1.34-1.864 1.457-2.331l-.816.758c-1.689 1.631-1.923 1.864-2.447 1.864-.204 0-.32-.087-.349-.291-.03-.175.291-2.068.291-2.447h-.701v-.001z" fill-rule="evenodd" clip-rule="evenodd"/><path d="M125.723 99.714c-2.332.466-3.352.582-4.488.582-.756 0-1.164-.087-1.105-.262.027-.146.35-.408.99-.932.35-.088.641-.176.814-.233 1.604-.525 3.672-1.923 3.875-2.681.088-.292-.115-.496-.582-.496-.35 0-.699.088-1.166.292-.232.087-.348.117-.436.117s-.146-.088-.117-.176c0-.029.059-.116.145-.204.816-.99 1.604-1.136 2.391-1.136.932 0 1.34.35 1.166.962-.205.757-1.078 1.516-3.613 3-.555.351-.729.467-1.107.7 1.66-.03 2.564-.117 3.699-.204l-.466.671zM141.92 94.703c.641 0 .963.291.816.757-.115.437-.523 1.137-1.166 1.981-2.213 2.885-4.311 3.001-4.516 3.001-.67 0-.99-.408-.816-1.137.555-2.068 3.701-4.602 5.682-4.602zm-3.934 4.836c.496 0 1.34-.495 2.244-1.253.729-.641 1.166-1.136 1.748-2.126-.438-.35-.758-.525-1.107-.525-1.34 0-3.059 1.63-3.438 3.03-.117.523.088.874.553.874zM157.07 94.703c.641 0 .961.291.816.757-.117.437-.525 1.137-1.166 1.981-2.215 2.885-4.312 3.001-4.516 3.001-.672 0-.99-.408-.787-1.137.556-2.068 3.673-4.602 5.653-4.602zm-3.933 4.836c.496 0 1.34-.495 2.244-1.253.727-.641 1.166-1.136 1.748-2.126-.408-.35-.758-.525-1.107-.525-1.34 0-3.059 1.63-3.438 3.03-.117.523.088.874.553.874zM172.221 94.703c.641 0 .961.291.814.757-.115.437-.523 1.137-1.166 1.981-2.213 2.885-4.311 3.001-4.516 3.001-.67 0-.99-.408-.785-1.137.553-2.068 3.67-4.602 5.653-4.602zm-3.934 4.836c.494 0 1.34-.495 2.242-1.253.729-.641 1.166-1.136 1.748-2.126-.408-.35-.758-.525-1.105-.525-1.342 0-3.061 1.63-3.439 3.03-.116.523.087.874.554.874z" fill-rule="evenodd" clip-rule="evenodd" stroke="#000" stroke-width=".303" stroke-miterlimit="2.613"/></svg>