<svg xmlns="http://www.w3.org/2000/svg" width="2500" height="2500" viewBox="0 0 192.756 192.756"><g fill-rule="evenodd" clip-rule="evenodd"><path fill="#fff" d="M0 0h192.756v192.756H0V0z"/><path d="M59.95 34.4L31.394 90.99l14.072 7.094 12.772-25.312C62.091 84.17 69.72 93.908 79.925 100.43l-26.652 53.295 12.532 6.227 26.816-53.623a52.895 52.895 0 0 0 15.784 2.422c6.73 0 13.256-1.248 19.439-3.695L88.222 184.05l12.022 5.873 53.814-107.287a52.908 52.908 0 0 0 7.305-26.843c0-29.201-23.758-52.958-52.959-52.958C87.447 2.834 68.427 15.225 59.95 34.4z"/><path d="M160.52 55.792c0-28.783-23.332-52.115-52.115-52.115-21.29 0-39.596 12.768-47.685 31.063L32.526 90.617l12.567 6.336 13.32-26.398c3.662 12.419 11.825 22.908 22.601 29.58l-26.611 53.211 11.024 5.479 26.752-53.496a52.057 52.057 0 0 0 16.225 2.58 51.936 51.936 0 0 0 21.207-4.498l-40.255 80.254 10.509 5.135 53.441-106.542a51.882 51.882 0 0 0 7.214-26.466z" fill="#205b9c"/><path d="M95.299 17.454v76.679l-1.432-.551a40.468 40.468 0 0 1-6.631-3.279l-.502-.309V60.172h-9.692v21.433l-1.917-2.764a40.39 40.39 0 0 1-7.056-19.634 41.16 41.16 0 0 1-.145-3.414l.016-1.103c.027-1.039.096-2.093.204-3.131 1.29-12.401 8.427-23.719 19.093-30.274a40.473 40.473 0 0 1 6.631-3.28l1.431-.551zm-17.847 33.16h9.283V33.072a31.19 31.19 0 0 0-9.283 17.542zM112.994 15.573a40.849 40.849 0 0 0-8.668-.057l-.949.095v80.363l.949.094a40.567 40.567 0 0 0 8.668-.057l.934-.105V15.679l-.934-.106zM131.066 59.211v-7.085h17.67l-.141-1.178c-1.414-11.857-7.977-22.432-18.004-29.016l-2.041-1.258a40.308 40.308 0 0 0-4.59-2.263l-1.457-.607V93.78l1.457-.607a40.457 40.457 0 0 0 6.631-3.521l.475-.312V68.768h15.699l.232-.735a40.518 40.518 0 0 0 1.627-7.652l.131-1.17h-17.689z"/><path d="M69.191 51.667a40.382 40.382 0 0 0-.214 4.125c0 1.121.05 2.229.141 3.326a39.21 39.21 0 0 0 6.872 19.121v-19.12h11.798v30.286a39.253 39.253 0 0 0 6.458 3.194V18.986a39.254 39.254 0 0 0-6.458 3.194c-10.179 6.257-17.299 17.006-18.597 29.487zm18.597 0H76.199c1.069-8.418 5.351-15.834 11.589-20.966v20.966zM104.43 16.563v78.458a39.909 39.909 0 0 0 8.446-.056V16.619a39.753 39.753 0 0 0-8.446-.056zM130.014 60.264v-9.19h17.535c-1.408-11.819-8.047-22.031-17.535-28.26a39.042 39.042 0 0 0-1.986-1.226 39.035 39.035 0 0 0-4.471-2.203v72.817a39.263 39.263 0 0 0 6.457-3.429V67.715h15.982a39.179 39.179 0 0 0 1.582-7.452h-17.564v.001z" fill="#f3e52d"/></g></svg>