<svg xmlns="http://www.w3.org/2000/svg" width="2500" height="2500" viewBox="0 0 192.756 192.741"><path fill="#fff" d="M0 192.741h192.756V0H0v192.741z"/><path d="M41.98 64.044c-18.488 0-33.476 14.988-33.476 33.477 0 18.487 14.988 33.476 33.476 33.476s33.475-14.988 33.475-33.476c0-18.489-14.987-33.477-33.475-33.477zm0 63.603c-16.64 0-30.129-13.487-30.129-30.127S25.34 67.392 41.98 67.392c16.639 0 30.128 13.489 30.128 30.128s-13.489 30.127-30.128 30.127z" fill-rule="evenodd" clip-rule="evenodd" fill="#1e71b8"/><path d="M62.065 79.945a5.021 5.021 0 0 0-5.021 5.021v.837a1.673 1.673 0 0 1-3.348 0v-.837a5.021 5.021 0 0 0-10.042 0v22.597a1.675 1.675 0 0 1-3.348 0v-.838a5.022 5.022 0 0 0-10.043 0v.838a1.674 1.674 0 0 1-3.347 0V84.967a5.021 5.021 0 1 0-10.043 0v26.78c0 .837.837.837.837.837h1.674c.837 0 .836-.837.836-.837V96.683c.837 0 .837-.836.837-.836v-1.673c0-.837-.837-.837-.837-.837v-8.369a1.674 1.674 0 0 1 3.348 0v8.369h-.837c-.837 0-.837.837-.837.837v1.673c0 .836.837.836.837.836h.837v10.881a5.022 5.022 0 0 0 10.042 0v-.838a1.674 1.674 0 0 1 3.347 0v.838a5.023 5.023 0 0 0 10.043 0V84.967a1.674 1.674 0 0 1 3.348 0v.837a5.021 5.021 0 0 0 10.043 0v-.837a1.673 1.673 0 1 1 3.347 0v26.78s0 .837.837.837h1.674s.837 0 .837-.837v-26.78a5.02 5.02 0 0 0-5.021-5.022z" fill-rule="evenodd" clip-rule="evenodd" fill="#1e71b8"/><path d="M173.094 68.546c0 .15-.152.15-.152.15h-.301c-.15 0-.15-.15-.15-.15v-1.659a.302.302 0 0 0-.301-.302h-.15a.904.904 0 0 1-.906-.905v-.151c0-.499.404-.904.906-.904h.15a.301.301 0 0 0 .301-.301v-.453a.302.302 0 0 0-.301-.302h-1.207a.302.302 0 0 0-.301.302v4.675c0 .15-.152.15-.152.15h-.301c-.152 0-.152-.15-.152-.15v-4.675c0-.5.406-.905.906-.905h1.207c.498 0 .904.405.904.905v.453a.905.905 0 0 1-.904.904h-.15a.302.302 0 0 0-.303.3v.151c0 .167.135.302.303.302h.15c.498 0 .904.404.904.905v1.66z" fill-rule="evenodd" clip-rule="evenodd"/><path d="M171.586 61.76a4.072 4.072 0 0 0 0 8.143 4.07 4.07 0 0 0 0-8.143zm0 7.54a3.469 3.469 0 1 1 0-6.938 3.469 3.469 0 0 1 0 6.938zM180.182 61.76a4.071 4.071 0 1 0-.002 8.142 4.071 4.071 0 0 0 .002-8.142zm0 7.54a3.469 3.469 0 1 1 0-6.938 3.469 3.469 0 0 1 0 6.938z" fill-rule="evenodd" clip-rule="evenodd"/><path d="M182.293 66.585a2.11 2.11 0 1 1-4.224 0v-1.508a2.113 2.113 0 0 1 4.224 0v.151c0 .15-.152.15-.152.15h-.301c-.152 0-.152-.15-.152-.15v-.151a1.507 1.507 0 1 0-3.014 0v1.508a1.507 1.507 0 1 0 3.014 0v-.151c0-.15.152-.15.152-.15h.301c.152 0 .152.15.152.15v.151z" fill-rule="evenodd" clip-rule="evenodd"/><path fill-rule="evenodd" clip-rule="evenodd" fill="#1e71b8" d="M92.495 103.596h-1.456v-9.882h.334l-3.489 9.882h-1.309l-3.488-9.883.336.001v9.882h-1.49V92.348h2.163l3.116 8.827 3.116-8.827h2.167v11.248zM100.963 103.596h-6.337V92.348h6.337v1.49h-4.898v3.28h4.687v1.44h-4.687v3.548h4.898v1.49zM111.027 99.096c0 .921-.09 1.682-.268 2.282-.23.779-.639 1.366-1.225 1.76-.244.166-.484.28-.719.347a3.369 3.369 0 0 1-.879.111h-4.961V92.348h4.715c.732 0 1.346.16 1.844.479.455.291.801.695 1.033 1.212.307.667.459 1.584.459 2.753v2.304h.001zm-1.439-.301v-2.394c0-1.709-.574-2.563-1.721-2.563h-3.418v8.269h3.145c.764 0 1.281-.222 1.549-.664.197-.324.328-.743.389-1.256.036-.307.056-.771.056-1.392z"/><path fill="#1e71b8" d="M113.293 103.596h1.473V92.348h-1.473v11.248z"/><path d="M125.273 103.596h-1.529l-.742-2.275h-4.33l-.701 2.275h-1.525l3.467-11.248h1.773l3.587 11.248zm-2.666-3.732l-1.783-5.588-1.703 5.588h3.486zM134.859 99.096c0 .921-.09 1.682-.268 2.282-.23.779-.639 1.366-1.225 1.76-.244.166-.484.28-.719.347a3.38 3.38 0 0 1-.879.111h-4.961V92.348h4.715c.732 0 1.346.16 1.844.479.455.291.799.695 1.033 1.212.307.667.459 1.584.459 2.753v2.304h.001zm-1.439-.301v-2.394c0-1.709-.574-2.563-1.721-2.563h-3.418v8.269h3.145c.764 0 1.281-.222 1.549-.664.197-.324.326-.743.389-1.256.036-.307.056-.771.056-1.392zM143.076 103.596h-6.338V92.348h6.338v1.49h-4.896v3.28h4.685v1.44h-4.685v3.548h4.896v1.49zM152.068 100.315c0 1.381-.293 2.315-.879 2.803-.301.248-.762.412-1.381.491-.375.047-.916.071-1.621.071h-.373c-1.104 0-1.896-.227-2.381-.676-.496-.464-.746-1.252-.746-2.363.033-.107.051-.248.051-.422v-.429h1.49v.247c0 .057-.018.141-.051.254 0 .852.111 1.388.33 1.609a.59.59 0 0 0 .289.154c.08.043.209.073.387.093.291.027.611.042.963.042h.33a4.4 4.4 0 0 1 .381.021c.656 0 1.111-.106 1.363-.315.238-.197.357-.696.357-1.497v-.33c0-.534-.078-.89-.236-1.068-.119-.131-.32-.222-.605-.274-.064-.009-.354-.036-.865-.084-.795 0-1.391-.027-1.783-.084-.723-.104-1.26-.311-1.609-.62-.482-.424-.723-1.18-.723-2.27 0-.625.062-1.177.188-1.656.123-.465.303-.813.543-1.043.305-.296.693-.488 1.166-.578.441-.084 1.02-.127 1.73-.127 1.416 0 2.342.217 2.777.649.484.479.725 1.25.725 2.312v.515h-1.473v-.249c0-.415-.01-.704-.027-.865a.99.99 0 0 0-.203-.496c-.133-.175-.299-.281-.5-.319s-.523-.057-.967-.057h-.59c-.838 0-1.387.125-1.648.375-.154.147-.232.562-.232 1.247 0 .326.031.63.092.914.057.261.166.444.33.552.281.185.775.276 1.482.276h.605c1.201 0 2.041.193 2.514.576.535.432.8 1.305.8 2.621z" fill-rule="evenodd" clip-rule="evenodd" fill="#1e71b8"/><path fill="#1e71b8" d="M154.125 103.596h1.475V92.348h-1.475v11.248z"/><path d="M165.799 100.365c0 .873-.084 1.56-.252 2.062a1.607 1.607 0 0 1-.578.774c-.033.145-.607.267-1.723.366-.844.075-1.525.113-2.045.113-.613 0-1.1-.048-1.455-.142a2.2 2.2 0 0 1-1.125-.683c-.549-.633-.822-1.68-.822-3.139v-3.547c0-1.328.256-2.327.768-2.998.459-.606 1.17-.909 2.133-.909h2.479c.82 0 1.459.224 1.914.67.455.447.686 1.104.689 1.973v1.037h-1.438v-.676c0-.362-.012-.607-.033-.736a.946.946 0 0 0-.201-.415.795.795 0 0 0-.469-.293 3.678 3.678 0 0 0-.799-.07H161.184c-.709-.014-1.203.108-1.48.366s-.414.933-.414 2.024v3.917c0 1.196.375 1.883 1.123 2.061.234.057.533.085.893.085.104-.011.215-.017.332-.017h.52c.084 0 .182.006.287.017.793 0 1.326-.125 1.598-.373.201-.183.303-.655.303-1.416v-1.14h-2.947v-1.523h4.402v2.612h-.002zM176.195 103.596h-2.047l-5.169-9.798h.322v9.798h-1.49V92.348h2.068l5.144 9.893-.316-.002v-9.891h1.488v11.248z" fill-rule="evenodd" clip-rule="evenodd" fill="#1e71b8"/></svg>