<svg xmlns="http://www.w3.org/2000/svg" width="2500" height="2500" viewBox="0 0 58.066 58.066"><circle cx="29.033" cy="29.033" r="29.033"/><circle cx="29.033" cy="29.033" r="28.037" fill="#fff"/><circle cx="29.033" cy="29.033" r="22.318"/><path d="M34.408 46.533l-.094 2.562s-.023.386-.107.499a21.168 21.168 0 0 0 9.758-5.515c-.139-.003-.463-.083-.69-.148-.409-.118-.613-.226-.893-.312s-.258.215-.205.366c.054.15.516.354.946.559.43.204-.043.28-.301.183a19.915 19.915 0 0 0-1.269-.43c-.57-.172-.064-.279.247-.215.312.064.237-.172-.107-.344s-2.817-1.323-2.817-1.323l-.021.193-.086.011s-.291.021.032.162c.323.14.376.527.376.527l.979.473-3.398 1.366-3.28-1.796s-.248.269-.441-.043.28-.323.28-.323-.086-.215-.14-.462c-.054-.247-.269-.226-.269-.226s-.119.376-.506.591c-.387.215-1.871-.753-2.107-.936-.237-.183-.764-.419-.785-.516-.012-.054.066-.088.101-.131.102-.126.202-.261.323-.37.115-.104.278-.141.387-.248.13-.129.012-.294-.11-.377-.201-.136-.47-.146-.701-.192-.327-.065-.643-.167-.965-.25a.886.886 0 0 0-.437-.007c-.246.05-.482.123-.719.206-.133.046-.4.16-.516.017-.188-.234.589-.184.448-.426-.079-.137-.33-.161-.465-.195-.323-.081-.643-.175-.971-.237-.185-.035-.371-.061-.556-.093-.12-.021-.259-.036-.368-.096-.171-.094.068-.14.151-.131.17.018.331.1.498.138.246.056.496.094.744.143.208.041.416.065.625.092.244.03.482.09.725.127.188.029.38-.012.553-.087.052-.022.464-.168.322-.25-.057-.033-.139-.011-.201-.014-.202-.009-.406-.003-.607-.026a1.664 1.664 0 0 1-.661-.23c-.113-.002-.226.004-.339 0-.102-.003-.214.037-.313.012-.082-.021-.165-.107-.148-.198.01-.052.068-.11.118-.128.061-.022.13.02.189.033.097.022.191.045.286.069.063-.021.224.03.256.041.093.029.179.074.276.094.321.065.642.087.968.094.071.001.175.033.244.012.107-.031-.045-.112-.084-.128a1.31 1.31 0 0 0-.485-.075c-.145-.002-.287-.028-.43-.049-.084-.012-.389-.014-.375-.16.143-.004.284.031.427.045.202.02.404.03.605.056.194.024.388.053.583.066.14.009.274-.003.41.036.039.011.076.018.092.058.014.037-.011.077-.001.111.017.058.109.125.162.147a.48.48 0 0 0 .164.029c.046.002.198.02.232-.022.031-.038-.025-.183-.051-.223.062-.027.148-.056.213-.022.035.019.067.064.099.092a.671.671 0 0 0 .165.108c.055.023.107.007.163.001a.856.856 0 0 1 .386.06c.066.024.134.043.2.067.071.024.151.015.226.014l2.151.871.011-.322 1.56-.495 1.591.893.666-.069c-.838-.315-1.503-.63-1.783-.738-.537-.207-4.723-1.886-4.723-1.886l1.606-.064-.644-.235-.062-1.562.729-.083s.75-.479.792-1.604l.009-1.251c-.373.15-1.499.621-2.494 1.204-1.213.711-2.998 1.087-3.82 1.046-.823-.042-.809-.516-.809-.516-.474-.083-.334-.349-.111-.571.223-.223 1.129-1.199 1.129-1.199.098-.53-.042-1.729-.042-1.729s-.823.292-1.171.446c-.349.153-.726.237-.572.321.333.181.795.46.795.46s-.725.195-1.283.334c-.558.139-.223-.237-.223-.237s.265-.14.6-.265c.335-.125-.809-.209-.781-.39.028-.182 2.022-.865 2.998-1.255.976-.391 1.673-.823 2.161-1.255.488-.433.183-.617.349-.655.544-.125.098.836-.098 1.269-.195.433-.418.544-1.38.837-.962.292-.934.822-.934.822s-.014 1.102-.014 1.297.32.139.92-.153c.6-.293 3.458-1.366 3.848-1.534.355-.152.859-.304.947-.33l.018-2.466.042-1.229-.229-.438s.688-.396 1.938-.625 2.042-.229 2.042-.229l.042-3.688.354-.083.021.896.292-.083.062-.542.312-.083-.021.708s.249-.027.642-.088l-.121-1.392-.062-.438-.051-.226-.019-.005a.813.813 0 0 0-.394-.071c-.137.011-.281.045-.417.043-.153-.002-.313-.047-.465-.069-.128-.019-.25-.083-.38-.091-.074-.004-.149.014-.224.027l.095 2.413-.229.188-2.314-.837c.021-.375.625-.583.625-.583v-1.047a2.059 2.059 0 0 1-.651.085h-6.366l-.091.002-.021 3.282.922 2.902-.045 2.047-1.462.743-1.147-.045-.157.81-6.861 1.867-.113-.158 3.629-1.102-.283-.058-3.785 1.083v.188l.234.109-.312.094-.016.125.438.234-.516-.109v.141l.391.312-.609-.141v.141l.469.297-1-.297.016.109 1.328.672 5.594-1.453.078.094-5.812 1.938-2.359-.922-.906.297-.797-.359V31.46c-.806-.341-3.697-1.576-3.632-1.69.066-.116 2.938 1.082 3.632 1.374v-1.22l.609-1.234.266.094.391-.391.062-2.219.266-.156v-.156l-.281.062.031-.922.234-.094.047-1.047-.312.969-5.062-1.047v.281l.828.234-.172 1.703-2.141-.562-.203 3.359 1.125.516s.062.25-.203.156-1.25-.594-1.25-.594l.172-3.766 2.094-.656-.625-.078-.031-.906s1.406-.016 2.875-.297 3.531-1.234 3.531-1.234l.144-.104-.018-.021.675-.495-.045-.652-8.091.056a21.137 21.137 0 0 0-1.692 8.31c0 .906.058 1.799.168 2.676l7.573 3.866-6.352 1.016c3.045 7.975 10.766 13.641 19.811 13.641 1.503 0 2.97-.158 4.385-.456l-.042-.65-1.469.844s-.281.188-.344 0 1.281-.969 1.281-.969l-1.906.438s-.281.125-.312-.062 2.281-.781 2.281-.781.125-.156-.125-.188-4 1.094-4 1.094-.825.288-.938.062c-.094-.188 1.281-.531 1.281-.531l3-.938-5.656 1.156s-.312.062-.281-.094 5.25-1.5 5.25-1.5.031-.25-.312-.188-1.406.406-1.562.438-.5.062-.125-.188 1.188-.625.594-.781-.938.062-.906-.281-.469-.031-.719-.062-.094-.125-.188-.375-.25-.094-.469-.062-2.406.469-3.312.719-1.375.562-1.625.531-.625-.125-.25-.281 2.625-.688 3.375-.844 1.594-.25 1.219-.281-1.531.125-1.75.094-.5-.031-.094-.219 1.75-.375.969-.5-1.125.469-1.219.125 1.406-.469.75-.625-1.656-.031-2.344.094-2.469.656-3 .781-1.375.25-1.344.031.625-.062 1.375-.25 2.75-.656 3.438-.75 1.469-.25.938-.281-1.781.25-2.844.469-4.062.938-4.344.562.469-.344 1.812-.656 3.688-.688 4.719-.938 1.812-.344 1.812-.344-.469-.156-.594-.25c0 0-.969.531-2.594.719s-4.031-.156-4.625-.281-.781-.344-.219-.312.969.281 1.844.188c.733-.078 1.16-.047 1.573.058l.114-2.026c-.531.094-2.375.562-3.125.906s-.5.031-.5.031c.375-.625 3.562-1.375 3.562-1.375v-.299c-.292.047-.68.176-1.188.455 0 0-.219-.25-.5-.375s-1.281-.562-1.281-.562-.25-.312.156-.156 1.25.438 1.25.438.219-.094-.156-.312-2-1.094-2-1.094 1.781-.031 3.75.562 7.219 2.938 7.625 3.062c0 0 .375.406-.062.25 0 0-4.188-1.688-5.938-2.406 0 0 .25.531 1.406 1.094s1.875.906 1.875.906 0 .072-.137.038l-.015.582c.142.062.276.119.399.17l-.007-.538c-.101-.043-.175-.086-.167-.158.008-.079.167.031.385.104.219.073.375.073.344.177-.02.065-.112.053-.22.017l-.014.528c.127.05.232.088.307.111.052.016.129.043.227.079l-.007-.574c-.077-.056-.11-.102-.094-.13.052-.094.635.198 1.052.354.417.156.938.312.896.448-.018.058-.077.051-.189.009l-.015.548.493.204-.007-.572a1.968 1.968 0 0 0-.042-.022s-.156-.156.094-.094c0 0 3.094 1.156 3.781 1.344l.375-.219s-2.5-1.125-2.906-1.281-.594-.219-.5-.312.438.125.656.188 2.75 1.094 3.25 1.312.844.312.844.312l-.188.125-.594-.219-.281.281.469.281.781-.375 2.719 1.812s.219.219.062.312-.5-.188-.5-.188l-2.188-1.594-.438.344 2.281 1.812s.125.281-.094.188l-1.781-1.219.031 1.344s-.125.281-.25 0l-.156-.781-.188.719s-.219.312-.281 0v-1.75h-.19zM43.408 20.054l.156-.004v1.746c-.181-.011-.302-.013-.302-.013l.146-1.729zM44.45 39.45c.229-.125.396 0 .979-.25s1.188-.479 1.729-.667c.304-.105.68-.19.951-.245a24.25 24.25 0 0 1-.316.623l-1.69.542c-1.493.474-2.197.508-2.75.516.577-.21.954-.442 1.097-.519zM47.021 21.255c.035.224.06.604-.176.59-.333-.021-.229-.562-.229-.562l-.291-.083-.146 1.167-.333-.062-.021-1.083c-.31-.065-.593-.346-.702-.466l-.177-.747 1.435-.044.64 1.29zM46.656 19.956l1.211-.037.02 1.531c-.027.148-.305.062-.499-.019l-.732-1.475zM43.814 20.042l.877-.026.329 1.396-.05.663c-.236-.153-.753-.227-1.156-.261v-1.772zM43.721 19.262l-.013-3.419.787 3.339c-.123.056-.242.122-.295.1-.105-.041-.479-.02-.479-.02zM45.887 18.991c-.438.229-.938.25-1.083.146a.12.12 0 0 0-.067-.022l-1.033-4.379v-.173l2.193 4.424-.01.004zM48.658 36.429l-.042-1.188-.146.083-.125 1.292s-1.333.521-1.875.688c-.541.167-.27-.104-.27-.104s1.208-.438 1.5-.583c.292-.146-.062-.167-.062-.167s-1.062.458-1.5.542-.333-.188-.333-.188c.479-.292 2.292-.729 2.292-.729V19.912l.077-.002a21.104 21.104 0 0 1 2.059 9.123c0 2.602-.47 5.093-1.327 7.396h-.248zM48.068 19.695a.5.5 0 0 0-.347-.142c-.354 0-.396.021-.771-.292-.299-.249-.518-.418-.816-.361l-2.432-4.905-.002-.267a21.26 21.26 0 0 1 4.368 5.967zM29.033 7.834a21.122 21.122 0 0 1 14.186 5.447c-.037.044-.074.097-.105.11l-2.719 1.188a.203.203 0 0 0-.066.049c-.139.075-.151.154-.151.154l-.021 2.562-.737.266a22.28 22.28 0 0 1-1.449-.955v-.652l1.293 1.124a.125.125 0 1 0 .163-.19l-1.905-1.655c-.973-.855-1.051-1.536-1.052-1.542a.125.125 0 0 0-.249.022c.001.009.009.084.047.208l-.39.568-.337-.473c.011-.082.02-.164.023-.247a.126.126 0 0 0-.12-.13.125.125 0 0 0-.129.121c-.03.814-.516 1.561-1.232 2.226a.122.122 0 0 0-.107.097 8.633 8.633 0 0 1-.838.653.124.124 0 0 0-.129.087c-.119.08-.24.158-.363.234a.125.125 0 0 0-.05-.011.125.125 0 0 0-.124.117c-.109.066-.22.13-.332.193a.121.121 0 0 0-.076-.029.125.125 0 0 0-.125.125v.016c-1.195.652-2.458 1.15-3.336 1.461a.123.123 0 0 0-.039-.008.124.124 0 0 0-.103.058 24.93 24.93 0 0 1-.756.25l-.423-9.495-.542.083-.648 9.155a.784.784 0 0 0-.355.166c-.085.08-.09.25-.21.302-.087.037-.145-.01-.202-.061v-.929a.125.125 0 0 0-.25 0v.833a.138.138 0 0 1-.052-.017c-.082-.047-.141-.165-.194-.244a.124.124 0 0 0 .101-.082.126.126 0 0 0-.078-.159 3.291 3.291 0 0 1-.672-.321v-.051a.125.125 0 0 0-.211-.09c-.201-.146-.312-.26-.315-.263a.125.125 0 1 0-.18.173c.004.005.034.035.084.08a.13.13 0 0 0-.016.059v.96l-.033-.015c-.103-.055-.16-.071-.229-.05v-1.386a.125.125 0 0 0-.25 0v1.529a.797.797 0 0 1-.302.124V17.68a.125.125 0 0 0-.25 0v1.855a.57.57 0 0 0-.323.02v-2.386a.125.125 0 0 0-.125-.125.109.109 0 0 0-.035.007 22.616 22.616 0 0 1-.844-.64.125.125 0 0 0-.142-.009v-.618a.122.122 0 0 0 .106-.036.126.126 0 0 0-.005-.177c-1.384-1.302-1.635-2.405-1.637-2.416a.126.126 0 0 0-.148-.096.124.124 0 0 0-.096.147.895.895 0 0 0 .022.084c-.403.493-.558.368-.615.243.069-.126.135-.262.196-.406a.125.125 0 0 0-.067-.164.126.126 0 0 0-.164.067c-.313.745-.808 1.265-.813 1.271-.048.05-.046.129.003.177s.129.046.177-.003c.007-.008.072-.076.166-.192.224 1.145-.43 1.188-.43 1.188v4.168c-.068.023-.133.062-.205.028-.069-.033-.09-.137-.146-.18-.148-.113-.273.252-.392.315-.208.109-.427-.076-.628-.032 0 .073-.037.104-.089.116v-1.674a.125.125 0 0 0-.25 0v1.669l-.006-.001c-.193-.002-.325-.046-.442-.192-.064-.081-.17-.186-.265-.213a.428.428 0 0 0-.141-.008v-2.304c.134-.103.2-.163.205-.168a.125.125 0 1 0-.17-.183c-.003.002-.288.264-.94.659a.124.124 0 0 0-.042.172.124.124 0 0 0 .171.042l.097-.06v.771a.125.125 0 0 0 .25 0v-.93l.18-.121v2.179c-.122.034-.292.082-.335.188-.047.115.031.166-.09.262-.18.142-.375.025-.542-.079-.104-.065-.171-.108-.29-.09-.024.004-.046.01-.068.016V18.11v-.001c.089-.052.167-.099.23-.14l.011-.01v.253a.125.125 0 0 0 .25 0v-.896a1.64 1.64 0 0 0 .263-.175.125.125 0 0 0-.162-.19 1.836 1.836 0 0 1-.38.227.126.126 0 0 0-.062.166.124.124 0 0 0 .091.068v.358a.123.123 0 0 0-.148-.011c-.13.085-.329.199-.563.325v-.22l.062-.036a.125.125 0 0 0-.127-.215c-.606.358-1.789.78-2.469 1.009 3.64-6.439 10.547-10.788 18.471-10.788z" fill="#fff"/><path d="M38.406 39.754c-.757-.337-1.154-.658-1.36-.88l.07.033c.625.312 2.667.896 2.917 1.021.102.051.249.15.474.237-.705-.018-1.456-.123-2.101-.411zM39.278 20.39c-.011.408-.05 1.099-.182 1.143-.129.043-.17-.656-.182-1.095.121-.016.247-.017.364-.048zM38.564 19.494v-2.126c.126.083.253.164.378.243-.001.005-.003.01-.003.016v1.774a1.82 1.82 0 0 1-.375.093zM39.346 19.277a3.55 3.55 0 0 0-.156.041v-1.553l.156.095v1.417zM39.389 22.382l-.34.061.047-.473s.22.139.293.412zM40.267 20.251c.095.697-.297 1.772-.398 2.034-.091.02-.18.038-.268.055l.104-2.143c.035.005.071.015.109.023.135.03.294.039.453.031zM40.002 19.27v-1.022l.188.107v.968c-.064-.017-.126-.035-.188-.053zM39.752 18.126v1.098a1.026 1.026 0 0 0-.156.008V18.01l.16.095c-.001.007-.004.014-.004.021zM40.439 19.364v-.869l.236.129-.028.705a.576.576 0 0 1-.208.035zM40.881 19.953c.007-.015.014-.03.023-.045.05-.086.084-.073.151-.069l1.082 1.757c-.467.204-.986.371-1.491.505.112-.503.195-1.559.235-2.148zM41.876 17.406l.755-1.7-.119 3.306zM41.747 17.08l-.307-.775 1.23-1.681-.015.412zM41.331 16.031l-.49-1.237 1.852-.808-.007.193zM37.846 18.439a.125.125 0 0 0-.125.125v.971a4.03 4.03 0 0 1-.219.016v-2.934c.071.056.144.11.219.166v1.375a.125.125 0 0 0 .25 0v-1.194c.114.081.23.161.347.24 0 .006-.003.011-.003.017v2.295c-.115.005-.229.005-.344.005v-.956a.125.125 0 0 0-.125-.126zM37.112 15.97v-.728c.075.075.156.151.244.229l.401.348a.125.125 0 0 0-.037.089v.562a10.445 10.445 0 0 1-.219-.17v-.018a.125.125 0 0 0-.125-.125c-.014 0-.027.004-.04.008a8.955 8.955 0 0 1-.224-.195zM37.252 16.418v3.114l-.14-.037V16.3c.046.04.092.079.14.118zM36.608 15.435v-.792c.064.094.139.193.226.297v.76a3.375 3.375 0 0 1-.226-.265zM36.834 16.049v3.425a7.4 7.4 0 0 1-.226 0v-3.653c.069.075.146.151.226.228zM34.471 18.595a.125.125 0 0 0-.125.125v.736l-.156-.001v-2.329l-.001-.003c.088-.074.175-.15.26-.227l-.03 1.448h.417v1.116l-.24-.001v-.739a.125.125 0 0 0-.125-.125zM34.221 16.764v-.51c.229-.21.435-.43.615-.658v.573c-.186.193-.395.399-.615.595zM33.3 17.596c.035.06.112.08.171.044.155-.091.312-.2.468-.318v2.132a13.752 13.752 0 0 0-.344-.001v-.296a.125.125 0 0 0-.25 0v.306l-.094.007v-2.45c.252-.174.493-.356.719-.546v.465c0 .012.003.022.006.034-.209.172-.424.33-.632.453a.124.124 0 0 0-.044.17zM33.002 17.187v2.306l-.047.004c-.077.008-.155.009-.234.008v-2.139c.094-.059.188-.118.281-.179zM32.471 17.515V19.5c-.072-.002-.155-.002-.281-.006v-1.817c.094-.053.187-.107.281-.162zM31.533 18.439a.125.125 0 0 0-.125.125v.745l-.004-.005c-.083-.078-.119 0-.2.058-.114.081-.206.055-.312.042-.007-.15.101-.42-.042-.53-.159-.123-.404.021-.489.163a2.042 2.042 0 0 0-.174.362c-.026.075-.019.105-.091.137l-.033.01v-.4a.124.124 0 0 0 .016-.141c-.004-.008-.011-.013-.016-.02v-.292c.302-.125.617-.263.938-.412v.407a.125.125 0 0 0 .25 0v-.526c.229-.111.459-.228.688-.35v1.761a.557.557 0 0 1-.281.004v-1.014a.125.125 0 0 0-.125-.124zM29.814 19.283v.286h-.007c-.302.008-.592.063-.897.064h-.038c.306-.087.628-.2.942-.35zM28.689 19.423v-.205l.312-.111v.226a6.746 6.746 0 0 1-.312.09zM29.252 19.248v-.233c.179-.067.367-.14.562-.218v.208a5.51 5.51 0 0 1-.562.243zM27.721 19.614l-.003-.077c.159-.048.408-.126.722-.232v.166l.002.014a8.317 8.317 0 0 1-.721.129zM28.224 19.788l-.002.001c-.151.098-.252.094-.44.092h-.049v-.014c.139-.019.306-.044.491-.079zM25.982 20.536l-.064 4.113s-.562-.518-.562-1.035c0-.518-.337-1.192-.337-1.192l.018-1.768.121-.015a.133.133 0 0 0 .044.009.116.116 0 0 0 .068-.023l.712-.089zM24.398 18.913a.487.487 0 0 0-.15.168c-.023.049-.043.106-.067.159v-.44c.068.038.141.075.217.113zM23.931 18.646v.794a.578.578 0 0 1-.138.001v-.894c.042.033.088.066.138.099zM21.907 17.294v2.334c-.14.032-.278.044-.425.048v-2.694c.138.104.28.208.425.312zM20.846 17.433a.125.125 0 0 0-.125.125v1.712a.318.318 0 0 0-.186.003c-.021.007-.038.016-.055.025v-.513a.125.125 0 0 0-.25 0v.662c-.034.003-.067-.005-.116-.015-.048-.01-.092-.02-.136-.023v-3.684c.057.055.122.116.197.184-.003.011-.007.021-.007.034v2.024a.125.125 0 0 0 .25 0v-1.841a.696.696 0 0 1 .042.037c.052.045.131.04.176-.013a.124.124 0 0 0-.013-.176c-.318-.275-.53-.482-.645-.599v-.706c.208.285.469.598.801.927a.128.128 0 0 0-.018.061v1.146a.125.125 0 0 0 .25 0v-.183c.074.059.149.118.226.177-.002.008-.005.017-.005.026v2.852a.211.211 0 0 1-.111-.034c-.049-.036-.038-.061-.067-.112a.522.522 0 0 0-.083-.107v-1.863a.125.125 0 0 0-.125-.126zM13.319 18.25v1.652a.706.706 0 0 1-.22 0v-1.534l.22-.118zM12.219 18.539v-.226c.212-.098.427-.203.629-.311v.214c-.2.106-.414.215-.629.323zM12.849 18.499v1.343c-.06-.017-.119-.035-.18-.048v-1.202l.18-.093zM12.419 18.718v1.037a.195.195 0 0 0-.091.017c-.036.02-.038.062-.064.085a.197.197 0 0 1-.044.029v-1.067l.199-.101zM10.241 19.216c.043-.083.086-.166.131-.249.208-.023.407-.055.437-.065.036-.013.556-.208 1.161-.476v.238c-.471.233-1.282.445-1.729.552zM11.969 18.943v.93l-.002-.001a.757.757 0 0 0-.3 0v-.781l.302-.148zM11.153 19.341l.264-.128v.665c-.028-.011-.056-.025-.088-.041-.057-.03-.114-.082-.173-.12v-.36c0-.005-.003-.01-.003-.016zM10.04 19.611c.299-.022.718-.081.758-.1l.108-.052v.204a.594.594 0 0 0-.15.014 9.093 9.093 0 0 1-.824.151l.108-.217zM8.094 32.353l5.897 3.263-4.845.772a20.967 20.967 0 0 1-1.052-4.035zM33.439 46.376l-.488-.207.019-.699.532.187-.063.719zM34.118 49.616l-.236.058.058-.329c-.001 0 .074.222.178.271zM32.636 46.037l-.413-.175.017-.651.387.138.009.688zM31.907 45.729l-.36-.151.016-.611.335.122.009.64zM31.229 45.444a68.788 68.788 0 0 1-.463-.194l.015-.573.439.164.009.603zM30.447 45.117l-.482-.201.015-.553c.133.055.288.117.46.183l.007.571zM28.833 44.449l-.378-.154.014-.535c.137.045.255.09.357.131l.007.558zM28.135 44.167l-.305-.121.014-.512c.083.037.179.074.285.113l.006.52zM25.937 43.294l-.401-.178.016-.576c.145.066.272.124.377.17l.008.584zM25.219 42.973l-.349-.158.016-.579.325.149.008.588zM24.552 42.669l-.308-.142.016-.583.284.133.008.592zM23.927 42.381l-.36-.167.016-.59.336.161.008.596zM23.25 42.066l-.17-.08-.016-.625c.043.025.104.057.178.095l.008.61zM22.627 43.876s-.125.017-.312.012v-2.762h.188l.124 2.75zM22.032 43.865a2.06 2.06 0 0 1-.218-.04l-.056-2.895c.097.002.178.015.245.033l.029 2.902z" fill="#fff"/><path d="M44.015 44.031a1.015 1.015 0 0 0-.213-.132c-.602-.312-1.086-.43-.807-.57s.753.118 1.022.215.602.108.15-.129c-.452-.236-1.549-.936-1.549-.936s-.57.14-1.495-.054c-.925-.193-1.872-.914-1.872-.914l.011-.699-.505-.29-.02-.146c.38.103.77.189 1.156.247 1.872.275 3.951.207 5.355-.496a16.773 16.773 0 0 1 2.42-.982c-.353.649-.74 1.277-1.156 1.883-.047 0-.096.008-.126.01-.118.006-.242.007-.357.038-.081.021-.156.056-.239.072-.12.023-.243.029-.365.042-.28.03-.569.048-.842.123-.245.066-.488.141-.732.208-.335.093-.684.123-1.022.205-.294.071-.597.192-.903.188a1.288 1.288 0 0 0-.448.057c-.041.014-.295.084-.235.163.134.022.282-.005.416-.012.218-.012.439-.003.657-.027.24-.027.485-.035.722-.079.233-.043.449-.116.69-.127.202-.009.406.015.606-.01.249-.031.497-.088.745-.131.186-.032.377-.05.555-.113.094-.033.19-.045.287-.062.072-.013.157-.037.234-.041-.099.134-.199.268-.3.4a10.16 10.16 0 0 0-.862.137c-.142.03-.281.064-.42.108-.061.019-.122.034-.183.049-.034.008-.153.019-.172.053-.046.082.271.051.315.047.248-.025.492-.065.741-.082.115-.008.23-.01.345-.011a44.82 44.82 0 0 1-.203.252c-.112.004-.224.009-.336.009-.178 0-.343.053-.515.087-.158.031-.316.047-.476.069-.096.013-.205.039-.203.159.163.037.343.01.506-.025.216-.047.425-.077.646-.093.066-.004.142-.012.215-.012-.393.468-.806.92-1.238 1.352z" fill="#fff"/><path d="M15.998 15.982v1.167a.125.125 0 0 0 .25 0v-1.284c.638-.413 1.335-1.007 1.367-1.034a.125.125 0 0 0-.162-.19c-.008.007-.838.714-1.497 1.112a.125.125 0 0 0-.042.172.12.12 0 0 0 .084.057zM17.452 15.511a.125.125 0 0 0-.125.125v3.353a.125.125 0 0 0 .25 0v-3.353a.125.125 0 0 0-.125-.125z"/><path d="M16.838 15.878a.125.125 0 0 0-.125.125v.266a.125.125 0 0 0 .25 0v-.266a.126.126 0 0 0-.125-.125zM37.306 45.645c.259-.095.509-.214.772-.297.275-.086.552-.165.822-.269.261-.101.517-.218.785-.297.352-.104.822-.157 1.007-.523-.152-.04-.386.081-.532.122-.174.049-.36.097-.538.131a2.272 2.272 0 0 0-.352.09c-.104.037-.208.052-.313.083l-.647.22c-.395.105-.771.206-1.137.39-.099.05-.592.204-.423.393.12.133.427.004.556-.043zM40.955 44.136c.078-.027.122-.087.108-.171-.013-.075-.083-.065-.151-.066l-.11.014c-.039.043-.156.089-.137.158.025.096.219.09.29.065z"/><path fill="#fff" d="M19.057 19.408l-.023-1.238h-.45zM18.719 16.708h.225v.382h-.225zM21.621 20.915l-1.845.225v-.495h1.845zM26.638 20.812l-.328-.136.169.28zM26.721 21.354v-.438l-.172.156zM26.232 20.722v.459l.18-.163zM26.481 21.133l-.184.168.383.159zM27.382 20.676l-.383.126.198.145zM27.479 21.153v-.439l-.2.292zM26.909 20.91v.459l.209-.307zM27.2 21.122l-.216.316.447-.147zM26.674 18.655l-.328-.135.169.279zM26.756 19.198v-.439l-.171.156zM26.269 18.565v.459l.178-.163zM26.518 18.977l-.185.168.383.159zM27.418 18.52l-.383.125.198.145zM27.514 18.996v-.438l-.2.292zM26.944 18.752v.46l.21-.306zM27.235 18.965l-.215.316.447-.147zM26.721 17.823l-.312-.129.161.266zM26.799 18.338v-.417l-.163.149zM26.336 17.738v.436l.17-.155zM26.572 18.128l-.175.16.363.151zM27.428 17.694l-.365.12.189.137zM27.519 18.147v-.417l-.189.278zM26.978 17.916v.436l.199-.291zM27.254 18.118l-.204.299.424-.139zM26.713 17.008l-.296-.122.153.253zM26.788 17.498v-.396l-.155.141zM26.348 16.928v.413l.161-.147zM26.572 17.298l-.167.152.345.144zM27.385 16.886l-.346.114.179.13zM27.472 17.316v-.396l-.18.264zM26.958 17.096v.415l.188-.276zM27.22 17.289l-.195.284.404-.132zM26.75 16.276l-.267-.11.138.228zM26.817 16.718v-.358l-.139.128zM26.42 16.203v.374l.146-.133zM26.623 16.538l-.15.137.311.129zM27.356 16.166l-.312.102.162.118zM27.435 16.554v-.357l-.163.238zM26.971 16.355v.374l.17-.249zM27.208 16.529l-.176.257.364-.119zM26.777 15.603l-.254-.104.131.216zM26.841 16.023v-.339l-.133.121zM26.463 15.534v.355l.139-.126zM26.656 15.852l-.143.13.296.123zM27.353 15.499l-.297.097.153.112zM27.427 15.867v-.339l-.154.226zM26.986 15.679v.356l.162-.238zM27.212 15.844l-.167.243.346-.113zM26.803 14.966l-.241-.099.125.206zM26.864 15.365v-.323l-.126.116zM26.505 14.901v.337l.132-.12zM26.688 15.203l-.135.123.281.117zM27.351 14.867l-.283.092.146.107zM27.421 15.217v-.322l-.147.215zM27.002 15.038v.337l.154-.224zM27.216 15.195l-.158.231.328-.107zM26.812 14.364l-.23-.094.118.195zM26.869 14.744v-.307l-.12.109zM26.528 14.302v.321l.125-.115zM26.702 14.589l-.129.118.267.111zM27.331 14.27l-.268.088.139.101zM27.398 14.603v-.307l-.139.204zM27 14.433v.32l.146-.213zM27.204 14.582l-.151.219.312-.102zM26.837 13.798l-.218-.09.112.186zM26.892 14.159v-.292l-.114.104zM26.568 13.739v.304l.119-.108zM26.733 14.012l-.122.111.253.106zM27.331 13.708l-.255.084.132.096zM27.395 14.025v-.291l-.133.194zM27.017 13.863v.305l.138-.204zM27.209 14.004l-.143.209.297-.096zM26.833 13.293l-.196-.081.101.168zM26.883 13.619v-.263l-.103.094zM26.59 13.24v.275l.108-.098zM26.739 13.486l-.11.101.229.095zM27.278 13.212l-.229.076.119.087zM27.336 13.498v-.262l-.119.175zM26.995 13.352v.275l.126-.183zM27.169 13.479l-.129.189.268-.087zM26.851 12.772l-.197-.081.102.168zM26.9 13.097v-.263l-.102.094zM26.608 12.719v.275l.108-.098zM26.757 12.965l-.11.1.229.096zM27.296 12.691l-.229.076.119.087zM27.354 12.977v-.263l-.119.175zM27.013 12.831v.275l.126-.184zM27.188 12.958l-.129.189.267-.087zM26.87 12.309l-.169-.069.087.143zM26.912 12.587v-.225l-.088.08zM26.662 12.263v.236l.092-.084zM26.79 12.474l-.095.086.196.082zM27.252 12.24l-.197.064.102.074zM27.301 12.484v-.225l-.102.15zM27.009 12.359v.236l.107-.157zM27.158 12.468l-.111.162.23-.075zM26.881 11.873l-.152-.063.078.129zM26.919 12.124v-.204l-.079.073zM26.693 11.831v.212l.083-.075zM26.808 12.021l-.085.078.177.074zM27.226 11.81l-.178.058.092.067zM27.27 12.031v-.203l-.092.135zM27.006 11.917v.213l.097-.141zM27.141 12.016l-.1.147.207-.068zM26.908 11.453l-.137-.057.071.117zM26.943 11.68v-.184l-.072.066zM26.739 11.416v.191l.075-.068zM26.843 11.587l-.077.071.16.066zM27.22 11.396l-.16.053.082.06zM27.26 11.595v-.183l-.083.122zM27.021 11.494v.192l.088-.128zM27.144 11.583l-.091.131.187-.061zM26.908 11.04l-.137-.057.071.117zM26.943 11.266v-.183l-.072.065zM26.739 11.002v.192l.075-.069zM26.843 11.174l-.077.07.16.067zM27.22 10.983l-.16.052.082.061zM27.26 11.182v-.183l-.083.122zM27.021 11.08v.192l.088-.128zM27.144 11.169l-.091.132.187-.061zM26.917 10.654l-.124-.051.064.105zM26.948 10.859v-.166l-.064.059zM26.765 10.621v.172l.067-.061zM26.858 10.776l-.069.063.144.06zM27.198 10.603l-.144.048.074.055zM27.234 10.783v-.165l-.075.11zM27.02 10.691v.174l.079-.116zM27.129 10.771l-.081.119.169-.055zM26.936 10.313l-.124-.051.063.105zM26.967 10.518v-.166l-.065.059zM26.782 10.279v.173l.068-.061zM26.876 10.434l-.069.064.144.06zM27.216 10.262l-.144.047.074.055zM27.252 10.441v-.165l-.075.11zM27.038 10.35v.173l.078-.115zM27.147 10.43l-.081.119.168-.055zM26.936 9.971l-.124-.051.063.106zM26.967 10.176v-.166l-.065.059zM26.782 9.938v.173l.068-.062zM26.876 10.093l-.069.063.144.06zM27.216 9.92l-.144.047.074.055zM27.252 10.1v-.165l-.075.109zM27.038 10.008v.174l.078-.116zM27.147 10.088l-.081.12.168-.056zM26.638 21.601l-.328-.137.169.281zM26.721 22.145v-.439l-.172.155zM26.232 21.51v.458l.18-.162zM26.481 21.922l-.184.167.383.161zM27.382 21.465l-.383.125.198.145zM27.479 21.941v-.438l-.2.292zM26.909 21.698v.459l.209-.306zM27.2 21.911l-.216.315.447-.146zM26.638 22.391l-.328-.139.169.282zM26.721 22.935v-.439l-.172.154zM26.232 22.297v.459l.18-.161zM26.481 22.711l-.184.166.383.164zM27.382 22.253l-.383.126.198.145zM27.479 22.73v-.438l-.2.292zM26.908 22.486v.46l.21-.306zM27.2 22.7l-.216.315.447-.146zM26.638 23.181l-.328-.141.169.283zM26.721 23.726v-.439l-.172.153zM26.232 23.084v.459l.18-.16zM26.481 23.5l-.184.165.383.166zM27.382 23.042l-.383.126.198.145zM27.479 23.519v-.438l-.201.292zM26.908 23.275v.46l.21-.306zM27.2 23.489l-.216.315.447-.146zM26.638 23.971l-.328-.143.169.284zM26.721 24.516v-.439l-.172.152zM26.232 23.872v.459l.18-.16zM26.481 24.289l-.184.164.383.168zM27.382 23.832l-.383.125.198.145zM27.479 24.309v-.439l-.201.292zM26.908 24.064v.46l.21-.306zM27.199 24.278l-.215.315.447-.146zM26.638 24.76l-.328-.144.169.284zM26.721 25.306v-.439l-.172.151zM26.232 24.659v.459l.18-.158zM26.481 25.078l-.184.162.383.171zM27.382 24.621l-.383.125.198.146zM27.479 25.098v-.438l-.201.292zM26.908 24.854v.459l.21-.306zM27.199 25.067l-.215.315.447-.145zM26.638 25.55l-.328-.147.169.286zM26.721 26.097v-.439l-.172.15zM26.232 25.447v.458l.18-.156zM26.481 25.867l-.184.161.383.173zM27.382 25.411l-.383.125.198.145zM27.479 25.888v-.439l-.201.292zM26.908 25.643v.46l.21-.307zM27.199 25.857l-.216.315.448-.146zM26.617 26.411l-.376-.17.023.406.363.068zM26.971 26.512l.604-.187.062.541-.666-.104zM18.719 15.335h.248v.473h-.248zM25.896 19.362h.225v.225h-.225zM36.018 14.99l-.018.278h-.191l.035-.208zM35.971 16.116v.459l-.313-.042-.021-.396zM35.971 17.408l.02.479-.291-.104-.021-.167zM35.991 19.47h-.354l-.021-.875.25.188zM35.658 20.783v.229l.25.042.021-.209zM35.658 21.533v.229h.25l.021-.187z"/><path fill="#fff" d="M35.658 20.783v.229l.25.042.021-.209zM35.658 21.533v.229h.25l-.021-.167zM37.321 29.44l-.104-.197.24.038-.136.159zM45.674 25.307c-.022.011-.049.022-.081.036l.025-.108.056.072zM45.036 25.963l-.039-.055.06-.016-.021.071zM45.307 26.018l.094.123-.058.252-.104-.146.068-.229zM38.286 25.889c.068.025.14.049.216.074l-.133.133a92.378 92.378 0 0 1-.083-.207zM38.157 26.308l-.125.125-.125-.387.093-.133.157.395zM40.827 24.819c-.058-.003-.113-.009-.17-.013l.092-.159c.027.062.055.121.078.172zM44.678 25.608l-.199.042a42.6 42.6 0 0 1 .089-.193l.11.151zM43.901 25.073l-.083-.119.158-.026a9.056 9.056 0 0 0-.075.145zM44.241 25.012l.14.191-.154.335-.147-.211.161-.315zM43.413 25.832l-.082.012.036-.083c.015.026.031.049.046.071zM42.185 25.979c-.085.008-.168.012-.252.017l.127-.188.125.171zM40.827 26.006c-.058-.003-.113-.009-.17-.013l.092-.159c.027.063.055.122.078.172zM40.276 25.148l-.062.083-.04-.094.102.011zM42.993 25.193l.192.292-.088.206-.2-.282.096-.216zM42.712 25.149l-.026-.038.046-.005-.02.043zM43.223 25.042l.162-.022-.07.162-.092-.14zM41.945 25.183l.216-.016-.109.162-.107-.146zM41.888 25.571l-.168.249-.177-.257.155-.252.19.26zM41.373 25.315l-.077-.112.147-.001a4.686 4.686 0 0 0-.07.113zM40.755 25.188l.047.002-.025.044-.022-.046zM40.607 25.527l-.151.262a35.34 35.34 0 0 1-.115-.268l.164-.22.102.226zM40.026 25.486l-.18.242-.122-.282.182-.238.12.278zM40.152 25.777l.076.176-.189-.022a5.65 5.65 0 0 1 .113-.154zM41.043 25.322l.172.249-.164.265-.134-.294.126-.22zM41.385 25.819l.135.196c-.087.002-.175.005-.259.005l.124-.201zM42.442 25.243l.14.197-.171.383-.187-.257.218-.323zM42.767 25.701l.142.199-.244.03.102-.229zM43.625 25.158l.134.192-.146.285a36.57 36.57 0 0 1-.116-.177c.046-.111.092-.218.128-.3zM39.671 25.063l-.072.094-.05-.116.122.022zM39.407 25.407l-.149.195-.139-.343.153-.166.135.314zM39.01 25.724a8.219 8.219 0 0 1-.255-.071l.158-.17.097.241zM39.532 25.696l.07.162a6.217 6.217 0 0 1-.168-.034l.098-.128zM43.855 25.763l.082-.159.091.129c-.056.011-.113.02-.173.03zM44.513 24.917l-.057-.077.101-.02-.044.097zM44.809 24.931l.128.179a28.8 28.8 0 0 1-.082.274l-.157-.213.111-.24zM44.678 24.42l-.199.042a42.6 42.6 0 0 1 .089-.193c.038.054.076.106.11.151zM44.698 23.984l.11-.24.128.179a28.8 28.8 0 0 1-.082.274 11.59 11.59 0 0 0-.156-.213zM44.227 24.352l-.147-.211.162-.315.14.191a26.42 26.42 0 0 0-.155.335zM44.028 24.546a6.83 6.83 0 0 1-.172.029l.082-.159c.032.048.062.091.09.13zM43.612 24.448a36.57 36.57 0 0 1-.116-.177l.128-.3.134.192-.146.285zM43.413 24.645l-.082.012.036-.083c.015.025.031.049.046.071zM43.097 24.503l-.2-.282.096-.216.192.292-.088.206zM42.908 24.712l-.244.03.103-.229.141.199zM42.411 24.635l-.187-.257.218-.322.14.197a66.01 66.01 0 0 0-.171.382zM42.185 24.792c-.085.008-.168.012-.252.017l.127-.188.125.171zM40.457 24.602a35.34 35.34 0 0 1-.115-.268l.164-.22.103.226c-.056.094-.109.186-.152.262zM40.228 24.766l-.189-.022.114-.153.075.175zM39.846 24.541l-.122-.282.182-.238.12.277-.18.243zM39.603 24.67a6.217 6.217 0 0 1-.168-.034l.098-.128c.024.058.048.114.07.162zM39.258 24.415l-.139-.343.153-.166.136.313-.15.196zM39.01 24.536a8.219 8.219 0 0 1-.255-.071l.158-.17.097.241zM38.58 24.249l-.1-.25.222-.222.096.236-.218.236zM39.048 24.931l-.043.047-.026-.064.069.017zM38.798 25.201l-.218.235-.1-.25.222-.222.096.237zM45.107 25.503l.032-.109.06.083-.092.026zM45.239 25.059l.068-.229.094.123-.058.252c-.033-.046-.069-.095-.104-.146zM45.036 24.776l-.039-.055.06-.016a3.22 3.22 0 0 0-.021.071zM45.107 24.315l.032-.109.06.083c-.03.009-.06.018-.092.026zM45.239 23.872l.068-.229.094.123-.058.252-.104-.146zM45.036 23.588l-.039-.055.06-.016-.021.071zM44.513 23.73l-.057-.077.101-.02-.044.097zM43.901 23.886l-.083-.119.158-.026a6.165 6.165 0 0 0-.075.145zM43.315 23.995l-.092-.14.162-.022c-.022.048-.045.104-.07.162zM42.712 23.961l-.026-.038.046-.005-.02.043zM42.052 24.142l-.106-.146.216-.016-.11.162zM41.888 24.384l-.168.249-.177-.257.155-.252.19.26zM41.52 24.827c-.087.002-.175.005-.259.005l.124-.201.135.196zM41.051 24.648l-.134-.294.126-.22.172.249-.164.265zM40.776 24.047a.623.623 0 0 1-.021-.047l.047.002-.026.045zM40.215 24.043l-.04-.094.102.011-.062.083zM39.599 23.97l-.05-.116c.04.007.081.015.122.021l-.072.095zM39.004 23.791l-.026-.064.069.018-.043.046zM38.369 23.721l-.083-.208c.068.025.14.049.216.074l-.133.134zM38.157 23.933l-.125.125-.125-.387.093-.133.157.395zM38.269 24.21l.043.108-.11-.041.067-.067zM38.502 24.775l-.133.133-.083-.208c.068.026.14.05.216.075zM38.157 25.121l-.125.125-.125-.387.093-.133.157.395zM38.269 25.398l.043.108-.11-.041.067-.067zM39.048 26.119l-.043.047-.026-.064.069.017zM39.271 26.281l.136.313-.149.195-.139-.343.152-.165zM39.549 26.229c.04.007.081.015.122.021l-.072.094a4.53 4.53 0 0 1-.05-.115zM40.276 26.336l-.062.083-.04-.094.102.011zM40.505 26.489l.103.226-.151.262a35.34 35.34 0 0 1-.115-.268l.163-.22zM40.755 26.375l.047.002-.025.044-.022-.046zM41.442 26.39l-.07.113-.077-.112.147-.001zM41.698 26.499l.189.26-.168.249-.177-.257.156-.252zM41.945 26.371l.216-.016-.109.162-.107-.146zM42.731 26.293l-.02.043-.026-.038a.648.648 0 0 0 .046-.005zM42.993 26.381l.192.292-.088.206-.2-.282.096-.216zM43.223 26.23l.162-.022-.07.162a6.988 6.988 0 0 0-.092-.14zM43.975 26.116l-.074.145-.083-.119.157-.026zM44.241 26.2l.14.191-.154.335-.147-.211.161-.315zM44.456 26.028l.101-.02-.044.097-.057-.077zM45.674 24.12c-.022.011-.049.022-.081.036l.025-.108.056.072zM41.442 24.015l-.07.113-.077-.112.147-.001zM37.752 24.085l-.103-.05.059-.083.044.133zM37.752 25.273l-.103-.05.059-.083.044.133zM37.708 26.327l.044.133-.103-.05.059-.083zM38.201 26.653l.067-.067.043.108-.11-.041zM38.48 26.374l.222-.222.096.236-.218.235-.1-.249zM38.912 26.669l.098.242a8.219 8.219 0 0 1-.255-.071l.157-.171zM39.435 27.011l.098-.128.07.162c-.058-.01-.113-.022-.168-.034zM39.724 26.634l.182-.238.12.277-.18.242-.122-.281zM40.152 26.965l.076.176-.189-.022c.032-.046.071-.098.113-.154zM40.656 27.181l.092-.159.079.172c-.058-.003-.114-.009-.171-.013zM40.917 26.729l.126-.22.172.249-.164.265-.134-.294zM34.119 29.347l.217.074-.134.133-.083-.207zM33.991 29.766l-.125.125-.126-.387.094-.133c.047.121.102.258.157.395zM36.66 28.277c-.059-.003-.113-.009-.17-.013l.092-.159.078.172zM36.66 29.465c-.059-.003-.113-.009-.17-.013l.092-.159.078.172zM36.109 28.607l-.061.082-.04-.093.101.011zM36.588 28.646l.047.002-.026.044-.021-.046zM36.441 28.986l-.151.262a64.244 64.244 0 0 1-.115-.267l.163-.22.103.225zM35.859 28.944l-.18.243a40.339 40.339 0 0 1-.122-.282l.182-.238.12.277zM35.985 29.236l.076.176-.189-.022.113-.154zM36.876 28.78l.171.249-.163.265-.135-.294.127-.22zM35.504 28.521l-.072.094-.05-.116.122.022zM35.241 28.865l-.15.195-.139-.343.153-.165.136.313zM34.843 29.182a8.219 8.219 0 0 1-.255-.071l.158-.17.097.241zM35.366 29.154l.07.162-.168-.034.098-.128zM36.29 28.06a64.244 64.244 0 0 1-.115-.267l.163-.22.103.226-.151.261zM36.061 28.224l-.189-.022.114-.153.075.175zM35.679 27.999a40.339 40.339 0 0 1-.122-.282l.182-.238.12.277-.18.243zM35.436 28.129l-.168-.034.098-.128.07.162zM35.091 27.873l-.139-.343.153-.165.136.313-.15.195zM34.843 27.995a8.219 8.219 0 0 1-.255-.071l.158-.17.097.241zM34.413 27.707l-.1-.25.222-.222.096.236-.218.236zM34.881 28.389l-.043.047-.026-.064.069.017zM34.631 28.659l-.218.236-.1-.25.222-.222c.026.06.059.144.096.236zM36.885 28.106l-.135-.294.126-.22.171.249-.162.265zM36.609 27.505l-.021-.047.047.002a.52.52 0 0 1-.026.045zM36.048 27.501l-.04-.093.101.011-.061.082zM35.432 27.428l-.05-.116.123.022-.073.094zM34.838 27.249l-.026-.064.069.017-.043.047zM34.202 27.18l-.083-.208.217.074-.134.134zM33.991 27.391l-.125.125-.126-.387.094-.133c.047.121.102.258.157.395zM34.102 27.669l.043.108a4.317 4.317 0 0 1-.11-.042l.067-.066zM34.336 28.234l-.134.133-.083-.208c.069.025.141.05.217.075zM33.991 28.579l-.125.125-.126-.387.094-.133.157.395zM34.102 28.856l.043.108a4.317 4.317 0 0 1-.11-.042c.021-.019.043-.042.067-.066zM34.881 29.577l-.043.047-.026-.064a2.3 2.3 0 0 1 .069.017zM35.105 29.74l.136.313-.15.195-.139-.343.153-.165zM35.382 29.687l.123.022-.072.094-.051-.116zM36.109 29.794l-.061.082-.04-.093.101.011zM36.338 29.948l.103.226-.151.262a64.244 64.244 0 0 1-.115-.267c.056-.078.113-.154.163-.221zM36.588 29.833l.047.002-.026.044a2.052 2.052 0 0 1-.021-.046zM33.585 27.544l-.102-.05.059-.083.043.133zM39.999 28.544l-.173-.255.135-.268.169.25a36.79 36.79 0 0 1-.131.273zM39.784 28.717l-.171-.002.072-.144.099.146zM39.397 28.53l-.2-.312.119-.191.192.283-.111.22zM39.177 28.695a9.465 9.465 0 0 1-.265-.022l.124-.196.141.218zM38.701 28.493l-.145-.227.177-.26.138.214-.17.273zM39.65 28.029a8.752 8.752 0 0 0-.071-.104l.124-.001-.053.105zM39.032 27.963a2.046 2.046 0 0 0-.037-.058l.071.004a1.604 1.604 0 0 1-.034.054zM38.396 28.014l-.121-.188.227.033a5.008 5.008 0 0 0-.106.155zM38.227 28.261l-.1.146-.196-.357.067-.147.229.358zM38.388 28.513l.062.099a8.665 8.665 0 0 1-.116-.021l.054-.078zM37.856 28.487a1.834 1.834 0 0 1-.109-.031l.042-.092.067.123zM33.585 28.731l-.102-.05.059-.083.043.133zM33.542 29.786l.043.133-.102-.05.059-.083zM34.035 30.111l.067-.067.043.108-.11-.041zM34.313 29.833l.222-.222.096.236-.218.236c-.025-.064-.06-.153-.1-.25zM34.746 30.128l.098.242a8.219 8.219 0 0 1-.255-.071c.043-.049.098-.108.157-.171zM35.268 30.47l.098-.128.07.162-.168-.034zM35.557 30.092l.182-.238.12.277-.18.243-.122-.282zM35.985 30.423l.076.176-.189-.022.113-.154zM36.49 30.639l.092-.159.079.172c-.059-.003-.114-.008-.171-.013zM36.75 30.188l.126-.22.171.249-.163.265a62.901 62.901 0 0 0-.134-.294zM34.036 32.889c.068.025.14.049.216.074l-.133.133a92.378 92.378 0 0 1-.083-.207zM33.907 33.308l-.125.125-.125-.387.093-.133.157.395zM36.577 31.819c-.058-.003-.113-.009-.17-.013l.092-.159c.027.062.055.121.078.172zM36.577 33.006c-.058-.003-.113-.009-.17-.013l.092-.159c.027.063.055.122.078.172zM36.026 32.148l-.062.083-.04-.094.102.011zM36.505 32.188l.047.002-.025.044-.022-.046zM36.357 32.527l-.151.262a35.34 35.34 0 0 1-.115-.268l.164-.22.102.226zM35.776 32.486l-.18.242-.122-.282.182-.238.12.278zM35.902 32.777l.076.176-.189-.022a5.65 5.65 0 0 1 .113-.154zM36.793 32.322l.172.249-.164.265-.134-.294.126-.22zM35.421 32.063l-.072.094-.05-.116.122.022zM35.157 32.407l-.149.195-.139-.343.153-.166.135.314zM34.76 32.724a8.219 8.219 0 0 1-.255-.071l.158-.17.097.241zM35.282 32.696l.07.162a6.217 6.217 0 0 1-.168-.034l.098-.128zM36.207 31.602a35.34 35.34 0 0 1-.115-.268l.164-.22.103.226c-.056.094-.109.186-.152.262zM35.978 31.766l-.189-.022.114-.153.075.175zM35.596 31.541l-.122-.282.182-.238.12.277-.18.243zM35.353 31.67a6.217 6.217 0 0 1-.168-.034l.098-.128c.024.058.048.114.07.162zM35.008 31.415l-.139-.343.153-.166.136.313-.15.196zM34.76 31.536a8.219 8.219 0 0 1-.255-.071l.158-.17.097.241zM34.33 31.249l-.1-.25.222-.222.096.236-.218.236zM34.798 31.931l-.043.047-.026-.064.069.017zM34.548 32.201l-.218.235-.1-.25.222-.222.096.237zM36.801 31.648l-.134-.294.126-.22.172.249-.164.265zM36.526 31.047a.623.623 0 0 1-.021-.047l.047.002-.026.045zM35.965 31.043l-.04-.094.102.011-.062.083zM35.349 30.97l-.05-.116c.04.007.081.015.122.021l-.072.095zM34.754 30.791l-.026-.064.069.018-.043.046zM34.119 30.721l-.083-.208c.068.025.14.049.216.074l-.133.134zM33.907 30.933l-.125.125-.125-.387.093-.133.157.395zM34.019 31.21l.043.108-.11-.041.067-.067zM34.252 31.775l-.133.133-.083-.208c.068.026.14.05.216.075zM33.907 32.121l-.125.125-.125-.387.093-.133.157.395zM34.019 32.398l.043.108-.11-.041.067-.067zM34.798 33.119l-.043.047-.026-.064.069.017zM35.021 33.281l.136.313-.149.195-.139-.343.152-.165zM35.299 33.229c.04.007.081.015.122.021l-.072.094a4.53 4.53 0 0 1-.05-.115zM36.026 33.336l-.062.083-.04-.094.102.011zM36.255 33.489l.103.226-.151.262a35.34 35.34 0 0 1-.115-.268l.163-.22zM36.505 33.375l.047.002-.025.044-.022-.046zM33.502 31.085l-.103-.05.059-.083.044.133zM33.502 32.273l-.103-.05.059-.083.044.133zM33.458 33.327l.044.133-.103-.05.059-.083zM33.951 33.653l.067-.067.043.108-.11-.041zM34.23 33.374l.222-.222.096.236-.218.235-.1-.249zM34.662 33.669l.098.242a8.219 8.219 0 0 1-.255-.071l.157-.171zM35.185 34.011l.098-.128.07.162a3.833 3.833 0 0 1-.168-.034zM35.474 33.634l.182-.238.12.277-.18.242-.122-.281zM35.902 33.965l.076.176-.189-.022a5.65 5.65 0 0 1 .113-.154zM36.406 34.181l.092-.159.079.172c-.058-.003-.114-.009-.171-.013zM36.667 33.729l.126-.22.172.249-.164.265-.134-.294zM33.911 34.097l.216.074-.133.133-.083-.207zM33.782 34.516l-.125.125-.125-.387.093-.133.157.395zM34.673 34.327l-.043.047-.026-.064.069.017zM34.896 34.49l.136.313-.149.195-.139-.343.152-.165zM35.174 34.437l.122.022-.072.094-.05-.116zM35.901 34.544l-.062.082-.04-.093.102.011zM36.13 34.698l.103.226-.151.262a35.34 35.34 0 0 1-.115-.268l.163-.22zM36.38 34.583l.047.002-.025.044a.65.65 0 0 1-.022-.046zM33.333 34.536l.044.133-.103-.05.059-.083zM33.826 34.861l.067-.067.043.108-.11-.041zM34.105 34.583l.222-.222.096.236-.218.235-.1-.249zM34.537 34.878l.098.242a8.219 8.219 0 0 1-.255-.071l.157-.171zM35.06 35.22l.098-.128.07.162-.168-.034zM35.349 34.842l.182-.238.12.277-.18.242a25.498 25.498 0 0 1-.122-.281zM35.777 35.173l.076.176-.189-.022a5.65 5.65 0 0 1 .113-.154zM36.281 35.39l.092-.159.079.172-.171-.013zM36.542 34.938l.126-.22.172.249-.164.265a62.901 62.901 0 0 0-.134-.294zM41.261 27.207l.124-.201.135.196c-.087.002-.175.006-.259.005zM41.933 27.184l.127-.188.125.171c-.086.007-.168.011-.252.017zM46.294 24.32c-.062.019-.12.034-.18.052l.097-.194c.031.051.059.1.083.142zM47.702 24.959c-.087.04-.171.075-.257.113l.13-.234.127.121zM46.295 25.511c-.062.02-.12.036-.18.055l.097-.196.083.141zM47.456 24.263l.22-.095-.111.2-.109-.105zM47.398 24.668l-.172.311-.183-.188.161-.309.194.186zM46.866 24.609l-.081-.083.153-.057c-.022.045-.047.091-.072.14zM46.219 24.717l.049-.015-.027.054-.022-.039zM46.522 24.741l.18.183-.171.328-.141-.243.132-.268zM46.879 25.106l.14.143c-.09.036-.181.073-.269.105l.129-.248zM47.699 23.79c-.087.039-.171.073-.257.108l.129-.232.128.124zM47.562 23.199l-.109-.105.22-.092-.111.197zM47.396 23.496l-.172.307-.183-.19.16-.306.195.189zM47.018 24.069c-.09.034-.181.071-.269.102l.128-.246.141.144zM46.53 24.065l-.141-.243.132-.266.179.185-.17.324zM46.241 23.566l-.023-.039.049-.014-.026.053zM46.219 25.911l.05-.016a2.84 2.84 0 0 0-.027.055l-.023-.039zM46.939 25.653l-.072.141-.081-.082.153-.059zM47.205 25.661l.195.184-.173.314-.184-.186.162-.312zM47.458 25.437c.073-.032.146-.064.22-.099l-.111.202a46.806 46.806 0 0 0-.109-.103zM46.937 23.292l-.072.137a56.695 56.695 0 0 1-.08-.083l.152-.054zM46.115 26.764l.097-.198.083.141c-.062.021-.12.038-.18.057zM46.39 26.202l.133-.271.18.181-.171.332-.142-.242zM46.751 26.543l.129-.251.14.142c-.089.036-.181.075-.269.109zM47.447 26.249l.13-.237.127.121-.257.116zM47.702 27.334c-.087.04-.171.075-.257.113l.13-.234.127.121zM46.295 27.886c-.062.02-.12.036-.18.055l.097-.196.083.141zM47.456 26.638l.22-.095-.111.2-.109-.105zM47.398 27.043l-.172.311-.183-.188.161-.309.194.186zM46.866 26.984l-.081-.083.153-.057c-.022.045-.047.091-.072.14zM46.219 27.092l.049-.015-.027.054-.022-.039zM46.522 27.116l.18.183-.171.328-.141-.243.132-.268zM46.879 27.481l.14.143c-.09.036-.181.073-.269.105l.129-.248zM46.219 28.286l.05-.016a2.84 2.84 0 0 0-.027.055l-.023-.039zM46.939 28.028l-.072.141-.081-.082.153-.059zM47.205 28.036l.195.184-.173.314-.184-.186.162-.312zM47.458 27.812c.073-.032.146-.064.22-.099l-.111.202a46.806 46.806 0 0 0-.109-.103zM46.39 28.577l.133-.271.18.181-.171.332-.142-.242zM46.751 28.918l.129-.251.14.142c-.089.036-.181.075-.269.109zM47.447 28.624l.13-.237.127.121-.257.116zM42.411 27.01l-.187-.257.218-.322.14.197a66.01 66.01 0 0 0-.171.382zM42.767 26.888l.142.199-.244.03.102-.229zM43.331 27.031l.036-.083.046.071-.082.012zM43.496 26.646l.128-.3.134.192-.146.285-.116-.177zM43.937 26.792l.091.129a6.83 6.83 0 0 1-.172.029l.081-.158zM44.479 26.837a42.6 42.6 0 0 1 .089-.193l.11.151-.199.042zM44.698 26.359l.11-.24.128.179a28.8 28.8 0 0 1-.082.274 11.59 11.59 0 0 0-.156-.213zM45.139 26.581l.06.083-.092.026.032-.109zM45.674 26.495c-.022.011-.049.022-.081.036l.025-.108.056.072zM38.262 23.179s.583.312 1.208.271l-.104-.292s-.854-.167-1.104.021zM39.45 22.804l.75.25v-.5l-.167-.063zM40.658 22.512l.021.063.792-.084-.396-.125zM41.137 22.929l1.125.416-.625.042-.979-.354zM43.7 22.408l1.188-.083-.708.354c-.001 0-.46-.021-.48-.271zM45.616 22.741l.105-.146.708.334-.396.146zM41.351 27.517v.317l.318.151.408-.015-.106-.212zM41.79 28.227v.136l.287.212.075-.363zM41.396 28.514v.167s.196.182.242.197c.045.015.121-.212.121-.212l-.363-.152zM44.042 28.288l1.013-.333s.242.575.182.575-.968.181-.968.181l-.227-.423zM44.466 29.195l-.333-.061-.045.257.317.106zM44.692 28.999l-.015-.212.847.242-.227.151zM47.006 22.013h.362l-.242.258zM46.899 22.498h-.362l.242-.258zM46.283 29.564v.856l-.199.026-.051-1.258-.219.031-.625 1.062s-2 .188-2.719.125-1.344-.156-1.781.094-.062.562 1.156.812 2.594-.344 3.094-.469.312.375.312.375-.594.688-2.219.938-2.469-.344-2.469-.344v.969c.562.531 3.531-.031 4.094-.125s.688.25.688.25.031.188-1.469.625-2.469.219-2.469.219l-.312.594c1.438.688 3.406-.125 3.75-.25s.375.375.375.375-1.094.688-2.812.844-2.906-.375-2.906-.375v.5c1.688.781 4.625.188 5.344.031s.375.25.375.25-.562.594-2.594.906-3.156-.281-3.156-.281l-.031.344s2.781.719 4.688.438c.993-.146 1.812-.812 1.812-.812V33.31l.344-.021v3.025l1.277-.417.004-6.958c-.313 1.437-1.282.625-1.282.625z"/><path d="M45.939 32.59v-1.87l.344.025v1.788z"/><path d="M40.752 30.033s.844.219 2.062.156 1.75-.156 1.75-.156-.812-.438-1.875-.375-1.937.375-1.937.375zM41.033 29.408l-.562.437v-.5l.562-.156zM40.002 29.564v.469l-.469-.25.031-.282zM40.064 30.345v.531l-.25.25-.156-.843zM40.002 31.345l-.563.313.032 1.031zM39.908 33.064l-.469.312-.031.782.625-.75zM45.033 37.689s-1.5-.188-2.719-.312-2.562-.25-2.969-.594l-.031.375s-1 .25-1.969-.656l-2.625-.281s2.219 1.312 5.406 1.875 4.907-.407 4.907-.407z" fill="#fff"/><path d="M38.408 29.408v7.125s-.875.125-.969-.438l-.344-.031.125-5.625s.469.281.844.719l.219-.188v-.344l-.75-.656s.469-.531.875-.562z" fill="#fff"/><path d="M37.346 31.751v.5s.188.438.875.531v-.688l-.875-.343zM37.252 33.408v.468l.969.719-.032-1zM37.283 35.064l-.062.25.937.031z"/><path d="M38.752 29.408v7.125s.156.156.281.094l.031-7.219h-.312z" fill="#fff"/><path d="M26.274 11.728c-.222-.265-1.273-.221-1.583-.275-.94-.163-1.837-.136-2.785-.107-.752.022-1.474-.029-2.225.068.09.336.561.156.786.158 0 0 4.045.108 4.287.136.129.015.926-.014.974.137-.142.032-.629.12-.762.178-.2.087-.461.125-.687.136-.56.029-1.145.022-1.706-.002-.886-.038-1.761-.25-2.649-.273-.529-.014-1.121-.063-1.633.085.865.636 2.107.658 3.138.685a22.97 22.97 0 0 0 2.148-.048c.612-.042 1.261-.088 1.842-.301.184-.068 1.066-.325.855-.577zM23.352 9.975s1.559.117.701.39-2.649.506-2.728.234c-.078-.273.624-.195 1.247-.234.623-.04 1.325-.001.78-.39zM25.729 9.702s-2.182-.039-2.182-.194c-.001-.157 1.792-.04 2.182.194zM25.962 8.883s-1.052.234-.935-.078c.117-.311.857-.116.935.078zM27.2 8.901v-.868l-.75.667s.458.417.5.917l.25-.042v-.509c.129.041.339.085.672.129 1.169.156.428.312 0 .39-.429.078.624.195 1.169-.117.465-.266-1.311-.504-1.841-.567zM24.832 14.456c-.446-.198 1.062-.685.873-.345-.078.141-1.281.172.078.375.385.057-.249.281-.951-.03zM28.783 14.267s-.875-.219-.875-.047.641.25.875.047zM31.361 14.423c-.013-.094-.469-.078-1.094-.172s-1.109-.219-1.109-.031.594.344 1.141.344 1.094.094 1.062-.141zM31.096 14.986c-.329-.025-1.047.156-.25.219s.453-.204.25-.219zM29.018 14.923c0-.234.547-.125.453.047s-.453-.047-.453-.047zM32.064 15.126c-.153.179 1.297.37 1.297.078 0-.171-1.203-.187-1.297-.078zM33.189 14.595c-.697.1-1.484-.219-.859-.266s1.672 0 1.672.156-.703.095-.813.11zM31.314 11.923c-.089-.177-.531-.078-.953-.109s-1.25-.031-1.219.297.5.641.828.547.297-.141.297-.141.547.281 1.188.312.578-.141 1.375.062 2.672.562 4.156.609 2.766.109 2.906-.016-2.359-.75-3.641-.812-2.031-.25-3.953-.25-2.906-.062-2.766-.266 1.986.174 1.782-.233zM34.721 12.126c0-.174 1.281-.156 1.281-.016s-1.281.36-1.281.016zM39.783 12.376c-.021-.233 1.266-.047 1.406.109s-1.39.063-1.406-.109zM41.908 13.642c-.078-.234-.484-.219-.438.031s.438-.031.438-.031zM41.064 13.58c-.109-.25-.562-.266-.547-.047s.547.047.547.047zM38.455 14.642c.036-.164-.844-.266-.828-.016s.797.157.828.016zM47.435 30.987v-.637l-.813.237v.645zM46.622 32.226v.666l.813-.246v-.666zM47.435 34.137v-.633l-.813.246v.632zM46.622 35.155v.608l.813-.237v-.616z"/><path fill="#fff" d="M21.096 30.798l-.922.266-.188-.125.532-.219z"/><path d="M15.159 27.765l-3.29-1.229-.454.339 3.385 1.249.34-.019zM14.214 28.351l-2.497-.946-.34.057v.208l2.458 1.097.397-.227zM10.999 26.97l-.605-.7-.454.567.435.889.359-.436-.378-.359s0-.227.095-.17.246.303.246.303l.075.151.227-.245z"/><path d="M20.596 27.11l.708.118v-.959l-.708.09v.751zM20.596 25.981l.708-.09v-.206c-.021.001-.041.003-.062.003a.822.822 0 0 1-.646-.331v.624z" fill="#fff"/><ellipse cx="21.241" cy="24.7" rx=".555" ry=".677" fill="#fff"/><path fill="#fff" d="M20.221 26.416l-.625.11v.82l.625-.18zM21.384 27.99l-.705-.144v2.242l.668.137.037-2.235zM22.216 26.153l-.537.068v1.069l.614.103c-.026-.445-.052-.873-.077-1.24zM21.679 25.843l.51-.065a18.63 18.63 0 0 0-.05-.557 5.824 5.824 0 0 0-.047-.322.994.994 0 0 1-.413.654v.29z"/><path d="M17.134 21.983a2.415 2.415 0 0 0-.382.784c-.188.641-.172 3.156-.172 3.156s-.109 2.188-.188 2.688-.438 1.484-.438 1.484l.328.016s.219 1.281.109 1.422l-.141-.016s-.359-.609-.375-.297-.016 1.281-.016 1.281l-.391.188s.078-1.078-.078-.906-.078 1.453-.078 1.453l.203.016 2.543-2.208c.016-.958.055-3.143.118-4.809.087-2.312 1.323-3.963 2.422-4.055 1.129-.094 1.771 1.79 1.91 2.999.114.986.292 4.764.328 5.543l2.809-.853-.472-1.035.045-1.058.225-.022.022-.27-.27-.203-.022-.517.18-.023v-.787l-.337-.067.09-1.642-.562-.09.063-3.666-.018-.855-1.351.409a.12.12 0 0 1-.084.033l-.016-.003-.777.235-.135.833s-1.237.562-1.867.54-2.407-.27-3.217.315l-.008-.013z" fill="#fff"/><path d="M20.632 22.553a.445.445 0 0 0-.036.005v1.483a.823.823 0 0 1 .646-.332c.248 0 .472.12.63.311-.268-.806-.7-1.512-1.24-1.467zM22.137 30.386v-2.242l-.379-.077-.037 2.234.416.085z" fill="#fff"/><ellipse cx="19.45" cy="24.991" rx=".555" ry=".677" fill="#fff"/><path d="M20.221 30.149V27.92l-.542.185v2.229l.542-.185zM20.221 25.443a.89.89 0 0 1-.625.522v.179l.625-.11v-.591zM20.221 22.679c-.438.226-.873.739-1.189 1.446a.775.775 0 0 1 .418-.124c.335 0 .626.219.771.538v-1.86zM19.435 27.783l-.937.271c-.029 1.105-.048 2.183-.06 2.84l.199-.059v-2.769l.826-.283h-.028zM18.508 27.66l.712-.205v-.862l-.684.121-.028.946z" fill="#fff"/><path d="M19.304 30.462v-2.229l-.292.1v2.229l.292-.1zM19.221 25.945a.92.92 0 0 1-.571-.57c-.05.278-.084.569-.096.874l-.003.081.67-.118v-.267z" fill="#fff"/><path d="M16.918 29.504l-.549.303.02.189.188-.094.02.642.17-.094v-.624l.151-.114z"/><path fill="#fff" d="M39.7 17.718l.539.318-.083-.484z"/><path d="M28.093 22.345c0-.146.711-.042 1.408.125s1.66.585 1.492.655-.376 0-.376 0 .125.279.362.292c.237.014.572.042.572.042s-.167-.293.111-.209c.279.083.836.307 1.408.404s1.743.321 1.687.474-1.004-.028-1.436-.098-1.576-.181-1.645-.293c0 0 .544.446 1.004.474s1.297.376 1.004.432c-.293.056-1.241-.125-1.604-.292-.362-.167-.823-.223-.711-.572 0 0-.321-.167-.655-.153-.335.014-.391-.334-.655-.585-.265-.251-.907-.321-1.381-.446-.473-.124-.585-.11-.585-.25zM30.673 22.331c.279.01.223.321-.014.223s-.377-.237.014-.223zM29.376 21.997c.321 0 .251.181-.042.153-.292-.028-.237-.153.042-.153zM33.615 23.028c-.171-.128-.334.014-.167.125.167.112.279-.041.167-.125z"/><path d="M30.045 23.642c-.013-.199-.265-.599-.474-.404-.209.195.014.488.181.46.168-.029.308.167.293-.056zM29.836 24.06c-.706-.188-1.784-.279-1.171-.042.613.237 1.729.655 1.757.418s-.377-.32-.586-.376zM31.314 24.422c-.301-.103-.809-.042-.544.112s1.2.112.544-.112zM33.698 25.147c-.502-.153-1.157-.139-.655.056s1.395.376 1.395.223-.74-.279-.74-.279zM34.591 24.688c-.45-.1-.628.125-.209.223s.46-.168.209-.223zM32.764 27.42c-.209.014-.349.278-.042.209.307-.069.252-.223.042-.209zM31.468 27.406c-.223.042-.321.404 0 .307.32-.097.222-.349 0-.307zM30.422 27.88c-.204.056-.098.265.125.181s.028-.223-.125-.181zM32.36 28.159c-.263.116-.404-.112-.167-.195.237-.084.515.042.167.195zM31.342 28.201c-.323.103-.418.391-.014.265s.279-.349.014-.265zM30.938 28.829c-.271.034-.278.362-.014.251.264-.112.237-.28.014-.251z"/><path d="M28.846 32.705c.912-.721 3.109-1.604 3.611-1.617.502-.014.725.014.711.376-.014.363-1.032.851-1.91 1.367-.878.516-2.928 1.576-3.862 1.562-.935-.014-1.548-.251-.809-.627.74-.378 1.66-.588 2.259-1.061z" fill="#fff"/><path d="M29.641 32.83c-.209.019-.265.25-.028.209.237-.041.181-.223.028-.209zM19.29 32.184s.219.109.269.08 3.272-1.067 3.242-1.067c-.03-.001-3.511.987-3.511.987zM23.12 31.386l-3.81 1.077-.02.209 3.96-1.147zM19.13 32.842l4.03-1.107.219.16-4.269 1.236zM19.479 33.211l3.88-1.167.339.1-4.229 1.247zM10.366 36.658l6.708-.917s.25.167 0 .167l-6.458 1.042s0 .083.25.042c.25-.042 6.292-.917 6.292-.917l.042 7s.083.417.25.375c.167-.042.083-.375.083-.375l.042-7.292s-.083-.208-.833-.542L9.7 31.866s-.292-.208-.25-.042c.042.167 7.417 3.792 7.417 3.792l-6.333.917c-.001 0-.251 0-.168.125z"/><path d="M12.702 38.113l-.043 2.25a.124.124 0 0 0 .122.127.126.126 0 0 0 .128-.123l.039-2.041 3.044-.481v5.687a.125.125 0 0 0 .25 0v-5.979l-3.54.56z"/><path d="M13.012 38.635v2.21a.125.125 0 0 0 .25 0v-.115l1.104-.165-.089.687-.387.157a.125.125 0 0 0 .035.247l.441-.062-.146.596-.287.136a.125.125 0 1 0 .033.248l.4-.053v.848l-.308.041a.125.125 0 0 0 .033.247l.938-.125a.123.123 0 0 0 .107-.14.124.124 0 0 0-.14-.107l-.379.05v-.847l.938-.124v.253a.125.125 0 0 0 .25 0v-4.439l-2.793.457z"/><path d="M15.272 38.987l-.656.162v-.524l.938-.154c0 .056.004.31-.282.516zM15.375 40.04l-.759.235v-.873l.938-.141c0 .259-.007.515-.179.779zM14.366 38.667v.521l-1.104.166v-.505c.09-.016.591-.099 1.104-.182zM13.262 40.478v-.873l1.104-.165-.215.771-.889.267zM14.616 40.527l.938-.141v.788l-.938.132v-.779zM14.616 42.235v-.676l.938-.132v.684l-.938.124z" fill="#fff"/><path d="M10.107 29.938c.088.052.182.123.283.144.125.025.163-.054.114-.157l-.113-.093a.9.9 0 0 0-.278-.171c-.045-.015-.098-.039-.146-.02-.055.023-.073.083-.054.137.03.08.126.121.194.16zM9.167 29.964c.139.106.291.143.456.079.021-.008.096-.022.102-.046.005-.022-.044-.055-.056-.072l-.134-.125c-.074-.049-.174-.066-.258-.091-.041-.012-.106-.05-.148-.048-.045.002-.076.054-.083.095-.015.085.06.162.121.208zM10.216 30.951c.004-.066-.048-.114-.103-.139l-.124-.041c-.15-.094-.3-.2-.463-.271-.093-.041-.193-.067-.289-.102-.059-.021-.165-.061-.181.033-.018.114.126.189.21.224.137.058.271.11.403.18.124.065.25.126.386.162.061.017.156.042.161-.046zM12.041 31.625c-.025-.028-.049-.035-.083-.048-.041-.017-.086-.055-.132-.052l-.145-.083c-.194-.012-.344-.175-.538-.192-.042-.004-.134-.017-.16.028-.038.063.062.133.103.16.094.061.2.095.301.143.056.026.11.054.169.076.182.065.364.132.558.146.01-.062-.033-.135-.073-.178zM9.192 30.284c.007-.03.023-.07.013-.102-.008-.022-.047-.057-.062-.072l-.042-.01c-.105-.039-.213-.067-.318-.103-.024.101-.023.177.088.209.065.019.134.019.201.041.033.011.085.04.12.037zM10.66 31.462l-.124-.041a.676.676 0 0 1-.233-.094c-.038-.026-.07-.058-.11-.081a.129.129 0 0 0-.103-.017c-.053.011-.045.025-.054.073-.015.083.02.113.083.17.071.063.131.119.222.15a.98.98 0 0 0 .288.06c.053.002.112.019.164.005.042-.093-.072-.182-.133-.225zM12.095 32.092l-.145-.083c-.071-.017-.203-.017-.189.092.02.158.207.25.34.292.083.025.219.045.213-.081-.005-.094-.128-.204-.219-.22zM11.224 30.563c.065.025.125.025.193.032.034.003.065.021.098.003.067-.037.038-.113.023-.168l-.093-.052c-.063-.046-.145-.05-.215-.078-.036-.014-.076-.064-.105-.031-.027.03-.015.155-.005.192.012.052.056.083.104.102zM11.678 31.05a.658.658 0 0 0 .3.076c.047-.003.072-.032.101-.068.049-.064.026-.199-.066-.215l-.072-.021c-.089-.029-.229-.088-.321-.035-.142.081-.045.211.058.263zM12.406 30.721c-.021.08.082.137.123.184l.114.083c.029.044.136.024.17-.006.04-.034.023-.079-.002-.123-.082-.138-.256-.171-.405-.138zM12.458 31.491c-.038-.033-.093-.044-.125-.08l-.062-.062a.323.323 0 0 0-.146-.034c-.034 0-.016-.015-.044.013a.173.173 0 0 0-.033.056c-.032.108.049.21.139.255.061.03.316.107.344-.005.014-.058-.035-.11-.073-.143zM13.114 31.678a.661.661 0 0 0 .312.03.235.235 0 0 0-.035-.148c-.034-.055-.127-.139-.191-.149l-.134-.082c-.141-.042-.203.037-.184.17.014.1.147.147.232.179zM13.908 31.544c.076.042.161.152.265.124.059-.016.054-.07.031-.113-.056-.099-.163-.15-.261-.196l-.113-.052c-.067-.07-.426-.111-.367.05.062.169.312.114.445.187zM14.222 31.958l-.072-.124a.36.36 0 0 0-.155-.042c-.027-.001-.09-.012-.114.001-.117.061.06.195.108.22a.714.714 0 0 0 .211.068c.023.003.025.015.043-.004.031-.033-.001-.091-.021-.119zM13.902 32.206l-.031-.041c-.097-.044-.19-.108-.294-.134-.069-.018-.116-.042-.181-.072-.03-.015-.104-.047-.14-.031-.032.014-.059.116-.062.149-.011.128.287.156.371.17.043.007.104.005.14.033.023.019.031.042.062.057l.214.059c.028-.008.037-.048.046-.073a.477.477 0 0 0-.125-.117zM13.313 32.567a1.425 1.425 0 0 0-.331-.05c-.06-.003-.056-.013-.069.041-.016.063-.021.079.033.128a.543.543 0 0 0 .251.131c.047.01.123.034.171.013.068-.03.028-.095-.003-.138l-.052-.125zM13.038 32.246c-.008.058.039.106.087.135.06.035.147.03.186-.036.012-.021.027-.073.002-.087l-.207-.093c-.049-.01-.063.037-.068.081zM16.668 33.786c-.105-.043-.216-.1-.332-.111-.061-.005-.118-.015-.113.065.008.127.202.223.304.249.044.011.141.034.18.006.045-.033-.003-.075-.019-.116l-.02-.093zM15.904 33.816c-.154-.083-.261.157-.111.236.06.031.189.064.236.009.035-.042.021-.101-.021-.131l-.104-.114zM17.205 34.384l-.01-.062a.627.627 0 0 0-.285-.101c-.056-.005-.104.01-.158.009-.029.096.032.222.111.272.134.084.295.104.45.118.045.004.119.011.121-.051.003-.101-.142-.187-.229-.185zM18.455 34.952l-.166-.114a.69.69 0 0 0-.246-.146c-.063-.02-.063-.007-.071.055-.012.091-.031.19.04.262a.573.573 0 0 0 .296.136c.064.01.251.054.287-.033.015-.038-.014-.069-.039-.098-.032-.035-.068-.027-.101-.062zM17.773 34.229l-.104-.062a1.645 1.645 0 0 0-.377-.128c-.044-.007-.104-.019-.147 0-.204.086.149.256.213.287.072.034.141.074.213.109a.345.345 0 0 0 .247.019c.047-.011.065-.003.077-.046.02-.074-.082-.12-.122-.179zM18.898 34.766c-.045 0-.121-.018-.153.021-.022.027-.028.101-.022.134.024.148.225.162.34.132.005-.045.012-.126-.02-.163l-.145-.124zM19.477 35.365l-.145-.083c-.029 0-.056-.002-.083.003.009.107-.019.196.092.263.07.042.172.076.254.059.051-.01.068-.042.051-.095-.027-.083-.093-.116-.169-.147zM20.354 35.329c-.018-.008-.03-.001-.042-.016l-.145-.052c-.084-.057-.162.019-.166.103-.004.081.08.115.145.145.067.032.201.086.278.06.011-.068.016-.116-.019-.182-.01-.022-.026-.047-.051-.058zM21.066 35.995l-.186-.093c-.078-.009-.083.109-.059.164.054.122.232.148.348.125.012-.042.019-.1-.005-.14-.02-.036-.063-.035-.098-.056zM25.459 35.514c.084-.075-.143-.177-.199-.188l-.234-.102c-.114-.033-.216-.083-.325-.13-.079-.034-.139-.034-.223-.042-.023-.002-.081-.03-.102-.023-.021.007-.038.055-.047.074-.059.113.003.188.104.25.133.082.31.126.459.167.125.033.255.063.384.046.048-.007.143-.016.183-.052zM25.758 35.916l-.112-.041c-.092-.024-.182-.046-.272-.078-.037-.013-.092-.039-.133-.022-.052.021-.05.092-.041.144.018.094.104.133.186.162.108.038.23.074.344.093.038.007.141.028.167-.011.014-.021.008-.099-.001-.122a.284.284 0 0 0-.138-.125zM23.562 36.271l-.102-.061c-.031-.029-.065-.032-.105-.03-.052.002-.056.018-.057.071-.004.166.231.202.354.192.012-.051-.017-.065-.043-.104-.016-.022-.021-.057-.047-.068zM26.398 36.718c-.009-.062-.076-.071-.091-.122l-.122-.041c-.073-.002-.166.036-.153.127.014.095.18.102.254.108.062.007.124.011.112-.072zM27.207 36.715c.031-.001.125.002.142-.032.018-.036-.027-.102-.053-.121a.804.804 0 0 0-.352-.161c-.084-.016-.248-.044-.278.071-.034.126.249.17.322.206l.041.03a.814.814 0 0 0 .178.007zM26.928 37.197l-.112-.102c-.047.002-.109-.045-.153-.062a1.067 1.067 0 0 0-.096-.03c-.07-.02-.133-.038-.207-.029-.015.071-.029.104-.002.174.053.14.201.196.34.228.057.013.321.072.328-.013.002-.042-.054-.146-.098-.166zM27.752 37.241c-.006-.061-.033-.217-.123-.207l-.213-.082a1.112 1.112 0 0 0-.208-.032c-.046-.003-.062.007-.08.053-.051.133.06.226.17.265.107.037.217.051.33.057.065.003.132.024.124-.054zM28.227 37.244c.163.098.367.091.547.128.114.024.237.061.342.11.036.017.107.043.124-.016.016-.056-.065-.132-.102-.158-.097-.068-.209-.103-.318-.142l-.204-.092a.499.499 0 0 1-.163-.104.363.363 0 0 0-.123-.089c-.048-.018-.18-.027-.213.016-.028.036-.021.131-.016.172a.243.243 0 0 0 .126.175zM26.855 36.206c.091.024.186.032.276.061.084.026.162.072.243.107l.132-.082c.044-.127-.165-.175-.245-.204-.088-.032-.163-.099-.25-.126-.093-.029-.225-.002-.314.028-.05.017-.136.057-.085.116.05.056.174.081.243.1zM27.269 35.985c.046.004.279.035.198-.08l-.173-.091c-.099-.003-.192-.051-.293-.04-.063.156.157.201.268.211zM27.913 36.18c.031-.001.105.004.103-.04-.001-.028-.059-.065-.077-.082-.038-.035-.054-.056-.106-.071l-.183-.01c-.032.012-.04.066-.032.096.025.094.219.11.295.107zM27.995 37.848l-.091-.021c-.058-.028-.121-.045-.181-.068-.046-.016-.089-.046-.127-.008-.112.112-.016.215.095.268.104.049.216.064.328.079.042.005.131.032.167-.004s0-.102-.024-.135a.32.32 0 0 0-.167-.111zM28.706 37.919c.024-.104-.085-.125-.141-.194l-.234-.061c-.07 0-.153-.014-.17.07-.024.119.16.191.249.209.078.017.153.011.231.019.048.005.053.006.065-.043zM29.206 37.766l-.224-.102c-.05-.008-.128-.033-.159.019-.027.047-.023.121.012.16.117.128.338.144.5.125a.188.188 0 0 0-.019-.13c-.018-.03-.073-.077-.11-.072zM29.063 38.244l-.092-.03c-.064-.009-.211-.113-.266-.073-.038.028-.044.139-.018.174.057.074.206.086.289.096.083.009.122-.014.197-.047.002-.052-.065-.106-.11-.12zM30.192 37.715l-.203-.112c-.066.002-.107-.005-.114.074-.008.096.06.171.148.211.165.075.351.113.523.059.059-.155-.266-.187-.354-.232zM30.213 37.53c.037.01.148.051.178.012.019-.022.003-.105-.005-.127-.034-.09-.161-.161-.255-.157l-.213-.082c-.057-.007-.098-.029-.129.021-.034.055-.04.098-.004.151.044.066.069.101.149.12.093.024.187.036.279.062zM29.886 36.923c.026.128.253.169.357.188.074.013.127.005.151-.075.027-.088-.027-.125-.101-.165l-.193-.102c-.094-.007-.24.023-.214.154zM29.999 35.694c.024-.021.078-.079.062-.116-.021-.051-.108-.023-.143-.008l-.153-.082c-.105.003-.28-.211-.363-.096-.125.171.061.265.208.316.12.043.28.081.389-.014zM31.572 37.979c.073.01.148.021.222.021.024 0 .086.011.107-.002.032-.02.023-.078.005-.103-.033-.045-.108-.067-.159-.079l-.163-.02c-.052-.018-.224-.115-.26-.045-.07.14.157.215.248.228zM32.23 38.626c.088.039.18.031.269-.003.039-.015.054-.019.05-.06-.005-.043-.062-.112-.09-.142-.052-.053-.19-.103-.264-.076l-.274-.102c-.075-.02-.153-.024-.229-.04-.067-.014-.106-.024-.143.044-.121.23.306.238.426.265.094.022.169.076.255.114zM32.226 38.924c.017-.082-.077-.16-.137-.202a.326.326 0 0 0-.208-.051l-.122-.041c-.049-.004-.122-.032-.152.012-.04.059.009.133.052.17.096.083.228.053.345.077.072.016.144.047.222.035zM31.188 38.732l-.091-.041c-.046 0-.095-.004-.141.001-.026.102.056.174.145.206.063.022.161.05.222.01.127-.083-.07-.153-.135-.176zM32.48 39.221l-.122-.061c-.072-.004-.143-.021-.212-.03-.008.046-.011.11.018.149.052.073.181.066.26.088.098.027.193.102.299.086.024-.113-.136-.247-.243-.232zM33.497 39.221l-.193-.051c-.088 0-.173-.019-.191.081-.028.163.207.146.311.179.071.022.164.072.203-.025.035-.088-.059-.156-.13-.184zM33.711 38.875l-.193-.031c-.064-.021-.158-.055-.177.039-.013.067.094.103.146.129.104.051.215.075.32.125.089.042.264.146.262-.022-.002-.161-.22-.241-.358-.24zM33.553 38.63c.047.005.082.033.123.055.098.053.186.111.298.127.057-.093-.16-.214-.221-.248a.336.336 0 0 0-.168-.056c-.047 0-.101.011-.127-.031l-.122-.091c-.082-.009-.184-.026-.265-.011-.04.008-.05.022-.035.068.039.117.223.16.332.178.061.011.122.003.185.009zM20.948 37.888l-.092-.03c-.082-.001-.171-.034-.202.067-.042.137.096.26.227.261.088.001.205-.043.219-.138.015-.097-.059-.144-.152-.16zM18.752 39.048l.828-.266s.281.156-.156.25-.672.016-.672.016zM19.83 38.72l.906-.297s.375.109-.016.25-.718.235-.89.047zM20.939 38.361l.719-.266 1.438.406s-1.61.094-2.157-.14zM21.908 38.001l.641-.266 1.188.203c-.001.001-1.157.329-1.829.063zM24.002 37.986l.797.109s-.109.469-.453.297-.344-.406-.344-.406zM25.189 38.158l.984.109s-.266.125-.453.125c0 0-.297.281-.484.172s0-.234 0-.234l-.047-.172z"/><path fill="#fff" d="M22.189 40.845h.5l-.031-.219-.406.032z"/><path d="M23.744 46.005c-.119-.135-.3-.071-.456-.039-.151.031-.293.09-.439.137a2.492 2.492 0 0 1-.542.101c-.121.011-.319.009-.413.103-.078.077.032.104.099.104.235.002.486-.11.707-.181.275-.088.555-.14.838-.197l.206-.028zM24.165 46.465c.136-.02.27-.071.402-.105.092-.023.232-.049.295-.129.032-.042.038-.092.001-.133-.053-.058-.133-.03-.197-.01l-.179.014c-.189-.003-.407.017-.572.123-.045.028-.118.128-.102.187.027.099.282.063.352.053zM23.358 46.588c.05-.034.366-.178.335-.245-.025-.055-.268-.047-.32-.037-.089.016-.161.108-.221.167h-.042c-.09.005-.31.041-.354.147-.051.125.27.099.33.088a.666.666 0 0 0 .272-.12zM21.211 47.396l-.138.014c-.089.001-.372.021-.352.176.008.063.106.096.158.102.128.013.259-.05.38-.081.081-.021.165-.041.226-.102.019-.018.066-.074.056-.103-.033-.087-.272-.06-.33-.006zM20.982 46.832c.142.018.301-.064.41-.155.032-.027.122-.141.025-.148l-.22-.083c-.099-.004-.269-.013-.355.047a.188.188 0 0 0-.072.173c.011.11.113.153.212.166zM24.059 47.36c.031.06.151.073.208.08.115.014.232.005.346-.011.316-.045.625-.144.931-.23a17.534 17.534 0 0 1 2.042-.437l.138.014c.067-.032.292-.132.114-.178-.17-.044-.369-.006-.538.023-.568.099-1.129.236-1.695.344-.367.07-.738.111-1.105.179-.069.012-.516.073-.441.216zM26.624 47.483c-.221-.089-.485.079-.7.124-.193.04-.379.095-.57.146l-.619.221c-.323.135-.642.279-.974.391-.213.072-.499.125-.671.282-.038.034-.084.09-.077.146.016.114.202.108.283.104.383-.021.73-.242 1.096-.34.352-.095.727-.144 1.054-.313.224-.116.458-.207.685-.314.132-.062.259-.093.398-.131.133-.037.283-.241.095-.316zM28.859 47.106c-.032-.062-.187-.051-.239-.053-.1-.004-.212-.019-.31.007-.133.036-.254.108-.382.156l-.358.069c-.162.049-.338.094-.49.17-.036.019-.098.045-.118.082a.259.259 0 0 0-.016.098c.03.063.229.011.28 0 .119-.028.218-.098.336-.127.214-.053.439-.066.649-.139.14-.048.259-.11.406-.137.053-.009.278-.058.242-.126zM24.887 48.841l-.234.041c-.072.05-.222.048-.267.132-.057.104.131.1.191.102.155.005.274-.047.406-.121.08-.045.213-.096.247-.193-.067-.081-.279-.035-.343.039zM28.053 48.072a.948.948 0 0 0-.371.024c-.163.042-.314.148-.482.167l-.206.027c-.095-.007-.716.025-.565.233.05.069.193.089.269.101.131.02.277.021.402-.029.076-.031.145-.075.223-.102.106-.036.216-.062.326-.083.148-.028.354-.024.475-.128.039-.034.093-.104.062-.159-.025-.04-.093-.045-.133-.051zM24.433 40.522h-.064c-.076.002-.181.009-.192.106-.018.149.276.109.355.108.035-.001.103.009.126-.027.02-.032-.002-.105-.015-.137-.033-.072-.147-.114-.21-.05zM25.325 40.328c.007-.014-.011.043-.097.054l-.086.032c-.1.001-.263-.05-.291.079-.051.233.248.21.378.174.106-.029.255-.06.283-.185.006-.026.018-.092-.001-.108-.047-.042-.139-.072-.186-.046zM26.583 40.059l-.151.054c-.068.03-.129.074-.203.089-.051.011-.106-.008-.099.061.015.143.218.094.302.064.098-.034.261-.04.279-.165.014-.082-.054-.112-.128-.103zM24.368 38.758l-.183-.021c-.133-.015-.256-.064-.385-.093-.078-.018-.138.035-.08.11.083.106.251.096.371.102.125.006.246.028.371.019.012-.074-.016-.113-.094-.117z"/><path d="M30.969 40.378s-.615-.319-.975-.399a6.432 6.432 0 0 1-.655-.184l.016-.455s.503.056.862.176l.072-.272s1.414.375 2.652.871l-.032.112s-1.23-.479-1.917-.671l-.023.822zM31.668 41.679l-.021-.562s-1.062-.052-1.396-.021c0 0-.083.292-.011.365l.073.073s.021.177.104.188c.083.011.302-.031.302-.031s.021-.302.385-.302.344.281.344.281l.22.009z" fill="#fff"/><path d="M30.963 41.644a.25.25 0 1 1 .265.424c-.118.074-.039-.105-.112-.223-.073-.116-.27-.128-.153-.201zM31.96 41.158v.427l.604-.25.011-.292zM31.439 40.429l.417.26.625-.25s-.01-.167-.292-.167-.625.011-.75.157zM32.804 40.533l-.011.885.354.104.021-1zM33.45 40.376l-.011.157.229.01v-.135zM33.512 40.835v1.344l.115-.011.073-1.323zM33.783 40.168l.292.104 1.25-.531-.323-.115zM34.033 40.679c.042.01.688.354.688.354l.021.125-.729-.333.02-.146zM34.856 40.491l.958-.51.354.156-.979.469zM36.221 40.876l.458.188.989-.531-.218-.073zM37.231 41.158l.406.208.427-.156-.437-.24zM38.314 40.939l.146.042h.208l-.146-.146zM38.897 41.126c-.031 0-1.323.396-1.323.396l.021.74 1.292-.552.01-.584zM35.856 41.231l-.031 1.541.156.053.031.187.135.042.032-1.657zM35.137 40.825l-.01.52.145.136.032-.188.146.052.031-.323-.125-.041-.021-.105zM34.272 42.731l.407.104.042-.438-.282-.021-.083.157-.104-.063zM35.116 42.668l-.01.188.354.25.021-.292zM34.335 43.189l1.917.594 1.166-.375-.291.396 1.687-.49.032.156-2.396.719zM36.897 41.575l.261-.125.104.125-.323.072zM38.887 42.189l2.146.802.073-.25-2.073-.791zM41.647 42.96l.771.333.428-.292-.657-.333z" fill="#fff"/><path d="M24.451 28.014c-.035-.366-.118-.728-.187-1.088a3.776 3.776 0 0 1-.06-1.044c.017-.213-.002-.68-.342-.547-.238.094-.269.375-.28.595-.015.275.023.438.188.654.212.276.206.614.189.947-.012.237.039.449.077.683.06.364.146.711.232 1.069.012.049.035.304.093.322.08.024.134-.154.16-.21l-.055-.438c.005-.315.015-.63-.015-.943zM24.673 27.228c.134.031.152-.164.151-.245v-.219c-.142-.27-.245-.013-.246.184 0 .072-.014.254.095.28zM25.016 28.134l-.165-.301c-.134.252-.248.542-.219.833.013.128.115.417.245.186.119-.212-.022-.519.139-.718zM8.424 12.992l1.94 1.477-.347.455-1.94-1.477zM10.894 13.813l-1.066-.843-.001-.01 1.327.55.38-.445-1.852-1.584-.353.412 1.07.843-.005.008-1.323-.55-.382.447 1.852 1.585zM10.596 11.231l1.387 1.37.402-.407-1.387-1.37.324-.328-.347-.343-1.041 1.055.347.342zM13.551 10.465l-.582.515-.349-.395.536-.473-.323-.365-.536.473L12 9.884l.553-.488-.323-.366-.981.868 1.614 1.826 1.011-.893zM14.519 10.323l-.584-.765.15-.114c.224-.146.389.198.664.527.032.037.07.064.111.091l.496-.379-.02-.025a.21.21 0 0 1-.095-.034c-.121-.104-.378-.436-.509-.581-.11-.128-.268-.147-.416-.079l-.004-.005c.124-.234.061-.418-.097-.625-.294-.385-.595-.393-.967-.108l-.663.507 1.479 1.937.455-.347z"/><path d="M13.824 9.091l-.155.118-.363-.475c.218-.175.321-.237.497-.007.091.119.152.264.021.364z" fill="#fff"/><path d="M15.951 9.292l-.785-1.11.002-.009 1.118.902.49-.32-1.33-2.043-.455.296.79 1.112-.009.005-1.113-.9-.493.321 1.33 2.042zM17.41 8.397l-.169-.449.394-.216.299.377.507-.278-1.636-1.883-.604.332.704 2.393z"/><path fill="#fff" d="M16.715 6.501l.665.881-.291.16-.379-1.038z"/><path d="M17.944 5.919l.825 1.767.518-.242-.825-1.767.418-.195-.206-.441-1.343.626.206.442zM19.543 4.693l.911 2.26-.53.214-.911-2.26zM20.473 6.104c.176.521.458.727 1.007.542.548-.185.638-.517.462-1.038l-.317-.939c-.149-.443-.488-.604-.962-.443-.474.16-.656.496-.506.939l.316.939z"/><path d="M20.799 4.642c.179-.061.248.105.296.247l.32.948c.045.132.099.333-.076.393-.176.059-.264-.131-.309-.263l-.32-.949c-.048-.141-.084-.317.089-.376z" fill="#fff"/><path d="M22.956 6.139l-.386-1.304.004-.007.769 1.213.567-.145-.602-2.362-.526.134.39 1.306-.009.002-.766-1.21-.569.145.602 2.362zM24.61 5.281l.442-.077.162.453.57-.1-.943-2.309-.679.119-.103 2.493.566-.1z"/><path fill="#fff" d="M24.571 3.744l.007-.001.345 1.048-.326.057z"/><path d="M27.182 5.415l-.052-.486-.695.074-.205-1.939-.569.06.256 2.424zM28.711 4.878l.448-.001.083.474.579-.002-.539-2.435-.689.002-.524 2.439.576-.001z"/><path fill="#fff" d="M28.933 3.357h.006l.164 1.091-.332.002z"/><path d="M30.802 2.915c-.442-.03-.733.185-.763.642-.029.431.208.621.542.845.144.101.307.189.293.394-.008.123-.075.239-.208.23-.182-.012-.219-.138-.209-.277l.012-.172-.529-.036-.017.259c-.021.321.179.628.701.663.474.032.75-.21.782-.677.04-.59-.271-.673-.681-.974-.108-.085-.178-.165-.152-.31.02-.106.093-.167.208-.149.188.025.168.22.165.363l.525.036c.057-.457-.173-.804-.669-.837zM33.051 5.001c.079-.586-.225-.69-.613-1.018-.102-.093-.166-.177-.13-.32.027-.104.104-.159.218-.134.185.038.152.23.14.373l.521.07c.087-.45-.119-.813-.612-.88-.438-.059-.743.136-.805.59-.058.428.166.634.484.879.136.11.293.21.266.413-.017.122-.091.233-.223.216-.181-.024-.209-.153-.19-.292l.023-.17-.525-.071-.035.259c-.043.318.137.638.655.708.47.064.763-.159.826-.623zM33.92 5.916c.566.119.812-.122.925-.659l.204-.97c.096-.458-.114-.768-.604-.871-.49-.103-.816.094-.913.552l-.204.97c-.113.538.026.859.592.978z"/><path d="M33.878 5.104l.206-.98c.031-.146.089-.316.268-.279.185.039.161.216.13.363l-.206.979c-.029.137-.084.337-.266.3-.181-.038-.161-.247-.132-.383z" fill="#fff"/><path d="M35.602 6.334c.562.164.875-.05.991-.453l.084-.287-.549-.16-.062.212c-.042.144-.113.333-.301.278-.144-.042-.174-.135-.136-.267l.34-1.156c.044-.153.112-.235.283-.182.103.029.145.153.086.354l-.043.149.549.16.057-.197c.139-.477-.084-.759-.552-.895-.503-.146-.806.022-.954.531l-.28.961c-.137.48-.019.806.487.952zM38.028 4.5l-.813 2.298-.54-.191.814-2.297zM38.175 6.665l.413.174-.109.469.534.224.456-2.452-.636-.268-1.436 2.041.531.223z"/><path fill="#fff" d="M38.974 5.351l.005.003-.276 1.068-.306-.129z"/><path d="M39.33 7.698l.511.256.871-1.746.413.207.217-.437-1.326-.661-.218.436.402.2zM42.155 6.442l-1.203 2.12-.497-.283 1.202-2.12zM41.831 9.173c.486.313.803.177 1.101-.284l.537-.833c.254-.393.168-.758-.252-1.029s-.796-.205-1.05.189l-.537.833c-.299.46-.285.81.201 1.124z"/><path d="M42.083 8.399l.543-.841c.081-.126.197-.264.35-.165.159.103.072.26-.009.385l-.543.842c-.076.117-.2.285-.355.185-.155-.101-.062-.288.014-.406z" fill="#fff"/><path d="M43.147 10.013l.78-1.114.009-.001-.47 1.356.467.354 1.472-1.942-.433-.329-.779 1.119-.007-.006.47-1.352-.468-.355-1.473 1.942zM45.278 11.881c.42.398.756.322 1.134-.077l.682-.72c.322-.34.305-.714-.059-1.059-.363-.344-.745-.348-1.067-.008l-.681.72c-.379.4-.429.746-.009 1.144z"/><path d="M45.668 11.167l.688-.727c.103-.108.242-.223.375-.098.137.13.023.269-.08.377l-.688.727c-.096.102-.249.244-.383.116-.135-.127-.008-.294.088-.395z" fill="#fff"/><path d="M46.451 12.987l.76-.695.481.524.359-.329-.48-.525.319-.292.522.571.359-.329-.908-.993-1.798 1.646zM4.653 22.041c.288.092.429.079.65-.123l.007.002c.042.222.2.354.405.42.467.15.704-.129.835-.542l.226-.706-2.321-.744-.246.768c-.142.443-.026.774.444.925z"/><path d="M5.688 21.345l.495.158c-.062.192-.103.353-.332.28-.275-.088-.224-.195-.163-.438zM4.698 21.028l.573.184c-.084.229-.127.386-.396.299-.313-.1-.258-.209-.177-.483z" fill="#fff"/><path d="M3.625 23.762c.159.004.567.099.761.128.167.03.301-.055.373-.202l.006.002c.052.26.217.362.47.423.471.113.708-.071.817-.526l.194-.812-2.371-.566-.133.557.936.224-.044.183c-.081.254-.426.092-.848.011a.534.534 0 0 0-.144-.001l-.145.607.032.007a.207.207 0 0 1 .096-.035z"/><path d="M5.06 23.279l.046-.19.581.139c-.059.273-.099.387-.38.32-.146-.034-.286-.108-.247-.269z" fill="#fff"/><path d="M3.447 24.111l2.398.431-.101.563-2.399-.43zM3.72 26.687l1.075.131c.232.028.472.021.627-.182.129-.171.166-.418.191-.625l.075-.616-2.419-.295-.093.764c-.021.174-.027.357.051.517.083.178.252.273.493.306z"/><path d="M3.635 25.721l1.549.188c-.041.277-.068.369-.353.337l-.79-.096c-.324-.029-.479-.052-.406-.429z" fill="#fff"/><path d="M3.212 28.14v.006l-.219.016-.019.39 1.325.062.037-.776-.438-.021-.01.205-.191-.009c-.156-.007-.312-.021-.302-.216.007-.149.091-.207.228-.201l1.205.057c.159.007.254.054.243.232-.01.153-.116.173-.323.164l-.133-.006-.026.571.182.009c.497.023.718-.256.741-.743.024-.522-.211-.778-.74-.803l-1-.047c-.441-.021-.783.12-.806.604-.015.246.044.379.246.506zM4.957 30.247l.487-.011-.031-1.31-2.436.057.031 1.349.487-.012-.018-.777.526-.012.017.715.488-.011-.017-.715.448-.011zM3.59 30.656l-.554.041.021.295c-.187.001-.322-.081-.343-.271l-.184.013c.046.316.206.536.543.511l.558-.041-.041-.548zM4.087 33.777c.583-.094.595-.415.797-.881.059-.125.121-.21.268-.217.108-.004.183.053.192.17.017.188-.177.212-.317.242l.083.52c.457-.047.744-.35.666-.841-.07-.437-.344-.672-.797-.6-.426.068-.559.342-.702.718-.066.162-.116.341-.318.374-.122.02-.25-.019-.271-.151-.028-.18.086-.244.225-.266l.17-.027-.084-.523-.257.041c-.317.051-.571.315-.489.832.074.467.372.683.834.609zM5.716 35.184l.475-.11-.333-1.444-.475.11.101.437-1.901.437.129.558 1.9-.438zM5.417 36.786l.006-.001c.176.197.371.202.62.125.463-.142.574-.421.437-.869l-.245-.798-2.33.716.168.547.919-.282.056.18c.06.261-.321.296-.725.44a.55.55 0 0 0-.124.072l.184.597.031-.01a.221.221 0 0 1 .065-.078c.139-.077.539-.203.721-.276.158-.059.23-.2.217-.363z"/><path d="M5.984 35.918c.088.265.111.384-.166.469-.143.044-.3.052-.349-.107l-.058-.186.573-.176z" fill="#fff"/><path d="M7.325 38.363l-.209-.533-1.698.666c-.097.038-.234.043-.289-.096-.059-.151.021-.221.13-.264l1.713-.671-.209-.533-1.643.645c-.466.183-.578.53-.401.981.214.544.578.601.962.45l1.644-.645zM6.751 40.614l-.249-.516-.199.096c-.135.065-.323.138-.408-.038-.065-.135-.016-.22.107-.279l1.087-.521c.144-.069.25-.074.324.089.047.097-.018.21-.205.301l-.14.068.248.515.185-.089c.448-.216.508-.569.297-1.009-.227-.471-.556-.583-1.033-.354l-.902.435c-.448.216-.611.522-.382.996.254.527.622.617 1 .435l.27-.129zM8.479 41.639l.423-.242-.736-1.286-.423.243.223.389-1.692.969.284.496 1.692-.969zM9.851 42.822l-.319-.475-1.514 1.017c-.086.058-.22.093-.303-.031-.091-.135-.027-.221.07-.286l1.526-1.026-.318-.475-1.464.984c-.416.279-.45.643-.18 1.044.326.486.694.462 1.037.231l1.465-.983zM9.781 44.744l.005-.004c.235.121.419.055.624-.106.38-.299.384-.6.095-.968l-.517-.656-1.916 1.506.354.45.756-.595.117.148c.149.222-.193.392-.518.671a.51.51 0 0 0-.09.112l.386.491.025-.02a.216.216 0 0 1 .033-.096c.103-.122.43-.384.573-.517.127-.111.143-.268.073-.416z"/><path d="M9.527 44.101l.47-.37c.178.216.242.318.015.497-.118.092-.262.156-.364.026l-.121-.153z" fill="#fff"/><path d="M11.377 44.71l-2.158 1.252.387.425.397-.27.303.331-.296.38.391.427 1.441-2.036z"/><path fill="#fff" d="M10.585 46.118l-.224-.245.918-.615.004.005z"/><path d="M10.603 47.448l.918.878.337-.352-.505-.483 1.347-1.41-.413-.395zM11.739 48.512l.223.194c-.132.131-.286.169-.435.048l-.121.14c.255.192.523.236.745-.02l.367-.421-.414-.361-.365.42zM15.424 49.157c.274-.379.209-.748-.196-1.042-.405-.293-.784-.247-1.059.132l-.582.802c-.323.445-.328.794.141 1.134.469.339.792.221 1.114-.224l.582-.802z"/><path d="M14.35 49.663c-.082.113-.214.274-.364.165-.15-.108-.046-.291.036-.403l.588-.811c.087-.121.211-.252.358-.146.153.11.058.263-.03.384l-.588.811z" fill="#fff"/><path d="M16.123 51.54c.054-.15.271-.509.36-.683.081-.149.042-.303-.075-.417l.003-.006c.263.032.413-.093.549-.314.254-.412.154-.695-.244-.941l-.711-.438-1.279 2.075.486.3.505-.819.16.099c.217.157-.046.434-.254.81a.496.496 0 0 0-.046.136l.531.328.017-.028a.22.22 0 0 1-.002-.102z"/><path d="M15.947 49.923l.314-.509c.241.141.336.215.185.461-.078.127-.192.237-.333.15l-.166-.102z" fill="#fff"/><path d="M18.393 50.116l-.577 1.235-.008-.005.233-1.412-.522-.271-1.121 2.165.482.25.578-1.231.009-.003-.232 1.417.52.269 1.12-2.165zM19.483 50.634l-1.445 2.034.529.225.249-.41.413.176-.111.468.532.227.467-2.45z"/><path fill="#fff" d="M19.346 52.243l-.305-.13.58-.94.006.002z"/><path d="M22.073 51.603l-.732 1.276-.007-.002.161-1.461-.767-.248-.749 2.32.517.167.537-1.835.007.002-.213 1.94.405.13.971-1.695.006.002L21.566 54l.52.167.748-2.319zM24.255 52.666l.109-.476-1.276-.293-.546 2.376 1.315.302.109-.475-.757-.174.118-.513.696.16.11-.475-.697-.16.1-.438zM25.448 53.751l-.009-.001-.228-1.414-.581-.09-.374 2.408.536.084.157-1.351.008-.005.23 1.417.578.09.374-2.409-.536-.083zM27.792 52.623l-1.477-.123-.041.486.448.037-.162 1.943.57.048.162-1.943.46.038zM28.22 52.632l-.58 2.427.574.011.078-.473.448.009.072.476.579.011-.482-2.447z"/><path fill="#fff" d="M28.362 54.169l.188-1.088h.006l.138 1.095z"/><path d="M30.218 54.567l-.091-1.948-.571.027.113 2.435 1.27-.06-.023-.487zM32.211 52.435l-.168 2.489.569-.085-.002-.479.444-.066.15.457.572-.085-.883-2.333z"/><path fill="#fff" d="M32.607 53.926l.003-1.104.007-.001.319 1.056z"/><path d="M34.503 52.009l.355 1.316-.009.002-.733-1.23-.574.13.54 2.377.529-.12-.351-1.314.005-.007.736 1.232.571-.129-.54-2.377zM36.939 52.059c-.069-.224-.173-.44-.422-.499-.208-.048-.45.02-.648.081l-.593.183.717 2.329.736-.227c.167-.052.337-.121.451-.258.128-.148.147-.341.078-.575l-.319-1.034z"/><path d="M36.41 53.565l-.459-1.491c.269-.076.364-.088.451.184l.234.761c.106.308.148.458-.226.546z" fill="#fff"/><path d="M40.073 52.519c-.092-.13-.261-.514-.354-.687-.076-.151-.225-.207-.385-.177l-.003-.006c.177-.197.16-.392.057-.63-.192-.444-.482-.524-.912-.338l-.767.332.969 2.237.525-.228-.383-.883.173-.075c.252-.088.329.286.518.672.022.044.052.08.085.115l.572-.248-.013-.03a.206.206 0 0 1-.082-.054z"/><path d="M38.826 51.66l-.179.077-.238-.548c.254-.117.37-.153.484.112.06.137.085.293-.067.359z" fill="#fff"/><path d="M40.752 51.757l-.243-.467.634-.33-.226-.433-.634.331-.207-.398.654-.341-.225-.432-1.161.605 1.126 2.162 1.196-.623-.225-.433zM42.012 51.626l-1.238-2.099.492-.29 1.239 2.098zM42.333 48.548l.803 1.101-.008.006-1.124-.886-.489.327 1.355 2.026.451-.302-.799-1.1.002-.009 1.129.887.487-.325-1.356-2.026zM44.875 48.412l-.3-.385-.562.436-.265-.34.611-.475-.299-.385-1.063.825 1.496 1.925.451-.351-.632-.813zM45.829 46.589c-.312-.349-.687-.362-1.06-.027-.373.334-.407.714-.094 1.062l.662.738c.367.409.708.487 1.138.101.431-.386.382-.727.016-1.136l-.662-.738z"/><path d="M46.183 48.136c-.138.124-.294-.016-.387-.12l-.668-.745c-.1-.111-.202-.259-.067-.381.14-.126.27-.001.369.109l.668.745c.093.105.222.268.085.392z" fill="#fff"/><path d="M48.306 46.407c-.135-.084-.44-.372-.592-.496-.129-.11-.287-.104-.423-.014l-.004-.005c.087-.25-.004-.423-.192-.603-.349-.335-.647-.297-.971.041l-.579.603 1.759 1.688.396-.413-.694-.666.131-.136c.099-.089.201-.055.32.037s.255.241.417.382a.497.497 0 0 0 .123.074l.432-.45-.023-.023a.215.215 0 0 1-.1-.019z"/><path d="M46.824 46.097l-.135.141-.431-.414c.189-.206.281-.284.49-.083.107.103.19.237.076.356z" fill="#fff"/><path d="M49.125 44.593l-.231-.19-.364.441.17.141c.115.095.26.236.136.386-.095.115-.193.106-.298.019l-.928-.77c-.123-.102-.171-.196-.055-.332.068-.083.199-.072.359.061l.12.099.364-.441-.158-.13c-.383-.317-.729-.224-1.04.152-.333.403-.298.749.11 1.086l.771.637c.384.317.729.337 1.065-.069.375-.452.302-.823-.021-1.09zM49.869 44.68l-1.963-1.444.339-.46 1.963 1.444zM48.953 41.725l1.171.698-.006.008-1.382-.374-.321.493 2.042 1.331.296-.454-1.166-.698-.002-.01 1.386.373.32-.49-2.042-1.331zM50.711 40.945l.384.212.099-.18.168.093c.137.075.271.156.176.327-.072.131-.173.146-.292.08l-1.057-.581c-.139-.077-.205-.161-.116-.316.077-.132.18-.105.362-.005l.117.064.275-.501-.159-.088c-.436-.24-.757-.086-.992.341-.252.458-.153.791.311 1.046l.877.482c.388.213.756.238.989-.187.119-.216.125-.361-.001-.564l.003-.006.204.082.188-.341-1.162-.639-.374.681zM52.806 39.708l-2.233-.975.229-.524 2.233.975zM53.641 37.289c-.158-.023-.552-.167-.74-.219-.162-.049-.305.019-.394.156l-.006-.002c-.02-.264-.172-.386-.416-.477-.454-.168-.712-.014-.875.424l-.29.783 2.285.847.199-.536-.902-.334.065-.177c.056-.122.163-.13.309-.094.146.037.33.119.535.185a.492.492 0 0 0 .143.018l.217-.585-.031-.011a.211.211 0 0 1-.099.022z"/><path d="M52.158 37.596l-.067.183-.561-.208c.091-.264.145-.373.417-.272.139.052.269.141.211.297z" fill="#fff"/><path d="M53.548 35.267l-.953-.273c-.45-.129-.774.059-.912.54-.138.481.035.821.484.951l.953.273c.528.151.858.037 1.018-.52s-.062-.82-.59-.971z"/><path d="M53.717 36.117c-.051.178-.257.143-.392.104l-.962-.276c-.144-.042-.31-.113-.259-.288.052-.181.228-.144.371-.103l.962.276c.135.039.331.108.28.287z" fill="#fff"/><path d="M52.206 33.622l1.345.222-.002.01-1.424.156-.119.576 2.388.495.109-.532-1.341-.224-.005-.008 1.427-.159.119-.574-2.387-.493zM52.63 30.255l1.689.315v.007l-1.721.084-.045.55 1.682.367.007.006-1.721.036-.044.55 2.461-.213.051-.632L53.294 31v-.006l1.725-.038.051-.642-2.397-.6zM54.304 28.027l-.991.008c-.468.004-.726.276-.721.777s.267.778.735.774l.991-.009c.549-.005.833-.209.828-.787-.005-.579-.292-.768-.842-.763z"/><path d="M54.361 29.005l-1.001.008c-.149.001-.328-.02-.33-.202-.001-.188.177-.203.327-.205l1.001-.008c.14-.001.348.01.35.195s-.207.211-.347.212z" fill="#fff"/><path d="M54.052 26.174c-.167.024-.268.146-.291.308h-.007c-.13-.23-.319-.276-.579-.255-.483.04-.651.289-.613.755l.069.833 2.429-.202-.047-.57-.958.08-.016-.188c-.003-.267.376-.22.802-.275a.522.522 0 0 0 .137-.044l-.052-.622-.032.002a.222.222 0 0 1-.08.062c-.151.046-.569.083-.762.116z"/><path d="M53.023 27.208c-.03-.278-.027-.399.261-.422.149-.013.305.014.318.179l.016.194-.595.049z" fill="#fff"/><path d="M52.228 24.478l.092.578 1.029.264.001.007-.963.152.09.565 2.407-.382-.09-.565-.593.094-.264-.086.788-.444-.095-.598-1.258.76zM53.954 23.289l-.513.12-.162-.697-.475.111.163.697-.437.102-.168-.719-.474.111.297 1.275 2.374-.554-.307-1.313-.474.111zM52.635 21.208l-.006.002c-.177-.197-.372-.201-.62-.124-.462.144-.573.423-.435.87l.248.798 2.328-.722-.17-.546-.918.285-.056-.18c-.06-.26.32-.296.724-.442a.529.529 0 0 0 .124-.072l-.185-.596-.031.01a.218.218 0 0 1-.064.078c-.139.077-.539.204-.72.277-.161.058-.232.199-.219.362z"/><path d="M52.071 22.077c-.089-.265-.112-.384.164-.469.143-.044.3-.053.349.106l.058.186-.571.177z" fill="#fff"/><path d="M51.894 20.882c.402-.157.473-.453.533-.85.03-.173.042-.358.232-.433.115-.045.248-.034.297.09.066.169-.032.257-.163.308l-.161.062.193.493.242-.095c.299-.117.491-.429.301-.917-.173-.442-.51-.589-.945-.419-.551.216-.494.532-.592 1.031-.031.134-.074.231-.216.269-.104.027-.19-.013-.224-.125-.057-.181.127-.246.258-.304l-.191-.49c-.437.143-.653.5-.472.962.162.412.481.585.908.418zM48.856 14.786l.793.314.555-.906.063 1.12.931.177-1.019.289.075.882-.579-.693-.844.34.517-.768zM5.858 17.335l.781-.343-.256-1.031.842.743.78-.539-.51.928.68.566-.9-.075-.351.84-.183-.907zM24.395 18.149c.059.035.135.015.17-.044s.014-.137-.045-.172l-.367-.216c-.136-.059-.276.05-.129.214l.371.218zM22.613 17.034l.729.475a.123.123 0 0 0 .172-.038.124.124 0 0 0-.038-.173l-.725-.472c-.187-.075-.28.113-.138.208z"/><path d="M22.207 16.761l.165.111c.162.082.24-.043.14-.207l-.164-.111a10.446 10.446 0 0 1-.718-.533.125.125 0 0 0-.158.195c.23.187.477.37.735.545zM24.363 21.649a.125.125 0 0 0 .125-.125v-1.207a.125.125 0 0 0-.25 0v1.207c0 .069.056.125.125.125zM23.811 21.138a.125.125 0 0 0 .125-.125v-.695a.125.125 0 0 0-.25 0v.695c0 .07.056.125.125.125z"/><ellipse cx="21.265" cy="24.7" rx=".458" ry=".51"/><ellipse cx="21.266" cy="24.699" rx=".17" ry=".23" fill="#fff"/><ellipse cx="19.45" cy="24.991" rx=".492" ry=".549"/><ellipse cx="19.45" cy="24.991" rx=".179" ry=".237" fill="#fff"/><path d="M48.777 27.949c.613.205.847.642.963.379s-.205-.35-.496-.438c-.291-.087-.623.007-.467.059zM48.281 27.803c.103.104.467-.059.292-.146-.175-.087-.408.03-.292.146zM48.777 27.453c.088.058.234-.087.117-.146-.117-.058-.204.088-.117.146zM49.157 27.482c-.153-.038.642.643.759.38.117-.263-.292-.263-.759-.38z"/></svg>