<svg xmlns="http://www.w3.org/2000/svg" width="2500" height="2500" viewBox="0 0 192.756 192.756"><g fill-rule="evenodd" clip-rule="evenodd"><path fill="#fff" d="M0 0h192.756v192.756H0V0z"/><path d="M33.986 98.131c.182-4.979.164-9.509-.061-14.482h6.416l-.103 7.241.085 7.241h-6.337zm8.951-1.668l-2.953 5.428h6.088l-3.135-5.428zm3.19-7.393l8.951 15.621h-7.453l-1.165-2.086h-6.9l-1.122 2.045a.382.382 0 0 1-.133.15.479.479 0 0 1-.388.074.433.433 0 0 1-.176-.098.336.336 0 0 1-.103-.121.449.449 0 0 1 .006-.461l4.366-7.49 4.117-7.634zM8.504 64.165h65.379v5.876H8.504v-5.876zm.018 7.337h65.422v8.187H55.09l-1.74-2.905-2.001 2.905h-7.35L43.04 78.1h-9.078l-1.886 1.589H8.522v-8.187zm0 9.643l22.505-.012-8.884 7.805c-2.553 2.522-1.916 1.868-.916 6.076H8.528l-.006-13.869zm36.149-.013H50.5l-3.281 4.257-2.548-4.257zm11.244 0h18.029l-.012 13.881H63.611l-7.696-13.881zM8.522 96.463h12.954L26.8 112.17l4.3-5.828h15.246l5.131 9.029H8.522V96.463zm55.489 0h9.933v18.908H52.319l11.692-18.908zM8.522 116.809h65.422v11.783H8.522v-11.783z" fill="#e9b83a"/><path d="M95.563 104.438h1.334c.237 0 .448-.049.667-.152.443-.225.723-.781.686-1.369-.023-.547-.273-1.02-.66-1.262a1.193 1.193 0 0 0-.644-.188h-1.382v2.971h-.001zm-1.485 4.609v-9.018h3.317c.758.012 1.438.461 1.867 1.23.371.691.51 1.492.408 2.311-.135 1.104-.801 1.988-1.68 2.232a3.674 3.674 0 0 1-.953.121h-1.474v3.123h-1.485v.001zm9.447-.596c-.17.17-.334.311-.516.449-.406.316-.873.426-1.34.316-.836-.182-1.467-1.098-1.473-2.148v-4.65h1.375v3.941c.008.176.014.34.031.521.037.432.291.789.637.893a.86.86 0 0 0 .703-.109c.225-.146.389-.365.479-.648.074-.225.109-.443.117-.68v-3.918h1.395v6.629h-1.395l-.013-.596zm5.998-1.34c.4-.873.389-1.922-.023-2.783-.207-.418-.57-.674-.971-.674s-.764.256-.971.674a3.306 3.306 0 0 0-.037 2.783c.207.455.582.729 1.002.729.418 0 .795-.274 1-.729zm-3.589 1.936v-9.018h1.383v2.855c.703-.746 1.697-.891 2.523-.375.514.326.896.848 1.109 1.521a5.475 5.475 0 0 1-.02 3.469c-.277.861-.854 1.48-1.576 1.697-.727.219-1.467 0-2.037-.605l-.025.455h-1.357v.001zm5.877 0v-9.018h1.4v9.018h-1.4zm2.425 0v-6.629h1.34v6.629h-1.34zm0-7.496v-1.521h1.34v1.521h-1.34zm2.352 5.816a4.857 4.857 0 0 1 0-3.457c.346-.922 1.008-1.553 1.814-1.74.352-.08.686-.086 1.037-.02 1.018.213 1.801 1.244 1.916 2.506h-1.334c-.066-.516-.359-.934-.766-1.086-.398-.152-.83-.006-1.121.377a2.406 2.406 0 0 0-.406.914c-.098.51-.104.996-.006 1.504.078.365.213.686.406.977.219.328.533.51.873.492a.974.974 0 0 0 .68-.346c.188-.219.309-.492.34-.812h1.334c-.055 1.104-.656 2.055-1.51 2.371a2.422 2.422 0 0 1-1.674 0c-.716-.242-1.278-.844-1.583-1.68zm13.555-3.287h1.533c.297.006.576-.08.844-.256.328-.211.527-.643.51-1.109a1.409 1.409 0 0 0-.322-.879.953.953 0 0 0-.721-.369h-1.844v2.613zm-1.504 4.967v-9.018h3.766c.545-.006 1.049.236 1.443.703s.613 1.08.631 1.752c.018 1.037-.516 1.971-1.311 2.299.547.176.939.746 1.008 1.438l.188 2.08c.023.268.078.51.176.746h-1.467a3.973 3.973 0 0 1-.152-.818l-.133-1.451a1.628 1.628 0 0 0-.4-.939c-.23-.242-.504-.369-.807-.369h-1.438v3.578h-1.504v-.001zm7.611-4.166h2.395a1.516 1.516 0 0 0-.164-.734c-.23-.424-.605-.68-1.018-.686-.42-.006-.795.236-1.031.654a1.47 1.47 0 0 0-.182.766zm-.4 3.564c-.613-.631-.977-1.484-1.062-2.467-.078-.982.141-1.91.631-2.688.51-.812 1.273-1.268 2.105-1.23.83.029 1.57.539 2.037 1.395.297.57.473 1.164.551 1.838.037.279.043.539.025.818h-3.912c-.006.479.152.916.443 1.23.242.279.545.426.885.426.467.006.891-.328 1.086-.85h1.432c-.164.729-.51 1.316-1.02 1.723-.983.813-2.287.727-3.201-.195zm4.875.602v-9.018h1.4v9.018h-1.4zm3.808-1.147c.34.164.703.152 1.037-.043.326-.193.57-.533.68-.963.102-.426.139-.838.107-1.275a1.228 1.228 0 0 1-.436.219l-.965.273a1.289 1.289 0 0 0-.617.369.956.956 0 0 0-.23.777c.041.298.2.534.424.643zm-1.256.674c-.314-.299-.51-.711-.557-1.195-.068-.686.188-1.352.66-1.729.297-.23.6-.395.945-.51a7.318 7.318 0 0 1 1.564-.309c.158-.018.299-.127.377-.297s.084-.371.012-.547a.76.76 0 0 0-.34-.406 1.246 1.246 0 0 0-1.17-.035c-.279.139-.467.453-.492.824h-1.213c-.012-.879.455-1.674 1.135-1.936a2.991 2.991 0 0 1 2.504.086c.582.279.971.977.971 1.758v3.881c.006.322.066.607.189.887h-1.371l-.08-.59c-.884.942-2.206.991-3.134.118zm5.616-.99v-4.031h-.752v-1.135h.752v-2.389h1.389v2.389h1.002v1.135h-1.002v3.656c0 .164.049.309.141.418.09.115.211.176.34.17h.582v1.25h-1.25c-.32 0-.611-.152-.842-.432a1.639 1.639 0 0 1-.36-1.031zm3.045 1.463v-6.629h1.346v6.629h-1.346zm0-7.496v-1.521h1.346v1.521h-1.346zm5.931 2.844c-.213-.539-.65-.879-1.135-.879s-.928.34-1.141.879a2.79 2.79 0 0 0-.15.588c-.08.504-.08.971-.014 1.475.031.213.08.4.158.588.207.553.656.904 1.146.898.49 0 .934-.352 1.141-.904.072-.188.121-.369.15-.576a4.202 4.202 0 0 0 0-1.492 2.902 2.902 0 0 0-.155-.577zm-.279-2.038c.787.285 1.395.982 1.697 1.928a4.804 4.804 0 0 1 0 2.863c-.303.951-.928 1.648-1.723 1.934a2.428 2.428 0 0 1-1.66 0c-.795-.291-1.414-.988-1.723-1.934a4.695 4.695 0 0 1 .006-2.844c.297-.947.904-1.639 1.686-1.936a2.435 2.435 0 0 1 1.717-.011zm2.521 6.69v-6.629h1.389l.02.6a4.8 4.8 0 0 1 .527-.459c.412-.311.873-.414 1.346-.305.832.188 1.455 1.104 1.455 2.146v4.646h-1.369v-3.973c-.006-.17-.014-.322-.025-.49-.049-.438-.314-.795-.66-.887-.492-.133-1 .201-1.189.77a2.116 2.116 0 0 0-.104.674v3.906h-1.39v.001zm5.264-2.244h1.27c.029.467.271.867.623 1.043.334.164.686.176 1.025.031.127-.049.23-.117.334-.213a.54.54 0 0 0 .188-.34.67.67 0 0 0-.037-.406c-.084-.213-.242-.357-.436-.395l-1.178-.248c-.447-.092-.842-.311-1.199-.668-.438-.436-.602-1.158-.426-1.807.184-.668.596-1.17 1.141-1.377.438-.176.855-.23 1.316-.182.375.043.715.164 1.061.375.533.34.873 1.002.887 1.748h-1.268c-.025-.357-.219-.662-.492-.777a1.525 1.525 0 0 0-.885-.078.905.905 0 0 0-.455.279.545.545 0 0 0-.133.395.567.567 0 0 0 .156.375.601.601 0 0 0 .311.17l1.357.285c.309.066.588.182.867.363.188.127.34.291.467.51.371.625.4 1.455.08 2.123-.244.521-.613.885-1.08 1.061a2.853 2.853 0 0 1-2.389-.193c-.359-.195-.637-.498-.838-.916a2.911 2.911 0 0 1-.267-1.158zM82.446 118.324l2.05.006-1.013-4.16-1.037 4.154zm-2.31 3.276l2.523-9.018h1.607l2.607 9.018h-1.541l-.479-1.91h-2.741l-.479 1.91h-1.497zm9.848-1.481c.219-.217.37-.484.474-.812a3.65 3.65 0 0 0 .024-1.994 1.934 1.934 0 0 0-.467-.838c-.388-.406-.97-.424-1.376-.041-.243.23-.407.521-.497.879a3.488 3.488 0 0 0 .054 1.994c.103.328.267.596.491.812.382.371.921.371 1.297 0zm-3.002.121a5.459 5.459 0 0 1-.091-3.674c.225-.668.601-1.184 1.11-1.521.824-.529 1.831-.371 2.517.406v-2.869h1.395v9.018h-1.352l-.024-.449c-.552.57-1.255.795-1.958.613-.699-.182-1.275-.729-1.597-1.524zm7.326 1.36l-1.947-6.623h1.468l1.146 4.627 1.11-4.627h1.456l-1.856 6.623h-1.377zm4.579-4.166h2.395a1.46 1.46 0 0 0-.162-.729c-.23-.43-.607-.686-1.02-.691-.418-.006-.795.236-1.031.662a1.453 1.453 0 0 0-.182.758zM98.486 121c-.613-.631-.977-1.486-1.061-2.469-.08-.982.139-1.91.631-2.688.508-.812 1.273-1.266 2.104-1.23.83.031 1.57.539 2.037 1.395.297.57.475 1.164.553 1.838.035.279.043.539.023.818h-3.91c-.008.479.15.916.441 1.232.242.277.547.424.887.43.467 0 .891-.328 1.084-.855l1.432.006c-.164.723-.51 1.311-1.018 1.723-.984.806-2.287.728-3.203-.2zm4.852.6v-6.623h1.316l.049.717a3.79 3.79 0 0 1 .467-.516c.17-.164.346-.273.557-.34.225-.072.443-.072.674 0v1.461a1.674 1.674 0 0 0-.668.043c-.508.139-.896.648-.98 1.291-.025.176-.037.34-.031.521v3.445h-1.384v.001zm4.154-1.461v-4.033h-.752v-1.129h.752v-2.395h1.383v2.395h1.006v1.129h-1.006v3.656c0 .164.049.309.139.418.098.115.213.178.34.178h.582v1.242h-1.248c-.316 0-.607-.146-.838-.424a1.64 1.64 0 0 1-.358-1.037zm3.045 1.461v-6.623h1.346v6.623h-1.346zm0-7.496v-1.521h1.346v1.521h-1.346zm1.957 5.251h1.268c.031.467.273.867.619 1.043.34.164.691.176 1.031.031a1.14 1.14 0 0 0 .334-.207.617.617 0 0 0 .188-.34.734.734 0 0 0-.037-.412c-.09-.213-.248-.357-.436-.395l-1.178-.248a2.317 2.317 0 0 1-1.199-.668c-.438-.43-.607-1.152-.426-1.807.176-.666.596-1.17 1.135-1.377.438-.176.861-.23 1.316-.182.381.049.721.164 1.061.377.539.34.873 1.006.893 1.746h-1.268c-.025-.357-.219-.66-.492-.77a1.44 1.44 0 0 0-.885-.08.801.801 0 0 0-.455.279.522.522 0 0 0-.133.389.563.563 0 0 0 .156.375.601.601 0 0 0 .311.17l1.352.285c.314.066.588.182.867.363.193.129.346.291.473.51.363.625.4 1.457.08 2.123-.244.521-.619.885-1.08 1.061a2.887 2.887 0 0 1-2.396-.188c-.352-.199-.629-.504-.83-.922a2.84 2.84 0 0 1-.269-1.156zm5.436 2.245v-6.623h1.346v6.623h-1.346zm0-7.496v-1.521h1.346v1.521h-1.346zm2.351 7.496v-6.623h1.383l.018.596c.178-.17.34-.316.529-.461.412-.311.873-.414 1.346-.305.836.189 1.455 1.105 1.455 2.148v4.645h-1.371v-3.973c0-.17-.012-.32-.023-.484-.049-.443-.309-.801-.662-.893-.49-.133-.994.201-1.188.771a2.14 2.14 0 0 0-.104.678v3.9h-1.383v.001zm6.981-2.45c.23.363.57.562.945.562.377 0 .717-.199.947-.562.467-.723.467-1.766 0-2.486-.23-.365-.57-.57-.947-.57-.375 0-.715.205-.945.57-.461.727-.461 1.764 0 2.486zm3.56-4.173v6.422c.006.656-.225 1.244-.631 1.656a2.255 2.255 0 0 1-.971.588 3.178 3.178 0 0 1-2.238-.156c-.6-.268-1.018-.941-1.066-1.729h1.383c.09.352.309.617.594.721.23.086.455.092.691.025.236-.061.443-.201.611-.42.189-.23.285-.533.285-.861v-.746c-.467.432-1 .65-1.588.631-.928-.035-1.752-.75-2.098-1.824a4.77 4.77 0 0 1-.086-2.529c.146-.625.438-1.135.855-1.521.904-.795 2.141-.729 2.99.15l.029-.406h1.24v-.001zm.928 8.205v-.752c.266-.133.43-.473.4-.83h-.414v-1.576h1.111v1.691a1.67 1.67 0 0 1-.322.994c-.205.279-.472.443-.775.473zm8.375-1.582v-9.018h2.164l1.553 6.361 1.516-6.361h2.158v9.018h-1.363v-6.664l-1.607 6.664h-1.449l-1.625-6.641v6.641h-1.347zm9.799-1.147c.34.17.703.152 1.037-.043.334-.193.57-.533.68-.963.109-.426.139-.832.109-1.273a1.168 1.168 0 0 1-.438.217l-.965.273a1.277 1.277 0 0 0-.617.371.956.956 0 0 0-.23.775c.043.297.199.54.424.643zm-1.256.674c-.314-.297-.502-.709-.551-1.189-.072-.691.182-1.357.654-1.729.303-.236.602-.4.947-.51a7.01 7.01 0 0 1 1.564-.314.486.486 0 0 0 .375-.297.676.676 0 0 0 .012-.547.765.765 0 0 0-.338-.406 1.256 1.256 0 0 0-1.172-.035c-.279.139-.467.455-.484.824h-1.219c-.006-.879.455-1.674 1.133-1.934a2.988 2.988 0 0 1 2.506.084c.588.285.969.982.969 1.758v3.883c.008.32.068.605.189.885h-1.371l-.078-.588c-.886.939-2.208.988-3.136.115zm5.271.473v-6.623h1.314l.049.717a4.31 4.31 0 0 1 .467-.516c.17-.164.352-.273.559-.34.225-.072.449-.072.674 0v1.461a1.674 1.674 0 0 0-.668.043c-.51.139-.896.648-.982 1.291a3.91 3.91 0 0 0-.029.521v3.445h-1.384v.001zm3.51 0v-9.018h1.395v4.766l1.881-2.371h1.691l-2.025 2.469 2.213 4.154h-1.666l-1.48-2.984-.613.729v2.256h-1.396v-.001zm6.047-4.166h2.395a1.344 1.344 0 0 0-.162-.729c-.225-.43-.602-.686-1.02-.691-.412-.006-.795.236-1.031.662a1.463 1.463 0 0 0-.182.758zm-.394 3.566c-.611-.631-.982-1.486-1.061-2.469-.086-.982.133-1.91.631-2.688.502-.812 1.273-1.266 2.098-1.23.83.031 1.576.539 2.037 1.395.297.57.48 1.164.553 1.838.035.279.043.539.029.818h-3.916c0 .479.15.916.441 1.232.25.277.553.424.887.43.467 0 .891-.328 1.084-.855l1.438.006c-.164.723-.516 1.311-1.025 1.723-.984.806-2.286.728-3.196-.2zm5.064-.861v-4.033h-.752v-1.129h.752v-2.395h1.383v2.395h1.006v1.129h-1.006v3.656c0 .164.055.309.145.418a.428.428 0 0 0 .34.178h.576v1.242h-1.242c-.322 0-.613-.146-.844-.424a1.675 1.675 0 0 1-.358-1.037zm3.043 1.461v-6.623h1.348v6.623h-1.348zm0-7.496v-1.521h1.348v1.521h-1.348zm2.353 7.496v-6.623h1.383l.018.596c.176-.17.34-.316.529-.461.412-.311.873-.414 1.346-.305.836.189 1.455 1.105 1.455 2.148v4.645h-1.371v-3.973c0-.17-.012-.32-.023-.484-.049-.443-.309-.801-.662-.893-.49-.133-.994.201-1.188.771a2.14 2.14 0 0 0-.104.678v3.9h-1.383v.001zm6.981-2.45c.23.363.57.562.945.562.377 0 .717-.199.947-.562.467-.723.467-1.766 0-2.486-.23-.365-.57-.57-.947-.57-.375 0-.715.205-.945.57-.461.727-.461 1.764 0 2.486zm3.561-4.173v6.422c.006.656-.225 1.244-.631 1.656a2.255 2.255 0 0 1-.971.588 3.178 3.178 0 0 1-2.238-.156c-.6-.268-1.02-.941-1.066-1.729h1.383c.09.352.309.617.594.721.23.086.455.092.691.025.236-.061.441-.201.611-.42.189-.23.285-.533.285-.861v-.746c-.467.432-1 .65-1.588.631-.928-.035-1.752-.75-2.1-1.824a4.79 4.79 0 0 1-.084-2.529c.146-.625.438-1.135.855-1.521.904-.795 2.141-.729 2.99.15l.035-.406h1.234v-.001zM89.178 89.962h1.146l-.588-1.364-.558 1.364zm-1.389 1.662l1.643-3.881h.57l1.729 3.881h-.673l-.521-1.152h-1.565l-.497 1.152h-.686zm10.818-3.881h.648v2.705a.668.668 0 0 0 .23.491c.152.134.34.2.541.2a.775.775 0 0 0 .539-.212.636.636 0 0 0 .219-.503v-2.68h.637v2.692a1.2 1.2 0 0 1-.406.892 1.44 1.44 0 0 1-.971.37 1.473 1.473 0 0 1-1.014-.37 1.202 1.202 0 0 1-.424-.916v-2.669h.001zm10.026 2.74h.648a.551.551 0 0 0 .098.339c.15.213.406.322.66.285a.69.69 0 0 0 .352-.14.575.575 0 0 0 .06-.873.716.716 0 0 0-.303-.17l-.504-.146a1.119 1.119 0 0 1-.51-.297.99.99 0 0 1-.314-.764.99.99 0 0 1 .357-.746 1.261 1.261 0 0 1 1.273-.212c.213.079.389.207.521.388a.98.98 0 0 1 .207.588h-.625c0-.103-.031-.2-.092-.279a.613.613 0 0 0-.393-.237.618.618 0 0 0-.449.109.503.503 0 0 0-.213.521.453.453 0 0 0 .152.249c.078.073.17.122.271.146l.498.109c.412.079.74.37.873.764.133.4.043.831-.242 1.134a1.397 1.397 0 0 1-1.734.236 1.16 1.16 0 0 1-.591-1.004zm10.406 1.141v-3.348h-.832v-.533h2.27v.533h-.783v3.348h-.655zm9.283-1.965h.766a.807.807 0 0 0 .539-.188.68.68 0 0 0 .236-.498.645.645 0 0 0-.219-.509.804.804 0 0 0-.562-.225h-.76v1.42zm-.636 1.965v-3.881h1.705a.984.984 0 0 1 .66.23c.303.243.473.595.48.983 0 .388-.17.739-.475.982-.199.157-.424.23-.672.224l1.158 1.461h-.818l-1.402-1.777v1.777h-.636v.001zm11.376-1.662h1.152l-.588-1.364-.564 1.364zm-1.388 1.662l1.645-3.881h.576l1.721 3.881h-.672l-.521-1.152h-1.564l-.492 1.152h-.693zm11.14 0v-3.881h.631v3.377h1.449v.503h-2.08v.001zm9.266 0v-3.881h.619v3.881h-.619zm9.207-1.662h1.145l-.588-1.364-.557 1.364zm-1.389 1.662l1.643-3.881h.57l1.729 3.881h-.674l-.521-1.152h-1.564l-.498 1.152h-.685zM80.33 85.11c.23-6.088.206-11.631-.073-17.72h7.847l-.127 8.86.109 8.86H80.33zm14.275-18.635l7.192 10.2 6.914-10.2 2.613 9.369 2.93 9.266h-8.139l-2.523-9.242-5.365 7.993-5.495-7.702-2.11 8.436a.729.729 0 0 1-.358.473.726.726 0 0 1-.594.042.6.6 0 0 1-.352-.315.597.597 0 0 1-.036-.479l2.808-8.878 2.515-8.963zm28.739 14.451a9.233 9.233 0 0 0 5.16-.291 6.203 6.203 0 0 0 4.07-5.901 6.55 6.55 0 0 0-4.73-6.313 11.387 11.387 0 0 0-4.5-.333v12.838zm0 4.184h-7.938a234.4 234.4 0 0 0-.023-17.726h10.805a7.393 7.393 0 0 1 5.871 3.22 7.38 7.38 0 0 1 .928 6.623 6.827 6.827 0 0 1-4.172 4.239 9.84 9.84 0 0 1-5.471.388v3.256zm14.537-10.072l-3.615 6.641h7.441l-3.826-6.641zm3.892-9.042l10.939 19.115h-9.102l-1.426-2.547h-8.441l-1.371 2.499a.546.546 0 0 1-.678.255.521.521 0 0 1-.297-.249.522.522 0 0 1-.068-.382.629.629 0 0 1 .068-.182l5.342-9.163 5.034-9.346zm25.209 5.355a8.221 8.221 0 0 0-7.779-3.517v16.762c3.59.558 7.148-1.407 8.592-4.73a.481.481 0 0 1 .371-.279.456.456 0 0 1 .424.17.503.503 0 0 1 .078.534 9.224 9.224 0 0 1-5.148 4.767c-2.311.885-4.742.836-7.021-.128a9.222 9.222 0 0 1-4.967-4.954c-.977-2.274-1.025-4.706-.152-7.022a9.567 9.567 0 0 1 7.594-5.895 9.565 9.565 0 0 1 8.908 3.62.559.559 0 0 1-.729.825.623.623 0 0 1-.171-.153zm-.181-3.96h16.902a.568.568 0 0 1 .473.273c.098.17.104.37.012.54a.601.601 0 0 1-.559.321l-4.336-.182a193.336 193.336 0 0 0 .049 16.768h-8.199c.365-5.755.412-11.006.152-16.768l-4.463.169c-.135.012-.262-.03-.371-.109s-.182-.194-.211-.328a.554.554 0 0 1 .332-.643.571.571 0 0 1 .219-.041z" fill="#ab2a31"/></g></svg>