<svg xmlns="http://www.w3.org/2000/svg" width="2500" height="2500" viewBox="0 0 192.756 192.756"><g fill-rule="evenodd" clip-rule="evenodd"><path fill="#fff" d="M0 0h192.756v192.756H0V0z"/><path fill="#1e71b8" d="M79.12 158.043l-.95-.033-.332 9.507 2.581.089.03-.859-1.632-.057.303-8.647zM72.098 157.458l-2.831 3.133c-.363.389-.687.787-.968 1.194s-.466.877-.551 1.409c-.083.615-.031 1.193.157 1.733s.502.994.939 1.362c.438.369.989.604 1.653.705.687.086 1.292.004 1.815-.247s.946-.607 1.268-1.071c.321-.464.521-.973.601-1.526.08-.606.02-1.175-.18-1.704s-.517-.974-.95-1.332c-.434-.359-.96-.586-1.58-.681a2.158 2.158 0 0 0-.456-.014 1.818 1.818 0 0 0-.452.094l-.023-.017 2.627-2.889-1.069-.149zm-3.423 5.958c.126-.746.439-1.308.942-1.687a2.247 2.247 0 0 1 1.684-.451c.677.115 1.19.433 1.54.955.349.521.482 1.121.398 1.798-.108.69-.402 1.234-.88 1.633-.478.398-1.059.558-1.741.479-.512-.082-.919-.273-1.221-.571a2.385 2.385 0 0 1-.625-1.033 2.648 2.648 0 0 1-.097-1.123zM66.816 156.548l-.968-.26-6.002 7.351-.223.83 5.314 1.425.223-.832-4.37-1.17 6.026-7.344zM57.394 159.228c.608-.029 1.124-.224 1.547-.583s.719-.762.889-1.208c.18-.482.228-.976.145-1.481s-.289-.968-.616-1.387-.769-.739-1.323-.96c-.552-.203-1.088-.258-1.608-.165-.521.094-.981.3-1.38.62-.399.32-.693.72-.882 1.198-.157.375-.21.831-.161 1.369.049.538.311 1.07.784 1.597-.385.06-.699.182-.944.366-.245.186-.43.374-.555.565s-.2.326-.225.404c-.245.687-.23 1.331.044 1.933s.745 1.038 1.41 1.31c.408.154.825.207 1.252.157s.817-.204 1.17-.462c.354-.259.625-.624.814-1.097.124-.315.162-.661.114-1.037-.047-.375-.205-.755-.475-1.139zm1.535-2.096a2.005 2.005 0 0 1-1.069 1.095c-.504.226-1.033.241-1.588.049a2.196 2.196 0 0 1-.805-.554 2.083 2.083 0 0 1-.508-.928c-.094-.363-.063-.761.092-1.191.17-.418.409-.732.717-.943s.636-.334.985-.368.669.004.961.115c.275.103.538.277.789.524.251.246.428.556.53.927.104.371.069.795-.104 1.274zm-2.075 3.969c-.162.4-.431.688-.81.865-.378.178-.792.187-1.242.028-.448-.192-.74-.484-.877-.878a1.63 1.63 0 0 1-.001-1.141 1.55 1.55 0 0 1 .796-.846c.374-.177.776-.189 1.21-.037.314.128.552.31.713.546s.257.486.286.75c.031.264.006.502-.075.713zM44.977 146.851l-.778-.545-5.456 7.792.778.545 5.456-7.792zM42.492 145.247l-.706-.635-5.67 6.297-.019-.017 3.042-8.663-.603-.542-8.317 3.913-.019-.018 5.67-6.297-.706-.635-6.366 7.07 1.088.979 8-3.695-2.848 8.333 1.088.98 6.366-7.07zM32.276 139.276c.516-.466.833-.951.952-1.455a2.653 2.653 0 0 0-.039-1.439 3.328 3.328 0 0 0-.63-1.168c-.37-.429-.791-.725-1.264-.888a2.802 2.802 0 0 0-1.426-.116 2.757 2.757 0 0 0-1.29.601l-.01.009c-.101.066-.263.24-.487.524-.224.284-.378.677-.463 1.18s.03 1.116.347 1.839c.29.593.48 1.129.573 1.607.093.479-.07.904-.487 1.275a1.67 1.67 0 0 1-1.162.385c-.444-.016-.85-.229-1.217-.639-.289-.363-.415-.771-.375-1.226s.243-.845.613-1.173l-.611-.728c-.54.469-.846 1.045-.917 1.728-.071.682.139 1.332.631 1.951.506.58 1.098.911 1.777.99.679.08 1.312-.115 1.901-.586.466-.411.736-.832.809-1.265a2.551 2.551 0 0 0-.081-1.233 8.258 8.258 0 0 0-.394-1.005c-.102-.213-.208-.487-.318-.824s-.143-.692-.098-1.065.248-.721.608-1.042c.446-.353.92-.496 1.42-.432s.92.293 1.261.685c.374.458.54.933.496 1.424-.044.492-.287.944-.73 1.358l.611.728zM30.097 132.644l-.524-.839-3.451.519-2.343-3.75 1.986-2.863-.552-.883-5.902 8.508.566.904 10.22-1.596zm-9.592.567l2.741-3.866 1.956 3.13-4.697.736zM23.54 121.424l-.355-.924-3.486-.149-1.585-4.128 2.496-2.432-.373-.972-7.417 7.226.382.996 10.338.383zm-9.524-1.274l3.429-3.271 1.322 3.444-4.751-.173zM20.021 111.542l-.181-.933-8.216 1.598-.005-.024 7.139-7.141-.181-.932-9.339 1.816.181.931 7.748-1.505.005.025-6.734 6.72.245 1.26 9.338-1.815zM18.275 101.975l-.032-.95-8.366.292-.001-.025 8.168-5.935-.033-.949-9.507.332.033.949 7.888-.275.001.025-7.702 5.583.044 1.285 9.507-.332zM18.088 92.448l.067-.948-9.49-.663-.067.948 9.49.663zM18.656 86.648l.131-.929-8.871-5.231-.144 1.018L17.554 86l-8.718 2.163-.146 1.044 9.966-2.559zM19.76 80.738l1.347-5.028-.83-.222-1.102 4.11-3.392-.909 1.065-3.974-.83-.222-1.065 3.974-3.306-.886 1.102-4.11-.831-.223-1.347 5.028 9.189 2.462zM21.693 74.13l.355-.881-8.023-3.242.621-1.538c.144-.363.291-.667.444-.913.152-.246.347-.468.584-.669.27-.229.595-.368.977-.417.381-.049.75-.004 1.107.135.405.164.732.438.981.821.249.383.35.847.304 1.39-.016.205-.07.444-.163.72-.093.275-.25.686-.472 1.229l5.201-1.38.448-1.107-4.297 1.162c.187-.587.227-1.128.122-1.623a2.785 2.785 0 0 0-.627-1.281 2.921 2.921 0 0 0-1.117-.801c-.552-.219-1.105-.281-1.659-.187s-1.051.341-1.492.743c-.176.155-.362.388-.559.698-.197.311-.414.756-.651 1.337l-.905 2.24 8.821 3.564zM22.208 66.118c.62.314 1.186.437 1.699.368a2.66 2.66 0 0 0 1.33-.553c.374-.299.662-.634.864-1.007.268-.499.393-.998.376-1.498a2.803 2.803 0 0 0-.402-1.373 2.76 2.76 0 0 0-1.023-.989l-.011-.006c-.098-.07-.319-.159-.664-.267-.345-.107-.768-.11-1.268-.01-.5.101-1.03.429-1.592.983-.45.482-.882.853-1.296 1.111-.414.258-.869.259-1.365.002a1.67 1.67 0 0 1-.777-.947c-.144-.42-.09-.875.161-1.365.235-.4.572-.663 1.009-.79.438-.126.876-.075 1.315.152l.46-.831c-.632-.336-1.278-.415-1.941-.237s-1.194.608-1.596 1.289c-.361.681-.457 1.352-.289 2.014s.579 1.184 1.229 1.564c.55.288 1.041.389 1.471.303.43-.087.804-.259 1.122-.518a8.32 8.32 0 0 0 .797-.728c.162-.172.381-.369.656-.592.275-.223.595-.38.959-.473.364-.092.761-.027 1.19.194.489.291.793.681.912 1.171s.057.964-.187 1.422c-.293.514-.677.838-1.152.974-.475.135-.984.07-1.529-.195l-.458.832zM27.615 61.86l.582-.801-1.774-3.005 2.599-3.578 3.399.769.612-.842-10.099-2.284-.627.863 5.308 8.878zm-4.119-8.681l4.611 1.094-2.168 2.985-2.443-4.079zM33.909 53.598l.66-.684-6.225-6.011 1.152-1.193c.269-.283.52-.51.753-.681a2.85 2.85 0 0 1 .792-.401 1.84 1.84 0 0 1 1.062-.021c.371.098.697.277.976.54.314.304.515.68.602 1.129.087.449.007.917-.239 1.403a2.975 2.975 0 0 1-.421.606c-.189.221-.488.542-.898.963l5.34.669.83-.859-4.419-.533c.393-.474.633-.96.721-1.459a2.805 2.805 0 0 0-.102-1.423 2.923 2.923 0 0 0-.735-1.161 3.045 3.045 0 0 0-1.468-.794 2.91 2.91 0 0 0-1.662.13c-.221.078-.481.224-.78.438-.3.214-.667.546-1.105.996l-1.678 1.738 6.844 6.608zM41.197 46.766l.739-.597-1.999-2.468-1.391-7.029-.809.656 1.19 5.901-5.466-2.439-.819.663 6.557 2.846 1.998 2.467zM54.024 38.628l5.602-2.263-.322-.797-4.411 1.782 1.744-3.854c.343-.726.562-1.355.658-1.888s.041-1.051-.165-1.556c-.159-.394-.424-.753-.795-1.079A2.98 2.98 0 0 0 55 28.306c-.52-.118-1.085-.061-1.694.172-.398.154-.777.409-1.139.764-.362.355-.608.813-.738 1.372-.131.56-.049 1.222.244 1.989l.01.024.88-.356c-.207-.544-.283-1.003-.231-1.378.052-.374.169-.675.352-.904.182-.229.363-.398.545-.508s.299-.171.352-.186c.39-.151.765-.192 1.124-.124.359.068.674.212.945.433.271.221.47.484.596.792.174.447.191.92.05 1.419-.142.499-.374 1.093-.698 1.784l-1.894 4.232.32.797zM65.056 28.219a4.584 4.584 0 0 0-.347-.917 3.406 3.406 0 0 0-.453-.68c-.452-.481-.965-.786-1.539-.913a3.34 3.34 0 0 0-1.629.02c-.514.134-.987.4-1.42.797-.433.397-.726.917-.876 1.56a3.464 3.464 0 0 0-.052.814c.014.297.066.62.158.968l.719 2.684c.124.458.272.85.445 1.174.173.323.364.587.572.79.331.328.681.553 1.051.676.371.123.728.179 1.07.169s.636-.05.882-.121c.248-.062.523-.174.825-.337.301-.162.582-.39.841-.681.26-.292.45-.662.572-1.111.08-.28.113-.604.101-.971a5.71 5.71 0 0 0-.201-1.239l-.719-2.682zm-.235 2.792c.029.103.067.267.115.492.047.226.079.469.096.731s-.005.498-.067.709a2.124 2.124 0 0 1-.582.951 2.266 2.266 0 0 1-.969.516 2.278 2.278 0 0 1-1.097.038 2.127 2.127 0 0 1-.98-.533 2.047 2.047 0 0 1-.412-.581c-.117-.235-.21-.462-.282-.681s-.121-.38-.146-.483l-.626-2.335a4.635 4.635 0 0 1-.081-.361 4.833 4.833 0 0 1-.084-.725 2.211 2.211 0 0 1 .093-.772c.13-.379.338-.691.625-.933.287-.242.582-.404.886-.484.303-.082.639-.09 1.009-.024a2.06 2.06 0 0 1 1.008.496c.184.169.34.376.466.622.126.245.223.468.29.669.066.2.104.318.11.353l.628 2.335zM72.773 26.896a4.7 4.7 0 0 0-.249-.948 3.363 3.363 0 0 0-.38-.723c-.398-.526-.877-.882-1.434-1.069a3.343 3.343 0 0 0-1.623-.151 3.338 3.338 0 0 0-1.496.645c-.473.35-.817.836-1.034 1.459-.074.239-.12.507-.137.805-.018.297.001.623.056.979l.435 2.744c.075.468.182.874.32 1.213.138.34.3.622.486.846.294.361.619.622.975.783.355.161.704.254 1.045.28.342.026.639.017.89-.027.253-.036.539-.119.855-.249.317-.13.62-.326.908-.589s.517-.611.685-1.045c.108-.271.175-.588.201-.955a5.641 5.641 0 0 0-.07-1.254l-.433-2.744zm-.525 2.751c.019.105.039.272.063.501.023.229.03.475.019.737-.01.262-.057.495-.14.698-.164.376-.39.671-.678.885a2.27 2.27 0 0 1-1.018.412c-.389.062-.754.037-1.095-.077s-.647-.325-.919-.633a2.052 2.052 0 0 1-.349-.62 5.096 5.096 0 0 1-.209-.707 7.592 7.592 0 0 1-.095-.496l-.378-2.388a5.316 5.316 0 0 1-.05-1.097 2.18 2.18 0 0 1 .173-.758c.169-.364.409-.652.719-.863.311-.21.621-.34.932-.388.31-.05.645-.022 1.006.082.36.105.678.304.951.599.166.187.299.41.398.667.1.257.173.489.219.696.045.207.069.328.073.363l.378 2.387zM75.924 25.757c-.007-.538.122-.957.386-1.257s.591-.46.982-.477c.375-.005.674.073.896.233.223.161.383.354.481.582.099.228.15.44.154.637.012.164-.022.363-.103.597-.08.234-.245.444-.496.633-.25.188-.625.296-1.124.323h-.18c-.065-.001-.112-.002-.142-.001l.029.833c.276-.004.496-.003.66.003.164.006.313.022.449.049a2.11 2.11 0 0 1 1.198.719c.305.368.469.786.492 1.256.009.698-.175 1.244-.551 1.634-.375.391-.848.598-1.417.622-.413.008-.773-.076-1.082-.253a2.108 2.108 0 0 1-.74-.7 1.89 1.89 0 0 1-.271-.604 4.644 4.644 0 0 1-.108-.657l-.949.033c.083.862.318 1.515.705 1.958.387.444.814.74 1.282.89.468.149.866.213 1.192.192a2.992 2.992 0 0 0 1.46-.437c.442-.27.794-.64 1.055-1.112.261-.472.385-1.022.371-1.651 0-.188-.044-.43-.13-.727a2.789 2.789 0 0 0-.494-.914c-.243-.313-.599-.586-1.068-.822.248-.194.463-.434.646-.718.183-.285.272-.651.267-1.102-.034-.675-.274-1.238-.721-1.689-.447-.451-1.036-.674-1.766-.668-.654.029-1.201.271-1.641.728-.439.457-.664 1.09-.673 1.9l.951-.033z"/><path fill="#cc2229" d="M45.917 153.821l3.044-.988.99 3.043-3.044.989-.99-3.044z"/><path fill="#1e71b8" d="M45.636 35.444l3.077.884-.881 3.076-3.078-.883.882-3.077zM129.588 43.073l5.227.079c3.801.237 7.619.941 11.41 2.03 4.117 1.178 8.213 2.953 12.359 5.357 6.648 3.849 14.412 11.622 18.271 18.282 3.463 5.977 5.693 12.145 6.703 18.221.287 1.732.693 5.202.693 5.399v7.026c0 .198-.158 1.29-.219 1.913-.285 3.068-.961 6.52-1.871 9.587a53.908 53.908 0 0 1-5.309 12.121c-2.633 4.443-6.965 9.817-11.854 13.756-5.869 4.74-11.998 7.785-17.984 9.636a51.208 51.208 0 0 1-4.596 1.188c-1.146.228-5.678 1.09-7.459 1.09h-6.879l-4.551-.515c3.281-.445 6.539-1.314 9.764-2.442 3.02-1.059 6.258-2.609 9.414-4.43 13.182-7.581 22.029-22.042 24.305-33.035.148-.723.387-1.503.504-2.216.119-.752.902-5.14.902-6.634v-7.065c0-1.742-.861-6.266-1.09-7.424a47.29 47.29 0 0 0-2.105-7.356c-1.107-2.919-2.441-5.842-4.191-8.781-2.246-3.76-5.465-7.987-9.465-11.688-5.164-4.799-10.762-8.136-15.977-10.175-1.406-.544-2.928-1.117-4.432-1.582-2.514-.772-5.059-1.453-7.627-1.75l6.057-.592zM124.467 23.112c11.082-6.399 28.488 2.844 43.117 0V39.65c-14.596 2.312-29.744-6.521-43.117 0V23.112z"/><path d="M71.312 44.306h.292c-.61.245-1.252.505-1.886.782-.809.357-1.67.766-2.468 1.176a39.123 39.123 0 0 0-5.662 3.591c-.045.018-.053.062-.159.062-.368 0-2.855-.826-3.151-.957 1.289-.658 2.599-1.292 3.93-1.84a58.147 58.147 0 0 1 2.896-1.107 46.348 46.348 0 0 1 5.239-1.517c.336-.076.862-.199.969-.19z" fill="#96c478"/><path d="M75.519 45.501c-.477.325-.948.659-1.412 1.015-.468.362-.999.829-1.446 1.234-.484.441-.994.957-1.479 1.478-.575.622-1.516 1.837-1.622 1.837l-4.853-.57c3.533-2.369 7.259-4.031 10.812-4.994z" fill="#cc2444"/><path d="M81.244 45.535h.146v5.997h-2.97c.54-1.898 1.282-3.963 2.479-5.82.059-.091.213-.137.345-.177z" fill="#6b8b4a"/><path d="M78.41 46.517c-.746 1.604-1.384 3.31-1.919 4.971l-4.161-.222c1.887-2.157 4.039-3.86 6.08-4.749z" fill="#cc2444"/><path d="M56.449 49.959c.106 0 .493.273.711.369.841.367 1.701.696 2.567 1.011-3.711 3.075-7.128 7.099-9.342 10.53-.054.085-.13.18-.216.18l-7.256-1.078c2.117-2.517 4.738-4.856 7.116-6.74.671-.532 1.395-1.049 2.13-1.576.909-.648 4.05-2.696 4.29-2.696z" fill="#96c478"/><path d="M62.6 52.088c.107 0 1.244.261 1.835.367 1.229.229 2.468.399 3.719.582-2.269 3.347-3.874 6.796-5.202 10.201l-2.951-.21-7.127-.693c.471-.66.939-1.347 1.46-2.022a53.198 53.198 0 0 1 2.641-3.152c.613-.676 5.034-5.073 5.625-5.073z" fill="#efc732"/><path d="M70.689 53.322l5.126.435a124.082 124.082 0 0 0-2.133 9.948l-8.375-.346c.21-.573.472-1.169.706-1.723.271-.633.575-1.321.895-1.959.186-.378.394-.814.58-1.192.191-.383.447-.82.639-1.193.207-.398 2.392-3.97 2.562-3.97z" fill="#658d8b"/><path d="M77.743 53.859h3.646v9.907h-5.565c.442-3.279 1.081-6.703 1.919-9.907z" fill="#5e8fbf"/><path d="M41.435 62.689c2.47.473 5.124.946 7.604 1.288-2.731 4.607-4.729 9.386-6.011 13.991l-9.779-1.114c1.782-4.669 4.388-9.449 8.186-14.165z" fill="#658d8b"/><path d="M51.565 64.351c3.466.477 7.046.77 10.585 1.071-1.584 4.521-2.663 9.216-3.411 13.736l-5.293-.335-8.062-.648c1.408-4.616 3.283-9.219 6.181-13.824z" fill="#2ba67a"/><path d="M64.462 65.586l5.674.337 3.158.087c.049.047.055.02.055.126s-.405 2.668-.543 3.983a683.214 683.214 0 0 0-.866 8.943v.606l-10.847-.363c.731-4.806 1.79-9.147 3.369-13.719z" fill="#cc2229"/><path d="M75.485 66.121h5.904v13.632h-7.183l.165-2.4c.32-4.7.634-7.516 1.114-11.232z" fill="#5e8fbf"/><path d="M32.491 78.911l9.905 1.198c-.885 3.748-1.391 7.219-1.699 10.827l-.177 3.845H29.677l.122-2.699c.319-4.385 1.214-8.775 2.692-13.171z" fill="#efc732"/><path d="M44.793 80.359l10.87.89 2.739.178-.719 7.082-.195 3.32v2.951H42.874l.165-3.762c.281-3.486.857-7.166 1.754-10.659z" fill="#2a5fa9"/><path d="M71.769 82.022l-.359 7.976v4.782H59.817l.165-5.082c.256-4.614.441-5.333.731-8.104l11.056.428z" fill="#927bb5"/><path fill="#6b8b4a" d="M74.08 82.085h7.309V94.78h-7.65l.164-8.402.177-4.293z"/><path d="M29.677 97.135H40.52l.177 3.632c.325 3.576.776 7.148 1.742 10.741l-10.033 1.241c-1.451-4.312-2.255-8.616-2.607-12.916l-.122-2.698z" fill="#658d8b"/><path d="M42.874 97.135h14.589l.262 5.803.804 7.253-3.08.178-10.657.89c-.944-3.47-1.445-7.056-1.754-10.573l-.164-3.551z" fill="#e8ad60"/><path d="M59.817 97.135h11.567l.177 6.825.25 5.635-9.125.348-1.845.123c-.343-2.536-.55-4.607-.816-7.764l-.208-5.167z" fill="#cc2229"/><path fill="#efc732" d="M73.767 97.135h7.622v12.397h-7.267l-.355-10.594v-1.803z"/><path d="M81.389 111.864v13.59H75.57c-.512-4.441-.89-6.629-1.32-13.59h7.139z" fill="#a4d6f6"/><path d="M71.98 111.948c.374 4.474.741 9.129 1.492 13.609l-8.552.434c-.106 0-.166-.008-.2-.053a53.68 53.68 0 0 1-.751-2.218c-1.192-3.726-2.135-7.518-2.748-11.387l10.759-.385z" fill="#2a5fa9"/><path d="M58.867 112.458c.79 4.569 1.912 9.121 3.538 13.694-3.629.355-7.252.632-10.883 1.157-2.803-4.558-4.848-9.305-6.139-13.867l13.484-.984z" fill="#6b8b4a"/><path d="M42.762 113.688c.106 0 .181.004.256.051a70.644 70.644 0 0 0 1.009 3.199c1.224 3.502 2.797 7.116 4.97 10.701l-7.668 1.373c-3.702-4.348-6.84-10.421-8.163-14.207l9.596-1.117z" fill="#5e8fbf"/><path d="M81.389 127.808v9.95h-3.434c-.896-3.226-1.53-6.596-2.047-9.95h5.481z" fill="#658d8b"/><path d="M73.853 127.87a96.262 96.262 0 0 0 2.175 9.99l-4.679.392c-.138 0-.815-.945-.906-1.073a39.694 39.694 0 0 1-3.509-5.963 79.295 79.295 0 0 1-1.329-3l8.248-.346z" fill="#2ba67a"/><path d="M63.25 128.379c1.392 3.319 3.077 6.822 5.458 10.158-1.124.184-2.278.349-3.422.534-.889.145-2.622.586-2.728.586s-.615-.479-.907-.718c-2.4-1.953-5.155-4.719-7.017-7.166a51.286 51.286 0 0 1-1.801-2.491c3.475-.31 4.769-.608 10.417-.903z" fill="#96c478"/><path d="M50.177 129.569c2.34 3.547 5.673 7.592 9.591 10.837-.568.187-1.173.42-1.758.665-.516.218-1.52.842-1.626.842s-1.677-.987-2.523-1.524c-3.651-2.331-7.7-5.661-11.163-9.657l7.479-1.163zM81.389 140.08v5.193h-.138c-.484.003-.822-.928-.977-1.199-.761-1.299-1.172-2.638-1.643-3.994h2.758zM76.745 140.171l1.621 4.121c-1.722-.843-3.617-2.146-5.313-3.94l3.692-.181z" fill="#e8ad60"/><path d="M70.071 140.552c.165 0 .234.012.405.22 2.464 2.922 5.456 5.129 8.108 6.106-4.574-.766-9.323-2.664-13.877-5.672l5.364-.654z" fill="#2ba67a"/><path d="M61.429 141.786c.106 0 2.368 1.647 3.565 2.371 2.07 1.25 4.168 2.308 6.268 3.104-.746-.025-1.525-.047-2.238-.17-.729-.128-1.493-.421-2.259-.654-2.847-.879-5.708-2.083-8.572-3.521.223-.147.438-.255.651-.351.208-.091 2.335-.779 2.585-.779z" fill="#658d8b"/><path d="M93.07 43.073l5.229.079c3.801.238 7.619.941 11.408 2.03 4.117 1.178 8.213 2.953 12.359 5.358 6.65 3.849 14.412 11.622 18.271 18.281 3.463 5.977 5.695 12.146 6.703 18.221.287 1.732.693 5.202.693 5.4v7.025c0 .198-.158 1.29-.217 1.914-.287 3.067-.963 6.519-1.871 9.586a54.09 54.09 0 0 1-5.309 12.121c-2.633 4.443-6.967 9.818-11.855 13.756-5.867 4.74-11.996 7.785-17.984 9.636-1.492.455-3.09.882-4.594 1.188-1.148.228-5.68 1.09-7.459 1.09h-6.88l-4.55-.515c3.281-.445 6.538-1.314 9.764-2.442 3.018-1.059 6.256-2.609 9.415-4.43 13.182-7.581 22.027-22.041 24.305-33.035.148-.723.385-1.503.504-2.215.119-.753.9-5.141.9-6.635v-7.065c0-1.742-.859-6.266-1.088-7.424a47.701 47.701 0 0 0-2.105-7.356c-1.109-2.919-2.441-5.842-4.193-8.781-2.246-3.76-5.465-7.987-9.463-11.688-5.166-4.799-10.764-8.136-15.979-10.174-1.406-.544-2.927-1.117-4.431-1.583-2.513-.771-5.059-1.453-7.628-1.75l6.055-.592zM87.95 155.015c11.082-6.399 28.488 2.844 43.117 0v16.537c-14.598 2.312-29.744-6.521-43.117 0v-16.537z" fill="#cc2229"/></g></svg>