<svg xmlns="http://www.w3.org/2000/svg" width="2500" height="2500" viewBox="0 0 192.756 192.756"><g fill-rule="evenodd" clip-rule="evenodd"><path fill="#fff" d="M0 0h192.756v192.756H0V0z"/><path d="M184.252 80.253c0-9.573-7.436-17.38-16.637-17.38h-30.02c-5.482 0-10.594 2.324-13.568 6.599-3.066-4.275-7.621-6.599-13.104-6.599H82.855c-5.483 0-10.316 2.23-13.291 6.506-3.067-4.275-7.993-6.506-13.476-6.506H25.233c-9.201 0-16.636 7.807-16.636 17.38l-.093 32.342c0 9.572 7.436 17.287 16.636 17.287h30.949c5.483 0 10.409-2.23 13.476-6.506 2.974 4.275 7.807 6.506 13.291 6.506h28.068c5.391 0 10.037-2.416 13.01-6.691 3.068 4.275 8.086 6.691 13.57 6.691h30.111c9.201 0 16.637-7.715 16.637-17.287V80.253zM181 111.109c0 8.828-7.156 15.893-15.986 15.893h-28.625c-5.205 0-9.76-2.51-12.732-6.412-2.881 3.902-7.621 6.412-12.826 6.412H82.298c-5.298 0-9.945-2.51-12.918-6.412-2.881 3.902-7.528 6.412-12.826 6.412H28.021c-8.922 0-16.078-7.064-16.078-15.986l.093-29.647c0-8.829 7.156-16.078 15.985-16.078h28.532c5.298 0 9.945 2.602 12.826 6.598 2.974-3.996 7.621-6.598 12.918-6.598h28.532c5.205 0 9.852 2.602 12.826 6.412 2.881-3.81 7.527-6.412 12.824-6.412h28.533c8.83 0 15.986 7.249 15.986 16.078v29.74H181zM96.518 87.038c0-.651-.093-2.417.279-2.881.743-1.022 1.487-1.115 2.696-1.115 1.857 0 3.066 0 4.832.558 2.51.836 3.719 2.695 3.719 5.019 0 5.577-2.604 7.342-7.623 7.156l-2.693.093c-.837 0-1.209-.186-1.209-1.022v-7.808h-.001zm-6.692 14.499c0 1.486 0 4.461-.278 5.762-.372 1.207-2.231.65-3.625.65-.743 0-1.58-.279-2.417-.279-1.022 0-1.394.744-1.673 1.674-.465 1.951.744 2.881 1.766 2.881 1.394 0 5.669-.465 8.271-.465 2.695 0 10.409.65 11.803.65 1.209 0 1.859-.836 2.324-1.859.742-1.393-.559-3.066-1.58-3.066-.93 0-1.674.279-2.51.279-1.301 0-4.74.742-5.112-.465-.372-1.301-.186-4.275-.186-5.762l.186-.93c0-.836.278-1.023 1.208-1.023l1.674-.092c3.717 0 7.992.092 11.152-1.301 3.531-1.58 4.09-6.042 4.09-9.481 0-3.16-1.023-6.598-4.184-8.271-2.508-1.301-7.156-1.394-10.129-1.394-1.488 0-5.112.372-9.48.465-2.417-.093-5.297-.279-6.785-.465-1.301 0-2.602 1.673-1.952 3.439.279.836.744 1.301 1.766 1.301.743 0 1.58-.278 2.416-.278 1.395 0 2.695.558 2.975 1.766.371 1.394.278 3.438.278 4.926v11.338h.002zm-50.931-.558c0-1.672 0-14.591-.372-16.171-.279-1.487-1.766-1.301-3.16-1.301-.744 0-1.301.186-2.137.186-1.022 0-1.859-.929-1.952-1.952-.093-2.138 1.766-2.602 2.881-2.602.929 0 4.926.743 8.271.743s7.342-.558 8.271-.558c1.116 0 2.974.465 2.881 2.603-.093 1.301-1.115 1.952-2.045 1.952-.743 0-1.301-.186-2.138-.186-1.394 0-2.881-.186-3.16 1.208-.372 1.58-.186 14.406-.186 16.172 0 1.672-.093 5.111.279 6.691.278 1.486 1.766 1.207 3.16 1.207.744 0 1.301-.092 2.137-.092 1.022 0 1.952.93 1.952 1.951.093 2.139-1.766 2.51-2.881 2.51-.929 0-4.926-.744-8.271-.744s-7.342.559-8.271.559c-1.116 0-2.974-.465-2.881-2.51.093-1.021 1.022-2.045 2.045-2.045.743 0 1.301.186 2.138.186 1.301 0 2.881.186 3.16-1.207.279-1.581.279-4.835.279-6.6zm108.181-.465c0-1.766.094-14.684-.279-16.264-.277-1.394-1.766-1.208-3.16-1.208-.742 0-1.393.186-2.137.186-1.021 0-1.951-1.022-1.951-1.951-.094-2.138 1.672-2.603 2.881-2.603.93 0 4.832.744 8.271.744 3.346 0 7.25-.558 8.178-.558 1.209 0 2.975.372 2.883 2.51 0 1.022-.93 1.952-1.953 1.952-.742 0-1.395-.093-2.137-.093-1.395 0-2.881-.186-3.16 1.208-.371 1.58-.279 14.406-.279 16.078 0 1.766 0 5.205.373 6.785.277 1.395 1.766 1.207 3.066 1.207.836 0 1.395-.186 2.23-.186.93 0 1.859.93 1.951 1.953.094 2.137-1.766 2.602-2.881 2.602-.93 0-4.926-.744-8.271-.744s-7.342.559-8.271.559c-1.115 0-2.975-.465-2.881-2.604.092-1.021.93-1.951 1.951-1.951.836 0 1.395.186 2.137.186 1.395 0 2.883.186 3.16-1.301.373-1.582.279-4.833.279-6.507z" fill="#345697"/></g></svg>