<svg xmlns="http://www.w3.org/2000/svg" width="2500" height="2500" viewBox="0 0 192.756 192.756"><g fill-rule="evenodd" clip-rule="evenodd"><path fill="#fff" d="M0 0h192.756v192.756H0V0z"/><path d="M24.745 67.506H4.424l-.365-.11-.366.055-.292.127-.237.183-.183.237-.11.292-.037.329.019.347.128.274.183.219.274.146.347.091.329.055.493.091.695.146.694.201.658.183.585.256.548.274.494.347.457.365.384.457.311.512.256.585.165.676.091.749.055.768.036.75V112l-.127.914v1.06l-.11.841-.109.841-.11.749-.091.73-.219.53-.22.621-.091.438-.329.421-.201.42-.311.311-.329.312-.311.219-.311.201-.42.109-.421.109-.53.11h-.42l-.476.185-.512-.019-.348.019-.347.055-.274.146-.22.2-.164.256-.091.329-.019.365.037.365.128.293.201.201.274.146.347.072.932-.072h18.968l.548-.019.383-.019.366-.055.311-.092.237-.183.183-.237.109-.311.019-.348-.055-.347-.128-.292-.183-.22-.274-.146-.347-.091-.347-.055-.548-.073-.713-.128-.694-.146-.658-.183-.621-.22-.566-.256-.475-.347-.42-.421-.329-.512-.292-.548-.201-.621-.146-.694-.146-.676-.164-.658-.128-.658-.091-.657-.055-.713-.018-.786.018-.768.053-35.957.055-.694.128-.695.165-.676.201-.622.256-.584.292-.53.348-.493.42-.42.457-.366.53-.311.603-.237.658-.183.676-.146.676-.164.639-.183.494-.128.311-.11.292-.128.22-.201.146-.238.055-.292-.055-.329-.11-.274-.183-.238-.256-.164-.329-.073-.384-.055zm-5.702-11.677l-.018-.457-.055-.438-.091-.438-.127-.421-.183-.42-.201-.384-.237-.384-.274-.347-.311-.329-.33-.311-.348-.274-.384-.238-.384-.201-.42-.183-.42-.128-.439-.091-.438-.055-.457-.037-.438.037-.439.055-.438.091-.42.128-.42.183-.402.201-.365.238-.366.274-.329.311-.292.329-.274.347-.238.384-.219.384-.165.42-.128.421-.109.438-.055.438-.019.457.019.438.055.438.109.438.128.42.165.421.219.402.238.365.274.366.292.329.329.292.365.274.365.238.402.201.402.183.438.128.438.091.439.073.438.018.457-.018.438-.073.439-.091.42-.128.42-.183.384-.201.384-.238.348-.274.329-.292.311-.329.274-.366.237-.365.201-.402.183-.421.127-.42.091-.438.055-.438.02-.438zm35.653 17.269l.201-1.206.75-.731 1.151-.42 1.59-.22 1.956.329h1.937l1.9.201 1.901.311 1.681.329 1.571.42 1.48.53 1.37.512 1.262.64 1.169.73 1.042.75.95.731.858.749.731.841.621.841.438.95.42.84.311.951.201.95.22.95v.95l-.11.932-.201.95-.22.95-.42.95-.42.841-.53.95-.731.841-.75.84-.731.749-.95.731-1.06.75-1.042.622-1.169.639-1.261.53-1.37.511-1.371.421-1.571.328-1.59.311-1.682.11-1.589.237-1.992-.128-1.901-.22-1.589-.311-1.042-.529-.42-.713v-22.22h.001zm13.65-5.976H40.003l-1.462-.019-.292.055-.202.092-.146.201-.164.493-.073.512.073.329.164.311.256.256.329.146.329.146.512.219.676.311.64.329.658.329.603.365.53.438.457.53.366.603.311.658.274.695.238.749.183.786.128.84.073.896.036.95v35.141l-.036.877-.091.859-.128.84-.146.805-.22.768-.274.676-.365.64-.42.548-.457.494-.548.456-.603.348-.694.292-.731.238-.749.237-.622-.037-.402.019-.383.055-.311.146-.256.237-.109.311.037.366.146.311.274.219.329.164.365.092.402.055H60.528l.676-.128.402-.091.347-.128.201-.237.037-.312-.092-.311-.183-.292-.274-.237-.494-.22-.731-.237-.822-.165-.841-.127-.822-.165-.768-.201-.694-.274-.585-.383-.457-.512-.311-.677-.165-.804-.11-.859-.073-.84-.037-.859-.036-.877v-10.909l.146-.713.073-.421.11-.383.165-.274.237-.22.292-.072.384.036.347.092.53.2.658.329.603.365.603.384.567.402.548.42.512.476.493.475L93.4 138.557l.475.512.475.493.494.476.493.476.53.456.584.384.694.274.822.164.879.092.912.055.914.073.932.018h1.81l.895.019.932.019H110.048l.914-.019h.895l.914.019h.914l.713-.019.438-.055.402-.073.293-.183.219-.292.109-.348v-.438l-.055-.384-.146-.329-.236-.255-.33-.165-.365-.128-.584-.128-.822-.164-.842-.092-.822-.055-.822-.091-.803-.129-.805-.164-.768-.183-.768-.22-.75-.201-.748-.237-.732-.237-.711-.256-.695-.292-.621-.348-.584-.401-.549-.421-.531-.438-.529-.438-.492-.476-.477-.493-.492-.493-.494-.493-.877-1.023-.75-.841-.839-.841-.731-.95-.841-.841-.749-.95-.84-.95-.731-.841-.841-.95-.858-.95-.731-.949-.84-.951-.731-.95-.859-.95-.731-.84-.841-.951-.731-.95-.859-.84-.73-.841-.841-.95-.731-.841-.75-.841-.84-.841-.731-.749-.749-.841-.731-.73-.731-.73-.749-.75-.731-.621-.731-.64-.749-.64-.622-.621-.749-.53-.621-.529-.64-.53-.731-.42-.639-.421-.64-.42-.622-.311-.493-.146-.566-.402-.457-.273-.274-.22-.256-.237-.128-.274-.036-.329.128-.237.311-.146.347-.073h.402l.402-.019.64-.073 2.211-.274 2.211-.311 2.01-.42 1.791-.53 1.791-.529 1.59-.622 1.462-.749 1.371-.73 1.261-.841 1.06-.841.95-.95.841-1.06.749-.95.622-1.151.42-1.06.42-1.042.22-1.169.109-1.151.091-1.169-.091-1.151-.219-1.169-.311-1.151-.427-1.18-.53-1.151-.639-1.151-.731-1.06-.731-1.06-.95-1.042-1.06-.95-1.06-.95-1.261-.841-1.261-.858-1.371-.731-1.48-.73-1.571-.64-1.682-.53-1.699-.42-1.9-.421-1.882-.311-1.846-.037zm79.783.53h-40.348l-.385.055-.348.128-.236.219-.129.256-.035.274.127.329.273.311.494.311.695.274.949.256.768.219.713.256.658.311.584.402.512.457.439.53.346.622.256.731.129.841.092.877.072.914v39.215l.055.841-.127.804-.221.731-.291.676-.385.585-.492.475-.604.366-.676.311-.732.256-.766.2-.787.184-.621.109-.402.073-.42.073-.348.146-.291.183-.184.312-.092.384v.383l.109.385.221.273.311.164.402.092.475.055h20.869l.584-.055.348-.092.328-.164.219-.256.092-.384v-.365l-.127-.384-.221-.256-.311-.164-.383-.128-.621-.092-.842-.128-.803-.183-.768-.201-.713-.274-.641-.328-.584-.384-.494-.476-.42-.566-.328-.64-.238-.73-.146-.841-.092-.877.02-15.46-.164-.969.018-.712.072-.421.129-.365.184-.311.236-.237.275-.22.475-.237.693-.274.768-.201.842-.109h.857l.859.055h.859l.877.019.859.072.84.11.859.092.932.054.932.037.914.073.84.128.787.183.73.237.693.293.604.365.529.438.457.512.385.603.293.677.256.73.182.786.146.822.127.841.166.566.164.329.201.292.273.165.348.072.311-.072.311-.184.201-.273.092-.365.055-.402-.037-.64v-16.36l-.055-.42-.109-.384-.201-.292-.273-.202-.311-.073-.348.036-.275.165-.199.274-.166.329-.127.603-.184.786-.201.786-.219.75-.273.712-.33.64-.42.548-.512.457-.566.402-.639.347-.732.237-.803.183-.822.146-.842.127-.857.128-.859.091-.859.055-.877.019h-.914l-.914.018-.877.055-.877.055-.859-.019-.877-.036-.857-.073-.896-.091-.529-.183-.311-.183-.275-.219-.182-.311-.092-.384-.072-.42-.02-.694-.055-.932V75.309l.146-.914.146-.823.293-.676.438-.548.566-.402.713-.274.822-.146.896-.073 13.686.018.842.128.803.165.768.201.713.274.641.311.602.402.549.402.531.457.455.512.402.566.348.64.293.676.273.712.256.713.219.749.221.75.164.566.146.365.145.311.221.256.256.182.291.037.33-.092.236-.219.146-.347.074-.402-.385-10.471-.201-.548-.164-.329-.182-.292-.256-.238-.33-.165-.365-.091zm40.494-.146h-20.338l-.365-.11-.365.055-.293.127-.238.183-.182.237-.109.292-.037.329.037.347.109.274.182.238.275.146.346.073.348.073.494.091.676.128.713.201.639.201.586.237.547.292.512.329.439.383.383.439.33.53.238.584.164.658.09.749.074.768.037.75v35.889l-.146.933v1.041l-.109.841-.109.859-.092.73-.109.73-.221.53-.201.64-.109.42-.311.421-.219.42-.311.311-.311.329-.33.201-.311.219-.42.092-.42.109-.529.11h-.422l-.475.183-.512-.019-.348.019-.346.072-.275.129-.219.2-.164.256-.074.329-.035.365.035.365.129.293.201.219.273.129.365.072.934-.055h18.949l.566-.036.365-.019.365-.036.311-.11.256-.183.164-.237.109-.311.02-.329-.055-.365-.129-.274-.182-.237-.275-.146-.328-.073-.348-.072-.566-.073-.713-.11-.693-.146-.658-.183-.604-.22-.566-.274-.492-.347-.402-.421-.348-.493-.293-.548-.201-.64-.146-.676-.145-.694-.166-.658-.127-.64-.092-.676-.055-.713v-1.554l.055-35.944.074-.712.109-.695.164-.657.219-.64.238-.584.293-.53.365-.493.4-.42.477-.366.512-.311.602-.237.658-.165.695-.165.658-.164.656-.183.494-.128.311-.11.273-.128.221-.201.146-.238.055-.292-.037-.311-.129-.292-.182-.238-.256-.146-.33-.091-.363-.051zm-5.592-11.677l-.018-.439-.055-.457-.109-.421-.129-.438-.164-.401-.219-.402-.238-.384-.273-.347-.293-.329-.328-.311-.365-.256-.367-.256-.4-.201-.402-.165-.439-.146-.438-.091-.439-.055-.438-.019-.457.019-.439.055-.438.091-.422.146-.42.165-.383.201-.385.256-.348.256-.328.311-.311.329-.273.347-.238.384-.201.402-.164.401-.146.421-.092.438-.055.457-.018.439.018.438.055.457.092.42.146.438.164.402.201.402.238.384.273.347.311.329.328.311.348.255.385.256.383.201.42.165.422.146.438.091.439.055.457.018.438-.018.439-.055.438-.091.42-.146.422-.165.4-.201.367-.256.365-.255.328-.311.293-.329.273-.347.238-.384.219-.402.164-.402.129-.42.109-.438.055-.457.017-.438z" fill="#fde62f"/></g></svg>