<svg xmlns="http://www.w3.org/2000/svg" width="2500" height="2500" viewBox="0 0 192.756 192.756"><path fill-rule="evenodd" clip-rule="evenodd" fill="#fff" d="M0 0h192.756v192.756H0V0z"/><path d="M98.951 22.53c41.012 0 74.459 33.448 74.459 74.447 0 41.012-33.447 74.46-74.459 74.46-41 0-74.448-33.448-74.448-74.46 0-40.999 33.448-74.447 74.448-74.447z" fill-rule="evenodd" clip-rule="evenodd" fill="#607381"/><path d="M112.377 97.495c-.441 7.021-6.303 12.594-13.426 12.594-7.124 0-12.974-5.572-13.428-12.594h9.191c.404 1.979 2.156 3.467 4.237 3.467a4.341 4.341 0 0 0 4.248-3.467h9.178zm54.818 0c-.467 37.204-30.939 67.398-68.244 67.398-37.293 0-67.766-30.194-68.233-67.398h9.128c.466 32.174 26.841 58.258 59.105 58.258 32.273 0 58.648-26.084 59.115-58.258h9.129zm-18.269 0c-.453 27.143-22.73 49.131-49.975 49.131-27.246 0-49.51-21.988-49.965-49.131h9.128c.454 22.112 18.621 40.003 40.836 40.003 22.213 0 40.381-17.891 40.848-40.003h9.128zm-18.268 0c-.453 17.082-14.523 30.862-31.707 30.862-17.185 0-31.242-13.78-31.709-30.862h9.141c.454 12.053 10.414 21.734 22.568 21.734 12.152 0 22.125-9.682 22.58-21.734h9.127z" fill-rule="evenodd" clip-rule="evenodd" fill="#fff"/><path d="M99.014 34.911c33.826 0 61.436 27.824 61.764 62.066H37.237c.327-34.242 27.951-62.066 61.777-62.066z" fill-rule="evenodd" clip-rule="evenodd" fill="#cc203c"/><path d="M98.951 28.733c37.596 0 68.256 30.661 68.256 68.244 0 37.596-30.66 68.257-68.256 68.257-37.584 0-68.245-30.661-68.245-68.257 0-37.582 30.661-68.244 68.245-68.244zm0 9.039c32.615 0 59.217 26.59 59.217 59.205s-26.602 59.217-59.217 59.217c-32.617 0-59.206-26.602-59.206-59.217s26.589-59.205 59.206-59.205z" fill-rule="evenodd" clip-rule="evenodd" fill="#fff"/><path d="M108.107 30.716c2.387 2.646 4.275 6.847 5.861 11.991 1.555 5.039 2.824 10.999 3.992 17.281l1.117.657c1.027.605 2.059 1.211 3.395 1.99.096.056.307.343.332.452.123.544.25 1.073.381 1.61l.096.399h.002c-.072-.301-.193-.802 0 0a.1.1 0 0 1 .004.024c0-.008-.002-.016-.004-.024h-.002c.004.012.006.024.008.035.037.249-.135.618-.348.736l-1.803 1.002-1.34.744 2.17 8.946c.768 3.155 1.533 6.31 2.295 9.462.051.206-.092.599-.262.725-.395.293-.818.617-1.25.947l.02.066c.127.445-.246.914-.707.892l-.543-.026-.119.093-.33.255c-.4.306-1.012.075-1.111-.419 0-.002 0-.004-.002-.007l-.465-.023c-.336-.016-.674-.033-.965-.049-.246-.015-.582-.295-.641-.536-.762-3.152-1.529-6.304-2.295-9.456-.717-2.956-1.436-5.912-2.152-8.867-1.098.107-2.25.227-3.4.346-.301.031-.678-.238-.75-.531l-.246-1.008-.246-1.009a1.316 1.316 0 0 1 .066-.498c.822-1.513 1.645-3.026 2.695-4.972-1.84-6.064-3.443-11.918-4.391-17.177-.957-5.328-1.234-10.029-.391-13.692a.825.825 0 0 1 .041-.241v-.005a.684.684 0 0 1 .457-.439l.012-.003a.678.678 0 0 1 .639.125l.002-.001a.699.699 0 0 1 .178.205z" fill="#cc2229"/><path d="M121.051 33.083c2.389 2.651 4.275 6.85 5.859 11.987 1.553 5.04 2.818 10.998 3.984 17.286.596.348 1.357.796 2.121 1.246.707.416 1.408.83 2.393 1.403.092.053.303.336.328.44.221.896.439 1.792.494 2.02.061.25-.119.649-.344.774-1.035.571-1.416.783-1.807 1l-1.346.746c.639 2.638 1.281 5.276 1.922 7.915.848 3.495 1.697 6.991 2.543 10.492.049.207-.092.598-.264.725-.393.292-.816.616-1.248.947l.02.066c.127.445-.246.914-.707.892l-.539-.026-.123.093-.324.251c-.4.311-1.018.081-1.117-.416l-.002-.007-.416-.02c-.357-.018-.713-.034-1.004-.052-.246-.014-.578-.295-.637-.536a9564.28 9564.28 0 0 1-4.461-18.323c-1.098.107-2.25.226-3.402.345-.299.031-.678-.237-.748-.53l-.246-1.009a758.93 758.93 0 0 0-.246-1.009c-.021-.088.021-.418.066-.498l1.414-2.614c.283-.521.572-1.057 1.281-2.358-1.834-6.064-3.438-11.918-4.385-17.178-.965-5.349-1.242-10.065-.389-13.741a.769.769 0 0 1 .1-.318.685.685 0 0 1 .461-.335v-.002a.683.683 0 0 1 .607.152v-.001c.06.049.117.114.162.193z" fill="#cc2229"/><path d="M107.523 31.116c4.689 5.118 7.451 16.566 9.809 29.312 1.588.933 3.189 1.878 4.791 2.812.15.668.314 1.336.479 2.017-1.197.669-2.408 1.336-3.605 2.005 1.525 6.304 3.064 12.62 4.59 18.924-.543.403-1.086.819-1.627 1.235.051.176.088.353.139.529a105.7 105.7 0 0 1-.795-.038c-.215.164-.441.34-.654.504a7.053 7.053 0 0 0-.127-.542c-.643-.038-1.299-.063-1.953-.101-1.525-6.303-3.064-12.607-4.59-18.911-1.336.126-2.674.265-4.01.403-.164-.668-.328-1.349-.492-2.017.947-1.74 1.893-3.479 2.838-5.232-3.744-12.305-6.531-23.727-4.828-30.889-.027-.086.01-.1.035-.011z" fill-rule="evenodd" clip-rule="evenodd" fill="#fff"/><path d="M120.459 33.474c4.703 5.131 7.451 16.566 9.809 29.325 1.602.933 3.189 1.878 4.791 2.812.164.668.328 1.336.49 2.017-1.209.668-2.406 1.337-3.617 2.005 1.525 6.304 3.062 12.607 4.59 18.924-.543.403-1.086.819-1.627 1.235.051.177.088.354.139.529l-.781-.037c-.229.164-.441.327-.668.504a41.075 41.075 0 0 0-.115-.542c-.656-.038-1.311-.063-1.953-.101a10187.09 10187.09 0 0 1-4.602-18.911c-1.336.125-2.674.265-4.01.403-.164-.668-.328-1.35-.492-2.018.947-1.739 1.893-3.492 2.838-5.232-3.732-12.305-6.531-23.728-4.83-30.901-.013-.075.024-.088.038-.012z" fill-rule="evenodd" clip-rule="evenodd" fill="#fff"/><path d="M11.725 21.58C34.825 40.153 59.598 55 85.676 66.938c26.099 11.947 53.511 20.987 81.873 27.939 1.342.329 1.043 2.769-.334 2.757h-.041c-45.289-.35-90.592-.688-135.883-1.025l-1.006-.008c-1.295-.01-1.827-1.929-.717-2.599 3.997-2.415 7.994-4.832 11.99-7.25l9.571-5.788c-3.627-1.432-6.139-2.427-8.646-3.42l-8.066-3.193c-.174-.069-.669-.532-.75-.701-4.015-8.396-8.027-16.793-12.04-25.189S13.6 31.667 9.585 23.271c-.573-1.198 1.103-2.525 2.14-1.691z" fill="#d0d1d3"/><path d="M84.516 69.477C60 58.253 36.631 44.482 14.708 27.495c3.15 6.587 6.297 13.175 9.445 19.762 3.933 8.23 7.866 16.462 11.802 24.691l7.556 2.991c4.438 1.758 8.873 3.515 11.268 4.459 1.045.413 1.174 1.92.213 2.501-3.997 2.414-7.993 4.832-11.99 7.249l-7.75 4.687c40.172.299 80.352.6 120.525.909-24.584-6.569-48.418-14.811-71.261-25.267z" fill="#51626e"/></svg>