<svg xmlns="http://www.w3.org/2000/svg" width="2500" height="2500" viewBox="0 0 192.756 192.756"><g fill-rule="evenodd" clip-rule="evenodd"><path fill="#fff" d="M0 0h192.756v192.756H0V0z"/><path d="M57.408 107.717a413.4 413.4 0 0 0-4.063 9.438c-1.244 3.041-1.875 5.471-1.875 7.309 0 2.08.661 3.752 1.982 5.025 1.312 1.273 3.149 1.973 5.521 2.09 1.77.078 3.771.125 6.017.125 3.363 0 10.03-1.729 6.794 5.734l10.04.01c.895-3.344 2.576-5.869 5.803-5.869h14.56c3.518 0 6.172-.682 7.971-2.031 1.234-.924 2.43-2.625 3.605-5.113l.641-1.332c.758-1.516 3.18-6.658 7.262-15.404l45.789-.01 7.746-16.738 5.695-.068 6.852-14.599-51.475-.029c2.381-5.171 3.771-8.223 4.16-9.156.963-2.255 2.926-3.732 5.482-3.732h2.42l3.752-8.058H121.14c-2.371 0-4.715.729-7.047 2.187a15.243 15.243 0 0 0-2.994 2.43 6.324 6.324 0 0 0-1.643-2.664c-1.34-1.302-3.158-1.954-5.451-1.954h-29.53l-3.907 7.921 3.334-.039c2.361 0 3.217 2.838 2.031 5.384-.292.632-.583 1.264-.885 1.905a701.795 701.795 0 0 1-2.711 5.744l-52.661-.029-14.667 31.533 52.399-.01z" fill="#fff"/><path d="M76.118 76.225l26.953.01c1.283-2.76 2.205-4.753 2.604-5.608 3.451-7.436 3.402-11.916-1.67-11.916H76.643l-.524 1.127s7.979-.826 4.675 6.347a1528.595 1528.595 0 0 1-4.676 10.04zm12.324 31.482l-27.36.01c-1.38 3.119-2.877 6.6-4.588 10.74-1.992 4.84-3.13 9.438 2.644 9.719 5.773.281 12.538 0 13.461 0 2.469 0 3.412.865 3.684 2.021.35 1.535-.311 4.326-.311 4.326s5.9-12.705 12.47-26.816z" fill="#495369"/><path d="M132.52 76.254l-26.066-.01c2.449-5.307 4.199-9.126 4.684-10.253 2.227-5.249 7.115-7.28 10.002-7.28h25.611l-.525 1.127s-2.799-.165-4.189.301c-1.816.613-3.285 2.226-4.732 5.637-.381.904-2.239 4.947-4.785 10.478zm-40.706 31.453l26.098-.01c-3.314 7.094-5.91 12.605-6.561 13.908-2.1 4.199-2.344 6.57-9.166 6.57h-14.56c-5.112 0-8.349 6.348-8.349 6.348s5.842-12.48 12.538-26.816z" fill="#aa6853"/><path d="M34.654 80.433l-3.878 8.35s4.296.019 6.075.019c-1.448 3.101-7.212 15.522-7.212 15.522h11.936l7.221-15.533h6.716l4.276-9.194-24.736-.01-.398.846zm-3.188-.836h-9.623l-11.498 24.727h12.014L33.75 79.597h-2.284zm73.179 17.214s-7.815.059-10.643.078c1.497-3.237 8.038-17.292 8.038-17.292H89.395l-10.536 22.676 1.536-22.676h-18.02l-15.473 24.727h13.237s1.916-2.693 2.508-3.529c.904 0 3.042-.01 4.588-.01v3.539h11.488v-.01l22.375.01 3.547-7.513zm24.814-17.214l-11.09.02s-7.174 15.678-7.883 17.213h-4.773l-3.391 7.494h12.412c1.291 0 5.676-.34 7.736-4.754l9.281-19.973h-2.292zm24.93.039l-21.334.087-11.148 24.601h23.289l3.547-7.494h-10.496c.213-.457.281-.612.436-.924 1.547.01 10.4.078 10.4.078l3.471-7.396s-7.738-.02-10.508-.029c.234-.525.303-.69.467-1.04 1.574.01 10.488.078 10.488.078l3.684-7.97-2.296.009 25.709.049h-21.957l-3.791 7.931 6.096-.068c-1.518 3.217-7.873 16.737-7.873 16.737h12.703s7.037-15.202 7.736-16.708c1.293-.01 5.705-.067 5.705-.067l3.674-7.824h-2.293l-25.709-.05z" fill="#495369"/><path d="M12.629 102.865h8.796l10.041-21.81h-8.699l-10.138 21.81zm56.432-15.803l-.126 7.377h-4.189l4.315-7.377zm-9.671 15.803l2.508-3.527 6.794-.01v3.537h8.67l1.478-21.81H63.19l-13.656 21.81h9.856zm40.784 0l2.158-4.576-10.624.066 8.038-17.3h-9.418l-10.128 21.8 19.974.01zm6.482-4.576l-2.08 4.576h10.158c2.012 0 4.975-.836 6.404-3.916 1.42-3.043 8.32-17.894 8.32-17.894l-10.158.02-7.881 17.214h-4.763zm17.379 4.576h20.236l2.168-4.576h-10.498l1.818-3.85 10.398.078 2.1-4.481-10.467-.019 1.777-3.966 10.498.087 2.332-5.044-20.283-.039-10.079 21.81zm30.84-.039h9.467l7.727-16.688 5.717-.077 2.312-4.918h-21.033l-2.391 4.996 6.074-.077-7.873 16.764zM33.06 87.334l6.075.02-7.212 15.512h8.719l7.221-15.531h6.716l2.916-6.279-21.519-.01-2.916 6.288z" fill="#fff"/></g></svg>