<svg xmlns="http://www.w3.org/2000/svg" width="2500" height="2500" viewBox="0 0 192.756 192.756"><g fill-rule="evenodd" clip-rule="evenodd"><path fill="#fff" d="M0 0h192.756v192.756H0V0z"/><path d="M10.251 145.764v-8.037H8.504v8.037h1.747zM17.414 145.764v-3.844c0-.699-.175-1.223-.349-1.572-.35-.35-.874-.525-1.573-.525-.349 0-.698 0-1.048.176-.35.174-.699.35-1.048.699h-.175v-.875h-1.572v6.115h1.572v-4.193c.35-.174.699-.35.874-.523.35-.174.524-.174.874-.174s.524 0 .699.174c.175.35.175.699.175 1.223v3.494l1.571-.175zM23.004 137.902c-.174-.176-.524-.176-.699-.176-.174-.174-.524-.174-.874-.174-.699 0-1.223.174-1.572.523-.35.176-.524.699-.524 1.572v.174h-.874v1.049h.874v4.893h1.572v-4.893h1.223v-1.049h-1.223v-.174c0-.523 0-.699.175-.873.175-.176.524-.176.699-.176.174 0 .35 0 .524.176.175 0 .35 0 .35.174l.349-1.046zM29.293 142.793c0-2.096-1.223-2.971-3.145-2.971s-3.145.875-3.145 2.971c0 1.922.874 3.145 3.145 3.145 2.097 0 3.145-1.223 3.145-3.145zm-3.144 2.096c-.874 0-1.572-.523-1.572-2.096 0-1.398.698-2.096 1.572-2.096.699 0 1.397.697 1.397 2.096s-.699 2.271-1.397 2.271v-.175zM31.914 140.521v-.699h-1.747v5.941h1.747v-3.844c.175-.35.35-.525.524-.699.35-.174.524-.174.699-.174h.524l.175.174.175-1.223c-.175-.176-.175-.176-.35-.176h-.349c-.35 0-.699 0-.874.176l-.524.524zM43.793 145.764v-3.844c0-.873-.175-1.398-.35-1.748-.349-.35-.699-.35-1.397-.35-.35 0-.699 0-1.048.176-.349.174-.699.35-1.048.699-.174-.35-.174-.525-.524-.699-.175-.176-.524-.176-1.048-.176-.35 0-.699 0-1.048.176-.35.174-.524.35-.874.523h-.174l.174-.699h-1.747v6.115h1.747v-4.193l.524-.523c.35-.174.524-.174.699-.174.35 0 .524 0 .524.174.175.174.35.523.35 1.049v3.668h1.572v-4.193c.175-.174.524-.35.699-.523.174-.174.524-.174.698-.174.175 0 .35 0 .524.174.175.35.175.699.175 1.223v3.494l1.572-.175zM50.257 145.764c-.175-.176-.175-.35-.175-.875v-2.795c0-1.922-.874-2.271-2.446-2.271-1.747 0-2.271.699-2.621 1.572l1.747.176c0-.523.35-.873.874-.873.699 0 .874.35.874 1.047v.176c-2.795.35-3.668 1.223-3.668 2.271 0 1.223.699 1.746 2.096 1.746.699 0 1.223-.174 1.572-.523 0 .174.175.35.175.35h1.572v-.001zm-1.747-1.223c-.349.348-.874.348-1.223.348-.524 0-.874-.174-.874-.697 0-.699.699-1.223 2.096-1.398v1.747h.001zM51.83 139.822h-.699v1.049h.699v2.971c0 1.572.699 2.096 1.922 2.096.698 0 1.048-.174 1.572-.35l-.35-1.047c-.175.174-.524.348-.874.348s-.699-.348-.699-1.223v-2.795h1.397v-1.049h-1.397V138.6H51.83v1.222zM57.769 138.775v-1.223h-1.572v1.223h1.572zm0 1.047h-1.572v5.941h1.572v-5.941zM65.281 142.793c0-2.096-1.223-2.971-3.144-2.971-1.922 0-3.145.875-3.145 2.971 0 1.922.874 3.145 3.145 3.145 2.096 0 3.144-1.223 3.144-3.145zm-3.144 2.096c-.874 0-1.573-.523-1.573-2.096 0-1.398.699-2.096 1.573-2.096.698 0 1.397.697 1.397 2.096s-.699 2.271-1.397 2.271v-.175zM72.095 145.764v-3.844c0-.699-.174-1.223-.524-1.572-.175-.35-.699-.525-1.397-.525-.35 0-.874 0-1.223.176-.35.174-.699.35-1.048.699v-.875H66.33v6.115h1.572v-4.193c.35-.174.699-.35.874-.523.35-.174.524-.174.874-.174s.524 0 .699.174c.175.35.175.699.175 1.223v3.494l1.571-.175zM82.052 137.727h-5.939v1.048h2.096v6.989h1.748v-6.989h2.095v-1.048zM87.119 143.143c0-1.049-.174-1.922-.873-2.621-.524-.523-1.223-.699-1.922-.699-.874 0-1.572.176-2.096.699-.524.525-.874 1.398-.874 2.271 0 1.223.35 1.922.874 2.445.524.525 1.223.699 2.096.699s1.397-.174 1.922-.523c.524-.35.699-.699.873-1.049l-1.747-.174c-.175.523-.524.873-1.048.873-.699 0-1.223-.523-1.223-1.922h4.018v.001zm-4.018-.7c0-1.396.524-1.746 1.223-1.746.524 0 1.048.523 1.223 1.746h-2.446zM92.36 141.744c0-1.223-.873-1.922-2.271-1.922-1.397 0-2.271 1.049-2.271 2.971s.524 3.145 2.271 3.145c1.398 0 2.271-.699 2.271-2.096h-1.572c-.175.699-.349 1.047-.699 1.047-.349 0-.699-.523-.699-2.096 0-1.398.35-1.922.699-1.922.35 0 .524.35.699.873h1.572zM99.174 145.764v-3.844c0-.699-.176-1.223-.525-1.572s-.873-.525-1.572-.525c-.349 0-.698 0-1.048.176-.349.174-.699.35-1.048.699v-2.971h-1.747v8.211h1.747v-4.193c.175-.174.524-.35.874-.523.174-.174.524-.174.699-.174.349 0 .523 0 .699.174.174.35.174.699.174 1.223v3.494l1.747-.175zM106.162 145.764v-3.844c0-.699-.176-1.223-.525-1.572-.174-.35-.699-.525-1.396-.525-.35 0-.875 0-1.225.176-.348.174-.697.35-1.047.699v-.875h-1.572v6.115h1.572v-4.193c.35-.174.523-.35.873-.523.174-.174.523-.174.873-.174s.525 0 .699.174c0 .35.176.699.176 1.223v3.494l1.572-.175zM113.498 142.793c0-2.096-1.396-2.971-3.145-2.971-1.922 0-3.145.875-3.145 2.971 0 1.922.873 3.145 3.145 3.145 2.098 0 3.145-1.223 3.145-3.145zm-3.144 2.096c-.873 0-1.572-.523-1.572-2.096 0-1.398.699-2.096 1.398-2.096.873 0 1.572.697 1.572 2.096s-.699 2.271-1.398 2.271v-.175zM116.293 145.764v-8.037h-1.746v8.037h1.746zM123.807 142.793c0-2.096-1.398-2.971-3.32-2.971-1.746 0-3.145.875-3.145 2.971 0 1.922 1.049 3.145 3.145 3.145s3.145-1.223 3.145-3.145h.175zm-3.321 2.096c-.699 0-1.396-.523-1.396-2.096 0-1.398.697-2.096 1.396-2.096.873 0 1.572.697 1.572 2.096s-.699 2.271-1.572 2.271v-.175zM128.873 140.348c-.35-.35-.875-.525-1.572-.525-1.748 0-2.797 1.049-2.797 2.971 0 2.096.875 3.145 2.797 3.145.697 0 1.223-.174 1.572-.523v.174c0 .873 0 1.398-.35 1.748-.176.35-.525.35-.875.35-.348 0-.697 0-.873-.176a2.39 2.39 0 0 1-.523-.699l-1.572.176c.174.699.699 1.049 1.049 1.396.697.35 1.223.35 1.92.35 1.049 0 1.748-.174 2.271-.697.35-.525.699-1.398.699-2.621v-5.592h-1.746v.523zm-2.797 2.445c0-1.049.35-1.922 1.572-1.922.525 0 1.049.35 1.225.523v2.797c-.35.35-.699.697-1.225.697-1.046.001-1.572-.872-1.572-2.095zM137.432 139.822h-1.746l-.523 2.098c0 .523-.176 1.223-.35 2.096h-.176c-.174-.699-.523-1.396-.697-2.096l-.699-2.098h-1.922l2.621 5.766-.176 1.049c-.174.35-.35.523-.523.873-.176.176-.35.176-.525.176h-.697c-.176-.176-.35-.176-.35-.35l-.525 1.047c.35.176.525.176.699.35h.873c.875 0 1.398-.174 1.748-.523s.699-1.049.873-1.748l2.095-6.64zM146.691 139.475c-.174-1.223-1.049-1.922-2.621-1.922-.873 0-1.572.174-2.096.523-.35.35-.523.873-.523 1.572s.174 1.223.697 1.572c.176.35.699.523 1.398.873.699.525.873.699 1.223.875.176.174.35.348.35.873 0 .174 0 .523-.174.699a1.343 1.343 0 0 1-.875.348c-.697 0-1.047-.523-1.223-1.047l-1.572.174c.176 1.049.873 1.922 2.795 1.922 1.049 0 1.748-.35 2.098-.699.523-.523.699-1.047.699-1.746s-.176-1.223-.525-1.572c-.35-.176-.873-.525-1.396-.873-.699-.35-1.049-.35-1.223-.699a.963.963 0 0 1-.525-.873c0-.176 0-.35.176-.525.174-.174.523-.35.697-.35.699 0 .875.525 1.049.875h1.571zM153.33 143.143c0-1.049-.174-1.922-.873-2.621-.523-.523-1.223-.699-1.922-.699-.873 0-1.572.176-2.096.699-.525.525-.875 1.398-.875 2.271 0 1.223.35 1.922.875 2.445.523.525 1.223.699 2.096.699s1.398-.174 1.922-.523c.35-.35.699-.699.873-1.049l-1.746-.174c-.176.523-.525.873-1.049.873-.699 0-1.223-.523-1.223-1.922h4.018v.001zm-4.018-.7c0-1.396.523-1.746 1.223-1.746.523 0 1.049.523 1.049 1.746h-2.272zM155.775 140.521l.176-.699h-1.748v5.941h1.748v-3.844c.174-.35.35-.525.523-.699.35-.174.523-.174.699-.174h.35c.174 0 .35.174.35.174l.174-1.223c-.174-.176-.174-.176-.35-.176h-.523c-.176 0-.523 0-.699.176l-.523.523h-.177v.001zM161.367 144.889c-.176-1.047-.35-1.746-.699-2.619l-.525-2.447h-1.92l2.27 6.115h1.922l2.098-6.115h-1.748l-.699 2.447a19.673 19.673 0 0 1-.699 2.619zM166.957 138.775v-1.223h-1.572v1.223h1.572zm0 1.047h-1.572v5.941h1.572v-5.941zM172.723 141.744c-.176-1.223-.875-1.922-2.271-1.922-1.572 0-2.445 1.049-2.445 2.971s.697 3.145 2.445 3.145c1.396 0 2.096-.699 2.271-2.096h-1.572c-.176.699-.35 1.047-.699 1.047s-.699-.523-.699-2.096c0-1.398.35-1.922.699-1.922s.523.35.699.873h1.572zM179.012 143.143c0-1.049-.176-1.922-.875-2.621-.523-.523-1.223-.699-1.92-.699-.875 0-1.574.176-2.098.699-.523.525-.873 1.398-.873 2.271 0 1.223.35 1.922.873 2.445.523.525 1.223.699 2.098.699.873 0 1.396-.174 1.92-.523.525-.35.699-.699.875-1.049l-1.748-.174c-.174.523-.523.873-1.047.873-.699 0-1.225-.523-1.225-1.922h4.02v.001zm-4.02-.7c0-1.396.525-1.746 1.225-1.746.523 0 1.047.523 1.223 1.746h-2.448zM184.078 141.221c-.176-.523-.35-.699-.699-1.049-.35-.174-.873-.35-1.398-.35a3.5 3.5 0 0 0-1.572.35c-.523.35-.699.699-.699 1.223 0 .525.176.875.35 1.049.35.35.699.525 1.225.873.523.176.873.176 1.047.35.176.176.176.35.176.699 0 .176 0 .35-.176.523 0 .176-.174.176-.523.176s-.523-.176-.699-.523h-1.398c0 .523.35.873.699 1.047.35.35.875.35 1.572.35.699 0 1.223-.174 1.572-.523.525-.35.699-.699.699-1.223 0-.525-.174-.875-.35-1.223-.35-.176-.699-.525-1.396-.699-.525-.176-.699-.35-.875-.525-.174 0-.348-.35-.348-.523s.174-.35.174-.35c.174-.174.35-.174.523-.174.35 0 .525.174.699.523h1.397v-.001zM76.637 153.625h-2.446v.873h1.048v1.398c-.175.174-.699.348-1.223.348-1.048 0-1.747-.873-1.747-2.619 0-1.748.874-2.447 1.747-2.447.524 0 .874.35 1.223 1.049l1.398-.35c-.524-1.047-1.573-1.572-2.621-1.572-1.921 0-3.145 1.049-3.145 3.32 0 2.096.874 3.494 2.97 3.494 1.397 0 2.271-.525 2.795-.875v-2.619h.001zM78.908 152.576v-.35H77.51v4.717h1.398v-3.145c.174-.35.349-.35.524-.523.175-.176.35-.176.524-.176h.349l.175.176.174-1.049c-.174 0-.174 0-.349-.174h-.349c-.175 0-.35.174-.524.174-.175.176-.349.35-.524.35zM81.179 152.227v3.145c0 .525.175 1.049.349 1.223.35.35.699.525 1.223.525.35 0 .874-.176 1.048-.35.35-.176.524-.35.699-.525h.175l-.175.699h1.397v-4.717h-1.397v3.145l-.524.525c-.175.174-.524.174-.699.174-.349 0-.524-.174-.524-.174-.175-.35-.175-.525-.175-1.049v-2.621h-1.397zM86.944 159.215h1.223v-2.621c.349.176.524.176.698.35.35 0 .524.176.699.176.698 0 1.223-.35 1.572-.699s.524-1.049.524-1.922-.174-1.398-.524-1.922c-.35-.35-.874-.523-1.572-.523-.35 0-.524 0-.699.174-.35 0-.524.176-.698.35v-.35h-1.223v6.987zm1.223-5.766c.174-.174.349-.35.524-.35.174-.174.524-.174.699-.174s.524.174.699.35c.174.35.35.699.35 1.223 0 .699-.175 1.049-.35 1.223-.175.35-.524.523-.699.523-.35 0-.524-.174-.699-.174-.175-.174-.35-.35-.524-.35v-2.271zM92.535 159.215h1.397v-2.621c.175.176.35.176.524.35.349 0 .524.176.873.176.524 0 1.048-.35 1.398-.699.349-.35.698-1.049.698-1.922s-.35-1.398-.698-1.922c-.35-.35-.874-.523-1.398-.523-.349 0-.699 0-.873.174-.175 0-.35.176-.524.35h-.175l.175-.35h-1.397v6.987zm1.397-5.766c.175-.174.35-.35.524-.35.174-.174.349-.174.524-.174.349 0 .524.174.699.35.175.35.349.699.349 1.223 0 .699-.174 1.049-.349 1.223-.175.35-.35.523-.699.523-.175 0-.35-.174-.524-.174-.35-.174-.524-.35-.524-.35v-2.271zM103.016 154.498c0-1.746-1.047-2.445-2.445-2.445-1.572 0-2.619.699-2.619 2.445 0 1.572.873 2.621 2.619 2.621 1.572 0 2.445-1.049 2.445-2.621zm-2.446 1.746c-.697 0-1.223-.523-1.223-1.746s.525-1.572 1.223-1.572c.525 0 1.049.35 1.049 1.572s-.523 1.746-1.049 1.746zM107.734 156.943v-2.968h1.92v-.875h-1.92v-1.746h2.446v-1.049h-3.668v6.638h1.222zM112.451 151.178v-.873h-1.223v.873h1.223zm0 1.049h-1.223v4.717h1.223v-4.717zM117.865 156.943c-.174-.174-.174-.35-.174-.699v-2.27c0-1.572-.699-1.922-1.922-1.922-1.396 0-1.922.699-2.096 1.396h1.223c.174-.35.35-.697.699-.697.523 0 .697.348.697 1.047-2.27.35-2.795.873-2.795 1.922 0 .873.525 1.398 1.572 1.398.525 0 1.049-.35 1.398-.525v.35h1.398zm-1.572-1.047c-.174.174-.697.348-.873.348-.523 0-.699-.174-.699-.697 0-.525.525-.875 1.748-1.049l-.176 1.398zM119.09 152.227h-.699v.699h.699v2.445c0 1.223.523 1.748 1.572 1.748.35 0 .873-.176 1.047-.35l-.174-.873c-.176.174-.35.348-.699.348s-.523-.348-.523-1.047v-2.271h1.047v-.699h-1.047v-1.049h-1.223v1.049z"/><path fill="#b6cceb" d="M52.528 115.016l6.115-1.049-.874 4.892-6.638 1.223 1.397-5.066zM60.215 113.619l6.115-1.224-.524 4.892-6.464 1.223.873-4.891zM67.902 112.045l6.114-1.047v4.717l-6.464 1.223.35-4.893zM46.938 111.172l5.59-1.223-1.223 4.367-5.939 1.223 1.572-4.367zM54.101 109.775l5.59-1.222-.873 4.367-5.94 1.223 1.223-4.368zM61.088 108.377l5.766-1.223-.35 4.367-6.114 1.049.698-4.193zM68.251 106.98l5.765-1.048v4.017l-6.114 1.223.349-4.192zM75.414 105.582l5.765-1.049.349 4.02-5.939 1.047-.175-4.018zM89.74 102.787l5.764-1.049 1.224 3.844-6.115 1.223-.873-4.018zM96.902 101.389l5.766-1.047 1.572 3.842-6.115 1.048-1.223-3.843zM104.064 99.992l5.59-1.049 2.098 3.668-5.94 1.225-1.748-3.844zM111.229 98.594l5.589-1.049 2.621 3.67-6.115 1.047-2.095-3.668zM118.391 97.197l5.589-1.049 2.971 3.495-6.115 1.222-2.445-3.668zM125.379 95.799l5.764-1.049 3.32 3.494-5.94 1.223-3.144-3.668zM41.872 107.678l5.416-1.047-1.398 3.844-5.765 1.046 1.747-3.843zM48.685 106.281l5.241-.873-1.048 3.668-5.59 1.223 1.397-4.018zM55.324 105.059l5.415-1.049-.873 3.844-5.591 1.048 1.049-3.843zM61.962 103.836l5.416-1.049-.35 3.668-5.765 1.049.699-3.668zM68.775 102.438l5.241-1.049v3.67l-5.59 1.046.349-3.667zM75.414 101.215l5.241-1.049.349 3.494-5.59 1.049v-3.494zM82.052 99.816l5.416-1.046.699 3.492-5.59 1.049-.525-3.495zM88.691 98.594l5.416-1.049 1.048 3.32-5.59 1.223-.874-3.494zM95.504 97.197l5.242-.875 1.572 3.321-5.765 1.048-1.049-3.494zM102.143 95.973l5.416-1.048 1.748 3.319-5.592 1.049-1.572-3.32zM108.781 94.75l5.416-1.047 2.272 3.145-5.766 1.047-1.922-3.145zM115.596 93.353l5.24-1.048 2.621 3.145-5.592 1.048-2.269-3.145zM122.234 92.13l5.414-1.048 2.797 2.97-5.591 1.048-2.62-2.97zM128.873 90.732l5.416-1.048 3.318 2.97-5.765 1.223-2.969-3.145zM43.793 103.311l5.067-.873-1.223 3.318-5.416 1.049 1.572-3.494zM50.083 102.088l5.066-.873-.874 3.318-5.415 1.049 1.223-3.494zM56.372 100.865l5.066-.873-.699 3.319-5.241 1.048.874-3.494zM62.661 99.643l5.066-.873-.349 3.144-5.241 1.047.524-3.318zM68.95 98.42l5.066-.875v3.146l-5.241 1.047.175-3.318zM75.239 97.197l5.067-.875.349 3.145-5.241 1.049-.175-3.319zM81.528 96.148l5.067-1.048.698 2.97-5.241 1.047-.524-2.969zM87.818 94.925l5.066-1.048 1.048 2.971-5.241 1.047-.873-2.97zM94.282 93.703l4.892-1.049 1.396 2.97-5.415 1.048-.873-2.969zM100.57 92.479l4.893-1.048 1.746 2.795-5.416 1.049-1.223-2.796zM106.859 91.256l4.893-1.048 1.922 2.795-5.242 1.049-1.573-2.796zM113.148 90.034l4.893-1.049 2.271 2.796-5.242 1.048-1.922-2.795zM119.439 88.811l4.891-1.049 2.621 2.621-5.242 1.048-2.27-2.62zM125.729 87.588l5.066-1.048 2.795 2.62-5.242 1.048-2.619-2.62zM132.018 86.365l5.066-1.048 3.145 2.621-5.243.873-2.968-2.446zM39.601 100.691l4.716-.875-1.397 3.145-5.066.875 1.747-3.145zM45.541 99.643l4.716-1.049-1.048 3.144-5.066.873 1.398-2.968zM51.48 98.42l4.717-.875-.873 2.971-4.892 1.048 1.048-3.144zM57.42 97.371l4.717-1.049-.524 2.971-5.067 1.049.874-2.971zM63.36 96.148l4.717-.873-.175 2.795-5.067 1.047.525-2.969zM69.299 94.925l4.717-.873v2.796l-4.891 1.047.174-2.97zM75.239 93.877l4.718-1.048.349 2.795-5.067 1.048v-2.795zM81.179 92.654l4.717-.873.699 2.62-5.067 1.049-.349-2.796zM87.119 91.606l4.717-1.048.873 2.62-4.891 1.048-.699-2.62zM93.059 90.383l4.716-.874 1.223 2.621-5.066.873-.873-2.62zM98.998 89.16l4.717-.873 1.572 2.62-5.066.874-1.223-2.621zM104.938 88.112l4.716-1.048 1.748 2.62-4.89.874-1.574-2.446zM110.879 86.889l4.717-.873 2.095 2.445-5.066.874-1.746-2.446zM116.818 85.841l4.717-1.049 2.445 2.446-5.066.874-2.096-2.271zM122.758 84.618l4.717-.873 2.621 2.271-4.893 1.048-2.445-2.446zM128.697 83.395l4.717-.874 2.971 2.271-5.067 1.049-2.621-2.446zM41.522 97.371l4.368-.873-1.223 2.619-4.717 1.049 1.572-2.795zM47.113 96.148l4.542-.873-1.048 2.795-4.717.873 1.223-2.795zM52.703 95.1l4.542-.874-.873 2.622-4.717 1.047 1.048-2.795zM58.293 94.052l4.542-.874-.523 2.621-4.717.873.698-2.62zM63.884 93.003l4.542-.873-.175 2.446-4.716 1.048.349-2.621zM69.649 91.781l4.367-.874v2.621l-4.717.873.35-2.62zM75.239 90.732l4.543-.873.175 2.446-4.718.873v-2.446zM80.83 89.684l4.542-.873.524 2.445-4.717.874-.349-2.446zM86.42 88.636l4.542-.874.699 2.272-4.717.873-.524-2.271zM92.01 87.413l4.543-.873 1.049 2.445-4.718.874-.874-2.446zM97.775 86.365l4.368-.874 1.398 2.271-4.717.874-1.049-2.271zM103.365 85.317l4.543-.874 1.399 2.271-4.717.874-1.225-2.271zM108.957 84.269l4.541-.874 1.748 2.096-4.717.874-1.572-2.096zM114.547 83.045l4.543-.873 2.096 2.271-4.717.874-1.922-2.272zM120.137 81.998l4.543-.874 2.271 2.096-4.717.874-2.097-2.096zM125.902 80.949l4.368-.873 2.621 1.922-4.717 1.047-2.272-2.096zM48.51 93.178l4.193-.873-.873 2.445-4.542.874 1.222-2.446zM53.751 92.13l4.368-.874-.699 2.447-4.542.873.873-2.446zM59.167 91.082l4.193-.874-.35 2.446-4.542.874.699-2.446zM64.408 90.034l4.367-.874-.349 2.446-4.367.873.349-2.445zM69.824 88.985l4.192-.873v2.271l-4.367.873.175-2.271zM75.239 87.938l4.193-.874.175 2.271-4.368.873v-2.27zM80.48 86.889l4.368-.699.349 2.097-4.367.873-.35-2.271zM85.896 85.841l4.193-.699.699 2.096-4.368.874-.524-2.271zM91.137 84.792l4.367-.698.874 2.096-4.542.874-.699-2.272zM96.553 83.745l4.193-.7 1.223 1.922-4.543.874-.873-2.096zM101.793 82.871l4.369-.873 1.397 1.921-4.543.873-1.223-1.921zM107.209 81.823l4.367-.874 1.572 1.922-4.541.874-1.398-1.922zM112.625 80.774l4.193-.873 1.922 1.922-4.543.873-1.572-1.922zM117.865 79.726l4.369-.873 2.096 1.921-4.543.874-1.922-1.922zM123.281 78.678l4.194-.873 2.271 1.921-4.367.699-2.098-1.747zM54.799 89.335l4.019-.699-.525 2.096-4.367.874.873-2.271zM59.866 88.461l4.018-.873-.349 2.271-4.193.699.524-2.097zM64.932 87.413l4.018-.699-.175 2.097-4.192.698.349-2.096zM69.999 86.54l4.017-.873v2.095l-4.192.699.175-1.921zM75.064 85.491l4.193-.873.175 2.096-4.193.874-.175-2.097zM80.131 84.443l4.193-.698.349 1.922-4.193.873-.349-2.097zM85.372 83.57l4.018-.874.524 1.922-4.193.873-.349-1.921zM90.438 82.521l4.019-.873.873 1.922-4.368.873-.524-1.922zM95.504 81.473l4.019-.699 1.047 1.747-4.192.874-.874-1.922zM100.57 80.6l4.02-.874 1.222 1.747-4.193.874-1.049-1.747zM105.637 79.552l4.017-.874 1.575 1.922-4.37.698-1.222-1.746zM110.703 78.503l4.018-.698 1.748 1.747-4.194.698-1.572-1.747zM115.77 77.63l4.193-.874 1.746 1.747-4.191.874-1.748-1.747zM120.836 76.582l4.193-.699 2.096 1.572-4.367.874-1.922-1.747zM60.564 86.016l3.844-.699-.349 1.921-4.018.7.523-1.922zM65.457 85.142l3.842-.873-.174 1.921-4.018.874.35-1.922zM70.173 84.094l4.018-.699-.175 1.922-4.017.699.174-1.922zM75.064 83.22l3.844-.699.175 1.748-4.019.698V83.22zM79.957 82.172l3.842-.699.35 1.747-4.018.874-.174-1.922z"/><path fill="#2a59a5" d="M55.149 88.985h17.295v-1.747h-5.066V44.087h5.066v-1.746H55.149v1.746h5.241v43.151h-5.241v1.747zM82.052 88.985h18.518v-1.572h-5.765V44.262h2.446c7.686 0 8.561 5.591 10.482 13.103h1.047l-.523-14.85H74.191l-.349 14.85h1.048c1.747-7.512 2.795-13.103 10.482-13.103h2.446v43.151h-5.766v1.572zM110.879 89.684h1.047l2.795-3.494c1.572 1.398 4.193 4.019 9.086 4.019 7.861 0 12.928-7.163 12.928-16.247 0-6.464-3.67-11.355-8.736-13.452-5.416-1.921-13.625-.175-13.625-8.561 0-4.367 3.492-8.909 7.861-8.909 7.336 0 8.908 7.687 9.783 10.656h1.223v-11.88h-1.223l-1.922 2.621c-1.572-1.048-3.844-2.97-7.861-2.97-5.941 0-11.531 6.289-11.531 13.277 0 6.813 2.795 10.482 7.512 12.404 5.941 2.621 15.025 0 15.025 10.657 0 5.765-3.844 10.832-9.434 10.832-8.736 0-10.832-11.006-11.705-13.627h-1.223v14.674zM82.577 109.25l3.669-6.463 6.289 1.223-3.145 6.988-6.813-1.748zM86.77 116.414l12.578-11.355 15.199.523-12.754 12.055-15.023-1.223zM108.432 114.143l23.06-7.163 27.953 9.608-39.308 11.006-11.705-13.451z"/></g></svg>