<svg xmlns="http://www.w3.org/2000/svg" width="2500" height="2500" viewBox="0 0 192.756 192.756"><g fill-rule="evenodd" clip-rule="evenodd"><path fill="#fff" d="M0 0h192.756v192.756H0V0z"/><path d="M63.43 116.967l-.877-.182c-2.014-.67-3.794-6.297-2.994-6.787.62-.725 3.794-4.105 4.724-5.086-.387-.594-1.291-2.916-1.162-5.42-1.6 2.504-2.942 6.297-8.26 8.492-.361 0-.981.232-1.6.232-1.084 2.271-.723 6.607-4.027 7.176-3.252 0-6.375-3.201-6.118-4.285-.438-2.814 1.291-5.033 5.679-17.914-.542-1.368-.98-3.614-.542-4.956.361-1.472 1.523-2.323 2.323-3.072.181-.981 0-.981.181-1.652.181-.49.439-1.032.8-1.652.361-.413 1.342-1.083 2.143-1.161h.8c.774.078 1.704.258 2.375.749.62.413 1.601.981 1.704 1.884.62.129 1.239.181 1.601.31 2.013.181 3.484 2.452 4.104 4.026 0-.774.98-2.994 1.574-3.355.981-.852 2.143-.801 2.4-.801 1.265.181 2.685.671 3.666 1.781.723.49.981 1.291 1.342 1.523.361-1.291 1.213-2.504 2.194-3.305 1.058-.593 1.419-.49 2.143-.232l.8.414c.981.62 1.781 1.833 2.633 3.124.49-.852.49-1.291 1.084-1.885.387-.439.877-.749 1.781-1.239.749-.232 1.523-.31 2.013-.052 1.11.181 2.4 1.471 3.072 2.323.8-.8 1.213-2.014 2.813-2.633.723-.232 1.498-.232 2.117.181 1.574.801 2.555 2.762 2.994 4.104.62 1.884-1.91 5.756-2.994 7.149-.955.93-2.297 2.091-3.278 2.814 0 0 2.246 6.789 2.246 8.621.284 2.633-4.078 3.484-6.169 2.812-1.471-.412-2.013-1.574-2.633-2.633-.981 1.781-2.323 2.582-4.078 2.453-3.02-.49-4.362-2.994-4.362-5.498h-.413c-1.342 3.666-6.969 11.848-10.583 13.447-.261-.126-.623.185-1.216.185zM138.258 116.477c-.543-.723-.852-2.324-1.6-3.898 0-1.781 0-2.143.98-3.434.98-1.289 1.91-2.4 3.381-4.232-.98-1.395-1.238-2.555-1.238-4.518-2.814 6.48-4.699 7.641-9.422 7.822-.904 2.4-2.193 5.574-3.305 7.588-.49.852-1.084.852-1.883.619-6.789-4.775-5.756-5.137-4.646-8.801 1.574-4.646 5.369-14.249 5.008-14.636-1.705-5.188-.414-6.582 1.342-7.202 1.291-6.607 4.723-7.046 8.699-2.452 2.064-.129 4.826 2.323 5.316 4.414 1.574-4.362 3.846-8.569 8.932-.8 1.883-4.904 4.207-5.498 7.82.051.98-2.013 3.795-6.22 7.898-1.032 1.885-3.046 5.627-5.008 7.562 1.833 1.109-2.323 2.221-4.466 5.213-4.466 1.344.181 2.736 1.162 3.615 2.194 2.064-1.884 2.865-2.194 4.025-1.833.182 0 .672.181 1.111.62.953.619 1.832 1.652 2.605 3.045.207.878.311 1.291.207 2.53-1.291 3.407-2.451 4.646-3.795 10.092-.748 2.064-.309 5.602-1.779 8.234-.311.438-.801.799-1.781 1.057-1.291.104-4.027-.49-5.061-1.908-5.213 2.271-6.426-1.084-7.408-3.227-.852-1.73-.619-4.725.621-9.19-1.73 1.6-2.143 2.014-3.484 2.633 0 2.193 1.521 5.885 2.426 7.77.387 2.812-.232 2.865-3.484 3.664-3.795.852-3.355-1.16-5.551-2.375-.387 2.324-5.703 4.156-8.26-2.941-.67 2.865-7.588 11.562-10.814 13.268-1.289.362-2.348.438-3.25-.489z" fill="#cc2229"/><path d="M62.036 111.107c.361-.98 4.749-5.059 5.626-6.582-.8-.129-1.729-.568-1.781-.98-2.633-7.847.8-16.03 1.291-16.649.98-1.962 4.208.49 4.259 1.781-1.213 3.614-2.787 8.853-2.013 12.415 1.91-2.014 5.395-13.396 7.098-15.539 1.239-.619 3.614 3.072 2.865 4.285-2.065 7.408-8.802 19.203-14.352 24.339-.361.311-.748.621-1.6.621-.412.001-2.012-3.382-1.393-3.691zM139.781 114.799c0-.568-1.033-2.762-.904-3.201 0-.594 4.389-5.68 5.188-7.279-1.65-.773-1.961-2.064-2.012-2.143-.129-5.807.129-9.524 1.832-15.951.439-.542 1.033-.62 1.729-.232.775.232 2.246 1.265 2.375 2.246-.541 3.613-1.42 7.459-1.42 11.822 3.072-4.286 4.053-9.422 6.299-14.068.49-.491.98-.31 1.471 0 .748.671 1.781 1.755 1.602 2.426-2.453 9.371-8.312 20.443-15.359 26.38-.182.051-.414.051-.801 0zM45.671 109.713c0-.98 5.007-13.5 5.42-16.571-.491-1.032-.955-2.194-.955-3.484 0-1.755 1.523-2.813 2.323-3.046 0-1.11.413-3.433 1.265-3.562 1.058-.051 3.252.258 3.304 2.71 2.013-1.059 4.956 1.651 5.214 2.865 1.342 2.013.774 8.389-4.956 15.049-1.058.619-1.6 1.65-3.304 2.271-.981 0-1.342-.621-1.781-1.24-.361.129-2.375 8.002-2.865 8.002-1.161 0-3.665-1.703-3.665-2.994zM124.682 113.146c-1.24-.439-1.42-1.291-2.582-2.504-.232-.439-.232-.543 0-1.213 2.143-5.086 4.232-10.842 5.627-15.978 0-2.013-2.451-5.498 1.213-6.117.258-1.833.129-2.555 1.291-4.207 1.238-.491 3.613 1.032 3.381 3.046 3.279-.903 4.156.567 5.627 3.252 1.084 5.498-1.291 11.924-5.266 15.333-.98.877-2.812 2.451-4.465-.182-.439 1.111-2.762 7.229-4.053 8.57h-.773z" fill="#fff"/><path d="M100.211 104.139c-1.213-4.775 0-7.332 1.834-11.384-.414-3.717-.311-6.659 3.664-7.873.311-1.419.98-3.433 2.943-4.155.541-.258 1.16-.181 1.781-.129 2.322.361 2.502 1.522 3.896 3.175 2.324 0 5.316 2.194 5.885 4.646.98 2.685 0 6.789-3.355 9.371.594 2.064-.129 4.336-.98 6.529-2.529 4.465-5.266 5.395-9.24 5.395-2.504-.001-6.428-3.433-6.428-5.575zM13.097 103.906h-.361c-.981 2.193-2.685 4.283-5.446 4.283-3.536-1.16-4.698-3.303-4.414-6.736 1.42-4.646 5.575-16.751 7.279-22.017.877-1.574 1.239-3.045 3.433-3.897 3.433 0 5.317 2.917 5.317 5.911 2.452-1.885 3.743-4.827 7.331-4.827 2.71 0 4.414 5.008 2.813 7.898l-.362.8c.749-.877 3.434-1.91 4.414-1.962 1.833-.078 3.846 0 5.73 1.394.98.671 1.419 2.091 1.781 3.072.361 1.884 0 3.717-1.342 6.117 0 .413.749 1.032.981 1.652.619 3.845-1.833 8.544-4.698 11.046-3.201 1.912-6.375 2.531-10.712-1.445-1.523-2.219-2.271-4.594 1.781-7.949-.387-1.781-.981-2.503.542-4.465-.723-1.291-.542-2.4-.439-3.743h-.49c-2.375 4.904-4.078 13.396-4.878 18.79-1.833 3.717-7.77-.877-8.26-3.922z" fill="#cc2229"/><path d="M103.748 105.738c-2.686-3.176-1.574-6.428-1.213-7.949.594-1.833 1.16-2.866 1.961-4.647-.568-1.833-.182-6.53 2.504-6.117.49-1.032.723-2.556 1.756-3.666 1.65-1.6 3.51 1.523 3.793 2.633 2.814 0 4.105.361 5.395 2.994.982 4.156-.98 5.498-3.742 7.949 1.471 4.646-.98 8.492-4.826 10.145-2.272.182-3.978.078-5.628-1.342zM15.342 103.055c.31-2.814 1.394-4.775 3.046-8.054-4.336 5.06-5.808 5.136-8.672 10.015-1.652 1.652-5.937.49-3.975-3.975 2.246-8.183 4.568-14.868 6.892-20.417.981-3.975 3.562-2.22 4.724 1.704-1.239 4.026-2.762 7.098-3.743 9.963 5.137-7.382 7.046-9.344 11.332-13.448 2.013-.181 2.685 2.143 2.685 3.666-3.743 4.646-5.679 10.041-7.821 23.127 0 0-.258.98-.62 1.266-.982-.002-4.596-1.707-3.848-3.847zM87.357 106.977c-2.375-1.6-2.271-6.375-2.865-8.568-.491 2.193-2.891 8.568-3.433 8.26-1.6.232-2.813-1.344-3.536-2.686 4.026-9.472 6.221-18.351 6.84-17.99 1.343-.232 2.685.748 2.994 2.013.49.129-.903 3.976-1.29 5.214 2.71-2.323 4.284-5.576 6.479-7.64.438-.31.723.181.903.413.438.98 1.213 2.013 1.213 3.071-.051 1.523-3.458 4.878-6.375 6.84-.129 2.762 2.685 9.112 2.065 10.532-.001.412-2.066.722-2.995.541zM163.967 107.236c-.361-.078-2.633-1.162-2.453-9.293-1.471 2.916-3.846 8.904-4.336 8.311-.748.182-2.322-3.123-2.193-3.793-.129 0 .49-.801 6.297-15.901.543-.929 1.523-.438 1.523-.31.412.232 1.523 1.291 1.162 2.091-.258 1.755-.75 2.555-1.162 5.498 2.375-.31 4.336-6.866 4.775-7.589.104 0 .67-.671 1.162-.439 1.342.8 2.863 2.71 1.703 3.975-.361.8-1.342 4.466-5.809 6.995.182 3.098 1.342 6.221 2.633 9.473l-.258.414c-.361.18-3.044.852-3.044.568zM179.736 106.436c-.361-.078-.438-1.42-.258-1.963-1.445.852-2.246 1.576-4.025 1.266-.854-.051-2.633-1.445-2.994-2.787-.182-5.705 2.373-14.558 4.773-16.83.725-.671 1.473-.439 2.246.052.619.619 1.471.98 1.291 2.142-1.885 3.433-4.104 8.88-4.518 12.854-.129 2.193 2.324.541 3.305.129.361-.207.412-1.369.594-1.781.93-4.956 1.91-7.33 3.975-12.544.311-.31.619-.62.877-.723.49-.129.775 0 .982 0 .412.181.592.361.955.594.258.078.799.981.98 1.549.076.232 0 .671-.182 1.445-4.078 8.828-3.484 8.57-4.955 16.597-.104.283-.104.465-.49.541-.231 0-2.142-.077-2.556-.541zM30.442 105.971c-1.291-.361-3.175-1.73-4.156-3.305-.852-.928.31-2.012 1.291-3.432.542-.182.8-.232.98-.232.981.49 1.574 1.703 2.065 2.244 2.013 1.473 3.381-1.031 3.665-2.994-.052-.723-.671-1.342-1.755-1.703-.568-.129-1.162 0-2.091.49-.31.053-.31.672-1.291-.258v-2.426c.98-.387 3.743-.981 4.595-3.923l-.542-.62c-1.781.181-2.142 1.471-3.665 2.323-.387-2.013-.981-2.684 0-4.155 1.445-3.227 7.744-3.046 9.164.438 0 2.375-.439 4.336-2.375 5.498l.671.62c2.736 1.704.903 6.118-1.059 8.62-2.554 2.504-2.812 2.815-5.497 2.815z" fill="#fff"/><path d="M107.697 97.762c.49.26.723.982 2.143.621 0 1.832-.543 3.355-1.963 3.303-2.014-.93-.799-2.452-.18-3.924zM53.802 99.621v-.414c.181-.438 0-1.057.619-1.65v-.389c.232-.412 0-.98.594-1.651v-.361l.258-.413v-.439l.181-.439v-.413c.232-.31 0-.98.542-1.6.259 0 .672-.181 1.291-.594l.8.413c.232 3.072-1.833 6.065-4.104 7.95h-.181zM130.541 99.621c.98-3.666 1.238-5.937 2.037-7.77 2.686-1.291 2.736.439 2.195 2.401-.31 1.084-3.252 5.369-4.232 5.369zM109.969 93.839c.309-.878 2.012-3.021 2.865-3.382.566-.051.877.129.98.439 0 1.472-2.607 2.943-3.845 2.943z" fill="#cc2229"/></g></svg>