<svg xmlns="http://www.w3.org/2000/svg" width="2500" height="2500" viewBox="0 0 192.756 192.756"><g fill-rule="evenodd" clip-rule="evenodd"><path fill="#fff" d="M0 0h192.756v192.756H0V0z"/><path d="M188.25 107.775c-.334-.332-.738-.5-1.211-.5s-.873.168-1.207.5c-.334.334-.5.736-.5 1.207 0 .477.166.881.496 1.215a1.64 1.64 0 0 0 1.211.504c.473 0 .877-.168 1.211-.504s.502-.74.502-1.215a1.64 1.64 0 0 0-.502-1.207zm-.17 2.256a1.409 1.409 0 0 1-1.041.434c-.41 0-.756-.145-1.043-.434a1.438 1.438 0 0 1-.426-1.049c0-.406.143-.754.428-1.041.287-.291.635-.434 1.041-.434s.754.143 1.041.434c.285.287.43.635.43 1.041 0 .411-.145.76-.43 1.049zM24.074 83.9v-1.058H2.834V83.9h6.592v24.983H2.834v1.058h21.24v-1.058h-6.428V83.9h6.428zM40.513 110.131v-1.383l25.146-24.902H55.16s-8.3-.407-10.416 6.266h-2.116l1.221-7.242h31.249v1.221l-25.146 24.902h14.079s6.917.691 9.114-7.609h1.953l-.569 8.748H40.513v-.001zM113.02 82.056c-5.697 0-20.425 4.15-20.425 13.916s11.556 14.73 20.425 14.73c8.871 0 20.426-4.965 20.426-14.73s-14.729-13.916-20.426-13.916zm10.742 19.971c0 7.08-8.545 7.568-10.742 7.568s-10.742-.488-10.742-7.568V90.682c0-7.08 8.545-7.568 10.742-7.568s10.742.488 10.742 7.568v11.345zM167.379 82.625h-19.123v1.058h6.104v25.309h-6.104v1.057h19.123c3.184 0 22.543.123 22.543-13.711 0-13.835-18.744-13.713-22.543-13.713zm13.51 14.73c0 11.637-7.486 11.555-11.801 11.555h-6.348V83.846h6.348c4.314 0 11.801-.082 11.801 11.556v1.953z"/><path d="M187.801 109.895a.317.317 0 0 1-.018-.098c-.002-.051-.004-.098-.004-.141v-.137a.513.513 0 0 0-.102-.293.465.465 0 0 0-.324-.184.753.753 0 0 0 .271-.09c.123-.08.186-.203.186-.371 0-.236-.098-.395-.293-.477-.107-.045-.279-.066-.512-.066h-.658v1.879h.332v-.742h.26c.176 0 .299.02.369.061.117.07.178.213.178.432v.148l.006.061a.191.191 0 0 0 .006.021c0 .006.002.012.004.02h.311l-.012-.023zm-.508-.991a.925.925 0 0 1-.314.041h-.299v-.68h.281c.184 0 .316.021.4.068.082.047.125.139.125.275 0 .146-.064.244-.193.296z"/></g></svg>