<svg xmlns="http://www.w3.org/2000/svg" width="2500" height="2500" viewBox="0 0 192.756 192.756"><g fill-rule="evenodd" clip-rule="evenodd"><path fill="#fff" d="M0 0h192.756v192.756H0V0z"/><path fill="#86bb50" d="M184.252 150.685h-169v-13.546h169v13.546zM39.36 90.258c1.162.861 18.091 15.215 54.225 6.806 0 0-17.557 3.861-45.324-16.73-6.484-4.81-14.057 6.101-8.901 9.924z"/><path d="M45.17 70.34c.807 1.204 11.898 20.427 48.753 24.701 0 0-17.829-2.286-37.021-31.039-4.484-6.71-15.293 1-11.732 6.338z" fill="#86bb50"/><path d="M57.364 53.552c.352 1.406 4.312 23.248 37.562 39.696 0 0-16.016-8.163-24.382-41.704-1.953-7.833-14.734-4.218-13.18 2.008z" fill="#86bb50"/><path d="M74.503 41.86c-.142 1.441-3.783 23.339 21.968 50.042 0 0-12.319-13.087-8.881-47.483.802-8.034-12.447-8.943-13.087-2.559z" fill="#86bb50"/><path d="M94.585 36.639c-.623 1.307-11.438 20.693 3.795 54.52 0 0-7.178-16.479 7.658-47.701 3.466-7.291-8.698-12.615-11.453-6.819z" fill="#86bb50"/><path d="M115.246 38.494c-1.021 1.023-17.738 15.625-14.812 52.607 0 0-1.207-17.938 23.301-42.324 5.716-5.691-3.938-14.809-8.489-10.283z" fill="#86bb50"/><path d="M134.074 47.212c-1.307.617-21.973 8.723-31.695 44.524 0 0 4.92-17.29 36.215-31.98 7.304-3.427 1.291-15.271-4.52-12.544z" fill="#86bb50"/><path d="M148.857 61.768c-1.437.142-23.63.802-44.857 31.227 0 0 10.465-14.621 44.879-17.891 8.035-.764 6.365-13.939-.022-13.336z" fill="#86bb50"/><path d="M157.861 80.464c-1.406-.354-22.512-7.222-52.756 14.262 0 0 14.779-10.231 48.279-1.704 7.821 1.992 10.698-10.974 4.477-12.558z" fill="#86bb50"/><path d="M39.36 90.258c1.162.861 18.091 15.215 54.225 6.806 0 0 6.368.057 11.521-2.339 0 0 14.779-10.231 48.279-1.704 19.076 5.485 23.338 10.497 23.338 10.497s-32.301-20.069-74.273-4.641c-16.435 6.041-35.32 4.904-46.915 1.441C37.519 94.936 28.657 84.03 8.622 86.535c0 0 16.411-4.279 30.738 3.723z" fill="#fff"/><path d="M39.292 95.106c17.606 7.973 31.485 11.901 54.322 6.003 6.443-1.689 26.115-12.955 59.732-4.922 19.154 5.199 23.492 10.147 23.492 10.147s-32.588-19.59-74.34-3.538c-16.335 6.283-35.243 5.425-46.883 2.131-18.094-5.117-27.117-15.89-47.111-13.089 0 0 13.181-4.702 30.788 3.268z" fill="#8abd50"/><path d="M23.92 124.926h-5.352v5.122h5.989v1.541h-7.796v-14.217h7.486v1.539h-5.679v4.493h5.352v1.522zM33.747 131.231c-.473.233-1.52.59-2.852.59-2.992 0-4.939-2.088-4.939-5.23s2.089-5.441 5.33-5.441c1.067 0 2.011.275 2.503.546l-.411 1.414c-.428-.231-1.106-.482-2.092-.482-2.275 0-3.508 1.748-3.508 3.879 0 2.362 1.478 3.817 3.447 3.817a5.053 5.053 0 0 0 2.214-.485l.308 1.392zM39.82 130.429c-1.744 0-2.972-1.688-2.972-3.923 0-1.938.922-3.967 3.034-3.967 2.133 0 2.975 2.172 2.975 3.903 0 2.321-1.292 3.986-3.014 3.986h-.023v.001zm-.021 1.392c2.36 0 4.924-1.646 4.924-5.442 0-3.102-1.93-5.229-4.78-5.229-2.728 0-4.922 2.002-4.922 5.42 0 3.226 2.092 5.252 4.76 5.252h.018v-.001zM57.602 130.957c-.8.315-2.4.778-4.266.778-2.091 0-3.816-.547-5.167-1.875-1.189-1.183-1.93-3.082-1.93-5.293 0-4.24 2.852-7.344 7.485-7.344 1.6 0 2.872.358 3.467.656l-.451 1.496c-.738-.357-1.661-.611-3.057-.611-3.362 0-5.558 2.152-5.558 5.715 0 3.608 2.094 5.739 5.333 5.739 1.169 0 1.971-.171 2.382-.381v-4.239h-2.793v-1.478h4.555v6.837zM60.308 124.567c0-1.204-.022-2.238-.083-3.187h1.58l.081 2.004h.063c.452-1.37 1.558-2.235 2.769-2.235.184 0 .328.021.492.061v1.731c-.206-.022-.389-.044-.636-.044-1.272 0-2.173.992-2.422 2.364a6.292 6.292 0 0 0-.061.886v5.441h-1.806l.023-7.021zM72.103 128.151c0 .19-.02.399-.08.59-.289.865-1.128 1.709-2.442 1.709-.902 0-1.681-.548-1.681-1.772 0-1.982 2.233-2.341 4.203-2.299v1.772zm1.764-2.828c0-2.046-.738-4.174-3.794-4.174-1.25 0-2.46.358-3.28.887l.409 1.241c.699-.485 1.661-.758 2.605-.758 2.03-.02 2.258 1.519 2.258 2.362v.21c-3.836-.022-5.969 1.328-5.969 3.798 0 1.476 1.025 2.932 3.033 2.932 1.416 0 2.503-.717 3.036-1.52h.063l.162 1.287h1.622c-.103-.696-.145-1.561-.145-2.445v-3.82zM76.758 124.143c0-1.075-.02-1.918-.081-2.762h1.599l.103 1.665h.04c.491-.948 1.642-1.896 3.283-1.896 1.375 0 3.507.844 3.507 4.345v6.095h-1.805v-5.886c0-1.643-.594-3.037-2.296-3.037-1.169 0-2.092.865-2.422 1.901-.081.229-.122.568-.122.861v6.16h-1.806v-7.446zM85.7 134.585c.841-.064 1.541-.296 1.971-.781.492-.569.697-1.391.697-3.838v-8.585h1.806v9.302c0 1.983-.309 3.27-1.191 4.196-.8.823-2.111 1.16-3.077 1.16l-.206-1.454zm3.529-15.084c-.677 0-1.128-.546-1.128-1.199 0-.654.472-1.184 1.169-1.184s1.147.529 1.147 1.184c0 .653-.43 1.199-1.169 1.199h-.019zM98.355 128.151c0 .19-.02.399-.08.59-.289.865-1.131 1.709-2.445 1.709-.902 0-1.681-.548-1.681-1.772 0-1.982 2.236-2.341 4.206-2.299v1.772zm1.764-2.828c0-2.046-.738-4.174-3.794-4.174-1.25 0-2.46.358-3.281.887l.41 1.241c.696-.485 1.661-.758 2.605-.758 2.029-.02 2.256 1.519 2.256 2.362v.21c-3.836-.022-5.968 1.328-5.968 3.798 0 1.476 1.024 2.932 3.035 2.932 1.414 0 2.502-.717 3.035-1.52h.062l.164 1.287h1.619c-.104-.696-.143-1.561-.143-2.445v-3.82zM107.193 129.354c.801.528 1.947.927 3.18.927 1.822 0 2.893-.969 2.893-2.426 0-1.308-.74-2.085-2.605-2.805-2.256-.841-3.65-2.064-3.65-4.05 0-2.216 1.783-3.86 4.471-3.86 1.393 0 2.441.338 3.035.696l-.492 1.499c-.43-.275-1.355-.676-2.605-.676-1.885 0-2.602 1.161-2.602 2.132 0 1.328.838 1.981 2.746 2.74 2.338.948 3.506 2.09 3.506 4.179 0 2.192-1.559 4.111-4.818 4.111-1.334 0-2.789-.422-3.529-.929l.47-1.538zM117.939 121.381l1.951 5.717c.326.949.594 1.792.799 2.636h.061c.227-.844.512-1.687.84-2.636l1.93-5.717h1.887l-3.896 10.208h-1.723l-3.775-10.208h1.926zM132.994 119.842c.613 0 1.006-.485 1.006-1.058 0-.59-.432-1.053-.984-1.053-.596 0-1.027.484-1.027 1.053 0 .572.412 1.058.984 1.058h.021zm-3.732 0c.594 0 .984-.485.984-1.058 0-.59-.43-1.053-.984-1.053-.576 0-1.025.484-1.025 1.053 0 .572.41 1.058 1.002 1.058h.023zm5.826 6.98c.039-.21.062-.507.062-.887 0-1.875-.844-4.809-4.084-4.809-2.893 0-4.678 2.426-4.678 5.524 0 3.061 1.848 5.15 4.883 5.15 1.578 0 2.688-.359 3.322-.656l-.328-1.308c-.658.274-1.455.508-2.748.508-1.807 0-3.344-1.034-3.385-3.545l6.956.023zm-6.934-1.35c.143-1.285.924-3.016 2.768-3.016 2.012 0 2.502 1.857 2.482 3.016h-5.25zM142.613 128.151c0 .19-.02.399-.082.59-.287.865-1.127 1.709-2.441 1.709-.902 0-1.68-.548-1.68-1.772 0-1.982 2.234-2.341 4.203-2.299v1.772zm1.764-2.828c0-2.046-.74-4.174-3.795-4.174-1.25 0-2.461.358-3.279.887l.41 1.241c.697-.485 1.66-.758 2.604-.758 2.029-.02 2.258 1.519 2.258 2.362v.21c-3.838-.022-5.969 1.328-5.969 3.798 0 1.476 1.021 2.932 3.033 2.932 1.416 0 2.502-.717 3.035-1.52h.062l.162 1.287h1.621c-.102-.696-.143-1.561-.143-2.445v-3.82h.001zM147.268 116.612h1.804v14.977h-1.804v-14.977zM157.297 128.151c0 .19-.02.399-.082.59-.287.865-1.127 1.709-2.439 1.709-.902 0-1.684-.548-1.684-1.772 0-1.982 2.238-2.341 4.205-2.299v1.772zm1.765-2.828c0-2.046-.74-4.174-3.795-4.174-1.25 0-2.461.358-3.283.887l.41 1.241c.697-.485 1.662-.758 2.605-.758 2.031-.02 2.256 1.519 2.256 2.362v.21c-3.836-.022-5.969 1.328-5.969 3.798 0 1.476 1.027 2.932 3.035 2.932 1.416 0 2.504-.717 3.037-1.52h.061l.164 1.287h1.621c-.102-.696-.143-1.561-.143-2.445v-3.82h.001zM161.953 124.143c0-1.075-.02-1.918-.084-2.762h1.6l.105 1.665h.039c.492-.948 1.643-1.896 3.283-1.896 1.373 0 3.506.844 3.506 4.345v6.095h-1.807v-5.886c0-1.643-.592-3.037-2.293-3.037-1.172 0-2.094.865-2.422 1.901-.082.229-.123.568-.123.861v6.16h-1.805v-7.446h.001zM180.104 127.308c0 .295-.02.547-.082.8-.328 1.373-1.438 2.216-2.646 2.216-1.926 0-2.934-1.709-2.934-3.796 0-2.235 1.107-3.923 2.975-3.923 1.354 0 2.338.971 2.605 2.129.062.253.082.551.082.805v1.769zm0-10.696v6.075h-.041c-.432-.8-1.455-1.538-2.994-1.538-2.4 0-4.473 2.067-4.451 5.482 0 3.102 1.867 5.189 4.268 5.189 1.619 0 2.809-.864 3.361-2.005h.043l.082 1.772h1.619c-.061-.696-.084-1.729-.084-2.638V116.61h-1.803v.002z"/><path d="M23.551 141.199c.151-.038.45-.063.885-.063 1.084 0 1.677.461 1.677 1.234 0 .849-.704 1.364-1.845 1.364-.31 0-.538-.013-.717-.052v-2.483zm-2.128 6.963h2.128v-3.021c.194.039.45.053.73.053 1.268 0 2.367-.288 3.099-.888.564-.464.859-1.163.859-1.995 0-.824-.396-1.523-.999-1.934-.634-.464-1.593-.687-2.916-.687-1.311 0-2.24.074-2.902.172v8.3h.001zM31.733 141.175c.154-.039.451-.063.971-.063.984 0 1.576.398 1.576 1.161 0 .736-.632 1.213-1.703 1.213h-.844v-2.311zm-2.128 6.987h2.128v-3.305h.634c.885.014 1.294.284 1.562 1.347.267 1.036.505 1.722.649 1.958h2.194c-.18-.323-.463-1.42-.761-2.382-.238-.774-.605-1.325-1.268-1.561v-.037c.817-.265 1.679-.999 1.679-2.062 0-.773-.311-1.359-.89-1.762-.677-.485-1.661-.668-3.071-.668-1.156 0-2.167.074-2.859.183v8.289h.003zM42.015 146.792c-1.436 0-2.294-1.234-2.294-2.822 0-1.571.83-2.845 2.31-2.845 1.478 0 2.282 1.298 2.282 2.809 0 1.646-.833 2.858-2.282 2.858h-.016zm-.07 1.511c2.773 0 4.646-1.662 4.646-4.433 0-2.321-1.591-4.256-4.507-4.256-2.788 0-4.62 1.883-4.62 4.406 0 2.397 1.664 4.282 4.465 4.282h.016v.001zM50.14 141.224c.186-.038.507-.072.973-.072 1.86 0 3.017.861 3.017 2.67 0 2.009-1.283 2.955-3.242 2.944-.253 0-.562 0-.748-.037v-5.505zM48 148.128c.523.062 1.323.122 2.439.122 1.855 0 3.394-.348 4.391-1.084.902-.687 1.564-1.797 1.564-3.409 0-1.496-.621-2.547-1.606-3.196-.9-.609-2.083-.869-3.902-.869-1.071 0-2.098.057-2.887.183v8.253H48zM59.945 139.748v4.834c0 1.461.634 2.194 1.718 2.194 1.128 0 1.747-.699 1.747-2.194v-4.834h2.139v4.723c0 2.595-1.477 3.832-3.953 3.832-2.397 0-3.792-1.186-3.792-3.86v-4.694h2.141v-.001zM74.367 147.939c-.378.164-1.283.363-2.424.363-3.282 0-4.97-1.823-4.97-4.234 0-2.869 2.308-4.454 5.18-4.454 1.115 0 1.961.199 2.338.372l-.45 1.501a5.033 5.033 0 0 0-1.801-.312c-1.691 0-3.014.912-3.014 2.795 0 1.686 1.125 2.745 3.027 2.745.662 0 1.368-.11 1.803-.274l.311 1.498zM77.634 141.348h-2.565v-1.6h7.299v1.6h-2.591v6.814h-2.143v-6.814zM87.214 146.792c-1.436 0-2.296-1.234-2.296-2.822 0-1.571.832-2.845 2.31-2.845 1.479 0 2.284 1.298 2.284 2.809 0 1.646-.833 2.858-2.284 2.858h-.014zm-.068 1.511c2.771 0 4.646-1.662 4.646-4.433 0-2.321-1.591-4.256-4.507-4.256-2.789 0-4.622 1.883-4.622 4.406 0 2.397 1.663 4.282 4.465 4.282h.018v.001zM93.27 146.217a5.968 5.968 0 0 0 2.379.525c.986 0 1.509-.363 1.509-.925 0-.514-.451-.824-1.589-1.174-1.58-.501-2.62-1.272-2.62-2.509 0-1.435 1.365-2.521 3.588-2.521 1.086 0 1.859.187 2.424.422l-.48 1.526a4.885 4.885 0 0 0-1.97-.401c-.929 0-1.383.388-1.383.812 0 .537.522.772 1.762 1.197 1.675.551 2.453 1.324 2.453 2.521 0 1.412-1.211 2.61-3.817 2.61-1.086 0-2.154-.263-2.691-.525l.435-1.558zM107.762 146.792c-1.436 0-2.295-1.234-2.295-2.822 0-1.571.832-2.845 2.311-2.845 1.477 0 2.281 1.298 2.281 2.809 0 1.646-.83 2.858-2.281 2.858h-.016zm-.071 1.511c2.779 0 4.65-1.662 4.65-4.433 0-2.321-1.592-4.256-4.508-4.256-2.789 0-4.619 1.883-4.619 4.406 0 2.397 1.66 4.282 4.465 4.282h.012v.001zM115.877 141.175c.154-.039.451-.063.971-.063.988 0 1.578.398 1.578 1.161 0 .736-.635 1.213-1.705 1.213h-.844v-2.311zm-2.127 6.987h2.127v-3.305h.631c.891.014 1.297.284 1.568 1.347.266 1.036.504 1.722.645 1.958h2.199c-.188-.323-.467-1.42-.762-2.382-.238-.774-.605-1.325-1.268-1.561v-.037c.814-.265 1.674-.999 1.674-2.062 0-.773-.309-1.359-.885-1.762-.678-.485-1.662-.668-3.072-.668-1.154 0-2.168.074-2.857.183v8.289zM129.975 147.777c-.662.201-1.916.473-3.168.473-1.73 0-2.988-.385-3.859-1.121-.859-.739-1.34-1.836-1.34-3.071.018-2.798 2.312-4.393 5.424-4.393 1.225 0 2.172.209 2.635.397l-.453 1.534c-.52-.21-1.154-.358-2.193-.358-1.793 0-3.156.896-3.156 2.719 0 1.749 1.238 2.758 2.998 2.758.48 0 .877-.047 1.043-.11v-1.773h-1.463v-1.485h3.533v4.43h-.001zM134.16 144.582l.574-1.785c.141-.485.297-1.126.426-1.622h.041c.141.483.311 1.121.465 1.622l.592 1.785h-2.098zm2.422 1.421l.73 2.159h2.312l-2.959-8.414h-2.803l-2.902 8.414h2.225l.664-2.159h2.733zM140.891 148.162v-8.414h2.508l1.973 3.086a25.495 25.495 0 0 1 1.549 2.885h.027c-.127-1.112-.172-2.247-.172-3.523v-2.447h1.975v8.414h-2.254l-2.027-3.243c-.564-.909-1.199-1.984-1.648-2.973h-.055c.07 1.123.098 2.312.098 3.686v2.53h-1.974v-.001zM152.764 139.748v8.414h-2.141v-8.414h2.141zM161.582 147.939c-.381.164-1.283.363-2.424.363-3.281 0-4.971-1.823-4.971-4.234 0-2.869 2.311-4.454 5.184-4.454 1.113 0 1.957.199 2.336.372l-.449 1.501a5.05 5.05 0 0 0-1.803-.312c-1.689 0-3.014.912-3.014 2.795 0 1.686 1.127 2.745 3.025 2.745.664 0 1.369-.11 1.803-.274l.313 1.498zM166.684 146.792c-1.438 0-2.297-1.234-2.297-2.822 0-1.571.83-2.845 2.311-2.845 1.479 0 2.279 1.298 2.279 2.809 0 1.646-.83 2.858-2.279 2.858h-.014zm-.073 1.511c2.777 0 4.65-1.662 4.65-4.433 0-2.321-1.594-4.256-4.51-4.256-2.789 0-4.617 1.883-4.617 4.406 0 2.397 1.66 4.282 4.465 4.282h.012v.001zM172.74 146.217a5.956 5.956 0 0 0 2.379.525c.986 0 1.508-.363 1.508-.925 0-.514-.451-.824-1.592-1.174-1.578-.501-2.617-1.272-2.617-2.509 0-1.435 1.363-2.521 3.592-2.521 1.08 0 1.854.187 2.42.422l-.479 1.526a4.912 4.912 0 0 0-1.971-.401c-.932 0-1.381.388-1.381.812 0 .537.52.772 1.76 1.197 1.678.551 2.453 1.324 2.453 2.521 0 1.412-1.217 2.61-3.82 2.61-1.084 0-2.156-.263-2.691-.525l.439-1.558z" fill="#fff"/></g></svg>