<svg xmlns="http://www.w3.org/2000/svg" width="2500" height="2500" viewBox="0 0 192.756 192.756"><g fill-rule="evenodd" clip-rule="evenodd"><path fill="#fff" d="M0 0h192.756v192.756H0V0z"/><path fill="#2566af" d="M78.773 100.133l.629-3.578h-7.767l.424-2.409h6.319l.63-3.581h-6.32l.386-2.196h7.469l.629-3.58H68.681l-2.698 15.344h12.79zM88.203 88.369h.957c2.681 0 3.575.853 3.014 4.05-.51 2.897-2.005 4.135-4.346 4.135h-1.063l1.438-8.185zm-.494 11.764c4.915 0 8.519-2.217 9.535-7.99.887-5.053-1.772-7.354-6.709-7.354H83.81l-2.7 15.344h6.599zM103.986 91.78l.6-3.411h1.426c1.064 0 2.646.193 2.396 1.62-.232 1.322-1.166 1.791-2.336 1.791h-2.086zm-1.468 8.353l.838-4.773h2.533c4.406 0 6.732-2.088 7.312-5.393.555-3.154-1.217-5.179-5.623-5.179h-7.385l-2.699 15.344h5.024v.001z"/><path d="M128.277 92.237c.08-1.946-1.047-3.522-4.135-3.522-2.777 0-5.023 1.189-5.439 3.554-.746 4.25 5.846 3.09 5.549 4.775-.092.525-.746.818-1.654.818-.355 0-.725-.092-.986-.277-.275-.186-.439-.479-.447-.879h-3.488c-.275 2.008 1.338 3.723 4.27 3.723 3.055 0 5.42-1.252 5.873-3.832.713-4.049-5.857-3.013-5.564-4.683.07-.402.465-.635 1.27-.635.355 0 .668.063.906.202.236.139.396.371.391.756h3.454zM132.27 95.173c.152-.865.787-1.406 1.744-1.406.758 0 1.303.664 1.172 1.406h-2.916zm5.837 1.639c.562-2.937-.877-5.007-3.871-5.007-2.594 0-4.883 1.699-5.35 4.358-.479 2.718 1.266 4.202 3.857 4.202 1.883 0 4.039-.664 4.947-2.674h-3.072c-.314.48-.818.711-1.328.711-.848 0-1.479-.633-1.309-1.59h6.126zM138.809 100.133h3.211l.492-2.797c.307-1.745 1.078-2.364 2.391-2.364.215 0 .436.062.646.093l.564-3.214c-.137-.016-.27-.046-.408-.046-1.248 0-2.143.603-2.812 1.869h-.029l.285-1.637h-2.916l-1.424 8.096zM148.1 100.133h3.58l4.156-8.095h-3.088l-2.303 5.112-.519-5.112h-3.211l1.385 8.095zM158.734 100.133l1.424-8.095h-3.209l-1.426 8.095h3.211zm-1.603-9.132h3.209l.402-2.287h-3.211l-.4 2.287zM162.158 103.285c.637.248 1.221.434 1.945.434.787 0 1.766-.385 2.141-1.205.348-.742-.209-1.359-.846-1.422-.182-.016-.566-.107-.93.031l.773-.99h-.895l-1.098 1.422.32.371c1.154-.51 1.516.418.941.789-.209.139-.432.17-.646.17-.463 0-.844-.201-1.258-.311l-.447.711zm7.961-8.157c.191-2.396-1.682-3.323-3.844-3.323-2.67 0-4.893 1.591-5.379 4.358-.48 2.735 1.268 4.202 3.875 4.202 2.236 0 4.373-.912 5.082-3.369h-3.24c-.205.635-.629 1.205-1.461 1.205-.943 0-1.266-.803-1.051-2.023.17-.958.59-2.21 1.795-2.21.354 0 .613.109.775.325.166.201.24.479.193.835h3.255zM176.256 93.967c.84-.045 1.209.851.998 2.041-.268 1.531-.91 2.193-1.773 2.193-.82 0-1.271-.662-1.004-2.193.16-.911.683-2.041 1.779-2.041zm-5.02 2.211c-.484 2.766 1.271 4.188 3.863 4.188 2.594 0 4.844-1.391 5.365-4.357.441-2.519-1.021-4.203-3.875-4.203-2.732-.001-4.857 1.56-5.353 4.372zM181.25 97.615c-.213 2.178 1.725 2.75 3.576 2.75 2.963 0 4.553-1.143 4.85-2.826.531-3.031-4.709-2.272-4.512-3.401.072-.401.455-.573 1.012-.573.246 0 .469.063.613.202s.221.325.205.586h2.916c.193-2.148-1.805-2.549-3.562-2.549-1.684 0-3.934.603-4.297 2.674-.553 3.136 4.582 2.101 4.354 3.398-.1.572-.65.727-1.145.727-.309 0-.57-.092-.744-.246-.186-.17-.266-.418-.209-.742h-3.057z" fill="#00acec"/><path d="M17.669 72.061c5.977-3.649 13.587-4.394 20.467-1.329a21.927 21.927 0 0 1 8.954 7.296 12.642 12.642 0 0 1 1.275 12.532c-2.782 6.252-10.005 9.135-16.296 6.586l.005-.004a15.319 15.319 0 0 0 2.442-3.835c3.436-7.723-.034-16.766-7.751-20.204a15.258 15.258 0 0 0-9.096-1.042z" fill="#2566af"/><path d="M51.259 90.409c.171 7.003-2.99 13.97-9.083 18.4a21.942 21.942 0 0 1-10.794 4.109 12.638 12.638 0 0 1-11.486-5.162c-4.019-5.535-2.903-13.236 2.448-17.412l.001.005a15.293 15.293 0 0 0 2.099 4.034c4.967 6.837 14.529 8.353 21.364 3.386a15.259 15.259 0 0 0 5.451-7.36z" fill="#2566af"/><path d="M18.642 110.393c-6.146-3.354-10.597-9.574-11.383-17.068a21.975 21.975 0 0 1 1.838-11.407 12.64 12.64 0 0 1 10.211-7.37c6.803-.716 12.909 4.101 13.851 10.826l-.005-.002a15.28 15.28 0 0 0-4.544-.197c-8.401.883-14.494 8.412-13.612 16.817a15.288 15.288 0 0 0 3.644 8.401z" fill="#2566af"/><path d="M11.537 120.205c-.089.391-.217.752-.452 1.078a2.172 2.172 0 0 1-1.762.912c-1.19 0-1.67-1.006-1.428-2.156.314-1.477 1.107-2.488 2.479-2.488.773 0 1.365.447 1.372 1.229h.506c.013-1.113-.734-1.648-1.825-1.648-1.64 0-2.658 1.186-2.98 2.713-.394 1.852.373 2.77 1.688 2.77 1.025 0 1.668-.404 2.161-1.025l-.189.889h.419l.571-2.691H9.871l-.089.42h1.755v-.003zM13.785 119.691l.425-2.004h1.562c.656 0 1.223.188 1.058.969-.155.732-.782 1.035-1.512 1.035h-1.533zm1.458.42c.49 0 .903.072.897.637-.006.398-.263 1.373-.136 1.729h.542l.01-.051c-.109-.102-.127-.316.017-1.107.103-.549.206-1.199-.364-1.41.656-.268.975-.613 1.116-1.273.203-.963-.34-1.367-1.48-1.367h-2.037l-1.105 5.209h.491l.501-2.365h1.548v-.002zM17.954 120.516c-.283 1.332.212 2.098 1.57 2.098 1.344 0 2.173-.744 2.461-2.098l.688-3.248h-.491l-.659 3.105c-.261 1.229-.791 1.822-1.911 1.822-1.063 0-1.411-.535-1.139-1.822l.659-3.105h-.492l-.686 3.248zM23.218 122.477l.486-2.301h1.114c.961 0 2.054-.287 2.302-1.453.166-.781-.039-1.455-1.389-1.455h-1.9l-1.105 5.209h.492zm.576-2.719l.44-2.07h1.271c.924 0 1.27.348 1.131.998-.188.885-.798 1.072-1.715 1.072h-1.127zM27.511 119.881c-.318 1.496.236 2.732 1.84 2.732s2.69-1.236 3.008-2.732c.323-1.527-.24-2.75-1.865-2.75-1.555 0-2.667 1.228-2.983 2.75zm1.937 2.314c-1.359 0-1.707-1.086-1.445-2.314.256-1.209 1.079-2.33 2.415-2.33 1.2 0 1.757.883 1.449 2.33-.258 1.215-1.069 2.314-2.419 2.314zM39.494 122.477l.214-1.217h-2.636l.143-.815h2.145l.214-1.216h-2.145l.131-.747h2.536l.212-1.214h-4.24l-.916 5.209h4.342zM42.697 118.482h.326c.91 0 1.214.291 1.022 1.375-.173.984-.68 1.402-1.475 1.402h-.361l.488-2.777zm-.168 3.995c1.668 0 2.892-.752 3.237-2.711.301-1.717-.601-2.498-2.277-2.498h-2.282l-.917 5.209h2.239zM48.056 119.641l.205-1.158h.484c.359 0 .898.066.813.551-.08.449-.397.607-.794.607h-.708zm-.499 2.836l.286-1.619h.859c1.497 0 2.284-.711 2.483-1.832.188-1.07-.414-1.758-1.91-1.758H46.77l-.916 5.209h1.703zM58.39 68.819v53.851h.911V68.819h-.911z" fill="#a6a8aa"/></g></svg>