<svg xmlns="http://www.w3.org/2000/svg" width="2500" height="2500" viewBox="0 0 192.756 192.756"><g fill-rule="evenodd" clip-rule="evenodd"><path fill="#fff" d="M0 0h192.756v192.756H0V0z"/><path d="M73.864 86.271l-4.174-.038v.424l1.107.103v7.755l-1.141.099-.003.443 4.148-.022 4.186.092.003-3.454h-.745s-.078.349-.354 1.215c-.304.951-.562 1.47-1.503 1.516-.557.028-2.041.054-2.041.054v-3.836l1.608.037c.413.007.444.172.55.654 0 0 .083.452.147.878l.497.001v-3.641h-.505c-.06.408-.131.871-.131.871-.121.573-.122.584-.588.608-.384.019-1.578.03-1.578.03v-3.35s1.552.032 2.455.062c.701.022.859.348.984.875.075.322.346 1.547.346 1.547h.678l-.03-2.954-3.916.031zM83.232 87.293c.869 0 .908.013 1.595.081.866.084 2.848.401 2.848 3.544 0 3.65-2.492 4.096-3.414 4.104-1.221.011-1.561-.003-2.809-.02-1.235-.008-2.561.014-2.561.014v-.381l.906-.081v-6.772l-.903-.078v-.371s2.241.057 4.338-.04zm-1.173 7.261s.421-.003 1.12-.013c1.173-.017 2.202-.467 2.202-3.597 0-2.995-1.345-3.158-2.188-3.169-.534-.006-1.134-.006-1.134-.006v6.785zM99.24 89.854c.025-.003-.211-2.555-.211-2.555-.324.01-1.051-.01-1.617-.048-.926-.07-2.058-.124-2.799.263-.902.472-1.311 1.659-1.086 2.623.177.755.79 1.442 1.922 1.703 2.055.475 2.325.571 2.661 1.13.221.367.119 1.116-.457 1.439-.728.41-1.205.274-1.855.152-1.449-.269-1.628-2.568-1.628-2.568h-.677s.007 2.908 0 3.062c1.495.045 1.998.056 3.632.121.584.023 1.486-.268 1.918-.603.523-.406.754-.893.885-1.566.188-.967-.219-1.949-1.109-2.422-1.016-.541-2.116-.541-3.219-1.097-.616-.31-.71-1.223-.179-1.618.674-.499 1.968-.292 2.472.305.365.431.572.99.736 1.678h.611v.001zM91.121 87.355h-1.886l-1.126-.054v.394l.98.097v6.795l-.98.09v.401l1.087-.054 1.964-.001 1.118.053v-.399l-.966-.09v-6.782l.993-.103-.013-.401-1.171.054zM104.969 95.437c-1.105-.007-2.203-.284-2.865-.745-2.021-1.4-1.752-4.987-.416-6.506.584-.665 2.062-1.096 3.291-1.096 1.227 0 2.383.249 3.172 1.047 1.256 1.273 1.328 3.901.703 5.299-.665 1.489-2.301 2.013-3.885 2.001zm-.031-7.857c-.646.001-1.283.288-1.547.919-.666 1.603-.574 4.262.07 5.586.582 1.202 2.623 1.112 3.078-.075.52-1.364.658-3.897-.053-5.498-.277-.621-.851-.933-1.548-.932zM110.867 95.025l-1.17.019v-.391l.838-.055.049-6.771-.908-.087v-.394l1.629.013 1.576-.024 3.488 5.229-.105-4.761-.825-.068v-.391l1.168.018 1.219-.018v.4l-.851.07-.086 7.23h-1.674l-4.113-6.378.146 5.921.848.058v.399l-1.229-.019zM126.168 86.271l-4.176-.038v.424l1.107.103v7.755l-1.141.099-.004.443 4.148-.022 4.186.092.004-3.454h-.744s-.078.349-.355 1.215c-.303.951-.562 1.47-1.502 1.516-.559.028-2.041.054-2.041.054v-3.836l1.607.037c.414.007.445.172.551.654 0 0 .082.452.146.878l.496.001v-3.641h-.504c-.061.408-.133.871-.133.871-.119.573-.121.584-.586.608-.385.019-1.578.03-1.578.03v-3.35s1.551.032 2.455.062c.699.022.859.348.982.875.076.322.348 1.547.348 1.547h.678l-.031-2.954-3.913.031zM158.566 87.296c1.67 0 3.373-.027 3.684-.053v2.814h-.5s-.227-.628-.449-1.27c-.227-.661-.42-1.026-.85-1.043l-.805-.014v6.8l1.02.094v.411l-1.094-.053h-2.014l-1.092.053v-.411l1.018-.094v-6.8l-.805.014c-.428.017-.621.382-.85 1.043-.221.642-.447 1.27-.447 1.27h-.502v-2.814c.324.028 2.029.053 3.688.053h-.002zM137.164 92.209c-.145.528-.203.701-.32 1.044-.285.834-.549 1.109-1.174 1.151-.605.041-1.615.059-1.615.059v-6.681.001l.99-.115v-.392l-2.043.061-2.102-.044v.392l.973.12v6.697l-.973.098v.412l2.648-.06 4.303.046-.016-3.417h-.539c.001.001-.044.212-.132.628zM142.176 87.302l-3.658-.033v.371l.969.091v6.795l-.998.087-.005.387 3.635-.02 3.668.081.004-3.025h-.654s-.068.306-.311 1.064c-.266.833-.492 1.288-1.316 1.329a97.89 97.89 0 0 1-1.789.046v-3.361l1.41.032c.363.007.389.152.482.573 0 0 .072.396.129.77h.434V89.3h-.441l-.115.763c-.105.502-.105.512-.514.533-.338.017-1.385.027-1.385.027v-2.936s1.361.028 2.152.054c.613.02.752.305.861.766.066.282.303 1.356.303 1.356h.596l-.027-2.587-3.43.026zM175.18 87.305h-1.885l-1.125-.055v.395l.978.096v6.796l-.978.089v.403l1.086-.054 1.963-.001 1.119.052v-.4l-.965-.089v-6.782l.992-.104-.013-.401-1.172.055zM154.049 87.29c-.975.034-3.143-.597-5.168-.028-.857.241-1.588.942-1.871 1.672-.592 1.517-.787 4.373.826 5.545 1.807 1.316 5.268.409 6.219.588l-.012-3.059-.572.01c-.104.762-.266 1.585-.834 2.211-.703.769-2.109.584-2.629.267-1.506-.918-1.361-4.93-.449-6.353.301-.47 1.029-.768 1.602-.757 1.541.03 2.1.853 2.264 2.503l.641-.008-.017-2.591zM184.236 87.29c-.973.034-3.143-.597-5.168-.028-.855.241-1.588.942-1.871 1.672-.594 1.517-.785 4.373.826 5.545 1.809 1.316 5.268.409 6.219.588l-.012-3.059-.572.01c-.104.762-.266 1.585-.836 2.211-.699.769-2.107.584-2.627.267-1.504-.918-1.361-4.93-.449-6.353.301-.47 1.029-.768 1.602-.757 1.541.03 2.1.853 2.264 2.503l.641-.008-.017-2.591zM165.998 94.952h-2.018l-1.047.054v-.412l.973-.093v-6.656l-.973-.09v-.391s4.48.027 5.877 0 1.68 1.03 1.68 1.672c0 1.286-1.137 2.014-2.486 2.037-.014 0 .016.009.002.009 1.732.003 2.416.287 2.518 1.217.086.771.113 1.053.186 1.738.027.254.066.496.24.531.117.023.604.084.604.084v.401s-1.299.003-1.918-.013c-1.18-.031-1.217-.222-1.273-2.113-.021-.742-.162-1.112-.811-1.329a2.606 2.606 0 0 0-.771-.128c-.801.002-.711 0-.711 0v3.032l.973.093v.412l-1.045-.055zm.07-4.021s.486-.012.877-.061c.516-.063 1.365-.351 1.365-1.607 0-1.083-.746-1.411-1.32-1.411h-.922v3.079zM73.221 97.682h-2.117l-1.265-.061v.441l1.1.11v7.636l-1.1.1v.453l1.22-.061h2.208l1.256.058v-.45l-1.085-.1v-7.62l1.115-.118-.014-.449-1.318.061zM119.17 98.628l-1.174-.013v.374l.871.093s.025 4.864 0 5.51c-.006.134.043.924-.994 1.192-1.484.385-2.562-.384-2.674-1.064-.127-.771-.096-5.638-.096-5.638l1.033-.093v-.401l-1.41.027h-1.305l-1.398-.027v.401l.99.093.025 5.163c0 .529.35 1.232.855 1.59 1.236.876 3.242.808 4.354.389.799-.303 1.258-.872 1.258-2.183.023-2.11.033-4.959.033-4.959l.844-.065v-.401l-1.212.012zM76.321 106.269l-1.17.019v-.392l.839-.055.049-6.771-.911-.087v-.395l1.63.014 1.578-.024 3.488 5.229-.107-4.76-.823-.068v-.392l1.168.018 1.218-.018v.399l-.851.073-.085 7.229H80.67l-4.113-6.379.144 5.92.849.059v.4l-1.229-.019zM89.663 101.098c.026-.003-.21-2.555-.21-2.555a22.312 22.312 0 0 1-1.619-.049c-.925-.07-2.058-.125-2.798.262-.903.472-1.312 1.66-1.086 2.624.176.755.79 1.441 1.921 1.703 2.054.475 2.325.57 2.66 1.13.22.367.12 1.116-.456 1.44-.729.409-1.206.272-1.856.15-1.447-.269-1.627-2.567-1.627-2.567h-.676s.006 2.907 0 3.062c1.494.045 1.997.056 3.632.121.585.022 1.487-.269 1.918-.603.523-.406.754-.893.885-1.566.188-.967-.22-1.949-1.109-2.423-1.016-.541-2.116-.541-3.221-1.096-.616-.311-.708-1.225-.177-1.618.673-.5 1.968-.292 2.472.304.365.432.573.991.734 1.68h.613v.001zM124.504 98.594c1.67 0 3.373-.027 3.686-.054v2.814h-.502s-.227-.627-.447-1.27c-.229-.661-.422-1.026-.852-1.044l-.803-.013v6.8l1.018.094v.411l-1.092-.054h-2.014l-1.094.054v-.411l1.018-.094v-6.8l-.803.013c-.43.018-.623.383-.85 1.044-.223.643-.449 1.27-.449 1.27h-.502V98.54c.326.027 2.031.054 3.688.054h-.002zM132.65 98.544l-3.658-.033v.373l.971.089v6.795l-1 .087-.002.39 3.635-.021 3.668.079.002-3.025h-.652s-.068.306-.311 1.065c-.268.833-.492 1.287-1.316 1.328-.49.023-1.789.047-1.789.047v-3.36l1.408.032c.363.007.391.15.482.572 0 0 .072.396.129.771l.436.001v-3.191h-.441c-.053.357-.117.764-.117.764-.105.502-.105.512-.514.533-.336.017-1.383.026-1.383.026v-2.935s1.359.027 2.152.053c.613.02.752.305.861.767.066.281.303 1.354.303 1.354h.594l-.025-2.586-3.433.025zM102.098 98.598h-1.885l-1.125-.054v.394l.978.096v6.795l-.978.09v.402l1.084-.053h1.965l1.119.052v-.401l-.967-.09v-6.781l.994-.103-.013-.401-1.172.054zM107.877 98.594c1.67 0 3.373-.027 3.684-.054v2.814h-.5s-.227-.627-.447-1.27c-.229-.661-.422-1.026-.852-1.044l-.805-.013v6.8l1.02.094v.411l-1.092-.054h-2.014l-1.094.054v-.411l1.02-.094v-6.8l-.807.013c-.428.018-.621.383-.85 1.044-.221.643-.447 1.27-.447 1.27h-.502V98.54c.324.027 2.031.054 3.688.054h-.002zM94.424 98.594c1.67 0 3.373-.027 3.685-.054v2.814h-.502s-.227-.627-.447-1.27c-.228-.661-.422-1.026-.851-1.044l-.803-.013v6.8l1.018.094v.411l-1.093-.054h-2.014l-1.093.054v-.411l1.019-.094v-6.8l-.805.013c-.428.018-.623.383-.851 1.044-.221.643-.447 1.27-.447 1.27h-.501V98.54c.325.027 2.03.054 3.687.054h-.002zM51.444 95.181v1.2h9.847v10.015H8.504V96.381h9.847v-1.2H8.504v-8.897h52.787v8.897h-9.847zm-33.093 6.821c-.646.11-1.05.191-1.695.272v.547h13.022v-4.939c0 .027-.942.027-.942 0-.212.656-.392 1.423-.699 2.047-.089.562-.479.959-.754 1.42-.215.244-.273.234-.431.326-.48.227-.914.219-1.506.219-.682-.041-1.363.028-2.045 0v-5.513h-4.95v5.621zm0-6.821h4.95v-4.53c.682-.029 1.363.041 2.045 0 .914.026 1.375.026 2.044.219.201.119.392.249.539.437.323.818.498 1.676.565 2.538h.942v-4.039c-.027 0-12.861.027-12.888 0v.628c.592.082 1.238.163 1.803.218v4.529zm14.098-4.421v11.134c-.613.097-1.157.191-1.803.327v.601c-.027 0 13.264.026 13.264 0v-5.048h-1.104c-.091.886-.546 1.749-.78 2.592-.215.464-.215.491-.431.765-.245.275-.484.491-.861.654-1.13.109-2.098.109-3.336.109v-5.54h2.422c.403 0 .511.437.591.683.081.245.269 1.5.269 1.5h.727V93.08h-.646s-.215 1.146-.323 1.61c-.107.464-.296.437-.645.437h-2.395v-4.476s2.933-.109 3.793.109c.861.218.888.764 1.022 1.254.135.492.404 1.829.404 1.829h.915v-4.066H30.725v.655l1.724.328zm-9.121 5.621h2.368c.431 0 .512.354.591.709.082.355.269 1.501.269 1.501h.754v-5.566h-.619s-.189 1.064-.35 1.582c-.161.52-.296.574-.78.574h-2.233v1.2zm29.838-6.058v-.519H44.88v.6l1.694.191v4.585h4.87v-4.585l1.722-.272zm-6.592 6.058v5.621l-1.721.164v.628h8.42v-.628l-1.829-.164v-5.621h-4.87z" fill="#345f9f"/></g></svg>