<svg xmlns="http://www.w3.org/2000/svg" width="2500" height="2500" viewBox="0 0 192.756 192.756"><g fill-rule="evenodd" clip-rule="evenodd"><path fill="#fff" d="M0 0h192.756v192.756H0V0z"/><path d="M184.58 104.584h-.902v-.496h2.35v.496h-.908v2.447h-.539v-2.447h-.001zm2.139-.496h.838l.77 1.988.756-1.988h.84v2.943h-.539v-2.25h-.014l-.83 2.25h-.438l-.83-2.25h-.014v2.25h-.539v-2.943z" fill="#1d5b99"/><path d="M98.969 114.32l-1.641.004a.096.096 0 0 0-.074.088v2.451h-1.117a.074.074 0 0 0-.076.074v.623c0 .037.033.07.076.07h1.126l-.01 4.994c0 1.693.779 2.484 2.453 2.484.695 0 1.838-.42 1.852-.42a.268.268 0 0 0 .135-.205s.014-.443.014-.561c-.125.051-.762.289-1.254.289-1.02 0-1.42-.715-1.42-2.559l-.004-4.023h2.162c.045 0 .078-.033.078-.07v-.623a.076.076 0 0 0-.078-.074h-2.158v-2.48l-.014-.049-.041-.014h-.009v.001zM129.797 120.781c0 2.543 1.736 4.328 4.234 4.328 2.492 0 4.23-1.785 4.23-4.328 0-2.707-2.125-4.123-4.23-4.123s-4.234 1.416-4.234 4.123zm1.916 0c0-1.543.609-3.355 2.318-3.355s2.318 1.732 2.318 3.355c0 2.258-.844 3.553-2.318 3.553-1.453 0-2.318-1.332-2.318-3.553zM147.105 120.367v4.461c0 .043.031.074.078.074h1.617c.041 0 .078-.031.078-.074v-3.896c0-2.111.959-2.998 1.766-3.123.488-.078 1.295.035 1.326.039l.033-.004.01-.025v-.736c0-.07-.074-.176-.148-.205-.01 0-.963-.219-1.434-.219-1.613-.001-3.326 1.296-3.326 3.708zM160.648 112.855a.072.072 0 0 0-.074.072v11.9c0 .043.033.074.074.074h1.627c.047 0 .078-.031.078-.074v-3.867l-.027-1.102.047.066c-.01-.08-.02-.152-.02-.27v-6.729c0-.041-.031-.072-.078-.072h-1.627v.002zm4.973 4.008a.524.524 0 0 0-.322.152c0 .01-2.299 2.863-2.299 2.863-.23.309-.268.344-.393.344-.023 0-.023-.021-.037-.023.115.168.234.338.234.338l.145.221 2.912 4.041c.051.08.193.158.295.158 0 0 1.197-.006 1.627-.006l-3.074-4.314a.655.655 0 0 1-.125-.391.63.63 0 0 1 .148-.414l2.318-2.969h-1.429zM176.146 118.768c0 .936.576 1.525 1.525 2.168 0 .004.396.273.396.273.732.488 1.42.949 1.42 1.752 0 .779-.586 1.305-1.471 1.305-.621 0-1.658-.41-1.801-.463v.494c0 .094.078.236.146.281.014.01.834.531 1.922.531 1.736 0 2.939-1.166 2.939-2.213 0-.863-.475-1.641-1.461-2.377l-.547-.383c-.738-.512-1.328-.916-1.328-1.59 0-.73.641-1.121 1.271-1.121.424 0 1.475.352 1.617.4 0-.047.02-.496.02-.496 0-.078-.078-.193-.143-.23-.014 0-.918-.441-1.789-.441-1.544 0-2.716.906-2.716 2.11zM63.847 119.611l-.009 5.264c0 .039.034.076.073.076h1.664c.039 0 .078-.037.078-.076v-4.848c0-1.488.83-2.414 2.159-2.414 1.342 0 2.075.916 2.075 2.576v4.686c0 .039.033.076.074.076h1.668c.039 0 .071-.037.071-.076v-5.264c0-2.25-1.963-3.047-3.808-3.047-.674 0-4.045.143-4.045 3.047zM116.031 119.041c-.07.002-.199.031-.277.297l-1.844 5.43c-.018.068-.115.135-.193.135h-1.146c-.064 0-.166-.07-.193-.135 0 0-2.721-7.85-2.734-7.904h1.18c.074 0 .172.072.195.139l1.818 5.1c.098.266.213.293.291.293.064.002.193-.027.291-.289l1.814-5.104a.233.233 0 0 1 .195-.139h1.201c.074 0 .172.07.203.139l1.82 5.104c.088.262.213.291.281.289.078 0 .199-.027.291-.293l1.814-5.1c.023-.066.129-.139.193-.139h1.189l-2.732 7.904c-.018.064-.125.135-.197.135h-1.152c-.07 0-.162-.066-.189-.135l-1.844-5.43c-.087-.266-.206-.295-.275-.297zM80.478 120.713c0 2.584 1.751 4.391 4.256 4.391.947 0 2.332-.475 2.929-.807.145-.082.17-.16.173-.227 0-.004.009-.516.014-.629-.634.293-1.854.686-2.707.686a2.632 2.632 0 0 1-1.911-.807c-.53-.549-.827-1.305-.827-2.129 0-.037.005-.074.005-.111l.006-.234 5.427-.004c.161-2.637-1.712-4.158-3.643-4.158s-3.722 1.521-3.722 4.029zm1.959-.83c0-1.041.399-2.266 1.765-2.266 1.398 0 1.783 1.225 1.783 2.266h-3.548z" fill="#696a6c"/><path d="M71.111 73.586a1.39 1.39 0 0 1 1.389 1.388v30.692a1.39 1.39 0 0 1-1.389 1.383h-5.882a1.386 1.386 0 0 1-1.385-1.383V74.974c0-.765.621-1.388 1.385-1.388h5.882zM109.68 89.825c0-10.76 8.502-16.998 17.406-16.998 8.963 0 17.451 6.238 17.451 16.998 0 10.291-7.027 17.796-17.451 17.796-10.363 0-17.406-7.506-17.406-17.796zm25.498 0c0-5.514-1.922-12.088-8.092-12.088-6.051 0-8.037 6.574-8.037 12.088 0 5.843 1.719 12.884 8.037 12.884 6.443 0 8.092-7.042 8.092-12.884zM150.078 85.255c0-9.473 9.031-12.367 16.129-12.367 7.111 0 15.221 4.167 15.221 12.367v20.411c0 .762-.627 1.383-1.396 1.383h-5.871c-.77 0-1.387-.621-1.387-1.383V87.618c0-5.699-2.369-8.936-6.861-8.936-4.236 0-7.199 2.796-7.199 8.137v18.846c0 .762-.627 1.383-1.396 1.383h-5.879a1.38 1.38 0 0 1-1.379-1.383l.018-20.41zM52.654 89.48c0 1.204-.753 1.989-2.12 1.989l-18.855.003c-.388 0-.623-.154-.623-.522v-3.388c0-.322.196-.53.51-.53l11.068-.008c.675 0 .961-.358.961-.809 0-.252-.005-.334-.046-.78-.461-4.993-3.388-7.496-7.183-7.496-3.81 0-8.59 2.348-8.59 11.018 0 7.602 2.341 13.678 11.731 13.678 3.576 0 9.066-.959 12.681-3.928 4.369-3.584 6.462-8.569 5.458-14.577-1.672-7.994-8.324-17.082-26.076-17.082-15.215 0-26.808 10.253-26.82 22.352-.009 12.104 11.946 21.92 26.704 21.934 8.658.01 16.355-3.363 21.242-8.594-4.544 3.521-11.464 5.234-15.285 5.234-5.49 0-10.031-1.502-13.627-4.502-4.14-3.449-6.211-7.917-6.211-13.396 0-10.808 8.614-17.279 17.556-17.279 10.84 0 17.525 5.879 17.525 16.683zM78.473 90.218c0-5.055 1.65-9.378 4.947-12.586 3.293-3.164 8.793-4.68 12.459-4.68 4.38 0 7.675.868 10.359 2.468.742.439.787 1.137.533 1.633l-1.428 2.802c-.248.511-.908.656-1.521.354-.014-.009.07.029 0 0-1.949-.893-3.848-1.406-5.732-1.47a12.245 12.245 0 0 0-1.699.054c-2.353.317-4.302 1.36-5.85 3.125-1.895 2.153-2.837 4.783-2.837 8.301s.942 6.147 2.837 8.299c1.548 1.766 3.498 2.809 5.85 3.131.542.053 1.104.072 1.699.051 1.885-.064 3.783-.58 5.732-1.473.07-.029-.014.01 0 0 .613-.303 1.273-.156 1.521.355l1.428 2.803c.254.498.209 1.193-.533 1.633-2.684 1.598-5.979 2.469-10.359 2.469-3.666 0-9.166-1.52-12.459-4.68-3.296-3.211-4.947-7.536-4.947-12.589z" fill="#1d5b99"/></g></svg>