<svg xmlns="http://www.w3.org/2000/svg" width="2500" height="1465" viewBox="0 0 175.748 102.996"><path d="M5.196 78.402c-.172-1.07-.172-1.145-1.743-1.174l.033 2.764h.669c1.195-.015 1.844-.015 2.357-.27.598-.295.684-.756.804-1.468l.496.015-.103 1.025c-.05.653-.069.83-.101.979-.036.194-.139.224-.53.224a294.54 294.54 0 0 0-5.009-.029c-.359 0-1.232 0-2.069.029v-.402l1.249-.015v-5.798l-1.163-.014v-.403c4.051.018 5.487 0 7.163-.039 0 .31 0 .442.032.903l.069 1.012-.461.059c-.086-.342-.17-.729-.427-.979-.496-.491-1.402-.491-2.275-.491h-.701l-.033 2.467c.684-.015 1.062-.015 1.333-.18.376-.223.41-.608.444-.993h.48c-.053.594-.07 1.188-.07 1.797 0 .237.017.608.036.981h-.48zM23.928 74.269c.019 2.675.036 5.35.036 5.812l1.232.015v.402c-.993-.015-2.959-.015-4.668 0v-.402l1.283-.015c0-1.438-.018-3.226-.033-5.01-.188.449-.257.582-.498 1.088l-1.161 2.346c-.582 1.132-.719 1.414-.958 1.993h-.598c-.138-.358-.206-.55-.53-1.278l-1.983-4.296c-.033 2.199-.033 2.646-.033 5.157l1.264.015v.402a113.477 113.477 0 0 0-3.197 0v-.402l1.249-.015c-.017-2.749 0-3.464.033-5.768-.103-.03-.136-.03-.462-.044l-.734-.016v-.402s1.83 0 3.657-.015c.259.658.291.731.583 1.399l1.3 2.778 1.314-2.749c.412-.908.479-1.07.616-1.429 1.178.015 2.341.015 3.521 0v.417l-1.233.017zM34.801 74.372c0-.071 0-.103.068-.118.05-.029.153-.029.395-.029.527 0 .955.045 1.264.224.274.149.547.459.547.965 0 .449-.224.834-.547 1.04-.479.329-1.179.329-1.709.329l-.018-2.411zm-2.171 4.223c0 .488 0 1.127-.033 1.485l-1.25.015v.417s3.642-.015 4.326 0c1.024 0 2.581-.044 3.435-.938.273-.266.445-.608.445-.95 0-.312-.139-.625-.359-.861-.499-.55-1.47-.699-1.794-.743-.139-.032-.275-.047-.395-.062.103-.015.224-.042.324-.059.328-.074 1.83-.418 1.83-1.531 0-.462-.274-1.039-1.197-1.353-.409-.133-.94-.207-1.777-.207-1.042.027-2.341.057-2.341.057-.667.018-1.299.018-2.46-.015v.402l1.196.029c.018.565.035 1.13.051 1.696v2.618h-.001zm2.188-1.382c.631 0 1.386 0 1.916.31.41.24.631.641.631 1.056 0 .608-.359.996-.701 1.189-.531.312-1.385.312-1.863.312.017-.964.017-2.867.017-2.867zM48.267 77.925l.94-2.275c.17.433.273.7.702 1.652l.255.623h-1.897zm3.317-1.752c-.769-1.74-.822-1.86-1.043-2.425h-1.299c-.257.696-.377 1.025-.905 2.316l-.685 1.593c-.667 1.529-.821 1.888-1.095 2.423l-1.026.015v.402a99.096 99.096 0 0 1 2.991 0v-.402l-1.125-.015.684-1.708h2.307l.698 1.708-1.108.015-.018.402c2.069-.015 2.309-.015 4.479 0l-.017-.402-.993-.015c-.204-.388-.271-.506-.649-1.312-.188-.396-.376-.8-.564-1.188l-.632-1.407zM61.31 78.131c.137.506.187.746.357 1.011.342.626 1.043 1.041 2.036 1.041 1.247 0 1.812-.608 1.812-1.173 0-.668-.651-.832-1.47-1.041l-.719-.179c-.82-.209-2.546-.653-2.546-2.096 0-1.205 1.282-2.05 2.803-2.05.854 0 1.504.268 1.847.417l.341-.299.342.103c-.067.67-.067.835-.067 1.026 0 .402.032.67.085.938l-.515.118c-.101-.433-.171-.653-.272-.859-.326-.644-1.01-.981-1.794-.981-.804 0-1.473.383-1.473.981 0 .594.619.771 1.676 1.041l.751.176c.737.209 2.31.639 2.31 2.097 0 1.275-1.282 2.289-3.061 2.289-1.043 0-1.83-.355-2.187-.522l-.326.402-.41-.147c.036-.343.067-.685.067-.996 0-.461-.032-.761-.084-1.202l.497-.095zM74.298 78.131c.139.506.189.746.36 1.011.342.626 1.043 1.041 2.033 1.041 1.25 0 1.815-.608 1.815-1.173 0-.668-.651-.832-1.47-1.041l-.719-.179c-.822-.209-2.546-.653-2.546-2.096 0-1.205 1.282-2.05 2.803-2.05.854 0 1.503.268 1.844.417l.343-.299.343.103c-.07.67-.07.835-.07 1.026 0 .402.034.67.084.938l-.511.118c-.101-.433-.172-.653-.275-.859-.324-.644-1.007-.981-1.794-.981-.801 0-1.47.383-1.47.981 0 .594.616.771 1.676 1.041l.751.176c.736.209 2.307.639 2.307 2.097 0 1.275-1.281 2.289-3.058 2.289-1.043 0-1.83-.355-2.189-.522l-.324.402-.41-.147c.036-.343.069-.685.069-.996 0-.461-.033-.761-.086-1.202l.494-.095zM91.614 77.479v2.587l1.301.029v.402a258.07 258.07 0 0 0-4.821 0v-.402l1.316-.029v-2.543l-1.505-2.049a10.725 10.725 0 0 0-.94-1.191l-1.008-.029v-.402c1.197.015 3.247.015 4.512 0v.402l-1.025.029 1.812 2.646s1.35-2.066 1.708-2.646l-1.043-.029v-.402a94.93 94.93 0 0 0 2.923 0v.402l-1.022.029-2.208 3.196zM107.479 78.131c.138.506.187.746.359 1.011.341.626 1.043 1.041 2.031 1.041 1.252 0 1.816-.608 1.816-1.173 0-.668-.652-.832-1.473-1.041l-.717-.179c-.819-.209-2.547-.653-2.547-2.096 0-1.205 1.281-2.05 2.803-2.05.854 0 1.502.268 1.846.417l.341-.299.347.103c-.069.67-.069.835-.069 1.026 0 .402.032.67.084.938l-.516.118c-.099-.433-.17-.653-.271-.859-.326-.644-1.011-.981-1.794-.981-.805 0-1.473.383-1.473.981 0 .594.616.771 1.677 1.041l.751.176c.736.209 2.307.639 2.307 2.097 0 1.275-1.278 2.289-3.058 2.289-1.043 0-1.831-.355-2.189-.522l-.324.402-.41-.148c.037-.343.066-.685.066-.996 0-.461-.029-.761-.083-1.202l.496-.094zM126.468 77.555c-.032.949-.068 1.603-.459 2.151-.647.85-1.982.997-2.905.997-.822 0-2.204-.147-2.908-.874-.545-.582-.545-1.22-.562-2.542l-.068-3.019-1.198-.016v-.417a254.5 254.5 0 0 0 4.786 0v.417l-1.35.016c-.018.549-.018.802-.018 1.278l.069 2.795c0 .427.017.952.357 1.32.086.105.444.506 1.437.506 1.794 0 1.968-1.114 2.018-1.517.137-.891.151-3.596.117-4.383l-1.262-.016v-.417c.803.015 2.374.015 3.211 0v.417l-1.23.016-.035 3.288zM136.278 80.081l1.231.015v.402a245.134 245.134 0 0 0-4.697 0v-.402l1.247-.015v-5.812h-1.247v-.418c1.57.015 3.21.032 4.697 0v.418h-1.231v5.812zM148.024 80.081l1.315.015v.402a267.652 267.652 0 0 0-4.908 0v-.402l1.335-.015v-5.738c-.462 0-.957 0-1.419.133-.972.255-1.075.894-1.148 1.295l-.066.477-.493-.015.066-.967c.017-.312.017-.506.017-.744 0-.076 0-.297-.017-.608l.36-.091c.29.015.82.029 1.571.044h3.401c.819 0 1.487 0 2.066-.029l.427-.015.361.091c-.032.43-.066.861-.052 2.288l-.461.031-.069-.462c-.103-.596-.152-.863-.441-1.099-.393-.314-1.046-.329-1.846-.329v5.738h.001zM161.199 78.402c-.17-1.07-.17-1.146-1.743-1.176l.035 2.764h.667c1.195-.013 1.846-.013 2.358-.268.599-.295.685-.756.806-1.468l.493.01-.104 1.03c-.049.653-.066.83-.103.979-.032.194-.133.224-.53.224a293.77 293.77 0 0 0-5.007-.029c-.358 0-1.229 0-2.069.029v-.402l1.25-.015v-5.798l-1.161-.014v-.403c4.047.018 5.482 0 7.159-.044 0 .312 0 .447.034.908l.068 1.012-.461.059c-.084-.342-.172-.729-.427-.982-.496-.49-1.401-.49-2.272-.49h-.702l-.035 2.469c.683-.015 1.061-.015 1.336-.18.373-.223.407-.608.443-.993h.479a20.498 20.498 0 0 0-.069 1.797c0 .237.018.608.032.981h-.477zM170.243 78.131c.135.506.189.746.36 1.011.339.626 1.041 1.041 2.032 1.041 1.247 0 1.812-.608 1.812-1.173 0-.668-.647-.832-1.47-1.041l-.717-.179c-.822-.209-2.548-.653-2.548-2.096 0-1.205 1.283-2.05 2.806-2.05.852 0 1.502.268 1.843.417l.341-.299.345.103c-.069.67-.069.835-.069 1.026 0 .402.034.67.084.938l-.511.118c-.104-.433-.172-.653-.275-.859-.324-.644-1.006-.981-1.792-.981-.805 0-1.472.383-1.472.981 0 .594.615.771 1.674 1.041l.756.176c.731.209 2.307.639 2.307 2.097 0 1.275-1.283 2.289-3.062 2.289-1.041 0-1.826-.355-2.185-.522l-.327.402-.409-.147c.034-.343.068-.685.068-.996 0-.461-.034-.761-.086-1.202l.495-.095z"/><path fill="#00a0b0" d="M66.367 58.644h41.495V0H66.367v58.644z"/><path fill="#fff" d="M68.581 56.433h37.067V2.213H68.581v54.22z"/><path fill="#00a0b0" d="M69.41 55.601h35.408V3.041H69.41v52.56z"/><path d="M84.782 32.336c-2.421 1.511-4.544 1.991-6.445 1.779h-.012v8.578c0 2.798-2.336 3.32-3.443 3.41v1.292h23.667v-9.804h-1.843c0 4.086-1.812 7.343-5.81 7.343H84.78v-12.6l.002.002z" fill="#fff"/><path d="M96.334 26.848c-2.856-.351-4.7-.168-9.053 3.627a36.807 36.807 0 0 1-2.007 1.603l.18.074c2.891 1.276 5.886.384 7.024-1.154l-.938-1.062c1.229-.612 1.846-.736 3.598-.89l-.647-1.415c1.6-.216 2.459-.152 3.904.03-.706-1.445-2.521-2.458-4.303-2.458 0 0 .305-1.015.305-1.106-1.656-.093-2.795-.153-4.515 1.043l.12-1.475c-2.396.706-3.779 1.66-5.224 5.101V12.724h5.38c2.733 0 5.81 1.646 5.81 5.964h1.843v-8.176h-22.93v1.29c1.107.093 3.443.616 3.443 3.413v15.907c-1.563-.231-2.703-.598-4.219-1.895l-.792 1.111c2.307 1.875 6.699 4.518 14.385-1.936 3.568-2.951 7.286-2.644 8.636-1.554z" fill="#fff"/><path d="M52.679 99.086a96.487 96.487 0 0 1 2.961 0v-2.665l-1.168-.015v-.408c2.352.013 2.384.013 4.368 0v.408l-1.151.015v5.925l1.168.014v.408a213.65 213.65 0 0 0-4.385 0v-.408l1.168-.014v-2.804c-1.458.016-2.88 0-2.961 0v2.804l1.169.014v.408a216.977 216.977 0 0 0-4.419 0v-.408l1.169-.014v-5.925l-1.169-.015v-.408c1.33.029 3.041.013 4.419 0v.408l-1.169.015v2.665zM64.238 99.406c0-1.787 1.664-3.635 4.16-3.635 2.352 0 4.29 1.561 4.29 3.62 0 2.167-2.1 3.604-4.242 3.604-2.24.001-4.208-1.545-4.208-3.589zm4.225-3.211c-.432 0-.993.121-1.393.757-.432.699-.497 1.938-.497 2.471 0 .725.096 1.755.53 2.408.4.604.91.741 1.375.741.337 0 .928-.062 1.36-.756.45-.697.498-1.941.498-2.469-.001-1.438-.29-3.152-1.873-3.152zM107.817 100.708c0 .212-.014 1.304-.014 1.546h.563c.95 0 1.851 0 2.366-.318.535-.322.599-.788.717-1.696l.501.029s-.136 1.485-.167 1.878c-.034.562-.084.621-.6.621-3.583-.015-5.1-.015-6.783 0v-.422l1.234-.015c.015-.545.032-1.093.032-1.623v-2.574c0-.516 0-1.213-.032-1.713l-1.234-.015.02-.408c2.266.013 2.496.013 4.648 0v.408l-1.252.015v4.287h.001zM96.621 100.718c-.174-1.092-.174-1.168-1.782-1.199l.035 2.821h.682c1.223-.015 1.886-.015 2.41-.272.609-.304.697-.772.82-1.504l.506.017-.104 1.049c-.052.667-.073.849-.108 1.001-.034.196-.137.226-.54.226-.628-.015-2.53-.029-5.114-.029-.366 0-1.257 0-2.113.029v-.407l1.273-.015v-5.922l-1.185-.015v-.41c4.135.015 5.603 0 7.313-.044 0 .318 0 .454.034.928L98.82 98l-.471.062c-.089-.349-.177-.741-.438-1.002-.506-.501-1.434-.501-2.322-.501h-.716l-.035 2.519c.697-.015 1.083-.015 1.365-.179.383-.229.417-.624.449-1.019h.491a21.404 21.404 0 0 0-.071 1.835c0 .246.02.624.034 1.004h-.485v-.001zM83.218 102.434l1.344.015v.407c-1.676-.015-3.35-.015-5.008 0v-.407l1.359-.015v-5.861c-.47 0-.978 0-1.448.138-.996.261-1.101.908-1.171 1.32l-.071.486-.504-.015.07-.986c.017-.319.017-.516.017-.762 0-.073 0-.304-.017-.623l.367-.088c.297.015.837.029 1.606.044h3.473c.839 0 1.521 0 2.113-.029l.436-.015.367.088c-.033.441-.069.884-.05 2.337l-.473.034-.071-.472c-.103-.608-.156-.881-.452-1.124-.402-.318-1.066-.334-1.887-.334v5.862zM117.39 100.382c.138.506.188.741.358 1.011.341.624 1.046 1.041 2.034 1.041 1.247 0 1.81-.613 1.81-1.173 0-.673-.648-.835-1.468-1.041l-.717-.182c-.82-.206-2.548-.652-2.548-2.096 0-1.203 1.281-2.05 2.803-2.05.854 0 1.505.268 1.846.415l.344-.297.341.103c-.065.671-.065.835-.065 1.029 0 .399.034.667.083.935l-.511.118c-.107-.43-.172-.653-.279-.861-.319-.639-1.007-.982-1.792-.982-.803 0-1.468.388-1.468.982s.613.772 1.674 1.04l.751.182c.736.206 2.308.633 2.308 2.091 0 1.281-1.281 2.293-3.059 2.293-1.04 0-1.828-.358-2.189-.521l-.323.4-.413-.147c.037-.341.074-.686.074-.999 0-.459-.037-.756-.089-1.203l.495-.088zM127.619 98.004c0-.931.702-1.638 1.603-1.638.892 0 1.593.707 1.593 1.638 0 .947-.701 1.644-1.593 1.644-.901 0-1.603-.696-1.603-1.644zm1.603 1.971c1.073 0 1.988-.832 1.988-1.971 0-1.132-.915-1.961-1.988-1.961-1.082 0-2 .829-2 1.961 0 1.139.918 1.971 2 1.971zm-.417-1.816h.397l.597.984h.388l-.648-.999c.334-.042.59-.216.59-.623 0-.447-.266-.648-.803-.648h-.864v2.271h.344v-.985h-.001zm0-.29v-.704h.469c.24 0 .496.052.496.337 0 .348-.261.367-.553.367h-.412z"/></svg>