<svg xmlns="http://www.w3.org/2000/svg" width="2500" height="2500" viewBox="0 0 192.756 192.756"><path fill-rule="evenodd" clip-rule="evenodd" fill="#fff" d="M0 0h192.756v192.756H0V0z"/><path d="M28.95 110.148c0 .781-.056.895-.279.895-.167 0-.335-.057-.502-.057a.383.383 0 0 0-.392.391c0 .225.279.393.503.393.447 0 .727-.113 1.173-.113.447 0 .727.113 1.118.113.223 0 .447-.168.447-.393 0-.223-.112-.391-.335-.391-.168 0-.335.057-.503.057-.224 0-.391-.113-.391-.895v-1.453c0-1.562.559-2.066 1.397-2.066.446 0 .949.279.949.783 0 .111 0 .166-.056.223h-.112a.44.44 0 0 0-.447.447c0 .334.279.502.559.502.67 0 .894-.559.894-1.117 0-.949-.838-1.508-1.731-1.508-.67 0-1.173.279-1.508.838h-.056c.056-.447 0-.67-.279-.67-.223 0-.335.111-.614.111s-.447-.111-.614-.111c-.28 0-.503.111-.503.391 0 .223.111.336.335.336.279 0 .447-.057.67-.057s.279.168.279.895v2.456h-.002zM38.056 109.031c.559 0 .559 0 .559-.559 0-1.453-1.006-2.514-2.458-2.514-.782 0-1.509.336-2.011.949-.447.615-.67 1.396-.67 2.123 0 1.621.894 2.904 2.625 2.904.615 0 1.285-.223 1.732-.67.335-.279.67-.781.67-1.229 0-.279-.224-.391-.447-.391-.279 0-.335.223-.392.445-.223.727-.782 1.062-1.508 1.062-1.229 0-1.788-1.006-1.732-2.123h3.632v.003zm-3.575-.781c.111-.895.726-1.564 1.676-1.564 1.005 0 1.508.67 1.564 1.564h-3.24zM43.922 108.025c0-.613-.112-1.229-.615-1.619-.391-.336-1.005-.447-1.508-.447-.447 0-1.005.111-1.396.391s-.67.67-.67 1.117c0 .391.279.727.67.727.279 0 .559-.223.559-.502 0-.393-.279-.393-.279-.447 0-.168.167-.279.279-.336.223-.111.559-.223.838-.223.615 0 1.229.279 1.229 1.006 0 .781-.838.781-1.508.838-.559.055-1.005.111-1.452.391-.503.279-.727.781-.727 1.396 0 .502.279 1.006.727 1.285.335.223.838.334 1.285.334.67 0 1.341-.223 1.732-.838.112.504.614.783 1.117.783.392 0 .727-.111.95-.391.224-.336.224-.672.224-1.51 0-.279-.056-.447-.392-.447-.391 0-.335.336-.335.672 0 .279.112 1.006-.391 1.006-.502 0-.391-.84-.391-1.174l.054-2.012zm-3.687 2.235c0-.727.67-.893 1.229-.949.558-.057 1.173-.057 1.564-.447 0 .225-.056.447-.056.67 0 .393 0 .727-.279 1.062-.279.447-.838.559-1.341.559-.559-.001-1.117-.225-1.117-.895zM46.938 110.148c0 .615 0 .895-.279.895-.168 0-.335-.057-.503-.057a.382.382 0 0 0-.391.391c0 .225.279.393.503.393.335 0 .614-.113 1.117-.113.559 0 .782.113 1.117.113.224 0 .503-.168.503-.393a.382.382 0 0 0-.391-.391c-.167 0-.335.057-.502.057-.168 0-.335-.113-.335-.895v-5.475c0-.391 0-.559-.279-.559-.223 0-.279.111-.559.111-.224 0-.391-.111-.782-.111-.223 0-.447.168-.447.391 0 .225.112.391.335.391.279 0 .447-.111.615-.111.167 0 .279.057.279.949v4.414h-.001zM54.48 109.646c0 .893.056 1.172.224 1.508.279.447.782.615 1.285.615 1.508 0 1.732-1.062 1.732-2.348 0-.223-.112-.502-.391-.502-.335 0-.447.168-.447.67v.391c0 .504-.112 1.062-.782 1.062-.559 0-.782-.336-.782-1.285v-2.625c0-.225.056-.225.279-.225h.95c.503 0 .615-.223.615-.391 0-.279-.112-.391-.559-.391h-1.062c-.168 0-.224-.057-.224-.225v-1.061c0-.279-.056-.559-.391-.559-.392 0-.447.279-.447.559v.893c0 .336 0 .393-.224.393h-.335c-.279 0-.447.168-.447.391 0 .279.223.391.615.391.335 0 .391.057.391.391v2.348zM62.804 109.031c.558 0 .558 0 .558-.559 0-1.453-1.005-2.514-2.458-2.514-.782 0-1.508.336-2.011.949-.446.615-.67 1.396-.67 2.123 0 1.621.894 2.904 2.625 2.904.615 0 1.285-.223 1.731-.67.335-.279.67-.781.67-1.229 0-.279-.223-.391-.446-.391-.28 0-.335.223-.392.445-.223.727-.782 1.062-1.508 1.062-1.229 0-1.788-1.006-1.788-2.123h3.689v.003zm-3.575-.781c.112-.895.726-1.564 1.676-1.564s1.508.67 1.564 1.564h-3.24zM68.669 108.025c0-.613-.112-1.229-.614-1.619-.392-.336-1.006-.447-1.508-.447-.447 0-1.006.111-1.397.391-.391.279-.67.67-.67 1.117 0 .391.279.727.67.727.279 0 .559-.223.559-.502 0-.393-.279-.393-.279-.447 0-.168.168-.279.279-.336.224-.111.559-.223.838-.223.614 0 1.229.279 1.229 1.006 0 .781-.894.781-1.509.838-.559.055-1.005.111-1.452.391-.503.279-.727.781-.727 1.396 0 .502.28 1.006.727 1.285.335.223.838.334 1.285.334.67 0 1.341-.223 1.732-.838.111.504.614.783 1.117.783.335 0 .727-.111.95-.391.223-.336.223-.672.223-1.51 0-.279-.056-.447-.391-.447-.391 0-.335.336-.335.672 0 .279.112 1.006-.391 1.006-.502 0-.391-.84-.391-1.174l.055-2.012zm-3.687 2.235c0-.727.67-.893 1.229-.949s1.117-.057 1.564-.447c-.056.225-.056.447-.056.67 0 .393 0 .727-.279 1.062-.279.447-.838.559-1.341.559-.558-.001-1.117-.225-1.117-.895zM73.195 111.154c-1.285 0-1.676-1.174-1.676-2.234 0-1.062.502-2.234 1.732-2.234.502 0 1.173.279 1.173.838-.279.055-.559.223-.559.502 0 .391.335.615.67.615.559 0 .782-.504.782-1.006s-.279-1.006-.726-1.285c-.335-.279-.838-.391-1.285-.391-1.844 0-2.682 1.396-2.682 3.072 0 1.508.894 2.904 2.514 2.904.67 0 1.285-.223 1.732-.725.279-.336.614-.895.614-1.342a.482.482 0 0 0-.447-.447c-.335 0-.391.393-.503.67-.166.673-.669 1.063-1.339 1.063zM81.407 108.025c0-.559-.056-1.117-.559-1.508-.392-.391-1.006-.559-1.509-.559-.726 0-1.173.223-1.676.727v-2.012c0-.391-.056-.559-.279-.559s-.335.111-.615.111c-.223 0-.391-.111-.726-.111-.167 0-.391.168-.391.391 0 .225.167.391.335.391.167 0 .335-.111.503-.111.167 0 .335.057.335.949v4.414c0 .67-.056.895-.335.895-.168 0-.335-.057-.503-.057-.168 0-.335.168-.335.391 0 .225.224.393.447.393.391 0 .67-.113 1.173-.113s.726.113 1.118.113c.279 0 .446-.168.446-.393 0-.223-.167-.391-.335-.391-.167 0-.335.057-.503.057-.279 0-.335-.168-.335-.895v-1.453c0-.502 0-1.004.279-1.396.279-.445.838-.613 1.341-.613.559 0 1.062.279 1.229.838.112.447.056 1.117.056 1.564v1.061c0 .67 0 .895-.28.895-.167 0-.335-.057-.502-.057a.382.382 0 0 0-.391.391c0 .225.279.393.502.393.335 0 .615-.113 1.117-.113.503 0 .782.113 1.118.113.279 0 .502-.168.502-.393a.382.382 0 0 0-.391-.391c-.168 0-.335.057-.503.057-.224 0-.335-.168-.335-.895v-2.124h.002zM87.607 109.031c.503 0 .503 0 .503-.559 0-1.453-1.006-2.514-2.458-2.514-.782 0-1.508.336-2.011.949-.447.615-.615 1.396-.615 2.123 0 1.621.838 2.904 2.57 2.904a2.74 2.74 0 0 0 1.788-.67c.279-.279.614-.781.614-1.229 0-.279-.168-.391-.447-.391s-.335.223-.391.445c-.224.727-.782 1.062-1.509 1.062-1.173 0-1.787-1.006-1.731-2.123h3.687v.003zm-3.575-.781c.056-.895.727-1.564 1.62-1.564 1.006 0 1.509.67 1.564 1.564h-3.184zM90.009 110.148c0 .781-.056.895-.335.895-.167 0-.335-.057-.503-.057s-.335.168-.335.391c0 .225.224.393.502.393.447 0 .67-.113 1.118-.113.447 0 .782.113 1.117.113.224 0 .503-.168.503-.393a.382.382 0 0 0-.391-.391c-.168 0-.335.057-.503.057s-.335-.113-.335-.895v-1.453c0-1.562.558-2.066 1.34-2.066.447 0 1.006.279 1.006.783 0 .111-.056.166-.112.223h-.112a.44.44 0 0 0-.447.447c0 .334.279.502.559.502.67 0 .95-.559.95-1.117 0-.949-.838-1.508-1.732-1.508-.67 0-1.229.279-1.564.838 0-.447-.056-.67-.335-.67-.168 0-.336.111-.615.111-.224 0-.391-.111-.615-.111-.279 0-.502.111-.502.391 0 .223.167.336.391.336.279 0 .447-.057.614-.057.224 0 .335.168.335.895v2.456h.001zM97.049 109.311c.559.057 1.172.223 1.172.895 0 .279-.111.559-.334.725-.279.168-.615.225-.894.225-.447 0-1.118-.111-1.453-.447-.223-.223-.223-.336-.279-.949 0-.279-.167-.391-.335-.391-.279 0-.391.166-.391.391 0 .279.112.613.112.895 0 .277-.112.559-.112.893 0 .279.112.447.391.447s.447-.168.392-.615c.446.393 1.005.559 1.563.559 1.118 0 2.292-.559 2.292-1.787 0-1.172-.783-1.453-2.292-1.676-.894-.111-1.284-.279-1.284-.838 0-.615.67-.949 1.229-.949.335 0 .726.223 1.005.391.225.168.279.223.279.67 0 .336.111.504.336.504a.383.383 0 0 0 .391-.393c0-.279-.057-.559-.057-.838 0-.223.057-.502.057-.781 0-.223-.168-.336-.391-.336-.279 0-.391.168-.336.447-.334-.334-.838-.391-1.285-.391-1.062 0-2.123.615-2.123 1.732 0 1.337 1.341 1.505 2.347 1.617zM101.238 111.881c.111 0 .279 0 .279.168 0 .559-.727 1.283-.727 1.508 0 .055.111.168.225.168.279 0 .559-.504.67-.672.279-.391.502-1.004.502-1.451 0-.559-.334-1.117-.893-1.117-.447 0-.783.279-.783.727.001.501.28.669.727.669zM108.668 110.148c0 .781-.055.895-.336.895-.166 0-.334-.057-.445-.057a.383.383 0 0 0-.393.391c0 .225.225.393.504.393.447 0 .67-.113 1.117-.113s.781.113 1.117.113c.223 0 .502-.168.502-.393a.381.381 0 0 0-.391-.391c-.168 0-.336.057-.502.057-.168 0-.336-.113-.336-.895v-1.453c0-1.562.559-2.066 1.342-2.066.445 0 1.004.279 1.004.783 0 .111-.055.166-.055.223h-.168a.48.48 0 0 0-.447.447c0 .334.279.502.615.502.615 0 .893-.559.893-1.117 0-.949-.838-1.508-1.73-1.508-.67 0-1.229.279-1.564.838 0-.447-.057-.67-.336-.67-.166 0-.334.111-.613.111-.225 0-.391-.111-.615-.111-.279 0-.502.111-.502.391 0 .223.166.336.391.336.279 0 .447-.057.613-.057.225 0 .336.168.336.895v2.456h-.001zM117.773 109.031c.504 0 .504 0 .504-.559 0-1.453-1.006-2.514-2.459-2.514-.781 0-1.508.336-2.01.949-.447.615-.615 1.396-.615 2.123 0 1.621.895 2.904 2.57 2.904.613 0 1.34-.223 1.787-.67.279-.279.613-.781.613-1.229 0-.279-.166-.391-.445-.391s-.336.223-.393.445c-.223.727-.781 1.062-1.508 1.062-1.172 0-1.787-1.006-1.73-2.123h3.686v.003zm-3.574-.781c.055-.895.727-1.564 1.676-1.564s1.451.67 1.508 1.564h-3.184zM123.584 108.025c0-.613-.057-1.229-.615-1.619-.391-.336-.949-.447-1.451-.447-.504 0-1.062.111-1.453.391s-.67.67-.67 1.117c0 .391.279.727.67.727.336 0 .615-.223.615-.502 0-.393-.279-.393-.279-.447 0-.168.166-.279.223-.336.279-.111.559-.223.838-.223.67 0 1.229.279 1.229 1.006 0 .781-.838.781-1.508.838-.502.055-.949.111-1.453.391-.502.279-.725.781-.725 1.396 0 .502.279 1.006.725 1.285.393.223.838.334 1.285.334.727 0 1.396-.223 1.789-.838.111.504.559.783 1.117.783.334 0 .725-.111.949-.391.223-.336.223-.672.223-1.51 0-.279-.111-.447-.391-.447-.391 0-.336.336-.336.672 0 .279.057 1.006-.391 1.006-.559 0-.447-.84-.447-1.174l.056-2.012zm-3.688 2.235c0-.727.727-.893 1.285-.949.502-.057 1.117-.057 1.508-.447v.67c0 .393-.055.727-.279 1.062-.334.447-.838.559-1.396.559s-1.118-.225-1.118-.895zM126.656 110.148c0 .615-.057.895-.334.895-.168 0-.336-.057-.504-.057-.223 0-.336.168-.336.391 0 .225.225.393.447.393.393 0 .67-.113 1.174-.113.502 0 .727.113 1.117.113.223 0 .447-.168.447-.393a.382.382 0 0 0-.391-.391c-.113 0-.279.057-.447.057-.225 0-.336-.113-.336-.895v-5.475c0-.391-.057-.559-.334-.559-.168 0-.281.111-.561.111-.223 0-.391-.111-.725-.111-.279 0-.504.168-.504.391 0 .225.168.391.391.391.225 0 .393-.111.561-.111.166 0 .334.057.334.949v4.414h.001zM136.266 109.311c.502.057 1.172.223 1.172.895 0 .279-.168.559-.391.725-.223.168-.559.225-.895.225-.445 0-1.117-.111-1.451-.447-.225-.223-.225-.336-.279-.949 0-.279-.168-.391-.336-.391a.381.381 0 0 0-.391.391c0 .279.111.613.111.895 0 .277-.111.559-.111.893 0 .279.111.447.447.447.223 0 .391-.168.334-.615.447.393 1.006.559 1.621.559 1.061 0 2.234-.559 2.234-1.787 0-1.172-.781-1.453-2.234-1.676-.949-.111-1.342-.279-1.342-.838 0-.615.672-.949 1.23-.949.334 0 .727.223 1.004.391.225.168.279.223.279.67 0 .336.113.504.336.504a.382.382 0 0 0 .391-.393c0-.279-.055-.559-.055-.838 0-.223.055-.502.055-.781 0-.223-.166-.336-.391-.336-.279 0-.336.168-.336.447-.334-.334-.838-.391-1.283-.391-1.062 0-2.123.615-2.123 1.732.001 1.337 1.341 1.505 2.404 1.617zM143.975 107.133c.334-.279.391-.336.613-.336.168 0 .336.057.447.057.168 0 .336-.113.336-.336 0-.279-.168-.391-.391-.391-.393 0-.727.111-1.117.111-.504 0-.838-.111-1.285-.111-.391 0-.559.168-.559.391 0 .168.111.336.334.336.225 0 .393-.057.559-.057.113 0 .168 0 .168.057 0 .111-.055.166-.168.279l-1.842 1.73v-4.189c0-.391-.057-.559-.336-.559-.168 0-.279.111-.559.111-.225 0-.391-.111-.727-.111-.168 0-.391.168-.391.391 0 .225.111.391.334.391.168 0 .336-.111.504-.111s.334.057.334.949v4.414c0 .67-.055.895-.334.895-.168 0-.336-.057-.504-.057-.223 0-.334.168-.334.391 0 .225.223.393.447.393.391 0 .67-.113 1.172-.113.447 0 .67.113 1.062.113a.441.441 0 0 0 .447-.447c0-.225-.168-.336-.393-.336-.168 0-.279.057-.447.057-.166 0-.277-.336-.277-1.285l1.004-.895 1.396 1.844c.057.111.168.168.168.279 0 .057-.055.057-.111.057-.111 0-.279-.057-.447-.057a.382.382 0 0 0-.391.391c0 .225.223.393.447.393.391 0 .559-.113 1.117-.113s.727.113 1.117.113c.223 0 .447-.168.447-.393 0-.223-.168-.391-.336-.391-.111 0-.279.057-.391.057-.168 0-.391-.168-.895-.783l-1.508-1.955 1.29-1.174zM147.215 110.148c0 .67-.057.895-.336.895-.168 0-.336-.057-.502-.057-.225 0-.336.168-.336.391 0 .168.168.393.336.393.391 0 .727-.113 1.172-.113.447 0 .727.113 1.117.113.225 0 .447-.168.447-.393 0-.223-.111-.391-.334-.391-.168 0-.336.057-.447.057-.225 0-.279-.168-.279-.447v-4.021c0-.225-.057-.447-.336-.447-.168 0-.334.111-.613.111-.225 0-.393-.111-.727-.111-.168 0-.336.111-.336.391 0 .223.111.336.336.336.166 0 .334-.057.502-.057.225 0 .336.168.336.895v2.455zm.223-5.865c-.334 0-.615.279-.615.67 0 .336.281.615.615.615a.62.62 0 0 0 .615-.615c0-.391-.28-.67-.615-.67zM150.734 110.148c0 .615-.057.895-.279.895-.225 0-.393-.057-.504-.057a.382.382 0 0 0-.391.391c0 .225.223.393.447.393.391 0 .67-.113 1.172-.113.561 0 .727.113 1.119.113.223 0 .445-.168.445-.393 0-.223-.111-.391-.334-.391-.168 0-.336.057-.504.057-.166 0-.334-.113-.334-.895v-5.475c0-.391 0-.559-.279-.559-.225 0-.336.111-.615.111-.223 0-.391-.111-.727-.111-.223 0-.502.168-.502.391 0 .225.168.391.391.391s.391-.111.615-.111c.111 0 .279.057.279.949v4.414h.001zM154.197 110.148c0 .615-.057.895-.279.895s-.336-.057-.502-.057a.383.383 0 0 0-.393.391c0 .225.279.393.504.393.334 0 .613-.113 1.117-.113.559 0 .781.113 1.117.113.223 0 .502-.168.502-.393a.381.381 0 0 0-.391-.391c-.168 0-.336.057-.502.057-.168 0-.336-.113-.336-.895v-5.475c0-.391 0-.559-.279-.559-.223 0-.279.111-.615.111-.166 0-.391-.111-.725-.111-.225 0-.504.168-.504.391 0 .225.168.391.391.391.279 0 .393-.111.615-.111.168 0 .279.057.279.949v4.414h.001zM159.281 109.311c.559.057 1.174.223 1.174.895 0 .279-.168.559-.393.725-.223.168-.559.225-.893.225-.447 0-1.062-.111-1.453-.447-.223-.223-.223-.336-.279-.949 0-.279-.111-.391-.336-.391a.381.381 0 0 0-.391.391c0 .279.111.613.111.895 0 .277-.111.559-.111.893 0 .279.168.447.447.447.223 0 .391-.168.336-.615.445.393 1.004.559 1.619.559 1.061 0 2.234-.559 2.234-1.787 0-1.172-.781-1.453-2.234-1.676-.949-.111-1.285-.279-1.285-.838 0-.615.615-.949 1.174-.949.391 0 .781.223 1.061.391.168.168.225.223.225.67 0 .336.111.504.334.504.279 0 .393-.168.393-.393 0-.279-.057-.559-.057-.838 0-.223.057-.502.057-.781 0-.223-.113-.336-.336-.336-.336 0-.391.168-.391.447-.336-.334-.838-.391-1.285-.391-1.062 0-2.123.615-2.123 1.732 0 1.337 1.34 1.505 2.402 1.617zM163.414 110.371c-.391 0-.725.336-.725.672a.74.74 0 0 0 .725.727.74.74 0 0 0 .727-.727c0-.336-.334-.672-.727-.672zM10.962 88.976c0 1.062 0 1.509-.447 1.509-.279 0-.559-.112-.838-.112-.447 0-.95.391-.95 1.229 0 .782.447 1.397 1.843 1.397.95 0 1.844-.168 2.85-.168 2.905 0 5.251.168 7.15.168.614 0 1.117-.335 1.117-.95 0-.503-.167-.95-.167-1.453 0-.726.167-1.508.167-2.234 0-.838-.447-1.564-1.396-1.564-1.006 0-1.509.67-1.509 1.564 0 .391.112.782.112 1.229 0 .782-.782.95-1.843.95h-.894c-1.508 0-1.732-.112-1.732-1.396v-.95c0-.67 0-.838.559-.838.615 0 .782.112.782.447v.559c0 .559.391.949.95.949.726 0 1.005-.391 1.005-1.062 0-.782-.167-1.62-.167-2.402 0-.559.167-1.173.167-1.732 0-.67-.391-1.005-1.061-1.005-.503 0-.894.279-.894.838 0 .167.056.335.056.502 0 .391-.167.614-.838.614-.447 0-.559-.112-.559-.559v-.95c0-1.005.168-1.061 1.341-1.061h1.453c1.229 0 1.453.056 1.453.558 0 .447-.167.838-.167 1.341 0 .894.502 1.453 1.453 1.453.726 0 1.452-.502 1.452-1.285 0-.559-.168-1.117-.168-1.676 0-.559.168-1.229.168-1.899 0-.615-.335-.95-1.396-.95-2.458 0-5.028.224-7.151.224-1.229 0-1.899-.224-2.849-.224-.838 0-1.285.615-1.285 1.453 0 .559.279 1.229.894 1.229.335 0 .614-.111.949-.111.335 0 .391.391.391 1.508v4.86h-.001zM30.012 89.479c0 1.062 0 1.341-.224 1.341a.422.422 0 0 1-.223-.112c-.056 0-.112-.056-.224-.056-.279 0-.559.224-.559 1.062 0 1.006.335 1.285.726 1.285.67 0 1.062-.168 1.788-.168.782 0 1.509.168 2.291.168s1.117-.559 1.117-1.285c0-.559-.223-1.062-.838-1.062-.112 0-.223.056-.335.056a.425.425 0 0 1-.279.112c-.224 0-.335-.224-.335-1.341v-3.128c0-2.179-1.508-3.352-3.128-3.352-1.341 0-2.458.727-3.24 1.732h-.056v-.447c0-.782 0-1.006-.502-1.006-.503 0-.838.224-1.341.224-.615 0-1.118-.224-1.509-.224-.447 0-.726.615-.726 1.285 0 .559.167 1.062.782 1.062.279 0 .447-.112.615-.112.279 0 .335.223.335 1.285v2.682c0 1.117-.056 1.341-.335 1.341-.056 0-.168-.056-.28-.112-.112 0-.167-.056-.335-.056-.615 0-.782.503-.782 1.062 0 .727.279 1.285.782 1.285.615 0 1.341-.168 2.011-.168.782 0 1.508.168 2.402.168.503 0 .726-.559.726-1.285 0-.782-.279-1.062-.559-1.062-.111 0-.167.056-.279.056-.056.056-.111.112-.167.112-.167 0-.223-.224-.223-1.341v-1.788c0-1.676 1.117-2.067 1.731-2.067.727.056 1.173.503 1.173 1.564v2.29z" fill-rule="evenodd" clip-rule="evenodd" fill="#255398"/><path fill="none" stroke="#255398" stroke-width=".931" stroke-miterlimit="2.613" d="M8.504 94.674h25.865"/><path d="M39.285 90.485c-1.229 0-1.676-.336-1.676-.895 0-.223.112-.335.28-.502.726.335 1.34.502 2.123.502.95 0 2.067-.167 2.849-.782.726-.559 1.285-1.453 1.285-2.402 0-1.229-.614-2.346-1.787-2.681-.056-.279 0-.727.391-.727.168 0 .224.168.335.279.223.335.447.503.838.503.615 0 1.117-.447 1.117-1.062 0-1.117-1.117-1.676-2.066-1.676-1.285 0-2.514.727-2.402 2.067h-.727c-1.843 0-4.021 1.005-4.021 3.128 0 .67.223 1.173.67 1.676-.949.392-1.508.894-1.508 2.011 0 .95.559 1.564 1.508 1.676v.056c-1.062.279-1.955.894-1.955 2.123 0 1.173.894 2.066 1.899 2.514.894.447 2.179.613 3.128.613 1.173 0 2.625-.223 3.631-.726 1.173-.559 2.011-1.564 2.011-2.849 0-1.285-.726-2.849-3.687-2.849h-2.236v.003zm.671-5.363c.726 0 1.285.503 1.285 1.229 0 .67-.559 1.229-1.285 1.229-.67 0-1.229-.503-1.229-1.229s.558-1.229 1.229-1.229zm-2.403 8.379c0-.447.503-.727.894-.838.726 0 1.453.056 2.178.056 1.118 0 1.509.279 1.509.726 0 .67-.503 1.061-2.179 1.061-1.955 0-2.402-.446-2.402-1.005zM50.123 81.043c0-.726-.167-1.006-.614-1.006-.503 0-1.062.224-1.62.224-.503 0-1.006-.224-1.509-.224-.782 0-1.061.615-1.061 1.341 0 .559.167 1.062.782 1.062.279 0 .447-.167.614-.167.335 0 .335.391.335 1.285v5.922c0 .949-.056 1.341-.335 1.341-.056 0-.167-.056-.279-.112-.112 0-.167-.056-.335-.056-.615 0-.782.503-.782 1.062 0 .727.279 1.285 1.061 1.285.671 0 1.397-.168 2.123-.168.727 0 1.508.168 2.291.168.782 0 1.118-.559 1.118-1.285 0-.559-.224-1.062-.838-1.062-.112 0-.224.056-.335.056-.111.056-.167.112-.279.112-.167 0-.335-.168-.335-1.341v-8.437h-.002zM53.754 89.479c0 .949-.056 1.341-.335 1.341-.056 0-.167-.056-.279-.112-.112 0-.167-.056-.335-.056-.615 0-.782.503-.782 1.062 0 .727.279 1.285 1.062 1.285.67 0 1.396-.168 2.123-.168.727 0 1.508.168 2.291.168s1.117-.559 1.117-1.285c0-.559-.223-1.062-.838-1.062-.111 0-.224.056-.335.056-.112.056-.168.112-.279.112-.167 0-.335-.168-.335-1.341v-5.251c0-.67-.112-.95-.558-.95-.503 0-1.062.224-1.621.224-.502 0-1.005-.224-1.508-.224-.838 0-1.117.615-1.117 1.285 0 .559.167 1.062.782 1.062.279 0 .447-.112.614-.112.279 0 .335.335.335 1.285v2.681h-.002zm1.452-10.447a1.765 1.765 0 0 0-1.788 1.788c0 .95.782 1.732 1.788 1.732a1.74 1.74 0 0 0 1.732-1.732c0-1.006-.782-1.788-1.732-1.788zM59.62 86.239c0 2.402 1.788 2.737 3.687 3.072 1.229.168 1.676.391 1.676.95 0 .335-.335.838-1.285.838-.503 0-.95-.112-1.396-.335-.335-.167-.559-.502-.782-.838-.335-.503-.615-.726-1.341-.726-.503 0-1.117.223-1.117.838 0 .391.112.726.112 1.117s-.112.726-.112 1.117c0 .67.502.838 1.117.838.559 0 .95-.335.894-.949.838.726 1.956 1.117 3.073 1.117 1.955 0 3.911-1.229 3.911-3.352 0-2.291-1.676-2.681-3.52-3.017l-.838-.167c-.95-.168-1.173-.391-1.173-.838 0-.447.335-.727 1.062-.727 1.788 0 1.285 1.564 2.849 1.564.782 0 1.117-.391 1.117-.782s-.167-.614-.167-1.062c0-.447.167-.782.167-1.117 0-.614-.503-.67-.95-.67-.615 0-1.005.111-1.062.782-.615-.615-1.62-.894-2.458-.894-1.956.001-3.464 1.23-3.464 3.241zM70.569 89.479c0 1.006-.112 1.341-.391 1.341-.057 0-.168-.056-.28-.112-.112 0-.223-.056-.335-.056-.615 0-.782.503-.782 1.062 0 .727.279 1.285.782 1.285.67 0 1.341-.168 2.067-.168.782 0 1.508.168 2.291.168.502 0 .726-.559.726-1.285 0-.559-.112-1.062-.559-1.062-.056 0-.112.056-.167.056-.056.056-.112.112-.224.112-.167 0-.223-.168-.223-1.341V87.58c0-1.117.614-2.011 1.676-2.011s1.229.67 1.229 1.843v2.067c0 .949.056 1.341-.167 1.341a.425.425 0 0 1-.224-.112c-.056 0-.112-.056-.224-.056-.391 0-.503.503-.503 1.062 0 .727.168 1.285.67 1.285.615 0 1.285-.168 1.9-.168.726 0 1.396.168 2.179.168.782 0 1.061-.559 1.061-1.285 0-.559-.167-1.062-.782-1.062-.112 0-.223.056-.335.056-.112.056-.167.112-.28.112-.223 0-.335-.168-.335-1.341v-3.575c0-1.676-1.005-2.905-2.96-2.905-1.341 0-1.956.391-2.905 1.229v-3.295c0-.727-.168-.895-.503-.895-.559 0-1.062.224-1.62.224-.503 0-1.006-.224-1.508-.224-.782 0-1.062.615-1.062 1.285 0 .559.167 1.062.782 1.062.279 0 .447-.112.615-.112.335 0 .391.335.391 1.285v5.921zM87.775 79.814c-1.731 0-3.575.615-4.637 2.067-.95 1.229-1.285 3.072-1.285 4.581 0 1.676.392 3.687 1.453 4.916 1.173 1.396 2.905 1.899 4.637 1.899 1.787 0 3.631-.671 4.692-2.123.949-1.229 1.341-3.072 1.341-4.637 0-1.676-.503-3.575-1.564-4.86-1.173-1.396-2.85-1.843-4.637-1.843zm.112 10.782c-1.676 0-2.458-1.173-2.458-4.078 0-3.352 1.173-4.022 2.514-4.022 1.62 0 2.458 1.117 2.458 4.134 0 2.737-.782 3.966-2.514 3.966zM102.467 89.479c0 1.062-.055 1.341-.279 1.341-.055 0-.111-.056-.168-.112-.055 0-.166-.056-.223-.056-.279 0-.615.224-.615 1.062 0 1.006.336 1.285.783 1.285.67 0 1.061-.168 1.787-.168s1.508.168 2.291.168c.781 0 1.117-.559 1.117-1.285 0-.559-.225-1.062-.838-1.062-.111 0-.225.056-.336.056-.111.056-.168.112-.279.112-.223 0-.334-.224-.334-1.341v-3.128c0-2.179-1.51-3.352-3.186-3.352-1.34 0-2.402.727-3.24 1.732v-.447c0-.782 0-1.006-.559-1.006-.447 0-.781.224-1.285.224-.669 0-1.117-.224-1.563-.224-.391 0-.726.615-.726 1.285 0 .559.223 1.062.838 1.062.223 0 .447-.112.614-.112.224 0 .335.223.335 1.285v2.682c0 1.117-.056 1.341-.335 1.341-.111 0-.167-.056-.279-.112-.112 0-.224-.056-.335-.056-.615 0-.838.503-.838 1.062 0 .727.335 1.285.782 1.285.67 0 1.341-.168 2.066-.168.783 0 1.51.168 2.348.168.559 0 .781-.559.781-1.285 0-.782-.279-1.062-.559-1.062-.111 0-.223.056-.279.056-.055.056-.111.112-.223.112-.113 0-.225-.224-.225-1.341v-1.788c0-1.676 1.174-2.067 1.789-2.067.725.056 1.172.503 1.172 1.564v2.29h.001zM112.355 81.043c0-.726-.168-1.006-.615-1.006-.559 0-1.117.224-1.676.224-.502 0-1.006-.224-1.451-.224-.783 0-1.119.615-1.119 1.341 0 .559.225 1.062.838 1.062.225 0 .393-.167.615-.167.279 0 .336.391.336 1.285v5.922c0 .949-.113 1.341-.336 1.341a.427.427 0 0 1-.279-.112c-.111 0-.223-.056-.336-.056-.613 0-.838.503-.838 1.062 0 .727.336 1.285 1.119 1.285.67 0 1.34-.168 2.066-.168.781 0 1.508.168 2.289.168.783 0 1.119-.559 1.119-1.285 0-.559-.225-1.062-.838-1.062-.113 0-.225.056-.336.056-.057.056-.168.112-.279.112s-.279-.168-.279-1.341v-8.437zM115.986 89.479c0 .949-.111 1.341-.336 1.341a.427.427 0 0 1-.279-.112c-.111 0-.223-.056-.334-.056-.615 0-.838.503-.838 1.062 0 .727.334 1.285 1.117 1.285.67 0 1.34-.168 2.066-.168.781 0 1.508.168 2.291.168.781 0 1.117-.559 1.117-1.285 0-.559-.225-1.062-.838-1.062-.111 0-.225.056-.336.056-.057.056-.168.112-.279.112s-.279-.168-.279-1.341v-5.251c0-.67-.168-.95-.559-.95-.559 0-1.117.224-1.676.224-.502 0-1.006-.224-1.508-.224-.783 0-1.117.615-1.117 1.285 0 .559.223 1.062.838 1.062.223 0 .391-.112.613-.112.279 0 .336.335.336 1.285v2.681h.001zm1.397-10.447c-.949 0-1.732.782-1.732 1.788 0 .95.783 1.732 1.732 1.732s1.732-.782 1.732-1.732c0-1.006-.783-1.788-1.732-1.788zM128.5 89.479c0 1.062 0 1.341-.223 1.341-.057 0-.113-.056-.225-.112-.055 0-.111-.056-.223-.056-.225 0-.559.224-.559 1.062 0 1.006.334 1.285.727 1.285.67 0 1.117-.168 1.787-.168.781 0 1.508.168 2.346.168.781 0 1.062-.559 1.062-1.285 0-.559-.168-1.062-.783-1.062-.111 0-.223.056-.336.056-.111.056-.223.112-.279.112-.223 0-.334-.224-.334-1.341v-3.128c0-2.179-1.564-3.352-3.184-3.352-1.342 0-2.459.727-3.24 1.732h-.057v-.447c0-.782 0-1.006-.502-1.006-.447 0-.783.224-1.342.224-.615 0-1.061-.224-1.508-.224-.391 0-.727.615-.727 1.285 0 .559.223 1.062.838 1.062.225 0 .391-.112.615-.112.223 0 .334.223.334 1.285v2.682c0 1.117-.111 1.341-.334 1.341a.419.419 0 0 1-.279-.112c-.111 0-.225-.056-.336-.056-.615 0-.838.503-.838 1.062 0 .727.336 1.285.781 1.285.615 0 1.342-.168 2.068-.168s1.508.168 2.346.168c.502 0 .727-.559.727-1.285 0-.782-.225-1.062-.502-1.062-.168 0-.225.056-.281.056-.111.056-.166.112-.223.112-.168 0-.223-.224-.223-1.341v-1.788c0-1.676 1.172-2.067 1.787-2.067.727.056 1.117.503 1.117 1.564v2.29h.003z" fill-rule="evenodd" clip-rule="evenodd" fill="#255398"/><path fill="none" stroke="#255398" stroke-width=".931" stroke-miterlimit="2.613" d="M34.369 94.674h98.656"/><path d="M141.684 88.641c1.117 0 1.229-.279 1.229-1.173 0-2.737-1.619-4.469-4.469-4.469-3.072 0-4.916 2.234-4.916 5.195 0 3.017 1.9 5.084 4.973 5.084 2.402 0 4.246-1.229 4.246-2.682 0-.726-.559-1.173-1.285-1.173-.615 0-.838.112-1.396.782-.559.559-.895.726-1.51.726-1.117 0-1.955-.838-1.955-1.899 0-.28.057-.391.559-.391h4.524zm-4.19-2.067c-.559 0-.781 0-.781-.223 0-.503.781-1.229 1.73-1.229s1.396.67 1.396 1.173c0 .168-.055.279-.447.279h-1.898z" fill-rule="evenodd" clip-rule="evenodd" fill="#255398"/><path fill="none" stroke="#255398" stroke-width=".931" stroke-miterlimit="2.613" d="M133.025 94.674h10.28"/><path d="M146.32 89.367a1.98 1.98 0 0 0-1.955 1.956 1.98 1.98 0 0 0 1.955 1.955 1.979 1.979 0 0 0 1.955-1.955 1.978 1.978 0 0 0-1.955-1.956zM160.398 89.311h-.057l-3.52-8.323c-.223-.503-.447-.95-1.061-.95-.727 0-1.564.224-2.234.224-.838 0-1.621-.224-2.402-.224-1.174 0-1.676.615-1.676 1.453 0 .67.502 1.229 1.006 1.229.279 0 .502-.111.838-.111.334 0 .447.335.447 1.508v4.86c0 1.062-.057 1.509-.447 1.509-.336 0-.559-.112-.838-.112-.393 0-1.006.335-1.006 1.229 0 .782.502 1.397 1.508 1.397.783 0 1.564-.168 2.402-.168.67 0 1.453.168 2.234.168.838 0 1.285-.615 1.285-1.397 0-.559-.336-1.229-.949-1.229-.279 0-.559.112-.838.112-.393 0-.447-.392-.447-1.509v-5.363l3.631 7.989c.168.335.391.838.615 1.062.223.279.502.279.838.279h2.568a.919.919 0 0 0 .838-.502c.113-.279.113-.671.113-1.006v-7.318c0-1.229.166-1.508.502-1.508.279 0 .559.111.838.111.559 0 .949-.559.949-1.229 0-.838-.447-1.453-1.285-1.453-.781 0-1.562.224-2.289.224-.783 0-1.621-.224-2.348-.224-1.061 0-1.508.615-1.508 1.453 0 .559.336 1.229.949 1.229.279 0 .559-.111.838-.111.561 0 .504 1.117.504 1.508v5.193h.002zM174.252 88.641c1.117 0 1.229-.279 1.229-1.173 0-2.737-1.619-4.469-4.469-4.469-3.072 0-4.859 2.234-4.859 5.195 0 3.017 1.898 5.084 4.916 5.084 2.457 0 4.246-1.229 4.246-2.682 0-.726-.559-1.173-1.285-1.173-.615 0-.783.112-1.396.782-.504.559-.838.726-1.51.726a1.883 1.883 0 0 1-1.898-1.899c0-.28.057-.391.502-.391h4.524zm-4.19-2.067c-.502 0-.781 0-.781-.223 0-.503.781-1.229 1.73-1.229.951 0 1.396.67 1.396 1.173 0 .168 0 .279-.445.279h-1.9zM177.66 82.608c0 .614-.168.726-.781.726-.615 0-.951.391-.951 1.005 0 .503.393 1.006.783 1.006h.334c.447 0 .504.167.504.614v3.743c0 .894-.057 2.011.67 2.682.615.67 1.564.894 2.402.894 2.066 0 3.408-1.117 3.408-3.24 0-1.341-.504-1.955-1.174-1.955s-1.061.447-1.061 1.062v.67c0 .671-.168 1.006-.672 1.006-.502 0-.67-.279-.67-1.173V86.24c0-.614.057-.838.391-.838h1.564c.838 0 1.229-.335 1.229-1.006 0-.782-.391-1.061-1.061-1.061h-1.619c-.336 0-.504 0-.504-.726v-1.174c0-.726-.168-1.005-1.117-1.005-1.453 0-1.676.279-1.676 1.229v.949h.001z" fill-rule="evenodd" clip-rule="evenodd" fill="#255398"/><path fill="none" stroke="#255398" stroke-width=".931" stroke-miterlimit="2.613" d="M143.305 94.674h40.947"/></svg>