<svg xmlns="http://www.w3.org/2000/svg" width="2500" height="2500" viewBox="0 0 192.756 192.756"><g fill-rule="evenodd" clip-rule="evenodd"><path fill="#fff" d="M0 0h192.756v192.756H0V0z"/><path d="M88.326 8.504v36.884c32.432 17.612 54.452 51.97 54.452 91.47 0 17.071-4.113 33.182-11.402 47.395h31.705V8.504H88.326z" fill="#eeefde"/><path d="M88.326 45.388V8.504H29.677v175.748h101.698c7.289-14.213 11.402-30.324 11.402-47.396 0-39.5-22.017-73.856-54.451-91.468z" fill="#cad552"/><path d="M123.377 125.456c-4.34 0-6.059 2.578-6.875 3.953h-.086v-3.352h-5.758v5.624a6.267 6.267 0 0 1 2.803 5.225 6.265 6.265 0 0 1-2.803 5.226v6.785h6.016v-13.105c0-3.48 2.062-5.284 4.727-5.284 3.824 0 3.91 2.835 3.91 4.512v13.878h6.016v-15.812c-.001-5.029-3.481-7.65-7.95-7.65zM88.199 125.456c-4.039 0-5.715 2.105-6.832 3.91h-.086v-3.309h-5.758v5.383a6.269 6.269 0 0 1 3.195 5.465 6.27 6.27 0 0 1-3.195 5.467v14.584h6.016v-10.962h.086c.73 1.246 2.234 3.523 6.445 3.523 6.789 0 9.625-6.015 9.625-12.289 0-7.905-4.469-11.772-9.496-11.772zm-1.634 19.121c-3.824 0-5.285-3.18-5.285-6.574 0-3.652.989-7.348 5.113-7.348 3.825 0 5.113 3.395 5.113 7.004 0 2.707-1.073 6.918-4.941 6.918zM62.901 138.046c0-10.441-6.229-12.59-10.742-12.59-5.386 0-8.146 2.549-9.547 5.333v1.731a6.255 6.255 0 0 1 1.79 4.385 6.248 6.248 0 0 1-1.79 4.386v2.91c1.909 3.878 5.593 5.315 9.977 5.315 3.91 0 8.465-1.804 10.054-7.303h-6.187c-.473 1.632-2.191 2.49-3.867 2.49-4.855 0-5.2-3.866-5.371-5.585h15.683v-1.072zm-15.512-2.836c.344-3.007 1.848-4.812 4.684-4.812 1.934 0 4.296 1.116 4.641 4.812h-9.325z" fill="#cd3130"/></g></svg>