<svg xmlns="http://www.w3.org/2000/svg" width="2500" height="2500" viewBox="0 0 192.756 192.756"><g fill-rule="evenodd" clip-rule="evenodd"><path fill="#fff" d="M0 0h192.756v192.756H0V0z"/><path fill="#5a9770" d="M11.338 70.685h170.07v44.211H11.338V70.685z"/><path d="M90.333 77.068c.568 0 .604.054.855.484.186.322.158.764-.054 1.059-.122.14-.247.276-.369.412-.159.209-.248.425-.46.6-.284.23-.657.349-.894.632-.169.201-.241.478-.359.707-.051.105-.147.184-.223.273-.071.083-.097.176-.176.262-.075.087-.19.133-.272.201-.071.108-.15.208-.226.316-.104.104-.226.172-.324.287-.085.133-.165.265-.247.399-.366.456-.74.926-1.091 1.396-.093.086-.187.176-.277.263-.093.114-.187.233-.28.344-.147.151-.295.284-.42.463a6.43 6.43 0 0 0-.362.604c-.058.094-.119.186-.176.28-.036.08-.072.151-.108.226-.108.166-.273.288-.388.441-.08.115-.162.234-.248.349-.151.15-.334.266-.467.44-.058.098-.115.194-.169.295-.032.083-.068.172-.097.258-.075.079-.15.161-.223.24-.05.08-.05.179-.118.256-.079.078-.194.132-.248.232l-.14.42c-.15.161-.305.334-.46.492-.193.312-.395.628-.588.937-.091.172-.19.333-.291.505l-.119.226c-.118.151-.236.298-.358.453-.061.108-.122.223-.187.33-.064.072-.125.133-.193.208-.061.093-.079.211-.136.308-.054.079-.112.159-.166.237-.046.101-.054.226-.11.323-.165.269-.374.506-.52.778-.202.359-.345.736-.535 1.099-.065.092-.129.193-.195.287-.125.219-.251.442-.373.66-.075.141-.071.303-.132.438-.144.319-.388.589-.524.913-.054.117-.05.262-.09.387-.051.15-.162.266-.215.41-.029.096-.054.203-.08.309-.078.107-.161.225-.233.332-.089.203-.104.443-.183.646-.075.184-.187.355-.266.535-.122.262-.2.541-.294.814-.061.223-.119.443-.18.656-.024.156-.01.32-.05.465-.046.16-.15.297-.186.455-.022.09 0 .189-.004.291l-.033.348c-.071.445-.337 1.623.029 1.953.022.018.413.086.459.086v-.021a.7.7 0 0 0 .252-.143c.035-.037.042-.178.064-.178a.395.395 0 0 1 .344-.197c.126-.107.302-.189.208-.377-.014-.014-.007-.014.015-.014.104-.129.204-.123.337-.193.085-.047.215-.174.272-.258.01-.025 0-.021.029-.021a3.137 3.137 0 0 1-.019-.148c.051-.039.101-.082.155-.121.04-.016.086-.029.125-.047.083-.064.166-.133.251-.209.068-.057.098-.146.166-.203.093-.07.19-.135.29-.203.054-.049.262-.348.291-.348-.029-.035-.075-.078-.075-.125.058-.041.119-.076.176-.115.111-.076.366-.09.366-.279.018-.021.029-.021 0-.021-.007-.033-.007-.08-.047-.08a.982.982 0 0 1 .209-.309c.071-.064.157-.068.211-.164.029-.105.05-.209.083-.311.05-.109.172-.172.204-.301.021-.104-.05-.199-.011-.293.04-.094.158-.123.223-.213.086-.121.101-.258.155-.395.028-.074.061-.145.089-.213.028-.096-.05-.186-.015-.283.057-.143.14-.146.226-.25.072-.145.148-.279.223-.424.042-.107.075-.273.089-.391.007-.076.007-.137.011-.213.071-.189.287-.094.319-.43 0-.037-.015-.051.024-.051.065-.064.209-.32.226-.398.033-.125 0-.234.069-.352.053-.09.158-.115.219-.188.061-.082.028-.186.064-.279.028-.021.058-.043.082-.072a.623.623 0 0 0 .137-.223c.054-.14-.043-.255.004-.373.003-.021.309-.284.309-.284a.33.33 0 0 1 .011-.179c.018-.047.083-.076.118-.111.054-.068.101-.141.15-.209.072-.118.037-.263.105-.373.071-.111.205-.162.266-.269.057-.101.068-.249.136-.342.094-.133.294-.133.362-.294.036-.086-.04-.125-.04-.197-.014-.021-.042-.043 0-.043.054-.04.147-.028.197-.065.176-.101.176-.315.176-.503.061-.054.108-.118.183-.153.075-.029.169-.029.234-.094.111-.107.09-.308.187-.43.11-.144.276-.094.416-.188.097-.068.094-.214.197-.275.119-.077.27-.008.388-.077.104-.078.205-.157.305-.236.097-.043.223-.043.324-.09.043-.018.106-.083.153-.083-.007-.035-.071-.125-.021-.125v-.025c1.199 0 1.666 1.055 1.12 2.039-.093.172-.218.284-.348.438-.101.122-.169.251-.288.377-.1.093-.2.193-.301.287-.057.064-.086.147-.129.226-.094.162-.23.31-.338.46-.024.104-.054.207-.078.308-.025.09-.08.155-.119.237-.036.083-.064.165-.1.251-.051.086-.129.148-.19.219l-.288.402c-.14.244-.269.484-.405.732-.065.115-.051.246-.094.381-.036.115-.122.199-.176.305-.04.123-.071.24-.108.352-.05.115-.168.168-.226.275-.04.098-.071.203-.104.299-.105.186-.251.359-.345.557a4.23 4.23 0 0 0-.071.236c-.037.068-.072.129-.108.205-.025.082-.051.172-.079.258-.04.105-.132.193-.162.305-.045.154-.045.316-.104.465-.09.219-.28.43-.348.646a1.934 1.934 0 0 0-.083.463c-.011.113-.014.225-.026.34-.075.158-.15.316-.229.477-.007.098-.01.191-.021.285a7.72 7.72 0 0 1-.111.4c-.007.131-.011.262-.014.396-.022.244-.047.494-.068.738.007.137.014.277.018.418 0 .293-.024.605.058.889.075.256.219.678.456.84.312.227.646.008.897.416.061.094.11.221.11.346 0 .334-.165.502-.376.721-.18.176-.345.377-.557.496-.226.121-.413.061-.657.1-.205.051-.412.105-.625.154-.498.064-.9-.123-1.302-.287a4.231 4.231 0 0 1-.287-.111c-.162-.09-.708-.549-.769-.711-.011-.053-.014-.107-.022-.16l-.092-.35c0-.064-.004-.129-.004-.193-.017-.188-.101-.365-.129-.545.007-.072.014-.129.018-.201 0-.098-.036-.18-.042-.27l.01-.295c-.01-.139-.089-.146-.158-.24-.036-.064-.047-.158-.058-.225-.017-.08-.05-.182-.139-.191-.226-.018-.475.432-.597.578-.111.129-.275.236-.395.373-.097.1-.158.234-.254.334-.112.119-.249.176-.367.279-.129.119-.266.238-.398.359-.165.098-.366.219-.557.281-.236.049-.478.104-.71.16-.301.068-.521.277-.841.324-.308.053-.674-.059-.907-.191-.104-.064-.205-.133-.306-.201-.129-.076-.294-.154-.387-.279 0-.004-.007-.004-.01-.016-.004-.074-.015-.154-.019-.223a3.917 3.917 0 0 1-.172-.266c-.079-.281 0-.605 0-.881 0-.191-.079-.311-.112-.471.014-.059.033-.119.051-.176.007-.094.021-.188.029-.291.021-.086.071-.148.078-.244.019-.168-.068-.24-.068-.369.144-.133.198-.295.105-.471-.014-.033-.014-.08-.058-.08a.612.612 0 0 0 .068-.27c0-.229-.129-.533.255-.533l.04-.441c.028-.107.111-.184.114-.305.007-.123-.104-.197-.076-.311.033-.105.19-.137.22-.266.017-.086-.037-.146-.019-.229.019-.137.111-.23.144-.352.032-.111 0-.219.05-.32.043-.104.162-.18.227-.279.071-.107.036-.262.079-.381.037-.102.18-.193.18-.299-.047-.219.161-.279.247-.422.083-.127.094-.285.144-.436.061-.182.226-.209.158-.467-.01-.035-.014-.09-.054-.09.072-.141.173-.186.281-.301.082-.094.082-.24.158-.352.054-.057.104-.127.162-.184.082-.172-.115-.279-.03-.449.058-.107.22-.109.302-.203.075-.102.064-.255.132-.367.068-.064.14-.133.205-.197.079-.118-.028-.205.011-.33.047-.133.19-.158.254-.266.119-.183.129-.396.281-.575.024-.029.05-.097.097-.097v-.051c-.036-.007-.068-.017-.104-.021v-.075c.046-.04.083-.079.125-.118.068-.058.172-.079.216-.169.064-.133.047-.312.122-.445.054-.097.19-.151.226-.266.028-.097-.046-.165-.04-.259a.27.27 0 0 1 .065-.132c.11-.111.258-.165.348-.317h.024c-.014-.031-.071-.172-.024-.172.068-.125.214-.118.312-.208.036-.037.402-.693.402-.726.007-.082-.097-.14-.058-.24.051-.112.18-.115.251-.202.097-.125.115-.265.194-.383.079-.119.355-.227.355-.385h.021v-.025c-.018 0-.309-.097-.172-.097.046-.104.104-.097.219-.097.05-.09.211-.266.233-.338.022-.047-.043-.179-.01-.179.078-.133.251-.14.362-.233.172-.147.14-.281.247-.449.086-.14.328-.27.328-.456h-.022v.028c-.055.024-.111.068-.176.068v-.019h-.025c.018-.075.108-.275.201-.275v-.026c.029.021.122.064.122.101h.047v-.025c.061-.076.144-.202.122-.309-.014-.054-.033-.107-.047-.162.043-.036.086-.076.129-.108.158-.104.248-.101.366-.277.054-.083.033-.205.097-.28.061-.057.115-.122.18-.183.057-.104-.051-.215.036-.315.072-.101.186-.075.287-.122.101-.043.219-.226.169-.331-.011-.028-.107-.132-.057-.132.097-.147.158-.197.344-.197.04-.094.202-.169.202-.27 0-.05-.04-.172 0-.172.078-.147.254-.133.369-.226.115-.098.101-.27.176-.392.087-.125.233-.205.32-.345.021-.028.028-.071.072-.071v-.054c-.044 0-.173.021-.173-.021h-.029c.05-.136.097-.151.247-.151.072-.097.183-.183.183-.319a1.962 1.962 0 0 1-.031-.197c.042-.037.089-.094.15-.112.101-.04.233-.029.315-.108.158-.158.068-.409.202-.562.061-.077.158-.065.23-.119.104-.083.132-.201.219-.294.115-.122.237-.249.348-.362.007-.04.007-.077.015-.115v-.029c-.054 0-.172-.05-.123-.05.075-.125.144-.122.294-.122.086-.111.345-.212.23-.374-.019-.033-.021-.068-.057-.068 0-.033-.014-.025.021-.025.033-.068.115-.172.201-.172.046-.003.093-.014.14-.021.108-.036.193-.165.198-.277-.012-.064-.029-.132-.043-.197.097-.071.157-.118.294-.118l.155-.115c.068-.104.035-.244.107-.345.04-.057.097-.136.166-.165.061-.026.118-.022.172-.064.104-.091.126-.281.208-.388.09-.105.183-.206.276-.305.026-.068.051-.133.075-.202h-.024c-.018-.014-.104-.068-.051-.068.08-.071.166-.054.273-.054a6.21 6.21 0 0 0 .27-.247c.065-.028.126-.058.186-.087.098-.086.129-.197.202-.294.054-.089.176-.173.197-.27a.165.165 0 0 0-.033-.139c-.014-.026-.057-.068-.007-.068.072-.148.564-.298.736-.298.086-.061.173-.09.234-.183.04-.065.035-.162.104-.219.133-.105.258-.094.427-.134.131-.017.253-.078.375-.12zM77.839 78.819a.52.52 0 0 1 .24.054c.145.08.654.514.697.668.05.161-.051.793-.133.922-.083.151-.161.298-.24.452-.082.141-.172.274-.223.428-.04.112-.036.223-.079.333-.08.115-.154.23-.23.352-.147.244-.291.496-.438.74-.024.085-.057.172-.082.258l-.187.294c-.237.263-.446.19-.697.345-.205.118-.362.327-.578.423-.24.108-.509.011-.76.007-.129-.007-.557-.025-.585-.162-.008-.085.021-.172-.008-.248-.031-.093-.121-.154-.129-.258-.003-.115.091-.181.091-.294 0-.126-.112-.212-.08-.333.036-.141.209-.133.251-.335.008-.039-.004-.197.043-.197.23-.233.098-.297.162-.585.021-.125.133-.187.144-.327.011-.115-.043-.208-.003-.315.039-.104.136-.126.198-.212.085-.115.111-.255.19-.38.075-.115.19-.147.28-.237.144-.158.197-.341.37-.47.096-.075.27-.051.363-.133.294-.266.05-.588.664-.588.213-.13.544-.066.759-.202zM94.426 80.327c.122.043.247.061.359.136.118.08.186.197.244.323.085.162.168.413.165.618-.004.169-.108.399-.195.535a2.36 2.36 0 0 0-.139.169c-.061.111-.122.229-.183.336-.15.266-.341.514-.521.761a8.92 8.92 0 0 0-.158.28c-.035.091-.043.176-.097.256-.226.223-.449.437-.675.656-.101.152-.201.305-.309.456-.139.262-.233.607-.496.786-.233.158-.484.123-.778.169-.216.024-.456.115-.688.071-.152-.032-.474-.111-.521-.287-.018-.087.011-.155.011-.24-.004-.101-.076-.147-.068-.249 0-.118.097-.158.132-.254l.033-.258c.064-.133.132-.266.204-.402.04-.101.003-.237.054-.327.083-.155.273-.126.38-.249.083-.1.043-.251.118-.354a14.2 14.2 0 0 0 .216-.201c.047-.08.097-.152.144-.234.042-.05.107-.083.133-.144.035-.108.078-.209.107-.315.004-.068.014-.137.018-.205.018-.054.14-.187.14-.215.064.014.122.025.175.028.083-.075.147-.115.212-.216.129-.215.068-.348.405-.348.047-.024.089-.046.136-.068.047-.036.126-.154.183-.154 0-.037.011-.03-.025-.03v-.024c-.021-.018-.1-.097-.05-.097.086-.158.129-.269.348-.269.18-.126.409-.194.615-.279.068-.04.14-.08.205-.119l.166-.042zM114.982 87.864c.172.004.387.033.541.087.066.028.137.061.205.094.492.207.637.397.643.976 0 .122.025.251.008.37l-.076.254c-.01.073-.029.147-.043.216-.029.068-.064.132-.09.201.068.004.291 0 .291.097h.025v-.021c.219-.079.326-.201.592-.201.021-.08.043-.166.064-.241.014-.032.059-.068.059-.104h.021c.219.086.416-.014.6-.061.086-.015.168-.021.258-.036.098-.025.164-.075.279-.075.061-.026.123-.051.188-.076.205-.115.348-.241.604-.284.039 0 .082.007.121.014 0 .029-.008.021.025.021v-.021c.129-.097.252-.179.416-.193.227-.022.348.062.549.1.303.068.834.04.998.32.09.147.064.744.055.951-.016.435-.059.84-.158 1.231-.078.291-.273.484-.406.743-.031.112-.064.227-.092.337-.068.111-.131.223-.197.334-.072.147-.141.305-.217.456-.074.104-.143.211-.223.312-.076.119-.137.258-.258.362-.189.126-.385.255-.578.381l-.488.521c-.098.047-.193.04-.312.05-.369.054-1.256.198-1.572-.018-.227-.158-.309-.873-.322-1.155-.01-.155.014-.331-.043-.46-.047-.089-.252-.291-.355-.28-.012 0-.021 0-.039.003-.148.04-.281.23-.41.305-.168.068-.342.141-.514.205-.146.047-.309.086-.43.169-.004.004-.012.004-.012.004-.006.01-.014.01-.018.014-.176.123-.25.323-.41.475-.174.165-.416.222-.588.401-.096.097-.141.24-.248.334-.168.15-.381.262-.52.442-.115.146-.143.322-.256.458-.193.202-.387.402-.584.603-.064.051-.129.098-.191.15-.152.197-.305.396-.451.59-.102.113-.197.232-.295.342-.061.092-.117.186-.176.271-.125.162-.258.305-.369.463a3.72 3.72 0 0 1-.131.279c-.117.148-.238.295-.354.443a5.324 5.324 0 0 0-.172.336c-.033.084-.062.172-.09.256l-.141.143c-.061.09-.119.176-.184.266-.205.363-.391.736-.578 1.113-.1.211-.168.449-.266.652-.146.312-.344.604-.477.924-.033.129-.068.254-.104.383-.098.281-.234.551-.342.822-.057.141-.025.32-.064.463-.055.213-.164.334-.27.514a27.29 27.29 0 0 1-.207.42c-.223.326-.598.455-.912.682-.197.148-.352.381-.578.48-.15.072-.324.02-.492.041a5.85 5.85 0 0 0-.297.074c-.129.008-.264.012-.389.02-.266.027-.57.115-.836.047-.098-.059-.193-.113-.295-.174a.56.56 0 0 1-.16-.162c-.023-.045-.105-.641-.092-.682.029-.121.102-.232.08-.365-.008-.039-.051-.129-.008-.129.068-.119.203-.162.273-.26.076-.18.146-.355.223-.527l.137-.203c-.004-.066-.012-.123-.014-.191.057-.072.121-.143.178-.209.094-.086.232-.131.277-.258.035-.1-.051-.186 0-.291.057-.078.115-.16.176-.24.031-.104-.043-.189.008-.297.043-.094.15-.131.203-.215.09-.141.098-.328.205-.449.064-.08.172-.086.232-.176.08-.123-.023-.266.041-.398.031-.072.125-.111.164-.188.061-.119.061-.305.133-.391.055-.068.129-.09.191-.133.064-.051.094-.123.131-.188.041-.068.045-.158.088-.215.061-.107.209-.145.266-.256.072-.156-.047-.301.072-.438.062-.072.172-.072.242-.146.037-.035.08-.148.127-.148-.02-.068-.057-.164-.02-.24.055-.121.188-.201.289-.279.074-.094.16-.188.24-.279.096-.119.189-.188.24-.326.006-.033.018-.033-.01-.033-.016-.033-.094-.146-.053-.146l.1-.221c.35-.025.344-.186.344-.494l.33-.254c.111-.131.158-.332.23-.479.027-.051.057-.107.082-.162.035-.096 0-.215.043-.305.047-.108.176-.162.225-.27.033-.064.025-.175.025-.254.158-.068.381-.197.381-.399 0-.085-.047-.161.004-.24.072-.125.227-.115.348-.176.043-.042.098-.093.145-.136.068-.094.029-.212.064-.323.027-.083.133-.147.176-.216.121-.169.15-.319.318-.453.043-.036.213-.276.148-.276-.025-.04-.055-.105-.102-.105v-.021c.029-.05.062-.104.09-.154.059-.043.115-.083.176-.122.051-.051.094-.104.145-.151.072-.093.086-.201.146-.301.078-.118.266-.201.191-.374-.012-.028-.059-.082-.008-.082.082-.123.229-.068.326-.165.004-.004.012-.007.012-.007.053-.061.104-.119.113-.194.016-.115-.016-.233.041-.32.09-.139.254-.129.365-.233.004 0 .008 0 .016-.007.002 0 .002-.008.006-.012.062-.083.055-.204.102-.29.068-.101.137-.201.199-.298v-.025c-.021-.04-.039-.083-.062-.125-.062-.134.053-.202.164-.216.033 0 .047.007.047-.025.057-.104.117-.201.168-.294.051-.089.051-.179.131-.247.117-.101.289-.101.4-.216.102-.111.041-.305.156-.413.105-.072.219-.146.326-.219.096-.068.168-.193.275-.237.283-.104.605-.115.877-.24.178-.089.135-.15.242-.272.07-.044.146-.087.214-.134zM65.735 89.296c.065.01.133.018.198.024.111 0 .204-.038.316-.007.139.029.24.105.359.188.057.04.115.075.175.104.129.112.229.392.229.578-.01.129-.021.262-.028.387-.019.104-.075.169-.079.277 0 .254.19.527.064.79-.11.219-.474.251-.649.481-.107.146-.158.297-.233.456l-.269.459c-.145.234-.363.42-.507.657-.061.108-.115.215-.172.315-.032.076-.065.144-.094.216-.132.158-.362.179-.491.352-.122.161-.154.387-.266.552-.061.104-.126.197-.19.294-.04.044-.075.087-.112.126-.036.079-.075.165-.111.248-.068.065-.129.133-.19.194a17.13 17.13 0 0 0-.362.531c-.183.37-.359.735-.536 1.108-.035.152-.068.309-.101.459-.05.141-.136.248-.193.381-.028.102-.058.213-.089.312-.075.209-.152.414-.223.613-.021.137-.043.281-.061.418-.036.115-.129.178-.158.289-.03.109-.054.223-.08.334.004.084.012.162.019.242-.019.182-.101.373-.072.57.065.369.51.592.876.592.147-.09.348-.068.542-.068a.89.89 0 0 1 .419-.104c.054-.004.112-.016.162-.025.23-.033.492-.1.65-.27h.028c-.021-.033-.054-.078-.054-.123.101-.053.204-.107.298-.16.086-.021.169-.043.251-.068.161-.086.351-.223.47-.381.035-.053.075-.1.111-.154.058-.068.173-.146.19-.232.019-.061-.017-.102-.05-.152-.019-.014-.058-.057-.014-.057a.625.625 0 0 1 .139-.184c.061-.041.122-.088.183-.131.082-.105.047-.252.097-.367.065-.129.213-.168.305-.271.018-.02.04-.047.04-.084-.035-.025-.079-.072-.122-.072v-.025c.04-.082.08-.154.115-.229.094-.102.232-.131.291-.262.047-.098-.054-.172-.044-.277a5.4 5.4 0 0 1 .083-.219c.021-.08.045-.162.064-.24.05-.09.101-.174.147-.258.068-.066.169-.113.222-.197.047-.084.04-.209.091-.291.061-.104.19-.18.233-.299.033-.09-.033-.172.018-.258.057-.123.198-.115.28-.209.054-.078.104-.146.115-.244.007-.068-.012-.136.024-.19.061-.058.123-.119.183-.18.126-.139.241-.366.287-.541.036-.148.022-.335.104-.453.075-.122.215-.101.301-.186.123-.112.123-.281.19-.414.043-.058.08-.122.127-.183.021-.054.01-.133-.008-.194-.008-.029-.008-.05-.04-.05.032-.071.068-.176.14-.226.112-.072.223-.112.305-.233.065-.101.061-.249.136-.345.061-.09.183-.169.183-.28 0-.036-.042-.098 0-.098.122-.197.524-.28.409-.574-.01-.028-.028-.047.011-.047l.111-.176c.112-.093.345-.115.399-.254.021-.054.007-.122.007-.184.057-.035.118-.072.183-.101.14-.047.292-.018.424-.089.118-.058.265-.197.362-.294.033-.043.068-.091.105-.136.107-.08.24-.108.337-.194.058-.054.101-.144.176-.176.033-.01.115-.003.115-.047h.021c.028-.426.33-.24.639-.24.094-.05.208-.054.323-.054a.566.566 0 0 1 .398-.036c.582.151.775.818.474 1.332-.14.229-.287.449-.474.656-.146.155-.302.319-.435.474a8.369 8.369 0 0 1-.233.254c-.061.126-.118.248-.179.37-.075.108-.155.219-.23.33-.072.14-.104.272-.187.409-.057.108-.168.202-.248.295a28.9 28.9 0 0 0-.277.435c-.104.258-.208.52-.315.778-.065.119-.197.169-.277.28-.083.148-.158.291-.24.432-.118.186-.291.343-.395.535-.068.146-.14.297-.208.445-.097.172-.193.34-.294.506-.141.322-.28.652-.42.973-.057.121-.179.215-.24.338-.209.438-.378.9-.524 1.371a1.888 1.888 0 0 0-.09.18c-.046.131-.022.293-.061.434-.04.15-.155.279-.223.426-.054.156-.101.312-.151.463-.036.135.018.268-.021.4-.04.082-.075.168-.112.25a8.824 8.824 0 0 1-.101.432c-.036.115-.093.201-.104.33-.029.205-.018.402-.007.613.007.111.046.227.033.342a88.38 88.38 0 0 0-.172.57c-.097.584.014 1.178.1 1.727.036.186.025.412.097.586.083.17.294.283.434.398.054.047.104.096.158.139a.99.99 0 0 0 .151.047c.171.08.34.148.509.219.097.055.222.08.294.176.054.076.054.227.057.33.022.438-.456.625-.729.84-.111.08-.193.217-.323.26-.122.039-.272.02-.413.027-.125.037-.248.064-.374.094-.266.039-.56-.002-.807-.055a4.46 4.46 0 0 1-.966-.271c-.083-.029-.154-.068-.237-.098-.08-.078-.162-.156-.245-.24-.072-.057-.147-.113-.218-.172-.091-.102-.105-.266-.169-.385-.051-.098-.155-.15-.212-.25-.021-.029-.043-.094-.08-.094 0-.033-.007-.029.026-.029.176-.318-.08-.283-.105-.49-.014-.127.062-.23.033-.357-.021-.088-.125-.168-.125-.258a3.512 3.512 0 0 1-.047-.518c.003-.084.003-.164.007-.24-.019-.133-.076-.258-.09-.398l.043-.301c-.008-.123-.083-.209-.075-.342.004-.121.067-.172.093-.275.024-.123-.047-.205-.047-.309 0-.127.089-.23.076-.373-.007-.082-.151-.377-.212-.416-.202-.119-.916.455-1.13.559-.115.055-.251.072-.352.141-.058.055-.122.115-.173.168-.151.111-.297.23-.445.338-.169.09-.388.064-.581.104-.18.064-.363.133-.546.197-.2.045-.395.086-.588.127-.09.01-.183.014-.27.025-.165.027-.312.107-.492.092a3.09 3.09 0 0 1-.923-.244c-.092-.039-.186-.078-.28-.125-.122-.086-.216-.209-.315-.324-.058-.045-.115-.105-.173-.164-.036-.055-.075-.104-.111-.158-.026-.072-.047-.143-.068-.211a51.737 51.737 0 0 1-.467-.471.372.372 0 0 0-.104-.014c-.025 0-.043.01-.072.014-.146.064-.2.236-.29.344-.09.123-.227.166-.312.27-.218.26-.323.6-.57.844-.087.068-.169.145-.255.213-.054.057-.107.121-.165.176-.186.15-.398.27-.585.438-.176.146-.273.359-.449.5-.129.105-.269.16-.402.25-.169.111-.315.244-.499.338-.094.035-.19.074-.288.107-.093.064-.179.129-.28.188-.19.117-.388.215-.588.318-.133.068-.258.162-.402.201-.144.039-.309.029-.459.061-.115.029-.233.068-.352.098-.205.018-.567-.078-.71-.191-.061-.049-.097-.125-.141-.182a2.613 2.613 0 0 1-.193-.174c-.04-.066-.072-.139-.107-.211-.094-.111-.18-.232-.27-.348-.079-.127-.104-.273-.169-.406-.05-.064-.1-.129-.154-.189-.021-.076.028-.148.04-.213.018-.086-.011-.223-.119-.223.019-.104.029-.189.029-.293.274-.148-.018-.359 0-.514.011-.119.173-.158.202-.305.025-.213.046-.428.064-.639a3.443 3.443 0 0 1-.01-.27c.014-.123.083-.201.111-.32v-.268c.021-.115.155-.16.198-.264.036-.074.014-.209-.097-.209.061-.207.244-.207.305-.396.042-.131.007-.256.033-.385.028-.082.057-.158.085-.229.012-.109-.057-.191-.021-.293.042-.125.215-.203.233-.326.007-.061-.032-.143-.093-.143v-.025c.043-.082.085-.162.125-.244.072-.062.176-.064.219-.162.029-.092.054-.193.084-.287.031-.086.104-.15.121-.246.022-.135-.053-.225-.003-.342.05-.137.144-.152.247-.248l.148-.234c.035-.074.176-.387.176-.459 0-.082-.075-.16-.047-.244.05-.154.201-.139.298-.262.029-.082.057-.172.086-.258.018-.025.037-.072.072-.072-.04-.223.136-.232.151-.395.004-.102-.075-.154-.075-.248.111-.082.255-.137.359-.232.079-.08.083-.201.125-.303.068-.125.173-.251.201-.402.019-.089-.047-.154-.047-.244l.223-.176c.029-.068.068-.144.104-.215.083-.155.165-.244.202-.42.021-.115-.029-.263.036-.359.071-.115.197-.158.294-.244.093-.097.104-.208.176-.312.057-.078.165-.15.211-.229.033-.047.068-.213-.036-.213v-.024c.05-.065.104-.126.15-.188.086-.064.169-.054.245-.136.115-.136.04-.266.111-.412.058-.122.229-.176.234-.323-.004-.015-.004-.033-.011-.047-.011-.029-.061-.101-.014-.101.025-.05.061-.122.125-.122.019.019.047.033.047.068h.025v-.068-.204c.068-.015.132-.032.197-.05.047-.018.094-.072.148-.072v-.045c-.033-.007-.062-.016-.098-.025 0-.033-.014-.051.026-.051.035-.039.147-.104.147-.146h.047v.025c.028.036.075.079.075.122h.05c.028-.072.065-.154.097-.229.025-.051.388-.309.251-.309-.035-.029-.078-.05-.078-.1a.764.764 0 0 1 .348-.072c.132-.083.266-.162.402-.244.047-.071.097-.14.147-.211.039-.029.106-.015.165-.015.047-.208.258-.248.427-.133.003.004.007.007.015.007v-.021c.108-.04.2-.104.322-.115.42-.039.668.345.646.729-.01.119-.062.215-.09.327-.011.098-.025.19-.036.291-.04.14-.119.258-.187.384-.093.154-.251.222-.374.341l-.311.398c-.098.151-.108.392-.206.567-.053.101-.15.155-.219.24l-.172.249c-.104.15-.133.312-.204.473-.065.104-.134.205-.197.305-.036.072 0 .144 0 .216l-.101.33a8.206 8.206 0 0 0-.24.373l-.176.325c-.051.074-.126.117-.15.197-.054.132.018.297-.04.422-.147.328-.406.598-.571.904-.126.227-.162.486-.27.727a6.597 6.597 0 0 1-.118.186l-.079.209c-.076.123-.146.24-.222.355-.154.291-.312.6-.413.916-.033.139-.065.287-.093.434-.047.133-.146.236-.19.373-.021.133-.043.277-.068.412-.04.09-.078.172-.118.256-.133.424-.249.836-.348 1.27-.04.17-.094.303-.083.5.007.129.047.244.08.365.057.236.025.719.385.693.068-.008.247-.078.247-.168.032 0 .047-.016.047.021.032.014.15.092.15.053.141-.061.305-.129.42-.248.092-.1.146-.24.251-.336l.301-.176c.165-.242.334-.482.506-.723h.022v-.051c-.019-.014-.134-.096-.077-.096.148-.188.449-.137.514-.393-.004-.064-.007-.113-.019-.172a7.86 7.86 0 0 1 .251-.168c.054-.01.108-.018.162-.029a.317.317 0 0 0 .197-.396c-.007-.027-.035-.049.007-.049.046-.09.111-.197.208-.25.068-.037.153-.039.205-.105.089-.104.054-.268.146-.373.141-.146.449-.139.486-.387.003-.039-.021-.141.014-.141.043-.094.251-.293.348-.293-.014-.047-.093-.203-.049-.203.039-.109.129-.24.211-.328.05-.045.125-.084.146-.152.022-.072-.014-.113-.014-.184.054-.057.108-.105.155-.16.097-.082.19-.09.247-.215.051-.131-.024-.287.072-.389.075-.09.176-.094.277-.148.082-.035.165-.178.19-.254.083-.24.05-.527.161-.746.068-.139.194-.17.295-.266.104-.104.125-.23.197-.352.039-.062.083-.123.122-.184a.56.56 0 0 0 .007-.366h.029c.068-.133.237-.162.315-.298.068-.112.211-.423.234-.546.018-.104-.018-.223.028-.312.076-.167.292-.112.388-.245.104-.147.107-.37.208-.531.022-.032.208-.241.133-.241-.032-.015-.075-.007-.075-.054.04-.064.079-.132.118-.197.044-.039.094-.075.137-.111.141-.111.141-.251.141-.428.147-.092.352-.153.395-.348.018-.079-.011-.176.032-.251.064-.108.222-.136.259-.269.028-.108-.051-.202 0-.298.068-.122.219-.107.305-.201.092-.108.106-.24.182-.348.129-.195.327-.277.481-.449.101-.15.202-.301.305-.46.007-.007.021-.01.036-.014 0-.028.007-.021-.024-.021v-.025c-.029-.018-.061-.046-.101-.046v-.08c.043-.028.094-.061.132-.097.094-.007.188-.018.281-.025.125-.05.351-.132.477-.198.125-.082.255-.161.381-.237.104-.007.204-.021.301-.025.043-.031.08-.057.118-.082l.191-.075zM142.467 87.52c.24.024.861.19.99.384.068.108.09.24.09.381.004.265.004.52-.086.728-.055.129-.172.223-.24.341-.127.202-.213.424-.338.629-.104.158-.346.301-.318.52.01.107.088.147.197.147.006.036.018.068.027.097h.051v-.021c.123-.144.229-.255.398-.326.111-.047.271-.021.359-.115.043-.047.031-.119.031-.172.094-.044.201-.022.312-.047.146-.083.303-.166.449-.249.283-.172.193-.52.613-.52.076-.011.15-.018.223-.025.076-.043.146-.083.227-.123.268-.223.387-.444.785-.444.084-.044.174-.083.256-.119.094-.024.186-.024.266-.075.158-.09.211-.309.412-.33h.025c.064-.004.129-.007.193-.015a2.21 2.21 0 0 1 .676.032c.141.014.246.021.355.094.438.276.469 1.151.316 1.612-.062.143-.115.291-.174.43-.078.227-.143.463-.248.679-.088.187-.232.294-.338.463-.096.15-.113.338-.238.481a7.176 7.176 0 0 0-.195.193l-.111.187c-.07.079-.164.129-.223.219-.146.219-.199.484-.381.689-.16.187-.395.288-.547.481-.131.172-.221.359-.334.539-.062.112-.135.218-.195.33-.094.184-.168.381-.271.553-.084.141-.213.248-.303.385-.061.089-.053.186-.125.272-.076.093-.201.165-.26.276-.062.127-.039.303-.104.424-.068.123-.201.197-.27.312l-.197.41c-.043.064-.082.135-.125.199-.068.145-.104.285-.189.414-.129.172-.32.312-.402.498l-.072.266c-.061.211-.111.402-.172.617-.047.172-.164.305-.217.482-.041.143-.025.301-.057.455-.027.094-.061.186-.094.279-.014.213-.027.424-.043.635-.01.127-.061.217-.064.35a1.18 1.18 0 0 0 .014.336c.037.084.072.17.109.252.197.082.172.148.318.273.098.064.197.129.295.197.064.021.133.051.197.074.42.17.834.17 1.332.17.072-.055.592-.389.592-.391h.021c.137.049.527-.123.744-.123.07-.027.143-.053.215-.082.133-.08.516-.479.584-.615.047-.088 0-.197.051-.279.064-.107.191-.154.27-.248.1-.121.074-.27.121-.42.041-.074.08-.146.113-.215.035-.133-.041-.252.014-.383.039-.109.146-.137.211-.24.055-.088.016-.166.043-.275.037-.049.068-.104.102-.146.041-.086.049-.182.061-.275.018-.098.012-.184.049-.266.062-.055.115-.111.174-.166.143-.146.451-.621.412-.828-.01-.033-.051-.127-.008-.127.072-.121.375-.15.375-.268a2.479 2.479 0 0 1-.076-.219c.193-.123.387-.234.496-.441h.021c-.021-.051-.059-.148-.123-.148v-.032c.047-.036.09-.083.133-.118.055-.035.129-.055.17-.107.121-.165.139-.367.279-.517.057-.064.146-.057.215-.09.043-.043.086-.086.129-.133.102-.115.064-.294.174-.391.111-.115.275-.151.381-.266.092-.101.1-.244.203-.333.119-.098.266-.133.373-.244.098-.105.09-.251.197-.345.098-.086.221-.093.324-.193.107-.112.104-.258.203-.366.09-.089.223-.089.307-.183.027-.043.064-.089.094-.133.041-.036.082-.075.121-.115.033-.057.061-.107.09-.165.082-.094.223-.104.318-.172.08-.062.162-.122.217-.202.043-.075.086-.143.129-.219.068-.075.164-.068.232-.136.076-.064.162-.15.27-.15-.004-.04-.043-.147 0-.147.162-.193.32-.151.514-.262.076-.061.154-.126.232-.194.084-.043.17-.085.248-.137a51.5 51.5 0 0 0 .209-.176c.078-.042.162-.089.24-.136a.877.877 0 0 0 .232-.205c.055-.075.08-.172.162-.23.068-.046.188-.042.283-.042.059-.043.309-.244.371-.244v-.071c-.037-.037-.072-.08-.072-.126.166-.082.373-.036.523-.144.119-.089.158-.247.258-.355.08-.079.348-.237.453-.27.068-.025.137-.04.207-.064.076-.032.16-.133.256-.133.051-.137.145-.266.32-.247a.638.638 0 0 0 .125.028v-.021c.236-.176.381-.126.686-.126.162-.083.344-.076.521-.125.258-.086.498-.309.789-.331.123-.017.205.044.32.047.084 0 .16-.033.238-.003.178.057.295.157.428.287.088.083.213.155.273.258.115.18.129.442.047.643-.061.154-.305.333-.424.456-.197.19-.342.427-.57.585-.107.075-.238.123-.352.169-.119.054-.227.115-.338.169-.115.04-.227.072-.342.111-.355.18-.721.349-1.076.528-.193.079-.395.154-.586.233-.135.072-.24.216-.369.309-.182.146-.389.233-.574.37-.172.125-.254.319-.424.459-.385.315-.832.535-1.195.872-.141.169-.283.33-.42.496-.076.068-.146.129-.221.2-.213.255-.447.536-.658.794-.137.162-.316.294-.455.456-.145.201-.291.402-.438.599-.332.449-.688.863-.984 1.326-.133.199-.223.443-.342.652-.168.299-.309.602-.447.914-.113.217-.227.436-.35.65-.107.219-.168.457-.254.701-.029.088-.072.182-.094.279l-.047.438c-.039.111-.076.23-.115.35-.031.078-.086.143-.107.225-.047.176-.043.363-.068.561-.014.1-.064.189-.053.297.002.109.053.197.078.303.076.258.168.469.275.711.062.139.102.266.199.391.186.254.883.51 1.227.467.076-.014.123-.08.188-.104a.616.616 0 0 1 .236-.041c.043-.004.15.021.15-.021.158-.197.217-.197.467-.197v-.025c.256-.072.693-.143.693-.469.07-.037.258-.197.32-.197v.023c.057-.01.117-.014.172-.023.154-.072.307-.152.463-.227.129-.084.113-.23.223-.32.172-.146.477-.082.635-.322.018-.029-.004-.02.035-.02-.018-.049-.031-.1-.045-.146.061-.035.135-.064.203-.1.094-.033.188-.016.266-.072a.428.428 0 0 0 .158-.256c.018-.113-.086-.207-.102-.318l.025-.314c-.01-.1-.057-.168-.053-.275.014-.068.027-.143.043-.215-.029-.074-.051-.146-.076-.225-.039-.094.035-.252.043-.346 0-.121-.008-.244-.008-.361.023-.115.092-.184.105-.307.014-.094-.072-.158-.039-.258.043-.125.193-.174.223-.316.023-.137-.076-.189-.076-.312a.734.734 0 0 0 .33-.398c.021-.078.051-.158.072-.236.057-.119.154-.189.184-.326-.008-.061-.012-.129-.023-.195.184-.109.371-.152.414-.395.012-.092 0-.203.061-.266.072-.09.195-.121.283-.215.098-.1.09-.24.17-.348.086-.094.176-.184.262-.276.047-.054.09-.112.133-.166.1-.1.223-.197.287-.33.076-.158-.004-.179-.004-.323.1-.076.223-.097.326-.168.148-.108.191-.295.191-.472.051-.028.1-.053.15-.082.113-.036.213-.039.297-.111.148-.118.115-.315.223-.444.094-.122.381-.216.506-.352.076-.079.029-.223.123-.291.158-.129.381-.101.494-.298h.029c-.043-.262.102-.323.346-.323.094-.065.312-.119.318-.266-.006-.054-.018-.098-.025-.15.088-.032.18-.019.273-.037.094-.029.352-.205.389-.298.021-.061.008-.118.008-.182.143-.104.363-.206.541-.23.064.003.133.003.193.007v-.021c.223-.159.48-.219.703-.366.072-.054.111-.147.189-.194.131-.071.59-.144.59-.33.004-.04-.025-.097.021-.097.107-.145.205-.037.346-.061.121-.022.703-.284.752-.38.029-.047.012-.122.012-.176.055-.032.107-.058.172-.051.053 0 .176.08.176.051.145-.061.283-.126.424-.183.086-.035.176-.068.258-.104.059-.026.141-.105.201-.105v-.029c-.018-.025-.09-.122-.049-.122.139-.082.303-.104.473-.136.146-.036.227-.082.416-.082.18-.08.363-.158.543-.237.104-.054.125-.133.197-.216.146-.176.352-.118.566-.118.191-.104.443-.026.668-.026.102-.057.248-.071.367-.107.105-.05.211-.093.318-.147.008-.004.018-.011.029-.014v.024c.189-.039.352.018.537.018.465.014.643.054.988.28.082.054.182.082.262.154.287.262.287.757.262 1.149-.008.176.025.327-.021.488-.039.129-.115.233-.168.355-.018.062-.033.125-.055.187-.051.141-.133.263-.186.406-.037.079-.051.162-.104.23-.115.144-.289.198-.393.344-.09.112-.104.266-.201.374-.068.054-.141.119-.213.176a4.535 4.535 0 0 1-.203.237c-.123.104-.24.204-.359.308-.072.075-.146.15-.215.227-.129.114-.27.189-.395.297-.154.141-.242.309-.385.453-.299.298-.693.505-1.02.757-.129.115-.258.241-.381.352-.154.123-.305.244-.459.37-.111.093-.223.19-.338.295-.096.068-.193.146-.293.219-.125.078-.266.109-.389.207-.146.115-.262.234-.395.359-.102.094-.211.168-.309.266-.064.082-.125.168-.193.256-.266.26-.531.52-.795.781-.164.111-.328.229-.498.342l-.648.557c-.08.049-.17.092-.252.143-.213.164-.432.326-.65.484-.201.143-.408.283-.609.428-.184.137-.367.279-.547.416-.193.146-.305.361-.482.521-.26.225-.594.336-.641.723-.014.123.043.199.094.291.166.324.506.586.826.748.15.068.297.139.447.219.217.133.449.254.68.361.104.059.205.115.309.17.162.043.322.094.484.143.107.043.223.086.326.133.27.076.549.098.834.141.268.039.584.115.867.133.184.004.373.004.564.01.52.029 1.076.068 1.604.068.086-.035.195-.023.295-.023.145-.072.818-.025 1.033-.025.094-.047.26-.025.369-.025.102-.047.277-.021.396-.021.086-.047.215-.025.322-.025.111-.062.328-.021.467-.021.059-.016.119-.018.172-.029.047-.012.098-.014.152-.025a.587.587 0 0 1 .244-.047v-.023c.053-.141.182-.174.344-.174.057-.01.119-.014.172-.023a.582.582 0 0 1 .244-.051h.172a.414.414 0 0 1 .201-.055c.107-.043.248.008.365 0 .115-.018.234-.043.346-.061.189-.01.363.018.545.018a.667.667 0 0 1 .295-.055c.158-.092.408-.104.588-.16.115-.043.213-.15.354-.15.031-.008.096.072.096.02.082-.041.17-.084.252-.131.189-.072.566-.041.809-.041h.221c.098-.07.242-.1.371-.1.129-.051.258-.094.387-.137.227-.086.459-.232.721-.232.09-.004.18-.008.266-.02.086-.023.17-.053.252-.082.082-.033.172-.033.266-.039.078-.035.154-.061.23-.09.193-.051.424-.014.613-.051.215-.053.441-.107.656-.154.195-.061.377-.154.604-.154.074-.043.172-.027.256-.057.057-.039.109-.068.168-.104.211-.098.035-.059.291-.059 0 .18.021 1.002-.016 1.041-.074.076-.168.004-.307.047-.191.076-.381.154-.568.223-.176.043-.344.082-.514.125-.133.061-.271.115-.406.17-.168.031-.338.068-.51.096-.146.039-.293.08-.441.123-.125.039-.246.086-.373.121l-.34.076c-.369.107-.744.25-1.109.373a4.883 4.883 0 0 0-.346.051l-.57.129c-.186.031-.387.021-.566.072-.184.061-.369.133-.564.193-.078.039-.139.119-.23.139-.135.037-.297-.01-.432.02-.191.039-.334.176-.525.223-.291.07-.629.061-.934.107-.197.043-.398.094-.588.137-.191.031-.385.064-.568.09-.137.035-.268.082-.398.125-.176.012-.344.021-.516.035-.201.039-.373.102-.57.148-.18.027-.355.057-.539.082-.277.043-.57.043-.865.043-.121.014-.24.029-.373.043-.133 0-.273 0-.41.008-.518.064-1.021.125-1.531.186-.131.012-.227-.035-.346-.035-.146.021-.297.047-.445.064-.297.018-.578-.004-.889.004-.209.01-.406.086-.637.074-.211-.021-.424-.039-.643-.061-.232-.035-.465-.111-.713-.129-.193-.021-.363.039-.539.033-.158-.012-.277-.08-.428-.105-.283-.039-.57-.068-.854-.098a7.336 7.336 0 0 1-1.152-.348c-.137-.078-.275-.146-.41-.215-.139-.051-.279-.104-.42-.154-.182-.107-.361-.209-.549-.324-.207-.135-.648-.486-.9-.486-.496.018-.707.404-1.066.648-.211.104-.42.223-.633.328-.156.086-.275.203-.426.309-.141.096-.299.176-.445.268-.18.109-.383.145-.574.227-.172.072-.297.217-.477.281-.295.096-.607.125-.912.205-.287.074-.574.207-.869.268-.15.025-.305.039-.455.064-.111.025-.213.115-.311.17-.197.1-.387.174-.635.193-.246.021-.42-.117-.645-.148-.119-.023-.219.023-.338.016a25.351 25.351 0 0 1-.416-.094c-.115-.039-.199-.1-.307-.146-.115-.041-.25-.062-.355-.125a2.11 2.11 0 0 0-.133-.135c-.082-.062-.164-.121-.246-.186-.102-.068-.223-.064-.299-.172a3.506 3.506 0 0 1-.301-.521c-.051-.109-.051-.24-.107-.338-.068-.104-.197-.15-.252-.26-.086-.152-.133-.367-.162-.543-.039-.254.051-.348-.154-.529l-.111-.07c-.412-.154-.994.279-1.328.441-.141.055-.271.107-.408.158-.127.053-.223.164-.352.219-.252.094-.578.039-.838.115-.271.086-.49.244-.791.301a10.81 10.81 0 0 1-.367.047 7.184 7.184 0 0 0-.299-.035c-.215-.012-.42.01-.635-.012a3.513 3.513 0 0 1-.57-.107c-.098-.025-.197-.043-.295-.061-.1-.061-.16-.166-.244-.248-.09-.086-.219-.133-.295-.219-.074-.094-.104-.186-.172-.277-.125-.104-.248-.211-.369-.309a4.569 4.569 0 0 1-.072-.314 9.11 9.11 0 0 1-.146-.242c-.025-.057-.021-.139-.033-.203-.027-.131-.092-.244-.111-.377 0-.082.004-.17.012-.248-.012-.1-.014-.193-.021-.299-.012-.172.029-.336.035-.492-.01-.082-.025-.16-.035-.244.031-.131.133-.211.146-.348.014-.107-.074-.189-.043-.291.029-.109.176-.193.184-.297.008-.094-.09-.104-.09-.172.008-.041.004-.129.051-.129.053-.023.115-.055.176-.086.117-.135.117-.359.189-.525.033-.078.107-.141.119-.227.004-.064-.037-.104-.055-.152-.014-.027-.061-.088-.014-.088.072-.182.258-.262.348-.426.043-.09.039-.188.055-.291.021-.133.07-.252.098-.375.006-.062.01-.125.014-.186.043-.158.254-.215.293-.361.033-.1-.018-.17-.018-.26h.025l.117-.074c.047-.055.047-.148.072-.217.055-.168.152-.323.213-.495.018-.079-.021-.132-.025-.212-.018-.122.105-.272.213-.298.043-.01.15-.01.15-.061.01-.033.043-.146 0-.146a1.115 1.115 0 0 1-.127-.169v-.033c-.344.025-.6.312-.775.581-.047.072-.07.151-.133.216a6.24 6.24 0 0 1-.34.273c-.188.197-.334.412-.488.625l-.359.4c-.104.15-.209.299-.314.453-.059.115-.123.232-.184.363-.041.049-.082.104-.127.156-.047.113-.086.217-.133.326-.061.09-.125.178-.189.266-.059.105-.121.217-.176.32-.115.166-.277.283-.395.439-.23.301-.461.592-.689.885-.078.111-.133.223-.223.332-.121.15-.279.242-.406.404a7.53 7.53 0 0 0-.52.762c-.08.096-.158.201-.236.305-.045.068-.08.146-.119.219-.041.119-.055.266-.141.359-.094.09-.182.176-.279.262-.102.1-.188.215-.303.316-.094.07-.186.141-.283.211-.039.051-.082.094-.121.145-.188.201-.424.305-.65.42-.141.078-.287.156-.434.236-.369.162-.762.223-1.174.305-.189.039-.418.123-.639.086-.111-.014-.221-.068-.273-.164-.219-.363-.326-.791-.061-1.186.068-.096.201-.176.227-.283.025-.119-.068-.172-.068-.266.318-.139.23-.279.328-.566.045-.115.123-.201.109-.348-.004-.037-.037-.119.004-.119.035-.076.111-.191.186-.23.066-.031.148-.039.191-.104.078-.129.025-.285.064-.428.029-.082.223-.275.283-.369.014-.033.021-.082.068-.082-.068-.094-.051-.127-.051-.244.072-.021.145 0 .223 0v-.021c.043-.098.086-.217.094-.316.01-.076-.029-.158.01-.223.082-.146.248-.188.346-.316.104-.141.266-.34.32-.512.027-.115-.023-.27.037-.371.055-.082.152-.082.213-.15.09-.104.1-.258.172-.369.088-.129.266-.17.299-.338.002-.012.002-.029.002-.051.006-.031-.002-.061-.023-.094-.016-.027-.025-.047-.064-.047v-.027c.031-.035.096-.094.096-.145.045.004.086.016.127.018.057-.096.121-.193.182-.293.037-.088.018-.188.076-.26.086-.113.211-.135.291-.24.057-.074.023-.197.09-.266.078-.072.16-.15.232-.223.107-.064.195-.093.266-.203.029-.076.061-.15.09-.219.059-.108.137-.169.166-.291.027-.104-.004-.233.039-.327.053-.114.223-.176.301-.301.018-.079.039-.162.059-.244.072-.144.238-.227.289-.338.033-.083 0-.183.047-.258.08-.151.316-.123.381-.294.043-.104.021-.245.064-.352.039-.097.174-.137.197-.237.025-.097-.053-.176 0-.273.068-.125.209-.089.32-.132.096-.044.283-.227.27-.338-.004-.04-.045-.08-.082-.08.061-.132.096-.168.24-.211.027-.01.027-.003.027-.04.014-.039.127-.301.127-.319.057-.212.146-.158.287-.28.049-.064.096-.132.143-.193l.082-.173c.068-.132.162-.215.176-.369.012-.108-.057-.197-.006-.306.057-.122.23-.122.312-.218.057-.068.053-.148.09-.223.031-.085.113-.153.172-.233.021-.036.168-.24.1-.24-.033-.083-.1-.155-.057-.241.057-.133.24-.111.334-.201.201-.208-.012-.575.459-.575.086-.036.201-.024.297-.024.062-.022.127-.051.184-.068.188-.115.334-.319.531-.392.039-.011.025.004.025-.036.051.01.102.017.148.028.037-.042.078-.093.121-.136.09-.211-.004-.38.318-.38.105-.043.182.021.273.021.018.019.025.025.025 0 .086-.062.166-.109.252-.159zm25.707 3.431c-.154.072-.324.075-.484.133-.146.057-.248.175-.385.244-.283.114-.566.229-.848.348-.146.076-.254.205-.387.29-.107.058-.219.115-.33.176-.082.08-.174.15-.256.23-.164.089-.318.176-.48.263-.145.097-.244.244-.377.362-.246.19-.49.38-.734.567-.156.155-.148.363-.295.524-.082.09-.201.126-.303.194-.115.111-.232.215-.355.327-.094.08-.186.132-.279.211-.178.155-.271.395-.412.582-.154.193-.316.391-.475.585-.215.304-.434.581-.629.894-.109.184-.146.416-.232.613-.107.244-.545.857-.428 1.152.043.115.184.086.26.033.094-.072.211-.08.297-.154.051-.051.111-.105.166-.148.057-.082.094-.16.189-.215.055-.029.129-.025.195-.051.139-.061.281-.133.416-.201.09-.031.199-.053.279-.111.072-.061.059-.156.094-.236.082-.18.334-.287.488-.359.035-.014.053-.014.053-.045.133-.291.916-.418.916-.719.146-.068.266-.205.402-.309.064-.047.133-.094.197-.144.082-.105.154-.206.236-.309.141-.122.312-.169.453-.312.068-.075.068-.169.15-.24.137-.129.326-.157.463-.298.09-.094.055-.226.154-.319.098-.104.256-.068.355-.158.094-.083.094-.162.146-.259a.68.68 0 0 1 .303-.248c.031-.014.047 0 .047-.039.057.01.113.017.172.024.049-.068.104-.14.158-.212.02-.054.051-.104.066-.153.025-.033.076-.033.076-.08.029 0 .043-.014.043.021.029.011.076.018.076.058h.021v-.033c.068-.061.254-.392.318-.392-.035-.233.041-.323.299-.323.111-.061.369-.14.369-.316-.039-.042-.064-.078-.043-.136.055-.136.27-.122.375-.276.057-.098.041-.205.041-.331-.006-.388-.115-.698-.541-.705zM108.109 74.853c.133 0 .291-.021.404.021.154.058.223.183.295.31.26.426.334.785-.021 1.187-.051.033-.1.062-.154.101-.158.09-.312.198-.445.334-.252.263-.348.604-.631.844-.291.237-.639.385-.904.674a2.365 2.365 0 0 0-.281.402l-.15.281c-.129.136-.262.28-.398.412-.158.176-.25.38-.395.575-.115.115-.23.233-.35.359-.15.193-.225.434-.387.624a5.111 5.111 0 0 1-.295.319c-.061.065-.141.093-.193.173-.078.153-.158.301-.24.456-.094.118-.184.241-.279.362-.107.129-.281.148-.381.28a6.498 6.498 0 0 0-.162.266c-.049.065-.096.133-.15.209a12.13 12.13 0 0 1-.176.401c-.051.072-.133.134-.197.19-.051.064-.1.129-.15.187-.064.058-.123.115-.184.166-.115.129-.158.305-.254.438-.09.126-.205.198-.32.28-.119.122-.24.251-.359.377-.107.14-.133.305-.215.459-.111.216-.248.406-.385.606-.082.105-.16.213-.232.316-.158.24-.256.513-.412.754-.109.158-.227.308-.334.47-.084.144-.166.301-.252.449-.094.172-.223.319-.348.477-.084.133-.154.259-.234.384-.193.281-.316.585-.48.869-.018.025-.061.072-.012.072.025.05.123.122.123.176h.025v-.03c.09-.036.189.004.283-.024.107-.047.154-.173.283-.18.111-.003.197.058.316.058.035-.025.064-.047.1-.047.012-.068.016-.136.068-.176.008 0 .008-.004.018-.011.109-.068.248-.024.381-.057.219-.057.354-.301.619-.301.006-.058.016-.115.027-.168.102-.029.197-.054.295-.08.094-.015.172.007.258-.028.211-.101.402-.226.617-.327.047-.029.09-.047.141-.072.119-.024.176.037.287.037.086-.058.207-.126.322-.126.047-.007.102-.014.143-.024.053-.016.131.038.131 0a.981.981 0 0 1 .365-.115h.219c.127-.022.201-.086.379-.086.125-.057.332-.007.49-.014.154-.04.312-.076.471-.119.168-.018.318.04.492.04.133-.068.336-.014.471.021.645.162 1.621.808 1.783 1.512.053.258.008.632-.047.882-.025.091-.055.183-.078.277-.061.348-.092.707-.223 1.023-.09.201-.244.373-.338.581-.064.194-.133.383-.197.578-.15.273-.299.553-.449.829-.051.068-.102.129-.145.198-.107.205-.197.42-.314.627-.084.112-.166.228-.256.334-.039.094-.082.18-.125.273l-.316.521c-.074.108-.176.19-.266.298-.094.098-.158.215-.244.323-.09.118-.082.276-.176.396-.186.244-.484.363-.691.588-.08.082-.088.197-.154.291-.084.082-.166.166-.244.244-.137.176-.219.385-.355.553-.113.125-.223.24-.334.355-.055.094-.107.188-.174.283-.139.137-.275.275-.416.412-.057.064-.107.129-.156.188-.105.082-.209.172-.311.254l-.211.266c-.078.072-.154.152-.229.23-.08.137-.16.27-.234.408-.141.217-.279.432-.416.646-.125.148-.312.174-.449.32-.129.143-.158.33-.299.467-.246.24-.494.48-.75.732-.053.068-.107.125-.164.193-.133.121-.295.184-.428.32-.146.15-.111.354-.256.51-.088.064-.174.139-.26.201-.141.129-.219.289-.35.418l-.248.191c-.121.111-.199.258-.329.359a8.003 8.003 0 0 0-.259.164l-.561.719c-.097.082-.222.125-.333.193-.097.076-.193.154-.29.223-.04.051-.086.096-.126.146a4.474 4.474 0 0 1-.381.33l-.406.283a28.28 28.28 0 0 0-.48.213c-.119.061-.194.188-.309.248a2.01 2.01 0 0 1-.226.086l-.24.166c-.18.082-.381.129-.575.174-.161.055-.315.107-.473.17a2.299 2.299 0 0 1-1.084.025c-.215-.051-.609-.234-.761-.41-.086-.096-.107-.244-.193-.352-.054-.068-.148-.1-.198-.168-.047-.119-.096-.234-.144-.359-.051-.068-.104-.137-.15-.205l-.077-.334c-.038-.111-.078-.215-.118-.33-.033-.146.028-.258.042-.391.016-.166.037-.309.04-.467-.007-.125-.007-.244-.015-.365.015-.088.033-.17.047-.252-.011-.098-.014-.197-.025-.295.007-.117.062-.201.062-.322-.007-.09-.047-.17-.029-.266.018-.119.158-.176.179-.279.011-.119-.064-.213-.032-.363.024-.119.129-.197.136-.33.015-.104-.061-.172-.029-.279.033-.119.154-.162.22-.256.057-.104.036-.215.078-.32.04-.07.08-.15.119-.225.036-.141-.054-.209-.047-.342.003-.117.115-.168.133-.277.022-.121-.054-.211-.015-.334.04-.125.19-.107.23-.213.04-.113-.025-.256.033-.363.042-.109.197-.172.215-.295.022-.146-.09-.254-.036-.408.044-.135.219-.137.237-.281.018-.107-.079-.146-.079-.244.029-.027.054-.074.097-.074.029.023.057.049.097.049v-.025a.652.652 0 0 0 .155-.322c.007-.096-.015-.176.014-.256.043-.109.193-.156.251-.258v-.023c-.011-.109-.083-.195-.058-.291.029-.111.141-.098.208-.172.036-.084.068-.162.108-.234.007-.031.003-.047.038-.047a.12.12 0 0 0-.01-.047c-.019-.182.132-.201.183-.33.05-.137-.068-.227-.029-.352.039-.125.165-.166.229-.266.072-.104.144-.384.173-.51.017-.108-.025-.208-.025-.316 0-.233.032-.474.086-.688.032-.119.184-.216.184-.349-.022-.021-.105-.093-.051-.093.044-.04.141-.101.198-.101.014.028.075.057.075.101h.047v-.025l.115-.187c.115-.121.292-.14.327-.334 0-.028-.003-.021.028-.021v-.028h-.146v-.025h.021c.071-.132.111-.047.226-.047v-.024c.08-.097.227-.223.237-.355.01-.119-.028-.195.021-.302.065-.129.237-.146.334-.251.068-.083.058-.197.086-.294.036-.118.144-.202.162-.331-.011-.078-.025-.158-.033-.24.003-.064.076-.122.076-.176.348.036.269-.214.397-.416.051-.083.173-.172.19-.28.011-.115-.093-.202-.018-.323.075-.115.255-.133.352-.226.039-.036.093-.158.144-.158-.025-.065-.054-.15-.025-.223.063-.115.226-.151.298-.28.024-.101.057-.204.082-.305.05-.101.158-.179.205-.291.018-.09.028-.184.042-.28.037-.054.073-.115.105-.176h.028c.136.04.291-.079.327-.2l.042-.219c.068-.155.23-.252.263-.42.003-.025-.011-.047.031-.047.065-.033.138-.068.203-.097.057-.058.211-.345.291-.345v-.054c-.098-.075-.109-.244.016-.305.045-.021.102-.01.156-.01.051-.091.1-.183.146-.277.047-.104.115-.538.301-.538v-.075c-.027-.019-.162-.122-.104-.122a.21.21 0 0 1 .107-.097c.234-.068.578-.141.389-.446-.012-.025-.047-.054 0-.054.021-.021.172-.215.172-.219.043.025.115.075.172.075v-.025c.025-.031.055-.061.08-.093.086-.133.043-.323.143-.453.076-.104.162-.216.24-.32.033-.028.072-.05.107-.075.119-.082.488-.409.488-.542-.207-.212-.006-.262.145-.398.027-.036.09-.143.125-.143-.061-.406.213-.364.424-.582.057-.068.057-.169.094-.245.039-.083.16-.132.189-.222.047-.115-.039-.176-.039-.281.055-.05.107-.1.164-.146.109-.061.273-.068.354-.169.104-.122-.02-.273.053-.395.078-.134.26-.108.369-.223.098-.111.043-.291.123-.402.074-.097.193-.097.271-.187.016-.018.012-.029.049-.029 0-.14.121-.186.121-.121h.025c-.021-.061-.076-.104-.076-.173.145-.094.283-.176.424-.269.102-.094.635-.775.635-.869-.027-.007-.061-.011-.096-.025v-.021c.035-.04.07-.072.107-.111.064-.025.133-.061.197-.09.076-.032.24-.193.252-.28 0-.05-.008-.108-.012-.161.24-.18.514-.212.514-.593.051-.046.094-.093.139-.144a1.57 1.57 0 0 1 .174-.042c.201-.083.254-.24.254-.456.055-.036.107-.075.162-.115.051-.01.102-.014.158-.025.117-.024.283-.161.236-.308-.006-.025-.027-.043.014-.043.064-.068.133-.143.199-.211.078-.058.182-.072.26-.145.094-.085.127-.215.23-.287.072-.05.15-.104.23-.153.082-.04.197-.054.266-.133.047-.061 0-.144-.025-.205-.01-.033.012-.025-.029-.025 0-.028-.002-.024.025-.024.17-.209.391-.223.639-.302.098-.05.193-.104.295-.155.094-.046.123-.139.23-.179a.903.903 0 0 1 .268-.033c.059-.003.115-.014.174-.021l.001-.026zm-6.189 16.385c-.244.094-.537-.01-.811.04-.1.028-.209.054-.316.083-.125.051-.219.129-.352.173-.168.05-.334.104-.498.158-.098.017-.191.04-.291.057-.1.04-.205.086-.316.126-.158.068-.258.186-.406.287a4.694 4.694 0 0 1-.326.176c-.184.158-.361.312-.537.466-.201.133-.443.18-.646.305a1.39 1.39 0 0 0-.346.31c-.057.078-.114.146-.172.226-.143.108-.322.141-.477.237-.136.082-.205.219-.312.327-.097.093-.194.19-.287.275-.058.051-.119.098-.176.148-.054.065-.054.126-.089.197a1.75 1.75 0 0 1-.098.136c-.061.126-.122.258-.187.388-.042.068-.086.144-.133.205-.129.28-.269.563-.404.84-.097.215-.155.451-.223.682-.033.08-.064.15-.101.232-.024.094-.05.205-.078.307l-.183.316c-.036.131-.072.268-.112.4-.107.266-.251.521-.337.801-.019.102-.036.209-.058.309-.045.146-.161.24-.19.402-.039.205-.039.398-.085.588-.098.244-.188.5-.28.746a6.882 6.882 0 0 0-.051.414l-.101.301c-.039.158-.039.326-.079.482l-.068.232c-.011.209-.014.42-.018.631-.021.123-.043.23-.064.35-.037.254-.007.545.014.789.022.322-.025 1.307.266 1.451.083.035.219.027.327.027.054-.025.248-.014.248-.025h.021c.115-.121.284-.186.413-.289.068-.08.144-.158.216-.242.183-.135.366-.279.549-.416.089-.082.1-.164.165-.254.054-.08.162-.131.244-.162.032-.01.042-.006.042-.039.108.014.195.014.28-.043.051-.039.119-.18.165-.18-.01-.041-.068-.125-.024-.125.079-.123.144-.174.298-.174v-.023c.05-.094.097-.295.243-.295a1.34 1.34 0 0 1-.046-.176c.082-.076.172-.145.254-.223.089-.043.211-.033.291-.086.033-.025.068-.064.068-.109v-.186c.064-.211.302-.287.484-.348.055-.014.105-.08.156-.08-.012-.049-.033-.1-.047-.146.057-.062.117-.123.178-.188.047-.006.092-.021.141-.027a.415.415 0 0 0 .201-.17c.084-.133.004-.305.129-.426.098-.098.484-.043.484-.273.004-.039.012-.08.018-.125.008-.018.016-.045.025-.061.098-.17.291-.131.373-.252.119-.174.043-.305.234-.467.133-.107.301-.057.453-.236.062-.084.014-.201.062-.283.09-.152.273-.148.385-.281.094-.107.055-.27.141-.377.125-.162.352-.184.473-.355.084-.115.027-.271.102-.381a2.79 2.79 0 0 0 .15-.113c.02-.008.033-.02.047-.029h.029c0-.033.006-.025-.029-.025-.018-.029-.127-.172-.074-.172.031-.043.062-.086.088-.129.145-.119.363-.154.457-.342h.021c-.035-.365.24-.312.434-.549.064-.082.041-.201.094-.273.072-.1.184-.133.266-.227.09-.106.1-.226.16-.344.055-.086.115-.176.174-.27.01-.042 0-.08-.014-.108-.02-.036-.041-.097-.072-.097.115-.262.322-.216.434-.398.064-.114.09-.243.148-.358.049-.072.104-.144.156-.216.037-.122-.039-.237.021-.348.041-.08.129-.108.176-.173.072-.089.055-.208.109-.304.064-.119.189-.194.229-.338.039-.133-.072-.223-.057-.355.018-.101.1-.147.125-.234.025-.09-.039-.154-.039-.236 0-.107.104-.187.09-.288-.021-.125-.133-.212-.205-.312-.193-.24-.395-.524-.686-.642-.137-.054-.312-.054-.455-.093-.214-.052-.339-.124-.595-.124zM133.076 88.83c.248 0 .535-.028.758.033.312.08.467.298.682.517.191.201.381.345.373.653 0 .129-.045.211-.082.323-.031.129-.061.255-.094.385-.039.11-.113.219-.143.333-.016.08-.033.162-.043.24 0 .119.027.213-.018.312-.061.159-.221.227-.311.363-.135.212-.268.442-.387.653l-.18.262c-.215.474-.424.955-.652 1.433-.072.146-.197.265-.256.412-.145.342-.219.715-.383 1.045-.084.161-.26.269-.346.43-.076.202-.162.403-.24.608-.047.088-.086.178-.129.266-.035.049-.076.113-.115.166-.072.178-.104.363-.189.529-.098.164-.281.275-.355.453l-.141.463c-.09.24-.219.465-.32.695a3.014 3.014 0 0 0-.082.283 6.79 6.79 0 0 0-.184.324c-.027.074-.057.146-.082.223-.074.15-.154.297-.223.455-.023.104-.055.205-.078.305-.039.086-.084.172-.121.258a5.8 5.8 0 0 1-.105.307c-.107.244-.342.402-.436.656-.053.184-.113.359-.172.535-.096.287-.223.566-.305.869-.057.25-.111.502-.172.756-.102.35-.287.672-.414 1.02-.039.107-.039.238-.066.359-.041.176-.146.359-.197.531-.021.086-.043.186-.064.279-.066.162-.201.367-.252.535-.014.084-.029.166-.039.256-.09.176-.176.352-.266.527-.15.279-.277.6-.51.83l-.441.35c-.385.277-.984-.035-1.25-.305-.051-.064-.129-.129-.129-.215.006-.09.021-.18.037-.273-.033-.092-.062-.193-.092-.295.016-.061.029-.131.037-.193 0-.154-.045-.316-.018-.467.031-.104.064-.215.092-.322.012-.105-.039-.188-.004-.287.041-.053.076-.1.123-.158.072-.123.1-.258.166-.383.035-.072.082-.113.104-.188.043-.141.027-.291.064-.438.025-.104.119-.158.137-.277.01-.133-.084-.229-.051-.355.033-.158.24-.258.24-.428h-.025v-.023c-.021-.008-.164-.076-.096-.076.082-.094.215-.094.301-.213.098-.125.029-.301.061-.447.018-.1.109-.168.109-.275 0-.119-.072-.205-.055-.32.014-.119.172-.174.172-.299.008-.135-.117-.207-.072-.361.033-.115.18-.174.227-.289.018-.082.037-.152.055-.229.039-.107.096-.197.117-.305.008-.107.016-.209.021-.309.025-.098.115-.152.129-.26.021-.131-.066-.215-.061-.344 0-.096.104-.146.104-.244-.018-.047-.031-.086-.057-.129-.002-.055-.012-.111-.014-.164h-.033c-.043.018-.086.043-.133.061-.074.074-.154.158-.229.232-.08.047-.15.098-.227.148-.137.113-.273.232-.41.35-.199.178-.34.385-.52.564-.072.055-.145.076-.209.119-.18.168-.355.334-.533.494-.16.141-.375.174-.535.307-.15.117-.26.27-.391.391-.07.055-.141.115-.209.16-.08.092-.15.182-.227.268-.111.049-.223.1-.334.146-.24.158-.48.318-.729.475-.115.057-.227.113-.344.168-.141.09-.281.18-.42.266-.135.076-.277.119-.406.201-.15.094-.234.33-.402.455-.125.094-.279.129-.416.197-.125.08-.252.162-.373.242-.109.049-.205.096-.309.143-.119.086-.242.164-.359.254-.104.045-.211.098-.32.148-.1.027-.193.039-.287.082-.24.129-.447.346-.703.441-.219.094-.473.115-.699.209-.18.07-.252.189-.453.24-.359.082-.664.215-.99.348-.295.08-.588.154-.879.24-.166.008-.332.018-.496.021-.445.062-.811.072-1.184-.129-.162-.09-.223-.234-.354-.359-.068-.074-.16-.1-.232-.168-.09-.08-.111-.201-.168-.301-.062-.105-.123-.219-.184-.328-.047-.133.012-.287.014-.42a4.405 4.405 0 0 0-.014-.236c.021-.094.1-.15.1-.258 0-.145-.117-.227-.049-.385.031-.082.129-.072.176-.146.064-.094.049-.213.092-.32.066-.111.123-.219.191-.334.035-.117-.014-.25.031-.361.055-.148.273-.223.273-.402a1.604 1.604 0 0 1-.146-.021c.006-.008.01-.021.014-.029a.506.506 0 0 1 .193-.24c.084-.043.18-.043.234-.119.107-.133 0-.309.088-.434.119-.094.23-.184.346-.27.098-.1.111-.225.188-.334.082-.125.262-.188.273-.352 0-.055-.066-.17-.029-.17.031-.02.064-.045.1-.066.176-.076.486-.131.312-.396a.11.11 0 0 0-.014-.027h.018v-.025c.055-.039.123-.158.201-.145a.68.68 0 0 0 .143.041c.08-.18.227-.285.227-.514.055-.051.119-.1.172-.146.057-.025.123-.066.18-.094.148-.156.176-.369.346-.518.139-.125.562-.137.605-.352v-.025c-.162-.225.326-.344.428-.455.08-.09.055-.236.133-.309.121-.115.562-.141.492-.42-.012-.029-.059-.102-.016-.102.123-.133.219-.121.393-.162.107-.031.25-.113.34-.191.145-.115.223-.26.342-.393.068-.057.121-.117.193-.176.076-.102.129-.207.223-.295.145-.119.295-.236.445-.348.125-.121.201-.283.348-.387.137-.098.303-.119.434-.23.062-.054.059-.129.088-.197a.357.357 0 0 1 .254-.205l.121.021h.025v-.018c.141-.115.219-.208.219-.398.076-.047.152-.097.227-.147.119-.054.406-.071.41-.273-.004-.04-.012-.079-.018-.118.086-.054.172-.101.258-.152.064-.01.137-.031.201-.042.191-.111.381-.226.574-.338.076-.053.072-.161.129-.233.086-.104.252-.129.359-.208.082-.061.125-.152.168-.234.08-.169.273-.205.449-.205.133-.082.266-.169.389-.254.045-.047.088-.098.129-.148.09-.064.174-.132.262-.2.129-.086.262-.169.395-.249.1-.075.094-.211.188-.272.074-.047.199-.032.301-.032.074-.04.162-.079.244-.118.064-.044.129-.083.197-.129a1.662 1.662 0 0 1-.029-.147c.033-.014.125-.04.125-.071.047.01.098.028.148.05v-.025c.01-.014.025-.024.035-.039.166-.169.449-.152.643-.277.137-.093.055-.273.209-.341.078-.037.188-.011.266-.025.078-.029.156-.064.232-.093.148-.05.42-.055.502-.208.025-.054.008-.141.008-.201.045-.029.094-.064.137-.097.098-.043.227-.021.334-.036.146-.025.604-.19.699-.302.033-.04.016-.104.016-.158.061-.04.125-.089.197-.101.076-.014.154.004.215-.007.129-.033.211-.154.355-.169.209-.024.398.054.613.054.119-.072.32-.097.471-.097.201-.076.369.097.523.176.08.04.342.097.438.097v-.029c.123-.093.191-.086.32-.147.119-.072.266-.273.266-.417.1 0 .449-.032.449.097h.021v-.028c.112-.064.212-.125.323-.19zm-3.502 2.828c-.256.176-.59.198-.879.308-.221.087-.385.267-.607.349-.23.054-.467.115-.701.176-.207.071-.383.211-.57.326-.135.083-.305.104-.438.187-.158.094-.252.251-.404.348-.32.211-.637.427-.941.66-.098.061-.193.126-.287.19-.141.112-.209.287-.359.402l-.52.298c-.123.112-.244.226-.367.341-.111.072-.227.136-.338.212-.107.068-.215.166-.314.244-.062.054-.119.112-.184.162-.051.083-.068.176-.15.24-.094.044-.184.09-.277.133-.104.068-.199.137-.299.201-.238.18-.412.428-.641.604a8.203 8.203 0 0 0-.371.215c-.221.188-.377.416-.562.629-.105.096-.213.189-.318.291-.1.117-.191.232-.293.352-.092.068-.186.143-.279.211-.053.043-.098.098-.15.146a2.117 2.117 0 0 1-.213.176c-.117.123-.125.277-.225.395-.137.156-.328.162-.465.297-.113.125-.225.244-.336.361-.076.117-.162.23-.244.34-.152.174-.359.289-.5.465-.104.129-.117.283-.197.422-.074.115-.146.223-.223.338-.039.072-.07.15-.1.227-.082.141-.24.18-.33.309-.133.188-.158.459-.23.686l-.158.33c-.117.24-.16.496-.113.779.01.09.01.188.074.252a.505.505 0 0 0 .467.129c.082-.037.17-.061.26-.09.15-.016.275.035.434.035.111-.07.266-.035.398-.07.154-.041.129-.152.365-.152.055-.035.299-.072.299-.121.01-.043.006-.129.049-.129.045-.025.27-.119.27-.148.082.012.162.025.248.008.068-.021.594-.359.594-.381.164-.24.207-.189.463-.287.068-.035.139-.078.207-.115.143-.053.293-.07.428-.146.104-.064.1-.172.176-.244.078-.078.205-.094.291-.15.039-.039.086-.086.121-.119.064-.039.125-.078.193-.117.051-.041.094-.115.15-.158.123-.08.242-.08.375-.127.086-.049.16-.094.24-.139l.205-.086c.139-.088.133-.24.271-.332.215-.146.549-.068.549-.465.066-.033.119-.068.176-.107.041-.02.148-.004.148-.033.049-.047.121-.133.121-.201h.029a.264.264 0 0 0 .141-.01c.137-.084.227-.238.352-.324.133-.09.305-.164.412-.287.104-.111.137-.279.266-.373.127-.1.287-.111.406-.24.104-.102.133-.232.252-.334.129-.107.297-.137.422-.244.195-.172.109-.451.457-.451.047-.045.096-.059.133-.113.121-.199.113-.463.434-.463.094-.064.209-.109.258-.219.051-.115.033-.215.127-.309.104-.117.266-.125.361-.248.082-.107.076-.266.158-.365.086-.102.236-.102.338-.176a.096.096 0 0 0 .025-.021c.104-.108.076-.255.158-.367.107-.161.312-.193.422-.362a.07.07 0 0 0 .02-.025c.053-.172.111-.344.164-.513.012-.097-.039-.176-.006-.266.02-.097.146-.141.17-.237.02-.072-.002-.144-.002-.211 0-.169.137-.198.236-.284.162-.139.076-.291.133-.477.059-.202.311-.186.158-.477-.014-.029-.053-.072-.01-.072.043-.083.15-.132.197-.212.047-.083.027-.19.053-.28.016-.047.244-.348.27-.348-.057-.122-.182-.438-.295-.507-.064-.042-.15-.037-.228-.042zM30.958 80.327c.298.068.606.147.915.2.122.007.249.016.366.019.076.011.151.025.226.033.115-.004.23-.004.342-.007.107-.051.276 0 .395 0 .042-.028.283-.126.333-.119.047.015.064.068.111.068.086-.007.183-.014.27-.024.157-.094.369-.051.566-.051.118-.043.327.037.441.058l.226.003c.158.011.316.04.496.04a.483.483 0 0 1 .294-.101c.079-.032.169.004.248.018.187.019.374.04.564.057.092-.046.251-.024.369-.024.104-.044.212.017.32.01.089-.021.183-.05.276-.068.068.007.144.011.219.018l.319-.011c.154-.09.632.011.861.007l.248-.042c.075.004.144.004.215.011.072-.019.137-.025.205-.04.161.003.33.007.492.015.054 0 .115-.007.172-.007.218-.007.438.007.664.007.179-.079.503.071.693.089.323.033.685.05 1.004.033.14-.011.276.028.42.028.162-.079.363 0 .545 0 .162-.068.41-.025.593-.025.057-.007.114-.014.172-.024.312-.108.384.502.348.707-.021.146-.064.266-.186.358-.256.205-.51.309-.808.431-.122.05-.249.111-.371.165-.186.033-.369.062-.56.101-.132.04-.266.083-.397.122-.119.018-.244.033-.363.047-.29.068-.585.132-.872.205-.133.007-.258.01-.388.014-.129.029-.251.054-.374.083-.147.019-.294.032-.441.047-.125.014-.237.068-.344.104-.161.033-.312.068-.474.097-.165.025-.324-.018-.492-.01-.237.036-.478.061-.714.089l-.786.054c-.51.08-1.02.151-1.529.23-.162.036-.327.068-.496.111-.219.011-.419-.007-.639.007-.215.019-.438.086-.667.11-.211.009-.42.009-.635.009-.319.017-.622.082-.916.139-.348.075-.7.133-1.03.237-.266.083-.474.252-.726.353-.312.132-.61.226-.879.426l-.65.507c-.186.132-.366.262-.548.395-.119.115-.141.248-.23.37-.061.054-.126.115-.194.173-.111.097-.197.198-.308.305-.172.159-.399.215-.571.366-.229.211-.459.431-.688.639-.075.068-.151.133-.223.198-.277.295-.571.61-.879.869-.288.244-.556.496-.822.761-.205.204-.493.427-.528.721-.007.033-.01.029.025.029v.021h.489c.099-.032.218.037.315.037.104-.014.205-.032.301-.051.098.007.198.019.295.028.082-.014.165-.031.244-.046.161-.004.283.062.448.062.144-.083.349-.03.518-.03l.143-.021c.115-.043.294.021.419.021.298-.172.747-.097 1.113-.097h.614c.18-.101.341-.05.542-.05.097-.043.254-.025.374-.025.118-.057.341-.021.488-.021.068-.011.132-.018.201-.028l.219-.019c.086-.033.159.007.244 0 .115-.007.219-.054.348-.054.112-.05.274.021.399.021.036-.014.08-.028.118-.046.058-.039.112-.079.166-.118.064-.029.172-.029.255-.029.011.029.018.062.028.102.159-.03.305-.126.467-.126.04-.007.08-.014.118-.025.037.068.094.122.173.122.075-.111.19-.172.337-.118.061.021.098.075.166.093.144.025.208-.101.358-.061.112.021.19.115.284.168.155.09.331.09.535.09.151-.09.352-.122.542-.122.047-.019.09-.03.129-.051.079-.043.094-.104.194-.108.467-.039.671.664.359.962-.27.254-.782.129-1.141.223-.331.085-.589.312-.891.43-.266.104-.574.104-.869.15-.333.061-.646.136-.987.194-.193.061-.391.118-.581.179-.119.05-.228.129-.356.147a7.054 7.054 0 0 1-.29-.019c-.208.026-.413.126-.617.151l-.865.119a5.06 5.06 0 0 1-.319.017c-.126.025-.248.058-.374.09-.211.04-.423.076-.636.112-.054.025-.104.04-.158.064-.169.037-.359-.003-.513.04-.478.129-.973.237-1.454.366-.345.093-.689.204-1.031.276-.197.046-.416-.004-.617.046l-.521.162h-.294c-.223.058-.441.112-.667.162-.147.018-.295.028-.438.042-.139.051-.28.098-.426.151-.183.037-.37.037-.553.079l-.384.147c-.226.061-.474.1-.65.266-.165.154-.115.402-.244.564-.118.115-.232.229-.348.344-.111.147-.162.316-.251.467-.101.186-.258.337-.359.517-.111.2-.154.435-.258.632-.097.154-.19.309-.283.463-.072.102-.148.197-.216.301-.036.113-.068.23-.104.346-.065.207-.148.428-.223.643-.108.311-.219.629-.327.951-.068.201-.162.387-.211.6l-.054.52c-.076.193-.148.402-.216.596-.062.199-.01.387-.007.586.007.279-.115.549-.158.814a2.74 2.74 0 0 0-.021.908c.021.145.079.24.104.377.051.275.083.541.223.771l.237.27c.18.227.341.438.571.617.14.115.29.164.452.248.119.07.241.139.366.215.273.137.603.189.923.252.416.068.839.146 1.281.189.388.043.775.123 1.182.123.092-.027.183-.033.272-.059.09-.021.146-.078.251-.078.258 0 .524.096.786.078.154-.021.22-.145.395-.145.101-.041.298-.018.417-.018.061-.035.167-.031.251-.031.043-.008.168.031.168 0h.025c.155-.094.376-.086.567-.094.158 0 .312-.055.496-.055.162-.1.42-.07.639-.07.129-.068.265-.137.395-.201.079-.016.162-.029.237-.043.05-.021.073-.072.108-.111.057-.059.155-.061.247-.061.075-.012.144-.033.216-.037.086-.029.172-.051.251-.082.097 0 .197 0 .294-.004.072-.025.144-.047.219-.072.119-.047.244-.096.366-.146.119-.043.126-.141.219-.209.133-.1.263-.104.424-.143.057-.025.118-.043.184-.074h.29c.086-.041.173-.076.255-.115.097-.055.197-.227.315-.227.18-.039.302-.201.474-.252.094-.029.205.004.309.004.143-.098.288-.193.424-.295.083-.086.068-.225.158-.309.097-.094.219-.119.323-.193.105-.09.402-.467.449-.586.022-.061.007-.115.007-.172.136-.078.122 0 .241 0 .057-.143.348-.322.348-.469.021-.016.026-.016.026-.051-.037 0-.098.021-.098-.02h-.028v-.023c.054-.025.226-.094.226-.148.03 0 .022-.01.022.02h.029c.014.035.028.078.071.078v-.029c.086-.064.148-.176.223-.24.082-.078.216-.115.237-.236.018-.082-.043-.107-.043-.186.054-.027.107-.027.172-.027v-.021c.101-.047.355-.193.427-.264.115-.105.179-.252.276-.371.065-.064.133-.123.197-.189a.21.21 0 0 0 .04-.115c0-.037-.042-.125-.003-.125.036-.029.125-.051.125-.094.042.014.075.051.122.051v-.025c.076-.094.141-.184.255-.227.068-.025.137-.025.193-.068.054-.039.134-.172.194-.172-.007-.055-.015-.098-.025-.152.101-.053.187-.125.319-.125.122-.072.337-.107.345-.295-.008-.045-.015-.096-.025-.146.071-.057.143-.119.211-.172.097-.031.197-.068.291-.098.05-.025.122-.15.165-.15-.021-.039-.05-.068-.05-.121.036 0 .024.006.024-.021.093-.068.143-.205.262-.244.123-.047.233.018.344-.066.18-.172.356-.334.532-.502.082-.045.161-.1.24-.154.09-.129.176-.25.27-.369.136-.125.365-.086.501-.213.086-.07.098-.174.136-.268.08-.181.319-.353.525-.353v-.028c.045-.094.042-.216.136-.277.144-.097.254-.033.431-.057.089-.014.147-.079.23-.115.085-.036.172-.068.258-.101.219-.118.125-.388.351-.452.051-.011.098-.022.147-.029h.026c.014 0 .032 0 .042-.007.076-.054.23-.167.324-.167-.019-.037-.087-.148-.047-.148.064-.086.153-.179.269-.126.025.015.051.015.051.051h.024v-.029c.098-.068.169-.173.259-.251.086-.044.166-.087.244-.133.04-.047.08-.104.115-.155a.639.639 0 0 1 .488-.197l.05-.021c.09-.024.295-.089.266-.222-.007-.032-.007-.076-.039-.076v-.053a.746.746 0 0 1 .517-.173c.068-.028.14-.057.208-.089.126-.086.19-.205.355-.223.026-.003.026.004.026-.032h.028c.018-.337.19-.27.463-.27.126-.082.288-.079.406-.162.104-.071.154-.176.23-.265.129-.14.34-.165.549-.165.161-.104.362-.147.518-.273.097-.079.078-.219.2-.284.165-.079.276-.064.46-.104.108-.044.215-.09.319-.141.193-.101.161-.197.283-.323.123-.126.38-.086.561-.086.122-.043.247-.086.366-.133.122-.042.266-.158.397-.158.011-.129.072-.176.197-.176l.029.126c.029 0 .025-.007.025.021.025 0 .021.011.021-.021.094-.04.144-.104.23-.165.057-.022.115-.054.172-.083.173-.086.141-.122.363-.122.136-.111.269-.071.441-.071.111-.129.212-.334.402-.348.083.007.176.017.266.021.176-.101.366-.004.564-.004.144 0 .258-.049.395-.017.71.108 1.109 1.087.926 1.772-.068.274-.323.467-.398.744-.05.201-.008.405-.021.613-.007.108-.064.184-.097.277a6.346 6.346 0 0 1-.115.362c-.089.208-.272.354-.431.523-.114.151-.227.302-.342.445-.186.28-.341.596-.52.873-.118.183-.27.33-.388.513-.043.072-.087.15-.129.227-.047.047-.094.1-.144.143-.198.32-.395.639-.589.959-.104.162-.222.338-.305.51-.032.074-.057.143-.089.215-.115.184-.23.371-.344.561-.032.09-.058.184-.086.277a5.503 5.503 0 0 0-.197.27c-.021.078-.04.15-.058.229-.061.129-.186.223-.273.344-.042.088-.092.18-.136.273-.021.09-.042.18-.064.266-.058.115-.18.188-.226.303-.083.199-.144.395-.234.592-.054.117-.143.221-.193.344-.033.123-.061.244-.098.363-.068.129-.139.254-.211.383-.029.08-.054.156-.086.227-.075.115-.154.23-.233.342-.125.322-.248.652-.374.973-.078.15-.153.305-.233.451-.071.152-.139.303-.211.461-.075.117-.147.236-.219.357-.065.17-.129.338-.197.508-.097.199-.212.391-.309.598-.022.059-.046.123-.062.188-.118.209-.233.402-.351.617-.054.094-.129.176-.18.273-.071.168-.093.344-.151.52-.05.17-.144.309-.208.475-.083.18-.129.365-.206.553-.046.076-.097.143-.139.211-.133.23-.23.484-.353.723-.064.146-.132.291-.197.43-.107.363-.291.672-.435 1.018-.028.121-.057.238-.082.357l-.118.27c-.105.209-.266.395-.38.6-.068.197-.136.391-.208.588-.033.055-.068.107-.097.162-.05.098-.097.201-.148.305-.042.137-.089.27-.136.402-.068.146-.19.27-.287.402-.064.104-.133.211-.197.316-.108.186-.172.619-.376.725-.108.057-.288.029-.425.029-.404 0-.782-.02-1.184-.02.014-.121.021-.24.043-.369.007-.082.046-.158.046-.244 0-.121-.061-.227-.04-.348.043-.09.09-.176.133-.277.021-.121-.054-.225-.014-.334.036-.096.14-.096.208-.176l.29-.545c.082-.188-.036-.348.019-.484.04-.107.229-.148.229-.281-.054-.068-.133-.15-.111-.242 0 0 .007-.012.011-.023.047-.156.219-.121.291-.244.018-.061.036-.113.05-.172.054-.143.108-.291.19-.416.021-.033.043-.086.086-.086v-.047c-.086-.076-.159-.279-.014-.342.053-.016.104-.002.165-.002v-.025c.119-.172.14-.342.208-.539.025-.082.08-.137.086-.227.011-.133-.086-.203-.046-.332.028-.119.201-.135.219-.26.015-.113-.085-.186-.046-.291.039-.107.118-.115.205-.176.046-.035.071-.104.1-.154.047-.111.04-.24.08-.361.025-.084.093-.135.107-.23.01-.094-.079-.172-.047-.266.062-.184.233-.227.324-.377.11-.197.235-.428.272-.656l-.011-.248c.021-.107.126-.174.165-.27.04-.104-.036-.162-.036-.244.014-.064.032-.119.042-.18h.025v.025c.04.012.08.016.122.025v-.025a.522.522 0 0 0 .108-.201c.01-.064-.032-.24-.011-.24.065-.141.15-.266.173-.428.017-.086-.043-.15-.011-.232.104-.262.395-.131.353-.527-.004-.039-.021-.123.032-.123.266-.24.064-.291.144-.553.035-.125.129-.197.15-.334.01-.1-.043-.182-.007-.287.04-.115.15-.107.233-.16.061-.039.097-.119.129-.176.025-.094.057-.184.086-.27.046-.09.146-.156.171-.244.029-.127-.057-.234.012-.359.028-.08.19-.104.19-.129h.024c-.014-.189-.115-.406-.344-.373-.27.035-.42.199-.611.383-.19.176-.401.324-.61.498-.215.184-.466.293-.693.443-.247.16-.434.385-.696.514-.341.164-.599.42-.916.635-.111.061-.226.121-.334.184-.24.143-.449.318-.677.48-.105.057-.202.125-.306.186-.187.141-.331.334-.521.461-.115.078-.255.086-.374.146-.176.133-.359.266-.534.398-.115.051-.237.104-.349.15-.082.072-.165.129-.243.193-.194.137-.396.27-.589.402-.23.123-.463.244-.703.363-.08.059-.155.121-.234.176-.383.227-.768.453-1.151.674-.273.137-.589.191-.862.324a3.924 3.924 0 0 1-.269.15c-.126.055-.255.107-.388.162-.154.086-.291.207-.456.271-.183.055-.371.111-.557.17-.162.076-.324.143-.485.219-.165.057-.333.115-.501.176-.197.068-.392.16-.601.191-.122.02-.254 0-.369-.006-.383-.027-.747-.062-1.081-.182-.179-.068-.233-.213-.341-.348-.04-.041-.083-.074-.118-.109-.051-.104-.011-.24-.025-.348-.028-.223-.211-.283-.047-.531.019-.025.021-.068.061-.068-.04-.078-.122-.125-.129-.219.011-.053.018-.115.032-.172.057-.016.122-.039.187-.062.115-.096.079-.232.101-.375.019-.055.036-.104.054-.15.007-.037.047-.127.003-.127v-.021c-.043.008-.083.018-.129.021a.68.68 0 0 0-.021-.125h-.021c-.093.049-.19.057-.287.094-.101.049-.208.096-.308.143-.119.021-.237.055-.359.072-.194.082-.388.168-.582.25l-.51.166c-.19.076-.373.172-.574.234-.28.035-.564.074-.851.113-.173.062-.348.119-.528.18-.294.057-.603.125-.884.176-.412.043-.825.088-1.234.133-.406.043-.822.141-1.209.227-.165.008-.327.018-.488.021-.108.021-.18.094-.298.111-.205-.018-.413-.025-.614-.035-.144.01-.284.027-.423.043-.104-.004-.215-.008-.319-.018l-.291.027-.348-.057a9.22 9.22 0 0 1-1.228-.209c-.158-.031-.32-.014-.47-.053-.391-.104-.721-.291-1.07-.479-.215-.107-.444-.201-.635-.352-.19-.143-.342-.33-.517-.49-.08-.059-.166-.115-.249-.174a2.026 2.026 0 0 1-.38-.477 2.629 2.629 0 0 0-.079-.172c-.04-.051-.079-.102-.119-.145-.075-.146-.015-.318-.054-.484-.028-.078-.061-.154-.092-.227-.004-.102-.007-.197-.019-.295a5.866 5.866 0 0 0-.058-.441c-.045-.133-.089-.266-.143-.4.018-.104.036-.213.046-.316 0-.107 0-.215-.003-.312a18 18 0 0 1 .1-.434c0-.08 0-.154-.003-.234.021-.104.04-.201.054-.301-.004-.088-.015-.166-.021-.244.024-.107.054-.217.082-.33.007-.086-.065-.148-.058-.242.004-.109.122-.172.122-.293-.007-.086-.05-.127-.083-.201-.028-.082.018-.186.018-.27.068-.012.133-.012.197-.018.008-.09.04-.346-.101-.346 0-.039-.007-.027.026-.027.075-.146.233-.188.305-.326.061-.127.024-.256.068-.381.032-.105.151-.137.154-.256.004-.139-.09-.201-.046-.344.028-.123.107-.137.165-.238.057-.084.101-.193.15-.285a.874.874 0 0 0 .068-.367c0-.072.004-.146.004-.219.046-.117.187-.205.236-.322.061-.129-.083-.227-.036-.342.05-.115.209-.111.294-.193.105-.104.065-.252.115-.395.033-.102.176-.205.176-.324-.026-.097-.05-.2-.075-.297.176-.108.463-.098.474-.371-.011-.083-.019-.165-.033-.247.054-.029.272-.27.272-.27a2.436 2.436 0 0 1-.057-.146c-.054-.202.269-.228.248-.414-.036-.27-.621-.545-.722-.85-.062-.176.28-.578.355-.751.058-.133-.018-.312.025-.441.04-.108.179-.144.254-.227.03-.063.061-.125.091-.19.125-.186.275-.333.523-.333.193-.083.391-.162.585-.248v-.021c-.079-.007-.136.003-.18-.061a.093.093 0 0 0-.014-.014h.021c.098-.115.571-.32.571-.467-.043-.04-.097-.086-.097-.151.061-.011.441-.075.441.024h.025c.114-.226.358-.153.567-.125.082.011.463-.054.531-.09l.062-.054c.05-.05.11-.133.118-.204.011-.076-.024-.155.026-.223a6.72 6.72 0 0 0 .262-.179c.057-.061.064-.126.108-.194.053-.083.118-.158.175-.237.075-.097.197-.123.258-.229a.297.297 0 0 0 .061-.162h-.05c-.032-.026-.097-.026-.097-.08h.021c.086-.068.216-.075.312-.118.129-.058.359-.266.359-.423.304-.176.492-.467.685-.744.061-.085.144-.1.19-.197.046-.104.032-.15.032-.266.065-.057.126-.111.187-.172.129-.065.255-.019.358-.162.086-.118.004-.294.101-.398.058-.068.133-.072.216-.087.125-.025.251-.157.251-.291a2.976 2.976 0 0 0-.025-.172c.101-.072.172-.122.319-.122.086-.065.233-.097.291-.19.071-.108.021-.266.115-.366.111-.125.287-.162.391-.298.068-.085.054-.2.144-.28.143-.129.38.011.535-.176.093-.118-.025-.226-.025-.344.097-.054.19-.122.323-.108.05.015.097.025.146.036v-.021c.136-.123.197-.205.197-.399.047-.028.173-.09.173-.151h.028c.033.026.083.05.132.036.104-.024.506-.348.506-.477h-.197v-.05h.026c.097-.126.268-.086.34-.19.083-.112.01-.284.043-.416.033-.115.136-.187.205-.281.025-.036.079-.122.126-.122 0-.029.007-.029-.025-.029-.043-.071-.119-.108-.075-.208.047-.093.466-.272.588-.359.087-.068.176-.141.263-.205.05-.054.083-.104.147-.147.129-.075.556-.097.556-.308-.007-.047-.057-.173-.024-.173.183-.183.438-.089.682-.139.186-.036.322-.155.524-.176.29-.022.39.11.627-.083zm16.907 13.251c-.216.129-.46.241-.679.359-.388.215-.761.453-1.142.686a9.343 9.343 0 0 0-.294.219l-.263.161c-.132.097-.258.193-.391.287-.166.104-.331.205-.5.305-.197.133-.38.331-.585.463-.118.064-.233.133-.351.197-.112.083-.223.154-.331.233-.125.065-.258.122-.38.19-.162.133-.319.27-.481.402-.129.1-.259.186-.388.279a11.87 11.87 0 0 1-.588.449c-.105.086-.208.18-.316.27-.229.154-.466.338-.708.475-.136.078-.28.125-.405.223-.356.268-.589.641-.93.932l-.277.191a4.082 4.082 0 0 1-.219.129c-.132.121-.211.293-.362.404-.19.152-.452.205-.653.336-.15.092-.241.242-.362.371-.129.111-.262.238-.388.35-.098.104-.133.229-.223.322-.104.082-.211.162-.323.248-.251.248-.438.523-.67.779l-.385.385c-.118.146-.233.285-.348.434-.27.33-.563.627-.818.951-.197.262-.904 1.127-.119 1.127.047-.094.27-.248.374-.248.007.043.015.082.025.123h.021c.042-.084.141-.154.223-.205.075-.039.153-.021.24-.039.089-.016.155-.08.233-.105.068-.008.129-.014.19-.025.218-.045.352-.111.47-.295h.025c.154-.084.377-.061.535-.129a2.98 2.98 0 0 0 .459-.301c.119-.104.15-.232.323-.273.083-.025.179.016.262.016v-.021c.158-.086.359-.164.492-.295.107-.104.129-.229.259-.305.157-.098.373-.086.545-.162.223-.1.381-.293.588-.43.101-.076.208-.092.316-.148.133-.068.169-.24.277-.318.182-.137.416-.148.616-.238.176-.094.353-.178.528-.271a1.196 1.196 0 0 0-.025-.104 4.16 4.16 0 0 0 .251-.213c.089-.043.208-.018.305-.053.169-.08.338-.15.498-.23.108-.064.094-.189.169-.27.129-.123.31-.094.435-.213.083-.07.054-.178.09-.271.112-.262.467-.346.743-.346.008-.043-.007-.152.022-.152.146-.195.344-.242.562-.312l.371-.205c.101-.076.071-.223.158-.312.089-.096.218-.115.331-.176.075-.047.122-.133.186-.189.072-.041.148-.076.219-.109.026-.014.047-.014.047-.049.043.014.097.074.15.074v-.025c.115-.129.255-.184.381-.291.093-.117.187-.24.272-.357.166-.148.363-.23.517-.377.09-.084.09-.197.187-.283.085-.084.233-.08.305-.184.1-.152.071-.23.125-.402.035-.068.072-.137.107-.213.05-.189-.118-.308.129-.422.054-.025.111-.047.165-.068.051-.04.072-.213.126-.213v-.074h-.223c.028-.141.118-.165.183-.28l.118-.241c.007-.062.015-.125.019-.187.04-.147.154-.272.082-.441-.007-.028-.057-.083-.002-.083.024-.065.053-.136.111-.176.101-.08.179-.08.2-.219.016-.089-.075-.104-.085-.18-.018-.057.017-.107.017-.165.072.021.152.047.22.072.061-.212.021-.23-.105-.385-.047-.054-.078-.107-.15-.132-.093-.039-.219-.032-.333-.032z" fill="#fff"/><path d="M42.412 114.924c-.463.012-2.197.012-2.197.012.05.213-.212.717-.262.926-.043.316-.09.625-.14.934-.054.266-.15.561-.277.797-.068.115-.139.23-.215.348l-.076.305-.214.381c-.115.305-.144.643-.249.951-.083.264-.251.488-.315.754-.004.115-.011.234-.019.352-.021.09-.085.123-.122.199-.061.131-.083.285-.129.426-.057.162-.305.441-.23.629.051.133.352.082.481.096.054.014.115.025.173.041.05-.059.121-.076.186-.109.233-.154.345-.268.621-.348.019 0 .108-.035.054-.035-.021-.014-.151-.098-.097-.098.036-.061.147-.154.147-.227h.024c.31.072.255-.268.316-.455.054-.09.111-.172.165-.262.011-.018.057-.068.011-.068-.011-.018-.022-.047-.032-.068-.04-.072-.043-.133.007-.201.108-.129.306-.094.369-.211.076-.135.015-.266.059-.406.031-.094.129-.17.144-.27.017-.125-.026-.213.028-.316.047-.078.129-.068.197-.107.036-.035.068-.068.104-.107.098-.113.054-.27.129-.391.061-.094.197-.111.237-.219.007-.02.012-.047.019-.068 0-.072-.047-.174-.126-.174.072-.174.241-.297.356-.455.05-.064.017-.15.032-.229.018-.113.09-.201.162-.291.019-.029.029-.061.065-.061v-.053c-.162-.172.075-.303.187-.422.042-.043.107-.191.165-.191-.021-.053-.036-.109-.054-.172.043-.031.262-.27.27-.27-.036-.096-.122-.189-.133-.297-.01-.24.281-.299.281-.463-.019-.025-.101-.105-.044-.105h-.058v-.002z" fill="#5a9770"/><path d="M172.768 84.577c0-1.375 1.039-2.412 2.365-2.412 1.318 0 2.355 1.038 2.355 2.412 0 1.396-1.037 2.427-2.355 2.427-1.326-.001-2.365-1.031-2.365-2.427zm2.365 2.914c1.584 0 2.939-1.227 2.939-2.914 0-1.666-1.355-2.901-2.939-2.901-1.596 0-2.953 1.235-2.953 2.901 0 1.687 1.357 2.914 2.953 2.914zm-.613-2.681h.586l.883 1.454h.566l-.951-1.479c.496-.061.869-.32.869-.922 0-.66-.393-.951-1.182-.951h-1.281v3.353h.51V84.81zm0-.435v-1.037h.693c.355 0 .732.078.732.496 0 .509-.389.541-.818.541h-.607z" fill="#fff"/></g></svg>