<svg height="2500" viewBox="280.7 159.9 517.62 760.18" width="987" xmlns="http://www.w3.org/2000/svg"><path d="m783.98 428.97c-12.18-35.03-32.49-67.86-58.74-94.92-25.39-26.18-56.37-47.01-89.78-60.41v-16.81c0-53.45-43.55-96.93-97.09-96.93s-97.09 43.48-97.09 96.93v17.73c-32.86 13.54-63.35 34.37-88.35 60.39-25.85 26.91-45.88 59.42-57.92 94.01-9.5 27.29-14.31 55.91-14.31 85.07 0 .45 0 .99.03 1.56.16 28.64 4.96 56.73 14.28 83.51 12.23 35.15 32.67 68.08 59.12 95.24 25.95 26.66 57.64 47.71 91.75 60.98l46.27 91.15.02.03.02.03v.03l32.83 64.64c2.78 5.48 8.33 8.88 14.47 8.88h.05c6.2-.03 11.75-3.48 14.49-9.02l32.12-64.73 44.74-90.15c34.65-13.1 66.82-34.14 93.16-60.94 26.84-27.32 47.58-60.57 59.95-96.16 1.72-4.95.94-10.46-2.1-14.74s-7.99-6.83-13.23-6.83h-149.42c-8.95 0-16.23 7.28-16.23 16.23v139.43l-41.56 89.7h-44.77l-42.91-89.73v-201.78h308.28c8.59 0 15.71-6.72 16.21-15.3.04-.77.05-1.44.05-2.06 0-29.17-4.81-57.78-14.31-85.06zm-326.46 21.56h161.71c8.95 0 16.23-7.28 16.23-16.23v-125.28c25.83 12.18 49.69 29.59 69.38 50.65 21.53 23.03 38.29 50.68 48.48 79.97a225.234 225.234 0 0 1 12.01 59.29h-307.81c-8.95 0-16.23 7.28-16.23 16.23v202.8c-25.28-12.28-48.64-29.61-67.93-50.47-21.15-22.86-37.64-50.2-47.68-79.06-8.18-23.49-12.38-48.16-12.48-73.34 0-.26 0-.52-.02-.79v-.29c0-25.5 4.21-50.53 12.51-74.37 10.04-28.86 26.53-56.2 47.68-79.06 19.3-20.86 42.66-38.2 67.93-50.47v124.2c0 8.95 7.28 16.23 16.23 16.23zm16.23-32.46v-161.24c0-35.55 28.99-64.46 64.62-64.46s64.62 28.92 64.62 64.46v161.24zm270.77 191.93c-11.14 23.69-26.27 45.19-45.07 63.99s-40.3 33.94-63.99 45.07v-109.06z"/></svg>