<?xml version="1.0" encoding="utf-8"?>
<!-- Generator: Adobe Illustrator 22.1.0, SVG Export Plug-In . SVG Version: 6.00 Build 0)  -->
<svg version="1.1" id="Laag_1" xmlns="http://www.w3.org/2000/svg" xmlns:xlink="http://www.w3.org/1999/xlink" x="0px" y="0px"
	 viewBox="0 0 1654.4 2499.4" style="enable-background:new 0 0 1654.4 2499.4;" xml:space="preserve">
<style type="text/css">
	.st0{fill:#D4AF37;}
	.st1{fill:#FFFFFF;}
	.st2{fill:none;stroke:#000000;stroke-width:1.244;stroke-miterlimit:2.613;}
	.st3{fill:#D4AF37;stroke:#000000;stroke-width:1.244;stroke-miterlimit:2.613;}
	.st4{fill:#008000;}
</style>
<path class="st0" d="M1418.1,726.5c0,0,185.3-79.7,185-263.8l0-13.8c0.2-168.2-157.4-275.6-235.6-319.6S1088,0.3,826.5,0
	C564.9-0.2,363.5,84.4,285.2,128.3c-78.3,43.8-232.4,151-232.5,319.1v13.8C52,645.4,235,726.1,235,726.1
	C89.8,914.1,0.2,1170.9,0,1454.2C-0.5,2031.1,369.4,2499,826.2,2499.4s827.6-466.9,828.1-1043.7
	C1654.6,1171.1,1564.2,915,1418.1,726.5L1418.1,726.5z"/>
<path class="st1" d="M828,537.5c-384.4-0.4-696.5,410.1-696.9,916.8c-0.5,506.6,310.8,917.7,695.2,918
	c384.5,0.3,696.5-410.2,697-916.9C1523.8,948.8,1212.5,537.8,828,537.5L828,537.5z"/>
<path class="st2" d="M828,537.5c-384.4-0.4-696.5,410.1-696.9,916.8c-0.5,506.6,310.8,917.7,695.2,918
	c384.5,0.3,696.5-410.2,697-916.9C1523.8,948.8,1212.5,537.8,828,537.5L828,537.5z"/>
<path class="st3" d="M827.8,828.3c-218.7-0.2-396.4,280.2-396.7,626.3c-0.3,346.1,176.8,626.8,395.5,627
	c218.7,0.2,396.4-280.2,396.7-626.3C1223.6,1109.2,1046.6,828.5,827.8,828.3L827.8,828.3z"/>
<path class="st1" d="M828.4,77.7c112.3,0.1,257.5,20.2,390.2,69.2c212.8,78.6,304.6,192.9,304.5,313.6
	c-0.1,63.9-24.8,96.8-53.7,133.7c-20.9,26.7-90.4,82.4-90.4,82.4c-146.2-165.6-339-265.9-551-266.1c-211.5-0.2-404.6,99.9-551,264.6
	c0,0-69.9-55.3-90.7-82c-28.8-37-53.5-69.9-53.4-133.8c0.1-120.8,92.1-234.9,305.1-313.2C571,97.4,716.2,77.5,828.4,77.7L828.4,77.7
	z"/>
<path class="st2" d="M828.4,77.7c112.3,0.1,257.5,20.2,390.2,69.2c212.8,78.6,304.6,192.9,304.5,313.6
	c-0.1,63.9-24.8,96.8-53.7,133.7c-20.9,26.7-90.4,82.4-90.4,82.4c-146.2-165.6-339-265.9-551-266.1c-211.5-0.2-404.6,99.9-551,264.6
	c0,0-69.9-55.3-90.7-82c-28.8-37-53.5-69.9-53.4-133.8c0.1-120.8,92.1-234.9,305.1-313.2C571,97.4,716.2,77.5,828.4,77.7L828.4,77.7
	z"/>
<g>
	<path class="st1" d="M826.8,1677c0,0,305.9,218.9,304.7,218.9c-1,0-113.4-356.9-113.4-356.9l316.3-223.2l-388.6-0.1l-119-348.3
		l-119.1,348.3l-387.7-0.1L635.4,1539c0,0-112.4,356.9-113.5,356.9C520.8,1895.9,826.8,1676.9,826.8,1677L826.8,1677z"/>
	<path class="st4" d="M826.8,1647.7l259.2,184.5l-96.7-301.9l270.6-190.8l-330.6-0.1L826.8,1044l-102.4,295.5l-329.8-0.1
		l269.7,190.9l-96.8,301.9L826.8,1647.7L826.8,1647.7z"/>
</g>
<g>
	<path class="st4" d="M416.1,1689L243,1737.4l39.8,123l40.9-11.4l-24.8-76.8l27.5-7.7l21.5,66.5l37.4-10.4l-21.5-66.5l26.6-7.4
		l23.7,73.2l40.9-11.4L416.1,1689z M477.9,1866l-157.6,82.5l25.4,42l43.3-22.7l24.3,6.8l-39.2,62.7l30.6,50.6l56.7-102.8l98,15.6
		l-30.5-50.4l-88.5-9.5l62.8-32.9L477.9,1866z M582.4,2030.5l-120.5,125.3l53.6,44.5c40.6,33.8,88.6,30.6,125.9-8.1
		c37.6-39.1,37.1-81.9-5.3-117.2L582.4,2030.5z M591.8,2093.1l12.2,10.2c18.9,15.7,20.5,34.2-1.4,56.9c-21.4,22.2-42.5,23-60.8,7.7
		l-12.2-10.2L591.8,2093.1z M711,2135.3l-42.6,163.4l134.2,30.2l10.1-38.5l-83.9-18.9l6.8-25.9l72.6,16.4l9.2-35.3l-72.6-16.4
		l6.5-25l79.9,18l10-38.5L711,2135.3z M927.9,2136.9l2.8,5.7c9.7,19.6,3.6,36.2-16.8,44.9l-8.3,3.6l17.4,35.2l38.3-16.4l39.9,80.6
		l47.1-20.1l-75.5-152.7L927.9,2136.9z M1095.8,2180.8c23.7,20.7,57.8,20.1,91.5-13.2c33.2-32.8,32.2-65.1,8.7-85.7
		c-13.7-12-30.7-16.4-46.4-12.4c0.5-11.3-5-22.9-15-31.6c-22.6-19.8-54.5-18.1-83.4,10.4c-28.9,28.5-29,58.3-6.4,78.2
		c10.2,8.9,22.8,13.5,35,12.2C1076.1,2153.8,1082.6,2169.3,1095.8,2180.8L1095.8,2180.8z M1131.1,2118.5
		c10.4-10.3,20.9-11.8,28.7-5.1c7.6,6.6,7.2,16.5-3.6,27.1c-10.4,10.3-21.3,11.5-28.8,4.9
		C1119.6,2138.6,1120.2,2129.3,1131.1,2118.5z M1082.3,2075.8c8.4-8.3,16.4-8.4,22.6-3c6.3,5.5,6.2,13.1-1.9,21.1
		c-8.3,8.1-16.3,8.5-22.6,3C1074.3,2091.5,1074,2083.9,1082.3,2075.8z M1241.9,2016.8c29,13.8,61.5,4.3,83.9-36.4
		c22.1-40.1,11.4-70.9-17.4-84.6c-16.8-8-34.4-7.8-48.3,0.2c-2.9-11-11.7-20.6-23.9-26.5c-27.7-13.2-57.8-3.3-77,31.6
		c-19.2,34.9-10.3,63.6,17.4,76.7c12.4,5.9,25.9,7,37.3,2.6C1214.9,1995.9,1225.8,2009.2,1241.9,2016.8L1241.9,2016.8z
		 M1257.1,1947.8c6.9-12.6,16.6-16.8,26-12.3c9.2,4.4,11.8,13.9,4.7,26.9c-6.9,12.6-17,16.6-26.2,12.2
		C1252.1,1970.1,1249.9,1960.9,1257.1,1947.8L1257.1,1947.8z M1197.4,1919.4c5.6-10.2,13.3-12.3,20.8-8.7c7.7,3.7,9.9,11,4.5,20.8
		c-5.5,10-13,12.4-20.8,8.7C1194.5,1936.6,1191.9,1929.4,1197.4,1919.4z M1215.7,1789.5l43.2,11.2l22.5-75.1l115.1,86.8l14.9-49.7
		l-124-88.9l-34.4-8.9L1215.7,1789.5z"/>
	<path class="st4" d="M210.6,1214.1l152.1,56.9l41.8-120.8l-35.9-13.4l-26.1,75.5l-24.1-9l22.6-65.4l-32.9-12.3l-22.6,65.4
		l-23.3-8.7l24.9-71.9l-35.9-13.4L210.6,1214.1z M380.5,945.8c-28.9-13.3-58.1-1.5-76.9,33.8c-18.6,34.9-12,66.4,14.5,81.7
		c25.3,14.6,51.4,7.1,76.2-31.4c10.6-16.2,17.7-19.8,24.5-15.8c7.7,4.5,8.5,13.6,1.7,26.4c-6.9,12.9-17.5,18.4-27.8,14.2l-23.1,43.3
		c31.5,13.6,61.5,1.2,82.3-37.8c21-39.4,12.9-71.3-14.4-87c-25.8-14.9-49.5-8.3-77.1,34.5c-9.1,13.7-15.5,16.9-22.4,12.9
		c-6.4-3.7-8.1-11.6-2.2-22.6c5.9-11,14.8-14.8,23-11.3L380.5,945.8z M378.3,859.6l120.3,112.2l30.9-35.9l-31.5-29.3l14.8-17.2
		c27.6-32,28.9-66.1,0-93c-27.8-25.9-61-22.3-88.9,10.1L378.3,859.6z M438.4,850.9l12.7-14.7c10.2-11.9,20.7-13.6,30.9-4
		c9.9,9.3,9.9,20.7-0.3,32.6l-12.6,14.7L438.4,850.9z M531.2,701.6l79.3,146.5l107.6-63l-18.7-34.6l-67.2,39.4l-12.6-23.2l58.2-34.1
		l-17.1-31.6L602.5,735l-12.1-22.5l64-37.5l-18.7-34.6L531.2,701.6z M743.9,604.6l6.9,167.9l46.3-2.1l-2-48.4l17.7-0.8l26.8,47.3
		l53.6-2.4L854,708.3c17.1-9.1,27.2-26.3,26.2-49.2c-1.5-37.4-23.8-59.5-66.7-57.6L743.9,604.6z M791.8,643.3l19.2-0.8
		c14.6-0.7,22.7,5.3,23.2,18.7c0.6,13.4-6.7,20.5-21.6,21.1l-19.2,0.9L791.8,643.3z M1036.4,648.1L908.7,769.8l44.4,23.4l19.8-21.7
		l46.9,24.7l-5.3,29.3l44.2,23.3l20.8-178L1036.4,648.1z M1037.6,700.6l-10.7,57.2L998.9,743L1037.6,700.6z M1261.9,835.7
		l-67.4,62.2l31.3-104.4l-30.3-35.5l-120.9,111.6l29.9,35l66.7-61.6l-31,103.5l30.6,35.9l120.9-111.6L1261.9,835.7z M1326.6,926.4
		l-34.7,19.5l21.9,42l-107.4,60.5l22.1,42.4l107.4-60.5l22,42.2l34.7-19.5L1326.6,926.4z M1438.7,1171.6
		c-15.3-46-55.7-65.4-104.4-47.9c-48.9,17.6-69.1,58.3-53.7,104.7c15.3,46.2,55.8,65.6,104.4,48.1
		C1433.7,1259,1454.1,1218,1438.7,1171.6L1438.7,1171.6z M1400.8,1185.2c6,18.2-3.2,35.8-30.9,45.7c-27.9,10-45.3,2.3-51.4-16.2
		c-5.9-17.8,3-35.5,30.9-45.5C1377.2,1159.3,1394.7,1167,1400.8,1185.2z"/>
	<path class="st4" d="M168.5,465l81.7,77.6l23-22.7l-81.7-77.6L168.5,465z M238.5,448.9l50.2,55.7l22.3-18.9l-25.8-28.6
		c-4.6-5.1-4.4-11.6,0.3-15.6c4.7-4,9.6-3.5,14.3,1.7l26.6,29.5l22.4-19l-29.6-32.9c-13.9-15.5-29.5-17.2-44-5
		c-7.6,6.4-11,15.7-8,24.8l-8.2-9.1L238.5,448.9z M312.3,388l13.8,18.4l9.9-7l13.3,17.7c12,16,26.7,19.2,44.8,6.4
		c3.8-2.7,7.7-6.1,10.4-9.2l-15.1-18.6c-1.7,1.4-3.5,2.8-5.4,4.2c-4.9,3.5-9,2.9-12.9-2.4l-11.2-14.9l12.8-9.1l-13.8-18.4l-12.8,9.1
		l-11.9-15.8l-21.8,15.4l4.8,6.5c4.7,6.2,3.9,11.5-2.3,15.9L312.3,388L312.3,388z M463.9,344.1l-4.1-6.7
		c-11.9-19.3-31.9-25.5-53-13.3c-20.7,12-25.6,33.1-13.6,52.6c12.8,20.8,33.2,25.6,54,13.5c16.9-9.8,24.7-23.1,20.2-39.4l-25.8,12
		c0.5,3.1-0.9,6.4-5.1,8.8c-5.2,3-10.8,1.8-14.2-3.5L463.9,344.1z M414.5,354.9c-2.3-4.7-1.3-9.6,3.7-12.5c4.8-2.8,9.6-1.2,12.4,3.1
		L414.5,354.9z M461.6,296.1l32.7,66.8l26.9-12.4l-15.8-32.3c-3.5-7.1-1.1-14.4,6-17.7l7.9-3.6l-11.5-23.5l-3.5,1.6
		c-8.5,3.9-13.5,11.4-13.2,21l-5.4-11L461.6,296.1z M528.4,265.9l25.2,69.8l27.9-9.5l-13-35.9c-2.3-6.4,0.4-12.4,6.3-14.4
		c5.9-2,10.3,0.3,12.6,6.7l13.4,37l28.1-9.5l-14.9-41.2c-7-19.4-20.8-26.6-38.9-20.5c-9.5,3.2-16.2,10.7-16.9,20.2l-4.1-11.4
		L528.4,265.9z M661.3,253.2c0.3-3.7,2.8-6.5,7.4-7.4c5.2-1.1,8.1,0.4,8.7,3.3c0.7,2.9-2.6,4.9-11.2,7.3
		c-23.6,6.3-30.9,16.7-28,30.2c3,13.4,14.9,19.1,31.1,15.8c13-2.7,19.9-8.1,23-15.8c4.4,6.6,11.6,8.5,20.7,6.6
		c3.8-0.8,7.6-2.1,11.2-3.7l-5.3-20.8l-3.7,0.8c-3.3,0.7-5.6-0.8-6.5-4.6l-3.9-17.5c-4.2-19.1-17.9-27.3-40.4-22.6
		c-19.7,4.1-31.3,16.4-29.4,33.6L661.3,253.2L661.3,253.2z M681.8,270.3c1.1,5.1-2,9.3-8.4,10.7c-4.9,1-7.9-0.3-8.6-3.5
		c-0.6-2.9,1.3-5.6,7.2-7.1c4.3-1.2,7.2-2.6,8.9-4.1L681.8,270.3L681.8,270.3z M801.7,239.7c-3.1-18.7-17.5-31.3-40-29.3
		c-23.7,2.1-37.3,19.2-35.2,41.7c2.2,23.6,17.6,37,42.2,34.9c22.9-2,35-15.7,34.3-35.7l-28,2.5c0,5-3.1,8.1-8.2,8.6
		c-5.9,0.5-10.5-3.7-11.3-12.8c-0.8-8.5,2.2-13.9,8.9-14.4c5.3-0.5,8.5,2.5,9.4,7L801.7,239.7z M820.5,208.7l-0.2,73.9l29.6,0.1
		l0.2-73.9L820.5,208.7L820.5,208.7z M835.3,168.2c-10.1,0-16.9,6.2-17,15.1c0,8.9,6.8,15.1,16.9,15.1c10.2,0,16.9-6.2,17-15.1
		C852.3,174.5,845.6,168.3,835.3,168.2z M899.4,237.1c1.4-3.4,4.7-5.3,9.4-4.9c5.3,0.5,7.5,2.8,7.2,5.7c-0.3,2.9-4.1,3.9-13,3.7
		c-24.4-1-34.7,6.8-36.1,20.5c-1.4,13.7,8.1,22.6,24.7,24.2c13.2,1.3,21.5-1.8,26.9-8.3c2.1,7.6,8.3,11.5,17.6,12.4
		c4.1,0.4,8.3,0.2,11.8-0.2l1.6-21.4l-3.8-0.4c-3.4-0.3-5.1-2.4-4.7-6.3l1.8-17.8c2-19.4-8.5-31.3-31.4-33.5
		c-20-1.9-35,6.3-38.6,23.3L899.4,237.1z M913.5,259.4c-0.5,5.1-4.8,8.3-11.4,7.7c-5-0.5-7.4-2.6-7.1-5.9c0.3-2.9,3-4.9,9.1-4.6
		c4.4,0.1,7.7-0.3,9.8-1.3L913.5,259.4z M1036.7,195L1004,301.3l82,23.7l8.1-26.4l-50.6-14.6l24.6-79.9L1036.7,195z M1129.2,263.1
		l-29,68.4l27.4,10.9l29-68.4L1129.2,263.1z M1158.8,231.1c-9.3-3.7-18.1-0.5-21.6,7.7c-3.5,8.2,0.4,16.5,9.7,20.2
		c9.5,3.8,18.1,0.5,21.6-7.7C1172,243.1,1168.2,234.9,1158.8,231.1z M1180.1,283.6l-35.2,65.6l26.3,13.3l18.1-33.7
		c3.2-6,9.5-8.2,15.1-5.4c5.6,2.8,6.8,7.4,3.6,13.5l-18.7,34.8l26.4,13.3l20.8-38.7c9.8-18.2,5.8-32.9-11.2-41.5
		c-8.9-4.5-19.1-4.1-26.8,1.8l5.8-10.8L1180.1,283.6z M1340,374.5l-38.3-25.1c-19.2-12.6-36-8.4-45.1,4.7c-5,7.1-6.3,15.1-3.7,22.9
		c-4.7,0.1-9,2.5-11.6,6.3c-2.3,3.3-3.6,6.9-2.9,10.8c-9.1-1.2-17.6,2.2-22.5,9.3c-9.4,13.5-4.9,28.9,16.5,42.9
		c24.8,16.2,45.1,12.7,54.3-0.5c8.9-12.7,5-26.4-10.7-36.6l-10.4-6.8c-2.9-1.9-3.7-3.9-2-6.3c0.6-0.9,1.5-1.7,2.6-2.1
		c1.1,0.9,2.3,1.7,3.6,2.5c18.5,12.1,36.4,9,44-1.9c2-2.9,3.5-6.3,3.4-8.8l10.2,6.7L1340,374.5L1340,374.5z M1261,423.5
		c3.3,2.2,4.1,5,2.4,7.4c-2.7,3.9-8.2,3.9-17.1-1.9c-6.7-4.4-8.4-8.5-6-12c2-2.9,5.4-3.6,9-1.3L1261,423.5L1261,423.5z
		 M1290.2,367.1c4.3,2.8,4.4,6.8,2,10.4c-2.7,3.9-6.8,4.7-10.7,2.1c-4-2.6-4.6-6.6-2-10.4C1282.1,365.5,1286.2,364.5,1290.2,367.1
		L1290.2,367.1z M1352.9,385.9l-27.4,74.5l23.5,19.1l70.7-39.2l-23.9-19.4l-39.5,28.1l21.2-43L1352.9,385.9z M1457.8,475
		c-16.4-16.1-38.7-17.2-56.2-0.4c-17.9,17.2-16.6,38.4-0.2,54.5c16.3,16,38.5,17.3,56.2,0.3C1475.6,512.4,1474.3,491.1,1457.8,475z
		 M1439.7,492.4c4.8,4.7,3.9,10.8-2.6,17c-6.6,6.3-12.7,7.2-17.6,2.3c-5-4.8-3.9-10.8,2.6-17
		C1428.7,488.4,1434.8,487.6,1439.7,492.4z"/>
</g>
</svg>
