<svg xmlns="http://www.w3.org/2000/svg" width="2500" height="2500" viewBox="0 0 192.756 192.756"><path fill-rule="evenodd" clip-rule="evenodd" fill="#fff" d="M0 0h192.756v192.756H0V0z"/><path d="M30.085 82.55c0-36.628 29.731-66.292 66.292-66.292 36.628 0 66.292 29.664 66.292 66.292 0 36.629-29.664 66.293-66.292 66.293-36.561.001-66.292-29.663-66.292-66.293z" fill-rule="evenodd" clip-rule="evenodd" fill="#60bdf0"/><path d="M31.052 93.867h130.653c-.15.877-.318 1.748-.504 2.612H31.557a66.165 66.165 0 0 1-.505-2.612zM34.662 106.791h123.44c-.346.881-.713 1.75-1.094 2.611H35.758c-.383-.861-.75-1.73-1.096-2.611zM40.177 117.705h112.417a66.48 66.48 0 0 1-1.723 2.611H41.903a65.434 65.434 0 0 1-1.726-2.611zM46.983 126.746h98.812a68.208 68.208 0 0 1-2.461 2.611H49.447a67.505 67.505 0 0 1-2.464-2.611zM55.654 134.848h81.475a66.143 66.143 0 0 1-3.682 2.68h-74.11a67.447 67.447 0 0 1-3.683-2.68zM68.174 142.549h56.435a66.015 66.015 0 0 1-6.584 2.678h-43.27a65.963 65.963 0 0 1-6.581-2.678zM81.646 83.622h8.839l14.062-26.852h-8.906l-8.035 17.879-1.54-17.879H77.16l4.486 26.852z" fill-rule="evenodd" clip-rule="evenodd" fill="#fff"/><path fill="none" stroke="#fff" stroke-width=".66" stroke-miterlimit="2.613" d="M81.646 83.622h8.839l14.062-26.852h-8.906l-8.035 17.879-1.54-17.879H77.16l4.486 26.852"/><path d="M114.324 74.515h-5.559l4.42-9.642 1.139 9.642zm-9.844 9.107l1.607-3.549h8.771l.402 3.549h8.771l-4.889-26.852h-8.973l-14.33 26.852h8.641z" fill-rule="evenodd" clip-rule="evenodd" fill="#fff"/><path d="M114.324 74.515h-5.559l4.42-9.642 1.139 9.642m-9.844 9.107l1.607-3.549h8.771l.402 3.549h8.771l-4.889-26.852h-8.973l-14.33 26.852h8.641" fill="none" stroke="#fff" stroke-width=".66" stroke-miterlimit="2.613"/><path d="M153.229 67.015c.469-6.897-3.414-10.915-11.584-10.915-7.5 0-14.33 5.357-15.869 14.062-1.541 8.705 2.879 14.196 11.717 14.196 7.1 0 12.791-4.218 14.799-11.116h-8.438c-.803 2.544-2.477 4.554-5.355 4.554-4.42 0-4.621-3.55-3.951-7.299.871-5.223 3.215-7.834 6.295-7.834 2.744 0 4.219 1.607 4.018 4.353h8.368v-.001z" fill-rule="evenodd" clip-rule="evenodd" fill="#fff"/><path d="M153.229 67.015c.469-6.897-3.414-10.915-11.584-10.915-7.5 0-14.33 5.357-15.869 14.062-1.541 8.705 2.879 14.196 11.717 14.196 7.1 0 12.791-4.218 14.799-11.116h-8.438c-.803 2.544-2.477 4.554-5.355 4.554-4.42 0-4.621-3.55-3.951-7.299.871-5.223 3.215-7.834 6.295-7.834 2.744 0 4.219 1.607 4.018 4.353h8.368" fill="none" stroke="#fff" stroke-width=".66" stroke-miterlimit="2.613"/><path fill-rule="evenodd" clip-rule="evenodd" fill="#fff" d="M72.673 83.957l1.473-9.643H56l.938-4.286h14.798l1.473-8.303H58.411l.87-5.29h17.544l1.473-8.169H49.036l-6.295 35.691h29.932z"/><path fill="none" stroke="#fff" stroke-width=".354" stroke-miterlimit="2.613" d="M72.673 83.957l1.473-9.643H56l.938-4.286h14.798l1.473-8.303H58.411l.87-5.29h17.544l1.473-8.169H49.036l-6.295 35.691h29.932"/><path fill-rule="evenodd" clip-rule="evenodd" fill="#60bdf0" d="M31.826 172.682h2.88l6.629-11.92h-2.544l-4.956 9.308h-.067l-1.071-9.308h-2.411l1.54 11.92zM44.884 172.682h1.941c.201-1.607 1.072-5.09 1.072-6.295 0-2.008-1.607-2.678-3.416-2.678-1.004 0-2.009.201-2.946.535l-.334 1.809c.871-.402 1.875-.67 2.879-.67.804 0 1.741.268 1.741 1.139 0 .268 0 .535-.067.736h-.803c-2.143 0-5.357.268-5.357 3.146 0 1.607 1.071 2.479 2.678 2.479 1.272 0 2.076-.535 2.812-1.541h.067l-.267 1.34zm-3.147-2.344c0-1.539 1.875-1.674 2.946-1.674h.804c-.335 1.406-.871 2.545-2.545 2.545-.603 0-1.205-.268-1.205-.871zM56.871 164.043c-.603-.201-1.406-.334-2.277-.334-3.147 0-5.223 2.344-5.223 5.424 0 2.277 1.473 3.75 3.75 3.75.736 0 1.54-.066 2.21-.402l.268-1.809c-.603.27-1.272.471-1.875.471-1.541 0-1.942-1.139-1.942-2.277 0-1.674 1.004-3.416 2.879-3.416.603 0 1.205.201 1.674.469l.536-1.876zM66.513 163.91h-2.277l-.938 4.42c-.268 1.338-.87 2.812-2.478 2.812-.736 0-1.205-.537-1.205-1.273 0-.604.134-1.205.201-1.809l.871-4.15h-2.276l-.938 4.285c-.134.535-.268 1.205-.268 1.875 0 1.74 1.139 2.812 2.879 2.812.938 0 1.808-.469 2.478-1.072l-.134.871h2.21c.066-.268.134-.736.268-1.271l1.607-7.5zM76.959 163.91h-2.277l-.938 4.42c-.334 1.338-.87 2.812-2.478 2.812-.736 0-1.272-.537-1.272-1.273 0-.604.134-1.205.268-1.809l.871-4.15h-2.277l-.938 4.285c-.134.535-.268 1.205-.268 1.875 0 1.74 1.139 2.812 2.812 2.812 1.005 0 1.875-.469 2.545-1.072l-.134.871h2.209c.067-.268.134-.736.201-1.271l1.676-7.5zM77.495 172.682h2.276l.938-4.152c.269-1.205.67-3.08 2.21-3.08.603 0 1.071.469 1.071 1.072 0 .535-.134 1.34-.268 1.875l-.938 4.285h2.344l.87-4.152c.269-1.205.67-3.08 2.277-3.08.603 0 1.072.469 1.072 1.072 0 .535-.201 1.34-.268 1.875l-.938 4.285h2.277l.938-4.152c.201-.736.401-1.605.401-2.41 0-1.34-1.138-2.41-2.478-2.41-1.205 0-2.478.535-3.08 1.674-.134-1.07-1.205-1.674-2.277-1.674-1.071 0-2.076.469-2.678 1.406h-.067l.201-1.205h-2.076c-.067.268-.134.602-.201 1.004l-1.606 7.767zM106.49 161.098c-1.006-.402-2.076-.535-3.082-.535-2.275 0-4.486 1.137-4.486 3.615 0 3.146 4.086 2.812 4.086 4.955 0 1.34-1.139 1.875-2.277 1.875-1.004 0-2.008-.402-2.879-.803l-.67 2.008c1.07.402 2.277.67 3.416.67 2.611 0 4.887-1.072 4.887-3.951 0-3.348-4.018-3.213-4.018-5.09 0-1.07 1.139-1.406 1.941-1.406.871 0 1.809.27 2.479.67l.603-2.008zM107.627 163.91l1.607 9.24c-.803 1.205-1.338 1.541-2.008 1.541-.469 0-.736-.068-1.006-.201l-.535 1.74c.535.201 1.139.268 1.742.268 1.875 0 2.744-1.271 3.48-2.477l5.961-10.111h-2.545l-3.482 6.562-.871-6.562h-2.343zM123.564 164.043c-.803-.201-1.674-.334-2.477-.334-1.809 0-3.818.736-3.818 2.812 0 2.209 2.947 2.344 2.947 3.75 0 .67-.803.938-1.541.938-.938 0-1.539-.336-2.209-.67l-.469 1.809c.803.4 1.74.535 2.678.535 1.943 0 3.951-.67 3.951-2.947 0-2.143-2.945-2.543-2.945-3.682 0-.67.803-.871 1.473-.871s1.34.201 1.875.402l.535-1.742zM124.502 165.584h1.674l-.668 2.945c-.135.736-.27 1.406-.27 2.076 0 1.674 1.072 2.277 2.611 2.277.402 0 .871-.066 1.205-.201l.402-1.74c-.268.133-.67.201-1.07.201-.537 0-.871-.336-.871-.871 0-.336.066-.67.066-.871l.871-3.816h2.008l.402-1.674h-2.076l.604-2.611-2.479.803-.4 1.809h-1.674l-.335 1.673zM139.168 168.998a9.136 9.136 0 0 0 .199-1.941c0-2.209-1.406-3.348-3.615-3.348-2.879 0-4.955 2.611-4.955 5.357 0 2.611 1.674 3.816 4.219 3.816.938 0 1.875-.201 2.812-.469l.268-1.809a6.25 6.25 0 0 1-2.678.604c-1.607 0-2.479-.604-2.479-2.211h6.229v.001zm-5.893-1.539c.4-1.205 1.07-2.076 2.477-2.076.938 0 1.406.535 1.406 1.473v.604h-3.883v-.001zM140.104 172.682h2.277l.871-4.152c.334-1.205.736-3.08 2.275-3.08.604 0 1.072.469 1.072 1.072 0 .535-.133 1.34-.268 1.875l-.938 4.285h2.277l.938-4.152c.268-1.205.668-3.08 2.275-3.08.537 0 1.072.469 1.072 1.072 0 .535-.201 1.34-.336 1.875l-.869 4.285h2.275l.871-4.152c.201-.736.402-1.605.402-2.41 0-1.34-1.139-2.41-2.41-2.41-1.207 0-2.545.535-3.08 1.674h-.068c-.133-1.07-1.205-1.674-2.209-1.674-1.072 0-2.076.469-2.68 1.406h-.066l.201-1.205h-2.143c0 .268-.066.602-.201 1.004l-1.538 7.767zM162.402 164.043c-.803-.201-1.605-.334-2.477-.334-1.809 0-3.818.736-3.818 2.812 0 2.209 3.014 2.344 3.014 3.75 0 .67-.803.938-1.607.938-.869 0-1.539-.336-2.143-.67l-.535 1.809c.871.4 1.742.535 2.678.535 2.01 0 3.951-.67 3.951-2.947 0-2.143-2.945-2.543-2.945-3.682 0-.67.871-.871 1.539-.871.67 0 1.273.201 1.875.402l.468-1.742z"/></svg>