<svg xmlns="http://www.w3.org/2000/svg" width="2500" height="2500" viewBox="0 0 192.756 192.756"><path fill-rule="evenodd" clip-rule="evenodd" d="M0 0h192.756v192.756H0V0z"/><path fill-rule="evenodd" clip-rule="evenodd" fill="#aacc6c" d="M30.184 135.512v-2.69h-7.961v2.69h2.359v13.851h3.243v-13.851h2.359zM35 138.203l-.688.697v-6.078h-2.85v16.541h3.047v-7.076c0-.797.295-1.395.786-1.395.393 0 .786.598.786 1.395v7.076h2.948v-6.479c0-3.188-1.474-4.682-3.734-4.682l-.295.001zM47.088 141.689c0-2.49-1.769-3.486-3.145-3.486-1.573 0-3.637.996-3.637 5.68 0 4.682 2.359 5.58 4.031 5.58.491 0 .884 0 1.178-.1v-2.393c-.294.1-.589.1-.982.1-.589 0-1.081-.598-1.179-1.195.884 0 3.734-1.195 3.734-4.186zm-3.833.997c0-1.195.196-2.092.688-2.092.295 0 .492.299.492.896 0 1.195-.885 1.994-1.18 1.994v-.798zM58.98 149.363h1.475v-16.541h-3.047v8.071l-4.127-8.071h-1.475v16.541h3.047v-8.072l4.127 8.072zM68.809 141.689c0-2.49-1.769-3.486-3.145-3.486-1.572 0-3.636.996-3.636 5.68 0 4.682 2.261 5.58 4.03 5.58.491 0 .884 0 1.179-.1v-2.393c-.294.1-.59.1-.982.1-.59 0-1.082-.598-1.179-1.195.883 0 3.733-1.195 3.733-4.186zm-3.833.997c0-1.195.196-2.092.688-2.092.295 0 .492.299.492.896 0 1.195-.885 1.994-1.18 1.994v-.798zM73.134 140.992h1.671v-2.689h-1.77v-2.891h-2.85v2.891h-.884v2.689h.884v3.389c0 4.385 2.85 4.982 4.03 4.982h.786v-2.492c-.196 0-.294.1-.491.1-.688 0-1.376-.697-1.376-2.191v-3.788zM76.181 132.822v16.541h2.555c2.752 0 5.603-1.098 5.603-5.48 0-2.094-.983-3.488-1.573-3.986.393-.398 1.081-1.195 1.081-2.889 0-2.592-2.163-4.186-5.111-4.186h-2.555zm3.145 5.68v-2.99c.885 0 1.376.598 1.376 1.496 0 .896-.492 1.494-1.376 1.494zm0 2.789c.196 0 .59-.1.786-.1.295.199.983 1.295.983 2.691 0 1.893-.688 2.789-1.769 2.789v-5.38zM90.432 135.512l1.082-2.291c-.492-.299-1.278-.498-2.064-.498-2.556 0-4.128 1.594-4.128 4.186 0 1.594.59 2.789 1.966 4.582 1.18 1.496 1.868 2.492 1.868 3.887 0 .797-.59 1.395-1.376 1.395-.589 0-1.179-.199-1.474-.398l-1.18 2.49c.688.4 1.573.6 2.654.6 2.556 0 4.521-1.596 4.521-4.584 0-1.793-.59-3.09-2.064-4.883-1.179-1.594-1.867-2.492-1.867-3.488 0-.697.394-1.096 1.082-1.096.39-.002.685-.002.98.098zM93.675 132.822v16.541h2.26c3.245 0 5.897-1.297 5.897-8.271 0-6.875-2.652-8.27-5.897-8.27h-2.26zm3.243 2.69c.984 0 1.769 1.396 1.769 5.58 0 4.285-.785 5.58-1.769 5.58v-11.16zM113.529 135.412c.393 0 .59 0 .885.1v-2.59s-.59-.199-1.279-.199c-2.062 0-5.209.697-5.209 8.369 0 7.674 3.146 8.371 5.209 8.371.689 0 1.279-.1 1.279-.1v-2.592h-.885c-.885 0-2.359-.398-2.359-5.68s1.475-5.679 2.359-5.679zM119.229 149.463c1.279 0 3.834-.697 3.834-5.58 0-4.982-2.555-5.68-3.834-5.68-1.277 0-3.832.697-3.832 5.68-.001 4.883 2.554 5.58 3.832 5.58zm-.883-5.58c0-2.193.393-2.99.883-2.99.492 0 .885.797.885 2.99 0 2.092-.393 2.889-.885 2.889-.491-.001-.883-.797-.883-2.889zM128.861 149.363h2.949v-7.076c0-.797.393-1.395.883-1.395.395 0 .787.598.787 1.395v7.076h2.949v-6.479c0-3.188-1.475-4.682-3.736-4.682-.883 0-1.67.199-2.357.797-.59-.498-1.475-.797-2.262-.797h-.295l-.687.798v-.697h-2.752v11.061h2.949v-7.076c0-.797.295-1.395.785-1.395.492 0 .787.598.787 1.395v7.075zM137.904 153.049h2.947v-3.686c1.277-.1 4.521-1.396 4.521-6.078 0-3.588-1.77-5.082-3.734-5.082h-.295l-.689.797v-.697h-2.75v14.746zm2.948-11.758c0-.299.295-.498.59-.498.492 0 .982.896.982 2.193 0 2.59-.883 3.586-1.572 3.686v-5.381zM150.092 141.49c-.984.1-3.834 1.096-3.834 4.385 0 2.191 1.473 3.588 2.85 3.588h.393l.787-.898v.799h2.752v-7.076c0-3.287-1.67-4.084-3.637-4.084-1.082 0-1.867.299-1.867.299v2.391c.59-.199.982-.199 1.672-.199.588 0 .885.299.885.697v.098h-.001zm0 4.983c0 .199-.197.498-.492.498s-.59-.398-.59-1.096c0-1.295.785-1.893 1.082-1.893v2.491zM158.051 138.203l-.785.797v-.697h-2.752v11.061h3.047v-7.076c0-.797.295-1.395.785-1.395.395 0 .787.598.787 1.395v7.076h2.949v-6.479c0-3.188-1.475-4.682-3.736-4.682h-.295zM165.324 149.662l-.687 3.387h2.849l3.047-14.746h-2.554l-1.18 7.273-1.278-7.273h-2.554l2.357 11.359z"/><path d="M29.299 93.662C2.074 29.69 155.104 78.417 155.104 78.417" fill="none" stroke="#dae8be" stroke-width="3.384" stroke-linecap="round" stroke-miterlimit="2.613"/><path d="M45.123 93.662C13.376 10.758 155.104 78.417 155.104 78.417" fill="none" stroke="#cde0a9" stroke-width="3.147" stroke-linecap="round" stroke-miterlimit="2.613"/><path d="M44.926 93.662c45.505-111.8 110.667-15.245 110.667-15.245" fill="none" stroke="#bed78e" stroke-width="3.147" stroke-linecap="round" stroke-miterlimit="2.613"/><path d="M60.848 93.761c32.041-73.936 94.255-15.345 94.255-15.345" fill="none" stroke="#aacc6c" stroke-width="3.384" stroke-linecap="round" stroke-miterlimit="2.613"/><path fill-rule="evenodd" clip-rule="evenodd" fill="#fff" stroke="#fff" stroke-width="1.18" stroke-miterlimit="2.613" d="M53.083 115.186h-1.081L45.123 96.85l-6.88 18.336h-1.081l-9.535-23.019h2.262l7.666 18.435 6.978-18.435h1.278l6.781 18.435 7.764-18.435h2.36l-9.633 23.019z"/><path d="M78.441 103.227v5.281c-.982 1.396-1.966 2.393-3.046 2.99-1.082.697-2.163.996-3.342.996-1.081 0-1.965-.299-2.653-.996-.688-.697-.983-1.693-.983-2.889 0-1.695.59-2.99 1.769-3.787 1.18-.896 3.932-1.795 8.256-2.691v1.096h-.001zm-11.008-4.485c.295-1.094.787-2.191 1.18-3.287.589-.399 1.18-.698 1.867-.797a7.396 7.396 0 0 1 2.064-.298c2.064 0 3.539.598 4.62 1.793.786.996 1.277 2.492 1.277 4.484-5.111.996-8.354 1.693-9.729 2.293-1.376.596-2.458 1.494-3.244 2.689s-1.081 2.59-1.081 4.186c0 1.693.491 3.088 1.573 4.086 1.081.996 2.555 1.492 4.619 1.492.688 0 1.278-.098 1.769-.197.393-.102.787-.4 1.278-.699l4.816-3.785v4.186c1.475-.102 2.654-.102 3.538-.102.688 0 1.966 0 3.735.102v-1.596h-1.868c-.589 0-.983-.199-1.081-.598-.197-.498-.295-2.889-.295-7.074-.098-4.584-.196-7.373-.393-8.471-.295-1.593-1.081-2.789-2.358-3.786-1.376-.997-3.047-1.495-5.209-1.495-.983 0-1.966.1-2.851.398-.884.199-1.867.698-3.046 1.395l-2.555 1.495.098 1.594-.098 1.596 1.374.396zM89.35 107.611v1.594c0 1.197.099 1.994.394 2.293.394.498 1.18.996 2.359 1.494s2.358.697 3.636.697c1.671 0 2.948-.398 4.03-1.295.982-.896 1.475-1.992 1.475-3.189 0-.996-.295-1.693-.885-2.291s-1.77-1.096-3.441-1.494c-3.046-.598-5.111-1.096-6.094-1.594-1.081-.5-1.769-1.098-2.26-1.895-.492-.797-.787-1.793-.787-2.889 0-2.193.787-3.887 2.261-5.182 1.573-1.296 3.637-1.993 6.487-1.993 2.162 0 4.324.398 6.486 1.295-.098 1.096-.195 2.889-.295 5.481h-1.375c-.098-1.396-.197-2.293-.492-2.791-.393-.598-.982-1.097-1.965-1.594-.982-.499-1.966-.698-3.047-.698-1.376 0-2.556.398-3.342 1.096-.884.698-1.277 1.694-1.277 2.79 0 1.098.295 1.895.982 2.393.688.598 2.556 1.195 5.602 1.793 2.162.498 3.734.896 4.424 1.297.688.396 1.277.996 1.768 1.793.395.797.592 1.693.592 2.789 0 2.094-.885 3.986-2.654 5.58-1.867 1.494-4.227 2.291-7.274 2.291-1.966 0-4.127-.299-6.486-.896-.394-.1-.59-.299-.59-.498v-.299c.099-.299.099-.697.196-1.295.099-1.594.197-2.789.197-3.586v-1.197h1.375zM120.016 103.227v5.281c-.982 1.396-1.967 2.393-3.047 2.99-1.08.697-2.162.996-3.342.996-1.082 0-1.965-.299-2.654-.996-.688-.697-.982-1.693-.982-2.889 0-1.695.59-2.99 1.77-3.787 1.18-.896 3.932-1.795 8.256-2.691v1.096h-.001zm-11.008-4.485c.295-1.094.785-2.191 1.18-3.287.59-.399 1.18-.698 1.867-.797a7.402 7.402 0 0 1 2.064-.298c1.965 0 3.537.598 4.619 1.793.785.996 1.277 2.492 1.277 4.484-5.111.996-8.354 1.693-9.73 2.293-1.375.596-2.457 1.494-3.242 2.689-.787 1.195-1.18 2.59-1.18 4.186 0 1.693.59 3.088 1.67 4.086.982.996 2.555 1.492 4.619 1.492.688 0 1.279-.098 1.77-.197.393-.102.787-.4 1.277-.699l4.816-3.785v4.186c1.475-.102 2.654-.102 3.539-.102.688 0 1.965 0 3.734.102v-1.596h-1.867c-.59 0-.984-.199-1.18-.598-.1-.498-.197-2.889-.197-7.074-.098-4.584-.195-7.373-.393-8.471-.295-1.593-1.082-2.789-2.359-3.786-1.375-.997-3.145-1.495-5.209-1.495-1.082 0-1.965.1-2.85.398-.885.199-1.867.698-3.047 1.395l-2.555 1.495V98.346l1.377.396zM133.775 101.732c0-1.494.098-2.49.295-2.889.393-1.096 1.18-1.994 2.359-2.791 1.08-.797 2.359-1.195 3.734-1.195 2.064 0 3.637.698 4.914 2.191 1.18 1.496 1.77 3.588 1.77 6.277 0 2.691-.59 4.982-1.867 6.777-1.277 1.893-3.047 2.789-5.309 2.789-1.277 0-2.555-.299-3.637-.996-1.08-.697-1.77-1.295-2.062-1.793-.1-.299-.197-1.295-.197-2.99v-5.38zm-5.896-19.43c.688 0 1.18.1 1.375.299.197.299.295.896.395 2.093.098 2.392.195 4.783.195 7.174v15.146c0 2.691-.195 5.281-.393 7.674l.785.297 1.869-1.693c.982.697 1.965 1.295 2.85 1.596.982.299 2.064.496 3.242.496 1.277 0 2.359-.197 3.344-.695.49-.201 1.57-.998 3.34-2.193 1.672-1.295 2.752-2.191 3.146-2.59.785-.898 1.473-2.193 2.064-3.688.588-1.494.883-3.09.883-4.684 0-2.889-.883-5.281-2.457-6.975-1.67-1.793-3.734-2.69-6.289-2.69a8.4 8.4 0 0 0-3.145.598c-.984.299-1.77.797-2.361 1.396l-2.947 2.988V91.77c0-3.587.098-6.377.098-8.37 0-.498.1-1.196.197-2.093l.098-1.196c0-.598-.195-.896-.49-.896-.1 0-.295.1-.492.1-1.08.498-2.162.797-3.145.996-1.475.299-2.852.498-4.227.698v1.295h2.065v-.002zM158.248 81.207c.688 0 1.277.298 1.77.797.59.598.787 1.195.787 1.893 0 .797-.197 1.395-.787 1.893-.492.598-1.082.797-1.77.797-.787 0-1.375-.199-1.965-.797-.492-.498-.787-1.096-.787-1.893 0-.698.295-1.295.787-1.893.59-.499 1.178-.797 1.965-.797zm1.77 10.562l.59.398c-.098 1.196-.197 2.491-.197 3.886-.098 4.684-.195 8.072-.195 10.264 0 2.092.098 3.787.295 5.281 0 .598.195.996.393 1.195.195.199.785.398 1.67.498l1.572.199v1.396c-2.26-.102-4.324-.102-6.191-.102s-3.734 0-5.602.102v-1.396l2.064-.199c.688-.1 1.178-.199 1.375-.398.197-.299.295-.996.393-2.391.1-1.994.1-4.783.1-8.271 0-2.49 0-4.383-.1-5.778-.098-.499-.195-.797-.393-.997-.295-.199-.885-.299-1.67-.299h-1.77v-1.395a71.552 71.552 0 0 0 4.227-.797c.882-.2 2.062-.599 3.439-1.196z" fill-rule="evenodd" clip-rule="evenodd" fill="#fff"/><path d="M157.855 81.406c.688 0 1.375.299 1.867.797s.787 1.196.787 1.894c0 .797-.295 1.395-.787 1.893-.492.498-1.18.797-1.867.797s-1.377-.3-1.867-.797c-.492-.498-.787-1.096-.787-1.893 0-.698.295-1.396.787-1.894a2.668 2.668 0 0 1 1.867-.797z" fill-rule="evenodd" clip-rule="evenodd" fill="#aacc6c" stroke="#aacc6c" stroke-width="1.573" stroke-miterlimit="2.613"/></svg>