<svg clip-rule="evenodd" fill-rule="evenodd" height="2500" image-rendering="optimizeQuality" shape-rendering="geometricPrecision" text-rendering="geometricPrecision" width="2500" xmlns="http://www.w3.org/2000/svg" viewBox="0 0 1500 1500"><path d="M0 0h1500v1500H0z" fill="#f9bcbf"/><path d="M662 680h26l22-64 23 64h26l37-112h-31l-20 64-21-64h-26l-22 64-19-64h-32zm-468-8v261h100zm235-48l34 89 57-146h-45zm-64 21l96 254 121-317v-15h-25l-94 236-59-149-16 19zm20 242l-17 46-147-366h-27v12l123 322 13 32h252V673l-99 260h-44L299 567h-38zm303 46c21 0 37-8 49-18v-49h-51v22h21v14c-4 3-10 4-17 4-18 0-30-13-30-31 0-17 12-30 28-30 11 0 19 4 27 10l18-21c-12-11-26-17-45-17-34 0-60 26-60 58 0 34 26 58 60 58zm61-3h31v-33h14l22 33h35l-26-38c14-6 23-17 23-34v-1c0-10-4-19-10-25-8-8-19-12-36-12h-53zm31-57v-27h20c11 0 17 5 17 13v1c0 8-6 13-17 13zm135 60c34 0 59-26 59-58s-25-58-59-58-60 26-60 58 26 58 60 58zm0-28c-17 0-28-14-28-30s11-30 28-30 28 14 28 30-11 30-28 30zm121 27c32 0 52-15 52-51v-61h-31v62c0 15-8 23-21 23-12 0-20-8-20-24v-61h-31v62c0 34 20 50 51 50zm66-2h31v-31h15c27 0 47-14 47-40 0-25-18-39-46-39h-47zm31-55v-30h14c11 0 18 6 18 15s-7 15-18 15zm-501-70h30v-64l28 43h1l28-43v64h31V694h-33l-26 43-27-43h-32zm183 2c31 0 52-16 52-52v-61h-31v62c0 16-8 23-21 23-12 0-20-8-20-23v-62h-31v62c0 35 19 51 51 51zm109 0c27 0 45-14 45-36v-1c0-20-16-29-41-34-16-4-19-6-19-11 0-4 3-7 11-7 10 0 21 3 31 10l15-21c-12-10-27-15-45-15-27 0-43 15-43 36 0 23 18 29 41 35 15 3 19 6 19 10v1c0 4-4 7-13 7-12 0-25-4-35-13l-18 20c14 12 33 19 52 19zm56-2h31V694h-31zm101 2c24 0 38-11 49-25l-23-17c-7 9-14 14-25 14-16 0-27-13-27-30 0-16 11-29 27-29 10 0 17 5 24 13l23-18c-10-14-24-23-47-23-34 0-58 25-58 57v1c0 33 25 57 57 57zM805 679h89v-26h-59v-18h53v-24h-53v-17h59v-26h-89zm92 0h32l8-20h43l8 20h33l-47-111h-30zm49-44l13-31 12 31zm81 44h85v-27h-54v-84h-31zm105 0h31v-84h33v-27h-97v27h33zm73 0h31v-42h39v42h31V568h-31v42h-39v-42h-31z" fill="#84716b"/></svg>