<svg xmlns="http://www.w3.org/2000/svg" width="2500" height="2500" viewBox="0 0 192.756 192.756"><g fill-rule="evenodd" clip-rule="evenodd"><path fill="#fff" d="M0 0h192.756v192.756H0V0z"/><path d="M96.378 152.656l-.987-.777-.367-.287-.369-.285-.37-.284-.374-.283-.376-.281-.378-.279-.381-.278-.384-.277-.387-.275-.389-.274-.392-.273-.395-.27-.398-.269-.402-.268-.404-.266-.409-.263-.411-.262-.416-.26-.418-.257-.423-.258-.425-.254-.431-.252-.434-.252-.438-.248-.442-.246-.446-.244-.451-.243-.454-.24-.46-.238-.463-.234-.479-.239-.535-.275-.528-.268-.53-.265-.532-.26-.537-.256-.539-.254-.542-.248-.544-.244-.548-.242-.551-.237-.554-.234-.558-.228-.56-.227-.564-.221-.567-.217-.57-.212-.574-.207-.578-.206-.581-.199-.584-.195-.588-.191-.591-.186-.595-.182-.599-.177-.602-.172-.607-.168-.61-.162-.613-.159-.619-.152-.622-.148-.626-.145-.627-.137-.478-.097-.485-.094-.488-.09-.493-.086-.495-.08-.5-.078-.503-.07-.507-.069-.511-.062-.516-.059-.519-.052-.523-.049-.527-.045-.532-.039-.536-.034-.54-.029-.544-.023-.549-.02-.553-.011-.558-.01-.562-.002-.567.002-.572.008-.576.013-.581.02-.586.025-.592.031-.595.036-.601.043-.606.048-.611.053-.621.061-.602.058-.596.065-.597.072-.599.078-.598.084-.601.092-.601.099-.602.106-.603.111-.604.119-.605.127-.605.133-.607.139-.608.148-.608.153-.61.16-.611.168-.612.174-.613.179-.613.188-.615.195-.615.201-.617.209-.617.215-.619.221-.619.23-.621.235-.621.242-.622.25-.624.256-.624.263-1.252.541-17.823-17.701 1.203-.894.258-.198.255-.199.252-.203.248-.205.245-.205.242-.211.237-.211.235-.215.231-.217.228-.218.225-.221.22-.225.218-.226.215-.229.211-.232.207-.233.205-.236.201-.24.198-.24.194-.245.191-.246.187-.248.184-.252.182-.254.177-.255.175-.258.171-.262.167-.264.165-.265.161-.27.153-.261.181-.336.178-.344.172-.348.168-.351.161-.356.157-.357.151-.36.145-.363.141-.365.134-.369.13-.369.125-.373.119-.377.115-.377.109-.381.104-.381.099-.385.094-.385.09-.386.085-.389.079-.391.075-.392.071-.393.065-.394.061-.395.056-.396.053-.397.047-.398.043-.399.038-.398.035-.401.029-.388.018-.424.012-.432.005-.427v-.428l-.007-.424-.013-.42-.019-.42-.025-.416-.031-.414-.036-.412-.042-.408-.048-.406-.053-.405-.058-.402-.064-.401-.068-.396-.074-.395-.079-.392-.083-.39-.088-.387-.094-.385-.097-.383-.102-.379-.106-.378-.111-.375-.115-.372-.119-.371-.123-.367-.127-.365-.13-.362-.134-.36-.147-.38-.145-.419-.144-.39-.152-.387-.161-.385-.17-.381-.178-.379-.187-.378-.195-.374-.204-.372-.212-.37-.219-.368-.228-.365-.237-.363-.244-.361-.252-.359-.26-.357-.268-.355-.275-.352-.283-.35-.291-.349-.298-.346-.306-.345-.313-.342-.32-.34-.328-.339-.334-.336-.342-.334-.348-.333-.355-.33-.362-.33-.369-.327-1.148-.995 17.162-19.245.831 1.603.161.301.164.297.165.292.168.288.171.284.172.28.175.274.178.271.18.266.182.262.184.257.187.253.189.249.192.244.193.24.196.236.199.232.201.227.203.223.206.219.207.214.21.21.213.206.215.201.217.198.219.193.222.189.224.185.227.181.229.176.178.134.143.076.2.103.201.099.202.095.202.092.203.086.203.083.205.079.205.074.205.07.206.067.207.063.207.059.208.054.209.05.21.047.21.043.211.038.213.035.212.031.214.026.215.022.215.019.217.015.218.011.218.007.219.003.22-.002.222-.005.222-.009.224-.013.161-.013.223-.05.292-.066.29-.068.29-.069.289-.07.288-.071.288-.073.286-.073.286-.076.285-.076.284-.078.283-.08.282-.081.281-.082.28-.084.28-.086.278-.086.277-.089.277-.091.275-.092.274-.095.272-.096.272-.098.271-.1.269-.101.268-.104.267-.106.266-.108.265-.109.264-.112.261-.115.258-.115.607-.281.613-.283.613-.28.612-.279.611-.276.611-.274.61-.271.609-.27.608-.266.608-.265.607-.263.606-.259.605-.257.605-.255.603-.252.604-.25.602-.247.601-.245.6-.241.6-.24.599-.236.598-.234.597-.231.597-.228.595-.225.594-.223.594-.22.593-.216.591-.214.591-.21.59-.208.746-.26h28.909l20.234-3.13 8.992 3.187.584.203.59.208.59.21.592.214.592.216.593.22.596.223.594.225.597.228.596.231.6.234.597.236.6.24.602.241.601.245.602.247.603.25.604.252.603.255.606.257.607.259.606.263.607.265.609.266.61.27.609.271.612.274.611.276.611.279.613.28.614.283.605.281.258.115.264.115.261.112.266.109.266.108.267.106.268.104.269.101.272.1.271.098.272.096.275.095.276.092.275.091.277.089.278.086.279.086.281.084.281.082.282.081.283.08.285.078.283.076.287.076.286.073.289.073.287.071.289.07.291.069.289.068.293.066.222.05.163.013.222.013.223.009.221.005.22.002.219-.003.219-.007.217-.011.216-.015.217-.019.215-.022.213-.026.213-.031.213-.035.211-.038.209-.043.211-.047.209-.05.207-.054.209-.059.205-.063.207-.067.205-.07.205-.074.203-.079.203-.083.203-.086.203-.092.202-.095.201-.099.201-.103.142-.076.178-.134.229-.176.226-.181.225-.185.222-.189.219-.193.217-.198.215-.201.213-.206.211-.21.207-.214.205-.219.203-.223.201-.227.199-.232.196-.236.193-.24.191-.244.19-.249.187-.253.184-.257.184-.262.179-.266.176-.271.176-.274.172-.28.172-.284.168-.288.166-.292.162-.297.162-.301.83-1.603 17.162 19.245-1.148.995-.368.327-.363.33-.355.33-.348.333-.342.334-.334.336-.328.339-.32.34-.313.342-.306.345-.297.346-.291.349-.284.35-.275.352-.268.355-.259.357-.252.359-.244.361-.237.363-.228.365-.221.368-.211.37-.203.372-.195.374-.188.378-.178.379-.169.381-.163.385-.152.387-.142.39-.145.419-.148.38-.133.36-.131.362-.127.365-.123.367-.119.371-.115.372-.11.375-.107.378-.102.379-.098.383-.093.385-.088.387-.082.39-.08.392-.073.395-.07.396-.062.401-.059.402-.053.405-.048.406-.042.408-.037.412-.029.414-.025.416-.02.42-.013.42-.006.424v.428l.004.427.013.432.018.424.029.388.033.401.039.398.043.399.047.398.053.397.057.396.06.395.065.394.07.393.076.392.08.391.084.389.09.386.094.385.099.385.104.381.109.381.115.377.12.377.125.373.129.369.134.369.141.365.144.363.153.36.156.357.162.356.166.351.174.348.178.344.179.336.155.261.16.27.164.265.168.264.172.262.174.258.177.255.182.254.184.252.187.248.191.246.196.245.197.24.201.24.203.236.207.233.213.232.213.229.219.226.221.225.224.221.229.218.23.217.235.215.238.211.242.211.244.205.248.205.252.203.256.199.258.198 1.201.894-17.82 17.701-1.254-.541-.623-.263-.625-.256-.621-.25-.621-.242-.622-.235-.619-.23-.619-.221-.617-.215-.617-.209-.615-.201-.616-.195-.613-.188-.611-.179-.614-.174-.609-.168-.609-.16-.61-.153-.607-.148-.608-.139-.605-.133-.605-.127-.604-.119-.603-.111-.602-.106-.602-.099-.599-.092-.6-.084-.597-.078-.598-.072-.596-.065-.601-.058-.622-.061-.611-.053-.605-.048-.602-.043-.596-.036-.591-.031-.586-.025-.58-.02-.577-.013-.572-.008-.566-.002-.563.002-.558.01-.553.011-.549.02-.545.023-.539.029-.537.034-.531.039-.528.045-.523.049-.518.052-.515.059-.512.062-.506.069-.504.07-.5.078-.496.08-.492.086-.488.09-.485.094-.478.097-.627.137-.627.145-.621.148-.619.152-.614.159-.609.162-.607.168-.602.172-.6.177-.593.182-.592.186-.588.191-.584.195-.582.199-.576.206-.574.207-.571.212-.566.217-.565.221-.56.227-.557.228-.554.234-.551.237-.549.242-.545.244-.541.248-.539.254-.535.256-.533.26-.532.265-.527.268-.535.275-.479.239-.463.234-.46.238-.454.24-.451.243-.447.244-.441.246-.438.248-.434.252-.429.252-.428.254-.422.258-.418.257-.416.26-.412.262-.408.263-.404.266-.401.268-.398.269-.397.27-.392.273-.389.274-.387.275-.383.277-.38.278-.379.279-.375.281-.373.283-.371.284-.37.285-.367.287-.987.777z"/><path d="M96.378 151.381c-3.916-3.105-8.202-6.023-13.3-8.535-5.652-2.947-11.785-5.293-18.62-6.76-5.218-1.092-11.037-1.461-17.733-.777-6.465.592-13.078 2.365-19.839 5.32l-16.514-16.402c2.918-2.143 5.246-4.729 6.982-7.758 2.08-3.785 3.132-8.145 3.436-12.525.24-4.793-.683-9.171-2.216-13.078-1.468-4.424-4.517-8.322-8.645-11.859l15.517-17.4c1.736 3.399 3.916 6.059 6.539 7.98 2.29 1.256 4.729 1.773 7.314 1.552 3.159-.702 6.226-1.588 9.088-2.882 6.53-3.039 12.94-5.717 19.174-7.869h28.816l20.062-3.104 8.756 3.104c6.234 2.151 12.643 4.83 19.174 7.869 2.861 1.293 5.928 2.18 9.088 2.882 2.586.222 5.023-.296 7.314-1.552 2.623-1.921 4.803-4.581 6.539-7.98l15.516 17.4c-4.127 3.538-7.176 7.435-8.645 11.859-1.533 3.906-2.457 8.285-2.217 13.078.305 4.381 1.355 8.74 3.436 12.525 1.736 3.029 4.064 5.615 6.982 7.758l-16.514 16.402c-6.76-2.955-13.373-4.729-19.838-5.32-6.697-.684-12.516-.314-17.734.777-6.834 1.467-12.967 3.812-18.619 6.76-5.097 2.511-9.384 5.429-13.299 8.535z" fill="#fff22d"/><path d="M96.6 64.155l-28.041.333c-8.756 3.251-17.733 7.5-26.378 9.975-3.611.859-7.103.877-10.418-.333-2.18-1.035-4.212-2.808-6.096-5.32l-9.088 10.086c3.27 2.881 5.819 7.204 7.315 13.632.961 4.693 1.33 8.144 1.219 12.082-.111 3.936-.709 8.805-2.217 12.191-1.507 3.385-3.123 5.643-5.763 7.758l10.64 11.084c3.981-1.502 7.694-2.602 11.083-3.215 4.743-.965 9.296-1.363 13.744-1.441 5.999-.068 12.806.994 20.282 2.992 9.754 3.057 17.401 6.992 23.718 11.527 6.318-4.535 13.965-8.471 23.719-11.527 7.477-1.998 14.283-3.061 20.281-2.992 4.447.078 9 .477 13.744 1.441 3.389.613 7.102 1.713 11.082 3.215l10.641-11.084c-2.641-2.115-4.256-4.373-5.764-7.758-1.508-3.387-2.105-8.256-2.217-12.191-.109-3.938.26-7.389 1.219-12.082 1.496-6.428 4.047-10.75 7.316-13.632l-9.09-10.086c-1.883 2.512-3.916 4.285-6.096 5.32-3.314 1.21-6.807 1.191-10.418.333-8.645-2.476-17.621-6.724-26.377-9.975l-11.525-3.785L96.6 64.155z" fill="#777169"/><path d="M64.68 120.9l3.325 7.648c3.588-1.863 7.846-3.125 12.912-3.658 3.824-.471 7.647-.766 11.471-.941 4.313-.225 8.247-.164 11.969.055 4.055.125 7.824.504 11.139 1.219a27.745 27.745 0 0 1 8.922 3.16l3.77-8.258c-2.311-1.791-5.506-3.213-9.588-4.268a126.791 126.791 0 0 0-10.418-1.551c-4.494-.305-9.047-.49-13.688-.498a210.49 210.49 0 0 0-13.632 1.053c-3.172.281-6.285.863-9.31 1.883-2.995.893-5.355 2.231-6.872 4.156zM55.149 125.777c3.989.037 7.167-.738 9.531-2.328l2.438 6.484 1.44-.055c.259.221.296.553.443.83-1.2 1.035-3.34 1.791-5.93 2.383-2.589.592-5.283.629-8.367.334 2.271-1.455 4.304-3.09 5.984-4.988-1.734-.941-3.803-.998-5.539-2.66zM137.996 125.223c-3.99.037-7.168-.738-9.531-2.326l-2.439 6.482-1.441-.055c-.258.223-.295.555-.443.832 1.201 1.033 3.342 1.791 5.93 2.383 2.59.592 5.283.627 8.369.332-2.273-1.455-4.305-3.09-5.986-4.988 1.734-.942 3.805-.996 5.541-2.66z" fill="#33348e"/><path d="M73.141 123.484c.002.094.005.164.009.211a.49.49 0 0 0 .018.109c.029.104.09.164.182.184.091.018.239-.002.442-.061l.024.086-1.786.512-.024-.086.072-.02c.2-.057.333-.131.398-.223.065-.09.096-.25.09-.48l-.057-3.83-.461.131c-.281.082-.496.225-.641.432-.146.205-.226.475-.236.809l-.091.025-.009-1.205 3.378-.969.052 1.193-.09.025a5.166 5.166 0 0 0-.034-.254 1.561 1.561 0 0 0-.037-.17c-.049-.172-.136-.283-.259-.336-.124-.053-.292-.049-.505.012l-.494.143.059 3.762zm1.724.137l.135-3.937.001-.078a1.417 1.417 0 0 0-.008-.314c-.017-.074-.054-.119-.112-.139a.554.554 0 0 0-.273.016l-.05.012-.022-.098a4.86 4.86 0 0 0 .931-.411l-.111 3.211c.211-.605.407-1.047.589-1.326.18-.281.373-.445.578-.492.113-.025.206-.018.279.025.073.045.122.119.147.229.014.061.023.135.03.219.005.086.006.188.003.301l-.058 1.541c0 .016-.003.037-.006.07-.008.127-.003.227.013.299.01.043.027.074.051.094.023.021.05.029.079.021.06-.014.117-.061.172-.143a2.34 2.34 0 0 0 .205-.406l.095.033c-.114.293-.223.508-.327.643a.612.612 0 0 1-.349.248c-.093.021-.168.012-.228-.027-.059-.041-.101-.111-.124-.213a1.017 1.017 0 0 1-.021-.195 4.227 4.227 0 0 1 .001-.275l.062-1.523c.005-.102.006-.189.003-.26a.82.82 0 0 0-.02-.172c-.014-.062-.038-.107-.073-.133-.033-.025-.075-.031-.127-.02-.227.053-.455.389-.687 1.01-.231.619-.35 1.318-.358 2.094l-.42.096zm3.718-2.435c.406-.113.723-.301.954-.566.23-.262.319-.525.268-.789-.019-.098-.06-.166-.124-.207-.063-.043-.145-.053-.245-.033-.216.041-.404.209-.563.502-.16.29-.256.657-.29 1.093zm1.608.537l.094.057a2.062 2.062 0 0 1-.482.625c-.186.158-.39.26-.609.303-.269.053-.498.004-.689-.141-.19-.146-.315-.371-.374-.672a2.038 2.038 0 0 1 .021-.846c.066-.293.188-.578.366-.854.146-.229.304-.406.471-.533a1.31 1.31 0 0 1 .553-.25.593.593 0 0 1 .436.059c.118.07.192.186.223.344.06.309-.057.602-.35.881s-.714.492-1.265.635a.694.694 0 0 0-.003.145c.004.053.013.117.028.193.05.256.146.445.287.57a.563.563 0 0 0 .501.129.952.952 0 0 0 .411-.207c.137-.11.264-.257.381-.438zm3.028-1.489l1.246-.154-.421-1.832-.825 1.986zm-1.387 1.889l-.011-.088a.658.658 0 0 0 .402-.199c.109-.111.251-.377.425-.797l1.62-3.877.087-.01.938 4.033c.042.166.095.27.162.311.067.043.203.057.407.043l.011.088-1.634.201-.011-.088c.232-.045.381-.094.443-.146.063-.053.087-.139.072-.258a1.239 1.239 0 0 0-.018-.111l-.035-.164-.177-.775-1.393.172-.324.777c-.04.094-.068.176-.085.246-.019.072-.024.129-.019.174a.219.219 0 0 0 .128.184c.074.035.186.047.336.037l.01.084-1.334.163zm4.207-.635l.46-2.248c.029-.135.046-.227.053-.273a.58.58 0 0 0 .007-.117c-.005-.072-.035-.123-.091-.152a.597.597 0 0 0-.277-.029l-.049.004-.007-.098c.177-.027.346-.064.508-.107.162-.043.317-.094.467-.154l-.303 1.535c.279-.541.533-.941.762-1.201.231-.26.452-.396.663-.412a.36.36 0 0 1 .264.07.346.346 0 0 1 .108.248c.004.062.002.135-.006.219a3.584 3.584 0 0 1-.045.301l-.121.662c.28-.543.535-.943.764-1.203.229-.258.449-.395.661-.41.117-.008.208.016.274.07.067.055.104.137.112.246.004.062.002.137-.005.223a4.093 4.093 0 0 1-.043.297l-.307 1.516a.455.455 0 0 1-.006.037 1.286 1.286 0 0 0-.036.324c.003.045.015.08.035.104.02.023.045.035.075.033.061-.006.125-.043.192-.115.069-.07.157-.193.266-.369l.088.047c-.158.273-.3.469-.424.584a.61.61 0 0 1-.384.191c-.095.006-.168-.016-.22-.064s-.082-.125-.088-.229a1.032 1.032 0 0 1 .01-.195c.011-.086.025-.176.045-.273l.292-1.498c.022-.109.039-.199.049-.266a.828.828 0 0 0 .01-.16.228.228 0 0 0-.052-.141c-.03-.031-.073-.045-.127-.041-.232.018-.509.312-.833.889-.323.576-.549 1.246-.678 2.014l-.432.029.45-2.211c.019-.1.032-.186.041-.256s.011-.127.008-.17a.227.227 0 0 0-.049-.141c-.028-.031-.07-.045-.124-.041-.232.018-.51.312-.836.891-.325.576-.551 1.248-.678 2.012l-.443.028zm5.169-1.867c.418-.049.762-.186 1.03-.41.269-.223.398-.469.388-.738-.003-.1-.033-.174-.089-.225s-.135-.074-.236-.07c-.22.008-.432.145-.635.408-.203.264-.356.609-.458 1.035zm1.505.781l.084.07c-.174.234-.365.416-.574.543s-.426.195-.649.203c-.273.01-.492-.072-.659-.248-.166-.174-.254-.414-.265-.721-.01-.275.042-.553.153-.832s.276-.543.495-.785c.18-.203.363-.354.548-.453.184-.1.38-.154.586-.16.176-.006.316.035.421.125a.49.49 0 0 1 .167.375c.011.314-.15.586-.483.816-.332.23-.782.373-1.349.43-.013.043-.021.088-.025.141s-.005.117-.002.195c.009.262.074.463.194.607a.56.56 0 0 0 .474.207.96.96 0 0 0 .438-.141c.153-.086.301-.21.446-.372zm.396.647l.577-2.221c.036-.133.058-.223.067-.271a.586.586 0 0 0 .014-.115c-.001-.072-.029-.125-.083-.156a.55.55 0 0 0-.275-.043h-.049l-.001-.098c.178-.02.348-.045.513-.08.164-.035.322-.078.475-.131l-.343 1.348c.242-.492.449-.84.622-1.047.174-.207.345-.311.515-.314a.25.25 0 0 1 .203.082.342.342 0 0 1 .079.23.353.353 0 0 1-.067.23.221.221 0 0 1-.182.09c-.095.002-.169-.033-.223-.105s-.099-.107-.135-.105c-.149.002-.35.262-.6.775-.248.516-.47 1.156-.663 1.924l-.444.007zm3.57-4c0-.078.029-.146.087-.205a.276.276 0 0 1 .206-.088c.079 0 .145.029.202.088s.084.127.084.205-.027.145-.084.201-.123.086-.202.086a.286.286 0 0 1-.205-.086.269.269 0 0 1-.088-.201zm-.297 1.726a4.35 4.35 0 0 0 .064-.246.711.711 0 0 0 .018-.141c0-.074-.025-.127-.078-.158s-.143-.047-.271-.047h-.047v-.098a5.639 5.639 0 0 0 1.025-.193l-.646 2.346a5.832 5.832 0 0 0-.057.223.842.842 0 0 0-.02.145c0 .041.009.074.028.1a.09.09 0 0 0 .072.037c.061 0 .127-.033.2-.102.074-.066.171-.184.292-.35l.085.053c-.178.264-.333.449-.467.557a.66.66 0 0 1-.407.16c-.095 0-.167-.027-.218-.082-.051-.051-.075-.129-.075-.23 0-.047.007-.111.022-.195s.037-.174.065-.27l.415-1.509zm3.02 1.59l.078.064c-.17.242-.357.42-.557.537a1.249 1.249 0 0 1-.66.17.813.813 0 0 1-.635-.289c-.158-.189-.234-.438-.23-.744.006-.273.066-.549.188-.828.119-.279.279-.525.48-.738.172-.182.355-.32.547-.416s.381-.141.568-.137c.197.004.355.057.473.162a.48.48 0 0 1 .176.395c-.002.104-.027.184-.078.238s-.121.084-.211.082c-.074-.002-.135-.021-.176-.061a.193.193 0 0 1-.062-.156c0-.068.029-.129.082-.188.055-.061.082-.107.084-.143 0-.057-.023-.102-.072-.135s-.115-.051-.197-.053a.74.74 0 0 0-.428.131c-.137.09-.273.23-.408.422a2.32 2.32 0 0 0-.322.654 2.5 2.5 0 0 0-.125.732c-.006.246.047.439.156.58a.548.548 0 0 0 .451.219.826.826 0 0 0 .418-.115c.14-.076.292-.205.46-.383zm1.369.485c.113.004.238-.045.377-.146.139-.1.27-.242.396-.424.17-.248.311-.523.422-.826s.172-.561.18-.771c.004-.146-.021-.262-.078-.344s-.141-.125-.248-.129-.221.031-.336.102a1.562 1.562 0 0 0-.361.328 3.15 3.15 0 0 0-.523.82 2.262 2.262 0 0 0-.211.826c-.008.176.023.312.09.41.066.099.164.15.292.154zm1.493-2.313l.111-.363.467-.061-.732 2.322c-.004.016-.01.033-.018.057a1.298 1.298 0 0 0-.062.301.187.187 0 0 0 .021.105.076.076 0 0 0 .064.041c.062.002.133-.029.213-.096.076-.066.178-.178.301-.338l.086.057c-.186.252-.346.432-.484.537a.648.648 0 0 1-.41.148c-.094-.004-.162-.031-.207-.084-.045-.055-.064-.133-.061-.238 0-.041.01-.102.029-.184.018-.082.043-.176.074-.275l.074-.246c-.182.322-.383.568-.602.738-.217.17-.439.25-.666.242-.189-.008-.334-.08-.436-.219s-.15-.328-.141-.566a2.29 2.29 0 0 1 .156-.727c.098-.254.232-.496.404-.734.205-.279.428-.498.664-.654s.457-.23.658-.225c.146.006.26.047.342.121a.542.542 0 0 1 .155.341zm.74 2.69l.768-2.162c.047-.127.076-.217.092-.264a.535.535 0 0 0 .023-.113c.004-.072-.02-.127-.07-.164a.553.553 0 0 0-.27-.066l-.049-.004.006-.096a4.566 4.566 0 0 0 1.002-.125l-.514 1.479c.352-.498.66-.857.926-1.084.266-.225.504-.33.717-.316.117.01.203.045.262.107.057.062.082.15.074.26a1.45 1.45 0 0 1-.037.221c-.02.082-.049.18-.088.287l-.504 1.457a.667.667 0 0 0-.023.064 1.022 1.022 0 0 0-.078.289.165.165 0 0 0 .02.105.087.087 0 0 0 .07.045c.061.004.129-.025.209-.086.078-.062.182-.172.312-.33l.084.059c-.195.248-.363.422-.502.521a.634.634 0 0 1-.41.133c-.094-.006-.164-.037-.207-.094-.045-.055-.062-.135-.055-.238.002-.045.016-.109.035-.193.021-.082.049-.168.08-.262l.51-1.441a5.01 5.01 0 0 0 .076-.244 1.04 1.04 0 0 0 .031-.172c.004-.062-.006-.113-.029-.146s-.064-.053-.117-.057c-.232-.016-.549.238-.951.764s-.719 1.16-.951 1.898l-.442-.032zm4.705.566l.463-1.527.086.01-.006.051c-.049.398.008.729.168.99s.395.412.705.449c.248.031.465-.033.654-.195s.299-.379.334-.652c.02-.17-.008-.344-.084-.52s-.242-.43-.498-.76l-.111-.139c-.371-.469-.537-.857-.498-1.168a1.06 1.06 0 0 1 .438-.758c.254-.184.553-.254.9-.211.154.02.334.08.539.182.205.104.342.158.406.166.061.008.115 0 .164-.027a.44.44 0 0 0 .15-.143l.088.012-.426 1.381-.088-.01.016-.131c.043-.352-.006-.631-.148-.838-.143-.209-.369-.332-.678-.369a.678.678 0 0 0-.529.146.693.693 0 0 0-.268.479c-.031.246.113.564.432.955l.025.031c.354.438.574.768.662.988.088.219.117.449.088.686-.045.365-.213.652-.504.863s-.633.293-1.029.244a1.65 1.65 0 0 1-.637-.23c-.217-.127-.355-.193-.414-.201a.218.218 0 0 0-.174.051.555.555 0 0 0-.141.207l-.085-.012zm4.473-1.141l-.629 1.32a.786.786 0 0 0 .205.186.714.714 0 0 0 .705.028c.148-.072.297-.199.447-.377.168-.199.316-.434.445-.707.131-.273.217-.531.258-.77.033-.182.021-.332-.033-.443a.362.362 0 0 0-.283-.205c-.172-.031-.365.043-.572.223a2.19 2.19 0 0 0-.543.745zm-.719 1.514l-.441.961a1.247 1.247 0 0 0-.076.201c-.012.072.008.127.057.166.051.041.158.08.32.123l-.008.072-1.299-.23.012-.07c.146.014.26-.004.336-.055.076-.049.152-.152.229-.314l1.4-2.941c.049-.102.084-.178.107-.23.02-.055.035-.1.041-.135.014-.072-.004-.129-.049-.17-.047-.041-.133-.07-.26-.094l-.047-.008.016-.096a5.005 5.005 0 0 0 1.006-.019l-.295.609c.166-.17.348-.299.541-.385.193-.088.363-.119.506-.094.229.041.389.156.48.344.09.188.109.436.053.748a2.126 2.126 0 0 1-.266.705c-.139.24-.307.453-.506.639-.221.203-.447.348-.678.432s-.465.107-.697.066a1.038 1.038 0 0 1-.244-.08 1.297 1.297 0 0 1-.238-.145zm4.305-3.119a.283.283 0 0 1 .127-.182.278.278 0 0 1 .399.084c.043.068.057.143.041.219s-.057.135-.125.18a.28.28 0 0 1-.215.041.3.3 0 0 1-.184-.127.266.266 0 0 1-.043-.215zm-.651 1.627a4.54 4.54 0 0 0 .115-.227c.021-.055.037-.098.045-.133.016-.074.002-.131-.043-.174-.045-.041-.131-.074-.254-.102l-.047-.01.02-.094c.164.018.33.029.504.033.172.006.352.002.539-.01l-1.119 2.16c-.043.08-.076.148-.104.205-.023.059-.041.104-.049.137a.161.161 0 0 0 .008.104.085.085 0 0 0 .062.051c.061.014.131-.006.217-.057.086-.049.205-.143.357-.281l.072.07c-.229.219-.42.367-.572.445a.645.645 0 0 1-.432.072c-.092-.02-.158-.061-.197-.123-.037-.062-.045-.145-.025-.244.01-.045.031-.107.064-.186.031-.078.072-.162.119-.248l.72-1.388zm.494 2.402l1.096-2.016c.068-.119.111-.201.133-.246a.796.796 0 0 0 .041-.109c.016-.07.002-.127-.045-.172a.543.543 0 0 0-.256-.107l-.047-.012.021-.096a4.441 4.441 0 0 0 1.01.035l-.658 1.223c.354-.418.639-.705.857-.865.219-.156.408-.217.574-.18.082.02.143.062.178.129s.043.148.02.244a.345.345 0 0 1-.121.205.224.224 0 0 1-.197.045c-.092-.021-.156-.074-.191-.156s-.07-.129-.105-.137c-.145-.033-.402.17-.77.609-.365.438-.736 1.008-1.107 1.705l-.433-.099zm4.186-2.974a.285.285 0 0 1 .141-.174.277.277 0 0 1 .223-.027c.074.021.129.068.168.141s.047.145.025.221c-.021.074-.066.131-.137.17s-.143.047-.217.025a.276.276 0 0 1-.174-.139.266.266 0 0 1-.029-.217zm-.762 1.576c.059-.094.102-.166.129-.217a.799.799 0 0 0 .057-.131c.02-.07.01-.129-.033-.174-.041-.045-.123-.084-.246-.119l-.045-.014.025-.094c.162.029.328.055.502.07.17.016.35.025.537.027l-1.268 2.076a3.135 3.135 0 0 0-.115.199.674.674 0 0 0-.059.133.169.169 0 0 0-.002.104.09.09 0 0 0 .061.055c.059.016.131.004.219-.041.09-.045.215-.129.377-.258l.066.076c-.242.203-.443.338-.602.404a.65.65 0 0 1-.434.043c-.092-.027-.154-.072-.188-.139-.035-.064-.037-.146-.01-.242.014-.045.037-.105.076-.184.037-.076.084-.154.137-.238l.816-1.336zm1.955-.086l-.418-.137.061-.109c.199.041.412.016.641-.074.227-.092.434-.236.621-.432l.111.037-.473.709.443.145-.076.158-.467-.152-1.199 1.816a3.71 3.71 0 0 0-.121.193c-.029.057-.051.1-.061.133a.158.158 0 0 0-.006.104.09.09 0 0 0 .059.057c.057.018.131.008.221-.033s.217-.123.383-.246l.066.078c-.252.195-.457.322-.617.385a.632.632 0 0 1-.438.025.277.277 0 0 1-.182-.143c-.029-.066-.029-.146.002-.244.014-.043.041-.1.078-.168.035-.066.086-.148.148-.246l1.224-1.856z" fill="#fff22d"/><path d="M94.937 40.099c15.264 0 27.713 8.815 27.713 19.623s-12.449 19.622-27.713 19.622c-15.264 0-27.713-8.814-27.713-19.622s12.449-19.623 27.713-19.623z"/><path d="M94.937 78.341c14.711 0 26.711-8.364 26.711-18.619 0-10.256-12-18.62-26.711-18.62s-26.71 8.364-26.71 18.62c0 10.255 11.999 18.619 26.71 18.619z" fill="#fff22d"/><path d="M94.937 76.79c13.858 0 25.159-7.667 25.159-17.067 0-9.401-11.301-17.068-25.159-17.068-13.856 0-25.158 7.667-25.158 17.068 0 9.4 11.302 17.067 25.158 17.067z" fill="#33348e"/><path d="M95.214 54.753l-2.272-.019c.009-1.283 1.03-2.328 2.272-2.328 1.251 0 2.272 1.054 2.272 2.347h-2.272z" fill="#fff22d"/><path d="M98.18 54.722c.725-.166 1.361-.438 1.912-.93l1.385-.111 1.08-.859-.969.305-1.496-.167-1.109.416 2.328-2.466-2.41 1.358c.182-1.311.561-1.974 1.467-3.297-1.492 1.12-1.711 1.185-2.383 2.771h-.665l1.164-4.378c-.896 1.287-1.708 2.602-2.383 3.962l-.305-.111.027-2.133-.333-1.219-.499-2.66-.388 2.438.443 1.552-.055.831-.721 1.164c-.968-1.204-1.696-2.488-2.438-3.768l1.108 4.433c-1.109-.343-.835-.286-1.163-1.302l-1.829-1.496c.252.687.653 1.28 1.274 1.746l.222.804v.831l-2.327-1.302c1.127 1.122 2.06 1.981 2.3 2.438-.831-.526-1.598-.628-2.134-.416l-1.44-.139c.24.314.517.517.831.609l1.44.277c.37.037.665.222.887.554l1.258.28c.05-1.65 1.364-2.996 2.965-2.996 1.612.001 2.928 1.359 2.956 2.981zM87.464 61.19l-8.479.083c.665 1.016 1.367 1.773 2.105 2.272h6.899l-.525-2.355zM102.564 61.052l8.48.083c-.666 1.016-1.367 1.773-2.107 2.271h-6.898l.525-2.354zM88.212 64.654l-6.456.056c.619.891 1.376 1.713 2.438 2.382h4.488l-.47-2.438zM101.816 64.515l6.457.056c-.619.891-1.377 1.713-2.439 2.383h-4.488l.47-2.439zM88.933 68.284h-4.351c.711 1.011 1.542 1.843 2.549 2.411h2.272l-.47-2.411zM101.096 68.145h4.352c-.711 1.012-1.543 1.843-2.549 2.411h-2.273l.47-2.411zM86.716 57.644H76.187c.587.928 1.289 1.787 2.245 2.494h8.811l-.527-2.494zM103.312 57.505h10.529c-.586.928-1.287 1.787-2.244 2.493h-8.811l.526-2.493z" fill="#fff22d"/><path fill="#fff22d" d="M87.124 55.794l4.211 19.444 3.38-13.909 4.101 14.076 3.934-19.617 1.533-.056-.01-.916h-3.572v.934l.996.012-2.549 13.27-4.155-12.912-3.104 12.856-2.936-13.188.719-.026-.01-.931-3.813-.041v.957l1.275.047zM57.825 107.252h82.427v1.139H57.825v-1.139z"/><path d="M132.795 111.123a2.795 2.795 0 0 1 2.789 2.789 2.796 2.796 0 0 1-2.789 2.789 2.796 2.796 0 0 1-2.791-2.789 2.795 2.795 0 0 1 2.791-2.789zm0-.57c1.85 0 3.357 1.51 3.357 3.359s-1.508 3.357-3.357 3.357-3.359-1.508-3.359-3.357 1.509-3.359 3.359-3.359z"/><path d="M22.988 80.953l.114 1.594 1.594.341c.417.341.929.645 1.024 1.252l7.969 29.829a8.792 8.792 0 0 1 3.985 0l-.683-2.732 4.212-20.721 6.944 23.225c1.29-.227 2.505-.227 3.643 0l-.911-3.301 5.465-25.958c.114-.759.642-1.512 1.363-1.816l1.255-.12.057-1.594c-2.333.235-4.668.208-7.001 0v1.534l1.821.063c.525.192.753.758.684 1.249L49.97 106.91l-5.92-21.746-.455-4.099h-3.871l.513 4.099c.113 1.215.057 2.239-.285 3.302l-3.984 18.899-5.808-22.656c-.114-.835.152-1.442.797-1.822l1.822-.341v-1.594c-3.264.147-6.528.157-9.791.001zM138.201 80.611v1.48h1.822c1.139.266 1.67.835 1.594 1.708l.113 25.731c.152 1.365-.416 2.01-1.479 2.162h-1.822v1.707l11.84-.227c2.305-.408 4.811-1.334 6.717-2.619 1.908-1.285 3.197-3.188 4.555-6.717a37.52 37.52 0 0 0 .684-8.197c-.451-4.364-1.334-7.741-2.848-9.677-1.48-1.999-3.396-3.617-6.09-4.554-1.486-.408-3.203-.579-4.84-.683l-10.246-.114zm7.514 2.39l.229 27.893a38.805 38.805 0 0 0 5.92-.342c2.504-1.025 4.174-2.732 5.01-5.123a29.549 29.549 0 0 0 1.195-8.539c-.029-2.866-.643-5.464-1.65-8.196-.75-1.589-1.869-3.117-3.529-4.554-1.328-.664-2.656-1.082-3.984-1.139h-3.191zM66.73 95.756c.171-2.298-1.197-4.022-3.297-3.893-1.906 0-3.353 1.705-3.353 3.796v.164l6.65-.067zm3.954 1.459c-.177-4.002-2.499-6.905-6.617-6.802-4.299.107-7.808 3.46-7.808 7.703 0 4.242 3.528 8.115 7.808 7.703 3.158-.305 5.829-2.041 7.033-4.453l-.982-.467c-1.01 1.504-2.721 2.436-4.496 2.436-3.052 0-5.542-2.613-5.542-5.818v-.219l10.604-.083zM83.245 94.357l-1.773.027c-.277-.78-.684-1.565-1.552-2.271-.489-.324-.973-.573-1.746-.582-.773-.01-1.533.249-1.912.554-.601.36-.882.866-.804 1.524s.388 1.002.776 1.219l5.597 2.522c1.099.656 1.792 1.311 2.078 1.967a6.094 6.094 0 0 1 .138 2.799c-.261 1.033-1.004 1.893-2.078 2.633-.912.482-1.868.744-2.854.857-1.247.076-2.58.111-3.74-.082s-2.17-.674-3.242-1.137l-.027-3.186h2.327l.028 1.025c.388.701.951 1.406 1.606 1.773s1.215.543 1.968.525c.752-.018 1.579-.312 2.299-.748.499-.295.897-.789.942-1.33s-.155-1.043-.637-1.523l-4.821-1.828a11.487 11.487 0 0 1-2.577-1.996c-.489-.664-.794-1.478-.914-2.438-.03-.746.15-1.462.637-2.134.554-.656 1.515-1.182 2.66-1.69a7.529 7.529 0 0 1 2.189-.36c1.715.056 3.512.434 5.375 1.081l.057 2.799zM95.895 103.389c-1.292 1.41-3.116 2.141-5.003 2.328-.928.094-1.57-.201-2.279-.656-.708-.453-1.163-2.199-1.19-4.111l-.022-8.753h-2.549l.025-.798c1.94-.237 4.367-1.562 4.387-4.847 0-.034 1.851.006 1.851.006l.055 4.419h3.741l.027 1.247h-3.713c.046 3.455.01 6.908.056 10.363.111.434.168.896.637 1.053.469.156.687.264 1.33.111.643-.152 1.496-.738 2.022-1.164l.625.802zM102.031 82.165l.109 20.892c.057.592.148.961.277 1.109.223.24.518.406.887.498l1.275.139v.914l-8.257.057v-.998l1.441-.166c.406-.158.701-.48.887-.859v-1.137l-.055-17.345c-.057-.37-.121-.749-.25-.97a1.054 1.054 0 0 0-.637-.471l-1.553-.111-.028-.776a75.546 75.546 0 0 0 5.904-.776z" fill="#fff22d"/><path d="M137.5 94.467c-.309-1.694-2.309-3.415-3.66-3.712-1.352-.298-1.615.034-2.549.166-1.348.557-2.803 1.522-4.193 2.785l.008-2.673c-1.943.328-3.693.596-5.709.776l.029.775 1.551.111c.287.083.498.24.637.471.131.222.195.601.25.97l.064 6.872-.01 2.688c-.184.379-.424.701-.83.859l-1.441.166v.998l8.258-.057v-.914l-1.275-.139c-.369-.092-.664-.258-.887-.498-.164-.238-.348-.828-.338-2.91l.066-6.54c.928-.757 1.982-1.312 3.154-1.746.785-.134 1.719-.161 2.355.222.693.665 1.053 1.441 1.068 2.328l.01 7.041v1.135c-.186.379-.48.703-.887.859l-1.441.166v.998l8.008.055v-1.025l-1.025-.137c-.369-.094-.664-.26-.887-.5-.129-.146-.221-.518-.275-1.107l-.051-8.483zM121.426 103.914c-.748.67-1.832 1.613-2.885 1.697-.795.062-1.633.123-2.154-.236-.535-.369-.951-1.25-1.188-1.992l-2.117 1.441c-.963.654-2.088.879-3.234.939-1.344.068-2.49-.197-3.33-.799-.84-.604-1.26-1.514-1.26-2.568 0-1.213.562-2.256 1.689-3.129 1.344-1.043 3.334-1.834 6.113-2.426l1.916-.408.057-1.897c.031-1.053-.303-1.572-.904-1.998-.604-.426-1.066-.709-2.115-.696-.984.013-2.684 1.111-2.729 1.831l-.113 1.814-2.883.026.008-2.044c.004-.875-.049-.673 1.02-1.444 1.244-.899 3.02-1.335 4.936-1.443 2.484-.139 6.092 1.106 6.152 4.342l.152 7.971c.02.969.857 1.186 1.893.785.189-.074.307-.26.523-.432l.453.666zm-6.365-1.512l.027-4.951-2.031.584c-1.648.477-3.836 1.891-3.891 3.461-.109 3.084 3.193 2.766 5.506 1.174l.389-.268z" fill="#fff22d"/><path d="M132.301 113.121v.834h1.045c.105 0 .18-.033.221-.098.043-.064.064-.17.066-.32 0-.148-.021-.254-.062-.318s-.115-.098-.225-.098h-1.045zm1.871 2.184h-.504v-.424c0-.135-.029-.234-.092-.295-.061-.061-.162-.09-.305-.09h-.969v.809h-.502v-2.725h1.588c.115 0 .219.014.309.043a.534.534 0 0 1 .23.148c.064.072.115.17.15.295.037.127.055.283.055.473 0 .188-.027.336-.082.441a.793.793 0 0 1-.223.268c.09.045.154.08.193.105.039.027.072.07.104.131a.578.578 0 0 1 .047.254v.567h.001z"/><path d="M78.842 131.527l.27-.004c.095.193.24.342.436.445.195.104.425.156.689.156.207 0 .375-.035.502-.105s.191-.162.191-.275c0-.176-.306-.365-.918-.568l-.24-.08c-.313-.107-.539-.213-.675-.318-.137-.105-.204-.223-.204-.354 0-.195.117-.354.351-.477.234-.123.538-.186.91-.186.199 0 .409.016.627.047.217.031.338.047.362.047a.496.496 0 0 0 .18-.037l.104.008.109.639-.249.004a.888.888 0 0 0-.404-.387 1.369 1.369 0 0 0-.625-.139c-.187 0-.334.025-.446.076-.112.053-.167.119-.167.205 0 .039.013.078.038.113.026.039.063.07.112.1.117.068.337.156.664.262.171.057.3.1.385.131.331.121.566.24.702.354.138.115.206.246.206.395 0 .205-.129.377-.389.516s-.584.209-.973.209c-.142 0-.304-.01-.487-.029a9.635 9.635 0 0 1-.611-.082l-.074.047-.216.008-.16-.721zm4.5-1.548c0-.074.042-.139.128-.189a.602.602 0 0 1 .313-.076.62.62 0 0 1 .319.076c.087.053.13.115.13.189 0 .076-.043.141-.131.193s-.194.08-.318.08a.585.585 0 0 1-.313-.08c-.086-.053-.128-.115-.128-.193zm.886 1.912c0 .09.026.15.08.182s.153.049.296.051l.006.135h-1.576v-.137c.145-.002.244-.018.3-.049.055-.031.083-.092.083-.182v-.752c0-.072-.023-.121-.07-.148a1.171 1.171 0 0 0-.312-.076v-.135l1.055-.223h.139v1.334h-.001zm2.42-.819v.818c0 .086.026.145.079.18.052.033.143.051.271.051h.026l.006.137h-1.579v-.135c.145-.002.243-.02.296-.051.053-.031.08-.092.08-.182v-.752c0-.068-.024-.117-.073-.146a.968.968 0 0 0-.303-.078v-.135l1.057-.223h.14v.34c.292-.096.531-.164.719-.205a2.32 2.32 0 0 1 .485-.062c.238 0 .412.049.517.145.106.098.159.26.159.486l-.001.096a.495.495 0 0 1-.008.066l-.029.342-.003.045a.462.462 0 0 0-.003.043c0 .1.027.168.081.203.054.037.156.059.306.066l.006.137h-1.581v-.135c.143-.002.242-.035.3-.098s.091-.184.099-.367l.012-.26v-.059c0-.154-.029-.262-.089-.324-.059-.062-.158-.094-.298-.094-.087 0-.188.014-.302.039a2.66 2.66 0 0 0-.37.112zm5.842.828c-.164.141-.352.246-.563.314s-.452.102-.723.102c-.396 0-.724-.074-.985-.225-.26-.15-.391-.34-.391-.564 0-.107.034-.211.102-.311a.977.977 0 0 1 .298-.271c.162-.102.35-.18.564-.234s.438-.082.673-.082c.294 0 .539.033.735.102.197.068.295.148.295.242 0 .055-.031.102-.095.137a.458.458 0 0 1-.236.055.779.779 0 0 1-.382-.117 1.438 1.438 0 0 1-.133-.096c-.146-.109-.278-.164-.395-.164a.517.517 0 0 0-.399.174.615.615 0 0 0-.16.436c0 .201.079.367.237.496a.918.918 0 0 0 .601.193c.125 0 .25-.021.375-.064s.253-.109.384-.197l.198.074zm1.849-.611h.959a.5.5 0 0 0-.127-.352c-.082-.078-.198-.117-.352-.117-.159 0-.278.039-.358.117-.082.081-.122.198-.122.352zm1.747.59a2.238 2.238 0 0 1-.609.33 2.09 2.09 0 0 1-.676.107c-.383 0-.698-.076-.945-.229s-.37-.348-.37-.586c0-.248.137-.457.41-.623s.614-.25 1.02-.25c.263 0 .496.045.699.135s.334.205.393.346l.016.049a.27.27 0 0 0 .13.168v.105H94.34a.6.6 0 0 0 .242.459c.146.107.345.16.595.16.145 0 .279-.02.403-.059.124-.039.25-.104.378-.189l.128.077zm6.779.017c0 .084.027.139.086.162.057.025.232.039.529.045l.004.154h-2.053l.004-.154c.293-.006.469-.02.525-.045.055-.023.084-.078.084-.162v-1.613a3.505 3.505 0 0 1-.371.113 2.448 2.448 0 0 1-.342.062l-.086-.131c.262-.072.498-.158.709-.254.211-.098.396-.205.551-.322h.359v2.145h.001zm3.807-.669a3.43 3.43 0 0 1-.34.074 2.18 2.18 0 0 1-.312.025c-.322 0-.58-.066-.773-.197s-.291-.307-.291-.527c0-.246.121-.451.365-.609.242-.16.551-.24.924-.24.402 0 .73.098.982.293s.379.451.379.768c0 .373-.199.697-.6.973s-.932.453-1.6.531l-.104-.117c.395-.104.703-.234.926-.393a1.14 1.14 0 0 0 .444-.581zm.049-.188c.02-.086.033-.164.043-.236s.014-.137.014-.197c0-.238-.045-.414-.133-.529-.088-.113-.221-.17-.4-.17-.166 0-.285.049-.355.146-.072.1-.107.268-.107.51 0 .223.037.373.107.453.072.082.197.121.373.121a.973.973 0 0 0 .184-.023c.071-.016.162-.04.274-.075zm2.978.008l-.102-.102c.227-.111.391-.215.494-.309.104-.096.154-.189.154-.287 0-.09-.039-.16-.119-.211a.611.611 0 0 0-.324-.076c-.125 0-.236.023-.336.068s-.188.111-.264.201l-.213-.037c.113-.182.264-.316.455-.408.189-.09.418-.135.686-.135.25 0 .457.041.619.125.16.084.242.188.242.314 0 .09-.047.176-.141.258-.092.084-.248.176-.467.279.289.021.514.09.678.207.162.119.244.27.244.453 0 .27-.152.492-.455.664-.303.174-.695.26-1.178.26-.256 0-.465-.031-.629-.092-.162-.062-.244-.141-.244-.236 0-.061.031-.111.092-.15s.137-.061.225-.061c.064 0 .123.008.174.021.055.014.1.033.135.059l.057.039c.213.152.396.229.551.229a.49.49 0 0 0 .363-.141.513.513 0 0 0 .139-.377c0-.186-.057-.326-.172-.422-.113-.094-.283-.143-.512-.143-.029 0-.076.002-.139.008-.005.002-.009.002-.013.002zm5.742-.016c0 .393-.121.701-.361.93-.24.23-.564.344-.973.344-.406 0-.73-.113-.971-.342-.242-.229-.363-.539-.363-.932 0-.391.123-.701.365-.934.244-.23.566-.346.969-.346.404 0 .727.115.971.346.242.233.363.544.363.934zm-1.337 1.127c.18 0 .303-.064.371-.195.068-.129.102-.439.102-.932 0-.494-.033-.805-.1-.934s-.189-.191-.367-.191c-.18 0-.301.062-.367.189-.068.127-.102.408-.102.846 0 .557.033.898.1 1.025s.187.192.363.192z" fill="#fff22d"/></g></svg>