<svg xmlns="http://www.w3.org/2000/svg" width="2500" height="2500" viewBox="0 0 192.756 192.756"><g fill-rule="evenodd" clip-rule="evenodd"><path fill="#fff" d="M0 0h192.756v192.756H0V0z"/><path d="M106.361 102.361c-1.811 0-2.615-1.208-2.615-2.416 0-1.006.805-2.415 2.615-2.415s2.617.806 2.617 2.215c0 1.609-.807 2.616-2.416 2.616h-.201zm0-4.63c-.805 0-1.611.403-1.611 2.014 0 1.408.605 2.415 1.812 2.415.604 0 1.609-.201 1.609-2.013 0-1.61-.604-2.416-1.609-2.416h-.201zm43.475 4.63h-1.008v-1.208c.203.806.605 1.007 1.008 1.007.604 0 .803-.403.803-.806 0-.201 0-.604-.602-1.006-1.006-.805-1.209-1.208-1.209-1.61 0-.805.605-1.208 1.611-1.208h.805v.806c-.402-.402-.605-.604-1.008-.604-.4 0-.803.202-.803.604s.201.604.803 1.007c.807.603 1.209 1.207 1.209 1.811 0 .201-.201.806-.604 1.007s-.804.2-1.005.2zm-38.645-2.416v2.013l.604.201-1.006.201h-.805l.402-1.812v-2.616l-.605-.202 1.008-.201h1.611l.4.806c-.201-.402-.4-.402-.604-.402h-1.006v1.61h1.409v.805l-1.408-.403zm5.635 2.416h-1.006v-1.208c.404.806.605 1.007 1.006 1.007.604 0 1.008-.403 1.008-.806 0-.201-.201-.604-.605-1.006-1.004-.805-1.408-1.208-1.408-1.61 0-.805.605-1.208 1.609-1.208h.807v.806c-.402-.402-.604-.604-1.008-.604-.402 0-.602.202-.602.604s0 .604.602 1.007c1.008.603 1.209 1.207 1.209 1.811 0 .201-.201.806-.604 1.007-.404.2-.605.2-1.008.2zm4.026-1.811v-2.616h-1.004c-.402 0-.605 0-.605.201l-.201-.604h4.227v.806c-.201-.201-.201-.402-.805-.402h-.805v4.025l.604.201-1.006.201h-.807l.402-1.812zm2.818 1.811c-.201-.604-.201-.806 0-.806.404.605.404.806 0 .806zm3.824-1.811v-2.616l-.604-.202 1.006-.201h1.008c.803 0 1.004.201 1.205.403 0 0 .203.402.203.805 0 .806-.605 1.409-1.609 1.409.402 0 1.004-.402 1.004-1.208 0-.201-.199-.604-.4-.805-.201-.403-.604-.403-.604-.403l-.404 2.818v1.409l.605.201-1.008.201h-.805l.403-1.811zm4.227 0v-2.616l-.604-.202 1.008-.201h1.609l.402.806c-.201-.402-.402-.402-.604-.402h-1.008v1.61h1.008l.402.805-1.41-.403V101.557c0 .403 0 .403.805.403h.605l.201-.604v.806l-2.012.201h-.807l.405-1.813zm4.83 0v-2.616h-1.006c-.201 0-.4 0-.604.201-.201 0 0-.604 0-.604h4.026l.201.806c-.201-.201-.402-.402-1.006-.402h-.807v4.025l.605.201-1.006.201h-.807l.404-1.812zm3.623 0v-2.616c-.604-.202-.604-.403-.604-.403h3.221l-.201.806c-.203-.402-.203-.402-.604-.402h-.805l-.203 1.61h1.209l.402.805c-.203-.201-.402-.403-.604-.403h-.805l-.203.604v1.006c.203.403.203.403.807.403h.602l-1.811.402h-.805l.404-1.812zm5.232-2.819l-.402 2.214c.201 0 .402.202.604.202.605-.402.807-.604.807-1.208s-.201-1.006-.605-1.208h-.404zm.201 2.618h-.604v1.61l.604.201-1.004.201h-.807c.605-.806.605-1.208.605-1.812v-1.207c0-1.007 0-1.208-.203-1.409-.604-.202-.604-.403-.604-.403h2.012c.605 0 1.008 0 1.209.201.201.202.402.604.402 1.007s-.201.806-.805 1.409c.402.604 1.008 1.207 1.408 1.609.201.403.604.403.604.403-.805.201-1.004.201-1.207 0-.201 0-.402-.403-.805-.806-.201-.402-.605-.805-.605-1.006h-.2v.002zm8.254-2.618l-.404 1.812h.605c.402-.201.604-.403.604-.806s-.201-.805-.604-1.007h-.201v.001zm0 2.014l-.404 1.609c0 .402 0 .604.201.604l.605.201c.201 0 .604-.201.604-.806 0-.402 0-1.006-.604-1.409l-.402-.199zm-.806 2.616h-.805l.402-1.812v-2.616c-.604-.202-.604-.403-.604-.403H153.861c1.408 0 1.408.604 1.408 1.007s-.402.806-.604 1.007c.402.201 1.006.604 1.006 1.408s-.402 1.409-1.609 1.409h-1.007zm3.824-2.012v-2.415c-.604-.202-.604-.403-.604-.403h1.811l-.199 1.812v1.006c0 .805 0 1.207.402 1.408.201.403.604.403.805.403s.604-.201.805-.403c.402-.402.402-1.006.402-1.609v-2.214c-.604-.202-.604-.403-.604-.403h1.61l-.402 1.812v.805c0 .604 0 1.408-.604 1.812-.402.402-1.006.402-1.408.402-.201 0-.807 0-1.408-.402-.202-.203-.606-.807-.606-1.611zm7.045-2.618l-.402 2.214.604.202c.605-.402.605-.604.605-1.208s-.203-1.006-.605-1.208h-.202zm-.403 2.618v1.61l.604.201-1.006.201h-.805l.4-1.812v-2.616l-.602-.202 1.006-.201h.805c.604 0 1.008 0 1.209.201.201.202.4.604.4 1.007s-.199.806-.803 1.409c.604.604 1.006 1.207 1.408 1.609.402.403.604.403.604.403-.807.201-1.006.201-1.006 0-.402 0-.604-.403-1.006-.806-.203-.402-.404-.805-.605-1.006h-.603v.002zm7.85.804v.806c-.605.402-1.207.402-1.609.402-1.611 0-3.02-.604-3.02-2.416 0-1.006.604-1.811 1.207-2.012.604-.403 1.207-.403 1.611-.403h1.205c.605 0 .605.201.605.201v1.007c-.605-.604-1.207-1.007-1.811-1.007-.404 0-.807 0-1.41.403-.201.402-.402.805-.402 1.61 0 1.408.805 2.415 2.215 2.415.602-.201.602-.201.602-.403v-1.208l-.602-.402 1.006-.202h.805c-.402.202-.402.202-.402.604v.605zM55.642 135.167c.804-4.629.603-8.251 3.823-11.673a9.71 9.71 0 0 0-1.408.604c-4.429 1.812-6.441 5.838-5.032 9.46.201.402.401 1.007.804 1.609.403.403.806.806 1.41 1.208.202-.402.202-.805.403-1.208zm5.836-62.19c.604 0 1.007-.202 1.41-.402l1.207-.604c1.007-.403 2.014-1.208 2.617-2.014 1.611-2.012 2.214-4.427 1.208-6.842-.201-.806-.604-1.611-1.208-2.013-.2-.402-.603-.604-1.005-.805-.806 3.22-.806 6.038-1.611 8.654-.404 1.409-1.208 2.818-2.618 4.026zM33.3 110.009c1.551-.387 2.914-.401 4.629-.043-.2-.358-.603-.561-1.006-.963-1.005-1.006-2.415-1.409-3.623-1.811-2.617-.604-5.231.2-7.044 2.213-.806 1.007-1.408 2.214-1.408 3.422 3.421-.805 5.836-2.214 8.452-2.818zm-3.218-35.221c1.207 1.007 2.213 1.812 3.219 2.617 2.618 2.013 4.83 3.824 5.837 7.447.202-.604.202-1.006.202-1.61.604-4.629-1.811-8.252-5.636-9.057-1.409-.202-2.618-.001-3.622.603zm26.163-8.998a4.579 4.579 0 0 0 0 1.343V65.79zm27.573 49.653c-.2-.201-.401-.604-.603-.805-.403-.806-1.007-1.812-1.408-2.817-.203.603-.203 1.006-.203 1.609-.2.604-.2 1.409-.2 2.013.403 3.623 2.615 6.44 5.836 6.844 1.007.2 1.811.2 2.616 0 .403 0 .806-.201 1.007-.403-.201-.402-.604-.604-1.007-1.006-2.213-2.014-4.426-3.422-6.038-5.435zm-32.603 0c1.408-1.409 2.212-2.415 3.219-3.22l1.811-1.812c2.617-2.214 5.233-3.824 7.85-4.831l.806.202c.403 1.811 1.006 3.824 1.811 6.038.403 1.006 1.007 2.213 1.41 3.622 1.812 3.421 3.622 7.447 5.233 12.076.604 1.812 1.207 3.823 1.811 5.837.201.604.403 1.208.403 1.811l.604 2.416c0-.805-.202-1.61-.202-2.416-.201-1.609-.402-3.019-.805-4.629a190.418 190.418 0 0 0-1.811-7.245 193.129 193.129 0 0 0-2.415-7.85c-.202-.402-.403-.805-.403-1.208-1.812-5.232-2.817-11.069-2.014-15.296l.605-.402c1.007 0 2.213.402 3.422.604 2.818.805 6.439 1.007 10.667 1.409 2.214.201 4.427.604 6.842 1.006 3.624.403 7.85 1.408 12.278 2.818-3.824-1.812-8.253-3.221-12.278-4.227-2.415-.604-4.628-1.208-6.842-1.61-1.208-.201-2.415-.604-3.825-.806-2.214-.604-4.628-1.207-6.842-2.012-2.214-.806-4.227-1.812-5.837-3.02-.603-.402-1.005-.805-1.609-1.207v-.601c.403-.604 1.007-1.208 1.609-1.812 1.811-1.812 3.624-4.227 5.837-7.245 2.617-3.824 6.039-8.454 10.667-13.285l3.42-3.421c-1.005.604-2.214 1.61-3.42 2.616-4.026 3.422-7.447 7.447-10.667 11.07-1.007 1.006-1.811 2.013-2.818 3.02-.805 1.006-2.012 2.012-3.019 3.019-.805.805-1.811 1.409-2.617 2.013-2.415 1.811-4.83 3.22-7.245 4.025h-.604c-.201-1.812-.804-3.824-1.811-6.039-1.408-3.623-3.622-7.849-5.837-13.284-1.207-3.623-2.617-7.648-3.824-12.479.604 6.038 2.214 12.076 3.824 17.309a38.16 38.16 0 0 1 1.812 5.836c1.811 5.435 2.818 11.07 1.811 15.497l-.403.806c-.806-.402-2.012-.806-3.221-1.007-3.824-1.006-8.855-1.207-15.296-2.013-4.226-.604-9.057-1.408-14.692-3.22 4.83 2.013 9.862 3.623 14.692 4.83 3.019.604 5.837 1.208 8.252 1.812 2.415.604 4.831 1.208 7.044 2.013 2.215.805 4.228 1.812 5.837 2.817.604.403 1.007.806 1.408 1.208v.604c-.2.805-.804 1.409-1.408 2.013-1.811 1.61-3.622 4.228-5.837 7.045 0 .201-.202.604-.603.805-1.812 2.616-3.824 5.636-6.441 8.654a69.632 69.632 0 0 1-6.641 7.045c2.415-1.812 4.628-3.623 6.641-5.636 3.622-3.42 6.841-7.043 9.661-10.063zm-22.342 0c1.41-1.409 3.02-2.214 4.428-2.415 1.208 0 2.415.201 3.422 1.207.403.403.604.806.806 1.208.202 1.007 0 1.812-.604 2.616-.402.604-1.208 1.007-2.012 1.208-1.813.604-4.027.202-6.039-.604-.604-.402-1.408-.805-2.012-1.408s-1.208-1.207-1.611-1.812c-.401-.604-.603-1.208-.804-2.013-3.019 0-2.616-.402-4.026-.805.203-.402 1.812.604 4.026.402 0-1.812.403-2.818 1.408-4.025 1.813-1.811 4.629-2.818 7.447-2.214.403 0 1.007.201 1.41.403-.403-.403-.806-.604-1.41-1.008-.804-.604-1.61-1.006-2.214-1.408-3.221-2.415-6.642-4.428-10.265-5.636 4.228 1.007 8.252 1.61 12.479 2.214 2.618.201 5.232.604 7.85.806 1.611.201 4.629.604 7.447 1.207 2.415.604 4.429 1.007 5.837 1.61.202 0 .604.201.604.201 0-.402-.201-.604-.604-.805-1.609-1.208-3.622-2.013-5.837-2.818a44.83 44.83 0 0 0-6.44-1.811c-1.811-.402-5.032-1.208-8.856-2.014-6.44-1.811-13.887-4.025-16.906-6.037v-.602c4.629 1.61 9.661 2.014 14.491 2.416.806 0 1.612.201 2.416.201 5.031.604 10.466 1.409 15.296 3.019.806.201 1.611.604 2.215.805-.604-.805-1.208-1.408-2.215-2.013-3.824-2.616-10.064-4.226-14.491-5.434-.202 0-.403-.201-.806-.201-8.452-2.214-20.528-4.428-24.151-10.466-1.007-1.61-.806-3.623.403-4.227.804-.403 1.811-.604 2.213.403.403.603.202 1.208-.402 1.609-.604.403-1.209.202-1.61-.402-.201-.403-.201-.806 0-1.006-1.007.402-.806 2.214-.201 3.22 3.221 5.233 11.27 7.044 23.749 10.265.806.201 1.611.403 2.215.604C40.75 91.09 45.381 92.7 48.6 94.914c1.41.806 2.415 1.812 3.221 3.02-.806-2.616-1.811-5.032-3.221-7.648-1.005-2.214-2.213-4.428-3.42-6.843-1.41-3.623-3.422-10.465-4.228-14.894.201 2.818-.603 13.486-1.207 15.699-.202.202-.202.403-.202.604-.201.604-.201 1.208-.403 3.22-.402 1.208-1.007 1.611-1.208 1.41-.2 0-.603-.403-.401-.806.401-1.006 1.207-3.22 1.207-3.22.604-2.013-2.617-3.421-5.435-6.038-1.207-1.007-2.617-2.415-3.622-4.227-1.208.805-1.609 2.415-1.812 3.824-.603 3.824 2.014 7.648 4.832 7.648h.599c.604-.201 1.007-.402 1.007-1.006.403-1.409 0-2.818-1.007-3.824-.804-.806-2.012-1.61-3.823-2.014-.604 0-.604-.201-.604-.402h.604c1.609.402 2.818.805 3.823 1.61 1.41 1.208 2.014 2.818 1.611 4.629a3.203 3.203 0 0 1-1.611 2.013c-.603.201-1.005.201-1.811.201-2.818-.604-5.032-5.233-4.226-9.258.201-1.61 1.005-2.817 2.012-3.824-1.41-2.617-1.007-2.617-1.207-4.025.401.201.2 1.812 1.609 3.623 1.207-.604 2.415-1.007 3.622-.806.201 0 .403.201.604.201 2.818.403 5.435 3.02 6.039 6.642 0-1.409.201-3.221.201-4.227.401-4.226.401-8.05-.201-11.874 1.811 6.44 4.628 12.277 7.447 19.321.402.604.804 1.61 1.207 2.818 1.41 3.623 3.221 8.655 3.221 10.667.806-4.226-.403-10.062-1.61-13.887-.201-1.207-.805-3.019-1.611-5.032-2.012-6.843-4.831-17.108-4.427-21.334 1.408 3.421 2.817 7.245 4.427 10.868.403.805 1.007 1.812 1.208 2.617 1.609 3.421 3.422 7.245 4.628 11.271a47.617 47.617 0 0 1 1.811 7.245v.604c1.209-3.02.806-7.246 0-11.07-.603-2.616-1.207-5.031-1.811-7.044-2.415-8.654-6.641-20.73-3.219-26.97.804-1.409 2.012-2.012 3.219-2.012.202 0 .403 0 .604.2.804.403 1.408 1.208.804 2.215-.2.604-.804.806-1.408.604-.805-.403-1.006-1.208-.805-1.812.403-.202.604-.402.805-.402-1.006-.605-2.012.402-2.817 1.408-2.818 5.233-.604 12.881 2.817 24.756.202 1.006.604 2.012.806 3.018.402 1.208.804 2.416 1.005 3.623 1.41 5.837 2.014 10.869.202 14.693 2.818-3.019 5.233-7.045 7.648-10.667.806-1.006 1.611-2.214 2.214-3.22 2.014-2.415 4.026-4.63 6.24-6.642 1.207-1.208 2.617-2.416 3.823-3.421-.603.402-2.012 1.208-3.823 2.012-1.811 1.006-4.027 2.013-5.837 2.818-1.005.403-1.811.805-2.617 1.207-.804.202-1.408.403-1.811.604h-.604c-.604.201-1.207.604-3.018 1.207-1.208.403-1.812 0-1.812-.2-.202-.202 0-.806.604-.806.805-.201 3.22-.403 3.22-.403 2.617-1.006 1.61-6.038 3.42-10.869.201-.805.604-1.409 1.007-2.213-.202-.201-.604-.201-1.007-.201-1.005-.202-2.214.201-3.221.604-2.56.853-4.315 3.115-4.629 5.292v1.343c.067.426.2.835.403 1.214.202.403 1.007 1.007 1.811.806 2.415-.604 3.624-3.02 2.415-6.844-.2-.603 0-.805 0-.805.202 0 .202 0 .403.604 1.208 3.623.202 6.844-2.818 7.648-.603.403-1.408.201-2.214-.402-.403-.202-.804-.806-1.207-1.409-.403-1.409 0-3.221 1.207-4.83 1.007-1.611 2.617-2.818 4.429-3.422 1.005-.402 2.214-.604 3.42-.604.604 0 1.007 0 1.41.202.604-.806 1.007-1.41 1.207-1.812.403-.403.806-.403 1.41-1.006.201.403-.604.805-1.41 1.811-.2.201-.603.805-.805 1.208.402.2.605.2.805.402 1.007.806 1.611 1.812 2.012 3.019 1.007 2.617.604 5.434-2.012 7.85-.2.201-.403.201-.603.402.2 0 .403-.202.603-.202 1.208-.603 2.214-1.006 3.019-1.609 1.007-.403 2.013-.806 2.818-1.208 2.617-1.409 4.83-2.819 7.044-4.63-3.823 3.824-4.024 6.038-7.044 10.667-.806 1.208-1.811 2.415-3.02 4.025-.402.604-1.408 1.811-2.818 3.22-.805.805-1.811 1.611-2.617 2.617-2.818 2.616-5.636 5.435-6.843 6.239 2.416-.805 4.629-2.415 6.843-4.227 1.007-.805 1.812-1.609 2.617-2.416.604-.603 1.208-1.208 1.611-1.811 1.006-1.006 2.416-2.617 4.227-4.428 3.02-3.22 7.246-7.447 10.667-10.466 2.012-1.611 3.823-2.818 5.032-3.422l.604.201c-2.417 2.013-4.026 4.629-5.636 7.246-.806 1.611-1.611 3.221-2.818 4.63-2.012 3.019-4.83 6.239-7.85 9.057-2.013 1.811-4.027 3.623-5.837 5.032-.2.201-.403.402-.805.603h.805c1.811-.603 3.825-1.61 5.837-3.22 3.02-2.415 6.039-5.636 8.252-7.85l2.415-2.415c2.214-2.215 4.427-4.63 6.842-6.844 4.025-3.623 8.252-6.642 12.077-6.642 1.812 0 3.824 1.007 3.824 2.416 0 1.007-.402 2.214-1.408 2.214-.805 0-1.812-.806-1.812-1.61 0-.604 1.008-1.611 1.609-1.611.604 0 .805.806 1.008 1.007 0-1.207-1.408-1.812-2.818-1.812-4.227 0-7.648 3.22-12.479 8.252-2.012 2.013-4.226 4.428-6.842 7.045-.403.603-1.007 1.208-1.811 1.811-2.817 3.019-5.837 5.434-8.856 7.246-2.013 1.208-4.027 2.012-5.837 2.415-.603 0-1.005.202-1.609.202.604.2 1.007.2 1.609.402l5.837.604c2.818.202 5.636.202 8.454.604.805.201 1.408.201 2.213.403 2.012.403 4.427 1.006 6.842 1.61 2.214.604 4.227 1.208 5.837 1.811l4.226 1.207c-3.22-.805-6.64-1.408-10.063-2.013l-6.842-.604c-1.007-.2-2.213-.2-3.422-.402-1.408-.202-4.428-.806-7.246-1.409-2.214-.403-4.428-1.006-5.837-1.409-.2 0-.603-.201-.805-.201.203.402.402.604.805.805 1.611 1.208 3.624 2.013 5.837 2.818a51.087 51.087 0 0 0 6.238 1.811c1.208.201 2.618.604 4.429 1.007 2.012.402 4.427 1.006 6.842 1.61 5.837 1.609 12.077 3.42 14.493 5.434v.604c-4.631-1.812-9.662-2.013-14.493-2.415-2.213-.202-4.427-.402-6.842-.805-3.624-.604-7.447-1.409-10.667-2.416-.806-.401-1.609-.603-2.415-1.006.806 1.006 1.408 1.61 2.415 2.214 2.818 2.013 7.044 3.221 10.667 4.227 1.408.403 2.617.805 3.622 1.006 1.007.202 2.014.604 3.221.807 7.247 2.012 16.303 3.823 20.329 8.251.604.604 1.006 1.208 1.408 1.812 1.006 1.609.805 3.623-.402 4.227-.805.402-1.812.402-2.213-.402-.402-.604-.201-1.408.4-1.812.605-.201 1.209 0 1.611.604.201.402.201.805 0 1.006 1.006-.604.807-2.215.201-3.422-.402-.604-1.006-1.408-1.611-2.013-3.42-3.421-10.264-5.233-19.723-7.446-1.408-.403-3.019-.805-4.628-1.208-.604-.201-1.41-.403-2.214-.604-4.228-1.207-7.85-2.616-10.667-4.428-1.41-1.006-2.415-2.012-3.422-3.22 1.007 2.817 2.213 5.232 3.422 7.849 1.007 2.215 2.214 4.428 3.02 6.844.402.604.604 1.409 1.005 2.214 1.41 3.824 2.818 8.856 3.221 12.479 0-2.013.403-8.452 1.007-12.479 0-1.409.202-2.616.403-3.22l.201-.604c.2-.402.2-1.006.403-3.019.2-1.208 1.005-1.61 1.207-1.61.403.402.604.604.403 1.007-.604 1.61-1.208 3.019-1.208 3.22-.201.806.403 1.61 1.007 2.214.804.604 1.609 1.208 2.415 2.013 1.61 1.007 3.02 2.214 4.226 3.824.604.604 1.007 1.409 1.41 2.214 1.005-1.006 1.609-2.415 1.811-3.824.201-.805.201-1.409 0-2.214-.201-2.214-1.41-4.227-3.02-5.031-.604-.403-1.207-.604-1.811-.604-.604 0-1.611.402-1.812 1.208-.2 1.61.402 3.22 2.215 4.428.401.403.804.604 1.207.805.604.202 1.208.403 1.61.403.403.201.604.402.604.402 0 .201 0 .201-.604 0-.401 0-1.005-.201-1.61-.402-.806-.201-1.408-.604-2.214-1.208-1.408-1.208-2.012-2.817-1.609-4.63.401-1.408 1.811-2.213 3.42-2.012.202 0 .403 0 .604.201 2.013.604 3.624 3.421 3.825 6.44 0 .805 0 1.61-.201 2.415-.201 1.611-1.007 3.02-2.014 4.025 1.41 2.617 1.007 2.617 1.208 4.025-.403-.202-.201-2.013-1.609-3.622-.403.2-.806.401-1.41.604-.806.201-1.811.201-2.818 0-2.818-.604-5.435-3.019-6.037-6.843 0 1.609-.202 3.22-.202 4.428-.604 4.025-.403 8.051.202 11.875-1.41-5.435-3.422-10.467-5.837-15.699l-.604-1.208-1.207-2.415c-.201-.604-.403-1.409-.806-2.616-1.41-3.422-3.221-8.856-3.624-10.868-.603 4.226.604 10.063 1.812 13.887.202.604.401 1.208.804 2.013.604 1.61 1.208 3.623 1.812 5.837.604 2.214 1.207 4.629 1.811 7.044a49.053 49.053 0 0 1 1.207 6.843c.403 1.812.403 3.422.403 4.63l-.603.202a21.272 21.272 0 0 0-1.208-4.832c-.403-1.408-1.005-3.019-1.609-4.427a45.495 45.495 0 0 0-2.215-4.429c-1.005-2.214-2.012-4.629-3.018-7.044-.402-1.208-1.007-2.616-1.41-3.824-1.005-3.02-1.609-5.636-2.012-8.453-.403.805-.604 1.812-.604 2.817v2.416c0 1.006.201 2.214.201 3.22.604 3.421 1.61 7.044 2.216 9.661.603 1.609 1.005 3.422 1.609 5.232.401 1.409 1.006 3.221 1.207 4.83 1.611 6.441 2.818 13.083.402 17.108-.805 1.609-2.616 2.415-3.824 1.609-.804-.401-1.408-1.207-.804-2.012.403-.604 1.007-1.007 1.609-.604.604.401.806 1.006.403 1.609-.201.402-.603.604-.806.604 1.007.604 2.213-.403 3.02-1.409 2.214-4.025 1.41-9.46-.604-16.907-.202-.805-.401-1.811-.603-2.615-.806-2.616-1.609-5.233-2.415-8.454-.604-2.616-1.208-5.031-1.812-7.446 0-.403 0-.805-.201-1.208-.202-3.02-.202-5.636.402-8.051.16-.32.193-.768.302-1.141-2.717 3.153-4.729 6.172-6.741 9.191-.806 1.208-1.611 2.415-2.415 3.421-2.415 3.222-7.246 8.253-10.869 11.071 2.415-1.611 12.076-6.039 14.291-6.643.2 0 .401 0 .603-.201.604 0 1.208-.403 3.02-1.006 1.007-.403 1.408-.403 1.609-.202.201.403.201.805 0 1.007-1.408.402-3.622.604-3.622.604-2.616 1.007-1.208 6.441-3.624 11.673-.201.403-.604 1.008-.806 1.409 1.208.403 2.82.202 4.228-.401.604-.202 1.408-.604 2.012-1.008.806-.603 1.408-1.408 1.811-2.213 1.007-1.611 1.41-3.422.402-4.831-.604-.805-1.207-1.006-1.811-.805-2.415.604-3.624 3.22-2.415 7.044v.805c-.201-.2-.201-.401-.403-.603-1.408-3.623-.202-6.844 2.818-7.851.604-.201 1.005-.201 1.408 0a2.586 2.586 0 0 1 2.013 2.013c.605 1.61-.2 3.825-2.013 5.636-.201.202-.403.604-.804.805-.805.604-1.812 1.409-3.019 1.812-1.408.402-3.02.604-4.428.201-1.611 2.415-1.611 2.012-2.817 3.019-.202-.402 1.408-1.208 2.213-3.421a4.736 4.736 0 0 1-1.811-1.611c-.402-.603-.604-1.006-.806-1.609-1.007-2.616-.201-6.239 2.818-8.453-1.208.603-2.818 1.408-3.825 1.812-3.622 1.61-6.843 3.622-9.862 6.239 4.831-5.032 8.253-10.467 12.68-16.303.201-.201.604-.805 1.007-1.409l1.005-1.006c2.417-3.02 6.039-7.045 7.447-8.052-2.416.807-5.233 2.818-7.447 4.831l-1.811 1.812-1.811 1.812c-.202.201-.403.402-.806.604-2.012 2.415-6.24 7.044-10.265 10.868-2.415 2.215-4.629 4.227-6.641 5.636-.806.403-1.41 1.007-2.214 1.208l-.604-.201c1.005-.806 2.013-1.812 2.818-2.617 2.415-2.616 4.628-5.836 6.641-8.654 1.208-2.012 2.818-4.227 4.428-6.239 1.007-1.006 1.812-2.013 2.617-3.02 2.014-2.012 3.825-4.024 5.837-5.434l.604-.604c-.201-.201-.403-.201-.604 0-1.811.403-3.823 1.611-5.837 3.02-2.415 1.812-4.629 4.025-6.843 6.038-.604.805-1.007 1.208-1.609 1.61-1.612 1.609-3.221 3.623-5.233 5.635-1.813 1.812-3.825 3.824-6.039 5.636-3.422 2.818-7.044 5.032-10.466 5.032-1.811 0-3.422-1.208-3.422-2.616 0-.805.403-1.61 1.41-1.61.806 0 1.408.402 1.408 1.207 0 .604-.602 1.207-1.207 1.207s-1.007-.401-1.007-.603c-.201 1.207 1.41 1.811 2.818 1.811 3.422 0 6.842-2.012 10.466-5.232 2.012-1.61 3.825-3.623 6.039-5.636 1.811-1.812 3.823-3.824 5.835-6.037 3.019-3.02 5.435-5.435 7.85-7.246 2.014-1.208 3.825-2.215 5.837-2.817.604 0 1.007-.202 1.408-.202-.401-.201-.804-.201-1.408-.402l-5.837-.604c-2.818-.201-5.634-.201-8.653-.604-1.612-.201-4.025-.604-6.643-1.207-2.818-.604-5.836-1.61-8.251-2.415 1.609.805 5.233 3.019 8.251 5.232 2.215 1.611 4.026 3.02 4.629 3.623.402.403.402.604.604.604.202.402.806.604 2.214 1.812 1.007 1.007 1.007 1.61.805 1.812 0 .201-.604.402-1.007 0-.602-.805-2.013-2.817-2.013-2.817-1.206-1.006-3.017-.201-5.232.805-2.214 1.006-5.032 2.013-8.251 2.013 0 .805.401 1.409 1.005 2.013a4.701 4.701 0 0 0 1.41 1.409c.604.402 1.006.604 1.408 1.006 2.012.805 4.428 1.006 6.039.201.804-.402 1.408-1.006 1.609-1.609.201-.202.201-.604.201-1.007 0-.402 0-.604-.403-1.006-.804-.806-1.811-1.007-3.019-1.007-1.207.201-2.416.805-3.823 2.013-.202.202-.202.403-.403.604-.403.2-.604.402-.806.2l.403-.603.206-.206zm122.17-35.422c-2.416 4.025-5.436 7.85-10.668 10.466.604.202 1.611.202 3.221.202 2.818 0 5.232-.403 7.447-1.409 6.641-2.617 10.668-8.453 10.668-14.693 0-2.615-1.008-5.232-2.818-7.447-3.221 4.025-5.235 8.654-7.85 12.881zm0 9.862c-2.215 1.007-5.031 1.409-8.252 1.409-2.014 0-3.221-.202-3.824-.202-.402 0-1.006.202-5.232.202-3.02 0-3.625-.402-3.625-1.006 0-.603.605-.805 1.611-.805 2.014 0 6.844 1.006 7.045 1.006 4.629 0 8.051-7.849 12.277-15.095 2.213-3.421 4.629-6.642 7.246-8.855-1.812-1.409-4.428-2.214-7.246-2.617h-2.012c-8.254 0-15.297 6.24-15.297 14.089 0 2.012.805 3.22 3.02 3.22 5.232 0 11.068-4.83 11.068-13.887 0-1.006 0-1.006.201-1.006s.201 0 .201 1.409c0 8.453-5.838 14.089-11.27 14.089-3.221 0-5.033-2.617-5.033-6.239 0-6.441 8.654-12.479 17.109-12.479.805 0 1.408 0 2.012.2 3.02.202 5.836 1.209 7.648 3.02 2.012-1.811 4.428-3.22 4.629-3.22.402.603-2.014 1.208-4.227 3.623 1.811 2.012 3.02 4.83 3.02 8.05.001 6.238-3.622 12.477-11.069 15.094zm12.478-7.649l-1.207 3.824H165.132l-1.41-3.824h-.201zm-1.207 4.428l-1.008 2.617c-.201.403-.201.604-.201.805.807.402.807.604.807.604h-3.019c1.006-.202 1.209-.805 1.408-1.409l3.221-8.856c.402-.604.604-.403.805 0 .201.604 2.416 6.441 3.221 8.453.402 1.409.805 1.61 1.207 1.61h.604l-2.414.202c-.201-.202-.201-.202-.201-.604l-1.408-3.422H162.314zm10.065 1.611v-1.208c0-.806-.203-1.007-.404-1.409 0-.201-2.012-3.422-2.414-4.025-.404-.604-.807-1.007-1.008-1.208-.201 0-.402-.201-.604-.201.402-.202 1.408 0 1.408 0 .203 0 .605-.202 1.207-.202-.201.403-.201.403-.201.604.402 1.007 2.617 4.629 2.82 5.032.199-.604 2.012-3.824 2.414-4.227 0-.201.201-.603.201-.805 0-.604.604-.402.604-.402.201 0 1.209-.202 1.41-.202-.201.202-.402.403-.605.403-.402.201-.402.403-.805.805-.402.604-2.416 3.824-2.617 4.428-.201.604-.201 1.006-.201 1.409v2.617c0 .402.201.804.605.804h.604l-1.812.202h-1.408c.604-.202.604-.604.807-1.006v-1.409h-.001zm8.654 2.617c-.604 0-1.41 0-2.014-.202-.201-.202-.201-.202-.201-.604 0-.805.201-1.208.201-1.61l.201.604c.201 1.006 1.209 1.409 2.012 1.409 1.41 0 2.012-1.006 2.012-1.812 0-1.006-.4-1.609-1.609-2.616l-.602-.604c-1.41-1.208-1.812-2.013-1.812-3.02 0-1.609 1.209-2.617 3.02-2.617.402 0 .805.202 1.207.202h.604v1.61c-.402-.604-.807-1.208-2.215-1.208-1.006 0-1.609.604-1.609 1.611 0 .804.404 1.207 1.609 2.415 2.014 1.609 2.416 2.415 2.416 3.622 0 .604-.201 1.611-1.207 2.416-.605.404-1.21.404-2.013.404zm-65.816-4.228v-5.434c0-.604 0-.805-.604-.805l-.604-.201a4.526 4.526 0 0 1 1.811 0c.201 0 3.02 0 3.221-.202h.604c.402.202.203.403.203.806v.805c-.402-.604-.605-.805-1.41-1.007h-1.811l-.201 4.026 2.414.201c.402 0 .605-.201.605-.201.402 0 .199.201.199.603v1.006c-.402-.604-.402-.805-1.006-.805-.402 0-1.812-.202-2.012-.202l-.201 1.409v2.416c0 1.006.4 1.208 1.609 1.208.402 0 1.006 0 1.41-.201.402-.201.602-.402.602-1.006.201.202.201 1.006 0 1.409 0 .403-.199.403-.602.403-2.217 0-3.221-.202-3.625-.202h-1.411c.605-.202.807-.604.807-1.006v-3.02h.002zm-20.932-2.415V89.682c0 .402.201.804.604.804h.604l-1.811.202h-1.41c.604-.202.604-.604.806-1.006v-4.429l-6.039-.201-.202 1.61c0 1.409 0 2.416.202 3.02 0 .402 0 .804.403.804h.806l-2.012.202h-1.41c.604-.202.806-.604.806-1.006v-8.454c0-.604 0-.805-.604-.805l-.604-.201a4.536 4.536 0 0 1 1.813 0c.2 0 1.005-.202 1.408-.202-.604.403-.604.604-.806 1.208v3.019l6.24.403v-3.422c0-.604-.201-.805-.604-.805-.202-.201-.403-.201-.604-.201.806-.202 1.812 0 1.812 0s1.005-.202 1.408-.202c-.604.403-.806.604-.806 1.208v3.019zm6.24 0V89.682c0 .402.201.804.604.804h.602l-1.811.202h-1.408c.605-.202.605-.604.805-1.006v-8.454c0-.604-.199-.805-.604-.805.201-.403 1.006-.201 1.207-.201 0 0 1.008-.202 1.41-.202-.604.403-.805.604-.805 1.208v3.019zm8.051-3.623v9.058c0 .402.201.804.604.804h.602l-1.811.202h-1.408c.604-.202.604-.604.805-1.006v-9.058l-2.215.202c-.805 0-1.205 0-1.406.402-.201.403-.201.604-.404.604 0-.403.203-1.61.404-1.61.201-.403.201-.202.602-.202.402 0 1.008.202 1.209.202h5.232c.604 0 .807-.202 1.006-.202.605 0 .605 0 .605.202 0 .402-.203 1.409-.203 1.409-.199-.604-.602-.805-1.811-.805l-1.811-.202z"/></g></svg>