<svg height="908" width="2500" xmlns="http://www.w3.org/2000/svg" viewBox="0 0 303 110"><g fill="none" fill-rule="evenodd"><path d="M0 0h303v110H0z" fill="#26241f"/><g fill="#fff" fill-rule="nonzero"><path d="M141.717 40.629l-8.93 27.058h-5.005l-7.111-20.222-7.166 20.222H108.5l-8.921-27.058h5.517l6.256 20.449 7.109-20.507h4.387l7.109 20.507 6.256-20.449h5.517zm6.403-5.527c-2.103 0-3.584-1.423-3.584-3.36 0-1.936 1.473-3.361 3.584-3.361 2.049 0 3.527 1.425 3.527 3.362 0 1.936-1.483 3.36-3.527 3.36zm2.743 32.585h-5.485V40.63h5.46v27.058h.025zm20.294-22.045h-.227a7.162 7.162 0 0 0-2.962-.569c-2.389 0-3.867 1.538-4.438 2.277-.512.742-1.645 2.848-1.645 6.837v13.5h-5.463V40.63h5.46l-.05 4.17h.17c1.309-3.077 3.755-4.67 6.657-4.67 1.82 0 2.844.456 2.844.456l-.346 5.057zm27.11 9.797h-20.819c.275 5.357 3.697 8.603 8.702 8.603 5.063 0 8.305-2.747 8.93-3.134l2.276 3.134c-.343.275-3.812 4.271-11.889 4.271-8.019 0-13.536-5.581-13.536-14.184 0-8.542 6.2-14.008 13.712-14.008s12.796 5.356 12.796 12.931a23.609 23.609 0 0 1-.172 2.387zm-5.005-3.645c-.058-3.021-2.332-7.748-7.792-7.748-5.403 0-7.791 4.499-7.953 7.748zm22.584 15.61c-1.576.605-3.25.913-4.937.91-2.844 0-4.607-1.083-5.745-2.791-1.138-1.709-1.371-3.816-1.371-8.09v-12.36h-3.988v-4.395h3.988v-8.08h5.46v8.08h6.483v4.395h-6.489v12.248c0 2.277.058 3.815.683 4.944.513.854 1.25 1.373 2.787 1.373a6.573 6.573 0 0 0 2.786-.626zm25.565.283h-5.287l-.058-3.42c-1.08 1.14-3.64 4.044-8.59 4.044-5.004 0-9.324-3.134-9.324-8.375 0-5.299 4.322-7.966 10.578-8.26l7.224-.274v-1.083c0-4.1-2.787-6.152-6.711-6.152-3.925 0-7.224 1.766-8.134 2.334l-1.646-3.645a20.785 20.785 0 0 1 10.109-2.727c4.492 0 7.108 1.252 8.93 3.076 1.82 1.882 2.9 4.159 2.9 8.773v15.723l.01-.014zm-5.403-13l-6.307.398c-4.388.228-6.143 2.107-6.143 4.67 0 2.562 1.99 4.669 5.572 4.669 3.527 0 5.858-2.392 6.881-3.93v-5.807zm24.688 13.626c-4.264 0-7.404-1.82-9.324-4.842l-.058-.055v14.868h-5.463V40.63h5.233v4.27h.115c2.386-3.188 5.628-4.77 9.61-4.77 7.953 0 13.024 5.982 13.024 14.008s-5.118 14.176-13.137 14.176zm-1.023-23.754c-5.402 0-8.59 4.101-8.59 9.515s3.188 9.57 8.59 9.57c5.403 0 8.59-4.159 8.59-9.57s-3.187-9.515-8.592-9.515zM47.326 55.025a2.12 2.12 0 0 1-1.5-3.615l10.997-11.007a2.112 2.112 0 0 1 2.952.038 2.12 2.12 0 0 1 .038 2.956l-10.99 11.015a2.107 2.107 0 0 1-1.497.613zm1.898 11.113a2.12 2.12 0 0 1-1.495-3.615l20.19-20.222a2.112 2.112 0 0 1 3.58.928 2.12 2.12 0 0 1-.59 2.066L50.719 65.52c-.397.397-.935.62-1.495.618zm11.08 1.884a2.12 2.12 0 0 1-1.495-3.615l10.992-11.009a2.112 2.112 0 0 1 3.58.928 2.12 2.12 0 0 1-.59 2.066l-10.993 11.01a2.107 2.107 0 0 1-1.494.62z"/><path d="M90.622 35.415L77.227 22a20.58 20.58 0 0 1-3.565 3.23 11.08 11.08 0 0 1-2.125 1.217c-.115.05-.228.09-.34.132-.238.095-.478.18-.722.253h-.021a7.414 7.414 0 0 1-.848.197l-.167.028c-.088 0-.176.036-.274.044h-.162a9.014 9.014 0 0 1-2.054.014c-.225-.022-.447-.064-.67-.1h-.057c-1.92-.334-3.683-1.25-5.469-2.831l-1.437-1.272-1.453 1.285c-1.786 1.583-3.549 2.497-5.469 2.832h-.057c-.222.039-.442.08-.67.1a9.014 9.014 0 0 1-2.054-.014h-.161c-.088 0-.176-.03-.275-.044l-.167-.028a7.414 7.414 0 0 1-.847-.198h-.022a8.637 8.637 0 0 1-.722-.252l-.34-.132a11.086 11.086 0 0 1-2.125-1.217A20.58 20.58 0 0 1 41.394 22L28 35.415s5.21 4.258 4.451 11.537c-.195 1.9-.721 3.89-1.185 5.812-1.19 4.972-2.424 10.114-.26 15.17 2.397 5.604 6.993 9.065 21.098 15.311a86.87 86.87 0 0 0 4.593 1.87l.099.033 2.498.825h.025l2.498-.825.1-.035a81.121 81.121 0 0 0 4.593-1.87c14.104-6.233 18.7-9.708 21.098-15.311 2.164-5.057.932-10.2-.26-15.17-.462-1.924-.988-3.912-1.186-5.818-.737-7.271 4.46-11.529 4.46-11.529zm-9.418 12.171a60.29 60.29 0 0 0 1.28 6.345c1.048 4.37 2.038 8.499.527 12.028-2.246 5.25-6.87 8.458-22.8 14.443l-.906.297-.905-.297c-15.925-5.982-20.549-9.19-22.795-14.454-1.511-3.532-.521-7.658.526-12.028.54-2.09.968-4.208 1.281-6.345.672-5.219-1.278-9.46-2.72-11.789l6.856-6.867a14.524 14.524 0 0 0 17.513.604l.244-.208.244.208a14.585 14.585 0 0 0 17.541-.587l6.856 6.867c-1.456 2.323-3.406 6.575-2.742 11.783z"/></g></g></svg>