<svg viewBox="0 0 1151.0999999999997 329.9" xmlns="http://www.w3.org/2000/svg" width="2500" height="716"><g fill-rule="evenodd"><g fill="#3f3f40"><path d="M1127.2 145.8l-38.3 100.9-38.2-100.9h-64.5v-6.4c0-10.5 1.4-18.5 5.2-24.1 3.8-5.5 9.4-8.3 16.7-8.3s6.7.5 10.1 1.5 6.3 2.3 8.6 4l5.5-16.3c-4-2.5-8.5-4.5-13.4-5.9-5-1.4-10-2.1-15.2-2.1-12.3 0-22 4.6-29.1 13.8s-10.7 21.9-10.7 38.1v5.7h-17.7v20.7h17.7v107.2h21.9V166.5h49.9l41.3 107.2-3.2 8.2-.2.5c-1.2 3.7-6.3 15.4-13 20.1s-9.5 5-22.9 5v22.4h1.1c14 0 22.4-.5 34.5-9 13.3-9.3 20.2-27.8 21.3-31l56.5-144.1zM899.7 273.7h22.4V145.8h-22.4zM910.9 88.3c-7.3 0-13.3 6-13.3 13.4s6 13.4 13.3 13.4 13.3-6 13.3-13.4-6-13.4-13.3-13.4M847.4 227.5c-2.2 5.9-5.3 11.1-9.3 15.5s-8.6 7.9-13.8 10.4-10.8 3.8-16.8 3.8-11.6-1.3-16.8-3.8-9.8-5.9-13.7-10.3c-3.9-4.3-7-9.4-9.2-15.3-2.2-5.8-3.4-12.2-3.4-19s1.1-13.2 3.4-19.2c2.2-5.9 5.3-11.1 9.2-15.5s8.5-7.9 13.7-10.5 10.8-3.9 16.8-3.9 11.6 1.3 16.8 3.8 9.8 6 13.8 10.4 7.1 9.6 9.3 15.5 3.4 12.2 3.4 18.9-1.1 13.2-3.4 19.2zm25.7-19.2V90.8h-22.4v78.1c-11-24.3-35.2-27.6-41.6-28.1h-1.6c-9.6 0-18.4 1.8-26.5 5.5-8 3.7-14.9 8.6-20.6 14.8s-10.2 13.4-13.4 21.6-4.9 16.9-4.9 26.1 1.6 17.6 4.7 25.8 7.6 15.4 13.3 21.6 12.6 11.1 20.6 14.8 16.9 5.5 26.7 5.5 18.7-1.8 26.7-5.5 15-8.6 20.8-14.8 10.3-13.4 13.4-21.6 4.7-16.8 4.7-25.8v-.2zM700.8 227.5c-2.2 5.9-5.3 11.1-9.3 15.5s-8.6 7.9-13.8 10.4-10.8 3.8-16.8 3.8-11.6-1.3-16.8-3.8-9.8-5.9-13.7-10.3c-3.9-4.3-7-9.4-9.2-15.3-2.2-5.8-3.4-12.2-3.4-19s1.1-13.2 3.4-19.2c2.2-5.9 5.3-11.1 9.2-15.5s8.5-7.9 13.7-10.5 10.8-3.9 16.8-3.9 11.6 1.3 16.8 3.8 9.8 6 13.8 10.4 7.1 9.6 9.3 15.5 3.4 12.2 3.4 18.9-1.1 13.2-3.4 19.2zm7.4-66.6c-5.7-6.2-12.6-11.1-20.8-14.8-8.1-3.7-17-5.5-26.6-5.5s-18.4 1.8-26.5 5.5c-8 3.7-14.9 8.6-20.6 14.8s-10.2 13.4-13.4 21.6-4.8 16.9-4.8 26.1 1.6 17.6 4.7 25.8 7.6 15.4 13.3 21.6 12.6 11.1 20.6 14.8 16.9 5.5 26.7 5.5 18.7-1.8 26.7-5.5 15-8.6 20.8-14.8 10.3-13.4 13.4-21.6 4.7-16.8 4.7-25.8-1.6-17.9-4.8-26.1-7.7-15.4-13.4-21.6zM569.7 145.8l-31.4 93.7c-.8 2.4-1.5 4.9-2.1 7.1-.6-2.2-1.4-4.8-2.2-7.1l-31.9-93.2h-19.8l-31.9 93.2c-.8 2.3-1.6 4.9-2.2 7.1-.6-2.2-1.4-4.7-2.1-7.1l-31.4-93.7h-22.5l44.5 127.9h24.7l28.5-86.4c.9-2.3 1.6-4.8 2.3-7 .6 2.2 1.4 4.6 2.3 7l28.5 86.4h24.7l44.5-127.9z"/></g><path d="M207.8 329.9L159.6 304 289.3 58.1 337.5 84z" fill="#81b8e4"/><path d="M0 316.9h54.6V0H0z" fill="#583d8b"/><path d="M51.5 329.9L3.2 304 133 58.1 181.2 84z" fill="#e63719"/><path d="M212.5 313.9l-54.2 6.7-30.1-246.5 54.3-6.7z" fill="#ddd4d1"/><path d="M54.6 206.6v110.3H27.4L3.2 304z" fill="#4f0d0e"/><path d="M212.5 313.9l-28 3.5-24.9-13.4 42-79.7z" fill="#7099bb"/><path d="M181.2 84l-42 79.6-10.9-89.5 28-3.5z" fill="#c72e14"/></g></svg>