<svg enable-background="new 0 0 2500 287.6" viewBox="0 0 2500 287.6" xmlns="http://www.w3.org/2000/svg"><path d="m1004.6 57.3v181.4h-40v-79.3h-81.6v79.3h-40.1v-181.4h40.1v68.8h81.6v-68.8zm-335.6 32.9h51.8v148.5h40v-148.5h51.9v-32.9h-143.7zm-264.9 76.2c0 31.6-16 43.6-39.3 43.6s-39.2-12-39.2-43.4v-61.3h-40.6v61.6c0 42.6 24.1 76 79.8 76 56 0 79.8-33.4 79.8-75.7v-61.9h-40.5zm-119.1-76.2h40.6v-32.9h-40.6zm119.1 0h40.5v-32.9h-40.5zm-294.6-32.9-37.4 130.6-32.9-130.6h-39.2l49.7 181.4h40.8l39.2-135.4 39.3 135.4h41.3l49.8-181.4h-38.8l-32.8 130.6-37.4-130.6zm378.8 0h88.5c50.5 0 71.1 28.7 71.1 59.6 0 20.8-12.4 40.8-35.4 51.2l40.8 70.6h-45.4l-34.9-62.3h-45.7v62.3h-39zm39 31.3v56.1h45.4c25.4 0 36.2-11.3 36.2-27.9s-10.8-28.2-36.2-28.2zm1896-31.3h-82.3v181.4h40v-58.2h42.4c55.7 0 76.7-28.7 76.7-61.6s-21.1-61.6-76.8-61.6m36.7 62.1c0 18.7-10.7 29.8-40.8 29.8h-38.2v-59.5h38.3c30 0 40.7 11 40.7 29.7m-454.4-66.1c-58.5 0-93.9 43.6-93.9 94.9 0 51.1 35.4 94.7 93.9 94.7s93.9-43.6 93.9-94.7c.1-51.3-35.4-94.9-93.9-94.9m53.9 94.9c0 37.8-20.8 61.8-53.9 61.8s-53.8-24-53.8-61.8c0-38 20.8-62.1 53.8-62.1 33.2 0 53.9 24.1 53.9 62.1m199.8-90.9h39v109.9c0 42.3-24.6 75.7-81.3 75.7-56.5 0-81.4-33.4-81.4-76v-109.6h39v109.3c0 31.3 17.4 43.3 42.4 43.3 24.9 0 42.3-12 42.3-43.6zm-711.7 90.9c0 38.2 20.8 62.4 56.4 62.4 22.4 0 32.8-7 39.5-10.9v-28.5h-42.1v-31.3h82.1v71.1c-9.5 10-33 31.8-82.1 31.8-58.5 0-93.9-43.4-93.9-94.7s35.4-94.9 96.5-94.9c46 0 65 21.5 73.6 30.5l-25.9 25.4c-8.7-9-20.5-23.1-47.8-23.1-35.5.1-56.3 24.2-56.3 62.2m176.4 90.5h39v-62.3h45.6l34.9 62.3h45.4l-40.7-70.5c23.1-10.5 35.3-30.5 35.3-51.3 0-30.8-20.5-59.6-71-59.6h-88.5zm84.4-150.1c25.4 0 36.2 11.5 36.2 28.2 0 16.6-10.7 28-36.2 28h-45.4v-56.2z"/><path d="m1395.2 111.8h-259.9v-111.8h108.2v43.8h43.5v-43.8h108.2zm-108.2 132.2v43.6c62.2-11.6 108.2-65.9 108.2-126.7v-5.5h-259.9v5.5c0 60.9 45.8 115.1 108 126.7v-43.6z" fill="#c00"/></svg>