<svg xmlns="http://www.w3.org/2000/svg" width="2500" height="2500" viewBox="0 0 192.756 192.756"><g fill-rule="evenodd" clip-rule="evenodd"><path fill="#fff" d="M0 0h192.756v192.756H0V0z"/><path d="M135.186 132.025s10.713 3.83 12.955-8.021c1.855-9.834-7.662-11.319-7.662-11.319s3.762-8.069 14.344-8.069c0 0-5.988-4.593-15.178.277 0 0 2.508-12.801 12.254-18.788 0 0-8.355.556-13.092 6.956-1.281 1.735-2.488 3.672-3.613 5.652C139 81.1 134.432 66.61 123.926 57.179c-1.074-6.082-8.354-16.059-13.031-22.763 1.883-.467 5.242-1.24 8.195-1.596 1.057-.13 1.461-2.929 1.492-4.085.682-.336 2.396-1.264 3.072-2.347.854-1.358 1.588-2.776 1.211-5.147a10.856 10.856 0 0 0-.17-.847c-.17-.77-.148-.781.066-.882.365-.172 1.326-.624 1.029-2.202-.275-1.482-1.139-2.387-1.789-2.711-.855-.43-1.43-.236-2.023.189-.387.278-1.031.74-1.471.824-.529-.751-2.359-3.048-4.803-2.904-1.949.114-2.914 1.719-3.275 2.969-.201-.986-.76-3.176-1.953-4.434l-.939-.992.123 1.361c.094 1.027.092 3.757-.891 4.883-.701-.399-2.387-1.156-4.07-.399-.672-.361-2.736-1.406-4.369-1.473-3.145-.129-5.887 1.112-8.377 3.782a4.033 4.033 0 0 1-3.199-1.191c-1.506-1.508-2.159-6.165-1.785-8.405l-.886-.305c-.162.297-3.992 7.371-2.256 12.496 1.482 4.371 5.078 4.93 6.29 4.991.18.745.625 2.523 1.196 4.446-12.765.299-22.3 1.441-22.3 1.441-.333-.424-1.167-3.307-2.06-4.795-.307-.983-1.041-.965-1.803-.634-.547.415-.211 1.185-.301 1.787-3.024.719-5.53 2.899-7.03 5.58 0 0-10.578 2.846-15.327 4.362-4.747 1.513-16.089 6.017-16.089 6.017l-8.861 1.952-.778.363c-.437.397-.95.9-.627 1.545.379.315.857.334 1.32.334 2.578-.514 5.067-1.307 7.618-1.657 4.495 3.234 8.638 6.787 11.854 10.782-2.938 2.165-7.525 3.046-11.286 2.369-2.075-.367-4.406-1.919-4.947-3.9-.489-1.512-.208-3.082-.121-4.462l-.147.019c-.993 1.169-1.591 2.43-1.999 3.73-.828 2.875.288 6.167 2.347 8.257l.931.879c-1.845-.383-3.61-2.074-4.604-3.104-.204-.272-.344-.731-.64-.843.311 2.069 1.442 3.888 3.175 5.296 5.852 4.237 14.289 2.791 20.92.637.737-.274 1.517-.64 2.219-.817a58.001 58.001 0 0 1 4.696 9.641l-7.792 4.932 8.367-3.359c1.706 4.887 2.842 10.043 3.433 15.329.279 2.497.447 4.978.515 7.44l-4.792 3.033 4.815-1.933c.008.522.013 1.042.011 1.56l-9.479 6.003 9.453-3.794a97.09 97.09 0 0 1-1.047 11.868c2.883-1.776 17.171-10.499 26.857-14.769-.393 1.436-.454 3.116-.093 4.845.195.942.499 1.821.887 2.615-.654.6-1.312 1.158-1.96 1.65a8.716 8.716 0 0 0-.211-.445c-.432-.85-.976-1.573-1.589-2.129-1.051-.952-2.304-1.411-3.526-1.158-2.514.522-3.947 3.867-3.197 7.468.065.314.146.619.238.915-.792.359-1.611.713-2.451 1.057l-.013-.021a5.893 5.893 0 0 0-1.119-1.362c-.844-.745-1.838-1.116-2.831-.949-1.805.308-3.036 2.293-3.117 4.736a41.54 41.54 0 0 1-3.344.75c-.621-.481-1.332-.717-2.046-.608-.657.1-1.225.474-1.663 1.033-.486.021-.965.031-1.432.019-5.881.182-9.806-7.041-16.039-4.765-2.177 1.021-4.722 2.656-4.97 5.191-.046 1.386.561 2.589 1.861 3.341 1.048.671 2.539.288 3.585-.204a104.897 104.897 0 0 0 1.953 3.113l-6.459 4.079 7.239-2.907a111.655 111.655 0 0 0 5.83 7.919h-.002s.587.859 1.265 1.463c2.675 2.377 10.144 8.472 18.588 10.58 10.584 2.646 20.887 3.62 27.431 2.926 0 0-16.01-2.926-18.937-4.312 0 0 15.177 0 20.33-2.089 0 0-6.544-.7-11.139-1.81 0 0 8.912-.695 10.858-.837 1.949-.138 5.71 0 5.431 3.06-.279 3.062-3.899 3.203-3.899 3.203s6.129 1.529 9.61-1.115c3.479-2.644 3.758-5.842 3.758-5.842s12.531 6.261 21.863 5.286c0 0-10.305-5.149-11.975-12.939 0 0 8.494 4.87 15.316 6.679 6.824 1.811 16.016 2.783 21.584 1.669.001-.002-13.646.835-18.243-9.606z"/><path d="M65.898 116.322c.536-.214 1.059-.436 1.583-.651l.14-.154.031-2.659-2.872 2.103c.415.368.795.827 1.118 1.361zM66.46 32.231l-1.298-2.883c-.841 1.226-.567 2.322-.12 3.164.272-.083 1.478-.311 1.418-.281zM74.847 108.062c.614.556 1.158 1.279 1.589 2.129l.932-.711-.366-2.822c-.712.474-1.455.933-2.155 1.404zM80.76 65.899l-15.115 3.259c.48 1.188.918 2.35 1.319 3.486l14.984-3.833a74.641 74.641 0 0 0-1.188-2.912zM84.168 75.834a55.372 55.372 0 0 0-1.194-4.145l-15.031 3.894c.497 1.593.92 3.114 1.277 4.548 3.436-.989 9.563-2.738 14.948-4.297zM45.777 39.716c3.084 2.816 5.417 5.729 7.612 8.585a81.994 81.994 0 0 1 11.165 18.282l15.229-2.847C74.281 52.007 66.258 42.05 62.672 37.892a108.338 108.338 0 0 0-1.442-1.652c-5.076.888-10.376 2.026-15.464 3.469.001.004.002.005.002.011.006-.004.009-.004.009-.004zM57.386 123.016l.006.031c.044.294.068.587.073.873.792-.355 1.577-.718 2.329-1.073a7.565 7.565 0 0 1-.353-.729c-.672.301-1.361.603-2.055.898zM48.698 125.784c-2.889.145-5.005-1.107-6.4-3.512-1.307-2.248-2.552-4.086-3.326-4.582.777.424 4.401 2.42 6.118 3.576 1.587 1.071 3.745 1.39 5.748 1.33.027-.367.086-.716.172-1.05-2.175-.032-4.488-.563-6.789-2.108-4.859-3.27-8.011-3.944-10.791-2.454 0 0 2.758-.434 4.345 1.251 1.587 1.684 2.837 3.369 4.139 5.721 1.299 2.354 4.809 3.607 8.083 2.837a16.936 16.936 0 0 0 1.688-.514 6 6 0 0 1-.463-.99c-.996.282-1.864.464-2.524.495zM66.731 118.322c.044.171.082.345.116.523a310.82 310.82 0 0 0 2.393-1.608c-.07-.117-.139-.233-.206-.356-.761.487-1.539.974-2.303 1.441zM57.55 120.495c-.314.084-.638.169-.971.254.039.067.077.13.114.196.538-.262.872-.454.857-.45zM100.646 88.889c10.121-11.924 10.121-27.474 10.121-27.474-.475-1.196-1.424-3.217-1.83-4.001a.02.02 0 0 0-.004-.008c.107.995.062 2.003.062 3.009-.02 14.953-11.402 30.851-21.145 41.212.14.297.268.603.382.921.88-.779 4.094-3.848 12.414-13.659zM84.801 98.039c.682.412 1.321.99 1.883 1.697.001 0 .004-.002.004-.004.025-.026.052-.052.077-.08 1.448-1.485 2.692-2.589 3.88-4.96 0 0-2.783 1.481-5.841 3.344l-.003.003zM101.988 21.632s-1.193.04-1.475-.878c-.291-.951.361-1.233.361-1.233s-.479-.32-1-.398c0 0-.635 1.273 0 2.072.64.797 1.636.677 2.114.437zM121.088 22.589c-.719-.04-2.193.279-2.193.279-.082.559-.719 2.072-.719 2.072.957.715 1.633 2.271 1.633 2.271 1.478-2.151 1.279-4.622 1.279-4.622zM116.578 29.586c1.254-1.493 1.121-3.692 1.121-3.692-.838 1.196-2.314 1.674-2.314 1.674.082.405-.129 1.293-.271 1.831.548.051 1.031.117 1.464.187zM105.986 22.553a15.142 15.142 0 0 0-2.127 2.242c.523.577.838 1.149.994 1.503.372-1.076.899-2.906 1.133-3.745zM106.461 22.156c.799 1.03 1.432 2.672 1.664 3.325.756-1.424 1.596-4.622 1.658-4.855a4.95 4.95 0 0 0-1.516.415c-.599.273-1.203.656-1.806 1.115zM113.207 21.421c-.697-.398-1.822-.874-3.141-.813.484.787 1.225 3.597 1.469 4.542.832-1.309 1.422-2.953 1.672-3.729zM118.834 30.078a5.673 5.673 0 0 0 .225-1.511c0-.678-.137-1.186-.266-1.519-.174 1.022-.838 2.114-1.176 2.617.453.117.856.252 1.217.413zM111.787 29.102l.213.001c.816.014 1.564.045 2.252.09a6.478 6.478 0 0 0-.389-3.827c-.269 1.368-1.476 2.995-2.076 3.736zM108.467 29.195a53.03 53.03 0 0 1 2.639-.093c-.244-1.127-.859-2.54-1.186-3.235-.221 1.096-.994 2.541-1.453 3.328zM102.178 29.803c.574-.079 1.49-.191 2.602-.306-.275-1.242-.99-2.419-1.342-2.948-.198.909-.981 2.646-1.26 3.254zM106.615 26.058c-.236 1.082-1.164 2.849-1.461 3.401a91.703 91.703 0 0 1 2.748-.228c-.179-.995-.923-2.485-1.287-3.173zM123.039 22.589s-.318-.279-.953-.04c0 0-.043 2.908-1.398 4.58 0 0 2.311-1.114 2.709-3.386.043-.222.064-.433.078-.636.002-.009.002-.017.002-.027-.19-.248-.516-.587-.438-.491zM118.057 21.792s-.387-.502-1.459-.364a.06.06 0 0 0-.02.003c-.744.155-1.389.338-1.428.733l.004.002c.832 1.52.918 3.368.391 4.365 0 .001 2.113-1.312 2.512-4.739z" fill="#fff"/><path d="M93.908 20.204c.001.009.004.016.004.022.514-.757 2.422-3.313 4.782-3.543 2.777-.268 5.459.983 5.594 1.744.111.634.037.865-.277 1.343.018-.008.033-.019.051-.028.1-.045.189-.102.283-.18 1.354-1.157.518-1.914-.043-2.232-.559-.319-3.668-1.952-5.9-1.475-2.229.479-4.304 2.434-5.023 3.427-.002-.001.396.334.529.922zM93.696 21.591s-.078-.995-.757-1.353c-.679-.359-1.276-.359-1.594-.359s-2.631-.317-3.469-1.273c-.836-.958-2.23-3.585-2.191-6.336 0 0-.024.073-.061.199v.007c-.147 1.338-.073 5.619 1.53 7.221 2.763 2.761 5.483.409 6.542 1.894zM105.871 18.008c.168.656-.256 1.034-.256 1.034.494-.436 1.418-.931 1.951-1.196.244-.122.404-.198.404-.198-1.277-1.076-2.514-.396-2.514-.396.205.246.322.47.387.671.011.029.022.057.028.085zM122.402 16.531c-.598.36-1.477.558-1.715.639 0 0 .117.599-.039 1.316 0 0-.721-2.553-2.512-3.466-1.797-.918-3.188-.201-3.748.675-.547.859-.48 2.176-.064 3.018.014.01.027.017.041.028 1.25.995 3.146 1.026 3.879.917-.971-.087-3.723-.536-3.098-2.806.736-2.672 3.885-.527 4.277.987.113.156.824 1.167.824 2.106 0 0 .4-.138.4-.801 0 0 .178-.796.936-.264.436.312.768.424 1.068.791l-.012-.032c-.199-.598-.559-1.833.6-1.992 0 0 .639-.078.996.676 0 0 .438-.595-.08-1.472-.52-.875-1.157-.678-1.753-.32zM99.473 23.844l.006-.001.135-.07c-.004.004-.01.004-.016.007-.111.046-.174.07-.174.07.015 0 .031-.003.049-.006zM101.803 22.816c1.592-.723 3.605-1.695 4.816-2.517 2.219-1.508 6.26-2.884 7.592-1.686l.059.052c.01.005.02.015.025.022-.203-.273-.984-1.205-2.377-1.238-1.637-.041-4.707 1.433-6.82 3.106-1.125.89-2.262 1.668-3.311 2.266.006 0 .01-.002.016-.005zM87.312 105.993c.22-.025.437-.05.652-.071a9.62 9.62 0 0 0-.193-1.641c-.756-3.618-3.413-6.124-5.942-5.6-.924.192-1.696.772-2.273 1.599 0-.002.002-.005.004-.006l.508-.189s-.002.009-.008.02a3.336 3.336 0 0 1 1.188-.506c2.526-.525 5.186 1.981 5.939 5.599.056.27.096.533.125.795zM86.701 110.304l-.036.096c.012-.006.022-.016.033-.025.671-.862 1.104-2.035 1.232-3.363-.198-.06-.386-.112-.571-.162.001.162 0 .318-.008.475-.055 1.076-.31 2.075-.65 2.979zM71.543 107.978c-.6.122-1.124.44-1.552.9-.074.116-.168.29-.211.399l-.038.136c.38-.334.821-.572 1.314-.674 2.101-.438 4.314 1.648 4.94 4.659.34 1.632.143 3.196-.442 4.357.076-.095.148-.196.219-.303.785-1.189 1.098-2.96.71-4.819-.623-3.01-2.838-5.094-4.94-4.655zM62.108 114.946c-.493.084-.918.34-1.279.704.024-.014.045-.031.069-.044-.015.032-.044.057-.056.092 0 0-.043.114-.103.312.276-.208.578-.36.923-.419 1.833-.31 3.68 1.568 4.124 4.196.242 1.422.026 2.821-.522 3.812a3.16 3.16 0 0 0 .171-.221c.741-1.007 1.077-2.596.798-4.239-.445-2.623-2.291-4.501-4.125-4.193zM60.172 116.548l.001-.008a.105.105 0 0 0-.008.018c.002-.002.004-.008.007-.01zM53.558 119.654c-.451.065-.841.316-1.168.668.05-.044.103-.087.155-.122a4.395 4.395 0 0 0-.162.329c.242-.181.508-.312.802-.356 1.499-.229 2.979 1.326 3.303 3.473.176 1.164-.023 2.259-.484 3.057a2.67 2.67 0 0 0 .229-.293c.56-.808.822-2.004.629-3.283-.325-2.148-1.805-3.7-3.304-3.473zM145.262 119.734c-1.195-4.43-8.078-5.007-8.078-5.007.559-5.195 5.477-9.185 5.477-9.185-4.084.835-6.961 4.731-6.961 4.731-.371-2.414 2.693-11.41 2.693-11.41-4.643 6.306-7.469 11.9-9.213 16.969-.578 1.688-1.758 3.555-3.098 5.329a.437.437 0 0 0-.031.044c1.566-1.468 4.984-4.908 6.535-8.351 0 .001-1.666 5.756-1.137 8.48 0 0 6.596-6.893 11.521-.83 0 0-1.137-2.046-2.348-3.109 0 0 5.576 2.034 4.404 8.576l-.006.032c.023-.066.039-.131.061-.197 0-.002 0-.002.002-.003.649-1.929.687-4.18.179-6.069zM118.803 130.591s-3.805-5.195-5.199-8.441c-1.393-3.25-4.176-9.558-6.59-12.991 0 0 1.76 5.29.834 9.557 0 0-2.135-5.568-8.914-7.699 0 0 3.811 5.473 3.16 10.296-.322 2.387-1.102 4.999-2.375 7.292h.002c.9-.626 5.254-3.944 5.043-9.353 0 0 1.893 2.367 2.723 5.321.797 2.853 2.916 7.678 4.656 10.143l-.002-.007c-.754-1.356-1.377-2.772-1.691-4.117-1.207-5.195-1.299-10.018-1.299-10.018s2.041 8.718 4.361 11.502c0 0-.279-4.27-.094-5.475 0 0 2.971 2.968 5.385 3.99zM102.725 135.279c-2.154-.771-7.094.308-11.17 1.272a7.273 7.273 0 0 1-.246.057c10.061-.699 10.965 2.517 10.965 2.517-4.807-3.132-13.033-.269-14.885.44.077-.008.149-.016.224-.022a67.19 67.19 0 0 1 1.812-.175c4.708-.388 8.026.461 9.723 1.464s1.006 3.934 1.006 3.934c3.473-1.312 5.813-8.328 2.571-9.487zM96.24 123.627c1.301 4.177-3.521 8.571-5.657 10.273-.002.001-.005.001-.007.003.052-.025.103-.05.153-.077.027-.01.052-.025.076-.036 3.808-1.881 7.568-4.767 7.646-8.998.156-7.714-8.41-6.479-8.41-6.479 5.677 4.137 1.925 9.98-4.288 14.168-.079.05-.154.104-.232.155 5.81-1.318 10.719-9.009 10.719-9.009zM115.221 59.854l4.363-.979.006-.002-2.824-5.932-4.449 1.064c.008.016.02.032.025.048a603.867 603.867 0 0 1 2.879 5.801zM111.09 51.545a.097.097 0 0 1 .008.019c.199.398.393.794.592 1.19a.16.16 0 0 1 .016.032l4.547-.925v-.001l-.674-1.415-.07.016-.873.215-3.546.869zM120.375 60.534l-4.326 1.037c.004.007.004.012.008.017.238.5.475.994.703 1.488.008.019.018.035.023.054l4.254-1.125.002-.003c-.213-.491-.436-.972-.652-1.445-.006-.007-.006-.015-.012-.023zM113.328 103.507a.54.54 0 0 1 .029-.046l.104-.153c.008-.014.018-.026.025-.041h.002c.328-1.335 1.061-5.195.574-11.437a79.549 79.549 0 0 1-1.869 2.742c-.078.112-.16.226-.24.338.682 2.71 1.25 5.722 1.375 8.594v.003zM111.387 92.827a79.52 79.52 0 0 0 2.397-3.592c.008-.01.012-.018.016-.024-.307-2.507-.811-5.329-1.582-8.458l-.004-.01a40.25 40.25 0 0 1-1.375 3.087c-.4.729-.941 1.628-1.607 2.655.004.002.004.003.004.006a71.246 71.246 0 0 1 2.151 6.336zM106.301 66.807a22.95 22.95 0 0 0-.188-1.177l.012.087-10.343 2.673c-.003-.007-.004-.02-.007-.031.346 1.367.612 2.655.817 3.856 3.983-1.174 7.299-2.167 9.129-2.751 0 0 .045-.155.047-.158.386-1.451.55-2.373.533-2.499zM105.492 62.827a61.371 61.371 0 0 0-.6-2.12v.002l-10.754 2.314c.305.85.583 1.677.832 2.482l10.517-2.683.005.005zM104.355 59.008v.002a83.129 83.129 0 0 0-.758-2.186l-4.451.637 3.686-2.646a86.838 86.838 0 0 0-3.293-7.329c-.432-.817-.939-1.767-1.48-2.773-2.915-5.197-6.233-9.54-9.335-11.208-.356-.171-3.986-.208-12.423.657l-.013.004c.628.716.928 1.069 1.521 1.775 8.049 9.594 12.83 18.115 15.626 25.218-.007-.022-.017-.045-.026-.07l10.946-2.081z" fill="#fff"/><path d="M116.783 63.13c-.006-.019-.016-.035-.023-.054 5.645 12.106 9.334 23.715 6.818 40.062 2.051-7.011 1.963-16.389 1.273-23.634 3.262 10.307 3.59 20.051 1.615 30.62 4.393-13.999.619-34.237-5.43-48.119l-4.253 1.125zM120.387 60.557v-.002c-.189-.41-.381-.815-.576-1.214 0 0-.17-.33-.227-.464l-4.363.979a.915.915 0 0 1-.033-.071h-.002c.295.602.584 1.204.871 1.804-.004-.005-.004-.01-.008-.017l4.326-1.037c.006.007.006.015.012.022zM116.252 51.861l-4.547.925a.16.16 0 0 0-.016-.032c.217.436.436.87.652 1.301-.006-.016-.018-.032-.025-.048l4.449-1.064c-.095-.202-.449-.934-.513-1.082z" fill="#c8c9cb"/><path d="M131.49 70.232c-3.084-8.996-10.734-13.169-10.773-13.039l1.486 3.355c7.273 4.791 10.963 15.07 11.779 17.601.078.23.152.583.152.583l.148.824c-.405-3.397-1.346-6.478-2.792-9.324z" fill="#fff"/><path d="M51.803 130.442c1.18-.541 6.218-2.128 12.139-5.07-.022.005-.044.013-.066.017-1.25.212-2.503-.428-3.448-1.595a117.78 117.78 0 0 1-3.078 1.463c-.317 1.563-1.246 2.74-2.498 2.93-.827.126-1.645-.205-2.329-.847-1.426.581-2.287.896-2.287.896a19.159 19.159 0 0 1-3.855.458c-6.384-.655-6.13-7.542-10.95-10.193-1.059-.478-2.35-.39-3.365.181-1.03.711-1.654 2.028-.953 3.053.53.686 1.378.829 2.199.784.501-.109.75-.329.891-.724.078-.345.011-.772-.426-.929-.276-.119-.625-.003-.798.228-.073.403.066.582.399.723-.173.146-.469.14-.667.079-.386-.167-.656-.587-.504-.997.316-.626 1.157-.775 1.857-.697.684.106 1.138.718 1.588 1.14 1.873 2.479 3.058 5.342 5.622 7.457 4.282 4.172 10.541 1.668 10.529 1.643zM70.026 118.306a65.233 65.233 0 0 1-3.028 1.93c.036 1.844-.576 3.47-1.6 4.394a67.454 67.454 0 0 0 4.717-2.706 85.832 85.832 0 0 0 2.92-1.922c-1.083-.106-2.139-.724-3.009-1.696zM82.405 112.836c-1.075-.421-2.084-1.25-2.904-2.367a93.599 93.599 0 0 1-2.253 2.081c.339 1.696.196 3.33-.314 4.639a144.288 144.288 0 0 0 5.471-4.353zM111.404 92.806v-.003a.108.108 0 0 1-.018.024 70.66 70.66 0 0 0-2.152-6.337c-2.154 3.35-5.623 8.085-9.916 12.875 1.82.559 3.43 1.412 4.846 2.441 2.611-2.889 5.039-5.876 7.24-9zM113.785 89.234a74.59 74.59 0 0 0 1.246-2.049c-.504-2.869-1.336-5.787-2.123-8.29a38.531 38.531 0 0 1-.691 1.856c.771 3.128 1.275 5.95 1.582 8.458-.004.006-.008.015-.016.024h.002v.001z" fill="#c8c9cb"/><path d="M90.501 108.057c-.77.68-1.545 1.349-2.32 2.003-.701 1.577-1.869 2.706-3.354 3.014-.125.026-.25.044-.375.056-8.035 6.443-15.341 11.264-16.931 12.298l.012-.038c-5.059 2.991-14.115 6.552-18.062 7.354-3.945.802-7.049-.934-7.049-.934 1.043.942.163 1.668 5.58 2.203s24.99-8.71 28.07-10.505c1.584-.924 3.886-2.383 5.745-3.583a30.63 30.63 0 0 0-4.836.833c4.872-3.74 9.261-5.404 12.694-6.08 1.637-1.178 3.242-2.4 4.818-3.674a15.362 15.362 0 0 0-3.992-2.947zM102.369 103.743a17.885 17.885 0 0 0-3.381-4.014 94.494 94.494 0 0 1-6.071 6.157c2.329.219 4.323.75 5.961 1.387.01-.005.016-.012.023-.019a116.943 116.943 0 0 0 3.468-3.511z" fill="#c8c9cb"/><path d="M108.855 50.014a230.51 230.51 0 0 0-.445-.947c-.082-.163-.16-.332-.25-.504-1.381-2.734-3.324-6.609-3.898-7.727-.957-1.874-1.676-3.785-1.793-3.944 0 0-7.377.039-6.776-7.291 0 0 .195 4.54 3.468 5.375 3.268.837 6.178-1.353 8.732-2.069 2.549-.718 6.457-2.073 9.766-1.394 0 0 .717.318 1.039-.238.314-.558-.123-.558-.441-.678-.32-.121-5.699-1.357-17.742.477 0 0 .719-7.967 7.494-10.716 3.801-1.541 6.084-.129 7.146 1.809l-.004-.002c.039-.396.684-.578 1.428-.733h-.035s2.43-.635 4.062-.198c1.637.438 2.234 1.117 2.434 1.355-.078-.096.248.243.438.492 0 .01 0 .018-.002.027.002-.004.006-.009.006-.014.135-1.863-.658-2.914-.84-3.454.004.011.01.023.012.032-.301-.367-.633-.479-1.068-.791-.758-.533-.936.264-.936.264 0 .663-.4.801-.4.801 0-.939-.711-1.951-.824-2.106.012.042.02.086.027.128 0 0-1.395-1.552-2.072-.16-.68 1.393 1.195 1.875 1.195 1.875s-.127-.004-.33-.023c-.732.108-2.629.077-3.879-.917-.008.007-.01.015-.016.022 0 0-.025-.037-.08-.097a1.559 1.559 0 0 0-.059-.052c-1.332-1.198-5.373.178-7.592 1.686-1.211.822-3.225 1.794-4.816 2.517l-.025.015c-.922.523-1.775.909-2.5 1.112 0 0 .076-.037.195-.099-.018.003-.033.006-.049.006l.174-.07c.559-.297 1.689-.937 2.07-1.47 0 0-2.113.239-2.59-.957-.535-1.332.281-2.23.281-2.23s-1.115-.399-3.43 1.595c0 0 1.635-2.312 3.549-2.472 1.771-.146 3.268 2.094 4.557 1.514a.062.062 0 0 0 .025-.017c-.018.009-.033.02-.051.028.314-.478.389-.709.277-1.343-.135-.761-2.816-2.012-5.594-1.744-2.36.23-4.268 2.787-4.782 3.543 0-.006-.003-.013-.004-.022v.004c.083.367.062.833-.212 1.383-1.059-1.485-3.778.867-6.542-1.895-1.603-1.603-1.677-5.883-1.53-7.221-.303 1.026-1.556 5.69-.182 8.48 1.558 3.146 5.782 4.5 7.738 2.23 0 0-.241 1.595-1.475 2.271 0 .001.515 2.75 1.712 6.057.94 2.597 6.143 11.993 8.561 16.905.115.227.223.449.33.663.176.354.338.678.475.949.027.055.057.109.082.158a87.11 87.11 0 0 1 4.721 11.817c.732-1.553.828-3.56 1.176-5.241.066.216.121.433.176.649.406.784 1.355 2.805 1.83 4.001 0 0 0 15.549-10.121 27.474-8.321 9.812-11.534 12.88-12.414 13.659.178.492.325 1.008.437 1.547.124.59.197 1.176.224 1.746a29.398 29.398 0 0 1 1.481-.063c11.488-10.085 20.728-24.941 23.08-40.043 1.166 4.045 2.348 5.113.918 9.434 5.539 13.418 5.115 28.438-.506 41.571.523 1.221 1.23 2.699 1.934 4.116.178-.081.398-.177.662-.288 12.957-27.164 4.234-46.226-7.564-70.464-.013-.033-.029-.062-.043-.093z" fill="#c8c9cb"/><path d="M115.508 50.461l.07-.016-.092-.193a.567.567 0 0 0-.062-.183l-.041-.071c-.156-.288-.32-.607-.484-.946-1.572-3.26-3.291-8.558-3.291-8.558-2.277-.486-7.646-3.496-7.646-3.496.717 1.724 4.064 8.661 5.838 12.065.186.359.355.676.502.947.074.132.141.255.203.364.195.397.395.795.59 1.187.002 0 .002.003.004.003l-.008-.019 3.545-.869.872-.215zM85.114 119.94c-4.549 3.118-8.104 5.3-10.206 6.533a145.052 145.052 0 0 1-6.158 2.985c-15.218 6.953-22.349 5.565-22.349 5.565 5.132 1.301 8.261 1.475 20.088-1.739 1.902-.518 3.775-1.283 5.578-2.195 4.685-1.946 12.216-5.189 17.169-7.9-.177-2.125-1.964-2.993-4.122-3.249zM102.404 106.169c.002.01.008.016.014.025a79.287 79.287 0 0 1-1.871 1.818c2.648 1.315 4.006 2.724 4.006 2.724-.076-2.056-.609-3.872-1.336-5.427-.51.546-.813.86-.813.86zM94.872 112.855a314.4 314.4 0 0 1-1.872 1.42c2.631-.106 4.172.356 4.172.356a17.262 17.262 0 0 0-1.562-2.354c-.243.193-.489.385-.738.578zM111.953 94.91a98.867 98.867 0 0 1-2.498 3.325 154.832 154.832 0 0 1-3.986 4.615c1.732 1.521 3.133 3.29 4.254 5.038 1.346-1.414 2.572-2.882 3.605-4.384-.125-2.872-.693-5.884-1.375-8.594z" fill="#c8c9cb"/><path d="M114.062 91.83c.486 6.241-.246 10.102-.574 11.437.506-.753.967-1.515 1.367-2.285 1.154-4.059.504-11.234.504-11.234s-1.098 1.911-3.166 4.824a79.549 79.549 0 0 0 1.869-2.742zM77.87 130.903v-.002s-.013.011-.039.018l-2.653 1.128v.007c-3.022 1.224-8.145 3.088-13.087 3.939 0 0 7.167.125 13.521-1.634l1.376-.343c6.35-2.062 10.131-4.982 11.58-7.826a70.45 70.45 0 0 1-3.627 1.717l-7.071 2.996zM110.752 109.616a36.942 36.942 0 0 1 1.801 3.769c1.238-3.308 2.084-6.54 2.432-8.577a76.682 76.682 0 0 1-4.233 4.808zM84.168 75.834c-5.385 1.559-11.512 3.307-14.948 4.296 1.953 7.807 2.023 13.026 2.023 13.026l14.209-6.506c.089-3.578-.397-7.213-1.284-10.816zM98.51 84.986c4.062-5.698 6.266-12.032 7.211-15.522-1.83.584-5.146 1.577-9.129 2.751 1.068 6.294.408 10.279.177 11.369l-.022.106c0 .004-.003.006-.003.01a1.966 1.966 0 0 1-.018.079l-.001.004-.014.057c0 .003 0 .003-.003.006a.077.077 0 0 1-.008.031c-.001.007-.004.012-.004.012l3.354-1.579c-.088.182-.184.36-.279.541a28.338 28.338 0 0 1-1.261 2.135zM67.943 75.583l15.031-3.894a66.513 66.513 0 0 0-1.025-2.877l-14.984 3.833a79.52 79.52 0 0 1 .978 2.938zM80.76 65.899a76.678 76.678 0 0 0-.977-2.163l-15.229 2.847c.384.869.75 1.727 1.091 2.575l15.115-3.259zM106.113 65.63v-.003a40.203 40.203 0 0 0-.621-2.801l-.006-.003-10.516 2.682c.307.987.574 1.937.805 2.854.003.011.004.023.007.031l10.343-2.672-.012-.088zM104.355 59.008l-10.947 2.081c.01.025.02.048.026.07.25.634.485 1.255.704 1.865l10.754-2.314v-.002a52.775 52.775 0 0 0-.537-1.697v-.003z" fill="#c8c9cb"/><path d="M19.458 57.258c-.106 4.639 5.396 7.983 5.396 7.983-1.077.646-3.885.322-3.885.322 8.959 4.422 20.94-1.185 20.94-1.185-.972-1.942-4.101-5.718-4.101-5.718-13.492 8.955-18.35-1.402-18.35-1.402zM63.097 30.47c-2.061 1.121-3.56 3.236-3.56 3.236l3.992-.862c-.537-.541-.432-2.374-.432-2.374zM91.309 136.608c.083-.018.163-.036.246-.057l-.005.001c-2.042.487-3.872.942-5.021 1.127-3.398.539-13.769 1.379-13.769 1.379 1.078-.155 7.945-1.619 10.569-2.468 1.155-.375 4.198-1.212 7.254-2.69 2.137-1.702 6.958-6.097 5.657-10.273 0 0-4.909 7.691-10.719 9.01.079-.052.154-.105.232-.155a34.213 34.213 0 0 1-7.363 3.721c-9.645 3.477-29.167 2.312-29.167 2.312 9.799 7.331 21.219 8.873 21.219 8.873-1.079-.387-4.473-3.01-4.473-3.01 6.25.465 15.202-.152 15.202-.152-3.704-.233-14.352-2.853-14.352-2.853 4.054.273 15.095-1.228 20.784-1.829l.01-.001-.224.022c1.852-.709 10.078-3.572 14.885-.44-.001 0-.905-3.216-10.965-2.517zM140.623 117.396c1.211 1.063 2.348 3.109 2.348 3.109-4.926-6.062-11.521.83-11.521.83-.529-2.725 1.137-8.48 1.137-8.48-1.551 3.442-4.969 6.883-6.535 8.351.01-.016.02-.029.031-.044-2.939 3.882-6.674 7.297-6.674 7.297.533.748 1.09 1.436 1.66 2.073 2.086-1.964 6.977-6.756 8.783-10.148 0 0-3.623 8.721-6.6 12.293.098.088.199.176.301.261a.436.436 0 0 1 .041.024c-.049-.04-.098-.077-.148-.12 1.186.641 6.027 3.152 10.121 3.904 0 0-6.41-7.53-.721-13.773-.002.007-.008.015-.01.021.094-.188.186-.346.262-.473 1.115-1.763 5.107-4.639 8.168-1.947 3.064 2.687.189 6.861.189 6.861 1.299-3.245-.279-5.658-1.764-6.123-1.486-.462-2.693.65-2.693.65s.152.021.379.1c1.105.297 3.848 1.616 1.73 7.288 0 0 4.051.604 5.893-3.303l.027-.074c1.172-6.542-4.404-8.577-4.404-8.577z" fill="#7e97c3"/><path d="M112.143 134.715c-1.74-2.465-3.859-7.29-4.656-10.143-.83-2.954-2.723-5.321-2.723-5.321.211 5.408-4.143 8.727-5.043 9.353-1.303 2.34-3.127 4.341-5.52 5.42 0 0 7.135-2.036 9.924-6.204.07-1.438.322-2.377.322-2.377 1.184 10.165 10.471 15.031 12.865 16.494-.01-.002-.018-.006-.025-.009l.041.021c.059.018.117.034.176.053 0 0-3.209-3.412-5.363-7.293l.002.006z" fill="#7e97c3"/><path d="M80.068 100.085l-.508.189c-.002.001-.004.004-.004.006-.3.316-.402.659-.402.659s-1.865 3.799.795 7.936c1.593 2.478 3.081 3.218 4.376 3.012.9-.127 1.709-.696 2.393-1.457 0 0 .015-.036.036-.096-.019.016-.037.026-.056.04a.11.11 0 0 1-.033.025c-1.575 1.145-3.584 1.064-5.801-2.382-2.559-3.974-.936-7.634-.805-7.913.006-.01.009-.019.009-.019z" fill="#c8c9cb"/><path d="M54.052 109.176l-.022.014c-.049.767-.083 1.519-.149 2.305 0 0 7.236-3.909 15.588-8.331 6.966-3.688 14.705-7.729 19.674-10.162l4.124-1.886.274-.128a44.414 44.414 0 0 0 2.957-3.232l-2.706 1.298c-.445.392-.748.539-.748.539L56.5 107.948c.01-.105 3.531-38.724-25.304-59.76-.427-.313-.86-.619-1.301-.921 5.459 3.847 26.796 21.179 24.157 61.909z" fill="#7e97c3"/><path d="M60.842 115.698c.012-.035.041-.06.056-.092-.024.013-.045.03-.069.044a1.685 1.685 0 0 0-.22.16c-.038.035-.075.066-.11.104a1.293 1.293 0 0 0-.124.151c-.052.073-.1.15-.135.242 0 0-1.118 2.903.133 5.675 1.203 2.66 4.051 3.093 4.947 1.614.008-.014.02-.023.028-.037l-.01.005c-1.203.699-3.358.035-4.361-2.188-1.009-2.232-.48-4.547-.236-5.366.057-.198.101-.312.101-.312zm-.67.85c-.003.002-.005.008-.007.01a.105.105 0 0 1 .008-.018l-.001.008z" fill="#c8c9cb"/><path d="M60.842 115.698c.012-.035.041-.06.056-.092-.024.013-.045.03-.069.044a1.685 1.685 0 0 0-.22.16c-.038.035-.075.066-.11.104a1.293 1.293 0 0 0-.124.151c-.052.073-.1.15-.135.242 0 0-1.118 2.903.133 5.675 1.203 2.66 4.051 3.093 4.947 1.614.008-.014.02-.023.028-.037l-.01.005c-1.203.699-3.358.035-4.361-2.188-1.009-2.232-.48-4.547-.236-5.366.057-.198.101-.312.101-.312zM52.544 120.2a1.454 1.454 0 0 0-.155.122c-.102.087-.2.188-.291.313 0 0-.912 1.057-.568 3.111.056.445.175.92.39 1.409.017.042.038.081.056.122.582 1.388 1.608 2.189 2.555 2.231.559.039 1.123-.215 1.487-.754-.006.005-.01.005-.008.005-1.123.778-2.765-.098-3.629-2.076-.809-1.846-.301-3.464.001-4.155.075-.165.136-.281.162-.328zM69.78 109.277c.043-.109.137-.283.211-.399l.038-.067c-.324.216-.666.63-.823 1.045 0 0-1.03 3.273.58 6.271.915 1.697 2.208 2.613 3.426 2.728.041.003.083.005.126.006.07.004.142.01.212.008.766-.014 1.506-.378 2.048-1.09a.043.043 0 0 0-.005.001c-1.523 1.149-3.832.367-5.229-2.23-1.416-2.636-.792-5.486-.621-6.136.022-.087.037-.137.037-.137z" fill="#c8c9cb"/><path d="M128.102 112.771c.277-.693.562-1.463.867-2.325.82-2.328 1.75-5.302 2.785-9.117-.285-.895-1.008-1.566-1.504-2.341-.299 2.558-1.23 7.115-2.494 11.458-.736 2.535-1.588 4.997-2.494 6.948 1.142-1.733 2.166-3.393 2.84-4.623zM133.174 86.12c-.773-6.85-2.615-12.376-7.725-16.932 1.605 4.248 2.705 8.112 3.557 12.667 1.715 1.244 3.109 2.674 4.168 4.265zM133.291 88.761c-.736-1.902-2.082-3.475-3.793-4.863a67.056 67.056 0 0 1 .85 13.463c.799.679 1.205 1.641 1.809 2.373.833-3.543 1.107-7.22 1.134-10.973zM87.312 105.993a8.252 8.252 0 0 0-.126-.796c-.753-3.617-3.413-6.124-5.939-5.599-.43.09-.827.263-1.188.506-.131.279-1.754 3.939.805 7.913 2.217 3.446 4.226 3.526 5.801 2.382.012-.032.025-.063.036-.096.139-.387.52-1.542.649-2.98.008-.156.01-.312.008-.475-1.537-.404-2.579-.425-2.579-.425a29.76 29.76 0 0 1 2.533-.43zM60.975 121.376c1.003 2.224 3.158 2.888 4.361 2.188.03-.052.063-.1.088-.153l.01-.032a3.809 3.809 0 0 1-.171.221c.548-.991.765-2.391.522-3.812-.444-2.628-2.29-4.506-4.124-4.196a2.117 2.117 0 0 0-.923.419c-.243.818-.772 3.133.237 5.365zM125.055 65.254c4.48 3.52 6.895 8.214 8.768 13.076l.463 1.237-.002-.011-.148-.824s-.074-.353-.152-.583c-.816-2.531-4.506-12.81-11.779-17.601l-.002-.004 1.795 4.062 1.057.648zM132.705 123.265c.014-.029.025-.059.039-.087l.092-.185c.002-.006.008-.014.01-.021-5.689 6.243.721 13.773.721 13.773-4.094-.752-8.936-3.264-10.121-3.904.051.043.1.08.148.12 6.516 5.388 13.777 5.328 13.777 5.328-7.66-5.241-5.912-12.345-4.666-15.024zM139.107 129.35c2.117-5.672-.625-6.991-1.73-7.288-.025-.004-.047-.012-.068-.018.059.023.127.053.199.088.01.007.025.013.035.018.076.041.154.089.236.145.008.007.012.01.016.016a1.718 1.718 0 0 1 .284.243c.082.078.162.166.24.271.006.009.012.02.02.028.07.099.139.207.203.325.016.033.035.066.051.103.07.138.135.282.193.451l.006.029c.055.159.098.335.139.523.008.053.021.103.029.158.037.209.068.429.08.675.188 2.968-1.766 4.733-1.766 4.733.359.099.701.168 1.037.221.047.008.092.018.139.024a8.09 8.09 0 0 0 1.058.075c.291 0 .572-.018.842-.056.033-.004.07-.008.104-.016.281-.042.551-.1.807-.18 1.803-.558 3.01-1.98 3.688-3.722.006-.012.01-.02.014-.033l.031-.081c.006-.022.02-.05.025-.074-.004.014-.012.024-.018.039-1.843 3.906-5.894 3.303-5.894 3.303zM104.447 125.442s-.252.939-.322 2.377c.002-.005.006-.008.01-.014 0 0 .926 10.263 13.152 14.122.008.003.016.007.025.009-2.394-1.462-11.681-6.329-12.865-16.494zM55.533 140.403s5.119 2.5 7.381 3.454l-.239-1.191s2.62.595 5.238.714c2.62.117 0-.358 0-.358s-4.286-.953-5.238-2.021c0 0 6.548-.359 8.692-.951 0 0-14.527.713-15.834.353zM96.701 83.877a.077.077 0 0 0 .008-.031c.003-.003.003-.004.003-.006l.014-.057.001-.004.018-.079c0-.003.003-.005.003-.01.008-.03.015-.066.022-.106.23-1.09.891-5.075-.178-11.369a49.975 49.975 0 0 0-.817-3.856 57.465 57.465 0 0 0-1.637-5.336 63.81 63.81 0 0 0-.704-1.865c-2.797-7.103-7.577-15.625-15.626-25.218a87.436 87.436 0 0 0-1.521-1.775s-11.675 1.319-15.06 2.072l.002.003c.035.038.354.394 1.442 1.652 3.585 4.158 11.608 14.115 17.111 25.844a73.448 73.448 0 0 1 2.166 5.076c.364.952.707 1.913 1.025 2.877a55.372 55.372 0 0 1 1.194 4.145c.887 3.602 1.373 7.238 1.285 10.816l-14.209 6.506s-.07-5.22-2.023-13.026a80.966 80.966 0 0 0-2.256-7.486 82.397 82.397 0 0 0-2.41-6.061 82.017 82.017 0 0 0-11.165-18.282c-2.194-2.857-4.527-5.769-7.612-8.585 0 .002-.003 0-.008.005-.351.118-11.129 3.794-17.146 6.705 0 0 .146.085.409.251-.017-.011-.034-.022-.05-.035.024.018.055.038.083.057.433.274 1.171.768 2.131 1.49 28.835 21.037 25.314 59.655 25.304 59.76l36.544-18.355s.303-.146.748-.539l2.706-1.298a7.942 7.942 0 0 0-.139.164c.047-.054.095-.107.141-.163a30.878 30.878 0 0 0 1.405-1.869c.197-.282.393-.573.584-.866a.694.694 0 0 0 .021-.037c.449-.69.873-1.406 1.262-2.134.096-.181.191-.359.279-.541l-3.354 1.579c0-.001.003-.005.004-.013zM56.232 126.409a2.768 2.768 0 0 1-.229.293c.461-.798.66-1.893.484-3.057-.324-2.146-1.805-3.702-3.303-3.473-.294.045-.56.176-.802.356-.302.691-.811 2.31-.001 4.155.865 1.979 2.506 2.854 3.629 2.076-.002 0 .002 0 .008-.005l.009-.005.027-.043.031-.047c.052-.076.103-.159.147-.25zM75.997 113.398c-.625-3.011-2.839-5.097-4.94-4.659-.493.102-.934.34-1.314.674-.171.649-.795 3.5.621 6.136 1.398 2.598 3.706 3.38 5.229 2.23.001-.001.014-.004.019-.012.019-.025.039-.049.058-.076 0 0 .042-.083.104-.238a4.811 4.811 0 0 1-.219.303c.584-1.161.781-2.726.442-4.358z" fill="#0a3161"/><path d="M118.244 19.658c.203.02.33.023.33.023s-1.875-.481-1.195-1.875c.678-1.392 2.072.16 2.072.16-.008-.042-.016-.086-.027-.128-.393-1.514-3.541-3.659-4.277-.987-.626 2.272 2.126 2.72 3.097 2.807z"/><path d="M145.09 164.483c.457 0 .416.412.26.834a9.27 9.27 0 0 0-.389.779l-.08.128.023-.011c-.379.852-.67 1.777-.805 2.769-.227 1.692.018 3.253.547 4.49h9.568c.883-1.237 1.527-2.798 1.758-4.49.229-1.712.002-3.254-.547-4.49l-10.335-.009zM73.098 160.347h-7.919l.234-1.737h6.617l.258-1.924h-6.616l.227-1.671h7.918l.246-1.825L63 153.188c.938 0 .535 3.049.535 3.049l-.553 4.109-.238 1.786-.006.038h10.115l.245-1.823zM54.482 153.062c2.738 0 1.768 7.759 1.768 7.759-.947 4.923-4.757 8.351-9.529 8.351l2.163-16.075h-5.076l-.948 7.042c-.712 5.287-4.66 9.033-9.651 9.033l2.166-16.075.005-.034h-7.55c2.331 0 1.935 5.653 1.762 7.352l-1.701 12.618h3.834c3.542 0 7.466-1.072 10.114-3.237l-.437 3.237h3.832c5.068 0 9.482-1.014 13.015-5.759 1.548-2.077 2.257-3.95 2.918-7.135l.95-7.042-.001-.041-7.634.006zM78.462 154.999h8.443l.245-1.82H75.545c.939 0 .529 3.051.529 3.051l.007-.003-.318 2.372h8.464l-.236 1.736h-8.462l-.246 1.819H85.94l.739-5.485h-8.44l.223-1.67zM88.395 153.179c.634 0 .682.86.649 1.424l-.067.507h4.122l-.948 7.045h2.256l.949-7.045h4.123l.26-1.931H88.395zM111.451 160.337h-7.922l.234-1.738h6.619l.258-1.922h-6.615l.223-1.672h7.922l.246-1.825-11.068-.001c.943 0 .529 3.051.529 3.051l.012-.003-.555 4.11-.24 1.786-.006.038h10.119l.244-1.824zM113.738 162.206h2.191l.484-3.59h3.438c3.016 0 2.887 3.559 2.887 3.559h2.332c.039-3.444-2.816-4.547-2.816-4.547 3.166-1.16 3.973-4.435 3.973-4.435l-12.205.004c.748 0 .639 1.938.562 2.723l-.846 6.286zm3.16-7.211h6.236l-.029.023c-.797 1.488-2.818 1.648-2.818 1.648h-3.613l.224-1.671zM137.965 162.154l1.209-8.976-3.184-.002c.746 0 .637 1.933.562 2.718l-.471 3.487-5.066-6.203-3.439-.004c.941 0 .529 3.05.529 3.05l.004-.001-.797 5.931h2.277l.85-6.31 5.182 6.31h2.344z" fill="#0a3161"/><path d="M153.713 168.982a7.774 7.774 0 0 1-.84 2.559h-6.361a6.578 6.578 0 0 1-.154-2.559c.119-.888.41-1.755.844-2.559h6.359c.216.805.271 1.672.152 2.559z" fill="#fff"/><path d="M72.619 173.454l1.208-8.971-11.362.004c.71 0 .648 1.746.576 2.597l-.86 6.37h2.196l.477-3.541h6.064l-.476 3.541h2.177zm-7.501-5.48l.222-1.658h6.063l-.224 1.658h-6.061zM74.482 164.47c.941 0 .531 3.053.531 3.053l.008-.002-.319 2.37h8.464l-.235 1.736h-8.462l-.246 1.821h10.656l.74-5.487h-8.441l.224-1.67h8.44l.247-1.821H74.482zM95.455 164.492c.939 0 .527 3.051.527 3.051h.001l-.059.441h-6.119l.47-3.489-3.184-.003c.747 0 .641 1.92.566 2.712l-.841 6.25h2.251l.478-3.539h6.119l-.479 3.564h2.256l1.209-8.987h-3.195zM100.084 164.501c.75 0 .637 1.951.562 2.73l-.842 6.252h2.26l1.209-8.978-3.189-.004zM118.912 164.534c.939 0 .1 1.742.1 1.742l.02-.011a10.173 10.173 0 0 0-.801 2.756c-.227 1.69.021 3.253.551 4.49h10.09l.738-5.487h-4.883l-.26 1.93h2.605l-.219 1.625h-6.207a6.571 6.571 0 0 1-.156-2.558c.121-.89.412-1.755.844-2.558h8.486l.26-1.931-11.168.002zM165.949 164.492c.746 0 .639 1.924.564 2.712l-.471 3.493-5.066-6.205-3.439-.001c.939 0 .529 3.049.529 3.049h.004l-.801 5.933h2.281l.848-6.314 5.182 6.314h2.348l1.207-8.98h-3.186v-.001zM131.297 164.529c.635 0 .684.857.652 1.421l-.07.51h4.125l-.951 7.048h2.256l.951-7.048h4.123l.26-1.931h-11.346zM113.756 164.495c.744 0 .641 1.921.564 2.713l-.469 3.492-5.07-6.202-3.438-.006c.939 0 .529 3.051.529 3.051l.006-.001-.801 5.935h2.279l.85-6.312 5.18 6.312h2.346l1.209-8.979-3.185-.003zM33.124 178.046a5.259 5.259 0 0 1-.454 1.545h-4.182c-.103-.48-.12-.942-.038-1.545l.437-3.25h-1.391l-.438 3.25c-.145 1.075-.027 1.959.229 2.709h6.254a6.603 6.603 0 0 0 .969-2.709l.438-3.25H33.56l-.436 3.25zM48.629 179.322l-2.618-3.204h-1.288l-.625 4.637h1.177l.44-3.258 2.676 3.258h1.212l.623-4.637H49.06l-.431 3.204zM74.76 179.502l-1.293-3.384h-1.278l1.876 4.637h1.008l3.113-4.637h-1.212l-2.214 3.384zM119.701 178.919h4.373l-.123.896h-4.369l-.129.94h5.506l.381-2.833h-4.361l.117-.863h4.359l.127-.941h-5.504l-.377 2.801zM147.58 177.114h2.129l-.49 3.641h1.164l.492-3.641h2.129l.137-.996h-5.428l-.133.996zM163.914 177.932l-1.537-1.814h-1.584l2.355 2.757-.253 1.88h1.242l.258-1.901 3.058-2.736h-1.547l-1.992 1.814zM88.632 176.093l-.627 4.649-.002.019h5.258l.128-.949h-4.118l.122-.902h3.44l.135-1h-3.44l.118-.869h4.116l.127-.948h-5.257zM60.159 180.746h1.174l.625-4.628h-1.175l-.624 4.628zM109.988 176.118h-5.795l-.625 4.632h1.125l.248-1.845h1.77c1.551 0 1.482 1.83 1.482 1.83h1.201c.023-1.773-1.447-2.34-1.447-2.34 1.627-.595 2.041-2.277 2.041-2.277zm-1.605.937c-.408.767-1.447.85-1.447.85h-1.857l.115-.861h3.205l-.016.011zM135.531 180.752h1.174l.623-4.628h-1.174l-.623 4.628zM174.605 183.24l1.076-2.812h1.039v3.823h-.678v-3.108h-.018l-1.199 3.108h-.463l-1.197-3.108h-.02v3.108h-.678v-3.823h1.039l1.099 2.812zm-2.804-2.253h-1.18v3.265h-.678v-3.265h-1.18v-.559h3.037v.559h.001z" fill="#0a3161"/><path fill="#0a3161" d="M174.605 183.24l1.077-2.811h1.039v3.823h-.678v-3.108h-.018l-1.199 3.108h-.463l-1.197-3.108h-.02v3.108h-.677v-3.823h1.039l1.097 2.811z"/></g></svg>