<svg xmlns="http://www.w3.org/2000/svg" width="2500" height="2500" viewBox="0 0 192.756 192.756"><path fill-rule="evenodd" clip-rule="evenodd" fill="#fff" d="M0 0h192.756v192.756H0V0z"/><path d="M78.977 71.557s-6.524-10.316-3.073-16.717c0 0-4.351-2.066-2.231-8.541 2.112-6.475 6.137-3.827 6.137-3.827l.04.184c6.935-10.503 19.148-15.905 30.434-12.446l.043.013c11.279 3.457 18.182 14.712 17.773 27.215 0 0 4.848.099 2.777 6.589-2.068 6.488-6.84 5.729-6.84 5.729-.934 7.183-16.205 12.28-16.205 12.28L78.977 71.557z" fill-rule="evenodd" clip-rule="evenodd" fill="#fff" stroke="#323232" stroke-width="2.777" stroke-miterlimit="2.613"/><path d="M110.326 30.223l-.043-.013c-8.082-2.476-16.645-.409-23.399 4.826l15.946 5.16 3.008 1.465 4.545-4.249-.277 5.438 16.834 5.034c-2.395-8.365-8.321-15.121-16.614-17.661z" fill-rule="evenodd" clip-rule="evenodd" fill="#a7a8ab" stroke="#323232" stroke-width="2.777" stroke-miterlimit="2.613"/><path d="M99.582 50.75c-.504 1.594-1.697 2.649-2.667 2.355-.967-.294-1.343-1.824-.838-3.419.504-1.593 1.694-2.648 2.667-2.356.967.295 1.34 1.827.838 3.42zM111.193 54.54c-.504 1.594-1.697 2.648-2.662 2.354-.969-.293-1.346-1.824-.84-3.419.502-1.593 1.697-2.648 2.664-2.354.969.293 1.344 1.824.838 3.419zM103.639 60.637c-.426 1.26-1.811 1.943-3.094 1.527-1.285-.415-1.982-1.772-1.559-3.031.424-1.258 1.809-1.943 3.094-1.527 1.283.416 1.981 1.773 1.559 3.031z" fill-rule="evenodd" clip-rule="evenodd" fill="#323232"/><path d="M102.051 60.877c-.355 1.056-1.518 1.628-2.594 1.278-1.076-.347-1.664-1.485-1.307-2.54.355-1.057 1.518-1.631 2.594-1.282 1.078.35 1.662 1.487 1.307 2.544z" fill-rule="evenodd" clip-rule="evenodd" fill="#fff"/><path d="M96.182 29.114s-9.141-32.916-28.541-9.823l8.323-.717-7.578 17.352s19.97-22.121 27.796-6.812z" fill-rule="evenodd" clip-rule="evenodd" fill="#a7a8ab"/><path d="M96.182 29.114s-9.141-32.916-28.541-9.823l8.323-.717-7.578 17.352s19.97-22.121 27.796-6.812" fill="none" stroke="#323232" stroke-width="2.777" stroke-miterlimit="2.613"/><path d="M121.613 36.543s29.555-18.396 28.41 11.494l-5.736-5.952-6.092 17.906s-.355-29.807-16.582-23.448z" fill-rule="evenodd" clip-rule="evenodd" fill="#a7a8ab" stroke="#323232" stroke-width="2.777" stroke-miterlimit="2.613"/><path fill-rule="evenodd" clip-rule="evenodd" fill="#caccce" stroke="#323232" stroke-width="3.304" stroke-miterlimit="2.613" d="M45.588 55.838l9.951 57.898 23.357 11.02V69.398l-33.308-13.56zM86.104 125.768v-56.37l34.75-5.507-8.887 46.98-25.863 14.897z"/><path d="M94.738 82.935c4.057-1.707 6.389-.021 7.534 2.349 0 0-3.139-7.157.973-8.782 2.5-.989 2.975 6.59 2.486 9.045 7.807.288 21.582 16.797 14.256 23.953-7.715 7.54-13.203-9.67-13.203-9.67l-2.998-7.754c-1.111 3.614-7.595 8.255-5.602.702 0 0-7.575 2.957-2.204-4.147 0-.001-9.331-2.295-1.242-5.696z" fill-rule="evenodd" clip-rule="evenodd" fill="#fff" stroke="#323232" stroke-width="2.991" stroke-miterlimit="2.613"/><path d="M67.968 70.872c-4.194-1.386-5.093.407-6.125 2.48 0 0 2.869-6.512-1.472-7.404-3.253-.668-2.715 4.995-2.083 7.051-7.93.656-21.002 16.143-13.154 21.829 8.268 5.992 12.913-8.899 12.913-8.899l1.752-5.775c-.014 3.083.737 2.949.737 2.949 2.593 4.66 7.256 5.245 4.814-1.06 0 0 8.583 1.858 3.13-5.295.001-.001 10.39-2.279-.512-5.876z" fill-rule="evenodd" clip-rule="evenodd" fill="#fff" stroke="#323232" stroke-width="3.304" stroke-miterlimit="2.613"/><path d="M86.104 69.398s-3.437-1.835-7.208 0l-.244 56.883s2.318 3.705 7.044.983l.408-57.866z" fill-rule="evenodd" clip-rule="evenodd" fill="#caccce" stroke="#323232" stroke-width="3.304" stroke-miterlimit="2.613"/><path d="M105.879 106.809c-.285-.253-.785-.419-1.176-.309-.588.129-1.215.521-1.414 1.088-.199.545-.109 1.069.24 1.525.324.422.992.677 1.535.566.689-.162 1.348-.657 1.404-1.347-.004-.301-.092-.708.203-.927.246-.181.535-.238.791-.096.518.462.334 1.17.158 1.773-.369.89-1.176 1.628-2.186 1.845-.918.221-2.125-.104-2.746-.785-.758-.777-1.014-1.805-.699-2.812.295-1.064 1.309-1.811 2.395-2.072.668-.143 1.48-.053 2.053.354.059.031.164.1.215.146a.642.642 0 0 1 .076.927c-.24.278-.734.226-.849.124zM92.05 112.122a.697.697 0 0 1 .943.246l2.013 3.444c.19.324.073.74-.262.93a.706.706 0 0 1-.951-.25l-1.658-2.839c-.196-.019-.396.146-.543.257-.938.806-1.695 2.058-1.55 3.358.024.148-.037.58.247.421l2.217-1.246a.676.676 0 0 1 .921.259.649.649 0 0 1-.239.91l-3.548 1.993a.456.456 0 0 1-.377-.017c-.577-.482-.636-1.254-.709-1.911-.081-2.39 1.25-4.521 3.484-5.559l.012.004zM102.955 111.35c.197.338.072.745-.277.939a.726.726 0 0 1-.982-.258l-1.238-2.126c-.273-.272-.736-.434-1.115-.304-.432.179-.793.475-.85.94-.021.238.016.467.109.683l1.129 1.928a.701.701 0 0 1-.271.964.728.728 0 0 1-.986-.258l-1.277-2.185c-.228-.253-.693-.363-1.027-.277-.493.169-.934.493-.952 1.039.028.171.032.354.136.521l1.172 2a.681.681 0 0 1-.27.932.703.703 0 0 1-.949-.248l-1.409-2.409c-.326-.642-.173-1.486.289-2.04.618-.829 1.82-1.332 2.849-1.102l.125.022c.328-.891 1.07-1.657 2.062-1.863.715-.175 1.633-.054 2.141.513.152.195.305.382.42.586l1.171 2.003z" fill-rule="evenodd" clip-rule="evenodd" fill="#323232"/><path d="M105.42 133.61c-.104.511 0 1.06-.104 1.64-.244.616-.283 1.948-.279 2.768-.16.429-.279.788-.312 1.232.068.239.068.341.068.512-.105-.033-.559 1.71-.766 2.529-.07.41.312.649.033.957-.176.103-.592.103-.768 0-.209-.138-.139-.513-.244-.65.105-.239.209-.581.244-.819.176-.786.592-1.504.559-2.358.176-.376.105-.889.209-1.402-.033-.513.244-1.947.209-2.083.035-.445-.07-2.256.141-2.461.244-.413.871-.242 1.01.135zM107.619 135.013a.77.77 0 0 0 .209.408c0 .547.312 1.061.559 1.539.242-.172.174.104.104.204.07.547.385.924.559 1.402.033.272.906 1.265.977 1.708.244.273.488.616.559.957.104.273.35.547.35.753.312.341.453.751.418 1.229-.244.377-.699-.067-.979.137-.453 0-.174-.717-.207-.855.207-.376-.387-.341-.314-.717-.035-.171-.873-1.571-.977-1.743-.07-.103-.141-.273-.279-.171.07.479-1.361.239-1.465.377-.141 0-.281-.138-.348.033-.35.104-.072-.375-.42-.239-.176-.171-.07-.513.035-.684a.615.615 0 0 0 .211-.204c.174.034.381.342.486.066.453.172.908.138 1.395.138-.42-.683-.732-1.4-1.01-2.153-.281-.103-.311-1.003-.77-1.332-.012-.348-.035-.547-.139-.754 0-.204.104-.342.244-.479.347.001.591.174.802.38zM127.537 135.387c.102.343.139.616.312.992.121.688.256 2.371.418 3.007.279.104-.033.376.105.582.244.923.455 2.017.486 2.904.211.274.211.547.072.854-.35.172-.559-.068-.734-.238-.139-.273-.031-.752-.242-.992-.07-.376-.141-1.298-.244-1.604a34.272 34.272 0 0 1-.488-2.497c-.035-.442-.42-1.434-.453-1.708-.035-.272-.07-.718-.281-.956-.312-.24.072-.513 0-.854-.139-.31.211-.034.314-.241.524-.103.63.411.735.751zM84.212 134.807c.106.24-.068.479-.104.683-.662.034-1.255.377-1.954.377-.522-.068-2.65.17-2.859.17-.139.103-.942-.274-.732.309.313.137-.037.307 0 .547 0 .684 0 1.299.174 1.914.698.138 1.325.033 1.988.067.977.07 2.511.07 3.453.07.314.032.175.374.104.579-.069.239-.333.23-.593.342-.512-.018-2.754-.172-3.243-.136-.104.204-.21-.104-.349-.068-.558 0-.908.239-1.326 0-.139.375.141.581-.034.99-.069.444.209 1.06-.246 1.334-.173-.036-.382.032-.487-.068 0-.309-.349-.547-.175-.821 0-.103.037-.924.071-1.23-.141-.273.036-.486-.103-.656 0-.137.103-.335.032-.369-.104-.376-.174-1.334-.243-1.334.035-.307.139-.613 0-.922.069-.444 0-1.025.384-1.264.556-.272 1.325-.034 1.917-.103.489.103 1.36 0 1.36-.036.803.036 1.744 0 2.232-.443.245.169.49-.035.733.068zM130.676 134.943c.693.138 2.789.956 2.965 1.093.488.206 2.031 1.466 2.232 2.052.244.247.104.306.244.409.523.547.453 1.265.383 1.949-.033.34-.209.512-.348.819-.176.206-.244.583-.559.719-.348.374-.908.581-1.359.819-.07.206-.105-.103-.246 0-.629.068-1.604.137-2.371.238-.035.068.033.172-.068.206-.211 0-.559-.138-.838-.206.139-.272-.246-.408-.035-.547.697-.137 1.99-.25 2.232-.409.59.186.906-.102 1.326-.17.207-.206.521-.274.768-.411.174-.136.418-.923.557-1.024.139-.479.139-1.095-.07-1.401.105-.273-.383-.068-.207-.41-.209-.034-.143-.377-.316-.445-.242-.272-.451-.547-.836-.683-.105-.309-1.605-1.06-1.674-1.162-.211-.103-.523-.309-.838-.24.033.138-.105.17-.141.104-.139-.035-.139-.138-.207-.206-.209.103-.943-.444-1.256-.274-.488-.17-.734.068-1.186-.136-.246-.068-.42.309-.594 0-.279.07-.385-.103-.488-.239.035-.137 0-.58.348-.58.279 0 .385.068.559-.069.661.204 1.396.068 2.023.204zM55.052 135.387c.279.103 1.249.337 1.745.581.348.205 1.186 1.333 1.151 1.709.108 1.035-.524 1.983-.663 2.119-.385.172-.769.308-1.082.547.07.067.489.615.558.82-.069.206 1.499 1.744 1.604 1.983.141.204.349.376.523.511 0 .309.385.24.489.479.141.514.628.785.908 1.164.035.136-.069.375-.069.547a1.259 1.259 0 0 1-.593-.034 2.083 2.083 0 0 1-.314-.24c-.245-.468-.343-.599-.628-.854-.174-.276-.348-.583-.628-.753 0-.171-.662-.513-.662-.785-.419-.343-1.186-1.232-1.255-1.402-.315-.171-.454-.547-.628-.786-.139.035-.21-.034-.175-.206-.452.137-.593-.102-.976-.034-.139.139.035.855-.069.958-.07.855-.037 1.265-.037 2.153 0 .24.419.103.245.377-.174.034-.278.17-.245.409-.208.102-.482-.019-.697.033-.199-.295-.139-4.512-.419-5.127-.035-.374-.348-1.195-.312-1.332-.14-.342-.14-.923 0-1.264.141-.139.347-.309.523-.103.246-.036.209-.036.454 0 .265.662.068 2.222.348 2.393-.034.442.175.819.104 1.128.28 0 .245-.343.314-.547 0-.103-.139-.171-.034-.275.14-.102.312-.136.419.069.208.104.208-.308.489-.103.382.17 1.018-.054 1.255-.375.348-.65.517-1.135.278-1.949-.245-.307-.558-.547-.941-.649-.245-.272-2.302-.614-2.582-.479-.35-.034-.558.068-.943.068-.521-.171-1.953.068-2.231.307-.349.036-.629-.238-.384-.511.489-.615 1.5-.581 2.268-.685.608.059 2.473-.032 2.892.138zM85.398 142.598c-.104.444-.697.31-1.01.444-.732.139-2.756.411-3.035.48-.455.068-1.012.068-1.327.171-.104.102-.523-.171-.663.032-.208-.101-.558-.032-.593-.307-.139-.171.035-.341.175-.444.21.035.243-.103.418-.137.943.172 1.709-.103 2.65-.068.106-.103.454 0 .665-.068.661-.034 1.255-.307 1.883-.274.174-.102.592-.102.767-.102.07.07.001.206.07.273zM129.84 150.699c-.037.272-.211.477-.42.614-.209-.067-.523-.204-.732-.033-.768.033-2.932.479-3.244.683.07.24-.139.411.105.513-.209.411.207.89-.035 1.299-.035.102-.035.41.209.344.174-.035.35-.07.557-.104.697-.103 1.186-.173 1.814-.274.453.136.838-.17 1.291-.17.035-.31.488-.103.629-.205.244 0 .244.238.35.375-.178.206-.455.274-.629.479-.455-.171-.49.513-.979.274-.662-.138-2.232.205-2.371.341-.244 0-.592.172-.941.206.105.341-.35.718.07.924 0 .032 0 .511.242.579.281-.034.49.104.664.035h1.188c.242-.138 1.324.138 1.498-.035.174-.034.559-.103.629 0 .242-.103.348.173.242.308-.242.616-1.045.171-1.498.548-.211.034-2.232.034-3.07-.103-.176-.068-.35-.137-.383-.343a1.603 1.603 0 0 1-.803-.41c.035-.272.35-1.366.35-1.641-.105-.103 0-.204.068-.271-.105-.308.035-.513-.139-.755.055-.185-.07-1.298-.105-1.673-.068-.136-.279-.24-.139-.41.348-.479 1.01-.753 1.674-.753.279-.307.768-.033 1.152-.239.486-.136 1.43-.17 1.883-.271.244-.139.627.031.873.168zM116.828 151.313c-.035.137-.105.273-.07.445.139.137.174 2.734.279 3.247.244.171-.07.341-.035.546.209.342-.105.991.244 1.266.279.033-.908.785-1.15.681-.072-.168 0-.511-.072-.716-.033-.136.246-.308.211-.58.141-.547-.139-1.06-.104-1.539.104-.889-.141-1.811-.246-2.836-.242-.273.105-.617-.104-.924.104-.204.209-.374.453-.408.315 0 .559.715.594.818zM112.57 151.348a.429.429 0 0 1-.104.137c-.035.24.104.617.07.855-.141.136-.07.479.033.615.037.136-.104.785.07.921-.139.516-.07 1.164-.033 1.539-.07.444 0 1.402 0 1.572.139.137.383.205.383.479-.209.031-.277.237-.383.374-.314.206-.699 0-.908-.17-.035-.173.139-.238.105-.41-.141-.786.07-1.401-.035-2.118-.244-.207.174-.581-.035-.855.104-.307-.277-1.604-.139-1.741 0-.444-.176-.891.068-1.3.352-.137.666-.172.908.102zM105.631 151.759c0 .513-.627.309-.906.479-.455.034-1.711.034-1.85.137-.418-.034-.279.375-.176.581.281.102.176.957.211 1.128.139.136 0 1.641.244 1.947-.053.266.348 1.368-.141 1.538.07.343-.314.136-.418.309-.139 0-.299-.279-.42-.515.037-.102-.104-.476.105-.512.035-.135-.033-.239-.033-.342-.176-.854.033-2.29-.49-3.041-.068-.137.105-.411 0-.615-.139-.307-.486-.137-.768-.104-.244.104-.592.138-.836.138-.209.17-.943-.034-1.012.17-.312-.033-.803.377-.941-.067.035-.273-.385-.375-.105-.615.174.136.244-.137.418-.103.77 0 1.467-.104 2.129-.241.488-.135.941-.203 1.533-.271.141-.309.734.068 1.047-.172.176 0 1.326-.239 1.744-.068h.488c.001.135.177.135.177.239zM63.179 151.827c0 .203.174.537 0 .683-.279-.067-1.151.036-1.22.068-.141-.103-.279.036-.455.067-.279.173-.767.104-.977.344-.278.136-.767.034-.871.41.139.274-.104.785.034 1.059.698-.035 1.71.24 2.511.069.246-.136.348-.078.663-.204.338.013.664 0 .769.271 0 .104-.315.308-.384.377-.208.068-.384.068-.454.272-.414.176-1.25.273-1.744.308-.278-.103-.872-.137-1.256-.137-.07.376-.314 1.06-.104 1.436-.069.068.246.548.21.616.068.273.103.889-.349.648-.523.068-.595-.444-.697-.819-.035-.238-.176-.409-.21-.615.21-.172.104-.991.069-1.437.081-.597-.104-1.255-.208-1.913-.071-.41-.071-.821.278-1.094.28-.136.803.137 1.118-.069.313-.033.626-.308 1.045-.239.419 0 1.201-.271 1.571-.375.347-.103.487.137.661.274zM80.133 151.963c.837.104 1.568.067 2.231.444.35-.102.385.207.662.207.313.272.63.581.63 1.092-.105.548-.42 1.164-.942 1.437-.035.409.558.272.625.683.56.341.908.992 1.711 1.025.104.207.385.207.523.41-.035.273-.245.514-.523.41-.243.137-.28-.238-.559-.204-.488-.171-.803-.479-1.256-.685-.174-.273-1.185-.889-1.254-1.163-.314-.101-.454.24-.628.036-.175.309-.418-.206-.523.136 0 .137 0 .173-.14.205-.209.547.384 1.062.069 1.606-.069.205-.489.205-.663.068-.035-.204-.07-.99-.278-1.333-.104-.136 0-.444.035-.648-.035-.24-.245-1.334-.245-1.539.141-.41-.313-.648.07-.955.071-.206.314-.309.629-.24 0 .136.139.136.243.204.174.48-.035 1.164.174 1.743.035.033-.14.547.141.342.07-.204.906-.17 1.116-.717.382.136.313-.273.558-.343-.037-.137.034-.17.139-.204-.037-.24.174-.684-.176-.72-.312-.033-.592-.136-.906-.204-.104-.17-1.188-.272-1.675-.204-.314 0-.593-.034-.907 0-.139-.068-.174-.238-.348-.274-.07-.307.104-.443.278-.615.14.067.453 0 .558.034.176.07.456-.101.631-.034z" fill-rule="evenodd" clip-rule="evenodd" fill="#323232" stroke="#323232" stroke-width=".665" stroke-miterlimit="2.613"/><path d="M72.981 153.502c-.034-.171-.21-.274-.314-.241-.139-.136-.382-.17-.593-.271-.767-.344-1.194.064-1.918.238-.282.121-.873.614-.873.855h-.068c-.036.309-.456.648-.28 1.06.139.136-.139.272.069.376-.139.341.278.752.419 1.093.348.239.662.548 1.186.548.801.102 1.29-.102 2.091-.138.341-.125.76-.649 1.047-1.094.106-.204 0-.684.106-.956-.175-.685-.244-1.13-.872-1.47zm-.419 2.528c-.244.035-.35.24-.593.308-.139.103-.312.137-.523.103-.383-.034-.767 0-1.082-.068-.206-.147-.593-.753-.522-1.025-.245-.375.104-.716.209-1.06.384.036.523-.341.663-.581 0-.102.035-.102.104-.136.419-.068.598.074 1.012.204 0 0 1.095.495 1.082 1.3.138.306-.174.683-.35.955z" fill-rule="evenodd" clip-rule="evenodd" fill="#323232"/><path d="M72.981 153.502c-.034-.171-.21-.274-.314-.241-.139-.136-.382-.17-.593-.271-.767-.344-1.194.064-1.918.238-.282.121-.873.614-.873.855h-.068c-.036.309-.456.648-.28 1.06.139.136-.139.272.069.376-.139.341.278.752.419 1.093.348.239.662.548 1.186.548.801.102 1.29-.102 2.091-.138.341-.125.76-.649 1.047-1.094.106-.204 0-.684.106-.956-.175-.685-.244-1.13-.872-1.47zm-.419 2.528c-.244.035-.35.24-.593.308-.139.103-.313.137-.523.103-.383-.034-.767 0-1.082-.068-.206-.147-.593-.753-.522-1.025-.245-.375.104-.716.209-1.06.384.036.523-.341.663-.581 0-.103.035-.103.104-.136.419-.068.598.074 1.012.204 0 0 1.095.495 1.082 1.3.138.306-.174.683-.35.955z" fill="none" stroke="#323232" stroke-width=".665" stroke-miterlimit="2.613"/><path d="M115.92 154.015c.141.204.07.272-.035.479-.104.17-.271.122-.523.307-.592 0-.801.513-1.428.444-.385 0-.316-.478-.629-.613-.068-.239.244-.069.244-.308.266-.062.209-.24.35-.343.104.067.209.17.348.238.557-.034.941-.409 1.5-.343a.797.797 0 0 1 .173.139zM61.19 165.464c-.801.683-3.281 2.063-3.801 2.905-.454.444-1.082.786-1.29 1.436.139.272.347.581.558.819.174.139.278.479.557.513.072.103 1.466 1.368 1.85 1.539.662.786 1.151 1.538 1.36 2.597.07.685.07 1.572-.384 2.119-.244.719-.924.841-1.569 1.368-.942.478-2.024.751-3.104 1.024-.525.308-1.081.17-1.606.41-.628.036-1.326.272-1.918.137-.173-.443.28-.649.455-.854.138-.206.958-.479 1.028-.206-.209.103.227.206.333.24.278-.034.628-.034.836-.172 1.116-.17 2.198-.41 3.138-.854.454-.033 2.024-1.366 2.093-2.119.07-.272-.035-.785 0-.888-.069-.479-.245-.855-.349-1.3-.174-.205-.208-.479-.419-.615-.07-.17-.119-.179-.382-.341-.313-.354-.593-.547-.908-.855-.271-.243-1.591-1.346-2.091-1.845-.209-.582.525-1.814.871-2.086.315-.375.732-.684 1.151-1.025.105-.236 2.339-1.878 3.28-2.324.278-.066.487.139.311.377zM134.826 165.704c.176.307-.141.442-.209.615-.279-.036-.35.238-.523.307-.592-.205-.838.342-1.396.308-.383 0-1.08.992-1.324 1.128.07.342-.383.409-.104.684.242.514.627.753.836 1.23.244.033 1.326 1.776 1.639 2.051.314 0 .244.375.385.545.244.344.627 1.028.732 1.096.488.443.211 1.127.453 1.743.07.547-.068 1.06-.033 1.503-.176.513-.805 1.742-1.258 1.675-.209.067-.941.615-1.254.751-.908.377-1.92.583-2.93.787-.281-.068-.42.068-.629.068-.42-.068-.838-.034-1.045-.343-.211.07-.385-.032-.385-.204.523-.068.453-.888 1.078-.719.037.069.037.206.143.206.488.136 1.15 0 1.604-.206.455.206 2.547-.647 2.721-1.024.314-.103.488-.408.768-.547.244-.375.383-.956.383-1.4-.035-.24.037-.444-.035-.753-.104-.103-.557-1.402-.697-1.641-.104-.409-.453-.547-.627-.922-.139-.07-.104-.274-.244-.376-.383-.341-.592-.89-1.047-1.129-.209-.513-1.047-1.332-1.115-1.4-.176-.478-.453-1.025-.348-1.504.242-.274.209-.751.521-.922-.105-.377.977-.991 1.396-1.164.312-.066.416-.374.801-.374.07-.239.871-.343 1.152-.409.242-.001.556.066.591.34zM79.469 166.319c-.133.321-.106.371-.66.396-.326.122-.875.253-1.015.287a1.63 1.63 0 0 0-.802.103c-.139-.033-3.314.648-3.664.547-.243.138-.698.073-1.151.206-.278-.138-.697-.068-.836-.376-.069-.307.139-.41.174-.651.454 0 .915-.042 1.361-.066a1.46 1.46 0 0 0 .837-.068c.558.032 1.778-.174 1.813-.206.384.068 2.339-.206 2.478-.17.348-.104.781-.171 1.046-.343.507-.001.32.146.419.341zM109.816 166.011c.557.272 1.256.034 1.883.204.559-.204 2.162.172 2.512.206.244.171 1.498.171 1.779.307.699.309 1.605.447 1.988 1.162.244.238.488 1.266.488 1.471-.174.17.008.283-.141.547-.033.751-.451 1.162-.871 1.675-.627.24-1.047.718-1.746.854-.416-.034-.975.104-1.359.036-.104-.206-.139-.445-.312-.583 0-.375.385-.443.662-.579.211.033.385.102.559.204.314.034.803.034.941-.307.383-.07.941-.991 1.117-1.062-.07-.272 0-1.196-.141-1.538-.139-.067-.174-.341-.312-.445-.141.036-.105-.034-.174-.101-.385-.033-1.08-.388-1.467-.444-.291-.065-1.535-.034-1.641-.272-.207-.07-1.707-.07-2.195-.207-.424.142-1.361.137-1.781.104-.033.138-1.045.138-1.289.104-.105-.034-.246-.07-.348-.139-.037-.204-.246-.376-.105-.614.207-.239.488-.512 1.012-.411.068-.376.314.034.559-.034.138-.003.171-.172.382-.138zM95.026 166.387c.139.718-.312 2.597-.558 2.974.174.238-.104.309-.07.547-.28.409-1.255 4.409-1.221 4.409.174.204-.558 1.094-.593 1.641.104.036.139.307.314.171.139.033.068.273.033.513-.139 0-.033.204-.139.239-.139.136-.313-.104-.454.033-.139.103-.348.239-.487.239-.106-.239-.523-.443-.28-.751.418-.82.453-1.881.977-2.632.173-.72.417-1.504.523-2.222.104-.513.314-1.949.453-2.12 0-.272 0-.444.175-.648-.07 0 .277-1.4.384-1.604-.037-.411.172-.822.487-1.062.212.032.422.067.456.273zM96.945 167.992c.174.411.768 2.632.803 3.009.453.17.174 1.265.348 1.4.174.376.207.762.418 1.266-.01.432.141 1.947.246 2.427.195.196.17.317.209.853.104.479-.35.344-.559.55-.348 0-.348-.344-.559-.445-.104-.24 0-.41.139-.581-.209-.923-.174-1.574-.348-2.461.035-.171-.418-.104-.176-.273 0-.102.07-.309-.104-.309-.174.068-.174.24-.244.411-.245.102-1.604.033-1.848.239-.21.203-.384.137-.629.102-.207.093-.314-.009-.385-.179-.104-.034-.208-.23-.312-.301.162-.363.21-.375.419-.442.593-.172.873.067 1.429-.137.104.034 1.082-.41 1.5-.24 0-.17-.139-.408-.207-.614a2.159 2.159 0 0 0-.211-.718c.035-.444-.871-2.393-.697-2.599-.035-.442-.28-.821-.244-1.196.104-.102.244-.204.383-.306.35-.001.559.272.629.544zM76.54 167.789c.384.239.347 1.194.314 1.263.033.274-.106 2.155-.106 2.53.036.034-.048.13.004.399.068.444-.143.694-.177 1.104.104.444-.104 2.119-.21 2.598-.068.821.176 2.36.419 2.36.043.314-.171.512.142.683 0 .238-.42.17-.316.478-.489.273-.487-.182-.802-.411-.488-1.194-.384-2.322-.28-3.588.105-.99.384-2.528.28-3.484.208-.344 0-1.437 0-1.643.035-.547-.419-2.085 0-2.085.103-.24.522-.204.732-.204z" fill-rule="evenodd" clip-rule="evenodd" fill="#323232" stroke="#323232" stroke-width=".665" stroke-miterlimit="2.613"/><path d="M113.025 169.36c.035.444.139.819-.07 1.162.314.136-.111.259.07.547-.035.034-.139.683-.07.991-.068.307-.104 3.965-.068 4.477-.105.206.104.991.174 1.196.418.445-.209.615-.383.854-.316.172-.385-.103-.629-.171-.141-.238-.07-.648-.385-.752-.174-.273.105-.342.244-.478.035-.104-.033-.821-.07-.855.07-.819.037-2.118 0-2.118.094-.938 0-1.778 0-2.529.07-.103-.174-.514.037-.684-.037-.343.068-.685-.244-.855.068-.309.451-.309.488-.682.07-.342.697-.204.906-.103zM117.455 174.009c.244.479.732.82.871 1.333.211.068.699.651.629.922.105.24.629-.068.629.273.383-.101.209.409.277.514.07.033.174.068.209.169-.104.206.141.514-.068.719-.455-.137-1.115.343-1.291-.273-.277-.137-.348-.478-.594-.614-.104-.138-.104-.41-.35-.41-.068-.309-.662-.924-.73-1.026-.105-.102-.803-.991-.838-1.127a6.461 6.461 0 0 1-.697-.718v-.513c.207-.309.594-.377.941-.342.07-.035.176.067.279.067.071.274.733.855.733 1.026z" fill-rule="evenodd" clip-rule="evenodd" fill="#323232" stroke="#323232" stroke-width=".665" stroke-miterlimit="2.613"/><path d="M139.053 181.361c-1.17 0-2.027-.895-2.027-2.05 0-1.143.857-2.037 2.027-2.037 1.166 0 2.018.895 2.018 2.037-.001 1.156-.852 2.05-2.018 2.05zm0 .312c1.326 0 2.396-1.057 2.396-2.361 0-1.292-1.07-2.347-2.396-2.347-1.33 0-2.408 1.055-2.408 2.347 0 1.304 1.078 2.361 2.408 2.361zm.388-2.256c.475-.012.842-.205.842-.721 0-.435-.24-.694-.949-.694h-1.174v2.626h.33v-1.211h.604l.766 1.211h.393l-.812-1.211zm-.951-.253v-.932h.768c.328 0 .67.049.67.457 0 .536-.557.475-.938.475h-.5zM115.857 118.555c-.021-.444-.396-.584-.729-.584-.25 0-.668.068-.668.503 0 .245.174.325.346.365l.838.188c.379.087.664.31.664.766 0 .681-.643.868-1.145.868-.545 0-.758-.162-.887-.277-.248-.221-.297-.457-.297-.727h.369c0 .519.434.67.809.67.287 0 .768-.07.768-.481 0-.299-.143-.397-.625-.509l-.6-.137c-.191-.043-.625-.173-.625-.675 0-.446.299-.886 1.01-.886 1.025 0 1.125.599 1.143.915h-.371v.001zM119.223 120.585v-1.693c0-.083.008-.448.008-.718h-.008l-.824 2.411h-.395l-.822-2.406h-.008c0 .265.008.63.008.713v1.693h-.383v-2.869h.568l.834 2.427h.008l.832-2.427h.564v2.869h-.382z" fill-rule="evenodd" clip-rule="evenodd" fill="#323232"/></svg>