<svg id="Layer_1" xmlns="http://www.w3.org/2000/svg" viewBox="0 0 395.3 329.9" width="2500" height="2086"><style>.st0{fill:#ffc222}.st1{fill:#fff}</style><path class="st0" d="M197.7 329.9c-82.5 0-151-60.9-163.1-140.1-5.5.5-10.9 1-16.4 1.6-8.1.9-17.5-5.9-17.5-16.4L0 98.5c0-8 5.6-15.4 15.3-16.5 2.1-.2 28-2.8 42.2-3.9C86.6 31.3 138.5 0 197.7 0s111 31.3 140.2 78.1c14.2 1.1 40.1 3.7 42.2 3.9 9.7 1.1 15.3 8.5 15.3 16.5l-.7 76.5c0 10.4-9.4 17.2-17.5 16.4-5.4-.6-10.9-1.1-16.4-1.6-12.1 79.2-80.6 140.1-163.1 140.1z"/><path d="M117.9 179.6h11.2l8.9 20.3 9.4-20.3h11.3l6.6 38H154l-3.2-21.9h-.1l-10.5 21.9h-4.5l-10-21.9h-.1l-3.7 21.9h-11.3l7.3-38zM190.2 217.6h-11.4v-38h11.4v38zM217.7 209.2h13.6v8.4h-25v-38h11.4v29.6zM269.1 179.6h14.1l-17.4 18 19 20H270l-14.7-16.5h-.1v16.5h-11.4v-38h11.4v15.7h.1l13.8-15.7zM151.6 76.3l-5.4-11.4h-2.5v11.4h-7.5V45.7h12.1c6.8 0 10.5 4.8 10.5 9.8 0 4.2-2.6 6.8-5 8l6.6 12.8h-8.8zm-3.7-23.9h-4.3v6.2h4.3c2.1 0 3.3-1.5 3.3-3.1 0-1.5-1.2-3.1-3.3-3.1zM170.8 76.3V45.7h20.8v6.7h-13.3v5.1h11.4v6.7h-11.4v5.4h13.3v6.7h-20.8zM220.7 76.3l-1.4-4.6h-9.4l-1.5 4.6h-7.9l11.1-30.6h5.8l11.1 30.6h-7.8zm-5.9-19l-2.8 8.2h5.3l-2.5-8.2zM238.4 76.3V45.7h7.5v23.9h12.9v6.7h-20.4z"/><path d="M384.6 98.5c0-3.2-2.6-5.7-5.7-5.7-15.5-1.7-31.3-3.1-47.4-4.3-26.6-46.5-76.6-77.8-133.8-77.8-57.2 0-107.3 31.3-133.9 77.6-16 1.2-31.9 2.7-47.4 4.3-3.2 0-5.7 2.6-5.7 5.7l.7 76.6c0 3.2 2.6 5.7 5.7 5.7 8.9-.9 17.9-1.8 27-2.6 6.7 78.9 73.1 141 153.7 141s146.9-62.1 153.7-141c9 .8 18 1.7 26.9 2.6 3.2 0 5.7-2.6 5.7-5.7l.5-76.4zM197.7 23.9c49.2 0 92.5 25.2 117.7 63.3-38.1-2.6-77.5-3.9-117.8-4-40.2 0-79.6 1.4-117.7 4 25.3-38.2 68.6-63.3 117.8-63.3zm-25.3 261.7c-2.8.2-4.9.7-6.5 1-.7-.6-1.6-1.2-1.7-1.5-.3-.6-1-1.1-1.3-1.8-.3-.7-.3-2.7-.3-4.1.1-3.3 0-4.9.9-6.5.5-.9 1.3-3.7 1.8-4.3.6-.6 1.9-2.9 1.9-2.9.6 1.3 1.5.9 2.3 1.4 0 0-.4 1.4-.7 2-.4.6-.1 1.2.3 1.9.3.7 3.5 12.8 3.5 13.2 0 .6-.1 1.1-.2 1.6zm39 .8c.1.1.2.1.3.1-8.9-.1-8.4 2.9-20.1.6-6.4-1.2-11.2-1.7-15-1.7-.9-1.4-2.3-8.1-2.2-9.8.1-1.7.4-3.9.4-4.6 0-.6 1.2-3 1.5-3.5.3-.5.6-.3.6.2s-.1 1.4.4 1.5c.5.1.8-1.5 1-1.9.2-.4 1.1-1.1 1.1-1.1.2.3 0 1.6.6 1.6.2 0 .4-.2.5-.5.4-1.7.3-1.7 1.8-2.5.8-.4 3-2.9 3-2.9 10.9 4.7 20.1-1.9 27.1 1.6 0 0 .1 4.2 0 5.7-.2 1.4.1 2.6.4 4.5.3 2-1.1 7.3-1.4 8.1-.3.7-.7.9-.8 1.3-.1.4.8.2 1.1.8.3.6-.1 1.2-.3 1.4-.3.4-.5.8 0 1.1zm.4.2c.2 0 .4-.2.6-.2.1 0 .2.1.3.2h-.9zm5.6.4c-.6-1-2.6-3.7-2.6-4.4 0-.8-.3-6.2.5-7.3.5-.8.9-1.7 1.2-2.2-.1-.2-.2-.3-.3-.5h.5s-.1.2-.2.5c.3.6.7 1.4.7 2.6 0 1.2 0 5.5-.3 6.2-.3.7-.1 1.2 0 1.5.1.3-.2.7-.1 1 .1.2.8.3 1.1.6s.3 1.5.3 2v.1c-.4-.1-.6-.1-.8-.1zm101.2-49.4l-1.1-18.5-6.8 18.1-6.1-18.4-1.9 19.2-10.6-16.2 3.2 19-14.3-13 8 17.6-17.3-8.7 12.3 14.9-19-3.9 15.7 11.2-19.4 1.1 18.1 6.8-18.4 6.1 19.2 1.9c-18.6 5.7-15.3 18.7-56.4 13.2-.2-.5-1.2-1.2-1.5-1.5-.3-.4-.6-1.3-1.2-1.8-.4-.4-.8-1.5-.7-2.1.1-.6-.6-3.3-.4-5.6.1-.8.1-1.3.4-1.8.3-.5.1-.9.5-1.5s.4-1.5.4-2.7c0-1.1.9-6.3.9-6.3 2.1-.2 4.1-1.5 5.1-3.7.1-.3 1.2-1.3 2.5-3.3 1.3-2 2.1-7.7 2.4-8.2.3-.5 1-3.8 1.2-4.2.2-.4 2-2.5 3.1-4.1 1.1-1.5.5-1.4 1.5-2.5s2.6-.5 3-.3c.4.2 6.6 0 7.2-.2.7-.2 2-1 2.3-1s1 .2 1.5.2 1.5-.8 1.7-1.2c.2-.3.4-.3.7-.6.3-.3.6-1.1.6-1.8s-.6-1.7-1-1.9c-.4-.2-1.3-.2-1.8-.3-.5-.1-1.4-1.1-2.8-2.2s-4.2-2.7-4.4-3.1c-.7-1.4-1-1.4-1.2-1.8-.3-.6.1-.8-.1-1.2-.4-.8-2 .1-2.1.1-.1 0-1.3-.8-1.8-1.4-.5-.6-1.5-1.3-2.2-1.3-.5 0-.9.4-.8 1.1.1.7-.3.8-.2 1.1.1.3.4.7-.2 1-.5.3-1.8.4-2.8 1.3-.9.9-6.1 4.5-12.4 5.4-1.1.2-1.9-.9-5.2-.2-4.7 1-30.3 1.8-32.9 1.5h-.1c-.7 0-2.5-.6-5.3-.7s-7.1-.6-9.2-.6c-3 0-5.1 1.3-6.1 2.5-.7.9-1.8 1.8-2.2 3.4-.3 1.2.3 10.9-.4 14.5-.4 2.2-1.4 7.4-1.4 7.4-.4.1-1.8.2-2.5 2.5-.7 2.4-1.8 2.6-2.3 3.4-.5.8-.7 2-.7 2 .4-1 1.6-2.1 2.2-2.4-1.1.9-2.1 3.8-2 5 .4-1.2 1.7-2.4 2.2-2.7-1.3 1.2-2.6 3.7-2.6 5.3.3-.5.9-1.2.9-1.2 0 .3-.2 1-.2 1 .4-.2 1.1-.8 1.1-.8-1.2 1.3-1.9 3.7-1.9 3.7.5-1.1 1.9-2.4 1.9-2.4-1.1 1.3-1.5 5.1-1.5 5.1.1-.6 1.2-3.1 2.9-4.4 2.4-1.7 2.5-3.8 2.5-4.5.1-.8.7-2.1 1.7-4.5 1-2.5-.6-4.1-.6-4.1.3-1.5.7-3.8 1.2-7.9.5-3.9.9-6.5.7-9.5-.3-4.2.5-4.4.5-4.4-.4 2.2.7 7.5 1 9.1s0 12.1-.5 13.8c-.4 1.7-1.5 3.9-2.1 4.7-.6.8-.7 2-.7 3.3 0 1.3-.1 13.4-.4 13.9-.3.4-.7 1.2-.6 1.8.1.6.7.6.9.9.2.2.7 1.4 1.4 2.3-7.3-1.7-22.7-11-54-13.9C79 250.1 60.4 216 57.1 177.6c45.2-3.7 92.2-5.6 140.5-5.6s95.4 2 140.6 5.7c-1.9 21.3-8.8 41.9-19.6 59.9z"/><g><path class="st1" d="M58.5 146.8c0 9.7-.5 11.8-3.3 15.3-2.9 3.5-7.6 5.6-13 5.7-5.3.2-10.2-1.7-13-4.9-2.8-3.6-3.3-5.4-3.3-15v-25.6c0-9.6.5-11.6 3.3-15.2 3-3.5 7.6-5.6 13-5.7 5.3-.2 10.2 1.7 13 4.9 3 3.7 3.3 5.4 3.3 15v4.1l-10.2.3V117c0-6-1.6-8.3-5.9-8.1-4.5.1-6.1 2.4-6.1 8.6v34.7c0 6.1 1.6 8.4 5.9 8.2 4.6-.1 6.1-2.4 6.1-8.6v-11.5l10.2-.3v6.8zM75.7 152.5l-1.9 12.6-9.7.7L74.5 99l12.1-.8 12.2 65.3-9.8.6-2.4-12.2-10.9.6zm6.6-30.5l-.9-6.5-.7-5.4-.4 5.3-.9 6.8-2.6 22.1 8.6-.5-3.1-21.8zM116.8 154.4l16.4-.7v8.2l-26.5 1.2v-66l10.1-.5zM151.9 161.5l-10.2.2V95.6l10.2-.2zM171.3 130.9v30.2l-10.2.1v-66l26-.4v8.2l-15.8.2v19.4l14.5-.2v8.3zM226.6 140.7c0 9.7-.5 11.8-3.3 15.2-3 3.5-7.6 5.3-13 5.3-5.3 0-10.2-2-13-5.3-2.8-3.7-3.3-5.5-3.3-15.1v-25.5c0-9.6.5-11.6 3.3-15.1 3-3.4 7.6-5.3 13-5.3s10.2 2 13 5.3c3 3.8 3.3 5.5 3.3 15.1v25.4zm-22.3 4.6c0 6.1 1.6 8.4 5.9 8.4 4.6 0 6.1-2.2 6.1-8.4v-34.6c0-6.1-1.6-8.4-5.9-8.4-4.5 0-6.1 2.2-6.1 8.4v34.6zM252.7 95.4c6.6.2 8.9.8 10.7 3.2 1.7 2.4 2.4 6.2 2.4 12.5v4.7c0 9-1.6 11.6-7.6 12.4 6.1 1.6 7.6 4.3 7.6 13.9v8.2c0 5.6.5 8.1 2 11.8l-10.4-.4c-1.1-3-1.8-7.8-1.8-12.9V143c0-8.5-1.4-11.7-5-11.8l-4.4-.1v30.2l-10.4-.2V95l16.9.4zm-6.7 28.3l6 .1c3 .2 3.5-.9 3.5-6.7v-6.2c0-5.8-.6-7.2-3.5-7.3l-6-.1v20.2zM295.8 163.4l-13.1-51.7.3 4.3.6 6.2.2 4.1 1.1 36.6-9.6-.4V96.4l10.6.4 10.9 40.9.9 3.7.8 3.7.6 2.4-.2-3.8-.7-8.2-.4-5.1-.7-33 9.8.6.1 66.1zM327.2 165.4l-10.3-.7-.1-65.9 10.3.7zM346.7 154.4l-2 12.5-9.7-.8 10.5-65.1 12.1 1.1 12.3 67.1-9.9-.9-2.5-12.9-10.8-1zm6.6-29.6l-.9-6.6-.7-5.5-.5 5.2-.9 6.7-2.6 21.7 8.6.7-3-22.2z"/></g><g><path class="st1" d="M313.8 245c-1.5-.3-3-.5-4.6-.5-12.4 0-22.4 10-22.4 22.4 0 2.3.3 4.5 1 6.5 9.9-8.2 18.7-17.7 26-28.4z"/></g><g><path d="M371.4 196.2c3.8 0 7.2 2.7 7.2 6.9s-3.4 7-7.2 7-7.2-2.7-7.2-7c.1-4.2 3.5-6.9 7.2-6.9zm0 12.4c2.9 0 5.3-2.3 5.3-5.5s-2.4-5.5-5.3-5.5-5.3 2.3-5.3 5.5c.1 3.2 2.4 5.5 5.3 5.5zm-2.7-9.4h2.9c2 0 3.1.6 3.1 2.3 0 1.4-.9 2-2 2.1l2.1 3.4h-1.6l-1.9-3.3h-1v3.3h-1.5v-7.8zm1.5 3.3h1.4c.9 0 1.5-.1 1.5-1.1 0-.8-.9-1-1.6-1h-1.3v2.1z"/></g></svg>