<svg xmlns="http://www.w3.org/2000/svg" width="2500" height="2500" viewBox="0 0 192.756 192.756"><g fill-rule="evenodd" clip-rule="evenodd"><path fill="#fff" d="M0 0h192.756v192.756H0V0z"/><path d="M93.858 80.219c1.879-6.046 6.13-9.698 11.45-11.128 1.404-.377 2.891-.906 4.42-.919 4.246-.036 5.318.258 8.512 1.129 2.318.632 3.621 1.49 6.131 1.555 3.379.088 6.211-1.772 8.141-4.3.953-1.247 1.422-3.067 1.891-4.639.551-1.843.541-3.149.197-4.787-.531-2.542-1.533-4.294-2.832-5.863-.934-1.131-2.67-2.511-4.182-3.296-3.516-1.823-5.988-2.528-12.002-.983-.58.149-1.133.37-1.889.743a29.86 29.86 0 0 0-3.197 1.839c-1.992 1.338-7.488 5.592-10.971 10.154-7.857 10.454-14.29 25.592-21.575 44.661-7.303 19.112-9.859 29.635-14.254 43.799-3.451 11.119-4.645 16.607-6.799 21.814-1.586 3.836-6.796 13.611-19.849 9.912-11.488-3.256-11.752-14.866-10.99-18.404.077-.355 1.138-9.327 4.68-22.123 2.073-7.489 4.091-15.233 6.422-22.396 2.926-8.989 6.438-17.683 9.611-25.658 3.789-9.523 7.713-18.16 11.753-25.975 4.73-9.149 8.652-17.044 13.679-23.753 2.842-3.792 6.896-8.653 9.839-11.674 3.236-3.32 7.104-6.927 10.476-9.328 7.885-5.616 18.073-8.673 26.559-9.24 2.646-.176 5.256-.293 8.242-.274 2.09.012 4.303.417 5.98.76 4.062.83 7.598 2.019 11.078 3.963 2.965 1.657 7.9 5.732 10.025 8.113 1.859 2.084 4.613 5.824 7.238 11.009 1.621 3.201 2.547 4.832 3.375 8.076.125.49.523 1.458.625 2.005.338 1.781.867 3.736 1.215 7.289.338 3.437-.375 6.34-.676 8.967-.496 4.315-1.781 8.26-3.516 12.048-1.809 3.955-4.516 7.987-7.615 11.023-3.098 3.033-5.281 4.829-8.318 6.523-3.836 2.076-8.025 2.544-11.889 3.119 3.963 3.577 5.91 7.99 6.92 11.69 1.025 3.766 1.355 7.318 1.555 10.994.182 3.375-.184 7.15-.295 10.881-.256 8.491-3.129 27.942 7.023 26.721 2.35-.283 7.973-2.367 11.119-1.349 2.537.821 2.965 2.076 4.34 4.118 1.16 1.722 1.961 5.641.984 9.126-1.127 4.018-3.09 5.966-5.9 7.957-5.438 3.852-10.168 5.986-16.135 6.953-4.723.764-7.781.679-9.729.393-3.59-.528-6.586-1.181-9.516-2.989-4.012-2.476-6.639-6.318-8.428-10.393-.326-.743.301.844 0 0-1.754-4.918-3.453-11.537-3.15-18.367.432-9.735.838-18.504-.092-26.257-.414-3.443-.193-9.868-6.008-15.327-1.975-1.854-6.045-5.987-9.238-8.884-.391-.343-1.593-2.062-2.907-4.477-1.783-3.285-3.537-8.087-1.528-14.551z" fill="#cc2229"/></g></svg>