<svg xmlns="http://www.w3.org/2000/svg" width="2500" height="2500" viewBox="0 0 192.756 192.756"><g fill-rule="evenodd" clip-rule="evenodd"><path fill="#fff" d="M0 0h192.756v192.756H0V0z"/><path d="M172.148 135.877h17.773V56.879h-17.773V79.4l2.104.023 2.877.14 3.252.351 3.834.538 2.129.328.07 1.076.232 2.128.141 2.082.094 1.987v1.941l-.094 1.918-.141 1.824-.07.936-.725-.281-1.379-.515-1.287-.468-1.145-.327-1.053-.187-.959-.094h-.865l-.771.14-.586.234-.326.21-.188.234-.094.281.047.304.328.538.959 1.006 1.426 1.263.818.865 1.848 1.426.959.865.818.982.771 1.029.631 1.029.539 1.006.396 1.004.398 1.076.234 1.146.139 1.1.07 1.051-.07 1.006-.186 1.053-.281 1.1-.443 1.17-.539 1.145-.678 1.1-.889 1.123-1.053 1.076-1.17.957-1.215.797-1.381.701-1.66.561-1.941.469-2.057.326-1.871.164v13.54h.003zm-40.949 0h40.949v-13.541l-.328.023-2.385.047-2.385-.07-2.246-.211-2.082-.326-1.822-.352-1.615-.42-.771-.258-.818-.305-.164-1.402-.162-1.451-.234-3.039-.234-3.344-.141-3.578-.047-1.895.516.305 1.309.584 1.871.654 2.059.654 1.66.422 1.193.234h1.051l.959-.07.748-.141.352-.094.211-.141.094-.164.047-.186-.07-.258-.492-.607-1.168-1.029-1.615-1.264-1.52-1.17-1.262-1.051-1.123-1.1-1.053-1.1-.889-1.053-.725-1.029-.609-1.051-.467-1.17-.398-1.333-.232-1.379-.094-1.31.07-1.263.164-1.287.303-1.192.328-1.146.49-1.076.586-1.052.748-1.006.818-.912.912-.819 1.029-.702 1.238-.608 1.498-.538 1.754-.444 2.104-.304 2.457-.164h.584V56.879h-40.949v24.742l.586-.327 1.262-.538 1.357-.421 1.379-.327 1.473-.234 1.566-.164 1.568-.023 1.59.093 1.566.211 1.543.351 1.428.491 1.332.562 1.193.725 1.1.771.959.865.795.912.654 1.006.537 1.076.492 1.193.373 1.286.305 1.31.188 1.31.047 1.403-.047 1.777-.211 2.619-.326 3.484-.305 3.883-.211 3.625-.141 3.18-.07 3.32-.07 3.953-.023 2.127h-18.029l.305-5.893.256-5.262.234-4.162.094-2.994.023-3.18-.117-1.357-.305-.818-.373-.607-.492-.445-.537-.326-.631-.211-.68-.093-.701.046-.678.164-.258.117v39.778h-.002zm-47.029 0h47.029V96.098l-.443.187-.703.468-.701.748-.725 1.006-.678 1.123-.539 1.217-.42 1.262-.328 1.332-.209 1.451-.188 1.801-.164 2.408-.211 3.018-.188 3.484-.117 3.672-.068 1.846h-17.611l.211-2.479.234-2.432.398-4.91.396-4.865.258-4.748.188-4.512.115-4.164.07-3.812v-3.438l-.045-3.134v-1.543h17.633l-.188 3.321.701-.538 1.355-1.053 1.311-.842.654-.351V56.879H84.17v22.544l3.041-.141 2.806.047 2.525.21 2.245.374 1.871.515 1.589.631 1.475.749 1.332.889 1.029.958.771.936.654 1.029.562 1.122.42 1.169.258 1.216.141 1.122-.023 1.801-.258 4.28-.188 3.251-.186 3.648-.117 3.555-.117 3.227-.023 2.971.023 2.76.023 2.713.094 2.664h-17.54l.21-3.811.188-3.531.14-3.205.094-2.898.07-2.736-.702.141-1.356.326-1.053.328v6.104l.562-.117.491-.094-1.053 3.836v20.415h.002zm0-42.422v-2.432l.468.047.842.21.468.187.258.187.14.257-.047.281-.444.444-1.497.748-.188.071zm-33.09 42.422h33.09v-20.416l-1.753 6.361-.492.162-.444.188-.958.305-.959.164-.982.07-1.123-.047-1.263-.141-1.45-.234-1.567-.35-1.543-.492-1.426-.607-1.263-.725-1.146-.842-1.052-.982-.912-1.053-.749-1.1-.562-1.076-.444-1.145-.327-1.217-.21-1.309-.117-1.428v-1.309l.164-1.311.257-1.215.374-1.193.539-1.17.584-1.076.725-.959.771-.887.913-.867 1.029-.748 1.146-.725 1.264-.701 1.309-.654 1.473-.562 1.871-.537 2.76-.772 3.134-.959 2.432-.865v-2.432l-.678-.07H82.16l-1.474.141-1.637.257-1.777.351-1.918.538-2.011.608-1.965.725-1.917.771-.958.374 1.871-12.862 2.011-.445 1.871-.421 3.508-.748 3.18-.468 3.157-.351h.07V56.879H51.08v10.126h10.36l-.491 10.57H51.08v3.508h9.962l-.351 3.414-.327 3.204-.234 2.947-.21 2.806-.188 2.946-.14 3.229-.141 3.414-.117 3.555-.094 3.367-.046 3.018v2.572l.116 3.928.07 1.637h-8.3v14.757zm33.09-30.145v6.104l-.374.07-.865.094-.725-.023-.608-.07-.515-.188-.444-.326-.374-.469-.234-.561-.117-.609.117-.654.304-.701.491-.701.771-.68 1.099-.654 1.263-.561.211-.071zm-61.714 30.145H51.08v-14.758h-9.962l.281-4.373.327-4.373.281-4.186.28-4.068.187-3.766.187-3.508.117-3.134.117-2.806.141-4.631.023-3.601.024-1.59h7.998v-3.508h-6.898l-.234-10.57h7.133V56.879H22.456v24.204h3.157l.023 3.368.514-.538 1.005-.959.982-.749.982-.655 1.122-.562 1.263-.444 1.356-.328 1.287-.14 1.216.07 1.029.211.749.257.351.141 1.099 15.996-.888-.188-1.661-.303-1.567-.211-1.426-.07-1.287.117-1.146.257-.959.397-.795.537-.725.703-.585.912-.538 1.379-.538 1.965-.514 2.338-.397 2.549-.281 2.549-.164 2.572-.047 2.598.047 2.572.093 2.502.07 1.191h-2.83v14.76h.003zm-19.622 0h19.621v-14.758H6.319l.281-2.432.491-5.074.21-2.643.21-2.713.164-2.736.164-2.83.117-2.805.117-2.807.07-2.737.023-2.713.047-5.051v-5.495h14.242V56.879H2.834v78.998z" fill="#b01e24"/></g></svg>