<svg height="2083" viewBox="100.5 85.2 714.4 566.3" width="2500" xmlns="http://www.w3.org/2000/svg"><g fill="#e42424"><path d="m473.4 86.1c-.4.7-.9 5.9-1.2 11.4-.3 9.7-.2 10.2 2 11.7 1.3.8 3.4 1.8 4.8 2.2 2.8.9 16.9 6.2 21.5 8.1 1.7.7 4.6 1.8 6.5 2.4 1.9.7 9.8 3.5 17.5 6.2 7.6 2.7 14.7 4.9 15.7 4.9s3.6 1.1 5.8 2.5 5.2 2.5 6.8 2.5c1.5 0 3.6.6 4.7 1.3 1.1.8 5.4 2.6 9.5 4s11.3 4 16 5.8c4.7 1.7 10.3 3.7 12.5 4.4 2.2.8 6.5 2.3 9.5 3.5s6.4 2.4 7.5 2.7 2.5.9 3 1.3c.6.5 2.6 1.3 4.5 1.8 1.9.6 7.3 2.5 12 4.2 4.7 1.8 10.3 3.8 12.5 4.6 17.4 5.8 48.8 17.2 55.3 20 1.8.8 4.1 1.4 5.2 1.4 1 0 2.1.4 2.5.9.3.5 1.9 1.2 3.6 1.6s4.2 1.3 5.7 2.1 3.4 1.4 4.3 1.4c.8 0 1.9.4 2.5.9.5.5 2.5 1.4 4.4 2 1.9.5 7.8 2.5 13 4.4s12.4 4.4 16 5.6 7.3 2.6 8.2 3.2c1 .5 2.3.9 3 .9.7.1 3.1.9 5.3 2s5.4 2 7 2c1.7 0 4.7 1.3 6.8 2.8l3.8 2.7.2 95.8.2 95.9 2.8 2c3.5 2.6 3.7 5.3.2 4.4-2.6-.7-3.1.4-2.6 6 0 1.1-.7 2.8-1.7 3.7-1.7 1.6-8.3 1.7-80.3 1.7-63.6-.1-110.5 0-175.4.3-1.6 0-15.7-.1-31.3-.2-21.3-.3-28.6 0-29.7.9-2.2 1.8-2.1 19.2.1 21.1 1.2 1 7 1.2 26.7.9 30.4-.4 23.3-.4 78.7-.3 25 0 46.9.1 48.5 0 9.9-.1 154.3.1 160.3.2 8.4.2 12.6-1.9 13.7-6.9.5-2.4 1.2-3 3.2-3 1.8 0 2.4-.5 2.1-1.7-.4-2.3-3.9-2.9-5-.9-.8 1.4-1.2 1.5-3.8.1-3.5-1.8-4-3.8-.8-3.3 1.1.2 2.3-.3 2.5-1 .3-.6 0-1.2-.5-1.2-.6 0-2-1.3-3.1-2.9-1.9-2.7-2-3.1-.6-5.7.8-1.6 1.5-3.6 1.5-4.5s.9-2.4 2.1-3.5c2.8-2.6 5-6.9 4.3-8.7-.3-.9.4-2.2 1.7-3.1 2.1-1.4 2.4-1.4 3.2-.1.4.8 1.7 1.5 2.7 1.5 2.6 0 2.6-3.1 0-4.8-2.2-1.3-1.7-3.9 1.2-6 2-1.5 2.4-4.2.7-5.9-.9-.9-.8-2.1.5-4.8 1.1-2.2 1.5-4.7 1.2-6.1-.4-1.4-.6-13.6-.6-27.2.1-13.6.1-41.6 0-62.2s0-38.6.1-40c.1-2.4.1-9.4-.1-14.3 0-1.2 0-9.2.1-17.7l.2-15.5-2.9-1.7c-1.6-1-3.6-1.8-4.5-1.8s-3-.7-4.5-1.5c-1.6-.8-3.6-1.5-4.5-1.5-.8 0-1.9-.4-2.5-.8-.5-.5-4-1.9-7.9-3.1-11.6-3.7-27.8-9.6-35-12.6-1.6-.8-5.5-2.1-8.5-3-5.6-1.7-11-3.7-16.7-6.1-1.7-.8-3.7-1.4-4.5-1.4s-1.8-.3-2.1-.6c-.4-.4-3-1.5-5.9-2.6-2.9-1-9.1-3.2-13.8-4.9s-9.6-3.3-11-3.6-2.9-.9-3.5-1.3c-.5-.4-3.9-1.7-7.5-2.9-3.6-1.3-7.4-2.7-8.5-3.2-1.1-.4-4.9-1.8-8.5-3-3.6-1.1-7.8-2.7-9.5-3.4-1.6-.7-5.5-2.1-8.5-3s-6.8-2.3-8.5-3c-1.6-.7-5.5-2.1-8.5-3.1s-6.6-2.4-8-3.1-3.3-1.3-4.2-1.3-1.9-.4-2.3-.9c-.3-.5-2-1.3-3.7-1.7-1.8-.3-3.9-1-4.8-1.5-2.8-1.6-13.9-4.9-16.3-4.9-1.4 0-3-.7-3.7-1.5s-1.8-1.5-2.6-1.5c-.7 0-2.8-.6-4.6-1.4-9.8-4.3-22.7-8.6-24.2-8-2.5 1-1.9 3.4.9 3.4 2.3 0 4.5 2.4 4.5 4.9 0 1.6-3.7 1.3-4.3-.3-.4-.9-2.3-1.6-4.9-1.8-3.5-.2-4.4-.7-4.6-2.5-.2-1.4.4-2.6 1.9-3.4l2.3-1.2-2.3-1.8c-1.3-1.1-3.2-1.9-4.3-1.9-1 0-3.6-.9-5.6-1.9-5.5-2.9-18.9-8.1-20.9-8.1-1 0-2.7-.7-3.7-1.5-1.1-.8-3-1.5-4.2-1.5-1.3 0-2.5-.4-2.9-.9-.3-.5-1.9-1.2-3.6-1.6s-4.2-1.3-5.7-2.1-3.5-1.4-4.5-1.4c-.9 0-2.5-.4-3.5-1-.9-.5-3.5-1.6-5.7-2.4-2.2-.7-4.7-1.6-5.6-2-1-.4-2-.2-2.5.5zm11.4 9.6c.2.7-.4 1.6-1.2 1.9-1.9.7-4.9-1.4-4-2.8.8-1.3 4.6-.6 5.2.9zm19.3 12.4c2.6 2.6 2.1 5.3-1.2 5.7-3.6.4-7.1-2.7-6.3-5.6s4.7-2.9 7.5-.1zm56.3 16.5c1.3.5 1.3 1 .4 2.7-2.7 5.2-7.9 7.2-9.8 3.8-1.6-3.1-.2-5.3 3-4.6 2 .4 2.9.2 3.3-.9.7-1.8.9-1.8 3.1-1zm14.6 8c0 1.6-1.6 1.9-2.5.4-.8-1.3.4-3.2 1.6-2.5.5.4.9 1.3.9 2.1zm104.8 36.1c.2 1.4-.4 2.6-1.8 3.3-4.2 2.3-6.7-1.1-3.4-4.5 2.2-2.1 4.8-1.5 5.2 1.2zm13.2 3.4c0 1.2-2.7 1.1-3.5-.1-1.1-1.7.5-3.2 2.1-1.9.8.6 1.4 1.5 1.4 2zm7.7 4c.6.6 2.2 1.7 3.5 2.3 2.8 1.4 3.6 5.7 1.4 7.5-2.1 1.7-4.6.7-4.6-1.9 0-1.2-1-2.5-2.5-3.2-3.3-1.5-3.4-5.8 0-5.8.6 0 1.6.5 2.2 1.1zm17.5 9.1c-.9.9-1.2.7-1.2-1.2s.3-2.1 1.2-1.2.9 1.5 0 2.4zm1.3 5.7c.7 1.2-1.2 2.4-2.5 1.6-1.1-.7-.4-2.5 1-2.5.5 0 1.1.4 1.5.9zm80 40c1 1.7-1.2 2.1-2.5.6-1-1.2-1-1.5.3-1.5.9 0 1.8.4 2.2.9zm3.8 10.6c.7 1.8-.9 2.9-3 2.1-1.2-.5-1.3-.9-.3-2.1 1.6-1.9 2.6-1.9 3.3 0zm2.7 6.5c0 .6-.7 1.3-1.5 1.6-.8.4-1.5 1.6-1.5 2.8 0 4.1-4.2 6.2-5.5 2.8-.4-1.2.4-2.6 3.2-4.9 4-3.4 5.3-4 5.3-2.3zm1.1 127c2.4 1.4 2.4 3.5-.1 6-2.9 2.9-5.3 1.6-4.4-2.4 1-5 1.3-5.2 4.5-3.6zm-175.7 64c3.4 1.3 3.5 4.7.2 5.6-4.2 1-7.1.1-7.4-2.4-.3-2 .6-2.8 4.5-4.1.1-.1 1.3.3 2.7.9zm-113.9 1c.3.6-.1 1.3-1 1.6-1.9.8-3 0-2-1.5.8-1.4 2.2-1.4 3-.1zm132.1 3.6c-.5 1.3-1 1.4-1.8.6-.6-.6-.8-1.8-.4-2.8.5-1.3 1-1.4 1.8-.6.6.6.8 1.8.4 2.8zm32.4.4c0 1.1-.6 2-1.4 2-2.1 0-3.1-2.1-1.5-3.1 2.2-1.4 2.9-1.1 2.9 1.1zm-38 1.5c0 2.2-.4 2.5-3.5 2.5-3.8 0-4.5-1.5-1.7-3.6 2.9-2.2 5.2-1.7 5.2 1.1zm-130.2 4.7c.3 1.3-.3 1.8-2.2 1.8-2 0-2.6-.5-2.6-2.1 0-1.5.5-2 2.2-1.7 1.3.2 2.4 1.1 2.6 2zm139.6-1.3c.8 1.3-4 5.3-6 4.9-2.8-.5-2.6-2.2.4-4 3.1-1.9 4.9-2.2 5.6-.9zm85.6-.2c0 1.7-4.6 5.3-6.7 5.3-2.9 0-3-2.3 0-4.3 2.2-1.6 6.7-2.3 6.7-1zm-64 1.8c0 .8-.7 1.5-1.5 1.5-1.6 0-2-1.2-.8-2.3 1.1-1.2 2.3-.8 2.3.8zm-233.1-327.9c-1.3.7-3.3 1.4-4.4 1.4s-2.9.7-3.9 1.5c-1.1.8-2.8 1.5-3.9 1.5-1 0-3.3.6-5 1.4-3 1.2-5.2 2.1-15.2 5.9-2.2.8-8 2.9-13 4.7-4.9 1.7-10.5 3.8-12.3 4.6s-3.8 1.4-4.5 1.4c-4.5 0-16.9 11.1-18.8 16.8-.7 2-2 4.3-3 5s-1.9 2.7-2.1 4.5c-.2 2.7-.7 3.2-2.8 3.2s-2.7-.7-3.6-4.5c-.8-3.5-1.9-5.1-5-7.2-4.4-3.1-7.1-3.5-10-1.3-1 .8-2.7 1.5-3.7 1.5-1.1 0-3.3.6-5 1.4-1.8.8-6.3 2.5-10.2 3.7-3.8 1.2-7.4 2.6-8 3.1-.5.4-1.7.8-2.8.8-1.7 0-8.9 2.8-12.9 5-1 .6-2.3 1-2.9 1s-2.5.6-4.2 1.4c-1.8.8-7.5 2.9-12.7 4.7-5.2 1.7-11.1 4-13 5-1.9 1.1-4.5 1.9-5.7 1.9-1.9 0-7.4 2-18.1 6.6-1.8.8-4 1.4-4.8 1.4-.9 0-3 .6-4.7 1.4-1.8.8-6.1 2.4-9.7 3.6-3.5 1.2-6.9 2.4-7.5 2.8-1.3.8-16 6.1-20 7.2-1.6.5-7.7 2.7-13.5 4.9-5.8 2.3-11 4.1-11.6 4.1s-1.7.6-2.3 1.4c-.6.7-2.9 1.6-5 2-2.1.3-8.3 2.3-13.7 4.5-5.5 2.1-13.9 5.3-18.9 7-4.9 1.8-11.1 4.2-13.7 5.3l-4.7 2.1.4 76.1c.2 41.8.3 76.5.3 77.1 0 .5-.2 21.9-.3 47.5-.2 31.7 0 46.9.7 47.8.9 1 13.6 1.2 61.9 1.2l60.9-.2v-2.8c0-2.7-2.2-6-3.9-6-.4 0-1.3-1.1-1.9-2.5-1.5-3.2-3.9-3.2-5.4 0-.6 1.4-2 2.5-3 2.5-1.8 0-1.8-.2.2-4 2.4-4.7 2.6-9.5.4-10.4-2.9-1.1-52.9-.7-56.3.5-2.4.9-3.5.9-4.4 0-.7-.7-5.5-1.1-12.8-1.1-8.5 0-12-.4-12.8-1.3-.8-1-1-30.1-1-104.5.1-94 .3-103.2 1.8-104.5.9-.8 5-2.6 9.2-4 4.3-1.4 9.5-3.5 11.8-4.6 2.2-1.2 4.9-2.1 6-2.1s3.5-.6 5.3-1.4 5.1-2.1 7.3-2.9 7.6-2.8 12-4.5c4.4-1.6 8.9-3.2 10-3.5s6.5-2.2 12-4.2 11.6-4.1 13.5-4.7c1.9-.5 3.9-1.4 4.4-1.9.6-.5 1.6-.9 2.4-.9s2.8-.6 4.5-1.4c6.4-2.7 9.3-3.8 16.2-6.2 12.5-4.2 17.5-6.1 18.2-6.8.3-.3 1.3-.6 2.1-.6s2.8-.6 4.5-1.4c4.6-2 20.2-7.6 21.1-7.6.4 0 2.2-.6 3.9-1.4 4.6-2 20.2-7.6 21.1-7.6.4 0 2.2-.6 3.9-1.4 1.8-.7 6.1-2.4 9.7-3.6 3.6-1.3 6.9-2.7 7.5-3.2.5-.4 1.8-.8 2.8-.8s3.3-.6 5-1.4c1.8-.7 6.1-2.4 9.7-3.6 3.6-1.3 7-2.6 7.5-3 .6-.4 2.1-1 3.5-1.3s7-2.2 12.5-4.2 11.6-4.1 13.5-4.7 4-1.4 4.7-1.9c.6-.6 4-1.8 7.5-2.8s7.3-2.3 8.4-2.9c4.3-2.2 9.6-4.2 11.2-4.2.9 0 2.9-.6 4.4-1.4s4-1.7 5.7-2.1 3.3-1.1 3.6-1.6c.4-.5 1.7-.9 2.9-.9 1.3 0 3.5-.9 5-2.1 2.5-2 2.6-2.4 2.6-12.9 0-11.7-.6-12.9-5.1-10.4zm-64.9 41.2c0 1.3-1.2 2.2-2.2 1.6s-.1-2.4 1.3-2.4c.5 0 .9.4.9.8zm-70.2 18.5c.2 1.1-.3 1.7-1.7 1.7-2.3 0-3.5-1.5-2.6-3.1 1-1.5 3.9-.6 4.3 1.4zm-7.8 1.8c0 2.6-3.9 6.9-5.7 6.2-1.9-.8-1.6-4 .7-6.3 2.6-2.6 5-2.6 5 .1zm17-1.7c0 .2.3 1.1.6 2 .4 1.1.1 1.6-1 1.6-.9 0-1.6-.2-1.6-.4s-.3-1.1-.6-2c-.4-1.1-.1-1.6 1-1.6.9 0 1.6.2 1.6.4zm-30.2 5.4c.2.7-.6 1.2-1.7 1.2-2.1 0-2.7-1.1-1.4-2.4.9-.9 2.6-.2 3.1 1.2zm27.2.2c0 .5-.9 1-2 1s-2-.5-2-1c0-.6.9-1 2-1s2 .4 2 1zm-23.2 6.7c.5 1.7-2.6 2.9-4 1.5-.6-.6-.7-1.5-.3-2.2.9-1.4 3.7-.9 4.3.7zm-38.4 3.8c1.3 3.6-2.4 6.1-5.2 3.3-.9-.9-.8-1.6.5-3 2-2.2 3.9-2.3 4.7-.3zm18.6 1.3c0 .5-.6 1.7-1.4 2.8-1.1 1.5-1.7 1.6-2.7.7-1.6-1.6-.4-4.3 2.1-4.3 1.1 0 2 .4 2 .8zm-25.4 6.7c.4 1 1.5 1.2 3.5.8 2.4-.5 2.9-.2 2.9 1.5 0 3.1-4 4-5.8 1.3-.8-1.1-2.5-2.1-3.8-2.1-1.5 0-2.4-.6-2.4-1.5 0-2 4.9-2 5.6 0zm-84 31.2c-.3 2.1-.6 4.5-.6 5.4 0 1.2-.7 1.5-2.4 1.2-1.3-.3-2.7 0-3 .6-.4.6-1.5 1.1-2.4 1.1-1.6-.1-1.6-.2.1-1.4.9-.7 1.7-2 1.7-2.9 0-1.8 4.7-7.7 6.2-7.7.7 0 .8 1.4.4 3.7zm-39.9 66.9c1.8 2 3.3 4.4 3.3 5.3 0 2.9-3 6.2-5.3 5.9-2.1-.3-2.2-.7-1-5 .4-1.2-.3-2.1-2.1-2.9-3-1.4-3.4-3.6-.8-5.5 2.3-1.8 2.1-1.9 5.9 2.2zm1.8 68.5c.4.5.4 2.1.1 3.5-.5 1.9-1.3 2.4-3.6 2.4s-3-.5-3-1.9c0-3.6 4.9-6.7 6.5-4zm26.1 104.4c.4.9 1.6 1.4 2.8 1.3 1.1-.2 2.2.1 2.3.7.2.5-1.4 1-3.4 1-3.8 0-5.7 2-2.9 3.1.9.3 1.6 1.7 1.6 3.1v2.5l-8.7-.7c-10.7-.9-12.5-1.7-12.1-5.3.3-2.5.6-2.7 6.8-3 7.1-.3 9.1-.7 8.9-1.9-.3-1.8.2-2.3 2.1-2.3 1.1 0 2.3.7 2.6 1.5zm-23.6 6c0 1.6-.6 2.5-1.5 2.5s-1.5-.9-1.5-2.5.6-2.5 1.5-2.5 1.5.9 1.5 2.5zm35.6-.4c.3.6.1 1.6-.5 2.2-.9.9-1.4.8-2.1-.3-.9-1.5-.4-3 1-3 .5 0 1.2.5 1.6 1.1zm78.9-327.1c-.3.5-1.4 1-2.3 1s-3 .7-4.6 1.5c-1.5.8-3.7 1.5-4.7 1.5s-3.1 1.1-4.6 2.4c-4.4 3.9-.8 4.2 6.5.6 7-3.5 9.2-3.7 9.2-1.2 0 2.6-4.3 6.4-6.3 5.6-3-1.1-1.9 2.6 1.1 3.8 1.5.7 3.5 1.9 4.5 2.7 1.2 1 2.1 1.1 2.8.4s.5-1.4-.6-2.3c-1.6-1.3-2.1-6-.7-6 1 0 4.2-7.1 4.2-9.3 0-1.9-3.5-2.4-4.5-.7zm-39.2 9.5c-3.2 1.5-5.3 3.1-5.3 4.1 0 .9.6 1.3 1.3 1 .6-.2 3-1 5.2-1.6 4.9-1.4 7.9-3.5 7-4.9-.9-1.6-2.4-1.3-8.2 1.4zm9.7 4.9c-3 1.6-8.4 3.5-12.5 4.5-1.6.4-2.9 1.1-2.8 1.6.4 1.7 4.3 1.7 6.7.1 3.2-2.1 9.2-3.1 10.1-1.6.8 1.2-1.8 7.2-4.6 10.9-2.2 2.8-2.4 4.1-.6 4.1 1.5 0 5.7-4.4 5.7-5.9 0-.7.7-2.2 1.6-3.6 1.7-2.5 1.6-10.6-.1-11.1-.5-.2-2.1.3-3.5 1zm-42.3 8.3c-1.1 1-.8 3 .6 4.5.7.7 2.1 3.8 3.1 6.8 2.4 7.3 3.8 10.3 5.3 10.8 2 .6 2.7-2.7 1-4.6-2.1-2.4-3.1-7.8-1.7-8.7.7-.4 3-.2 5.1.5 4.5 1.5 6.1.7 3.6-1.7-1.1-1.1-3.4-1.8-6.3-1.8-3.9-.1-4.7-.5-6.4-3.3-2-3.2-3.1-3.8-4.3-2.5zm-18.7 4.3c0 .5-1.8 1.3-3.9 1.6-2.2.4-4.2 1.3-4.5 2-.3.8-2 1.4-3.9 1.4s-4 .7-4.7 1.6c-1.8 2.1-1.7 7 .2 9.1.9 1 1.9 2.9 2.3 4.3.9 3.5 3.5 9 4.1 9 1.8 0 4.4-2.4 4.4-4 0-1 .4-2.1.9-2.4 1.3-.9 4.1.4 4.1 1.8 0 2.3 2.2 3.7 3.8 2.3.8-.6 3.1-1.7 5.1-2.2 2.6-.8 3.6-1.6 3.6-3s-.7-2-2.2-1.9c-2.4.1-2.9-1.1-1.3-3.6.6-.9.3-2.3-.7-4.1-1.5-2.5-1.5-2.9 0-4.4 2.4-2.3 2.1-5-.8-6.9-2.7-1.8-6.5-2.1-6.5-.6zm-11.8 11.2c.7 1.9-.2 3.8-1.8 3.8-.8 0-1.4-.8-1.4-1.8 0-3 2.3-4.4 3.2-2zm7.1 4.2c.6 1.5-1.1 3.6-2.9 3.6-.6 0-1.4 1-1.8 2.2-.4 1.9-.8 2-1.8 1-1.1-1.1-1-1.6.5-2.6.9-.7 1.7-2.3 1.7-3.5 0-2.4 3.4-3 4.3-.7zm-35.2.5c-.6.4-2.1 2.5-3.3 4.7-1.1 2.1-2.7 4.3-3.4 4.7-1.6.9-1.9 4.7-.3 4.7 1.4 0 6.3-5.9 6.9-8.4.8-2.9 5-3.5 5-.7 0 1.2-.9 2.6-2 3.3-2.5 1.6-2.5 3.6-.1 6.5 2.3 2.8 2.7 2.8 4.1.4.7-1.4.7-2.8 0-4.7-1.3-3.2-.5-4.3 3.5-4.7 1.7-.2 3-.7 3-1.3 0-1.3-12-5.3-13.4-4.5z"/><path d="m119 209.5c-1.3 1.6-.6 3.5 1.5 3.5 1.2 0 2.5-2.1 2.5-4.1 0-1.4-2.6-1.1-4 .6zm-14 5.3c0 1.4 3.6 4.3 4.3 3.5.4-.3.7-1.5.7-2.5 0-1.3-.7-1.8-2.5-1.8-1.4 0-2.5.4-2.5.8zm17.4 1.3c-.3.5-1.6.9-2.9.9-1.4 0-2.9.8-3.5 1.9-.6 1.3-1.7 1.7-3 1.4-1.3-.4-2.7.3-4 1.8-3.7 4.5-1.7 5.2 5.4 1.9 2.4-1.1 6.5-2.5 9-3.2s4.6-1.7 4.6-2.3c0-1.4-4.9-3.5-5.6-2.4zm390.2 28.8c-1 1.6.5 4.1 2.4 4.1 3 0 3.3 1.7 1.4 9.8-2.5 11.2-2.5 11.2-21.6 10.8-16.3-.3-18.8-.9-18.8-4.7 0-2.7-2.9-2.4-3.5.3-.2 1.3-.4 10.4-.2 20.2.1 13.2.5 18 1.4 18.3.7.3 1.8-.8 2.4-2.3.5-1.6 1.6-3.2 2.2-3.6 1.4-.9 22.2-1 25.5-.2 1.7.5 2.2 1.4 2.2 4 0 1.8-.5 3.6-1.1 4s-.9 1.9-.5 3.6c.3 1.6.2 3.7-.3 4.6-1.8 3.4-6.1 18.8-6.1 21.9 0 1.7-.9 5.5-1.9 8.5-2 5.5-5.4 18.7-7.6 29.4-.6 3.4-1.5 6.6-1.9 7.3-.5.7-1.2 3.6-1.6 6.4-2.2 13.3-4.5 18.7-8.1 18.7-2.2 0-3.6 2-2 3 2.2 1.3 37.9.8 39.9-.6 1.6-1.1 1.5-1.3-1-2.3-3.1-1.2-3.4-3-1.7-9.6.6-2.2 1.6-6.7 2.3-10s1.7-7.6 2.3-9.5 1.6-6.2 2.3-9.5 1.8-8 2.5-10.5 2.2-8.6 3.4-13.5c9.1-39.8 10.7-45.2 13.5-45.9 3.5-1 22.3-.7 25 .4l2.6 1v36.8c0 43.6 1.1 40.2-12.4 40.2-8.6 0-8.7 0-10.4-3-3.6-6.3-4.2-4.1-4.2 15.7 0 10.4.4 19.4.9 20.2.6 1 1.5.4 3.6-2.3l2.8-3.6 22.1.1h23.4c1-.1 1.2-13.8 1-66.8l-.3-66.7-14.5.3c-17.6.3-18.7.3-27.2-.5l-6.8-.6v-3.2c0-3.9 2.7-14.5 4.1-16.2.6-.7 2-1.4 3.2-1.6s2.2-1 2.2-1.8c0-1.3-3-1.5-20.2-1.8-11.7-.1-20.4.2-20.7.7zm19.1 22.7c.8 2.3-1.2 3.7-4.1 3-2.3-.6-2.5-.9-1.6-2.6 1.3-2.4 4.8-2.6 5.7-.4zm6.1 4.6c-.3.7-1.4 1.4-2.6 1.6-1.6.3-2-.1-1.6-1.2.7-1.9 4.8-2.2 4.2-.4zm6.2 6.3c0 .8-.9 1.5-2 1.5-2 0-2.6-1.1-1.3-2.3 1.2-1.3 3.3-.7 3.3.8zm-21.4 3.2c1.8 2.4 1.8 7.2-.1 7.9-.8.4-1.5 1.4-1.5 2.3 0 2.7-1.2 3.3-3.1 1.5-2.5-2.2-4.8-1.1-5.5 2.6-.7 3.5-.5 3.4-3.9 1.8-1.4-.6-2.5-1.8-2.5-2.6 0-.9-.8-2.4-1.7-3.4-1.6-1.7-1.5-2 1.7-5.3l3.4-3.5 3 3.1c2 2.1 3.7 2.9 5.5 2.7 3.4-.4 4.1-4.2 1.1-5.8-1.1-.6-1.8-1.5-1.5-2.1 1-1.5 3.7-1 5.1.8zm65.9-.7c.3.5-.3 1-1.4 1-1.2 0-2.1-.5-2.1-1 0-.6.6-1 1.4-1s1.8.4 2.1 1zm-15.2 35.6c.9 1-.4 3.4-1.8 3.4-1.7 0-2.8-1.7-2-3 .7-1.1 2.8-1.3 3.8-.4zm-59.3 24.8c0 .8-.4 1.8-1 2.1-.5.3-1-.3-1-1.4 0-1.2.5-2.1 1-2.1.6 0 1 .6 1 1.4zm3.8 9c.4 2.8-.7 3.2-3.9 1.6-1.8-1-2.6-5-1.2-6.3 1.2-1.3 4.8 2 5.1 4.7zm55 5.8c1.4 1.4 1.6 3.8.3 3.8-1.5 0-4.2-3.1-3.6-4.1.8-1.2 1.9-1.1 3.3.3zm4.2 33.6c0 1.2-3.9 3.2-4.5 2.3-.7-1.2 2.4-4.3 3.6-3.6.5.4.9.9.9 1.3zm47.1-139.1c-1.7 1.2-1.8 1.1 3.4 2.8.8.2 1.8 2.2 2.1 4.5.4 2.4 1.2 4 2 4 1.8 0 1.8.9-.1 3-1.2 1.3-1.5 4.9-1.6 17.3l-.1 15.7-2.9 1.5c-1.6.9-2.9 2.2-2.9 3.1 0 1.3 2.3 1.4 17.8 1 16.3-.4 17.7-.6 17.7-2.3 0-1.2-.9-1.9-2.7-2.1-2.6-.3-2.6-.3-2.3-8.3.1-4.4-.2-8.2-.6-8.5-1-.6-.3-20 .9-25.4.6-2.5 1.4-3.6 3.2-4 2.6-.6 4-2.9 1.8-3.1-11.3-.7-34.4-.2-35.7.8zm18.3 6.5c.9 1.7 1.6 4.2 1.6 5.5 0 3.4-2.4 2.4-2.8-1.1-.2-1.5-1-3-1.8-3.3-1.8-.7-1.8-4.3 0-4.3.8 0 2.2 1.4 3 3.2zm4.5 23.3c-1.9 1.8-3.7 2.4-7.9 2.5-7.1.3-8 .2-8-1 0-1.9 5.1-3.5 11.6-3.7l6.7-.1zm23.5-30.2c-1.8 1-.9 2.7 1.4 2.7 4.1.1 4.2.9 4.4 23 .1 20.9.1 21.4-2 22.8-3.1 2-2.7 3.8.9 4.6 5.2 1 18.6.7 21.4-.6 1.9-.9 2.8-.9 3.7 0 1.3 1.3 5.1 1.6 6.1.6 1.1-1.2-1.3-4.3-3.5-4.6l-2.3-.3v-21.9c0-23.3-.2-22.5 4.9-24.1 1.4-.4 1.6-.9.9-1.6-1.3-1.3-33.7-1.8-35.9-.6z"/><path d="m716.4 249.9c-1.1 1.1-.1 2.3 2.6 3.2 1.7.6 3 1.8 3 2.7 0 1 .1 18.1.2 38.2 0 31.3-.2 37.2-1.6 41.3-.9 2.6-1.6 5.6-1.6 6.7 0 3.1-5.8 13.1-10.2 17.6-8.3 8.6-22.3 13.1-43.8 14.1-14.7.6-17.6 0-18.2-3.9-.2-1.5-1-2.3-2.2-2.3-1.9 0-1.9.9-1.8 20.5.1 17.5.4 20.5 1.7 20.8.9.2 1.9-.7 2.5-2.2 1.2-3.2 2-3.4 22-4 18.7-.6 28.9-2.2 40.7-6.5 9-3.2 21.6-11 23.5-14.4.6-1.2 1.7-2.6 2.4-3 1.9-1.1 1.8-4.3-.1-5.1-1-.4-1.5-2-1.5-5.1 0-4.3.1-4.5 3-4.5 2.7 0 3 .3 3 3 0 1.6.4 3 1 3 1.4 0 4.2-7.1 3.5-8.9-.4-.9.3-2.2 1.5-3.1 2.9-2.2 6.1-17.6 6-29-.1-4.7-.1-23.2-.1-41.2l.1-32.7 3.1-1.6c1.6-.9 2.9-2.1 2.7-2.6-.3-1-40.5-1.9-41.4-1zm-552.7 35.9c-2.7.5-2.1 3.2.7 3.2 3.7 0 7.1 4 4.7 5.4-.5.4-1 13.5-1 30-.1 16.2-.4 30.2-.7 31.1-.3.8-1.7 1.8-3 2.1s-2.4 1.3-2.4 2c0 1.2 3.3 1.4 20.3 1.2 20.1-.3 22.8-.8 17.6-3.5-1.9-1-2.5-2.3-3.1-6.5-.8-6.9-1-48.8-.2-55.5.6-4.7 1-5.3 3.7-6.3 2.3-.7 2.8-1.3 2-2.1-1.1-1.1-34-1.9-38.6-1.1zm13.3 61.8c0 2-3 3-4 1.3-1.1-1.7.7-4 2.6-3.2.8.3 1.4 1.2 1.4 1.9zm61-60.6c0 .5 1.3 1.6 3 2.5 1.6.8 3.2 2.5 3.5 3.8 1.1 4.7-.3 80.1-1.7 86.7-2.6 13-8.9 21.4-20.3 27.2-4.4 2.3-15 4.8-20 4.8-4 0-4.4-.2-4.7-2.8-.2-1.6-.9-2.7-1.8-2.7-1.3 0-1.5 2.8-1.8 18.4-.2 10.1-.1 19 .3 19.9.4 1.2 1.2.8 3.8-2 3.2-3.5 3.3-3.5 13.4-4 7.9-.5 12.2-1.3 19.4-3.9 20.6-7.1 30.8-17 37.5-36.4l2.8-8 .4-49.9.3-49.8 3-1.1c1.6-.6 2.9-1.7 2.9-2.4 0-1-4.4-1.3-20-1.3-12.3 0-20 .4-20 1zm30.8 10.4c.4 3.5-.7 4.7-3.6 4-1.6-.5-2.2-1.4-2.2-3.4 0-4.8 5.3-5.3 5.8-.6zm-3.3 9.6c-.5.8-1.1.8-1.7.2s-.7-1.6-.3-2.2c.5-.8 1.1-.8 1.7-.2s.7 1.6.3 2.2zm-13.1 2.1c-.7 1.1-3.4 1.2-3.4.1 0-1.4 1.1-2.1 2.6-1.5.8.3 1.1.9.8 1.4zm15.6 10.9c0 .5-.7 1-1.5 1s-1.5-.5-1.5-1c0-.6.7-1 1.5-1s1.5.4 1.5 1zm-14 30c0 1.1-.6 2-1.3 2-1.9 0-2.7-1-2-2.6.8-2.1 3.3-1.7 3.3.6zm6.1 21.2c.7 1.8 1.4 3.5 1.6 3.8.5.8-6.1.5-7.4-.3-1.6-1-1.7-3.9-.1-5.5 2.2-2.2 4.6-1.3 5.9 2zm-7.7 10.1c2.3 1.7 1.7 5.1-1 5.5s-4.7-2.1-3.9-4.8c.7-2.3 2.4-2.6 4.9-.7zm10.1 8.2c0 1.4-.6 1.9-2 1.7-4.2-.6-4.8-1.1-3.5-2.8 1.8-2.1 5.5-1.4 5.5 1.1zm-14.8 2.9c-.9 5.5.1 7.6 3.4 7.6 3.1 0 3.9 1.7 1.4 2.6-1.9.8-1.9 2.3.1 4.5 2.1 2.3 1.2 4.9-1.4 4.2-1.4-.3-2.2.1-2.7 1.7s-1.2 2-2.8 1.6c-1.2-.3-3-.6-3.9-.6-2.2 0-2.3-1.6-.4-5.3 1.3-2.3 1.3-2.7 0-2.7-.8 0-1.4-.9-1.4-2 0-3 2.8-8 4.5-8 1 0 1.5-1.1 1.5-3.5 0-1.9.5-3.5 1.1-3.5.8 0 1 1.2.6 3.4zm11.3 4.1c0 1.9-3.6 3.9-4.5 2.5-.8-1.3 1.3-4 3.1-4 .8 0 1.4.7 1.4 1.5zm1 8c0 .8-.4 1.5-.9 1.5-1.3 0-2.2-1.6-1.4-2.4 1.1-1.1 2.3-.6 2.3.9zm-56.5 14.4c.7 1.2-1.2 2.4-2.5 1.6-1.1-.7-.4-2.5 1-2.5.5 0 1.1.4 1.5.9z"/><path d="m244 406.9c0 1.1 2.6 2.2 3.4 1.4 1.2-1.2.5-2.3-1.4-2.3-1.1 0-2 .4-2 .9zm64.1-120c-.9.6-1.1 3.7-.8 12.2.3 6.3.6 11.8.7 12.4.1.5-.3 3.7-.9 6.9-.8 4.3-.7 6.3 0 7.3 1.7 2 2.6 1.6 3.8-1.7l1-3h16.8c41.1-.1 56.8.1 57.6.9.5.5.9 20.4.8 44.2-.1 33.3-.4 43.6-1.3 44.6-.9.8-7.1 1.4-19.8 1.7-22.8.7-20.4.7-39-.2-14.4-.6-15.5-.8-15.8-2.7-.5-2.8-2-4.1-3.1-3-.6.6-1.1 9.2-1.3 19.2-.2 14.2.1 18.6 1.1 19.5 1.1 1 1.4 1 1.8.1.3-.7 1.2-2.2 2.2-3.4 1.7-2.2 2-2.2 43.7-2.2 23 0 45.4.1 49.6.3 5.1.2 8.3-.2 9.3-1 1.3-1 1.4-7.9 1-52.9-.3-28.4-.5-52.5-.6-53.6s.2-10.1.6-20.1c.6-13 .5-18.3-.3-18.8-.6-.4-23.8-.8-51.6-1-27.7-.2-50.9-.7-51.5-1.1-.6-.3-1.1-1.5-1.1-2.5 0-2.3-1.2-3.1-2.9-2.1zm99.7 57.3c-.3.7-1.1 1.3-1.8 1.3s-1.5-.6-1.7-1.3c-.3-.7.4-1.2 1.7-1.2s2 .5 1.8 1.2zm-9 4c-.2 1.3-1 2.3-1.8 2.3s-1.6-1-1.8-2.3c-.3-1.7.2-2.2 1.8-2.2s2.1.5 1.8 2.2zm11.2 5c0 .5-.7.8-1.5.8-1.5 0-2-2.1-.8-3.3.7-.7 2.3 1.1 2.3 2.5zm-6.5 7.8c.9 1.4-2.7 5.9-4.7 6-2.4 0-3-1.5-1.7-4.4 1.2-2.6 5.2-3.6 6.4-1.6zm-7.7 10.2c.7.7 1.2 2.3 1.2 3.6v2.5l-2-2.6c-3-3.7-2.3-6.6.8-3.5zm9.1 20.4c1.2 1.9 2.1 4.8 2.1 6.5 0 2 .5 2.9 1.6 2.9 1 0 1.4.7 1.2 2.2-.4 2.7-2.1 3.1-2.6.6-.2-1-1.7-3.2-3.4-5-3.4-3.6-5.1-7.5-4.4-9.5.9-2.4 3.4-1.4 5.5 2.3zm-62.9 27.9c0 .9-1.6 2.5-3.5 3.6-3.8 2.2-3.8 3.9-.1 3.9 3.1 0 5 4.1 3.1 6.6-1.9 2.7-6.5.5-6.5-3.1 0-1.4-.7-2.8-1.5-3.1-2.3-.9-1.8-3.3 1.2-6.5 3-3.1 7.3-3.9 7.3-1.4zm14 2c0 .7-.7 1.5-1.5 1.9-.8.3-1.5 1.2-1.5 2 0 1.3-2.8 3.6-4.4 3.6-.3 0-.6-1.1-.6-2.5 0-1.8.7-2.6 2.4-3.1 1.3-.3 2.6-1.5 2.9-2.6.6-2.1 2.7-1.6 2.7.7zm5.8 5.3c.2 1.5-.2 2.2-1.2 2.2-1.1 0-1.6-.9-1.6-2.6 0-3.1 2.3-2.8 2.8.4zm447.8 0c-.3.6-.1 1.4.5 1.7 1.5 1 2.5-.3 1.2-1.6-.7-.7-1.3-.7-1.7-.1zm-8.9 1.9c-1.3 1.3-.7 6.4.8 7 2.3.8 2.7-.1 2-4.1-.7-3.5-1.5-4.3-2.8-2.9zm-552.7 42.5c-1.9.5-4.8.8-6.5.5-1.6-.2-3.9-.1-5 .3s-3.3.3-4.9-.1c-2.4-.7-3.4-.5-4.8 1.1-1.1 1.1-2.3 1.8-2.9 1.5-1.4-.9-1.1 1.9.5 4.1 1.4 1.8 1.5 1.8 2.5-.8.9-2.4 1.5-2.7 4.3-2.4 2.2.2 3.7 1.1 4.4 2.6.7 1.2 2.2 2.7 3.4 3.4 3.6 1.8 4.6 4.1 3.3 7.5-.9 2.6-.8 3 1.1 3.7 1.1.4 3.8.8 6 .9 3.5.2 4-.1 5.2-3.2 1.4-3.3 4.4-4.6 4.4-1.8 0 .8-.4 1.5-1 1.5-.5 0-1 .6-1 1.3 0 1.9 6.8 3.9 9.1 2.7 1.1-.7 2.7-.6 4.4 0s33.8 1 89 1c81.2 0 86.3-.1 87-1.8 1.3-3.1.7-20.4-.7-21.3-.7-.5-13-.9-27.3-.9-33.8 0-133.1.2-150.5.3-7.4.1-14.2-.1-15-.5-.8-.3-3.1-.2-5 .4z"/><path d="m230 483.6c-1.3 3.3-1.4 3.1 1.5 3.8 1.8.5 2.5 1.3 2.5 3.1s.5 2.5 1.9 2.5c3.2 0 3.5-1.9 1-7.1-2.7-5.5-5.4-6.4-6.9-2.3zm384.5 73.1c-1.6.3-3.4.8-4 1.3-.5.4-2.5 1.1-4.2 1.5-7.3 1.5-19.3 16.9-19.3 24.8 0 1.4-.5 2.9-1 3.2-.6.4-1 2.1-1 3.8 0 1.8-.3 6.7-.6 11-.5 6.1-.3 8.2 1 10.2.9 1.3 1.6 4.4 1.6 6.8 0 12.7 14.2 28.5 26.2 29.1 2.7.1 3.4-.3 3.6-2.1.3-1.7-1.4-3.9-6.4-8.8-3.7-3.6-7.1-6.5-7.6-6.5-.4 0-.8-1.1-.8-2.5s-.7-2.8-1.5-3.1c-2.4-1-1.8-3.4.9-3.4 1.3 0 2.6-.6 2.9-1.3.2-.6.2-6.4 0-12.7-.5-12.9.8-27.7 2.8-33 4.3-11 12.9-15.6 21.2-11.4 4.7 2.5 9.7 9.4 9.7 13.5 0 2.2 1.8 10.2 3.3 14.1 1 3.1 2.3 3.4 5 1.4.9-.7 2.8-1.1 4.2-.8 1.9.3 2.5 1 2.5 3.2 0 3-3.9 5.7-5.8 3.8-.5-.5-2-.8-3.3-.6-2.3.3-2.4.7-3 10.8-.6 10.6-2 17.8-4.5 23.8-1.8 4.3-1.8 4.8.8 8.2 2.4 3.3 4 3.7 5.8 1.5 1-1.2.9-1.6-.4-2.1-1.7-.7-2.3-7.8-.7-8.8 1-.7 4.1 3.7 4.1 5.8 0 1.5 2.4 2.8 3.4 1.9.3-.4.6-2.8.6-5.5 0-4.8.7-5.7 2.7-3.7 1.6 1.6 3.3.2 3.3-2.5 0-1.2.5-2.7 1-3.2 1.2-1.2 2.8-16.2 2.5-23.4-.1-2.5-.2-7.3-.3-10.8-.2-6.4-1.1-7.5-3.8-4.7-2 1.9-5.8 1.9-7.4 0-.9-1.1-.8-2.1.7-4.7 1-1.8 2.4-3.9 3.1-4.6 1.5-1.6.8-4.5-2-8.5-2-2.8-2.7-3.1-6.5-2.7-1.7.1-2.3-.4-2.3-1.9 0-4.9-13.7-8.2-26.5-6.4zm33 15.4c.4.6.4 2.6.1 4.5-.6 2.8-1.1 3.4-3.2 3.4-2.3 0-2.4-.2-1.8-3.8.4-2 .9-4 1.1-4.5.6-1.1 3.1-.9 3.8.4zm-45.5 6.4c0 .8-.7 1.5-1.5 1.5s-1.5-.7-1.5-1.5.7-1.5 1.5-1.5 1.5.7 1.5 1.5zm-6 51c0 .8-.7 1.5-1.5 1.5s-1.5-.7-1.5-1.5.7-1.5 1.5-1.5 1.5.7 1.5 1.5zm-37.4-70.1c.4 1.8.1 2.5-1.6 2.9-1.3.3-2.3 0-2.7-.9-.6-1.6-3.9-1.9-4.8-.4-.3.5-1.5 1-2.5 1s-4.3 1-7.4 2.1c-3.9 1.5-5.6 2.7-5.6 4 0 2.7 1.9 3.4 8.3 3.1l5.7-.3v17.5c0 10.7.4 17.7 1 18.1.6.3 1.3-.1 1.6-.9 1.1-2.8 3.4-1.8 3.4 1.3 0 2.4-.5 3-2.5 3.3-1.4.2-2.6.7-2.6 1.3 0 .5 1.2 1.1 2.6 1.3 2.3.3 2.5.8 2.5 4.9 0 4.3-.1 4.5-2.4 4.1-3.9-.8-4.9 4.7-2 10.3 1.4 2.9 1.4 3.2-.3 5.2-2.5 3-5.4 5.1-7.8 5.7-2.4.7-3.2 4.5-1.1 5.3 2.3.9 4.3-.1 4.9-2.5l.6-2 2.9 2.1c2.5 1.8 4.7 2.1 14.5 2.3 12.7.3 15.7-.6 12.4-3.9-1.5-1.6-1.8-1.6-3.5 0-4.6 4.2-12.4.4-12.6-6.1-.2-3.2-.5-3.7-2.9-4-2.1-.3-2.7-.9-2.7-2.7 0-1.3.4-2.6.9-3 .8-.4 6.3-1.2 11.4-1.5.5 0 .7-1 .5-2.3-.2-1.7-1.1-2.3-3.5-2.5-3.2-.3-3.3-.5-3.3-4.8 0-4.6 1.3-5.7 3.5-2.7 3 4.1 3.5.4 3.5-25.9 0-25.1-.1-26-2-26.5-1.3-.3-2-1.4-2-2.9 0-1.9-.5-2.4-2.5-2.4-2.2 0-2.5.3-1.9 2.4zm1.9 40.1c0 .5-1 1.1-2.2 1.3-1.6.2-2.3-.2-2.3-1.3s.7-1.5 2.3-1.3c1.2.2 2.2.7 2.2 1.3zm-238.4-34.3c-2.7 3.5-7.1 8.1-9.8 10.4-5.4 4.5-18.7 12.8-22.4 13.9-1.3.4-3.2 1.4-4.1 2.3-1.7 1.4-1.7 1.6.5 3.6 5.2 4.9 5.1 4.9 11.4 1.5 12.6-6.9 12.8-7 13.5-1.9.3 2.4.7 2.5 8.3 3l8 .5.3 4.1c.4 6-.7 6.5-15.4 6.7-10.5.2-12.9.5-13.7 1.8-.6.9-.7 2.4-.4 3.3.6 1.5 2.3 1.6 13.9 1.4l13.3-.3.3-2.8c.3-2.5.7-2.7 4.7-2.7h4.4l.3 5.5c.3 5.6 2 7.6 2.6 3 .4-3.3 3.7-5.1 6.6-3.6 1.3.7 5.7 1.1 11.1.9l9-.3v-6l-13.2.1-13.3.2-.6-3.4c-.3-1.9-.3-4.5 0-5.9.6-2.4 1-2.5 7.5-2.5 7.4 0 7.9-.3 7.3-5.4l-.4-3.1-16.5.3c-23.1.5-25.2-.4-16.8-6.6 2.4-1.8 5.9-5.3 7.7-7.7 4.8-6.3 6.1-6.3 12.2-.1 2.8 2.9 7.1 6.6 9.6 8.2s4.8 3.2 5.1 3.7c.3.4 2.3 1.7 4.5 2.9 2.1 1.1 5.8 3.3 8.1 4.8 6.6 4.5 7.9 4.6 11.3.8 3.3-3.5 3.9-5.8 1.5-5.8-.8 0-1.5.4-1.5 1 0 2-3 .9-3.5-1.3-.4-1.4-2.4-3-5.8-4.6-2.9-1.3-7.7-4-10.7-6-6.6-4.3-19-15.8-19-17.6 0-1.6-1.4-2.1-6.7-2.4-4.1-.2-4.4.1-9.2 6.1zm100.3-1.7c-1.4 3.6.3 4.5 8.2 4.5 6.5 0 8-.3 10-2.3 1.3-1.2 2.4-2.5 2.4-3 0-.4-4.5-.7-10-.7-8 0-10.2.3-10.6 1.5zm30.1.5c-1 3.2.3 4.2 4.9 3.6 2.2-.3 6.4-.2 9.1.2 4.4.6 5 1 5.3 3.3.4 3.2-1.5 3.9-10 3.9-4.6 0-5.9.4-6.7 1.9-.6 1-.7 2.1-.4 2.5.3.3 4.1.6 8.4.6 9 0 9.9.9 7.8 8-1.7 5.7-.2 6.7 4.4 2.9l3.8-3.1-.3-12.6-.3-12.7-12.7-.3c-11.9-.2-12.7-.1-13.3 1.8zm-58.2 3.3c-2.3 1.8-2.3 2.2-2.3 20.2 0 10.3.4 18.6.9 19 .5.3 2.2-.6 3.6-1.9 3.6-3.4 12.7-4.6 15.5-2.1 1 .9 2.4 1.4 2.9 1 1.3-.7 1.6-37.5.4-37.5-12.6-.8-18.9-.3-21 1.3zm13.2 10.9c1.2 6.2.2 16-1.7 17.2-3.4 2.1-5.3-.4-5.6-7.5-.2-3.5 0-7.9.3-9.7.5-2.7 1-3.2 3.5-3.2s3 .5 3.5 3.2z"/><path d="m441 569.9c0 3.9-2.7 5.2-10.2 5-7.2-.2-9.3.6-8.2 3.4.5 1.3 2.3 1.7 8.7 1.9l8.2.3v7l-8 .3c-8.3.3-10.5 1.2-10.5 4.3 0 1.5.8 1.9 3.9 1.9 7.4 0 8.5 1.4 5.4 7.3-2 3.6-11.1 15.7-11.9 15.7-.3 0-2.1-1.6-4.1-3.5-5.4-5.2-6.3-4.7-6.3 3.3 0 8.4-1.3 10.7-5 8.9-2-1-2.6-2.1-2.8-5.7-.4-5.4-1.7-7.2-5.1-6.8l-2.6.3v27l3.8.3c2.9.3 3.7 0 3.7-1.3 0-.9-.6-2.3-1.4-3.1-.8-.7-1.2-2.3-.9-3.4.5-1.9 1.3-2.1 7.1-2.4 1.1-.1 2.1 1.1 2.8 3.4.9 2.7 1.8 3.6 3.9 3.8 2.9.4 4.5-1 4.5-4 0-1.1-1-1.8-2.7-2-2-.2-2.8-.9-2.8-2.3 0-1.1.7-2.1 1.5-2.1.8-.1 2.1-.2 2.8-.3.6 0 1.2-1.2 1.2-2.5 0-3.1 1.6-4.2 3.6-2.5 1.1.9 2 .9 4 0 1.4-.6 3-.9 3.5-.6.5.4.9 7.1.9 14.9v14.4l3.5.4c2.5.3 4-.1 5.2-1.4 1.4-1.6 3.6-1.8 21.2-1.8 10.8 0 20.3-.5 21.1-1 1.2-.7 1.2-1.3.4-2.7-.9-1.5-2.9-1.9-11-2.3l-9.9-.5v-6l8.3-.3c8.1-.3 8.2-.3 8.2-2.8v-2.6l-9.1.4c-7.3.2-9.2.6-10 2-1.2 2.2-5.9 2.4-5.9.4 0-.8.5-1.8 1-2.1.6-.3 1-1.5 1-2.5 0-1.1.7-2.8 1.6-3.8 1.4-1.7 2.7-1.8 11.5-1.4 8.5.4 9.9.3 9.9-1.1 0-2.3-1.4-2.8-9.3-3.6-6.9-.6-7.2-.7-7.5-3.3-.3-2.1.3-3 2.7-4.3 1.9-.9 3.1-2.3 3.1-3.5 0-2.4-1.3-2.5-4.6-.4-2.9 2-4.3 1.1-2.6-1.6 1.7-2.8 1.5-4.4-.8-6.5l-2.1-1.9 2.8-2.2c1.5-1.3 4.2-2.3 5.9-2.4 3.6 0 4.5-.6 3.7-2.6-.4-1-2.3-1.4-6.8-1.4-7 0-7.9 1-6.8 7.4 1 6.1-6.6 11.9-11.6 8.7-.8-.5-1.1-1.6-.7-2.9.6-1.7.2-2.3-1.8-2.8-5.6-1.4-2-4.4 5.2-4.4h3.3l-.3-12.8-.3-12.7-2.7-.3c-2.2-.3-2.8.1-2.8 1.7zm5.3 41.1c1.8 0 2.6.7 3.1 2.4 1.2 4.7 0 5.7-6.3 5-3.1-.4-5.8-.8-6-1-1.2-1.1 0-5.7 2-7.3 2.1-1.7 2.6-1.8 3.5-.6.6.8 2.3 1.5 3.7 1.5zm2.5 15.2c-.3 3-.6 3.3-4 3.6-3.5.3-5.5 2.3-4.2 4.3.3.5 2.2.9 4.3.9 3.1 0 4 .4 4.4 2.1 1.1 4-.1 4.9-6.4 4.9-4.5 0-5.9-.3-5.9-1.5 0-.8-.9-2.2-1.9-3.2-1.4-1.3-1.9-3-1.7-6.5.2-6.2 2.2-7.7 9.9-7.8h5.8zm57-40.5c-.2 6 .1 12 .5 13.5.7 2.3 1.2 2.6 4.1 2.1 2.2-.3 4.2.1 6 1.2 1.8 1.2 3 1.5 3.7.8 1.2-1.2-3.3-4.4-7.6-5.3-2.9-.5-3-.8-3.3-6.3-.2-4.6 0-5.7 1.3-5.7 3.1 0 9.5-2.5 9.5-3.7 0-1.6-1.2-1.7-2.7-.2-.6.6-2.6.9-4.4.7-3.1-.3-3.4-.6-3.7-4.1-.2-2.4-.8-3.7-1.7-3.7-1.1 0-1.5 2.3-1.7 10.7zm-11.3 16c.9 3.9 2.9 5.7 5.2 4.8 1.6-.7 1.5-.9-.9-1.8-2-.8-2.8-1.8-2.8-3.4 0-1.3-.5-2.3-1.1-2.3-.7 0-.9 1-.4 2.7zm200.6 4.3c-.8 2.6-1.5 3-4.4 3-2.1 0-3.7.6-4 1.4-.7 1.8 1.1 2.5 4.4 1.9 1.5-.3 3 .1 3.7.9 1.7 2.2.3 5.6-2.4 6-4.5.6-2.5 2.3 3.1 2.6 4.6.3 5.5.6 5.5 2.2 0 1 .7 2.5 1.5 3.4.8.8 1.5 1.9 1.5 2.5 0 1.4-2.3 1.4-3.5.2-1.1-1.1-13.2-1.8-14.1-.8-1.6 1.6 1.4 2.7 7.6 2.7h6.9l.7 3.6c.8 4.3-1 8.9-3.1 8-2-.7-2.9 1.2-1.5 2.9 3.5 4.2 8-.3 8-7.8 0-4.3.3-5 3-6.5 3.8-2.1 3.8-2.9 0-3.7-2.3-.5-3-1.2-3-3.1s.8-2.8 3.1-3.6c3.9-1.3 2.7-2.6-3-3-7.9-.6-8.3-5.9-.4-6.3 2.7-.2 3.9-.8 4.1-2 .3-1.5-.3-1.6-5.2-1l-5.6.7v-3.6c0-4.4-1.4-4.7-2.9-.6zm-192.6-1.1c-.3.5-.1 1.2.5 1.6 1.2.7 3-.2 3-1.6 0-1.2-2.7-1.2-3.5 0zm166.2 2.7c-.4.4-.7 8.3-.7 17.6 0 14.6.2 16.8 1.6 16.8 1.3 0 1.5-1.3 1.3-7.8-.3-8.4.2-10.2 3.1-10.2 2.5 0 3.4 1.7 3.5 6.2 0 6.5 2 4.7 2.3-2.1.4-8.6.1-9.3-3.7-7.8-4.1 1.5-5.5 0-5.3-5.5.2-5.4 2.6-7.3 5.6-4.3 2.1 2.2 3.8 1.8 3.4-.8-.3-1.9-1-2.2-5.3-2.5-2.8-.2-5.4 0-5.8.4zm-474.4 2.1c-.4 1-1.7 3.2-3 4.9-4 5.3-2.3 7.6 2.2 2.8 2.3-2.4 2.6-2.5 15.2-2.4 17.2.1 16.9.2 15.7-1-.5-.5-6.6-1.1-13.4-1.2-12.1-.3-12.5-.4-12.8-2.6-.4-2.6-3-2.9-3.9-.5zm57.4 1c-1.1 1-.8 20.3.2 20.3 1.6 0 2.2-3.5 2-10.6-.2-6.7.9-9 3.9-7.9.8.3 4.3.5 7.8.5h6.4v11.5c0 11.5 0 11.6-2.6 12.5-1.4.6-2.2 1.4-1.9 2 1 1.6 3.3 1.2 5.5-1 1.8-1.8 2-3.3 2-13.4 0-6.3-.3-12.1-.6-13-.5-1.3-2.5-1.6-11.3-1.6-5.9 0-11.1.3-11.4.7z"/><path d="m259.9 616.7c-.1.4 0 1.8 0 2.9.1 1.2-.5 2.4-1.4 2.8-2.5.9-.7 2.6 2.8 2.6 4.4 0 6.7-1.5 3.8-2.5-1.6-.5-2.1-1.3-1.9-3.3.2-1.8-.2-2.7-1.4-3-1-.2-1.8 0-1.9.5zm250.6 2c-4.3.9-4.6 1.2-3.6 3 1 2-1.8 6.4-7.1 11.4-3.7 3.3-2.5 4.4 1.6 1.6 5.4-3.7 7.6-6 7.6-7.7 0-.9 1.1-2.7 2.5-4s2.5-2.9 2.5-3.7c0-1.3-.1-1.4-3.5-.6zm-310.7 1.1c-2.3.3-2.7.8-3 4-.3 3.5-.5 3.7-4 4-2.5.2-3.8.8-3.8 1.8 0 .8.8 1.4 1.7 1.4s2.5.7 3.5 1.7c1.7 1.5 1.9 1.5 3.6 0 2.9-2.6 7.1-2.2 8.2.8 1.2 3.1 2.2 3.2 3.5.2.8-1.7 1.8-2.2 4.5-2.2h3.5l-.2 4.7c-.1 3.5.3 4.8 1.2 4.8 1.9 0 2.8-1.8 2.9-5.9.1-2.9.5-3.7 2.4-3.9 2.7-.4 3-3.2.2-3.2-1.7 0-2-.7-2-3.9v-4l-9.7-.3c-5.4-.2-11-.2-12.5 0zm6.7 4.3c1 3-1.5 5.2-4.8 4.3-2.7-.6-3.2-1.9-2.1-4.8.9-2.5 6.1-2.1 6.9.5zm11.9.1c.8 3.2-1.3 5-5.2 4.2-2.4-.5-3.2-1.2-3.2-2.9 0-2.9.7-3.5 4.6-3.5 2.4 0 3.3.5 3.8 2.2zm87.4-1.1c-1 .5-1.8 1.5-1.8 2 0 2.2 5.4 12.9 6.5 12.9.6 0 2.4-1.3 3.9-2.9l2.8-3-2.9-4.8c-3-4.9-5.4-6.1-8.5-4.2zm46.2-.2c0 .5.9 1.3 2 1.6 1.3.4 2 1.5 2 3 0 1.3.3 3.1.7 4 .5 1.4 1 .9 2.5-2.1 2.3-4.8 2.3-4.9-.7-6.2-3.1-1.4-6.5-1.6-6.5-.3zm-115 3.5c0 .8 1 1.6 2.3 1.8 1.9.3 2.3 1 2.7 5.7.3 3.1 1 5.6 1.8 5.9 2 .6 1.7-13.4-.4-14.2-2.9-1.1-6.4-.6-6.4.8z"/><path d="m333.2 626.2c-1.6 1.6-1.5 3.3.3 4.8 3.1 2.6.6 7.9-4.5 9.5-1.6.5-1.9 1-1 2 1.8 2.2.1 3.9-2 2-1.4-1.3-4.2-1.5-17.6-1.3l-15.9.3-.3 3.7-.3 3.8h11c6.3 0 12.1-.5 13.6-1.2 1.9-.9 2.8-.9 3.7 0 1.6 1.6 41.4 1.7 42.3.2.5-.8 1.1-.7 2 0s2.7.9 4.5.5c2.5-.5 3-1.1 3-3.5 0-1.6-.4-3.1-.9-3.5-.6-.3-8.2-.5-17-.6h-16l-.6-3.2c-.3-1.8-.5-5.2-.4-7.7s.1-5.1 0-5.8c-.1-1.5-2.3-1.6-3.9 0zm181.8 6.2c0 .7.7 1.9 1.5 2.6 2.4 2 1.9 6.5-1 8-2.3 1.2-2.8 1.1-5-1-1.4-1.3-2.8-2-3.2-1.6-.5.4 0 1.4 1 2.1 1.3.9 1.7 2 1.2 3.4-.7 2.5 1.2 2.9 2.2.5.4-1.1 1.3-1.4 3-.9 1.7.4 2.5.1 3-1.2.4-1 1.1-2.1 1.6-2.4.5-.4 1-1.9 1-3.4s-.5-3-1-3.4c-.5-.3-1.2-1.4-1.6-2.4-.8-2-2.7-2.3-2.7-.3zm-266.6 3.1c-.7 2.9-.1 4.1 1.5 3 1.4-.8 1.4-5.5.1-5.5-.5 0-1.2 1.1-1.6 2.5zm12.3-1.7c-2.4.2-3.7.8-3.4 1.5.5 1.6 6.6 2.2 8 .8 1.7-1.7-.3-2.7-4.6-2.3zm416.8 3.2c-.4.6-.3 1.6.3 2.2s1.2.6 1.7-.2c.4-.6.3-1.6-.3-2.2s-1.2-.6-1.7.2zm11.5.9c0 2.4 1.8 3.7 3.2 2.3.8-.8.7-1.6-.2-2.7-1.7-2.1-3-1.9-3 .4zm-495.3 3.4c-.3.8-.1 2 .4 2.8 1.1 1.9 3.4-.3 2.6-2.5-.8-2-2.3-2.1-3-.3zm438.3-.6c-.8.2-2.4.8-3.5 1.3s-3.3 1.1-5 1.2c-2.5.3-3.1.8-3.3 3.2l-.4 2.8 7.6-.4c7.9-.4 9.3-.9 8-3-.5-.7-.7-2-.6-3 .3-1.9-.7-2.7-2.8-2.1zm-393.7 3c-1.8.6-1.6 2.3.1 2.3s3-1.6 1.9-2.3c-.5-.2-1.4-.2-2 0zm262.4 0c-1.3 1.3-.7 3.2 1.4 4.4 1.2.6 2.4.7 2.8.2.9-1-3.3-5.6-4.2-4.6z"/></g></svg>