<svg xmlns="http://www.w3.org/2000/svg" width="2500" height="2500" viewBox="0 0 192.756 192.756"><g fill-rule="evenodd" clip-rule="evenodd"><path fill="#fff" d="M0 0h192.756v192.756H0V0z"/><path d="M67.431 95.988c6.534.886 11.708 8.617 11.708 18.119 0 2.416-.323 4.027-1.1 5.879-8.086 1.128-12.615-10.388-12.615-17.556.001-1.61.712-4.348 2.007-6.442zm116.757 7.868c-5.85-.743-10.781-4.951-11.893-11.918-.006-.039-.051-.097-.096-.097-.047 0-.09.053-.098.097-1.086 6.849-5.875 11.033-11.594 11.876.129-7.097 1.086-9.367 1.086-12.9 0-.483.064-1.127-.842-1.288-.258-.081-.451 0-.711 0-.971.081-2.006.161-2.975.161-.648 0-1.23-.08-1.877-.08-1.746 0-2.523.322-2.523 16.025 0 6.301.041 10.758.158 13.912h-.217c-.611-2.56-1.898-5.631-4.58-8.274-3.363-3.303-8.021-4.51-13.197-4.832 0-3.704.129-6.362.193-7.731.324-5.476.906-6.845.906-7.892 0-.483-.129-1.127-.84-1.288-.26-.081-.453 0-.713 0-.971.081-2.006.161-2.975.161-.648 0-1.295-.08-1.941-.08-2.248 0-2.646 1.522-2.652 23.064-2.123 3.157-4.846 6.646-7.268 7.819-5.498-2.576-9.496-12.684-9.496-19.368 0-1.208.129-4.51 1.1-7.006 7.375 1.933 7.504 7.812 8.992 7.812 1.424 0 4.658-7.087 4.658-7.57 0-2.497-8.41-7.489-10.416-7.489-2.393 0-10.479 9.663-10.479 20.857 0 1.257.111 2.522.314 3.779-1.182 3.012-2.369 5.861-4.523 8.542-5.499-2.576-9.509-12.24-9.509-18.925 0-1.208.129-4.51 1.1-7.006 7.374 1.933 7.503 7.812 8.991 7.812 1.424 0 4.658-7.087 4.658-7.57 0-2.497-8.41-7.489-10.415-7.489-2.112 0-8.653 7.521-10.165 16.979-.92-11.23-8.54-16.979-11.94-16.979-1.115 0-2.567.97-4.062 2.655 2.486-3.666 3.81-8.701 3.81-13.792 0-12.3-8.274-20-20.323-20-9.238 0-16.467 6.6-19.359 15.4-.241 7.1-.241 11.1-.241 15.2v17.381c-5.711-.851-10.489-5.031-11.582-11.875-.006-.039-.05-.097-.096-.097-.045 0-.089.053-.096.097-1.106 6.968-6.044 11.178-11.893 11.918a.076.076 0 0 0-.064.07c0 .032.024.065.064.071 5.849.741 10.784 4.95 11.894 11.918.009.059.05.095.095.095s.087-.041.096-.095c1.09-6.844 5.87-11.027 11.582-11.875v18.99h-6.667v4.217h25.786v-4.217h-6.667v-22.5l5.542-9c3.455 2.2 4.74 3.7 8.355 3.7 3.374 0 6.177-1.452 8.343-3.804-3.152 4.452-6.094 11.726-6.094 19.459 0 10.308 8.604 17.849 11.902 17.849 3.047 0 9.926-8.365 11.419-18.646 1.004 9.999 8.243 18.646 11.01 18.646 4.282 0 9.442-10.252 10.243-12.354 2.5 7.48 7.443 12.354 9.619 12.354 2.883 0 8.141-5.279 11.783-10.709v6.067c0 2.899 1.488 3.154 2.264 3.154h16.691c3.092 0 6.104.995 7.373-3.108.371 2.896 1.004 3.108 2.053 3.108h3.041c3.688 0 3.299-.899 3.299-2.349 0-2.094-1.035-9.423-1.035-19.489 0-.477.004-.933.01-1.372 5.719.844 10.508 5.027 11.6 11.878.008.059.051.095.096.095s.086-.041.096-.095c1.109-6.968 6.043-11.179 11.893-11.918.039-.005.064-.039.064-.071s-.021-.064-.065-.07zm-49.358 20.64c-.193-3.865-.193-6.281-.193-10.065 0-2.014 0-2.899.129-4.27 7.568 1.209 8.604 8.054 8.604 11.678 0 .967 0 1.691-.064 2.577l-1.1.08h-7.376zM44.686 94.531v-13.5c0-7.6-.643-21 6.587-21 6.025 0 6.748 8.5 6.748 15.6 0 10.5-3.213 12.5-5.221 12.5-.723 0-2.169-.9-2.973-1.7l-5.141 8.1z"/></g></svg>