<svg xmlns="http://www.w3.org/2000/svg" width="2500" height="2500" viewBox="0 0 192.756 192.756"><g fill-rule="evenodd" clip-rule="evenodd"><path fill="#fff" d="M0 0h192.756v192.756H0V0z"/><path d="M45.16 58.056l.458 1.144h-1.693l1.235-1.144zm-12.716-.549v-.046l.046 1.739h-1.784l1.738-1.693zm12.075-1.235l.458 1.189-1.51 1.418-.412-1.144 1.464-1.463zm-12.075-1.555v1.921l-1.921 1.921v-1.921l1.921-1.921zm11.343-.457l.549 1.417-1.509 1.464-.549-1.372 1.509-1.509zm-.732-1.876l.503 1.28-1.509 1.464-.503-1.326 1.509-1.418zm-10.611-.549v2.059l-1.921 1.83v-2.059l1.921-1.83zm9.834-1.463l.549 1.372-1.509 1.418-.549-1.418 1.509-1.372zm-9.834-1.236v1.831l-1.921 1.875v-1.784l1.921-1.922zm9.056-.868l.595 1.509-1.602 1.327-.502-1.327 1.509-1.509zm-.915-1.83l.32.229.366 1.006-1.51 1.555-.595-1.509 1.419-1.281zm-8.141-.137v2.058l-1.921 1.83v-1.921l1.921-1.967zm5.809-1.098l.457.092c.32.274.96.64 1.372.869l-1.143.96-.686-1.921zm-5.809-1.555v1.875l-1.921 1.966v-1.921l1.921-1.92zm0-2.836v2.058l-1.921 1.83v-2.012l1.921-1.876zm12.944-2.287c-.045.595-.092.778-.457 1.692l-.366.641c-.823 1.464-2.378 2.424-4.116 2.562 1.051-.686 1.783-1.418 2.378-2.378l2.561-2.517zm-12.944-.412v1.831l-1.921 1.875v-1.875l1.921-1.831zm12.944-2.196c.091.458.137.641.137 1.007v.778l-2.515 2.379c.274-.87.32-1.145.503-2.15v-.138l1.875-1.876zm-12.944-.457v1.876l-1.921 1.783v-1.738l1.921-1.921zm12.259-1.509c.274.367.411.687.548 1.235l-1.738 1.692c0-.503-.045-1.235-.137-1.692l1.327-1.235zm-12.259-1.098v1.738l-1.921 2.013V34.82l1.921-1.967zm11.069-.502c.366.274.412.366.915 1.052L43.193 34.5c-.092-.503-.275-.961-.458-1.373l.778-.776zm-12.99-1.327h1.921v1.006l-1.921 1.83v-2.836zm3.659 0h2.424c4.162.046 5.764 1.692 5.764 5.9 0 1.555-.366 3.064-.961 4.162-1.052 1.83-2.104 2.379-4.71 2.379h-1.738l-.778-.046V31.024h-.001zm6.449 0h.412c.731 0 1.463.32 2.15.96l-.732.686c-.687-.869-.961-1.143-1.83-1.646zm-13.402-1.098v1.098h2.15V59.2h-2.15v1.144h9.194V59.2h-2.241V44.655h3.522l-.594.731L42.324 59.2h-1.921v1.144h8.828V59.2H47.4l-4.894-12.854-.137-.045a18.845 18.845 0 0 1-2.791-1.646c1.144-.184 1.464-.275 2.333-.504 3.384-.96 5.352-3.521 5.352-7.044 0-4.162-3.11-7.181-7.365-7.181H27.229zM56.156 59.336c.229.092.32.138.458.138.778 0 1.463-.778 1.463-1.647 0-.137 0-.229-.045-.411l-1.876 1.92zm1.509-2.423c-.229-.274-.502-.412-.823-.412-.777 0-1.417.64-1.417 1.463 0 .321.091.595.365.824l1.875-1.875zm2.013.961c0 1.555-1.281 2.698-2.836 2.698-1.51 0-2.607-1.007-2.607-2.424 0-1.647 1.28-2.882 2.928-2.882 1.417 0 2.515 1.098 2.515 2.608zM72.411 57.69l.091.091.548.503.595.458.091.137c-1.051 0-1.83.092-3.019.457l1.694-1.646zm-1.693-2.241l.137.183c.412.64.595.824 1.052 1.281l.093.137-1.326 1.281.044-2.882zm15.415-2.241c-.229 2.241-1.738 4.803-3.248 5.535 1.326-1.738 1.829-2.836 2.012-4.163l1.236-1.372zm-.046-2.378c.045.457.045.686.045 1.189v.32c-.64.778-.778.915-1.235 1.326v-.274c0-.366-.045-.778-.137-1.143l-.046-.138 1.373-1.28zm-.594-2.242c.229.548.319.732.457 1.509l-1.418 1.327c-.046-.55-.183-.915-.411-1.418l1.372-1.418zm-1.053-1.83c.458.457.595.64.732 1.144l-1.417 1.372a5.41 5.41 0 0 0-.778-1.098l1.463-1.418zm-1.418-1.418l.138.091c.412.321.549.458.778.778l-1.464 1.418c-.183-.229-.549-.549-.824-.777l1.372-1.51zm-1.646-1.097c.777.412.824.457 1.098.731l-1.418 1.372-.091-.045-.458-.32-.412-.274-.138-.046 1.419-1.418zm-1.647-1.052l.092.045.458.274.457.321.091.046-1.463 1.418-.092-.046-.503-.319-.412-.274-.091-.046 1.463-1.419zm-1.738-.869h.138c.366.274.503.366.915.502l.092.046-1.556 1.464c-.182-.091-.228-.137-.594-.32-.183-.092-.275-.137-.457-.275l1.462-1.417zm-1.738-.961h.137c.184.183.32.275.412.32.045.045.229.138.503.229l.045.046-1.51 1.418c-.502-.229-.64-.321-1.051-.64l1.464-1.373zm-1.693-1.28l.092.09.549.367.32.274.138.091-1.464 1.373a7.291 7.291 0 0 1-1.052-.733l1.417-1.462zm-1.189-1.373l.091.092.321.458.274.319.046.092-1.463 1.327-.092-.138-.183-.183-.365-.458-.092-.091 1.463-1.418zm-.96-1.784c.182.549.229.686.548 1.281l-1.417 1.326c-.321-.549-.412-.823-.549-1.463l1.418-1.144zm-.229-2.24v.412c0 .274.046.641.046 1.052l-1.373 1.189c-.045-.321-.091-.458-.091-.687 0-.32.046-.503.138-.914l1.28-1.052zm12.167-3.203v2.196c-.366-.641-.595-.915-.916-1.235l.916-.961zm-10.703-.411l-.183.229-.412.64c-.457.641-.548.96-.822 1.967l-1.235.915c.319-1.694 1.325-3.156 2.652-3.751zm10.657-.55l-1.327 1.281-1.234-1.052h.594c.778.001 1.098.001 1.967-.229zm.732-1.188h-.183c-.823.412-1.189.503-1.876.503-.457 0-.915-.046-1.417-.137a46.93 46.93 0 0 0-1.235-.275c-1.052-.182-1.829-.274-2.607-.274-4.574 0-7.959 3.157-7.959 7.457 0 1.875.641 3.567 1.785 4.939 1.006 1.144 2.561 2.242 4.986 3.523 1.234.686 2.012 1.098 2.332 1.28a11.69 11.69 0 0 1 2.242 1.556c1.69 1.416 2.697 3.566 2.697 5.716 0 3.293-2.287 6.038-4.986 6.038-1.006 0-2.104-.321-3.201-.961-1.83-1.006-3.11-2.515-5.123-5.946l-.137-.183-.732.274-.046 7.593.869.458c.64-.595 1.464-.915 2.562-.915.64 0 1.189.138 2.424.412l.778.183c.64.184 1.327.229 2.104.229 5.26 0 9.148-3.888 9.148-9.239 0-1.692-.458-3.43-1.281-4.848-1.144-1.921-2.791-3.293-5.993-5.077-3.384-1.876-4.024-2.333-5.306-3.66-.961-1.052-1.509-2.378-1.509-3.568 0-2.287 1.83-4.117 4.071-4.117 1.464 0 2.973.641 4.117 1.693.96.915 1.829 2.013 3.064 3.933l.045.184.732-.229v-5.946l-.365-.596zM93.961 59.336c.228.092.319.138.456.138.778 0 1.465-.778 1.465-1.647 0-.137 0-.229-.046-.411l-1.875 1.92zm1.509-2.423c-.229-.274-.503-.412-.823-.412-.777 0-1.418.64-1.418 1.463 0 .321.091.595.365.824l1.876-1.875zm2.012.961c0 1.555-1.282 2.698-2.836 2.698-1.509 0-2.607-1.007-2.607-2.424 0-1.647 1.281-2.882 2.928-2.882 1.417 0 2.515 1.098 2.515 2.608zM117.182 53.482l.502 1.418-1.508 1.417-.457-1.462 1.463-1.373zm.685 1.967l-.914 3.111-.551-1.692 1.465-1.419zm-1.418-4.071l.549 1.509-1.51 1.417-.549-1.601 1.51-1.325zm-.777-2.242l.594 1.693-1.508 1.326-.596-1.601 1.51-1.418zm-.733-2.012l.549 1.418-1.508 1.417-.549-1.555 1.508-1.28zm-.638-2.012l.457 1.464-1.557 1.28-.41-1.327 1.51-1.417zm-.688-2.059l.504 1.51-1.555 1.418-.457-1.464 1.508-1.464zm-.685-2.057l.459 1.509-1.512 1.417-.502-1.509 1.555-1.417zm-.778-2.196l.594 1.601-1.555 1.418-.504-1.602 1.465-1.417zm-.685-2.013l.502 1.418-1.508 1.372-.459-1.372 1.465-1.418zm-.688-1.967l.504 1.464-1.51 1.418-.504-1.509 1.51-1.373zm-.64-1.921l.457 1.373-1.508 1.372-.504-1.372 1.555-1.373zm-.686-1.829l.457 1.281-1.51 1.372-.41-1.235 1.463-1.418zm-.685 0l-.961.915-.275-.915h1.236zm17.152-.183h.594c-.822.778-1.279 1.464-1.736 2.424-.047-.274-.047-.32-.23-.594-.045-.046-.092-.046-.092-.183l1.464-1.647zm-2.607 0h1.875l-1.006 1.143c-.229-.458-.504-.778-.869-1.143zm-2.745-1.007v1.052c2.379.778 3.293 1.967 3.293 4.208 0 .686-.184 1.693-.457 2.562l-4.666 15.048-7.639-21.727h2.014v-1.098h-8.783v1.144h1.922l10.246 29.822h.73l8.143-26.072c.777-2.424 2.148-3.612 4.529-3.933V29.88h-9.332zM129.477 57.417c.045.182.045.274.045.411 0 .869-.684 1.647-1.463 1.647-.137 0-.229-.046-.457-.138l1.875-1.92zm-2.241 1.371c-.273-.229-.367-.503-.367-.824 0-.823.643-1.463 1.42-1.463.318 0 .594.137.822.412l-1.875 1.875zm1.371-3.522c-1.645 0-2.926 1.235-2.926 2.882 0 1.417 1.098 2.424 2.607 2.424 1.555 0 2.834-1.144 2.834-2.698.001-1.51-1.095-2.608-2.515-2.608zM150.549 57.279V59.2h-1.92l1.92-1.921zm0-3.065v2.196l-1.92 1.875v-2.15l1.92-1.921zm0-2.836v2.012l-1.92 1.921v-2.013l1.92-1.92zm0-2.653v1.876l-1.92 1.828v-1.738l1.92-1.966zm0-2.79v1.967l-1.92 1.875v-1.875l1.92-1.967zm0-2.744v1.921l-1.92 1.875v-1.784l1.92-2.012zm0-2.928v2.104l-1.92 1.875v-2.104l1.92-1.875zm12.305-.732c-.412 1.83-2.471 3.843-4.254 4.117l4.254-4.117zm-12.305-2.104v2.013l-1.92 1.784v-1.876l1.92-1.921zm12.531-.823c.047.32.094.411.094.823 0 .549-.047.732-.139 1.098l-2.607 2.516c.367-.87.551-1.646.688-2.562l1.964-1.875zm-12.531-1.92v1.966l-1.92 1.921v-1.967l1.92-1.92zm12.029-.321c.275.641.367.961.367 1.464l-1.785 1.829v-.137l.047-.686c0-.138 0-.412-.047-.824v-.229l1.418-1.417zm-1.006-1.647c.412.503.504.687.732 1.144l-1.281 1.188a7.696 7.696 0 0 0-.412-1.509l.961-.823zm-11.023-.868v2.058l-1.92 1.875v-1.738l1.92-2.195zm8.326-.733c.457.046.594.092 1.279.366l.824.595.137.182-.732.687c-.686-1.097-.869-1.28-1.508-1.83zm-6.771-.045h2.607c4.117.045 5.352 1.372 5.352 5.946 0 1.83-.318 3.339-1.006 4.528-.961 1.738-1.83 2.105-4.848 2.105h-2.105V31.07zm-1.555 0l-1.92 2.058V31.07h1.92zm-4.94-1.19v1.19h1.92V59.2h-2.148l.045 1.144h8.92V59.2h-2.242V44.883h2.15c4.025 0 5.168-.184 6.861-1.145 2.104-1.098 3.521-3.795 3.521-6.632 0-4.482-3.064-7.181-8.051-7.181h-.182l-10.794-.045zM164.395 57.417c.045.182.045.274.045.411 0 .869-.686 1.647-1.463 1.647-.137 0-.229-.046-.457-.138l1.875-1.92zm-2.243 1.371c-.273-.229-.365-.503-.365-.824 0-.823.641-1.463 1.418-1.463.32 0 .596.137.824.412l-1.877 1.875zm1.373-3.522c-1.646 0-2.926 1.235-2.926 2.882 0 1.417 1.096 2.424 2.605 2.424 1.555 0 2.836-1.144 2.836-2.698.001-1.51-1.097-2.608-2.515-2.608zM59.981 78.861H49.405c1.137.569 1.819 1.934 1.819 3.413 0 1.364-.398 3.241-1.194 5.345l-5.288 14.614-9.496-23.371h-8.53c2.389 1.82 3.526 5.516 1.763 9.61l-6.254 14.443-9.439-24.053H2.834c1.592 1.081 2.786 3.583 4.208 7.051l9.724 24.394c1.308 3.299 2.787 5.004 5.914 6.48l10.121-22.8 6.938 16.32c1.421 3.242 2.843 5.004 5.97 6.48l14.272-37.926zM82.53 109.738c-2.445 1.82-5.004 2.615-8.586 2.615-1.934 0-3.639-.172-4.89-.455v-9.326h2.616c3.185 0 4.265.229 5.118 1.195v-5.459h-7.733v-7.677s1.194-.17 3.64-.17c2.843 0 4.833.455 5.97 1.706v-5.63H60.126c1.478.796 1.707 1.99 1.707 6.938v15.865c0 4.947-.229 6.141-1.707 6.938h20.299l2.105-6.54zM106.527 107.066c0-9.098-13.816-8.473-13.816-14.047 0-1.648 1.478-3.07 4.037-3.07 2.731 0 5.061.967 7.62 3.412v-6.482c-2.615-.683-4.719-1.081-7.336-1.081-5.686 0-11.486 3.412-11.486 9.042 0 10.234 13.818 8.755 13.818 14.5 0 2.049-1.818 3.525-4.946 3.525-3.526 0-6.938-1.422-10.463-4.492l1.876 7.107c2.842 1.025 5.231 1.535 7.847 1.535 7.279.001 12.849-3.98 12.849-9.949zM132.936 86.538h-24.279l-1.65 5.63c1.82-1.251 3.469-1.706 6.482-1.706h2.9v18.878c0 4.947-.227 6.141-1.764 6.938h10.635c-1.479-.797-1.707-1.99-1.707-6.938V90.461h2.559c2.672 0 4.492.398 5.402 1.706l1.422-5.629zM146.873 116.277c-1.479-.797-1.707-1.99-1.707-6.938V93.475c0-4.947.229-6.141 1.707-6.938H136.24c1.477.796 1.705 1.99 1.705 6.938v15.865c0 4.947-.229 6.141-1.705 6.938h10.633v-.001zM182.18 86.538h-9.723c1.932 1.024 2.16 3.185 2.16 6.482v12.055l-12.453-14.784a86.634 86.634 0 0 1-2.898-3.753h-8.588c1.764 1.024 2.615 2.958 2.615 6.994v16.263c0 3.299-.227 5.459-2.16 6.482h9.725c-1.934-1.023-2.162-3.184-2.162-6.482V97.514l12.852 15.238c1.818 2.16 4.15 3.07 8.471 3.754V93.02c-.001-3.298.284-5.458 2.161-6.482zM187.129 133.035c1.545 0 2.793-1.207 2.793-2.723 0-1.498-1.223-2.721-2.76-2.721-1.529 0-2.785 1.191-2.785 2.705a2.745 2.745 0 0 0 2.752 2.739zm0-.394c-1.328 0-2.316-1.066-2.316-2.352a2.303 2.303 0 0 1 2.326-2.303c1.311 0 2.348 1.01 2.348 2.311-.001 1.316-1.022 2.344-2.358 2.344zm.564-2.209c.588-.016 1.006-.275 1.006-.883 0-.75-.557-.893-1.191-.893h-1.488v3.242h.467v-1.467h.715l.895 1.467h.547l-.951-1.466zm-1.207-.348v-1.08h.908c.379 0 .838.039.838.512 0 .514-.477.568-.895.568h-.851zM19.146 133.135v2.621c0 .648.101 1.707-.638 1.982v.043h2.765v-.043c-.738-.275-.651-1.334-.651-1.982v-5.475c0-.648-.086-1.707.651-1.98v-.043h-2.765v.043c.739.273.638 1.332.638 1.996v1.797H13.92v-1.797c0-.664-.087-1.723.637-1.996v-.043h-2.75v.043c.738.273.637 1.332.637 1.98v5.475c0 .648.086 1.707-.637 1.982v.043h2.75v-.043c-.724-.275-.637-1.334-.637-1.982v-2.621h5.226zM30.743 128.012c-3.039-.072-5.428 2.229-5.428 4.979 0 2.967 2.417 5.021 5.283 5.021 2.881 0 5.327-2.141 5.327-5.096 0-2.604-2.143-4.918-5.182-4.904zm-.102 1.041c2.287 0 3.634 2.041 3.634 4.154 0 2.156-1.404 3.764-3.604 3.764-2.273 0-3.706-2.086-3.706-4.111 0-2.186 1.433-3.807 3.676-3.807zM43.052 129.299h1.303c.477 0 1.057.072 1.245.58h.043l.464-1.725h-.044c-.188.09-.42.104-.666.104h-5.76c-.188-.029-.376-.029-.55-.104h-.043l-.507 1.725h.044c.448-.42 1.099-.58 1.722-.58h1.273v6.457c0 .648.087 1.707-.636 1.982v.043h2.866v-.043c-.767-.449-.752-1.014-.752-1.84v-6.599h-.002zM52.103 133.135h1.071c.449 0 1.057-.014 1.288.404h.044v-1.533h-.044c-.174.088-.405.088-.636.088h-1.723V129.4c.463-.088.97-.102 1.477-.102.666 0 1.258.059 1.708.58h.043v-1.693h-.043c-.188.1-.434.072-.68.072h-4.632v.043c.739.273.652 1.332.652 1.996v5.459c0 .648.087 1.723-.652 1.982v.043h6.036l.651-1.896h-.043c-.724.637-1.722.939-2.677.855l-1.839-.176v-3.428h-.001zM62.703 136.609v-6.312c0-.65-.101-1.723.637-1.996v-.043h-2.765v.043c.738.273.652 1.332.652 1.996v5.459c0 .648.086 1.723-.652 1.982v.043h5.949l.753-1.926h-.044c-.723.607-1.577.941-2.561.885l-1.969-.131zM76.732 128.344a7.28 7.28 0 0 0-2.157-.318c-1.766 0-3.633.695-3.633 2.518 0 3.07 4.979 2.664 4.979 4.922 0 1.014-1.245 1.506-2.07 1.506-1.129 0-2.315-.465-3.169-1.201l.419 1.809c.825.305 1.708.434 2.592.434 2.257 0 3.878-1.447 3.878-2.996 0-2.676-4.979-2.648-4.979-4.631 0-.998 1.042-1.318 1.867-1.318.81 0 1.708.334 2.272.912v-1.637h.001zM98.281 137.781v-.043c-2.737-1.26-4.864-3.504-7.021-5.574.667-.594 1.261-1.186 1.261-2.143 0-1.201-.927-1.996-2.084-1.996-1.129 0-2.258.811-2.258 2.01 0 .812.622 1.492 1.158 2.043-1.056.838-1.997 1.693-1.997 3.127 0 1.795 1.636 2.766 3.271 2.766 1.389 0 2.273-.508 3.011-1.697.446.436 1.2 1 1.722 1.275.39.201.854.232 1.361.232h1.576zm-7.845-6.47c-.391-.348-1.014-.926-1.014-1.506 0-.549.435-.824.957-.824.534 0 .998.332.998.883 0 .593-.479 1.115-.941 1.447zm2.604 4.459c-.505.666-1.244 1.244-2.127 1.244-1.114 0-2.027-.709-2.027-1.896 0-.896.594-1.635 1.304-2.143l2.85 2.795zM106.586 128.258v.043c.738.273.637 1.332.637 1.996v5.459c0 .648.102 1.723-.637 1.982v.043h2.764v-.043c-.738-.26-.65-1.318-.65-1.982v-6.486c.332-.057.65-.102.984-.115.969-.043 1.867.564 1.867 1.605 0 1.361-1.348 1.896-2.504 2.072l1.33 2.039 1.768 2.186c.434.537.912.725 1.68.725h1.33c-.826-.521-1.736-1.275-2.344-2.025l-2.086-2.621c1.188-.275 2.303-1.273 2.303-2.549 0-1.316-1.057-2.328-2.996-2.328h-3.446v-.001zM120.801 133.135h1.072c.447 0 1.055-.014 1.287.404h.043v-1.533h-.043c-.174.088-.404.088-.637.088H120.8V129.4c.465-.088.971-.102 1.477-.102.666 0 1.26.059 1.709.58h.043v-1.693h-.043c-.189.1-.436.072-.682.072h-4.631v.043c.738.273.65 1.332.65 1.996v5.459c0 .648.088 1.723-.65 1.982v.043h6.035l.652-1.896h-.045c-.723.637-1.723.939-2.676.855l-1.84-.176v-3.428h.002zM135.137 128.344a7.283 7.283 0 0 0-2.156-.318c-1.766 0-3.633.695-3.633 2.518 0 3.07 4.979 2.664 4.979 4.922 0 1.014-1.246 1.506-2.068 1.506-1.131 0-2.318-.465-3.172-1.201l.42 1.809c.824.305 1.709.434 2.592.434 2.258 0 3.879-1.447 3.879-2.996 0-2.676-4.979-2.648-4.979-4.631 0-.998 1.041-1.318 1.867-1.318.809 0 1.707.334 2.271.912v-1.637zM145.287 128.012c-3.039-.072-5.428 2.229-5.428 4.979 0 2.967 2.418 5.021 5.283 5.021 2.881 0 5.326-2.141 5.326-5.096.001-2.604-2.14-4.918-5.181-4.904zm-.101 1.041c2.287 0 3.633 2.041 3.633 4.154 0 2.156-1.402 3.764-3.604 3.764-2.273 0-3.705-2.086-3.705-4.111 0-2.186 1.431-3.807 3.676-3.807zM154.471 128.258v.043c.738.273.639 1.332.639 1.996v5.459c0 .648.1 1.723-.639 1.982v.043h2.766v-.043c-.738-.26-.652-1.318-.652-1.982v-6.486c.334-.057.652-.102.984-.115.971-.043 1.867.564 1.867 1.605 0 1.361-1.346 1.896-2.502 2.072l1.33 2.039 1.766 2.186c.434.537.912.725 1.68.725h1.332c-.826-.521-1.736-1.275-2.346-2.025l-2.084-2.621c1.188-.275 2.301-1.273 2.301-2.549 0-1.316-1.057-2.328-2.996-2.328h-3.446v-.001zM169.523 129.299h1.303c.479 0 1.057.072 1.244.58h.043l.463-1.725h-.041c-.189.09-.422.104-.668.104H166.108c-.188-.029-.377-.029-.549-.104h-.045l-.506 1.725h.043c.449-.42 1.1-.58 1.723-.58h1.273v6.457c0 .648.086 1.707-.637 1.982v.043h2.865v-.043c-.768-.449-.752-1.014-.752-1.84v-6.599zM181.449 128.344a7.26 7.26 0 0 0-2.154-.318c-1.766 0-3.633.695-3.633 2.518 0 3.07 4.979 2.664 4.979 4.922 0 1.014-1.244 1.506-2.07 1.506-1.129 0-2.316-.465-3.17-1.201l.42 1.809c.826.305 1.709.434 2.59.434 2.26 0 3.879-1.447 3.879-2.996 0-2.676-4.979-2.648-4.979-4.631 0-.998 1.043-1.318 1.867-1.318.811 0 1.709.334 2.271.912v-1.637zM58.932 163.506c-.788-.369-1.146-.814-1.504-1.631l-1.747-4.111-2.549 5.742c-.788-.369-1.16-.799-1.489-1.631l-2.45-6.145c-.357-.875-.659-1.504-1.059-1.777h2.506l2.378 6.059 1.576-3.637c.443-1.031.157-1.963-.444-2.422h2.148l2.392 5.889 1.332-3.684c.202-.527.301-1.002.301-1.346 0-.371-.171-.717-.458-.859h2.665l-3.598 9.553zM69.816 163.379h-6.144c.472-.258.543-.631.543-2.191v-5.043c0-1.547-.071-1.934-.543-2.191h5.584v1.633c-.357-.387-.988-.529-1.89-.529-.773 0-1.16.043-1.16.043v2.65h2.449v1.59c-.271-.301-.601-.373-1.618-.373h-.831v3.18a9.07 9.07 0 0 0 1.562.129c1.131 0 1.934-.242 2.707-.83l-.659 1.932zM74.297 163.607c-.845 0-1.633-.17-2.478-.457l-.487-1.848c1.06.83 2.149 1.217 3.209 1.217 1.046 0 1.79-.486 1.79-1.289 0-2.02-4.584-1.49-4.584-4.713 0-1.705 1.762-2.793 3.61-2.793.859 0 1.532.115 2.277.314v1.691c-.617-.602-1.433-.918-2.378-.918-.889 0-1.489.486-1.489 1.146 0 1.947 4.583 1.676 4.583 4.555.001 1.836-1.703 3.095-4.053 3.095zM86.42 155.588c-.259-.443-.86-.531-1.704-.531h-.818v6.131c0 1.547.072 1.934.545 2.191h-3.08c.473-.258.544-.631.544-2.191v-6.131h-.903c-.959 0-1.475.145-2.062.531l.53-1.635h7.391l-.443 1.635zM88.246 163.379c.473-.258.544-.631.544-2.191v-5.041c0-1.547-.072-1.934-.544-2.193h3.079c-.472.26-.544.633-.544 2.193v5.041c0 1.547.072 1.934.544 2.191h-3.079zM101.627 156.016v7.436c-1.359-.215-2.004-.5-2.578-1.189l-4.325-5.127v4.182c0 1.061.085 1.734.687 2.062h-2.936c.602-.328.687-1.002.687-2.062v-5.143c0-1.273-.27-1.889-.829-2.221h2.464c.256.346.513.701.929 1.176l4.34 5.17v-4.283c0-1.059-.086-1.73-.688-2.062h2.938c-.601.33-.689 1.002-.689 2.061zM104.775 163.607a1.088 1.088 0 1 1 0-2.176 1.087 1.087 0 1 1 0 2.176zM114.873 163.15c-.801.258-1.717.457-2.691.457-3.107 0-5.443-1.875-5.443-4.953 0-2.838 2.318-4.93 5.572-4.93.93 0 1.848.131 2.721.344v1.619c-.656-.486-1.59-.787-2.777-.787-2.092 0-3.309 1.66-3.309 3.564 0 2.164 1.318 3.969 3.551 3.969 1.318 0 2.236-.387 3.123-.945l-.747 1.662zM125.086 158.854c0 1.834-.871 3.666-3.252 3.666-2.363 0-3.338-2.207-3.338-4.039s.875-3.668 3.254-3.668c2.361-.001 3.336 2.207 3.336 4.041zm2.205-.288c0-2.592-2.104-4.842-5.398-4.842-3.109 0-5.6 2.107-5.6 5.041 0 2.594 2.105 4.842 5.398 4.842 3.11 0 5.6-2.103 5.6-5.041zM137.572 163.379c.561-.229.646-.887.545-1.59l-.73-4.928-2.721 6.518c-1.09-.486-1.391-.773-1.777-1.604l-2.205-4.914-.73 4.928c-.102.703-.014 1.361.545 1.59h-2.85c.412-.344.615-.93.828-2.275l.918-5.873c.086-.576-.1-1.074-.516-1.277h2.822c.1.301.271.732.613 1.506l2.107 4.627 2.592-6.133h2.605c-.414.203-.555.66-.471 1.277l.902 5.873c.217 1.346.416 1.932.83 2.275h-3.307z"/></g></svg>