<svg xmlns="http://www.w3.org/2000/svg" width="2500" height="2500" viewBox="0 0 192.756 192.756"><path fill-rule="evenodd" clip-rule="evenodd" fill="#fff" d="M0 0h192.756v192.756H0V0z"/><path d="M60.438 64.634v23.799h1.388c3.261 0 5.671-.804 7.229-2.411 1.898-1.957 2.848-5.207 2.848-9.75 0-4.474-.95-7.618-2.848-9.436-1.558-1.468-3.943-2.202-7.156-2.202h-1.461zm12.895 34.304l13.931 29.645H74.155L60.677 96.711l-.147 31.871H49.704V49.534H64.36c5.744 0 9.864 2.182 13.404 5.556 1.079 1.029 4.032 4.392 4.579 7.474 1.368 7.72 2.689 32.106-9.01 36.374zM129.16 63.447c-4.172 0-7.301 3.219-9.387 9.656-1.473 4.598-2.209 9.595-2.209 14.99 0 5.396.736 10.393 2.209 14.991 2.086 6.561 5.215 9.84 9.387 9.84 4.174 0 7.303-3.279 9.389-9.84 1.473-4.66 2.209-9.657 2.209-14.991 0-5.518-.705-10.484-2.117-14.898-2.086-6.499-5.246-9.748-9.481-9.748zm-.066-14.779c7.195 0 12.734 4.653 16.621 13.96 3.098 7.418 4.646 16.186 4.646 26.301 0 9.846-1.576 18.545-4.727 26.1-3.885 9.307-9.398 13.959-16.541 13.959-7.141 0-12.654-4.619-16.539-13.857-3.15-7.486-4.727-16.221-4.727-26.202 0-9.98 1.549-18.714 4.646-26.2 3.888-9.374 9.427-14.061 16.621-14.061z" fill-rule="evenodd" clip-rule="evenodd"/><path fill-rule="evenodd" clip-rule="evenodd" fill="#fff" d="M104.703 74.991l.639 57.984-19.369-.161.091-57.8-17.018-.001-.022-18.795 53.747.182-.388 18.613-17.68-.022z"/><path d="M96.378 23.607c51.522 0 93.542 32.69 93.542 72.772 0 40.08-42.02 72.771-93.542 72.771-51.521 0-93.542-32.691-93.542-72.771-.001-40.082 42.021-72.772 93.542-72.772z" fill="none" stroke="#000" stroke-width="4.132" stroke-miterlimit="2.613"/><path d="M96.403 27.724c49.06 0 89.074 30.855 89.074 68.686 0 37.832-40.014 68.688-89.074 68.688-49.06 0-89.073-30.855-89.073-68.688 0-37.83 40.013-68.686 89.073-68.686z" fill="none" stroke="#000" stroke-width=".826" stroke-miterlimit="2.613"/><path d="M96.88 33.555c11.866 1.009 13.145 19.481 8.647 27.25-1.369 2.362-2.688 3.68-4.182 4.295-1.162.479-2.4 1.018-4.055 1.032l.025-3.743c3.508-.771 5.418-3.508 6.371-8.094.977-4.699-.078-16.77-6.727-16.884-3.781 0-6.784 5.244-6.784 11.968 0 2.594.459 4.842 1.24 6.823l-3.75.068c-.891-2.249-1.321-4.768-1.321-7.533.001-8.495 4.646-15.182 10.536-15.182z" fill-rule="evenodd" clip-rule="evenodd"/><path d="M95.937 157.346l5.421-8.795c21.734-1.082 39.74-9.463 45.832-20.633l1.004.512 5.725 3.297 1.461-32.869-21.848 22.098 6.781 3.457c-7.486 6.195-18.738 10.752-31.801 12.531l3.861-6.264H79.499l3.802 6.168c-12.632-1.824-23.523-6.252-30.875-12.238l6.536-3.332L37.115 99.18l1.46 32.869 5.725-3.297 1.648-.842c5.965 10.949 23.374 19.219 44.522 20.566l5.467 8.87z" fill-rule="evenodd" clip-rule="evenodd" stroke="#fff" stroke-width="1.57" stroke-miterlimit="2.613"/><path d="M179.352 25.49c4.15 0 7.537 3.681 7.537 8.193s-3.387 8.193-7.537 8.193c-4.152 0-7.539-3.681-7.539-8.193s3.386-8.193 7.539-8.193z" fill="none" stroke="#000" stroke-width="1.57" stroke-miterlimit="2.613"/><path d="M177.666 33.688h.811c1.094 0 1.91-.133 2.445-.4.535-.267.803-.672.803-1.215 0-.528-.23-.918-.689-1.166-.461-.248-1.188-.371-2.184-.371h-1.186v3.152zm0 3.939h-1.584v-8.193h3.152c1.309 0 2.311.227 3.002.68.689.456 1.035 1.112 1.035 1.971 0 .668-.289 1.225-.865 1.674-.58.448-1.324.688-2.234.723l3.1 3.146h-1.982l-3.623-3.805v3.804h-.001zM101.791 71.733v66.013H89.398l-.08-65.852-17.182-.161-.159-11.982 47.234-.16.08 12.303-17.5-.161z" fill-rule="evenodd" clip-rule="evenodd"/></svg>