<svg xmlns="http://www.w3.org/2000/svg" width="2500" height="2500" viewBox="0 0 192.756 192.756"><g fill-rule="evenodd" clip-rule="evenodd"><path fill="#fff" d="M0 0h192.756v192.756H0V0z"/><path fill="#33348e" d="M15.827 8.504H176.93v175.748H15.827V8.504z"/><path d="M38.694 151.785a6.979 6.979 0 0 1-2.791 2.432c-1.143.555-2.456.832-3.952.832-2.897 0-5.206-.979-6.926-2.934-1.719-1.955-2.579-4.594-2.579-7.92 0-2.332.389-4.477 1.172-6.42s1.926-3.635 3.434-5.07c1.013-.979 2.237-1.75 3.675-2.32 1.437-.572 2.88-.854 4.334-.854 2.667 0 4.87.664 6.613 2.002 1.743 1.33 2.933 3.268 3.563 5.812l-6.679 1.189c-.206-1.061-.624-1.891-1.242-2.504a3.074 3.074 0 0 0-2.226-.912c-.578 0-1.102.117-1.579.348a3.343 3.343 0 0 0-1.23 1.014c-.695.912-1.249 2.125-1.667 3.645a17.664 17.664 0 0 0-.63 4.711c0 1.473.3 2.609.895 3.416.601.807 1.437 1.207 2.521 1.207.93 0 1.731-.312 2.409-.941.672-.625 1.119-1.49 1.337-2.598h-3.987l.812-4.729h10.66l-2.362 13.355h-4.188l.613-2.761zm7.65 2.762l.948-5.729h6.042l-.948 5.729h-6.042zm10.282 0l4.317-24.516h7.55l-3.274 18.615h9.452l-1.019 5.9H56.626v.001zm22.744-19.652l.86-4.863h7.125l-.842 4.863H79.37zm-3.451 19.652l3.174-18.168h7.144l-3.192 18.168h-7.126zm16.56-5.766c.23.689.642 1.207 1.237 1.543.589.342 1.377.514 2.367.514.854 0 1.514-.125 1.985-.365.471-.242.707-.578.707-1.02 0-.666-1.166-1.242-3.499-1.725-.565-.125-1.001-.225-1.313-.289-1.726-.383-3.062-1.043-4.011-1.984-.948-.943-1.425-2.086-1.425-3.416 0-1.82.783-3.299 2.355-4.436 1.566-1.135 3.628-1.707 6.183-1.707 2.127 0 3.971.418 5.531 1.26 1.555.836 2.619 1.984 3.197 3.434l-5.4 1.172c-.195-.564-.596-1-1.195-1.312-.607-.312-1.35-.465-2.233-.465-.624 0-1.101.105-1.442.316-.335.213-.507.514-.507.891 0 .635 1.178 1.225 3.534 1.777.447.107.795.184 1.037.242 1.967.459 3.422 1.143 4.369 2.043.949.908 1.426 2.057 1.426 3.463 0 1.885-.824 3.41-2.475 4.582-1.654 1.166-3.834 1.75-6.548 1.75-2.667 0-4.858-.49-6.572-1.467-1.714-.979-2.727-2.309-3.039-3.988l5.731-.813zm14.441 5.766l4.311-24.516h6.838l-1.572 8.762c.758-1.012 1.561-1.754 2.396-2.225.842-.473 1.771-.707 2.797-.707 1.689 0 3.062.666 4.117 2.002 1.053 1.332 1.578 3.074 1.578 5.23 0 1.572-.213 3.068-.637 4.486-.43 1.414-1.049 2.68-1.867 3.793-.818 1.131-1.812 1.99-2.984 2.592-1.174.594-2.469.895-3.881.895-1.449 0-2.668-.295-3.658-.889-.99-.596-1.738-1.467-2.244-2.633l-2.037 3.209h-3.157v.001zm11.49-14.387c-.52 0-1.002.182-1.449.555a2.924 2.924 0 0 0-.949 1.43 23.077 23.077 0 0 0-.812 3.34c-.193 1.154-.295 2.16-.295 3.027 0 .664.189 1.189.555 1.578.371.383.871.576 1.502.576 1.023 0 1.861-.695 2.502-2.084.643-1.396.967-3.221.967-5.488 0-.979-.166-1.715-.502-2.203s-.843-.731-1.519-.731zm17.908 7.385c0 .955.176 1.678.535 2.18.354.5.873.754 1.549.754.926 0 1.697-.689 2.332-2.062.631-1.377.949-3.092.949-5.135 0-.936-.184-1.643-.555-2.133-.365-.488-.9-.734-1.602-.734-.895 0-1.654.684-2.279 2.043-.616 1.366-.929 3.062-.929 5.087zm2.155 7.539c-2.762 0-4.992-.789-6.701-2.361-1.707-1.58-2.562-3.635-2.562-6.16 0-1.674.33-3.193.984-4.576.654-1.379 1.684-2.703 3.086-3.971.725-.664 1.66-1.188 2.803-1.578a11.114 11.114 0 0 1 3.545-.576c2.74 0 4.947.777 6.619 2.332 1.674 1.549 2.51 3.598 2.51 6.143 0 1.584-.289 3.057-.871 4.404-.584 1.355-1.467 2.627-2.668 3.822-.789.783-1.791 1.402-2.992 1.85s-2.451.671-3.753.671zM146 133.947h-2.414l-2.191-3.434-3.816 3.434h-2.639l4.523-6.402h4.381l2.156 6.402zm15.836 17.455c-.666 1.184-1.502 2.072-2.516 2.662-1.012.584-2.225.877-3.645.877-1.643 0-2.975-.488-3.998-1.467-1.025-.977-1.537-2.248-1.537-3.809 0-2.256 1.094-3.959 3.285-5.107 2.191-1.154 5.482-1.754 9.877-1.812.047-.16.082-.318.1-.479.018-.152.023-.299.023-.436 0-.564-.176-.988-.535-1.277-.354-.289-.885-.43-1.586-.43-.734 0-1.371.176-1.908.535-.535.354-.936.861-1.201 1.514l-5.936-1.154c.725-1.654 1.932-2.914 3.621-3.787 1.697-.865 3.781-1.301 6.268-1.301 2.607 0 4.623.488 6.041 1.461 1.414.971 2.121 2.35 2.121 4.146 0 .205-.012.447-.035.717-.023.266-.07.619-.137 1.061l-1.242 6.984a26.48 26.48 0 0 0-.205 1.49 9.152 9.152 0 0 0-.072 1.066c0 .277.012.553.037.836.023.283.059.566.1.854h-6.984a3.476 3.476 0 0 1-.066-.553c-.004-.184-.004-.424-.004-.725 0-.324.01-.643.035-.947.023-.311.058-.618.099-.919zm.918-5.464c-1.689.082-2.992.383-3.904.906-.906.525-1.359 1.227-1.359 2.109 0 .529.158.953.477 1.266.312.318.742.477 1.283.477.955 0 1.75-.424 2.379-1.277.636-.849 1.007-2.009 1.124-3.481zm-87.96-64.744c-1.525 2.256-3.485 3.965-5.877 5.121-2.406 1.163-5.17 1.749-8.32 1.749-6.101 0-10.961-2.059-14.582-6.175-3.62-4.117-5.431-9.671-5.431-16.677 0-4.91.819-9.423 2.468-13.515s4.062-7.643 7.229-10.676c2.141-2.05 4.712-3.683 7.737-4.885s6.063-1.798 9.126-1.798c5.617 0 10.251 1.405 13.924 4.216 3.667 2.806 6.175 6.881 7.501 12.238l-14.061 2.505c-.434-2.232-1.312-3.984-2.616-5.27-1.299-1.28-2.864-1.922-4.687-1.922-1.215 0-2.319.248-3.323.732a7.1 7.1 0 0 0-2.592 2.132c-1.464 1.921-2.629 4.477-3.509 7.675a37.19 37.19 0 0 0-1.327 9.919c0 3.1.628 5.496 1.885 7.191 1.261 1.702 3.025 2.542 5.307 2.542 1.959 0 3.646-.657 5.072-1.983 1.856-1.513 2.603-4.118 2.814-6.229h-8.395l1.711-9.195h22.443L82.319 87.01h-8.577l1.052-5.816zm34.28 23.128l9.088-51.619h15.896l-6.895 39.195h19.9l-2.145 12.424h-35.844zm-9.769-83.214c20.174 13.584 35.301 19.496 65.947 12.003-.91 26.15.189 56.354-1.598 72.547-.449-24.69-.898-43.291-1.35-67.98-29.9 7.311-43.645.445-63-12.542v-4.028h.001zm-5.854 99.456c-20.173-13.584-35.301-19.496-65.948-12.002.91-26.151-.188-56.355 1.598-72.548.45 24.69.899 43.291 1.349 67.98 29.901-7.311 43.644-.443 63 12.543v4.027h.001zm.254-84.906C74.512 22.074 60.123 16.772 30.37 23.212v-2.425c13.132-2.981 39.249-8.3 63.335 14.871zm1.523 1.522C76.035 23.596 61.645 18.294 31.892 24.735V22.31c13.133-2.981 39.249-8.301 63.336 14.87zm3.823 68.836c19.191 13.582 33.582 18.885 63.336 12.445v2.424c-13.133 2.982-39.25 8.301-63.336-14.869zm-1.524-1.524c19.193 13.584 33.584 18.887 63.336 12.445v2.426c-13.133 2.981-39.248 8.301-63.336-14.871zm.254-80.339c20.174 13.583 35.303 19.496 65.949 12.003-.91 26.15.188 56.354-1.598 72.547-.451-24.69-.9-43.291-1.35-67.981-29.902 7.311-43.645.445-63.002-12.542v-4.027h.001zm-2.808 93.367C74.8 103.936 59.672 98.023 29.025 105.518c.91-26.15-.188-56.355 1.598-72.548.45 24.69.9 43.291 1.349 67.979 29.901-7.31 43.645-.443 63 12.543v4.028h.001zm1.523-3.045c-20.173-13.582-35.301-19.495-65.948-12.002.91-26.15-.188-56.355 1.599-72.547.449 24.689.899 43.291 1.349 67.981 29.901-7.312 43.645-.445 63 12.541v4.027zm-.236-87.278c20.174 13.583 35.301 19.496 65.947 12.002-.908 26.15.189 56.355-1.598 72.548-.449-24.69-.898-43.292-1.348-67.981-29.902 7.311-43.645.445-63.002-12.542v-4.027h.001zm.49 11.505C77.557 25.119 63.167 19.816 33.414 26.257v-2.425c13.133-2.981 39.249-8.301 63.336 14.87zm-.744 64.269c19.193 13.584 33.582 18.885 63.336 12.445v2.424c-13.133 2.982-39.25 8.303-63.336-14.869zm-63.379 58.631v4.549c.315-.516.638-.869.973-1.057.396-.229.857-.342 1.385-.342 1.228 0 2.149.525 2.768 1.576.528.896.792 2.01.792 3.344 0 1.506-.326 2.721-.973 3.645-.648.912-1.604 1.369-2.868 1.369-.664 0-1.189-.115-1.579-.35-.39-.232-.787-.67-1.189-1.312a2.347 2.347 0 0 0-.277.445c-.048.105-.164.445-.345 1.018h-1.501v-12.885h2.814zm0 7.289v1.82c0 .646.125 1.137.377 1.463.283.377.645.566 1.076.566.283 0 .548-.09.789-.271a1.47 1.47 0 0 0 .525-.711c.177-.477.264-1.156.264-2.039 0-.945-.071-1.645-.216-2.096a1.454 1.454 0 0 0-.512-.715 1.307 1.307 0 0 0-.802-.277c-.467 0-.832.199-1.099.6-.266.398-.402.953-.402 1.66zm16.927-4.129c1.444 0 2.575.475 3.399 1.418.812.938 1.218 2.131 1.218 3.576 0 1.387-.406 2.539-1.218 3.457-.863.977-1.998 1.465-3.409 1.465-1.389 0-2.498-.484-3.322-1.455-.786-.92-1.179-2.113-1.179-3.578 0-1.428.406-2.594 1.218-3.494.429-.48.902-.828 1.424-1.051.523-.219 1.148-.332 1.869-.338zm.068 1.84c-.567 0-.976.227-1.231.678-.254.447-.384 1.182-.384 2.193 0 1.041.094 1.844.284 2.41a1.39 1.39 0 0 0 1.321.953c.554 0 .957-.24 1.211-.727.255-.484.384-1.25.384-2.295 0-1.166-.12-1.988-.354-2.471-.235-.48-.645-.728-1.231-.741zm15.528-1.84c1.444 0 2.575.475 3.399 1.418.812.938 1.218 2.131 1.218 3.576 0 1.387-.406 2.539-1.218 3.457-.864.977-1.998 1.465-3.409 1.465-1.389 0-2.497-.484-3.322-1.455-.786-.92-1.179-2.113-1.179-3.578 0-1.428.406-2.594 1.218-3.494.429-.48.902-.828 1.424-1.051.523-.219 1.148-.332 1.869-.338zm.068 1.84c-.567 0-.977.227-1.231.678-.254.447-.383 1.182-.383 2.193 0 1.041.093 1.844.284 2.41.1.291.27.521.509.693.238.174.509.26.812.26.554 0 .957-.24 1.211-.727.254-.484.384-1.25.384-2.295 0-1.166-.12-1.988-.355-2.471-.236-.48-.644-.728-1.231-.741zm17.862 1.589l3.106 6.295H83.08l-2.001-4.324-1.644 1.889v2.436h-2.651v-12.885h2.651v7.721c.213-.266.349-.432.406-.51.258-.332.409-.525.454-.574l2.784-3.285h2.729l-2.728 3.237zm26.254-.935l-2.049.549c-.264-.857-.879-1.287-1.85-1.287-.441 0-.789.074-1.043.227-.256.15-.385.361-.385.625 0 .27.109.463.332.582.219.123.648.227 1.283.314 1.418.189 2.381.428 2.891.717.389.227.691.549.904.965.217.414.322.885.322 1.414 0 .982-.363 1.771-1.096 2.371-.76.629-1.824.945-3.189.945-.768 0-1.42-.092-1.959-.271a3.698 3.698 0 0 1-1.43-.873c-.439-.422-.748-.98-.926-1.67l2.371-.35c.113.402.301.695.564.879.402.27.912.406 1.531.406.508 0 .918-.088 1.223-.262.311-.17.465-.398.465-.684 0-.428-.354-.684-1.066-.764a19.46 19.46 0 0 1-1.879-.334c-.674-.154-1.125-.287-1.35-.395a2.558 2.558 0 0 1-1.066-.963 2.795 2.795 0 0 1-.426-1.51c0-.932.352-1.684 1.057-2.246.725-.588 1.721-.881 2.984-.881 1.002 0 1.795.193 2.385.578.591.385 1.058 1.021 1.402 1.918zm10.596-.113v4.031c0 .535.08.881.242 1.031.162.154.516.232 1.07.232.23 0 .523-.014.879-.035v2.084c-.857.139-1.449.207-1.775.207-1.182 0-2.018-.236-2.5-.703-.486-.471-.729-1.27-.729-2.4v-4.447h-1.512v-2.189h1.672l.236-2.814 2.416-.189v3.004h2.041v2.189h-2.04v-.001zm12.732-2.381c1.443 0 2.574.475 3.398 1.418.812.938 1.219 2.131 1.219 3.576 0 1.387-.406 2.539-1.219 3.457-.863.977-1.998 1.465-3.408 1.465-1.389 0-2.498-.484-3.322-1.455-.787-.92-1.18-2.113-1.18-3.578 0-1.428.406-2.594 1.219-3.494.428-.48.902-.828 1.424-1.051.521-.219 1.146-.332 1.869-.338zm.068 1.84c-.568 0-.977.227-1.232.678-.254.447-.383 1.182-.383 2.193 0 1.041.094 1.844.283 2.41.1.291.271.521.51.693.238.174.508.26.812.26.553 0 .955-.24 1.211-.727.254-.484.383-1.25.383-2.295 0-1.166-.119-1.988-.354-2.471-.235-.48-.644-.728-1.23-.741zm14.293 7.884h-2.729v-9.533h2.578v1.775c.383-1.322 1.068-1.982 2.059-1.982.139 0 .307.01.508.025v2.787a7.636 7.636 0 0 0-.273-.01c-1.426 0-2.143 1.02-2.143 3.059v3.879zm17.713-4.295H158.6a9.8 9.8 0 0 0-.01.445c0 .719.203 1.252.611 1.604.355.303.764.455 1.229.455.939 0 1.502-.5 1.691-1.502l2.549.188c-.277.857-.643 1.523-1.096 2-.812.863-1.898 1.297-3.258 1.297-1.439 0-2.598-.479-3.465-1.436-.818-.902-1.227-2.043-1.227-3.428 0-1.373.357-2.51 1.076-3.408.877-1.096 2.053-1.645 3.531-1.645 1.082 0 2.023.32 2.822.955a3.936 3.936 0 0 1 1.26 1.732c.257.685.398 1.597.423 2.743zm-6.146-1.632h3.389c-.061-.693-.219-1.193-.471-1.5-.25-.305-.637-.457-1.152-.457-1.032 0-1.622.65-1.766 1.957zm-34.584-141.36l1.055-6.562h-1.268l.514-1.776h3.162l-1.318 8.337h-2.145v.001zm8.678-2.84c-.086.018-.172.031-.26.039s-.182.012-.283.012c-.711 0-1.285-.233-1.715-.698-.432-.465-.646-1.082-.646-1.849 0-.929.297-1.69.896-2.285.598-.597 1.361-.895 2.293-.895.951 0 1.707.269 2.266.805.559.537.84 1.262.84 2.174 0 .636-.197 1.309-.592 2.018s-1.053 1.561-1.973 2.553l-.896.966h-2.381l2.451-2.84zm1.511-2.687c0-.344-.125-.642-.371-.893a1.214 1.214 0 0 0-.895-.377c-.35 0-.646.122-.893.367a1.236 1.236 0 0 0-.367.903c0 .361.123.661.365.903.244.241.541.363.895.363.352 0 .652-.124.898-.373.245-.25.368-.548.368-.893zm2.565 5.527l4.082-6.416h-3.553l.305-1.921h6.572l-.059.247-4.973 8.09h-2.374zm10.521-5.474c.088-.014.178-.028.266-.037.088-.01.18-.014.277-.014.711 0 1.285.234 1.719.699.434.465.65 1.082.65 1.849 0 .928-.299 1.69-.898 2.285-.598.596-1.361.895-2.293.895-.955 0-1.715-.269-2.277-.809-.562-.538-.846-1.262-.846-2.171 0-.59.158-1.189.477-1.796.318-.608 1.02-1.532 2.104-2.775l.898-1.025h2.508l-2.585 2.899zm-1.515 2.687c0 .344.123.642.371.893.25.251.551.377.898.377.35 0 .646-.124.893-.369.244-.245.367-.545.367-.901 0-.361-.123-.661-.363-.902a1.215 1.215 0 0 0-.896-.363c-.348 0-.648.124-.898.373a1.214 1.214 0 0 0-.372.892z" fill="#fff"/></g></svg>