<svg xmlns="http://www.w3.org/2000/svg" width="2500" height="1298" viewBox="0 0 69.824 36.248"><path d="M38.257 12.631l-.739 5.25h1.709l.564-4.026a26.066 26.066 0 0 0-1.534-1.224m-3.683-1.539c-.892 0-1.66.297-2.302 1.059h-.025l.127-.904h-1.62l-.932 6.635h1.709l.455-3.246c.12-.851.578-2.202 1.814-2.202 1.095 0 .953 1.096.839 1.905l-.497 3.543h1.707l.589-4.188c.21-1.493-.31-2.602-1.864-2.602m-7.256 3.31c-.156 1.109-.666 2.293-1.979 2.293-1.299 0-1.475-1.198-1.32-2.293.139-.992.812-1.97 1.92-1.97 1.121.001 1.522.953 1.379 1.97m-1.192-3.31c-1.936 0-3.612 1.327-3.92 3.518-.268 1.906.779 3.426 2.946 3.426 2.178 0 3.652-1.52 3.92-3.426.308-2.191-.996-3.518-2.946-3.518m-3.715.053c-.169-.053-.348-.053-.513-.053-1.021 0-1.868 1.043-2.032 1.661h-.024l.212-1.507h-1.518l-.931 6.635h1.706l.343-2.435c.134-.953.38-2.705 1.77-2.705.306 0 .604.052.745.142l.242-1.738zm-12.266 2.948h3.46l-.629 4.211c-6.987 3.355-9.953-3.701-9.708-7.088H0c.205 3.906 1.582 6.692 3.482 8.497.305.281.714.613.714.613 3.573 2.779 8.547 2.529 11.339.02l1.365-9.129h-6.326l-.429 2.876z" fill="#ed1c24"/><path d="M38.257 12.631c.47.354 1.06.803 1.535 1.224l.364-2.608H38.45l-.193 1.384zm16.555-7.247h-2.049c.126-.519.505-1.114 1.22-1.114.627 0 .914.501.829 1.114m-.729-1.711c-1.119 0-1.976.839-2.142 2.025-.183 1.304.339 2.167 1.745 2.167.653 0 .993-.158 1.287-.261l.104-.736c-.199.147-.794.4-1.275.4-.69 0-1.229-.543-1.116-1.336h2.824c.181-1.286-.109-2.259-1.427-2.259M30.012 5.752c.104-.744.503-1.482 1.247-1.482.59 0 .62.619.549 1.114l-.334 2.387h.73l.282-2.019c.106-.744.503-1.482 1.249-1.482.59 0 .62.619.551 1.114l-.336 2.387h.73l.36-2.566c.123-.872-.15-1.531-1.159-1.531-.358 0-.984.203-1.336.776-.133-.542-.56-.776-1.017-.776-.582 0-1.009.211-1.352.674h-.017l.082-.58h-.681l-.562 4.004h.729l.285-2.02zM26.834 4.27c.629 0 .916.501.829 1.114h-2.049c.126-.519.507-1.114 1.22-1.114m-.295 3.595c.651 0 .992-.158 1.285-.261l.104-.736c-.199.147-.793.4-1.275.4-.691 0-1.229-.543-1.116-1.336h2.825c.182-1.286-.109-2.26-1.429-2.26-1.117 0-1.973.839-2.141 2.025-.182 1.305.343 2.168 1.747 2.168M37.897 4.27c.628 0 .914.501.829 1.114h-2.051c.129-.519.508-1.114 1.222-1.114m-.295 3.595c.652 0 .992-.158 1.286-.261l.103-.736c-.198.147-.793.4-1.274.4-.69 0-1.229-.543-1.117-1.336h2.827c.18-1.286-.109-2.26-1.429-2.26-1.118 0-1.975.839-2.141 2.025-.183 1.305.338 2.168 1.745 2.168m4.535-3.595c.628 0 .914.501.829 1.114h-2.051c.128-.519.506-1.114 1.222-1.114m-.296 3.595c.652 0 .992-.158 1.286-.261l.103-.736c-.199.147-.794.4-1.274.4-.69 0-1.229-.543-1.117-1.336h2.827c.18-1.286-.109-2.26-1.43-2.26-1.119 0-1.974.839-2.14 2.025-.183 1.305.339 2.168 1.745 2.168m7.607-1.162c-.112.801.304 1.162 1.056 1.162.233 0 .468-.063.637-.111l.088-.627a1.01 1.01 0 0 1-.517.142c-.334 0-.578-.253-.514-.715l.309-2.189h1.048l.084-.598h-1.048l.162-1.161-.763.235-.129.926h-.894l-.084.598h.893l-.328 2.338zm-4.151-.786c.136-.973.603-1.647 1.434-1.647.631.038.769.494.639 1.429l-.293 2.072h.731l.334-2.378c.151-1.075-.218-1.72-1.242-1.72-.55 0-1.118.275-1.398.73h-.017l.09-.637h-.707l-.562 4.004h.729l.262-1.853zM21.873 7.865c.846 0 1.379-.143 1.688-.244l.4-2.851h-1.917l-.089.645h1.14l-.236 1.665c-.198.038-.346.094-.883.094-1.125 0-1.92-.855-1.739-2.143.172-1.226 1.133-2.145 2.381-2.145.699 0 1.094.126 1.438.377l.173-.792c-.428-.156-.761-.274-1.553-.274-1.652 0-3.022 1.122-3.259 2.811-.244 1.742.74 2.857 2.456 2.857m46.044 3.227c-.894 0-1.66.297-2.304 1.059h-.023l.126-.904h-1.619l-.933 6.635h1.709l.456-3.246c.119-.851.575-2.203 1.812-2.203 1.097 0 .955 1.097.841 1.906l-.498 3.543h1.706l.589-4.188c.21-1.493-.308-2.602-1.862-2.602m-7.036 2.822h-2.905c.201-.889.78-1.561 1.736-1.561s1.236.723 1.169 1.561m-1.095-2.822c-2.036 0-3.268 1.584-3.537 3.503-.308 2.177.777 3.44 2.944 3.44.917 0 1.656-.181 2.33-.527l.196-1.405c-.687.361-1.444.669-2.272.669-1.058 0-1.711-.604-1.638-1.673h4.536c.327-2.32-.124-4.007-2.559-4.007m-6.439 3.402c-.155 1.106-.721 2.047-1.792 2.047-.981 0-1.296-1.108-1.17-2.009.144-1.02.665-2.101 1.825-2.101.994.001 1.297.929 1.137 2.063m.406-2.344h-.025c-.366-.762-.998-1.059-1.865-1.059-1.963 0-3.035 1.842-3.261 3.44-.25 1.776.269 3.349 2.205 3.349.955 0 1.789-.49 2.188-1.056h.024c-.162 1.146-.451 2.577-2.337 2.577-.535 0-1.348-.297-1.831-.582l-.345 1.471c.766.348 1.527.449 2.204.449 2.751 0 3.703-1.701 3.958-3.502l.841-5.991H53.88l-.127.904zm-8.54 5.731h1.708l.589-4.188c.21-1.492-.31-2.602-1.863-2.602-.892 0-1.662.297-2.303 1.059h-.025l.126-.904h-1.617l-.933 6.635h1.707l.456-3.246c.12-.851.578-2.203 1.813-2.203 1.096 0 .953 1.097.84 1.906l-.498 3.543zm-1.19 1.552c3.372 4.785 4.271 9.24 2.463 12.23-.974 1.607-2.645 2.713-4.967 3.285-5.856 1.441-14.595-.748-22.799-5.713-3.296-1.996-6.483-4.773-8.089-6.25a9.71 9.71 0 0 1-1.339-.066c1.14 1.088 4.977 4.635 8.979 7.057 8.395 5.08 17.382 7.309 23.454 5.814 2.517-.621 4.419-1.893 5.501-3.678 1.928-3.191 1.135-7.785-2.158-12.68h-1.045zM18.601 2.409l.132-.881C13.792-.474 9.808-.511 6.893 1.43 4.237 3.198 3.154 6.276 3.04 8.023h.871c.117-1.407 1.023-4.247 3.462-5.87 2.698-1.799 6.478-1.711 11.228.256"/></svg>