<svg xmlns="http://www.w3.org/2000/svg" width="2500" height="2500" viewBox="0 0 192.756 192.756"><path fill-rule="evenodd" clip-rule="evenodd" fill="#fff" d="M0 0h192.756v192.756H0V0z"/><path d="M69.966 74.04c0-5.054-4.121-9.19-9.158-9.19-5.088 0-9.209 4.136-9.209 9.19 0 5.105 4.121 9.24 9.209 9.24 5.037 0 9.158-4.135 9.158-9.24zm-.406 0c0 4.85-3.917 8.781-8.751 8.781-4.833 0-8.751-3.931-8.751-8.781s3.917-8.781 8.751-8.781c4.833-.001 8.751 3.981 8.751 8.781zm-.56 0c0-2.91-1.476-5.922-4.681-6.893-.661-.204-1.221-.306-1.832-.306-1.476 0-1.526.817-2.239.817a.588.588 0 0 1-.61-.612c0-.562.661-1.021 1.781-1.021 1.018 0 1.781.255 1.933.307l.051-.051c-.305-.102-1.272-.459-2.595-.459-2.951 0-5.902 1.531-6.869 4.697-.204.664-.356 1.225-.356 1.838 0 1.48.865 1.582.865 2.246a.62.62 0 0 1-.611.613c-.61 0-1.068-.664-1.068-1.787 0-1.021.254-1.787.306-1.94l-.051-.051a8.326 8.326 0 0 0-.407 2.604c0 2.961 1.476 5.973 4.63 6.943.662.204 1.221.306 1.883.306 1.476 0 1.526-.868 2.188-.868.356 0 .662.307.662.664 0 .562-.662 1.021-1.781 1.021a6.618 6.618 0 0 1-1.984-.307v.051c.254.153 1.221.409 2.595.409 2.9 0 5.902-1.48 6.869-4.646.203-.664.305-1.225.305-1.838 0-1.532-.814-1.583-.814-2.247 0-.408.255-.664.611-.664.56 0 1.018.714 1.018 1.838 0 .97-.254 1.787-.306 1.94l.102.051c.1-.307.405-1.277.405-2.655zm-3.104 2.45c0 1.175-.966 2.349-2.442 2.349-1.729 0-2.646-1.48-2.646-2.808 0-1.838 1.272-2.654 1.832-2.91-.101-.103-.203-.204-.254-.307-.61.408-1.17.817-2.34 1.481-.051.816-.152 1.685-.356 2.297-.407 1.327-1.323 2.246-2.493 2.246-.967 0-1.476-.715-1.476-1.48 0-.562.356-1.276.916-1.787.763-.664 1.577-1.072 2.697-1.685 0-.153.051-.307.051-.459-.254.255-.662.357-1.018.357-.509 0-.966-.459-1.068-.97-.712-.051-1.221-.562-1.271-1.378 0-.562.254-1.073.61-1.073.152 0 .203.103.203.205s-.102.459-.102.766c0 .357.153.766.56.766 0-1.327.967-3.012 2.086-3.012.763 0 .865.562.865.817 0 1.174-1.17 2.501-2.137 2.859a.39.39 0 0 0 .407.357c.407 0 .865-.357 1.068-.613.102-.562.509-1.328 1.018-1.328.203 0 .305.153.305.357 0 .357-.407.868-.712 1.174a4.537 4.537 0 0 0-.102.766 20.934 20.934 0 0 0 2.035-1.276c-.051-.204-.051-.409-.051-.613 0-1.174.763-2.501 1.832-2.501.56 0 .865.408.865.868 0 .868-.712 1.634-1.781 2.4.102.204.204.408.407.51.05-.051.356-.102.661-.102s.712.051.712.357c0 .357-.458.459-.865.459-.204 0-.509-.051-.509-.051-.56.153-1.628.766-1.628 2.399 0 1.123.662 2.145 1.73 2.145.814 0 1.476-.613 1.526-1.583 0-.612-.254-1.225-.865-1.225-.306 0-.611.204-.611.561 0 .511.356.562.356.868 0 .255-.153.357-.356.357-.509 0-.865-.51-.865-1.174 0-.766.661-1.378 1.526-1.378 1.12.001 1.68.971 1.68 1.992zm-1.882-6.433c0-.102 0-.255-.153-.255-.407 0-1.018.817-1.018 1.838.764-.664 1.171-1.225 1.171-1.583zm-4.478-.102c0-.102-.102-.153-.203-.153-.509 0-1.272 1.378-1.272 2.247.814-.46 1.475-1.532 1.475-2.094zm-.305 4.799c-1.17.562-2.595 1.531-2.595 2.654 0 .409.203.664.56.664 1.119.001 1.832-1.786 2.035-3.318z" fill-rule="evenodd" clip-rule="evenodd" fill="#9c9ea0"/><path fill="none" stroke="#cc2229" stroke-width=".354" stroke-miterlimit="2.613" d="M8.504 116.568h175.535"/><path d="M133.414 104.52c.355-1.277-.256-1.992-1.527-1.992-2.086 0-2.492 1.582-2.799 3.115-.508 2.348-.457 3.215 1.68 3.215.51 0 1.426-.102 1.781-.203l.662-3.115h-1.984l-.205.971h.713l-.305 1.328a1.407 1.407 0 0 1-.662.152c-.713 0-.814-.357-.406-2.297.254-1.174.457-2.246 1.271-2.246.662 0 .662.51.51 1.072h1.271zM135.246 106.152c.102-.357.203-1.021.762-1.021.561 0 .408.613.357 1.021h-1.119zm2.137.664c.355-1.379.406-2.451-1.223-2.451-1.576 0-1.984 1.021-2.188 2.195-.305 1.328-.305 2.297 1.221 2.297.561 0 1.02-.152 1.375-.408.355-.254.559-.664.713-1.123h-1.223c-.102.357-.254.766-.66.766-.561 0-.408-.766-.307-1.275h2.292v-.001zM139.926 104.467h-1.17l-.916 4.289h1.17l.662-2.961c.051-.357.203-.664.561-.664.406 0 .406.307.305.664l-.611 2.961h1.17l.764-3.42c.102-.613-.305-.971-.865-.971-.254 0-.457.051-.609.154-.205.051-.357.203-.51.408h-.051l.1-.46zM143.742 106.152c.051-.357.203-1.021.764-1.021.559 0 .406.613.305 1.021h-1.069zm2.137.664c.305-1.379.355-2.451-1.221-2.451-1.578 0-1.984 1.021-2.238 2.195-.256 1.328-.256 2.297 1.271 2.297.561 0 1.018-.152 1.373-.408.307-.254.561-.664.662-1.123h-1.221c-.051.357-.203.766-.662.766-.508 0-.355-.766-.254-1.275h2.29v-.001zM147.201 104.467l-.916 4.289h1.223l.508-2.348c.051-.408.203-1.021 1.271-.971l.205-1.072c-.459 0-.916.154-1.221.664h-.053l.152-.562h-1.169zM151.629 106.713c-.102.461-.152 1.379-.865 1.379-.406 0-.355-.357-.305-.662.152-.768.609-.717 1.17-.717zm1.373-.867c.152-.816.102-1.48-1.424-1.48-.459 0-.865.102-1.17.307-.307.203-.561.51-.662 1.021h1.17c.102-.307.203-.613.611-.613.406 0 .406.256.355.613l-.101.306c-1.119 0-2.188.051-2.494 1.48-.152.766 0 1.377.814 1.377.561 0 .916-.203 1.273-.662l-.053.561h1.121c0-.256.051-.51.102-.766l.458-2.144zM154.783 102.629l-1.322 6.127h1.221l1.271-6.127h-1.17zM161.092 108.756l.203-.918h-2.137l.358-1.787h1.933l.203-.971h-1.933l.355-1.531h2.035l.203-.92h-3.357l-1.271 6.127h3.408zM163.229 102.629l-1.272 6.127h1.17l1.322-6.127h-1.22zM165.875 106.152c.051-.357.203-1.021.764-1.021.559 0 .406.613.305 1.021h-1.069zm2.137.664c.355-1.379.355-2.451-1.221-2.451-1.578 0-1.984 1.021-2.238 2.195-.256 1.328-.256 2.297 1.271 2.297.559 0 1.018-.152 1.373-.408.357-.254.561-.664.662-1.123h-1.17c-.102.357-.256.766-.713.766-.51 0-.355-.766-.254-1.275h2.29v-.001zM172.387 106c.256-1.125-.254-1.635-1.373-1.635-1.578 0-1.934 1.021-2.188 2.195-.307 1.328-.307 2.297 1.271 2.297 1.119 0 1.832-.51 2.086-1.684h-1.221c-.102.561-.355.918-.713.918-.457 0-.508-.307-.203-1.582.152-.92.305-1.379.814-1.379.355 0 .508.256.355.869h1.172V106zM172.947 105.232h.508l-.559 2.605c-.051.305-.102.969.967.969.254 0 .457 0 .609-.051l.152-.715h-.203c-.406 0-.355-.203-.254-.51l.457-2.299h.611l.152-.766h-.609l.254-1.225-1.271.562-.152.662h-.51l-.152.768zM175.949 104.467l-.916 4.289h1.221l.459-2.348c.102-.408.254-1.021 1.322-.971l.203-1.072c-.508 0-.916.154-1.271.664l.102-.562h-1.12zM180.07 104.467h-1.17l-.916 4.289h1.17l.916-4.289zm-.814-1.838l-.203.92h1.221l.203-.92h-1.221zM184.191 106c.254-1.125-.305-1.635-1.373-1.635-1.578 0-1.984 1.021-2.24 2.195-.254 1.328-.254 2.297 1.273 2.297 1.119 0 1.832-.51 2.086-1.684h-1.17c-.154.561-.357.918-.764.918-.408 0-.459-.307-.203-1.582.203-.92.305-1.379.812-1.379.408 0 .51.256.357.869h1.222V106z" fill-rule="evenodd" clip-rule="evenodd" fill="#9c9ea0"/></svg>