<svg xmlns="http://www.w3.org/2000/svg" width="2500" height="2500" viewBox="0 0 192.756 192.756"><g fill-rule="evenodd" clip-rule="evenodd"><path fill="#fff" d="M0 0h192.756v192.756H0V0z"/><path d="M84.617 80.125c0 1.058 0 1.322-.792 1.322-.265 0-.528 0-.528.264s.264.264.528.264h3.7s.264 0 .264-.264c0 0 0-.264-.528-.264-.793 0-.793-.264-.793-1.322v-8.457-1.585s0-.265-.264-.265l-.528.265c-.265.264-1.058.528-1.586.528-.529 0-.529.264-.529.264 0 .264.265.264.529.264.528 0 .528.793.528 1.321v7.665h-.001zM97.303 77.747c0-2.907-2.378-4.229-4.493-4.229-2.643 0-4.493 2.114-4.493 4.229s1.585 4.228 4.493 4.228c2.643 0 4.493-1.85 4.493-4.228zm-7.136-.265c0-2.378 1.057-3.436 2.378-3.436 2.114-.265 2.643 2.379 2.643 3.7 0 2.114-1.058 3.964-2.379 3.964-1.584 0-2.642-1.849-2.642-4.228zM98.625 80.389v1.585c0 .265 0 .529.264.529l.264-.264c.266-.793.529-.793.529-.793h.264c.529.264 1.322.528 2.379.528 2.115 0 4.758-1.321 4.758-4.228 0-2.643-1.85-4.229-3.701-4.229-1.057 0-1.32.264-2.113.528-.264 0-.529.264-.529.264-.264 0-.264 0-.264-.264v-2.114-1.85-.265h-.264c-1.322.528-1.852.528-2.379.793 0 0-.266 0-.266.264l.266.264c.793 0 .793.264.793 1.057v8.195h-.001zm1.85-4.757c0-.529 0-.793.264-.793.266-.265.793-.265 1.322-.265 1.32 0 2.906 1.058 2.906 3.7 0 1.85-1.057 3.436-2.643 3.436-.527 0-1.85-.264-1.85-2.114v-3.964h.001zM112.104 76.689c0 .265 0 .529-.529.529-2.643 1.321-3.699 2.114-3.699 3.436 0 .264 0 1.321 1.32 1.321.793 0 1.85-.528 2.643-1.057 0 0 0-.264.266-.264v.529c.264.264.793.792 1.32.792.793 0 2.115-.792 2.115-1.321h-.266-.264c-.264.264-.264.264-.527.264-.529 0-.529-.528-.529-1.057V74.84c0-.793-.529-1.321-2.115-1.321-2.906 0-3.963 1.85-3.963 2.378 0 .264 0 .529.264.529 0 0 1.057-.265 1.322-1.058.264-.264.527-1.321 1.584-1.321 1.059 0 1.059.793 1.059 1.321v1.321h-.001zm0 2.379c0 1.057-.793 1.85-1.586 1.85-.266 0-.793-.264-.793-1.321 0-.264 0-1.057 1.057-1.585.264 0 .793-.264 1.057-.264.266 0 .266 0 .266.264v1.056h-.001z" fill="#17191a"/><path d="M116.859 80.125c0 1.058 0 1.322-.793 1.322-.527 0-.793 0-.793.264s.266.264.529.264h3.7c.266 0 .266 0 .266-.264 0 0 0-.264-.529-.264-.793 0-.793-.264-.793-1.322v-8.457-1.85c-.264 0-.264 0-.527.265-.529.264-1.322.528-1.586.528-.529 0-.793.264-.793.264 0 .264.264.264.527.264.793 0 .793.793.793 1.321v7.665h-.001zM102.854 113.953v-.264c-.266 0-.529.527-.529.527-.527.529-1.586 1.059-1.85 1.059s-.264.264-.264.264v.264c.793 0 1.057 0 1.057 1.322v3.436c0 1.057 0 1.32-.793 1.32-.529 0-.529 0-.529.266 0 .264.266.264.266.264h3.963c.266 0 .529 0 .529-.264 0-.266-.264-.266-.793-.266-.793 0-.793-.527-.793-1.32v-3.436c0-1.586.529-1.85.793-1.85 0 0 .264 0 .529.264.264.527.527.527 1.057.527.527 0 1.057-.264 1.057-1.057 0-.527-.529-1.057-1.32-1.057-1.059 0-1.852 1.057-2.115 1.057v.266c-.264 0-.264-.266-.264-.266v-1.056h-.001zM111.045 117.125c0 .264 0 .527-.527.527-2.908 1.322-3.701 2.115-3.701 3.436 0 .266 0 1.322 1.322 1.322.793 0 1.85-.529 2.643-1.322.264 0 .264 0 .264.529.266.264.529.793 1.322.793s1.85-.793 1.85-1.322h-.264c-.264.266-.529.266-.529.266-.527 0-.793-.529-.793-1.059v-5.02c0-.793-.264-1.322-2.113-1.322-2.643 0-3.701 1.85-3.701 2.379 0 .264 0 .527.266.527 0 0 1.057-.264 1.32-1.057.266-.264.529-1.32 1.586-1.32s1.057.793 1.057 1.32v1.323h-.002zm0 2.377c0 1.059-.793 1.852-1.584 1.852-.529 0-.793-.266-.793-1.322 0-.264 0-1.057 1.057-1.586.264 0 .793-.264 1.057-.264 0 0 .264 0 .264.264v1.056h-.001zM121.088 120.561c0 1.057 0 1.32-.793 1.32-.527 0-.527 0-.527.266 0 .264.264.264.264.264H123.997s.264 0 .264-.264c0 0-.264-.266-.529-.266-.793 0-.793-.264-.793-1.32v-4.229c0-1.85-1.32-2.379-2.643-2.379-1.057 0-1.584.264-2.643 1.322h-.264v-1.323s0-.264-.264-.264c0 0-.266.264-.529.264-.529.793-1.586 1.322-1.85 1.322 0 0-.264 0-.264.264s.264.264.527.264c.529 0 .529.264.529 1.322v3.436c0 1.057 0 1.32-.793 1.32-.264 0-.529 0-.529.266 0 .264.266.264.529.264h3.7s.266 0 .266-.264c0 0 0-.266-.529-.266-.793 0-.793-.264-.793-1.32v-3.965c0-.264 0-.793.264-1.057.529-.264 1.059-.529 1.586-.529 1.85 0 1.85 1.322 1.85 2.115v3.437h-.001zM124.789 121.354c0 .264 0 .527.264.527 0 .266 1.057.529 2.115.529 2.377 0 3.699-1.586 3.699-2.908 0-1.584-1.586-2.113-2.379-2.377-1.85-.793-2.113-1.059-2.113-1.586 0-.793.793-1.322 1.32-1.322 1.322 0 1.85 1.059 1.85 1.322.266.527.266.527.529.527v-.264l.264-1.057c0-.264 0-.529-.527-.529-.266 0-1.586-.264-1.85-.264-2.379 0-3.172 1.322-3.172 2.379 0 1.32 1.32 1.85 2.379 2.379 1.32.527 2.113.791 2.113 1.85 0 1.057-1.057 1.586-1.85 1.586-1.322 0-1.85-1.586-2.115-2.115 0-.264 0-.529-.264-.529s-.264.266-.264.529v1.323h.001zM135.889 117.125c0 .264 0 .527-.529.527-2.906 1.322-3.699 2.115-3.699 3.436 0 .266 0 1.322 1.32 1.322.793 0 1.852-.529 2.645-1.322 0 0 .264 0 .264.529.264.264.527.793 1.32.793s1.852-.793 1.852-1.322h-.529c0 .266-.264.266-.529.266-.264 0-.527-.529-.527-1.059v-5.02c0-.793-.266-1.322-2.115-1.322-2.643 0-3.963 1.85-3.963 2.379 0 .264.264.527.527.527 0 0 1.057-.264 1.322-1.057.264-.264.527-1.32 1.586-1.32.793 0 1.057.793 1.057 1.32v1.323h-.002zm0 2.377c0 1.059-.793 1.852-1.586 1.852-.529 0-.793-.266-.793-1.322 0-.264 0-1.057 1.057-1.586.266 0 .793-.264 1.059-.264 0 0 .264 0 .264.264v1.056h-.001zM141.438 118.182c0-2.906 1.852-3.965 2.645-3.965.527 0 .793.266 1.584 1.059.529.791.793 1.057 1.059 1.057.527 0 .527-1.057.527-1.322 0-1.057-2.643-1.057-2.906-1.057-2.115 0-4.758 1.586-4.758 4.492 0 2.908 2.379 3.965 4.494 3.965 1.85 0 3.17-1.057 3.17-1.322v-.264h-.264c-.264.264-1.057.793-2.113.793-1.587-.001-3.438-1.587-3.438-3.436zM150.688 115.275c0-.266.266-.266.529-.266h1.586c.264 0 .264 0 .264-.527 0-.266 0-.266-.264-.266H151.217c-.264 0-.529 0-.529-.264v-1.322-.264c-.264 0-.264 0-.527.264-.529.793-1.059 1.322-1.586 1.586l-.529.266s-.264 0-.264.264.264.264.529.264h.264c.264 0 .527 0 .527.266v5.285c0 1.32.793 1.85 1.852 1.85 1.32 0 2.377-1.057 2.377-1.322-.264-.264-.264 0-.264 0-.529.266-.793.529-1.32.529-.793-.264-1.059-1.057-1.059-1.85v-4.493zM154.916 120.561c0 1.057 0 1.32-.793 1.32-.264 0-.527 0-.527.266 0 .264.264.264.264.264H157.825s.264 0 .264-.264c0 0-.264-.266-.527-.266-.793 0-.793-.264-.793-1.32v-5.814c0-.529 0-.793-.266-.793-.264 0-.793.529-.793.529-.264.264-.793.527-1.586.793-.264 0-.264.264-.264.264 0 .264.264.264.264.264.529 0 .793.264.793 1.322v3.435h-.001zm1.852-8.721c0-.529-.266-1.059-1.059-1.059-.527 0-1.057.529-1.057 1.059 0 .527.529 1.057 1.057 1.057.793-.001 1.059-.53 1.059-1.057zM167.338 117.918c0-2.643-2.113-3.965-4.229-3.965-2.906 0-4.492 2.113-4.492 4.229 0 2.113 1.586 4.229 4.492 4.229 2.643-.001 4.229-1.85 4.229-4.493zm-6.871 0c0-2.379 1.057-3.701 2.379-3.701 2.113 0 2.643 2.643 2.643 3.965 0 2.113-1.057 3.965-2.379 3.965-1.587-.001-2.643-2.116-2.643-4.229zM174.738 120.561c0 1.057 0 1.32-.793 1.32-.529 0-.529 0-.529.266 0 .264 0 .264.266.264h3.7c.264 0 .529 0 .529-.264 0 0-.266-.266-.793-.266-.793 0-.793-.264-.793-1.32v-4.229c0-1.85-1.322-2.379-2.379-2.379s-1.586.264-2.643 1.322h-.266c-.264 0-.264 0-.264-.266v-1.321c-.264 0-.264.264-.529.264-.527.793-1.584 1.322-1.85 1.322-.264 0-.264 0-.264.264s.264.264.529.264c.527 0 .527.264.527 1.322v3.436c0 1.057 0 1.32-.793 1.32-.264 0-.527 0-.527.266 0 .264.264.264.264.264H172.095s.264 0 .264-.264c0 0 0-.266-.529-.266-.793 0-.793-.264-.793-1.32v-3.965c0-.264 0-.793.266-1.057.527-.264 1.057-.529 1.586-.529 1.85 0 1.85 1.322 1.85 2.115v3.437h-.001zM178.174 121.354c0 .264 0 .527.264.527.266.266 1.322.529 2.379.529 2.379 0 3.436-1.586 3.436-2.908 0-1.584-1.322-2.113-2.113-2.377-1.852-.793-2.115-1.059-2.115-1.586 0-.793.529-1.322 1.322-1.322 1.32 0 1.85 1.059 1.85 1.322l.264.527c.264 0 .264-.264.264-.264v-1.057c0-.264 0-.529-.264-.529s-1.586-.264-1.85-.264c-2.379 0-3.172 1.322-3.172 2.379 0 1.32 1.322 1.85 2.379 2.379 1.057.527 2.113.791 2.113 1.85 0 1.057-1.057 1.586-1.85 1.586-1.586 0-2.113-1.586-2.113-2.115 0-.264-.264-.529-.264-.529-.266 0-.266.266-.266.529l-.264 1.323z" fill="#17191a"/><path d="M93.603 101.004c0-3.701.528-3.701 6.872-3.701 7.135 0 12.422 0 14.271 10.572.527 2.379 1.32 2.379 1.85 2.379 1.322 0 1.586-1.322 1.85-3.436l.793-13.479c0-2.379 0-4.229-1.586-4.229-1.057 0-1.32.529-1.586 1.585-.793 1.851-1.32 3.436-12.686 3.436H68.232c-2.378 0-4.493-.264-5.021-3.171 0-1.057-.264-1.585-1.321-1.585-.793 0-1.321.792-1.586 2.114l-4.493 15.33c0 .527-.264 1.32-.264 1.85 0 .527.528 1.32 1.321 1.32 1.057 0 1.586-.527 2.643-2.113 5.55-10.572 12.686-10.572 19.292-10.572 2.378 0 3.171 0 3.171 2.908v51.006c0 4.229 0 7.4-5.55 7.664-2.378.264-3.7.264-3.7 1.85s1.322 1.586 2.114 1.586c2.115 0 11.1-.264 12.95-.264 3.7 0 9.25.264 12.95.264.793 0 2.379 0 2.379-1.586s-1.586-1.85-3.965-1.85c-5.549-.264-5.549-3.436-5.549-7.928v-49.95z" fill="#17191a"/><path d="M60.303 86.467c0 9.25-1.321 12.685-11.364 12.685-16.65 0-26.693-15.063-26.693-31.185 0-14.8 9.778-33.299 26.693-33.299 11.893 0 16.121 7.928 17.971 11.1.793 1.586 1.585 2.643 2.643 2.643.528 0 1.321-.528 1.321-2.114 0-1.057-1.057-9.779-2.378-11.1-.792-.793-7.136-3.436-17.443-3.436-29.071 0-42.549 19.557-42.549 35.678 0 10.836 7.136 34.622 37.792 34.622 2.907 0 13.214 0 23.257-5.814 3.171-1.586 3.171-1.85 3.171-6.871 0-6.079-.264-9.779-.264-11.1v-1.057c0-4.757.264-6.343 5.55-6.872 2.907 0 3.964-.528 3.964-1.585 0-1.322-1.322-1.322-1.85-1.322-1.585 0-12.157.529-13.743.529-7.4 0-10.571-.529-12.421-.529-4.493 0-5.021 0-5.021 1.322 0 1.057 1.057 1.585 4.493 1.585 4.757.265 6.871 1.322 6.871 6.607v9.513z" fill="#17191a"/><path d="M95.717 99.682c0-3.7.529-3.7 6.871-3.7 7.137 0 12.422 0 14.271 10.571.529 2.379 1.322 2.379 1.852 2.379 1.32 0 1.584-1.32 1.584-3.436l.793-13.479c0-2.643 0-4.229-1.586-4.229-.791 0-1.057.528-1.32 1.586-.793 1.85-1.322 3.171-12.686 3.171h-35.15c-2.643 0-4.493 0-5.021-2.907 0-1.057-.528-1.586-1.321-1.586-1.057 0-1.321.793-1.586 2.114l-4.493 15.329c-.264.529-.529 1.322-.529 1.85 0 .529.793 1.322 1.586 1.322 1.058 0 1.586-.529 2.378-2.115 5.814-10.571 12.95-10.571 19.557-10.571 2.114 0 2.907 0 2.907 2.907v51.006c0 4.23 0 7.4-5.286 7.666-2.378.264-3.964.264-3.964 1.85s1.586 1.586 2.379 1.586c2.114 0 10.835-.529 12.686-.529 3.7 0 9.513.529 12.949.529 1.059 0 2.379 0 2.379-1.586s-1.586-1.85-3.699-1.85c-5.55-.266-5.55-3.436-5.55-7.93V99.682h-.001z" fill="#d9ca99"/><path d="M62.153 85.146c0 9.25-1.321 12.686-11.364 12.686-16.386 0-26.429-15.329-26.429-31.186 0-14.8 9.515-33.299 26.429-33.299 12.157 0 16.385 7.928 18.235 11.1.793 1.586 1.585 2.643 2.643 2.643.529 0 1.321-.528 1.321-2.114 0-1.057-1.057-9.778-2.378-11.1-.792-.793-7.4-3.436-17.442-3.436-29.335 0-42.814 19.557-42.814 35.678 0 10.571 7.136 34.621 38.057 34.621 2.643 0 13.214 0 23.257-5.813 3.171-1.585 3.171-1.85 3.171-6.872 0-6.079-.529-10.042-.529-11.1v-1.057c0-4.757.265-6.343 5.55-6.872 2.907 0 3.964-.528 3.964-1.586 0-1.321-1.057-1.321-1.586-1.321-1.586 0-12.157.265-14.007.265-7.4 0-10.307-.265-12.157-.265-4.493 0-5.021 0-5.021 1.321 0 1.058.793 1.586 4.229 1.586 4.757.265 6.871 1.321 6.871 6.607v9.514z" fill="#d9ca99"/></g></svg>