<svg viewBox="0 0 153.11 51.41" xmlns="http://www.w3.org/2000/svg" width="2500" height="839"><path d="M0 0h51.41v51.41H0zM57.99 28.71a5.78 5.78 0 0 1-.45-2.29 5.9 5.9 0 0 1 .44-2.28 5.19 5.19 0 0 1 1.28-1.83 6.07 6.07 0 0 1 2.06-1.21 8.08 8.08 0 0 1 2.76-.43 16 16 0 0 1 4.48.59v10.13a9.42 9.42 0 0 1-.28 2.5 3.59 3.59 0 0 1-1 1.64 4.1 4.1 0 0 1-1.78.9 11.51 11.51 0 0 1-2.78.28 7.05 7.05 0 0 1-.76 0c-.28 0-.56-.06-.85-.11l-.86-.16c-.27-.06-.53-.12-.75-.19l-.6-2.9a8.34 8.34 0 0 0 .93.33c.33.1.68.19 1 .27a10.32 10.32 0 0 0 1 .18 8 8 0 0 0 .92.06 6.15 6.15 0 0 0 1.18-.11 3.32 3.32 0 0 0 .92-.34 1.59 1.59 0 0 0 .6-.58 1.5 1.5 0 0 0 .22-.84v-.24a8.73 8.73 0 0 1-1.06.13h-.86a7.07 7.07 0 0 1-2.59-.45 5.94 5.94 0 0 1-2-1.22 5.19 5.19 0 0 1-1.17-1.83zm7.79-5.09c-.3-.06-.6-.12-.89-.16a4.89 4.89 0 0 0-.83-.07 4.22 4.22 0 0 0-2.62.73 2.7 2.7 0 0 0-1 2.3 2.75 2.75 0 0 0 1 2.31 4.16 4.16 0 0 0 2.62.75 7.45 7.45 0 0 0 .79-.05 7.74 7.74 0 0 0 .93-.17zM78.68 32.02a6.26 6.26 0 0 1-6.7-1.24 5.52 5.52 0 0 1-1.28-1.86 5.89 5.89 0 0 1-.47-2.34 5.87 5.87 0 0 1 1.75-4.2 6.11 6.11 0 0 1 1.91-1.26 6.22 6.22 0 0 1 6.71 1.26 6.14 6.14 0 0 1 1.28 1.88 5.75 5.75 0 0 1 .46 2.32 5.89 5.89 0 0 1-.46 2.34 5.82 5.82 0 0 1-1.28 1.86 6.22 6.22 0 0 1-1.92 1.24zm-3.7-2.51a3.19 3.19 0 0 0 1.31.25 3.22 3.22 0 0 0 1.31-.25 2.82 2.82 0 0 0 1.6-1.69 3.41 3.41 0 0 0 .22-1.24 3.45 3.45 0 0 0-.22-1.24 2.81 2.81 0 0 0-.62-1 3.15 3.15 0 0 0-1-.69 3.22 3.22 0 0 0-1.31-.25 3.19 3.19 0 0 0-1.31.25 3.08 3.08 0 0 0-1 .69 2.81 2.81 0 0 0-.62 1 3.45 3.45 0 0 0-.22 1.24 3.41 3.41 0 0 0 .22 1.24 2.94 2.94 0 0 0 .62 1 2.89 2.89 0 0 0 1.02.69zM84.01 32.24v-16.1h2.78v16.1zM96.7 16.14h2.78V31.9a16.58 16.58 0 0 1-4.49.58 7.91 7.91 0 0 1-2.76-.45 6.06 6.06 0 0 1-2.06-1.24 5.3 5.3 0 0 1-1.28-1.86 6.46 6.46 0 0 1 0-4.66 5.7 5.7 0 0 1 1.28-1.89 6.3 6.3 0 0 1 2-1.26 7.11 7.11 0 0 1 2.59-.45h.86s.68.06 1.07.11zm-4.35 8a2.94 2.94 0 0 0-1 2.42 2.83 2.83 0 0 0 1 2.39 4.13 4.13 0 0 0 2.62.77 7.79 7.79 0 0 0 1.73-.22v-5.92a6.65 6.65 0 0 0-.94-.18 5.41 5.41 0 0 0-.79-.05 4 4 0 0 0-2.62.79zM107.66 29.76a6.13 6.13 0 0 0 .92-.08 7 7 0 0 0 .93-.21 5.09 5.09 0 0 0 .83-.31 2.15 2.15 0 0 0 .59-.39l1.23 2.48a10.64 10.64 0 0 1-2.05.89 9.32 9.32 0 0 1-2.82.37 6.48 6.48 0 0 1-2.45-.45 6 6 0 0 1-2-1.24 5.52 5.52 0 0 1-1.28-1.87 6.22 6.22 0 0 1 0-4.72 5.73 5.73 0 0 1 1.27-1.88 5.85 5.85 0 0 1 1.89-1.22 6.44 6.44 0 0 1 4.68 0 5.16 5.16 0 0 1 1.86 1.34 6.1 6.1 0 0 1 1.19 2.16 8.13 8.13 0 0 1 .36 2.88h-8.86a2.7 2.7 0 0 0 1.16 1.7 4.06 4.06 0 0 0 2.2.56zm1.29-6.12a3.4 3.4 0 0 0-1.91-.51 3.1 3.1 0 0 0-1.91.58 2.83 2.83 0 0 0-1 1.48h5.84a2.41 2.41 0 0 0-1.02-1.55zM114.43 21.24l1.35-.23 1.36-.18 1.26-.11a10.29 10.29 0 0 1 1 0 10 10 0 0 1 2 .19 4.32 4.32 0 0 1 1.63.72 3.52 3.52 0 0 1 1.11 1.41 5.48 5.48 0 0 1 .4 2.26v7h-2.78v-6.19a2.77 2.77 0 0 0-.63-2.1 2.73 2.73 0 0 0-1.87-.56 9 9 0 0 0-1 .06c-.36 0-.74.09-1.13.15v8.64h-2.78zM125.94 36.71h-.5a3.86 3.86 0 0 1-.51-.09l-.32-2.58a5.55 5.55 0 0 0 .67.13h.56a1.3 1.3 0 0 0 1.24-.58 4.21 4.21 0 0 0 .33-2V21.06h2.78v10.23a13.75 13.75 0 0 1-.19 2.5 3.9 3.9 0 0 1-.67 1.68 2.81 2.81 0 0 1-1.31.94 6.14 6.14 0 0 1-2.08.3zm2.86-17.39a1.8 1.8 0 0 1-1.14-.38 1.33 1.33 0 0 1-.49-1.11 1.37 1.37 0 0 1 .47-1.07 1.71 1.71 0 0 1 1.16-.4 1.66 1.66 0 0 1 1.15.4 1.36 1.36 0 0 1 .46 1.07 1.38 1.38 0 0 1-.45 1.08 1.64 1.64 0 0 1-1.16.41zM138.37 29.76a6 6 0 0 0 .92-.08 6.79 6.79 0 0 0 .94-.21 5 5 0 0 0 .82-.31 2.39 2.39 0 0 0 .6-.39l1.23 2.48a11 11 0 0 1-2.07.86 9.32 9.32 0 0 1-2.82.37 6.55 6.55 0 0 1-2.45-.45 5.81 5.81 0 0 1-1.94-1.24 5.52 5.52 0 0 1-1.28-1.87 5.89 5.89 0 0 1-.46-2.34 6 6 0 0 1 .46-2.38 5.91 5.91 0 0 1 1.28-1.88 5.7 5.7 0 0 1 1.88-1.22 6.47 6.47 0 0 1 4.69 0 5 5 0 0 1 1.85 1.34 6.11 6.11 0 0 1 1.2 2.16 8.37 8.37 0 0 1 .35 2.88h-8.85a2.63 2.63 0 0 0 1.16 1.7 4 4 0 0 0 2.19.56zm1.29-6.12a3.38 3.38 0 0 0-1.91-.51 3.07 3.07 0 0 0-1.9.58 2.77 2.77 0 0 0-1 1.48h5.83a2.33 2.33 0 0 0-1.02-1.55zM143.93 21.06h2.1v-4.09h2.78v4.09h4.3v2.58h-4.3v4.05a4.16 4.16 0 0 0 .1 1 1.18 1.18 0 0 0 .34.59 1.46 1.46 0 0 0 .62.32 3.53 3.53 0 0 0 .93.1h2.31v2.58h-2.64a9.55 9.55 0 0 1-2-.18 3.61 3.61 0 0 1-1.39-.59 2.44 2.44 0 0 1-.82-1.1 4.78 4.78 0 0 1-.26-1.68v-5.09h-2.1z" fill="#af8009"/><path d="M24.75 43.33c-.72 0-1.44 0-2.16-.1a13 13 0 0 1-1.5-.24 18 18 0 0 1-7.71-3.6c-.59-.5-1.18-1-1.73-1.56a17.58 17.58 0 0 1-3.39-4.76 18.07 18.07 0 0 1-1.33-3.62 18.82 18.82 0 0 1-.48-2.68 20.94 20.94 0 0 1 0-3.36c0-.54.13-1.07.21-1.61a15.63 15.63 0 0 1 .55-2.32 18.44 18.44 0 0 1 11.38-12 17.08 17.08 0 0 1 2.51-.72c.73-.15 1.47-.24 2.21-.32a17.66 17.66 0 0 1 2.72 0 18.44 18.44 0 0 1 8.38 2.62 18.07 18.07 0 0 1 3.36 2.6 18.57 18.57 0 0 1 3.34 4.48 17.45 17.45 0 0 1 1.58 4.06c.19.73.31 1.47.43 2.2a13.56 13.56 0 0 1 .13 1.43c0 .43.06.87.05 1.3 0 .66 0 1.31-.12 2a20.35 20.35 0 0 1-.62 3 18.46 18.46 0 0 1-8.65 10.88 17.18 17.18 0 0 1-4.29 1.74c-.75.19-1.52.3-2.29.43a11.05 11.05 0 0 1-1.29.13h-1.29zm-11.11-4.84v-.16c.07-.43.13-.86.21-1.29s.18-1 .3-1.5c.21-.86.45-1.71.67-2.56a13.29 13.29 0 0 1 .81-2.21 3.4 3.4 0 0 1 1.9-1.82l1.4-.56c.69-.25 1.38-.51 2.09-.72s1.26-.33 1.9-.46 1.07-.2 1.61-.27 1.24-.15 1.86-.18 1.28 0 1.92 0a17 17 0 0 1 2.47.19 15 15 0 0 1 2.3.52 3.48 3.48 0 0 1 1.68 1.11 7.08 7.08 0 0 1 1 1.68 26.39 26.39 0 0 1 1.27 4.26c.13.54.23 1.09.34 1.63.06.33.1.67.16 1a16.7 16.7 0 0 0 3-4.15 17.41 17.41 0 0 0 1.54-12A17.63 17.63 0 0 0 25.19 7.27a17.65 17.65 0 0 0-16 25.72 17.7 17.7 0 0 0 4.45 5.5zm5.14 3v-.17c0-.44.07-.88.13-1.31.09-.73.18-1.46.29-2.18s.23-1.59.34-2.38c.06-.4.11-.8.18-1.2.13-.71.27-1.42.43-2.12s.35-1.5.55-2.24c.11-.44.25-.86.37-1.29 0-.15 0-.2-.14-.18a2.73 2.73 0 0 0-.48.1 12.73 12.73 0 0 0-2.85 1.19 2.7 2.7 0 0 0-1.08 1 11.22 11.22 0 0 0-1.07 2.75c-.15.55-.3 1.1-.43 1.66s-.25 1.16-.38 1.74l-.12.64c-.07.43-.12.86-.21 1.28a.29.29 0 0 0 .14.34c.3.21.59.44.91.62.69.4 1.39.79 2.1 1.15.44.25.87.38 1.32.57z" fill="#fff"/><path d="M37.86 23.6l.41-.28a.68.68 0 0 1 .62 0 1.06 1.06 0 0 1 .72 1 .9.9 0 0 1-1.38.75 1.15 1.15 0 0 1-.5-.84.14.14 0 0 1 0-.09c0-.16 0-.19-.16-.25q-.68-.24-1.35-.51c-.11 0-.13 0-.15.09a1.88 1.88 0 0 0 0 .33 3.79 3.79 0 0 1-.28 1.1 1.06 1.06 0 0 1-.21.31 3.65 3.65 0 0 1-1.45 1.25.29.29 0 0 1-.16 0c-.18-.06-.21-.22-.06-.33l.52-.37a3 3 0 0 0 .87-1 .75.75 0 0 0-.26-.88 4.88 4.88 0 0 0-1-.49 8.62 8.62 0 0 0-2.37-.37c-.59 0-1.17-.07-1.76-.07-.41 0-.83 0-1.24.07l-1.19.06c-.4 0-.8.07-1.19.12l-1.3.2c-.31 0-.63.08-.93.14l-1.44.31c-.57.14-1.14.28-1.71.44s-.88.25-1.31.4a7.15 7.15 0 0 0-.77.29c-.51.23-1 .46-1.53.71a3.19 3.19 0 0 0-1.12.94.64.64 0 0 0 0 .94c.06.07.14.13.2.21a1 1 0 0 1 .08.18 1 1 0 0 1-.21.09 1.16 1.16 0 0 1-.84-.36 2.06 2.06 0 0 1-.54-.83 6.94 6.94 0 0 1-.48-1.92c-.05-.39-.07-.78-.09-1.18 0-.12 0-.17.15-.19a.79.79 0 0 0 .26-.08.29.29 0 0 1 .44.28 3 3 0 0 0 0 .74c.06.35.15.69.24 1 0 .17.15.19.28.07s.44-.4.67-.57a8.18 8.18 0 0 1 .79-.51 4.74 4.74 0 0 1 .5-.26l.86-.38a.4.4 0 0 0 .25-.3 1.58 1.58 0 0 0 0-.65 6.16 6.16 0 0 1-.07-1v-2a7.18 7.18 0 0 1 .43-2.24c.17-.4.3-.82.5-1.2a8.57 8.57 0 0 1 1.54-2.14c.15-.15.29-.32.46-.46a10.64 10.64 0 0 1 .93-.73c.31-.22.65-.4 1-.61a1.58 1.58 0 0 0 .23-.22s.05-.08 0-.1a.12.12 0 0 0-.1-.06 3.81 3.81 0 0 0-.59.05 11 11 0 0 0-3.11 1.24 4.93 4.93 0 0 0-.86.6c-.4.33-.79.68-1.17 1a10.47 10.47 0 0 0-1.92 2.74 8.61 8.61 0 0 0-.69 2 9.87 9.87 0 0 0-.24 1.87.65.65 0 0 1 0 .19c0 .13 0 .19.16.16l.95-.25h.07a.6.6 0 0 1 .28.42c0 .17-.06.24-.27.31a2.05 2.05 0 0 1-.43.09 12.19 12.19 0 0 0-2.06.44 11.49 11.49 0 0 0-1.61.59 2.46 2.46 0 0 1-.38.14h-.14c-.05 0 0-.11.06-.14a7.74 7.74 0 0 1 .73-.43c.45-.23.91-.42 1.37-.64s.45-.18.49-.7.14-1.15.21-1.72a6.82 6.82 0 0 1 .39-1.54 10.59 10.59 0 0 1 .48-1.09 11.12 11.12 0 0 1 2.67-3.45 11.27 11.27 0 0 1 1.2-.89 10.76 10.76 0 0 1 1.4-.8 8 8 0 0 1 2-.69c.14 0 .27-.08.41-.1.37-.06.75-.08 1.12-.15a6.13 6.13 0 0 1 1.6 0 12.89 12.89 0 0 1 1.83.29 9.5 9.5 0 0 1 1.38.41 6.71 6.71 0 0 1 1.41.66c.47.29.93.58 1.39.89a4.74 4.74 0 0 1 .49.4c.3.27.61.53.89.82a9.49 9.49 0 0 1 .8 1 7.85 7.85 0 0 1 .58.84 10.11 10.11 0 0 1 .71 1.34 5.2 5.2 0 0 1 .43 1.22c.06.41.2.8.28 1.21a4 4 0 0 1 .08.78c0 .43 0 .87.06 1.31 0 .11 0 .17.15.2a1 1 0 0 1 .3.13zM27.11 13.3a6 6 0 0 0-2.48.41 7.5 7.5 0 0 0-1.71.94 5.27 5.27 0 0 0-1.33 1.53 4.78 4.78 0 0 0-.57 1.26c-.11.38-.2.76-.28 1.14s-.07.48-.1.72 0 .42 0 .62.34.58.59.5c.68-.2 1.36-.41 2-.6a13.23 13.23 0 0 1 1.63-.37c.74-.12 1.49-.18 2.24-.26.49 0 1-.08 1.46-.09.8 0 1.6 0 2.4.07a14 14 0 0 1 2 .32c.34.08.66.19 1 .28.17.05.26 0 .31-.15a1 1 0 0 0 .06-.41 2.48 2.48 0 0 0-.12-.66c-.14-.43-.29-.86-.44-1.28a.62.62 0 0 0-.08-.12c-.12-.17-.23-.34-.35-.5a11.79 11.79 0 0 0-.82-1 9 9 0 0 0-1.72-1.35 5.56 5.56 0 0 0-1.26-.59 6.41 6.41 0 0 0-2.43-.41zm2.71 8.11h1.29a1 1 0 0 0 .3 0 .68.68 0 0 0 .36-.85c0-.1-.09-.23-.24-.25-.43 0-.87-.09-1.31-.11a15 15 0 0 0-2.76.13.36.36 0 0 0-.32.35v.23a.58.58 0 0 0 .69.61 4.78 4.78 0 0 1 .53-.06zM11.29 24.81a1.1 1.1 0 0 1-1.1 1.14 1.21 1.21 0 0 1-1.23-1.16 1.05 1.05 0 0 1 1-1.09 1.18 1.18 0 0 1 1.33 1.11z" fill="#fff"/><path d="M17.63 22.21c0 .23 0 .43-.08.61a.65.65 0 0 1-.45.46c-.06 0-.18 0-.25-.1s0-.14 0-.2a.51.51 0 0 1 .1-.21 1 1 0 0 0-.22-1.26c-.07-.06-.13-.14-.2-.2s-.06-.12 0-.17l.23-.19c.11-.08.22 0 .33 0a1.12 1.12 0 0 1 .44.66c.04.23.07.44.1.6zM32.74 17.37l-.12-.08a4.9 4.9 0 0 0-1.34-1.1c-.3-.16-.57-.35-.87-.49a10.9 10.9 0 0 0-1.84-.66 8 8 0 0 0-1.75-.24h-1.73a.26.26 0 0 1-.15 0c-.15-.13-.12-.24.09-.31a5.17 5.17 0 0 1 1.47-.28 13.63 13.63 0 0 1 1.69 0 3.9 3.9 0 0 1 .57.13 7.32 7.32 0 0 1 2.08.81 4.11 4.11 0 0 1 .59.44 6 6 0 0 1 1.28 1.59.94.94 0 0 1 .06.15z" fill="#fff"/></svg>