<svg xmlns="http://www.w3.org/2000/svg" width="2500" height="2500" viewBox="0 0 192.756 192.756"><g fill-rule="evenodd" clip-rule="evenodd"><path fill="#fff" d="M0 0h192.756v192.756H0V0z"/><path fill="#f9dc30" d="M8.504 123.918h175.748V68.839H8.504v55.079z"/><path d="M141.988 82.302v-5.256h6.194v5.256h-6.194zM139.396 115.422v-4.752h1.152c.504 0 .936-.072 1.225-.36.072-.288.215-.504.215-1.224V84.822h6.193v25.199c0 2.017-.504 3.456-1.656 4.248-1.225.937-3.168 1.152-5.977 1.152h-1.152v.001zM115.854 106.638V84.822h6.049v2.664c.791-1.08 1.871-1.872 3.096-2.52 1.152-.576 2.447-.792 3.959-.792 2.447 0 4.465.792 5.688 1.8 1.297 1.368 1.801 3.312 1.801 5.832v14.832h-6.191V93.39c0-1.44-.145-2.664-.793-3.312-.504-.647-1.439-1.008-2.807-1.008-1.297 0-2.449.36-3.385 1.152-.793.936-1.225 2.016-1.225 3.456v12.959h-6.192v.001zM74.167 106.638V84.822h5.76v3.672c.792-1.439 1.728-2.592 2.808-3.312 1.008-.648 2.376-1.008 3.816-1.008H87.487v6.048H85.47c-1.728 0-3.024.288-3.816 1.08-.936.936-1.296 2.088-1.296 3.816v11.52h-6.191zM31.111 106.494c.936-.145 1.8-.288 2.52-.648 1.008-.432 1.8-1.368 2.448-2.304v1.872c0 2.088-.36 3.6-1.152 4.392-.648.648-2.016 1.008-3.816 1.008h-.144c-1.08 0-1.872-.144-2.52-.504-.648-.432-.936-.936-1.152-1.584h-6.912c.144 2.088 1.224 3.816 2.952 5.04 1.656 1.152 4.176 1.656 7.2 1.656h.576c1.728 0 3.168-.072 4.464-.36 1.44-.432 2.664-.936 3.6-1.584 1.008-.936 1.8-1.872 2.232-3.023.36-1.368.648-3.024.648-5.328V84.822h-5.832v2.664a5.808 5.808 0 0 0-2.592-2.52c-.72-.432-1.584-.792-2.52-.936h-1.584c-2.952 0-5.4.936-7.127 3.168-1.729 2.088-2.664 4.896-2.664 8.424 0 3.312.936 5.977 2.808 8.063 1.656 1.872 4.176 2.952 7.128 2.952.503.001.864.001 1.439-.143zm0-17.424c1.584 0 2.736.504 3.672 1.584.792 1.152 1.296 2.592 1.296 4.608 0 2.088-.504 3.672-1.296 4.896-.936 1.008-1.944 1.584-3.672 1.584s-2.808-.576-3.744-1.584c-.864-1.224-1.296-2.808-1.296-4.752 0-2.016.432-3.6 1.296-4.752.793-1.08 2.016-1.584 3.744-1.584zM58.183 107.286c3.528 0 6.479-.937 8.567-3.024 2.088-2.159 3.168-5.04 3.168-8.64 0-3.528-1.08-6.479-3.168-8.567s-5.04-3.024-8.567-3.024c-3.744 0-6.48.936-8.64 3.024-2.088 2.088-3.168 5.04-3.168 8.567 0 3.6 1.08 6.48 3.168 8.64 2.16 2.088 4.896 3.024 8.64 3.024zm0-18.36c1.728 0 3.168.504 4.104 1.728.864 1.296 1.296 2.88 1.296 4.968 0 2.304-.432 3.888-1.296 5.04-1.08 1.224-2.376 1.872-4.104 1.872-1.729 0-3.096-.648-3.96-1.872-.936-1.152-1.512-2.736-1.512-5.04 0-2.088.576-3.672 1.512-4.968.864-1.223 2.232-1.728 3.96-1.728zM105.197 100.015c-.432.791-.936 1.439-1.584 1.871-.719.36-1.584.504-2.664.504h-.287c-1.297 0-2.52-.504-3.168-1.296-.792-.936-1.296-2.159-1.296-3.888h15.407v-.647-.937c0-3.528-.863-6.552-2.879-8.567-1.873-2.088-4.465-3.024-8.064-3.024-3.527 0-6.048.936-8.064 3.024-1.8 2.088-2.736 5.04-2.736 8.567 0 3.6.936 6.336 2.736 8.64 2.016 2.088 4.679 3.024 8.064 3.024 2.664 0 5.039-.576 6.984-1.872 1.871-1.296 3.096-3.168 3.744-5.399h-6.193zm-4.535-11.089c-1.297 0-2.377.36-3.168 1.152-.792.792-1.296 1.872-1.296 3.312h8.999c0-1.44-.432-2.52-1.08-3.312-.791-.792-2.015-1.152-3.455-1.152zM167.963 100.015c-.432.791-.936 1.439-1.584 1.871-.721.36-1.584.504-2.664.504h-.289c-1.295 0-2.52-.504-3.168-1.296-.791-.936-1.295-2.159-1.295-3.888H174.371v-.647-.937c0-3.528-.865-6.552-2.881-8.567-1.871-2.088-4.463-3.024-8.064-3.024-3.527 0-6.047.936-8.062 3.024-1.801 2.088-2.736 5.04-2.736 8.567 0 3.6.936 6.336 2.736 8.64 2.016 2.088 4.68 3.024 8.062 3.024 2.664 0 5.041-.576 6.984-1.872 1.873-1.296 3.096-3.168 3.744-5.399h-6.191zm-4.537-11.089c-1.295 0-2.375.36-3.168 1.152-.791.792-1.295 1.872-1.295 3.312h9c0-1.44-.432-2.52-1.08-3.312-.793-.792-2.016-1.152-3.457-1.152z"/></g></svg>