<svg height="1660" viewBox="191 71.74 874.004 706.434" width="2500" xmlns="http://www.w3.org/2000/svg"><path d="m193 72c50.58-.03 101.16-.07 151.74-.08.75 0 1.5-.01 2.27-.01 16.26 0 32.52-.01 48.78-.01 7.97 0 15.94-.01 23.91-.01h2.41c25.73-.01 51.46-.02 77.2-.04 26.43-.02 52.87-.03 79.31-.04h13.41c11.84 0 23.68-.01 35.52-.02 11.89-.02 23.78-.02 35.67-.02 6.44 0 12.89 0 19.34-.01 5.89-.01 11.78-.01 17.68 0 2.14 0 4.28 0 6.42-.01 2.89-.01 5.78 0 8.68 0 1.26 0 1.26 0 2.56-.01 3.89.02 5.79.05 9.1 2.26 1.13 1.88 1.13 1.88 2.21 4.21.41.88.83 1.76 1.25 2.67.45.97.89 1.94 1.35 2.93.99 2.1 1.97 4.2 2.96 6.3.52 1.12 1.05 2.24 1.58 3.39 2.55 5.41 5.15 10.78 7.76 16.16 1.49 3.08 2.98 6.16 4.46 9.24.29.6.59 1.2.88 1.82a4347.05 4347.05 0 0 1 17.1 35.82c3.02 6.39 6.08 12.77 9.26 19.08 3.29 6.53 6.47 13.1 9.63 19.69 4.9 10.25 9.84 20.47 14.81 30.69.73 1.49 1.45 2.98 2.18 4.48 1.09 2.25 2.19 4.51 3.29 6.77 25.12 51.66 25.12 51.66 33.35 69.31.56 1.18.56 1.18 1.12 2.38.42.89.42.89.84 1.8 2.15 4.57 4.36 9.09 6.63 13.59 4.57 9.11 9.06 18.26 13.53 27.42.61 1.27.61 1.27 1.24 2.56 5.92 12.13 11.7 24.31 17.34 36.57 3.01 6.52 6.09 12.98 9.35 19.38 3.13 6.17 6.08 12.42 9.03 18.68 2.49 5.28 5.06 10.5 7.67 15.71 4.07 8.11 8.04 16.25 11.99 24.41.7 1.45 1.4 2.9 2.1 4.34 6.55 13.53 13.07 27.07 19.48 40.67 3.41 7.22 6.83 14.43 10.42 21.55 7.07 14.02 13.79 28.22 20.44 42.44 4.37 9.34 9 18.54 13.68 27.73 4.31 8.49 8.35 17.09 12.22 25.79 2.67 5.98 5.53 11.85 8.48 17.7 4.94 9.83 9.78 19.71 14.62 29.6.51 1.03 1.02 2.07 1.54 3.14 6.33 12.93 12.58 25.88 18.54 38.99 2.79 6.11 5.68 12.15 8.73 18.14 3.27 6.44 6.35 12.96 9.44 19.5.4.83.79 1.67 1.2 2.54.39.81.77 1.62 1.16 2.45 1.11 2.29 2.27 4.54 3.44 6.8 1.7 3.56 1.7 3.56 1.7 6.56-19.47.19-38.94.33-58.41.41-9.04.05-18.09.1-27.13.19-7.88.08-15.75.13-23.63.15-4.18.01-8.35.04-12.52.1-3.93.05-7.86.07-11.78.05-1.45.01-2.89.02-4.33.05-10.89.22-10.89.22-14.14-2.69-1.3-2.06-2.21-3.98-3.06-6.26-.52-.94-1.04-1.89-1.58-2.86-.41-.81-.81-1.62-1.23-2.45-.42-.82-.84-1.64-1.27-2.49-.92-2.2-.92-2.2-.92-5.2h-2c-.19-1.45-.19-1.45-.38-2.94-.2-1.01-.41-2.02-.62-3.06l-2-1c-.91-1.56-.91-1.56-1.85-3.59-.53-1.13-.53-1.13-1.07-2.29-.38-.82-.75-1.65-1.14-2.5-.81-1.74-1.62-3.48-2.44-5.22-.41-.9-.83-1.79-1.25-2.72-1.93-4.15-3.91-8.29-5.87-12.43-3.17-6.68-6.3-13.37-9.42-20.07a762.64 762.64 0 0 0 -4.77-10.01c-.49-1.03-.99-2.06-1.5-3.12-.98-2.03-1.97-4.07-2.96-6.11-1.85-3.83-3.59-7.52-4.93-11.56-.54-2.55-.54-2.55-2.8-3.38-1.37-2.46-2.64-4.91-3.88-7.44-.36-.73-.72-1.46-1.09-2.22-1.83-3.73-3.55-7.46-5.03-11.34-1.9-4.99-4.3-9.7-6.71-14.46-3.95-7.79-7.66-15.69-11.36-23.6-.65-1.35-1.33-2.68-2.05-4-.88-1.94-.88-1.94-.88-4.94h-2c-.27-.67-.54-1.34-.81-2.03-6.49-15.89-14.15-31.28-22.03-46.53-.55-1.07-1.09-2.15-1.66-3.25-.48-.94-.97-1.87-1.47-2.83-1.03-2.36-1.03-2.36-1.03-5.36h-2v-2h-350c-15.95 32.56-15.95 32.56-31.37 65.33-2.38 5.16-4.88 10.24-7.47 15.3-3.56 7.04-6.84 14.21-10.16 21.37-4.14 8.93-8.35 17.79-12.81 26.56-3.54 7.07-6.8 14.28-10.13 21.46-3.56 7.67-7.16 15.31-11.01 22.85-3.67 7.23-7.01 14.63-10.41 21.99-3.51 7.61-7.07 15.18-10.88 22.65a298.87 298.87 0 0 0 -4.95 10.19c-.37.79-.73 1.58-1.11 2.39-.7 1.53-1.4 3.06-2.09 4.59-2.39 5.21-2.39 5.21-4.61 6.32-1.33.09-2.67.12-4 .12h-2.53c-.92 0-1.84 0-2.78-.01h-2.93c-3.21 0-6.41 0-9.61-.01-2.22 0-4.44-.01-6.65-.01-5.84 0-11.69-.01-17.53-.02-5.96-.01-11.92-.02-17.88-.02-11.69-.01-23.39-.03-35.09-.05.61-4.97 1.54-8.61 4-13h2c.12-.73.25-1.45.38-2.2 1.03-4.62 3.11-8.76 5.06-13.05.61-1.38.61-1.38 1.23-2.8.6-1.31.6-1.31 1.2-2.65.36-.8.72-1.6 1.09-2.43 1.04-1.87 1.04-1.87 3.04-2.87.37-1.2.74-2.39 1.12-3.62 1.66-5.32 4.23-9.97 6.89-14.84 2.59-4.75 4.89-9.55 6.99-14.54h2c.11-.7.23-1.39.35-2.11.73-3.22 1.82-6.09 3.09-9.14.43-1.06.86-2.11 1.31-3.2 1.25-2.55 1.25-2.55 3.25-3.55.37-1.2.74-2.39 1.12-3.62 1.36-4.32 3.27-8.18 5.44-12.13 3.37-6.13 6.46-12.36 9.44-18.69 3.03-6.43 6.1-12.84 9.31-19.18 3.06-6.06 5.95-12.17 8.69-18.38h2c.14-1.26.14-1.26.28-2.54.83-3.98 2.41-7.26 4.28-10.84.73-1.42 1.46-2.85 2.19-4.27.56-1.09.56-1.09 1.14-2.19 1.73-3.36 3.42-6.72 5.11-10.1.33-.65.65-1.29.99-1.96 2.89-5.78 5.63-11.63 8.31-17.52 1.61-3.5 3.31-6.56 5.7-9.58.35-1.33.69-2.66 1-4l2-2c.14-.57.27-1.14.41-1.73.82-3.17 2.38-5.72 3.97-8.58 3.65-6.71 7.02-13.54 10.31-20.44.67-1.42.67-1.42 1.36-2.86 3.06-6.43 6.02-12.9 8.95-19.39h2l1-6h2c.12-.72.24-1.44.36-2.18.65-2.88 1.6-5.29 2.82-7.98.43-.96.87-1.92 1.32-2.9.68-1.49.68-1.49 1.38-3 .44-1 .89-1.99 1.35-3.01 1.98-4.34 3.9-8.12 6.77-11.93l1-3c.84-1.9 1.7-3.8 2.56-5.69.69-1.49.69-1.49 1.38-3.01l1.06-2.3h2c.08-.64.16-1.28.24-1.95 1.06-4.26 2.96-7.99 4.88-11.93.83-1.71 1.66-3.42 2.48-5.14.41-.84.82-1.69 1.24-2.56 1.31-2.74 2.58-5.49 3.84-8.25 4.53-9.9 9.27-20.1 15.32-29.17.13-.57.27-1.14.4-1.73.9-3.4 2.57-6.41 4.16-9.52l2.19-4.32c.37-.74.75-1.47 1.13-2.23 1.74-3.42 3.46-6.84 5.18-10.26.33-.65.65-1.3.99-1.97 3.46-6.93 6.72-13.94 9.95-20.97h2c.11-.71.23-1.42.35-2.16.7-3.04 1.76-5.5 3.13-8.3.75-1.57.75-1.57 1.52-3.16.54-1.09 1.07-2.19 1.62-3.32s1.1-2.26 1.66-3.42c3.29-6.76 6.63-13.49 10.02-20.2 2.1-4.25 4.12-8.53 6.14-12.82 4.36-9.26 8.92-18.42 13.54-27.56 4.35-8.61 8.56-17.27 12.66-25.99 2.69-5.71 5.48-11.35 8.33-16.98 1.88-3.73 3.7-7.49 5.46-11.27.41-.88.81-1.75 1.23-2.65.8-1.71 1.59-3.42 2.37-5.14.36-.77.72-1.54 1.09-2.34.31-.69.63-1.38.95-2.09.93-1.6.93-1.6 2.93-2.6.8-1.98.8-1.98 1.44-4.31 1.08-3.47 2.25-5.86 4.56-8.69.21-.88.21-.88.43-1.78.7-2.71 1.85-4.98 3.13-7.47.46-.89.91-1.78 1.38-2.7.35-.68.7-1.35 1.06-2.05h2c.12-.97.25-1.94.38-2.94.3-1.51.3-1.51.62-3.06l2-1h-345zm435 86c-4.42 8.73-8.76 17.48-12.86 26.36-2.2 4.75-4.54 9.43-6.89 14.11-4.23 8.42-8.26 16.93-12.25 25.47-.67 1.42-1.33 2.84-2 4.26-1.33 2.83-2.66 5.66-3.98 8.5-.33.7-.66 1.4-1 2.13-.7 1.48-1.39 2.97-2.09 4.45-1.07 2.28-2.13 4.55-3.2 6.83-.32.68-.64 1.36-.97 2.07-2.08 4.43-4.24 8.82-6.45 13.2-8.74 17.37-17.04 34.95-25.14 52.63-2.89 6.28-5.88 12.5-9.02 18.66-3.39 6.69-6.51 13.52-9.65 20.33-6.98 15.13-6.98 15.13-10.44 21.94-3.71 7.31-7.3 14.68-10.87 22.06-.3.62-.61 1.25-.92 1.89a1295.2 1295.2 0 0 0 -13.55 29.02c-3 6.6-6.17 13.08-9.58 19.48-1.41 2.75-1.41 2.75-1.14 6.61h282c-.78-3.89-1.25-5.84-3-9.12-2.56-4.98-4.99-10.01-7.38-15.07-.39-.82-.78-1.65-1.18-2.5-2.91-6.16-5.79-12.33-8.67-18.51-3.23-6.94-6.5-13.87-9.77-20.8h-2c-.07-.81-.15-1.63-.22-2.47-1-4.51-2.97-8.03-5.22-12.03-2.64-4.76-5.04-9.24-6.56-14.5h-2c-.09-.83-.18-1.66-.28-2.51-.86-4.17-2.42-7.56-4.28-11.37-.36-.73-.71-1.47-1.08-2.23-3.37-7-6.85-13.95-10.35-20.88-3.92-7.78-7.76-15.59-11.51-23.45-.46-.96-.92-1.92-1.39-2.91a921.3 921.3 0 0 1 -9.11-19.65h-2c-.12-1.21-.12-1.21-.25-2.45-.96-4.52-2.79-8.29-4.81-12.43-.38-.78-.76-1.56-1.15-2.37-.92-1.92-1.85-3.84-2.79-5.75h-2c-.12-.88-.23-1.76-.35-2.67-.63-3.24-1.55-5.67-2.98-8.63l-1.42-2.96c-.5-1.01-.99-2.02-1.5-3.05-.48-1-.96-1.99-1.45-3.02-2.59-5.34-5.29-10.58-8.26-15.73-1.36-2.53-2.28-5.14-3.23-7.84-1.26-3.26-2.9-6.32-4.53-9.41-1.66-3.49-2.96-7.06-4.28-10.69-3.05-8.32-6.13-16.55-9.9-24.58-1.55-3.41-2.83-6.89-4.1-10.42zm-97 7 1 2zm-7 14 1 2zm-18 37 1 2zm-4 8 1 2zm-25 51 1 2zm-7 14 1 2zm-15 31 1 2zm-3 6 1 2zm-8 16 1 2zm-25 51 1 2zm-4 8 1 2zm-3 6 1 2zm-11 23 1 2zm-3 6 1 2zm-15 30 1 2zm-18 37 1 2zm-19 39 1 2zm-10 20 1 2zm-15 31 1 2zm-4 8 1 2zm-4 8 1 2zm-25 51 1 2zm-3 6 1 2zm-4 8 1 2zm-18 37 1 2zm-10 20 1 2zm-19 39 1 2z" fill="#99976c"/><path d="m640.623 148.694c1.13-.02 2.26-.03 3.42-.05 1.21 0 2.43-.01 3.68-.01 1.87-.02 1.87-.02 3.78-.03 2.65-.02 5.29-.03 7.93-.03 3.39 0 6.77-.04 10.15-.09 3.23-.03 6.47-.04 9.7-.04l3.68-.06c8.36.04 8.36.04 11.68 2.85.67 1.37.67 1.37 1.36 2.77.43.77.86 1.54 1.3 2.34.57 1.21.57 1.21 1.15 2.45.45.95.89 1.89 1.35 2.86.72 1.53.72 1.53 1.45 3.1 1.06 2.25 2.13 4.5 3.2 6.75.28.6.56 1.2.85 1.81 3.19 6.75 6.46 13.47 9.72 20.18 4.84 9.95 9.66 19.9 14.41 29.88 4.99 10.46 10.05 20.88 15.12 31.3 5 10.28 9.98 20.58 14.92 30.9 4.15 8.65 8.33 17.29 12.53 25.93 5.16 10.64 10.31 21.29 15.42 31.97 4.16 8.69 8.37 17.36 12.58 26.03 5.16 10.64 10.31 21.29 15.42 31.97 4.51 9.4 9.06 18.79 13.62 28.17 4.32 8.9 8.62 17.81 12.89 26.73 5.21 10.87 10.48 21.71 15.75 32.55 4.73 9.72 9.43 19.46 14.08 29.22 4.18 8.77 8.43 17.5 12.67 26.23 5.38 11.05 10.73 22.11 16.04 33.2 4.15 8.65 8.33 17.29 12.53 25.93 5.21 10.74 10.41 21.49 15.57 32.26 3.71 7.75 7.44 15.5 11.18 23.24.29.59.57 1.19.87 1.81 3.47 7.19 6.95 14.37 10.44 21.55.34.7.68 1.41 1.03 2.13 1.37 2.84 2.75 5.68 4.13 8.51 4.52 9.32 9.02 18.66 13.47 28.01 2.84 5.94 5.7 11.87 8.58 17.79.38.78.76 1.55 1.15 2.35 1.88 3.87 3.77 7.74 5.65 11.61 3.76 7.69 7.45 15.41 10.93 23.24-1.96 1.95-5.71 1.2-8.38 1.24-.77.01-1.55.02-2.34.04-8.09.12-16.18.18-24.26.23-3.84.03-7.68.08-11.52.14-4.63.09-9.26.13-13.89.14-1.77.02-3.53.04-5.3.08-13.85.3-13.85.3-17.48-2.61-1.32-2.08-2.11-3.91-2.83-6.26-.53-.95-1.05-1.89-1.59-2.87-.6-1.21-.6-1.21-1.23-2.45-.41-.82-.83-1.64-1.27-2.48-.91-2.2-.91-2.2-.91-5.2h-2c-.13-.97-.25-1.94-.38-2.94-.2-1.01-.41-2.02-.62-3.06l-2-1c-.91-1.56-.91-1.56-1.85-3.59-.35-.76-.71-1.51-1.07-2.29-.38-.83-.76-1.65-1.15-2.5-.81-1.74-1.62-3.48-2.43-5.23-.41-.89-.83-1.79-1.26-2.71-1.93-4.16-3.9-8.29-5.87-12.43-3.17-6.68-6.29-13.37-9.41-20.08-1.56-3.35-3.17-6.68-4.77-10.01-.5-1.02-.99-2.05-1.5-3.11-.99-2.04-1.97-4.08-2.96-6.11-1.85-3.83-3.59-7.52-4.93-11.56-.55-2.55-.55-2.55-2.8-3.38-1.37-2.46-2.65-4.91-3.88-7.44-.36-.73-.72-1.47-1.1-2.22-1.82-3.73-3.54-7.46-5.02-11.34-1.9-4.99-4.3-9.71-6.72-14.46-3.94-7.79-7.65-15.69-11.36-23.6-.64-1.35-1.33-2.69-2.04-4.01-.88-1.93-.88-1.93-.88-4.93h-2c-.27-.67-.54-1.34-.82-2.03-6.48-15.9-14.15-31.29-22.02-46.54-.55-1.07-1.1-2.14-1.66-3.25-.49-.93-.97-1.87-1.47-2.83-1.03-2.35-1.03-2.35-1.03-5.35h-2v-2h-350c-1.29-3.85-.49-4.66 1.29-8.22.78-1.6.78-1.6 1.58-3.22.58-1.16 1.16-2.31 1.75-3.5 1.21-2.46 2.42-4.92 3.62-7.38.31-.63.63-1.26.95-1.91 3.28-6.69 6.39-13.45 9.49-20.21 3.9-8.45 7.86-16.86 12-25.19.41-.83.82-1.66 1.25-2.51.37-.75.75-1.5 1.14-2.28.33-.65.65-1.3.99-1.96.94-1.62.94-1.62 2.94-3.62l3 1c1.58.09 3.16.13 4.74.14.98 0 1.96.01 2.97.01h3.28l3.47.02 9.56.03 10.3.03 17.85.06c8.6.02 17.21.05 25.81.08 13.96.05 27.91.09 41.87.13l40.68.12c1.26.01 1.26.01 2.53.01 4.2.02 8.39.03 12.58.04 34.79.12 69.57.22 104.36.33-.28-.55-.56-1.1-.84-1.67-.37-.72-.73-1.44-1.1-2.19-.36-.71-.72-1.43-1.1-2.16-1.02-2.1-1.86-4.22-2.65-6.42-1.89-4.86-4.28-9.36-6.75-13.94-3.1-5.73-5.84-11.43-8.23-17.5-2.01-4.71-4.37-9.25-6.74-13.78-2.59-5.03-2.59-5.03-2.59-8.34h-2c-.67-1.63-1.34-3.25-2-4.88-.37-.9-.75-1.81-1.13-2.74-.87-2.38-.87-2.38-.87-4.38l-2-1c-1.11-2.09-2.14-4.23-3.13-6.38-.81-1.74-.81-1.74-1.63-3.52-1.24-3.1-1.24-3.1-1.24-6.1h-2c-.28-.69-.56-1.39-.84-2.1-3.75-9.21-8.07-18.1-12.46-27.02-.94-1.92-1.88-3.84-2.82-5.77-.83-1.69-.83-1.69-1.68-3.41-1.2-2.7-1.2-2.7-1.2-4.7l-2-1c-.79-1.73-.79-1.73-1.63-4.07-1.83-4.78-3.99-9.31-6.31-13.87-9.06-17.89-9.06-17.89-9.06-21.06h-2c-.32-.78-.63-1.55-.96-2.35-1.98-4.82-3.94-9.59-6.36-14.22-1.68-3.43-1.68-3.43-1.68-6.43h-2c-.2-.54-.39-1.08-.6-1.63-2.49-6.54-5.52-12.73-8.76-18.93-2.64-5.13-2.64-5.13-2.64-8.44l-2-1c-2.67-4.33-4.45-9.08-6.14-13.86-1.37-3.41-3.13-6.61-4.87-9.85-.99-2.29-.99-2.29-.99-6.29l-2-1c-.75-1.82-.75-1.82-1.44-4.13-.94-3.01-1.95-5.88-3.25-8.75-1.31-3.12-1.31-3.12-1.31-6.12l-2-1c-1.59-3.23-2.75-6.64-4-10-.34-.81-.68-1.62-1.03-2.46-1.58-3.99-2.21-5.77-.91-9.98 3.28-4.33 6.27-4.81 11.56-4.87z" fill="#858561"/><path d="m669.914 71.855c1.19-.01 2.38-.01 3.61-.02h3.89c1.31-.01 2.63-.01 3.99-.01 2.79-.01 5.58-.01 8.37-.01 3.57 0 7.14-.01 10.72-.03 3.41-.01 6.82-.01 10.23-.02 1.28 0 2.57-.01 3.89-.02 1.78.01 1.78.01 3.6.01h3.17c2.62.25 2.62.25 5.62 2.25 1.12 1.87 1.12 1.87 2.2 4.2.42.88.83 1.77 1.26 2.67l1.35 2.94c.98 2.1 1.97 4.2 2.96 6.3.52 1.12 1.04 2.24 1.58 3.39 2.54 5.4 5.15 10.78 7.75 16.15l4.47 9.24c.29.61.58 1.21.88 1.83 5.75 11.91 11.46 23.84 17.1 35.81 3.02 6.4 6.07 12.77 9.26 19.09 3.29 6.52 6.47 13.1 9.62 19.69 4.91 10.24 9.85 20.47 14.82 30.69.72 1.49 1.45 2.98 2.17 4.47 1.1 2.26 2.2 4.51 3.29 6.77 25.12 51.67 25.12 51.67 33.36 69.32.37.78.73 1.57 1.11 2.37.28.6.56 1.19.85 1.81 2.14 4.56 4.36 9.08 6.63 13.59 4.57 9.11 9.06 18.25 13.52 27.42.41.84.83 1.68 1.25 2.55 5.92 12.13 11.7 24.32 17.34 36.58 3 6.52 6.09 12.98 9.34 19.38 3.13 6.17 6.09 12.42 9.03 18.68 2.49 5.27 5.06 10.5 7.68 15.71 4.07 8.1 8.04 16.25 11.99 24.41.7 1.44 1.4 2.89 2.1 4.34 6.55 13.53 13.07 27.07 19.48 40.66 3.4 7.22 6.82 14.43 10.42 21.56 7.07 14.02 13.79 28.22 20.44 42.44 4.37 9.33 8.99 18.54 13.68 27.72 4.31 8.5 8.35 17.09 12.21 25.8 2.68 5.98 5.54 11.85 8.48 17.69 4.95 9.83 9.78 19.72 14.63 29.6.76 1.55.76 1.55 1.53 3.14 6.34 12.93 12.58 25.89 18.55 38.99 2.78 6.12 5.68 12.15 8.72 18.14 3.27 6.44 6.36 12.97 9.45 19.5.39.84.79 1.68 1.2 2.54.38.81.76 1.62 1.16 2.46 1.1 2.28 2.26 4.54 3.43 6.79 1.71 3.57 1.71 3.57 1.71 6.57-8.8.11-17.6.2-26.4.25-4.08.03-8.17.07-12.25.12-3.94.06-7.88.09-11.83.1-1.5.01-3 .03-4.51.05-2.11.04-4.21.05-6.32.04l-3.63.04c-3.06-.6-3.06-.6-5.4-2.99-1.55-2.43-2.9-4.8-4.12-7.41-.44-.94-.89-1.88-1.35-2.85-.48-1.03-.95-2.05-1.44-3.1-1.07-2.27-2.14-4.53-3.22-6.79-.28-.59-.56-1.19-.85-1.81-3.13-6.62-6.34-13.22-9.54-19.81-1.71-3.52-3.42-7.03-5.12-10.55-.34-.69-.68-1.39-1.02-2.1-3.43-7.06-6.84-14.13-10.25-21.19l-.88-1.82c-3.91-8.1-7.8-16.2-11.69-24.31-5.24-10.95-10.55-21.87-15.86-32.8-4.76-9.77-9.48-19.55-14.15-29.36-4-8.38-8.06-16.74-12.11-25.09-4.71-9.7-9.41-19.4-14.06-29.12-4.6-9.6-9.23-19.18-13.88-28.75-5.13-10.58-10.26-21.17-15.37-31.75-.44-.9-.44-.9-.88-1.82-3.91-8.1-7.8-16.2-11.69-24.31-5.22-10.91-10.51-21.78-15.8-32.66-4.98-10.25-9.94-20.51-14.86-30.79-4.14-8.65-8.33-17.29-12.52-25.92-5.17-10.65-10.32-21.3-15.43-31.97-4.16-8.69-8.37-17.37-12.57-26.03-5.17-10.65-10.32-21.3-15.43-31.97-4.51-9.41-9.06-18.8-13.62-28.18-4.32-8.9-8.62-17.81-12.89-26.73-4.84-10.1-9.73-20.18-14.63-30.25-6.53-13.43-13.03-26.88-19.43-40.37-.32-.67-.63-1.33-.96-2.01-2.63-5.53-5.09-11.04-7.17-16.81-3.22-8.58-7.53-16.64-11.66-24.81-3.16-6.23-6.2-12.51-9.21-18.81-.45-.93-.89-1.86-1.35-2.81-1.23-2.58-2.44-5.17-3.65-7.75-.4-.83-.79-1.66-1.2-2.51-.37-.78-.73-1.57-1.11-2.38-.32-.69-.65-1.37-.98-2.08-1.18-3.36-.84-6.51-.71-10.03l-2-2c3.35-1.01 6.41-1.14 9.91-1.15z" fill="#a6a577"/><path d="m191 75h1v70h-1z" fill="#99976c"/></svg>