<svg xmlns="http://www.w3.org/2000/svg" width="2500" height="700" viewBox="0 0 49.999 14.009"><path d="M7.132 13.538c-.125.149-.279.231-.433.231a.343.343 0 0 1-.356-.363.37.37 0 0 1 .075-.231.835.835 0 0 1 .254-.207l.46.57zm.132-1.217a.4.4 0 0 0-.127-.311.49.49 0 0 0-.343-.115.475.475 0 0 0-.34.126.425.425 0 0 0-.132.322c0 .075.017.148.051.221.034.072.09.151.168.239a1.18 1.18 0 0 0-.354.288.545.545 0 0 0-.105.332c0 .168.054.307.163.416s.25.164.424.164a.75.75 0 0 0 .601-.287l.183.238h.33l-.365-.451c.1-.165.151-.339.152-.524h-.24a.8.8 0 0 1-.071.324l-.361-.452c.25-.15.366-.315.366-.53zm-.703.014c0-.146.094-.239.244-.239.067 0 .121.022.163.066a.243.243 0 0 1 .062.173c0 .144-.083.261-.264.374-.146-.157-.205-.264-.205-.374zM22.028 2.083h8.518l-.013.011v.7l-6.933.001a2.154 2.154 0 0 1-.896 1.659l-.035.028c-.418.251-.638.422-1.377.426-.722-.015-1.447-.384-1.824-.942-.131-.165-.174-.324-.174-.324-.349-.753-.349-1.75.028-2.482.467-.81 1.465-1.308 2.427-1.12a2.315 2.315 0 0 1 1.493.956c.077.111.146.229.175.362-.244.104-.482.23-.733.328h-.028c-.17-.446-.616-.823-1.083-.886-.509-.07-1.046.122-1.346.533-.37.53-.405 1.231-.209 1.838.216.475.6.903 1.29.952.652-.031.928-.269 1.207-.638.119-.209.207-.692.207-.692l-.688-.001v-.677l-.006-.032"/><path d="M26.894 4.267V3.222l.021.005h.719v.736h.61l.003-.736h.914v.736h.627v-.732h.747v1.03h-1.697c-.005-.064.009-.307.001-.369h-.309v.367l-1.636.008M34.735 6.578c-.291.737-.568 1.463-.859 2.2l-.021.007c-.24-.755-.486-1.475-.733-2.216l-1.436-.009-.042.015c-.255.73-.511 1.461-.76 2.199h-.014c-.303-.728-.542-1.476-.823-2.21l-.011-.003-1.731-.011 1.535 4.184.075.168 1.548.007.036-.021c.078-.209.191-.546.248-.755l.448-1.33c.094-.248.079-.225.205-.501l.007.007.654 2.005.212.605 1.44.012c.298-.73.651-1.627.928-2.357l.021-.039c.241-.668.518-1.287.766-1.948l-1.693-.009M4.415 9.881c-.496.122-1.013.217-1.542.144-.433-.044-.87-.36-1-.786-.178-.511-.049-1.089.336-1.436l.035-.027c.504-.367 1.334-.334 1.869-.037.16.105.264.245.347.393l1.817.015c.058-.32-.202-.633-.417-.851l-.229-.176C4.63 6.493 3.25 6.401 2.07 6.672c-.377.103-.762.212-1.07.441-.14.055-.259.18-.378.27A1.957 1.957 0 0 0 .1 9.353l.021.014-.014.014c.124.293.275.622.532.833l-.007.007c.111.098.243.231.389.288.139.119.306.169.466.24 1.553.505 3.347.194 4.835-.257l.046-.08.014-1.761-2.399-.014-.362-.006c-.01.307-.008.411-.008.914.342.016.581-.005.902.011 0 0 .057.291-.1.325M48.523 9.828c.276.441.906.27 1.332.209l-.002.61c-.35.187-.797.205-1.174.237a2.931 2.931 0 0 1-1.185-.154c-.236-.106-.5-.31-.554-.582-.046-.51-.008-1.088-.025-1.598l-.028-.021-.582-.003.006-.073.004-.57c.445.052.891-.118 1.138-.479.077-.146.162-.299.212-.459l.049-.027h.816l-.005.897 1.348.007-.004.722c-.468.005-.904-.015-1.337-.01l-.009 1.294M22.775 7.301c.042-.091.07-.195.134-.265.029-.141.098-.118.189-.117l.722.005c.012.285-.021.605-.016.885l1.346.009c-.001.258.005.46-.004.711l-1.333-.011c-.009.425-.012.882-.008 1.314.042.133.174.196.285.246.383.072.711.024 1.082-.036l.003.607c-.035.007-.056.042-.091.027l-.014.028c-.712.204-1.598.29-2.323.027-.236-.106-.5-.289-.568-.555-.039-.565.014-1.116-.011-1.646-.174-.021-.363-.009-.559-.01.003-.384.007-.391.001-.628.481.03.925-.134 1.15-.565l.015-.026M46.098 9.801c-.017.46-.444.764-.835.908-.832.267-1.836.254-2.714.096-.313-.107-.647-.234-.869-.494-.09-.119-.173-.265-.165-.418l1.75.006a.48.48 0 0 0 .432.327c.216-.013.474.059.594-.164.015-.084.028-.153-.02-.224-.125-.153-.327-.142-.501-.185-.62-.087-1.311-.015-1.832-.346-.229-.169-.381-.456-.323-.748.311-.724 1.1-.789 1.784-.868.795-.017 1.66-.046 2.292.412l.193.238a.672.672 0 0 1 .054.372l-1.618-.012a.45.45 0 0 0-.228-.309c-.153-.099-.404-.087-.572-.018-.077.041-.091.125-.113.201.054.266.354.254.556.317l.077-.006c.634.102 1.354.001 1.846.437.104.133.199.232.211.451l.001.027M7.029 10.758c.579-.003.798.014 1.607.016.027-.365.014-.834.064-1.319.036-.279.233-.571.513-.639.307-.089.651-.099.971-.076l.008-.926-.163-.074c-.488-.067-.886.12-1.279.334-.076-.071-.075-.204-.145-.269L7.05 7.794l-.018 2.921-.003.043M40.639 8.157c.403.344.685.876.501 1.405l-.051.064c-1.506-.014-2.029-.013-3.242-.016-.062.062.006.154.006.23.027.063.076.119.097.168a.874.874 0 0 0 .682.318c.293.008.536-.217.663-.453l1.773.015c-.198.473-.694.7-1.121.879a3.783 3.783 0 0 1-.838.184c-.028-.021-.056.006-.077.013-.851.058-1.736-.024-2.424-.468-.257-.204-.486-.457-.595-.778-.123-.439-.029-.962.28-1.31.555-.582 1.357-.71 2.146-.768.809-.015 1.561.115 2.2.517zm-2.079.147c-.335.012-.602.269-.715.567l.014.015c.495.003.645.002 1.48.005.007-.062-.036-.129-.049-.191-.173-.246-.43-.422-.73-.396M12.235 10.906c-.446-.059-.878-.18-1.26-.412-.465-.331-.728-.891-.612-1.462.145-.794.998-1.131 1.682-1.279.957-.169 2.037-.072 2.864.372.458.331.763.855.612 1.427-.028.028-.042.069-.108.08l-3.101-.022c-.052.017-.236-.058-.188.097a.91.91 0 0 0 .38.525c.299.141.711.144.956-.105.078-.091.166-.178.208-.281l1.776.012c-.212.445-.676.737-1.129.874-.623.206-1.313.257-2.003.184l-.077-.01zm.901-2.597a.832.832 0 0 0-.762.219c-.091.104-.189.215-.197.354l1.464.009.063-.02c-.028-.057-.034-.119-.062-.176-.124-.16-.297-.343-.506-.386M25.841 9.459l-.003-.765 2.173.013-.004.758-2.166-.006M18.951 7.591c.648.061 1.415.093 1.732.743.117.259.045.579.078.852.048.266-.108.571.121.761.16.183.417.178.662.179 0 .076.018.37.003.551-.084.069-.217.041-.308.082-.566.15-1.284.223-1.792-.095a.312.312 0 0 0-.327-.044c-.727.247-1.586.443-2.394.236a1.24 1.24 0 0 1-.729-.534l-.014-.042c-.132-.203-.102-.489.032-.69.71-.86 1.99-.322 2.893-.791.092-.056.183-.153.183-.272-.152-.252-.494-.247-.772-.249-.607.024-1.146.203-1.67.416l-.415-.638c.524-.227 1.097-.328 1.684-.408.34-.085 1.033-.057 1.033-.057zm-.145 1.897c-.335.089-.815-.019-1.027.329-.036.062-.015.118-.001.188.075.188.271.203.438.219.342-.054.733-.114.888-.47.022-.076.029-.152-.019-.223-.076-.07-.181-.015-.279-.043M0 11.949h.278v1.75h1.041v.256H0v-2.006zM1.518 13.955h.272v-2.006h-.272v2.006zM2.215 11.949h1.411v.251H2.493v.605h.989v.245h-.989v.904h-.278v-2.005zM3.864 11.949h1.49v.251H4.136v.6h1.123v.234H4.136v.67h1.242v.251H3.864v-2.006zM9.406 13.121h-.675l.34-.901.335.901zm-1.276.834h.287l.229-.6h.843l.22.6h.301l-.785-2.006H8.92l-.79 2.006zM10.164 11.949h.297l.935 1.457c.047.073.072.122.092.169v-1.626h.262v2.006h-.294L10.5 12.48a.847.847 0 0 1-.075-.151v1.626h-.261v-2.006zM12.123 11.949h.297l.935 1.457c.047.074.072.122.092.169v-1.626h.262v2.006h-.295l-.955-1.475a.787.787 0 0 1-.074-.151v1.626h-.262v-2.006zM13.908 11.949h.272v1.247c0 .379.167.552.526.552.354 0 .526-.179.526-.552v-1.247h.272v1.244c0 .535-.285.816-.829.816-.513 0-.768-.271-.768-.816v-1.244zM15.793 11.949h.272v2.006h-.272v-2.006zM16.234 11.949h1.651v.246h-.687v1.76h-.278v-1.76h-.687v-.246z"/><path d="M17.849 11.949h.329l.621.969.611-.969h.319l-.79 1.187v.819h-.277v-.798l-.813-1.208zM20.581 11.949h.272v2.006h-.272v-2.006zM21.267 11.949h.298l.935 1.457c.047.074.072.122.092.169v-1.626h.262v2.006h-.295l-.955-1.475a.85.85 0 0 1-.074-.151v1.626h-.262v-2.006zM24.681 12.538h-.262a.415.415 0 0 0-.139-.31.53.53 0 0 0-.353-.11.562.562 0 0 0-.339.09.285.285 0 0 0-.123.244c0 .148.176.263.528.342l.104.021c.258.061.43.131.515.213s.127.197.127.347c0 .193-.07.348-.212.462-.143.115-.335.173-.579.173-.249 0-.444-.062-.583-.187s-.215-.302-.227-.533h.262c.003.148.054.265.153.351s.234.129.405.129a.623.623 0 0 0 .372-.1.316.316 0 0 0 .138-.27c0-.149-.168-.262-.505-.338l-.133-.032c-.241-.057-.405-.126-.494-.206a.432.432 0 0 1-.132-.335.53.53 0 0 1 .201-.432c.135-.108.314-.162.538-.162.228 0 .406.057.538.171a.598.598 0 0 1 .2.472zM24.915 11.949h.272v1.247c0 .379.168.552.526.552.355 0 .526-.179.526-.552v-1.247h.272v1.244c0 .534-.285.816-.829.816-.513 0-.768-.272-.768-.816v-1.244zM27.586 12.189c.328 0 .465.097.465.322 0 .126-.04.217-.119.271-.08.056-.214.083-.401.083h-.525v-.676h.58zm-.853 1.766h.272V13.1h.555c.178 0 .294.02.35.059.055.04.088.127.098.262l.021.26v.008c.01.135.029.225.058.268h.319v-.059c-.063-.03-.092-.097-.101-.23l-.025-.328a.575.575 0 0 0-.067-.265.3.3 0 0 0-.176-.108c.205-.093.297-.24.297-.475a.489.489 0 0 0-.169-.394c-.112-.096-.268-.143-.464-.143a3.372 3.372 0 0 0-.124-.005h-.845v2.005zM29.717 13.121h-.675l.34-.901.335.901zm-1.276.834h.287l.229-.6h.843l.22.6h.301l-.785-2.006h-.304l-.791 2.006zM30.475 11.949h.297l.935 1.457c.046.074.072.122.092.169v-1.626h.261v2.006h-.294l-.955-1.475a.787.787 0 0 1-.074-.151v1.626h-.262v-2.006zM34.05 12.554h-.268c-.051-.265-.251-.414-.559-.414-.208 0-.37.071-.484.213-.114.142-.172.343-.172.602 0 .242.06.438.178.587a.573.573 0 0 0 .469.223.577.577 0 0 0 .414-.153.56.56 0 0 0 .171-.403h.268a.806.806 0 0 1-.252.581.854.854 0 0 1-.607.221c-.282 0-.506-.096-.67-.287-.165-.191-.248-.45-.248-.778 0-.324.084-.58.253-.768.169-.188.4-.281.693-.281.228 0 .414.06.561.179s.231.277.253.478zM34.179 11.949h1.49v.251h-1.218v.6h1.123v.234h-1.123v.67h1.242v.251h-1.515v-2.006zM38.534 12.554h-.268c-.051-.264-.251-.414-.559-.414-.208 0-.37.071-.484.213-.115.142-.172.343-.172.602 0 .242.059.438.178.587a.573.573 0 0 0 .469.223.577.577 0 0 0 .414-.153.56.56 0 0 0 .171-.403h.267a.805.805 0 0 1-.251.581.854.854 0 0 1-.607.221c-.282 0-.506-.096-.67-.287s-.247-.45-.247-.778c0-.324.084-.58.253-.768.169-.188.4-.281.693-.281.227 0 .414.06.561.179a.689.689 0 0 1 .252.478zM40.118 12.351c.118.146.177.346.177.602 0 .257-.059.458-.177.604a.59.59 0 0 1-.487.219c-.208 0-.37-.073-.488-.219s-.177-.347-.177-.604c0-.256.059-.456.176-.602a.596.596 0 0 1 .489-.217c.206 0 .369.073.487.217zm-1.185-.176c-.167.188-.251.446-.251.776 0 .331.084.59.251.776.168.188.4.281.697.281.296 0 .527-.094.695-.281.168-.187.252-.445.252-.776 0-.33-.084-.589-.252-.776-.168-.187-.399-.28-.695-.28-.297 0-.529.094-.697.28zM40.822 11.949h.39s.507 1.557.523 1.61c.008.028.017.06.024.092.014-.055.029-.108.048-.167l.517-1.535h.39v2.006h-.267v-1.711a2.16 2.16 0 0 1-.048.178l-.516 1.533h-.256l-.508-1.533a1.646 1.646 0 0 1-.045-.178v1.711h-.25v-2.006zM43.788 12.195c.159 0 .273.025.341.078s.103.138.103.256c0 .123-.034.211-.103.263-.069.053-.189.079-.361.079h-.5v-.676h.52zm-.793 1.76h.272v-.845h.453c.163 0 .278-.006.344-.019a.505.505 0 0 0 .174-.062.55.55 0 0 0 .271-.5c0-.378-.223-.576-.647-.576a5.256 5.256 0 0 0-.162-.005h-.706v2.007zM45.625 13.121h-.674l.339-.901.335.901zm-1.276.834h.287l.229-.6h.843l.221.6h.301l-.785-2.006h-.305l-.791 2.006zM46.382 11.949h.298l.935 1.457c.047.074.072.122.092.169v-1.626h.262v2.006h-.294l-.955-1.475a.847.847 0 0 1-.075-.151v1.626h-.262v-2.006zM48.119 11.949h.328l.62.969.611-.969h.32l-.79 1.187v.819h-.278v-.798l-.811-1.208z"/></svg>