<svg viewBox="0 0 260.97 82.13" xmlns="http://www.w3.org/2000/svg" width="2500" height="787"><g fill="#f2f2f2" opacity=".9"><path d="M41.3 42.03c-.14-1.04-.48-1.97-1.05-2.8-.82-1.12-2.09-1.68-3.81-1.68-2.45 0-4.13 1.21-5.03 3.64-.48 1.29-.72 3-.72 5.13s.24 3.67.72 4.91c.87 2.31 2.5 3.47 4.9 3.47 1.7 0 2.91-.46 3.63-1.38s1.15-2.11 1.3-3.57h7.42c-.17 2.21-.97 4.3-2.4 6.27-2.28 3.18-5.65 4.77-10.13 4.77s-7.76-1.32-9.87-3.98c-2.11-2.65-3.16-6.09-3.16-10.31 0-4.76 1.16-8.47 3.49-11.12s5.54-3.98 9.64-3.98c3.49 0 6.34.78 8.56 2.34s3.53 4.32 3.94 8.28h-7.44zM67.15 46.34c-.46.29-.93.52-1.41.7-.47.18-1.12.34-1.95.5l-1.65.31c-1.55.27-2.66.6-3.34.99-1.14.66-1.72 1.69-1.72 3.08 0 1.24.35 2.14 1.05 2.69s1.55.83 2.55.83c1.59 0 3.05-.46 4.39-1.38s2.03-2.59 2.08-5.02zm-4.44-3.39c1.35-.17 2.32-.38 2.9-.64 1.04-.44 1.57-1.13 1.57-2.06 0-1.14-.4-1.92-1.2-2.36-.8-.43-1.98-.65-3.53-.65-1.74 0-2.97.43-3.69 1.27-.52.63-.86 1.48-1.03 2.55h-7.01c.15-2.43.84-4.43 2.05-5.99 1.93-2.45 5.24-3.67 9.93-3.67 3.05 0 5.77.6 8.14 1.81s3.56 3.48 3.56 6.83v12.74c0 .88.02 1.95.05 3.21.05.95.2 1.6.43 1.94.24.34.59.62 1.07.84v1.07h-7.9c-.22-.56-.37-1.09-.46-1.58-.08-.49-.15-1.05-.2-1.68a15.047 15.047 0 0 1-3.49 2.78c-1.57.9-3.35 1.35-5.33 1.35-2.53 0-4.62-.72-6.27-2.15-1.65-1.44-2.47-3.47-2.47-6.1 0-3.41 1.33-5.89 3.98-7.42 1.45-.83 3.59-1.43 6.42-1.78l2.49-.31zM101.07 33.66c1.82 1.5 2.73 4 2.73 7.48v18.71h-7.44v-16.9c0-1.46-.19-2.58-.58-3.36-.71-1.43-2.06-2.14-4.05-2.14-2.45 0-4.12 1.04-5.03 3.13-.47 1.1-.71 2.51-.71 4.23v15.04h-7.26V32.12h7.03v4.05c.93-1.43 1.81-2.45 2.64-3.08 1.49-1.12 3.38-1.68 5.66-1.68 2.86 0 5.2.75 7.02 2.26zM123.68 46.34c-.47.29-.93.52-1.41.7-.47.18-1.12.34-1.95.5l-1.65.31c-1.55.27-2.66.6-3.34.99-1.14.66-1.72 1.69-1.72 3.08 0 1.24.35 2.14 1.05 2.69s1.55.83 2.55.83c1.59 0 3.05-.46 4.39-1.38s2.03-2.59 2.08-5.02zm-4.44-3.39c1.35-.17 2.32-.38 2.9-.64 1.04-.44 1.57-1.13 1.57-2.06 0-1.14-.4-1.92-1.2-2.36-.8-.43-1.98-.65-3.53-.65-1.74 0-2.97.43-3.69 1.27-.52.63-.86 1.48-1.03 2.55h-7.01c.15-2.43.84-4.43 2.05-5.99 1.93-2.45 5.24-3.67 9.93-3.67 3.05 0 5.77.6 8.14 1.81s3.56 3.48 3.56 6.83v12.74c0 .88.02 1.95.05 3.21.05.95.2 1.6.43 1.94.24.34.59.62 1.07.84v1.07h-7.9c-.22-.56-.37-1.09-.46-1.58s-.15-1.05-.2-1.68a15.047 15.047 0 0 1-3.49 2.78c-1.57.9-3.35 1.35-5.33 1.35-2.53 0-4.62-.72-6.27-2.15-1.65-1.44-2.47-3.47-2.47-6.1 0-3.41 1.33-5.89 3.98-7.42 1.45-.83 3.59-1.43 6.42-1.78l2.49-.31zM142.61 59.85h-7.26V22.28h7.26zM147.73 22.28h7.85v30.81h18.75v6.76h-26.6zM176.55 22.28h7.98v23.07c0 2.58.3 4.46.91 5.65.95 2.11 3.01 3.16 6.2 3.16s5.22-1.05 6.17-3.16c.61-1.19.91-3.07.91-5.65V22.28h7.98v23.09c0 3.99-.62 7.1-1.86 9.33-2.31 4.08-6.71 6.12-13.2 6.12s-10.91-2.04-13.23-6.12c-1.24-2.23-1.86-5.33-1.86-9.33zM208.86 53.22l19.2-24.29h-18.72v-6.65h28.47v6.3l-19.45 24.64h19.5v6.63h-29z"/><path d="M260.97 0H0v82.13h260.97zm-4.48 4.48v73.17H4.48V4.48z"/></g></svg>