<svg xmlns="http://www.w3.org/2000/svg" width="2500" height="2500" viewBox="0 0 192.756 192.756"><path fill-rule="evenodd" clip-rule="evenodd" fill="#fff" d="M0 0h192.756v192.756H0V0z"/><path d="M96.378 15.855c2.719 0 5.155.688 7.112 1.244 1.365.388 2.656.756 3.578.756h5.355l2.303-.004s-2.236 3.24-3.354 7.751c-.256 1.044-.252 2.844 1.137 4.112 1.043.948 2.717 1.38 4.537.983 2.113-.459 3.242-3.043 3.154-6.615-.072-3.136-.482-5.3-.482-5.3l6.449 2.992c1.533.72 2.77 1.275 3.578 1.616 2.443 1.024 5.322 2.013 8.889 3.184 2.768.904 4.424 1.383 9.057 1.616 3.021.152 9.1.292 12.172.147 1.098-.047 2.514-.136 4.207-.251l15.461-1.06-11.851 10.005s-6.057 5.116-7.26 6.127c-.223 13.548-1.182 69.208-1.785 74.36-.598 5.144-5.732 21.971-20.928 31.479-8.09 5.067-16.588 9.623-21.662 12.343a191.889 191.889 0 0 0-3.791 2.061c-3.828 2.191-15.875 13.499-15.875 13.499s-12.047-11.308-15.877-13.499c-.753-.432-2.096-1.152-3.789-2.061-5.08-2.72-13.573-7.275-21.664-12.343-15.194-9.509-20.329-26.336-20.931-31.479-.604-5.152-1.558-60.812-1.785-74.36l-7.26-6.127-11.848-10.004 15.461 1.06c1.693.116 3.107.204 4.209.251 3.071.144 9.145.005 12.172-.147 4.628-.233 6.289-.712 9.051-1.616 3.57-1.171 6.45-2.16 8.894-3.184.806-.34 2.044-.896 3.573-1.616l6.449-2.992s-.408 2.165-.483 5.3c-.084 3.572 1.041 6.156 3.158 6.615 1.821.397 3.494-.035 4.532-.983 1.394-1.268 1.398-3.068 1.139-4.112-1.119-4.512-3.35-7.751-3.35-7.751l2.299.004h5.359c.918 0 2.208-.368 3.578-.756 1.958-.556 4.393-1.245 7.112-1.245z" fill-rule="evenodd" clip-rule="evenodd" fill="#fff"/><path d="M96.378 15.855c2.719 0 5.155.688 7.112 1.244 1.365.388 2.656.756 3.578.756h5.355l2.303-.004s-2.236 3.24-3.354 7.751c-.256 1.044-.252 2.844 1.137 4.112 1.043.948 2.717 1.38 4.537.983 2.113-.459 3.242-3.043 3.154-6.615-.072-3.136-.482-5.3-.482-5.3l6.449 2.992c1.533.72 2.77 1.276 3.578 1.616 2.443 1.024 5.322 2.013 8.889 3.184 2.768.904 4.424 1.383 9.057 1.616 3.021.152 9.1.292 12.172.147 1.098-.047 2.514-.136 4.207-.251l15.461-1.06-11.851 10.005s-6.057 5.116-7.26 6.127c-.223 13.548-1.182 69.208-1.785 74.36-.598 5.144-5.732 21.971-20.928 31.479-8.09 5.067-16.588 9.623-21.662 12.343a191.889 191.889 0 0 0-3.791 2.061c-3.828 2.191-15.875 13.499-15.875 13.499s-12.047-11.308-15.877-13.499c-.753-.432-2.096-1.152-3.789-2.061-5.08-2.72-13.573-7.275-21.664-12.343-15.194-9.509-20.329-26.336-20.931-31.479-.604-5.152-1.558-60.812-1.786-74.36l-7.26-6.127-11.847-10.004 15.461 1.06c1.693.116 3.107.204 4.209.251 3.071.144 9.145.005 12.172-.147 4.628-.233 6.289-.712 9.051-1.616 3.57-1.171 6.45-2.16 8.894-3.184.806-.34 2.044-.896 3.573-1.616l6.449-2.992s-.408 2.165-.483 5.3c-.084 3.572 1.041 6.156 3.158 6.615 1.821.397 3.494-.035 4.532-.983 1.394-1.268 1.398-3.068 1.139-4.112-1.119-4.512-3.35-7.751-3.35-7.751l2.299.004h5.359c.917 0 2.208-.368 3.578-.756 1.958-.556 4.393-1.245 7.112-1.245" fill="none" stroke="#000" stroke-width="1.136" stroke-linecap="round" stroke-linejoin="round" stroke-miterlimit="2.613"/><path d="M109.74 158.993c.818-.464 2.184-1.2 3.912-2.127 5.02-2.692 13.422-7.197 21.371-12.172 13.736-8.601 18.148-24.089 18.58-27.765.633-5.388 1.77-74.783 1.777-75.482l.012-.677.52-.44 8.502-7.179c-1.453.1-3.016.196-4.316.259-3.227.149-9.537.004-12.662-.152-5.256-.259-7.363-.88-10.371-1.864-3.689-1.204-6.676-2.231-9.279-3.323a107.074 107.074 0 0 1-3.762-1.702c.332 1.477.5 3.097.076 4.27-.775 2.132-3 4.528-6.223 5.063-3.094.52-6.783-.42-8.771-2.232-1.826-1.66-3.023-3.064-3.023-7.224 0-1.304.428-2.416.986-3.32-3.371 0-6.797-1.996-10.69-1.996-3.894 0-7.32 1.996-10.689 1.996.559.904.982 2.016.982 3.32 0 4.16-1.194 5.564-3.019 7.224-1.989 1.812-5.679 2.751-8.773 2.232-3.223-.536-5.447-2.932-6.221-5.063-.427-1.172-.259-2.793.076-4.27a113.453 113.453 0 0 1-3.761 1.702c-2.603 1.091-5.594 2.119-9.28 3.323-3.007.984-5.115 1.605-10.374 1.864-3.123.156-9.432.301-12.658.152-1.302-.063-2.867-.16-4.32-.259l9.02 7.619.013.677c.013.7 1.15 70.095 1.777 75.482.431 3.676 4.844 19.164 18.583 27.765 7.946 4.975 16.348 9.479 21.367 12.172 1.733.927 3.1 1.663 3.918 2.127 5.334 3.057 13.34 11.493 13.34 11.493s8.04-8.436 13.38-11.493z" fill-rule="evenodd" clip-rule="evenodd" fill="#fff"/><path d="M109.74 158.993c.818-.464 2.184-1.2 3.912-2.127 5.02-2.692 13.422-7.197 21.371-12.172 13.736-8.601 18.148-24.089 18.58-27.765.633-5.388 1.77-74.783 1.777-75.482l.012-.677.52-.44 8.502-7.179c-1.453.1-3.016.196-4.316.259-3.227.148-9.537.004-12.662-.152-5.256-.259-7.363-.88-10.371-1.864-3.689-1.204-6.676-2.231-9.279-3.323a107.074 107.074 0 0 1-3.762-1.702c.332 1.477.5 3.097.076 4.27-.775 2.132-3 4.528-6.223 5.063-3.096.52-6.783-.42-8.771-2.232-1.826-1.66-3.023-3.064-3.023-7.224 0-1.304.428-2.416.986-3.32-3.371 0-6.797-1.996-10.69-1.996-3.894 0-7.32 1.996-10.689 1.996.559.904.982 2.016.982 3.32 0 4.16-1.195 5.564-3.019 7.224-1.989 1.812-5.679 2.751-8.773 2.232-3.223-.536-5.447-2.932-6.221-5.063-.427-1.172-.259-2.793.076-4.27a113.453 113.453 0 0 1-3.761 1.702c-2.603 1.091-5.594 2.119-9.28 3.323-3.007.984-5.115 1.605-10.374 1.864-3.123.156-9.432.3-12.658.152-1.302-.063-2.867-.16-4.32-.259l9.02 7.619.013.677c.013.7 1.15 70.095 1.777 75.482.431 3.676 4.844 19.164 18.583 27.765 7.946 4.975 16.348 9.479 21.367 12.172 1.733.927 3.1 1.663 3.917 2.127 5.335 3.057 13.341 11.493 13.341 11.493s8.04-8.436 13.38-11.493" fill="none" stroke="#000" stroke-width="1.136" stroke-linecap="round" stroke-linejoin="round" stroke-miterlimit="2.613"/><path d="M154.184 38.275l-.52.44-.934.788-.02 1.225-.01.675c-.318 19.451-1.254 70.874-1.762 75.214-.375 3.197-4.635 17.845-17.342 25.8-7.869 4.93-16.219 9.404-21.211 12.08-1.748.94-3.131 1.676-3.977 2.164-4.01 2.297-9.252 7.232-12.047 10-2.783-2.768-8.011-7.703-12.016-10-.851-.488-2.232-1.224-3.977-2.164-4.993-2.676-13.345-7.15-21.215-12.08-12.706-7.955-16.968-22.603-17.339-25.8-.507-4.34-1.441-55.763-1.76-75.214l-.013-.675-.021-1.225-.934-.788-.52-.44-2.507-2.116c3.254.002 7.139-.104 9.392-.217 5.482-.272 7.843-.935 11.073-1.991 3.689-1.208 6.696-2.24 9.352-3.348.068.328.147.652.256.951.965 2.66 3.717 6.037 8.302 6.801 3.9.652 8.432-.541 11.02-2.896 2.132-1.944 3.898-3.976 3.898-9.212a8.62 8.62 0 0 0-.076-1.116c.71-.167 1.405-.369 2.097-.564 1.725-.488 3.357-.948 5.003-.948 1.645 0 3.274.46 5.002.948.688.196 1.387.397 2.094.564a8.435 8.435 0 0 0-.076 1.116c0 5.236 1.77 7.268 3.9 9.212 2.588 2.355 7.121 3.548 11.018 2.896 4.584-.764 7.336-4.141 8.303-6.801.111-.299.191-.624.26-.951 2.654 1.108 5.66 2.14 9.352 3.348 3.23 1.056 5.586 1.719 11.068 1.991 2.256.112 6.143.219 9.393.217l-2.506 2.116z" fill-rule="evenodd" clip-rule="evenodd"/><path d="M60.241 73.159c.495-1.988-1.894-9.053-2.269-8.956-.379.096-3.219 1.112-3.598 1.304 0 0 1.418 3.348 1.61 4.953.139 1.207-1.043 1.395-1.989.827-.947-.567-6.313-18.171-6.03-18.74.284-.571 1.917-.923 2.556-.5.635.424 1.014 3.225 1.49 3.32.471.092 3.118-.856 3.31-1.231.188-.38-.455-1.82-1.041-2.94-.707-1.353-1.63-3.268-2.624-4.192-1.773-1.651-5.395.352-5.962.637-.484.244-2.695 2.203-2.767 3.459-.076 1.356 7.522 23.196 8.513 24.76.616.968 4.401.356 5.184.073.394-.146 3.237-1.25 3.617-2.774zM78.31 69.674l-.852-8.716 4.07 8.053 3.266-.044-2.627-22.18-3.407.144.591 9.951-3.924-9.455-2.697.356 2.269 22.248 3.311-.357zM119.279 47.215l-3.31-.664-2.557 21.987 3.027.665 2.84-21.988zM144.16 53.279l-2.648 7.679-1.037-9.195-2.368-.568-6.058 21.704 3.031.567 2.272-7.579 1.134 9.094 2.555.762L147 53.848l-2.84-.569zM93.639 95.926s0-4.5.096-5.496c.092-.992-1.514-1.944-2.604-2.556-1.086-.621-3.406-.284-4.352 0-.946.283-3.123 2.131-3.123 3.315v17.295c0 1.372 3.93 1.692 5.535 1.657 2.368-.044 4.544-.709 4.544-2.084v-6.349l-3.052-.012s.068 3.34-.071 4.016c-.193.912-2.611.983-2.804.177-.212-.889-.519-12.509-.084-13.612.296-.745 1.965-.889 2.424-.248.328.452.179 3.896.179 3.896h3.312v.001zM97.66 88.111l-.047 21.131h3.545l-.045-21.131H97.66zM114.215 91.662l-.043-3.931h-8.705v21.419h3.689v-8.435h3.215v-4.076h-3.357v-4.977h5.201zM116.301 87.446v21.56h3.404l-.047-21.56h-3.357zM130.244 100.026s-.068 4.292-.25 4.867c-.285.893-2.057.929-2.625-.068-.275-.479-.398-12.863.096-13.779.592-1.096 2.066-.632 2.174.285.094.807 0 3.507 0 3.507h3.688V89.65c0-1.209-.398-1.872-.918-2.132-.646-.324-3.242-.596-4.236-.596-1.037 0-3.57.668-3.406.62-.83.235-1.514 1.679-1.561 2.604-.037.764-.068 15.448.191 16.491.215.864 1.361 2.337 2.303 2.628.566.181 5.252.073 5.717.073.602 0 1.523-.509 1.807-.89.283-.379.863-.959.912-1.527.047-.567 0-6.872 0-6.872l-3.892-.023zM65.255 72.994v-4.739l3.69-.853.946 3.696 3.69-.477-7.571-21.228-4.162 1.516.188 22.556 3.219-.471zm2.177-9.195l-2.177.856-.095-5.972 2.272 5.116zM93.875 45.863h-3.758l-3.905 22.604h3.406l.922-4.476 3.479-.072.707 4.195h4.119l-4.97-22.251zM90.8 60.675l1.138-4.649 1.226 4.649H90.8zM127.135 67.21l.188 4.644 3.688.572.098-23.032-4.021-.615-8.279 20.707 3.787.948 1.701-3.884 2.838.66zm.379-9.1l-.098 5.972-2.367-.659 2.465-5.313zM73.865 88.63l-4.588 21.276h4.118l.895-4.028h3.17l.851 3.791h3.929l-5.487-21.087-2.888.048zm.567 13.932l1.23-3.792 1.373 3.792h-2.603zM69.417 87.591c0-.904-1.417-2.844-2.412-2.844h-9.128l-.048 25.776h4.775v-8.244h4.353c1.139 0 2.46-1.72 2.46-2.652V87.591zm-4.636 9.76c-.021 1.079-2.177-.097-2.177-.097v-8.907s1.94-.236 2.128 1.328c.152 1.224.097 5.26.049 7.676zM108.211 68.114c.543-.288 1.939-1.399 2.08-2.323.145-.924 1.041-16.965.896-17.651-.135-.656-1.607-2.417-2.271-2.417-.43 0-7.613-.024-7.613-.024l-.756 22.415s7.121.281 7.664 0zm-3.906-3.32l.639-15.495s2.129-.4 2.129.948c0 2.748-.045 5.64-.045 6.588 0 1.092-.342 5.595-.523 7.676-.064.767-2.2.283-2.2.283zM65.208 133.573l-2.008-.571 2.807-9.864 3.981 1.132c1.605.473 3.095 1.488 2.523 3.496-.364 1.288-1.397 1.908-2.623 1.841l-.008.023c1.493.62 1.206 1.615.986 3.032-.088.656-.34 1.84-.12 2.491l-2.216-.632c.081-.923.24-1.836.403-2.752.104-.561.188-1.349-.466-1.563l-2.125-.608-1.134 3.975zm1.602-5.616l1.684.481c.888.238 1.538-.076 1.785-.953.248-.875-.163-1.393-1.042-1.655l-1.686-.483-.741 2.61zM72.983 135.602l4.943-9.652 2.456.356 1.885 10.64-2.081-.3-.384-2.252-3.813-.557-1.035 2.048-1.971-.283zm6.545-2.972l-.7-4.524-.023-.004-2.041 4.128 2.764.4zM86.635 137.226l-2.08-.156.778-10.231 2.085.159-.783 10.228zM89.531 137.422l.279-10.264 2.088.06-.231 8.556 4.216.116-.043 1.704-6.309-.172zM101.629 127.197l2.355-.112 2.059 7.629h.027l1.198-7.784 1.994-.091-1.994 10.362-2.317.112-2.119-7.727h-.023l-1.52 7.895-2.367.117-2.851-10.141 2.152-.1 1.857 7.637h.027l1.522-7.797zM111.072 136.886l1.953-10.676 2.457-.371 4.867 9.643-2.076.316-1.02-2.048-3.812.576-.395 2.26-1.974.3zm5.412-4.745l-1.973-4.126h-.029l-.762 4.543 2.764-.417zM123.104 131.321l-4.942-5.828 2.356-.631 3.15 4.028.766-5.08 2.074-.552-1.387 7.523.865 3.241-2.015.54-.867-3.241z" fill-rule="evenodd" clip-rule="evenodd" fill="#fff"/></svg>