<svg xmlns="http://www.w3.org/2000/svg" width="2500" height="2500" viewBox="0 0 192.756 192.756"><g fill-rule="evenodd" clip-rule="evenodd"><path fill="#fff" d="M0 0h192.756v192.756H0V0z"/><path d="M35.253 84.885c-1.305-1.606-2.81-2.911-4.517-4.015-1.807-1.003-3.613-1.907-5.721-2.308l-3.01 3.011c1.906.1 3.712.603 5.419 1.405a14.302 14.302 0 0 1 4.417 3.212c1.304 1.404 2.208 2.91 3.011 4.616.703 1.807 1.004 3.613 1.004 5.519 0 2.609-.603 5.119-1.908 7.328-1.205 2.207-3.011 4.016-5.119 5.318v-3.713c-.1-.402-.3-.402-.703-.199l-9.435 9.332 2.41.203c2.409 0 4.817-.502 7.126-1.506 2.107-.904 4.115-2.209 5.721-3.816 1.706-1.705 3.011-3.611 3.915-5.82 1.003-2.309 1.405-4.617 1.405-7.127 0-4.313-1.305-8.127-4.015-11.44z"/><path d="M23.31 78.261l-2.208-.101c-2.41 0-4.818.402-7.026 1.405-2.208.903-4.216 2.309-5.821 3.915-1.707 1.706-3.011 3.613-3.915 5.721-1.004 2.308-1.506 4.617-1.506 7.125 0 4.318 1.406 8.031 4.015 11.344 1.205 1.604 2.71 3.01 4.316 4.014a20.43 20.43 0 0 0 5.721 2.41l2.911-3.012c-1.807-.102-3.513-.604-5.219-1.406-1.707-.803-3.111-1.906-4.417-3.213-1.104-1.402-2.107-2.908-2.81-4.615a14.635 14.635 0 0 1-1.104-5.521c0-2.608.703-5.117 2.007-7.326 1.305-2.208 2.91-4.015 5.219-5.319v3.412c.1.402.301.502.602.302l9.235-9.135z"/><path d="M23.109 86.391c-.402-1.204-1.104-2.108-1.908-2.81-.903.803-1.705 1.706-2.207 2.81a8.663 8.663 0 0 0-.804 3.614c0 1.304.302 2.509.603 3.613.602 1.204 1.305 2.107 2.208 2.91 1.004-.702 1.706-1.706 2.208-2.91.501-1.104.702-2.309.702-3.613a8.646 8.646 0 0 0-.802-3.614z"/><path d="M29.131 95.023c.402-.904.703-1.506 1.104-1.807-3.412 0-5.921 1.706-7.728 5.018l-.201 7.727c-.301.904-.703 1.406-1.205 1.607-.904-.201-1.305-.803-1.305-1.906l.201-7.428a9.718 9.718 0 0 0-3.212-3.713 11.274 11.274 0 0 0-4.717-1.305c.201.2.401.502.702 1.003.603.903 1.004 2.007 1.305 3.413l.904 4.014c.301 1.205.602 2.207 1.004 3.012a5.797 5.797 0 0 0 1.806 2.309c.803.602 1.806 1.105 3.011 1.605 2.107-.402 3.813-1.506 5.118-3.512 1.004-1.607 1.706-3.715 2.208-6.225.203-1.405.604-2.708 1.005-3.812zM49.908 95.123c.703-.803 1.807-1.204 3.212-1.204 1.506 0 3.011.502 4.617 1.505v-3.211c-1.605-.803-3.212-1.104-4.818-1.104-2.409 0-4.215.702-5.621 2.007-1.405 1.305-2.208 2.912-2.208 5.119 0 2.008.803 3.814 2.208 5.119 1.305 1.305 3.112 1.906 5.219 1.906 1.907 0 3.614-.502 5.219-1.406v-3.209c-1.605 1.203-3.212 1.705-4.918 1.705-1.204 0-2.309-.402-3.011-1.105-.803-.803-1.104-1.807-1.104-3.01 0-1.407.401-2.41 1.205-3.112zM72.792 95.725H69.88v9.335h2.911v-4.016c.201-.803.502-1.504 1.004-2.008.301-.5.802-.803 1.405-.803.401 0 .903.303 1.605.701l.803-2.709c-.703-.401-1.404-.602-1.906-.602-.603 0-1.105.201-1.606.602a17.722 17.722 0 0 0-1.305 2.008v-2.508h.001zM82.928 95.725c-1.605 0-2.81.302-3.612.904-.904.502-1.305 1.303-1.305 2.307 0 1.607.803 2.611 2.509 3.012-1.104.301-1.606.703-1.606 1.406 0 .602.402 1.004 1.104 1.205-1.606.398-2.409 1.203-2.409 2.307 0 .805.402 1.406 1.205 1.908.802.5 2.007.803 3.513.803 3.312 0 4.918-1.004 4.918-3.113 0-1.506-1.003-2.406-3.011-2.709l-1.907-.199c-.402-.102-.602-.301-.602-.502 0-.303.199-.502.501-.604l1.606-.201c1.907-.301 2.912-1.305 2.912-3.01 0-.604-.102-1.104-.402-1.605h1.304v-1.908h-4.718v-.001zm.703 2.207c.301.303.502.703.502 1.207 0 .402-.201.801-.502 1.104-.201.301-.601.402-1.205.402-.502 0-.903-.102-1.203-.402-.303-.303-.402-.701-.402-1.104 0-.504.1-.904.402-1.207.3-.299.701-.4 1.203-.4.604-.001 1.004.101 1.205.4zm-1.104 7.73c1.405 0 2.107.299 2.107 1.104 0 .701-.703 1.104-2.208 1.104-1.404 0-2.107-.402-2.107-1.104 0-.805.703-1.104 2.208-1.104zM63.558 95.625c-1.606 0-3.011.302-4.115 1.004l-.101 2.408c1.104-1.002 2.208-1.506 3.212-1.506 1.205 0 1.806.4 1.806 1.305v.303c-2.007.502-3.412 1.002-4.014 1.404-1.004.502-1.405 1.205-1.405 2.107 0 1.707.902 2.51 2.71 2.51 1.104 0 2.107-.303 2.91-1.004.101.701.603 1.004 1.505 1.004.703 0 1.506-.203 2.509-.703v-1.605l-.803.201c-.301 0-.402-.201-.402-.604v-3.613c0-1.203-.301-2.008-.902-2.51-.602-.501-1.606-.701-2.91-.701zm-1.004 5.721c.301-.201.904-.504 1.806-.803v2.207c-.501.402-1.003.604-1.404.604-.703 0-1.004-.301-1.004-1.004 0-.403.201-.704.602-1.004zM91.561 91.61c-.301-.301-.703-.401-1.105-.401-.4 0-.803.1-1.104.401s-.502.703-.502 1.104c0 .502.201.803.502 1.104.301.301.703.501 1.104.501.402 0 .804-.201 1.105-.501.301-.201.401-.602.401-1.104-.001-.401-.1-.803-.401-1.104zM91.862 95.725h-2.911v9.336h2.911v-9.336zM101.998 91.309h-2.91v13.752h2.91V91.309zM96.88 91.309h-2.81v13.752h2.81V91.309zM117.957 91.61l-8.131-.301v13.752l7.83-.203c.902-.1 1.705-.4 2.408-.902 2.107-1.305 3.211-3.311 3.211-5.82 0-2.208-.902-4.016-2.709-5.321-.703-.603-1.605-1.004-2.609-1.205zm-4.717 2.509h2.609c1.104 0 2.006.402 2.811 1.104a4.382 4.382 0 0 1 1.104 2.912c0 1.203-.402 2.207-1.104 2.91-.805.803-1.707 1.203-2.811 1.203h-2.609v-8.129zM137.73 95.725h-3.113l4.317 9.435h1.406l2.209-5.119 2.306 5.119h1.407l4.215-9.435h-2.911l-2.007 5.019-2.209-5.019h-1.504l-2.01 5.019-2.106-5.019zM129.5 95.625c-1.506 0-2.711.403-3.615 1.305-1.002.902-1.404 2.107-1.404 3.512 0 1.406.402 2.51 1.404 3.412.904.904 2.109 1.307 3.615 1.307s2.811-.402 3.713-1.307c.902-.902 1.404-2.006 1.404-3.412 0-1.404-.502-2.609-1.404-3.512s-2.207-1.305-3.713-1.305zm1.506 2.809c.4.502.602 1.207.602 2.008 0 .803-.201 1.406-.602 1.807-.402.502-.904.703-1.506.703-.604 0-1.105-.201-1.506-.703-.301-.4-.502-1.004-.502-1.807 0-.801.201-1.506.502-2.008.4-.398.902-.701 1.506-.701.602-.001 1.104.302 1.506.701zM158.506 91.309h-3.412v13.752h9.334v-2.711h-5.922V91.309zM170.148 91.309h-3.412v13.752h9.334v-2.711h-5.922V91.309zM189.82 92.212c-1.605-.803-3.111-1.104-4.818-1.104-2.307 0-4.215.702-5.619 2.007-1.406 1.305-2.109 2.912-2.109 5.119 0 2.008.805 3.814 2.209 5.119 1.305 1.305 3.012 1.906 5.219 1.906 1.908 0 3.613-.502 5.221-1.406v-3.209c-1.607 1.203-3.312 1.705-4.92 1.705-1.305 0-2.307-.402-3.01-1.105-.803-.803-1.205-1.807-1.205-3.01 0-1.406.402-2.409 1.205-3.112.803-.803 1.906-1.204 3.211-1.204 1.607 0 3.111.502 4.617 1.505v-3.211h-.001z"/></g></svg>