<svg xmlns="http://www.w3.org/2000/svg" width="2500" height="2500" viewBox="0 0 192.756 192.756"><g fill-rule="evenodd" clip-rule="evenodd"><path fill="#fff" d="M0 0h192.756v192.756H0V0z"/><path d="M96.378 130.541l83.099-29.738c2.854-.938 4.715-2.738 4.775-5.157.061-2.439-1.688-4.529-3.961-5.076L96.378 62.214 12.464 90.57c-2.272.547-4.021 2.637-3.96 5.076.061 2.418 1.921 4.219 4.775 5.157l83.099 29.738z"/><path d="M36.03 96.135c0 3.363 1.538 6.605 4.571 9.639 9.202 9.203 30.82 15.148 55.073 15.148s45.871-5.945 55.074-15.148c3.033-3.033 4.57-6.275 4.57-9.639 0-3.365-1.537-6.608-4.57-9.641-9.203-9.202-30.82-15.148-55.074-15.148-15.793 0-30.657 2.502-41.852 7.046C42.349 83.049 36.03 89.35 36.03 96.135z" fill="#fff"/><path d="M95.674 73.298c23.763 0 44.837 5.721 53.693 14.576 2.654 2.654 4 5.433 4 8.261 0 12.592-25.881 22.836-57.693 22.836-23.762 0-44.838-5.723-53.693-14.576-2.654-2.654-3.999-5.434-3.999-8.26 0-2.828 1.345-5.607 3.999-8.261 8.855-8.855 29.931-14.576 53.693-14.576z"/><path d="M95.674 75.738c23.148 0 43.546 5.441 51.968 13.862 2.178 2.179 3.283 4.377 3.283 6.535 0 9.646-22.691 20.395-55.251 20.395-23.148 0-43.546-5.441-51.967-13.861-2.179-2.18-3.284-4.377-3.284-6.533 0-2.157 1.105-4.355 3.284-6.535 8.421-8.422 28.819-13.863 51.967-13.863z" fill="#fff"/><path d="M64.665 81.781h1.423v4.429h-1.423v-4.429zM67.263 81.781h1.412l1.833 2.52-.007-2.52h1.323v4.429h-1.252l-2.002-2.782v2.782h-1.307v-4.429zM68.158 106.652h1.412l1.833 2.52-.007-2.52h1.323v4.428h-1.252l-2.002-2.781v2.781h-1.307v-4.428zM87.029 81.781h1.412l1.833 2.52-.006-2.52h1.322v4.429h-1.252l-2.002-2.782v2.782h-1.307v-4.429zM111.096 81.781h1.412l1.834 2.52-.006-2.52h1.322v4.429h-1.252l-2.002-2.782v2.782h-1.308v-4.429zM74.189 82.657h-1.335v-.876h3.852v.876h-1.092v3.553h-1.425v-3.553zM112.42 107.547h-1.334v-.875h3.85v.875h-1.092v3.555h-1.424v-3.555zM99.6 82.657h-1.336v-.876h3.851v.876h-1.092v3.553H99.6v-3.553zM77.441 81.781h3.365v.838h-1.941v.914h1.834v.837h-1.834v1.003h2.011v.837h-3.435v-4.429zM115.834 106.672h3.367v.838h-1.943v.914h1.834v.838h-1.834v1.002h2.012v.838h-3.436v-4.43zM81.833 81.781h2.351c.787 0 1.428.355 1.428 1.117 0 .59-.279.983-.85 1.117v.013c.869.223 1.304 2.183 1.304 2.183h-1.231l-.254-.8c-.241-.761-.881-.952-1.319-.952h-.248v1.751h-1.18v-4.429h-.001z"/><path d="M83.014 83.622h.311c.381 0 .863-.013.863-.514 0-.413-.413-.488-.863-.488h-.311v1.002z" fill="#fff"/><path d="M84.274 106.672h2.351c.787 0 1.428.355 1.428 1.117 0 .59-.279.982-.85 1.117v.012c.869.225 1.303 2.184 1.303 2.184h-1.231l-.253-.801c-.241-.76-.882-.951-1.319-.951h-.248v1.752h-1.18v-4.43h-.001z"/><path d="M85.454 108.512h.311c.381 0 .863-.012.863-.514 0-.412-.413-.488-.863-.488h-.311v1.002z" fill="#fff"/><path d="M100.055 106.672h2.35c.787 0 1.428.355 1.428 1.117 0 .59-.279.982-.85 1.117v.012c.869.225 1.303 2.184 1.303 2.184h-1.23l-.254-.801c-.24-.76-.881-.951-1.318-.951h-.248v1.752h-1.18v-4.43h-.001z"/><path d="M101.234 108.512h.311c.381 0 .863-.012.863-.514 0-.412-.412-.488-.863-.488h-.311v1.002z" fill="#fff"/><path d="M94.302 81.781h1.447l1.706 4.429h-1.294l-.329-.945h-1.664l-.348.945h-1.199l1.681-4.429z"/><path fill="#fff" d="M95.025 82.695h-.012l-.571 1.732h1.11l-.527-1.732z"/><path d="M103.146 81.781h1.424v4.429h-1.424v-4.429zM118.377 81.781h1.447l1.707 4.429h-1.295l-.33-.945h-1.662l-.349.945h-1.2l1.682-4.429z"/><path fill="#fff" d="M119.1 82.695h-.012l-.57 1.732h1.109l-.527-1.732z"/><path d="M122.51 81.781h1.424v3.553h1.828v.876h-3.252v-4.429zM65.315 106.672h1.424v4.43h-1.424v-4.43zM77.772 111c-.337.082-.711.178-1.314.178-1.18 0-2.544-.598-2.544-2.271 0-1.543 1.079-2.311 2.538-2.311.451 0 .889.102 1.313.229l-.095.959a2.308 2.308 0 0 0-1.155-.312c-.837 0-1.383.609-1.383 1.436 0 .869.615 1.395 1.479 1.395.387 0 .78-.102 1.104-.229l.057.926zM89.699 106.672h1.408c1.352 0 2.474.457 2.474 1.453 0 .895-.653 1.428-1.757 1.428h-.945v1.549h-1.18v-4.43z"/><path d="M90.878 108.715h.305c.406 0 1.218-.145 1.218-.609 0-.449-.812-.596-1.218-.596h-.305v1.205z" fill="#fff"/><path d="M107.221 106.672h1.447l1.707 4.43h-1.295l-.33-.946h-1.662l-.348.946h-1.201l1.682-4.43z"/><path fill="#fff" d="M107.945 107.586h-.013l-.571 1.732h1.11l-.526-1.732z"/><path d="M120.279 106.672h1.611c1.543 0 2.621.482 2.621 2.195 0 1.656-1.111 2.234-2.621 2.234h-1.611v-4.429z"/><path d="M121.459 110.225h.457c.883 0 1.377-.457 1.377-1.338 0-.883-.514-1.34-1.377-1.34h-.457v2.678z" fill="#fff"/><path d="M129.168 88.618h7.504v12.152h6.099v4.201h-13.603V88.618zM128.1 104.971h-13.696V88.618H128.1v4.343h-6.62v1.708h4.577v4.149h-4.577v2.075h6.62v4.078zM82.07 88.618v16.353h7.382v-6.275s2.562.42 2.685 6.275h7.442s-.244-5.908-2.806-7.861c0 0 2.548-1.433 1.952-4.743 0 0-.457-3.307-4.514-3.749H82.07z"/><path d="M113.855 88.618H99.092v7.028h3.476v9.325h7.422v-9.325h3.865v-7.028zM73.712 101.99h-5.003l-.854 2.981h-7.687l6.101-16.353h10.127l5.613 16.353h-7.321l-.976-2.981z"/><path fill="#fff" d="M69.686 97.965h2.806l-1.22-2.929-1.586 2.929z"/><path d="M57.769 96.785l3.01 5.775s-4.474 3.904-10.575 1.545c0 0-5.399-1.697-5.287-8.378 0 0 .569-6.833 6.589-7.646 0 0 5.125-1.057 8.948 1.464l-2.603 5.531s-4.474-1.464-5.043.732c-.001.001-.57 2.44 4.961.977zM96.498 106.521a2.373 2.373 0 1 0 0 4.746 2.373 2.373 0 0 0 0-4.746z"/><path d="M96.529 109.949a1.055 1.055 0 1 1-.002-2.11 1.055 1.055 0 0 1 .002 2.11z" fill="#fff"/><path d="M107.723 81.692a2.37 2.37 0 0 0-2.371 2.373 2.371 2.371 0 1 0 4.744 0 2.373 2.373 0 0 0-2.373-2.373z"/><path d="M107.754 85.121a1.056 1.056 0 1 1-.001-2.113 1.056 1.056 0 0 1 .001 2.113z" fill="#fff"/><path d="M81.063 106.521a2.372 2.372 0 1 0 0 4.744 2.372 2.372 0 0 0 0-4.744z"/><path d="M81.094 109.949a1.054 1.054 0 1 1 0-2.11 1.054 1.054 0 1 1 0 2.11zM89.574 95.036v-3.172s1.647-.016 1.708 1.586c0 0 .305 1.555-1.708 1.586z" fill="#fff"/></g></svg>