<svg xmlns="http://www.w3.org/2000/svg" width="2103" height="2500" viewBox="0 0 182.592 217.079"><path d="M91.295 212.41c92.948-55.081 87.211-154.339 87.211-154.339-19.752-8.032-29.835-37.293-29.835-37.293-15.491 0-28.687-14.918-28.687-14.918-6.599 6.598-28.688 7.459-28.688 7.459s-22.089-.861-28.688-7.459c0 0-13.196 14.918-28.687 14.918 0 0-10.084 29.261-29.835 37.293-.001 0-5.738 99.259 87.209 154.339z" fill="#fff"/><g fill="#4760a9" stroke="#000" stroke-width="2.295"><path d="M123.939 111.369l53.688-53.689c-16.094-7.162-25.577-28.307-28.204-34.909L92.382 79.813l31.557 31.556zM92.382 79.813L33.769 21.199C32.521 24.608 23.311 48.373 6.436 56.98l54.39 54.39 31.556-31.557zM92.382 142.926l38.267 38.267c11.229-11.867 19.833-24.37 26.431-36.683l-33.141-33.141-31.557 31.557z"/><path d="M60.826 111.369L26.27 145.925a170.093 170.093 0 0 0 26.739 36.374l39.373-39.374-31.556-31.556z"/></g><path d="M91.295 212.41c92.948-55.081 87.211-154.339 87.211-154.339-19.752-8.032-29.835-37.293-29.835-37.293-15.491 0-28.687-14.918-28.687-14.918-6.599 6.598-28.688 7.459-28.688 7.459s-22.089-.861-28.688-7.459c0 0-13.196 14.918-28.687 14.918 0 0-10.084 29.261-29.835 37.293-.001 0-5.738 99.259 87.209 154.339z" fill="none" stroke="#000" stroke-width="8.033"/><path fill="#cd3529" stroke="#000" stroke-width="2.295" d="M108.222 91.349V74.708L124.86 58.07H57.731L74.37 74.708v16.641H57.731L41.093 74.708v67.705l16.638-16.64H74.37v16.64l-16.639 16.638h67.129l-16.638-16.638v-16.64h16.638l16.64 16.64V74.708l-16.64 16.641z"/><path d="M118.09 103.047H96.809V81.766H85.782v21.281H64.5v11.029h21.282v21.28h11.027v-21.28h21.281zM87.279 27.16h12.811v4.913h-6.823v3.335h3.809v4.913h-3.809v8.319h-5.988V27.16zM34.337 106.381v6.547c-1.62.772-3.366 1.159-5.238 1.159a10.521 10.521 0 0 1-3.856-.771 10.177 10.177 0 0 1-3.252-2.127c-.956-.921-1.744-2.023-2.365-3.304-.679-1.388-1.019-3.029-1.019-4.921 0-1.165.163-2.315.488-3.451s.827-2.174 1.506-3.117a11.507 11.507 0 0 1 1.87-2.009 10.832 10.832 0 0 1 2.109-1.383 10.073 10.073 0 0 1 2.292-.816 11.351 11.351 0 0 1 2.46-.262c.582 0 1.018.024 1.31.072.717.067 1.338.181 1.862.344s1.135.41 1.833.744v6.329c-.193-.223-.584-.537-1.171-.939-.587-.402-1.128-.667-1.622-.793-.669-.156-1.256-.234-1.76-.234-1.484 0-2.755.561-3.812 1.684-.893.906-1.338 2.125-1.338 3.657 0 .722.109 1.412.327 2.07.219.658.517 1.217.895 1.675a5.506 5.506 0 0 0 1.819 1.396 5.123 5.123 0 0 0 2.226.491c.756 0 1.552-.16 2.386-.481a4.505 4.505 0 0 0 1.135-.691c.358-.297.663-.586.915-.869zM161.868 106.381v6.547c-1.621.772-3.366 1.159-5.238 1.159a10.522 10.522 0 0 1-3.857-.771 10.166 10.166 0 0 1-3.252-2.127c-.955-.922-1.744-2.022-2.365-3.304-.679-1.388-1.018-3.028-1.018-4.922 0-1.164.162-2.315.487-3.45a9.995 9.995 0 0 1 1.506-3.117 11.574 11.574 0 0 1 1.87-2.008 10.85 10.85 0 0 1 2.111-1.384 10.083 10.083 0 0 1 2.291-.816 11.367 11.367 0 0 1 2.461-.262c.581 0 1.018.023 1.309.072.717.067 1.338.181 1.863.344.522.163 1.134.41 1.833.744v6.329c-.195-.223-.585-.536-1.172-.939-.587-.402-1.127-.667-1.623-.793-.667-.156-1.255-.234-1.759-.234-1.483 0-2.754.562-3.812 1.682-.892.908-1.338 2.127-1.338 3.658 0 .722.107 1.412.327 2.071.218.659.516 1.217.895 1.675a5.549 5.549 0 0 0 1.817 1.397c.69.328 1.433.49 2.228.49.755 0 1.551-.16 2.385-.481.399-.165.778-.396 1.136-.692s.661-.586.915-.868z"/></svg>