<svg xmlns="http://www.w3.org/2000/svg" width="2500" height="2500" viewBox="0 0 192.756 192.756"><g fill-rule="evenodd" clip-rule="evenodd"><path fill="#fff" d="M0 0h192.756v192.756H0V0z"/><path d="M2.834 106.238c73.772-36.317 113.031 3.129 138.158-2.371-46.179 11.854-91.504-5.404-138.158 2.371z" fill="#4e4e50"/><path d="M47.307 114.109c38.688 20.387 59.265-1.707 72.445 1.326-30.249-8.912-38.688-3.033-72.445-1.326z" fill="#76787a"/><path d="M128.381 109.842c22 11.568 33.662-.947 41.154.758-17.164-5.026-22-1.705-41.154-.758z" fill="#898a8d"/><path d="M102.115 123.021c16.973 8.914 26.076-.854 31.861.57-13.371-3.982-17.068-1.423-31.861-.57z" fill="#9c9ea0"/><path d="M179.207 76.559h1.99v10.43h5.215v-10.43h3.414v-3.225h-3.414v-.474c0-.854.191-1.518.381-1.991.283-.475.758-.759 1.516-.759.285 0 .854.095 1.613.189v-3.224c-1.139-.095-2.275-.095-3.225-.095-1.139 0-2.086.095-2.939.474-.758.189-1.328.569-1.707 1.233a4.939 4.939 0 0 0-.664 1.991 19.379 19.379 0 0 0-.189 2.655h-4.74v-.474c0-.854.094-1.518.379-1.991.189-.475.664-.759 1.518-.759.283 0 .758.095 1.611.189v-3.224c-1.232-.095-2.275-.095-3.225-.095-1.137 0-2.086.095-3.033.474-.664.189-1.232.569-1.613 1.233-.379.474-.568 1.138-.662 1.991a19.024 19.024 0 0 0-.191 2.655h-2.654v3.225h2.561v10.43h5.311v-10.43h2.747v.002zM128.381 86.989h-5.215V67.077h5.215v19.912z" fill="#1c67a8"/><path fill="#1c67a8" d="M128.287 79.309l4.93-5.975h5.785l-4.742 5.785 5.5 7.87h-6.448l-5.025-7.68zM116.527 73.334h5.407v13.655h-5.407V73.334zM100.219 73.334h5.311c.094 0 .094.475.094 1.518.568-.569 1.232-1.138 1.896-1.422.76-.285 1.518-.474 2.465-.474.664 0 1.328.095 1.896.284.57.19 1.139.474 1.707.854.475.379.949.948 1.139 1.612.379.568.475 1.327.475 2.275v9.008h-5.217v-7.87c0-1.992-.758-3.035-2.18-3.035-.664.095-1.139.285-1.518.759-.379.379-.664 1.043-.664 1.802v8.344h-5.215v-10.24c0-.854 0-1.517-.096-2.181 0-.569-.093-.949-.093-1.234zM89.409 73.334h5.31l.094 2.655h.095c.19-.948.758-1.707 1.422-2.276.853-.474 1.802-.758 3.224-.758l-.949 4.551c-1.991 0-3.697 1.612-2.844.854-.664.569-.949 1.422-.949 2.94v5.689h-5.31v-10.43c.001-1.423.001-2.466-.093-3.225zM88.935 82.533v2.655c0 1.138-3.319 2.37-5.974 2.37-2.939 0-6.732-.948-8.155-3.414-.474-.948-.854-2.275-.854-3.888 0-1.422.285-2.655.948-3.603.664-1.043 1.517-1.896 2.75-2.466 1.138-.474 2.465-.664 3.983-.664 1.802 0 3.318.285 4.456.948 1.043.664 1.896 1.612 2.276 2.75.474 1.138.664 2.561.664 4.078l-9.862.095c.19 5.121 6.922 3.699 9.768 1.139zm-4.837-3.793c-.284-1.896-1.138-2.845-2.655-2.845-1.422.095-2.276 1.043-2.276 2.845h4.931zM168.775 82.533l.096 2.56c0 1.138-3.32 2.465-6.068 2.465-2.941 0-6.732-.948-8.061-3.414-.475-.948-.854-2.275-.854-3.888 0-1.422.285-2.655.854-3.603a6.602 6.602 0 0 1 2.844-2.466c1.043-.474 2.371-.664 3.889-.664 1.896 0 3.414.285 4.551.948 1.043.664 1.896 1.612 2.275 2.75.381 1.138.57 2.561.57 4.078l-9.768.095c.19 5.121 6.829 3.699 9.672 1.139zm-4.74-3.793c-.285-1.896-1.139-2.845-2.75-2.845-1.424.095-2.182 1.043-2.182 2.845h4.932z"/><path d="M152.846 82.533v2.56c0 1.138-3.225 2.465-5.975 2.465-2.939 0-6.732-.948-8.154-3.414a12.53 12.53 0 0 1-.854-3.888c0-1.422.379-2.655.949-3.603.662-1.043 1.516-1.896 2.748-2.466 1.139-.474 2.467-.664 3.984-.664 1.801 0 3.412.285 4.551.948 1.043.664 1.801 1.612 2.182 2.75.473 1.138.662 2.561.662 4.078l-9.766.095c.095 5.121 6.827 3.699 9.673 1.139zm-4.742-3.793c-.283-1.896-1.137-2.845-2.748-2.845-1.424.095-2.182 1.043-2.182 2.845h4.93zM58.78 67.077h5.215v7.775c1.138-1.233 2.561-1.896 4.362-1.896 1.138 0 1.991.284 2.845.664.758.379 1.327 1.043 1.801 1.707.474.758.569 1.707.569 2.75v8.914h-5.215v-8.155a3.41 3.41 0 0 0-.569-1.896 1.795 1.795 0 0 0-1.517-.854c-1.517 0-2.276.948-2.276 2.561v8.344H58.78V67.077zM43.609 69.637c-2.086-.19-5.31-1.612-7.681-3.698h3.034c1.896 2.276 4.362 2.845 6.164 2.56a3.51 3.51 0 0 0 1.043-.474c1.517-.474 3.224-.853 5.215-.853 1.422 0 2.655.189 3.888.569.664.19 1.518.474 2.086.853v5.595c-1.043-1.422-3.035-2.276-5.215-2.276-3.509 0-6.354 2.276-6.354 5.121s2.845 5.121 6.354 5.121c2.086 0 3.982-.948 5.215-2.181v5.595c-.379.19-.854.474-1.138.569-1.328.474-3.034.758-4.741.758-2.56 0-4.741-.285-6.258-1.138-1.612-.948-2.75-2.181-3.603-3.604a11.196 11.196 0 0 1-1.043-4.741c0-1.328.19-2.75.474-3.888.285-1.138 1.043-2.276 1.802-3.224.189-.19.473-.475.758-.664z" fill="#1c67a8"/><path d="M116.93 96.859v-5.72h.758v5.72h-.758zM118.82 96.859v-4.143h.633v.588c.305-.456.744-.683 1.318-.683.25 0 .479.045.688.134.211.091.367.208.471.354.105.145.178.318.219.518.025.13.039.358.039.683v2.548h-.703v-2.521c0-.285-.025-.5-.08-.642a.676.676 0 0 0-.291-.338.927.927 0 0 0-.49-.128c-.299 0-.557.096-.775.285-.217.19-.324.55-.324 1.081v2.263h-.705v.001zM122.873 95.622l.693-.109c.039.278.148.491.326.641.178.147.428.222.748.222.322 0 .562-.066.717-.196a.592.592 0 0 0 .234-.462.423.423 0 0 0-.207-.375c-.096-.062-.336-.141-.717-.237-.516-.131-.873-.243-1.072-.338a1.033 1.033 0 0 1-.607-.95 1.131 1.131 0 0 1 .473-.906c.109-.08.26-.149.447-.205.189-.056.391-.084.607-.084.324 0 .609.048.855.141s.428.22.545.379c.117.161.197.375.24.642l-.686.095a.751.751 0 0 0-.271-.5c-.148-.12-.361-.18-.633-.18-.322 0-.553.053-.691.16-.137.106-.207.231-.207.374 0 .092.029.173.086.247a.632.632 0 0 0 .27.188c.07.025.277.085.621.179.496.133.844.241 1.039.326.197.084.352.208.463.369s.168.36.168.601c0 .234-.068.454-.205.662a1.329 1.329 0 0 1-.592.479c-.256.113-.549.17-.873.17-.539 0-.949-.113-1.232-.336-.281-.226-.461-.557-.539-.997zM128.57 96.23l.102.621a2.626 2.626 0 0 1-.529.062c-.256 0-.453-.041-.594-.121s-.238-.188-.297-.318c-.057-.131-.086-.408-.086-.829v-2.384h-.516v-.546h.516v-1.027l.699-.42v1.448h.705v.546h-.705v2.422c0 .201.012.329.037.386a.273.273 0 0 0 .121.137.458.458 0 0 0 .238.051c.081 0 .182-.009.309-.028zM129.139 96.859v-4.143h.633v.627c.16-.293.311-.487.447-.581a.776.776 0 0 1 .449-.141c.238 0 .477.076.723.227l-.242.652a.995.995 0 0 0-.516-.153.673.673 0 0 0-.414.139.754.754 0 0 0-.26.385 2.729 2.729 0 0 0-.117.819v2.169h-.703zM134.412 96.859v-.609c-.322.469-.762.703-1.314.703-.244 0-.473-.047-.686-.141a1.128 1.128 0 0 1-.471-.354 1.297 1.297 0 0 1-.217-.52 3.55 3.55 0 0 1-.043-.657v-2.566h.701v2.297c0 .368.016.614.043.742a.744.744 0 0 0 .281.436c.143.104.32.157.531.157s.408-.053.592-.161a.897.897 0 0 0 .393-.441c.076-.187.115-.457.115-.81v-2.22h.701v4.143h-.626v.001zM136.031 96.859v-4.143h.627v.581c.129-.203.303-.366.52-.489.215-.124.461-.187.736-.187.307 0 .559.064.754.192.197.127.336.305.416.534.328-.483.756-.726 1.279-.726.412 0 .729.114.949.342.221.228.33.578.33 1.05v2.845h-.697v-2.61c0-.281-.021-.483-.068-.607a.598.598 0 0 0-.246-.298.788.788 0 0 0-.424-.113.982.982 0 0 0-.725.292c-.191.193-.289.503-.289.93v2.408h-.701v-2.692c0-.312-.059-.547-.172-.703-.115-.156-.303-.234-.562-.234-.197 0-.379.052-.547.157a.877.877 0 0 0-.365.456c-.076.201-.113.49-.113.867v2.15h-.702v-.002zM145.41 95.525l.727.089c-.115.425-.326.753-.635.988-.311.234-.707.352-1.188.352-.605 0-1.086-.188-1.441-.561s-.531-.896-.531-1.57c0-.698.18-1.238.537-1.623.359-.385.824-.578 1.396-.578.555 0 1.008.189 1.357.566.352.377.527.908.527 1.591l-.004.188h-3.09c.025.456.154.804.387 1.045.23.242.52.363.865.363.258 0 .477-.067.66-.203.183-.135.328-.35.433-.647zm-2.305-1.136h2.312c-.029-.348-.119-.61-.264-.783a1.08 1.08 0 0 0-.871-.406 1.11 1.11 0 0 0-.812.323c-.22.216-.341.505-.365.866zM146.908 96.859v-4.143h.631v.588c.305-.456.744-.683 1.318-.683.25 0 .48.045.689.134.209.091.365.208.469.354.105.145.178.318.221.518.025.13.039.358.039.683v2.548h-.703v-2.521c0-.285-.027-.5-.082-.642a.676.676 0 0 0-.291-.338.915.915 0 0 0-.488-.128c-.301 0-.557.096-.775.285-.217.19-.326.55-.326 1.081v2.263h-.702v.001zM152.773 96.23l.102.621a2.626 2.626 0 0 1-.529.062c-.256 0-.453-.041-.594-.121s-.238-.188-.297-.318c-.057-.131-.086-.408-.086-.829v-2.384h-.516v-.546h.516v-1.027l.699-.42v1.448h.705v.546h-.705v2.422c0 .201.012.329.035.386a.293.293 0 0 0 .121.137.47.47 0 0 0 .24.051c.079 0 .182-.009.309-.028zM153.068 95.622l.695-.109c.039.278.146.491.326.641.176.147.426.222.746.222.322 0 .562-.066.719-.196a.592.592 0 0 0 .234-.462c0-.16-.07-.284-.209-.375-.096-.062-.334-.141-.717-.237-.514-.131-.873-.243-1.07-.338a1.028 1.028 0 0 1-.607-.95c0-.185.043-.355.127-.513.084-.158.201-.289.346-.393.109-.08.258-.149.445-.205.189-.056.393-.084.607-.084.326 0 .609.048.857.141.246.093.428.22.543.379.117.161.197.375.242.642l-.686.095a.768.768 0 0 0-.271-.5c-.15-.12-.361-.18-.635-.18-.322 0-.553.053-.689.16-.139.106-.207.231-.207.374 0 .092.029.173.086.247a.62.62 0 0 0 .27.188c.07.025.275.085.619.179.498.133.844.241 1.039.326.197.084.352.208.463.369.113.161.168.36.168.601 0 .234-.068.454-.205.662a1.334 1.334 0 0 1-.59.479c-.258.113-.549.17-.875.17-.539 0-.949-.113-1.23-.336-.283-.226-.463-.557-.541-.997zM162.064 96.859v-5.72h.758v5.045h2.817v.675h-3.575zM166.344 91.948v-.809h.703v.809h-.703zm0 4.911v-4.143h.703v4.143h-.703zM168.004 96.859v-4.143h.629v.581a1.465 1.465 0 0 1 1.256-.676c.307 0 .559.064.754.192.197.127.336.305.416.534.328-.483.754-.726 1.279-.726.412 0 .727.114.949.342.221.228.33.578.33 1.05v2.845h-.697v-2.61c0-.281-.023-.483-.068-.607a.602.602 0 0 0-.248-.298.776.776 0 0 0-.422-.113.982.982 0 0 0-.725.292c-.191.193-.289.503-.289.93v2.408h-.703v-2.692c0-.312-.057-.547-.17-.703-.115-.156-.303-.234-.562-.234-.197 0-.381.052-.547.157a.877.877 0 0 0-.365.456c-.076.201-.113.49-.113.867v2.15h-.704v-.002zM174.553 91.948v-.809h.703v.809h-.703zm0 4.911v-4.143h.703v4.143h-.703zM177.746 96.23l.102.621a2.626 2.626 0 0 1-.529.062c-.256 0-.453-.041-.594-.121s-.238-.188-.297-.318c-.057-.131-.086-.408-.086-.829v-2.384h-.516v-.546h.516v-1.027l.699-.42v1.448h.705v.546h-.705v2.422c0 .201.012.329.035.386a.293.293 0 0 0 .121.137.47.47 0 0 0 .24.051c.079 0 .182-.009.309-.028zM181.158 95.525l.727.089c-.115.425-.326.753-.637.988s-.705.352-1.186.352c-.605 0-1.088-.188-1.441-.561-.355-.373-.533-.896-.533-1.57 0-.698.18-1.238.539-1.623s.824-.578 1.396-.578c.555 0 1.008.189 1.357.566.352.377.527.908.527 1.591l-.004.188h-3.09c.025.456.154.804.387 1.045.23.242.52.363.865.363.256 0 .477-.067.658-.203.185-.135.328-.35.435-.647zm-2.304-1.136h2.312c-.031-.348-.119-.61-.266-.783a1.074 1.074 0 0 0-.869-.406 1.11 1.11 0 0 0-.812.323c-.221.216-.342.505-.365.866zM185.344 96.859v-.523c-.264.412-.648.617-1.158.617-.332 0-.635-.092-.912-.273s-.49-.436-.645-.764a2.631 2.631 0 0 1-.227-1.125c0-.413.068-.789.205-1.125a1.631 1.631 0 0 1 1.547-1.044 1.385 1.385 0 0 1 1.143.57V91.14h.697v5.72h-.65v-.001zm-2.221-2.068c0 .531.111.928.336 1.19.225.263.488.394.793.394.307 0 .566-.126.781-.376.215-.25.322-.634.322-1.149 0-.567-.109-.983-.328-1.248-.219-.266-.486-.398-.809-.398a.974.974 0 0 0-.781.382c-.208.254-.314.656-.314 1.205z"/></g></svg>