<svg xmlns="http://www.w3.org/2000/svg" width="2160" height="2500" viewBox="0 0 186.432 215.757"><path d="M167.213 34.761s-44.81 14.178-73.998-17.929C64.027 48.938 19.219 34.761 19.219 34.761s-20.514 38.073 4.587 97.572c22.516 53.372 69.41 71.302 69.41 71.302s46.895-17.93 69.411-71.302c25.101-59.5 4.586-97.572 4.586-97.572z" fill="#fff" stroke="#cd3529" stroke-width="22.644"/><path d="M167.213 34.761s-44.81 14.178-73.998-17.929C64.027 48.938 19.219 34.761 19.219 34.761s-20.514 38.073 4.587 97.572c22.516 53.372 69.41 71.302 69.41 71.302s46.895-17.93 69.411-71.302c25.101-59.5 4.586-97.572 4.586-97.572z" fill="#fff" stroke="#fff" stroke-width="13.209"/><path d="M167.213 34.761s-44.81 14.178-73.998-17.929C64.027 48.938 19.219 34.761 19.219 34.761s-20.514 38.073 4.587 97.572c22.516 53.372 69.41 71.302 69.41 71.302s46.895-17.93 69.411-71.302c25.101-59.5 4.586-97.572 4.586-97.572z" fill="#cd3529"/><g fill="#fff"><path d="M102.868 51.23a155.848 155.848 0 0 1 1.923-6.571s1.251 3.157 2.59 7.636a53.389 53.389 0 0 1 28.136 19.168l7.704-4.825c-11.359-15.396-29.622-25.39-50.224-25.39-.38 0-.755.021-1.134.029a223.572 223.572 0 0 1 2.253 9.066c2.984.061 5.909.354 8.752.887zM92.997 156.949c-29.447 0-53.319-23.873-53.319-53.321 0-26.814 19.797-48.998 45.57-52.751 1.545-3.686 3.245-7.204 4.416-9.538-32.9 1.733-59.046 28.958-59.046 62.29 0 34.453 27.928 62.38 62.379 62.38 19.013 0 36.025-8.515 47.467-21.928a2989.142 2989.142 0 0 1-7.316-5.388c-9.775 11.182-24.132 18.256-40.151 18.256z"/><path d="M81.778 61.433C63.104 66.386 49.34 83.396 49.34 103.628c0 24.112 19.546 43.659 43.657 43.659 12.839 0 24.383-5.542 32.37-14.365a1379.603 1379.603 0 0 1-7.78-5.838c-6.194 6.492-14.909 10.556-24.59 10.556-18.784 0-34.011-15.228-34.011-34.012 0-15.161 9.928-27.995 23.633-32.384-.136-2.362-.536-4.531-.945-6.3-.206-.9-.144-2.11.104-3.511zM110.242 74.329a34.28 34.28 0 0 1 8.805 7.451l8.238-5.16a43.818 43.818 0 0 0-17.307-13.214c.607 3.86.83 7.713.264 10.923z"/></g><path d="M91.111 38.525S80.26 58.811 81.675 64.944c1.416 6.132 2.832 16.983-7.076 24.532-9.907 7.548-6.605 29.249-.472 31.608 0 0-5.661-16.512 3.302-26.419 0 0 5.189 7.548 11.794.943 0 0 1.416 11.794 6.605 13.209 5.189 1.416 7.548-2.357 7.548-2.357s8.963 3.302 9.906 0c.943-3.303 5.662-3.775-3.302-10.852 0 0 .473-16.511-14.625-18.87 0 0-10.379-8.492-10.379-17.455 0-8.964 3.775-8.492 3.775-8.492s1.887 16.982 6.604 17.926c.001.001 3.776-1.413-4.244-30.192z" fill="#fff" stroke="#cd3529" stroke-width="3.774"/><path d="M102.433 73.436s-6.133-1.887 2.358-28.777c0 0 10.851 27.362 2.832 35.382 0 0 2.358-15.569-2.359-24.532-.001 0 2.359 15.097-2.831 17.927z" fill="#fff" stroke="#cd3529" stroke-width="3.774"/><path d="M91.111 38.525S80.26 58.811 81.675 64.944c1.416 6.132 2.832 16.983-7.076 24.532-9.907 7.548-6.605 29.249-.472 31.608 0 0-5.661-16.512 3.302-26.419 0 0 5.189 7.548 11.794.943 0 0 1.416 11.794 6.605 13.209 5.189 1.416 7.548-2.357 7.548-2.357s8.203 2.981 9.906 0c.63-1.102 1.348-5.249-3.302-10.852 0 0 .473-16.511-14.625-18.87 0 0-10.379-8.492-10.379-17.455 0-8.964 3.775-8.492 3.775-8.492s1.887 16.982 6.604 17.926c.001.001 3.776-1.413-4.244-30.192z" fill="#fff"/><path d="M102.433 73.436s-6.133-1.887 2.358-28.777c0 0 10.851 27.362 2.832 35.382 0 0 2.358-15.569-2.359-24.532-.001 0 2.359 15.097-2.831 17.927z" fill="#fff"/><path d="M96.929 88.375s.629.158 1.573 2.202c.943 2.044 2.358 2.832 4.089 1.572 1.729-1.258-.63-6.29-5.662-3.774z" fill="#cd3529"/></svg>