<svg xmlns="http://www.w3.org/2000/svg" width="2500" height="2500" viewBox="0 0 192.756 192.756"><g fill-rule="evenodd" clip-rule="evenodd"><path fill="#fff" d="M0 0h192.756v192.756H0V0z"/><path fill="#327bb5" d="M88.166 134.668h28.584V88.166H88.166v46.502z"/><path fill="#327bb5" d="M162.826 134.883V88.166h17.705V62.14h-63.994v26.026h17.705v46.717h28.584zM50.621 136.375c18.132 0 33.278-12.373 37.331-29.012H61.074c-2.56 2.773-6.186 4.48-10.453 4.48-7.679 0-14.079-6.186-14.079-14.08 0-7.679 6.4-14.078 14.079-14.078 4.267 0 7.893 1.707 10.453 4.693h26.878c-4.053-16.853-19.199-29.012-37.331-29.012-21.119 0-38.397 17.279-38.397 38.397 0 21.333 17.278 38.612 38.397 38.612z"/><path fill="#589775" d="M88.166 88.378V56.381h34.77l-34.77 31.997z"/></g></svg>