<svg height="200pt" viewBox="0 0 200 200" width="200pt" xmlns="http://www.w3.org/2000/svg"><path d="M0 100v100h200V0H0zm156.3-38.5c4.4 1.8 7.7 5.9 7.7 9.4-.1 1.8-1.4 3.6-4.5 6.1-18.7 14.9-32.4 28.5-32.5 32 0 1.4 10.6 11.2 19.1 17.8 5.2 4 11.9 9.4 14.9 12.1 5.1 4.6 5.4 5.1 4.5 7.7-.7 1.9-2.5 3.7-5.5 5.2l-4.5 2.2-53.2-.2c-52.7-.3-53.3-.3-55.4-2.4-2-2.1-2.1-2.7-2-42.2.1-22 .4-40.9.8-41.9.9-2.5 3.1-4.6 6.2-6 1.9-.8 16.5-1.2 51.7-1.2 41.2-.1 49.7.1 52.7 1.4z"/><path d="M106.4 85.2c-1.1 1.3-7.1 7.1-13.4 13L81.7 109l2.4 1.9c1.3 1 7 5.6 12.7 10.1l10.3 8.2-3.1-6c-5.5-10.6-5-20.7 1.5-33.5 1.9-3.7 3.3-6.7 3.1-6.7-.1 0-1.1 1-2.2 2.2z"/></svg>