<svg xmlns="http://www.w3.org/2000/svg" width="2500" height="2500" viewBox="0 0 192.756 192.756"><g fill-rule="evenodd" clip-rule="evenodd"><path fill="#fff" d="M0 0h192.756v192.756H0V0z"/><path d="M96.575 51.228c-48.681 0-88.07 22.11-88.07 44.035 0 4.831 2.044 6.69 2.044 6.69-3.345-13.75 7.061-21.554 7.061-21.554 12.82-12.634 44.221-21.553 78.78-21.553 39.018 0 74.506 10.776 83.797 26.384 0 0 17.836 26.012-43.85 35.674 0 0-37.717 5.201-47.937 20.623 7.433-5.574 38.089-9.289 38.089-9.289 30.844-4.459 54.254-20.811 56.855-33.816.371-1.115.557-2.044.744-3.159 3.158-21.739-38.834-44.035-87.513-44.035z" fill="#32428b"/><path d="M36.932 95.635l4.459 1.486c-.372 1.486-.743 2.787-1.486 3.717-.557.928-1.301 1.672-2.416 2.229-.929.559-2.043.744-3.53.744-1.858 0-3.159-.373-4.459-.93-1.115-.557-2.044-1.672-2.787-3.158-.929-1.672-1.3-3.531-1.3-5.946 0-3.159.743-5.574 2.229-7.432 1.486-1.672 3.53-2.416 6.131-2.416 2.044 0 3.716.372 4.831 1.486 1.115.929 2.044 2.416 2.602 4.459l-4.459 1.115c-.186-.558-.372-.929-.557-1.301a2.242 2.242 0 0 0-.929-.929c-.372-.372-.929-.372-1.486-.372-1.115 0-1.858.558-2.601 1.487-.372.929-.558 2.229-.558 3.902 0 2.044.186 3.53.743 4.274.558.928 1.301 1.301 2.229 1.301 1.115 0 1.858-.373 2.23-.93.557-.743.928-1.671 1.114-2.786zM43.807 84.115h5.016v14.678h7.99v4.645H43.807V84.115z" fill="#32428b"/><path fill="#8b8e9c" d="M59.228 84.115h5.203v19.323h-5.203V84.115zM72.978 88.017h1.486c.929 0 1.672.372 1.858.744.372.371.558.929.558 1.486 0 .743-.186 1.115-.558 1.486-.371.558-1.115.743-2.044.743h-1.3v-4.459zm-5.017 15.421h5.017v-7.06h2.787c2.044 0 3.53-.557 4.646-1.672.929-1.115 1.486-2.601 1.486-4.645 0-1.858-.558-3.345-1.486-4.273-.929-1.115-2.229-1.672-4.088-1.672h-8.361v19.322h-.001zM95.459 95.635l4.273 1.486a9.695 9.695 0 0 1-1.301 3.717c-.742.928-1.486 1.672-2.415 2.229-.929.559-2.229.744-3.53.744-1.858 0-3.345-.373-4.459-.93s-2.043-1.672-2.973-3.158c-.743-1.672-1.115-3.531-1.115-5.946 0-3.159.743-5.574 2.044-7.432 1.486-1.672 3.53-2.416 6.131-2.416 2.044 0 3.717.372 4.831 1.486 1.3.929 2.23 2.416 2.787 4.459l-4.458 1.115c-.186-.558-.372-.929-.558-1.301-.372-.372-.557-.743-1.115-.929-.372-.372-.743-.372-1.3-.372-1.115 0-2.044.558-2.602 1.487-.558.929-.743 2.229-.743 3.902 0 2.044.372 3.53.929 4.274.372.928 1.301 1.301 2.229 1.301.93 0 1.673-.373 2.23-.93.372-.743.744-1.671 1.115-2.786zM107.537 89.689c.742-.929 1.486-1.301 2.602-1.301.928 0 1.857.372 2.414 1.301.744.743.93 2.044.93 3.902 0 2.23-.186 3.716-.744 4.46-.742.928-1.486 1.301-2.6 1.301-1.115 0-1.859-.559-2.602-1.301-.559-.93-.93-2.23-.93-4.274 0-1.859.372-3.345.93-4.088zm-4.832 9.848c.744 1.486 1.859 2.602 2.975 3.158 1.299.742 2.787 1.115 4.645 1.115s3.344-.373 4.459-1.301c1.301-.744 2.229-1.857 2.787-3.344.742-1.301 1.115-3.16 1.115-5.575 0-2.973-.744-5.388-2.23-7.246-1.486-1.672-3.717-2.416-6.316-2.416-2.787 0-4.832.743-6.318 2.602-1.486 1.672-2.229 4.087-2.229 7.246-.001 2.23.37 4.275 1.112 5.761zM121.285 84.115h6.69l2.416 11.891 2.601-11.891h6.688v19.323h-4.086V88.76l-3.346 14.678h-3.715l-3.16-14.678v14.678h-4.088V84.115zM142.84 84.115h6.687l2.602 11.891 2.416-11.891h6.687v19.323h-4.086V88.76l-3.16 14.678h-3.9l-3.16-14.678v14.678h-4.086V84.115z"/></g></svg>