<svg xmlns="http://www.w3.org/2000/svg" width="2500" height="2500" viewBox="0 0 192.756 192.756"><g fill-rule="evenodd" clip-rule="evenodd"><path fill="#fff" d="M0 0h192.756v192.756H0V0z"/><path d="M24.96 8.504h142.834c5.574 0 10.133 4.561 10.133 10.133v155.482c0 5.573-4.561 10.133-10.133 10.133H24.96c-5.572 0-10.132-4.56-10.132-10.133V18.637c0-5.574 4.56-10.133 10.132-10.133z"/><path d="M25.627 10.486h141.621c4.842 0 8.801 3.96 8.801 8.801v154.236c0 4.84-3.959 8.801-8.801 8.801H25.627c-4.841 0-8.801-3.961-8.801-8.801V19.287c.001-4.84 3.961-8.801 8.801-8.801z" fill="#fff"/><path d="M88.668 94.276l13.398.137v-7.177h-10.32v-1.731h12.111v8.21l15.426-6.36c-.695-3.312-1.523-6.624-3.268-9.935.326-2.44.895-4.88 1.568-7.321 1.875.937 3.965 1.547 6.535 1.438 2.77.372 4.99-1.328 6.014-7.582.773-4.16.271-8.039-2.092-11.502-2.529-3.79-4.141-7.887-5.621-12.026-2.439-1.397-5.184-1.569-7.973-1.568-2.783-1.308-5.568-1.396-8.352-1.308.273-1.008.297-2.079 0-3.007-.482-1.507-2.453-2.161-3.973-2.594a43.27 43.27 0 0 0-2.482-.648c.494-7.329-1.236-13.501-6.353-16.661-1.748-1.079-3.5-1.829-5.212-2.287h77.225c4.721 0 8.584 3.723 8.584 8.273v63.229a43.2 43.2 0 0 0-.234-.992c-.762-3.022-5.611-5.667-12.467-5.667-5.51 0-9.982 1.66-11.715 3.918l12.174-.18c4.285-.106 5.227 1.624 4.648 4.191l-.092 14.581c.424 2.097-.242 3.342-2.006 3.736-6.059.986-10.852 1.971-16.711 2.957a2.61 2.61 0 0 0 .023-.354v-22.08l-.002-.09v-.002-.013l-.002-.007c0-.029-.002-.06-.004-.088v-.01-.005l-.002-.002a1.28 1.28 0 0 0-.008-.089v-.008l-.002-.022a4.545 4.545 0 0 0-.02-.128c0-.011-.004-.023-.004-.034l-.01-.045v-.005l-.023-.111-.002-.004-.006-.03a.138.138 0 0 0-.008-.027v-.002l-.008-.03c-.018-.062-.035-.125-.055-.187l-.014-.037a3.448 3.448 0 0 0-.445-.857c-.947-1.336-4.111-2.258-6.342-2.258h-5.559c-3.152 0-5.732 1.842-5.732 4.091v20.52H88.668v-10.21zm58.225-12.141zm25.695 2.43c.818 0 1.486 3.882 1.486 8.642s-.668 8.642-1.486 8.642-1.488-3.882-1.488-8.642.67-8.642 1.488-8.642z" fill="#cc2229"/><path d="M27.475 12.355h52.56c-6.253 1.82-10.511 7.963-9.464 15.808 2.93-.973 6.092-2.094 9.256-2.974 3.846-1.069 8.925-1.878 12.765-2.971.724-.206 1.582-.585 2.126-1.405.973-1.458 3.014-1.286 2.85.12-.197 1.711-.133 3.414 0 5.138.105 1.375.23 2.991-1.444 3.935-4.347 2.45-9.258 3.912-14.371 5.057-2.876.645-6.375 1.183-9.244 1.189.722 2.381 1.593 4.673 2.631 6.303-.78 1.642-1.068 3.435-.343 4.883.042.085.087.167.134.248a12.606 12.606 0 0 0-2.315 1.893c-2.049 1.87-3.925 4.046-4.576 8.365.34 2.495 1.435 4.232 2.483 6.013-1.612 2.223-2.57 4.445-2.09 6.667-.436 1.699-.348 3.398.262 5.098-1.002.653-1.657 1.307-1.961 1.96-3.972-3.371-5.495-1.23-6.667 1.699-.088 1.83-.088 3.661.523 5.49h8.758c-.043.567-.086 1.133-.131 1.7h-8.496c.548 2.228 1.269 4.455 2.355 6.684h12.366c.265-7.337-1.212-13.978-3.879-20.143.644-7.163 1.849-13.396 3.73-18.501 1.648-2.245 4.997-4.592 9.116-6.425 2.994-.257 5.588.003 8.788.158 4.462 2.708 8.796 5.409 9.103 7.908-.998 6.565-2.697 13.129-4.328 19.695-4.238 2.721-8.29 9.012-12.235 17.308l15.071.15c6.465-2.952 12.932-5.692 19.395-8.057 4.557-.975 7.023.14 8.059 2.685 1.145 5.172 2.287 10.345 3.432 15.518.859 1.485-.334 2.529-3.582 3.133-9.945 1.894-19.893 3.311-29.842 4.029-13.425.927-26.703.828-39.836-.299-10.899-.954-17.112-2.384-23.317-5.101.488-5.083 1.168-9.973 2.537-14.173.895-4.503 4.367-5.139 8.206-5.223 3.688 1.807 5.463 3.043 8.856 4.851-.032-2.989-.362-5.904-1.051-8.728-.738-3.029-5.61-5.667-12.467-5.667-4.838 0-8.878 1.281-10.962 3.122a7.432 7.432 0 0 0-3.028-.623h-3.559c-1.976 0-3.726.722-4.758 1.815v-60.06c-.001-4.548 3.862-8.272 8.584-8.272z" fill="#33a457"/><path d="M23.486 175.612l-.94.833h-2.465l-.94-.833v-4.478l.94-.841h2.465l.94.841v1.749h-1.814v-.969h-.726v2.919h.726v-.985h1.814v1.764zm5.708.833h-2.462v-1.611h.291l-.049-.555h-.8l-.058.555h.296v1.611H23.95v-1.611h.427l.472-2.919h-.361v-1.621h4.168v1.621h-.364l.479 2.919h.423v1.611zm-2.371-3.392l-.136-1.138h-.242l-.119 1.138h.497zm9.535 3.392h-2.537v-1.611h.361v-1.799l-.763 1.582h-.992l-.776-1.595v1.812h.366v1.611h-2.541v-1.611h.361v-2.919h-.361v-1.621h2.487l.96 2.076.946-2.076h2.488v1.621h-.361v2.919h.361v1.611h.001zm5.059-2.942l-.939.834h-1.591v.497h.364v1.611h-2.539v-1.611h.361v-2.919h-.361v-1.621h3.767l.939.841v2.368h-.001zm-1.805-.778v-.81h-.726v.81h.726zm6.78 3.72h-4.706v-1.611h.361v-2.919h-.361v-1.621h4.706v2.176h-1.806v-.555h-.726v.765h1.272v1.378H43.86v.776h.726v-.555h1.806v2.166zm4.882-.833l-.939.833H47.87l-.939-.833v-4.478l.939-.841h2.465l.939.841v4.478zm-1.814-.778v-2.919h-.726v2.919h.726zm8.319-2.919h-.361v4.53h-1.716l-1.723-2.893v1.281h.366v1.611h-2.541v-1.611h.361v-3.238h-.361v-1.302H54l1.604 2.696v-1.075h-.361v-1.621h2.536v1.622zm5.466 4.53h-2.462v-1.611h.291l-.049-.555h-.799l-.058.555h.295v1.611H58v-1.611h.427l.472-2.919h-.361v-1.621h4.168v1.621h-.364l.479 2.919h.423v1.611h.001zm-2.372-3.392l-.136-1.138h-.242l-.12 1.138h.498zm7.649-.49h-1.371v-.648h-.255v2.919h.361v1.611h-2.528v-1.611h.353v-2.919h-.247v.648h-1.374v-2.27h5.061v2.27zm4.819 3.049l-.939.833h-2.465l-.94-.833v-4.478l.94-.841h2.465l.939.841v4.478zm-1.813-.778v-2.919h-.726v2.919h.726zm11.215 1.611h-2.536v-1.611h.361v-1.799l-.764 1.582h-.991l-.776-1.595v1.812h.366v1.611h-2.541v-1.611h.361v-2.919h-.361v-1.621h2.487l.959 2.076.947-2.076h2.487v1.621h-.361v2.919h.361v1.611h.001zm5.059 0h-4.706v-1.611h.361v-2.919h-.361v-1.621h4.706v2.176h-1.806v-.555h-.726v.765h1.272v1.378H85.27v.776h.726v-.555h1.806v2.166zm5.348 0h-2.381v-1.611h.25l-.402-.473-.394.473h.249v1.611h-2.384v-1.611h.308l1.321-1.466-1.321-1.453h-.308v-1.621h2.384v1.621h-.249l.394.464.402-.464h-.25v-1.621h2.381v1.621h-.312l-1.312 1.453 1.312 1.466h.312v1.611zm2.824 0h-2.541v-1.611h.361v-2.919h-.361v-1.621h2.541v1.621h-.366v2.919h.366v1.611zm4.881-.833l-.941.833h-2.465l-.939-.833v-4.478l.939-.841h2.465l.941.841v1.749h-1.814v-.969h-.725v2.919h.725v-.985h1.814v1.764zm5.707.833H104.1v-1.611h.293l-.051-.555h-.799l-.057.555h.295v1.611h-2.463v-1.611h.428l.473-2.919h-.363v-1.621h4.17v1.621h-.365l.48 2.919h.422v1.611h-.001zm-2.371-3.392l-.137-1.138h-.242l-.119 1.138h.498zm8.629-1.138h-.361v4.53h-1.715l-1.723-2.893v1.281h.365v1.611h-2.541v-1.611h.361v-3.238h-.361v-1.302h2.195l1.605 2.696v-1.075h-.361v-1.621h2.535v1.622h.001zm4.817 3.697l-.939.833h-2.465l-.939-.833v-4.478l.939-.841h2.465l.939.841v4.478zm-1.813-.778v-2.919h-.727v2.919h.727zm9.039.778l-.939.833h-3.766v-1.611h.361v-2.919h-.361v-1.621h3.766l.939.841v4.477zm-1.804-.778v-2.919h-.727v2.919h.727zm7.048 1.611h-4.705v-1.611h.361v-2.919h-.361v-1.621h4.705v2.176h-1.805v-.555h-.727v.765h1.273v1.378h-1.273v.776h.727v-.555h1.805v2.166zm7.774 0h-2.527v-1.611h.131l-.857-.809v.809h.365v1.611h-2.541v-1.611h.361v-2.919h-.361v-1.621h2.502v1.621h-.326v.599l.824-.599h-.283v-1.621h2.535v1.621h-.295l-1.645 1.203 1.83 1.716h.287v1.611zm5.473 0h-2.461v-1.611h.291l-.051-.555h-.799l-.057.555h.295v1.611h-2.463v-1.611h.428l.473-2.919h-.361v-1.621h4.168v1.621h-.365l.48 2.919h.422v1.611zm-2.372-3.392l-.135-1.138h-.242l-.121 1.138h.498zm7.723 3.392h-2.168v-2.108h-.725v.497h.363v1.611h-2.539v-1.611h.361v-2.919h-.361v-1.621h3.766l.941.841v2.058l-.354.336.354.336v.97h.361v1.61h.001zm-2.168-3.72v-.81h-.725v.81h.725zm7.43-.162h-1.371v-.648h-.256v2.919h.361v1.611h-2.527v-1.611h.354v-2.919h-.248v.648h-1.373v-2.27h5.061v2.27h-.001zm2.83 3.882h-2.541v-1.611h.361v-2.919h-.361v-1.621h2.541v1.621h-.365v2.919h.365v1.611zm4.883-.833l-.941.833h-2.465l-.939-.833v-1.156h1.805v.378h.727v-.657h-1.732l-.799-.673v-2.369l.939-.841h2.465l.941.841v1.142h-1.814v-.361h-.727v.649h1.777l.764.681v2.366h-.001zm7.41.833h-2.537v-1.611h.361v-1.799l-.764 1.582h-.99l-.777-1.595v1.812h.367v1.611h-2.541v-1.611h.361v-2.919h-.361v-1.621h2.486l.959 2.076.947-2.076h2.488v1.621h-.361v2.919h.361v1.611h.001zm4.883-.833l-.939.833h-2.465l-.941-.833v-4.478l.941-.841h2.465l.939.841v4.478zm-1.815-.778v-2.919h-.725v2.919h.725z" fill="#cc2229"/><path d="M57.953 157.323l-8.196 7.703H28.26l-8.196-7.703v-41.391l4.667-4.423h2.515l.634-.021.672-.066.671-.111.665-.157.656-.203.645-.251.63-.303.61-.355.584-.412.553-.473.513-.534.353-.457h.938l.161.06.671.238.683.234.695.229.708.224.718.219.731.213.745.209.757.202.768.197.783.192.795.188.81.181.822.176.835.17.85.165.863.159.877.153.892.147.906.142.921.136.935.13.95.124.945.116 3.761 3.564v16.171H42.135v-8.959h-6.327v26.98h6.327v-9.102h15.817v16.299h.001zm64.625 7.703h-22.121v-14.901h3.152v-16.623l-6.657 14.616h-8.648l-6.767-14.733v16.74h3.188v14.901H62.57v-14.901h3.151v-26.98H62.57v-10.028c8.171.542 16.239.688 24.072.508l5.986 13.728 6.151-14.292.605-.046.943-.074.941-.078.943-.082.941-.087.943-.09.941-.094.941-.099.943-.102.941-.105.941-.109.941-.112.941-.116.941-.12c10.154-1.334 4.457-.498 10.947-1.644v13.043h-3.152v26.98h3.152v14.9h.006zm50.42 0h-22.035v-14.901h1.137l-7.477-7.471v7.471h3.189v14.901h-22.158v-14.901h3.152v-26.98h-3.152v-13.587l.084-.015.939-.172.938-.174.943-.178.293-.058.297-.062.287-.064.195-.048.033.062.396.585.453.53.5.479.547.428.58.377.615.329.646.28.674.233.697.184.721.133.74.081.715.026h3.643l.668-.023.695-.071.676-.116.658-.161.637-.204.613-.247.588-.289.561-.33.529-.375.494-.418.455-.463.316-.392v13.72h-2.859v5.541l7.195-5.541h-2.469v-14.786l.242-.041.303-.052.307-.052.285-.049h.098l.24.132.293.15.303.147.307.142.314.136.32.132.326.125.33.119.338.116.344.109.348.104.355.101.361.095.365.089.371.083.375.079.381.073.387.067.391.062.395.057.4.052.406.045.408.039.412.034.418.028.422.021.426.016.428.009.439.004.689-.009.684-.024.67-.041.66-.057.646-.072.635-.087.621-.102.609-.116.594-.13.58-.145.564-.157.553-.172.537-.185a20.095 20.095 0 0 0 2.229-.964v14.873h-2.578l-14.34 11.121 15.953 15.859h2.504v14.903h.003z"/></g></svg>