<svg xmlns="http://www.w3.org/2000/svg" width="2500" height="456" viewBox="0 0 725.184 132.264"><path d="M219.024 39.672l.864 2.808 1.368 2.736 1.872 2.232 2.376 2.016 2.592 1.368 2.952.936 1.512.216 1.656.144 2.232-.144 2.088-.288 2.16-.72 2.088-.864.792-.432.36-.36.216-.576.144-.864.216-3.816-.072-.504-.504-.144-.432.288-.504.936-1.368 2.448-1.08 1.44-1.44 1.152-.936.432-.936.36-1.152.216-1.296.144-1.44-.144-1.296-.216-1.224-.432-1.08-.576-1.08-.72-1.08-.864-1.728-2.088-1.296-2.088-.936-2.232-.576-2.52-.144-2.448.144-2.592.576-2.592.936-2.304 1.296-2.16 1.656-1.728 2.088-1.296 1.224-.504 1.152-.288 1.368-.288 1.44-.072 2.448.216 1.872.72 1.44.936 1.08 1.152 1.296 2.016.288.72.504.216.432-.144.144-.432-.36-3.096-.216-1.512-.36-.432-.792-.36-3.672-.936-2.016-.36h-3.384l-1.512.216-3.096.792-2.808 1.44-2.448 1.872-1.08 1.08-.936 1.152-.792 1.296-.72 1.296-.576 1.44-.504 1.512-.216 1.512-.072 1.656.072 1.512.216 1.512zM267.768 105.624h-1.296l-1.296-.217-.648-.287-.288-.288-.216-.144-.432-.936-.288-1.296-.072-2.376V70.776l.072-1.152.504-.936.432-.36.144-.072.72-.144h1.512l1.08-.143.36-.362.216-.575-.216-.432-.504-.288h-8.424l-1.08.144-.36.216-.36.504-13.464 30.815-11.88-29.735-.504-1.296-.432-.504-.72-.144h-8.784l-.504.288-.216.432.216.575.36.362 1.08.143 1.944.144.72.216.504.216.216.504.144.648v2.015l-2.016 28.8-.216 2.16-.288.792-.36.721-.432.575-.72.361-.936.215-1.152.145-1.08.144-.432.215-.144.433v.359l.216.216.864.145 5.76-.216 5.832.216h.936l.36-.216.144-.504-.288-.576-.432-.216h-1.296l-1.512-.217-1.224-.359-.792-.72-.432-.936-.36-1.08v-4.104l1.872-26.784h.432l12.96 33.048.216.792.36.36.36.144.36-.144.216-.36.36-.72 14.544-33.84h.504v29.376l-.144 2.376-.216 1.296-.36.432-.36.504-.576.36-.864.216-1.656.36h-1.224l-.504.216-.216.576.072.359.36.216.72.145 7.848-.216 3.168.071 3.096.145.792-.145.216-.216.144-.359-.144-.576-.576-.216zM725.039 100.008l-.359-1.44-.576-1.296-.504-.432-.576-.504-.936-.504-.938-.288-1.223-.072-.865-.072H714.6v11.736H720.36l1.152-.216 1.08-.504 1.008-.648.721-1.008.504-1.152.215-1.151.145-1.152-.146-1.297zm-1.152 2.519l-.359 1.225-.721 1.151-1.08.721-1.367.432-.432.072-1.08.071h-2.953v-9.863h2.953l1.08.071.432.072 1.367.36 1.08.792.721 1.08.359 1.296.072 1.296-.072 1.224zM288 46.584v1.944l-.144.576-.072.576-.36.36-.576.216-1.944.216h-.648l-.36.216-.144.36.216.504.648.216 4.68-.216 4.536.072 9.216.144.648-.072.36-.36.144-.648v-.792l.36-2.448.216-2.448-.072-.36-.144-.288h-.216l-.36.288-.288.36-.936 2.088-.648.936-.863.792-1.009.72-1.44.576-1.296.288-1.44.072-1.368-.072-.864-.216-.216-.072-.792-.432-.504-.504-.36-.792-.072-.864-.144-2.304V25.344l.144-.72.216-.432.36-.36.432-.216.936-.144 1.008-.144.792-.072.36-.144.072-.36-.072-.36-.144-.216-.576-.144-1.44.072-3.96.216-5.256-.288-.648.144-.216.576.144.36.36.144.648.072 1.944.288.576.216.36.36.216 1.152v21.24zM331.416 51.768l1.44-.072 1.512-.144H353.16l.144-.216.72-5.04.216-1.224-.144-.36-.36-.072-.36.072-.288.576-.36.864-.576 1.368-.864 1.08-.792.72-.936.576-1.08.36-1.296.144-2.736.072L342 50.4l-1.008-.144-.864-.36-.72-.576-.432-.72-.216-1.152-.144-1.44V37.8l.144-.936.288-.504.72-.072 1.224-.144 2.664.144 3.024.36.72.36.504.648.432 2.016.288.504.072.216.216.144.36-.144.288-.792-.288-4.392.288-4.104-.288-.36-.36-.072-.216.072-.072.144-.288.576-.432 2.088-.504.72-.36.36-.36.144-3.024.072h-3.888l-.72-.216-.288-.72-.144-1.296v-6.768l.144-1.296.072-.576.576-.36 1.8-.288h4.464l1.296.288 1.296.216.936.432.792.648.576.648.576 1.08.72 1.296.288.576.216.216.216.144.216-.144.144-.216.144-.576v-5.184l-.288-.432-.432-.288-12.096.288-8.856-.288-.576.288-.216.432.144.36.216.144.792.072 1.872.288.648.216.288.36.288 1.152v23.04l-.144.72-.144.432-.288.504-.648.216-1.872.216h-.792l-.216.216-.144.36v.288l.216.216.576.216zM358.344 42.048l.576 1.368.72 1.44.936 1.296 1.152 1.152 1.151 1.08 1.297.936 1.222.792 2.881 1.224 3.024.576 3.168.216 2.591-.144 2.594-.432 2.592-.864 2.231-1.152.576-.576.216-.432.145-1.44v-6.84l.072-.648.36-.648.718-.216.723-.144.934-.072.578-.144.215-.072.144-.36-.144-.288-.073-.216-.576-.072-4.969.216-5.039-.216-.72.072-.215.144-.145.36.145.36.215.216h.72l1.729.072.504.288.431.216.288.36.216.576.145 1.512v4.032l-.145 2.088-.216 1.08-.577.792-1.222.576-1.367.504-1.44.072-1.441.144-2.879-.216-2.739-.72-1.15-.576-1.152-.72-1.223-.936-1.01-1.08-1.584-2.088-.935-2.376-.576-2.52-.288-2.592.288-2.736.576-2.592 1.08-2.592 1.439-2.232.936-1.008 1.008-.864 1.08-.792 1.154-.504 2.59-.792 2.736-.216 1.512.072 1.152.288 2.016.576 1.439 1.008.938 1.08 1.152 2.088.36.72.431.216h.36l.216-.216.288-.72-.143-1.944-.145-1.872-.287-.72-.935-.576-1.801-.648-2.018-.432-3.742-.216h-1.728l-1.657.216-3.312.936-3.023 1.296-1.44.936-1.296.936-1.08 1.152-1.08 1.224-1.008 1.368-.72 1.44-.72 1.368-.504 1.656-.288 1.656V38.952l.288 1.584.504 1.512zM311.472 46.584v1.944l-.072.576-.288.576-.36.36-.432.216-1.872.216h-.864l-.36.216-.072.36.216.504.576.216 4.824-.216 13.608.216.72-.072.361-.36.143-.648.072-.792.216-2.448.288-2.448v-.36l-.144-.288h-.216l-.359.288-.217.36-1.08 2.088-.72.936-.72.792-1.152.72-1.296.576-1.368.288-1.44.072-1.44-.072-1.008-.288-.72-.432-.576-.504-.216-.792-.288-.864-.072-2.304v-18l.072-1.872v-.72l.288-.432.288-.36.648-.216 1.872-.288.72-.072.288-.144.144-.36v-.36l-.215-.216-.577-.144-5.4.288-5.328-.288-.576.144-.216.576.072.36.36.144.72.072 1.872.288.576.216.36.36.36 1.152v21.24zM394.775 46.512v1.872l-.07.72-.289.432-.361.504-.432.216-1.871.216h-.865l-.287.216-.143.36.143.288.072.216.576.216 1.584-.072 1.367-.144h18.936l.072-.216.721-5.04.217-1.224-.073-.36-.361-.072-.504.072-.215.576-.359.864-.721 1.368-.648 1.08-.866.72-1.007.576-1.08.36-1.151.144-2.881.072-2.447-.072-.937-.144-.791-.36-.719-.576-.506-.72-.215-1.152-.144-1.44V37.8l.144-.936.359-.504.721-.072 1.151-.144 2.738.144 3.023.36.574.36.504.648.577 2.016.074.504.287.216.215.144.361-.144.143-.792-.287-4.392.287-4.104-.143-.36-.361-.072-.215.072-.287.144-.074.576-.504 2.088-.432.72-.359.36-.36.144-3.023.072H399.744l-.721-.216-.359-.72-.144-1.296v-8.064l.287-.576.433-.36 1.871-.288h4.393l1.369.288 1.223.216 1.008.432.72.648.719.648.432 1.08.72 1.296.217.576.287.216.36.144.216-.144.073-.216v-5.76l-.073-.432-.504-.288-12.095.288-8.928-.288-.576.288-.215.432.143.36.287.144.865.072 1.871.288.432.216.361.36.359 1.152v21.168zM337.536 12.888l1.512.864 6.984 3.384.576.36.72.144.216-.144.144-.216-.144-.288-.216-.216-.648-.36-6.336-4.68-1.152-.792-.576-.36-.72-.144-.432.144-.36.216-.288.36-.072.432.216.72.576.576zM705.887 105.768h-.073l-4.248-10.369h-1.871v11.737h1.297V96.695l4.176 10.441h1.223l4.175-10.441v10.441h1.297V95.399h-1.871l-4.105 10.369zM497.303 81.863l-.43-2.088-.865-2.016-.936-1.8-1.152-1.656-1.297-1.583-1.512-1.584-1.654-1.297-1.656-1.152-1.873-.936-2.016-.936-2.088-.576-2.09-.504-2.23-.36-2.377-.072h-.072l-2.16.072-2.088.36-2.16.504-1.941.72-2.018.936-1.873 1.009-1.799 1.225-1.656 1.367-1.512 1.439-1.369 1.656-1.223 1.729-1.008 1.8-.721 2.016-.721 2.016-.359 2.088-.072 2.232.072 2.088.359 2.232.721 2.016.721 2.016 1.008 1.872 1.223 1.656 1.369 1.656 1.512 1.512 1.656 1.368 1.799 1.224 1.873 1.009 2.018.936 1.941.72 2.16.504 2.088.36 2.16.072h.072l2.377-.072 2.23-.36 2.09-.504 2.088-.576 2.016-.936 1.873-.936 1.656-1.152 1.654-1.44 1.512-1.439 1.297-1.584 1.152-1.8.936-1.872.865-2.017.43-2.088.361-2.231.143-2.232-.143-2.376-.361-2.235zM491.688 90l-.719 3.384-.432 1.656-.723 1.512-.936 1.512-1.078 1.584-1.154 1.368-1.439 1.224-1.367 1.009-1.584.936-1.584.72-1.799.576-1.729.288-1.873.072h-.217l-1.656-.072-1.799-.288-1.656-.432-1.727-.576-1.512-.864-1.441-1.08-1.439-1.151-1.297-1.296-1.008-1.513-.936-1.512-.721-1.656-.574-1.8-.865-3.456-.217-3.672.217-3.528.721-3.527.574-1.656.721-1.584.863-1.512 1.008-1.512 1.297-1.44 1.441-1.152 1.367-1.079 1.656-.793 1.654-.719 1.73-.433 1.941-.36 1.656-.144h.217l1.873.144 1.656.36 1.727.433 1.512.719 1.514.793 1.439 1.079 1.439 1.152 1.152 1.296 1.15 1.584.938 1.512.719 1.584.578 1.584.719 3.528.217 3.672-.214 3.526zM654.191 95.76h-.287l-.361.072-.287.288-.649 1.151-.863 1.657-1.01 1.872-1.584 1.872-.933.935-1.01.721-1.225.72-1.367.431-1.656.361-1.799.143-1.871-.143-1.873-.361-1.656-.719-1.584-.649-1.442-1.08-1.439-1.151-1.295-1.296-1.152-1.513-1.729-2.951-1.295-3.168-.72-3.312-.217-3.384.217-3.672.72-3.528 1.295-3.096.793-1.512.936-1.44L630 71.712l1.223-1.152 1.297-.936 1.511-.792 1.657-.72 1.656-.576 1.873-.288 1.943-.072 1.799.072 1.656.288 1.367.36 1.225.576 1.01.576.863.72 1.512 1.512.935 1.512.793 1.44.649.936.287.216.287.144.576-.288.072-.576-.431-4.176v-1.296l-.217-.864-.504-.721-1.08-.575-2.303-.72-2.808-.432-2.737-.504-2.447-.072-2.232.072-2.088.36-2.16.504-2.088.72-2.016.792-1.873 1.08-1.728 1.152-1.584 1.296-1.51 1.512-1.297 1.656-1.152 1.728-1.081 1.728-.793 2.016-.574 1.943-.361 2.233-.145 2.232.145 2.159.361 2.088.432 2.017.719 2.015.937 1.729 1.08 1.727 1.297 1.8 1.295 1.513 1.512 1.296 1.656 1.296 1.727 1.08 1.873.935 2.015.721 2.018.575 2.086.361 2.232.072 3.17-.216 2.951-.505 2.807-.792 2.953-1.151 1.008-.72.648-.505.215-.792.072-1.151.362-5.328-.074-.576-.288-.216zM570.6 97.416l-.577.216-.359.576-.576 1.296-.865 2.016-1.006 1.368-1.225 1.08-1.224.72-1.584.36-1.584.216-3.889.143h-3.455l-1.369-.287-1.08-.432-.934-.72-.723-1.153-.359-1.439-.072-2.017V87.983l.072-1.295.289-.36.215-.217 1.08-.359h1.584l3.674.144 2.23.072 2.016.36.432.287.503.361.577.936.433 1.296.287 1.367.217.721.215.216.506.143.43-.143.144-.361.145-.719-.36-6.048.36-5.689-.145-.359-.144-.072-.43-.144-.506.144-.215.215-.217.72-.287 1.513-.287 1.439-.723 1.008-.357.361-.578.144-4.246.359h-3.674l-1.584-.143-.648-.145-.432-.215-.215-.361-.289-.431-.072-1.8v-11.16l.361-.72.647-.576 1.08-.144 1.441-.072 2.447-.144 3.672.144 1.729.072 1.728.504 1.44.576 1.08.792.791 1.08.865 1.296.936 1.872.287.792.289.36.431.144.36-.144.144-.36.073-.936V67.248l-.217-.648-.36-.144-.359-.144-16.631.288-6.121-.144-6.121-.144-.791.288-.287.36-.072.288.214.504.504.217 1.01.143 1.438.144 1.152.072.721.36.431.576.36.72.146.937v31.606l-.146 1.009-.36.648-.431.576-.721.36-1.152.287h-1.438l-1.01.072-.504.289-.214.431.072.505.287.287.791.145 2.016-.145 2.017-.071H569.807l.216-.36.936-6.913.217-1.584-.072-.576-.504-.071zM617.688 66.6l-.719-.288-5.762.288-5.687-.288-.864.288-.217.36-.144.432.289.504.289.073 1.08.143 1.512.144 1.078.072.793.36.504.576.215.72.216.937v27.646L587.16 68.688l-1.08-1.44-.648-.576-.936-.36h-7.992l-1.08.144-.504.36-.072.576.214.504.362.073 1.08.143 1.512.144 1.08.072.791.36.433.576.287.72.073.937v31.751l-.073.935-.287.721-.433.575-.791.361-1.08.215-1.512.145h-1.08l-.504.144-.072.431v.505l.359.287.793.145 5.615-.216 5.76.216.865-.145.217-.287v-.505l-.146-.431-.432-.144h-1.078l-1.369-.145-1.225-.215-.646-.361-.506-.575-.36-.721v-.935l-.142-2.592V70.704l27.502 35.64.576.935.504.361.576.215.217-.143.144-.36v-33.84l.145-2.591.072-.792.215-.865.504-.432.793-.504 1.078-.072 1.512-.144 1.08-.143.361-.073.217-.504-.145-.432-.216-.36zM450 105.624h-1.152l-1.44-.217-.576-.287-.576-.432-.504-.936-.215-1.296v-31.68l.143-1.152.289-.936.646-.432.793-.144h1.512l1.08-.143.359-.362.073-.575-.215-.432-.434-.288h-8.494l-.937.144-.432.216-.361.504-13.391 30.815-11.879-29.735-.578-1.296-.359-.504-.793-.144h-8.711l-.504.288-.217.432.144.575.362.362 1.006.143 2.162.144.574.216.432.216.361.504.143.648-.143 2.015-2.018 28.8-.214 2.16-.073.792-.359.721-.504.575-.721.361-.935.215-1.153.145-1.152.144-.359.215-.217.433.072.359.217.216.719.145 5.759-.216 5.905.216h.937l.36-.216.214-.504-.214-.576-.649-.216h-1.224l-1.584-.217-1.006-.359-.865-.72-.577-.936-.216-1.08-.143-1.296.143-2.808 1.873-26.784h.431l12.817 33.048.359.792.217.36.359.144.506-.144.215-.36.359-.72 14.473-33.84h.432v29.376l-.073 2.376-.287 1.296-.217.432-.359.504-.721.36-.791.216-1.513.36h-1.295l-.576.216-.29.576.145.359.359.216.793.145 7.776-.216 6.193.216.863-.145.36-.216.072-.359-.215-.576-.576-.216zM536.184 105.624h-.936l-1.08-.145-.793-.359-.719-.433-.576-.576-1.08-1.655-.793-1.656-5.256-10.225-.721-1.296-.863-1.296-1.008-1.008-.721-.504-.719-.144 2.016-.433 1.871-.576 1.73-.936 1.584-1.225 1.295-1.367.936-1.656.648-1.8.289-2.016-.361-2.448-.721-2.017-1.295-1.727-1.514-1.441-1.871-1.08-2.16-.647-2.232-.504-2.23-.145-.506.072-5.109.072-5.545.144-6.408-.288-.865.288-.215.36-.145.288.287.504.361.217 1.008.144 1.512.144 1.08.072.863.359.434.576.217.721.143.937v31.751l-.143.936-.217.864-.434.432-.863.36-1.08.216-1.512.145h-1.008l-.361.216-.287.504.145.432.215.216.865.145 3.6-.145 3.744-.071 7.344.216.791-.145.217-.216.145-.432-.217-.504-.502-.216h-1.082l-1.367-.145-1.152-.216-.721-.36-.504-.432-.359-.864-.072-.792V88.703l.072-.721.289-.432.215-.288.359-.072h.793l2.951.072.936.288.723.432.719.576.143.288.434.648 1.367 2.735 6.338 12.816.861 1.368.576.575.793.145h6.984l.791-.145.217-.071.145-.504-.217-.433-.506-.356zm-17.352-20.232l-.434.072-1.727.216-2.088.072h-2.088l-.936-.36-.289-.36-.072-.432V72.936l.072-2.735.289-.937.359-.72.576-.288.936-.36 2.953-.144 1.943.144h.07l1.801.433 1.656.72 1.295 1.081 1.08 1.295.793 1.584.504 1.944.072 2.088-.072 1.8-.504 1.728-.936 1.656-1.369 1.296-1.943 1.225-1.941.646zM700.055 67.896l.216-.648-.144-.288-.145-.216-.214-.144-.936-.288L693 66.6l-5.977-.288-1.08.288-.359.36-.145.576.145.216.217.144.719.216h1.656l.793.144.935.072.719.576.217.36v.504l-.072.936-.504 1.008-1.153 1.944-8.927 13.535-10.008-14.615-.936-1.512-.361-.864-.215-.792.143-.504.216-.36.936-.288.936-.144h.937l1.15-.143.506-.217.143-.576-.143-.36-.217-.216-.863-.288-8.929.288-5.833-.288-.935.144-.359.36-.145.432.217.648.504.216h1.152l1.295.144 1.082.288.934.504.72.576 1.368 1.656 1.296 2.088 8.93 13.104.934 1.44.578 1.151.287 1.153V102.672l-.145.935-.216.865-.504.431-.791.361-1.08.215-1.512.145h-1.08l-.362.216-.214.504.144.431.215.216.793.145 3.672-.145 3.744-.071 7.271.216.864-.145.217-.216.144-.431-.289-.504-.432-.216h-1.08l-1.367-.145-1.08-.215-.793-.361-.504-.431-.215-.72-.216-.937V90.792l.072-1.152.576-1.153 1.08-1.655 8.137-12.024 1.367-2.087 1.799-2.233 1.008-1.008 1.08-.648 1.152-.504 1.439-.216 1.01-.143.574-.073h.073zM316.08 81.863l-.576-2.088-.72-2.016-.936-1.8-1.224-1.656-1.224-1.583-1.584-1.584-1.656-1.297-1.728-1.152-1.728-.936-2.016-.936-2.16-.576-2.088-.504-2.376-.36-2.232-.072-2.232.072-2.088.36-2.087.504-2.161.72-1.872.936-1.872 1.009-1.728 1.225-1.656 1.367-1.512 1.439-1.44 1.656-1.152 1.729-1.08 1.8-.792 2.016-.576 2.016-.36 2.088-.144 2.232.144 2.088.36 2.232.576 2.016.792 2.016 1.08 1.872 1.152 1.656 1.44 1.656 1.512 1.512 1.656 1.368 1.728 1.224 1.872 1.009 1.872.936 2.161.72 2.087.504 2.088.36 2.232.072 2.232-.072 2.376-.36 2.088-.504 2.16-.576 2.016-.936 1.728-.936 1.728-1.152 1.656-1.44 1.584-1.439 1.224-1.584 1.224-1.8.936-1.872.72-2.017.576-2.088.36-2.231.072-2.232-.072-2.376-.36-2.235zM310.392 90l-.648 3.384-.504 1.656-.72 1.512-.936 1.512-1.008 1.584-1.224 1.368-1.368 1.224-1.44 1.009-1.512.936-1.656.72-1.728.576-1.8.288-1.872.072h-.144l-1.728-.072-1.728-.288-1.8-.432-1.656-.576-1.512-.864-1.512-1.08-1.296-1.151-1.296-1.296-1.08-1.513-.936-1.512-.72-1.656-.648-1.8-.72-3.456-.216-3.672.216-3.528.72-3.527.576-1.656.721-1.584.792-1.512 1.08-1.512 1.296-1.44 1.296-1.152 1.512-1.079 1.656-.793 1.584-.719 1.8-.433 1.872-.36 1.728-.144h.144l1.8.144 1.728.36 1.728.433 1.584.719 1.512.793 1.368 1.079 1.44 1.152 1.152 1.296 1.224 1.584.792 1.512.864 1.584.576 1.584.648 3.528.288 3.672-.289 3.526zM274.752 48.744l1.152-.937 1.08-1.08.936-1.152.792-1.296.72-1.296.577-1.513.359-1.584.216-1.512.144-1.656-.144-1.728-.216-1.512-.359-1.512-.577-1.584-.72-1.296-.792-1.296-.936-1.152-1.08-1.08-2.447-1.728-2.881-1.44-3.024-.792-3.312-.215h-1.584l-1.584.215-1.512.36-1.512.576-2.736 1.44-2.448 1.872-1.152 1.008-.936 1.224-.936 1.296-.721 1.296-.576 1.368-.36 1.512-.36 1.584-.144 1.584.144 1.583.36 1.512.36 1.512.576 1.439.721 1.296.936 1.224.936 1.224 1.152 1.152 2.448 1.872 2.736 1.44 3.023.792 1.584.217 1.584.144 3.312-.361 3.024-.792 2.881-1.296 1.296-.932zm-5.328.792l-2.448.936-1.296.216h-1.44l-2.52-.216-2.375-.792-2.232-1.295-1.08-.864-.792-.936-1.512-2.232-.936-2.448-.648-2.592-.072-2.592.072-2.52.504-2.592.936-2.376 1.44-2.232.936-.936.936-.936 2.232-1.44 2.592-.792 2.52-.216h.144l2.592.216 2.376.792 2.088 1.44 1.872 1.728 1.512 2.232.937 2.376.503 2.591.072 2.665-.072 2.592-.503 2.376-.937 2.376-1.296 2.232-1.872 1.872-2.233 1.367zM399.6 63.864l-.36-.072-.361.072-.359.216-.217.72-.36.576-.359.504-.938.432h-27.718l-.793-.072-.719-.36-.434-.72-.142-.72-.145-.432-.431-.216-.36.072-.216.144-.29.72-2.519 8.424-.287.72V75.24l.504.288.431-.288.504-.288.576-1.008 1.081-1.728 1.152-1.44 1.152-1.008 1.297-.72 1.295-.504 1.656-.216 3.742-.216h1.297l.938.144.359.072.143.36.217 1.296v32.688l-.145.935-.287.865-.504.431-.721.361-1.152.215-1.439.145h-1.008l-.504.216-.145.504.145.431.215.216.72.145 3.744-.145 3.817-.071 7.271.216.649-.145.287-.216.072-.431-.072-.504-.504-.216h-1.008l-1.584-.145-1.008-.215-.72-.361-.576-.431-.288-.72-.07-.937V69.408l.07-.576.288-.36.361-.216.431-.144h6.913l1.439.216 1.297.504 1.152 1.008.574.936.649 1.224.648 2.232.287.576.217.215.217.145.504-.145.217-.215.072-.72.357-7.992.145-1.368-.215-.72-.144-.144zM361.728 66.6l-.792-.288-5.616.288-5.76-.288-.864.288-.216.36-.144.432.288.504.288.073 1.08.143 1.512.144 1.08.072.792.36.504.576.216.72.288.937v27.646L331.2 68.688l-1.08-1.44-.648-.576-.936-.36h-7.992l-1.08.144-.432.36-.144.576.216.504.36.073 1.08.143 1.512.144 1.08.072.792.36.504.576.216.72.072.937v31.751l-.072.935-.216.721-.504.575-.792.361-1.08.215-1.512.145h-1.08l-.432.144-.144.431v.505l.361.287.791.145 5.688-.216 5.688.216.864-.145.216-.287v-.505l-.144-.431-.432-.144h-1.08l-1.368-.145-1.223-.215-.649-.361-.504-.575-.36-.721-.072-.935V70.704l27.432 35.64.576.935.504.361.432.215.36-.143.144-.36v-33.84l.144-2.591.072-.792.288-.865.432-.432.792-.504 1.08-.072 1.44-.144 1.152-.143.36-.073.216-.504-.072-.432-.288-.36zM130.032 59.544l-.359-3.312-.577-3.168-.72-3.312-.792-3.168-1.08-3.024-1.08-3.024-1.944-4.392-2.376-4.176-2.592-4.032-2.808-3.744-3.168-3.528-3.384-3.312-3.672-3.024-3.744-2.808-4.032-2.592-4.176-2.232-4.392-1.872-4.463-1.656-4.537-1.296-4.751-.936L70.704.36 65.88 0h-1.369l-1.656.144-3.167.216-4.824.576-4.607.936-4.537 1.296-4.463 1.656-4.393 1.872-4.176 2.232-4.032 2.592-3.744 2.808-3.6 3.024-3.456 3.312-3.024 3.528-2.952 3.744-2.593 4.032-2.304 4.176-1.943 4.392-2.232 6.048-1.512 6.48-.937 6.48L0 66.24v3.24l.288 3.312.432 3.312.504 3.096.648 3.312.864 3.024 1.008 3.168 1.296 2.951 1.584 3.601 1.872 3.672 2.088 3.384 2.376 3.312 2.592 3.312 2.664 3.024 2.952 2.808 3.024 2.736 3.312 2.592 3.384 2.304 3.528 2.088 3.528 1.944 3.744 1.512 3.816 1.368 3.744 1.08 3.888.792 5.4.864 4.32.216h3.528l5.543-.216 5.4-.864 3.816-.792 3.816-1.08 3.744-1.368 3.744-1.512 3.672-1.944 3.384-2.088 3.384-2.304 3.312-2.592 3.024-2.736 2.953-2.808 2.808-3.024 2.448-3.312 2.376-3.312 2.088-3.384 1.944-3.672 1.584-3.601 1.224-2.951 1.008-3.168.864-3.024.72-3.312.937-6.407.216-6.552-.144-3.456-.217-3.241zm-20.52 42.768l-2.736 3.168-3.024 2.952-3.096 2.736-3.384 2.447-3.384 2.232-3.671 2.016-3.745 1.729-3.888 1.439-3.888 1.152-4.104.792-4.104.576-4.104.288h-4.248l-4.32-.36-4.248-.864-5.04-1.296-4.968-1.728-4.68-2.088-4.464-2.592-3.384-2.376-3.168-2.593-2.952-2.808-2.664-2.952-2.592-3.168-2.232-3.24-2.016-3.456-1.728-3.527v-.217l.072-.216.576-.144 3.456-1.008 3.24-1.225 6.48-2.664 6.336-3.168 6.12-3.527 3.96-2.521 3.888-2.951 3.744-3.312 3.528-3.24h.36l5.904 5.832 1.512 1.296 4.824 4.032 3.312 2.592 3.384 2.448 3.528 2.231 3.528 2.16 3.6 2.017 3.672 1.872 3.744 1.728 3.888 1.512 3.888 1.44 3.888 1.152 3.96 1.079 3.96.937-2.52 3.386zm12.672-33.12l-.288 3.528-.576 3.455-.72 3.384-.792 3.384-1.152 3.312-1.296 3.168-1.44 3.023-1.944-.792-2.016-.936-3.096-1.8-3.023-1.944-2.953-2.16-2.952-2.231-2.88-2.305-5.328-5.039-5.04-5.4-4.464-5.76-4.104-6.048-3.527-6.48L71.568 45l-2.016-5.112-1.873-5.255-1.512-5.4-1.296-5.4v-.36l-.144.36-.216 4.248-.576 4.104L63 36.144l-.144.432-1.08 3.456-1.512 3.888-1.656 3.744-1.944 3.528-2.232 3.528-2.52 3.312L49.32 61.2l-2.808 3.023-3.024 2.809-3.168 2.735-3.456 2.448-3.456 2.376-3.672 1.944-4.32 1.8-2.376.863-2.448.721-2.448.216-2.376-.145-1.152-.216-1.224-.504-1.008-.576-1.081-.791-1.152-1.584-.864-1.872-.576-1.872-.503-2.015-.216-4.104v-4.248l.216-2.664.288-2.16.432-2.52 1.512-5.544 1.8-5.256.937-2.16.792-1.656 2.016-3.744 2.232-3.6 2.592-3.312 2.736-3.168 3.024-2.953 3.168-2.664 3.312-2.376 3.527-2.231 3.601-1.872 3.888-1.8 3.888-1.296 4.104-1.152 4.104-.792 4.248-.504 2.448-.145 1.872-.071 4.32.144L72.576 9l3.528.648 3.528.648 3.456 1.08 3.384 1.296 3.24 1.44 3.312 1.728 3.096 1.872L99 19.728l2.952 2.232 2.736 2.448L107.136 27l2.448 2.736 2.232 2.88 2.016 3.096 1.728 3.168 1.656 3.024 1.295 3.168 1.152 3.312.936 3.312.72 3.384.576 3.528.288 3.528.072 3.528-.071 3.528z"/></svg>