<svg xmlns="http://www.w3.org/2000/svg" width="1599" height="2500" viewBox="0 0 407.25 636.752"><path d="M407.25 318.377c0 175.834-91.16 318.375-203.625 318.375C91.167 636.752 0 494.211 0 318.377S91.167 0 203.625 0C316.09 0 407.25 142.543 407.25 318.377z" fill="#fff"/><path d="M376.875 318.377c0 159.055-77.562 288-173.25 288-95.683 0-173.25-128.945-173.25-288 0-159.058 77.568-288.002 173.25-288.002 95.687 0 173.25 128.944 173.25 288.002z" fill="#958464"/><path d="M370.125 318.377c0 155.328-74.541 281.25-166.5 281.25-91.953 0-166.5-125.922-166.5-281.25 0-155.33 74.547-281.252 166.5-281.252 91.959 0 166.5 125.922 166.5 281.252z" fill="#fff"/><path d="M331.875 153c-12.006 0-28.062 11.236-46.656 24.249-20.686 14.47-44.127 30.876-62.469 30.876-15.814 0-30.445-8.803-47.386-18.996-22.447-13.506-47.892-28.817-84.239-28.817H65.25v49.5h18.562v228.701l119.813 64.521 119.812-64.521V204.42c3.137-1.226 5.977-1.92 8.438-1.92h2.25V153h-2.25z" fill="#958464"/><path d="M289.086 182.779c-21.498 15.045-45.867 32.095-66.336 32.095-17.688 0-33.803-9.696-50.864-19.962-21.698-13.054-46.288-27.851-80.761-27.851H72v14.625h19.125c36.347 0 61.792 15.31 84.239 28.817 16.941 10.193 31.572 18.996 47.386 18.996 18.342 0 41.783-16.405 62.469-30.876 16.359-11.45 30.756-21.515 42.156-23.771v-14.455c-9.879 2.515-23.73 12.196-38.289 22.382z" fill="#147cc2"/><path d="M222.75 236.25c-17.688 0-33.803-9.696-50.864-19.962-21.698-13.055-46.288-27.85-80.761-27.85H72v14.625h19.125c36.347 0 61.792 15.311 84.239 28.817 16.941 10.193 31.572 18.995 47.386 18.995 18.342 0 41.783-16.405 62.469-30.876 16.359-11.45 30.756-21.516 42.156-23.771v-14.455c-9.879 2.514-23.73 12.195-38.289 22.381-21.498 15.045-45.867 32.096-66.336 32.096z" fill="#147cc2"/><path fill="#cd3529" d="M115.875 367.877v55.924l70.875 33.935v-89.859h-70.875zM291.375 367.877H220.5v89.859l70.875-33.935v-55.924zM186.75 246.302c-4.918-2.688-9.851-5.621-14.867-8.64-16.097-9.688-33.867-20.23-56.008-25.073v121.536h70.875v-87.823zM222.75 257.625c-.756 0-1.498-.115-2.25-.15v76.65h70.875V223.93c-.77.536-1.521 1.059-2.295 1.6-21.498 15.044-45.861 32.095-66.33 32.095z"/><path d="M298.125 428.055l-94.5 45.238-94.5-45.238V211.212a115.67 115.67 0 0 0-18-1.399h-.562v224.676l113.063 60.883 113.062-60.883V207.593c-5.664 3.019-11.957 7.119-18.562 11.65v208.812h-.001z" fill="#cd3529"/><path d="M291.375 361.127v-20.252H213.75V256.72c-6.875-1.224-13.579-3.709-20.25-6.942v91.097h-77.625v20.252H193.5v99.834l10.125 4.852 10.125-4.852v-99.834h77.625z" fill="#fff"/><path d="M144.444 108.705a22.404 22.404 0 0 0-1.111 2.366c-.372.905-.708 1.737-1.009 2.492l-.455.063c-1.04-1.516-2.423-2.758-4.148-3.728-1.992-1.136-4.17-1.705-6.53-1.705-5.229 0-9.727 1.955-13.494 5.869-3.52 3.702-5.785 8.413-6.794 14.135-1.046 5.933-.408 10.749 1.913 14.452 2.32 3.702 5.967 5.552 10.944 5.552 2.318 0 4.678-.468 7.077-1.406a30.15 30.15 0 0 0 6.717-3.657l-1.013 3.95a25.387 25.387 0 0 1-6.314 2.663c-2.235.607-4.742.91-7.521.91-6.825 0-11.802-2.008-14.926-6.025-3.126-4.017-4.065-9.558-2.819-16.625 1.193-6.772 4.293-12.168 9.297-16.186 5.004-4.017 10.942-6.024 17.808-6.024 2.319 0 4.544.273 6.68.822 2.134.546 4.034 1.24 5.698 2.082zM181.419 137.148c-1.619 2.731-3.449 4.999-5.496 6.805-3.533 3.064-7.468 4.599-11.805 4.599-2.277 0-4.322-.401-6.142-1.195-1.817-.8-3.3-1.89-4.445-3.278-1.444-1.846-2.391-4-2.841-6.458-.452-2.457-.393-5.302.178-8.536.622-3.53 1.655-6.703 3.099-9.515 1.443-2.816 3.313-5.229 5.607-7.246 1.541-1.345 3.362-2.417 5.462-3.215 2.099-.797 4.392-1.197 6.878-1.197 3.201 0 5.957.861 8.266 2.584 2.118 1.594 3.598 3.718 4.438 6.363.517 1.597.778 3.234.776 4.915-.003 1.681-.269 4.033-.803 7.056-.495 2.816-1.552 5.589-3.172 8.318zm9.321-18.601c-.56-2.312-1.439-4.245-2.637-5.803-1.927-2.439-4.278-4.206-7.051-5.3-2.773-1.094-5.948-1.642-9.525-1.642-3.535 0-6.774.589-9.716 1.767-2.942 1.178-5.658 2.86-8.147 5.049-4.625 4.039-7.503 9.272-8.64 15.71-.6 3.405-.611 6.444-.028 9.114.58 2.672 1.688 5.039 3.324 7.099 1.635 2.061 3.784 3.597 6.445 4.606 2.663 1.008 5.592 1.514 8.791 1.514 3.113 0 6.26-.547 9.441-1.639 3.18-1.094 6.001-2.725 8.466-4.891 2.466-2.167 4.485-4.605 6.058-7.317 1.571-2.714 2.672-5.858 3.302-9.435.559-3.153.531-6.097-.083-8.832zM239.713 149.954l-2.826-.206-2.957.188 1.814-20.333c.361-3.964.637-8.053.84-12.269a486.941 486.941 0 0 0-7.066 9.988c-2.812 4.004-4.562 6.511-5.242 7.521-2.449 3.624-3.736 5.542-3.855 5.75a202.647 202.647 0 0 0-5.443 8.662h-.633c-.924-3.118-1.6-5.372-2.025-6.764-.91-3.203-1.76-6.024-2.551-8.47l-5.457-16.688c-.514 1.727-1.569 5.308-3.157 10.74-1.589 5.436-2.707 9.396-3.357 11.878-.989 3.708-1.745 7.036-2.264 9.984l-2.052-.188-2.241.188a4381.7 4381.7 0 0 0 2.572-8.152c1.989-6.275 3.067-9.646 3.234-10.107a1364.32 1364.32 0 0 0 3.703-11.689 1144.3 1144.3 0 0 0 2.25-7.396c.811-2.693 1.39-4.653 1.731-5.875h1.576a602.956 602.956 0 0 0 6.119 19.023 278.716 278.716 0 0 0 2.59 7.142 302.263 302.263 0 0 0 2.689 6.953c1.168-1.6 3.385-4.74 6.652-9.418 2.865-4.087 5.74-8.196 8.613-12.323 3.258-4.636 5.947-8.428 8.068-11.376h1.324c-.369 4.719-.656 8.429-.857 11.126-.203 2.698-.488 6.997-.854 12.898l-.938 19.213zM284.738 137.148c-1.621 2.731-3.453 4.999-5.496 6.805-3.533 3.064-7.467 4.599-11.809 4.599-2.271 0-4.32-.401-6.139-1.195-1.816-.8-3.301-1.89-4.443-3.278-1.445-1.846-2.391-4-2.844-6.458-.453-2.457-.391-5.302.182-8.536.619-3.53 1.652-6.703 3.094-9.515 1.445-2.816 3.312-5.229 5.605-7.246 1.543-1.345 3.367-2.417 5.463-3.215 2.102-.797 4.395-1.197 6.879-1.197 3.203 0 5.959.861 8.266 2.584 2.117 1.594 3.598 3.718 4.438 6.363a15.77 15.77 0 0 1 .779 4.915c-.006 1.681-.27 4.033-.805 7.056-.492 2.816-1.553 5.589-3.17 8.318zm9.317-18.601c-.557-2.312-1.436-4.245-2.637-5.803-1.924-2.439-4.275-4.206-7.049-5.3-2.771-1.094-5.949-1.642-9.521-1.642-3.539 0-6.777.589-9.717 1.767-2.945 1.178-5.66 2.86-8.148 5.049-4.627 4.039-7.506 9.272-8.639 15.71-.602 3.405-.615 6.444-.031 9.114.58 2.672 1.688 5.039 3.326 7.099 1.635 2.061 3.779 3.597 6.443 4.606 2.662 1.008 5.594 1.514 8.793 1.514 3.111 0 6.258-.547 9.439-1.639 3.182-1.094 6.004-2.725 8.469-4.891 2.461-2.167 4.482-4.605 6.055-7.317 1.574-2.714 2.672-5.858 3.305-9.435.554-3.153.529-6.097-.088-8.832zM152.796 561.711l-2.419-.211-2.428.184 6.717-38.109-.409-.184-7.451 3.752c-.253-.967-.728-1.74-1.428-2.328 3.041-1.213 5.344-2.18 6.904-2.9a92.801 92.801 0 0 0 7.154-3.586l.954.316-7.594 43.066zM191.799 539.324c-1.973 1.943-4.148 2.91-6.521 2.91-2.206 0-3.845-.801-4.922-2.4-1.173-1.766-1.47-4.297-.89-7.576.578-3.287 1.769-5.949 3.57-7.988s3.975-3.059 6.519-3.059c2.375 0 4.118.932 5.23 2.803 1.112 1.881 1.38 4.457.8 7.734-.549 3.121-1.811 5.643-3.786 7.576zm7.515-14.457c-1.656-3.754-4.717-5.625-9.182-5.625-4.087 0-7.607 1.203-10.558 3.604-2.953 2.398-4.803 5.73-5.552 9.984-.639 3.629-.042 6.574 1.791 8.85 1.729 2.154 4.236 3.227 7.526 3.227 1.813 0 3.566-.379 5.26-1.143 2.195-.967 4.084-2.479 5.671-4.545-.483 2.742-1.197 5.291-2.145 7.674-.946 2.373-1.94 4.359-2.982 5.959-3.273 4.922-6.684 7.383-10.228 7.383-2.28 0-4.128-.773-5.543-2.32l-.724.254c.347.668.548 1.205.603 1.609.055.395.088.932.097 1.607.461.246 1.098.449 1.916.598.818.141 1.731.221 2.743.221 4.845 0 9.351-2.26 13.518-6.76 4.418-4.764 7.296-10.934 8.635-18.51.85-4.842.569-8.868-.846-12.067zM224.898 554.301c-2.131 3.955-4.855 5.934-8.178 5.934-3.701 0-5.957-2.021-6.76-6.064-.598-3.033-.389-7.453.635-13.264 1.15-6.521 2.521-11.197 4.111-14.018 2.146-3.789 5.23-5.678 9.273-5.678 2.988 0 4.861 2.021 5.621 6.064.668 3.365.527 7.742-.428 13.131-1.057 6.02-2.484 10.653-4.274 13.895zm9.155-28.617c-1.521-4.297-4.826-6.441-9.914-6.441-4.887 0-8.898 1.934-12.045 5.809-3.146 3.877-5.357 9.439-6.635 16.682-1.076 6.109-.998 10.803.23 14.09 1.609 4.254 5.127 6.381 10.557 6.381 4.297 0 8.061-1.951 11.293-5.846 3.234-3.893 5.459-9.316 6.689-16.268 1.081-6.153 1.02-10.952-.175-14.407zM270.506 521.061a2450.586 2450.586 0 0 1-4.949 6.574c-.219.299-1.934 2.611-5.141 6.953a898.772 898.772 0 0 0-6.254 8.596 640.083 640.083 0 0 0-7.744 11.004 499.17 499.17 0 0 0-5.115 7.523l-1.984-.211-2.119.211.184-.695 16.779-22.113a606.382 606.382 0 0 1 4.395-5.941c2.984-4.043 5.098-6.943 6.336-8.719l-.135-.289c-2.949 0-5.596.088-7.941.264-7.039.527-11.4.791-13.086.791l.693-2.857.324-2.908h26.016l-.259 1.817z" fill="#147cc2"/></svg>