<svg xmlns="http://www.w3.org/2000/svg" width="2500" height="503" viewBox="0 0 533.544 107.252"><g fill="#33348e"><path d="M67.869 27.495l-6.193 4.954-4.209 3.22-9.661-3.715 13.87-10.898 8.174-6.44L72.575 0s-4.458.247-10.899.991C42.356 2.972 4.458 10.403 3.22 37.403 2.476 40.374 0 61.926 0 63.906c2.972 23.779 18.577 39.633 61.676 41.861h48.551l1.98-9.166H60.932c-32.944-.99-55.98-15.604-58.704-37.65 0-1.238.247-3.963.247-5.449 5.698 17.339 21.798 33.687 59.2 34.183h52.512l1.734-8.672H60.933C25.265 77.777 6.688 60.688 3.22 46.319c0-.991.742-4.954 1.238-6.441C9.66 59.695 37.649 69.852 60.933 69.852c0 0 .496.248.743.248 5.698 0 15.11.246 21.551.246h34.429l1.983-9.908-53.752-21.797 1.982-11.146zm48.797 34.431H60.932c-20.56-.744-55.484-9.909-54.246-27.992.992-19.815 38.147-28.98 54.99-30.714 5.449-.744 8.918-.496 7.927.247l-7.927 6.194-26.007 20.063 26.007 10.403 54.99 21.799zM526.607 91.895h-.742c-4.706.25-7.184 3.963-7.184 7.928 0 .744 0 1.98.248 2.725 1.238 2.23 3.963 4.705 7.183 4.459h.495c3.965-.248 6.937-3.717 6.937-7.184 0-3.966-3.22-7.678-6.937-7.928zm0 13.873h-.742c-3.469 0-6.193-2.725-6.193-6.441 0-2.725 1.982-5.943 6.193-5.943h.742c2.974.246 6.193 2.725 6.193 5.943.001 3.716-2.723 6.193-6.193 6.441z"/><path d="M530.077 97.346c0-.992-.744-1.982-1.983-1.982h-4.953v8.422h1.237v-3.715h1.487l.742 1.238 1.982 2.477h1.238l-2.725-3.715c2.231-.001 2.975-.993 2.975-2.725zm-3.47 1.732h-2.229v-3.221h2.229v.25c1.982 0 2.229.742 2.229 1.238.001.991-.246 1.733-2.229 1.733zM419.602 29.724v-1.486c0-2.725-.991-3.716-3.716-4.707 5.449-2.229 8.174-6.44 8.423-14.365 0-4.707-2.974-8.175-10.403-8.175H398.3l-9.411 44.338h10.154l3.964-17.339c3.467 0 5.944 0 5.944 3.468v1.733l-1.982 9.908v2.229h11.642v-.496c-.494-.247-.989-.989-.989-1.733 0-.991.495-1.98.989-3.963l.991-9.412zm-10.155-9.66c-.744.246-1.24.246-1.735.246h-2.725l1.981-11.145c.743 0 1.734.246 2.479.246 2.972 0 4.458.496 4.458 3.221-.991 4.211-2.225 6.687-4.458 7.432zM419.602 106.264h10.159l9.657-44.338h-10.402l-9.414 44.338zM465.179 61.182c-9.908 0-14.614 4.953-16.595 13.129l-3.965 17.834c-.495 1.98-.989 4.209-.989 6.191 0 4.707 2.229 8.916 11.393 8.916 8.67 0 15.605-4.209 17.339-11.889l.991-6.439h-9.66l-1.734 6.191c-.742 1.486-2.229 3.963-4.705 4.211-1.735 0-2.973-.744-2.973-2.725v-.744l4.458-21.547c.99-3.717 1.985-5.451 4.954-5.451 2.478 0 2.973 1.734 2.973 3.717v1.238l-.991 3.963h10.652l.742-4.459v-3.467c-.001-3.964-2.23-8.669-11.89-8.669zM503.077 61.182c-10.156 0-15.11 6.688-15.853 14.119 0 .246 0 .988-.248 1.484.248 10.156 12.633 11.148 12.385 17.34 0 3.221-2.725 5.697-4.459 5.697-1.732 0-2.973-1.24-2.973-3.965 0-.988.249-2.475.495-4.457h-9.412c-.99 2.725-1.237 4.953-1.486 6.936.249 5.449 3.221 8.916 11.644 8.916 10.649 0 15.356-6.438 16.348-15.852v-1.238c0-10.402-12.881-10.898-12.386-16.348 0-3.221 1.238-4.955 3.963-4.955 1.982 0 2.974.496 2.974 2.973 0 .992-.249 2.479-.249 3.469h9.165c.249-1.486.496-3.469.496-4.707-.001-5.449-3.221-9.412-10.404-9.412zM403.749 61.926l-3.963 25.015h-.743l-2.477-25.015h-10.402l-9.662 44.338h9.908l4.458-24.772 2.974 24.772h9.907l5.698-24.772 4.458-19.566h-10.156zM363.87 36.659l1.981-9.908h12.633l2.233-8.917h-13.133l1.735-7.927h13.128l2.229-8.916h-23.78l-5.692 26.998-3.719 17.34H376.007l1.733-8.67h-13.87zM353.714 61.926l-18.329 44.338h10.401l2.726-8.918h8.173l-.247 8.918h10.156V61.926h-12.88zm4.954 7.926h.248l-1.981 20.311h-5.449l3.719-10.402 3.463-9.909zM267.268 14.119c.496-1.486.496-2.724.496-4.211 0-7.678-5.699-8.917-12.633-8.917H242.25l-9.661 44.338h10.404l3.715-17.091h5.945c6.441-.495 12.137-3.468 14.615-14.119zm-10.899.495c-.496 3.466-1.982 4.954-3.716 5.45-1.487.246-2.973.246-4.211.246l2.229-11.145c.496 0 1.24.246 1.982.246 2.972 0 4.212.249 4.212 2.478 0 .495 0 1.239-.496 2.725zM285.102 46.319c10.654 0 14.861-5.201 16.348-13.375L308.637.99H298.48l-7.434 33.438c-.249 2.478-1.24 3.716-3.965 3.716-1.98 0-3.22-.742-3.22-1.733v-.743L291.046.99H280.89l-7.183 33.438c0 1.239-.249 1.982-.249 2.974.001 5.201 3.222 8.917 11.644 8.917zM321.018 45.329h10.404l7.431-35.422h8.423l1.732-8.916h-26.504l-2.23 8.916h7.927l-7.183 35.422zM278.412 61.182c-10.402 0-14.86 4.953-16.594 13.129l-3.963 17.834c-.249 1.98-.496 4.209-.496 6.191 0 4.707 1.981 8.916 10.65 8.916 9.165 0 15.853-4.209 17.588-11.889l1.237-6.439h-10.403l-1.239 6.191c-.742 1.486-1.98 3.963-3.962 4.211-2.725 0-3.963-.744-3.963-2.725v-.744l4.705-21.547c.743-3.717 1.735-5.451 5.202-5.451 1.982 0 2.229 1.734 2.229 3.717v1.238l-.742 3.963h10.402l.991-4.459c0-.742.495-2.229.495-3.467.002-3.964-2.476-8.669-12.137-8.669zM317.797 79.014h-7.183l3.225-17.088h-10.403l-8.922 44.338h10.156l3.966-18.578h7.179l-3.961 18.578h10.65l9.164-44.338h-10.65l-3.221 17.088zM174.875 12.632V9.165c0-5.699-3.22-9.166-11.643-9.166-1.733 0-3.221.247-4.459.496-6.44 1.487-10.651 6.192-12.136 14.119L142.673 32.2c-.247 1.734-.494 3.469-.494 4.955 0 4.459 1.981 9.165 12.137 9.165 1.237 0 2.971 0 4.458-.496 4.954-1.238 9.908-4.954 12.138-13.624l3.963-19.568zm-10.156-.248l-4.707 20.807c-.247 1.487-.742 2.726-1.238 3.468-.991.99-1.981 1.486-3.467 1.486-1.24 0-2.724-.247-2.724-2.229V33.19l4.705-20.559c0-.991.252-2.229 1.486-2.972.745-.744 1.734-1.24 3.469-1.24 1.98 0 2.476.745 2.476 2.974v.991zM195.682 10.403v34.926h7.926l14.367-34.926h.249l-8.177 34.926h9.91L229.122.991h-14.614l-10.9 26.504V.991h-14.614l-9.413 44.338h9.66l6.441-34.926zM191.224 87.934h-.743V61.926H176.36l-9.163 44.338h9.659l6.689-34.432v34.432h6.936l15.108-34.432h.496l-8.917 34.432h9.908l9.66-44.338h-14.614l-10.898 26.008zM219.213 106.264h24.77l1.734-8.918h-14.119l1.983-9.66h13.127l1.734-8.672h-12.881l1.735-8.172h13.374l1.983-8.916h-24.026l-9.414 44.338zM123.105 0c-9.908 0-14.613 5.45-16.595 13.128l-3.716 18.33c-.496 1.733-.739 4.211-.739 5.945 0 4.705 1.73 8.917 10.646 8.917 9.414 0 15.854-4.458 17.588-11.89l1.488-6.191H121.37l-1.733 6.191c-.247 1.487-1.486 3.716-3.715 3.716-2.227.249-3.716-.742-3.716-2.229v-1.239l5.202-21.55c.247-3.467 1.239-5.201 4.708-4.707 1.733 0 2.476 1.24 2.476 3.22v.743l-.991 3.964h10.405l.989-3.964V9.165c0-4.458-1.977-9.165-11.89-9.165z"/></g></svg>