<svg xmlns="http://www.w3.org/2000/svg" width="2500" height="2500" viewBox="0 0 192.756 192.756"><path d="M0 0h192.756v192.756H0z"/><path fill="#fff" d="M151.119 158.704l-4.789-1.027.036 4.897-4.7-1.378-.323 4.887-4.584-1.721-.69 4.849-4.444-2.054-1.041 4.785-4.28-2.379-1.394 4.697-4.095-2.688-1.735 4.579-3.886-2.981-2.067 4.438-3.653-3.259-2.392 4.273-3.401-3.521-2.702 4.086-3.132-3.764-2.995 3.874-2.848-3.985-3.273 3.644-2.544-4.185-3.534 3.392-2.228-4.36-3.773 3.122-1.902-4.513-3.993 2.833-1.562-4.641-4.194 2.533-1.214-4.743-4.368 2.214-.861-4.821-4.519 1.887-.503-4.871-4.647 1.548-.142-4.896L44 160.654l.219-4.891-4.824.845.581-4.862-4.873.487.938-4.805-4.896.126 1.291-4.724-4.892-.235 1.635-4.616-4.861-.596 1.973-4.484-4.804-.953 2.298-4.324-4.72-1.307 2.611-4.142-4.611-1.651 2.91-3.937-4.477-1.986 3.193-3.714-4.317-2.312 3.459-3.469-4.135-2.625 3.704-3.201-3.93-2.922 3.932-2.919-3.703-3.206 4.136-2.622-3.456-3.468 4.319-2.31-3.192-3.715 4.479-1.984-2.909-3.941 4.612-1.648-2.609-4.144 4.721-1.303-2.296-4.325 4.805-.952-1.97-4.484 4.861-.593-1.633-4.617 4.891-.231-1.288-4.726 4.896.129-.935-4.806 4.872.49-.577-4.863 4.822.849-.217-4.893 4.748 1.202.145-4.895 4.645 1.552.506-4.871 4.519 1.889.864-4.821 4.366 2.217 1.217-4.743 4.191 2.534 1.565-4.64 3.993 2.837 1.903-4.513 3.771 3.123 2.232-4.359 3.531 3.394 2.547-4.183 3.27 3.645 2.85-3.983 2.994 3.877 3.132-3.761 2.7 4.086 3.405-3.52 2.39 4.276 3.655-3.259 2.063 4.44 3.888-2.981 1.731 4.581 4.097-2.685 1.392 4.696 4.282-2.375 1.039 4.786 4.444-2.053.685 4.85 4.586-1.719.322 4.887 4.7-1.375-.039 4.897 4.789-1.024-.399 4.881 4.852-.668-.759 4.838 4.886-.307-1.115 4.768 4.899.055-1.466 4.673 4.882.415-1.806 4.554 4.834.774-2.138 4.407 4.767 1.13-2.457 4.237 4.671 1.479-2.763 4.044 4.545 1.82-3.054 3.829 4.403 2.15-3.329 3.592 4.228 2.47-3.584 3.338 4.034 2.774-3.819 3.063 3.817 3.067-4.034 2.772 3.582 3.339-4.229 2.468 3.325 3.595-4.403 2.148 3.052 3.83-4.549 1.819 2.763 4.042-4.671 1.478 2.453 4.238-4.763 1.127 2.132 4.407-4.834.775 1.801 4.554-4.881.412 1.461 4.674-4.892.052 1.11 4.769-4.89-.312.758 4.84-4.849-.671z"/><path d="M20.169 96.367c0-42.089 34.135-76.225 76.225-76.225 42.113 0 76.248 34.136 76.248 76.225 0 42.112-34.135 76.248-76.248 76.248-42.09 0-76.225-34.136-76.225-76.248zm3.646-.023c0-40.095 32.484-72.603 72.604-72.603 40.096 0 72.604 32.508 72.604 72.603 0 40.097-32.508 72.604-72.604 72.604-40.12 0-72.604-32.508-72.604-72.604z" fill="#33348e"/><path d="M27.147 96.367c0-38.236 31.011-69.248 69.249-69.248 38.257 0 69.268 31.011 69.268 69.248 0 38.26-31.011 69.27-69.268 69.27-38.238 0-69.249-31.01-69.249-69.27zm3.311-.019c0-36.425 29.512-65.957 65.958-65.957 36.427 0 65.958 29.532 65.958 65.957 0 36.426-29.531 65.959-65.958 65.959-36.446.001-65.958-29.535-65.958-65.959z" fill="none" stroke="#33348e" stroke-width="1.274" stroke-linejoin="round" stroke-miterlimit="2.613" stroke-dasharray="1.7054,1.7054"/><path fill="#33348e" d="M96.648 54.471l9.331 28.703h30.168l-24.416 17.745 9.331 28.701-24.414-17.745-24.415 17.745 9.33-28.701-24.438-17.745h30.193z"/><path d="M96.694 116.002c.62 0 1.194.161 1.765.459a3.44 3.44 0 0 1 1.354 1.329c.32.572.479 1.191.479 1.812 0 .642-.159 1.237-.479 1.811a3.514 3.514 0 0 1-1.33 1.329 3.611 3.611 0 0 1-3.602 0 3.519 3.519 0 0 1-1.329-1.329 3.638 3.638 0 0 1-.481-1.811c0-.621.161-1.239.481-1.812a3.578 3.578 0 0 1 1.352-1.329 3.855 3.855 0 0 1 1.79-.459zm0 .711c-.505 0-.985.114-1.421.367a2.873 2.873 0 0 0-1.101 1.055c-.25.481-.389.964-.389 1.468s.139.984.389 1.443c.253.458.619.825 1.078 1.077.458.253.938.392 1.444.392s.987-.139 1.446-.392c.459-.252.803-.619 1.078-1.077.252-.459.366-.939.366-1.443s-.114-.985-.392-1.468c-.252-.459-.619-.802-1.078-1.055s-.937-.367-1.42-.367zm-1.651 4.813v-3.827h.781c.732 0 1.146 0 1.236.021.252.022.459.068.596.16.14.068.255.185.367.367.092.161.14.344.14.526a.999.999 0 0 1-.274.711c-.185.207-.437.322-.759.367a.749.749 0 0 1 .274.16c.047.047.14.139.252.274.023.046.115.207.275.481l.459.756h-.963l-.32-.618c-.207-.412-.389-.665-.526-.779a.88.88 0 0 0-.552-.161h-.205v1.561h-.781v.001zm.781-2.175h.32c.458 0 .733 0 .847-.047a.466.466 0 0 0 .253-.184c.067-.069.094-.184.094-.298a.43.43 0 0 0-.094-.274c-.067-.093-.16-.138-.253-.186a5.782 5.782 0 0 0-.847-.045h-.32v1.034zM150.405 103.668c-.801-.962-1.924.253-1.924.253-.436.275-.94-.045-.94-.045-.067-.482-.802-.758-.802-.758-3.668-1.559-6.235 4.24-6.235 4.24-1.146 1.881-2.271 1.33-2.271 1.33-.666-.572 1.65-2.797 1.65-2.797 1.422-.849 4.012-5.228 4.012-5.228 1.33-2.361-.229-2.659-.229-2.659-1.215-.665-4.859 5.479-4.859 5.479l-.713.093c-1.328-.14-2.635 2.705-2.635 2.705-.85 1.421-1.695 1.536-1.695 1.536-.734-.185 1.168-2.407 1.168-2.407.984-.757-.137-1.308-.137-1.308-.941-.412-3.051 3.484-3.051 3.484-.801 1.467-1.1 1.031-1.1 1.031-1.354-.139-.229-1.879-.229-1.879 1.396-2.82-.047-3.668-.047-3.668-2.979-.825-5.089 3.049-5.089 3.049-.344.48-.965.206-.965.206.851-.757 2.59-6.765 2.59-6.765.714 0 2.755-1.075 2.755-1.075 1.924-.804 1.03-2.271 1.03-2.271-1.217-.916-4.86 1.949-4.86 1.949-.985.851-3.576.367-3.576.367-.87-.23-1.696 0-1.696 0-.756.436-.045 1.03-.045 1.03 1.235.597 4.561.229 4.561.229.482-.093.438.114.438.114.274 1.49-2.64 6.119-2.64 6.119-.757 1.193-1.235.896-1.235.896-1.123-.092-1.423-1.171-1.423-1.171.093-1.214-.938-1.558-.938-1.558-1.904-.187-1.881 3.255-1.881 3.255.139 3.714 2.867 3.69 2.867 3.69l.436-.16c1.33-.229 1.879-1.789 1.879-1.789.184-.549.803-.939.803-.939 1.1-.436 1.17.367 1.17.367.666 2.314 3.277.391 3.277.391.551-.322.941-.093.941-.093.319 1.649 1.739 1.17 1.739 1.17 1.265-.39.851.573.851.573a8.8 8.8 0 0 0-.619 1.031c-1.445 2.683-.045 3.347-.045 3.347 2.313 1.741 4.285-3.347 4.285-3.347.664-1.604 1.514-2.041 1.514-2.041 1.283 2.133 3.873-.252 3.873-.252 1.744 1.262 3.785-1.01 3.785-1.01.229-.273.502-.229.502-.229l.186 1.488c.32 1.192 1.283-.412 1.283-.412.092-.457 1.65-3.209 1.65-3.209a2.408 2.408 0 0 1 1.649-.849c.526 1.124.896.481.896.481 1.466-.516.089-1.984.089-1.984zm-8.756-3.003s1.354-2.086 1.537-1.102c0 0-.666 3.143-2.867 4.678 0 0-.479.253-.479 0 0-.23.597-2.04 1.809-3.576zm-20.768 8.574l-.274.092s-1.697.32-1.65-1.215c0 0-.346-1.469.641-.573 0 0 .711.71 1.238.71-.002 0 .571.528.045.986zm8.434-3.782s-1.787 2.705-2.498 2.75c-.688.046-1.26.437-.366-1.513 0 0 1.42-2.521 2.797-2.36 0 0 .825.045.067 1.123zm2.752 8.413s-.321.184-.367 0c-.047-.184-.643-.391.207-1.514 0 0 .365-.39.709-.664.393-.32.779-.527.779-.092 0 .022 0 .067-.021.092a2.647 2.647 0 0 1-1.307 2.178zm11.164-6.281s-.596.711-.805.711c-.182 0-1.213.045-.09-1.972 0 0 1.812-2.431 2.131-1.422.003 0-.088 1.4-1.236 2.683zM72.646 104.219s1.811-1.421 2.062-3.438c0 0 .849-2.407-1.077-2.271 0 0-1.857.113-4.998 6.418-.137.275-.297.574-.436.896 0 0-.573 1.216-.986.321 0 0-.206-1.377-3.095-.138 0 0-.779.595-1.536 1.468-.435.526-.895 1.168-1.146 1.832 0 0-.986 1.903-1.192 0 0 0-.092-.777.597-1.765 0 0 0-.022.022-.067.114-.321.527-1.604-.412-1.584 0 0-.732.092-1.468 1.584a9.766 9.766 0 0 0-.274.688s-1.215 2.338-1.903 2.018c0 0-.711-.367.367-1.947 0 0 .298-.346.55-.758.391-.597.734-1.375.114-1.537 0 0-.549-.389-1.879 1.49l-.046.047-1.192 1.789s-.985 1.055-.825-.047c0 0 .137-.505.94-1.72l.022-.022c.137-.207 1.055-1.444.253-1.787 0 0-.436-.346-.298-.759.045-.159.161-.319.436-.456 0 0 4.172-2.82 4.723-6.261 0 0 .229-1.902-1.719-1.74 0 0-2.522.686-3.898 3.598 0 0-.366.986-.549.732l-.068-.16s-.345-2.889-2.889-2.75c0 0-4.104-.32-8.138 7.036l-.275.552s-.321.871-.528 1.994c-.32 1.881-.344 4.493 1.972 4.952 0 0 2.292.138 4.975-1.515l.526-.48s-.573 1.881.619 1.881c0 0 .78-.185.917-1.263 0 0 .688-1.766.871-1.03 0 0-.091 1.902 1.261 1.902 0 0 .757.137 1.17-.344 0 0 .71-.917 1.238.068 0 0 1.124.55 2.247-.139 0 0 1.124-1.421 1.604-.459 0 0 .55 1.491 2.201.666l.413-.391s1.33 1.216 4.011.184c0 0 .597-.16.597.346 0 0 .871.343 1.237-.414l.849-1.284s0 2.271 2.476 2.087c0 0 2.339-.618 3.095-2.292 0 0 1.055-2.063-.825-1.927 0 0 .069-.229.069-.549 0-.621-.207-1.561-1.582-1.584 0 0-.137-.412.183-.963.135-.203.319-.455.617-.708zm-17.698-2.568s2.155-3.807 2.958-3.233c0 0 .572.438-.573 1.972 0 0-1.444 2.109-2.224 2.385l-.23.115c-.001 0-.642-.092.069-1.239zm-4.333 4.08s-.39.803-1.101 1.742c-.917 1.237-2.43 2.752-4.378 3.025h-.505s-1.56-.525-1.009-3.025c.137-.597.39-1.308.825-2.154 0 0 .069-.139.229-.392.986-1.512 4.631-6.831 7.084-5.181 0 0 .849.757.069 2.04 0 0-.436.481-.436-.345 0 0 .138-1.1-.825-.848 0 0-1.238.48-1.354 2.957 0 0 .046 1.444 1.193 1.238 0 0 .459-.069.573.137.07.142.002.372-.365.806zm15.818 3.831s-.596.252-.894.48c0 0-1.055.619-1.421.504l-.275-.046s-1.788-.274-.503-2.178c0 0 .32-.437.779-.849.55-.481 1.307-.963 1.948-.642 0 0 .481.183.344.642 0 .068-.022.114-.069.184 0 0-.572.779.253.986-.001.001.709.549-.162.919zm4.012-2.065l.022-.021c.138-.115.666-.528.986 0l.023.021s.481.412-.321.779c0 0-.275.32-.481.253-.183-.091-1.077-.276-.229-1.032zm1.719 2.315l-.069.229s-1.146.664-1.192.138c0 0-.32-.32.321-.505 0 .001.986-.435.94.138zm-1.559-6.581s1.949-3.987 3.049-3.368c0 0 .184.665-.274 1.467 0 0-1.605 3.256-2.683 3.553l-.183-.045s-.758.045.091-1.607z" fill="#33348e"/><path d="M59.284 71.977c-.025.696-.384 1.985-1.187 3.413-1.862 3.309-5.343 4.606-9.209 2.431-3.692-2.077-4.764-5.958-2.716-9.598.812-1.446 1.654-2.21 2.089-2.493l1.021 1.078c-.592.401-1.261 1.102-1.81 2.078-1.547 2.751-.818 5.57 2.266 7.304 2.891 1.626 5.649 1.001 7.247-1.838.529-.94.866-1.988.914-2.765l1.385.39zM66.348 64.649c-2.692 2.354-6.373 1.909-9.056-1.159-2.815-3.219-2.67-7.062.037-9.429 2.783-2.434 6.428-1.878 9.058 1.131 3.039 3.474 2.549 7.194-.024 9.443l-.015.014zm-.873-1.121c2.076-1.815 1.578-4.752-.434-7.053-1.763-2.016-4.657-3.201-6.838-1.294s-1.488 4.885.432 7.082c1.868 2.136 4.764 3.08 6.825 1.278l.015-.013zM74.432 57.838L69.515 45.3l1.785-.7 6.488 4.774c1.487 1.112 2.742 2.123 3.83 3.199l.049-.041c-.806-1.616-1.441-3.127-2.2-5.062l-2.065-5.264 1.526-.599 4.917 12.538-1.637.642-6.476-4.8c-1.421-1.052-2.82-2.156-3.967-3.273l-.048.04c.713 1.544 1.322 3.044 2.141 5.128l2.101 5.357-1.527.599zM91.223 52.72l-5.221-13.177 1.895-.114 2.495 6.495c.668 1.781 1.267 3.407 1.74 4.939l.04-.002c.285-1.579.721-3.307 1.233-5.1l1.873-6.779 1.854-.112-3.993 13.734-1.916.116zM109.343 47.823l-5.084-1.156-1.078 4.734 5.688 1.295-.322 1.422-7.403-1.683 2.983-13.133 7.112 1.616-.323 1.423-5.395-1.227-.945 4.15 5.086 1.157zM119.634 43.821c.852.279 2.021.807 3.047 1.39 1.614.919 2.496 1.835 2.852 2.91.287.829.18 1.826-.344 2.747-.871 1.528-2.443 1.99-3.896 1.714l-.029.053c.707.816.771 1.956.375 3.34-.547 1.851-.91 3.137-.943 3.718l-1.561-.89c-.003-.438.311-1.594.825-3.23.571-1.812.274-2.786-1.065-3.619l-1.424-.81-2.888 5.071-1.511-.86 6.562-11.534zm-1.515 6.175l1.545.879c1.614.919 3.146.616 3.905-.721.859-1.511.142-2.794-1.457-3.703-.729-.415-1.272-.632-1.573-.71l-2.42 4.255zM125.884 60.825c.202.903.73 1.959 1.586 2.802 1.266 1.249 2.649 1.325 3.618.344.871-.882.88-1.913.062-3.674-1.002-2.113-1.155-3.892.164-5.229 1.476-1.493 3.808-1.38 5.67.458.967.955 1.467 1.898 1.642 2.548l-1.338.672c-.117-.479-.49-1.382-1.356-2.237-1.308-1.292-2.578-1.001-3.224-.348-.886.896-.737 1.912.078 3.73.989 2.24 1.043 3.808-.349 5.215-1.459 1.479-3.817 1.706-6.078-.527-.924-.913-1.653-2.193-1.828-3.041l1.353-.713zM140.39 72.084l-2.689-4.469-4.162 2.502 3.008 5-1.25.752-3.913-6.507 11.54-6.94 3.761 6.249-1.25.752-2.855-4.743-3.645 2.194 2.686 4.469zM52.831 128.103l-4.155 1.619-1.146-1.386 13.295-5.054 1.336 1.617-7.451 12.121-1.185-1.431 2.349-3.809-3.043-3.677zm3.861 2.537l2.135-3.502c.499-.774.988-1.438 1.46-2.09l-.038-.046c-.714.358-1.501.724-2.299 1.045l-3.843 1.466 2.585 3.127zM67.003 130.231l1.445 1-6.836 9.873 4.731 3.278-.83 1.199-6.177-4.277zM76.917 136.776l1.658.586-3.99 11.326 5.427 1.913-.485 1.377-7.086-2.499zM92.763 152.315c.782.496 1.904.869 3.103.86 1.78-.012 2.813-.938 2.803-2.315-.008-1.238-.732-1.975-2.554-2.642-2.204-.784-3.569-1.936-3.582-3.813-.013-2.098 1.716-3.668 4.333-3.686 1.358-.008 2.379.305 2.961.641l-.471 1.423c-.422-.257-1.322-.632-2.542-.623-1.838.012-2.53 1.114-2.525 2.034.008 1.259.832 1.873 2.694 2.58 2.285.885 3.429 1.957 3.443 3.936.014 2.077-1.494 3.906-4.672 3.926-1.299.008-2.72-.383-3.441-.856l.45-1.465zM105.442 141.617l-3.963 1.03-.373-1.429 9.653-2.511.37 1.431-3.983 1.037 3.02 11.601-1.703.444zM120.593 144.558l.922 4.363-1.556.904-2.819-13.941 1.813-1.056 10.745 9.328-1.605.936-3.373-2.938-4.127 2.404zm3.133-3.398l-3.107-2.677c-.684-.619-1.258-1.211-1.824-1.782l-.051.03c.236.764.469 1.6.656 2.438l.82 4.031 3.506-2.04zM125.177 131.153c.469-.767 1.256-1.781 2.061-2.644 1.27-1.356 2.365-2.003 3.492-2.097.873-.086 1.817.25 2.592.974 1.283 1.2 1.367 2.837.762 4.188l.045.041c.959-.498 2.082-.296 3.336.411 1.672.962 2.838 1.615 3.395 1.779l-1.227 1.313c-.428-.099-1.479-.671-2.951-1.556-1.629-.977-2.646-.914-3.768.197l-1.119 1.197 4.262 3.984-1.188 1.27-9.692-9.057zm5.651 2.907l1.217-1.3c1.269-1.356 1.33-2.915.205-3.965-1.271-1.188-2.685-.787-3.938.558-.572.611-.91 1.09-1.058 1.363l3.574 3.344z" fill="#cc2229"/></svg>