<svg xmlns="http://www.w3.org/2000/svg" width="2500" height="2500" viewBox="0 0 192.756 192.756"><g fill-rule="evenodd" clip-rule="evenodd"><path fill="#fff" d="M0 0h192.756v192.756H0V0z"/><path fill="#405497" d="M165.223 106.104l5.031-19.576h5.906l-3.5 14.872h11.592l-.984 4.704h-18.045zM167.738 86.637l-1.203 4.702h-11.373l-.656 3.063h10.17l-.875 3.827h-9.951l-.766 3.281h10.826l-1.203 4.594h-16.732l4.812-19.576 16.951.109zM106.932 96.699c-.438 3.826 3.5 5.248 6.562 4.811 4.264-.547 10.279-5.795 6.014-9.186-5.029-3.937-12.029.547-12.576 4.375zm-5.578 1.53c0-6.124 7.328-11.81 14.547-11.701 5.904.109 11.154 4.374 10.17 9.515-1.203 5.904-8.092 9.951-14.764 10.17-6.782.109-9.844-4.703-9.953-7.984z"/><path d="M101.9 91.777l1.422-5.25h-7.436c-7.765.109-13.015 2.625-14.546 8.64-3.281 12.03 10.28 10.827 13.999 10.827h4.045l.984-5.141h-9.405c-6.562 0-6.233-8.858 3.062-9.076h7.875zM122.352 105.994s5.25-8.967 9.844-10.608c4.594-1.531 7.654-1.312 8.748-1.531 1.969-.438 1.969-2.406-.984-2.406-6.014.109-11.482 0-11.482 0l-3.719-4.921h16.951c7.328.109 9.625 9.405-1.094 11.812 1.531 1.531 3.938 2.514 3.938 7.654-3.719 0-6.67.109-6.67.109s0-3.281-1.094-4.922c-.439-.656-.984-.984-1.75-.984-3.5 0-5.797 5.906-5.797 5.906l-6.891-.109zM54.656 102.057l6.014-5.03 9.515 4.811-5.468 6.453-10.061-6.234zM59.905 87.402l8.531-.109 3.28 5.14-9.624.438-2.187-5.469zM49.844 82.043l6.233 2.844 4.047-3.062-5.906-2.734-4.374 2.952zM23.815 84.668l6.234-2.625-4.265-2.624-5.907 2.406 3.938 2.843zM11.676 87.84h8.311l-2.078 4.702H8.504l3.172-4.702zM9.707 102.057l9.296-5.248 5.906 5.138-9.296 6.125-5.906-6.015zM36.938 77.669l-.218 2.734 6.89-.218-.11-2.516h-6.562z" fill="#405497"/><path d="M45.141 82.372s-3.391 1.094-4.484 4.156c-1.094 3.062.109 6.562-.438 8.968-.328 1.532-.438 3.719-3.062 7.327-.875 1.203-.985 1.422-.219 1.641s2.953.766 3.172 1.094c.218.328.547 1.312.438 2.406-.11 1.094-.11 3.609-.11 3.609s.11.438.875.219c.765-.328 1.968-1.094 2.078-1.422s0-.766-.219-1.312c-.219-.656-1.094-2.844-1.094-2.844s-.219-.766.766-1.203c.875-.328 5.687-1.312 7.765-3.828.546-.656 0 2.078-3.172 4.812-1.969 1.094-3.281 1.422-3.5 1.859-.438.328-.438.766.219 1.422.547.766.875.875 1.422.766.438-.109 1.64-.328 3.609-2.516.547-.656.547-.328-1.094 2.516-.219.328-3.609 5.359-7.109 5.031-1.093-.328-6.999-1.422-9.514-13.453-.329-1.641-2.078-11.811 3.171-17.06 1.095-.985 3.829-3.938 10.5-2.188z"/></g></svg>