<svg id="Laag_1" xmlns="http://www.w3.org/2000/svg" viewBox="0 0 1984.3 1230.4" width="2000" height="1240"><style>.st0{fill:#ec1550}</style><title>xcp</title><path id="Laag_2" class="st0" d="M1984.3 687.9l-288.8 289h-274.4c-31 .1-56.2 25.2-56.2 56.2v164.7c-.3 18-15 32.5-33.1 32.5h-209.5c-18.3 0-33.1-14.8-33.1-33.1V797.1l171.5-171.5c13-12.2 33.3-12 46 .6l75.7 75.7h198.4l128-127.9V406.1l-131.1-131.7h-176.4L700 975.7H291.3L0 684.6V291.8L291.6.2h398.6L863 173c12.3 12.8 12.3 33.1 0 45.9L716.1 365.3c-11.7 13.5-32.2 15-45.7 3.3-.8-.7-1.6-1.5-2.4-2.2l-91.6-91.3h-171L274.9 405.6V571L405 701.3h181.1L1287.5 0h404.1l292.7 292.7v395.2z"/></svg>