<svg height="6865.839" viewBox="-188.703 0 2413.113 1896.693" width="2200mm" xmlns="http://www.w3.org/2000/svg" xmlns:xlink="http://www.w3.org/1999/xlink"><linearGradient id="a" gradientUnits="userSpaceOnUse" x1="-176.79" x2="-178.421" y1="91.273" y2="97.36"><stop offset="0" stop-color="#f9ae17"/><stop offset=".125" stop-color="#f9ae17"/><stop offset=".25" stop-color="#f9ae17"/><stop offset=".375" stop-color="#f8a818"/><stop offset=".5" stop-color="#f6a519"/><stop offset=".625" stop-color="#f4a119"/><stop offset=".75" stop-color="#f39e1a"/><stop offset=".875" stop-color="#f29b1a"/><stop offset="1" stop-color="#f49b1a"/></linearGradient><linearGradient id="b" gradientUnits="userSpaceOnUse" x1="-179.255" x2="-179.771" y1="87.183" y2="89.111"><stop offset="0" stop-color="#f6b017"/><stop offset=".125" stop-color="#f6af17"/><stop offset=".25" stop-color="#f8ad17"/><stop offset=".375" stop-color="#f8af17"/><stop offset=".5" stop-color="#f8ac17"/><stop offset=".625" stop-color="#f6a518"/><stop offset=".75" stop-color="#f2991a"/><stop offset=".875" stop-color="#f29b1a"/><stop offset="1" stop-color="#f29c1a"/></linearGradient><linearGradient id="c" gradientUnits="userSpaceOnUse" x1="-173.743" x2="-174.656" y1="88.709" y2="92.115"><stop offset="0" stop-color="#f7ad17"/><stop offset=".125" stop-color="#f7ae17"/><stop offset=".25" stop-color="#f8af17"/><stop offset=".375" stop-color="#f5ad17"/><stop offset=".5" stop-color="#f0a617"/><stop offset=".625" stop-color="#ea9d18"/><stop offset=".75" stop-color="#e69718"/><stop offset=".875" stop-color="#e18f18"/><stop offset="1" stop-color="#e18f18"/></linearGradient><linearGradient id="d" gradientUnits="userSpaceOnUse" x1="-175.994" x2="-172.458" y1="95.862" y2="95.862"><stop offset="0" stop-color="#cf781f"/><stop offset=".125" stop-color="#d5801d"/><stop offset=".25" stop-color="#e08f1c"/><stop offset=".375" stop-color="#e8991b"/><stop offset=".5" stop-color="#efa31a"/><stop offset=".625" stop-color="#f4a918"/><stop offset=".75" stop-color="#f8ad17"/><stop offset=".875" stop-color="#f7ae17"/><stop offset="1" stop-color="#f9b017"/></linearGradient><linearGradient id="e" gradientUnits="userSpaceOnUse" x1="-186.699" x2="-178.828" y1="86.06" y2="88.316"><stop offset="0" stop-color="#ce751f"/><stop offset=".063" stop-color="#ce751f"/><stop offset=".125" stop-color="#ce751f"/><stop offset=".188" stop-color="#ce751f"/><stop offset=".25" stop-color="#ce751f"/><stop offset=".313" stop-color="#ce771f"/><stop offset=".375" stop-color="#d27d1e"/><stop offset=".438" stop-color="#db881d"/><stop offset=".5" stop-color="#e5971a"/><stop offset=".563" stop-color="#f0a319"/><stop offset=".625" stop-color="#f9af18"/><stop offset=".688" stop-color="#f9b017"/><stop offset=".75" stop-color="#f9b017"/><stop offset=".813" stop-color="#f9b017"/><stop offset=".875" stop-color="#f9b017"/><stop offset=".938" stop-color="#f9b017"/><stop offset="1" stop-color="#f9b017"/></linearGradient><linearGradient id="f" gradientUnits="userSpaceOnUse" x1="-178.559" x2="-170.033" y1="87.79" y2="90.235"><stop offset="0" stop-color="#ce751f"/><stop offset=".063" stop-color="#ce751f"/><stop offset=".125" stop-color="#ce751f"/><stop offset=".188" stop-color="#ce751f"/><stop offset=".25" stop-color="#ce751f"/><stop offset=".313" stop-color="#ce771f"/><stop offset=".375" stop-color="#d37c1e"/><stop offset=".438" stop-color="#dc8a1d"/><stop offset=".5" stop-color="#e5961c"/><stop offset=".563" stop-color="#f0a418"/><stop offset=".625" stop-color="#f9ae17"/><stop offset=".688" stop-color="#f9b017"/><stop offset=".75" stop-color="#f9b017"/><stop offset=".813" stop-color="#f9b017"/><stop offset=".875" stop-color="#f9b017"/><stop offset=".938" stop-color="#f9b017"/><stop offset="1" stop-color="#f9b017"/></linearGradient><linearGradient id="g" gradientUnits="userSpaceOnUse" x1="-184.747" x2="-181.669" y1="94.678" y2="94.678"><stop offset="0" stop-color="#cf7820"/><stop offset=".125" stop-color="#d6811d"/><stop offset=".25" stop-color="#e2921b"/><stop offset=".375" stop-color="#eb9e19"/><stop offset=".5" stop-color="#f1a618"/><stop offset=".625" stop-color="#f6ab18"/><stop offset=".75" stop-color="#f7ac17"/><stop offset=".875" stop-color="#f8ae17"/><stop offset="1" stop-color="#f9b017"/></linearGradient><linearGradient id="h" gradientUnits="userSpaceOnUse" x1="-188.703" x2="-171.22" y1="97.002" y2="97.002"><stop offset="0" stop-color="#e89d11"/><stop offset=".031" stop-color="#e89d11"/><stop offset=".063" stop-color="#e89d11"/><stop offset=".094" stop-color="#e89d11"/><stop offset=".125" stop-color="#e89d11"/><stop offset=".156" stop-color="#e89d11"/><stop offset=".188" stop-color="#e89d11"/><stop offset=".219" stop-color="#e89d11"/><stop offset=".25" stop-color="#e89d12"/><stop offset=".281" stop-color="#e89d13"/><stop offset=".313" stop-color="#e89c14"/><stop offset=".344" stop-color="#e99b15"/><stop offset=".375" stop-color="#e99d15"/><stop offset=".406" stop-color="#e99e18"/><stop offset=".438" stop-color="#e9a01d"/><stop offset=".469" stop-color="#eaa220"/><stop offset=".5" stop-color="#eaa424"/><stop offset=".531" stop-color="#eba82c"/><stop offset=".563" stop-color="#ecad32"/><stop offset=".594" stop-color="#ecad32"/><stop offset=".594" stop-color="#edb13b"/><stop offset=".625" stop-color="#eeb546"/><stop offset=".656" stop-color="#efbc58"/><stop offset=".688" stop-color="#f1c56c"/><stop offset=".719" stop-color="#f4cd7f"/><stop offset=".75" stop-color="#f6d99b"/><stop offset=".781" stop-color="#f8e7b9"/><stop offset=".813" stop-color="#fef6df"/><stop offset=".844" stop-color="#fdefc3"/><stop offset=".875" stop-color="#fcd88d"/><stop offset=".906" stop-color="#fbcc61"/><stop offset=".938" stop-color="#fabe3d"/><stop offset=".969" stop-color="#f9b425"/><stop offset="1" stop-color="#f9b117"/></linearGradient><path d="m934.11 625.295-4.492 6.893 4.492 1.43zm-17.817 21.134-89.997 164.583-38.367 332.026 88.632-150.992z" fill="#211e1e" fill-rule="evenodd"/><path d="m929.623 632.21 4.505-6.936v8.324zm-53.063 359.814-88.609 151.036 38.322-332.07 89.998-164.56zm0 0" fill="none"/><path clip-rule="evenodd" d="m916.813 628.546-64.507 588.882 339.18 105.279c0-22.37 2.755-45.758 9.173-70.034 1.384-8.15 5.033-17.883 7.285-25.686l-3.636-.314 67.302-139.092 53.908-343.342z" fill="#f8ae17"/><path d="m-181.417 90.904-.513 4.68 2.695.836c0-.177.022-.363.073-.556.011-.065.04-.142.058-.204l-.029-.003.535-1.105.429-2.729z" fill="url(#a)" transform="matrix(125.83436 0 0 125.83436 23745.375 -10810.3)"/><path d="m874.637 1039.712-97.28 189.163-30.173 301.724 149.497-298.408-44.414-14.76z" fill="#cc751e" fill-rule="evenodd"/><path clip-rule="evenodd" d="m882.977 286.441 14.567-138.897 243.633 68.495-65.721 122.25c-15.606-5.895-39.71-10.058-129.88-35.721-17.34-5.202-41.617-13.179-62.599-16.127" fill="#f8ae17"/><path d="m-181.57 87.081-.116 1.104c.166.024.36.087.497.128.716.204.908.237 1.032.284l.522-.971z" fill="url(#b)" transform="matrix(125.83436 0 0 125.83436 23745.375 -10810.3)"/><path d="m1856.865 248.662-67.627 152.228-31.604 127.127c-3.297 13.178 27.962-.516 43.048 0z" fill="#cc751e" fill-rule="evenodd"/><path clip-rule="evenodd" d="m1532.746 327.343-63.986 373.513c56.183-77.685 166.793-128.97 287.482-139.027l32.97-160.94z" fill="#f8ae17"/><path d="m-176.523 88.51-.508 2.969c.446-.618 1.325-1.025 2.285-1.105l.262-1.28z" fill="url(#c)" transform="matrix(125.83436 0 0 125.83436 23745.375 -10810.3)"/><g fill="#cc751e"><path d="m2136.22 609.3-190.788 499.275-78.032 326.174 190.593-502.526zm-92.467 388.795-190.529 512.93-66.263 305.562 191.96-522.816z" fill-rule="evenodd"/><path clip-rule="evenodd" d="m2031.462 993.738 1.888 1.233-162.826 431.452s-122.424-31.95-187.798-50.85c-65.547-18.208-80.633 10.274-80.633 10.274s-22.716 50.244 60.345 73.48c82.887 23.236 190.789 51.697 190.789 51.697l191.048-513.972z"/></g><path d="m-172.56 93.806.016.01-1.294 3.429s-.973-.254-1.493-.404c-.52-.145-.64.081-.64.081s-.181.4.479.584c.659.185 1.516.411 1.516.411l1.518-4.085z" fill="url(#d)" transform="matrix(125.83436 0 0 125.83436 23745.375 -10810.3)"/><path d="m1532.746 327.343-207.24 416.886-53.907 343.341c-22.022 139.07 148.585-303.957 190.202-388.925 5.374-11.444 9.513-5.592 16.452-15.996z" fill="#ba6126" fill-rule="evenodd"/><path clip-rule="evenodd" d="m757.498 271.485c-105.575 1.784-213.744 30.432-260.888 106.514-59.13 94.158-234.573 372.668-312.258 496.999 77.338-112.54 247.773-174.619 393.606-136.296 105.083 27.051 248.338 72.31 248.338 72.31l252.303-471.51s-21.892-10.902-147.61-46.623c-47.73-13.851-110.146-22.464-173.491-21.394z" fill="#f8ae17"/><path d="m-182.59 88.066h-.093c-.84.015-1.7.242-2.074.847-.47.748-1.864 2.961-2.481 3.95.614-.895 1.969-1.388 3.128-1.084.835.215 1.973.575 1.973.575l2.005-3.747s-.174-.087-1.173-.37a4.81 4.81 0 0 0 -1.284-.171z" fill="url(#e)" transform="matrix(125.83436 0 0 125.83436 23745.375 -10810.3)"/><path clip-rule="evenodd" d="m1807.42 526.325c-151.188 1.487-294.897 67.367-345.619 172.32-67.28 138.03-257.505 528.017-257.505 528.017l3.637.315c74.045-223.518 364.476-234.465 511.176-193.715 152.769 41.964 230.975 68.539 230.975 68.539l190.593-499.275s12.81 4.725-182.79-55.273c-48.9-14.74-100.076-21.435-150.473-20.939z" fill="#f8ae17"/><path d="m-174.34 90.092c-1.201.011-2.343.535-2.746 1.37l-2.047 4.195.03.003c.588-1.776 2.896-1.863 4.061-1.54 1.214.334 1.836.545 1.836.545l1.515-3.967c-.005 0-.115-.03-1.453-.44a4.02 4.02 0 0 0 -1.196-.166z" fill="url(#f)" transform="matrix(125.83436 0 0 125.83436 23745.375 -10810.3)"/><path d="m978.225 0-80.633 147.546 243.59 68.473-224.343 412.53 408.693 115.682 207.24-416.887 256.466 73.546 67.627-152.228z" fill="#fff" fill-rule="evenodd"/><path d="m917.685 631.02-90.518 179.083-40.252 330.726 97.475-207.24z" fill="#cc751e" fill-rule="evenodd"/><path clip-rule="evenodd" d="m885.236 926.63-100.206 215.89-206.525-115.618-80.633 108.334 234.291 145.01 44.738-50.46 97.801-190.594z" fill="#cc751e"/><path d="m-181.668 93.273-.797 1.716-1.641-.92-.64.862 1.861 1.152.356-.401.777-1.515z" fill="url(#g)" transform="matrix(125.83436 0 0 125.83436 23745.375 -10810.3)"/><path d="m484.217 727.519c-170.557 1.77-340.547 117.031-342.887 274.021-3.297 219.183 187.45 401.8 418.252 475.15 230.453 72.31 187.667 53.908 187.667 53.908l30.172-301.724s-60.909-17.688-152.813-44.739c-91.037-27.05-89.65-53.885-86.876-71.399 3.637-20.115 32.1-34.703 62.1-25.165 30.693 8.843 188.123 55.467 188.123 55.467l38.366-332.026s-143.254-45.258-248.337-72.31c-30.563-7.91-62.184-11.512-93.768-11.184zm1089.197 286.963c-3.624-.008-7.273.007-10.922.065-149.215 2.344-319.629 59.386-362.003 237.737-59.826 248.315 185.564 419.51 398.678 500.836 173.231 65.374 187.472 62.946 187.472 62.946l66.198-305.365c16.125 4.332-58.959-15.607-193-56.704-72.136-22.369-50.07-62.1-50.07-62.1s.377-.504.377-1.366c1.384-2.774 10.582-16.473 23.41-19.248 11.275-2.082 17.319-3.338 50.266 5.853 66.24 17.86 187.991 50.85 187.991 50.85l78.033-326.563s-78.011-26.336-230.78-68.473c-40.28-11.11-91.267-18.36-145.595-18.468z" fill="#fff" fill-rule="evenodd"/><path d="m2041.125 978.325-6.38 17.167 9.5 1.558-19.376 88.762c142.885 69.535 168.158 194.408 165.036 224.927-2.428 24.624-24.08 48.033-41.941 69.189-18.035 21.155-199.959 242.094-817.972 239.493-964.994-4.338-1326.154-356.867-1326.154-356.867l-3.838 279.16s399.894 354.979 1361.074 253.54c812.053-85.663 828.31-390.551 828.31-390.551l9.363-102.092s25.663-207.76-157.626-324.288z" fill="#e69c11"/><path d="m-172.482 93.684-.052.136.076.013-.154.705c1.136.552 1.337 1.545 1.312 1.787-.02.196-.192.382-.333.55-.144.168-1.59 1.924-6.5 1.903-7.67-.034-10.54-2.836-10.54-2.836l-.03 2.219s3.178 2.82 10.816 2.015c6.454-.681 6.583-3.104 6.583-3.104l.074-.811s.204-1.651-1.253-2.577z" fill="url(#h)" transform="matrix(125.83436 0 0 125.83436 23745.375 -10810.3)"/><path d="m75.085 1555.936c.173 7.976-5.202 10.924-11.965 6.416l-8.67-5.723c-6.59-4.332-11.965-14.74-11.965-22.716l-.867-193.866c0-7.976 5.55-11.271 12.312-6.763l117.395 74.39c6.763 4.16 12.312 14.047 12.312 22.196v182.595c0 8.15-5.723 11.619-12.832 7.63l-12.312-6.936c-6.936-3.64-12.832-13.352-12.832-21.329l-.52-147.567c0-7.977-5.723-18.034-12.485-22.022l-45.78-27.225c-6.762-4.16-12.484-.865-12.311 7.11zm280.742 123.117c0 7.976-6.069 12.138-13.525 9.19l-113.233-43.177c-7.457-2.775-13.526-11.792-13.526-19.768l.694-182.595c0-8.15 6.069-11.966 13.352-8.67l113.927 51.847c7.283 3.12 13.178 12.485 13.178 20.462v4.682c0 8.15-5.895 11.965-13.352 9.017l-77.685-32.774c-7.456-3.293-13.525.693-13.525 8.67v13.7c0 7.977 6.069 17.167 13.525 20.288l61.906 27.05c7.283 3.122 13.352 12.14 13.525 20.116l.173 3.64c0 8.15-5.896 11.965-13.179 9.19l-62.425-25.49c-7.457-3.12-13.352 1.039-13.179 9.19l.52 30c.173 7.976 6.243 16.993 13.7 19.941l75.604 28.612c7.456 2.948 13.525 11.618 13.525 19.595v7.282m27.051-163.692c0-7.976 6.243-12.485 13.873-9.884l121.383 40.577c7.63 2.601 13.872 11.271 14.046 19.247v6.07c0 8.15-6.243 12.658-13.7 10.057l-29.131-9.537c-7.457-2.428-13.7 2.082-13.7 10.057l.521 130.748c0 8.15-6.416 13.005-14.046 11.27l-11.965-2.947c-7.803-1.736-14.045-9.884-14.045-17.861v-134.042c0-7.976-6.243-16.646-13.7-19.247l-25.663-9.364c-7.63-2.602-13.7-11.445-13.873-19.595zm177.393 58.264c0-8.15 6.416-13.352 14.393-11.445l113.58 27.052c7.803 1.908 13.872 9.71 13.699 17.34s-6.763 12.832-14.566 11.271l-72.657-14.392c-7.803-1.736-14.219 3.64-14.219 11.618v11.791c0 7.977 6.416 15.78 14.22 17.167l64.506 11.098c7.803 1.216 14.392 8.844 14.74 16.82v2.429c.172 7.803-6.07 13.178-13.873 11.965l-65.374-11.792c-7.803-1.385-14.219 3.99-14.392 11.792l-.347 22.368c-.173 7.977 6.243 15.78 14.046 16.994l77.165 13.526c7.977 1.385 14.566 9.017 14.74 16.994l.173 2.947c.173 7.977-6.243 13.352-14.046 12.139l-117.395-20.635c-7.803-1.217-14.392-9.018-14.392-16.994v-160.053m283.862 43.177c-7.803-1.384-20.635-3.64-28.611-4.854l-62.6-9.711c-7.976-1.563-14.392 3.986-14.392 11.965l-.173 149.301c0 7.977 6.416 15.433 14.22 16.647l10.924 1.736c7.976 1.038 14.392-4.509 14.392-12.486l-.173-43.697c0-7.804 6.59-13.873 14.566-13.006 0 0 30.693 2.948 40.403 3.987 7.283.52 46.993-3.467 48.554-48.727 1.56-44.045-37.109-51.154-37.109-51.154zm-23.062 66.414c-8.67.52-30.52-2.255-30.52-2.255-7.976-1.038-14.392-8.323-14.392-16.3v-17.514c0-7.976 6.416-13.525 14.392-12.485l11.272 1.563c7.976 1.039 20.982 3.12 28.785 4.682 0 0 12.138 2.082 12.138 20.635 0 18.381-13.005 21.156-21.675 21.675m198.895 14.392c-8.324-1.385-56.877-5.202-56.877-5.202-7.977-.865-14.566-7.803-14.74-15.78l-.173-7.803c-.173-7.976 6.07-13.872 14.046-13.179l73.87 6.936c7.804.693 14.567-4.681 14.74-11.964.346-7.283-6.07-13.526-14.046-14.393l-109.765-8.67c-7.977-.866-14.566 5.202-14.566 13.352l-.694 138.55c0 7.803 6.416 14.566 14.566 14.74l76.819 1.735c7.976.355 20.981 0 28.958-.355 0 0 33.64-1.736 35.895-45.085 2.428-43.178-39.71-51.501-48.033-52.889zm-11.272 71.963c-5.549.693-45.605-1.909-45.605-1.909-7.977-.519-14.566-7.456-14.566-15.433l.173-17.687c0-8.15 6.416-13.872 14.393-13.179l25.664 2.255c7.976.693 20.982 2.082 28.785 2.775 0 0 13.699 1.736 13.699 20.115 0 18.554-17.167 22.543-22.543 23.063m79.94-117.395c-4.335-6.763-1.214-12.138 6.763-11.791l12.658.52c8.15.354 17.86 6.415 21.676 13.351l29.132 53.235c3.988 6.937 9.884 6.59 13.352-.692l22.89-49.767c3.468-7.283 12.658-12.832 20.634-12.832l8.67.178c7.977.177 11.445 6.069 7.457 13.179 0 0-66.76 119.995-72.83 128.492-6.069 8.15-15.086 9.711-19.248 9.711-3.988 0-20.462.355-20.462.355-8.15.178-14.565-5.028-14.565-11.27.173-6.417 6.762-11.446 14.739-11.446h4.335c2.08 0 6.07-.865 10.925-2.947 3.641-1.385 6.936-4.16 8.67-7.11l2.08-2.775c2.429-4.682 1.041-14.045-3.12-20.635l-53.756-87.742m265.135-8.164c-3.988.355-80.112.52-80.112.52-7.977.177-14.566 6.762-14.74 14.739l-1.387 114.447c0 7.976 6.416 13.872 14.392 13.525l3.989-.355c7.976-.52 14.739-7.63 15.086-15.606l1.04-21.503c.347-7.976 7.283-14.912 15.26-15.26 0 0 28.612-1.211 35.895-1.562 7.456-.355 49.767-9.71 49.073-48.206-.867-38.496-34.68-41.444-38.496-40.75zm-15.26 62.426c-3.987 1.039-32.079 2.428-32.079 2.428-7.977.355-14.566-5.723-14.566-13.872v-11.619c0-8.15 6.59-14.739 14.566-14.739 0 0 24.797-.177 28.785.178 3.988.177 19.421 3.813 19.421 16.82 0 12.831-12.311 19.768-16.126 20.808m123.464 47.855c0 8.15-6.416 15.78-14.393 16.647l-9.71 1.559c-7.977 1.216-14.393-4.333-14.393-12.485v-104.043c0-7.803 6.416-15.086 14.566-15.953l89.13-8.15c7.977-.693 14.393 3.813 14.22 10.057 0 6.243-6.59 12.138-14.393 13.006l-49.768 5.895c-7.976.693-14.565 7.977-14.565 15.953l-.694 77.512" fill="#fff"/></svg>