<svg xmlns="http://www.w3.org/2000/svg" width="2500" height="2500" viewBox="0 0 192.756 192.756"><g fill-rule="evenodd" clip-rule="evenodd"><path fill="#fff" d="M0 0h192.756v192.756H0V0z"/><path d="M33.106 81.958c.533-1.691.947-4.144.947-5.158 0-2.114-.947-3.129-3.197-3.213-1.539 0-1.894-.254-1.894-1.269 0-1.099.651-1.775 1.598-1.775.296 0 9.649-.084 9.945-.084.947 0 1.599.761 1.599 1.776 0 .761-.355 1.184-1.066 1.269-1.716.338-2.841 2.283-4.736 8.456L22.51 126.521c-.296.93-.474 1.099-.829 1.099-.414 0-.651-.253-.947-1.183L7.06 81.958c-1.894-6.173-3.019-8.118-4.617-8.456-.711-.085-1.066-.507-1.066-1.185 0-1.099.651-1.86 1.599-1.86h.119c.473.084 13.555 0 14.029 0h.119c.947 0 1.598.676 1.598 1.776 0 .93-.355 1.184-1.48 1.353-.947.084-1.302.676-1.302 2.114 0 1.1.533 4.059 1.184 6.258l7.636 27.229 8.227-27.229zM32.644 104.395c0-8.314 4.077-12.796 11.18-12.796 5.979 0 8.761 3.128 8.761 9.808v15.982c-.16 5.976 3.774 4.396 3.893 4.396.414 0-.814 3.045-2.235 3.891-1.125.762-2.487 1.1-3.848 1.1-2.368 0-4.558-1.269-5.209-3.045-.06-.338-.119-.254-.119-.338 0 .084-.059.084-.118.169 0 .254-.592.846-.592.846-1.539 2.03-3.907 3.044-6.57 3.044-4.262 0-6.689-3.044-6.689-8.54 0-6.85 2.25-9.218 11.958-12.685 1.125-.423 1.42-.761 1.42-1.945v-3.129c0-3.297-1.184-5.58-2.9-5.58-1.302 0-2.19 1.184-2.19 2.875 0 .423-.068 3.805-.068 6.031l-6.674-.084zm9.818 6.06c-2.309 1.438-3.493 3.805-3.493 7.188 0 2.621 1.006 4.229 2.546 4.229 1.598 0 2.959-1.438 2.959-3.214v-8.879c0-.507 0-.423-.059-.507 0 0-.059 0-.177.084l-.651.423-1.125.676zM70.229 105.212c3.67 2.283 5.328 5.496 5.328 10.401 0 7.61-3.848 11.923-10.478 11.923-1.303 0-2.486-.169-3.611-.508l-2.368-.507c-1.479-.339-1.657-.508-1.657-1.607v-.168c.06-.508.06-.931.06-1.522 0-2.368-.178-5.412-.355-6.681-.059-.423-.059-.761-.059-1.015 0-.931.355-1.522.888-1.522.651 0 1.006.592 1.361 1.945 1.421 6.258 3.315 8.879 6.334 8.879 2.19 0 3.729-1.945 3.729-4.65 0-2.199-1.006-3.806-3.255-5.243l-4.617-2.96c-3.256-2.029-4.618-4.819-4.618-9.302 0-6.765 3.67-11.077 9.531-11.077 4.084 0 7.104 1.522 7.104 3.551v.423c-.059.677 0 1.438.06 2.452l.236 2.79v.338c0 1.016-.296 1.522-.888 1.522-.71 0-1.006-.423-1.717-2.536-1.183-3.298-3.255-5.497-5.268-5.497-1.717 0-2.96 1.522-2.96 3.636 0 1.775.77 2.874 2.664 4.059l4.556 2.876zM109.66 117.559c0 4.819.594 6.172 2.666 6.426 1.006.169 1.301.423 1.301 1.185 0 1.014-.533 1.521-1.301 1.521h-11.959c-.77 0-1.303-.508-1.303-1.521 0-.677.178-.931 1.008-1.185 1.123-.338 1.42-1.775 1.42-6.426V79.844c0-4.059-.711-6.003-2.189-6.342l-1.008-.169c-.473-.084-.887-.592-.887-1.184 0-1.268.709-1.775 2.486-2.029.77 0 2.07-.507 3.848-1.269 2.248-1.015 3.787-1.775 4.498-2.283.475-.338.889-.507 1.125-.507.295 0 .414.253.414.846v.084l-.119 3.467v47.101z" fill="#34549c"/><path d="M123.109 117.559c0 4.819.533 6.172 2.605 6.426 1.006.169 1.242.423 1.242 1.185 0 1.014-.473 1.521-1.301 1.521h-11.781c-.77 0-1.301-.508-1.301-1.521 0-.677.236-.931 1.006-1.185 1.064-.338 1.361-1.606 1.361-6.426v-12.601c0-4.059-.711-6.088-2.189-6.342l-1.008-.254c-.473-.084-.887-.592-.887-1.184 0-1.184.709-1.775 2.486-1.945.768-.084 2.07-.507 3.848-1.353 2.248-.93 3.729-1.691 4.498-2.283.533-.338.947-.507 1.184-.507s.355.253.355.93l-.119 3.467v22.072h.001z" fill="#34549c"/><path d="M137.83 96.334v.76c0-.084.059-.084.119-.169.117-.338.236-.338.354-.507l1.658-1.86c1.361-1.522 3.967-2.622 6.275-2.622 2.781 0 5.209 1.691 6.451 4.736 1.125 2.621 1.363 4.48 1.363 10.485v10.401c0 5.073.414 6.172 2.426 6.426.947.169 1.244.423 1.244 1.185 0 1.014-.533 1.521-1.363 1.521h-11.068c-.83 0-1.361-.508-1.361-1.521 0-.593.117-.762.65-1.016l.236-.169c.711-.338 1.066-1.775 1.066-4.819v-10.74c0-7.188-1.361-10.569-4.203-10.569-2.367 0-3.848 2.198-3.848 5.75v13.953c0 4.65.533 6.088 2.428 6.426.945.169 1.242.423 1.242 1.185 0 1.014-.533 1.521-1.361 1.521h-11.84c-.77 0-1.301-.508-1.301-1.521 0-.677.236-.931 1.006-1.185 1.303-.338 1.656-1.775 1.656-6.426v-12.601c0-4.144-.65-6.088-2.189-6.342l-1.006-.254c-.475-.084-.889-.592-.889-1.184 0-1.184.711-1.775 2.486-1.945.77-.084 2.072-.507 3.848-1.353 2.191-.93 3.73-1.691 4.5-2.283.531-.338.887-.507 1.125-.507.295 0 .414.253.414.93l-.119 3.467v.847h.001zM163.459 107.495s-.676 14.319 8.783 14.319c1.953 0 4.025-.621 5.742-2.565.711-.761 1.008-1.015 1.303-1.015.475 0 .828.423.828 1.015 0 .677-.354 1.691-.77 2.368-2.189 3.721-6.273 6.003-10.596 6.003-7.518 0-12.432-6.765-12.432-17.25 0-11.077 4.973-18.434 12.373-18.434 6.393 0 11.424 6.003 11.424 13.699 0 1.691.125 1.86.02 1.86h-16.675zm9.576-3.214s.363-9.225-4.463-9.47c-6.477-.33-5.23 9.47-5.23 9.47h9.693zM83.498 107.495s-.676 14.319 8.784 14.319c1.953 0 4.025-.621 5.742-2.565.711-.761 1.006-1.015 1.303-1.015.473 0 .828.423.828 1.015 0 .677-.355 1.691-.77 2.368-2.189 3.721-6.275 6.003-10.596 6.003-7.518 0-12.431-6.765-12.431-17.25 0-11.077 4.972-18.434 12.372-18.434 6.393 0 11.424 6.003 11.424 13.699 0 1.691.123 1.86.02 1.86H83.498zm9.576-3.214s.363-9.225-4.462-9.47c-6.478-.33-5.232 9.47-5.232 9.47h9.694zM118.738 85.021c2.912 0 5.273-3.212 5.273-7.175 0-3.963-2.361-7.175-5.273-7.175s-5.273 3.212-5.273 7.175c0 3.962 2.361 7.175 5.273 7.175zM182.777 88.171h-1.316v-8.016h3.041c1.936 0 2.924.678 2.924 2.304 0 1.452-.891 2.053-2.092 2.188l2.246 3.524h-1.49l-2.072-3.427h-1.24v3.427h-.001zm1.473-4.55c.988 0 1.859-.097 1.859-1.259 0-.968-.949-1.084-1.744-1.084h-1.588v2.343h1.473zm-.039 7.649c-4.164 0-7.125-3.118-7.125-7.242 0-4.357 3.291-7.242 7.125-7.242 3.795 0 7.088 2.885 7.088 7.242s-3.293 7.242-7.088 7.242zm0-13.226c-3.137 0-5.576 2.459-5.576 5.983 0 3.292 2.129 5.983 5.576 5.983 3.098 0 5.537-2.439 5.537-5.983 0-3.524-2.439-5.983-5.537-5.983z" fill="#34549c"/></g></svg>