<svg xmlns="http://www.w3.org/2000/svg" width="2500" height="2497" viewBox="0 0 192.993 192.756"><path fill-rule="evenodd" clip-rule="evenodd" fill="#fff" d="M0 0h192.756v192.756H0V0z"/><path d="M37.786 37.028C54.349 18.739 78.158 8.042 103.002 8.042c48.654 0 88.336 39.683 88.336 88.336 0 48.654-39.682 88.336-88.336 88.336-33.815 0-65.216-19.668-79.708-50.034" fill="none" stroke="#000" stroke-width="3.311" stroke-miterlimit="2.613"/><path d="M40.905 41.1c15.588-17.537 38.322-27.93 62.029-27.93 45.791 0 83.139 37.347 83.139 83.138s-37.348 83.139-83.139 83.139c-30.528 0-59.106-17.537-73.396-44.168" fill="none" stroke="#000" stroke-width="3.311" stroke-miterlimit="2.613"/><path d="M23.737 54.309h27.98l6.745 9.629H17.017l6.72-9.629zm26.125-2.648H25.586l12.115-17.36 12.161 17.36zm123.611 80.52v4.711l-.16.04h-24.266l2.16-4.751h22.266zm0-9.082v6.434h-21.061l2.928-6.434h18.133zm0-11.606v8.956h-16.928l4.074-8.956h12.854zm0-11.772v9.124h-11.648l4.152-9.124h7.496zm0-10.261v7.611h-6.291l3.461-7.611h2.83zm0-2.648v-3.573l-1.623 3.573h1.623zM15.167 66.587h45.151l5.685 8.115H9.504l5.663-8.115zM7.655 77.351h60.204l6.26 8.937H63.664v.525H11.677v-.525H1.417l6.238-8.937zM123.186 89.46h2.83l3.463 7.611h-6.293V89.46zm-38.097 0h16.077a25.223 25.223 0 0 1 11.141 7.611H73.949a25.226 25.226 0 0 1 11.14-7.611zm-73.412 0h51.986v7.611H11.677V89.46zm113.134-2.648h-1.625v-3.573l1.625 3.573zm-1.625 12.909h7.498l4.15 9.124h-11.648v-9.124zm-51.194 0h42.272a24.966 24.966 0 0 1 3.584 9.124h-49.44a24.935 24.935 0 0 1 3.584-9.124zm-60.315 0h51.986v9.124H11.677v-9.124zm111.509 11.772h12.854l4.076 8.956h-16.93v-8.956zm-55.104 0h50.092a24.934 24.934 0 0 1-.996 8.956H69.077a24.968 24.968 0 0 1-.995-8.956zm-56.405 0h51.986v8.956H11.677v-8.956zm111.509 11.606h18.135l2.926 6.434h-21.061v-6.434zm-53.145 0h46.174a25.234 25.234 0 0 1-4.004 6.434H74.045a25.24 25.24 0 0 1-4.004-6.434zm-58.364 0h51.986v6.434H11.677v-6.434zm111.509 9.082h22.266l2.162 4.751h-24.428v-4.751zm-46.515 0h32.915a25.138 25.138 0 0 1-8.139 4.751H84.809a25.159 25.159 0 0 1-8.138-4.751zm-64.994 0h51.986v4.751H11.677v-4.751zM83.401 43.035c2.799 0 4.808.517 6.024 1.55s1.996 2.178 2.335 3.434c.131.419.216.838.255 1.256.039.418.059.811.059 1.177 0 1.753-.497 3.16-1.491 4.22-.995 1.06-2.12 1.734-3.376 2.021v.118l.471.079c.157.026.314.065.471.117 1.309.341 2.512 1.061 3.611 2.159 1.099 1.099 1.649 2.721 1.649 4.867 0 2.617-.694 4.488-2.081 5.613-1.386 1.125-2.917 1.845-4.592 2.159-.681.157-1.348.254-2.002.294a30.53 30.53 0 0 1-1.805.059H70.605V43.035h12.796zM74.53 68.862H83.323c1.492-.052 2.865-.405 4.121-1.059 1.256-.655 1.884-2.016 1.884-4.083 0-1.78-.556-3.062-1.668-3.847-1.112-.785-2.793-1.177-5.043-1.177H74.53v10.166zm0-13.463h7.851c2.067 0 3.5-.412 4.298-1.236.798-.825 1.249-1.734 1.354-2.728.026-.105.04-.204.04-.295v-.294c0-.261-.02-.556-.059-.883a3.828 3.828 0 0 0-.294-1.04c-.262-.654-.778-1.25-1.55-1.786s-1.995-.805-3.67-.805h-7.97v9.067zM99.885 72.159h-4.199l11.029-29.124h4.201l11.029 29.124h-4.201l-2.787-7.536h-12.324l-2.748 7.536zm14.013-10.833l-5.104-14.327-5.102 14.327h10.206zM141.021 68.862V43.035h3.924v25.827h11.776V43.035h3.925v29.124H125.32V43.035h3.926v25.827h11.775z" fill-rule="evenodd" clip-rule="evenodd"/><path d="M83.401 43.035c2.799 0 4.808.517 6.024 1.55s1.996 2.178 2.335 3.434c.131.419.216.838.255 1.256.039.418.059.811.059 1.177 0 1.753-.497 3.16-1.491 4.22-.995 1.06-2.12 1.734-3.376 2.021v.118l.471.079c.157.026.314.065.471.117 1.309.341 2.512 1.061 3.611 2.159 1.099 1.099 1.649 2.721 1.649 4.867 0 2.617-.694 4.488-2.081 5.613-1.386 1.125-2.917 1.845-4.592 2.159-.681.157-1.348.254-2.002.294a30.53 30.53 0 0 1-1.805.059H70.605V43.035h12.796zM74.53 68.862H83.323c1.492-.052 2.865-.405 4.121-1.059 1.256-.655 1.884-2.016 1.884-4.083 0-1.78-.556-3.062-1.668-3.847-1.112-.785-2.793-1.177-5.043-1.177H74.53v10.166zm0-13.463h7.851c2.067 0 3.5-.412 4.298-1.236.798-.825 1.249-1.734 1.354-2.728.026-.105.04-.204.04-.295v-.294c0-.261-.02-.556-.059-.883a3.828 3.828 0 0 0-.294-1.04c-.262-.654-.778-1.25-1.55-1.786s-1.995-.805-3.67-.805h-7.97v9.067zm25.355 16.76h-4.199l11.029-29.124h4.201l11.029 29.124h-4.201l-2.787-7.536h-12.324l-2.748 7.536zm14.013-10.833l-5.104-14.327-5.102 14.327h10.206zm27.123 7.536V43.035h3.924v25.827h11.775V43.035h3.926v29.124H125.32V43.035h3.926v25.827h11.775z" fill="none" stroke="#000" stroke-width=".216" stroke-miterlimit="2.613"/></svg>