<svg viewBox="-1.1 -2.81 136.1 77.46000000000001" xmlns="http://www.w3.org/2000/svg" width="2500" height="1463"><g fill="#f41c5e"><path d="M29.94 36.25a4.94 4.94 0 0 0-3.88-4.74C20.53 37.77 20 48 19.62 51.44c-.19 4.06 3.87 4.17 3.87 4.17 4.68-1.15 4-4.76 4-4.76a1.46 1.46 0 0 1-.46-1.25c.05-.94 2.91-12.4 2.91-13.35zM92 31.87c1 0 3.13-1.66 3.13-3 0-.62-2.35-5.69-5.53-5.69a2.58 2.58 0 0 0-2.21 2.09c0 1.52 1.33 6.6 4.61 6.6zM31.23 28.24c1 0 2.75-.65 2.75-2 0-.62-2.51-6.65-5.69-6.65a2.58 2.58 0 0 0-2.21 2.09c0 1.54.35 6.56 5.15 6.56z"/><path d="M41.07.56C39.76-.92 23-2.81 8.54 42.77a.32.32 0 0 1-.61 0c-2.27-12.1-1.27-25.77-1.56-28C5.65 9.23 1 11 1 11c-2.1 4.34-.76 39.54 2.75 44.13 2.09.89 8.07.58 9.34-.84 0 0 8.38-44.51 27.98-53.73zM131 33.12a.93.93 0 0 0-.69.54c-5.07 9.15-9.66 16.44-13.56 16.74a1.33 1.33 0 0 1-1.46-1.18v-.12c-.48-3.52 2.82-12.21 2.59-14.69-.09-.92-.55-.82-1.14-1.19a4.25 4.25 0 0 0-.62.65.34.34 0 0 1-.38.1 37.92 37.92 0 0 0-7-1.7c1.8-5 5.55-15.65 5.55-16.6 0-2.37-1.74-3.17-4.68-4-4.74 8.35-7.75 19.71-8 20.56-1.53 1.38-3.85.11-4.3 2.81 1.15 1.22 3.31 2.22 3.31 3.17S99 43 99.64 55.61c.83.32 4.24-3.32 4.35-4.41.94-9.78 3.42-13.29 3.42-13.29a35.61 35.61 0 0 0 6.19-.33.08.08 0 0 1 .09.12c-.55 1.12-3.88 8-3.9 11.14 0 4.11 1.31 6.43 4.73 6.74a9.78 9.78 0 0 0 2.18 0 16.29 16.29 0 0 0 10.2-5.8.29.29 0 0 1 .5.27c-5 17.9-14.7 22.37-18.78 23.35.14 1.25 7.19.89 12.11-3.28a39.79 39.79 0 0 0 11.6-18c.54-1.83 1.06-3.72 1.46-5.65A57.26 57.26 0 0 0 135 35.89c0-.6-3.3-2.77-4-2.77zM97.47 53.19h-.18c-5.25 0 .92-18.52-6.48-17.52a14.4 14.4 0 0 0-3.81 1.5.84.84 0 0 0-.33.31 73.89 73.89 0 0 1-9.18 12 .85.85 0 0 1-1.43-.31c-2.7-8.69 9.17-34.27 9.34-34.83.9-2.88-3-4.25-5-4.46C76.11 16 68.9 35.25 69.62 50.6a.47.47 0 0 1-.29.46c-1.21.5-5.6 2.1-5.08-1.49.13-.94 2.21-6.45 2.21-7.4 0-.62-2.63-4.17-4.61-4.17-.85 0-8.26 9.41-10.77 11.61a.85.85 0 0 1-1.33-.29C48.43 46.3 51.7 38.11 61 35a24.13 24.13 0 0 0 2.39-2.37.88.88 0 0 0 .11-.73 1.47 1.47 0 0 0-.71-.74c-5.19-2.4-16.74-2.06-18.71-2.33 1.45-6.62 6-17.23 6.12-18.26.19-1.59-1.37-3.14-4.58-4A142.65 142.65 0 0 0 36 28.75c-.86.9-2.15.54-3 3.08 0 1.15 1.87 2.43 1.87 3.47s-1.77 6.57-1.09 20.34c2.56.15 5.32-3.9 5.5-5.08A112.08 112.08 0 0 1 42.51 35a80 80 0 0 0 10.25-.66.1.1 0 0 1 .08.18c-5 4.2-9.68 8.27-9.57 16.12 0 3.18 3.41 5 5.35 5 3.33 0 6.75-3 8.38-4.82a.55.55 0 0 1 1 .26 5.36 5.36 0 0 0 5.41 4.55c2.23 0 5.52-2.1 6.78-2.79a.26.26 0 0 1 .33.06c.84 1 2.53 2.74 4.14 2.74 4.82 0 9.71-7 12.43-11.34a.5.5 0 0 1 .91.16c1 4.64 1 11.19 5.67 11.19a13.87 13.87 0 0 0 4.25-.82.85.85 0 0 0-.45-1.64z"/></g></svg>