<svg xmlns="http://www.w3.org/2000/svg" width="2500" height="2500" viewBox="0 0 192.756 192.756"><g fill-rule="evenodd" clip-rule="evenodd"><path fill="#fff" d="M0 0h192.756v192.756H0V0z"/><path d="M26.697 76.062l7.277 13.221s6.914-12.614 7.277-13.221h-4.366v-3.396h14.918v3.396H46.83c-.243.364-9.825 18.194-9.825 18.194H25.361c-.121 0-10.066-18.194-10.066-18.194h-4.852v-3.396h21.468v3.396h-5.214zM122.395 76.062l7.277 13.221s6.793-12.614 7.156-13.221h-4.244v-3.396h14.797v3.396h-4.973c-.123.364-9.705 18.194-9.824 18.194h-11.645l-9.945-18.194h-4.973v-3.396h21.588v3.396h-5.214zM101.168 90.86c1.82 0 2.549-.243 3.275-.607.607-.242 1.213-.728 1.699-1.091 1.455-1.456 2.061-3.275 2.061-4.852h3.275v9.946H81.641V90.86h5.094c0-.243-.121-14.798-.121-14.798h-4.973v-3.396h19.892v3.396H96.56V90.86h4.608z" fill="#285ea4"/><path d="M65.146 91.466c3.76 0 5.215-4.124 5.215-8.005 0-4.124-1.819-7.762-5.215-7.762s-5.337 3.638-5.337 7.762c0 4.002 1.698 8.005 5.337 8.005zm-15.403-8.005c0-6.186 5.336-11.159 15.282-11.159 10.067 0 15.404 4.973 15.404 11.159 0 6.428-5.094 11.401-15.283 11.401-10.188 0-15.403-4.973-15.403-11.401zM160.723 91.466c3.76 0 5.336-4.124 5.336-8.005 0-4.124-1.939-7.762-5.336-7.762s-5.338 3.638-5.338 7.762c0 4.002 1.699 8.005 5.338 8.005zm-15.284-8.005c0-6.186 5.215-11.159 15.283-11.159 9.945 0 15.281 4.973 15.281 11.159 0 6.428-4.973 11.401-15.281 11.401-10.189 0-15.283-4.973-15.283-11.401zM71.453 107.355v-8.248H41.737v3.275h4.852v14.797h-4.852v3.275h29.716v-9.947h-3.275v.85c0 3.154-2.183 5.822-4.973 5.822h-6.55v-6.672h6.55v-3.152h-6.55v-4.488h6.671c2.426 0 4.002 1.455 4.852 4.488h3.275zM142.893 107.355c0-2.67-2.305-4.973-4.973-4.973h-1.699s.365 0 0 0v14.797h4.975v3.275h-19.893v-3.275h4.973v-14.797h-1.697c-2.789 0-4.973 2.303-4.973 4.973h-3.275v-8.248h29.838v8.248h-3.276zM76.547 120.455v-3.275h4.852v-14.797h-4.852v-3.276h15.768l12.371 10.553v-7.277h-4.973v-3.276h14.92v3.276h-4.973v18.072h-8.248l-14.919-13.1v9.825h4.973v3.275H76.547zM163.754 110.508l-3.396-6.186-3.395 6.186h6.791zm-5.943 9.947h-14.918v-3.275h4.973l9.945-18.072h11.766l9.703 18.072h4.973v3.275h-21.469v-3.275h4.488l-1.697-3.275h-10.432l-1.818 3.275h4.486v3.275zM23.301 109.174v-6.791h2.911c1.455 0 2.668.484 3.396 1.334.485.484.85 1.334.85 2.061 0 .971-.364 1.699-.971 2.305-.728.607-1.94 1.092-3.274 1.092h-2.912v-.001zm17.102-3.274c0-1.699-.606-3.154-1.698-4.246-1.455-1.576-3.881-2.547-6.549-2.547H8.504v3.76h4.852v14.312H8.504v3.275h19.892v-3.275h-4.973v-4.73h8.733c2.547 0 4.852-.85 6.429-2.184a6.242 6.242 0 0 0 1.818-4.365z" fill="#285ea4"/></g></svg>