<svg xmlns="http://www.w3.org/2000/svg" width="2500" height="2500" viewBox="0 0 192.756 192.756"><g fill-rule="evenodd" clip-rule="evenodd"><path fill="#fff" d="M0 0h192.756v192.756H0V0z"/><path d="M113.229 82.973c.144-.057 1.141-.674 2.999-1.851.774-.488 1.42-.732 1.93-.732.144 0 .358.029.646.085.632.201 1.091.467 1.393.797.301.33.452.71.452 1.141 0 .718-.402 1.32-1.206 1.808-.487.316-1.406.596-2.755.84s-2.095.38-2.238.409c-1.35.373-2.282.703-2.799.99-.832.488-1.37 1.241-1.614 2.26a22.439 22.439 0 0 0-.517 3.186c-.1 1.105-.15 2.318-.15 3.638v5.553c0 1.205-.122 2.654-.359 4.348-.537 3.731-.803 6.027-.803 6.888v2.498c0 1.32-.137 2.225-.402 2.712-.408.746-1.327 1.277-2.74 1.593 0-2.123.193-4.506.581-7.146.388-2.641.789-5.346 1.205-8.115s.624-5.13.624-7.082c0-1.549-.028-2.611-.086-3.185s-.187-1.349-.388-2.325c-.2-.976-.502-1.636-.903-1.98-.402-.344-.919-.517-1.55-.517-.46 0-1.062.101-1.809.302-1.808.488-2.898.746-3.271.774H97.36c-1.349 0-2.281-.157-2.798-.473-.688-.431-1.119-1.32-1.292-2.669 3.458-.172 6.077-.401 7.864-.688 3.257-.545 5.216-1.98 5.876-4.305 1.349.774 2.045 1.176 2.103 1.205a4.34 4.34 0 0 0 1.887.431c.542-.003 1.288-.132 2.229-.39zm11.164 26.863l-3.1 4.993c-1.579 1.607-2.855 2.411-3.831 2.411-.689 0-1.198-.402-1.529-1.206-.33-.804-.494-1.837-.494-3.1 0-.89.086-1.858.258-2.905.172-1.048.373-1.944.603-2.69.488-1.55 1.421-3.128 2.799-4.735 1.578-1.837 3.013-2.756 4.305-2.756.603 0 1.141.194 1.614.574.474.388.896 1.026 1.27 1.908l3.1 7.44c.459 1.112 1.479 1.974 3.057 2.569.459.172 1.938.56 4.435 1.154-.431.833-.919 1.45-1.464 1.852-.545.402-1.105.603-1.679.603-1.693 0-3.603-1.435-5.726-4.305a36.036 36.036 0 0 1-2.368-3.702c-.028.028-.043.057-.043.086-.519.862-.92 1.464-1.207 1.809zm.645-6.242c-.344-.373-.761-.561-1.248-.561-1.378 0-2.992 1.077-4.844 3.229-1.851 2.152-2.776 3.932-2.776 5.338 0 .259.043.502.129.731.402.775.947 1.162 1.636 1.162 1.234 0 2.812-1.363 4.735-4.09 1.55-2.209 2.54-3.945 2.971-5.208l-.603-.601zm18.08-1.249c.432.058.876-.101 1.335-.474.603-.487 1.055-.761 1.356-.817a5.376 5.376 0 0 1 1.012-.087c1.033 0 1.923.287 2.669.861s1.306 1.306 1.679 2.195c.373.891.56 1.794.56 2.713 0 2.095-.746 4.104-2.238 6.026-1.493 1.923-3.2 3.014-5.123 3.271-.488.087-.919.13-1.292.13-1.722 0-2.955-.617-3.702-1.852-.603-1.004-.903-2.482-.903-4.434 0-1.206.101-2.547.301-4.025.201-1.479.402-2.863.603-4.154.517-4.621.947-7.82 1.292-9.6.804-4.248 1.822-6.874 3.057-7.879.315 1.062.473 2.225.473 3.487 0 1.435-.315 3.616-.946 6.544-.632 2.927-.947 5.137-.947 6.629 0 .775.058 1.464.172 2.066l.642-.6zm-2.496 10.59h.603c.172.115.423.201.753.259s.668.086 1.012.086c.488 0 .89-.021 1.205-.064.316-.043.833-.15 1.55-.323.718-.172 1.594-.968 2.626-2.389 1.033-1.421 1.55-2.733 1.55-3.939 0-.688-.187-1.263-.56-1.722a1.837 1.837 0 0 0-.774-.581 2.805 2.805 0 0 0-1.076-.194c-.688 0-1.37.13-2.045.388a6.225 6.225 0 0 0-1.743.99c-1.062.89-1.895 2.066-2.497 3.53a157.345 157.345 0 0 0-1.249 3.357l.645.602zm16.187-1.851l1.248-1.248c.459-.374 1.033-1.148 1.722-2.325.402-.688.875-1.578 1.421-2.669a396.946 396.946 0 0 1 1.593-4.649c.632-1.722 1.55-2.884 2.756-3.487.459.919.688 1.852.688 2.799 0 .832-.2 1.808-.603 2.928-.918 2.554-1.377 4.305-1.377 5.252 0 .401.015.702.043.903.172 1.492.688 2.598 1.55 3.315.603.516 1.751 1.076 3.443 1.678-.459.919-.953 1.607-1.484 2.066-.531.46-1.069.689-1.614.689-.919 0-1.83-.502-2.741-1.507-.904-1.005-1.657-2.253-2.268-3.745-.976.947-1.959 1.88-2.935 2.798-1.499 1.32-2.669 1.98-3.501 1.98-.545 0-.976-.272-1.277-.817-.301-.546-.452-1.45-.452-2.713v-2.712-2.798c0-2.296.051-3.968.151-5.016.1-1.047.279-2.116.538-3.207 1.004.488 1.722 1.191 2.152 2.109.344.746.517 1.736.517 2.971 0 .603-.058 1.571-.173 2.905-.114 1.335-.172 2.188-.172 2.562 0 .746.058 1.393.172 1.938h.603z"/><path d="M158.376 103.003c-.175-.121-.262-.261-.262-.416 0-.112.028-.228.087-.345l.175-.357a531.89 531.89 0 0 1 1.519-3.209c.419-1.005.844-2.01 1.274-3.015.221-.736.419-1.226.594-1.468.303-.433.756-.65 1.361-.65h.219c.063 0 .183.018.357.052-.104.451-.316.938-.637 1.462l-.935 1.527c-.36.606-.599 1.117-.716 1.533-.35 1.359-.64 2.316-.873 2.871-.523 1.239-1.158 1.971-1.902 2.196l-.261-.181zM115.125 122.817c.271-.038.407.188.407.68 0 .302-.026.756-.079 1.363s-.079 1.062-.079 1.363c0 .784.075 1.476.227 2.071.067.248.215.855.441 1.821.248.144.373.324.373.543 0 .144-.047.267-.142.368s-.213.152-.356.152a.806.806 0 0 1-.526-.215 1.188 1.188 0 0 1-.356-.486c-.09-.264-.136-.626-.136-1.086.008-.589 0-.955-.022-1.098-.204-1.494-.306-2.683-.306-3.564-.001-1.229.184-1.866.554-1.912zm4.962 7.469c-.569.573-1.104.86-1.602.86-.527 0-.928-.242-1.199-.725-.227-.399-.34-.883-.34-1.448 0-.656.141-1.253.419-1.788.332-.642.796-.992 1.393-1.053.497-.053.991.253 1.481.917.469.618.702 1.188.702 1.709 0 .445-.284.955-.854 1.528zm-2.404-1.381c0 .362.071.683.215.962.182.354.438.517.77.486.211-.022.486-.188.826-.497.316-.294.517-.551.6-.77.045-.121.068-.253.068-.396a1.38 1.38 0 0 0-.357-.938 1.13 1.13 0 0 0-.888-.408c-.4 0-.713.166-.939.498-.198.287-.295.641-.295 1.063zm7.57 1.336a1.964 1.964 0 0 1-.623.6c-.399.226-.788.339-1.165.339-.528 0-.981-.229-1.358-.689a2.606 2.606 0 0 1-.576-1.369 5.595 5.595 0 0 1-.046-.657c0-.769.196-1.274.589-1.516a.26.26 0 0 1 .146-.046c.099 0 .182.044.249.131a.456.456 0 0 1 .069.458 3.07 3.07 0 0 0-.204 1.086c0 .445.113.86.34 1.245.264.46.607.676 1.029.645.249-.015.498-.154.747-.418.227-.249.366-.506.419-.77.038-.182.057-.366.057-.555 0-.385-.129-.838-.385-1.358-.257-.521-.385-.788-.385-.803 0-.106.047-.194.141-.267a.51.51 0 0 1 .312-.107c.113 0 .2.02.261.057.264.158.472.536.622 1.132.121.468.182.909.182 1.324-.002.609-.142 1.123-.421 1.538zm1.527-2.909c.31-.497.766-.758 1.369-.78.498-.015.883.445 1.154 1.381.188.671.283 1.343.283 2.015 0 .867-.133 1.293-.396 1.278-.279-.016-.452-.14-.521-.374-.022-.075-.034-.312-.034-.713 0-.792-.022-1.339-.065-1.641-.091-.596-.275-.894-.559-.894a.546.546 0 0 0-.233.057c-.313.144-.519.316-.615.521-.096.203-.134.49-.111.859v.713c0 .868-.17 1.306-.509 1.312-.174.008-.287-.007-.34-.045-.091-.045-.136-.143-.136-.294 0-.099.012-.239.034-.425.022-.185.034-.326.034-.424 0-.279-.036-.696-.107-1.251a10.57 10.57 0 0 1-.107-1.25c0-.49.146-.731.44-.725.189.008.31.079.362.215.016.039.035.195.057.465zm8.838 9.642c-.46.845-1.381 1.268-2.761 1.268a6.587 6.587 0 0 1-1.528-.17 15.25 15.25 0 0 1-2.354-.77c-1.162-.49-1.742-.962-1.742-1.414 0-.196.203-.423.61-.679a4.92 4.92 0 0 1 .917-.453.877.877 0 0 1 .203-.057c.091-.022.141-.004.147.057.015.227-.12.479-.407.758s-.43.411-.43.396c0 .144.392.362 1.177.656 1.282.476 2.388.713 3.315.713.452 0 .77-.015.95-.045.822-.136 1.233-.68 1.233-1.63 0-.558-.146-1.263-.44-2.116-.476-1.388-1-2.534-1.573-3.439l-.227.249c-.105.12-.26.264-.464.43-.347.294-.611.441-.792.441-.43.008-.766-.185-1.008-.577-.211-.332-.312-.729-.305-1.188 0-.444.109-.909.328-1.392.279-.634.664-1.041 1.154-1.223.286-.105.569-.15.849-.136.324.016.604.155.837.419a.973.973 0 0 1 .249.577c.008.038.012.253.012.646 0 .09-.016.224-.046.401a2.778 2.778 0 0 0-.045.401.515.515 0 0 0 .022.091c.317.596.615 1.199.894 1.811.604 1.335 1.061 2.568 1.37 3.7.098.354.146.694.146 1.019.003.475-.095.893-.291 1.256zm-3.485-9.381c-.324.016-.604.234-.837.656-.196.37-.295.731-.295 1.087 0 .195.038.377.113.543.098.211.237.316.419.316.271 0 .532-.215.78-.645.219-.377.332-.717.34-1.019.008-.264-.015-.468-.068-.611-.082-.225-.233-.334-.452-.327zm6.099 3.09c-.196.256-.702.426-1.517.509-.656.061-1.132.022-1.426-.113-.528-.233-.792-.853-.792-1.855 0-.604.105-1.181.317-1.731.278-.731.671-1.098 1.176-1.098.506 0 .97.332 1.393.996.369.58.554 1.12.554 1.618 0 .173-.034.294-.102.361-.134.137-.97.216-2.501.238.03.083.072.192.125.328.082.211.172.332.27.362.196.061.398.09.609.09.234 0 .56-.069.98-.209s.699-.209.834-.209c.136 0 .203.079.203.237.001.219-.04.377-.123.476zm-2.128-3.283c-.188-.022-.369.14-.543.486-.15.31-.227.566-.227.77 0 .159.14.238.419.238.136 0 .347-.02.634-.057.324-.038.517-.079.577-.125.038-.03.057-.094.057-.192 0-.264-.091-.521-.271-.769-.182-.249-.396-.365-.646-.351zm6.372-3.507c.076.03.129.451.158 1.262.03.812.147 1.243.352 1.296 1.41.37 2.315.936 2.716 1.697.241.46.361 1.011.361 1.652 0 .724-.196 1.199-.588 1.426-.302.173-.804.26-1.505.26-.792 0-1.264-.14-1.415-.419-.045-.09-.14-.509-.282-1.256a.11.11 0 0 1 .011.046c.008 0 .012-.004.012-.012 0 .099-.072-.626-.216-2.173l-.169-1.59a16.602 16.602 0 0 1-.113-1.635c0-.204.015-.336.045-.396.091-.174.188-.26.294-.26.075 0 .188.033.339.102zm2.591 6.563c.166-.053.248-.275.248-.668 0-.664-.233-1.207-.701-1.629-.445-.4-1.007-.619-1.686-.657 0 .936.026 1.562.079 1.879.143.867.479 1.302 1.007 1.302.243 0 .592-.077 1.053-.227zm5.228-3.418c.105.121.196.51.271 1.166.061.513.091.932.091 1.256 0 .792-.109 1.26-.328 1.403-.121.083-.539.185-1.256.306a3.479 3.479 0 0 1-.589.057c-.521 0-.943-.136-1.268-.407-.347-.295-.521-.694-.521-1.2 0-.687.34-1.26 1.019-1.72.354-.241.702-.362 1.042-.362.271 0 .531.083.78.249-.129-.513-.476-.77-1.041-.77-.265 0-.427.064-.486.192-.182.4-.472.6-.872.6-.166 0-.268-.019-.306-.056-.144-.137-.215-.276-.215-.42 0-.264.23-.509.69-.734.49-.242.92-.362 1.29-.362.658-.001 1.223.267 1.699.802zm-1.732 3.463c.815-.053 1.223-.403 1.223-1.052 0-.272-.089-.52-.267-.741a.812.812 0 0 0-.661-.334c-.348-.008-.655.136-.923.43s-.401.615-.401.962c0 .535.343.781 1.029.735zm4.81-4.255c.513.016.86.08 1.041.192l.396.271c.084.03.219.053.408.068a1.2 1.2 0 0 1 .418.09c.068.03.127.106.176.227a.845.845 0 0 1 .073.306.318.318 0 0 1-.102.249.7.7 0 0 1-.476.192c-.188 0-.465-.121-.831-.362s-.602-.365-.708-.373a1.166 1.166 0 0 0-.43.068c-.181.06-.298.139-.351.237-.083.158-.125.393-.125.701 0 .31.061.773.182 1.393.12.618.181 1.078.181 1.38 0 .317-.12.476-.362.476-.173 0-.335-.095-.486-.283-.053-.067-.105-.283-.158-.645-.068-.476-.134-.816-.198-1.024-.064-.207-.205-.511-.424-.911-.204-.369-.306-.618-.306-.746 0-.099.043-.186.13-.261s.184-.113.289-.113.237.064.396.192c.022-.03.064-.147.125-.351.196-.663.577-.988 1.142-.973z"/><path d="M144.351 44.688h.271l.727.091 1.269.181 1.633.272 1.995.544 2.268.816 2.539 1.088 2.811 1.542 2.902 1.813 3.083 2.358 3.174 2.902 3.175 3.446.798 1.033-.251.091-.752.358-.68.465-.681.501-.608.537-.191.229-1.354-1.765-2.268-2.72-2.629-2.721-2.812-2.63-3.174-2.539-3.446-2.267-3.718-1.995-4.081-1.63zm35.616 30.632l2.199 4.825.091.272.182.816.362 1.36.363 1.813.362 2.177.363 2.63.271 2.902.091 3.174-.091 3.355-.271 3.627-.545 3.81-.906 3.898-1.27 3.899-1.633 3.991-2.176 3.898-2.63 3.899-.182.272-.454.726-.906 1.088-1.179 1.542-1.542 1.723-1.904 1.904-2.268 2.086-2.629 2.086-3.084 2.086-3.355 2.086-3.809 1.904-4.172 1.632-4.534 1.451-4.987.997-5.441.635-5.804.182h-.272l-.635-.091-1.088-.091-1.451-.181-1.723-.362-2.086-.545-2.267-.816-2.448-.997-2.721-1.27-2.812-1.542-2.812-1.904-2.902-2.357-2.992-2.721-2.902-3.174-2.811-3.628-2.721-4.171-.182-.272-.453-.816-.816-1.27-.997-1.542-1.36-1.813-1.451-1.813-1.723-1.813-1.905-1.724-2.086-1.45-2.176-1.089-2.358-.725-2.358-.091-2.448.544-2.539 1.36-2.449 2.176-2.539 3.265-.272.363-.635.997L64 119.954l-1.36 1.813-1.723 1.904-1.904 1.995-1.995 1.905-2.267 1.541-2.267 1.179-2.267.635-2.267-.091-2.086-.997-2.086-2.086-1.813-3.174-1.542-4.443-1.27-5.985v-.091l-.181-.362-.181-.545-.272-.635-.362-.635-.544-.725-.635-.545-.816-.453-.907-.271h-1.088l-1.36.271-1.451.726-1.632 1.088-1.904 1.542-1.996 2.177-2.358 2.72-.091.091-.362.363-.544.453-.635.454-.816.543-.998.454-.998.362-1.179.091-1.179-.091-1.27-.453-1.179-.726-1.27-1.27-1.179-1.723-1.179-2.358-1.088-2.901-.998-3.628.091.182.272.453.363.726.544.997.635.998.816 1.179.816 1.18.997 1.179.998.997 1.088.907 1.088.726 1.088.453 1.179.091 1.179-.271 1.088-.636 1.088-1.179.181-.182.363-.635.725-.906.907-1.18 1.088-1.27 1.27-1.36 1.451-1.27 1.541-1.269 1.542-.998 1.723-.816 1.723-.453 1.814.091 1.723.453 1.724 1.088 1.632 1.813 1.542 2.54.091.271.272.635.363.907.635 1.179.725 1.36.907 1.451 1.088 1.36 1.27 1.27 1.36 1.088 1.632.726 1.723.453 1.904-.09 2.086-.635 2.176-1.271 2.448-1.904 2.539-2.811.182-.272.454-.726.816-1.088 1.088-1.36 1.36-1.451 1.632-1.451 1.904-1.27 2.086-1.088 2.358-.726 2.539-.271 2.63.271 2.902 1.088 2.992 1.813 3.084 2.812 3.265 3.81 3.354 4.987.182.271.363.816.726 1.36.997 1.633 1.36 1.994 1.542 2.177 1.904 2.268 2.176 2.448 2.449 2.357 2.721 2.268 2.992 2.086 3.265 1.904 3.628 1.542 3.809 1.088 4.171.635 4.444.091h2.085l1.542-.091 1.813-.272 2.268-.453 2.448-.635 2.812-.997 2.992-1.27 3.175-1.724 3.354-2.086 3.537-2.539 3.536-3.083 3.719-3.628 3.627-4.353 3.719-4.897.09-.181.363-.635.544-1.089.635-1.359.726-1.814.726-2.086.726-2.448.726-2.721.544-2.992.363-3.265.181-3.537v-3.718l-.362-3.899-.726-4.081-1.088-4.262-1.474-4.247.102-.013.823-.251.752-.286.752-.358.716-.465.681-.501.166-.15zM173.845 62.126c3.748 0 6.805 3.057 6.805 6.804 0 3.748-3.057 6.804-6.805 6.804-3.747 0-6.804-3.057-6.804-6.804 0-3.747 3.057-6.804 6.804-6.804z"/><path d="M17.943 109.126a3.31 3.31 0 0 1 3.304 3.303c0 1.82-1.484 3.304-3.304 3.304s-3.304-1.483-3.304-3.304a3.31 3.31 0 0 1 3.304-3.303zM76.943 112.173a4.112 4.112 0 0 1 4.104 4.104 4.112 4.112 0 0 1-4.104 4.103 4.112 4.112 0 0 1-4.104-4.103 4.114 4.114 0 0 1 4.104-4.104z"/></g></svg>