<svg viewBox="0 0 198.39 53.330125524248665" xmlns="http://www.w3.org/2000/svg" width="2500" height="672"><g fill="#898989"><path d="M18 39.13h8.3v2h-6v3.67h5.11v2l-5.11-.07v6.17H18zM131.31 39.13h8.3v2h-6v3.67h5.12v2l-5.12-.07v6.17h-2.33zM26.64 48.41a4.8 4.8 0 0 1 .36-1.92 4.53 4.53 0 0 1 1-1.47 4.64 4.64 0 0 1 1.54-1 5.58 5.58 0 0 1 3.78 0 4.75 4.75 0 0 1 1.54 1 4.69 4.69 0 0 1 1 1.47 5.07 5.07 0 0 1 0 3.85 4.53 4.53 0 0 1-2.57 2.46 5.14 5.14 0 0 1-3.78 0A4.53 4.53 0 0 1 27 50.34a4.82 4.82 0 0 1-.36-1.93zm2.26 0a3.41 3.41 0 0 0 .16 1 2.81 2.81 0 0 0 .47.93 2.46 2.46 0 0 0 .8.66 2.3 2.3 0 0 0 1.15.26 2.33 2.33 0 0 0 1.15-.26 2.43 2.43 0 0 0 .79-.66 3 3 0 0 0 .48-.93 3.75 3.75 0 0 0 .16-1 3.68 3.68 0 0 0-.16-1 2.94 2.94 0 0 0-.48-.91 2.2 2.2 0 0 0-.79-.66 2.44 2.44 0 0 0-1.15-.25 2.41 2.41 0 0 0-1.15.25 2.24 2.24 0 0 0-.8.66 2.72 2.72 0 0 0-.47.91 3.35 3.35 0 0 0-.16 1zM44.55 46.47a2.08 2.08 0 0 0-.78-.63 2.53 2.53 0 0 0-1.06-.25 2.28 2.28 0 0 0-1.07.25 2.35 2.35 0 0 0-.77.66 2.74 2.74 0 0 0-.46.92 3.73 3.73 0 0 0 0 2.06 2.94 2.94 0 0 0 .48.91 2.26 2.26 0 0 0 .78.66 2.33 2.33 0 0 0 1.11.25 2.69 2.69 0 0 0 1-.2 2 2 0 0 0 .84-.59l1.39 1.41a3.7 3.7 0 0 1-1.42.91 5.16 5.16 0 0 1-1.86.33 5.52 5.52 0 0 1-1.87-.32 4.47 4.47 0 0 1-1.53-.92 4.4 4.4 0 0 1-1-1.49 4.79 4.79 0 0 1-.38-2 4.71 4.71 0 0 1 .38-2 4.33 4.33 0 0 1 1-1.48 4.61 4.61 0 0 1 1.51-1 5.17 5.17 0 0 1 3.74 0 3.68 3.68 0 0 1 1.46 1zM55.94 52.9h-2.11v-1.43a2.86 2.86 0 0 1-1 1.18 2.94 2.94 0 0 1-1.73.51 3.38 3.38 0 0 1-1.49-.31 2.74 2.74 0 0 1-1-.81 3.26 3.26 0 0 1-.59-1.14 5 5 0 0 1-.18-1.34V44H50v4.93a6 6 0 0 0 .06.82 2 2 0 0 0 .24.77 1.6 1.6 0 0 0 .51.56 1.46 1.46 0 0 0 .86.22 2 2 0 0 0 .92-.21 1.93 1.93 0 0 0 .65-.55 2.39 2.39 0 0 0 .37-.77 2.93 2.93 0 0 0 .13-.88V44h2.23zM63.53 46.37a2.59 2.59 0 0 0-.81-.67 2.35 2.35 0 0 0-1.13-.29 2.18 2.18 0 0 0-1 .22.78.78 0 0 0-.44.74.73.73 0 0 0 .49.73 8.46 8.46 0 0 0 1.44.44 6.78 6.78 0 0 1 1 .3 3.24 3.24 0 0 1 .92.49 2.36 2.36 0 0 1 .68.76 2.21 2.21 0 0 1 .26 1.1 2.76 2.76 0 0 1-.31 1.38 2.57 2.57 0 0 1-.81.92 3.66 3.66 0 0 1-1.19.51 6.46 6.46 0 0 1-1.4.16 5.65 5.65 0 0 1-2-.38 4.37 4.37 0 0 1-1.63-1.09l1.47-1.37a2.82 2.82 0 0 0 1 .8 2.72 2.72 0 0 0 1.31.31 2.83 2.83 0 0 0 .5 0 1.83 1.83 0 0 0 .46-.18 1 1 0 0 0 .34-.32.91.91 0 0 0 .13-.5.83.83 0 0 0-.51-.8 8.25 8.25 0 0 0-1.53-.48 8.3 8.3 0 0 1-1-.29 3.08 3.08 0 0 1-.84-.46 2.2 2.2 0 0 1-.6-.72 2.33 2.33 0 0 1-.22-1.05 2.48 2.48 0 0 1 .31-1.28 2.6 2.6 0 0 1 .8-.88 3.63 3.63 0 0 1 1.13-.51 5.15 5.15 0 0 1 1.3-.17 5.52 5.52 0 0 1 1.88.33 3.33 3.33 0 0 1 1.46 1zM71.16 48.41a4.8 4.8 0 0 1 .38-1.92 4.46 4.46 0 0 1 2.57-2.42 5.58 5.58 0 0 1 3.78 0 4.64 4.64 0 0 1 1.54 1 4.53 4.53 0 0 1 1 1.47 5.07 5.07 0 0 1 0 3.85 4.53 4.53 0 0 1-2.57 2.46 5.14 5.14 0 0 1-3.78 0 4.53 4.53 0 0 1-1.54-1 4.67 4.67 0 0 1-1-1.49 4.82 4.82 0 0 1-.38-1.95zm2.26 0a3.75 3.75 0 0 0 .16 1 3 3 0 0 0 .47.93 2.57 2.57 0 0 0 .8.66 2.33 2.33 0 0 0 1.15.3 2.3 2.3 0 0 0 1.15-.3 2.46 2.46 0 0 0 .8-.66 3 3 0 0 0 .47-.93 3.75 3.75 0 0 0 .16-1 3.68 3.68 0 0 0-.16-1 2.91 2.91 0 0 0-.47-.91 2.24 2.24 0 0 0-.8-.66 2.41 2.41 0 0 0-1.15-.28 2.44 2.44 0 0 0-1.15.25 2.32 2.32 0 0 0-.8.66 2.91 2.91 0 0 0-.47.91 3.68 3.68 0 0 0-.16 1.03zM82.87 44H85v1.43a2.86 2.86 0 0 1 1-1.18 2.92 2.92 0 0 1 1.73-.51 3.25 3.25 0 0 1 1.49.31 2.82 2.82 0 0 1 1 .8 3.2 3.2 0 0 1 .65 1.15 4.67 4.67 0 0 1 .19 1.34v5.56h-2.22V48a6 6 0 0 0-.06-.82 2.39 2.39 0 0 0-.24-.77 1.52 1.52 0 0 0-.51-.56 1.48 1.48 0 0 0-.86-.23 1.94 1.94 0 0 0-.93.22 2 2 0 0 0-.64.54 2.77 2.77 0 0 0-.38.77 3.35 3.35 0 0 0-.13.88v4.9h-2.22zM109.93 43.74a3.25 3.25 0 0 1 1.49.31 2.82 2.82 0 0 1 1 .8A3.39 3.39 0 0 1 113 46a5 5 0 0 1 .18 1.34v5.56H111V48a5.59 5.59 0 0 0-.06-.8 2.11 2.11 0 0 0-.23-.76 1.52 1.52 0 0 0-.5-.57 1.48 1.48 0 0 0-.86-.22 2.06 2.06 0 0 0-.93.2 2 2 0 0 0-.65.55 2.66 2.66 0 0 0-.39.77 3.16 3.16 0 0 0-.13.87v4.86H105V39.13h2.22v6.11a2.05 2.05 0 0 1 .38-.54 2.84 2.84 0 0 1 1.34-.83 3.12 3.12 0 0 1 .99-.13zM124.25 48.56v.3a2.83 2.83 0 0 1 0 .29h-6.77a2.15 2.15 0 0 0 .26.88 2.21 2.21 0 0 0 .56.69 2.85 2.85 0 0 0 .8.45 2.59 2.59 0 0 0 .92.17 2.88 2.88 0 0 0 1.41-.31 2.56 2.56 0 0 0 1-.84l1.48 1.19a4.48 4.48 0 0 1-3.91 1.78 5.36 5.36 0 0 1-1.91-.33 4.52 4.52 0 0 1-1.51-.91 4.31 4.31 0 0 1-1-1.46 5 5 0 0 1-.36-2 5.13 5.13 0 0 1 .36-2 4.37 4.37 0 0 1 2.49-2.47 5.13 5.13 0 0 1 1.86-.34 4.52 4.52 0 0 1 1.71.31A3.51 3.51 0 0 1 123 45a4 4 0 0 1 .9 1.5 6.09 6.09 0 0 1 .35 2.06zm-2.23-1a2.81 2.81 0 0 0-.12-.82 1.76 1.76 0 0 0-.38-.68 1.73 1.73 0 0 0-.65-.47 2.28 2.28 0 0 0-.94-.18 2.52 2.52 0 0 0-1.7.6 2.21 2.21 0 0 0-.77 1.55zM148.78 52.9h-2.11v-1.43a2.86 2.86 0 0 1-1 1.18 3 3 0 0 1-1.73.51 3.46 3.46 0 0 1-1.5-.31 2.91 2.91 0 0 1-1-.81 3.24 3.24 0 0 1-.58-1.14 5 5 0 0 1-.18-1.34V44h2.22v4.93a6 6 0 0 0 .06.82 2 2 0 0 0 .24.77 1.6 1.6 0 0 0 .51.56 1.46 1.46 0 0 0 .86.22 1.91 1.91 0 0 0 .91-.21 1.75 1.75 0 0 0 .65-.55 2.22 2.22 0 0 0 .38-.77 2.93 2.93 0 0 0 .13-.88V44h2.23zM97.17 45.78V44h1.56v-2.58h2.19V44h2.22v1.78h-2.22v4a2.07 2.07 0 0 0 .21 1c.14.26.46.39 1 .39h1.06v1.73h-1.52a3.7 3.7 0 0 1-1.45-.25 2.26 2.26 0 0 1-.88-.69 2.59 2.59 0 0 1-.44-1 5.84 5.84 0 0 1-.12-1.21v-4zM150.51 45.78V44h1.56v-2.58h2.18V44h2.23v1.78h-2.23v4a2 2 0 0 0 .22 1c.14.26.46.39.95.39h1.06v1.73H155a3.67 3.67 0 0 1-1.45-.25 2.26 2.26 0 0 1-.88-.69 2.45 2.45 0 0 1-.44-1 5.84 5.84 0 0 1-.12-1.21v-4zM166.55 52.9h-2.12v-1.43a2.86 2.86 0 0 1-1 1.18 3 3 0 0 1-1.73.51 3.46 3.46 0 0 1-1.5-.31 2.79 2.79 0 0 1-1-.81 3.1 3.1 0 0 1-.59-1.14 5 5 0 0 1-.18-1.34V44h2.22v4.93a6 6 0 0 0 .06.82 2 2 0 0 0 .24.77 1.6 1.6 0 0 0 .51.56 1.46 1.46 0 0 0 .86.22 2 2 0 0 0 .92-.21 1.8 1.8 0 0 0 .64-.55 2.22 2.22 0 0 0 .38-.77 2.93 2.93 0 0 0 .13-.88V44h2.23zM168.77 44h2.13v1.48a3.19 3.19 0 0 1 1-1.26 2.62 2.62 0 0 1 1.56-.48h.28a1 1 0 0 1 .26 0v2a2.61 2.61 0 0 0-.38-.08h-.31a2.42 2.42 0 0 0-1.22.28 2.22 2.22 0 0 0-.72.67 2.38 2.38 0 0 0-.36.8 3.11 3.11 0 0 0-.09.64v4.85h-2.22zM183.83 48.56v.3a2.83 2.83 0 0 1 0 .29H177a2.3 2.3 0 0 0 .25.88 2.11 2.11 0 0 0 .57.69 2.8 2.8 0 0 0 .79.45 2.69 2.69 0 0 0 .93.17A2.88 2.88 0 0 0 181 51a2.64 2.64 0 0 0 .95-.84l1.48 1.19a4.48 4.48 0 0 1-3.82 1.78 5.36 5.36 0 0 1-1.91-.33 4.52 4.52 0 0 1-1.51-.91 4.18 4.18 0 0 1-1-1.46 5 5 0 0 1-.36-2 5.13 5.13 0 0 1 .36-2 4.36 4.36 0 0 1 1-1.5 4.42 4.42 0 0 1 1.49-1 5.22 5.22 0 0 1 1.87-.34 4.56 4.56 0 0 1 1.71.31 3.51 3.51 0 0 1 1.36.91 4 4 0 0 1 .9 1.5 6.09 6.09 0 0 1 .31 2.25zm-2.23-1a2.81 2.81 0 0 0-.12-.82 1.9 1.9 0 0 0-.38-.68 1.69 1.69 0 0 0-.66-.47 2.2 2.2 0 0 0-.93-.18 2.52 2.52 0 0 0-1.7.6 2.21 2.21 0 0 0-.77 1.55z"/></g><path d="M37 .66l-8.61 29.87h7.26l1.78-6.17h11.75L51 30.53h7.26L49.58.66zm2.33 17l3-10.22h2l3 10.22zM0 7.48h10.51v23.05h7.06v-23h10.51V.66H0zM151 0c-5.5 0-10.78.41-13 6-.77 2-.88 4.06-.88 9.57s.11 7.62.88 9.57c2.23 5.61 7.51 6 13 6s10.79-.41 13-6c.78-1.95.89-4.06.89-9.57S164.82 8 164 6c-2.18-5.59-7.47-6-13-6zm6.53 21.51c-.7 2.25-3.09 2.85-6.53 2.85s-5.83-.6-6.53-2.85a27.46 27.46 0 0 1-.31-5.92 27.35 27.35 0 0 1 .31-5.91c.7-2.26 3.1-2.86 6.53-2.86s5.83.6 6.53 2.86a26.69 26.69 0 0 1 .31 5.91 26.8 26.8 0 0 1-.28 5.92zm-77.8-4.82L74.37.66H63.9v29.87H71V9.86l5.22 15.53h7.16l5.18-15.53v20.67h7.06V.66H85.15zM191.37.66v18.66L181.21.66h-8.38v29.87h7.06V11.87L190 30.53h8.39V.66zm-61.88 16.15c.41-1.19.58-2.48.58-5.6s-.17-4.42-.58-5.61c-1.14-3.34-4.29-4.94-9.37-4.94h-15.8v29.87h7.06v-8.77h8.25l4.37 8.77h7.78l-5.14-10.22a6.32 6.32 0 0 0 2.85-3.5zm-6.9-3c-.66 1-1.81 1.14-3.4 1.14h-7.81V7.48h7.81c1.59 0 2.74.13 3.4 1.15a4.52 4.52 0 0 1 .42 2.58 4.54 4.54 0 0 1-.42 2.58z" fill="#005bac"/></svg>