<svg xmlns="http://www.w3.org/2000/svg" width="2500" height="2500" viewBox="0 0 192.756 192.756"><g fill-rule="evenodd" clip-rule="evenodd"><path fill="#fff" d="M0 0h192.756v192.756H0V0z"/><path fill="#f1ce39" d="M137.393 72.971h46.859v23.641h-46.859V72.971z"/><path fill="#c4d04c" d="M137.393 96.355h23.429v23.43h-23.429v-23.43z"/><path fill="#5db7e7" d="M160.822 96.355h23.43v23.43h-23.43v-23.43z"/><path fill="#5d7b8a" d="M8.504 72.971h128.889v46.814H8.504V72.971z"/><path fill="#fff" d="M32.937 82.584H15.564v3.085h6.545v19.498h3.631V85.669h6.203l.994-3.085zM43.933 97.902v-.993c0-5.037-2.672-8.362-6.99-8.362-4.386 0-7.093 3.769-7.093 8.397 0 4.42 2.434 8.565 7.882 8.565 1.885 0 4.044-.582 5.654-1.747l-.926-2.331c-1.268.72-2.638 1.132-4.078 1.132-2.912 0-4.831-1.987-4.865-4.661h10.416zm-3.699-2.637h-6.751c0-2.023 1.269-3.94 3.392-3.94 2.262-.001 3.325 2.054 3.359 3.94zM53.462 104.79l-.445-2.639c-.48.138-.822.138-1.062.138-.891 0-1.164-.411-1.164-1.713v-19.67h-3.564v21.212c0 1.918.959 3.392 3.392 3.392.924 0 1.816-.171 2.843-.72zM69.26 97.902v-.993c0-5.037-2.673-8.362-6.99-8.362-4.387 0-7.094 3.769-7.094 8.397 0 4.42 2.433 8.565 7.881 8.565 1.886 0 4.043-.582 5.654-1.747l-.925-2.331c-1.268.72-2.639 1.132-4.078 1.132-2.912 0-4.831-1.987-4.865-4.661H69.26zm-3.701-2.637h-6.75c0-2.023 1.267-3.94 3.392-3.94 2.262-.001 3.323 2.054 3.358 3.94zM85.127 103.797l-.959-2.365c-1.097.652-2.295 1.167-3.906 1.167-3.256 0-4.934-2.536-4.934-5.586 0-3.256 2.021-5.586 5.003-5.586 1.678 0 3.016.479 4.112 1.268l.033-3.05c-.993-.583-2.467-1.097-4.42-1.097-5.038 0-8.292 3.839-8.292 8.634 0 4.49 2.639 8.328 7.812 8.328 2.228 0 4.284-.824 5.551-1.713zM94.603 88.547c-2.228 0-4.147.822-5.517 2.262-1.474 1.507-2.331 3.736-2.331 6.305 0 2.604.857 4.9 2.433 6.408 1.338 1.304 3.188 1.987 5.416 1.987 2.295 0 4.214-.824 5.618-2.228 1.475-1.507 2.297-3.734 2.297-6.27 0-2.502-.789-4.696-2.229-6.169-1.37-1.472-3.324-2.295-5.687-2.295zm-.035 2.88c2.706 0 4.284 2.227 4.284 5.619 0 3.289-1.475 5.62-4.216 5.62-2.638 0-4.248-2.263-4.248-5.62-.001-3.323 1.438-5.619 4.18-5.619zM129.967 105.167v-11.17c0-4.146-2.535-5.45-5.209-5.45-1.781 0-3.975.925-5.824 2.536-.652-1.542-2.125-2.536-4.146-2.536-1.816 0-3.736.754-5.621 2.228l-.41-1.817h-2.98v16.208h3.562V93.619c1.164-.994 2.605-1.953 4.318-1.953 2.057 0 2.432 1.508 2.432 3.428v10.073h3.564V94.271v-.685c1.131-.96 2.605-1.92 4.318-1.92 2.057 0 2.398 1.439 2.398 3.357v10.144h3.598z"/></g></svg>