<svg height="428" width="2500" xmlns="http://www.w3.org/2000/svg" viewBox="0.185 -0.2050000000000013 180.51026546597473 26.122000000000003"><path d="M90 5.917h.5v20H90z" fill="#bbb" stroke-width=".707"/><g fill="#000f64"><path d="M162.908 16.95s.137.802.184 1.418a2.144 2.144 0 0 1-1.416 2.194c-2.954 1.101-7.802 2.685-11.732 3.855V8.333h3.395v11.59c4.581-1.242 9.57-2.972 9.57-2.972M144.674 9.508V8.333h-12.602v2.95H142.9a1.774 1.774 0 0 0 1.774-1.774M140.017 16.956h5.221a1.774 1.774 0 0 0 1.775-1.775v-1.175h-6.26z"/></g><path d="M128.853 16.956h6.553l-1.86 7.46c2.463 0 4.044-.76 4.347-1.979l2.103-8.431h-8.136c-1.89 0-2.533 1.045-3.007 2.95" fill="#e6465a"/><g fill="#000f64"><path d="M171.596 8.332h-6.433v2.043h6.447v.832h-5.752v8.243h3.589a18.784 18.784 0 0 1-4.284 2.068v2.46a18.065 18.065 0 0 0 6.433-3.11v3.549h2.666V20.87a18.068 18.068 0 0 0 6.433 3.11v-2.46a18.777 18.777 0 0 1-4.28-2.065l2.542.002A1.043 1.043 0 0 0 180 18.413v-7.206h-5.738v-.832H180a.695.695 0 0 0 .695-.696V8.332h-6.433v-.915h-2.666zm-3.112 4.621h3.112v1.503h-3.112zm0 3.252h3.112v1.5h-3.112zm8.89 1.5h-3.112v-1.5h3.112zm0-4.752v1.505h-3.112v-1.505zM110.875 15.72a2.877 2.877 0 0 0 .964-2.185v-1.653c0-2.14-1.636-3.394-3.946-3.394H99.33v15.476h8.35c3.03 0 4.635-1.478 4.636-3.947v-1.61c0-1.232-.49-2.157-1.441-2.687m-3.427-4.533a1.092 1.092 0 0 1 1.152 1.073v1.258a1.166 1.166 0 0 1-1.252 1.29h-4.757v-3.62zm1.628 8.747a1.282 1.282 0 0 1-1.393 1.33h-5.092v-3.883h5.251a1.128 1.128 0 0 1 1.233 1.185zM123.622 15.327l-4.835-1.122a1.246 1.246 0 0 1-1.025-1.215v-.474a1.217 1.217 0 0 1 1.212-1.24h5.405a1.766 1.766 0 0 0 1.765-1.766V8.487h-7.197c-2.73 0-4.461 1.482-4.461 3.966v.828c0 1.839 1.276 3.252 3.198 3.694l4.751 1.09a1.314 1.314 0 0 1 1.091 1.293v.61a1.255 1.255 0 0 1-1.317 1.207h-7.315v2.787h7.252c3.203 0 4.645-1.626 4.645-4.124v-.845c0-1.862-1.299-3.231-3.17-3.666"/></g><g><path d="M34.099 16.915s.136.798.181 1.412c.06.803-.336 1.784-1.41 2.184-2.942 1.098-7.77 2.675-11.683 3.84V8.331h3.38v11.542c4.563-1.236 9.532-2.96 9.532-2.96M15.94 9.503v-1.17H3.39v2.937h10.784c.976 0 1.767-.79 1.767-1.767M11.302 16.92h5.2c.976 0 1.767-.79 1.767-1.767v-1.17h-6.235z" fill="#000f64"/><path d="M.185 16.92h6.526l-1.853 7.43c2.453 0 4.027-.757 4.329-1.97l2.095-8.397H3.18c-1.883 0-2.522 1.041-2.995 2.937" fill="#e7465a"/><path d="M48.505 12.934v1.498h-3.099v-1.498zm0 4.732h-3.099v-1.493h3.099zm-8.853-1.493h3.099v1.493h-3.099zm0-3.239h3.099v1.497h-3.099zm3.1-4.601h-6.408v2.034h6.42v.829h-5.727v8.208h3.574c-.155.103-2.115 1.393-4.267 2.06v2.451s3.05-.617 6.407-3.098v3.533h2.656v-3.532c3.356 2.48 6.406 3.097 6.406 3.097v-2.45c-2.133-.662-4.077-1.934-4.262-2.058l2.53.002c.574 0 1.04-.465 1.04-1.038v-7.175h-5.715v-.83h5.714c.383 0 .693-.31.693-.692V8.333h-6.406V7.42H42.75z" fill="#000f64"/><path d="M66.317 21.32a5.585 5.585 0 0 1-3.975 1.647 5.585 5.585 0 0 1-3.976-1.646c-1.061-1.062-1.646-2.474-1.646-3.975s.585-2.914 1.646-3.976l.002-.001a5.586 5.586 0 0 1 3.974-1.645c1.5 0 2.913.585 3.975 1.646a5.586 5.586 0 0 1 1.646 3.976 5.585 5.585 0 0 1-1.646 3.975M69.87 7.547A5.585 5.585 0 0 1 73.847 5.9c1.501 0 2.913.585 3.974 1.647a5.584 5.584 0 0 1 1.647 3.975 5.583 5.583 0 0 1-1.647 3.975 5.584 5.584 0 0 1-3.974 1.646 5.584 5.584 0 0 1-3.976-1.646c-1.061-1.062-1.646-2.473-1.646-3.975s.585-2.914 1.646-3.975m3.976 11.234a7.21 7.21 0 0 0 5.133-2.126 7.211 7.211 0 0 0 2.126-5.133 7.212 7.212 0 0 0-2.126-5.133 7.211 7.211 0 0 0-5.133-2.126c-1.94 0-3.763.755-5.134 2.126a7.21 7.21 0 0 0-2.124 5.07 7.206 7.206 0 0 0-4.247-1.373 7.45 7.45 0 0 0-.727.036l5.86-5.86h-2.317l-7.95 7.95a7.212 7.212 0 0 0-2.126 5.134c0 1.939.755 3.762 2.126 5.133s3.194 2.126 5.134 2.126c1.939 0 3.762-.755 5.133-2.126a7.209 7.209 0 0 0 2.125-5.07 7.204 7.204 0 0 0 4.247 1.372" fill="#e7465a"/><path d="M79.346 23.897c-.393 0-.485-.316-.485-.654v-1.848h.916v-.754h-.916v-1.124l-1.031.331v.793h-.763v.754h.763v2.017c0 .785.446 1.285 1.254 1.285.308 0 .547-.03.762-.092l-.03-.816c-.108.07-.286.108-.47.108M82.778 20.549c-.539 0-.985.246-1.247.63h-.015v-2.347h-1.032v5.773h1.032v-1.94c0-.508.162-1.316.908-1.316.662 0 .67.654.67 1.14v2.116h1.031v-2.502c0-.892-.408-1.554-1.347-1.554" fill="#000f64"/><path d="M69.046 24.456l.286.03.983-9.414a1.225 1.225 0 0 0-.27-.905 1.244 1.244 0 0 0-2.2.652l-.021.2.286.03.02-.2a.956.956 0 0 1 1.691-.502c.16.197.234.444.208.696z" fill="#e7465a"/><path d="M69.046 24.456l.286.03.983-9.414a1.225 1.225 0 0 0-.27-.905 1.244 1.244 0 0 0-2.2.652l-.021.2.286.03.02-.2a.956.956 0 0 1 1.691-.502c.16.197.234.444.208.696zm.439.275a.123.123 0 0 1-.057.008l-.527-.054a.12.12 0 0 1-.109-.133l.996-9.534a.706.706 0 0 0-.634-.777.713.713 0 0 0-.782.632l-.034.322a.121.121 0 0 1-.132.108l-.528-.054a.122.122 0 0 1-.108-.133l.034-.322a1.486 1.486 0 0 1 2.63-.78c.248.307.363.691.322 1.083l-.995 9.534a.121.121 0 0 1-.076.1"/><path d="M77.019 14.156l-.448-.172a.132.132 0 0 0-.144.035.134.134 0 0 0-.034.079c0 .011-.07 1.163.014 2.16v-.001c.008.099.02.213.035.341.057.519.142 1.299.054 2.203-.21-.83-.744-1.547-1.173-2.123l-.009-.011a12.027 12.027 0 0 0-.644-.771c-.423-.479-.825-.933-.9-1.365l1.467-.672a.13.13 0 0 0 .026-.222l-.003-.002.056.01a.131.131 0 0 0 .146-.085l.783-2.204c.001.008.022.06.044.73l.006.212v.003l.002.207a.13.13 0 0 0 .051.103c.006.006.553.423.912.704-.207.168-.289.57-.241.841" fill="#000f64"/><path d="M75 20.993c.393-1.322.64-2.506.794-3.527a5.318 5.318 0 0 0-.212-.378 5.71 5.71 0 0 0-.699-.882c-.342-.361-.747-.714-.967-1.165-.402.466-.892.86-1.24 1.37-.214.312-.36.664-.539.996l-.046.084c.084 1.062.188 2.307.234 2.665l.038.31.02.159c.05.402.101.804.158 1.204.044.307.091.612.139.917.034.219.073.436.113.654.021.114.04.248.065.362.024.106.016.104.046.257.008.04.024.156.01.194-.01.026-.056.042-.158.042-.11 0-.254-.037-.346.047-.075.07-.057.204.012.274.09.091.255.09.374.09.074 0 .13.004.203-.006.093-.014.208-.025.233-.13.024-.103.032-.18.043-.268.033-.273.052-.557.085-.83.023-.19.042-.335.08-.562.005-.031.034-.17.088-.157.06.015.031.236.023.289l-.16 1.445c-.036.178.065.195.182.207.134.015.22.02.355.018.122 0 .308-.025.344-.134.047-.143-.06-.238-.164-.27-.093-.029-.293-.014-.315-.051-.031-.053-.007-.086.018-.158.005-.014.65-1.251 1.19-3.066M74.234 14.168a.477.477 0 0 1-.067-.05c-.101.05-.207.1-.316.151a.334.334 0 0 1 .039.018.428.428 0 0 1 .342-.113l.002-.006M71.294 11.278c.468.3.952.573 1.407.892.405.284.8.6 1.236.834.136-.26.335-.485.494-.734.194-.305.408-.58.654-.844.266-.287.497-.571.715-.896.034-.05.068-.099.104-.146-.112-1.12-.31-2.21-.532-3.28-.124-.596-.428-1.63-.9-2.148a6.6 6.6 0 0 0-2.313.156c-.46.12-.948.29-1.338.57-.12.087-.315.196-.488.32-.21.442-.18.73-.142.956.022.136.074.329.105.433.156.519.544 1.83.708 2.555.076.339.184.838.29 1.332" fill="#ffd800"/><path d="M72.043 7.193a.263.263 0 0 0-.184.119c-.1.139-.12.365-.074.618.066.366.287.66.483.632.296-.044.274-.54.236-.744-.073-.384-.253-.645-.46-.625" fill="#fff"/><path d="M72.955 9.222c.004.019.157 1.377.171 1.5l.026.22c.014.128.04.148.086.157.102.02.325-.02.427-.049.067-.019.086-.071.079-.173-.028-.377-.215-1.391-.29-1.762-.023-.117-.106-.086-.106-.086s-.22.034-.328.06c-.08.02-.07.103-.065.133" fill="#f2a8c8"/><path d="M73.284 7.68c.049.203.234.663.521.58.191-.054.27-.414.18-.774-.064-.25-.175-.447-.323-.533a.262.262 0 0 0-.217-.032c-.197.067-.254.38-.161.76" fill="#fff"/><path d="M72.043 7.193a.263.263 0 0 0-.184.119c-.1.139-.12.365-.074.618.066.366.287.66.483.632.296-.044.274-.54.236-.744-.073-.384-.253-.645-.46-.625m.197 1.523c-.267 0-.528-.326-.606-.759-.054-.297-.012-.578.113-.752a.373.373 0 0 1 .246-.161c.284-.043.575.277.653.755.048.298.017.582-.108.756a.37.37 0 0 1-.298.161"/><path d="M72.406 7.835c.047.26-.021.474-.175.508-.159.035-.298-.17-.345-.43-.047-.258.012-.47.175-.508.146-.033.299.171.345.43M72.955 9.222c.004.019.157 1.377.171 1.5l.026.22c.014.128.04.148.086.157.102.02.325-.02.427-.049.067-.019.086-.071.079-.173-.028-.377-.215-1.391-.29-1.762-.023-.117-.106-.086-.106-.086s-.22.034-.328.06c-.08.02-.07.103-.065.133m.314 2.038a.48.48 0 0 1-.045-.001c-.19-.016-.21-.201-.222-.301l-.025-.219c-.015-.123-.03-.247-.043-.37-.016-.15-.033-.298-.051-.447l-.012-.105a7.457 7.457 0 0 1-.018-.164c-.01-.093-.018-.188-.033-.28l-.007-.067c-.001-.02-.003-.039-.006-.059a.477.477 0 0 1-.006-.135c.015-.122.093-.15.126-.157.01-.002.347-.066.426-.084.084-.016.197-.001.247.202.092.383.282 1.491.303 1.896.003.047-.002.097-.032.133-.054.063-.146.09-.229.11-.118.03-.25.048-.373.048M71.935 5.652c-.137-.133-.278-.176-.412-.121-.335.136-.454.708-.464.915-.002.028-.01.058-.003.086.015.058.074.05.085-.022.013-.095.016-.15.034-.223.041-.164.11-.328.221-.457a.489.489 0 0 1 .176-.137.29.29 0 0 1 .11-.025c.073 0 .139.033.197.074.026.018.101.086.128.042.022-.035-.049-.11-.072-.132M73.284 7.68c.049.203.234.663.521.58.191-.054.27-.414.18-.774-.064-.25-.175-.447-.323-.533a.262.262 0 0 0-.217-.032c-.197.067-.254.38-.161.76m.61.71a.37.37 0 0 1-.338-.023c-.185-.108-.332-.354-.41-.645-.127-.469.006-.88.282-.958a.372.372 0 0 1 .29.045c.186.107.34.346.414.638.108.427.005.832-.238.942"/><path d="M73.38 7.656c.063.255.215.423.369.39.159-.034.2-.278.137-.533-.065-.256-.206-.425-.37-.39-.146.03-.2.278-.137.533M72.847 5.421c.067-.18.176-.279.32-.287.361-.02.714.446.812.628.013.025.034.05.04.078.01.058-.046.076-.087.015-.052-.08-.079-.128-.127-.186-.107-.13-.24-.25-.395-.318a.486.486 0 0 0-.218-.049.288.288 0 0 0-.11.025.347.347 0 0 0-.146.151c-.016.027-.054.12-.097.093-.035-.022-.003-.12.008-.15M74.894 16.219c-.009.038-.018.09-.027.163-.092.81-.172 1.29-.288 2.024-.094.586-.384 2.52-.384 2.52-.007.042-.014.103.009.132.01.017.034.01.034.01.033-.006.05-.06.06-.087.008-.027.012-.053.018-.08l.025-.116.028-.139.027-.126c.005-.026.01-.052.017-.078v-.005c.011-.044.297-1.518.344-1.881.226-1.72.227-2.043.23-2.106l.003-.127c-.032-.035-.063-.07-.096-.104M72.94 18.264c-.027-.3-.076-.942-.076-.949-.003-.09-.013-.181-.062-.182a.043.043 0 0 0-.031.024.78.78 0 0 0-.012.244c0 .058.003.233.046 1.32.012.29.065.816.087 1.028l.008.077c.062.586.088.825.092.84l.002.008c.015.085.038.128.068.13h.004a.031.031 0 0 0 .023-.01c.017-.018.025-.055.023-.11-.001-.019-.126-1.89-.173-2.42"/><path d="M70.994.558c1.281-.379 2.797-.394 3.013.188.05.135.057.287.04.453-.529-.27-1.967-.194-2.959.08-1.026.282-2.086.958-2.39 1.394a.982.982 0 0 1-.19-.395c-.116-.61 1.19-1.38 2.486-1.72M69.309 3.33c.109-.234 1.029-.911 2.029-1.186 1.011-.279 2.295-.267 2.522-.055-.115.517-.193 1.11.086 1.725a9.3 9.3 0 0 0-1.993.34 9.421 9.421 0 0 0-1.809.701c-.085-.672-.467-1.141-.835-1.524" fill="#000f64"/><g fill="#e7465a"><path d="M68.873 2.883c.073-.242 1.132-1.035 2.284-1.352 1.138-.314 2.584-.3 2.832-.06l.012.014c-.022.105-.049.216-.077.33l-.008.035c-.47-.243-1.754-.175-2.64.07-.916.251-1.86.855-2.132 1.243l-.012-.012a9.328 9.328 0 0 1-.259-.268M68.668 6.876c-.096-.347.19-.804.785-1.255.64-.485 1.554-.91 2.576-1.194 2.244-.625 3.954-.32 4.143.358.095.342-.177.785-.75 1.228a5.842 5.842 0 0 0-.252-.598l.005-.002a.13.13 0 0 0 .06-.175c-.19-.39-1.168-.815-2.989-.297-1.856.528-2.61 1.479-2.535 1.955a.13.13 0 0 0 .129.11h.014l.009.045.023.116a2.69 2.69 0 0 0 .094.376c-.732-.08-1.215-.322-1.312-.667M71.73 21.116c-.297-.814-.21-1.706.097-2.595.062.747.122 1.425.154 1.679l.002.013.037.295c.051.425.101.808.15 1.152a3.199 3.199 0 0 1-.44-.544M76.267 20.032a6.547 6.547 0 0 1-.952 2.007l-.162-.378a27.138 27.138 0 0 0 .863-3.412c.253.542.393 1.142.251 1.783"/></g><path d="M73.919 13.916a6.217 6.217 0 0 1-.833-.621c-.6-.541-1.134-1.157-1.615-1.81l2.289 1.654a.13.13 0 0 0 .18-.025l1.586-2.009c-.441.903-1.057 2.077-1.607 2.811" fill="#eeeeef"/><path d="M70.305 14.453c-.015.005-.03.013-.037.027-.034.075-.07.17-.212.182a.332.332 0 0 1-.02 0c-.187.006-.274-.235-.164-.349.046-.048.094-.082.15-.087a.182.182 0 0 1 .073.01.152.152 0 0 0 .059.011.122.122 0 0 0 .052-.02 3.277 3.277 0 0 0 .251-.212c.04.057.094.156.144.305l.006.018z" fill="#ffd800"/><path d="M76.2 10.704l-.947 2.664-.462-.083a.13.13 0 0 0-.104.231l.247.194-.814.373c.778-1.032 1.658-2.87 2.044-3.713zM71.113 11.438c.31.433.642.849.998 1.248.49.541 1.021 1.048 1.645 1.436a4.118 4.118 0 0 1-.036.043l-.642-.032.045-.245a.108.108 0 0 0-.014-.089.103.103 0 0 0-.143-.028l-.307.16-1.472-2.147-.074-.346" fill="#9e9e9f"/><path d="M71.725 15.414a8.942 8.942 0 0 0-.083-.903.13.13 0 0 0-.188-.1l-.514.256c-.016-.245-.142-.686-.331-.878l.754-.71a.141.141 0 0 0 .037-.067c.02-.006-.093-.57-.094-.592l1.203 1.753a.124.124 0 0 0 .174.04l.147-.098-.034.11a.131.131 0 0 0 .12.161l.587.03c-.015.195.064.385.153.573-1.472 1.79-2.269 3.419-2.36 4.8-.097-1.4.484-2.907.43-4.375" fill="#000f64"/><path d="M70.68 14.762a1.079 1.079 0 0 1-.154-.174l.134-.05c.02.1.024.177.02.224M77.333 14.265c-.036-.043-.06-.134-.064-.242l.144.045.015.024a.796.796 0 0 1-.095.173" fill="#e7465a"/><path d="M77.9 14.103a.21.21 0 0 1-.05.006.34.34 0 0 1-.182-.055c-.021-.014-.036-.032-.05-.048a.18.18 0 0 1-.032-.057c-.01-.03-.047-.053-.092-.07a8.77 8.77 0 0 0-.208-.065.827.827 0 0 1 .014-.064.522.522 0 0 1 .11-.217l.138.093c.036.025.059.038.084.038.023 0 .048-.01.088-.034a.255.255 0 0 1 .127-.036c.246 0 .37.431.053.51m-.567.161c-.036-.043-.06-.134-.064-.242l.144.045.015.024a.788.788 0 0 1-.095.173m-.314-.109l-.448-.172a.132.132 0 0 0-.144.035.134.134 0 0 0-.034.079c0 .011-.07 1.163.014 2.16v-.001c.008.099.021.213.035.341.057.519.142 1.299.054 2.203-.21-.83-.744-1.547-1.173-2.123l-.009-.011a11.96 11.96 0 0 0-.644-.771c-.423-.479-.825-.933-.9-1.365l1.467-.672a.13.13 0 0 0 .026-.222l-.003-.002.056.01a.13.13 0 0 0 .146-.085l.783-2.204c.001.008.022.06.044.73l.006.212v.003l.002.207c0 .04.018.074.045.098l.006.005c.007.006.553.423.912.704-.207.168-.288.57-.241.841m-.752 5.876a6.55 6.55 0 0 1-.952 2.007l-.162-.378a27.14 27.14 0 0 0 .864-3.412c.252.542.392 1.142.25 1.783m-1.267.96c-.54 1.816-1.184 3.053-1.189 3.067-.025.072-.05.105-.018.157.022.038.222.023.315.052.104.032.21.128.164.27-.036.11-.222.133-.344.134a2.636 2.636 0 0 1-.355-.017c-.117-.013-.218-.03-.183-.209l.16-1.444c.01-.053.038-.274-.022-.29-.054-.013-.083.127-.088.158-.038.228-.057.373-.08.562-.033.273-.053.557-.085.83-.01.088-.019.165-.043.268-.025.105-.14.116-.233.13-.073.01-.129.006-.203.006-.119 0-.284.001-.374-.09-.069-.07-.087-.204-.012-.274.092-.084.235-.047.346-.047.102 0 .148-.016.158-.042a.575.575 0 0 0-.01-.194c-.03-.153-.022-.15-.046-.257-.026-.114-.044-.248-.065-.362-.04-.218-.079-.435-.113-.653-.048-.306-.095-.611-.139-.917-.057-.401-.108-.803-.158-1.205l-.02-.159a45.915 45.915 0 0 0-.038-.31c-.041-.323-.13-1.364-.208-2.343.43-.92 1.052-1.812 1.68-2.584.18.278.425.555.678.84.213.241.433.49.63.754l.008.011c.204.274.433.581.636.917-.155.954-.392 2.04-.749 3.242m-3.27.123c-.297-.814-.21-1.706.097-2.595.062.747.122 1.425.154 1.679l.002.013.037.295c.051.425.101.808.15 1.152a3.189 3.189 0 0 1-.44-.544m-.005-5.702a8.9 8.9 0 0 0-.083-.903.13.13 0 0 0-.188-.1l-.514.256c-.016-.245-.142-.686-.331-.878l.754-.71a.14.14 0 0 0 .037-.067c.02-.006-.093-.569-.094-.592l1.203 1.754a.125.125 0 0 0 .174.038l.147-.097-.034.11c-.02.078.039.158.12.161l.587.03c-.015.195.064.385.153.573-1.472 1.79-2.269 3.419-2.36 4.8-.097-1.4.484-2.907.43-4.375m-1.046-.652a1.079 1.079 0 0 1-.154-.174l.134-.05c.02.1.023.177.02.224m-.375-.31c-.015.006-.03.014-.037.028-.034.075-.07.17-.212.182a.338.338 0 0 1-.02 0c-.187.006-.273-.235-.164-.35.046-.047.094-.081.15-.086a.183.183 0 0 1 .073.01.151.151 0 0 0 .059.011.118.118 0 0 0 .052-.02c.03-.02.16-.13.214-.179.013-.01.025-.022.037-.033.04.057.094.156.144.305l.006.018zm.808-3.014c.31.433.642.849.998 1.248.49.541 1.021 1.048 1.645 1.436-.012.015-.024.03-.037.043l-.641-.032.045-.245a.108.108 0 0 0-.014-.089.103.103 0 0 0-.143-.028l-.306.16-1.474-2.147-.073-.346m-.725-3.74a.141.141 0 0 0-.02-.064l-.072-.243a4.028 4.028 0 0 1-.105-.433 1.403 1.403 0 0 1 .01-.593c.318-.374.978-.85 2.117-1.173 1.097-.312 1.833-.254 2.255-.114.414.546.684 1.474.8 2.027.21 1.019.4 2.058.514 3.122l-2.076 2.627-2.579-1.864c-.085-.394-.167-.771-.228-1.044-.137-.608-.432-1.628-.616-2.248m-.677-.802a.13.13 0 0 0 .129.11h.014l.009.045.023.116a2.671 2.671 0 0 0 .094.376c-.732-.08-1.215-.322-1.312-.667-.096-.347.19-.804.785-1.255.64-.485 1.554-.91 2.576-1.194 2.244-.625 3.954-.32 4.143.358.095.342-.177.785-.75 1.228a5.842 5.842 0 0 0-.252-.598l.005-.002a.13.13 0 0 0 .06-.175c-.19-.39-1.168-.815-2.989-.297-1.856.528-2.61 1.479-2.535 1.955m-.402-3.565c.109-.235 1.029-.912 2.029-1.187 1.011-.279 2.295-.267 2.522-.055-.115.517-.193 1.11.086 1.725a9.3 9.3 0 0 0-1.993.34 9.421 9.421 0 0 0-1.809.701c-.085-.672-.467-1.141-.835-1.524m-.165-.168l-.012-.012a9.328 9.328 0 0 1-.259-.268c.073-.242 1.132-1.035 2.284-1.352 1.138-.314 2.584-.3 2.832-.06l.012.014c-.022.105-.049.216-.077.33l-.008.035c-.47-.243-1.754-.175-2.64.07-.916.251-1.86.855-2.132 1.243m-.446-.49a.98.98 0 0 1-.19-.395c-.116-.61 1.19-1.38 2.486-1.72 1.281-.379 2.797-.394 3.013.188.05.135.057.287.04.453-.53-.27-1.967-.194-2.959.08-1.026.282-2.086.958-2.39 1.394m5.22 11.243a6.249 6.249 0 0 1-.832-.621c-.6-.541-1.134-1.158-1.615-1.81l2.288 1.654a.132.132 0 0 0 .18-.025l1.587-2.009c-.441.903-1.057 2.077-1.607 2.811m.768-.4l.247.194-.814.374c.778-1.033 1.658-2.87 2.044-3.713l.036.333-.947 2.664-.462-.083a.13.13 0 0 0-.104.231m3.604.298c-.03-.243-.22-.425-.444-.425-.05 0-.1.009-.15.027a.257.257 0 0 0-.09-.16c-.265-.212-.87-.676-1.05-.813a23.85 23.85 0 0 0-.094-1.736v-.002l-.09-.841c-.01-.091-.097-.13-.162-.147-.117-.834-.285-1.649-.466-2.519l-.034-.164a7.683 7.683 0 0 0-.193-.737c.732-.543 1.062-1.105.928-1.588-.166-.595-1.015-.91-2.188-.904-.36-.676-.2-1.336-.058-1.923.109-.445.21-.866.074-1.235-.259-.697-1.703-.852-3.356-.363-1.672.438-2.828 1.318-2.69 2.047.075.387.38.695.702 1.02.421.424.894.902.943 1.654a5.669 5.669 0 0 0-.592.39c-.703.532-1.018 1.086-.886 1.557.138.496.73.808 1.673.885.184.62.466 1.599.598 2.186.04.175.083.372.135.613 0 0-.085.074-.084.175 0 .011 0 .023.003.034l.216 1.017.196 1.075-.865.815c-.048.045-.057.115-.042.194a3.169 3.169 0 0 1-.1.085.38.38 0 0 0-.12-.01.45.45 0 0 0-.28.15.406.406 0 0 0-.068.448.404.404 0 0 0 .416.247.41.41 0 0 0 .253-.107c.107.145.248.29.388.29a.198.198 0 0 0 .097-.026l.014-.009c.03-.013.063-.029.1-.048l.48-.239c.036.29.054.514.059.694.019.748-.107 1.482-.229 2.192-.278 1.618-.54 3.147.993 4.456.138.94.253 1.528.32 1.842-.226.008-.347.1-.41.176-.096.118-.124.279-.083.477.058.285.306.436.717.436h.007c.196-.001.359-.042.456-.067l.021-.005c.037-.01.08 0 .125.012l.007.002c.014.003.145.027.2.033.131.014.268.02.404.018.43-.008.665-.173.679-.475.013-.29-.13-.458-.451-.526.184-.378.492-1.06.808-1.96l.138.32a.13.13 0 0 0 .224.028c.554-.737.9-1.488 1.11-2.205.002-.007.006-.012.007-.02l.01-.04c.413-1.462.269-2.78.185-3.545-.014-.126-.026-.238-.035-.335a16.476 16.476 0 0 1-.022-1.943l.614.236.012.003c.165.064.296-.121.365-.263a.55.55 0 0 0 .214.046.412.412 0 0 0 .099-.011.435.435 0 0 0 .342-.49"/><path d="M77.821 15.497a5.584 5.584 0 0 1-3.974 1.647c-1.08 0-2.11-.31-2.999-.875l-.2 1.766a7.21 7.21 0 0 0 3.199.746 7.212 7.212 0 0 0 5.133-2.126z" fill="#e7465a"/><path d="M75.329 13.707c-.355-.035-.708-.237-1.003-.447.05-.1.078-.212.084-.324.206-.08.428-.14.647-.152a.074.074 0 0 0 .07-.068.074.074 0 0 0-.068-.08 2.3 2.3 0 0 0-.675.052.68.68 0 0 0-.098-.216c.255-.305.606-.568.972-.708.013-.004.01-.006.026.003.073.065.108.17.144.281.056.194.086.402.1.61.016.249.04.926-.2 1.05m-1.392-.46a.592.592 0 0 0-.073-.35c-.034-.071-.146-.04-.138.04.007.088.02.232-.025.312a.128.128 0 0 0-.033.038.21.21 0 0 1-.109.02c-.025-.008-.062-.054-.079-.087-.111-.199-.109-.537.115-.65.091-.047.24-.077.337-.038.243.07.27.69.005.715m-1.559.769c-.057-.005-.104-.069-.138-.125-.208-.337-.362-1.521-.11-1.83.365.046.789.243 1.098.486a.67.67 0 0 0-.085.26 1.844 1.844 0 0 0-.441.04 3.16 3.16 0 0 0-.189.047.074.074 0 0 0 .028.145c.197-.02.412-.036.604.013.018.125.06.245.128.34-.247.26-.559.52-.895.624m3.411-1.378c-.026-.308-.14-1.288-.63-1.097a2.458 2.458 0 0 0-.997.798.577.577 0 0 0-.124-.074.7.7 0 0 0-.694.14 2.454 2.454 0 0 0-.434-.307 2.322 2.322 0 0 0-.74-.277c-.485-.033-.43.895-.411 1.208.04.405.206 1.495.828 1.164.32-.16.594-.398.816-.677a.39.39 0 0 0 .115.05.397.397 0 0 0 .283-.068c.146.044.31.008.422-.094.274.232.588.42.936.516.666.196.65-.868.63-1.282"/><path d="M72.377 14.017c-.057-.005-.104-.069-.138-.125-.208-.337-.362-1.521-.11-1.83.365.046.789.244 1.098.486a.663.663 0 0 0-.085.26 1.842 1.842 0 0 0-.441.04 3.088 3.088 0 0 0-.189.047.074.074 0 0 0 .028.145c.197-.02.412-.037.604.013.017.125.06.246.128.34-.247.26-.559.52-.895.624M73.936 13.248a.592.592 0 0 0-.073-.35c-.034-.071-.146-.04-.138.04.007.088.02.232-.025.311a.127.127 0 0 0-.033.04.214.214 0 0 1-.109.02c-.025-.009-.062-.055-.079-.088-.11-.199-.109-.537.115-.65.091-.047.24-.077.337-.038.243.07.27.69.005.715M75.329 13.707c-.355-.035-.708-.237-1.003-.447.05-.1.078-.212.084-.324.206-.08.428-.14.647-.152a.074.074 0 0 0 .07-.068.074.074 0 0 0-.068-.08 2.3 2.3 0 0 0-.675.052.68.68 0 0 0-.098-.216c.255-.305.606-.568.972-.708.013-.004.01-.006.026.003.073.065.108.17.144.281.056.194.086.402.1.61.016.249.04.926-.2 1.05" fill="#e7465a"/><path d="M77.9 14.103a.21.21 0 0 1-.05.006.34.34 0 0 1-.182-.055c-.021-.014-.036-.032-.05-.048a.18.18 0 0 1-.032-.057c-.01-.03-.047-.053-.092-.07a8.77 8.77 0 0 0-.208-.065.827.827 0 0 1 .014-.064.522.522 0 0 1 .11-.217l.138.093c.036.025.059.038.084.038.023 0 .048-.01.088-.034a.255.255 0 0 1 .127-.036c.246 0 .37.431.053.51" fill="#ffd800"/><path d="M74.434 14.771l.872-.073-.164 1.013c.327-.027.53-.146.556-.311l.186-1.145-1.083.09c-.251.021-.325.168-.367.426" fill="#e7465a"/></g></svg>