<svg height="513" viewBox="132.7 198.1 939.3 363.6" width="2500" xmlns="http://www.w3.org/2000/svg"><path d="m1028.6 516.1v-98.5c.1-.1 12.6-11.2 12.6-25s-12.4-25.8-12.6-25.9v-19.6-146.2h-43.5v165.7s10.9 10.5 12.4 23.1c0 .4.1.8.1 1.1 0 .5.1.9.1 1.4v1.2c-.5 13.4-12.5 24.1-12.5 24.1v139.8h86.8v-41.4c-14.6.2-28.7.2-43.4.2zm-556.7-149.4v-11.5-25.5-77.5c0-6.4-.4-12.7-1.1-19.1-2.3-20.5-11.8-31.2-32-33.3-16.1-1.7-32.5-1.1-48.8-1.1-5.1 0-10.2 1-15.2 2.1-11.6 2.7-19.6 9.8-22.8 21.3-1.8 6.8-3.3 13.9-3.3 20.9-.2 37.8-.2 75.5-.2 113.3l.1.1v10.2s12.6 12 12.6 25.9-12.6 25-12.6 25v9.9l-.3.4v12.2c0 20.4 0 40.7.1 61.1 0 8.5.4 17 1.3 25.4 2 18.1 10.5 28.8 27.6 31.6 21.9 3.6 44 3.4 66 0 14.1-2.2 22.8-10.9 25.6-24.8 1.6-7.7 2.8-15.7 2.8-23.6.1-22.7.1-45.3.1-68v-24.2s12.6-11.1 12.6-25c0-13.8-12.4-25.7-12.5-25.8zm-44.1 126.8c0 4.9-.2 9.9-.7 14.8-.4 4.8-2.5 9-7.7 9.4-6.1.6-12.3.5-18.4 0-5.6-.5-7.3-5.1-7.7-10-.4-4.4-.3-8.8-.3-13.3v-77s12.6-11.1 12.6-25-12.6-25.9-12.6-25.9v-14.2-94.3c0-16.2 2.3-18.2 18.5-18.2 12.5.1 15.1 2.5 16 15 .2 3 .2 6 .2 9v102.6s12.6 12 12.6 25.9-12.6 25-12.6 25v12.2c.1 21.5.1 42.7.1 64zm528-51.8-2.3-24.1s11.5-11.1 10.1-25-15.1-25.9-15.1-25.9l-4.1-37c-4.3-42.9-8.7-85.7-13-128.6h-61.1c-4.3 42.9-8.6 85.7-12.9 128.6l-4 37s11.4 12 10 25.9-15 25-15 25l-2.4 24.2.2-.3c0 .5-.1 1-.1 1.5-3.8 38.2-7.6 76.3-11.4 114.5h39.6c1.7-17 3.4-33.6 5.1-50.4h38.4c1.8 17.2 3.4 33.9 5.1 50.5h44.7c-3.9-38.7-7.8-77.3-11.8-115.9zm-71.8 23.2c.5-7.7 1.1-15.4 1.6-23.2l3.1-24.2s13.2-11.1 14-25-11.1-25.9-11.1-25.9l1.4-31.2c1.8-25.5 3.5-50.6 5.2-74.7 2.1 28.8 4.2 58.8 6.5 89.5.2 3.4.5 6.8.7 10.3 0 .3.1.6.1.9l.4 5.2s13.4 12 14.4 25.9-10.8 25-10.8 25l.6 7.8v.1c.3 4.4.6 8.7.9 13.1.6 8.8 1.3 17.5 1.9 26.3-9.3.1-19.2.1-28.9.1zm-66.5-98.2v-13-152.6h-66.6c-4.2 44.4-8.5 88.6-12.5 131.1l-3.4 34.5s11.4 12 10 25.9c-.3 2.9-1.1 5.7-2.3 8.3.6-2.6.9-5.4.6-8.3-1.4-12.9-13.8-24.3-15.4-25.6-6-52.4-15.1-133.6-18.3-165.9h-65.2v165.7s12.6 12 12.6 25.9-12.6 25-12.6 25v139.8h38.1v-139.9c.6-.5 12.5-11.4 12.5-25 0-13.5-11.9-25.3-12.5-25.8v-14.2-50.6c1.5 13.7 3.1 27.5 4.7 41.3l2.6 23.5s13.9 12 15.4 25.9-9.8 25-9.8 25l2.7 22.8c4.4 39 8.8 78 13.2 117.1h35c4.8-42.9 9.6-85.8 14.3-128.1l1.4-11.9 1.5-.8c18.7-13.1 19.8-34.3 4.7-50.3-.1-4.2.4-8.3.8-12.5 1.9-16.6 3.7-33 5.5-49.3v62s12.6 12 12.6 25.9-12.6 25-12.6 25v140h43v-126.7-13.3c.1-.1 12.6-11.2 12.6-25-.1-13.8-12.5-25.7-12.6-25.9zm-482.2 25.9c0-12.7-10.5-23.8-12.3-25.6v-165.9h-36.9v165.5s11.1 10.6 12.4 23.4v4.9c-.8 7.2-4.6 13.4-7.9 17.5 3-4.4 6.6-11.8 5.2-20.1-2.2-13.6-16.4-25.4-16.4-25.4l-6.3-35.3c-6.7-42.4-13.7-86.6-20.8-130.9h-55.9v165.9s12.6 12 12.6 25.9-12.6 25-12.6 25v140.2h37.7v-140.2c.3-.3 12.5-11.3 12.5-25s-12.2-25.6-12.5-25.9v-10.9-38.6c.7 4.1 1.4 8.3 2 12.4l-.1-.1 5.9 37.2s14.6 12 16.9 25.9-8.4 25-8.4 25l4 23.9c6.3 38.3 12.7 77.2 19.1 116h49.2v-140.2c2.2-1.6 12.6-11.9 12.6-24.6zm284.3 95.2c0-17.7.1-35.4-.1-53.1 0-3.5-.1-7.1-.1-10.6.6-1.2 1.1-2.3 1.6-3.5 2.7-4.4 4.3-9.8 4.3-15.6 0-14.9-10.3-27-23.1-27-1.2 0-2.3.1-3.4.3h-.1c11.3-1.7 20-13 20-26.7l.2-27.6c.4-21.2.5-42.5.6-63.7.1-7.9-.4-15.9-1.1-23.8-2-21.1-13.2-33.7-33.3-34.4-29.3-.9-58.7-.2-88.5-.2v165s12.6 12 12.6 25.9-12.6 25-12.6 25v139.8h44.2v-115.8l.1.2v-24.2s9.4-8.4 12-19.6l17.6-.2s5.2.2 9.3 1.4c9 3.5-.3 13.7-.3 13.7-2.2 2.8-4.2 4.6-4.2 4.6v26.8-.2c0 22.2-.1 44.4.1 66.6.1 11.7.6 23.3 1.5 35 .9 12 1.2 12 13.3 12h36c-7.8-23.4-6.5-46.8-6.6-70.1zm-78.7-130.9v-27.3-87.7c9.2.5 18.3.6 27.3 1.7 2.1.2 4.4 3.3 5.6 5.7s1.4 5.5 1.4 8.3c.1 28 .3 56-.1 83.9-.2 12.8-3.4 15.3-16.1 15.4zm-395.3-48.7v-93.2h-12.9v-16.5h42v16.5h-12.7v93.2zm-12.8 121.4v-109.6h14.7v45h12.7v-45h14.7v109.6h-14.7v-48.7h-12.7v48.7zm0 127.7v-109.6h41.8v15.5h-25.4v29h21.2v15.6h-21.2v34.3h25.6v15.2z"/></svg>