<svg enable-background="new 0 0 2349.9 772.3" viewBox="0 0 2349.9 772.3" xmlns="http://www.w3.org/2000/svg"><path d="m533.9 411.7 41-21.2v-322.2h-31l-75.7 100.4h-8.5l4.8-112.9h328.2l4.8 113h-9.1l-74.2-100.4h-31.9v321.3l41.2 21.8v10.9h-189.6zm295.5-14.2v-356.9l-31.9-12.8v-6.6l115-21.2h12.6v169.4l2.7-2.7c27.5-23.4 62.4-36.4 98.6-36.6 50.4 0 72.6 28.5 72.6 81.4v185.9l26.9 14.7v10.2h-150.4v-10.2l27-14.7v-186.5c0-29.2-12.8-40.8-36.6-40.8-14.4-.3-28.5 4.3-39.8 13.1v214.8l26.5 14.7v9.7h-150.4v-9.7zm378.3-109.6c3.1 59 29.6 104.6 92.2 104.6 30.3 0 51.8-14 71.7-24.7v11.6c-27.1 33.1-67.8 52-110.6 51.5-97.1 0-146.6-54-146.6-147.4 0-91.3 54.3-148.2 141.9-148.2 82.5 0 125.3 41.2 125.3 149.8v2.8zm-1.6-13.7 85.6-5.2c0-73.1-12.5-121.6-37.6-121.6-26.8.1-48 56.5-48 126.8zm-1206.1 291.1c0-155.3 102.8-210.6 217.3-210.6 48.6 0 94.4 8 120.1 18.4l2.2 108.4h-10.9l-67.2-104.9c-13.5-5.4-28-7.7-42.6-6.9-60.9 0-92 70.4-91 185.7 1.1 137.9 25.1 200.7 81 200.7 11.4.4 22.8-1.5 33.5-5.6v-147.8l-36.9-21v-12.6h178.2v13.2l-36.3 20.3v145.8c-43.2 15.3-88.8 23.1-134.7 22.9-130.1.1-212.7-60.2-212.7-206m367.2-72.5v-9l119.5-21.1 13.2 1.1v236.2c0 28.5 13.7 37.2 36.7 37.2 15.1.2 29.4-6.5 38.9-18.3v-211.9l-32.8-14.3v-9.2l119.5-21.1 12 1.1v271l32.3 13.5v8.6l-117.2 14.4-12-1.1v-35.6h-3.3c-24.1 23.5-56.2 37-89.8 37.8-57.5 0-83.8-33.9-83.8-85.4v-179.7zm751.3-30.6 9.9 1.1v87.7h2.7c12.8-63.8 41-87.7 75.5-87.7 5-.2 10 .5 14.7 2.2v88.8c-8.1-1.7-16.4-2.4-24.6-2.2-22.4-.6-44.7 3.9-65.2 13v172.9l27.3 15.1v11.9h-155.4v-11.8l28-15.2v-236l-32.8-9.8v-8zm300.7 7.4v-92.2l-32.8-11.5v-7.3l121-22.2 11.5 1.7v396l33.4 12.1v10.2l-119.5 15.9-9.3-1.1v-32.6h-2.7c-20.7 21.9-49.6 34-79.7 33.4-65.2 0-112.8-49.8-112.8-151.4 0-107.3 55.3-160.1 139.1-160.1 17.6-.9 35.4 2.2 51.8 9.1zm0 253.6v-237.1c-9.2-7.8-21.1-11.5-33.1-10.3-32.4 1.1-52.4 50-52.4 137.1 0 78.3 14.3 122.1 57.5 120.6 10.3.1 20.2-3.6 28-10.3zm264.1-261 10.4 1.1v274.7l27.3 15.1v11.9h-155.4v-11.8l27.9-15.2v-231.6l-33.4-13.2v-9.2zm10.9-74.3c-.9 28.5-24.6 50.9-53.1 50.4-18.8.7-36.5-8.9-46.1-25s-9.6-36.3 0-52.4 27.3-25.7 46.1-25c28.9-.4 52.7 22.8 53.1 51.7zm349 350.1v-234.1l-32.8-11.5v-11.3l119.5-22.2 12 1.1v35.1h3.3c28.4-24.3 64.5-37.7 101.9-37.8 52 0 75 24.6 75 79.7v200.6l27.9 15.9v11.6h-155.6v-11.8l27.9-15.2v-196.2c0-30.1-13.2-42.2-37.8-42.2-14.8-.4-29.2 4.2-41 13.1v225.2l27.4 15.1v12h-155.5v-11.8zm-169.1-147.1v-39.3c0-59.1-12.9-78.5-49.5-78.5-4.1.1-8.3.5-12.4 1.1l-65.1 88.2h-9.2v-81.3c35.2-12.1 72.1-18.5 109.3-19 79.7 0 125.8 22.1 125.8 88.8v191.3l28.5 7.5v7.5c-18.1 9.3-38.3 13.9-58.7 13.5-39.3 0-58.1-12.9-66.7-34.4h-2.8c-16.7 22.6-40.3 35.5-77.5 35.5-47.3 0-79.7-29.6-79.7-80.6 0-49.5 30.7-76.3 93.1-88.2zm0 132.3v-118.3l-19.9 1.6c-31.2 2.7-42.5 22.6-42.5 66.7 0 47.8 15.9 60.2 37.6 60.2 9.4.9 18.7-2.9 24.8-10.2zm-1009-132.3v-39.3c0-59.1-12.9-78.5-49.5-78.5-4.1.1-8.3.5-12.4 1.1l-65.1 88.1h-9.1v-81.2c35.2-12.1 72-18.5 109.2-19 79.7 0 125.8 22.1 125.8 88.8v191.3l28.5 7.5v7.5c-18.1 9.3-38.3 13.9-58.7 13.5-39.3 0-58.1-12.9-66.7-34.4h-2.7c-16.7 22.6-40.3 35.5-77.5 35.5-47.3 0-79.7-29.6-79.7-80.6 0-49.5 30.7-76.3 93.1-88.2zm0 132.3v-118.3l-19.9 1.6c-31.2 2.7-42.5 22.6-42.5 66.7 0 47.8 15.9 60.2 37.6 60.2 9.4.9 18.7-2.9 24.8-10.2" fill="#121212"/></svg>