<svg xmlns="http://www.w3.org/2000/svg" width="2500" height="2500" viewBox="0 0 192.756 192.756"><g fill-rule="evenodd" clip-rule="evenodd"><path fill="#fff" d="M0 0h192.756v192.756H0V0z"/><path d="M27.951 111.651c.769 2.772 1.892 5.127 3.285 7.146a20.404 20.404 0 0 0 5.001 5.089c1.945 1.387 4.172 2.477 6.75 3.21 2.577.732 5.504 1.109 8.262 1.141s5.346-.283 7.647-.851 4.316-1.387 6.1-2.408c1.784-1.022 3.338-2.247 4.698-3.678s2.526-3.067 3.5-4.954c.974-1.887 1.754-4.023 2.288-6.471.534-2.445.822-5.201.812-7.944-.01-2.743-.318-5.474-.896-7.906-.578-2.433-1.426-4.568-2.469-6.444-1.043-1.876-2.282-3.494-3.698-4.888s-3.008-2.566-4.792-3.526c-1.784-.96-3.759-1.709-5.961-2.226-2.202-.517-4.632-.802-7.292-.756s-5.551.422-8.115 1.168c-2.563.747-4.799 1.865-6.757 3.292a20.935 20.935 0 0 0-5.045 5.238c-1.407 2.076-2.539 4.493-3.313 7.319s-1.189 6.062-1.189 9.274c-.001 3.212.414 6.403 1.184 9.175zM54.63 87.559a9.355 9.355 0 0 1 2.564 1.142c.789.504 1.516 1.132 2.178 1.907s1.262 1.697 1.776 2.799c.514 1.102.941 2.384 1.236 3.882.295 1.497.456 3.21.457 4.955.001 1.744-.158 3.519-.447 5.054-.289 1.534-.707 2.828-1.209 3.937a12.117 12.117 0 0 1-1.738 2.812 9.619 9.619 0 0 1-2.159 1.922 9.38 9.38 0 0 1-2.605 1.172c-.955.266-2.002.405-3.047.401a12.545 12.545 0 0 1-2.298-.204 10.518 10.518 0 0 1-2.062-.602 9.715 9.715 0 0 1-3.45-2.395c-.51-.549-.988-1.18-1.428-1.917s-.841-1.58-1.187-2.557a18.793 18.793 0 0 1-.836-3.347c-.2-1.262-.31-2.676-.308-4.089a26.06 26.06 0 0 1 .321-4.099c.207-1.272.509-2.402.868-3.398.36-.996.777-1.858 1.232-2.61.455-.752.947-1.394 1.468-1.95a10.049 10.049 0 0 1 1.65-1.42 9.735 9.735 0 0 1 1.829-.986c1.323-.543 2.797-.796 4.271-.793.999-.006 1.999.127 2.924.384zm91.216 10.115a39.314 39.314 0 0 0-1.115-5.795 28.722 28.722 0 0 0-1.539-4.293 22.026 22.026 0 0 0-1.828-3.262 18.52 18.52 0 0 0-2.082-2.547 17.222 17.222 0 0 0-2.357-2.01 17.719 17.719 0 0 0-2.684-1.567 20.098 20.098 0 0 0-3.105-1.163 24.46 24.46 0 0 0-3.65-.738 32.053 32.053 0 0 0-4.201-.246c-2.311-.009-4.627.271-6.697.793-2.068.522-3.891 1.287-5.525 2.258a18.964 18.964 0 0 0-4.365 3.559c-1.287 1.41-2.412 3.052-3.367 4.989-.955 1.938-1.738 4.17-2.285 6.794-.547 2.624-.855 5.638-.824 8.641.029 3.004.4 5.996 1.119 8.65.721 2.653 1.791 4.968 3.135 6.973a20.557 20.557 0 0 0 4.848 5.1c1.881 1.396 4.027 2.494 6.461 3.24 2.434.747 5.152 1.144 7.863 1.131 1.764.006 3.529-.134 5.096-.393s2.934-.636 4.188-1.114a18.221 18.221 0 0 0 3.486-1.767 18.917 18.917 0 0 0 3.152-2.587c1.033-1.041 2.064-2.286 3.137-3.959 1.074-1.673 2.191-3.771 3.137-5.941h-13.303a27.887 27.887 0 0 1-1.74 2.407c-.514.625-.902.996-1.264 1.298a6.247 6.247 0 0 1-2.15 1.204c-.404.133-.857.243-1.453.321s-1.332.125-2.037.12a12.179 12.179 0 0 1-2.004-.168 9.253 9.253 0 0 1-1.773-.489 8.682 8.682 0 0 1-2.986-1.946 9.78 9.78 0 0 1-1.264-1.556 12.31 12.31 0 0 1-1.098-2.091c-.332-.803-.625-1.722-.854-2.783s-.393-2.267-.463-3.477l32.822-.072c-.004-2.626-.158-5.255-.431-7.514zm-31.608-4.51a11.26 11.26 0 0 1 1.15-2.437 8.708 8.708 0 0 1 1.451-1.75 7.93 7.93 0 0 1 1.764-1.235 8.853 8.853 0 0 1 2.176-.781c.812-.18 1.719-.276 2.615-.276.895 0 1.777.098 2.576.282.801.185 1.518.458 2.168.808s1.236.776 1.764 1.287c.529.511 1 1.105 1.412 1.804.41.698.764 1.5 1.033 2.434.268.935.455 2.001.529 3.074h-19.375c.151-1.133.413-2.253.737-3.21zm32.399 17.717c.076 1.754.377 3.5.857 5.048a15.41 15.41 0 0 0 1.953 4.107 14.915 14.915 0 0 0 2.953 3.236c1.164.956 2.521 1.799 4.141 2.519 1.617.721 3.496 1.318 5.744 1.724s4.867.618 7.182.644c2.316.025 4.328-.138 6.117-.42a27.17 27.17 0 0 0 4.734-1.168 20.04 20.04 0 0 0 3.619-1.661 15.982 15.982 0 0 0 2.727-2.018 14.083 14.083 0 0 0 2.016-2.321 13.66 13.66 0 0 0 1.418-2.635c.383-.937.672-1.936.867-3.014.283-1.593.367-3.326.193-5.079a13.454 13.454 0 0 0-.262-1.574 11.424 11.424 0 0 0-1.021-2.797c-.701-1.312-1.586-2.477-3.143-3.726-.512-.408-1.09-.809-1.781-1.212s-1.496-.811-2.547-1.266c-1.051-.456-2.348-.959-4.885-1.583-2.535-.624-6.311-1.367-8.775-1.938-2.467-.57-3.621-.968-4.434-1.303s-1.283-.607-1.654-.862c-1.107-.756-1.506-1.498-1.686-2.218-.227-1.053-.084-2.171 1.059-3.305.277-.266.609-.524 1.006-.761s.855-.454 1.373-.636c.52-.182 1.1-.329 1.727-.429.625-.1 1.301-.151 2.023-.151.721 0 1.492.053 2.172.15s1.268.239 1.793.414c.523.175.986.384 1.404.625a6.322 6.322 0 0 1 2.07 1.926c.285.421.549.905.777 1.503.229.599.426 1.311.555 2.034h12.725c-.096-1.524-.344-3.042-.703-4.38s-.83-2.499-1.396-3.539c-.564-1.04-1.223-1.959-1.986-2.792s-1.633-1.581-2.648-2.254a17.556 17.556 0 0 0-3.553-1.792c-1.375-.519-2.967-.955-4.879-1.261a39.167 39.167 0 0 0-6.357-.466c-2.209.018-4.395.23-6.332.636-1.938.406-3.629 1.005-5.1 1.733a16.607 16.607 0 0 0-3.785 2.542 14.116 14.116 0 0 0-4.221 6.923 16.608 16.608 0 0 0-.539 4.289c0 .606.031 1.213.094 1.791.062.579.154 1.128.277 1.653.236 1.011.57 1.945 1.072 2.873a10.726 10.726 0 0 0 1.889 2.523c.402.401.863.805 1.404 1.205s1.164.798 1.918 1.204c.756.405 1.643.819 2.889 1.268 1.246.449 2.85.934 5.439 1.517 2.59.582 6.166 1.264 8.338 1.786 2.17.522 2.934.887 3.529 1.204.594.316 1.02.585 1.361.85 1.061.841 1.445 1.676 1.627 2.503.221 1.149.129 2.286-1.115 3.428-.293.262-.648.517-1.08.754s-.938.457-1.527.645c-.59.187-1.262.342-2.014.446s-1.582.158-2.416.162a20.803 20.803 0 0 1-2.41-.129 13.407 13.407 0 0 1-1.924-.353 9.407 9.407 0 0 1-1.486-.521 7.289 7.289 0 0 1-1.184-.67 6.349 6.349 0 0 1-.979-.843 6.655 6.655 0 0 1-.834-1.092 7.853 7.853 0 0 1-.729-1.547 14.161 14.161 0 0 1-.572-2.222l-13.085.073zM1.326 78.164v9.471h6.29v24.871c0 2.12.121 4.243.29 5.781.169 1.539.392 2.492.628 3.27.236.777.485 1.377.758 1.896s.568.955.894 1.345c.326.39.681.731 1.083 1.043.401.312.849.592 1.378.85.529.258 1.14.492 1.893.701.753.209 1.648.394 2.856.524a40.077 40.077 0 0 0 5.996.162c.686-.031 1.525-.081 2.417-.146s1.833-.147 2.774-.241v-9.688a64.796 64.796 0 0 1-3.981-.083c-.952-.057-1.341-.134-1.648-.21a4.649 4.649 0 0 1-.718-.229 2.49 2.49 0 0 1-.464-.258 2.006 2.006 0 0 1-.613-.684 2.857 2.857 0 0 1-.23-.541 4.84 4.84 0 0 1-.196-.974 16.3 16.3 0 0 1-.101-1.793V87.635h7.664v-9.543H20.63v-12.87H7.616v12.942h-6.29zm73.454-.057v9.471h6.29v24.871c0 2.138.119 4.278.285 5.824.167 1.546.386 2.497.618 3.272.232.774.477 1.372.744 1.887.267.515.557.947.875 1.332s.667.724 1.062 1.031.833.585 1.353.84c.52.254 1.118.485 1.866.694.748.209 1.644.394 2.873.526a41.566 41.566 0 0 0 6.098.163 100.56 100.56 0 0 0 5.192-.388v-9.688a66.557 66.557 0 0 1-4.051-.079c-.963-.056-1.341-.134-1.638-.209a4.265 4.265 0 0 1-.692-.225 2.171 2.171 0 0 1-.784-.553 2.048 2.048 0 0 1-.267-.38 2.89 2.89 0 0 1-.226-.54 4.862 4.862 0 0 1-.194-.978c-.054-.474-.1-1.142-.1-1.81v-25.59h7.663v-9.543l-7.663.072V65.165H81.07v12.942h-6.29z"/></g></svg>