<svg xmlns="http://www.w3.org/2000/svg" width="2500" height="2500" viewBox="0 0 192.756 192.756"><g fill-rule="evenodd" clip-rule="evenodd"><path fill="#fff" d="M0 0h192.756v192.756H0V0z"/><path d="M35.74 116h-.76v-4.52h.717v.752h.018c.302-.527.699-.881 1.27-.881.095 0 .138.009.199.026v.786h-.285c-.709 0-1.159.553-1.159 1.208V116zM38.454 113.382c0-.699.553-1.348 1.253-1.348.924 0 1.218.648 1.262 1.348h-2.515zm2.479 1.201c-.025.338-.45.889-1.167.889-.873 0-1.313-.545-1.313-1.485h3.3c0-1.599-.64-2.635-1.943-2.635-1.495 0-2.169 1.115-2.169 2.515 0 1.305.752 2.264 2.022 2.264.725 0 1.02-.174 1.227-.312.57-.381.777-1.02.803-1.235h-.76v-.001zM45.367 111.48h.83l-1.72 4.52h-.812l-1.65-4.52h.882l1.175 3.681h.017l1.278-3.681zM47.243 113.736c0-.604.225-1.728 1.313-1.728 1.088 0 1.313 1.123 1.313 1.728s-.225 1.728-1.313 1.728c-1.089 0-1.313-1.123-1.313-1.728zm-.786 0c0 1.165.656 2.384 2.1 2.384 1.442 0 2.099-1.219 2.099-2.384 0-1.167-.657-2.385-2.099-2.385-1.444.001-2.1 1.218-2.1 2.385zM51.64 109.796h.76v6.203h-.76v-6.203zM56.59 116v-.658l-.016-.016c-.319.525-.709.804-1.434.804-.667 0-1.469-.32-1.469-1.4v-3.249h.76v2.999c0 .742.38.992.872.992.959 0 1.245-.846 1.245-1.503v-2.488h.76V116h-.718zM59.484 112.112v2.937c0 .354.303.354.459.354h.268V116c-.277.025-.492.061-.57.061-.751 0-.916-.424-.916-.968v-2.98h-.613v-.632h.613v-1.261h.76v1.261h.727v.632h-.728v-.001zM61.075 111.48h.76v4.519h-.76v-4.519zm0-1.684h.76v.864h-.76v-.864zM63.605 113.736c0-.604.225-1.728 1.313-1.728 1.088 0 1.313 1.123 1.313 1.728s-.225 1.728-1.313 1.728c-1.087 0-1.313-1.123-1.313-1.728zm-.785 0c0 1.165.656 2.384 2.099 2.384 1.442 0 2.099-1.219 2.099-2.384 0-1.167-.657-2.385-2.099-2.385-1.443.001-2.099 1.218-2.099 2.385zM71.667 116h-.761v-2.782c0-.786-.225-1.184-.968-1.184-.432 0-1.192.275-1.192 1.503V116h-.76v-4.52h.717v.64h.017c.165-.242.588-.769 1.365-.769.7 0 1.581.285 1.581 1.572V116h.001zM75.649 114.436c0 .605-.69 1.062-1.4 1.062-.57 0-.82-.293-.82-.786 0-.57.595-.683.967-.733.942-.121 1.132-.191 1.253-.286v.743zm-2.082-1.582c.052-.346.172-.872 1.037-.872.717 0 1.062.259 1.062.734 0 .449-.215.518-.397.536l-1.252.155c-1.262.155-1.374 1.036-1.374 1.417 0 .776.587 1.305 1.417 1.305.882 0 1.339-.415 1.633-.734.026.345.13.69.804.69.173 0 .285-.052.415-.086v-.553a1.472 1.472 0 0 1-.25.033c-.157 0-.251-.077-.251-.267v-2.602c0-1.157-1.312-1.261-1.675-1.261-1.115 0-1.832.423-1.867 1.503h.698v.002zM78.665 116h-.76v-4.52h.716v.752h.018c.302-.527.7-.881 1.27-.881.095 0 .139.009.198.026v.786h-.284c-.708 0-1.157.553-1.157 1.208V116h-.001zM83.863 111.48h.837c-.527 1.478-1.045 2.955-1.624 4.432-.717 1.833-.795 1.937-1.771 1.937-.111 0-.198-.034-.318-.069v-.691c.095.034.25.078.458.078.397 0 .44-.111.804-1.046l-1.677-4.64h.863l1.202 3.681h.017l1.209-3.682zM85.652 115.084h.897v.915h-.897v-.915zm0-3.542h.897v.914h-.897v-.914zM87.837 116.163h-.579l2.126-6.53h.57l-2.117 6.53zM90.343 116.163h-.579l2.125-6.53h.57l-2.116 6.53zM95.543 112.768c-.008-.284-.111-.759-1.07-.759-.234 0-.899.076-.899.639 0 .371.234.457.821.605l.76.189c.942.233 1.27.579 1.27 1.191 0 .934-.768 1.496-1.788 1.496-1.789 0-1.919-1.037-1.944-1.582h.734c.026.354.13.924 1.201.924.544 0 1.036-.214 1.036-.716 0-.364-.25-.483-.898-.648l-.881-.216c-.631-.155-1.046-.475-1.046-1.098 0-.994.822-1.442 1.711-1.442 1.615 0 1.728 1.192 1.728 1.416h-.735v.001zM97.93 113.736c0-.604.225-1.728 1.312-1.728s1.312 1.123 1.312 1.728-.225 1.728-1.312 1.728-1.312-1.123-1.312-1.728zm-.787 0c0 1.165.656 2.384 2.1 2.384 1.441 0 2.1-1.219 2.1-2.384 0-1.167-.658-2.385-2.1-2.385-1.444.001-2.1 1.218-2.1 2.385zM103.043 112.112V116h-.76v-3.888h-.621v-.632h.621v-.777c0-.683.432-.993 1.176-.993.111 0 .225.01.346.018v.683a3.602 3.602 0 0 0-.311-.018c-.328 0-.451.163-.451.527v.561h.762v.632h-.762v-.001zM105.746 112.112v2.937c0 .354.303.354.459.354h.268V116c-.275.025-.492.061-.57.061-.752 0-.916-.424-.916-.968v-2.98h-.613v-.632h.613v-1.261h.76v1.261h.727v.632h-.728v-.001zM108.969 116h-.785l-1.305-4.52h.83l.863 3.551h.016l.875-3.551h.846l.88 3.551h.018l.916-3.551h.76L111.57 116h-.787l-.916-3.5h-.017l-.881 3.5zM116.287 114.436c0 .605-.689 1.062-1.398 1.062-.57 0-.82-.293-.82-.786 0-.57.596-.683.967-.733.941-.121 1.131-.191 1.252-.286v.743h-.001zm-2.082-1.582c.053-.346.174-.872 1.037-.872.717 0 1.062.259 1.062.734 0 .449-.215.518-.396.536l-1.254.155c-1.262.155-1.373 1.036-1.373 1.417 0 .776.588 1.305 1.416 1.305.883 0 1.34-.415 1.635-.734.025.345.129.69.803.69.172 0 .285-.052.414-.086v-.553c-.086.017-.18.033-.25.033-.154 0-.25-.077-.25-.267v-2.602c0-1.157-1.314-1.261-1.676-1.261-1.115 0-1.832.423-1.867 1.503h.699v.002zM119.303 116h-.76v-4.52h.717v.752h.018c.303-.527.701-.881 1.27-.881.096 0 .139.009.199.026v.786h-.285c-.707 0-1.158.553-1.158 1.208V116h-.001zM122.016 113.382c0-.699.553-1.348 1.252-1.348.926 0 1.219.648 1.262 1.348h-2.514zm2.48 1.201c-.027.338-.449.889-1.168.889-.871 0-1.312-.545-1.312-1.485h3.301c0-1.599-.639-2.635-1.943-2.635-1.496 0-2.17 1.115-2.17 2.515 0 1.305.752 2.264 2.021 2.264.727 0 1.02-.174 1.229-.312.568-.381.777-1.02.803-1.235h-.761v-.001zM126.389 115.084h.898v.915h-.898v-.915zM131.27 112.768c-.008-.284-.111-.759-1.07-.759-.234 0-.9.076-.9.639 0 .371.234.457.82.605l.762.189c.941.233 1.27.579 1.27 1.191 0 .934-.768 1.496-1.787 1.496-1.789 0-1.918-1.037-1.943-1.582h.732c.027.354.131.924 1.201.924.545 0 1.037-.214 1.037-.716 0-.364-.252-.483-.898-.648l-.883-.216c-.629-.155-1.045-.475-1.045-1.098 0-.994.82-1.442 1.711-1.442 1.617 0 1.729 1.192 1.729 1.416h-.736v.001zM133.654 113.736c0-.604.225-1.728 1.312-1.728 1.09 0 1.312 1.123 1.312 1.728s-.223 1.728-1.312 1.728c-1.087 0-1.312-1.123-1.312-1.728zm-.787 0c0 1.165.656 2.384 2.1 2.384s2.1-1.219 2.1-2.384c0-1.167-.656-2.385-2.1-2.385s-2.1 1.218-2.1 2.385zM138.051 109.796h.76v6.203h-.76v-6.203zM143.002 116v-.658l-.018-.016c-.318.525-.707.804-1.434.804-.666 0-1.469-.32-1.469-1.4v-3.249h.76v2.999c0 .742.381.992.873.992.959 0 1.244-.846 1.244-1.503v-2.488h.76V116h-.716zM145.896 112.112v2.937c0 .354.303.354.457.354h.268V116c-.275.025-.492.061-.57.061-.752 0-.916-.424-.916-.968v-2.98h-.613v-.632h.613v-1.261h.762v1.261h.725v.632h-.726v-.001zM147.484 110.66h.762v-.864h-.762v.864zm0 5.34h.762v-4.519h-.762V116zM150.018 113.736c0-.604.225-1.728 1.312-1.728 1.09 0 1.314 1.123 1.314 1.728s-.225 1.728-1.314 1.728c-1.088 0-1.312-1.123-1.312-1.728zm-.788 0c0 1.165.656 2.384 2.1 2.384s2.1-1.219 2.1-2.384c0-1.167-.656-2.385-2.1-2.385s-2.1 1.218-2.1 2.385zM158.078 116h-.76v-2.782c0-.786-.225-1.184-.969-1.184-.432 0-1.191.275-1.191 1.503V116h-.762v-4.52h.717v.64h.018c.164-.242.588-.769 1.367-.769.699 0 1.58.285 1.58 1.572V116zM161.869 112.768c-.008-.284-.111-.759-1.07-.759-.232 0-.898.076-.898.639 0 .371.234.457.82.605l.762.189c.941.233 1.27.579 1.27 1.191 0 .934-.77 1.496-1.789 1.496-1.789 0-1.918-1.037-1.943-1.582h.734c.025.354.129.924 1.201.924.545 0 1.037-.214 1.037-.716 0-.364-.25-.483-.9-.648l-.879-.216c-.631-.155-1.047-.475-1.047-1.098 0-.994.82-1.442 1.711-1.442 1.615 0 1.727 1.192 1.727 1.416h-.736v.001z"/><path fill="#28539c" d="M15.167 85.986H8.504v-6.144h20.654v6.144h-6.661v17.412h-7.33V85.986zM42.017 85.46H45.4c2.758 0 3.579.853 3.579 2.331 0 2.102-1.839 2.331-3.185 2.331h-3.777V85.46zm-7.224 17.938h7.224v-8.252h3.842c2.856 0 3.053 2.332 3.25 4.563.098 1.216.23 2.432.629 3.688h7.224c-.695-1.159-.728-3.95-.826-5.1-.262-2.922-1.478-5.09-3.448-5.845 2.397-.887 3.512-3.448 3.512-5.877 0-4.434-3.545-6.7-7.649-6.7H34.793v23.523zM63.065 86.034h7.225v17.363h-7.225V86.034zM85.164 85.886h2.299c5.222 0 5.682 4.104 5.682 5.583 0 2.199-.658 5.845-5.157 5.845h-2.824V85.886zm-7.225 17.533h10.436c8.176 0 11.993-4.661 11.993-11.852 0-5.911-2.758-11.69-10.574-11.69H77.939v23.542zM107.107 79.876h7.223v17.417h-7.223V79.876zM143.26 94.26c0 6.502-3.514 9.621-10.672 9.621s-10.705-3.119-10.705-9.621V79.876h7.225V92.65c0 2.396 0 5.385 3.514 5.385 3.414 0 3.414-2.989 3.414-5.385V79.876h7.225V94.26h-.001zM150.49 79.876h10.278l3.349 13.792h.067l3.349-13.792h10.279v23.522h-6.83V88.283h-.068l-4.07 15.115h-5.385l-4.072-15.115h-.067v15.115h-6.83V79.876z"/><path d="M70.655 78.959a4.053 4.053 0 1 1-8.107.001 4.053 4.053 0 0 1 8.107-.001zM114.807 104.358a4.054 4.054 0 1 1-8.107-.001 4.054 4.054 0 0 1 8.107.001z" fill="#cf4037"/><path d="M182.926 81.663l.674-1.763h.652v2.397h-.424v-1.95h-.012l-.752 1.95h-.291l-.75-1.95h-.012v1.95h-.426V79.9h.652l.689 1.763zm-1.758-1.415h-.74v2.049h-.424v-2.049h-.74V79.9h1.904v.348z" fill="#28539c"/><path d="M166.633 112.755l.549-1.432h.529v1.949h-.346v-1.584h-.01l-.609 1.584h-.236l-.611-1.584h-.008v1.584h-.346v-1.949h.529l.559 1.432zm-1.428-1.148h-.602v1.665h-.346v-1.665h-.6v-.284h1.547v.284h.001z"/></g></svg>