<svg xmlns="http://www.w3.org/2000/svg" width="2500" height="2500" viewBox="0 0 192.756 192.756"><g fill-rule="evenodd" clip-rule="evenodd"><path fill="#fff" d="M0 0h192.756v192.756H0V0z"/><path d="M109.174 47.814c.732 4.395-2.824 7.821-6.486 9.599l-8.893 4.97 3.165-8.056c.026-.052 1.177-3.426.261-3.792 0 0-.758-.471-1.464-1.02-3.505-2.851-5.754-7.69-1.177-11.404 0 0 .418-.34 1.229-.758l-1.255-2.25s.732-.576 2.014-1.386c6.224-3.845 14.072-5.911 21.212-3.112 0 0 .863.313 2.328 1.203 1.307.784 3.086 2.014 5.178 3.818 8.291 5.545 39.703 6.983 56.338 5.101L169.592 44.1s-15.039 4.237-24.848 5.257c-9.703.994-22.52 1.36-33.922-1.256 0 0-.289-.078-.551-.13a7.43 7.43 0 0 0-1.097-.157z"/><path d="M147.49 95.677l11.717-42.867h7.01c-5.23-3.426-4.498-12.45 1.439-17.341 2.301-1.961 4.943-3.06 7.873-3.06 2.98 0 5.596 1.177 7.244 3.766 3.844 5.911-.34 13.574-6.252 16.635h5.885l-11.689 42.867H147.49zM16.246 67.378H9.001l6.905-25.318h41.926l-6.826 25.318h-7.323l-7.716 28.299H8.504l7.742-28.299zm8.082-6.172l-7.716 28.273h14.646l7.716-28.273h7.297l3.504-12.973H20.64l-3.557 12.973h7.245z"/><path d="M62.383 52.81c3.479-1.596 6.983-2.433 10.566-2.433 6.146 0 9.259 2.066 13.836 5.649L71.877 73.603l-4.159.523c.157 0 .288.052.393.131-.34.131-.732.34-.837.706l-5.649 20.714h-23.2L50.116 52.81h12.267zm1.386 6.172h-8.945l-8.317 30.497h10.41c.994-3.688 2.171-21.395 11.194-21.395h.34l9.128-10.75c-1.36-.497-2.903-.758-4.629-.758-3.348 0-6.2.968-9.181 2.406z"/><path d="M100.516 53.098l.342-.104c2.092-.707 5.492-1.125 8.578.863 12.842 10.017 5.648 28.666-4.84 37.375-5.387 4.472-11.324 6.853-17.758 6.853-6.512 0-11.743-2.459-15.065-7.637-7.271-10.985-.418-25.71 8.579-33.191 2.981-2.511 6.172-4.341 9.547-5.492l.313-.131c5.23-2.119 8.056-1.178 10.304 1.464zm-8.631 4.498c-2.563.889-5.1 2.328-7.585 4.394-6.486 5.414-12.79 16.922-7.35 25.082 2.014 3.139 5.127 4.839 9.887 4.839 4.786 0 9.363-1.726 13.809-5.44 7.088-5.885 14.387-20.166 5.232-27.567-1.414-.811-3.348-.079-4.656.628-.34.183-.523.314-5.335-2.328-2.955-.916-4.002.392-4.002.392z"/><path d="M134.596 73.733c.158.104.289.236.393.393.156 0 .262.078.367.131a2.365 2.365 0 0 0-.42.261c-.287.209-.391.419-.418.523-.184-.079-.627-.549-.732-.707.314-.261.627-.706.68-.915.052.079.104.21.13.314zm6.015-1.072c.314 2.328-.889 4.708-2.668 6.199-1.203 1.02-2.693 1.595-4.289 1.595-1.883 0-3.4-.732-4.525-2.275-1.674-2.903-.68-6.382 1.885-8.422 1.229-1.046 2.719-1.674 4.342-1.674 1.805 0 3.426.785 4.393 2.354.444.654.731 1.413.862 2.223zm-10.435 33.74H102.74l14.619-53.591h12.137c3.504-1.596 7.088-2.433 10.697-2.433 22.65 0 22.336 26.939 7.141 40.278-4.551 3.923-9.494 6.381-14.805 7.193l-2.353 8.553zm-4.707-6.172l2.223-8.187c6.461-.393 10.514-1.648 15.562-6.016 6.328-5.571 12.109-16.608 6.773-24.716-2.014-3.086-5.1-4.734-9.834-4.734-3.348 0-6.33.968-9.311 2.406h-8.789l-11.271 41.246h14.647v.001z"/><path d="M155.572 89.479h10.41l8.344-30.497h-10.41l-8.344 30.497zm16.033-49.276c-1.701 1.413-3.768 4.604-2.354 6.879.34.523.811.889 2.014.889 2.955 0 5.807-2.825 6.539-5.545.391-1.412.156-2.275-.236-2.903-.34-.523-.838-.941-2.039-.941-1.256 0-2.537.471-3.924 1.621z"/><path fill="#e2982f" d="M12.558 92.591l7.716-28.299h-7.219l5.231-19.146h35.518l-5.152 19.146h-7.324l-7.715 28.299H12.558zM52.47 55.896h10.593c3.321-1.622 6.617-2.406 9.886-2.406 3.688 0 6.827.994 9.416 2.981L69.523 71.615c-.392-.314-.889-.445-1.412-.445-.837 0-1.622.288-2.354.863-.759.602-1.229 1.308-1.465 2.118L59.271 92.59H42.453L52.47 55.896z"/><path d="M72.714 74.23c1.542-5.702 4.76-10.566 9.625-14.621 2.72-2.275 4.943-3.583 7.899-4.603l.418-.157s6.67-2.38 7.951.994c0 0 .287.68.287 1.491 0 0 4.865-3.452 8.762-.968a13.5 13.5 0 0 1 2.955 3.243c2.695 4.106 3.244 8.971 1.701 14.621s-4.76 10.54-9.678 14.621c-4.916 4.08-10.174 6.146-15.797 6.146-5.649 0-9.808-2.066-12.476-6.225-2.667-4.001-3.216-8.839-1.647-14.542zM137.447 74.23c.234-.837.131-1.517-.287-2.118-.367-.628-.969-.942-1.805-.942-.811 0-1.623.314-2.381.942-.732.602-1.229 1.281-1.439 2.118-.234.889-.182 1.648.184 2.275.418.576 1.072.863 1.936.863.838 0 1.596-.288 2.303-.863.757-.627 1.253-1.385 1.489-2.275zm-7.349 20.768l-2.275 8.317h-21.055l12.973-47.418h10.436c3.375-1.622 6.695-2.406 10.018-2.406 5.598 0 9.756 2.04 12.424 6.12 2.693 4.106 3.27 8.971 1.727 14.621-1.492 5.414-4.5 10.122-9.051 14.098-4.736 4.105-9.783 6.327-15.197 6.668zM168.336 92.591h-16.791l10.018-36.695h16.791l-10.018 36.695zm-2.301-49.354c.574-2.093 1.777-3.897 3.582-5.388 1.857-1.569 3.818-2.354 5.912-2.354 2.092 0 3.635.785 4.629 2.354.994 1.491 1.203 3.295.627 5.388-.574 2.092-1.777 3.923-3.609 5.492-1.83 1.569-3.793 2.328-5.91 2.328-2.094 0-3.637-.759-4.604-2.328-.994-1.569-1.203-3.399-.627-5.492z" fill="#e2982f"/><path d="M70.779 103.707c.444-.053.889-.104 1.281-.235.418-.104.759-.184 1.072-.184.393 0 .785.053 1.125.131l-17.628 37.898c.052 0 .654-.078 1.804-.209a98.46 98.46 0 0 1 3.897-.418c1.438-.132 3.243-.236 5.44-.341 2.223-.131 4.995-.183 8.291-.183.444 1.568.706 2.668.863 3.321.131.654.209 1.569.209 2.72-.916.236-2.04.471-3.348.681a99.172 99.172 0 0 1-4.865.575 93.13 93.13 0 0 1-5.388.418 96.775 96.775 0 0 1-4.734.105c-3.845 0-6.931-.21-9.285-.654-.366-1.02-.758-1.647-1.203-1.856.052-.472 1.02-3.165 2.956-8.082 1.936-4.892 4.185-10.069 6.722-15.483 2.511-5.414 5.048-10.175 7.611-14.229.313-.523.627-1.02.915-1.491.314-.497.654-1.072 1.072-1.752.314-.079.654-.157.994-.262.34-.131.706-.209 1.098-.288.421-.077.786-.156 1.101-.182zM94.893 115.843c-.523-.732-.785-1.622-.785-2.694 0-1.177.314-2.275.942-3.321.653-1.02 1.465-1.727 2.458-2.092l.969-.132c1.621.288 2.459 1.178 2.459 2.694 0 .811-.262 1.674-.76 2.59-.496.915-1.123 1.699-1.908 2.301-.785.628-1.517.942-2.25.942-.366 0-.732-.105-1.125-.288zm-4.551 18.36c-.602 1.438-1.072 2.59-1.412 3.4-.314.811-.707 1.883-1.229 3.19a67.148 67.148 0 0 1-1.569 3.871c-.549 1.309-1.02 2.433-1.465 3.374-.262.079-.444.131-.549.131-.523 0-1.098-.235-1.752-.68a10.137 10.137 0 0 1-1.543-1.334c-1.491-.732-2.249-1.596-2.249-2.537 1.621-3.4 3.688-7.454 6.225-12.214.863-1.675 1.857-3.453 2.929-5.414 1.099-1.936 1.962-3.4 2.616-4.395.628-1.02 1.072-1.596 1.308-1.752a.965.965 0 0 1 .602-.184c.209 0 .523.079.889.209.366.131.654.21.837.236.235 0 .575-.079.994-.236.418-.183.785-.261 1.046-.261.314 0 .576.131.758.444-.313.628-.863 1.805-1.647 3.531-.811 1.674-1.7 3.609-2.668 5.754-.944 2.147-1.676 3.768-2.121 4.867zM120.969 118.693c.314 0 .812-.052 1.465-.209.654-.131 1.125-.183 1.412-.183.314 0 .551.078.707.235-.262.68-1.334 3.034-3.27 6.983a963.776 963.776 0 0 1-5.518 11.324c-1.754 3.558-2.826 5.649-3.191 6.251-.498.89-1.361 2.721-2.643 5.519-1.229 2.799-2.17 4.812-2.799 6.095-.602 1.281-1.385 2.746-2.379 4.394s-1.883 2.772-2.668 3.348c-.889.681-1.936.994-3.139.994-1.309 0-2.642-.366-4.002-1.15-1.36-.759-2.485-1.727-3.348-2.93-.889-1.15-1.334-2.302-1.334-3.374 0-1.15.497-2.093 1.438-2.799.418-.13.811-.183 1.204-.183 1.124 0 2.066.497 2.851 1.465.811.993 1.517 2.327 2.171 4.027 1.674-2.145 3.217-4.786 4.654-7.951.654-1.359 1.256-2.615 1.805-3.688.602-1.099 1.281-2.459 2.066-4.054-1.334 1.569-2.824 2.903-4.498 3.976s-3.244 1.621-4.707 1.621a4.537 4.537 0 0 1-2.015-.471c-.627-.34-1.177-.863-1.7-1.569-.471-.732-.863-1.647-1.177-2.799 0-1.359.288-3.112.89-5.283.602-2.196 1.674-4.551 3.19-7.088 1.544-2.562 3.714-5.021 6.539-7.401 2.799-2.354 6.303-4.264 10.463-5.728.68 0 1.543.078 2.588.235 1.074.13 1.648.444 1.779.941.053 0 .236-.184.523-.576.34-.392.602-.705.811-.967.393 0 .758.156 1.098.471.341.315.577.498.734.524zm-9.258 5.703c-1.49.575-3.27 1.805-5.361 3.688a35.398 35.398 0 0 0-5.363 6.225c-1.516 2.25-2.275 4.186-2.275 5.754 0 .681.131 1.229.393 1.648.838 0 2.119-.68 3.846-2.066 1.727-1.386 3.582-3.164 5.57-5.31 1.988-2.145 3.637-4.106 4.891-5.937 1.256-1.857 1.883-3.217 1.883-4.133 0-.262-.025-.471-.104-.602-.156-.157-.393-.235-.732-.235a2.34 2.34 0 0 0-.889.183 5.348 5.348 0 0 0-1.15.471c-.422.183-.656.287-.709.314zM141.867 100.673c.68 0 1.047.078 1.047.235.131.053.182.21.182.444 0 .812-.574 2.459-1.777 4.943-1.15 2.485-2.746 5.676-4.76 9.6-2.041 3.923-3.088 6.041-3.139 6.381.418-.234 1.254-.811 2.562-1.699 1.309-.916 2.406-1.543 3.295-1.962a6.373 6.373 0 0 1 2.695-.602c1.385 0 2.719.55 4.053 1.647.76.654 1.15 1.518 1.15 2.563 0 .784-.156 1.596-.443 2.433s-.629 1.752-1.072 2.746a90.205 90.205 0 0 0-1.492 3.321c-2.797 7.088-5.283 12.895-7.428 17.394a2.91 2.91 0 0 1-.889-.131c-.262-.079-.523-.21-.811-.366a5.182 5.182 0 0 1-.629-.419c-.104-.104-.287-.262-.521-.471-.838-.418-1.465-.811-1.857-1.15-.418-.366-.654-.759-.707-1.229.236-.602.654-1.647 1.283-3.165a110.908 110.908 0 0 1 2.014-4.603 112.323 112.323 0 0 1 1.725-3.871c.523-1.125.994-2.119 1.439-3.034.471-.941.941-1.909 1.412-2.93.496-1.02.969-2.065 1.465-3.139-2.354.497-4.316 1.387-5.859 2.668-1.568 1.281-2.928 2.903-4.053 4.812-1.15 1.936-2.564 4.761-4.264 8.5-1.727 3.74-3.139 6.67-4.236 8.814-.602 0-1.1-.131-1.518-.366-.393-.209-.732-.497-.994-.811s-.523-.575-.732-.837c-.393-.288-.836-.575-1.281-.89-.445-.313-.732-.68-.838-1.15.629-1.308 1.412-3.086 2.381-5.335.994-2.276 1.91-4.368 2.771-6.278a212.482 212.482 0 0 1 2.225-4.917 177.948 177.948 0 0 1 1.855-3.792c.682-1.36 1.857-3.871 3.559-7.507 1.752-3.661 3.008-6.329 3.791-7.977a189.195 189.195 0 0 1 2.59-5.074c.889-1.727 1.465-2.642 1.648-2.746.025-.026.078-.131.156-.262.078-.157.184-.288.314-.393a.453.453 0 0 1 .365-.183c.289 0 .549.183.811.549.289.393.576.575.863.575.158 0 .42-.052.76-.156.34-.127.653-.18.889-.18zM168.361 115.555c-.025 0 1.047-.052 3.217-.156 2.172-.104 3.871-.21 5.102-.262 0 .209-.053.444-.078.706-.027.262-.131.575-.314.941-.184.34-.418.628-.732.863a.946.946 0 0 0-.287.706c0 .157.025.288.025.444.025.105.025.262.025.445 0 .313-.104.602-.312.863-2.066.078-3.949.209-5.676.444-1.701.183-2.904.34-3.584.497-.287.549-.836 1.596-1.621 3.139s-1.83 3.557-3.139 6.094c-1.281 2.537-2.668 5.283-4.133 8.265s-3.164 6.46-5.074 10.462c-.234.079-.393.131-.496.131-.418 0-.785-.184-1.072-.549-.314-.366-.576-.812-.863-1.36-.262-.55-.445-.863-.523-.968-.156-.235-.627-.366-1.438-.366-.785 0-1.23-.209-1.361-.654a140.95 140.95 0 0 1 2.59-5.623 229.524 229.524 0 0 1 2.799-5.31c1.072-1.883 2.145-3.818 3.27-5.779a392.93 392.93 0 0 0 4.133-7.429c-.236 0-2.668.21-7.299.654-.549 0-.811-.079-.811-.288 0-.078.131-.392.42-.889.312-.523.469-.968.469-1.334a10.09 10.09 0 0 0-.418-.759c-.209-.393-.312-.68-.312-.837 0-.314.156-.654.471-1.02a42.417 42.417 0 0 1 5.518-.707 48.21 48.21 0 0 0 5.021-.496c.158-.288.393-.654.629-1.125.262-.471.705-1.281 1.385-2.459.682-1.15 1.152-1.961 1.387-2.38a73.691 73.691 0 0 0 1.805-3.034 97.676 97.676 0 0 0 1.465-2.668c.471-.234 1.02-.392 1.648-.496.602-.079.994-.157 1.15-.209.602 0 1.15.104 1.727.313.574.157.994.418 1.229.784-.418.732-.967 1.778-1.699 3.165-.707 1.386-1.465 2.824-2.225 4.289-.734 1.494-1.389 2.801-2.018 3.952z"/><path d="M99.732 55.661s2.432-6.225-1.23-7.689c0 0-6.224-3.923-2.144-7.219 0 0 7.115-5.309 17.916-.104 0 0 7.664 2.929 15.588 3.165 0 0-7.793-.602-14.568-5.205 0 0-6.406-5.728-18.961-.863 0 0 10.2-7.977 20.192-4.08 0 0 2.746 1.099 6.721 4.577 0 0 9.992 7.584 37.506 5.623 0 0-27.41 6.486-49.223 1.465 0 0-4.367-1.386-5.492.994 0 0-.393 1.151-.105 1.831 0 0 1.334 3.792-4.785 6.722l-1.415.783z" fill="#88bc50"/></g></svg>