<svg xmlns="http://www.w3.org/2000/svg" width="2500" height="2500" viewBox="0 0 192.756 192.756"><g fill-rule="evenodd" clip-rule="evenodd"><path fill="#fff" d="M0 0h192.756v192.756H0V0z"/><path d="M124.852 100.873c0 10.9-25.885 19.893-58.038 19.893-32.152 0-58.31-8.992-58.31-19.893 0-10.625 26.158-19.618 58.31-19.618 32.153 0 58.038 8.993 58.038 19.618z" fill="#3884bd"/><path d="M89.43 106.324c-1.635 0-2.18-1.09-2.18-2.453v-7.084h-1.635v-1.09h1.635v-2.18h1.635v2.18h1.908v1.09h-1.908v6.539c0 1.363.272 1.635 1.09 1.635h.817v1.363H89.43zM116.678 106.324c-1.635 0-2.18-1.09-2.18-2.453v-7.084h-1.635v-1.09h1.635v-2.18h1.635v2.18h2.18v1.09h-2.18v6.539c0 1.363.271 1.635 1.361 1.635h.818v1.363h-1.634zM96.242 97.332c-1.362 0-2.452 1.09-2.452 3.27v5.723h-1.635V95.697h1.635v1.635c.545-1.363 1.635-1.908 2.997-1.908v1.908h-.545zM103.871 106.324v-1.635h-.271c-.547 1.361-1.363 1.635-2.453 1.635-1.908 0-3.27-.818-3.27-3.27v-7.358h1.908v6.813c0 1.635.543 2.451 1.635 2.451 1.361 0 2.18-1.09 2.18-2.998v-6.266h1.906v10.627h-1.635v.001zM109.594 106.324c-1.09 0-2.18 0-2.725-.545v-1.635c.816.545 1.635.816 2.451.816 1.363 0 2.18-.545 2.18-1.361 0-2.453-4.631-1.637-4.631-4.904 0-1.908 1.361-3.271 3.27-3.271.816 0 1.635.272 2.18.545v1.363c-.545-.273-1.363-.273-2.18-.273-1.09 0-1.635.545-1.635 1.363 0 2.18 4.631 1.635 4.631 4.904 0 1.635-1.362 2.998-3.541 2.998z" fill="#fff"/><path fill="#c9322d" d="M150.193 89.43v26.158l34.059-43.597-29.154 29.155-4.905-11.716z"/><path fill="#0c0e0f" d="M160.547 104.689l-2.18 2.997 5.449 7.084h4.36l-7.629-10.081zM131.664 91.882v14.713c0 2.18-.545 6.268 4.088 6.268 1.635 0 5.994-1.09 5.994-8.174V91.882h2.996v22.616h-2.725v-3.814c-.816 1.635-2.996 4.359-7.084 4.359-4.633 0-7.084-3.27-7.084-7.902V91.882h3.815z"/></g></svg>