<svg xmlns="http://www.w3.org/2000/svg" width="2500" height="2500" viewBox="0 0 192.756 192.756"><path fill-rule="evenodd" clip-rule="evenodd" fill="#fff" d="M0 0h192.756v192.756H0V0z"/><path d="M62.082 94.295s-.834-2.5-.5-4.5c.834-7.833 5.507-9.499 8.845-9.666 3.505-.167 4.673 1.167 4.673 1.167v-6.5c.334-1.667-.834-3.167-.834-3.167h5.007c.834 0 3.171-.333 3.171-.333s-.167 26.498.167 27.332c.167.998 1.335 2.666 1.335 2.666h-8.845V86.962c0-2-2.503-2.167-2.837-2.167s-3.004.5-3.171 5.666c-.167 6.833 5.507 6.667 5.507 6.667s-2.002 4.332-2.169 4.332c-8.681-.165-10.349-7.165-10.349-7.165z" fill-rule="evenodd" clip-rule="evenodd"/><path fill="none" stroke="#000" stroke-width=".481" stroke-miterlimit="2.613" d="M17.354 109.461h169.564"/><path d="M18.689 121.125c0 1.5 0 1.834-.834 1.834h-.5c-.167.166-.167.334 0 .5.834-.166 1.335-.166 2.002-.166h1.335c1.169 0 2.504 0 3.839.166.167-.5.5-1.666.667-2.166 0 0-.333-.168-.333 0-.334.666-.834 1.166-1.001 1.332-.334.168-.834.334-2.002.334-1.169 0-1.502-.166-1.669-.334a3.315 3.315 0 0 1-.333-1.5v-2.166c0-.332.167-.332.5-.332h2.002c.333.166.333.332.5.666v.5c.167.166.334.166.5 0 0-.334-.167-.834-.167-1.334 0-.666.167-1.166.167-1.5-.167-.166-.333-.166-.5 0v.5c-.167.334-.167.5-.334.5-.167.168-.667.168-1.335.168h-.834c-.334 0-.5 0-.5-.5v-2.834c0-.5 0-.666.5-.666h1.001c.667 0 1.168.166 1.502.166.667.166.834.666 1.001 1.334.167.166.333.166.333 0 0-.668 0-1.668-.167-1.834H17.687c-.167 0-.167.166-.167.334h.334c.834 0 .834.332.834 1.832v5.166h.001zM29.872 121.793c0 1 0 1.166-.501 1.166h-.334v.5c.501-.166.835-.166 1.502-.166.501 0 .835 0 1.168.166.167-.166.167-.334.167-.5h-.333c-.501 0-.501-.166-.501-1.166v-2.334c0-.334 0-.666.167-.832.167-.334.667-.5 1.168-.5 1.001 0 1.501.666 1.501 1.498v2.168c0 1 0 1.166-.667 1.166h-.167c-.167.166-.167.334 0 .5.333-.166.834-.166 1.335-.166s1.001 0 1.335.166c.167-.166.167-.334 0-.5h-.334c-.5 0-.5-.166-.5-1.166v-2.5c0-1-.501-1.834-1.669-1.834-.834 0-1.502.334-2.002.668-.167 0-.167 0-.167-.168v-.666h-.167c-.334.166-1.168.5-1.502.666v.168l.167.166c.334.166.334.334.334.832v2.668zM43.39 118.293c.167-.166.167-.5 0-.666h-1.669c-.167 0-.333 0-.333-.334v-.666h-.168c-.167.332-.501.666-.668.832-.167.168-.5.334-1.001.5 0 0 0 .168.167.334h.333c.333 0 .333 0 .333.334v3.332c0 .834.167 1.666 1.502 1.666.667 0 1.335-.5 1.502-.832 0 0 0-.168-.167-.168 0 0-.167.168-.334.168s-.167.166-.333.166c-1.001 0-1.168-.834-1.168-1.666v-2.666c0-.334 0-.334.333-.334h1.671zM51.734 119.625c.5 0 .834 0 .834-.166v-.334c0-.832-.834-1.666-2.003-1.666-1.836 0-3.004 1.5-3.004 3.168 0 .666.167 1.332.667 1.998.333.5 1.168 1 2.169 1 .668 0 1.669-.5 2.17-1.5 0 0 0-.166-.167-.166-.501.666-.834.834-1.335.834-1.669 0-2.504-1.334-2.504-2.834 0-.334 0-.334.501-.334h2.672zm-2.837-.5h-.167c0-.498.835-1.332 1.669-1.332.834 0 1.168.5 1.168 1 0 .166-.167.166-.167.332h-2.503zM57.743 121.793c0 1 0 1.166-.501 1.166h-.334c0 .166 0 .334.167.5.334-.166.834-.166 1.335-.166s.835 0 1.502.166c.167-.166.167-.334.167-.5h-.667c-.501 0-.501-.166-.501-1.166v-2c0-.5 0-1 .167-1.166.167-.168.334-.334.5-.334.167 0 .501.166.667.334h.334c.167 0 .667-.168.667-.668 0-.332-.334-.5-.667-.5-.5 0-1.168.334-1.669.834v-1h-.167c-.334.166-1.168.5-1.502.666v.168l.167.166c.334.166.334.334.334.832v2.668h.001zM66.087 125.459c0 1 0 1.166-.5 1.166l-.334.166v.334h3.004c.167 0 .167-.334 0-.334l-.5-.166c-.501 0-.501-.166-.501-1.166v-1.5c0-.334 0-.5.167-.5s.5.166.834.166c2.003 0 3.505-1.5 3.505-3.5 0-1.498-1.001-2.666-2.336-2.666-1.001 0-2.002.5-2.169.668v-.168-.666c0-.166-.167-.166-.167-.166-.334.332-1.168.666-1.502.832v.168l.167.166c.333.166.333.334.333.832v6.334h-.001zm1.168-6c0-.5 0-.832.167-1 .167-.166.5-.332 1.168-.332 1.335 0 2.003 1.166 2.003 2.332 0 1.5-.667 2.666-1.836 2.666-.334 0-.834-.166-1.168-.332-.167-.334-.334-.5-.334-1v-2.334zM77.269 121.793c0 1 0 1.166-.668 1.166h-.167c-.167.166-.167.334 0 .5.334-.166.835-.166 1.335-.166s1.001 0 1.669.166v-.5h-.5c-.668 0-.668-.166-.668-1.166v-2c0-.5 0-1 .167-1.166.167-.168.334-.334.667-.334.167 0 .334.166.501.334h.333c.334 0 .667-.168.667-.668 0-.332-.333-.5-.667-.5-.5 0-1.001.334-1.669.834v-1c-.5.166-1.168.5-1.502.666-.167 0-.167.168 0 .168v.166c.501.166.501.334.501.832v2.668h.001zM85.78 121.793c0 1 0 1.166-.667 1.166h-.167c-.167.166-.167.334 0 .5.334-.166.834-.166 1.335-.166s1.002 0 1.335.166c.167-.166.167-.334 0-.5h-.167c-.667 0-.667-.166-.667-1.166v-2.668c0-.666 0-1.332.167-1.832h-.167c-.334.166-1.168.5-1.502.666-.167 0-.167.168 0 .168v.166c.5.166.5.334.5.832v2.668zm.501-8c-.5 0-.834.166-.834.666s.333.668.667.668c.501 0 .835-.168.835-.668 0-.332-.334-.666-.668-.666zM94.292 117.459c-1.168 0-2.002.5-2.002 1.666 0 .668.667 1.334 1.502 1.668.5.332 1.168.666 1.168 1.332 0 .668-.501 1-1.001 1-.834 0-1.335-.666-1.669-1.5 0-.166-.167 0-.333 0 0 .5.167 1.168.167 1.5.5.334 1.001.5 1.668.5 1.001 0 2.003-.666 2.003-1.666 0-1.166-.667-1.666-1.502-2-.5-.334-1.001-.666-1.001-1.166 0-.666.333-1 .834-1 .667 0 1.168.5 1.335 1.166 0 0 .333 0 .333-.166 0-.334-.167-.834-.167-1.166-.167 0-.668-.168-1.335-.168zM104.473 119.625c.668 0 .834 0 1-.166v-.334c0-.832-.834-1.666-2.002-1.666-1.836 0-3.004 1.5-3.004 3.168 0 .666.166 1.332.668 1.998.334.5 1.168 1 2.002 1 .836 0 1.836-.5 2.336-1.5 0 0-.166-.166-.332-.166-.334.666-.836.834-1.336.834-1.502 0-2.336-1.334-2.336-2.834 0-.334 0-.334.334-.334h2.67zm-2.67-.5h-.168c0-.498.668-1.332 1.67-1.332.834 0 1 .5 1 1v.332h-2.502zM123.332 120.959c0-1.5-.836-2.332-1.836-2.832l-1.168-.834c-.502-.334-1.17-.834-1.17-1.666 0-.668.334-1.668 1.67-1.668 1.502 0 1.836 1 2.002 1.668h.334c0-.668-.166-1.5-.166-1.834h-.502c-.5-.166-1-.332-1.502-.332-1.836 0-2.836 1.166-2.836 2.498 0 1.334.834 2 1.502 2.5l1.334 1c1.168.666 1.336 1.334 1.336 2 0 .834-.668 1.666-1.836 1.666-1.67 0-2.336-1.5-2.504-2.166-.166-.166-.334 0-.334 0 0 .666.168 1.834.334 2 .334.166 1.002.666 2.338.666 1.834 0 3.004-1.166 3.004-2.666zM130.008 117.459c-1.67 0-3.006 1.334-3.006 3.168a2.99 2.99 0 0 0 3.006 2.998c1.668 0 3.004-1.332 3.004-3.166 0-1.832-1.336-3-3.004-3zm1.668 3.168c0 1.166-.334 2.498-1.668 2.498-1.17 0-1.836-1.5-1.836-2.832 0-1.5.666-2.5 1.668-2.5 1.502 0 1.836 1.666 1.836 2.834zM140.188 118.293c.166-.166.166-.5 0-.666h-1.67c-.166 0-.166 0-.166-.334v-.5c0-.666 0-1.834.334-2.5.166-.5.5-.832 1.002-.832.5 0 .834.332 1.168.666.166.166.166.166.334.166.334 0 .5-.166.5-.5 0-.5-.5-.832-1.336-.832-1.502 0-2.336.998-2.67 1.832s-.5 1.666-.5 2.5c0 .166 0 .334-.168.334l-.666.332s0 .168.166.334h.5c.168 0 .168 0 .168.334v3.166c0 1 0 1.166-.5 1.166h-.334v.5c.5-.166 1-.166 1.502-.166.5 0 .834 0 1.502.166.166-.166.166-.334 0-.5h-.502c-.5 0-.5-.166-.5-1.166v-3.166c0-.334 0-.334.166-.334h1.67zM147.865 118.293c.166-.166.166-.5 0-.666h-1.67c-.166 0-.166 0-.166-.334v-.666h-.334c-.168.332-.334.666-.668.832 0 .168-.5.334-.834.5-.168 0 0 .168 0 .334h.5c.168 0 .168 0 .168.334v3.332c0 .834.332 1.666 1.502 1.666.834 0 1.334-.5 1.668-.832l-.166-.168c-.168 0-.334.168-.502.168 0 0-.166.166-.334.166-1 0-1-.834-1-1.666v-2.666c0-.334 0-.334.166-.334h1.67zM153.539 122.293c0 .332.334 1 .334 1.166l.166.166c.168 0 .168 0 .168-.166.166-.334.334-.834.666-1.5l.668-1.666c.168-.334.334-.834.334-.834s.334.5.334.834l.668 1.666c.334.5.668 1.334.668 1.5s.166.166.166.166.168 0 .168-.166c.166-.334.334-.666.5-1.334.334-.666 1.002-2.332 1.334-3.166.334-.666.502-.832.836-1h.334c0-.166 0-.332-.168-.332h-2.002c-.168 0-.168.166 0 .332h.334c.166 0 .334.168.334.168 0 .166-.168.332-.168.666-.334.666-.834 2.166-1 2.5-.168.332-.168.5-.168.5-.166 0-.166-.168-.334-.5-.166-.334-.834-2.168-1.002-2.666-.166-.5-.166-.5.334-.668h.334v-.332h-2.67c-.166 0-.166.166 0 .332h.166c.334.168.668.168.668.5.168.168.168.334 0 .834l-.834 1.832c-.166.334-.166.668-.334.668 0 0-.166-.334-.166-.668l-1.002-2.166c-.166-.332-.166-.666-.166-.832 0 0 .166-.168.332-.168h.334v-.332h-2.67v.332h.168c.5.168.666.334 1 1l1.336 3.334zM165.389 120.959c-1.002.334-1.336.666-1.336 1.166s.168.834.5 1.168c.334.166.668.332 1.002.332.5 0 .834-.332 1.002-.5.334-.166.5-.166.668-.166 0 0 .166 0 .166.166.334.334.668.5 1.002.5.668 0 1.168-.666 1.168-.666v-.166h-.166c-.168 0-.334.166-.502.166-.5 0-.668-.666-.668-1.334l.168-2.5c0-1.166-.5-1.666-1.502-1.666-1.168 0-2.67 1-2.67 1.666 0 .168 0 .334.166.334s.5-.166.834-.334c0 0 .168-.332.168-.498 0-.5.5-.668.834-.668 1.002 0 1.168.668 1.168 1.334l-.166.666c0 .166 0 .334-.168.334l-1.668.666zm-.168 1c0-.5.502-.666 1.336-1 .166-.166.5-.166.5-.166.168 0 .168 0 .168.166v.834c0 .332 0 .5-.168.666-.166.166-.668.5-.834.5-.834 0-1.002-.666-1.002-1zM174.4 121.793c0 1 0 1.166-.5 1.166h-.334v.5c.5-.166.834-.166 1.502-.166.5 0 .834 0 1.502.166.166-.166.166-.334 0-.5h-.502c-.5 0-.5-.166-.5-1.166v-2c0-.5 0-1 .168-1.166.166-.168.332-.334.5-.334.166 0 .5.166.668.334h.334c.166 0 .5-.168.5-.668 0-.332-.166-.5-.5-.5-.668 0-1.17.334-1.67.834v-1h-.166c-.334.166-1.168.5-1.502.666v.168l.166.166c.334.166.334.334.334.832v2.668zM185.75 119.625c.666 0 .834 0 1-.166v-.334c0-.832-.834-1.666-2.002-1.666-1.836 0-3.004 1.5-3.004 3.168 0 .666.166 1.332.668 1.998.332.5 1.168 1 2.002 1s1.836-.5 2.336-1.5c0 0-.166-.166-.334-.166-.334.666-.834.834-1.334.834-1.502 0-2.338-1.334-2.338-2.834 0-.334 0-.334.334-.334h2.672zm-2.672-.5h-.166c0-.498.668-1.332 1.668-1.332.836 0 1.002.5 1.002 1v.332h-2.504z" fill-rule="evenodd" clip-rule="evenodd"/><path d="M185.416 78.463c0-1.167 1-2.167 2.168-2.167 1.336 0 2.338 1 2.338 2.167 0 1.166-1.002 2.166-2.338 2.166-1.168 0-2.168-1-2.168-2.166z" fill="none" stroke="#000" stroke-width=".542" stroke-miterlimit="2.613"/><path d="M187.084 77.63v.667h1.002c0-.167.166-.167.166-.333 0-.167-.166-.333-.166-.333h-1.002v-.001zm1.168-.334c.168 0 .168 0 .334.167v.167c.168 0 .168.167.168.333 0 0 0 .167-.168.333 0 0-.166.167-.334.167.168 0 .334.167.334.167V79.464l.168.167v.167h-.668v-.167-.501-.333c-.168 0-.168-.167-.334-.167h-.668v1.167h-.5V77.13h1.334c.168 0 .334 0 .334.166zM42.889 86.962c0 8.166-7.176 14.665-12.517 14.665H16.687s1.502-1.5 1.502-4.332V85.796h7.176v10.166s9.68 3.5 9.68-9.666c0-12.499-9.68-9-9.68-9v8.5h-7.176V76.63c.167-4.167-1.335-4.667-1.335-4.667h13.518c6.843 0 12.517 5.667 12.517 14.999z" fill-rule="evenodd" clip-rule="evenodd"/><path d="M59.745 101.295H42.388c1.836-2 2.003-4 2.003-4V69.297c-.167-2.333-1.669-3.667-1.669-3.667h16.021v6c-1.335-1.833-2.837-1.5-2.837-1.5H51.9v6.666h6.843s.167 6.166 0 6.166c-1.502-1.333-2.503-1.166-2.503-1.166h-4.339v13.832c1.502.667 1.335.667 2.837.833 3.838.168 6.509-2.166 6.509-2.166l-1.502 7zM107.477 101.295l-3.004-1.168c-2.002-.666-3.004-2.998-3.004-2.998l-2.336-6.333-3.672 10.5-2.67-.834c-2.336-.666-3.004-2.666-3.004-2.666l-7.009-17.832s5.174.167 5.841 0c1.836-.167 2.336-.5 2.336-.5l3.671 10.999s2.003-5.333 2.337-6.5c.334-1.166-.167-2-.167-2l-1.335-2h7.844c.668.667 1.168 2.667 1.168 2.667l2.67 7.999s2.17-6.833 2.504-7.499.166-1.333.166-1.333l-1.168-1.833h6.842l-8.01 21.331zM131.51 101.295c-8.68.5-8.68-5.333-8.68-5.333v-4.666s-3.338 1.333-3.672 3.166c-.5 3.333 3.506 3 3.506 3l-2.004 3.834c-11.014 1-9.346-8-9.346-8 1.002-3.833 5.342-4.833 7.01-5.167 1.67-.5 4.34-.667 4.172-2.167-.166-1.5-.834-1.5-2.67-1.667-1.334 0-5.006 1.167-5.006 1.167l1.836-4.833c4.506-.667 4.672-.667 7.176-.667 6.176.167 6.176 5.833 6.176 5.833v7.999c.166 3.666 3.67 3.5 3.67 3.5l-2.168 4.001z" fill-rule="evenodd" clip-rule="evenodd"/><path d="M147.363 86.296s-1.668-.333-3.504-.167c-1.836.167-2.336 2.666-2.336 2.666v9.833c.166 1.998 1.502 2.666 1.502 2.666H132.51c1.67-1.168 1.502-4 1.502-4V83.295c-.166-.5-1.168-2.167-1.168-2.167h5.508c.834 0 3.172-.5 3.172-.5v2.333s1.168-1.166 2.002-1.666c2.17-1.667 3.838-.5 3.838-.5v5.501h-.001zM168.225 98.295c.168 2 1.502 3 1.502 3h-9.178V86.462c-.502-1.333-1.002-1.5-2.504-1.667-1.67 0-3.172 2-3.172 5.5 0 7.166 5.174 6.833 5.174 6.833l-2.168 4.498c-3.006-.166-5.508-.832-8.512-4.166-3.506-3.666-1.502-11.165-1.502-11.165.334-2.167 2.502-4.167 2.67-4.167 5.674-4.333 10.18-.833 10.18-.833v-7c-.166-1.333-.834-2.5-.834-2.5s2.504.166 4.172 0c1.502 0 4.172-.833 4.172-.833v27.333z" fill-rule="evenodd" clip-rule="evenodd"/><path d="M168.893 94.628c3.84 2.5 7.176 2.667 8.178 2.667 3.506-.5 2.504-3 1.168-3.333-.834-.167-3.004-.833-3.672-1.166-3.338-1.5-5.006-2.667-5.006-6.833-.166-4.333 4.34-6.333 8.678-6.333 4.34 0 7.01 1 7.01 1v4.333c-.834-.5-2.504-1.333-4.672-1.5-1.67-.167-2.838.333-2.838 1.5 0 1 .668 1.167 2.67 1.833 2.004.667 6.844 2.333 7.01 6.667.334 7.165-6.176 7.333-9.012 7.833-3.004.666-8.178-1-8.178-1l-1.336-5.668zM15.519 71.963s-1.669.667-1.669 4.667v24.665s.834 6.332-11.015 8.166c0 0 2.503-2.834 3.171-8.5V76.13c0-3.5-1.335-4.167-1.335-4.167h10.848z" fill-rule="evenodd" clip-rule="evenodd"/></svg>