<svg height="-3992" viewBox="85.94816148 246.565 202.45883852 60.50994835" width="2500" xmlns="http://www.w3.org/2000/svg"><path d="m122.176 246.565v11.4a.778.778 0 0 1 -.724.724h-5.787a.778.778 0 0 1 -.724-.724v-11.4m17.907 0v11.4a.778.778 0 0 1 -.724.724h-5.787a.778.778 0 0 1 -.724-.724v-11.4m-20.982 3.256v8.321a.778.778 0 0 1 -.724.724h-17.183c-.362-.182-.724-.363-.724-.724v-8.321m18.631 24.961a.778.778 0 0 1 -.724.724h-17.183a.778.778 0 0 1 -.724-.724v-8.32a.778.778 0 0 1 .724-.724h17.183a.778.778 0 0 1 .724.724v8.321zm183.771 0a.778.778 0 0 1 -.724.724h-36.352a.778.778 0 0 1 -.724-.724v-8.32a.778.778 0 0 1 .724-.724h36.357a.778.778 0 0 1 .724.724z"/><path d="m125.613 263.025h-10.129a.48.48 0 0 0 -.543.543v9.044c0 4.341-.724 9.948-6.512 13.747-6.693 4.522-15.013 4.522-18.993 4.522h-2.893a.48.48 0 0 0 -.543.544v10.128a.48.48 0 0 0 .543.543h3.075c4.7 0 15.737 0 25.323-6.512 7.6-5.065 11.4-12.843 11.4-23.153v-9.044a.94.94 0 0 0 -.728-.362zm11.215-13.204v8.321a.778.778 0 0 0 .724.724h11.033v7.055h-16.1a.778.778 0 0 0 -.724.724v8.321a.778.778 0 0 0 .724.724h16.1v11.212c0 7.6 5.246 13.385 13.2 14.29 3.437.362 9.225 1.085 11.938 1.266a.48.48 0 0 0 .543-.543v-10.13c0-.181-.181-.362-.362-.543h-.181c-3.075-.362-7.959-.9-10.853-1.085-2.351-.362-3.437-1.447-3.437-3.437v-11.214h16.46a.778.778 0 0 0 .724-.724v-8.32a.778.778 0 0 0 -.724-.724h-16.455v-7.054h14.29a.778.778 0 0 0 .724-.724v-8.139m44.858 15.917h-37.8a.778.778 0 0 0 -.724.724v8.321a.778.778 0 0 0 .724.724h13.923c-.543 5.065-2.532 13.2-11.034 16.1-.181 0-.362.181-.362.543v10.31a.48.48 0 0 0 .543.543h.181l.543-.181a26.525 26.525 0 0 0 17.184-12.846 35.008 35.008 0 0 0 3.979-14.471h13.024a.778.778 0 0 0 .724-.724v-8.319a1.2 1.2 0 0 0 -.905-.724zm-36.9-15.917v8.321a.778.778 0 0 0 .724.724h35.091a.778.778 0 0 0 .724-.724v-8.321m27.132 16.46a.48.48 0 0 0 -.543-.543h-9.406c-.181 0-.362.181-.543.362v.181c-.543 2.894-2.894 7.959-6.512 10.672-6.512 4.522-11.938 5.065-15.194 5.065a.48.48 0 0 0 -.543.543v9.044a.48.48 0 0 0 .543.543 35.878 35.878 0 0 0 13.567-2.71v12.476a.778.778 0 0 0 .724.724h9.044a.778.778 0 0 0 .723-.724v-19.176a30.659 30.659 0 0 0 5.065-7.054 22.925 22.925 0 0 0 3.075-9.406z"/><path d="m88.822 246.565h197.522v56.435h-197.522z" fill="none"/></svg>