<svg xmlns="http://www.w3.org/2000/svg" width="2500" height="2500" viewBox="0 0 192.756 192.756"><g fill-rule="evenodd" clip-rule="evenodd"><path fill="#fff" d="M0 0h192.756v192.756H0V0z"/><path d="M75.705 63.875c1.131-3.479 1.653-4.871 2.261-6.698 0-.086-.174-.348-.261-.348-2.087.174-2.609.87-6.958 1.391-.261.261-.261.609-.087.957l1.392.087c.783.435.608 1.305-.261 3.566l-7.219 21.135c-.609 1.74-.783 2.522-.783 3.219 0 .696.608 1.391 2.348 1.565 2.348.348 4.697-1.218 6.437-3.306.086-.521-.261-.782-.783-.782-2.087 1.565-2.087 1.652-3.044 1.652-.609 0-.522-.608-.174-1.739l7.132-20.699zM65.703 63.875c1.218-3.479 1.74-4.871 2.349-6.698 0-.086-.174-.348-.261-.348-2.175.174-2.609.87-7.045 1.391-.261.261-.261.609-.087.957l1.392.087c.783.435.609 1.305-.174 3.566l-7.219 21.135c-.609 1.74-.783 2.522-.783 3.219 0 .696.522 1.391 2.261 1.565 2.436.348 4.784-1.218 6.523-3.306.087-.521-.261-.782-.783-.782-2.174 1.565-2.087 1.652-3.044 1.652-.608 0-.608-.608-.174-1.739l7.045-20.699zM88.143 103.275c-2.696 0-4.958 2.521-6.088 4.523-.087.521.261.869.696.869 1.043-1.217 2.522-2.521 3.479-2.521.435 0 .435.434.261 1.217-1.218 3.914-3.479 10.002-4.436 12.873-.348 1.217 1.13 1.479 2 1.479.782 0 1.304-.174 1.565-.695 1.739-4.176 3.566-8.438 5.219-11.047 1.479-2.348 2.435-3.393 2.957-3.393.435 0 .696.521.87 1.393.174.783.348 1.217.87 1.217 1.392 0 2.349-2.088 2.349-3.479 0-1.217-.609-2.436-2.001-2.436-1.305 0-2.435 1.043-3.827 2.783-1.131 1.393-2.61 3.828-3.914 6.262h-.261l1.479-4.521c.695-2.002 1.13-4.524-1.218-4.524zM108.408 102.928c-2.348 0-5.131 1.217-8.088 3.74-3.48 3.043-5.654 7.74-5.741 11.045 0 2.176 1.131 3.654 3.044 3.654 4.436 0 8.002-4.523 10.525-8.35h.086l-1.393 4c-.434 1.219-.781 2.174-.781 2.871 0 .695.521 1.479 1.564 1.479 3.393 0 5.566-2.088 6.697-4.002 0-.607-.26-.869-.695-.869-1.391 1.74-2.262 1.826-2.871 1.826-.348 0-.434-.348-.348-.695.088-.436.348-1.131.697-2.174.434-1.479 4.609-14.266 6.348-18.875 1.131-3.044 1.654-4.61 2.436-6.784 0-.087-.174-.261-.348-.348-2.088.087-3.219.783-6.609 1.217a.566.566 0 0 0-.174.783l1.043.261c.695.435.695 1.479 0 3.479l-3.131 8.958c-.435-.695-1.392-1.216-2.261-1.216zm.348 1.566c.871 0 1.219 1.303.783 3.043-.609 2.174-2.088 4.871-4.35 7.393-2.348 2.609-5.131 4.35-6 4.35-.348 0-.609-.262-.609-.783 0-.957.783-3.219 2.521-6.176 1.479-2.609 3.914-5.305 5.133-6.436.957-.869 1.827-1.391 2.522-1.391zM119.455 121.367c2.869 0 5.914-1.305 8.262-4.609.088-.436-.26-.871-.695-.871-2 1.826-3.566 2.783-5.131 2.783-1.219 0-1.914-.869-1.914-2.521 0-1.219.174-2.262.348-2.871 4.871-1.305 10.873-3.391 10.873-7.393 0-1.391-1.479-2.957-3.566-2.957-1.652 0-3.74.521-6.09 2.348-4.174 3.131-6.262 8.002-6.262 11.307-.001 2.435 1.218 4.784 4.175 4.784zm7.045-16.873c.521 0 .783.521.783 1.043 0 .695-.523 2.174-1.566 3.305-1.393 1.479-2.783 2.174-5.045 2.957.521-1.564 1.566-3.914 3.131-5.566 1.131-1.217 2.088-1.739 2.697-1.739zM148.592 103.275c-3.74 0-7.74 5.131-10.523 9.045h-.176l2.697-6.783c.348-.957.262-2.262-1.305-2.262-3.045 0-6.176 2.348-7.566 4.609 0 .348.26.695.695.695 1.217-1.129 2.871-2.348 3.74-2.348.521 0 .436.609.174 1.393-.436 1.217-4.436 12.002-4.609 12.611-.348 1.217 1.131 1.479 1.912 1.479.697 0 1.219-.174 1.48-.695 2.174-4.523 4.348-8.525 6.695-11.568 2.002-2.609 3.914-3.914 4.611-3.914.521 0 .607.348.607.695 0 .695-.348 1.826-.695 2.697-1.043 2.521-2.521 6.174-3.652 8.783-.609 1.479-.783 2.088-.783 2.609 0 .609.695 1.393 1.479 1.393 3.393 0 5.479-1.305 6.959-3.74 0-.521-.262-.869-.783-.783-1.219 1.393-1.914 1.479-2.609 1.479-.348 0-.262-.348-.088-.869.697-1.74 2.783-6.523 3.566-8.611.436-1.131.869-2.695.869-3.479 0-1.217-.781-2.436-2.695-2.436zM155.984 121.715c2.871 0 5.914-1.305 8.264-4.609.086-.436-.262-.871-.697-.871-2 1.826-3.564 2.783-5.131 2.783-1.217 0-1.914-.869-1.914-2.521 0-1.219.174-2.174.348-2.871 4.871-1.305 10.873-3.391 10.873-7.393 0-1.391-1.393-2.957-3.566-2.957-1.652 0-3.652.521-6.088 2.348-4.176 3.133-6.262 8.002-6.262 11.309 0 2.434 1.304 4.782 4.173 4.782zm7.045-16.873c.521 0 .783.521.783 1.043 0 .695-.521 2.262-1.566 3.305-1.391 1.479-2.783 2.176-5.043 2.957.521-1.564 1.564-3.826 3.217-5.566 1.045-1.218 2.002-1.739 2.609-1.739zM174.512 103.275c-2.785 0-4.959 2.521-6.09 4.523-.086.521.262.869.697.869 1.043-1.217 2.434-2.521 3.479-2.521.434 0 .434.434.26 1.217-1.305 3.914-3.479 10.002-4.436 12.873-.348 1.217 1.131 1.479 2 1.479.697 0 1.305-.174 1.48-.695 1.826-4.176 3.652-8.438 5.305-11.047 1.393-2.348 2.436-3.393 2.957-3.393.436 0 .695.521.869 1.393.174.783.348 1.217.871 1.217 1.391 0 2.348-2.088 2.348-3.479 0-1.217-.609-2.436-2-2.436-1.305 0-2.436 1.043-3.914 2.783-1.045 1.393-2.523 3.828-3.826 6.262h-.262l1.479-4.521c.695-2.002 1.13-4.524-1.217-4.524zM42.48 87.185c-.957 0-1.565-.957-1.565-2.262 0-3.218 2.348-8.437 4.349-11.133 1.131-1.392 2.088-1.914 2.87-1.914 1.218 0 1.392 1.218 1.392 2.348 0 2.87-2.087 8.089-3.653 10.351-1.306 1.914-2.262 2.61-3.393 2.61zm-5.566-4.175c-.087 3.218 1.739 5.741 5.393 5.741 2 0 4.436-.522 6.958-3.044 2.957-2.784 4.262-6.784 4.262-9.48.087-3.219-1.479-5.915-5.393-5.915-1.913 0-4.088.522-6.61 2.958-2.697 2.434-4.524 6.609-4.61 9.74zM86.49 81.966c-4.61 4.958-7.567 3.914-7.219 2.174.522-2.174 1.566-3.566 2.609-6.349 1.565-4.262 3.044-7.045.957-7.915-2.87-1.044-4.784.348-6.523 2.522-.522.87 0 1.392.522 1.305 1.304-1.218 1.739-1.914 2.609-1.653.87.348 0 1.653-1.74 6.437-1.392 4.088-1.218 3.479-2.087 5.653-.609 2.174.087 3.827 2.609 4.001.957.087 4.784-1.218 7.306-3.74 2.436-2.435.609-1.826.957-2.435z" fill="#0c0e0f"/><path d="M21.78 97.447c4.522-.521 7.219-2.521 9.219-5.827 1.305-2.087 2.174-4.436 2.958-7.132l5.827-18.961c1.392-4.175 3.479-4.697 5.479-5.044l1.044-.261c.435-.174.783-.783.435-1.044-1.652.087-5.479.087-7.567.087s-5.828 0-8.437-.087c-.348.174-.087.522.174.87l1.131.521c2.348.261 4.088 1.218 2.957 4.958l-5.306 17.135c-1.479 4.523-2.435 7.828-2.87 8.523-4.436 7.828-11.742 2.958-13.742-.696-1.305-2.436-1.566-6.262 1.392-10.698 3.044-4.436 11.307-1.391 12.438-1.913 2.261-.957 1.565-1.479-.087-1.827-8.958-2-20.091 2.522-18.091 13.22 1.043 5.742 6.262 8.786 13.046 8.176zM59.527 112.93c.957-2.957.696-6.523 3.305-7.48l1.218-1.305c.435-.26-4.958.871-6.958.871-2.175 0-4.175 1.131-4.175 1.131 3.131 1.826 2.609 3.305 1.218 7.219l-1.218 3.652c-.957 2.783-2.262 3.305-4.958 3.305-4.61 0-9.045-2.174-9.045-8.957 0-4.785 2.348-10.004 5.653-13.221 2.87-2.958 6.872-4.872 11.568-4.872 4.871 0 6.61 1.914 5.915 6.176.174.348 1.217.434 1.479 0 .609-2.002-.174-4.785.783-6.872-1.305-.435-3.044-1.044-7.567-1.044-7.48 0-12.959 2.261-16.874 5.392-4.349 3.48-6.871 8.523-6.871 13.309 0 7.219 4.784 11.828 14.352 11.828 2.174 0 5.131-.436 7.566-1.043.87-.262 2.175-.609 3.218-.871.348-.086.348-.607.261-.781-.696-.262-.609-.871-.174-2.176l1.304-4.261z" fill="#0c0e0f"/><path d="M109.539 75.269s5.219-3.131 4.176-7.567c-.436-1.826-.871-4.522-5.742-5.827-5.131-1.305-8.609 2.349-11.393 5.306-5.393 5.827-7.567 19.917-13.742 26.789-4.349 4.871-9.741 8.611-18.787 11.133-6.958 2-10.785 1.652-14.003 1.74-4.784.086-5.567 1.564-5.654 2.783-.174 2.869.957 1.479.522 2.436-.348.957-2.349-.088-2.349-2.35.174-6.871 12.612-4.695 19.048-6.348 9.394-2.35 15.395-6.523 18.526-10.525 5.74-7.394 6.262-12.438 9.306-19.918 3.566-8.697 11.654-14.09 18.961-11.916 4.871 1.392 5.74 4.175 6.088 7.132.523 4.175-2.609 6.958-5.219 8.089-3.391 1.391-5.305 2.087-6.348 6.001 1.827-5.132 2.087-4.957 6.61-6.958z" fill="#0c0e0f"/><path d="M108.322 75.095c.521-2.87-1.305-5.566-4.176-6.35-3.74-.957-6.609 1.914-7.915 6.523.521 0 1.043-.435 1.653-.522-1.044 1.653-2.001 2.087-2.523 4.001-.261.957-.696 3.218.261 4.523 0 .174.348-1.479.87-1.74-.435 2.784-.435 5.219.521 7.828l.783-1.479c1.131 2.783 1.219 4 .871 6.958l-1.131 2.435c2.957-2.87 7.74-3.827 9.654-7.392l-.783 1.826c3.043-1.479 5.045-2.957 5.74-5.74v1.305c1.393-.522 2.088-2.175 2.521-3.653.783-3.131-.607-6.61-3.738-7.393-1.219-.348-2.262-.262-3.219.435l.611-1.565z" fill="#0c0e0f"/><path d="M108.582 76.574s-2.957.087-4.697 2.696c-1.738 2.609-1.826 5.479-2.26 7.219-.436 1.74-1.131 4.436-1.131 4.436s.607-1.914 1.217-3.044c.609-1.131.348-3.827 2.523-8.002 1.565-3.045 4.348-3.305 4.348-3.305z" fill="#fff"/><path d="M103.451 81.531s0-1.13-.871-1.392c-.955-.174-2.609-.435-2.609-.435s1.131-.348 2.436-.087c1.218.175 1.044 1.914 1.044 1.914zM105.539 78.748s2.348 1.653 2.869 2.783c.521 1.217.609 4.697.609 4.697s.783-2.696-.436-5.219c-.433-1.13-3.042-2.261-3.042-2.261zM106.582 76.834s-.609-2.957-1.74-3.479c-1.217-.522-2.957-.696-2.957-.696s1.045-.609 2.783-.087c1.652.523 1.914 4.262 1.914 4.262z" fill="#fff"/><path d="M77.358 105.016c-.261-.348-.696-.697-.87-.871-.348-.086-.696-.26-1.043-.26-1.044 0-2.087.26-3.392.957-1.479.781-3.479 2.174-5.479 4.348-3.393 3.74-5.132 8.176-5.132 9.916 0 1.391.957 2.609 2.349 2.609 2.609 0 6.958-3.219 10.002-7.307h.174l-1.652 4.088c-.261.871-.435 1.393-.435 1.826a1.44 1.44 0 0 0 1.479 1.393c2.783 0 4.783-1.393 6.784-3.828 0-.607-.348-.869-.696-.869-2 1.914-2.349 1.826-3.044 1.826-.261 0-.435-.26-.174-.783 1.565-4.609 4.436-11.828 5.653-14.611-.435-.783-1.652-1.043-2.435-1.043-.435 0-.783.086-.957.174l-1.132 2.435zm-3.045.695c.87 0 1.565.436 1.914 1.566-.609 2-2.609 5.826-4.784 8.176-1.914 1.912-3.74 3.479-4.436 3.479-.348 0-.521-.348-.521-.871.087-2.869 2.348-7.826 4.783-10.436 1.392-1.566 2.088-1.914 3.044-1.914z" fill="#0c0e0f"/><path d="M71.346 134.691h2.263v-.322c-.628-.072-.723-.254-.723-.809v-3.41c0-.256.037-.307.489-.307.752 0 1.175.4 1.175 1.037 0 .643-.438 1.088-1.058 1.088-.044 0-.088-.008-.132-.008-.124 0-.175.021-.175.152 0 .191.117.219.482.219 1.088 0 1.781-.641 1.781-1.451 0-.943-.701-1.359-2.125-1.359H71.36v.301c.606 0 .701.232.701.832v2.906c0 .555-.087.736-.715.809v.322zM79.579 134.691h2.132v-.322c-.555-.057-.642-.27-.642-.846v-1.301c.022 0 .051-.006.073-.006.285 0 .46.203.723.518l1.628 1.957h.964v-.322h-.015c-.204 0-.357-.189-.598-.475l-1.044-1.232a4.047 4.047 0 0 0-.533-.52c.848-.189 1.271-.635 1.271-1.32 0-.877-.715-1.301-2.146-1.301h-1.811v.301c.657.072.672.262.672.891v2.832c0 .533-.117.76-.672.824v.322h-.002zm1.497-2.826v-1.76c0-.219.036-.277.394-.277.723 0 1.197.41 1.197 1.008 0 .635-.438 1.051-1.19 1.051-.102 0-.234 0-.401-.022zM90.864 134.795c.773 0 1.424-.33 1.935-.965.373-.467.584-1.096.584-1.781 0-.775-.248-1.402-.759-1.914a2.357 2.357 0 0 0-1.709-.715c-.737 0-1.416.307-1.906.869-.416.475-.642 1.123-.642 1.861 0 .744.226 1.373.635 1.818.489.54 1.146.827 1.862.827zm-1.592-2.879c0-1.408.599-2.182 1.533-2.182.957 0 1.679.941 1.679 2.475 0 1.461-.599 2.256-1.562 2.256-.971 0-1.65-.934-1.65-2.549zM99.154 133.465v-3.373c0-.096.008-.16.045-.197.035-.037.219-.072.533-.072 1.459 0 2.277.832 2.277 2.285 0 1.387-.803 2.248-1.941 2.248-.781-.001-.914-.227-.914-.891zm-1.547 1.226h2.264c1.904 0 3.066-1.088 3.066-2.613 0-.936-.445-1.709-1.227-2.141-.664-.365-1.373-.416-2.213-.416h-1.891v.322c.627.072.715.248.715.803v2.914c0 .555-.088.736-.715.809v.322h.001zM107.168 129.822c.607.057.701.262.701.883v2.293c0 1.211.6 1.797 1.855 1.797.678 0 1.203-.213 1.555-.637.32-.387.344-.744.344-1.227v-2.037c0-.672.072-.986.701-1.072v-.301h-1.818v.301c.664.027.744.312.744 1.072v1.84c0 .512-.008.877-.227 1.146-.234.299-.613.467-1.059.467-.84 0-1.277-.438-1.277-1.291v-2.352c0-.592.059-.797.635-.883v-.301h-2.154v.302zM120.557 133.246c-.301.818-.789 1.219-1.52 1.219-.979 0-1.656-.928-1.656-2.533 0-1.424.592-2.205 1.562-2.205.766 0 1.336.43 1.555 1.197l.314-.029-.139-1.066c-.592-.277-1.111-.416-1.592-.416-.797 0-1.527.344-2.023.941-.408.49-.592 1.082-.592 1.812 0 .758.213 1.35.688 1.854.496.525 1.096.783 1.848.783.555 0 1.123-.162 1.744-.455l.131-1.102h-.32zM126.197 134.691h2.248v-.322c-.592-.035-.686-.24-.686-.809v-3.711h.518c.584 0 .861.213 1.197.826l.328.008-.189-1.162h-4.555l-.146 1.162h.32c.285-.73.57-.834 1.205-.834h.475v3.711c0 .59-.131.795-.715.809v.322zM134.189 134.348c.467.314.949.461 1.467.461 1.008 0 1.635-.621 1.635-1.512 0-.541-.291-.906-.875-1.307-.562-.387-1.023-.65-1.307-.92a.806.806 0 0 1-.248-.6c0-.416.336-.715.824-.715.605 0 .979.395 1.088 1.146h.307v-1.059c-.518-.271-.971-.41-1.395-.41-.861 0-1.424.541-1.424 1.344 0 .752.482 1.074 1.264 1.584.643.424 1.043.701 1.043 1.256 0 .475-.35.84-.84.84-.619 0-1.051-.438-1.254-1.291l-.285-.037v1.22zM141.531 135.926c.928-.16 1.438-.678 1.438-1.373 0-.621-.365-1.059-.811-1.059a.485.485 0 0 0-.496.488c0 .359.248.402.664.475.162.029.219.082.219.258 0 .416-.336.707-1.014.904v.307zM151.553 134.691h2.264v-.322c-.629-.072-.717-.254-.717-.809v-2.914c0-.555.088-.73.717-.803v-.322h-2.264v.322c.627.072.715.248.715.803v2.914c0 .555-.088.736-.715.809v.322zM158.076 134.691h1.877v-.322c-.043.008-.088.008-.123.008-.482 0-.629-.291-.629-.963v-2.557l2.271 2.863c.285.357.562.707.795 1.074h.408a6.574 6.574 0 0 1-.057-.936v-3.141c0-.562.088-.781.736-.896v-.301h-1.861v.301c.643.043.752.248.752.854v2.738l-3.045-3.893h-1.205v.301c.307.027.6.24.84.619v2.973c0 .672-.182.955-.68.955h-.08v.323h.001zM171.611 133.246c-.301.818-.789 1.219-1.52 1.219-.979 0-1.656-.928-1.656-2.533 0-1.424.59-2.205 1.561-2.205.768 0 1.336.43 1.557 1.197l.312-.029-.139-1.066c-.59-.277-1.109-.416-1.59-.416-.797 0-1.527.344-2.023.941-.408.49-.592 1.082-.592 1.812 0 .758.213 1.35.688 1.854.496.525 1.094.783 1.846.783.555 0 1.125-.162 1.746-.455l.131-1.102h-.321zM176.229 134.217a.468.468 0 1 0 .936 0 .46.46 0 0 0-.467-.467.461.461 0 0 0-.469.467z"/></g></svg>