<svg xmlns="http://www.w3.org/2000/svg" width="2500" height="2500" viewBox="0 0 192.756 192.756"><g fill-rule="evenodd" clip-rule="evenodd"><path fill="#fff" d="M0 0h192.756v192.756H0V0z"/><path d="M21.502 168.896c.495 0 .913.039 1.292.115.38.076.722.266 1.026.531.342.266.57.607.722 1.027.152.418.228.873.228 1.33 0 .494-.076.949-.228 1.367-.152.418-.38.76-.722 1.027a2.222 2.222 0 0 1-1.026.531c-.38.076-.836.113-1.292.113H18.12v-.15a.21.21 0 0 0 .19-.115.285.285 0 0 0 .076-.189v-5.131a.285.285 0 0 0-.076-.189.21.21 0 0 0-.19-.115v-.152h3.382zm-.151 5.055c.684 0 1.216-.189 1.558-.494.342-.342.532-.836.532-1.557 0-.686-.19-1.18-.494-1.521-.342-.303-.874-.494-1.596-.494h-1.71v4.066h1.71zm10.224-.531l-.456.836c0 .076-.038.115-.038.152-.038.037-.038.076-.038.113 0 .076.038.152.076.191.076.037.152.076.228.076v.15h-2.015v-.113c.152-.037.228-.076.304-.152.038-.076.114-.189.19-.342l2.242-4.637c.038-.076.038-.113.076-.189 0-.039.038-.076.038-.152 0-.152-.114-.266-.267-.305v-.152h2.167v.115c-.038.037-.114.037-.152.113-.076.039-.114.076-.114.152v.113c.038.039.038.115.076.191l2.319 4.674c.076.152.152.305.228.381.076.076.152.152.304.152v.15h-2.242v-.113c.114-.037.19-.037.228-.076a.285.285 0 0 0 .076-.189c0-.115-.038-.189-.076-.305l-.418-.836h-2.736v.002zm1.368-3.002l-1.026 2.129h2.015l-.989-2.129zm9.92 4.066c0 .152.114.266.267.305v.15h-1.787v-.113a.832.832 0 0 0 .19-.113.326.326 0 0 0 .076-.229v-5.131a.285.285 0 0 0-.076-.189.21.21 0 0 0-.19-.115v-.152h3.763c.798 0 1.406.115 1.825.342.456.268.684.762.684 1.521 0 .494-.152.873-.456 1.141-.267.266-.685.455-1.178.531l1.178 1.672c.19.268.304.457.417.533.076.113.19.152.342.152v.15H45.79v-.113c.038-.037.076-.037.114-.076.076 0 .076-.037.076-.076 0-.076 0-.152-.076-.229-.038-.074-.076-.15-.114-.189l-1.254-1.748h-1.673v1.976zm2.128-3.002c.418 0 .761-.039.989-.152.228-.076.342-.305.342-.646s-.114-.533-.342-.646a3.169 3.169 0 0 0-.989-.152h-2.128v1.598h2.128v-.002zm12.847 2.469c.152 0 .267-.113.304-.342h.19v1.598h-.152c-.038-.076-.076-.152-.114-.191a.295.295 0 0 0-.19-.076h-5.359v-.15a.21.21 0 0 0 .19-.115.285.285 0 0 0 .076-.189v-5.131c0-.076-.039-.152-.039-.189a.617.617 0 0 0-.228-.115v-.152h1.786v.115c-.152.076-.266.152-.266.342v4.598h3.802v-.003zm6.879.988h-1.824v-.15a.21.21 0 0 0 .19-.115.281.281 0 0 0 .077-.189v-5.131a.281.281 0 0 0-.077-.189.21.21 0 0 0-.19-.115v-.152h1.824v.115c-.189.076-.266.152-.266.342v5.131c0 .189.076.266.266.342v.111zm6.044-.455c0 .076.038.152.076.189a.211.211 0 0 0 .19.115v.15h-1.748v-.113a.822.822 0 0 0 .189-.113.326.326 0 0 0 .076-.229v-5.131a.285.285 0 0 0-.076-.189.21.21 0 0 0-.189-.115v-.152h2.052v.152c-.038 0-.114.039-.114.076-.038 0-.076.039-.076.113 0 .039 0 .076.038.115l.114.113 3.306 3.498v-3.611c0-.152-.076-.266-.266-.305v-.152h1.749v.115a.81.81 0 0 0-.19.113c-.038.039-.076.113-.076.229v5.131c0 .076.038.152.076.189a.21.21 0 0 0 .19.115v.15h-1.9v-.113l.152-.076c.038-.037.038-.076.076-.113a.281.281 0 0 0-.076-.152c-.038-.039-.076-.113-.19-.152l-3.383-3.535v3.688zm13.948-1.711c-.152 0-.266.115-.304.305h-.152v-1.445h.114c.077.191.152.268.342.268h2.851v.15c-.076.039-.152.076-.19.115-.076.076-.076.152-.076.229v1.291c0 .076 0 .152.038.191.076.074.152.113.228.113v.113a8.851 8.851 0 0 1-1.634.723 6.124 6.124 0 0 1-1.672.229c-1.026 0-1.862-.266-2.546-.836-.684-.533-1.026-1.293-1.026-2.318 0-.951.342-1.711 1.026-2.281s1.521-.836 2.508-.836a7.9 7.9 0 0 1 1.026.076c.304.037.57.113.76.152.229.076.381.113.495.189.076.037.19.037.266.037h.114s.076-.037.114-.074l.114.074-.684 1.521-.114-.076c0-.305-.267-.533-.723-.684-.494-.152-.95-.229-1.33-.229-.646 0-1.178.229-1.596.607-.418.418-.646.912-.646 1.521 0 .684.228 1.178.646 1.557.456.42 1.026.609 1.71.609.342 0 .685-.039.989-.115.304-.074.608-.15.874-.342v-.836h-1.522v.002zm16.23-.418v2.129c0 .152.076.266.266.305v.15h-1.824v-.113c.113-.037.152-.076.229-.113.037-.039.037-.115.037-.229v-5.131c0-.076 0-.152-.037-.189-.076-.076-.115-.115-.229-.115v-.152h1.824v.152c-.189.039-.266.152-.266.305v1.977h3.611v-1.977c0-.152-.076-.266-.268-.305v-.152h1.824v.115c-.113.037-.15.076-.189.113-.076.039-.076.113-.076.229v5.131c0 .076 0 .152.076.189.039.076.076.115.189.115v.15h-1.824v-.113c.191-.076.268-.152.268-.342v-2.129h-3.611zm11.934 1.065l-.418.836c0 .076-.037.115-.037.152-.039.037-.039.076-.039.113a.3.3 0 0 0 .076.191c.076.037.113.076.229.076v.15h-2.016v-.113c.152-.037.229-.076.305-.152.039-.076.115-.189.189-.342l2.244-4.637c.037-.076.037-.113.076-.189 0-.039.037-.076.037-.152 0-.152-.113-.266-.266-.305v-.152h2.166v.115c-.037.037-.113.037-.189.113-.039.039-.076.076-.076.152v.113c.037.039.037.115.076.191l2.318 4.674c.076.152.152.305.229.381.074.076.15.152.303.152v.15h-2.242v-.113c.113-.037.152-.037.229-.076a.29.29 0 0 0 .076-.189c0-.115-.039-.189-.076-.305l-.418-.836h-2.776v.002zm1.406-3.002l-1.025 2.129h2.014l-.989-2.129zm9.92 4.066c0 .152.076.266.266.305v.15h-1.822v-.113a.623.623 0 0 0 .227-.113c.039-.039.039-.115.039-.229v-5.131c0-.076 0-.152-.039-.189-.037-.076-.113-.115-.227-.115v-.152h3.799c.799 0 1.406.115 1.824.342.457.268.686.762.686 1.521 0 .494-.152.873-.457 1.141-.266.266-.684.455-1.215.531l1.215 1.672c.191.268.305.457.381.533a.492.492 0 0 0 .381.152v.15h-2.129v-.113c.037-.037.076-.037.113-.076.076 0 .076-.037.076-.076a.535.535 0 0 0-.076-.229.894.894 0 0 0-.113-.189l-1.254-1.748H124.2v1.976h-.001zm2.092-3.002c.455 0 .76-.039 1.025-.152.229-.076.342-.305.342-.646s-.113-.533-.342-.646a3.442 3.442 0 0 0-1.025-.152h-2.092v1.598h2.092v-.002zm13.947 1.748c0 .607-.227 1.025-.645 1.33-.457.266-.988.379-1.635.379h-4.105v-.15a.207.207 0 0 0 .189-.115.28.28 0 0 0 .076-.189v-5.131a.28.28 0 0 0-.076-.189.207.207 0 0 0-.189-.115v-.152h4.105c.607 0 1.141.115 1.52.342.418.229.609.646.609 1.256 0 .607-.305 1.062-.838 1.33.305.113.57.303.723.531.192.227.266.532.266.873zm-2.47-1.9c.344 0 .57-.039.762-.152.189-.076.266-.266.266-.57 0-.266-.076-.457-.266-.57a1.914 1.914 0 0 0-.762-.152h-2.393v1.445h2.393v-.001zm-.075 2.621c.455 0 .797-.074.949-.227a.686.686 0 0 0 .266-.57c0-.305-.113-.533-.342-.646s-.531-.152-.873-.152h-2.318v1.596h2.318v-.001zm10.604 1.104c-.342 0-.646-.039-.988-.076a4.794 4.794 0 0 1-1.025-.381c-.381-.227-.723-.57-1.027-1.064s-.455-1.064-.455-1.633c0-.951.342-1.711 1.025-2.281s1.482-.836 2.471-.836c.342 0 .646.037.988.076.305.076.646.189 1.025.379.381.229.723.57 1.027 1.064.303.494.455 1.027.455 1.598 0 .988-.342 1.748-1.025 2.318-.686.57-1.483.836-2.471.836zm0-5.284c-.607 0-1.141.229-1.559.607-.381.418-.607.912-.607 1.521 0 .646.227 1.139.607 1.557.418.381.951.609 1.559.609s1.141-.229 1.559-.609c.379-.418.607-.91.607-1.557a2.13 2.13 0 0 0-.607-1.521 2.295 2.295 0 0 0-1.559-.607zm14.633-.722c-.189.039-.266.152-.266.305v3.383c0 .912-.266 1.52-.799 1.861-.494.305-1.254.457-2.242.457-.951 0-1.672-.152-2.205-.457-.531-.342-.797-.949-.797-1.861v-3.383c0-.076 0-.152-.039-.189-.076-.076-.113-.115-.229-.152v-.115h1.826v.152a.212.212 0 0 0-.191.115.29.29 0 0 0-.076.189v3.23c0 .266 0 .455.039.607.037.152.152.305.266.457.152.152.342.229.607.303.229.076.533.115.836.115.646 0 1.064-.115 1.369-.342.266-.191.381-.609.381-1.178v-3.193c0-.076 0-.152-.039-.189-.037-.076-.113-.115-.229-.152v-.115h1.787v.152h.001zm6.119 5.435c0 .152.076.266.266.305v.15h-1.824v-.113a.801.801 0 0 0 .189-.113c.076-.039.076-.115.076-.229v-5.131c0-.076 0-.152-.076-.189a.207.207 0 0 0-.189-.115v-.152h3.801c.76 0 1.369.115 1.824.342.457.268.646.762.646 1.521 0 .494-.113.873-.418 1.141-.305.266-.684.455-1.217.531l1.217 1.672c.152.268.305.457.381.533.076.113.227.152.379.152v.15h-2.129v-.113c.039-.037.076-.037.115-.076.037 0 .076-.037.076-.076 0-.076-.039-.152-.076-.229-.076-.074-.115-.15-.115-.189l-1.254-1.748h-1.672v1.976zm2.09-3.002c.418 0 .762-.039.988-.152.268-.076.381-.305.381-.646s-.113-.533-.381-.646a3.162 3.162 0 0 0-.988-.152h-2.09v1.598h2.09v-.002zM21.769 35.528c0 .304.076.532.228.684.152.19.379.304.646.342v.532h-5.892v-.456c.266-.114.495-.228.646-.38s.228-.342.228-.646V19.108c0-.304-.076-.494-.228-.684-.152-.152-.38-.266-.646-.342v-.532h6.88v.532c-.152.076-.305.114-.418.228-.114.076-.19.19-.19.38 0 .152.038.304.114.418l.342.342 11.213 11.212V19.108c0-.494-.305-.836-.913-1.026v-.532h5.93v.456c-.304.114-.494.228-.646.38-.152.152-.228.342-.228.646v16.496c0 .304.076.532.228.684.152.19.342.304.646.342v.532h-6.461v-.456c.304-.114.494-.19.532-.228a.735.735 0 0 0 .19-.342c0-.19-.038-.343-.19-.495-.114-.152-.304-.304-.607-.532L21.769 23.746v11.782zm23.413-2.737l-1.254 2.356c-.038.19-.076.342-.152.418-.038.076-.076.152-.076.304 0 .229.076.38.229.494.152.114.38.228.646.266v.456H38.72v-.38c.38-.114.646-.228.836-.418.19-.151.38-.494.57-.912l6.537-12.96c.114-.152.19-.304.228-.456.076-.152.076-.304.076-.457 0-.418-.266-.722-.76-.874v-.456h6.348v.38c-.152.038-.304.152-.494.266-.19.114-.266.266-.266.494 0 .076 0 .189.038.304.038.152.076.304.19.494l6.766 13.037c.228.456.417.798.608 1.026.228.266.532.418.95.456v.456h-6.538v-.38c.267-.038.456-.114.646-.228.151-.114.228-.266.228-.532s-.076-.57-.228-.798L53.2 32.791h-8.018zm4.028-8.324l-2.927 5.929h5.815l-2.888-5.929zm23.793 11.25c0 .267.038.457.114.57.076.114.304.228.684.342v.456h-5.283v-.38c.266-.114.456-.228.57-.342.114-.114.19-.304.19-.57V22.985h-5.436c-.266 0-.456.076-.57.152-.152.114-.266.342-.38.76h-.456v-4.295h.38c.114.19.228.342.38.418.114.114.304.152.57.152h14.709c.229 0 .418-.038.57-.114.114-.076.229-.228.342-.456h.456v4.295h-.38c-.114-.304-.228-.533-.342-.684a.774.774 0 0 0-.57-.229h-5.549v12.733h.001zm14.253 1.369h-5.321v-.456c.266-.038.456-.152.608-.304a.967.967 0 0 0 .189-.608V21.502a.94.94 0 0 0-.189-.57 1.033 1.033 0 0 0-.608-.304v-.456h5.321v.38c-.532.152-.798.456-.798.874v14.367c0 .457.266.76.798.913v.38zm12.277.266a17.22 17.22 0 0 1-2.851-.229c-.912-.189-1.9-.532-3.041-1.102-1.102-.532-2.09-1.521-2.965-2.927a8.03 8.03 0 0 1-1.33-4.485c0-2.661.988-4.789 2.926-6.347 1.977-1.597 4.409-2.356 7.26-2.356.988 0 1.9.076 2.812.228.912.19 1.938.532 3.041 1.103 1.102.532 2.127 1.482 3.002 2.889.873 1.368 1.33 2.889 1.33 4.485 0 2.699-.988 4.789-2.965 6.385s-4.369 2.356-7.219 2.356zm0-14.633c-1.824 0-3.345.532-4.523 1.634-1.178 1.14-1.787 2.546-1.787 4.257 0 1.749.608 3.155 1.787 4.257 1.178 1.14 2.699 1.672 4.523 1.672 1.785 0 3.307-.532 4.484-1.672 1.217-1.102 1.787-2.508 1.787-4.257s-.57-3.193-1.787-4.295c-1.177-1.064-2.699-1.596-4.484-1.596zm16.61 12.998c0 .267.076.457.189.608.152.152.342.266.607.304v.456h-5.131v-.38c.268-.114.457-.228.57-.342.152-.114.189-.304.189-.57V21.502c0-.228-.037-.418-.189-.57-.113-.152-.303-.266-.57-.304v-.456h5.969v.456a1.184 1.184 0 0 0-.381.19c-.115.076-.152.189-.152.342s.037.266.113.342c.076.114.152.228.268.304l9.73 9.692v-9.997c0-.418-.268-.722-.799-.874v-.456h5.131v.38c-.229.114-.457.228-.57.342s-.189.304-.189.532v14.291c0 .267.076.457.189.608.113.152.342.266.57.304v.456H126.1v-.38c.266-.114.418-.19.457-.228.076-.038.113-.152.189-.304 0-.152-.076-.266-.189-.418-.076-.114-.266-.266-.533-.456l-9.881-9.768v10.187zm24.095-2.926l-1.215 2.356c-.076.19-.115.342-.152.418-.076.076-.113.152-.113.304 0 .229.113.38.266.494.15.114.342.228.607.266v.456h-5.814v-.38c.342-.114.607-.228.797-.418.191-.151.381-.494.57-.912l6.537-12.96c.115-.152.191-.304.229-.456.076-.152.076-.304.076-.457 0-.418-.229-.722-.76-.874v-.456h6.385v.38c-.152.038-.342.152-.531.266-.152.114-.268.266-.268.494 0 .076.039.189.039.304.037.152.113.304.189.494l6.766 13.037c.229.456.418.798.646 1.026.189.266.494.418.912.456v.456h-6.537v-.38c.266-.038.494-.114.646-.228.15-.114.227-.266.227-.532s-.076-.57-.227-.798l-1.256-2.356h-8.019zm4.069-8.324l-2.965 5.929h5.814l-2.849-5.929zm28.732 9.806c.494 0 .799-.304.951-.913h.455v4.447h-.379a3.925 3.925 0 0 0-.342-.57c-.152-.114-.344-.152-.57-.152h-15.66v-.455c.266-.038.457-.152.609-.304a.973.973 0 0 0 .189-.608V21.502c0-.228-.039-.418-.113-.532-.076-.114-.305-.228-.686-.342v-.456h5.283v.38c-.494.152-.76.456-.76.874v12.847h11.023zM21.351 116.104v11.859c0 .266.076.494.228.684.152.189.38.305.646.342v.533h-5.93v-.457c.304-.113.532-.229.684-.379.152-.152.228-.344.228-.646v-16.572c0-.303-.076-.531-.228-.684-.152-.189-.38-.305-.684-.342v-.533h7.944v.457c-.266.113-.418.189-.494.266a.758.758 0 0 0-.229.418c0 .342.038.57.152.76l5.701 9.959 5.664-9.691c0-.076.076-.191.189-.381.114-.229.19-.381.19-.494 0-.494-.266-.76-.722-.76v-.533h7.563v.457c-.304.113-.532.229-.684.379-.152.115-.228.344-.228.646v16.572c0 .266.076.494.228.684s.38.305.684.342v.533h-6.119v-.457c.608-.152.912-.494.912-1.025v-11.936l-8.133 13.076-7.562-13.077zm28.924 9.16l-1.292 2.357c-.038.189-.114.303-.152.379-.076.076-.076.191-.076.342 0 .191.076.344.228.457.152.152.38.229.646.266v.457h-6.082v-.381c.38-.113.685-.229.875-.418.19-.152.38-.457.608-.912l6.803-12.77.228-.457c.038-.152.076-.266.076-.418 0-.457-.266-.76-.799-.875v-.455h6.614v.379a1.892 1.892 0 0 0-.494.229c-.19.152-.304.305-.304.494 0 .076 0 .189.038.342.038.115.114.268.228.457l7.032 12.885c.228.418.418.76.646 1.025.228.229.532.381.988.418v.457h-6.803v-.381c.266-.037.456-.113.646-.229.152-.076.228-.266.228-.494 0-.303-.076-.568-.228-.797l-1.331-2.357h-8.323zm4.218-8.172l-3.079 5.816h6.082l-3.003-5.816zm18.206 11.099c0 .455.304.721.836.873v.457h-5.512v-.381c.267-.113.456-.189.608-.342.114-.113.19-.305.19-.533v-14.1a.96.96 0 0 0-.19-.607c-.152-.152-.342-.229-.608-.268v-.455h11.479c2.395 0 4.257.342 5.587 1.025 1.369.686 2.052 2.053 2.052 4.105 0 1.369-.456 2.395-1.33 3.154-.912.76-2.129 1.254-3.687 1.521l3.611 4.521c.57.723.95 1.217 1.216 1.482.304.305.646.418 1.14.418v.457H81.63v-.381c.114-.037.228-.113.342-.152.152-.037.228-.152.228-.303 0-.191-.076-.381-.266-.609-.152-.227-.266-.379-.304-.455l-3.801-4.828h-5.131v5.401h.001zm6.424-8.171c1.292 0 2.28-.152 3.041-.418.722-.266 1.064-.875 1.064-1.787 0-.949-.342-1.52-1.064-1.787-.76-.266-1.749-.418-3.041-.418H72.7v4.41h6.423zm17.483 9.501h-5.511v-.457c.266-.037.456-.152.608-.303.114-.115.19-.344.19-.57v-14.025a.96.96 0 0 0-.19-.607c-.152-.152-.342-.229-.608-.268v-.455h5.511v.379c-.57.152-.836.418-.836.875v14.176c0 .42.266.723.836.875v.38zm13.988-1.33c0 .227.037.418.113.531.076.152.305.229.684.342v.457h-5.51v-.381c.303-.113.492-.189.607-.342.152-.113.229-.305.229-.533v-12.656h-5.664c-.266 0-.494.039-.607.152-.152.115-.266.342-.381.723h-.495v-4.219h.418c.115.189.229.342.381.418.113.113.305.152.57.152h15.316c.266 0 .494-.039.609-.115.15-.076.266-.227.379-.455h.494v4.219h-.418c-.113-.266-.229-.494-.381-.646-.113-.152-.342-.229-.607-.229h-5.738v12.582h.001zm15.621 1.33h-5.512v-.457c.266-.037.494-.152.607-.303.152-.115.191-.344.191-.57v-14.025c0-.266-.039-.457-.191-.607-.113-.152-.342-.229-.607-.268v-.455h5.512v.379c-.533.152-.799.418-.799.875v14.176c0 .42.266.723.799.875v.38zm7.525-11.402v10.072c0 .227.076.455.189.57.152.15.342.266.607.303v.457h-5.32v-.381c.266-.113.457-.189.607-.342.115-.113.191-.305.191-.533v-14.1a.954.954 0 0 0-.191-.607c-.15-.152-.342-.229-.607-.268v-.455h7.107v.379c-.229.076-.381.152-.457.229a.756.756 0 0 0-.189.342c0 .305.039.533.152.646l5.094 8.477 5.131-8.248c0-.039.037-.152.152-.342a.708.708 0 0 0 .15-.381c0-.455-.189-.646-.645-.646v-.455h6.803v.379a1.788 1.788 0 0 0-.607.305.852.852 0 0 0-.191.57v14.102c0 .227.076.455.191.57.15.15.342.266.607.303v.457h-5.512v-.381c.533-.152.836-.455.836-.875V118.12l-7.297 11.098-6.801-11.099zm26.453 8.627h12.01c.457 0 .799-.303.951-.912h.494v4.408h-.418c-.039-.266-.152-.418-.305-.568-.152-.115-.381-.152-.646-.152h-16.762v-.457c.268-.037.457-.152.609-.303.113-.115.189-.344.189-.57v-14.025c0-.266-.037-.457-.113-.57s-.305-.229-.686-.305v-.455h16.344c.266 0 .494-.039.646-.152.152-.076.266-.229.342-.418h.457v4.219h-.457c-.076-.266-.152-.494-.305-.646-.113-.152-.342-.229-.684-.229h-11.668v3.953h7.639c.191 0 .381-.037.533-.152.189-.074.303-.342.418-.721h.494v4.219h-.494a.835.835 0 0 0-.305-.533 1.18 1.18 0 0 0-.646-.189h-7.639v4.558h.002zM21.123 145.902v11.973c0 .305.076.531.228.723.152.152.342.266.646.342v.531h-5.74v-.455c.304-.115.494-.229.646-.381.152-.152.228-.381.228-.646V141.19c0-.305-.076-.531-.228-.684-.152-.191-.342-.305-.646-.342v-.533h7.64v.418c-.228.115-.38.229-.456.305a2.06 2.06 0 0 0-.228.418c0 .342.076.607.19.76l5.474 10.109 5.473-9.844c0-.037.076-.189.19-.379.114-.191.152-.381.152-.494 0-.494-.229-.76-.685-.76v-.533h7.297v.418a1.74 1.74 0 0 0-.646.418c-.152.115-.229.342-.229.646v16.762c0 .305.076.531.229.723.152.152.342.266.646.342v.531h-5.929v-.455c.608-.152.874-.533.874-1.027v-12.086L28.42 159.13l-7.297-13.228zm47.699-3.117c-.494.152-.722.418-.722.875v9.539c0 2.586-.76 4.295-2.204 5.207-1.444.912-3.535 1.369-6.31 1.369-2.698 0-4.789-.457-6.271-1.369-1.482-.912-2.204-2.621-2.204-5.207v-9.539c0-.229-.076-.457-.19-.609-.152-.113-.342-.266-.57-.342v-.379h5.093v.455a1.328 1.328 0 0 0-.57.266c-.114.152-.152.381-.152.609v9.121c0 .684.038 1.254.114 1.674.114.418.38.873.76 1.291.418.418.95.723 1.672.875.684.189 1.482.266 2.395.266 1.749 0 3.002-.305 3.801-.875.76-.607 1.178-1.748 1.178-3.383v-8.969c0-.229-.076-.457-.19-.609-.152-.113-.342-.266-.57-.342v-.379h4.941v.455h-.001zm23.413 4.942l-.304-.229c0-.227-.076-.455-.19-.607s-.608-.494-1.444-1.102c-.875-.609-2.167-.912-3.915-.912-1.179 0-2.129.113-2.927.379-.836.229-1.254.799-1.368 1.635 0 .57.228.951.646 1.217.419.266 1.634.494 3.611.684 1.977.189 3.8.57 5.435 1.141 1.672.607 2.471 2.014 2.471 4.256 0 1.977-.798 3.383-2.395 4.258-1.596.873-3.42 1.33-5.473 1.33-1.179 0-2.281-.115-3.307-.342a11.834 11.834 0 0 1-2.546-.836c-.608-.344-1.026-.533-1.178-.646a.911.911 0 0 0-.494-.152c-.19 0-.418.113-.608.305l-.38-.152 1.9-4.219.38.152c0 1.025.684 1.748 2.128 2.279 1.406.494 2.737.723 3.953.723 1.14 0 2.167-.152 3.078-.494.913-.381 1.331-.988 1.331-1.9s-1.331-1.52-3.991-1.824c-2.698-.342-4.713-.76-6.119-1.254-1.368-.494-2.053-1.787-2.053-3.916 0-1.938.76-3.344 2.243-4.219 1.52-.836 3.307-1.254 5.435-1.254.95 0 1.9.113 2.889.381.988.227 1.748.494 2.356.76.608.305 1.026.494 1.254.57.228.113.418.189.646.229.076 0 .19-.039.304-.152.076-.076.19-.191.342-.305l.304.229-2.014 3.987zm15.431 8.855h11.137c.418 0 .723-.266.875-.873h.455v4.484h-.381a.825.825 0 0 0-.303-.533c-.152-.15-.342-.189-.57-.189h-15.584v-.455c.268-.076.457-.152.57-.305a.96.96 0 0 0 .191-.607V143.66c0-.229-.039-.418-.115-.57-.076-.113-.305-.229-.646-.305v-.455h15.203c.229 0 .457-.076.57-.152a.75.75 0 0 0 .305-.457h.455v4.371h-.455c-.037-.303-.115-.531-.266-.684-.115-.152-.305-.229-.609-.229h-10.832v4.068h7.07c.189 0 .379-.076.531-.152.152-.115.266-.381.381-.762h.418v4.371h-.418c-.076-.266-.152-.455-.305-.57a1.055 1.055 0 0 0-.607-.189h-7.07v4.637zm38.16-13.797c-.494.152-.76.418-.76.875v9.539c0 2.586-.723 4.295-2.166 5.207-1.482.912-3.574 1.369-6.311 1.369s-4.826-.457-6.309-1.369-2.205-2.621-2.205-5.207v-9.539c0-.229-.076-.457-.189-.609a1.34 1.34 0 0 0-.57-.342v-.379h5.131v.455a1.01 1.01 0 0 0-.57.266 1.061 1.061 0 0 0-.189.609v9.121c0 .684.037 1.254.152 1.674.113.418.342.873.76 1.291.381.418.951.723 1.635.875.723.189 1.52.266 2.432.266 1.748 0 3.004-.305 3.764-.875.797-.607 1.178-1.748 1.178-3.383v-8.969c0-.229-.076-.457-.189-.609a1.353 1.353 0 0 0-.57-.342v-.379h4.979v.455h-.003zm13.227 4.942v10.377a.97.97 0 0 0 .189.607c.152.152.344.229.57.305v.455h-4.939v-.379c.227-.115.418-.229.531-.342.152-.115.189-.305.189-.57v-14.52c0-.229-.037-.457-.189-.609a1.022 1.022 0 0 0-.531-.266v-.455h6.611v.379a.978.978 0 0 0-.418.268c-.074.074-.15.15-.189.303 0 .305.039.533.152.686l4.713 8.74 4.752-8.514c0-.037.037-.152.15-.342a.703.703 0 0 0 .152-.418c0-.418-.189-.646-.607-.646v-.455h6.309v.379a1.45 1.45 0 0 0-.57.342c-.113.115-.189.305-.189.533v14.52a.97.97 0 0 0 .189.607c.152.152.344.229.57.305v.455h-5.092v-.379c.494-.152.76-.457.76-.912v-10.453l-6.766 11.441-6.347-11.442z"/><path d="M141 47.462c3.457-.19 6.613.038 9.957.798 9.273 1.824 16.914 7.64 21.17 16.077a17.738 17.738 0 0 1 1.787 5.169c1.293 5.701.684 11.364-1.863 16.647-5.357 11.137-17.482 17.522-29.721 15.622-3.307-.457-6.271-1.482-9.16-3.193-2.812-1.596-5.055-3.458-7.146-5.929-2.736-3.345-4.521-6.994-5.473-11.212 3.459-3.078 6.385-6.157 9.389-9.73-1.406 3.801-1.598 7.678-.57 11.555 1.293 4.523 4.447 8.02 8.779 9.806 3.877 1.71 7.867 2.204 12.049 1.558 2.775-.379 5.207-1.368 7.449-2.964 2.318-1.597 4.105-3.497 5.473-5.892 3.307-5.587 2.928-12.581-.949-17.826-3.307-4.333-8.059-6.956-13.494-7.412-1.975-.114-3.799-.076-5.738.228-3.688.57-6.879 1.939-9.768 4.219-3.383 2.698-6.234 5.397-9.16 8.589a274.062 274.062 0 0 1-10.566 10.452 40.82 40.82 0 0 1-4.979 4.257c-12.125 9.274-26.15 13.798-41.391 13.378 6.918-1.975 12.809-5.206 18.206-9.957a42.865 42.865 0 0 0 5.929-6.12c1.331-1.748 2.508-3.382 3.801-5.169l5.777-8.627c3.193-4.713 6.65-8.627 10.908-12.353C119.904 51.909 129.9 47.842 141 47.462z" fill="#c9222c"/><path d="M45.067 47.652c2.205 0 4.181.114 6.347.456 10.3 2.015 18.434 9.768 20.905 19.954-3.193 3.231-6.043 6.196-9.198 9.464 1.14-3.687 1.254-7.336.304-11.098-.912-3.421-2.927-6.233-5.892-8.172-5.891-3.801-13.074-4.409-19.536-1.672-2.47 1.14-4.447 2.661-6.233 4.675a16.128 16.128 0 0 0-3.155 16.647c.874 2.508 2.243 4.561 4.219 6.309 2.736 2.471 5.853 3.991 9.502 4.637 6.917 1.368 13.873-.722 18.928-5.625l12.048-12.163c5.359-5.701 10.946-10.148 17.712-14.063 3.421-1.976 6.651-3.535 10.338-4.941 8.057-3.269 16.076-4.713 24.781-4.333-9.883 2.851-18.055 8.362-24.439 16.419-1.596 2.128-3.041 4.105-4.523 6.309-1.558 2.395-2.964 4.561-4.599 6.88-3.839 5.701-8.096 10.376-13.417 14.747-10.301 8.552-23.299 12.011-36.45 9.653-7.905-1.102-14.633-5.244-19.194-11.744-4.485-6.005-6.119-13.341-4.599-20.676 1.862-8.362 7.297-15.127 15.051-18.738 3.575-1.785 7.148-2.735 11.1-2.925z" fill="#c9222c"/></g></svg>