<svg xmlns="http://www.w3.org/2000/svg" width="2500" height="2500" viewBox="0 0 192.756 192.756"><g fill-rule="evenodd" clip-rule="evenodd"><path fill="#fff" d="M0 0h192.756v192.756H0V0z"/><path d="M2.834 110.56h7.064V83.344c0-5.643 6.036-4.982 7.99-3.853l26.958 15.59-.004 8.164L17.524 87.68v22.879H25.4l-11.439 9.625-11.127-9.624z" fill="#33a457"/><path d="M62.001 84.779l-7.063-.03.144 27.214c.029 5.67-4.755 5.873-8.268 3.819L19.71 99.935l-.004-8.088 27.556 16.521-.016-23.718-7.81.031 11.479-9.576 11.086 9.674z" fill="#33a457"/><path d="M82.827 104.995l-.181 5.564H62.89c-2.418-.082-4.709-1.313-4.735-3.814V93.806c.026-1.708 1.53-4.001 3.375-3.812h17.69c2.086 0 3.715 1.949 3.607 4.183v8.506H67.735l.02-4.933 7.765.12-.096-2.188h-9.575l-.137 9.314h17.115v-.001zM86.47 110.56V84.805h7.189V90l5.313-.006c2.717-.028 5.062 1.178 5 4.188v16.379h-6.875l-.061-14.799-3.318-.12-.06 14.919H86.47v-.001zM117.287 110.56v-5.564h16.189l-.066-2.134h-11.855c-2.262.035-4.244-2.108-4.328-4.992.021-1.5.041-2.556.061-4.057-.234-1.915.865-3.93 4.188-3.819h20.295l.09 5.808h-16.385l-.068 2.007 12.209.061c2.092-.023 4.125 1.644 4.238 3.5l.062 5.438c-.006 1.89-1.77 3.74-3.674 3.812l-20.956-.06zM172.607 110.56V89.993h12.564c2.941-.024 4.725 1.556 4.75 3.75v16.816h-6.812l-.061-14.799-3.254.001v14.798h-7.187v.001zM106.66 110.56h7.252V84.821h-7.252v25.739zM169.359 104.995l-.182 5.564h-19.756c-2.418-.082-4.709-1.313-4.734-3.814V93.806c-.322-2.22 2.227-4.14 4.42-3.812h16.645c2.086 0 3.715 1.949 3.607 4.183v8.506h-16.137l.027-4.546c.092-.764 7.768-.318 8.803-.267l-.096-2.188h-10.621l-.137 9.314h18.161v-.001zM172.684 121.755h9.775c2.467 0 4.328.25 5.574.75 1.25.503 1.877 1.246 1.877 2.233v5.008h-12.824c-1.797 0-3.176-.199-4.141-.6-.963-.4-1.447-.969-1.447-1.704 0-.908.557-1.561 1.666-1.955 1.109-.396 2.953-.593 5.527-.593h6.277v-.199c0-.475-.312-.808-.947-1.002-.629-.19-1.752-.287-3.371-.287h-7.967v-1.651h.001zm6.341 6.383h5.979v-1.651h-5.623c-1.117 0-1.889.066-2.312.199-.426.135-.635.366-.635.698 0 .28.172.477.51.587.343.112 1.036.167 2.081.167zm-10.677 1.32c0 1.095-.553 1.899-1.658 2.413-1.1.514-2.828.77-5.172.77h-9.354v-1.621h8.535c.918 0 1.621-.097 2.109-.292.492-.195.736-.478.736-.85v-.132h-3.883c-2.008 0-3.453-.067-4.336-.199a9.967 9.967 0 0 1-2.441-.683c-.861-.36-1.521-.81-1.984-1.349-.463-.538-.695-1.12-.695-1.748 0-.615.232-1.192.695-1.728s1.123-.984 1.984-1.346c.771-.335 1.676-.576 2.711-.722 1.039-.146 2.391-.218 4.066-.218h8.686v7.705h.001zm-7.28-1.363h2.477v-4.63h-2.477c-1.195 0-2.031.019-2.51.059-.48.04-.902.106-1.256.201-.738.197-1.273.456-1.615.78-.34.324-.512.746-.512 1.263 0 .855.43 1.456 1.291 1.806.858.346 2.391.521 4.602.521zm-13.775 1.651h-5.006v-7.991h5.006v7.991zm1.293-9.62h-7.652v-1.266h7.652v1.266zm-31.52-1.266H129.8c2.971 0 5.146.263 6.531.792 1.385.528 2.074 1.355 2.074 2.479 0 .834-.428 1.517-1.281 2.044-.854.528-2.084.87-3.689 1.021l6.141 4.549h-5.824l-5.424-4.281h-6.088v4.281h-5.174V118.86zm11.514 1.939h-6.34v2.739h6.34c1.719 0 2.91-.104 3.582-.311.67-.207 1.004-.562 1.004-1.065 0-.499-.326-.851-.977-1.056-.656-.205-1.857-.307-3.609-.307z" fill="#33a457"/><path d="M20.367 93.156l27.484 16.628.096-25.747H41.5l9.412-7.657 9.188 7.625h-5.88v28.94c-.428 2.971-2.542 3.858-6.155 2.664L20.41 99.532l-.043-6.376z" fill="#fff"/><path d="M10.704 66.512l2.131-.138c.126.472.386.817.78 1.039.392.219.919.33 1.586.33.704 0 1.237-.098 1.593-.295.359-.196.538-.425.538-.688a.53.53 0 0 0-.227-.43c-.149-.12-.412-.223-.788-.309-.255-.06-.841-.163-1.752-.312-1.174-.191-1.997-.427-2.47-.706-.666-.393-1-.871-1-1.436 0-.364.157-.703.469-1.021.313-.315.766-.557 1.354-.723.591-.165 1.301-.248 2.134-.248 1.364 0 2.387.196 3.076.589.687.394 1.048.917 1.083 1.573l-2.19.063c-.094-.367-.295-.631-.604-.791-.308-.161-.77-.241-1.386-.241-.636 0-1.136.085-1.495.258-.232.109-.349.257-.349.441 0 .17.108.314.326.434.275.153.947.312 2.012.477 1.066.166 1.854.337 2.364.513.51.178.909.418 1.2.726.288.308.432.687.432 1.137 0 .409-.172.793-.518 1.148-.346.357-.833.623-1.465.796-.631.174-1.419.261-2.361.261-1.371 0-2.424-.208-3.159-.625-.734-.416-1.173-1.024-1.314-1.822zM21.297 68.833v-7.136h2.189v7.136h-2.189zM35.354 68.833H32.97l-.947-1.622h-4.336l-.894 1.622H24.47l4.225-7.137h2.315l4.344 7.137zm-4.033-2.822l-1.495-2.649-1.464 2.649h2.959z" fill="#33a457"/></g></svg>