<?xml version="1.0" encoding="utf-8"?>
<!-- Generator: Adobe Illustrator 22.1.0, SVG Export Plug-In . SVG Version: 6.00 Build 0)  -->
<svg version="1.1" baseProfile="basic" id="Layer_1"
	 xmlns="http://www.w3.org/2000/svg" xmlns:xlink="http://www.w3.org/1999/xlink" x="0px" y="0px" viewBox="0 0 2491.1 653.8"
	 xml:space="preserve">
<g>
	<path fill="#989A9D" d="M2198.3,192.9c0-11.7-9.4-21.2-21.1-21.2h-31.3c-11.7,0-21.1,9.5-21.1,21.2v327.2
		c0,11.7,9.4,21.2,21.1,21.2h31.3c11.7,0,21.1-9.5,21.1-21.2V192.9z M2238.2,201.6v15.5c0,6.4,5.3,11.6,11.7,11.6h215.9
		c9.8,0,17.8-7.9,17.8-17.8v-26.3c0-9.9-8.1-18.8-17.9-17.8c0,0-208.7,20.5-215.4,21.2C2242.6,189,2238.2,195.2,2238.2,201.6
		 M2063.4,541.4c-53.7,0-87.5-40.7-87.5-86.1l0-130.9h-15.4c-8.2,0-14.8-6.6-14.8-14.8v-21.9c0-8.2,6.7-14.8,14.9-14.8l15.3,0
		l0-80.5c0-11.4,9.2-20.6,20.6-20.6l30.5,0c11.4,0,20.6,9.3,20.6,20.7v80.4h47.6c8.2,0,14.9,6.6,14.9,14.8v21.9
		c0,8.2-6.6,14.8-14.8,14.8l-47.6,0l0,121.1c0,23.8,14.4,40,40.2,40l4.3,0c8.9,0,16.1,7.2,16.1,16.1v23.8c0,8.9-7.2,16.1-16.1,16.1
		L2063.4,541.4 M1560.6,319.5c32.1,0,59.7,22.8,62.5,53.6h-124.5C1501.3,342.3,1528.5,319.5,1560.6,319.5v-56
		c-86.8,0-135.5,67.9-135.5,139.5c0,76.3,52.1,143.5,136.1,143.5c57.4,0,114.1-30.3,124.7-80c1.4-6.7-3.1-15.5-12.5-15.5h-41
		c-7.5,0-13.6,3.6-17.2,9c-11.7,17.2-29,26.4-54.4,26.4c-36,0-60.9-28.3-62.7-59.7l174.5,0c16.1,0,23.3-8.7,23.3-23.6
		c0-69.8-41.3-139.5-135.2-139.5L1560.6,319.5 M2355.9,319.5c32,0,59.7,22.8,62.5,53.6h-124.5
		C2296.6,342.3,2323.8,319.5,2355.9,319.5v-56c-86.8,0-135.5,67.9-135.5,139.5c0,76.3,52.2,143.5,136.1,143.5
		c57.4,0,114-30.3,124.7-80c1.4-6.7-3.1-15.5-12.5-15.5h-41c-7.4,0-13.5,3.6-17.2,9c-11.7,17.2-28.9,26.4-54.4,26.4
		c-35.9,0-60.9-28.3-62.8-59.7l174.6,0c16.1,0,23.3-8.7,23.3-23.6c0-69.8-41.3-139.5-135.2-139.5L2355.9,319.5"/>
	<path fill="#989A9D" d="M1917.2,175.4h-565.3c-12.9,0-23.2,10.4-23.2,23.3l1.9,222c0,0-121.8-220-128.2-231.3
		c-6-10.5-18.8-20.3-36.5-20.3h-46.5c-12.8,0-23.3,10.4-23.3,23.3l0,325.6c0,12.8,10.4,23.3,23.3,23.3h29.8
		c12.9,0,23.3-10.5,23.3-23.3l-1.9-228.3c0,0,123,222.3,128.2,231c7.1,11.8,19.1,20.6,36.5,20.6l42.7,0c12.9,0,23.3-10.5,23.3-23.3
		l0-287.5l516,0c8.8,0,15.9-7.1,15.9-15.9v-23.5C1933.1,182.5,1926,175.4,1917.2,175.4"/>
	<path fill="#989A9D" d="M1825.7,316.8c24.6,0,43,8.9,49.6,24.3c3.2,7.4,9.3,8.8,17.8,8.8h33.8c5.6,0,12-4.8,12-12.1
		c0-39.3-46.8-74.4-113.2-74.4c-68.7,0-113.7,32.7-113.7,84.8c0,39.9,31.5,63.6,70.2,73.7c17.6,4.6,47.8,12.1,62.4,15.9
		c15.8,4.2,30,9,30,22.5c0,21.4-22.5,28.7-47.2,28.7c-23.3,0-46.6-10.4-53.2-27c-3.9-9.6-10.6-11-20.9-11H1719
		c-6,0-12.9,5.2-12.9,13v4.4c0,38,51,77.9,121.4,77.9c49.9,0,119.4-20.7,119.4-87.7c0-38.8-25.9-65.6-68.1-76.3
		c-16.5-4.2-56.2-14.3-64.8-16.5c-15.4-4-29.7-9-29.7-22.1C1784.2,323.6,1802.7,316.8,1825.7,316.8 M574.2,100.2
		c6.3,0,11.3-5.1,11.3-11.3c0,0,0,0,0,0c0-6.3-5.1-11.3-11.3-11.3c0,0,0,0,0,0c-6.2,0-11.3,5.1-11.3,11.3
		C562.9,95.1,568,100.2,574.2,100.2 M422.1,80.1c5.3,0,9.5-4.3,9.5-9.5c0,0,0,0,0,0c0-5.3-4.3-9.5-9.5-9.5c-5.3,0-9.5,4.3-9.5,9.5
		C412.5,75.8,416.8,80.1,422.1,80.1C422.1,80.1,422.1,80.1,422.1,80.1 M308,313.2l-4.6-5c12.9-12,26.6-31.2,28.9-42.4
		c2.1-10.5,17.1-8.8,14.2,2.6C342.8,283,325,300.5,308,313.2 M211.5,84.1c-23.8,10.3-27.3,34.8-10.6,49.4
		c20.1,17.7,53.4,2.3,50.2-24.7c27,1.4,44.4-26.6,40.1-46.1c12-10.3,13.2-32.3-1.2-40.9c-15.4-9.3-30-5.7-39.3,12.1
		C225.9,32,202.2,51.5,211.5,84.1l-11.5-5c-15.1-31.6,11.3-63.9,43.8-56.5c6.5-15.7,30.7-32,56.8-16.2c20.9,12.6,25.3,45.2,3.1,61
		c10.4,30.4-10.4,55.2-42.1,52.4c-3.7,39.1-40.6,44.1-64.4,25.6c-13.5-10.5-19-25-21.5-36c-2.7-11.6-2.7-22-14.2-33.9
		c-8.6-9-24-8.7-24-8.7c0-28.4-26.6-54.4-59.6-41.8c-11.7-10.1-26.1-11.1-36.5,1.4c-6,7.2-9.3,26.2,9.2,34.9
		c-1,25.9,18.8,42.4,47.6,40.1c1.1,13.8,16.4,26.5,29.9,28.4l-0.1,6.9c-14.4-1.4-22.2,3.7-31.8,15.6c-33.9-1.6-57.7,13.5-56.7,37.8
		c-23.8,4.5-28.3,29.5-14.8,42.8c13.5,13.3,33.3,8.1,40.1-7.8c24.1,4.6,45.3-12.7,46.3-32.5c22.4,0,32.3-8.9,36-29.5l8.5,0.7
		c2.5,22.2-7.8,43.3-34.6,40.8c-0.7,26.6-26.5,41.4-50.5,32.3c-11.2,21-36.9,29.5-58.5,8.9c-20.8-19.9-13.2-53.9,14-62.1
		c0.6-26,19.9-50.8,57.2-41.2c0,0,4.8-11.6,16.5-12.3c-7.8-3.2-13.7-7.5-15.3-15.5c-28.2,6-52.1-19.9-45.7-46
		C13.2,55.1,12.8,29.9,25.4,15c13.1-15.6,35-19,54.6-2.2c33.2-18.4,70.7,4.1,68.4,41.9c23.2-1.5,37.3,18.7,34.7,39.9
		c3.8-9.3,8.3-13.6,16.9-15.5L211.5,84.1z"/>
	<path fill="#989A9D" d="M268.4,38.7l5.6,4c-10.9,22.9-30.1,47.3-46.6,60.7l-6.3-4.7C232.8,79.8,257.9,48.4,268.4,38.7 M106.2,164.8
		l3.8,5.6c-13.8,14.1-39.2,32.9-52.7,39.4l-5.3-5.7C65.1,190,90,171.6,106.2,164.8 M139,96.6l-6.6,8.2c-18-11.8-53.5-43.5-61.5-55
		l5.6-5.7C93.7,52.9,127.2,82.8,139,96.6 M105.7,397.6c2.1,10.3,0.3,21.7,9.6,32.8c3.3,3.9,21.3,27.6,34.3,39.9
		c-17.7,7-53.2,21.4-78.8,24.6c-5.1,0.6-10.9,4.2-15.7,7c-3.2,5.5-6.5,15.2-7.9,26.2c-1,7.9-0.9,16.7-0.9,25.6
		c0,7.9,4.2,32.7,13,49.3c8.8,16.6,17.3,24.1,27.7,28.9c2.1-0.9,6.6-1.6,13.7-1.7c19.3-0.4,34.4,10.2,41,19.4
		c2.5,3.5,7.7,4.2,14.4,4.2c15.6,0,32.7-5.1,48.9-11.3c3.5-2.9,13.3-9.4,22.9-16.9c9.6-7.6,63.2-53,86.9-64.5
		c12.5,6.8,33,15.5,54.2,15.5c1.2,0,5.3,0,9.6-0.9c6.6-1.5,15.1-4.5,25.8-6.5c19.1-3.7,41.5-7,48.1-6.9c17.6,0.3,69.1,1.6,81.3,1.6
		c12.8,0,31.1-1.1,38.1-1.8c10.8-3.5,34.8-10.2,57.8-20.8c23-10.2,71.3-43.8,79.2-51.4c3.8-3.5,7.2-7.2,9.8-10.6
		c1-1.3,1.3-1.8,1.3-2.8c0-1-0.2-33.9-0.2-33.9s11.6-12.9,16-17.3c0.4-0.4,0.5-1,0.4-1.4c-2-6.6-4-27-2.8-47.8l-11.7-5.5
		c-0.4,25.8-9.9,47.8-18.7,61.4c-17.4,2.7-50.6,13-62.6,26.7l6.6,1.9c11.2-6.2,23.3-10.5,37-10.5c12.1,0,17.5,3.2,17.5,6.6
		c0,2.4-2.3,8.2-3.2,10c-1.1,2.1-1.7,4.7-3.8,6.9c-16.4,17.8-34.9,33-57.6,45.6c-15.2,8.5-29.6,14.3-52.2,20.6
		c-6.7,1.9-16,4.6-22,6.7c-8.5-0.2-52.8-1.5-78.7-1.5c-25.9,0-79.2,3.8-96.2,8.1c-7.7,2-9.6,5-18.6,5c-16.7,0-38.7-8.5-52.1-15
		c-2,0.6-6.8,2.7-11.7,5.2c-9.5,4.7-30.8,34.2-43.2,25.3c-6.3,12.9-33.6,25.2-42.9,38.6c1.1-7,12-52.6,13.1-61.7
		c0.2-1.6,0.3-2.9-0.7-4.6c-10-16.6-37.7-27.2-53.4-30.3c-4.6-0.9-6.9-1.5-10-2.2l-24.7-7.5l-22.9,7.5l26.5,5.1l-33.6,22.2
		c5.8-2.2,42-12.3,44.7-13.1c3-0.9,6.9-1.7,11.2-0.2c4.9,1.7,18.9,4.9,27.2,7.8c4.9,1.7,12.9,10.7,15,15.5c0.8,2,1.2,6.2,1.7,15.4
		c0.3,5.8-1.2,14-2.6,20.3c-3.7,16.5-11.2,29.4-13.6,34c-3.3,6.4-7.8,8.4-12.3,10.5c-7.3,3.5-16.3,5.6-26.2,5.7
		c-6.8,0.1-11.4-0.3-14.3-4.2c-9.2-12.4-31.8-24.4-55-19.9c-14.2-8.6-28.3-36.3-28.3-58.4c0-13.2,6.7-34.1,10.3-44.6
		c23.1-3.1,69.3-20.7,91.8-30.9c4.7-0.2,17.6-4.8,30-4.8c30.2,0,60.3,26.5,78.5,44.3c3-4.9,8.6-12.4,24-12.4
		c21.4,0,33.7,19.5,39.8,39.5l11.2-8.1c-2-11.5-7.9-24-17-33c-7.4-7.4-21.5-13.5-32.5-13.5c-6.6,0-13.5,1.5-17.9,1.5
		c-15.3,0-21.5-6.8-32.8-14.6c-12.2-8.4-34.9-20.6-51.1-20.6c-10.4,0-15.1,4.1-23.7,4.1c-12.7,0-17.3-5.2-23.4-12.8
		c-2.6-3.3-15.5-14.6-18.9-19.2c-2-2.6-5.5-13.4-6.7-18.7L105.7,397.6z"/>
	<path fill="#989A9D" d="M123.1,410c3.7,3.9,7.2,8.3,11.8,11.8c4.5,3.4,10,6.3,15.3,9.3c7.4,4.2,15.9,9,24.2,11.7
		c7.3,2.2,16.8,3.1,25.7,3.1c12.7,0,27.7-2.6,40.1,3.2c8.3,3.9,8.9,12.7,15.5,15.2c10.3,4,38.9,4.9,54.8,4.9c31.4,0,65.5-4,85.6-8.8
		l-9.8-10.8c-13.9,2.3-54.7,6.7-73.4,6.7c-26.4,0-51.3-4.2-51.3-15.1c0-7.6,8.1-18.5,23.6-18.5c16.6,0,41.7,10,46.4,11.4
		c4.6,1.4,6.5,1,9.4-0.3l9.7-5c-12.9-6-57.8-21.5-73.4-21.5c-7.4,0-11.4,1.1-16.2,7.3c-6,7.7-22.1,14.8-47.6,14.8
		c-14,0-34.1-2.5-38.5-4.3c-7.7-3.2-22.8-11.9-32.5-18.9c-12.4-9-23.3-18.9-30.7-30.6c-2.3-3.6-3.3-7.6-3.3-11.2
		c0-3,0.9-5.8,1.2-8.1c2.2,3.1,4.6,5.3,7.7,8.2c13.5,13.2,33.5,23,54,27c5.8,1.1,11,2,16.8,2c8.8,0,16.8-4.7,22-9.3l-8.1-9.4
		c-2.6,0.8-8,0.8-11.5,0.8c-29.8,0-67.6-19.5-76.3-42c-0.9-2.2-1.9-3.4-1-5.5c0.9-2,1.9-6.4,2.6-10.5c1.7,2,5.4,5,9.9,8
		c11.1,7.1,32.2,16.9,36.3,19.5c10.6-3.1,18.6-6.6,25-9.9c6.2-3.2,14.7-6.1,24.5-6.1c21.8,0,46.8,12.4,70.2,24l16.1-6.3
		c-20.9-14.7-66.2-35.2-91.4-35.2c-14.9,0-28.9,10.9-38.8,10.9c-12.2,0-47.2-17.1-47.2-31.3c0-10.9,22.6-17.2,59.1-21.6
		c-6.3,9.4-12.3,19-17.9,28.8l9.3,5.2c57.1-82.7,116.4-136.3,166.4-169c18.1-11.9,22.3-18.8,28.6-31.8
		c15.5-31.6,30.1-55.9,55.5-55.9c11.8,0,21.5,6.7,28.2,14.9l18.4,5.5l-18.6,12.6l19,7.6c-24.8,6.9-58.7,31.1-72.4,66.5
		c-26.4,1.4-39.2,22.8-47.8,40.7c-5.8,12.1-15.1,16.9-28.6,26.1l-108.1,75.4l14.9,2.1l99.9-66.9c19.7-13.3,29.1-23.1,33.8-32.5
		c9.3-18.5,19.2-32.3,38.8-32.3c9.6,0,19.9,4.1,28.2,11.9l17.5,5.7l-19.1,11.7l16,9.9c-45.8,14.3-74.2,47.2-90.7,109.9l12.1,2.7
		c6.1-20.8,12.1-39.8,22.8-56.7c26.5-0.3,53.4-1.3,79.8-1.3c70.4,0,128.8,3,160.4,12.3l-11.2-19.4c-33.7-5.7-82.7-8.7-149.2-8.7
		c-22.3,0-44.9,0.8-67.3,1.1c14.5-15.3,35.3-28.2,67.4-38.2l-22.8-12.5l25.3-14L433.3,168c-6-5.4-13.5-10.4-23-12.8
		c11-33.9,48.7-53.7,84.7-67.4l-25.2-10.3l25.5-13.9l-39.2-12.5c-10.3-12-20.1-17.5-35.2-17.5c-36.4,0-51.6,31.6-66.1,59.6
		c-7.6,14.7-12.4,21-25.3,29.4c-28,18.3-63.6,46.3-97.7,82.1c-17.8-12.8-54.1-50.3-64-70.8c-3.9,4.8-7.7,15.3-7.7,15.3
		c3.7,3.9,46.5,47.2,62.4,65.5c-1.2,1.3-2.4,2.7-3.6,4c-17,3.4-61,7.6-76,5.6l-8.4,15c11.2-1.1,55-6.3,73.1-7.3
		c-5.6,6.7-11,13.6-16.2,20.6c-56.3,6.4-93.9,17.9-93.9,38.7c0,3.4,1.4,7.3,1.4,11c0,8.7-3.3,11.9-9.4,15.8c-4,2.5-4.3,4.3-2.6,6.7
		c1.7,2.4,10.4,15.3,10.4,17.8c0,4.2-4.2,8.3-7.5,12.1c-2.9,3.3-2.8,4.1-0.5,8.2l16.3,34.7L123.1,410z M820,216.9
		c-3.6,3.8-6.8,7.8-9.4,12.1l-9.1-12.7c30.3-40.4,110.3-59.3,157.1-62.6v-21.6c-5.9,1.8-12.4,3.9-18.3,5.3c-8.4,2-16.2,3.9-22.7,3.7
		c-6.6-0.1-11.9-2.8-14.3-6.3c-6.3-9-0.5-22.6,20.1-35.3L907.2,86c-12.6,16.3-24.9,34.2-37.5,44.9c-11.4,9.7-23.4,14.6-33,7.4
		c-5.2-3.9-7.2-5.7-7.7-15.8c0.7-14.9,9.7-37.7,17.7-52.3L827.5,68c-3.5,22.5-12.6,41.6-22.5,57.4c-12.3,19.7-28.1,33.5-44.4,44.8
		l-10.7-10.5c13.1-7.8,29.6-20.4,40.9-37.8c13.1-20.2,23.8-45.2,23.8-67.9l55.7,5.3c-7.8,10-20.7,32.6-25.6,48.9
		c-2.5,8.5-2.4,15.2,0.7,17.5c5.9,4.4,16.2-2.6,26.3-13.4c14.1-15.2,28-38.1,34.1-46.3L946,99.4c-17.9,9.5-35.2,20.3-31.8,26.4
		c3.2,5.6,14.6,3.9,27.2,0c10.3-3.2,21.2-7.9,29.9-13v54.4c-19.4-0.3-52.3,3.4-83.9,12.9c7.5,10.6,29.1,14.5,42.9,16.4l-6.9,44.2
		C888.7,226.2,862,217.7,820,216.9l13.9-11.9c30.9,0.6,61.9,9.6,79.5,18.5l2.5-16.7c-15.8-2.1-35.8-11.1-44.2-21.3
		c-13.8,5.2-26.8,11.6-37.8,19.5L820,216.9z"/>
	<path fill="#989A9D" d="M654.1,357.2l12.9-27.8c-13.5-16-28.7-36.2-41.5-56.8l-11.2-19.4c-25.8-49-16.4-72.3-30.2-93.9
		c-11.4-17.8-66.6-6.7-75.7-4.8l16-26.5l-31.5,2.5l26.7-31.7c2.9-4.1,4.3-7.9,7.4-18.9c4.7-16.7,19.1-45.2,61.1-45.2
		c46.7,0,61.1,37.8,81.5,54.2c23.1,18.6,53.4,44.7,80.3,70.8l10.7,10.5c13.8,14.1,27.9,28.6,40.9,46.1l9.1,12.7
		c56.2,82,125.9,238.7,156.8,310.5c3,7,5.1,14,7,19.4c-21-11.6-44.1-25.9-67.8-42.3l-13.9-9.7c-8.7-6.3-17.3-12.7-25.8-19.2
		l-14.2-11.2c-8.6-6.9-17-13.9-25.3-21L855.5,619c2.1,9.6,10.3,8,16.9-0.4c6.7-8.5,9.2-10.8,6.7-22l-26.4-120.1l14.2,11.2
		l25.3,102.1c2.4,9.2,6.3,12.1,17.1,12.6c10.8,0.5,13.1-3.7,10.8-10.8l-27.4-84.7l13.9,9.7l25.9,76.1c6.7,19.5,0,21.8-11.7,21.8
		c-11.7,0-22.2-2.7-28.6,1.4c-6.4,4.1-14.4,15.4-24.1,25.2c-8.5,8.7-20.9,6.4-23.3-9.9l-31-187.8c-20.2-18.2-39.5-37.3-56.7-56.8
		c-7.6-3.2-16.1-7.1-23.6-10.6l-11.7-5.5c-4.1-1.9-7.2-3.3-8.4-3.6c-8.6,10.3-16.8,21.8-26.4,30.1c-5.1,4.4-8.6,6.9-16.2,6.9
		c-2.3,0-5.2,0-7.9-1.5c-2.9-1.6-5.6-4.9-8.6-9.4c-2.3-3.5-5.7-8-8.6-12.9c-6.1-10.3-12.8-23.2-18.7-33.7
		c-6.7-11.7-12.4-20.5-13.2-22c-1.2-2.2-4.5-5-4.5-5c-3.3,5.3-5.7,15.6-5.7,21.3l-11.7-3.9c1.5-7.7,4.6-17.7,6.4-22.5
		c0-4.1-4.6-9.6-8.4-9.6c-5.3,0-10.8,5.8-13.6,17l-11.8,5.2c1.4-18,7.6-37.8,25.4-37.8c14.4,0,23.3,11,30.2,21.3
		C626.8,320.5,649.3,351.2,654.1,357.2l8.9,11.3c1.5,7,4.6,11.1,6,13.4c3.1,4.8,6.5,4.5,11.2,0.2c2.1-1.9,8.9-7.5,15.5-14.4
		c5.7-6,11.3-13.2,13.5-16.9c6.6,2.9,18.7,8.8,28.6,13.1c-42.2-52-82.5-115-100.1-157.9c-7.2-17.7,6.9-23.7,13.8-6.2
		c18.6,47.4,72.8,131.2,112.7,175.2c46.1,50.8,130.5,124.4,185.5,153.9c-8-15.6-18.5-37.9-30.6-63.8
		C852.3,427.4,784.7,358,753.2,298.4l13.9,1.6c29.3,51.8,99.3,121,140.7,141.1c-37.8-80.3-87-182-125.5-225.7
		c-47.7-54.3-99.7-96.2-124.5-118.1c-24.5-21.5-34.6-48.6-69.8-48.6c-29.1,0-44.4,21-50.2,42.1c-1.2,4.1-1.9,6.7-4.8,11l-13.8,16.5
		l29.7-3.6l-17.2,24.1c0,0,46.6-10.5,62.9,11.7c17.6,23.9,6.2,50.7,35,102.7c12.7,22.9,43.3,64,53.6,73.2l-20.1,42.2L654.1,357.2z
		 M196.4,364.4l-7-4.8c3.9-3.3,11.7-8.4,19.4-11.7c4-1.7,8.5-2.5,11.8-2.5c7.9,0,14.7,3.3,21.3,6.8c10.5,5.6,22.3,12.2,31.3,12.2
		c3.5,0,6.8-0.8,10.6-0.8c8.9,0,17.5,4,22.4,4c3,0,5-2.7,7-5.5c4.9-7.1,11.7-12.4,20.4-16c9.3-3.9,20.6-5.5,32.8-5.5
		c9.6,0,18.8,1.4,23.6,2.4c0,0-7.3,8.8-9.2,10.8c-9.7,0-28.2-0.3-40.1,4.5c-7.3,3-9.9,7.2-9.9,13.3c0,8.8,9.8,12.2,20.7,15.5
		c6.4,2,13.6,2.4,19.7,2.4c7.5,0,21.8-2.8,36-5.9c17.1-3.8,33-8.2,37.6-10l6.2,11.1c-19,6.5-38.5,12.6-56.6,16.2
		c-10.2,2.1-19.9,3.4-28.6,3.4c-14.5,0-30.2-6.1-43.2-12.3c-10.9-5.2-20.7-10.4-29.3-10.4c-9.8,0-19,3.4-28.1,8.6
		c-4.4,2.5-17.8,11.7-29.7,16.4c-9.1,3.6-16.6,5.6-25.9,5.6c-8.2,0-13.2-1.2-17.5-4.5l14.4-8.8c1.8,1.8,5.1,2.2,7.2,2.2
		c2.1,0,4.6-0.2,10.2-2.6c3.2-1.3,7.9-4.2,10.6-6c5.7-3.6,7.6-5.8,9.8-7.6c4.4-3.4,5.9-8,0.4-12.9c-2.6-2.3-5.3-4.7-8.8-6.8
		c-4.9-3-8.5-5.9-17.5-5.9C207.9,359.4,200.5,362.3,196.4,364.4"/>
	<path fill="#989A9D" d="M396.3,370.1c0,0-8.5-2.3-11.5-2.6c5.8-7.9,13.3-14.4,19.2-18.4c11.6-7.9,23.8-12.2,42.3-13.3
		c5-0.3,15.3-1.3,20.9-1c5.2,0.2,13.9,0.6,21.9,2.1c5.7,1.1,11,2.6,15.3,3.3c2.7,0.4,12,0.3,15.2-0.2c13.1-2.1,28.8-7.1,37-11.6
		l3.5,12.5c-17.6,9-37.6,17.7-55.8,17.7c-9.3,0-19.2-0.7-28.4-1.6c-16.2-1.5-30.3-3.7-35.1-3.7C427.8,353.3,408.9,359.4,396.3,370.1
		 M383.3,439.9l-16.6-7.6c23-11.6,58.2-23.3,72.6-25.6c14.4-2.3,30.9-4,40.4-7.2c4.4,11,12.9,22.8,25.3,22.8
		c4.5,0,11.9-3.4,19.4-6.7c8.4-3.7,16.8-7.7,21.1-9.7c4.7-2.1,20-8.8,32.9-14.6c5-2.2,18.6-8.7,19.3-9.1l8.7,4.7
		c-2.6,11.5-6.9,25.5-11.8,35.6c-1.9,3.9-3.8,7.2-5.9,9.5c-3.8,4.3-9.9,9.9-17.9,15.6c-8.7,6.2-19.3,12.5-30.6,19
		c-8.8,5-17.6,10.2-26.5,14.3l-4.6-8.4c13.8-7.8,27.8-17.7,40.1-26.8c5.8-4.3,11.5-8.7,15.5-12.4c3-2.7,4.9-5,6.4-7.2
		c3.7-5.4,9.6-15.9,11.5-20.9c-5.1,2.5-24.6,11.7-33.3,16.3c-9.8,5.2-25.8,13.3-34.7,17.5c-7,3.3-13.3,5.1-17.8,5.1
		c-10,0-14.5-7.2-17-11.5c-6.3-11.2-13.1-12.3-30.8-12.5C428.4,419.7,400.1,428.3,383.3,439.9 M480.1,388.2c0,0-2.4-9.8-3.6-13.4
		c0,0,2.9-0.9,6.7-0.9c6.2,0,21.4,1.7,27.8,1.7c23.9,0,32.7-7.5,39.7-13.8c6-5.4,12.1-9.8,28.3-9.8c14.3,0,30.7,5.8,35.4,8.1l-1,13
		c-7-3.9-16.6-6.5-25.1-6.5c-5.9,0-11.2,0.5-15,2.4c-4.2,2.2-6.8,5.5-10.7,8.7c-4.2,3.5-10,6.8-17.5,9.6c-7.5,2.8-16.9,4.7-30.8,4.7
		C495.8,391.9,485.8,388.9,480.1,388.2"/>
	<path fill="#989A9D" d="M329,486.5l11-4.6c10.1,3.9,24.7,8.3,34.8,8.3c6.1,0,11.1-2.2,15.3-4c3.2-1.4,39.9-19.4,58.1-26
		c5.8-2.1,11.6-3.3,14.5-3.3c4.4,0,4.6,2,5.8,3.9c3.4,5.5,30.5,44.1,33.2,47.1c23-7.1,46.5-17.4,60-30.4
		c14.1-13.6,25.8-29.4,37.2-41.6c4.4-4.7,9.8-9,12.5-10.4c11.7-6.2,48.2-6.8,63.6-6.1l-9.1,12.9c-27,0-42.1,2.8-48.9,7.9
		c-2.9,2.2-7.2,6.5-11.4,11.9c-9.2,12-19.3,28.5-23.3,31.7c7.9,5.5,16.5,10.3,30.3,10.3c22.9,0,39.3-14.3,48.3-22.4l7.7,4.6
		c-5.7,7.4-12.2,15-20.5,20.6c-9.2,6.2-20.8,10.3-27.7,12.2c-13.3-2.5-42.5-8.4-49.4-9.8c-25.3,10.3-66.5,27-80.4,31.2
		c-2,0.6-5.2,1.1-9.3,1.5c-11,0.6-26.2,0.5-40,0.3c-9.8-0.1-19.2,0-23.8-0.9l-12.2-12.8c10.7,2.1,15,2.7,25,2.7
		c23.8,0,39.2-4,44.2-5.3c4.2-1.1,4.9-3.6,3.7-7.4c-2-6.1-5.5-11.9-10.9-18.1c-2.9-3.4-9.3-9.1-12-10.9c-3.3-2.2-6.5-2.8-15.5,0.3
		c-8.3,2.8-34.2,16.8-45.4,22.7c-5.5,2.9-9.8,3.8-19.7,1.5C364.1,501.8,339.1,492.7,329,486.5 M400.7,199.6c5.2,0,9.4-4.2,9.4-9.4
		s-4.2-9.4-9.4-9.4c-5.2,0-9.4,4.2-9.4,9.4S395.5,199.6,400.7,199.6"/>
</g>
</svg>
