<svg xmlns="http://www.w3.org/2000/svg" width="2500" height="2500" viewBox="0 0 192.756 192.756"><g fill-rule="evenodd" clip-rule="evenodd"><path fill="#fff" d="M0 0h192.756v192.756H0V0z"/><path d="M8.787 86.752l-.186 32.713-5.767-.033.27-47.19 9.298.053 5.22 31.154.753 6.203h.125l-.123-13.33.137-23.992 5.767.032-.269 47.191-8.919-.051-5.487-31.869-.845-6.483-.141-.001.167 5.603zM83.19 72.698l-.033 5.915-6.136-.034-.235 41.273-6.597-.038.235-41.273-6.19-.035.034-5.916 18.922.108zM121.209 112.482c-.014 2.387.75 2.922 2.283 2.93 1.463.008 2.232-.518 2.246-2.904l.182-31.945c.014-2.386-.75-2.92-2.213-2.929-1.533-.009-2.303.518-2.316 2.903l-.182 31.945zm-6.732-32.581c.035-6.164 4.883-7.925 9.191-7.901 4.375.025 9.203 1.842 9.168 8.006l-.189 33.139c-.035 6.164-4.883 7.926-9.258 7.9-4.309-.023-9.137-1.842-9.102-8.006l.19-33.138zM154.555 120.295l.269-47.189 6.53.037-.235 41.273 9.443.055-.035 5.914-15.972-.09zM171.623 73.201l8.482.048c6.961.039 9.863 2.442 9.816 10.727l-.16 27.969c-.025 4.508-2.965 8.533-8.398 8.502l-10.008-.057.268-47.189zm6.719 41.596l1.975.012c1.791.01 2.654-.449 2.672-3.498l.164-28.897c.018-3.049-.842-3.518-2.631-3.528l-1.977-.011-.203 35.922zM42.565 94.477l-.047 8.269c-.022 3.91-3.24 6.346-8.325 6.316s-8.275-2.5-8.253-6.41l.141-24.626c.022-3.91 3.241-6.344 8.325-6.315 5.085.029 8.275 2.5 8.253 6.41l-.075 13.175-10.139-.058-.065 11.319c-.01 1.723.865 1.859 1.84 1.865s1.851-.121 1.86-1.844l.047-8.138 6.438.037zm-6.346-16.26c.009-1.723-.865-1.861-1.84-1.866-.975-.006-1.851.122-1.861 1.845l-.049 8.602 3.7.021.05-8.602zM48.424 94.041l-5.845 25.598 6.561.037 3.131-14.645.891-4.824h.201l.836 4.836 2.964 14.678 6.562.037-5.554-25.662 5.822-21.508-6.561-.037-2.87 12.29-1.139 4.825-.202-.001-1.082-4.837-2.73-12.322-6.562-.038 5.577 21.573zM102.109 72.806l2.409 23.075.759 9.883h.149l.467-9.875 1.521-23.053 6.336.036-4.139 47.167-7.603-.043-2.727-25.459-.595-9.259-.155-.001-.758 9.251-2.956 25.427-7.735-.045-3.469-47.21 6.336.036 1.259 23.069.355 9.881h.163l.857-9.873 2.67-23.047 6.856.04zM134.688 72.991l8.783.05c5.633.032 9.316 2.042 9.281 8.139l-.041 7.189c-.02 3.306-.875 5.866-4.598 6.888 1.98.354 4.139 2.039 4.504 6.35l.154 18.678-6.531-.037-.139-18.029c.018-2.85-1.781-3.986-5.029-3.873l-.125 21.871-6.529-.037.27-47.189zm6.417 19.589l2.316.013c2.453.014 2.99-1.309 3-3.032l.051-8.798c.01-1.789-1.047-2.325-2.639-2.334l-2.648-.015-.08 14.166zM42.121 119.66l.053-9.326-15.987-.09-.054 9.324 15.988.092z"/></g></svg>