<svg xmlns="http://www.w3.org/2000/svg" width="2500" height="2500" viewBox="0 0 192.756 192.756"><path fill-rule="evenodd" clip-rule="evenodd" fill="#fff" d="M0 0h192.756v192.756H0V0z"/><path d="M151.564 70.157v.23c-4.201 2.639-8.514 5.966-11.918 9.522 0 0-7.266 8.949-9.875 14.685-2.725 5.851-11.123 16.636-11.123 16.636-5.676 5.965-13.395 10.555-21.566 13.078-6.583 1.836-15.436 2.295-21.451-.459-.454-.344-2.157-.918-1.816-1.146 2.384-.689 9.307-4.705 13.733-9.867 4.54-5.393 8.854-11.816 12.94-19.389 2.951-5.736 6.695-10.096 6.695-10.096s3.973-4.589 4.541-5.163c8.967-7.801 19.75-12.505 33.369-10.44 2.386.459 4.542 1.147 6.471 2.409z" fill-rule="evenodd" clip-rule="evenodd" fill="#fff"/><path d="M151.564 70.157v.229c-4.201 2.639-8.514 5.966-11.918 9.522 0 0-7.266 8.949-9.875 14.685-2.725 5.851-11.123 16.636-11.123 16.636-5.676 5.965-13.395 10.555-21.566 13.078-6.583 1.836-15.436 2.295-21.451-.459-.454-.344-2.157-.918-1.816-1.146 2.384-.689 9.307-4.705 13.734-9.867 4.54-5.393 8.853-11.816 12.939-19.389 2.951-5.736 6.695-10.096 6.695-10.096s3.973-4.589 4.541-5.163c8.967-7.801 19.75-12.505 33.369-10.44 2.386.46 4.542 1.148 6.471 2.41" fill="none" stroke="#0c0e0f" stroke-width=".956" stroke-miterlimit="2.613"/><path d="M86.3 69.813v.229c-4.2 2.639-8.626 5.966-11.918 9.522 0 0-7.264 8.949-9.875 14.8C61.784 100.102 53.271 111 53.271 111c-5.562 5.852-13.28 10.441-21.452 13.08-6.583 1.721-15.437 2.295-21.452-.574-.567-.229-2.157-.918-1.816-1.146 2.384-.689 9.308-4.59 13.734-9.867 4.54-5.393 8.853-11.703 12.826-19.39 3.064-5.622 6.81-10.096 6.81-10.096s3.973-4.589 4.54-5.163c8.967-7.802 19.75-12.391 33.37-10.44 2.383.573 4.54 1.147 6.469 2.409z" fill-rule="evenodd" clip-rule="evenodd" fill="#fff"/><path d="M86.3 69.813v.229c-4.2 2.639-8.626 5.966-11.918 9.522 0 0-7.264 8.949-9.875 14.8C61.784 100.102 53.271 111 53.271 111c-5.562 5.852-13.28 10.441-21.452 13.08-6.583 1.721-15.437 2.295-21.452-.574-.567-.229-2.157-.918-1.816-1.146 2.384-.689 9.308-4.59 13.734-9.867 4.54-5.393 8.853-11.703 12.826-19.39 3.064-5.622 6.81-10.096 6.81-10.096s3.973-4.589 4.54-5.163c8.967-7.802 19.75-12.391 33.37-10.44 2.383.573 4.54 1.147 6.469 2.409" fill="none" stroke="#0c0e0f" stroke-width=".956" stroke-miterlimit="2.613"/><path d="M118.988 70.042v.229c-4.312 2.639-8.625 5.966-12.031 9.637 0 0-7.15 8.949-9.875 14.685-2.61 5.736-11.123 16.636-11.123 16.636-5.675 5.85-13.28 10.555-21.452 13.078-6.697 1.721-15.437 2.295-21.565-.574-.454-.229-2.157-.916-1.703-1.146 2.384-.688 9.307-4.59 13.733-9.867 4.541-5.277 8.854-11.701 12.826-19.388 3.064-5.622 6.81-10.097 6.81-10.097s3.859-4.589 4.54-5.048c8.967-7.916 19.749-12.505 33.257-10.555 2.384.575 4.54 1.149 6.583 2.41z" fill-rule="evenodd" clip-rule="evenodd" fill="#fff"/><path d="M118.988 70.042v.229c-4.312 2.639-8.625 5.966-12.031 9.637 0 0-7.15 8.949-9.875 14.685-2.61 5.736-11.123 16.636-11.123 16.636-5.675 5.852-13.28 10.555-21.452 13.078-6.697 1.721-15.437 2.295-21.565-.572-.454-.23-2.157-.918-1.703-1.148 2.384-.688 9.307-4.59 13.733-9.867 4.541-5.277 8.854-11.701 12.826-19.388 3.064-5.622 6.81-10.097 6.81-10.097s3.859-4.589 4.54-5.048c8.967-7.916 19.749-12.505 33.257-10.555 2.384.575 4.54 1.149 6.583 2.41" fill="none" stroke="#0c0e0f" stroke-width=".956" stroke-miterlimit="2.613"/><path d="M184.252 70.042v.229c-4.199 2.639-8.625 5.966-11.918 9.522 0 0-7.264 8.948-9.988 14.8-2.609 5.736-11.123 16.521-11.123 16.521-5.561 5.965-13.279 10.555-21.451 13.078-6.584 1.836-15.436 2.41-21.453-.459-.566-.344-2.156-.916-1.814-1.146 2.383-.688 9.307-4.703 13.732-9.867 4.541-5.391 8.854-11.816 12.826-19.388 3.064-5.622 6.811-10.097 6.811-10.097s3.973-4.589 4.539-5.163c8.967-7.801 19.75-12.505 33.371-10.44 2.382.46 4.538 1.149 6.468 2.41z" fill-rule="evenodd" clip-rule="evenodd" fill="#fff"/><path d="M184.252 70.042v.229c-4.199 2.639-8.625 5.966-11.918 9.522 0 0-7.264 8.949-9.988 14.8-2.609 5.736-11.123 16.521-11.123 16.521-5.561 5.967-13.279 10.555-21.451 13.078-6.584 1.836-15.436 2.41-21.453-.457-.566-.346-2.156-.918-1.814-1.148 2.383-.688 9.307-4.703 13.732-9.867 4.541-5.391 8.854-11.816 12.826-19.388 3.064-5.622 6.811-10.097 6.811-10.097s3.973-4.589 4.539-5.163c8.967-7.801 19.75-12.505 33.371-10.44 2.382.46 4.538 1.149 6.468 2.41" fill="none" stroke="#0c0e0f" stroke-width=".956" stroke-miterlimit="2.613"/><path d="M28.528 109.51H17.631l11.124-25.241c1.929-4.245 6.129-5.393 8.286-5.393 3.064 0 4.54 1.836 4.767 3.442l1.362 9.522h.113l5.562-12.505h10.783l-11.123 25.356c-1.929 4.244-6.129 5.391-8.286 5.391-3.064 0-4.54-1.836-4.767-3.441L34.09 97.12h-.113l-5.449 12.39zM53.271 109.51l13.053-24.323c2.724-5.163 6.583-6.31 9.988-6.31 4.994 0 5.902 1.262 5.448 4.818l-1.362 9.293h.113l6.924-9.293c2.497-3.557 4.54-4.818 9.534-4.818 3.406 0 6.242 1.147 4.427 6.31L93.11 109.51H82.555l6.583-17.784-9.534 13.194c-3.064 4.244-3.973 5.049-6.697 5.049-2.61 0-2.837-.805-2.156-5.049l2.156-13.194h-.113l-8.967 17.784H53.271zM99.012 109.51l13.053-24.323c2.725-5.163 6.584-6.31 9.988-6.31 5.107 0 5.902 1.262 5.449 4.818l-1.363 9.293h.113l6.924-9.293c2.611-3.557 4.541-4.818 9.648-4.818 3.291 0 6.129 1.147 4.426 6.31l-8.398 24.323h-10.557l6.697-17.784h-.113l-9.533 13.194c-3.066 4.244-3.975 5.049-6.697 5.049-2.611 0-2.838-.805-2.156-5.049l2.156-13.194h-.113l-8.967 17.784H99.012zM165.184 92.644h3.406l1.135-2.639c.68-1.492 0-2.41-1.363-2.41-1.475 0-2.836.918-3.518 2.41l-8.627 19.504h-10.783l8.4-19.275c1.93-4.245 8.625-11.358 18.387-11.358s10.102 7.113 8.285 11.358l-8.512 19.275h-10.783l3.973-9.18h-3.291l3.291-7.685z" fill-rule="evenodd" clip-rule="evenodd" fill="#2e6baa" stroke="#2e6baa" stroke-width=".956" stroke-miterlimit="2.613"/></svg>