<svg xmlns="http://www.w3.org/2000/svg" width="2500" height="2500" viewBox="0 0 192.756 192.756"><path fill-rule="evenodd" clip-rule="evenodd" fill="#fff" d="M0 0h192.756v192.756H0V0z"/><path fill-rule="evenodd" clip-rule="evenodd" fill="#f3d83c" d="M120.521 89.091h39.934v10.361h-27.127v4.591h27.127v27.126h-39.934v-12.204h27.125v-3.654h-27.125v-26.22zM84.213 100.993v19.513h17.701v-19.513H84.213zM71.738 89.091v42.078h43.588V89.091H71.738z"/><path fill-rule="evenodd" clip-rule="evenodd" fill="#f3d83c" d="M17.758 131.169l-.242-62.438h18.306l16.069 33.167-.211-33.167h113.728v-8.85l17.067 17.067-17.217 17.247v-9.907H66.935l.211 46.881H49.173l-16.16-30.78v30.78H17.758z"/><path d="M16.5 131.169l-.242-62.438-.004-1.259H36.608l.346.712 13.645 28.164-.176-27.612-.008-1.264h113.737V56.842l2.148 2.148 17.066 17.067.887.887-.887.888-17.217 17.249L164 97.233V85.546H68.199l.206 45.618.006 1.263H48.416l-.354-.674-13.791-26.267v26.941H16.505l-.005-1.258zm104.021-43.337h41.192v12.878h-27.125v2.074h27.125v29.643h-42.45v-14.721h27.125v-1.138h-27.125V87.831h1.258v.001zm38.674 2.518h-37.416v23.702H148.906V120.224H121.779v9.687h37.416v-24.608H132.07v-7.109h27.125V90.35zm-73.723 11.901v16.996h15.185v-16.996H85.472zm-2.518 18.255V99.733h20.218V121.765H82.954v-1.259zM72.996 90.35v39.561h41.07V90.35h-41.07zm-2.517 40.819V87.832H116.584V132.427H70.479v-1.258zM18.78 69.99l.232 59.92h12.742V95.29l2.37 4.514 15.808 30.106h15.951l-.206-45.618-.006-1.263H166.516v8.129L180.7 76.951l-14.031-14.032v7.071H52.947l.203 31.903.036 5.555-2.425-5.004L35.037 69.99H18.78z"/></svg>