<svg xmlns="http://www.w3.org/2000/svg" width="2500" height="2500" viewBox="0 0 192.756 192.756"><g fill-rule="evenodd" clip-rule="evenodd"><path fill="#fff" d="M0 0h192.756v192.756H0V0z"/><path d="M102.584 83.525c3.021 0 5.881 2.417 5.881 5.037l-.039 17.627c0 2.82-1.512 4.734-4.312 4.734l-16.539.061-2.518-2.277 2.518-25.182h15.009zm-8.986 6.749v14.243l6.781.012c1.6 0 2.285-.857 2.285-2.066V92.188c0-.604-1.289-1.863-2.922-1.863l-6.144-.051zM79.079 110.57l-6.412.051-3.223-1.619 1.778-3.186h-9.791l-2.417 4.594h-5.198l-3.51-1.545L64.408 81.41l4.276 1.441 10.395 27.719zm-9.912-10.314l-2.9-7.494-2.901 7.494h5.801zM38.646 83.702c3.475 0 7.237 1.587 7.237 5.349l-.06 9.534c0 2.721-1.965 5.455-4.291 5.455l-8.461-.016v7.252l-5.439.016-2.13-2.357 2.13-25.202 11.014-.031zm-5.212 6.799v7.253h4.956c2.825 0 2.674-7.253.483-7.253h-5.439zM184.252 71.841H8.504v-8.703h175.748v8.703zM184.252 73.896H8.504v-.846l175.748.242v.604zM152.039 81.41l4.029 2.398 5.803 9.307 5.318-9.307 1.973-2.297 4.916 2.297-9.549 13.921v13.396h-5.841l-3.526-2.316 3.567-11.342-9.549-13.659 2.859-2.398z" fill="#9a7a2b"/><path d="M99.561 80.706c3.023 0 5.883 2.417 5.883 5.036l-.041 17.627c0 2.82-1.51 4.734-4.311 4.734l-16.539.061V80.706h15.008zm-8.985 6.748v14.243l6.781.012c1.6 0 2.285-.857 2.285-2.066V89.368c0-.605-1.289-1.863-2.922-1.863l-6.144-.051z"/><path d="M135.139 83.525c3.021 0 5.881 2.417 5.881 5.037l-.039 17.627c0 2.82-1.512 4.734-4.312 4.734l-16.539.061-2.518-2.277 2.518-25.182h15.009zm-8.987 6.749v14.243l6.783.012c1.598 0 2.283-.857 2.283-2.066V92.188c0-.604-1.289-1.863-2.922-1.863l-6.144-.051z" fill="#9a7a2b"/><path d="M132.115 80.706c3.023 0 5.883 2.417 5.883 5.036l-.039 17.627c0 2.82-1.512 4.734-4.312 4.734l-16.539.061V80.706h15.007zm-8.984 6.748v14.243l6.783.012c1.598 0 2.283-.857 2.283-2.066V89.368c0-.605-1.289-1.863-2.922-1.863l-6.144-.051zM75.226 108.506h-6.387l-1.47-4.754h-9.791l-2.418 4.594h-5.197l10.153-27.56h4.714l10.396 27.72zm-9.912-10.315l-2.9-7.494-2.901 7.494h5.801z"/><path fill="#9a7a2b" d="M184.252 119.949H8.504v-.845h175.748v.845zM184.252 129.617H8.504v-8.219h175.748v8.219z"/><path d="M36.078 80.756c3.475 0 7.237 1.586 7.237 5.348l-.06 9.534c0 2.719-1.964 5.454-4.291 5.454l-8.46-.014v7.252l-5.439.016v-27.56l11.013-.03zm-5.213 6.799v7.252h4.957c2.825 0 2.674-7.252.482-7.252h-5.439zM152.342 80.786l5.803 9.307 5.318-9.307h6.889l-9.549 13.92v13.398h-5.842l.041-13.659-9.551-13.659h6.891z"/></g></svg>