<svg height="458" viewBox="15.1 15.8 860 137.6" width="2500" xmlns="http://www.w3.org/2000/svg"><g fill="#6c6363"><path d="m15.5 17.1c-.3.8-.4 24.6-.3 52.9l.3 51.5 2.4.3c1.2.2 3.4.1 4.7-.2l2.4-.6v-20.8c0-14.8.3-21.1 1.2-22 .8-.8 5.8-1.2 15.8-1.2 22.4 0 29.2-1.9 36.5-10.1 5.1-5.7 7-11.3 7-20.4 0-12.8-5.5-22-16.3-27.1-5.6-2.7-6.1-2.8-29.4-3.2-19.5-.4-23.9-.2-24.3.9zm47.9 8.4c5.4 2.6 10.1 8.6 12 15.5 1.5 5.4 1.5 6.4.1 11.2-2.5 8.8-6.3 13.1-14.1 16.3-3.2 1.2-7.2 1.5-19.9 1.3l-16-.3-.3-21.9c-.2-16.4.1-22.2 1-23.4 1.9-2.2 31.9-1.2 37.2 1.3zm368.3-8.9c-.4.4-.7 18.2-.7 39.5 0 35.1-.2 39-1.7 41.8-2.6 4.5-6.8 6.1-16.2 6.1h-8.1v8.5c0 10.5.1 10.6 15.5 10.7 19.1.2 27.8-4.4 32-16.8 1.9-5.5 2-8.5 2-47.9v-42l-11.1-.3c-6-.1-11.3.1-11.7.4zm432.3 14.8c0 1.4.5 2.8 1 3.1.6.3 1-.5 1-1.9s-.4-2.8-1-3.1-1 .5-1 1.9zm9 .6c0 1.9.3 2.1 1.2 1.2s.9-1.5 0-2.4-1.2-.7-1.2 1.2zm-644.6 1.9c-1.9 1.2-3.9 3.8-5.3 7-1.2 2.8-2.4 5.1-2.7 5.1s-2.8-.7-5.5-1.6c-6.7-2.2-20.7-1.4-26.4 1.4-15.8 8-19.1 26.7-7.1 40l3.6 3.9-5.3 3.9c-5.2 3.9-5.2 4-5.5 9.9-.2 5.3.1 6.3 2.3 8.7 1.4 1.6 3 2.8 3.6 2.8 2.2 0 .2 2.9-4.1 6.2-7.8 5.9-9 15.3-2.9 22.3 3.9 4.4 7.6 6.2 16.4 8 9 1.9 19.9 1.9 30 0 14.7-2.8 20.5-6.5 23.1-14.9 1.6-5 1.6-5.6-.1-10.1-4.1-10.5-10.6-13-36.8-13.9-16.6-.6-20.1-1.5-23.1-5.8-2.4-3.3-1.9-6.4 1.3-10l2.9-3.3 13.4-.1c10.9-.1 13.9-.4 16.8-1.9 6.3-3.3 9.6-6.4 12.3-11.4 4.6-8.3 3.5-17.9-3-28.2-2-3.2-1.2-6.9 2.3-10.4 1.4-1.4 3.6-2.5 5-2.5 3.9 0 6.4-1.8 6.4-4.5 0-2.3-.4-2.5-4.2-2.5-2.4 0-5.6.8-7.4 1.9zm-16.2 16.3c15.7 8.8 15.7 27.8-.1 36.6-3.3 1.9-14.1 1.8-17.8-.2-8.2-4.2-12.1-11.8-10.8-21.1 1-7.8 6.4-14 14.1-16.5 3.7-1.2 11.5-.5 14.6 1.2zm13.2 71c7.9 2 12.4 9.5 9 15.2-3.8 6.4-7.8 8.4-20 9.9-12.9 1.5-24.8-.1-30.7-4-9.1-6.2-7.9-18.2 2.2-22.5 2.3-.9 34.9.2 39.5 1.4zm-112.4-77.3c-8.8 2.1-15.9 6.9-18.6 12.7-1.9 4-1.9 3.9 2.2 4.8 2.6.6 3.4.3 4.7-1.8 5.7-8.6 11-11.1 23.7-11.1 8.9 0 9.8.2 13.9 3 6.3 4.3 8.2 8.4 7.9 17l-.3 7-16 .6c-17.4.7-24.3 2.2-30.5 6.8-4.5 3.3-5.7 4.7-8 9.9-4.9 10.8.3 23.1 11.8 28.2 3.4 1.5 6.7 2 13.8 2 5.1 0 9.5-.4 9.8-.9s1.8-1.2 3.2-1.5c3.4-.9 11.3-8.3 12-11.3.7-2.5 2.8-3.1 4.1-1.1.4.7 1.2 4 1.8 7.3.9 5.1 1.4 6.1 3.4 6.3 2.9.5 5.4-1.6 4.5-3.7-.4-.9-1-14.9-1.3-31.1l-.6-29.5-3-4.5c-1.8-2.5-5-5.6-7.5-7-3.9-2.1-5.9-2.4-16-2.6-6.3-.2-13.1.1-15 .5zm33.8 43.4c.8 14.7-14 30.7-28.3 30.7-3 0-5.6-.4-5.9-.9-.3-.4-1.9-1.1-3.6-1.4-1.9-.4-4-2.1-6-4.8-2.5-3.5-3-5.1-3-9.9 0-8.7 3.6-13 15-17.9 3.9-1.6 6.6-1.9 19.5-1.7l12 .1z"/><path d="m269.5 43.6c-8.5 2.2-17.9 9.9-21.4 17.6-11.1 24.4-3 52.2 17.4 59.9 6.3 2.4 19.5 2.6 25.1.4 8.9-3.5 14.6-8 17.8-13.9 2.2-4.1 2.2-4.1-2-5-2.7-.6-3.3-.3-6.3 3.9-1.7 2.4-5.3 5.7-7.9 7.2-4.1 2.4-5.8 2.8-12.7 2.8s-8.6-.4-12.7-2.8c-7.6-4.4-12.3-11.9-13.4-21-.4-3.1-.4-6.7 0-8.1l.6-2.6h29.1c24.4 0 29.1-.2 29.5-1.5.7-1.8-2.1-14.8-4.3-19.5-2.6-5.9-7.8-11.4-13.4-14.5-4.7-2.5-6.6-2.9-14.4-3.1-4.9-.2-9.9 0-11 .2zm18.9 6.4c8.4 3.8 15.1 14.3 14.4 22.6l-.3 3.9-23.4.3c-17.2.2-23.7-.1-24.8-1-3.1-2.6 1-14 7.2-20.3 7.3-7.3 18.2-9.5 26.9-5.5zm54.1-6.1c-9 2.5-14.1 6.6-16.9 13.5-2 4.9-2 8.3 0 13.2 1.6 3.9 7 10.4 8.7 10.4.5 0 2.3.7 4 1.5 1.8.8 5.7 1.9 8.7 2.4 21.1 3.6 23.2 4.3 27.9 9.6 3.5 4.1 4 7.8 1.5 13.1-2.2 4.7-5.6 6.9-13.7 8.9-5.4 1.4-7.7 1.5-11 .7-2.3-.6-5.5-1.4-7-1.7-4.1-.8-10.4-5-12.4-8.2-2.2-3.5-3.3-4.3-5.8-4.3-4.4 0-5 1.5-2.2 6.2 5.7 9.6 15 13.8 30.4 13.8 17.9 0 28.9-6.1 31.3-17.6 2.2-10.2-2.2-19.4-11-23.2-3.7-1.6-12.5-3.6-23-5.2-12.8-2-18.3-6.4-18.3-14.5 0-5.7 2.3-9 8.1-11.8 9.9-4.7 22.8-2.2 30.3 6 3.1 3.4 4.2 3.9 6.8 3.5 2-.3 3.1-1 3.1-2.1 0-2.8-5.5-8.5-11.1-11.6-4.7-2.5-6.5-2.9-15.4-3.1-5.5-.2-11.3.1-13 .5zm148.5 0c-9.5 2-17.9 8-21.3 15-3.2 6.4-2.8 6.8 7.5 7.6 9 .7 9.3.7 10.8-1.6 3.3-5.2 6.7-7.7 11.3-8.4 9.7-1.5 16.1 3.5 15.5 12.2l-.3 4.8-4.5.7c-2.5.3-8.3 1.2-13 1.8-17.2 2.2-26.6 7.8-30.3 18-2.1 5.7-2.1 10.5-.2 16 3 8.6 11.1 13.3 23.1 13.3 9.5.1 15.3-2.1 20.3-7.8 3.6-4.1 6.1-4.1 6.1 0 0 5.9 1.2 6.5 11.8 6.5h9.7l-.3-28.7c-.4-39.1-.7-40.3-11.8-46.4-5.6-3.1-6.5-3.2-18.4-3.5-6.9-.2-14.1.1-16 .5zm22.4 40.7c2.1.8 2.2 10.8.1 15.6-1.8 4.6-7.6 9.5-11.8 10.3-9.6 1.8-17.3-8.9-12-16.5 2.8-4 5.4-5.8 10.8-7.4 8.3-2.5 10.6-2.9 12.9-2zm152.7-40.9c-1.3.3-4.6 2.7-7.2 5.4-6.1 6.3-7.7 6.3-8.1.1l-.3-4.7h-19v77l10.3.3c7.8.2 10.2 0 10.2-1 0-.7.1-12.1.3-25.3.3-26 .7-28.3 6.1-33.4 2.1-2 3.7-2.5 7.8-2.5 4.6 0 5.4.4 7.8 3.3 3.5 4.2 4.1 9 4 35.1 0 11.3-.1 21.3 0 22.3 0 1.6 1 1.7 10.3 1.5l10.2-.3v-29.5c0-16.2-.4-31.5-.8-34-.8-4.8-4.1-9.2-9.2-12.5-2.3-1.4-5.1-1.9-11.5-2.1-4.7-.1-9.6 0-10.9.3zm70.4-.1c-9 2.3-18.9 10.5-22.9 18.9-1.4 2.9-3.2 9.1-4 13.7-2.4 14 1.1 27.3 9.6 36 8.1 8.3 15.5 11.2 28.3 11.1 10-.1 15.5-1.8 22.9-7 4.4-3.1 10.8-11.6 12-15.9.6-1.9.1-2.2-5.5-2.8-11.5-1.2-12.3-1-15 3.1-5.5 8.6-14.7 10.8-22.4 5.5-4.7-3.3-6.4-6.3-7.2-13-.4-3.6-.2-5.2.8-5.8.8-.5 12.4-1.1 25.9-1.4l24.5-.5.3-3c.6-4.9-2.9-17.5-6.5-23.6-3.3-5.4-8.1-9.7-15.3-13.4-3.5-1.7-20.9-3-25.5-1.9zm21.2 16.9c3.3 3.8 5 9.2 3.9 12-.4 1.2-2.9 1.5-14 1.5-9.7 0-13.7-.4-14.3-1.3-1.7-2.8.7-9.6 4.9-13.3 3.3-3 4.6-3.4 10.7-3 4.9.3 5.8.7 8.8 4.1zm58.3-16.8c-3.8.6-10.3 3.9-13.9 6.9-5 4.2-7.1 9.2-7.1 17.4 0 7.5 1.9 11.8 7.1 16.7 3.9 3.5 16.1 7.1 29.9 8.9 6.9.8 11 3.5 11 7.2 0 3.3-.6 4.2-4.5 6.7-2.2 1.5-4.8 2-10 2-8.1 0-13.2-2-16.8-6.6l-2.4-3.1-8.2.8c-9.4.8-10.3 1.6-7.5 7.1 3.2 5.9 10.3 11.6 17.4 13.7 9.4 2.8 24.5 2.6 32.9-.5 15-5.4 22.1-20.6 16-34.3-2.1-4.9-8.6-10.6-12-10.6-1 0-2-.4-2.4-.9-.3-.5-3.6-1.3-7.3-1.6-19.6-2.1-25.5-5.1-23.8-12.1.7-2.8 7.2-6.3 11.7-6.4 5.6 0 11.9 3.1 14.6 7.2 2.1 3.1 3.1 3.8 4.7 3.3 1.2-.4 4.2-1.2 6.9-1.8 5.9-1.4 6.2-3.6 1.4-9.9-3.8-5-8.5-8.4-13.6-9.8-3.5-1-19-1.2-24.1-.3zm-265.6 1.7c-.3.8-.4 15.5-.2 32.8.3 26.8.5 31.7 2 34.3 4.5 8.3 9.4 10.9 20.3 10.8 6.9 0 8.7-.4 12.2-2.6 2.2-1.4 5.4-4.2 7.1-6.2 2.9-3.6 3.1-3.6 4.1-1.7.6 1.1 1.1 3.7 1.1 5.6v3.6h9.4c8.1 0 9.5-.2 10-1.8.7-2.2.7-69.8 0-73.5l-.6-2.8-10.1.3-10.2.3-.5 26.5c-.6 29.5-.6 29.7-7.5 34-6.5 4-13.4 1.6-15.7-5.5-.3-1.1-.6-14-.7-28.8l-.1-26.7h-10c-7.8 0-10.2.3-10.6 1.4z"/></g></svg>