<svg xmlns="http://www.w3.org/2000/svg" width="2500" height="2500" viewBox="0 0 192.756 192.756"><g fill-rule="evenodd" clip-rule="evenodd"><path fill="#fff" d="M0 0h192.756v192.756H0V0z"/><path d="M170.441 112.688c9.816 0 17.773-7.957 17.773-17.774 0-9.816-7.957-17.774-17.773-17.774s-17.773 7.958-17.773 17.774 7.957 17.774 17.773 17.774z" fill="#28539c"/><path d="M123.264 100.332c.006 3.012-1.373 7.312-7.633 7.406-2.824.041-7.607-1.441-7.607-8.178V88.646c0-2.285-1.471-2.678-2.461-2.738v-.069h8.084v.069c-.992.06-2.434.453-2.434 2.738v10.795c0 1.203.121 2.436.57 3.549.842 2.045 2.824 3.156 4.869 3.156 2.283 0 3.863-1.324 4.697-2.592.863-1.314.846-2.748.859-3.609v-11.3c0-2.285-2.695-2.678-3.688-2.738v-.069h8.113v.069c-1.02.06-3.363.453-3.363 2.738.001.001-.006 10.367-.006 11.687zM10.191 86.772c.269-.091.688-.182 1.286-.182 3.112 0 4.998 2.045 4.998 5.263 0 2.405-1.107 4.961-4.728 4.961a9.303 9.303 0 0 1-1.556-.121v-9.921zm-5.65-.91c.961.06 2.461.423 2.461 2.77v15.987c0 2.314-1.561 2.648-2.461 2.678v.068h8.104v-.068c-.957-.029-2.453-.424-2.453-2.678v-7.156c.508.09.897.148 1.944.148.449 0 2.604 0 4.279-.65 3.025-1.169 3.625-3.787 3.625-5.14 0-1.712-.839-3.426-2.336-4.538-1.707-1.253-3.502-1.489-6.345-1.489H4.541v.068zM29.532 88.087h.06l3.182 9.431h-6.243l3.001-9.431zm2.441-2.622h-2.668l-5.936 18.664c-.462 1.387-1.297 3.047-3.058 3.168v.068h5.74v-.068c-.51-.029-1.801-.334-1.801-1.961 0-.332.12-1.086.36-1.811l1.591-4.977h6.933l1.801 5.34c.331.965.361 1.297.361 1.566 0 1.568-1.471 1.812-2.162 1.842v.068h8.374v-.068c-1.291-.18-2.341-.756-3.302-3.59l-6.233-18.241zM49.025 86.772c.27-.091.688-.182 1.287-.182 3.112 0 4.997 2.045 4.997 5.263 0 2.405-1.107 4.961-4.728 4.961a9.303 9.303 0 0 1-1.556-.121v-9.921zm-5.65-.91c.96.06 2.461.423 2.461 2.77v15.987c0 2.314-1.481 2.648-2.381 2.678v.068h8.023v-.068c-.957-.029-2.454-.424-2.454-2.678v-7.156c.509.09.898.148 1.945.148.449 0 2.604 0 4.279-.65 3.025-1.169 3.625-3.787 3.625-5.14 0-1.712-.839-3.426-2.336-4.538-1.707-1.253-3.503-1.489-6.345-1.489h-6.817v.068zM90.578 86.771c.483-.181 1.229-.181 1.774-.181 3.934 0 4.523 3.391 4.523 4.951 0 4.53-3.604 4.71-6.298 4.71v-9.48h.001zm-5.332-.977v.068c.9 0 2.187.363 2.187 2.734v16.017c0 1.688-.781 2.684-2.431 2.684v.068h8.027v-.068c-1.513 0-2.451-.936-2.451-2.744v-7.504c3.358-.471 7.555 9.191 9.225 10.316h5.104v-.068c-1.051-.211-2.252-.936-3.873-3.527a577.131 577.131 0 0 0-2.162-3.314c-1.324-1.93-2.378-3.406-4.192-3.938v-.06c3.229-.567 5.659-2.518 5.659-5.16 0-2.251-1.08-5.646-7.12-5.504h-7.973zM141.018 90.274c-.449-2.432-2.273-4.204-4.947-4.204-2.523 0-3.814 1.771-3.814 3.543 0 2.341 2.162 3.812 4.416 5.223 3.092 1.951 5.973 3.453 5.973 6.906 0 1.35-.711 3.055-2.371 4.502-2.816 2.453-7.236 1.354-8.047 1.039-1.229-.5-1.377-.559-1.707-.559s-1.031.15-1.102.875h-.068l.225-5.498h.051c.119.811.686 2.492 2.242 3.723.959.75 2.521 1.26 3.723 1.26 2.133 0 3.936-1.68 3.936-3.812 0-2.16-1.652-3.572-4.625-5.402-2.555-1.592-5.129-3.213-5.129-6.815 0-2.612 1.797-5.772 6.27-5.772.99 0 2.102.152 2.914.425.359.121.898.273 1.229.273.029 0 .869-.03 1.02-.727h.086l-.24 5.021h-.035v-.001z"/><path d="M72.808 104.773c.254 1.607.817 2.426 2.487 2.518l.002.074h-8.425v-.074c1.864-.104 2.316-.775 2.492-2.578.858-8.765-1.988-16.109-10.691-18.871v-.053l6.9.006s5.333 4 6.141 9.635c.114.791.096.365.068.531.831-4.935 4.804-9.04 7.75-10.175h3.802l.002.05c-8.902 2.621-11.3 10.269-10.528 18.937z" fill="#28539c"/><path d="M172.205 104.775c.254 1.607.818 2.426 2.486 2.516l.004.074h-8.426v-.074c1.863-.102 2.316-.775 2.492-2.576.857-8.765-1.988-16.11-10.693-18.872l.002-.054 6.9.006s5.332 4 6.141 9.635c.113.79.096.366.068.531.83-4.935 4.803-9.04 7.75-10.174h3.801l.002.05c-8.9 2.621-11.298 10.269-10.527 18.938z" fill="#fff"/></g></svg>