<svg xmlns="http://www.w3.org/2000/svg" width="2500" height="2500" viewBox="0 0 192.756 192.756"><g fill-rule="evenodd" clip-rule="evenodd"><path fill="#fff" d="M0 0h192.756v192.756H0V0z"/><path fill="#215da0" d="M184.252 162.301V30.456H8.504v131.845h175.748z"/><path fill="#215da0" d="M153.27 162.301l30.982-49.113V30.456h-76.035L25.01 162.301h128.26z"/><path fill="#2160a3" d="M109.705 30.456L26.363 162.301h125.35l32.539-51.481V30.456h-74.547z"/><path fill="#2062a5" d="M111.125 30.456L27.851 162.301h122.442l33.959-53.848V30.456h-73.127z"/><path fill="#1f64a6" d="M112.545 30.456L29.339 162.301h119.397l35.516-56.283V30.456h-71.707z"/><path fill="#1e67a9" d="M113.967 30.456L30.692 162.301h116.759l36.801-58.38V30.456h-70.285z"/><path fill="#1c69ab" d="M115.387 30.456L32.181 162.301h113.715l38.356-60.883V30.456h-68.865z"/><path fill="#1b6cae" d="M116.875 30.456L33.601 162.301H144.34l39.912-63.183V30.456h-67.377z"/><path fill="#196eb0" d="M118.295 30.456L35.022 162.301h107.83l41.4-65.551V30.456h-65.957z"/><path fill="#1870b2" d="M119.717 30.456L36.375 162.301h105.057l42.82-67.851V30.456h-64.535z"/><path fill="#1673b5" d="M121.205 30.456L37.931 162.301H140.01l44.242-70.151V30.456h-63.047z"/><path fill="#1375b7" d="M122.625 30.456L39.284 162.301h99.171l45.797-72.451V30.456h-61.627z"/><path fill="#1277b9" d="M124.045 30.456L40.704 162.301h96.331l47.217-74.819V30.456h-60.207z"/><path fill="#0d7abb" d="M125.467 30.456L42.26 162.301h93.219l48.773-77.186V30.456h-58.785z"/><path fill="#047cbd" d="M126.887 30.456L43.68 162.301h90.377l50.195-79.487V30.456h-57.365z"/><path fill="#007fc0" d="M128.307 30.456L45.034 162.301h87.536l51.682-81.854V30.456h-55.945z"/><path fill="#0081c2" d="M129.797 30.456L46.454 162.301h84.628l53.17-84.154V30.456h-54.455z"/><path fill="#0084c4" d="M131.217 30.456L48.01 162.301h81.584l54.658-86.522V30.456h-53.035z"/><path fill="#0087c8" d="M132.637 30.456L49.363 162.301h78.809l56.08-88.822V30.456h-51.615z"/><path fill="#0089ca" d="M134.125 30.456L50.784 162.301h75.968l57.5-91.122V30.456h-50.127z"/><path fill="#008dce" d="M135.547 30.456L52.339 162.301h72.856l59.057-93.557V30.456h-48.705z"/><path fill="#008fd0" d="M136.967 30.456L53.692 162.301h69.949l60.611-95.992V30.456h-47.285z"/><path fill="#0090d1" d="M138.387 30.456L55.045 162.301h67.174l62.033-98.157V30.456h-45.865z"/><path fill="#0094d5" d="M139.807 30.456L56.534 162.301h64.196l63.522-100.592V30.456h-44.445z"/><path fill="#0096d7" d="M141.295 30.456L58.022 162.301h61.423l64.807-102.69V30.456h-42.957z"/><path fill="#009adc" d="M142.717 30.456L59.442 162.301h58.449l66.361-105.193V30.456h-41.535z"/><path fill="#009ddf" d="M144.137 30.456L60.863 162.301h55.471l67.918-107.492V30.456h-40.115z"/><path fill="#009fe1" d="M114.98 162.301l69.272-109.792V30.456h-38.693L62.352 162.301h52.628z"/><path d="M120.105 149.349c20.943 0 37.801-17.027 37.801-37.971 0-20.772-16.857-37.8-37.801-37.8s-37.97 17.027-37.97 37.8c0 20.943 17.027 37.971 37.97 37.971z" fill="#b9babc"/><path d="M82.816 111.208c0 20.773 16.857 37.63 37.631 37.63 16.516 0 30.479-10.728 35.586-25.541 1.191-3.746 1.873-7.662 1.873-11.919 0-20.432-16.346-37.119-36.779-37.8h-.68c-20.773 0-37.631 16.857-37.631 37.63z" fill="#bdbfc1"/><path d="M83.498 110.867c0 20.603 16.686 37.46 37.289 37.46 16.346 0 30.309-10.557 35.246-25.37a36.696 36.696 0 0 0 1.873-11.579c0-20.432-16.346-37.119-36.607-37.8h-.512c-20.603 0-37.289 16.687-37.289 37.289z" fill="#bdbfc1"/><path d="M84.179 110.697c0 20.433 16.517 37.119 36.948 37.119 16.346 0 30.139-10.557 35.076-25.03 1.021-3.575 1.703-7.491 1.703-11.408 0-20.432-16.176-37.119-36.438-37.8h-.342c-20.431 0-36.947 16.687-36.947 37.119z" fill="#bfc1c3"/><path d="M84.689 110.356c0 20.433 16.516 36.778 36.779 36.778 16.176 0 29.797-10.216 34.734-24.519 1.191-3.576 1.703-7.321 1.703-11.238 0-20.432-16.176-36.948-36.438-37.8-20.262.001-36.778 16.518-36.778 36.779z" fill="#c1c3c5"/><path d="M85.371 110.187c0 20.092 16.346 36.438 36.438 36.438 15.836 0 29.457-10.046 34.564-24.178 1.021-3.576 1.533-7.151 1.533-11.068 0-20.262-16.006-36.948-36.098-37.8-20.091.169-36.437 16.345-36.437 36.608z" fill="#c4c5c7"/><path d="M86.052 109.846c0 20.092 16.175 36.268 36.269 36.268 15.664 0 28.945-9.876 34.053-23.838 1.021-3.405 1.533-6.98 1.533-10.897 0-20.262-15.836-36.778-35.928-37.8-19.922.169-35.927 16.345-35.927 36.267z" fill="#c6c7c9"/><path d="M86.562 109.676c0 19.921 16.176 35.927 36.098 35.927 15.494 0 28.605-9.705 33.713-23.497 1.021-3.405 1.533-6.981 1.533-10.728 0-20.092-15.836-36.608-35.758-37.8-19.75.341-35.586 16.346-35.586 36.098z" fill="#c8c9cb"/><path d="M87.244 109.335c0 19.751 16.004 35.757 35.756 35.757 15.324 0 28.436-9.535 33.373-23.157 1.021-3.405 1.533-6.811 1.533-10.557 0-20.092-15.666-36.608-35.586-37.8-19.412.341-35.076 16.346-35.076 35.757z" fill="#c8c9cb"/><path d="M87.925 109.165c0 19.581 15.835 35.416 35.417 35.416 15.154 0 28.094-9.535 33.201-22.816.852-3.405 1.363-6.811 1.363-10.387 0-20.092-15.666-36.438-35.416-37.63-19.242.341-34.565 16.006-34.565 35.417z" fill="#cacbcd"/><path d="M88.436 108.824c0 19.411 15.836 35.246 35.246 35.246 14.984 0 27.754-9.365 32.861-22.476.852-3.235 1.363-6.641 1.363-10.217 0-19.921-15.494-36.438-35.246-37.63-18.9.512-34.224 16.007-34.224 35.077z" fill="#cccdcf"/><path d="M89.117 108.653c0 19.241 15.665 34.906 34.905 34.906 14.814 0 27.414-9.195 32.521-22.136.852-3.235 1.363-6.47 1.363-10.046 0-19.921-15.324-36.268-35.076-37.63-18.73.512-33.713 16.007-33.713 34.906z" fill="#cccdcf"/><path d="M89.627 108.313c0 19.24 15.666 34.735 34.736 34.735 14.643 0 27.072-9.024 32.352-21.795.85-3.065 1.191-6.47 1.191-9.876 0-19.751-15.324-36.097-34.736-37.63-18.559.683-33.543 16.007-33.543 34.566z" fill="#d0d1d3"/><path d="M90.309 108.144c0 18.899 15.494 34.395 34.395 34.395 14.473 0 26.902-8.854 32.012-21.454.85-3.065 1.191-6.3 1.191-9.706 0-19.751-15.154-36.097-34.736-37.63-18.22.681-32.862 15.835-32.862 34.395z" fill="#d0d1d3"/><path d="M90.99 107.803c0 18.899 15.325 34.225 34.225 34.225 14.131 0 26.391-8.685 31.5-21.284.85-2.895 1.191-6.13 1.191-9.365 0-19.751-15.154-35.927-34.395-37.63-18.218.851-32.521 15.835-32.521 34.054z" fill="#d5d6d7"/><path d="M91.67 107.632c0 18.73 15.154 33.885 33.884 33.885 14.133 0 26.051-8.685 31.16-20.773.85-3.064 1.191-6.13 1.191-9.365 0-19.581-14.984-35.756-34.225-37.63-17.877 1.021-32.01 15.664-32.01 33.883z" fill="#d5d6d7"/><path d="M92.182 107.292c0 18.559 15.154 33.713 33.713 33.713 13.963 0 25.881-8.513 30.99-20.432.68-2.895 1.021-5.96 1.021-9.195 0-19.581-14.984-35.756-34.055-37.63-17.706 1.022-31.669 15.665-31.669 33.544z" fill="#d7d8d9"/><path d="M92.863 107.121c0 18.39 14.983 33.374 33.374 33.374 13.791 0 25.539-8.344 30.648-20.093.68-2.895 1.021-5.959 1.021-9.024 0-19.581-14.814-35.586-33.885-37.63-17.367 1.192-31.158 15.665-31.158 33.373z" fill="#d9dadb"/><path d="M93.543 106.781c0 18.389 14.814 33.202 33.033 33.202 13.621 0 25.199-8.173 30.309-19.921.68-2.725 1.021-5.619 1.021-8.685 0-19.411-14.814-35.416-33.713-37.63-17.197 1.193-30.65 15.666-30.65 33.034z" fill="#dbdcdd"/><path d="M94.054 106.61c0 18.049 14.813 32.862 32.862 32.862 13.451 0 24.859-8.003 30.139-19.581.51-2.725.852-5.619.852-8.514 0-19.411-14.643-35.416-33.543-37.63-16.858 1.363-30.31 15.496-30.31 32.863z" fill="#dbdcdd"/><path d="M94.736 106.271c0 18.048 14.643 32.691 32.522 32.691 13.281 0 24.689-8.002 29.797-19.24.51-2.725.852-5.449.852-8.344 0-19.24-14.473-35.246-33.373-37.459-16.688 1.362-29.798 15.324-29.798 32.352z" fill="#dfe0e1"/><path d="M95.417 106.1c0 17.879 14.472 32.352 32.181 32.352 13.111 0 24.35-7.833 29.457-18.9.51-2.554.852-5.278.852-8.173 0-19.24-14.473-35.246-33.203-37.459-16.347 1.361-29.287 15.323-29.287 32.18z" fill="#dfe0e1"/><path d="M95.927 105.76c0 17.708 14.473 32.011 32.182 32.011 12.77 0 23.838-7.492 28.945-18.39.51-2.554.852-5.278.852-8.003 0-19.24-14.303-35.076-32.863-37.459-16.346 1.532-29.116 15.154-29.116 31.841z" fill="#e1e2e3"/><path d="M96.609 105.589c0 17.538 14.303 31.671 31.84 31.671 12.6 0 23.498-7.322 28.605-18.049.682-2.555.852-5.108.852-7.833 0-19.07-14.303-34.905-32.691-37.459-16.006 1.703-28.606 15.154-28.606 31.67z" fill="#e4e4e5"/><path d="M97.289 105.249c0 17.537 14.133 31.5 31.5 31.5 12.43 0 23.328-7.152 28.436-17.709.512-2.554.682-4.938.682-7.662 0-19.07-14.133-34.905-32.521-37.459-15.837 1.703-28.097 15.154-28.097 31.33z" fill="#e4e4e5"/><path d="M97.801 105.078c0 17.197 14.133 31.159 31.33 31.159 12.258 0 22.986-7.151 28.094-17.537.512-2.214.682-4.768.682-7.322 0-19.07-13.963-34.735-32.352-37.459-15.666 1.873-27.754 14.983-27.754 31.159z" fill="#e8e9ea"/><path d="M98.482 104.737c0 17.197 13.961 30.99 30.988 30.99 12.09 0 22.646-6.981 27.754-17.198.512-2.213.682-4.597.682-7.151 0-18.899-13.963-34.565-32.182-37.459-15.324 1.873-27.242 14.983-27.242 30.818z" fill="#e8e9ea"/><path d="M99.162 104.567c0 16.856 13.623 30.648 30.648 30.648 12.09 0 22.307-6.811 27.414-16.856.512-2.214.682-4.597.682-6.981 0-18.899-13.791-34.565-32.012-37.289-14.982 1.873-26.732 14.813-26.732 30.478z" fill="#eaebec"/><path d="M99.844 104.228c0 16.856 13.621 30.478 30.309 30.478 11.918 0 22.135-6.641 27.072-16.517.512-2.213.682-4.426.682-6.811 0-18.729-13.791-34.394-31.842-37.289-14.813 2.043-26.221 14.643-26.221 30.139z" fill="#ecedee"/><path d="M100.354 104.057c0 16.687 13.623 30.138 30.309 30.138 11.578 0 21.625-6.641 26.732-16.176.342-2.213.512-4.427.512-6.641 0-18.729-13.621-34.224-31.5-37.289a30.15 30.15 0 0 0-26.053 29.968z" fill="#efeff0"/><path d="M101.035 103.716c0 16.517 13.451 29.968 29.969 29.968 11.408 0 21.283-6.47 26.391-15.835.342-2.043.512-4.257.512-6.471 0-18.56-13.621-34.224-31.33-37.289-14.473 2.213-25.542 14.643-25.542 29.627z" fill="#f1f1f2"/><path d="M101.717 103.546c0 16.346 13.281 29.627 29.627 29.627 11.238 0 21.113-6.3 26.051-15.494a37.62 37.62 0 0 0 .512-6.301c0-18.56-13.451-34.054-31.16-37.119-14.134 2.043-25.03 14.473-25.03 29.287z" fill="#f3f3f4"/><path d="M102.227 103.205c0 16.346 13.281 29.457 29.457 29.457a29.124 29.124 0 0 0 25.711-15.324c.342-1.873.512-3.917.512-5.96 0-18.56-13.281-33.884-30.99-37.119-13.962 2.214-24.69 14.303-24.69 28.946z" fill="#f3f3f4"/><path d="M102.908 103.034c0 16.006 13.111 29.117 29.117 29.117 10.896 0 20.432-5.959 25.539-14.984.172-1.872.342-3.746.342-5.789 0-18.389-13.281-33.713-30.818-37.119a29.118 29.118 0 0 0-24.18 28.775z" fill="#f5f6f6"/><path d="M103.59 102.694c0 16.006 12.941 28.946 28.775 28.946 10.727 0 20.262-5.96 25.199-14.644.172-1.873.342-3.576.342-5.619 0-18.389-13.111-33.713-30.648-37.119-13.451 2.385-23.668 14.134-23.668 28.436z" fill="#f8f8f8"/><path d="M104.1 102.524c0 15.664 12.771 28.605 28.605 28.605 10.559 0 19.922-5.789 24.859-14.303.172-1.873.342-3.576.342-5.449 0-18.219-12.941-33.543-30.309-37.119-13.281 2.555-23.497 14.134-23.497 28.266z" fill="#f8f8f8"/><path d="M133.047 130.618c10.557 0 19.58-5.618 24.518-14.132.172-1.532.342-3.235.342-5.108 0-18.219-12.941-33.543-30.139-36.948-13.111 2.383-22.986 13.962-22.986 27.754-.001 15.665 12.599 28.434 28.265 28.434z" fill="#fff"/><path d="M154.33 118.188s1.703 1.022 2.555 1.874c0 0 1.021-4.087.68-4.938-.17-.681-3.235 3.064-3.235 3.064z" fill="#fff"/><path d="M120.105 149.349h1.704c.17-.17.34-.17.512-.17h1.362c.17-.171.34-.171.34-.171H124.875c.342 0 .512-.17.852-.17h.17c.17 0 .512 0 .852-.171h.17c.342 0 .512 0 .682-.17h.34c.172 0 .342-.17.512-.17h.34c.172 0 .342-.171.512-.171h.34c.17-.17.342-.17.512-.34h.34c.512-.171 1.191-.341 1.703-.511h.17c.17-.171.34-.171.682-.341h.17c.17-.17.34-.17.682-.341h.17c.17-.17.34-.17.51-.17.172-.17.172-.17.342-.17.17-.171.34-.171.51-.171.17-.17.17-.17.342-.17.17-.171.34-.171.68-.341.342-.17.512-.341.852-.341 0-.17.17-.17.17-.17.172-.17.342-.17.512-.341.17 0 .17 0 .34-.17.172 0 .342-.17.512-.17 0-.171.17-.171.17-.171.17-.17.34-.17.512-.34.17 0 .17-.171.34-.171s.34-.17.51-.34l.172-.171c.17 0 .34-.17.51-.34h.17c.342-.171.512-.341.682-.512.17 0 .17-.17.17-.17.17-.17.342-.17.512-.341.17 0 .17-.17.34-.17.17-.17.17-.341.342-.341.17-.17.17-.17.34-.17.17-.171.17-.341.34-.341l.342-.34c.17 0 .17-.171.34-.342.17 0 .17 0 .34-.17.172-.17.172-.34.342-.34l.17-.171c.34-.17.51-.341.682-.681 0 0 .17 0 .17-.171.17 0 .34-.17.51-.34 0 0 0-.171.17-.171.172-.17.172-.34.342-.51 0 0 .17-.171.34-.171 0-.17.17-.341.342-.341 0-.17 0-.17.17-.34l.34-.341c0-.171.17-.171.17-.341.17 0 .342-.17.342-.34l.17-.171c.34-.341.34-.511.51-.681l.342-.341.34-.341c0-.17 0-.17.17-.341 0-.17.17-.17.342-.34 0-.171 0-.171.17-.341 0-.17.17-.341.17-.341l.34-.34c0-.171.17-.341.17-.511.172 0 .172-.171.172-.171.17-.17.17-.341.34-.511s.17-.17.17-.34c.17-.171.342-.342.512-.682v-.17c.17-.171.17-.341.34-.512 0-.17.17-.17.17-.34 0-.171.17-.341.17-.511.172 0 .172-.171.172-.341l.34-.341c0-.17 0-.17.17-.34 0-.171 0-.341.17-.511 0-.171.17-.171.17-.341 0-.171.172-.341.172-.511 0 0 0-.17.17-.17.17-.342.17-.512.34-.852v-.171c.17-.17.17-.511.17-.681.172 0 .172-.171.172-.341.17-.17.17-.17.17-.511 0 0 .17-.17.17-.341 0 0 0-.34.17-.34 0-.171 0-.341.17-.511v-.341c0-.171.17-.341.17-.341 0-.17 0-.511.172-.681v-.341c0-.17.17-.511.17-.681-4.598-3.576-10.557-5.449-20.264-4.768-12.939 1.021-18.219 6.64-32.861 6.98-3.234 0-15.495-.17-21.454-7.321.17 0 .17.17.17.17v1.363c.17.17.17.341.17.511v.341c0 .17 0 .341.17.511v.511c0 .17.17.341.17.511v.341c0 .17.17.34.17.511v.341c0 .17.17.34.17.511v.511c.171 0 .171.17.171.511.17 0 .17.17.17.34 0 .171.17.341.17.512v.34c.171.171.171.341.341.511v.341c.17.17.17.511.341.681v.171c.17.17.17.511.34.852v.17c.17.17.17.34.341.682 0 0 0 .17.17.17 0 .17 0 .34.17.511 0 .17 0 .341.17.511 0 .17.17.17.17.341.17.17.17.34.17.511.17 0 .17.17.17.34l.34.341c0 .17 0 .341.17.511 0 0 .17.17.17.341.17 0 .17.17.17.341.17.17.17.34.341.34 0 .17.17.341.17.512.17 0 .17.17.17.34l.34.341c0 .17.17.341.17.341.17.17.17.34.34.511l.17.17c0 .17.17.341.341.511 0 0 0 .17.17.341l.34.34c0 .171 0 .171.17.341l.34.341c0 .17.17.341.17.341.17.17.34.34.34.51.17 0 .17.171.17.171.17.171.34.341.34.511.171 0 .171.17.341.17.17.171.17.341.341.512 0 0 .17 0 .17.17.17.17.511.341.681.682l.681.681.511.511.34.34.34.341c.171 0 .171.171.341.171 0 .17.17.17.341.34 0 .17.17.17.34.341l.34.341s.171 0 .341.17l.341.341s.17.17.34.17c0 .171.17.171.34.341.17 0 .17.17.342.17l.34.341c.17.17.17.17.34.17.172.171.342.171.342.341.17 0 .34.171.34.171.17.17.34.17.512.34 0 0 .17.171.34.171l.34.34c.17 0 .17 0 .342.171.17.17.34.17.51.17 0 .17.17.17.342.341.17 0 .17 0 .34.17.17 0 .34.17.34.17.17.171.342.171.512.171l.34.34c.17 0 .34 0 .512.171 0 0 .17 0 .34.17.17 0 .34.17.512.17 0 .171.17.171.17.171.34.17.68.17.852.341l.17.17c.17 0 .51.17.682.17.17 0 .17.171.34.171.17.17.34.17.512.17.17 0 .34.17.34.17.17 0 .34 0 .51.171h.342c.17.17.34.17.51.34h.342c.17 0 .34.171.51.171s.34 0 .34.17c.172 0 .342 0 .512.17h.512s.17.171.34.171h.512c.17 0 .34.17.51.17s.17 0 .34.17h1.022c0 .171.172.171.342.171h.51c.17 0 .342.17.512.17h1.362c.172.171.342.171.512.171H117.742c.17 0 .34 0 .51.17H119.104c.322-.002.662-.002 1.001-.002z" fill="#142a60"/><path d="M83.327 115.976c2.554 18.389 18.22 32.691 37.29 32.691 16.516 0 30.479-10.727 35.416-25.54.34-1.021.682-2.043.852-3.064-4.598-3.576-10.557-5.449-20.264-4.768-12.939 1.021-18.219 6.64-32.861 6.98-3.065 0-14.133-.17-20.433-6.299z" fill="#162d63"/><path d="M84.52 116.997c2.895 17.538 18.219 30.819 36.607 30.819 16.176 0 29.969-10.387 35.076-25.03.34-.852.512-1.873.682-2.724-4.598-3.576-10.557-5.449-20.264-4.768-12.939 1.021-18.219 6.64-32.861 6.98-2.895.001-12.941-.169-19.24-5.277z" fill="#162e65"/><path d="M85.541 117.849c3.405 16.687 18.219 29.286 35.928 29.286 16.176 0 29.797-10.216 34.734-24.519.34-.852.512-1.703.682-2.554-4.598-3.576-10.557-5.449-20.264-4.768-12.939 1.021-18.219 6.64-32.861 6.98-2.725.001-11.919-.169-18.219-4.425z" fill="#173067"/><path d="M86.733 118.529c3.746 16.006 18.218 27.925 35.246 27.925 15.836 0 29.287-10.046 34.395-24.179.17-.681.342-1.532.512-2.213-4.598-3.576-10.557-5.449-20.264-4.768-12.939 1.021-18.219 6.64-32.861 6.98-2.556.001-10.898-.169-17.028-3.745z" fill="#183269"/><path d="M87.754 119.211c4.257 15.153 18.218 26.392 34.736 26.392 15.664 0 28.775-9.705 33.883-23.497l.512-2.043c-4.598-3.576-10.557-5.449-20.264-4.768-12.939 1.021-18.219 6.64-32.861 6.98-2.383 0-9.876-.17-16.006-3.064z" fill="#19346c"/><path d="M88.946 119.551c4.427 14.813 18.05 25.371 34.054 25.371 15.324 0 28.436-9.536 33.543-22.987.172-.681.172-1.361.342-1.872-4.598-3.576-10.557-5.449-20.264-4.768-12.939 1.021-18.219 6.64-32.861 6.98-2.213 0-9.024-.17-14.814-2.724z" fill="#1a376f"/><path d="M90.138 120.062c4.598 14.132 17.879 24.178 33.374 24.178 15.154 0 27.924-9.364 33.031-22.646.172-.511.342-1.021.342-1.532-4.598-3.576-10.557-5.449-20.264-4.768-12.939 1.021-18.219 6.64-32.861 6.98-2.043.001-8.173-.169-13.622-2.212z" fill="#1a3870"/><path d="M91.16 120.573c4.938 13.28 17.879 22.986 32.862 22.986 14.814 0 27.414-9.195 32.521-22.136.172-.511.342-1.021.342-1.361-4.598-3.576-10.557-5.449-20.264-4.768-12.939 1.021-18.219 6.64-32.861 6.98-2.043.001-7.322.001-12.6-1.701z" fill="#1b3972"/><path d="M92.352 120.743c5.107 12.94 17.537 21.965 32.181 21.965 14.643 0 27.072-8.854 32.182-21.624 0-.341.17-.682.17-1.021-4.598-3.576-10.557-5.449-20.264-4.768-12.939 1.021-18.219 6.64-32.861 6.98-1.873 0-6.641 0-11.408-1.532z" fill="#1b3c75"/><path d="M93.543 121.084c5.109 12.43 17.369 20.943 31.5 20.943 14.303 0 26.562-8.685 31.672-21.114 0-.34.17-.681.17-.851-4.598-3.576-10.557-5.449-20.264-4.768-12.939 1.021-18.219 6.64-32.861 6.98-1.703.001-5.789.001-10.217-1.19z" fill="#1c3e77"/><path d="M94.736 121.424c5.278 11.749 17.198 19.922 30.819 19.922 14.133 0 26.221-8.514 31.16-20.772.17-.171.17-.341.17-.511-4.598-3.576-10.557-5.449-20.264-4.768-12.939 1.021-18.219 6.64-32.861 6.98-1.533 0-5.108 0-9.024-.851z" fill="#1c407a"/><path d="M95.927 121.595c5.278 11.237 16.858 19.07 30.137 19.07 13.793 0 25.711-8.344 30.82-20.263v-.34c-4.598-3.576-10.557-5.449-20.264-4.768-12.939 1.021-18.219 6.64-32.861 6.98-1.361.001-4.427.001-7.832-.679z" fill="#1d427d"/><path d="M97.119 121.765c5.449 10.728 16.516 18.219 29.457 18.219 13.621 0 25.199-8.173 30.309-19.921-4.598-3.576-10.557-5.449-20.264-4.768-12.939 1.021-18.219 6.64-32.861 6.98-1.192 0-3.746 0-6.641-.51z" fill="#1e447f"/><path d="M98.311 121.935c5.449 10.217 16.346 17.197 28.777 17.197 13.279 0 24.688-7.832 29.797-19.069-4.598-3.576-10.557-5.449-20.264-4.768-12.939 1.021-18.219 6.64-32.861 6.98-1.022 0-3.065 0-5.449-.34z" fill="#1e4682"/><path d="M99.332 122.105c5.619 9.705 16.176 16.346 28.266 16.346 12.941 0 24.178-7.491 29.287-18.56-4.768-3.405-10.727-5.278-20.264-4.597-12.939 1.021-18.219 6.64-32.861 6.98-.852.001-2.383.001-4.428-.169z" fill="#1e4884"/><path d="M100.525 122.105c5.619 9.364 15.834 15.665 27.584 15.665 12.6 0 23.496-7.322 28.605-17.879-4.598-3.405-10.557-5.278-20.094-4.597-12.939 1.021-18.219 6.64-32.861 6.98-.681.001-1.702.001-3.234-.169z" fill="#1f4a88"/><path d="M101.717 122.275c5.619 8.854 15.494 14.813 26.902 14.813 12.26 0 22.816-6.98 28.096-17.197-4.598-3.405-10.557-5.278-20.094-4.597-12.939 1.021-18.219 6.64-32.861 6.98l-2.043.001z" fill="#1f4b89"/><path d="M102.908 122.275c5.619 8.514 15.324 13.962 26.223 13.962a31.398 31.398 0 0 0 27.584-16.346c-4.598-3.405-10.557-5.278-20.094-4.597-12.939 1.021-18.219 6.64-32.861 6.98l-.852.001z" fill="#204e8c"/><path d="M104.1 122.275c5.619 8.003 14.984 13.281 25.541 13.281 11.578 0 21.625-6.3 26.902-15.835-4.596-3.235-10.557-5.108-19.922-4.427-12.769 1.022-18.219 6.471-32.521 6.981z" fill="#20508f"/><path d="M105.293 122.105c5.619 7.832 14.643 12.771 24.859 12.771 11.236 0 21.113-6.13 26.391-15.154-4.596-3.235-10.557-5.108-19.922-4.427-12.428 1.021-17.877 6.3-31.328 6.81z" fill="#205291"/><path d="M106.484 122.105c5.449 7.321 14.303 12.089 24.178 12.089 10.898 0 20.434-5.789 25.711-14.644-4.598-3.234-10.387-4.938-19.752-4.256-12.088 1.022-17.537 5.96-30.137 6.811z" fill="#205393"/><path d="M107.676 121.935c5.449 6.981 13.793 11.579 23.498 11.579 10.557 0 19.922-5.619 25.199-13.963-4.598-3.234-10.557-4.938-19.752-4.256-11.748 1.021-17.195 5.618-28.945 6.64z" fill="#215596"/><path d="M108.697 121.935c5.449 6.641 13.793 10.728 22.986 10.728 10.217 0 19.242-5.278 24.52-13.111-4.598-3.234-10.387-4.938-19.582-4.256-11.406.85-16.855 5.277-27.924 6.639z" fill="#215798"/><path d="M109.889 121.765c5.449 6.3 13.281 10.217 22.307 10.217 9.875 0 18.559-4.938 23.838-12.601-4.428-3.064-10.387-4.768-19.412-4.086-10.897.851-16.347 4.937-26.733 6.47z" fill="#215a9b"/><path d="M111.082 121.595c5.277 5.959 12.939 9.705 21.623 9.705 9.535 0 18.049-4.768 23.328-11.919-4.598-3.064-10.387-4.768-19.412-4.086-10.557.851-16.004 4.767-25.539 6.3z" fill="#215c9f"/><path d="M133.047 130.618c9.365 0 17.537-4.426 22.816-11.407-4.598-2.895-10.387-4.598-19.242-3.916-10.045.851-15.494 4.427-24.348 5.959a27.696 27.696 0 0 0 20.774 9.364z" fill="#215da0"/><path d="M157.736 107.292c0-.171 0-.511-.172-.682v-.34-.511c0-.171-.17-.341-.17-.511v-.341c-.17-.171-.17-.341-.17-.511v-.512c0-.17-.17-.17-.17-.51v-.342c-.17-.17-.17-.34-.17-.51 0 0-.17-.171-.17-.341v-.511c-.172-.171-.172-.171-.172-.341s0-.341-.17-.511v-.341c-.17-.17-.17-.34-.17-.511-.17-.17-.17-.34-.17-.34 0-.171-.17-.341-.17-.512 0-.17 0-.34-.17-.34 0-.17-.172-.341-.172-.511 0-.171 0-.341-.17-.341 0-.17 0-.341-.17-.511v-.341c-.17-.17-.17-.341-.34-.511v-.341c-.172-.17-.172-.34-.342-.511 0 0-.17-.17-.17-.34 0-.171-.17-.171-.17-.341-.17-.341-.34-.511-.34-.852-.172-.17-.342-.511-.342-.681-.17-.17-.34-.341-.34-.511 0-.171-.17-.171-.17-.341s-.17-.17-.17-.341c-.172-.17-.172-.34-.342-.511l-.17-.17c-.17-.17-.17-.341-.34-.511 0-.17 0-.17-.172-.341 0-.17-.17-.17-.17-.34-.17-.17-.17-.34-.34-.34 0-.171-.17-.341-.17-.341-.17-.17-.17-.341-.342-.511 0 0-.17-.17-.17-.341-.17 0-.17-.17-.34-.34 0-.17-.17-.17-.17-.34-.17-.17-.342-.17-.342-.341l-.34-.34s-.17-.17-.17-.341l-.342-.34-.34-.341s-.17-.17-.17-.34c-.17 0-.34-.17-.34-.341-.172 0-.172-.17-.342-.34 0 0-.17-.17-.34-.17 0-.17-.17-.17-.17-.34-.172-.17-.342-.341-.342-.341-.17-.17-.34-.34-.51-.34 0-.171 0-.171-.17-.341-.172-.17-.512-.341-.682-.511-.17-.17-.34-.511-.682-.681l-.17-.17c-.17-.17-.34-.17-.34-.34-.17 0-.342-.17-.512-.341 0 0-.17-.17-.34-.17 0-.171-.17-.171-.17-.341-.172 0-.342-.17-.512-.17 0-.17-.17-.17-.17-.34-.17 0-.342-.17-.512-.17 0-.17-.17-.17-.34-.34-.17 0-.17-.17-.342-.17-.17-.17-.34-.17-.34-.341-.17 0-.34-.17-.51-.17 0-.17-.172-.17-.172-.341-.17 0-.34-.17-.51-.17-.17-.17-.17-.17-.34-.17-.172-.17-.342-.17-.342-.34-.17 0-.34-.171-.34-.171-.17 0-.34-.17-.512-.17-.17-.17-.17-.17-.34-.17-.17-.171-.34-.171-.512-.341l-.17-.17c-.34 0-.34-.17-.51-.17-.172-.17-.342-.17-.342-.17-.17-.17-.34-.17-.51-.17l-.342-.341c-.17 0-.34 0-.51-.17 0 0-.17 0-.34-.17-.512-.171-1.021-.341-1.703-.511 0-.17-.17-.17-.17-.17-.172-.17-.512-.17-.682-.17 0 0-.17-.17-.342-.17-.17 0-.34 0-.34-.17h-.51c-.172-.17-.342-.17-.512-.17 0-.17-.17-.17-.34-.17s-.342 0-.512-.17h-.34c-.17 0-.34-.17-.512-.17-.17 0-.34-.17-.51-.17h-.342c-.17 0-.34-.171-.51-.171h-.512s-.17 0-.34-.17h-.512c-.17 0-.34-.17-.34-.17h-1.022c-.17 0-.34-.171-.51-.171h-1.024-.34c-.17 0-.34 0-.51-.17h-1.022H117.874c-.17 0-.34.17-.512.17h-1.022-.34c-.17 0-.34 0-.512.171h-1.192l-.17.17c-.17 0-.512 0-.682.17H112.592c-.17.171-.34.171-.34.171h-.51c-.172.17-.342.17-.342.17-.34 0-.51.17-.682.17h-.34c-.17.17-.34.17-.512.17h-.17c-.34.17-.68.34-.852.34h-.17c-.17.17-.51.17-.68.341h-.342c-.17 0-.34.17-.51.17-.17.17-.17.17-.342.17-.17 0-.34.17-.51.17 0 0-.17 0-.342.17-.17 0-.34.171-.34.171-.17 0-.34.17-.34.17-.172 0-.342.17-.682.17 0 0-.17 0-.17.171-.342.17-.512.17-.682.34h-.34c-.172.17-.342.34-.512.34s-.17.17-.34.17-.342.17-.342.341h-.34c-.17.17-.34.17-.51.34-.172 0-.172.171-.342.171-.17.17-.34.17-.34.34h-.342c-.17.17-.34.34-.51.34 0 .17-.17.17-.17.17-.342.17-.512.34-.682.511-.17 0-.17 0-.17.17-.17 0-.512.17-.682.34l-.17.17c-.17 0-.34.17-.512.34l-.17.17c-.17 0-.34.17-.51.34l-.17.171c-.171.17-.341.17-.341.34-.17 0-.341.17-.341.17-.17.17-.34.34-.511.34 0 .17-.17.17-.17.17l-.682.681v.17c-.34 0-.34.17-.511.341-.17.17-.17.17-.34.17 0 .171-.17.341-.34.511 0 0-.17 0-.17.171l-.34.34c-.17.17-.17.17-.341.17-.17.17-.17.341-.34.511l-.17.17-.511.511s0 .17-.17.17c-.171.17-.341.34-.511.681 0 0 0 .17-.17.17 0 .17-.17.34-.34.511l-.17.17c-.17.17-.17.34-.34.511l-.17.17c-.17.171-.17.341-.34.511l-.17.171c-.17.17-.17.34-.341.511 0 0 0 .17-.17.17-.17.341-.17.511-.34.681l-.17.17c-.17.17-.17.511-.34.681 0 0-.17 0-.17.17s-.17.34-.34.511c0 .17 0 .17-.17.34 0 .171-.17.341-.17.511-.17 0-.17.17-.17.17-.17.17-.17.34-.341.511 0 .17 0 .17-.17.341 0 .17-.17.34-.17.511l-.17.17c0 .341-.17.511-.34.681v.171c-.17.34-.17.511-.34.851 0 0 0 .171-.17.171 0 .17-.17.341-.17.511s0 .17-.17.341c0 .17 0 .34-.17.511 0 .17 0 .17-.17.341v.51c-.17 0-.17.171-.17.341 0 .171-.17.341-.17.511 0 .171-.171.171-.171.341s-.17.511-.17.681v.171c-.17.17-.17.511-.341.851v.171c0 .17 0 .341-.17.511 4.768 3.405 10.727 5.278 20.433 4.598 12.941-1.021 18.219-6.471 32.691-6.812 3.406-.17 15.494 0 21.455 6.981.02.005.02.005.02-.165z" fill="#a81c22"/><path d="M121.299 73.578h-.682c-18.049 0-33.033 12.6-36.779 29.627 4.598 3.065 10.557 4.768 19.752 4.087 12.941-1.021 18.219-6.471 32.691-6.812 3.406-.17 15.494 0 21.455 6.981-1.873-18.559-17.369-33.202-36.437-33.883z" fill="#a91c22"/><path d="M121.469 73.578h-.342c-18.219 0-33.202 12.94-36.438 29.968 4.427 2.895 10.046 4.257 18.9 3.746 12.941-1.021 18.219-6.471 32.691-6.812 3.406-.17 15.494 0 21.455 6.981-1.872-18.559-17.368-33.202-36.266-33.883z" fill="#ab1d22"/><path d="M121.639 73.578h-.17c-18.049 0-33.033 13.111-36.098 30.479 4.257 2.554 9.876 3.746 18.219 3.235 12.941-1.021 18.219-6.471 32.691-6.812 3.406-.17 15.494 0 21.455 6.981-1.873-18.559-17.197-33.031-36.097-33.883z" fill="#ab1d22"/><path d="M121.979 73.578c-18.219.17-33.203 13.451-35.927 30.819 4.257 2.384 9.706 3.405 17.538 2.895 12.941-1.021 18.219-6.471 32.691-6.812 3.406-.17 15.494 0 21.455 6.981-1.873-18.388-17.027-32.861-35.757-33.883z" fill="#ad1d23"/><path d="M122.148 73.578c-18.049.341-33.032 13.792-35.246 31.33 4.087 1.873 9.365 2.895 16.687 2.384 12.941-1.021 18.219-6.471 32.691-6.812 3.406-.17 15.494 0 21.455 6.981-1.872-18.218-16.856-32.861-35.587-33.883z" fill="#ae1d23"/><path d="M122.32 73.578c-17.879.341-32.693 14.133-34.736 31.671 4.086 1.702 9.025 2.554 16.006 2.043 12.941-1.021 18.219-6.471 32.691-6.812 3.406-.17 15.494 0 21.455 6.981-1.873-18.218-16.857-32.691-35.416-33.883z" fill="#b01e24"/><path d="M122.66 73.748c-17.879.341-32.522 14.133-34.225 31.841 3.917 1.532 8.684 2.214 15.154 1.703 12.941-1.021 18.219-6.471 32.691-6.812 3.406-.17 15.494 0 21.455 6.981-1.872-18.218-16.686-32.521-35.075-33.713z" fill="#b01e24"/><path d="M123 73.748c-17.879.511-32.351 14.474-33.713 32.182 3.746 1.191 8.344 1.702 14.303 1.362 12.941-1.021 18.219-6.471 32.691-6.812 3.406-.17 15.494 0 21.455 6.981C155.863 89.413 141.219 75.11 123 73.748z" fill="#b21e24"/><path d="M123.17 73.748c-17.707.682-32.01 14.644-33.032 32.352 3.576 1.192 7.833 1.532 13.452 1.192 12.941-1.021 18.219-6.471 32.691-6.812 3.406-.17 15.494 0 21.455 6.981-1.873-18.048-16.347-32.18-34.566-33.713z" fill="#b31e24"/><path d="M123.512 73.748c-17.709.852-31.842 14.984-32.693 32.523 3.576 1.021 7.491 1.361 12.771 1.021 12.941-1.021 18.219-6.471 32.691-6.812 3.406-.17 15.494 0 21.455 6.981-1.873-17.877-16.175-32.18-34.224-33.713z" fill="#b51f25"/><path d="M123.682 73.748c-17.537 1.022-31.33 15.154-31.84 32.862 3.064.682 6.981 1.021 11.749.682 12.941-1.021 18.219-6.471 32.691-6.812 3.406-.17 15.494 0 21.455 6.981-1.874-17.707-16.176-32.01-34.055-33.713z" fill="#b71f25"/><path d="M124.021 73.748c-17.367 1.192-31.159 15.495-31.329 33.033 3.065.511 6.47.851 10.897.511 12.941-1.021 18.219-6.471 32.691-6.812 3.406-.17 15.494 0 21.455 6.981-1.872-17.707-16.005-31.839-33.714-33.713z" fill="#b71f25"/><path d="M93.543 106.781v.17c2.725.511 6.13.511 10.046.341 12.941-1.021 18.219-6.471 32.691-6.812 3.406-.17 15.494 0 21.455 6.981-1.873-17.538-15.836-31.67-33.543-33.714-17.196 1.193-30.649 15.666-30.649 33.034z" fill="#b81f25"/><path d="M94.395 106.44v.681c2.554.341 5.619.341 9.195.171 12.941-1.021 18.219-6.471 32.691-6.812 3.406-.17 15.494 0 21.455 6.981-1.873-17.538-15.666-31.5-33.203-33.714-16.857 1.363-30.138 15.496-30.138 32.693z" fill="#ba1f26"/><path d="M95.247 106.1v1.021c2.384.341 5.107.341 8.343.171 12.941-1.021 18.219-6.471 32.691-6.812 3.406-.17 15.494 0 21.455 6.981-1.873-17.367-15.496-31.5-33.033-33.543-16.515 1.363-29.456 15.325-29.456 32.182z" fill="#bc2026"/><path d="M96.098 105.76v1.532c2.212.17 4.597.17 7.492 0 12.941-1.021 18.219-6.471 32.691-6.812 3.406-.17 15.494 0 21.455 6.981-1.703-17.367-15.496-31.33-32.693-33.543a31.872 31.872 0 0 0-28.945 31.842z" fill="#bd2026"/><path d="M96.949 105.419v1.873c2.043.17 4.256.17 6.641 0 12.941-1.021 18.219-6.471 32.691-6.812 3.406-.17 15.494 0 21.455 6.981-1.703-17.197-15.324-31.16-32.521-33.543-15.836 1.704-28.266 15.155-28.266 31.501z" fill="#bd2026"/><path d="M97.801 105.078c0 .852 0 1.532.17 2.214 1.703.17 3.576.17 5.619 0 12.941-1.021 18.219-6.471 32.691-6.812 3.406-.17 15.494 0 21.455 6.981-1.703-17.197-15.154-30.989-32.182-33.543-15.665 1.874-27.753 14.984-27.753 31.16z" fill="#bf2026"/><path d="M98.652 104.737c0 .852.17 1.873.17 2.725 1.531 0 3.064 0 4.768-.17 12.941-1.021 18.219-6.471 32.691-6.812 3.406-.17 15.494 0 21.455 6.981-1.703-17.027-14.984-30.819-31.842-33.543-15.324 2.044-27.242 14.984-27.242 30.819z" fill="#c12127"/><path d="M99.504 104.397c0 1.021.17 2.043.17 3.064 1.191 0 2.553 0 3.916-.17 12.941-1.021 18.219-6.471 32.691-6.812 3.406-.17 15.494 0 21.455 6.981-1.703-17.027-14.814-30.649-31.672-33.373-14.982 1.875-26.56 14.815-26.56 30.31z" fill="#c32127"/><path d="M100.354 104.057c0 1.021.172 2.214.342 3.405.852 0 1.873-.17 2.895-.17 12.941-1.021 18.219-6.471 32.691-6.812 3.406-.17 15.494 0 21.455 6.981-1.703-16.856-14.645-30.649-31.33-33.373-14.643 2.044-26.053 14.644-26.053 29.969z" fill="#c32127"/><path d="M101.205 103.716c0 1.192.172 2.384.342 3.746.68-.17 1.361-.17 2.043-.17 12.941-1.021 18.219-6.471 32.691-6.812 3.406-.17 15.494 0 21.455 6.981-1.703-16.856-14.645-30.478-31.16-33.373-14.303 2.214-25.371 14.644-25.371 29.628z" fill="#c42127"/><path d="M102.227 103.205c0 1.362 0 2.895.172 4.087h1.191c12.941-1.021 18.219-6.471 32.691-6.812 3.406-.17 15.494 0 21.455 6.981-1.703-16.687-14.473-30.308-30.82-33.203-14.131 2.215-24.689 14.304-24.689 28.947z" fill="#c62128"/><path d="M103.078 102.864c0 1.533 0 3.065.342 4.428h.17c12.941-1.021 18.219-6.471 32.691-6.812 3.406-.17 15.494 0 21.455 6.981-1.703-16.516-14.303-30.138-30.479-33.203-13.792 2.385-24.179 14.304-24.179 28.606z" fill="#c92228"/><path d="M103.93 102.524c0 1.703.17 3.235.342 4.768 12.43-1.192 17.707-6.471 32.01-6.812 3.406-.17 15.494 0 21.455 6.981-1.703-16.516-14.133-29.968-30.309-33.203-13.451 2.385-23.498 14.134-23.498 28.266z" fill="#cc2229"/><path d="M127.768 74.43c-13.111 2.383-22.986 13.962-22.986 27.754 0 1.702.17 3.405.34 4.938 11.75-1.361 17.199-6.3 31.16-6.641 3.406-.17 15.494 0 21.455 6.981-1.704-16.346-13.964-29.797-29.969-33.032z" fill="#cc2229"/><path fill="#215da0" stroke="#215da0" stroke-width="1.929" stroke-miterlimit="2.613" d="M154.445 80.215l7.243-33.83h9.523l-7.242 33.83h-9.524zM65.85 59.083h18.652l-1.687 8.135H63.866c-.794 5.06-.397 4.465 4.96 4.465h14.187l-1.885 8.532H66.643c-3.373 0-8.433 0-11.012-1.984-2.877-2.48-1.984-7.043-.496-14.385 2.778-12.699 4.762-17.461 17.461-17.461H88.47l-1.687 7.937H72.1c-5.457-.001-5.06-.595-6.25 4.761zM139.066 54.619c-3.57 0-5.158-.199-5.654 2.183-.496 2.48.992 2.281 3.77 2.281h9.625c8.73 0 8.432 5.854 7.34 11.013-1.488 7.144-6.844 10.12-14.484 10.12h-20.238l1.785-8.333h17.66c3.572 0 5.059.595 5.654-2.183.596-2.579-.992-2.282-4.266-2.282h-9.922c-6.844 0-7.738-4.762-6.447-10.715 1.389-6.646 6.15-10.317 13.889-10.317h20.637l-1.688 8.234h-17.661v-.001zM42.634 46.385c4.365 0 7.342.396 9.028 1.687 2.48 1.885 3.373 5.159 2.48 9.326-.893 4.067-3.076 7.738-5.953 9.723-3.175 1.984-6.151 1.786-10.12 1.786h-9.524l-2.48 11.31H16.64l7.243-33.831h18.751v-.001zm-10.913 7.936l-1.389 6.449h7.441c4.067 0 5.754.694 6.647-3.274.694-3.373-.893-3.175-5.655-3.175h-7.044zM109.801 46.385c4.365 0 7.439.396 9.127 1.687 2.381 1.885 3.273 5.159 2.381 9.326-.793 4.067-3.076 7.738-5.953 9.723-3.174 1.984-6.051 1.786-10.119 1.786h-9.524l-2.38 11.31h-9.525l7.243-33.831h18.75v-.001zm-10.914 7.936l-1.389 6.449h7.441c4.066 0 5.854.694 6.646-3.274.693-3.373-.793-3.175-5.654-3.175h-7.044z"/><path fill="#dbdcdd" stroke="#dbdcdd" stroke-width="1.986" stroke-miterlimit="2.613" d="M156.727 77.734l7.242-33.83h9.525l-7.342 33.83h-9.425zM141.35 52.238c-3.572 0-5.16-.297-5.656 2.183-.594 2.381.893 2.282 3.77 2.282h9.625c8.631 0 8.432 5.854 7.342 10.913-1.488 7.144-6.846 10.119-14.484 10.119h-20.24l1.787-8.234h17.561c3.57 0 5.158.496 5.754-2.182.594-2.679-.992-2.382-4.268-2.382h-10.02c-6.846 0-7.738-4.762-6.449-10.615 1.391-6.647 6.25-10.417 13.988-10.417h20.637l-1.787 8.333h-17.56zM44.917 43.904c4.365 0 7.441.397 9.127 1.687 2.48 1.984 3.374 5.159 2.381 9.425-.793 3.968-2.977 7.739-5.953 9.623-3.175 1.984-6.052 1.885-10.119 1.885h-9.524l-2.381 11.21h-9.524l7.242-33.83h18.751zm-10.914 7.937l-1.389 6.548h7.441c4.167 0 5.854.694 6.647-3.274.793-3.374-.793-3.274-5.556-3.274h-7.143zM111.982 43.904c4.465 0 7.441.397 9.127 1.687 2.48 1.984 3.375 5.159 2.48 9.425-.893 3.968-3.074 7.739-5.951 9.623-3.176 1.984-6.152 1.885-10.121 1.885h-9.523l-2.48 11.21H85.99l7.342-33.83h18.65zm-10.912 7.937l-1.391 6.548h7.541c4.068 0 5.754.694 6.646-3.274.695-3.374-.893-3.274-5.654-3.274h-7.142zM68.033 56.702h18.75l-1.786 8.136H66.346c-1.091 4.762-1.29 4.464 4.266 4.464h14.584l-1.786 8.433H68.925c-3.373 0-8.532.1-11.012-1.983-2.976-2.382-2.083-7.044-.496-14.287 2.679-12.699 4.663-17.56 17.461-17.56h15.874l-1.687 7.937H74.283c-5.457-.001-5.06-.497-6.25 4.86z"/><path d="M170.121 77.239h.197v-.497h.199c.297 0 .396.1.396.497h.297c0-.298 0-.497-.297-.595.197 0 .297-.199.297-.397 0-.199-.197-.397-.496-.397h-.594v1.389h.001zm.197-1.191h.396c.158 0 .266.107.27.226.008.192-.209.271-.367.271h-.299v-.497zm-.963.496c0-.695.566-1.29 1.262-1.29.594 0 1.189.595 1.189 1.29s-.596 1.29-1.189 1.29c-.695 0-1.262-.595-1.262-1.29zm.206 0c0-.595.461-1.091 1.057-1.091.594 0 .99.496.99 1.091s-.496 1.091-.99 1.091c-.597.001-1.057-.495-1.057-1.091zM156.727 77.734l7.242-33.83h9.525l-7.342 33.83h-9.425zM141.35 52.238c-3.572 0-5.16-.297-5.656 2.183-.594 2.381.893 2.282 3.77 2.282h9.625c8.631 0 8.432 5.854 7.342 10.913-1.488 7.144-6.846 10.119-14.484 10.119h-20.24l1.787-8.234h17.561c3.57 0 5.158.496 5.754-2.182.594-2.679-.992-2.382-4.268-2.382h-10.02c-6.846 0-7.738-4.762-6.449-10.615 1.391-6.647 6.25-10.417 13.988-10.417h20.637l-1.787 8.333h-17.56zM44.917 43.904c4.365 0 7.441.397 9.127 1.687 2.48 1.984 3.374 5.159 2.381 9.425-.793 3.968-2.977 7.739-5.953 9.623-3.175 1.984-6.052 1.885-10.119 1.885h-9.524l-2.381 11.21h-9.524l7.242-33.83h18.751zm-10.914 7.937l-1.389 6.548h7.441c4.167 0 5.854.694 6.647-3.274.793-3.374-.793-3.274-5.556-3.274h-7.143zM111.982 43.904c4.465 0 7.441.397 9.127 1.687 2.48 1.984 3.375 5.159 2.48 9.425-.893 3.968-3.074 7.739-5.951 9.623-3.176 1.984-6.152 1.885-10.121 1.885h-9.523l-2.48 11.21H85.99l7.342-33.83h18.65zm-10.912 7.937l-1.391 6.548h7.541c4.068 0 5.754.694 6.646-3.274.695-3.374-.893-3.274-5.654-3.274h-7.142zM68.033 56.702h18.75l-1.786 8.136H66.346c-1.091 4.762-1.29 4.464 4.266 4.464h14.584l-1.786 8.433H68.925c-3.373 0-8.532.1-11.012-1.983-2.976-2.382-2.083-7.044-.496-14.287 2.679-12.699 4.663-17.56 17.461-17.56h15.874l-1.687 7.937H74.283c-5.457-.001-5.06-.497-6.25 4.86z" fill="#fff"/></g></svg>