<svg xmlns="http://www.w3.org/2000/svg" width="2500" height="2500" viewBox="0 0 192.756 192.756"><g fill-rule="evenodd" clip-rule="evenodd"><path fill="#fff" d="M0 0h192.756v192.756H0V0z"/><path d="M39.611 79.109h13.154s9.947.154 9.947 11.319c0 10.627-10.164 11.319-10.164 11.319h-5.237v6.469h-7.7V79.109zm7.7 16.017h3.081s4.081-.385 4.081-4.851-4.389-4.774-4.389-4.774h-2.772v9.625h-.001zM144.201 79.109H157.6s9.703.616 9.703 11.319c0 9.702-9.779 11.319-9.779 11.319h-5.621v6.469h-7.701V79.109h-.001zm7.701 16.017h3.08s4.08-.385 4.08-4.851-4.389-4.774-4.389-4.774h-2.771v9.625zM66.1 79.341h7.623v10.626h8.086V79.341h7.315v28.876h-7.238V96.512H73.8v11.705h-7.7V79.341zM96.324 79.264h7.276v28.953h-7.276V79.264zM129.896 79.264h7.278v28.953h-7.278V79.264zM110.762 79.341h7.314v22.022h7.932v6.854h-15.246V79.341zM186.688 79.032s-2.85-.385-5.467-.385c-4.006 0-11.012 1.078-11.09 9.395 0 0-.512 6.512 6.623 8.316 6.699 1.694 5.197 3.042 5.391 3.234 0 0 .154 2.078-4.93 2.078-5.082 0-6.236-.924-6.236-.924v6.776s1.172.514 6.16.924c6.545.539 12.783-2.303 12.783-9.316 0-2.772-1.387-7.239-7.777-8.779-4.088-.985-4.652-2.152-4.621-2.695 0 0-.18-2.335 4.467-2.233 4.311.095 4.773.693 4.773.693l-.076-7.084zM15.624 114.109c-8.795 0-12.789-7.407-12.789-13.201V79.081h26.167v21.827c0 5.794-4.31 13.201-13.105 13.201h-.273zm.16-.752c8.275 0 12.448-7.006 12.448-12.457V79.832H3.605V100.9c0 5.451 3.877 12.457 12.152 12.457h.027z" fill="#00a1e3"/><path d="M4.242 101.017c0-6.449 5.228-11.676 11.676-11.676s11.676 5.228 11.676 11.676-5.228 11.676-11.676 11.676-11.676-5.228-11.676-11.676zm11.676 10.989c6.069 0 10.989-4.92 10.989-10.989s-4.92-10.989-10.989-10.989c-6.069 0-10.989 4.92-10.989 10.989s4.92 10.989 10.989 10.989z" fill="#00a1e3"/><path fill="#00a1e3" d="M10.503 91.271l.657 3.645 3.645.657-3.645.657-.657 3.645-.657-3.645-3.645-.657 3.645-.657.657-3.645z"/><path fill="#00a1e3" d="M13.235 90.091l.418 2.315 2.315.418-2.315.417-.418 2.316-.417-2.316-2.316-.417 2.316-.418.417-2.315zM21.415 110.854l-.657-3.646-3.645-.657 3.645-.657.657-3.645.657 3.645 3.645.657-3.645.657-.657 3.646z"/><path fill="#00a1e3" d="M18.683 112.033l-.418-2.315-2.316-.418 2.316-.417.418-2.316.417 2.316 2.316.417-2.316.418-.417 2.315zM26.805 99.438s-1.518.698-2.671.698-2.458-.667-2.458-.667-1.427-.851-3.126-.851c-1.457 0-2.763.88-2.763.88s-1.518.698-2.792.698c-1.275 0-2.398-.698-2.398-.698s-1.244-.88-2.944-.88-2.698.774-2.698.774l-.064.865s1.062-.797 2.762-.797 2.944.88 2.944.88 1.123.698 2.398.698c1.274 0 2.792-.698 2.792-.698s1.306-.88 2.763-.88c1.7 0 3.126.85 3.126.85s1.305.668 2.458.668 2.762-.751 2.762-.751l-.091-.789zM26.917 102.018s-1.629.767-2.782.767-2.458-.668-2.458-.668-1.427-.85-3.126-.85c-1.457 0-2.763.88-2.763.88s-1.518.698-2.792.698c-1.275 0-2.398-.698-2.398-.698s-1.244-.88-2.944-.88-2.803.782-2.803.782l.041.857s1.062-.797 2.762-.797 2.944.88 2.944.88 1.123.698 2.398.698c1.274 0 2.792-.698 2.792-.698s1.306-.88 2.763-.88c1.7 0 3.126.85 3.126.85s1.305.668 2.458.668 2.762-.752 2.762-.752l.02-.857z"/><path d="M26.947 100.683s-1.659.778-2.812.778-2.458-.668-2.458-.668-1.427-.851-3.126-.851c-1.457 0-2.763.881-2.763.881s-1.518.698-2.792.698c-1.275 0-2.398-.698-2.398-.698s-1.244-.881-2.944-.881-2.803.801-2.803.801l.041.839s1.062-.797 2.762-.797 2.944.88 2.944.88 1.123.698 2.398.698c1.274 0 2.792-.698 2.792-.698s1.306-.88 2.763-.88c1.7 0 3.126.85 3.126.85s1.305.668 2.458.668 2.843-.801 2.843-.801l-.031-.819zM4.665 82.476h2.029s1.469.093 1.469 1.714c0 1.469-1.481 1.714-1.481 1.714h-.851v.979H4.665v-4.407zM5.831 84.9h.466s.618-.058.618-.734-.665-.723-.665-.723h-.42V84.9h.001zM20.501 82.476h2.029s1.469.093 1.469 1.714c0 1.469-1.481 1.714-1.481 1.714h-.851v.979h-1.166v-4.407zm1.166 2.424h.467s.618-.058.618-.734-.665-.723-.665-.723h-.42V84.9zM8.676 82.511H9.83v1.608h1.224v-1.608h1.108v4.372h-1.096V85.11H9.842v1.773H8.676v-4.372zM13.247 82.499h1.107v4.384h-1.096l-.011-4.384zM18.33 82.499h1.108v4.384h-1.097l-.011-4.384zM15.438 82.511h1.108v3.334h1.201v1.038h-2.309v-4.372zM26.934 82.464s-.431-.058-.828-.058c-.606 0-1.667.163-1.679 1.422 0 0-.077.986 1.003 1.259 1.015.257.787.461.816.49 0 0 .023.314-.747.314-.769 0-.944-.14-.944-.14v1.026s.177.078.933.14c.991.082 1.936-.349 1.936-1.411 0-.42-.21-1.096-1.178-1.329-.619-.149-.734-.326-.7-.408.037-.086.023-.338.676-.338s.723.105.723.105l-.011-1.072z" fill="#00a1e3"/></g></svg>