<svg xmlns="http://www.w3.org/2000/svg" width="2500" height="2500" viewBox="0 0 192.756 192.756"><g fill-rule="evenodd" clip-rule="evenodd"><path fill="#fff" d="M0 0h192.756v192.756H0V0z"/><path d="M11.972 83.819l-.615-.104v3.82c0 .243.05.509.144.614.144.161.255.177.443.194l.51.022c.116.005.243.083.238.199-.005.138-.088.26-.221.255l-1.994-.061-1.622.061c-.133.005-.277 0-.333-.122-.066-.15.072-.354.232-.354l.25.011c.249.005.459-.066.576-.283.061-.116.056-.215.056-.354v-8.743a.72.72 0 0 0-.133-.421c-.066-.105-.122-.199-.227-.216l-.521-.061c-.122-.017-.266-.139-.249-.288.027-.161.232-.161.393-.161h3.798c1.241 0 2.918.875 2.979 2.924.056 1.655-1.024 3.035-2.613 3.178-.421.034-.676-.038-1.091-.11zm1.926-2.951c.039-1.196-.454-2.591-1.65-2.608l-.227-.005c-.222 0-.399.044-.537.21-.133.161-.127.394-.127.526v3.987c0 .244.172.398.465.432 1.501.193 2.032-1.269 2.076-2.542zM29.351 78.963c0-.177.022-.31-.083-.443-.061-.083-.133-.155-.244-.161l-.465-.055c-.15-.017-.299-.1-.305-.249a.29.29 0 0 1 .299-.293l1.645.083 1.545-.066c.171-.006.354.094.354.26-.006.122-.078.238-.199.243l-.509.044c-.117.011-.188.056-.266.161-.083.116-.105.238-.105.398v8.605c0 .205-.017.366.089.515.077.11.16.155.276.177l.587.089c.11.017.205.149.194.293a.245.245 0 0 1-.26.232l-1.744-.094-1.711.062c-.122.005-.255-.072-.26-.228a.261.261 0 0 1 .227-.266l.543-.089c.133-.022.133-.088.238-.166.055-.044.138-.232.138-.493v-4.401h-3.256v4.401c0 .261.078.449.139.493.105.078.188.144.321.166l.498.089a.258.258 0 0 1 .21.266c-.005.111-.083.228-.194.228l-1.739-.039-1.811.088c-.127.006-.244-.049-.266-.194-.017-.144.088-.276.199-.293l.615-.11c.1-.011.166-.072.232-.172.094-.144.078-.299.078-.499v-8.604c0-.161.005-.299-.078-.421-.072-.1-.161-.127-.271-.138l-.432-.044a.274.274 0 0 1-.249-.282c.011-.15.127-.244.243-.239l1.746.083 1.64-.083c.132-.005.288.067.288.228 0 .133-.072.249-.171.26l-.56.055a.432.432 0 0 0-.293.117c-.138.116-.144.276-.144.459v3.649h3.272v-3.622h-.001zM41.737 88.725l-1.7.088c-.133.006-.277-.049-.305-.177-.033-.138.094-.293.238-.293l.366-.011a.56.56 0 0 0 .459-.21c.149-.172.133-.349.133-.576v-8.643a.454.454 0 0 0-.172-.382c-.122-.105-.244-.105-.41-.122l-.266-.022c-.166-.017-.338-.122-.321-.288.006-.144.161-.244.316-.232l1.783.083 1.772-.078c.161-.005.366.039.382.199a.273.273 0 0 1-.249.294l-.56.05a.511.511 0 0 0-.315.139c-.155.127-.194.293-.194.492v8.633c0 .26.11.477.188.521.144.077.244.138.404.138h.426c.133 0 .233.133.227.261-.005.138-.133.238-.266.232l-1.936-.096zM51.799 88.831c-.122 0-.21-.089-.233-.205-.033-.166.145-.266.305-.305l.493-.122c.116-.027.16-.11.222-.205.094-.133.116-.254.116-.421v-8.539c0-.16-.006-.282-.116-.398a.388.388 0 0 0-.266-.139l-.432-.055a.281.281 0 0 1-.244-.277c-.005-.149.117-.305.266-.299l1.495.088 1.733-.094c.155-.005.32.078.337.228a.295.295 0 0 1-.227.299l-.471.077c-.16.028-.26.1-.366.222-.144.177-.133.349-.133.576v7.946c0 .36.117.625.394.853.182.149.327.238.564.238h.354c.648.005 1.08-.293 1.495-.764.67-.764.548-1.8.919-1.794.25.011.221.36.221.609l-.025 2.131c0 .122-.061.199-.144.277-.128.122-.188.055-.305.055l-5.952.018zM67.867 88.725l-1.7.088c-.133.006-.277-.049-.304-.177-.034-.138.094-.293.237-.293l.366-.011a.562.562 0 0 0 .459-.21c.149-.172.133-.349.133-.576v-8.643a.455.455 0 0 0-.171-.382c-.122-.105-.244-.105-.41-.122l-.266-.022c-.166-.017-.338-.122-.321-.288.005-.144.16-.244.315-.232l1.783.083 1.772-.078c.161-.005.365.039.382.199a.273.273 0 0 1-.25.294l-.559.05a.514.514 0 0 0-.315.139c-.155.127-.194.293-.194.492v8.633c0 .26.111.477.188.521.144.077.244.138.404.138h.426c.133 0 .233.133.228.261-.006.138-.133.238-.266.232l-1.937-.096zM81.217 83.819l-.614-.104v3.82c0 .243.05.509.144.614.144.161.254.177.443.194l.509.022c.117.005.244.083.238.199-.005.138-.088.26-.221.255l-1.994-.061-1.622.061c-.133.005-.277 0-.333-.122-.066-.15.073-.354.233-.354l.249.011c.249.005.459-.066.576-.283.061-.116.056-.215.056-.354v-8.743a.72.72 0 0 0-.133-.421c-.066-.105-.122-.199-.227-.216L78 78.276c-.122-.017-.266-.139-.249-.288.027-.161.232-.161.393-.161h3.799c1.24 0 2.918.875 2.979 2.924.055 1.655-1.024 3.035-2.614 3.178-.42.034-.675-.038-1.091-.11zm1.927-2.951c.039-1.196-.454-2.591-1.65-2.608l-.227-.005c-.222 0-.398.044-.537.21-.133.161-.127.394-.127.526v3.987c0 .244.172.398.465.432 1.5.193 2.032-1.269 2.076-2.542zM102.482 78.42c-.559 0-.896.156-1.273.687-.482.687-.791 1.811-1.18 1.777-.166-.011-.111-.376-.078-.609l.438-2.686c.018-.116.051-.238.217-.227.338.022.299.537.615.537l5.309-.006c.482 0 .703-.62.914-.614.244.005.293.21.283.388l-.184 2.929c-.006.149-.139.338-.266.311-.404-.094-.299-1.069-.715-1.822-.221-.382-.586-.665-1.074-.665l-.764-.011v9.28c0 .177.027.354.129.449.176.161.309.122.502.144l.504.061c.135.016.262.116.262.254-.006.127-.133.233-.262.227l-2.01-.088-1.844.094c-.148.005-.326-.056-.332-.205-.012-.139.105-.249.244-.266l.697-.099c.145-.034.26-.062.344-.216.076-.127.072-.255.072-.421v-9.197l-.548-.006zM118.43 83.636v4.048c0 .183.027.36.121.465.145.161.244.155.416.177l.369.061c.129.022.256.111.262.238.006.139-.156.21-.289.205l-1.771-.094-1.584.088c-.188.006-.465.033-.447-.177.006-.183.172-.244.332-.271l.426-.078c.16-.034.293-.078.383-.21.088-.127.076-.244.076-.404v-8.688c0-.172 0-.283-.148-.421a.747.747 0 0 0-.471-.178l-.389-.016a.231.231 0 0 1-.221-.228c0-.132.15-.199.287-.199l3.66-.061c1.545-.022 3.062.787 2.953 2.896-.096 1.777-1.475 2.281-1.912 2.441l-.338.122c.178.055.367.166.422.244.178.216.281.41.398.698l1.352 3.25c.127.321.238.526.51.742.203.155.537 0 .607.288.035.133-.176.238-.336.238l-1.768.006c-.121 0-.211 0-.32-.055-.156-.083-.189-.222-.271-.383l-1.506-3.92c-.139-.282-.139-.565-.395-.736-.109-.072-.148-.089-.254-.089h-.154v.001zm1.539-.952c.619-.454.658-1.102.691-1.877.039-.831-.393-2.409-1.494-2.425h-.25a.464.464 0 0 0-.359.161c-.111.121-.127.293-.127.432v4.064h.404c.459.005.764-.084 1.135-.355zM133.875 83.21v3.788c0 .426.037.77.371 1.035.176.139.32.228.553.228h.553c.672 0 1.092-.438 1.441-.986.508-.803.371-1.684.818-1.662.078 0 .15.211.15.36l.006 2.469a.316.316 0 0 1-.117.255c-.133.122-.299.122-.492.122l-5.803.011c-.145 0-.299-.028-.332-.161-.033-.133.076-.277.193-.305l.537-.117a.406.406 0 0 0 .299-.227c.078-.139.078-.26.078-.421v-8.683a.57.57 0 0 0-.139-.404.36.36 0 0 0-.271-.138l-.521-.061c-.109-.016-.182-.133-.182-.249.006-.127.121-.227.254-.227h5.941c.223 0 .127-.055.26.061.084.077.039.254.039.415l.006 1.999c0 .133-.1.255-.232.26-.32.005-.482-1.052-.98-1.694-.387-.504-.963-.537-1.633-.542h-.41c-.117 0-.211.022-.293.111-.1.105-.094.232-.094.365v3.893h.957c.35 0 .676-.149.842-.337.133-.161.193-.277.256-.465l.164-.487c.039-.133.139-.282.289-.232.115.033.154.144.154.26l.006 3.339c0 .105-.1.188-.205.193-.121.011-.215-.083-.248-.199l-.229-.747c-.076-.25-.148-.427-.354-.593-.238-.199-.471-.227-.787-.227h-.845zM149.77 77.612c.111 0 .188.088.227.21l3.035 9.513c.105.354.277.687.441.813.256.205.793.056.766.398-.012.133-.105.222-.229.222l-1.721-.05-1.568.094c-.127.006-.266-.077-.275-.238-.006-.172.139-.244.271-.277l.387-.089c.111-.028.193-.05.25-.194.039-.116.027-.305-.012-.487l-.787-2.575h-2.529l-.688 2.581c-.043.172.033.326.09.465a.4.4 0 0 0 .299.227l.443.056c.199.022.459.061.459.249-.006.205-.221.277-.41.266l-1.379-.088-1.18.111c-.115.011-.254-.061-.27-.21-.029-.21.166-.299.326-.338l.404-.1c.139-.033.203-.149.293-.282.111-.161.148-.288.205-.477l2.912-9.574c.04-.137.128-.226.24-.226zm-1.518 6.727h2.115l-1.08-3.66-1.035 3.66zM164.969 77.966c-1.768.155-2.609 2.946-2.57 5.194.033 2.331.896 5.282 2.957 5.238.826-.017 1.596-.991 1.805-2.016l.189-.924c.037-.183.154-.388.348-.36.193.022.238.255.238.443l-.016 2.143a.643.643 0 0 1-.133.421c-.465.493-1.496.963-2.67.914-2.729-.133-4.568-2.974-4.545-5.842.027-2.824 1.877-5.653 4.518-5.72 1.035-.027 2.398.394 2.58.643.078.105.117.36.117.587l-.006 1.445c0 .266.027.62-.26.637a.257.257 0 0 1-.262-.161l-.514-1.479c-.27-.77-.891-1.24-1.776-1.163zM180.68 83.642v3.832c0 .271.096.509.156.554.105.078.16.161.271.183l.537.111a.259.259 0 0 1 .199.255c0 .127-.105.244-.229.238l-1.838-.055-1.705.066c-.115 0-.227-.044-.26-.155-.039-.127.078-.277.193-.299l.615-.105a.357.357 0 0 0 .244-.138c.127-.149.121-.736.121-.958v-3.422l-2.27-4.746c-.123-.26-.201-.437-.428-.608-.221-.166-.648.049-.625-.338.01-.116.111-.216.227-.21l1.611.049 1.723-.072c.143 0 .305.05.326.194.027.149-.133.283-.287.283l-.334.005c-.115 0-.199.022-.281.1-.133.122-.133.315-.061.476l1.844 4.098 1.705-3.539c.16-.326.299-.642.221-.886-.043-.144-.199-.216-.359-.216l-.299-.011c-.154 0-.338-.061-.344-.199-.01-.238.172-.327.35-.311l1.113.111 1.174-.127c.139-.017.266.1.26.277-.016.305-.365.199-.742.382-.359.183-.67 1.024-1.029 1.728l-1.799 3.453zM50.367 115.15c-.122 0-.21-.088-.232-.205-.034-.166.144-.266.304-.305l.493-.121c.116-.027.16-.111.221-.205a.656.656 0 0 0 .117-.42v-8.539c0-.16-.006-.283-.117-.398a.382.382 0 0 0-.266-.139l-.432-.055a.282.282 0 0 1-.243-.277c-.006-.15.116-.305.266-.299l1.495.088 1.733-.094c.155-.006.321.078.337.227a.293.293 0 0 1-.227.299l-.471.078a.58.58 0 0 0-.366.221c-.144.178-.133.35-.133.576v7.947c0 .359.116.625.393.852.183.15.327.238.565.238h.354c.648.006 1.08-.293 1.495-.764.67-.764.549-1.801.919-1.795.249.012.221.361.221.609l-.027 2.133c0 .121-.061.199-.144.275-.127.123-.188.057-.304.057l-5.951.016zM73.68 109.547c.011 2.896-2.06 6.219-4.74 5.77-2.392-.398-3.909-3.1-3.826-5.791.083-2.725 1.667-5.549 4.27-5.576 2.652-.022 4.284 2.862 4.296 5.597zm-6.783-.227c-.045 2.402.809 5.775 2.824 5.525 1.617-.199 2.276-3.023 2.193-5.211-.083-2.258-.786-5.398-2.741-5.148-1.65.211-2.237 2.764-2.276 4.834zM89.366 115.184l-5.404-8.799v7.332c0 .172.083.51.221.625.139.111.299.244.521.26l.327.029c.193.01.448.094.415.287-.027.154-.188.227-.343.221l-1.434-.043-1.351.043c-.122 0-.244-.043-.277-.16-.05-.154.144-.271.305-.299l.398-.072a.683.683 0 0 0 .36-.176c.2-.178.244-.389.244-.654v-8.467c0-.176-.022-.311-.138-.438a.54.54 0 0 0-.382-.166l-.354-.021c-.149-.012-.288-.121-.282-.277.006-.121.089-.232.21-.232h2.049c.088 0 .155 0 .233.039.11.061.133.16.193.266l4.391 7.432v-6.557a.634.634 0 0 0-.254-.498.605.605 0 0 0-.321-.133l-.382-.039c-.155-.006-.343-.1-.343-.26 0-.184.216-.266.393-.262l1.168.057 1.207-.057c.144 0 .299.068.315.211.012.139-.11.25-.238.277l-.415.088c-.105.023-.188.018-.282.084-.161.111-.183.281-.183.48v9.736c0 .176-.006.375-.172.426-.179.054-.301-.123-.395-.283zM99.836 115.135c-.16 0-.342.021-.314-.271.027-.289.846-.084 1.102-.461.166-.238.188-.447.188-.74l.012-7.781c0-.305.027-.586-.172-.77-.111-.105-.193-.176-.326-.16l-.39.048c-.193.023-.453.078-.48-.148-.045-.338 1.035-.543 1.744-.615l1.992-.211c1.9-.203 5 .965 5.117 5.4.082 3.139-1.512 5.719-4.275 5.713l-4.198-.004zm3.594-10.582h-.238c-.227 0-.375.105-.514.277-.162.199-.15.52-.15.652l.012 8.023c0 .326.133.715.227.814.139.16.422.371.742.371l.305-.006c2.188-.021 2.664-2.791 2.652-4.979-.013-2.318-.716-5.125-3.036-5.152zM125.133 109.547c.01 2.896-2.061 6.219-4.74 5.77-2.393-.398-3.91-3.1-3.826-5.791.082-2.725 1.666-5.549 4.27-5.576 2.651-.022 4.284 2.862 4.296 5.597zm-6.783-.227c-.045 2.402.809 5.775 2.822 5.525 1.617-.199 2.277-3.023 2.193-5.211-.082-2.258-.785-5.398-2.74-5.148-1.65.211-2.236 2.764-2.275 4.834zM140.818 115.184l-5.404-8.799v7.332c0 .172.084.51.223.625.137.111.299.244.52.26l.326.029c.193.01.449.094.416.287-.027.154-.189.227-.344.221l-1.434-.043-1.352.043c-.121 0-.244-.043-.277-.16-.049-.154.145-.271.305-.299l.398-.072a.686.686 0 0 0 .361-.176c.199-.178.242-.389.242-.654v-8.467c0-.176-.021-.311-.139-.438a.538.538 0 0 0-.381-.166l-.355-.021c-.148-.012-.287-.121-.281-.277.006-.121.088-.232.211-.232h2.047c.09 0 .156 0 .234.039.109.061.133.16.193.266l4.391 7.432v-6.557a.637.637 0 0 0-.254-.498.608.608 0 0 0-.322-.133l-.381-.039c-.156-.006-.344-.1-.344-.26 0-.184.215-.266.393-.262l1.168.057 1.207-.057c.145 0 .299.068.316.211.012.139-.111.25-.238.277l-.416.088c-.105.023-.188.018-.281.084-.16.111-.184.281-.184.48v9.736c0 .176-.006.375-.172.426-.175.054-.298-.123-.392-.283z"/></g></svg>