<svg xmlns="http://www.w3.org/2000/svg" width="2500" height="2500" viewBox="0 0 192.756 192.756"><g fill-rule="evenodd" clip-rule="evenodd"><path d="M0 0h192.756v192.756H0V0z"/><path d="M110.617 127.372c.18.494.045 1.168 0 1.707l-.314.09c-2.426-.18-4.941-.135-7.457-.09l-.09.135-.225 4.94.135.18 6.918.045c.043.494 0 1.078-.09 1.617l-.18.09c-2.246 0-4.582-.135-6.783 0l-.135.314c0 1.752-.27 3.324-.135 5.075 2.516.18 5.211.136 7.637 0l.135.136-.045 1.481-.361.135-9.656-.045-.09-.09c.494-5.075.674-10.601.809-15.631.135-.18.404-.045.584-.135 3.099.046 6.288.001 9.343.046zM131.188 127.372c2.785 4.626 5.75 8.983 8.67 13.476l.225.179.09-.224c.314-4.402.494-8.67.629-13.341.674-.225 1.303-.045 2.021 0-.449 5.03-.764 10.511-.943 15.676-.898.045-2.021.09-2.965-.045-2.74-4.491-5.795-8.849-8.58-13.34l-.135-.09-.135.18-.494 11.05-.043 2.2c-.629.135-1.393.045-2.066.045l-.045-.135c.629-5.075.674-10.376.898-15.541.09-.18.27-.045.402-.135l2.471.045zM125.439 127.462c-.539 5.3-.629 10.376-.854 15.676-.674.135-1.527.09-2.291.09l-.09-.135c.584-5.165.764-10.376.898-15.586.135-.18.359-.09.539-.135l1.798.09zM63.454 127.731c.899.27 1.617 1.168 1.977 2.021.449 1.707.09 3.683-1.168 4.851-.809.809-1.886 1.168-2.964 1.348l-.09.135c1.257 2.38 2.784 4.672 3.952 7.097a6.776 6.776 0 0 1-2.335 0l-4.626-8.399v-.135c1.932-.135 4.446-.09 5.121-2.29.224-.81.18-1.842-.404-2.426-1.257-1.258-3.324-.629-5.031-.719l-.135.27-.494 11.992-.045 1.662c-.763.18-1.482.18-2.245.09l-.046-.135c.404-5.165.629-10.286.809-15.586l.539-.135c2.424.135 4.849-.225 7.185.359zM51.417 127.507c1.212.135 2.335 1.033 2.83 2.156.494 1.617.179 3.413-.898 4.671-1.617 1.662-4.087 2.021-6.244 1.527-.179-.449-.404-.809-.449-1.303 1.887.045 4.177.135 5.255-1.752.404-.539.36-1.438.225-2.065-.18-.719-.719-1.078-1.303-1.393-1.302-.314-2.964-.135-4.401-.135l-.135.359-.494 12.622c-.09.404.135 1.122-.45 1.077h-1.886l-.089-.135c.539-5.075.718-10.376.898-15.541.224-.225.583-.09.853-.135l6.288.047zM114.299 127.731c-.404 4.401-.494 8.849-.674 13.386-.045.225.135.358.314.358l6.738-.044c.225.538-.045 1.122 0 1.661l-.18.09c-2.92.09-6.109 0-9.162-.045l-.045-.135c.492-5.12.492-10.286.674-15.406l.225-.135 2.064.045.046.225z" fill="#cf4044"/><path d="M82.543 130.966c1.303 2.425 1.213 6.108-.135 8.534-1.796 3.413-5.659 4.446-9.252 4.132-2.516-.225-5.076-1.393-6.378-3.728-1.527-2.92-1.168-7.188.854-9.792 2.605-3.189 7.366-3.504 11.094-2.336 1.527.539 3.009 1.752 3.817 3.19zm-5.03-1.617c-2.83-.898-6.289-.494-8.13 1.932-1.572 2.2-1.797 5.749-.45 8.085.943 1.707 2.74 2.336 4.537 2.516 2.516.224 5.121-.405 6.558-2.651 1.392-2.021 1.617-5.255.494-7.455-.628-1.17-1.842-2.068-3.009-2.427zM93.414 127.552c2.021.18 3.952 1.078 4.895 3.01 1.482 3.278 1.258 7.636-1.258 10.376-1.481 1.662-3.682 2.2-5.883 2.335h-7.321l-.045-.09c.449-5.12.674-10.376.898-15.586l.134-.18 8.58.135zm1.662 2.426c-2.516-1.213-5.345-.674-8.265-.764l-.045.135-.629 11.993.09.224c3.278.046 7.142.539 9.432-2.245 1.751-2.156 1.886-6.019.404-8.399l-.987-.944z" fill="#cf4044"/><path d="M144.707 23.794c.092 0 .137.314.092.404l-1.887 14.823-.09.089H93.054l-47.118-.044v-.943l1.707-14.194c0-.18.225-.09.314-.135h96.75zM142.822 54.922c.404-4.312 1.303-9.702 1.797-14.239l-.09-.135-88.801-.044c-2.021 0-6.198 0-8.175.044l-.044.135-1.617 14.239h96.93zM144.529 56.539c-.494 4.896-1.213 9.612-1.707 14.328l-68.004.09-28.836-.045c.314-4.806 1.078-9.567 1.662-14.374.898-.135 10.017 0 11.229 0h85.656v.001zM45.802 87.037l.09-1.348 1.617-13.161c1.212.045 12.217-.044 13.969-.044H144.529l.09.134-.404 3.01-1.438 11.274-.135.135-45.547-.09-51.293.09zM142.598 102.803c.584-4.626 1.123-9.433 1.662-14.104l-.404-.044H47.599l-.18.089-1.708 13.969.135.135h94.505l2.247-.045zM144.215 104.779l-1.707 14.373-.225.09-61.716.045c-5.3-.045-10.645.045-16.26 0l-18.505.045-.09-.135 1.842-14.643.27-.09H144.171l.044.315z" fill="#c6c7c9"/><path d="M68.979 23.839c-1.977.854-3.998 1.572-5.794 2.875-1.752 1.258-4.042 2.74-4.806 4.896H102.981c3.01 1.931 5.84 4.087 8.715 6.154l31.352.045c0 .359-.18 1.033-.18 1.392H45.352l.09-.494 1.707-14.913c.089-.18.224-.045.359-.09h21.515l-.044.135zM55.684 40.503c-.27 2.291-.36 4.222-.225 6.603l.225.763h66.207c1.482 1.887 3.055 3.908 4.357 5.885h16.709c0 .494-.09.943-.18 1.392H45.532c-.135-.269.09-.719.045-.988.449-4.447 1.033-9.163 1.572-13.655 0-.18.135-.09.27-.135l8.175.045.09.09zM56.492 56.718a133.734 133.734 0 0 0 1.841 7.277h73.393c.943 1.841 1.752 3.772 2.516 5.659l.18.135h8.49c.045.494-.18.943-.18 1.303h-.18l-56.416.045H45.577v-.225l1.751-14.418.225-.045h8.939v.269zM61.567 72.439c1.168 2.471 2.201 5.076 3.548 7.501l.359.045H91.93l37.639-.045h8.086c.314 2.111.629 3.863.943 5.705v.225h4.312c0 .584-.135.898-.135 1.348H45.488v-.225l1.526-12.847.18-1.707h14.373zM45.442 103.117c.494-4.762 1.168-9.567 1.707-14.374 0-.089.314-.089.539-.089h22.278c1.707 2.38 3.324 4.806 5.3 7.142h63.422c-.225 2.155-.674 3.997-.988 5.974h4.986c0 .449-.135.988-.18 1.348H45.442v-.001zM142.508 119.557c0-.359.045-.764.09-1.213h-18.686l.225-.225c3.01-1.572 6.062-3.413 8.533-6.153l.045-.045h-39.84a91.36 91.36 0 0 1-9.792-7.501l-6.153.045-26.815-.045-2.74.045-.089.09-1.796 14.912-.045.09H142.508z" fill="#cf4044"/><path d="M9.06 161.419l3.324-7.456h3.503l3.144 7.456h-2.785l-.674-1.886h-3.054l-.674 1.886H9.06zm3.863-2.964h2.246l-.719-2.156c-.135-.314-.18-.674-.269-1.033 0-.135-.045-.314-.09-.494h-.045c0 .18-.044.359-.09.494a6.84 6.84 0 0 1-.225 1.033l-.808 2.156zM21.771 153.963h8.669v1.078h-3.054v6.378h-2.605v-6.378h-3.01v-1.078zM32.956 156.793H33c.27-.404.584-.629.943-.809.674-.27 1.123-.27 1.482-.27v1.527c-1.348-.09-2.336.09-2.381.943v3.233H30.62v-5.614h2.335v.99h.001zM36.145 161.419v-5.614h2.381v5.614h-2.381zm0-6.288v-1.168h2.381v1.168h-2.381zM39.962 161.419v-7.456h5.3c2.515 0 3.234 1.078 3.234 2.111 0 .629-.27 1.348-1.258 1.797-.808.314-1.931.448-2.919.448h-1.751v3.1h-2.606zm2.606-4.222h1.393c1.123 0 1.886-.27 1.886-1.168 0-.854-.629-.988-2.066-.988h-1.213v2.156zM48.766 158.814c0-1.932.045-3.145 3.684-3.145 3.594 0 3.594 1.213 3.638 3.145 0 1.976-.494 2.784-3.638 2.784-3.145.001-3.684-.808-3.684-2.784zm2.426.763c0 .719.09.988 1.258.988 1.123 0 1.212-.27 1.212-.988v-1.842c0-.538 0-1.078-1.212-1.078-1.258 0-1.258.54-1.258 1.078v1.842zM57.031 161.419v-5.614h2.426v5.614h-2.426zm0-6.288v-1.168h2.426v1.168h-2.426zM63.185 156.389c.54-.629 1.617-.719 2.201-.719 1.348 0 2.471.404 2.426 1.438v4.312h-2.426v-3.728c0-.539-.135-.898-1.033-.943-.899 0-1.212.449-1.168 1.033v3.638H60.76v-5.614h2.425v.583zM72.662 161.464c-1.438.09-3.458.135-3.458-.898v-3.817h-.988v-.943h.988v-1.527h2.425v1.527h1.033v.943h-1.033v3.503c.045.225.719.225 1.033.18v1.032zM76.39 157.107c.089-1.932.404-3.324 4.536-3.324 2.246 0 3.773.314 4.357 1.617.134.27.134.584.134.898h-2.605c-.045-.764-.135-1.348-1.887-1.393-2.021 0-1.886 1.303-1.886 1.887v2.066c0 .628.09 1.616 1.886 1.616 1.482 0 1.977-.854 1.932-1.977H81.06v-1.077h4.312v3.997h-1.977v-.854c-.539.809-1.527.988-2.471 1.033-4.267 0-4.536-1.438-4.536-3.459v-1.03h.002zM86.676 161.419v-7.456h2.425v7.456h-2.425zM90.225 158.814c.044-1.932.089-3.145 3.728-3.145 3.547 0 3.592 1.213 3.592 3.145.045 1.976-.494 2.784-3.592 2.784-3.19.001-3.728-.808-3.728-2.784zm2.425.763c0 .719.135.988 1.303.988 1.123 0 1.213-.27 1.213-.988v-1.842c0-.538 0-1.078-1.213-1.078-1.303 0-1.303.54-1.303 1.078v1.842zM98.533 153.963h2.426v1.797c0 .18-.045.359-.09.629h.045c.494-.539 1.123-.719 2.156-.719 1.572 0 2.471.449 2.516 1.977v2.021c-.045.897-.449 1.931-2.516 1.931-.988-.045-1.662-.225-2.201-.764h-.045v.584h-2.291v-7.456zm2.426 5.614c0 .674.359.988 1.168.988.719 0 .988-.404 1.033-.943v-1.887c-.09-.538.045-1.078-1.078-1.078s-1.168.81-1.123 1.259v1.661zM111.561 161.419c-.135-.18-.18-.359-.135-.584h-.045a2 2 0 0 1-.943.539 3.369 3.369 0 0 1-1.168.225c-1.932 0-2.785-.539-2.785-1.707 0-1.303 1.662-1.572 3.549-2.021 1.033-.225 1.393-.449 1.213-.943-.135-.225-.496-.271-1.123-.271-1.123 0-1.303.315-1.258.81h-2.336c0-1.078.629-1.797 3.684-1.797 3.277 0 3.457.898 3.457 1.662v3.323c0 .27.045.539.18.764h-2.29zm-.315-2.964c-.584.225-1.303.448-1.932.718-.359.18-.449.449-.449.674 0 .449.27.719 1.168.719 1.393 0 1.168-.943 1.213-1.482v-.629zM114.973 161.419v-7.456h2.381v7.456h-2.381zM130.471 158.77c0 .134-.047.269-.047.448-.133 1.348-.988 2.381-3.906 2.381-4.268 0-4.537-1.438-4.537-3.459v-1.032c.135-1.932.404-3.324 4.537-3.324 2.334 0 3.637.629 3.816 1.932.045.18.09.359.045.539h-2.559c-.09-.449 0-1.348-1.303-1.348-2.021 0-1.842 1.303-1.842 1.887v2.066c0 .628.09 1.616 1.842 1.616 1.438 0 1.303-1.213 1.348-1.706h2.606zM131.053 158.814c.045-1.932.092-3.145 3.729-3.145 3.549 0 3.594 1.213 3.594 3.145.045 1.976-.494 2.784-3.594 2.784-3.19.001-3.729-.808-3.729-2.784zm2.426.763c0 .719.135.988 1.303.988 1.078 0 1.168-.27 1.168-.988v-1.842c0-.538 0-1.078-1.168-1.078-1.303 0-1.303.54-1.303 1.078v1.842zM141.609 156.389h.045c.539-.629 1.527-.719 2.291-.719.898 0 2.066.18 2.246.719h.043c.449-.494 1.213-.719 2.381-.719 1.797 0 2.561.584 2.561 1.168v4.581h-2.381v-3.772c0-.539-.09-1.033-1.168-.989-1.033.046-1.213.405-1.213 1.078v3.684h-2.424v-3.863c0-.493-.09-.898-1.168-.898-1.168 0-1.213.45-1.213 1.078v3.684h-2.426v-5.614h2.426v.582zM154.68 156.389h.045c.449-.539 1.123-.719 2.111-.719 1.572 0 2.426.449 2.516 2.021v2.021c-.09.897-.494 1.886-2.516 1.886-.943-.045-1.617-.18-2.201-.764h-.045v2.471h-2.291v-7.501h2.381v.585zm0 3.188c0 .674.404.988 1.168.988s1.033-.404 1.078-.943v-1.887c-.09-.538.045-1.078-1.078-1.078-1.168 0-1.168.81-1.168 1.259v1.661zM165.189 161.419a.588.588 0 0 1-.18-.584h-.045a2 2 0 0 1-.943.539 3.367 3.367 0 0 1-1.166.225c-1.934 0-2.785-.539-2.785-1.707 0-1.303 1.662-1.572 3.592-2.021.99-.225 1.393-.449 1.168-.943-.088-.225-.494-.271-1.121-.271-1.125 0-1.305.315-1.258.81h-2.291c-.045-1.078.629-1.797 3.639-1.797 3.277 0 3.502.898 3.457 1.662v3.323c0 .27.045.539.18.764h-2.247zm-.359-2.964c-.584.225-1.303.448-1.932.718-.357.18-.402.449-.402.674 0 .449.223.719 1.121.719 1.438 0 1.168-.943 1.213-1.482v-.629zM170.895 156.389h.045c.539-.629 1.617-.719 2.156-.719 1.393 0 2.516.404 2.426 1.438v4.312h-2.426v-3.728c0-.539-.09-.898-.988-.943-.943 0-1.258.449-1.213 1.033v3.638h-2.381v-5.614h2.381v.583zM178.35 155.805l1.08 2.965c.135.539.223 1.032.314 1.526h.043c.092-.494.225-.987.359-1.481l1.08-3.01h2.469l-2.561 5.704c-.627 1.303-.674 2.066-3.996 1.842v-1.033c.359 0 1.436.135 1.436-.225 0-.225-.133-.539-.225-.719l-2.559-5.569h2.56zM149.918 118.389l.988-2.65h.988v3.594h-.629v-2.92l-1.123 2.92h-.449l-1.123-2.92h-.045v2.92h-.629v-3.594h.988l1.034 2.65zm-2.65-2.111h-1.076v3.054h-.674v-3.054h-1.078v-.54h2.828v.54z" fill="#fff"/></g></svg>