<svg xmlns="http://www.w3.org/2000/svg" width="2500" height="2500" viewBox="0 0 192.756 192.756"><g fill-rule="evenodd" clip-rule="evenodd"><path fill="#fff" d="M0 0h192.756v192.756H0V0z"/><path d="M8.504 96.636c25.823-36.884 55.255-66.222 88.25-88.015 35.571 24.324 64.721 53.381 87.499 87.265-26.479 37.54-55.865 66.972-88.249 88.249-33.042-22.636-62.192-51.787-87.5-87.499zm2.999 0c24.511 34.353 52.631 62.52 84.5 84.5 31.167-20.48 59.614-48.882 85.249-85.25-22.121-32.712-50.287-60.879-84.499-84.5-31.822 21.278-60.27 49.725-85.25 85.25zm3.281 0C38.779 62.283 66.103 34.96 96.753 14.667c33.04 22.636 60.129 49.678 81.219 81.219-24.465 35.009-51.787 62.426-81.97 82.203-30.649-21.09-57.738-48.272-81.218-81.453zm123.212-33.463l-8.812 9.561-11.061-5.53 5.812 11.341-8.811 9.279 12.326-2.531.748 1.781-.232-9.795 6.748 8.529.281-2.015 12.326-2.484-11.061-5.296 1.736-12.84zM119.67 48.598l-3.795 12.326h-12.561l10.029 7.545-3.75 12.326 10.076-7.545 1.5 1.266-4.779-8.811 10.029 4.78-.75-2.015 10.076-7.545H123.42l-3.75-12.327zm-23.151-5.015l2.015 12.794-11.341 5.296 12.606 2.53 1.734 12.795 5.811-11.295 1.734.516-7.779-5.812 10.826-.234-1.266-1.265 5.766-11.295-11.295 5.53-8.811-9.56zm52.301 41.243l-12.09 4.78-7.781-9.842.234 12.607-12.043 4.78 12.324 2.999v2.016l4.031-9.045 2.484 10.545 1.031-1.5 12.324 2.999-7.826-9.56 7.312-10.779zM73.882 48.832l7.311 10.826-7.827 9.795 12.091-3.234 7.264 10.779.281-12.561 2.015-.516-9.842-1.733 9.842-4.781-1.781-.75.234-12.842-7.499 9.795-12.089-4.778zm74.938 59.099l-12.84-.984-2.766-12.092-5.248 11.576-12.842-.984 9.795 8.015-.75 1.78 7.311-6.561-2.531 10.826 1.781-.984 9.795 8.014-2.766-12.044 11.061-6.562zM55.276 63.923l11.06 6.28-2.765 12.092 9.795-8.061 11.061 6.561-5.249-11.576 1.5-.984-9.561 2.484 7.03-8.529h-2.015l-5.249-11.576-2.765 12.326-12.842.983zm83.749 65.379l-11.34-6.515 2.764-12.092-9.561 8.062-11.295-6.515 5.297 11.529-1.547 1.265 9.561-2.765-6.795 8.811 2.014-.234 5.062 11.529 2.766-12.045 13.074-1.03zM45.2 85.06l12.841 1.031 2.765 12.045 5.296-11.295 12.794.984-9.795-8.061.75-1.734-7.264 6.514 2.484-10.779-1.734.984-9.842-8.295L56.26 78.78 45.2 85.06zm75.22 59.098l-7.311-10.545 7.779-9.842-12.326 3.28-7.264-10.826-.281 12.607-1.734.469 9.561 1.78-9.795 4.78 1.734.75-.234 12.561 7.779-9.795 12.092 4.781zM45.2 108.446l12.091-4.78 7.78 9.561-.234-12.561 12.044-4.546-12.325-2.999v-2.016l-3.984 9.045-2.531-10.826-1.031 1.781-12.279-3.281 7.78 9.795-7.311 10.827zm52.068 41.008l-2.014-12.607 11.342-5.53-12.327-2.483-2.015-12.607-5.812 11.061-1.734-.234 8.014 5.812h-11.06l1.266 1.5-5.765 11.061 11.295-5.296 8.81 9.323zm-22.87-5.061l3.749-12.326h12.561l-10.03-7.546 3.75-12.278-10.029 7.545-1.5-1.03 4.733 8.529-10.029-4.733.75 1.968-10.076 7.546h12.326l3.795 12.325zm-18.606-14.81l8.765-9.326 11.107 5.295-5.812-11.341 8.811-9.28-12.326 2.531-.75-1.781.516 9.795-7.077-8.529-.234 2.016-12.326 2.483 11.061 5.296-1.735 12.841z"/></g></svg>