<svg xmlns="http://www.w3.org/2000/svg" width="2500" height="2500" viewBox="0 0 192.756 192.756"><g fill-rule="evenodd" clip-rule="evenodd"><path fill="#fff" d="M0 0h192.756v192.756H0V0z"/><path d="M8.504 104.471V81.052c7.08 1.864 14.352.43 20.189-3.996 7.603-6.127 17.877-7.423 26.758-3.375v23.68c-8.724-4.083-18.859-2.944-26.462 2.969-5.947 4.449-13.283 5.93-20.485 4.141zM28.914 115.639a24.99 24.99 0 0 1 26.973-3.217c7.521 3.828 16.222 3.643 23.569-.512v5.791c-7.132 4.467-15.96 4.734-23.349.697-8.974-4.141-19.341-2.996-27.194 3.002v-5.761h.001z" fill="#33358d"/><path d="M28.914 108.676v5.762c7.853-6 18.22-7.145 27.194-3.002 7.388 4.035 16.216 3.768 23.349-.697v-5.791c-7.347 4.152-16.048 4.338-23.569.512a24.993 24.993 0 0 0-26.974 3.216z" fill="#304397"/><path d="M28.914 101.711v5.762c7.853-5.998 18.22-7.143 27.194-3.002 7.388 4.037 16.216 3.775 23.349-.697v-5.791c-7.347 4.152-16.048 4.346-23.569.512a24.998 24.998 0 0 0-26.974 3.216z" fill="#cd352c"/><path d="M70.367 94.422l1.945 1.987 1.98-2.097-1.672-1.754a8.408 8.408 0 0 0 1.034-7.766 6.395 6.395 0 0 0-3.497-3.967 8.09 8.09 0 0 0-7.254.424 6.934 6.934 0 0 0-2.468 2.864 8.419 8.419 0 0 0-.732 3.049 7.756 7.756 0 0 0 1.812 5.791c.471.511.976.906 1.58 1.243a5.475 5.475 0 0 0 2.132.854c.552.104 1.063.168 1.626.192a6.99 6.99 0 0 0 3.514-.82zm-2.8-2.869l-1.208-1.237 1.986-2.12 1.249 1.266c.25-.993.285-1.94.122-2.951a3.755 3.755 0 0 0-.337-1.115 2.72 2.72 0 0 0-1.04-1.284 2.65 2.65 0 0 0-1.986-.337 2.63 2.63 0 0 0-1.661 1.15 4.196 4.196 0 0 0-.563 1.476 7.279 7.279 0 0 0-.046 2.253c.076.616.255 1.162.558 1.702.232.406.551.714.958.941a2.785 2.785 0 0 0 1.968.256zm12.29-11.058l-4.333.005-.006 9.264a5.26 5.26 0 0 0 3.659 5.076 9.76 9.76 0 0 0 5.419-.011 5.135 5.135 0 0 0 1.83-.981 5.649 5.649 0 0 0 1.835-4.066l.018-9.293h-4.351l-.012 9.275c0 .511-.197.982-.569 1.336a2.11 2.11 0 0 1-1.591.569 2.108 2.108 0 0 1-1.51-.755 1.701 1.701 0 0 1-.413-1.162l.024-9.257zm14.23.034l-4.403.012-.023 14.404 4.414.006.012-14.422zm5.825-.017l-4.315.006-.029 14.427h4.217l.006-7.341 4.07 7.341h4.188l.018-14.421-4.252-.006-.004 6.848-3.899-6.854zm15.461-.029l-5.785.006-.016 3.746 4.041.012-.047 10.705 1.812.012-.005-14.481z" fill="#33358d"/><path d="M121.967 80.489l-5.803.006v14.462l1.736-.011.006-10.699 4.064.029-.003-3.787zm1.51.04l-.041 14.422 4.332.005.012-5.076 2.393.012a1.29 1.29 0 0 1 1.156.836c.076.215.123.418.141.639l.197 2.33c.039.278.086.522.156.795.041.174.109.325.215.471l4.344-.018a1.014 1.014 0 0 1-.312-.575 4.387 4.387 0 0 1-.082-.727l-.168-2.393a7.422 7.422 0 0 0-.145-1.069 2.728 2.728 0 0 0-1.965-2.032 2.86 2.86 0 0 0 1.43-.854 4.113 4.113 0 0 0 1.039-3.433 3.52 3.52 0 0 0-1.666-2.584 4.784 4.784 0 0 0-2.66-.755l-8.376.006zm7.021 3.3l-2.689-.018-.018 2.771 2.713.006c.383-.012.732-.174.986-.459a1.34 1.34 0 0 0 .338-1.04 1.333 1.333 0 0 0-.418-.889 1.326 1.326 0 0 0-.912-.371zm19.272-3.3l-11.912.012v14.41h11.924l-.012-3.792-7.562.005.006-1.835 6.383.006-.012-3.642-6.377.012-.006-1.435 7.586-.006-.018-3.735zm7.062-.069l-5.193-.006 4.758 6.924-5.232 7.556 5.371.012 2.463-3.903 2.504 3.903 5.303.006-5.17-7.574 4.85-6.906-5.209-.011-2.236 3.554-2.209-3.555z" fill="#cd352c"/><path d="M114.316 108.688l3.869.006-1.918-6.348-1.951 6.342zm-4.373 5l4.768-13.764h3.039l4.918 13.764h-2.904l-.904-2.922h-5.176l-.906 2.922h-2.835zm19.289-.907c-.32.25-.629.465-.977.68-.771.482-1.645.65-2.531.482a3.396 3.396 0 0 1-2.783-3.281v-7.092h2.602v6.012c.006.273.023.521.053.801a1.584 1.584 0 0 0 1.209 1.354c.459.105.912.053 1.33-.168.418-.215.73-.553.904-.988.141-.336.211-.668.211-1.033v-5.977h2.643v10.117h-2.643l-.018-.907zm3.821-2.519h2.395c.057.709.51 1.318 1.172 1.586a2.75 2.75 0 0 0 1.945.051c.232-.08.432-.18.629-.318a.899.899 0 0 0 .278-1.144 1.097 1.097 0 0 0-.812-.604l-2.225-.373a4.876 4.876 0 0 1-2.277-1.021 2.539 2.539 0 0 1-.801-2.764 3.276 3.276 0 0 1 2.154-2.104 6.225 6.225 0 0 1 2.486-.268c.715.064 1.359.25 2.004.57a3.054 3.054 0 0 1 1.672 2.672h-2.387a1.356 1.356 0 0 0-.936-1.186 3.387 3.387 0 0 0-1.666-.123c-.33.064-.615.205-.865.426a.747.747 0 0 0-.244.598c.006.227.111.43.291.568.174.146.365.232.586.268l2.561.436a5.07 5.07 0 0 1 1.639.559c.365.186.65.441.889.771.691.953.756 2.225.15 3.24a3.453 3.453 0 0 1-2.043 1.615 6.557 6.557 0 0 1-4.52-.289 3.4 3.4 0 0 1-1.574-1.395 3.662 3.662 0 0 1-.501-1.771zm10.728 1.189v-6.15h-1.424v-1.73h1.424v-3.646h2.613v3.646h1.895v1.73h-1.895v5.582a.908.908 0 0 0 .907.901h1.098v1.904h-2.352a2.266 2.266 0 0 1-1.592-.656 2.238 2.238 0 0 1-.674-1.581zm5.662 2.237V103.57h2.492l.088 1.098c.277-.297.557-.541.883-.789.318-.25.656-.412 1.051-.512.43-.111.842-.111 1.271 0v2.225a4.174 4.174 0 0 0-1.26.064 2.413 2.413 0 0 0-1.854 1.975 4.437 4.437 0 0 0-.062.795v5.262h-2.609zm9.119-1.754c.645.256 1.33.232 1.957-.064a2.42 2.42 0 0 0 1.291-1.475c.191-.645.26-1.271.197-1.939a2.412 2.412 0 0 1-.826.33l-1.822.418a2.684 2.684 0 0 0-1.162.564c-.35.297-.512.744-.43 1.191.075.447.372.812.795.975zm-2.374 1.029a2.69 2.69 0 0 1-1.045-1.818 2.726 2.726 0 0 1 1.242-2.637 6.092 6.092 0 0 1 1.789-.779 16.416 16.416 0 0 1 2.957-.482.89.89 0 0 0 .707-.447.9.9 0 0 0 .029-.836 1.236 1.236 0 0 0-.65-.615 2.832 2.832 0 0 0-2.207-.059 1.473 1.473 0 0 0-.924 1.262h-2.299a3.075 3.075 0 0 1 2.148-2.957 6.857 6.857 0 0 1 4.729.133 2.877 2.877 0 0 1 1.834 2.678v5.93c.006.488.123.924.355 1.354h-2.592l-.145-.9c-1.671 1.433-4.175 1.509-5.928.173zm10.064.725V99.924h2.643v13.764h-2.643zm4.572 0V103.57h2.543v10.117h-2.543v.001zm0-11.442v-2.322h2.543v2.322h-2.543zm7.143 9.688c.645.256 1.33.232 1.959-.064a2.426 2.426 0 0 0 1.283-1.475 4.978 4.978 0 0 0 .203-1.939 2.467 2.467 0 0 1-.824.33l-1.824.418a2.637 2.637 0 0 0-1.162.564 1.277 1.277 0 0 0 .365 2.166zm-2.375 1.029a2.667 2.667 0 0 1-1.045-1.818 2.718 2.718 0 0 1 1.242-2.637 6.012 6.012 0 0 1 1.783-.779c1-.256 1.928-.406 2.963-.482a.874.874 0 0 0 .703-.447.877.877 0 0 0 .029-.836 1.257 1.257 0 0 0-.646-.615 2.832 2.832 0 0 0-2.207-.059 1.461 1.461 0 0 0-.922 1.262h-2.301a3.062 3.062 0 0 1 2.143-2.957 6.856 6.856 0 0 1 4.729.133 2.872 2.872 0 0 1 1.836 2.678v5.93a2.9 2.9 0 0 0 .354 1.354h-2.59l-.141-.9c-1.678 1.433-4.176 1.509-5.93.173z"/></g></svg>