<svg xmlns="http://www.w3.org/2000/svg" width="2500" height="2500" viewBox="0 0 192.756 192.756"><g fill-rule="evenodd" clip-rule="evenodd"><path fill="#fff" d="M0 0h192.756v192.756H0V0z"/><path d="M65.647 95.414c0 1.756.715 3.475 1.97 4.729 1.289 1.255 3.009 1.971 4.765 1.971 1.792 0 3.51-.716 4.801-1.971a6.731 6.731 0 0 0 1.971-4.729 6.746 6.746 0 0 0-1.971-4.765 6.902 6.902 0 0 0-4.801-1.971c-1.755 0-3.476.717-4.765 1.971a6.747 6.747 0 0 0-1.97 4.765z" fill="#6a5b75"/><path d="M39.672 106.807c0-.682.037-1.361.072-2.042l.072-7.595c-.035-.717 0-1.361.072-2.043 0-.071.037-.143.037-.178v-.037h.035v-.035l.035.035c.037 0 .037.037.072.037.108.142.216.286.287.429l5.338 8.706 1.326 2.185c.322.503.645.968 1.002 1.434.825 1.11 2.151 1.648 3.512 1.504a3.372 3.372 0 0 0 2.938-2.256 6.466 6.466 0 0 0 .286-2.186V94.052l-.036-.716-.036-7.272c0-.823-.322-1.576-.896-2.149-.179-.179-.357-.322-.573-.395-.25-.107-.537-.215-.788-.25a2.977 2.977 0 0 0-3.009.932 3.606 3.606 0 0 0-.68 1.503c-.072.538-.144 1.111-.144 1.684l-.072 9.316v.394c0 .036-.037.072-.037.107v.036h-.107l-.035-.036a36.029 36.029 0 0 1-.215-.322l-5.23-8.491-2.187-3.474c-.68-1.076-1.862-1.72-3.116-1.792a3.614 3.614 0 0 0-2.615.86 3.546 3.546 0 0 0-1.183 2.507V106.091l.072.359c.036.285.071.536.143.787a2.304 2.304 0 0 0 1.147 1.541c1.002.538 2.149.538 3.152.071.824-.359 1.361-1.182 1.361-2.042zM65.503 107.058a4.638 4.638 0 0 0 .144-1.577v-5.624-.18c-.037-.071-.072-.144-.108-.179a7.905 7.905 0 0 1-1.002-3.153 10.617 10.617 0 0 1 .394-3.188c.143-.501.322-.967.501-1.433a3.94 3.94 0 0 0 .215-.931c.035-.574.035-1.11.035-1.648l-.035-2.759c0-.394-.072-.753-.18-1.11a5.037 5.037 0 0 0-.25-.645c-.501-.823-1.361-1.326-2.293-1.469a3.125 3.125 0 0 0-2.579.788 3.603 3.603 0 0 0-.967 2.114v18.701c.035.215.035.43.07.681-.035.609.072 1.183.215 1.756.215.751.753 1.36 1.433 1.72a3.398 3.398 0 0 0 3.26-.181c.216-.106.394-.285.574-.466.286-.323.465-.752.573-1.217zM22.942 108.705l.967-.358a6.65 6.65 0 0 0 1.146-.537c1.469-.752 2.651-2.007 3.296-3.547s1.004-3.188 1.004-4.872V86.278c0-.18-.037-.394-.072-.609a2.99 2.99 0 0 0-.502-1.254c-.573-.752-1.433-1.218-2.365-1.218-.896-.072-1.756.25-2.436.86a2.604 2.604 0 0 0-.716 1.253 5.229 5.229 0 0 0-.072.788c0 .825 0 1.648-.036 2.472v6.556c-.037.466-.072.932-.072 1.398 0 .967 0 1.934-.036 2.938-.036.645-.144 1.324-.358 1.935a3 3 0 0 1-1.147 1.504c-1.326.824-2.973 1.004-4.443.395a3.014 3.014 0 0 1-1.827-1.898 11.19 11.19 0 0 1-.358-1.899 149.191 149.191 0 0 1-.072-4.012l-.037-6.557v-1.755c0-.502-.035-1.003-.142-1.469a3.53 3.53 0 0 0-.502-1.324c-.645-.896-1.684-1.362-2.794-1.291a3.119 3.119 0 0 0-2.543 1.685c-.179.25-.25.572-.322.895v.394l.035 14.044c.072 1.002.252 2.006.574 3.01.502 1.827 1.719 3.438 3.333 4.478 3.188 1.825 6.986 2.255 10.497 1.108zM134.539 106.306V96.203c.035-.825.072-1.686.035-2.509v-5.481l-.035-.968c0-.465-.072-.967-.178-1.433-.287-1.219-1.291-2.114-2.545-2.329a3.1 3.1 0 0 0-3.117 1.469 4.683 4.683 0 0 0-.502 1.827c-.035 1.002 0 1.97.037 2.973v7.238c.07.717.107 1.433.07 2.149l.037 6.233.035 1.075c0 .322.072.645.145.931.287.932 1.002 1.684 1.934 1.971a4.287 4.287 0 0 0 1.791.035 3.149 3.149 0 0 0 1.471-.824c.535-.608.822-1.431.822-2.254zM85.351 107.236c.035-.251.071-.502.107-.787.107-1.147.144-2.294.107-3.476-.035-.573 0-1.11 0-1.684.037-.287.037-.538.072-.825 0-.071 0-.179.037-.25v-.072c.035 0 .035-.035.035-.035l.072-.036h.215a96.586 96.586 0 0 1 5.625-.035c1.002 0 2.006-.18 2.937-.538a7.283 7.283 0 0 0 3.833-3.404c1.111-2.471 1.219-5.301.252-7.809l-.252-.573a5.67 5.67 0 0 0-.824-1.362 6.555 6.555 0 0 0-5.087-2.542c-.501 0-1.039 0-1.54-.072h-5.625a14.298 14.298 0 0 0-2.149-.072 4.023 4.023 0 0 0-1.827.322c-.789.25-1.397.895-1.684 1.647a5.695 5.695 0 0 0-.25 1.326c0 1.649 0 3.26.072 4.909-.037.251 0 .501.071.752l.18.753a8.308 8.308 0 0 1-.18 5.194c-.071.144-.071.322-.071.466v7.38c.035.359.107.682.214 1.039.037.179.108.358.215.538.251.501.68.932 1.218 1.182.287.145.573.251.86.286.287 0 .537 0 .788-.035.645-.036 1.289-.322 1.792-.717a2.31 2.31 0 0 0 .787-1.47zm7.2-13.435c-.323.431-.789.716-1.325.86-.036 0-.108.036-.18.036-.717.108-1.433.18-2.149.108h-1.755c-.357-.037-.68-.072-1.039-.072h-.25c-.036 0-.071 0-.107-.036-.036 0-.071-.036-.108-.071v-.108a1.288 1.288 0 0 1-.072-.357V92.62a14.14 14.14 0 0 1-.035-2.148l.035-1.11v-.108c0-.072.037-.107.037-.144.072-.072.179-.144.286-.144h.288l3.833-.036c.394 0 .788.072 1.182.144.681.179 1.29.609 1.612 1.254.18.429.251.896.251 1.325a4.072 4.072 0 0 1-.504 2.148zM145.072 107.021c0-.25.035-.502.035-.788l.107-9.816c0-.214 0-.466.037-.717v-.107c0-.037.035-.072.035-.107.037-.037.072-.037.107-.037.037 0 .072 0 .107.037v.035c.145.179.215.322.322.501l6.629 10.891a7.63 7.63 0 0 0 1.289 1.721 2.74 2.74 0 0 0 1.289.823c.322.108.68.144 1.004.144.645.037 1.289-.035 1.898-.285a3.15 3.15 0 0 0 1.541-1.648 4.54 4.54 0 0 0 .395-1.828l.035-2.794c.035-.932.07-1.898.035-2.83V90.147c0-.107-.035-.214-.035-.286 0-.215-.035-.431-.035-.609a26.798 26.798 0 0 0-.037-2.938c0-.573-.18-1.111-.465-1.577a2.072 2.072 0 0 0-.682-.68c-.572-.359-1.289-.538-1.971-.538a2.691 2.691 0 0 0-1.791.573 2.612 2.612 0 0 0-.967 1.612 7.627 7.627 0 0 0-.18 1.577l.072 9.458v.466c0 .108-.035.18-.072.251 0 .036-.035.071-.072.107-.035.036-.035.036-.07.036-.035.036-.072 0-.072 0l-.07-.036c0-.036-.037-.071-.072-.107l-2.436-4.084-3.297-5.41-1.719-2.687c-.861-1.433-2.508-2.15-4.121-1.756a3.687 3.687 0 0 0-.967.395 2.535 2.535 0 0 0-1.254 1.396 9.337 9.337 0 0 0-.467 1.613c0 .072-.035.143 0 .214v7.309c0 .143.037.25.037.394 0 .646.035 1.291 0 1.936l.035 9.313c.037.359.072.717.107 1.111a2.608 2.608 0 0 0 1.254 2.005 3.26 3.26 0 0 0 3.189-.035c.791-.393 1.293-1.253 1.293-2.149zM116.807 109.1c3.15-1.004 5.695-3.403 6.842-6.521.896-2.007 1.289-4.227 1.219-6.376v-.109c.035-.285.035-.537.035-.788a21.567 21.567 0 0 0-.43-3.117 14.814 14.814 0 0 0-1.219-3.26 11.794 11.794 0 0 0-4.441-4.263 13.11 13.11 0 0 0-6.699-1.361c-4.908.108-9.207 3.403-10.533 8.168a18.965 18.965 0 0 0-.322 8.742c.572 3.476 2.793 6.484 5.91 8.097a11.705 11.705 0 0 0 5.59 1.326c1.36.071 2.757-.109 4.048-.538zm.966-8.563a5.285 5.285 0 0 1-2.008 2.651 5.232 5.232 0 0 1-2.041.787l-.787.072a5.051 5.051 0 0 1-4.086-1.647c-.68-.86-1.182-1.828-1.396-2.902-.035-.216-.072-.394-.107-.609a14.57 14.57 0 0 1-.18-2.149c-.035-.573 0-1.146.109-1.755a9.603 9.603 0 0 1 1.037-3.546 4.68 4.68 0 0 1 2.473-2.293 6.027 6.027 0 0 1 3.188-.323c1.326.214 2.545.967 3.297 2.078.18.358.357.716.502 1.039.572 1.468.822 3.045.787 4.586 0 1.36-.286 2.721-.788 4.011zM176.562 106.807l.035-10.03.037-.573.035-3.798v-2.437c0-.144 0-.25.037-.394 0-.035 0-.072.035-.107 0-.037.037-.072.072-.107.035 0 .07 0 .07-.037h.359c.645 0 1.324-.035 1.969-.071l2.188.036c.395 0 .787-.071 1.145-.143.646-.18 1.184-.645 1.398-1.254a3.51 3.51 0 0 0 .18-2.006c-.145-.609-.502-1.147-1.039-1.433a3.368 3.368 0 0 0-1.791-.395l-6.414-.037-.502-.035h-9.314c-.285 0-.537.035-.824.107-.607.144-1.109.538-1.432 1.11a3.276 3.276 0 0 0-.215 2.472c.178.465.5.896.895 1.182.18.072.359.144.537.179.609.144 1.256.18 1.863.18.467.035.932.071 1.361.071.861-.071 1.721-.071 2.58-.071.072 0 .107.035.143.035.072 0 .107.036.145.071.035.037.072.072.107.144.035.107.07.215.07.357.035.215.035.466.035.681v4.012c.037.682.072 1.362.037 2.008l.035 8.49v1.182c0 .502.037 1.039.18 1.541a2.324 2.324 0 0 0 1.184 1.54c.822.431 1.826.502 2.723.251a2.625 2.625 0 0 0 2.076-2.721z"/><path d="M182.545 95.951c-.357 0-.68.107-.93.323a1.87 1.87 0 0 0-.502.68c-.107.287-.215.538-.287.824-.035.107-.07.18-.143.287 0 .036-.072.106-.107.143-.072.036-.143.072-.215.072-.145 0-.287-.108-.359-.215-.072-.144-.107-.287-.072-.43 0-.144.037-.287.072-.431.037-.107.072-.214.072-.322a.596.596 0 0 0-.035-.357c-.037-.144-.18-.216-.322-.216-.145-.071-.359 0-.467.072a1.265 1.265 0 0 0-.287.466 2.586 2.586 0 0 0 .037 1.719c.178.358.465.645.824.824.357.143.787.18 1.145.036.215-.072.432-.251.539-.43.178-.251.287-.538.357-.825.072-.179.145-.357.215-.536a.747.747 0 0 1 .18-.287.524.524 0 0 1 .502-.179c.178.071.322.179.357.394a.468.468 0 0 1 .035.215c0 .252-.035.466-.143.681-.035.144-.072.251-.107.395-.037.144 0 .287.035.429.072.145.18.251.322.288.145.035.322 0 .432-.107a.868.868 0 0 0 .285-.322c.18-.322.252-.682.252-1.039.07-.466-.037-.932-.252-1.362-.285-.467-.859-.79-1.433-.79zM183.334 102.83h-.859v-.896c-.035-.359-.107-.717-.322-1.039a1.646 1.646 0 0 0-1.004-.609 2 2 0 0 0-1.361.179c-.393.216-.68.609-.752 1.075-.072.18-.072.395-.072.573v1.075c0 .107 0 .251.037.395.035.07.072.179.178.25a.327.327 0 0 0 .252.107c.107.035.25.035.357.035l3.547.036c.18 0 .322-.036.467-.071a.765.765 0 0 0 .285-.179c.037-.108.072-.216.072-.322a.42.42 0 0 0-.072-.359.63.63 0 0 0-.25-.179c-.143-.071-.287-.071-.465-.071h-.038zm-1.934 0h-1.361v-.538c0-.144.035-.287.07-.429a.512.512 0 0 1 .395-.323c.143-.036.322-.036.465 0 .18.071.287.18.359.358.035.144.072.25.072.394v.538zM183.119 108.061v-1.898l.574-.18c.143-.036.25-.108.357-.18a.687.687 0 0 0 .143-.429.616.616 0 0 0-.25-.467c-.143-.071-.287-.106-.465-.071-.072.036-.145.036-.217.071l-3.689 1.29c-.215.071-.395.18-.537.358-.145.179-.18.43-.145.681a.9.9 0 0 0 .395.573c.109.035.217.107.359.143l3.617 1.363c.18.035.322.07.504.035a.467.467 0 0 0 .393-.467c.035-.106 0-.179-.035-.285-.037-.108-.145-.181-.252-.252l-.215-.107-.537-.178zm-1.074-.323l-1.9-.645 1.9-.574v1.219z"/></g></svg>