<svg xmlns="http://www.w3.org/2000/svg" width="2500" height="2500" viewBox="0 0 192.756 192.756"><g fill-rule="evenodd" clip-rule="evenodd"><path fill="#fff" d="M0 0h192.756v192.756H0V0z"/><path d="M61.775 113.646l2.651-2.662h-3.239c-.192 0-.299-.096-.299-.268 0-.17.106-.268.299-.268h3.677c.214 0 .343.15.343.311 0 .117-.033.203-.151.332l-2.896 2.906c-.16.172-.192.268-.192.385 0 .236.267.91 1.625.91.235 0 .288.105.288.234 0 .172-.095.246-.374.246-1.667 0-2.116-.908-2.116-1.379-.001-.256.106-.469.384-.747zM65.772 110.707c0-.191.117-.299.289-.299.17 0 .288.107.288.299v2.906c0 .984.46 1.604 1.722 1.604h.47c1.262 0 1.721-.619 1.721-1.604v-2.906c0-.191.118-.299.289-.299.17 0 .288.107.288.299v3.025c0 1.186-.737 2.02-2.212 2.02h-.642c-1.476 0-2.213-.834-2.213-2.02v-3.025zM71.939 115.795c-.171 0-.289-.107-.289-.299v-2.791c0-.545.043-.822.15-1.08.288-.715.973-1.176 2.062-1.176h.106c.621 0 .974.086 1.123.129.128.033.224.129.224.279 0 .148-.107.256-.278.256s-.438-.129-1.026-.129h-.064c-.876 0-1.368.289-1.593.824-.084.203-.127.469-.127.887v2.801c.001.192-.117.299-.288.299zM76.107 115.795c-.171 0-.289-.107-.289-.299v-4.789c0-.191.118-.299.289-.299.172 0 .29.107.29.299v4.789c-.001.192-.118.299-.29.299zM80.489 110.449c.62 0 .973.086 1.123.129.127.033.224.129.224.279 0 .148-.107.256-.278.256-.172 0-.438-.129-1.026-.129h-1.004c-1.283 0-1.72.621-1.72 1.604v1.025c0 .984.459 1.604 1.72 1.604h1.047c.588 0 .854-.129 1.026-.129s.278.109.278.258c0 .15-.096.246-.224.277-.15.043-.503.129-1.123.129h-1.09c-1.476 0-2.213-.834-2.213-2.02v-1.262c0-1.188.737-2.021 2.213-2.021h1.047zM87.747 112.471v3.025c0 .191-.117.299-.289.299s-.289-.107-.289-.299v-2.908c0-.982-.459-1.604-1.721-1.604h-.47c-1.25 0-1.721.621-1.721 1.764v2.748c0 .191-.117.299-.289.299-.171 0-.289-.107-.289-.299v-6.928c0-.191.118-.299.289-.299.172 0 .289.107.289.299v2.619h.021c.267-.459.834-.738 1.71-.738h.545c1.475 0 2.214.834 2.214 2.022zM94.084 115.217c1.261 0 1.72-.619 1.72-1.604v-1.025c0-.982-.459-1.604-1.72-1.604h-.224c-.588 0-.854.129-1.026.129-.171 0-.278-.107-.278-.256 0-.15.097-.246.225-.279.149-.043.502-.129 1.123-.129h.267c1.475 0 2.213.834 2.213 2.021v1.262c0 1.186-.738 2.02-2.213 2.02h-1.133c-1.08 0-1.849-.705-1.849-1.678 0-.941.683-1.529 1.731-1.529h1.549c.192 0 .3.098.3.268 0 .172-.108.268-.3.268H92.93c-.79 0-1.153.426-1.153 1.016 0 .672.513 1.121 1.282 1.121h1.025v-.001zM97.504 115.795c-.172 0-.289-.107-.289-.299v-4.789c0-.191.117-.299.289-.299s.289.107.289.299v4.789c0 .192-.117.299-.289.299zM98.914 115.795c-.17 0-.289-.107-.289-.299v-2.791c0-.545.043-.822.15-1.08.289-.715.973-1.176 2.062-1.176h.107c.621 0 .973.086 1.123.129.127.033.223.129.223.279 0 .148-.105.256-.277.256s-.438-.129-1.025-.129h-.064c-.877 0-1.367.289-1.594.824-.084.203-.127.469-.127.887v2.801c0 .192-.117.299-.289.299zM107.561 113.613c0 .984-.459 1.604-1.721 1.604h-.77c-1.25 0-1.721-.619-1.721-1.764v-.865c0-.982.459-1.604 1.721-1.604h.77c1.262 0 1.721.621 1.721 1.604v1.025zm-4.19 1.401c.268.471.834.738 1.625.738h.93c1.475 0 2.213-.834 2.213-2.02v-1.262c0-1.188-.738-2.021-2.213-2.021h-.941c-1.475 0-2.211.834-2.211 2.021v4.467c0 .193.117.301.287.301.172 0 .289-.107.289-.301v-1.924h.021v.001zM113.738 113.613c0 .984-.459 1.604-1.721 1.604h-.77c-1.262 0-1.721-.619-1.721-1.604v-1.025c0-.982.459-1.604 1.721-1.604h.77c1.262 0 1.721.621 1.721 1.604v1.025zm.578.119v-1.262c0-1.188-.738-2.021-2.213-2.021h-.941c-1.475 0-2.213.834-2.213 2.021v1.262c0 1.186.738 2.02 2.213 2.02h.941c1.475 0 2.213-.834 2.213-2.02zM115.416 115.795c-.17 0-.289-.107-.289-.299v-2.791c0-.545.043-.822.15-1.08.289-.715.973-1.176 2.062-1.176h.107c.619 0 .973.086 1.121.129.129.033.225.129.225.279 0 .148-.107.256-.277.256-.172 0-.438-.129-1.025-.129h-.064c-.877 0-1.369.289-1.592.824-.086.203-.129.469-.129.887v2.801c0 .192-.117.299-.289.299zM121.861 115.516c0 .172-.107.258-.354.258-1.303 0-2.234-.492-2.234-2.064v-4.156c0-.193.119-.299.289-.299.172 0 .289.105.289.299v1.668h.021c.268-.504.76-.771 1.518-.771h.117c.193 0 .301.098.301.268 0 .172-.107.268-.301.268h-.043c-1.217 0-1.613.652-1.613 1.764v.844c0 1.283.545 1.701 1.742 1.701.216-.003.268.093.268.22zM51.295 85.402c0-.626-.483-1.109-1.136-1.109-.625 0-1.11.482-1.11 1.109v18.631c0 .629.485 1.135 1.11 1.135.653 0 1.136-.506 1.136-1.135V85.402zM110.264 105.027h2.076c.736 0 1.959-.141 2.527-.398.768-.365.963-.678.963-1.248 0-.51-.396-.934-.992-.934-.768 0-.994.395-2.271.395h-1.934c-2.951 0-4.148-.654-5.168-1.648-.965-.965-1.564-2.188-1.564-4.94v-3.182c0-2.757.6-3.978 1.564-4.943 1.02-.995 2.217-1.648 5.168-1.648h4.316c2.047 0 2.871.542 3.582 1.25.795.796 1.135 1.761 1.135 2.925 0 1.106-.34 2.075-1.135 2.869-.711.711-1.535 1.25-3.582 1.25h-6.188c-.6 0-1.08.484-1.08 1.08 0 .625.48 1.108 1.08 1.108h6.217c2.613 0 4.094-.826 5.312-2.074.826-.853 1.648-2.358 1.648-4.233 0-1.932-.822-3.435-1.648-4.288-1.219-1.25-2.699-2.075-5.312-2.075h-4.715c-3.15 0-4.912.85-6.305 2.244-1.447 1.419-2.303 3.209-2.303 6.365v3.521c0 3.152.855 4.941 2.303 6.361 1.394 1.392 3.155 2.243 6.306 2.243zM56.948 98.383v-5.312c0-2.757.595-3.978 1.561-4.943 1.023-.995 2.218-1.648 5.171-1.648h3.04c2.954 0 4.148.654 5.168 1.648.97.965 1.566 2.186 1.566 4.943v5.993c0 1.535-.341 2.215-.913 2.787-.37.365-.879.707-1.56.877l-5.397-6.733a1.03 1.03 0 0 0-1.505-.17c-.483.397-.539 1.049-.172 1.504l5.538 6.904c.229.256.827.908 1.649.766.737-.141 2.104-.709 2.956-1.588 1.022-1.023 1.647-2.246 1.647-4.574v-5.935c0-3.156-.853-4.946-2.3-6.365-1.394-1.395-3.156-2.244-6.307-2.244h-3.779c-3.152 0-4.911.85-6.307 2.244-1.448 1.419-2.3 3.209-2.3 6.365v5.507c0 2.332.825 3.693 1.648 4.545 1.22 1.252 2.697 2.072 5.367 2.072h.142c.684 0 1.164-.51 1.164-1.107 0-.596-.423-1.049-1.164-1.049h-.082c-2.131 0-2.957-.566-3.668-1.279-.852-.88-1.163-1.675-1.163-3.208zM11.442 105.027h2.612c3.154 0 4.917-.852 6.307-2.242 1.45-1.42 2.302-3.209 2.302-6.361V85.402c0-.626-.512-1.109-1.136-1.109-.626 0-1.109.482-1.109 1.109v10.851c0 2.753-.597 3.976-1.56 4.94-1.025.994-2.218 1.648-5.17 1.648h-1.875c-2.953 0-4.149-.654-5.172-1.648-.965-.965-1.561-2.188-1.561-4.94V85.402c0-.626-.482-1.109-1.108-1.109-.626 0-1.137.482-1.137 1.109v11.021c0 3.152.854 4.941 2.303 6.361 1.389 1.392 3.151 2.243 6.304 2.243zM34.338 84.293c-3.153 0-4.916.85-6.306 2.244-1.449 1.419-2.302 3.209-2.302 6.365v11.162c0 .623.51 1.104 1.136 1.104.625 0 1.108-.48 1.108-1.104V93.071c0-2.757.598-3.978 1.564-4.943 1.02-.995 2.213-1.648 5.169-1.648h1.873c2.956 0 4.148.654 5.171 1.648.964.965 1.563 2.186 1.563 4.943v10.993c0 .623.482 1.104 1.105 1.104.627 0 1.138-.48 1.138-1.104V92.903c0-3.156-.854-4.946-2.301-6.365-1.391-1.395-3.152-2.244-6.309-2.244h-2.609v-.001zM87.482 105.027H90.1c3.151 0 4.911-.852 6.304-2.242 1.448-1.42 2.3-3.209 2.3-6.361V85.402c0-.626-.512-1.109-1.135-1.109a1.09 1.09 0 0 0-1.107 1.109v10.851c0 2.753-.598 3.976-1.565 4.94-1.022.994-2.214 1.648-5.169 1.648h-1.876c-2.955 0-4.143-.654-5.169-1.648-.964-.965-1.56-2.188-1.56-4.94V85.402c0-.626-.485-1.109-1.11-1.109-.624 0-1.136.482-1.136 1.109v11.021c0 3.152.852 4.941 2.3 6.361 1.393 1.392 3.153 2.243 6.305 2.243zM178.914 90.426l-8.258-9.675c-3.047-3.567-7.812-5.207-13.785-5.221l-9.738-.011c-2.797 0-5.094 2.306-5.094 5.108v7.962c0 2.812 2.297 5.193 5.172 5.193h9.117l-3.293-3.824c-1.361-1.593-1.174-3.999.406-5.356l1.615-1.358a3.765 3.765 0 0 1 5.344.395l11.146 13.081c1.369 1.594 3.752 1.789 5.342.42l1.615-1.358c1.585-1.37 1.78-3.763.411-5.356z" fill="#003562"/><path d="M153.035 89.945l8.254 9.676c3.049 3.578 7.812 5.207 13.785 5.219l9.738.014c2.814 0 5.109-2.309 5.109-5.123v-7.946c0-2.826-2.295-5.197-5.184-5.197h-9.119l3.295 3.826c1.369 1.591 1.174 3.986-.41 5.356l-1.615 1.357a3.775 3.775 0 0 1-5.342-.408L160.4 83.638a3.766 3.766 0 0 0-5.344-.406l-1.615 1.358c-1.58 1.354-1.767 3.763-.406 5.355z" fill="#8387a3"/></g></svg>