<svg xmlns="http://www.w3.org/2000/svg" width="2500" height="2500" viewBox="0 0 192.756 192.756"><g fill-rule="evenodd" clip-rule="evenodd"><path fill="#fff" d="M0 0h192.756v192.756H0V0z"/><path fill="#282775" d="M27.352 173.809v-28.855h6.023v11.075h11.27v-11.075h5.926v28.855h-5.926v-12.825h-11.27v12.825h-6.023zM64.269 162.928h7.287l-3.595-11.367-3.692 11.367zm.389-17.974h6.801l10.201 28.854h-6.606l-1.846-5.927h-10.59l-2.04 5.927H54.36l10.298-28.854zM88.072 147.966c2.331-2.332 5.343-3.497 9.036-3.497 4.76 0 7.965.972 9.424 3.108 1.457 2.041 2.33 3.498 2.623 4.372.389.874.582 1.749.582 2.623h-6.023a8.804 8.804 0 0 0-1.943-3.497c-.777-.972-2.332-1.457-4.469-1.457-2.234 0-3.886.874-5.149 2.623-1.263 1.748-1.943 4.274-1.943 7.48s.68 5.635 2.04 7.286c1.263 1.651 3.012 2.429 5.052 2.429 2.137 0 3.596-.583 4.469-1.555.875-1.068 1.457-2.429 1.943-3.886h5.926c-.484 3.109-1.846 5.635-3.982 7.675-2.137 1.943-4.955 2.915-8.258 2.915-4.178 0-7.092-.972-8.938-2.915-1.749-2.04-2.915-3.886-3.498-5.731-.583-1.847-.874-3.983-.874-6.315-.002-5.052 1.261-8.841 3.982-11.658zM117.023 147.966c2.332-2.332 5.342-3.497 8.938-3.497 4.857 0 8.062.972 9.521 3.108 1.457 2.041 2.33 3.498 2.623 4.372.389.874.582 1.749.582 2.623h-6.023a8.804 8.804 0 0 0-1.943-3.497c-.873-.972-2.33-1.457-4.469-1.457-2.234 0-3.887.874-5.246 2.623-1.264 1.748-1.846 4.274-1.846 7.48s.68 5.635 2.041 7.286c1.262 1.651 3.012 2.429 5.051 2.429 2.139 0 3.596-.583 4.469-1.555.875-1.068 1.457-2.429 1.943-3.886h5.926c-.484 3.109-1.846 5.635-3.982 7.675-2.137 1.943-4.955 2.915-8.258 2.915-4.178 0-7.092-.972-8.938-2.915-1.75-2.04-2.916-3.886-3.498-5.731-.582-1.847-.875-3.983-.875-6.315 0-5.052 1.264-8.841 3.984-11.658zM158.215 150.978c-.777-.68-1.846-.972-3.303-.972h-5.635v8.453h5.635c.68 0 1.359-.098 1.943-.194.486-.194 1.068-.583 1.65-1.069.584-.485.973-1.555.973-3.012s-.486-2.527-1.263-3.206zm4.566 10.395c-1.652 1.36-4.178 2.04-7.383 2.04h-6.121v10.396h-5.926v-28.854h12.531c2.916 0 5.246.777 6.898 2.234 1.748 1.555 2.623 3.789 2.623 6.898.001 3.4-.874 5.829-2.622 7.286zM184.252 136.987v2.721H8.504v-2.721h175.748z"/><path d="M19.288 132.907c0 .098-.097.194-.194.292-.486.388-1.166.583-2.041.583-.874 0-1.457-.195-1.943-.583l-.292-.292H8.504v4.08h175.748v-4.08h-6.314l-.195.194c-.484.389-1.166.681-2.039.681-.584 0-1.068-.098-1.457-.292-.293-.194-.584-.389-.682-.583h-2.039v.68h-.973v-.68h-2.039l-.195.68h-1.166l-.193-.68h-2.041v.68h-.971v-.68h-1.457v.68h-4.566v-.68h-3.4v.68h-1.068v-.68h-3.691c-.098.098-.098.098-.098.194-.584.389-1.264.681-2.137.681-.486 0-.973-.098-1.457-.292-.293-.194-.486-.389-.682-.583h-3.982v.68h-.973v-.68h-4.08c-.096.098-.096.098-.193.194-.486.389-1.166.681-2.041.681-.484 0-1.068-.098-1.457-.292-.291-.194-.486-.389-.68-.583h-7.578v.68h-.971v-.68h-2.527c0 .098-.096.098-.193.194-.389.485-1.068.681-1.846.681-.875 0-1.457-.195-1.943-.681 0-.097-.098-.097-.098-.194h-5.439l.193.68h-1.166c0-.193-.096-.388-.096-.68h-3.498v.68h-.973v-.68h-1.359l.193.68h-1.068l-.193-.68h-3.887l-.193.68h-1.166l.193-.68h-1.068l.291.68H96.33c0-.193-.098-.388-.098-.68h-3.497v.68h-.972v-.68h-3.595v.68h-.972v-.68h-3.691l-.194.194c-.486.389-1.166.681-2.04.681-.583 0-1.069-.098-1.458-.292-.292-.194-.583-.389-.68-.583h-2.332v.68h-.971v-.68h-2.137v.68h-.777v-.68h-.292l-.485.486c-.389.193-.777.389-1.36.389-.777 0-1.458-.292-1.846-.681 0-.097-.097-.097-.097-.194h-2.137v.68h-4.566v-.68h-1.749l.291.68h-1.166c-.097-.193-.097-.388-.194-.68h-3.4v.68h-.972v-.68h-5.926c-.388.389-1.068.68-1.846.68h-2.623v-.68h-1.651v.68H38.33v-.68h-3.303v.68h-1.069v-.68h-3.691v.68h-.972v-.68h-2.138v.68h-1.554l-.292-.68h-2.623v.68h-.972v-.68h-2.428z" fill="#282775"/><path d="M15.402 128.924v2.041c0 .583.097.971.291 1.359.195.389.68.583 1.36.583.777 0 1.166-.194 1.457-.583.195-.389.292-.776.292-1.359v-2.041h-3.4zm4.372 0v2.43c0 .68-.098 1.165-.486 1.554h2.429v-3.983h-1.943v-.001zm2.914 0v3.983h2.623l-1.36-3.983h-1.263zm2.138 0l1.068 3.012.292.972v-3.983h-1.36v-.001zm2.331 0v3.983h2.138v-3.983h-2.138zm3.109 0v3.983h3.691v-3.983h-3.691zm4.761 0v3.983h3.303v-3.983h-3.303zm7.675 0v.389h-3.304v3.304h3.498v.291h1.651v-3.983h-1.845v-.001zm2.817 0v3.692h1.555c.777 0 1.263-.292 1.555-.875.292-.582.485-1.554.485-2.817h-3.595zm4.663 0v.098c0 1.36-.292 2.429-.68 3.303-.097.194-.292.389-.486.583h5.926v-3.983h-4.76v-.001zm8.938 0c-.194 0-.389.098-.583.098.583.097.972.194 1.166.485.194.194.389.583.486 1.264v.874l.194 1.166v.097h1.749v-3.983H59.12v-.001zm7.287 0v.389h-3.303v3.304h3.595v.291h2.137c-.389-.389-.583-.972-.777-1.554-.097-.681-.097-1.458-.097-2.43v-.097l-1.555.097zm2.526 0v.098c0 1.166.097 2.04.292 2.817.194.68.68 1.068 1.457 1.068.68 0 1.166-.291 1.458-.68.389-.389.583-1.263.583-2.429h-2.04v-.875h3.012v3.983h2.137v-3.983h-6.899v.001zm7.869 0v3.983h2.332c-.097-.097-.194-.194-.194-.291-.194-.389-.291-.681-.291-.972l-.098-.972h1.069c0 .777.097 1.36.292 1.651.194.389.68.583 1.36.583.583 0 .972-.194 1.263-.485.389-.194.486-.583.486-1.166 0-.68-.097-1.068-.292-1.263-.194-.098-.583-.194-1.069-.389l-1.068-.486c-.292 0-.486-.097-.68-.291l-3.11.098zm5.926 0c.486.194.777.389.972.681.292.291.389.777.389 1.457 0 .777-.194 1.36-.583 1.846h3.691v-3.983h-4.469v-.001zm5.44 0v3.983h3.595v-3.983h-3.595zm7.773 0c-.097 0-.292.098-.583.098.583.097.972.194 1.263.485.194.194.292.583.389 1.264v.874l.193 1.166.098.097h1.068l1.166-3.983h-3.594v-.001zm4.567 0l-.293 1.069h2.43l-.291-1.069h-1.846zm2.914 0l1.068 3.983h1.359v-3.983h-2.427zm6.605 0c-.096 0-.389.098-.582.098.582.097.971.194 1.166.485.291.194.389.583.484 1.264v.874l.195 1.166.098.097h5.439c-.389-.389-.582-.874-.777-1.554a17.485 17.485 0 0 1-.193-2.43h-5.83zm6.899 0c0 1.36.098 2.43.389 3.012.193.583.777.972 1.555.972s1.262-.389 1.555-.972c.193-.582.389-1.651.389-3.012h-3.888zm4.955 0c-.098.972-.098 1.749-.291 2.43-.098.68-.293 1.165-.682 1.554h2.527v-3.983h-1.554v-.001zm5.537 0v.389h-3.012v3.595h7.578c-.098-.097-.195-.194-.195-.291-.193-.389-.291-.681-.291-.972v-.972h.973c0 .777.096 1.36.291 1.651.291.389.68.583 1.457.583.486 0 .875-.194 1.264-.485.291-.194.389-.583.389-1.166 0-.68-.098-1.068-.293-1.263-.193-.098-.582-.194-.971-.389l-1.166-.486c-.291 0-.486-.097-.68-.291l-5.344.097zm8.16 0c.486.194.777.389.973.681.291.291.389.777.389 1.457 0 .777-.195 1.36-.584 1.846h4.08v-2.914l-.582-1.069h-4.276v-.001zm5.246 0l.098.098.098-.098h-.196zm1.166 0l-.582 1.069v2.914h3.982c-.096-.097-.193-.194-.193-.291-.195-.389-.291-.681-.291-.972v-.972h.971c0 .777.098 1.36.291 1.651.293.389.68.583 1.457.583.486 0 .973-.194 1.264-.485.291-.194.486-.583.486-1.166 0-.68-.195-1.068-.389-1.263-.195-.098-.584-.194-.973-.389l-1.166-.486c-.291 0-.484-.097-.68-.291l-4.177.098zm6.996 0c.484.194.777.389.971.681.291.291.389.777.389 1.457 0 .777-.193 1.36-.582 1.846h3.691v-3.983h-4.469v-.001zm5.537 0v3.983h3.4v-3.983h-3.4zm7.676 0v.389h-3.305v3.304h3.596v.291h1.457v-3.983h-1.748v-.001zm2.719 0v3.983h2.041l-1.068-3.983h-.973zm1.943 0l.68 2.624.098.68c0 .194.098.389.098.68l.098-.68.096-.68.682-2.624h-1.752zm2.623 0l-.971 3.983h2.039v-3.983h-1.068zm2.041 0v3.983h2.039c-.096-.097-.193-.194-.193-.291-.193-.389-.291-.681-.291-.972l-.098-.972h1.068c0 .777.098 1.36.291 1.651.293.389.682.583 1.457.583a1.61 1.61 0 0 0 1.166-.485c.389-.194.486-.583.486-1.166 0-.68-.098-1.068-.291-1.263-.195-.098-.584-.194-1.068-.389l-1.068-.486c-.293 0-.486-.097-.682-.291l-2.816.098zm5.635 0c.486.194.777.389.971.681.293.291.389.777.389 1.457 0 .777-.193 1.36-.582 1.846h6.314v-3.983h-7.092v-.001zM8.504 132.907v-3.983h5.829v2.43c0 .68.194 1.165.486 1.554H8.504v-.001zm50.81 0v-.389c-.097-.485-.097-.874-.097-1.263 0-.485-.097-.972-.389-1.263-.194-.292-.583-.389-1.166-.389h-1.749v3.303h3.401v.001zm13.602 0v-.68c-.097.291-.195.485-.292.68h.292zm23.316 0c-.097-.097-.097-.291-.097-.389-.098-.485-.098-.874-.098-1.263 0-.485-.097-.972-.388-1.263-.194-.292-.583-.389-1.166-.389h-1.749v3.303h3.498v.001zm7.19 0l-.584-1.942h-2.816l-.486 1.942h3.886zm6.898 0c-.098-.097-.098-.291-.098-.389-.098-.485-.098-.874-.098-1.263 0-.485-.098-.972-.389-1.263-.193-.292-.582-.389-1.166-.389h-1.748v3.303h3.499v.001z" fill="#282775"/><path d="M15.402 126.204v2.72h3.4v-2.72h-3.4zm4.372 0v2.72h1.942v-2.72h-1.942zm2.914 0V128.924h1.263l-.972-2.622v-.098h-.291zm1.166 0l.972 2.72h1.36v-2.72h-2.332zm3.303 0v2.72h2.138v-2.72h-2.138zm3.109 0v2.72h3.691v-2.72h-3.691zm4.761 0v2.72h3.303v-2.72h-3.303zm4.371 0v2.137h3.304v.583h1.846v-2.72h-5.15zm6.121 0v2.72h3.595v-.097c0-1.166-.194-2.04-.388-2.623h-3.207zm4.274 0c.194.583.292 1.555.389 2.623l4.76.097v-2.72h-5.149zm6.121 0v2.429h1.554a2.69 2.69 0 0 0 1.263-.292c.292-.193.486-.68.486-1.359 0-.292 0-.583-.097-.777h-3.206v-.001zm4.275 0c.097.194.097.485.097.874 0 .486-.194.972-.486 1.36-.194.194-.389.291-.68.485h3.012v-2.72h-1.943v.001zm2.915 0v2.137h3.303v.583h1.554c0-1.165.097-2.04.292-2.72h-5.149zm6.217 0c-.097.194-.194.583-.291.874 0 .583-.097 1.166-.097 1.846h6.897v-2.72h-2.332c.098.194.098.583.098.874h-.972c0-.291-.097-.68-.194-.874h-3.109zm7.481 0v2.72h3.109c-.097-.097-.194-.097-.292-.194-.292-.097-.486-.389-.68-.68-.194-.389-.194-.777-.194-1.263v-.583h-1.943zm3.011 0c0 .194-.097.389-.097.583 0 .68.292 1.068.875 1.263l1.457.583c.292.097.486.194.68.291h4.469v-2.72h-3.4v.68h-.971c0-.291 0-.485-.097-.777l-2.916.097zm8.355 0v2.72h3.595v-2.72h-3.595zm4.567 0v2.429h1.651c.389 0 .777-.098 1.166-.292.389-.193.583-.68.583-1.359 0-.292-.098-.583-.194-.777h-3.206v-.001zm4.275 0c.098.194.098.485.098.874 0 .486-.098.972-.487 1.36-.097.194-.389.291-.68.485h3.594l.777-2.72H97.01v.001zm4.178 0l-.68 2.72h1.846l-.682-2.72h-.484zm1.457 0l.777 2.72h2.428v-2.72h-3.205zm4.177 0v2.429h1.555c.484 0 .873-.098 1.262-.292.389-.193.486-.68.486-1.359 0-.292 0-.583-.098-.777h-3.205v-.001zm4.274 0c.098.194.098.485.098.874 0 .486-.098.972-.486 1.36-.193.194-.387.291-.68.485h5.83v-.097c0-1.166.096-2.04.291-2.623h-5.053v.001zm6.218 0c-.291.583-.389 1.555-.389 2.623v.097h3.887v-.097c0-1.166-.195-2.04-.486-2.623v-.098l-3.012.098zm4.178 0c.193.583.389 1.457.389 2.623v.097h1.555v-2.72h-1.944zm2.914 0v2.137h3.012v.583h5.344c-.098-.097-.195-.097-.291-.194-.293-.097-.486-.389-.682-.68-.096-.389-.193-.777-.193-1.263v-.583h-7.19zm8.356 0c-.098.194-.098.389-.098.583 0 .68.291 1.068.777 1.263l1.457.583c.291.097.486.194.68.291h4.275l-1.359-2.72h-1.846v.68h-.973c0-.291 0-.485-.098-.777l-2.815.097zm6.8 0l1.262 2.72h.195l1.264-2.72h-2.721zm3.79 0l-1.361 2.72h4.178c-.096-.097-.193-.097-.193-.194-.389-.097-.584-.389-.777-.68-.098-.389-.195-.777-.195-1.263 0-.194 0-.389.098-.583h-1.75zm2.816 0c-.096.194-.096.389-.096.583 0 .68.291 1.068.775 1.263l1.459.583c.291.097.484.194.68.291h4.469v-2.72h-3.4v.68h-.973c0-.291 0-.485-.096-.777l-2.818.097zm8.355 0v2.72h3.4v-2.72h-3.4zm4.372 0v2.137h3.305v.583h1.748v-2.72h-5.053zm6.023 0v2.72h.973l-.68-2.72h-.293zm1.264 0l.68 2.72h1.75l.68-2.72h-3.11zm3.982 0l-.68 2.72h1.068v-2.72h-.388zm1.361 0v2.72h2.816c-.096-.097-.193-.097-.291-.194-.291-.097-.486-.389-.68-.68-.098-.389-.193-.777-.193-1.263v-.583h-1.652zm2.721 0c0 .194-.098.389-.098.583 0 .68.291 1.068.875 1.263l1.457.583c.291.097.484.194.68.291h7.092v-2.72h-6.023v.68h-.971c0-.291 0-.485-.098-.777l-2.914.097zm-165.742 2.72v-2.72h5.829v2.72H8.504z" fill="#282775"/><path d="M184.252 122.124v4.08h-6.023c-.098-.583-.291-.972-.68-1.264-.389-.389-1.068-.68-1.846-.68s-1.361.291-1.846.68c-.293.389-.584.777-.68 1.264h-1.652v-1.749h-1.75l-.484 1.749h-3.109l-.486-1.749h-1.748v1.749h-5.053v-.777h3.498v-.972h-4.469v1.749h-3.4v-.777h2.332v-.972h-5.732v.972h2.332v.777h-3.4c-.098-.583-.291-.972-.584-1.264-.484-.389-1.068-.68-1.941-.68-.777 0-1.361.291-1.846.68a3.004 3.004 0 0 0-.584 1.264h-1.748l.777-1.749h-1.07l-.775 1.749h-2.721l-.777-1.749h-1.068l.777 1.749h-1.846c-.098-.583-.293-.972-.584-1.264-.486-.389-1.068-.68-1.943-.68-.777 0-1.359.291-1.846.68-.291.389-.582.777-.68 1.264h-7.189v-.777h3.303v-.972h-4.273v1.749h-1.943c-.098-.389-.291-.68-.486-.972-.486-.583-1.166-.972-2.137-.972-.973 0-1.652.389-2.234.972-.195.292-.293.583-.486.972h-5.053c-.096-.583-.291-.972-.68-1.166-.484-.389-1.262-.583-2.234-.583h-2.332v1.749h-3.205l-.486-1.749h-1.359l-.486 1.749H97.01c-.097-.583-.292-.972-.583-1.166-.583-.389-1.263-.583-2.331-.583h-2.332v1.749h-3.595v-.777h2.429v-.972h-5.732v.972h2.332v.777h-3.4c-.097-.583-.291-.972-.68-1.264-.389-.389-1.069-.68-1.846-.68-.777 0-1.36.291-1.846.68-.292.389-.583.777-.68 1.264h-1.943v-1.749h-.973v1.749h-2.332c-.097-.486-.291-.875-.583-1.166-.486-.486-1.166-.777-2.041-.777-.874 0-1.651.389-2.137 1.068a1.884 1.884 0 0 0-.486.875h-5.149v-.777h3.595v-.972h-4.566v1.749h-1.943c-.097-.583-.292-.972-.68-1.166-.486-.389-1.263-.583-2.234-.583h-2.332v1.749h-5.149c-.194-.389-.292-.583-.485-.777-.583-.68-1.36-.972-2.332-.972h-2.429v1.749h-5.149v-.777h3.498v-.972H38.33v1.749h-3.303v-.777h2.331v-.972h-5.732v.972h2.332v.777h-3.691v-1.749h-.972v1.749h-2.138v-1.749h-.971v1.749h-2.332l-.583-1.749h-1.555v1.749h-1.942v-1.749h-.972v1.749h-3.4v-1.749h-1.069v1.749H8.504v-4.08h175.748zm-161.273 4.08l-.194-.583-.097-.681v1.264h.291zm25.649 0c-.292-.583-.777-.777-1.555-.777h-1.555v.777h3.11zm10.492 0c-.097-.291-.292-.389-.486-.486-.291-.193-.777-.291-1.263-.291h-1.458v.777h3.207zm13.31 0a.749.749 0 0 0-.194-.486c-.292-.389-.68-.485-1.263-.485-.583 0-1.069.194-1.36.583l-.292.291 3.109.097zm10.298 0c-.097-.291-.194-.389-.292-.583-.194-.292-.583-.389-1.069-.389-.68 0-1.068.097-1.263.389-.097.194-.194.389-.292.485l2.916.098zm13.213 0c-.097-.291-.194-.389-.389-.486-.389-.193-.875-.291-1.36-.291h-1.457v.777h3.206zm5.731 0l-.193-.972-.291.972h.484zm8.355 0c-.096-.291-.193-.389-.389-.486-.389-.193-.873-.291-1.359-.291h-1.457v.777h3.205zm10.299 0c-.291-.68-.777-.972-1.457-.972-.777 0-1.264.292-1.555.874l3.012.098zm15.252 0c-.096-.291-.096-.389-.291-.583-.193-.292-.582-.389-1.068-.389-.582 0-1.068.097-1.264.389-.096.194-.193.389-.193.485l2.816.098zm13.408 0c0-.291-.098-.389-.291-.583-.195-.292-.584-.389-1.07-.389-.582 0-1.068.097-1.262.389-.098.194-.195.389-.195.485l2.818.098zm16.225 0v-.194l-.293-1.069v1.264h.293v-.001zm5.342 0v-1.264l-.389 1.166v.098h.389zm6.607 0c-.098-.291-.195-.389-.291-.583-.195-.292-.584-.389-1.07-.389-.68 0-1.068.097-1.262.389-.098.194-.195.389-.291.485l2.914.098zM184.252 118.043v.389H8.504v-.389h175.748zM8.504 122.124v-1.652h175.748v1.652H8.504zM112.748 96.476c.291.389.584.874.875 1.263a196.81 196.81 0 0 1-17.197.777c-9.326 0-18.167-.681-26.425-2.04H8.504v21.567h175.748V96.476h-57.223c5.83 6.509 11.854 11.075 22.928 13.698 0 0-14.281 3.983-23.607-3.206-4.371-3.4-7.771-7.092-10.492-10.492h-3.11z" fill="#282775"/><path d="M53.194 85.691c11.464 4.566 26.62 7.384 43.232 7.384 4.664 0 9.132-.194 13.505-.583a58.688 58.688 0 0 0 2.816 3.983h3.109c-2.914-3.789-4.955-7.189-6.219-9.327l-.873-1.458h-55.57v.001zm103.466 0c-7.285 4.081-16.613 7.384-27.396 9.618-1.457-1.554-2.914-3.303-4.371-5.149 5.344-1.166 10.395-2.72 14.768-4.469h-21.666c.195.292.389.583.68.875 3.012 3.692 5.635 6.995 8.355 9.91h57.223V85.691H156.66zM8.504 96.476V85.691H36.29c8.646 4.858 20.305 8.646 33.712 10.784H8.504v.001z" fill="#282775"/><path d="M36.483 74.908c3.595 4.177 9.424 7.869 16.71 10.784h55.572l-5.732-10.784h-9.23c.097.68.292 1.749.68 2.429.68.972 1.943 1.166 1.943 1.166h.972v1.263H84.38v-1.36h1.166s1.36-.097 2.04-1.263c.292-.583.486-1.457.583-2.234h-12.63c-.583.971-1.263 1.846-2.137 2.623-2.429 1.943-6.995 2.137-6.995 2.137s-4.858-.097-7.481-2.234c-.971-.68-1.651-1.651-2.137-2.526H36.483v-.001zm26.718 0c.097.194.292.486.485.68 1.36 1.651 4.372 1.554 4.372 1.554s3.498.097 5.343-2.041c0-.097.097-.097.097-.194H63.201v.001zm52.072 0c1.068 2.332 1.846 4.663 1.846 4.663h1.264s.195-1.068.777-1.457 1.457 0 1.457 0 1.555.486 3.012.777c1.555.292 3.207.389 3.207.389s4.564-.097 6.994-2.137c.777-.583 1.457-1.457 1.846-2.234h20.693c-3.594 4.177-9.326 7.869-16.709 10.784h-21.666c-2.816-3.595-5.051-7.578-6.898-10.784h4.177v-.001zm16.42 0c-.875 2.137-3.789 2.526-3.789 2.526s-2.721.486-4.955-.292c-1.652-.486-3.109-1.652-3.789-2.234h12.533zm37.889 0c-2.818 3.983-7.287 7.578-12.922 10.784h27.592V74.908h-14.67zM8.504 85.691V74.908h14.864c2.817 3.983 7.189 7.578 12.921 10.784H8.504v-.001z" fill="#282775"/><path d="M32.306 64.124v.68c0 3.595 1.457 6.995 4.177 10.104h20.305c-1.166-1.943-1.458-3.983-1.458-3.983v-6.8H32.306v-.001zm29.826 0v6.12s0 2.817 1.069 4.664h10.298c1.651-2.137 1.651-6.218 1.651-6.218v-4.566H62.132zm14.67 0v6.995s-.292 1.846-1.263 3.789h12.63c.097-.875.097-1.555.097-1.555v-9.229H76.802zm22.636 0c-.873.68-1.748.68-1.748.68h-3.886v-.68h5.634zm20.304 0c.973 1.068 1.943 1.457 1.943 1.457l6.996 3.206s3.496 1.36 3.4 4.761c-.098.485-.195.971-.389 1.36H119.16l-.486-.486-5.926-6.509-.777.777s1.555 2.526 2.818 5.247c.193.388.291.68.484.971h-4.178c-1.164-1.943-2.137-3.595-3.107-4.76-2.623-3.304-5.732-5.538-5.732-5.538l.971-.485h16.515v-.001zm53.24 0c.098.194.098.485.098.68 0 3.498-1.264 6.898-3.498 10.104h14.67V64.124h-11.27zM8.504 74.908V64.124h11.367v.68c0 3.498 1.166 6.898 3.498 10.104H8.504zm85.299 0v-8.743s2.234-.292 4.275 1.263c2.041 1.652 3.691 5.149 3.691 5.149l1.264 2.332h-9.23v-.001zm41.873 0c1.166-1.943 1.361-3.983 1.361-3.983s0-2.72-.973-4.274a9.197 9.197 0 0 0-2.041-2.526h26.523c.098.194.098.485.098.68 0 3.595-1.555 6.995-4.275 10.104h-20.693v-.001z" fill="#282775"/><path d="M37.844 53.34c-3.401 3.303-5.344 6.898-5.538 10.784h23.025V53.34H37.844zm24.385 0c-.097.486-.097.875-.097.875v9.91H75.15v-9.812s0-.486-.097-.972H62.229v-.001zm14.864 0c-.194.68-.292 1.263-.292 1.263v9.521h11.464v-7.967s.194-1.749-.194-2.817H77.093zm22.928 0c.971.972 1.65 2.623 1.65 5.052-.096 3.4-1.262 4.955-2.234 5.732h-5.634V53.34h6.218zm19.041 0c-.873 1.069-1.748 2.817-1.65 5.538.193 2.429 1.262 4.178 2.33 5.247h-16.516c1.555-.875 4.275-3.109 4.178-6.898-.291-1.652-.777-2.915-1.457-3.886h13.115v-.001zm12.145 0c.193.097.389.292.582.486 1.848 1.749 2.721 5.343 2.721 5.343h1.361l-.973-5.829h20.209c3.303 3.303 5.246 6.898 5.439 10.784h-26.523c-.68-.583-1.164-.972-1.164-.972l-8.162-3.886s-3.205-1.263-2.525-4.469c.193-.583.389-1.069.68-1.458h8.355v.001zm37.307 0c2.721 3.303 4.371 6.995 4.469 10.784h11.27V53.34h-15.739zM8.504 64.124V53.34h15.933c-2.817 3.303-4.372 6.995-4.566 10.784H8.504z" fill="#282775"/><path d="M56.886 42.556c-8.161 2.818-14.767 6.509-19.042 10.784h17.487v-.194s-.194-.777-.583-1.166c-.486-.485-1.263-.68-1.263-.68h-1.652v-1.555H65.92v1.458h-2.137s-.777.194-1.166.971c-.194.292-.292.777-.389 1.166h12.824c-.097-.486-.194-.972-.486-1.36-.486-.68-1.458-.777-1.458-.777h-1.651v-1.458h9.132v1.458h-1.458s-1.068.292-1.651 1.069c-.194.291-.292.68-.389 1.068H88.07c0-.097-.098-.194-.098-.292-.485-1.166-1.651-1.166-1.651-1.166h-2.332v-2.429h14.476s4.955-.097 7.48 3.886h13.115c.68-.874 1.264-1.263 1.264-1.263s2.525-1.749 5.344-2.041c2.525-.388 5.439.68 5.439.68s.486.777 1.068.486c.682-.194 1.459-1.458 1.459-1.458l.582-.097.68 3.691h20.209c-4.275-4.275-10.883-7.966-19.141-10.784H56.886v.003zm97.151 0c6.219 3.109 11.174 6.704 14.477 10.784h15.738V42.556h-30.215zM8.504 53.34V42.556h30.409c-6.315 3.109-11.27 6.704-14.476 10.784H8.504zm85.299 0v-1.943l2.623.097s2.041.097 3.595 1.846h-6.218zm29.049 0c1.361-1.749 3.984-1.554 3.984-1.554s2.428.097 4.371 1.554h-8.355z" fill="#282775"/><path d="M8.504 42.556V18.171h175.748v24.385h-30.215c-14.086-7.092-34.682-11.561-57.611-11.561-22.928 0-43.524 4.469-57.514 11.561H8.504zm127.463 0c-10.881-3.789-24.578-6.023-39.541-6.023-14.864 0-28.66 2.235-39.541 6.023h79.082z" fill="#282775"/></g></svg>