<svg id="svg2" xmlns="http://www.w3.org/2000/svg" viewBox="0 0 923.5 303.6" width="2500" height="822"><style>.st0{fill:#293d9b}.st1{fill:#daac06}.st2{fill:#fff}.st3{fill:#231f20}</style><g id="g10" transform="matrix(1.25 0 0 -1.25 0 303.637)"><g id="g12" transform="scale(.24)"><path id="path14" class="st0" d="M1566.8 985.5c7.2 0 10.8-5.4 9.9-14.4L1574 926c0-2.7-1.8-6.3-7.2-7.2l-26.1-1.8h-2.7V543.9c0-182-71.2-268.6-253.3-268.6-173.9 0-249.7 58.6-249.7 268.6V917l-27.9 1.8c-6.3 0-9 6.3-8.1 14.4l2.7 45.1c0 4.5 2.7 7.2 7.2 7.2H1163c7.2 0 10.8-5.4 9.9-14.4l-2.7-45.1c0-2.7-1.8-6.3-7.2-7.2l-26.1-1.8V525.9c0-111.8 33.3-172.1 146.9-172.1 126.2 0 155 77.5 155 172.1V917l-27.9 1.8c-6.3 0-9 6.3-8.1 14.4l2.7 45.1c0 4.5 2.7 7.2 7.2 7.2h154.1"/><path id="path16" class="st0" d="M2499.6 985.5c7.2 0 10.8-5.4 9.9-14.4l-2.7-45.1c0-2.7-1.8-6.3-7.2-7.2l-25.2-1.8-152.3-599.3c-5.4-19.8-21.6-31.5-41.4-31.5l-70.3 2.7c-9.9 0-13.5 6.3-16.2 16.2l-122.6 527.2h-.9l-120.8-503.8c-4.5-18-16.2-43.3-47.8-42.4l-67.6 2.7c-8.1 0-13.5 4.5-16.2 16.2l-147.8 612-27 1.8c-6.3 0-9 6.3-8.1 14.4l2.7 45.1c0 4.5 2.7 7.2 7.2 7.2H1794c7.2 0 10.8-5.4 9.9-14.4l-2.7-45.1c0-2.7-1.8-6.3-7.2-7.2l-25.2-1.8L1884 391.6h.9l128.9 552.5c7.2 31.5 22.5 42.4 44.2 41.5l51.4-2.7c9-.9 12.6-5.4 15.3-17.1l130.7-574.1h.9L2377 917l-27 1.8c-6.3 0-9 6.3-8.1 14.4l2.7 45.1c0 4.5 2.7 7.2 7.2 7.2h147.8"/><path id="path18" class="st0" d="M2872.7 537.6l-117.2 332.6h-.9l-110.9-332.6h229zm197.4-184.8c6.3 0 9-6.3 8.1-14.4l-2.7-45.1c0-4.5-2.7-7.2-6.3-7.2h-157.7c-7.2 0-10.8 5.4-9.9 14.4l2.7 45.1c0 2.7 1.8 6.3 7.2 7.2l25.2 1.8-35.1 100h-285.7l-33.3-100 27.9-1.8c6.3 0 9-6.3 8.1-14.4l-2.7-45.1c0-4.5-2.7-7.2-7.2-7.2h-152.3c-7.2 0-10.8 5.4-9.9 14.4l2.7 45.1c0 2.7 1.8 6.3 7.2 7.2l25.2 1.8L2683.5 917l-27 1.8c-6.3 0-9 6.3-8.1 14.4l2.7 45.1c0 4.5 2.7 7.2 7.2 7.2h143.3l241.5-630.9 27-1.8"/><path id="path20" class="st0" d="M1064.1 108.6c13.3 0 23.7 4.9 23.7 22.5 0 13.2-6.3 21.3-23.3 21.3h-14.8v-43.8h14.4zm.2 56.4c28.6 0 39.9-10.8 39.9-33.5 0-28.1-20.4-35.8-38.5-35.8h-15.9V64.5l4.4-.3c1 0 1.4-1 1.3-2.3l-.4-7.2c0-.7-.4-1.1-1.2-1.1h-24.6c-1.2 0-1.7.9-1.6 2.3l.4 7.2c0 .4.3 1 1.2 1.2l4.2.3v89.6l-4.5.3c-1 0-1.4 1-1.3 2.3l.4 7.2c0 .7.4 1.1 1.2 1.1h35"/><path id="path22" class="st0" d="M1234.8 72.3c.7 0 1.2-.4 1.2-1.1V53.6h-69.6c-1.2 0-1.7.9-1.6 2.3l.4 7.2c0 .4.3 1 1.2 1.2l4.2.3v89.6l-4.5.3c-1 0-1.4 1-1.3 2.3l.4 7.2c0 .7.4 1.1 1.2 1.1h67.2v-17.5c0-1.1-.9-1.7-2.3-1.6l-7.2.4c-.4 0-1 .3-1.1 1.1l-.3 4.2h-35.8v-34h40.5v-13.2h-40.5V67h38.2l.3 4.4c0 1 1 1.4 2.3 1.3l7.1-.4"/><path id="path24" class="st0" d="M1332.5 109.5c15.5 0 24.4 6.8 24.4 22.3 0 14.8-8.5 20.7-23.1 20.7H1320v-42.9c0-.1 12.5-.1 12.5-.1zm44.3-45.3c1 0 1.4-1 1.3-2.3l-.4-7.2c0-.7-.4-1.1-1.1-1.1h-16.4l-24.4 43.1H1320V64.5l4.4-.3c1 0 1.4-1 1.3-2.3l-.4-7.2c0-.7-.4-1.1-1.2-1.1h-24.6c-1.2 0-1.7.9-1.6 2.3l.4 7.2c0 .4.3 1 1.2 1.2l4.2.3v89.6l-4.4.3c-1 0-1.4 1-1.3 2.3l.4 7.2c0 .7.4 1.1 1.2 1.1h32.4c28 0 41.2-10.6 41.2-33.3 0-14.5-7.6-26.9-21.3-32l20.4-35.2 4.5-.4"/><path id="path26" class="st0" d="M1514.7 165v-17.5c0-1.1-.9-1.7-2.3-1.6l-7.2.4c-.4 0-1 .3-1.2 1.1l-.3 4.2v.1h-21.8V64.5l4.4-.3c1 0 1.4-1 1.3-2.3l-.4-7.2c0-.7-.4-1.1-1.2-1.1h-24.6c-1.2 0-1.7.9-1.6 2.3l.4 7.2c0 .4.3 1 1.2 1.2l4.2.3v87.3h-20.2l-.3-4.4c0-1-1-1.4-2.3-1.3l-7.2.4c-.7 0-1.2.4-1.2 1.1V165h80.3"/><path id="path28" class="st0" d="M1669.3 64.2c1 0 1.4-1 1.3-2.3l-.4-7.2c0-.7-.4-1.1-1.2-1.1h-24.6c-1.2 0-1.7.9-1.6 2.3l.4 7.2c0 .4.3 1 1.2 1.2l4.2.3v38.6h-50V64.5l4.4-.3c1 0 1.4-1 1.3-2.3l-.4-7.2c0-.7-.4-1.1-1.1-1.1h-24.6c-1.2 0-1.7.9-1.6 2.3l.4 7.2c0 .4.3 1 1.2 1.2l4.2.3v89.6l-4.4.3c-1 0-1.4 1-1.3 2.3l.4 7.2c0 .7.4 1.1 1.2 1.1h24.6c1.1 0 1.7-.9 1.6-2.3l-.4-7.2c0-.4-.3-1-1.1-1.2l-4.2-.3v-37.6h50v37.6l-4.5.3c-1 0-1.4 1-1.3 2.3l.4 7.2c0 .7.4 1.1 1.2 1.1h24.6c1.2 0 1.7-.9 1.6-2.3l-.4-7.2c0-.4-.3-1-1.2-1.2l-4.2-.3V64.5l4.3-.3"/><path id="path30" class="st0" d="M1762.2 117.1c1.9-1.9 2.9-4.2 2.9-6.9s-1-5-2.9-6.9c-1.9-1.9-4.2-2.9-6.9-2.9s-5 1-6.9 2.9c-1.9 1.9-2.9 4.2-2.9 6.9s1 5 2.9 6.9c1.9 2 4.2 2.9 6.9 2.9s5.1-.9 6.9-2.9"/><path id="path32" class="st0" d="M1900.1 93.7l-18.7 53h-.2l-17.7-53h36.6zm31.4-29.5c1 0 1.4-1 1.3-2.3l-.4-7.2c0-.7-.4-1.1-1-1.1h-25.1c-1.1 0-1.7.9-1.6 2.3l.4 7.2c0 .4.3 1 1.1 1.2l4 .3-5.6 15.9h-45.5l-5.3-15.9 4.4-.3c1 0 1.4-1 1.3-2.3l-.4-7.2c0-.7-.4-1.1-1.2-1.1h-24.3c-1.2 0-1.7.9-1.6 2.3l.4 7.2c0 .4.3 1 1.2 1.2l4 .3 32.2 89.6-4.3.3c-1 0-1.4 1-1.3 2.3l.4 7.2c0 .7.4 1.1 1.2 1.1h22.8l38.5-100.5 4.4-.5"/><path id="path34" class="st0" d="M2077.4 165c1.1 0 1.7-.9 1.6-2.3l-.4-7.2c0-.4-.3-1-1.1-1.2l-4.2-.3h-.4V94.7c0-29-11.4-42.8-40.4-42.8-27.7 0-39.8 9.3-39.8 42.8v59.4l-4.4.3c-1 0-1.4 1-1.3 2.3l.4 7.2c0 .7.4 1.1 1.1 1.1h24.6c1.2 0 1.7-.9 1.6-2.3l-.4-7.2c0-.4-.3-1-1.2-1.2l-4.2-.3V91.8c0-17.8 5.3-27.4 23.4-27.4 20.1 0 24.7 12.3 24.7 27.4v62.3l-4.4.3c-1 0-1.4 1-1.3 2.3l.4 7.2c0 .7.4 1.1 1.1 1.1h24.6"/><path id="path36" class="st0" d="M2213 84.2c0-18.1-13.4-31.3-38.5-31.3-13.5 0-24.3 2.9-32 6.2v17.4c0 1.3 1 2 2.7 1.9l8.6-.6c.6 0 1.3-.3 1.4-1.3l.3-7.8c6.8-1.6 13.5-2.4 18.1-2.4 13.1 0 23.3 4.4 23.3 16.4 0 12.8-4.9 15.4-27 23.3-16.1 6-27.1 14.2-27.1 30.2 0 18 13.6 29.9 37.9 29.9 8.9 0 17.4-.9 25.4-2.9v-18.8c0-1.3-1-2-2.7-1.9l-8.6.6c-.6 0-1.3.3-1.4 1.3l-.3 7.8c-3.9.4-7.8.7-11.4.7-13.4 0-22.1-6.2-22.1-16.1 0-10.3 6-14.1 25.7-21.1 20.5-7.4 27.7-17.2 27.7-31.5"/><path id="path38" class="st0" d="M2352.2 165v-17.5c0-1.1-.9-1.7-2.3-1.6l-7.2.4c-.4 0-1 .3-1.1 1.1l-.3 4.2v.1h-21.8V64.5l4.4-.3c1 0 1.4-1 1.3-2.3l-.4-7.2c0-.7-.4-1.1-1.1-1.1h-24.6c-1.1 0-1.7.9-1.6 2.3l.4 7.2c0 .4.3 1 1.1 1.2l4.2.3v87.3H2283l-.3-4.4c0-1-1-1.4-2.3-1.3l-7.2.4c-.7 0-1.1.4-1.1 1.1V165h80.1"/><path id="path40" class="st0" d="M2451.6 109.5c15.5 0 24.4 6.8 24.4 22.3 0 14.8-8.5 20.7-23.1 20.7h-13.8v-42.9l12.5-.1zm44.4-45.3c1 0 1.4-1 1.3-2.3l-.4-7.2c0-.7-.4-1.1-1.1-1.1h-16.4L2455 96.7h-15.8V64.5l4.4-.3c1 0 1.4-1 1.3-2.3l-.4-7.2c0-.7-.4-1.1-1.1-1.1h-24.6c-1.1 0-1.7.9-1.6 2.3l.4 7.2c0 .4.3 1 1.1 1.2l4.2.3v89.6l-4.4.3c-1 0-1.4 1-1.3 2.3l.4 7.2c0 .7.4 1.1 1.1 1.1h32.5c28 0 41.2-10.6 41.2-33.3 0-14.5-7.6-26.9-21.2-32l20.4-35.2 4.4-.4"/><path id="path42" class="st0" d="M2625.2 93.7l-18.7 53h-.1l-17.7-53h36.5zm31.4-29.5c1 0 1.4-1 1.3-2.3l-.4-7.2c0-.7-.4-1.1-1-1.1h-25.1c-1.2 0-1.7.9-1.6 2.3l.4 7.2c0 .4.3 1 1.2 1.2l4 .3-5.6 15.9h-45.5l-5.3-15.9 4.5-.3c1 0 1.4-1 1.3-2.3l-.4-7.2c0-.7-.4-1.1-1.1-1.1H2559c-1.1 0-1.7.9-1.6 2.3l.4 7.2c0 .4.3 1 1.1 1.2l4 .3 32.2 89.6-4.3.3c-1 0-1.4 1-1.3 2.3l.4 7.2c0 .7.4 1.1 1.1 1.1h22.8l38.5-100.5 4.3-.5"/><path id="path44" class="st0" d="M2793.6 72.3c.7 0 1.1-.4 1.1-1.1V53.6h-69.6c-1.1 0-1.7.9-1.6 2.3l.4 7.2c0 .4.3 1 1.1 1.2l4.2.3v89.6l-4.4.3c-1 0-1.4 1-1.3 2.3l.4 7.2c0 .7.4 1.1 1.1 1.1h24.6c1.1 0 1.7-.9 1.6-2.3l-.4-7.2c0-.4-.3-1-1.1-1.2l-4.2-.3V67h38.3l.3 4.4c0 1 1 1.4 2.3 1.3l7.2-.4"/><path id="path46" class="st0" d="M2886.1 64.2c1 0 1.4-1 1.3-2.3l-.4-7.2c0-.7-.4-1.1-1.1-1.1h-24.6c-1.1 0-1.7.9-1.6 2.3l.4 7.2c0 .4.3 1 1.1 1.2l4.2.3v89.6l-4.4.3c-1 0-1.4 1-1.3 2.3l.4 7.2c0 .7.4 1.1 1.1 1.1h24.6c1.1 0 1.7-.9 1.6-2.3l-.4-7.2c0-.4-.3-1-1.1-1.2l-4.2-.3V64.5l4.4-.3"/><path id="path48" class="st0" d="M3015.2 93.7l-18.7 53h-.1l-17.7-53h36.5zm31.4-29.5c1 0 1.4-1 1.3-2.3l-.4-7.2c0-.7-.4-1.1-1-1.1h-25.1c-1.1 0-1.7.9-1.6 2.3l.4 7.2c0 .4.3 1 1.1 1.2l4 .3-5.6 15.9h-45.5l-5.3-15.9 4.4-.3c1 0 1.4-1 1.3-2.3l-.4-7.2c0-.7-.4-1.1-1.1-1.1h-24.3c-1.1 0-1.7.9-1.6 2.3l.4 7.2c0 .4.3 1 1.1 1.2l4 .3 32.2 89.6-4.3.3c-1 0-1.4 1-1.3 2.3l.4 7.2c0 .7.4 1.1 1.1 1.1h22.8l38.5-100.5 4.5-.5"/><path id="path50" class="st0" d="M799.2 305.1C723.4 180.8 591.5 106.6 446 106.6S168.6 180.8 92.8 305l-79.5-73.5c44.4-66.4 103.8-122.2 173-162.2C264.9 24 354.7 0 446 0s181 24 259.7 69.4c67.2 38.8 127.2 100 171.2 163.9l-77.7 71.8"/><path id="path52" class="st1" d="M101.6 986h688.7v26.2H101.6V986z"/><path id="path54" class="st0" d="M790.3 736.5C789 659.7 807 354.9 446 141.7c-361.1 213.2-343 518-344.3 594.8V986h688.7l-.1-249.5"/><path id="path56" class="st1" d="M147.1 468.8C190.9 361.6 276.8 241.6 446 141.7c169.2 99.9 255.1 219.9 298.8 327.1L446 745.2 147.1 468.8"/><path id="path58" class="st2" d="M389.9 917.8V785c-35.7 13.1-78.6 2.7-101.4-14.1v131.6c19.9 19.5 67.2 28.2 101.4 15.3"/><path id="path60" class="st2" d="M177.1 917.5V784.7c35.6 13.1 78.6 2.7 101.4-14.1v131.6c-19.9 19.4-67.2 28.2-101.4 15.3"/><path id="path62" class="st2" d="M420.4 812.2h-.3c-5.1.5-9 .8-11.6 1v43.3c2.6-.2 6.4-.4 11.3-1h.6c10.2-.5 11.6 4.7 11.6 4.7-2.3 5.4-7.4 7.8-11.6 8.1h-.3c-5.1.5-9 .8-11.6 1V906h-9V772.5c-49.1 10.5-86.1 5.1-116-16.8-29.8 21.9-66.9 27.3-116 16.8V906h-9v-36.6c-1.9-.1-4.4-.3-7.6-.6v1.4c0 1-.8 1.8-2 1.8l-12.2-1.3c-1-.1-1.8-.9-1.8-1.9v-15.7c0-1 .8-1.8 2.1-1.8l12.2 1.2c.9.1 1.7.9 1.7 1.9v1.5c3.2.3 5.7.5 7.6.6v-43.3c-1.9-.1-4.4-.3-7.6-.6v1.4c0 1-.8 1.8-2 1.8l-12.2-1.3c-1-.1-1.8-.9-1.8-1.9V797c0-1 .8-1.9 2.1-1.8l12.2 1.2c.9.1 1.7.9 1.7 1.8v1.5c3.2.3 5.7.5 7.6.6v-39.1l5.5 1.3c50.5 11.8 87.6 6.7 116.7-16l2.8-2.2 2.8 2.2c29.1 22.7 66.2 27.8 116.7 16l5.5-1.3v39.1c2.6-.2 6.4-.4 11.3-1h.6c10.2-.5 11.6 4.7 11.6 4.7-2.3 5.4-7.4 7.8-11.6 8.2"/><path id="path64" class="st2" d="M165.7 131.1c-4.8-6.2-12.9-7.2-21.6-.5-4.7 3.6-7.6 7.4-9.4 10.6l4.6 6c.3.4.9.4 1.4-.1l2.8-2.5c.2-.1.4-.4.2-.8l-2-2.8c1.9-2.3 4-4.4 5.6-5.7 4.5-3.5 9.2-4.7 12.4-.6 3.4 4.4 2.4 6.6-3.1 15.2-3.9 6.4-5.6 12.1-1.3 17.6 4.8 6.2 12.7 6.7 21 .2 3.1-2.4 5.8-4.9 8-7.8l-5-6.5c-.3-.4-.9-.4-1.4.1l-2.8 2.5c-.2.2-.4.4-.2.8l2 2.8c-1.2 1.2-2.5 2.3-3.7 3.3-4.6 3.6-9.3 3.8-11.9.3-2.8-3.6-1.7-6.5 3.2-14.1 5.1-7.8 5-13.1 1.2-18"/><path id="path66" class="st2" d="M213.7 94.7c.3-.2.3-.4.2-.7l-3.9-6.6-26.1 15.4c-.4.3-.5.7-.1 1.2l1.8 2.6c.1.2.3.3.7.2l1.6-.8 19.8 33.6-1.6 1.1c-.4.2-.3.7 0 1.1l1.8 2.6c.2.3.4.3.7.2l25.2-14.9-3.9-6.6c-.3-.4-.7-.5-1.2-.1l-2.6 1.8c-.2.1-.3.3-.2.7l.8 1.6-13.4 7.9-7.5-12.8 15.2-9-2.9-5-15.2 8.9-8.3-14.1 14.3-8.4 1.1 1.6c.2.4.7.3 1.1 0l2.6-1.5"/><path id="path68" class="st2" d="M268.4 69.2c.3-.1.4-.4.3-.7l-3-7-27.8 12c-.5.2-.5.6-.2 1.2l1.4 2.8c.1.2.3.4.7.3l1.7-.6L257 113l-1.7.9c-.4.2-.4.6-.1 1.1l1.4 2.8c.1.3.4.4.7.3l26.9-11.6-3-7c-.2-.5-.6-.5-1.2-.2l-2.8 1.4c-.2.1-.4.3-.3.7l.6 1.7-14.3 6.2-6.2-13.7 16.2-7-2.3-5.3-16.2 7-6.5-15 15.3-6.6.9 1.7c.2.4.6.4 1.1.1l2.9-1.3"/><path id="path70" class="st2" d="M342.5 88.1c.5-.1.6-.6.4-1.1l-1-3c-.1-.2-.2-.4-.6-.3l-1.8.4-19.6-11.6 8.6-25.8 1.8-.6c.4-.1.5-.6.3-1.1l-1-3c-.1-.3-.3-.4-.6-.3l-6.4 1.8-8.5 25.5-5.4-3.2-3.7-12.6 1.8-.6c.4-.1.5-.6.3-1.1l-1-3c-.1-.3-.3-.4-.6-.3L295.2 51c-.5.1-.6.6-.4 1.1l1 3c.1.2.2.4.6.3l1.8-.4 10.6 37.5-1.8.6c-.4.1-.5.6-.3 1.1l1 3c.1.3.3.4.6.3l10.3-2.9c.5-.1.6-.6.4-1.2l-1-3c-.1-.2-.2-.4-.6-.3l-1.8.4-4.7-16.8L331.4 86l-1.8.6c-.4.1-.5.6-.3 1.1l1 3c.1.3.3.4.6.3l11.6-2.9"/><path id="path72" class="st2" d="M452.6 75.3c.5 0 .7-.4.6-1l-.4-3.1c0-.2-.1-.4-.5-.5h-1.8l-12.7-41c-.5-1.4-1.6-2.1-3-2l-4.9.4c-.7 0-.9.5-1.1 1.2l-6.6 37h-.1l-10.2-34.5c-.4-1.2-1.3-2.9-3.5-2.8l-4.7.4c-.6 0-.9.4-1.1 1.2l-8 42.9-1.9.2c-.4 0-.6.5-.5 1l.4 3.1c0 .3.2.5.5.5l10.3-.5c.5 0 .7-.4.6-1l-.4-3.1c0-.2-.1-.4-.5-.5h-1.8l6.1-36.8h.1l10.9 37.8c.6 2.2 1.7 2.9 3.2 2.7l3.6-.4c.6-.1.9-.4 1-1.2l7-40.2h.1l10.3 36-1.9.2c-.4 0-.6.5-.5 1l.3 3.1c0 .3.2.5.5.5l10.6-.6"/><path id="path74" class="st2" d="M491.8 34.5c.4 0 .7-.4.6-1l.1-3.1c0-.3-.1-.5-.5-.5l-10.6-.9c-.5 0-.8.3-.8.9l-.1 3.1c0 .2.1.5.5.5l1.8.3-3.3 38.9h-1.9c-.4 0-.7.4-.6.9l-.1 3.1c0 .3.1.5.5.5l10.6.9c.5 0 .8-.3.8-.9l.1-3.1c0-.2-.1-.4-.5-.5l-1.8-.3 3.3-38.9 1.9.1"/><path id="path76" class="st2" d="M550.8 52.5c1.5-7.7-3.1-14.5-13.9-16.5-5.8-1.1-10.6-.8-14.2 0l-1.4 7.4c-.1.6.3.9 1 1l3.7.5c.2 0 .6 0 .7-.4l.8-3.3c3-.1 6 .1 7.9.4 5.6 1.1 9.6 3.8 8.6 8.9-1 5.5-3.3 6.2-13.5 7.7-7.4 1.3-12.8 3.8-14.1 10.7-1.5 7.7 3.4 13.9 13.7 15.9 3.8.7 7.5 1.1 11.1.9l1.6-8c.1-.6-.3-.9-1-1l-3.7-.5c-.2 0-.6 0-.7.4l-.8 3.3c-1.7-.1-3.4-.3-4.9-.6-5.7-1.1-8.9-4.5-8.1-8.7.8-4.4 3.7-5.5 12.7-6.9 9.4-1.4 13.3-5 14.5-11.2"/><path id="path78" class="st2" d="M596.7 57.5c12.6 4.2 12.6 13.8 9.4 23.3-3.5 10.4-8.3 16.5-21.9 11.9L579 91l11.9-35.4 5.8 1.9zM582.4 98c18.4 6.2 26.1-1 30.8-14.9 5.8-17.2-.5-26.1-16.4-31.4l-12.6-4.2c-.5-.2-.8.1-1 .7l-.8 3c-.1.2 0 .5.3.6l1.7.7-12.4 37-1.9-.5c-.4-.1-.7.2-.9.8l-.8 3c-.1.3 0 .5.3.6l13.7 4.6"/><path id="path80" class="st2" d="M643.5 96.1c3.7-7.3 10.1-16 19.3-11.4 7.6 3.8 7.6 11.9 2.4 22.3-3.8 7.5-10.2 15.8-19.2 11.3-9.2-4.7-6.2-15-2.5-22.2zm28.3 14.1c7.4-14.8 4.5-25.2-6.5-30.7-10.8-5.4-21.2-1.4-28.5 13.2-5.3 10.5-7.1 24 6.5 30.8 11.8 5.8 22-.3 28.5-13.3"/><path id="path82" class="st2" d="M747.1 136.6c.4.3.8 0 1-.5l1.7-2.7c.2-.3.1-.5-.1-.7l-8.6-6.1c-.4-.3-.8-.1-1.1.4l-1.7 2.7c-.1.2-.2.4.1.7l1.4 1.1-17.9 24 6.5-30.1c.2-1 .2-2.1-.5-2.6-.6-.4-1.4-1-2-1.3-.6-.4-1-.4-1.5-.1l-27.2 16.5 16.6-24.8 1.7 1c.4.3.8 0 1-.5l1.7-2.7c.2-.3.1-.5-.1-.7l-8.4-5.9c-.4-.3-.8-.1-1.1.4l-1.7 2.7c-.1.2-.1.4.1.7l1.4 1.2-21.5 32.6-1.6-1c-.4-.3-.8 0-1 .5l-1.7 2.7c-.2.3-.1.5.1.7l6.1 4.3c.3.2.5.1.8 0l32.1-19.2-7.9 36c-.1.6 0 .9.5 1.3l6.4 4.5c.4.3.8.1 1.1-.4l1.7-2.7c.1-.2.2-.4-.1-.7l-1.4-1.1 23.7-31 1.4.8"/><path id="path84" class="st0" d="M32.8 267.5l50.6 46.8 11.5 10.8 6.4-10.6c11-18.3 23.4-35.5 36.7-51.5l17.2 15.6A364.08 364.08 0 0 0 99 372.5c-5.3 12.9-9.7 26-13.4 39.4l-27.5-70.7L0 333c.1-.2.2-.5.3-.7l32.5-64.8"/><path id="path86" class="st2" d="M715.2 917.8V785c-35.6 13.1-78.6 2.7-101.4-14.1v131.6c20 19.5 67.2 28.2 101.4 15.3"/><path id="path88" class="st2" d="M502.5 917.5V784.7c35.6 13.1 78.6 2.7 101.4-14.1v131.6c-20 19.4-67.2 28.2-101.4 15.3"/><path id="path90" class="st2" d="M745.8 812.2h-.3c-5.1.5-9 .8-11.6 1v43.3c2.6-.2 6.4-.4 11.3-1h.6c10.2-.5 11.6 4.7 11.6 4.7-2.3 5.4-7.4 7.8-11.6 8.1h-.3c-5.1.5-9 .8-11.6 1V906h-9V772.5c-49.1 10.5-86.1 5.1-116-16.8-29.8 21.9-66.9 27.3-116 16.8V906h-9v-36.6c-1.9-.1-4.4-.3-7.6-.6v1.4c0 1-.8 1.8-2 1.8l-12.2-1.3c-1-.1-1.8-.9-1.8-1.9v-15.7c0-1 .8-1.8 2.1-1.8l12.2 1.2c.9.1 1.7.9 1.7 1.9v1.5c3.2.3 5.7.5 7.6.6v-43.3c-1.9-.1-4.4-.3-7.6-.6v1.4c0 1-.8 1.8-2 1.8l-12.2-1.3c-1-.1-1.8-.9-1.8-1.9V797c0-1 .8-1.9 2.1-1.8l12.2 1.2c.9.1 1.7.9 1.7 1.8v1.5c3.2.3 5.7.5 7.6.6v-39.1l5.5 1.3c50.5 11.8 87.6 6.7 116.7-16l2.8-2.2 2.8 2.2c29.1 22.7 66.2 27.8 116.7 16l5.5-1.3v39.1c2.6-.2 6.4-.4 11.3-1h.6c10.2-.5 11.6 4.7 11.6 4.7-2.4 5.4-7.5 7.8-11.6 8.2"/><path id="path92" class="st0" d="M858.7 267.5l-50.6 46.8-11.5 10.8-6.4-10.6c-11-18.3-23.4-35.5-36.7-51.5l-17.2 15.6c23.3 28.1 42.3 59.7 56.2 93.9 5.3 12.9 9.7 26 13.4 39.4l27.5-70.7 58.1-8.1c-.1-.2-.2-.5-.3-.7l-32.5-64.9"/><path id="path94" class="st2" d="M463.5 362.7c20.3-10.2 37.8-15.2 48.3-14.5h1.4c3.6.3 8.2 1.3 11.7 3.4 3.2 1.9 5.3 3.9 7.1 6.5 2.1 3.1 3 5.7 3.2 8.9-1.3-.5-2.6-.9-3.8-1.2-.3-.1-1.1-.2-1.5-.3-11.8-1.8-26.6-.2-47 5.3-3.3-3.7-10.2-5.8-17.5-4.1-.7-1.3-1.3-2.6-1.9-4"/><path id="path96" class="st2" d="M492.4 474.3c-.5-1.3-1.1-2.5-1.8-3.8-3-5.3-7.2-9.2-11.4-11.2 0-1.3.1-2.7.1-4 8.7 3.8 17.6 8.2 26.5 12.9 32.8 17.6 55.9 37.1 63.1 51 .2.3.6 1.1.8 1.5 2 3.8 3.7 9 3.7 13.8 0 8-3.4 15.1-8.6 18.8-6.8-15.8-19.2-33.6-36.2-50.3-11.6-11.4-24-21.1-36.2-28.7"/><path id="path98" class="st2" d="M487.9 391.5c-2.9-3.2-7.9-6.1-13.7-6.6-1.2-.1-2.3-.2-3.4-.1-.3-1.2-.7-2.4-1.1-3.5 29.5-8.2 54.1-10 66.7-6 .3.1 1.1.3 1.4.4 3.6 1.2 8.1 3.4 11.1 6.4 2.7 2.8 4.4 5.3 5.6 8.5 1.3 3.6.9 6.7.9 6.7-1.2-.9-7.4-2.8-7.4-2.8-11.5-4.2-31.2-5.1-60.1-3"/><path id="path100" class="st2" d="M571.1 468c-10.9-12-38.9-25.3-76.1-34.2-2.4-3.8-6.8-7.3-12.4-9.4-1.6-.6-3.2-1-4.8-1.3-.1-1.3-.3-2.4-.4-3.7 2.9.1 5.9.2 8.8.4 37.2 2.1 66.4 10 78.8 19.6.3.2 1 .8 1.3 1 3.3 2.6 7.2 6.6 9.2 10.9 1.8 3.9 2.5 7.2 2.6 10.9 0 4.3-.8 7.4-2.7 10.7-1-1.3-2-2.6-2.9-3.7-.4-.2-1.1-.9-1.4-1.2"/><path id="path102" class="st2" d="M506.7 338.6c-11.7.3-28.6 5.6-48.2 15.4-.9-1.5-1.8-3-2.8-4.4 15.1-7.9 28.8-13.3 39.9-15.9-.5-.6-1.1-1.2-1.8-1.8-2.3-2.2-4.8-3.6-8.3-4.8-3.8-1.3-8.6-1.2-12.2-.6-.3 0-1.1.2-1.4.3-6.6 1.1-15.4 5-25.4 11.4-1.2-1.2-2.4-2.3-3.5-3.4 10.4-6.9 19.7-11.5 27.1-13.3-1.9-1.5-3.8-2.4-6.6-3.2-3.2-.9-7.1-.6-10.1 0-.3 0-.9.2-1.1.3-5.1 1.1-11.6 4.4-19 9.5-1.7-.8-3.4-1.6-5-2.2-3.2-.9-7.6-1.8-10.9-1.8-9.8 0-19.2 4.5-27.5 12.5-.3.3-2.8-2.2-2.4-2.5 8.2-9 19-14.1 29.7-14.1 3.5 0 11.9 1.2 15 3.1 8.8-6.1 15.9-9 21.8-10 .3 0 1-.2 1.3-.2 3.2-.5 7.5-.6 11 .6 3.2 1 5.4 2.4 7.5 4.3.9.8 1.7 1.7 2.3 2.5 3.7-.4 8.2-.3 11.9.9 3.9 1.3 6.6 2.9 9.2 5.3 2.1 2 4.2 3.8 5.2 5.9 5.8-.2 10.3.7 10.3.7 2.2.3 4.7 1.1 6.7 2.9 1.5 1.3 2.5 2.6 3.1 4.2-4.6-1.3-9.6-1.8-13.7-1.7-.4 0-1.6.1-2.1.1"/><path id="path104" class="st2" d="M525.5 469.9c-9.4-5.7-18.9-10.7-28.4-14.7-1.1-1.8-2.4-3.7-4-5.4-4.2-4.7-9.3-7.7-14-8.8-.1-1.3-.1-2.7-.2-4 5.4 1.2 11 2.6 16.5 4.1 35.9 9.8 62.8 23.6 73 35.6.2.3.9.9 1.1 1.2 2.7 3.2 5.7 8 6.7 12.6 1.8 7.8.4 14.1-3.8 18.9-10.1-13.8-26.6-27-46.9-39.5"/><path id="path106" class="st2" d="M568.3 433.7c-.3-.3-1.2-.9-1.5-1.1-11.9-9.2-38.3-16.6-72.6-19.5-2.3-2.2-5.2-4.8-8.5-6.4-3.6-1.7-7.3-2.7-10.7-2.9-.2-1.3-.5-2.1-.8-3.4.2 0 .4 0 .7-.1 37-4.4 67.1-1.7 81 5.6.3.2 1.2.6 1.5.7 3.8 2 8.2 5.3 11 9.2 2.5 3.5 3.8 6.7 4.4 10.3.7 4.2.5 7.1-.8 10.7-1.3-1.2-2.6-2.2-3.7-3.1"/><path id="path108" class="st2" d="M493.2 503.9c0-4.4-1.4-9.5-4.1-14.3-3-5.2-7.1-9.1-11.2-11.2.1-1.4.3-2.8.4-4.2 14.7 8.1 29.9 19.3 43.9 33 16.7 16.4 28.8 33.7 35.4 49.2 1.8 4.2 2.7 9.4 2.4 14.9-.8 11.2-6.6 20.5-14.1 23.5.1-2.1 0-4.4-.3-6.6-1.6-15.6-16.1-42.3-40.2-70.6-4-4.7-8-9.3-12.2-13.7"/><path id="path110" class="st2" d="M499.2 521.4c23.8 28.6 37.9 55.5 39.4 71.1 1.2 9.8-1.3 18.8-6.8 22-.4-13.9-19.3-47.8-49.2-85.7 2.8-5.3 1.5-14.1-3-21.9-1.5-2.6-2.4-3.5-5.1-6.2.4-1.7.7-3.5 1-5.2 7.9 7.8 16 16.7 23.7 25.9"/><path id="path112" class="st3" d="M310.5 505.2c-.7.3-1.5.5-2.2.8.3-3.3.3-6.9.3-10.6-.1-9.2-1.3-17.9-3.1-25.1-.5-1.9.4-3.8 2-4.4.5-.2 1.1-.3 1.6-.2v.1c2.9 6.7 6.7 14.1 11.3 21.6.8 1.4 1.7 2.8 2.5 4.1-1.5 5.8-5.9 11.1-12.4 13.7"/><path id="path114" class="st3" d="M566.3 440.4c-.3-.2-1-.7-1.3-1-12.4-9.6-41.6-17.5-78.8-19.6-2.9-.2-5.9-.3-8.8-.4.1 1.2.3 2.4.4 3.7 1.6.3 3.2.7 4.8 1.3 5.6 2 10 5.6 12.4 9.4 37.2 8.9 65.2 22.2 76.1 34.2.3.3.9 1 1.2 1.3 1 1.1 2 2.3 2.9 3.7 1.9-3.2 2.8-6.4 2.7-10.7 0-3.7-.8-7-2.6-10.9-1.8-4.3-5.7-8.4-9-11zm3.3 80.3c-.2-.3-.6-1.1-.8-1.5-7.2-13.9-30.3-33.5-63.1-51-8.8-4.8-17.7-9.1-26.5-12.9 0 1.4 0 2.7-.1 4 4.2 2.1 8.4 6 11.4 11.2.7 1.3 1.3 2.5 1.8 3.8 12.3 7.6 24.6 17.3 36.2 28.6 17 16.7 29.4 34.5 36.2 50.3 5.1-3.8 8.6-10.8 8.6-18.8 0-4.7-1.7-10-3.7-13.7zm6.6-30.2c-1.1-4.6-4-9.3-6.7-12.6-.2-.3-.8-1-1.1-1.2-10.1-11.9-37.1-25.8-73-35.6-5.5-1.5-11-2.9-16.5-4.1.1 1.3.1 2.6.2 4 4.7 1.1 9.8 4.1 14 8.8 1.6 1.7 2.9 3.6 4 5.4 9.5 4 19 8.9 28.4 14.7 20.3 12.5 36.8 25.7 47 39.5 4.1-4.8 5.5-11 3.7-18.9zm-30.3 104.3c7.4-3.1 13.3-12.4 14.1-23.5.4-5.5-.5-10.6-2.4-14.9-6.6-15.4-18.8-32.8-35.4-49.2-13.9-13.7-29.2-24.9-43.9-33-.1 1.4-.3 2.8-.4 4.2 4.2 2.1 8.2 6 11.2 11.2 2.8 4.8 4.2 9.9 4.1 14.3 4.1 4.4 8.2 9 12.2 13.7 24.2 28.3 38.6 55 40.2 70.6.3 2.2.4 4.4.3 6.6zm-7.3-2.3c-1.4-15.6-15.5-42.5-39.4-71.1-7.7-9.3-15.8-18.1-23.8-26-.3 1.7-.6 3.5-1 5.2 2.7 2.7 3.6 3.6 5.1 6.2 4.6 7.8 5.8 16.6 3 21.9 29.9 37.9 48.8 71.8 49.2 85.7 5.6-3.1 8.1-12.1 6.9-21.9zm-25.4-244.2h-1.4c-10.5-.7-28 4.4-48.3 14.5.6 1.3 1.3 2.6 1.9 4 7.3-1.7 14.2.3 17.5 4.1 20.4-5.5 35.2-7.1 47-5.3.3.1 1.1.2 1.5.3 1.2.3 2.5.7 3.8 1.2-.2-3.2-1.1-5.8-3.2-8.9-1.8-2.6-3.9-4.6-7.1-6.5-3.5-2.2-8.1-3.2-11.7-3.4zm-.5-15.2s-4.5-1-10.3-.7c-1-2.2-3-4-5.2-5.9-2.6-2.4-5.3-4-9.2-5.3-3.7-1.2-8.2-1.3-11.9-.9-.6-.8-1.5-1.7-2.3-2.5-2.1-2-4.4-3.3-7.5-4.3-3.5-1.1-7.8-1.1-11-.6-.3 0-1 .2-1.3.2-5.8 1-13 3.9-21.8 10-3.1-1.9-11.5-3.1-15-3.1-10.7 0-21.4 5.1-29.7 14.1-.3.3 2.1 2.8 2.4 2.5 8.3-8 17.6-12.5 27.5-12.5 3.3 0 7.8.9 10.9 1.8 1.7.6 3.4 1.3 5 2.2 7.4-5.1 13.9-8.4 19-9.5.3 0 .9-.2 1.1-.3 2.9-.6 6.8-.9 10.1 0 2.7.8 4.6 1.7 6.6 3.2-7.3 1.9-16.7 6.4-27.1 13.3 1.2 1.1 2.4 2.2 3.5 3.4 10-6.4 18.8-10.3 25.4-11.4.3-.1 1.1-.2 1.4-.3 3.6-.6 8.3-.7 12.2.6 3.5 1.2 6 2.6 8.3 4.8.7.6 1.2 1.2 1.8 1.8-11.2 2.6-24.8 8-39.9 15.9 1 1.4 1.9 2.9 2.8 4.4 19.7-9.8 36.5-15.1 48.2-15.4.5 0 1.7-.1 2.2-.1 4.1-.1 9.1.4 13.7 1.7-.6-1.6-1.6-2.8-3.1-4.2-2.2-1.8-4.6-2.5-6.8-2.9zm41.8 57.5c-1.2-3.2-2.8-5.7-5.6-8.5-3-3-7.5-5.2-11.1-6.4-.3-.1-1.1-.3-1.4-.4-12.6-4-37.2-2.3-66.7 6 .4 1.2.8 2.3 1.1 3.5 1.1 0 2.2 0 3.4.1 5.9.5 10.9 3.4 13.7 6.6 28.8-2.1 48.6-1.3 60.1 3 0 0 6.1 2 7.4 2.8 0 0 .5-3.1-.9-6.7zm18.2 35.5c-.7-3.6-2-6.8-4.4-10.3-2.7-3.9-7.2-7.2-11-9.2-.3-.2-1.1-.5-1.5-.7-13.8-7.3-44-10-81-5.6-.2 0-.4 0-.7.1.3 1.3.5 2.1.8 3.4 3.4.3 7.1 1.3 10.7 2.9 3.3 1.6 6.2 4.2 8.5 6.4 34.2 2.9 60.7 10.3 72.6 19.5.3.2 1.2.9 1.5 1.1 1.2.9 2.4 1.9 3.6 3 1.4-3.5 1.6-6.4.9-10.6zm15.1 36.9c-.4 5.8-2.2 11.2-5 15.6 3.5 5.1 5.3 11.6 5 18.9-.2 7.9-3.1 15.2-7.5 20.6 2.8 5 4.3 11 4.1 17.7-.4 11.9-6.1 22.2-14.4 27.6.3 2.3.4 4.5.3 6.9-.5 17.8-8.2 29.1-20.6 33.9-2.6 12.8-11.2 24.6-18.9 30.4-9.3-39.7-38.8-77.8-49.4-92.8-17.1-24.2-21.1-47.3-30.6-75-11.2-32.8-19.1-67.6-49.1-88.3 0 3.3.2 6.6.6 10.1 4.9 44.7 41 117.4 28 159.8-.8 2.6-1.7 5.1-2.8 7.5-12.9 29.1-42.1 33.6-72.1 20.1-18.7-8.4-38.1-15.5-47-35.9-3.6-8.2-4.9-16.6-4-23.8.2-1.6 1-2.9 2.4-3.4 1.9-.6 4 .5 5.1 2.5.8 1.4 1.4 3.4 1.5 5.6v.3c0 .5.1 1 .3 1.5.9 2.3 3.4 3.5 5.6 2.6 2.1-.9 3.1-3.5 2.2-5.8-.2-.4-.4-.8-.6-1.1-.5-.7-1.1-1.6-1.6-2.5-1.1-2.1-1.8-4.1-2.1-5.8-.3-2.4 1-4.8 3.3-5.8l.6-.3c8.5-3.5 18.6 1 24.6 9.9 2.2 3.4 4.3 7.2 6.2 11.3 3 6.4 2.8 13 7.7 18.7 8.2 9.5 32.1 15.8 42.5 3.1 20.2-24.5-2.3-56.3-16.3-77.2-17.7-26.3-42.2-56.4-54.6-86-32.3-77.4 22.8-153.3 111.7-153.3 56.4 0 91.7 24.6 111.7 54-38.6 3-59.5 27.9-59.5 27.9s7.7.8 12.7 9.2c0 0 3.6.4 6.8.8 7.8 1 14.9 5 17.9 13.7 2.5 7.3 2.7 11.9 2.7 11.9s5.2 2.2 8.2 9.2c1.7 4 2.2 5.9 2.2 10 8.9 3 15.7 10.7 19.5 20.4 2 5.2 2.4 7.6 1.9 12.6 10 5 17.6 19.3 17.2 30.9-.1 3.9-1.1 7.5-2.6 10.9 4.5 5.2 6.8 12.5 6.2 20.9"/><path id="path116" class="st0" d="M538.9 855.6h-19.4v31h19c.2-.5.3-1.5.3-2.8 0-1-.1-1.9-.3-2.8H526v-6.7h10.5c.2-.5.3-1.4.3-2.7 0-1-.1-1.8-.3-2.8H526v-7.6h12.8c.2-.5.3-1.5.3-2.8.1-1 0-1.9-.2-2.8"/><path id="path118" class="st0" d="M553.5 881.4c-1 0-2.2 0-3-.1v-9.2h2.3c3.8 0 5.4 1.4 5.4 4.8s-1.7 4.5-4.7 4.5zm13.2-25.8c-1.2-.2-2.4-.3-3.9-.3-1.3 0-2.6 0-3.4.2l-6.3 11.1h-2.7v-11.1c-1.1-.2-2.1-.2-3.3-.2-1.1 0-2.1 0-3.2.2v31c2.1.1 6.5.2 9.2.2 7.8 0 11.7-2.8 11.7-9.9 0-3.8-2.3-7.6-5.5-9l7.4-12.2"/><path id="path120" class="st0" d="M589.4 855.6H570v31h19c.2-.5.3-1.5.3-2.8 0-1-.1-1.9-.3-2.8h-12.4v-6.7H587c.2-.5.3-1.4.3-2.7 0-1-.1-1.8-.3-2.8h-10.5v-7.6h12.8c.2-.5.3-1.5.3-2.8.1-1 0-1.9-.2-2.8"/><path id="path122" class="st0" d="M529.1 838.6c-.9 0-2.1 0-3-.1v-9.1h2.8c3.5 0 5.4.9 5.4 4.7 0 3.2-1.6 4.5-5.2 4.5zm.1-14.7H526v-11.1c-.9-.1-1.9-.2-3.3-.2-1.2 0-2.4.1-3.3.2v30.9c2.7.1 6.7.3 9.3.3 7 0 12.1-2.4 12.1-9.7.1-7.1-4.4-10.4-11.6-10.4"/><path id="path124" class="st0" d="M564.3 812.8h-19.4v31h19c.2-.5.3-1.5.3-2.8 0-1-.1-1.9-.3-2.8h-12.4v-6.7H562c.2-.5.3-1.4.3-2.7 0-1-.1-1.8-.3-2.8h-10.5v-7.6h12.8c.2-.5.3-1.5.3-2.8 0-.9-.1-1.8-.3-2.8"/><path id="path126" class="st0" d="M578.4 838.7c-1 0-2.2-.1-3-.1v-9.2h2.3c3.8 0 5.4 1.4 5.4 4.8s-1.7 4.5-4.7 4.5zm13.3-25.8c-1.2-.2-2.4-.3-3.9-.3-1.3 0-2.6 0-3.4.2l-6.3 11.1h-2.7v-11.1c-1.1-.2-2.1-.2-3.3-.2-1.1 0-2.1 0-3.2.2v31c2.1.1 6.5.2 9.2.2 7.8 0 11.7-2.8 11.7-9.9 0-3.8-2.3-7.6-5.5-9l7.4-12.2"/><path id="path128" class="st0" d="M654.9 867.3l-2.7 8.8c-.3 1-.6 2.3-.9 3.7h-.1c-.2-1.4-.6-2.7-.9-3.7l-2.6-8.8h7.2zm10.9-11.7c-.6-.1-2-.2-3.5-.2-1.2 0-2.6.1-3.2.2l-2.3 6.3h-11l-2.2-6.3c-1-.1-2.2-.2-3.4-.2-1.2 0-2.6.1-3.3.2l10.8 31c.6.1 2.2.2 3.2.2 1.2 0 2.7-.1 3.2-.2l11.7-31"/><path id="path130" class="st0" d="M678.1 881.4c-1 0-2.2 0-3-.1v-9.2h2.3c3.8 0 5.4 1.4 5.4 4.8s-1.6 4.5-4.7 4.5zm13.3-25.8c-1.2-.2-2.4-.3-3.9-.3-1.3 0-2.6 0-3.4.2l-6.3 11.1h-2.7v-11.1c-1.1-.2-2.1-.2-3.3-.2-1.1 0-2.1 0-3.2.2v31c2.1.1 6.5.2 9.2.2 7.8 0 11.7-2.8 11.7-9.9 0-3.8-2.3-7.6-5.5-9l7.4-12.2"/><path id="path132" class="st0" d="M651.9 838.2h-8.2v-25.4c-.9-.1-2.1-.2-3.2-.2s-2.4.1-3.3.2v25.4H629c-.2.6-.3 2-.3 2.8 0 .8.2 2.2.4 2.8H652c.2-.6.3-2 .3-2.8-.1-.7-.2-2.2-.4-2.8"/><path id="path134" class="st0" d="M675.1 812.8h-19.4v31h19c.2-.5.3-1.5.3-2.8 0-1-.1-1.9-.3-2.8h-12.4v-6.7h10.5c.2-.5.3-1.4.3-2.7 0-1-.1-1.8-.3-2.8h-10.5v-7.6h12.8c.2-.5.3-1.5.3-2.8 0-.9-.1-1.8-.3-2.8"/><path id="path136" class="st0" d="M688.8 812.4c-3.4 0-7 .6-9.6 1.8-.1.6-.2 1.5-.2 2.2 0 1.1.1 2.2.5 3.4 2.7-1.1 6.3-1.8 9.1-1.8 3.3 0 5 1.5 5 3.6 0 2.3-1.5 3.3-5.9 4.6-5 1.5-8.6 3.9-8.6 9.2 0 5.7 4.9 8.8 11.4 8.8 3 0 5.6-.5 7.4-1.1.1-.5.2-1.3.2-2.5 0-.9-.1-2.2-.3-2.9-2.3.6-4.9.9-7 .9-3.4 0-5.3-1.1-5.3-3 0-2.2 1.7-3 5.8-4.3 4.9-1.6 8.6-3.9 8.6-9.4-.1-5.9-4.8-9.5-11.1-9.5"/><path id="path138" class="st0" d="M207.5 869.1c.7-1.9 1.4-4.1 1.7-5.9h.1c.3 1.8 1 4 1.7 5.9l3.4 9.8c.9 2.5 1.4 4.9 1.4 7.6.9.1 2.2.2 3.3.2 1 0 2.3-.1 3.2-.2 0-3.1-.6-6-1.8-9.3l-8.3-21.7c-.6-.1-1.8-.2-2.9-.2-1.2 0-2.2.1-3.1.2l-8.2 21.6c-1.2 3.3-1.8 6.3-1.8 9.4.8.1 1.9.2 3.3.2 1.1 0 2.4-.1 3.2-.2 0-2.8.5-5.1 1.4-7.6l3.4-9.8"/><path id="path140" class="st0" d="M232.8 855.6c-.9-.1-1.9-.2-3.3-.2-1.2 0-2.4.1-3.3.2v31c.9.1 2.2.2 3.3.2 1.3 0 2.4-.1 3.3-.2v-31"/><path id="path142" class="st0" d="M259.9 880.9h-8.2v-25.4c-.9-.1-2.1-.2-3.3-.2-1.1 0-2.4.1-3.3.2v25.4H237c-.2.6-.3 2-.3 2.8 0 .8.2 2.2.4 2.8H260c.2-.6.3-2 .3-2.8 0-.7-.2-2.2-.4-2.8"/><path id="path144" class="st0" d="M211.7 824.6l-2.7 8.8c-.3 1-.6 2.3-.9 3.7h-.1c-.2-1.4-.6-2.7-.9-3.7l-2.6-8.8h7.2zm10.9-11.8c-.6-.1-2-.2-3.5-.2-1.2 0-2.6.1-3.2.2l-2.3 6.3h-11l-2.2-6.3c-1-.1-2.2-.2-3.4-.2-1.2 0-2.6.1-3.3.2l10.8 31c.6.1 2.2.2 3.2.2 1.2 0 2.7-.1 3.2-.2l11.7-31"/><path id="path146" class="st0" d="M257.6 812.8c-.6-.1-1.8-.2-3.1-.2-1.4 0-2.7.1-3.2.2l-.5 18.6-6.8-15.7c-.5-.2-1.6-.3-2.3-.3-.8 0-1.8.1-2.3.2l-6.8 15.7-.6-18.6c-.6-.1-2-.2-3.3-.2-.7 0-2 .1-2.8.2l1.3 31c.9.1 1.7.2 2.7.2 1.1 0 2.2-.1 2.7-.2l9.1-21 9.1 21c.9.1 1.8.2 2.7.2 1.1 0 2-.1 2.7-.2l1.4-30.9"/><path id="path148" class="st0" d="M324.5 855.6h-19.4v31h19c.2-.5.3-1.5.3-2.8 0-1-.1-1.9-.3-2.8h-12.4v-6.7h10.5c.2-.5.3-1.4.3-2.7 0-1-.1-1.8-.3-2.8h-10.5v-7.6h12.8c.2-.5.3-1.5.3-2.8 0-1-.1-1.9-.3-2.8"/><path id="path150" class="st0" d="M331.7 863.9l5.9 8-5.4 7.5c-1.7 2.4-2.8 4.6-3.2 7.2.7.1 2.2.2 3.2.2 1.1 0 2.5-.1 3.3-.2.2-2 1.4-3.7 2.6-5.4l3.2-4.7 3.3 4.6c1.1 1.6 2.2 3.5 2.3 5.5.8.1 2.2.2 3.3.2 1 0 2.4-.1 3.1-.2-.4-2.9-1.6-5.2-3.4-7.8l-4.9-6.7 5.9-8.2c2.1-2.8 3-5.6 3.2-8.3-.8-.1-2.1-.2-3.3-.2-1 0-2.3.1-3.2.2-.1 2-.8 3.9-2 5.7l-4.4 6.6-4.3-6.4c-1.1-1.7-1.7-3.8-1.7-5.8-.7-.1-2.3-.2-3.3-.2-1.1 0-2.4.1-3.2.2.1 2.6.7 5 3 8.2"/><path id="path152" class="st0" d="M377.3 880.1c-2.2.7-5 1.2-7.1 1.2-5.2 0-8.6-3.7-8.6-10.4 0-6.1 2.7-10.1 8.6-10.1 2.2 0 4.7.5 6.9 1.1.3-.8.5-2.1.5-3.1 0-.8 0-1.7-.1-2.2-2.3-1.1-5.2-1.6-7.9-1.6-9.9 0-14.7 6-14.7 15.7 0 9.4 5.2 16.2 15 16.2 2.4 0 5.5-.6 7.7-1.6.1-.5.2-1.5.2-2.1-.2-1.2-.4-2.6-.5-3.1"/><path id="path154" class="st0" d="M315.5 838.6c-3.9 0-6.2-3-6.2-10.3s2.2-10.3 6.2-10.3c3.9 0 6.2 3 6.2 10.3s-2.3 10.3-6.2 10.3zm0-26.2c-8.5 0-13 5.9-13 15.9 0 10.1 4.5 16 13 16s13-5.9 13-16c0-10-4.5-15.9-13-15.9"/><path id="path156" class="st0" d="M351.1 812.8h-19v31c.9.1 2.1.2 3.2.2 1.3 0 2.5-.1 3.3-.2v-25.4H351c.2-.5.3-1.5.3-2.8.2-.9.1-1.8-.2-2.8"/><path id="path158" class="st0" d="M377.2 824.6c0-7.9-3-12.2-11.8-12.2-8.9 0-11.7 4.4-11.7 12.2v19.2c.9.1 2.1.2 3.2.2 1.3 0 2.4-.1 3.4-.2v-19.7c0-4.2 1.2-6.6 5.2-6.6s5.4 2.4 5.4 6.6v19.7c.8.1 2.2.2 3.3.2 1 0 2.4-.1 3.2-.2v-19.2"/></g></g></svg>