<svg xmlns="http://www.w3.org/2000/svg" width="2500" height="2500" viewBox="0 0 192.756 192.756"><g fill-rule="evenodd" clip-rule="evenodd"><path fill="#fff" d="M0 0h192.756v192.756H0V0z"/><path d="M23.735 82.095s-6.608-15.016-.839-31.648c0 0 4.806-17.513 22.614-26.569 0 0 23.875-13.872 48.245 3.449l-70.02 54.768zM24.631 84.106l72.73-49.96 18.568-14.494s3.664-1.466 12.564-1.549L95.719 36.391 27.945 90.262s-2.804-3.59-3.314-6.156zM28.958 91.957L97.471 44.12l33.416-25.883s4.287-.052 9.4 1.357L99.006 44.931l-66.274 51.69s-1.538-1.23-3.774-4.664zM34.23 98.306l62.581-43.221 45.171-34.983s1.291-.117 6.902 2.628L96.626 56.612l-58.244 45.424s-2.201-1.523-4.152-3.73zM40.083 103.465l57.013-39.302 53.268-40.725s.299-.129 5.322 3.357L99.67 63.626l-54.952 42.689-4.635-2.85zM47.035 107.439L98.01 74.05l58.867-46.105s2.064 1.296 4.686 4.233L99.951 73.33l-46.849 36.58c0-.001-4.192-1.309-6.067-2.471zM55.618 110.649l42.576-26.802 64.426-50.266s2.287 2.399 3.707 4.889L98.248 84.837l-33.997 27.244s-1.987.744-8.633-1.432zM170.172 45.401L99.529 93.822l-22.73 17.279s-2.162.647-9.13 1.045l28.892-17.063 70.917-55.151 2.694 5.469zM100.52 102.541l70.482-55.543s7.311 18.176.107 34.748c0 0-8.162 22.992-31.895 28.517.001-.001-20.152 6.25-38.694-7.722z" fill="#cc2229"/><path d="M45.6 142.117c-.878-.173-.685-1.337-.685-1.337l-.006-5.571H28.567c-5.065-.671-10.38 6.464-10.38 6.464l-.006-6.91H8.513l-.009 31.418h9.661l.022-6.906c2.535 4.008 10.135 6.688 10.135 6.688h16.801l.016-6.241c3.224 5.124 11.978 6.241 11.978 6.241h19.341l-.007-7.578h-19.72c-2.678-.32-3.23-3.117-3.23-3.117h22.958l.008-8.249H53.654c.956-3.438 3.233-3.339 3.233-3.339h19.58v-8.692H58.039c-8.555.123-12.439 7.129-12.439 7.129zm-1.383 15.82h-14.05c-6.306-.985-5.989-7.352-5.989-7.352-.231-5.569 6.235-6.685 6.235-6.685h14.035c-3.915 7.131-.231 14.037-.231 14.037zM184.25 150.337c-.699-13.391-13.969-14.63-13.969-14.63h-13.738c-6.521 1.444-9.547 6.184-9.547 6.184l-.008-6.801h-23.516c-7.914 1.649-11.633 10.508-11.633 10.508-5.355-11.332-14.707-10.921-14.707-10.921H79.709l-.008 8.246h17.463c5.121.205 5.828 6.386 5.828 6.386-.211 5.889-5.145 7.213-5.145 7.213H79.244v18.133h9.201l-.106-8.036.023-2.887c4.733 1.66 12.768-.203 12.768-.203 6.521-.826 10.711-9.89 10.711-9.89 4.656 10.302 15.6 11.124 15.6 11.124h19.301l.023-6.182c4.656 5.564 10.576 5.977 10.576 5.977H171.7c13.06-1.945 12.55-14.221 12.55-14.221zm-38.229 8.047h-19.18c-7.523-.225-6.314-7.577-6.314-7.577.244-6.906 6.557-6.685 6.557-6.685h19.656c-4.496 6.364-.719 14.262-.719 14.262zm31.735-5.985a5.348 5.348 0 0 1-5.346 5.346h-12.033a5.348 5.348 0 0 1-5.348-5.346v-3.567a5.346 5.346 0 0 1 5.348-5.345h12.033a5.346 5.346 0 0 1 5.346 5.345v3.567z" fill="#33348e"/></g></svg>