<svg height="1491" viewBox="13.31 13.85 368.99 225.99" width="2500" xmlns="http://www.w3.org/2000/svg"><path d="m77.92 198.45c1 1.72 2.61 1.72 3.6 0l16.42-28.42c1-1.72.18-3.12-1.8-3.12h-32.8c-2 0-2.79 1.4-1.8 3.12zm3.62-66.69c-1-1.71-2.61-1.71-3.6 0l-16.42 28.43c-1 1.71-.18 3.12 1.8 3.12h32.83c2 0 2.79-1.41 1.8-3.12zm-23.62 38.27c-1-1.72-2.61-1.72-3.6 0l-16.4 28.42c-1 1.72-.18 3.12 1.8 3.12h32.83c2 0 2.79-1.4 1.8-3.12zm134.38-76.53c1-1.72.18-3.12-1.8-3.12h-32.72c-2 0-2.79 1.4-1.8 3.12l16.36 28.34c1 1.71 2.61 1.71 3.6 0zm-48.97 69.78c2 0 2.79-1.41 1.81-3.13l-16.34-28.39c-1-1.71-2.61-1.71-3.6 0l-16.42 28.43c-1 1.71-.18 3.12 1.8 3.12zm72.59-108.05c1-1.71.18-3.11-1.8-3.11h-32.73c-2 0-2.79 1.4-1.8 3.11l16.33 28.35c1 1.71 2.61 1.71 3.6 0zm-25.38 31.55c2 0 2.79-1.41 1.81-3.12l-16.32-28.43c-1-1.71-2.62-1.71-3.61 0l-16.41 28.43c-1 1.72-.18 3.12 1.8 3.12zm-56.38 41.86c-2 0-2.79 1.41-1.8 3.12l16.37 28.34c1 1.72 2.61 1.72 3.6 0l16.36-28.34c1-1.71.18-3.12-1.8-3.12zm32.81-3.67c2 0 2.79-1.42 1.8-3.13l-16.36-28.34c-1-1.72-2.61-1.72-3.6 0l-16.41 28.4c-1 1.71-.18 3.12 1.8 3.12zm-38.21-69.74c-1-1.71-2.61-1.71-3.6 0l-16.41 28.43c-1 1.72-.18 3.12 1.8 3.12h32.83c2 0 2.79-1.4 1.8-3.12zm16.43 38.27c1-1.72.18-3.12-1.8-3.12h-32.82c-2 0-2.79 1.4-1.8 3.12l16.41 28.4c1 1.71 2.61 1.71 3.6 0zm3.6-9.84c1 1.72 2.61 1.72 3.6 0l16.42-28.43c1-1.71.18-3.11-1.8-3.11h-32.83c-2 0-2.79 1.4-1.8 3.11zm-29.03 41.38c2 0 2.79-1.4 1.8-3.11l-16.41-28.43c-1-1.72-2.61-1.72-3.6 0l-16.41 28.4c-1 1.71-.18 3.11 1.8 3.11zm-45.41 83.25c1-1.72.18-3.12-1.8-3.12h-32.82c-2 0-2.79 1.4-1.8 3.12l16.4 28.41c1 1.72 2.61 1.72 3.6 0zm-60.04 28.41c-1 1.72-.18 3.12 1.8 3.12h32.81c2 0 2.79-1.4 1.8-3.12l-16.41-28.41c-1-1.72-2.61-1.72-3.6 0zm72.61-31.53c-2 0-2.79 1.4-1.8 3.12l16.36 28.34c1 1.71 2.61 1.71 3.6 0l16.36-28.34c1-1.72.18-3.12-1.8-3.12zm-25.36 31.53c-1 1.72-.18 3.12 1.8 3.12h32.72c2 0 2.8-1.41 1.81-3.12l-16.32-28.41c-1-1.72-2.61-1.72-3.6 0zm43.62-66.67c-1-1.72-2.61-1.72-3.6 0l-16.41 28.42c-1 1.72-.18 3.12 1.8 3.13l32.78-.09c2 0 2.79-1.41 1.8-3.13zm114.39-124.72c1 1.72 2.61 1.72 3.6 0l16.36-28.34c1-1.71.18-3.12-1.8-3.12h-32.73c-2 0-2.79 1.41-1.8 3.12zm-52.58 3.21c2 0 2.79-1.41 1.8-3.12l-16.41-28.43c-1-1.71-2.61-1.71-3.6 0l-16.42 28.43c-1 1.71-.18 3.12 1.8 3.12zm25.43-31.55c1-1.71.18-3.12-1.8-3.12h-32.83c-2 0-2.79 1.41-1.8 3.12l16.42 28.43c1 1.71 2.61 1.71 3.6 0zm-12.8 28.43c-1 1.71-.18 3.12 1.8 3.12h32.73c2 0 2.8-1.41 1.81-3.13l-16.32-28.42c-1-1.71-2.61-1.71-3.6 0zm-54.51 152.96c1 1.72 2.61 1.72 3.6 0l16.37-28.33c1-1.72.18-3.12-1.8-3.12h-32.73c-2 0-2.79 1.4-1.8 3.12zm-23.54-38.17c1 1.71 2.61 1.71 3.6 0l16.41-28.43c1-1.71.18-3.12-1.8-3.12h-32.86c-2 0-2.79 1.41-1.8 3.12zm259.72-114.8c1 1.72 2.61 1.72 3.6 0l16.41-28.42c1-1.71.18-3.12-1.8-3.12h-32.82c-2 0-2.79 1.41-1.8 3.12zm-70.83 38.27c1 1.72 2.61 1.72 3.6 0l16.41-28.43c1-1.71.18-3.11-1.8-3.11h-32.83c-2 0-2.79 1.4-1.8 3.11zm30.81-38.26c-1 1.71-.18 3.12 1.8 3.12h32.85c2 0 2.79-1.4 1.8-3.12l-16.41-28.42c-1-1.71-2.61-1.71-3.6 0zm-27.21-28.43c-1-1.71-2.61-1.71-3.6 0l-16.42 28.43c-1 1.71-.18 3.12 1.8 3.12h32.83c2 0 2.79-1.41 1.8-3.12zm20.01 28.43c1 1.71 2.61 1.71 3.6 0l16.41-28.43c1-1.71.18-3.12-1.8-3.12h-32.82c-2 0-2.79 1.41-1.8 3.12zm-94.46 76.5c1 1.72 2.61 1.72 3.6 0l16.42-28.41c1-1.72.18-3.12-1.8-3.12h-32.83c-2 0-2.79 1.4-1.8 3.12zm-40.01 0c-1 1.72-.18 3.12 1.8 3.12h32.81c2 0 2.79-1.4 1.8-3.12l-16.41-28.4c-1-1.72-2.61-1.72-3.6 0zm87.23 0c1 1.72 2.61 1.72 3.61 0l16.42-28.41c1-1.72.18-3.12-1.8-3.12h-32.83c-2 0-2.79 1.4-1.8 3.12zm7.22 0c-1 1.72-.18 3.12 1.8 3.12h32.81c2 0 2.79-1.4 1.8-3.12l-16.4-28.41c-1-1.72-2.61-1.72-3.6 0zm63.63-38.24c1 1.71 2.61 1.71 3.6 0l16.41-28.43c1-1.71.18-3.11-1.8-3.11h-32.82c-2 0-2.79 1.4-1.8 3.11zm-23.62 38.24c1 1.72 2.61 1.72 3.6 0l16.41-28.41c1-1.72.18-3.12-1.8-3.12h-32.81c-2 0-2.79 1.4-1.8 3.12zm-43.62-66.67c-1-1.71-2.61-1.71-3.6 0l-16.41 28.43c-1 1.72-.18 3.12 1.8 3.12h32.82c2 0 2.79-1.4 1.8-3.12zm27.22 28.43c-1 1.72-.18 3.12 1.8 3.12h32.82c2 0 2.79-1.4 1.8-3.11l-16.41-28.43c-1-1.71-2.61-1.71-3.6 0zm-50.83 9.84c-1-1.72-2.61-1.72-3.6 0l-16.41 28.4c-1 1.72-.18 3.12 1.8 3.12h32.81c2 0 2.79-1.4 1.8-3.12zm-18.19 111.67c-2 0-2.79 1.4-1.8 3.12l16.42 28.43c1 1.71 2.61 1.71 3.6 0l16.37-28.36c1-1.72.18-3.12-1.8-3.13zm28.59 34.66h27.69c2 0 2.79-1.4 1.8-3.12l-16.36-28.34c-1-1.72-2.61-1.72-3.6 0l-16.37 28.36c-1 1.71-.18 3.11 1.8 3.11zm4.13-38.26c2 0 2.79-1.4 1.8-3.12l-16.37-28.36c-1-1.72-2.61-1.72-3.6 0l-16.37 28.36c-1 1.72-.18 3.12 1.8 3.12zm-56.37-34.67c-2 0-2.79 1.41-1.8 3.13l16.42 28.42c1 1.72 2.61 1.72 3.6 0l16.37-28.36c1-1.72.18-3.12-1.8-3.13zm-25.45 31.55c-1 1.72-.18 3.12 1.8 3.12h32.82c2 0 2.79-1.4 1.8-3.12l-16.41-28.42c-1-1.72-2.61-1.72-3.6 0zm23.68 38.27c-1 1.71-.18 3.11 1.8 3.11h32.82c2 0 2.79-1.4 1.8-3.11l-16.41-28.43c-1-1.72-2.61-1.72-3.6 0zm-10.92-66.65c1-1.72.18-3.12-1.8-3.12h-32.72c-2 0-2.79 1.4-1.8 3.12l16.36 28.34c1 1.72 2.61 1.72 3.6 0zm23.72 38.22c1-1.72.18-3.12-1.8-3.12h-32.83c-2 0-2.79 1.4-1.8 3.12l16.41 28.43c1 1.71 2.61 1.71 3.6 0z" fill="#1eb99e"/></svg>