<svg xmlns="http://www.w3.org/2000/svg" width="2500" height="2500" viewBox="0 0 192.756 192.756"><g fill-rule="evenodd" clip-rule="evenodd"><path fill="#fff" d="M0 0h192.756v192.756H0V0z"/><path d="M8.504 96.379c0-7.918 6.438-14.269 14.356-14.269 7.83 0 14.269 6.351 14.269 14.269 0 7.916-6.438 14.268-14.269 14.268-7.918-.001-14.356-6.352-14.356-14.268z"/><path d="M9.983 106.992h4.176c2.088 0 2.436-1.391 2.436-1.391l2.262-6.439h1.479l2.437 6.525c.174.521.521 1.305 2.001 1.305h5.307l-4.002-9.918 11.224-10.44h-5.829c-1.044 0-1.305.174-2.088.957l-7.395 6.786h-1.393l2.176-6.177c.261-.783.521-1.305 1.392-1.566h-5.307c-1.044 0-1.653.174-2.175 1.479l-6.701 18.879z" fill="#fff" stroke="#000" stroke-width="1.141" stroke-linecap="round" stroke-miterlimit="2.613"/><path d="M10.07 106.992h4.263c2.001 0 2.349-1.479 2.349-1.479l2.263-6.352h1.479l2.436 6.525c.261.521.521 1.305 2.001 1.305h5.307l-4.002-10.004L37.39 86.545h-5.83c-1.044 0-1.305.174-2.088.958l-7.309 6.873h-1.479L22.86 88.2c.261-.87.521-1.392 1.392-1.653h-5.307c-1.044 0-1.653.262-2.176 1.566l-6.699 18.879z" fill="#fff"/><path d="M40.26 107.516h3.307l1.478-4.178h.784l1.566 4.178h4.263l-2.349-5.569 6.003-5.308H51.31l-4.524 4.177h-.784l1.48-4.177h-3.306l-3.916 10.877zM52.615 107.516h3.393l4.002-10.877h-3.393l-4.002 10.877zM65.839 103.861c.174-.609.261-1.219.348-1.654l.696-5.568h-4.698l-3.915 10.877h3.22l1.914-5.395c.261-.697.522-1.48.609-2.262h.087l-.87 7.656h2.697l4.524-7.656h.087c-.348.781-.696 1.564-.958 2.262l-1.914 5.395h3.219l3.916-10.877h-4.698l-3.306 5.568c-.261.436-.609 1.045-.958 1.654zM80.543 103.861c.087-.609.261-1.219.348-1.654l.696-5.568h-4.698l-4.002 10.877h3.219l2.001-5.395c.261-.697.435-1.48.609-2.262h.087l-.87 7.656h2.61l4.611-7.656h.087a16.66 16.66 0 0 0-1.044 2.262l-1.915 5.395h3.219l4.002-10.877h-4.698l-3.393 5.568c-.26.436-.608 1.045-.869 1.654zM87.503 107.516h3.394l3.915-10.877h-3.393l-3.916 10.877zM92.811 107.516h3.219l1.828-5.135c.262-.695.436-1.305.609-2 0 .783.086 1.217.174 1.393l1.479 5.742h3.219l4.002-10.877h-3.305l-1.307 3.654c-.26.697-.434 1.305-.521 2.002-.086-.609-.174-1.131-.26-1.393l-1.045-4.264h-4.176l-3.916 10.878zM104.818 107.516h7.916c1.566 0 2.697-.783 3.133-2.002l.957-2.609c.521-1.48 0-2.176-1.652-2.176h-4.525l.436-1.131h6.264l1.045-2.959h-6.352c-2.176 0-3.393.523-4.002 2.088l-.957 2.611c-.609 1.826.434 2 2.523 2h3.74l-.436 1.219h-7.047l-1.043 2.959z"/><path d="M116.912 107.516h8.004c1.826 0 3.131-1.045 3.828-3.047l1.826-4.959c.697-1.826 0-2.871-1.652-2.871h-8.004l-4.002 10.877zm4.524-2.959l1.74-4.959h3.914l-1.826 4.959h-3.828zM129.527 107.516h8.961l1.043-2.959h-5.568l.435-1.305h5.657l.869-2.436h-5.569l.436-1.218h5.654l1.045-2.959h-9.049l-3.914 10.877zM140.229 107.516h7.918c1.564 0 2.695-.783 3.131-2.002l.957-2.609c.521-1.48 0-2.176-1.652-2.176h-4.525l.436-1.131h6.264l1.045-2.959h-6.352c-2.176 0-3.393.523-4.002 2.088l-.957 2.611c-.609 1.826.436 2 2.523 2h3.74l-.434 1.219h-7.049l-1.043 2.959zM152.061 107.516h3.392l4.004-10.877h-3.395l-4.001 10.877zM168.939 104.557l1.393-3.566h-3.395l-1.305 3.479h-3.828l1.828-4.871h7.047l1.043-2.959h-7.742c-1.914 0-3.045.871-3.742 2.959l-1.826 4.959c-.695 1.914-.174 2.959 1.566 2.959h5.307c1.74-.001 2.959-1.046 3.654-2.96zM169.723 107.516h3.219l1.828-5.135c.26-.695.434-1.305.607-2 0 .783.088 1.217.174 1.393l1.48 5.742h3.219l4.002-10.877h-3.219l-1.393 3.654c-.26.697-.436 1.305-.521 2.002-.088-.609-.174-1.131-.174-1.393l-1.131-4.264h-4.178l-3.913 10.878z" fill="#6d6e70"/><path d="M168.592 100.99h.521v2.521h-1.566c-2.088 0-3.045-.174-2.436-1.914l.174-.607h3.307z" fill="#6d6e70"/></g></svg>