<svg xmlns="http://www.w3.org/2000/svg" width="2500" height="2500" viewBox="0 0 192.756 192.756"><g fill-rule="evenodd" clip-rule="evenodd"><path fill="#fff" d="M0 0h192.756v192.756H0V0z"/><path d="M20.707 73.133h-9.093c-3.202 0-3.073 2.818-3.073 2.818v40.469s-.513 2.947 2.305 2.947c1.921.127 9.861 0 9.861 0V73.133zM31.208 73.133s-2.305-.256-2.305 3.074v14.728l24.589-17.802H31.208zM29.031 101.693v15.881s0 2.176 3.33 2.049h21.388l-24.718-17.93zM38.509 93.24v5.891l27.919 20.236h1.409c2.049 0 1.921-2.051 1.921-2.051V76.591s.385-3.458-2.689-3.458h-.768L38.509 93.24z" fill="#d46f3d"/><path d="M86.151 77.359h4.994V78h-1.536c-.257 0-.385.128-.641.256l-3.586 3.714 5.763 8.453h1.409v.64h-7.172v-.64h1.665l-3.843-5.763c-.127-.256-.384-.512-.384-.896 0-.256.384-.512.641-.769l4.098-4.354c.256-.128.384-.385.384-.385.001-.256-.383-.256-.768-.256h-1.024v-.641zM77.57 91.062v-.64h1.665V78h-1.537v-.64h6.66V78h-1.793v12.423h1.793v.64H77.57v-.001zM92.938 91.062v-.64h1.537V78h-1.537v-.641h6.66V78h-1.664v12.422h1.664v.64h-6.66zM112.277 91.319h-.514l-8.707-12.167v10.501c0 .513.256.641.768.769h1.152v.64h-4.482v-.64h1.025c.641-.128.641-.513.641-1.153V79.28c0-1.025.256-1.281-1.025-1.281h-.641v-.64h5.379l5.764 8.068v-6.916c0-.384-.896-.512-1.408-.512h-.514v-.64h4.227V78h-.768c-.641 0-.896.128-.896.512v12.807h-.001zM125.852 77.359h.641v3.97h-.641c-.641-2.177-2.176-3.714-3.713-3.714-1.666 0-2.434 1.025-2.818 2.305-.127.513-.127 1.281-.127 1.921v4.226c0 1.152 0 2.434.383 3.586.385.896 1.025 1.024 2.178 1.024 1.281 0 1.922-.64 1.922-1.665V86.45h-1.793v-.641h6.531v.641h-1.152v2.049c0 .384-1.152 1.408-1.41 1.537-.768.769-1.793 1.281-4.225 1.281-3.586 0-6.404-3.33-6.404-6.916 0-4.099 3.201-7.3 6.66-7.3 1.152 0 2.305.384 3.201 1.024l.767-.766zM137.379 77.359h.641v3.585h-.641c-.385-1.665-1.793-3.33-3.586-3.33-1.152 0-2.689.769-2.689 2.049 0 1.28.896 1.537 1.92 1.793 1.025.256 2.689.64 3.715 1.024 1.152.512 2.178 1.665 2.178 3.97 0 2.434-1.41 4.867-4.738 4.867-1.154 0-2.051-.256-2.818-1.024l-1.025.896h-.768V87.22h.768c.514 1.793 1.793 3.458 3.844 3.458 2.305 0 3.328-1.409 3.328-2.689 0-1.793-2.049-1.921-3.969-2.433-1.922-.512-3.971-1.281-3.971-4.354 0-2.434 1.922-4.099 4.354-4.099.896 0 1.922.384 2.689.896l.768-.64zM149.418 78h2.561l-1.281 2.945-1.28-2.945zm-9.734 0h1.152l5.252 13.319h.641l2.561-5.763 2.434 5.763h.641l4.227-12.039c.512-1.153.768-1.281 1.152-1.281h.768v-.64h-3.842V78h.77c.639 0 .895.512.639 1.153l-2.945 7.812-2.049-5.251.896-2.433c.512-1.153.641-1.281 1.025-1.281h.768v-.64h-14.088V78h-.002zm4.482 0h2.049l2.689 6.66-1.023 2.561L144.166 78zM161.969 81.585l1.793 4.995h-3.715l1.922-4.995zm-1.281 9.477v-.64c-.256 0-1.793.128-1.793-.384 0-.128.127-.769.385-1.409l.512-1.409h4.227l1.152 3.202h-1.666v.64h6.533v-.64h-1.281l-4.994-13.319h-.77l-4.867 12.679c-.256.641-1.152.641-1.664.641v.64h4.226v-.001zM167.986 77.359h6.404V78h-1.537l3.33 5.507 2.562-4.995c.127-.256-.129-.512-.514-.512h-1.281v-.64h4.355V78h-.768c-.514 0-.77.128-1.281 1.153l-2.689 5.251v6.019h1.793v.64h-7.045v-.64h1.793v-5.507L169.141 78h-1.154v-.641h-.001zM77.442 116.164v-.641h1.537v-12.422h-1.665v-.512h11.398l.128 3.969h-.64c-.769-2.689-1.665-3.457-3.714-3.457h-2.049v5.764c1.921 0 2.305-.641 2.817-2.562h.641v5.893h-.641c-.384-2.051-.896-2.691-2.817-2.691v6.02h1.793v.641h-6.788v-.002zM89.609 116.164v-.641h1.536v-12.421h-1.536v-.512h6.659v.512h-1.793v12.421h1.793v.641h-6.659zM108.818 116.42h-.512l-8.709-12.037v10.373c0 .512.256.768.77.768h1.152v.641h-4.482v-.641h1.023c.641 0 .77-.383.77-1.023v-10.117c0-1.025.127-1.281-1.025-1.281h-.768v-.512h5.379l5.762 8.068v-6.916c0-.385-.768-.641-1.279-.641h-.641v-.512h4.354v.512h-.896c-.512 0-.896.256-.896.641v12.677h-.002zM116.246 106.688l1.795 4.994h-3.588l1.793-4.994zm-1.152 9.476v-.641c-.256 0-1.92.129-1.92-.383 0-.129.256-.77.512-1.281l.512-1.537h4.1l1.152 3.201h-1.537v.641h6.404v-.641h-1.154l-5.121-13.318h-.77l-4.867 12.807c-.127.512-1.023.512-1.535.512v.641h4.224v-.001zM136.354 116.42h-.512l-8.709-12.037v10.373c0 .512.256.768.768.768h1.154v.641h-4.482v-.641h1.023c.641 0 .77-.383.77-1.023v-10.117c0-1.025.127-1.281-1.025-1.281h-.768v-.512h5.379l5.762 8.068v-6.916c0-.385-.768-.641-1.279-.641h-.641v-.512h4.354v.512h-.896c-.512 0-.896.256-.896.641v12.677h-.002zM149.93 102.59h.641v3.713h-.514c-.896-1.92-1.793-3.457-4.098-3.457-1.92 0-2.561.641-2.561 6.402 0 5.123 0 6.66 2.689 6.66 2.305 0 3.457-1.664 4.098-3.842h.641v4.098h-.641l-.896-.768a5.596 5.596 0 0 1-3.201 1.023c-3.586 0-6.66-3.072-6.66-7.172 0-2.561 2.689-7.043 6.402-7.043 1.281 0 2.434.385 3.33 1.152l.77-.766zM152.234 116.164v-.641h1.537v-12.421h-1.537v-.512h6.661v.512h-1.793v12.421h1.793v.641h-6.661zM164.529 106.688l1.922 4.994h-3.715l1.793-4.994zm-1.152 9.476v-.641c-.256 0-1.922.129-1.922-.383 0-.129.256-.77.514-1.281l.512-1.537h4.098l1.152 3.201h-1.537v.641h6.404v-.641h-1.152l-5.123-13.318h-.768l-4.867 12.807c-.129.512-1.025.512-1.537.512v.641h4.226v-.001zM172.854 116.164v-.641h1.281v-12.422h-1.281v-.512h6.66v.512h-1.922v12.422h2.307c2.305 0 3.201-1.92 3.842-3.842h.512l-.129 4.482h-11.27v.001z"/></g></svg>