<svg xmlns="http://www.w3.org/2000/svg" width="2500" height="2500" viewBox="0 0 192.756 192.756"><g fill-rule="evenodd" clip-rule="evenodd"><path fill="#fff" d="M0 0h192.756v192.756H0V0z"/><path fill="#0c0e0f" d="M42.79 108.404v6.2h.81v-2.157l1.349-.808 2.7 2.965h1.08l-3.24-3.504 3.24-2.696h-1.35l-3.779 3.235v-3.235h-.81zM50.889 108.404v6.2h4.589v-.54h-3.51v-5.66h-1.079zM58.178 114.604h1.08v-6.199h-1.08v6.199zm0-6.738h1.08v-1.078h-1.08v1.078zM66.277 114.604l1.89-4.852v4.852h1.08v-6.2h-1.351l-2.159 5.391-2.16-5.391h-1.35v6.2h1.08v-4.852l1.89 4.852h1.08zM73.295 112.717h2.97l.81 1.887h1.08l-2.7-6.199h-1.08l-2.699 6.199h.81l.809-1.887zm1.621-3.235l1.08 2.695h-2.43l1.35-2.695zM90.034 110.291c0-.27 0-1.077-1.08-1.616-.54-.271-1.35-.271-1.89-.271-1.89 0-2.7 1.078-2.43 1.887 0 .809.54 1.078 1.08 1.348.81.27.27 0 1.35.27.54 0 1.08.27 1.62.27.81.539.54 1.348 0 1.617-.27.27-.54.27-1.08.27h-.81c-1.35-.27-1.62-1.078-1.62-1.348h-.81c0 .539 0 .809.54 1.348s1.35.809 2.43.809c1.62 0 2.97-.809 2.97-2.156a3.255 3.255 0 0 0-1.35-1.348c-.54 0-1.35-.27-1.89-.27s-.81-.27-1.08-.27c-.81-.539-.54-1.886 1.08-1.886.54 0 .81 0 1.35.27.54.269.54.808.54 1.077h1.08v-.001zM94.083 112.717h2.699l.811 1.887h1.078l-2.429-6.199h-1.35l-2.7 6.199h1.08l.811-1.887zm1.35-3.235l1.08 2.695h-2.16l1.08-2.695zM106.771 114.604v-6.2h-.808v5.121l-3.781-5.121h-1.08v6.2h.81v-4.852l3.779 4.852h1.08zM110.012 114.604h1.08v-.809h-1.08v.809zM121.08 113.795l-2.16-5.391h-1.08l2.699 6.2h1.08l2.43-6.2h-.809l-2.16 5.391zM126.75 114.604h5.398v-.54h-4.589v-2.156h4.05v-.808h-4.05v-1.886h4.32v-.81h-5.129v6.2zM140.787 114.604h1.08v-5.39h2.43v-.81h-5.94v.81h2.43v5.39zM146.996 114.604h.811v-6.199h-.811v6.199zm0-6.738h.811v-1.078h-.811v1.078zM156.986 110.291c-.271-.27-.541-.809-1.08-1.347-.271-.27-1.08-.54-2.16-.54-.811 0-1.619.271-1.891.54-.809.808-1.35 1.886-1.35 2.694s.541 1.887 1.35 2.695c.271.27 1.08.539 1.891.539 1.08 0 1.889-.27 2.16-.539.539-.539 1.08-1.348 1.08-1.887h-.811c-.27.27-.541.809-.811 1.078-.27.539-.809.539-1.35.539-.811 0-1.35 0-1.619-.539-.541-.539-.811-1.078-.811-1.887s.27-1.617.811-1.887c.27-.538.809-.538 1.619-.538.541 0 1.08 0 1.35.538.27 0 .541.27.541.539h1.081v.002zM159.686 114.604h1.08v-.809h-1.08v.809zM169.404 112.717h2.699l.811 1.887h1.08l-2.43-6.199h-1.352l-2.699 6.199h1.08l.811-1.887zm1.35-3.235l1.08 2.695h-2.16l1.08-2.695zM176.424 114.604h1.078v-.809h-1.078v.809zM183.441 114.873c1.621 0 2.701-.809 2.701-2.156 0-.539-.541-1.078-1.08-1.348-.811 0-1.35-.27-1.891-.27-.539 0-.811-.27-1.08-.27-1.08-.539-.539-1.886 1.08-1.886.27 0 .811 0 1.08.27.541.269.811.808.811 1.077h.809c0-.27 0-1.077-1.078-1.616-.271-.271-1.08-.271-1.621-.271-1.889 0-2.699 1.078-2.43 1.887 0 .809.541 1.078.811 1.348 1.08.27.539 0 1.619.27.541 0 1.08.27 1.621.27.809.539.27 1.348 0 1.617-.271.27-.811.27-1.08.27h-1.08c-1.35-.27-1.35-1.078-1.35-1.348h-.811c0 .539 0 .809.539 1.348.541.539 1.08.809 2.16.809l-.539.809h.809v.27c0 .27-.27.27-.539.27s-.541 0-.811-.27l-.27.539c.811.27 1.08.27 1.619 0 .271 0 .811 0 .811-.539 0-.27 0-.539-.27-.539-.27-.27-.541 0-.811 0l.271-.541zM188.842 114.604h1.08v-.809h-1.08v.809zM41.98 101.667V81.724h6.209v6.468l5.129-6.468h7.289l-6.749 7.546 7.559 12.397h-7.289l-4.589-7.815-1.35 1.617v6.198H41.98zM77.616 101.667H63.037V81.724h6.21v15.362h8.369v4.581zM79.775 81.724h6.209v19.943h-6.209V81.724zm.81-5.66h4.589v3.773h-4.589v-3.773zM94.353 101.667h-5.399V81.724h7.289l3.509 12.397 3.24-12.397h7.289v19.943h-5.398v-9.163l.269-3.504-3.509 12.667h-4.049L94.083 89l.27 2.965v9.702zM117.57 101.667h-5.939l6.75-19.943h6.209l6.748 19.943h-6.209l-.809-2.695h-5.939l-.811 2.695zm5.67-6.737l-1.891-7.277-1.889 7.277h3.78zM148.346 87.653h-5.938c0-.809-.271-1.078-.811-1.617-.27 0-.811-.27-1.619-.27-1.08 0-1.891.539-1.891 1.078 0 .809 1.08 1.617 2.699 1.887 2.699.809 4.59 1.347 5.4 1.887 1.619 1.078 2.699 2.695 2.699 4.851 0 2.155-.811 3.772-2.43 5.12-1.621 1.078-3.779 1.617-6.209 1.617s-4.59-.539-5.939-1.887c-1.621-1.348-2.43-2.965-2.43-4.851h5.939c0 .809.27 1.348.809 1.617.541.269 1.08.538 1.891.538 1.619 0 2.43-.538 2.43-1.347s-.811-1.348-2.699-1.887c-2.701-.809-4.32-1.348-5.129-1.887-1.891-1.078-2.971-2.695-2.971-4.851s.811-3.773 2.43-4.851c1.35-1.078 3.24-1.617 5.67-1.617 2.699 0 4.588.539 5.939 1.887 1.082 1.079 1.89 2.697 2.16 4.583zM155.365 101.667h-5.939l6.75-19.943h6.209l6.75 19.943h-6.211l-.539-2.695h-6.209l-.811 2.695zm5.94-6.737l-2.16-7.277-1.889 7.277h4.049zM176.424 81.724l6.478 11.049V81.724h5.67v19.943h-5.67l-6.75-10.78.272 4.582v6.198h-5.67V81.724h5.67z"/><path fill="#fff" stroke="#88c3d4" stroke-width=".64" stroke-miterlimit="2.613" d="M2.834 81.454h33.477v33.15H2.834v-33.15z"/><path fill="#88c3d4" d="M6.074 84.688h10.259v8.085H6.074v-8.085z"/><path fill="#83bbe3" d="M6.074 93.852h10.259v8.354H6.074v-8.354z"/><path fill="#317fbf" d="M6.074 103.284h10.259v8.355H6.074v-8.355z"/><path fill="#88c3d4" d="M22.812 84.688h11.339l-4.05 8.355H19.033l3.779-8.355z"/><path fill="#317fbf" d="M30.101 103.554H18.762l3.78 8.085h11.339l-3.78-8.085z"/><path fill="#83bbe3" d="M18.762 94.121h11.07l-2.161 4.312 2.161 3.773h-11.07l-2.429-4.042 2.429-4.043z"/></g></svg>