<svg viewBox="-47.9 -24 681.5 179.7" xmlns="http://www.w3.org/2000/svg" width="2500" height="698"><path d="M585.6 24V0h-23.9v24h-24v23.9h24v24h23.9v-24h24V24z" fill="#ed1b23"/><path d="M0 57.5h9.1v23.2h.2c1.2-1.9 2.5-3.7 3.7-5.5l13.1-17.7h11.4L20.2 78.9l18.4 28.9H27.9l-14.3-23-4.5 5.4v17.7H0z"/><path d="M74.3 89.3c0 13.4-9.4 19.3-18.7 19.3-10.3 0-18.2-7.1-18.2-18.7 0-11.9 7.8-19.3 18.8-19.3 10.8.1 18.1 7.7 18.1 18.7zm-27.4.4c0 7 3.4 12.3 9 12.3 5.2 0 8.9-5.2 8.9-12.5 0-5.7-2.5-12.2-8.8-12.2-6.5.1-9.1 6.3-9.1 12.4zM80 83.2c0-4.9-.1-8.4-.3-11.7h8l.3 6.9h.3c1.8-5.1 6.1-7.8 9.9-7.8.9 0 1.4.1 2.2.2v8.7c-.7-.2-1.6-.3-2.7-.3-4.4 0-7.4 2.8-8.2 6.9-.2.9-.3 1.9-.3 2.9v18.8H80zM112 92.2c.2 6.6 5.4 9.4 11.2 9.4 4.3 0 7.3-.6 10.1-1.6l1.3 6.3c-3.1 1.3-7.5 2.3-12.7 2.3-11.8 0-18.7-7.3-18.7-18.4 0-10.1 6.1-19.6 17.8-19.6 11.9 0 15.7 9.7 15.7 17.7 0 1.7-.2 3.1-.3 3.9zm16-6.4c.1-3.4-1.4-8.9-7.5-8.9-5.7 0-8.1 5.2-8.4 8.9zM284.5 92.2c.2 6.6 5.4 9.4 11.2 9.4 4.3 0 7.3-.6 10.1-1.6l1.3 6.3c-3.1 1.3-7.5 2.3-12.7 2.3-11.8 0-18.7-7.3-18.7-18.4 0-10.1 6.1-19.6 17.8-19.6 11.9 0 15.7 9.7 15.7 17.7 0 1.7-.2 3.1-.3 3.9zm16-6.4c.1-3.4-1.4-8.9-7.5-8.9-5.7 0-8.1 5.2-8.4 8.9zM171.9 99.1c0 3.3.1 6.5.5 8.7h-8.3l-.6-4h-.2c-2.2 2.8-6.1 4.9-10.8 4.9-7.3 0-11.4-5.3-11.4-10.8 0-9.2 8.1-13.8 21.6-13.7v-.6c0-2.4-1-6.3-7.4-6.3-3.6 0-7.3 1.1-9.8 2.7l-1.8-6c2.7-1.6 7.4-3.2 13.1-3.2 11.6 0 15 7.4 15 15.3v13zm-9-9c-6.5-.2-12.7 1.3-12.7 6.8 0 3.6 2.3 5.2 5.2 5.2 3.7 0 6.4-2.4 7.2-5 .2-.7.3-1.4.3-2zM181.2 82.3c0-4.2-.1-7.7-.3-10.8h8.1l.4 5.4h.2c1.6-2.8 5.5-6.3 11.6-6.3 6.3 0 12.9 4.1 12.9 15.6v21.6H205V87.3c0-5.2-2-9.2-6.9-9.2-3.7 0-6.2 2.6-7.2 5.4-.3.8-.4 1.9-.4 3v21.4h-9.3zM236 58.2c3.4-.6 8.6-1.1 13.9-1.1 7.2 0 12.2 1.2 15.5 4 2.8 2.3 4.3 5.8 4.3 10.1 0 6.5-4.4 10.9-9.1 12.6v.2c3.6 1.3 5.8 4.9 7 9.7 1.6 6.3 2.9 12.1 4 14h-9.5c-.7-1.5-1.9-5.6-3.4-11.9-1.4-6.6-3.8-8.7-9-8.8h-4.6v20.7H236zm9.1 22.2h5.4c6.2 0 10.1-3.3 10.1-8.3 0-5.5-3.9-8.1-9.9-8.1-2.9 0-4.8.2-5.7.5v15.9zM407.7 106.3c-2.2 1.1-6.9 2.3-13 2.3-16 0-25.7-10.1-25.7-25.4 0-16.6 11.5-26.6 26.9-26.6 6.1 0 10.4 1.3 12.2 2.2l-2 7.3c-2.4-1-5.7-1.9-9.8-1.9-10.2 0-17.6 6.4-17.6 18.5 0 11.1 6.5 18.1 17.5 18.1 3.7 0 7.6-.7 10-1.9zM414.5 83.2c0-4.9-.1-8.4-.3-11.7h8l.3 6.9h.3c1.8-5.1 6-7.8 9.9-7.8.9 0 1.4.1 2.2.2v8.7c-.8-.2-1.6-.3-2.7-.3-4.4 0-7.4 2.8-8.2 6.9-.1.8-.3 1.8-.3 2.8v18.8h-9.2zM476.8 89.3c0 13.4-9.4 19.3-18.7 19.3-10.3 0-18.2-7.1-18.2-18.7 0-11.9 7.8-19.3 18.8-19.3 10.9.1 18.1 7.7 18.1 18.7zm-27.4.4c0 7 3.4 12.3 9 12.3 5.2 0 8.9-5.2 8.9-12.5 0-5.7-2.5-12.2-8.8-12.2-6.5.1-9.1 6.3-9.1 12.4zM483.5 99.4c2.1 1.3 6 2.6 9.3 2.6 4 0 5.8-1.6 5.8-4 0-2.5-1.5-3.7-6-5.3-7.1-2.5-10.1-6.3-10-10.6 0-6.4 5.3-11.4 13.7-11.4 4 0 7.5 1 9.6 2.2l-1.8 6.5c-1.6-.9-4.5-2.1-7.7-2.1-3.3 0-5.1 1.6-5.1 3.8 0 2.3 1.7 3.4 6.3 5.1 6.6 2.4 9.6 5.8 9.7 11.1 0 6.6-5.2 11.4-14.8 11.4-4.4 0-8.4-1.1-11.1-2.6zM514.3 99.4c2.1 1.3 6.1 2.6 9.3 2.6 4 0 5.8-1.6 5.8-4 0-2.5-1.5-3.7-6-5.3-7.1-2.5-10.1-6.3-10-10.6 0-6.4 5.3-11.4 13.7-11.4 4 0 7.5 1 9.6 2.2l-1.8 6.5c-1.6-.9-4.5-2.1-7.7-2.1-3.3 0-5.1 1.6-5.1 3.8 0 2.3 1.7 3.4 6.3 5.1 6.6 2.4 9.6 5.8 9.7 11.1 0 6.6-5.1 11.4-14.8 11.4-4.4 0-8.4-1.1-11.1-2.6zM349.7 54.8v42.8c0 3.7.2 7.8.3 10.2h-8.2l-.4-5.7h-.1c-2.2 4-6.6 6.6-11.9 6.6-8.7 0-15.5-7.4-15.5-18.6-.1-12.2 7.5-19.4 16.3-19.4 5 0 8.6 2.1 10.2 4.8h.1V54.8zm-9.2 31.8c0-.7-.1-1.6-.2-2.4-.8-3.6-3.7-6.5-7.9-6.5-5.9 0-9.2 5.2-9.2 12 0 6.6 3.3 11.5 9.1 11.5 3.7 0 7-2.5 7.9-6.5.2-.8.3-1.7.3-2.7z"/><path d="M-47.9-24h681.5v179.7H-47.9z" fill="none"/></svg>