<svg xmlns="http://www.w3.org/2000/svg" width="2500" height="2500" viewBox="0 0 192.756 192.756"><g fill-rule="evenodd" clip-rule="evenodd"><path fill="#fff" d="M0 0h192.756v192.756H0V0z"/><path d="M95.895 151.406c45.398.4 82.419-23.916 82.687-54.305.27-30.39-36.32-55.352-81.719-55.751-45.399-.399-82.422 23.915-82.689 54.305s36.322 55.353 81.721 55.751z" fill="#b01842"/><path d="M146.213 74.405a7.441 7.441 0 0 0 7.506-7.376 7.442 7.442 0 1 0-7.506 7.376zM126.992 71.948c.285-1.165.652-3.772 1.834-5.343.539-.717 2.006-1.494 2.01-2.113.006-.618-.748-.625-1.367-.562-.619.062-1.59.879-2.281 1.492-.693.611-1.184 1.569-1.807 2.389-.627.819-1.594 1.153-2.486 1.146-.893-.009-1.568-1.251-1.631-2.076-.062-.826 1.176-2.712.439-3.088-.547-.28-1.166-.148-1.791.465-.623.612-.43 2.125-1.609 3.284-.66.647-1.594 1.498-2.691 1.487-1.102-.009-1.434-1.112-1.357-1.936.074-.824.084-1.854-.389-2.753-.473-.896-1.367-.835-1.643-.632-.277.204-.012 1.168.117 2.063.131.895-.428 1.852-.852 3.154-.424 1.302-1.68 3.283-1.672 5.005l16.086.142c0 .001.805-.958 1.09-2.124zM112.574 62.546a1.652 1.652 0 1 0 .032-3.304 1.652 1.652 0 0 0-.032 3.304zM122.195 62.632a1.653 1.653 0 0 0 .029-3.305 1.65 1.65 0 0 0-1.666 1.637 1.651 1.651 0 0 0 1.637 1.668zM131.748 62.715a1.649 1.649 0 0 0 1.664-1.637 1.65 1.65 0 0 0-1.637-1.667 1.655 1.655 0 0 0-1.668 1.637 1.655 1.655 0 0 0 1.641 1.667zM122.705 82.768c-.18.909 1.693.84 1.68 2.351-.012 1.377-1.668 2.254-4.412 1.542-1.523-.395-3.678-1.818-3.678-1.818s-.848 1.424.045 2.75c1.492 2.212 3.971 1.752 3.201 3.463-.299.565-1.463 3.374-1.885 4.915-.264.976.967 1.556 2.799-1.521 0 0 17.125-15.587 17.852-16.774.836-1.367 1.676-1.912 2.08-1.975.627-.098 1.348.021 1.895.369.545.348 1.021 1.039 1.982 1.048 1.24.01 2.402-.733 3.652-1.136 1.447-.468 3.5-.433 4.469-.303 2.113.28-.35 1.288-1.32 1.774-1.164.582-21.408 19.925-21.408 19.925l5.113 27.967c.195 1.17 2.537.572 2.037 2.357-.234.838-1.789.99-3.098 1.068-1.994.119-4.301-.158-5.406-.33-1.105-.174-2.779-1.018-3.676-1.061-.895-.041-1.83.621-2.984 1.07-1.158.445-2.459.5-2.984.188-.211-.125-.746-.898-.393-2.133.355-1.234-2.385-21.053-2.385-21.053-.797-1.104-1.854.809-1.854.809l-6.816 19.254c-.422 1.096 1.775 1.252 1.283 2.555-.309.812-1.658.566-2.961.729-2.064.258-4.467-.107-5.564-.322-1.098-.217-2.738-1.125-3.631-1.201-.893-.076-2.274.736-3.447 1.139-1.172.4-2.749-.025-2.952-.164-.206-.139-.405-1.035.498-1.988.78-.828 18.18-49.388 18.18-49.388l16.295.143c0-.002-2.205 5.459-2.207 5.751z" fill="#fff"/><path d="M146.264 68.617a1.65 1.65 0 0 0 1.664-1.639 1.648 1.648 0 0 0-1.635-1.666 1.653 1.653 0 1 0-.029 3.305zM119.262 83.766a1.34 1.34 0 0 0 1.35-1.326 1.338 1.338 0 1 0-1.35 1.326zM120.855 77.958c-.408-.051-1.854.139-2.789.749-.502.328-2.596 2.348-2.188 2.66.773.591 2.398-1.546 3.83-1.719 1.6-.191 1.744.789 2.52.434.549-.247.43-1.901-1.373-2.124z" fill="#b01842"/><path d="M91.37 73.922a7.442 7.442 0 0 0 .132-14.882 7.44 7.44 0 0 0-7.506 7.375 7.439 7.439 0 0 0 7.374 7.507zM72.151 71.465c.284-1.166.652-3.774 1.833-5.343.539-.715 2.006-1.494 2.011-2.113.006-.618-.749-.624-1.369-.561-.618.062-1.588.879-2.281 1.491-.692.613-1.181 1.57-1.807 2.389-.625.82-1.591 1.155-2.484 1.146-.893-.008-1.569-1.25-1.63-2.075-.062-.825 1.175-2.712.438-3.089-.547-.279-1.166-.147-1.791.465-.624.614-.431 2.127-1.608 3.285-.66.649-1.595 1.498-2.693 1.488-1.1-.01-1.434-1.112-1.357-1.936.075-.824.083-1.855-.389-2.752-.473-.897-1.367-.836-1.644-.632-.276.203-.01 1.168.12 2.062.13.895-.429 1.852-.852 3.154-.424 1.301-1.678 3.283-1.672 5.006l16.086.141c-.001-.001.803-.96 1.089-2.126zM57.734 62.064a1.651 1.651 0 0 0 1.666-1.638 1.655 1.655 0 0 0-1.637-1.667 1.654 1.654 0 0 0-.029 3.305zM67.353 62.149a1.652 1.652 0 1 0 .03-3.304 1.652 1.652 0 0 0-.03 3.304zM76.906 62.233a1.652 1.652 0 1 0 .028-3.302 1.652 1.652 0 0 0-.028 3.302zM67.863 82.286c-.179.909 1.693.84 1.681 2.351-.012 1.376-1.669 2.254-4.411 1.542-1.526-.396-3.678-1.819-3.678-1.819s-.85 1.425.044 2.75c1.493 2.212 3.97 1.753 3.199 3.464-.297.564-1.461 3.372-1.88 4.914-.266.977.965 1.557 2.795-1.521 0 0 17.125-15.588 17.852-16.775.837-1.367 1.675-1.911 2.078-1.975.629-.096 1.349.021 1.897.37.546.348 1.022 1.04 1.982 1.048 1.239.011 2.403-.732 3.652-1.135 1.447-.469 3.502-.433 4.471-.305 2.111.28-.35 1.289-1.322 1.774-1.165.583-21.41 19.926-21.41 19.926l5.114 27.967c.196 1.17 2.539.572 2.036 2.359-.234.836-1.786.988-3.096 1.066-1.994.119-4.302-.16-5.406-.332-1.104-.172-2.78-1.016-3.676-1.059-.894-.041-1.83.621-2.985 1.066-1.155.449-2.458.504-2.982.193-.211-.127-.748-.9-.394-2.135.355-1.234-2.383-21.053-2.383-21.053-.797-1.104-1.854.809-1.854.809l-6.817 19.252c-.422 1.098 1.776 1.254 1.283 2.557-.308.811-1.658.566-2.961.729-2.064.256-4.466-.107-5.564-.322-1.097-.217-2.739-1.125-3.632-1.201-.891-.078-2.273.736-3.446 1.139-1.171.402-2.748-.025-2.952-.166-.205-.137-.404-1.033.498-1.988.782-.826 18.182-49.387 18.182-49.387l16.292.144c-.002 0-2.204 5.461-2.207 5.753z" fill="#fff"/><path d="M91.422 68.133a1.65 1.65 0 1 0 .029-3.303 1.652 1.652 0 1 0-.029 3.303zM64.419 83.285a1.339 1.339 0 1 0 .02-2.677 1.339 1.339 0 0 0-.02 2.677zM66.015 77.476c-.409-.05-1.855.138-2.79.748-.502.329-2.596 2.349-2.188 2.662.772.59 2.397-1.547 3.829-1.719 1.599-.191 1.746.789 2.523.435.546-.25.429-1.904-1.374-2.126zM164.348 131.98a4.37 4.37 0 0 0-4.412 4.334 4.369 4.369 0 0 0 4.334 4.408 4.372 4.372 0 1 0 .078-8.742zm-.073 8.082a3.712 3.712 0 0 1 .066-7.422 3.71 3.71 0 0 1 3.676 3.742 3.71 3.71 0 0 1-3.742 3.68z" fill="#b01842"/><path d="M163.65 138.512l-.973-.01.037-4.17 1.758.016c.371.002.746.012 1.066.221.34.229.523.637.521 1.043-.006.477-.281.912-.732 1.072l.754 1.85-1.082-.01-.623-1.654-.713-.006-.013 1.648zm.02-2.367l.537.006c.201.002.418.02.598-.08a.556.556 0 0 0 .244-.473.521.521 0 0 0-.23-.428c-.164-.104-.443-.082-.627-.084l-.51-.004-.012 1.063z" fill="#b01842"/></g></svg>