<svg height="-1420" viewBox="291.6 401.5 533.5 264.1" width="2500" xmlns="http://www.w3.org/2000/svg"><path d="m380 401.6h-32.1l-21 83.8h-3.3v-83.8h-32v199.7h32v-83.8h3.3l21 83.8h32.1l-23.6-99.8zm69.5 155.7c0 8.1-3.8 11.9-11.9 11.9s-11.9-3.8-11.9-11.9v-155.7h-32.1v155.7c0 29.2 14.8 44 44 44s44-14.8 44-44v-155.7h-32.1zm90.2-155.7c-29.2 0-44 14.8-44 44v111.7c0 29.2 14.8 44 44 44s44-14.8 44-44v-30h-32.1v30c0 8.1-3.8 11.9-11.9 11.9s-11.9-3.8-11.9-11.9v-111.8c0-8.1 3.8-11.9 11.9-11.9s11.9 3.8 11.9 11.9v30h32.1v-30c-.1-29.1-14.8-43.9-44-43.9zm114 83.8h-23.9v-83.8h-32v199.7h32v-83.9h23.9v83.9h32v-199.7h-32zm83.7 73.9h22.3l4.6 41.9h32.1l-22.8-199.7h-51.2l-22.8 199.7h32zm10.7-106.7 8.2 74.6h-15.7zm40.1-47.5h5.7v14.6h3.5v-14.6h5.7v-3h-14.9zm31.9-3-4.5 12.6-4.5-12.6h-5v17.6h3.2v-14.2l4.9 14.2h2.8l4.9-14.2v14.2h3.2v-17.6zm-521.8 221.4h-6.7v41.5h6.7c3.9 0 6.7-2.8 6.7-6.7v-28.2c0-3.8-2.9-6.6-6.7-6.6zm2.8 34.8c0 1.7-1.2 2.8-2.8 2.8h-2.8v-33.9h2.8c1.6 0 2.8 1.2 2.8 2.8zm19-34.8h3.9v41.5h-3.9zm25.8-.6c-3.9 0-6.7 2.8-6.7 6.6v29.4c0 3.9 2.8 6.7 6.7 6.7s6.7-2.8 6.7-6.7v-15.9h-6.7v3.9h2.8v12c0 1.7-1.2 2.9-2.8 2.9s-2.8-1.2-2.8-2.9v-29.4c0-1.7 1.2-2.8 2.8-2.8s2.8 1.2 2.8 2.8v7.2h3.9v-7.2c0-3.8-2.9-6.6-6.7-6.6zm21.8.6h3.9v41.5h-3.9zm17.7 3.8h5.5v37.7h3.9v-37.7h5.5v-3.8h-14.9zm29.9-3.8-6.2 41.5h3.9l1.2-8.3h6.2l1.2 8.3h3.9l-6.2-41.5zm-.7 29.4 2.7-18.8 2.7 18.8zm28.4-29.4h-3.9v41.5h11v-3.8h-7.1zm50.9 32-5.5-32h-4.2v41.5h3.5v-29.9l5 29.9h2.6l4.9-29.9v29.9h3.5v-41.5h-4.5zm33.9 3.4c0 1.7-1.2 2.9-2.8 2.9s-2.8-1.2-2.8-2.9v-35.4h-3.9v35.4c0 3.9 2.8 6.7 6.7 6.7s6.7-2.8 6.7-6.7v-35.4h-3.9zm25.7-36c-3.9 0-6.7 2.8-6.7 6.6v5.7c0 8.3 9.5 12 9.5 17.9v5.8c0 1.7-1.2 2.9-2.8 2.9s-2.8-1.2-2.8-2.9v-7.3h-3.9v7.3c0 3.9 2.8 6.7 6.7 6.7s6.7-2.8 6.7-6.7v-5.8c0-8.2-9.5-12-9.5-17.9v-5.7c0-1.7 1.2-2.8 2.8-2.8s2.8 1.2 2.8 2.8v7.2h3.9v-7.2c0-3.8-2.8-6.6-6.7-6.6zm21.9.6h3.9v41.5h-3.9zm25.7-.6c-3.9 0-6.7 2.8-6.7 6.6v29.4c0 3.9 2.8 6.7 6.7 6.7s6.7-2.8 6.7-6.7v-7.3h-3.9v7.3c0 1.7-1.2 2.9-2.8 2.9s-2.8-1.2-2.8-2.9v-29.4c0-1.7 1.2-2.8 2.8-2.8s2.8 1.2 2.8 2.8v7.2h3.9v-7.2c0-3.8-2.8-6.6-6.7-6.6zm46.5.6-6.2 41.5h3.9l1.2-8.3h6.2l1.2 8.3h3.9l-6.2-41.5zm-.8 29.4 2.7-18.8 2.7 18.8zm30.7-30c-3.9 0-6.7 2.8-6.7 6.6v29.4c0 3.9 2.8 6.7 6.7 6.7s6.7-2.8 6.7-6.7v-15.9h-6.7v3.9h2.8v12c0 1.7-1.2 2.9-2.8 2.9s-2.8-1.2-2.8-2.9v-29.4c0-1.7 1.2-2.8 2.8-2.8s2.8 1.2 2.8 2.8v7.2h3.9v-7.2c0-3.8-2.9-6.6-6.7-6.6zm21.8 42.1h11.6v-3.8h-7.7v-15h6.5v-3.9h-6.5v-15h7.7v-3.8h-11.6zm36.2-12.6-6.7-28.9h-3.7v41.5h3.6v-28.8l6.7 28.8h3.7v-41.5h-3.6zm25.4-29.5c-3.9 0-6.7 2.8-6.7 6.6v29.4c0 3.9 2.8 6.7 6.7 6.7s6.7-2.8 6.7-6.7v-7.3h-3.9v7.3c0 1.7-1.2 2.9-2.8 2.9s-2.8-1.2-2.8-2.9v-29.4c0-1.7 1.2-2.8 2.8-2.8s2.8 1.2 2.8 2.8v7.2h3.9v-7.2c0-3.8-2.8-6.6-6.7-6.6zm27.4 20-4.3-19.4h-3.8l6.1 26.7v14.8h4v-14.8l6.1-26.7h-3.8z"/></svg>