<svg xmlns="http://www.w3.org/2000/svg" width="2500" height="2500" viewBox="0 0 192.756 192.756"><g fill-rule="evenodd" clip-rule="evenodd"><path fill="#fff" d="M0 0h192.756v192.756H0V0z"/><path d="M79.553 91.272H62.895v3.686h6.508v12.872h3.643V94.958h6.507v-3.686zM51.994 107.83l-7.327-16.558H41.23l-7.328 16.558h3.437l5.609-12.674 5.608 12.674h3.438zM120.262 107.83h3.439l-7.33-16.558h-3.436l-7.328 16.558h3.438l1.473-3.33h8.271l1.473 3.33zm-8.112-7.019l2.502-5.655 2.504 5.655h-5.006zM34.554 91.272l-4.392 9.216-4.198-9.216h-3.642l5.975 13.121h.004l-1.638 3.437h3.643l7.89-16.558h-3.642z"/><path d="M88.946 91.272l-4.392 9.216-4.197-9.216h-3.643l5.976 13.121h.004l-1.639 3.437h3.643l7.89-16.558h-3.642zM24.214 107.83l-7.256-10.226h-.083l6.191-6.332h-3.643l-7.139 7.3v-7.3H8.642v16.558h3.642v-5.533h.003l2.525-2.582 5.76 8.115h3.642zM61.913 97.871l-6.228-.002v-6.597h-3.643v16.558l9.87.002a4.938 4.938 0 0 0 4.94-4.963c.001-2.764-2.211-4.998-4.939-4.998zm0 6.274l-6.228-.002v-2.584l6.228.002v.029a1.27 1.27 0 0 1 1.261 1.279 1.27 1.27 0 0 1-1.261 1.276zM108.131 96.233a4.939 4.939 0 0 0-4.939-4.963l-9.871.001v16.558h3.643v-6.598l6.228-.002c2.728.001 4.939-2.231 4.939-4.996zm-3.68.001a1.27 1.27 0 0 1-1.26 1.279v.029h-6.228v-2.583l6.228-.001c.696 0 1.26.572 1.26 1.276z"/><path d="M104.117 76.114l-.879 1.911s14.971 1.147 27.172 9.171c12.203 8.025 20.758 24.581 21.385 32.735l10.947-10.955s-6.166-15.159-22.645-24.202c-16.48-9.042-35.98-8.66-35.98-8.66z" fill="#cc2229" stroke="#000" stroke-width=".785" stroke-miterlimit="2.613"/><path d="M119.592 76.369c15.223 1.784 23.193 6.242 29.059 10.572 5.865 4.331 13.588 10.954 16.479 19.616l8.744-8.854s-4.969-9.745-17.045-15.986c-12.076-6.241-36.105-7.26-36.105-7.26l-1.132 1.912z" fill="#33348e" stroke="#000" stroke-width=".785" stroke-miterlimit="2.613"/><path d="M136.951 74.586c15.725 1.655 21.639 4.966 25.914 7.515 4.277 2.547 9.812 6.368 13.715 12.992l7.672-7.769s-6.164-7.515-21.387-11.592c-15.221-4.077-25.285-2.674-25.285-2.674l-.629 1.528z" fill="#fff" stroke="#000" stroke-width=".785" stroke-miterlimit="2.613"/><path d="M95.386 112.002v1.965h-3.429v-1.965h-.817v5.668h.817v-2.875h3.429v2.875h.816v-5.668h-.816zM67.948 117.67h.816l-2.717-3.908 1.835-1.76h-.816l-1.776 1.703h-.1l.041.057-.872.834v-2.594h-.817v3.377l-.03.031h.03v2.26h.817v-2.291l1.198-1.147 2.391 3.438zM41.514 117.67l-2.543-5.668h-.817l-2.542 5.668h.816l2.135-4.756 2.135 4.756h.816zM14.103 112.002H8.504v.826h2.389v4.842h.817v-4.842h2.393v-.826zM27.382 112.828v-.826H22.29V117.689h5.092v-.826h-4.276v-2.035h2.849v-.826h-2.849v-1.174h4.276zM81.924 117.67h.816l-2.543-5.668h-.817l-2.543 5.668h.817l.637-1.418h2.996l.637 1.418zm-3.261-2.244l1.127-2.512 1.127 2.512h-2.254zM109.381 117.67h.816l-2.543-5.668h-.818l-2.543 5.668h.818l.637-1.418h2.996l.637 1.418zm-3.262-2.244l1.127-2.512 1.127 2.512h-2.254zM123.926 117.67l-2.545-5.668h-.817l-2.543 5.668h.817l2.135-4.756 2.134 4.756h.819zM54.896 112.828v-.826H49.804V117.689h5.092v-.826h-4.275v-2.035h2.847v-.826h-2.847v-1.174h4.275z"/></g></svg>