<svg xmlns="http://www.w3.org/2000/svg" width="2500" height="2500" viewBox="0 0 192.756 192.756"><g fill-rule="evenodd" clip-rule="evenodd"><path fill="#fff" d="M0 0h192.756v192.756H0V0z"/><path d="M130.271 114.664v1.172c1.842.084 3.098.334 3.182.67.166.334.166.752.166 1.172v12.553c0 .418 0 .838-.166 1.172-.084.334-1.34.586-3.182.67v1.088h13.559c7.281 0 15.65-2.092 15.65-10.043 0-7.113-7.365-9.123-13.727-8.787l-15.482.333zm11.215 1.256h.67c6.193 0 9.373 2.51 9.373 7.531 0 6.611-4.018 8.705-8.369 8.705-1.758 0-1.674-.502-1.674-2.762V115.92zM81.816 127.637l1.423 2.762c.586 1.172.084 1.924-1.59 1.924v1.006h13.307v-1.006c-1.59 0-3.181-1.338-3.85-2.594-1.506-2.846-7.03-12.387-8.788-15.23h-4.017c-3.097 5.773-7.951 14.311-8.955 15.648a5.065 5.065 0 0 1-4.101 2.176v1.006h8.034v-1.006c-1.841 0-2.092-.836-1.506-2.008l1.171-2.678h8.872zm-8.034-1.34l3.85-7.197 3.348 7.197h-7.198zM97.801 115.92c1.926.084 3.096.168 3.264.502.084.334.084.92.084 1.34v12.553c0 .418 0 .836-.084 1.172-.168.334-1.338.586-3.264.67v1.088h14.562v-1.088c-1.842-.084-3.014-.336-3.182-.67-.166-.336-.166-.754-.166-1.172v-5.105h1.59c2.93.838 4.52 8.035 8.619 8.035h7.031v-1.842c-3.768-2.93-8.285-7.365-8.285-7.365s5.605-1.172 5.188-5.607c-.334-2.928-3.096-4.518-8.619-4.1l-16.738.418v1.171zm11.215.168h2.176c2.344 0 3.514.92 3.514 3.766 0 1.674-.502 4.102-3.932 4.102h-1.758v-7.868zM25.326 92.822h2.511c3.18 0 6.611 1.674 6.611 6.528 0 4.018-2.511 6.359-5.44 6.359-2.511 0-3.682-.166-3.682-4.602v-8.285zm6.778 14.477c8.704 0 14.646-3.346 14.478-8.703-.167-7.532-10.126-7.95-10.126-7.95 5.105-.251 8.034-3.515 7.699-6.863-.502-5.188-6.276-5.774-12.553-5.774l-22.345.501v1.841c2.594.084 4.352.502 4.603 1.088.168.502.168.837.168 1.423v20.085c0 .67 0 1.34-.168 1.758-.251.586-2.008 1.004-4.603 1.088v1.506h22.847zm-6.778-27.115h2.678c3.599 0 5.105 1.423 5.105 5.272 0 4.101-2.26 5.691-4.771 5.691h-3.013V80.184h.001zM64.911 107.885c7.03 0 16.738-3.766 16.738-12.385 0-6.946-7.197-11.549-15.148-11.549-9.792 0-16.654 5.69-16.654 11.633 0 9.875 9.959 12.301 15.064 12.301zm1.088-1.422c-3.85 0-6.862-4.268-6.862-11.8 0-7.197 2.929-9.29 5.774-9.29 3.599 0 7.449 3.348 7.449 10.796-.001 8.872-3.767 10.294-6.361 10.294zM113.451 107.383V89.725c0-1.004 0-2.009.166-2.762.168-1.005.922-1.172 3.6-1.172v-1.506h-11.381v1.506c4.1 0 4.77.167 4.938 1.172.166.753.166 1.757.166 2.762V99.6h-.25c-4.688-4.435-11.467-11.214-14.981-15.314H82.653v1.506c2.678 0 4.938 1.674 6.193 3.766v12.302c0 1.088-.084 2.01-.167 2.846-.167 1.004-.837 1.34-3.599 1.424v1.254h11.381v-1.254c-4.101-.084-4.77-.42-4.938-1.424-.251-.836-.167-1.758-.167-2.846V90.896h.25c5.607 5.272 12.973 13.223 15.482 16.486h6.363v.001zM132.783 87.8c0-.502 0-1.088.168-1.507.166-.418 1.59-.502 3.682-.502v-1.506h-16.738v1.506c2.092 0 3.516.083 3.682.502.168.418.168 1.004.168 1.507v10.795c0 5.607 3.014 9.207 13.391 9.207 5.859 0 11.047-2.68 11.047-8.537v-9.541c0-3.181-.418-3.85 3.684-3.934v-1.506h-9.959v1.506c2.76 0 3.514.167 3.682 1.172.084.753.084 1.757.084 2.762v8.955c0 5.189-2.678 6.277-6.947 6.277-4.352 0-5.941-2.26-5.941-5.523V87.8h-.003zM180.988 85.373v-6.109c0-.167-.168-.418-.586-.585-2.51-.502-5.775-.586-9.791-.586-10.545 0-15.148 2.845-15.148 7.448 0 2.343 3.432 4.687 9.123 7.365 6.777 3.181 7.279 5.606 7.279 8.368 0 3.014-2.844 4.52-5.941 4.604-4.52.084-6.779-4.184-8.033-6.611h-2.01v6.779c0 .334.168.502.336.586 2.762.836 5.773 1.338 12.301 1.338 9.123 0 15.734-3.18 15.734-8.117 0-4.101-1.172-5.775-5.941-8.955-4.102-2.678-10.377-5.188-10.629-7.365-.418-3.096 2.092-3.682 3.348-3.682 4.184 0 6.863 2.008 8.285 5.523h1.673v-.001zM61.898 127.887c-1.925 2.762-5.021 4.688-8.285 4.688-5.105 0-7.114-4.018-7.03-8.871 0-4.771 2.762-8.201 7.281-8.201 3.683 0 5.607 2.342 6.946 4.268h1.171v-3.348c0-.418-.418-.836-1.506-1.088-1.757-.418-3.515-.836-6.862-.836-12.051 0-15.148 5.355-15.148 9.457 0 6.107 5.356 9.623 14.562 9.623 3.013 0 6.025-.752 7.03-1.004 1.255-.252 1.924-.418 2.092-1.004l.92-3.684h-1.171z"/><path d="M24.656 92.068h2.427c3.264 0 6.695 1.757 6.695 6.611 0 4.018-2.511 6.277-5.524 6.277-2.51 0-3.598-.168-3.598-4.604v-8.284zm6.779 14.563c8.704 0 14.395-2.846 14.395-8.201 0-4.353-4.52-7.199-11.884-7.533v-.083c5.858-.67 9.373-2.762 9.373-6.779 0-4.352-5.356-6.277-11.633-6.277H8.504v1.59c2.678.084 4.436.502 4.603 1.004.251.502.251 1.172.251 1.841v20.002c0 .668 0 1.422-.251 1.84-.167.586-1.925.922-4.603 1.006v1.59h22.931zm-6.779-27.2h2.678c3.515 0 5.104 1.423 5.104 5.272 0 4.185-2.259 5.774-4.77 5.774h-3.013V79.431h.001zM64.158 107.049c7.03 0 16.738-3.682 16.738-12.303 0-7.03-7.198-11.633-15.148-11.633-9.792 0-16.738 5.691-16.738 11.717 0 9.875 10.042 12.219 15.148 12.219zm1.004-1.424c-3.766 0-6.778-4.184-6.778-11.715 0-7.198 2.929-9.374 5.774-9.374 3.599 0 7.364 3.431 7.364 10.879 0 8.872-3.682 10.21-6.36 10.21zM112.781 106.713V89.055c0-1.004-.084-2.008.168-2.845.166-.92.836-1.339 3.598-1.423v-1.255h-11.465v1.255c4.184.083 4.854.502 5.021 1.423.084.837.168 1.841.168 2.845v9.876h-.084c-4.688-4.436-11.383-11.215-14.897-15.4H81.9v1.255c2.762 0 4.938 1.255 6.193 3.348v13.056c0 1.004 0 2.008-.167 2.844-.167.922-.837 1.34-3.515 1.424v1.254h11.381v-1.254c-4.101-.084-4.854-.502-5.021-1.424-.167-.836-.084-1.84-.084-2.844V90.143h.084c5.523 5.272 13.055 13.224 15.651 16.57h6.359zM132.113 87.047c0-.502 0-1.088.168-1.423.168-.418 1.506-.753 3.598-.837v-1.255h-16.736v1.255c2.176.083 3.514.418 3.682.837.168.334.168.92.168 1.423v10.879c0 5.607 3.012 9.123 13.473 9.123 5.775 0 11.047-2.594 11.047-8.453v-9.541c0-3.264-.502-4.185 3.684-4.268v-1.255h-9.959v1.255c2.762.083 3.43.502 3.598 1.423.168.837.168 1.841.168 2.845v8.871c0 5.189-2.762 6.277-6.947 6.277-4.436 0-5.941-2.26-5.941-5.439V87.047h-.003zM180.234 84.704v-6.109c0-.167-.084-.418-.502-.586-2.51-.502-5.857-.586-9.791-.586-10.629 0-15.232 2.846-15.232 7.448 0 2.26 2.93 5.607 8.705 8.369 6.777 3.18 7.783 4.604 7.783 7.282 0 3.012-3.098 4.938-6.277 4.938-5.189 0-6.863-4.436-8.117-6.863h-1.674v6.779c0 .25.166.418.418.502 2.762.836 5.691 1.34 12.219 1.34 9.121 0 15.65-2.68 15.65-8.035 0-2.678-1.508-5.272-6.779-8.369-6.527-3.934-9.793-4.854-9.793-7.783 0-3.013 2.762-3.85 4.018-3.85 4.186 0 6.109 3.348 7.783 5.523h1.589zM61.061 127.051c-1.925 2.762-5.021 4.686-8.285 4.686-5.105 0-7.114-4.016-7.03-8.871 0-4.77 2.762-8.201 7.281-8.201 3.682 0 5.607 2.344 6.946 4.268h1.172v-3.346c0-.42-.419-.838-1.507-1.088-1.757-.42-3.515-.838-6.862-.838-12.051 0-15.148 5.355-15.148 9.457 0 6.109 5.356 9.625 14.562 9.625 3.013 0 6.025-.754 7.03-.922 1.255-.334 1.925-.502 2.092-1.004l.921-3.766h-1.172zM80.979 126.883l1.423 2.678c.586 1.172.083 1.842-1.59 1.842v1.004h13.139v-1.004c-1.59 0-3.515-1.256-4.185-2.51-1.423-2.68-7.03-12.219-8.871-15.232h-3.013c-3.096 5.775-7.95 14.311-8.955 15.65-1.171 1.674-2.929 2.092-4.101 2.092v1.004h8.034v-1.004c-1.757 0-2.092-.754-1.506-2.008l1.171-2.512h8.454zm-7.615-1.422l3.515-6.361 3.264 6.361h-6.779zM108.178 115.25h2.176c2.344 0 3.516.92 3.516 3.766 0 1.674-.502 4.102-3.934 4.102h-1.758v-7.868zm-11.214-.334c1.924.084 3.096.334 3.264.67.082.334.082.752.082 1.17v12.889c0 .418 0 .838-.082 1.172-.168.334-1.424.586-3.264.586v1.004h14.561v-1.004c-1.84 0-3.012-.252-3.18-.586s-.168-.754-.168-1.172v-5.271h1.59c2.762 2.846 5.357 8.033 7.783 8.033h7.867v-.67c-3.18-2.678-6.443-5.523-9.037-8.033 3.932-.754 5.941-2.846 5.941-4.854 0-3.432-3.684-4.938-8.621-4.938H96.964v1.004zM129.52 113.912v1.004c1.842.084 3.012.334 3.18.67.168.334.168.752.168 1.17v12.889c0 .418 0 .838-.168 1.172s-1.338.586-3.18.586v1.004h13.557c7.197 0 15.482-1.842 15.482-9.707 0-5.441-5.941-8.787-13.557-8.787H129.52v-.001zM140.734 115h.668c6.109 0 9.291 2.678 9.291 7.699 0 6.611-3.934 8.703-8.285 8.703-1.842 0-1.674-.502-1.674-2.762V115z" fill="#d0d1d3"/><path d="M53.613 73.573v-.753h1.59V60.517h-1.59v-.837h8.117v.837h-.585v5.775h2.092v-5.775h-1.004v-.837h8.118v.837h-1.172V72.82h1.172v.753h-8.118v-.753h1.004v-5.943h-2.092v5.943h.585v.753h-8.117zM86.168 66.208c.167 4.52-3.431 7.616-7.7 7.616-4.352 0-7.532-3.264-7.532-7.03 0-4.352 3.599-6.946 7.532-7.365 3.85-.418 7.616 2.176 7.7 6.779zm-8.704 5.607c0 .753.418 1.506 1.339 1.506s1.255-.753 1.255-1.506v-9.039c0-1.004 0-2.511-1.255-2.511s-1.339 1.506-1.339 2.511v9.039zM86.754 73.573v-.753h1.506V60.517h-1.423v-.92h9.792c4.185 0 5.691 2.092 5.523 4.352-.084 1.59-1.338 4.017-5.523 4.017h-2.595v4.854h1.757v.753h-9.037zm7.532-6.11h.753c.837 0 1.422-.586 1.422-2.176v-2.846c0-.837-.334-1.925-1.506-1.925h-.67v6.947h.001zM118.891 73.573v-.753h1.421V60.517h-1.421v-.669h8.871v.669h-1.506V72.82h1.506v.753h-8.871z"/><path fill="#d0d1d3" d="M53.362 72.987v-.502h1.506v-12.47h-1.506v-.502h8.117v.502h-.92v5.775h2.26v-5.775h-.838v-.502h8.118v.502h-1.506v12.47h1.506v.502h-8.118v-.502h.838v-6.193h-2.26v6.193h.92v.502h-8.117zM85.666 66.208c0 4.185-3.348 7.114-7.532 7.114-4.436 0-7.532-3.348-7.532-7.114 0-4.352 3.515-7.03 7.532-7.03s7.532 2.845 7.532 7.03zm-8.537 5.105c0 .753.418 1.422 1.255 1.422.92 0 1.339-.669 1.339-1.422V62.19c0-.92-.084-2.511-1.339-2.511s-1.255 1.59-1.255 2.511v9.123zM86.168 72.987v-.502h1.506v-12.47h-1.423v-.502h9.875c4.102 0 5.439 2.008 5.439 3.933 0 1.925-1.338 4.017-5.439 4.017h-2.678v5.021h1.841v.502h-9.121v.001zm7.616-6.026h.67c.836 0 1.422-.67 1.422-2.176V61.94c0-.921-.334-1.925-1.506-1.925h-.586v6.946zM118.305 72.987v-.502h1.422v-12.47h-1.422v-.502h8.871v.502h-1.506v12.47h1.506v.502h-8.871z"/><path d="M129.268 73.573v-.753h.67c.838 0 1.004-.753 1.004-1.674v-8.871s-.752-1.506-1.338-1.758h-.336v-.669h7.113l5.525 7.867v-6.193c0-.586-.586-1.004-1.256-1.004h-.586v-.669h4.018v.669h-.586c-.922 0-.838 1.172-.838 1.674v11.382h-3.264l-7.699-10.88v8.453c0 .92.168 1.674 1.088 1.674h.586v.753h-4.101v-.001zM157.471 59.513h.754v4.854h-.586c-.586-2.176-2.344-3.766-4.352-3.766-2.51 0-2.51 2.511-2.51 4.352v6.361c0 .836.082 1.841 1.088 1.841 1.338 0 1.17-1.59 1.17-2.594v-3.515h-1.254v-.669h7.699v.669h-.922v5.272c-.752 0-1.506 0-2.26.334-2.51.921-3.264 1.172-4.518 1.172-5.189 0-7.449-2.929-7.449-7.03 0-5.189 4.352-7.114 7.449-7.114 1.338 0 2.762.335 3.934 1.172l1.757-1.339z"/><path d="M128.934 72.987v-.502h.418c.838 0 1.088-1.004 1.088-1.841v-9.625c-.334-.502-.67-1.004-1.256-1.004h-.25v-.502h7.281l5.188 7.197v-5.775c0-.502-.586-.92-1.338-.92h-.336v-.502h3.934v.502h-.586c-1.004 0-1.004.753-1.004 2.343v10.628h-3.18l-7.783-10.88v8.537c0 .836.252 1.841 1.172 1.841h.586v.502h-3.934v.001zM157.053 59.178h.67v4.687h-.502c-.754-1.674-2.428-3.766-4.436-3.766-2.512 0-2.512 2.427-2.512 4.352v6.36c0 .753.084 2.009 1.088 2.009 1.34 0 1.172-1.841 1.172-2.762v-3.515h-1.088v-.586h7.699v.586h-1.088v5.189c-.752 0-1.422.167-2.176.418-2.51 1.004-3.264 1.172-4.602 1.172-4.27 0-7.197-2.762-7.197-6.862 0-5.189 4.1-7.281 7.197-7.281 1.422 0 2.762.335 3.932 1.088l1.843-1.089z" fill="#d0d1d3"/><path d="M48.34 63.698c2.092 1.004 4.101 2.51 4.017 5.355-.251 3.432-3.18 4.771-5.942 4.771-1.004 0-2.176-.418-3.097-.92l-2.009.92h-.502l-.167-4.854h1.088c.753 2.092 3.515 4.017 5.021 4.017.753 0 1.674 0 1.841-1.004.502-2.761-3.515-3.264-3.515-3.264-2.762-1.255-4.268-2.427-4.268-4.519 0-2.846 2.009-4.52 4.687-4.52 1.088 0 2.092.335 3.097.837l2.092-.837h.418l.167 4.52h-.586c-1.088-2.929-2.929-3.599-5.105-3.934-.502-.083-1.423-.167-1.507.753-.082.753 2.178 1.59 4.27 2.679z"/><path d="M49.512 64.869c1.255.669 2.259 2.26 2.259 4.017 0 3.348-2.929 4.436-5.774 4.436-1.004 0-2.092-.418-3.013-.92l-2.092.92h-.502l-.083-4.854h.586c.92 2.26 2.845 4.269 5.439 4.269.837 0 1.841-.334 1.841-1.255 0-1.171-1.255-1.674-2.092-2.008l-1.506-.67c-2.762-1.339-4.185-3.013-4.185-5.104 0-2.846 2.008-4.52 4.687-4.52 1.088 0 2.176.335 3.097.837l2.092-.837h.418l.167 4.436h-.502c-1.004-2.092-2.762-3.934-5.189-3.934-.669 0-1.59.419-1.59 1.255 0 1.088 1.255 1.506 2.009 1.925l3.933 2.007z" fill="#d0d1d3"/><path d="M102.57 73.573v-.753h1.508V60.517h-1.424v-.92h9.793c4.184 0 5.689 2.092 5.523 4.352-.084 1.59-1.34 4.017-5.523 4.017h-2.596v4.854h1.758v.753h-9.039zm7.534-6.11h.752c.838 0 1.424-.586 1.424-2.176v-2.762c0-.921-.336-2.009-1.506-2.009h-.67v6.947z"/><path d="M101.984 72.987v-.502h1.508v-12.47h-1.424v-.502h9.875c4.102 0 5.441 2.092 5.441 3.933 0 1.925-1.34 4.017-5.441 4.017h-2.678v5.021h1.842v.502h-9.123v.001zm7.618-6.026h.67c.836 0 1.422-.67 1.422-2.176V61.94c0-.921-.334-1.925-1.506-1.925h-.586v6.946z" fill="#d0d1d3"/></g></svg>