<svg xmlns="http://www.w3.org/2000/svg" width="2500" height="2500" viewBox="0 0 192.756 192.756"><g fill-rule="evenodd" clip-rule="evenodd"><path d="M0 0h192.756v192.756H0V0z"/><path d="M157.48 89.275c0-.577.268-1.181.705-1.538a1.806 1.806 0 0 1 1.055-.385h7.75l1.408.577.352 1.346.705 1.345 1.057.385 1.408.576.703 1.345c0 .577-.352.961-.703 1.345-.352.385-.705.577-1.408.577-.354 0-.705-.192-1.057-.577-.352-.384-.705-.769-.705-1.345l-.352-1.345-1.408-.576h-7.75l-1.408.576-.352 1.345.352 1.345c.354.385 1.057.577 1.408.577h7.75l1.408.577.352 1.345c0 .577.354.961.705 1.346.352.384.703.576 1.057.576l1.408.385.703 1.345-.703 1.346c-.352.384-1.057.576-1.408.576l-1.057.576-.705 1.346v.384l-.352.961c-.352.385-1.057.577-1.408.577h-7.75c-.352 0-1.055-.192-1.408-.577l-.352-1.345-.705-1.346-1.057-.576c-.703 0-1.055-.192-1.408-.576-.352-.385-.703-.77-.703-1.346l.703-1.345c.354-.192.705-.385 1.408-.385l1.057.385.705 1.345.352 1.346c.354.384 1.057.576 1.408.576h7.75c.352 0 1.057-.192 1.408-.576.352-.385.352-.77.352-1.346l-.352-1.345-1.408-.385h-7.75c-.352 0-1.055-.192-1.408-.576l-.352-1.346-.705-1.345-1.057-.577c-.703 0-1.055-.192-1.408-.577l-.703-.961v-.384l.703-1.345c.354-.384.705-.576 1.408-.576.354 0 .705-.192 1.057-.385l.705-1.345zm-7.748 15.951c0 1.345.354 2.69 1.41 3.651 1.055.96 2.111 1.345 3.521 1.345h16.904c1.408 0 2.465-.385 3.521-1.345 1.057-.961 1.408-2.307 1.408-3.651V88.122c0-1.346-.352-2.498-1.408-3.459s-2.113-1.537-3.521-1.537h-16.904c-1.41 0-2.467.576-3.521 1.537-1.057.961-1.41 2.113-1.41 3.459v17.104zM128.602 104.265l2.113-2.115h10.213v1.73h-7.395v1.538h7.746l2.114 2.113v.77l-2.114 2.112h-10.211v-1.728h7.395v-1.538h-7.748l-2.113-2.114v-.768zM125.432 102.15h-12.327v8.263h2.467l2.112-2.112v-4.421h4.931v8.071h2.817l2.113-2.114v-5.572l-2.113-2.115zM101.836 108.107l-2.113 2.306h-2.817v-6.148l2.114-2.115h10.564l2.113 2.115v5.572l-2.113 2.114h-2.816v-4.804h-2.467v-1.729h2.467v-1.73h-4.932v4.419zM81.762 108.301l-2.113 2.112h-7.747l-2.113-2.112v-1.154h4.929v1.538h2.467v-4.805h-2.467v-1.73h7.044v6.151zM90.567 105.418h4.931v1.729h-4.931v-1.729z" fill="#bcdfeb"/><path fill="#bcdfeb" d="M85.284 102.15h10.214v1.73h-7.396v4.805h7.396v1.728H85.284l-2.113-2.112v-4.036l2.113-2.115zM131.068 94.08v-2.883h4.225v-5.381h-8.1v10.762h-8.099V83.126h20.777l3.522 3.459v4.227l-1.76 1.73 1.76 1.729v1.538l-3.522 3.46h-4.578V94.08h-4.225zM108.527 88.507h8.1v2.69h-8.1v-2.69z"/><path fill="#bcdfeb" d="M99.723 83.126h16.904v2.69h-12.326v8.071h12.326v2.691H99.723l-3.521-3.459v-6.343l3.521-3.65zM93.736 90.428l-5.986 6.15H75.775l-5.986-6.15v-7.302h8.099v10.761h7.749V83.126h8.099v7.302zM59.574 93.887h11.975v2.691H54.997l-3.522-3.459v-6.534l3.522-3.459h4.578l-.001 10.761zM45.136 96.578l-3.522-3.459v-9.993h4.578l3.522 3.459v9.993h-4.578zM24.358 88.507h12.679l3.521 3.651v.961l-3.521 3.459H20.132V94.08h12.326v-2.883H19.779l-3.522-3.459v-1.153l3.522-3.459h16.553v2.69H24.358v2.691z"/></g></svg>