<svg xmlns="http://www.w3.org/2000/svg" width="2500" height="448" viewBox="62 157.116 1098 196.894"><path fill="#085391" d="M704.8 353.4c-1.3-1.3.6-4.4 2.7-4.4 1.399 0 2.6-.899 3.3-2.6 1.1-2.2.7-3.8-2.8-12.101-2.2-5.3-4-10-4-10.5s1.199-.8 2.699-.6c2.2.3 3 1.3 5 6.8 1.4 3.601 2.601 6.601 2.801 6.8.1.2 1.3-2.699 2.6-6.399 2.4-6.601 3.7-8.101 6.3-7.101 1.2.5.4 3.4-4 14.4-2.899 7.6-6.1 14.4-7.1 15.1-1.7 1.201-6.5 1.701-7.5.601zM688.699 344.4c-.299-.4-2.699-.6-5.199-.6l-4.5.1V312h2.5c2.399 0 2.5.2 2.5 6.601 0 5.8.199 6.5 1.5 5.399 2.5-2 9.6-.6 12.199 2.5 3.9 4.5 2.7 14-2.1 16.3-3.199 1.6-6.199 2.3-6.9 1.6zm4.5-6.1c2-1.8 2.301-5.399.801-8.399-.7-1.3-2.101-1.9-4.301-1.9-4.1 0-5.699 1.5-5.699 5.4 0 5.599 5.3 8.499 9.199 4.899zM747.4 343.6c-4.2-1.9-4.7-3-2.399-5.101 1.699-1.6 2.1-1.6 4.199-.1 3 2.2 5.4 2 7.9-.5 1.9-1.9 2-2.2.4-3.9-.9-1-3-2.2-4.601-2.5-9.2-2-11.8-12.899-4-17 6.9-3.5 17.8.2 12.8 4.4-1 .8-2.199.7-4.6-.2-3.7-1.4-6.4-.2-6.9 3.1-.3 1.801.7 2.601 5.5 4.7 6.4 2.8 8.301 4.7 8.301 8.2 0 8.001-8.4 12.401-16.6 8.901zM858.6 344c-12.6-4-14.2-23.6-2.4-29 5.5-2.5 10.5-2.5 14.601 0 3.6 2.2 3.899 3.2 1.7 5-1.2 1-2 .9-4-.399-10.101-6.601-20.2 8.3-11.801 17.6 3.101 3.4 11.101 3.2 13.4-.5.9-1.2 5.1 1.1 4.6 2.6-1.3 3.899-10.3 6.499-16.1 4.699zM927.4 343.2c-5.6-2.7-8.399-7.4-8.399-14.4 0-9.1 6.3-15.8 15-15.8 3.8 0 10.199 2.8 10.8 4.7.2.6-.601 1.7-1.8 2.3-1.601.8-2.5.7-4.2-.5-3.7-2.5-7.601-1.899-11.4 1.9-2.8 2.8-3.399 4.2-3.399 7.6 0 3.4.6 4.8 3.399 7.601 4 4 8 4.399 12 1.3 2.101-1.7 2.9-1.9 4.101-.9 2.199 1.8 1.8 3.5-1 5.4C938.5 345 932.1 345.4 927.4 343.2zM959.6 344c-3.7-1.2-7.5-4.7-9.2-8.7-4.8-11.3 4.101-23.399 16.3-22 8.2.9 13.5 7.101 13.5 15.7 0 6.5-2.6 10.9-8.199 13.8-4.601 2.3-7.601 2.6-12.401 1.2zm12-7.4c2.6-2.601 3.4-4.2 3.4-7 0-7-4.2-11.601-10.7-11.601-9.8 0-13.5 14.9-5 20 4.8 3.001 8.3 2.601 12.3-1.399zM1060 342.7c-5.2-2.7-8-7.5-8-13.7 0-9.8 7.699-16.7 17.3-15.6 8.5.899 13.7 6.899 13.7 15.8 0 6.1-2.801 10.9-8 13.6-5.6 2.8-9.6 2.8-15-.1zm11.4-3.7c7-2.6 8.4-13.1 2.601-18.2-8.9-8.1-21.5 3.7-15 14 2.899 4.7 7.299 6.2 12.399 4.2zM771 329v-15h20v2.5c0 2.4-.2 2.5-7.5 2.5H776v7h7c6.8 0 7 .101 7 2.5 0 2.4-.2 2.5-7 2.5h-7v7.9l7.8.3c7.1.3 7.7.5 8 2.6.3 2.2.2 2.2-10.2 2.2H771v-15zM799 329v-15h5v25h6.5c6.3 0 6.5.101 6.5 2.5 0 2.5-.101 2.5-9 2.5h-9v-15zM822 329v-15h20v2.5c0 2.4-.2 2.5-7.5 2.5H827v7h7c6.8 0 7 .101 7 2.5 0 2.3-.301 2.4-6.7 2.7l-6.8.3-.301 3.8-.3 3.7h8c8 0 8.101 0 8.101 2.5v2.5h-21v-15zM887 331.6v-12.5l-4.7-.301c-4.101-.3-4.8-.6-5.101-2.5-.3-2.3-.199-2.3 11.7-2.3H901v2.5c0 2.3-.4 2.5-4.5 2.5H892V344h-5v-12.4zM988 328.9v-15l3.699.3c3.601.3 3.7.4 7.601 10 2.2 5.4 4.3 9.5 4.7 9.3.3-.2 2.399-4.7 4.5-9.899 3.8-9.4 3.899-9.601 7.199-9.601H1019v30h-2.5c-2.4 0-2.4-.1-2.7-9.7l-.3-9.8-4 9.8c-5.101 12.7-6.301 12.7-11.301.5-2-4.899-4-8.8-4.399-8.8-.4 0-.8 4.101-.8 9 0 8.9 0 9-2.5 9H988v-15.1zM1028 329v-15h9.5c9.5 0 9.5 0 9.5 2.5 0 2.4-.2 2.5-7.101 2.5h-7l.3 3.8.301 3.7 6.3.3c5.3.301 6.2.601 6.2 2.2 0 1.601-.9 1.9-6.2 2.2l-6.3.3-.301 6.3c-.3 5.801-.399 6.2-2.699 6.2h-2.5v-15zM1090 329v-15h8c7.3 0 8.3.3 10.5 2.5 3.5 3.4 3.3 7.8-.5 11.7-1.601 1.6-3 3.1-3 3.4 0 .199 1.6 2.8 3.5 5.8 1.899 3 3.5 5.8 3.5 6.1s-1.301.5-3 .5c-2.601 0-3.4-.8-6.7-6.5-4.8-8.399-6.7-8.399-7.101.3-.3 5.801-.399 6.2-2.699 6.2h-2.5v-15zm14-4c1.6-1.6 1.8-2.5 1-4-1.101-2-7.101-3.7-8.9-2.5-1.2.7-1.5 6.8-.4 7.8 1.4 1.4 6.4.6 8.3-1.3zM1123.699 343.3c-.399-.3-.699-5.9-.699-12.4v-11.8l-4.2-.301c-3.601-.199-4.4-.699-4.601-2.5C1113.9 314 1114 314 1126 314s12.1 0 11.8 2.3c-.2 1.801-1 2.301-4.5 2.5l-4.3.301v12.5c0 12.3 0 12.399-2.301 12.399-1.299 0-2.699-.3-3-.7zM536.699 334.8c-14.199-1-31.699-7.5-43.1-15.8-15.4-11.3-28.4-29.8-33.7-48.199-2.899-9.9-3.7-32.301-1.6-42.301 13.399-63 84.6-91.7 137.7-55.5 7.199 4.9 18.699 16.9 23.8 24.8 29 44.9 11.8 105.9-36.3 128.801-15.199 7.199-28.899 9.599-46.8 8.199zm18.701-42.499c4.7-9.301 10.601-20.9 13.2-25.9 2.9-5.6 4.5-9.7 4.1-10.8-.6-1.5-3.199-1.601-27.399-1.4l-26.8.3v3c0 4.301 24.399 51.5 26.699 51.5 1.2-.001 4.2-5.001 10.2-16.7zm15.299-58.801c.301-2.6-24.8-51-26.5-51-.699 0-7.1 11.2-14.199 25-10 19.601-12.601 25.3-11.9 26.7.9 1.7 2.9 1.8 26.7 1.6 24.899-.3 25.7-.4 25.899-2.3zM340.199 305.7c-.899-1.1-1.199-13.2-1-46.8l.301-45.4 5.3-.3 5.2-.3v3c0 3.399 1.1 3.899 3.1 1.5 5-6.101 22.1-7.8 31.9-3.3 3 1.399 7.199 4.3 9.199 6.399 13.101 13.601 10.801 37-4.5 47.2C383.6 271.801 379.3 273 371 273c-6.4 0-7.301-.3-20.2-6.8-.4-.2-.9 8.8-1 20l-.3 20.3-4.101.3c-2.599.2-4.499-.2-5.2-1.1zm39.301-44.6c8.1-3.7 12.1-11.301 11.199-21.4-2-22.1-32.5-25-39.6-3.8-5.599 16.7 12.301 32.6 28.401 25.2zM74.2 271.801C70.1 270.4 62 263.4 62 261.2c0-1.6 5.899-6.2 7.8-6.2.5 0 1.9 1.2 3.3 2.601 3.3 3.6 7.2 5.399 11.4 5.399 11.1 0 16.3-9 7.7-13.3-1.5-.8-5.801-2.2-9.601-3.1C68 243 63.7 238.7 64.2 228.5c.699-11.3 8-17 21.8-17 8.399 0 14.2 2.3 17.899 7.101 2.9 3.699 2.7 4.8-2 7.8l-4.1 2.7-3.4-3.5C90.3 221.3 85.7 220.3 80.7 222.3c-5.9 2.5-7.301 8.2-2.5 10.801 1.1.6 6.199 2.199 11.1 3.5 14.4 3.899 19.4 9.199 18.5 20-.9 10.399-7.9 15.6-21.8 16-4.7.2-10-.201-11.8-.8zM192 272.1c-16.101-4.9-24.9-23.301-19.4-40.601 7.601-24.3 42-27.5 53.7-5 1.5 3 2.1 5.9 2.1 11.5l.101 7.5-22.7.3c-25.4.301-24.5 0-20.8 7.101 6.2 12.3 22.899 13.5 32.6 2.2l2-2.4 3.7 3.3c2 1.801 3.7 3.801 3.7 4.5 0 2.2-8 8.4-13.7 10.5-5.501 2.1-16.301 2.6-21.301 1.1zm24.6-39.1c-1.399-7.1-7.2-11.3-15.6-11.399-4.601-.101-6.5.399-9.9 2.699-4 2.7-8.1 7.9-8.1 10.5 0 .9 4.1 1.2 17.1 1.2h17.2l-.7-3zM274 271.301c-6.7-2.5-15.4-11.601-17.4-18.301-4.7-15.899 1.4-31.8 14.8-38.8 6.801-3.5 18.801-3.8 25.601-.6 10.198 4.8 15.299 12.9 15.399 24.4l.101 7.5-22.9.3-22.8.2.7 2.8c3.5 14.601 22.2 18.9 32.8 7.7l3.3-3.5 3.7 2.7c2 1.601 3.6 3.5 3.7 4.4 0 2.1-5.7 7.2-11.301 10.1-5.6 2.9-19.2 3.5-25.7 1.101zm27-38.401c-2.2-7.5-7.3-11.2-15.5-11.3-6.5-.101-11.9 2.6-15.601 7.699-4.899 6.7-5 6.7 14.5 6.7h17.5L301 232.9zM769.5 271.1c-5-2.2-9.101-6.9-10.5-11.9-.5-2-1-13.3-1-25v-21.3l5.3.3 5.2.3.5 21c.5 19 .699 21.3 2.5 23.7 3.8 5.2 13.8 6.2 19.399 2 5.9-4.3 6.601-7 7.101-27.7l.5-19 5.3-.3 5.2-.3.199 26c.101 14.399.2 27.6.2 29.4.101 3.1 0 3.199-4.7 3.5-4.5.3-4.8.1-6.1-2.801-1.1-2.6-1.5-2.899-2.5-1.6-4.4 5.301-18.699 7.301-26.599 3.701zM974.5 271.801c-1.601-.601-4.7-2.2-6.7-3.5-2.101-1.2-4-2.301-4.2-2.301-.3 0-.6 1.2-.8 2.801-.3 2.5-.7 2.699-5 3l-4.8.3V178h10v41.2l2.3-1.6c8.1-6 18.3-7.801 28.5-5.101 5.8 1.601 7.5 2.601 12.8 7.9s6.3 7 7.9 12.8c4.1 15.5-2 29.8-15.801 37-4.899 2.501-19.199 3.501-24.199 1.602zm21.3-12.5c2-1.601 4.7-4.9 6-7.4 3.399-6.3 2.7-16.3-1.4-22.101-8-11.399-25.399-11-33.6.7-7.2 10.3-3 25.2 8.7 30.7 6.1 2.9 15.5 2 20.3-1.899zM1055 272.1c-13.9-4.5-21.4-14.9-21.5-29.601 0-6.6.5-9 2.6-13.5 3.6-7.6 7.1-11.5 13.3-14.5 19.8-9.7 41.4 2.8 41.9 24.101l.2 6.899-23.2.3c-15 .101-23.3.601-23.3 1.301 0 4.1 7.3 13 12.3 14.8 6.8 2.6 17.3-.1 21.6-5.5 1-1.3 2.4-2.4 3-2.4 2 0 7.101 4.301 7.101 6 0 2.2-5.601 7.301-10.9 10.101C1073.3 272.6 1059.9 273.7 1055 272.1zm24.4-38.8c-2.8-12-18-15.899-28-7.1-3 2.7-6.399 7.5-6.399 9.3 0 .3 7.899.5 17.5.5h17.5l-.601-2.7zM1146.5 270.5c-5-4.899-1.5-13.5 5.5-13.5 3.6 0 8 3.801 8 6.9 0 7.7-8.4 11.8-13.5 6.6zm6.9.9c1.4-.5 1.4-.9-.1-3.5-2.2-3.6-3.101-3.7-3.601-.1-.199 1.5-.5.3-.6-2.5-.1-5 .1-5.301 2.3-5.301 3.101 0 5.3 2.5 3.7 4.4-1.3 1.6-.4 4.9 1.3 4.3.601-.2 1.2-2 1.4-3.899.2-2.801-.2-4-2-5.2-3.3-2.3-6.4-2-8.7 1-2.7 3.5-2.6 5.899.4 8.899 2.501 2.601 3.301 2.901 5.901 1.901zm.4-8.599c-.7-1.9-3.8-2.2-3.8-.4 0 1 .899 1.6 2.1 1.6s1.9-.501 1.7-1.2zM135.5 270.801c-.3-.7-.4-21.801-.3-46.801l.3-45.5h10v93l-4.8.301c-3.2.199-4.9-.101-5.2-1zM679.5 270.801c-.2-.7-.5-14-.801-29.501L678.3 213h5.399c5 0 5.301.101 5.301 2.5 0 3.101.1 3.101 4.6 0 5.1-3.5 10.9-4.8 17.3-4.1 7.4.899 12.7 4.1 15.9 9.6l2.7 4.5v46h-10L719 251c-.601-21.5-1.2-24.8-5.2-27.399-7.2-4.7-17.5-1.7-21.5 6.399-2.101 4.101-2.3 5.8-2.3 21.601 0 9.5-.301 17.899-.601 18.8-.799 1.999-9.2 2.299-9.899.4zM837.6 271.2c-.3-.5-.6-13.7-.6-29.3l-.2-28.4h5.399c4.7 0 5.301.3 5.601 2.2l.3 2.2 3.6-2.5c4.101-2.8 9.4-4.4 14.301-4.4 4.6 0 12 3.4 14.699 6.7l2.101 2.6 4.1-3.5c12.3-10.5 32-5.899 36 8.301.8 3 1.101 11.1.9 25.399l-.3 21h-10L913 250c-.601-24.2-1-25.899-7.5-28-6.7-2.2-13.7.7-17.301 7.3-1.399 2.6-1.799 6.8-2.199 22.7l-.5 19.5h-10L875 250c-.601-24.6-1-26.1-8-28-4.5-1.2-8.301-.5-12.301 2.2-5.5 3.9-6.1 6.5-6.699 27.8l-.5 19.5-4.7.301c-2.5.199-4.9-.101-5.2-.601zM1119.6 270.801c-.2-.7-.7-14-1-29.601l-.6-28.3 5.199.3c4.601.3 5.301.6 5.801 2.8.399 1.8.8 2.101 1.399 1.101.5-.7 3.2-2.4 6-3.7 5.101-2.4 9.9-3 14.4-1.7 2.2.5 2.3.9 1.7 5.2-.4 2.5-.9 4.8-1.101 5-.3.3-2.3.399-4.5.2-6-.301-12 3-15 8.199-2.2 3.9-2.399 5.4-2.899 22.7l-.5 18.5-4.301.301c-2.798.199-4.398-.101-4.598-1z"/></svg>