<svg xmlns="http://www.w3.org/2000/svg" width="2500" height="2500" viewBox="0 0 192.756 192.756"><path fill-rule="evenodd" clip-rule="evenodd" fill="#fff" d="M0 0h192.756v192.756H0V0z"/><path d="M55.291 88.416l2.247-.097.391-.196h.098c.488-.781.977-1.27 1.368-1.27l.098-.391v.196l.195-.978.293-.293v-.391h.195l.685-.488.586-1.271.684-.977.293-.293.196-.684.195-.195 1.27-1.954.684-.586.488-.684.293-1.172.684-.489.586-1.27h.195l.684-.782.293-.391.293-.782.879-.977 1.075-1.172.489-1.074.977-.879.195-1.27.684-.782.489-.977v-.195l1.465-.977h.586l.684.293.195-.098 1.27-.489c.489-.391.489-.977.195-1.954l-.391-.391-.097-.293v-.193l-.391-.489c-.488-.781-1.27-1.27-2.247-1.27l-.293.293v.196l-.977 1.465-.684.782-1.27.391-1.172.293-.489.488-.781.196h-.684l-.684.488-.782.293h-1.465l-1.172.488-1.759.488-.488.195c-.488.489-1.466.586-2.931.586l-1.759.879h-.488l-.684.293-.488.195-1.76.1-.977.684-2.149.293-.977.488-2.247.489h-.684l-1.172.488-.977 1.954-.098.195v.977l-.195 1.173.293.977.195 1.271.488.781v.684l.195.292.293.489.195 1.367.782 1.075.488.977.684.879.098.293.488.195.196.489v.098l.293.488.977.391.978.977.488.098 1.661 1.368.684.098 1.759.488z" fill-rule="evenodd" clip-rule="evenodd" fill="#75b557"/><path d="M27.252 137.947c.195 1.758 4.396 2.639 12.896 2.639 5.373 0 8.011 2.051 7.815 6.154-.195 2.736-1.172 4.689-2.931 5.861-1.758 1.172-4.591 1.662-8.304 1.465-4.689 0-8.109-.684-10.258-1.758-2.442-1.465-3.615-3.811-3.712-7.229l8.402 1.172c-.293 1.465.489 2.148 2.442 2.148 1.856 0 2.833-.488 2.931-1.66.195-1.172-.098-1.758-.978-2.148l-3.419-.49-5.667-1.074c-1.954-1.172-3.126-2.93-3.419-5.764-.488-4.982.978-8.305 4.396-9.77 1.954-.977 5.178-1.465 9.574-1.465 5.373 0 8.988 1.367 10.648 3.811 1.271 1.953 1.563 5.178 1.075 9.77-4.494-1.467-9.379-1.955-14.459-1.857l-.489-1.465c-.488-.488-1.465-.781-3.126-.781-2.44 0-3.514.781-3.417 2.441zM72.583 142.148c-.391 5.373-.391 8.988.098 10.941-2.931-.488-5.862-.488-8.597-.195-.977-.098-1.465-4.006-1.465-12.016l-.196-4.104c-.488-.977-1.27-1.465-2.735-1.27-1.465.195-2.247.684-2.638 1.758-.098.488-.098 1.953-.098 4.104-.195 1.953 0 5.861.586 11.527-2.442-.098-4.396-.098-5.862 0l.488-10.746c0-4.006-.293-7.426-.781-10.551 2.247.488 6.057.488 11.039.195 4.104-.391 6.839.293 8.305 2.051 1.465 1.664 1.954 4.398 1.856 8.306zM77.077 149.182c1.661 2.15 4.592 3.225 8.695 3.225 4.006 0 6.937-1.074 8.597-3.225 1.27-1.758 2.149-4.59 2.442-8.498.49-3.908 0-6.645-1.172-8.305-1.465-2.443-4.689-3.518-9.77-3.518-4.982 0-8.304 1.074-9.867 3.518-1.173 1.66-1.465 4.396-1.173 8.305.196 3.908.978 6.74 2.248 8.498zm15.338-6.35c-.195 4.396-1.465 6.545-4.201 6.545-2.638 0-4.104-2.148-4.299-6.545-.098-4.201 1.172-6.35 4.104-6.35 1.954 0 3.224.684 3.908 1.758.488.879.683 2.444.488 4.592zM101.893 149.182c1.562 2.15 4.494 3.225 8.596 3.225 4.104 0 7.035-1.074 8.598-3.225 1.367-1.758 2.15-4.59 2.639-8.498.293-3.908-.195-6.645-1.271-8.305-1.465-2.443-4.787-3.518-9.77-3.518-5.08 0-8.303 1.074-9.965 3.518-1.172 1.66-1.66 4.396-1.27 8.305.292 3.908 1.073 6.74 2.443 8.498zm7.326-10.942c.488-1.074 1.758-1.758 3.518-1.758 1.953 0 3.322.684 3.811 1.758.488.879.586 2.443.586 4.592-.098 2.15-.293 3.713-.781 4.592-.488 1.27-1.662 1.953-3.42 1.953-2.736 0-4.104-2.148-4.201-6.545-.197-2.148-.002-3.713.487-4.592zM143.021 131.793c-1.074-1.465-3.225-2.15-6.35-1.953l-13.775.977c1.758 7.326 2.246 14.654 1.562 22.078l8.207.391-.391-5.568c-.098-1.758.977-2.637 3.32-2.637 5.668-.293 8.402-3.029 8.598-8.305.001-2.444-.292-4.006-1.171-4.983zm-8.109 8.891c0 1.855-1.27 2.637-3.711 2.637-1.857 0-2.932-.293-3.42-.781-.391-.391-.488-.977-.684-1.855-.195-1.76 1.27-2.541 4.104-2.541 1.562 0 2.734.293 3.223.781l.488 1.759zM146.832 139.412l-.391-7.033 7.033-.098c-.293 5.861-.293 9.574-.195 11.234.391 1.467.977 2.053 1.955 2.053.879 0 1.465-.586 1.855-2.053.293-1.855.293-5.764.098-11.723 3.322.781 6.74.586 10.16-.195-.391 2.93-.391 6.35-.195 10.062.195 3.42 0 6.057-.293 7.717-.488 2.443-1.465 4.006-3.127 4.887-1.465.781-4.104 1.27-7.521 1.074-6.645 0-10.062-2.248-9.867-6.938l8.4.488c0 1.955.979 2.932 3.127 2.932 2.443 0 3.615-.879 3.615-2.344.098-1.467-.977-1.955-3.42-1.76-5.764.293-9.184-.488-10.453-2.637-.488-.779-.781-2.734-.781-5.666z" fill-rule="evenodd" clip-rule="evenodd"/><path d="M35.751 124.465c5.569 0 9.086 1.076 10.747 3.518 1.27 1.953 1.661 5.275 1.172 9.77-4.591-1.27-9.476-1.953-14.654-1.758l-.391-1.662c-.488-.488-1.465-.586-3.028-.586-2.442 0-3.811.781-3.615 2.443.195 1.562 4.396 2.441 12.896 2.441 5.471 0 8.109 2.053 7.816 6.352-.195 2.734-1.172 4.689-2.931 5.861-1.856 1.074-4.592 1.562-8.305 1.465-4.787 0-8.206-.684-10.258-1.855-2.345-1.467-3.419-3.713-3.614-6.938l8.304.783c-.195 1.465.684 2.246 2.638 2.246 1.759 0 2.735-.488 2.735-1.562.195-.979-.195-1.662-.781-1.955l-3.615-.879-5.667-1.074c-1.954-.977-3.126-2.834-3.322-5.568-.488-4.885.977-8.109 4.299-9.77 1.954-.784 5.178-1.272 9.574-1.272zM71.215 140.391c-.293 5.373-.098 8.986.391 10.941a26.583 26.583 0 0 0-8.792 0c-.879-.195-1.368-4.299-1.368-12.213l-.293-4.102c-.293-.979-1.173-1.467-2.638-1.271-1.465.098-2.247.586-2.54 1.76l-.391 4.104c-.098 1.953.195 5.861.684 11.527-2.442-.195-4.396-.195-5.862 0l.489-10.746c.195-4.104-.195-7.523-.685-10.551 1.954.293 5.569.293 10.942.096 4.103-.488 7.034.393 8.499 2.15 1.271 1.66 1.76 4.396 1.564 8.305zM75.807 147.229c1.758 2.443 4.591 3.615 8.597 3.615 4.103 0 7.034-1.172 8.695-3.615 1.27-1.66 2.052-4.396 2.54-8.305.391-3.906 0-6.643-1.075-8.303-1.465-2.248-4.885-3.42-9.965-3.42s-8.304 1.172-9.77 3.42c-1.172 1.758-1.661 4.592-1.27 8.303.294 3.908 1.075 6.644 2.248 8.305zm15.338-6.155c-.195 4.201-1.465 6.35-4.298 6.35-2.541 0-3.908-2.148-4.005-6.35-.391-4.299.977-6.352 4.005-6.352 1.954 0 3.322.588 3.81 1.76.488.977.586 2.442.488 4.592zM100.523 147.229c1.857 2.443 4.787 3.615 8.793 3.615 4.104 0 6.838-1.172 8.5-3.615 1.27-1.66 2.148-4.396 2.637-8.305.293-3.711 0-6.545-1.172-8.303-1.66-2.248-4.885-3.42-9.965-3.42-4.982 0-8.305 1.172-9.77 3.42-1.074 1.758-1.562 4.592-1.27 8.303.294 3.908 1.173 6.644 2.247 8.305zm15.34-6.155c-.197 4.201-1.467 6.35-4.201 6.35-2.443 0-3.908-2.148-4.299-6.35-.098-4.299 1.172-6.352 4.299-6.352 3.027.001 4.397 2.053 4.201 6.352zM141.752 129.84c-1.174-1.467-3.225-1.955-6.352-1.857l-13.676 1.172c1.66 7.328 2.148 14.654 1.66 21.982l7.914.293-.098-5.471c0-1.66.977-2.639 3.027-2.834 5.764-.098 8.5-2.734 8.695-8.107.002-2.444-.389-4.104-1.17-5.178zm-8.012 9.084c0 1.76-1.27 2.639-3.908 2.639-1.562 0-2.734-.391-3.418-.879l-.49-1.76c0-1.758 1.369-2.637 3.908-2.637 2.639 0 3.908.879 3.908 2.637zM145.17 130.621l7.035-.293c-.391 5.959-.391 9.77 0 11.332.098 1.465.781 2.148 1.953 2.148.783 0 1.467-.781 1.76-2.246.293-1.857.293-5.568.195-11.627 3.418.881 6.838.881 10.062-.096-.293 3.027-.488 6.447-.293 10.258.098 3.418.098 5.959-.195 7.424-.488 2.346-1.467 3.908-3.127 4.885-1.562.879-4.201 1.172-7.619 1.172-6.645-.195-9.967-2.441-9.771-6.838l8.305.488c0 1.758.977 2.736 3.127 2.736 2.441 0 3.518-.783 3.713-2.248 0-1.27-1.174-1.953-3.42-1.953-5.666.488-9.281-.293-10.453-2.248-.586-.977-.977-2.93-.977-6.057l-.295-6.837z" fill-rule="evenodd" clip-rule="evenodd" fill="#cc262d"/><path d="M88.214 148.205c1.074 0 2.052-.488 2.735-1.66.195 0 .195.195 0 .488-.781 1.172-1.661 1.465-2.442 1.367-.488-.195-.488-.195-.293-.195z" fill-rule="evenodd" clip-rule="evenodd" fill="#fff"/><path d="M88.214 148.205c1.074 0 2.052-.488 2.735-1.66.195 0 .195.195 0 .488-.781 1.172-1.661 1.465-2.442 1.367-.488-.195-.488-.195-.293-.195" fill="none" stroke="#fff" stroke-width="1.954" stroke-linecap="round" stroke-linejoin="round" stroke-miterlimit="2.613"/><path d="M26.959 126.42c-2.735 1.465-4.201 3.42-4.396 5.959-.293 2.443 0 4.396.781 6.057.391.195.391.195.195-.293-.684-2.148-.781-3.811-.684-5.275l.488-1.074v-.195c.391-.781 1.368-1.662 2.931-2.736.489-.391 1.368-.488 2.442-.684l1.954-.195 1.465-1.465c.195-.488-.098-.977-.782-1.074-1.658-.002-3.124.291-4.394.975zM27.155 149.867c-2.149-1.174-3.322-2.15-3.615-3.127v-1.27l-.195-.879-.977-.293c0 2.148.684 3.613 2.149 4.59 1.758 1.076 2.931 1.564 3.419 1.76l-.781-.781zM54.021 131.109h-2.345c-.293 0-.488.293-.488.781.684 7.719.684 12.408 0 14.068 0 .293.195.293.488.098.488-.488.879-4.006.977-10.355v-.879l.684-1.467 1.172-1.27c.098-.292 0-.683-.488-.976zM125.143 131.891l.979-1.27c.195-.488-.197-.781-.686-1.174l-2.051.393c-.488 0-.684.293-.488.977 1.465 7.424 1.953 12.016 1.465 13.775h.293c.293-.49.293-3.908 0-10.26v-.977l.488-1.464zM78.738 130.621c.684-.979.489-1.662-.488-1.955-1.661.781-2.638 1.662-2.931 2.443l-1.271 3.908c0 2.93.098 4.688.293 5.373l.196 1.465c.292.195.488-.293.488-1.27-.391-3.127-.391-5.275.098-6.059.879-1.758 1.465-2.734 1.954-2.93l1.661-.975zM113.225 148.01c1.172-.098 2.148-.586 2.834-1.562.096.098.096.293 0 .586-.686.977-1.467 1.465-2.346 1.367l-.488-.391z" fill-rule="evenodd" clip-rule="evenodd" fill="#fff"/><path d="M113.225 148.01c1.172-.098 2.148-.586 2.834-1.562.096.098.096.293 0 .586-.686.977-1.467 1.465-2.346 1.367l-.488-.391" fill="none" stroke="#fff" stroke-width="1.954" stroke-linecap="round" stroke-linejoin="round" stroke-miterlimit="2.613"/><path d="M131.689 142.148c1.074-.098 1.953-.586 2.734-1.758.195.195.195.293 0 .684-.781 1.074-1.66 1.465-2.441 1.27-.488-.196-.488-.196-.293-.196z" fill-rule="evenodd" clip-rule="evenodd" fill="#fff"/><path d="M131.689 142.148c1.074-.098 1.953-.586 2.734-1.758.195.195.195.293 0 .684-.781 1.074-1.66 1.465-2.441 1.27-.488-.196-.488-.196-.293-.196" fill="none" stroke="#fff" stroke-width="1.954" stroke-linecap="round" stroke-linejoin="round" stroke-miterlimit="2.613"/><path d="M102.186 131.402l1.66-.781c.586-.979.488-1.662-.488-2.15-1.66.879-2.639 1.662-2.932 2.443l-1.172 4.104c0 2.734.195 4.592.293 5.178l.195 1.465.195-1.074c0-3.811.098-5.764.293-6.254.489-1.466 1.174-2.442 1.956-2.931zM147.418 132.867l.684-.977c.195-.098 0-.488-.293-.586l-1.465.098-.391.488c.488 5.08.684 8.01.488 9.184l.195.098.293-6.84.489-1.465zM160.02 156.998c1.076 0 1.955-.488 2.541-1.66.391 0 .391.195 0 .684-.586 1.172-1.465 1.465-2.441 1.172-.491-.001-.491-.001-.1-.196z" fill-rule="evenodd" clip-rule="evenodd" fill="#fff"/><path d="M160.02 156.998c1.076 0 1.955-.488 2.541-1.66.391 0 .391.195 0 .684-.586 1.172-1.465 1.465-2.441 1.172-.491-.001-.491-.001-.1-.196" fill="none" stroke="#fff" stroke-width="1.954" stroke-linecap="round" stroke-linejoin="round" stroke-miterlimit="2.613"/><path d="M67.209 167.939l-.391 3.029c-2.735.391-4.885 1.66-6.154 3.811-1.759 2.93-2.736 7.912-2.736 15.143l-6.057-.391c-.195-6.449-.684-10.355-1.172-11.822-.782-2.832-3.225-4.299-6.937-4.396l-.391-5.861c9.966-1.466 17.977-1.368 23.838.487zM90.657 164.814l-.684 12.016.293 9.965c-.978-.488-2.54-.488-4.689 0l-7.132 1.172c-3.908.293-6.546-.488-8.011-2.637-.977-1.758-1.27-4.689-.977-8.793.293-5.08.293-8.598-.195-10.551 3.322.488 6.351.488 9.184 0 .586.781.977 4.689.782 11.723 0 2.248.195 3.713.293 4.396.391 1.074 1.172 1.76 2.638 1.76 1.27-.195 2.149-.783 2.638-2.248l.292-4.396-.292-12.406h5.86v-.001zM94.662 186.307l12.896 1.27c4.104 0 6.545-3.516 7.131-10.551.879-8.793-1.953-12.994-8.598-12.699l-12.993.977c1.564 7.52 2.053 14.458 1.564 21.003zm14.557-8.11c-.195 3.713-1.465 5.668-4.104 5.668-2.637 0-3.908-1.955-4.104-5.668-.098-3.906 1.174-5.861 4.104-5.861 2.737 0 4.201 1.955 4.104 5.861zM129.539 169.504c-.195 1.66-.488 2.832-1.27 3.613-.879.783-2.639 1.271-5.08 1.271-4.201 0-6.35-1.564-6.35-4.885-.195-3.029 1.953-4.689 6.35-4.689s6.545 1.661 6.35 4.69zM128.27 176.537c-.879 3.713-.879 7.816-.391 11.918-4.689-.488-7.816-.488-9.281 0 .195-4.59-.098-8.498-.977-11.918 2.149.684 5.568.684 10.649 0zM134.131 183.865c1.564 2.246 4.494 3.418 8.598 3.418s6.838-1.172 8.598-3.418c1.367-1.76 2.148-4.592 2.441-8.305.488-3.908 0-6.643-1.074-8.305-1.465-2.441-4.787-3.615-9.77-3.615-5.08 0-8.5 1.174-10.16 3.615-1.074 1.662-1.465 4.396-1.074 8.305.292 3.713 1.074 6.545 2.441 8.305zm7.328-10.748c.488-1.172 1.758-1.758 3.516-1.758 1.857 0 3.127.586 3.811 1.758.488.783.586 2.443.586 4.592-.098 2.053-.293 3.518-.781 4.494-.684 1.174-1.758 1.857-3.42 1.857-2.734 0-4.102-2.15-4.199-6.352-.197-2.147-.001-3.808.487-4.591zM177.605 168.428c1.074 1.564 1.465 4.396.977 8.305-3.809-1.172-8.01-1.66-12.406-1.465l-.293-1.367c-.488-.49-1.369-.588-2.639-.588-2.148 0-3.125.588-2.93 2.053 0 1.465 3.613 2.148 10.941 2.148 4.689 0 6.838 1.76 6.643 5.373-.195 2.248-1.172 3.908-2.637 4.885-1.467.979-3.908 1.467-6.938 1.271-4.104 0-7.033-.488-8.793-1.564-1.953-1.172-2.93-3.125-3.125-5.861l7.131.781c-.098 1.271.488 1.955 2.15 1.955 1.66 0 2.441-.488 2.441-1.467a1.521 1.521 0 0 0-.781-1.758l-2.932-.488c-2.148-.195-3.809-.488-4.787-.977-1.758-.977-2.734-2.639-3.027-4.885-.391-4.299.977-7.035 3.908-8.305 1.465-.879 4.199-1.172 8.107-1.172 4.594.001 7.526.977 8.99 3.126zM40.148 165.01c1.27 1.758 1.661 4.982.977 9.77-4.591-1.467-9.476-1.955-14.459-1.857l-.391-1.562c-.489-.488-1.465-.684-3.224-.684-2.442 0-3.615.781-3.419 2.441.195.783.781 1.467 2.149 1.76l10.746.684c5.374 0 7.914 2.148 7.816 6.35-.195 2.736-1.172 4.689-2.931 5.861-1.856 1.174-4.592 1.662-8.304 1.467-4.787 0-8.206-.684-10.258-1.76-2.442-1.465-3.615-3.809-3.81-7.229l8.499.977c-.292 1.66.489 2.443 2.638 2.443 1.759 0 2.54-.588 2.735-1.76s-.195-1.758-.782-2.148l-3.614-.586-5.667-1.174c-1.954-.977-3.126-2.734-3.322-5.568-.488-4.885.879-8.107 4.299-9.77 1.759-.977 4.982-1.465 9.574-1.465 5.375-.001 8.99 1.366 10.748 3.81z" fill-rule="evenodd" clip-rule="evenodd"/><path d="M39.953 172.922c-4.494-1.465-9.379-1.953-14.654-1.758l-.293-1.66c-.488-.49-1.466-.586-3.126-.586-2.442 0-3.517.781-3.419 2.441 0 1.758 4.298 2.541 12.7 2.541 5.569 0 8.207 2.148 7.816 6.252-.098 2.734-1.075 4.689-2.931 5.861-1.563 1.074-4.396 1.562-8.304 1.465-4.689 0-7.913-.684-10.062-1.855-2.442-1.465-3.615-3.713-3.712-7.133l8.304 1.174c-.195 1.465.586 2.051 2.54 2.051 1.856 0 2.833-.488 2.833-1.562.098-1.174 0-1.857-.879-2.15l-3.517-.488-5.569-1.27c-2.149-.977-3.224-2.932-3.419-5.764-.488-4.885.977-8.109 4.396-9.77 1.758-.781 5.08-1.27 9.476-1.27 5.471 0 9.086 1.27 10.747 3.711 1.268 1.858 1.561 5.08 1.073 9.77zM141.459 185.525c4.006 0 6.936-1.172 8.596-3.42 1.271-1.66 2.15-4.396 2.639-8.305.293-3.906-.195-6.74-1.367-8.303-1.467-2.346-4.689-3.42-9.77-3.42-4.982 0-8.305 1.074-9.867 3.42-1.174 1.562-1.467 4.396-1.174 8.303.195 3.908.979 6.645 2.248 8.305 1.66 2.249 4.591 3.42 8.695 3.42zm6.643-9.769c-.195 4.396-1.465 6.447-4.201 6.447-2.637 0-4.104-2.051-4.299-6.447-.098-4.299 1.174-6.35 4.104-6.35 3.126 0 4.591 2.051 4.396 6.35zM65.842 166.084l-.293 3.322c-2.735.098-4.689 1.27-6.155 3.516-1.856 2.834-2.833 7.816-2.833 15.045h-5.959c-.195-6.74-.488-10.746-.977-12.211-.977-2.639-3.322-4.104-7.034-4.299l-.293-5.861c9.867-1.465 17.682-1.27 23.544.488zM89.289 163.055l-.489 12.017.195 9.965c-.977-.488-2.442-.488-4.591 0l-7.328.977c-3.908.488-6.447-.488-7.815-2.637-.977-1.467-1.27-4.398-1.075-8.598.293-5.08.293-8.695 0-10.648 3.224.488 6.155.488 8.89 0 .685.879.978 4.787.88 11.625 0 2.441.098 3.908.293 4.494.293 1.367 1.172 1.855 2.638 1.66 1.27-.195 2.052-.781 2.54-2.148l.391-4.396-.195-12.311h5.666zM93.392 184.549l12.995 1.27c4.102-.195 6.545-3.615 7.229-10.453.781-8.891-2.15-13.189-8.793-12.701l-13.091.879c1.66 7.327 2.149 14.263 1.66 21.005zm14.46-8.305c-.098 4.006-1.465 5.959-4.006 5.959-2.639 0-3.908-1.953-4.104-5.959-.195-3.811 1.27-5.764 4.104-5.764 1.758 0 2.932.684 3.518 1.855.488.782.683 2.054.488 3.909zM121.92 163.152c-4.299 0-6.352 1.662-6.254 4.787.197 3.029 2.15 4.689 6.254 4.689 4.201 0 6.35-1.66 6.35-4.689.097-3.125-1.954-4.787-6.35-4.787zM116.547 174.779c.781 3.418.977 7.326.781 12.016 1.66-.684 4.689-.684 9.281-.195-.488-4.006-.293-8.109.488-11.82-5.079.488-8.597.488-10.55-.001zM176.434 166.572c1.172 1.855 1.465 4.592.977 8.305-3.908-1.076-8.012-1.564-12.408-1.467l-.293-1.27c-.488-.488-1.27-.684-2.734-.684-2.15 0-3.127.684-2.932 2.148 0 1.467 3.518 2.15 10.846 2.15 4.785 0 6.838 1.758 6.74 5.373-.195 2.443-.977 4.006-2.443 4.885-1.465.977-3.906 1.465-7.229 1.465-4.006-.195-6.838-.684-8.598-1.66-2.148-1.172-3.125-3.225-3.125-6.057l7.229.879c-.391 1.074.293 1.758 2.051 1.758 1.467 0 2.346-.488 2.346-1.27.098-.879-.195-1.465-.684-1.855l-3.127-.49-4.689-.977c-1.758-.781-2.734-2.441-2.93-4.885-.488-4.004.781-6.838 3.711-8.303 1.662-.783 4.396-1.076 8.207-1.076 4.688.002 7.62.98 9.085 3.031z" fill-rule="evenodd" clip-rule="evenodd" fill="#cc262d"/><path d="M19.437 161.59c-2.735 1.27-4.005 3.42-4.201 6.154-.488 2.15-.195 4.104.684 5.861.293.195.489.195.293-.293-.684-2.148-.782-3.906-.684-5.275l.391-1.074v-.195c.489-.781 1.466-1.758 2.931-2.932l2.54-.488 1.954-.195 1.466-1.465c0-.488-.293-.781-.977-1.074-1.564-.196-3.03.097-4.397.976zM14.748 179.762c0 2.148.684 3.615 2.149 4.396 1.954 1.172 3.029 1.66 3.517 1.855l-.781-.879-3.419-2.932-.195-1.465-.098-.781-1.173-.194zM165.688 164.131l-4.592.488c-2.932 1.172-4.494 2.93-4.885 5.373-.488 2.148-.488 4.104.391 5.764l.293-.391c-.488-1.76-.684-3.42-.293-4.885l.586-1.27c.488-.783 1.66-1.662 3.127-2.248l2.637-.488h1.955c.781-.195 1.465-.684 1.562-1.172.195-.488-.098-.781-.781-1.171zM156.113 180.738c.098 2.148.977 3.42 2.441 4.299l3.518 1.465c.195-.195-.098-.391-.781-.684-2.248-1.172-3.615-2.148-3.713-2.736l-.195-1.367-.293-.781-.977-.196zM71.899 165.303H69.75c-.489 0-.782.293-.586.977-.391 7.521-.391 12.016 0 13.873 0 .293.098.293.293.098.293-.293.684-3.713.977-10.258l.196-.781.586-1.467 1.172-1.465c.195-.294 0-.684-.489-.977zM97.789 164.031l-2.15.1c-1.465-.49-2.247-.295-2.247.879 1.27 7.131 1.759 11.723 1.661 13.773l.488.195c.488-.488.781-3.906.977-10.258l.098-.781.685-1.465.977-1.367c.195-.293-.001-.586-.489-1.076zM120.258 175.561h-1.27c-.879-.195-1.367.195-1.367.684.684 4.982.879 8.109.684 9.574h.293l.684-7.035.195-.586.293-.977.684-.879-.196-.781zM44.251 165.596c-.684 0-.977.195-.879.488-.098 2.344-.098 3.908.391 4.787h.293l.195-1.953c.098-1.174.586-1.857 1.075-1.955l.684-.195.684-.293 1.465-.488c.489-.195.098-.391-.684-.391h-3.224zM81.375 183.572c1.075-.195 2.052-.686 2.735-1.857.195.195.195.391 0 .684-.781 1.174-1.661 1.467-2.442 1.271-.488 0-.488 0-.293-.098z" fill-rule="evenodd" clip-rule="evenodd" fill="#fff"/><path d="M81.375 183.572c1.075-.195 2.052-.686 2.735-1.857.195.195.195.391 0 .684-.781 1.174-1.661 1.467-2.442 1.271-.488 0-.488 0-.293-.098" fill="none" stroke="#fff" stroke-width="1.954" stroke-linecap="round" stroke-linejoin="round" stroke-miterlimit="2.613"/><path d="M104.822 183.865c1.465-.195 2.443-.783 3.225-2.15.293.195.293.391 0 .684-.977 1.271-1.955 1.76-2.736 1.662-.684-.196-.879-.196-.489-.196z" fill-rule="evenodd" clip-rule="evenodd" fill="#fff"/><path d="M104.822 183.865c1.465-.195 2.443-.783 3.225-2.15.293.195.293.391 0 .684-.977 1.271-1.955 1.76-2.736 1.662-.684-.196-.879-.196-.489-.196" fill="none" stroke="#fff" stroke-width="1.954" stroke-linecap="round" stroke-linejoin="round" stroke-miterlimit="2.613"/><path d="M144.975 183.377c1.174 0 2.15-.49 2.834-1.662.098 0 .098.195 0 .488-.879 1.174-1.465 1.662-2.344 1.467l-.49-.293z" fill-rule="evenodd" clip-rule="evenodd" fill="#fff"/><path d="M144.975 183.377c1.174 0 2.15-.49 2.834-1.662.098 0 .098.195 0 .488-.879 1.174-1.465 1.662-2.344 1.467l-.49-.293" fill="none" stroke="#fff" stroke-width="1.954" stroke-linecap="round" stroke-linejoin="round" stroke-miterlimit="2.613"/><path d="M135.695 163.348c-1.564.783-2.541 1.662-2.932 2.443-.781 2.148-1.27 3.615-1.27 4.104l.293 5.178.391 1.465.098-1.172c-.098-3.225-.098-5.373.391-6.154.781-1.662 1.465-2.639 1.953-2.932l1.564-.977c.684-.977.489-1.662-.488-1.955zM120.258 163.641c-1.66.391-2.637.686-2.734 1.174-.879 1.172-1.369 1.758-1.369 1.953l.197 2.443.293.684.391-.488c-.195-1.662-.195-2.639.098-2.932l2.148-1.465 1.465-.391c.685-.488.489-.783-.489-.978zM50.406 173.605l-.684-.488c-.293.195-.293.293-.098.783.782 1.172 1.075 2.344 1.271 3.418l.293 8.305.488-.488-.098-8.402-1.172-3.128z" fill-rule="evenodd" clip-rule="evenodd" fill="#fff"/><path d="M90.461 66.337v-.489l-.195-.195.195-.488v-.488l-.488-1.271-1.466-.977c-.781-.684-1.661-.977-2.149-.977l-.488-.196-.586-.195-.978-.488h-.195l-1.172-.489-.293-.293-1.465-.195-.684-.098-.782-.391-1.27-.586-.488-.391-.977-.488-.88-.098-2.735-.978-.684-.488-.488-.195-.782-.782-1.172-.684-.586-.782-.977-.879-.879-.978-.098-.586-.391-.488-.098-.488-.488-.684-.684-1.758.195-2.149v-.489l.488-2.442.098-.293v-.489l.391-.488v-.391l.489-.293.293-.684.684-.977c.098-.781.488-1.27.586-1.27h-.293l-.782.195-.879-.391-1.27-.098-1.27.293-1.661-.293-1.173.489-1.465-.391h-.782l-.684.195h-.489l-.586-.293-1.465.293-1.368-.293h-.586l-.977.489-1.465-.195-1.661.293-1.954-.098-.489.098h-.683l-2.052-.098-2.149.586-.977.488-.195.391.684.586 1.954 2.931 1.172.977.098.684.391.488.586.489.488.781.489.391.391.489 1.563 2.051.879 1.465 1.563 1.661.196.781.977.879.782 1.465 1.172 1.075v.391c.195.782.488 1.075.977 1.075l.781 1.465c1.172.879 1.661 1.368 1.661 1.856l.195.293.586.782.977 1.465.391.391h-.195l.488-.195h.684l.098-.196h.195l.489-.097 1.465-.391.684-.293h1.465l.781-.488h.684l.586-.195.684-.489v.196l.488-.489h1.173l.293-.195.977-.098.293.098v-.586l.195-.488.684-1.466.293-.391c0-.293.293-.488.977-.488h.196l1.465.488h.098l1.465 1.465.684.977c.977 1.856 1.172 3.322.488 4.104l-2.247 1.172-.488-.195-.391.195.684.488.293.293.977.684.684 1.27.293.293h2.149l.293-.098.879-.195h.098l.488.195h.391l.098-.195 3.614-.195.684-.098.293-.195.977.195.293-.391v.196l.488-.782h-.097c-.489 0-.879-.195-.977-.488v-.391l.098-.098h.391l-.195-.488v-.195l.684-.196 1.27.393zm10.551.488l.195-.879.979-.781 1.758-1.173.879-.293h.586l1.369-.293c.293-.391.586-.488.781-.391l.488.684.488.293 1.172.88 1.074.488h.684l1.271.293 1.367-.293h.586l.977-.195h.881l1.465-.977c.098-.196.293-.293.781-.489l.684-.195.781-.586.195-.195.979-1.466.977-.977.977-1.466.488-.684.293-.293.684-1.271.293-1.661v-5.178h.195c.098-.391.49-.488.783-.391h.977v-.096l.293-.391 1.855-1.074.488-.488.098-.391.391-.293.293-.781.195-.684.1-.195.391-.782v-1.172l.098-.098 1.465.489.977.098.684.488 1.76.684h.879l.977.488 1.953.489.293.195 1.174.293 1.27.488.781.195 1.465.586h.881l.977.391.977.098.977.488.781.195.781.293 1.467.879-.098.782-.977.781-.686.195-.488.978-.293.195-1.367 1.27-.488.195-.488.293h-.098l-.391.488c0 .293-.293.489-.781.489l-.295.195-1.172 1.075s0 .195-.195.391l-1.562.977-.879.586h-.098l-.977.489h-.197l-.781 1.172-1.172.488-1.172 1.172-2.443 1.758-.781.684-1.465 1.075-.684.488-.098.196-.391.195-.293.488-.49.098h-.195l-.781.879-2.148 1.563-.488.195-.586.684-.393 1.075.197.684v.489c0 1.172.195 1.954.293 2.149l.195 1.465.293 1.27v.488l.195.781.293 2.345.391.781.098.195.684 2.736v1.758l.293.879h-.098l.977 5.862v.488l.488 2.442.293.978.49 1.27v1.465l.195.781.098.686.391.488v1.465l.098 1.66v2.053l.488 1.465-.098 1.66v1.662h-.195l-.293.781-.488.293-1.174-.293-.977-.488h-.293l-.879-.781h-.293l-3.127-1.857-1.27-.488-1.465-.977-1.76-.977-1.172-.977-.977-.488h-.195l-.488-.295-1.27-1.172-1.271-.488-1.953-1.27v-.195l-3.127-1.955-1.465-.781-1.172-.977-2.053-.977-.195-.195-.195-.978v-1.075l-.098-.391.098-.098.488.293.391.684.488.489.783.587.977.195 3.613-.195.979-.098 1.465-1.368c.781-.489 1.27-.977 1.465-1.075h.098l.488-.684c.197-.293 0-.684-.098-.782l-.391.098h-.586v.196-.196h-.391l-.977-.293h-.098l-1.172-.293-.293-.195-.979-.293-.195-.195-3.418-1.466h-.488l-.686-.195.195-.293.195-3.224-.195-.489v-.684l-.684-2.247-.098-.684-.195-1.172-.293-.586-.195-.684v-.195l-.293-.293-.391-1.173.684-.098 2.443-.488h.684l.586-.195h.488l.391.293.293.488v.196l.684.488 2.248.489.684-.195 1.27-.978.195-.586h.586l.977-.391h.197l.488-.488.293-.586.488-.489.391-.488.293-.195v-.195c.293-.489.195-1.075-.684-1.563l-.488-.488.488-.195.488-.293.684-.879v-.586l-1.465-2.345-.781-.098-.393-.195-.488-.195-.488.391-.977.098-.488-.488.195-.586-.488-.977h-.195l-.781-.489h-1.955l-.492.295-.684.684v.098l-.293.488.293 1.368h-.781l-1.172.098v-.098l-.488.098h-1.467l-1.074.195h-1.953l-.881-.195-.488-.098h.686l.195-.489-.195-.879-.293-.586h-.393v-.001zM97.301 4.886l-.783.489-.391.977-.488.196-1.563 2.442v.195l-1.661 3.028-1.172 1.661v.195l-.586.782-.391.781-.782.879-.684 1.467-.293.489-.684 1.074-.586 1.465-.684.879-.683 1.075-.977 1.368-.293 1.075-.782 1.172-.488.977-.195.195-.293.488-.489.489-.391 1.075-.977 1.856v.293h1.856v-.195.195h.586l1.954.293.391.195 1.075-.293h.391l.489-.195h2.54c.195-.488 0-.684-.293-.684l-1.174-.586-.781-.684.293-.293h.977l.685.098h.195l.781.879.782.488h.391v-.195l-.391-.684-.293-.488-.782-.586-.195-2.149-.195-.684.195-.781v-.685l.293-.781.684-.781.977-.684.977-.489c.195-.195.684-.293 1.465-.488l.977-.293.977-.195.978-.293.488.097h1.758l.977-.097.686.097.195-.097.293.097.977-.097h.195l1.465.488h.098l.879.098.979.391-.49-.977-.488-.489-.977-2.149v-.293l-.391-.489v-.977l-.781-1.172-.684-.782-.098-.977-.391-.88-.586-1.465-.195-1.075-1.271-2.443-.488-.684-.195-.684-.195-.293-.977-1.27-.293-.391h-.488l-.491.489zM88.8 67.607l.391.195-.391-.195zm-5.47 11.724l-.195-.489h-.782l-.684-.293-2.931.097-1.27-.586h-1.661l-.684.489-.293.097-.195.489-.977.684-.489.488-1.075.684-.488.293-1.856.293h-1.27l-.489-.293-.782-.488-1.465-.684c-.488 0-.879.391-1.172 1.172l-3.419 5.08-.488.586-.685 1.368-.488.293-.586.489-1.466.781-1.367.391-.293.782-.782 1.465-.684 2.638-.488 1.27v1.271l-.684.977v1.465l-.586.881v.488l-.879 3.223c-.098.783 0 1.174.488 1.174h1.368l.977-.391 1.563-.783.488-.195 2.931-1.074h.391c.489 0 .978-.195 1.563-.684h.488c.195-.293.488-.488.977-.488l1.368-.488 1.759-.979 1.661-.684 1.075-.488 1.172-.293h.293c.489-.684 1.172-.977 2.149-1.172h.489l.781-.293 1.954-.977.195-.195c.488.195.977 0 1.661-.587l.098-.195 1.368-.293 1.27-.879h.782l.391-.098h.098l1.368-.684 1.563-.684-1.27-1.27-.684-.977-.586-.489-.488-.977-.195-.684V87.83h-.195.195v-.391l.195-.098v-.879l.098-1.758.391-1.27v-.684l.293-1.172v-.098l.195-.684V80.6l.293-.488.682-.781z" fill-rule="evenodd" clip-rule="evenodd" fill="#e19638"/><path d="M54.998 36.344l.586.195.684.098h2.931l.488-.098.293.098.489-.098h1.661l.978-.195 1.172.195.977-.195.977.195 1.563.293h1.954l.488.196 1.172-1.172 1.172-.488.977-.978.098-.488 1.465-.488.879-.489h.586l.488-.195.489-.293.977-.195 1.172-1.27.293-1.172.977-.977.195-.586c0-.195.195-.488.488-.977l.782-1.661.684-.489.195-.293.293-.489.293-.977.391-.489c.489-.391.782-.879.782-1.368l.293-.782.879-.782.098-.977 1.368-1.172.293-1.27.977-1.368.684-1.465.977-1.271v-.781l.293-.391.684-.782.293-.782.977-1.172.195-.782.586-.488.489-.977.488-.684.195-.489.782-.684 1.172-1.27.49-.293h.488l1.27.293.684.977.684.781.781 1.661.783 1.465.195.684.488.586.195 1.465.781.977.293 1.661.684 1.172.293.098.488 1.368.684 1.563 1.467 2.833.781 1.563v.488h-.098v.196l1.074.489.685.98h.195c1.76 2.442 2.932 3.615 3.518 3.615l.977-1.661v-.293l.488-.391.391-.489.586-.293 1.174-1.172.488-.293h1.172l1.953 1.758.295.685-.686.977-1.27.195-.488.293h-.488l-.488.195-.293.098-.879.977h.684l.781.195h1.66l.977.195v-.195l1.662.293.488.391.586.293 2.346.977c.293.196.586.293.781.293l.293.488.488.391.488.782.488.488.391.782.293.488.195.489.977 1.368v.293l.293.195-.195.293.391.684.1.489v.781l.488 2.442c.195.684.879.977 1.953.977h.195l.977.195.781.293h.686l.684.293 1.758.488.977.488h.684l1.467.489 1.27.391.781.489.977.098.684.391.49.293h.488l1.758.488.879.195.586.489.977.097.49.489.488.195c1.172.684 1.855 1.27 1.66 2.149-.195.781-.684 1.562-1.465 2.052l-.781.488-.393.684-.781.489-.684.684-1.27.782-.781 1.172-1.172.489-.979 1.075-1.66.879-.293.489-.195.098-.586.488-.977.489-.686.879-1.465.782-1.172 1.172-.781.293-.977 1.271-.686.195-.098.195-.684.782-.488.195-1.27.781v.196l-1.172 1.074-.488.196-.783.488-.879 1.27-1.074.488-.879.684v1.758l.488 1.368.391 2.052.098 1.856.391.782.098 1.465.391.781v1.465l.293 1.368.293 1.954.684 1.758v1.759l.686 1.661-.195 1.465.488 2.149.195 1.955.488 1.27v2.15l.098.781.195.195.195 1.758.488 1.465-.391.783v.977l.195.391.195.586.098 1.367v1.955l.391.488-.488 1.953-.879.977h-2.443l-1.562-.879-.879-.488-.488-.293-2.443-1.27-1.465-.979-.977-.391-.586-.488v-.098l-1.467-.879-.684-.293-1.27-1.27-1.172-.488-1.662-1.369-1.562-.586-.879-.879c-.098-.488-.586-.586-1.564-.586l-.684-.488-1.758-1.662-1.367-.291-.586-.686-1.857-1.172h-.098v.684l.293 1.27 1.172.49.588.488.488.391.195.293c.488 0 .977.488 1.465 1.66l.488.488v.979l.684 1.562-.879 2.148-.488.293-.781.391v.098l-.195.195-2.541.686h-.879l-.488.293-.781.195-5.666.488-.88.293-.977-.293-1.27.293h-2.638l-.293-.293h-1.954l-1.172-.488H85.87l-.293-.195-3.224-.684-.489-.1-.684-.488h-1.66l-1.954.098-.586.195-1.661-.293h-.782l-.684-.391h-.781l-.684-.586-.684-.195c-.293-.195-.586-.488-.781-1.172v-1.074l.293-1.467v-.488l.195-.391.293-.488 1.465-1.562h.391l1.27-1.174h.489c.195-.195.488-.291 1.172-.291h.098l.879-.197.293-.195 2.735-.488h.391l.293.195h.195v-.194l.782.195h.293v-.195l1.465.195 1.368-.195 1.074.391.489-.977v-.684l.195-.977.196-.488v-1.661l-.196-.098-.195-.391h-.293l-1.27-.488-.978.391-1.172.488-.293.098-1.466.39c-.684.098-.977.489-.977.782l-.684.294-1.27.391-.977.586h-.391l-1.954.684-1.758.977-1.271.488-1.172.686-2.638.781-2.736 1.66-1.954.293-1.466.781-1.758.488-.977.391-1.368.783-1.075.293h-.488l-1.466.684-3.81.781-.488-.293c-.489-.488-.782-.781-.782-1.172l.293-1.955v-.977l.196-.098.684-1.66.098-.781v-.197l.391-.684-.195-.098.488-.684v-.488l.195-.195v-.293c.489-.488.586-1.172.586-2.149l.489-1.075.195-.391.195-.782-.195-.293.195-.489.489-1.367.098-.293.195-.489v-.488c.195-.195.195-.293-.195-.488l-.782-.195-1.172-.489-.586-.293-.684-.684-1.271-.488-.879-.586-.098-.391-.391-.293-1.075-.489-.977-.977-.684-.782h.195-.391l-.293-1.368-.488-.293-.293-1.465-.684-1.271-.195-.684-.293-.293v-.977l-.684-2.442V72.98l.195-.293.684-2.345.489-.293a.538.538 0 0 1 .488-.293l.488-.489.488-.391c.293-.098.586-.293.782-.489l.489.196.684-.293 1.075-.391.879-.098.586-.488.684-.196.977-.195 1.465-.489h.195l1.27-.098h.684l.293-.195.195-.196.488-.098h.098l.391-.195h.781l1.27-.488.489-.293v-.684l-.293-.489h-.196v-.293l-.097-.195-1.368-1.661v-.293l-1.075-.977-.684-.782-.782-.879-.195-.293-.293-.977-1.465-1.465-.19-.292-.977-1.465-.683-1.368-1.563-1.466-.879-1.27-.488-.293-.782-.879-.195-.488-.489-1.27-.293-.489-.782-.977-.391-.293-.586-.489v-.683l-1.954-1.954-1.172-1.758-.293-.684-.195-.782V37.81c.293-.489.977-.782 1.758-.782h1.661l1.172-.196h2.442l1.563-.293h.879l.097.098v-.097h4.299l.489-.196zm35.463 29.993v-.489l-.195-.195.195-.488v-.488l-.488-1.271-1.466-.977c-.781-.684-1.661-.977-2.149-.977l-.488-.196-.586-.195-.978-.488h-.195l-1.172-.489-.293-.293-1.465-.195-.684-.098-.782-.391-1.27-.586-.488-.391-.977-.488-.88-.098-2.735-.978-.684-.488-.488-.195-.782-.782-1.172-.684-.586-.782-.977-.879-.879-.978-.098-.586-.391-.488-.098-.488-.488-.684-.684-1.758.195-2.149v-.489l.488-2.442.098-.293v-.489l.391-.488v-.391l.489-.293.293-.684.684-.977c.098-.781.488-1.27.586-1.27h-.293l-.782.195-.879-.391-1.27-.098-1.27.293-1.661-.293-1.173.489-1.465-.391h-.782l-.684.195h-.489l-.586-.293-1.465.293-1.368-.293h-.586l-.977.489-1.465-.195-1.661.293-1.954-.098-.489.098h-.683l-2.052-.098-2.149.586-.977.488-.195.391.684.586 1.954 2.931 1.172.977.098.684.391.488.586.489.488.781.489.391.391.489 1.563 2.051.879 1.465 1.563 1.661.196.781.977.879.782 1.465 1.172 1.075v.391c.195.782.488 1.075.977 1.075l.781 1.465c1.172.879 1.661 1.368 1.661 1.856l.195.293.586.782.977 1.465.391.391h-.195l.488-.195h.684l.098-.196h.195l.489-.097 1.465-.391.684-.293h1.465l.781-.488h.684l.586-.195.684-.489v.196l.488-.489h1.173l.293-.195.977-.098.293.098v-.586l.195-.488.684-1.466.293-.391c0-.293.293-.488.977-.488h.196l1.465.488h.098l1.465 1.465.684.977c.977 1.856 1.172 3.322.488 4.104l-2.247 1.172-.488-.195-.391.195.684.488.293.293.977.684.684 1.27.293.293h2.149l.293-.098.879-.195h.098l.488.195h.391l.098-.195 3.614-.195.684-.098.293-.195.977.195.293-.391v.196l.488-.782.685.293.977.293-.488.391-.488.586-.489.391-1.172-.196-1.465.293-1.075.488h-2.149l-.488.195-3.126.195-.293.098-2.442-.781-.196-.489-.293-.684c-1.465-.293-2.247-.098-2.638.488l-.098.489-.195.879c-.195.782 0 1.27.781 1.27l.489-.488h.976c.488-.293.977-.195 1.368.293h.098l.684 1.856-.782 1.954-.488.586 1.27.685 1.172.293.586.195h.684l.195-.195h.488l.977-.098.293.488.684-.195 1.563-.782.391-.391.488-1.074 1.465-1.661.293-.293h.293l.195.098v.684l-.293.684-.195.586-.293.488-.196.391-.292.293v.293l-.977 1.367v.489l-.879.782-.097.488-1.368 2.149-.293 2.736-.195 1.465.195.293-.195.391v1.562l.391.689.293.488.195.293.488.391v-.195c0 .488.098.684.293.684l.977.782.293.488c.195.488.391.781.488.781l1.368.684h.293l.488.195.488.293.489.489-.683.977-.293 1.173-.195.586v.977l-.293.488c0 1.465-.293 2.148-.782 2.346H85.87l-.586-.197-1.173.295-1.27-.295-.978.295-.488-.098-.879-.197v.197h-.293l-.195.098-1.563.195-2.638.977-.195.293-1.075.684v.195l-.489.293-.488.488-.488.684-.489 1.076v1.172l.098.293.977.684.488-.293.879-1.66 1.465-1.174c.489-.098.586-.098.586 0l-.293.881-.683.584c-.488.879-.586 1.367-.488 1.66l3.126.293.977-.098.195-.684v-.781l.098-.391.195-.586.293-.979c.684-.977 1.367-1.465 2.149-1.465.196-.195 1.172-.684 3.126-1.172l.488-.195c0-.098.098-.293.586-.293h1.661l.293-.195.488.195h.685l.684.195v-.195h.293l.489.195 2.149.098.293-.098c.781 0 .977-.488.781-1.465l.195-.393.196-1.562v-.879l.488-1.466v-.098c.098-.684.293-.977.586-.977h.391v-.195c.098.489.098 1.27-.195 2.443v.977l-.195.684v.977c.391.979.391 1.564 0 2.053-.293.879-1.27 1.367-2.931 1.172h-1.563l-.489-.195-1.172.195-1.173-.293-1.954.293-.586.195-.488.098-.977.684-.685.195-.684.488-.488.098c-.782.686-1.271 1.467-1.271 2.346l.195.977.293.098 1.758.879h.195c.489.098.782 0 .782-.879l.195-.098.782-1.66c.684-.781 1.172-1.172 1.465-1.172l-.293.879-.195.586-.489.879-.293.488v.098l.195.977c0 .195.293.391 1.075.391l.977.098.195-.098h.297l.488.098v-.098l.685.098.977-.098.489-.977 1.27-1.367c.879-1.465 1.465-1.953 1.856-1.465l.098.195c.195.195.195.293 0 .781l-.781.684-.196.195-.586.781-.489.195c-.391.098-.488.586-.488 1.27l.977.295h2.442l.977-.1h.098l.195-.195h2.15l.977-.195.781-.098h.979l.488-.195h1.66l.488-.195h.098l.488-.293h1.467l.977-.488h.488l.879-1.27v-.684h-.195l-.195-.781v-1.369l-.293-.098v-.391l-.195-.293c-.098-.293-.488-.488-.977-.488l-.488-.293-.295-.488-.781-.488h-.879l-.488-.195h-.098l-.488-.488.098-1.174v-.781l-.098-.293.098-1.66-.293-1.173.195-.977-.195-.782v-.684l.488-.978.293-.293.684-.977h-.195l.391-.782.098-.879.391-.488v-.782l-.684-.782-1.172-.684-.293-1.466-.684-.977h-.098v-.977l.098-.195c0-.977.195-1.465.391-1.465v-.098l.098-.195v-.195l.195-.293.195-.977-.684-.782-.293-.977h-.684l-.979-.879.195-.488h.979l.293-.098h.195l1.953-.391h.098l.879-.098.488-.391h1.955v-.097h.781l.488-.391h.293l.391.391.291.098.293.978.391.488 1.564.488.488-.586.195-.488-.293-.489.098-.684c0-.781 0-1.27.195-1.27l.684.293.977 1.172.098.293.488-.196h.488l.197-.097.291-.684.197-.488.293-.684v-.098l-.781-.391-.686-.977c-.293-.488-.293-.782 0-.782l.391-.195.586-.488 1.467-.586-.586-.684-.391-.782-2.541.293-.391.293h-.488l-.586-.489v-.488l.098-.098v-.977l.195-.391-.977-.782-.783.293-.684.488v1.465l.195.977-.391.391-2.246-.195-1.66.195h-.783l-1.27.293h-2.148l-.979-.488-1.465.195-.195-.195v-1.27h-.098 1.562l.488.098.881.195h1.953l1.074-.195h1.467l.488-.098v.098l1.172-.098h.781l-.293-1.368.293-.488v-.098l.687-.681.488-.293h1.955l.781.489h.195l.488.977-.195.586.488.488.977-.098.488-.391.488.195.393.195.781.098 1.465 2.345v.586l-.684.879-.488.293-.488.195.488.488c.879.488.977 1.075.684 1.563v.195l-.293.195-.391.488-.488.489-.293.586-.488.488h-.197l-.977.391h-.586l-.195.586-1.27.978-.684.195-2.248-.489-.684-.488v-.196l-.293-.488-.391-.293h-.488l-.586.195h-.684l-2.443.488-.684.098.391 1.173.293.293v.195l.195.684.293.586.195 1.172.098.684.684 2.247v.684l.195.489-.195 3.224-.195.293.686.195h.488l3.418 1.466.195.195.979.293.293.195 1.172.293h.098l.977.293h.977l.391-.098c.098.098.295.489.098.782l-.488.684h-.098c-.195.098-.684.586-1.465 1.075l-1.465 1.368-.979.098-3.613.195-.977-.195-.783-.587-.488-.489-.391-.684-.488-.293-.098.098.098.391v1.075l.195.978.195.195 2.053.977 1.172.977 1.465.781 3.127 1.955v.195l1.953 1.27 1.271.488 1.27 1.172.488.295h.195l.977.488 1.172.977 1.76.977 1.465.977 1.27.488 3.127 1.857h.293l.879.781h.293l.977.488 1.174.293.488-.293.293-.781h.195v-1.662l.098-1.66-.488-1.465v-2.053l-.098-1.66v-1.465l-.391-.488-.098-.686-.195-.781v-1.465l-.49-1.27-.293-.978-.488-2.442v-.488l-.977-5.862h.098l-.293-.879v-1.758l-.684-2.736-.098-.195-.391-.781-.293-2.345-.195-.781v-.488l-.293-1.27-.195-1.465c-.098-.195-.293-.978-.293-2.149v-.489l-.197-.684.393-1.075.586-.684.488-.195 2.148-1.563.781-.879h.195l.49-.098.293-.488.391-.195.098-.196.684-.488 1.465-1.075.781-.684 2.443-1.758 1.172-1.172 1.172-.488.781-1.172h.197l.977-.489h.098l.879-.586 1.562-.977c.195-.195.195-.391.195-.391l1.172-1.075.295-.195c.488 0 .781-.195.781-.489l.391-.488h.098l.488-.293.488-.195 1.367-1.27.293-.195.488-.978.686-.195.977-.781.098-.782-1.467-.879-.781-.293-.781-.195-.977-.488-.977-.098-.977-.391h-.881l-1.465-.586-.781-.195-1.27-.488-1.174-.293-.293-.195-1.953-.489-.977-.488h-.879l-1.76-.684-.684-.488-.977-.098-1.465-.489-.098.098v1.172l-.391.782-.1.195-.195.684-.293.781-.391.293-.098.391-.488.488-1.855 1.074-.293.391v.098h-.977c-.293-.098-.686 0-.783.391h-.195v5.178l-.293 1.661-.684 1.271-.293.293-.488.684-.977 1.466-.977.977-.979 1.466-.195.195-.781.586-.684.195c-.488.196-.684.293-.781.489l-1.465.977h-.881l-.977.195h-.586l-1.367.293-1.271-.293h-.684l-1.074-.488-1.172-.88-.488-.293-.488-.684c-.195-.098-.488 0-.781.391l-1.369.293h-.586l-.879.293-1.758 1.173-.979.781-.195.879h-1.562v-.879l.293-.586.195-.195h.293l.488-.782.488-.391 1.467-1.27.684-.195h1.465l.977-.586.588-.391.488-.293c.391-.195.391-.684.195-1.465v-2.247l.293-.978.488-.977.488-1.368.488-.782.488-.684.688-.784.781-.782h.195v-.195l1.174-1.172.293-.488.293-.586.391-.391.488-.293v.195l-.195.488-.195.098v.977l-.293.684-.684.781-1.076 1.661-.879.977-.293.976-.977 2.149v2.247l-.195.977c-.098.684.195 1.465.879 2.247l.977.684.586.293h.881l.488.195v-.195l1.074.195h.391l.977-.195h.586l.488-.098.686-.684h.488l.293-.293h.488l.195-.195.684-.293.781-.391.293-.782.391-.195.783-.782.195-.293.488-.391.586-1.27.391-1.172.098-.293v-.489l.488-1.758v-.489l.391-1.661-.391-.684v-.78c-.293-.782-.293-1.172-.098-1.172l-.391-.586v-.195l-.098-.977-.684-1.271-1.172-.879-1.271-1.466-.488-.781-.781-.489-.684-.488-.195-.195v-.098l-.488-.391-.781-.586-1.174-.488-.977-1.368-1.074-.488-.684-1.075-2.736-1.661h-.195l-1.27-.782-1.66-.684-1.174-.977-1.562-.195-1.172-.977H101.5l-1.562-.782-.977.195-.977-.391-1.466-.098h-.879l-.488.098-.586.391-.489.293h-.488l-.879.489-4.201 1.27h-.781l-.879.195-1.466-.195-3.712-.098-.488.098h-2.149l-.488.195-.293.293-3.224 1.173-.196.293-.977.488-.781.684-.391.196-1.27 1.075-.293.391-.391.098-.782 1.172v.195l-.195.098-.782 1.368c-.488.293-.782 1.075-.782 2.54l-.391.879-.098.977v2.052l.977 1.661.781 1.27.489.488.293.488 1.954 1.856 1.661 1.075 1.466.977.781.391.977.098 1.368.489-.391-.489-1.563-1.465-.392-1.076-.488-.684.195-.195v-.586l.195-.195c.488-.782.977-.782 1.074-.196l.196.391c-.196.098-.196.586 0 1.27l.293.977 1.661 1.172.684.977.586.293.684.782 1.465.879h.977l.684.293.586.489h.391l.586.195.391.098.293.391h.293l.977.097h.391l.781.489.978-.293h.293l.879-.196h2.052l.684.391h1.172l.098-.195.391-.489 1.466-.293h.293l1.27-.977.977-.391h.391l.293-.098.977-.977.49-.879 1.172-1.563v-.879l-.684-1.27c.293-.195.781 0 1.66.488l.488.293.098 1.172-.293.488-.195.684-.586.586-.879.489-.293.977-1.467 1.465-1.172.391-1.27.782h-.488l-1.173.293-.586.488h-.488l-.977.489h-.977l-.488-.293-1.661.196-.49.098-.488-.098v.488l.195.293h.293l.684.781.488 1.172v2.149l-.195.293-1.466-.291zm1.661-2.149zm-1.661-2.736zm12.408-6.839zm-26.867-2.637zm47.48 2.149zm-2.246 5.666zm-7.132 3.908v-.195.195zm-3.42-.489zm.293-12.211zm-7.62 11.528zm22.567 8.792zm.49 3.322zm-11.822 18.171v.196-.196zm2.541-20.125zm-1.955-4.396zm-4.494 9.378zm-2.637 26.769zm-14.166 3.224zm-5.862-14.166zm-.293 0zm.098-20.321zm9.477-68.289l-.783.489-.391.977-.488.196-1.563 2.442v.195l-1.661 3.028-1.172 1.661v.195l-.586.782-.391.781-.782.879-.684 1.467-.293.489-.684 1.074-.586 1.465-.684.879-.683 1.075-.977 1.368-.293 1.075-.782 1.172-.488.977-.195.195-.293.488-.489.489-.391 1.075-.977 1.856v.293h1.856v-.195.195h.586l1.954.293.391.195 1.075-.293h.391l.489-.195h2.54c.195-.488 0-.684-.293-.684l-1.174-.586-.781-.684.293-.293h.977l.685.098h.195l.781.879.782.488h.391v-.195l-.391-.684-.293-.488-.782-.586-.195-2.149-.195-.684.195-.781v-.685l.293-.781.684-.781.977-.684.977-.489c.195-.195.684-.293 1.465-.488l.977-.293.977-.195.978-.293.488.097h1.758l.977-.097.686.097.195-.097.293.097.977-.097h.195l1.465.488h.098l.879.098.979.391-.49-.977-.488-.489-.977-2.149v-.293l-.391-.489v-.977l-.781-1.172-.684-.782-.098-.977-.391-.88-.586-1.465-.195-1.075-1.271-2.443-.488-.684-.195-.684-.195-.293-.977-1.27-.293-.391h-.488l-.491.489zm21.492 36.05l2.148 2.052v.195l.295.293 1.66 2.149 1.562 1.661 1.662.097.293-.097h.488l.488-.196.391-.293.586-.195.879-.781h-.195l.293-.488.684-1.661v-1.661l-.293-1.563v-.391l-.195-.489v-.097l-.195-.489-.098-1.367-.488-1.075-.391-.879-.488-.586-.293-.879-.977-.488-.686-.977-1.27-.977-.781-.488-.977-.098-.879-.488-1.955-.489-1.074-.195-.391.195-.781-.391h-.684l-.979-.293h-.977l-1.465-.293-.586-.488h-.391l-1.074-.684-.979-.977-1.172-.782.195-.195-.195-.293-.488-.391-.684-.293-.977-.684-1.076-.488-.391-.488-.977-.293h-1.074l-.977-.489h-.977l-.686-.196h-1.27l-.879-.097-.977.097h-.977l-.978.489h-.977l-.977.684-.782.293-.488.684-.489.293-.293.391-.391.586-.098 2.149.586 1.172.977.586.195.391 2.247-.195h.879l1.759.195h.293l1.367.098v-.098l1.562.586.49.195 1.465.684c.879.098 1.367.488 1.367.586.488-.098 1.27.195 2.541.879l1.367.586.781.879.684.098h.098l.684.391.979.782.195.195 1.562.977 1.465 1.075.686.684.488.195v.098h.293v.196l.195.195 1.465.977.293.098v.195l.205.194zm-2.148-1.661zm.488-12.993l.977-.488h.488c.488 0 .488-.195.391-.684l-.879-.489-1.074.684c-.881.586-1.369 1.465-1.369 2.247h.197v-.195l.195-.098.586-.391.391-.293.097-.293zm-19.539 6.447l1.172.195.488.293c.781.391 1.172.879.977 1.661v.489c-.195.195-.488 0-.684-.489l-.586-.684-.977-.098c-.488-.195-.684-.391-.684-.684v-.195l.294-.488zm-6.156 6.546h.293l.684.292.195 2.443-.488 1.172H90.95c-.781-.195-1.172-.684-1.172-1.465l.391-.782.098-.195v-.195l.879-1.075.292-.195zm4.689 2.736l.195-.293.488-1.172.294-.586h.488l.977 1.563v1.661l-.293.488-1.172.195-.978-.879v-.977h.001zm-13.774 1.953h.586l.684.391h.977c.781.489 1.172.978 1.172 1.759l-.195.782-.293.488-1.173 1.172-.293.195-.977.098h-1.173l-1.172-.098h-.489l-1.27-.879-.293-.489c-.195-.097-.195-.293 0-.586l.293-.977.293-.391.489-.782.684-.489 1.465-.195h.685v.001zm-1.661 2.932l-.293-.293-.195.685h.195l.293-.392zm35.953.684l-.293 1.172-.488.586.291.684.393-.782v-.391l1.074-1.562.684-.685.293-.781.684.293.293.684v.098l.195.879.684-.978c.488-.195.783 0 .979.489l.098 1.27.195.293v.489l-.195 1.368-.098.488.488.977.098.489-.098.977-.195.782v1.758l-.293.489v.391l-.979 1.27-.195.684h-.293l-.488.586-.488.879-1.172 1.27-.293.195-.195.098h-.977l-.783.391h-.879v-.195l-.586-.196-1.66.391-.195-.195-.488-.293-.588-.684c-.684-.488-.977-1.172-.977-1.954l.293-.977v-1.172l.195-.098v-.391l.098-.098.195-.391.488-1.27.686-1.661c.488-.977.781-1.466 1.074-1.466h.488l-.098-.977.488-.586.098-.489v-.391l.684-1.27.488-.781.781-.489.489.783zm-1.956 6.545v.293l.684-.684-.195-.488-.489.879zm5.569-4.103l-.293-.684c-.488 1.465-.488 2.149-.195 2.149l.293-1.27.195-.195zm-.293 5.568h.293l-.293-.195v.195zm-1.367 2.052c-.293.488-.293.879 0 .977l.977-1.074c.195-.489.195-.978-.293-1.172l-.488.195-.196 1.074zm-4.494.977l.293-.098-.195-.391-.488.879.39-.39zm2.248 1.661h.293c.879-.489.977-.977.488-1.172l-.488.977-.293.195zm-19.051 7.034h.488-.488zM83.33 79.331l-.195-.489h-.782l-.684-.293-2.931.097-1.27-.586h-1.661l-.684.489-.293.097-.195.489-.977.684-.489.488-1.075.684-.488.293-1.856.293h-1.27l-.489-.293-.782-.488-1.465-.684c-.488 0-.879.391-1.172 1.172l-3.419 5.08-.488.586-.685 1.368-.488.293-.586.489-1.466.781-1.367.391-.293.782-.782 1.465-.684 2.638-.488 1.27v1.271l-.684.977v1.465l-.586.881v.488l-.879 3.223c-.098.783 0 1.174.488 1.174h1.368l.977-.391 1.563-.783.488-.195 2.931-1.074h.391c.489 0 .978-.195 1.563-.684h.488c.195-.293.488-.488.977-.488l1.368-.488 1.759-.979 1.661-.684 1.075-.488 1.172-.293h.293c.489-.684 1.172-.977 2.149-1.172h.489l.781-.293 1.954-.977.195-.195c.488.195.977 0 1.661-.587l.098-.195 1.368-.293 1.27-.879h.782l.391-.098h.098l1.368-.684 1.563-.684-1.27-1.27-.684-.977-.586-.489-.488-.977-.195-.684V87.83h-.195.195v-.391l.195-.098v-.879l.098-1.758.391-1.27v-.684l.293-1.172v-.098l.195-.684V80.6l.293-.488.682-.781zm25.498 12.993l-.488-.293-.977-.782c-.098 0-.293.293-.293.782l-.293.977-.49.488v.293c-.195.488.1.879.588 1.172l.977.293h.195l1.172.39h.977l1.467-.39.781-.489h.195l.488-.488v-.097c.488-.195.488-.488.098-.684h-.977l-2.053-.293-.684-.489-.488-.195-.195-.195zM74.83 60.768l.489.195.781.489.391.293.293 1.661-.684.293-.098-.195-.488-.781-1.368-1.27v-.391c.195-.099.391-.294.684-.294zM55.291 88.416l2.247-.097.391-.196h.098c.488-.781.977-1.27 1.368-1.27l.098-.391v.196l.195-.978.293-.293v-.391h.195l.685-.488.586-1.271.684-.977.293-.293.196-.684.195-.195 1.27-1.954.684-.586.488-.684.293-1.172.684-.489.586-1.27h.195l.684-.782.293-.391.293-.782.879-.977 1.075-1.172.489-1.074.977-.879.195-1.27.684-.782.489-.977v-.195l1.465-.977h.586l.684.293.195-.098 1.27-.489c.489-.391.489-.977.195-1.954l-.391-.391-.097-.293v-.193l-.391-.489c-.488-.781-1.27-1.27-2.247-1.27l-.293.293v.196l-.977 1.465-.684.782-1.27.391-1.172.293-.489.488-.781.196h-.684l-.684.488-.782.293h-1.465l-1.172.488-1.759.488-.488.195c-.488.489-1.466.586-2.931.586l-1.759.879h-.488l-.684.293-.488.195-1.76.1-.977.684-2.149.293-.977.488-2.247.489h-.684l-1.172.488-.977 1.954-.098.195v.977l-.195 1.173.293.977.195 1.271.488.781v.684l.195.292.293.489.195 1.367.782 1.075.488.977.684.879.098.293.488.195.196.489v.098l.293.488.977.391.978.977.488.098 1.661 1.368.684.098 1.759.488zm-9.085-17.39l.097-.195.489-.293h.977l.879.195v.098h.098l.488.391.977.293.879.684 1.075.488.684.781.782.489.684.977 1.465 1.27.195.978.489.488v.195h.098l.391.684v.977l.782.977v.097h.195v.977l.293 1.172.196 1.172.097.586v.879l-.586.977-.391.293c-.489.195-.586 0-.489-.684l.391-1.27-.391-.977v-.975l-.586-1.465.098-.195v-.293l-.098-.293-.977-1.367v-.586l-.977-.977-.195-1.368-.293.196-.879-.782-.489-.977-.977-.684h-.293v-.195l-.195-.293-.489-.296-.782-.488-.293-.391-.977-.293-.685-.488h-.781l-.977-.195v-.294h.001zm27.94-4.103l-.293.879v.293l.195.195v-.195l.489-.684-.391-.488zm-5.959 12.896c1.075.781 2.443.781 3.517 0l1.661-1.27.488-.489.293-.488.684-.488.196-.684 1.075-1.758v-.392l.391-.293.098-.782-.49-.488h-.293c-.684.098-.978.781-.978 1.759v.488l-.292.684-.391.489-.293.977-1.172.977-.586.098-1.367.684c-1.075.489-2.247.293-3.029-.782-.391-.195-.684 0-.977.489l-.391.293 1.856.976zm4.396-9.281l-.195-.293-.293.098-.488.684.098 1.661v.098c.195.488.489.684.977.488l.391-.098.097-.195c-.488-.293-.586-.977-.586-1.954v-.489h-.001zm-3.126 3.614l-.684.977-.098.488c-.489.489-.879.782-.684.977.195.586.489.977.977 1.075.782.195.977 0 .488-.488l-.195-.293v-1.173l.489-.781h-.098l.098-.488-.293-.294zm1.758-.195l-.293.195c-.195.489 0 .586.293.782l.879.293h.489l.586-.293.391-.488h-1.661l-.684-.489zm.196 3.126h.195l.098.098.391-.098v-.195l.293-.195-1.465-.978-.195.391c-.489.097-.098.488.684 1.075v-.098h-.001zm-21.786-4.787zm3.517 3.322zm3.907 8.109z" fill-rule="evenodd" clip-rule="evenodd"/><path d="M92.122 66.337l-.195.293h.195l1.27.293h1.172l.489.195h1.465l.098-.195.685.391h.488l1.465-.489h.195v-.879l.293-.586.195-.195h.293l.488-.782.488-.391 1.467-1.27.684-.195h1.465l.977-.586.588-.391.488-.293c.391-.195.391-.684.195-1.465v-2.247l.293-.978.488-.977.488-1.368.488-.782.488-.684.685-.78.781-.782h.195v-.195l1.174-1.172.293-.488.293-.586.391-.391.488-.293v.195l-.195.488-.195.098v.977l-.293.684-.684.781-1.076 1.661-.879.977-.293.976-.977 2.149v2.247l-.195.977c-.098.684.195 1.465.879 2.247l.977.684.586.293h.881l.488.195v-.195l1.074.195h.391l.977-.195h.586l.488-.098.686-.684h.488l.293-.293h.488l.195-.195.684-.293.781-.391.293-.782.391-.195.783-.782.195-.293.488-.391.586-1.27.391-1.172.098-.293v-.489l.488-1.758v-.489l.391-1.661-.391-.684v-.78c-.293-.782-.293-1.172-.098-1.172l-.391-.586v-.195l-.098-.977-.684-1.271-1.172-.879-1.271-1.466-.488-.781-.781-.489-.684-.488-.195-.195v-.098l-.488-.391-.781-.586-1.174-.488-.977-1.368-1.074-.488-.684-1.075-2.736-1.661h-.195l-1.27-.782-1.66-.684-1.174-.977-1.562-.195-1.172-.977H101.5l-1.562-.782-.977.195-.977-.391-1.466-.098h-.879l-.488.098-.586.391-.489.293h-.488l-.879.489-4.201 1.27h-.781l-.879.195-1.466-.195-3.712-.098-.488.098h-2.149l-.488.195-.293.293-3.224 1.173-.196.293-.977.488-.781.684-.391.196-1.27 1.075-.293.391-.391.098-.782 1.172v.195l-.195.098-.782 1.368c-.488.293-.782 1.075-.782 2.54l-.391.879-.098.977v2.052l.977 1.661.781 1.27.489.488.293.488 1.954 1.856 1.661 1.075 1.466.977.781.391.977.098 1.368.489-.391-.489-1.563-1.465-.392-1.076-.488-.684.195-.195v-.586l.195-.195c.488-.782.977-.782 1.074-.196l.196.391c-.196.098-.196.586 0 1.27l.293.977 1.661 1.172.684.977.586.293.684.782 1.465.879h.977l.684.293.586.489h.391l.586.195.391.098.293.391h.293l.977.097h.391l.781.489.978-.293h.293l.879-.196h2.052l.684.391h1.172l.098-.195.391-.489 1.466-.293h.293l1.27-.977.977-.391h.391l.293-.098.977-.977.49-.879 1.172-1.563v-.879l-.684-1.27c.293-.195.781 0 1.66.488l.488.293.098 1.172-.293.488-.195.684-.586.586-.879.489-.293.977-1.467 1.465-1.172.391-1.27.782h-.488l-1.173.293-.586.488h-.488l-.977.489h-.977l-.488-.293-1.661.196-.49.098-.488-.098v.488l.195.293h.293l.684.781.488 1.172v2.151zm0-2.149zm-1.661-2.736zm12.408-6.839zm-26.867-2.637zm47.48 2.149zm-2.246 5.666zm-7.132 3.908v-.195.195zm-3.42-.489zm.293-12.211zm-7.62 11.528zm-3.81 6.252h-.098l-.977.098-2.345.195-2.052-.293h-1.661l-1.465-.391-.488.391-.488.586-.489.391-1.172-.196-1.465.293-1.075.488h-2.149l-.488.195-3.126.195-.293.098-2.442-.781-.196-.489-.293-.684c-1.465-.293-2.247-.098-2.638.488l-.098.489-.195.879c-.195.782 0 1.27.781 1.27l.489-.488h.976c.488-.293.977-.195 1.368.293h.098l.684 1.856-.782 1.954-.488.586 1.27.685 1.172.293.586.195h.684l.195-.195h.488l.977-.098.293.488.684-.195 1.563-.782.391-.391.488-1.074 1.465-1.661.293-.293h.293l.195.098v.684l-.293.684-.195.586-.293.488-.196.391-.292.293v.293l-.977 1.367v.489l-.879.782-.097.488-1.368 2.149-.293 2.736-.195 1.465.195.293-.195.391v1.562l.391.687.293.488.195.293.488.391v-.195c0 .488.098.684.293.684l.977.782.293.488c.195.488.391.781.488.781l1.368.684h.293l.488.195.488.293.489.489-.683.977-.293 1.173-.195.586v.977l-.293.488c0 1.465-.293 2.148-.782 2.346H85.87l-.586-.197-1.173.295-1.27-.295-.978.295-.488-.098-.879-.197v.197h-.293l-.195.098-1.563.195-2.638.977-.195.293-1.075.684v.195l-.489.293-.488.488-.488.684-.489 1.076v1.172l.098.293.977.684.488-.293.879-1.66 1.465-1.174c.489-.098.586-.098.586 0l-.293.881-.683.584c-.488.879-.586 1.367-.488 1.66l3.126.293.977-.098.195-.684v-.781l.098-.391.195-.586.293-.979c.684-.977 1.367-1.465 2.149-1.465.196-.195 1.172-.684 3.126-1.172l.488-.195c0-.098.098-.293.586-.293h1.661l.293-.195.488.195h.685l.684.195v-.195h.293l.489.195 2.149.098.293-.098c.781 0 .977-.488.781-1.465l.195-.393.196-1.562v-.879l.488-1.466v-.098c.098-.684.293-.977.586-.977h.391v-.195c.098.489.098 1.27-.195 2.443v.977l-.195.684v.977c.391.979.391 1.564 0 2.053-.293.879-1.27 1.367-2.931 1.172h-1.563l-.489-.195-1.172.195-1.173-.293-1.954.293-.586.195-.488.098-.977.684-.685.195-.684.488-.488.098c-.782.686-1.271 1.467-1.271 2.346l.195.977.293.098 1.758.879h.195c.489.098.782 0 .782-.879l.195-.098.782-1.66c.684-.781 1.172-1.172 1.465-1.172l-.293.879-.195.586-.489.879-.293.488v.098l.195.977c0 .195.293.391 1.075.391l.977.098.195-.098h.297l.488.098v-.098l.685.098.977-.098.489-.977 1.27-1.367c.879-1.465 1.465-1.953 1.856-1.465l.098.195c.195.195.195.293 0 .781l-.781.684-.196.195-.586.781-.489.195c-.391.098-.488.586-.488 1.27l.977.295h2.442l.977-.1h.098l.195-.195h2.15l.977-.195.781-.098h.979l.488-.195h1.66l.488-.195h.098l.488-.293h1.467l.977-.488h.488l.879-1.27v-.684h-.195l-.195-.781v-1.369l-.293-.098v-.391l-.195-.293c-.098-.293-.488-.488-.977-.488l-.488-.293-.295-.488-.781-.488h-.879l-.488-.195h-.098l-.488-.488.098-1.174v-.781l-.098-.293.098-1.66-.293-1.173.195-.977-.195-.782v-.684l.488-.978.293-.293.684-.977h-.195l.391-.782.098-.879.391-.488v-.782l-.684-.782-1.172-.684-.293-1.466-.684-.977h-.098v-.977l.098-.195c0-.977.195-1.465.391-1.465v-.098l.098-.195v-.195l.195-.293.195-.977-.684-.782-.293-.977h-.684l-.979-.879.195-.488h.979l.293-.098h.195l1.953-.391h.098l.879-.098.488-.391h1.955v-.097h.781l.488-.391h.293l.391.391.291.098.293.978.391.488 1.564.488.488-.586.195-.488-.293-.489.098-.684c0-.781 0-1.27.195-1.27l.684.293.977 1.172.098.293.488-.196h.488l.197-.097.291-.684.197-.488.293-.684v-.098l-.781-.391-.686-.977c-.293-.488-.293-.782 0-.782l.391-.195.586-.488 1.467-.586-.586-.684-.391-.782-2.541.293-.391.293h-.488l-.586-.489v-.488l.098-.098v-.977l.195-.391-.977-.782-.783.293-.684.488v1.465l.195.977-.391.391-2.246-.195-1.66.195h-.783l-1.27.293h-2.148l-.979-.488-1.465.195-.195-.195v-1.268h.002zm11.137 8.89zm-2.637 26.769zm-14.166 3.224zm-5.862-14.166zm-.293 0zm.098-20.321zm29.309-46.893l.977-.488h.488c.488 0 .488-.195.391-.684l-.879-.489-1.074.684c-.881.586-1.369 1.465-1.369 2.247h.197v-.195l.195-.098.586-.391.391-.293.097-.293zm-19.539 6.447l1.172.195.488.293c.781.391 1.172.879.977 1.661v.489c-.195.195-.488 0-.684-.489l-.586-.684-.977-.098c-.488-.195-.684-.391-.684-.684v-.195l.294-.488zm-6.156 6.546h.293l.684.292.195 2.443-.488 1.172H90.95c-.781-.195-1.172-.684-1.172-1.465l.391-.782.098-.195v-.195l.879-1.075.292-.195zm4.689 2.736l.195-.293.488-1.172.294-.586h.488l.977 1.563v1.661l-.293.488-1.172.195-.978-.879v-.977h.001zm-13.774 1.953h.586l.684.391h.977c.781.489 1.172.978 1.172 1.759l-.195.782-.293.488-1.173 1.172-.293.195-.977.098h-1.173l-1.172-.098h-.489l-1.27-.879-.293-.489c-.195-.097-.195-.293 0-.586l.293-.977.293-.391.489-.782.684-.489 1.465-.195h.685v.001zm-1.661 2.932l-.293-.293-.195.685h.195l.293-.392zm35.953.684l-.293 1.172-.488.586.291.684.393-.782v-.391l1.074-1.562.684-.685.293-.781.684.293.293.684v.098l.195.879.684-.978c.488-.195.783 0 .979.489l.098 1.27.195.293v.489l-.195 1.368-.098.488.488.977.098.489-.098.977-.195.782v1.758l-.293.489v.391l-.979 1.27-.195.684h-.293l-.488.586-.488.879-1.172 1.27-.293.195-.195.098h-.977l-.783.391h-.879v-.195l-.586-.196-1.66.391-.195-.195-.488-.293-.588-.684c-.684-.488-.977-1.172-.977-1.954l.293-.977v-1.172l.195-.098v-.391l.098-.098.195-.391.488-1.27.686-1.661c.488-.977.781-1.466 1.074-1.466h.488l-.098-.977.488-.586.098-.489v-.391l.684-1.27.488-.781.781-.489.489.783zm-1.956 6.545v.293l.684-.684-.195-.488-.489.879zm5.569-4.103l-.293-.684c-.488 1.465-.488 2.149-.195 2.149l.293-1.27.195-.195zm-.293 5.568h.293l-.293-.195v.195zm-1.367 2.052c-.293.488-.293.879 0 .977l.977-1.074c.195-.489.195-.978-.293-1.172l-.488.195-.196 1.074zm-4.494.977l.293-.098-.195-.391-.488.879.39-.39zm2.248 1.661h.293c.879-.489.977-.977.488-1.172l-.488.977-.293.195zm-7.524 32.044l-.488-.293-.977-.782c-.098 0-.293.293-.293.782l-.293.977-.49.488v.293c-.195.488.1.879.588 1.172l.977.293h.195l1.172.39h.977l1.467-.39.781-.489h.195l.488-.488v-.097c.488-.195.488-.488.098-.684h-.977l-2.053-.293-.684-.489-.488-.195-.195-.195zM74.146 66.923l-.293.879v.293l.195.195v-.195l.489-.684-.391-.488zm-5.959 12.896c1.075.781 2.443.781 3.517 0l1.661-1.27.488-.489.293-.488.684-.488.196-.684 1.075-1.758v-.392l.391-.293.098-.782-.49-.488h-.293c-.684.098-.978.781-.978 1.759v.488l-.292.684-.391.489-.293.977-1.172.977-.586.098-1.367.684c-1.075.489-2.247.293-3.029-.782-.391-.195-.684 0-.977.489l-.391.293 1.856.976zm4.396-9.281l-.195-.293-.293.098-.488.684.098 1.661v.098c.195.488.489.684.977.488l.391-.098.097-.195c-.488-.293-.586-.977-.586-1.954v-.489h-.001zm-3.126 3.614l-.684.977-.098.488c-.489.489-.879.782-.684.977.195.586.489.977.977 1.075.782.195.977 0 .488-.488l-.195-.293v-1.173l.489-.781h-.098l.098-.488-.293-.294zm1.758-.195l-.293.195c-.195.489 0 .586.293.782l.879.293h.489l.586-.293.391-.488h-1.661l-.684-.489zm.196 3.126h.195l.098.098.391-.098v-.195l.293-.195-1.465-.978-.195.391c-.489.097-.098.488.684 1.075v-.098h-.001z" fill-rule="evenodd" clip-rule="evenodd" fill="#fff"/><path d="M118.793 40.936l2.148 2.052v.195l.295.293 1.66 2.149 1.562 1.661 1.662.097.293-.097h.488l.488-.196.391-.293.586-.195.879-.781h-.195l.293-.488.684-1.661v-1.661l-.293-1.563v-.391l-.195-.489v-.097l-.195-.489-.098-1.367-.488-1.075-.391-.879-.488-.586-.293-.879-.977-.488-.686-.977-1.27-.977-.781-.488-.977-.098-.879-.488-1.955-.489-1.074-.195-.391.195-.781-.391h-.684l-.979-.293h-.977l-1.465-.293-.586-.488h-.391l-1.074-.684-.979-.977-1.172-.782.195-.195-.195-.293-.488-.391-.684-.293-.977-.684-1.076-.488-.391-.488-.977-.293h-1.074l-.977-.489h-.977l-.686-.196h-1.27l-.879-.097-.977.097h-.977l-.978.489h-.977l-.977.684-.782.293-.488.684-.489.293-.293.391-.391.586-.098 2.149.586 1.172.977.586.195.391 2.247-.195h.879l1.759.195h.293l1.367.098v-.098l1.562.586.49.195 1.465.684c.879.098 1.367.488 1.367.586.488-.098 1.27.195 2.541.879l1.367.586.781.879.684.098h.098l.684.391-1.27-.977-4.396-2.345c-3.418-1.27-5.275-1.954-5.764-1.758l-1.27-.195-1.955-.293.195-.684-.391-1.075c0-.488.195-.684.489-.684.392 0 .489-.293.489-.782s.195-.879.684-.879l.781-.098.488-.488.195-.391.488-.586c.781-.195 1.27 0 1.662.293l.977.781.586-.097.391.097h.488l1.074-.293h1.367l.588.293.684.88 1.953.977.977.782.488.684.686.293c.781.195 1.562.488 2.539 1.172.488.978.977 1.466 1.465 1.466l.686-.195h.781l3.418.488 1.369.293 1.465.195.586.489 1.953.977.686 1.465.293 2.442.195 1.27-.195 1.368-.293.586c-.293 0-.781.195-1.271.488l-1.66 1.661-1.66.489-1.76-1.271-1.455-.977zm-.195-.391v.195-.195zm-1.758-1.074l1.465.977-1.66-1.368v.196l.195.195zm-.195-.196zm-.293-.293v.098l-1.174-.977.686.684.488.195zm-4.202-2.931l1.562.977-1.758-1.172.196.195zm-10.453-8.206l-.783-.586c-.195-.195 0-.391.49-.391l1.465.489.977.879c.098.489-.391.489-1.172-.195l-.977-.196z" fill-rule="evenodd" clip-rule="evenodd" fill="#cfb9cd"/><path d="M110.977 35.074l-1.27-.977-4.396-2.345c-3.418-1.27-5.275-1.954-5.764-1.758l-1.27-.195-1.955-.293.195-.684-.391-1.075c0-.488.195-.684.489-.684.392 0 .489-.293.489-.782s.195-.879.684-.879l.781-.098.488-.488.195-.391.488-.586c.781-.195 1.27 0 1.662.293l.977.781.586-.097.391.097h.488l1.074-.293h1.367l.588.293.684.88 1.953.977.977.782.488.684.686.293c.781.195 1.562.488 2.539 1.172.488.978.977 1.466 1.465 1.466l.686-.195h.781l3.418.488 1.369.293 1.465.195.586.489 1.953.977.686 1.465.293 2.442.195 1.27-.195 1.368-.293.586c-.293 0-.781.195-1.271.488l-1.66 1.661-1.66.489-1.76-1.271-1.465-.977-.195-.195v-.195l-.293-.098-1.66-1.368h-.293l-1.174-.977-1.465-1.075-1.758-1.172-.978-.781zm-9.28-7.229l-.783-.586c-.195-.195 0-.391.49-.391l1.465.489.977.879c.098.489-.391.489-1.172-.195l-.977-.196z" fill-rule="evenodd" clip-rule="evenodd" fill="#6667a9"/><path d="M89.289 67.802h-.097c-.489 0-.879-.195-.977-.488v-.391l.098-.098h.391l-.195-.488v-.195l.684-.196 1.27.391 1.465.293h.195l1.27.293h1.172l.489.195h1.465l.098-.195.685.391h.488l1.465-.489h2.15l.293.586.195.879-.195.489H99.45l-.977.098-2.345.195-2.052-.293h-1.661l-1.465-.391-.977-.293-.684-.293zm-.489-.195l.391.195-.391-.195z" fill-rule="evenodd" clip-rule="evenodd" fill="#cc262d"/><path fill-rule="evenodd" clip-rule="evenodd" fill="#74a870" d="M55.096 88.123l.195.293-1.759-.489.098-.097 1.466.293z"/><path d="M90.461 66.337v-.489l-.195-.195.195-.488v-.488l-.488-1.271-1.466-.977c-.781-.684-1.661-.977-2.149-.977l-.488-.196-.586-.195-.978-.488h-.195l-1.172-.489-.293-.293-1.465-.195-.684-.098-.782-.391-1.27-.586-.488-.391-.977-.488-.88-.098-2.735-.978-.684-.488-.488-.195-.782-.782-1.172-.684-.586-.782-.977-.879-.879-.978-.098-.586-.391-.488-.098-.488-.488-.684-.684-1.758.195-2.149v-.489l.488-2.442.098-.293v-.489l.391-.488v-.391l.489-.293.293-.684.684-.977c.098-.781.488-1.27.586-1.27h-.293l-.782.195-.879-.391-1.27-.098-1.27.293-1.661-.293-1.173.489-1.465-.391h-.782l-.684.195h-.489l-.586-.293-1.465.293-1.368-.293h-.586l-.977.489-1.465-.195-1.661.293-1.954-.098-.489.098h-.683l-2.052-.098-2.149.586-.977.488-.195.391.684.586 1.954 2.931 1.172.977.098.684.391.488.586.489.488.781.489.391.391.489 1.563 2.051.879 1.465 1.563 1.661.196.781.977.879.782 1.465 1.172 1.075v.391c.195.782.488 1.075.977 1.075l.781 1.465c1.172.879 1.661 1.368 1.661 1.856l.195.293.586.782.977 1.465.391.391h-.195l.488-.195h.684l.098-.196h.195l.489-.097 1.465-.391.684-.293h1.465l.781-.488h.684l.586-.195.684-.489v.196l.488-.489h1.173l.293-.195.977-.098.293.098v-.586l.195-.488.684-1.466.293-.391c0-.293.293-.488.977-.488h.196l1.465.488h.098l1.465 1.465.684.977c.977 1.856 1.172 3.322.488 4.104l-2.247 1.172-.488-.195-.391.195.684.488.293.293.977.684.684 1.27.293.293h2.149l.293-.098.879-.195h.098l.488.195h.391l.098-.195 3.614-.195.684-.098.293-.195.977.195.293-.391v.196l.488-.782m11.725-.975l.195-.879.979-.781 1.758-1.173.879-.293h.586l1.369-.293c.293-.391.586-.488.781-.391l.488.684.488.293 1.172.88 1.074.488h.684l1.271.293 1.367-.293h.586l.977-.195h.881l1.465-.977c.098-.196.293-.293.781-.489l.684-.195.781-.586.195-.195.979-1.466.977-.977.977-1.466.488-.684.293-.293.684-1.271.293-1.661v-5.178h.195c.098-.391.49-.488.783-.391h.977v-.096l.293-.391 1.855-1.074.488-.488.098-.391.391-.293.293-.781.195-.684.1-.195.391-.782v-1.172l.098-.098 1.465.489.977.098.684.488 1.76.684h.879l.977.488 1.953.489.293.195 1.174.293 1.27.488.781.195 1.465.586h.881l.977.391.977.098.977.488.781.195.781.293 1.467.879-.098.782-.977.781-.686.195-.488.978-.293.195-1.367 1.27-.488.195-.488.293h-.098l-.391.488c0 .293-.293.489-.781.489l-.295.195-1.172 1.075s0 .195-.195.391l-1.562.977-.879.586h-.098l-.977.489h-.197l-.781 1.172-1.172.488-1.172 1.172-2.443 1.758-.781.684-1.465 1.075-.684.488-.098.196-.391.195-.293.488-.49.098h-.195l-.781.879-2.148 1.563-.488.195-.586.684-.393 1.075.197.684v.489c0 1.172.195 1.954.293 2.149l.195 1.465.293 1.27v.488l.195.781.293 2.345.391.781.098.195.684 2.736v1.758l.293.879h-.098l.977 5.862v.488l.488 2.442.293.978.49 1.27v1.465l.195.781.098.686.391.488v1.465l.098 1.66v2.053l.488 1.465-.098 1.66v1.662h-.195l-.293.781-.488.293-1.174-.293-.977-.488h-.293l-.879-.781h-.293l-3.127-1.857-1.27-.488-1.465-.977-1.76-.977-1.172-.977-.977-.488h-.195l-.488-.295-1.27-1.172-1.271-.488-1.953-1.27v-.195l-3.127-1.955-1.465-.781-1.172-.977-2.053-.977-.195-.195-.195-.978v-1.075l-.098-.391.098-.098.488.293.391.684.488.489.783.587.977.195 3.613-.195.979-.098 1.465-1.368c.781-.489 1.27-.977 1.465-1.075h.098l.488-.684c.197-.293 0-.684-.098-.782l-.391.098h-.586v.196-.196h-.391l-.977-.293h-.098l-1.172-.293-.293-.195-.979-.293-.195-.195-3.418-1.466h-.488l-.686-.195.195-.293.195-3.224-.195-.489v-.684l-.684-2.247-.098-.684-.195-1.172-.293-.586-.195-.684v-.195l-.293-.293-.391-1.173.684-.098 2.443-.488h.684l.586-.195h.488l.391.293.293.488v.196l.684.488 2.248.489.684-.195 1.27-.978.195-.586h.586l.977-.391h.197l.488-.488.293-.586.488-.489.391-.488.293-.195v-.195c.293-.489.195-1.075-.684-1.563l-.488-.488.488-.195.488-.293.684-.879v-.586l-1.465-2.345-.781-.098-.393-.195-.488-.195-.488.391-.977.098-.488-.488.195-.586-.488-.977h-.195l-.781-.489h-1.955l-.492.295-.684.684v.098l-.293.488.293 1.368h-.781l-1.172.098v-.098l-.488.098h-1.467l-1.074.195h-1.953l-.881-.195-.488-.098M97.301 4.886l-.783.489-.391.977-.488.196-1.563 2.442v.195l-1.661 3.028-1.172 1.661v.195l-.586.782-.391.781-.782.879-.684 1.467-.293.489-.684 1.074-.586 1.465-.684.879-.683 1.075-.977 1.368-.293 1.075-.782 1.172-.488.977-.195.195-.293.488-.489.489-.391 1.075-.977 1.856v.293h1.856v-.195.195h.586l1.954.293.391.195 1.075-.293h.391l.489-.195h2.54c.195-.488 0-.684-.293-.684l-1.174-.586-.781-.684.293-.293h.977l.685.098h.195l.781.879.782.488h.391v-.195l-.391-.684-.293-.488-.782-.586-.195-2.149-.195-.684.195-.781v-.685l.293-.781.684-.781.977-.684.977-.489c.195-.195.684-.293 1.465-.488l.977-.293.977-.195.978-.293.488.097h1.758l.977-.097.686.097.195-.097.293.097.977-.097h.195l1.465.488h.098l.879.098.979.391-.49-.977-.488-.489-.977-2.149v-.293l-.391-.489v-.977l-.781-1.172-.684-.782-.098-.977-.391-.88-.586-1.465-.195-1.075-1.271-2.443-.488-.684-.195-.684-.195-.293-.977-1.27-.293-.391h-.488l-.491.489M83.33 79.331l-.195-.489h-.782l-.684-.293-2.931.097-1.27-.586h-1.661l-.684.489-.293.097-.195.489-.977.684-.489.488-1.075.684-.488.293-1.856.293h-1.27l-.489-.293-.782-.488-1.465-.684c-.488 0-.879.391-1.172 1.172l-3.419 5.08-.488.586-.685 1.368-.488.293-.586.489-1.466.781-1.367.391-.293.782-.782 1.465-.684 2.638-.488 1.27v1.271l-.684.977v1.465l-.586.881v.488l-.879 3.223c-.098.783 0 1.174.488 1.174h1.368l.977-.391 1.563-.783.488-.195 2.931-1.074h.391c.489 0 .978-.195 1.563-.684h.488c.195-.293.488-.488.977-.488l1.368-.488 1.759-.979 1.661-.684 1.075-.488 1.172-.293h.293c.489-.684 1.172-.977 2.149-1.172h.489l.781-.293 1.954-.977.195-.195c.488.195.977 0 1.661-.587l.098-.195 1.368-.293 1.27-.879h.782l.391-.098h.098l1.368-.684 1.563-.684-1.27-1.27-.684-.977-.586-.489-.488-.977-.195-.684V87.83h-.195.195v-.391l.195-.098v-.879l.098-1.758.391-1.27v-.684l.293-1.172v-.098l.195-.684V80.6l.293-.488.682-.781" fill="none" stroke="#000" stroke-width="1.14" stroke-linecap="round" stroke-linejoin="round" stroke-miterlimit="2.613"/></svg>