<svg xmlns="http://www.w3.org/2000/svg" width="2500" height="2500" viewBox="0 0 192.756 192.756"><path fill-rule="evenodd" clip-rule="evenodd" fill="#fff" d="M0 0h192.756v192.756H0V0z"/><path d="M13.755 121.623H173.82c2.889 0 5.252 2.32 5.252 5.223 0 2.848-2.363 5.17-5.252 5.17H13.755c-2.888 0-5.251-2.322-5.251-5.17 0-2.903 2.363-5.223 5.251-5.223z" fill-rule="evenodd" clip-rule="evenodd" stroke="#000" stroke-width=".158" stroke-miterlimit="2.613"/><path d="M16.644 129.852v-1.318c.105.105.21.158.315.211.105.105.21.105.368.158h.104c.053 0 .105.053.158.053.21 0 .367-.105.525-.211a.556.556 0 0 0 .263-.475v-.053c0-.211-.053-.369-.21-.475-.104-.158-.262-.264-.42-.369-.105-.105-.21-.158-.315-.264a.747.747 0 0 1-.21-.158 2.35 2.35 0 0 1-.63-.791 2.477 2.477 0 0 1-.158-.898v-.158-.209c0-.055.053-.107.053-.16 0-.105 0-.158.052-.211.105-.369.315-.633.578-.844.314-.211.63-.264.945-.264h.315c.105 0 .158 0 .262.053.105 0 .21.053.263.105.105.053.21.053.315.105v1.266c-.21-.158-.368-.264-.525-.316s-.263-.105-.42-.105a.64.64 0 0 0-.472.211.6.6 0 0 0-.158.422v.158c0 .055.053.055.053.107s.052.105.052.158c.105.105.21.264.368.369.105.105.263.211.42.316v.053h.052l.158.158c.104.053.157.053.21.105.21.211.42.422.525.686s.21.527.21.844c0 .105 0 .264-.053.369 0 .158-.053.264-.105.422 0 .053-.053.053-.053.105s-.052.105-.052.158c-.158.264-.368.527-.63.686-.262.213-.578.318-.998.318-.158 0-.315-.053-.525-.105s-.42-.105-.63-.212zm3.991-2.163c0-.844.158-1.424.473-1.74.367-.369.735-.527 1.155-.527.525 0 .893.158 1.26.527.315.369.473.949.473 1.74 0 .896-.21 1.529-.473 1.9-.262.422-.735.58-1.312.58-.42 0-.788-.158-1.103-.529-.316-.421-.473-1.054-.473-1.951zm1.628-1.107c-.105 0-.21.158-.315.369a4.082 4.082 0 0 0-.105.844v.053c0 .316.052.58.105.844.105.264.21.369.315.369.158 0 .263-.105.315-.369.105-.264.158-.527.158-.844v-.053c0-.316-.053-.58-.105-.844-.105-.211-.211-.369-.368-.369zm4.883 2.268v1.109c-.157.105-.262.158-.42.158-.105.053-.263.053-.368.053-.473 0-.84-.211-1.103-.686a3.242 3.242 0 0 1-.42-1.584v-.053c0-.58.158-1.107.42-1.582.315-.475.735-.738 1.312-.738h.315c.105.053.21.053.368.105v1.107c-.105-.053-.158-.105-.263-.105-.052-.053-.105-.053-.21-.053-.21 0-.368.158-.473.369-.157.264-.21.58-.21.896 0 .264.053.58.158.844.105.211.263.369.473.369.053 0 .158-.053.21-.053.052-.053.157-.053.209-.105v-.051h.002zm2.049-3.217v4.432h-1.208v-4.432h1.208zm-.631-2.059h.105c.21 0 .368.053.525.211a.892.892 0 0 1 .157.527.892.892 0 0 1-.157.527c-.157.158-.315.211-.63.211-.262 0-.42-.053-.578-.211-.105-.158-.21-.316-.21-.475v-.053a.68.68 0 0 1 .21-.527c.105-.158.315-.211.525-.211l.053.001zm3.729 5.117h1.05v.264c-.052.053-.052.105-.052.158-.105.264-.21.477-.473.686-.21.213-.473.371-.788.371h-.053-.105c-.578 0-.998-.211-1.26-.686a3.242 3.242 0 0 1-.42-1.584v-.053c0-.58.158-1.107.42-1.635.315-.475.735-.738 1.26-.738.473 0 .84.158 1.103.475.315.316.473.844.473 1.529v.316c-.053.105-.053.211-.053.316H31.4v.21c0 .316.052.527.104.633.105.158.21.211.368.264h.052c.053 0 .158-.053.263-.158.053-.053.105-.158.105-.316v-.052h.001zm-.892-1.318h.945c0-.053.052-.053.052-.105v-.105c0-.211-.052-.422-.157-.527-.105-.158-.21-.211-.315-.211h-.052c-.105 0-.21.105-.315.264-.106.104-.158.368-.158.684zm6.091-4.379v7.07h-1.313v-.527c-.105.209-.21.367-.368.422a.847.847 0 0 1-.473.158c-.262 0-.525-.213-.788-.58-.21-.424-.368-1.057-.368-1.953 0-.633.158-1.16.368-1.529.263-.369.525-.58.84-.58h.105c.158.053.263.105.42.211.105.105.263.211.368.422v-3.113h1.209v-.001zm-1.575 3.588c-.157 0-.314.158-.42.369-.052.264-.105.527-.105.844 0 .264.053.58.105.844.105.264.21.369.368.369h.052c.158 0 .315-.158.368-.369.104-.264.104-.527.104-.791v-.053c0-.316 0-.58-.104-.844-.106-.211-.211-.369-.368-.369zm5.724-.896v4.379h-1.208v-.527c-.105.156-.21.314-.315.367-.105.107-.21.16-.315.213h-.21c-.315 0-.578-.158-.788-.527-.263-.371-.368-.951-.368-1.742s.105-1.318.315-1.688c.21-.316.473-.527.683-.58h.157a.75.75 0 0 1 .525.211c.158.105.263.316.315.527v-.633h1.209zm-1.523.949c-.21.053-.315.211-.42.422a3.103 3.103 0 0 0-.105.738v.106c.052.264.052.58.158.791.104.264.21.369.367.369.158 0 .263-.105.315-.369.105-.264.157-.527.157-.844v-.053a4.05 4.05 0 0 0-.105-.791c-.052-.211-.21-.316-.368-.316v-.053h.001zm5.777-3.641v7.07h-1.313v-.527c-.157.209-.262.367-.42.422a.85.85 0 0 1-.473.158c-.263 0-.525-.213-.788-.58-.21-.424-.315-1.057-.315-1.953 0-.633.105-1.16.368-1.529.21-.369.525-.58.788-.58h.104c.158.053.315.105.42.211a.97.97 0 0 1 .368.422v-3.113h1.261v-.001zm-1.628 3.588c-.158 0-.315.158-.368.369a2.195 2.195 0 0 0-.157.844c0 .264.052.58.104.844.105.264.21.369.42.369.158 0 .315-.158.368-.369.105-.264.157-.527.157-.791v-.053c0-.316-.052-.58-.157-.844-.052-.211-.21-.369-.367-.369zm4.621 2.109h.998s.052 0 .052.053v.053c0 .053 0 .105-.052.158v.158a1.989 1.989 0 0 1-.473.686c-.21.213-.473.371-.788.371h-.157c-.578 0-.998-.211-1.26-.686a3.242 3.242 0 0 1-.42-1.584v-.053c0-.58.157-1.107.42-1.635.315-.475.735-.738 1.26-.738.473 0 .84.158 1.103.475.315.316.42.844.42 1.529v.632h-1.996v.21c-.052.316 0 .527.105.633.105.158.21.211.368.264.105 0 .21-.053.315-.158.053-.053.105-.158.105-.316v-.052zm-.893-1.318h.945v-.105-.105c0-.211 0-.422-.105-.527-.105-.158-.21-.211-.315-.211h-.052c-.105 0-.21.105-.315.264-.106.104-.158.368-.158.684zm6.827-3.957v5.381h1.522v1.268h-2.835v-6.648h1.313v-.001zm3.571 2.217v2.9c0 .158 0 .264.053.369a.391.391 0 0 0 .21.105c.052 0 .104-.053.21-.105.053-.105.053-.211.053-.369v-2.9h1.312v2.9c0 .527-.157.951-.473 1.213-.368.266-.735.424-1.103.424h-.053c-.367 0-.735-.105-1.05-.371-.315-.262-.473-.686-.473-1.266v-2.9h1.314zm3.361 3.164s0 .053.052.053c0 0 0 .053.053.053.053.053.157.105.263.158.053.053.158.053.263.053s.21-.053.263-.105c.104-.053.104-.158.104-.264s0-.211-.104-.264c-.053-.053-.105-.105-.21-.158a.391.391 0 0 0-.21-.105c-.052-.053-.105-.105-.158-.105-.21-.158-.367-.316-.525-.475-.158-.211-.21-.475-.21-.844s.105-.686.368-.896c.262-.264.63-.369.998-.369.21 0 .42.053.63.105.157.053.367.158.578.264l-.473.896c-.104-.105-.21-.158-.314-.211-.105-.053-.21-.053-.263-.053-.105-.053-.158 0-.21.053-.053.053-.105.158-.105.316 0 .053.053.105.105.158l.157.158c.053 0 .158.053.21.105.053.053.158.053.21.105.21.105.368.264.473.475.158.158.21.422.21.791 0 .527-.105.898-.42 1.107-.263.266-.63.371-.945.371h-.052c-.263 0-.473-.053-.735-.105-.21-.105-.368-.266-.525-.424l.522-.843zm3.151-1.108c0-.844.157-1.424.473-1.74a1.486 1.486 0 0 1 1.155-.527c.473 0 .893.158 1.208.527.367.369.525.949.525 1.74-.052.896-.21 1.529-.472 1.9-.315.422-.735.58-1.313.58-.473 0-.84-.158-1.155-.529-.316-.421-.421-1.054-.421-1.951zm1.628-1.107c-.157 0-.262.158-.315.369-.105.264-.105.527-.105.844v.053c0 .316.053.58.105.844.053.264.158.369.315.369s.263-.105.315-.369c.052-.264.105-.527.105-.844v-.053c0-.316 0-.58-.105-.844-.053-.211-.158-.369-.315-.369zm3.834-3.588v3.113c.052-.158.21-.316.314-.422a.753.753 0 0 1 .525-.211c.42 0 .735.211.945.686.21.422.315.896.315 1.477v.21c0 .527-.158 1.055-.368 1.529-.262.475-.577.74-.945.74-.209 0-.315-.053-.42-.105s-.21-.213-.315-.371l-.052-.051v.475h-1.261v-7.07h1.262zm.367 3.588h-.053c-.104 0-.21.158-.314.369a2.4 2.4 0 0 0-.158.844v.158c0 .264.052.527.105.738.105.211.21.316.367.316h.053c.105 0 .263-.105.315-.369.104-.264.157-.527.157-.844v-.053c0-.316-.053-.58-.105-.791-.104-.262-.209-.368-.367-.368zm2.573-.949h1.261v.527c.052-.211.209-.316.367-.475s.368-.264.63-.316v1.266c-.052 0-.104 0-.157-.053h-.157a.55.55 0 0 0-.473.264c-.157.158-.209.422-.209.844v2.375h-1.261v-4.432h-.001zm4.307 0v4.432h-1.208v-4.432h1.208zm-.578-2.059h.053c.21 0 .368.053.525.211a.899.899 0 0 1 .157.527.899.899 0 0 1-.157.527c-.158.158-.315.211-.578.211s-.473-.053-.63-.211a1.847 1.847 0 0 1-.21-.475v-.053a.68.68 0 0 1 .21-.527c.104-.158.315-.211.525-.211h.052l.053.001zm1.943 3.061h-.368v-1.002h.368v-1.268h1.312v1.268h.525v1.002h-.525v3.43h-1.312v-3.43zm5.934-.949v4.379h-1.156v-.527c-.104.156-.21.314-.367.367-.105.107-.21.16-.315.213h-.21c-.315 0-.577-.158-.788-.527-.21-.371-.368-.951-.368-1.742s.105-1.318.315-1.688c.21-.316.473-.527.735-.58h.105c.21 0 .368.053.525.211.157.105.263.316.367.527v-.633h1.157zm-1.523.949a.605.605 0 0 0-.368.422c-.105.211-.105.475-.105.738v.106c0 .264.052.58.105.791.105.264.21.369.368.369s.263-.105.367-.369c.053-.264.105-.527.105-.844v-.053c0-.264 0-.527-.105-.791-.052-.211-.157-.316-.315-.316h-.052v-.053zm-1.313-2.112l1.313-1.055 1.313 1.107-.578.58-.735-.633-.735.633-.578-.632zm3.834 1.11h1.313v.633c.053-.211.21-.369.368-.527s.367-.264.578-.264h.105c.21 0 .42.053.578.211s.21.475.21.844v3.535H87.75v-3.061c0-.105 0-.158-.052-.211-.053-.053-.105-.105-.158-.105h-.052l-.158.158a.404.404 0 0 0-.105.211v3.008h-1.313v-4.432h-.001zm5.356 0v4.432h-1.26v-4.432h1.26zm-.63-2.059h.052c.263 0 .42.053.525.211.158.158.21.316.21.527a.676.676 0 0 1-.21.527c-.105.158-.315.211-.578.211-.263 0-.473-.053-.578-.211a.647.647 0 0 1-.21-.475v-.053c0-.211.053-.369.158-.527.158-.158.315-.211.578-.211l.053.001zm3.991 5.276v1.109c-.158.105-.263.158-.42.158-.105.053-.262.053-.368.053-.473 0-.893-.211-1.103-.686a3.242 3.242 0 0 1-.42-1.584v-.053c0-.58.158-1.107.42-1.582s.735-.738 1.312-.738h.315c.105.053.21.053.315.105v1.107a.394.394 0 0 0-.21-.105c-.052-.053-.158-.053-.21-.053-.21 0-.367.158-.525.369a2.473 2.473 0 0 0 0 1.74c.105.211.263.369.473.369.052 0 .105-.053.21-.053.052-.053.104-.053.21-.105v-.051h.001zm3.991-3.164v4.379h-1.207v-.527c-.053.156-.158.314-.316.367-.104.107-.209.16-.314.213h-.21c-.315 0-.578-.158-.788-.527-.21-.371-.368-.951-.368-1.742s.105-1.318.315-1.688c.21-.316.473-.527.683-.58h.158a.67.67 0 0 1 .524.211c.158.105.264.316.316.527v-.633h1.207zm-1.523.949c-.209.053-.314.211-.367.422a1.692 1.692 0 0 0-.157.738v.106c.052.264.105.58.157.791.105.264.21.369.367.369.158 0 .264-.105.369-.369.051-.264.104-.527.104-.844v-.053c0-.264 0-.527-.104-.791-.053-.211-.211-.316-.369-.316v-.053zM105.445 122.994v7.07h-1.312v-.527c-.104.209-.262.367-.42.422a.594.594 0 0 1-.42.158c-.314 0-.578-.213-.787-.58-.264-.424-.367-1.057-.367-1.953 0-.633.104-1.16.367-1.529.262-.369.525-.58.84-.58h.106c.105.053.262.105.367.211a.969.969 0 0 1 .367.422v-3.113h1.259v-.001zm-1.574 3.588c-.211 0-.314.158-.42.369a2.195 2.195 0 0 0-.158.844c0 .264.053.58.158.844.053.264.209.369.367.369h.053c.158 0 .262-.158.367-.369a4.05 4.05 0 0 0 .105-.791v-.053c0-.316-.053-.58-.105-.844-.105-.211-.209-.369-.367-.369zm4.568 2.109h1.051v.264c0 .053-.053.105-.053.158-.053.264-.211.477-.473.686-.211.213-.473.371-.787.371h-.159c-.578 0-.998-.211-1.26-.686a3.231 3.231 0 0 1-.42-1.584v-.053c0-.58.156-1.107.473-1.635.262-.475.682-.738 1.207-.738.473 0 .84.158 1.154.475.264.316.422.844.422 1.529v.316c0 .105-.053.211-.053.316h-1.996v.21c0 .316.053.527.158.633.053.158.209.211.314.264h.053c.105 0 .156-.053.262-.158.053-.053.105-.158.105-.316v-.052h.002zm-.892-1.318h.998v-.105-.105c0-.211-.053-.422-.158-.527-.105-.158-.209-.211-.314-.211h-.053c-.105 0-.211.105-.314.264-.106.104-.159.368-.159.684zm6.932-3.957v6.648h-1.26v-6.648h1.26zm1.103 2.217h1.312v.633c.105-.211.209-.369.367-.527.211-.158.367-.264.578-.264h.158c.209 0 .367.053.523.211.158.158.264.475.264.844v3.535h-1.312v-3.061c0-.105 0-.158-.053-.211s-.105-.105-.158-.105h-.053-.053l-.156.158a.404.404 0 0 0-.105.211v3.008h-1.312v-4.432zm4.568-1.531v-.053c0-.369.105-.633.314-.844.158-.158.42-.264.631-.316h.524c.053.053.158.053.262.105v1.107c-.053 0-.104-.053-.156-.053h-.105c-.105 0-.211.053-.211.105a.401.401 0 0 0-.104.264v1.215h.576v.949h-.576v3.482h-1.156v-3.482h-.473v-.949h.473v-1.53h.001zm2.573 3.587c0-.844.158-1.424.525-1.74.316-.369.684-.527 1.156-.527s.893.158 1.207.527c.316.369.473.949.473 1.74 0 .896-.156 1.529-.473 1.9-.262.422-.734.58-1.312.58-.42 0-.787-.158-1.102-.529-.316-.421-.474-1.054-.474-1.951zm1.681-1.107c-.158 0-.264.158-.367.369a4.082 4.082 0 0 0-.105.844v.053c0 .316.053.58.158.844.051.264.156.369.314.369.105 0 .211-.105.314-.369.053-.264.105-.527.105-.844v-.053c0-.316-.053-.58-.105-.844-.052-.211-.208-.369-.314-.369zm2.573-.949h1.262v.527c.053-.211.209-.316.367-.475s.367-.264.631-.316v1.266c-.053 0-.105 0-.158-.053h-.158a.553.553 0 0 0-.473.264c-.156.158-.209.422-.209.844v2.375h-1.262v-4.432zm3.099 0h1.207v.844c.105-.264.264-.422.367-.58.158-.105.316-.211.422-.264.051 0 .104-.053.156-.053h.158c.209 0 .367.053.525.211.156.158.209.369.262.686.053-.211.211-.422.316-.58.156-.158.314-.264.523-.316h.21c.158 0 .367.105.525.264.105.211.209.527.209.949v3.271h-1.154v-2.902c0-.105-.053-.211-.105-.264s-.105-.105-.209-.105c-.105 0-.158.053-.211.158-.105.053-.105.211-.105.316v2.797h-1.26v-2.902c0-.105 0-.211-.053-.264s-.158-.105-.211-.105h-.053c-.051.053-.156.105-.209.158a.99.99 0 0 0-.105.422v2.691h-1.207v-4.432h.002zm9.137.053v4.379h-1.154v-.527c-.105.156-.211.314-.367.367-.105.107-.211.16-.316.213h-.209c-.316 0-.578-.158-.789-.527-.209-.371-.367-.951-.367-1.742s.105-1.318.314-1.688c.211-.316.473-.527.736-.58h.106c.209 0 .367.053.525.211.156.105.262.316.367.527v-.633h1.154zm-1.522.949a.604.604 0 0 0-.369.422c-.105.211-.105.475-.105.738v.106c0 .264.053.58.105.791.105.264.211.369.369.369.156 0 .262-.105.367-.369.053-.264.104-.527.104-.844v-.053c0-.264 0-.527-.104-.791-.053-.211-.158-.316-.316-.316h-.051v-.053zm-.052-3.219l.893.422-1.104 1.16-.631-.369.842-1.213zm2.939 3.219h-.42v-1.002h.42v-1.268h1.262v1.268h.525v1.002h-.525v3.43h-1.262v-3.43zm3.94-1.002v4.432h-1.209v-4.432h1.209zm-.579-2.059h.053c.211 0 .367.053.525.211a.891.891 0 0 1 .156.527.891.891 0 0 1-.156.527c-.158.158-.314.211-.578.211-.262 0-.473-.053-.631-.211-.104-.158-.209-.316-.209-.475v-.053c0-.211.053-.369.209-.527.105-.158.316-.211.525-.211h.053l.053.001zm3.94 5.276v1.109a.6.6 0 0 1-.42.158c-.105.053-.211.053-.369.053-.473 0-.84-.211-1.102-.686a3.231 3.231 0 0 1-.42-1.584v-.053c0-.58.156-1.107.42-1.582.314-.475.734-.738 1.312-.738h.314c.105.053.211.053.369.105v1.107c-.105-.053-.158-.105-.264-.105-.053-.053-.105-.053-.211-.053-.209 0-.367.158-.473.369-.104.264-.156.58-.156.896-.053.264 0 .58.104.844.105.211.264.369.475.369.104 0 .156-.053.209-.053.053-.053.158-.053.211-.105v-.051h.001zm3.99-3.164v4.379h-1.154v-.527c-.105.156-.211.314-.316.367-.105.107-.262.16-.367.213h-.105-.104c-.264 0-.525-.158-.789-.527-.209-.371-.314-.951-.314-1.742s.105-1.318.314-1.688c.211-.316.42-.527.684-.58h.106c.209 0 .367.053.576.211.158.105.264.316.316.527v-.633h1.153zm-1.523.949c-.156.053-.314.211-.367.422s-.105.475-.105.738v.106c0 .264.053.58.158.791.053.264.211.369.314.369.158 0 .264-.105.369-.369.104-.264.104-.527.104-.844v-.053c.053-.264 0-.527-.104-.791-.053-.211-.158-.316-.316-.316h-.053v-.053zm2.888 1.951h1.312l-1.312 2.691h-.893l.893-2.691zm6.145-5.17v5.381h1.523v1.268h-2.836v-6.648h1.313v-.001zm5.514-.422v7.07h-1.312v-.527c-.158.209-.262.367-.42.422-.158.105-.314.158-.42.158-.316 0-.578-.213-.787-.58-.264-.424-.369-1.057-.369-1.953 0-.633.105-1.16.369-1.529.209-.369.523-.58.787-.58h.157c.105.053.264.105.369.211a.982.982 0 0 1 .367.422v-3.113h1.259v-.001zm-1.627 3.588c-.158 0-.316.158-.369.369a2.214 2.214 0 0 0-.156.844c0 .264.053.58.156.844.053.264.211.369.369.369.209 0 .314-.158.367-.369.105-.264.158-.527.158-.791v-.053c0-.316-.053-.58-.158-.844-.053-.211-.211-.369-.367-.369zm5.722-.896v4.379h-1.154v-.527c-.105.156-.211.314-.314.367-.158.107-.264.16-.369.213h-.209c-.314 0-.578-.158-.787-.527-.211-.371-.316-.951-.316-1.742s.105-1.318.264-1.688c.209-.316.473-.527.734-.58h.106c.209 0 .367.053.525.211.156.105.262.316.367.527v-.633h1.153zm-1.521.949a.604.604 0 0 0-.369.422c-.104.211-.104.475-.104.738v.106c0 .264.053.58.104.791.105.264.211.369.369.369.156 0 .262-.105.367-.369.053-.264.105-.527.105-.844v-.053c0-.264 0-.527-.105-.791-.053-.211-.158-.316-.314-.316h-.053v-.053zm2.469 2.584c0-.264.104-.475.314-.58.156-.158.367-.211.578-.211.209 0 .367.053.523.211.211.105.264.316.316.58v.053c0 .266-.105.475-.264.58a.904.904 0 0 1-.629.213c-.211 0-.422-.053-.578-.213-.157-.106-.26-.315-.26-.633z" fill-rule="evenodd" clip-rule="evenodd" fill="#fff"/><path d="M181.697 82.793l-4.779 18.781c-.209.738-.262 1.32-.262 1.637 0 .369.105.686.367 1.002 0 .053.053.158.105.264.105.105.211.211.314.264.105.105.158.211.264.316a.545.545 0 0 1 .262.316c.316.316.578.633.789 1.002.156.369.156.898 0 1.531-.369 1.477-1.576 2.584-3.572 3.322-2.047.74-4.883 1.109-8.611 1.109-3.834 0-6.617-.422-8.402-1.215-1.734-.791-2.469-1.951-2.102-3.322.158-.527.314-.951.578-1.32.262-.316.578-.58.998-.896.156-.105.314-.211.525-.369.209-.105.42-.211.576-.369.158-.053.316-.158.42-.211.105-.105.211-.158.264-.211.262-.158.473-.316.682-.475a1.34 1.34 0 0 0 .422-.527c.367-.58.734-1.531 1.102-2.85s.84-3.061 1.365-5.17a.758.758 0 0 0 .105-.369c.053-.105.053-.211.105-.316.42-1.794.734-3.165.84-4.115.053-.95-.262-1.688-.998-2.216-.053-.053-.158-.105-.209-.158-.053-.053-.158-.105-.211-.158-.42-.264-.734-.528-.998-.897-.262-.369-.314-.897-.105-1.635.158-.844.631-1.478 1.314-2.005.682-.475 1.627-.95 2.887-1.424.158-.053.316-.106.473-.211.211-.053.369-.105.578-.105 3.1-1.055 5.934-1.793 8.508-2.216 2.572-.422 4.359-.58 5.305-.58 1.102 0 1.68.158 1.732.58.105.37-.053 1.161-.367 2.321a.99.99 0 0 0-.105.422 6.6 6.6 0 0 0-.158.527v-.054h-.001zm-10.765-5.328c-2.258.053-3.885-.317-4.83-1.108-.893-.792-1.209-1.952-.789-3.43.367-1.53 1.734-2.849 4.098-4.062 2.311-1.161 5.145-1.793 8.506-1.793 2.363 0 4.098.369 5.146 1.16 1.051.739 1.418 1.794 1.051 3.113-.367 1.583-1.838 3.06-4.254 4.273-2.469 1.266-5.408 1.899-8.928 1.899v-.052z" fill-rule="evenodd" clip-rule="evenodd" fill="#cf4037" stroke="#000" stroke-width="1.465" stroke-linecap="round" stroke-linejoin="round" stroke-miterlimit="2.613"/><path d="M139.16 83.057c1.682-1.372 3.414-2.427 5.252-3.113 1.785-.686 3.623-1.055 5.514-1.055 3.52 0 6.197 1.266 7.93 3.851 1.785 2.585 2.154 6.014 1.104 10.235-.053.053-.053.158-.105.211 0 .105 0 .158-.053.264-.682 2.321-1.732 4.589-3.15 6.858a25.164 25.164 0 0 1-4.832 5.592c-2.467 2.164-5.146 3.799-7.982 4.906-2.834 1.109-5.723 1.689-8.717 1.689-2.311 0-4.359-.369-6.145-1.004-1.785-.686-3.359-1.74-4.727-3.164-.945.369-1.732.58-2.467.738-.736.158-1.418.264-1.943.264-.787 0-1.365-.158-1.734-.475-.314-.316-.42-.738-.262-1.266 0-.211.105-.422.314-.688.158-.264.369-.58.578-1.055.158-.211.316-.527.473-.844.158-.316.264-.633.42-1.002.525-1.371 1.156-3.324 1.838-6.016.736-2.637 1.576-5.908 2.574-9.812.787-3.166 1.365-5.54 1.627-7.122.264-1.636.264-2.479-.051-2.532-.158-.053-.316-.105-.422-.105a86.832 86.832 0 0 0-.473-.159h-.156c-.053-.053-.105-.053-.211-.053-.734-.211-1.365-.422-1.891-.738-.473-.317-.629-.95-.367-2.005.211-.739.631-1.424 1.312-2.058.631-.633 1.576-1.213 2.836-1.793.264-.106.525-.264.84-.422.316-.105.631-.264.945-.369.736-.264 1.471-.581 2.207-.844a51.3 51.3 0 0 1 2.258-.686 57.312 57.312 0 0 1 4.674-1.002c1.523-.211 2.887-.316 4.201-.316 1.365 0 2.1.158 2.258.475.105.263.053.844-.158 1.635l-3.309 12.98zm-4.096 16.039c-.631 2.373-1.104 4.221-.998 5.275.053 1.107 1.051 1.477 2.102 1.477 1.154 0 2.258-.633 3.361-2.004 1.102-1.318 1.994-3.219 2.625-5.697.734-2.85.84-5.013.42-6.49-.473-1.478-1.365-2.216-2.678-2.216-.736 0-1.312.211-1.838.739a4.282 4.282 0 0 0-1.312 2.216l-1.682 6.7z" fill-rule="evenodd" clip-rule="evenodd" fill="#cf4037"/><path d="M139.16 83.057c1.682-1.372 3.414-2.427 5.252-3.113 1.785-.686 3.623-1.055 5.514-1.055 3.52 0 6.197 1.266 7.93 3.851 1.785 2.585 2.154 6.014 1.104 10.235-.053.053-.053.158-.105.211 0 .105 0 .158-.053.264-.682 2.321-1.732 4.589-3.15 6.858a25.164 25.164 0 0 1-4.832 5.592c-2.467 2.164-5.146 3.799-7.982 4.906-2.834 1.109-5.723 1.689-8.717 1.689-2.311 0-4.359-.369-6.145-1.004-1.785-.686-3.359-1.74-4.727-3.164-.945.369-1.732.58-2.467.738-.736.158-1.418.264-1.943.264-.789 0-1.365-.158-1.734-.475-.314-.316-.42-.738-.262-1.266 0-.211.105-.422.314-.688.158-.264.369-.58.578-1.055.158-.211.314-.527.473-.844s.264-.633.42-1.002c.525-1.371 1.156-3.324 1.838-6.016.736-2.637 1.576-5.908 2.574-9.812.787-3.166 1.365-5.54 1.627-7.122.264-1.636.264-2.479-.051-2.532-.158-.053-.316-.105-.422-.105a86.832 86.832 0 0 0-.473-.159h-.156c-.053-.053-.105-.053-.211-.053-.734-.211-1.365-.422-1.891-.738-.473-.317-.629-.95-.367-2.005.211-.738.631-1.424 1.312-2.057.631-.633 1.576-1.213 2.836-1.793.264-.106.525-.264.84-.422.316-.105.631-.264.945-.37.736-.264 1.471-.58 2.207-.844a51.3 51.3 0 0 1 2.258-.686 56.894 56.894 0 0 1 4.674-1.002c1.523-.211 2.887-.316 4.201-.316 1.365 0 2.1.158 2.258.475.105.264.053.844-.158 1.636l-3.309 12.979zm-4.096 16.039c-.631 2.373-1.104 4.221-.998 5.275.053 1.107 1.051 1.477 2.102 1.477 1.154 0 2.258-.633 3.361-2.004 1.102-1.318 1.994-3.219 2.625-5.697.734-2.85.84-5.013.42-6.49-.473-1.477-1.365-2.216-2.678-2.216-.736 0-1.312.211-1.838.739a4.282 4.282 0 0 0-1.312 2.216l-1.682 6.7z" fill="none" stroke="#000" stroke-width="1.482" stroke-linecap="round" stroke-linejoin="round" stroke-miterlimit="2.613"/><path d="M90.794 107.906c.21-.846.578-1.426 1.103-1.742.473-.369 1.05-.633 1.575-.844.053 0 .105 0 .158-.053.21-.105.42-.158.63-.264.21-.053.368-.158.578-.264.84-.527 1.68-2.215 2.521-5.012.84-2.797 1.943-6.753 3.256-11.871l.156-.633.158-.633c.525-2.004.893-3.693 1.104-4.959.209-1.319.105-2.269-.42-2.849a2.246 2.246 0 0 0-.631-.581 5.807 5.807 0 0 0-.787-.422c0-.053-.053-.053-.105-.105h-.105c-.525-.264-.998-.528-1.365-.897s-.42-.95-.209-1.794c.156-.686.473-1.266.893-1.793.473-.528 1.102-1.002 1.891-1.477.209-.105.42-.211.629-.37.264-.105.525-.211.736-.37 1.627-.738 3.518-1.424 5.566-2.004 2.1-.58 4.201-1.002 6.248-1.266.631 0 1.209-.053 1.838-.105.578-.053 1.156-.053 1.787-.053 1.312 0 2.152.158 2.414.527.316.37.316 1.108.053 2.11-.104.264-.262.897-.525 1.899-.262 1.002-.682 2.427-1.154 4.168-.525 1.793-1.104 4.009-1.785 6.594-.684 2.585-1.471 5.54-2.311 8.917-.945 3.64-1.576 6.542-1.891 8.599-.314 2.109-.264 3.43.105 4.01.104.105.209.211.367.316.105.105.209.211.367.316.053.053.053.105.105.105s.053.053.104.105c.369.264.631.58.895.949.262.369.314.951.104 1.689-.367 1.477-1.68 2.584-3.938 3.322-2.205.74-5.41 1.109-9.506 1.109-3.938 0-6.774-.316-8.56-1.004-1.733-.686-2.416-1.793-2.048-3.27v-.1h-.001z" fill-rule="evenodd" clip-rule="evenodd" fill="#cf4037"/><path d="M90.794 107.906c.21-.846.578-1.426 1.103-1.742.473-.369 1.05-.633 1.575-.844 0 0 .105 0 .158-.053.21-.105.42-.158.63-.264.21-.053.368-.158.578-.264.84-.527 1.68-2.215 2.521-5.012.84-2.797 1.943-6.753 3.256-11.871l.156-.633.158-.633c.525-2.004.893-3.693 1.104-4.959.209-1.319.105-2.269-.42-2.849a2.246 2.246 0 0 0-.631-.581 5.807 5.807 0 0 0-.787-.422c0-.053-.053-.053-.105-.105h-.105c-.525-.264-.998-.528-1.365-.897s-.42-.95-.209-1.794c.156-.686.473-1.266.893-1.793.473-.528 1.102-1.002 1.891-1.477.209-.105.42-.211.629-.37.264-.105.525-.211.736-.37 1.627-.738 3.518-1.424 5.566-2.004 2.1-.58 4.201-1.002 6.248-1.266.631 0 1.209-.053 1.838-.105.578-.053 1.156-.053 1.787-.053 1.312 0 2.152.158 2.414.527.316.37.316 1.108.053 2.11-.104.264-.262.897-.525 1.899-.262 1.002-.682 2.427-1.154 4.168-.525 1.793-1.104 4.009-1.785 6.594-.684 2.585-1.471 5.54-2.311 8.917-.945 3.64-1.576 6.542-1.891 8.599-.314 2.109-.264 3.43.105 4.01.104.105.209.211.367.316.105.105.209.211.367.316.053.053.053.105.105.105s.053.053.104.105c.369.264.631.58.895.949.262.369.314.951.104 1.689-.367 1.477-1.68 2.584-3.938 3.322-2.205.74-5.41 1.109-9.506 1.109-3.938 0-6.774-.316-8.56-1.004-1.733-.686-2.416-1.793-2.048-3.27v-.1h-.001z" fill="none" stroke="#000" stroke-width="1.465" stroke-linecap="round" stroke-linejoin="round" stroke-miterlimit="2.613"/><path d="M27.567 112.549c-3.624 0-6.774-.369-9.453-1.109-2.678-.686-4.779-1.477-6.25-2.32-.473-.264-.84-.58-1.155-.844-.315-.264-.578-.527-.735-.738-.63-1.057-1.05-2.586-1.208-4.59-.158-2.006.158-4.379.84-7.176.367-1.478.945-2.533 1.681-3.271.788-.686 1.733-1.055 2.94-1.055.945 0 1.628.264 2.101.686a9.19 9.19 0 0 1 1.208 1.741c.105.369.263.739.473 1.161.157.369.368.792.63 1.213 1.103 2.111 2.469 3.693 4.149 4.695 1.628 1.055 3.518 1.584 5.567 1.584 1.628 0 2.993-.318 4.096-.951 1.103-.633 1.733-1.371 1.943-2.268.21-.633.105-1.16-.262-1.531-.315-.422-.893-.844-1.733-1.213a21.882 21.882 0 0 0-2.678-.95c-1.051-.369-2.206-.791-3.466-1.372-4.569-1.846-7.719-4.167-9.558-7.017-1.786-2.796-2.206-6.067-1.26-9.812 1.208-4.696 4.148-8.706 8.875-11.871 4.674-3.218 10.135-4.801 16.385-4.801 1.418 0 2.678.105 3.781.264s2.101.264 2.888.422c.84.158 2.153.475 2.678.686 3.833 1.213 8.14 3.166 10.293 7.228 1.103 2.11.42 5.592-1.733 7.333-1.208.95-2.573 1.424-4.096 1.424-.63 0-1.155-.105-1.628-.264a4.22 4.22 0 0 1-1.26-.896c-.525-.369-.998-.897-1.47-1.53-.473-.581-.998-1.266-1.628-1.952a8.592 8.592 0 0 0-2.73-1.952c-1.05-.528-2.153-.791-3.414-.896h-.683c-1.365 0-2.521.263-3.361.738-.893.528-1.418 1.213-1.628 2.11-.263 1.002-.053 1.794.63 2.374.683.581 1.733 1.108 3.099 1.583.683.264 1.365.475 2.153.738.788.264 1.681.528 2.574.792 4.778 1.477 8.087 3.324 9.978 5.645s2.258 5.592 1.208 9.813c-1.365 5.223-4.621 9.549-9.873 12.979-5.254 3.428-11.556 5.17-18.908 5.17z" fill-rule="evenodd" clip-rule="evenodd" fill="#cf4037" stroke="#000" stroke-width="1.482" stroke-linecap="round" stroke-linejoin="round" stroke-miterlimit="2.613"/><path d="M74.988 90.865a25.84 25.84 0 0 0-1.523 4.326c-.42 1.583-.735 3.167-.893 4.696-.21 1.477-.21 2.691.053 3.482.263.844.735 1.318 1.418 1.477.788.158 1.575-.105 2.363-.738s1.47-1.529 1.995-2.797c1.733-3.746 2.679-7.122 2.889-10.076.21-2.902-.315-4.537-1.628-4.801-.84-.158-1.628.158-2.416.897-.788.738-1.523 1.898-2.258 3.534zm-15.755 1.688a20.818 20.818 0 0 1 4.569-6.647c1.891-1.899 4.201-3.482 6.827-4.748 2.416-1.108 4.884-1.899 7.405-2.216 2.521-.369 4.989-.316 7.404.211 4.831.95 8.087 3.218 9.82 6.7 1.681 3.482 1.47 7.597-.683 12.293-1.05 2.373-2.468 4.537-4.307 6.436a24.596 24.596 0 0 1-6.301 4.854c-2.574 1.371-5.146 2.27-7.772 2.691a21.721 21.721 0 0 1-7.825-.158c-2.258-.424-4.148-1.215-5.724-2.322-1.576-1.16-2.731-2.586-3.571-4.326-.945-1.951-1.365-4.062-1.365-6.277.053-2.165.526-4.38 1.523-6.491z" fill-rule="evenodd" clip-rule="evenodd" fill="#cf4037" stroke="#000" stroke-width="1.465" stroke-linecap="round" stroke-linejoin="round" stroke-miterlimit="2.613"/></svg>