<svg xmlns="http://www.w3.org/2000/svg" width="2500" height="2500" viewBox="0 0 192.756 192.756"><g fill-rule="evenodd" clip-rule="evenodd"><path fill="#fff" d="M0 0h192.756v192.756H0V0z"/><path d="M110.719 42.4c.227.792-.34.34-.678.792.451.34.111.906.338 1.246l.453-.453.34.453c-1.02.227-1.471.113-1.924 1.019 1.02.68 1.244.227 2.15 1.132.566-.792.113-1.358.453-2.151-.566-.34-.68-1.246-.68-1.246l.34-.566 8.605.339-.453.453c.227.339.566.113.906.227.111-.113.227-.227.111-.339l-.338-.34c9.057.227 16.529 0 25.02.792-.111 0-.227.114-.338.227.111.227.338.113.564.113-.791.227-.564.792-.564 1.358h.678c-.113 0-.225.114-.34.227.566.566.906-.339 1.359-.566l-.566-1.359c7.473-.679 14.832.114 22.531-.566 0 2.831-.566 6.114-.793 8.944l-10.416-.453c.227-.227.453-.453.34-.793-.227-.113-.34-.453-.68-.339-.227.453-.227.679 0 1.132h-.34c.113-.34-.113-.566-.34-.793-.227.113-.113.453-.113.566l-1.584-.113c.227-.906.68-1.585.453-2.491-2.152 1.359-7.359-3.623-6.453 1.698v.339c-4.756-.679-11.209 0-16.305-.679l-.453.339-7.359-.113c-.34.34-1.357-.113-1.924.34-.906 0-1.924.113-2.604-.227l.113-.113-.113-.226c-.453.905-1.473.453-2.152.566-10.416.566-20.152.226-29.663.339l-.566.34-5.887-.113.453-.453-.906-.792-.679.679.679.679c-1.812 0-3.623 0-5.095.227v-.227c-6-.113-12.567.227-19.134-.34-2.038-2.717-4.981-4.189-7.925-5.321-1.472.34-2.377-1.132-3.849-.34-.453-.905-1.359.453-1.812-.452-.793.452-2.604-.566-2.378 1.358.227 1.358-.566 3.396.68 4.189 1.698.339 4.189 0 5.774 1.132-3.963-.34-7.812.339-11.435.566 0-.113 0-.227-.113-.339-1.925 1.132-4.868.113-7.359.905-1.924.227-3.962.227-5.548 0l-.226-4.755c.34 0 .453.34.679.453l.227-.113.227.339c.453-.227.34-.679.34-1.019-.34-.453-.793-.453-1.246-.227l-.226-3.17c.792-.34-.226-1.019.34-1.359l5.661-.226.227.566.453-.566c5.095.906 10.982-.227 16.077.453 7.812-.227 15.511.227 23.21-.453 0 .453-.34 1.019-.227 1.358h.566l-.339.792c.566-.226.453.792.906 1.132.453-.34-.113-1.019 0-1.019.453 0 .679.452 1.132 0l-.905-.68h.792c-.566-.34.34-1.585 0-1.585.906.679 3.057-1.019 3.283 1.019 0-.113.34-.226.227-.452l-.227-.34c3.17-.906 7.359-.226 11.209-.906 0 .34.34.566.453.68.792.453.679-.792.679-.792 7.698-.675 16.529.344 24.227.457zm67.252.226c-.793 2.264.68 4.189.113 6.566.906.566.34 1.925.566 2.944-3.283.792-6.34-.113-9.51.113-.566-3.057.904-5.661.566-8.944 1.584.339 3.621-1.246 3.961 1.019-.225 0-.34 0-.564.113.451.453.34 1.698 1.244 1.358.227.113.34-.226.453-.34v.906c.566.34 1.359 0 1.473-.566.227-1.132-.34-1.812-.906-2.831-.566 0-.906.68-1.473.68v-.453c1.247-.225 2.606-.451 4.077-.565zm-97.254 1.472l.339-.34c.566.114.114.566.34.68.113.453-1.698.566-.453 1.358l-.566.227c-.227-.227-.793-.34-.906-1.019 0 0 .113-.793.679-.566.566-.566-.227-.68-.34-1.019l-.113-.113c-.339.113-.113.452-.226.679-.453-.339.453-.792-.227-1.019-.792.453-2.717 1.359-3.17 2.717l-.792-.792c-.679-.113-.113.792-.906.453.113-.113.227-.227.227-.339-.339-.114-1.132.113-1.585-.114-.227-.566-.793-1.132-1.019-1.584h.566c-.227 1.132.679 1.132 1.358 1.584v-.792c.226 0 .34 0 .453.227.113-.792.34-.227.68-.906.226.227.566.566.792.227l.453-.453c1.246.34 2.038-1.019 3.51-.227.34.339.566.791.906 1.131zm24.115-.792l-.906-.114.113-.453c.227.793 1.02.001.793.567zm-84.687-.114c.113.34.34.906.906.906l.452-.34-.792-.566c-.227-.453 1.245-.227 1.698-.227l-.792.227c.453.453-.114 1.019.792.792-.906 2.944 1.358 5.888 0 9.058-3.396 1.019-7.02.34-10.643 1.359-.453-3.623.113-7.699.227-11.436 2.604.227 5.888.115 8.152.227zm50.382 0c0 .34-.565-.679-.565.114l.339.339-.792.113v-.452l.113.113c.679.113.226-.906.905-.227zm20.719.454h-.339c0-.339.113-.566.339-.453v.453zm11.436-.454c.113.227-.227.34-.34.566-.113.114-.34 0-.34-.113 0-.339.227-.679.68-.453zm-84.122.454v-.339h.34l-.34.339zm112.54.339v.453c-.906.453-.793-.566-1.02-1.019.453.566.906-.227 1.02.566zm-21.965-.227c-.113.793 1.018.227.68.566l-.566.34c0-1.019-1.473-.227-1.359-1.019.339.227.905.113 1.245.113zm-3.737 1.359v-.792l.34.792h-.34zm8.153-.452c0 .34-.113.906-.68.679v-1.019c.34-.114.453.113.68.34zm-6.115.679l-.34-.453-.113.114v-.566h.453v.905zm-89.895 1.019l-.679.792c.227-.452 1.019-.905.453-1.472-.227-.453-.793.113-.566 0l-.227-.792c.34.792 1.585.113 1.019 1.472zm105.066-.567c.113.566-.68.68-.34 1.246.34 0 1.02-.113 1.473.113a.88.88 0 0 0-.227.906l.113.227.678-.793c.68.566.68-.906 1.359-.113-.227.34-.113.906.34 1.132.68.792-.566-.453-.68-.453l-.904-.227.225 1.019-2.717.339c-.113-.905-.34-.226-.566-1.132.453.34.566 0 .906-.227-.113-.113.113-.566-.227-.68h-.227l.453-.452c-1.02-.34.34-1.246-.906-1.698.228-.565 1.134.114 1.247.793zm-10.189-.113c-.793-.453.227-.227-.227-.679.34.113.114.453.227.679zm6.113-.226c-.566.566.34 1.02-.566 1.359 0 .453-.113-.227.227-.227l-.68-.226c.113 0 .227-.113.34-.227-.564.227-1.584-1.132-2.264-.34-.227-.566.453-.226.68-.792 1.357-.566 1.019 1.811 2.263.453zm-34.078.226c.227.227.34.453.34.906-.114 0-.227.114-.34.114-.453-.114-.453-.793-.113-1.02h.113v-.566h.453l-.453.566zm80.498 0v.906c-1.133 0 .34-1.132-.566-1.472.793-.113-.227.566.566.566zm8.492.113c-.115.113-.34-.226-.566-.113v-.566l.566.679zm-141.41.34c.453-.113-.339.566-.226.906 1.698.227 1.019 1.246 1.924 2.377-.452 0-.905.227-1.358.566.113.227.453 0 .906.113-.906.566-.34.792-1.132.792-.227-.113-.566-.339-.792-.113l-.34-.34-.34.34c-1.019-.453-.679 1.924-1.698.906 2.831-.566-1.472-2.604 1.358-2.831 0-.227-.226-.566-.679-.453l-.227.113v.34s.113-.566-.227-.566c-.453 1.358-.566 0-1.472 1.132l.339-.34-.113-.226.453-.34-.679-.226h.227c.339-1.585-2.944-.68-1.02-1.925 1.359-1.019.793 1.925 2.265 1.358.227.68 1.358.113 1.812.566 1.245-1.133-1.585-2.491.113-2.944.454.229.454.795.906.795zm3.17-.792c0 .113.113.453-.113.453h-.113v-.453h.226zm36.004 1.019l-.227-1.019h.227v1.019zm28.869-1.019c-.113.792 1.246.453.906.679-.34-.453-.566.113-.68.113 0-.227-.227-.34-.34-.453l-.678.113c.454-.226.228-.679.792-.452zm23.891 0c.111.227-.227.453-.34.679v-.679h.34zm-54.685.339l-.679.906c.113-.453-.227-.566-.339-.792.339-.114.565-.567 1.018-.114zm101.216.453l-.453-.68v.34l.453.34zM63.055 47.381c-.226-.113-.339.113-.339.113-.566-.34-.453-1.132-.227-1.698.34.34.566.907.566 1.585zm3.509-1.585h.34v.906h-.34v-.906zm105.407.227c-.227.113-.227.34-.227.566l-.34-.792c.227.226.34.226.567.226zm-133.937.34c.113.566-1.132 1.019-.906 1.472-.227.227-.792 1.925-1.585 1.358-.566-.113.453-.905 0-1.132.226 0 .566.113.679-.227 0-.113 0-.34-.113-.453-.227-.227.566.113.792-.566l-.453-.227c.339 0 .679.566 1.019.114l.113-.68c.114.228.567.001.454.341zm135.634 0l.227-.34.793.566-1.02-.226zm-138.918.34l-.227-.34h.566l-.339.34zm-14.152 1.585c.679-.453 1.132-.566 1.698 0-.227 0-.113.339-.113.566-.34.339-1.472-.453-1.472 0 .226 0 .226-.34.226-.453-.906-.113-.792-1.472-1.584-1.812.792.226.792.906 1.245 1.699zm9.51-1.246c.113.113.226.227.34.113l.226-.113c-.113.113-.226.227-.34.113v-.452c-.112 0-.226.112-.226.339zm41.212.792c-.113 0-.227.113-.34.227.566.453 1.245-.113 1.925.453-.68 0-.68 1.132-1.585.679l.339-.339-1.019-.792.339-.227c-.905 0 .34-.566-.339-.792l.339-.339c-.112.338-.338 1.13.341 1.13zm34.871-.679c.227-.226.566-.113.791-.113.227.227-.451.792.34.792l-.564.566c.451-.566-.113-.906-.113-1.359l-.793.792c0 .227.34-.68-.113-1.132l.452.454zm-78.8-.34l.566.566-.566-.566zm42.457.906c-.227-.113-.566-.566-.227-.906.227.227.454.68.227.906zm43.59.68l-.34-.68-.453.34-.227-.566c-1.02.793.68 1.359-.227 2.151v-.792c-.227 0-.34.226-.453.339-.566-.905.68-1.472.453-2.038.68.34 1.473.114 2.037-.339-.337.339-1.13.792-.79 1.585zm7.244.679c.115-.566-1.018-.679 0-1.019-.225-.34-.564-.227-1.018-.227v-.453l.566.34v-.679c1.131.227.227 1.812.452 2.038zm8.152-.792c-.227-.793-.34-.113-.113-1.246h.453l-.34 1.246zm15.172-.907c.227.453-.113.906-.34 1.02v-1.02h.34zm30.795 0l.566.906-.566-.906zm1.924.34l-.451-.34h.451v.34zm-65.553.68l-.453.453-1.244-1.359c.566.226.793 1.698 1.697.906zm30.683.339c-.68-.227-.113-1.019.338-1.246.114.34.453 1.36-.338 1.246zm29.436 0h-1.02c-.113.227-.227.339-.113.339 0 0 .34-.566-.113-.679v-.566c.453.227.906.454 1.246.906zm-153.071.114c-.113-.227-.339-.113-.566-.113l.566-.679v.792zm144.014-.453c0 .226.227.339.453.453.227 0 .564.226.791-.113 0-.113.453.679.34 1.246H162.8l.113-.227-.453-.34c-.34.227 0 .793-.566 1.019 0-.226.113-.453-.113-.453h-.34l.34-.34c-.227-.453-1.02-.453-.68-1.245h1.133zm-46.42.792c-.227.34-.566.227-.906.227v-.227h.68l-.113-.679c.793.113-.227.453.339.679zm59.327-.679l-.34 1.132.34-1.132zm-96.122.905c-.226 1.019-1.359.34-1.359 1.472-.339.113-.566.227-.679.453-.566-1.019.113-.679.679-1.132-.339-.566-.339-.906 0-1.472.34-.226 1.019.227 1.359.679zm94.649.227h.227v.34h-.227c-.225-.453-1.131-1.132-1.924-1.246.906.227 1.36.114 1.924.906zm-63.627-.453l.111-.113.566.34-.677-.227zm-11.662 0c.227.566-.34.793-.68 1.246-.113-.227-.566-1.585.68-1.246zm10.416.793c-.453-.566-.906.227-.453-.793l.453.793zm-88.876-.567h.226v.68h-.226v-.68zm52.986.68l-.339-.34c-.114.227-.34.227-.566.227.226-.566-.34-.227.339-.566h.566v.679zm3.056-.34v-.113h.34l-.453 1.698-.452-.453c-.566.68-.227-.453-.793-.339l.113-.792h-.113c.453-.793.793.452 1.358-.001zm45.853-.113c-.113.34-.566.34-.906.566-.678-.566.34-1.132.906-.566zm56.27 0l-.113.906-.227-.566-.453.566c0 .113 0-.453-.34-.339-.791-.227-.791.792-1.018 1.132 0-.113.227-.227.113-.453h-1.02c-.113.227-.227.34-.227.34.113 0 .34-.34 0-.453 0-.227 1.133.113.566-.566l.227.226.793-1.019c.34.792 1.133.226 1.699.226zm-109.481.453c-.113.113-1.019-.68-1.359 0l.227.792c-.113 0-.679-.905-.453-1.245l1.585.453zm1.358.792l-1.019-.679.566.226.453.453zm102.35.453c-.34-.227-.453-.906-.34-1.132l.34 1.132zm-151.26-.226c0 .113-.114.227-.34.227-.453-.34 0-.453-.113-.906.453-.114.34.452.453.679zm139.371-.227c-.453-.113-.453-.339 0-.453v.453zm-12 .906c.227.679-.906 2.377.227 3.057 1.697-.906 3.736.906 5.434.227.227-.906.34-1.812.566-2.831 1.133-.227 1.924.113 3.057.227-.34.679.566 1.472 1.133 1.925.791-.34-.113-.792.227-1.246l-1.02-.679 9.85.339-.113 2.491c-.227 0-.34.227-.34.227l.34.566c-.453 3.962.227 9.057-1.246 11.888 1.02.113.113 2.264.113 3.057.34.226-.791-.113-.904.453-.113.34 0 .679.34.906 0-.227.227-.227.451-.227-2.15 8.039-2.037 18.228-3.396 26.833h-.225c-.453 3.283.225 6.793 0 10.303-2.945-.566-6.342-.227-9.059-.34-1.246.791-2.264-.227-3.51.34-5.32-.34-11.096.113-17.549-.34-.113-.453.227-.906-.34-1.133-1.02-.453-.68.68-1.02 1.133-2.377-.453-5.32.453-7.133-.113l.906-.906-.227.566c.453 0 .793.34 1.359 0 .34-.906 1.697-1.699.34-2.379-.34-.451-.906-.791-1.359-.338.34.564-.453 2.15-1.246 1.357.115 0 .227.113.227.34l-.227.113-.111-1.02c-.453 0-.227.453-.68.566.227-1.584-1.359-.227-1.473-1.357l-.793.113c.906-2.039 3.398-2.266 5.549-2.492 1.02.906 2.49-.566 3.51.68 1.924-.68 2.717 1.246 4.643.566.791 1.471 2.49-.566 3.057 1.133 2.264.227 4.867.227 7.133-.227 4.754-.227 9.283-2.039 13.586-3.85.793.453 1.018-.453 1.357-.453-.34-1.359-.451-3.396.34-4.869l-.113-.792c-2.604 1.358-6 2.831-9.057 3.962l-.113-.451c-1.133-.34-.227 1.018-1.359.678-4.301 1.246-8.717 1.246-12.793-.34-2.943.34-5.434-2.83-8.379-1.244-2.377-.113-4.867 1.018-7.359.906l-.791.678c-.113 0-.113-.227-.34-.227-.566.68-.34 1.699-.227 2.492-.113-.113-.227 0-.34.113.793.791 1.357 2.943.906 3.736-.68 0-.906.678-1.02 1.244.453.34 1.02.227 1.133-.34.338 0 .453-.453.678-.564 1.473.564.227 1.697.793 2.604l1.133-1.02-.227-.227c.453.34 1.246.68.906 1.586l-7.359-.34c.566.34.566-.793 1.02-.68l.225.68c.34.113 1.246-.227 1.133-.906h.227v-.451h-1.697v-.227c-.68-.113-1.246.68-1.699 1.246-1.359-.34-.34-1.926-1.359-2.943.113.113.227-.113.227-.113v-.227h-.451l.451-.34s-.113-.227-.227-.227v-.113c.453.113.68 2.264 1.699 1.359 0-1.02-1.246-1.586 0-2.379.227.113.113.453.113.68-.113 0-.453 0-.453.227l.566.68c.566-.566.453-.227.906-.566l-.906-1.699c.453.227.68.113.906-.113l-1.359-1.244c.227-.227 1.586-.453.906-1.133 0-.453 0-.68.34-.906-.34-.791-.906.113-1.359 0l-.566.453c-.113-.113-.34-.113-.566 0-.113.227-.34.453-.227.793l.113.113c-.453.113-.791.227-1.131.68l.34.68.904-.453c-.566.453.68.566.453 1.131h-.453c-.34.34.227.793.453 1.246-.566 0-1.131-.453-.904-1.246-.115 0-.115-.225-.34-.113v.453c-.113-.227-.453-.113-.906-.227l-.227 1.133c-.906-.113-1.926-.566-2.604 0l-.227 1.02c.34 0 1.018-.227 1.131-.68l.113-.227c-.113.566-.453 1.02.113 1.359-1.018.113-1.018.791-.793 1.584l.68-.34c-.227.227-.791.793-1.018 1.359-.227 0-.34 0-.566.113l.904.68c-8.264.904-16.642 1.244-25.586.904-.453-.564-.453-1.357-.453-2.037-1.019-.68-1.472-.793-1.472-1.924l-1.132.904c.34.113.906.113 1.132.68-.339.113-.566.113-.792.34.453.34 1.925-.113 1.698 1.02l-.453-.68c-.34.34-.68 1.246-1.019 1.133.566.451 1.132-.453 1.698.34-.906-.113-3.17.564-3.623-1.133 0 0-.113.227-.34.227l-.453-.566c.113.453-.453 1.133.453 1.359-.453.225-2.264-.566-3.51 0l.113-.227-.34-.34-.113.227c-5.661.113-11.208-.113-16.869-.453-.453-1.359-1.358.113-2.265 0-2.038-.793-4.188 0-6.113-.566-5.321-.113-10.982-.453-16.304-.566-.68-1.473.34-2.717.792-3.85-1.246-.34-1.924 1.586-2.831 1.473-.226.566.566 1.584.906 2.377-1.925-.227-3.85-.227-5.548 0-.906-.227-2.038-.113-3.057-.113.227-.113.453-.566.34-.906l-.113-.227c-.792.34-.453 1.699-1.585.906l-.114-.113c-.226 0-.226.34-.226.453l-.34-.453-.339.453v-1.697c1.132.451 1.472-.68 1.585-1.473 1.019.793 1.812 1.586 2.717 2.717l1.132-1.244v.225h1.358l-.113.115c.227.564.453.111.792 0 .114-.68-.566-.566-1.019-.793h-.677c3.057-2.605 5.321-4.982 7.699-8.152l.113.113c2.151-4.868 3.963-10.755 1.698-15.963l-.453-.566c.339.113.453-.113.679-.339.227-.34-.34-.566-.566-.792l-.566.226c-1.925-4.755-5.321-9.51-3.284-15.284l.113.227c.906-.34-.226-.906.34-1.359.113-.453.566-1.358 1.132-1.925 1.924-2.151 3.962-3.736 6-5.208-.792-1.245-.906-4.981-3.51-3.057-1.019 1.132-2.038 1.925-3.623 2.264-1.246 1.698-3.284 2.604-4.076 4.529.114-.453-.566-1.019-1.019-1.472-.226 0-.339.227-.453.453-1.019-.679.566-1.812-.906-1.924h-.792l.453 1.472c.227 0 .227-.227.227-.453.227.34.227.792.68 1.019-.793.906-1.585.566-2.378.227-.113-.34-.906-.34-1.245-.906l-.793.679c.113.113.227.453.453.339l.34-.339c-.566.227-.113.566 0 .906l.113.113-.566-.113.113 1.358c.906 0 1.132-2.264 1.812-.679 0 .113-.34.227-.227.453 0 .226.227.226.453.226-1.019.566 0 1.019.339 1.698.453.113.792-.226.906-.566l1.698-1.472c-2.491 3.736-3.623 9.51-.906 13.7a53.406 53.406 0 0 0 3.623 7.698c-.906.68.227.792.339 1.358 1.246 5.548-1.132 10.869-4.528 15.172v-.68c.566.68.453-.453.906-.34-.453 0-.453-.68-1.019-.453-.34.227-.34.453-.113.793v-.227h-.566c.113 1.131.566 1.357-.34 2.264l-1.132 1.359c0-.113-.113-.227-.226-.34-.34.793-1.246 1.357-2.038 1.697.226.68.34 1.473.34 2.039-1.472-.793-.68-3.057-.906-4.869 0-4.981.226-13.02.566-18.454 4.755 1.472 1.472-3.51 3.057-5.321 0-.227 0-.793-.453-.566H24.9c.339-.113.679-.566.906-.906 0-.679-1.132-1.472-1.358-1.698l.226-.453c-.226-.453-.792 0-.792-.566l-.566.792.679.566-.34.566.68.453c-.227 0-.453-.113-.453.114-.113.339.227.339.227.566-.227.113-.453.113-.566.339l.34.34h-.68v-.34c.114 0 .34 0 .453-.113-.905-1.358.453-3.623-.679-4.981.113-3.85.453-7.586.34-11.548l1.019-.566-.34-.68c-.113.34-.566.113-.793.227v-4.302c.68-.227 1.699-.114 2.491-.227-.792.339-.227.679-1.019.905l.566.566c-.339.113-.566.566-.226.792.339.227.453.679.792.566.679-.905.679-2.038.453-2.83.34 0 .679.227.792.566 2.038-1.019 4.076-.792 6.454-.792 0 .227.113.566.34.792-.227-.566.453-1.359 1.132-1.019h1.245c0 .227 0 .453.227.453.453-1.472 2.717-.453 3.849-1.02 3.17.453 10.417-2.377 11.888 2.944l.905 1.472.227-.113c2.151 5.887 2.265 14.492-2.83 19.134l-1.812 2.038c-.453-7.926.679-16.077 1.019-24.116-1.585-1.132-3.51.113-5.435-.339-.679 3.057-.113 6.34-.566 9.057h-.226c.566 1.246.226 3.623.226 5.435l-.453.227.453.453c0 9.171-1.132 19.587-.906 28.984-.227-.113-.339.113-.453.113.566 1.697.566 4.303 0 6.34-.113.566.566.68.906.906.453-1.02 1.358.34 1.925-.566 2.038-.566 2.264 1.811 3.51 0 0-.227.113-.68-.113-.793.227-.113.453.113.679-.227 0-.68-.453.227-.566-.34-.453-1.471.792-2.15 1.358-3.057-.453-.34-1.019 0-1.358.227l-.113-4.981c.679.905.792-.227 1.358-.566l-1.358-.113.227-10.416c6.906-4.528 10.529-11.888 11.661-19.586.113 0 .453.113.566-.113-.793-1.132 0-2.491 0-3.736-.34-1.812-.793-3.51-1.585-5.208.226-1.359-.793-2.377-1.472-3.51 9.737-.226 19.021.679 29.437-.226-.113.226 0 .339.113.339.339-.227.679-.339 1.245-.339-.113.226 0 .339.113.339.227 0 .453.113.566-.113v-.339c9.851 1.132 20.38-.68 29.89-.113 0 0-.227.113-.113.227.113.339.453.113.906.226.113-.453.113-.566.564-.679.227.453.68.227 1.133 0 2.717-.227 7.246-.227 9.059 0l-.113.227c.227.679.791-.227 1.018.113.906-1.359 4.416-.34 6.342-.34 3.395.449 7.016-.458 10.301.335zm-121.031-.113l.679-.34-.339.34h-.34zm102.689.566c-.113-.113-.68 0-1.02-.453.34-.453.907.226 1.02.453zm1.246.227l-.227-.34.564.113-.337.227zm-5.888.339l-.453.227c.226-.227.226-.566.453-.227zm17.888.226c.113.227.34.113.566.113.68 1.358-1.246.453-1.699 1.019l-.338-.339c.225.339.451-.453 1.018-.227l-.227-.453.906-.34-.226.227zm23.209.906c-.225.566-.791-.339-.678.566-.34.113-.566-.679-1.02-.113h.113v.453h-.113c0-.906-.906 0-.68-.453.227-.227.566-.227.793-.566l-.113-.68c.113.227 1.246.453 1.357-.34-.563.454.228.794.341 1.133zm11.889-1.132c.227 1.02-1.473 1.698-.227 2.378-1.246 4.076.566 9.057-1.473 12.907-1.471 5.321-2.604 10.982-3.057 16.53l-.34-.34c.115-.113.227-.113.115-.34-.566.566-2.152.34-2.605 1.359l.113.227h-.68c0 .566.793.339 1.02.679l.453-.226v.679l.227-.113c-.34.113-.566.906-.566 1.132-.34-.453.227-.792 0-1.132h-.566c0-.68-.566 0-.793-.34.453-.34 0-.566 0-.906-.564-.227-.225.453-.451.566 0 .793.113.566.34 1.359.111 0-.68 1.019 0 1.019v.34c-.113-.113-.227-.227-.34-.227-.34.339-.566 1.019 0 1.245l1.244.34c.113-.453-.453-.792-.793-.792l.906.113-.113.114c.227.566.453-.227.793-.114v.68l-.34-.566-.453.566c0 .113.113.227.34.113v.227c-.68.113-.906-1.02-1.471-.227.338.792-.227 1.812.904 2.151-.113 0-.678.566-1.018.113l-.113-.113-.566.453.793.679c.564-.113.451-.792 1.131-.34-.227.113-.34.453-.566.68l.566.792c-.34.114-.566-.339-.793 0 1.133.906.793 2.038-.111 2.831-.453 0-.906.227-1.02.566.34.68-.453.906-.906 1.471l1.133.793c0-.906.793.34.566-.68.791-.227 1.471.34 2.037.906l.906-1.244c-.906 0-2.379.111-2.943-.34V97.65l.564.566c-.113.113-.227.227-.227.453l.227.113c.906-.113.453-1.586 1.699-1.02-.566-.453 1.133-1.359-.34-1.359-.227.227 0 .68-.453.906h-.34c0-.68 1.246-.906.566-1.584.793-.227.34 1.584 1.246.452l-.34-.226c.227-.226.34-.906.566-1.472.451 0 .904.906 1.357 0-.113.68.34.906-.227 1.472.793-.34.68 1.358 1.359.226-.113-1.245-1.02-2.376-2.264-2.716l-.113.566c-.34 0-.793-.114-1.359-.566.68.227.227-.679.34-1.132l-.793-1.019c.793-.792 1.133-1.472 2.266-1.019.338-.453-.68-.68-.115-1.132l.68-.453-.34-.339.566-.113c.906 2.377.793 5.887 1.359 8.831v.34c-.34-.113-.227-.566-.566-.453l-.34.34 1.02.793c1.924 6.113.793 12.34.34 18.566-1.926-.111-3.736.227-4.869-.904-3.736.904-7.812-.793-11.662-.453l-1.018-.566-.113.793c-1.812-.68-3.85-.34-5.436-.34l-.34-.453c-6.906.227-13.02-.227-19.586-.113-11.322-.68-21.059 1.246-32.721.68h.227c.227-.34-.227-.906-.566-1.246-.338.227-.791.34-1.018.68.227.227.113.566.113.793H88.755c.566-.566-.566-1.133-.453-1.699-.339-.227-.679 0-.792.453l.226 1.02h-3.17c.113-.227-.227-.34-.227-.566-.227.113-.227.453-.227.566-10.416-.453-21.398-.113-30.682-1.246-1.472.566-3.057-.34-4.642.227v-.227c-1.132.227-2.491-.453-3.85 0 .453 0 1.019-.34 1.358-.793.227-.451-.339-.451-.566-.678-.566-.227-1.358.453-2.038.904.227.113.227.453.566.566-6.793-.566-13.133 1.246-20.605.34-.339.113-.905.68-1.019.227l-.453-.566c-.34.113-.113.566-.227.68-2.604-.227-6.68-.227-9.51 0 .226-2.037-1.585-5.887 1.472-5.773 1.698-.227 3.396-.227 4.981-.113.453.566-1.246 1.584.339 1.811.114-.68.34-1.924 1.359-1.471l-.113-.453c.227-.113.566 0 .792-.227.226 1.357-.226 2.264-1.019 3.057-.679.566-1.472-.34-2.264.113l.226.906c.566-.113 1.925-.113 2.378-.906l.339.566c.34-.113.566-.566.906-.566l.453 1.02.339-.34c-.226 0-.226-.453 0-.453l1.246-.566c-.566-1.02-1.246 0-1.925-.68.113-1.357.227-2.49 1.925-1.924.453 0 .453-.453 1.132-.227l.792.793c-.68.564-.453-.793-1.132-.793l-.566.453.792.566c-.34.678-.227 1.697-.227 2.604.34 0 .453-.453.679-.566l-.113-.906h1.019l-.453.34c.792.906 1.132-.453 1.585-.566-.792-.566-.34-1.811-1.358-1.924.339-.34 1.019 0 1.245 0 9.737-.566 19.021.453 28.078.453l.34.34c.679.34 2.717-.453 3.623 0 .679.678 2.264 0 3.17.227 0 .113.113.225.227.338 1.472.113 3.623-.564 5.095.113-.113.113-.227.227-.227.453l.227.113c.566-1.018 1.812-.566 2.831-.68.453-.225 1.359 1.246 1.698 0 .339.113-.114.453.339.68l.679-.566c0 .227.114.227.114.453.339 0 .453-.227.679-.453 2.265.453 5.095-.113 7.02.566 1.358-.566 3.509.34 4.642-.113l1.246.227c-.227.227-.566.453-.566.68.113.34.453.227.68.227.566-2.15 2.943-.227 4.189-1.02 5.321.68 9.51-.793 14.719-.34 1.697.34 4.301-.791 6-.34-.113.34.113.68-.227.793l.34.34c.34-.227.113-.566.227-1.02.68.34.453 1.359 1.473 1.246l-1.02-1.584c5.887-.113 12.566.338 18.566 0l-.338.338c.904.906.227 2.379 2.037 2.266 1.02-.34.227-1.473.34-1.812-.113-.68-.793.113-.68-.791.453-.227 1.133.564 1.586-.113v.113c9.057.791 16.529-.113 25.699.225h-.227c-.451.34.113.566.227.793.113-1.471 2.039-.68 2.832-.68v4.756l.564.453c1.246-1.586-.34-3.85.68-5.322 1.359.34 3.396.113 5.096.113 0 .227-.113.227-.113.453 0 .113.34.113.453.113.227-.113.113-.34.113-.566 1.697 0 3.621-.113 4.98.227.113-.227.453-.34.34-.678-1.473-.793-3.396-.113-4.982-.227.113 0 .227-.113.227-.34-.791.791-2.717-.227-3.736.566l-2.717-.566c-.34-9.625.906-18.794 2.266-28.192h.227c0-3.17.904-6.68 1.244-10.076.793-.34.227-.906.227-1.358l.453-6.454c.793-.227-.113-.792 0-1.246.34-1.019-.113-1.925.34-3.057.34.113.566.34.906.566 0-.113.227-.226.113-.453l-.113-.113c.453-.34.34 1.358.113 1.585h.113l-.113.792c.34-.792 1.244.227 1.244-.792h-.566c.34-.679 0-1.472-.338-2.038h-.227c-.113.113.227-.453-.227-.339l-1.133.339.34-5.095 2.717.113c.113.227-.227.453-.113.68l.113.113c1.473-1.925 4.416.227 6.566-1.132h.456v-.006zm-114.01.34v.453l-.34-.566c.113-.114.226-.001.34.113zm31.134 0c0 .227-.226.339-.34.453h-.566v-.566c.34-.001.68-.227.906.113zm66.347.679l-.793-.227c.566.227.113-.566.34-.453l.113.227.34-.34c.339.34-.454.567 0 .793zm-70.649 0h-.339c-.34-.227.227-.453.339-.453v.453zm20.266 5.435c-6.113.566-12.453.906-18.567 1.698h.113v.906h-.113c.113 0-.792-.227 0-.566v-.34c-1.019-.339-3.057 1.019-3.283-.566l.227.227c.226-1.698 1.246-3.736.339-5.321 7.019-.453 14.378-.906 21.285-1.359l1.133-.566c.225 1.698-.681 3.849-1.134 5.887zm13.926-4.869c.906-.34-.227-.792.566-1.019v1.132l-.566-.113zm38.494-.566c-.227 0-.34.226-.453.339v-.792l.453.453zm-32.155-.226v.227h-.451c.112-.227.225-.567.451-.227zm-50.607.566c0 .339-.453.113-.566.227-.34-.34-.227-.566.113-.792l.453.565zM22.41 58.59c-.113 0-.227.113-.227.113.792 5.547-.113 11.888.113 17.662-1.132.453-3.17-.906-3.283 1.019l.226 5.095c.906.227 1.698-.453 2.717-.339v.453c-.113 0-.453 0-.453.227 0 .113-.113.453.114.453h.339c-.339 2.377-.113 4.755-.113 7.359l-.226-.227c.339.68.226 2.378-.34 3.284v.226h.566c-.226 1.246-.566 1.812-.226 3.17-.114-.227 0-.68-.566-.68.679 3.17.339 6.002.452 9.736-.226 0-.339-.111-.452-.225-.566.678.566.678.226 1.357h-.226v.34c-3.397.227-6.001.227-8.945.68-3.736-17.889 2.151-34.532-.339-52.986 3.057-1.359 7.02-.566 10.643-1.472v4.755zm52.193-4.755c.113.226-.227.339-.339.566v-.566h.339zm55.364 0l.453.905-.453-.905zm26.832 0h.34v.566h-.34v-.566zm-34.418.34v.566c-.227 0-.34-.339-.566-.227l.227-.566c.112.114.226.227.339.227zm-1.473.226c0 .113-.111.226-.227.339h-.451v-.566c.227.001.567-.112.678.227zm7.699.793c-.113.113-.227.113-.227.34-.113-.227-.564-.566-.678-1.132l.905.792zm31.248-.113l-.113.113-.227-.68c.114.227.454.227.34.567zm-125.444.113c-.34.34-.792.113-1.132.113h.792l-.34-.453c.227.566.566-.34.68.34zm80.157-.34h.68-.68zm25.362.792c-.227.339-.113.792-.113 1.132.113-.113-.34-.566-.68-.34.113-.113.113-.227.113-.339l-.453-.566c.113 0 .227-.227.113-.34-.227-.227-.678-.113-1.018-.113.792-.113 1.358-.113 2.038.566zm-121.71 0c1.019 0 0 1.925 1.133 1.132 0 .227-.566 0-.793.113l.227-.113c-.113-.566-.792-.453-1.132-.566l.34 1.02c-.679-.227-.566-.906-.453-1.585.34.227.792-.227.679-.566l.68.227-.681.338zm14.492-.452v.113l-.68-.227c.227.001.454.454.68.114zm124.653.34l-.227-.453h.227v.453zm-31.248.905l.227-1.245h.34l-.567 1.245zm9.737-.793c-.227 0-.227.113-.34.227.113.792.453-.227.68.339 0 .566.68 1.246.227 1.925 0-.227-.113-.339-.227-.339l-.34.339c-.34-.679.906-1.472-.453-2.038-.113 0-.227.113-.227.339l.34.34-.791-.906-.566.566c-.227-.452 1.13-1.697 1.697-.792zm24.681.227c-.113 0-.227.113-.34.227 0 .679 1.473 1.811 0 2.491-.566-.566.566-.227.34-.792-.793-.792-1.697-.566-2.49-1.019.453 0 1.02-.113 1.471-.566l-.111-.113c.111.226.451.113.678.113l.113-.905.339.564zm-143.786.906h.34l-.227.453c-.792.566-.906-.906-1.472-.68-.227-.679.906.113 1.132-.679 0 .339-.113.679.227.906zm15.963-.906l-.227.906.227-.906zm53.553 6.001c-1.925.113-3.396 1.812-5.321 1.132.339 6.68 1.019 13.02 2.604 19.247 2.378-.453 4.416-1.698 6.34-2.831.679.566-.566 2.038.339 2.831-.339.679 0 1.358.34 1.924l.34-.339c-.227.227-.113.792-.113 1.132-.453.679-.906-.113-1.359.339-1.472 1.359-3.17 2.264-4.982 2.604.793 4.869 1.02 10.53 2.378 15.51-1.925 1.246-4.189-.453-6.227 1.133.566-2.037-.68-4.189-.793-6.453h-.339c.453-.566-.227-1.133-.227-1.699-.227 1.133-.453 2.039-1.246 2.719.113.225.34.225.453.225l-.452.226.453.566.227-.227-.227.566-.906-.68c.113 0 .113-.34.113-.453-.339-.338-1.019-.564-1.358-.225-.227.111-.227.338-.227.451-.113 0-.113-.227-.227-.113-.452.113-.226.566-.226.906l-.906-.906c.227.113.34-.113.34-.113-.906-.678-.906.453-1.812.227-.227.227-.34.453-.34.793l-.339-.906.113.113c.227-1.697 2.151-.451 2.378-1.811.453.113 1.019 0 1.019-.453v-.34c.453.113.453-.453.68-.566-.113-.678-.227-.452 0-1.245 1.019.566 1.812-.34 2.491.566-.113-2.038-.566-4.189-.906-6.34-3.85-.34-7.699-1.812-11.662-2.717-1.472 2.83-2.491 6.227-3.623 9.396-.339.227-.226.68-.226 1.02-1.133-.113-.453 1.133-1.246 1.586l.339.453c-1.811-.113-.339 3.283-2.49 2.377-1.472-.453-2.944.34-4.303.34a72.198 72.198 0 0 0 1.585-4.529c1.472-3.396 2.718-7.019 4.076-10.416-1.358.566-3.283.792-4.529 1.811l-1.924-5.321c2.717-1.698 6-2.038 9.17-2.83 1.925-6.34 5.774-12.001 7.133-18.568-2.717-.453-4.189 1.245-6.227 2.604-.34-1.925 0-3.85-1.132-5.661 3.396-.227 6.227-2.378 9.624-1.359 3.17-.339 6.567 2.264 9.85.339l3.283-1.811c.793 1.7-.226 3.737.227 5.776zm29.663-5.774h.34v.339h-.34V56.1zm13.699.792c-.566-1.019.906-.113.906-.453-.566-.339-.34.566-.566.906l.793.566 4.074-.113c-3.734 4.529-6 10.642-9.396 15.963.113.453.68.906.227 1.358l-.453-.452c-.227.566-1.133 1.245-.566 1.925-1.357.226-1.357 2.038-2.264 2.83-1.584 3.85-3.963 7.699-5.547 11.548-1.02 1.585-2.039 3.509-3.059 4.981-1.584 0-3.623.565-5.094.112 5.32-10.755 10.982-21.397 16.643-32.266-3.736.453-7.926-.113-11.549.679.227-.679.34-1.246-.225-1.812h-.113V62.1h.338c.115-1.472.453-2.944.34-4.302 5.096.453 10.756.679 15.852-.453l-1.359-1.132 1.018.679zm2.603-.34l.34-.34c-.566.113-.566 1.132-1.244 1.02.111-.453-.227-.566-.453-.793.565-.453.904.113 1.357.113zm33.627 0h-.68c.227-.113.34-.453.68-.34v.34zm-8.718.453h-.34l.113-.566c.227.227.567.453.227.566zm10.302-.226l-1.131.113c.452-.226.565-.226 1.131-.113zM14.484 57.798l-.566-.906.566.113v.793zm125.446-.566h.566c-.453.792-.113 1.245.453 1.698l-1.02.566c.453.339.453.679 0 .906-.68-.227-.113-.906-1.133-.793l.113-.113-.34-.34-.451.792c-.566-.227-.793-.906-.906-1.019.34-.566.68-.793 1.244-1.359-.451 0-1.131 0-1.244-.679.681-.112 2.265 1.813 2.718.341zm-51.741.566c-.227.113-.453.453-.679.339l.226-.792c.227.113.453.226.453.453zm74.499.339l-.453-.792.453.453v.339zm10.755 1.472c0-.453-1.02-.339-.566-1.019l.113-.68c.905.567.338.907.453 1.699zm-33.287-1.019c-.34.453-.566-.227-.906.34-.227-.113-.113-.453-.113-.68.34-.113 1.019-.339 1.019.34zm26.492.114c.227 1.019-.453 0-.791.566v.339s0-.453-.113-.453c-.227.113-.34.34-.453.679h-.113c-.227-.566.34-.566.566-.679-.68-.453-.453-.566-1.246-.566l-.113.906c.566-1.132-1.697.226-1.471-.906l1.018.34c.227-.566.227-.227.566-.793.68.227 1.586.567 2.15.567zm-13.246-.227c.113.227-.227.227-.34.453.227.339.68.226 1.02.226.566 1.472-.34 2.831-.34 4.189-2.717-.679-5.547 1.132-8.49 1.246-3.396 1.924-7.246 4.642-8.719 8.378-1.811.453-.453 2.83-1.811 3.509-.34 3.17-.453 7.133 1.811 9.737 2.264.68 3.51 3.963 6.34 3.17 1.473.339 3.057.339 4.756 0 3.623-.566 7.473-3.17 8.83-6.567 1.586-2.377 2.832-5.435 1.586-8.151-.113-.566-.906-.114-.68-.793l.34-.339c-.566.339-1.246-.34-1.586-.566.227-.227.227-.453.566-.34l.113.113c.227-1.359-1.584-2.265-2.717-2.944-4.303-.906-8.945.906-11.436 4.642-.113.566 0 1.358-.68 1.925.906 1.019-1.018 2.83 1.133 3.057 0 1.358 1.586 1.925 2.604 2.265 1.473.113 2.492-.566 3.623-1.246l3.396 2.038c-.113.906-1.018 2.378-2.264 3.057-.906 0-2.037 1.359-3.17.792-1.133 1.019-2.83 1.019-4.189.679-2.83-.453-5.094-2.717-6-5.321-.68-3.963 1.02-7.926 3.396-11.209v-.792c2.264-1.812 5.547-2.491 8.152-4.076.904.113 1.811-.453 2.717-.566 3.17.566 6.113.113 8.377 2.378 2.039.679 2.719 3.283 4.076 4.642-.793 1.472.566 2.604.68 3.736-.906 0-.34 1.019-.68 1.359.113 3.057-1.924 6-3.057 8.831-.566 2.151-3.057 3.849-4.756 4.642l-2.717 2.151c-1.924 0-3.623.792-4.98 1.585-.68-.792-1.246.227-1.699.453.68-1.698-2.377-.226-3.396-.566-4.416-.34-7.812-2.491-10.982-5.548 0-.906-1.018-2.038-1.357-2.491h.227c-1.926-3.057-2.039-8.265-1.133-11.548 1.246-4.755 4.756-8.265 8.266-11.662 1.584-.566 2.943-2.151 4.641-2.377 2.943-2.038 7.473-.793 10.416-2.378l.113.227zm-132.804.793c0 .566-.113 1.019.453 1.359l-.114-.227-.226.227c.113.113.113.226.113.226s-.68-.906-.906 0c-.114.453.113.906.566 1.132 0 0 .113-.227.227-.113v.226c-1.019.566-.453-1.359-1.698-.792v-.679h.34v-.793c-.566.793-2.151.227-1.812 1.698-.453.68.113-.566-.226-.679l-.793-.453.227-.113c-.227.113.68.679 1.132.113 0-.793.679-.566 1.358-1.472l-.453-.453c.68.34.906 1.812 1.812.793zm-7.812.226l-.227-.792.566.227-.339.565zm1.019-.226c-.227.453.339.453.453.679h.339c-.566.453.793.566-.113 1.019.113.566.453 1.019.339 1.585l-.566-.566c.792-.227.113-.679 0-1.019l-.339-.339c.226 0 .339.113.339.226l.227-.226c-.113-.34-.679-.68-1.019-.34-.227 0-.227.113-.34.113-.113.226.34-1.019.68-1.132zm155.109 0h.566-.566zm-127.031.905c0 .113-.114.453.113.453h.34c-.34.226.226.566.226.679-.226.339-2.15-.453-1.698 1.019-.226-.453-.566-.34-.679-1.019l-1.359.793c0-.792.906 0 1.019-1.132.227.34.566.453.792.227.113-.34.679-.792.226-1.019h.34l-.226-.566c.566-.114.793.112.906.565zm92.951.114l.793-.34-.227.34h-.566zm-24.115 0c-2.717 3.85-4.188 8.378-5.66 12.454l-.227-.113-3.17 7.812c1.359 1.246 2.037-.453 3.396.792h.566c-.113.679.566.906 1.133 1.019.111-.34.564-.113.564-.566l-.227-.113c.227.226.68 0 .793-.34.113-.113 0-.227-.113-.34 1.246-.113 2.039.227 2.943 1.019 0 .566-.791.227-1.131.679.34-.227.453-.453.453-.905-.34-.113-1.02.453-1.246.226l.453.679c-.793.453-1.473-.905-2.49 0-1.359-.113-1.926-2.264-3.396-1.019 0 .339.338 1.132-.566 1.019.227.113.34-.113.34-.113 0-.453-.453-.566-.793-.566-.227.113-.113.34-.113.566-.68-.226.113-.792 0-1.019-.34.113-.566-.227-.793-.34-.34 1.812-1.924 3.17-1.811 5.208-.566.793-1.246 2.038-1.246 2.943.453.114.906.453 1.359.453.564 1.019-.566 1.698-.113 2.831l-1.246-.339c.227-.113 1.133-.566 1.246-1.246-.34-.566-.68.226-.793-.34h.227c.34-.339-.113-.906-.453-1.245-1.473 2.831-2.604 5.774-3.623 8.718l.226.113c0 .113.114.113.114.113 0-.113-.566-.113-.566.113 1.698.791 3.849-.113 5.773.227 2.492.34 4.869-.566 7.359-.566l.453.566c-1.359 1.471-2.264 3.057-2.943 4.867-5.322.227-11.662-.566-16.87 0-.227-1.811 1.246-3.396 1.132-5.094.906-2.717 2.491-5.208 3.283-8.039-.566-.339-.566-1.245-1.359-1.132-.792.453.227 1.132-.226 1.699-.792-.113-.566-1.132-1.246-1.359.68-.679 1.472-.679 2.718-.34-.114 0-.227.114-.227.34l.227.113.679-.792c0-1.698 2.265-3.284.68-4.755.226-.227.453.113.566.34 2.376-6.566 4.982-13.02 7.585-19.474l-.453.227c-.227-.113.34-.227.793-.566l.68-1.472-.906-.226c.68.339.453-.792.906 0 .678-.906.111-1.698 1.018-2.604 2.04.566 4.077-.793 6.341-.113zm63.515 0c-.34.113.453 1.132.453 1.698-.68.113-1.244.566-1.244.906l-.115.113c-.791-1.698-2.49.679-3.057-1.359l.34-.339c.113.226.34.226.566.226.227-.226 0-.905.566-.679l-.34-.679c1.134.226 1.814 1.244 2.831.113zm-136.993 0c-.227.113-.113.34-.113.566l-.227-.566h.34zm99.859.565l-.227.113-.453-.566c.226.001.453.227.68.453zm29.548.114h.793-.793zM101.436 62.1l-.453 1.132c.113-.792-.906-1.698-1.924-1.245l-.793.566c.68-.453 0-1.132 1.02-1.245.79 1.019 1.13.112 2.15.792zm-58.308-.453l.113-.113.34.34-.453-.227zm-20.832.227c-.227.113-.453.227-.793.113.454 0 .34-.567.793-.113zm-6.113 0l.566.113-.566-.113zm76.422.679c-.227 0-.566-.226-.68.113 0-.339.227-.906-.34-.792.567-.114.68.453 1.02.679zm-4.642.34c-.227.566-.453 0-.906.339l-.566-1.132c.453.453 1.245 0 1.472.793zm2.83 0c-.113-.113-.227-.227-.34-.227-.34.227-.227.566-.227.906h-.566c.792-.453.679-1.245 1.585-1.472l-.452.793zm65.893-.227l-.34-.566h.34v.566zm-116.501-.113c-.34.113-.34.566-.113.792l-1.925 2.378.227.226-.566.227v-.566c.227.113.34-.227.566-.34-.113-.227 0-.566-.227-.679.453-.226.906-.226 1.132-.792l-.453-.453h.113l-.113-.679c.113.34.566.113.906.227v-.34h.453v-.001zm128.163.453l.793-.113-.227.113h-.566zm-142.995.226h.68v.113c-1.019-1.019-2.151 2.038-2.378 0 .68.679 1.019-.227 1.698-.339v.226zm131.333.453c-.453.566-.227-.227-.68-.113l.34-.34c.113.113.453.226.34.453zm13.812 0c-.227.339-.791-.113-.791-.453.564-.339.451.453.791.453zm-150.579 0l.226-.113.34.227-.566-.114zm65.78.793h-.566c-.453-.679.34-.679.906-.906-.454.226.112.679-.34.906zm1.358-.793l-.792-.113h.566l.226.113zm10.302.566h.34c0-.113-.792-.113-.792.34l.339 1.019c-.339 0-.565-.34-.679-.566-.227.113-.227.34-.227.566-.226-.34-1.132-.453-1.358.339h.226v.68h-.226c-.226-.114 0-1.132-1.132-.906-.226-.113-.453-.227-.792-.34.34-.227 1.132.68 1.585-.113.114.113.34.453.566.34 0-.113.114-.227.114-.34l-.34-.339c-.226-.227.679-.34.34-.906 0 .227.113.227.226.453.226 0 1.584-1.925 1.81-.227zm65.102 0l.227-.679.227.227-.454.452zm-140.504.68l-.453-.453h.34l.113.453zm-2.604.452h-.34v-.679c.226.227.566.453.34.679zm143.899-.679c0 .227.113.453-.113.566l-.225-.566h.338zm-79.478 1.698c-.227.113-.227-.113-.34-.113.113-.453.453-1.246 1.132-1.246.453.68-.566.906-.792 1.359zm-41.551.227c0 .226.227.339.339.453l.34-.34c-.113.227 1.019 1.812-.34 1.698-.566-.566-.339.566-.792.34.227-.227.227-.566.453-.792-.227-.34-.792-.113-1.245-.113l.792-.566c-.339-.453-.906-.793-1.245-.34l.339-.339c.114-.227.114-1.132 0-1.359l.566 1.472.793-.114zm128.728-.68c-.34.906-1.697 1.132-1.811 1.472-.113-.906.68-1.585 1.131-2.151.454.113.567.227.68.679zm-79.705.68c-.113 0-.453-.114-.453.113v.34h-.34l.113-.792h-1.019l.34-.566-.679-.113c.793.112 1.925.338 2.038 1.018zm-51.401.113c.34.227-.68-.792-.34-1.019h.566l-.226 1.019zm124.993-.34h-.68l.34-.453c.113.227.453.227.34.453zM36.222 67.987l1.019-1.358-.566 1.358h-.453zm57.628-1.245l.113-.113.566.113h-.679zm-17.435 9.85c-.792 1.358.906 2.264.566 3.962-.34 1.132.453 1.698.566 2.717-2.491.566-4.189-1.698-6.68-1.585-.34-.793-1.472-.34-1.924-.906 1.019-1.585 1.245-3.396 1.924-5.095 1.019-3.057 2.604-5.887 3.736-8.944 1.019 3.058.453 6.907 1.812 9.851zm20.944-8.945l.906-.906-.68 1.132-.226-.226zm67.252-.339c-.113.113-.227.113-.453.113v-.34c.227.001.34.001.453.227zm6-.226c0 .34-.34.566-.566.792.453-.227 0-.792.566-.792zm-78.006.792c-.227-.227-.453.113-.68.227v-.792c.453-.227.453.338.68.565zm24.569-.227c-.227-.226-1.02.227-.68.792.566 0 .453.906 1.018.34l-.225.227.564.566c-1.018.906-1.244-1.245-2.377-.226-.453-1.019.793-.793.453-1.925l1.247.226zM35.543 68.78c-.453-.34.113-.679.226-.906h.113l-.339.906zm61.59-.34l-.792.793.792-.793zm-56.609 1.585c-.792-.113-1.925.226-2.377-.792l-.906.339.226-.792c.793 1.019 2.378.34 3.057 1.245zm73.367-1.245c.111.792-.115 1.132-.793 1.246l-.227.113-.227-.113.566-.679-.113-.113c.567.225.227-.681.794-.454zm-5.549.792l-.453.906.453-.906zm-57.288.227l.566.227-.566-.227zm-13.247.906h-.34v-.679c.114.112.453.339.34.679zm12.228.339c-.679-.566.453-.34.34-.906v.906h-.34zm35.777-.113l-.339-.566h.339v.566zm-72.007.566c.453.34-.34.566.339.906h-.226l-.113.113s.339-.34 0-.453l-.566.68c-.906-.566.34-1.019.566-1.698l.679.339-.679.113zm10.643-.113v.34h-.453v-.453c.113 0 .453-.113.453.113zm-9.284.34v.339l-.34-.566c.226 0 .226.113.34.227zm34.191.339l-.339-.566.339.34v.226zm3.058-.339c.227.339-.227.453-.34.679h-.113c-.114-.566.113-.566.453-.679zm112.425.113c-.113.339-.453.226-.68.226v-.339c.227 0 .567-.114.68.113zm-78.347.339v.453l-.453-.566c.113 0 .453 0 .453.113zm22.191.567c-.227.227-.566.113-.793.227-.113-.34-.113-.566.227-.793.226.226.792.113.566.566zm-20.832-.114l.113-.227.792.34-.905-.113zm77.101.566l.566-.792-.227.792h-.339zm-128.842-.113c.113.227-.227.34-.34.453l-.226-.453h.566zm-17.322 1.359c-.906-1.246.679-.34.906-1.019-.567.113-.001 1.132-.906 1.019zm41.098-.906l-.113.566.113-.566zm-45.061 1.132l-.227-.906.453.34-.226.566zm150.127-.906c0 .227.113.566-.113.68h-.34v-.68h.453zm-101.783.34l.113-.227.227.227h-.34zM21.277 75.12l-.792.906c.566-.227 0-.792 0-1.246-.227.114-.34.453-.34.68h-.226v-.34c.226 0 .226-.113.339-.226-.113-.227-.339-.114-.566-.114l.453-.453c.113.567.793.567 1.132.793zm43.476-.792h.453-.453zm-45.74.566v-.227l.34.113-.34.114zm68.723.226l-.679.68c.113-.792-.792-.227-.906-.905l.339.339.34-.453.227.68.679-.341zm22.983.113h-.227v.792l-1.357-.566c-.227-.227.34-.566.68-.68.337-.112.904.115.904.454zm-22.19 0h-.566l.339-.339c.114.113.227.226.227.339zm27.399 1.585v-.226c-.453-.227-1.02.566-1.02.792l-.113-1.358c.906.566 1.246-2.491 2.039-.34l-.906 1.132zm-52.081.68h-.339c.339-1.245-.792-.792-1.359-1.358h-.679c0 .339-.34-.227 0-.453l.113.113v-.68c1.359.113 1.925 1.246 2.264 2.378zm44.042-2.038c.227.566-.113 1.132.227 1.698l-.227.566c0-.906-.906-.566-1.471-.792h-.227c.227-.339 1.131.339 1.244-.566l-.34-.34c0 .566-.564 0-.678 0v-.227l1.131-.113-.113-.453v.227h.454zm-91.367.339l.34-.339-.113.566-.227-.227zm110.615.567c.566.566-.227.566.227 1.358-.453 1.132-1.02-.906-1.02-.227l.227-.113-.906-.566-.227.679-.793-.339c1.359-.566.113-.792.566-1.698 1.019-.453.906.792 1.926.906zm-111.181-.567l.34.679c-.566.114-1.019-.226-1.132 0 0-.113 0-.453-.113-.453-.113.453-.679.906-.227 1.472-.227-.679-1.358.227-1.358-.339.679 0 .566-1.019 1.358-1.359.34.793.793 0 1.132 0zm42.117.567c.566.227 1.359.792 2.038.227.113.566-.679.339-1.019.566l-.566-.566-.453.792c.227 0 .113.34.113.453l-.679.227c.227-.566-.34-.453-.34-.566h.227l-.227-1.019c-.113.34.227.453.34.68.227 0 .227-.114.453-.227 0-.113-.226-.113-.226-.339l.679-.793c.113.225-.226.338-.34.565zm29.89-.567l.566.227-.566-.227zm-75.403.793l-.453-.453h.34l.113.453zm98.838 0c0 .226-.113.339-.227.339l-.227-.453c.228.114.228.227.454.114zm-95.215 1.132l-.679-.792h.339l.34.792zm40.192-.34l.453-.453v.566l-.453-.113zm48.344-.226v.339l-.793-.113c-.227-.34.566-.226.793-.226zm1.019.906c.34-.227.793-.34 1.02-.68.791.113-.227.34.338.68-.451 1.358-1.018-.566-1.811-.227v-.906c.906.113-.453.906.453 1.133zm3.85-.566c-.113-.566.453-.113.564-.566.227.566-.338.452-.564.566zm61.25.339l-.34-.34c.34.113.566-.339.906-.113l-.566.453zm-53.891.34c.113 1.585-1.473-.453-1.359 1.246l-1.246 1.132-.451-.792c.678-.566 1.584.226 1.697-.68-.793-.792-1.473-.566-2.49-.906l-.453.68c-.566-.792 0-.227.227-1.019.793-.227 1.924.453 2.717.227v-.566c.679-.228.905.452 1.358.678zm-13.361.114l-.451-.566h.451v.566zm-17.435.339l.453-.453v.34l-.453.113zm23.324-.113l.113-.226.564.339-.677-.113zm1.923.113c-.453.453-.68 0-.68-.339l.68.339zm15.286-.339l.68.226-.68-.226zm27.964.565c0 .226-.227.339-.34.566-.113-.227-.453-.227-.566-.227v-.679c.34.001.68.001.906.34zm-46.193.227c-.227-.113-.906 0-.68.68-.227 0-.453 0-.453-.227-.113.113-.227.227-.227.34.227.339-.113-.453-.451-.68l.113-.113c-.113.227.225.453.338.68l.793-.68-.453-.453c.34.339.794 0 1.02.453zm56.156.113v-.339h.566l-.566.339zm-51.4.226c-.906-.113-1.586.566-2.266 1.472.34-.792.113-1.472 1.473-1.698l.793.226zm-17.663.453c-.226.339-.34.339-.566 0h.566zm68.95 1.019l-.34-.453h.34v.453zm-51.06.566c0-.113.113-.227.338-.227l-.338.679-.34-.792.34.34zm58.873-.339h.227v.453h-.227v-.453zm-79.706 1.471c.339.227 1.358.453 1.245-.113-.226.34.34 1.359-.906.906.113-.113-.227-.226-.339-.453l-.113.227c-.453-.113.679-1.698 1.358-1.925 0 1.019-.906.679-1.245 1.358zm16.077-1.132c-.227.227-.566-.113-.793.227v-.227h.793zm2.49 1.359v-.34h.566l-.566.34zm-7.586.792c-.225 0-.34.113-.451.227l.451-.679v.452zm8.492 2.264h-.566c.227-.566-.34-.566-.566-.792l-.453.227c.453-.566.113-1.132 0-1.359.113-.226 1.246-.339 1.586-.566-.794.566.905 1.925-.001 2.49zm-87.744-1.698l-.227-.227.34-.339.226.227-.339.339zm68.95.114c-.792-.113-.34 1.019-1.019 1.019.113-.227-.227-.339-.34-.453 0-.68.906-.113 1.359-.906v.34zm-61.703.226v.113h-.793c.113 0 .566-.679.793-.113zm60.571 1.246v.906l-.34-.906h.453-.113zm1.698.905c-.566 0-.566-.906 0-.906v.906zm-63.516-.679h.34v.339h-.34v-.339zm60.459 1.585h-.227l.566-.679c.114.339-.225.453-.339.679zm-74.044 0c-.227.114-1.019 0-.792-.566.339 0 .905 0 .792.566zm110.388 0h-.566c.113-.113.34-.566.566-.566v.566zm-37.589 1.698c-.792-.339 0-.905 0-1.358l.34-.679c1.132.792-.566 1.132-.34 2.037zm20.04-.566c-.113.227-.113.453-.453.453-.793-.453.113-1.019.113-1.472.453.227.34.68.34 1.019zm-77.895-.453c-.113.227.113.453-.113.679h-.227v-.906c.228.001.228.114.34.227zm20.946.114c-.114.113-.227.227-.227.339h-.34v-.339h.567zm120.351.339h-.453c.227-.113 0-.453.453-.339v.339zm-63.855 2.378c-1.02.113-1.812-.566-1.359-1.472 1.019-1.245 1.699.68 1.359 1.472zm-91.254-1.359c-.566.566-1.585.906-1.698-.339.679.452.905.113 1.698.339zm88.197.567l-.227-.227-.113.566.68-1.019c-.34.113.34.68-.34.68zm15.283-.34c0 .113 0 .453-.113.453l-.227-.453h.34zm-89.78.34c0 .113-.227.226-.227.339h-.34v-.566c.113 0 .34 0 .567.227zm19.473.565c.792.339 1.132.566 2.038.227l-.679 1.472-.227-.792c-.453.453-1.019-.113-1.245.566.905.453.679.566 1.132 1.132-.34.453-1.358.792-1.812.566-.34-.566.792-.566.113-1.02h-.34v-.339c.227-.113.34.113.34.113.113-.34-.227-1.585-.792-1.132l.339-.34-.905-.339c.566 0 1.019-.113 1.472-.566l.453.453.452-.566.227.113-.566.452zm109.481-.453h.227v.68h-.227v-.68zm-130.201.453c-.113.227-.566 0-.679.113v-.34c.114.001.567-.226.679.227zm136.541-.226c-.34 0-.564 0-.791.34v-.34h.791zm-41.098.453c1.812.679 3.736 0 5.549.226-1.133 1.812.338 3.623-.906 5.208-5.209.227-10.076-1.584-15.512-.453.113-1.924 2.604-3.169 2.717-5.094 2.832.226 5.436.905 8.152.113zm-104.274.679c-.226-.227-.566-.113-.792-.113l-.792 1.019c-.566-1.359 1.132-.34 1.019-1.585l.565.679zm145.712-.679l.566.339-.566-.339zM16.862 92.556c-.227-.227-1.472-.339-1.812-.566.114.339 1.699-1.019 1.812.566zm156.806 0l-.791-.339h.451v-.567c.115.34.453.453.34.906zm-5.094 0l-.34-.792.34.566v.226zm-90.121-.227c.113.227 0 .227-.113.34H78c-.227-.34.339-.793.453-.34zm-50.495.793c-.227.34-.793.792-.453 1.246-.227-.227-.566-.113-.792.113.113-.226-.113-.452-.34-.566.113.114.34.114.566.114.793-1.246-.905-.453-1.132-1.359.678.112 1.131.791 2.151.452zm140.05.566l-.453.566c-.34-.566-.68-.453-1.244-.226.338 1.019 1.697.226 2.037 1.132l1.359-.34-1.699.906-.113-.566c-.453.227-.453.453-.906.792.793.226.68.905 1.359 1.019 0 .113.227.566-.113.68 0-.906-1.473-.34-1.359-1.473-.453.68-.564.906-.68 1.586 1.359.34.115.68.68 1.359-.564.225-.904 0-1.018.791-.793-.227-.34-.566-.34-.791.227 0 .227.111.34.225.113-.225.453-.338.338-.564-.111-.227-.338-.113-.451-.113.566-.566.113-1.133.113-1.699-.227-.227-.34-.566-.68-.453.34-.905.906.453 1.133-.453-.34-.112-.566-.452-1.133-.338.227-.114 1.471.226 1.697-.566l-1.357-.113c.34-.792-.34-1.472-.566-2.377 1.132.11 2.15.45 3.056 1.016zm-142.202.679l-1.358-.906.226-.34c.34.567 1.245.454 1.132 1.246zm-2.264-.113c-.34-.226-.566-.453-.226-.792.565.226-.001.226.226.792zm132.577-.226c-.113 0-.453 0-.453-.114l.34-.453c.226.114.113.453.113.567zm-56.834.679c-.227 0-.453-.113-.453.113 0-.566-.566-.566-.227-1.132l.68 1.019zm70.309-.679v.452l-1.246-.566c.34-.226 1.019-.453 1.246.114zm-149.109-.114l.227.566-.227-.566zm32.494.906h-.339v-.792c-.001.452.565.226.339.792zm119.332.226c-.566.113-1.133-.227-1.02-.679l1.02.679zm-143.561.34c-.113.113-.113.226-.339.226l-.113-.226.339-.34-.679-.34c.226.227.792.227.792.68zm73.252-.226c-.453.453-.906.566-1.473.566l-.227-.114c.341-.112 1.134-1.358 1.7-.452zm-25.927.566c-.453.226-1.358.226-1.811 0 0-.68 1.132-.906 1.698-.34-.114.226-.001.226.113.34zm-25.814.338l-.566-.905h.34l.226.905zm97.934-.112c-.34.339-.906.679-1.473.226-.227-.565.566-.339.68-.565.34-.001.567.113.793.339zm-122.162 0l-.453.226v-.452c.113 0 .453 0 .453.226zm25.587 0c0 .112 0 .339-.227.452h-.113v-.452h.34zm106.198.112l-.453.34v-.452c.114 0 .34-.114.453.112zm-7.812.34c.113.113-.113.453-.34.34h-.453c-.451-.566.68-1.018.793-.34zm-28.758 0c0 .113 0 .453-.227.566-.451.113-.564-.453-.451-.793.227.114.565.001.678.227zm-96.8.907c-.34-.68-.793.34-.566-.566-.34-.227.453-.453.792-.34l-.226.906zm99.179-.34c.113.113-.113.227-.113.34l-.227-.566c.227-.001.227.112.34.226zm-104.274.113v.34c-.114 0-.227.113-.34.227v-.68c.226-.114.34 0 .34.113zm1.245 0c.113.227-.113.227-.113.34h-.34v-.453c.113 0 .34-.114.453.113zm144.013.227l-.227 1.359.227-1.359zm-148.655.793c.227.566-.226-.793.792-.68l-.792.68zm7.02 0c.906 0 .113 1.244.226 1.697l-.452-1.018c1.019-.34-.34-.793-.114-1.359l.566.453-.226.227zm2.83.679c.227 0 .566-.113.792.227l-.792.338c0-1.244-1.358-.564-.906-1.584.339-.113.679-.566 1.132-.113l-.226 1.132zm11.661-.34c-.566.453.34.68.113 1.131-.566.34-.226 1.473-1.132 1.473h-.566c.227-.68.227-.34.566-.906 0-1.244 1.019-1.697-.34-2.717l1.359 1.019zm125.221-.679c0-.227.227-.113.451-.113l-.451.227-.453-.453.453.339zm-92.84.34c-.227 0-.34.113-.34.113l.34-.566v.453zm-.566 1.019c-.227.678-.679.111-1.019 0-.453-.34.113-.793.113-1.246.34.453 1.246.566.906 1.246zm52.759-.453c-.453.453-.34-.227-.793-.227v-.566c.34.34 1.133-.227.793.793zm-45.966-.566c0 .113.113.453-.113.566h-.113v-.566h.226zm-60.119.679v.227s-.113-.68-.339-.566l.339.339zm1.359 0l-.453.564.453-.564zm35.776 0l-.679.34.679-.34zm-28.417.565l.227-.225.339.338-.566-.113zm136.541.226c-.113.227-.453.566-.793.34v-.566c.566-.114.34.906.793.226zm-91.14-.113h.226v.453h-.226v-.453zm-53.892.453c-.453-.68-.453.68-.679.227l.339-.566.34.339zm52.08.453c.566 1.246.339.227.905 1.473H70.3c.113.227-.226.34-.339.566.113-.34-.227-.34-.34-.566-.906.34.227 1.131 0 1.131-.792.227-.566.906-.679 1.473-1.472.68-.34-1.811-1.699-1.699-.339.453.227.793-.339 1.02v-.906c-.34.113-.566-.225-1.019.113v.453l.34-1.018c.113.227.339.113.453.113.792-.227.113-.68 0-1.02h-.226c-.34-.566.453-1.133.566-1.133-.34-.566 0-.113-.113-.793 1.132-.34.678.793 1.358.793zm100.311.453c-.453-.113-.793-.793-1.02-.453l.227-.566c.227.113.793.679.793 1.019zm-144.126-.453l.226-.453h.34l-.566.453zm10.302-.453c-.227.68.453.453.679.906 0-.113-.453.68-.906.227h-.34v-1.133h.567zm-15.85.793c-.453.227-.34-.34-.453-.566l.453.566zm4.415-.34l.339-.227.227.227h-.566zm146.73.113v.566c-.564.113-.564-.566-.791-.906.226.227.566-.226.791.34zm-152.391.227c-.113.227-.339.113-.566.113l-.227-.453c.454-.226.68.113.793.34zm59.1.566c.792.453.679-.453.905-.906l-.113 1.359-.792-.453zm90.234-.453c0 .68-1.244.227-.904.227l.451-.68.453.453zm-101.443 0c-.113.227-.339.227-.566.227v-.34c.227 0 .454-.113.566.113zm9.398 1.924c-1.019-.111-.113-.564-.793-.904-.792-.227-.113-.68 0-1.02.68.68.68.907.793 1.924zm96.801-1.697c0 .227-.34.113-.453.113v-.34c.113 0 .453 0 .453.227zm-156.241.68l-.113-.566v.34l.113.226zm59.893-.227h-.453c-.113-.227.227-.453.453-.34v.34zm93.292.34c-.113.227-.453.453-.453.68-.453.225-.68-.227-1.02-.453-.34-1.133 1.473-1.247 1.473-.227zm-51.741-.34h.34v.34h-.34v-.34zm-93.632.906l-.34-.566h.34v.566zm87.857.565c-1.244 0-2.264-.904-3.057.906l.227.227-.227.113s.34-.34-.227-.453c.34-.906 2.379-1.02 1.586-1.924.567.904 1.018 1.131 1.698 1.131zm-38.154-.565c-.793-.227-.227.678-.793.791l1.02.566h-1.02c0-.227.114-.566-.226-.793-1.02.566 0 .793 0 1.473h.566l-.34.227c-.226-.113-.452-.34-.679-.227-.227.227-.227.453-.566.68h-.113c.792-.566-.226-1.699-.34-2.266.68-.451 1.246.227 1.473-.791l1.018.34zm-7.699.338c0 .227-.339.113-.452.113l-.34-.338c.226-.566.792-.339.792.225zm10.077.227c.226.453-.34.566-.453.906l-1.019-.34c.452.113.792-.793 1.472-.566zm92.612 0h.34v.566h-.34v-.566zm-151.486.793l-.226-.566.453.34-.227.226zm145.939 0c-.34.113-.793-.227-.906-.566.34-.001.566.339.906.566zm-126.239-.227c.453.227 0 .453-.113.68l-.34-.68h.453zm124.766.34c-.227.453.113.793.453.793h.34c-.113.227-.227.227-.227.453.68.113.906.113 1.246.793v.678c-1.246.113-1.133-2.604-2.945-1.018.793.904-1.018 1.584-1.357 2.717l-.34-.34-.113.227-.227-1.246.793.227c.793-1.131.453-2.49 1.811-3.396.113.225.34.112.566.112zm-59.666.227l-.566.453c-.68-.227 0-.227 0-.68.113.227.34.227.566.227zm3.737.339c-.34 1.359-.793-.793-1.473.113l-.451-.34c.791.001 1.131-.452 1.924.227zm-82.083-.226c0 .227-.113.34-.226.34l-.114-.453c.114 0 .114.226.34.113zm35.776 0l-.566.453-.113-.566c.227 0 .566-.114.679.113zm6.001 0v.453c-.339.227-.792-.227-.339-.566 0 0 .113.226.339.113zm1.359.34c-.113.34-.227.566-.227.906h-.34c.227 0 .227-.113.34-.227 0-.566-1.245-.566-.566-1.133.566-.226.566.34.793.454zm52.306-.453l-.566.453.566-.453zm6.566.566c.113-.227.453 0 .68-.113l-.453.906c-.227-.34-1.471-.34-.906-1.359l.679.566zm-11.209.226c-.225.34-.904.113-.678.68 0 .227.34.227.453.227-.227-.113-.34.227-.453.338l.34.453c-1.359.453-1.133 0-2.492-.227.227 0 .453-.338.566-.904.34 0 .68-.113.906-.34l-.566-.906c.454.679 2.04-.793 1.924.679zm-51.06-.226v-.227h.453l-.453.227zm12.567-.113c-1.245-.793-.226 2.037-1.811.906-.114 0-.114.34-.114.453h-.113c-.34-.34.453-.566.679-.68 0 .227 0 .227.226.34.794-.226.115-1.472 1.133-1.019zm48.458.113l-.566-.227h.34l.226.227zm-37.475.226v-.227h.566l-.566.227zm-39.74.907c.227-.113.453-.566.792-.227v.34l-.679-.113v.564c-.906.227-.566-1.244-1.245-.791l.226-.68c-.113.567.566.68.906.907zm3.17 0l-.339.338c-1.133-.905-.001-2.037.339-.338zm49.25.338c.227.115.227-1.018-.113-1.244h.227l-.114 1.244zm52.307-.905c-.793.566-1.699-.34-2.49.566.338-.679 1.81-.906 2.49-.566zm-42.231-.113l.113.68-.113-.68zm-44.947.453v-.34l.679.34h-.679zm6.793.227c0-.227.34-.227.453-.227v.68h-.679l.226-.453c-.792-.566-1.924-.566-2.491-.566.792-.114 1.699.113 2.491.566zm47.324.791h-.227c-.113-.453.566-1.131 0-1.357.794.226-.112.792.227 1.357zm1.02-.678l-.227-.68.34.34-.113.34zm-62.044-.453h.34v.34h-.34v-.34zm60.007.34c-.227.227-.453.227-.68.338l.34-.678.34.34zm-21.852-.227l.339.34-.339-.34zm-13.926.227h.113v.453h-.113v-.453zm-18.567.564c0-.338.453-.451.792-.451.453.451.453 1.018.906 1.357-.68.453-1.246-.34-1.472-.34.227-.678-1.132-.453-.566-1.018l.34.452zm37.134-.111l.34-.34h.227l-.567.34zm-54.57.111c.453.113-.68-.111-.793-.227.453-.111.793.227.793.227zm12.114-.111l-.34.338v-.453c.227-.112.34.115.34.115zm30.682.564c-.113-.227-.453-.453-.227-.68.34-.111.227.454.227.68zm-70.535.453l.227-1.018.339.904-.566.114zm49.25-.453c.679.227 1.472.113 2.264.113l-.226.227 1.019.68c-.566.113-2.151-1.584-2.491 0-.339-.453-.453-1.473-1.019-1.473h.453v.453zm34.985 1.02c.113.453-.566.906.34 1.359l-.793-.68-.113.227c-.566-1.246-2.15-1.359-3.396-1.246.68.34 1.473 0 2.037-.34-.225-.113-.225-.34-.225-.566.451 0 .904-.227 1.357-.227.226.567.226 1.133.793 1.473zm44.607-1.473c-.34.227-.34.68-.793.906l.227.227-.227.113c-.113-.226.453-1.019.793-1.246zm-80.271.227c.113.34-.113.68.227.906-.113.227-.453-.453-.906-.68.226 0 .339-.34.679-.226zm31.134.679c.113.453-.905 0-1.131-.453l-.227.113h-.34s.679.113.566-.34l1.018.906.114-.226zm51.854-.679c-.227.453-.338.566-.791.68-.566-.453-1.812.68-1.812 0-.113-.453.34-.113.68-.453 0 1.02 1.133 0 1.473.34v-.566h.45v-.001zm-75.063.226l-.226.453.226-.453zm47.211.34l-.453-.227c.227.113.227-.34.453-.113v.34zm-75.968.68h-.453c0-.34.113-.906.453-.68v.68zm115.369-.68c.113.453-.566.34-.906.68.113-.453.566-.453.906-.68zm8.379.113c0 .227 0 .453-.227.566-.453.227-.34-.34-.566-.566.34.114.566-.339.793 0zm-55.366.68c-.451 0-.338.566-.564.793.791.453 1.584-.453 2.264.113l-3.057.113v-.453c.113.227.227.227.453.227l-.68-1.473c.34.567.907.907 1.584.68zm-34.53-.113v.34l-.566-.566a.725.725 0 0 1 .566.226zm17.662 0c0 .113 0 .453.226.453-.452.453-.792.227-1.245 0 .113-.227.567-.453 1.019-.453zm-23.55.34c.114.34-.453.113-.679.113l.227-.34.452.227zm35.664 0c0 .34-.227.68-.566.793v-1.02c.113.227.34.227.566.227zm37.588.566h-.906l.566-.793c.227.227.227.453.34.793zm-1.81.113l.227-.68h.564l-.791.68zm3.51-.113l-.906-.566h.793l.113.566zM78 109.199l-.34-.34.453-.566c0 .34.113.68-.113.906zm26.152-.906l-.113.68.113-.68zm7.926.68h-1.246c.34-.227.34-.34.113-.68.68.453 1.02-.227 1.133.68zm60.233-.227h.34v.227h-.34v-.227zm-140.165 3.85c0 .566-.566.791-1.019.453.113-.68.227-.906-.453-1.473-1.245.113-.566 1.586-1.245 2.264l.227.113c-.906.68-1.359-.113-2.265 0v-.34c.113.227.566.113.906.227.339-.678 1.132-1.357.679-2.15-.453-.113-.792-.453-1.245-.34.339-.34 1.358.227 1.358-.68-.113-.227-.453-.113-.679-.113.679-.566.679-1.131 1.585-1.244 1.586.451.793 2.263 2.151 3.283zm-13.699-1.926c-.113.113-.227.227-.227.34h-.226l-.113-1.02.566.68zm103.481 0h-.113l.793-.453c.226.226-.34.226-.68.453zm2.15 0c-.338.113-.564 0-.791-.227.453-.113.791-.226.791.227zm-14.49 2.039c-.566.564-1.359 0-1.699-.453-.113-.793.34-.566 0-1.246h-.113l.34-.566c.226.679 1.585 1.132 1.472 2.265zm1.244-2.266l.34.566-.34-.566zm49.59.227l.113-.113.68.34-.793-.227zm-140.164.566v.113c-.339.113-.679-.34-.679-.68.34.001.453.341.679.567zm98.387 0c-.68-1.133-.68.566-1.357.34l-.113.68c-.68-.566-1.133.34-1.586.453.34.564.906.791 1.359.34l.227.564c-.68.113-1.133.453-1.926.34.34-.453-.113-1.811 1.02-2.037-.455 0 1.809-1.926 2.376-.68zm-38.268 0l.679 1.02c-.452.113-.905-.906-1.245 0l-.792-1.359c0 .679 1.132 1.019 1.358.339zm6.454.907c.113-.227.34-.227.566-.227v.68c-.566.227-.566-.34-.793-.453-1.472.68.566 2.15-.905 2.604l-2.265-1.473c.566-1.131 2.831-.564 1.472-2.264.566 0 1.245 0 1.925 1.133zm49.702-1.133c.453.566.113 1.133-.34 1.359-.906 0-.566-.793-.68-1.133.454.114.567-.34 1.02-.226zm2.717.226v.113h-.453v-.34c.113.227.34.227.453.227zm-121.369.453c-1.019.227 0 0-.566-.453l.566.453zm64.534-.453l.453.68-.453-.68zm37.929.114c-.227.113-.68.453-.453.906h-.34c0-.113 0-.453-.227-.566h-.34v-.34h1.36zm53.099 1.359c.111-.566.791-1.133 1.244-1.133.34.453-.453 1.246-1.244 1.133zm-101.104-.566v.453c-.906.34-.339-.566-.68-.906.227.226.68.113.68.453zm41.89.566c-.453.113-.453-.566-.678-1.02.34.227.451.68.678 1.02zm31.701.227l-.227.113-.113-.906.113.906.227-.113zm-118.992.337l-1.358-1.018.453.113.905.905zm73.025-1.017l.68.453-.68-.453zm2.719.453l-.34.34c.34.564 1.697-.227 1.357.904-.453.227-.564.227-1.018.113.113-.227-.227-.453-.34-.566-.34.227-.793.113-1.246.113l-.113-.113 1.359-1.244c.227 0 .227.226.341.453zm-78.234 1.357c-.793-.227-1.812 0-2.151-.793v-.225l.905.564.68-1.018c-.114.342.566 1.472.566 1.472zm133.597-1.357c0 .227 0 .453-.227.564-.453.227-.68-.564-.453-.678.114.001.567-.113.68.114zm13.133 1.131c-.793.453-.906-.34-1.133-.904.227-.113.566-.453.906-.34.68.34.113.791.227 1.244zm-150.467-.34c0 1.133-1.019.113-1.812.453v-.453c.793.34 1.02-.678 1.812 0zm45.174.113h-.34c0-.227 0-.564.34-.564v.564zm81.064-.564c-.453.564.113 1.018-.68 1.244-.113-.227.68-.68 0-1.244h.68zm-32.154 1.244c-.566.34-.904-.453-1.244-.793.451.227.904.34 1.244.793zm44.947-.34c-.227.113-.451.453-.678.34v-.68c.34-.113.565.227.678.34zm-77.893.453l-.34-.453v.113l.34.34zM182.387 43.306h-1.246l-.113 3.509h-.34c-.338-1.132.68-3.509-.904-3.509h-.453v-.34h3.057v.34h-.001zm1.133-.34c.338 1.132.791 2.265 1.244 3.397.68-1.132.68-3.057 1.812-3.397v3.85h-.34c0-1.019.113-2.151-.113-3.057-.793.906-.453 2.604-1.586 3.057-.34-1.019-.564-2.151-1.131-3.057l-.227 3.057h-.34v-3.85h.681zM28.297 124.143c.792 3.172 1.132 6.568 1.698 9.852l1.359.564c-1.02 0-2.151.113-3.057-.227-.227-1.357-.227-4.527-.906-6.68l-3.396 6.906-3.51-6.906c-.34 2.266-.906 4.303-.906 6.568.34.111.679.451 1.132.338h-3.17l.906-.227c.792-3.283.906-6.793 1.812-10.189l4.076 8.152 3.962-8.151zm91.933 10.416h-3.283l.34-.338-1.246-3.059c-1.133 0-3.17-.791-3.623.68-.113.906-1.473 2.83.113 2.717l-5.773-.227c-2.039-.904-2.266-4.301-4.756-4.074 0 1.357-1.02 3.848.793 4.301h-3.51c.678.227 1.131-.564 1.244-1.018v-8.379c-.227-.566-.791-.68-1.471-.68 2.49.34 5.66-.904 7.133 1.359.791 1.697-.566 3.057-1.473 4.189 1.473 1.471 2.83 5.094 5.66 4.301 1.699-3.283 2.719-6.793 4.416-10.189l4.189 9.852 1.247.565zm35.551 0h-3.172l.34-.338-1.244-3.059c-1.133 0-3.283-.791-3.736.68 0 .906-1.473 2.83.227 2.717h-3.283l1.018-.227c1.699-3.283 2.719-6.793 4.416-10.189l4.303 9.852 1.131.564zm-115.483-8.377c0-1.133-1.585-1.246-2.717-1.133h-.453l-.227 3.736c1.019.227 2.377.34 3.284-.227.113.793-.34 1.246-.113 2.037.113-1.018-.906-1.357-1.698-1.131h-1.246c-.113 1.471-.906 3.736.679 4.529 1.019 0 2.491.338 2.831-1.02h-.113v-.34h.113v1.697c-2.038.34-4.189.227-6.454.227.566.227 1.246-.338 1.246-.904v-8.492c-.227-.566-.792-.68-1.359-.68l6.227-.227v1.928zm33.966-1.7c-.114.566.113 1.246-.114 1.699.114-.566-.679-1.133-1.132-1.133h-2.151a39.35 39.35 0 0 0 0 8.945l1.133.566h-4.076c.679.227 1.132-.564 1.245-1.018v-8.379c-1.358-.227-3.396-.453-3.962.793l.566-1.699 8.491.226zm9.283 1.7c-.113-1.133-1.585-1.246-2.604-1.133h-.566l-.227 3.736c1.019.227 2.491.34 3.283-.227.113.793-.339 1.246-.227 2.037.227-1.018-.792-1.357-1.698-1.131h-1.132c0 1.471-.793 3.736.679 4.529 1.02 0 2.491.338 2.944-1.02h-.227v-.34H84v1.697c-2.151.34-4.416.227-6.454.227.566.227 1.132-.338 1.132-.904v-8.492c-.227-.566-.793-.68-1.359-.68l6.227-.227v1.928h.001zm47.326 5.773c.227-2.264.453-4.982-.113-7.133l-1.02-.34h3.396c-.566 0-.906.227-1.133.566l-.34 9.736-7.586-7.697c-.225 2.264-.338 4.98.227 7.133l1.02.338h-3.396c.453.113.906-.113 1.246-.564l.113-9.738 7.586 7.699zm12-5.773c-.227-1.133-1.697-1.246-2.717-1.133h-.453l-.227 3.736c.906.227 2.379.34 3.17-.227.227.793-.34 1.246-.113 2.037.113-1.018-.904-1.357-1.697-1.131h-1.133c-.113 1.471-.906 3.736.566 4.529 1.133 0 2.604.338 2.943-1.02h-.112v-.34h.113v1.697c-2.037.34-4.303.227-6.453.227.566.227 1.133-.338 1.133-.904v-8.492c-.113-.566-.68-.68-1.359-.68l6.34-.227v1.928h-.001zm23.662 5.773c.227-2.264.34-4.982-.225-7.133l-1.02-.34h3.396c-.453 0-.906.227-1.133.566l-.34 9.736-7.473-7.697c-.227 2.264-.451 4.98.113 7.133l1.133.338h-3.51c.566.113.906-.113 1.133-.564l.227-9.738 7.699 7.699zM54.79 127.879c.453 1.699 0 3.396-.792 4.756-2.604 2.943-6.34 1.586-9.963 1.924.679.227 1.246-.338 1.246-.904v-8.492c-.113-.566-.793-.68-1.359-.68 3.962.339 9.509-1.358 10.868 3.396zm7.925-3.397c-.793 0-1.359.453-1.245 1.246v7.926c.113.791.905.791 1.584.904h-4.302c.68.227.906-.564 1.132-.904v-8.266c0-.566-.679-.793-1.132-.906h3.963zm31.588 1.36c.679 1.697-.566 3.057-1.472 4.189 1.472 1.471 2.377 3.85 4.528 4.527-2.151 1.02-4.415-2.15-6-4.301h-1.246c0 1.357-1.019 3.848.793 4.301h-3.51c.566.227 1.132-.564 1.132-1.018v-8.379c-.227-.566-.792-.68-1.358-.68 2.491.341 5.662-.903 7.133 1.361zm-42.23.906c1.245 1.357 1.245 3.736.679 5.434-.679 1.586-2.377 1.812-3.962 1.812-.566 0-1.585.111-1.812-.793l.113-8.039c2.038-.226 3.623.227 4.982 1.586zm40.759-.34c.226 1.131.453 2.717-1.02 3.17l-1.698-.113v-4.303c1.132-.113 2.264.113 2.718 1.246zm11.887 0c.227 1.131.453 2.717-1.02 3.17l-1.697-.113v-4.303c1.133-.113 2.264.113 2.717 1.246zm8.492 3.85l1.131-3.396 1.246 3.396h-2.377zm35.551 0l1.244-3.396 1.246 3.396h-2.49zm-72.914 13.133c-.226-1.246-1.698-2.15-2.943-2.377-1.812 0-3.736.227-4.642 2.037-.68 1.584-.227 3.51.339 4.98 1.019 1.586 2.604 2.492 4.416 2.379.68.113 1.246-.113 1.358-.68-.227-1.357.793-3.51-.905-3.963h-.453 3.963c-2.604.68 1.132 6.34-3.51 5.096-2.151.227-4.076-.227-5.661-1.473-1.358-1.471-1.925-3.283-1.358-5.094.453-1.812 1.924-3.283 3.623-3.623 1.925-.453 3.849.113 5.773.113v2.605zm11.322-1.36c.792 1.586-.566 3.057-1.472 4.076 1.472 1.586 2.264 3.963 4.528 4.643-2.264 1.02-4.416-2.152-5.887-4.303h-1.472c.113 1.359-.906 3.85.906 4.303H80.15c.679.113 1.132-.566 1.245-1.02v-8.379c-.226-.564-.792-.678-1.358-.678 2.378.341 5.662-.905 7.133 1.358zm8.831-1.357c-.679 0-1.245.451-1.245 1.244v7.926c.226.793 1.019.793 1.584.906h-4.189c.566.227.906-.566 1.132-.906v-8.266c-.113-.564-.679-.791-1.132-.904h3.85zm7.585 0c-.904-.227-1.357.451-1.357 1.244l.113 7.812c.793.906 2.264.453 3.283.34l.793-1.246c0 .566-.34 1.133-.227 1.699-2.039.34-4.529.227-6.793.227.678.113 1.244-.34 1.244-.906v-8.492c-.113-.564-.793-.678-1.357-.678h4.301zm9.625 0c-.793-.227-1.359.451-1.359 1.244l.227 7.812c.793.906 2.264.453 3.17.34l.793-1.246c.113.566-.227 1.133-.113 1.699-2.152.34-4.529.227-6.793.227.566.113 1.244-.34 1.244-.906v-8.492c-.227-.564-.791-.678-1.357-.678h4.188zm-27.512 1.81c.227 1.133.339 2.83-1.132 3.283l-1.698-.227v-4.189c1.244-.111 2.263.114 2.83 1.133z"/></g></svg>