<svg xmlns="http://www.w3.org/2000/svg" width="2500" height="2500" viewBox="0 0 192.756 192.756"><g fill-rule="evenodd" clip-rule="evenodd"><path d="M0 0h192.756v192.756H0V0z"/><path d="M54.198 65.366c-1.852-1.297-3.165-2.704-3.779-4.41-.299-.845-.426-1.757-.605-3.258-.128-1.015-.282-2.329-.605-3.693a4.854 4.854 0 0 1-.077-.349c-.239-1.066-2.457-13.929-12.777-13.929-.912 0-1.851.111-2.789.324-7.156 1.638-8.802 7.906-8.802 12.171 0 2.849.648 5.698 1.441 7.65-.443-.094-1.271-.265-2.167-.265-.623 0-1.322.077-2.055.299-6.286 1.885-9.604 7.949-9.604 13.663 0 1.774.315 3.583.973 5.322 1.45 3.804 6.252 11.95 14.5 11.95 2.772 0 5.22-1.066 6.729-1.689 1.808-.742 2.678-1.041 3.471-1.041.06 0 .12 0 .18.009 5.919.418 10.712 2.815 17.135 6.491a84.256 84.256 0 0 0-.077 3.633c0 4.52.401 9.621 2.277 14.234.136.334.255.631.367.896.042.109.085.221.127.324-4.239 2.533-10.525 5.416-13.544 5.842-1.611-1.971-3.795-2.883-5.723-3.352a12.02 12.02 0 0 0-2.746-.314c-4.871 0-11.25 3.172-11.771 10.584a25.74 25.74 0 0 0-.077 1.885c0 3.828 1.442 7.027 5.792 9.381-1.8 1.928-4.623 5.152-4.623 9.613v.289c.119 4.461 1.731 8.904 4.93 12.334 3.028 3.25 6.013 3.438 8.401 3.48h.137c7.139 0 9.45-8.146 10.047-9.92 1.843-5.477 5.962-9.195 12.394-13.135a378.52 378.52 0 0 1 4.768-2.84c2.627-1.545 5.348-3.148 8.017-4.887 2.286 1.475 4.128 2.336 6.252 3.223 4.683 1.945 10.61 3.189 16.555 3.189 3.76 0 7.641-.494 11.284-1.713 2.533-.854 6.969-2.799 10.893-4.793 4.205 2.625 9.945 6.26 14.473 9.244.359.24.828.521 1.264.785 3.283 2.004 7.301 4.682 8.324 7.283.016.068.068.213.178.572.428 1.355 2.764 10.43 9.537 12.035.879.203 1.766.307 2.635.307 5.74 0 9.852-4.248 11.473-8.691.562-1.543.869-3.207.869-4.912v-.273c-.119-6.209-1.074-7.941-3.795-10.908-.053-.061-.104-.111-.154-.172a9.819 9.819 0 0 1-.562-.656c3.156-1.91 5.109-5.51 5.322-8.641.033-.502.051-.988.051-1.475 0-6.168-3.088-10.074-8.646-11.361a11.706 11.706 0 0 0-2.637-.307c-3.66 0-6.475 1.773-8.479 3.744a1.245 1.245 0 0 1-.223.018c-.35 0-.826-.078-1.457-.24-3.797-.98-7.881-3.172-12.189-5.748 2.021-5.467 2.457-11.779 2.457-16.436 0-.819-.018-1.612-.043-2.354a55.756 55.756 0 0 1 3.686-1.945c5.039-2.431 9.672-4.367 14.465-4.734h.127c.59 0 1.289.239 2.986.998 1.373.614 3.754 1.74 6.482 1.74.18 0 .367 0 .555-.008 5.594-.315 9.201-4.461 11.25-7.259 2.549-3.497 3.377-7.735 3.385-11.446v-.042c0-1.535-.23-3.045-.699-4.47-1.398-4.281-5.1-7.948-10.508-7.948-.195 0-.4.008-.598.017-.443.026-.902.068-1.287.103-.145.008-.281.025-.418.034.043-.153.086-.316.137-.487.469-1.637 1.041-3.633 1.049-6.789v-.035c0-5.458-3.402-11.795-10.627-12.538-.479-.05-.963-.076-1.434-.076-7.582 0-10.857 6.073-11.992 10.695a25.534 25.534 0 0 0-.682 4.785c-.273 5.698-1.646 6.67-3.77 8.614-.094.094-.197.179-.299.273a74.597 74.597 0 0 1-1.834 1.663c-.367-2.158-1.109-3.787-1.551-4.768-.027-.06-.053-.12-.078-.171-.947-2.106-2.098-3.804-2.984-5.117-1.51-2.235-2.107-3.258-2.209-4.615a23.98 23.98 0 0 1-.078-1.859c0-1.638.23-2.959.803-4.146.152-.324.598-1.296.598-2.516 0-1.271-.564-3.327-2.73-4.35a4.71 4.71 0 0 0-1.492-.41c-.273-.034-.52-.034-.691-.034-.479 0-1.928.06-2.865.443-2.262.921-4.342 2.644-6.057 4.605a21.179 21.179 0 0 0-5.049-3.898 355.936 355.936 0 0 1-5.664-3.224c-2.303-1.331-4.648-2.687-7.002-3.966-.4-.213-1.475-.793-2.814-.793-2.602 0-4.154 1.936-4.529 3.71a5.93 5.93 0 0 0-.111 1.117c0 .358.035.742.094 1.117-1.578-1.518-2.977-2.695-3.923-3.301-6.244-3.94-12.086-4.043-15.208-4.043H72.744c-.52 0-1.638.009-2.874.588l-1.578.734-.614 1.637a4.923 4.923 0 0 0-.307 1.698c0 1.774.981 3.403 2.482 4.222 1.015.555 1.928 1.664 2.567 3.335.077.205.145.401.187.589-.077-.068-.153-.146-.238-.213l-1.024-.87-1.338-.12a5.704 5.704 0 0 0-4.248 1.348c-3.642 3.104-7.873 7.028-9.663 13.22-1.097 3.761-1.685 6.866-1.898 9.894z" fill="#fbe03c"/><path d="M58.583 72.625c-.488-5.326-.285-9.454 1.602-15.955 1.417-4.89 4.752-8.116 8.335-11.164.317-.27.678-.388 1.09-.35.218.185.279.574.26.942-.241 5 1.351 9.544 3.947 11.875.237.218.555.057.697-.189-.009-.649-.076-1-.081-1.199-.028-8.084 4.014-11.263 1.962-16.594-.877-2.274-2.332-4.354-4.502-5.539-.156-.085-.341-.374-.223-.692.445-.208.848-.185 1.432-.18 2.785.005 8.021-.199 13.703 3.383 2.439 1.545 10.003 9.321 13.462 14.912.33.535.857.076.928-.455 1.389-10.813-2.373-9.278-3.568-13.657-.663-2.411-.724-3.283.697-2.511 4.199 2.283 8.424 4.781 12.637 7.169a15.912 15.912 0 0 1 7.156 7.914c1.336-3.156 4.525-7.136 7.623-8.397.129-.052 1.379-.208 1.631-.09.465.218.246.848.1 1.156-1.271 2.64-1.342 5.402-1.129 8.178.332 4.297 3.535 6.667 5.555 11.155.947 2.123 2.729 5.747.104 11.566.748-.279.564-.114 1.93-.772 3.121-1.497 5.576-3.696 8.215-6.132 2.811-2.592 5.08-4.425 5.436-11.817.26-5.458 2.512-12.079 9.41-11.368 4.426.459 6.805 4.34 6.795 8.321-.014 4.189-1.184 5.662-1.592 8.78-.492 3.762 4.117 2.758 6.596 2.63 4.486-.232 7.34 3.61 7.326 8.169-.01 3.161-.721 6.411-2.568 8.941-1.971 2.696-4.539 5.321-8.037 5.515-3.615.199-6.619-2.999-10.244-2.719-5.656.436-10.922 2.701-15.992 5.141-1.828.881-4.426 2.275-6.207 3.493.365 5.629.359 16.152-3.498 22.74 5.365 3.32 11.107 6.809 16.58 8.227 1.92.496 4.166.705 5.668-.797 1.895-1.895 4.256-3.08 7.23-2.393 3.834.885 5.648 3.283 5.303 8.387-.18 2.602-2.389 5.576-5.209 5.98-1.141.16-1.596.479-1.225 2.426.16.891 1.955 3.16 2.785 4.064 2.057 2.246 2.729 2.838 2.834 8.283.104 5.354-4.303 10.619-9.729 9.33-4.482-1.057-6.223-8.666-6.725-9.984-1.914-4.918-9.154-8.719-11.221-10.102-5.387-3.525-12.414-7.965-16.631-10.586-4.213 2.279-9.715 4.744-12.434 5.652-8.061 2.707-18.083 1.455-24.844-1.369-2.597-1.076-4.625-2.066-7.866-4.453-4.776 3.359-9.979 6.168-15.035 9.264-6.681 4.088-11.884 8.477-14.21 15.414-.976 2.904-2.535 7.064-6.075 7.008-1.957-.033-3.497-.139-5.354-2.127-2.417-2.588-3.686-6.01-3.781-9.535-.1-3.748 3.046-6.26 5.331-8.898.479-.559.308-2.15.261-3.123-.024-.449-.341-.91-.829-.844a2.55 2.55 0 0 1-1.421-.203c-4.582-2.074-4.672-4.426-4.44-7.689.365-5.293 5.596-7.293 9.258-6.416 1.687.412 3.033 1.123 3.853 2.52.113.195.749.74.772.754 3.44 1.615 16.523-4.947 20.968-8.33-.744-1.625-.744-1.654-1.867-4.412-2.308-5.666-2.08-12.641-1.776-18.664-7.454-4.312-13.481-7.795-21.21-8.344-3.757-.266-6.951 2.71-10.68 2.71-5.312 0-9.141-5.601-10.51-9.197-2.023-5.316.517-11.78 5.866-13.386 1.697-.512 3.246.862 5.208-.005 1.928-.853 3.625-2.17 2.061-5.037-1.402-2.572-3.715-12.969 4.042-14.74 8.207-1.872 10.083 8.875 10.543 10.789.615 2.573.492 5.023 1.345 7.397 1.865 5.192 7.428 7.993 12.176 10.229z" fill="#c1352c"/><path d="M121.986 53.57c-.598 8.316-1.652 9.441-3.879 11.124-.047-1.391-.402-3.693-.723-5.046-1.939-8.192-5.385-13.31-11.783-15.99.137 7.073.162 14.742-5.965 18.08-1.566-6.718-4.353-10.684-11.969-17.648-1.802-1.635-3.302-3.399-5.975-4.025.189 2.375-.045 3.601-.069 5.402-.149 6.208-3.417 6.687-1.372 18.565-9.603.855-13.405-5.489-13.815-9.183-2.87 3.807-3.677 11.29-2.616 16.807.995 5.172 1.897 11.017 1.654 16.601-.336 7.676-1.413 14.581 1.393 21.346 3.559 8.584 6.911 10.639 11.408 14.523 3.238 2.82 8.801 4.363 14.255 5.049 5.343.672 18.744-1.162 25.996-8.793 6.309-6.656 7.699-9.965 8.939-17.838.729-4.666-1-12.143-.84-18.234.145-5.452.467-9.359 1.855-13.834 1.422-4.572-3.509-11.187-6.494-16.906z"/><path d="M69.82 104.941c-.159-2.688.028-3.881-.253-7.445-.563-.658-1.426-1.457-1.567-1.88-.984-2.957-.148-4.894.768-3.696 7.214 9.518 20.499 13.121 23.41 13.363 3.017.252 4.26.391 7.377 0 8.428-1.059 10.27-2.039 21.156-9.07 1.779-1.148 2.906-2.633 3.682-3.383 1.143-1.101 1.51 1.007.734 2.783-.395.877-.443 1.415-.82 1.696-.027 5.113-1.637 11.146-4.818 15.547-3.941 5.451-11.303 12.557-20.357 12.557-6.693 0-13.804-.822-18.891-5.516-4.516-4.167-10.052-8.754-10.421-14.956z" fill="#c1352c"/><path d="M131.268 78.455c.236 3.279.289 6.749 1.041 10.63 2.387-1.594 4.744-3.085 7.174-4.034 7.303-2.85 15.332-6.219 22.979-3.026 4.896 2.045 9.691-1.984 10.059-6.982.65-8.867-3.35-8.756-9.777-8.469-4.549.216-4.693-4.833-3.699-7.736 1.375-3.998 1.59-6.804-.027-10.69-1.168-2.804-4.877-1.908-6.051-.429-2.801 3.511-2.432 11.933-4.355 17.118-.944 2.525-6.641 8.623-17.344 13.618zM64.961 117.77c-4.597 3.172-7.795 5.406-13.988 7.863-2.84 1.125-7.89 2.252-9.484 1.33-1.51-.869-1.91-3.096-3.667-3.564-2.056-.555-4.333.043-5.536 1.877-1.407 2.141-.656 6.455 1.877 6.361 4.956-.178 4.384 3.131 4.042 6.398-.383 3.693-2.55 3.871-4.23 6.508-1.22 1.91-1.97 3.283-.562 7.223.733 2.082 2.9 4.896 5.075 3.941 4.691-2.064 2.438-7.506 8.631-13.416 6.295-6.006 13.434-9.902 24.513-17.033-1.493-1.186-2.405-2.021-3.66-3.455a31.58 31.58 0 0 1-3.011-4.033zM121.391 125.232c8.828 5.723 18.406 10.508 25.357 17.262 2.668 2.611 4.127 5.725 5.535 9.664.656 1.852 1.492 3.422 3.572 3.098 3.326-.521 4.42-4.471 4.691-7.318.375-4.035-3.471-5.725-4.973-8.445-1.186-2.131-.758-3.939-.572-6.379.078-1.049.947-1.971 2.355-1.971 2.482 0 4.223-1.125 3.752-4.785-.459-3.539-2.83-4.094-5.346-3.283-1.365.436-3.49 3.123-4.889 3.471-3.48.861-7.02-.732-10.141-1.969-4.238-1.682-8.359-4.223-12.957-7.131-.604 1.518-1.611 2.473-2.635 3.752-1.107 1.39-2.249 2.814-3.749 4.034zM59.05 75.968c-3.607-1.288-8.742-4.163-11.651-6.662-4.35-3.735-4.785-7.855-5.066-12.23-.213-3.233-1.689-7.668-4.222-9.263-2.346-1.476-4.452.486-5.544 2.942-2.141 4.811 6.764 12.999-3.283 16.376-1.629.546-5.126-.494-6.482.562-4.298 3.335-2.294 10.176.75 13.698 3.472 4.034 7.702-.563 14.27-.75 5.757-.162 7.65 1.288 13.152 3.284 3.446 1.253 5.885 2.737 8.922 4.802-.095-2.252-.051-4.367-.095-6.439-.043-1.766-.418-4.58-.751-6.32z"/><path d="M76.177 84.557c1.565 0 3.83-1.681 5.504-.342 5.524 4.444 9.029 6.201 13.899 6.379-1.04 2.209-3.386 1.485-4.734 1.527-.989 2.619-4.683 2.797-6.209 2.158-3.017-1.264-4.654-4.038-5.126-8.103-.495-.094-.99-.575-1.671-.768-.512-.148-.904-.22-1.663-.851zM98.225 88.915c1.168.956 4.818.717 6.746-.716 2.482-1.792 3.676-4.299 6.994-5.97.828-.418 1.502-.239 3.709-.956-.408 1.254-1.234 1.433-1.49 1.791.119 6.03-.521 7.881-4.18 9.314-1.621.597-3.77.896-5.307-.717-2.465.657-6.336.179-6.472-2.746z" fill="#c1352c"/><path d="M90.634 109.504a14.643 14.643 0 0 0-3.292 4.479 14.75 14.75 0 0 0-1.416 6.439 19.099 19.099 0 0 0 4.162 1.51c1.706.393 3.446.545 5.187.461a32.283 32.283 0 0 1-2.857-5.742 31.208 31.208 0 0 1-1.784-7.147zM103.111 109.684a31.07 31.07 0 0 1-1.467 7.215c-.664 2.029-1.543 4-2.609 5.852a17.88 17.88 0 0 0 5.16-.674 19.283 19.283 0 0 0 4.102-1.689 14.687 14.687 0 0 0-1.705-6.371 14.49 14.49 0 0 0-3.481-4.333zM92.638 109.334a31.282 31.282 0 0 0 1.911 7.506 31.806 31.806 0 0 0 2.721 5.381 21.852 21.852 0 0 0 3.215-7.182c.479-1.943.691-3.947.623-5.953-1.203.043-2.414.086-3.633.137-1.604.033-3.216.068-4.837.111zM112.418 106.016a36.515 36.515 0 0 1-4.23 1.775 34 34 0 0 1-3.643 1.006 27.05 27.05 0 0 1 3.275 4.486 25.456 25.456 0 0 1 2.328 5.195 19.612 19.612 0 0 0 2.115-5.904c.409-2.156.469-4.383.155-6.558zM81.175 106.256c-.213 2.191-.068 4.4.435 6.541a19.963 19.963 0 0 0 2.371 5.809 26.208 26.208 0 0 1 2.098-5.289 27.142 27.142 0 0 1 3.08-4.623 34.108 34.108 0 0 1-3.677-.852 35.17 35.17 0 0 1-4.307-1.586zM88.544 91.858c-2.158-.137-3.778-1.024-4.239-1.852-.324-.588-1.792-1.799-2.567-1.799.768 1.168 1.203 2.226 1.356 2.524.674 1.254 3.915 2.517 5.45 1.127zM81.78 117.914a26.102 26.102 0 0 1-1.595-5.152 26.321 26.321 0 0 1-.502-6.541 8.504 8.504 0 0 0-2.559 3.42 8.789 8.789 0 0 0-.631 2.764 17.832 17.832 0 0 0 1.936 2.602 17.97 17.97 0 0 0 3.351 2.907zM112.332 117.701a17.645 17.645 0 0 0 3.225-3.055 16.926 16.926 0 0 0 1.816-2.686 8.716 8.716 0 0 0-.752-2.73 8.529 8.529 0 0 0-2.693-3.299 26.756 26.756 0 0 1-.223 6.549 26.298 26.298 0 0 1-1.373 5.221zM111.641 85.768a32.15 32.15 0 0 0-4.785 4.708c1.152.196 1.791.051 2.551-.478 1.177-.81 1.782-1.296 2.234-4.23zM118.199 109.428c.205-1.178.273-2.379.197-3.564a13.729 13.729 0 0 0-.666-3.523c-.408.469-.895.801-1.398 1.15-.52.352-1.074.701-1.662.896.75.52 1.406 1.16 1.961 1.869a9.026 9.026 0 0 1 1.568 3.172zM75.562 109.896a9.116 9.116 0 0 1 1.424-3.24 8.846 8.846 0 0 1 1.885-1.945c-.597-.17-1.16-.504-1.689-.818-.537-.334-1.04-.648-1.476-1.102a15.61 15.61 0 0 0-.494 3.549 15.187 15.187 0 0 0 .35 3.556zM121.031 101.402a1.716 1.716 0 0 0 .068-2.278 2.193 2.193 0 0 1-.393.588c-.152.188-.844.639-1.066.768.667.12 1.085.495 1.391.922zM72.381 102.016c.281-.436.691-.826 1.339-.98-.205-.111-.921-.547-1.091-.717a2.69 2.69 0 0 1-.41-.57c-.307.4-.426.92-.315 1.406.068.324.239.622.477.861zM119.129 101.82c.223.955.352 1.928.402 2.898.033.684.033 1.373-.018 2.064a5.373 5.373 0 0 0 .963-1.637c.189-.479.291-.998.334-1.51a2.17 2.17 0 0 0-.648-1.236 2.23 2.23 0 0 0-1.033-.579zM74.292 102.34a2.187 2.187 0 0 0-1.007.623c-.324.35-.537.785-.597 1.262.06.512.196 1.023.401 1.502a5.444 5.444 0 0 0 1.032 1.594 16.826 16.826 0 0 1-.103-2.072c.009-.974.104-1.944.274-2.909z" fill="#fff"/></g></svg>