<svg height="2500" viewBox="135.246 135.246 1200.074 1200.102" width="2500" xmlns="http://www.w3.org/2000/svg"><path d="m329.863 927.426c-34.351 3.68-67.879 16.527-96.636 38.5l-85.899-320.531c-12.082-45.086.82-93.204 33.828-126.211l338-338.028c33.008-33.008 81.13-45.91 126.215-33.828l308.676 82.715c-20.902 29.281-32.684 63.082-35.32 97.484l-256.282-68.675c-36.535-9.793-75.53.644-102.277 27.414l-273.902 273.902c-26.743 26.746-37.207 65.742-27.414 102.277zm808.485-393.133 73.37 273.855c9.794 36.536-.648 75.532-27.413 102.278l-273.903 273.902c-26.746 26.742-65.742 37.207-102.28 27.414l-264.977-71.012c-3.68 34.352-16.532 67.88-38.5 96.637l320.527 85.899c45.09 12.082 93.207-.82 126.215-33.825l338.027-338.03c33.008-33.009 45.906-81.126 33.828-126.212l-89.105-332.535c-28.235 23.04-61.492 36.906-95.79 41.629zm0 0" fill="#4edadd"/><path d="m460.45 1010.145c60.523 60.52 60.523 158.996 0 219.52-60.52 60.519-158.997 60.519-219.52 0-60.52-60.524-60.52-159 0-219.52 60.523-60.524 159-60.524 219.52 0zm541.667-777.22c-60.523 60.524-60.523 159 0 219.52 60.52 60.524 158.996 60.524 219.52 0 60.52-60.52 60.52-158.996 0-219.52-60.524-60.519-159-60.519-219.52 0zm-27.219 246.712c-30.945-30.942-49.187-69.84-54.78-110.157l-251.036-67.257c-33.203-8.899-68.648.597-92.98 24.906l-248.973 248.973c-24.309 24.308-33.805 59.75-24.906 92.98l69.222 258.344c42.477 4.55 83.735 23.015 116.223 55.5 32.484 32.488 50.953 73.746 55.5 116.222l258.344 69.223c33.207 8.899 68.648-.598 92.98-24.906l248.973-248.973c24.308-24.308 33.805-59.75 24.906-92.98l-71.234-265.825c-44.59-3.382-88.211-22.023-122.239-56.05zm0 0" fill="#5271ff"/></svg>