<svg xmlns="http://www.w3.org/2000/svg" width="2500" height="2500" viewBox="0 0 192.756 192.756"><g fill-rule="evenodd" clip-rule="evenodd"><path fill="#fff" d="M0 0h192.756v192.756H0V0z"/><path d="M78.298 86.288H59.882c-6.46.002-7.405 5.231-7.574 5.778-.212.686-2.976 11.143-3.847 14.459 3.732 0 11.184.01 11.184.01s2.156-8.182 2.177-8.16c.237.242 4.636 5.621 6.02 7.133 1.111 1.215 1.881 1.023 6.159 1.033 2.748-.006 6.647-.002 6.778-.002l-6.248-7.379h6.912c.468-1.977 1.113-4.321 1.677-6.593.861-3.473-1.965-6.192-4.822-6.279zm-7.153 9.263h-8.572l1.361-4.863h8.519l-1.308 4.863zM48.132 90.661l1.178-4.277-24.139-.006c-5.087.256-6.548 3.34-7.307 6.371-.277 1.097-.558 2.129-.789 3.013a53.594 53.594 0 0 1-.609 2.204l18.629-.008-1.135 4.338H15.332l-1.159 4.264h23.219c4.669 0 6.998-1.955 8.133-6.188.783-2.99 1.617-5.938 1.617-5.938h-18.11l.997-3.77 18.103-.003zM95.462 86.331c-1.774 0-5.586-.32-7.536 5.658-.887 3.212-3.876 14.558-3.876 14.558l5.45.004c2.48 0 5.085.09 5.913-1.533.734-1.436 1.662-5.305 1.662-5.305h8.936l-1.859 6.881h11.217c5.164-19.347 5.023-18.864 5.412-20.263H95.462zm11.323 9.287l-8.539.012 1.312-4.95h8.514l-1.287 4.938zM156.092 106.543l4.043-15.47h-6.725l-4.07 15.486-10.848.002 4.053-15.488h-6.766l-4.088 15.492h-11.203l5.393-20.365s36.215-.083 40.02 0c2.35.05 5.734 2.389 4.553 7.004-1.395 5.445-2.334 10.025-3.201 13.339h-11.161zM172.408 103.152c0-1.602 1.209-2.811 2.756-2.811 1.529 0 2.738 1.209 2.738 2.811 0 1.629-1.209 2.826-2.738 2.826-1.547.001-2.756-1.197-2.756-2.826zm2.756 3.391c1.844 0 3.418-1.432 3.418-3.391 0-1.941-1.574-3.373-3.418-3.373-1.861 0-3.438 1.432-3.438 3.373.001 1.959 1.577 3.391 3.438 3.391zm-.715-3.123h.678l1.029 1.691h.664l-1.111-1.717c.574-.072 1.012-.375 1.012-1.074 0-.77-.455-1.109-1.377-1.109h-1.486v3.9h.592v-1.691h-.001zm0-.498v-1.211h.805c.412 0 .852.09.852.572 0 .6-.451.639-.949.639h-.708z" fill="#cc2131"/></g></svg>