<svg xmlns="http://www.w3.org/2000/svg" width="2500" height="2500" viewBox="0 0 192.756 192.756"><path fill-rule="evenodd" clip-rule="evenodd" fill="#fff" d="M0 0h192.756v192.756H0V0z"/><path d="M99.299 74.546l-.045-6.165c-3.314 3.34-5.766 6.903-7.325 10.633a25.8 25.8 0 0 0-2.018 10.671c6.024-5.292 12.665-8.072 19.776-7.621 7.252.459 14.898 4.298 22.752 12.286l23.713-.134c-12.811-3.858-24.26-9.114-33.604-15.92-8.691-6.331-15.566-14.002-20.037-23.135l.145 19.372-3.357.013zm-.078-10.725L99.088 46.1l3.285-.479c3.639 12.245 11.434 22.152 22.156 29.961 11.908 8.675 27.418 14.765 44.861 18.6l-.348 3.316-37.295.211-.709.004-.504-.521c-7.396-7.683-14.467-11.354-21.059-11.771a19.935 19.935 0 0 0-4.256.186c10.246 3.845 10.809 20.179 6.883 29.421-2.078 4.973-5.559 9.645-10.385 13.908.045 5.906.088 11.814.131 17.721l-3.283.479c-3.638-12.244-11.435-22.152-22.156-29.961-11.91-8.676-27.419-14.764-44.863-18.6l.347-3.317 37.296-.211.71-.004.503.521c7.396 7.684 14.466 11.354 21.058 11.772 1.165.074 2.318.045 3.458-.08-9.459-5.77-9.457-21.453-6.083-29.527 2.079-4.973 5.559-9.646 10.386-13.908zm11.009 39.935a12.035 12.035 0 0 1-7.242 4.662c-3.738 1.729-7.661 2.533-11.736 2.273-7.252-.459-14.898-4.296-22.752-12.285l-23.714.135c12.811 3.859 24.261 9.113 33.605 15.92 8.691 6.33 15.567 14.002 20.037 23.137-.047-6.459-.098-12.916-.145-19.373l3.355-.014.047 6.166c3.314-3.34 5.766-6.904 7.324-10.635a25.804 25.804 0 0 0 2.02-10.672c-.265.235-.531.463-.799.686zm-9.673-15.739c-4.763 0-8.647 3.884-8.647 8.647 0 4.762 3.884 8.646 8.647 8.646.467 0 .928-.037 1.375-.109 1.988-.953 3.926-2.207 5.807-3.732a8.59 8.59 0 0 0 1.465-4.805c-.001-4.763-3.886-8.647-8.647-8.647z" fill="#33348e"/><path d="M19.702 85.774c-.181.93-.501 1.74-.962 2.438a4.778 4.778 0 0 1-1.828 1.624c-.758.385-1.647.578-2.667.578-1.125 0-2.123-.251-2.988-.755-.866-.502-1.542-1.251-2.026-2.245s-.726-2.192-.726-3.592c0-1.42.25-2.626.755-3.626.501-1 1.189-1.749 2.066-2.25.875-.505 1.86-.755 2.953-.755.89 0 1.677.137 2.359.411.682.271 1.239.629 1.676 1.072.434.443.767.921.991 1.435.227.513.358 1.023.396 1.527h-2.627c-.166-.606-.434-1.119-.808-1.539-.373-.42-1.032-.629-1.974-.629-.807 0-1.53.335-2.163 1.002-.632.671-.95 1.799-.95 3.385 0 .79.108 1.507.327 2.154.218.647.56 1.163 1.026 1.551.464.385 1.053.577 1.761.577.487 0 .922-.09 1.301-.268.381-.181.696-.449.95-.805.253-.358.431-.787.53-1.289h2.628v-.001zm10.942-6.031h-3.796V90.08h-2.624V79.743h-3.795v-2.222h10.215v2.222zM51.687 90.08h-2.621V79.743h-3.589v6.367c0 1.411-.341 2.481-1.023 3.21-.682.729-1.702 1.093-3.067 1.093v-2.295c.63 0 1.061-.178 1.294-.536s.35-.851.35-1.472v-8.588h8.655V90.08h.001zm13.39 0h-2.621V79.743h-3.589v6.367c0 1.411-.341 2.481-1.023 3.21-.682.729-1.702 1.093-3.066 1.093v-2.295c.629 0 1.061-.178 1.294-.536.233-.358.35-.851.35-1.472v-8.588h8.655V90.08zm14.275 0h-2.848l-.807-2.588h-4.632l-.875 2.588h-2.764l4.475-12.559h3.029l4.422 12.559zm-4.39-4.758l-1.554-4.964h-.035l-1.609 4.964h3.198zM38.888 90.08H31.07V77.521h7.818v2.222h-5.247v2.641h5.247v2.221h-5.247v3.253h5.247v2.222zm104.233 18.084c0 .795-.201 1.482-.602 2.064a3.706 3.706 0 0 1-1.631 1.316c-.689.301-1.455.449-2.299.449h-5.838V99.436h9.441v2.203h-6.924v2.678h3.32c.844 0 1.609.148 2.299.445a3.723 3.723 0 0 1 1.631 1.318c.402.58.603 1.275.603 2.084zm-2.621 0c0-.521-.172-.936-.516-1.24s-.809-.457-1.395-.457l-3.32.018v3.34h3.32c.584 0 1.045-.148 1.391-.445.348-.298.52-.702.52-1.216zm15.646 3.83h-2.848l-.807-2.588h-4.633l-.875 2.588h-2.764l4.475-12.559h3.029l4.423 12.559zm-4.388-4.758l-1.555-4.965h-.035l-1.609 4.965h3.199zm17.849 4.758h-2.621v-5.633h-4.9v5.633h-2.621V99.436h2.621v4.758h4.9v-4.758h2.621v12.558zm14.645 0h-3.375l-3.887-5.51-1.221 1.26v4.25h-2.625V99.436h2.625v5.107l4.791-5.107h3.396l-5.125 5.143 5.421 7.415z" fill-rule="evenodd" clip-rule="evenodd" fill="#33348e"/></svg>