<svg xmlns="http://www.w3.org/2000/svg" width="2500" height="2500" viewBox="0 0 192.756 192.756"><g fill-rule="evenodd" clip-rule="evenodd"><path fill="#fff" d="M0 0h192.756v192.756H0V0z"/><path d="M72.34 108.928h7.473l.43 7.515 4.443-7.515h7.473l-9.178 12.312h-8.02l-2.621-12.312zm17.787 12.311l3.292-12.312h7.535l-3.292 12.312h-7.535zm10.903 0l5.116-19.153h7.534l-5.115 19.153h-7.535zm10.904 0l5.116-19.153h7.534l-5.115 19.153h-7.535zm22.132-8.81c-.755 0-1.406.377-1.954 1.128-.548.755-.825 1.658-.825 2.709 0 .472.118.833.354 1.079.236.25.582.373 1.026.373.748 0 1.386-.381 1.927-1.141.547-.764.818-1.674.818-2.741 0-.468-.111-.817-.34-1.055-.222-.233-.554-.352-1.006-.352zm-.325 8.81l.325-1.358c-.907.595-1.788 1.026-2.647 1.297a8.827 8.827 0 0 1-2.71.41c-1.637 0-2.912-.377-3.826-1.128-.915-.756-1.373-1.811-1.373-3.164 0-2.483.832-4.561 2.496-6.222 1.67-1.662 3.729-2.495 6.196-2.495.957 0 1.795.135 2.509.401a5.504 5.504 0 0 1 1.935 1.281l.388-1.334h7.473l-3.292 12.312h-7.474zm21.433-9.139c-.734 0-1.358.361-1.879 1.088-.52.727-.783 1.593-.783 2.602 0 .472.104.821.312 1.047.215.226.533.337.971.337.713 0 1.33-.361 1.844-1.084.513-.719.77-1.588.77-2.606 0-.455-.104-.8-.312-1.034-.209-.235-.521-.35-.923-.35zm2.537-3.197h7.146l-3.168 11.77c-.526 1.979-1.511 3.312-2.953 3.998-1.441.685-3.826 1.029-7.139 1.029-2.683 0-4.638-.287-5.865-.866-1.227-.578-1.836-1.489-1.836-2.732 0-.046.007-.119.021-.222.014-.099.021-.173.021-.222h6.314v.241c0 .247.152.452.458.608.305.155.692.233 1.172.233.651 0 1.171-.135 1.565-.402.389-.271.659-.677.812-1.223l.527-2.043a7.098 7.098 0 0 1-2.232 1.178 8.625 8.625 0 0 1-2.662.397c-1.573 0-2.8-.353-3.681-1.062-.88-.711-1.316-1.695-1.316-2.951 0-2.318.783-4.239 2.343-5.767 1.566-1.526 3.515-2.289 5.843-2.289.922 0 1.706.118 2.364.36.658.238 1.282.637 1.878 1.19l.388-1.225zm25.522 8.032c-.201 1.469-1.095 2.614-2.676 3.439-1.587.824-3.688 1.238-6.294 1.238-2.849 0-5.012-.459-6.502-1.382-1.49-.924-2.232-2.262-2.232-4.019 0-2.314.943-4.166 2.821-5.553 1.886-1.387 4.409-2.08 7.577-2.08 2.558 0 4.581.401 6.078 1.206 1.498.809 2.246 1.9 2.246 3.279 0 .353-.027.734-.083 1.148a13.87 13.87 0 0 1-.263 1.388h-11.008c-.076.386-.139.689-.174.915a3.657 3.657 0 0 0-.048.538c0 .427.159.742.484.943.326.205.818.308 1.483.308.707 0 1.248-.114 1.629-.345a1.3 1.3 0 0 0 .645-1.025h6.317v.002zm-9.808-3.403h4.45c.042-.263.062-.456.069-.57.007-.119.014-.222.014-.32 0-.395-.146-.689-.437-.895s-.728-.308-1.311-.308c-.748 0-1.337.163-1.768.492-.435.329-.767.862-1.017 1.601zM33.152 67.609c9.793-1.838 19.439.987 26.362 6.84a27.773 27.773 0 0 0-3.64-1.83c-2.591-1.069-5.426-1.785-8.506-2.148-6.427-.759-11.838.347-16.22 3.314-4.383 2.982-6.897 7.199-7.54 12.651-.408 3.451.255 6.522 2.004 9.201 1.747 2.692 4.762 5.224 9.019 7.606.312.186.752.436 1.323.737 2.589 1.42 3.822 2.604 3.709 3.554-.073.623-.437 1.087-1.104 1.392-.667.305-1.519.401-2.568.278-2.366-.279-4.639-1.241-6.855-2.888-2.204-1.657-4.191-3.883-5.96-6.701l-9.817 11.244-.22.251a28.71 28.71 0 0 1-1.966-3.464 27.163 27.163 0 0 1-2.669-11.694l-.001-.05c0-.114.004-.226.005-.339.061-4.875 1.418-9.465 3.763-13.482l.008-.014c2.326-3.978 5.623-7.39 9.585-9.956l.167-.109a31.63 31.63 0 0 1 7.355-3.452 33.11 33.11 0 0 1 3.766-.941zm23.627 52.06a31.64 31.64 0 0 1-7.686 3.625 32.52 32.52 0 0 1-9.789 1.5 32.942 32.942 0 0 1-4.166-.266c.401.038.799.069 1.193.093 2.828.166 5.476-.063 7.943-.688a21.81 21.81 0 0 0 6.875-3.07c4.688-3.156 7.349-7.467 7.996-12.942.412-3.488-.091-6.453-1.518-8.922-1.429-2.457-4.065-4.845-7.921-7.168-.451-.263-1.075-.633-1.863-1.084-2.989-1.702-4.414-3.144-4.276-4.315.081-.682.415-1.211 1.001-1.563.586-.352 1.317-.475 2.195-.371 1.451.17 2.996.811 4.608 1.917 1.625 1.106 3.388 2.725 5.291 4.829l8.114-10.991c.66.961 1.262 1.963 1.801 3.004l-1.728.006-.975 2.91h-.03l-3.042 9.447c-.443 1.385-.75 2.467-.93 3.234-.172.768-.262 1.411-.262 1.926 0 2.515 1.48 4.487 4.442 5.924.884.428 1.871.791 2.96 1.091-2.228 4.713-5.755 8.836-10.233 11.874zm4.127-3.363l.097.067-.097-.067zM22.138 72.373a10.962 10.962 0 0 1-.272-.26l.272.26zm13.191-5.095l-.012-.024.012.024zm13.557 1.171l-.024.124.024-.124zm.1.164l.016-.129-.016.129zm11.827 6.646a.127.127 0 0 1-.011.013l.011-.013z" fill="#234b8d"/><path d="M65.948 87.116H79.28L76 96.604c-.33.963-.542 1.605-.618 1.93-.085.324-.127.574-.127.753 0 .511.237.903.712 1.177.466.278 1.144.415 2.017.415 1.094 0 1.924-.215 2.484-.647.568-.434 1.144-1.52 1.746-3.267l3.348-9.848h26.101l4.179 6.212c.06.101.161.251.297.457.924 1.355 1.567 2.527 1.933 3.512l3.5-10.181h13.188l-6.73 19.563h-3.41l1.776-6.16h-10.11l-1.681 5.983-.63-.947 1.451-5.036h-4.806l-2.627-3.943c-.062.838-.38 2.154-.95 3.943h-1.726l-1.731 6.16h-11.96l1.715-5.003a8.759 8.759 0 0 1-2.016 2.048c-1.534 1.112-3.484 1.97-5.848 2.572-2.356.602-4.95.903-7.781.903-4.916 0-8.772-.634-11.552-1.902-2.78-1.272-4.17-3.02-4.17-5.246 0-.456.085-1.025.246-1.705.169-.681.458-1.638.873-2.864l2.855-8.367zm32.43 13.669c.39-.057.771-.077 1.136-.063 2.121-.07 3.864.865 4.037 2.264.194 1.565-1.652 3.135-4.111 3.493s-4.622-.627-4.817-2.193a1.901 1.901 0 0 1-.008-.377 1.886 1.886 0 0 1 .22-1.02c.209-.482.592-.905 1.15-1.269.588-.387 1.271-.646 2.054-.776.11-.023.224-.042.339-.059z" fill="#234b8d"/></g></svg>