<svg xmlns="http://www.w3.org/2000/svg" width="2500" height="2500" viewBox="0 0 192.756 192.756"><g fill-rule="evenodd" clip-rule="evenodd"><path fill="#fff" d="M0 0h192.756v192.756H0V0z"/><path d="M74.798 48.73c4.375 0 7.319 4.879 5.721 7.824h8.161v-6.142c0-2.188-2.944-1.767-3.534-1.346-.925.673-1.009 2.188-1.009 2.188-2.524-1.262-3.786-7.151-1.599-9.928 1.514-2.019 3.954-2.608 6.562-1.093-2.271-6.058 4.375-10.517 4.375-10.517s4.88 2.355 5.638 6.058c.588 1.935-.254 4.122-.254 4.122 2.609-1.178 5.301.168 6.311 1.683 2.355 3.365 1.01 7.572-1.852 9.844 0 0-.168-2.777-2.188-2.777-2.018 0-2.104 2.019-2.104 2.019v5.721h7.908c-1.178-1.599-1.008-7.74 5.553-7.824 3.533 0 6.479 3.449 5.553 7.319 1.178-.505 8.162-.505 7.74 6.394-.168 3.365-2.945 6.142-7.488 5.216 1.18 1.683.842 7.488-6.057 7.488-3.197 0-6.814-3.87-5.469-8.161h-7.908l.084 5.468s-.42 2.692 2.02 2.608c1.936-.084 1.768-3.029 1.768-3.029 4.205 3.365 4.459 7.74 3.027 9.675-1.514 2.104-3.785 3.113-7.066 1.599.252 1.598.422 2.524.084 4.375-.672 2.86-5.552 5.552-5.552 5.552s-4.123-3.786-4.627-5.637c-.421-1.346-.421-2.944-.168-3.87-2.776.926-4.459.421-6.058-1.851-1.767-2.44-1.767-7.067 1.346-9.675 0 0 .673 2.02 1.767 2.608 1.094.505 2.776.168 3.029-2.44l.084-5.384-8.077.084c1.178 1.346.841 8.077-6.142 7.993-1.851 0-4.207-1.767-5.132-3.618-.925-1.851-.252-3.786-.336-3.786-5.889.842-7.656-3.365-7.656-6.394-.084-2.524 2.188-6.478 7.824-5.132-1.009-2.943.422-7.234 5.721-7.234z"/><path d="M69.835 54.115a4.563 4.563 0 0 1 4.711-4.543c3.366 0 4.795 2.355 4.795 4.879 0 1.262-1.009 2.86-2.271 3.113l12.451.084v-7.992c-.757-3.113-3.701-2.776-5.047-1.851-.757.505-1.094 1.515-1.094 1.515-.336-.252-2.776-5.553.252-8.076 3.87-3.281 7.066 1.851 7.066 1.851-.42-1.178-1.598-4.207-1.346-6.226.336-2.861 4.123-6.058 4.123-6.058s4.206 2.944 4.458 6.058c.17 3.028-1.766 6.31-1.766 6.31.926-.841 3.618-3.533 6.479-2.188 3.281 1.514 2.355 6.646.588 7.993 0 0-.674-1.851-3.029-1.767-3.111.168-2.943 2.608-2.943 2.608v7.74h11.861c-.926-.42-1.934-2.019-1.934-3.281 0-2.523 2.018-4.711 5.131-4.711 2.609 0 4.543 2.019 4.627 4.543.084 1.683-1.01 3.702-2.188 4.543.084.084.17.252.338.336 1.178-1.262 2.775-2.355 4.205-2.355 3.281.084 5.385 1.935 5.301 4.88 0 3.112-2.775 4.627-5.385 4.627-1.85 0-2.943-1.346-4.121-2.608l-.422.421c1.852 1.683 2.523 3.113 2.523 4.795 0 2.524-2.186 4.795-5.721 4.795-2.691 0-4.205-2.608-4.205-5.132 0-1.431.924-2.524 1.934-3.365H97.178l.084 8.245s-.168 2.44 3.029 2.524c2.523 0 3.027-2.02 3.027-2.02 1.768 1.347 2.609 6.142-.504 7.909-2.693 1.514-5.637-.841-6.562-1.851.168.505 1.346 2.356 1.346 5.637-.336 3.618-4.375 5.805-4.375 5.805s-3.534-2.524-3.954-5.384c-.252-2.019.589-4.964 1.346-6.058-.505.505-4.543 4.123-7.235 1.515-2.692-2.692-1.01-6.899 0-7.908 0 0-.084 1.514 1.094 2.103 1.093.673 4.795.757 4.795-2.524v-7.992l-12.199-.087c1.094.841 2.271 1.851 2.271 3.281 0 2.524-2.187 5.3-4.879 5.3-2.608 0-4.963-2.355-4.963-4.88 0-1.683.925-3.281 2.439-4.29-.084-.084-.42-.337-.505-.505-1.262 1.346-2.86 2.187-4.627 2.187-2.692 0-4.964-2.187-4.964-4.711 0-2.523 2.271-4.711 4.964-4.795 1.935 0 3.702 1.178 4.711 2.355.168-.084.336-.084.42-.336-1.177-.841-2.102-2.86-2.102-4.458z" fill="#fff"/><path d="M17.001 102.742a5.588 5.588 0 0 0-1.598-.758 5.84 5.84 0 0 0-1.683-.252c-1.43 0-2.524.337-3.281 1.094-.841.673-1.262 1.683-1.262 2.86 0 1.01.337 1.851 1.01 2.523.589.59 1.346 1.179 2.187 1.683a26.49 26.49 0 0 1 2.272 1.515c.589.505.925 1.094 1.009 1.851 0 .421-.252.842-.589 1.263-.42.42-1.01.589-1.851.673-.757 0-1.43-.253-2.104-.589-.673-.337-1.346-.926-1.851-1.599v2.692c.589.505 1.262.841 1.935 1.094.673.168 1.431.336 2.272.336 1.178-.084 2.187-.42 2.945-1.178.841-.757 1.178-1.683 1.178-2.944 0-1.094-.337-2.104-1.01-2.776a7.24 7.24 0 0 0-2.188-1.683c-.841-.505-1.599-.926-2.188-1.346-.673-.505-1.01-1.094-1.01-1.768 0-.504.168-.925.589-1.261.505-.337 1.009-.506 1.767-.506.504 0 1.009.085 1.683.337.589.169 1.178.589 1.767 1.178v-2.439h.001zM27.938 116.876v-9.844h-1.935v7.067c-.336.421-.757.757-1.093 1.01a2.38 2.38 0 0 1-1.262.336c-.673 0-1.178-.168-1.515-.505-.336-.42-.504-.925-.504-1.683v-6.226h-1.936v6.142c0 1.262.253 2.188.926 2.86a3.172 3.172 0 0 0 2.439 1.094c.505 0 1.01-.168 1.515-.42.505-.253 1.01-.59 1.43-1.094v1.262h1.935v.001zM35.257 106.864c-1.514 0-2.692.505-3.702 1.43-.926.926-1.43 2.104-1.43 3.618s.504 2.776 1.43 3.702c.925.925 2.188 1.43 3.702 1.514 1.599-.084 2.944-.504 3.87-1.514.925-.926 1.43-2.188 1.514-3.702-.084-1.515-.589-2.776-1.514-3.618-1.009-.925-2.271-1.43-3.87-1.43zm0 1.767c1.01 0 1.767.337 2.44.926.589.589.925 1.346.925 2.355 0 1.094-.336 1.851-.925 2.523-.589.59-1.346.926-2.44.926-.926 0-1.767-.336-2.271-.926-.589-.673-.841-1.514-.925-2.523.084-1.01.336-1.767.925-2.355s1.346-.926 2.271-.926zM42.493 107.032v9.844h1.935v-7.151c.421-.421.758-.757 1.178-1.01.336-.168.757-.252 1.262-.252s.925.168 1.262.589c.336.337.505.926.505 1.683v6.142h1.935v-7.151c.421-.336.757-.673 1.178-.841.337-.253.758-.421 1.094-.421.505 0 1.01.252 1.431.589.336.42.504 1.01.589 1.767v6.058h1.935v-6.142c0-1.178-.336-2.104-.925-2.86-.589-.673-1.346-1.01-2.355-1.01-.673 0-1.346.168-1.851.505s-1.01.757-1.43 1.262a3.882 3.882 0 0 0-1.262-1.346c-.504-.253-1.009-.421-1.683-.421a3.2 3.2 0 0 0-1.43.337 7.208 7.208 0 0 0-1.431 1.093v-1.262h-1.937v-.002zM67.227 114.016a8.316 8.316 0 0 1-1.683.925 6.372 6.372 0 0 1-1.766.253c-.926 0-1.683-.168-2.188-.673-.589-.505-.926-1.263-1.094-2.271h6.898c0-1.768-.336-3.197-1.094-4.039-.757-.925-1.851-1.346-3.113-1.346-1.43 0-2.524.421-3.365 1.346-.842.926-1.262 2.104-1.262 3.618 0 .925.168 1.767.504 2.607.421.758.926 1.431 1.683 1.936.673.505 1.515.673 2.608.757.757 0 1.514-.084 2.104-.336a5.62 5.62 0 0 0 1.766-.842v-1.935h.002zm-6.646-3.029c.084-.842.336-1.431.841-1.852.42-.421 1.009-.589 1.767-.589.673 0 1.262.168 1.683.673.336.421.589 1.01.589 1.768h-4.88zM71.433 107.032h-1.935v9.844h1.935v-7.067c.505-.505.926-.841 1.262-1.094.42-.168.757-.336 1.178-.336.589 0 1.094.252 1.43.673.337.42.505 1.01.505 1.767v6.058h1.935v-6.058c0-1.347-.336-2.355-.925-3.028-.673-.589-1.431-.926-2.356-.926-.589 0-1.178.084-1.682.337-.421.336-.926.673-1.262 1.093h-.084v-1.263h-.001zM86.745 101.9v14.976h2.188v-6.479h2.187c1.767 0 3.029-.42 3.786-1.178.841-.757 1.262-1.767 1.262-3.028 0-1.178-.336-2.188-1.178-3.028-.757-.758-1.935-1.179-3.533-1.263h-4.712zm2.188 1.936h2.524c.925.084 1.599.252 1.935.757.421.421.589 1.01.589 1.515 0 .757-.252 1.346-.757 1.767-.421.42-1.094.589-1.851.589h-2.439v-4.628h-.001zM105.422 115.109c-.252.252-.42.336-.588.421-.254.084-.338.168-.422.168-.168 0-.252-.084-.336-.168-.084-.085-.084-.169-.084-.337v-5.132c0-1.094-.336-1.936-1.01-2.44s-1.514-.757-2.523-.757c-.758 0-1.346.084-1.936.337a2.611 2.611 0 0 0-1.346 1.009v2.104c.504-.589 1.01-.925 1.514-1.262.506-.252 1.01-.337 1.6-.337.588 0 1.008.085 1.346.337.252.337.42.757.42 1.346v.59l-1.766.588c-.506.169-1.01.421-1.516.59a4.885 4.885 0 0 0-1.262.925c-.336.421-.504.926-.504 1.599s.168 1.262.588 1.683c.506.505 1.094.673 1.768.757.504 0 .926-.084 1.346-.252.504-.168.926-.421 1.346-.758.084.337.252.59.42.758.254.168.59.252 1.01.252.338 0 .59-.084.842-.168.252-.168.674-.336 1.094-.589v-1.264h-.001zm-3.365-.169a3.004 3.004 0 0 1-.842.59c-.252.084-.588.168-.84.168-.422 0-.758-.084-1.01-.337a1.396 1.396 0 0 1-.422-1.01c0-.589.338-1.094.926-1.43.59-.337 1.346-.673 2.188-.926v2.945zM107.273 107.032v9.844h1.934v-5.132c0-.842.254-1.599.758-2.188.42-.505 1.01-.842 1.684-.842.168 0 .504.085.84.253.338.168.674.421.926.673l1.01-1.683c-.336-.337-.758-.673-1.178-.842a2.595 2.595 0 0 0-1.094-.252c-.504 0-.926.168-1.43.589-.506.337-1.01 1.01-1.43 1.851h-.086v-2.271h-1.934zM118.547 105.014l-3.703 3.533v.253h1.684v5.216c0 .925.252 1.599.842 2.188.504.589 1.346.841 2.355.925.336 0 .756-.084 1.178-.252.42-.084.842-.252 1.178-.421v-1.851c-.336.252-.758.421-1.094.589-.336.084-.758.168-1.094.168-.252 0-.59-.084-.926-.336-.252-.169-.42-.59-.42-1.179V108.8h3.027v-1.768h-3.027v-2.018zM125.529 107.032h-1.936v9.844h1.936v-9.844zm.168-2.944c0-.336-.084-.589-.336-.841-.168-.253-.506-.337-.842-.337-.252 0-.588.084-.758.337-.252.252-.336.505-.336.841 0 .337.084.589.336.757.17.253.506.337.758.337.336 0 .674-.084.842-.337.252-.168.336-.42.336-.757zM132.932 106.864c-1.514 0-2.691.505-3.701 1.43-.926.926-1.43 2.104-1.514 3.618.084 1.515.588 2.776 1.514 3.702.926.925 2.188 1.43 3.701 1.514 1.6-.084 2.861-.504 3.871-1.514.926-.926 1.43-2.188 1.43-3.702s-.504-2.776-1.514-3.618c-.926-.925-2.188-1.43-3.787-1.43zm0 1.767c1.01 0 1.768.337 2.357.926.672.589.924 1.346 1.008 2.355 0 1.094-.336 1.851-.924 2.523-.59.59-1.432.926-2.441.926-1.008 0-1.766-.336-2.355-.926-.504-.673-.84-1.514-.84-2.523s.336-1.767.924-2.355c.589-.589 1.347-.926 2.271-.926zM142.439 101.9h-1.935v14.976h1.935V101.9zM152.871 115.109c-.252.252-.42.336-.588.421-.17.084-.338.168-.422.168-.168 0-.252-.084-.336-.168 0-.085-.084-.169-.084-.337v-5.132c0-1.094-.336-1.936-1.01-2.44s-1.514-.757-2.523-.757c-.674 0-1.346.084-1.852.337-.588.168-1.01.505-1.43 1.009v2.104c.504-.589 1.01-.925 1.514-1.262.506-.252 1.094-.337 1.6-.337.588 0 1.008.085 1.346.337.252.337.42.757.42 1.346v.59l-1.682.588c-.59.169-1.094.421-1.6.59a4.885 4.885 0 0 0-1.262.925c-.336.421-.504.926-.504 1.599s.252 1.262.672 1.683c.422.505 1.01.673 1.684.757.504 0 .926-.084 1.346-.252.504-.168.926-.421 1.346-.758.084.337.252.59.506.758.252.168.588.252 1.01.252.252 0 .504-.084.84-.168.252-.168.59-.336 1.01-.589v-1.264h-.001zm-3.365-.169c-.252.253-.504.421-.758.59-.336.084-.588.168-.924.168-.422 0-.758-.084-1.01-.337a1.396 1.396 0 0 1-.422-1.01c0-.589.338-1.094.926-1.43.59-.337 1.346-.673 2.188-.926v2.945zM156.572 107.032h-1.934v9.844h1.934v-9.844zm.254-2.944c0-.336-.168-.589-.338-.841-.252-.253-.504-.337-.84-.337-.338 0-.59.084-.842.337-.168.252-.336.505-.336.841 0 .337.168.589.336.757.252.253.504.337.842.337.336 0 .588-.084.84-.337.17-.168.338-.42.338-.757zM165.154 107.621c-.504-.252-1.01-.42-1.514-.589-.506-.084-.926-.168-1.432-.168-1.008 0-1.766.252-2.355.673a2.79 2.79 0 0 0-.84 2.02c0 .673.252 1.178.672 1.683.506.42 1.01.841 1.6 1.178.588.336 1.178.589 1.598.926.42.252.674.589.758.925 0 .337-.168.589-.422.842a2.328 2.328 0 0 1-1.094.252c-.336 0-.84-.084-1.43-.252a21.953 21.953 0 0 1-1.766-1.01v2.104c.588.336 1.178.505 1.766.673a5.442 5.442 0 0 0 1.684.252c.924-.084 1.682-.336 2.271-.841.588-.505.924-1.178.924-2.104 0-.505-.168-.926-.504-1.346-.336-.421-.842-.842-1.684-1.347-.84-.504-1.43-.925-1.85-1.262-.336-.252-.506-.589-.506-.758 0-.252.086-.504.338-.672.168-.169.504-.253.926-.253.336 0 .756.084 1.262.253.504.168 1.008.42 1.598.841v-2.02zM176.092 114.016c-.59.42-1.178.673-1.684.925a6.372 6.372 0 0 1-1.766.253c-.926 0-1.684-.168-2.271-.673-.506-.505-.926-1.263-1.01-2.271h6.898c0-1.768-.42-3.197-1.178-4.039-.758-.925-1.768-1.346-3.113-1.346s-2.523.421-3.281 1.346c-.842.926-1.262 2.104-1.346 3.618 0 .925.252 1.767.59 2.607.336.758.924 1.431 1.598 1.936.758.505 1.598.673 2.607.757.842 0 1.516-.084 2.188-.336a5.63 5.63 0 0 0 1.768-.842v-1.935zm-6.731-3.029c.168-.842.42-1.431.842-1.852.504-.421 1.094-.589 1.85-.589.674 0 1.262.168 1.6.673.42.421.672 1.01.672 1.768h-4.964zM180.635 105.014l-3.617 3.533v.253h1.682v5.216c0 .925.252 1.599.842 2.188.504.589 1.262.841 2.355.925.336 0 .758-.084 1.178-.252.42-.084.842-.252 1.178-.421v-1.851c-.42.252-.758.421-1.094.589-.42.084-.758.168-1.094.168s-.588-.084-.926-.336c-.336-.169-.504-.59-.504-1.179V108.8h3.113v-1.768h-3.113v-2.018zM14.225 130.421H9.093v2.019h5.132v-2.019zM24.489 121.755h-7.656v14.303h2.103v-6.647h5.553v-1.85h-5.553v-3.955h5.553v-1.851zM28.527 126.635h-1.851v9.423h1.851v-9.423zm.252-2.861c0-.336-.168-.589-.336-.757-.252-.253-.505-.337-.841-.337-.252 0-.505.084-.757.337-.168.168-.336.421-.336.757s.168.589.336.757c.252.253.505.337.757.337.336 0 .589-.084.841-.337.168-.168.336-.421.336-.757zM33.238 126.635h-1.851v9.423h1.851v-6.73a6.63 6.63 0 0 1 1.178-1.094c.42-.168.757-.337 1.178-.337.589 0 1.01.253 1.346.673.336.421.505.926.505 1.684v5.805h1.851v-5.805c0-1.263-.336-2.271-.925-2.861-.589-.673-1.346-.925-2.271-.925-.505 0-1.01.084-1.514.337a3.133 3.133 0 0 0-1.262 1.093h-.084v-1.263h-.002zM44.007 121.755h-1.851v14.303h1.851v-14.303zM54.187 134.375c-.168.168-.336.253-.589.421-.168.084-.252.084-.336.084-.168 0-.252 0-.336-.084 0-.085-.084-.253-.084-.421l.084-4.796c-.084-1.094-.42-1.851-1.01-2.355-.673-.505-1.43-.757-2.44-.757-.673 0-1.262.084-1.851.252a3.732 3.732 0 0 0-1.262 1.01v2.02c.42-.505.925-.926 1.43-1.179a3.307 3.307 0 0 1 1.515-.336c.589 0 1.01.084 1.262.336.337.253.421.674.421 1.263v.505l-1.599.589c-.589.168-1.009.421-1.514.673-.505.168-.925.505-1.262.842-.336.42-.42.925-.505 1.514.084.589.253 1.178.673 1.599.421.421 1.009.673 1.683.673.421 0 .841-.084 1.262-.168a5.028 5.028 0 0 0 1.262-.757c.084.336.252.589.505.757.168.084.505.168.925.168.252 0 .505 0 .757-.084.252-.168.589-.336 1.009-.589v-1.18zm-3.197-.253c-.252.253-.505.506-.757.589a1.616 1.616 0 0 1-.841.253c-.421 0-.757-.168-1.009-.421-.252-.252-.336-.505-.336-.925 0-.59.336-1.01.841-1.347.588-.337 1.346-.589 2.103-.841v2.692h-.001zM57.888 126.635h-1.851v9.423h1.851v-6.73a6.664 6.664 0 0 1 1.178-1.094c.421-.168.758-.337 1.178-.337.589 0 1.009.253 1.346.673.336.421.504.926.504 1.684v5.805h1.851v-5.805c0-1.263-.337-2.271-.925-2.861-.589-.673-1.346-.925-2.272-.925-.504 0-1.009.084-1.514.337a3.14 3.14 0 0 0-1.262 1.093h-.084v-1.263zM74.882 121.755h-1.851v5.049c-.336-.085-.673-.253-1.009-.253-.337-.084-.589-.084-.925-.084-1.431 0-2.524.421-3.366 1.262-.925.841-1.346 2.02-1.346 3.365 0 1.599.421 2.776 1.262 3.617.757.926 1.851 1.347 3.281 1.347h3.954v-14.303zm-1.85 12.704h-1.851c-1.094 0-1.851-.252-2.271-.841a3.195 3.195 0 0 1-.589-2.188c0-1.01.252-1.852.841-2.44.504-.589 1.261-.841 2.187-.841.252 0 .589 0 .841.084.252 0 .589.084.841.252v5.974h.001zM83.127 127.224c-.421-.252-.926-.505-1.43-.589-.42-.168-.841-.168-1.346-.168-.925 0-1.683.168-2.271.673-.505.421-.757 1.094-.841 1.851.084.674.252 1.179.757 1.599a7.23 7.23 0 0 0 1.514 1.178c.505.337 1.01.589 1.514.842.421.336.673.589.673.925 0 .337-.168.589-.42.758-.253.168-.589.337-1.01.337-.337 0-.841-.085-1.346-.337-.504-.169-1.094-.505-1.683-.926v2.02c.589.336 1.094.505 1.599.673.504.168 1.093.168 1.683.168.841 0 1.598-.252 2.187-.757.589-.505.842-1.178.926-2.02 0-.421-.168-.841-.505-1.262s-.841-.841-1.683-1.346c-.757-.505-1.346-.842-1.767-1.178-.337-.253-.505-.505-.505-.674 0-.336.084-.505.336-.673s.505-.252.925-.252c.337 0 .757.084 1.262.252.42.168.925.421 1.43.758v-1.852h.001zM99.785 122.513a6.382 6.382 0 0 0-1.514-.758c-.59-.168-1.094-.252-1.599-.252-1.346.084-2.439.421-3.197 1.094s-1.178 1.599-1.178 2.776c0 .925.336 1.767.925 2.355.673.589 1.346 1.178 2.188 1.599.757.505 1.515.926 2.103 1.43.59.505.926 1.094.926 1.852 0 .42-.168.841-.506 1.178-.42.421-1.008.589-1.766.589-.757 0-1.43-.168-2.019-.505-.673-.337-1.262-.842-1.767-1.515v2.608a7.917 7.917 0 0 0 1.852 1.01 8.693 8.693 0 0 0 2.187.252c1.094 0 2.104-.336 2.861-1.094.672-.673 1.094-1.599 1.094-2.776 0-1.094-.338-2.019-.926-2.691-.674-.674-1.346-1.179-2.188-1.599-.758-.421-1.515-.926-2.104-1.347s-.925-.925-.925-1.599c0-.504.168-.925.588-1.262.421-.336 1.01-.505 1.683-.505.421 0 .926.085 1.514.337.59.252 1.18.589 1.768 1.178v-2.355zM109.545 127.056c-.506-.168-.926-.337-1.348-.421-.42-.168-.924-.168-1.43-.168-1.43 0-2.607.421-3.365 1.346-.842.926-1.262 2.104-1.262 3.702 0 1.43.42 2.523 1.346 3.449.842.842 2.02 1.262 3.449 1.262.506 0 1.01 0 1.516-.168.504-.084.926-.168 1.262-.337v-1.851c-.42.168-.926.337-1.262.505-.422.084-.842.084-1.262.084-.926 0-1.684-.252-2.271-.841-.59-.506-.842-1.263-.926-2.271.084-.926.336-1.768.842-2.271.504-.59 1.178-.926 2.102-.926.338 0 .758.084 1.18.168.42.168.84.421 1.43.758v-2.02h-.001zM116.359 126.467c-1.43 0-2.607.505-3.533 1.346-.926.926-1.348 2.02-1.432 3.449 0 1.431.506 2.692 1.432 3.618.926.841 2.104 1.346 3.533 1.346 1.514 0 2.775-.42 3.701-1.346s1.43-2.104 1.43-3.618c0-1.43-.504-2.607-1.43-3.449-.925-.925-2.187-1.346-3.701-1.346zm0 1.682c.926 0 1.682.252 2.271.841.588.589.926 1.347.926 2.271 0 1.01-.254 1.851-.842 2.44-.59.589-1.346.841-2.355.841-.926 0-1.684-.252-2.188-.841-.59-.674-.842-1.431-.842-2.44 0-.925.252-1.683.842-2.271.589-.589 1.263-.841 2.188-.841zM131.586 136.058v-9.423h-1.85v6.73a5.793 5.793 0 0 1-1.01 1.01 2.373 2.373 0 0 1-1.262.336c-.59 0-1.094-.168-1.432-.589-.336-.336-.504-.841-.504-1.514v-5.974h-1.852v5.89c0 1.178.338 2.104.926 2.776.59.589 1.346.925 2.355.925.422 0 .926-.084 1.432-.336.504-.253.924-.589 1.346-1.01v1.178h1.851v.001zM136.635 124.7l-3.533 3.365v.252h1.682v4.964c0 .841.252 1.599.758 2.104.504.589 1.262.841 2.271.841.336 0 .672 0 1.094-.168.42-.084.842-.252 1.178-.421v-1.767a3.195 3.195 0 0 1-1.094.505c-.336.168-.674.168-1.01.168-.336.085-.59-.084-.842-.252-.336-.253-.504-.589-.504-1.179v-4.795h2.943v-1.683h-2.943V124.7zM149.506 133.365c-.504.337-1.094.589-1.598.842a5.847 5.847 0 0 1-1.684.252c-.926 0-1.598-.252-2.188-.673-.504-.505-.84-1.178-1.008-2.188h6.645c0-1.683-.336-3.029-1.094-3.87-.756-.841-1.766-1.262-3.027-1.262-1.264 0-2.355.421-3.113 1.262-.842.926-1.262 2.02-1.262 3.533 0 .842.168 1.683.504 2.44.338.757.926 1.346 1.6 1.851.672.421 1.514.673 2.439.673.842 0 1.514-.084 2.104-.252.588-.168 1.178-.421 1.682-.842v-1.766zm-6.395-2.944c.086-.757.338-1.346.758-1.767.506-.421 1.01-.589 1.768-.589.672 0 1.178.168 1.598.589.336.421.59 1.01.59 1.767h-4.714zM152.029 126.635v9.423h1.852v-4.964c0-.757.252-1.515.674-2.019.42-.59 1.01-.842 1.598-.842.252 0 .506.084.842.252.336.169.588.421.926.674l1.01-1.599c-.422-.421-.758-.673-1.18-.842a2.325 2.325 0 0 0-1.092-.252c-.422 0-.842.168-1.348.505-.42.42-.924 1.01-1.346 1.851h-.084v-2.188h-1.852v.001zM167.342 126.635v9.423h1.852v-4.964c0-.757.252-1.515.672-2.019.422-.59 1.01-.842 1.6-.842.252 0 .504.084.84.252.338.169.674.421.926.674l1.01-1.599c-.42-.421-.756-.673-1.178-.842-.336-.168-.674-.252-1.094-.252s-.842.168-1.346.505c-.42.42-.926 1.01-1.346 1.851h-.084v-2.188h-1.852v.001zM184.168 126.635h-2.104l-2.439 5.3-2.523-5.3h-2.188l3.701 7.403-3.197 6.899h2.02l6.73-14.302zM15.823 141.021H8.504v1.094h3.029v7.656h1.261v-7.656h3.029v-1.094zM18.011 141.021h-1.178v8.749h1.178v-4.122c.252-.337.504-.505.673-.673.252-.084.505-.169.757-.169.336 0 .589.085.757.337.253.252.337.589.337 1.01v3.617h1.178v-3.533c-.084-.757-.252-1.346-.589-1.767s-.841-.589-1.431-.589c-.252 0-.588.084-.925.252-.253.169-.505.337-.757.589v-3.701zM28.106 148.088l-1.01.505c-.336.084-.673.168-1.009.168-.505 0-1.01-.168-1.262-.42a2.322 2.322 0 0 1-.673-1.262h4.039c0-1.094-.168-1.936-.673-2.44-.42-.505-1.009-.757-1.767-.757-.841 0-1.514.252-1.935.841-.504.505-.757 1.179-.757 2.104 0 .505.084 1.01.337 1.431.168.504.505.841.925 1.178.421.252.925.42 1.514.42.421 0 .842-.084 1.262-.168a2.841 2.841 0 0 0 1.01-.505v-1.095h-.001zm-3.87-1.767c0-.505.168-.841.42-1.094.336-.252.673-.336 1.094-.336.421 0 .757.084.926.336.252.253.42.589.42 1.094h-2.86zM41.062 145.48h-2.861v1.093h1.683v1.768c-.336.084-.673.168-.925.252-.336.084-.673.084-1.01.084-1.009 0-1.935-.252-2.523-.925-.673-.589-1.01-1.347-1.01-2.356 0-.673.168-1.178.42-1.682.337-.506.757-.926 1.262-1.179a2.848 2.848 0 0 1 1.683-.505c.505 0 1.094.085 1.599.253.504.084 1.009.337 1.514.589v-1.262c-.673-.253-1.178-.421-1.683-.589-.421-.085-.925-.169-1.43-.169-.841.084-1.683.253-2.355.674-.673.336-1.262.925-1.683 1.598-.421.674-.589 1.431-.589 2.271 0 .926.168 1.684.589 2.356.42.589.925 1.178 1.598 1.514.757.421 1.515.589 2.44.589.589 0 1.178-.084 1.683-.168a5.854 5.854 0 0 0 1.599-.505v-3.701h-.001zM47.625 149.771v-5.805h-1.178v4.122c-.168.253-.421.505-.589.589-.252.168-.505.253-.757.253-.42 0-.673-.169-.925-.337-.168-.252-.252-.505-.252-.926v-3.701h-1.178v3.617c0 .674.252 1.262.588 1.683.337.421.842.589 1.431.589.252 0 .589-.084.841-.252.336-.168.589-.337.841-.589v.757h1.178zM50.401 143.966h-1.094v5.805h1.094v-5.805zm.168-1.683c0-.253-.084-.421-.252-.505-.084-.168-.252-.168-.421-.168-.252 0-.421 0-.505.168-.168.084-.252.252-.252.505 0 .168.084.337.252.421.084.168.252.252.505.252a.464.464 0 0 0 .421-.252.463.463 0 0 0 .252-.421zM57.047 141.021h-1.093v3.112c-.252-.084-.421-.168-.673-.168-.168-.084-.336-.084-.589-.084-.841 0-1.514.252-2.019.841-.505.505-.757 1.179-.841 2.02.084.925.252 1.683.757 2.188a2.786 2.786 0 0 0 2.019.841h2.44v-8.75h-.001zm-1.093 7.74h-1.178c-.673 0-1.093-.168-1.346-.504-.252-.337-.42-.842-.42-1.347 0-.589.168-1.094.505-1.43.336-.421.757-.589 1.346-.589.168 0 .336 0 .505.084.168 0 .336.084.589.168v3.618h-.001zM63.441 148.088l-1.01.505a3.14 3.14 0 0 1-1.009.168 2.07 2.07 0 0 1-1.262-.42c-.336-.337-.504-.758-.589-1.262h4.038c-.084-1.094-.252-1.936-.757-2.44-.421-.505-1.01-.757-1.767-.757-.841 0-1.43.252-1.935.841-.505.505-.757 1.179-.757 2.104 0 .505.084 1.01.336 1.431.168.504.505.841.926 1.178.42.252.925.42 1.514.42.505 0 .925-.084 1.262-.168a2.833 2.833 0 0 0 1.01-.505v-1.095zm-3.87-1.767c.084-.505.253-.841.505-1.094.252-.252.589-.336 1.01-.336.42 0 .757.084 1.009.336.168.253.336.589.336 1.094h-2.86zM68.152 144.386a3.93 3.93 0 0 0-.841-.42c-.252-.084-.505-.084-.841-.084-.589 0-1.009.168-1.346.421-.336.252-.505.673-.505 1.178 0 .336.168.673.421.925.252.253.589.505.925.674.336.252.673.42.925.588.253.169.421.337.421.505 0 .253-.084.421-.252.505-.168.084-.336.168-.589.168s-.505-.084-.841-.168c-.337-.084-.673-.336-1.094-.589v1.262c.421.169.757.337 1.009.421.337.084.673.084 1.01.084.589 0 1.009-.168 1.346-.42.336-.337.505-.758.589-1.263 0-.252-.084-.589-.336-.757-.168-.252-.505-.589-1.009-.842-.505-.336-.842-.504-1.094-.672-.168-.253-.252-.337-.252-.506 0-.168 0-.252.168-.336.168-.168.336-.168.589-.168.168 0 .42 0 .757.168.252.084.589.252.841.421v-1.095h-.001zM78.08 148.761c-.084.084-.252.084-.337.169-.083.084-.168.084-.252.084s-.168 0-.168-.084c-.084 0-.084-.085-.084-.169v-3.028c0-.589-.168-1.094-.589-1.43-.42-.253-.841-.421-1.43-.421-.421 0-.841.084-1.178.168-.252.168-.589.336-.757.589v1.263c.252-.337.589-.59.841-.758.336-.084.673-.168.925-.168.421 0 .673.084.841.168.168.168.252.505.252.842v.252l-1.009.421c-.337.084-.673.168-.926.336-.336.169-.589.337-.757.505-.168.253-.252.589-.252.926 0 .42.084.757.336 1.01.252.252.589.42 1.009.42.252 0 .505-.084.841-.168.253-.084.505-.252.757-.421 0 .169.084.337.252.421s.336.168.589.168c.168 0 .336 0 .505-.084s.336-.168.589-.336v-.675h.002zm-1.935-.168c-.168.168-.336.252-.504.337-.168.084-.337.084-.505.084-.253 0-.421 0-.589-.169a.763.763 0 0 1-.252-.588c0-.337.168-.59.588-.842.337-.168.758-.336 1.262-.505v1.683zM80.267 143.966h-1.178v5.805h1.178v-4.122c.252-.337.505-.505.757-.673.168-.084.421-.169.673-.169.336 0 .589.085.841.337.168.252.252.589.252 1.01v3.617h1.178v-3.533c0-.842-.252-1.431-.589-1.767-.336-.421-.841-.589-1.346-.589-.336 0-.673.084-1.01.252-.252.169-.504.337-.757.589v-.757h.001zM90.531 141.021h-1.094v3.112c-.252-.084-.42-.168-.673-.168-.168-.084-.336-.084-.589-.084-.841 0-1.515.252-2.019.841-.505.505-.757 1.179-.841 2.02.084.925.252 1.683.757 2.188s1.178.841 2.02.841h2.439v-8.75zm-1.094 7.74h-1.178c-.673 0-1.094-.168-1.346-.504-.253-.337-.421-.842-.421-1.347 0-.589.168-1.094.505-1.43.336-.421.757-.589 1.346-.589.168 0 .337 0 .505.084.168 0 .337.084.589.168v3.618zM100.291 141.526c-.338-.253-.674-.337-1.01-.505-.338-.085-.59-.169-.926-.169-.842.084-1.515.253-1.936.674-.504.42-.757 1.009-.757 1.682 0 .59.253 1.095.589 1.431.42.421.842.757 1.346 1.01.42.253.926.589 1.262.841.338.337.59.674.59 1.178 0 .253-.084.505-.336.674-.254.252-.59.42-1.096.42-.42 0-.84-.168-1.177-.336-.42-.253-.757-.589-1.093-.926v1.515c.336.336.757.505 1.093.673.421.084.841.168 1.347.168.672 0 1.262-.252 1.766-.673.422-.421.674-1.01.674-1.683-.084-.673-.252-1.262-.59-1.598-.42-.421-.84-.758-1.346-1.01-.42-.337-.926-.589-1.262-.842-.336-.252-.589-.589-.589-1.01 0-.252.169-.505.421-.757.252-.168.588-.253.926-.253.336 0 .672 0 1.01.169.336.168.672.421 1.094.757v-1.43zM106.096 144.303c-.254-.169-.506-.253-.758-.337s-.59-.084-.926-.084c-.842 0-1.514.252-2.02.841-.504.505-.756 1.263-.84 2.271.084.842.336 1.515.84 2.02.506.589 1.264.841 2.104.841.338 0 .674 0 .926-.084.336-.084.59-.168.758-.252v-1.094l-.758.252c-.252.084-.504.084-.758.084-.588 0-1.008-.168-1.346-.504-.42-.337-.588-.758-.588-1.347s.168-1.094.504-1.43c.336-.337.758-.505 1.262-.589.252 0 .506.084.758.168s.504.252.842.421v-1.177zM110.217 143.882c-.924 0-1.598.336-2.188.841-.504.589-.84 1.263-.84 2.104s.336 1.599.84 2.188c.59.505 1.264.841 2.188.841.926 0 1.684-.252 2.188-.841.59-.589.926-1.262.926-2.188 0-.925-.336-1.599-.926-2.104-.505-.589-1.262-.841-2.188-.841zm0 1.01c.59 0 1.01.168 1.348.589.42.336.588.757.588 1.346s-.168 1.094-.504 1.431c-.338.42-.842.588-1.432.588-.588 0-1.01-.168-1.346-.588-.336-.337-.504-.842-.504-1.431s.168-1.01.504-1.346c.336-.421.758-.589 1.346-.589zM119.387 149.771v-5.805h-1.094v4.122c-.168.253-.42.505-.672.589-.252.168-.422.253-.674.253-.42 0-.756-.169-.926-.337-.168-.252-.252-.505-.252-.926v-3.701h-1.178v3.617c0 .674.168 1.262.59 1.683.336.421.84.589 1.43.589.252 0 .588-.084.842-.252a3.02 3.02 0 0 0 .84-.589v.757h1.094zM122.416 142.788l-2.104 2.104v.084h.926v3.112c0 .505.168.926.506 1.262.336.337.756.505 1.43.505.168 0 .42 0 .672-.084.254-.084.506-.168.674-.336v-1.01c-.252.168-.42.252-.674.336-.252 0-.42.084-.588.084-.252 0-.422-.084-.59-.168-.168-.168-.252-.42-.252-.673v-3.028h1.768v-1.01h-1.768v-1.178zM128.727 144.386c-.336-.168-.59-.336-.842-.42-.336-.084-.59-.084-.842-.084-.588 0-1.01.168-1.43.421-.252.252-.42.673-.504 1.178.084.336.168.673.42.925.336.253.588.505.926.674.336.252.672.42.926.588.252.169.42.337.42.505 0 .253-.084.421-.252.505s-.338.168-.59.168c-.168 0-.504-.084-.842-.168-.336-.084-.672-.336-1.008-.589v1.262c.336.169.672.337 1.008.421.338.084.674.084 1.01.084.506 0 1.01-.168 1.346-.42.338-.337.506-.758.506-1.263 0-.252-.084-.589-.252-.757-.254-.252-.59-.589-1.01-.842-.506-.336-.842-.504-1.094-.672-.252-.253-.336-.337-.336-.506 0-.168.084-.252.252-.336.084-.168.252-.168.504-.168s.506 0 .758.168c.336.084.59.252.926.421v-1.095zM136.887 143.882c-.926 0-1.598.336-2.188.841-.588.589-.842 1.263-.842 2.104s.254 1.599.842 2.188c.506.505 1.262.841 2.188.841s1.684-.252 2.188-.841c.588-.589.842-1.262.926-2.188-.084-.925-.338-1.599-.926-2.104-.591-.589-1.263-.841-2.188-.841zm-.084 1.01c.588 0 1.094.168 1.43.589.338.336.59.757.59 1.346s-.168 1.094-.59 1.431c-.336.42-.758.588-1.43.588-.506 0-1.01-.168-1.346-.588-.252-.337-.422-.842-.506-1.431.084-.589.254-1.01.59-1.346.336-.421.756-.589 1.262-.589zM144.289 141.021c-.504-.169-.924-.169-1.26-.085a1.66 1.66 0 0 0-.926.506c-.254.252-.422.504-.506.841-.168.337-.168.757-.168 1.262v.421h-.842v1.01h.842v4.795h1.094v-4.795h1.01v-1.01h-1.01v-.505c0-.505.084-.841.252-1.094.168-.252.506-.337.926-.337h.336s.17.085.252.085v-1.094zM153.123 141.021h-4.627v8.75h1.262v-4.123h3.365v-1.093h-3.365v-2.44h3.365v-1.094zM155.564 143.966h-1.178v5.805h1.178v-5.805zm.084-1.683c0-.253-.084-.421-.168-.505-.17-.168-.338-.168-.506-.168s-.336 0-.504.168c-.084.084-.17.252-.17.505 0 .168.086.337.17.421.168.168.336.252.504.252s.336-.084.506-.252a.644.644 0 0 0 .168-.421zM158.34 143.966h-1.094v5.805h1.094v-4.122c.252-.337.506-.505.758-.673.168-.084.42-.169.672-.169.338 0 .674.085.842.337s.252.589.252 1.01v3.617h1.178v-3.533c0-.842-.168-1.431-.588-1.767-.336-.421-.842-.589-1.346-.589-.338 0-.674.084-.926.252-.336.169-.59.337-.842.589v-.757zM164.818 141.021h-1.093v8.75h1.093v-8.75zM170.959 148.761c-.084.084-.252.084-.336.169-.084.084-.168.084-.252.084s-.084 0-.168-.084c0 0-.084-.085-.084-.169v-3.028c0-.589-.17-1.094-.59-1.43-.336-.253-.842-.421-1.43-.421-.422 0-.842.084-1.094.168a2.98 2.98 0 0 0-.842.589v1.263a2.61 2.61 0 0 1 .926-.758c.252-.084.588-.168.926-.168.336 0 .588.084.756.168.168.168.254.505.254.842v.252l-1.01.421c-.338.084-.59.168-.926.336l-.758.505c-.168.253-.252.589-.252.926 0 .42.084.757.336 1.01.252.252.59.42 1.01.42.336 0 .59-.084.842-.168s.504-.252.758-.421c0 .169.084.337.252.421s.336.168.588.168c.168 0 .338 0 .506-.084s.336-.168.588-.336v-.675zm-1.934-.168c-.17.168-.338.252-.506.337-.168.084-.336.084-.504.084-.254 0-.422 0-.59-.169a.763.763 0 0 1-.252-.588c.084-.337.252-.59.588-.842a9.995 9.995 0 0 1 1.264-.505v1.683zM173.146 143.966h-1.094v5.805h1.094v-4.122c.252-.337.506-.505.758-.673.168-.084.42-.169.672-.169.338 0 .59.085.842.337.168.252.252.589.252 1.01v3.617h1.178v-3.533c0-.842-.168-1.431-.588-1.767-.336-.421-.842-.589-1.346-.589-.338 0-.674.084-.926.252-.336.169-.59.337-.842.589v-.757zM183.41 141.021h-1.094v3.112c-.252-.084-.42-.168-.672-.168-.168-.084-.338-.084-.506-.084-.926 0-1.598.252-2.104.841-.504.505-.756 1.179-.756 2.02 0 .925.252 1.683.672 2.188.506.505 1.178.841 2.104.841h2.355v-8.75h.001zm-1.094 7.74h-1.178c-.672 0-1.094-.168-1.346-.504-.252-.337-.42-.842-.42-1.347 0-.589.168-1.094.504-1.43.336-.421.842-.589 1.346-.589.168 0 .422 0 .59.084.168 0 .336.084.504.168v3.618z"/></g></svg>