<svg viewBox="0.29 0.12 799.22 780.75" xmlns="http://www.w3.org/2000/svg" width="2500" height="2443"><linearGradient id="a" gradientUnits="userSpaceOnUse" x1="39961.14" x2="39961.14" y1="3498.32" y2="77692.838"><stop offset="0" stop-color="#01c38c"/><stop offset="1" stop-color="#23a185"/></linearGradient><path d="M703.72 115.78v105.75l95.79 53.1v232l-95.79 53.04v105.55L495.18 780.87l-65.57-36.35V427.28L113.8 252.1l-77.71 43.04v190.47l77.62 43.06 83.71-46.16.3-3.04c1.9-18.14 17.11-31.8 35.4-31.8 19.74 0 35.8 15.87 35.8 35.41 0 19.53-16.06 35.41-35.8 35.41-5.25 0-10.46-1.24-15.53-3.67l-2.79-1.34-82.93 45.7v85.29l172.75 95.8 29.75-16.5v-32.12l-166.8-92.38v-18.56l19.93-10.98 146.87 81.32v-235.8l35.81 19.85v309.42l-65.56 36.35L96.08 665.22V559.49L.29 506.36V274.38l95.79-53.06V115.78L304.62.12l65.56 36.37v317.22L686 528.91l77.71-43.05V295.38l-77.62-43.05-83.7 46.15-.32 3.06c-1.87 18.13-17.1 31.8-35.41 31.8-19.73 0-35.79-15.9-35.79-35.42s16.06-35.41 35.79-35.41c5.26 0 10.49 1.24 15.54 3.66l2.8 1.36 82.93-45.73v-85.27L495.18 40.72l-29.76 16.49v32.15l166.81 92.37v18.56l-19.93 10.97-23.86-13.21-.12.06-122.9-68.16v235.14l-35.81-19.88V36.46L495.18.12zm-571.85 85.71l202.5-112.14V57.22l-29.75-16.5-172.75 95.81zm202.5 132.35v-203.9L150.44 231.82zm131.05 317.23l183.94-101.88-183.94-102.05zm29.76 89.2l172.75-95.8V579.5L465.42 691.66v32.11z" fill="url(#a)"/></svg>