<svg xmlns="http://www.w3.org/2000/svg" width="2500" height="2500" viewBox="0 0 192.756 192.756"><path fill-rule="evenodd" clip-rule="evenodd" fill="#fff" d="M0 0h192.756v192.756H0V0z"/><path d="M3.01 96.378c0-25.81 10.45-49.195 27.339-66.127C47.242 13.315 70.568 2.834 96.32 2.834c25.803 0 49.155 10.476 66.061 27.404 16.91 16.933 27.365 40.323 27.365 66.14 0 25.862-10.443 49.239-27.338 66.155-16.908 16.932-40.271 27.389-66.088 27.389-25.765 0-49.104-10.463-66-27.402-16.872-16.915-27.31-40.288-27.31-66.142zm31.114-62.373C18.202 49.969 8.35 72.025 8.35 96.378c0 24.397 9.84 46.442 25.745 62.388 15.917 15.957 37.921 25.814 62.225 25.814 24.356 0 46.383-9.852 62.313-25.801 15.928-15.947 25.773-37.998 25.773-62.401 0-24.359-9.857-46.42-25.801-62.385C142.678 18.044 120.662 8.175 96.32 8.175c-24.289 0-46.281 9.874-62.196 25.83z" fill="#0c0e0f"/><path d="M43.942 96.379C43.942 67.448 67.39 44 96.32 44s52.377 23.447 52.377 52.376c0 29.049-23.447 52.496-52.377 52.496s-52.378-23.448-52.378-52.493z" fill-rule="evenodd" clip-rule="evenodd" fill="#cc8034"/><path d="M96.32 11.921c-46.545 0-84.341 37.796-84.341 84.458 0 46.777 37.796 84.572 84.341 84.572 46.661 0 84.458-37.795 84.458-84.574-.001-46.66-37.798-84.456-84.458-84.456zm0 140.567c-30.913 0-55.994-25.08-55.994-56.109 0-30.914 25.081-55.995 55.994-55.996 30.913.001 55.995 25.082 55.995 55.994-.001 31.031-25.083 56.111-55.995 56.111z" fill-rule="evenodd" clip-rule="evenodd" fill="#2b568c"/><path d="M30.877 55.316c-1.05-.7-1.4-1.05.116-3.266 3.15-4.316 8.399-5.6 13.532-1.984 5.25 3.733 4.783 8.049 2.45 11.316-.7 1.05-2.217 2.566-3.501 2.799-.349 0-1.399-.816-1.75-1.049l-10.847-7.816zm10.499 10.266c2.1 1.633.466 2.8.934 3.149.117.117.233.116.35 0 .117-.233 1.633-2.449 1.75-2.684.816-1.166 1.75-2.216 2.566-3.382 4.549-6.416 2.683-11.432-2.567-15.165-4.199-3.033-10.032-1.283-12.948 2.799-1.4 1.983-2.333 3.5-3.499 5.016-.468.7-1.05 1.283-1.518 1.983-.116.117-.116.35.001.466.583.467 1.283-1.983 3.616-.233l11.315 8.051zM50.941 35.251c0-.35.117-.467.35-.233l6.299 3.85c.233.233.467.35-.117.7l-4.433 3.267c-.351.233-.583.233-.583-.117l-1.516-7.467zm11.316 6.533c.699.467 1.983 1.167 2.333 1.631.583.818-.934 1.635-.583 2.218.233.233.583-.117.7-.117.583-.467 1.167-1.05 1.75-1.517.934-.699 1.983-1.283 2.917-1.866.117-.117.233-.233.117-.467-.35-.583-1.4.934-2.8.351-1.05-.467-2.1-1.167-3.033-1.75l-13.182-8.282c-.233-.117-.816-.7-1.05-.467-.349.234-.116.583.583 4.434l3.033 15.514c.35 1.75-.934 2.1-.583 2.566 0 .234.232.234.351.116.583-.349 1.166-.933 1.75-1.399.583-.466 1.283-.816 1.983-1.283.233-.233.583-.349.35-.816-.467-.583-1.517 1.283-2.683-.233-.233-.351-.467-.7-.467-.933l-.817-4.316c-.116-.583.234-.933.7-1.167l5.017-3.733c.583-.35.933-.116 1.516.235l2.098 1.281zM61.674 26.62c-1.284-1.283-2.45-.234-2.684-.817-.117-.232 0-.466.233-.582.816-.234 1.633-.467 2.449-.817.701-.233 1.633-.7 2.101-.816.116-.117.351-.117.466.117.117.35-.934.816-.583 1.749.116.351.35.701.583.934l8.632 9.099c1.167 1.167 1.517 1.632 1.866 1.517.233-.117.116-.583.233-.934l.233-12.949c0-.466 0-1.399-.351-1.982-.35-1.167-1.866 0-2.099-.584-.116-.35 0-.467.233-.583.583-.116 1.167-.233 1.75-.467 1.283-.467 1.632-.816 1.983-.933.35-.118.466 0 .583.233.233.583-.7.117-.816 2.217l-.7 17.964c0 .7.117 1.633-.233 1.867-.467.117-1.167-.816-1.633-1.283L61.674 26.62zM87.338 25.453c0 .933 0 .933 1.166.817l2.917-.233c2.916-.351 1.982-2.45 2.683-2.566.233 0 .35.35.35.583.116.933.116 1.866.233 2.799 0 .7.117 1.4.233 2.217 0 .233-.116.35-.35.35-.817.117-.116-2.45-2.449-2.216l-4.083.35c-.583 0-.467.466-.467.933l.467 5.133c.117 1.633 0 2.333 2.333 2.1 6.416-.583 7.116-3.5 7.465-3.5.234 0 .234.233.234.233.115 1.05-.467 2.1-1.051 2.917-.816 1.05-1.516 1.051-2.682 1.167-2.101.233-4.316.233-6.416.467-1.051.117-2.217.35-3.384.35-.232.116-.467 0-.467-.233 0-.35.352-.234 1.167-.817.7-.35.7-1.166.584-2.449L84.655 21.02c-.117-1.167-.233-2.566-1.75-2.683-.234 0-.817 0-.816-.35 0-.233.116-.351.933-.351 5.25-.465 6.766-.582 7.932-.699.467 0 3.033-.35 3.966-.467.234 0 .233.35.35.701.233 3.032-.117 3.266-.35 3.266-.583.117-.35-1.284-.816-1.866-.817-.933-3.733-.467-4.784-.35-2.683.233-2.683.117-2.449 1.983l.467 5.249zM118.602 23.586c.35-.234.467-.234.467.117l.582 7.349c0 .35 0 .583-.582.35l-5.25-1.633c-.35-.117-.584-.351-.234-.702l5.017-5.481zm1.515 12.949c0 .817.232 2.217.002 2.8-.352 1.049-1.869.233-1.984.933-.117.234.35.351.467.468.699.232 1.516.35 2.217.584 1.049.349 2.098.815 3.266 1.049.115.116.35.233.465-.117.117-.583-1.633-.467-1.982-1.983-.35-1.167-.35-2.333-.35-3.499l-1.283-15.515c0-.234.117-1.051-.232-1.167-.352-.116-.584.233-3.15 3.15l-10.732 11.666c-1.166 1.283-2.332.35-2.449.933 0 .233 0 .35.117.35.699.233 1.516.349 2.217.583.699.233 1.398.583 2.215.816.35.117.701.351.816-.117.234-.7-1.865-.466-1.283-2.333.117-.351.352-.817.467-.934l2.916-3.149c.352-.583.818-.35 1.4-.233l5.834 1.866c.814.233.816.7.932 1.4l.114 2.449z" fill-rule="evenodd" clip-rule="evenodd" fill="#fff"/><path d="M134.35 32.335c3.5-4.666-.117-5.483.465-6.299.119-.117.352-.001.467.117.352.233.701.583 1.051.816.352.233.699.467 1.049.7.234.116.234.7.234.934l1.865 19.947c.002.233.002.467.002.467.115 0 .115 0 .35-.233l6.998-9.333c2.102-3.033-1.049-3.966-.467-4.783.117-.117.352-.117.467 0 .701.467 1.283 1.05 1.984 1.633.699.583 1.75 1.167 2.332 1.634.117 0 .117.233 0 .35-.35.583-1.398-.816-2.682.816l-9.684 13.065c-.467.583-.699.933-.934.816-.115-.117-.23-.466-.35-1.283l-1.516-18.081c0-.117 0-.7-.234-.817 0-.117-.115-.117-.467.35l-6.881 9.217c-1.518 2.099 1.049 2.798.582 3.382 0 .116-.232.233-.467.116-.467-.466-1.049-1.049-2.217-1.866-.699-.583-1.982-1.283-2.1-1.399-.35-.233-.232-.35-.115-.467.582-.816 1.75 1.633 4.199-1.517l6.069-8.282zM156.863 48.317c1.049-.818 1.516-.934 3.033 1.283 3.033 4.316 2.449 9.799-2.566 13.298-5.367 3.733-9.217 1.867-11.549-1.4-.699-1.05-1.633-2.916-1.4-4.199 0-.351 1.168-1.05 1.516-1.4l10.966-7.582zm-13.181 6.532c-2.1 1.517-2.684-.583-3.268-.233-.115.117-.23.234 0 .467 0 .116 1.75 2.333 1.867 2.45.816 1.167 1.516 2.45 2.334 3.617 4.432 6.416 9.914 6.299 15.164 2.566 4.199-2.917 4.549-9.1 1.633-13.182a133.334 133.334 0 0 0-3.617-4.899c-.465-.7-.816-1.4-1.281-2.1-.117-.233-.35-.35-.467-.233-.584.466 1.4 1.866-.934 3.5l-11.431 8.047zM42.426 142.689c.117-.117.35-.467 1.867 1.051 4.316 4.781 1.75 7.232.467 8.516-1.167 1.166-3.733 2.1-6.299-.701-2.684-2.916-2.101-3.148-.701-4.549l4.666-4.317zm5.249-4.898c1.167-1.051 1.399-1.518 2.683-.234 1.866 2.1 2.333 5.133.118 7.232-.935.816-2.334 1.867-5.483-1.516-1.75-1.867-1.4-1.633-.7-2.334l3.382-3.148zm-11.432 7.697c-1.633 1.4-2.45.818-2.683.701-.467-.35-.699-.467-.933-.35-.233.232.116.699.233.816.933.934 1.866 1.75 2.683 2.684.7.699 1.75 2.1 2.449 2.799 3.733 3.967 7.583 2.217 8.983.934 3.383-3.15.466-6.416.816-6.768.117-.115 2.567 1.168 4.667-.699 1.517-1.398 2.683-4.199-.7-7.814-1.517-1.635-2.333-2.334-3.15-3.15-.7-.934-1.05-1.4-1.4-1.75-.234-.234-.467-.584-.816-.35-.351.467 1.517 2.1-.115 3.498l-10.034 9.449zM53.858 156.338c-2.333 3.85-.816 7.117 2.45 9.1 4.549 2.684 7.349.232 8.982-2.566l4.666-7.816c1.4-2.449-1.4-2.799-.816-3.732 0-.115.233-.117.35-.117.933.584 1.866 1.283 2.799 1.867.467.232.933.35 1.283.582.233.117.35.352.233.467-.466.701-1.517-.699-2.8 1.518l-4.432 7.582c-.7 1.166-3.967 7.232-10.966 3.15-6.417-3.85-5.483-8.051-3.267-11.783l4.782-8.166c.817-1.398-1.399-1.982-.933-2.799 0-.117.467 0 .583.117.7.35 1.167.816 1.866 1.166.817.467 1.633.816 2.333 1.283.116.117.816.467.699.701-.466.699-1.633-.936-2.683.814l-5.129 8.632zM70.54 168.002c0-.582.234-.814.583-.697.35 0 .233.35.233.932 0 1.4.934 4.666 4.666 5.6 2.566.701 5.483-.117 6.184-2.916 1.399-5.25-10.382-5.25-8.517-12.248.817-3.5 4.199-4.434 7.35-3.617 3.266.934 3.849 2.1 4.316 2.217.233 0 .35-.234.583-.117.116 0 .233.115.233.467l-.583 3.734c0 .232-.117.465-.35.35-.35-.117-.35-.701-.35-.934-.233-2.566-1.866-4.316-4.316-4.9-2.1-.584-4.667-.115-5.366 2.334-1.283 5.133 10.499 5.016 8.515 12.48-.582 2.334-3.033 5.367-9.214 3.734-1.984-.584-4.2-2.217-4.2-2.684l.233-3.735zM95.153 160.188c0-.232.117-1.283-.35-1.4h-4.55c-1.75 0-1.75.467-2.216 1.984-.117.35-.117.699-.583.699-.117 0-.233-.232-.233-.35l.35-2.684c0-.35 0-1.166.467-1.166 2.216 0 4.316.115 7.932.117 5.134-.002 7.7-.117 8.282-.117.584 0 .701.232.816.816l.117 2.334c0 .232 0 .582-.35.582-1.051 0 .467-2.1-2.334-2.1l-4.084.002c-1.164-.119-1.049-.119-1.047 1.281l-.002 14.348c0 2.334 2.219 1.4 2.217 2.334 0 .117 0 .35-.232.352-.701-.002-1.4-.119-2.217-.119-3.149.002-3.733.119-3.85.117-.35 0-.35-.115-.351-.467.001-.582 2.217-.35 2.218-1.982v-14.581z" fill-rule="evenodd" clip-rule="evenodd" fill="#fff"/><path d="M111.252 163.92c.232.934.117.934 1.283.701l2.916-.816c2.799-.699 1.516-2.684 2.1-2.918.234 0 .467.234.467.467.232.934.467 1.867.701 2.801.117.699.35 1.4.582 2.1.117.232 0 .35-.232.467-.818.117-.467-2.451-2.801-1.867l-3.967 1.051c-.582.115-.467.582-.35 1.049l1.4 4.9c.35 1.633.35 2.332 2.566 1.75 6.299-1.633 6.533-4.666 6.883-4.783.117 0 .232.232.232.35.234.934-.232 2.1-.699 2.916-.584 1.283-1.166 1.283-2.334 1.633-2.1.584-4.199.934-6.182 1.518-1.166.35-2.217.699-3.385.934-.232.115-.348.115-.465-.117 0-.35.232-.35 1.049-1.049.584-.467.467-1.283.117-2.568l-3.148-12.365c-.352-1.166-.701-2.566-2.217-2.332-.234 0-.816.117-.934-.234-.117-.232.117-.35.816-.582 5.133-1.4 6.65-1.633 7.699-1.867.584-.232 3.033-.934 3.85-1.166.232 0 .35.232.467.582.816 2.918.467 3.268.35 3.385-.699.115-.584-1.283-1.166-1.867-.934-.699-3.734.232-4.9.467-2.566.699-2.566.582-2.1 2.449l1.402 5.011zM123.268 153.422c-.584-.934 0-1.168.816-1.75 2.449-1.283 5.248-1.633 6.998 1.4 1.633 3.033-.467 4.783-1.516 5.365-1.166.701-2.566 1.633-2.801 1.166l-3.497-6.181zm8.515 3.967c1.398-1.635 1.865-3.967.699-5.949-2.566-4.666-7.699-1.168-8.049-.934-1.283.699-2.684 1.633-4.082 2.332-1.283.701-1.168.584-1.635.816-.232.234-.35.467-.35.584.467.816 2.1-1.4 3.383 1.051l7 12.365c1.049 1.865-.934 2.566-.584 3.148 0 .117.234.234.35.117a20.713 20.713 0 0 0 2.684-1.633c2.1-1.166 2.684-1.4 2.916-1.518.232-.115.467-.115.35-.35-.467-.816-2.566 1.283-3.85-.816l-2.799-5.133c-.234-.234-.584-.584.232-1.049 2.684-1.518 2.334-1.4 3.967-.584l5.133 2.799c1.633.934 3.383 1.633 5.133.584.234-.115 1.516-.934 1.4-1.166-.35-.584-1.051.932-4.316-.699l-7.582-3.965zM138.549 144.322c1.75 2.1 1.4 4.9.816 5.367-.234.115-.35.115-.467 0-.232-.352.584-1.75-.584-3.15-1.166-1.4-3.033-.699-3.266-1.051-.234-.232-.115-1.982.232-2.332.468-.349 2.101-.232 3.269 1.166zM149.164 151.09c-.467-.234-.584-.586-.467-.818.234-.232.582 0 1.049.234 1.168.582 4.551 1.166 7-1.75 1.75-1.982 2.334-4.9.117-6.883-4.084-3.5-9.217 7.115-14.699 2.332-2.799-2.332-2.098-5.715 0-8.164 2.217-2.566 3.617-2.684 3.85-2.916.234-.234 0-.467.117-.701.117-.117.35-.117.584 0l3.148 2.217c.234.117.352.232.117.467-.232.234-.816 0-1.049-.117-2.334-.934-4.668-.117-6.184 1.75-1.516 1.633-2.217 4.082-.232 5.832 3.965 3.383 9.098-7.232 14.93-2.1 1.75 1.518 3.385 5.016-.814 9.916-1.4 1.516-3.852 2.799-4.201 2.566l-3.266-1.865z" fill-rule="evenodd" clip-rule="evenodd" fill="#fff"/><path d="M49.309 86.696c0-4.083.349-5.483 4.783-5.483 14.815 0 17.731 13.416 17.731 19.131 0 12.25-6.533 18.314-15.748 18.314-2.333 0-6.766-.465-6.766-4.316V86.696zm-7.233 27.997c0 5.365-4.782 3.148-4.782 5.365 0 1.051 1.399.816 2.449.816 1.75 0 3.616-.232 5.366-.234 2.216.002 5.483.234 12.365.234 6.416 0 21.814-5.365 21.814-22.514 0-18.548-17.265-19.481-25.197-19.481-3.033 0-6.066.233-9.099.232-5.833 0-7.116-.232-8.166-.232-.467 0-1.05.35-1.05.933 0 2.217 6.299.233 6.299 6.3v28.581h.001zM101.568 111.076c-6.532 0-12.482-6.998-12.481-11.664 0-3.15 2.333-4.434 3.149-4.434.35 0 .816.583 1.167 1.284 3.499 6.416 13.297 12.248 13.297 13.182.001.816-3.499 1.632-5.132 1.632zm-16.33-7.816c0 3.734 3.033 10.266 12.598 10.266 3.385 0 7.934-.934 10.5-3.266 1.398 1.166 4.316 3.266 6.881 3.266 3.033 0 5.25-2.098 5.25-2.799 0-.467-.232-.467-.584-.467-.582 0-.582.234-2.215.234-1.051 0-5.6-2.217-5.6-3.967 0-.234 1.75-2.1 2.566-8.283.232-1.516 1.633-.816 1.633-1.866 0-.351-.232-.466-.582-.466-.701 0-1.518.118-3.617.116-2.566 0-3.615-.116-4.316-.116-.584 0-.816.234-.816.583 0 1.635 4.783-.583 4.783 4.783 0 2.566-1.4 4.316-1.633 4.316-1.051 0-15.049-11.898-15.049-17.965 0-1.983.933-3.149 2.917-3.149 3.732 0 6.066 3.033 7.115 6.416.234.7.35 1.05.816 1.05.467 0 .584-.35.584-.817-.232-2.1-.584-4.315-.584-6.533.002-.583.002-.816-.467-.816-.582 0-.816.583-1.398.583-.584 0-3.268-1.517-6.066-1.517-3.85 0-7.116 2.567-7.116 6.65-.001 2.567.933 3.267.933 4.083-.001.465-6.533 2.215-6.533 9.681z" fill-rule="evenodd" clip-rule="evenodd" fill="#0c0e0f" stroke="#0c0e0f" stroke-width="3.674" stroke-linecap="round" stroke-linejoin="round" stroke-miterlimit="2.613"/><path d="M49.309 86.696c0-4.083.349-5.483 4.783-5.483 14.815 0 17.731 13.416 17.731 19.131 0 12.25-6.533 18.314-15.748 18.314-2.333 0-6.766-.465-6.766-4.316V86.696zm-7.233 27.997c0 5.365-4.782 3.148-4.782 5.365 0 1.051 1.399.816 2.449.816 1.75 0 3.616-.232 5.366-.234 2.216.002 5.483.234 12.365.234 6.416 0 21.814-5.365 21.814-22.514 0-18.548-17.265-19.481-25.197-19.481-3.033 0-6.066.233-9.099.232-5.833 0-7.116-.232-8.166-.232-.467 0-1.05.35-1.05.933 0 2.217 6.299.233 6.299 6.3v28.581h.001zM101.568 111.076c-6.532 0-12.482-6.998-12.481-11.664 0-3.15 2.333-4.434 3.149-4.434.35 0 .816.583 1.167 1.284 3.499 6.416 13.297 12.248 13.297 13.182.001.816-3.499 1.632-5.132 1.632zm-16.33-7.816c0 3.734 3.033 10.266 12.598 10.266 3.385 0 7.934-.934 10.5-3.266 1.398 1.166 4.316 3.266 6.881 3.266 3.033 0 5.25-2.098 5.25-2.799 0-.467-.232-.467-.584-.467-.582 0-.582.234-2.215.234-1.051 0-5.6-2.217-5.6-3.967 0-.234 1.75-2.1 2.566-8.283.232-1.516 1.633-.816 1.633-1.866 0-.351-.232-.466-.582-.466-.701 0-1.518.118-3.617.116-2.566 0-3.615-.116-4.316-.116-.584 0-.816.234-.816.583 0 1.635 4.783-.583 4.783 4.783 0 2.566-1.4 4.316-1.633 4.316-1.051 0-15.049-11.898-15.049-17.965 0-1.983.933-3.149 2.917-3.149 3.732 0 6.066 3.033 7.115 6.416.234.7.35 1.05.816 1.05.467 0 .584-.35.584-.817-.232-2.1-.584-4.315-.584-6.533.002-.583.002-.816-.467-.816-.582 0-.816.583-1.398.583-.584 0-3.268-1.517-6.066-1.517-3.85 0-7.116 2.567-7.116 6.65-.001 2.567.933 3.267.933 4.083-.001.465-6.533 2.215-6.533 9.681z" fill-rule="evenodd" clip-rule="evenodd" fill="#fff"/><path d="M168.996 167.303c-.002-2.1 1.633-3.732 3.732-3.732 1.984 0 3.615 1.633 3.615 3.734 0 2.098-1.633 3.732-3.615 3.732-2.099-.002-3.734-1.635-3.732-3.734zm3.733 4.433c2.449 0 4.432-1.867 4.432-4.434s-2.1-4.432-4.432-4.432c-2.566 0-4.551 1.867-4.551 4.432 0 2.567 1.984 4.434 4.551 4.434zm-1.051-4.082l.934-.002 1.4 2.217h.816l-1.4-2.215c.699-.117 1.283-.584 1.283-1.518s-.584-1.4-1.75-1.398h-1.982v5.131h.699v-2.215zm0-.701v-1.633h1.166c.467 0 1.051.117 1.051.816 0 .816-.582.816-1.283.816h-.934v.001z" fill-rule="evenodd" clip-rule="evenodd" fill="#0c0e0f"/><path fill-rule="evenodd" clip-rule="evenodd" fill="#2b568c" d="M152.664 95.445l-2.217 1.866 2.916 1.634-.699-3.5z"/><path d="M147.646 105.244s1.4 1.516 1.4 4.898-4.898 7.117-4.898 7.117l.115-7 3.383-5.015z" fill-rule="evenodd" clip-rule="evenodd" fill="#cc8034"/><path d="M133.416 87.046c0-3.266.117-5.6 4.084-5.6 5.248 0 9.682 3.85 9.682 9.216 0 4.433-1.75 6.648-6.184 6.648h-3.617c-3.383-.232-3.965-.467-3.965-3.383v-6.881zm-7.35 26.831c0 5.717-5.016 4.082-5.016 6.066 0 .814.582.932 1.865.932s2.801-.234 4.318-.234c2.916.002 5.832.234 14.697.234 9.564 0 15.049-5.133 15.049-12.949 0-5.248-2.217-8.514-9.451-10.381l.002-.117c4.199-1.283 6.416-4.549 6.416-8.282 0-1.4 0-10.265-14.465-10.265-5.018 0-10.033.232-15.049.232-2.801 0-3.15-.232-3.617-.232-.232 0-.932 0-.932.934 0 2.916 6.182-.351 6.182 7.815v26.247h.001zm7.35-9.334c0-3.031.117-4.549 3.615-4.549 10.732 0 12.482 5.367 12.484 8.865-.002 5.834-3.035 9.682-8.867 9.684-5.717-.002-7.232-1.75-7.232-7.35v-6.65z" fill-rule="evenodd" clip-rule="evenodd" fill="#0c0e0f" stroke="#0c0e0f" stroke-width="3.674" stroke-linecap="round" stroke-linejoin="round" stroke-miterlimit="2.613"/><path d="M133.416 87.046c0-3.266.117-5.6 4.084-5.6 5.248 0 9.682 3.85 9.682 9.216 0 4.433-1.75 6.648-6.184 6.648h-3.617c-3.383-.232-3.965-.467-3.965-3.383v-6.881zm-7.35 26.831c0 5.717-5.016 4.082-5.016 6.066 0 .814.582.932 1.865.932s2.801-.234 4.318-.234c2.916.002 5.832.234 14.697.234 9.564 0 15.049-5.133 15.049-12.949 0-5.248-2.217-8.514-9.451-10.381l.002-.117c4.199-1.283 6.416-4.549 6.416-8.282 0-1.4 0-10.265-14.465-10.265-5.018 0-10.033.232-15.049.232-2.801 0-3.15-.232-3.617-.232-.232 0-.932 0-.932.934 0 2.916 6.182-.351 6.182 7.815v26.247h.001zm7.35-9.334c0-3.031.117-4.549 3.615-4.549 10.732 0 12.482 5.367 12.484 8.865-.002 5.834-3.035 9.682-8.867 9.684-5.717-.002-7.232-1.75-7.232-7.35v-6.65z" fill-rule="evenodd" clip-rule="evenodd" fill="#fff"/></svg>