<svg height="750" width="2500" xmlns="http://www.w3.org/2000/svg" viewBox="0 0 500 149.95"><g fill="#1546ac"><path d="M65.73 118.3c-1.38.07-3.85.17-4.84.17H44.97V31.49H60.9c.99 0 3.46.1 4.84.16 22.67 1.06 39.24 20.02 39.24 43.34-.01 23.29-16.57 42.25-39.25 43.31M0 149.92v.03h44.97l17.49-.03c2.95 0 10.25-.03 15.73-.23 47.35-.83 74-36.03 74-74.73s-26.65-73.9-74-74.73C72.71.03 65.41 0 62.46 0H0zM317.83 0h-41.96v82.49L215.9 0h-38.99v149.95h41.96V65.99l59.97 83.96h38.98V0zM452.75 54.74c0-11.28-5.67-20.85-16.88-22.8-2.34-.38-8.23-.45-9.16-.45h-27.9v46.48h27.9c.93 0 6.82-.03 9.16-.44 11.21-1.96 16.88-11.54 16.88-22.79M435.68 0c1.99 0 5.35.13 7.31.26C487.67 2.53 500 33.7 500 54.74c0 21.05-12.33 52.19-57.02 54.49-1.96.12-5.32.22-7.31.22H398.8v40.49h-45V0z"/></g></svg>