<svg xmlns="http://www.w3.org/2000/svg" width="2500" height="2500" viewBox="0 0 192.756 192.756"><g fill-rule="evenodd" clip-rule="evenodd"><path fill="#fff" d="M0 0h192.756v192.756H0V0z"/><path d="M142.217 130.015c-2.309-3.643 6.658-15.482 10.139-18.599 0-1.458-4.635.668-2.854-3.806-2.004.445-9.188 6.699-8.621 0-3.645 2.105-10.08 6.841-13.48 2.389-2.145.223-8.561 5.909-9.066.182-2.994 2.085-2.51 1.883-5.322 1.883-4.816 3.076-19.429 11.94-19.429-.264 3.198-11.678-4.877 5.343-7.165-1.214 0-4.938 16.354-27.08 19.268-24.995 0 1.275-8.521 9.512-9.958 11.232-.526.81-9.674 13.398-7.347 13.682 8.479-4.372 11.253-13.803 18.357-18.741 4.432.587-2.309 5.525-3.988 7.488-3.238 2.327-11.96 14.146-5.322 17.466 6.477 0 10.322-3.521 15.584-6.152 2.793-4.371 6.152-7.428 10.24-10.24 8.48-3.927 14.633-15.078 18.762-23.336 1.234-4.007 2.672-7.266.203-10.868-9.877-7.448-29.854 4.088-37.584 10.524-.789-.972 8.439-7.691 10.605-7.954 4.836-3.683 14.592-5.95 20.906-5.95 20.158 2.611-.729 29.347-7.691 36.309 0 .566 1.66 2.064-.525 1.214-1.275.122-8.744 9.492-7.873 11.01 7.59 0 7.975-8.338 12.75-12.264.244-1.275 8.398-8.44 9.877-4.473-.486 4.979-10.402 11.617-13.984 14.389 0 5.141 12.143-3.137 13.176-3.744.443-.566 6.152-7.488 6.152-7.549-4.555-1.355-3.301-2.489 1.072-1.295 2.166-.425 3.4-4.736 6.092-3.198 0 3.017-6.779 5.667 3.967 3.806.809-.811 5.121-4.837 4.918-1.539-3.178 2.692 7.67.122 9.41-1.801 4.25 2.651-10.381 4.392-12.365 4.635-2.004 1.336-10.969 8.399-10.564 11.293 4.189 0 10.383-7.104 13.459-9.755.869-.122 1.193.688 2.145.485 3.42-2.631 15.018-9.391 18.094-3.986 0 9.836-21.494 17.688-29.145 17.81-3.098 3.095-7.813 14.914-12.893 15.926z"/><path d="M157.477 128.537c-1.234-2.226 3.846-6.111 5.262-7.974-6.416.202-.203-3.825 3.379-1.781-.001 1.276-7.63 9.614-8.641 9.755z"/><path d="M143.43 127.586c.668-2.51 9.514-18.579 10.322-13.903-3.156 4.674-6.092 9.856-10.322 13.903z" fill="#fff"/><path d="M154.359 126.23c-2.186-2.408 2.227-4.595 2.227-6.598 5.281-4.755.102 5.829-2.227 6.598zM10.948 121.109c-7.104-3.764 4.008-10.604-.688-4.25-1.964 5.506 5.808 1.781 7.832.871-.142-3.36 7.873-14.754 9.978-17.467.041-.142.081-.304.142-.465-17.365.303 4.857-18.539 9.634-20.927 2.995-.587 7.266-6.436 11.333-6.881 6.699-4.452 30.378-10.18 18.964 6.133-5.141 5.565-11.05 11.232-16.859 16.069-.911.263-7.792 6.274-7.954 6.679-1.154.628-8.642 6.335-8.642 6.739-7.67 4.412-14.167 13.216-23.74 13.499z"/><path d="M19.711 116.657c-.364-2.186 9.472-18.296 14.025-18.296 2.833-1.639 6.578-2.327 9.593-4.047 11.09-3.339 2.064-1.68-1.761-.405-19.632 8.824-1.801-1.821-5.262-3.097-3.279 2.125-7.286 11.435-12.993 7.104-3.521-6.334 19.813-21.23 22.627-23.092 2.287-1.153 24.286-12.832 24.286-2.833-.668 1.519-6.233 10.059-7.751 10.059-3.441 3.826-7.894 7.752-11.9 11.091-.081.445-4.534 2.834-4.898 4.089-7.043 5.181-13.479 10.646-20.44 15.988-2.065.505-3.583 2.529-5.526 3.439z" fill="#fff"/><path d="M60.999 115.848c-5.728-2.186.243-4.654-7.023-1.963-2.348 0-2.489-.021-3.441-1.821-1.983 1.983-4.088 2.348-4.25-.668-2.084.465-7.104 6.739-6.881.263-1.235.283-5.181 6.031-6.132 2.834 0-3.319 9.694-15.827 12.143-11.739 0 4.635-1.356 3.603-4.048 8.501-3.198 7.104 11.091-10.768 10.706-5.728-3.926 4.635-6.476 9.289.304 2.509.223-.283 3.846-5.141 3.623-1.578-8.743 9.755 1.356 5.748 3.643.688 1.862-2.854 6.861-10.383 10.423-8.602 1.396 2.61-8.359 10.423-10.322 12.001-2.732 8.966 10.868-.202 13.6-3.339C74.922 103.745 88.3 84.964 93.4 88.141c0 4.25-14.734 16.616-18.721 20.279-3.947 6.72 11.172 2.976 11.172 3.542-4.574 1.417-11.273 4.089-13.256-1.862-3.845 2.671-6.922 5.161-11.596 5.748z"/><path d="M35.356 113.156c.891-3.259 5.282-7.914 8.298-9.654.971.972-7.003 8.46-8.298 9.654zM155.979 112.873c2.004-7.388 18.943-19.227 26.311-16.94 2.551 1.983-3.461 6.82-4.918 8.156-6.315 3.583-14.007 8.379-21.393 8.784zM154.359 112.063c-.709-.911.951-1.902 1.518-2.409 0 .649-.91 1.903-1.518 2.409zM142.357 109.371c-.201-4.088 6.74-8.439 9.311-11.01 4.756.142 7.689-.587 3.057 2.611-2.633 3.158-8.219 7.712-12.368 8.399zM61.808 106.68c.425-1.599 6.051-7.609 6.679-6.76-2.024 2.489-4.15 4.878-6.679 6.76zM129.404 106.396c-.85-2.125 9.027-11.9 11.76-11.638.344 2.592-9.432 10.343-11.76 11.638zM75.975 105.587c2.084-4.614 10.322-14.451 15.118-15.908 0 2.145-12.75 13.358-15.118 15.908z" fill="#fff"/><path d="M119.285 105.587c.283-.992 2.389-2.449.973-.506-.324.161-.649.323-.973.506z" fill="#f7f8f6"/><path d="M147.762 100.325c.141-.547 1.82-2.813 2.205-2.024-.729.668-1.457 1.336-2.205 2.024z" fill="#fff"/></g></svg>