<svg xmlns="http://www.w3.org/2000/svg" width="2500" height="2500" viewBox="0 0 192.756 192.756"><g fill-rule="evenodd" clip-rule="evenodd"><path fill="#fff" d="M0 0h192.756v192.756H0V0z"/><path d="M152.98 130.244h36.938l.004-67.77h-36.764l-.178 67.77z"/><path fill="#75ba94" d="M153.121 116.953l.037-.014 18.246-8.443v8.443l18.244-8.443-18.244-8.713v8.713l-18.246-8.713-.037 17.17z"/><path fill="#32358f" d="M2.834 62.474v67.809h150.324V62.474H2.834z"/><path d="M45.862 96.514c0-2.45-.272-9.258-8.987-9.258h-3.54v18.79h4.357c7.625-.001 8.17-5.991 8.17-9.532zm56.37 5.992h11.166c0 3.539 2.178 5.99 6.809 5.99 2.178 0 5.174-.816 5.174-2.994 0-2.725-1.906-3.541-8.441-5.447-7.354-1.635-13.617-4.902-13.617-11.166.271-8.442 7.08-12.527 16.066-12.527 9.533 0 16.068 4.084 16.068 12.527h-10.35c0-2.451-1.633-4.085-5.719-4.085-2.723 0-4.355.817-4.355 2.723 0 2.179 2.723 3.268 8.168 4.629 8.715 2.451 14.162 5.447 14.162 11.439 0 10.076-9.531 13.344-18.246 13.344-9.531 0-16.885-5.175-16.885-14.433zm-40.848-5.719c0-12.255 7.897-20.425 19.607-20.425 10.893 0 17.157 5.719 17.702 15.25h-11.71c-.545-3.541-2.451-5.719-6.264-5.719-5.446 0-6.808 5.447-6.808 10.894 0 5.174 1.362 10.621 6.808 10.621 4.085 0 5.719-2.451 6.264-4.902h11.982c-.816 7.352-6.536 14.434-17.701 14.434-13.072-.001-19.88-7.626-19.88-20.153zm-40.031 19.334V77.179h17.973c14.434 0 19.335 9.804 19.335 19.608 0 11.438-7.081 19.334-21.242 19.334H21.353z" fill="#fff"/></g></svg>