<svg xmlns="http://www.w3.org/2000/svg" width="2500" height="2500" viewBox="0 0 192.756 192.756"><g fill-rule="evenodd" clip-rule="evenodd"><path fill="#fff" d="M0 0h192.756v192.756H0V0z"/><path d="M11.37 125.855h2.088c1.008 0 1.44-.434 1.944-.938.433-.646.648-1.654.648-2.807 0-1.297-.288-2.305-.864-2.953-.36-.432-.792-.648-1.656-.648h-2.16v.434c.648 0 .72.07.72.791v4.896c0 .721-.072.791-.72.791v.434zm1.799-6.48c0-.361 0-.432.216-.432h.145c.36 0 .647.143.864.646.36.434.504 1.225.504 2.664 0 1.08-.144 1.801-.36 2.305s-.648.793-1.008.793h-.072c-.216 0-.288-.072-.288-.648v-5.328h-.001zM24.042 123.264c0-.793-.288-1.369-.648-1.873-.36-.432-.792-.648-1.44-.648s-1.224.217-1.584.576c-.432.432-.72 1.152-.72 1.945 0 .863.288 1.512.504 1.943.504.504 1.152.721 1.872.721.576 0 .937-.072 1.296-.361.288-.215.576-.504.72-.863l-.36-.145c-.216.217-.36.504-.576.648-.216.145-.648.215-.864.215-.504 0-.936-.143-1.152-.504-.288-.504-.36-1.008-.36-1.654h3.312zm-3.312-.362c0-.648.216-1.008.36-1.295.216-.361.504-.506.72-.506.432 0 .648.217.864.361.216.432.288.936.288 1.439H20.73v.001zM30.235 125.928l1.656-4.248c.144-.434.288-.434.576-.434v-.432h-1.512v.432c.504 0 .576.072.36.361l-1.08 3.023-1.008-2.881c-.216-.432-.216-.504.36-.504v-.432h-2.088v.432c.216 0 .36 0 .576.648l1.656 4.033h.504v.002zM39.811 123.91c-.072.434-.288.793-.432 1.08a1.122 1.122 0 0 1-.864.432c-.432 0-.792-.215-1.008-.719-.36-.648-.432-1.584-.432-2.664 0-1.369.145-2.305.504-2.736.288-.359.576-.504.936-.504s.576.145.648.287c.288.217.36.648.432 1.369l.504-.072c0-.432-.072-1.08-.216-1.656-.144-.072-.36-.217-.504-.217-.288-.07-.504-.143-.864-.143-.72 0-1.296.287-1.728.719-.576.576-.936 1.584-.936 3.025 0 1.439.288 2.447.72 3.096.504.432 1.008.721 1.728.721.648 0 1.152-.217 1.44-.648.288-.361.432-.721.504-1.297l-.432-.073zM46.292 125.928c.576 0 1.08-.217 1.512-.576.36-.361.648-1.008.648-2.018 0-.936-.288-1.584-.648-2.016-.36-.359-.936-.576-1.512-.576-.792 0-1.224.217-1.584.576-.504.432-.648 1.08-.648 2.016 0 1.01.144 1.656.648 2.018.359.359.936.576 1.584.576zm0-4.826c.216 0 .504.145.72.361.288.432.36.936.36 1.871 0 .793-.216 1.441-.36 1.729-.216.289-.504.504-.72.504-.432-.145-.648-.215-.792-.504-.288-.287-.36-.791-.36-1.729 0-.936.072-1.439.288-1.871.287-.217.431-.361.864-.361zM60.909 124.631c0 .721-.072.791-.72.791v.434h2.664v-.504c-.72 0-.864 0-.864-.721v-2.016h.288c.864 0 1.368-.217 1.728-.504.504-.361.648-.865.648-1.656 0-.721-.144-1.152-.648-1.512-.36-.289-.792-.434-1.512-.434h-2.304v.434c.72 0 .72.07.72.791v4.897zm1.44-5.617c.432 0 .648.072.864.289.288.287.36.721.36 1.152 0 .791-.072 1.008-.36 1.295-.288.289-.576.361-.936.361h-.288v-2.521c0-.504 0-.576.216-.576h.144zM68.829 124.703c0 .648 0 .719-.576.719v.434h2.088v-.434c-.432 0-.504 0-.504-.719v-2.592c.36-.432.72-.865 1.08-.865.216 0 .288.072.432.217.144.217.144.576.144 1.008v2.232c0 .648-.072.719-.432.719v.434h1.944v-.434c-.432 0-.504-.07-.504-.719v-2.305c0-.648-.072-1.008-.36-1.297-.144-.287-.432-.359-.792-.359-.576 0-1.008.359-1.44.865h-.072v-3.24l-.072-.072a6.06 6.06 0 0 1-1.512.432v.287c.576 0 .576.072.576.721v4.968zM78.045 118.727c-.288 0-.576.359-.576.721 0 .504.288.719.576.719.36 0 .648-.215.648-.719 0-.434-.288-.648-.648-.648v-.073zm.648 2.087l-.216-.072c-.504.289-1.08.359-1.8.504v.217c.937 0 .937.145.937.791v2.449c0 .648 0 .719-.937.719v.434h2.809v-.434c-.792 0-.792-.07-.792-.719v-3.889h-.001zM85.678 124.703c0 .648 0 .719-.937.719v.434h2.88v-.434c-.792 0-.936-.07-.936-.719v-6.408l-.072-.145c-.576.289-1.008.504-1.872.576v.287c.937 0 .937.072.937.721v4.969zM94.319 118.727c-.36 0-.576.359-.576.721 0 .504.216.719.576.719.288 0 .576-.215.576-.719 0-.434-.288-.648-.576-.648v-.073zm.576 2.087l-.072-.072c-.648.289-1.08.359-1.872.504v.217c.936 0 .936.145.936.791v2.449c0 .648 0 .719-.936.719v.434h2.88v-.434c-.864 0-.936-.07-.936-.719v-3.889zM102.455 125.352c.287.287.576.576 1.08.576.576 0 1.08-.289 1.297-.648.359-.504.576-1.152.576-2.016 0-.938-.289-1.514-.576-1.945-.361-.359-.721-.576-1.152-.576-.576 0-.938.217-1.297.648v-.576l-.072-.072c-.504.289-1.08.359-1.512.504v.217c.576 0 .648.145.648.791v5.041c0 .576-.072.648-.648.648v.359h2.232v-.359c-.576 0-.576 0-.576-.648v-1.944zm0-3.385c.217-.359.576-.721.936-.721.289 0 .434.145.648.434.145.359.289.791.289 1.584 0 .791-.145 1.367-.289 1.727-.215.289-.504.432-.648.432-.359 0-.648-.215-.936-.646v-2.81zM110.592 125.352c.287.287.648.576 1.08.576.648 0 1.008-.289 1.297-.648.359-.504.574-1.152.574-2.016 0-.938-.215-1.514-.574-1.945-.289-.359-.721-.576-1.225-.576s-.865.217-1.152.648l-.145-.576-.072-.072c-.432.289-1.008.359-1.367.504v.217c.576 0 .576.145.576.791v5.041c0 .576-.145.648-.576.648v.359h2.088v-.359c-.432 0-.504 0-.504-.648v-1.944zm0-3.385c.287-.359.504-.721.863-.721.289 0 .576.145.648.434.217.359.287.791.287 1.584 0 .791-.07 1.367-.287 1.727-.072.289-.359.432-.648.432-.359 0-.576-.215-.863-.646v-2.81zM118.801 118.727c-.434 0-.648.359-.648.721 0 .504.215.719.648.719.215 0 .504-.215.504-.719 0-.434-.289-.648-.504-.648v-.073zm.504 2.087l-.072-.072c-.648.289-1.225.359-1.943.504v.217c1.008 0 1.008.145 1.008.791v2.449c0 .648-.072.719-1.008.719v.434h2.951v-.434c-.936 0-.936-.07-.936-.719v-3.889zM129.457 122.254c0-.574-.072-.936-.359-1.223-.217-.217-.576-.289-.938-.289-.576 0-1.008.359-1.367.865l-.072-.793-.145-.072c-.432.289-.863.359-1.367.504v.217c.504 0 .576.145.576.791v2.449c0 .648 0 .719-.576.719v.434h2.016v-.434c-.432 0-.432 0-.432-.719v-2.592c.359-.504.719-.865 1.008-.865.217 0 .359.072.432.145.217.217.217.576.217.936v2.377c0 .648 0 .719-.432.719v.434h1.871v-.434c-.359 0-.432-.07-.432-.719v-2.45zM137.809 123.264c0-.793-.143-1.369-.504-1.873-.359-.432-.936-.648-1.584-.648s-1.08.217-1.439.576c-.504.432-.793 1.152-.793 1.945 0 .863.217 1.512.576 1.943.432.504 1.08.721 1.873.721.504 0 .863-.072 1.225-.361.287-.215.574-.504.646-.863l-.215-.145c-.217.217-.432.504-.576.648a2.288 2.288 0 0 1-1.008.215c-.504 0-.865-.143-1.152-.504a5.73 5.73 0 0 1-.217-1.654h3.168zm-3.168-.362c0-.648.072-1.008.359-1.295.145-.361.434-.506.721-.506.361 0 .648.217.721.361.287.432.359.936.359 1.439h-2.16v.001zM145.658 122.039c-.145-.432-.145-.721-.289-1.008-.432-.217-.863-.289-1.439-.289-.721 0-1.297.217-1.656.359-.359.217-.504.578-.504.938 0 .287.145.576.287.863.361.217.865.432 1.297.648.648.217 1.152.359 1.297.504.215.217.287.289.287.576 0 .145-.217.432-.359.648-.217.072-.576.287-1.008.287-.865 0-1.369-.287-1.656-1.295l-.361.072c.072.359.145.719.217 1.223.504.145 1.08.361 1.871.361.721 0 1.297-.217 1.729-.506.361-.215.576-.646.576-1.078 0-.361-.215-.648-.432-.938-.217-.143-.504-.359-.936-.504-.289-.143-.938-.287-1.297-.504-.359-.072-.576-.359-.576-.504 0-.287.217-.504.361-.576.287-.072.574-.217.863-.217.791 0 1.225.217 1.367 1.01l.361-.07zM159.051 124.631c0 .721-.145.791-1.152.791v.434h3.24v-.504c-1.008 0-1.08 0-1.08-.721v-4.969c0-.648.072-.719 1.08-.719v-.434h-3.24v.434c1.008 0 1.152.07 1.152.719v4.969zM170.066 122.254c0-.574-.07-.936-.359-1.223-.145-.217-.432-.289-.936-.289s-1.008.359-1.297.865h-.072v-.793l-.143-.072c-.504.289-.938.359-1.441.504v.217c.576 0 .648.145.648.791v2.449c0 .648-.072.719-.648.719v.434h2.088v-.434c-.432 0-.432 0-.432-.719v-2.592c.289-.504.648-.865 1.08-.865.145 0 .217.072.361.145.143.217.143.576.143.936v2.377c0 .648 0 .719-.432.719v.434h2.016v-.434c-.432 0-.432-.07-.432-.719l-.144-2.45zM178.275 124.631c-.145.287-.359.432-.648.648-.143.072-.504.143-.791.143-.504 0-.936-.143-1.225-.646-.215-.361-.359-.793-.359-1.512 0-.793.145-1.225.432-1.584.287-.361.648-.578 1.008-.578.504 0 .648.217.865.506.07.143.143.359.287.432.072.072.145.215.287.215.217-.143.361-.215.361-.504 0-.287-.217-.432-.361-.648-.432-.287-.863-.359-1.439-.359-.721 0-1.367.217-1.801.721-.504.432-.646.936-.646 1.801 0 .791.143 1.512.719 2.016.361.359.938.648 1.656.648.504 0 .938-.217 1.225-.361.359-.215.648-.504.793-.791l-.363-.147zM183.604 124.703c-.359 0-.646.287-.646.576 0 .359.287.648.646.648.289 0 .576-.289.576-.648 0-.289-.287-.576-.576-.576z"/><path d="M135.938 95.901c-1.08.216-2.16.432-3.168.72.072-.288.287-.648.432-1.008 1.225-.36 2.305-.576 3.385-.864l-.649 1.152zm-13.321 2.16c-1.514.217-3.17.361-4.754.504 1.656-.287 3.312-.576 4.754-.863v.359zm8.065-27.578c-25.922-4.752-59.621-5.184-83.31-.288-33.338 6.913-59.188 29.162-1.512 37.947 26.858 4.031 69.484 2.447 92.887-3.602 19.439-5.039 31.465-10.944 31.465-10.944l-8.064-1.872 22.105-1.224-14.328 14.978 2.664-5.977s-20.738 6.047-31.609 8.135c-33.699 6.482-68.117 6.121-95.263 2.594-38.738-5.041-59.907-28.083 1.008-42.483 19.369-4.464 58.972-4.464 85.108.432 32.764 6.048 33.627 17.209 15.986 24.193l.791-1.44c19.296-8.208 3.24-16.633-17.928-20.449z" fill="#cf4037"/><path d="M180.867 113.398v-1.945h-.719v-.287h1.727v.287h-.719v1.945h-.289zM182.164 113.398v-2.232h.432l.576 1.584c0 .145 0 .289.072.359 0-.07 0-.215.145-.359l.504-1.584h.359v2.232h-.287v-1.873l-.576 1.873h-.289l-.648-1.873v1.873h-.288z"/><path d="M150.193 87.117l-3.023 5.544c-1.152 2.017-2.16 3.529-2.881 4.392-.863 1.008-1.943 1.873-3.311 2.664a14.064 14.064 0 0 1-4.537 1.873c-1.729.359-3.457.576-5.328.576-2.088 0-3.889-.217-5.041-.504-1.295-.361-2.232-.793-2.592-1.514-.504-.646-.648-1.512-.504-2.447.217-1.008.863-2.376 1.871-4.32l3.24-5.76c1.152-2.088 2.377-3.744 3.674-4.896 1.295-1.224 2.879-2.16 4.967-2.88 1.945-.648 4.25-1.008 6.842-1.008 2.088 0 3.887.216 5.111.648 1.297.432 2.16 1.08 2.52 1.8.434.792.648 1.512.434 2.232-.073.863-.504 2.016-1.442 3.6zm-8.568-1.657c.648-1.224.938-1.944.938-2.232 0-.216-.289-.432-.865-.432-.648 0-1.08.216-1.367.432-.361.288-.938 1.008-1.584 2.232l-5.545 10.152c-.648 1.081-.863 1.729-.863 2.088 0 .287.215.504.791.504.648 0 1.152-.217 1.367-.504.361-.287.865-.936 1.441-1.944l5.687-10.296zM36.571 74.228h7.489c4.752 0 7.92.216 9.504.576 1.44.216 2.448.792 2.952 1.512.504.648.648 1.512.36 2.448-.288.792-1.152 2.52-2.592 5.256l-5.329 9.577c-1.296 2.448-2.448 4.104-3.168 4.968a10.481 10.481 0 0 1-2.736 1.945c-1.152.432-2.304.791-3.6.863-1.224.289-3.024.432-5.472.432H21.45l15.121-27.577zm7.417 4.68L33.979 97.053c1.44 0 2.448-.287 2.952-.648.576-.431 1.296-1.511 2.304-3.383l5.904-10.657c.72-1.224 1.152-2.088 1.224-2.448.072-.288 0-.504-.36-.72-.288-.145-.936-.289-2.015-.289zM75.453 90.933H63.141l-2.808 4.825c-.504 1.008-.72 1.657-.72 1.944.072.287.36.504.936.504.72 0 1.368-.217 1.8-.648.504-.359 1.08-1.152 1.584-2.231l1.656-3.024h9.073l-.936 1.728c-.72 1.368-1.512 2.375-2.16 3.168-.648.791-1.656 1.512-3.024 2.447-1.368.865-2.808 1.514-4.392 1.873-1.656.432-3.528.648-5.544.648s-3.672-.217-5.041-.648c-1.296-.359-2.16-1.008-2.592-1.656-.504-.791-.648-1.584-.504-2.52.144-.793.648-2.089 1.584-3.745l3.672-6.552c1.008-2.016 2.304-3.601 3.601-4.68 1.368-1.152 3.168-2.088 5.184-2.592 1.944-.648 4.032-.936 6.264-.936 2.664 0 4.68.36 5.977 1.08 1.368.792 2.016 1.656 2.16 2.88 0 1.224-.576 2.952-1.8 5.04l-1.658 3.095zm-7.56-3.745l.936-1.656c.648-1.081 1.008-1.944 1.008-2.161 0-.36-.288-.576-.792-.576-.648 0-1.224.216-1.512.432-.288.288-.792 1.152-1.584 2.305l-.792 1.656h2.736zM104.76 79.196l-16.85 22.609H75.381l7.632-22.609h8.569l-6.408 16.489c.792-1.224 2.808-4.104 5.976-8.856 1.728-2.592 3.384-5.112 5.041-7.633h8.569zM125.785 86.18h-9.938l2.664-4.68c.721-1.368 1.08-2.304 1.08-2.664 0-.288-.359-.432-1.08-.432-.863 0-1.512.144-1.943.648-.361.36-1.008 1.224-1.729 2.665l-7.129 12.745c-.719 1.296-1.08 2.16-1.08 2.592 0 .361.361.648 1.152.648.793 0 1.297-.287 1.801-.648.432-.432 1.08-1.368 1.871-2.808l1.873-3.528h10.08l-.648 1.08c-1.584 2.88-2.951 4.896-4.176 6.049s-3.023 2.303-5.4 3.096c-2.447.936-5.039 1.367-7.848 1.367-2.953 0-5.113-.359-6.553-1.08-1.512-.863-2.161-1.871-2.017-3.168.072-1.367.937-3.383 2.376-6.048l4.393-7.993c1.152-2.088 2.088-3.528 2.809-4.536.719-.936 1.801-1.944 3.24-2.88 1.439-.792 3.096-1.584 5.039-2.088 2.018-.576 4.033-.72 6.193-.72 2.951 0 5.111.36 6.625 1.152 1.367.72 2.088 1.872 2.016 3.024-.072 1.224-.865 3.096-2.232 5.616l-1.439 2.591z" fill="#2d509f"/></g></svg>