<svg xmlns="http://www.w3.org/2000/svg" width="2500" height="2500" viewBox="0 0 192.756 192.756"><g fill-rule="evenodd" clip-rule="evenodd"><path fill="#fff" d="M0 0h192.756v192.756H0V0z"/><path d="M177.855 71.913l-62.576-34.849v18.949l29.385 17.438-23.092 13.262-15.133 8.69-37.442 21.502V74.074l31.956 18.203V74.836L68.998 56.427v-27.88l31.956 18.965V29.086L53.815 2.834V47.68L14.901 25.263v140.731l38.915-22.467v46.395l15.182-8.73v-46.43l52.909-30.547 23.861 13.59-62.812 36.732v18.629c18.024-10.365 47.19-27.137 94.431-54.299l-40.475-23.316 40.943-23.638zM29.695 51.688l24.121 13.74v60.197l-24.121 13.852V51.688z" fill="#459b59"/></g></svg>