<svg xmlns="http://www.w3.org/2000/svg" width="2500" height="2500" viewBox="0 0 192.756 192.756"><path fill-rule="evenodd" clip-rule="evenodd" fill="#fff" d="M0 0h192.756v192.756H0V0z"/><path d="M96.378 8.504c48.399 0 87.874 39.474 87.874 87.874s-39.475 87.874-87.874 87.874c-48.399 0-87.874-39.475-87.874-87.874S47.979 8.504 96.378 8.504z" fill-rule="evenodd" clip-rule="evenodd"/><path d="M96.529 26.77c38.19 0 69.336 31.148 69.336 69.337s-31.146 69.338-69.336 69.338-69.338-31.148-69.338-69.338S58.338 26.77 96.529 26.77z" fill-rule="evenodd" clip-rule="evenodd" fill="#e09139"/><path d="M96.283 33.613c17.29 0 32.985 7.05 44.356 18.421 11.371 11.371 18.42 27.066 18.422 44.354v.002c0 17.289-7.051 32.984-18.422 44.355s-27.066 18.422-44.355 18.422h-.002c-17.29 0-32.984-7.051-44.355-18.422s-18.421-27.064-18.421-44.354v-.001c0-17.29 7.05-32.985 18.421-44.356 11.372-11.371 27.065-18.421 44.355-18.421h.001zm0 5.075h-.002c-15.888 0-30.313 6.481-40.767 16.934C45.061 66.076 38.58 80.5 38.58 96.39v.002c0 15.888 6.481 30.313 16.935 40.767 10.454 10.453 24.879 16.934 40.768 16.934h.002c15.888 0 30.314-6.48 40.767-16.934s16.934-24.879 16.934-40.768v-.002c0-15.888-6.48-30.313-16.934-40.766-10.454-10.454-24.88-16.935-40.769-16.935z"/><path d="M64.162 59.859c13.676-4.011 29.43-3.762 38.268.299v74.434l-18.317 17.637 6.023-17.338V70.213H70.117c1.191-5.245-.795-8.298-5.955-10.354z" fill-rule="evenodd" clip-rule="evenodd"/><path fill-rule="evenodd" clip-rule="evenodd" d="M76.072 89.454h42.879v12.853H76.072V89.454z"/><path fill-rule="evenodd" clip-rule="evenodd" d="M110.912 68.827h12.207v53.984h-12.207V68.827zM123.119 80.135l8.824-11.308h15.006l-14.301 19.562c8.371 5.253 11.164 8.646 13.062 21.701v12.721h-11.65v-14.137c-1.178-4.256-3.531-7.328-7.062-9.217h-3.879V80.135zM48.218 69.231h12.59v53.58h-12.59v-53.58z"/><path d="M60.808 69.231c13.043 1.776 21.72 11.474 21.456 26.167-.932 15.256-8.798 25.35-21.456 27.413v-13.35c10.587-3.33 11.3-26.356 0-27.414V69.231z" fill-rule="evenodd" clip-rule="evenodd"/></svg>