<svg enable-background="new 0 0 2493.2 902.7" viewBox="0 0 2493.2 902.7" xmlns="http://www.w3.org/2000/svg"><g fill="#090a4a"><path d="m402.2 2c108.2-7.5 219.8 5.3 319 50.8 88.5 40 165.3 108.5 209.1 195.8 43.5 84.9 54.8 184.7 36 277.8-17.8 90.1-65.6 174.1-135.1 234.3-77.1 67.8-176.2 105.6-276.1 123.7-90.2 16.7-182.3 19.3-273.8 17.8-69.7-1-139.5-1-209-5.5-7.4-.9-16.7-.6-21.6-7.1-6-7.9-.1-19 8.2-22.4 42.2-24 75.9-60.8 100.8-102.1 27.9-45 46.9-94.5 66.7-143.4 33.2-83.9 63.7-168.9 96.2-253 24.3-62.1 51.4-124.4 93.5-176.8 39.9-50.1 99.3-84.8 162.7-93.9 8-.4 17.5-2.7 24.4 2.3 7.3 9.1-5.2 16-11.1 21.4-60.1 45.6-94.8 115.2-123 183.3-52.7 130.6-93.1 266.2-152.7 393.9-24.1 48.7-52.5 96.4-92.4 133.9-6.7 6.6-15.2 11.8-20 20.2-2.6 8.7 7.8 12.7 14.8 12.6 54.3 3.4 108.9 3.8 163.2 2.8 90.9-3.2 183.3-19.6 264.5-62.2 80.3-40.9 144.8-111.5 177.8-195.4 35.1-87.6 41-185.4 23.1-277.7-15-78.3-53.3-153.7-114.6-205.8-75.4-64.7-176.7-90-274.2-92.8-84.8-.7-171.7 12.9-247.3 53-72.1 37.8-129.9 103.7-153.7 182-13.2 47.2-15.2 98.1-1.7 145.4 4.3 11.8-14.7 13.7-19.8 5.6-28.1-37.5-37.7-86.3-35.9-132.5 2.1-57.5 32-110.3 71.1-151 64.8-67.7 154.6-106.2 245.5-123.7 28.1-5.8 56.8-9.2 85.4-11.3zm894.3 318.7c55.2-7.7 115.9-3.6 163.1 28.9 41.1 27.9 64.1 76.1 70.2 124.5 8.1 65.2-5 131.7-30.8 191.7-31.3 71.7-82.6 135.2-147.8 178.8-62.2 41.7-138.8 63.3-213.7 54.8-42.4-4.4-84.4-22.5-112.9-55-37.8-42.2-48.5-101.7-45.3-156.7 5.9-95.9 49.1-187.8 114.5-257.5 53.4-56.9 124.9-98.6 202.7-109.5m19.7 29.4c-32.9 7.8-61.9 26.9-86.8 49.2-39.1 35.5-69.2 79.9-92.4 127.1-37.6 78.7-56.8 168-44.5 255 5.3 32.8 19.1 69.7 52 83.5 37.2 15.4 79.4 1.6 111.4-19.6 53.3-36.2 90.8-91.1 119-148.2 36.1-76.2 57.8-161.4 49.5-246-3.8-30.6-11.4-63.6-34.7-85.5-19.2-18.3-48.4-21.5-73.5-15.5zm945.8-26.4c37.4-7.6 76.5-8.3 113.9 0 26.2 6.1 52.3 19.4 66.8 42.9 19 30.2 16.5 69.7.4 100.5-24 46.6-67.2 79.8-112.4 104.3-78.5 41.9-167.1 60.5-255 69.1-10.7 35.6-13.8 73.2-13.3 110.3 1 28.6 7.9 58.9 27.8 80.4 16.8 18.6 42.4 27.1 67.1 26.5 49 .6 96.3-19.2 134.6-48.7 31.6-23.7 58.1-53.5 82-84.6 9.5-10.6 29.6 1.8 20.7 14.9-49.6 87.9-141.6 154.3-243.7 161.7-49 3.4-102.5-3.3-141.9-35-34-26.6-51.1-69.6-54.9-111.7-6-65.3 9.6-131 36.2-190.4 25.1-54.8 60.2-105.1 103.8-146.7 46.7-44.8 104.3-79.7 167.9-93.5m9 31.7c-39.2 16.4-70.4 46.9-96.9 79.4-41 52.3-70.3 113.2-89.4 176.6 45.4-4.8 90.4-15.7 132.4-33.6 44.1-18.9 86-45.7 116.5-83.2 21.9-27 36.8-61.6 33.2-96.9-1.7-17.9-9.5-37.4-26.8-45.3-21.9-10.4-47.4-5.5-69 3zm-322.6-21c12.4-11.1 30.5-18.1 46.6-11 13.4 5.3 18.3 21.3 16.5 34.5-4.8 50.4-22.9 98.4-42.5 144.7-48.2 113.3-121.3 214.7-206.4 303.2-27.3 27.3-55.9 53.8-88.7 74.5-16 9.8-33.4 18.8-52.6 19.1-10.6 0-22.7-4-27.3-14.4-8.1-18-5.9-38.2-5.9-57.4 7-120.6 22.5-242 8.3-362.7-4.9-35.7-11.6-73-32.4-103.3-5.2-8.3-13.8-13.4-20.1-20.6-1.2-6 6.3-8.1 10.7-9.2 36.7-6.7 78 1.1 105.4 27.7 25.4 23.4 36 58.1 40.3 91.4 12.7 100.7 5.7 202.7-2.8 303.5-.8 14.9-4.5 31.2 3.4 44.9 18-.3 31.5-13.4 43.5-25.2 79-82.2 139.9-181.7 178-289.1 13.4-38.3 23.7-77.9 28-118.4 1.1-10.7.7-21.7-2-32.2zm483.8 472.3c26.1-7.5 56.1 10.9 60 38.1 6.2 27.6-16.8 56.5-45 57-27.9 2.8-53.4-22.9-51.4-50.7.9-20.6 16.2-39.7 36.4-44.4m3.4 6.6c-16.2 3.5-29.3 17.8-31.8 34.1-4.3 23.4 16.2 47.4 40 47.3 23.1 1.2 43.7-20.6 41.8-43.5-.5-24.3-26.4-44.2-50-37.9z"/><path d="m2425.5 823.5c12.5.8 29.3-3.8 37.8 8.5 5.3 10.4-2.1 21.5-12.4 24.5 5.6 8.4 11.1 16.8 16.3 25.4-18.9 4.5-15.7-27-33.2-25.7-.1 8.5-.1 17.1-.1 25.6-2.1-.1-6.4-.2-8.5-.2.2-19.3.2-38.7.1-58.1m8.4 6.5c0 6.8.1 13.7.2 20.5 8.5.4 23.8.4 22.4-12-1.2-10.7-15-7.7-22.6-8.5z"/></g></svg>