<svg xmlns="http://www.w3.org/2000/svg" width="2500" height="2500" viewBox="0 0 192.756 192.756"><g fill-rule="evenodd" clip-rule="evenodd"><path fill="#fff" d="M0 0h192.756v192.756H0V0z"/><path d="M96.378 189.922c51.661 0 93.544-41.883 93.544-93.544S148.039 2.835 96.378 2.835c-51.662 0-93.543 41.882-93.543 93.543s41.881 93.544 93.543 93.544z" fill="#edda72"/><path d="M10.592 96.378c0-47.302 38.483-85.786 85.786-85.786 47.304 0 85.786 38.483 85.786 85.786 0 47.302-38.482 85.786-85.786 85.786-47.302 0-85.786-38.484-85.786-85.786z" fill="#77a579"/><path d="M49.028 38.674c.068-1.432.121-2.929.158-4.493.037-1.563.056-3.196.056-4.897v-1.708h.301c1.143 1.321 2.337 2.65 3.584 3.989s2.665 2.809 4.254 4.41a40.536 40.536 0 0 0 .036-1.403c0-1.283-.012-2.503-.036-3.66a98.58 98.58 0 0 0-.107-3.122c.143.028.25.046.321.056a1.265 1.265 0 0 0 .4 0c.074-.01.175-.028.301-.056-.044 1.215-.08 2.442-.105 3.68a188.277 188.277 0 0 0-.029 5.3l.025 2.118h-.203a51.455 51.455 0 0 0-1.729-2.025 120.598 120.598 0 0 0-2.344-2.53l-3.856-4.061a70.29 70.29 0 0 0-.053 2.083c0 .648.012 1.476.036 2.483.023 1.008.06 2.287.107 3.836a2.515 2.515 0 0 0-.555-.072c-.086 0-.173.007-.261.02-.089.014-.189.031-.301.052zM63.101 37.023c-.741-.863-1.111-2.104-1.111-3.721 0-1.638.372-2.903 1.115-3.795.743-.892 1.805-1.338 3.183-1.338 1.398 0 2.462.43 3.189 1.291.728.861 1.092 2.121 1.092 3.779 0 1.628-.37 2.881-1.111 3.76s-1.798 1.318-3.17 1.318c-1.384 0-2.446-.431-3.187-1.294zm7.447.327c1.076-1.041 1.614-2.407 1.614-4.099 0-1.744-.526-3.125-1.579-4.146-1.053-1.02-2.483-1.53-4.292-1.53-1.788 0-3.217.515-4.288 1.546-1.071 1.03-1.606 2.407-1.606 4.13 0 1.749.526 3.13 1.579 4.142 1.052 1.013 2.491 1.519 4.315 1.519 1.762 0 3.181-.52 4.257-1.562zM83.785 38.192c-.75.22-1.483.386-2.201.5-.718.114-1.402.172-2.051.172-1.831 0-3.28-.494-4.347-1.482-1.066-.988-1.599-2.322-1.599-4.002 0-1.768.573-3.182 1.721-4.24 1.147-1.058 2.685-1.587 4.61-1.587a8.55 8.55 0 0 1 2.147.256 6.26 6.26 0 0 1 1.789.76 11.01 11.01 0 0 0-.395 1.408c-.426-.615-.951-1.074-1.573-1.376-.623-.302-1.366-.453-2.228-.453-1.345 0-2.428.463-3.249 1.389-.82.926-1.23 2.16-1.23 3.701 0 1.519.426 2.738 1.278 3.656.852.919 1.98 1.378 3.385 1.378.45 0 .887-.044 1.309-.133a6.401 6.401 0 0 0 1.271-.413c0-.099.009-.332.027-.698.018-.367.026-.657.026-.871 0-.25-.006-.524-.018-.823-.012-.3-.03-.706-.053-1.222.185.027.323.044.416.052.092.008.181.014.266.02a6.936 6.936 0 0 0 .674-.072c-.01.567-.021 1.06-.032 1.479-.011.419-.016.763-.016 1.034 0 .312.005.597.016.854s.029.495.057.713zM88.045 37.023c-.742-.863-1.111-2.104-1.111-3.721 0-1.638.371-2.903 1.115-3.795s1.804-1.338 3.183-1.338c1.398 0 2.461.43 3.189 1.291.728.861 1.092 2.121 1.092 3.779 0 1.628-.371 2.881-1.111 3.76-.741.879-1.798 1.318-3.17 1.318-1.384 0-2.446-.431-3.187-1.294zm7.447.327c1.076-1.041 1.614-2.407 1.614-4.099 0-1.744-.527-3.125-1.579-4.146-1.052-1.02-2.483-1.53-4.292-1.53-1.788 0-3.217.515-4.287 1.546-1.071 1.03-1.606 2.407-1.606 4.13 0 1.749.526 3.13 1.579 4.142 1.052 1.013 2.491 1.519 4.315 1.519 1.761 0 3.18-.52 4.256-1.562zM98.436 38.674c.197-.879.422-2.156.67-3.828.25-1.673.576-4.105.977-7.294h.264a429.027 429.027 0 0 0 2.482 4.897 160.743 160.743 0 0 0 2.012 3.788 289.94 289.94 0 0 0 2.197-3.971c.77-1.414 1.613-2.985 2.529-4.713h.211c.145 1.405.314 2.969.51 4.691.195 1.723.443 3.866.744 6.432a4.616 4.616 0 0 0-.371-.054 3.356 3.356 0 0 0-.686 0 4.75 4.75 0 0 0-.371.054 158.83 158.83 0 0 0-.424-4.932c-.148-1.415-.285-2.429-.41-3.043a85.32 85.32 0 0 0-2.57 4.603c-.725 1.411-1.232 2.527-1.523 3.348h-.219a10.054 10.054 0 0 0-.527-1.384 29.946 29.946 0 0 0-.994-1.943l-2.486-4.608a104.758 104.758 0 0 0-.57 4.635c-.135 1.374-.209 2.481-.219 3.324-.104-.024-.205-.042-.301-.054a2.296 2.296 0 0 0-.58 0c-.107.01-.22.028-.345.052zM113.369 38.674c.051-.671.086-1.454.109-2.352.021-.896.033-1.971.033-3.224 0-1.154-.012-2.163-.033-3.025a49.547 49.547 0 0 0-.109-2.308c.225.008.467.014.73.018s.676.005 1.238.005a283.008 283.008 0 0 0 3.664-.023c0 .046-.002.122-.008.226a4.303 4.303 0 0 0-.008.241c0 .047.002.123.008.227.006.104.008.182.008.233a38.57 38.57 0 0 0-1.857-.124 43.743 43.743 0 0 0-1.928-.042h-.383c-.004.625-.01 1.221-.012 1.788s-.002 1.105-.002 1.615v.637h.279c.484 0 1.02-.011 1.605-.033.584-.022 1.209-.051 1.869-.085-.01.113-.02.206-.023.278a2.505 2.505 0 0 0 0 .394c.004.067.014.151.023.255a6.343 6.343 0 0 0-.957-.111 44.269 44.269 0 0 0-2.064-.032h-.732v.777c0 .906 0 1.642.002 2.208.002.566.008 1.124.012 1.672h.398c.459 0 1.02-.016 1.682-.049.662-.033 1.383-.08 2.16-.141 0 .053-.004.133-.01.242s-.008.191-.008.25c0 .053.002.133.008.242s.01.189.01.242a66.147 66.147 0 0 0-1.014-.018 218.424 218.424 0 0 0-4.69.017zM123.559 38.674a293.565 293.565 0 0 0 .095-7.489v-2.66h-.432c-.635 0-1.197.017-1.689.049s-.91.08-1.254.141c.01-.105.018-.191.023-.26a2.64 2.64 0 0 0 0-.396l-.023-.294a138.44 138.44 0 0 0 3.822.047c.682 0 1.377-.005 2.082-.014l2.176-.033c-.01.047-.018.103-.023.167a4.87 4.87 0 0 0 0 .598c.006.066.014.129.023.187a11.189 11.189 0 0 0-1.232-.145c-.459-.031-.99-.046-1.594-.046l-.469.008c-.027.452-.047.962-.061 1.531-.012.568-.02 1.248-.02 2.037 0 1.012.008 2.069.025 3.17a283.5 283.5 0 0 0 .07 3.403 5.379 5.379 0 0 0-.736-.048 8.072 8.072 0 0 0-.783.047zM130.076 38.674c.068-1.432.121-2.929.158-4.493.037-1.563.057-3.196.057-4.897v-1.708h.301c1.143 1.321 2.338 2.65 3.584 3.989s2.666 2.809 4.254 4.41a40.536 40.536 0 0 0 .037-1.403c0-1.283-.012-2.503-.037-3.66a105.454 105.454 0 0 0-.105-3.122c.143.028.248.046.32.056a1.262 1.262 0 0 0 .4 0c.074-.01.174-.028.301-.056-.045 1.215-.08 2.442-.105 3.68a188.277 188.277 0 0 0-.029 5.3l.025 2.118h-.203a49.01 49.01 0 0 0-1.729-2.025 115.422 115.422 0 0 0-2.344-2.53l-3.857-4.061c-.004.119-.016.422-.029.91-.016.487-.023.878-.023 1.173 0 .648.012 1.476.035 2.483.025 1.008.061 2.287.107 3.836a2.458 2.458 0 0 0-.555-.072c-.086 0-.172.007-.26.02-.09.014-.19.031-.303.052zM142.256 38.674c.033-.52.057-1.099.072-1.736.014-.637.021-1.432.021-2.384V33.23c0-1.699-.008-2.904-.021-3.613a47.186 47.186 0 0 0-.072-1.852c.107.023.219.042.334.053a4.039 4.039 0 0 0 1.139-.053c-.037.359-.062.778-.076 1.257a67.79 67.79 0 0 0-.02 1.881v4.959c0 .844.006 1.451.02 1.823s.039.702.076.988a3.277 3.277 0 0 0-.725-.072c-.141 0-.271.006-.395.018s-.242.031-.353.055zM78.597 57.497c.047-.598.083-1.259.107-1.984.023-.725.036-1.639.036-2.741 0-1.414-.012-2.626-.036-3.637a57.08 57.08 0 0 0-.107-2.546c.106.023.217.042.334.053a4.531 4.531 0 0 0 .792 0c.13-.012.254-.03.371-.053-.029.344-.052.732-.069 1.165-.017.434-.026.911-.026 1.432v2.44c.011.021.021.034.031.039a.138.138 0 0 0 .055.008c.223 0 .788-.459 1.695-1.378.907-.919 2.004-2.154 3.29-3.706a3.042 3.042 0 0 0 .701.071 3.286 3.286 0 0 0 .716-.071c-.41.313-1.207 1.066-2.391 2.261l-.288.29-2.344 2.315c.765.966 2.151 2.588 4.159 4.867.453.514.796.906 1.03 1.176a7.961 7.961 0 0 0-.494-.053 5.831 5.831 0 0 0-.888 0 7 7 0 0 0-.458.053 80.433 80.433 0 0 0-1.036-1.399 39.217 39.217 0 0 0-.833-1.065l-1.83-2.269c-.239-.286-.441-.486-.608-.6a.994.994 0 0 0-.507-.187l-.007 1.902c0 .773.007 1.443.023 2.012.015.568.04 1.104.071 1.606a5.145 5.145 0 0 0-.398-.053 3.323 3.323 0 0 0-.708 0c-.118.01-.245.028-.383.052zM88.012 57.497c.026-.936.049-1.853.067-2.752.019-.899.028-1.796.028-2.69 0-.993-.008-1.933-.024-2.822s-.042-1.771-.079-2.644a3.78 3.78 0 0 0 .764.071c.137 0 .267-.006.39-.018.123-.012.24-.03.351-.053-.045 1.039-.08 2.037-.104 2.993-.025.956-.038 1.848-.038 2.674 0 .857.006 1.65.021 2.377.014.728.038 1.432.071 2.112.114.005.242.009.384.012.143.002.374.004.696.004.694 0 1.311-.019 1.85-.058s1.005-.099 1.398-.18c0 .046-.002.124-.007.23a5.82 5.82 0 0 0-.008.253c0 .047.002.125.008.233.005.109.005.195 0 .257-.941-.016-1.718-.027-2.331-.035-.613-.008-1.068-.012-1.364-.012-.38 0-.742.004-1.087.012-.346.008-.674.02-.986.036zM95.072 46.596a3.11 3.11 0 0 0 .71.072 3.422 3.422 0 0 0 .764-.079c-.024 1.362-.042 2.58-.054 3.651a238.416 238.416 0 0 0-.018 2.162c0 .983.061 1.726.183 2.228s.326.924.611 1.268c.291.354.66.623 1.105.808.447.185.951.277 1.512.277.555 0 1.062-.097 1.52-.289a2.772 2.772 0 0 0 1.113-.828c.285-.358.486-.816.602-1.373.117-.556.176-1.521.176-2.896 0-.91-.006-1.777-.018-2.602s-.029-1.625-.055-2.4a1.716 1.716 0 0 0 .504.072c.105 0 .203-.007.291-.021.088-.013.172-.03.252-.051a87.712 87.712 0 0 0-.072 1.757c-.014.533-.023.92-.023 1.161v.413c0 2.031-.049 3.416-.146 4.153-.1.738-.268 1.317-.508 1.737a3.54 3.54 0 0 1-1.531 1.422c-.652.319-1.441.479-2.365.479-1.58 0-2.733-.383-3.46-1.151-.727-.767-1.091-1.987-1.091-3.662 0-.062.012-.46.036-1.193.023-.733.035-1.433.035-2.098 0-.499-.019-1.36-.055-2.582-.007-.191-.012-.336-.018-.435zM108.572 49.247c0-.41.006-.782.02-1.114s.033-.646.059-.943a17.3 17.3 0 0 1 .617-.059c.182-.013.354-.02.516-.02.859 0 1.514.172 1.963.515.451.343.676.842.676 1.497 0 .759-.25 1.334-.75 1.726-.5.392-1.236.588-2.209.588a9.144 9.144 0 0 1-.891-.047v-2.143h-.001zm-.904 8.215c.113-.009.219-.013.318-.013.154 0 .439.012.855.036.414.023.752.036 1.018.036 1.41 0 2.479-.276 3.205-.829.729-.553 1.094-1.361 1.094-2.424 0-.789-.242-1.397-.725-1.826-.484-.428-1.232-.696-2.246-.805.898-.176 1.57-.482 2.016-.916s.67-.998.67-1.695c0-.852-.322-1.475-.967-1.87-.643-.395-1.656-.592-3.037-.592-.328 0-.711.008-1.145.024-.436.016-.701.023-.801.023a18.873 18.873 0 0 1-.777-.024c.051.681.088 1.563.109 2.649.021 1.085.033 2.379.033 3.88 0 1.091-.012 1.964-.035 2.619-.023.655-.061 1.25-.107 1.784.233-.028.407-.048.522-.057zm1.02-5.424c.461-.037.779-.055.955-.055 1.039 0 1.811.202 2.312.604.502.403.752 1.023.752 1.86 0 .775-.268 1.385-.805 1.833-.535.447-1.27.67-2.203.67-.166 0-.338-.011-.518-.035a5.697 5.697 0 0 1-.562-.105 18.758 18.758 0 0 1-.072-1.275 61.98 61.98 0 0 1-.021-1.907v-1.575c.04-.005.093-.01.162-.015zM139.328 85.317c-4.791-2.083-10.346.149-12.408 4.986a9.783 9.783 0 0 0-.389 1.09 11.396 11.396 0 0 0-8.037 2.722 11.378 11.378 0 0 0-3.41 5.04 14.709 14.709 0 0 0-9.771 1.774 18.383 18.383 0 0 0-8.701-5.928 25.074 25.074 0 0 0 1.301-7.97c0-13.861-11.237-25.097-25.098-25.097-13.86 0-25.097 11.236-25.097 25.097 0 13.767 11.086 24.938 24.817 25.091-.193 9.115 6.45 17.164 15.748 18.529a18.47 18.47 0 0 0 16.255-5.713 14.722 14.722 0 0 0 13.135 1.584c5.523-1.986 9.066-6.924 9.467-12.326a11.395 11.395 0 0 0 6.217-2.676 11.402 11.402 0 0 0 3.992-8.076 9.454 9.454 0 0 0 6.92-5.6c2.061-4.836-.15-10.444-4.941-12.527z"/><path fill="#fff" d="M139.375 93.317l2.734.994.871-1.511-1.5-3.556-2.291-1.123-1.324 1.975 1.51 3.221zM137.051 89.565l1.404-2.095-1.25-2.286a8.852 8.852 0 0 0-4.51.349l-.992 1.972 1.996 2.055 3.352.005zM139.9 100.543l.115 1.371a8.88 8.88 0 0 0 3.232-3.178l-.566-.344-2.781 2.151zM142.744 88.676l-.312.319 1.453 3.445.518.174a9.073 9.073 0 0 0-1.659-3.938zM127.15 98.354l2.577-2.489-1.194-1.801-4.672-.256-2.484 1.933 1.453 2.546 4.32.067zM130.561 96.562l-2.608 2.516.901 4.33 2.863.83 2.381-2.418-.852-4.293-2.685-.965zM127.846 112.285l.832 1.064a10.748 10.748 0 0 0 4.326-2.242c.367-.312.73-.682 1.104-1.115l-1.848-.592-4.414 2.885zM134.316 97.379l.84 4.221 1.629.637a10.772 10.772 0 0 0-1.727-5.336l-.742.478zM128.619 92.987l.537-.544a10.871 10.871 0 0 0-5.279-.297l.205.592 4.537.249zM116.1 108.482l4.14-1.779-.621-2.582-5.426-2.312-3.783 1.173.6 3.561 5.09 1.939zM116.748 109.711l-.836 5.404 3.022 2.196 3.88-1.784.874-5.343-2.75-2.272-4.19 1.799zM110.811 125.049l.51 1.564a13.866 13.866 0 0 0 6.113-.742 13.182 13.182 0 0 0 1.771-.807l-1.904-1.463-6.49 1.448zM125.057 110.48l-.857 5.254 1.631 1.424a13.16 13.16 0 0 0 .295-6.908l-1.069.23zM121.047 102.479a13.898 13.898 0 0 0-6.088-2.598l-.016.74 5.266 2.242.838-.384zM103.533 111.432l-5.892-.502-4.35 5.711 2.057 4.408 5.535.33 4.351-5.613-1.701-4.334zM84.356 114.297l-4.387 3.66 1.513 5.096 8.608 2.412 3.761-3.807-2.093-4.484-7.402-2.877zM81.462 124.719l-.431 2.236c2.242 1.533 4.718 2.512 7.368 2.9.798.117 1.667.166 2.632.156l-1.289-2.973-8.28-2.319zM106.457 116.822l-4.285 5.529 1 2.773a17.404 17.404 0 0 0 4.76-7.879l-1.475-.423zM107.104 105.514a17.522 17.522 0 0 0-5.354-6.859l-.559.973 4.551 5.805 1.362.081zM89.301 81.108l.615-5.065-7.598-7.243-7.235-.329-1.275 6.697 7.312 6.441 8.181-.501zM81.357 83.423l-4.817 8.775 3.772 5.74 7.722-.67 4.836-8.636-3.265-5.714-8.248.505zM62.608 80.123l-7.154-2.927-4.678 6.514 1.743 9.409 5.033 2.202 5.401-6.075-.345-9.123zM72.008 74.861l1.326-6.959-5.756-4.465a24.134 24.134 0 0 0-11.099 5.814l-.396 6.232 7.405 3.029 8.52-3.651zM48.81 84.407c-.121 1.027-.181 1.871-.181 2.624 0 2.654.466 5.31 1.374 7.906l.749-1.334-1.703-9.196h-.239zM74.168 106.779l-11.893-1.529-.147 3.438c3.38 1.674 6.974 2.527 10.686 2.527 1.185 0 2.461-.121 3.878-.359l-2.524-4.077zM91.718 102.037a23.956 23.956 0 0 0 5.068-12.098l-2.376-.324-4.775 8.529 2.083 3.893zM93.452 74.561a24.132 24.132 0 0 0-8.994-8.645l-.685 1.75 7.435 7.088 2.244-.193zM141.877 95.264l-2.768-1.005-2.843 2.235.422 2.404 2.615.875 2.834-2.191-.26-2.318zM132.928 90.164l-1.895-1.95-2.438 1.479-.428 1.905c1.281.256 2.523.73 3.668 1.421l1.093-2.855zM127.475 90.257a6.026 6.026 0 0 0-.109.238 8.654 8.654 0 0 0-.328.937c.057.006.113.011.168.018l.269-1.193zM131.365 105.262l-2.918-.848-3.203 1.672c.404.689.756 1.418 1.045 2.189.398 1.064.654 2.145.785 3.223l4.543-2.969-.252-3.267zM121.902 98.84l-1.531-2.682-3.18.148a10.778 10.778 0 0 0-1.551 2.951 14.703 14.703 0 0 1 5.037 2.059l1.225-2.476zM118.047 118.383l-3.078-2.236-6.084.756a18.29 18.29 0 0 1-1.57 4.119l2.816 2.762 6.781-1.514 1.135-3.887zM109.633 106.793l-.633-3.76-2.76-.861a18.323 18.323 0 0 1 2.521 5.428l.872-.807zM93.128 103.975l4.538 5.341 5.836.498.941-3.423-4.672-5.961-5.061-.979-1.582 4.524zM83.807 109.594a24.913 24.913 0 0 1-8.208 2.377l.098 2.674 3.279 2.041 4.462-3.721.369-3.371zM73.348 112.113a17.594 17.594 0 0 0 .268 3.334l.473-.607-.101-2.742c-.213.009-.427.011-.64.015zM64.201 90.588l-5.327 5.994 3.149 6.795 12.273 1.578 4.443-6.088-3.824-5.82-10.714-2.459z"/><path d="M87.463 169.807h-2.766v-9.24h-1.065v-1.844c.405 0 .747-.174 1.025-.52.278-.348.418-.688.418-1.018h2.389v12.622h-.001zM91.182 162.637c-.296 0-.444-.137-.444-.412v-3.008c0-.275.148-.412.444-.412.291 0 .437.137.437.412v3.008c0 .275-.146.412-.437.412zm-3.149 4.863c0 1.621 1.038 2.43 3.114 2.43 2.117 0 3.176-.816 3.176-2.449v-8.143c0-.729-.29-1.289-.87-1.684-.581-.395-1.343-.59-2.288-.59-.933 0-1.688.197-2.266.594-.577.396-.866.963-.866 1.697v2.943c0 .635.231 1.129.692 1.484s1.057.533 1.788.533c.54 0 .908-.105 1.105-.316v3.754c0 .275-.146.414-.437.414-.296 0-.444-.137-.444-.414v-3.213h-2.705v2.96h.001zM97.146 166.305l1.262-4.996v4.996h-1.262zm5.34 0h-1.373v-9.119h-3.734l-2.719 9.223v1.781h3.749v1.617h2.705v-1.617h1.373v-1.885h-.001zM105.975 162.186c-.305 0-.455-.125-.455-.377v-2.627c0-.25.15-.377.455-.377.297 0 .445.127.445.377v2.627c0 .252-.149.377-.445.377zm-3.161 2.744v2.602c0 1.6 1.047 2.398 3.143 2.398 2.111 0 3.168-.799 3.168-2.398v-2.602c0-1.064-.492-1.715-1.473-1.949.926-.287 1.391-1.074 1.391-2.359v-1.32c0-.775-.307-1.342-.918-1.699-.613-.359-1.33-.537-2.15-.537-2.053 0-3.078.744-3.078 2.236v1.32c0 1.285.463 2.072 1.391 2.359-.983.228-1.474.878-1.474 1.949zm3.161 3.238c-.305 0-.455-.127-.455-.379v-3.688c0-.252.15-.379.455-.379.297 0 .445.127.445.379v3.688c0 .252-.149.379-.445.379zM96.363 149.746a.146.146 0 0 0 .03.002l-.015-.037-.015.035z"/><path d="M96.363 149.746a.146.146 0 0 0 .03.002l-.015-.037-.015.035z"/><path d="M96.298 149.613c.032.004.088.008.161.014l-.077-.197c-.044.093-.074.162-.084.183z" fill="#edda72"/><path d="M96.298 149.613c.032.004.088.008.161.014l-.077-.197c-.044.093-.074.162-.084.183zM38.139 139.338a34.862 34.862 0 0 1 1.553-.041c.741 0 1.328.102 1.763.307.434.205.783.566 1.044 1.088.262.521.394 1.162.394 1.924 0 .619-.089 1.225-.265 1.816s-.448 1.076-.816 1.453c-.369.377-.796.623-1.283.738s-1.041.172-1.662.172c-.365 0-.714-.014-1.047-.041l.319-7.416zm-2.571 10.275l3.688.029c.833 0 1.579-.037 2.239-.115.589-.07 1.053-.162 1.393-.277s.676-.275 1.009-.48a5.337 5.337 0 0 0 1.205-.994 5.97 5.97 0 0 0 .917-1.389 7.91 7.91 0 0 0 .61-1.811c.145-.67.217-1.365.217-2.09a8.18 8.18 0 0 0-.283-2.146c-.189-.695-.462-1.301-.821-1.82s-.803-.938-1.334-1.258-1.104-.531-1.718-.635a13.197 13.197 0 0 0-2.14-.154c-.71 0-1.47.016-2.279.045-.81.027-1.464.043-1.963.043-.518 0-1.132-.01-1.842-.029v1.123c0 .686-.026 1.822-.079 3.41a310.861 310.861 0 0 1-.226 5.072c-.052.877-.147 2.047-.284 3.506.781-.02 1.345-.03 1.691-.03zM48.308 149.643c.114-1.127.203-2.141.27-3.045.065-.902.122-1.949.169-3.141s.082-2.447.104-3.771c.022-1.322.033-2.373.033-3.154.763.02 1.377.027 1.846.027.487 0 1.082-.014 1.783-.043a53.3 53.3 0 0 1 2.043-.043c.782 0 1.477.033 2.086.096.455.045.87.139 1.245.279s.69.312.947.514.469.428.639.676c.17.25.302.543.395.879s.139.695.139 1.08c0 .43-.051.83-.154 1.205a3.616 3.616 0 0 1-.485 1.055c-.221.33-.502.615-.841.855-.34.24-.814.484-1.423.734l.482 1.221c.135.34.277.686.425 1.039l1.235 2.816c.051.121.148.363.289.721-1.005-.012-1.68-.02-2.026-.02-.436 0-1.152.008-2.151.02-.097-.334-.274-.953-.533-1.857a10.764 10.764 0 0 0-.271-.877 57.089 57.089 0 0 0-.649-1.916l-.95-2.725c.327.068.651.102.973.102.442 0 .845-.07 1.208-.211.362-.141.637-.357.823-.65.186-.295.279-.605.279-.932 0-.273-.071-.516-.211-.723-.141-.207-.362-.363-.663-.465-.302-.102-.766-.154-1.394-.154-.212 0-.431.006-.659.016-.227.01-.495.018-.802.023a188.878 188.878 0 0 0-.205 4.805 249.181 249.181 0 0 0-.119 5.564c-1.011-.012-1.669-.02-1.977-.02-.352 0-.985.008-1.9.02zM67.49 141.709c.281-.602.622-1.375 1.024-2.316.064.23.449 1.477 1.153 3.738h-2.828l.651-1.422zm-5.476 7.918c.257 0 .953.008 2.089.02a86.208 86.208 0 0 1 1.636-3.729h4.591c.5 1.43.884 2.672 1.154 3.729.994-.012 1.748-.02 2.261-.02.224 0 .863.008 1.916.02l-.528-1.402-2.71-7.703-1.336-4.006c-.73.012-1.525.02-2.383.02-.487 0-1.268-.008-2.344-.02l-.605 1.326-.509 1.047-4.715 9.355-.749 1.383c1.027-.012 1.77-.02 2.232-.02zM79.925 149.646l-.335-1.172-2.227-6.752-1.737-5.188c.818.012 1.549.02 2.195.02.396 0 1.016-.008 1.859-.02.141.57.25 1.002.327 1.297.109.385.314 1.08.615 2.086l1.345 4.547c.134.475.298 1.092.49 1.855l.425-1.105 3.212-7.344c.052-.135.113-.289.184-.461.071-.174.184-.465.339-.875.878.012 1.583.02 2.111.02.331 0 .99-.008 1.978-.02a197.87 197.87 0 0 0-2.105 4.266l-3.153 6.57a76.244 76.244 0 0 0-1.019 2.275c-1.024-.012-1.754-.02-2.189-.02-.41.002-1.181.01-2.315.021z" fill="#edda72"/><path d="M99.857 139.658c.527.32.928.77 1.199 1.35s.408 1.213.408 1.898c0 .705-.148 1.381-.441 2.023-.295.645-.721 1.145-1.281 1.5a3.392 3.392 0 0 1-1.855.533 3.59 3.59 0 0 1-1.792-.475 3.035 3.035 0 0 1-1.261-1.322 4.161 4.161 0 0 1-.417-1.865c0-.736.151-1.428.456-2.07a3.538 3.538 0 0 1 1.304-1.51 3.448 3.448 0 0 1 1.895-.543 3.383 3.383 0 0 1 1.785.481zm-5.724-2.476c-1.212.596-2.127 1.422-2.745 2.482-.617 1.059-.926 2.289-.926 3.691 0 .953.145 1.82.437 2.602.291.781.785 1.488 1.483 2.125a6.244 6.244 0 0 0 2.457 1.383c.941.285 1.926.428 2.958.428 1.035 0 2.035-.145 2.994-.438a6.428 6.428 0 0 0 2.482-1.377 6.214 6.214 0 0 0 1.592-2.289c.369-.9.553-1.887.553-2.963 0-1.023-.168-1.93-.504-2.717s-.842-1.482-1.516-2.088a6.233 6.233 0 0 0-2.363-1.32 9.534 9.534 0 0 0-2.807-.412c-1.517 0-2.882.297-4.095.893zM114.211 142.006a195.435 195.435 0 0 0 5.406 0 86.88 86.88 0 0 0-.246 3.721 158.933 158.933 0 0 0-.148 3.633c-.697.137-1.275.234-1.736.297-.461.061-1.014.115-1.656.164-.645.049-1.219.072-1.723.072-.826 0-1.637-.07-2.434-.211a7.809 7.809 0 0 1-2.143-.682 4.486 4.486 0 0 1-1.574-1.277 5.915 5.915 0 0 1-.969-1.91 7.637 7.637 0 0 1-.342-2.285c0-1.299.309-2.506.922-3.619.615-1.113 1.5-1.994 2.652-2.645s2.641-.975 4.465-.975c1.332 0 2.805.17 4.418.512 0 .934.041 1.971.123 3.115a24.245 24.245 0 0 0-1.064-.355c-.27-.082-.584-.156-.945-.225s-.705-.117-1.031-.15-.617-.049-.873-.049c-.666 0-1.295.102-1.891.301a4.008 4.008 0 0 0-1.535.932 3.98 3.98 0 0 0-.963 1.5 5.265 5.265 0 0 0-.322 1.84c0 .658.121 1.244.363 1.76.244.514.629.906 1.156 1.174s1.115.402 1.768.402a7.16 7.16 0 0 0 1.773-.246l.096-2.068a33.834 33.834 0 0 0-.693-.021l-.959.01.066-1.18a26.818 26.818 0 0 0 .039-1.535zM121.453 149.643c.111-1.127.201-2.141.268-3.045.066-.902.123-1.949.17-3.141s.082-2.447.104-3.771a188.1 188.1 0 0 0 .033-3.154c.764.02 1.379.027 1.846.027.488 0 1.082-.014 1.783-.043a53.343 53.343 0 0 1 2.043-.043c.781 0 1.479.033 2.086.096.455.045.871.139 1.246.279s.689.312.947.514c.256.201.469.428.639.676.17.25.301.543.395.879.092.336.139.695.139 1.08 0 .43-.051.83-.154 1.205a3.587 3.587 0 0 1-.484 1.055c-.221.33-.502.615-.842.855s-.812.484-1.422.734l.482 1.221c.135.34.277.686.424 1.039l1.236 2.816c.051.121.146.363.289.721-1.006-.012-1.68-.02-2.025-.02-.436 0-1.152.008-2.152.02l-.533-1.857a10.378 10.378 0 0 0-.271-.877 54.433 54.433 0 0 0-.648-1.916l-.951-2.725c.328.068.652.102.973.102.443 0 .846-.07 1.209-.211.361-.141.637-.357.822-.65.186-.295.279-.605.279-.932 0-.273-.07-.516-.211-.723s-.363-.363-.664-.465-.766-.154-1.393-.154c-.213 0-.432.006-.658.016-.229.01-.496.018-.803.023a188.878 188.878 0 0 0-.205 4.805c-.061 1.891-.1 3.746-.119 5.564-1.01-.012-1.67-.02-1.977-.02-.354 0-.987.008-1.901.02zM140.633 141.709c.281-.602.623-1.375 1.023-2.316.064.23.449 1.477 1.154 3.738h-2.828l.651-1.422zm-5.475 7.918c.256 0 .953.008 2.088.02a86.158 86.158 0 0 1 1.637-3.729h4.59c.5 1.43.885 2.672 1.154 3.729.994-.012 1.748-.02 2.262-.02.225 0 .863.008 1.916.02l-.529-1.402-2.711-7.703-1.334-4.006c-.73.012-1.525.02-2.383.02-.486 0-1.27-.008-2.344-.02a441.43 441.43 0 0 0-.605 1.326l-.51 1.047-4.713 9.355-.75 1.383c1.025-.012 1.769-.02 2.232-.02zM154.035 139.338a34.824 34.824 0 0 1 1.553-.041c.74 0 1.328.102 1.764.307.434.205.781.566 1.045 1.088.262.521.393 1.162.393 1.924 0 .619-.088 1.225-.266 1.816-.176.592-.447 1.076-.816 1.453a2.594 2.594 0 0 1-1.283.738 7.238 7.238 0 0 1-1.66.172c-.367 0-.715-.014-1.049-.041l.319-7.416zm-2.57 10.275l3.689.029c.832 0 1.578-.037 2.238-.115.588-.07 1.053-.162 1.393-.277a4.97 4.97 0 0 0 1.008-.48 5.294 5.294 0 0 0 1.205-.994c.35-.389.656-.85.918-1.389a7.815 7.815 0 0 0 .611-1.811c.143-.67.215-1.365.215-2.09a8.14 8.14 0 0 0-.283-2.146 5.857 5.857 0 0 0-.82-1.82c-.357-.52-.803-.938-1.334-1.258s-1.104-.531-1.717-.635a13.21 13.21 0 0 0-2.141-.154c-.711 0-1.471.016-2.279.045-.809.027-1.465.043-1.963.043-.518 0-1.133-.01-1.842-.029v1.123c0 .686-.027 1.822-.078 3.41-.08 2.076-.154 3.766-.227 5.072-.053.877-.146 2.047-.285 3.506.782-.02 1.346-.03 1.692-.03z" fill="#edda72"/></g></svg>