<svg xmlns="http://www.w3.org/2000/svg" width="2500" height="2500" viewBox="0 0 192.756 192.756"><g fill-rule="evenodd" clip-rule="evenodd"><path fill="#fff" d="M0 0h192.756v192.756H0V0z"/><path d="M148.672 54.129c-2.398-2.96-5.24-7.866-9.859-7.274-2.574 3.044-4.617 6.259-5.15 10.065 3.285 2.876 7.549 6.259 6.395 10.911-1.064-.253-2.043-1.27-2.131-2.284-.711-1.861-2.932-2.621-4.795-2.96l-.711-3.213c-.266-.592-.711-1.27-1.42-1.016-.979-2.199-2.754-3.975-3.287-6.259 4.174-6.428 8.615-12.855 12.787-19.369l-21.312.085-.443-.338c.178.169 0 .507.09.76.266-.76.975-.168 1.508-.422.445.338-.266.676-.176 1.015l.354-.339c.355 1.015-1.066 1.608-1.154 2.538l1.777-2.199c.443-.169 1.064-.084 1.42.17-1.42 2.791-3.463 5.244-4.352 8.204-.621-.507-.355-1.523-.355-1.945l-.443 1.522c-.268-.169-.09-.507-.178-.846l-.178.253c-1.332-2.199-3.107-4.144-4.086-6.513l.533-.423c1.066-.592 1.156 1.015 1.6 1.354-.266-.761-.711-1.606-.355-2.537l.709.422c-.176-.254-.176-.422-.088-.676h-10.834l-.533.254-34.459 47.112-.534.507c-.443-.084-.621-.507-.887-.76l-4.973-12.857-21.579-54.893 1.598 168.4s6.216-8.797 6.216-8.712c2.487-3.299 4.974-7.02 7.548-10.318 1.155 1.1 2.132 3.299 4.264 2.791l6.482-5.836c2.397-.169 4.884-.846 6.305-2.96 1.865-2.453 1.775-6.514.355-9.22-1.599-3.045 3.462-2.875 3.019-5.92 3.729-2.368 9.059-4.062 10.567-8.628 3.286-1.27 7.459-2.96 8.614-6.429 1.598-5.498 7.549-7.612 11.456-11.672h.355c3.73 3.13 7.283 6.09 10.746 9.389-.355 1.607-2.398 2.283-2.932 3.638-4.174-2.877-5.861-7.359-7.992-11.251-.266 2.2.178 4.314.533 6.429.178 2.538 1.42 5.583-.268 7.867-6.037 2.283-12.549 4.792-18.115 7.273 3.73-.085 8.17-.085 12.166.338.533.424 1.865.338 1.688 1.269-7.371 6.429-16.311 13.759-21.017 22.133 6.216-4.061 13.646-9.276 20.929-10.968l-.977 2.452c-2.488 4.99-9.059 9.305-6.217 15.563.709 1.016 1.508 2.538 3.02 2.368 5.682.255 11.189-3.13 13.498-8.119l2.014 9.135 3.314-14.294c5.773 2.282 11.543 5.244 18.471 4.06 3.73-1.184 3.641-5.329 3.73-8.627 1.066-1.354 2.131-2.706 2.842-4.229 1.332-2.368.355-5.159-1.422-7.104 1.955-1.101 4.441-1.185 6.482-2.03l-12.787-2.623c.178-.845-.355-1.606-.711-2.367 1.332-2.029 1.598-5.244 4.707-5.752l-1.33-.085c.709-4.396 6.037-6.174 7.369-10.318.799-2.03.533-4.736-.623-6.597-1.242-3.046-4.705-3.977-7.369-5.161-.889-.592-1.422-1.605-1.51-2.621.178-.255.443-.93.977-.676a44.733 44.733 0 0 0 6.039-3.047c2.486-1.352 3.197-3.805 4.174-5.92.533-1.691.443-3.805.266-5.666 1.332-2.454-1.953-3.723-2.043-6.005 2.844-8.545 8.439-19.117 2.668-27.999z" fill="#fff" stroke="#fff" stroke-width="7.401" stroke-miterlimit="2.613"/><path d="M116.969 32.815c.088-.085 0-.338-.178-.254l.178.423v-.169zM116.434 35.437c0 .339-.088.931.268 1.185-.001-.423-.089-.931-.268-1.185zM117.145 40.259l.09-.084c-.09-.169-.178-.423-.355-.593-.267.253.089.592.265.677z" fill="#fff" stroke="#fff" stroke-width="7.401" stroke-miterlimit="2.613"/><path d="M68.125 79.928c.267.253.444.676.887.76l.534-.507 34.456-47.111.533-.254h10.834c-.088.254-.088.422.088.676l-.709-.422c-.355.931.09 1.776.355 2.537-.443-.339-.533-1.946-1.6-1.354l-.533.423c.979 2.369 2.754 4.314 4.086 6.513l.178-.253c.088.339-.09.676.178.846l.443-1.522c0 .422-.266 1.438.355 1.945.889-2.96 2.932-5.413 4.352-8.204-.355-.254-.977-.339-1.42-.17l-1.777 2.199c.088-.93 1.51-1.523 1.154-2.538l-.354.339c-.09-.339.621-.677.176-1.015-.533.254-1.242-.338-1.508.422-.09-.253.088-.591-.09-.76l.443.338 21.314-.086c-4.172 6.514-8.613 12.94-12.787 19.369.533 2.284 2.309 4.06 3.287 6.259.709-.254 1.154.424 1.42 1.016l.711 3.213c1.863.339 4.084 1.1 4.795 2.96.088 1.015 1.066 2.031 2.131 2.284 1.154-4.652-3.109-8.035-6.395-10.911.533-3.806 2.576-7.021 5.15-10.065 4.619-.592 7.461 4.313 9.859 7.274 5.771 8.881.176 19.454-2.666 27.997.09 2.283 3.375 3.552 2.043 6.005.178 1.861.268 3.975-.266 5.666-.977 2.115-1.688 4.568-4.174 5.92a44.733 44.733 0 0 1-6.039 3.047c-.533-.254-.799.421-.977.676.088 1.016.621 2.029 1.51 2.621 2.664 1.185 6.127 2.115 7.369 5.161 1.156 1.86 1.422 4.566.623 6.597-1.332 4.145-6.66 5.922-7.369 10.318l1.33.085c-3.109.508-3.375 3.723-4.707 5.752.355.761.889 1.522.711 2.367l12.787 2.623c-2.041.846-4.527.93-6.482 2.03 1.777 1.945 2.754 4.736 1.422 7.104-.711 1.523-1.775 2.876-2.842 4.229-.09 3.298 0 7.443-3.73 8.627-6.928 1.184-12.697-1.777-18.471-4.06l-3.107 12.771-2.221-7.611c-2.309 4.989-7.816 8.374-13.498 8.119-1.512.17-2.311-1.353-3.02-2.368-2.842-6.259 3.729-10.573 6.215-15.563l.979-2.452c-7.283 1.691-13.766 5.498-19.982 9.558 4.707-8.373 12.699-14.294 20.07-20.723.178-.931-1.154-.845-1.688-1.269-3.996-.423-8.436-.423-12.166-.338 5.772-2.792 12.078-4.99 18.115-7.273 1.688-2.284.445-5.329.268-7.867-.355-2.114-.799-4.229-.533-6.429 2.131 3.892 3.818 8.374 7.992 11.251.533-1.354 2.576-2.03 2.932-3.638-3.463-3.299-7.016-6.259-10.746-9.389h-.355c-3.906 4.06-9.857 6.174-11.456 11.672-1.155 3.469-5.328 5.159-8.614 6.429-1.509 4.566-6.838 6.26-10.567 8.628.443 3.045-4.618 2.875-3.019 5.92 1.42 2.706 1.509 6.767-.355 9.22-1.421 2.114-3.908 2.791-6.305 2.96l-6.482 5.836c-2.131.508-3.109-1.691-4.264-2.791-2.575 3.299-5.062 7.02-7.548 10.318 0-.085-6.216 8.712-6.216 8.712l-.8-166.623 20.78 53.117 4.973 12.857z"/><path d="M122.561 132.976c.23-.374.41-.774.445-1.285 2.488 2.199 4.973-.761 7.461-1.1 4.527-.338 6.926-4.99 8.701-8.373 2.309-1.1 4.441-3.384 4.707-5.835.09-2.284-.623-4.399-2.309-6.007-1.332-1.184-2.93-1.606-4.707-1.606l-3.641-3.13c.355-1.775 1.154-3.638 2.043-5.329 2.752.846 3.73-2.283 6.127-2.79l3.02-2.369c.889-2.199-.178-4.652.977-6.767-.354-1.521.268-3.551-1.51-4.313.977-1.522-.088-3.129-.088-4.821 3.375-7.02 6.926-16.239 2.754-23.937-1.51-2.367-3.375-4.651-5.686-6.344-2.396 1.861-2.842 4.992-3.729 7.613 5.148 3.383 7.904 9.219 6.393 15.14a22.66 22.66 0 0 1-1.865 4.822c-2.396-1.777-1.154-6.174-4.527-7.359-.799-.253-1.865-.423-2.043-1.353.799-1.185-.445-2.03-1.332-2.538l-2.221-.761c.09-.423 0-.846-.531-.846h-1.244l.266-1.269c-.711-.084-1.688.085-2.309-.507-.443-.676-.355-1.775.09-2.453-1.332-.676-1.244-2.283-2.309-3.299.799-.338.621-1.353.531-2.03-.443-.761-1.775-1.015-1.865-2.03 2.932-5.413 6.307-10.741 9.414-16.154l-11.545-.084 1.598-1.945 14.832-.085-12.166 18.269c.709.93 1.42 1.946 1.242 3.129 1.598 1.015 2.664 2.792 2.309 4.653h1.865l.178 3.468c2.131.337 4.441.761 5.506 2.875.09.761-.266 1.861.711 2.115.623-.168 1.244-.168 1.688.423.531.677.709 1.523 1.154 2.284.887-4.229.178-9.05-3.375-11.842-1.154-.592-2.221-1.522-2.932-2.622 1.066-3.299 2.133-6.936 5.328-9.135 1.244-.169 2.221.592 3.109 1.437 3.375 2.623 6.039 5.922 6.662 9.812 1.598 7.782-1.066 15.14-4.086 21.737-.621 1.945-.268 4.229 1.598 5.583-.799 1.522 1.154 3.299-.443 4.651.533.762.266 1.86.178 2.792-1.688 1.353-.355 4.99-3.643 4.821-.799.507-1.154 1.775-2.131 1.946l-1.154-.256c-.533.763-.889 1.438-1.865 1.777a1.932 1.932 0 0 0-2.486 1.016c-.266.676-.799 1.352-.443 2.114.709 1.015 2.221 1.606 3.109 2.536 2.93.594 6.48 2.369 7.102 5.583 1.512 4.398-1.953 8.035-5.15 10.573-1.951 1.945-2.041 5.244-5.061 5.92-2.842 1.1-5.684 2.538-7.637 5.075-.268.761 0 1.607.443 2.284 1.51 1.775 3.996 1.775 6.305 2.114l5.506.084.443-.423c-2.752-.845-6.127 0-8.701-1.269.621-.676 2.131-1.268 1.598-2.368-.443-.254-.977-.508-.977-1.015 0-1.015.709-1.692 1.066-2.453l2.309-1.016.178.254c-.533 1.354-2.398 2.284-1.867 3.807l1.334.931-1.244 1.438.799.592 10.391 1.522-4.885 1.185c.711 1.184 2.93 2.621 3.197 4.482-.354 2.877-1.688 5.329-3.463 7.613.088 2.96.088 6.428-2.93 7.781-7.016 1.268-13.145-1.862-18.916-4.567l-2.842 10.487c-.621-2.368-.889-4.99-1.865-7.273-1.688 2.029-1.242 4.99-3.375 6.85-3.197 2.2-6.572 3.892-10.744 3.808-1.066-2.114-3.553-4.229-2.221-6.767l1.332-1.438c2.576-4.483 5.596-8.881 7.814-13.533-6.75 2.283-13.143 5.413-19.448 8.965 4.973-6.174 11.811-12.178 18.028-17.593.887-.845-.268-1.775-1.066-2.029-2.574-1.185-5.949-.678-8.791-1.27l6.039-2.198.088.169c4.352-.423 8.525-1.354 12.256-3.299.977-.676.709-2.114.889-3.045.977.846 2.129 1.944 3.373 2.622-.166.381-.344.759-.535 1.136l.861.066c.316-.595.623-1.192.918-1.794-2.043-.086-3.73-1.522-4.707-3.13.889.677 1.775 1.438 2.842 1.86 0-1.015.088-2.114 1.154-2.621 1.154-.677 2.664-1.522 2.398-2.96l-2.133-1.27-10.123-9.051h-.533l-10.834 9.558c-.266 4.483-4.262 7.613-8.524 8.712l-1.332.34c-1.51 4.904-6.927 6.85-10.922 9.472.443 1.017-.534 1.777-1.333 2.199-.533.17-1.244.254-1.333.932l-.266 1.183c.71 2.962 2.22 6.345.71 9.39-1.333 2.367-3.908 3.213-6.394 3.553l-6.394 5.92c-.8.254-1.688 0-2.22-.592-.977-1.016-1.333-2.284-2.043-3.299-2.93 3.722-5.682 7.782-8.525 11.758-.177.168-.066.199-.266.421-1.332 1.608-2.575 3.638-3.908 5.414l-.8-158.082L63.862 72.06l3.286 8.627c.533.761 1.332 1.185 2.309 1.1l.444-.084L104.445 34h8.971c-.355.169-.711.422-.799.76l.354 1.1-7.193.084L72.033 82.21c-1.332 1.184-2.931 2.114-4.796 1.607-1.243-1.184-2.309-2.538-3.019-3.975l-13.41-34.425-5.061-12.687.532 137.529.267-.085c3.375-4.82 6.838-9.473 10.213-14.293 1.243 1.605 1.243 5.751 4.529 5.074 2.841-2.199 4.528-5.836 8.525-5.667 1.244-.677 2.485-1.776 2.93-3.046.178-4.06-3.819-9.727 1.422-12.094l.354-1.101c4.175-2.114 9.147-4.821 11.19-9.303 4.529-.763 8.792-4.737 9.769-8.967l10.834-9.389c.977.338 2.043-.168 2.932-.422 3.375 3.721 7.637 6.09 11.988 8.035.621.169 1.154.761 1.244 1.353.088 1.691-1.154 3.045-1.332 4.736-1.066.254-2.133 1.27-2.488 2.284-.178.592-.088 1.354-.088 1.86 1.332.17 2.754.084 3.73 1.016-.486.667-.775 1.581-.867 2.558l1.13.168z" fill="#ecb73b"/><path d="M116.969 32.815v.169l-.178-.423c.178-.084.266.169.178.254zM116.701 36.621c-.355-.254-.268-.846-.268-1.185.18.255.268.763.268 1.185zM117.234 40.174l-.09.084c-.176-.084-.531-.423-.266-.677.179.17.267.424.356.593z"/><path d="M120.432 41.104c-.178.507-.711.507-1.154.592-.001-.508.708-.846 1.154-.592zM116.969 41.443v.338-.338zM115.369 41.95h.533-.533zM123.273 51.677c-.799-3.045-.355-6.513-2.043-9.219l.178-.253c2.397 2.451 1.242 6.342 1.865 9.472z" fill="#fff"/><path d="M115.104 42.88c-3.109 1.946 0 5.16-.533 7.782l-3.553.93c.268-1.776.887-3.468 2.221-4.906.711-.761-.889-1.438.355-1.861 0-.169 0-.422-.178-.592.354-.169 1.154-.762 1.064-1.354h.624v.001zM120.342 43.641l-.711-.761h.445l.266.761z" fill="#cf4044"/><path d="M118.744 43.895c-.799 0-1.775.084-2.664.084-.09-.676.889-.508 1.332-.761.443.17 1.154.086 1.332.677zM112.172 44.571l.178-1.099-.178 1.016v.083z" fill="#fff"/><path d="M120.432 44.91c-.178.339-.801 0-1.154.254-.979.676-1.51 2.369-2.932 1.945l-1.154-1.86c1.777-.169 3.642-.508 5.24-.339zM121.23 48.124c-.266.169-.533.423-.443.761l.443.17c-.266.592-.799 1.184-.355 1.86.178.339.533.508.889.677-1.422 0-3.02-.761-4.529-1.014 1.332-1.777 3.197-3.13 4.174-5.075.177.93-.266 1.776-.179 2.621z" fill="#cf4044"/><path d="M115.99 50.239c-.533-.676-.621-1.776-.709-2.706.533.507 1.152.845 1.953.676 1.242-.339 1.42-1.776 2.664-2.03l-3.908 4.06zM102.049 47.533l-1.688 2.453c.443.338.799.93 1.244.93l1.598-2.114.889.931-1.512 2.283 1.066 1.184c.711-.676 1.244-1.606 1.865-2.368l1.244 1.015-2.754 3.891-5.861-5.498 2.754-3.806c.444.337.801.675 1.155 1.099zM138.547 56.328l-.266-.084c.711-1.945.977-4.229 2.396-6.005l.711.339-2.841 5.75zM140.412 57.937c-.268-.424-1.686-.931-.889-1.693l2.398-4.99.889 1.1-2.398 5.583zM123.273 53.792c-1.154.17-1.953-.845-3.02-1.1-3.197-1.015-7.105-.423-10.035.676 3.552-2.368 9.503-1.945 13.055.424zM100.539 57.343l1.598-2.03c.533.085.799.677 1.332 1.1l-2.574 3.553-5.861-5.583.888-1.269c1.685 1.438 2.93 2.792 4.617 4.229z" fill="#fff"/><path d="M115.99 53.368c-.088.508.355 1.101-.176 1.354h-.533l-.178-1.438.887.084zM108.709 53.876c0 .337-.355.507-.621.676h-.178l.178-.845.621.169zM120.254 54.807h-.711l.088-1.015c.711-.17.535.677.623 1.015zM113.504 54.807c-.266.592-1.064.507-1.6.761-.266-.339-.176-1.016-.088-1.523.623-.592 1.688 0 1.688.762zM124.961 54.638v.254c-.443.169-1.066.169-1.066-.339.087-.677 1.154-.508 1.066.085zM117.945 55.652c-1.955.084-3.996.507-5.773.761 1.687-.507 3.73-1.352 5.773-.761z" fill="#fff"/><path d="M107.111 59.881c.799-.338.977-1.438 1.865-1.523-.889 1.692-2.932 2.538-2.754 4.483l.533-.423c-1.066 1.692 2.662 4.907-1.156 5.076 0-.254.09-.508-.088-.762-.443.169-.889.593-1.332.593l.533-1.777-1.422.254 1.154-1.269-1.064-.338c4.262-.846 1.42-6.429 5.238-7.867.8 1.439-2.218 2.115-1.507 3.553z" fill="#ecb73b"/><path fill="#fff" d="M116.434 56.921l.089-.254h.534l-.623.254zM118.123 57.428c-.533 1.015-1.6-.592-1.777.761-.266 1.015.445 1.776.889 2.453.178-.085.533-.254.443-.507l-.266-.932c.711.339 1.953.508 2.93.254.889-.338-.443-.676.09-1.269.266.084.621.254.977.169.266-.085 0-.507 0-.507.621.169.711.846.889 1.353.088 1.607.621 3.214.443 4.822-1.688-.508-2.754-2.2-3.996-3.129-.178 1.521-2.311.76-3.375 1.354-.355-.677-1.154-.677-1.775-1.015.977-.169 1.775-.508 2.574-.931-.178-.422-.711-.676-1.33-.507-.09 1.015-1.334.422-1.867.676-1.42.762-1.775 2.538-3.018 3.468-1.156-2.03.443-4.145.443-6.259h.711c.266.338-.535.591-.09.93.445 0 .711-.592 1.154-.254.268.339-.355.254-.355.508 1.154.846 2.754.253 4.086.084.088-.339-.445-.339-.711-.593.09 0 .623.085.799-.085l-.709-.676c.355-.169 1.064.084 1.152-.423.445.425 1.066.255 1.689.255z"/><path d="M126.736 59.712c-.266.676-.266 1.691.266 2.284.268.676 1.066 1.1 1.777 1.184-.355.507-1.51 1.1-1.154 1.522 0 .084.178.084.178.169-.268 0-1.066-.253-1.51.085l.531.761c-.887.169-1.688-.169-2.221-.846V63.35l.357.337.176-1.269c.268 0 .711.423.889 0 .09-.422-.531-.845.09-1.015-.799-1.015-2.576-2.029-3.02-3.466.088-.424.443-.594.799-.762 1.51-.169 2.131 1.607 2.842 2.537z" fill="#ecb73b"/><path d="M97.43 61.573l1.688-2.115c.533.254.979.761 1.334 1.185l-2.576 3.553c-1.954-1.692-3.996-3.722-5.95-5.583l.888-1.269c1.597 1.353 3.018 2.706 4.616 4.229zM143.252 78.404l-.797-.93c2.041-4.144 3.818-9.896 1.332-14.378l2.486-5.752c3.286 7.189-.711 14.548-3.021 21.06zM113.77 58.189c0 .254-.354.254-.531.338-.09-.084-.268-.084-.355-.254-.001-.421.71-.421.886-.084zM119.277 58.527c0 .255-.268.339-.443.339-.09-.084-.268-.084-.357-.254.177-.339.623-.339.8-.085zM97.076 65.21c-.267.422-.623.931-.978 1.353l-5.862-5.582c.089-.424.534-.931.888-1.354l5.952 5.583z" fill="#fff"/><path d="M109.508 64.956c2.131.085 1.688-2.622 3.73-2.96 1.865 2.875 5.061-1.27 6.928 1.606.088-.761.799 0 1.154.084.443.423.977 1.269 1.686.846.268.253-.088.592-.178.846-.443.507-1.42.338-1.863.084-.533-.169-.979-1.016-1.422-.846l-.178.338c-.621.085-1.242-1.523-1.598-.423-1.334-.677-2.664-.338-4.174-.253 0 .168-.178.168-.178.253 0-.085-.178-.253-.268-.253-.799.676-1.686-.254-2.396.591-.623.423-1.422 1.1-2.221.508-.711-.508-1.154-1.269-1.154-2.115 0-.592.977-1.099.355-1.608l-.533.254 1.688-1.775c.8 1.524-1.954 3.723.622 4.823z" fill="#ecb73b"/><path d="M93.08 70.708a93.484 93.484 0 0 1-7.016-4.146c.355-.338.709-1.606 1.332-1.099l5.062 2.961c-.977-1.946-2.487-3.723-3.641-5.668l.977-1.354 4.796 7.19-1.51 2.116zM121.498 66.225c0 1.776-2.045 2.453-3.375 3.299-1.865.508-3.375-2.114-5.152-.423-1.332-.254-2.131-1.522-2.664-2.622l4.707-1.523 6.484 1.269zM134.463 66.817l.088 1.945c-.977.169-.977-1.015-1.6-1.438-.887-.339-1.688-.93-2.484-1.438.533-.592 1.598-.422 2.309-.254.62.17 1.331.593 1.687 1.185z" fill="#fff"/><path d="M118.566 66.31c-.09.338-.621.169-.799.507l.443.93c-1.066-.761-2.664-.846-3.906-.507-.18.169-.268.422-.535.338l.891-.677-1.066-.677c1.42-.507 3.375-.083 4.972.086z"/><path d="M126.646 67.494c-.531 3.806-2.396 7.104-5.326 9.896-.355-.508-.711-1.1-1.422-1.185h-.889c.443-1.606 1.955-2.791 2.932-4.313l1.598-5.329 3.107.931z" fill="#fff"/><path d="M124.975 72.793c-.148.706-2.191 3.2-3.654 4.596-.355-.508-.711-1.1-1.422-1.185h-.889c.443-1.606 1.955-2.791 2.932-4.313-.001.001 1.255.691 3.033.902z" fill="#cf4044"/><path d="M107.111 72.061c2.307 1.27 4.973 2.453 5.682 5.075.355 2.707.623 5.413.623 8.204l-1.066 1.27c-.355-3.638-.445-7.444-2.396-10.404-3.197-3.214-7.904-5.244-9.857-9.304.443 0 .799-.422 1.332-.169l5.682 5.328z" fill="#fff"/><path d="M116.969 76.798l-.801 3.467-2.043.254c-.355-2.284-.443-4.736-2.396-6.344l.176-.254c-2.041-1.776-5.148-2.115-6.66-4.651l3.375-2.115c1.776 3.721 3.997 8.035 8.349 9.643z" fill="#fff"/><path d="M116.969 76.798l-.801 3.467-2.043.254c-.355-2.284-.443-4.736-2.396-6.344l.334-.519c.664-1.004.332.953 4.906 3.142z" fill="#cf4044"/><path d="M129.043 67.747c-.975 5.329-.975 11.672 1.689 16.24l-.445.337c-3.195-4.651-3.641-11.418-2.309-17.084.356 0 1.6-.339 1.065.507zM100.805 69.607c-.09 1.101-1.42 1.438-2.043 2.199-.621-1.015-.266-2.706-1.776-3.381l-.976.084c0-.677.799-.762 1.244-1.015 1.508.085 2.842.931 3.551 2.113z" fill="#fff"/><path d="M131.887 68.762c-.088 2.875-1.064 5.413-2.131 7.951-.623-2.96-.355-6.259.355-9.051.711.17 1.42.424 1.776 1.1zM90.593 71.806c1.155 2.2-1.421 3.723-2.397 5.499-2.042-1.775-3.908-3.721-5.862-5.499 1.332-1.268 1.866-4.397 4.352-3.72 1.509.93 2.841 2.199 3.907 3.72zM97.254 70.539c.531.846.531 2.03 0 2.876a3.015 3.015 0 0 1-1.068 1.015c-.887-1.099-1.508-2.875-.799-4.314.356-1.184 1.867-.509 1.867.423zM138.191 71.892c.09 2.368-1.154 4.06-2.574 5.752-.355-2.2 2.309-4.145.266-6.09-.889.931-.266 2.452-.889 3.552-.355.931-.799 1.861-1.066 2.875-.176-.676.18-1.945-.088-2.791h-.178c-.354 2.539-1.242 4.738-2.131 7.021-1.332-1.183-1.688-2.96-1.598-4.736.088-1.185.799-2.454 1.953-2.96l1.51-4.99c1.688.59 4.708-.086 4.795 2.367z" fill="#fff"/><path d="M134.521 74.133c1.184-.07 1.809-.085 3.404-.423.666-.141-.889 2.241-2.309 3.934-.355-2.2 0-3.638-.623-2.538-.355.931-.799 1.861-1.066 2.875-.176-.676.18-1.945-.088-2.791h-.178c-.354 2.539-1.242 4.738-2.131 7.021-1.332-1.183-1.688-2.96-1.598-4.736.088-1.185.799-2.454 1.953-2.96.002-.001-.199-.213 2.636-.382z" fill="#cf4044"/><path d="M117.412 75.359c-2.309-.761-4.885-2.791-5.508-5.244 1.156.339 2.934 0 4.354-.084 1.154.338 2.842.338 3.908-.254-.18 1.945-1.867 3.638-2.754 5.582z" fill="#fff"/><path d="M88.905 72.569c.178.93-.621 1.353-.977 2.03-1.243-.846-2.131-1.862-3.197-2.961.355-.507.71-1.268 1.243-1.606 1.244.338 2.221 1.605 2.931 2.537z"/><path d="M110.307 79.504l-.621-1.184c-.799 1.522.178 3.129.268 4.736.709 3.045.088 6.682 2.131 9.304-1.777.761-3.818 1.691-5.418 3.044-1.422 1.1-2.486 2.369-3.285 3.891-6.127-5.751-5.418-14.802-6.572-22.836-.623.845-.178 2.537-.799 3.044-.267-.508-.533-.93-.889-1.438-.888 2.115.711 4.061.444 6.175-.355-.338-.532-.931-1.065-1.184-.178 1.776 1.154 3.045 1.686 4.567-.799 1.184-2.485 1.439-3.818 1.946l-.267-.085c.889-4.229-.799-9.556 2.221-13.024l3.641-2.623-.266.762h.088l4.086-3.468c2.751 2.706 7.814 4.398 8.435 8.373z" fill="#cf4044"/><path d="M97.697 74.599h.088l4.086-3.468c2.752 2.707 7.814 4.399 8.436 8.374l-.621-1.184c-.695 8.782-12.314 11.108-12.876-1.861l.887-1.861zM87.485 78.235c-.534.845-1.065 1.692-1.688 2.453l-5.684-2.791c1.421 1.606 2.931 2.791 4.529 4.397-.355.423-.621.93-.977 1.269l-5.861-5.498c.355-.846 1.067-1.606 1.688-2.453 1.865.931 3.729 1.861 5.685 2.791-1.333-1.606-2.932-2.875-4.53-4.314l.977-1.438 5.861 5.584zM127.002 80.265c-4.617 3.891-7.902 8.966-12.965 12.264-.711-.761-2.398-1.606-1.953-2.875 1.154-1.607 2.131-3.298 3.553-4.82 3.729-4.06 7.99-6.767 10.656-11.757.266 2.367.621 4.82.709 7.188zM136.328 79.081l2.219-3.551c.265 1.521-1.242 2.705-2.219 3.551z" fill="#fff"/><path d="M97.52 80.181c-.266-1.1-.534-2.283-.355-3.552l.355 3.552z"/><path d="M120.52 77.474c.09.423-.354.507-.443.761-.445 0-.889-.169-1.066-.507 0-.339.178-.678.533-.762.442 0 .976.085.976.508zM136.771 80.773l2.309-3.637c-.268 1.353-.889 2.876-2.309 3.637z" fill="#fff"/><path d="M119.543 79.335l-1.51 1.353.443-2.284c.358.254 1.155.592 1.067.931z" fill="#cf4044"/><path d="M132.863 84.748c-.178 0-.178-.17-.266-.254 2.752-.761 5.506-2.96 7.016-5.582-.976 2.706-3.818 5.244-6.75 5.836z" fill="#fff"/><path d="M142.543 84.748c-1.953 3.129-5.416 4.229-9.059 4.145-.354-.423-.799-.93-.533-1.607 1.688-.93 6.662-.676 7.994-4.144l.621-1.269c.445-.508.355-1.607.621-2.454.979 1.439 1.51 3.806.356 5.329z" fill="#cf4044"/><path d="M138.703 85.446c-1.561.784-3.773 1.321-5.428 1.606-.678.349-.4-.867-.4-.867s2.869-.484 5.217-1.797c1.551-.867 2.762-2.25 3.164-3.542 0 0 .609-2.221.832-1.004.096.523-.443 2.167-.443 2.167s-.944 2.432-2.942 3.437zM82.067 83.733c.711 1.607-.443 3.045-1.598 4.145-2.221 1.27-3.197-1.099-4.885-2.284-.71-.592-1.243-1.438-1.154-2.453.177-1.353 1.154-2.707 2.486-3.383 2.309.085 3.82 2.452 5.151 3.975z" fill="#fff"/><path d="M128.957 85.087c-1.332 2.959-2.311 6.005-4.619 8.542-1.688.847-2.131 2.624-3.018 4.061l-.979.846c-.621-.339-1.064-.678-1.332-1.27.443-.169 1.066-.845 1.244-1.353.088-.761-.623-1.269-1.244-1.607-.799-.169-1.42.677-1.775 1.185-.178-1.27-.801-2.792.266-3.807.178.592.799 1.015 1.334 1.438.709.169 1.152-.508 1.686-.846.268-.507 0-1.014-.354-1.438l-.801-.761c2.486-2.875 4.795-6.174 7.904-8.542l1.688 3.552z" fill="#cf4044"/><path d="M80.38 84.833c-.178.592-.443 1.1-.977 1.437-1.244-.253-1.954-1.522-2.93-2.283-.266-.254-.178-.846-.09-1.185.355-.338.533-.761.978-1.015 1.243.593 2.752 1.777 3.019 3.046z"/><path d="M78.871 90.077c-.267.423-.534.846-.889 1.27l-4.529-4.314-.089.084 3.553 5.667-.799 1.1c-1.953-.846-3.73-1.945-5.595-2.791 1.333 1.521 2.93 2.622 4.44 4.145 0 .423-.621.846-.888 1.354-2.22-1.862-3.818-3.553-5.95-5.498l1.599-2.199 4.528 2.454.089-.169-3.021-4.483 1.599-2.199c2.044 1.688 3.82 3.548 5.952 5.579zM132.064 86.27c-1.242 1.607.533 3.046.979 4.398-1.334 1.945-1.6 4.991-.623 7.106-.443.676-.443 1.691-1.42 1.943-2.311-.167-3.465-2.875-5.863-2.875-.533-.591-.441-1.606-.088-2.199.889-1.353 2.398-1.861 3.285-3.298.445-2.03.977-4.145 2.842-5.668.445-.083.623.34.888.593z" fill="#fff"/><path d="M108.887 86.523l-2.043 5.583-5.861-.76.268-1.27c1.598.085 3.285.338 4.795.254l1.688-4.229c.354.085.885.085 1.153.422z" fill="#fff" stroke="#fff" stroke-width=".846" stroke-miterlimit="2.613"/><path d="M108.887 86.523l-2.043 5.583-5.861-.76.268-1.27c1.598.085 3.285.338 4.795.254l1.688-4.229c.354.085.885.085 1.153.422z"/><path d="M141.301 90.077l2.041-1.607c0 1.014-1.242 1.268-2.041 1.607zM93.346 94.812l-5.95 2.623c-.178.085-.178-.085-.355-.17.444-.591 2.309-.508 1.599-1.775-1.777-.085.443-1.862-1.244-1.946-.089 1.268-2.665 1.015-1.776 2.622.8.338.711 1.184.887 1.86-.176.169-.532.423-.887.339-.71-2.538-5.329-5.329-1.776-7.867 2.576-.338 4.263 2.199 6.928.931 1.687-.508 3.374-1.269 5.15-1.777l.178.423-2.754 4.737zM119.898 91.431c0 .422-.178.761-.533.93-.443.168-.799-.254-.889-.508-.178-.507.178-.676.533-.93.444-.085.8.169.889.508zM137.748 92.445c.443 1.1.533 2.453-.088 3.467a3.548 3.548 0 0 1-1.154 1.099c.441-1.269.977-2.537 1.154-3.89-.979-.338-2.311-.593-3.109.169-.088-.678.979-.93 1.154-1.607.711-.337 1.777.001 2.043.762z" fill="#fff"/><path d="M93.967 96.843l-.177 1.777c-.977 2.283-2.931 4.229-4.263 6.427-.444-.337-.887-.846-1.332-1.268-.445.168-.445.761-.178 1.1.089.253.444.507.355.846l-7.283-.339c-.178-.339-.178-.93.178-1.1 1.688-.507 3.464-.846 5.239-.931.179 0 .267-.17.445-.339-3.286-1.268-6.571.679-9.768 1.1l.089-1.1c1.953-2.621 3.197-5.496 4.795-8.204 1.51 1.439 2.309 3.3 3.02 5.159l7.282-3.551c-1.154 2.282-2.752 4.396-4.173 6.512l.532.423c3.198-3.468 5.329-7.527 7.372-11.502.709 2.03-1.6 3.298-2.133 4.99zM73.364 97.521c-.354.507-.621 1.015-.976 1.353-1.598-1.353-3.02-2.96-4.53-4.313l3.463 5.75-.799 1.1-5.506-2.875-.089.168c1.51 1.354 3.108 2.792 4.529 4.146l-.888 1.268c-2.042-1.691-3.995-3.636-5.95-5.581l1.599-2.114c1.51.845 3.019 1.691 4.529 2.367l-2.932-4.567 1.599-2.199 5.951 5.497z" fill="#fff"/><path d="M130.732 98.45c-1.332-.93-2.398-2.368-4.174-2.368l3.641-3.976c-.799 1.862-.355 4.484.533 6.344z"/><path d="M141.211 92.698c-.178.085-.266.508-.621.508.088-.254.443-.423.621-.508zM115.637 93.206c.178.254.088.592-.09.762-.266 0-.533-.254-.623-.508.09-.254.445-.338.713-.254zM130.91 107.331c-.088.17-.355.084-.533.084 1.066-4.736 3.73-8.965 5.506-13.532h.711l-5.684 13.448zM113.859 94.898c-3.996 1.015-6.217 4.568-7.549 8.035-.533 0-.799-.508-.977-.931.355-2.451 2.221-4.651 4.174-6.259 1.154-.676 2.309-1.268 3.73-1.353.357-.084.445.338.622.508zM142.188 94.391c-.443.253-1.154.507-1.51 0h1.51zM99.207 97.181l-5.417 3.215c.622-1.185.888-2.538 1.244-3.891l3.02-2.03c.442.846 1.507 1.607 1.153 2.706zM129.223 95.998l-.889-.254.533-.845c.176.252.266.676.356 1.099zM87.662 95.491c-.089.252-.177.591-.621.507-.178 0-.534-.085-.534-.338 0-.254.179-.508.356-.508.355-.085.799-.001.799.339zM119.365 95.405c.088.423.088 1.016-.531 1.016-.357.084-.889-.169-.889-.593 0-.423.443-.592.799-.677.178.085.533 0 .621.254zM116.08 97.266c-2.754.847-5.594 3.215-5.861 6.09l-.178 2.284c-.533 0-.889-.676-1.154-1.015-.268-2.2.799-4.229 2.221-5.922 1.332-.929 2.574-1.86 4.262-2.028.355 0 .444.337.71.591z" fill="#fff"/><path d="M104.445 103.103c-1.51 1.607-2.93 4.059-5.416 3.976-3.108.337-6.305 0-8.969-1.185 2.042-3.807 6.305-6.259 10.036-8.373l4.349 5.582z" fill="#cf4044"/><path d="M124.072 97.857c-.09 1.101-1.422 1.523-2.131 2.199-.621-.422.178-1.015.355-1.521.444-.423 1.155-1.099 1.776-.678zM126.736 99.296c-.889.592-1.865 1.354-2.932 1.607.355-1.101 1.689-1.353 2.488-2.115l.444.508zM120.432 101.072c-1.332 3.553-5.328 3.892-8.527 4.736.09-2.368 2.221-4.821 4.529-6.006.711-.252 1.334-.592 2.043-.592l1.955 1.862zM66.615 106.909c-.533.676-1.065 1.691-1.953 2.029-1.244.169-1.955-1.1-2.665-1.523l-3.375-3.299a4.95 4.95 0 0 1 .977-1.268l4.44 3.976c.71 0 .977-.846 1.244-1.354l-.178-.591-4.084-3.976.887-1.353c1.776 2.367 6.394 4.145 4.707 7.359zM130.287 101.072c-1.508 1.269-3.373 1.776-5.326 2.03l-.357-.592c2.042-.169 3.554-3.299 5.683-1.438z" fill="#fff"/><path d="M122.475 102.002c-.889 3.13-4.797 3.807-7.637 4.653-1.156.93-1.6 2.114-2.045 3.299-.709-.678-.621-1.861-.709-2.876 3.553-1.1 7.637-1.946 9.59-5.329l.801.253z" fill="#fff"/><path d="M127.625 106.4c-3.73 1.692-7.727 4.568-7.727 9.05l-.09.762c-.975-.423-1.332-1.353-1.42-2.283-.266-3.13 1.953-5.92 4.707-7.443 1.332-.507 2.842-.592 4.262-.677l.268.591z" fill="#cf4044"/><path d="M60.487 107.415c.623.509.623 1.438.445 2.031.355-.339 1.065-.508 1.421-.17l1.42 1.354-.888 1.354c-.621-.338-1.065-1.438-1.953-1.015l-.977 1.268 1.598 1.523-.888 1.269c-2.132-1.691-3.996-3.554-6.038-5.498 1.065-1.269 1.775-2.875 3.108-3.722 1.244-.169 1.954.846 2.752 1.606zM98.318 109.361l-.266.508c-6.127.085-11.102-2.454-17.141-2.708 6.307-1.859 11.102 2.962 17.407 2.2zM127.891 107.67c-2.309 1.691-5.328 3.721-6.305 6.429l-.088 3.214c-.979-3.214.531-6.429 3.463-8.374a8.953 8.953 0 0 1 2.93-1.269z" fill="#fff"/><path d="M59.689 109.192c0 .677-.71 1.099-1.066 1.691l-1.599-1.522c.444-.423.711-1.691 1.599-1.269l1.066 1.1z"/><path d="M96.453 111.56l-.799.677c-5.772-.338-10.656-2.79-16.518-3.129 6.306-1.693 11.19 2.875 17.317 2.452zM135.262 112.067c0 1.184-.711 1.946-1.6 2.707h-1.33c.887 0 1.775-.254 2.219-1.1.266-.592.178-1.438-.178-2.029-1.154-1.522-3.197-1.607-4.439-2.961 1.953.592 4.705 1.015 5.328 3.383zM128.158 109.107c-1.777 1.269-2.488 3.214-2.576 5.328-.355-1.268-.355-2.79.266-3.975a3.275 3.275 0 0 1 2.31-1.353zM138.191 110.123c-.621.253-1.42.168-2.131.084.534-.253 1.51-.169 2.131-.084z" fill="#fff"/><path d="M142.012 115.028l-.18 1.606c-.531-.252-.799.424-.887.762l-.268.677c-.088-.17.09-.846-.355-1.015-.619 1.268-1.863 2.453-3.107 3.214.355-.424.977-1.1 1.332-1.692l-.088-.168c-2.221 1.606-4.531 3.636-7.371 3.298 3.463-1.776 7.371-4.482 9.146-8.035-1.066-.677-.178-2.2-.799-3.13 1.866.678 2.487 2.792 2.577 4.483z" fill="#cf4044"/><path d="M115.725 111.475l1.51 1.439c-.889-.339-2.311-.678-3.109-1.691v-.593c-.089 1.099.888.508 1.599.845zM93.967 113.59c-.711 1.354-2.309.424-3.286.424-4.618-.846-8.792-2.707-13.765-2.876 5.862-1.608 11.012 2.876 17.051 2.452zM138.281 111.475c-.178.847-1.422.593-2.133.762-.266-.677.533-.762 1.066-1.014.356 0 .977-.085 1.067.252zM58.979 115.45c.799 2.114-1.599 3.554-2.487 5.329l-6.039-5.582c1.154-1.354 1.776-3.299 3.64-3.891 2.043.508 3.82 2.454 4.886 4.144z" fill="#fff"/><path d="M80.38 112.66c-.178.846-.799 1.522-1.509 2.114-.978-.507-2.398-.761-2.664-2.03 1.154-.423 2.751.085 4.173-.084z" fill="#cf4044"/><path d="M138.281 113.251c-1.244-.083-1.688 1.608-2.932 1.692.712-.844 1.598-2.96 2.932-1.692z" fill="#fff"/><path d="M57.202 116.128c.089.846-.71 1.353-1.065 1.945-1.243-1.1-2.131-1.861-3.286-3.045.622-.508.888-2.03 1.954-1.522.799.93 2.13 1.522 2.397 2.622z"/><path d="M131 114.521c-.979 0-1.867-.338-2.932-.338 1.065-.169 1.953.169 2.932.338zM131.088 114.604h.355-.355zM131.709 114.689h.268-.268zM127.535 115.366c-.088 2.453-1.598 4.398-2.486 6.598l-.799-.17 2.752-6.428h.533zM131.709 115.958c-.621.677-1.332 0-1.953-.169.531-.676 1.332.085 1.953.169z" fill="#fff"/><path d="M93.167 121.626c.089 2.791-2.575 5.158-4.972 6.343-1.954.677-4.352.677-6.216-.084 3.818.338 8.258-.508 10.389-4.229.178-.424.799-.847.711-1.354-1.955-.424-1.865 2.114-3.375 2.537l1.066-2.03c-1.955.677-2.131 3.468-4.44 3.638.443-.339 1.331-.847 1.154-1.524-1.777.424-3.198 2.285-4.974 2.031.888-.677 2.131-.846 2.754-1.861-1.688-.338-3.021 1.691-4.885.761.178-.253.532-.253.71-.507-1.065-.085-2.841.086-3.64-1.015-1.421-2.199-.711-5.413.799-7.358l.71-.762c4.352 2.792 9.059 4.652 14.209 5.414z" fill="#cf4044"/><path fill="#fff" d="M133.309 116.297h.709-.709zM131.887 117.228c-.533.507-1.332.423-1.953.253-.355-.422-1.066-.253-1.066-.762 1.066-.084 1.954.677 3.019.509z"/><path d="M111.463 123.571c1.064 1.607 1.953 3.213 2.041 5.159-3.107 2.96-7.193 3.637-11.277 4.313l6.926-2.622c2.221-2.453.355-5.836.533-8.796l-.355-2.368 2.309 3.975-.177.339z" fill="#ecb73b"/><path d="M136.682 122.81c-2.574 2.283-6.66 2.537-10.035 1.776-.621-.508-.176-1.185.09-1.691l.088-.169c3.019 1.352 6.837 1.015 9.857.084zM124.781 123.232c0 2.029-2.84 4.061-.621 5.836-.533.169-1.064.593-1.598.847.178-.678-.443-1.185-1.064-1.438l-1.512-.339c-.088-1.775 2.133-.676 2.932-1.521l-.355-.931c.355-.169.799-.253 1.242-.507-.178-.256-.531-.508-.709-.762l.799-.169c.088-.339-.355-.677-.268-1.101l1.154.085zM83.044 129.661h1.331c0 .845-.621 1.86-1.775 1.269-2.576-.253-5.239-1.184-6.749-3.468-.533-.931-.888-2.115-1.066-3.299 0-.254.444-.507.622-.846.976 3.214 4.263 5.666 7.637 6.344zM81.535 133.213c.089.339-.355.677-.799.762-3.197.253-6.04-1.269-7.726-3.722-.356-1.522-2.042-3.383-.356-4.736 1.598 3.213 4.174 8.119 8.881 7.696zM134.107 126.87c-1.775 1.184-3.82 2.198-6.129 1.775-1.064-.254-2.041-.508-3.018-1.015l.266-1.1c2.576 1.354 6.572.846 9.146-.423.267.255-.177.594-.265.763z" fill="#fff"/><path d="M74.875 135.666l2.93.593c-.799.592-1.953 1.268-3.108 1.353-.354-2.284-2.664-3.299-4.44-4.398l-2.31-.592c.533-1.269.711-2.706 1.777-3.722.887 2.537 1.687 6.174 5.151 6.766z" fill="#cf4044"/><path d="M127.803 130.76c-.979.677-2.309 1.186-3.553.677-.623-.169-.178-.677 0-1.015 1.154-.761 2.309.338 3.553.338zM64.484 136.597c-2.131 1.692-2.131 4.313-3.463 6.344 0 1.015-.444 1.944-.888 2.791-.178-.423-1.066-1.268-.268-1.861-.266-1.184.178-2.368.533-3.467a238.716 238.716 0 0 1 6.927-9.558c-.976 1.86-2.841 3.466-2.841 5.751z" fill="#fff"/><path d="M131.088 134.228h.088c-.443 0-1.064.169-1.42-.168l1.598-1.27c-.09.508-.799 1.015-.266 1.438z" fill="#cf4044"/><path d="M120.52 134.989l-.443 1.522.09-2.199c.442 0 .265.507.353.677z"/><path d="M72.476 135.92c.355.846 1.065 1.775.444 2.706-.71-1.438-1.864-3.299-3.73-3.383-.977-.169-2.309 1.099-2.841-.169 1.953-.678 4.618-.846 6.127.846zM131.799 135.243c-.711.677-1.777.677-2.756.762-.176-.255-.086-.678.09-.846.801-.424 1.777-.085 2.666.084z" fill="#fff"/><path d="M109.152 136.342c-.443 5.499-6.482 8.204-10.301 11.504-2.131 1.438-4.263 3.045-6.394 4.483 4.263-6.006 12.433-8.12 15.984-14.548.355-.677-.176-1.185-.531-1.522l-.889-.509-5.861-.339c2.486-.676 5.596-.592 7.816.679l.176.252z"/><path d="M69.457 137.442c-.621.253-2.131-.423-2.042.762-.178-.086-.355.085-.444.252.089.424.533.424.888.34.089-.086.089 0 .178.084v.085c-.443.169-1.243-.169-1.598.339-.089.93 1.864.168 1.154.846-.533.084-1.421-.424-1.599.254.178.592 1.332.422 1.51.761-.267.253-.622.085-.8.338.534.677 1.688 1.015 2.576 1.1l-1.066-1.185c.444-.083.977.762 1.511.254l-1.066-1.1 1.066-.168-.534-.847c.444 0 .8.761 1.154.338-.088-.591-.799-.93-.71-1.521.8.169 1.51.592 1.776 1.268-.443.847-.354 1.776-1.066 2.538.356.508.267 1.1-.354 1.27-.09.338.532.422.354.761-.799.255-.354 1.1-.178 1.522-1.954-.423-4.617-1.776-6.216.169-.178 0-.533 0-.443-.255.088-1.015 1.598-1.437 1.242-2.535.445 0 .623-.509.445-.847-.533-1.015.71-1.607.621-2.538.089-1.016.623-1.861 1.066-2.706.799-.424 1.865-.001 2.575.421z" fill="#fff"/><path d="M68.658 143.363c-.444 0-1.065-.423-1.332 0 .089.507.799.423 1.066.846l-1.776-.254c.177-.085.622-.592.266-.931-.089-.254-.354-.254-.621-.338.887-.422 2.131.168 2.397.677zM108.266 152.243c.088-1.69 1.775-2.96 2.307-4.65h.268l-2.575 4.65z"/><path d="M69.279 149.198c.355.847.178 1.861-.267 2.623-1.065-.931-1.775-2.538-1.864-4.062.888.087 1.775.594 2.131 1.439z" fill="#fff"/><path d="M101.871 157.911c1.332-2.791 2.574-5.582 4.707-7.951-1.598 2.537-3.287 5.244-4.707 7.951z"/><path d="M65.017 155.12c-.622 1.944-2.575 4.312-4.883 4.567-1.333-2.791-1.155-6.26-1.421-9.389 1.509 2.285 3.906 3.554 6.304 4.822z" fill="#fff"/><path d="M104.092 157.573c.621-1.946 1.598-3.722 2.752-5.499-.533 1.947-1.776 3.723-2.752 5.499zM110.307 160.871c-1.865 3.637-5.861 6.683-10.389 6.429-.443-1.27-2.311-2.199-1.6-3.638 1.953-3.806 6.127-5.665 10.391-5.583l1.598 2.792z"/><path d="M107.555 158.927c-.355 2.029-2.754 2.706-4.352 3.552-.533-.846 1.777-.762.711-1.438l-1.244.508c-.266-.338 0-.846.266-1.185 1.244-1.1 2.841-1.523 4.619-1.437zM107.021 162.479c-.711 0-1.244.846-1.688 1.1 0 .169.178.423.355.423l.533-.085c-1.154.846-1.865 2.2-3.375 2.368-.178-.592-.799-.423-1.242-.338h-.178c.709-2.114 3.107-2.96 4.973-3.976.267.169.533.169.622.508z" fill="#fff"/><path d="M104.623 163.493c.09.169-.178.339-.355.423-.088 0-.088 0-.176-.084 0-.254.353-.339.531-.339z"/><path d="M102.033 104.283c.178.253.621.888.443 1.058-.266 0-1.982-1.016-2.07-1.27.073-1.181 1.362.127 1.627.212zM114.932 131.624c-2.127 1.851-4.439 3.172-9.064 2.82 10.545 1.938 3.33 9.427-12.582 17.268 8.511-3.7 22.015-13.392 18.501 5.11.74-.528 1.48-.528 2.035-3.171.186 2.114.74 5.462 1.664 6.52-.924-7.754 2.775-19.207 10.176-8.635-3.145-7.577-2.773-16.387 8.881-10.749-2.959-3.523-15.91-3.876-10.361 8.106-3.514-5.463-7.584-2.643-9.619 1.232-.74-5.639-2.592-7.225-6.291-6.871 2.035-1.939 6.66-2.468 6.846 4.581.926-1.585 3.238-5.199 6.383-3.612-.184-2.291.557-5.551 4.07-7.225-.555-.793-.648-2.026-.463-2.644-1.11-.086-9.807-2.025-10.176-2.73z" fill="#fff"/><path d="M135.617 140.741c-1.6.423-3.02-.931-4.795-.592l-.09.168c3.195 2.623 10.922-.931 10.656 5.328-.443 1.607-.443 3.723-2.309 4.399-.533.084-1.154.254-1.332.762.266 2.198 1.42 5.075-.533 6.851-1.51 1.015-3.73.422-5.506.422-5.771-.761-10.922-2.959-15.719-6.005l-.176.255c-.09 2.621-.445 5.328 0 7.865-1.334-4.312-.891-9.727 2.662-12.771.711-.677 1.777-.762 2.754-.508 2.043.593 3.287 2.622 4.439 4.229-1.688-1.607-3.373-3.637-5.861-3.722l-.975 1.016c2.93 2.029 5.947 4.905 9.855 4.145 0-1.523-.977-3.13-2.486-3.808-.355.932.178 1.777.09 2.707-1.332-3.383-3.287-7.781-.977-11.333 3.02-2.285 7.284-.677 10.303.592z"/><path d="M125.67 151.145c-1.688-1.607-3.373-3.637-5.861-3.722l-.975 1.016c2.93 2.029 5.947 4.905 9.855 4.145 0-1.523-.977-3.13-2.486-3.808-.355.932.178 1.777.09 2.707l-.623-.338zM128.689 140.571c-.443.593-1.688.846-1.598 1.777 1.066.506 1.865-.593 2.664-.932.266-.253-.178-.338-.268-.507.178-.339.355.169.533.169.178.17.178.508-.088.592-.445.424-1.154.424-1.51 1.016.887.762 1.953-.338 2.84-.762v-.508l1.422.254c-1.51.424-3.375 2.707-5.15 1.184-.621 0-1.064-.338-1.064-.93l-.977-.084c.622-.93 1.954-1.523 3.196-1.269zM138.104 144.464c-.09.845.355 1.774-.178 2.451-1.244-.422-1.955-1.86-2.486-2.96.708-.339 2.22-.507 2.664.509zM133.219 149.114c-.176.169-.443.423-.799.339l-.266-.255c-1.955.425-3.643-.506-5.33-1.099l-.088-.592 6.483 1.607z" fill="#fff"/><path d="M128.957 153.767c1.598-.509.709-2.368.977-3.553 2.043.085 4.352.593 6.482.931.621 1.86 1.955 4.398.266 6.174-7.639 1.016-14.385-1.691-20.336-5.497l1.422-2.961c3.462 2.199 6.836 4.737 11.189 4.906z" fill="#fff"/><path d="M109.686 144.97c.977.593 2.309 1.269 2.576 2.538.443 3.468-.09 6.936-.799 10.065l-.355-.255c.621-3.467 1.863-7.358.178-10.825a6.197 6.197 0 0 0-2.309-1.016l-1.512 2.791c-.178-1.016.801-1.775.977-2.706-3.285-1.017-5.506 1.86-8.436 2.621 2.398-2.114 5.506-3.638 9.146-3.299.801-.676.711-1.774 1.51-2.452-.09.846-.709 1.692-.976 2.538zM119.543 130.93c-2.131 3.722-4.262 7.443-6.572 11.08l.178-1.354 6.129-10.403c.353 0 .353.424.265.677zM119.898 138.88c-.621 2.791-1.422 5.666-2.131 8.373l-.355-.254 2.219-8.119h.267zM117.768 136.851c.443-1.776.977-3.891 2.486-5.414-.445 1.861-1.688 3.552-2.486 5.414zM111.551 159.603l.621-2.791c.178-.17.355-.085.533-.17l-1.154 2.961zM117.145 138.88c-.887 2.115-1.953 4.061-2.84 6.005.443-2.368 1.51-4.735 2.664-7.021.621.171.176.762.176 1.016zM117.143 131.135c-1.527 3.042-3.715 5.928-5.059 9.015 0 .168.088.168.178.254 2.094-2.991 4.059-6.041 5.742-9.202l-.861-.067zM121.43 132.811a7.484 7.484 0 0 0 .068 1.925c.264-.708.721-1.204 1.062-1.76l-1.13-.165z"/></g></svg>