<svg xmlns="http://www.w3.org/2000/svg" width="2500" height="2500" viewBox="0 0 192.756 192.756"><g fill-rule="evenodd" clip-rule="evenodd"><path fill="#fff" d="M0 0h192.756v192.756H0V0z"/><path d="M122.719 16.309l-5.951 5.411c15.805 7.973 26.645 24.352 26.645 43.261 0 26.743-21.68 48.425-48.423 48.425-1.883 0-3.741-.111-5.568-.32 18.255-22.018 27.052-37.169 27.052-48.104 0-20.813-19.246-18.575-19.246-29.765 0-6.266 16.225-16.708 25.623-26.108-7.809-3.92-16.514-6.274-25.848-6.274-31.992 0-57.928 25.937-57.928 57.929 0 21.984 12.247 41.107 30.29 50.922l4.054-3.338C57.5 100.414 46.565 83.975 46.565 64.981c0-26.744 21.681-48.424 48.424-48.424 1.665 0 3.31.087 4.931.251-9.604 8.681-19.336 21.554-2.246 34.074 10.742 8.057 13.875 15.218-2.685 38.493-16.561 23.275-26.585 29.297-26.585 29.297 8.146 4.369 17.458 6.85 27.35 6.85 31.993 0 57.929-25.936 57.929-57.929-.001-22.257-12.554-41.583-30.964-51.284zM47.443 146.535h11.671c13.077 0 23.806 4.4 20.649 21.326-3.157 16.928-15.527 21.326-28.604 21.326H39.488l7.955-42.652zm1.853 35.932h4.767c7.149 0 15.046-5.316 16.778-14.605 1.732-9.289-4.181-14.605-11.331-14.605h-4.767l-5.447 29.21zM113.012 154.357c-2.473-1.162-5.342-1.834-8.336-1.834-2.932 0-6.961 1.283-7.827 5.928-1.379 7.395 17.901 4.277 15.235 18.576-1.744 9.35-9.799 12.895-18.416 12.895-4.645 0-6.608-.611-10.631-1.65l2.23-7.699c2.637 1.588 5.804 2.627 9.166 2.627 3.238 0 7.885-1.65 8.602-5.5 1.518-8.127-17.809-4.766-15.176-18.881 1.778-9.533 9.821-13.018 17.338-13.018 3.666 0 6.996.49 9.92 1.529l-2.105 7.027zM125.523 146.535h23.711l-1.254 6.721h-15.156l-1.959 10.512h14.422l-1.254 6.72h-14.422l-3.488 18.7h-8.555l7.955-42.653z"/></g></svg>